<svg xmlns="http://www.w3.org/2000/svg" width="161.7" height="100.0" viewBox="-2 -5 172 110">
<g fill="none" stroke="black" stroke-width="7.9850%" transform="translate(0, 100.0000) scale(0.0626, -0.0626)">
<line x1="46" y1="0" x2="46" y2="1" />
<line x1="92" y1="0" x2="92" y2="2" />
<line x1="138" y1="0" x2="138" y2="4" />
<line x1="184" y1="0" x2="184" y2="7" />
<line x1="231" y1="0" x2="231" y2="11" />
<line x1="277" y1="0" x2="277" y2="16" />
<line x1="323" y1="0" x2="323" y2="22" />
<line x1="369" y1="0" x2="369" y2="29" />
<line x1="415" y1="0" x2="415" y2="37" />
<line x1="461" y1="0" x2="461" y2="46" />
<line x1="507" y1="0" x2="507" y2="56" />
<line x1="553" y1="0" x2="553" y2="67" />
<line x1="599" y1="0" x2="599" y2="79" />
<line x1="646" y1="0" x2="646" y2="92" />
<line x1="692" y1="0" x2="692" y2="106" />
<line x1="738" y1="0" x2="738" y2="121" />
<line x1="784" y1="0" x2="784" y2="137" />
<line x1="830" y1="0" x2="830" y2="154" />
<line x1="876" y1="0" x2="876" y2="172" />
<line x1="922" y1="0" x2="922" y2="191" />
<line x1="968" y1="0" x2="968" y2="211" />
<line x1="1015" y1="0" x2="1015" y2="232" />
<line x1="1061" y1="0" x2="1061" y2="254" />
<line x1="1107" y1="0" x2="1107" y2="277" />
<line x1="1153" y1="0" x2="1153" y2="301" />
<line x1="1199" y1="0" x2="1199" y2="326" />
<line x1="1245" y1="0" x2="1245" y2="352" />
<line x1="1291" y1="0" x2="1291" y2="379" />
<line x1="1337" y1="0" x2="1337" y2="407" />
<line x1="1383" y1="0" x2="1383" y2="436" />
<line x1="1430" y1="0" x2="1430" y2="466" />
<line x1="1476" y1="0" x2="1476" y2="497" />
<line x1="1522" y1="0" x2="1522" y2="529" />
<line x1="1568" y1="0" x2="1568" y2="562" />
<line x1="1614" y1="0" x2="1614" y2="596" />
<line x1="1660" y1="0" x2="1660" y2="631" />
<line x1="1706" y1="0" x2="1706" y2="667" />
<line x1="1752" y1="0" x2="1752" y2="704" />
<line x1="1798" y1="0" x2="1798" y2="742" />
<line x1="1845" y1="0" x2="1845" y2="781" />
<line x1="1891" y1="0" x2="1891" y2="821" />
<line x1="1937" y1="0" x2="1937" y2="862" />
<line x1="1983" y1="0" x2="1983" y2="904" />
<line x1="2029" y1="0" x2="2029" y2="947" />
<line x1="2075" y1="0" x2="2075" y2="991" />
<line x1="2121" y1="0" x2="2121" y2="1036" />
<line x1="2167" y1="0" x2="2167" y2="1082" />
<line x1="2213" y1="0" x2="2213" y2="1129" />
<line x1="2260" y1="0" x2="2260" y2="1177" />
<line x1="2306" y1="0" x2="2306" y2="1226" />
<line x1="2352" y1="0" x2="2352" y2="1276" />
<line x1="2398" y1="0" x2="2398" y2="1327" />
<line x1="2444" y1="0" x2="2444" y2="1379" />
<line x1="2490" y1="0" x2="2490" y2="1432" />
<line x1="2536" y1="0" x2="2536" y2="1486" />
<line x1="2582" y1="0" x2="2582" y2="1541" />
<line x1="2628" y1="0" x2="2628" y2="1597" />
</g>
</svg>