<svg xmlns="http://www.w3.org/2000/svg" width="161.8" height="100.0" viewBox="-3.35 -80.48 171.80 110.00">
<g fill="none" stroke="black" stroke-width="0.0339%" transform="translate(0, -50.9629) scale(14.7342, -14.7342)">
<polyline points="0.11,0.92 0.22,1.66 0.34,1.36 0.45,0.75 0.56,0.00 0.67,-0.92 0.78,-1.12 0.90,-1.42 1.01,-1.89 1.12,-2.07 1.23,-1.56 1.34,-0.98 1.46,-0.91 1.57,-0.92 1.68,-0.34 1.79,-0.54 1.90,-0.28 2.02,-0.54 2.13,-0.68 2.24,-0.69 2.35,-0.20 2.47,-0.96 2.58,-1.58 2.69,-1.58 2.80,-1.43 2.91,-1.14 3.03,-1.21 3.14,-1.02 3.25,-0.62 3.36,-0.06 3.47,0.94 3.59,0.94 3.70,1.28 3.81,0.71 3.92,-0.06 4.03,0.29 4.15,0.75 4.26,-0.17 4.37,0.02 4.48,-0.56 4.59,-1.35 4.71,-0.74 4.82,-1.51 4.93,-2.23 5.04,-1.71 5.15,-1.57 5.27,-1.92 5.38,-1.49 5.49,-2.34 5.60,-2.14 5.71,-1.87 5.83,-2.57 5.94,-2.92 6.05,-3.08 6.16,-3.79 6.28,-3.64 6.39,-3.48 6.50,-2.99 6.61,-2.28 6.72,-2.84 6.84,-3.56 6.95,-4.22 7.06,-5.12 7.17,-5.08 7.28,-4.40 7.40,-4.21 7.51,-4.18 7.62,-3.49 7.73,-2.92 7.84,-3.63 7.96,-3.44 8.07,-2.89 8.18,-3.14 8.29,-2.50 8.40,-3.25 8.52,-2.31 8.63,-1.37 8.74,-1.59 8.85,-2.30 8.96,-2.68 9.08,-3.06 9.19,-3.73 9.30,-3.67 9.41,-3.50 9.52,-3.41 9.64,-3.87 9.75,-3.84 9.86,-4.24 9.97,-3.99 10.09,-3.01 10.20,-2.79 10.31,-2.33 10.42,-1.73 10.53,-1.85 10.65,-2.45 10.76,-2.61 10.87,-3.57 10.98,-4.43 11.09,-3.81" />
</g>
</svg>