<svg xmlns="http://www.w3.org/2000/svg" width="100.0" height="100.0" viewBox="-55.00 -55.00 110.00 110.00">
<g fill="none" stroke="black" stroke-width="0.0235%" transform="translate(0, 0.0000) scale(21.2414, -21.2414)">
<polyline points="1.00,-2.26 1.01,-2.26 1.01,-2.25 1.16,-2.16 1.25,-2.06 1.28,-2.03 1.32,-2.00 1.31,-1.94 1.27,-1.77 1.26,-1.75 1.26,-1.74 1.27,-1.52 1.28,-1.50 1.40,-1.40 1.50,-1.28 1.52,-1.27 1.74,-1.26 1.75,-1.26 1.77,-1.27 1.94,-1.31 2.00,-1.32 2.03,-1.28 2.06,-1.25 2.16,-1.16 2.25,-1.01 2.26,-1.01 2.26,-1.00 2.26,-0.99 2.25,-0.97 2.19,-0.81 2.16,-0.75 2.12,-0.63 2.11,-0.61 2.06,-0.50 2.14,-0.39 2.16,-0.34 2.21,-0.25 2.23,-0.23 2.25,-0.18 2.32,-0.07 2.35,0.00 2.32,0.07 2.25,0.18 2.23,0.23 2.21,0.25 2.16,0.34 2.14,0.39 2.06,0.50 2.11,0.61 2.12,0.63 2.16,0.75 2.19,0.81 2.25,0.97 2.26,0.99 2.26,1.00 2.26,1.01 2.25,1.01 2.16,1.16 2.06,1.25 2.03,1.28 2.00,1.32 1.94,1.31 1.77,1.27 1.75,1.26 1.74,1.26 1.52,1.27 1.50,1.28 1.40,1.40 1.28,1.50 1.27,1.52 1.26,1.74 1.26,1.75 1.27,1.77 1.31,1.94 1.32,2.00 1.28,2.03 1.25,2.06 1.16,2.16 1.01,2.25 1.01,2.26 1.00,2.26 0.99,2.26 0.97,2.25 0.81,2.19 0.75,2.16 0.63,2.12 0.61,2.11 0.50,2.06 0.39,2.14 0.34,2.16 0.25,2.21 0.23,2.23 0.18,2.25 0.07,2.32 0.00,2.35 -0.07,2.32 -0.18,2.25 -0.23,2.23 -0.25,2.21 -0.34,2.16 -0.39,2.14 -0.50,2.06 -0.61,2.11 -0.63,2.12 -0.75,2.16 -0.81,2.19 -0.97,2.25 -0.99,2.26 -1.00,2.26 -1.01,2.26 -1.01,2.25 -1.16,2.16 -1.25,2.06 -1.28,2.03 -1.32,2.00 -1.31,1.94 -1.27,1.77 -1.26,1.75 -1.26,1.74 -1.27,1.52 -1.28,1.50 -1.40,1.40 -1.50,1.28 -1.52,1.27 -1.74,1.26 -1.75,1.26 -1.77,1.27 -1.94,1.31 -2.00,1.32 -2.03,1.28 -2.06,1.25 -2.16,1.16 -2.25,1.01 -2.26,1.01 -2.26,1.00 -2.26,0.99 -2.25,0.97 -2.19,0.81 -2.16,0.75 -2.12,0.63 -2.11,0.61 -2.06,0.50 -2.14,0.39 -2.16,0.34 -2.21,0.25 -2.23,0.23 -2.25,0.18 -2.32,0.07 -2.35,0.00 -2.32,-0.07 -2.25,-0.18 -2.23,-0.23 -2.21,-0.25 -2.16,-0.34 -2.14,-0.39 -2.06,-0.50 -2.11,-0.61 -2.12,-0.63 -2.16,-0.75 -2.19,-0.81 -2.25,-0.97 -2.26,-0.99 -2.26,-1.00 -2.26,-1.01 -2.25,-1.01 -2.16,-1.16 -2.06,-1.25 -2.03,-1.28 -2.00,-1.32 -1.94,-1.31 -1.77,-1.27 -1.75,-1.26 -1.74,-1.26 -1.52,-1.27 -1.50,-1.28 -1.40,-1.40 -1.28,-1.50 -1.27,-1.52 -1.26,-1.74 -1.26,-1.75 -1.27,-1.77 -1.31,-1.94 -1.32,-2.00 -1.28,-2.03 -1.25,-2.06 -1.16,-2.16 -1.01,-2.25 -1.01,-2.26 -1.00,-2.26 -0.99,-2.26 -0.97,-2.25 -0.81,-2.19 -0.75,-2.16 -0.63,-2.12 -0.61,-2.11 -0.50,-2.06 -0.39,-2.14 -0.34,-2.16 -0.25,-2.21 -0.23,-2.23 -0.18,-2.25 -0.07,-2.32 0.00,-2.35 0.07,-2.32 0.18,-2.25 0.23,-2.23 0.25,-2.21 0.34,-2.16 0.39,-2.14 0.50,-2.06 0.61,-2.11 0.63,-2.12 0.75,-2.16 0.81,-2.19 0.97,-2.25 0.99,-2.26 1.00,-2.26" />
<polyline points="-2.00,1.86 -1.92,1.92 -1.86,2.00 -1.95,2.05 -2.00,2.07 -2.04,2.04 -2.07,2.00 -2.05,1.95 -2.00,1.86" />
<polyline points="0.00,1.97 0.01,1.99 0.02,2.00 0.01,2.01 0.00,2.01 -0.01,2.01 -0.02,2.00 -0.01,1.99 0.00,1.97" />
<polyline points="2.00,1.86 2.05,1.95 2.07,2.00 2.04,2.04 2.00,2.07 1.95,2.05 1.86,2.00 1.92,1.92 2.00,1.86" />
<polyline points="0.00,-1.39 0.10,-1.35 0.24,-1.25 0.25,-1.25 0.25,-1.25 0.26,-1.24 0.41,-1.16 0.50,-1.10 0.62,-1.13 0.63,-1.13 0.75,-1.15 0.82,-1.18 0.97,-1.22 1.00,-1.23 1.12,-1.12 1.23,-1.00 1.22,-0.97 1.18,-0.82 1.15,-0.75 1.13,-0.63 1.13,-0.62 1.10,-0.50 1.16,-0.41 1.24,-0.26 1.25,-0.25 1.25,-0.25 1.25,-0.24 1.35,-0.10 1.39,0.00 1.35,0.10 1.25,0.24 1.25,0.25 1.25,0.25 1.24,0.26 1.16,0.41 1.10,0.50 1.13,0.62 1.13,0.63 1.15,0.75 1.18,0.82 1.22,0.97 1.23,1.00 1.12,1.12 1.00,1.23 0.97,1.22 0.82,1.18 0.75,1.15 0.63,1.13 0.62,1.13 0.50,1.10 0.41,1.16 0.26,1.24 0.25,1.25 0.25,1.25 0.24,1.25 0.10,1.35 0.00,1.39 -0.10,1.35 -0.24,1.25 -0.25,1.25 -0.25,1.25 -0.26,1.24 -0.41,1.16 -0.50,1.10 -0.62,1.13 -0.63,1.13 -0.75,1.15 -0.82,1.18 -0.97,1.22 -1.00,1.23 -1.12,1.12 -1.23,1.00 -1.22,0.97 -1.18,0.82 -1.15,0.75 -1.13,0.63 -1.13,0.62 -1.10,0.50 -1.16,0.41 -1.24,0.26 -1.25,0.25 -1.25,0.25 -1.25,0.24 -1.35,0.10 -1.39,0.00 -1.35,-0.10 -1.25,-0.24 -1.25,-0.25 -1.25,-0.25 -1.24,-0.26 -1.16,-0.41 -1.10,-0.50 -1.13,-0.62 -1.13,-0.63 -1.15,-0.75 -1.18,-0.82 -1.22,-0.97 -1.23,-1.00 -1.12,-1.12 -1.00,-1.23 -0.97,-1.22 -0.82,-1.18 -0.75,-1.15 -0.63,-1.13 -0.62,-1.13 -0.50,-1.10 -0.41,-1.16 -0.26,-1.24 -0.25,-1.25 -0.25,-1.25 -0.24,-1.25 -0.10,-1.35 0.00,-1.39" />
<polyline points="0.00,0.80 0.07,0.93 0.08,1.00 0.03,1.03 0.00,1.05 -0.03,1.03 -0.08,1.00 -0.07,0.93 0.00,0.80" />
<polyline points="0.25,-0.33 0.29,-0.29 0.33,-0.25 0.41,-0.16 0.46,-0.04 0.48,0.00 0.46,0.04 0.41,0.16 0.33,0.25 0.29,0.29 0.25,0.33 0.16,0.41 0.04,0.46 0.00,0.48 -0.04,0.46 -0.16,0.41 -0.25,0.33 -0.29,0.29 -0.33,0.25 -0.41,0.16 -0.46,0.04 -0.48,0.00 -0.46,-0.04 -0.41,-0.16 -0.33,-0.25 -0.29,-0.29 -0.25,-0.33 -0.16,-0.41 -0.04,-0.46 0.00,-0.48 0.04,-0.46 0.16,-0.41 0.25,-0.33" />
<polyline points="-2.00,-0.02 -1.99,-0.01 -1.97,0.00 -1.99,0.01 -2.00,0.02 -2.01,0.01 -2.01,0.00 -2.01,-0.01 -2.00,-0.02" />
<polyline points="-1.00,-0.08 -0.93,-0.07 -0.80,0.00 -0.93,0.07 -1.00,0.08 -1.03,0.03 -1.05,0.00 -1.03,-0.03 -1.00,-0.08" />
<polyline points="0.00,-0.14 0.08,-0.08 0.14,0.00 0.08,0.08 0.00,0.14 -0.08,0.08 -0.14,0.00 -0.08,-0.08 0.00,-0.14" />
<polyline points="1.00,-0.08 1.03,-0.03 1.05,0.00 1.03,0.03 1.00,0.08 0.93,0.07 0.80,0.00 0.93,-0.07 1.00,-0.08" />
<polyline points="2.00,-0.02 2.01,-0.01 2.01,0.00 2.01,0.01 2.00,0.02 1.99,0.01 1.97,0.00 1.99,-0.01 2.00,-0.02" />
<polyline points="0.00,-1.05 0.03,-1.03 0.08,-1.00 0.07,-0.93 0.00,-0.80 -0.07,-0.93 -0.08,-1.00 -0.03,-1.03 0.00,-1.05" />
<polyline points="-2.00,-2.07 -1.95,-2.05 -1.86,-2.00 -1.92,-1.92 -2.00,-1.86 -2.05,-1.95 -2.07,-2.00 -2.04,-2.04 -2.00,-2.07" />
<polyline points="0.00,-2.01 0.01,-2.01 0.02,-2.00 0.01,-1.99 0.00,-1.97 -0.01,-1.99 -0.02,-2.00 -0.01,-2.01 0.00,-2.01" />
<polyline points="2.00,-2.07 2.04,-2.04 2.07,-2.00 2.05,-1.95 2.00,-1.86 1.92,-1.92 1.86,-2.00 1.95,-2.05 2.00,-2.07" />
</g>
</svg>