<?xml version="1.0" encoding="UTF-8" standalone="no"?>
<!DOCTYPE svg PUBLIC "-//W3C//DTD SVG 1.1//EN"
 "http://www.w3.org/Graphics/SVG/1.1/DTD/svg11.dtd">
<!-- Generated by graphviz version 12.0.0 (0)
 -->
<!-- Pages: 1 -->
<svg width="84pt" height="74pt"
 viewBox="0.00 0.00 83.81 74.01" xmlns="http://www.w3.org/2000/svg" xmlns:xlink="http://www.w3.org/1999/xlink">
<g id="graph0" class="graph" transform="scale(1 1) rotate(0) translate(4 70.01)">
<polygon fill="transparent" stroke="none" points="-4,4 -4,-70.01 79.81,-70.01 79.81,4 -4,4"/>
<!-- 1 -->
<g id="node1" class="node">
<title>1</title>
<ellipse fill="black" stroke="black" cx="1.8" cy="-63.73" rx="1.8" ry="1.8"/>
</g>
<!-- 2 -->
<g id="node2" class="node">
<title>2</title>
<ellipse fill="black" stroke="black" cx="74.01" cy="-64.21" rx="1.8" ry="1.8"/>
</g>
<!-- 1&#45;&gt;2 -->
<g id="edge1" class="edge">
<title>1&#45;&gt;2</title>
<path fill="none" stroke="black" stroke-width="0.75" d="M3.88,-63.75C13.44,-63.81 53.23,-64.07 68.24,-64.17"/>
<polygon fill="black" stroke="black" stroke-width="0.75" points="68.13,-65.04 70.64,-64.19 68.14,-63.29 68.13,-65.04"/>
</g>
<!-- 3 -->
<g id="node3" class="node">
<title>3</title>
<ellipse fill="black" stroke="black" cx="38.39" cy="-1.8" rx="1.8" ry="1.8"/>
</g>
<!-- 2&#45;&gt;3 -->
<g id="edge2" class="edge">
<title>2&#45;&gt;3</title>
<path fill="none" stroke="black" stroke-width="0.75" d="M72.98,-62.41C68.23,-54.08 48.29,-19.14 41.04,-6.44"/>
<polygon fill="black" stroke="black" stroke-width="0.75" points="41.92,-6.21 39.92,-4.48 40.4,-7.08 41.92,-6.21"/>
</g>
<!-- 3&#45;&gt;1 -->
<g id="edge3" class="edge">
<title>3&#45;&gt;1</title>
<path fill="none" stroke="black" stroke-width="0.75" d="M37.34,-3.59C32.45,-11.85 11.97,-46.52 4.52,-59.13"/>
<polygon fill="black" stroke="black" stroke-width="0.75" points="3.89,-58.48 3.37,-61.08 5.39,-59.37 3.89,-58.48"/>
</g>
</g>
</svg>
