<?xml version="1.0" encoding="UTF-8" standalone="no"?>
<!DOCTYPE svg PUBLIC "-//W3C//DTD SVG 1.1//EN"
 "http://www.w3.org/Graphics/SVG/1.1/DTD/svg11.dtd">
<!-- Generated by graphviz version 12.0.0 (0)
 -->
<!-- Pages: 1 -->
<svg width="61pt" height="54pt"
 viewBox="0.00 0.00 60.90 54.00" xmlns="http://www.w3.org/2000/svg" xmlns:xlink="http://www.w3.org/1999/xlink">
<g id="graph0" class="graph" transform="scale(0.267317 0.267317) rotate(0) translate(4 198.01)">
<!-- 1 -->
<g id="node1" class="node">
<title>1</title>
<ellipse fill="black" stroke="black" cx="4.48" cy="-67.99" rx="1.8" ry="1.8"/>
</g>
<!-- 6 -->
<g id="node2" class="node">
<title>6</title>
<ellipse fill="black" stroke="black" cx="54.84" cy="-154.57" rx="1.8" ry="1.8"/>
</g>
<!-- 1&#45;&#45;6 -->
<g id="edge1" class="edge">
<title>1&#45;&#45;6</title>
<path fill="none" stroke="black" stroke-width="0.75" d="M5.53,-69.8C12.08,-81.06 47.25,-141.53 53.79,-152.77"/>
</g>
<!-- 13 -->
<g id="node3" class="node">
<title>13</title>
<ellipse fill="black" stroke="black" cx="58.61" cy="-126.51" rx="1.8" ry="1.8"/>
</g>
<!-- 1&#45;&#45;13 -->
<g id="edge2" class="edge">
<title>1&#45;&#45;13</title>
<path fill="none" stroke="black" stroke-width="0.75" d="M6.04,-69.68C13.95,-78.22 49.47,-116.63 57.15,-124.92"/>
</g>
<!-- 20 -->
<g id="node4" class="node">
<title>20</title>
<ellipse fill="black" stroke="black" cx="37.77" cy="-153.22" rx="1.8" ry="1.8"/>
</g>
<!-- 1&#45;&#45;20 -->
<g id="edge3" class="edge">
<title>1&#45;&#45;20</title>
<path fill="none" stroke="black" stroke-width="0.75" d="M5.3,-70.09C9.91,-81.89 32.44,-139.59 36.97,-151.19"/>
</g>
<!-- 7 -->
<g id="node12" class="node">
<title>7</title>
<ellipse fill="black" stroke="black" cx="55.28" cy="-1.8" rx="1.8" ry="1.8"/>
</g>
<!-- 1&#45;&#45;7 -->
<g id="edge17" class="edge">
<title>1&#45;&#45;7</title>
<path fill="none" stroke="black" stroke-width="0.75" d="M5.73,-66.35C12.7,-57.27 46.56,-13.16 53.88,-3.62"/>
</g>
<!-- 14 -->
<g id="node13" class="node">
<title>14</title>
<ellipse fill="black" stroke="black" cx="63.33" cy="-17.99" rx="1.8" ry="1.8"/>
</g>
<!-- 1&#45;&#45;14 -->
<g id="edge35" class="edge">
<title>1&#45;&#45;14</title>
<path fill="none" stroke="black" stroke-width="0.75" d="M6.18,-66.55C14.77,-59.24 53.4,-26.44 61.74,-19.35"/>
</g>
<!-- 10 -->
<g id="node17" class="node">
<title>10</title>
<ellipse fill="black" stroke="black" cx="140.01" cy="-152.66" rx="1.8" ry="1.8"/>
</g>
<!-- 6&#45;&#45;10 -->
<g id="edge15" class="edge">
<title>6&#45;&#45;10</title>
<path fill="none" stroke="black" stroke-width="0.75" d="M56.94,-154.52C68.73,-154.26 126.38,-152.97 137.97,-152.71"/>
</g>
<!-- 17 -->
<g id="node18" class="node">
<title>17</title>
<ellipse fill="black" stroke="black" cx="124.88" cy="-160.94" rx="1.8" ry="1.8"/>
</g>
<!-- 6&#45;&#45;17 -->
<g id="edge16" class="edge">
<title>6&#45;&#45;17</title>
<path fill="none" stroke="black" stroke-width="0.75" d="M56.86,-154.75C67.09,-155.68 113.05,-159.87 122.99,-160.77"/>
</g>
<!-- 8 -->
<g id="node19" class="node">
<title>8</title>
<ellipse fill="black" stroke="black" cx="1.8" cy="-90.89" rx="1.8" ry="1.8"/>
</g>
<!-- 6&#45;&#45;8 -->
<g id="edge20" class="edge">
<title>6&#45;&#45;8</title>
<path fill="none" stroke="black" stroke-width="0.75" d="M53.53,-152.99C46.25,-144.26 10.91,-101.82 3.26,-92.65"/>
</g>
<!-- 15 -->
<g id="node20" class="node">
<title>15</title>
<ellipse fill="black" stroke="black" cx="29.93" cy="-72.92" rx="1.8" ry="1.8"/>
</g>
<!-- 6&#45;&#45;15 -->
<g id="edge38" class="edge">
<title>6&#45;&#45;15</title>
<path fill="none" stroke="black" stroke-width="0.75" d="M54.22,-152.55C50.78,-141.25 33.91,-85.97 30.52,-74.86"/>
</g>
<!-- 13&#45;&#45;17 -->
<g id="edge34" class="edge">
<title>13&#45;&#45;17</title>
<path fill="none" stroke="black" stroke-width="0.75" d="M60.53,-127.5C70.2,-132.53 113.69,-155.13 123.09,-160.01"/>
</g>
<!-- 13&#45;&#45;15 -->
<g id="edge39" class="edge">
<title>13&#45;&#45;15</title>
<path fill="none" stroke="black" stroke-width="0.75" d="M57.66,-124.73C53.3,-116.59 35.34,-83.02 30.91,-74.76"/>
</g>
<!-- 2 -->
<g id="node5" class="node">
<title>2</title>
<ellipse fill="black" stroke="black" cx="182.24" cy="-95.65" rx="1.8" ry="1.8"/>
</g>
<!-- 4 -->
<g id="node6" class="node">
<title>4</title>
<ellipse fill="black" stroke="black" cx="127.74" cy="-27.83" rx="1.8" ry="1.8"/>
</g>
<!-- 2&#45;&#45;4 -->
<g id="edge4" class="edge">
<title>2&#45;&#45;4</title>
<path fill="none" stroke="black" stroke-width="0.75" d="M180.9,-93.97C173.29,-84.51 135.82,-37.88 128.86,-29.22"/>
</g>
<!-- 11 -->
<g id="node7" class="node">
<title>11</title>
<ellipse fill="black" stroke="black" cx="137.22" cy="-2.85" rx="1.8" ry="1.8"/>
</g>
<!-- 2&#45;&#45;11 -->
<g id="edge5" class="edge">
<title>2&#45;&#45;11</title>
<path fill="none" stroke="black" stroke-width="0.75" d="M181.3,-93.71C175.44,-81.63 144,-16.83 138.16,-4.78"/>
</g>
<!-- 18 -->
<g id="node8" class="node">
<title>18</title>
<ellipse fill="black" stroke="black" cx="158.36" cy="-10.86" rx="1.8" ry="1.8"/>
</g>
<!-- 2&#45;&#45;18 -->
<g id="edge6" class="edge">
<title>2&#45;&#45;18</title>
<path fill="none" stroke="black" stroke-width="0.75" d="M181.65,-93.55C178.35,-81.82 162.18,-24.42 158.93,-12.89"/>
</g>
<!-- 3 -->
<g id="node9" class="node">
<title>3</title>
<ellipse fill="black" stroke="black" cx="119.44" cy="-129.42" rx="1.8" ry="1.8"/>
</g>
<!-- 2&#45;&#45;3 -->
<g id="edge7" class="edge">
<title>2&#45;&#45;3</title>
<path fill="none" stroke="black" stroke-width="0.75" d="M180.43,-96.62C171.26,-101.55 130.04,-123.71 121.14,-128.5"/>
</g>
<!-- 2&#45;&#45;10 -->
<g id="edge26" class="edge">
<title>2&#45;&#45;10</title>
<path fill="none" stroke="black" stroke-width="0.75" d="M181.2,-97.06C175.41,-104.88 147.26,-142.88 141.17,-151.09"/>
</g>
<!-- 2&#45;&#45;17 -->
<g id="edge44" class="edge">
<title>2&#45;&#45;17</title>
<path fill="none" stroke="black" stroke-width="0.75" d="M180.83,-97.26C172.82,-106.38 133.38,-151.27 126.06,-159.61"/>
</g>
<!-- 9 -->
<g id="node10" class="node">
<title>9</title>
<ellipse fill="black" stroke="black" cx="184.04" cy="-76.82" rx="1.8" ry="1.8"/>
</g>
<!-- 4&#45;&#45;9 -->
<g id="edge23" class="edge">
<title>4&#45;&#45;9</title>
<path fill="none" stroke="black" stroke-width="0.75" d="M129.13,-29.04C136.86,-35.76 174.38,-68.41 182.49,-75.47"/>
</g>
<!-- 16 -->
<g id="node11" class="node">
<title>16</title>
<ellipse fill="black" stroke="black" cx="156" cy="-80.97" rx="1.8" ry="1.8"/>
</g>
<!-- 4&#45;&#45;16 -->
<g id="edge41" class="edge">
<title>4&#45;&#45;16</title>
<path fill="none" stroke="black" stroke-width="0.75" d="M128.68,-29.6C132.97,-37.67 150.67,-70.94 155.03,-79.14"/>
</g>
<!-- 4&#45;&#45;7 -->
<g id="edge10" class="edge">
<title>4&#45;&#45;7</title>
<path fill="none" stroke="black" stroke-width="0.75" d="M125.65,-27.08C115.07,-23.28 67.51,-6.2 57.24,-2.5"/>
</g>
<!-- 4&#45;&#45;14 -->
<g id="edge11" class="edge">
<title>4&#45;&#45;14</title>
<path fill="none" stroke="black" stroke-width="0.75" d="M125.6,-27.5C115.82,-26.01 75.48,-19.85 65.55,-18.33"/>
</g>
<!-- 11&#45;&#45;16 -->
<g id="edge42" class="edge">
<title>11&#45;&#45;16</title>
<path fill="none" stroke="black" stroke-width="0.75" d="M137.69,-4.78C140.26,-15.5 152.78,-67.56 155.49,-78.82"/>
</g>
<!-- 11&#45;&#45;14 -->
<g id="edge30" class="edge">
<title>11&#45;&#45;14</title>
<path fill="none" stroke="black" stroke-width="0.75" d="M135.09,-3.29C124.3,-5.5 75.81,-15.44 65.33,-17.58"/>
</g>
<!-- 3&#45;&#45;6 -->
<g id="edge14" class="edge">
<title>3&#45;&#45;6</title>
<path fill="none" stroke="black" stroke-width="0.75" d="M117.57,-130.14C108.14,-133.81 65.75,-150.32 56.59,-153.89"/>
</g>
<!-- 3&#45;&#45;13 -->
<g id="edge32" class="edge">
<title>3&#45;&#45;13</title>
<path fill="none" stroke="black" stroke-width="0.75" d="M117.41,-129.32C108.18,-128.88 70.09,-127.06 60.71,-126.61"/>
</g>
<!-- 3&#45;&#45;20 -->
<g id="edge49" class="edge">
<title>3&#45;&#45;20</title>
<path fill="none" stroke="black" stroke-width="0.75" d="M117.42,-130.01C106.12,-133.3 50.83,-149.41 39.72,-152.65"/>
</g>
<!-- 3&#45;&#45;9 -->
<g id="edge8" class="edge">
<title>3&#45;&#45;9</title>
<path fill="none" stroke="black" stroke-width="0.75" d="M121.03,-128.12C129.89,-120.9 172.95,-85.85 182.27,-78.27"/>
</g>
<!-- 3&#45;&#45;16 -->
<g id="edge9" class="edge">
<title>3&#45;&#45;16</title>
<path fill="none" stroke="black" stroke-width="0.75" d="M120.65,-127.8C126.2,-120.45 149.11,-90.1 154.74,-82.63"/>
</g>
<!-- 9&#45;&#45;11 -->
<g id="edge24" class="edge">
<title>9&#45;&#45;11</title>
<path fill="none" stroke="black" stroke-width="0.75" d="M182.89,-74.99C176.41,-64.76 144.71,-14.68 138.34,-4.62"/>
</g>
<!-- 9&#45;&#45;18 -->
<g id="edge25" class="edge">
<title>9&#45;&#45;18</title>
<path fill="none" stroke="black" stroke-width="0.75" d="M183.3,-74.92C179.55,-65.29 162.7,-22 159.06,-12.65"/>
</g>
<!-- 9&#45;&#45;10 -->
<g id="edge27" class="edge">
<title>9&#45;&#45;10</title>
<path fill="none" stroke="black" stroke-width="0.75" d="M182.96,-78.69C176.86,-89.19 147.05,-140.53 141.06,-150.85"/>
</g>
<!-- 9&#45;&#45;17 -->
<g id="edge45" class="edge">
<title>9&#45;&#45;17</title>
<path fill="none" stroke="black" stroke-width="0.75" d="M182.81,-78.58C175.11,-89.52 133.79,-148.28 126.11,-159.2"/>
</g>
<!-- 16&#45;&#45;18 -->
<g id="edge43" class="edge">
<title>16&#45;&#45;18</title>
<path fill="none" stroke="black" stroke-width="0.75" d="M156.07,-78.94C156.42,-68.71 157.96,-22.7 158.3,-12.76"/>
</g>
<!-- 16&#45;&#45;17 -->
<g id="edge46" class="edge">
<title>16&#45;&#45;17</title>
<path fill="none" stroke="black" stroke-width="0.75" d="M155.23,-82.94C150.93,-94.01 129.86,-148.15 125.63,-159.03"/>
</g>
<!-- 7&#45;&#45;11 -->
<g id="edge29" class="edge">
<title>7&#45;&#45;11</title>
<path fill="none" stroke="black" stroke-width="0.75" d="M57.3,-1.83C68.54,-1.97 123.15,-2.67 134.97,-2.82"/>
</g>
<!-- 7&#45;&#45;18 -->
<g id="edge47" class="edge">
<title>7&#45;&#45;18</title>
<path fill="none" stroke="black" stroke-width="0.75" d="M57.43,-1.99C70.85,-3.17 142.84,-9.5 156.22,-10.67"/>
</g>
<!-- 7&#45;&#45;8 -->
<g id="edge18" class="edge">
<title>7&#45;&#45;8</title>
<path fill="none" stroke="black" stroke-width="0.75" d="M54.16,-3.66C47.2,-15.26 9.85,-77.48 2.91,-89.04"/>
</g>
<!-- 7&#45;&#45;15 -->
<g id="edge19" class="edge">
<title>7&#45;&#45;15</title>
<path fill="none" stroke="black" stroke-width="0.75" d="M54.55,-3.85C50.84,-14.24 34.21,-60.91 30.61,-70.99"/>
</g>
<!-- 14&#45;&#45;18 -->
<g id="edge48" class="edge">
<title>14&#45;&#45;18</title>
<path fill="none" stroke="black" stroke-width="0.75" d="M65.32,-17.84C77.69,-16.92 144.05,-11.94 156.39,-11.01"/>
</g>
<!-- 14&#45;&#45;15 -->
<g id="edge37" class="edge">
<title>14&#45;&#45;15</title>
<path fill="none" stroke="black" stroke-width="0.75" d="M62.22,-19.82C57.15,-28.16 36.23,-62.56 31.08,-71.02"/>
</g>
<!-- 5 -->
<g id="node14" class="node">
<title>5</title>
<ellipse fill="black" stroke="black" cx="145.8" cy="-191.73" rx="1.8" ry="1.8"/>
</g>
<!-- 12 -->
<g id="node15" class="node">
<title>12</title>
<ellipse fill="black" stroke="black" cx="218.01" cy="-192.21" rx="1.8" ry="1.8"/>
</g>
<!-- 5&#45;&#45;12 -->
<g id="edge12" class="edge">
<title>5&#45;&#45;12</title>
<path fill="none" stroke="black" stroke-width="0.75" d="M147.88,-191.75C158.33,-191.82 204.98,-192.12 215.77,-192.19"/>
</g>
<!-- 19 -->
<g id="node16" class="node">
<title>19</title>
<ellipse fill="black" stroke="black" cx="182.39" cy="-129.8" rx="1.8" ry="1.8"/>
</g>
<!-- 5&#45;&#45;19 -->
<g id="edge13" class="edge">
<title>5&#45;&#45;19</title>
<path fill="none" stroke="black" stroke-width="0.75" d="M146.86,-189.95C152.2,-180.9 176.21,-140.26 181.4,-131.48"/>
</g>
<!-- 12&#45;&#45;19 -->
<g id="edge31" class="edge">
<title>12&#45;&#45;19</title>
<path fill="none" stroke="black" stroke-width="0.75" d="M216.98,-190.41C211.78,-181.29 188.41,-140.34 183.36,-131.49"/>
</g>
<!-- 10&#45;&#45;13 -->
<g id="edge33" class="edge">
<title>10&#45;&#45;13</title>
<path fill="none" stroke="black" stroke-width="0.75" d="M137.99,-152.02C126.73,-148.4 71.63,-130.69 60.56,-127.13"/>
</g>
<!-- 10&#45;&#45;20 -->
<g id="edge50" class="edge">
<title>10&#45;&#45;20</title>
<path fill="none" stroke="black" stroke-width="0.75" d="M137.87,-152.68C124.57,-152.75 53.16,-153.14 39.89,-153.21"/>
</g>
<!-- 10&#45;&#45;16 -->
<g id="edge28" class="edge">
<title>10&#45;&#45;16</title>
<path fill="none" stroke="black" stroke-width="0.75" d="M140.47,-150.59C142.78,-140.22 153.12,-93.9 155.51,-83.18"/>
</g>
<!-- 17&#45;&#45;20 -->
<g id="edge51" class="edge">
<title>17&#45;&#45;20</title>
<path fill="none" stroke="black" stroke-width="0.75" d="M122.73,-160.75C110.68,-159.68 51.7,-154.46 39.85,-153.41"/>
</g>
<!-- 8&#45;&#45;13 -->
<g id="edge21" class="edge">
<title>8&#45;&#45;13</title>
<path fill="none" stroke="black" stroke-width="0.75" d="M3.69,-92.08C12.47,-97.58 49.18,-120.59 57.1,-125.56"/>
</g>
<!-- 8&#45;&#45;20 -->
<g id="edge22" class="edge">
<title>8&#45;&#45;20</title>
<path fill="none" stroke="black" stroke-width="0.75" d="M2.84,-92.69C8.09,-101.79 31.69,-142.7 36.79,-151.53"/>
</g>
<!-- 8&#45;&#45;14 -->
<g id="edge36" class="edge">
<title>8&#45;&#45;14</title>
<path fill="none" stroke="black" stroke-width="0.75" d="M3.09,-89.37C11.09,-79.88 54.07,-28.97 62.06,-19.51"/>
</g>
<!-- 15&#45;&#45;20 -->
<g id="edge40" class="edge">
<title>15&#45;&#45;20</title>
<path fill="none" stroke="black" stroke-width="0.75" d="M30.12,-74.9C31.2,-85.91 36.42,-139.44 37.55,-151.01"/>
</g>
</g>
</svg>
