<svg xmlns="http://www.w3.org/2000/svg" width="100.0" height="100.0" viewBox="-5.000 -5.000 110.000 110.000">
<g fill="none" stroke="black" stroke-width="0.0050%" transform="translate(0, 100.0000) scale(100.0000, -100.0000)">
<circle cx="0.000" cy="0.000" r="0.005" />
<circle cx="0.000" cy="1.000" r="0.005" />
<polyline points="0.000,0.000 0.010,0.123 0.020,0.169 0.030,0.203 0.040,0.231 0.050,0.256 0.060,0.278 0.070,0.298 0.080,0.317 0.090,0.335 0.100,0.351 0.110,0.367 0.120,0.381 0.130,0.395 0.140,0.409 0.150,0.422 0.160,0.435 0.170,0.447 0.180,0.459 0.190,0.470 0.200,0.481 0.210,0.492 0.220,0.502 0.230,0.513 0.240,0.523 0.250,0.532 0.260,0.542 0.270,0.551 0.280,0.561 0.290,0.570 0.300,0.578 0.310,0.587 0.320,0.596 0.330,0.604 0.340,0.612 0.350,0.620 0.360,0.628 0.370,0.636 0.380,0.644 0.390,0.652 0.400,0.659 0.410,0.667 0.420,0.674 0.430,0.681 0.440,0.688 0.450,0.696 0.460,0.703 0.470,0.709 0.480,0.716 0.490,0.723 0.500,0.730 0.510,0.736 0.520,0.743 0.530,0.749 0.540,0.756 0.550,0.762 0.560,0.768 0.570,0.774 0.580,0.781 0.590,0.787 0.600,0.793 0.610,0.799 0.620,0.805 0.630,0.811 0.640,0.816 0.650,0.822 0.660,0.828 0.670,0.834 0.680,0.839 0.690,0.845 0.700,0.850 0.710,0.856 0.720,0.861 0.730,0.867 0.740,0.872 0.750,0.877 0.760,0.883 0.770,0.888 0.780,0.893 0.790,0.898 0.800,0.904 0.810,0.909 0.820,0.914 0.830,0.919 0.840,0.924 0.850,0.929 0.860,0.934 0.870,0.939 0.880,0.944 0.890,0.948 0.900,0.953 0.910,0.958 0.920,0.963 0.930,0.968 0.940,0.972 0.950,0.977 0.960,0.982 0.970,0.986 0.980,0.991 0.990,0.995 1.000,1.000" />
</g>
</svg>