<svg xmlns="http://www.w3.org/2000/svg" width="130.4" height="100.0" viewBox="-71.809 -24.488 140.406 110.000">
<g fill="none" stroke="black" stroke-width="0.0123%" transform="translate(0, 61.0235) scale(40.6492, -40.6492)">
<polyline points="0.100,-0.000 0.088,0.026 0.074,0.054 0.059,0.084 0.043,0.116 0.026,0.150 0.010,0.187 -0.006,0.226 -0.020,0.268 -0.034,0.311 -0.046,0.358 -0.057,0.407 -0.066,0.458 -0.072,0.511 -0.077,0.567 -0.079,0.624 -0.079,0.683 -0.077,0.744 -0.073,0.806 -0.067,0.869 -0.059,0.932 -0.048,0.996 -0.037,1.059 -0.023,1.121 -0.009,1.183 0.006,1.243 0.022,1.300 0.039,1.356 0.055,1.408 0.071,1.458 0.085,1.503 0.099,1.546 0.110,1.584 0.119,1.619 0.125,1.650 0.127,1.677 0.126,1.701 0.120,1.721 0.109,1.739 0.094,1.753 0.073,1.765 0.048,1.775 0.018,1.784 -0.016,1.791 -0.054,1.797 -0.094,1.803 -0.136,1.809 -0.178,1.815 -0.219,1.822 -0.258,1.830 -0.291,1.839 -0.319,1.849 -0.339,1.860 -0.349,1.873 -0.347,1.886 -0.333,1.901 -0.305,1.915 -0.263,1.930 -0.205,1.945 -0.133,1.958 -0.047,1.969 0.051,1.977 0.159,1.981 0.274,1.980 0.394,1.973 0.513,1.960 0.627,1.940 0.732,1.913 0.823,1.877 0.893,1.834 0.940,1.784 0.957,1.726 0.942,1.661 0.892,1.590 0.804,1.513 0.680,1.430 0.519,1.343 0.327,1.253 0.106,1.162 -0.135,1.074 -0.388,0.990 -0.643,0.913 -0.891,0.844 -1.118,0.783 -1.316,0.731 -1.475,0.687 -1.586,0.650 -1.643,0.618 -1.644,0.591 -1.586,0.568 -1.475,0.548 -1.314,0.530 -1.113,0.512 -0.880,0.492 -0.626,0.469 -0.363,0.440 -0.102,0.405 0.148,0.363 0.377,0.315 0.578,0.260 0.746,0.199 0.877,0.135 0.969,0.068 1.022,0.000 1.037,-0.067 1.018,-0.133 0.967,-0.196 0.889,-0.254 0.790,-0.307 0.676,-0.353 0.550,-0.392 0.419,-0.424 0.288,-0.449 0.160,-0.466 0.040,-0.476 -0.069,-0.479 -0.166,-0.477 -0.248,-0.469 -0.313,-0.456 -0.363,-0.440 -0.396,-0.420 -0.414,-0.397 -0.417,-0.372 -0.406,-0.347 -0.385,-0.320 -0.353,-0.293 -0.313,-0.266 -0.268,-0.240 -0.218,-0.215 -0.166,-0.190 -0.114,-0.167 -0.063,-0.144 -0.014,-0.122 0.031,-0.101 0.071,-0.081 0.106,-0.062 0.135,-0.042 0.158,-0.023 0.175,-0.003 0.185,0.018 0.189,0.039 0.187,0.061 0.180,0.085 0.168,0.111 0.152,0.138 0.132,0.168 0.110,0.200 0.086,0.235 0.060,0.272 0.033,0.312 0.007,0.355 -0.019,0.400 -0.044,0.449 -0.067,0.500 -0.087,0.554 -0.105,0.610 -0.120,0.668 -0.132,0.729 -0.140,0.791 -0.144,0.855 -0.145,0.920 -0.141,0.985 -0.133,1.051 -0.121,1.116 -0.105,1.180 -0.085,1.243 -0.062,1.304 -0.036,1.363 -0.006,1.419 0.025,1.471 0.058,1.520 0.092,1.565 0.126,1.605 0.159,1.641 0.190,1.673 0.218,1.699 0.241,1.722 0.259,1.739 0.270,1.752 0.273,1.762 0.267,1.767 0.251,1.769 0.225,1.768 0.188,1.764 0.140,1.758 0.081,1.751 0.012,1.742 -0.065,1.734 -0.150,1.726 -0.239,1.720 -0.330,1.715 -0.420,1.712 -0.507,1.712 -0.585,1.714 -0.651,1.720 -0.701,1.727 -0.732,1.737 -0.740,1.749 -0.723,1.762 -0.677,1.776 -0.602,1.789 -0.497,1.801 -0.364,1.811 -0.204,1.816 -0.022,1.815 0.178,1.806 0.389,1.787 0.604,1.757 0.815,1.713 1.013,1.657 1.189,1.587 1.335,1.506 1.443,1.414 1.506,1.314 1.521,1.205 1.484,1.090 1.395,0.970 1.255,0.846 1.069,0.719 0.843,0.593 0.586,0.469 0.307,0.352 0.019,0.245 -0.267,0.150 -0.538,0.070 -0.784,0.004 -0.996,-0.046 -1.166,-0.083 -1.289,-0.106 -1.363,-0.119 -1.388,-0.123 -1.364,-0.120 -1.298,-0.111 -1.194,-0.100 -1.058,-0.088 -0.899,-0.076 -0.723,-0.068 -0.539,-0.062 -0.353,-0.062 -0.173,-0.065 -0.003,-0.074 0.151,-0.087 0.286,-0.104 0.399,-0.124 0.489,-0.147 0.554,-0.172 0.595,-0.198 0.614,-0.224 0.611,-0.250 0.589,-0.274 0.551,-0.295 0.499,-0.315 0.437,-0.330 0.367,-0.343 0.292,-0.351 0.216,-0.355 0.140,-0.355 0.066,-0.350 -0.002,-0.342 -0.064,-0.330 -0.119,-0.315 -0.165,-0.296 -0.202,-0.274 -0.229,-0.249 -0.248,-0.222 -0.257,-0.194 -0.258,-0.163 -0.251,-0.131 -0.237,-0.098 -0.217,-0.064 -0.192,-0.030 -0.163,0.005 -0.132,0.041 -0.098,0.077 -0.064,0.113 -0.030,0.150 0.003,0.187 0.034,0.224 0.062,0.262 0.088,0.301 0.109,0.340 0.127,0.381 0.141,0.422 0.150,0.465 0.155,0.509 0.156,0.554 0.152,0.601 0.144,0.649 0.132,0.699 0.116,0.750 0.097,0.802 0.075,0.856 0.051,0.910 0.024,0.965 -0.004,1.021 -0.032,1.077 -0.062,1.134 -0.090,1.189 -0.118,1.245 -0.144,1.299 -0.167,1.353 -0.187,1.405 -0.202,1.456 -0.213,1.505 -0.218,1.552 -0.216,1.597 -0.207,1.639 -0.191,1.680 -0.166,1.717 -0.134,1.753 -0.093,1.785 -0.045,1.814 0.010,1.839 0.071,1.861 0.136,1.879 0.204,1.893 0.273,1.901 0.341,1.905 0.404,1.904 0.461,1.898 0.507,1.886 0.542,1.869 0.561,1.848 0.562,1.821 0.543,1.790 0.503,1.755 0.440,1.716 0.353,1.675 0.244,1.631 0.114,1.586 -0.035,1.542 -0.198,1.499 -0.372,1.458 -0.550,1.421 -0.726,1.389 -0.894,1.361 -1.044,1.338 -1.171,1.319 -1.266,1.303 -1.323,1.289 -1.337,1.277 -1.303,1.265 -1.222,1.253 -1.092,1.241 -0.919,1.228 -0.707,1.211 -0.464,1.190 -0.200,1.161 0.075,1.123 0.350,1.074 0.613,1.013 0.854,0.941 1.064,0.858 1.234,0.766 1.360,0.667 1.436,0.563 1.462,0.456 1.439,0.349 1.371,0.244 1.260,0.143 1.115,0.047 0.942,-0.040 0.749,-0.119 0.545,-0.187 0.337,-0.244 0.133,-0.289 -0.060,-0.322 -0.236,-0.344 -0.392,-0.356 -0.522,-0.359 -0.626,-0.352 -0.701,-0.339 -0.748,-0.320 -0.767,-0.296 -0.761,-0.269 -0.732,-0.239 -0.682,-0.208 -0.616,-0.178 -0.536,-0.147 -0.446,-0.119 -0.350,-0.091 -0.251,-0.066 -0.153,-0.044 -0.057,-0.024 0.032,-0.006 0.113,0.010 0.185,0.024 0.246,0.037 0.295,0.048 0.332,0.059 0.356,0.069 0.368,0.080 0.369,0.092 0.358,0.105 0.338,0.120 0.309,0.136 0.273,0.155 0.231,0.178 0.184,0.203 0.134,0.231 0.082,0.263 0.030,0.299 -0.021,0.338 -0.070,0.381 -0.116,0.428 -0.158,0.478 -0.194,0.532 -0.225,0.588 -0.250,0.648 -0.267,0.710 -0.277,0.774 -0.279,0.840 -0.274,0.907 -0.261,0.975 -0.240,1.043 -0.211,1.111 -0.175,1.177 -0.133,1.242 -0.084,1.304 -0.031,1.363 0.027,1.419 0.088,1.470 0.151,1.517 0.214,1.559 0.275,1.595 0.332,1.625 0.384,1.649 0.429,1.667 0.463,1.679 0.485,1.685 0.494,1.685 0.487,1.680 0.462,1.671 0.419,1.656 0.358,1.638 0.277,1.617 0.178,1.593 0.062,1.568 -0.068,1.543 -0.210,1.518 -0.359,1.496 -0.511,1.476 -0.661,1.459 -0.802,1.447 -0.928,1.437 -1.034,1.431 -1.113,1.428 -1.158,1.426 -1.167,1.426 -1.134,1.426 -1.059,1.426 -0.941,1.424 -0.783,1.421 -0.588,1.414 -0.362,1.401 -0.114,1.381 0.147,1.351 0.412,1.308 0.670,1.253 0.910,1.185 1.123,1.104 1.299,1.012 1.432,0.911 1.515,0.804 1.548,0.692 1.529,0.577 1.459,0.463 1.344,0.350 1.188,0.242 0.999,0.139 0.786,0.045 0.557,-0.039 0.322,-0.112 0.089,-0.172 -0.133,-0.219 -0.337,-0.253 -0.516,-0.275 -0.667,-0.286 -0.786,-0.287 -0.871,-0.279 -0.923,-0.264 -0.941,-0.243 -0.928,-0.218 -0.887,-0.191 -0.821,-0.162 -0.735,-0.133 -0.633,-0.105 -0.520,-0.078 -0.399,-0.054 -0.277,-0.033 -0.155,-0.015 -0.039,-0.000 0.070,0.012 0.168,0.021 0.253,0.028 0.323,0.033 0.379,0.036 0.419,0.038 0.444,0.040 0.453,0.043 0.449,0.046 0.431,0.050 0.402,0.057 0.363,0.066 0.315,0.077 0.262,0.092 0.203,0.110 0.142,0.132 0.080,0.158 0.018,0.189 -0.042,0.223 -0.098,0.261 -0.149,0.303 -0.194,0.349 -0.233,0.399 -0.264,0.452 -0.287,0.509 -0.302,0.568 -0.309,0.630 -0.306,0.694 -0.295,0.760 -0.276,0.827 -0.249,0.894 -0.214,0.962 -0.173,1.029 -0.125,1.095 -0.072,1.159 -0.015,1.221 0.045,1.280 0.107,1.335 0.170,1.387 0.231,1.433 0.289,1.475 0.343,1.511 0.390,1.541 0.428,1.566 0.456,1.585 0.472,1.598 0.474,1.605 0.461,1.608 0.431,1.605 0.384,1.599 0.319,1.588 0.237,1.574 0.138,1.558 0.025,1.541 -0.102,1.524 -0.237,1.507 -0.379,1.492 -0.522,1.479 -0.660,1.470 -0.790,1.463 -0.904,1.460 -0.998,1.460 -1.065,1.461 -1.100,1.465 -1.099,1.469 -1.060,1.473 -0.979,1.477 -0.858,1.480 -0.699,1.480 -0.505,1.476 -0.282,1.466 -0.039,1.448 0.217,1.419 0.476,1.378 0.727,1.324 0.961,1.256 1.167,1.175 1.336,1.083 1.462,0.982 1.539,0.874 1.565,0.761 1.538,0.645 1.461,0.529 1.337,0.414 1.172,0.302 0.974,0.197 0.750,0.099 0.512,0.011 0.267,-0.066 0.025,-0.130 -0.204,-0.180 -0.414,-0.217 -0.598,-0.242 -0.751,-0.255 -0.869,-0.258 -0.952,-0.251 -0.998,-0.237 -1.009,-0.218 -0.987,-0.194 -0.936,-0.168 -0.860,-0.140 -0.762,-0.112 -0.648,-0.086 -0.524,-0.062 -0.393,-0.040 -0.260,-0.022 -0.130,-0.007 -0.007,0.004 0.107,0.013" />
</g>
</svg>