<svg xmlns="http://www.w3.org/2000/svg" width="161.8" height="100.0" viewBox="-5.00 -11.25 171.80 110.00">
<g fill="none" stroke="black" stroke-width="0.0160%" transform="translate(0, 87.5000) scale(31.2500, -31.2500)">
<polyline points="0.00,0.00 0.05,0.07 0.10,0.13 0.16,0.19 0.21,0.25 0.26,0.30 0.31,0.35 0.36,0.39 0.41,0.43 0.47,0.46 0.52,0.49 0.57,0.51 0.62,0.54 0.67,0.55 0.72,0.57 0.78,0.58 0.83,0.59 0.88,0.59 0.93,0.60 0.98,0.60 1.04,0.60 1.09,0.60 1.14,0.60 1.19,0.60 1.24,0.60 1.29,0.60 1.35,0.60 1.40,0.59 1.45,0.57 1.50,0.55 1.55,0.52 1.61,0.48 1.66,0.45 1.71,0.41 1.76,0.36 1.81,0.32 1.86,0.27 1.92,0.22 1.97,0.18 2.02,0.13 2.07,0.08 2.12,0.04 2.17,-0.01 2.23,-0.05 2.28,-0.08 2.33,-0.12 2.38,-0.15 2.43,-0.17 2.49,-0.19 2.54,-0.20 2.59,-0.20 2.64,-0.20 2.69,-0.19 2.74,-0.19 2.80,-0.18 2.85,-0.17 2.90,-0.15 2.95,-0.14 3.00,-0.12 3.05,-0.10 3.11,-0.07 3.16,-0.05 3.21,-0.02 3.26,0.02 3.31,0.05 3.37,0.09 3.42,0.13 3.47,0.17 3.52,0.21 3.57,0.26 3.62,0.31 3.68,0.36 3.73,0.42 3.78,0.48 3.83,0.54 3.88,0.60 3.94,0.67 3.99,0.73 4.04,0.80 4.09,0.88 4.14,0.95 4.19,1.03 4.25,1.11 4.30,1.19 4.35,1.28 4.40,1.37 4.45,1.46 4.50,1.55 4.56,1.65 4.61,1.75 4.66,1.85 4.71,1.95 4.76,2.06 4.82,2.17 4.87,2.28 4.92,2.39 4.97,2.51 5.02,2.63 5.07,2.75 5.13,2.87 5.18,3.00" />
</g>
</svg>