<svg xmlns="http://www.w3.org/2000/svg" width="161.8" height="100.0" viewBox="11.180 -10.882 171.803 110.000">
<g fill="none" stroke="black" stroke-width="0.0106%" transform="translate(0, 88.2353) scale(47.0588, -47.0588)">
<circle cx="0.344" cy="0.000" r="0.011" />
<polyline points="0.344,1.000 0.378,1.000 0.413,1.000 0.447,1.000 0.481,1.000 0.516,1.000 0.550,1.000 0.585,1.000 0.619,1.000 0.653,1.000 0.688,1.000 0.722,1.000 0.756,1.000 0.791,1.000 0.825,1.000 0.860,1.000 0.894,1.000 0.928,1.000 0.963,1.000 0.997,1.000 1.031,1.000 1.066,0.976 1.100,0.912 1.135,0.815 1.169,0.696 1.203,0.562 1.238,0.424 1.272,0.289 1.307,0.168 1.341,0.068 1.375,-0.000 1.410,-0.045 1.444,-0.080 1.478,-0.105 1.513,-0.120 1.547,-0.125 1.582,-0.120 1.616,-0.105 1.650,-0.080 1.685,-0.045 1.719,-0.000 1.754,0.064 1.788,0.152 1.822,0.258 1.857,0.376 1.891,0.500 1.925,0.624 1.960,0.742 1.994,0.848 2.029,0.936 2.063,1.000 2.097,1.036 2.132,1.048 2.166,1.042 2.201,1.024 2.235,1.000 2.269,0.976 2.304,0.958 2.338,0.952 2.372,0.964 2.407,1.000 2.441,1.068 2.476,1.168 2.510,1.289 2.544,1.424 2.579,1.562 2.613,1.696 2.648,1.815 2.682,1.912 2.716,1.976 2.751,2.000 2.785,2.000 2.819,2.000 2.854,2.000 2.888,2.000 2.923,2.000 2.957,2.000 2.991,2.000 3.026,2.000 3.060,2.000 3.094,2.000 3.129,2.000 3.163,2.000 3.198,2.000 3.232,2.000 3.266,2.000 3.301,2.000 3.335,2.000 3.370,2.000 3.404,2.000 3.438,2.000 3.473,2.000 3.507,2.000 3.541,2.000 3.576,2.000 3.610,2.000 3.645,2.000 3.679,2.000 3.713,2.000 3.748,2.000 3.782,2.000" />
</g>
</svg>