<svg xmlns="http://www.w3.org/2000/svg" width="161.8" height="100.0" viewBox="-5.000 -55.011 171.803 110.000">
<g fill="none" stroke="black" stroke-width="0.0100%" transform="translate(0, -0.0216) scale(49.9892, -49.9892)">
<polyline points="0.000,1.000 0.032,0.970 0.065,0.936 0.097,0.899 0.129,0.858 0.162,0.814 0.194,0.766 0.227,0.715 0.259,0.660 0.291,0.602 0.324,0.540 0.356,0.472 0.388,0.395 0.421,0.310 0.453,0.219 0.486,0.123 0.518,0.023 0.550,-0.079 0.583,-0.181 0.615,-0.283 0.647,-0.382 0.680,-0.478 0.712,-0.570 0.744,-0.655 0.777,-0.732 0.809,-0.801 0.842,-0.860 0.874,-0.908 0.906,-0.946 0.939,-0.974 0.971,-0.992 1.003,-1.000 1.036,-0.999 1.068,-0.988 1.101,-0.967 1.133,-0.936 1.165,-0.897 1.198,-0.845 1.230,-0.780 1.262,-0.704 1.295,-0.619 1.327,-0.526 1.359,-0.429 1.392,-0.329 1.424,-0.227 1.457,-0.127 1.489,-0.031 1.521,0.061 1.554,0.145 1.586,0.220 1.618,0.284 1.651,0.340 1.683,0.395 1.715,0.449 1.748,0.500 1.780,0.550 1.813,0.596 1.845,0.639 1.877,0.679 1.910,0.715 1.942,0.747 1.974,0.774 2.007,0.797 2.039,0.814 2.072,0.825 2.104,0.830 2.136,0.829 2.169,0.821 2.201,0.807 2.233,0.784 2.266,0.754 2.298,0.708 2.330,0.642 2.363,0.558 2.395,0.462 2.428,0.357 2.460,0.247 2.492,0.136 2.525,0.028 2.557,-0.075 2.589,-0.166 2.622,-0.244 2.654,-0.310 2.687,-0.373 2.719,-0.433 2.751,-0.488 2.784,-0.539 2.816,-0.586 2.848,-0.629 2.881,-0.668 2.913,-0.704 2.945,-0.735 2.978,-0.762 3.010,-0.786 3.043,-0.805 3.075,-0.821 3.107,-0.832 3.140,-0.840 3.172,-0.844 3.204,-0.843 3.237,-0.839" />
</g>
</svg>