<svg xmlns="http://www.w3.org/2000/svg" width="161.8" height="100.0" viewBox="-4.36 -54.48 171.80 110.00">
<g fill="none" stroke="black" stroke-width="0.0746%" transform="translate(0, 1.0343) scale(6.7055, -6.7055)">
<circle cx="0.10" cy="0.52" r="0.07" />
<circle cx="0.19" cy="0.52" r="0.07" />
<circle cx="0.29" cy="0.52" r="0.07" />
<circle cx="0.38" cy="0.52" r="0.07" />
<circle cx="0.48" cy="0.52" r="0.07" />
<circle cx="0.57" cy="0.52" r="0.07" />
<circle cx="0.67" cy="0.52" r="0.07" />
<circle cx="0.77" cy="0.52" r="0.07" />
<circle cx="0.86" cy="0.52" r="0.07" />
<circle cx="0.96" cy="0.00" r="0.07" />
<circle cx="1.05" cy="0.52" r="0.07" />
<circle cx="1.15" cy="0.52" r="0.07" />
<circle cx="1.24" cy="0.90" r="0.07" />
<circle cx="1.34" cy="0.52" r="0.07" />
<circle cx="1.44" cy="-0.52" r="0.07" />
<circle cx="1.53" cy="0.52" r="0.07" />
<circle cx="1.63" cy="0.52" r="0.07" />
<circle cx="1.72" cy="0.75" r="0.07" />
<circle cx="1.82" cy="0.52" r="0.07" />
<circle cx="1.92" cy="-0.52" r="0.07" />
<circle cx="2.01" cy="0.00" r="0.07" />
<circle cx="2.11" cy="0.52" r="0.07" />
<circle cx="2.20" cy="0.52" r="0.07" />
<circle cx="2.30" cy="1.10" r="0.07" />
<circle cx="2.39" cy="0.75" r="0.07" />
<circle cx="2.49" cy="-0.90" r="0.07" />
<circle cx="2.59" cy="-0.52" r="0.07" />
<circle cx="2.68" cy="0.52" r="0.07" />
<circle cx="2.78" cy="0.52" r="0.07" />
<circle cx="2.87" cy="0.52" r="0.07" />
<circle cx="2.97" cy="0.90" r="0.07" />
<circle cx="3.06" cy="1.10" r="0.07" />
<circle cx="3.16" cy="-0.52" r="0.07" />
<circle cx="3.26" cy="-0.52" r="0.07" />
<circle cx="3.35" cy="0.52" r="0.07" />
<circle cx="3.45" cy="0.00" r="0.07" />
<circle cx="3.54" cy="0.52" r="0.07" />
<circle cx="3.64" cy="0.52" r="0.07" />
<circle cx="3.73" cy="1.23" r="0.07" />
<circle cx="3.83" cy="1.10" r="0.07" />
<circle cx="3.93" cy="0.00" r="0.07" />
<circle cx="4.02" cy="-1.01" r="0.07" />
<circle cx="4.12" cy="0.52" r="0.07" />
<circle cx="4.21" cy="0.52" r="0.07" />
<circle cx="4.31" cy="-0.52" r="0.07" />
<circle cx="4.40" cy="0.52" r="0.07" />
<circle cx="4.50" cy="0.52" r="0.07" />
<circle cx="4.60" cy="1.01" r="0.07" />
<circle cx="4.69" cy="1.23" r="0.07" />
<circle cx="4.79" cy="0.52" r="0.07" />
<circle cx="4.88" cy="-0.52" r="0.07" />
<circle cx="4.98" cy="-0.52" r="0.07" />
<circle cx="5.07" cy="0.52" r="0.07" />
<circle cx="5.17" cy="-0.52" r="0.07" />
<circle cx="5.27" cy="0.00" r="0.07" />
<circle cx="5.36" cy="0.52" r="0.07" />
<circle cx="5.46" cy="0.52" r="0.07" />
<circle cx="5.55" cy="1.34" r="0.07" />
<circle cx="5.65" cy="1.82" r="0.07" />
<circle cx="5.75" cy="2.06" r="0.07" />
<circle cx="5.84" cy="-1.83" r="0.07" />
<circle cx="5.94" cy="-1.10" r="0.07" />
<circle cx="6.03" cy="1.29" r="0.07" />
<circle cx="6.13" cy="0.52" r="0.07" />
<circle cx="6.22" cy="-1.10" r="0.07" />
<circle cx="6.32" cy="1.10" r="0.07" />
<circle cx="6.42" cy="0.52" r="0.07" />
<circle cx="6.51" cy="0.52" r="0.07" />
<circle cx="6.61" cy="1.10" r="0.07" />
<circle cx="6.70" cy="0.90" r="0.07" />
<circle cx="6.80" cy="1.29" r="0.07" />
<circle cx="6.89" cy="-1.23" r="0.07" />
<circle cx="6.99" cy="-1.34" r="0.07" />
<circle cx="7.09" cy="1.10" r="0.07" />
<circle cx="7.18" cy="1.23" r="0.07" />
<circle cx="7.28" cy="-1.10" r="0.07" />
<circle cx="7.37" cy="1.10" r="0.07" />
<circle cx="7.47" cy="0.00" r="0.07" />
<circle cx="7.56" cy="0.52" r="0.07" />
<circle cx="7.66" cy="0.52" r="0.07" />
<circle cx="7.76" cy="1.42" r="0.07" />
<circle cx="7.85" cy="1.55" r="0.07" />
<circle cx="7.95" cy="1.80" r="0.07" />
<circle cx="8.04" cy="-1.82" r="0.07" />
<circle cx="8.14" cy="-2.90" r="0.07" />
<circle cx="8.23" cy="2.83" r="0.07" />
<circle cx="8.33" cy="2.66" r="0.07" />
<circle cx="8.43" cy="-2.01" r="0.07" />
<circle cx="8.52" cy="-3.37" r="0.07" />
<circle cx="8.62" cy="3.20" r="0.07" />
<circle cx="8.71" cy="-3.20" r="0.07" />
<circle cx="8.81" cy="0.52" r="0.07" />
<circle cx="8.91" cy="0.52" r="0.07" />
<circle cx="9.00" cy="1.17" r="0.07" />
<circle cx="9.10" cy="2.11" r="0.07" />
<circle cx="9.19" cy="2.46" r="0.07" />
<circle cx="9.29" cy="-2.30" r="0.07" />
<circle cx="9.38" cy="-3.56" r="0.07" />
<circle cx="9.48" cy="2.19" r="0.07" />
<circle cx="9.58" cy="3.55" r="0.07" />
<circle cx="9.67" cy="-3.16" r="0.07" />
<circle cx="9.77" cy="-3.79" r="0.07" />
<circle cx="9.86" cy="3.20" r="0.07" />
<circle cx="9.96" cy="-3.20" r="0.07" />
<circle cx="10.05" cy="0.00" r="0.07" />
<circle cx="10.15" cy="0.52" r="0.07" />
<circle cx="10.25" cy="0.52" r="0.07" />
<circle cx="10.34" cy="1.49" r="0.07" />
<circle cx="10.44" cy="1.71" r="0.07" />
<circle cx="10.53" cy="2.45" r="0.07" />
<circle cx="10.63" cy="-1.80" r="0.07" />
<circle cx="10.72" cy="-1.80" r="0.07" />
<circle cx="10.82" cy="1.01" r="0.07" />
<circle cx="10.92" cy="3.96" r="0.07" />
<circle cx="11.01" cy="-1.98" r="0.07" />
<circle cx="11.11" cy="-1.91" r="0.07" />
<circle cx="11.20" cy="2.93" r="0.07" />
<circle cx="11.30" cy="3.14" r="0.07" />
<circle cx="11.39" cy="-1.23" r="0.07" />
<circle cx="11.49" cy="1.23" r="0.07" />
<circle cx="11.59" cy="0.52" r="0.07" />
<circle cx="11.68" cy="0.52" r="0.07" />
<circle cx="11.78" cy="1.23" r="0.07" />
<circle cx="11.87" cy="1.49" r="0.07" />
<circle cx="11.97" cy="0.90" r="0.07" />
<circle cx="12.07" cy="-1.42" r="0.07" />
<circle cx="12.16" cy="-2.67" r="0.07" />
<circle cx="12.26" cy="-1.17" r="0.07" />
<circle cx="12.35" cy="3.03" r="0.07" />
<circle cx="12.45" cy="2.49" r="0.07" />
<circle cx="12.54" cy="-3.37" r="0.07" />
<circle cx="12.64" cy="1.55" r="0.07" />
<circle cx="12.74" cy="3.46" r="0.07" />
<circle cx="12.83" cy="-1.23" r="0.07" />
<circle cx="12.93" cy="1.23" r="0.07" />
<circle cx="13.02" cy="0.00" r="0.07" />
<circle cx="13.12" cy="0.52" r="0.07" />
<circle cx="13.21" cy="0.52" r="0.07" />
<circle cx="13.31" cy="1.55" r="0.07" />
<circle cx="13.41" cy="2.32" r="0.07" />
<circle cx="13.50" cy="2.59" r="0.07" />
<circle cx="13.60" cy="-1.42" r="0.07" />
<circle cx="13.69" cy="-3.14" r="0.07" />
<circle cx="13.79" cy="-2.24" r="0.07" />
<circle cx="13.88" cy="3.55" r="0.07" />
<circle cx="13.98" cy="2.51" r="0.07" />
<circle cx="14.08" cy="-4.95" r="0.07" />
<circle cx="14.17" cy="-3.91" r="0.07" />
<circle cx="14.27" cy="4.09" r="0.07" />
<circle cx="14.36" cy="-2.75" r="0.07" />
<circle cx="14.46" cy="-3.27" r="0.07" />
<circle cx="14.55" cy="3.92" r="0.07" />
<circle cx="14.65" cy="-3.92" r="0.07" />
<circle cx="14.75" cy="0.52" r="0.07" />
<circle cx="14.84" cy="0.52" r="0.07" />
<circle cx="14.94" cy="1.29" r="0.07" />
<circle cx="15.03" cy="1.91" r="0.07" />
<circle cx="15.13" cy="2.06" r="0.07" />
<circle cx="15.22" cy="-1.49" r="0.07" />
<circle cx="15.32" cy="-2.34" r="0.07" />
<circle cx="15.42" cy="-2.11" r="0.07" />
<circle cx="15.51" cy="3.25" r="0.07" />
<circle cx="15.61" cy="3.41" r="0.07" />
<circle cx="15.70" cy="-4.63" r="0.07" />
<circle cx="15.80" cy="-4.35" r="0.07" />
<circle cx="15.90" cy="4.87" r="0.07" />
<circle cx="15.99" cy="2.39" r="0.07" />
<circle cx="16.09" cy="-3.54" r="0.07" />
<circle cx="16.18" cy="3.92" r="0.07" />
<circle cx="16.28" cy="-3.92" r="0.07" />
<circle cx="16.37" cy="0.00" r="0.07" />
<circle cx="16.47" cy="0.52" r="0.07" />
<circle cx="16.57" cy="0.52" r="0.07" />
<circle cx="16.66" cy="1.60" r="0.07" />
<circle cx="16.76" cy="1.97" r="0.07" />
<circle cx="16.85" cy="2.46" r="0.07" />
<circle cx="16.95" cy="-2.32" r="0.07" />
<circle cx="17.04" cy="-3.95" r="0.07" />
<circle cx="17.14" cy="-3.08" r="0.07" />
<circle cx="17.24" cy="4.39" r="0.07" />
<circle cx="17.33" cy="4.34" r="0.07" />
<circle cx="17.43" cy="-5.07" r="0.07" />
<circle cx="17.52" cy="-5.31" r="0.07" />
<circle cx="17.62" cy="6.41" r="0.07" />
<circle cx="17.71" cy="3.84" r="0.07" />
<circle cx="17.81" cy="-5.03" r="0.07" />
<circle cx="17.91" cy="5.00" r="0.07" />
<circle cx="18.00" cy="6.33" r="0.07" />
<circle cx="18.10" cy="-5.00" r="0.07" />
<circle cx="18.19" cy="5.00" r="0.07" />
<circle cx="18.29" cy="0.52" r="0.07" />
<circle cx="18.38" cy="0.52" r="0.07" />
<circle cx="18.48" cy="1.34" r="0.07" />
<circle cx="18.58" cy="1.90" r="0.07" />
<circle cx="18.67" cy="2.91" r="0.07" />
<circle cx="18.77" cy="-1.23" r="0.07" />
<circle cx="18.86" cy="-2.90" r="0.07" />
<circle cx="18.96" cy="-4.23" r="0.07" />
<circle cx="19.06" cy="4.35" r="0.07" />
<circle cx="19.15" cy="4.95" r="0.07" />
<circle cx="19.25" cy="-5.38" r="0.07" />
<circle cx="19.34" cy="-5.24" r="0.07" />
<circle cx="19.44" cy="6.01" r="0.07" />
<circle cx="19.53" cy="4.22" r="0.07" />
<circle cx="19.63" cy="-5.04" r="0.07" />
<circle cx="19.73" cy="-5.71" r="0.07" />
<circle cx="19.82" cy="6.57" r="0.07" />
<circle cx="19.92" cy="-5.00" r="0.07" />
<circle cx="20.01" cy="5.00" r="0.07" />
<circle cx="20.11" cy="0.00" r="0.07" />
<circle cx="20.20" cy="0.52" r="0.07" />
<circle cx="20.30" cy="0.52" r="0.07" />
<circle cx="20.40" cy="1.65" r="0.07" />
<circle cx="20.49" cy="2.07" r="0.07" />
<circle cx="20.59" cy="2.82" r="0.07" />
<circle cx="20.68" cy="1.29" r="0.07" />
<circle cx="20.78" cy="-3.31" r="0.07" />
<circle cx="20.87" cy="-2.94" r="0.07" />
<circle cx="20.97" cy="2.59" r="0.07" />
<circle cx="21.07" cy="3.87" r="0.07" />
<circle cx="21.16" cy="-3.49" r="0.07" />
<circle cx="21.26" cy="-5.88" r="0.07" />
<circle cx="21.35" cy="-5.59" r="0.07" />
<circle cx="21.45" cy="5.36" r="0.07" />
<circle cx="21.54" cy="-6.11" r="0.07" />
<circle cx="21.64" cy="-7.10" r="0.07" />
<circle cx="21.74" cy="5.62" r="0.07" />
<circle cx="21.83" cy="-5.80" r="0.07" />
<circle cx="21.93" cy="-7.15" r="0.07" />
<circle cx="22.02" cy="5.60" r="0.07" />
<circle cx="22.12" cy="-5.60" r="0.07" />
<circle cx="22.21" cy="0.52" r="0.07" />
<circle cx="22.31" cy="0.52" r="0.07" />
<circle cx="22.41" cy="1.38" r="0.07" />
<circle cx="22.50" cy="2.12" r="0.07" />
<circle cx="22.60" cy="2.91" r="0.07" />
<circle cx="22.69" cy="1.90" r="0.07" />
<circle cx="22.79" cy="-4.06" r="0.07" />
<circle cx="22.89" cy="-4.08" r="0.07" />
<circle cx="22.98" cy="4.18" r="0.07" />
<circle cx="23.08" cy="4.69" r="0.07" />
<circle cx="23.17" cy="3.91" r="0.07" />
<circle cx="23.27" cy="-5.58" r="0.07" />
<circle cx="23.36" cy="-6.23" r="0.07" />
<circle cx="23.46" cy="5.08" r="0.07" />
<circle cx="23.56" cy="5.62" r="0.07" />
<circle cx="23.65" cy="-7.36" r="0.07" />
<circle cx="23.75" cy="7.53" r="0.07" />
<circle cx="23.84" cy="6.15" r="0.07" />
<circle cx="23.94" cy="-7.38" r="0.07" />
<circle cx="24.03" cy="5.60" r="0.07" />
<circle cx="24.13" cy="-5.60" r="0.07" />
<circle cx="24.23" cy="0.00" r="0.07" />
</g>
</svg>