<svg xmlns="http://www.w3.org/2000/svg" width="161.8" height="100.0" viewBox="-4 -55 172 110">
<g fill="none" stroke="black" stroke-width="1.7100%" transform="translate(0, 0.0000) scale(0.2924, -0.2924)">

<line x1="10" y1="0" x2="10" y2="2" />
<line x1="15" y1="0" x2="15" y2="-2" />
<line x1="20" y1="0" x2="20" y2="5" />
<line x1="25" y1="0" x2="25" y2="-5" />
<line x1="30" y1="0" x2="30" y2="6" />
<line x1="35" y1="0" x2="35" y2="-3" />
<line x1="40" y1="0" x2="40" y2="4" />
<line x1="44" y1="0" x2="44" y2="-7" />
<line x1="49" y1="0" x2="49" y2="15" />
<line x1="54" y1="0" x2="54" y2="-15" />
<line x1="59" y1="0" x2="59" y2="9" />
<line x1="64" y1="0" x2="64" y2="-1" />
<line x1="69" y1="0" x2="69" y2="6" />
<line x1="74" y1="0" x2="74" y2="-14" />
<line x1="79" y1="0" x2="79" y2="20" />
<line x1="84" y1="0" x2="84" y2="-20" />
<line x1="89" y1="0" x2="89" y2="21" />
<line x1="94" y1="0" x2="94" y2="-11" />
<line x1="99" y1="0" x2="99" y2="3" />
<line x1="104" y1="0" x2="104" y2="-13" />
<line x1="109" y1="0" x2="109" y2="35" />
<line x1="114" y1="0" x2="114" y2="-30" />
<line x1="119" y1="0" x2="119" y2="10" />
<line x1="124" y1="0" x2="124" y2="-3" />
<line x1="128" y1="0" x2="128" y2="15" />
<line x1="133" y1="0" x2="133" y2="-27" />
<line x1="138" y1="0" x2="138" y2="41" />
<line x1="143" y1="0" x2="143" y2="-41" />
<line x1="148" y1="0" x2="148" y2="30" />
<line x1="153" y1="0" x2="153" y2="-16" />
<line x1="158" y1="0" x2="158" y2="5" />
<line x1="163" y1="0" x2="163" y2="-7" />
<line x1="168" y1="0" x2="168" y2="42" />
<line x1="173" y1="0" x2="173" y2="-54" />
<line x1="178" y1="0" x2="178" y2="21" />
<line x1="183" y1="0" x2="183" y2="-5" />
<line x1="188" y1="0" x2="188" y2="33" />
<line x1="193" y1="0" x2="193" y2="-49" />
<line x1="198" y1="0" x2="198" y2="53" />
<line x1="203" y1="0" x2="203" y2="-53" />
<line x1="208" y1="0" x2="208" y2="39" />
<line x1="212" y1="0" x2="212" y2="-7" />
<line x1="217" y1="0" x2="217" y2="-7" />
<line x1="222" y1="0" x2="222" y2="-25" />
<line x1="227" y1="0" x2="227" y2="75" />
<line x1="232" y1="0" x2="232" y2="-68" />
<line x1="237" y1="0" x2="237" y2="35" />
<line x1="242" y1="0" x2="242" y2="-22" />
<line x1="247" y1="0" x2="247" y2="25" />
<line x1="252" y1="0" x2="252" y2="-45" />
<line x1="257" y1="0" x2="257" y2="65" />
<line x1="262" y1="0" x2="262" y2="-49" />
<line x1="267" y1="0" x2="267" y2="47" />
<line x1="272" y1="0" x2="272" y2="-41" />
<line x1="277" y1="0" x2="277" y2="9" />
<line x1="282" y1="0" x2="282" y2="-31" />
<line x1="287" y1="0" x2="287" y2="107" />
<line x1="292" y1="0" x2="292" y2="-107" />
<line x1="296" y1="0" x2="296" y2="33" />
<line x1="301" y1="0" x2="301" y2="7" />
<line x1="306" y1="0" x2="306" y2="22" />
<line x1="311" y1="0" x2="311" y2="-44" />
<line x1="316" y1="0" x2="316" y2="59" />
<line x1="321" y1="0" x2="321" y2="-77" />
<line x1="326" y1="0" x2="326" y2="57" />
<line x1="331" y1="0" x2="331" y2="-31" />
<line x1="336" y1="0" x2="336" y2="47" />
<line x1="341" y1="0" x2="341" y2="-73" />
<line x1="346" y1="0" x2="346" y2="122" />
<line x1="351" y1="0" x2="351" y2="-122" />
<line x1="356" y1="0" x2="356" y2="39" />
<line x1="361" y1="0" x2="361" y2="9" />
<line x1="366" y1="0" x2="366" y2="15" />
<line x1="371" y1="0" x2="371" y2="-45" />
<line x1="375" y1="0" x2="375" y2="71" />
<line x1="380" y1="0" x2="380" y2="-89" />
<line x1="385" y1="0" x2="385" y2="105" />
<line x1="390" y1="0" x2="390" y2="-66" />
<line x1="395" y1="0" x2="395" y2="4" />
<line x1="400" y1="0" x2="400" y2="-43" />
<line x1="405" y1="0" x2="405" y2="139" />
<line x1="410" y1="0" x2="410" y2="-117" />
<line x1="415" y1="0" x2="415" y2="23" />
<line x1="420" y1="0" x2="420" y2="-13" />
<line x1="425" y1="0" x2="425" y2="59" />
<line x1="430" y1="0" x2="430" y2="-91" />
<line x1="435" y1="0" x2="435" y2="143" />
<line x1="440" y1="0" x2="440" y2="-123" />
<line x1="445" y1="0" x2="445" y2="55" />
<line x1="450" y1="0" x2="450" y2="-41" />
<line x1="455" y1="0" x2="455" y2="15" />
<line x1="459" y1="0" x2="459" y2="-25" />
<line x1="464" y1="0" x2="464" y2="131" />
<line x1="469" y1="0" x2="469" y2="-155" />
<line x1="474" y1="0" x2="474" y2="72" />
<line x1="479" y1="0" x2="479" y2="-16" />
<line x1="484" y1="0" x2="484" y2="60" />
<line x1="489" y1="0" x2="489" y2="-116" />
<line x1="494" y1="0" x2="494" y2="113" />
<line x1="499" y1="0" x2="499" y2="-113" />
<line x1="504" y1="0" x2="504" y2="105" />
<line x1="509" y1="0" x2="509" y2="-19" />
<line x1="514" y1="0" x2="514" y2="-31" />
<line x1="519" y1="0" x2="519" y2="-55" />
<line x1="524" y1="0" x2="524" y2="171" />
<line x1="529" y1="0" x2="529" y2="-171" />
<line x1="534" y1="0" x2="534" y2="105" />
<line x1="539" y1="0" x2="539" y2="-65" />
<line x1="543" y1="0" x2="543" y2="95" />
<line x1="548" y1="0" x2="548" y2="-135" />
<line x1="553" y1="0" x2="553" y2="125" />
<line x1="558" y1="0" x2="558" y2="-97" />
</g>
</svg>