<svg xmlns="http://www.w3.org/2000/svg" width="161.1" height="100.0" viewBox="1.7 -5.0 171.1 110.0">
<g fill="none" stroke="black" stroke-width="1.2000%" transform="translate(0, 100.0000) scale(0.4167, -0.4167)">
<line x1="16.1" y1="0.0" x2="16.1" y2="1.0" />
<line x1="32.2" y1="0.0" x2="32.2" y2="2.0" />
<line x1="48.3" y1="0.0" x2="48.3" y2="4.0" />
<line x1="64.5" y1="0.0" x2="64.5" y2="6.0" />
<line x1="80.6" y1="0.0" x2="80.6" y2="8.0" />
<line x1="96.7" y1="0.0" x2="96.7" y2="10.0" />
<line x1="112.8" y1="0.0" x2="112.8" y2="12.0" />
<line x1="128.9" y1="0.0" x2="128.9" y2="18.0" />
<line x1="145.0" y1="0.0" x2="145.0" y2="20.0" />
<line x1="161.1" y1="0.0" x2="161.1" y2="24.0" />
<line x1="177.2" y1="0.0" x2="177.2" y2="30.0" />
<line x1="193.4" y1="0.0" x2="193.4" y2="36.0" />
<line x1="209.5" y1="0.0" x2="209.5" y2="48.0" />
<line x1="225.6" y1="0.0" x2="225.6" y2="60.0" />
<line x1="241.7" y1="0.0" x2="241.7" y2="72.0" />
<line x1="257.8" y1="0.0" x2="257.8" y2="84.0" />
<line x1="273.9" y1="0.0" x2="273.9" y2="90.0" />
<line x1="290.0" y1="0.0" x2="290.0" y2="96.0" />
<line x1="306.1" y1="0.0" x2="306.1" y2="108.0" />
<line x1="322.3" y1="0.0" x2="322.3" y2="120.0" />
<line x1="338.4" y1="0.0" x2="338.4" y2="144.0" />
<line x1="354.5" y1="0.0" x2="354.5" y2="168.0" />
<line x1="370.6" y1="0.0" x2="370.6" y2="180.0" />
<line x1="386.7" y1="0.0" x2="386.7" y2="216.0" />
<line x1="402.8" y1="0.0" x2="402.8" y2="240.0" />
</g>
</svg>