<svg xmlns="http://www.w3.org/2000/svg" width="161.8" height="100.0" viewBox="-3.6 -5.0 171.8 110.0">
<g fill="none" stroke="black" stroke-width="0.8600%" transform="translate(0, 100.0000) scale(0.5814, -0.5814)">
<polyline points="2.4,0.0 4.7,1.0 7.1,1.0 9.4,3.0 11.8,1.0 14.2,6.0 16.5,1.0 18.9,7.0 21.2,4.0 23.6,8.0 25.9,1.0 28.3,16.0 30.7,1.0 33.0,10.0 35.4,9.0 37.7,15.0 40.1,1.0 42.5,21.0 44.8,1.0 47.2,22.0 49.5,11.0 51.9,14.0 54.2,1.0 56.6,36.0 59.0,6.0 61.3,16.0 63.7,13.0 66.0,28.0 68.4,1.0 70.8,42.0 73.1,1.0 75.5,31.0 77.8,15.0 80.2,20.0 82.5,13.0 84.9,55.0 87.3,1.0 89.6,22.0 92.0,17.0 94.3,50.0 96.7,1.0 99.1,54.0 101.4,1.0 103.8,40.0 106.1,33.0 108.5,26.0 110.8,1.0 113.2,76.0 115.6,8.0 117.9,43.0 120.3,21.0 122.6,46.0 125.0,1.0 127.4,66.0 129.7,17.0 132.1,64.0 134.4,23.0 136.8,32.0 139.2,1.0 141.5,108.0 143.9,1.0 146.2,34.0 148.6,41.0 150.9,63.0 153.3,19.0 155.7,78.0 158.0,1.0 160.4,58.0 162.7,27.0 165.1,74.0 167.5,1.0 169.8,123.0 172.2,1.0 174.5,40.0 176.9,49.0 179.2,64.0 181.6,19.0 184.0,90.0 186.3,1.0 188.7,106.0 191.0,40.0 193.4,44.0 195.8,1.0 198.1,140.0 200.5,23.0 202.8,46.0 205.2,33.0 207.5,92.0 209.9,1.0 212.3,144.0 214.6,21.0 217.0,76.0 219.3,35.0 221.7,50.0 224.1,25.0 226.4,156.0 228.8,1.0 231.1,73.0 233.5,57.0 235.8,117.0 238.2,1.0 240.6,114.0 242.9,1.0 245.3,106.0 247.6,87.0 250.0,56.0 252.4,1.0 254.7,172.0 257.1,1.0 259.4,106.0 261.8,41.0 264.2,136.0 266.5,1.0 268.9,126.0 271.2,29.0 273.6,94.0 275.9,65.0 278.3,62.0 280.7,25.0" />
</g>
</svg>