<svg xmlns="http://www.w3.org/2000/svg" width="151.0" height="100.0" viewBox="-3.20 -5.00 161.02 110.00">
<g fill="none" stroke="black" stroke-width="0.0750%" transform="translate(0, 100.0000) scale(6.6667, -6.6667)">
<line x1="0.27" y1="0.00" x2="0.27" y2="1.00" />
<line x1="0.54" y1="0.00" x2="0.54" y2="2.00" />
<line x1="0.81" y1="0.00" x2="0.81" y2="2.00" />
<line x1="1.08" y1="0.00" x2="1.08" y2="3.00" />
<line x1="1.35" y1="0.00" x2="1.35" y2="2.00" />
<line x1="1.62" y1="0.00" x2="1.62" y2="1.00" />
<line x1="1.89" y1="0.00" x2="1.89" y2="2.00" />
<line x1="2.16" y1="0.00" x2="2.16" y2="3.00" />
<line x1="2.43" y1="0.00" x2="2.43" y2="4.00" />
<line x1="2.70" y1="0.00" x2="2.70" y2="4.00" />
<line x1="2.97" y1="0.00" x2="2.97" y2="2.00" />
<line x1="3.24" y1="0.00" x2="3.24" y2="7.00" />
<line x1="3.51" y1="0.00" x2="3.51" y2="2.00" />
<line x1="3.78" y1="0.00" x2="3.78" y2="5.00" />
<line x1="4.05" y1="0.00" x2="4.05" y2="5.00" />
<line x1="4.31" y1="0.00" x2="4.31" y2="6.00" />
<line x1="4.58" y1="0.00" x2="4.58" y2="2.00" />
<line x1="4.85" y1="0.00" x2="4.85" y2="4.00" />
<line x1="5.12" y1="0.00" x2="5.12" y2="2.00" />
<line x1="5.39" y1="0.00" x2="5.39" y2="7.00" />
<line x1="5.66" y1="0.00" x2="5.66" y2="3.00" />
<line x1="5.93" y1="0.00" x2="5.93" y2="6.00" />
<line x1="6.20" y1="0.00" x2="6.20" y2="2.00" />
<line x1="6.47" y1="0.00" x2="6.47" y2="5.00" />
<line x1="6.74" y1="0.00" x2="6.74" y2="2.00" />
<line x1="7.01" y1="0.00" x2="7.01" y2="7.00" />
<line x1="7.28" y1="0.00" x2="7.28" y2="3.00" />
<line x1="7.55" y1="0.00" x2="7.55" y2="1.00" />
<line x1="7.82" y1="0.00" x2="7.82" y2="2.00" />
<line x1="8.09" y1="0.00" x2="8.09" y2="15.00" />
<line x1="8.36" y1="0.00" x2="8.36" y2="2.00" />
<line x1="8.63" y1="0.00" x2="8.63" y2="3.00" />
<line x1="8.90" y1="0.00" x2="8.90" y2="6.00" />
<line x1="9.17" y1="0.00" x2="9.17" y2="8.00" />
<line x1="9.44" y1="0.00" x2="9.44" y2="3.00" />
<line x1="9.71" y1="0.00" x2="9.71" y2="4.00" />
<line x1="9.98" y1="0.00" x2="9.98" y2="2.00" />
<line x1="10.25" y1="0.00" x2="10.25" y2="7.00" />
<line x1="10.52" y1="0.00" x2="10.52" y2="3.00" />
<line x1="10.79" y1="0.00" x2="10.79" y2="4.00" />
<line x1="11.06" y1="0.00" x2="11.06" y2="2.00" />
<line x1="11.33" y1="0.00" x2="11.33" y2="14.00" />
<line x1="11.60" y1="0.00" x2="11.60" y2="2.00" />
<line x1="11.87" y1="0.00" x2="11.87" y2="5.00" />
<line x1="12.14" y1="0.00" x2="12.14" y2="7.00" />
<line x1="12.40" y1="0.00" x2="12.40" y2="8.00" />
<line x1="12.67" y1="0.00" x2="12.67" y2="2.00" />
<line x1="12.94" y1="0.00" x2="12.94" y2="6.00" />
<line x1="13.21" y1="0.00" x2="13.21" y2="4.00" />
<line x1="13.48" y1="0.00" x2="13.48" y2="3.00" />
<line x1="13.75" y1="0.00" x2="13.75" y2="4.00" />
<line x1="14.02" y1="0.00" x2="14.02" y2="9.00" />
<line x1="14.29" y1="0.00" x2="14.29" y2="2.00" />
<line x1="14.56" y1="0.00" x2="14.56" y2="13.00" />
<line x1="14.83" y1="0.00" x2="14.83" y2="3.00" />
<line x1="15.10" y1="0.00" x2="15.10" y2="5.00" />
<line x1="15.37" y1="0.00" x2="15.37" y2="3.00" />
<line x1="15.64" y1="0.00" x2="15.64" y2="4.00" />
<line x1="15.91" y1="0.00" x2="15.91" y2="2.00" />
<line x1="16.18" y1="0.00" x2="16.18" y2="11.00" />
<line x1="16.45" y1="0.00" x2="16.45" y2="2.00" />
<line x1="16.72" y1="0.00" x2="16.72" y2="9.00" />
<line x1="16.99" y1="0.00" x2="16.99" y2="3.00" />
<line x1="17.26" y1="0.00" x2="17.26" y2="4.00" />
<line x1="17.53" y1="0.00" x2="17.53" y2="3.00" />
<line x1="17.80" y1="0.00" x2="17.80" y2="12.00" />
<line x1="18.07" y1="0.00" x2="18.07" y2="2.00" />
<line x1="18.34" y1="0.00" x2="18.34" y2="5.00" />
<line x1="18.61" y1="0.00" x2="18.61" y2="4.00" />
<line x1="18.88" y1="0.00" x2="18.88" y2="6.00" />
<line x1="19.15" y1="0.00" x2="19.15" y2="2.00" />
<line x1="19.42" y1="0.00" x2="19.42" y2="9.00" />
<line x1="19.69" y1="0.00" x2="19.69" y2="2.00" />
<line x1="19.96" y1="0.00" x2="19.96" y2="5.00" />
<line x1="20.23" y1="0.00" x2="20.23" y2="5.00" />
<line x1="20.50" y1="0.00" x2="20.50" y2="5.00" />
<line x1="20.76" y1="0.00" x2="20.76" y2="3.00" />
<line x1="21.03" y1="0.00" x2="21.03" y2="11.00" />
<line x1="21.30" y1="0.00" x2="21.30" y2="2.00" />
<line x1="21.57" y1="0.00" x2="21.57" y2="7.00" />
<line x1="21.84" y1="0.00" x2="21.84" y2="5.00" />
<line x1="22.11" y1="0.00" x2="22.11" y2="6.00" />
<line x1="22.38" y1="0.00" x2="22.38" y2="2.00" />
<line x1="22.65" y1="0.00" x2="22.65" y2="6.00" />
<line x1="22.92" y1="0.00" x2="22.92" y2="3.00" />
</g>
</svg>