<svg xmlns="http://www.w3.org/2000/svg" width="161.8" height="100.0" viewBox="-2.472 -44.070 171.803 110.000">
<g fill="none" stroke="black" stroke-width="0.0043%" transform="translate(0, 21.8606) scale(117.4324, -117.4324)">
<line x1="0.022" y1="0.000" x2="0.022" y2="0.519" />
<line x1="0.043" y1="0.000" x2="0.043" y2="-0.333" />
<line x1="0.065" y1="0.000" x2="0.065" y2="0.247" />
<line x1="0.086" y1="0.000" x2="0.086" y2="-0.197" />
<line x1="0.108" y1="0.000" x2="0.108" y2="0.165" />
<line x1="0.129" y1="0.000" x2="0.129" y2="-0.141" />
<line x1="0.151" y1="0.000" x2="0.151" y2="0.124" />
<line x1="0.172" y1="0.000" x2="0.172" y2="-0.110" />
<line x1="0.194" y1="0.000" x2="0.194" y2="0.099" />
<line x1="0.215" y1="0.000" x2="0.215" y2="-0.090" />
<line x1="0.237" y1="0.000" x2="0.237" y2="0.083" />
<line x1="0.258" y1="0.000" x2="0.258" y2="-0.076" />
<line x1="0.280" y1="0.000" x2="0.280" y2="0.071" />
<line x1="0.301" y1="0.000" x2="0.301" y2="-0.066" />
<line x1="0.323" y1="0.000" x2="0.323" y2="0.062" />
<line x1="0.344" y1="0.000" x2="0.344" y2="-0.058" />
<line x1="0.366" y1="0.000" x2="0.366" y2="0.055" />
<line x1="0.388" y1="0.000" x2="0.388" y2="-0.052" />
<line x1="0.409" y1="0.000" x2="0.409" y2="0.050" />
<line x1="0.431" y1="0.000" x2="0.431" y2="-0.047" />
<line x1="0.452" y1="0.000" x2="0.452" y2="0.045" />
<line x1="0.474" y1="0.000" x2="0.474" y2="-0.043" />
<line x1="0.495" y1="0.000" x2="0.495" y2="0.041" />
<line x1="0.517" y1="0.000" x2="0.517" y2="-0.040" />
<line x1="0.538" y1="0.000" x2="0.538" y2="0.038" />
<line x1="0.560" y1="0.000" x2="0.560" y2="-0.037" />
<line x1="0.581" y1="0.000" x2="0.581" y2="0.036" />
<line x1="0.603" y1="0.000" x2="0.603" y2="-0.034" />
<line x1="0.624" y1="0.000" x2="0.624" y2="0.033" />
<line x1="0.646" y1="0.000" x2="0.646" y2="-0.032" />
<line x1="0.667" y1="0.000" x2="0.667" y2="0.031" />
<line x1="0.689" y1="0.000" x2="0.689" y2="-0.030" />
<line x1="0.710" y1="0.000" x2="0.710" y2="0.029" />
<line x1="0.732" y1="0.000" x2="0.732" y2="-0.028" />
<line x1="0.754" y1="0.000" x2="0.754" y2="0.028" />
<line x1="0.775" y1="0.000" x2="0.775" y2="-0.027" />
<line x1="0.797" y1="0.000" x2="0.797" y2="0.026" />
<line x1="0.818" y1="0.000" x2="0.818" y2="-0.026" />
<line x1="0.840" y1="0.000" x2="0.840" y2="0.025" />
<line x1="0.861" y1="0.000" x2="0.861" y2="-0.024" />
<line x1="0.883" y1="0.000" x2="0.883" y2="0.024" />
<line x1="0.904" y1="0.000" x2="0.904" y2="-0.023" />
<line x1="0.926" y1="0.000" x2="0.926" y2="0.023" />
<line x1="0.947" y1="0.000" x2="0.947" y2="-0.022" />
<line x1="0.969" y1="0.000" x2="0.969" y2="0.022" />
<line x1="0.990" y1="0.000" x2="0.990" y2="-0.021" />
<line x1="1.012" y1="0.000" x2="1.012" y2="0.021" />
<line x1="1.033" y1="0.000" x2="1.033" y2="-0.020" />
<line x1="1.055" y1="0.000" x2="1.055" y2="0.020" />
<line x1="1.076" y1="0.000" x2="1.076" y2="-0.020" />
<line x1="1.098" y1="0.000" x2="1.098" y2="0.019" />
<line x1="1.119" y1="0.000" x2="1.119" y2="-0.019" />
<line x1="1.141" y1="0.000" x2="1.141" y2="0.018" />
<line x1="1.163" y1="0.000" x2="1.163" y2="-0.018" />
<line x1="1.184" y1="0.000" x2="1.184" y2="0.018" />
<line x1="1.206" y1="0.000" x2="1.206" y2="-0.017" />
<line x1="1.227" y1="0.000" x2="1.227" y2="0.017" />
<line x1="1.249" y1="0.000" x2="1.249" y2="-0.017" />
<line x1="1.270" y1="0.000" x2="1.270" y2="0.017" />
<line x1="1.292" y1="0.000" x2="1.292" y2="-0.016" />
<line x1="1.313" y1="0.000" x2="1.313" y2="0.016" />
<line x1="1.335" y1="0.000" x2="1.335" y2="-0.016" />
<line x1="1.356" y1="0.000" x2="1.356" y2="0.016" />
<line x1="1.378" y1="0.000" x2="1.378" y2="-0.015" />
<line x1="1.399" y1="0.000" x2="1.399" y2="0.015" />
</g>
</svg>