<svg xmlns="http://www.w3.org/2000/svg" width="161.8" height="100.0" viewBox="-2.511 95.000 171.803 110.000">
<g fill="none" stroke="black" stroke-width="0.0050%" transform="translate(0, 300.0000) scale(100.0000, -100.0000)">
<polyline points="0.025,1.000 0.050,1.000 0.050,2.000 0.075,2.000 0.075,1.000 0.100,1.000 0.100,1.000 0.124,1.000 0.124,1.000 0.149,1.000 0.149,2.000 0.174,2.000 0.174,1.000 0.199,1.000 0.199,2.000 0.224,2.000 0.224,1.000 0.249,1.000 0.249,2.000 0.274,2.000 0.274,1.000 0.299,1.000 0.299,1.000 0.324,1.000 0.324,1.000 0.348,1.000 0.348,2.000 0.373,2.000 0.373,1.000 0.398,1.000 0.398,1.000 0.423,1.000 0.423,1.000 0.448,1.000 0.448,2.000 0.473,2.000 0.473,1.000 0.498,1.000 0.498,1.000 0.523,1.000 0.523,1.000 0.548,1.000 0.548,2.000 0.573,2.000 0.573,1.000 0.597,1.000 0.597,2.000 0.622,2.000 0.622,1.000 0.647,1.000 0.647,2.000 0.672,2.000 0.672,1.000 0.697,1.000 0.697,1.000 0.722,1.000 0.722,1.000 0.747,1.000 0.747,2.000 0.772,2.000 0.772,1.000 0.797,1.000 0.797,2.000 0.821,2.000 0.821,1.000 0.846,1.000 0.846,2.000 0.871,2.000 0.871,1.000 0.896,1.000 0.896,1.000 0.921,1.000 0.921,1.000 0.946,1.000 0.946,2.000 0.971,2.000 0.971,1.000 0.996,1.000 0.996,2.000 1.021,2.000 1.021,1.000 1.045,1.000 1.045,2.000 1.070,2.000 1.070,1.000 1.095,1.000 1.095,1.000 1.120,1.000 1.120,1.000 1.145,1.000 1.145,2.000 1.170,2.000 1.170,1.000 1.195,1.000 1.195,1.000 1.220,1.000 1.220,1.000 1.245,1.000 1.245,2.000 1.270,2.000 1.270,1.000 1.294,1.000 1.294,1.000 1.319,1.000 1.319,1.000 1.344,1.000 1.344,2.000 1.369,2.000 1.369,1.000 1.394,1.000 1.394,2.000 1.419,2.000 1.419,1.000 1.444,1.000 1.444,2.000 1.469,2.000 1.469,1.000 1.494,1.000 1.494,1.000 1.518,1.000 1.518,1.000 1.543,1.000 1.543,2.000 1.568,2.000 1.568,1.000 1.593,1.000 1.593,1.000 1.618,1.000 1.618,1.000 1.643,1.000" />
</g>
</svg>