<svg xmlns="http://www.w3.org/2000/svg" width="161.8" height="100.0" viewBox="-3.38 -47.86 171.80 110.00">
<g fill="none" stroke="black" stroke-width="0.0350%" transform="translate(0, 14.2857) scale(14.2857, -14.2857)">

<line x1="0.23" y1="0.00" x2="0.23" y2="1.00" />
<line x1="0.34" y1="0.00" x2="0.34" y2="-1.00" />

<line x1="0.57" y1="0.00" x2="0.57" y2="1.00" />
<line x1="0.68" y1="0.00" x2="0.68" y2="2.00" />

<line x1="0.91" y1="0.00" x2="0.91" y2="1.00" />
<line x1="1.02" y1="0.00" x2="1.02" y2="-1.00" />

<line x1="1.25" y1="0.00" x2="1.25" y2="-2.00" />
<line x1="1.36" y1="0.00" x2="1.36" y2="-1.00" />

<line x1="1.59" y1="0.00" x2="1.59" y2="1.00" />
<line x1="1.70" y1="0.00" x2="1.70" y2="-1.00" />

<line x1="1.93" y1="0.00" x2="1.93" y2="1.00" />
<line x1="2.04" y1="0.00" x2="2.04" y2="2.00" />

<line x1="2.27" y1="0.00" x2="2.27" y2="1.00" />
<line x1="2.38" y1="0.00" x2="2.38" y2="2.00" />
<line x1="2.49" y1="0.00" x2="2.49" y2="3.00" />
<line x1="2.61" y1="0.00" x2="2.61" y2="1.00" />
<line x1="2.72" y1="0.00" x2="2.72" y2="2.00" />

<line x1="2.94" y1="0.00" x2="2.94" y2="1.00" />
<line x1="3.06" y1="0.00" x2="3.06" y2="-1.00" />

<line x1="3.28" y1="0.00" x2="3.28" y2="1.00" />
<line x1="3.40" y1="0.00" x2="3.40" y2="2.00" />

<line x1="3.62" y1="0.00" x2="3.62" y2="1.00" />
<line x1="3.74" y1="0.00" x2="3.74" y2="-1.00" />

<line x1="3.96" y1="0.00" x2="3.96" y2="-2.00" />
<line x1="4.08" y1="0.00" x2="4.08" y2="-1.00" />

<line x1="4.30" y1="0.00" x2="4.30" y2="1.00" />
<line x1="4.42" y1="0.00" x2="4.42" y2="-1.00" />

<line x1="4.64" y1="0.00" x2="4.64" y2="-2.00" />
<line x1="4.76" y1="0.00" x2="4.76" y2="-1.00" />
<line x1="4.87" y1="0.00" x2="4.87" y2="-3.00" />
<line x1="4.98" y1="0.00" x2="4.98" y2="-2.00" />
<line x1="5.10" y1="0.00" x2="5.10" y2="-1.00" />

<line x1="5.32" y1="0.00" x2="5.32" y2="-2.00" />
<line x1="5.44" y1="0.00" x2="5.44" y2="-1.00" />

<line x1="5.66" y1="0.00" x2="5.66" y2="1.00" />
<line x1="5.78" y1="0.00" x2="5.78" y2="-1.00" />

<line x1="6.00" y1="0.00" x2="6.00" y2="1.00" />
<line x1="6.12" y1="0.00" x2="6.12" y2="2.00" />

<line x1="6.34" y1="0.00" x2="6.34" y2="1.00" />
<line x1="6.46" y1="0.00" x2="6.46" y2="-1.00" />

<line x1="6.68" y1="0.00" x2="6.68" y2="-2.00" />
<line x1="6.80" y1="0.00" x2="6.80" y2="-1.00" />

<line x1="7.02" y1="0.00" x2="7.02" y2="1.00" />
<line x1="7.14" y1="0.00" x2="7.14" y2="-1.00" />

<line x1="7.36" y1="0.00" x2="7.36" y2="1.00" />
<line x1="7.48" y1="0.00" x2="7.48" y2="2.00" />

<line x1="7.70" y1="0.00" x2="7.70" y2="1.00" />
<line x1="7.82" y1="0.00" x2="7.82" y2="2.00" />
<line x1="7.93" y1="0.00" x2="7.93" y2="3.00" />
<line x1="8.04" y1="0.00" x2="8.04" y2="1.00" />
<line x1="8.15" y1="0.00" x2="8.15" y2="2.00" />

<line x1="8.38" y1="0.00" x2="8.38" y2="1.00" />
<line x1="8.49" y1="0.00" x2="8.49" y2="-1.00" />

<line x1="8.72" y1="0.00" x2="8.72" y2="1.00" />
<line x1="8.83" y1="0.00" x2="8.83" y2="2.00" />

<line x1="9.06" y1="0.00" x2="9.06" y2="1.00" />
<line x1="9.17" y1="0.00" x2="9.17" y2="2.00" />
<line x1="9.29" y1="0.00" x2="9.29" y2="3.00" />
<line x1="9.40" y1="0.00" x2="9.40" y2="1.00" />
<line x1="9.51" y1="0.00" x2="9.51" y2="2.00" />
<line x1="9.63" y1="0.00" x2="9.63" y2="3.00" />
<line x1="9.74" y1="0.00" x2="9.74" y2="4.00" />
<line x1="9.85" y1="0.00" x2="9.85" y2="2.00" />
<line x1="9.97" y1="0.00" x2="9.97" y2="3.00" />
<line x1="10.08" y1="0.00" x2="10.08" y2="1.00" />
<line x1="10.19" y1="0.00" x2="10.19" y2="2.00" />

<line x1="10.42" y1="0.00" x2="10.42" y2="1.00" />
<line x1="10.53" y1="0.00" x2="10.53" y2="2.00" />
<line x1="10.65" y1="0.00" x2="10.65" y2="3.00" />
<line x1="10.76" y1="0.00" x2="10.76" y2="1.00" />
<line x1="10.87" y1="0.00" x2="10.87" y2="2.00" />

<line x1="11.10" y1="0.00" x2="11.10" y2="1.00" />
<line x1="11.21" y1="0.00" x2="11.21" y2="-1.00" />

<line x1="11.44" y1="0.00" x2="11.44" y2="1.00" />
</g>
</svg>