<svg xmlns="http://www.w3.org/2000/svg" width="71.6" height="100.0" viewBox="-9.442 -55.000 81.557 110.000">
<g fill="none" stroke="black" stroke-width="0.0112%" transform="translate(0, 0.0000) scale(44.7473, -44.7473)">
<polyline points="0.602,-1.112 0.600,-1.112 0.598,-1.112 0.574,-1.114 0.570,-1.115 0.565,-1.115 0.546,-1.116 0.540,-1.117 0.533,-1.117 0.517,-1.117 0.510,-1.117 0.503,-1.117 0.487,-1.117 0.480,-1.117 0.473,-1.117 0.456,-1.116 0.450,-1.116 0.445,-1.115 0.424,-1.114 0.420,-1.114 0.417,-1.113 0.390,-1.110 0.390,-1.110 0.390,-1.110 0.388,-1.110 0.364,-1.106 0.360,-1.105 0.353,-1.103 0.340,-1.100 0.330,-1.098 0.316,-1.094 0.314,-1.094 0.300,-1.090 0.292,-1.088 0.271,-1.081 0.270,-1.081 0.269,-1.081 0.268,-1.080 0.248,-1.072 0.240,-1.069 0.227,-1.063 0.219,-1.059 0.210,-1.055 0.207,-1.053 0.200,-1.050 0.187,-1.043 0.180,-1.039 0.168,-1.032 0.152,-1.022 0.150,-1.021 0.149,-1.021 0.149,-1.020 0.132,-1.008 0.120,-0.999 0.115,-0.995 0.109,-0.990 0.099,-0.981 0.090,-0.973 0.083,-0.967 0.076,-0.960 0.068,-0.952 0.060,-0.944 0.054,-0.936 0.048,-0.930 0.040,-0.920 0.030,-0.908 0.026,-0.904 0.024,-0.900 0.014,-0.886 0.010,-0.880 0.003,-0.870 0.002,-0.868 0.000,-0.866 -0.009,-0.849 -0.015,-0.840 -0.020,-0.830 -0.030,-0.812 -0.031,-0.811 -0.031,-0.810 -0.032,-0.808 -0.039,-0.789 -0.044,-0.780 -0.048,-0.768 -0.053,-0.757 -0.056,-0.750 -0.057,-0.747 -0.060,-0.738 -0.064,-0.724 -0.066,-0.720 -0.068,-0.712 -0.071,-0.701 -0.074,-0.690 -0.077,-0.677 -0.078,-0.672 -0.081,-0.660 -0.083,-0.653 -0.087,-0.633 -0.087,-0.630 -0.088,-0.628 -0.090,-0.614 -0.092,-0.602 -0.092,-0.600 -0.092,-0.598 -0.095,-0.575 -0.095,-0.570 -0.096,-0.564 -0.097,-0.547 -0.098,-0.540 -0.098,-0.532 -0.098,-0.518 -0.099,-0.510 -0.099,-0.501 -0.099,-0.489 -0.099,-0.480 -0.099,-0.471 -0.099,-0.459 -0.099,-0.450 -0.099,-0.441 -0.098,-0.428 -0.098,-0.420 -0.097,-0.413 -0.096,-0.396 -0.095,-0.390 -0.095,-0.385 -0.093,-0.363 -0.093,-0.360 -0.093,-0.357 -0.090,-0.335 -0.089,-0.331 -0.089,-0.330 -0.089,-0.329 -0.085,-0.305 -0.084,-0.300 -0.083,-0.293 -0.080,-0.280 -0.078,-0.270 -0.075,-0.255 -0.075,-0.255 -0.072,-0.240 -0.070,-0.230 -0.067,-0.217 -0.066,-0.210 -0.065,-0.205 -0.060,-0.183 -0.059,-0.181 -0.059,-0.180 -0.059,-0.179 -0.052,-0.158 -0.049,-0.150 -0.045,-0.135 -0.044,-0.134 -0.040,-0.120 -0.038,-0.112 -0.033,-0.093 -0.032,-0.090 -0.032,-0.088 -0.030,-0.081 -0.022,-0.068 -0.017,-0.060 -0.012,-0.048 -0.008,-0.038 -0.005,-0.030 -0.004,-0.026 0.000,0.000 0.004,0.026 0.005,0.030 0.010,0.040 0.014,0.046 0.021,0.060 0.025,0.065 0.030,0.069 0.035,0.085 0.037,0.090 0.043,0.103 0.044,0.106 0.051,0.120 0.055,0.125 0.060,0.133 0.065,0.145 0.067,0.150 0.075,0.165 0.075,0.165 0.083,0.180 0.086,0.184 0.090,0.191 0.096,0.204 0.099,0.210 0.107,0.223 0.113,0.233 0.117,0.240 0.118,0.242 0.120,0.244 0.129,0.261 0.135,0.270 0.141,0.279 0.150,0.294 0.152,0.298 0.154,0.300 0.160,0.310 0.164,0.316 0.173,0.330 0.176,0.334 0.180,0.340 0.188,0.352 0.193,0.360 0.200,0.370 0.210,0.383 0.213,0.387 0.215,0.390 0.225,0.405 0.226,0.406 0.237,0.420 0.238,0.422 0.240,0.424 0.251,0.439 0.259,0.450 0.264,0.456 0.270,0.463 0.277,0.473 0.283,0.480 0.291,0.489 0.300,0.500 0.304,0.506 0.308,0.510 0.318,0.522 0.330,0.536 0.332,0.538 0.334,0.540 0.346,0.554 0.360,0.569 0.360,0.570 0.361,0.570 0.368,0.578 0.375,0.585 0.389,0.600 0.389,0.601 0.390,0.601 0.404,0.616 0.418,0.630 0.419,0.631 0.420,0.632 0.434,0.646 0.449,0.660 0.449,0.661 0.450,0.661 0.465,0.675 0.471,0.681 0.480,0.689 0.480,0.690 0.481,0.690 0.496,0.704 0.510,0.716 0.512,0.718 0.515,0.720 0.528,0.732 0.540,0.742 0.545,0.745 0.551,0.750 0.561,0.759 0.570,0.766 0.578,0.772 0.588,0.780 0.595,0.785 0.600,0.789 0.612,0.798 0.628,0.810 0.629,0.811 0.630,0.811 0.635,0.815 0.647,0.823 0.660,0.833 0.664,0.836 0.672,0.840 0.682,0.848 0.690,0.853 0.700,0.860 0.718,0.870 0.719,0.871 0.720,0.872 0.724,0.874 0.737,0.883 0.750,0.890 0.756,0.894 0.769,0.900 0.776,0.904 0.780,0.907 0.795,0.915 0.796,0.916 0.810,0.923 0.815,0.925 0.826,0.930 0.834,0.936 0.840,0.939 0.854,0.946 0.857,0.947 0.870,0.953 0.875,0.955 0.891,0.960 0.896,0.964 0.900,0.966 0.912,0.972 0.916,0.974 0.930,0.980 0.938,0.982 0.958,0.988 0.960,0.989 0.961,0.989 0.973,0.990 0.965,0.995 0.960,1.001 0.955,1.015 0.953,1.020 0.934,1.024 0.930,1.025 0.922,1.028 0.912,1.032 0.900,1.036 0.890,1.040 0.871,1.049 0.870,1.050 0.870,1.050 0.869,1.050 0.846,1.056 0.840,1.058 0.828,1.062 0.823,1.063 0.810,1.067 0.800,1.070 0.785,1.075 0.780,1.077 0.778,1.078 0.771,1.080 0.754,1.084 0.750,1.084 0.744,1.086 0.729,1.089 0.720,1.091 0.706,1.094 0.704,1.094 0.690,1.097 0.680,1.100 0.668,1.102 0.660,1.103 0.654,1.104 0.632,1.108 0.630,1.108 0.629,1.109 0.620,1.110 0.602,1.112 0.600,1.112 0.598,1.112 0.574,1.114 0.570,1.115 0.565,1.115 0.546,1.116 0.540,1.117 0.533,1.117 0.517,1.117 0.510,1.117 0.503,1.117 0.487,1.117 0.480,1.117 0.473,1.117 0.456,1.116 0.450,1.116 0.445,1.115 0.424,1.114 0.420,1.114 0.417,1.113 0.390,1.110 0.390,1.110 0.390,1.110 0.388,1.110 0.364,1.106 0.360,1.105 0.353,1.103 0.340,1.100 0.330,1.098 0.316,1.094 0.314,1.094 0.300,1.090 0.292,1.088 0.271,1.081 0.270,1.081 0.269,1.081 0.268,1.080 0.248,1.072 0.240,1.069 0.227,1.063 0.219,1.059 0.210,1.055 0.207,1.053 0.200,1.050 0.187,1.043 0.180,1.039 0.168,1.032 0.152,1.022 0.150,1.021 0.149,1.021 0.149,1.020 0.132,1.008 0.120,0.999 0.115,0.995 0.109,0.990 0.099,0.981 0.090,0.973 0.083,0.967 0.076,0.960 0.068,0.952 0.060,0.944 0.054,0.936 0.048,0.930 0.040,0.920 0.030,0.908 0.026,0.904 0.024,0.900 0.014,0.886 0.010,0.880 0.003,0.870 0.002,0.868 0.000,0.866 -0.009,0.849 -0.015,0.840 -0.020,0.830 -0.030,0.812 -0.031,0.811 -0.031,0.810 -0.032,0.808 -0.039,0.789 -0.044,0.780 -0.048,0.768 -0.053,0.757 -0.056,0.750 -0.057,0.747 -0.060,0.738 -0.064,0.724 -0.066,0.720 -0.068,0.712 -0.071,0.701 -0.074,0.690 -0.077,0.677 -0.078,0.672 -0.081,0.660 -0.083,0.653 -0.087,0.633 -0.087,0.630 -0.088,0.628 -0.090,0.614 -0.092,0.602 -0.092,0.600 -0.092,0.598 -0.095,0.575 -0.095,0.570 -0.096,0.564 -0.097,0.547 -0.098,0.540 -0.098,0.532 -0.098,0.518 -0.099,0.510 -0.099,0.501 -0.099,0.489 -0.099,0.480 -0.099,0.471 -0.099,0.459 -0.099,0.450 -0.099,0.441 -0.098,0.428 -0.098,0.420 -0.097,0.413 -0.096,0.396 -0.095,0.390 -0.095,0.385 -0.093,0.363 -0.093,0.360 -0.093,0.357 -0.090,0.335 -0.089,0.331 -0.089,0.330 -0.089,0.329 -0.085,0.305 -0.084,0.300 -0.083,0.293 -0.080,0.280 -0.078,0.270 -0.075,0.255 -0.075,0.255 -0.072,0.240 -0.070,0.230 -0.067,0.217 -0.066,0.210 -0.065,0.205 -0.060,0.183 -0.059,0.181 -0.059,0.180 -0.059,0.179 -0.052,0.158 -0.049,0.150 -0.045,0.135 -0.044,0.134 -0.040,0.120 -0.038,0.112 -0.033,0.093 -0.032,0.090 -0.032,0.088 -0.030,0.081 -0.022,0.068 -0.017,0.060 -0.012,0.048 -0.008,0.038 -0.005,0.030 -0.004,0.026 0.000,0.000 0.004,-0.026 0.005,-0.030 0.010,-0.040 0.014,-0.046 0.021,-0.060 0.025,-0.065 0.030,-0.069 0.035,-0.085 0.037,-0.090 0.043,-0.103 0.044,-0.106 0.051,-0.120 0.055,-0.125 0.060,-0.133 0.065,-0.145 0.067,-0.150 0.075,-0.165 0.075,-0.165 0.083,-0.180 0.086,-0.184 0.090,-0.191 0.096,-0.204 0.099,-0.210 0.107,-0.223 0.113,-0.233 0.117,-0.240 0.118,-0.242 0.120,-0.244 0.129,-0.261 0.135,-0.270 0.141,-0.279 0.150,-0.294 0.152,-0.298 0.154,-0.300 0.160,-0.310 0.164,-0.316 0.173,-0.330 0.176,-0.334 0.180,-0.340 0.188,-0.352 0.193,-0.360 0.200,-0.370 0.210,-0.383 0.213,-0.387 0.215,-0.390 0.225,-0.405 0.226,-0.406 0.237,-0.420 0.238,-0.422 0.240,-0.424 0.251,-0.439 0.259,-0.450 0.264,-0.456 0.270,-0.463 0.277,-0.473 0.283,-0.480 0.291,-0.489 0.300,-0.500 0.304,-0.506 0.308,-0.510 0.318,-0.522 0.330,-0.536 0.332,-0.538 0.334,-0.540 0.346,-0.554 0.360,-0.569 0.360,-0.570 0.361,-0.570 0.368,-0.578 0.375,-0.585 0.389,-0.600 0.389,-0.601 0.390,-0.601 0.404,-0.616 0.418,-0.630 0.419,-0.631 0.420,-0.632 0.434,-0.646 0.449,-0.660 0.449,-0.661 0.450,-0.661 0.465,-0.675 0.471,-0.681 0.480,-0.689 0.480,-0.690 0.481,-0.690 0.496,-0.704 0.510,-0.716 0.512,-0.718 0.515,-0.720 0.528,-0.732 0.540,-0.742 0.545,-0.745 0.551,-0.750 0.561,-0.759 0.570,-0.766 0.578,-0.772 0.588,-0.780 0.595,-0.785 0.600,-0.789 0.612,-0.798 0.628,-0.810 0.629,-0.811 0.630,-0.811 0.635,-0.815 0.647,-0.823 0.660,-0.833 0.664,-0.836 0.672,-0.840 0.682,-0.848 0.690,-0.853 0.700,-0.860 0.718,-0.870 0.719,-0.871 0.720,-0.872 0.724,-0.874 0.737,-0.883 0.750,-0.890 0.756,-0.894 0.769,-0.900 0.776,-0.904 0.780,-0.907 0.795,-0.915 0.796,-0.916 0.810,-0.923 0.815,-0.925 0.826,-0.930 0.834,-0.936 0.840,-0.939 0.854,-0.946 0.857,-0.947 0.870,-0.953 0.875,-0.955 0.891,-0.960 0.896,-0.964 0.900,-0.966 0.912,-0.972 0.916,-0.974 0.930,-0.980 0.938,-0.982 0.958,-0.988 0.960,-0.989 0.961,-0.989 0.973,-0.990 0.965,-0.995 0.960,-1.001 0.955,-1.015 0.953,-1.020 0.934,-1.024 0.930,-1.025 0.922,-1.028 0.912,-1.032 0.900,-1.036 0.890,-1.040 0.871,-1.049 0.870,-1.050 0.870,-1.050 0.869,-1.050 0.846,-1.056 0.840,-1.058 0.828,-1.062 0.823,-1.063 0.810,-1.067 0.800,-1.070 0.785,-1.075 0.780,-1.077 0.778,-1.078 0.771,-1.080 0.754,-1.084 0.750,-1.084 0.744,-1.086 0.729,-1.089 0.720,-1.091 0.706,-1.094 0.704,-1.094 0.690,-1.097 0.680,-1.100 0.668,-1.102 0.660,-1.103 0.654,-1.104 0.632,-1.108 0.630,-1.108 0.629,-1.109 0.620,-1.110 0.602,-1.112" />
<polyline points="1.470,0.824 1.480,0.830 1.491,0.840 1.494,0.846 1.500,0.870 1.500,0.870 1.500,0.870 1.492,0.892 1.491,0.900 1.483,0.913 1.478,0.922 1.474,0.930 1.472,0.932 1.470,0.934 1.456,0.946 1.444,0.960 1.442,0.962 1.440,0.963 1.431,0.969 1.423,0.973 1.410,0.983 1.406,0.986 1.399,0.990 1.386,0.996 1.380,0.998 1.367,1.003 1.364,1.004 1.350,1.010 1.342,1.012 1.320,1.020 1.320,1.020 1.320,1.020 1.319,1.020 1.294,1.024 1.290,1.025 1.284,1.026 1.267,1.027 1.260,1.028 1.251,1.029 1.239,1.029 1.230,1.030 1.219,1.031 1.210,1.030 1.200,1.031 1.190,1.030 1.180,1.030 1.170,1.029 1.161,1.029 1.147,1.027 1.140,1.027 1.134,1.026 1.114,1.024 1.110,1.023 1.107,1.023 1.082,1.020 1.080,1.020 1.080,1.019 1.079,1.019 1.059,1.011 1.050,1.005 1.039,1.001 1.022,0.990 1.045,0.985 1.050,0.983 1.063,0.977 1.066,0.976 1.080,0.968 1.085,0.965 1.090,0.960 1.105,0.955 1.110,0.953 1.123,0.947 1.126,0.946 1.140,0.938 1.145,0.935 1.154,0.930 1.165,0.925 1.170,0.923 1.182,0.918 1.186,0.916 1.200,0.909 1.206,0.906 1.216,0.900 1.226,0.896 1.230,0.894 1.240,0.890 1.247,0.887 1.260,0.880 1.267,0.877 1.280,0.870 1.287,0.867 1.290,0.866 1.297,0.863 1.309,0.859 1.320,0.853 1.330,0.850 1.349,0.841 1.350,0.841 1.350,0.840 1.351,0.840 1.373,0.833 1.380,0.831 1.392,0.828 1.397,0.827 1.410,0.824 1.422,0.822 1.429,0.821 1.440,0.820 1.452,0.822 1.458,0.822 1.470,0.824" />
<polyline points="1.290,-1.025 1.294,-1.024 1.319,-1.020 1.320,-1.020 1.320,-1.020 1.320,-1.020 1.342,-1.012 1.350,-1.010 1.364,-1.004 1.367,-1.003 1.380,-0.998 1.386,-0.996 1.399,-0.990 1.406,-0.986 1.410,-0.983 1.423,-0.973 1.431,-0.969 1.440,-0.963 1.442,-0.962 1.444,-0.960 1.456,-0.946 1.470,-0.934 1.472,-0.932 1.474,-0.930 1.478,-0.922 1.483,-0.913 1.491,-0.900 1.492,-0.892 1.500,-0.870 1.500,-0.870 1.500,-0.870 1.494,-0.846 1.491,-0.840 1.480,-0.830 1.470,-0.824 1.458,-0.822 1.452,-0.822 1.440,-0.820 1.429,-0.821 1.422,-0.822 1.410,-0.824 1.397,-0.827 1.392,-0.828 1.380,-0.831 1.373,-0.833 1.351,-0.840 1.350,-0.840 1.350,-0.841 1.349,-0.841 1.330,-0.850 1.320,-0.853 1.309,-0.859 1.297,-0.863 1.290,-0.866 1.287,-0.867 1.280,-0.870 1.267,-0.877 1.260,-0.880 1.247,-0.887 1.240,-0.890 1.230,-0.894 1.226,-0.896 1.216,-0.900 1.206,-0.906 1.200,-0.909 1.186,-0.916 1.182,-0.918 1.170,-0.923 1.165,-0.925 1.154,-0.930 1.145,-0.935 1.140,-0.938 1.126,-0.946 1.123,-0.947 1.110,-0.953 1.105,-0.955 1.090,-0.960 1.085,-0.965 1.080,-0.968 1.066,-0.976 1.063,-0.977 1.050,-0.983 1.045,-0.985 1.022,-0.990 1.039,-1.001 1.050,-1.005 1.059,-1.011 1.079,-1.019 1.080,-1.019 1.080,-1.020 1.082,-1.020 1.107,-1.023 1.110,-1.023 1.114,-1.024 1.134,-1.026 1.140,-1.027 1.147,-1.027 1.161,-1.029 1.170,-1.029 1.180,-1.030 1.190,-1.030 1.200,-1.031 1.210,-1.030 1.219,-1.031 1.230,-1.030 1.239,-1.029 1.251,-1.029 1.260,-1.028 1.267,-1.027 1.284,-1.026 1.290,-1.025" />
</g>
</svg>