<svg xmlns="http://www.w3.org/2000/svg" width="315.6" height="100.0" viewBox="-5.0 -15.9 325.6 110.0">
<g fill="none" stroke="black" stroke-width="0.2950%" transform="translate(0, 78.2223) scale(1.6947, -1.6947)">
<polyline points="0.0,0.0 1.0,0.0 2.0,0.0 3.0,0.0 4.0,0.0 5.0,0.0 6.0,0.0 7.0,0.0 8.0,0.0 9.0,0.1 10.0,0.1 11.0,0.1 12.0,0.2 13.0,0.2 14.0,0.3 15.0,0.4 16.0,0.5 17.0,0.7 18.0,0.9 18.9,1.1 19.9,1.3 20.9,1.6 21.8,1.9 22.7,2.3 23.6,2.7 24.5,3.2 25.4,3.7 26.2,4.3 27.0,4.9 27.7,5.6 28.4,6.4 28.9,7.2 29.5,8.0 29.9,8.9 30.2,9.9 30.4,10.8 30.5,11.8 30.5,12.8 30.3,13.8 30.0,14.8 29.6,15.7 29.0,16.5 28.3,17.2 27.5,17.8 26.6,18.2 25.7,18.5 24.7,18.6 23.7,18.4 22.7,18.1 21.9,17.5 21.2,16.8 20.7,16.0 20.4,15.0 20.4,14.0 20.6,13.0 21.1,12.2 21.9,11.5 22.8,11.0 23.7,10.9 24.7,11.0 25.6,11.5 26.3,12.3 26.7,13.2 26.7,14.2 26.4,15.1 25.7,15.9 24.8,16.3 23.8,16.4 22.9,16.0 22.2,15.3 21.8,14.3 22.0,13.4 22.5,12.5 23.4,12.0 24.4,12.0 25.3,12.4 25.8,13.3 25.9,14.3 25.4,15.2 24.6,15.7 23.6,15.7 22.8,15.1 22.4,14.2 22.6,13.2 23.3,12.5 24.3,12.4 25.1,12.9 25.5,13.8 25.3,14.8 24.5,15.4 23.5,15.3 22.8,14.6 22.7,13.6 23.3,12.8 24.2,12.6 25.1,13.2 25.3,14.1 24.8,15.0 23.8,15.2 23.0,14.7 22.8,13.7 23.5,12.9 24.5,12.9 25.1,13.6 25.0,14.6 24.1,15.1 23.2,14.7 22.9,13.7 23.6,13.0 24.6,13.0 25.1,13.9 24.7,14.8 23.7,14.9 23.0,14.2 23.4,13.2 24.3,13.0 25.0,13.8 24.7,14.7 23.7,14.9 23.1,14.1 23.5,13.2 24.5,13.2 24.9,14.1 24.3,14.8 23.3,14.5 23.2,13.5 24.1,13.1 24.9,13.8 24.5,14.7 23.5,14.7 23.2,13.7 24.0,13.1 24.8,13.7 24.5,14.7 23.5,14.6 23.3,13.6 24.2,13.2 24.8,14.0 24.2,14.7 23.3,14.3 23.6,13.3 24.6,13.4 24.7,14.4 23.7,14.7 23.3,13.8 24.1,13.2 24.8,14.0 24.1,14.7 23.3,14.1 23.8,13.3 24.7,13.7 24.4,14.6 23.4,14.3 23.6,13.4 24.6,13.6 24.5,14.5 23.5,14.4 23.6,13.4 24.6,13.5 24.5,14.5 23.5,14.4 23.6,13.4 24.6,13.6 24.4,14.6 23.4,14.3 23.8,13.3 24.7,13.8 24.2,14.6 23.4,14.0 24.0,13.3 24.7,14.0 23.9,14.6 23.4,13.7 24.3,13.4 24.6,14.4 23.6,14.4 23.6,13.4 24.6,13.7 24.2,14.6 23.4,14.1 24.1,13.3 24.7,14.1 23.8,14.6 23.5,13.6 24.5,13.5 24.4,14.5 23.4,14.2 24.0,13.3 24.7,14.0 23.8,14.6 23.5,13.6 24.5,13.5 24.4,14.5 23.4,14.2 24.0,13.3 24.7,14.1 23.8,14.6 23.5,13.6 24.5,13.6 24.3,14.5 23.4,14.1 24.1,13.3 24.6,14.2 23.7,14.5 23.6,13.5 24.6,13.7 24.2,14.6 23.4,14.0 24.2,13.4 24.6,14.3 23.6,14.5 23.7,13.5 24.6,13.7 24.1,14.6 23.4,13.9 24.2,13.4 24.6,14.3 23.6,14.4 23.7,13.4 24.6,13.7 24.1,14.6 23.4,13.9 24.2,13.3 24.6,14.2 23.7,14.5 23.6,13.5 24.6,13.6 24.3,14.6 23.4,14.1 24.0,13.3 24.7,14.0 23.9,14.6 23.4,13.8 24.3,13.4 24.6,14.3 23.6,14.5 23.5,13.5 24.5,13.5 24.4,14.5 23.5,14.3 23.7,13.4 24.6,13.7 24.3,14.6 23.4,14.3 23.8,13.3 24.7,13.7 24.3,14.6 23.4,14.3 23.7,13.3 24.7,13.6 24.5,14.6 23.5,14.4 23.5,13.4 24.5,13.4 24.7,14.4 23.7,14.7 23.3,13.8 24.1,13.2 24.8,13.9 24.3,14.7 23.3,14.4 23.5,13.4 24.5,13.3 24.8,14.2 24.1,14.8 23.2,14.3 23.5,13.3 24.5,13.2 24.9,14.1 24.2,14.9 23.3,14.5 23.2,13.5 24.1,13.0 24.9,13.6 24.8,14.6 23.8,14.9 23.1,14.3 23.2,13.3 24.2,12.9 25.0,13.5 25.0,14.5 24.2,15.1 23.3,14.8 22.8,13.9 23.3,13.0 24.2,12.7 25.1,13.2 25.3,14.2 24.8,15.1 23.9,15.4 23.0,15.0 22.5,14.1 22.7,13.1 23.5,12.4 24.5,12.3 25.4,12.8 25.9,13.7 25.9,14.7 25.4,15.5 24.5,16.1 23.5,16.2 22.6,15.9 21.8,15.3 21.3,14.4 21.1,13.4 21.3,12.4 21.7,11.5 22.3,10.7 23.1,10.1 24.0,9.6 24.9,9.3 25.9,9.1 26.9,9.0 27.9,8.9 28.9,8.9 29.9,8.9 30.9,8.9 31.9,8.8 32.9,8.6 33.8,8.3 34.7,7.9 35.5,7.3 36.2,6.5 36.6,5.6 36.8,4.7 36.6,3.7 36.2,2.8 35.4,2.2 34.4,1.9 33.5,2.1 32.7,2.7 32.3,3.6 32.5,4.6 33.2,5.3 34.1,5.5 35.0,5.0 35.4,4.1 35.1,3.2 34.2,2.7 33.3,3.0 32.9,3.9 33.3,4.8 34.3,5.1 35.0,4.4 34.9,3.4 34.0,3.0 33.2,3.6 33.3,4.5 34.2,4.9 34.9,4.1 34.5,3.2 33.5,3.3 33.3,4.3 34.2,4.8 34.8,4.0 34.2,3.2 33.3,3.7 33.7,4.6 34.7,4.4 34.4,3.4 33.4,3.6 33.7,4.6 34.6,4.3 34.3,3.4 33.4,3.9 34.0,4.6 34.7,3.8 33.7,3.4 33.6,4.4 34.6,4.2 34.1,3.4 33.5,4.2 34.5,4.4 34.2,3.4 33.5,4.1 34.4,4.4 34.2,3.4 33.5,4.2 34.5,4.2 33.9,3.4 33.7,4.4 34.6,3.9 33.6,3.7 34.2,4.5 34.3,3.5 33.6,4.2 34.6,4.1 33.7,3.6 34.2,4.5 34.2,3.5 33.7,4.4 34.5,3.8 33.5,4.0 34.5,4.2 33.7,3.7 34.3,4.4 33.9,3.5 34.1,4.5 34.1,3.5 33.9,4.5 34.2,3.5 33.8,4.4 34.3,3.6 33.7,4.4 34.3,3.6 33.8,4.4 34.3,3.5 33.8,4.4 34.2,3.5 34.0,4.5 34.0,3.5 34.2,4.5 33.8,3.6 34.4,4.3 33.6,3.8 34.5,4.0 33.6,4.2 34.4,3.6 33.9,4.5 34.0,3.5 34.3,4.4 33.6,3.8 34.6,3.9 33.7,4.3 34.1,3.5 34.3,4.5 33.6,3.7 34.6,3.8 33.7,4.4 33.9,3.4 34.5,4.3 33.5,4.1 34.3,3.5 34.2,4.5 33.5,3.8 34.5,3.7 34.0,4.5 33.6,3.6 34.6,3.8 33.9,4.5 33.6,3.6 34.6,3.8 33.9,4.5 33.6,3.6 34.6,3.7 34.0,4.6 33.5,3.7 34.5,3.6 34.3,4.5 33.4,4.0 34.2,3.4 34.6,4.3 33.6,4.4 33.8,3.4 34.7,3.8 34.0,4.6 33.4,3.8 34.3,3.4 34.6,4.4 33.6,4.4 33.6,3.5 34.6,3.7 34.3,4.6 33.4,4.2 33.9,3.3 34.7,3.9 34.1,4.7 33.3,4.0 34.1,3.3 34.7,4.0 34.0,4.7 33.3,3.9 34.1,3.3 34.7,4.0 34.0,4.7 33.3,4.0 34.0,3.3 34.8,3.9 34.1,4.7 33.3,4.1 33.9,3.3 34.7,3.8 34.3,4.7 33.4,4.3 33.6,3.4 34.6,3.5 34.5,4.5 33.5,4.5 33.4,3.5 34.4,3.3 34.7,4.3 33.8,4.7 33.3,3.8 34.1,3.2 34.8,4.0 34.1,4.7 33.3,4.1 33.8,3.3 34.7,3.7 34.4,4.6 33.4,4.4 33.6,3.4 34.6,3.5 34.5,4.5 33.5,4.5 33.5,3.5 34.5,3.4 34.6,4.4 33.7,4.6 33.4,3.6 34.4,3.4 34.6,4.3 33.7,4.6 33.4,3.6 34.4,3.4 34.6,4.4 33.6,4.5 33.5,3.5 34.5,3.5 34.4,4.5 33.5,4.3 33.8,3.4 34.7,3.8 34.1,4.6 33.4,3.9 34.2,3.4 34.6,4.3 33.6,4.5 33.7,3.5 34.6,3.8 34.1,4.6 33.4,3.8 34.4,3.5 34.4,4.5 33.5,4.1 34.1,3.4 34.5,4.3 33.5,4.3 34.0,3.4 34.6,4.2 33.6,4.3 34.0,3.4 34.5,4.3 33.5,4.2 34.1,3.4 34.4,4.4 33.5,4.0 34.4,3.6 34.1,4.5 33.6,3.6 34.6,3.9 33.7,4.4 34.1,3.5 34.3,4.4 33.5,3.8 34.5,3.9 33.7,4.3 34.2,3.5 34.1,4.5 33.7,3.6 34.5,4.2 33.5,3.9 34.5,3.9 33.6,4.2 34.4,3.6 33.8,4.4 34.2,3.5 33.9,4.5 34.1,3.5 34.0,4.5 34.1,3.5 34.0,4.5 34.1,3.5 33.9,4.5 34.2,3.5 33.7,4.4 34.4,3.6 33.6,4.2 34.5,3.9 33.5,3.8 34.4,4.3 33.8,3.5 34.0,4.5 34.4,3.6 33.5,4.1 34.5,4.2 33.8,3.5 33.9,4.5 34.5,3.7 33.5,3.8 34.2,4.5 34.4,3.5 33.5,3.9 34.3,4.5 34.4,3.5 33.5,3.8 34.0,4.6 34.6,3.8 33.7,3.4 33.6,4.4 34.6,4.4 34.4,3.4 33.4,3.6 33.6,4.6 34.6,4.5 34.6,3.5 33.6,3.3 33.2,4.2 34.0,4.8 34.9,4.3 34.7,3.3 33.8,3.0 33.0,3.7 33.2,4.7 34.1,5.1 35.0,4.8 35.4,3.8 35.0,2.9 34.1,2.4 33.1,2.6 32.4,3.3 32.0,4.2 32.2,5.2 32.6,6.1 33.4,6.7 34.3,7.2 35.3,7.4 36.3,7.5 37.3,7.5 38.3,7.5 39.3,7.6 40.3,7.7 41.2,8.0 42.1,8.5 42.7,9.3 43.1,10.2 43.0,11.2 42.5,12.1 41.6,12.5 40.6,12.4 39.9,11.7 39.9,10.7 40.7,10.0 41.7,10.1 42.2,11.0 41.7,11.8 40.7,11.8 40.3,10.9 40.9,10.2 41.8,10.7 41.6,11.6 40.6,11.6 40.6,10.6 41.6,10.5 41.6,11.5 40.6,11.5 40.8,10.5 41.7,10.9 41.1,11.6 40.6,10.8 41.6,10.7 41.2,11.6 40.6,10.8 41.6,10.8 41.0,11.6 40.8,10.6 41.6,11.2 40.6,11.2 41.4,10.6 41.1,11.5 40.9,10.6 41.5,11.4 40.7,10.8 41.6,11.1 40.6,11.0 41.6,11.0 40.6,11.1 41.6,10.9 40.6,11.1 41.6,11.0 40.6,11.0 41.6,11.2 40.7,10.7 41.4,11.5 41.1,10.5 40.9,11.5 41.6,10.8 40.6,11.0 41.5,11.4 41.1,10.5 40.7,11.4 41.7,11.1 40.8,10.5 40.9,11.5 41.7,11.0 40.8,10.5 40.7,11.5 41.7,11.3 41.2,10.4 40.5,11.1 41.3,11.7 41.8,10.8 40.9,10.4 40.4,11.3 41.3,11.8 41.9,11.0 41.2,10.2 40.4,10.7 40.6,11.7 41.6,11.8 42.1,11.0 41.5,10.1 40.5,10.2 40.0,11.0 40.4,12.0 41.4,12.2 42.2,11.7 42.5,10.7 42.0,9.8 41.1,9.4 40.1,9.7 39.4,10.4 39.1,11.3 39.3,12.3 39.9,13.1 40.7,13.7 41.7,14.0 42.7,14.0 43.7,13.8 44.6,13.4 45.5,12.9 46.3,12.4 47.1,11.8 48.0,11.3 48.8,10.8 49.8,10.4 50.7,10.1 51.7,10.0 52.7,10.2 53.6,10.6 54.3,11.4 54.7,12.3 54.7,13.3 54.3,14.2 53.5,14.8 52.5,14.9 51.6,14.4 51.1,13.6 51.2,12.6 52.0,11.9 53.0,11.9 53.7,12.5 53.8,13.5 53.1,14.2 52.1,14.2 51.5,13.4 51.8,12.4 52.7,12.1 53.5,12.7 53.5,13.7 52.6,14.1 51.7,13.5 51.9,12.6 52.9,12.3 53.5,13.0 53.0,13.9 52.0,13.8 51.8,12.8 52.7,12.3 53.4,13.0 53.0,13.9 52.0,13.7 52.0,12.7 53.0,12.5 53.3,13.4 52.5,13.9 51.9,13.1 52.5,12.4 53.3,13.0 52.8,13.9 51.9,13.4 52.3,12.5 53.3,12.8 52.9,13.8 52.0,13.5 52.3,12.5 53.2,12.8 53.0,13.8 52.0,13.5 52.3,12.5 53.2,12.9 52.9,13.8 52.0,13.4 52.4,12.5 53.3,13.0 52.7,13.8 51.9,13.2 52.6,12.5 53.3,13.2 52.6,13.8 51.9,13.1 52.7,12.5 53.3,13.3 52.4,13.8 52.0,12.9 52.9,12.5 53.2,13.5 52.3,13.8 52.0,12.8 53.0,12.5 53.2,13.5 52.3,13.8 52.0,12.8 52.9,12.5 53.3,13.5 52.3,13.8 51.9,12.9 52.8,12.4 53.3,13.3 52.6,13.9 51.9,13.2 52.4,12.4 53.3,12.8 53.1,13.8 52.1,13.7 51.9,12.7 52.8,12.4 53.4,13.2 52.9,14.0 51.9,13.7 51.9,12.7 52.8,12.3 53.5,13.0 53.2,13.9 52.2,14.0 51.6,13.2 52.1,12.3 53.1,12.2 53.7,13.0 53.3,14.0 52.4,14.3 51.6,13.7 51.4,12.7 52.1,12.0 53.1,11.9 53.9,12.5 54.1,13.5 53.6,14.4 52.7,14.8 51.7,14.7 50.9,14.1 50.6,13.1 50.6,12.1 51.1,11.3 51.9,10.6 52.8,10.2 53.8,10.1 54.8,10.3 55.7,10.6 56.6,11.0 57.5,11.5 58.3,12.0 59.2,12.5 60.1,13.0 61.0,13.3 62.0,13.5 63.0,13.4 64.0,13.1 64.7,12.4 65.2,11.5 65.2,10.5 64.7,9.7 63.9,9.2 62.9,9.3 62.2,10.1 62.2,11.1 62.9,11.7 63.9,11.6 64.4,10.7 63.9,9.8 62.9,9.9 62.5,10.8 63.2,11.5 64.1,11.0 63.8,10.0 62.8,10.1 62.8,11.1 63.8,11.2 63.8,10.2 62.8,10.3 63.1,11.2 64.0,10.7 63.2,10.1 62.9,11.0 63.9,10.9 63.3,10.1 63.0,11.1 63.9,10.6 63.0,10.3 63.5,11.2 63.6,10.2 62.9,10.9 63.9,10.6 62.9,10.5 63.8,10.9 63.0,10.3 63.7,11.0 63.1,10.3 63.7,11.0 63.0,10.3 63.8,10.9 62.9,10.5 63.9,10.6 62.9,10.9 63.6,10.2 63.4,11.2 63.0,10.3 63.9,10.7 63.0,11.1 63.2,10.1 63.9,10.8 63.0,11.1 63.1,10.1 64.0,10.5 63.4,11.3 62.7,10.7 63.4,9.9 64.1,10.6 63.6,11.4 62.6,11.1 62.7,10.1 63.6,9.7 64.4,10.3 64.3,11.3 63.5,11.9 62.5,11.7 61.9,11.0 61.8,10.0 62.2,9.1 62.9,8.4 63.8,8.0 64.8,7.8 65.8,7.8 66.8,7.8 67.8,7.7 68.8,7.5 69.7,7.1 70.4,6.4 70.8,5.5 70.6,4.5 69.9,3.8 69.0,3.7 68.2,4.4 68.2,5.4 69.1,5.9 69.9,5.3 69.8,4.3 68.8,4.2 68.5,5.2 69.4,5.6 69.8,4.6 68.8,4.4 68.8,5.4 69.7,5.1 69.1,4.3 68.7,5.2 69.7,5.1 69.0,4.4 69.0,5.4 69.6,4.6 68.6,4.9 69.6,5.1 68.8,4.5 69.4,5.3 69.0,4.4 69.3,5.4 69.0,4.4 69.4,5.4 68.9,4.5 69.6,5.2 68.7,4.8 69.7,4.8 68.8,5.3 69.2,4.4 69.5,5.3 68.6,4.9 69.5,4.4 69.4,5.4 68.6,5.0 69.3,4.3 69.7,5.2 68.8,5.5 68.6,4.5 69.6,4.3 69.9,5.3 68.9,5.7 68.3,4.9 68.8,4.1 69.8,4.1 70.3,5.0 69.9,5.9 68.9,6.2 68.0,5.8 67.5,4.9 67.7,3.9 68.2,3.0 69.1,2.5 70.0,2.3 71.0,2.2 72.0,2.3 73.0,2.5 74.0,2.6 75.0,2.7 76.0,2.5 76.9,2.0 77.6,1.3 77.8,0.3 77.6,-0.6 76.9,-1.3 75.9,-1.3 75.1,-0.6 75.2,0.4 76.0,0.9 76.9,0.5 77.0,-0.5 76.1,-0.9 75.4,-0.2 75.9,0.7 76.8,0.3 76.5,-0.7 75.6,-0.4 75.9,0.5 76.8,0.1 76.2,-0.7 75.6,0.1 76.5,0.4 76.4,-0.6 75.6,-0.0 76.5,0.4 76.3,-0.6 75.7,0.2 76.7,0.1 75.9,-0.5 76.1,0.5 76.5,-0.5 75.7,0.1 76.7,0.0 75.7,-0.3 76.5,0.3 76.0,-0.5 76.3,0.4 76.1,-0.6 76.1,0.4 76.2,-0.6 76.1,0.4 76.2,-0.6 76.2,0.4 76.0,-0.6 76.4,0.4 75.8,-0.4 76.6,0.2 75.7,-0.1 76.6,-0.2 75.8,0.3 76.3,-0.6 76.3,0.4 75.7,-0.4 76.7,-0.1 75.8,0.3 76.2,-0.6 76.5,0.3 75.6,-0.1 76.5,-0.5 76.3,0.5 75.6,-0.3 76.6,-0.4 76.2,0.5 75.6,-0.3 76.6,-0.4 76.3,0.5 75.6,-0.2 76.5,-0.5 76.5,0.5 75.6,0.1 76.2,-0.7 76.8,0.1 75.8,0.5 75.7,-0.5 76.7,-0.4 76.4,0.5 75.5,0.1 76.1,-0.7 76.8,-0.1 76.1,0.6 75.5,-0.2 76.3,-0.7 76.8,0.1 75.9,0.6 75.5,-0.3 76.4,-0.7 76.8,0.2 75.9,0.6 75.5,-0.3 76.4,-0.7 76.8,0.1 76.0,0.6 75.5,-0.2 76.3,-0.8 76.9,0.0 76.1,0.7 75.4,-0.1 76.2,-0.8 76.9,-0.1 76.2,0.7 75.4,0.0 76.1,-0.8 76.9,-0.2 76.3,0.6 75.5,0.0 76.1,-0.8 76.9,-0.2 76.2,0.6 75.5,-0.0 76.2,-0.7 76.8,-0.0 76.0,0.6 75.5,-0.3 76.4,-0.7 76.7,0.3 75.7,0.4 75.8,-0.6 76.8,-0.3 76.2,0.6 75.5,-0.2 76.4,-0.6 76.6,0.4 75.6,0.2 76.2,-0.7 76.7,0.2 75.7,0.3 76.1,-0.6 76.7,0.1 75.7,0.3 76.1,-0.6 76.6,0.3 75.6,0.1 76.4,-0.6 76.3,0.4 75.7,-0.3 76.7,-0.2 75.8,0.3 76.2,-0.6 76.4,0.4 75.7,-0.3 76.7,-0.0 75.7,0.1 76.5,-0.4 75.9,0.4 76.3,-0.6 76.1,0.4 76.1,-0.6 76.3,0.4 76.1,-0.6 76.3,0.4 76.1,-0.6 76.1,0.4 76.3,-0.6 75.9,0.4 76.6,-0.4 75.7,0.1 76.7,0.0 75.8,-0.4 76.3,0.4 76.4,-0.5 75.7,0.1 76.7,0.2 76.0,-0.6 75.8,0.3 76.7,0.1 76.0,-0.7 75.6,0.3 76.6,0.3 76.5,-0.6 75.5,-0.3 75.9,0.6 76.9,0.2 76.5,-0.8 75.5,-0.5 75.5,0.5 76.4,0.8 77.1,0.1 76.8,-0.9 75.8,-1.1 75.0,-0.6 74.9,0.4 75.4,1.3 76.4,1.6 77.4,1.5 78.2,0.9 78.8,0.1 79.1,-0.8 79.3,-1.8 79.5,-2.8 79.7,-3.8 80.0,-4.7 80.6,-5.6 81.4,-6.2 82.3,-6.4 83.3,-6.1 83.9,-5.3 83.8,-4.3 83.0,-3.7 82.0,-4.1 81.8,-5.0 82.6,-5.6 83.4,-5.0 83.0,-4.1 82.1,-4.5 82.4,-5.4 83.3,-4.9 82.6,-4.2 82.1,-5.0 83.1,-5.1 82.7,-4.2 82.3,-5.2 83.2,-4.8 82.2,-4.5 82.9,-5.2 82.6,-4.3 82.6,-5.3 82.8,-4.3 82.5,-5.2 82.8,-4.3 82.6,-5.3 82.6,-4.3 83.0,-5.2 82.2,-4.6 83.2,-4.6 82.4,-5.3 82.4,-4.3 83.3,-4.8 82.4,-5.3 82.3,-4.3 83.2,-4.4 83.0,-5.4 82.0,-5.2 82.1,-4.2 83.1,-4.0 83.6,-4.9 83.1,-5.8 82.1,-5.8 81.4,-5.1 81.3,-4.1 81.8,-3.2 82.6,-2.6 83.6,-2.4 84.6,-2.3 85.6,-2.3 86.6,-2.2 87.5,-2.0 88.4,-1.5 89.0,-0.7 89.1,0.3 88.5,1.1 87.5,1.3 86.8,0.6 87.0,-0.4 88.0,-0.5 88.4,0.4 87.6,0.9 87.1,0.0 88.0,-0.4 88.1,0.6 87.2,0.4 87.8,-0.4 88.0,0.6 87.2,0.1 88.2,-0.0 87.4,0.6 87.8,-0.3 87.7,0.7 87.6,-0.3 87.8,0.7 87.7,-0.3 87.6,0.7 88.0,-0.2 87.2,0.4 88.2,0.3 87.4,-0.3 87.5,0.7 88.3,0.1 87.3,-0.3 87.3,0.7 88.3,0.5 88.0,-0.5 87.0,-0.1 87.2,0.8 88.2,0.9 88.6,0.0 88.1,-0.8 87.1,-0.8 86.4,-0.1 86.3,0.9 86.8,1.8 87.6,2.3 88.6,2.6 89.6,2.7 90.6,2.6 91.6,2.6 92.6,2.7 93.5,3.1 94.2,3.8 94.5,4.7 94.2,5.7 93.4,6.2 92.4,5.9 92.1,4.9 92.8,4.2 93.8,4.6 93.6,5.6 92.6,5.6 92.6,4.6 93.6,4.6 93.4,5.6 92.5,5.1 93.3,4.5 93.4,5.5 92.5,5.0 93.5,4.7 93.0,5.6 92.9,4.6 93.5,5.4 92.6,4.9 93.6,5.1 92.6,5.1 93.6,5.0 92.6,5.1 93.6,5.1 92.6,4.9 93.5,5.4 92.8,4.6 93.0,5.6 93.4,4.7 92.5,5.1 93.5,5.4 93.1,4.5 92.6,5.3 93.6,5.4 93.2,4.5 92.4,5.1 93.2,5.7 93.7,4.8 92.8,4.4 92.4,5.3 93.2,5.8 93.9,5.2 93.4,4.3 92.5,4.4 92.1,5.3 92.8,6.1 93.8,6.0 94.3,5.2 94.1,4.2 93.3,3.6 92.3,3.6 91.5,4.2 91.0,5.0 91.0,6.0 91.3,7.0 91.9,7.8 92.6,8.5 93.4,9.0 94.3,9.5 95.2,10.0 96.1,10.5 96.9,11.1 97.6,11.8 98.1,12.6 98.4,13.6 98.3,14.6 97.8,15.5 97.0,16.1 96.0,16.2 95.1,15.8 94.6,14.9 94.8,13.9 95.5,13.3 96.5,13.3 97.2,14.1 97.0,15.1 96.2,15.6 95.3,15.2 95.1,14.2 95.9,13.5 96.8,13.9 96.9,14.9 96.0,15.4 95.2,14.8 95.5,13.8 96.5,13.8 96.9,14.7 96.0,15.3 95.3,14.6 95.8,13.8 96.7,14.1 96.6,15.1 95.6,15.0 95.5,14.1 96.4,13.9 96.7,14.8 95.8,15.2 95.4,14.2 96.3,13.8 96.7,14.7 95.8,15.2 95.4,14.3 96.3,13.8 96.7,14.7 95.8,15.1 95.4,14.2 96.4,13.9 96.7,14.8 95.7,15.1 95.5,14.1 96.5,13.9 96.6,14.9 95.6,15.0 95.5,14.1 96.5,13.9 96.6,14.9 95.6,15.1 95.5,14.1 96.5,13.9 96.7,14.8 95.8,15.2 95.4,14.3 96.2,13.7 96.8,14.5 96.2,15.3 95.3,14.7 95.7,13.8 96.7,13.9 96.8,14.9 95.9,15.3 95.2,14.6 95.7,13.7 96.7,13.8 97.0,14.7 96.3,15.4 95.3,15.2 95.1,14.2 95.7,13.5 96.7,13.6 97.3,14.4 97.0,15.4 96.1,15.8 95.1,15.5 94.6,14.7 94.7,13.7 95.3,12.9 96.3,12.6 97.2,12.8 98.1,13.4 98.6,14.2 98.8,15.2 98.8,16.2 98.6,17.1 98.3,18.1 97.9,19.0 97.5,19.9 97.1,20.9 96.9,21.8 96.9,22.8 97.2,23.8 97.7,24.6 98.6,25.1 99.6,25.2 100.4,24.6 100.8,23.7 100.4,22.8 99.5,22.4 98.6,22.9 98.6,23.9 99.4,24.4 100.3,23.9 100.0,22.9 99.0,22.9 98.9,23.9 99.8,24.1 100.0,23.1 99.0,23.1 99.2,24.1 100.1,23.6 99.3,23.0 99.1,24.0 100.0,23.5 99.1,23.2 99.5,24.0 99.7,23.1 99.1,23.8 100.0,23.4 99.0,23.5 100.0,23.6 99.0,23.4 100.0,23.6 99.0,23.5 100.0,23.4 99.1,23.8 99.7,23.1 99.6,24.0 99.0,23.2 100.0,23.4 99.3,24.1 99.1,23.1 100.1,23.3 99.5,24.2 98.8,23.5 99.5,22.8 100.3,23.4 99.8,24.3 98.8,24.2 98.5,23.2 99.1,22.4 100.1,22.4 100.9,23.0 101.2,23.9 101.1,24.9 100.6,25.8 100.0,26.6 99.3,27.4 98.7,28.2 98.3,29.1 98.2,30.1 98.6,31.0 99.5,31.5 100.5,31.3 100.9,30.4 100.3,29.5 99.4,29.8 99.3,30.8 100.3,30.9 100.4,29.9 99.4,30.0 99.8,30.9 100.4,30.1 99.4,30.1 100.1,30.8 100.0,29.8 99.6,30.7 100.3,30.0 99.5,30.6 100.4,30.1 99.6,30.7 100.2,29.9 99.9,30.8 99.7,29.9 100.5,30.5 99.5,30.7 99.8,29.7 100.5,30.4 99.7,30.9 99.3,30.0 100.2,29.6 100.8,30.4 100.3,31.2 99.3,31.2 98.7,30.4 98.8,29.4 99.5,28.6 100.4,28.2 101.4,28.1 102.4,28.1 103.4,28.1 104.4,27.9 105.2,27.3 105.7,26.4 105.5,25.4 104.7,24.9 103.8,25.3 103.7,26.3 104.7,26.6 105.1,25.7 104.2,25.3 104.0,26.3 105.0,26.1 104.3,25.3 104.1,26.3 104.9,25.7 103.9,25.8 104.9,26.2 104.1,25.5 104.8,26.2 104.0,25.6 104.9,26.1 103.9,25.9 104.8,25.6 104.4,26.4 104.0,25.5 105.0,25.7 104.4,26.5 103.8,25.7 104.6,25.2 105.2,26.0 104.5,26.7 103.6,26.3 103.5,25.3 104.2,24.6 105.2,24.6 106.0,25.2 106.6,26.0 106.9,27.0 107.0,28.0 107.2,28.9 107.5,29.9 108.1,30.7 109.0,31.1 110.0,30.9 110.6,30.1 110.3,29.1 109.3,29.0 108.8,29.8 109.5,30.5 110.2,29.8 109.4,29.1 109.0,30.0 110.0,30.1 109.6,29.2 109.1,30.1 110.1,29.7 109.1,29.5 109.9,30.2 109.3,29.3 109.7,30.2 109.4,29.3 109.8,30.2 109.2,29.4 110.0,30.0 109.0,29.9 109.9,29.3 109.6,30.3 109.0,29.5 110.0,29.4 109.8,30.4 108.9,29.9 109.5,29.1 110.3,29.7 109.8,30.5 108.8,30.3 108.7,29.3 109.6,28.7 110.5,29.1 110.9,30.0 110.6,30.9 109.8,31.6 108.8,31.8 107.8,31.7 106.9,31.3 106.0,30.9 105.1,30.5 104.1,30.2 103.1,30.1 102.2,30.4 101.4,31.1 101.2,32.1 101.6,33.0 102.6,33.3 103.4,32.8 103.4,31.8 102.5,31.3 101.8,32.0 102.3,32.9 103.2,32.6 102.9,31.6 102.0,31.9 102.4,32.8 103.2,32.2 102.3,31.7 102.2,32.6 103.1,32.3 102.3,31.7 102.4,32.7 103.1,32.0 102.1,32.1 103.0,32.6 102.4,31.7 102.5,32.7 102.8,31.8 102.2,32.6 103.0,31.9 102.2,32.5 103.0,32.0 102.2,32.5 103.0,31.9 102.2,32.6 102.8,31.8 102.5,32.7 102.5,31.7 102.9,32.6 102.1,31.9 103.1,32.2 102.2,32.5 102.7,31.7 102.8,32.7 102.1,32.0 103.1,32.0 102.5,32.7 102.2,31.8 103.2,32.2 102.3,32.7 102.3,31.7 103.2,32.1 102.4,32.8 102.1,31.8 103.1,31.9 102.7,32.8 102.0,32.1 102.8,31.6 103.1,32.6 102.1,32.7 102.2,31.7 103.2,31.9 102.8,32.8 101.9,32.4 102.5,31.5 103.3,32.1 102.6,32.9 101.9,32.2 102.6,31.5 103.3,32.2 102.6,32.9 101.9,32.2 102.5,31.5 103.3,32.1 102.7,32.9 101.9,32.3 102.4,31.5 103.3,32.0 102.8,32.9 101.9,32.4 102.4,31.5 103.3,32.0 102.8,32.9 101.9,32.4 102.5,31.5 103.3,32.1 102.6,32.9 101.9,32.2 102.7,31.5 103.2,32.4 102.3,32.8 102.1,31.8 103.1,31.8 102.9,32.8 102.0,32.3 102.7,31.6 103.1,32.5 102.1,32.6 102.4,31.6 103.2,32.3 102.2,32.6 102.4,31.7 103.1,32.4 102.1,32.5 102.6,31.7 102.9,32.6 102.0,32.2 103.0,31.9 102.4,32.7 102.4,31.7 103.0,32.5 102.1,32.1 103.1,32.1 102.1,32.5 102.9,31.8 102.3,32.6 102.8,31.7 102.4,32.7 102.7,31.7 102.4,32.7 102.9,31.8 102.2,32.6 103.0,32.0 102.1,32.2 103.1,32.4 102.3,31.8 102.6,32.7 103.0,31.8 102.0,32.2 102.9,32.7 102.8,31.7 102.0,32.3 102.9,32.8 103.1,31.8 102.1,31.8 102.2,32.8 103.2,32.6 103.1,31.6 102.1,31.5 101.7,32.4 102.4,33.2 103.4,32.9 103.7,32.0 103.3,31.1 102.3,30.7 101.4,31.0 100.6,31.6 100.2,32.5 100.0,33.5 99.9,34.5 99.9,35.5 99.7,36.5 99.4,37.4 98.7,38.2 97.7,38.5 96.8,38.2 96.3,37.4 96.6,36.4 97.6,36.2 98.2,37.0 97.6,37.8 96.7,37.3 97.2,36.4 98.0,37.0 97.2,37.7 96.9,36.7 97.9,37.0 97.1,37.5 97.3,36.6 97.6,37.5 96.9,36.8 97.8,37.3 96.9,36.9 97.8,37.3 97.0,36.8 97.6,37.5 97.4,36.6 97.0,37.5 97.9,37.1 97.1,36.6 97.0,37.5 97.9,37.4 97.6,36.4 96.7,36.7 96.8,37.7 97.8,37.9 98.4,37.2 98.3,36.2 97.5,35.6 96.5,35.4 95.6,35.7 94.7,36.1 93.8,36.6 92.9,37.0 91.9,37.1 91.0,36.8 90.4,36.0 90.6,35.0 91.6,34.6 92.3,35.3 91.7,36.2 90.9,35.7 91.4,34.9 92.0,35.7 91.1,35.9 91.5,35.0 91.8,36.0 91.1,35.3 92.0,35.6 91.0,35.5 92.0,35.6 91.0,35.3 91.8,35.9 91.5,35.0 91.1,35.9 92.1,35.6 91.4,34.9 90.9,35.8 91.8,36.2 92.3,35.3 91.6,34.6 90.6,35.0 90.3,35.9 90.8,36.8 91.6,37.3 92.6,37.5 93.6,37.5 94.6,37.6 95.6,37.8 96.4,38.3 96.8,39.3 96.4,40.2 95.4,40.4 94.8,39.7 95.4,38.9 96.3,39.4 95.6,40.2 95.1,39.3 96.1,39.3 95.4,40.1 95.5,39.1 95.9,40.0 95.2,39.2 96.0,39.9 95.3,39.2 95.7,40.1 95.7,39.1 95.1,39.9 96.1,39.8 95.6,39.0 95.0,39.8 95.9,40.2 96.3,39.3 95.5,38.7 94.7,39.2 94.6,40.2 95.3,40.9 96.3,41.1 97.2,40.9 98.1,40.5 99.0,40.0 99.9,39.6 100.9,39.5 101.8,39.9 102.3,40.8 102.0,41.7 101.0,41.9 100.5,41.0 101.3,40.4 101.9,41.2 101.0,41.6 100.9,40.6 101.8,41.1 100.9,41.5 101.3,40.6 101.3,41.6 101.0,40.6 101.5,41.5 101.1,40.6 101.3,41.6 101.4,40.6 100.8,41.4 101.8,41.2 101.1,40.5 100.8,41.5 101.8,41.4 101.5,40.5 100.6,40.7 100.7,41.7 101.7,41.9 102.3,41.2 102.1,40.2 101.3,39.6 100.3,39.6 99.4,40.0 98.6,40.7 97.9,41.4 97.2,42.1 96.4,42.7 95.4,43.0 94.5,42.7 93.8,42.0 94.0,41.0 94.8,40.5 95.7,41.0 95.4,42.0 94.4,41.9 94.5,40.9 95.4,41.1 95.0,42.0 94.3,41.3 95.3,41.0 94.9,42.0 94.6,41.0 95.4,41.6 94.4,41.5 95.4,41.2 94.5,41.7 95.3,41.1 94.5,41.7 95.4,41.3 94.4,41.4 95.4,41.7 94.7,41.0 94.8,41.9 95.4,41.1 94.4,41.2 95.0,42.0 95.4,41.1 94.5,41.0 94.5,42.0 95.5,41.8 95.3,40.8 94.3,40.9 94.2,41.9 95.2,42.3 95.9,41.6 95.6,40.6 94.6,40.3 93.8,40.8 93.5,41.8 94.0,42.7 94.8,43.2 95.8,43.3 96.7,42.9 97.5,42.3 98.1,41.5 98.6,40.6 99.0,39.7 99.4,38.7 99.8,37.9 100.4,37.1 101.2,36.4 102.1,36.0 103.1,36.0 104.0,36.4 104.6,37.2 104.7,38.1 104.2,39.0 103.3,39.3 102.4,39.0 102.0,38.0 102.5,37.1 103.5,37.0 104.2,37.7 103.9,38.7 102.9,38.9 102.3,38.2 102.7,37.3 103.7,37.3 104.0,38.3 103.2,38.8 102.4,38.2 102.9,37.3 103.8,37.6 103.7,38.6 102.7,38.6 102.6,37.6 103.5,37.4 103.9,38.3 102.9,38.7 102.5,37.8 103.4,37.3 103.9,38.2 103.0,38.7 102.5,37.8 103.4,37.4 103.8,38.3 102.9,38.7 102.6,37.7 103.5,37.4 103.8,38.3 102.9,38.6 102.6,37.7 103.5,37.4 103.8,38.3 102.9,38.7 102.5,37.7 103.4,37.3 103.9,38.2 103.1,38.8 102.4,38.0 103.0,37.3 103.9,37.7 103.7,38.7 102.7,38.6 102.4,37.7 103.3,37.1 104.0,37.8 103.8,38.7 102.8,38.9 102.2,38.1 102.6,37.2 103.6,37.0 104.3,37.7 104.2,38.7 103.4,39.3 102.4,39.1 101.8,38.4 101.7,37.4 102.3,36.5 103.2,36.1 104.2,36.1 105.1,36.5 105.8,37.1 106.4,38.0 106.7,38.9 107.0,39.9 107.3,40.8 107.6,41.8 108.0,42.7 108.7,43.5 109.5,44.0 110.5,44.2 111.4,43.9 112.1,43.1 112.1,42.1 111.4,41.4 110.4,41.5 109.9,42.3 110.4,43.2 111.4,43.1 111.6,42.1 110.6,41.7 110.2,42.6 111.1,43.0 111.4,42.0 110.4,42.1 110.8,43.0 111.4,42.2 110.4,42.2 111.0,42.9 111.0,41.9 110.5,42.8 111.3,42.2 110.4,42.5 111.4,42.4 110.4,42.4 111.4,42.4 110.4,42.6 111.2,42.0 110.8,42.9 110.6,41.9 111.4,42.5 110.4,42.8 110.7,41.8 111.5,42.4 110.8,43.1 110.1,42.3 110.8,41.6 111.7,42.1 111.6,43.1 110.7,43.5 109.8,43.1 109.3,42.3 109.3,41.3 109.8,40.3 110.3,39.5 110.9,38.7 111.5,37.9 111.7,36.9 111.4,35.9 110.7,35.3 109.7,35.4 109.2,36.3 109.9,37.1 110.8,36.6 110.4,35.7 109.5,36.2 110.3,36.9 110.5,35.9 109.6,36.3 110.5,36.6 109.9,35.9 110.3,36.8 110.0,35.8 110.3,36.8 109.8,35.9 110.6,36.5 109.6,36.5 110.3,35.8 110.5,36.8 109.5,36.6 109.9,35.7 110.8,36.0 110.7,37.0 109.7,37.3 109.0,36.6 108.8,35.6 109.3,34.7 110.0,34.0 110.8,33.4 111.6,32.8 112.2,32.0 112.4,31.0 111.9,30.1 110.9,30.0 110.3,30.7 110.9,31.6 111.7,31.0 111.1,30.3 110.6,31.1 111.6,31.1 110.8,30.4 111.1,31.4 111.2,30.4 110.9,31.3 111.1,30.4 111.2,31.4 110.7,30.5 111.6,30.8 110.9,31.4 110.6,30.4 111.6,30.4 111.7,31.4 110.7,31.7 110.0,31.0 110.2,30.0 110.9,29.3 111.9,29.0 112.9,29.0 113.9,29.0 114.8,28.8 115.7,28.2 116.0,27.3 115.5,26.4 114.5,26.4 114.2,27.4 115.2,27.7 115.3,26.7 114.3,27.0 115.1,27.6 115.0,26.6 114.6,27.5 115.2,26.8 114.5,27.5 115.1,26.7 114.9,27.6 114.6,26.7 115.5,27.1 114.6,27.7 114.4,26.7 115.4,26.6 115.6,27.5 114.8,28.1 113.9,27.6 113.6,26.7 113.8,25.7 114.4,24.9 115.1,24.2 115.8,23.5 116.2,22.6 116.2,21.6 115.5,20.8 114.5,21.0 114.2,21.9 115.0,22.4 115.5,21.6 114.6,21.2 114.7,22.2 115.4,21.6 114.4,21.6 115.3,22.1 114.6,21.3 115.2,22.1 114.6,21.4 115.4,21.9 114.4,21.9 115.2,21.2 115.2,22.2 114.3,21.9 114.9,21.0 115.7,21.6 115.2,22.5 114.2,22.4 113.8,21.5 114.1,20.6 114.9,20.0 115.9,19.8 116.9,19.8 117.9,19.9 118.9,19.7 119.8,19.3 120.3,18.4 120.1,17.4 119.2,17.0 118.4,17.6 118.8,18.5 119.7,18.2 119.3,17.3 118.6,18.0 119.5,18.4 119.3,17.4 118.8,18.2 119.7,17.8 118.7,17.9 119.6,18.0 118.7,17.8 119.7,17.9 118.7,18.1 119.5,17.5 119.2,18.4 118.7,17.6 119.7,17.7 119.2,18.5 118.5,17.8 119.4,17.2 119.9,18.1 119.2,18.8 118.3,18.3 118.3,17.3 119.1,16.7 120.1,16.9 120.8,17.6 121.1,18.5 121.0,19.5 120.7,20.5 120.4,21.4 120.1,22.4 120.1,23.4 120.4,24.4 121.1,25.1 122.1,25.2 122.9,24.7 123.1,23.7 122.3,23.1 121.4,23.5 121.5,24.5 122.5,24.6 122.7,23.6 121.7,23.4 121.7,24.4 122.6,24.2 122.1,23.4 121.6,24.3 122.6,24.2 121.9,23.5 121.9,24.5 122.5,23.7 121.6,24.0 122.5,24.2 121.7,23.6 122.4,24.4 121.9,23.5 122.3,24.4 121.9,23.5 122.3,24.4 121.8,23.6 122.5,24.3 121.6,23.8 122.6,23.9 121.6,24.2 122.3,23.5 122.2,24.5 121.7,23.6 122.6,24.0 121.7,24.4 122.0,23.4 122.6,24.2 121.6,24.2 122.1,23.4 122.6,24.3 121.6,24.3 122.0,23.4 122.7,24.1 121.8,24.5 121.6,23.5 122.6,23.6 122.3,24.6 121.4,24.1 122.1,23.3 122.7,24.0 121.9,24.6 121.4,23.8 122.3,23.3 122.7,24.2 121.8,24.6 121.4,23.7 122.3,23.3 122.7,24.2 121.8,24.6 121.4,23.7 122.3,23.3 122.8,24.2 121.9,24.6 121.4,23.8 122.3,23.3 122.7,24.2 121.9,24.6 121.4,23.7 122.3,23.3 122.7,24.3 121.7,24.5 121.6,23.5 122.6,23.5 122.4,24.5 121.5,24.2 122.0,23.3 122.7,24.1 121.8,24.5 121.7,23.5 122.6,23.8 122.0,24.5 121.6,23.6 122.6,23.8 121.9,24.5 121.8,23.5 122.6,24.0 121.7,24.3 122.2,23.4 122.3,24.4 121.6,23.7 122.6,24.0 121.6,24.2 122.4,23.6 121.9,24.4 122.2,23.5 122.0,24.5 122.1,23.5 122.0,24.5 122.2,23.5 121.9,24.4 122.4,23.6 121.6,24.2 122.6,24.0 121.6,23.7 122.2,24.5 122.3,23.5 121.5,24.0 122.4,24.4 122.3,23.4 121.4,23.9 122.2,24.6 122.7,23.8 121.9,23.3 121.3,24.0 121.9,24.8 122.9,24.4 122.9,23.4 122.2,22.8 121.2,23.0 120.6,23.8 120.5,24.8 120.9,25.7 121.5,26.5 122.3,27.1 123.1,27.8 123.8,28.5 124.3,29.3 124.4,30.3 124.0,31.2 123.1,31.6 122.2,31.2 122.1,30.2 123.0,29.7 123.6,30.5 122.9,31.2 122.3,30.4 123.2,30.0 123.2,31.0 122.4,30.4 123.4,30.3 122.6,30.9 123.0,30.0 122.9,31.0 123.0,30.0 122.8,31.0 123.2,30.1 122.4,30.7 123.4,30.7 122.8,29.9 122.5,30.9 123.5,30.9 123.3,29.9 122.3,30.0 122.2,31.0 123.1,31.5 124.0,31.1 124.4,30.2 124.2,29.2 123.7,28.3 123.1,27.5 122.6,26.6 122.3,25.7 122.6,24.7 123.3,24.1 124.3,24.3 124.5,25.3 123.6,25.7 123.2,24.8 124.1,24.6 124.0,25.6 123.3,24.8 124.3,24.9 123.4,25.3 124.1,24.7 123.4,25.4 124.2,24.9 123.3,25.0 124.1,25.5 123.9,24.5 123.1,25.1 123.9,25.7 124.5,24.9 123.9,24.2 122.9,24.4 122.5,25.3 122.7,26.3 123.3,27.1 124.0,27.8 124.7,28.5 125.2,29.4 125.1,30.4 124.3,31.1 123.4,30.8 123.4,29.8 124.4,29.7 124.2,30.7 123.4,30.2 124.3,29.8 123.8,30.7 123.9,29.7 124.0,30.7 124.0,29.7 123.6,30.6 124.5,30.0 123.5,29.8 123.8,30.8 124.6,30.3 124.1,29.4 123.2,29.7 122.9,30.7 123.5,31.5 124.5,31.9 125.5,31.9 126.5,31.9 127.4,32.1 128.3,32.7 128.5,33.6 127.9,34.4 126.9,34.2 127.1,33.2 128.1,33.4 127.5,34.2 127.2,33.3 128.0,33.8 127.0,33.7 128.0,33.6 127.0,33.6 128.0,34.0 127.3,33.2 127.2,34.2 128.1,33.8 127.6,33.0 126.7,33.5 127.1,34.5 128.1,34.7 128.8,34.0 129.2,33.1 129.2,32.1 129.2,31.1 129.3,30.1 129.8,29.3 130.8,28.9 131.6,29.5 131.4,30.5 130.4,30.4 130.5,29.4 131.4,29.9 130.6,30.4 130.8,29.4 131.1,30.4 130.6,29.5 131.1,30.4 130.8,29.4 130.7,30.4 131.4,29.7 130.4,29.6 130.7,30.5 131.6,30.1 131.2,29.2 130.2,29.3 129.8,30.1 130.1,31.1 130.8,31.7 131.8,32.1 132.8,32.3 133.7,32.6 134.5,33.3 134.8,34.2 134.3,35.1 133.3,35.2 132.9,34.2 133.8,33.8 134.2,34.7 133.2,34.7 133.6,33.9 133.9,34.8 133.2,34.2 134.1,34.5 133.1,34.4 134.1,34.5 133.2,34.1 133.8,34.9 133.8,33.9 133.1,34.5 134.0,34.9 134.1,33.9 133.1,33.9 132.9,34.9 133.8,35.3 134.7,34.8 134.8,33.8 134.2,32.9 133.3,32.4 132.3,32.2 131.4,32.2 130.4,32.0 129.5,31.6 128.8,30.8 128.7,29.8 129.4,29.1 130.4,29.2 130.7,30.1 129.8,30.7 129.2,29.9 130.1,29.4 130.4,30.3 129.4,30.2 130.1,29.4 130.1,30.4 129.5,29.7 130.4,30.0 129.4,30.0 130.4,29.8 129.4,30.1 130.4,29.9 129.4,29.8 130.3,30.3 129.8,29.4 129.6,30.4 130.4,29.9 129.5,29.5 129.6,30.5 130.5,30.1 129.9,29.3 129.2,30.0 129.8,30.7 130.7,30.2 130.4,29.2 129.4,29.1 128.8,29.9 129.1,30.9 130.1,31.3 131.0,31.0 131.6,30.2 131.7,29.2 131.5,28.2 130.9,27.4 130.2,26.7 129.4,26.1 128.5,25.5 127.8,24.9 127.1,24.2 126.6,23.3 126.4,22.3 126.5,21.4 127.2,20.6 128.1,20.2 129.1,20.5 129.6,21.3 129.5,22.3 128.7,22.8 127.7,22.6 127.4,21.7 128.0,20.8 129.0,21.0 129.3,21.9 128.6,22.6 127.7,22.2 127.8,21.2 128.8,21.0 129.2,21.9 128.4,22.5 127.7,21.8 128.2,21.0 129.1,21.5 128.7,22.4 127.8,22.1 128.1,21.1 129.0,21.4 128.8,22.3 127.8,22.1 128.1,21.1 129.0,21.4 128.8,22.3 127.8,22.1 128.1,21.1 129.0,21.4 128.7,22.4 127.8,22.0 128.1,21.1 129.0,21.4 128.8,22.3 127.8,22.2 127.9,21.2 128.9,21.1 129.1,22.1 128.1,22.5 127.6,21.6 128.3,20.9 129.2,21.4 129.0,22.4 128.0,22.6 127.5,21.7 128.0,20.9 129.0,20.9 129.5,21.7 129.1,22.6 128.2,22.9 127.3,22.4 127.0,21.5 127.4,20.6 128.2,20.0 129.2,20.0 130.1,20.4 130.8,21.2 131.2,22.1 131.4,23.1 131.4,24.1 131.4,25.1 131.5,26.1 131.6,27.1 132.0,28.0 132.7,28.7 133.6,29.1 134.6,29.0 135.3,28.3 135.4,27.3 134.6,26.6 133.7,26.9 133.4,27.8 134.3,28.4 135.0,27.7 134.4,26.9 133.6,27.5 134.3,28.2 134.8,27.3 133.8,27.3 134.3,28.1 134.6,27.2 133.7,27.6 134.7,27.8 133.9,27.2 134.5,28.0 134.0,27.1 134.5,28.0 133.9,27.2 134.7,27.8 133.7,27.7 134.6,27.2 134.4,28.1 133.7,27.4 134.6,27.1 134.7,28.1 133.7,28.1 133.6,27.1 134.6,26.7 135.3,27.4 135.1,28.4 134.3,29.0 133.4,29.1 132.4,28.9 131.5,28.4 130.6,28.0 129.6,27.7 128.7,27.8 127.9,28.5 127.8,29.5 128.7,30.1 129.5,29.5 129.1,28.6 128.2,29.0 128.9,29.8 129.2,28.9 128.3,29.2 129.2,29.5 128.5,28.8 129.0,29.7 128.5,28.8 129.2,29.5 128.3,29.1 129.3,28.9 128.8,29.8 128.2,29.0 129.1,28.6 129.5,29.5 128.8,30.1 127.8,29.7 127.5,28.8 127.8,27.8 128.5,27.0 129.2,26.4 129.8,25.6 130.2,24.6 129.9,23.7 129.0,23.2 128.2,23.8 128.6,24.7 129.5,24.3 128.9,23.6 128.6,24.5 129.5,24.0 128.5,24.0 129.4,24.3 128.5,24.0 129.5,24.1 128.6,24.5 128.9,23.6 129.5,24.3 128.7,24.8 128.2,23.9 128.9,23.2 129.9,23.5 130.4,24.4 130.4,25.4 130.2,26.3 130.0,27.3 130.2,28.3 130.8,29.0 131.8,29.0 132.2,28.1 131.4,27.6 131.0,28.5 132.0,28.5 131.4,27.7 131.4,28.7 131.7,27.8 131.3,28.7 131.5,27.7 131.8,28.7 130.9,28.1 131.8,27.7 132.1,28.6 131.1,28.9 130.5,28.1 130.9,27.2 131.8,26.7 132.7,26.6 133.7,26.6 134.7,26.4 135.6,25.9 135.8,24.9 135.1,24.2 134.2,24.6 134.7,25.5 135.4,24.8 134.4,24.6 135.0,25.4 134.8,24.4 134.9,25.4 134.7,24.4 135.3,25.3 134.3,25.0 135.1,24.3 135.5,25.3 134.5,25.6 133.9,24.8 134.3,23.9 135.2,23.5 136.2,23.5 137.2,23.7 138.2,23.8 139.1,23.6 139.8,22.8 139.5,21.8 138.5,21.7 138.3,22.7 139.3,22.7 138.9,21.8 138.5,22.8 139.3,22.1 138.4,22.5 139.3,22.1 138.5,22.8 138.9,21.8 139.3,22.7 138.3,22.7 138.5,21.7 139.5,21.9 139.7,22.9 138.9,23.6 137.9,23.6 137.0,23.2 136.2,22.6 135.3,22.1 134.4,21.9 133.4,22.3 133.1,23.3 133.9,23.9 134.7,23.4 134.1,22.6 133.5,23.4 134.5,23.4 133.8,22.7 134.1,23.7 134.0,22.7 134.1,23.7 133.8,22.7 134.5,23.4 133.5,23.4 134.1,22.6 134.6,23.4 133.8,23.9 133.2,23.0 133.8,22.2 134.8,22.3 135.5,23.0 135.8,23.9 135.8,24.9 135.7,25.9 135.8,26.9 136.3,27.8 137.2,28.2 138.1,27.8 138.3,26.9 137.3,26.5 136.9,27.3 137.8,27.7 137.8,26.7 137.0,27.2 137.9,27.5 137.3,26.7 137.6,27.7 137.5,26.7 137.6,27.7 137.3,26.7 137.9,27.5 137.0,27.2 137.8,26.7 137.7,27.7 136.9,27.2 137.6,26.5 138.3,27.2 137.6,28.0 136.7,27.6 136.6,26.6 137.3,25.9 138.3,25.9 139.1,26.4 139.7,27.2 140.1,28.1 140.5,29.0 140.8,30.0 141.4,30.8 142.3,31.3 143.3,31.3 144.1,30.6 144.1,29.6 143.3,29.0 142.4,29.5 142.6,30.5 143.6,30.5 143.6,29.5 142.6,29.6 142.9,30.5 143.7,29.9 142.8,29.5 143.0,30.5 143.6,29.7 142.6,29.8 143.5,30.3 143.0,29.5 143.1,30.4 143.3,29.5 142.9,30.4 143.3,29.5 142.9,30.4 143.3,29.5 143.1,30.4 143.0,29.5 143.5,30.3 142.7,29.7 143.7,29.9 142.8,30.3 143.2,29.4 143.5,30.4 142.6,29.9 143.5,29.5 143.3,30.5 142.6,29.8 143.5,29.5 143.4,30.5 142.5,30.0 143.3,29.4 143.7,30.3 142.7,30.4 142.8,29.4 143.8,29.7 143.3,30.6 142.5,30.0 143.1,29.3 143.8,30.0 143.1,30.6 142.4,29.9 143.2,29.2 143.8,30.0 143.0,30.6 142.4,29.9 143.2,29.2 143.8,30.0 143.1,30.7 142.4,29.9 143.2,29.2 143.8,30.0 143.1,30.6 142.5,29.8 143.3,29.3 143.8,30.2 142.9,30.5 142.6,29.6 143.6,29.5 143.5,30.5 142.5,30.1 143.1,29.3 143.7,30.1 142.7,30.4 142.9,29.4 143.7,30.0 142.8,30.4 143.0,29.4 143.6,30.2 142.6,30.2 143.4,29.5 143.3,30.5 142.7,29.6 143.6,30.0 142.6,30.1 143.5,29.6 142.8,30.3 143.4,29.5 142.9,30.4 143.3,29.5 142.9,30.4 143.5,29.6 142.7,30.2 143.6,29.9 142.7,29.7 143.4,30.4 143.2,29.4 142.6,30.2 143.6,30.2 143.2,29.3 142.5,30.1 143.5,30.5 143.7,29.6 142.8,29.3 142.4,30.2 143.1,30.8 144.0,30.4 144.1,29.4 143.5,28.7 142.5,28.6 141.6,29.0 140.9,29.7 140.4,30.6 140.0,31.5 139.5,32.4 138.8,33.1 137.9,33.4 136.9,33.2 136.3,32.4 136.7,31.5 137.7,31.4 138.0,32.3 137.1,32.7 136.8,31.8 137.8,31.7 137.4,32.7 136.9,31.8 137.8,32.2 136.8,32.3 137.8,31.9 136.9,32.3 137.8,32.0 136.8,32.0 137.7,32.5 137.4,31.5 136.8,32.4 137.8,32.6 137.8,31.6 136.8,31.5 136.5,32.4 137.1,33.2 138.1,33.2 138.9,32.6 139.5,31.8 139.9,30.9 140.4,30.0 141.2,29.4 142.2,29.3 143.0,29.9 142.8,30.9 141.8,31.0 141.7,30.0 142.7,30.1 142.1,30.9 141.9,29.9 142.6,30.6 141.7,30.2 142.6,30.6 141.8,30.0 142.3,30.9 142.5,29.9 141.6,30.3 142.2,31.1 143.0,30.4 142.5,29.5 141.5,29.5 140.8,30.2 140.5,31.2 140.5,32.2 140.4,33.2 140.0,34.1 139.2,34.7 138.2,34.4 138.2,33.4 139.1,33.2 139.2,34.2 138.3,33.7 139.2,33.4 138.6,34.2 139.0,33.2 138.5,34.1 139.3,33.4 138.3,33.6 138.9,34.3 139.4,33.4 138.5,33.0 137.8,33.7 138.1,34.7 139.0,35.2 139.9,35.4 140.9,35.5 141.9,35.8 142.6,36.5 142.5,37.5 141.6,37.9 141.1,37.0 142.0,36.7 141.9,37.7 141.3,36.9 142.2,37.3 141.2,37.1 142.2,37.4 141.5,36.7 141.5,37.7 142.4,37.2 141.8,36.4 140.9,36.9 141.0,37.9 141.8,38.6 142.7,38.7 143.7,38.7 144.7,38.8 145.6,39.4 145.8,40.3 145.1,41.0 144.3,40.4 145.0,39.7 145.3,40.6 144.4,40.3 145.4,40.2 144.5,40.4 145.4,40.3 144.5,40.0 145.0,40.9 145.5,40.0 144.6,39.7 144.1,40.5 144.7,41.3 145.7,41.5 146.6,41.1 147.5,40.6 148.4,40.2 149.4,40.3 150.1,41.0 149.8,41.9 148.8,41.9 149.0,40.9 149.8,41.4 148.9,41.7 149.6,41.0 149.1,41.8 149.6,41.0 148.8,41.6 149.8,41.7 149.3,40.8 148.6,41.5 149.3,42.2 150.2,41.8 150.4,40.8 149.9,39.9 149.2,39.2 148.4,38.6 147.8,37.8 147.7,36.8 148.4,36.0 149.3,36.3 149.2,37.3 148.3,37.1 148.9,36.3 149.1,37.3 148.4,36.5 149.2,37.0 148.4,36.5 149.1,37.2 148.9,36.3 148.3,37.1 149.3,37.2 149.2,36.2 148.2,36.2 147.8,37.1 148.3,38.0 149.2,38.4 150.2,38.4 151.2,38.2 152.2,38.3 153.1,38.7 153.6,39.6 153.2,40.5 152.2,40.4 152.1,39.4 153.1,39.5 152.7,40.4 152.2,39.5 153.1,39.8 152.1,40.0 153.1,39.6 152.1,39.9 153.1,39.9 152.2,39.4 152.6,40.4 153.2,39.6 152.2,39.3 152.1,40.3 153.0,40.5 153.6,39.7 153.1,38.8 152.2,38.5 151.2,38.7 150.4,39.3 149.7,40.0 149.0,40.7 148.1,41.2 147.1,41.2 146.3,40.5 146.3,39.5 147.2,39.0 147.9,39.7 147.3,40.5 146.5,39.8 147.4,39.3 147.5,40.3 146.6,39.8 147.6,39.6 146.9,40.3 147.3,39.4 147.1,40.4 147.3,39.4 147.0,40.3 147.5,39.5 146.7,40.0 147.7,40.1 147.0,39.3 146.8,40.3 147.8,40.0 147.2,39.2 146.5,40.0 147.3,40.6 148.0,39.9 147.4,39.0 146.4,39.3 146.2,40.3 146.9,41.0 147.9,41.0 148.6,40.3 148.9,39.4 148.6,38.4 148.0,37.6 147.3,36.9 146.4,36.4 145.5,35.9 144.7,35.4 143.9,34.8 143.3,34.0 143.0,33.0 143.1,32.0 143.7,31.2 144.6,30.9 145.6,31.2 146.1,32.0 145.8,33.0 144.9,33.4 144.0,32.9 144.0,31.9 144.9,31.4 145.7,31.9 145.5,32.9 144.5,33.0 144.1,32.1 144.9,31.5 145.7,32.1 145.1,33.0 144.2,32.6 144.5,31.7 145.5,31.9 145.3,32.9 144.3,32.8 144.4,31.8 145.4,31.8 145.3,32.8 144.4,32.7 144.4,31.7 145.4,31.9 145.3,32.9 144.3,32.7 144.5,31.7 145.4,31.8 145.4,32.8 144.4,32.8 144.3,31.8 145.3,31.7 145.6,32.6 144.7,33.0 144.1,32.2 144.7,31.5 145.6,31.9 145.5,32.9 144.6,33.2 143.9,32.4 144.3,31.5 145.3,31.3 146.0,32.1 145.8,33.1 145.0,33.6 144.0,33.4 143.4,32.6 143.3,31.6 143.7,30.7 144.5,30.1 145.5,29.8 146.5,29.7 147.4,29.8 148.4,30.0 149.4,30.2 150.4,30.2 151.4,29.9 152.2,29.4 152.7,28.5 152.7,27.5 152.0,26.8 151.0,26.8 150.4,27.7 150.9,28.5 151.9,28.4 152.0,27.4 151.0,27.3 150.9,28.3 151.9,28.1 151.4,27.2 150.9,28.1 151.9,28.0 151.1,27.4 151.4,28.3 151.5,27.3 151.1,28.3 151.6,27.4 151.2,28.3 151.3,27.3 151.6,28.3 150.8,27.6 151.8,27.5 151.4,28.4 150.7,27.7 151.6,27.2 152.1,28.1 151.3,28.7 150.4,28.2 150.3,27.2 151.0,26.4 151.9,26.1 152.9,26.1 153.9,26.3 154.9,26.4 155.9,26.2 156.6,25.5 156.7,24.5 155.9,23.9 155.1,24.4 155.4,25.3 156.3,24.8 155.6,24.2 155.4,25.1 156.2,24.5 155.2,24.7 156.2,24.8 155.2,24.7 156.2,24.6 155.4,25.1 155.6,24.1 156.3,24.8 155.5,25.3 155.0,24.4 155.8,23.8 156.7,24.2 157.1,25.1 156.9,26.1 156.6,27.0 156.2,27.9 156.1,28.9 156.6,29.8 157.6,30.0 158.2,29.2 157.5,28.5 156.9,29.3 157.9,29.5 157.3,28.6 157.3,29.6 157.6,28.7 157.4,29.6 157.3,28.7 158.0,29.4 157.0,29.5 157.1,28.5 158.1,28.7 158.2,29.7 157.5,30.4 156.5,30.4 155.5,30.2 154.6,29.8 153.6,29.8 152.7,30.3 152.6,31.3 153.6,31.8 154.0,30.9 153.0,30.7 153.5,31.6 153.6,30.6 153.2,31.5 153.6,30.6 153.5,31.6 152.9,30.8 153.9,30.7 153.8,31.7 152.8,31.7 152.4,30.8 152.7,29.8 153.4,29.2 154.2,28.6 154.9,27.8 155.1,26.8 154.4,26.1 153.5,26.4 153.8,27.4 154.6,26.7 153.6,26.5 154.4,27.2 153.8,26.4 154.5,27.1 153.5,26.8 154.4,26.3 154.5,27.3 153.5,27.3 153.2,26.3 153.9,25.6 154.8,25.3 155.8,25.3 156.8,25.2 157.7,24.8 158.0,23.8 157.2,23.1 156.5,23.8 157.3,24.4 157.3,23.4 156.7,24.2 157.5,23.6 156.8,24.2 157.2,23.3 157.5,24.3 156.5,24.1 156.8,23.1 157.8,23.2 158.3,24.1 158.1,25.1 157.6,26.0 157.1,26.8 157.0,27.8 157.5,28.7 158.5,28.6 158.6,27.6 157.6,27.7 158.1,28.5 158.3,27.5 157.8,28.4 158.4,27.6 158.0,28.5 157.8,27.6 158.7,27.9 158.1,28.7 157.3,28.2 157.4,27.2 158.3,26.7 159.3,26.6 160.3,26.7 161.3,26.7 162.2,26.3 162.5,25.3 161.7,24.6 161.0,25.3 161.8,25.9 161.9,24.9 161.1,25.6 162.1,25.3 161.1,25.5 162.0,25.0 161.5,25.9 161.2,25.0 162.2,25.0 162.0,26.0 161.0,26.1 160.4,25.3 160.5,24.3 161.1,23.4 161.7,22.6 162.1,21.7 162.1,20.7 161.4,20.0 160.5,20.3 160.6,21.3 161.5,21.1 161.0,20.3 160.7,21.2 161.5,20.6 160.5,20.9 161.5,20.7 160.6,21.2 161.2,20.3 161.4,21.3 160.4,21.0 160.9,20.1 161.8,20.6 161.6,21.6 160.7,22.0 159.8,21.6 159.1,20.9 158.6,20.0 158.0,19.2 157.3,18.5 156.3,18.4 155.5,19.0 155.6,20.0 156.6,20.1 156.8,19.2 155.8,19.1 156.2,20.0 156.7,19.2 155.7,19.6 156.7,19.6 155.8,19.3 156.7,19.6 155.7,19.6 156.7,19.2 156.2,20.0 155.8,19.1 156.8,19.2 156.4,20.1 155.5,19.7 155.9,18.8 156.9,18.8 157.4,19.6 157.0,20.6 156.2,21.1 155.2,21.2 154.2,20.9 153.2,20.6 152.3,20.3 151.3,20.3 150.3,20.6 149.7,21.4 149.8,22.4 150.7,22.9 151.6,22.5 151.4,21.5 150.4,21.4 150.3,22.4 151.3,22.4 151.1,21.5 150.3,22.0 151.1,22.5 151.0,21.5 150.4,22.3 151.4,22.0 150.4,21.7 151.2,22.4 150.6,21.5 151.0,22.5 150.7,21.5 151.0,22.5 150.6,21.6 151.2,22.4 150.4,21.8 151.4,22.0 150.4,22.3 151.0,21.5 151.0,22.5 150.4,21.8 151.4,21.8 150.7,22.5 150.5,21.6 151.4,21.9 150.7,22.6 150.3,21.6 151.3,21.6 151.0,22.6 150.2,22.0 150.9,21.4 151.5,22.2 150.6,22.6 150.3,21.6 151.2,21.4 151.4,22.4 150.4,22.5 150.3,21.5 151.3,21.5 151.4,22.5 150.4,22.5 150.3,21.5 151.3,21.4 151.4,22.4 150.4,22.5 150.3,21.6 151.3,21.5 151.3,22.5 150.3,22.5 150.4,21.5 151.4,21.7 151.1,22.6 150.2,22.1 150.9,21.4 151.4,22.2 150.4,22.5 150.6,21.5 151.4,22.0 150.6,22.5 150.6,21.5 151.4,22.1 150.4,22.4 150.9,21.5 151.2,22.4 150.3,21.9 151.3,21.8 150.5,22.4 151.1,21.5 150.8,22.5 150.8,21.5 150.9,22.5 150.8,21.5 150.8,22.5 151.0,21.5 150.5,22.4 151.3,21.8 150.3,21.9 151.2,22.4 151.0,21.5 150.3,22.2 151.3,22.4 151.2,21.4 150.2,21.8 150.6,22.7 151.5,22.4 151.4,21.4 150.5,21.1 149.8,21.8 149.8,22.8 150.5,23.5 151.4,23.8 152.4,23.7 153.4,23.5 154.4,23.3 155.3,23.2 156.3,23.5 157.0,24.3 156.9,25.3 156.1,25.8 155.3,25.3 155.5,24.4 156.5,24.6 156.1,25.5 155.4,24.8 156.4,24.7 155.8,25.4 155.9,24.4 156.1,25.4 155.8,24.5 155.9,25.5 156.2,24.5 155.4,25.1 156.4,25.3 156.1,24.3 155.3,24.9 155.8,25.7 156.7,25.4 157.0,24.5 156.4,23.6 155.5,23.2 154.5,23.1 153.5,23.0 152.6,22.6 151.9,21.9 151.9,20.9 152.8,20.4 153.5,21.2 152.7,21.8 152.4,20.9 153.3,21.1 152.5,21.6 153.1,20.8 152.5,21.6 153.2,20.9 152.3,21.2 153.2,21.6 153.1,20.6 152.2,20.9 152.3,21.9 153.3,22.1 154.1,21.6 154.5,20.6 154.7,19.7 155.0,18.7 155.6,17.9 156.6,17.8 157.2,18.5 156.6,19.3 155.9,18.6 156.9,18.3 156.4,19.2 156.4,18.2 156.6,19.2 156.6,18.2 156.1,19.0 157.0,18.9 156.6,18.0 155.7,18.5 155.9,19.4 156.7,19.9 157.7,19.9 158.7,19.6 159.7,19.5 160.6,19.9 161.0,20.8 160.3,21.5 159.6,20.8 160.5,20.3 160.2,21.3 159.9,20.3 160.4,21.2 160.1,20.3 159.8,21.2 160.8,20.9 160.2,20.1 159.3,20.6 159.5,21.6 160.3,22.2 161.2,22.5 162.2,22.7 163.0,23.2 163.3,24.2 162.7,24.9 161.9,24.3 162.6,23.7 162.7,24.7 162.1,23.9 162.8,24.5 162.2,23.8 162.3,24.8 163.1,24.1 162.2,23.6 161.6,24.4 162.1,25.3 163.0,25.6 164.0,25.6 165.0,25.7 165.9,26.1 166.2,27.1 165.5,27.7 164.8,27.0 165.7,26.6 165.4,27.6 165.3,26.6 165.5,27.6 165.5,26.6 164.9,27.3 165.9,27.5 165.9,26.5 164.9,26.2 164.2,26.9 163.9,27.9 163.9,28.8 163.6,29.8 163.0,30.6 162.0,30.5 161.8,29.5 162.8,29.4 162.4,30.3 162.0,29.4 162.7,30.1 162.0,29.4 162.4,30.3 162.7,29.4 161.8,29.5 162.0,30.5 163.0,30.5 163.6,29.7 163.7,28.7 163.5,27.7 163.5,26.7 164.0,25.8 165.0,25.6 165.5,26.5 164.6,27.0 164.5,26.0 165.3,26.6 164.3,26.5 165.3,26.4 164.3,26.2 165.1,26.9 165.2,25.9 164.2,26.1 164.3,27.1 165.3,27.3 166.1,26.8 166.6,25.9 166.8,24.9 167.3,24.0 168.1,23.4 169.1,23.6 169.2,24.6 168.3,24.9 168.3,23.9 169.1,24.4 168.1,24.5 169.0,24.1 168.1,24.5 169.1,24.4 168.2,23.9 168.4,24.9 169.3,24.5 168.8,23.6 167.8,23.7 167.4,24.7 167.7,25.6 168.2,26.4 168.9,27.2 169.3,28.1 169.3,29.1 168.5,29.8 167.6,29.4 167.8,28.4 168.7,28.7 168.1,29.5 167.9,28.5 168.6,29.2 167.7,28.8 168.7,29.1 167.8,28.6 168.4,29.4 168.4,28.4 167.6,28.9 168.4,29.6 168.9,28.7 168.2,28.0 167.3,28.4 167.0,29.4 167.4,30.3 168.2,31.0 169.0,31.5 169.9,32.0 170.5,32.8 170.7,33.8 170.2,34.7 169.3,34.8 168.8,33.9 169.5,33.2 170.2,34.0 169.3,34.5 169.2,33.5 170.0,34.1 169.1,34.1 169.9,33.6 169.3,34.4 169.7,33.5 169.3,34.4 169.9,33.6 169.0,34.0 170.0,34.2 169.4,33.4 169.2,34.4 170.1,34.1 169.6,33.3 168.8,34.0 169.5,34.7 170.3,34.1 170.0,33.2 169.0,33.1 168.4,33.9 168.6,34.8 169.4,35.4 170.4,35.5 171.3,35.1 172.0,34.4 172.6,33.6 173.0,32.7 173.5,31.8 174.0,31.0 174.8,30.3 175.6,29.8 176.6,29.8 177.5,30.2 178.0,31.1 177.9,32.1 177.1,32.7 176.1,32.5 175.7,31.6 176.1,30.7 177.1,30.7 177.6,31.6 177.0,32.4 176.0,32.0 176.1,31.0 177.1,30.8 177.4,31.8 176.6,32.3 176.0,31.5 176.7,30.8 177.4,31.5 176.8,32.3 176.0,31.7 176.6,30.8 177.4,31.4 176.8,32.2 176.0,31.6 176.6,30.8 177.4,31.5 176.8,32.2 176.0,31.6 176.6,30.8 177.4,31.4 176.9,32.3 176.0,31.9 176.3,30.9 177.3,31.0 177.4,32.0 176.4,32.3 175.8,31.5 176.4,30.7 177.4,30.9 177.6,31.9 176.9,32.6 175.9,32.4 175.5,31.5 175.9,30.5 176.8,30.1 177.8,30.4 178.4,31.1 178.6,32.1 178.5,33.1 178.0,34.0 177.4,34.7 176.6,35.4 175.9,36.1 175.3,36.9 174.9,37.8 174.8,38.8 175.2,39.7 176.0,40.3 177.0,40.1 177.5,39.2 177.0,38.3 176.0,38.4 175.9,39.4 176.8,39.7 177.0,38.7 176.0,38.7 176.4,39.6 177.0,38.9 176.0,38.9 176.8,39.5 176.4,38.6 176.4,39.6 176.6,38.6 176.5,39.6 176.4,38.6 176.9,39.4 176.0,39.0 176.9,38.7 176.7,39.6 175.9,39.1 176.5,38.3 177.3,38.9 177.0,39.9 176.1,40.1 175.2,39.5 174.8,38.6 174.8,37.6 174.9,36.6 174.9,35.6 174.5,34.7 173.7,34.1 172.7,34.4 172.5,35.4 173.4,35.8 173.8,34.9 172.8,34.8 173.2,35.7 173.5,34.7 172.8,35.4 173.6,34.8 172.9,35.5 173.4,34.6 173.5,35.6 172.6,35.1 173.4,34.5 174.0,35.3 173.3,36.0 172.4,35.9 171.7,35.1 171.5,34.1 171.5,33.1 171.2,32.1 170.6,31.4 169.6,31.3 169.1,32.2 169.8,32.8 170.3,31.9 169.3,31.9 170.0,32.6 169.7,31.7 170.0,32.6 169.5,31.8 170.3,32.2 169.4,32.6 169.3,31.6 170.3,31.5 170.8,32.4 170.4,33.4 169.6,34.0 168.7,34.4 168.0,35.1 167.6,36.0 168.1,36.9 169.1,36.6 168.8,35.7 168.1,36.3 169.1,36.4 168.2,35.9 169.0,36.5 168.1,36.2 169.0,35.8 168.8,36.8 167.9,36.5 168.0,35.5 168.8,35.0 169.8,35.1 170.8,35.3 171.8,35.4 172.7,35.0 172.9,34.0 171.9,33.6 171.7,34.6 172.6,34.3 171.7,33.9 172.5,34.5 171.6,34.1 172.6,34.0 172.1,34.8 171.4,34.1 172.1,33.3 173.0,33.5 173.8,34.2 174.3,35.0 175.0,35.8 175.9,36.0 176.7,35.3 176.2,34.5 175.4,35.2 176.4,35.4 175.7,34.7 176.3,35.5 175.5,34.9 176.5,34.8 176.1,35.7 175.2,35.2 175.5,34.2 176.3,33.8 177.3,33.7 178.3,33.7 179.3,33.3 179.6,32.4 178.9,31.7 178.2,32.4 179.2,32.7 178.7,31.9 178.9,32.8 178.6,31.9 179.3,32.5 178.4,32.8 178.4,31.8 179.4,31.6 180.0,32.4 180.1,33.4 180.1,34.4 180.2,35.4 180.9,36.1 181.9,35.8 181.8,34.8 180.9,35.2 181.7,35.7 181.2,34.9 181.6,35.8 180.9,35.0 181.9,35.1 181.4,36.0 180.6,35.4 180.8,34.5 181.7,34.0 182.7,33.9 183.7,33.9 184.7,33.6 185.1,32.7 184.5,31.9 183.7,32.5 184.5,33.1 184.4,32.1 184.1,33.0 184.4,32.1 184.4,33.1 183.8,32.3 184.7,32.1 184.8,33.1 183.9,33.5 183.1,33.0 182.6,32.1 182.3,31.1 181.8,30.3 180.9,29.8 180.0,30.3 180.2,31.2 181.1,30.9 180.4,30.2 180.5,31.2 180.8,30.3 180.5,31.2 180.5,30.2 181.1,31.0 180.1,31.1 180.2,30.1 181.2,30.0 181.7,30.9 181.6,31.9 181.1,32.7 180.6,33.6 180.3,34.5 180.7,35.5 181.6,35.7 182.2,34.9 181.3,34.4 181.1,35.4 182.0,34.9 181.0,34.8 182.0,35.1 181.0,34.9 182.0,34.8 181.3,35.5 181.1,34.5 182.1,34.6 182.0,35.6 181.0,35.8 180.3,35.1 180.2,34.1 180.5,33.1 180.9,32.2 181.1,31.2 181.0,30.3 180.2,29.7 179.2,30.0 179.2,31.0 180.2,31.0 180.0,30.0 179.3,30.7 180.3,30.8 179.5,30.1 180.0,31.0 179.6,30.1 180.1,30.9 179.3,30.4 180.3,30.3 179.7,31.1 179.3,30.2 180.3,30.0 180.4,31.0 179.5,31.4 178.8,30.6 179.0,29.7 179.8,29.1 180.8,29.0 181.7,29.2 182.7,29.6 183.6,29.9 184.6,29.9 185.6,29.6 186.1,28.8 185.9,27.8 185.0,27.4 184.3,28.1 184.7,29.0 185.7,28.6 185.2,27.7 184.4,28.3 185.3,28.8 185.3,27.8 184.5,28.4 185.5,28.5 184.8,27.8 185.1,28.8 185.1,27.8 184.9,28.8 185.3,27.8 184.8,28.8 185.2,27.8 185.1,28.8 184.8,27.8 185.4,28.6 184.5,28.2 185.5,28.0 184.9,28.8 184.8,27.8 185.6,28.4 184.6,28.7 184.9,27.7 185.6,28.4 184.7,28.8 184.7,27.8 185.6,28.1 185.1,28.9 184.4,28.2 185.2,27.7 185.7,28.5 184.7,28.9 184.5,27.9 185.4,27.7 185.6,28.7 184.6,28.9 184.5,27.9 185.4,27.7 185.6,28.7 184.7,28.9 184.4,27.9 185.4,27.7 185.6,28.7 184.6,28.8 184.5,27.9 185.5,27.8 185.4,28.8 184.5,28.6 184.9,27.7 185.7,28.3 184.9,28.9 184.5,28.0 185.5,28.0 185.1,28.9 184.5,28.1 185.5,28.0 185.0,28.8 184.7,27.9 185.6,28.4 184.6,28.5 185.3,27.8 185.0,28.8 184.9,27.8 185.3,28.7 184.7,27.9 185.4,28.7 184.7,27.9 185.3,28.7 185.0,27.8 184.9,28.8 185.4,28.0 184.5,28.3 185.4,28.7 185.2,27.7 184.4,28.4 185.3,28.9 185.6,28.0 184.7,27.6 184.2,28.5 185.0,29.2 185.9,28.9 186.2,28.0 185.8,27.0 185.0,26.5 184.0,26.2 183.0,26.2 182.0,26.1 181.1,25.9 180.3,25.3 180.0,24.3 180.5,23.4 181.5,23.5 181.8,24.4 180.9,24.8 180.7,23.8 181.6,23.9 181.0,24.7 181.0,23.7 181.5,24.6 180.8,23.9 181.5,24.6 180.9,23.7 181.0,24.7 181.6,23.9 180.7,23.8 180.8,24.8 181.8,24.6 181.8,23.6 181.0,23.1 180.0,23.3 179.3,23.9 178.7,24.7 178.0,25.5 177.1,25.9 176.1,25.7 175.7,24.8 176.5,24.1 177.1,24.9 176.2,25.3 176.4,24.3 176.8,25.2 176.1,24.5 176.8,25.2 176.4,24.3 176.2,25.3 177.1,24.9 176.5,24.1 175.7,24.7 175.9,25.7 176.8,26.2 177.8,26.2 178.8,26.1 179.7,26.2 180.5,26.9 180.5,27.9 179.6,28.1 179.3,27.2 180.3,27.3 179.5,27.9 180.0,27.1 179.6,28.0 180.3,27.2 179.3,27.4 179.9,28.2 180.6,27.5 180.1,26.6 179.1,26.5 178.2,27.0 177.4,27.5 176.5,28.0 175.5,27.8 175.1,26.9 175.9,26.3 176.3,27.3 175.3,27.0 176.3,26.7 175.4,27.1 176.4,26.9 175.4,26.5 175.5,27.5 176.5,27.3 176.6,26.3 176.0,25.6 175.1,25.2 174.1,24.8 173.4,24.1 173.5,23.1 174.4,22.8 174.7,23.8 173.7,23.5 174.6,23.1 173.8,23.7 174.7,23.3 173.7,23.1 174.0,24.0 175.0,23.7 174.9,22.7 174.2,22.0 173.3,21.6 172.4,21.2 171.8,20.4 172.1,19.4 173.1,19.5 172.7,20.5 172.2,19.6 173.1,20.1 172.2,19.7 172.8,20.4 173.0,19.5 172.0,19.6 171.9,20.6 172.7,21.2 173.7,21.3 174.7,21.3 175.7,21.6 176.1,22.5 175.4,23.2 174.8,22.5 175.8,22.3 175.1,23.0 175.6,22.2 174.9,22.8 175.9,22.8 175.5,21.9 174.5,22.2 174.4,23.2 174.9,24.1 175.6,24.8 176.2,25.6 176.1,26.6 175.1,27.0 174.7,26.1 175.7,26.1 175.0,26.8 175.5,25.9 174.9,26.7 175.8,26.3 175.0,25.8 174.6,26.7 175.4,27.3 176.3,27.2 177.2,26.6 178.0,26.0 179.0,25.8 179.7,26.4 179.4,27.3 178.5,26.9 179.4,26.4 179.0,27.3 179.2,26.3 178.7,27.2 179.6,26.8 178.8,26.2 178.3,27.0 179.0,27.8 180.0,27.8 180.9,27.4 181.8,27.0 182.8,26.9 183.5,27.6 183.2,28.6 182.3,28.2 183.0,27.5 182.9,28.5 182.6,27.5 182.9,28.5 183.0,27.5 182.2,28.1 183.1,28.6 183.6,27.8 183.1,27.0 182.1,26.8 181.1,27.0 180.1,27.3 179.1,27.3 178.4,26.6 178.6,25.7 179.6,25.7 179.3,26.7 178.7,25.9 179.6,26.2 178.6,26.2 179.6,26.3 178.8,25.8 179.1,26.7 179.8,26.1 179.1,25.4 178.2,26.0 178.3,27.0 178.9,27.7 179.8,28.2 180.7,28.7 181.3,29.5 181.4,30.5 180.7,31.1 179.8,30.6 180.4,29.8 181.0,30.5 180.0,30.6 180.8,29.9 180.3,30.8 180.7,29.9 180.1,30.7 181.0,30.4 180.1,29.9 180.1,30.9 181.1,30.7 181.0,29.7 180.1,29.4 179.3,30.1 179.0,31.0 179.2,32.0 179.6,33.0 179.8,33.9 179.7,34.9 179.1,35.7 178.1,35.7 177.6,34.9 178.3,34.2 179.0,34.8 178.2,35.4 178.0,34.5 178.9,34.9 177.9,35.2 178.6,34.4 178.2,35.3 178.6,34.4 178.1,35.3 178.8,34.6 177.8,34.8 178.7,35.3 178.5,34.3 177.8,35.0 178.7,35.4 179.0,34.5 178.0,34.2 177.6,35.1 178.3,35.8 179.2,35.5 179.5,34.5 179.1,33.7 178.2,33.2 177.2,33.3 176.3,33.7 175.5,34.4 174.8,35.1 174.2,35.8 173.4,36.5 172.5,37.0 171.5,37.1 170.6,36.9 169.9,36.1 169.7,35.1 170.3,34.3 171.3,34.1 172.0,34.8 171.9,35.8 171.0,36.2 170.3,35.6 170.5,34.6 171.5,34.5 171.9,35.5 171.1,36.0 170.3,35.3 170.9,34.5 171.8,35.0 171.4,35.9 170.5,35.6 170.8,34.6 171.7,34.9 171.4,35.9 170.5,35.6 170.8,34.6 171.7,35.0 171.4,35.9 170.5,35.6 170.8,34.6 171.7,34.9 171.5,35.9 170.5,35.7 170.5,34.7 171.5,34.6 171.9,35.5 171.0,36.1 170.2,35.4 170.6,34.5 171.6,34.5 172.1,35.3 171.6,36.2 170.6,36.3 169.9,35.6 169.9,34.6 170.6,33.8 171.6,33.6 172.5,34.0 173.3,34.6 173.7,35.5 174.0,36.5 174.2,37.5 174.4,38.4 174.7,39.4 175.3,40.2 176.1,40.8 177.1,40.8 177.9,40.2 178.0,39.2 177.3,38.6 176.4,38.9 176.5,39.9 177.4,40.0 177.5,39.0 176.5,39.2 177.0,40.0 177.4,39.1 176.5,39.4 177.4,39.7 176.7,39.0 177.2,39.9 176.8,39.0 177.4,39.8 176.5,39.3 177.5,39.3 176.8,40.0 176.6,39.0 177.6,39.1 177.4,40.1 176.4,40.0 176.1,39.0 176.8,38.3 177.7,38.1 178.7,38.4 179.6,38.9 180.4,39.4 181.4,39.6 182.3,39.2 182.7,38.3 182.0,37.6 181.2,38.1 181.8,38.9 182.3,38.0 181.3,38.1 182.2,38.6 181.5,37.9 182.2,38.6 181.3,38.1 182.3,38.1 181.7,38.9 181.2,38.0 182.1,37.5 182.8,38.3 182.5,39.3 181.8,39.9 180.8,40.2 179.9,40.6 179.1,41.3 179.0,42.3 179.7,42.9 180.5,42.3 179.8,41.6 179.6,42.6 180.4,42.0 179.4,42.3 180.4,42.0 179.6,42.6 179.8,41.6 180.6,42.2 179.9,43.0 179.0,42.5 178.8,41.5 179.1,40.6 179.5,39.7 179.7,38.7 179.3,37.8 178.3,37.7 178.1,38.6 179.1,38.7 178.5,37.9 178.6,38.8 178.6,37.8 178.9,38.8 178.0,38.3 178.9,37.7 179.4,38.6 178.7,39.4 177.7,39.5 176.8,39.2 175.8,39.0 174.8,39.3 174.5,40.3 175.3,40.8 175.7,39.9 174.7,40.1 175.7,40.4 174.7,40.1 175.7,40.0 175.1,40.8 174.6,39.9 175.3,39.3 176.3,39.6 176.9,40.4 177.5,41.2 178.3,41.8 179.3,41.6 179.4,40.6 178.4,40.6 179.0,41.5 179.0,40.5 178.9,41.5 178.6,40.5 179.5,40.9 178.9,41.7 178.0,41.2 177.8,40.2 178.1,39.3 178.4,38.3 178.2,37.3 177.3,36.9 176.7,37.7 177.7,38.0 177.2,37.1 177.3,38.1 177.1,37.2 177.8,37.8 176.9,38.2 176.5,37.3 177.2,36.5 178.2,36.4 179.2,36.4 180.2,36.1 180.7,35.3 180.1,34.5 179.4,35.2 180.4,35.4 179.6,34.8 180.4,35.4 179.4,35.2 180.1,34.5 180.6,35.4 179.9,36.1 178.9,36.1 178.0,35.8 177.0,35.6 176.1,35.9 176.0,36.9 177.0,37.1 176.7,36.1 176.3,37.1 176.9,36.2 176.6,37.2 176.2,36.2 177.2,36.2 177.3,37.2 176.5,37.8 175.5,37.9 174.5,37.9 173.5,38.2 173.1,39.1 173.9,39.8 174.4,38.9 173.4,39.0 174.3,39.4 173.4,38.9 174.4,39.1 173.7,39.7 173.2,38.8 174.1,38.2 175.0,38.6 175.6,39.3 176.2,40.1 177.1,40.7 178.1,40.4 178.1,39.5 177.1,39.5 177.7,40.3 177.7,39.3 177.5,40.3 177.5,39.3 178.1,40.1 177.1,40.3 177.0,39.3 177.8,38.8 178.8,39.0 179.6,39.6 180.4,40.2 181.4,40.3 182.2,39.7 181.8,38.7 180.9,39.2 181.7,39.8 181.5,38.8 181.5,39.8 181.4,38.8 181.9,39.6 180.9,39.5 181.3,38.6 182.3,39.0 182.3,40.0 181.7,40.8 180.9,41.2 180.0,41.7 179.3,42.5 179.3,43.5 180.2,44.0 180.8,43.1 179.9,42.8 180.0,43.7 180.5,42.9 179.8,43.5 180.5,42.8 180.1,43.8 179.8,42.8 180.8,43.0 180.3,43.9 179.4,43.6 179.3,42.6 180.0,41.9 180.9,41.5 181.9,41.4 182.9,41.2 183.7,40.6 184.0,39.6 183.3,38.9 182.4,39.4 182.9,40.3 183.6,39.6 182.6,39.4 183.2,40.2 183.0,39.2 183.0,40.2 182.9,39.2 183.3,40.1 182.5,39.6 183.4,39.3 183.3,40.3 182.3,39.9 182.7,38.9 183.7,39.1 184.0,40.0 183.5,40.9 182.6,41.3 181.6,41.3 180.6,41.0 179.7,40.8 178.7,40.8 177.7,41.1 177.2,42.0 177.4,42.9 178.3,43.3 179.0,42.6 178.5,41.8 177.6,42.3 178.2,43.0 178.8,42.2 177.8,42.1 178.2,43.0 178.6,42.0 177.7,42.5 178.7,42.5 177.8,42.2 178.6,42.8 177.9,42.1 178.6,42.8 177.8,42.2 178.7,42.5 177.7,42.5 178.6,42.1 178.1,42.9 178.0,41.9 178.8,42.6 177.8,42.7 178.3,41.9 178.7,42.8 177.7,42.7 178.2,41.8 178.8,42.6 177.9,43.0 177.8,42.0 178.8,42.0 178.6,43.0 177.6,42.7 178.0,41.8 178.9,42.3 178.4,43.1 177.6,42.6 178.1,41.7 178.9,42.3 178.4,43.1 177.6,42.6 178.1,41.7 178.9,42.3 178.4,43.1 177.6,42.5 178.2,41.8 178.9,42.4 178.1,43.1 177.6,42.2 178.6,41.9 178.6,42.9 177.7,42.6 178.3,41.8 178.8,42.7 177.8,42.7 178.3,41.9 178.6,42.8 177.7,42.4 178.6,42.1 178.1,42.9 178.1,41.9 178.6,42.8 177.8,42.1 178.7,42.6 177.8,42.3 178.7,42.6 177.8,42.1 178.6,42.8 178.1,41.9 178.0,42.9 178.7,42.2 177.7,42.2 178.3,43.0 178.8,42.2 177.9,41.9 177.7,42.9 178.6,43.1 179.1,42.3 178.6,41.5 177.6,41.4 176.8,42.1 176.6,43.1 176.7,44.1 176.9,45.0 177.2,46.0 177.1,47.0 176.6,47.9 175.7,48.2 174.8,47.7 175.0,46.7 176.0,46.7 175.9,47.7 175.0,47.3 175.8,46.7 175.6,47.7 175.3,46.7 175.8,47.6 175.4,46.7 175.6,47.7 175.9,46.8 175.0,47.1 175.7,47.8 176.3,47.0 175.6,46.3 174.6,46.7 174.3,47.6 174.4,48.6 174.8,49.5 175.1,50.5 175.0,51.5 174.2,52.1 173.3,51.8 173.4,50.9 174.3,51.1 173.7,51.8 173.6,50.9 174.1,51.7 173.5,50.9 173.9,51.8 174.1,50.9 173.2,51.2 173.8,52.0 174.6,51.6 174.7,50.6 174.0,49.8 173.1,49.3 172.3,48.8 171.7,48.0 171.9,47.0 172.8,46.8 173.1,47.8 172.1,47.6 172.9,47.0 172.4,47.9 172.9,47.0 172.1,47.6 173.0,47.8 172.9,46.8 171.9,46.9 171.5,47.8 171.7,48.7 172.2,49.6 172.4,50.6 172.1,51.5 171.1,51.7 170.8,50.8 171.8,50.8 171.1,51.5 171.5,50.6 171.0,51.5 171.9,51.0 171.0,50.6 170.7,51.5 171.5,52.1 172.5,51.8 173.3,51.3 174.2,50.8 175.2,50.9 175.7,51.7 174.9,52.3 174.7,51.3 175.5,51.9 174.5,51.5 175.4,52.1 175.1,51.1 174.3,51.8 174.9,52.6 175.9,52.4 176.7,51.8" />
</g>
</svg>