<svg xmlns="http://www.w3.org/2000/svg" width="101.77" height="100.00" viewBox="-59.03 -95.66 111.77 110.00">
<g fill="none" stroke="black" stroke-width="1.02%" transform="translate(0, -81.33) scale(0.49, -0.49)">
<polyline points="0.00,0.00 0.96,-0.28 1.96,-0.25 2.95,-0.16 3.88,0.22 4.83,0.53 5.83,0.58 6.83,0.66 7.79,0.40 8.78,0.24 9.78,0.28 10.78,0.21 11.77,0.36 12.76,0.28 13.76,0.27 14.74,0.07 15.64,-0.37 16.53,-0.83 17.27,-1.51 17.77,-2.37 18.07,-3.33 18.29,-4.30 18.28,-5.30 18.03,-6.27 17.90,-7.26 17.97,-8.26 18.12,-9.25 18.19,-10.25 18.56,-11.17 18.74,-12.16 18.73,-13.16 18.92,-14.14 19.26,-15.08 19.26,-16.08 19.45,-17.06 19.85,-17.98 19.93,-18.98 19.70,-19.95 19.66,-20.95 19.79,-21.94 20.16,-22.87 20.44,-23.83 20.87,-24.73 21.11,-25.70 21.56,-26.59 21.90,-27.54 22.37,-28.42 22.82,-29.31 23.52,-30.02 24.04,-30.88 24.75,-31.58 25.64,-32.03 26.42,-32.67 27.25,-33.23 27.85,-34.03 28.61,-34.68 29.19,-35.49 29.93,-36.16 30.64,-36.87 31.09,-37.76 31.66,-38.58 32.34,-39.32 33.10,-39.96 34.03,-40.34 34.87,-40.88 35.62,-41.55 36.30,-42.28 37.12,-42.85 37.74,-43.64 38.50,-44.28 39.43,-44.65 40.37,-45.01 41.36,-45.15 42.35,-45.06 43.34,-44.91 44.30,-44.64 45.30,-44.63 46.29,-44.44 47.28,-44.36 48.25,-44.62 49.10,-45.15 49.86,-45.79 50.72,-46.30 51.49,-46.94 52.26,-47.58 52.89,-48.36 53.39,-49.22 53.94,-50.06 54.61,-50.80 55.14,-51.65 55.67,-52.50 55.96,-53.45 56.08,-54.45 55.90,-55.43 55.43,-56.32 55.12,-57.26 54.55,-58.09 54.05,-58.96 53.46,-59.77 52.92,-60.60 52.50,-61.51 52.00,-62.38 51.63,-63.31 51.21,-64.22 50.54,-64.96 49.94,-65.75 49.18,-66.40 48.51,-67.14 48.00,-68.01 47.35,-68.77 46.87,-69.64 46.55,-70.59 46.01,-71.43 45.33,-72.16 44.51,-72.74 43.78,-73.42 42.87,-73.84 41.89,-74.02 41.00,-74.49 40.04,-74.76 39.08,-75.03 38.14,-75.37 37.15,-75.52 36.18,-75.75 35.19,-75.92 34.32,-76.41 33.51,-76.99 32.61,-77.44 31.74,-77.92 30.77,-78.17 29.77,-78.14 28.80,-78.39 27.84,-78.66 27.01,-79.21 26.28,-79.90 25.46,-80.48 24.87,-81.29 24.30,-82.11 23.96,-83.05 23.94,-84.05 23.88,-85.04 23.75,-86.04 23.67,-87.03 23.68,-88.03 23.35,-88.98 22.97,-89.90 22.43,-90.75 22.07,-91.68 21.46,-92.47 21.08,-93.40 20.88,-94.37 20.39,-95.25 19.83,-96.08 19.12,-96.78 18.42,-97.50 17.61,-98.08 16.76,-98.60 15.91,-99.14 14.97,-99.48 14.13,-100.02 13.22,-100.43 12.29,-100.79 11.37,-101.19 10.45,-101.59 9.52,-101.96 8.75,-102.59 7.98,-103.23 7.25,-103.91 6.79,-104.80 6.16,-105.58 5.67,-106.45 5.05,-107.23 4.53,-108.09 4.22,-109.04 3.72,-109.90 2.99,-110.59 2.11,-111.06 1.41,-111.77 0.98,-112.68 0.55,-113.58 0.05,-114.45 -0.30,-115.38 -0.84,-116.22 -1.42,-117.04 -1.76,-117.98 -2.17,-118.89 -2.75,-119.70 -3.33,-120.52 -3.78,-121.41 -4.29,-122.27 -4.57,-123.23 -4.60,-124.23 -4.89,-125.19 -5.42,-126.04 -5.74,-126.98 -5.95,-127.96 -6.12,-128.95 -6.45,-129.89 -6.92,-130.77 -7.55,-131.55 -8.38,-132.10 -9.01,-132.88 -9.40,-133.80 -9.52,-134.80 -9.31,-135.77 -8.89,-136.68 -8.38,-137.54 -7.89,-138.42 -7.52,-139.34 -7.45,-140.34 -7.60,-141.33 -8.01,-142.24 -8.38,-143.17 -8.73,-144.11 -8.90,-145.09 -9.36,-145.98 -9.56,-146.96 -9.67,-147.95 -9.48,-148.93 -9.36,-149.93 -9.56,-150.91 -9.66,-151.90 -9.96,-152.86 -10.26,-153.81 -10.52,-154.77 -10.50,-155.77 -10.55,-156.77 -10.65,-157.77 -10.84,-158.75 -10.87,-159.75 -10.96,-160.75 -11.19,-161.72 -11.73,-162.56 -12.15,-163.47 -12.40,-164.43 -12.36,-165.43 -11.98,-166.36 -11.90,-167.35 -11.96,-168.35 -11.90,-169.35 -11.92,-170.35 -12.24,-171.30 -12.83,-172.11 -13.19,-173.04 -13.66,-173.93 -13.85,-174.91 -14.30,-175.80 -14.70,-176.72 -15.10,-177.63 -15.32,-178.61 -15.74,-179.52 -16.39,-180.27 -17.05,-181.03 -17.80,-181.69 -18.63,-182.24 -19.58,-182.56 -20.58,-182.62 -21.51,-182.96 -22.42,-183.38 -23.21,-184.00 -24.01,-184.60 -24.93,-184.98 -25.90,-185.24 -26.88,-185.42 -27.87,-185.27 -28.83,-184.97 -29.82,-184.87 -30.78,-184.58 -31.60,-184.02 -32.28,-183.28 -33.02,-182.61 -33.87,-182.08 -34.71,-181.54 -35.48,-180.90 -36.03,-180.07 -36.76,-179.39 -37.59,-178.82 -38.36,-178.19 -38.89,-177.34 -39.43,-176.50 -39.83,-175.58 -40.06,-174.61 -40.43,-173.68 -40.66,-172.70 -40.89,-171.73 -41.25,-170.80 -41.71,-169.91 -42.36,-169.15 -42.96,-168.35 -43.45,-167.48 -44.16,-166.77 -44.91,-166.12 -45.70,-165.50 -46.60,-165.07 -47.42,-164.49 -48.35,-164.13 -49.35,-164.05 -50.31,-164.31 -51.20,-164.77 -52.13,-165.14 -53.06,-165.50 -54.06,-165.57 -55.06,-165.47 -55.97,-165.06 -56.87,-164.63 -57.87,-164.51 -58.86,-164.37 -59.83,-164.15 -60.83,-164.16 -61.82,-164.05 -62.76,-163.69 -63.70,-163.37 -64.63,-163.00 -65.44,-162.42 -66.39,-162.09 -67.39,-162.10 -68.35,-161.84 -69.35,-161.72 -70.35,-161.69 -71.33,-161.85 -72.27,-162.21 -73.22,-162.52 -74.19,-162.73 -75.08,-163.19 -75.78,-163.90 -76.59,-164.49 -77.55,-164.79 -78.49,-165.13 -79.46,-165.36 -80.46,-165.46 -81.46,-165.43 -82.41,-165.13 -83.24,-164.57 -84.19,-164.27 -85.19,-164.21 -86.18,-164.38 -87.18,-164.35 -88.14,-164.07 -89.09,-163.75 -90.08,-163.65 -91.06,-163.85 -92.00,-164.20 -92.98,-164.42 -93.95,-164.66 -94.95,-164.66 -95.92,-164.89 -96.92,-164.79 -97.90,-164.59 -98.90,-164.57 -99.85,-164.27 -100.65,-163.67 -101.60,-163.36 -102.43,-162.80 -103.24,-162.21 -104.00,-161.56 -104.68,-160.83 -105.39,-160.12 -106.13,-159.45 -106.80,-158.71 -107.57,-158.07 -108.20,-157.29 -108.57,-156.36 -109.06,-155.49 -109.31,-154.52 -109.37,-153.53 -109.35,-152.53 -109.63,-151.56 -109.89,-150.60 -110.19,-149.64 -110.36,-148.66 -110.51,-147.67 -110.37,-146.68 -110.32,-145.68 -110.32,-144.68 -110.19,-143.69 -110.16,-142.69 -109.85,-141.74 -109.37,-140.87 -108.87,-140.00 -108.68,-139.01 -108.45,-138.04 -108.14,-137.09 -108.05,-136.09 -107.78,-135.13 -107.24,-134.29 -106.48,-133.64 -105.86,-132.86 -105.30,-132.03 -104.50,-131.42 -103.79,-130.72 -102.88,-130.30 -101.89,-130.18 -100.95,-129.85 -99.97,-129.63 -98.97,-129.54 -98.01,-129.79 -97.03,-129.99 -96.03,-130.00 -95.07,-129.72 -94.08,-129.58 -93.08,-129.57 -92.13,-129.24 -91.21,-128.85 -90.21,-128.79 -89.23,-128.97 -88.23,-129.01 -87.24,-128.86 -86.24,-128.85 -85.24,-128.86 -84.27,-129.09 -83.32,-129.41 -82.32,-129.43 -81.33,-129.59 -80.35,-129.41 -79.36,-129.58 -78.38,-129.42 -77.38,-129.45 -76.38,-129.31 -75.39,-129.37 -74.39,-129.47 -73.41,-129.68 -72.49,-130.07 -71.50,-130.18 -70.50,-130.21 -69.51,-130.37 -68.51,-130.29 -67.54,-130.54 -66.65,-130.98 -65.72,-131.37 -64.80,-131.74 -63.96,-132.29 -63.26,-133.00 -62.44,-133.57 -61.62,-134.14 -60.82,-134.74 -59.89,-135.12 -58.94,-135.44 -58.02,-135.82 -57.24,-136.44 -56.69,-137.28 -56.41,-138.24 -55.97,-139.14 -55.68,-140.10 -55.16,-140.94 -54.92,-141.92 -54.75,-142.90 -54.42,-143.85 -54.12,-144.80 -53.54,-145.61 -52.96,-146.43 -52.25,-147.13 -51.66,-147.94 -50.97,-148.67 -50.22,-149.33 -49.38,-149.86 -48.61,-150.51 -47.89,-151.20 -47.19,-151.91 -46.32,-152.40 -45.62,-153.11 -44.74,-153.59 -43.91,-154.15 -43.10,-154.74 -42.16,-155.08 -41.17,-155.19 -40.19,-155.38 -39.26,-155.76 -38.27,-155.91 -37.33,-156.24 -36.37,-156.52 -35.37,-156.52 -34.38,-156.65 -33.39,-156.52 -32.50,-156.07 -31.75,-155.40 -30.98,-154.77 -30.06,-154.36 -29.22,-153.82 -28.52,-153.11 -28.03,-152.23 -27.55,-151.36 -27.02,-150.51 -26.43,-149.70 -25.91,-148.85 -25.60,-147.90 -25.05,-147.06 -24.50,-146.23 -23.79,-145.52 -23.15,-144.76 -22.29,-144.24 -21.37,-143.85 -20.38,-143.77 -19.45,-143.40 -18.51,-143.06 -17.64,-142.55 -16.74,-142.13 -15.76,-141.95 -14.76,-141.89 -13.82,-141.55 -12.90,-141.15 -12.01,-140.70 -11.26,-140.03 -10.38,-139.56 -9.72,-138.81 -8.93,-138.19 -8.34,-137.39 -7.51,-136.82 -6.56,-136.51 -5.64,-136.13 -4.69,-135.82 -3.85,-135.28 -3.01,-134.74 -2.32,-134.02 -1.57,-133.35 -0.96,-132.56 -0.25,-131.86 0.34,-131.05 0.88,-130.21 1.39,-129.35 2.03,-128.58 2.46,-127.67 2.98,-126.82 3.46,-125.94 4.10,-125.18 4.45,-124.24 4.55,-123.24 4.76,-122.26 4.92,-121.28 5.26,-120.34 5.30,-119.34 5.29,-118.34 5.07,-117.36 4.75,-116.41 4.45,-115.46 4.26,-114.48 4.11,-113.49 3.78,-112.55 3.70,-111.55 3.65,-110.55 3.85,-109.57 4.04,-108.59 4.42,-107.67 4.81,-106.74 5.40,-105.94 5.99,-105.13 6.55,-104.30 7.29,-103.63 8.19,-103.19 8.91,-102.49 9.75,-101.96 10.41,-101.21 11.24,-100.64 12.16,-100.26 13.07,-99.83 14.06,-99.69 15.03,-99.48 15.98,-99.16 16.96,-98.95 17.89,-98.59 18.78,-98.14 19.55,-97.50 20.36,-96.91 21.22,-96.40 22.16,-96.07 23.05,-95.60 23.84,-94.99 24.40,-94.16 24.80,-93.24 25.20,-92.33 25.52,-91.38 25.70,-90.40 26.02,-89.45 26.50,-88.57 27.23,-87.89 27.88,-87.13 28.42,-86.28 29.10,-85.55 29.97,-85.07 30.78,-84.48 31.51,-83.79 31.99,-82.92 32.38,-82.00 32.78,-81.08 33.21,-80.18 33.51,-79.22 33.97,-78.33 34.66,-77.62 35.30,-76.84 35.90,-76.05 36.54,-75.28 37.10,-74.44 37.87,-73.81 38.75,-73.33 39.51,-72.68 40.16,-71.92 40.97,-71.34 41.90,-70.98 42.69,-70.36 43.34,-69.60 43.93,-68.80 44.42,-67.92 45.13,-67.21 46.01,-66.75 47.00,-66.60 48.00,-66.66 49.00,-66.71 49.93,-67.07 50.81,-67.56 51.55,-68.23 52.37,-68.80 53.15,-69.43 53.69,-70.27 54.32,-71.04 54.86,-71.89 55.30,-72.78 55.85,-73.62 56.26,-74.53 56.85,-75.33 57.44,-76.15 58.17,-76.83 58.93,-77.48 59.86,-77.86 60.71,-78.38 61.60,-78.83 62.39,-79.45 63.12,-80.13 63.77,-80.89 64.49,-81.58 64.97,-82.46 65.52,-83.29 66.21,-84.02 66.71,-84.88 67.46,-85.55 68.38,-85.95 69.33,-86.26 70.27,-86.59 71.12,-87.12 71.74,-87.90 72.20,-88.79 72.91,-89.49 73.77,-90.01 74.49,-90.71 75.33,-91.25 76.12,-91.86 76.94,-92.43 77.79,-92.96 78.48,-93.68 79.29,-94.27 80.01,-94.96 80.54,-95.81 81.24,-96.53 81.73,-97.39 82.11,-98.32 82.46,-99.26 82.87,-100.17 83.54,-100.92 84.02,-101.79 84.27,-102.76 84.21,-103.76 83.94,-104.72 83.67,-105.68 83.11,-106.51 82.74,-107.44 82.11,-108.22 81.42,-108.94 80.77,-109.70 80.09,-110.43 79.55,-111.28 79.18,-112.20 78.55,-112.98 78.13,-113.89 77.56,-114.71 77.18,-115.63 76.63,-116.48 76.28,-117.41 76.18,-118.40 76.09,-119.40 76.00,-120.40 76.03,-121.40 75.76,-122.36 75.24,-123.21 74.63,-124.00 73.86,-124.65 73.00,-125.16 72.05,-125.47 71.16,-125.92 70.17,-126.07 69.17,-126.13 68.25,-126.51 67.26,-126.64 66.27,-126.79 65.33,-127.15 64.38,-127.46 63.38,-127.50 62.45,-127.85 61.45,-127.94 60.46,-127.79 59.47,-127.93 58.47,-127.91 57.48,-127.98 56.50,-128.20 55.52,-128.41 54.64,-128.88 53.65,-129.04 52.72,-129.39 51.72,-129.39 50.74,-129.60 49.74,-129.64 48.77,-129.41 47.77,-129.43 46.79,-129.63 45.79,-129.59 44.79,-129.50 43.81,-129.68 42.84,-129.95 41.84,-129.99 40.84,-129.97 39.87,-129.75 38.88,-129.61 37.89,-129.78 36.94,-130.09 36.10,-130.64 35.38,-131.32 34.49,-131.79 33.53,-132.04 32.62,-132.46 31.67,-132.77 30.69,-132.97 29.77,-133.37 28.82,-133.69 27.83,-133.83 26.83,-133.86 25.87,-133.60 24.88,-133.41 23.89,-133.37 22.89,-133.46 21.91,-133.63 20.92,-133.46 19.92,-133.39 19.00,-133.00 18.23,-132.36 17.44,-131.75 16.78,-131.00 16.08,-130.28 15.56,-129.43 14.81,-128.77 14.07,-128.10 13.23,-127.55 12.61,-126.76 12.30,-125.82 12.10,-124.84 12.09,-123.84 11.93,-122.85 11.59,-121.91 11.23,-120.97 10.74,-120.10 10.27,-119.22 9.88,-118.30 9.34,-117.45 8.96,-116.53 8.59,-115.60 8.32,-114.64 7.83,-113.77 7.09,-113.10 6.33,-112.45 5.78,-111.61 5.28,-110.74 4.76,-109.89 4.19,-109.07 3.60,-108.26 2.90,-107.55 2.37,-106.70 1.73,-105.93 1.29,-105.03 1.10,-104.05 0.59,-103.19 0.29,-102.24 0.26,-101.24 0.07,-100.25 0.15,-99.26 0.53,-98.33 1.16,-97.56 1.78,-96.77 2.43,-96.01 3.05,-95.23 3.83,-94.60 4.62,-93.98 5.15,-93.14 5.66,-92.28 5.90,-91.31 5.97,-90.31 5.81,-89.32 5.39,-88.42 5.26,-87.43 5.31,-86.43 5.25,-85.43 5.43,-84.44 5.68,-83.48 6.01,-82.53 6.61,-81.73 7.04,-80.83 7.29,-79.86 7.54,-78.89 7.74,-77.91 8.11,-76.98 8.75,-76.22 9.35,-75.42 10.14,-74.81 11.05,-74.39 11.82,-73.75 12.69,-73.26 13.63,-72.90 14.62,-72.86 15.59,-73.12 16.42,-73.68 17.10,-74.41 17.80,-75.13 18.48,-75.86 19.22,-76.53 19.88,-77.28 20.44,-78.11 21.14,-78.82 21.75,-79.62 22.08,-80.56 22.61,-81.41 23.00,-82.33 23.56,-83.16 24.35,-83.78 25.15,-84.37 25.91,-85.02 26.74,-85.58 27.64,-86.01 28.55,-86.44 29.46,-86.84 30.35,-87.30 31.30,-87.62 32.29,-87.71 33.26,-87.48 34.11,-86.95 35.07,-86.65 36.01,-86.30 36.78,-85.67 37.44,-84.92 38.18,-84.25 39.10,-83.85 39.98,-83.38 40.97,-83.22 41.96,-83.06 42.94,-82.85 43.91,-82.62 44.91,-82.63 45.87,-82.36 46.76,-81.90 47.72,-81.62 48.59,-81.12 49.50,-80.71 50.31,-80.13 50.90,-79.32 51.49,-78.52 51.95,-77.63 52.10,-76.64 51.93,-75.66 51.95,-74.66 52.17,-73.68 52.12,-72.68 52.42,-71.73 52.58,-70.74 52.88,-69.78 53.48,-68.99 53.92,-68.09 54.12,-67.11 53.98,-66.12 53.63,-65.18 53.49,-64.19 53.34,-63.20 53.21,-62.21 53.09,-61.22 53.22,-60.23 53.26,-59.23 53.37,-58.23 53.55,-57.25 53.87,-56.30 54.42,-55.47 54.99,-54.65 55.32,-53.70 55.49,-52.72 55.94,-51.83 56.63,-51.11 57.20,-50.28 57.74,-49.44 58.40,-48.69 59.25,-48.18 59.90,-47.41 60.59,-46.69 61.10,-45.83 61.73,-45.05 62.48,-44.39 63.37,-43.93 64.22,-43.40 65.13,-42.99 66.11,-42.82 67.11,-42.69 68.08,-42.47 69.07,-42.59 70.07,-42.54 71.01,-42.19 71.89,-41.72 72.83,-41.37 73.82,-41.24 74.82,-41.17 75.81,-41.06 76.81,-40.96 77.80,-40.90 78.80,-41.00 79.80,-41.01 80.76,-41.28 81.74,-41.48 82.74,-41.38 83.74,-41.33 84.69,-41.04 85.61,-40.65 86.56,-40.33 87.55,-40.17 88.49,-39.84 89.48,-39.70 90.47,-39.57 91.43,-39.29 92.33,-38.85 93.11,-38.23 93.65,-37.39 94.36,-36.68 95.03,-35.94 95.45,-35.03 96.14,-34.31 96.76,-33.53 97.16,-32.61 97.47,-31.66 97.63,-30.67 97.49,-29.68 97.09,-28.77 96.43,-28.02 95.72,-27.32 95.17,-26.48 94.82,-25.54 94.58,-24.57 94.02,-23.75 93.67,-22.81 93.51,-21.82 93.15,-20.89 92.52,-20.11 91.79,-19.42 90.93,-18.92 90.00,-18.54 89.18,-17.98 88.35,-17.42 87.47,-16.94 86.56,-16.53 85.76,-15.92 85.00,-15.28 84.10,-14.83 83.33,-14.19 82.41,-13.82 81.49,-13.42 80.60,-12.96 79.65,-12.64 78.82,-12.08 78.08,-11.41 77.26,-10.83 76.67,-10.03 76.10,-9.20 75.76,-8.26 75.51,-7.29 75.23,-6.33 74.72,-5.47 74.46,-4.51 74.53,-3.51 74.50,-2.51 74.41,-1.52 74.54,-0.53 74.46,0.47 74.37,1.47 74.22,2.45 74.04,3.44 73.62,4.34 73.26,5.28 72.63,6.06 72.00,6.83 71.26,7.50 70.58,8.24 70.12,9.12 69.91,10.10 69.58,11.05 69.50,12.04 69.31,13.02 69.07,14.00 69.02,14.99 69.28,15.96 69.76,16.84 70.33,17.66 71.06,18.34 71.72,19.09" />
</g>
</svg>