<svg xmlns="http://www.w3.org/2000/svg" width="100.0" height="100.0" viewBox="-55.000 -55.000 110.000 110.000">
<g fill="none" stroke="black" stroke-width="0.0142%" transform="translate(0, 0.0000) scale(35.2044, -35.2044)">
<circle cx="0.000" cy="0.000" r="1.000" />
<circle cx="0.000" cy="0.000" r="1.420" />
<circle cx="1.210" cy="0.000" r="0.210" />
<circle cx="1.137" cy="0.414" r="0.210" />
<circle cx="0.927" cy="0.778" r="0.210" />
<circle cx="0.605" cy="1.048" r="0.210" />
<circle cx="0.210" cy="1.192" r="0.210" />
<circle cx="-0.210" cy="1.192" r="0.210" />
<circle cx="-0.605" cy="1.048" r="0.210" />
<circle cx="-0.927" cy="0.778" r="0.210" />
<circle cx="-1.137" cy="0.414" r="0.210" />
<circle cx="-1.210" cy="0.000" r="0.210" />
<circle cx="-1.137" cy="-0.414" r="0.210" />
<circle cx="-0.927" cy="-0.778" r="0.210" />
<circle cx="-0.605" cy="-1.048" r="0.210" />
<circle cx="-0.210" cy="-1.192" r="0.210" />
<circle cx="0.210" cy="-1.192" r="0.210" />
<circle cx="0.605" cy="-1.048" r="0.210" />
<circle cx="0.927" cy="-0.778" r="0.210" />
<circle cx="1.137" cy="-0.414" r="0.210" />
</g>
</svg>