<svg xmlns="http://www.w3.org/2000/svg" width="100.0" height="100.0" viewBox="-55.00 -55.00 110.00 110.00">
<g fill="none" stroke="black" stroke-width="0.0400%" transform="translate(0, 0.0000) scale(12.5000, -12.5000)">
<path d="M 0.71,0.71 A 1.00 1.00 0.00 0 1 0.00,1.00" />
<path d="M 1.41,1.41 A 2.00 2.00 0.00 0 1 0.00,2.00" />
<line x1="0.71" y1="0.71" x2="1.41" y2="1.41" />
<line x1="0.00" y1="1.00" x2="0.00" y2="2.00" />
<path d="M 0.00,1.00 A 1.00 1.00 0.00 0 1 -0.71,0.71" />
<path d="M 0.00,2.00 A 2.00 2.00 0.00 0 1 -1.41,1.41" />
<line x1="0.00" y1="1.00" x2="0.00" y2="2.00" />
<line x1="-0.71" y1="0.71" x2="-1.41" y2="1.41" />
<path d="M -0.71,0.71 A 1.00 1.00 0.00 0 1 -1.00,0.00" />
<path d="M -1.41,1.41 A 2.00 2.00 0.00 0 1 -2.00,0.00" />
<line x1="-0.71" y1="0.71" x2="-1.41" y2="1.41" />
<line x1="-1.00" y1="0.00" x2="-2.00" y2="0.00" />
<path d="M -1.00,0.00 A 1.00 1.00 0.00 0 1 -0.71,-0.71" />
<path d="M -2.00,0.00 A 2.00 2.00 0.00 0 1 -1.41,-1.41" />
<line x1="-1.00" y1="0.00" x2="-2.00" y2="0.00" />
<line x1="-0.71" y1="-0.71" x2="-1.41" y2="-1.41" />
<path d="M -0.71,-0.71 A 1.00 1.00 0.00 0 1 -0.00,-1.00" />
<path d="M -1.41,-1.41 A 2.00 2.00 0.00 0 1 -0.00,-2.00" />
<line x1="-0.71" y1="-0.71" x2="-1.41" y2="-1.41" />
<line x1="-0.00" y1="-1.00" x2="-0.00" y2="-2.00" />
<path d="M -0.00,-1.00 A 1.00 1.00 0.00 0 1 0.71,-0.71" />
<path d="M -0.00,-2.00 A 2.00 2.00 0.00 0 1 1.41,-1.41" />
<line x1="-0.00" y1="-1.00" x2="-0.00" y2="-2.00" />
<line x1="0.71" y1="-0.71" x2="1.41" y2="-1.41" />
<path d="M 0.71,-0.71 A 1.00 1.00 0.00 0 1 1.00,-0.00" />
<path d="M 1.41,-1.41 A 2.00 2.00 0.00 0 1 2.00,-0.00" />
<line x1="0.71" y1="-0.71" x2="1.41" y2="-1.41" />
<line x1="1.00" y1="-0.00" x2="2.00" y2="-0.00" />
<path d="M 1.00,-0.00 A 1.00 1.00 0.00 0 1 0.71,0.71" />
<path d="M 2.00,-0.00 A 2.00 2.00 0.00 0 1 1.41,1.41" />
<line x1="1.00" y1="-0.00" x2="2.00" y2="-0.00" />
<line x1="0.71" y1="0.71" x2="1.41" y2="1.41" />
<path d="M 1.41,1.41 A 2.00 2.00 0.00 0 1 0.00,2.00" />
<path d="M 2.12,2.12 A 3.00 3.00 0.00 0 1 0.00,3.00" />
<line x1="1.41" y1="1.41" x2="2.12" y2="2.12" />
<line x1="0.00" y1="2.00" x2="0.00" y2="3.00" />
<path d="M 0.00,2.00 A 2.00 2.00 0.00 0 1 -1.41,1.41" />
<path d="M 0.00,3.00 A 3.00 3.00 0.00 0 1 -2.12,2.12" />
<line x1="0.00" y1="2.00" x2="0.00" y2="3.00" />
<line x1="-1.41" y1="1.41" x2="-2.12" y2="2.12" />
<path d="M -1.41,1.41 A 2.00 2.00 0.00 0 1 -2.00,0.00" />
<path d="M -2.12,2.12 A 3.00 3.00 0.00 0 1 -3.00,0.00" />
<line x1="-1.41" y1="1.41" x2="-2.12" y2="2.12" />
<line x1="-2.00" y1="0.00" x2="-3.00" y2="0.00" />
<path d="M -2.00,0.00 A 2.00 2.00 0.00 0 1 -1.41,-1.41" />
<path d="M -3.00,0.00 A 3.00 3.00 0.00 0 1 -2.12,-2.12" />
<line x1="-2.00" y1="0.00" x2="-3.00" y2="0.00" />
<line x1="-1.41" y1="-1.41" x2="-2.12" y2="-2.12" />
<path d="M -1.41,-1.41 A 2.00 2.00 0.00 0 1 -0.00,-2.00" />
<path d="M -2.12,-2.12 A 3.00 3.00 0.00 0 1 -0.00,-3.00" />
<line x1="-1.41" y1="-1.41" x2="-2.12" y2="-2.12" />
<line x1="-0.00" y1="-2.00" x2="-0.00" y2="-3.00" />
<path d="M -0.00,-2.00 A 2.00 2.00 0.00 0 1 1.41,-1.41" />
<path d="M -0.00,-3.00 A 3.00 3.00 0.00 0 1 2.12,-2.12" />
<line x1="-0.00" y1="-2.00" x2="-0.00" y2="-3.00" />
<line x1="1.41" y1="-1.41" x2="2.12" y2="-2.12" />
<path d="M 1.41,-1.41 A 2.00 2.00 0.00 0 1 2.00,-0.00" />
<path d="M 2.12,-2.12 A 3.00 3.00 0.00 0 1 3.00,-0.00" />
<line x1="1.41" y1="-1.41" x2="2.12" y2="-2.12" />
<line x1="2.00" y1="-0.00" x2="3.00" y2="-0.00" />
<path d="M 2.00,-0.00 A 2.00 2.00 0.00 0 1 1.41,1.41" />
<path d="M 3.00,-0.00 A 3.00 3.00 0.00 0 1 2.12,2.12" />
<line x1="2.00" y1="-0.00" x2="3.00" y2="-0.00" />
<line x1="1.41" y1="1.41" x2="2.12" y2="2.12" />
<path d="M 2.12,2.12 A 3.00 3.00 0.00 0 1 0.00,3.00" />
<path d="M 2.83,2.83 A 4.00 4.00 0.00 0 1 0.00,4.00" />
<line x1="2.12" y1="2.12" x2="2.83" y2="2.83" />
<line x1="0.00" y1="3.00" x2="0.00" y2="4.00" />
<path d="M 0.00,3.00 A 3.00 3.00 0.00 0 1 -2.12,2.12" />
<path d="M 0.00,4.00 A 4.00 4.00 0.00 0 1 -2.83,2.83" />
<line x1="0.00" y1="3.00" x2="0.00" y2="4.00" />
<line x1="-2.12" y1="2.12" x2="-2.83" y2="2.83" />
<path d="M -2.12,2.12 A 3.00 3.00 0.00 0 1 -3.00,0.00" />
<path d="M -2.83,2.83 A 4.00 4.00 0.00 0 1 -4.00,0.00" />
<line x1="-2.12" y1="2.12" x2="-2.83" y2="2.83" />
<line x1="-3.00" y1="0.00" x2="-4.00" y2="0.00" />
<path d="M -3.00,0.00 A 3.00 3.00 0.00 0 1 -2.12,-2.12" />
<path d="M -4.00,0.00 A 4.00 4.00 0.00 0 1 -2.83,-2.83" />
<line x1="-3.00" y1="0.00" x2="-4.00" y2="0.00" />
<line x1="-2.12" y1="-2.12" x2="-2.83" y2="-2.83" />
<path d="M -2.12,-2.12 A 3.00 3.00 0.00 0 1 -0.00,-3.00" />
<path d="M -2.83,-2.83 A 4.00 4.00 0.00 0 1 -0.00,-4.00" />
<line x1="-2.12" y1="-2.12" x2="-2.83" y2="-2.83" />
<line x1="-0.00" y1="-3.00" x2="-0.00" y2="-4.00" />
<path d="M -0.00,-3.00 A 3.00 3.00 0.00 0 1 2.12,-2.12" />
<path d="M -0.00,-4.00 A 4.00 4.00 0.00 0 1 2.83,-2.83" />
<line x1="-0.00" y1="-3.00" x2="-0.00" y2="-4.00" />
<line x1="2.12" y1="-2.12" x2="2.83" y2="-2.83" />
<path d="M 2.12,-2.12 A 3.00 3.00 0.00 0 1 3.00,-0.00" />
<path d="M 2.83,-2.83 A 4.00 4.00 0.00 0 1 4.00,-0.00" />
<line x1="2.12" y1="-2.12" x2="2.83" y2="-2.83" />
<line x1="3.00" y1="-0.00" x2="4.00" y2="-0.00" />
<path d="M 3.00,-0.00 A 3.00 3.00 0.00 0 1 2.12,2.12" />
<path d="M 4.00,-0.00 A 4.00 4.00 0.00 0 1 2.83,2.83" />
<line x1="3.00" y1="-0.00" x2="4.00" y2="-0.00" />
<line x1="2.12" y1="2.12" x2="2.83" y2="2.83" />
</g>
</svg>