<svg xmlns="http://www.w3.org/2000/svg" width="161.8" height="100.0" viewBox="-4.11 1.45 171.80 110.00">
<g fill="none" stroke="black" stroke-width="0.1550%" transform="translate(0, 112.9032) scale(3.2258, -3.2258)">
<circle cx="0.28" cy="2.00" r="0.15" />
<circle cx="0.55" cy="3.00" r="0.15" />
<circle cx="0.83" cy="2.00" r="0.15" />
<circle cx="1.11" cy="3.00" r="0.15" />
<circle cx="1.39" cy="4.00" r="0.15" />
<circle cx="1.66" cy="2.00" r="0.15" />
<circle cx="1.94" cy="3.00" r="0.15" />
<circle cx="2.22" cy="5.00" r="0.15" />
<circle cx="2.49" cy="3.00" r="0.15" />
<circle cx="2.77" cy="5.00" r="0.15" />
<circle cx="3.05" cy="2.00" r="0.15" />
<circle cx="3.33" cy="6.00" r="0.15" />
<circle cx="3.60" cy="3.00" r="0.15" />
<circle cx="3.88" cy="4.00" r="0.15" />
<circle cx="4.16" cy="7.00" r="0.15" />
<circle cx="4.43" cy="2.00" r="0.15" />
<circle cx="4.71" cy="3.00" r="0.15" />
<circle cx="4.99" cy="7.00" r="0.15" />
<circle cx="5.27" cy="5.00" r="0.15" />
<circle cx="5.54" cy="8.00" r="0.15" />
<circle cx="5.82" cy="2.00" r="0.15" />
<circle cx="6.10" cy="3.00" r="0.15" />
<circle cx="6.37" cy="5.00" r="0.15" />
<circle cx="6.65" cy="9.00" r="0.15" />
<circle cx="6.93" cy="3.00" r="0.15" />
<circle cx="7.21" cy="4.00" r="0.15" />
<circle cx="7.48" cy="9.00" r="0.15" />
<circle cx="7.76" cy="2.00" r="0.15" />
<circle cx="8.04" cy="6.00" r="0.15" />
<circle cx="8.31" cy="10.00" r="0.15" />
<circle cx="8.59" cy="3.00" r="0.15" />
<circle cx="8.87" cy="11.00" r="0.15" />
<circle cx="9.15" cy="2.00" r="0.15" />
<circle cx="9.42" cy="3.00" r="0.15" />
<circle cx="9.70" cy="5.00" r="0.15" />
<circle cx="9.98" cy="7.00" r="0.15" />
<circle cx="10.25" cy="11.00" r="0.15" />
<circle cx="10.53" cy="4.00" r="0.15" />
<circle cx="10.81" cy="5.00" r="0.15" />
<circle cx="11.08" cy="7.00" r="0.15" />
<circle cx="11.36" cy="12.00" r="0.15" />
<circle cx="11.64" cy="2.00" r="0.15" />
<circle cx="11.92" cy="3.00" r="0.15" />
<circle cx="12.19" cy="13.00" r="0.15" />
<circle cx="12.47" cy="3.00" r="0.15" />
<circle cx="12.75" cy="8.00" r="0.15" />
<circle cx="13.02" cy="13.00" r="0.15" />
<circle cx="13.30" cy="2.00" r="0.15" />
<circle cx="13.58" cy="6.00" r="0.15" />
<circle cx="13.86" cy="14.00" r="0.15" />
<circle cx="14.13" cy="3.00" r="0.15" />
<circle cx="14.41" cy="4.00" r="0.15" />
<circle cx="14.69" cy="5.00" r="0.15" />
<circle cx="14.96" cy="9.00" r="0.15" />
<circle cx="15.24" cy="15.00" r="0.15" />
<circle cx="15.52" cy="2.00" r="0.15" />
<circle cx="15.80" cy="3.00" r="0.15" />
<circle cx="16.07" cy="5.00" r="0.15" />
<circle cx="16.35" cy="9.00" r="0.15" />
<circle cx="16.63" cy="15.00" r="0.15" />
<circle cx="16.90" cy="7.00" r="0.15" />
<circle cx="17.18" cy="16.00" r="0.15" />
<circle cx="17.46" cy="2.00" r="0.15" />
<circle cx="17.74" cy="3.00" r="0.15" />
<circle cx="18.01" cy="7.00" r="0.15" />
<circle cx="18.29" cy="10.00" r="0.15" />
<circle cx="18.57" cy="17.00" r="0.15" />
<circle cx="18.84" cy="3.00" r="0.15" />
<circle cx="19.12" cy="4.00" r="0.15" />
<circle cx="19.40" cy="17.00" r="0.15" />
<circle cx="19.68" cy="2.00" r="0.15" />
<circle cx="19.95" cy="5.00" r="0.15" />
<circle cx="20.23" cy="6.00" r="0.15" />
<circle cx="20.51" cy="11.00" r="0.15" />
<circle cx="20.78" cy="18.00" r="0.15" />
<circle cx="21.06" cy="3.00" r="0.15" />
<circle cx="21.34" cy="5.00" r="0.15" />
<circle cx="21.62" cy="8.00" r="0.15" />
<circle cx="21.89" cy="11.00" r="0.15" />
<circle cx="22.17" cy="19.00" r="0.15" />
<circle cx="22.45" cy="2.00" r="0.15" />
<circle cx="22.72" cy="3.00" r="0.15" />
<circle cx="23.00" cy="19.00" r="0.15" />
<circle cx="23.28" cy="4.00" r="0.15" />
<circle cx="23.56" cy="12.00" r="0.15" />
<circle cx="23.83" cy="20.00" r="0.15" />
<circle cx="24.11" cy="2.00" r="0.15" />
<circle cx="24.39" cy="3.00" r="0.15" />
<circle cx="24.66" cy="7.00" r="0.15" />
<circle cx="24.94" cy="9.00" r="0.15" />
<circle cx="25.22" cy="21.00" r="0.15" />
<circle cx="25.50" cy="3.00" r="0.15" />
<circle cx="25.77" cy="5.00" r="0.15" />
<circle cx="26.05" cy="7.00" r="0.15" />
<circle cx="26.33" cy="9.00" r="0.15" />
<circle cx="26.60" cy="13.00" r="0.15" />
<circle cx="26.88" cy="21.00" r="0.15" />
<circle cx="27.16" cy="2.00" r="0.15" />
<circle cx="27.44" cy="5.00" r="0.15" />
<circle cx="27.71" cy="6.00" r="0.15" />
<circle cx="27.99" cy="13.00" r="0.15" />
<circle cx="28.27" cy="22.00" r="0.15" />
<circle cx="28.54" cy="3.00" r="0.15" />
<circle cx="28.82" cy="4.00" r="0.15" />
<circle cx="29.10" cy="23.00" r="0.15" />
<circle cx="29.37" cy="2.00" r="0.15" />
<circle cx="29.65" cy="3.00" r="0.15" />
<circle cx="29.93" cy="10.00" r="0.15" />
<circle cx="30.21" cy="14.00" r="0.15" />
<circle cx="30.48" cy="23.00" r="0.15" />
<circle cx="30.76" cy="8.00" r="0.15" />
<circle cx="31.04" cy="24.00" r="0.15" />
<circle cx="31.31" cy="2.00" r="0.15" />
<circle cx="31.59" cy="3.00" r="0.15" />
<circle cx="31.87" cy="5.00" r="0.15" />
<circle cx="32.15" cy="15.00" r="0.15" />
<circle cx="32.42" cy="25.00" r="0.15" />
<circle cx="32.70" cy="3.00" r="0.15" />
<circle cx="32.98" cy="4.00" r="0.15" />
<circle cx="33.25" cy="5.00" r="0.15" />
<circle cx="33.53" cy="7.00" r="0.15" />
<circle cx="33.81" cy="11.00" r="0.15" />
<circle cx="34.09" cy="15.00" r="0.15" />
<circle cx="34.36" cy="25.00" r="0.15" />
<circle cx="34.64" cy="2.00" r="0.15" />
<circle cx="34.92" cy="6.00" r="0.15" />
<circle cx="35.19" cy="7.00" r="0.15" />
<circle cx="35.47" cy="11.00" r="0.15" />
<circle cx="35.75" cy="26.00" r="0.15" />
<circle cx="36.03" cy="3.00" r="0.15" />
<circle cx="36.30" cy="9.00" r="0.15" />
<circle cx="36.58" cy="16.00" r="0.15" />
<circle cx="36.86" cy="27.00" r="0.15" />
<circle cx="37.13" cy="2.00" r="0.15" />
<circle cx="37.41" cy="3.00" r="0.15" />
<circle cx="37.69" cy="9.00" r="0.15" />
<circle cx="37.97" cy="27.00" r="0.15" />
<circle cx="38.24" cy="4.00" r="0.15" />
<circle cx="38.52" cy="5.00" r="0.15" />
<circle cx="38.80" cy="12.00" r="0.15" />
<circle cx="39.07" cy="17.00" r="0.15" />
<circle cx="39.35" cy="28.00" r="0.15" />
<circle cx="39.63" cy="2.00" r="0.15" />
<circle cx="39.91" cy="3.00" r="0.15" />
<circle cx="40.18" cy="5.00" r="0.15" />
<circle cx="40.46" cy="17.00" r="0.15" />
<circle cx="40.74" cy="29.00" r="0.15" />
<circle cx="41.01" cy="3.00" r="0.15" />
<circle cx="41.29" cy="8.00" r="0.15" />
<circle cx="41.57" cy="29.00" r="0.15" />
<circle cx="41.85" cy="2.00" r="0.15" />
<circle cx="42.12" cy="6.00" r="0.15" />
<circle cx="42.40" cy="7.00" r="0.15" />
<circle cx="42.68" cy="10.00" r="0.15" />
<circle cx="42.95" cy="13.00" r="0.15" />
<circle cx="43.23" cy="18.00" r="0.15" />
<circle cx="43.51" cy="30.00" r="0.15" />
<circle cx="43.79" cy="3.00" r="0.15" />
<circle cx="44.06" cy="4.00" r="0.15" />
<circle cx="44.34" cy="7.00" r="0.15" />
<circle cx="44.62" cy="13.00" r="0.15" />
<circle cx="44.89" cy="31.00" r="0.15" />
<circle cx="45.17" cy="2.00" r="0.15" />
<circle cx="45.45" cy="3.00" r="0.15" />
<circle cx="45.73" cy="5.00" r="0.15" />
<circle cx="46.00" cy="19.00" r="0.15" />
<circle cx="46.28" cy="31.00" r="0.15" />
<circle cx="46.56" cy="5.00" r="0.15" />
<circle cx="46.83" cy="19.00" r="0.15" />
<circle cx="47.11" cy="32.00" r="0.15" />
<circle cx="47.39" cy="2.00" r="0.15" />
<circle cx="47.66" cy="3.00" r="0.15" />
<circle cx="47.94" cy="9.00" r="0.15" />
<circle cx="48.22" cy="11.00" r="0.15" />
<circle cx="48.50" cy="14.00" r="0.15" />
<circle cx="48.77" cy="33.00" r="0.15" />
<circle cx="49.05" cy="3.00" r="0.15" />
<circle cx="49.33" cy="4.00" r="0.15" />
<circle cx="49.60" cy="9.00" r="0.15" />
<circle cx="49.88" cy="11.00" r="0.15" />
<circle cx="50.16" cy="20.00" r="0.15" />
<circle cx="50.44" cy="33.00" r="0.15" />
</g>
</svg>