<svg xmlns="http://www.w3.org/2000/svg" width="161.8" height="100.0" viewBox="-1.32 -5.00 171.80 110.00">
<g fill="none" stroke="black" stroke-width="0.0400%" transform="translate(0, 100.0000) scale(12.5000, -12.5000)">

<line x1="0.59" y1="0.00" x2="0.59" y2="1.00" />
<line x1="0.88" y1="0.00" x2="0.88" y2="1.00" />
<line x1="1.18" y1="0.00" x2="1.18" y2="2.00" />

<line x1="1.77" y1="0.00" x2="1.77" y2="2.00" />
<line x1="2.06" y1="0.00" x2="2.06" y2="3.00" />
<line x1="2.35" y1="0.00" x2="2.35" y2="1.00" />
<line x1="2.65" y1="0.00" x2="2.65" y2="1.00" />
<line x1="2.94" y1="0.00" x2="2.94" y2="3.00" />
<line x1="3.24" y1="0.00" x2="3.24" y2="4.00" />
<line x1="3.53" y1="0.00" x2="3.53" y2="2.00" />

<line x1="4.12" y1="0.00" x2="4.12" y2="2.00" />
<line x1="4.41" y1="0.00" x2="4.41" y2="4.00" />
<line x1="4.71" y1="0.00" x2="4.71" y2="5.00" />
<line x1="5.00" y1="0.00" x2="5.00" y2="3.00" />
<line x1="5.30" y1="0.00" x2="5.30" y2="1.00" />
<line x1="5.59" y1="0.00" x2="5.59" y2="1.00" />
<line x1="5.88" y1="0.00" x2="5.88" y2="3.00" />
<line x1="6.18" y1="0.00" x2="6.18" y2="5.00" />
<line x1="6.47" y1="0.00" x2="6.47" y2="6.00" />
<line x1="6.77" y1="0.00" x2="6.77" y2="4.00" />
<line x1="7.06" y1="0.00" x2="7.06" y2="2.00" />

<line x1="7.65" y1="0.00" x2="7.65" y2="2.00" />
<line x1="7.94" y1="0.00" x2="7.94" y2="4.00" />
<line x1="8.24" y1="0.00" x2="8.24" y2="6.00" />
<line x1="8.53" y1="0.00" x2="8.53" y2="7.00" />
<line x1="8.83" y1="0.00" x2="8.83" y2="5.00" />
<line x1="9.12" y1="0.00" x2="9.12" y2="3.00" />
<line x1="9.41" y1="0.00" x2="9.41" y2="1.00" />
<line x1="9.71" y1="0.00" x2="9.71" y2="1.00" />
<line x1="10.00" y1="0.00" x2="10.00" y2="3.00" />
<line x1="10.30" y1="0.00" x2="10.30" y2="5.00" />
<line x1="10.59" y1="0.00" x2="10.59" y2="7.00" />
<line x1="10.88" y1="0.00" x2="10.88" y2="8.00" />
<line x1="11.18" y1="0.00" x2="11.18" y2="6.00" />
<line x1="11.47" y1="0.00" x2="11.47" y2="4.00" />
<line x1="11.77" y1="0.00" x2="11.77" y2="2.00" />

<line x1="12.36" y1="0.00" x2="12.36" y2="2.00" />
<line x1="12.65" y1="0.00" x2="12.65" y2="4.00" />
<line x1="12.94" y1="0.00" x2="12.94" y2="6.00" />
<line x1="13.24" y1="0.00" x2="13.24" y2="8.00" />
</g>
</svg>