<svg xmlns="http://www.w3.org/2000/svg" width="161.8" height="100.0" viewBox="-1.56 11.67 171.80 110.00">
<g fill="none" stroke="black" stroke-width="0.0300%" transform="translate(0, 133.3333) scale(16.6667, -16.6667)">
<circle cx="0.21" cy="1.00" r="0.03" />
<circle cx="0.41" cy="1.00" r="0.03" />
<circle cx="0.62" cy="2.00" r="0.03" />
<circle cx="0.83" cy="1.00" r="0.03" />
<circle cx="1.03" cy="3.00" r="0.03" />
<circle cx="1.24" cy="2.00" r="0.03" />
<circle cx="1.45" cy="2.00" r="0.03" />
<circle cx="1.65" cy="3.00" r="0.03" />
<circle cx="1.86" cy="3.00" r="0.03" />
<circle cx="2.07" cy="2.00" r="0.03" />
<circle cx="2.27" cy="4.00" r="0.03" />
<circle cx="2.48" cy="3.00" r="0.03" />
<circle cx="2.69" cy="3.00" r="0.03" />
<circle cx="2.89" cy="2.00" r="0.03" />
<circle cx="3.10" cy="5.00" r="0.03" />
<circle cx="3.30" cy="4.00" r="0.03" />
<circle cx="3.51" cy="3.00" r="0.03" />
<circle cx="3.72" cy="3.00" r="0.03" />
<circle cx="3.92" cy="3.00" r="0.03" />
<circle cx="4.13" cy="5.00" r="0.03" />
<circle cx="4.34" cy="5.00" r="0.03" />
<circle cx="4.54" cy="2.00" r="0.03" />
<circle cx="4.75" cy="5.00" r="0.03" />
<circle cx="4.96" cy="3.00" r="0.03" />
<circle cx="5.16" cy="5.00" r="0.03" />
<circle cx="5.37" cy="5.00" r="0.03" />
<circle cx="5.58" cy="3.00" r="0.03" />
<circle cx="5.78" cy="3.00" r="0.03" />
<circle cx="5.99" cy="5.00" r="0.03" />
<circle cx="6.20" cy="6.00" r="0.03" />
<circle cx="6.40" cy="5.00" r="0.03" />
<circle cx="6.61" cy="3.00" r="0.03" />
<circle cx="6.82" cy="5.00" r="0.03" />
<circle cx="7.02" cy="2.00" r="0.03" />
<circle cx="7.23" cy="5.00" r="0.03" />
<circle cx="7.44" cy="7.00" r="0.03" />
<circle cx="7.64" cy="5.00" r="0.03" />
<circle cx="7.85" cy="4.00" r="0.03" />
<circle cx="8.06" cy="4.00" r="0.03" />
<circle cx="8.26" cy="5.00" r="0.03" />
<circle cx="8.47" cy="5.00" r="0.03" />
<circle cx="8.68" cy="3.00" r="0.03" />
<circle cx="8.88" cy="7.00" r="0.03" />
<circle cx="9.09" cy="5.00" r="0.03" />
<circle cx="9.30" cy="5.00" r="0.03" />
<circle cx="9.50" cy="3.00" r="0.03" />
<circle cx="9.71" cy="6.00" r="0.03" />
<circle cx="9.91" cy="6.00" r="0.03" />
</g>
</svg>