<svg xmlns="http://www.w3.org/2000/svg" width="161.8" height="100.0" viewBox="-2.51 -55.00 171.80 110.00">
<g fill="none" stroke="black" stroke-width="0.1000%" transform="translate(0, 0.0000) scale(5.0000, -5.0000)">

<line x1="1.00" y1="0.00" x2="1.00" y2="1.00" />
<line x1="1.49" y1="0.00" x2="1.49" y2="-1.00" />
<line x1="1.99" y1="0.00" x2="1.99" y2="2.00" />

<line x1="2.99" y1="0.00" x2="2.99" y2="-2.00" />
<line x1="3.48" y1="0.00" x2="3.48" y2="3.00" />
<line x1="3.98" y1="0.00" x2="3.98" y2="1.00" />
<line x1="4.48" y1="0.00" x2="4.48" y2="-1.00" />
<line x1="4.98" y1="0.00" x2="4.98" y2="-3.00" />
<line x1="5.48" y1="0.00" x2="5.48" y2="4.00" />
<line x1="5.97" y1="0.00" x2="5.97" y2="2.00" />

<line x1="6.97" y1="0.00" x2="6.97" y2="-2.00" />
<line x1="7.47" y1="0.00" x2="7.47" y2="-4.00" />
<line x1="7.97" y1="0.00" x2="7.97" y2="5.00" />
<line x1="8.46" y1="0.00" x2="8.46" y2="3.00" />
<line x1="8.96" y1="0.00" x2="8.96" y2="1.00" />
<line x1="9.46" y1="0.00" x2="9.46" y2="-1.00" />
<line x1="9.96" y1="0.00" x2="9.96" y2="-3.00" />
<line x1="10.45" y1="0.00" x2="10.45" y2="-5.00" />
<line x1="10.95" y1="0.00" x2="10.95" y2="6.00" />
<line x1="11.45" y1="0.00" x2="11.45" y2="4.00" />
<line x1="11.95" y1="0.00" x2="11.95" y2="2.00" />

<line x1="12.94" y1="0.00" x2="12.94" y2="-2.00" />
<line x1="13.44" y1="0.00" x2="13.44" y2="-4.00" />
<line x1="13.94" y1="0.00" x2="13.94" y2="-6.00" />
<line x1="14.44" y1="0.00" x2="14.44" y2="7.00" />
<line x1="14.94" y1="0.00" x2="14.94" y2="5.00" />
<line x1="15.43" y1="0.00" x2="15.43" y2="3.00" />
<line x1="15.93" y1="0.00" x2="15.93" y2="1.00" />
<line x1="16.43" y1="0.00" x2="16.43" y2="-1.00" />
<line x1="16.93" y1="0.00" x2="16.93" y2="-3.00" />
<line x1="17.42" y1="0.00" x2="17.42" y2="-5.00" />
<line x1="17.92" y1="0.00" x2="17.92" y2="-7.00" />
<line x1="18.42" y1="0.00" x2="18.42" y2="8.00" />
<line x1="18.92" y1="0.00" x2="18.92" y2="6.00" />
<line x1="19.42" y1="0.00" x2="19.42" y2="4.00" />
<line x1="19.91" y1="0.00" x2="19.91" y2="2.00" />

<line x1="20.91" y1="0.00" x2="20.91" y2="-2.00" />
<line x1="21.41" y1="0.00" x2="21.41" y2="-4.00" />
<line x1="21.91" y1="0.00" x2="21.91" y2="-6.00" />
<line x1="22.40" y1="0.00" x2="22.40" y2="-8.00" />
<line x1="22.90" y1="0.00" x2="22.90" y2="9.00" />
<line x1="23.40" y1="0.00" x2="23.40" y2="7.00" />
<line x1="23.90" y1="0.00" x2="23.90" y2="5.00" />
<line x1="24.39" y1="0.00" x2="24.39" y2="3.00" />
<line x1="24.89" y1="0.00" x2="24.89" y2="1.00" />
<line x1="25.39" y1="0.00" x2="25.39" y2="-1.00" />
<line x1="25.89" y1="0.00" x2="25.89" y2="-3.00" />
<line x1="26.39" y1="0.00" x2="26.39" y2="-5.00" />
<line x1="26.88" y1="0.00" x2="26.88" y2="-7.00" />
<line x1="27.38" y1="0.00" x2="27.38" y2="-9.00" />
<line x1="27.88" y1="0.00" x2="27.88" y2="10.00" />
<line x1="28.38" y1="0.00" x2="28.38" y2="8.00" />
<line x1="28.88" y1="0.00" x2="28.88" y2="6.00" />
<line x1="29.37" y1="0.00" x2="29.37" y2="4.00" />
<line x1="29.87" y1="0.00" x2="29.87" y2="2.00" />

<line x1="30.87" y1="0.00" x2="30.87" y2="-2.00" />
<line x1="31.36" y1="0.00" x2="31.36" y2="-4.00" />
<line x1="31.86" y1="0.00" x2="31.86" y2="-6.00" />
<line x1="32.36" y1="0.00" x2="32.36" y2="-8.00" />
<line x1="32.86" y1="0.00" x2="32.86" y2="-10.00" />
</g>
</svg>