<svg xmlns="http://www.w3.org/2000/svg" width="161.8" height="100.0" viewBox="-1.76 6.11 171.80 110.00">
<g fill="none" stroke="black" stroke-width="0.0450%" transform="translate(0, 122.2222) scale(11.1111, -11.1111)">
<polyline points="0.29,1.00 0.58,1.00 0.58,1.00 0.87,1.00 0.87,3.00 1.16,3.00 1.16,3.00 1.46,3.00 1.46,6.00 1.75,6.00 1.75,2.00 2.04,2.00 2.04,4.00 2.33,4.00 2.33,7.00 2.62,7.00 2.62,2.00 2.91,2.00 2.91,6.00 3.20,6.00 3.20,7.00 3.49,7.00 3.49,3.00 3.79,3.00 3.79,1.00 4.08,1.00 4.08,4.00 4.37,4.00 4.37,3.00 4.66,3.00 4.66,8.00 4.95,8.00 4.95,7.00 5.24,7.00 5.24,2.00 5.53,2.00 5.53,1.00 5.82,1.00 5.82,3.00 6.12,3.00 6.12,5.00 6.41,5.00 6.41,10.00 6.70,10.00 6.70,2.00 6.99,2.00 6.99,1.00 7.28,1.00 7.28,3.00 7.57,3.00 7.57,3.00 7.86,3.00 7.86,2.00 8.15,2.00 8.15,1.00 8.45,1.00 8.45,5.00 8.74,5.00 8.74,1.00 9.03,1.00 9.03,1.00 9.32,1.00 9.32,1.00 9.61,1.00 9.61,4.00 9.90,4.00 9.90,4.00 10.19,4.00 10.19,2.00 10.48,2.00 10.48,2.00 10.78,2.00 10.78,2.00 11.07,2.00 11.07,9.00 11.36,9.00 11.36,2.00 11.65,2.00 11.65,6.00 11.94,6.00 11.94,9.00 12.23,9.00 12.23,1.00 12.52,1.00 12.52,1.00 12.81,1.00 12.81,4.00 13.11,4.00 13.11,4.00 13.40,4.00 13.40,1.00 13.69,1.00 13.69,3.00 13.98,3.00 13.98,6.00 14.27,6.00 14.27,1.00 14.56,1.00 14.56,3.00 14.85,3.00" />
</g>
</svg>