<svg xmlns="http://www.w3.org/2000/svg" width="161.8" height="100.0" viewBox="-1.8 -3.8 171.8 110.0">
<g fill="none" stroke="black" stroke-width="0.4300%" transform="translate(0, 102.3256) scale(1.1628, -1.1628)">
<polyline points="2.8,1.0 5.6,1.0 5.6,1.0 8.3,1.0 8.3,3.0 11.1,3.0 11.1,4.0 13.9,4.0 13.9,6.0 16.7,6.0 16.7,5.0 19.5,5.0 19.5,11.0 22.3,11.0 22.3,9.0 25.0,9.0 25.0,9.0 27.8,9.0 27.8,15.0 30.6,15.0 30.6,13.0 33.4,13.0 33.4,14.0 36.2,14.0 36.2,20.0 39.0,20.0 39.0,17.0 41.7,17.0 41.7,19.0 44.5,19.0 44.5,15.0 47.3,15.0 47.3,29.0 50.1,29.0 50.1,29.0 52.9,29.0 52.9,19.0 55.7,19.0 55.7,25.0 58.4,25.0 58.4,23.0 61.2,23.0 61.2,37.0 64.0,37.0 64.0,35.0 66.8,35.0 66.8,24.0 69.6,24.0 69.6,40.0 72.4,40.0 72.4,25.0 75.1,25.0 75.1,43.0 77.9,43.0 77.9,47.0 80.7,47.0 80.7,25.0 83.5,25.0 83.5,37.0 86.3,37.0 86.3,43.0 89.1,43.0 89.1,59.0 91.8,59.0 91.8,49.0 94.6,49.0 94.6,31.0 97.4,31.0 97.4,53.0 100.2,53.0 100.2,33.0 103.0,33.0 103.0,51.0 105.8,51.0 105.8,71.0 108.5,71.0 108.5,53.0 111.3,53.0 111.3,56.0 114.1,56.0 114.1,42.0 116.9,42.0 116.9,67.0 119.7,67.0 119.7,57.0 122.5,57.0 122.5,41.0 125.2,41.0 125.2,87.0 128.0,87.0 128.0,59.0 130.8,59.0 130.8,61.0 133.6,61.0 133.6,57.0 136.4,57.0 136.4,73.0 139.2,73.0 139.2,81.0 141.9,81.0" />
</g>
</svg>