<svg xmlns="http://www.w3.org/2000/svg" width="161.8" height="100.0" viewBox="-3.4 -5.0 171.8 110.0">
<g fill="none" stroke="black" stroke-width="0.2100%" transform="translate(0, 100.0000) scale(2.3810, -2.3810)">
<circle cx="0.7" cy="0.0" r="0.2" />
<circle cx="1.3" cy="0.0" r="0.2" />
<circle cx="2.0" cy="0.0" r="0.2" />
<circle cx="2.6" cy="0.0" r="0.2" />
<circle cx="3.3" cy="1.0" r="0.2" />
<circle cx="3.9" cy="0.0" r="0.2" />
<circle cx="4.6" cy="0.0" r="0.2" />
<circle cx="5.2" cy="2.0" r="0.2" />
<circle cx="5.9" cy="2.0" r="0.2" />
<circle cx="6.5" cy="0.0" r="0.2" />
<circle cx="7.2" cy="0.0" r="0.2" />
<circle cx="7.8" cy="3.0" r="0.2" />
<circle cx="8.5" cy="4.0" r="0.2" />
<circle cx="9.1" cy="3.0" r="0.2" />
<circle cx="9.8" cy="0.0" r="0.2" />
<circle cx="10.5" cy="0.0" r="0.2" />
<circle cx="11.1" cy="4.0" r="0.2" />
<circle cx="11.8" cy="6.0" r="0.2" />
<circle cx="12.4" cy="6.0" r="0.2" />
<circle cx="13.1" cy="4.0" r="0.2" />
<circle cx="13.7" cy="0.0" r="0.2" />
<circle cx="14.4" cy="0.0" r="0.2" />
<circle cx="15.0" cy="5.0" r="0.2" />
<circle cx="15.7" cy="8.0" r="0.2" />
<circle cx="16.3" cy="9.0" r="0.2" />
<circle cx="17.0" cy="8.0" r="0.2" />
<circle cx="17.6" cy="5.0" r="0.2" />
<circle cx="18.3" cy="0.0" r="0.2" />
<circle cx="18.9" cy="0.0" r="0.2" />
<circle cx="19.6" cy="6.0" r="0.2" />
<circle cx="20.3" cy="10.0" r="0.2" />
<circle cx="20.9" cy="12.0" r="0.2" />
<circle cx="21.6" cy="12.0" r="0.2" />
<circle cx="22.2" cy="10.0" r="0.2" />
<circle cx="22.9" cy="6.0" r="0.2" />
<circle cx="23.5" cy="0.0" r="0.2" />
<circle cx="24.2" cy="0.0" r="0.2" />
<circle cx="24.8" cy="7.0" r="0.2" />
<circle cx="25.5" cy="12.0" r="0.2" />
<circle cx="26.1" cy="15.0" r="0.2" />
<circle cx="26.8" cy="16.0" r="0.2" />
<circle cx="27.4" cy="15.0" r="0.2" />
<circle cx="28.1" cy="12.0" r="0.2" />
<circle cx="28.8" cy="7.0" r="0.2" />
<circle cx="29.4" cy="0.0" r="0.2" />
<circle cx="30.1" cy="0.0" r="0.2" />
<circle cx="30.7" cy="8.0" r="0.2" />
<circle cx="31.4" cy="14.0" r="0.2" />
<circle cx="32.0" cy="18.0" r="0.2" />
<circle cx="32.7" cy="20.0" r="0.2" />
<circle cx="33.3" cy="20.0" r="0.2" />
<circle cx="34.0" cy="18.0" r="0.2" />
<circle cx="34.6" cy="14.0" r="0.2" />
<circle cx="35.3" cy="8.0" r="0.2" />
<circle cx="35.9" cy="0.0" r="0.2" />
<circle cx="36.6" cy="0.0" r="0.2" />
<circle cx="37.2" cy="9.0" r="0.2" />
<circle cx="37.9" cy="16.0" r="0.2" />
<circle cx="38.6" cy="21.0" r="0.2" />
<circle cx="39.2" cy="24.0" r="0.2" />
<circle cx="39.9" cy="25.0" r="0.2" />
<circle cx="40.5" cy="24.0" r="0.2" />
<circle cx="41.2" cy="21.0" r="0.2" />
<circle cx="41.8" cy="16.0" r="0.2" />
<circle cx="42.5" cy="9.0" r="0.2" />
<circle cx="43.1" cy="0.0" r="0.2" />
<circle cx="43.8" cy="0.0" r="0.2" />
<circle cx="44.4" cy="10.0" r="0.2" />
<circle cx="45.1" cy="18.0" r="0.2" />
<circle cx="45.7" cy="24.0" r="0.2" />
<circle cx="46.4" cy="28.0" r="0.2" />
<circle cx="47.0" cy="30.0" r="0.2" />
<circle cx="47.7" cy="30.0" r="0.2" />
<circle cx="48.4" cy="28.0" r="0.2" />
<circle cx="49.0" cy="24.0" r="0.2" />
<circle cx="49.7" cy="18.0" r="0.2" />
<circle cx="50.3" cy="10.0" r="0.2" />
<circle cx="51.0" cy="0.0" r="0.2" />
<circle cx="51.6" cy="0.0" r="0.2" />
<circle cx="52.3" cy="11.0" r="0.2" />
<circle cx="52.9" cy="20.0" r="0.2" />
<circle cx="53.6" cy="27.0" r="0.2" />
<circle cx="54.2" cy="32.0" r="0.2" />
<circle cx="54.9" cy="35.0" r="0.2" />
<circle cx="55.5" cy="36.0" r="0.2" />
<circle cx="56.2" cy="35.0" r="0.2" />
<circle cx="56.8" cy="32.0" r="0.2" />
<circle cx="57.5" cy="27.0" r="0.2" />
<circle cx="58.2" cy="20.0" r="0.2" />
<circle cx="58.8" cy="11.0" r="0.2" />
<circle cx="59.5" cy="0.0" r="0.2" />
<circle cx="60.1" cy="0.0" r="0.2" />
<circle cx="60.8" cy="12.0" r="0.2" />
<circle cx="61.4" cy="22.0" r="0.2" />
<circle cx="62.1" cy="30.0" r="0.2" />
<circle cx="62.7" cy="36.0" r="0.2" />
<circle cx="63.4" cy="40.0" r="0.2" />
<circle cx="64.0" cy="42.0" r="0.2" />
<circle cx="64.7" cy="42.0" r="0.2" />
<circle cx="65.3" cy="40.0" r="0.2" />
<circle cx="66.0" cy="36.0" r="0.2" />
<circle cx="66.7" cy="30.0" r="0.2" />
<circle cx="67.3" cy="22.0" r="0.2" />
<circle cx="68.0" cy="12.0" r="0.2" />
<circle cx="68.6" cy="0.0" r="0.2" />
</g>
</svg>