<svg xmlns="http://www.w3.org/2000/svg" width="161.8" height="100.0" viewBox="-85.902 -55.000 171.803 110.000">
<g fill="none" stroke="black" stroke-width="0.0150%" transform="translate(0, 0.0000) scale(33.3333, -33.3333)">
<circle cx="-2.427" cy="0.000" r="0.015" />
<circle cx="0.000" cy="1.500" r="0.015" />
<polyline points="-2.427,-0.203 -2.379,-0.207 -2.330,-0.211 -2.281,-0.216 -2.233,-0.221 -2.184,-0.226 -2.136,-0.231 -2.087,-0.237 -2.039,-0.243 -1.990,-0.249 -1.942,-0.255 -1.893,-0.262 -1.845,-0.269 -1.796,-0.277 -1.747,-0.285 -1.699,-0.294 -1.650,-0.303 -1.602,-0.313 -1.553,-0.323 -1.505,-0.335 -1.456,-0.347 -1.408,-0.360 -1.359,-0.374 -1.311,-0.389 -1.262,-0.405 -1.214,-0.424 -1.165,-0.444 -1.116,-0.466 -1.068,-0.490 -1.019,-0.518 -0.971,-0.549 -0.922,-0.585 -0.874,-0.626 -0.825,-0.675 -0.777,-0.733 -0.728,-0.805 -0.680,-0.896 -0.631,-1.018 -0.582,-1.199 -0.534,-1.500 -0.485,-1.500 -0.437,0.000 -0.388,0.000 -0.340,0.000 -0.291,0.000 -0.243,0.000 -0.194,0.000 -0.146,0.000 -0.097,0.000 -0.049,0.000 -0.000,0.000 0.049,0.000 0.097,0.000 0.146,0.000 0.194,0.000 0.243,0.000 0.291,0.000 0.340,0.000 0.388,0.000 0.437,0.000 0.485,0.000 0.534,1.500 0.582,1.199 0.631,1.018 0.680,0.896 0.728,0.805 0.777,0.733 0.825,0.675 0.874,0.626 0.922,0.585 0.971,0.549 1.019,0.518 1.068,0.490 1.116,0.466 1.165,0.444 1.214,0.424 1.262,0.405 1.311,0.389 1.359,0.374 1.408,0.360 1.456,0.347 1.505,0.335 1.553,0.323 1.602,0.313 1.650,0.303 1.699,0.294 1.747,0.285 1.796,0.277 1.845,0.269 1.893,0.262 1.942,0.255 1.990,0.249 2.039,0.243 2.087,0.237 2.136,0.231 2.184,0.226 2.233,0.221 2.281,0.216 2.330,0.211 2.379,0.207 2.427,0.203" />
</g>
</svg>