<svg xmlns="http://www.w3.org/2000/svg" width="161.8" height="100.0" viewBox="-85.902 7.670 171.803 110.000">
<g fill="none" stroke="black" stroke-width="0.0125%" transform="translate(0, 125.3392) scale(39.8967, -39.8967)">
<polyline points="-2.028,2.824 -1.987,2.768 -1.947,2.719 -1.906,2.675 -1.866,2.634 -1.825,2.596 -1.784,2.561 -1.744,2.527 -1.703,2.495 -1.663,2.464 -1.622,2.434 -1.582,2.405 -1.541,2.377 -1.501,2.350 -1.460,2.324 -1.419,2.298 -1.379,2.273 -1.338,2.248 -1.298,2.224 -1.257,2.201 -1.217,2.177 -1.176,2.154 -1.136,2.132 -1.095,2.109 -1.054,2.087 -1.014,2.066 -0.973,2.044 -0.933,2.023 -0.892,2.002 -0.852,1.981 -0.811,1.961 -0.771,1.940 -0.730,1.920 -0.689,1.900 -0.649,1.880 -0.608,1.860 -0.568,1.840 -0.527,1.820 -0.487,1.801 -0.446,1.781 -0.406,1.762 -0.365,1.743 -0.324,1.723 -0.284,1.704 -0.243,1.685 -0.203,1.666 -0.162,1.647 -0.122,1.628 -0.081,1.609 -0.041,1.590 0.000,1.571 0.041,1.552 0.081,1.533 0.122,1.514 0.162,1.495 0.203,1.476 0.243,1.457 0.284,1.437 0.324,1.418 0.365,1.399 0.406,1.380 0.446,1.360 0.487,1.341 0.527,1.321 0.568,1.302 0.608,1.282 0.649,1.262 0.689,1.242 0.730,1.222 0.771,1.201 0.811,1.181 0.852,1.160 0.892,1.140 0.933,1.119 0.973,1.097 1.014,1.076 1.054,1.054 1.095,1.032 1.136,1.010 1.176,0.987 1.217,0.964 1.257,0.941 1.298,0.917 1.338,0.893 1.379,0.868 1.419,0.843 1.460,0.818 1.501,0.791 1.541,0.764 1.582,0.736 1.622,0.707 1.663,0.678 1.703,0.647 1.744,0.615 1.784,0.581 1.825,0.545 1.866,0.507 1.906,0.467 1.947,0.423 1.987,0.374 2.028,0.318" />
</g>
</svg>