<svg xmlns="http://www.w3.org/2000/svg" width="161.8" height="100.0" viewBox="-85.902 -56.638 171.803 110.000">
<g fill="none" stroke="black" stroke-width="0.0152%" transform="translate(0, -3.2765) scale(32.8739, -32.8739)">
<polyline points="-2.461,-0.197 -2.412,-0.201 -2.363,-0.205 -2.313,-0.210 -2.264,-0.214 -2.215,-0.219 -2.166,-0.223 -2.116,-0.228 -2.067,-0.234 -2.018,-0.239 -1.969,-0.245 -1.920,-0.251 -1.870,-0.257 -1.821,-0.264 -1.772,-0.271 -1.723,-0.278 -1.673,-0.286 -1.624,-0.294 -1.575,-0.303 -1.526,-0.312 -1.477,-0.322 -1.427,-0.332 -1.378,-0.343 -1.329,-0.355 -1.280,-0.367 -1.230,-0.381 -1.181,-0.395 -1.132,-0.410 -1.083,-0.427 -1.034,-0.444 -0.984,-0.464 -0.935,-0.484 -0.886,-0.507 -0.837,-0.532 -0.788,-0.559 -0.738,-0.588 -0.689,-0.620 -0.640,-0.656 -0.591,-0.695 -0.541,-0.738 -0.492,-0.785 -0.443,-0.838 -0.394,-0.896 -0.345,-0.960 -0.295,-1.030 -0.246,-1.107 -0.197,-1.190 -0.148,-1.279 -0.098,-1.373 -0.049,-1.471 -0.000,-1.571 0.049,1.471 0.098,1.373 0.148,1.279 0.197,1.190 0.246,1.107 0.295,1.030 0.345,0.960 0.394,0.896 0.443,0.838 0.492,0.785 0.541,0.738 0.591,0.695 0.640,0.656 0.689,0.620 0.738,0.588 0.788,0.559 0.837,0.532 0.886,0.507 0.935,0.484 0.984,0.464 1.034,0.444 1.083,0.427 1.132,0.410 1.181,0.395 1.230,0.381 1.280,0.367 1.329,0.355 1.378,0.343 1.427,0.332 1.477,0.322 1.526,0.312 1.575,0.303 1.624,0.294 1.673,0.286 1.723,0.278 1.772,0.271 1.821,0.264 1.870,0.257 1.920,0.251 1.969,0.245 2.018,0.239 2.067,0.234 2.116,0.228 2.166,0.223 2.215,0.219 2.264,0.214 2.313,0.210 2.363,0.205 2.412,0.201 2.461,0.197" />
</g>
</svg>