<svg xmlns="http://www.w3.org/2000/svg" width="103.1" height="100.0" viewBox="-58.06 -53.43 113.09 110.00">
<g fill="none" stroke="black" stroke-width="0.0501%" transform="translate(0, 3.1422) scale(9.9781, -9.9781)">
<polyline points="0.00,0.00 0.37,0.05 0.51,0.15 0.59,0.27 0.63,0.40 0.64,0.55 0.61,0.69 0.55,0.83 0.45,0.96 0.33,1.08 0.19,1.17 0.02,1.25 -0.16,1.29 -0.36,1.31 -0.56,1.29 -0.76,1.24 -0.96,1.16 -1.15,1.04 -1.32,0.90 -1.47,0.72 -1.60,0.52 -1.70,0.30 -1.76,0.06 -1.79,-0.20 -1.78,-0.46 -1.74,-0.72 -1.65,-0.98 -1.52,-1.22 -1.36,-1.45 -1.16,-1.66 -0.93,-1.83 -0.68,-1.98 -0.40,-2.09 -0.10,-2.16 0.21,-2.18 0.52,-2.16 0.83,-2.10 1.13,-1.99 1.42,-1.83 1.69,-1.63 1.92,-1.40 2.13,-1.13 2.29,-0.83 2.41,-0.50 2.49,-0.16 2.51,0.20 2.49,0.56 2.41,0.91 2.28,1.25 2.10,1.58 1.88,1.88 1.61,2.15 1.31,2.38 0.97,2.56 0.60,2.70 0.22,2.78 -0.18,2.81 -0.58,2.78 -0.97,2.69 -1.35,2.55 -1.71,2.36 -2.04,2.11 -2.34,1.81 -2.59,1.48 -2.80,1.11 -2.95,0.71 -3.04,0.29 -3.07,-0.14 -3.05,-0.58 -2.95,-1.01 -2.80,-1.43 -2.59,-1.82 -2.33,-2.18 -2.01,-2.51 -1.65,-2.78 -1.25,-3.01 -0.82,-3.17 -0.36,-3.28 0.10,-3.32 0.57,-3.29 1.04,-3.20 1.49,-3.04 1.91,-2.82 2.31,-2.53 2.66,-2.20 2.96,-1.81 3.20,-1.38 3.38,-0.93 3.50,-0.44 3.55,0.06 3.52,0.56 3.43,1.05 3.26,1.54 3.03,1.99 2.73,2.41 2.38,2.79 1.97,3.11 1.52,3.38 1.04,3.57 0.53,3.70 -0.00,3.76 -0.53,3.74 -1.06,3.65 -1.57,3.48 -2.05,3.24 -2.50,2.93 -2.90,2.56 -3.25,2.14 -3.54,1.66 -3.75,1.15 -3.89,0.62 -3.96,0.06 -3.95,-0.50 -3.86,-1.05 -3.68,-1.59 -3.44,-2.11 -3.12,-2.58 -2.74,-3.01 -2.30,-3.38 -1.80,-3.68 -1.27,-3.92 -0.71,-4.07 -0.13,-4.15 0.46,-4.14 1.04,-4.06 1.61,-3.88 2.15,-3.63 2.65,-3.31 3.10,-2.91 3.49,-2.46 3.82,-1.95 4.07,-1.39 4.24,-0.81 4.33,-0.20 4.33,0.41 4.25,1.02 4.08,1.61 3.82,2.18 3.49,2.71 3.08,3.18 2.61,3.60 2.09,3.95 1.52,4.22 0.91,4.40 0.28,4.50 -0.36,4.51 -0.99,4.43 -1.61,4.26 -2.20,4.01 -2.76,3.67 -3.26,3.26 -3.69,2.77 -4.06,2.23 -4.35,1.64 -4.55,1.02 -4.67,0.37 -4.69,-0.29 -4.61,-0.96 -4.45,-1.60 -4.19,-2.22 -3.85,-2.80 -3.43,-3.32 -2.93,-3.78 -2.38,-4.17 -1.77,-4.48 -1.13,-4.70 -0.46,-4.82 0.23,-4.85 0.91,-4.79 1.58,-4.62 2.23,-4.37 2.83,-4.02 3.38,-3.59 3.86,-3.09 4.27,-2.52 4.60,-1.90 4.83,-1.24 4.97,-0.55 5.01,0.16 4.96,0.86 4.80,1.56 4.54,2.23 4.20,2.85 3.76,3.42 3.25,3.93 2.67,4.36 2.04,4.71 1.36,4.96 0.65,5.11 -0.08,5.17 -0.81,5.12 -1.53,4.97 -2.22,4.71 -2.87,4.37 -3.46,3.93 -3.99,3.41 -4.44,2.82 -4.81,2.17 -5.08,1.48 -5.25,0.75 -5.32,0.00" />
</g>
</svg>