<svg xmlns="http://www.w3.org/2000/svg" width="161.8" height="100.0" viewBox="-36.053 -5.000 171.803 110.000">
<g fill="none" stroke="black" stroke-width="0.0051%" transform="translate(0, 100.0000) scale(98.0962, -98.0962)">
<polyline points="-0.317,1.019 -0.300,0.730 -0.283,0.604 -0.267,0.531 -0.250,0.481 -0.233,0.446 -0.217,0.419 -0.200,0.398 -0.183,0.381 -0.167,0.368 -0.150,0.356 -0.133,0.347 -0.117,0.340 -0.100,0.334 -0.083,0.329 -0.067,0.325 -0.050,0.322 -0.033,0.320 -0.017,0.319 0.000,0.318 0.017,0.319 0.033,0.320 0.050,0.322 0.067,0.325 0.083,0.329 0.100,0.334 0.117,0.340 0.133,0.347 0.150,0.356 0.167,0.368 0.183,0.381 0.200,0.398 0.217,0.419 0.233,0.446 0.250,0.481 0.267,0.531 0.283,0.604 0.300,0.730 0.317,1.019 0.333,0.000 0.350,0.000 0.367,0.000 0.383,0.000 0.400,0.000 0.417,0.000 0.433,0.000 0.450,0.000 0.467,0.000 0.483,0.000 0.500,0.000 0.516,0.000 0.533,0.000 0.550,0.000 0.566,0.000 0.583,0.000 0.600,0.000 0.616,0.000 0.633,0.000 0.650,0.000 0.666,0.000 0.683,0.000 0.700,0.000 0.716,0.000 0.733,0.000 0.750,0.000 0.766,0.000 0.783,0.000 0.800,0.000 0.816,0.000 0.833,0.000 0.850,0.000 0.866,0.000 0.883,0.000 0.900,0.000 0.916,0.000 0.933,0.000 0.950,0.000 0.966,0.000 0.983,0.000 1.000,0.000 1.016,0.000 1.033,0.000 1.050,0.000 1.066,0.000 1.083,0.000 1.100,0.000 1.116,0.000 1.133,0.000 1.150,0.000 1.166,0.000 1.183,0.000 1.200,0.000 1.216,0.000 1.233,0.000 1.250,0.000 1.266,0.000 1.283,0.000 1.300,0.000 1.316,0.000 1.333,0.000" />
<polyline points="-0.317,0.829 -0.300,0.591 -0.283,0.487 -0.267,0.425 -0.250,0.384 -0.233,0.354 -0.217,0.331 -0.200,0.312 -0.183,0.297 -0.167,0.285 -0.150,0.274 -0.133,0.265 -0.117,0.258 -0.100,0.251 -0.083,0.245 -0.067,0.240 -0.050,0.235 -0.033,0.232 -0.017,0.228 0.000,0.225 0.017,0.222 0.033,0.220 0.050,0.218 0.067,0.217 0.083,0.215 0.100,0.214 0.117,0.213 0.133,0.213 0.150,0.212 0.167,0.212 0.183,0.212 0.200,0.213 0.217,0.213 0.233,0.214 0.250,0.215 0.267,0.217 0.283,0.218 0.300,0.220 0.317,0.222 0.333,0.225 0.350,0.228 0.367,0.232 0.383,0.235 0.400,0.240 0.417,0.245 0.433,0.251 0.450,0.258 0.467,0.265 0.483,0.274 0.500,0.285 0.516,0.297 0.533,0.312 0.550,0.331 0.566,0.354 0.583,0.384 0.600,0.425 0.616,0.487 0.633,0.591 0.650,0.829 0.666,0.000 0.683,0.000 0.700,0.000 0.716,0.000 0.733,0.000 0.750,0.000 0.766,0.000 0.783,0.000 0.800,0.000 0.816,0.000 0.833,0.000 0.850,0.000 0.866,0.000 0.883,0.000 0.900,0.000 0.916,0.000 0.933,0.000 0.950,0.000 0.966,0.000 0.983,0.000 1.000,0.000 1.016,0.000 1.033,0.000 1.050,0.000 1.066,0.000 1.083,0.000 1.100,0.000 1.116,0.000 1.133,0.000 1.150,0.000 1.166,0.000 1.183,0.000 1.200,0.000 1.216,0.000 1.233,0.000 1.250,0.000 1.266,0.000 1.283,0.000 1.300,0.000 1.316,0.000 1.333,0.000" />
<polyline points="-0.317,0.640 -0.300,0.455 -0.283,0.373 -0.267,0.325 -0.250,0.292 -0.233,0.268 -0.217,0.250 -0.200,0.235 -0.183,0.222 -0.167,0.212 -0.150,0.203 -0.133,0.196 -0.117,0.189 -0.100,0.183 -0.083,0.178 -0.067,0.174 -0.050,0.169 -0.033,0.166 -0.017,0.162 0.000,0.159 0.017,0.156 0.033,0.154 0.050,0.151 0.067,0.149 0.083,0.147 0.100,0.145 0.117,0.143 0.133,0.142 0.150,0.140 0.167,0.139 0.183,0.138 0.200,0.136 0.217,0.135 0.233,0.134 0.250,0.133 0.267,0.133 0.283,0.132 0.300,0.131 0.317,0.131 0.333,0.130 0.350,0.129 0.367,0.129 0.383,0.129 0.400,0.128 0.417,0.128 0.433,0.128 0.450,0.128 0.467,0.127 0.483,0.127 0.500,0.127 0.516,0.127 0.533,0.127 0.550,0.128 0.566,0.128 0.583,0.128 0.600,0.128 0.616,0.129 0.633,0.129 0.650,0.129 0.666,0.130 0.683,0.131 0.700,0.131 0.716,0.132 0.733,0.133 0.750,0.133 0.766,0.134 0.783,0.135 0.800,0.136 0.816,0.138 0.833,0.139 0.850,0.140 0.866,0.142 0.883,0.143 0.900,0.145 0.916,0.147 0.933,0.149 0.950,0.151 0.966,0.154 0.983,0.156 1.000,0.159 1.016,0.162 1.033,0.166 1.050,0.169 1.066,0.174 1.083,0.178 1.100,0.183 1.116,0.189 1.133,0.196 1.150,0.203 1.166,0.212 1.183,0.222 1.200,0.235 1.216,0.250 1.233,0.268 1.250,0.292 1.266,0.325 1.283,0.373 1.300,0.455 1.316,0.640" />
</g>
</svg>