<svg xmlns="http://www.w3.org/2000/svg" width="161.8" height="100.0" viewBox="-85.90 -55.00 171.80 110.00">
<g fill="none" stroke="black" stroke-width="0.0300%" transform="translate(0, 0.0000) scale(16.6765, -16.6765)">
<polyline points="-4.85,-3.00 -4.75,-2.98 -4.66,-2.96 -4.56,-2.94 -4.46,-2.92 -4.37,-2.89 -4.27,-2.87 -4.17,-2.85 -4.08,-2.82 -3.98,-2.80 -3.88,-2.78 -3.78,-2.75 -3.69,-2.73 -3.59,-2.70 -3.49,-2.67 -3.40,-2.64 -3.30,-2.62 -3.20,-2.59 -3.10,-2.56 -3.01,-2.52 -2.91,-2.49 -2.81,-2.46 -2.72,-2.42 -2.62,-2.39 -2.52,-2.35 -2.43,-2.31 -2.33,-2.27 -2.23,-2.23 -2.13,-2.19 -2.04,-2.14 -1.94,-2.09 -1.84,-2.05 -1.75,-1.99 -1.65,-1.94 -1.55,-1.88 -1.46,-1.82 -1.36,-1.75 -1.26,-1.68 -1.16,-1.61 -1.07,-1.53 -0.97,-1.44 -0.87,-1.35 -0.78,-1.25 -0.68,-1.14 -0.58,-1.02 -0.49,-0.88 -0.39,-0.73 -0.29,-0.57 -0.19,-0.39 -0.10,-0.20 -0.00,-0.00 0.10,0.20 0.19,0.39 0.29,0.57 0.39,0.73 0.49,0.88 0.58,1.02 0.68,1.14 0.78,1.25 0.87,1.35 0.97,1.44 1.07,1.53 1.16,1.61 1.26,1.68 1.36,1.75 1.46,1.82 1.55,1.88 1.65,1.94 1.75,1.99 1.84,2.05 1.94,2.09 2.04,2.14 2.13,2.19 2.23,2.23 2.33,2.27 2.43,2.31 2.52,2.35 2.62,2.39 2.72,2.42 2.81,2.46 2.91,2.49 3.01,2.52 3.10,2.56 3.20,2.59 3.30,2.62 3.40,2.64 3.49,2.67 3.59,2.70 3.69,2.73 3.78,2.75 3.88,2.78 3.98,2.80 4.08,2.82 4.17,2.85 4.27,2.87 4.37,2.89 4.46,2.92 4.56,2.94 4.66,2.96 4.75,2.98 4.85,3.00" />
</g>
</svg>