<svg xmlns="http://www.w3.org/2000/svg" width="161.8" height="100.0" viewBox="-85.902 10.845 171.803 110.000">
<g fill="none" stroke="black" stroke-width="0.0136%" transform="translate(0, 131.6900) scale(36.8746, -36.8746)">
<polyline points="-2.194,1.772 -2.150,1.776 -2.106,1.781 -2.062,1.785 -2.018,1.790 -1.975,1.795 -1.931,1.800 -1.887,1.806 -1.843,1.811 -1.799,1.817 -1.755,1.823 -1.711,1.830 -1.667,1.837 -1.624,1.844 -1.580,1.852 -1.536,1.861 -1.492,1.869 -1.448,1.879 -1.404,1.889 -1.360,1.899 -1.316,1.911 -1.273,1.923 -1.229,1.936 -1.185,1.950 -1.141,1.966 -1.097,1.982 -1.053,2.001 -1.009,2.021 -0.965,2.043 -0.921,2.067 -0.878,2.094 -0.834,2.125 -0.790,2.160 -0.746,2.200 -0.702,2.246 -0.658,2.301 -0.614,2.366 -0.570,2.448 -0.527,2.556 -0.483,2.712 -0.439,3.142" />
<polyline points="0.483,0.430 0.527,0.586 0.570,0.693 0.614,0.775 0.658,0.841 0.702,0.896 0.746,0.942 0.790,0.982 0.834,1.017 0.878,1.047 0.921,1.074 0.965,1.099 1.009,1.121 1.053,1.141 1.097,1.159 1.141,1.176 1.185,1.191 1.229,1.206 1.273,1.219 1.316,1.231 1.360,1.242 1.404,1.253 1.448,1.263 1.492,1.272 1.536,1.281 1.580,1.289 1.624,1.297 1.667,1.305 1.711,1.311 1.755,1.318 1.799,1.324 1.843,1.330 1.887,1.336 1.931,1.342 1.975,1.347 2.018,1.352 2.062,1.356 2.106,1.361 2.150,1.365 2.194,1.369" />
</g>
</svg>