<svg xmlns="http://www.w3.org/2000/svg" width="161.8" height="100.0" viewBox="-85.902 -55.000 171.803 110.000">
<g fill="none" stroke="black" stroke-width="0.0137%" transform="translate(0, 0.0000) scale(36.4060, -36.4060)">
<polyline points="-2.222,-1.373 -2.178,-1.369 -2.133,-1.365 -2.089,-1.361 -2.044,-1.357 -2.000,-1.352 -1.956,-1.347 -1.911,-1.342 -1.867,-1.337 -1.822,-1.332 -1.778,-1.326 -1.733,-1.320 -1.689,-1.313 -1.644,-1.307 -1.600,-1.300 -1.556,-1.292 -1.511,-1.285 -1.467,-1.277 -1.422,-1.268 -1.378,-1.259 -1.333,-1.249 -1.289,-1.239 -1.244,-1.228 -1.200,-1.216 -1.156,-1.204 -1.111,-1.190 -1.067,-1.176 -1.022,-1.161 -0.978,-1.144 -0.933,-1.126 -0.889,-1.107 -0.844,-1.086 -0.800,-1.064 -0.756,-1.039 -0.711,-1.012 -0.667,-0.983 -0.622,-0.951 -0.578,-0.915 -0.533,-0.876 -0.489,-0.833 -0.444,-0.785 -0.400,-0.733 -0.356,-0.675 -0.311,-0.611 -0.267,-0.540 -0.222,-0.464 -0.178,-0.381 -0.133,-0.291 -0.089,-0.197 -0.044,-0.100 -0.000,-0.000 0.044,0.100 0.089,0.197 0.133,0.291 0.178,0.381 0.222,0.464 0.267,0.540 0.311,0.611 0.356,0.675 0.400,0.733 0.444,0.785 0.489,0.833 0.533,0.876 0.578,0.915 0.622,0.951 0.667,0.983 0.711,1.012 0.756,1.039 0.800,1.064 0.844,1.086 0.889,1.107 0.933,1.126 0.978,1.144 1.022,1.161 1.067,1.176 1.111,1.190 1.156,1.204 1.200,1.216 1.244,1.228 1.289,1.239 1.333,1.249 1.378,1.259 1.422,1.268 1.467,1.277 1.511,1.285 1.556,1.292 1.600,1.300 1.644,1.307 1.689,1.313 1.733,1.320 1.778,1.326 1.822,1.332 1.867,1.337 1.911,1.342 1.956,1.347 2.000,1.352 2.044,1.357 2.089,1.361 2.133,1.365 2.178,1.369 2.222,1.373" />
</g>
</svg>