<svg xmlns="http://www.w3.org/2000/svg" width="99" height="99" viewBox="0 0 99 99">
<g stroke="none" transform="translate(0, 0) scale(1, 1)">
<rect x="11" y="11" width="11" height="11" fill="rgb(223,223,223)"/>
<rect x="11" y="22" width="11" height="11" fill="rgb(209,209,209)"/>
<rect x="11" y="33" width="11" height="11" fill="rgb(196,196,196)"/>
<rect x="11" y="44" width="11" height="11" fill="rgb(184,184,184)"/>
<rect x="11" y="55" width="11" height="11" fill="rgb(172,172,172)"/>
<rect x="11" y="66" width="11" height="11" fill="rgb(161,161,161)"/>
<rect x="11" y="77" width="11" height="11" fill="rgb(150,150,150)"/>
<rect x="11" y="88" width="11" height="11" fill="rgb(140,140,140)"/>
<rect x="22" y="11" width="11" height="11" fill="rgb(209,209,209)"/>
<rect x="22" y="22" width="11" height="11" fill="rgb(191,191,191)"/>
<rect x="22" y="33" width="11" height="11" fill="rgb(176,176,176)"/>
<rect x="22" y="44" width="11" height="11" fill="rgb(162,162,162)"/>
<rect x="22" y="55" width="11" height="11" fill="rgb(149,149,149)"/>
<rect x="22" y="66" width="11" height="11" fill="rgb(136,136,136)"/>
<rect x="22" y="77" width="11" height="11" fill="rgb(124,124,124)"/>
<rect x="22" y="88" width="11" height="11" fill="rgb(112,112,112)"/>
<rect x="33" y="11" width="11" height="11" fill="rgb(196,196,196)"/>
<rect x="33" y="22" width="11" height="11" fill="rgb(176,176,176)"/>
<rect x="33" y="33" width="11" height="11" fill="rgb(159,159,159)"/>
<rect x="33" y="44" width="11" height="11" fill="rgb(144,144,144)"/>
<rect x="33" y="55" width="11" height="11" fill="rgb(130,130,130)"/>
<rect x="33" y="66" width="11" height="11" fill="rgb(116,116,116)"/>
<rect x="33" y="77" width="11" height="11" fill="rgb(102,102,102)"/>
<rect x="33" y="88" width="11" height="11" fill="rgb(89,89,89)"/>
<rect x="44" y="11" width="11" height="11" fill="rgb(184,184,184)"/>
<rect x="44" y="22" width="11" height="11" fill="rgb(162,162,162)"/>
<rect x="44" y="33" width="11" height="11" fill="rgb(144,144,144)"/>
<rect x="44" y="44" width="11" height="11" fill="rgb(128,128,128)"/>
<rect x="44" y="55" width="11" height="11" fill="rgb(112,112,112)"/>
<rect x="44" y="66" width="11" height="11" fill="rgb(97,97,97)"/>
<rect x="44" y="77" width="11" height="11" fill="rgb(83,83,83)"/>
<rect x="44" y="88" width="11" height="11" fill="rgb(69,69,69)"/>
<rect x="55" y="11" width="11" height="11" fill="rgb(172,172,172)"/>
<rect x="55" y="22" width="11" height="11" fill="rgb(149,149,149)"/>
<rect x="55" y="33" width="11" height="11" fill="rgb(130,130,130)"/>
<rect x="55" y="44" width="11" height="11" fill="rgb(112,112,112)"/>
<rect x="55" y="55" width="11" height="11" fill="rgb(96,96,96)"/>
<rect x="55" y="66" width="11" height="11" fill="rgb(80,80,80)"/>
<rect x="55" y="77" width="11" height="11" fill="rgb(65,65,65)"/>
<rect x="55" y="88" width="11" height="11" fill="rgb(51,51,51)"/>
<rect x="66" y="11" width="11" height="11" fill="rgb(161,161,161)"/>
<rect x="66" y="22" width="11" height="11" fill="rgb(136,136,136)"/>
<rect x="66" y="33" width="11" height="11" fill="rgb(116,116,116)"/>
<rect x="66" y="44" width="11" height="11" fill="rgb(97,97,97)"/>
<rect x="66" y="55" width="11" height="11" fill="rgb(80,80,80)"/>
<rect x="66" y="66" width="11" height="11" fill="rgb(64,64,64)"/>
<rect x="66" y="77" width="11" height="11" fill="rgb(48,48,48)"/>
<rect x="66" y="88" width="11" height="11" fill="rgb(33,33,33)"/>
<rect x="77" y="11" width="11" height="11" fill="rgb(150,150,150)"/>
<rect x="77" y="22" width="11" height="11" fill="rgb(124,124,124)"/>
<rect x="77" y="33" width="11" height="11" fill="rgb(102,102,102)"/>
<rect x="77" y="44" width="11" height="11" fill="rgb(83,83,83)"/>
<rect x="77" y="55" width="11" height="11" fill="rgb(65,65,65)"/>
<rect x="77" y="66" width="11" height="11" fill="rgb(48,48,48)"/>
<rect x="77" y="77" width="11" height="11" fill="rgb(32,32,32)"/>
<rect x="77" y="88" width="11" height="11" fill="rgb(16,16,16)"/>
<rect x="88" y="11" width="11" height="11" fill="rgb(140,140,140)"/>
<rect x="88" y="22" width="11" height="11" fill="rgb(112,112,112)"/>
<rect x="88" y="33" width="11" height="11" fill="rgb(89,89,89)"/>
<rect x="88" y="44" width="11" height="11" fill="rgb(69,69,69)"/>
<rect x="88" y="55" width="11" height="11" fill="rgb(51,51,51)"/>
<rect x="88" y="66" width="11" height="11" fill="rgb(33,33,33)"/>
<rect x="88" y="77" width="11" height="11" fill="rgb(16,16,16)"/>
<rect x="88" y="88" width="11" height="11" fill="rgb(0,0,0)"/>
</g>
</svg>