<svg xmlns="http://www.w3.org/2000/svg" width="161.8" height="100.0" viewBox="-3 -5 172 110">
<g fill="none" stroke="black" stroke-width="11.8400%" transform="translate(0, 100.0000) scale(0.0422, -0.0422)">




<line x1="225" y1="0" x2="225" y2="4" />



<line x1="406" y1="0" x2="406" y2="32" />
<line x1="451" y1="0" x2="451" y2="1" />


<line x1="586" y1="0" x2="586" y2="80" />

<line x1="676" y1="0" x2="676" y2="5" />
<line x1="721" y1="0" x2="721" y2="16" />
<line x1="766" y1="0" x2="766" y2="176" />

<line x1="856" y1="0" x2="856" y2="7" />

<line x1="947" y1="0" x2="947" y2="48" />
<line x1="992" y1="0" x2="992" y2="1" />


<line x1="1127" y1="0" x2="1127" y2="112" />
<line x1="1172" y1="0" x2="1172" y2="1" />
<line x1="1217" y1="0" x2="1217" y2="12" />
<line x1="1262" y1="0" x2="1262" y2="27" />
<line x1="1307" y1="0" x2="1307" y2="176" />



<line x1="1488" y1="0" x2="1488" y2="368" />
<line x1="1533" y1="0" x2="1533" y2="6" />

<line x1="1623" y1="0" x2="1623" y2="32" />
<line x1="1668" y1="0" x2="1668" y2="96" />

<line x1="1758" y1="0" x2="1758" y2="7" />
<line x1="1803" y1="0" x2="1803" y2="80" />
<line x1="1848" y1="0" x2="1848" y2="156" />



<line x1="2028" y1="0" x2="2028" y2="240" />
<line x1="2074" y1="0" x2="2074" y2="32" />
<line x1="2119" y1="0" x2="2119" y2="7" />

<line x1="2209" y1="0" x2="2209" y2="608" />
<line x1="2254" y1="0" x2="2254" y2="6" />
<line x1="2299" y1="0" x2="2299" y2="16" />
<line x1="2344" y1="0" x2="2344" y2="44" />
<line x1="2389" y1="0" x2="2389" y2="96" />

<line x1="2479" y1="0" x2="2479" y2="216" />
<line x1="2524" y1="0" x2="2524" y2="80" />
<line x1="2569" y1="0" x2="2569" y2="272" />
<line x1="2614" y1="0" x2="2614" y2="1" />


<line x1="2750" y1="0" x2="2750" y2="272" />

<line x1="2840" y1="0" x2="2840" y2="9" />
<line x1="2885" y1="0" x2="2885" y2="24" />
<line x1="2930" y1="0" x2="2930" y2="2368" />
<line x1="2975" y1="0" x2="2975" y2="10" />


<line x1="3110" y1="0" x2="3110" y2="220" />
<line x1="3155" y1="0" x2="3155" y2="8" />


<line x1="3291" y1="0" x2="3291" y2="284" />

<line x1="3381" y1="0" x2="3381" y2="32" />
<line x1="3426" y1="0" x2="3426" y2="32" />
<line x1="3471" y1="0" x2="3471" y2="368" />
<line x1="3516" y1="0" x2="3516" y2="10" />


<line x1="3651" y1="0" x2="3651" y2="752" />
<line x1="3696" y1="0" x2="3696" y2="540" />


<line x1="3832" y1="0" x2="3832" y2="448" />
<line x1="3877" y1="0" x2="3877" y2="1" />
</g>
</svg>