<svg xmlns="http://www.w3.org/2000/svg" width="100.0" height="100.0" viewBox="-5.00 -5.00 110.00 110.00">
<g fill="none" stroke="black" stroke-width="0.0400%" transform="translate(0, 100.0000) scale(12.5000, -12.5000)">
<g stroke="rgba(64,64,64,0.25)" fill="rgba(128,128,128,0.5)" >
<polygon points="1.00,7.00 2.00,7.00 2.00,8.00 1.00,8.00" />
<polygon points="3.00,7.00 4.00,7.00 4.00,8.00 3.00,8.00" />
<polygon points="5.00,7.00 6.00,7.00 6.00,8.00 5.00,8.00" />
<polygon points="7.00,7.00 8.00,7.00 8.00,8.00 7.00,8.00" />
<polygon points="0.00,6.00 1.00,6.00 1.00,7.00 0.00,7.00" />
<polygon points="2.00,6.00 3.00,6.00 3.00,7.00 2.00,7.00" />
<polygon points="4.00,6.00 5.00,6.00 5.00,7.00 4.00,7.00" />
<polygon points="6.00,6.00 7.00,6.00 7.00,7.00 6.00,7.00" />
<polygon points="1.00,5.00 2.00,5.00 2.00,6.00 1.00,6.00" />
<polygon points="3.00,5.00 4.00,5.00 4.00,6.00 3.00,6.00" />
<polygon points="5.00,5.00 6.00,5.00 6.00,6.00 5.00,6.00" />
<polygon points="7.00,5.00 8.00,5.00 8.00,6.00 7.00,6.00" />
<polygon points="0.00,4.00 1.00,4.00 1.00,5.00 0.00,5.00" />
<polygon points="2.00,4.00 3.00,4.00 3.00,5.00 2.00,5.00" />
<polygon points="4.00,4.00 5.00,4.00 5.00,5.00 4.00,5.00" />
<polygon points="6.00,4.00 7.00,4.00 7.00,5.00 6.00,5.00" />
<polygon points="1.00,3.00 2.00,3.00 2.00,4.00 1.00,4.00" />
<polygon points="3.00,3.00 4.00,3.00 4.00,4.00 3.00,4.00" />
<polygon points="5.00,3.00 6.00,3.00 6.00,4.00 5.00,4.00" />
<polygon points="7.00,3.00 8.00,3.00 8.00,4.00 7.00,4.00" />
<polygon points="0.00,2.00 1.00,2.00 1.00,3.00 0.00,3.00" />
<polygon points="2.00,2.00 3.00,2.00 3.00,3.00 2.00,3.00" />
<polygon points="4.00,2.00 5.00,2.00 5.00,3.00 4.00,3.00" />
<polygon points="6.00,2.00 7.00,2.00 7.00,3.00 6.00,3.00" />
<polygon points="1.00,1.00 2.00,1.00 2.00,2.00 1.00,2.00" />
<polygon points="3.00,1.00 4.00,1.00 4.00,2.00 3.00,2.00" />
<polygon points="5.00,1.00 6.00,1.00 6.00,2.00 5.00,2.00" />
<polygon points="7.00,1.00 8.00,1.00 8.00,2.00 7.00,2.00" />
<polygon points="0.00,0.00 1.00,0.00 1.00,1.00 0.00,1.00" />
<polygon points="2.00,0.00 3.00,0.00 3.00,1.00 2.00,1.00" />
<polygon points="4.00,0.00 5.00,0.00 5.00,1.00 4.00,1.00" />
<polygon points="6.00,0.00 7.00,0.00 7.00,1.00 6.00,1.00" />
</g>
</g>
</svg>