<svg xmlns="http://www.w3.org/2000/svg" width="108" height="36" viewBox="0 0 108 36">
<g stroke="none" transform="translate(0, 0) scale(1, 1)">
<rect x="0" y="0" width="3" height="3" fill="rgb(102,0,0)"/>
<rect x="0" y="3" width="3" height="3" fill="rgb(116,0,0)"/>
<rect x="0" y="6" width="3" height="3" fill="rgb(130,0,0)"/>
<rect x="0" y="9" width="3" height="3" fill="rgb(144,0,0)"/>
<rect x="0" y="12" width="3" height="3" fill="rgb(158,0,0)"/>
<rect x="0" y="15" width="3" height="3" fill="rgb(172,0,0)"/>
<rect x="0" y="18" width="3" height="3" fill="rgb(185,0,0)"/>
<rect x="0" y="21" width="3" height="3" fill="rgb(199,0,0)"/>
<rect x="0" y="24" width="3" height="3" fill="rgb(213,0,0)"/>
<rect x="0" y="27" width="3" height="3" fill="rgb(227,0,0)"/>
<rect x="0" y="30" width="3" height="3" fill="rgb(241,0,0)"/>
<rect x="0" y="33" width="3" height="3" fill="rgb(255,0,0)"/>
<rect x="3" y="0" width="3" height="3" fill="rgb(102,11,0)"/>
<rect x="3" y="3" width="3" height="3" fill="rgb(116,13,0)"/>
<rect x="3" y="6" width="3" height="3" fill="rgb(130,14,0)"/>
<rect x="3" y="9" width="3" height="3" fill="rgb(144,16,0)"/>
<rect x="3" y="12" width="3" height="3" fill="rgb(158,18,0)"/>
<rect x="3" y="15" width="3" height="3" fill="rgb(172,19,0)"/>
<rect x="3" y="18" width="3" height="3" fill="rgb(185,21,0)"/>
<rect x="3" y="21" width="3" height="3" fill="rgb(199,22,0)"/>
<rect x="3" y="24" width="3" height="3" fill="rgb(213,24,0)"/>
<rect x="3" y="27" width="3" height="3" fill="rgb(227,25,0)"/>
<rect x="3" y="30" width="3" height="3" fill="rgb(241,27,0)"/>
<rect x="3" y="33" width="3" height="3" fill="rgb(255,28,0)"/>
<rect x="6" y="0" width="3" height="3" fill="rgb(102,23,0)"/>
<rect x="6" y="3" width="3" height="3" fill="rgb(116,26,0)"/>
<rect x="6" y="6" width="3" height="3" fill="rgb(130,29,0)"/>
<rect x="6" y="9" width="3" height="3" fill="rgb(144,32,0)"/>
<rect x="6" y="12" width="3" height="3" fill="rgb(158,35,0)"/>
<rect x="6" y="15" width="3" height="3" fill="rgb(172,38,0)"/>
<rect x="6" y="18" width="3" height="3" fill="rgb(185,41,0)"/>
<rect x="6" y="21" width="3" height="3" fill="rgb(199,44,0)"/>
<rect x="6" y="24" width="3" height="3" fill="rgb(213,48,0)"/>
<rect x="6" y="27" width="3" height="3" fill="rgb(227,51,0)"/>
<rect x="6" y="30" width="3" height="3" fill="rgb(241,54,0)"/>
<rect x="6" y="33" width="3" height="3" fill="rgb(255,57,0)"/>
<rect x="9" y="0" width="3" height="3" fill="rgb(102,34,0)"/>
<rect x="9" y="3" width="3" height="3" fill="rgb(116,39,0)"/>
<rect x="9" y="6" width="3" height="3" fill="rgb(130,43,0)"/>
<rect x="9" y="9" width="3" height="3" fill="rgb(144,48,0)"/>
<rect x="9" y="12" width="3" height="3" fill="rgb(158,53,0)"/>
<rect x="9" y="15" width="3" height="3" fill="rgb(172,57,0)"/>
<rect x="9" y="18" width="3" height="3" fill="rgb(185,62,0)"/>
<rect x="9" y="21" width="3" height="3" fill="rgb(199,67,0)"/>
<rect x="9" y="24" width="3" height="3" fill="rgb(213,71,0)"/>
<rect x="9" y="27" width="3" height="3" fill="rgb(227,76,0)"/>
<rect x="9" y="30" width="3" height="3" fill="rgb(241,81,0)"/>
<rect x="9" y="33" width="3" height="3" fill="rgb(255,85,0)"/>
<rect x="12" y="0" width="3" height="3" fill="rgb(102,45,0)"/>
<rect x="12" y="3" width="3" height="3" fill="rgb(116,52,0)"/>
<rect x="12" y="6" width="3" height="3" fill="rgb(130,58,0)"/>
<rect x="12" y="9" width="3" height="3" fill="rgb(144,64,0)"/>
<rect x="12" y="12" width="3" height="3" fill="rgb(158,70,0)"/>
<rect x="12" y="15" width="3" height="3" fill="rgb(172,76,0)"/>
<rect x="12" y="18" width="3" height="3" fill="rgb(185,83,0)"/>
<rect x="12" y="21" width="3" height="3" fill="rgb(199,89,0)"/>
<rect x="12" y="24" width="3" height="3" fill="rgb(213,95,0)"/>
<rect x="12" y="27" width="3" height="3" fill="rgb(227,101,0)"/>
<rect x="12" y="30" width="3" height="3" fill="rgb(241,107,0)"/>
<rect x="12" y="33" width="3" height="3" fill="rgb(255,114,0)"/>
<rect x="15" y="0" width="3" height="3" fill="rgb(102,57,0)"/>
<rect x="15" y="3" width="3" height="3" fill="rgb(116,65,0)"/>
<rect x="15" y="6" width="3" height="3" fill="rgb(130,72,0)"/>
<rect x="15" y="9" width="3" height="3" fill="rgb(144,80,0)"/>
<rect x="15" y="12" width="3" height="3" fill="rgb(158,88,0)"/>
<rect x="15" y="15" width="3" height="3" fill="rgb(172,96,0)"/>
<rect x="15" y="18" width="3" height="3" fill="rgb(185,103,0)"/>
<rect x="15" y="21" width="3" height="3" fill="rgb(199,111,0)"/>
<rect x="15" y="24" width="3" height="3" fill="rgb(213,119,0)"/>
<rect x="15" y="27" width="3" height="3" fill="rgb(227,127,0)"/>
<rect x="15" y="30" width="3" height="3" fill="rgb(241,134,0)"/>
<rect x="15" y="33" width="3" height="3" fill="rgb(255,142,0)"/>
<rect x="18" y="0" width="3" height="3" fill="rgb(102,67,0)"/>
<rect x="18" y="3" width="3" height="3" fill="rgb(116,77,0)"/>
<rect x="18" y="6" width="3" height="3" fill="rgb(130,86,0)"/>
<rect x="18" y="9" width="3" height="3" fill="rgb(144,95,0)"/>
<rect x="18" y="12" width="3" height="3" fill="rgb(158,104,0)"/>
<rect x="18" y="15" width="3" height="3" fill="rgb(172,113,0)"/>
<rect x="18" y="18" width="3" height="3" fill="rgb(185,122,0)"/>
<rect x="18" y="21" width="3" height="3" fill="rgb(199,132,0)"/>
<rect x="18" y="24" width="3" height="3" fill="rgb(213,141,0)"/>
<rect x="18" y="27" width="3" height="3" fill="rgb(227,150,0)"/>
<rect x="18" y="30" width="3" height="3" fill="rgb(241,159,0)"/>
<rect x="18" y="33" width="3" height="3" fill="rgb(255,168,0)"/>
<rect x="21" y="0" width="3" height="3" fill="rgb(102,73,0)"/>
<rect x="21" y="3" width="3" height="3" fill="rgb(116,83,0)"/>
<rect x="21" y="6" width="3" height="3" fill="rgb(130,93,0)"/>
<rect x="21" y="9" width="3" height="3" fill="rgb(144,103,0)"/>
<rect x="21" y="12" width="3" height="3" fill="rgb(158,113,0)"/>
<rect x="21" y="15" width="3" height="3" fill="rgb(172,124,0)"/>
<rect x="21" y="18" width="3" height="3" fill="rgb(185,134,0)"/>
<rect x="21" y="21" width="3" height="3" fill="rgb(199,144,0)"/>
<rect x="21" y="24" width="3" height="3" fill="rgb(213,154,0)"/>
<rect x="21" y="27" width="3" height="3" fill="rgb(227,164,0)"/>
<rect x="21" y="30" width="3" height="3" fill="rgb(241,174,0)"/>
<rect x="21" y="33" width="3" height="3" fill="rgb(255,184,0)"/>
<rect x="24" y="0" width="3" height="3" fill="rgb(102,80,0)"/>
<rect x="24" y="3" width="3" height="3" fill="rgb(116,90,0)"/>
<rect x="24" y="6" width="3" height="3" fill="rgb(130,101,0)"/>
<rect x="24" y="9" width="3" height="3" fill="rgb(144,112,0)"/>
<rect x="24" y="12" width="3" height="3" fill="rgb(158,123,0)"/>
<rect x="24" y="15" width="3" height="3" fill="rgb(172,134,0)"/>
<rect x="24" y="18" width="3" height="3" fill="rgb(185,145,0)"/>
<rect x="24" y="21" width="3" height="3" fill="rgb(199,156,0)"/>
<rect x="24" y="24" width="3" height="3" fill="rgb(213,166,0)"/>
<rect x="24" y="27" width="3" height="3" fill="rgb(227,177,0)"/>
<rect x="24" y="30" width="3" height="3" fill="rgb(241,188,0)"/>
<rect x="24" y="33" width="3" height="3" fill="rgb(255,199,0)"/>
<rect x="27" y="0" width="3" height="3" fill="rgb(102,86,0)"/>
<rect x="27" y="3" width="3" height="3" fill="rgb(116,97,0)"/>
<rect x="27" y="6" width="3" height="3" fill="rgb(130,109,0)"/>
<rect x="27" y="9" width="3" height="3" fill="rgb(144,121,0)"/>
<rect x="27" y="12" width="3" height="3" fill="rgb(158,132,0)"/>
<rect x="27" y="15" width="3" height="3" fill="rgb(172,144,0)"/>
<rect x="27" y="18" width="3" height="3" fill="rgb(185,156,0)"/>
<rect x="27" y="21" width="3" height="3" fill="rgb(199,167,0)"/>
<rect x="27" y="24" width="3" height="3" fill="rgb(213,179,0)"/>
<rect x="27" y="27" width="3" height="3" fill="rgb(227,191,0)"/>
<rect x="27" y="30" width="3" height="3" fill="rgb(241,203,0)"/>
<rect x="27" y="33" width="3" height="3" fill="rgb(255,214,0)"/>
<rect x="30" y="0" width="3" height="3" fill="rgb(102,92,0)"/>
<rect x="30" y="3" width="3" height="3" fill="rgb(116,104,0)"/>
<rect x="30" y="6" width="3" height="3" fill="rgb(130,117,0)"/>
<rect x="30" y="9" width="3" height="3" fill="rgb(144,129,0)"/>
<rect x="30" y="12" width="3" height="3" fill="rgb(158,142,0)"/>
<rect x="30" y="15" width="3" height="3" fill="rgb(172,154,0)"/>
<rect x="30" y="18" width="3" height="3" fill="rgb(185,167,0)"/>
<rect x="30" y="21" width="3" height="3" fill="rgb(199,179,0)"/>
<rect x="30" y="24" width="3" height="3" fill="rgb(213,192,0)"/>
<rect x="30" y="27" width="3" height="3" fill="rgb(227,204,0)"/>
<rect x="30" y="30" width="3" height="3" fill="rgb(241,217,0)"/>
<rect x="30" y="33" width="3" height="3" fill="rgb(255,229,0)"/>
<rect x="33" y="0" width="3" height="3" fill="rgb(102,98,0)"/>
<rect x="33" y="3" width="3" height="3" fill="rgb(116,111,0)"/>
<rect x="33" y="6" width="3" height="3" fill="rgb(130,125,0)"/>
<rect x="33" y="9" width="3" height="3" fill="rgb(144,138,0)"/>
<rect x="33" y="12" width="3" height="3" fill="rgb(158,151,0)"/>
<rect x="33" y="15" width="3" height="3" fill="rgb(172,165,0)"/>
<rect x="33" y="18" width="3" height="3" fill="rgb(185,178,0)"/>
<rect x="33" y="21" width="3" height="3" fill="rgb(199,191,0)"/>
<rect x="33" y="24" width="3" height="3" fill="rgb(213,205,0)"/>
<rect x="33" y="27" width="3" height="3" fill="rgb(227,218,0)"/>
<rect x="33" y="30" width="3" height="3" fill="rgb(241,231,0)"/>
<rect x="33" y="33" width="3" height="3" fill="rgb(255,245,0)"/>
<rect x="36" y="0" width="3" height="3" fill="rgb(96,102,0)"/>
<rect x="36" y="3" width="3" height="3" fill="rgb(109,116,0)"/>
<rect x="36" y="6" width="3" height="3" fill="rgb(122,130,0)"/>
<rect x="36" y="9" width="3" height="3" fill="rgb(136,144,0)"/>
<rect x="36" y="12" width="3" height="3" fill="rgb(149,158,0)"/>
<rect x="36" y="15" width="3" height="3" fill="rgb(162,172,0)"/>
<rect x="36" y="18" width="3" height="3" fill="rgb(175,185,0)"/>
<rect x="36" y="21" width="3" height="3" fill="rgb(188,199,0)"/>
<rect x="36" y="24" width="3" height="3" fill="rgb(201,213,0)"/>
<rect x="36" y="27" width="3" height="3" fill="rgb(214,227,0)"/>
<rect x="36" y="30" width="3" height="3" fill="rgb(227,241,0)"/>
<rect x="36" y="33" width="3" height="3" fill="rgb(240,255,0)"/>
<rect x="39" y="0" width="3" height="3" fill="rgb(79,102,0)"/>
<rect x="39" y="3" width="3" height="3" fill="rgb(89,116,0)"/>
<rect x="39" y="6" width="3" height="3" fill="rgb(100,130,0)"/>
<rect x="39" y="9" width="3" height="3" fill="rgb(111,144,0)"/>
<rect x="39" y="12" width="3" height="3" fill="rgb(122,158,0)"/>
<rect x="39" y="15" width="3" height="3" fill="rgb(132,172,0)"/>
<rect x="39" y="18" width="3" height="3" fill="rgb(143,185,0)"/>
<rect x="39" y="21" width="3" height="3" fill="rgb(154,199,0)"/>
<rect x="39" y="24" width="3" height="3" fill="rgb(165,213,0)"/>
<rect x="39" y="27" width="3" height="3" fill="rgb(175,227,0)"/>
<rect x="39" y="30" width="3" height="3" fill="rgb(186,241,0)"/>
<rect x="39" y="33" width="3" height="3" fill="rgb(197,255,0)"/>
<rect x="42" y="0" width="3" height="3" fill="rgb(61,102,0)"/>
<rect x="42" y="3" width="3" height="3" fill="rgb(70,116,0)"/>
<rect x="42" y="6" width="3" height="3" fill="rgb(78,130,0)"/>
<rect x="42" y="9" width="3" height="3" fill="rgb(86,144,0)"/>
<rect x="42" y="12" width="3" height="3" fill="rgb(95,158,0)"/>
<rect x="42" y="15" width="3" height="3" fill="rgb(103,172,0)"/>
<rect x="42" y="18" width="3" height="3" fill="rgb(111,185,0)"/>
<rect x="42" y="21" width="3" height="3" fill="rgb(120,199,0)"/>
<rect x="42" y="24" width="3" height="3" fill="rgb(128,213,0)"/>
<rect x="42" y="27" width="3" height="3" fill="rgb(136,227,0)"/>
<rect x="42" y="30" width="3" height="3" fill="rgb(145,241,0)"/>
<rect x="42" y="33" width="3" height="3" fill="rgb(153,255,0)"/>
<rect x="45" y="0" width="3" height="3" fill="rgb(44,102,0)"/>
<rect x="45" y="3" width="3" height="3" fill="rgb(50,116,0)"/>
<rect x="45" y="6" width="3" height="3" fill="rgb(56,130,0)"/>
<rect x="45" y="9" width="3" height="3" fill="rgb(62,144,0)"/>
<rect x="45" y="12" width="3" height="3" fill="rgb(68,158,0)"/>
<rect x="45" y="15" width="3" height="3" fill="rgb(74,172,0)"/>
<rect x="45" y="18" width="3" height="3" fill="rgb(79,185,0)"/>
<rect x="45" y="21" width="3" height="3" fill="rgb(85,199,0)"/>
<rect x="45" y="24" width="3" height="3" fill="rgb(91,213,0)"/>
<rect x="45" y="27" width="3" height="3" fill="rgb(97,227,0)"/>
<rect x="45" y="30" width="3" height="3" fill="rgb(103,241,0)"/>
<rect x="45" y="33" width="3" height="3" fill="rgb(109,255,0)"/>
<rect x="48" y="0" width="3" height="3" fill="rgb(26,102,0)"/>
<rect x="48" y="3" width="3" height="3" fill="rgb(30,116,0)"/>
<rect x="48" y="6" width="3" height="3" fill="rgb(33,130,0)"/>
<rect x="48" y="9" width="3" height="3" fill="rgb(37,144,0)"/>
<rect x="48" y="12" width="3" height="3" fill="rgb(41,158,0)"/>
<rect x="48" y="15" width="3" height="3" fill="rgb(44,172,0)"/>
<rect x="48" y="18" width="3" height="3" fill="rgb(48,185,0)"/>
<rect x="48" y="21" width="3" height="3" fill="rgb(51,199,0)"/>
<rect x="48" y="24" width="3" height="3" fill="rgb(55,213,0)"/>
<rect x="48" y="27" width="3" height="3" fill="rgb(58,227,0)"/>
<rect x="48" y="30" width="3" height="3" fill="rgb(62,241,0)"/>
<rect x="48" y="33" width="3" height="3" fill="rgb(66,255,0)"/>
<rect x="51" y="0" width="3" height="3" fill="rgb(9,102,0)"/>
<rect x="51" y="3" width="3" height="3" fill="rgb(10,116,0)"/>
<rect x="51" y="6" width="3" height="3" fill="rgb(11,130,0)"/>
<rect x="51" y="9" width="3" height="3" fill="rgb(12,144,0)"/>
<rect x="51" y="12" width="3" height="3" fill="rgb(14,158,0)"/>
<rect x="51" y="15" width="3" height="3" fill="rgb(15,172,0)"/>
<rect x="51" y="18" width="3" height="3" fill="rgb(16,185,0)"/>
<rect x="51" y="21" width="3" height="3" fill="rgb(17,199,0)"/>
<rect x="51" y="24" width="3" height="3" fill="rgb(18,213,0)"/>
<rect x="51" y="27" width="3" height="3" fill="rgb(19,227,0)"/>
<rect x="51" y="30" width="3" height="3" fill="rgb(21,241,0)"/>
<rect x="51" y="33" width="3" height="3" fill="rgb(22,255,0)"/>
<rect x="54" y="0" width="3" height="3" fill="rgb(0,93,9)"/>
<rect x="54" y="3" width="3" height="3" fill="rgb(0,106,10)"/>
<rect x="54" y="6" width="3" height="3" fill="rgb(0,119,11)"/>
<rect x="54" y="9" width="3" height="3" fill="rgb(0,131,12)"/>
<rect x="54" y="12" width="3" height="3" fill="rgb(0,144,14)"/>
<rect x="54" y="15" width="3" height="3" fill="rgb(0,157,15)"/>
<rect x="54" y="18" width="3" height="3" fill="rgb(0,170,16)"/>
<rect x="54" y="21" width="3" height="3" fill="rgb(0,182,17)"/>
<rect x="54" y="24" width="3" height="3" fill="rgb(0,195,18)"/>
<rect x="54" y="27" width="3" height="3" fill="rgb(0,208,19)"/>
<rect x="54" y="30" width="3" height="3" fill="rgb(0,220,21)"/>
<rect x="54" y="33" width="3" height="3" fill="rgb(0,233,22)"/>
<rect x="57" y="0" width="3" height="3" fill="rgb(0,76,26)"/>
<rect x="57" y="3" width="3" height="3" fill="rgb(0,86,30)"/>
<rect x="57" y="6" width="3" height="3" fill="rgb(0,96,33)"/>
<rect x="57" y="9" width="3" height="3" fill="rgb(0,107,37)"/>
<rect x="57" y="12" width="3" height="3" fill="rgb(0,117,41)"/>
<rect x="57" y="15" width="3" height="3" fill="rgb(0,127,44)"/>
<rect x="57" y="18" width="3" height="3" fill="rgb(0,138,48)"/>
<rect x="57" y="21" width="3" height="3" fill="rgb(0,148,51)"/>
<rect x="57" y="24" width="3" height="3" fill="rgb(0,158,55)"/>
<rect x="57" y="27" width="3" height="3" fill="rgb(0,169,58)"/>
<rect x="57" y="30" width="3" height="3" fill="rgb(0,179,62)"/>
<rect x="57" y="33" width="3" height="3" fill="rgb(0,189,66)"/>
<rect x="60" y="0" width="3" height="3" fill="rgb(0,58,44)"/>
<rect x="60" y="3" width="3" height="3" fill="rgb(0,66,50)"/>
<rect x="60" y="6" width="3" height="3" fill="rgb(0,74,56)"/>
<rect x="60" y="9" width="3" height="3" fill="rgb(0,82,62)"/>
<rect x="60" y="12" width="3" height="3" fill="rgb(0,90,68)"/>
<rect x="60" y="15" width="3" height="3" fill="rgb(0,98,74)"/>
<rect x="60" y="18" width="3" height="3" fill="rgb(0,106,79)"/>
<rect x="60" y="21" width="3" height="3" fill="rgb(0,114,85)"/>
<rect x="60" y="24" width="3" height="3" fill="rgb(0,122,91)"/>
<rect x="60" y="27" width="3" height="3" fill="rgb(0,130,97)"/>
<rect x="60" y="30" width="3" height="3" fill="rgb(0,138,103)"/>
<rect x="60" y="33" width="3" height="3" fill="rgb(0,146,109)"/>
<rect x="63" y="0" width="3" height="3" fill="rgb(0,41,61)"/>
<rect x="63" y="3" width="3" height="3" fill="rgb(0,46,70)"/>
<rect x="63" y="6" width="3" height="3" fill="rgb(0,52,78)"/>
<rect x="63" y="9" width="3" height="3" fill="rgb(0,57,86)"/>
<rect x="63" y="12" width="3" height="3" fill="rgb(0,63,95)"/>
<rect x="63" y="15" width="3" height="3" fill="rgb(0,69,103)"/>
<rect x="63" y="18" width="3" height="3" fill="rgb(0,74,111)"/>
<rect x="63" y="21" width="3" height="3" fill="rgb(0,80,120)"/>
<rect x="63" y="24" width="3" height="3" fill="rgb(0,85,128)"/>
<rect x="63" y="27" width="3" height="3" fill="rgb(0,91,136)"/>
<rect x="63" y="30" width="3" height="3" fill="rgb(0,96,145)"/>
<rect x="63" y="33" width="3" height="3" fill="rgb(0,102,153)"/>
<rect x="66" y="0" width="3" height="3" fill="rgb(0,23,79)"/>
<rect x="66" y="3" width="3" height="3" fill="rgb(0,26,89)"/>
<rect x="66" y="6" width="3" height="3" fill="rgb(0,30,100)"/>
<rect x="66" y="9" width="3" height="3" fill="rgb(0,33,111)"/>
<rect x="66" y="12" width="3" height="3" fill="rgb(0,36,122)"/>
<rect x="66" y="15" width="3" height="3" fill="rgb(0,39,132)"/>
<rect x="66" y="18" width="3" height="3" fill="rgb(0,42,143)"/>
<rect x="66" y="21" width="3" height="3" fill="rgb(0,46,154)"/>
<rect x="66" y="24" width="3" height="3" fill="rgb(0,49,165)"/>
<rect x="66" y="27" width="3" height="3" fill="rgb(0,52,175)"/>
<rect x="66" y="30" width="3" height="3" fill="rgb(0,55,186)"/>
<rect x="66" y="33" width="3" height="3" fill="rgb(0,58,197)"/>
<rect x="69" y="0" width="3" height="3" fill="rgb(0,6,96)"/>
<rect x="69" y="3" width="3" height="3" fill="rgb(0,7,109)"/>
<rect x="69" y="6" width="3" height="3" fill="rgb(0,7,122)"/>
<rect x="69" y="9" width="3" height="3" fill="rgb(0,8,136)"/>
<rect x="69" y="12" width="3" height="3" fill="rgb(0,9,149)"/>
<rect x="69" y="15" width="3" height="3" fill="rgb(0,10,162)"/>
<rect x="69" y="18" width="3" height="3" fill="rgb(0,11,175)"/>
<rect x="69" y="21" width="3" height="3" fill="rgb(0,11,188)"/>
<rect x="69" y="24" width="3" height="3" fill="rgb(0,12,201)"/>
<rect x="69" y="27" width="3" height="3" fill="rgb(0,13,214)"/>
<rect x="69" y="30" width="3" height="3" fill="rgb(0,14,227)"/>
<rect x="69" y="33" width="3" height="3" fill="rgb(0,15,240)"/>
<rect x="72" y="0" width="3" height="3" fill="rgb(3,0,102)"/>
<rect x="72" y="3" width="3" height="3" fill="rgb(3,0,116)"/>
<rect x="72" y="6" width="3" height="3" fill="rgb(4,0,130)"/>
<rect x="72" y="9" width="3" height="3" fill="rgb(4,0,144)"/>
<rect x="72" y="12" width="3" height="3" fill="rgb(5,0,158)"/>
<rect x="72" y="15" width="3" height="3" fill="rgb(5,0,172)"/>
<rect x="72" y="18" width="3" height="3" fill="rgb(5,0,185)"/>
<rect x="72" y="21" width="3" height="3" fill="rgb(6,0,199)"/>
<rect x="72" y="24" width="3" height="3" fill="rgb(6,0,213)"/>
<rect x="72" y="27" width="3" height="3" fill="rgb(6,0,227)"/>
<rect x="72" y="30" width="3" height="3" fill="rgb(7,0,241)"/>
<rect x="72" y="33" width="3" height="3" fill="rgb(7,0,255)"/>
<rect x="75" y="0" width="3" height="3" fill="rgb(7,0,102)"/>
<rect x="75" y="3" width="3" height="3" fill="rgb(8,0,116)"/>
<rect x="75" y="6" width="3" height="3" fill="rgb(9,0,130)"/>
<rect x="75" y="9" width="3" height="3" fill="rgb(10,0,144)"/>
<rect x="75" y="12" width="3" height="3" fill="rgb(11,0,158)"/>
<rect x="75" y="15" width="3" height="3" fill="rgb(12,0,172)"/>
<rect x="75" y="18" width="3" height="3" fill="rgb(13,0,185)"/>
<rect x="75" y="21" width="3" height="3" fill="rgb(14,0,199)"/>
<rect x="75" y="24" width="3" height="3" fill="rgb(15,0,213)"/>
<rect x="75" y="27" width="3" height="3" fill="rgb(16,0,227)"/>
<rect x="75" y="30" width="3" height="3" fill="rgb(17,0,241)"/>
<rect x="75" y="33" width="3" height="3" fill="rgb(18,0,255)"/>
<rect x="78" y="0" width="3" height="3" fill="rgb(12,0,102)"/>
<rect x="78" y="3" width="3" height="3" fill="rgb(13,0,116)"/>
<rect x="78" y="6" width="3" height="3" fill="rgb(15,0,130)"/>
<rect x="78" y="9" width="3" height="3" fill="rgb(16,0,144)"/>
<rect x="78" y="12" width="3" height="3" fill="rgb(18,0,158)"/>
<rect x="78" y="15" width="3" height="3" fill="rgb(20,0,172)"/>
<rect x="78" y="18" width="3" height="3" fill="rgb(21,0,185)"/>
<rect x="78" y="21" width="3" height="3" fill="rgb(23,0,199)"/>
<rect x="78" y="24" width="3" height="3" fill="rgb(24,0,213)"/>
<rect x="78" y="27" width="3" height="3" fill="rgb(26,0,227)"/>
<rect x="78" y="30" width="3" height="3" fill="rgb(28,0,241)"/>
<rect x="78" y="33" width="3" height="3" fill="rgb(29,0,255)"/>
<rect x="81" y="0" width="3" height="3" fill="rgb(16,0,102)"/>
<rect x="81" y="3" width="3" height="3" fill="rgb(18,0,116)"/>
<rect x="81" y="6" width="3" height="3" fill="rgb(20,0,130)"/>
<rect x="81" y="9" width="3" height="3" fill="rgb(23,0,144)"/>
<rect x="81" y="12" width="3" height="3" fill="rgb(25,0,158)"/>
<rect x="81" y="15" width="3" height="3" fill="rgb(27,0,172)"/>
<rect x="81" y="18" width="3" height="3" fill="rgb(29,0,185)"/>
<rect x="81" y="21" width="3" height="3" fill="rgb(31,0,199)"/>
<rect x="81" y="24" width="3" height="3" fill="rgb(34,0,213)"/>
<rect x="81" y="27" width="3" height="3" fill="rgb(36,0,227)"/>
<rect x="81" y="30" width="3" height="3" fill="rgb(38,0,241)"/>
<rect x="81" y="33" width="3" height="3" fill="rgb(40,0,255)"/>
<rect x="84" y="0" width="3" height="3" fill="rgb(20,0,102)"/>
<rect x="84" y="3" width="3" height="3" fill="rgb(23,0,116)"/>
<rect x="84" y="6" width="3" height="3" fill="rgb(26,0,130)"/>
<rect x="84" y="9" width="3" height="3" fill="rgb(29,0,144)"/>
<rect x="84" y="12" width="3" height="3" fill="rgb(32,0,158)"/>
<rect x="84" y="15" width="3" height="3" fill="rgb(34,0,172)"/>
<rect x="84" y="18" width="3" height="3" fill="rgb(37,0,185)"/>
<rect x="84" y="21" width="3" height="3" fill="rgb(40,0,199)"/>
<rect x="84" y="24" width="3" height="3" fill="rgb(43,0,213)"/>
<rect x="84" y="27" width="3" height="3" fill="rgb(45,0,227)"/>
<rect x="84" y="30" width="3" height="3" fill="rgb(48,0,241)"/>
<rect x="84" y="33" width="3" height="3" fill="rgb(51,0,255)"/>
<rect x="87" y="0" width="3" height="3" fill="rgb(25,0,102)"/>
<rect x="87" y="3" width="3" height="3" fill="rgb(28,0,116)"/>
<rect x="87" y="6" width="3" height="3" fill="rgb(32,0,130)"/>
<rect x="87" y="9" width="3" height="3" fill="rgb(35,0,144)"/>
<rect x="87" y="12" width="3" height="3" fill="rgb(38,0,158)"/>
<rect x="87" y="15" width="3" height="3" fill="rgb(42,0,172)"/>
<rect x="87" y="18" width="3" height="3" fill="rgb(45,0,185)"/>
<rect x="87" y="21" width="3" height="3" fill="rgb(48,0,199)"/>
<rect x="87" y="24" width="3" height="3" fill="rgb(52,0,213)"/>
<rect x="87" y="27" width="3" height="3" fill="rgb(55,0,227)"/>
<rect x="87" y="30" width="3" height="3" fill="rgb(59,0,241)"/>
<rect x="87" y="33" width="3" height="3" fill="rgb(62,0,255)"/>
<rect x="90" y="0" width="3" height="3" fill="rgb(29,0,102)"/>
<rect x="90" y="3" width="3" height="3" fill="rgb(33,0,116)"/>
<rect x="90" y="6" width="3" height="3" fill="rgb(37,0,130)"/>
<rect x="90" y="9" width="3" height="3" fill="rgb(41,0,144)"/>
<rect x="90" y="12" width="3" height="3" fill="rgb(45,0,158)"/>
<rect x="90" y="15" width="3" height="3" fill="rgb(49,0,172)"/>
<rect x="90" y="18" width="3" height="3" fill="rgb(53,0,185)"/>
<rect x="90" y="21" width="3" height="3" fill="rgb(57,0,199)"/>
<rect x="90" y="24" width="3" height="3" fill="rgb(61,0,213)"/>
<rect x="90" y="27" width="3" height="3" fill="rgb(65,0,227)"/>
<rect x="90" y="30" width="3" height="3" fill="rgb(69,0,241)"/>
<rect x="90" y="33" width="3" height="3" fill="rgb(73,0,255)"/>
<rect x="93" y="0" width="3" height="3" fill="rgb(34,0,102)"/>
<rect x="93" y="3" width="3" height="3" fill="rgb(38,0,116)"/>
<rect x="93" y="6" width="3" height="3" fill="rgb(43,0,130)"/>
<rect x="93" y="9" width="3" height="3" fill="rgb(47,0,144)"/>
<rect x="93" y="12" width="3" height="3" fill="rgb(52,0,158)"/>
<rect x="93" y="15" width="3" height="3" fill="rgb(56,0,172)"/>
<rect x="93" y="18" width="3" height="3" fill="rgb(61,0,185)"/>
<rect x="93" y="21" width="3" height="3" fill="rgb(66,0,199)"/>
<rect x="93" y="24" width="3" height="3" fill="rgb(70,0,213)"/>
<rect x="93" y="27" width="3" height="3" fill="rgb(75,0,227)"/>
<rect x="93" y="30" width="3" height="3" fill="rgb(79,0,241)"/>
<rect x="93" y="33" width="3" height="3" fill="rgb(84,0,255)"/>
<rect x="96" y="0" width="3" height="3" fill="rgb(38,0,102)"/>
<rect x="96" y="3" width="3" height="3" fill="rgb(43,0,116)"/>
<rect x="96" y="6" width="3" height="3" fill="rgb(48,0,130)"/>
<rect x="96" y="9" width="3" height="3" fill="rgb(53,0,144)"/>
<rect x="96" y="12" width="3" height="3" fill="rgb(59,0,158)"/>
<rect x="96" y="15" width="3" height="3" fill="rgb(64,0,172)"/>
<rect x="96" y="18" width="3" height="3" fill="rgb(69,0,185)"/>
<rect x="96" y="21" width="3" height="3" fill="rgb(74,0,199)"/>
<rect x="96" y="24" width="3" height="3" fill="rgb(79,0,213)"/>
<rect x="96" y="27" width="3" height="3" fill="rgb(84,0,227)"/>
<rect x="96" y="30" width="3" height="3" fill="rgb(90,0,241)"/>
<rect x="96" y="33" width="3" height="3" fill="rgb(95,0,255)"/>
<rect x="99" y="0" width="3" height="3" fill="rgb(42,0,102)"/>
<rect x="99" y="3" width="3" height="3" fill="rgb(48,0,116)"/>
<rect x="99" y="6" width="3" height="3" fill="rgb(54,0,130)"/>
<rect x="99" y="9" width="3" height="3" fill="rgb(60,0,144)"/>
<rect x="99" y="12" width="3" height="3" fill="rgb(65,0,158)"/>
<rect x="99" y="15" width="3" height="3" fill="rgb(71,0,172)"/>
<rect x="99" y="18" width="3" height="3" fill="rgb(77,0,185)"/>
<rect x="99" y="21" width="3" height="3" fill="rgb(83,0,199)"/>
<rect x="99" y="24" width="3" height="3" fill="rgb(88,0,213)"/>
<rect x="99" y="27" width="3" height="3" fill="rgb(94,0,227)"/>
<rect x="99" y="30" width="3" height="3" fill="rgb(100,0,241)"/>
<rect x="99" y="33" width="3" height="3" fill="rgb(106,0,255)"/>
<rect x="102" y="0" width="3" height="3" fill="rgb(47,0,102)"/>
<rect x="102" y="3" width="3" height="3" fill="rgb(53,0,116)"/>
<rect x="102" y="6" width="3" height="3" fill="rgb(59,0,130)"/>
<rect x="102" y="9" width="3" height="3" fill="rgb(66,0,144)"/>
<rect x="102" y="12" width="3" height="3" fill="rgb(72,0,158)"/>
<rect x="102" y="15" width="3" height="3" fill="rgb(78,0,172)"/>
<rect x="102" y="18" width="3" height="3" fill="rgb(85,0,185)"/>
<rect x="102" y="21" width="3" height="3" fill="rgb(91,0,199)"/>
<rect x="102" y="24" width="3" height="3" fill="rgb(97,0,213)"/>
<rect x="102" y="27" width="3" height="3" fill="rgb(104,0,227)"/>
<rect x="102" y="30" width="3" height="3" fill="rgb(110,0,241)"/>
<rect x="102" y="33" width="3" height="3" fill="rgb(117,0,255)"/>
<rect x="105" y="0" width="3" height="3" fill="rgb(51,0,102)"/>
<rect x="105" y="3" width="3" height="3" fill="rgb(58,0,116)"/>
<rect x="105" y="6" width="3" height="3" fill="rgb(65,0,130)"/>
<rect x="105" y="9" width="3" height="3" fill="rgb(72,0,144)"/>
<rect x="105" y="12" width="3" height="3" fill="rgb(79,0,158)"/>
<rect x="105" y="15" width="3" height="3" fill="rgb(86,0,172)"/>
<rect x="105" y="18" width="3" height="3" fill="rgb(93,0,185)"/>
<rect x="105" y="21" width="3" height="3" fill="rgb(100,0,199)"/>
<rect x="105" y="24" width="3" height="3" fill="rgb(107,0,213)"/>
<rect x="105" y="27" width="3" height="3" fill="rgb(114,0,227)"/>
<rect x="105" y="30" width="3" height="3" fill="rgb(121,0,241)"/>
<rect x="105" y="33" width="3" height="3" fill="rgb(128,0,255)"/>
</g>
</svg>