<svg xmlns="http://www.w3.org/2000/svg" width="161.8" height="100.0" viewBox="-3.002 45.000 171.803 110.000">
<g fill="none" stroke="black" stroke-width="0.0100%" transform="translate(0, 200.0000) scale(50.0000, -50.0000)">
<polyline points="0.040,3.000 0.080,3.000 0.080,1.000 0.120,1.000 0.120,2.000 0.160,2.000 0.160,3.000 0.200,3.000 0.200,2.000 0.240,2.000 0.240,1.000 0.280,1.000 0.280,2.000 0.320,2.000 0.320,3.000 0.360,3.000 0.360,1.000 0.400,1.000 0.400,2.000 0.439,2.000 0.439,1.000 0.479,1.000 0.479,3.000 0.519,3.000 0.519,2.000 0.559,2.000 0.559,3.000 0.599,3.000 0.599,1.000 0.639,1.000 0.639,3.000 0.679,3.000 0.679,2.000 0.719,2.000 0.719,1.000 0.759,1.000 0.759,2.000 0.799,2.000 0.799,3.000 0.839,3.000 0.839,1.000 0.879,1.000 0.879,2.000 0.919,2.000 0.919,1.000 0.959,1.000 0.959,3.000 0.999,3.000 0.999,1.000 1.039,1.000 1.039,2.000 1.079,2.000 1.079,3.000 1.119,3.000 1.119,1.000 1.159,1.000 1.159,3.000 1.199,3.000 1.199,2.000 1.238,2.000 1.238,1.000 1.278,1.000 1.278,2.000 1.318,2.000 1.318,3.000 1.358,3.000 1.358,2.000 1.398,2.000 1.398,1.000 1.438,1.000 1.438,3.000 1.478,3.000 1.478,2.000 1.518,2.000 1.518,3.000 1.558,3.000 1.558,1.000 1.598,1.000 1.598,2.000 1.638,2.000 1.638,1.000 1.678,1.000 1.678,3.000 1.718,3.000 1.718,1.000 1.758,1.000 1.758,2.000 1.798,2.000 1.798,3.000 1.838,3.000 1.838,2.000 1.878,2.000 1.878,1.000 1.918,1.000 1.918,3.000 1.958,3.000 1.958,2.000 1.998,2.000 1.998,3.000 2.038,3.000 2.038,1.000 2.077,1.000 2.077,3.000 2.117,3.000 2.117,2.000 2.157,2.000 2.157,1.000 2.197,1.000 2.197,2.000 2.237,2.000 2.237,3.000 2.277,3.000 2.277,1.000 2.317,1.000 2.317,2.000 2.357,2.000 2.357,1.000 2.397,1.000 2.397,3.000 2.437,3.000 2.437,1.000 2.477,1.000 2.477,2.000 2.517,2.000 2.517,3.000 2.557,3.000 2.557,1.000 2.597,1.000 2.597,3.000 2.637,3.000 2.637,2.000 2.677,2.000 2.677,1.000 2.717,1.000 2.717,2.000 2.757,2.000 2.757,3.000 2.797,3.000 2.797,2.000 2.837,2.000 2.837,1.000 2.877,1.000 2.877,3.000 2.916,3.000 2.916,1.000 2.956,1.000 2.956,2.000 2.996,2.000 2.996,3.000 3.036,3.000 3.036,1.000 3.076,1.000 3.076,3.000 3.116,3.000 3.116,2.000 3.156,2.000 3.156,3.000 3.196,3.000 3.196,1.000 3.236,1.000 3.236,2.000 3.276,2.000" />
</g>
</svg>