<svg xmlns="http://www.w3.org/2000/svg" width="100.0" height="100.0" viewBox="-55.000 -55.000 110.000 110.000">
<g fill="none" stroke="black" stroke-width="0.0100%" transform="translate(0, 0.0000) scale(50.0000, -50.0000)">
<polyline points="-1.000,-1.000 -0.980,-0.168 -0.960,0.404 -0.940,0.762 -0.920,0.948 -0.900,1.000 -0.880,0.948 -0.860,0.821 -0.840,0.643 -0.820,0.432 -0.800,0.206 -0.780,-0.021 -0.760,-0.238 -0.740,-0.436 -0.720,-0.610 -0.700,-0.755 -0.680,-0.867 -0.660,-0.945 -0.640,-0.989 -0.620,-1.000 -0.600,-0.978 -0.580,-0.928 -0.560,-0.852 -0.540,-0.752 -0.520,-0.634 -0.500,-0.500 -0.480,-0.355 -0.460,-0.203 -0.440,-0.048 -0.420,0.107 -0.400,0.258 -0.380,0.401 -0.360,0.534 -0.340,0.654 -0.320,0.759 -0.300,0.846 -0.280,0.915 -0.260,0.964 -0.240,0.992 -0.220,1.000 -0.200,0.987 -0.180,0.954 -0.160,0.902 -0.140,0.832 -0.120,0.746 -0.100,0.645 -0.080,0.532 -0.060,0.408 -0.040,0.276 -0.020,0.140 0.000,-0.000 0.020,-0.140 0.040,-0.276 0.060,-0.408 0.080,-0.532 0.100,-0.645 0.120,-0.746 0.140,-0.832 0.160,-0.902 0.180,-0.954 0.200,-0.987 0.220,-1.000 0.240,-0.992 0.260,-0.964 0.280,-0.915 0.300,-0.846 0.320,-0.759 0.340,-0.654 0.360,-0.534 0.380,-0.401 0.400,-0.258 0.420,-0.107 0.440,0.048 0.460,0.203 0.480,0.355 0.500,0.500 0.520,0.634 0.540,0.752 0.560,0.852 0.580,0.928 0.600,0.978 0.620,1.000 0.640,0.989 0.660,0.945 0.680,0.867 0.700,0.755 0.720,0.610 0.740,0.436 0.760,0.238 0.780,0.021 0.800,-0.206 0.820,-0.432 0.840,-0.643 0.860,-0.821 0.880,-0.948 0.900,-1.000 0.920,-0.948 0.940,-0.762 0.960,-0.404 0.980,0.168 1.000,1.000" />
</g>
</svg>