<svg xmlns="http://www.w3.org/2000/svg" width="99" height="45" viewBox="0 0 99 45">
<g stroke="none" transform="translate(0, 0) scale(1, 1)">
<rect x="0" y="0" width="9" height="9" fill="rgb(13,16,183)"/>
<rect x="0" y="9" width="9" height="9" fill="rgb(42,235,241)"/>
<rect x="0" y="18" width="9" height="9" fill="rgb(133,96,162)"/>
<rect x="0" y="27" width="9" height="9" fill="rgb(178,4,168)"/>
<rect x="0" y="36" width="9" height="9" fill="rgb(222,57,48)"/>
<rect x="9" y="0" width="9" height="9" fill="rgb(182,92,76)"/>
<rect x="9" y="9" width="9" height="9" fill="rgb(36,11,159)"/>
<rect x="9" y="18" width="9" height="9" fill="rgb(195,13,242)"/>
<rect x="9" y="27" width="9" height="9" fill="rgb(249,164,143)"/>
<rect x="9" y="36" width="9" height="9" fill="rgb(163,236,118)"/>
<rect x="18" y="0" width="9" height="9" fill="rgb(164,148,144)"/>
<rect x="18" y="9" width="9" height="9" fill="rgb(78,195,59)"/>
<rect x="18" y="18" width="9" height="9" fill="rgb(34,3,76)"/>
<rect x="18" y="27" width="9" height="9" fill="rgb(58,97,161)"/>
<rect x="18" y="36" width="9" height="9" fill="rgb(235,148,220)"/>
<rect x="27" y="0" width="9" height="9" fill="rgb(86,117,65)"/>
<rect x="27" y="9" width="9" height="9" fill="rgb(207,201,188)"/>
<rect x="27" y="18" width="9" height="9" fill="rgb(187,39,94)"/>
<rect x="27" y="27" width="9" height="9" fill="rgb(45,83,146)"/>
<rect x="27" y="36" width="9" height="9" fill="rgb(215,24,38)"/>
<rect x="36" y="0" width="9" height="9" fill="rgb(230,239,217)"/>
<rect x="36" y="9" width="9" height="9" fill="rgb(197,150,140)"/>
<rect x="36" y="18" width="9" height="9" fill="rgb(148,147,245)"/>
<rect x="36" y="27" width="9" height="9" fill="rgb(165,59,249)"/>
<rect x="36" y="36" width="9" height="9" fill="rgb(21,152,194)"/>
<rect x="45" y="0" width="9" height="9" fill="rgb(164,197,156)"/>
<rect x="45" y="9" width="9" height="9" fill="rgb(63,167,104)"/>
<rect x="45" y="18" width="9" height="9" fill="rgb(174,84,180)"/>
<rect x="45" y="27" width="9" height="9" fill="rgb(242,11,70)"/>
<rect x="45" y="36" width="9" height="9" fill="rgb(106,243,210)"/>
<rect x="54" y="0" width="9" height="9" fill="rgb(102,217,157)"/>
<rect x="54" y="9" width="9" height="9" fill="rgb(189,153,114)"/>
<rect x="54" y="18" width="9" height="9" fill="rgb(61,212,169)"/>
<rect x="54" y="27" width="9" height="9" fill="rgb(168,176,196)"/>
<rect x="54" y="36" width="9" height="9" fill="rgb(14,13,79)"/>
<rect x="63" y="0" width="9" height="9" fill="rgb(153,190,154)"/>
<rect x="63" y="9" width="9" height="9" fill="rgb(116,183,58)"/>
<rect x="63" y="18" width="9" height="9" fill="rgb(137,19,240)"/>
<rect x="63" y="27" width="9" height="9" fill="rgb(191,97,107)"/>
<rect x="63" y="36" width="9" height="9" fill="rgb(46,217,71)"/>
<rect x="72" y="0" width="9" height="9" fill="rgb(85,51,55)"/>
<rect x="72" y="9" width="9" height="9" fill="rgb(22,56,124)"/>
<rect x="72" y="18" width="9" height="9" fill="rgb(167,216,111)"/>
<rect x="72" y="27" width="9" height="9" fill="rgb(238,134,107)"/>
<rect x="72" y="36" width="9" height="9" fill="rgb(117,163,238)"/>
<rect x="81" y="0" width="9" height="9" fill="rgb(243,242,252)"/>
<rect x="81" y="9" width="9" height="9" fill="rgb(79,116,0)"/>
<rect x="81" y="18" width="9" height="9" fill="rgb(219,218,204)"/>
<rect x="81" y="27" width="9" height="9" fill="rgb(153,136,83)"/>
<rect x="81" y="36" width="9" height="9" fill="rgb(55,37,159)"/>
<rect x="90" y="0" width="9" height="9" fill="rgb(224,10,146)"/>
<rect x="90" y="9" width="9" height="9" fill="rgb(201,134,140)"/>
<rect x="90" y="18" width="9" height="9" fill="rgb(186,60,165)"/>
<rect x="90" y="27" width="9" height="9" fill="rgb(72,158,246)"/>
<rect x="90" y="36" width="9" height="9" fill="rgb(177,45,182)"/>
</g>
</svg>