<svg xmlns="http://www.w3.org/2000/svg" width="161.8" height="100.0" viewBox="-3.726 -5.000 171.803 110.000">
<g fill="none" stroke="black" stroke-width="0.0050%" transform="translate(0, 100.0000) scale(100.7874, -100.7874)">
<polyline points="0.013,0.000 0.025,0.006 0.038,0.012 0.051,0.018 0.063,0.023 0.076,0.029 0.088,0.035 0.101,0.041 0.114,0.047 0.126,0.053 0.139,0.059 0.152,0.064 0.164,0.070 0.177,0.076 0.190,0.082 0.202,0.088 0.215,0.094 0.228,0.100 0.240,0.105 0.253,0.111 0.265,0.117 0.278,0.123 0.291,0.129 0.303,0.135 0.316,0.141 0.329,0.146 0.341,0.152 0.354,0.158 0.367,0.164 0.379,0.170 0.392,0.176 0.405,0.182 0.417,0.188 0.430,0.193 0.442,0.199 0.455,0.205 0.468,0.211 0.480,0.217 0.493,0.223 0.506,0.229 0.518,0.234 0.531,0.240 0.544,0.246 0.556,0.252 0.569,0.258 0.581,0.265 0.594,0.271 0.607,0.278 0.619,0.285 0.632,0.292 0.645,0.299 0.657,0.307 0.670,0.315 0.683,0.323 0.695,0.332 0.708,0.341 0.721,0.351 0.733,0.362 0.746,0.374 0.758,0.387 0.771,0.402 0.784,0.419 0.796,0.443 0.809,0.514 0.822,0.550 0.834,0.571 0.847,0.588 0.860,0.602 0.872,0.615 0.885,0.626 0.898,0.636 0.910,0.646 0.923,0.655 0.935,0.664 0.948,0.672 0.961,0.680 0.973,0.688 0.986,0.695 0.999,0.702 1.011,0.709 1.024,0.716 1.037,0.722 1.049,0.728 1.062,0.734 1.074,0.740 1.087,0.746 1.100,0.752 1.112,0.758 1.125,0.764 1.138,0.770 1.150,0.775 1.163,0.781 1.176,0.787 1.188,0.793 1.201,0.799 1.214,0.805 1.226,0.811 1.239,0.816 1.251,0.822 1.264,0.828 1.277,0.834 1.289,0.840 1.302,0.846 1.315,0.852 1.327,0.857 1.340,0.863 1.353,0.869 1.365,0.875 1.378,0.881 1.390,0.887 1.403,0.893 1.416,0.898 1.428,0.904 1.441,0.910 1.454,0.916 1.466,0.922 1.479,0.928 1.492,0.934 1.504,0.939 1.517,0.945 1.530,0.951 1.542,0.957 1.555,0.963 1.567,0.969 1.580,0.975 1.593,0.980 1.605,0.986 1.618,0.992" />
</g>
</svg>