<svg xmlns="http://www.w3.org/2000/svg" width="161.8" height="100.0" viewBox="-3.444 -5.000 171.803 110.000">
<g fill="none" stroke="black" stroke-width="0.0150%" transform="translate(0, 100.0000) scale(33.3333, -33.3333)">


<line x1="0.140" y1="0.000" x2="0.140" y2="1.000" />


<line x1="0.280" y1="0.000" x2="0.280" y2="1.000" />


<line x1="0.420" y1="0.000" x2="0.420" y2="1.000" />
<line x1="0.467" y1="0.000" x2="0.467" y2="2.000" />




<line x1="0.700" y1="0.000" x2="0.700" y2="2.000" />




<line x1="0.933" y1="0.000" x2="0.933" y2="1.000" />
<line x1="0.980" y1="0.000" x2="0.980" y2="1.000" />





<line x1="1.260" y1="0.000" x2="1.260" y2="1.000" />
<line x1="1.307" y1="0.000" x2="1.307" y2="1.000" />





<line x1="1.587" y1="0.000" x2="1.587" y2="1.000" />
<line x1="1.634" y1="0.000" x2="1.634" y2="2.000" />
<line x1="1.680" y1="0.000" x2="1.680" y2="3.000" />








<line x1="2.100" y1="0.000" x2="2.100" y2="3.000" />








<line x1="2.520" y1="0.000" x2="2.520" y2="1.000" />
<line x1="2.567" y1="0.000" x2="2.567" y2="1.000" />









<line x1="3.034" y1="0.000" x2="3.034" y2="2.000" />
<line x1="3.080" y1="0.000" x2="3.080" y2="1.000" />









<line x1="3.547" y1="0.000" x2="3.547" y2="1.000" />
<line x1="3.594" y1="0.000" x2="3.594" y2="1.000" />
<line x1="3.641" y1="0.000" x2="3.641" y2="2.000" />










<line x1="4.154" y1="0.000" x2="4.154" y2="1.000" />
<line x1="4.201" y1="0.000" x2="4.201" y2="1.000" />
<line x1="4.247" y1="0.000" x2="4.247" y2="2.000" />










<line x1="4.761" y1="0.000" x2="4.761" y2="1.000" />
<line x1="4.807" y1="0.000" x2="4.807" y2="1.000" />
<line x1="4.854" y1="0.000" x2="4.854" y2="2.000" />
<line x1="4.901" y1="0.000" x2="4.901" y2="1.000" />
</g>
</svg>