<svg xmlns="http://www.w3.org/2000/svg" width="121.4" height="100.0" viewBox="-2.67 -5.00 131.35 110.00">
<g fill="none" stroke="black" stroke-width="0.0200%" transform="translate(0, 100.0000) scale(25.0000, -25.0000)">
<line x1="0.09" y1="0.00" x2="0.09" y2="1.00" />
<line x1="0.19" y1="0.00" x2="0.19" y2="1.00" />
<line x1="0.28" y1="0.00" x2="0.28" y2="1.00" />
<line x1="0.37" y1="0.00" x2="0.37" y2="2.00" />
<line x1="0.47" y1="0.00" x2="0.47" y2="1.00" />
<line x1="0.56" y1="0.00" x2="0.56" y2="2.00" />
<line x1="0.65" y1="0.00" x2="0.65" y2="1.00" />
<line x1="0.75" y1="0.00" x2="0.75" y2="1.00" />
<line x1="0.84" y1="0.00" x2="0.84" y2="1.00" />
<line x1="0.93" y1="0.00" x2="0.93" y2="2.00" />
<line x1="1.03" y1="0.00" x2="1.03" y2="1.00" />
<line x1="1.12" y1="0.00" x2="1.12" y2="3.00" />
<line x1="1.21" y1="0.00" x2="1.21" y2="1.00" />
<line x1="1.31" y1="0.00" x2="1.31" y2="3.00" />
<line x1="1.40" y1="0.00" x2="1.40" y2="1.00" />
<line x1="1.49" y1="0.00" x2="1.49" y2="2.00" />
<line x1="1.59" y1="0.00" x2="1.59" y2="1.00" />
<line x1="1.68" y1="0.00" x2="1.68" y2="1.00" />
<line x1="1.77" y1="0.00" x2="1.77" y2="1.00" />
<line x1="1.87" y1="0.00" x2="1.87" y2="1.00" />
<line x1="1.96" y1="0.00" x2="1.96" y2="1.00" />
<line x1="2.05" y1="0.00" x2="2.05" y2="1.00" />
<line x1="2.15" y1="0.00" x2="2.15" y2="1.00" />
<line x1="2.24" y1="0.00" x2="2.24" y2="2.00" />
<line x1="2.33" y1="0.00" x2="2.33" y2="2.00" />
<line x1="2.43" y1="0.00" x2="2.43" y2="2.00" />
<line x1="2.52" y1="0.00" x2="2.52" y2="2.00" />
<line x1="2.61" y1="0.00" x2="2.61" y2="1.00" />
<line x1="2.71" y1="0.00" x2="2.71" y2="1.00" />
<line x1="2.80" y1="0.00" x2="2.80" y2="3.00" />
<line x1="2.89" y1="0.00" x2="2.89" y2="1.00" />
<line x1="2.99" y1="0.00" x2="2.99" y2="4.00" />
<line x1="3.08" y1="0.00" x2="3.08" y2="1.00" />
<line x1="3.17" y1="0.00" x2="3.17" y2="4.00" />
<line x1="3.27" y1="0.00" x2="3.27" y2="1.00" />
<line x1="3.36" y1="0.00" x2="3.36" y2="3.00" />
<line x1="3.45" y1="0.00" x2="3.45" y2="1.00" />
<line x1="3.55" y1="0.00" x2="3.55" y2="1.00" />
<line x1="3.64" y1="0.00" x2="3.64" y2="2.00" />
<line x1="3.73" y1="0.00" x2="3.73" y2="1.00" />
<line x1="3.83" y1="0.00" x2="3.83" y2="1.00" />
<line x1="3.92" y1="0.00" x2="3.92" y2="1.00" />
<line x1="4.01" y1="0.00" x2="4.01" y2="2.00" />
<line x1="4.11" y1="0.00" x2="4.11" y2="2.00" />
<line x1="4.20" y1="0.00" x2="4.20" y2="1.00" />
<line x1="4.29" y1="0.00" x2="4.29" y2="1.00" />
<line x1="4.39" y1="0.00" x2="4.39" y2="1.00" />
<line x1="4.48" y1="0.00" x2="4.48" y2="2.00" />
<line x1="4.57" y1="0.00" x2="4.57" y2="1.00" />
<line x1="4.67" y1="0.00" x2="4.67" y2="1.00" />
<line x1="4.76" y1="0.00" x2="4.76" y2="1.00" />
<line x1="4.85" y1="0.00" x2="4.85" y2="1.00" />
<line x1="4.95" y1="0.00" x2="4.95" y2="1.00" />
</g>
</svg>