<svg xmlns="http://www.w3.org/2000/svg" width="143.8" height="100.0" viewBox="-1.31 -5.00 153.83 110.00">
<g fill="none" stroke="black" stroke-width="0.0450%" transform="translate(0, 100.0000) scale(11.1111, -11.1111)">
<line x1="0.33" y1="0.00" x2="0.33" y2="1.00" />
<line x1="0.66" y1="0.00" x2="0.66" y2="1.20" />
<line x1="1.00" y1="0.00" x2="1.00" y2="1.40" />
<line x1="1.33" y1="0.00" x2="1.33" y2="1.60" />
<line x1="1.66" y1="0.00" x2="1.66" y2="1.80" />
<line x1="1.99" y1="0.00" x2="1.99" y2="2.00" />
<line x1="2.32" y1="0.00" x2="2.32" y2="2.20" />
<line x1="2.66" y1="0.00" x2="2.66" y2="2.40" />
<line x1="2.99" y1="0.00" x2="2.99" y2="2.60" />
<line x1="3.32" y1="0.00" x2="3.32" y2="2.80" />
<line x1="3.65" y1="0.00" x2="3.65" y2="3.00" />
<line x1="3.98" y1="0.00" x2="3.98" y2="3.60" />
<line x1="4.31" y1="0.00" x2="4.31" y2="4.20" />
<line x1="4.65" y1="0.00" x2="4.65" y2="4.80" />
<line x1="4.98" y1="0.00" x2="4.98" y2="5.40" />
<line x1="5.31" y1="0.00" x2="5.31" y2="6.00" />
<line x1="5.64" y1="0.00" x2="5.64" y2="6.60" />
<line x1="5.97" y1="0.00" x2="5.97" y2="7.20" />
<line x1="6.31" y1="0.00" x2="6.31" y2="7.80" />
<line x1="6.64" y1="0.00" x2="6.64" y2="8.40" />
<line x1="6.97" y1="0.00" x2="6.97" y2="9.00" />
<line x1="7.30" y1="0.00" x2="7.30" y2="8.80" />
<line x1="7.63" y1="0.00" x2="7.63" y2="8.60" />
<line x1="7.97" y1="0.00" x2="7.97" y2="8.40" />
<line x1="8.30" y1="0.00" x2="8.30" y2="8.20" />
<line x1="8.63" y1="0.00" x2="8.63" y2="8.00" />
<line x1="8.96" y1="0.00" x2="8.96" y2="7.80" />
<line x1="9.29" y1="0.00" x2="9.29" y2="7.60" />
<line x1="9.63" y1="0.00" x2="9.63" y2="7.40" />
<line x1="9.96" y1="0.00" x2="9.96" y2="7.20" />
<line x1="10.29" y1="0.00" x2="10.29" y2="7.00" />
<line x1="10.62" y1="0.00" x2="10.62" y2="6.40" />
<line x1="10.95" y1="0.00" x2="10.95" y2="5.80" />
<line x1="11.28" y1="0.00" x2="11.28" y2="5.20" />
<line x1="11.62" y1="0.00" x2="11.62" y2="4.60" />
<line x1="11.95" y1="0.00" x2="11.95" y2="4.00" />
<line x1="12.28" y1="0.00" x2="12.28" y2="3.40" />
<line x1="12.61" y1="0.00" x2="12.61" y2="2.80" />
<line x1="12.94" y1="0.00" x2="12.94" y2="2.20" />
<line x1="13.28" y1="0.00" x2="13.28" y2="1.60" />
</g>
</svg>