<svg xmlns="http://www.w3.org/2000/svg" width="138.7" height="100.0" viewBox="4.25 -5.00 148.69 110.00">
<g fill="none" stroke="black" stroke-width="0.0350%" transform="translate(0, 100.0000) scale(14.2857, -14.2857)">
<line x1="0.65" y1="0.00" x2="0.65" y2="1.00" />
<line x1="1.29" y1="0.00" x2="1.29" y2="1.20" />
<line x1="1.94" y1="0.00" x2="1.94" y2="1.40" />
<line x1="2.59" y1="0.00" x2="2.59" y2="1.60" />
<line x1="3.24" y1="0.00" x2="3.24" y2="1.80" />
<line x1="3.88" y1="0.00" x2="3.88" y2="2.00" />
<line x1="4.53" y1="0.00" x2="4.53" y2="2.40" />
<line x1="5.18" y1="0.00" x2="5.18" y2="2.80" />
<line x1="5.82" y1="0.00" x2="5.82" y2="3.20" />
<line x1="6.47" y1="0.00" x2="6.47" y2="3.60" />
<line x1="7.12" y1="0.00" x2="7.12" y2="4.00" />
<line x1="7.77" y1="0.00" x2="7.77" y2="4.60" />
<line x1="8.41" y1="0.00" x2="8.41" y2="5.20" />
<line x1="9.06" y1="0.00" x2="9.06" y2="5.80" />
<line x1="9.71" y1="0.00" x2="9.71" y2="6.40" />
<line x1="10.36" y1="0.00" x2="10.36" y2="7.00" />
</g>
</svg>