<svg xmlns="http://www.w3.org/2000/svg" width="117.3" height="100.0" viewBox="-13.96 -8.13 127.27 110.00">
<g fill="none" stroke="black" stroke-width="0.0800%" transform="translate(0, 93.7500) scale(6.2500, -6.2500)">
<polyline points="-1.00,1.00 0.00,0.00 -1.00,1.00 0.00,2.00 1.43,1.25 0.00,1.00 0.00,1.00 -0.43,0.75 -1.43,0.75 -0.43,-0.25 0.00,0.00 -0.57,1.25 0.87,1.50 2.30,0.75 2.87,-0.50 3.30,-0.25 4.30,0.75 4.30,0.75 4.73,1.00 4.73,-0.00 5.17,1.25 3.73,-0.00 3.17,1.25 1.73,2.00 3.17,3.25 1.73,3.00 1.30,2.75 2.30,1.75 3.30,2.75 2.30,1.75 3.30,1.75 3.30,2.75 4.73,4.00 5.17,5.25 4.60,5.50 6.03,4.75 7.03,4.75 7.46,6.00 8.46,6.00 9.46,6.00 10.03,4.75 9.03,4.75 10.46,5.00 10.90,4.25 9.90,5.25 11.33,5.50 10.90,6.25 11.46,7.00 10.03,7.75 9.60,7.50 10.60,8.50 10.03,9.75 8.60,10.50 9.17,10.25 7.73,10.00 7.30,10.75 7.30,11.75 7.73,11.00 8.17,10.25 9.17,10.25 8.73,10.00 9.73,11.00 11.17,12.25 11.60,11.50 13.03,11.75 14.03,11.75 14.46,12.00 13.03,10.75 12.46,11.00 12.46,12.00 12.03,11.75 13.46,13.00 12.90,13.25 13.46,12.00 14.90,13.25 14.33,13.50 13.33,14.50 14.33,15.50 15.33,15.50 15.90,14.25 15.90,14.25 17.33,13.50 16.33,13.50 16.76,14.75 15.33,14.50 13.90,15.25 13.46,14.00 13.46,13.00 13.90,12.25 12.90,12.25 12.90,11.25 13.33,10.50 13.76,11.75 12.33,12.50 11.76,12.75 10.33,13.50 10.76,13.75 11.33,13.50 10.76,13.75" />
</g>
</svg>