<svg xmlns="http://www.w3.org/2000/svg" width="75.1" height="100.0" viewBox="-33.87 -101.67 85.06 110.00">
<g fill="none" stroke="black" stroke-width="0.0750%" transform="translate(0, -93.3333) scale(6.6667, -6.6667)">
<polyline points="0.00,-1.00 -0.87,-1.50 0.00,-1.00 0.87,-1.50 1.73,-1.00 1.73,-2.00 2.60,-1.50 3.46,-1.00 2.60,-0.50 3.46,0.00 3.46,-1.00 3.46,0.00 4.33,0.50 5.20,0.00 5.20,-1.00 6.06,-1.50 5.20,-2.00 4.33,-1.50 4.33,-2.50 4.33,-3.50 4.33,-2.50 4.33,-3.50 4.33,-2.50 3.46,-3.00 4.33,-3.50 5.20,-3.00 6.06,-3.50 5.20,-3.00 5.20,-4.00 6.06,-4.50 5.20,-5.00 5.20,-6.00 6.06,-6.50 6.93,-7.00 6.93,-8.00 6.06,-8.50 6.06,-7.50 5.20,-8.00 4.33,-8.50 4.33,-9.50 3.46,-10.00 3.46,-9.00 3.46,-10.00 3.46,-9.00 2.60,-8.50 3.46,-9.00 3.46,-8.00 3.46,-7.00 3.46,-6.00 2.60,-5.50 3.46,-6.00 3.46,-7.00 4.33,-7.50 4.33,-6.50 3.46,-7.00 2.60,-6.50 1.73,-7.00 1.73,-8.00 0.87,-8.50 0.00,-9.00 -0.87,-9.50 -1.73,-10.00 -1.73,-11.00 -1.73,-12.00 -2.60,-12.50 -2.60,-11.50 -2.60,-10.50 -2.60,-11.50 -3.46,-12.00 -2.60,-12.50 -3.46,-13.00 -2.60,-13.50 -2.60,-12.50 -1.73,-13.00 -2.60,-13.50 -3.46,-13.00 -2.60,-12.50 -2.60,-13.50 -3.46,-14.00 -4.33,-14.50 -3.46,-14.00 -2.60,-13.50 -1.73,-13.00 -0.87,-13.50 0.00,-13.00 0.00,-12.00 0.87,-11.50 1.73,-11.00 0.87,-10.50 1.73,-10.00 1.73,-11.00 2.60,-11.50 3.46,-11.00 4.33,-11.50 5.20,-12.00 4.33,-11.50 4.33,-10.50 5.20,-10.00 4.33,-10.50" />
</g>
</svg>