<svg xmlns="http://www.w3.org/2000/svg" width="100.0" height="100.0" viewBox="-46.67 -63.33 110.00 110.00">
<g fill="none" stroke="black" stroke-width="0.0600%" transform="translate(0, -16.6667) scale(8.3333, -8.3333)">
<polyline points="-1.00,-1.00 -2.00,-2.00 -3.00,-2.00 -3.00,-3.00 -3.00,-2.00 -2.00,-2.00 -2.00,-3.00 -2.00,-4.00 -1.00,-4.00 -1.00,-5.00 -1.00,-6.00 0.00,-6.00 -1.00,-6.00 -2.00,-5.00 -3.00,-5.00 -4.00,-6.00 -3.00,-6.00 -3.00,-5.00 -3.00,-4.00 -3.00,-5.00 -4.00,-6.00 -5.00,-6.00 -4.00,-7.00 -3.00,-7.00 -4.00,-6.00 -3.00,-7.00 -4.00,-6.00 -3.00,-5.00 -3.00,-6.00 -3.00,-5.00 -2.00,-6.00 -2.00,-5.00 -2.00,-4.00 -2.00,-3.00 -3.00,-4.00 -3.00,-4.00 -3.00,-3.00 -2.00,-3.00 -2.00,-2.00 -1.00,-3.00 0.00,-2.00 -1.00,-2.00 -1.00,-3.00 -1.00,-3.00 -2.00,-2.00 -1.00,-1.00 0.00,-2.00 0.00,-1.00 1.00,-1.00 1.00,-1.00 2.00,-1.00 2.00,-2.00 2.00,-1.00 3.00,-1.00 3.00,-2.00 2.00,-1.00 2.00,-2.00 3.00,-1.00 4.00,-2.00 4.00,-1.00 4.00,0.00 3.00,1.00 4.00,1.00 5.00,0.00 4.00,1.00 4.00,2.00 5.00,2.00 5.00,2.00 6.00,2.00 6.00,2.00 6.00,1.00 7.00,1.00 7.00,2.00 6.00,3.00 5.00,4.00 6.00,5.00 6.00,4.00 5.00,4.00 4.00,3.00 5.00,3.00 4.00,2.00 4.00,3.00 4.00,4.00 3.00,4.00 3.00,4.00 3.00,4.00 3.00,3.00 2.00,2.00 3.00,3.00 3.00,2.00 4.00,1.00 4.00,1.00 4.00,1.00 3.00,0.00 2.00,-1.00 3.00,-1.00 3.00,0.00 4.00,-1.00 5.00,-1.00" />
</g>
</svg>