<svg xmlns="http://www.w3.org/2000/svg" width="161.8" height="100.0" viewBox="-4.353 -14.208 171.803 110.000">
<g fill="none" stroke="black" stroke-width="0.0055%" transform="translate(0, 81.5844) scale(90.7922, -90.7922)">
<circle cx="0.007" cy="0.000" r="0.006" />
<line x1="0.007" y1="0.000" x2="0.007" y2="1.000" />
<line x1="0.014" y1="0.000" x2="0.014" y2="-0.031" />
<line x1="0.021" y1="0.000" x2="0.021" y2="0.027" />
<line x1="0.029" y1="0.000" x2="0.029" y2="0.044" />
<line x1="0.036" y1="0.000" x2="0.036" y2="0.026" />
<line x1="0.043" y1="0.000" x2="0.043" y2="-0.043" />
<line x1="0.050" y1="0.000" x2="0.050" y2="-0.057" />
<line x1="0.057" y1="0.000" x2="0.057" y2="0.023" />
<line x1="0.064" y1="0.000" x2="0.064" y2="-0.049" />
<line x1="0.071" y1="0.000" x2="0.071" y2="-0.024" />
<line x1="0.078" y1="0.000" x2="0.078" y2="-0.058" />
<line x1="0.086" y1="0.000" x2="0.086" y2="-0.080" />
<line x1="0.093" y1="0.000" x2="0.093" y2="-0.041" />
<line x1="0.100" y1="0.000" x2="0.100" y2="0.083" />
<line x1="0.107" y1="0.000" x2="0.107" y2="-0.000" />
<line x1="0.114" y1="0.000" x2="0.114" y2="0.050" />
<line x1="0.121" y1="0.000" x2="0.121" y2="0.003" />
<line x1="0.128" y1="0.000" x2="0.128" y2="-0.016" />
<line x1="0.135" y1="0.000" x2="0.135" y2="-0.065" />
<line x1="0.143" y1="0.000" x2="0.143" y2="-0.016" />
<line x1="0.150" y1="0.000" x2="0.150" y2="0.049" />
<line x1="0.157" y1="0.000" x2="0.157" y2="-0.017" />
<line x1="0.164" y1="0.000" x2="0.164" y2="-0.027" />
<line x1="0.171" y1="0.000" x2="0.171" y2="0.024" />
<line x1="0.178" y1="0.000" x2="0.178" y2="0.002" />
<line x1="0.185" y1="0.000" x2="0.185" y2="-0.034" />
<line x1="0.192" y1="0.000" x2="0.192" y2="0.017" />
<line x1="0.200" y1="0.000" x2="0.200" y2="-0.010" />
<line x1="0.207" y1="0.000" x2="0.207" y2="0.051" />
<line x1="0.214" y1="0.000" x2="0.214" y2="-0.049" />
<line x1="0.221" y1="0.000" x2="0.221" y2="-0.018" />
<line x1="0.228" y1="0.000" x2="0.228" y2="-0.027" />
<line x1="0.235" y1="0.000" x2="0.235" y2="-0.032" />
<line x1="0.242" y1="0.000" x2="0.242" y2="0.095" />
<line x1="0.249" y1="0.000" x2="0.249" y2="-0.013" />
<line x1="0.257" y1="0.000" x2="0.257" y2="0.019" />
<line x1="0.264" y1="0.000" x2="0.264" y2="0.039" />
<line x1="0.271" y1="0.000" x2="0.271" y2="-0.059" />
<line x1="0.278" y1="0.000" x2="0.278" y2="-0.062" />
<line x1="0.285" y1="0.000" x2="0.285" y2="0.028" />
<line x1="0.292" y1="0.000" x2="0.292" y2="0.031" />
<line x1="0.299" y1="0.000" x2="0.299" y2="0.016" />
<line x1="0.307" y1="0.000" x2="0.307" y2="-0.078" />
<line x1="0.314" y1="0.000" x2="0.314" y2="-0.008" />
<line x1="0.321" y1="0.000" x2="0.321" y2="0.027" />
<line x1="0.328" y1="0.000" x2="0.328" y2="-0.055" />
<line x1="0.335" y1="0.000" x2="0.335" y2="0.022" />
<line x1="0.342" y1="0.000" x2="0.342" y2="0.097" />
<line x1="0.349" y1="0.000" x2="0.349" y2="0.012" />
<line x1="0.356" y1="0.000" x2="0.356" y2="-0.005" />
<line x1="0.364" y1="0.000" x2="0.364" y2="-0.041" />
<line x1="0.371" y1="0.000" x2="0.371" y2="0.010" />
<line x1="0.378" y1="0.000" x2="0.378" y2="-0.017" />
<line x1="0.385" y1="0.000" x2="0.385" y2="0.028" />
<line x1="0.392" y1="0.000" x2="0.392" y2="-0.005" />
<line x1="0.399" y1="0.000" x2="0.399" y2="-0.035" />
<line x1="0.406" y1="0.000" x2="0.406" y2="0.054" />
<line x1="0.413" y1="0.000" x2="0.413" y2="-0.020" />
<line x1="0.421" y1="0.000" x2="0.421" y2="-0.019" />
<line x1="0.428" y1="0.000" x2="0.428" y2="0.068" />
<line x1="0.435" y1="0.000" x2="0.435" y2="0.033" />
<line x1="0.442" y1="0.000" x2="0.442" y2="0.042" />
<line x1="0.449" y1="0.000" x2="0.449" y2="0.039" />
<line x1="0.456" y1="0.000" x2="0.456" y2="0.020" />
<line x1="0.463" y1="0.000" x2="0.463" y2="-0.030" />
<line x1="0.470" y1="0.000" x2="0.470" y2="0.022" />
<line x1="0.478" y1="0.000" x2="0.478" y2="0.041" />
<line x1="0.485" y1="0.000" x2="0.485" y2="0.030" />
<line x1="0.492" y1="0.000" x2="0.492" y2="-0.005" />
<line x1="0.499" y1="0.000" x2="0.499" y2="0.026" />
<line x1="0.506" y1="0.000" x2="0.506" y2="-0.044" />
<line x1="0.513" y1="0.000" x2="0.513" y2="-0.062" />
<line x1="0.520" y1="0.000" x2="0.520" y2="-0.017" />
<line x1="0.528" y1="0.000" x2="0.528" y2="-0.050" />
<line x1="0.535" y1="0.000" x2="0.535" y2="-0.026" />
<line x1="0.542" y1="0.000" x2="0.542" y2="0.028" />
<line x1="0.549" y1="0.000" x2="0.549" y2="-0.047" />
<line x1="0.556" y1="0.000" x2="0.556" y2="-0.018" />
<line x1="0.563" y1="0.000" x2="0.563" y2="-0.043" />
<line x1="0.570" y1="0.000" x2="0.570" y2="0.038" />
<line x1="0.577" y1="0.000" x2="0.577" y2="0.017" />
<line x1="0.585" y1="0.000" x2="0.585" y2="0.086" />
<line x1="0.592" y1="0.000" x2="0.592" y2="-0.007" />
<line x1="0.599" y1="0.000" x2="0.599" y2="0.001" />
<line x1="0.606" y1="0.000" x2="0.606" y2="0.042" />
<line x1="0.613" y1="0.000" x2="0.613" y2="-0.052" />
<line x1="0.620" y1="0.000" x2="0.620" y2="0.032" />
<line x1="0.627" y1="0.000" x2="0.627" y2="0.003" />
<line x1="0.634" y1="0.000" x2="0.634" y2="0.024" />
<line x1="0.642" y1="0.000" x2="0.642" y2="-0.069" />
<line x1="0.649" y1="0.000" x2="0.649" y2="-0.031" />
<line x1="0.656" y1="0.000" x2="0.656" y2="-0.028" />
<line x1="0.663" y1="0.000" x2="0.663" y2="0.023" />
<line x1="0.670" y1="0.000" x2="0.670" y2="-0.023" />
<line x1="0.677" y1="0.000" x2="0.677" y2="0.030" />
<line x1="0.684" y1="0.000" x2="0.684" y2="0.071" />
<line x1="0.691" y1="0.000" x2="0.691" y2="0.006" />
<line x1="0.699" y1="0.000" x2="0.699" y2="0.040" />
<line x1="0.706" y1="0.000" x2="0.706" y2="-0.030" />
<line x1="0.713" y1="0.000" x2="0.713" y2="-0.008" />
<line x1="0.720" y1="0.000" x2="0.720" y2="-0.030" />
<line x1="0.727" y1="0.000" x2="0.727" y2="-0.037" />
<line x1="0.734" y1="0.000" x2="0.734" y2="-0.008" />
<line x1="0.741" y1="0.000" x2="0.741" y2="-0.005" />
<line x1="0.748" y1="0.000" x2="0.748" y2="-0.014" />
<line x1="0.756" y1="0.000" x2="0.756" y2="0.006" />
<line x1="0.763" y1="0.000" x2="0.763" y2="-0.024" />
<line x1="0.770" y1="0.000" x2="0.770" y2="0.047" />
<line x1="0.777" y1="0.000" x2="0.777" y2="0.057" />
<line x1="0.784" y1="0.000" x2="0.784" y2="0.051" />
<line x1="0.791" y1="0.000" x2="0.791" y2="0.019" />
<line x1="0.798" y1="0.000" x2="0.798" y2="-0.013" />
<line x1="0.806" y1="0.000" x2="0.806" y2="-0.010" />
<line x1="0.813" y1="0.000" x2="0.813" y2="0.053" />
<line x1="0.820" y1="0.000" x2="0.820" y2="-0.009" />
<line x1="0.827" y1="0.000" x2="0.827" y2="-0.054" />
<line x1="0.834" y1="0.000" x2="0.834" y2="-0.016" />
<line x1="0.841" y1="0.000" x2="0.841" y2="0.026" />
<line x1="0.848" y1="0.000" x2="0.848" y2="-0.058" />
<line x1="0.855" y1="0.000" x2="0.855" y2="-0.022" />
<line x1="0.863" y1="0.000" x2="0.863" y2="0.048" />
<line x1="0.870" y1="0.000" x2="0.870" y2="0.002" />
<line x1="0.877" y1="0.000" x2="0.877" y2="-0.011" />
<line x1="0.884" y1="0.000" x2="0.884" y2="-0.031" />
<line x1="0.891" y1="0.000" x2="0.891" y2="-0.019" />
<line x1="0.898" y1="0.000" x2="0.898" y2="-0.031" />
<line x1="0.905" y1="0.000" x2="0.905" y2="0.004" />
<line x1="0.912" y1="0.000" x2="0.912" y2="0.078" />
<line x1="0.920" y1="0.000" x2="0.920" y2="0.034" />
<line x1="0.927" y1="0.000" x2="0.927" y2="-0.054" />
<line x1="0.934" y1="0.000" x2="0.934" y2="-0.027" />
<line x1="0.941" y1="0.000" x2="0.941" y2="0.026" />
<line x1="0.948" y1="0.000" x2="0.948" y2="-0.056" />
<line x1="0.955" y1="0.000" x2="0.955" y2="-0.058" />
<line x1="0.962" y1="0.000" x2="0.962" y2="-0.021" />
<line x1="0.969" y1="0.000" x2="0.969" y2="-0.009" />
<line x1="0.977" y1="0.000" x2="0.977" y2="0.024" />
<line x1="0.984" y1="0.000" x2="0.984" y2="-0.015" />
<line x1="0.991" y1="0.000" x2="0.991" y2="-0.021" />
<line x1="0.998" y1="0.000" x2="0.998" y2="0.039" />
<line x1="1.005" y1="0.000" x2="1.005" y2="0.011" />
<line x1="1.012" y1="0.000" x2="1.012" y2="0.055" />
<line x1="1.019" y1="0.000" x2="1.019" y2="0.028" />
<line x1="1.027" y1="0.000" x2="1.027" y2="0.077" />
<line x1="1.034" y1="0.000" x2="1.034" y2="-0.011" />
<line x1="1.041" y1="0.000" x2="1.041" y2="-0.101" />
<line x1="1.048" y1="0.000" x2="1.048" y2="0.037" />
<line x1="1.055" y1="0.000" x2="1.055" y2="-0.046" />
<line x1="1.062" y1="0.000" x2="1.062" y2="-0.024" />
<line x1="1.069" y1="0.000" x2="1.069" y2="0.005" />
<line x1="1.076" y1="0.000" x2="1.076" y2="-0.019" />
<line x1="1.084" y1="0.000" x2="1.084" y2="0.023" />
<line x1="1.091" y1="0.000" x2="1.091" y2="0.006" />
<line x1="1.098" y1="0.000" x2="1.098" y2="-0.022" />
<line x1="1.105" y1="0.000" x2="1.105" y2="0.051" />
<line x1="1.112" y1="0.000" x2="1.112" y2="0.027" />
<line x1="1.119" y1="0.000" x2="1.119" y2="0.043" />
<line x1="1.126" y1="0.000" x2="1.126" y2="-0.009" />
<line x1="1.133" y1="0.000" x2="1.133" y2="-0.018" />
<line x1="1.141" y1="0.000" x2="1.141" y2="-0.040" />
<line x1="1.148" y1="0.000" x2="1.148" y2="0.011" />
<line x1="1.155" y1="0.000" x2="1.155" y2="0.001" />
<line x1="1.162" y1="0.000" x2="1.162" y2="-0.006" />
<line x1="1.169" y1="0.000" x2="1.169" y2="-0.029" />
<line x1="1.176" y1="0.000" x2="1.176" y2="0.061" />
<line x1="1.183" y1="0.000" x2="1.183" y2="-0.045" />
<line x1="1.190" y1="0.000" x2="1.190" y2="-0.023" />
<line x1="1.198" y1="0.000" x2="1.198" y2="0.024" />
<line x1="1.205" y1="0.000" x2="1.205" y2="-0.088" />
<line x1="1.212" y1="0.000" x2="1.212" y2="-0.018" />
<line x1="1.219" y1="0.000" x2="1.219" y2="-0.075" />
<line x1="1.226" y1="0.000" x2="1.226" y2="0.026" />
<line x1="1.233" y1="0.000" x2="1.233" y2="-0.023" />
<line x1="1.240" y1="0.000" x2="1.240" y2="0.013" />
<line x1="1.247" y1="0.000" x2="1.247" y2="0.030" />
<line x1="1.255" y1="0.000" x2="1.255" y2="0.017" />
<line x1="1.262" y1="0.000" x2="1.262" y2="0.017" />
<line x1="1.269" y1="0.000" x2="1.269" y2="-0.024" />
<line x1="1.276" y1="0.000" x2="1.276" y2="0.004" />
<line x1="1.283" y1="0.000" x2="1.283" y2="0.021" />
<line x1="1.290" y1="0.000" x2="1.290" y2="-0.052" />
<line x1="1.297" y1="0.000" x2="1.297" y2="-0.043" />
<line x1="1.305" y1="0.000" x2="1.305" y2="-0.022" />
<line x1="1.312" y1="0.000" x2="1.312" y2="0.001" />
<line x1="1.319" y1="0.000" x2="1.319" y2="-0.073" />
<line x1="1.326" y1="0.000" x2="1.326" y2="-0.035" />
<line x1="1.333" y1="0.000" x2="1.333" y2="-0.013" />
<line x1="1.340" y1="0.000" x2="1.340" y2="0.016" />
<line x1="1.347" y1="0.000" x2="1.347" y2="0.047" />
<line x1="1.354" y1="0.000" x2="1.354" y2="-0.015" />
<line x1="1.362" y1="0.000" x2="1.362" y2="0.049" />
<line x1="1.369" y1="0.000" x2="1.369" y2="-0.067" />
<line x1="1.376" y1="0.000" x2="1.376" y2="0.017" />
<line x1="1.383" y1="0.000" x2="1.383" y2="-0.013" />
<line x1="1.390" y1="0.000" x2="1.390" y2="-0.042" />
<line x1="1.397" y1="0.000" x2="1.397" y2="0.036" />
<line x1="1.404" y1="0.000" x2="1.404" y2="-0.026" />
<line x1="1.411" y1="0.000" x2="1.411" y2="-0.013" />
<line x1="1.419" y1="0.000" x2="1.419" y2="-0.037" />
<line x1="1.426" y1="0.000" x2="1.426" y2="0.024" />
<line x1="1.433" y1="0.000" x2="1.433" y2="-0.031" />
<line x1="1.440" y1="0.000" x2="1.440" y2="0.030" />
<line x1="1.447" y1="0.000" x2="1.447" y2="-0.001" />
<line x1="1.454" y1="0.000" x2="1.454" y2="0.048" />
<line x1="1.461" y1="0.000" x2="1.461" y2="0.008" />
<line x1="1.468" y1="0.000" x2="1.468" y2="0.065" />
<line x1="1.476" y1="0.000" x2="1.476" y2="-0.009" />
<line x1="1.483" y1="0.000" x2="1.483" y2="-0.000" />
<line x1="1.490" y1="0.000" x2="1.490" y2="0.031" />
<line x1="1.497" y1="0.000" x2="1.497" y2="-0.006" />
<line x1="1.504" y1="0.000" x2="1.504" y2="-0.032" />
<line x1="1.511" y1="0.000" x2="1.511" y2="0.013" />
<line x1="1.518" y1="0.000" x2="1.518" y2="0.055" />
<line x1="1.526" y1="0.000" x2="1.526" y2="0.028" />
<line x1="1.533" y1="0.000" x2="1.533" y2="-0.001" />
<line x1="1.540" y1="0.000" x2="1.540" y2="0.008" />
<line x1="1.547" y1="0.000" x2="1.547" y2="0.014" />
<line x1="1.554" y1="0.000" x2="1.554" y2="-0.068" />
<line x1="1.561" y1="0.000" x2="1.561" y2="0.046" />
<line x1="1.568" y1="0.000" x2="1.568" y2="-0.029" />
<line x1="1.575" y1="0.000" x2="1.575" y2="0.001" />
<line x1="1.583" y1="0.000" x2="1.583" y2="0.008" />
<line x1="1.590" y1="0.000" x2="1.590" y2="0.004" />
<line x1="1.597" y1="0.000" x2="1.597" y2="0.036" />
<line x1="1.604" y1="0.000" x2="1.604" y2="-0.061" />
<line x1="1.611" y1="0.000" x2="1.611" y2="0.015" />
<line x1="1.618" y1="0.000" x2="1.618" y2="-0.001" />
<line x1="1.625" y1="0.000" x2="1.625" y2="-0.029" />
<line x1="1.632" y1="0.000" x2="1.632" y2="-0.039" />
<line x1="1.640" y1="0.000" x2="1.640" y2="0.025" />
<line x1="1.647" y1="0.000" x2="1.647" y2="-0.013" />
<line x1="1.654" y1="0.000" x2="1.654" y2="-0.052" />
<line x1="1.661" y1="0.000" x2="1.661" y2="-0.001" />
<line x1="1.668" y1="0.000" x2="1.668" y2="-0.005" />
<line x1="1.675" y1="0.000" x2="1.675" y2="0.011" />
<line x1="1.682" y1="0.000" x2="1.682" y2="0.008" />
<line x1="1.689" y1="0.000" x2="1.689" y2="0.025" />
<line x1="1.697" y1="0.000" x2="1.697" y2="-0.052" />
<line x1="1.704" y1="0.000" x2="1.704" y2="-0.045" />
<line x1="1.711" y1="0.000" x2="1.711" y2="0.021" />
<line x1="1.718" y1="0.000" x2="1.718" y2="-0.003" />
<line x1="1.725" y1="0.000" x2="1.725" y2="-0.020" />
<line x1="1.732" y1="0.000" x2="1.732" y2="-0.027" />
<line x1="1.739" y1="0.000" x2="1.739" y2="-0.046" />
<line x1="1.746" y1="0.000" x2="1.746" y2="0.002" />
<line x1="1.754" y1="0.000" x2="1.754" y2="-0.028" />
<line x1="1.761" y1="0.000" x2="1.761" y2="0.040" />
<line x1="1.768" y1="0.000" x2="1.768" y2="-0.014" />
<line x1="1.775" y1="0.000" x2="1.775" y2="0.078" />
<line x1="1.782" y1="0.000" x2="1.782" y2="0.012" />
<line x1="1.789" y1="0.000" x2="1.789" y2="-0.003" />
</g>
</svg>