<svg xmlns="http://www.w3.org/2000/svg" width="161.8" height="100.0" viewBox="-3.706 -22.883 171.803 110.000">
<g fill="none" stroke="black" stroke-width="0.0061%" transform="translate(0, 64.2331) scale(82.1165, -82.1165)">
<line x1="0.016" y1="0.000" x2="0.016" y2="1.000" />
<line x1="0.032" y1="0.000" x2="0.032" y2="0.987" />
<line x1="0.047" y1="0.000" x2="0.047" y2="0.974" />
<line x1="0.063" y1="0.000" x2="0.063" y2="0.961" />
<line x1="0.079" y1="0.000" x2="0.079" y2="0.947" />
<line x1="0.095" y1="0.000" x2="0.095" y2="0.932" />
<line x1="0.110" y1="0.000" x2="0.110" y2="0.919" />
<line x1="0.126" y1="0.000" x2="0.126" y2="0.908" />
<line x1="0.142" y1="0.000" x2="0.142" y2="0.895" />
<line x1="0.158" y1="0.000" x2="0.158" y2="0.884" />
<line x1="0.173" y1="0.000" x2="0.173" y2="0.873" />
<line x1="0.189" y1="0.000" x2="0.189" y2="0.864" />
<line x1="0.205" y1="0.000" x2="0.205" y2="0.857" />
<line x1="0.221" y1="0.000" x2="0.221" y2="0.851" />
<line x1="0.236" y1="0.000" x2="0.236" y2="0.843" />
<line x1="0.252" y1="0.000" x2="0.252" y2="0.834" />
<line x1="0.268" y1="0.000" x2="0.268" y2="0.825" />
<line x1="0.284" y1="0.000" x2="0.284" y2="0.815" />
<line x1="0.300" y1="0.000" x2="0.300" y2="0.806" />
<line x1="0.315" y1="0.000" x2="0.315" y2="0.798" />
<line x1="0.331" y1="0.000" x2="0.331" y2="0.790" />
<line x1="0.347" y1="0.000" x2="0.347" y2="0.782" />
<line x1="0.363" y1="0.000" x2="0.363" y2="0.773" />
<line x1="0.378" y1="0.000" x2="0.378" y2="0.765" />
<line x1="0.394" y1="0.000" x2="0.394" y2="0.756" />
<line x1="0.410" y1="0.000" x2="0.410" y2="0.748" />
<line x1="0.426" y1="0.000" x2="0.426" y2="0.740" />
<line x1="0.441" y1="0.000" x2="0.441" y2="0.731" />
<line x1="0.457" y1="0.000" x2="0.457" y2="0.722" />
<line x1="0.473" y1="0.000" x2="0.473" y2="0.712" />
<line x1="0.489" y1="0.000" x2="0.489" y2="0.703" />
<line x1="0.504" y1="0.000" x2="0.504" y2="0.694" />
<line x1="0.520" y1="0.000" x2="0.520" y2="0.686" />
<line x1="0.536" y1="0.000" x2="0.536" y2="0.678" />
<line x1="0.552" y1="0.000" x2="0.552" y2="0.669" />
<line x1="0.567" y1="0.000" x2="0.567" y2="0.659" />
<line x1="0.583" y1="0.000" x2="0.583" y2="0.649" />
<line x1="0.599" y1="0.000" x2="0.599" y2="0.638" />
<line x1="0.615" y1="0.000" x2="0.615" y2="0.629" />
<line x1="0.631" y1="0.000" x2="0.631" y2="0.622" />
<line x1="0.646" y1="0.000" x2="0.646" y2="0.614" />
<line x1="0.662" y1="0.000" x2="0.662" y2="0.605" />
<line x1="0.678" y1="0.000" x2="0.678" y2="0.596" />
<line x1="0.694" y1="0.000" x2="0.694" y2="0.587" />
<line x1="0.709" y1="0.000" x2="0.709" y2="0.579" />
<line x1="0.725" y1="0.000" x2="0.725" y2="0.571" />
<line x1="0.741" y1="0.000" x2="0.741" y2="0.564" />
<line x1="0.757" y1="0.000" x2="0.757" y2="0.557" />
<line x1="0.772" y1="0.000" x2="0.772" y2="0.547" />
<line x1="0.788" y1="0.000" x2="0.788" y2="0.537" />
<line x1="0.804" y1="0.000" x2="0.804" y2="0.527" />
<line x1="0.820" y1="0.000" x2="0.820" y2="0.517" />
<line x1="0.835" y1="0.000" x2="0.835" y2="0.507" />
<line x1="0.851" y1="0.000" x2="0.851" y2="0.496" />
<line x1="0.867" y1="0.000" x2="0.867" y2="0.485" />
<line x1="0.883" y1="0.000" x2="0.883" y2="0.475" />
<line x1="0.899" y1="0.000" x2="0.899" y2="0.466" />
<line x1="0.914" y1="0.000" x2="0.914" y2="0.455" />
<line x1="0.930" y1="0.000" x2="0.930" y2="0.446" />
<line x1="0.946" y1="0.000" x2="0.946" y2="0.436" />
<line x1="0.962" y1="0.000" x2="0.962" y2="0.425" />
<line x1="0.977" y1="0.000" x2="0.977" y2="0.414" />
<line x1="0.993" y1="0.000" x2="0.993" y2="0.402" />
<line x1="1.009" y1="0.000" x2="1.009" y2="0.390" />
<line x1="1.025" y1="0.000" x2="1.025" y2="0.377" />
<line x1="1.040" y1="0.000" x2="1.040" y2="0.365" />
<line x1="1.056" y1="0.000" x2="1.056" y2="0.352" />
<line x1="1.072" y1="0.000" x2="1.072" y2="0.338" />
<line x1="1.088" y1="0.000" x2="1.088" y2="0.323" />
<line x1="1.103" y1="0.000" x2="1.103" y2="0.308" />
<line x1="1.119" y1="0.000" x2="1.119" y2="0.292" />
<line x1="1.135" y1="0.000" x2="1.135" y2="0.278" />
<line x1="1.151" y1="0.000" x2="1.151" y2="0.265" />
<line x1="1.166" y1="0.000" x2="1.166" y2="0.253" />
<line x1="1.182" y1="0.000" x2="1.182" y2="0.242" />
<line x1="1.198" y1="0.000" x2="1.198" y2="0.231" />
<line x1="1.214" y1="0.000" x2="1.214" y2="0.221" />
<line x1="1.230" y1="0.000" x2="1.230" y2="0.212" />
<line x1="1.245" y1="0.000" x2="1.245" y2="0.203" />
<line x1="1.261" y1="0.000" x2="1.261" y2="0.195" />
<line x1="1.277" y1="0.000" x2="1.277" y2="0.186" />
<line x1="1.293" y1="0.000" x2="1.293" y2="0.176" />
<line x1="1.308" y1="0.000" x2="1.308" y2="0.166" />
<line x1="1.324" y1="0.000" x2="1.324" y2="0.156" />
<line x1="1.340" y1="0.000" x2="1.340" y2="0.146" />
<line x1="1.356" y1="0.000" x2="1.356" y2="0.135" />
<line x1="1.371" y1="0.000" x2="1.371" y2="0.126" />
<line x1="1.387" y1="0.000" x2="1.387" y2="0.115" />
<line x1="1.403" y1="0.000" x2="1.403" y2="0.105" />
<line x1="1.419" y1="0.000" x2="1.419" y2="0.094" />
<line x1="1.434" y1="0.000" x2="1.434" y2="0.084" />
<line x1="1.450" y1="0.000" x2="1.450" y2="0.076" />
<line x1="1.466" y1="0.000" x2="1.466" y2="0.068" />
<line x1="1.482" y1="0.000" x2="1.482" y2="0.060" />
<line x1="1.498" y1="0.000" x2="1.498" y2="0.051" />
<line x1="1.513" y1="0.000" x2="1.513" y2="0.042" />
<line x1="1.529" y1="0.000" x2="1.529" y2="0.032" />
<line x1="1.545" y1="0.000" x2="1.545" y2="0.023" />
<line x1="1.561" y1="0.000" x2="1.561" y2="0.013" />
<line x1="1.576" y1="0.000" x2="1.576" y2="0.004" />
<line x1="1.592" y1="0.000" x2="1.592" y2="-0.005" />
<line x1="1.608" y1="0.000" x2="1.608" y2="-0.013" />
<line x1="1.624" y1="0.000" x2="1.624" y2="-0.021" />
<line x1="1.639" y1="0.000" x2="1.639" y2="-0.030" />
<line x1="1.655" y1="0.000" x2="1.655" y2="-0.038" />
<line x1="1.671" y1="0.000" x2="1.671" y2="-0.045" />
<line x1="1.687" y1="0.000" x2="1.687" y2="-0.053" />
<line x1="1.702" y1="0.000" x2="1.702" y2="-0.061" />
<line x1="1.718" y1="0.000" x2="1.718" y2="-0.070" />
<line x1="1.734" y1="0.000" x2="1.734" y2="-0.080" />
<line x1="1.750" y1="0.000" x2="1.750" y2="-0.090" />
<line x1="1.765" y1="0.000" x2="1.765" y2="-0.101" />
<line x1="1.781" y1="0.000" x2="1.781" y2="-0.111" />
<line x1="1.797" y1="0.000" x2="1.797" y2="-0.121" />
<line x1="1.813" y1="0.000" x2="1.813" y2="-0.131" />
<line x1="1.829" y1="0.000" x2="1.829" y2="-0.141" />
<line x1="1.844" y1="0.000" x2="1.844" y2="-0.150" />
<line x1="1.860" y1="0.000" x2="1.860" y2="-0.158" />
<line x1="1.876" y1="0.000" x2="1.876" y2="-0.166" />
<line x1="1.892" y1="0.000" x2="1.892" y2="-0.174" />
<line x1="1.907" y1="0.000" x2="1.907" y2="-0.181" />
<line x1="1.923" y1="0.000" x2="1.923" y2="-0.189" />
<line x1="1.939" y1="0.000" x2="1.939" y2="-0.197" />
<line x1="1.955" y1="0.000" x2="1.955" y2="-0.204" />
<line x1="1.970" y1="0.000" x2="1.970" y2="-0.211" />
<line x1="1.986" y1="0.000" x2="1.986" y2="-0.218" />
</g>
</svg>