<svg xmlns="http://www.w3.org/2000/svg" width="161.8" height="100.0" viewBox="-4.998 -5.000 171.803 110.000">
<g fill="none" stroke="black" stroke-width="0.0046%" transform="translate(0, 100.0000) scale(109.2912, -109.2912)">
<polyline points="0.000,0.000 0.015,0.795 0.030,0.912 0.044,0.915 0.059,0.887 0.074,0.847 0.089,0.799 0.104,0.748 0.118,0.696 0.133,0.645 0.148,0.596 0.163,0.550 0.178,0.507 0.192,0.467 0.207,0.431 0.222,0.397 0.237,0.367 0.252,0.339 0.267,0.314 0.281,0.291 0.296,0.271 0.311,0.252 0.326,0.235 0.341,0.219 0.355,0.205 0.370,0.192 0.385,0.180 0.400,0.169 0.415,0.159 0.429,0.150 0.444,0.142 0.459,0.134 0.474,0.127 0.489,0.120 0.503,0.114 0.518,0.108 0.533,0.103 0.548,0.098 0.563,0.093 0.577,0.089 0.592,0.085 0.607,0.081 0.622,0.078 0.637,0.074 0.651,0.071 0.666,0.068 0.681,0.066 0.696,0.063 0.711,0.061 0.725,0.058 0.740,0.056 0.755,0.054 0.770,0.052 0.785,0.050 0.799,0.049 0.814,0.047 0.829,0.045 0.844,0.044 0.859,0.042 0.873,0.041 0.888,0.040 0.903,0.038 0.918,0.037 0.933,0.036 0.948,0.035 0.962,0.034 0.977,0.033 0.992,0.032 1.007,0.031 1.022,0.030 1.036,0.029 1.051,0.029 1.066,0.028 1.081,0.027 1.096,0.026 1.110,0.026 1.125,0.025 1.140,0.024 1.155,0.024 1.170,0.023 1.184,0.023 1.199,0.022 1.214,0.022 1.229,0.021 1.244,0.021 1.258,0.020 1.273,0.020 1.288,0.019 1.303,0.019 1.318,0.018 1.332,0.018 1.347,0.018 1.362,0.017 1.377,0.017 1.392,0.017 1.406,0.016 1.421,0.016 1.436,0.016 1.451,0.015 1.466,0.015 1.480,0.015" />
</g>
</svg>