<svg xmlns="http://www.w3.org/2000/svg" width="118.3" height="100.0" viewBox="-64.151 -55.000 128.301 110.000">
<g fill="none" stroke="black" stroke-width="0.0067%" transform="translate(0, 0.0000) scale(75.0000, -75.0000)">
<circle cx="0.211" cy="-0.667" r="0.007" />
<circle cx="-0.789" cy="-0.667" r="0.007" />
<circle cx="-0.789" cy="0.333" r="0.007" />
<circle cx="0.211" cy="0.333" r="0.007" />
<circle cx="0.789" cy="-0.333" r="0.007" />
<circle cx="-0.211" cy="-0.333" r="0.007" />
<circle cx="-0.211" cy="0.667" r="0.007" />
<circle cx="0.789" cy="0.667" r="0.007" />
<line x1="0.211" y1="-0.667" x2="-0.789" y2="-0.667" />
<line x1="-0.789" y1="-0.667" x2="-0.789" y2="0.333" />
<line x1="-0.789" y1="0.333" x2="0.211" y2="0.333" />
<line x1="0.211" y1="-0.667" x2="0.211" y2="0.333" />
<line x1="0.789" y1="-0.333" x2="-0.211" y2="-0.333" />
<line x1="-0.211" y1="-0.333" x2="-0.211" y2="0.667" />
<line x1="-0.211" y1="0.667" x2="0.789" y2="0.667" />
<line x1="0.789" y1="-0.333" x2="0.789" y2="0.667" />
<line x1="0.211" y1="0.333" x2="0.789" y2="0.667" />
<line x1="-0.789" y1="0.333" x2="-0.211" y2="0.667" />
<line x1="-0.789" y1="-0.667" x2="-0.211" y2="-0.333" />
<line x1="0.211" y1="-0.667" x2="0.789" y2="-0.333" />
</g>
</svg>