<svg xmlns="http://www.w3.org/2000/svg" width="58.6" height="100.0" viewBox="-34.289 -55.000 68.579 110.000">
<g fill="none" stroke="black" stroke-width="0.0121%" transform="translate(0, 0.0000) scale(41.4214, -41.4214)">
<circle cx="0.000" cy="-1.207" r="0.012" />
<circle cx="-0.707" cy="-0.500" r="0.012" />
<circle cx="-0.707" cy="0.500" r="0.012" />
<circle cx="0.000" cy="-0.207" r="0.012" />
<circle cx="0.707" cy="-0.500" r="0.012" />
<circle cx="0.000" cy="0.207" r="0.012" />
<circle cx="0.000" cy="1.207" r="0.012" />
<circle cx="0.707" cy="0.500" r="0.012" />
<line x1="0.000" y1="-1.207" x2="-0.707" y2="-0.500" />
<line x1="-0.707" y1="-0.500" x2="-0.707" y2="0.500" />
<line x1="-0.707" y1="0.500" x2="0.000" y2="-0.207" />
<line x1="0.000" y1="-1.207" x2="0.000" y2="-0.207" />
<line x1="0.707" y1="-0.500" x2="0.000" y2="0.207" />
<line x1="0.000" y1="0.207" x2="0.000" y2="1.207" />
<line x1="0.000" y1="1.207" x2="0.707" y2="0.500" />
<line x1="0.707" y1="-0.500" x2="0.707" y2="0.500" />
<line x1="0.000" y1="-0.207" x2="0.707" y2="0.500" />
<line x1="-0.707" y1="0.500" x2="0.000" y2="1.207" />
<line x1="-0.707" y1="-0.500" x2="0.000" y2="0.207" />
<line x1="0.000" y1="-1.207" x2="0.707" y2="-0.500" />
</g>
</svg>