<?xml version="1.0" encoding="UTF-8" standalone="no"?>
<!DOCTYPE svg PUBLIC "-//W3C//DTD SVG 1.1//EN"
 "http://www.w3.org/Graphics/SVG/1.1/DTD/svg11.dtd">
<!-- Generated by graphviz version 12.0.0 (0)
 -->
<!-- Pages: 1 -->
<svg width="56pt" height="54pt"
 viewBox="0.00 0.00 55.70 54.00" xmlns="http://www.w3.org/2000/svg" xmlns:xlink="http://www.w3.org/1999/xlink">
<g id="graph0" class="graph" transform="scale(0.180178 0.180178) rotate(0) translate(4 295.7)">
<!-- 1 -->
<g id="node1" class="node">
<title>1</title>
<ellipse fill="black" stroke="black" cx="156.15" cy="-154.11" rx="1.8" ry="1.8"/>
</g>
<!-- 2 -->
<g id="node2" class="node">
<title>2</title>
<ellipse fill="black" stroke="black" cx="219.43" cy="-210.34" rx="1.8" ry="1.8"/>
</g>
<!-- 1&#45;&#45;2 -->
<g id="edge1" class="edge">
<title>1&#45;&#45;2</title>
<path fill="none" stroke="black" stroke-width="0.75" d="M157.71,-155.5C166.55,-163.35 210.06,-202.01 218.14,-209.19"/>
</g>
<!-- 3 -->
<g id="node3" class="node">
<title>3</title>
<ellipse fill="black" stroke="black" cx="173.2" cy="-71.22" rx="1.8" ry="1.8"/>
</g>
<!-- 1&#45;&#45;3 -->
<g id="edge2" class="edge">
<title>1&#45;&#45;3</title>
<path fill="none" stroke="black" stroke-width="0.75" d="M156.57,-152.06C158.93,-140.59 170.47,-84.48 172.79,-73.2"/>
</g>
<!-- 4 -->
<g id="node4" class="node">
<title>4</title>
<ellipse fill="black" stroke="black" cx="75.83" cy="-180.83" rx="1.8" ry="1.8"/>
</g>
<!-- 1&#45;&#45;4 -->
<g id="edge3" class="edge">
<title>1&#45;&#45;4</title>
<path fill="none" stroke="black" stroke-width="0.75" d="M154.16,-154.77C143.05,-158.47 88.68,-176.55 77.75,-180.19"/>
</g>
<!-- 5 -->
<g id="node5" class="node">
<title>5</title>
<ellipse fill="black" stroke="black" cx="299.35" cy="-211.71" rx="1.8" ry="1.8"/>
</g>
<!-- 2&#45;&#45;5 -->
<g id="edge4" class="edge">
<title>2&#45;&#45;5</title>
<path fill="none" stroke="black" stroke-width="0.75" d="M221.41,-210.38C232.37,-210.56 285.63,-211.47 297.15,-211.67"/>
</g>
<!-- 6 -->
<g id="node6" class="node">
<title>6</title>
<ellipse fill="black" stroke="black" cx="228.5" cy="-289.9" rx="1.8" ry="1.8"/>
</g>
<!-- 2&#45;&#45;6 -->
<g id="edge5" class="edge">
<title>2&#45;&#45;6</title>
<path fill="none" stroke="black" stroke-width="0.75" d="M219.66,-212.31C220.9,-223.22 226.94,-276.25 228.25,-287.71"/>
</g>
<!-- 7 -->
<g id="node7" class="node">
<title>7</title>
<ellipse fill="black" stroke="black" cx="133.44" cy="-1.8" rx="1.8" ry="1.8"/>
</g>
<!-- 3&#45;&#45;7 -->
<g id="edge6" class="edge">
<title>3&#45;&#45;7</title>
<path fill="none" stroke="black" stroke-width="0.75" d="M172.22,-69.51C166.76,-59.99 140.27,-13.72 134.54,-3.71"/>
</g>
<!-- 8 -->
<g id="node8" class="node">
<title>8</title>
<ellipse fill="black" stroke="black" cx="237.05" cy="-23.04" rx="1.8" ry="1.8"/>
</g>
<!-- 3&#45;&#45;8 -->
<g id="edge7" class="edge">
<title>3&#45;&#45;8</title>
<path fill="none" stroke="black" stroke-width="0.75" d="M174.78,-70.03C183.53,-63.42 226.09,-31.31 235.29,-24.36"/>
</g>
<!-- 9 -->
<g id="node9" class="node">
<title>9</title>
<ellipse fill="black" stroke="black" cx="1.8" cy="-150.72" rx="1.8" ry="1.8"/>
</g>
<!-- 4&#45;&#45;9 -->
<g id="edge8" class="edge">
<title>4&#45;&#45;9</title>
<path fill="none" stroke="black" stroke-width="0.75" d="M74,-180.08C63.85,-175.95 14.51,-155.89 3.84,-151.55"/>
</g>
<!-- 10 -->
<g id="node10" class="node">
<title>10</title>
<ellipse fill="black" stroke="black" cx="36.25" cy="-250.46" rx="1.8" ry="1.8"/>
</g>
<!-- 4&#45;&#45;10 -->
<g id="edge9" class="edge">
<title>4&#45;&#45;10</title>
<path fill="none" stroke="black" stroke-width="0.75" d="M74.85,-182.55C69.43,-192.1 43.05,-238.5 37.34,-248.54"/>
</g>
</g>
</svg>
