<?xml version="1.0" encoding="UTF-8" standalone="no"?>
<!DOCTYPE svg PUBLIC "-//W3C//DTD SVG 1.1//EN"
 "http://www.w3.org/Graphics/SVG/1.1/DTD/svg11.dtd">
<!-- Generated by graphviz version 12.0.0 (0)
 -->
<!-- Pages: 1 -->
<svg width="56pt" height="54pt"
 viewBox="0.00 0.00 56.03 54.00" xmlns="http://www.w3.org/2000/svg" xmlns:xlink="http://www.w3.org/1999/xlink">
<g id="graph0" class="graph" transform="scale(0.0815689 0.0815689) rotate(0) translate(4 658.02)">
<!-- 1 -->
<g id="node1" class="node">
<title>1</title>
<ellipse fill="black" stroke="black" cx="345.7" cy="-341.53" rx="1.8" ry="1.8"/>
</g>
<!-- 2 -->
<g id="node2" class="node">
<title>2</title>
<ellipse fill="black" stroke="black" cx="424.55" cy="-398.43" rx="1.8" ry="1.8"/>
</g>
<!-- 1&#45;&#45;2 -->
<g id="edge1" class="edge">
<title>1&#45;&#45;2</title>
<path fill="none" stroke="black" stroke-width="0.75" d="M347.35,-342.72C357.61,-350.13 412.67,-389.87 422.91,-397.25"/>
</g>
<!-- 3 -->
<g id="node3" class="node">
<title>3</title>
<ellipse fill="black" stroke="black" cx="355.24" cy="-244.77" rx="1.8" ry="1.8"/>
</g>
<!-- 1&#45;&#45;3 -->
<g id="edge2" class="edge">
<title>1&#45;&#45;3</title>
<path fill="none" stroke="black" stroke-width="0.75" d="M345.9,-339.51C347.14,-326.92 353.81,-259.34 355.05,-246.78"/>
</g>
<!-- 4 -->
<g id="node4" class="node">
<title>4</title>
<ellipse fill="black" stroke="black" cx="257.12" cy="-381.53" rx="1.8" ry="1.8"/>
</g>
<!-- 1&#45;&#45;4 -->
<g id="edge3" class="edge">
<title>1&#45;&#45;4</title>
<path fill="none" stroke="black" stroke-width="0.75" d="M343.85,-342.37C332.32,-347.57 270.45,-375.5 258.96,-380.69"/>
</g>
<!-- 5 -->
<g id="node5" class="node">
<title>5</title>
<ellipse fill="black" stroke="black" cx="442.39" cy="-487.03" rx="1.8" ry="1.8"/>
</g>
<!-- 2&#45;&#45;5 -->
<g id="edge4" class="edge">
<title>2&#45;&#45;5</title>
<path fill="none" stroke="black" stroke-width="0.75" d="M424.99,-400.62C427.46,-412.88 439.53,-472.86 441.96,-484.92"/>
</g>
<!-- 6 -->
<g id="node6" class="node">
<title>6</title>
<ellipse fill="black" stroke="black" cx="514.2" cy="-387.4" rx="1.8" ry="1.8"/>
</g>
<!-- 2&#45;&#45;6 -->
<g id="edge5" class="edge">
<title>2&#45;&#45;6</title>
<path fill="none" stroke="black" stroke-width="0.75" d="M426.76,-398.16C439.17,-396.63 499.86,-389.16 512.07,-387.66"/>
</g>
<!-- 7 -->
<g id="node7" class="node">
<title>7</title>
<ellipse fill="black" stroke="black" cx="300.64" cy="-172.74" rx="1.8" ry="1.8"/>
</g>
<!-- 3&#45;&#45;7 -->
<g id="edge6" class="edge">
<title>3&#45;&#45;7</title>
<path fill="none" stroke="black" stroke-width="0.75" d="M353.89,-242.99C346.34,-233.03 309.38,-184.26 301.95,-174.46"/>
</g>
<!-- 8 -->
<g id="node8" class="node">
<title>8</title>
<ellipse fill="black" stroke="black" cx="422.83" cy="-184.84" rx="1.8" ry="1.8"/>
</g>
<!-- 3&#45;&#45;8 -->
<g id="edge7" class="edge">
<title>3&#45;&#45;8</title>
<path fill="none" stroke="black" stroke-width="0.75" d="M356.91,-243.29C366.35,-234.93 412.82,-193.72 421.45,-186.06"/>
</g>
<!-- 9 -->
<g id="node9" class="node">
<title>9</title>
<ellipse fill="black" stroke="black" cx="222.35" cy="-465.02" rx="1.8" ry="1.8"/>
</g>
<!-- 4&#45;&#45;9 -->
<g id="edge8" class="edge">
<title>4&#45;&#45;9</title>
<path fill="none" stroke="black" stroke-width="0.75" d="M256.26,-383.59C251.45,-395.14 227.91,-451.67 223.18,-463.03"/>
</g>
<!-- 10 -->
<g id="node10" class="node">
<title>10</title>
<ellipse fill="black" stroke="black" cx="171.64" cy="-351.96" rx="1.8" ry="1.8"/>
</g>
<!-- 4&#45;&#45;10 -->
<g id="edge9" class="edge">
<title>4&#45;&#45;10</title>
<path fill="none" stroke="black" stroke-width="0.75" d="M255,-380.79C243.18,-376.7 185.31,-356.69 173.68,-352.66"/>
</g>
<!-- 11 -->
<g id="node11" class="node">
<title>11</title>
<ellipse fill="black" stroke="black" cx="510.66" cy="-542.85" rx="1.8" ry="1.8"/>
</g>
<!-- 5&#45;&#45;11 -->
<g id="edge10" class="edge">
<title>5&#45;&#45;11</title>
<path fill="none" stroke="black" stroke-width="0.75" d="M444.07,-488.41C453.6,-496.2 500.55,-534.58 509.27,-541.71"/>
</g>
<!-- 12 -->
<g id="node12" class="node">
<title>12</title>
<ellipse fill="black" stroke="black" cx="423.44" cy="-570.51" rx="1.8" ry="1.8"/>
</g>
<!-- 5&#45;&#45;12 -->
<g id="edge11" class="edge">
<title>5&#45;&#45;12</title>
<path fill="none" stroke="black" stroke-width="0.75" d="M441.92,-489.1C439.3,-500.64 426.47,-557.16 423.89,-568.52"/>
</g>
<!-- 13 -->
<g id="node13" class="node">
<title>13</title>
<ellipse fill="black" stroke="black" cx="588.62" cy="-434.68" rx="1.8" ry="1.8"/>
</g>
<!-- 6&#45;&#45;13 -->
<g id="edge12" class="edge">
<title>6&#45;&#45;13</title>
<path fill="none" stroke="black" stroke-width="0.75" d="M516.04,-388.57C526.34,-395.11 576.72,-427.12 586.84,-433.55"/>
</g>
<!-- 14 -->
<g id="node14" class="node">
<title>14</title>
<ellipse fill="black" stroke="black" cx="587.45" cy="-343.12" rx="1.8" ry="1.8"/>
</g>
<!-- 6&#45;&#45;14 -->
<g id="edge13" class="edge">
<title>6&#45;&#45;14</title>
<path fill="none" stroke="black" stroke-width="0.75" d="M516.01,-386.3C526.15,-380.18 575.73,-350.2 585.7,-344.17"/>
</g>
<!-- 15 -->
<g id="node15" class="node">
<title>15</title>
<ellipse fill="black" stroke="black" cx="225.53" cy="-131.72" rx="1.8" ry="1.8"/>
</g>
<!-- 7&#45;&#45;15 -->
<g id="edge14" class="edge">
<title>7&#45;&#45;15</title>
<path fill="none" stroke="black" stroke-width="0.75" d="M298.79,-171.73C288.39,-166.05 237.54,-138.29 227.32,-132.7"/>
</g>
<!-- 16 -->
<g id="node16" class="node">
<title>16</title>
<ellipse fill="black" stroke="black" cx="303.94" cy="-84.61" rx="1.8" ry="1.8"/>
</g>
<!-- 7&#45;&#45;16 -->
<g id="edge15" class="edge">
<title>7&#45;&#45;16</title>
<path fill="none" stroke="black" stroke-width="0.75" d="M300.73,-170.57C301.18,-158.37 303.41,-98.7 303.86,-86.71"/>
</g>
<!-- 17 -->
<g id="node17" class="node">
<title>17</title>
<ellipse fill="black" stroke="black" cx="436.63" cy="-97.75" rx="1.8" ry="1.8"/>
</g>
<!-- 8&#45;&#45;17 -->
<g id="edge16" class="edge">
<title>8&#45;&#45;17</title>
<path fill="none" stroke="black" stroke-width="0.75" d="M423.17,-182.69C425.08,-170.64 434.42,-111.68 436.3,-99.83"/>
</g>
<!-- 18 -->
<g id="node18" class="node">
<title>18</title>
<ellipse fill="black" stroke="black" cx="504.49" cy="-159.23" rx="1.8" ry="1.8"/>
</g>
<!-- 8&#45;&#45;18 -->
<g id="edge17" class="edge">
<title>8&#45;&#45;18</title>
<path fill="none" stroke="black" stroke-width="0.75" d="M424.85,-184.21C436.15,-180.66 491.43,-163.33 502.54,-159.84"/>
</g>
<!-- 19 -->
<g id="node19" class="node">
<title>19</title>
<ellipse fill="black" stroke="black" cx="144.31" cy="-505.4" rx="1.8" ry="1.8"/>
</g>
<!-- 9&#45;&#45;19 -->
<g id="edge18" class="edge">
<title>9&#45;&#45;19</title>
<path fill="none" stroke="black" stroke-width="0.75" d="M220.42,-466.02C209.62,-471.61 156.79,-498.95 146.17,-504.44"/>
</g>
<!-- 20 -->
<g id="node20" class="node">
<title>20</title>
<ellipse fill="black" stroke="black" cx="223.08" cy="-551.09" rx="1.8" ry="1.8"/>
</g>
<!-- 9&#45;&#45;20 -->
<g id="edge19" class="edge">
<title>9&#45;&#45;20</title>
<path fill="none" stroke="black" stroke-width="0.75" d="M222.37,-467.15C222.47,-479.06 222.96,-537.32 223.06,-549.03"/>
</g>
<!-- 21 -->
<g id="node21" class="node">
<title>21</title>
<ellipse fill="black" stroke="black" cx="89.83" cy="-383.6" rx="1.8" ry="1.8"/>
</g>
<!-- 10&#45;&#45;21 -->
<g id="edge20" class="edge">
<title>10&#45;&#45;21</title>
<path fill="none" stroke="black" stroke-width="0.75" d="M169.62,-352.74C158.3,-357.12 102.92,-378.54 91.79,-382.84"/>
</g>
<!-- 22 -->
<g id="node22" class="node">
<title>22</title>
<ellipse fill="black" stroke="black" cx="107.3" cy="-294.61" rx="1.8" ry="1.8"/>
</g>
<!-- 10&#45;&#45;22 -->
<g id="edge21" class="edge">
<title>10&#45;&#45;22</title>
<path fill="none" stroke="black" stroke-width="0.75" d="M170.05,-350.54C161.07,-342.54 116.83,-303.1 108.61,-295.78"/>
</g>
<!-- 23 -->
<g id="node23" class="node">
<title>23</title>
<ellipse fill="black" stroke="black" cx="537.8" cy="-627.06" rx="1.8" ry="1.8"/>
</g>
<!-- 11&#45;&#45;23 -->
<g id="edge22" class="edge">
<title>11&#45;&#45;23</title>
<path fill="none" stroke="black" stroke-width="0.75" d="M511.33,-544.93C515.09,-556.58 533.46,-613.59 537.16,-625.05"/>
</g>
<!-- 24 -->
<g id="node24" class="node">
<title>24</title>
<ellipse fill="black" stroke="black" cx="587.89" cy="-580.45" rx="1.8" ry="1.8"/>
</g>
<!-- 11&#45;&#45;24 -->
<g id="edge23" class="edge">
<title>11&#45;&#45;24</title>
<path fill="none" stroke="black" stroke-width="0.75" d="M512.57,-543.78C523.25,-548.98 575.54,-574.43 586.05,-579.55"/>
</g>
<!-- 25 -->
<g id="node25" class="node">
<title>25</title>
<ellipse fill="black" stroke="black" cx="393.25" cy="-647.54" rx="1.8" ry="1.8"/>
</g>
<!-- 12&#45;&#45;25 -->
<g id="edge24" class="edge">
<title>12&#45;&#45;25</title>
<path fill="none" stroke="black" stroke-width="0.75" d="M422.69,-572.41C418.55,-582.98 398.44,-634.32 394.09,-645.42"/>
</g>
<!-- 26 -->
<g id="node26" class="node">
<title>26</title>
<ellipse fill="black" stroke="black" cx="459.49" cy="-652.22" rx="1.8" ry="1.8"/>
</g>
<!-- 12&#45;&#45;26 -->
<g id="edge25" class="edge">
<title>12&#45;&#45;26</title>
<path fill="none" stroke="black" stroke-width="0.75" d="M424.33,-572.53C429.32,-583.83 453.72,-639.15 458.63,-650.27"/>
</g>
<!-- 27 -->
<g id="node27" class="node">
<title>27</title>
<ellipse fill="black" stroke="black" cx="677.08" cy="-434.1" rx="1.8" ry="1.8"/>
</g>
<!-- 13&#45;&#45;27 -->
<g id="edge26" class="edge">
<title>13&#45;&#45;27</title>
<path fill="none" stroke="black" stroke-width="0.75" d="M590.81,-434.67C603.05,-434.59 662.93,-434.2 674.97,-434.12"/>
</g>
<!-- 28 -->
<g id="node28" class="node">
<title>28</title>
<ellipse fill="black" stroke="black" cx="648.48" cy="-496.26" rx="1.8" ry="1.8"/>
</g>
<!-- 13&#45;&#45;28 -->
<g id="edge27" class="edge">
<title>13&#45;&#45;28</title>
<path fill="none" stroke="black" stroke-width="0.75" d="M590.1,-436.2C598.45,-444.8 639.61,-487.14 647.26,-495.01"/>
</g>
<!-- 29 -->
<g id="node29" class="node">
<title>29</title>
<ellipse fill="black" stroke="black" cx="651.02" cy="-290.19" rx="1.8" ry="1.8"/>
</g>
<!-- 14&#45;&#45;29 -->
<g id="edge28" class="edge">
<title>14&#45;&#45;29</title>
<path fill="none" stroke="black" stroke-width="0.75" d="M589.02,-341.81C597.74,-334.55 640.1,-299.27 649.27,-291.65"/>
</g>
<!-- 30 -->
<g id="node30" class="node">
<title>30</title>
<ellipse fill="black" stroke="black" cx="676.31" cy="-351.66" rx="1.8" ry="1.8"/>
</g>
<!-- 14&#45;&#45;30 -->
<g id="edge29" class="edge">
<title>14&#45;&#45;30</title>
<path fill="none" stroke="black" stroke-width="0.75" d="M589.64,-343.33C601.94,-344.51 662.1,-350.3 674.19,-351.46"/>
</g>
<!-- 31 -->
<g id="node31" class="node">
<title>31</title>
<ellipse fill="black" stroke="black" cx="147.77" cy="-103.55" rx="1.8" ry="1.8"/>
</g>
<!-- 15&#45;&#45;31 -->
<g id="edge30" class="edge">
<title>15&#45;&#45;31</title>
<path fill="none" stroke="black" stroke-width="0.75" d="M223.6,-131.03C212.94,-127.16 161.12,-108.39 149.91,-104.32"/>
</g>
<!-- 32 -->
<g id="node32" class="node">
<title>32</title>
<ellipse fill="black" stroke="black" cx="187.95" cy="-50.69" rx="1.8" ry="1.8"/>
</g>
<!-- 15&#45;&#45;32 -->
<g id="edge31" class="edge">
<title>15&#45;&#45;32</title>
<path fill="none" stroke="black" stroke-width="0.75" d="M224.6,-129.72C219.4,-118.51 193.96,-63.65 188.85,-52.63"/>
</g>
<!-- 33 -->
<g id="node33" class="node">
<title>33</title>
<ellipse fill="black" stroke="black" cx="326.78" cy="-1.8" rx="1.8" ry="1.8"/>
</g>
<!-- 16&#45;&#45;33 -->
<g id="edge32" class="edge">
<title>16&#45;&#45;33</title>
<path fill="none" stroke="black" stroke-width="0.75" d="M304.5,-82.56C307.66,-71.1 323.12,-15.04 326.23,-3.78"/>
</g>
<!-- 34 -->
<g id="node34" class="node">
<title>34</title>
<ellipse fill="black" stroke="black" cx="258.67" cy="-8.59" rx="1.8" ry="1.8"/>
</g>
<!-- 16&#45;&#45;34 -->
<g id="edge33" class="edge">
<title>16&#45;&#45;34</title>
<path fill="none" stroke="black" stroke-width="0.75" d="M302.82,-82.73C296.56,-72.21 265.91,-20.75 259.75,-10.4"/>
</g>
<!-- 35 -->
<g id="node35" class="node">
<title>35</title>
<ellipse fill="black" stroke="black" cx="495.64" cy="-31.85" rx="1.8" ry="1.8"/>
</g>
<!-- 17&#45;&#45;35 -->
<g id="edge34" class="edge">
<title>17&#45;&#45;35</title>
<path fill="none" stroke="black" stroke-width="0.75" d="M438.09,-96.12C446.32,-86.92 486.9,-41.61 494.43,-33.19"/>
</g>
<!-- 36 -->
<g id="node36" class="node">
<title>36</title>
<ellipse fill="black" stroke="black" cx="430.11" cy="-12.11" rx="1.8" ry="1.8"/>
</g>
<!-- 17&#45;&#45;36 -->
<g id="edge35" class="edge">
<title>17&#45;&#45;36</title>
<path fill="none" stroke="black" stroke-width="0.75" d="M436.47,-95.63C435.57,-83.78 431.15,-25.81 430.26,-14.16"/>
</g>
<!-- 37 -->
<g id="node37" class="node">
<title>37</title>
<ellipse fill="black" stroke="black" cx="556.96" cy="-87" rx="1.8" ry="1.8"/>
</g>
<!-- 18&#45;&#45;37 -->
<g id="edge36" class="edge">
<title>18&#45;&#45;37</title>
<path fill="none" stroke="black" stroke-width="0.75" d="M505.79,-157.45C513.05,-147.45 548.57,-98.55 555.71,-88.72"/>
</g>
<!-- 38 -->
<g id="node38" class="node">
<title>38</title>
<ellipse fill="black" stroke="black" cx="586.23" cy="-146.69" rx="1.8" ry="1.8"/>
</g>
<!-- 18&#45;&#45;38 -->
<g id="edge37" class="edge">
<title>18&#45;&#45;38</title>
<path fill="none" stroke="black" stroke-width="0.75" d="M506.51,-158.92C517.72,-157.2 572.2,-148.85 583.98,-147.04"/>
</g>
<!-- 39 -->
<g id="node39" class="node">
<title>39</title>
<ellipse fill="black" stroke="black" cx="60.54" cy="-523.7" rx="1.8" ry="1.8"/>
</g>
<!-- 19&#45;&#45;39 -->
<g id="edge38" class="edge">
<title>19&#45;&#45;39</title>
<path fill="none" stroke="black" stroke-width="0.75" d="M142.24,-505.86C130.65,-508.39 73.94,-520.78 62.54,-523.27"/>
</g>
<!-- 40 -->
<g id="node40" class="node">
<title>40</title>
<ellipse fill="black" stroke="black" cx="97.31" cy="-580.83" rx="1.8" ry="1.8"/>
</g>
<!-- 19&#45;&#45;40 -->
<g id="edge39" class="edge">
<title>19&#45;&#45;40</title>
<path fill="none" stroke="black" stroke-width="0.75" d="M143.15,-507.27C136.65,-517.7 104.83,-568.77 98.43,-579.04"/>
</g>
<!-- 41 -->
<g id="node41" class="node">
<title>41</title>
<ellipse fill="black" stroke="black" cx="235.45" cy="-633.06" rx="1.8" ry="1.8"/>
</g>
<!-- 20&#45;&#45;41 -->
<g id="edge40" class="edge">
<title>20&#45;&#45;41</title>
<path fill="none" stroke="black" stroke-width="0.75" d="M223.38,-553.11C225.08,-564.35 233.33,-618.98 235.11,-630.8"/>
</g>
<!-- 42 -->
<g id="node42" class="node">
<title>42</title>
<ellipse fill="black" stroke="black" cx="169.62" cy="-622.61" rx="1.8" ry="1.8"/>
</g>
<!-- 20&#45;&#45;42 -->
<g id="edge41" class="edge">
<title>20&#45;&#45;42</title>
<path fill="none" stroke="black" stroke-width="0.75" d="M221.75,-552.85C214.36,-562.75 178.17,-611.17 170.9,-620.9"/>
</g>
<!-- 43 -->
<g id="node43" class="node">
<title>43</title>
<ellipse fill="black" stroke="black" cx="1.8" cy="-370.06" rx="1.8" ry="1.8"/>
</g>
<!-- 21&#45;&#45;43 -->
<g id="edge42" class="edge">
<title>21&#45;&#45;43</title>
<path fill="none" stroke="black" stroke-width="0.75" d="M87.66,-383.26C75.48,-381.39 15.88,-372.23 3.9,-370.39"/>
</g>
<!-- 44 -->
<g id="node44" class="node">
<title>44</title>
<ellipse fill="black" stroke="black" cx="21.55" cy="-434.99" rx="1.8" ry="1.8"/>
</g>
<!-- 21&#45;&#45;44 -->
<g id="edge43" class="edge">
<title>21&#45;&#45;44</title>
<path fill="none" stroke="black" stroke-width="0.75" d="M88.15,-384.87C78.62,-392.04 31.67,-427.37 22.95,-433.94"/>
</g>
<!-- 45 -->
<g id="node45" class="node">
<title>45</title>
<ellipse fill="black" stroke="black" cx="53.78" cy="-231.28" rx="1.8" ry="1.8"/>
</g>
<!-- 22&#45;&#45;45 -->
<g id="edge44" class="edge">
<title>22&#45;&#45;45</title>
<path fill="none" stroke="black" stroke-width="0.75" d="M105.98,-293.04C98.64,-284.35 62.97,-242.15 55.26,-233.02"/>
</g>
<!-- 46 -->
<g id="node46" class="node">
<title>46</title>
<ellipse fill="black" stroke="black" cx="18.23" cy="-287.79" rx="1.8" ry="1.8"/>
</g>
<!-- 22&#45;&#45;46 -->
<g id="edge45" class="edge">
<title>22&#45;&#45;46</title>
<path fill="none" stroke="black" stroke-width="0.75" d="M105.1,-294.44C92.78,-293.49 32.48,-288.88 20.36,-287.95"/>
</g>
</g>
</svg>
