<?xml version="1.0" encoding="UTF-8" standalone="no"?>
<!DOCTYPE svg PUBLIC "-//W3C//DTD SVG 1.1//EN"
 "http://www.w3.org/Graphics/SVG/1.1/DTD/svg11.dtd">
<!-- Generated by graphviz version 12.0.0 (0)
 -->
<!-- Pages: 1 -->
<svg width="55pt" height="54pt"
 viewBox="0.00 0.00 54.80 54.00" xmlns="http://www.w3.org/2000/svg" xmlns:xlink="http://www.w3.org/1999/xlink">
<g id="graph0" class="graph" transform="scale(0.112206 0.112206) rotate(0) translate(4 477.26)">
<!-- 1 -->
<g id="node1" class="node">
<title>1</title>
<ellipse fill="black" stroke="black" cx="247.23" cy="-247.41" rx="1.8" ry="1.8"/>
</g>
<!-- 2 -->
<g id="node2" class="node">
<title>2</title>
<ellipse fill="black" stroke="black" cx="317.42" cy="-306.39" rx="1.8" ry="1.8"/>
</g>
<!-- 1&#45;&#45;2 -->
<g id="edge1" class="edge">
<title>1&#45;&#45;2</title>
<path fill="none" stroke="black" stroke-width="0.75" d="M248.96,-248.87C258.76,-257.1 307.02,-297.65 315.98,-305.19"/>
</g>
<!-- 3 -->
<g id="node3" class="node">
<title>3</title>
<ellipse fill="black" stroke="black" cx="263.28" cy="-157.14" rx="1.8" ry="1.8"/>
</g>
<!-- 1&#45;&#45;3 -->
<g id="edge2" class="edge">
<title>1&#45;&#45;3</title>
<path fill="none" stroke="black" stroke-width="0.75" d="M247.63,-245.18C249.85,-232.69 260.71,-171.58 262.9,-159.29"/>
</g>
<!-- 4 -->
<g id="node4" class="node">
<title>4</title>
<ellipse fill="black" stroke="black" cx="161.06" cy="-278.81" rx="1.8" ry="1.8"/>
</g>
<!-- 1&#45;&#45;4 -->
<g id="edge3" class="edge">
<title>1&#45;&#45;4</title>
<path fill="none" stroke="black" stroke-width="0.75" d="M245.1,-248.19C233.18,-252.53 174.85,-273.78 163.12,-278.06"/>
</g>
<!-- 5 -->
<g id="node5" class="node">
<title>5</title>
<ellipse fill="black" stroke="black" cx="327.33" cy="-392.28" rx="1.8" ry="1.8"/>
</g>
<!-- 2&#45;&#45;5 -->
<g id="edge4" class="edge">
<title>2&#45;&#45;5</title>
<path fill="none" stroke="black" stroke-width="0.75" d="M317.66,-308.51C319.03,-320.4 325.75,-378.54 327.1,-390.23"/>
</g>
<!-- 6 -->
<g id="node6" class="node">
<title>6</title>
<ellipse fill="black" stroke="black" cx="403.71" cy="-301.95" rx="1.8" ry="1.8"/>
</g>
<!-- 2&#45;&#45;6 -->
<g id="edge5" class="edge">
<title>2&#45;&#45;6</title>
<path fill="none" stroke="black" stroke-width="0.75" d="M319.55,-306.28C331.49,-305.67 389.91,-302.66 401.65,-302.06"/>
</g>
<!-- 7 -->
<g id="node7" class="node">
<title>7</title>
<ellipse fill="black" stroke="black" cx="216.44" cy="-84.6" rx="1.8" ry="1.8"/>
</g>
<!-- 3&#45;&#45;7 -->
<g id="edge6" class="edge">
<title>3&#45;&#45;7</title>
<path fill="none" stroke="black" stroke-width="0.75" d="M262.12,-155.34C255.64,-145.31 223.93,-96.2 217.56,-86.33"/>
</g>
<!-- 8 -->
<g id="node8" class="node">
<title>8</title>
<ellipse fill="black" stroke="black" cx="332.32" cy="-105.25" rx="1.8" ry="1.8"/>
</g>
<!-- 3&#45;&#45;8 -->
<g id="edge7" class="edge">
<title>3&#45;&#45;8</title>
<path fill="none" stroke="black" stroke-width="0.75" d="M264.99,-155.85C274.62,-148.61 322.1,-112.93 330.91,-106.31"/>
</g>
<!-- 9 -->
<g id="node9" class="node">
<title>9</title>
<ellipse fill="black" stroke="black" cx="122.1" cy="-355.92" rx="1.8" ry="1.8"/>
</g>
<!-- 4&#45;&#45;9 -->
<g id="edge8" class="edge">
<title>4&#45;&#45;9</title>
<path fill="none" stroke="black" stroke-width="0.75" d="M160.1,-280.71C154.71,-291.38 128.33,-343.59 123.03,-354.08"/>
</g>
<!-- 10 -->
<g id="node10" class="node">
<title>10</title>
<ellipse fill="black" stroke="black" cx="81.47" cy="-245.26" rx="1.8" ry="1.8"/>
</g>
<!-- 4&#45;&#45;10 -->
<g id="edge9" class="edge">
<title>4&#45;&#45;10</title>
<path fill="none" stroke="black" stroke-width="0.75" d="M159.1,-277.98C148.08,-273.34 94.2,-250.63 83.37,-246.06"/>
</g>
<!-- 11 -->
<g id="node11" class="node">
<title>11</title>
<ellipse fill="black" stroke="black" cx="388.62" cy="-448.88" rx="1.8" ry="1.8"/>
</g>
<!-- 5&#45;&#45;11 -->
<g id="edge10" class="edge">
<title>5&#45;&#45;11</title>
<path fill="none" stroke="black" stroke-width="0.75" d="M328.85,-393.68C337.25,-401.44 378.1,-439.17 386.93,-447.33"/>
</g>
<!-- 12 -->
<g id="node12" class="node">
<title>12</title>
<ellipse fill="black" stroke="black" cx="309.17" cy="-471.46" rx="1.8" ry="1.8"/>
</g>
<!-- 5&#45;&#45;12 -->
<g id="edge11" class="edge">
<title>5&#45;&#45;12</title>
<path fill="none" stroke="black" stroke-width="0.75" d="M326.88,-394.24C324.39,-405.09 312.29,-457.87 309.67,-469.28"/>
</g>
<!-- 13 -->
<g id="node13" class="node">
<title>13</title>
<ellipse fill="black" stroke="black" cx="478.56" cy="-270.47" rx="1.8" ry="1.8"/>
</g>
<!-- 6&#45;&#45;13 -->
<g id="edge12" class="edge">
<title>6&#45;&#45;13</title>
<path fill="none" stroke="black" stroke-width="0.75" d="M405.56,-301.17C415.83,-296.85 465.71,-275.88 476.5,-271.34"/>
</g>
<!-- 14 -->
<g id="node14" class="node">
<title>14</title>
<ellipse fill="black" stroke="black" cx="469.77" cy="-352.84" rx="1.8" ry="1.8"/>
</g>
<!-- 6&#45;&#45;14 -->
<g id="edge13" class="edge">
<title>6&#45;&#45;14</title>
<path fill="none" stroke="black" stroke-width="0.75" d="M405.34,-303.21C414.4,-310.19 458.43,-344.1 467.95,-351.43"/>
</g>
<!-- 15 -->
<g id="node15" class="node">
<title>15</title>
<ellipse fill="black" stroke="black" cx="150.45" cy="-37.43" rx="1.8" ry="1.8"/>
</g>
<!-- 7&#45;&#45;15 -->
<g id="edge14" class="edge">
<title>7&#45;&#45;15</title>
<path fill="none" stroke="black" stroke-width="0.75" d="M214.81,-83.44C205.76,-76.97 161.77,-45.52 152.26,-38.72"/>
</g>
<!-- 16 -->
<g id="node16" class="node">
<title>16</title>
<ellipse fill="black" stroke="black" cx="225.44" cy="-1.8" rx="1.8" ry="1.8"/>
</g>
<!-- 7&#45;&#45;16 -->
<g id="edge15" class="edge">
<title>7&#45;&#45;16</title>
<path fill="none" stroke="black" stroke-width="0.75" d="M216.66,-82.55C217.9,-71.2 223.9,-16.01 225.19,-4.08"/>
</g>
<!-- 17 -->
<g id="node17" class="node">
<title>17</title>
<ellipse fill="black" stroke="black" cx="352.7" cy="-24.49" rx="1.8" ry="1.8"/>
</g>
<!-- 8&#45;&#45;17 -->
<g id="edge16" class="edge">
<title>8&#45;&#45;17</title>
<path fill="none" stroke="black" stroke-width="0.75" d="M332.83,-103.25C335.62,-92.18 349.2,-38.35 352.14,-26.71"/>
</g>
<!-- 18 -->
<g id="node18" class="node">
<title>18</title>
<ellipse fill="black" stroke="black" cx="410.6" cy="-83.88" rx="1.8" ry="1.8"/>
</g>
<!-- 8&#45;&#45;18 -->
<g id="edge17" class="edge">
<title>8&#45;&#45;18</title>
<path fill="none" stroke="black" stroke-width="0.75" d="M334.26,-104.72C344.99,-101.79 397.16,-87.55 408.44,-84.47"/>
</g>
<!-- 19 -->
<g id="node19" class="node">
<title>19</title>
<ellipse fill="black" stroke="black" cx="45.97" cy="-389.83" rx="1.8" ry="1.8"/>
</g>
<!-- 9&#45;&#45;19 -->
<g id="edge18" class="edge">
<title>9&#45;&#45;19</title>
<path fill="none" stroke="black" stroke-width="0.75" d="M120.22,-356.76C109.78,-361.41 59.04,-384.01 48.07,-388.9"/>
</g>
<!-- 20 -->
<g id="node20" class="node">
<title>20</title>
<ellipse fill="black" stroke="black" cx="114.17" cy="-436.72" rx="1.8" ry="1.8"/>
</g>
<!-- 9&#45;&#45;20 -->
<g id="edge19" class="edge">
<title>9&#45;&#45;20</title>
<path fill="none" stroke="black" stroke-width="0.75" d="M121.9,-357.92C120.82,-369 115.53,-422.85 114.38,-434.49"/>
</g>
<!-- 21 -->
<g id="node21" class="node">
<title>21</title>
<ellipse fill="black" stroke="black" cx="1.8" cy="-269.74" rx="1.8" ry="1.8"/>
</g>
<!-- 10&#45;&#45;21 -->
<g id="edge20" class="edge">
<title>10&#45;&#45;21</title>
<path fill="none" stroke="black" stroke-width="0.75" d="M79.5,-245.87C68.57,-249.23 15.48,-265.54 3.99,-269.07"/>
</g>
<!-- 22 -->
<g id="node22" class="node">
<title>22</title>
<ellipse fill="black" stroke="black" cx="22.59" cy="-189.42" rx="1.8" ry="1.8"/>
</g>
<!-- 10&#45;&#45;22 -->
<g id="edge21" class="edge">
<title>10&#45;&#45;22</title>
<path fill="none" stroke="black" stroke-width="0.75" d="M80.01,-243.88C71.94,-236.22 32.7,-199.01 24.21,-190.96"/>
</g>
</g>
</svg>
