<svg xmlns="http://www.w3.org/2000/svg" width="162" height="24" viewBox="0 0 162 24">
<rect x="0" y="0" width="6" height="6" fill="rgb(128,128,128)"/>
<rect x="0" y="6" width="6" height="6" fill="rgb(128,128,128)"/>
<rect x="0" y="12" width="6" height="6" fill="rgb(128,128,128)"/>
<rect x="0" y="18" width="6" height="6" fill="rgb(128,128,128)"/>
<rect x="6" y="0" width="6" height="6" fill="rgb(128,128,128)"/>
<rect x="6" y="6" width="6" height="6" fill="rgb(128,128,128)"/>
<rect x="6" y="12" width="6" height="6" fill="rgb(128,128,128)"/>
<rect x="6" y="18" width="6" height="6" fill="rgb(0,0,0)"/>
<rect x="12" y="0" width="6" height="6" fill="rgb(128,128,128)"/>
<rect x="12" y="6" width="6" height="6" fill="rgb(128,128,128)"/>
<rect x="12" y="12" width="6" height="6" fill="rgb(0,0,0)"/>
<rect x="18" y="0" width="6" height="6" fill="rgb(128,128,128)"/>
<rect x="18" y="6" width="6" height="6" fill="rgb(128,128,128)"/>
<rect x="18" y="12" width="6" height="6" fill="rgb(0,0,0)"/>
<rect x="18" y="18" width="6" height="6" fill="rgb(128,128,128)"/>
<rect x="24" y="0" width="6" height="6" fill="rgb(128,128,128)"/>
<rect x="24" y="6" width="6" height="6" fill="rgb(128,128,128)"/>
<rect x="24" y="12" width="6" height="6" fill="rgb(0,0,0)"/>
<rect x="24" y="18" width="6" height="6" fill="rgb(0,0,0)"/>
<rect x="30" y="0" width="6" height="6" fill="rgb(128,128,128)"/>
<rect x="30" y="6" width="6" height="6" fill="rgb(0,0,0)"/>
<rect x="36" y="0" width="6" height="6" fill="rgb(128,128,128)"/>
<rect x="36" y="6" width="6" height="6" fill="rgb(0,0,0)"/>
<rect x="36" y="18" width="6" height="6" fill="rgb(128,128,128)"/>
<rect x="42" y="0" width="6" height="6" fill="rgb(128,128,128)"/>
<rect x="42" y="6" width="6" height="6" fill="rgb(0,0,0)"/>
<rect x="42" y="18" width="6" height="6" fill="rgb(0,0,0)"/>
<rect x="48" y="0" width="6" height="6" fill="rgb(128,128,128)"/>
<rect x="48" y="6" width="6" height="6" fill="rgb(0,0,0)"/>
<rect x="48" y="12" width="6" height="6" fill="rgb(128,128,128)"/>
<rect x="54" y="0" width="6" height="6" fill="rgb(128,128,128)"/>
<rect x="54" y="6" width="6" height="6" fill="rgb(0,0,0)"/>
<rect x="54" y="12" width="6" height="6" fill="rgb(128,128,128)"/>
<rect x="54" y="18" width="6" height="6" fill="rgb(128,128,128)"/>
<rect x="60" y="0" width="6" height="6" fill="rgb(128,128,128)"/>
<rect x="60" y="6" width="6" height="6" fill="rgb(0,0,0)"/>
<rect x="60" y="12" width="6" height="6" fill="rgb(128,128,128)"/>
<rect x="60" y="18" width="6" height="6" fill="rgb(0,0,0)"/>
<rect x="66" y="0" width="6" height="6" fill="rgb(128,128,128)"/>
<rect x="66" y="6" width="6" height="6" fill="rgb(0,0,0)"/>
<rect x="66" y="12" width="6" height="6" fill="rgb(0,0,0)"/>
<rect x="72" y="0" width="6" height="6" fill="rgb(128,128,128)"/>
<rect x="72" y="6" width="6" height="6" fill="rgb(0,0,0)"/>
<rect x="72" y="12" width="6" height="6" fill="rgb(0,0,0)"/>
<rect x="72" y="18" width="6" height="6" fill="rgb(128,128,128)"/>
<rect x="78" y="0" width="6" height="6" fill="rgb(128,128,128)"/>
<rect x="78" y="6" width="6" height="6" fill="rgb(0,0,0)"/>
<rect x="78" y="12" width="6" height="6" fill="rgb(0,0,0)"/>
<rect x="78" y="18" width="6" height="6" fill="rgb(0,0,0)"/>
<rect x="84" y="0" width="6" height="6" fill="rgb(0,0,0)"/>
<rect x="90" y="0" width="6" height="6" fill="rgb(0,0,0)"/>
<rect x="90" y="18" width="6" height="6" fill="rgb(128,128,128)"/>
<rect x="96" y="0" width="6" height="6" fill="rgb(0,0,0)"/>
<rect x="96" y="18" width="6" height="6" fill="rgb(0,0,0)"/>
<rect x="102" y="0" width="6" height="6" fill="rgb(0,0,0)"/>
<rect x="102" y="12" width="6" height="6" fill="rgb(128,128,128)"/>
<rect x="108" y="0" width="6" height="6" fill="rgb(0,0,0)"/>
<rect x="108" y="12" width="6" height="6" fill="rgb(128,128,128)"/>
<rect x="108" y="18" width="6" height="6" fill="rgb(128,128,128)"/>
<rect x="114" y="0" width="6" height="6" fill="rgb(0,0,0)"/>
<rect x="114" y="12" width="6" height="6" fill="rgb(128,128,128)"/>
<rect x="114" y="18" width="6" height="6" fill="rgb(0,0,0)"/>
<rect x="120" y="0" width="6" height="6" fill="rgb(0,0,0)"/>
<rect x="120" y="12" width="6" height="6" fill="rgb(0,0,0)"/>
<rect x="126" y="0" width="6" height="6" fill="rgb(0,0,0)"/>
<rect x="126" y="12" width="6" height="6" fill="rgb(0,0,0)"/>
<rect x="126" y="18" width="6" height="6" fill="rgb(128,128,128)"/>
<rect x="132" y="0" width="6" height="6" fill="rgb(0,0,0)"/>
<rect x="132" y="12" width="6" height="6" fill="rgb(0,0,0)"/>
<rect x="132" y="18" width="6" height="6" fill="rgb(0,0,0)"/>
<rect x="138" y="0" width="6" height="6" fill="rgb(0,0,0)"/>
<rect x="138" y="6" width="6" height="6" fill="rgb(128,128,128)"/>
<rect x="144" y="0" width="6" height="6" fill="rgb(0,0,0)"/>
<rect x="144" y="6" width="6" height="6" fill="rgb(128,128,128)"/>
<rect x="144" y="18" width="6" height="6" fill="rgb(128,128,128)"/>
<rect x="150" y="0" width="6" height="6" fill="rgb(0,0,0)"/>
<rect x="150" y="6" width="6" height="6" fill="rgb(128,128,128)"/>
<rect x="150" y="18" width="6" height="6" fill="rgb(0,0,0)"/>
<rect x="156" y="0" width="6" height="6" fill="rgb(0,0,0)"/>
<rect x="156" y="6" width="6" height="6" fill="rgb(128,128,128)"/>
<rect x="156" y="12" width="6" height="6" fill="rgb(128,128,128)"/>
</svg>