<svg xmlns="http://www.w3.org/2000/svg" width="100.0" height="100.0" viewBox="-5.000 -5.000 110.000 110.000">
<g fill="none" stroke="black" stroke-width="0.0050%" transform="translate(0, 100.0000) scale(100.0000, -100.0000)">
<polyline points="0.000,0.000 0.010,0.283 0.020,0.364 0.030,0.402 0.040,0.424 0.050,0.438 0.060,0.449 0.070,0.456 0.080,0.462 0.090,0.467 0.100,0.471 0.110,0.474 0.120,0.476 0.130,0.479 0.140,0.481 0.150,0.482 0.160,0.484 0.170,0.485 0.180,0.486 0.190,0.488 0.200,0.489 0.210,0.489 0.220,0.490 0.230,0.491 0.240,0.492 0.250,0.492 0.260,0.493 0.270,0.493 0.280,0.494 0.290,0.494 0.300,0.495 0.310,0.495 0.320,0.496 0.330,0.496 0.340,0.496 0.350,0.497 0.360,0.497 0.370,0.497 0.380,0.498 0.390,0.498 0.400,0.498 0.410,0.498 0.420,0.499 0.430,0.499 0.440,0.499 0.450,0.499 0.460,0.499 0.470,0.500 0.480,0.500 0.490,0.500 0.500,0.500 0.510,0.500 0.520,0.500 0.530,0.500 0.540,0.501 0.550,0.501 0.560,0.501 0.570,0.501 0.580,0.501 0.590,0.502 0.600,0.502 0.610,0.502 0.620,0.502 0.630,0.503 0.640,0.503 0.650,0.503 0.660,0.504 0.670,0.504 0.680,0.504 0.690,0.505 0.700,0.505 0.710,0.506 0.720,0.506 0.730,0.507 0.740,0.507 0.750,0.508 0.760,0.508 0.770,0.509 0.780,0.510 0.790,0.511 0.800,0.511 0.810,0.512 0.820,0.514 0.830,0.515 0.840,0.516 0.850,0.518 0.860,0.519 0.870,0.521 0.880,0.524 0.890,0.526 0.900,0.529 0.910,0.533 0.920,0.538 0.930,0.544 0.940,0.551 0.950,0.562 0.960,0.576 0.970,0.598 0.980,0.636 0.990,0.717 1.000,1.000" />
<polyline points="0.000,0.000 0.010,0.070 0.020,0.125 0.030,0.169 0.040,0.205 0.050,0.235 0.060,0.261 0.070,0.283 0.080,0.302 0.090,0.319 0.100,0.333 0.110,0.346 0.120,0.358 0.130,0.369 0.140,0.378 0.150,0.387 0.160,0.395 0.170,0.402 0.180,0.409 0.190,0.415 0.200,0.421 0.210,0.426 0.220,0.431 0.230,0.436 0.240,0.440 0.250,0.444 0.260,0.448 0.270,0.452 0.280,0.455 0.290,0.458 0.300,0.462 0.310,0.464 0.320,0.467 0.330,0.470 0.340,0.472 0.350,0.475 0.360,0.477 0.370,0.479 0.380,0.481 0.390,0.483 0.400,0.485 0.410,0.487 0.420,0.488 0.430,0.490 0.440,0.492 0.450,0.493 0.460,0.495 0.470,0.496 0.480,0.497 0.490,0.499 0.500,0.500 0.510,0.501 0.520,0.503 0.530,0.504 0.540,0.505 0.550,0.507 0.560,0.508 0.570,0.510 0.580,0.512 0.590,0.513 0.600,0.515 0.610,0.517 0.620,0.519 0.630,0.521 0.640,0.523 0.650,0.525 0.660,0.528 0.670,0.530 0.680,0.533 0.690,0.536 0.700,0.538 0.710,0.542 0.720,0.545 0.730,0.548 0.740,0.552 0.750,0.556 0.760,0.560 0.770,0.564 0.780,0.569 0.790,0.574 0.800,0.579 0.810,0.585 0.820,0.591 0.830,0.598 0.840,0.605 0.850,0.613 0.860,0.622 0.870,0.631 0.880,0.642 0.890,0.654 0.900,0.667 0.910,0.681 0.920,0.698 0.930,0.717 0.940,0.739 0.950,0.765 0.960,0.795 0.970,0.831 0.980,0.875 0.990,0.930 1.000,1.000" />
<polyline points="0.000,0.000 0.010,0.010 0.020,0.020 0.030,0.030 0.040,0.040 0.050,0.050 0.060,0.060 0.070,0.070 0.080,0.080 0.090,0.090 0.100,0.100 0.110,0.110 0.120,0.120 0.130,0.130 0.140,0.140 0.150,0.150 0.160,0.160 0.170,0.170 0.180,0.180 0.190,0.190 0.200,0.200 0.210,0.210 0.220,0.220 0.230,0.230 0.240,0.240 0.250,0.250 0.260,0.260 0.270,0.270 0.280,0.280 0.290,0.290 0.300,0.300 0.310,0.310 0.320,0.320 0.330,0.330 0.340,0.340 0.350,0.350 0.360,0.360 0.370,0.370 0.380,0.380 0.390,0.390 0.400,0.400 0.410,0.410 0.420,0.420 0.430,0.430 0.440,0.440 0.450,0.450 0.460,0.460 0.470,0.470 0.480,0.480 0.490,0.490 0.500,0.500 0.510,0.510 0.520,0.520 0.530,0.530 0.540,0.540 0.550,0.550 0.560,0.560 0.570,0.570 0.580,0.580 0.590,0.590 0.600,0.600 0.610,0.610 0.620,0.620 0.630,0.630 0.640,0.640 0.650,0.650 0.660,0.660 0.670,0.670 0.680,0.680 0.690,0.690 0.700,0.700 0.710,0.710 0.720,0.720 0.730,0.730 0.740,0.740 0.750,0.750 0.760,0.760 0.770,0.770 0.780,0.780 0.790,0.790 0.800,0.800 0.810,0.810 0.820,0.820 0.830,0.830 0.840,0.840 0.850,0.850 0.860,0.860 0.870,0.870 0.880,0.880 0.890,0.890 0.900,0.900 0.910,0.910 0.920,0.920 0.930,0.930 0.940,0.940 0.950,0.950 0.960,0.960 0.970,0.970 0.980,0.980 0.990,0.990 1.000,1.000" />
<polyline points="0.000,0.000 0.010,0.001 0.020,0.003 0.030,0.004 0.040,0.005 0.050,0.007 0.060,0.008 0.070,0.010 0.080,0.012 0.090,0.013 0.100,0.015 0.110,0.017 0.120,0.019 0.130,0.021 0.140,0.023 0.150,0.025 0.160,0.028 0.170,0.030 0.180,0.033 0.190,0.036 0.200,0.038 0.210,0.042 0.220,0.045 0.230,0.048 0.240,0.052 0.250,0.056 0.260,0.060 0.270,0.064 0.280,0.069 0.290,0.074 0.300,0.079 0.310,0.085 0.320,0.091 0.330,0.098 0.340,0.105 0.350,0.113 0.360,0.122 0.370,0.131 0.380,0.142 0.390,0.154 0.400,0.167 0.410,0.181 0.420,0.198 0.430,0.217 0.440,0.239 0.450,0.265 0.460,0.295 0.470,0.331 0.480,0.375 0.490,0.430 0.500,0.500 0.510,0.570 0.520,0.625 0.530,0.669 0.540,0.705 0.550,0.735 0.560,0.761 0.570,0.783 0.580,0.802 0.590,0.819 0.600,0.833 0.610,0.846 0.620,0.858 0.630,0.869 0.640,0.878 0.650,0.887 0.660,0.895 0.670,0.902 0.680,0.909 0.690,0.915 0.700,0.921 0.710,0.926 0.720,0.931 0.730,0.936 0.740,0.940 0.750,0.944 0.760,0.948 0.770,0.952 0.780,0.955 0.790,0.958 0.800,0.962 0.810,0.964 0.820,0.967 0.830,0.970 0.840,0.972 0.850,0.975 0.860,0.977 0.870,0.979 0.880,0.981 0.890,0.983 0.900,0.985 0.910,0.987 0.920,0.988 0.930,0.990 0.940,0.992 0.950,0.993 0.960,0.995 0.970,0.996 0.980,0.997 0.990,0.999 1.000,1.000" />
<polyline points="0.000,0.000 0.010,0.000 0.020,0.000 0.030,0.000 0.040,0.001 0.050,0.001 0.060,0.001 0.070,0.001 0.080,0.001 0.090,0.002 0.100,0.002 0.110,0.002 0.120,0.002 0.130,0.003 0.140,0.003 0.150,0.003 0.160,0.004 0.170,0.004 0.180,0.004 0.190,0.005 0.200,0.005 0.210,0.006 0.220,0.006 0.230,0.007 0.240,0.007 0.250,0.008 0.260,0.008 0.270,0.009 0.280,0.010 0.290,0.011 0.300,0.011 0.310,0.012 0.320,0.014 0.330,0.015 0.340,0.016 0.350,0.018 0.360,0.019 0.370,0.021 0.380,0.024 0.390,0.026 0.400,0.029 0.410,0.033 0.420,0.038 0.430,0.044 0.440,0.051 0.450,0.062 0.460,0.076 0.470,0.098 0.480,0.136 0.490,0.217 0.500,0.500 0.510,0.783 0.520,0.864 0.530,0.902 0.540,0.924 0.550,0.938 0.560,0.949 0.570,0.956 0.580,0.962 0.590,0.967 0.600,0.971 0.610,0.974 0.620,0.976 0.630,0.979 0.640,0.981 0.650,0.982 0.660,0.984 0.670,0.985 0.680,0.986 0.690,0.988 0.700,0.989 0.710,0.989 0.720,0.990 0.730,0.991 0.740,0.992 0.750,0.992 0.760,0.993 0.770,0.993 0.780,0.994 0.790,0.994 0.800,0.995 0.810,0.995 0.820,0.996 0.830,0.996 0.840,0.996 0.850,0.997 0.860,0.997 0.870,0.997 0.880,0.998 0.890,0.998 0.900,0.998 0.910,0.998 0.920,0.999 0.930,0.999 0.940,0.999 0.950,0.999 0.960,0.999 0.970,1.000 0.980,1.000 0.990,1.000 1.000,1.000" />
</g>
</svg>