<svg xmlns="http://www.w3.org/2000/svg" width="161.8" height="100.0" viewBox="-4.7 -105.0 171.8 110.0">
<g fill="none" stroke="black" stroke-width="0.6603%" transform="translate(0, -100.0000) scale(0.7572, -0.7572)">
<circle cx="0.4" cy="0.0" r="0.7" />
<polyline points="0.4,-68.3 0.8,-68.5 1.3,-69.2 1.7,-70.2 2.1,-71.9 2.5,-74.1 2.9,-77.1 3.3,-81.4 3.8,-87.6 4.2,-98.0 4.6,-132.1 5.0,-104.2 5.4,-90.5 5.9,-83.2 6.3,-78.4 6.7,-75.0 7.1,-72.5 7.5,-70.7 7.9,-69.4 8.4,-68.6 8.8,-68.2 9.2,-68.3 9.6,-68.7 10.0,-69.6 10.5,-71.0 10.9,-73.0 11.3,-75.8 11.7,-79.5 12.1,-84.9 12.5,-93.4 13.0,-112.8 13.4,-115.1 13.8,-94.0 14.2,-85.1 14.6,-79.6 15.1,-75.7 15.5,-72.9 15.9,-70.9 16.3,-69.4 16.7,-68.4 17.1,-67.9 17.6,-67.8 18.0,-68.1 18.4,-68.8 18.8,-70.0 19.2,-71.8 19.7,-74.2 20.1,-77.6 20.5,-82.3 20.9,-89.5 21.3,-103.6 21.7,-120.7 22.2,-98.6 22.6,-87.2 23.0,-80.7 23.4,-76.3 23.8,-73.2 24.3,-70.8 24.7,-69.2 25.1,-68.0 25.5,-67.3 25.9,-67.0 26.3,-67.2 26.8,-67.8 27.2,-68.8 27.6,-70.4 28.0,-72.5 28.4,-75.6 28.9,-79.8 29.3,-86.0 29.7,-97.2 30.1,-114.0 30.5,-106.8 30.9,-89.6 31.4,-81.8 31.8,-76.8 32.2,-73.2 32.6,-70.6 33.0,-68.7 33.5,-67.3 33.9,-66.5 34.3,-66.0 34.7,-66.0 35.1,-66.5 35.5,-67.3 36.0,-68.7 36.4,-70.7 36.8,-73.4 37.2,-77.2 37.6,-82.8 38.1,-92.2 38.5,-116.4 38.9,-112.8 39.3,-92.8 39.7,-82.8 40.1,-77.0 40.6,-72.9 41.0,-70.0 41.4,-67.9 41.8,-66.3 42.2,-65.3 42.7,-64.7 43.1,-64.6 43.5,-64.8 43.9,-65.6 44.3,-66.8 44.7,-68.5 45.2,-71.0 45.6,-74.5 46.0,-79.5 46.4,-87.9 46.8,-128.7 47.3,-100.0 47.7,-98.9 48.1,-84.0 48.5,-77.0 48.9,-72.4 49.3,-69.1 49.8,-66.7 50.2,-65.0 50.6,-63.8 51.0,-63.0 51.4,-62.7 51.9,-62.9 52.3,-63.4 52.7,-64.5 53.1,-66.1 53.5,-68.4 53.9,-71.6 54.4,-76.3 54.8,-84.0 55.2,-111.8 55.6,-93.4 56.0,-106.4 56.5,-85.6 56.9,-76.7 57.3,-71.4 57.7,-67.7 58.1,-65.0 58.5,-63.1 59.0,-61.7 59.4,-60.8 59.8,-60.4 60.2,-60.4 60.6,-60.8 61.1,-61.7 61.5,-63.2 61.9,-65.4 62.3,-68.4 62.7,-72.9 63.1,-80.5 63.6,-125.9 64.0,-87.0 64.4,-89.3 64.8,-89.3 65.2,-76.1 65.7,-69.8 66.1,-65.6 66.5,-62.6 66.9,-60.5 67.3,-58.9 67.7,-57.9 68.2,-57.3 68.6,-57.2 69.0,-57.6 69.4,-58.4 69.8,-59.8 70.3,-61.8 70.7,-64.9 71.1,-69.5 71.5,-77.8 71.9,-91.8 72.3,-79.3 72.8,-79.5 73.2,-98.8 73.6,-75.3 74.0,-67.3 74.4,-62.5 74.9,-59.2 75.3,-56.8 75.7,-55.1 76.1,-53.9 76.5,-53.2 76.9,-53.0 77.4,-53.3 77.8,-54.1 78.2,-55.4 78.6,-57.6 79.0,-60.9 79.5,-66.2 79.9,-78.8 80.3,-75.3 80.7,-69.5 81.1,-69.4 81.5,-75.4 82.0,-75.3 82.4,-63.5 82.8,-57.7 83.2,-54.0 83.6,-51.3 84.1,-49.4 84.5,-48.1 84.9,-47.3 85.3,-47.1 85.7,-47.3 86.1,-48.1 86.6,-49.7 87.0,-52.2 87.4,-56.5 87.8,-65.8 88.2,-68.1 88.7,-59.2 89.1,-56.5 89.5,-56.5 89.9,-59.8 90.3,-86.2 90.7,-57.1 91.2,-49.7 91.6,-45.3 92.0,-42.3 92.4,-40.1 92.8,-38.6 93.3,-37.7 93.7,-37.4 94.1,-37.7 94.5,-38.7 94.9,-41.0 95.3,-45.5 95.8,-61.3 96.2,-47.9 96.6,-41.1 97.0,-37.8 97.4,-36.2 97.9,-36.0 98.3,-37.8 98.7,-44.9 99.1,-43.6 99.5,-32.1 99.9,-26.1 100.4,-21.7 100.8,-18.3 101.2,-15.5 101.6,-13.0 102.0,-10.9 102.5,-9.1 102.9,-7.5 103.3,-6.1 103.7,-4.9 104.1,-3.8 104.5,-2.9 105.0,-2.1 105.4,-1.4 105.8,-0.9 106.2,-0.5 106.6,-0.2 107.1,-0.1 107.5,0.0 107.9,-0.1 108.3,-0.2 108.7,-0.5 109.1,-0.9 109.6,-1.4 110.0,-2.1 110.4,-2.9 110.8,-3.8 111.2,-4.9 111.7,-6.1 112.1,-7.5 112.5,-9.1 112.9,-10.9 113.3,-13.0 113.7,-15.5 114.2,-18.3 114.6,-21.7 115.0,-26.1 115.4,-32.1 115.8,-43.6 116.3,-44.9 116.7,-37.8 117.1,-36.0 117.5,-36.2 117.9,-37.8 118.3,-41.1 118.8,-47.9 119.2,-61.3 119.6,-45.5 120.0,-41.0 120.4,-38.7 120.9,-37.7 121.3,-37.4 121.7,-37.7 122.1,-38.6 122.5,-40.1 122.9,-42.3 123.4,-45.3 123.8,-49.7 124.2,-57.1 124.6,-86.2 125.0,-59.8 125.5,-56.5 125.9,-56.5 126.3,-59.2 126.7,-68.1 127.1,-65.8 127.5,-56.5 128.0,-52.2 128.4,-49.7 128.8,-48.1 129.2,-47.3 129.6,-47.1 130.1,-47.3 130.5,-48.1 130.9,-49.4 131.3,-51.3 131.7,-54.0 132.1,-57.7 132.6,-63.5 133.0,-75.3 133.4,-75.4 133.8,-69.4 134.2,-69.5 134.7,-75.3 135.1,-78.8 135.5,-66.2 135.9,-60.9 136.3,-57.6 136.7,-55.4 137.2,-54.1 137.6,-53.3 138.0,-53.0 138.4,-53.2 138.8,-53.9 139.3,-55.1 139.7,-56.8 140.1,-59.2 140.5,-62.5 140.9,-67.3 141.3,-75.3 141.8,-98.8 142.2,-79.5 142.6,-79.3 143.0,-91.8 143.4,-77.8 143.9,-69.5 144.3,-64.9 144.7,-61.8 145.1,-59.8 145.5,-58.4 145.9,-57.6 146.4,-57.2 146.8,-57.3 147.2,-57.9 147.6,-58.9 148.0,-60.5 148.5,-62.6 148.9,-65.6 149.3,-69.8 149.7,-76.1 150.1,-89.3 150.5,-89.3 151.0,-87.0 151.4,-125.9 151.8,-80.5 152.2,-72.9 152.6,-68.4 153.1,-65.4 153.5,-63.2 153.9,-61.7 154.3,-60.8 154.7,-60.4 155.1,-60.4 155.6,-60.8 156.0,-61.7 156.4,-63.1 156.8,-65.0 157.2,-67.7 157.7,-71.4 158.1,-76.7 158.5,-85.6 158.9,-106.4 159.3,-93.4 159.7,-111.8 160.2,-84.0 160.6,-76.3 161.0,-71.6 161.4,-68.4 161.8,-66.1 162.3,-64.5 162.7,-63.4 163.1,-62.9 163.5,-62.7 163.9,-63.0 164.3,-63.8 164.8,-65.0 165.2,-66.7 165.6,-69.1 166.0,-72.4 166.4,-77.0 166.9,-84.0 167.3,-98.9 167.7,-100.0 168.1,-128.7 168.5,-87.9 168.9,-79.5 169.4,-74.5 169.8,-71.0 170.2,-68.5 170.6,-66.8 171.0,-65.6 171.5,-64.8 171.9,-64.6 172.3,-64.7 172.7,-65.3 173.1,-66.3 173.5,-67.9 174.0,-70.0 174.4,-72.9 174.8,-77.0 175.2,-82.8 175.6,-92.8 176.1,-112.8 176.5,-116.4 176.9,-92.2 177.3,-82.8 177.7,-77.2 178.1,-73.4 178.6,-70.7 179.0,-68.7 179.4,-67.3 179.8,-66.5 180.2,-66.0 180.7,-66.0 181.1,-66.5 181.5,-67.3 181.9,-68.7 182.3,-70.6 182.7,-73.2 183.2,-76.8 183.6,-81.8 184.0,-89.6 184.4,-106.8 184.8,-114.0 185.3,-97.2 185.7,-86.0 186.1,-79.8 186.5,-75.6 186.9,-72.5 187.3,-70.4 187.8,-68.8 188.2,-67.8 188.6,-67.2 189.0,-67.0 189.4,-67.3 189.9,-68.0 190.3,-69.2 190.7,-70.8 191.1,-73.2 191.5,-76.3 191.9,-80.7 192.4,-87.2 192.8,-98.6 193.2,-120.7 193.6,-103.6 194.0,-89.5 194.5,-82.3 194.9,-77.6 195.3,-74.2 195.7,-71.8 196.1,-70.0 196.5,-68.8 197.0,-68.1 197.4,-67.8 197.8,-67.9 198.2,-68.4 198.6,-69.4 199.1,-70.9 199.5,-72.9 199.9,-75.7 200.3,-79.6 200.7,-85.1 201.1,-94.0 201.6,-115.1 202.0,-112.8 202.4,-93.4 202.8,-84.9 203.2,-79.5 203.7,-75.8 204.1,-73.0 204.5,-71.0 204.9,-69.6 205.3,-68.7 205.7,-68.3 206.2,-68.2 206.6,-68.6 207.0,-69.4 207.4,-70.7 207.8,-72.5 208.3,-75.0 208.7,-78.4 209.1,-83.2 209.5,-90.5 209.9,-104.2 210.3,-132.1 210.8,-98.0 211.2,-87.6 211.6,-81.4 212.0,-77.1 212.4,-74.1 212.9,-71.9 213.3,-70.2 213.7,-69.2 214.1,-68.5" />
</g>
</svg>