<svg xmlns="http://www.w3.org/2000/svg" width="156" height="15" viewBox="0 0 156 15">
<g stroke="none" transform="translate(0, 0) scale(1, 1)">
<rect x="0" y="0" width="3" height="3" fill="rgb(0,0,0)"/>
<rect x="0" y="3" width="3" height="3" fill="rgb(0,0,0)"/>
<rect x="0" y="6" width="3" height="3" fill="rgb(0,0,0)"/>
<rect x="0" y="9" width="3" height="3" fill="rgb(0,0,0)"/>
<rect x="0" y="12" width="3" height="3" fill="rgb(0,0,0)"/>
<rect x="3" y="0" width="3" height="3" fill="rgb(64,64,64)"/>
<rect x="3" y="3" width="3" height="3" fill="rgb(0,0,0)"/>
<rect x="3" y="6" width="3" height="3" fill="rgb(0,0,0)"/>
<rect x="3" y="9" width="3" height="3" fill="rgb(0,0,0)"/>
<rect x="3" y="12" width="3" height="3" fill="rgb(0,0,0)"/>
<rect x="6" y="0" width="3" height="3" fill="rgb(64,64,64)"/>
<rect x="6" y="3" width="3" height="3" fill="rgb(64,64,64)"/>
<rect x="6" y="6" width="3" height="3" fill="rgb(0,0,0)"/>
<rect x="6" y="9" width="3" height="3" fill="rgb(0,0,0)"/>
<rect x="6" y="12" width="3" height="3" fill="rgb(0,0,0)"/>
<rect x="9" y="0" width="3" height="3" fill="rgb(128,128,128)"/>
<rect x="9" y="3" width="3" height="3" fill="rgb(64,64,64)"/>
<rect x="9" y="6" width="3" height="3" fill="rgb(0,0,0)"/>
<rect x="9" y="9" width="3" height="3" fill="rgb(0,0,0)"/>
<rect x="9" y="12" width="3" height="3" fill="rgb(0,0,0)"/>
<rect x="12" y="0" width="3" height="3" fill="rgb(0,0,0)"/>
<rect x="12" y="3" width="3" height="3" fill="rgb(64,64,64)"/>
<rect x="12" y="6" width="3" height="3" fill="rgb(0,0,0)"/>
<rect x="12" y="9" width="3" height="3" fill="rgb(0,0,0)"/>
<rect x="12" y="12" width="3" height="3" fill="rgb(0,0,0)"/>
<rect x="15" y="0" width="3" height="3" fill="rgb(0,0,0)"/>
<rect x="15" y="3" width="3" height="3" fill="rgb(64,64,64)"/>
<rect x="15" y="6" width="3" height="3" fill="rgb(64,64,64)"/>
<rect x="15" y="9" width="3" height="3" fill="rgb(0,0,0)"/>
<rect x="15" y="12" width="3" height="3" fill="rgb(0,0,0)"/>
<rect x="18" y="0" width="3" height="3" fill="rgb(128,128,128)"/>
<rect x="18" y="3" width="3" height="3" fill="rgb(64,64,64)"/>
<rect x="18" y="6" width="3" height="3" fill="rgb(64,64,64)"/>
<rect x="18" y="9" width="3" height="3" fill="rgb(0,0,0)"/>
<rect x="18" y="12" width="3" height="3" fill="rgb(0,0,0)"/>
<rect x="21" y="0" width="3" height="3" fill="rgb(64,64,64)"/>
<rect x="21" y="3" width="3" height="3" fill="rgb(64,64,64)"/>
<rect x="21" y="6" width="3" height="3" fill="rgb(64,64,64)"/>
<rect x="21" y="9" width="3" height="3" fill="rgb(0,0,0)"/>
<rect x="21" y="12" width="3" height="3" fill="rgb(0,0,0)"/>
<rect x="24" y="0" width="3" height="3" fill="rgb(64,64,64)"/>
<rect x="24" y="3" width="3" height="3" fill="rgb(128,128,128)"/>
<rect x="24" y="6" width="3" height="3" fill="rgb(64,64,64)"/>
<rect x="24" y="9" width="3" height="3" fill="rgb(0,0,0)"/>
<rect x="24" y="12" width="3" height="3" fill="rgb(0,0,0)"/>
<rect x="27" y="0" width="3" height="3" fill="rgb(191,191,191)"/>
<rect x="27" y="3" width="3" height="3" fill="rgb(128,128,128)"/>
<rect x="27" y="6" width="3" height="3" fill="rgb(64,64,64)"/>
<rect x="27" y="9" width="3" height="3" fill="rgb(0,0,0)"/>
<rect x="27" y="12" width="3" height="3" fill="rgb(0,0,0)"/>
<rect x="30" y="0" width="3" height="3" fill="rgb(128,128,128)"/>
<rect x="30" y="3" width="3" height="3" fill="rgb(128,128,128)"/>
<rect x="30" y="6" width="3" height="3" fill="rgb(64,64,64)"/>
<rect x="30" y="9" width="3" height="3" fill="rgb(0,0,0)"/>
<rect x="30" y="12" width="3" height="3" fill="rgb(0,0,0)"/>
<rect x="33" y="0" width="3" height="3" fill="rgb(0,0,0)"/>
<rect x="33" y="3" width="3" height="3" fill="rgb(128,128,128)"/>
<rect x="33" y="6" width="3" height="3" fill="rgb(64,64,64)"/>
<rect x="33" y="9" width="3" height="3" fill="rgb(0,0,0)"/>
<rect x="33" y="12" width="3" height="3" fill="rgb(0,0,0)"/>
<rect x="36" y="0" width="3" height="3" fill="rgb(0,0,0)"/>
<rect x="36" y="3" width="3" height="3" fill="rgb(0,0,0)"/>
<rect x="36" y="6" width="3" height="3" fill="rgb(64,64,64)"/>
<rect x="36" y="9" width="3" height="3" fill="rgb(0,0,0)"/>
<rect x="36" y="12" width="3" height="3" fill="rgb(0,0,0)"/>
<rect x="39" y="0" width="3" height="3" fill="rgb(128,128,128)"/>
<rect x="39" y="3" width="3" height="3" fill="rgb(0,0,0)"/>
<rect x="39" y="6" width="3" height="3" fill="rgb(64,64,64)"/>
<rect x="39" y="9" width="3" height="3" fill="rgb(0,0,0)"/>
<rect x="39" y="12" width="3" height="3" fill="rgb(0,0,0)"/>
<rect x="42" y="0" width="3" height="3" fill="rgb(64,64,64)"/>
<rect x="42" y="3" width="3" height="3" fill="rgb(0,0,0)"/>
<rect x="42" y="6" width="3" height="3" fill="rgb(64,64,64)"/>
<rect x="42" y="9" width="3" height="3" fill="rgb(0,0,0)"/>
<rect x="42" y="12" width="3" height="3" fill="rgb(0,0,0)"/>
<rect x="45" y="0" width="3" height="3" fill="rgb(64,64,64)"/>
<rect x="45" y="3" width="3" height="3" fill="rgb(0,0,0)"/>
<rect x="45" y="6" width="3" height="3" fill="rgb(64,64,64)"/>
<rect x="45" y="9" width="3" height="3" fill="rgb(64,64,64)"/>
<rect x="45" y="12" width="3" height="3" fill="rgb(0,0,0)"/>
<rect x="48" y="0" width="3" height="3" fill="rgb(128,128,128)"/>
<rect x="48" y="3" width="3" height="3" fill="rgb(0,0,0)"/>
<rect x="48" y="6" width="3" height="3" fill="rgb(64,64,64)"/>
<rect x="48" y="9" width="3" height="3" fill="rgb(64,64,64)"/>
<rect x="48" y="12" width="3" height="3" fill="rgb(0,0,0)"/>
<rect x="51" y="0" width="3" height="3" fill="rgb(0,0,0)"/>
<rect x="51" y="3" width="3" height="3" fill="rgb(0,0,0)"/>
<rect x="51" y="6" width="3" height="3" fill="rgb(64,64,64)"/>
<rect x="51" y="9" width="3" height="3" fill="rgb(64,64,64)"/>
<rect x="51" y="12" width="3" height="3" fill="rgb(0,0,0)"/>
<rect x="54" y="0" width="3" height="3" fill="rgb(0,0,0)"/>
<rect x="54" y="3" width="3" height="3" fill="rgb(128,128,128)"/>
<rect x="54" y="6" width="3" height="3" fill="rgb(64,64,64)"/>
<rect x="54" y="9" width="3" height="3" fill="rgb(64,64,64)"/>
<rect x="54" y="12" width="3" height="3" fill="rgb(0,0,0)"/>
<rect x="57" y="0" width="3" height="3" fill="rgb(191,191,191)"/>
<rect x="57" y="3" width="3" height="3" fill="rgb(128,128,128)"/>
<rect x="57" y="6" width="3" height="3" fill="rgb(64,64,64)"/>
<rect x="57" y="9" width="3" height="3" fill="rgb(64,64,64)"/>
<rect x="57" y="12" width="3" height="3" fill="rgb(0,0,0)"/>
<rect x="60" y="0" width="3" height="3" fill="rgb(128,128,128)"/>
<rect x="60" y="3" width="3" height="3" fill="rgb(128,128,128)"/>
<rect x="60" y="6" width="3" height="3" fill="rgb(64,64,64)"/>
<rect x="60" y="9" width="3" height="3" fill="rgb(64,64,64)"/>
<rect x="60" y="12" width="3" height="3" fill="rgb(0,0,0)"/>
<rect x="63" y="0" width="3" height="3" fill="rgb(64,64,64)"/>
<rect x="63" y="3" width="3" height="3" fill="rgb(128,128,128)"/>
<rect x="63" y="6" width="3" height="3" fill="rgb(64,64,64)"/>
<rect x="63" y="9" width="3" height="3" fill="rgb(64,64,64)"/>
<rect x="63" y="12" width="3" height="3" fill="rgb(0,0,0)"/>
<rect x="66" y="0" width="3" height="3" fill="rgb(64,64,64)"/>
<rect x="66" y="3" width="3" height="3" fill="rgb(64,64,64)"/>
<rect x="66" y="6" width="3" height="3" fill="rgb(64,64,64)"/>
<rect x="66" y="9" width="3" height="3" fill="rgb(64,64,64)"/>
<rect x="66" y="12" width="3" height="3" fill="rgb(0,0,0)"/>
<rect x="69" y="0" width="3" height="3" fill="rgb(128,128,128)"/>
<rect x="69" y="3" width="3" height="3" fill="rgb(64,64,64)"/>
<rect x="69" y="6" width="3" height="3" fill="rgb(64,64,64)"/>
<rect x="69" y="9" width="3" height="3" fill="rgb(64,64,64)"/>
<rect x="69" y="12" width="3" height="3" fill="rgb(0,0,0)"/>
<rect x="72" y="0" width="3" height="3" fill="rgb(0,0,0)"/>
<rect x="72" y="3" width="3" height="3" fill="rgb(64,64,64)"/>
<rect x="72" y="6" width="3" height="3" fill="rgb(64,64,64)"/>
<rect x="72" y="9" width="3" height="3" fill="rgb(64,64,64)"/>
<rect x="72" y="12" width="3" height="3" fill="rgb(0,0,0)"/>
<rect x="75" y="0" width="3" height="3" fill="rgb(0,0,0)"/>
<rect x="75" y="3" width="3" height="3" fill="rgb(64,64,64)"/>
<rect x="75" y="6" width="3" height="3" fill="rgb(128,128,128)"/>
<rect x="75" y="9" width="3" height="3" fill="rgb(64,64,64)"/>
<rect x="75" y="12" width="3" height="3" fill="rgb(0,0,0)"/>
<rect x="78" y="0" width="3" height="3" fill="rgb(191,191,191)"/>
<rect x="78" y="3" width="3" height="3" fill="rgb(64,64,64)"/>
<rect x="78" y="6" width="3" height="3" fill="rgb(128,128,128)"/>
<rect x="78" y="9" width="3" height="3" fill="rgb(64,64,64)"/>
<rect x="78" y="12" width="3" height="3" fill="rgb(0,0,0)"/>
<rect x="81" y="0" width="3" height="3" fill="rgb(128,128,128)"/>
<rect x="81" y="3" width="3" height="3" fill="rgb(64,64,64)"/>
<rect x="81" y="6" width="3" height="3" fill="rgb(128,128,128)"/>
<rect x="81" y="9" width="3" height="3" fill="rgb(64,64,64)"/>
<rect x="81" y="12" width="3" height="3" fill="rgb(0,0,0)"/>
<rect x="84" y="0" width="3" height="3" fill="rgb(64,64,64)"/>
<rect x="84" y="3" width="3" height="3" fill="rgb(64,64,64)"/>
<rect x="84" y="6" width="3" height="3" fill="rgb(128,128,128)"/>
<rect x="84" y="9" width="3" height="3" fill="rgb(64,64,64)"/>
<rect x="84" y="12" width="3" height="3" fill="rgb(0,0,0)"/>
<rect x="87" y="0" width="3" height="3" fill="rgb(64,64,64)"/>
<rect x="87" y="3" width="3" height="3" fill="rgb(191,191,191)"/>
<rect x="87" y="6" width="3" height="3" fill="rgb(128,128,128)"/>
<rect x="87" y="9" width="3" height="3" fill="rgb(64,64,64)"/>
<rect x="87" y="12" width="3" height="3" fill="rgb(0,0,0)"/>
<rect x="90" y="3" width="3" height="3" fill="rgb(191,191,191)"/>
<rect x="90" y="6" width="3" height="3" fill="rgb(128,128,128)"/>
<rect x="90" y="9" width="3" height="3" fill="rgb(64,64,64)"/>
<rect x="90" y="12" width="3" height="3" fill="rgb(0,0,0)"/>
<rect x="93" y="0" width="3" height="3" fill="rgb(191,191,191)"/>
<rect x="93" y="3" width="3" height="3" fill="rgb(191,191,191)"/>
<rect x="93" y="6" width="3" height="3" fill="rgb(128,128,128)"/>
<rect x="93" y="9" width="3" height="3" fill="rgb(64,64,64)"/>
<rect x="93" y="12" width="3" height="3" fill="rgb(0,0,0)"/>
<rect x="96" y="0" width="3" height="3" fill="rgb(128,128,128)"/>
<rect x="96" y="3" width="3" height="3" fill="rgb(191,191,191)"/>
<rect x="96" y="6" width="3" height="3" fill="rgb(128,128,128)"/>
<rect x="96" y="9" width="3" height="3" fill="rgb(64,64,64)"/>
<rect x="96" y="12" width="3" height="3" fill="rgb(0,0,0)"/>
<rect x="99" y="0" width="3" height="3" fill="rgb(0,0,0)"/>
<rect x="99" y="3" width="3" height="3" fill="rgb(191,191,191)"/>
<rect x="99" y="6" width="3" height="3" fill="rgb(128,128,128)"/>
<rect x="99" y="9" width="3" height="3" fill="rgb(64,64,64)"/>
<rect x="99" y="12" width="3" height="3" fill="rgb(0,0,0)"/>
<rect x="102" y="0" width="3" height="3" fill="rgb(0,0,0)"/>
<rect x="102" y="3" width="3" height="3" fill="rgb(128,128,128)"/>
<rect x="102" y="6" width="3" height="3" fill="rgb(128,128,128)"/>
<rect x="102" y="9" width="3" height="3" fill="rgb(64,64,64)"/>
<rect x="102" y="12" width="3" height="3" fill="rgb(0,0,0)"/>
<rect x="105" y="0" width="3" height="3" fill="rgb(191,191,191)"/>
<rect x="105" y="3" width="3" height="3" fill="rgb(128,128,128)"/>
<rect x="105" y="6" width="3" height="3" fill="rgb(128,128,128)"/>
<rect x="105" y="9" width="3" height="3" fill="rgb(64,64,64)"/>
<rect x="105" y="12" width="3" height="3" fill="rgb(0,0,0)"/>
<rect x="108" y="0" width="3" height="3" fill="rgb(128,128,128)"/>
<rect x="108" y="3" width="3" height="3" fill="rgb(128,128,128)"/>
<rect x="108" y="6" width="3" height="3" fill="rgb(128,128,128)"/>
<rect x="108" y="9" width="3" height="3" fill="rgb(64,64,64)"/>
<rect x="108" y="12" width="3" height="3" fill="rgb(0,0,0)"/>
<rect x="111" y="0" width="3" height="3" fill="rgb(64,64,64)"/>
<rect x="111" y="3" width="3" height="3" fill="rgb(128,128,128)"/>
<rect x="111" y="6" width="3" height="3" fill="rgb(128,128,128)"/>
<rect x="111" y="9" width="3" height="3" fill="rgb(64,64,64)"/>
<rect x="111" y="12" width="3" height="3" fill="rgb(0,0,0)"/>
<rect x="114" y="0" width="3" height="3" fill="rgb(64,64,64)"/>
<rect x="114" y="3" width="3" height="3" fill="rgb(0,0,0)"/>
<rect x="114" y="6" width="3" height="3" fill="rgb(128,128,128)"/>
<rect x="114" y="9" width="3" height="3" fill="rgb(64,64,64)"/>
<rect x="114" y="12" width="3" height="3" fill="rgb(0,0,0)"/>
<rect x="117" y="0" width="3" height="3" fill="rgb(191,191,191)"/>
<rect x="117" y="3" width="3" height="3" fill="rgb(0,0,0)"/>
<rect x="117" y="6" width="3" height="3" fill="rgb(128,128,128)"/>
<rect x="117" y="9" width="3" height="3" fill="rgb(64,64,64)"/>
<rect x="117" y="12" width="3" height="3" fill="rgb(0,0,0)"/>
<rect x="120" y="0" width="3" height="3" fill="rgb(128,128,128)"/>
<rect x="120" y="3" width="3" height="3" fill="rgb(0,0,0)"/>
<rect x="120" y="6" width="3" height="3" fill="rgb(128,128,128)"/>
<rect x="120" y="9" width="3" height="3" fill="rgb(64,64,64)"/>
<rect x="120" y="12" width="3" height="3" fill="rgb(0,0,0)"/>
<rect x="123" y="0" width="3" height="3" fill="rgb(0,0,0)"/>
<rect x="123" y="3" width="3" height="3" fill="rgb(0,0,0)"/>
<rect x="123" y="6" width="3" height="3" fill="rgb(128,128,128)"/>
<rect x="123" y="9" width="3" height="3" fill="rgb(64,64,64)"/>
<rect x="123" y="12" width="3" height="3" fill="rgb(0,0,0)"/>
<rect x="126" y="0" width="3" height="3" fill="rgb(0,0,0)"/>
<rect x="126" y="3" width="3" height="3" fill="rgb(0,0,0)"/>
<rect x="126" y="6" width="3" height="3" fill="rgb(0,0,0)"/>
<rect x="126" y="9" width="3" height="3" fill="rgb(64,64,64)"/>
<rect x="126" y="12" width="3" height="3" fill="rgb(0,0,0)"/>
<rect x="129" y="0" width="3" height="3" fill="rgb(128,128,128)"/>
<rect x="129" y="3" width="3" height="3" fill="rgb(0,0,0)"/>
<rect x="129" y="6" width="3" height="3" fill="rgb(0,0,0)"/>
<rect x="129" y="9" width="3" height="3" fill="rgb(64,64,64)"/>
<rect x="129" y="12" width="3" height="3" fill="rgb(0,0,0)"/>
<rect x="132" y="0" width="3" height="3" fill="rgb(64,64,64)"/>
<rect x="132" y="3" width="3" height="3" fill="rgb(0,0,0)"/>
<rect x="132" y="6" width="3" height="3" fill="rgb(0,0,0)"/>
<rect x="132" y="9" width="3" height="3" fill="rgb(64,64,64)"/>
<rect x="132" y="12" width="3" height="3" fill="rgb(0,0,0)"/>
<rect x="135" y="0" width="3" height="3" fill="rgb(64,64,64)"/>
<rect x="135" y="3" width="3" height="3" fill="rgb(128,128,128)"/>
<rect x="135" y="6" width="3" height="3" fill="rgb(0,0,0)"/>
<rect x="135" y="9" width="3" height="3" fill="rgb(64,64,64)"/>
<rect x="135" y="12" width="3" height="3" fill="rgb(0,0,0)"/>
<rect x="138" y="0" width="3" height="3" fill="rgb(191,191,191)"/>
<rect x="138" y="3" width="3" height="3" fill="rgb(128,128,128)"/>
<rect x="138" y="6" width="3" height="3" fill="rgb(0,0,0)"/>
<rect x="138" y="9" width="3" height="3" fill="rgb(64,64,64)"/>
<rect x="138" y="12" width="3" height="3" fill="rgb(0,0,0)"/>
<rect x="141" y="0" width="3" height="3" fill="rgb(128,128,128)"/>
<rect x="141" y="3" width="3" height="3" fill="rgb(128,128,128)"/>
<rect x="141" y="6" width="3" height="3" fill="rgb(0,0,0)"/>
<rect x="141" y="9" width="3" height="3" fill="rgb(64,64,64)"/>
<rect x="141" y="12" width="3" height="3" fill="rgb(0,0,0)"/>
<rect x="144" y="0" width="3" height="3" fill="rgb(0,0,0)"/>
<rect x="144" y="3" width="3" height="3" fill="rgb(128,128,128)"/>
<rect x="144" y="6" width="3" height="3" fill="rgb(0,0,0)"/>
<rect x="144" y="9" width="3" height="3" fill="rgb(64,64,64)"/>
<rect x="144" y="12" width="3" height="3" fill="rgb(0,0,0)"/>
<rect x="147" y="0" width="3" height="3" fill="rgb(0,0,0)"/>
<rect x="147" y="3" width="3" height="3" fill="rgb(64,64,64)"/>
<rect x="147" y="6" width="3" height="3" fill="rgb(0,0,0)"/>
<rect x="147" y="9" width="3" height="3" fill="rgb(64,64,64)"/>
<rect x="147" y="12" width="3" height="3" fill="rgb(0,0,0)"/>
<rect x="150" y="0" width="3" height="3" fill="rgb(128,128,128)"/>
<rect x="150" y="3" width="3" height="3" fill="rgb(64,64,64)"/>
<rect x="150" y="6" width="3" height="3" fill="rgb(0,0,0)"/>
<rect x="150" y="9" width="3" height="3" fill="rgb(64,64,64)"/>
<rect x="150" y="12" width="3" height="3" fill="rgb(0,0,0)"/>
<rect x="153" y="0" width="3" height="3" fill="rgb(64,64,64)"/>
<rect x="153" y="3" width="3" height="3" fill="rgb(64,64,64)"/>
<rect x="153" y="6" width="3" height="3" fill="rgb(0,0,0)"/>
<rect x="153" y="9" width="3" height="3" fill="rgb(64,64,64)"/>
<rect x="153" y="12" width="3" height="3" fill="rgb(0,0,0)"/>
</g>
</svg>