<svg xmlns="http://www.w3.org/2000/svg" width="161.8" height="100.0" viewBox="-3.3 -5.0 171.8 110.0">
<g fill="none" stroke="black" stroke-width="1.3149%" transform="translate(0, 100.0000) scale(0.3803, -0.3803)">
<circle cx="4.3" cy="0.0" r="1.3" />

<line x1="8.7" y1="0.0" x2="8.7" y2="0.7" />
<line x1="13.0" y1="0.0" x2="13.0" y2="1.6" />
<line x1="17.4" y1="0.0" x2="17.4" y2="2.7" />
<line x1="21.7" y1="0.0" x2="21.7" y2="4.0" />
<line x1="26.1" y1="0.0" x2="26.1" y2="5.3" />
<line x1="30.4" y1="0.0" x2="30.4" y2="6.8" />
<line x1="34.7" y1="0.0" x2="34.7" y2="8.3" />
<line x1="39.1" y1="0.0" x2="39.1" y2="10.0" />
<line x1="43.4" y1="0.0" x2="43.4" y2="11.7" />
<line x1="47.8" y1="0.0" x2="47.8" y2="13.4" />
<line x1="52.1" y1="0.0" x2="52.1" y2="15.3" />
<line x1="56.4" y1="0.0" x2="56.4" y2="17.1" />
<line x1="60.8" y1="0.0" x2="60.8" y2="19.1" />
<line x1="65.1" y1="0.0" x2="65.1" y2="21.0" />
<line x1="69.5" y1="0.0" x2="69.5" y2="23.1" />
<line x1="73.8" y1="0.0" x2="73.8" y2="25.1" />
<line x1="78.2" y1="0.0" x2="78.2" y2="27.2" />
<line x1="82.5" y1="0.0" x2="82.5" y2="29.4" />
<line x1="86.8" y1="0.0" x2="86.8" y2="31.6" />
<line x1="91.2" y1="0.0" x2="91.2" y2="33.8" />
<line x1="95.5" y1="0.0" x2="95.5" y2="36.0" />
<line x1="99.9" y1="0.0" x2="99.9" y2="38.3" />
<line x1="104.2" y1="0.0" x2="104.2" y2="40.6" />
<line x1="108.5" y1="0.0" x2="108.5" y2="43.0" />
<line x1="112.9" y1="0.0" x2="112.9" y2="45.4" />
<line x1="117.2" y1="0.0" x2="117.2" y2="47.7" />
<line x1="121.6" y1="0.0" x2="121.6" y2="50.2" />
<line x1="125.9" y1="0.0" x2="125.9" y2="52.6" />
<line x1="130.3" y1="0.0" x2="130.3" y2="55.1" />
<line x1="134.6" y1="0.0" x2="134.6" y2="57.6" />
<line x1="138.9" y1="0.0" x2="138.9" y2="60.1" />
<line x1="143.3" y1="0.0" x2="143.3" y2="62.7" />
<line x1="147.6" y1="0.0" x2="147.6" y2="65.2" />
<line x1="152.0" y1="0.0" x2="152.0" y2="67.8" />
<line x1="156.3" y1="0.0" x2="156.3" y2="70.4" />
<line x1="160.6" y1="0.0" x2="160.6" y2="73.0" />
<line x1="165.0" y1="0.0" x2="165.0" y2="75.7" />
<line x1="169.3" y1="0.0" x2="169.3" y2="78.4" />
<line x1="173.7" y1="0.0" x2="173.7" y2="81.0" />
<line x1="178.0" y1="0.0" x2="178.0" y2="83.7" />
<line x1="182.4" y1="0.0" x2="182.4" y2="86.5" />
<line x1="186.7" y1="0.0" x2="186.7" y2="89.2" />
<line x1="191.0" y1="0.0" x2="191.0" y2="92.0" />
<line x1="195.4" y1="0.0" x2="195.4" y2="94.7" />
<line x1="199.7" y1="0.0" x2="199.7" y2="97.5" />
<line x1="204.1" y1="0.0" x2="204.1" y2="100.3" />
<line x1="208.4" y1="0.0" x2="208.4" y2="103.2" />
<line x1="212.8" y1="0.0" x2="212.8" y2="106.0" />
<line x1="217.1" y1="0.0" x2="217.1" y2="108.8" />
<line x1="221.4" y1="0.0" x2="221.4" y2="111.7" />
<line x1="225.8" y1="0.0" x2="225.8" y2="114.6" />
<line x1="230.1" y1="0.0" x2="230.1" y2="117.5" />
<line x1="234.5" y1="0.0" x2="234.5" y2="120.4" />
<line x1="238.8" y1="0.0" x2="238.8" y2="123.3" />
<line x1="243.1" y1="0.0" x2="243.1" y2="126.3" />
<line x1="247.5" y1="0.0" x2="247.5" y2="129.2" />
<line x1="251.8" y1="0.0" x2="251.8" y2="132.2" />
<line x1="256.2" y1="0.0" x2="256.2" y2="135.1" />
<line x1="260.5" y1="0.0" x2="260.5" y2="138.1" />
<line x1="264.9" y1="0.0" x2="264.9" y2="141.1" />
<line x1="269.2" y1="0.0" x2="269.2" y2="144.1" />
<line x1="273.5" y1="0.0" x2="273.5" y2="147.2" />
<line x1="277.9" y1="0.0" x2="277.9" y2="150.2" />
<line x1="282.2" y1="0.0" x2="282.2" y2="153.3" />
<line x1="286.6" y1="0.0" x2="286.6" y2="156.3" />
<line x1="290.9" y1="0.0" x2="290.9" y2="159.4" />
<line x1="295.2" y1="0.0" x2="295.2" y2="162.5" />
<line x1="299.6" y1="0.0" x2="299.6" y2="165.6" />
<line x1="303.9" y1="0.0" x2="303.9" y2="168.7" />
<line x1="308.3" y1="0.0" x2="308.3" y2="171.8" />
<line x1="312.6" y1="0.0" x2="312.6" y2="174.9" />
<line x1="317.0" y1="0.0" x2="317.0" y2="178.1" />
<line x1="321.3" y1="0.0" x2="321.3" y2="181.2" />
<line x1="325.6" y1="0.0" x2="325.6" y2="184.4" />
<line x1="330.0" y1="0.0" x2="330.0" y2="187.5" />
<line x1="334.3" y1="0.0" x2="334.3" y2="190.7" />
<line x1="338.7" y1="0.0" x2="338.7" y2="193.9" />
<line x1="343.0" y1="0.0" x2="343.0" y2="197.1" />
<line x1="347.4" y1="0.0" x2="347.4" y2="200.3" />
<line x1="351.7" y1="0.0" x2="351.7" y2="203.5" />
<line x1="356.0" y1="0.0" x2="356.0" y2="206.8" />
<line x1="360.4" y1="0.0" x2="360.4" y2="210.0" />
<line x1="364.7" y1="0.0" x2="364.7" y2="213.2" />
<line x1="369.1" y1="0.0" x2="369.1" y2="216.5" />
<line x1="373.4" y1="0.0" x2="373.4" y2="219.8" />
<line x1="377.7" y1="0.0" x2="377.7" y2="223.0" />
<line x1="382.1" y1="0.0" x2="382.1" y2="226.3" />
<line x1="386.4" y1="0.0" x2="386.4" y2="229.6" />
<line x1="390.8" y1="0.0" x2="390.8" y2="232.9" />
<line x1="395.1" y1="0.0" x2="395.1" y2="236.2" />
<line x1="399.5" y1="0.0" x2="399.5" y2="239.5" />
<line x1="403.8" y1="0.0" x2="403.8" y2="242.9" />
<line x1="408.1" y1="0.0" x2="408.1" y2="246.2" />
<line x1="412.5" y1="0.0" x2="412.5" y2="249.5" />
<line x1="416.8" y1="0.0" x2="416.8" y2="252.9" />
<line x1="421.2" y1="0.0" x2="421.2" y2="256.2" />
<line x1="425.5" y1="0.0" x2="425.5" y2="259.6" />
<line x1="429.8" y1="0.0" x2="429.8" y2="263.0" />
</g>
</svg>