<svg xmlns="http://www.w3.org/2000/svg" width="161.8" height="100.0" viewBox="-123 -9 172 110">
<g fill="none" stroke="black" stroke-width="1.6151%" transform="translate(0, 92.5668) scale(0.3096, -0.3096)">
<circle cx="-380" cy="0" r="2" />
<circle cx="0" cy="311" r="2" />
<polyline points="-380,178 -375,172 -370,165 -364,159 -359,152 -354,145 -349,138 -344,131 -338,123 -333,116 -328,109 -323,102 -317,95 -312,88 -307,82 -302,75 -296,69 -291,62 -286,56 -281,50 -276,45 -270,40 -265,34 -260,30 -255,25 -249,21 -244,17 -239,13 -234,9 -229,6 -223,3 -218,1 -213,-2 -208,-4 -202,-6 -197,-7 -192,-9 -187,-10 -182,-11 -176,-11 -171,-12 -166,-12 -161,-12 -155,-12 -150,-12 -145,-11 -140,-11 -134,-10 -129,-10 -124,-9 -119,-8 -114,-7 -108,-7 -103,-6 -98,-5 -93,-4 -87,-3 -82,-3 -77,-2 -72,-1 -67,-1 -61,-1 -56,-0 -51,0 -46,0 -40,0 -35,0 -30,0 -25,0 -19,0 -14,0 -9,0 -4,0 1,0 7,0 12,0 17,1 22,2 28,3 33,4 38,6 43,8 48,11 54,15 59,19 64,24 69,31 75,38 80,47 85,57 90,68 96,82 101,97 106,114 111,134 116,156 122,181 127,208 132,239 137,273 143,311" />
</g>
</svg>