<svg xmlns="http://www.w3.org/2000/svg" width="161.8" height="100.0" viewBox="-1.8 -56.0 171.8 110.0">
<g fill="none" stroke="black" stroke-width="0.2758%" transform="translate(0, -1.9110) scale(1.8126, -1.8126)">
<circle cx="1.8" cy="0.5" r="0.3" />
<circle cx="3.6" cy="-0.5" r="0.3" />
<circle cx="5.4" cy="0.5" r="0.3" />
<circle cx="7.1" cy="0.0" r="0.3" />
<circle cx="8.9" cy="-0.5" r="0.3" />
<circle cx="10.7" cy="0.0" r="0.3" />
<circle cx="12.5" cy="0.5" r="0.3" />
<circle cx="14.3" cy="0.0" r="0.3" />
<circle cx="16.1" cy="-0.5" r="0.3" />
<circle cx="17.9" cy="0.0" r="0.3" />
<circle cx="19.6" cy="1.1" r="0.3" />
<circle cx="21.4" cy="0.0" r="0.3" />
<circle cx="23.2" cy="-3.2" r="0.3" />
<circle cx="25.0" cy="0.0" r="0.3" />
<circle cx="26.8" cy="1.2" r="0.3" />
<circle cx="28.6" cy="0.0" r="0.3" />
<circle cx="30.3" cy="-3.9" r="0.3" />
<circle cx="32.1" cy="0.0" r="0.3" />
<circle cx="33.9" cy="5.0" r="0.3" />
<circle cx="35.7" cy="0.0" r="0.3" />
<circle cx="37.5" cy="-5.6" r="0.3" />
<circle cx="39.3" cy="0.0" r="0.3" />
<circle cx="41.1" cy="6.3" r="0.3" />
<circle cx="42.8" cy="0.0" r="0.3" />
<circle cx="44.6" cy="-8.7" r="0.3" />
<circle cx="46.4" cy="0.0" r="0.3" />
<circle cx="48.2" cy="7.3" r="0.3" />
<circle cx="50.0" cy="0.0" r="0.3" />
<circle cx="51.8" cy="-10.7" r="0.3" />
<circle cx="53.6" cy="0.0" r="0.3" />
<circle cx="55.3" cy="13.3" r="0.3" />
<circle cx="57.1" cy="0.0" r="0.3" />
<circle cx="58.9" cy="-13.2" r="0.3" />
<circle cx="60.7" cy="0.0" r="0.3" />
<circle cx="62.5" cy="12.8" r="0.3" />
<circle cx="64.3" cy="0.0" r="0.3" />
<circle cx="66.1" cy="-19.8" r="0.3" />
<circle cx="67.8" cy="0.0" r="0.3" />
<circle cx="69.6" cy="15.8" r="0.3" />
<circle cx="71.4" cy="0.0" r="0.3" />
<circle cx="73.2" cy="-20.8" r="0.3" />
<circle cx="75.0" cy="0.0" r="0.3" />
<circle cx="76.8" cy="21.5" r="0.3" />
<circle cx="78.6" cy="0.0" r="0.3" />
<circle cx="80.3" cy="-22.8" r="0.3" />
<circle cx="82.1" cy="0.0" r="0.3" />
<circle cx="83.9" cy="24.1" r="0.3" />
<circle cx="85.7" cy="0.0" r="0.3" />
<circle cx="87.5" cy="-28.1" r="0.3" />
<circle cx="89.3" cy="0.0" r="0.3" />
<circle cx="91.0" cy="27.1" r="0.3" />
</g>
</svg>