<svg xmlns="http://www.w3.org/2000/svg" width="161.8" height="100.0" viewBox="-5.0000 -55.0000 171.8034 110.0000">
<g fill="none" stroke="black" stroke-width="0.0005%" transform="translate(0, 0.0000) scale(1039.2634, -1039.2634)">
<circle cx="0.0000" cy="0.0000" r="0.0005" />
<circle cx="0.0000" cy="0.0481" r="0.0005" />
<polyline points="0.0000,0.0000 0.0016,0.0049 0.0031,0.0094 0.0047,0.0137 0.0062,0.0177 0.0078,0.0214 0.0093,0.0248 0.0109,0.0280 0.0125,0.0309 0.0140,0.0336 0.0156,0.0360 0.0171,0.0382 0.0187,0.0401 0.0202,0.0418 0.0218,0.0433 0.0234,0.0446 0.0249,0.0457 0.0265,0.0466 0.0280,0.0472 0.0296,0.0477 0.0311,0.0480 0.0327,0.0481 0.0343,0.0480 0.0358,0.0478 0.0374,0.0474 0.0389,0.0469 0.0405,0.0462 0.0420,0.0453 0.0436,0.0444 0.0452,0.0432 0.0467,0.0420 0.0483,0.0406 0.0498,0.0392 0.0514,0.0376 0.0529,0.0359 0.0545,0.0341 0.0560,0.0323 0.0576,0.0303 0.0592,0.0283 0.0607,0.0262 0.0623,0.0240 0.0638,0.0218 0.0654,0.0195 0.0669,0.0172 0.0685,0.0148 0.0701,0.0124 0.0716,0.0099 0.0732,0.0075 0.0747,0.0050 0.0763,0.0025 0.0778,-0.0000 0.0794,-0.0025 0.0810,-0.0050 0.0825,-0.0075 0.0841,-0.0099 0.0856,-0.0124 0.0872,-0.0148 0.0887,-0.0172 0.0903,-0.0195 0.0919,-0.0218 0.0934,-0.0240 0.0950,-0.0262 0.0965,-0.0283 0.0981,-0.0303 0.0996,-0.0323 0.1012,-0.0341 0.1028,-0.0359 0.1043,-0.0376 0.1059,-0.0392 0.1074,-0.0406 0.1090,-0.0420 0.1105,-0.0432 0.1121,-0.0444 0.1137,-0.0453 0.1152,-0.0462 0.1168,-0.0469 0.1183,-0.0474 0.1199,-0.0478 0.1214,-0.0480 0.1230,-0.0481 0.1246,-0.0480 0.1261,-0.0477 0.1277,-0.0472 0.1292,-0.0466 0.1308,-0.0457 0.1323,-0.0446 0.1339,-0.0433 0.1355,-0.0418 0.1370,-0.0401 0.1386,-0.0382 0.1401,-0.0360 0.1417,-0.0336 0.1432,-0.0309 0.1448,-0.0280 0.1463,-0.0248 0.1479,-0.0214 0.1495,-0.0177 0.1510,-0.0137 0.1526,-0.0094 0.1541,-0.0049 0.1557,0.0000" />
</g>
</svg>