<svg xmlns="http://www.w3.org/2000/svg" width="161.8" height="100.0" viewBox="-5.000 -5.000 171.803 110.000">
<g fill="none" stroke="black" stroke-width="0.0050%" transform="translate(0, 100.0000) scale(100.0000, -100.0000)">
<circle cx="0.000" cy="0.000" r="0.005" />
<circle cx="0.000" cy="1.000" r="0.005" />
<line x1="0.000" y1="0.000" x2="0.000" y2="0.000" />
<line x1="0.054" y1="0.000" x2="0.054" y2="0.000" />
<line x1="0.108" y1="0.000" x2="0.108" y2="1.000" />
<line x1="0.162" y1="0.000" x2="0.162" y2="1.000" />
<line x1="0.216" y1="0.000" x2="0.216" y2="0.000" />
<line x1="0.270" y1="0.000" x2="0.270" y2="0.000" />
<line x1="0.324" y1="0.000" x2="0.324" y2="0.000" />
<line x1="0.378" y1="0.000" x2="0.378" y2="1.000" />
<line x1="0.431" y1="0.000" x2="0.431" y2="0.000" />
<line x1="0.485" y1="0.000" x2="0.485" y2="0.000" />
<line x1="0.539" y1="0.000" x2="0.539" y2="0.000" />
<line x1="0.593" y1="0.000" x2="0.593" y2="0.000" />
<line x1="0.647" y1="0.000" x2="0.647" y2="0.000" />
<line x1="0.701" y1="0.000" x2="0.701" y2="0.000" />
<line x1="0.755" y1="0.000" x2="0.755" y2="0.000" />
<line x1="0.809" y1="0.000" x2="0.809" y2="0.000" />
<line x1="0.863" y1="0.000" x2="0.863" y2="0.000" />
<line x1="0.917" y1="0.000" x2="0.917" y2="0.000" />
<line x1="0.971" y1="0.000" x2="0.971" y2="0.000" />
<line x1="1.025" y1="0.000" x2="1.025" y2="0.000" />
<line x1="1.079" y1="0.000" x2="1.079" y2="1.000" />
<line x1="1.133" y1="0.000" x2="1.133" y2="0.000" />
<line x1="1.187" y1="0.000" x2="1.187" y2="0.000" />
<line x1="1.240" y1="0.000" x2="1.240" y2="1.000" />
<line x1="1.294" y1="0.000" x2="1.294" y2="0.000" />
<line x1="1.348" y1="0.000" x2="1.348" y2="0.000" />
<line x1="1.402" y1="0.000" x2="1.402" y2="0.000" />
<line x1="1.456" y1="0.000" x2="1.456" y2="0.000" />
<line x1="1.510" y1="0.000" x2="1.510" y2="0.000" />
<line x1="1.564" y1="0.000" x2="1.564" y2="0.000" />
<line x1="1.618" y1="0.000" x2="1.618" y2="1.000" />
</g>
</svg>