<svg xmlns="http://www.w3.org/2000/svg" width="161.8" height="100.0" viewBox="-46.9490 -74.5637 171.8034 110.0000">
<g fill="none" stroke="black" stroke-width="0.0004%" transform="translate(0, -39.1275) scale(1244.5916, -1244.5916)">
<circle cx="-0.0337" cy="0.0000" r="0.0004" />
<circle cx="0.0000" cy="0.0245" r="0.0004" />
<polyline points="-0.0337,-0.0559 -0.0324,-0.0438 -0.0311,-0.0331 -0.0298,-0.0236 -0.0285,-0.0154 -0.0272,-0.0082 -0.0259,-0.0021 -0.0246,0.0030 -0.0233,0.0073 -0.0220,0.0108 -0.0207,0.0135 -0.0194,0.0155 -0.0181,0.0169 -0.0168,0.0177 -0.0155,0.0181 -0.0142,0.0180 -0.0129,0.0175 -0.0116,0.0166 -0.0103,0.0154 -0.0090,0.0140 -0.0077,0.0124 -0.0064,0.0105 -0.0051,0.0086 -0.0038,0.0065 -0.0025,0.0043 -0.0012,0.0021 0.0001,-0.0002 0.0014,-0.0024 0.0027,-0.0046 0.0040,-0.0068 0.0053,-0.0089 0.0066,-0.0109 0.0079,-0.0129 0.0092,-0.0147 0.0105,-0.0163 0.0118,-0.0179 0.0131,-0.0193 0.0144,-0.0205 0.0157,-0.0216 0.0170,-0.0225 0.0183,-0.0232 0.0196,-0.0238 0.0209,-0.0242 0.0222,-0.0244 0.0235,-0.0245 0.0248,-0.0243 0.0261,-0.0240 0.0274,-0.0236 0.0287,-0.0229 0.0300,-0.0221 0.0313,-0.0212 0.0326,-0.0202 0.0339,-0.0190 0.0352,-0.0176 0.0365,-0.0162 0.0378,-0.0147 0.0391,-0.0130 0.0404,-0.0113 0.0417,-0.0095 0.0430,-0.0077 0.0443,-0.0058 0.0456,-0.0038 0.0469,-0.0019 0.0482,0.0001 0.0495,0.0020 0.0508,0.0040 0.0521,0.0059 0.0534,0.0078 0.0547,0.0097 0.0560,0.0114 0.0573,0.0131 0.0586,0.0148 0.0599,0.0163 0.0612,0.0177 0.0625,0.0190 0.0638,0.0202 0.0651,0.0213 0.0664,0.0222 0.0677,0.0230 0.0690,0.0236 0.0703,0.0240 0.0716,0.0243 0.0729,0.0245 0.0742,0.0244 0.0755,0.0242 0.0768,0.0238 0.0781,0.0232 0.0794,0.0224 0.0807,0.0215 0.0820,0.0204 0.0833,0.0192 0.0846,0.0178 0.0859,0.0162 0.0872,0.0145 0.0885,0.0127 0.0898,0.0108 0.0911,0.0088 0.0924,0.0066 0.0937,0.0045 0.0950,0.0022 0.0963,0.0000" />
<polyline points="-0.0337,0.0177 -0.0324,0.0136 -0.0311,0.0105 -0.0298,0.0083 -0.0285,0.0067 -0.0272,0.0057 -0.0259,0.0053 -0.0246,0.0054 -0.0233,0.0058 -0.0220,0.0065 -0.0207,0.0075 -0.0194,0.0087 -0.0181,0.0100 -0.0168,0.0114 -0.0155,0.0129 -0.0142,0.0143 -0.0129,0.0158 -0.0116,0.0172 -0.0103,0.0185 -0.0090,0.0197 -0.0077,0.0207 -0.0064,0.0217 -0.0051,0.0224 -0.0038,0.0230 -0.0025,0.0235 -0.0012,0.0237 0.0001,0.0238 0.0014,0.0237 0.0027,0.0234 0.0040,0.0230 0.0053,0.0223 0.0066,0.0215 0.0079,0.0205 0.0092,0.0194 0.0105,0.0182 0.0118,0.0168 0.0131,0.0153 0.0144,0.0137 0.0157,0.0120 0.0170,0.0102 0.0183,0.0083 0.0196,0.0064 0.0209,0.0045 0.0222,0.0025 0.0235,0.0005 0.0248,-0.0015 0.0261,-0.0034 0.0274,-0.0053 0.0287,-0.0072 0.0300,-0.0091 0.0313,-0.0108 0.0326,-0.0125 0.0339,-0.0141 0.0352,-0.0156 0.0365,-0.0169 0.0378,-0.0182 0.0391,-0.0193 0.0404,-0.0203 0.0417,-0.0211 0.0430,-0.0218 0.0443,-0.0224 0.0456,-0.0228 0.0469,-0.0230 0.0482,-0.0231 0.0495,-0.0230 0.0508,-0.0227 0.0521,-0.0223 0.0534,-0.0218 0.0547,-0.0211 0.0560,-0.0202 0.0573,-0.0192 0.0586,-0.0181 0.0599,-0.0168 0.0612,-0.0154 0.0625,-0.0140 0.0638,-0.0124 0.0651,-0.0107 0.0664,-0.0089 0.0677,-0.0071 0.0690,-0.0052 0.0703,-0.0033 0.0716,-0.0013 0.0729,0.0007 0.0742,0.0026 0.0755,0.0046 0.0768,0.0066 0.0781,0.0085 0.0794,0.0103 0.0807,0.0121 0.0820,0.0138 0.0833,0.0154 0.0846,0.0169 0.0859,0.0183 0.0872,0.0195 0.0885,0.0206 0.0898,0.0216 0.0911,0.0224 0.0924,0.0230 0.0937,0.0234 0.0950,0.0237 0.0963,0.0238" />
</g>
</svg>