<svg xmlns="http://www.w3.org/2000/svg" width="161.8" height="100.0" viewBox="-85.90 20.77 171.80 110.00">
<g fill="none" stroke="black" stroke-width="0.0194%" transform="translate(0, 151.5359) scale(25.7679, -25.7679)">
<polyline points="-3.14,4.88 -3.08,4.65 -3.01,4.43 -2.95,4.22 -2.89,4.03 -2.83,3.84 -2.76,3.67 -2.70,3.50 -2.64,3.34 -2.57,3.19 -2.51,3.05 -2.45,2.92 -2.39,2.79 -2.32,2.67 -2.26,2.55 -2.20,2.45 -2.13,2.34 -2.07,2.25 -2.01,2.16 -1.95,2.07 -1.88,1.99 -1.82,1.91 -1.76,1.84 -1.70,1.77 -1.63,1.71 -1.57,1.65 -1.51,1.59 -1.44,1.54 -1.38,1.49 -1.32,1.44 -1.26,1.39 -1.19,1.35 -1.13,1.31 -1.07,1.28 -1.00,1.24 -0.94,1.21 -0.88,1.18 -0.82,1.16 -0.75,1.13 -0.69,1.11 -0.63,1.09 -0.57,1.07 -0.50,1.06 -0.44,1.04 -0.38,1.03 -0.31,1.02 -0.25,1.01 -0.19,1.01 -0.13,1.00 -0.06,1.00 0.00,1.00 0.06,1.00 0.13,1.00 0.19,1.01 0.25,1.01 0.31,1.02 0.38,1.03 0.44,1.04 0.50,1.06 0.57,1.07 0.63,1.09 0.69,1.11 0.75,1.13 0.82,1.16 0.88,1.18 0.94,1.21 1.00,1.24 1.07,1.28 1.13,1.31 1.19,1.35 1.26,1.39 1.32,1.44 1.38,1.49 1.44,1.54 1.51,1.59 1.57,1.65 1.63,1.71 1.70,1.77 1.76,1.84 1.82,1.91 1.88,1.99 1.95,2.07 2.01,2.16 2.07,2.25 2.13,2.34 2.20,2.45 2.26,2.55 2.32,2.67 2.39,2.79 2.45,2.92 2.51,3.05 2.57,3.19 2.64,3.34 2.70,3.50 2.76,3.67 2.83,3.84 2.89,4.03 2.95,4.22 3.01,4.43 3.08,4.65 3.14,4.88" />
</g>
</svg>