<svg xmlns="http://www.w3.org/2000/svg" width="161.8034" height="100.0000" viewBox="22.0515 -4.9998 171.8034 110.0000">
<g fill="none" stroke="black" stroke-width="0.0001%" transform="translate(0, 100.0004) scale(3791.0349, -3791.0349)">
<polyline points="0.0071,0.0264 0.0076,0.0151 0.0080,0.0074 0.0084,0.0027 0.0088,0.0004 0.0093,0.0000 0.0097,0.0009 0.0101,0.0024 0.0106,0.0042 0.0110,0.0060 0.0114,0.0074 0.0118,0.0083 0.0123,0.0087 0.0127,0.0086 0.0131,0.0080 0.0135,0.0070 0.0140,0.0058 0.0144,0.0046 0.0148,0.0033 0.0152,0.0022 0.0157,0.0013 0.0161,0.0006 0.0165,0.0002 0.0170,0.0000 0.0174,0.0001 0.0178,0.0003 0.0182,0.0006 0.0187,0.0010 0.0191,0.0014 0.0195,0.0017 0.0199,0.0019 0.0204,0.0021 0.0208,0.0021 0.0212,0.0020 0.0216,0.0018 0.0221,0.0016 0.0225,0.0013 0.0229,0.0010 0.0234,0.0007 0.0238,0.0004 0.0242,0.0002 0.0246,0.0001 0.0251,0.0000 0.0255,0.0000 0.0259,0.0000 0.0263,0.0001 0.0268,0.0002 0.0272,0.0004 0.0276,0.0005 0.0280,0.0006 0.0285,0.0007 0.0289,0.0008 0.0293,0.0008 0.0298,0.0008 0.0302,0.0008 0.0306,0.0007 0.0310,0.0006 0.0315,0.0005 0.0319,0.0004 0.0323,0.0003 0.0327,0.0002 0.0332,0.0001 0.0336,0.0001 0.0340,0.0000 0.0345,0.0000 0.0349,0.0000 0.0353,0.0000 0.0357,0.0001 0.0362,0.0001 0.0366,0.0001 0.0370,0.0002 0.0374,0.0002 0.0379,0.0003 0.0383,0.0003 0.0387,0.0004 0.0391,0.0004 0.0396,0.0004 0.0400,0.0004 0.0404,0.0004 0.0409,0.0003 0.0413,0.0003 0.0417,0.0003 0.0421,0.0002 0.0426,0.0002 0.0430,0.0002 0.0434,0.0001 0.0438,0.0001 0.0443,0.0001 0.0447,0.0000 0.0451,0.0000 0.0455,0.0000 0.0460,0.0000 0.0464,0.0000 0.0468,0.0000 0.0473,0.0000 0.0477,0.0000 0.0481,0.0001 0.0485,0.0001 0.0490,0.0001 0.0494,0.0001 0.0498,0.0001" />
</g>
</svg>