<svg xmlns="http://www.w3.org/2000/svg" width="161.8" height="100.0" viewBox="-3.685 -5.000 171.803 110.000">
<g fill="none" stroke="black" stroke-width="0.0050%" transform="translate(0, 100.0000) scale(100.0000, -100.0000)">


<line x1="0.039" y1="0.000" x2="0.039" y2="1.000" />
<line x1="0.053" y1="0.000" x2="0.053" y2="1.000" />
<line x1="0.066" y1="0.000" x2="0.066" y2="1.000" />

<line x1="0.092" y1="0.000" x2="0.092" y2="1.000" />


<line x1="0.132" y1="0.000" x2="0.132" y2="1.000" />



<line x1="0.184" y1="0.000" x2="0.184" y2="1.000" />



<line x1="0.237" y1="0.000" x2="0.237" y2="1.000" />


<line x1="0.276" y1="0.000" x2="0.276" y2="1.000" />
<line x1="0.289" y1="0.000" x2="0.289" y2="1.000" />
<line x1="0.303" y1="0.000" x2="0.303" y2="1.000" />

<line x1="0.329" y1="0.000" x2="0.329" y2="1.000" />


<line x1="0.368" y1="0.000" x2="0.368" y2="1.000" />
<line x1="0.381" y1="0.000" x2="0.381" y2="1.000" />
<line x1="0.395" y1="0.000" x2="0.395" y2="1.000" />
<line x1="0.408" y1="0.000" x2="0.408" y2="1.000" />

<line x1="0.434" y1="0.000" x2="0.434" y2="1.000" />
<line x1="0.447" y1="0.000" x2="0.447" y2="1.000" />

<line x1="0.474" y1="0.000" x2="0.474" y2="1.000" />


<line x1="0.513" y1="0.000" x2="0.513" y2="1.000" />
<line x1="0.526" y1="0.000" x2="0.526" y2="1.000" />
<line x1="0.539" y1="0.000" x2="0.539" y2="1.000" />
<line x1="0.552" y1="0.000" x2="0.552" y2="1.000" />

<line x1="0.579" y1="0.000" x2="0.579" y2="1.000" />
<line x1="0.592" y1="0.000" x2="0.592" y2="1.000" />

<line x1="0.618" y1="0.000" x2="0.618" y2="1.000" />


<line x1="0.658" y1="0.000" x2="0.658" y2="1.000" />
<line x1="0.671" y1="0.000" x2="0.671" y2="1.000" />
<line x1="0.684" y1="0.000" x2="0.684" y2="1.000" />

<line x1="0.710" y1="0.000" x2="0.710" y2="1.000" />


<line x1="0.750" y1="0.000" x2="0.750" y2="1.000" />



<line x1="0.802" y1="0.000" x2="0.802" y2="1.000" />



<line x1="0.855" y1="0.000" x2="0.855" y2="1.000" />


<line x1="0.895" y1="0.000" x2="0.895" y2="1.000" />
<line x1="0.908" y1="0.000" x2="0.908" y2="1.000" />
<line x1="0.921" y1="0.000" x2="0.921" y2="1.000" />

<line x1="0.947" y1="0.000" x2="0.947" y2="1.000" />


<line x1="0.987" y1="0.000" x2="0.987" y2="1.000" />



<line x1="1.039" y1="0.000" x2="1.039" y2="1.000" />


<line x1="1.079" y1="0.000" x2="1.079" y2="1.000" />

<line x1="1.105" y1="0.000" x2="1.105" y2="1.000" />
<line x1="1.118" y1="0.000" x2="1.118" y2="1.000" />




<line x1="1.184" y1="0.000" x2="1.184" y2="1.000" />



<line x1="1.237" y1="0.000" x2="1.237" y2="1.000" />


<line x1="1.276" y1="0.000" x2="1.276" y2="1.000" />
<line x1="1.289" y1="0.000" x2="1.289" y2="1.000" />
<line x1="1.302" y1="0.000" x2="1.302" y2="1.000" />

<line x1="1.329" y1="0.000" x2="1.329" y2="1.000" />


<line x1="1.368" y1="0.000" x2="1.368" y2="1.000" />



<line x1="1.421" y1="0.000" x2="1.421" y2="1.000" />


<line x1="1.460" y1="0.000" x2="1.460" y2="1.000" />

<line x1="1.486" y1="0.000" x2="1.486" y2="1.000" />
<line x1="1.500" y1="0.000" x2="1.500" y2="1.000" />




<line x1="1.565" y1="0.000" x2="1.565" y2="1.000" />



<line x1="1.618" y1="0.000" x2="1.618" y2="1.000" />

</g>
</svg>