<svg xmlns="http://www.w3.org/2000/svg" width="161.8" height="100.0" viewBox="-5.0000 -4.4815 171.8034 110.0000">
<g fill="none" stroke="black" stroke-width="0.0007%" transform="translate(0, 101.0370) scale(670.1232, -670.1232)">
<circle cx="0.0000" cy="0.1500" r="0.0007" />
<polyline points="0.0000,0.0136 0.0024,0.0144 0.0048,0.0151 0.0072,0.0157 0.0097,0.0162 0.0121,0.0167 0.0145,0.0172 0.0169,0.0177 0.0193,0.0181 0.0217,0.0185 0.0241,0.0189 0.0266,0.0193 0.0290,0.0197 0.0314,0.0200 0.0338,0.0204 0.0362,0.0207 0.0386,0.0211 0.0410,0.0214 0.0435,0.0218 0.0459,0.0221 0.0483,0.0224 0.0507,0.0228 0.0531,0.0231 0.0555,0.0234 0.0579,0.0237 0.0604,0.0241 0.0628,0.0244 0.0652,0.0247 0.0676,0.0251 0.0700,0.0254 0.0724,0.0257 0.0749,0.0261 0.0773,0.0264 0.0797,0.0268 0.0821,0.0271 0.0845,0.0275 0.0869,0.0278 0.0893,0.0282 0.0918,0.0285 0.0942,0.0289 0.0966,0.0293 0.0990,0.0296 0.1014,0.0300 0.1038,0.0304 0.1062,0.0308 0.1087,0.0312 0.1111,0.0316 0.1135,0.0320 0.1159,0.0325 0.1183,0.0329 0.1207,0.0334 0.1231,0.0338 0.1256,0.0343 0.1280,0.0348 0.1304,0.0352 0.1328,0.0357 0.1352,0.0363 0.1376,0.0368 0.1400,0.0373 0.1425,0.0379 0.1449,0.0385 0.1473,0.0391 0.1497,0.0397 0.1521,0.0403 0.1545,0.0410 0.1569,0.0417 0.1594,0.0424 0.1618,0.0431 0.1642,0.0439 0.1666,0.0447 0.1690,0.0455 0.1714,0.0464 0.1738,0.0473 0.1763,0.0483 0.1787,0.0493 0.1811,0.0503 0.1835,0.0514 0.1859,0.0526 0.1883,0.0539 0.1907,0.0552 0.1932,0.0566 0.1956,0.0581 0.1980,0.0598 0.2004,0.0615 0.2028,0.0634 0.2052,0.0655 0.2076,0.0677 0.2101,0.0702 0.2125,0.0729 0.2149,0.0760 0.2173,0.0794 0.2197,0.0834 0.2221,0.0879 0.2246,0.0931 0.2270,0.0994 0.2294,0.1070 0.2318,0.1166 0.2342,0.1291 0.2366,0.1463 0.2390,0.1500 0.2415,0.1500" />
<polyline points="0.0000,0.0591 0.0024,0.0616 0.0048,0.0635 0.0072,0.0651 0.0097,0.0664 0.0121,0.0675 0.0145,0.0684 0.0169,0.0691 0.0193,0.0697 0.0217,0.0702 0.0241,0.0705 0.0266,0.0708 0.0290,0.0710 0.0314,0.0712 0.0338,0.0713 0.0362,0.0713 0.0386,0.0712 0.0410,0.0712 0.0435,0.0710 0.0459,0.0709 0.0483,0.0707 0.0507,0.0704 0.0531,0.0702 0.0555,0.0699 0.0579,0.0695 0.0604,0.0692 0.0628,0.0688 0.0652,0.0684 0.0676,0.0680 0.0700,0.0675 0.0724,0.0670 0.0749,0.0665 0.0773,0.0660 0.0797,0.0655 0.0821,0.0649 0.0845,0.0643 0.0869,0.0638 0.0893,0.0631 0.0918,0.0625 0.0942,0.0619 0.0966,0.0612 0.0990,0.0606 0.1014,0.0599 0.1038,0.0592 0.1062,0.0585 0.1087,0.0578 0.1111,0.0571 0.1135,0.0563 0.1159,0.0556 0.1183,0.0548 0.1207,0.0540 0.1231,0.0532 0.1256,0.0525 0.1280,0.0516 0.1304,0.0508 0.1328,0.0500 0.1352,0.0492 0.1376,0.0483 0.1400,0.0475 0.1425,0.0466 0.1449,0.0458 0.1473,0.0449 0.1497,0.0440 0.1521,0.0431 0.1545,0.0422 0.1569,0.0413 0.1594,0.0404 0.1618,0.0395 0.1642,0.0385 0.1666,0.0376 0.1690,0.0367 0.1714,0.0357 0.1738,0.0347 0.1763,0.0338 0.1787,0.0328 0.1811,0.0318 0.1835,0.0309 0.1859,0.0299 0.1883,0.0289 0.1907,0.0279 0.1932,0.0269 0.1956,0.0258 0.1980,0.0248 0.2004,0.0238 0.2028,0.0228 0.2052,0.0217 0.2076,0.0207 0.2101,0.0197 0.2125,0.0186 0.2149,0.0175 0.2173,0.0165 0.2197,0.0154 0.2221,0.0144 0.2246,0.0133 0.2270,0.0122 0.2294,0.0111 0.2318,0.0100 0.2342,0.0089 0.2366,0.0078 0.2390,0.0067 0.2415,0.0056" />
<polyline points="0.0000,0.0896 0.0024,0.0926 0.0048,0.0947 0.0072,0.0961 0.0097,0.0971 0.0121,0.0978 0.0145,0.0981 0.0169,0.0982 0.0193,0.0980 0.0217,0.0977 0.0241,0.0973 0.0266,0.0967 0.0290,0.0960 0.0314,0.0952 0.0338,0.0943 0.0362,0.0934 0.0386,0.0924 0.0410,0.0913 0.0435,0.0902 0.0459,0.0890 0.0483,0.0877 0.0507,0.0865 0.0531,0.0852 0.0555,0.0838 0.0579,0.0825 0.0604,0.0811 0.0628,0.0797 0.0652,0.0783 0.0676,0.0769 0.0700,0.0754 0.0724,0.0740 0.0749,0.0725 0.0773,0.0710 0.0797,0.0695 0.0821,0.0680 0.0845,0.0666 0.0869,0.0651 0.0893,0.0636 0.0918,0.0621 0.0942,0.0606 0.0966,0.0591 0.0990,0.0576 0.1014,0.0562 0.1038,0.0547 0.1062,0.0533 0.1087,0.0518 0.1111,0.0504 0.1135,0.0489 0.1159,0.0475 0.1183,0.0461 0.1207,0.0447 0.1231,0.0433 0.1256,0.0420 0.1280,0.0406 0.1304,0.0393 0.1328,0.0379 0.1352,0.0366 0.1376,0.0353 0.1400,0.0341 0.1425,0.0328 0.1449,0.0316 0.1473,0.0303 0.1497,0.0291 0.1521,0.0279 0.1545,0.0268 0.1569,0.0256 0.1594,0.0245 0.1618,0.0234 0.1642,0.0223 0.1666,0.0213 0.1690,0.0202 0.1714,0.0192 0.1738,0.0182 0.1763,0.0172 0.1787,0.0163 0.1811,0.0154 0.1835,0.0145 0.1859,0.0136 0.1883,0.0127 0.1907,0.0119 0.1932,0.0111 0.1956,0.0103 0.1980,0.0096 0.2004,0.0089 0.2028,0.0082 0.2052,0.0075 0.2076,0.0069 0.2101,0.0062 0.2125,0.0056 0.2149,0.0051 0.2173,0.0045 0.2197,0.0040 0.2221,0.0036 0.2246,0.0031 0.2270,0.0027 0.2294,0.0023 0.2318,0.0019 0.2342,0.0016 0.2366,0.0013 0.2390,0.0010 0.2415,0.0008" />
</g>
</svg>