<svg xmlns="http://www.w3.org/2000/svg" width="161.1" height="100.0" viewBox="8.9 -5.0 171.1 110.0">
<g fill="none" stroke="black" stroke-width="1.0800%" transform="translate(0, 100.0000) scale(0.4630, -0.4630)">
<line x1="30.0" y1="0.0" x2="30.0" y2="1.0" />
<line x1="34.0" y1="0.0" x2="34.0" y2="2.0" />
<line x1="38.0" y1="0.0" x2="38.0" y2="6.0" />
<line x1="42.0" y1="0.0" x2="42.0" y2="6.0" />
<line x1="46.0" y1="0.0" x2="46.0" y2="9.0" />
<line x1="50.0" y1="0.0" x2="50.0" y2="12.0" />
<line x1="54.0" y1="0.0" x2="54.0" y2="15.0" />
<line x1="58.0" y1="0.0" x2="58.0" y2="15.0" />
<line x1="62.0" y1="0.0" x2="62.0" y2="22.0" />
<line x1="66.0" y1="0.0" x2="66.0" y2="39.0" />
<line x1="70.0" y1="0.0" x2="70.0" y2="36.0" />
<line x1="74.0" y1="0.0" x2="74.0" y2="32.0" />
<line x1="78.0" y1="0.0" x2="78.0" y2="46.0" />
<line x1="82.0" y1="0.0" x2="82.0" y2="43.0" />
<line x1="86.0" y1="0.0" x2="86.0" y2="43.0" />
<line x1="90.0" y1="0.0" x2="90.0" y2="45.0" />
<line x1="94.0" y1="0.0" x2="94.0" y2="57.0" />
<line x1="98.0" y1="0.0" x2="98.0" y2="72.0" />
<line x1="102.0" y1="0.0" x2="102.0" y2="77.0" />
<line x1="106.0" y1="0.0" x2="106.0" y2="110.0" />
<line x1="110.0" y1="0.0" x2="110.0" y2="85.0" />
<line x1="114.0" y1="0.0" x2="114.0" y2="84.0" />
<line x1="118.0" y1="0.0" x2="118.0" y2="85.0" />
<line x1="122.0" y1="0.0" x2="122.0" y2="100.0" />
<line x1="126.0" y1="0.0" x2="126.0" y2="99.0" />
<line x1="130.0" y1="0.0" x2="130.0" y2="103.0" />
<line x1="134.0" y1="0.0" x2="134.0" y2="132.0" />
<line x1="138.0" y1="0.0" x2="138.0" y2="121.0" />
<line x1="141.9" y1="0.0" x2="141.9" y2="135.0" />
<line x1="145.9" y1="0.0" x2="145.9" y2="135.0" />
<line x1="149.9" y1="0.0" x2="149.9" y2="135.0" />
<line x1="153.9" y1="0.0" x2="153.9" y2="125.0" />
<line x1="157.9" y1="0.0" x2="157.9" y2="170.0" />
<line x1="161.9" y1="0.0" x2="161.9" y2="157.0" />
<line x1="165.9" y1="0.0" x2="165.9" y2="175.0" />
<line x1="169.9" y1="0.0" x2="169.9" y2="150.0" />
<line x1="173.9" y1="0.0" x2="173.9" y2="178.0" />
<line x1="177.9" y1="0.0" x2="177.9" y2="159.0" />
<line x1="181.9" y1="0.0" x2="181.9" y2="170.0" />
<line x1="185.9" y1="0.0" x2="185.9" y2="191.0" />
<line x1="189.9" y1="0.0" x2="189.9" y2="175.0" />
<line x1="193.9" y1="0.0" x2="193.9" y2="191.0" />
<line x1="197.9" y1="0.0" x2="197.9" y2="195.0" />
<line x1="201.9" y1="0.0" x2="201.9" y2="216.0" />
<line x1="205.9" y1="0.0" x2="205.9" y2="195.0" />
<line x1="209.9" y1="0.0" x2="209.9" y2="190.0" />
<line x1="213.9" y1="0.0" x2="213.9" y2="209.0" />
<line x1="217.9" y1="0.0" x2="217.9" y2="196.0" />
<line x1="221.9" y1="0.0" x2="221.9" y2="198.0" />
<line x1="225.9" y1="0.0" x2="225.9" y2="201.0" />
<line x1="229.9" y1="0.0" x2="229.9" y2="186.0" />
<line x1="233.9" y1="0.0" x2="233.9" y2="195.0" />
<line x1="237.9" y1="0.0" x2="237.9" y2="197.0" />
<line x1="241.9" y1="0.0" x2="241.9" y2="212.0" />
<line x1="245.9" y1="0.0" x2="245.9" y2="213.0" />
<line x1="249.9" y1="0.0" x2="249.9" y2="185.0" />
<line x1="253.9" y1="0.0" x2="253.9" y2="185.0" />
<line x1="257.9" y1="0.0" x2="257.9" y2="185.0" />
<line x1="261.9" y1="0.0" x2="261.9" y2="185.0" />
<line x1="265.9" y1="0.0" x2="265.9" y2="178.0" />
<line x1="269.9" y1="0.0" x2="269.9" y2="177.0" />
<line x1="273.9" y1="0.0" x2="273.9" y2="180.0" />
<line x1="277.9" y1="0.0" x2="277.9" y2="184.0" />
<line x1="281.9" y1="0.0" x2="281.9" y2="164.0" />
<line x1="285.9" y1="0.0" x2="285.9" y2="182.0" />
<line x1="289.9" y1="0.0" x2="289.9" y2="170.0" />
<line x1="293.9" y1="0.0" x2="293.9" y2="150.0" />
<line x1="297.9" y1="0.0" x2="297.9" y2="132.0" />
<line x1="301.9" y1="0.0" x2="301.9" y2="138.0" />
<line x1="305.9" y1="0.0" x2="305.9" y2="131.0" />
<line x1="309.9" y1="0.0" x2="309.9" y2="114.0" />
<line x1="313.9" y1="0.0" x2="313.9" y2="123.0" />
<line x1="317.9" y1="0.0" x2="317.9" y2="112.0" />
<line x1="321.9" y1="0.0" x2="321.9" y2="104.0" />
<line x1="325.9" y1="0.0" x2="325.9" y2="97.0" />
<line x1="329.9" y1="0.0" x2="329.9" y2="90.0" />
<line x1="333.9" y1="0.0" x2="333.9" y2="83.0" />
<line x1="337.9" y1="0.0" x2="337.9" y2="67.0" />
<line x1="341.9" y1="0.0" x2="341.9" y2="62.0" />
<line x1="345.9" y1="0.0" x2="345.9" y2="45.0" />
<line x1="349.9" y1="0.0" x2="349.9" y2="57.0" />
<line x1="353.9" y1="0.0" x2="353.9" y2="41.0" />
<line x1="357.9" y1="0.0" x2="357.9" y2="47.0" />
<line x1="361.9" y1="0.0" x2="361.9" y2="33.0" />
<line x1="365.9" y1="0.0" x2="365.9" y2="23.0" />
<line x1="369.9" y1="0.0" x2="369.9" y2="17.0" />
<line x1="373.9" y1="0.0" x2="373.9" y2="3.0" />
<line x1="377.9" y1="0.0" x2="377.9" y2="7.0" />
</g>
</svg>