<svg xmlns="http://www.w3.org/2000/svg" width="161.8" height="100.0" viewBox="-3.43 23.57 171.80 110.00">
<g fill="none" stroke="black" stroke-width="0.0350%" transform="translate(0, 157.1429) scale(14.2857, -14.2857)">
<polyline points="0.11,2.00 0.22,2.00 0.22,2.00 0.33,2.00 0.33,3.00 0.44,3.00 0.44,3.00 0.55,3.00 0.55,3.00 0.66,3.00 0.66,2.00 0.77,2.00 0.77,3.00 0.88,3.00 0.88,4.00 0.99,4.00 0.99,4.00 1.10,4.00 1.10,5.00 1.21,5.00 1.21,4.00 1.32,4.00 1.32,4.00 1.43,4.00 1.43,4.00 1.54,4.00 1.54,5.00 1.65,5.00 1.65,4.00 1.76,4.00 1.76,4.00 1.87,4.00 1.87,2.00 1.98,2.00 1.98,3.00 2.09,3.00 2.09,4.00 2.20,4.00 2.20,4.00 2.31,4.00 2.31,5.00 2.42,5.00 2.42,5.00 2.53,5.00 2.53,5.00 2.64,5.00 2.64,4.00 2.75,4.00 2.75,5.00 2.86,5.00 2.86,6.00 2.97,6.00 2.97,6.00 3.08,6.00 3.08,7.00 3.19,7.00 3.19,5.00 3.30,5.00 3.30,5.00 3.41,5.00 3.41,5.00 3.52,5.00 3.52,6.00 3.63,6.00 3.63,5.00 3.74,5.00 3.74,5.00 3.85,5.00 3.85,4.00 3.96,4.00 3.96,5.00 4.07,5.00 4.07,6.00 4.18,6.00 4.18,6.00 4.29,6.00 4.29,7.00 4.40,7.00 4.40,5.00 4.51,5.00 4.51,5.00 4.62,5.00 4.62,5.00 4.73,5.00 4.73,6.00 4.84,6.00 4.84,5.00 4.95,5.00 4.95,5.00 5.06,5.00 5.06,2.00 5.17,2.00 5.17,3.00 5.28,3.00 5.28,4.00 5.39,4.00 5.39,4.00 5.50,4.00 5.50,5.00 5.61,5.00 5.61,5.00 5.72,5.00 5.72,5.00 5.83,5.00 5.83,4.00 5.94,4.00 5.94,5.00 6.05,5.00 6.05,6.00 6.16,6.00 6.16,6.00 6.27,6.00 6.27,7.00 6.38,7.00 6.38,6.00 6.49,6.00 6.49,6.00 6.60,6.00 6.60,6.00 6.71,6.00 6.71,7.00 6.82,7.00 6.82,6.00 6.93,6.00 6.93,6.00 7.04,6.00 7.04,4.00 7.15,4.00 7.15,5.00 7.26,5.00 7.26,6.00 7.37,6.00 7.37,6.00 7.48,6.00 7.48,7.00 7.59,7.00 7.59,7.00 7.70,7.00 7.70,7.00 7.81,7.00 7.81,6.00 7.92,6.00 7.92,7.00 8.03,7.00 8.03,8.00 8.14,8.00 8.14,8.00 8.25,8.00 8.25,9.00 8.36,9.00 8.36,6.00 8.47,6.00 8.47,6.00 8.58,6.00 8.58,6.00 8.69,6.00 8.69,7.00 8.80,7.00 8.80,6.00 8.91,6.00 8.91,6.00 9.02,6.00 9.02,5.00 9.13,5.00 9.13,6.00 9.24,6.00 9.24,7.00 9.35,7.00 9.35,7.00 9.46,7.00 9.46,8.00 9.57,8.00 9.57,6.00 9.68,6.00 9.68,6.00 9.79,6.00 9.79,6.00 9.90,6.00 9.90,7.00 10.01,7.00 10.01,6.00 10.12,6.00 10.12,6.00 10.23,6.00 10.23,4.00 10.34,4.00 10.34,5.00 10.45,5.00 10.45,6.00 10.56,6.00 10.56,6.00 10.67,6.00 10.67,7.00 10.78,7.00 10.78,7.00 10.89,7.00 10.89,7.00 11.00,7.00 11.00,6.00 11.11,6.00 11.11,7.00 11.22,7.00 11.22,8.00 11.33,8.00 11.33,8.00 11.44,8.00" />
</g>
</svg>