<svg xmlns="http://www.w3.org/2000/svg" width="100.0" height="100.0" viewBox="-5.000 -5.000 110.000 110.000">
<g fill="none" stroke="black" stroke-width="0.0050%" transform="translate(0, 100.0000) scale(100.0000, -100.0000)">
<circle cx="0.000" cy="0.000" r="0.005" />
<circle cx="0.000" cy="1.000" r="0.005" />
<polyline points="0.000,0.000 0.010,0.000 0.020,0.000 0.030,0.000 0.040,0.000 0.050,0.000 0.060,0.000 0.070,0.000 0.080,0.001 0.090,0.001 0.100,0.001 0.110,0.001 0.120,0.002 0.130,0.002 0.140,0.003 0.150,0.003 0.160,0.004 0.170,0.005 0.180,0.006 0.190,0.007 0.200,0.008 0.210,0.009 0.220,0.011 0.230,0.012 0.240,0.014 0.250,0.016 0.260,0.018 0.270,0.020 0.280,0.022 0.290,0.024 0.300,0.027 0.310,0.030 0.320,0.033 0.330,0.036 0.340,0.039 0.350,0.043 0.360,0.047 0.370,0.051 0.380,0.055 0.390,0.059 0.400,0.064 0.410,0.069 0.420,0.074 0.430,0.080 0.440,0.085 0.450,0.091 0.460,0.097 0.470,0.104 0.480,0.111 0.490,0.118 0.500,0.125 0.510,0.133 0.520,0.141 0.530,0.149 0.540,0.157 0.550,0.166 0.560,0.176 0.570,0.185 0.580,0.195 0.590,0.205 0.600,0.216 0.610,0.227 0.620,0.238 0.630,0.250 0.640,0.262 0.650,0.275 0.660,0.287 0.670,0.301 0.680,0.314 0.690,0.329 0.700,0.343 0.710,0.358 0.720,0.373 0.730,0.389 0.740,0.405 0.750,0.422 0.760,0.439 0.770,0.457 0.780,0.475 0.790,0.493 0.800,0.512 0.810,0.531 0.820,0.551 0.830,0.572 0.840,0.593 0.850,0.614 0.860,0.636 0.870,0.659 0.880,0.681 0.890,0.705 0.900,0.729 0.910,0.754 0.920,0.779 0.930,0.804 0.940,0.831 0.950,0.857 0.960,0.885 0.970,0.913 0.980,0.941 0.990,0.970 1.000,1.000" />
</g>
</svg>