<svg xmlns="http://www.w3.org/2000/svg" width="161.8" height="100.0" viewBox="-5.00 13.93 171.80 110.00">
<g fill="none" stroke="black" stroke-width="0.0168%" transform="translate(0, 137.8560) scale(29.7320, -29.7320)">
<polyline points="0.00,4.00 0.05,3.20 0.11,2.27 0.16,1.87 0.22,1.62 0.27,1.46 0.33,1.34 0.38,1.25 0.44,1.17 0.49,1.11 0.54,1.06 0.60,1.02 0.65,0.98 0.71,0.95 0.76,0.92 0.82,0.89 0.87,0.87 0.93,0.85 0.98,0.83 1.03,0.81 1.09,0.80 1.14,0.78 1.20,0.77 1.25,0.76 1.31,0.75 1.36,0.74 1.41,0.73 1.47,0.72 1.52,0.71 1.58,0.70 1.63,0.69 1.69,0.69 1.74,0.68 1.80,0.68 1.85,0.67 1.90,0.67 1.96,0.66 2.01,0.66 2.07,0.66 2.12,0.65 2.18,0.65 2.23,0.65 2.29,0.64 2.34,0.64 2.39,0.64 2.45,0.64 2.50,0.64 2.56,0.64 2.61,0.64 2.67,0.64 2.72,0.64 2.78,0.64 2.83,0.64 2.88,0.64 2.94,0.64 2.99,0.64 3.05,0.64 3.10,0.64 3.16,0.64 3.21,0.65 3.27,0.65 3.32,0.65 3.37,0.66 3.43,0.66 3.48,0.66 3.54,0.67 3.59,0.67 3.65,0.68 3.70,0.68 3.76,0.69 3.81,0.69 3.86,0.70 3.92,0.71 3.97,0.72 4.03,0.73 4.08,0.74 4.14,0.75 4.19,0.76 4.24,0.77 4.30,0.78 4.35,0.80 4.41,0.81 4.46,0.83 4.52,0.85 4.57,0.87 4.63,0.89 4.68,0.92 4.73,0.95 4.79,0.98 4.84,1.02 4.90,1.06 4.95,1.11 5.01,1.17 5.06,1.25 5.12,1.34 5.17,1.46 5.22,1.62 5.28,1.87 5.33,2.27 5.39,3.20 5.44,4.00" />
</g>
</svg>