<svg xmlns="http://www.w3.org/2000/svg" width="161.8" height="100.0" viewBox="-3.6 -2.4 171.8 110.0">
<g fill="none" stroke="black" stroke-width="0.2015%" transform="translate(0, 105.2933) scale(2.4812, -2.4812)">
<polyline points="0.5,41.4 1.2,19.6 1.9,13.2 2.5,10.1 3.2,8.2 3.8,7.0 4.5,6.2 5.1,5.5 5.8,5.0 6.4,4.6 7.1,4.3 7.7,4.0 8.4,3.8 9.0,3.6 9.7,3.4 10.3,3.3 11.0,3.1 11.6,3.0 12.3,2.9 12.9,2.8 13.6,2.7 14.2,2.6 14.9,2.6 15.5,2.5 16.2,2.4 16.9,2.4 17.5,2.3 18.2,2.2 18.8,2.2 19.5,2.2 20.1,2.1 20.8,2.1 21.4,2.0 22.1,2.0 22.7,2.0 23.4,1.9 24.0,1.9 24.7,1.9 25.3,1.8 26.0,1.8 26.6,1.8 27.3,1.8 27.9,1.7 28.6,1.7 29.2,1.7 29.9,1.7 30.5,1.6 31.2,1.6 31.8,1.6 32.5,1.6 33.2,1.6 33.8,1.5 34.5,1.5 35.1,1.5 35.8,1.5 36.4,1.5 37.1,1.5 37.7,1.5 38.4,1.4 39.0,1.4 39.7,1.4 40.3,1.4 41.0,1.4 41.6,1.4 42.3,1.4 42.9,1.3 43.6,1.3 44.2,1.3 44.9,1.3 45.5,1.3 46.2,1.3 46.8,1.3 47.5,1.3 48.2,1.3 48.8,1.3 49.5,1.2 50.1,1.2 50.8,1.2 51.4,1.2 52.1,1.2 52.7,1.2 53.4,1.2 54.0,1.2 54.7,1.2 55.3,1.2 56.0,1.2 56.6,1.2 57.3,1.1 57.9,1.1 58.6,1.1 59.2,1.1 59.9,1.1 60.5,1.1 61.2,1.1 61.8,1.1 62.5,1.1 63.2,1.1 63.8,1.1 64.5,1.1 65.1,1.1 65.8,1.1" />
</g>
</svg>