<svg xmlns="http://www.w3.org/2000/svg" width="150.2" height="100.0" viewBox="-3.21 -5.00 160.25 110.00">
<g fill="none" stroke="black" stroke-width="0.0700%" transform="translate(0, 100.0000) scale(7.1429, -7.1429)">
<line x1="0.25" y1="0.00" x2="0.25" y2="2.00" />
<line x1="0.50" y1="0.00" x2="0.50" y2="5.00" />
<line x1="0.75" y1="0.00" x2="0.75" y2="2.00" />
<line x1="1.00" y1="0.00" x2="1.00" y2="2.00" />
<line x1="1.25" y1="0.00" x2="1.25" y2="1.00" />
<line x1="1.50" y1="0.00" x2="1.50" y2="9.00" />
<line x1="1.75" y1="0.00" x2="1.75" y2="6.00" />
<line x1="2.00" y1="0.00" x2="2.00" y2="4.00" />
<line x1="2.25" y1="0.00" x2="2.25" y2="6.00" />
<line x1="2.50" y1="0.00" x2="2.50" y2="2.00" />
<line x1="2.75" y1="0.00" x2="2.75" y2="2.00" />
<line x1="3.00" y1="0.00" x2="3.00" y2="1.00" />
<line x1="3.26" y1="0.00" x2="3.26" y2="11.00" />
<line x1="3.51" y1="0.00" x2="3.51" y2="3.00" />
<line x1="3.76" y1="0.00" x2="3.76" y2="2.00" />
<line x1="4.01" y1="0.00" x2="4.01" y2="7.00" />
<line x1="4.26" y1="0.00" x2="4.26" y2="2.00" />
<line x1="4.51" y1="0.00" x2="4.51" y2="5.00" />
<line x1="4.76" y1="0.00" x2="4.76" y2="4.00" />
<line x1="5.01" y1="0.00" x2="5.01" y2="6.00" />
<line x1="5.26" y1="0.00" x2="5.26" y2="3.00" />
<line x1="5.51" y1="0.00" x2="5.51" y2="3.00" />
<line x1="5.76" y1="0.00" x2="5.76" y2="5.00" />
<line x1="6.01" y1="0.00" x2="6.01" y2="2.00" />
<line x1="6.26" y1="0.00" x2="6.26" y2="4.00" />
<line x1="6.51" y1="0.00" x2="6.51" y2="7.00" />
<line x1="6.76" y1="0.00" x2="6.76" y2="7.00" />
<line x1="7.01" y1="0.00" x2="7.01" y2="2.00" />
<line x1="7.26" y1="0.00" x2="7.26" y2="5.00" />
<line x1="7.51" y1="0.00" x2="7.51" y2="3.00" />
<line x1="7.76" y1="0.00" x2="7.76" y2="4.00" />
<line x1="8.01" y1="0.00" x2="8.01" y2="2.00" />
<line x1="8.26" y1="0.00" x2="8.26" y2="3.00" />
<line x1="8.51" y1="0.00" x2="8.51" y2="5.00" />
<line x1="8.76" y1="0.00" x2="8.76" y2="5.00" />
<line x1="9.01" y1="0.00" x2="9.01" y2="2.00" />
<line x1="9.27" y1="0.00" x2="9.27" y2="2.00" />
<line x1="9.52" y1="0.00" x2="9.52" y2="2.00" />
<line x1="9.77" y1="0.00" x2="9.77" y2="2.00" />
<line x1="10.02" y1="0.00" x2="10.02" y2="4.00" />
<line x1="10.27" y1="0.00" x2="10.27" y2="3.00" />
<line x1="10.52" y1="0.00" x2="10.52" y2="10.00" />
<line x1="10.77" y1="0.00" x2="10.77" y2="5.00" />
<line x1="11.02" y1="0.00" x2="11.02" y2="5.00" />
<line x1="11.27" y1="0.00" x2="11.27" y2="2.00" />
<line x1="11.52" y1="0.00" x2="11.52" y2="1.00" />
<line x1="11.77" y1="0.00" x2="11.77" y2="6.00" />
<line x1="12.02" y1="0.00" x2="12.02" y2="1.00" />
<line x1="12.27" y1="0.00" x2="12.27" y2="5.00" />
<line x1="12.52" y1="0.00" x2="12.52" y2="2.00" />
<line x1="12.77" y1="0.00" x2="12.77" y2="3.00" />
<line x1="13.02" y1="0.00" x2="13.02" y2="2.00" />
<line x1="13.27" y1="0.00" x2="13.27" y2="3.00" />
<line x1="13.52" y1="0.00" x2="13.52" y2="3.00" />
<line x1="13.77" y1="0.00" x2="13.77" y2="2.00" />
<line x1="14.02" y1="0.00" x2="14.02" y2="9.00" />
<line x1="14.27" y1="0.00" x2="14.27" y2="6.00" />
<line x1="14.52" y1="0.00" x2="14.52" y2="9.00" />
<line x1="14.77" y1="0.00" x2="14.77" y2="6.00" />
<line x1="15.02" y1="0.00" x2="15.02" y2="8.00" />
<line x1="15.28" y1="0.00" x2="15.28" y2="2.00" />
<line x1="15.53" y1="0.00" x2="15.53" y2="7.00" />
<line x1="15.78" y1="0.00" x2="15.78" y2="5.00" />
<line x1="16.03" y1="0.00" x2="16.03" y2="3.00" />
<line x1="16.28" y1="0.00" x2="16.28" y2="2.00" />
<line x1="16.53" y1="0.00" x2="16.53" y2="2.00" />
<line x1="16.78" y1="0.00" x2="16.78" y2="4.00" />
<line x1="17.03" y1="0.00" x2="17.03" y2="3.00" />
<line x1="17.28" y1="0.00" x2="17.28" y2="1.00" />
<line x1="17.53" y1="0.00" x2="17.53" y2="14.00" />
<line x1="17.78" y1="0.00" x2="17.78" y2="9.00" />
<line x1="18.03" y1="0.00" x2="18.03" y2="3.00" />
<line x1="18.28" y1="0.00" x2="18.28" y2="6.00" />
<line x1="18.53" y1="0.00" x2="18.53" y2="7.00" />
<line x1="18.78" y1="0.00" x2="18.78" y2="3.00" />
<line x1="19.03" y1="0.00" x2="19.03" y2="2.00" />
<line x1="19.28" y1="0.00" x2="19.28" y2="2.00" />
<line x1="19.53" y1="0.00" x2="19.53" y2="3.00" />
<line x1="19.78" y1="0.00" x2="19.78" y2="4.00" />
<line x1="20.03" y1="0.00" x2="20.03" y2="3.00" />
<line x1="20.28" y1="0.00" x2="20.28" y2="2.00" />
<line x1="20.53" y1="0.00" x2="20.53" y2="6.00" />
<line x1="20.78" y1="0.00" x2="20.78" y2="4.00" />
<line x1="21.03" y1="0.00" x2="21.03" y2="2.00" />
<line x1="21.28" y1="0.00" x2="21.28" y2="2.00" />
</g>
</svg>