<svg xmlns="http://www.w3.org/2000/svg" width="75.0" height="100.0" viewBox="-5.00 -42.50 85.00 110.00">
<g fill="none" stroke="black" stroke-width="0.0200%" transform="translate(0, 25.0000) scale(25.0000, -25.0000)">
<polyline points="0.00,0.00 0.10,1.50 1.00,0.50 2.00,-1.00 2.90,1.50 3.00,0.00" />
<polyline points="0.00,0.00 0.01,0.07 0.01,0.14 0.02,0.20 0.03,0.26 0.04,0.32 0.06,0.36 0.07,0.41 0.09,0.45 0.10,0.49 0.12,0.52 0.14,0.55 0.16,0.58 0.19,0.60 0.21,0.62 0.23,0.64 0.26,0.65 0.28,0.66 0.31,0.67 0.34,0.67 0.37,0.68 0.40,0.68 0.43,0.67 0.46,0.67 0.49,0.67 0.52,0.66 0.56,0.65 0.59,0.64 0.63,0.63 0.66,0.62 0.70,0.60 0.74,0.59 0.77,0.58 0.81,0.56 0.85,0.54 0.89,0.53 0.93,0.51 0.97,0.50 1.01,0.48 1.05,0.46 1.09,0.45 1.13,0.43 1.17,0.41 1.21,0.40 1.25,0.38 1.29,0.37 1.33,0.36 1.37,0.34 1.42,0.33 1.46,0.32 1.50,0.31 1.54,0.30 1.58,0.30 1.63,0.29 1.67,0.28 1.71,0.28 1.75,0.28 1.79,0.27 1.83,0.27 1.87,0.27 1.91,0.27 1.95,0.28 1.99,0.28 2.03,0.28 2.07,0.29 2.11,0.30 2.15,0.30 2.19,0.31 2.23,0.32 2.26,0.33 2.30,0.34 2.34,0.35 2.37,0.36 2.41,0.37 2.44,0.38 2.48,0.40 2.51,0.41 2.54,0.42 2.57,0.43 2.60,0.44 2.63,0.44 2.66,0.45 2.69,0.46 2.72,0.46 2.74,0.46 2.77,0.46 2.79,0.46 2.81,0.46 2.84,0.45 2.86,0.44 2.88,0.42 2.90,0.41 2.91,0.38 2.93,0.35 2.94,0.32 2.96,0.28 2.97,0.24 2.98,0.19 2.99,0.13 2.99,0.07 3.00,0.00" />
<polyline points="0.10,1.50 0.90,-1.00 1.00,-1.50 0.90,2.50 0.10,-1.50" />
<polyline points="0.10,1.50 0.13,1.40 0.16,1.30 0.19,1.21 0.22,1.12 0.25,1.03 0.28,0.95 0.30,0.86 0.33,0.78 0.36,0.70 0.38,0.63 0.40,0.56 0.43,0.49 0.45,0.42 0.47,0.36 0.49,0.30 0.51,0.24 0.53,0.18 0.55,0.13 0.57,0.08 0.59,0.04 0.60,-0.01 0.62,-0.05 0.64,-0.09 0.65,-0.12 0.66,-0.15 0.68,-0.18 0.69,-0.21 0.70,-0.23 0.72,-0.25 0.73,-0.27 0.74,-0.29 0.75,-0.30 0.76,-0.31 0.77,-0.32 0.78,-0.33 0.78,-0.33 0.79,-0.33 0.80,-0.33 0.80,-0.33 0.81,-0.32 0.82,-0.32 0.82,-0.31 0.82,-0.30 0.83,-0.29 0.83,-0.27 0.83,-0.26 0.84,-0.24 0.84,-0.23 0.84,-0.21 0.84,-0.19 0.84,-0.17 0.84,-0.15 0.84,-0.12 0.83,-0.10 0.83,-0.08 0.83,-0.06 0.82,-0.03 0.82,-0.01 0.82,0.01 0.81,0.04 0.80,0.06 0.80,0.08 0.79,0.10 0.78,0.12 0.78,0.14 0.77,0.16 0.76,0.17 0.75,0.19 0.74,0.20 0.73,0.21 0.72,0.22 0.70,0.22 0.69,0.23 0.68,0.23 0.66,0.22 0.65,0.22 0.64,0.21 0.62,0.19 0.60,0.18 0.59,0.16 0.57,0.13 0.55,0.10 0.53,0.07 0.51,0.03 0.49,-0.02 0.47,-0.07 0.45,-0.13 0.43,-0.19 0.40,-0.26 0.38,-0.33 0.36,-0.41 0.33,-0.50 0.30,-0.60 0.28,-0.70 0.25,-0.81 0.22,-0.93 0.19,-1.06 0.16,-1.20 0.13,-1.34 0.10,-1.50" />
</g>
</svg>