<svg xmlns="http://www.w3.org/2000/svg" width="84.1" height="100.0" viewBox="6.4 8.6 94.1 110.0">
<g fill="none" stroke="black" stroke-width="1.1000%" transform="translate(0, 127.2727) scale(0.4545, -0.4545)">
<path d="M 110.0,150.0 C 25.0,190.0 210.0,250.0 210.0,30.0" />
<polyline points="110.0,150.0 25.0,190.0 210.0,250.0 210.0,30.0" />
<circle cx="110.0" cy="150.0" r="1.1" />
<circle cx="25.0" cy="190.0" r="1.1" />
<circle cx="210.0" cy="250.0" r="1.1" />
<circle cx="210.0" cy="30.0" r="1.1" />
<polyline points="110.0,150.0 108.7,150.6 107.4,151.3 106.2,151.9 105.0,152.5 103.9,153.2 102.8,153.8 101.7,154.5 100.7,155.1 99.7,155.8 98.8,156.4 97.9,157.1 97.1,157.7 96.3,158.4 95.5,159.0 94.7,159.6 94.1,160.3 93.4,160.9 92.8,161.6 92.2,162.2 91.7,162.9 91.2,163.5 90.7,164.2 90.2,164.8 89.8,165.4 89.5,166.1 89.1,166.7 88.9,167.3 88.6,167.9 88.4,168.6 88.2,169.2 88.0,169.8 87.9,170.4 87.8,171.0 87.7,171.6 87.7,172.2 87.7,172.7 87.7,173.3 87.7,173.9 87.8,174.5 87.9,175.0 88.1,175.6 88.3,176.1 88.5,176.6 88.7,177.2 88.9,177.7 89.2,178.2 89.5,178.7 89.9,179.2 90.2,179.7 90.6,180.1 91.0,180.6 91.4,181.1 91.9,181.5 92.4,181.9 92.9,182.4 93.4,182.8 93.9,183.2 94.5,183.6 95.1,184.0 95.7,184.3 96.4,184.7 97.0,185.0 97.7,185.3 98.4,185.7 99.1,186.0 99.8,186.3 100.6,186.5 101.4,186.8 102.1,187.0 102.9,187.3 103.8,187.5 104.6,187.7 105.5,187.9 106.3,188.1 107.2,188.2 108.1,188.3 109.0,188.5 110.0,188.6 110.9,188.7 111.9,188.7 112.8,188.8 113.8,188.8 114.8,188.9 115.8,188.9 116.8,188.8 117.9,188.8 118.9,188.8 120.0,188.7 121.0,188.6 122.1,188.5 123.2,188.3 124.3,188.2 125.4,188.0 126.5,187.8 127.6,187.6 128.7,187.4 129.8,187.1 130.9,186.8 132.1,186.5 133.2,186.2 134.4,185.9 135.5,185.5 136.7,185.1 137.8,184.7 139.0,184.3 140.2,183.8 141.4,183.3 142.5,182.8 143.7,182.3 144.9,181.7 146.1,181.1 147.2,180.5 148.4,179.9 149.6,179.2 150.8,178.5 152.0,177.8 153.2,177.1 154.3,176.3 155.5,175.5 156.7,174.7 157.9,173.8 159.0,172.9 160.2,172.0 161.3,171.1 162.5,170.1 163.7,169.1 164.8,168.1 165.9,167.1 167.1,166.0 168.2,164.9 169.3,163.7 170.5,162.6 171.6,161.4 172.7,160.1 173.8,158.9 174.8,157.6 175.9,156.2 177.0,154.9 178.0,153.5 179.1,152.1 180.1,150.6 181.2,149.1 182.2,147.6 183.2,146.0 184.2,144.4 185.1,142.8 186.1,141.1 187.1,139.4 188.0,137.7 188.9,135.9 189.8,134.1 190.7,132.3 191.6,130.4 192.5,128.5 193.3,126.6 194.2,124.6 195.0,122.6 195.8,120.5 196.6,118.4 197.3,116.3 198.1,114.1 198.8,111.9 199.5,109.6 200.2,107.4 200.9,105.0 201.5,102.7 202.1,100.3 202.7,97.8 203.3,95.3 203.9,92.8 204.4,90.2 205.0,87.6 205.5,85.0 205.9,82.3 206.4,79.6 206.8,76.8 207.2,74.0 207.6,71.1 207.9,68.2 208.2,65.3 208.5,62.3 208.8,59.3 209.1,56.2 209.3,53.1 209.5,49.9 209.6,46.7 209.8,43.5 209.9,40.2 209.9,36.8 210.0,33.4 210.0,30.0" />
</g>
</svg>