<svg xmlns="http://www.w3.org/2000/svg" width="100.0" height="100.0" viewBox="-5.000 -5.000 110.000 110.000">
<g fill="none" stroke="black" stroke-width="0.0050%" transform="translate(0, 100.0000) scale(100.0000, -100.0000)">
<circle cx="0.000" cy="0.000" r="0.005" />
<circle cx="0.000" cy="1.000" r="0.005" />
<polyline points="0.000,0.000 0.005,0.016 0.010,0.031 0.016,0.046 0.021,0.060 0.026,0.074 0.031,0.088 0.037,0.101 0.042,0.114 0.047,0.126 0.052,0.139 0.058,0.150 0.063,0.162 0.068,0.173 0.073,0.184 0.079,0.194 0.084,0.204 0.089,0.214 0.094,0.223 0.099,0.232 0.105,0.241 0.110,0.249 0.115,0.257 0.120,0.265 0.126,0.273 0.131,0.280 0.136,0.287 0.141,0.293 0.147,0.299 0.152,0.306 0.157,0.311 0.162,0.317 0.168,0.322 0.173,0.327 0.178,0.332 0.183,0.336 0.188,0.340 0.194,0.345 0.199,0.348 0.204,0.352 0.209,0.355 0.215,0.359 0.220,0.362 0.225,0.365 0.230,0.367 0.236,0.370 0.241,0.372 0.246,0.375 0.251,0.377 0.257,0.379 0.262,0.381 0.267,0.384 0.272,0.386 0.277,0.388 0.283,0.390 0.288,0.392 0.293,0.395 0.298,0.397 0.304,0.400 0.309,0.402 0.314,0.405 0.319,0.407 0.325,0.410 0.330,0.413 0.335,0.416 0.340,0.419 0.346,0.423 0.351,0.426 0.356,0.430 0.361,0.433 0.366,0.437 0.372,0.441 0.377,0.445 0.382,0.449 0.387,0.453 0.393,0.457 0.398,0.461 0.403,0.466 0.408,0.470 0.414,0.475 0.419,0.479 0.424,0.484 0.429,0.489 0.435,0.493 0.440,0.498 0.445,0.503 0.450,0.508 0.455,0.513 0.461,0.518 0.466,0.524 0.471,0.529 0.476,0.534 0.482,0.539 0.487,0.545 0.492,0.550 0.497,0.555 0.503,0.561 0.508,0.566 0.513,0.572 0.518,0.577 0.524,0.582 0.529,0.588 0.534,0.593 0.539,0.599 0.545,0.604 0.550,0.610 0.555,0.615 0.560,0.620 0.565,0.626 0.571,0.631 0.576,0.636 0.581,0.642 0.586,0.647 0.592,0.652 0.597,0.657 0.602,0.662 0.607,0.667 0.613,0.672 0.618,0.677 0.623,0.682 0.628,0.687 0.634,0.691 0.639,0.696 0.644,0.700 0.649,0.705 0.654,0.709 0.660,0.713 0.665,0.718 0.670,0.722 0.675,0.726 0.681,0.729 0.686,0.733 0.691,0.737 0.696,0.740 0.702,0.744 0.707,0.747 0.712,0.750 0.717,0.753 0.723,0.756 0.728,0.759 0.733,0.762 0.738,0.764 0.743,0.767 0.749,0.769 0.754,0.771 0.759,0.773 0.764,0.775 0.770,0.777 0.775,0.779 0.780,0.780 0.785,0.782 0.791,0.784 0.796,0.785 0.801,0.787 0.806,0.788 0.812,0.790 0.817,0.792 0.822,0.793 0.827,0.795 0.832,0.798 0.838,0.800 0.843,0.802 0.848,0.805 0.853,0.808 0.859,0.811 0.864,0.815 0.869,0.818 0.874,0.822 0.880,0.826 0.885,0.830 0.890,0.835 0.895,0.840 0.901,0.845 0.906,0.850 0.911,0.856 0.916,0.862 0.921,0.868 0.927,0.875 0.932,0.882 0.937,0.889 0.942,0.896 0.948,0.904 0.953,0.912 0.958,0.921 0.963,0.929 0.969,0.938 0.974,0.948 0.979,0.958 0.984,0.968 0.990,0.978 0.995,0.989 1.000,1.000" />
</g>
</svg>