<svg xmlns="http://www.w3.org/2000/svg" width="161.8" height="100.0" viewBox="-3.37 14.97 171.80 110.00">
<g fill="none" stroke="black" stroke-width="0.0272%" transform="translate(0, 139.9414) scale(18.4102, -18.4102)">
<polyline points="0.09,2.75 0.18,2.61 0.27,2.48 0.36,2.35 0.44,2.22 0.53,2.10 0.62,1.99 0.71,1.88 0.80,1.77 0.89,1.68 0.98,1.58 1.07,1.50 1.15,1.42 1.24,1.35 1.33,1.28 1.42,1.23 1.51,1.18 1.60,1.14 1.69,1.11 1.78,1.10 1.86,1.09 1.95,1.08 2.04,1.09 2.13,1.11 2.22,1.13 2.31,1.15 2.40,1.18 2.49,1.22 2.57,1.26 2.66,1.30 2.75,1.34 2.84,1.38 2.93,1.42 3.02,1.47 3.11,1.51 3.20,1.56 3.28,1.61 3.37,1.65 3.46,1.70 3.55,1.74 3.64,1.78 3.73,1.83 3.82,1.87 3.91,1.91 3.99,1.96 4.08,2.00 4.17,2.04 4.26,2.08 4.35,2.12 4.44,2.16 4.53,2.20 4.62,2.25 4.71,2.29 4.79,2.33 4.88,2.37 4.97,2.41 5.06,2.46 5.15,2.50 5.24,2.54 5.33,2.59 5.42,2.64 5.50,2.69 5.59,2.74 5.68,2.79 5.77,2.84 5.86,2.89 5.95,2.95 6.04,3.01 6.13,3.07 6.21,3.13 6.30,3.20 6.39,3.27 6.48,3.34 6.57,3.41 6.66,3.49 6.75,3.57 6.84,3.65 6.92,3.74 7.01,3.83 7.10,3.92 7.19,4.02 7.28,4.12 7.37,4.22 7.46,4.33 7.55,4.44 7.63,4.55 7.72,4.67 7.81,4.79 7.90,4.91 7.99,5.04 8.08,5.17 8.17,5.30 8.26,5.44 8.34,5.59 8.43,5.73 8.52,5.88 8.61,6.03 8.70,6.19 8.79,6.35 8.88,6.52" />
</g>
</svg>