<svg xmlns="http://www.w3.org/2000/svg" width="130.0" height="100.0" viewBox="-5.000 -55.000 139.962 110.000">
<g fill="none" stroke="black" stroke-width="0.0115%" transform="translate(0, 0.0000) scale(43.3207, -43.3207)">
<circle cx="0.000" cy="0.000" r="0.012" />
<circle cx="0.048" cy="0.182" r="0.012" />
<circle cx="0.095" cy="0.345" r="0.012" />
<circle cx="0.143" cy="0.492" r="0.012" />
<circle cx="0.190" cy="0.623" r="0.012" />
<circle cx="0.238" cy="0.738" r="0.012" />
<circle cx="0.286" cy="0.837" r="0.012" />
<circle cx="0.333" cy="0.922" r="0.012" />
<circle cx="0.381" cy="0.992" r="0.012" />
<circle cx="0.429" cy="1.050" r="0.012" />
<circle cx="0.476" cy="1.094" r="0.012" />
<circle cx="0.524" cy="1.125" r="0.012" />
<circle cx="0.571" cy="1.145" r="0.012" />
<circle cx="0.619" cy="1.154" r="0.012" />
<circle cx="0.667" cy="1.152" r="0.012" />
<circle cx="0.714" cy="1.140" r="0.012" />
<circle cx="0.762" cy="1.119" r="0.012" />
<circle cx="0.810" cy="1.088" r="0.012" />
<circle cx="0.857" cy="1.050" r="0.012" />
<circle cx="0.905" cy="1.003" r="0.012" />
<circle cx="0.952" cy="0.949" r="0.012" />
<circle cx="1.000" cy="0.889" r="0.012" />
<circle cx="1.048" cy="0.822" r="0.012" />
<circle cx="1.095" cy="0.751" r="0.012" />
<circle cx="1.143" cy="0.674" r="0.012" />
<circle cx="1.190" cy="0.593" r="0.012" />
<circle cx="1.238" cy="0.508" r="0.012" />
<circle cx="1.286" cy="0.420" r="0.012" />
<circle cx="1.333" cy="0.329" r="0.012" />
<circle cx="1.381" cy="0.237" r="0.012" />
<circle cx="1.429" cy="0.143" r="0.012" />
<circle cx="1.476" cy="0.048" r="0.012" />
<circle cx="1.524" cy="-0.048" r="0.012" />
<circle cx="1.571" cy="-0.143" r="0.012" />
<circle cx="1.619" cy="-0.237" r="0.012" />
<circle cx="1.667" cy="-0.329" r="0.012" />
<circle cx="1.714" cy="-0.420" r="0.012" />
<circle cx="1.762" cy="-0.508" r="0.012" />
<circle cx="1.810" cy="-0.593" r="0.012" />
<circle cx="1.857" cy="-0.674" r="0.012" />
<circle cx="1.905" cy="-0.751" r="0.012" />
<circle cx="1.952" cy="-0.822" r="0.012" />
<circle cx="2.000" cy="-0.889" r="0.012" />
<circle cx="2.048" cy="-0.949" r="0.012" />
<circle cx="2.095" cy="-1.003" r="0.012" />
<circle cx="2.143" cy="-1.050" r="0.012" />
<circle cx="2.190" cy="-1.088" r="0.012" />
<circle cx="2.238" cy="-1.119" r="0.012" />
<circle cx="2.286" cy="-1.140" r="0.012" />
<circle cx="2.333" cy="-1.152" r="0.012" />
<circle cx="2.381" cy="-1.154" r="0.012" />
<circle cx="2.429" cy="-1.145" r="0.012" />
<circle cx="2.476" cy="-1.125" r="0.012" />
<circle cx="2.524" cy="-1.094" r="0.012" />
<circle cx="2.571" cy="-1.050" r="0.012" />
<circle cx="2.619" cy="-0.992" r="0.012" />
<circle cx="2.667" cy="-0.922" r="0.012" />
<circle cx="2.714" cy="-0.837" r="0.012" />
<circle cx="2.762" cy="-0.738" r="0.012" />
<circle cx="2.810" cy="-0.623" r="0.012" />
<circle cx="2.857" cy="-0.492" r="0.012" />
<circle cx="2.905" cy="-0.345" r="0.012" />
<circle cx="2.952" cy="-0.182" r="0.012" />
<circle cx="3.000" cy="0.000" r="0.012" />
</g>
</svg>