<svg xmlns="http://www.w3.org/2000/svg" width="239.5" height="100.0" viewBox="-5.000 -15.027 249.550 110.000">
<g fill="none" stroke="black" stroke-width="0.0144%" transform="translate(0, 79.9454) scale(34.7677, -34.7677)">
<circle cx="0.000" cy="0.000" r="0.014" />
<circle cx="0.126" cy="0.110" r="0.014" />
<circle cx="0.251" cy="0.192" r="0.014" />
<circle cx="0.377" cy="0.247" r="0.014" />
<circle cx="0.503" cy="0.278" r="0.014" />
<circle cx="0.628" cy="0.289" r="0.014" />
<circle cx="0.754" cy="0.281" r="0.014" />
<circle cx="0.880" cy="0.257" r="0.014" />
<circle cx="1.005" cy="0.220" r="0.014" />
<circle cx="1.131" cy="0.173" r="0.014" />
<circle cx="1.257" cy="0.119" r="0.014" />
<circle cx="1.382" cy="0.059" r="0.014" />
<circle cx="1.508" cy="-0.004" r="0.014" />
<circle cx="1.634" cy="-0.066" r="0.014" />
<circle cx="1.759" cy="-0.126" r="0.014" />
<circle cx="1.885" cy="-0.180" r="0.014" />
<circle cx="2.010" cy="-0.226" r="0.014" />
<circle cx="2.136" cy="-0.261" r="0.014" />
<circle cx="2.262" cy="-0.283" r="0.014" />
<circle cx="2.387" cy="-0.288" r="0.014" />
<circle cx="2.513" cy="-0.275" r="0.014" />
<circle cx="2.639" cy="-0.241" r="0.014" />
<circle cx="2.764" cy="-0.183" r="0.014" />
<circle cx="2.890" cy="-0.098" r="0.014" />
<circle cx="3.000" cy="0.000" r="0.014" />
<circle cx="3.246" cy="0.226" r="0.014" />
<circle cx="3.482" cy="0.404" r="0.014" />
<circle cx="3.709" cy="0.541" r="0.014" />
<circle cx="3.926" cy="0.641" r="0.014" />
<circle cx="4.134" cy="0.709" r="0.014" />
<circle cx="4.334" cy="0.751" r="0.014" />
<circle cx="4.526" cy="0.772" r="0.014" />
<circle cx="4.711" cy="0.778" r="0.014" />
<circle cx="4.889" cy="0.773" r="0.014" />
<circle cx="5.060" cy="0.763" r="0.014" />
<circle cx="5.225" cy="0.754" r="0.014" />
<circle cx="5.385" cy="0.750" r="0.014" />
<circle cx="5.539" cy="0.757" r="0.014" />
<circle cx="5.688" cy="0.780" r="0.014" />
<circle cx="5.833" cy="0.825" r="0.014" />
<circle cx="5.975" cy="0.896" r="0.014" />
<circle cx="6.112" cy="0.999" r="0.014" />
<circle cx="6.247" cy="1.140" r="0.014" />
<circle cx="6.379" cy="1.323" r="0.014" />
<circle cx="6.509" cy="1.554" r="0.014" />
<circle cx="6.637" cy="1.839" r="0.014" />
<circle cx="6.764" cy="2.181" r="0.014" />
<circle cx="6.890" cy="2.588" r="0.014" />
</g>
</svg>