<svg xmlns="http://www.w3.org/2000/svg" width="25.0" height="100.0" viewBox="-5.00 -55.00 35.00 110.00">
<g fill="none" stroke="black" stroke-width="0.0800%" transform="translate(0, 0.0000) scale(6.2500, -6.2500)">
<polyline points="0.00,0.00 0.00,2.00 1.00,0.00 2.00,1.00 2.00,0.00" />
<polyline points="0.00,0.00 0.00,0.08 0.00,0.15 0.01,0.22 0.01,0.28 0.01,0.34 0.02,0.40 0.03,0.45 0.04,0.50 0.05,0.55 0.06,0.59 0.07,0.63 0.08,0.66 0.09,0.69 0.11,0.72 0.12,0.75 0.14,0.77 0.15,0.79 0.17,0.81 0.19,0.83 0.21,0.84 0.23,0.86 0.25,0.87 0.27,0.88 0.29,0.88 0.31,0.89 0.34,0.89 0.36,0.90 0.38,0.90 0.41,0.90 0.43,0.90 0.46,0.90 0.48,0.89 0.51,0.89 0.54,0.89 0.56,0.88 0.59,0.87 0.62,0.87 0.65,0.86 0.68,0.85 0.70,0.84 0.73,0.84 0.76,0.83 0.79,0.82 0.82,0.81 0.85,0.80 0.88,0.79 0.91,0.78 0.94,0.77 0.97,0.76 1.00,0.75 1.03,0.74 1.06,0.73 1.09,0.72 1.12,0.71 1.15,0.70 1.18,0.69 1.21,0.68 1.24,0.67 1.27,0.66 1.30,0.65 1.32,0.64 1.35,0.63 1.38,0.63 1.41,0.62 1.44,0.61 1.46,0.60 1.49,0.59 1.52,0.58 1.54,0.57 1.57,0.56 1.59,0.55 1.62,0.54 1.64,0.54 1.66,0.53 1.69,0.52 1.71,0.51 1.73,0.49 1.75,0.48 1.77,0.47 1.79,0.46 1.81,0.45 1.83,0.44 1.85,0.42 1.86,0.41 1.88,0.39 1.89,0.38 1.91,0.36 1.92,0.34 1.93,0.32 1.94,0.30 1.95,0.28 1.96,0.25 1.97,0.23 1.98,0.20 1.99,0.17 1.99,0.14 1.99,0.11 2.00,0.08 2.00,0.04 2.00,-0.00" />
<polyline points="0.00,8.00 4.00,-8.00 4.00,4.00 0.00,-4.00" />
<path d="M 0.00,8.00 C 4.00,-8.00 4.00,4.00 0.00,-4.00" />
</g>
</svg>