<svg xmlns="http://www.w3.org/2000/svg" width="161.8" height="100.0" viewBox="-5.000 -55.000 171.803 110.000">
<g fill="none" stroke="black" stroke-width="0.0029%" transform="translate(0, 0.0000) scale(173.2106, -173.2106)">
<circle cx="0.000" cy="0.000" r="0.003" />
<circle cx="0.000" cy="0.289" r="0.003" />
<polyline points="0.000,0.000 0.009,0.029 0.019,0.056 0.028,0.082 0.037,0.106 0.047,0.128 0.056,0.149 0.065,0.168 0.075,0.185 0.084,0.201 0.093,0.216 0.103,0.229 0.112,0.241 0.121,0.251 0.131,0.260 0.140,0.268 0.149,0.274 0.159,0.279 0.168,0.283 0.177,0.286 0.187,0.288 0.196,0.289 0.206,0.288 0.215,0.287 0.224,0.285 0.234,0.281 0.243,0.277 0.252,0.272 0.262,0.266 0.271,0.259 0.280,0.252 0.290,0.244 0.299,0.235 0.308,0.226 0.318,0.215 0.327,0.205 0.336,0.194 0.346,0.182 0.355,0.170 0.364,0.157 0.374,0.144 0.383,0.131 0.392,0.117 0.402,0.103 0.411,0.089 0.420,0.074 0.430,0.060 0.439,0.045 0.448,0.030 0.458,0.015 0.467,-0.000 0.476,-0.015 0.486,-0.030 0.495,-0.045 0.504,-0.060 0.514,-0.074 0.523,-0.089 0.532,-0.103 0.542,-0.117 0.551,-0.131 0.560,-0.144 0.570,-0.157 0.579,-0.170 0.589,-0.182 0.598,-0.194 0.607,-0.205 0.617,-0.215 0.626,-0.226 0.635,-0.235 0.645,-0.244 0.654,-0.252 0.663,-0.259 0.673,-0.266 0.682,-0.272 0.691,-0.277 0.701,-0.281 0.710,-0.285 0.719,-0.287 0.729,-0.288 0.738,-0.289 0.747,-0.288 0.757,-0.286 0.766,-0.283 0.775,-0.279 0.785,-0.274 0.794,-0.268 0.803,-0.260 0.813,-0.251 0.822,-0.241 0.831,-0.229 0.841,-0.216 0.850,-0.201 0.859,-0.185 0.869,-0.168 0.878,-0.149 0.887,-0.128 0.897,-0.106 0.906,-0.082 0.915,-0.056 0.925,-0.029 0.934,0.000" />
</g>
</svg>