<svg xmlns="http://www.w3.org/2000/svg" width="62.8" height="100.0" viewBox="-37.933 -55.000 72.847 110.000">
<g fill="none" stroke="black" stroke-width="0.0151%" transform="translate(0, 0.0000) scale(33.0595, -33.0595)">
<polyline points="-0.057,-1.433 -0.054,-1.432 -0.042,-1.429 0.028,-1.400 0.057,-1.388 0.110,-1.367 0.125,-1.361 0.171,-1.343 0.192,-1.335 0.251,-1.314 0.273,-1.301 0.286,-1.294 0.327,-1.273 0.348,-1.263 0.400,-1.237 0.427,-1.227 0.496,-1.200 0.506,-1.192 0.514,-1.186 0.546,-1.168 0.579,-1.150 0.629,-1.122 0.656,-1.113 0.738,-1.086 0.740,-1.082 0.743,-1.076 0.800,-1.028 0.801,-1.028 0.857,-0.980 0.865,-0.979 0.905,-0.971 0.861,-0.968 0.857,-0.968 0.851,-0.965 0.776,-0.938 0.743,-0.926 0.704,-0.896 0.656,-0.857 0.637,-0.849 0.629,-0.846 0.592,-0.820 0.568,-0.804 0.514,-0.767 0.502,-0.755 0.490,-0.743 0.439,-0.703 0.400,-0.673 0.378,-0.650 0.356,-0.629 0.320,-0.594 0.286,-0.562 0.264,-0.536 0.244,-0.514 0.211,-0.475 0.171,-0.427 0.160,-0.412 0.151,-0.400 0.117,-0.345 0.115,-0.342 0.079,-0.286 0.072,-0.270 0.057,-0.236 0.038,-0.191 0.029,-0.171 0.021,-0.135 0.013,-0.101 0.003,-0.057 0.003,-0.003 0.003,0.003 0.003,0.057 0.013,0.101 0.021,0.135 0.029,0.171 0.038,0.191 0.057,0.236 0.072,0.270 0.079,0.286 0.115,0.342 0.117,0.345 0.151,0.400 0.160,0.412 0.171,0.427 0.211,0.475 0.244,0.514 0.264,0.536 0.286,0.562 0.320,0.594 0.356,0.629 0.378,0.650 0.400,0.673 0.439,0.703 0.490,0.743 0.502,0.755 0.514,0.767 0.568,0.804 0.592,0.820 0.629,0.846 0.637,0.849 0.656,0.857 0.704,0.896 0.743,0.926 0.776,0.938 0.851,0.965 0.857,0.968 0.861,0.968 0.905,0.971 0.865,0.979 0.857,0.980 0.801,1.028 0.800,1.028 0.743,1.076 0.740,1.082 0.738,1.086 0.656,1.113 0.629,1.122 0.579,1.150 0.546,1.168 0.514,1.186 0.506,1.192 0.496,1.200 0.427,1.227 0.400,1.237 0.348,1.263 0.327,1.273 0.286,1.294 0.273,1.301 0.251,1.314 0.192,1.335 0.171,1.343 0.125,1.361 0.110,1.367 0.057,1.388 0.028,1.400 -0.042,1.429 -0.054,1.432 -0.057,1.433 -0.063,1.434 -0.144,1.456 -0.171,1.463 -0.216,1.473 -0.236,1.478 -0.286,1.489 -0.332,1.496 -0.357,1.500 -0.400,1.507 -0.434,1.509 -0.482,1.511 -0.514,1.512 -0.548,1.509 -0.591,1.505 -0.629,1.501 -0.684,1.484 -0.688,1.483 -0.743,1.467 -0.768,1.454 -0.814,1.429 -0.838,1.409 -0.857,1.394 -0.892,1.350 -0.921,1.314 -0.937,1.280 -0.971,1.209 -0.974,1.202 -0.974,1.200 -0.975,1.197 -0.990,1.104 -0.993,1.086 -0.994,1.064 -0.995,0.995 -0.996,0.971 -0.995,0.948 -0.990,0.875 -0.988,0.857 -0.986,0.842 -0.974,0.745 -0.974,0.743 -0.973,0.741 -0.971,0.730 -0.952,0.648 -0.947,0.629 -0.939,0.596 -0.929,0.557 -0.919,0.514 -0.907,0.465 -0.902,0.445 -0.892,0.400 -0.886,0.371 -0.872,0.300 -0.869,0.286 -0.867,0.275 -0.857,0.203 -0.851,0.177 -0.850,0.171 -0.849,0.164 -0.839,0.075 -0.837,0.057 -0.837,0.037 -0.837,-0.037 -0.837,-0.057 -0.839,-0.075 -0.849,-0.164 -0.850,-0.171 -0.851,-0.177 -0.857,-0.203 -0.867,-0.275 -0.869,-0.286 -0.872,-0.300 -0.886,-0.371 -0.892,-0.400 -0.902,-0.445 -0.907,-0.465 -0.919,-0.514 -0.929,-0.557 -0.939,-0.596 -0.947,-0.629 -0.952,-0.648 -0.971,-0.730 -0.973,-0.741 -0.974,-0.743 -0.974,-0.745 -0.986,-0.842 -0.988,-0.857 -0.990,-0.875 -0.995,-0.948 -0.996,-0.971 -0.995,-0.995 -0.994,-1.064 -0.993,-1.086 -0.990,-1.104 -0.975,-1.197 -0.974,-1.200 -0.974,-1.202 -0.971,-1.209 -0.937,-1.280 -0.921,-1.314 -0.892,-1.350 -0.857,-1.394 -0.838,-1.409 -0.814,-1.429 -0.768,-1.454 -0.743,-1.467 -0.688,-1.483 -0.684,-1.484 -0.629,-1.501 -0.591,-1.505 -0.548,-1.509 -0.514,-1.512 -0.482,-1.511 -0.434,-1.509 -0.400,-1.507 -0.357,-1.500 -0.332,-1.496 -0.286,-1.489 -0.236,-1.478 -0.216,-1.473 -0.171,-1.463 -0.144,-1.456 -0.063,-1.434 -0.057,-1.433" />
</g>
</svg>