<svg xmlns="http://www.w3.org/2000/svg" width="161.8" height="100.0" viewBox="-2.511 -5.000 171.803 110.000">
<g fill="none" stroke="black" stroke-width="0.0050%" transform="translate(0, 100.0000) scale(100.0000, -100.0000)">

<line x1="0.050" y1="0.000" x2="0.050" y2="1.000" />


<line x1="0.124" y1="0.000" x2="0.124" y2="1.000" />
<line x1="0.149" y1="0.000" x2="0.149" y2="1.000" />




<line x1="0.274" y1="0.000" x2="0.274" y2="1.000" />
<line x1="0.299" y1="0.000" x2="0.299" y2="1.000" />
<line x1="0.324" y1="0.000" x2="0.324" y2="1.000" />
<line x1="0.348" y1="0.000" x2="0.348" y2="1.000" />








<line x1="0.573" y1="0.000" x2="0.573" y2="1.000" />
<line x1="0.597" y1="0.000" x2="0.597" y2="1.000" />
<line x1="0.622" y1="0.000" x2="0.622" y2="1.000" />
<line x1="0.647" y1="0.000" x2="0.647" y2="1.000" />
<line x1="0.672" y1="0.000" x2="0.672" y2="1.000" />
<line x1="0.697" y1="0.000" x2="0.697" y2="1.000" />
<line x1="0.722" y1="0.000" x2="0.722" y2="1.000" />
<line x1="0.747" y1="0.000" x2="0.747" y2="1.000" />
















<line x1="1.170" y1="0.000" x2="1.170" y2="1.000" />
<line x1="1.195" y1="0.000" x2="1.195" y2="1.000" />
<line x1="1.220" y1="0.000" x2="1.220" y2="1.000" />
<line x1="1.245" y1="0.000" x2="1.245" y2="1.000" />
<line x1="1.270" y1="0.000" x2="1.270" y2="1.000" />
<line x1="1.294" y1="0.000" x2="1.294" y2="1.000" />
<line x1="1.319" y1="0.000" x2="1.319" y2="1.000" />
<line x1="1.344" y1="0.000" x2="1.344" y2="1.000" />
<line x1="1.369" y1="0.000" x2="1.369" y2="1.000" />
<line x1="1.394" y1="0.000" x2="1.394" y2="1.000" />
<line x1="1.419" y1="0.000" x2="1.419" y2="1.000" />
<line x1="1.444" y1="0.000" x2="1.444" y2="1.000" />
<line x1="1.469" y1="0.000" x2="1.469" y2="1.000" />
<line x1="1.494" y1="0.000" x2="1.494" y2="1.000" />
<line x1="1.518" y1="0.000" x2="1.518" y2="1.000" />
<line x1="1.543" y1="0.000" x2="1.543" y2="1.000" />




</g>
</svg>