<svg xmlns="http://www.w3.org/2000/svg" width="161.8" height="100.0" viewBox="-3.8 -5.0 171.8 110.0">
<g fill="none" stroke="black" stroke-width="0.8500%" transform="translate(0, 100.0000) scale(0.5882, -0.5882)">
<circle cx="2.0" cy="0.0" r="0.8" />
<circle cx="4.1" cy="1.0" r="0.8" />
<circle cx="6.1" cy="2.0" r="0.8" />
<circle cx="8.2" cy="4.0" r="0.8" />
<circle cx="10.2" cy="3.0" r="0.8" />
<circle cx="12.2" cy="8.0" r="0.8" />
<circle cx="14.3" cy="5.0" r="0.8" />
<circle cx="16.3" cy="6.0" r="0.8" />
<circle cx="18.3" cy="9.0" r="0.8" />
<circle cx="20.4" cy="10.0" r="0.8" />
<circle cx="22.4" cy="16.0" r="0.8" />
<circle cx="24.5" cy="7.0" r="0.8" />
<circle cx="26.5" cy="12.0" r="0.8" />
<circle cx="28.5" cy="11.0" r="0.8" />
<circle cx="30.6" cy="32.0" r="0.8" />
<circle cx="32.6" cy="17.0" r="0.8" />
<circle cx="34.6" cy="18.0" r="0.8" />
<circle cx="36.7" cy="13.0" r="0.8" />
<circle cx="38.7" cy="14.0" r="0.8" />
<circle cx="40.8" cy="33.0" r="0.8" />
<circle cx="42.8" cy="34.0" r="0.8" />
<circle cx="44.8" cy="20.0" r="0.8" />
<circle cx="46.9" cy="19.0" r="0.8" />
<circle cx="48.9" cy="24.0" r="0.8" />
<circle cx="50.9" cy="15.0" r="0.8" />
<circle cx="53.0" cy="36.0" r="0.8" />
<circle cx="55.0" cy="35.0" r="0.8" />
<circle cx="57.1" cy="40.0" r="0.8" />
<circle cx="59.1" cy="21.0" r="0.8" />
<circle cx="61.1" cy="22.0" r="0.8" />
<circle cx="63.2" cy="25.0" r="0.8" />
<circle cx="65.2" cy="26.0" r="0.8" />
<circle cx="67.2" cy="37.0" r="0.8" />
<circle cx="69.3" cy="38.0" r="0.8" />
<circle cx="71.3" cy="41.0" r="0.8" />
<circle cx="73.4" cy="42.0" r="0.8" />
<circle cx="75.4" cy="64.0" r="0.8" />
<circle cx="77.4" cy="23.0" r="0.8" />
<circle cx="79.5" cy="28.0" r="0.8" />
<circle cx="81.5" cy="27.0" r="0.8" />
<circle cx="83.5" cy="48.0" r="0.8" />
<circle cx="85.6" cy="39.0" r="0.8" />
<circle cx="87.6" cy="44.0" r="0.8" />
<circle cx="89.7" cy="43.0" r="0.8" />
<circle cx="91.7" cy="128.0" r="0.8" />
<circle cx="93.7" cy="65.0" r="0.8" />
<circle cx="95.8" cy="66.0" r="0.8" />
<circle cx="97.8" cy="29.0" r="0.8" />
<circle cx="99.8" cy="30.0" r="0.8" />
<circle cx="101.9" cy="49.0" r="0.8" />
<circle cx="103.9" cy="50.0" r="0.8" />
<circle cx="106.0" cy="45.0" r="0.8" />
<circle cx="108.0" cy="46.0" r="0.8" />
<circle cx="110.0" cy="129.0" r="0.8" />
<circle cx="112.1" cy="130.0" r="0.8" />
<circle cx="114.1" cy="68.0" r="0.8" />
<circle cx="116.1" cy="67.0" r="0.8" />
<circle cx="118.2" cy="72.0" r="0.8" />
<circle cx="120.2" cy="31.0" r="0.8" />
<circle cx="122.3" cy="52.0" r="0.8" />
<circle cx="124.3" cy="51.0" r="0.8" />
<circle cx="126.3" cy="56.0" r="0.8" />
<circle cx="128.4" cy="47.0" r="0.8" />
<circle cx="130.4" cy="132.0" r="0.8" />
<circle cx="132.4" cy="131.0" r="0.8" />
<circle cx="134.5" cy="136.0" r="0.8" />
<circle cx="136.5" cy="69.0" r="0.8" />
<circle cx="138.6" cy="70.0" r="0.8" />
<circle cx="140.6" cy="73.0" r="0.8" />
<circle cx="142.6" cy="74.0" r="0.8" />
<circle cx="144.7" cy="53.0" r="0.8" />
<circle cx="146.7" cy="54.0" r="0.8" />
<circle cx="148.7" cy="57.0" r="0.8" />
<circle cx="150.8" cy="58.0" r="0.8" />
<circle cx="152.8" cy="133.0" r="0.8" />
<circle cx="154.9" cy="134.0" r="0.8" />
<circle cx="156.9" cy="137.0" r="0.8" />
<circle cx="158.9" cy="138.0" r="0.8" />
<circle cx="161.0" cy="80.0" r="0.8" />
<circle cx="163.0" cy="71.0" r="0.8" />
<circle cx="165.0" cy="76.0" r="0.8" />
<circle cx="167.1" cy="75.0" r="0.8" />
<circle cx="169.1" cy="96.0" r="0.8" />
<circle cx="171.2" cy="55.0" r="0.8" />
<circle cx="173.2" cy="60.0" r="0.8" />
<circle cx="175.2" cy="59.0" r="0.8" />
<circle cx="177.3" cy="144.0" r="0.8" />
<circle cx="179.3" cy="135.0" r="0.8" />
<circle cx="181.3" cy="140.0" r="0.8" />
<circle cx="183.4" cy="139.0" r="0.8" />
<circle cx="185.4" cy="160.0" r="0.8" />
<circle cx="187.5" cy="81.0" r="0.8" />
<circle cx="189.5" cy="82.0" r="0.8" />
<circle cx="191.5" cy="77.0" r="0.8" />
<circle cx="193.6" cy="78.0" r="0.8" />
<circle cx="195.6" cy="97.0" r="0.8" />
<circle cx="197.6" cy="98.0" r="0.8" />
<circle cx="199.7" cy="61.0" r="0.8" />
<circle cx="201.7" cy="62.0" r="0.8" />
<circle cx="203.8" cy="145.0" r="0.8" />
<circle cx="205.8" cy="146.0" r="0.8" />
<circle cx="207.8" cy="141.0" r="0.8" />
<circle cx="209.9" cy="142.0" r="0.8" />
<circle cx="211.9" cy="161.0" r="0.8" />
<circle cx="213.9" cy="162.0" r="0.8" />
<circle cx="216.0" cy="84.0" r="0.8" />
<circle cx="218.0" cy="83.0" r="0.8" />
<circle cx="220.1" cy="88.0" r="0.8" />
<circle cx="222.1" cy="79.0" r="0.8" />
<circle cx="224.1" cy="100.0" r="0.8" />
<circle cx="226.2" cy="99.0" r="0.8" />
<circle cx="228.2" cy="104.0" r="0.8" />
<circle cx="230.2" cy="63.0" r="0.8" />
<circle cx="232.3" cy="148.0" r="0.8" />
<circle cx="234.3" cy="147.0" r="0.8" />
<circle cx="236.4" cy="152.0" r="0.8" />
<circle cx="238.4" cy="143.0" r="0.8" />
<circle cx="240.4" cy="164.0" r="0.8" />
<circle cx="242.5" cy="163.0" r="0.8" />
<circle cx="244.5" cy="168.0" r="0.8" />
<circle cx="246.5" cy="85.0" r="0.8" />
<circle cx="248.6" cy="86.0" r="0.8" />
<circle cx="250.6" cy="89.0" r="0.8" />
<circle cx="252.7" cy="90.0" r="0.8" />
<circle cx="254.7" cy="101.0" r="0.8" />
<circle cx="256.7" cy="102.0" r="0.8" />
<circle cx="258.8" cy="105.0" r="0.8" />
<circle cx="260.8" cy="106.0" r="0.8" />
<circle cx="262.8" cy="149.0" r="0.8" />
<circle cx="264.9" cy="150.0" r="0.8" />
<circle cx="266.9" cy="153.0" r="0.8" />
<circle cx="269.0" cy="154.0" r="0.8" />
<circle cx="271.0" cy="165.0" r="0.8" />
<circle cx="273.0" cy="166.0" r="0.8" />
<circle cx="275.1" cy="169.0" r="0.8" />
<circle cx="277.1" cy="170.0" r="0.8" />
</g>
</svg>