<svg xmlns="http://www.w3.org/2000/svg" width="161.8" height="100.0" viewBox="-3.182 -5.000 171.803 110.000">
<g fill="none" stroke="black" stroke-width="0.0050%" transform="translate(0, 100.0000) scale(100.0000, -100.0000)">

<line x1="0.036" y1="0.000" x2="0.036" y2="1.000" />

<line x1="0.073" y1="0.000" x2="0.073" y2="1.000" />
<line x1="0.091" y1="0.000" x2="0.091" y2="1.000" />
<line x1="0.109" y1="0.000" x2="0.109" y2="1.000" />


<line x1="0.164" y1="0.000" x2="0.164" y2="1.000" />
<line x1="0.182" y1="0.000" x2="0.182" y2="1.000" />

<line x1="0.218" y1="0.000" x2="0.218" y2="1.000" />

<line x1="0.255" y1="0.000" x2="0.255" y2="1.000" />
<line x1="0.273" y1="0.000" x2="0.273" y2="1.000" />
<line x1="0.291" y1="0.000" x2="0.291" y2="1.000" />
<line x1="0.309" y1="0.000" x2="0.309" y2="1.000" />
<line x1="0.327" y1="0.000" x2="0.327" y2="1.000" />



<line x1="0.400" y1="0.000" x2="0.400" y2="1.000" />
<line x1="0.418" y1="0.000" x2="0.418" y2="1.000" />


<line x1="0.473" y1="0.000" x2="0.473" y2="1.000" />

<line x1="0.509" y1="0.000" x2="0.509" y2="1.000" />

<line x1="0.545" y1="0.000" x2="0.545" y2="1.000" />
<line x1="0.564" y1="0.000" x2="0.564" y2="1.000" />
<line x1="0.582" y1="0.000" x2="0.582" y2="1.000" />

<line x1="0.618" y1="0.000" x2="0.618" y2="1.000" />


<line x1="0.673" y1="0.000" x2="0.673" y2="1.000" />
<line x1="0.691" y1="0.000" x2="0.691" y2="1.000" />
<line x1="0.709" y1="0.000" x2="0.709" y2="1.000" />

<line x1="0.745" y1="0.000" x2="0.745" y2="1.000" />
<line x1="0.764" y1="0.000" x2="0.764" y2="1.000" />

<line x1="0.800" y1="0.000" x2="0.800" y2="1.000" />
<line x1="0.818" y1="0.000" x2="0.818" y2="1.000" />
<line x1="0.836" y1="0.000" x2="0.836" y2="1.000" />
<line x1="0.854" y1="0.000" x2="0.854" y2="1.000" />
<line x1="0.873" y1="0.000" x2="0.873" y2="1.000" />
<line x1="0.891" y1="0.000" x2="0.891" y2="1.000" />
<line x1="0.909" y1="0.000" x2="0.909" y2="1.000" />




<line x1="1.000" y1="0.000" x2="1.000" y2="1.000" />
<line x1="1.018" y1="0.000" x2="1.018" y2="1.000" />



<line x1="1.091" y1="0.000" x2="1.091" y2="1.000" />

<line x1="1.127" y1="0.000" x2="1.127" y2="1.000" />


<line x1="1.182" y1="0.000" x2="1.182" y2="1.000" />
<line x1="1.200" y1="0.000" x2="1.200" y2="1.000" />
<line x1="1.218" y1="0.000" x2="1.218" y2="1.000" />


<line x1="1.273" y1="0.000" x2="1.273" y2="1.000" />


<line x1="1.327" y1="0.000" x2="1.327" y2="1.000" />

<line x1="1.364" y1="0.000" x2="1.364" y2="1.000" />
<line x1="1.382" y1="0.000" x2="1.382" y2="1.000" />

<line x1="1.418" y1="0.000" x2="1.418" y2="1.000" />

<line x1="1.454" y1="0.000" x2="1.454" y2="1.000" />

<line x1="1.491" y1="0.000" x2="1.491" y2="1.000" />
<line x1="1.509" y1="0.000" x2="1.509" y2="1.000" />

<line x1="1.545" y1="0.000" x2="1.545" y2="1.000" />
<line x1="1.563" y1="0.000" x2="1.563" y2="1.000" />
<line x1="1.582" y1="0.000" x2="1.582" y2="1.000" />
<line x1="1.600" y1="0.000" x2="1.600" y2="1.000" />

<line x1="1.636" y1="0.000" x2="1.636" y2="1.000" />
</g>
</svg>