<svg xmlns="http://www.w3.org/2000/svg" width="161.8" height="100.0" viewBox="-4.4 -3.9 171.8 110.0">
<g fill="none" stroke="black" stroke-width="0.4600%" transform="translate(0, 102.1739) scale(1.0870, -1.0870)">
<circle cx="0.5" cy="1.0" r="0.5" />
<circle cx="1.1" cy="2.0" r="0.5" />
<circle cx="1.6" cy="3.0" r="0.5" />
<circle cx="2.2" cy="4.0" r="0.5" />
<circle cx="2.7" cy="5.0" r="0.5" />
<circle cx="3.2" cy="6.0" r="0.5" />
<circle cx="3.8" cy="7.0" r="0.5" />
<circle cx="4.3" cy="8.0" r="0.5" />
<circle cx="4.9" cy="3.0" r="0.5" />
<circle cx="5.4" cy="9.0" r="0.5" />
<circle cx="6.0" cy="10.0" r="0.5" />
<circle cx="6.5" cy="11.0" r="0.5" />
<circle cx="7.0" cy="12.0" r="0.5" />
<circle cx="7.6" cy="13.0" r="0.5" />
<circle cx="8.1" cy="14.0" r="0.5" />
<circle cx="8.7" cy="15.0" r="0.5" />
<circle cx="9.2" cy="5.0" r="0.5" />
<circle cx="9.7" cy="6.0" r="0.5" />
<circle cx="10.3" cy="7.0" r="0.5" />
<circle cx="10.8" cy="16.0" r="0.5" />
<circle cx="11.4" cy="10.0" r="0.5" />
<circle cx="11.9" cy="17.0" r="0.5" />
<circle cx="12.5" cy="18.0" r="0.5" />
<circle cx="13.0" cy="19.0" r="0.5" />
<circle cx="13.5" cy="7.0" r="0.5" />
<circle cx="14.1" cy="20.0" r="0.5" />
<circle cx="14.6" cy="21.0" r="0.5" />
<circle cx="15.2" cy="22.0" r="0.5" />
<circle cx="15.7" cy="23.0" r="0.5" />
<circle cx="16.2" cy="24.0" r="0.5" />
<circle cx="16.8" cy="25.0" r="0.5" />
<circle cx="17.3" cy="26.0" r="0.5" />
<circle cx="17.9" cy="3.0" r="0.5" />
<circle cx="18.4" cy="9.0" r="0.5" />
<circle cx="18.9" cy="10.0" r="0.5" />
<circle cx="19.5" cy="11.0" r="0.5" />
<circle cx="20.0" cy="12.0" r="0.5" />
<circle cx="20.6" cy="13.0" r="0.5" />
<circle cx="21.1" cy="14.0" r="0.5" />
<circle cx="21.7" cy="27.0" r="0.5" />
<circle cx="22.2" cy="10.0" r="0.5" />
<circle cx="22.7" cy="17.0" r="0.5" />
<circle cx="23.3" cy="18.0" r="0.5" />
<circle cx="23.8" cy="28.0" r="0.5" />
<circle cx="24.4" cy="21.0" r="0.5" />
<circle cx="24.9" cy="29.0" r="0.5" />
<circle cx="25.4" cy="30.0" r="0.5" />
<circle cx="26.0" cy="31.0" r="0.5" />
<circle cx="26.5" cy="12.0" r="0.5" />
<circle cx="27.1" cy="13.0" r="0.5" />
<circle cx="27.6" cy="14.0" r="0.5" />
<circle cx="28.1" cy="32.0" r="0.5" />
<circle cx="28.7" cy="18.0" r="0.5" />
<circle cx="29.2" cy="33.0" r="0.5" />
<circle cx="29.8" cy="34.0" r="0.5" />
<circle cx="30.3" cy="35.0" r="0.5" />
<circle cx="30.9" cy="14.0" r="0.5" />
<circle cx="31.4" cy="36.0" r="0.5" />
<circle cx="31.9" cy="37.0" r="0.5" />
<circle cx="32.5" cy="38.0" r="0.5" />
<circle cx="33.0" cy="39.0" r="0.5" />
<circle cx="33.6" cy="40.0" r="0.5" />
<circle cx="34.1" cy="41.0" r="0.5" />
<circle cx="34.6" cy="42.0" r="0.5" />
<circle cx="35.2" cy="5.0" r="0.5" />
<circle cx="35.7" cy="6.0" r="0.5" />
<circle cx="36.3" cy="7.0" r="0.5" />
<circle cx="36.8" cy="16.0" r="0.5" />
<circle cx="37.4" cy="10.0" r="0.5" />
<circle cx="37.9" cy="17.0" r="0.5" />
<circle cx="38.4" cy="18.0" r="0.5" />
<circle cx="39.0" cy="19.0" r="0.5" />
<circle cx="39.5" cy="7.0" r="0.5" />
<circle cx="40.1" cy="20.0" r="0.5" />
<circle cx="40.6" cy="21.0" r="0.5" />
<circle cx="41.1" cy="22.0" r="0.5" />
<circle cx="41.7" cy="23.0" r="0.5" />
<circle cx="42.2" cy="24.0" r="0.5" />
<circle cx="42.8" cy="25.0" r="0.5" />
<circle cx="43.3" cy="43.0" r="0.5" />
<circle cx="43.8" cy="10.0" r="0.5" />
<circle cx="44.4" cy="17.0" r="0.5" />
<circle cx="44.9" cy="18.0" r="0.5" />
<circle cx="45.5" cy="28.0" r="0.5" />
<circle cx="46.0" cy="21.0" r="0.5" />
<circle cx="46.6" cy="29.0" r="0.5" />
<circle cx="47.1" cy="30.0" r="0.5" />
<circle cx="47.6" cy="44.0" r="0.5" />
<circle cx="48.2" cy="18.0" r="0.5" />
<circle cx="48.7" cy="33.0" r="0.5" />
<circle cx="49.3" cy="34.0" r="0.5" />
<circle cx="49.8" cy="45.0" r="0.5" />
<circle cx="50.3" cy="37.0" r="0.5" />
<circle cx="50.9" cy="46.0" r="0.5" />
<circle cx="51.4" cy="47.0" r="0.5" />
<circle cx="52.0" cy="48.0" r="0.5" />
<circle cx="52.5" cy="7.0" r="0.5" />
<circle cx="53.0" cy="20.0" r="0.5" />
<circle cx="53.6" cy="21.0" r="0.5" />
<circle cx="54.1" cy="22.0" r="0.5" />
<circle cx="54.7" cy="23.0" r="0.5" />
<circle cx="55.2" cy="24.0" r="0.5" />
<circle cx="55.8" cy="25.0" r="0.5" />
<circle cx="56.3" cy="49.0" r="0.5" />
<circle cx="56.8" cy="21.0" r="0.5" />
<circle cx="57.4" cy="29.0" r="0.5" />
<circle cx="57.9" cy="30.0" r="0.5" />
<circle cx="58.5" cy="50.0" r="0.5" />
<circle cx="59.0" cy="34.0" r="0.5" />
<circle cx="59.5" cy="51.0" r="0.5" />
<circle cx="60.1" cy="52.0" r="0.5" />
<circle cx="60.6" cy="53.0" r="0.5" />
<circle cx="61.2" cy="23.0" r="0.5" />
<circle cx="61.7" cy="24.0" r="0.5" />
<circle cx="62.3" cy="25.0" r="0.5" />
<circle cx="62.8" cy="54.0" r="0.5" />
<circle cx="63.3" cy="30.0" r="0.5" />
<circle cx="63.9" cy="55.0" r="0.5" />
<circle cx="64.4" cy="56.0" r="0.5" />
<circle cx="65.0" cy="57.0" r="0.5" />
<circle cx="65.5" cy="25.0" r="0.5" />
<circle cx="66.0" cy="58.0" r="0.5" />
<circle cx="66.6" cy="59.0" r="0.5" />
<circle cx="67.1" cy="60.0" r="0.5" />
<circle cx="67.7" cy="61.0" r="0.5" />
<circle cx="68.2" cy="62.0" r="0.5" />
<circle cx="68.7" cy="63.0" r="0.5" />
<circle cx="69.3" cy="64.0" r="0.5" />
<circle cx="69.8" cy="3.0" r="0.5" />
<circle cx="70.4" cy="9.0" r="0.5" />
<circle cx="70.9" cy="10.0" r="0.5" />
<circle cx="71.5" cy="11.0" r="0.5" />
<circle cx="72.0" cy="12.0" r="0.5" />
<circle cx="72.5" cy="13.0" r="0.5" />
<circle cx="73.1" cy="14.0" r="0.5" />
<circle cx="73.6" cy="27.0" r="0.5" />
<circle cx="74.2" cy="10.0" r="0.5" />
<circle cx="74.7" cy="17.0" r="0.5" />
<circle cx="75.2" cy="18.0" r="0.5" />
<circle cx="75.8" cy="28.0" r="0.5" />
<circle cx="76.3" cy="21.0" r="0.5" />
<circle cx="76.9" cy="29.0" r="0.5" />
<circle cx="77.4" cy="30.0" r="0.5" />
<circle cx="77.9" cy="31.0" r="0.5" />
<circle cx="78.5" cy="12.0" r="0.5" />
<circle cx="79.0" cy="13.0" r="0.5" />
<circle cx="79.6" cy="14.0" r="0.5" />
<circle cx="80.1" cy="32.0" r="0.5" />
<circle cx="80.7" cy="18.0" r="0.5" />
<circle cx="81.2" cy="33.0" r="0.5" />
<circle cx="81.7" cy="34.0" r="0.5" />
<circle cx="82.3" cy="35.0" r="0.5" />
<circle cx="82.8" cy="14.0" r="0.5" />
<circle cx="83.4" cy="36.0" r="0.5" />
<circle cx="83.9" cy="37.0" r="0.5" />
<circle cx="84.4" cy="38.0" r="0.5" />
<circle cx="85.0" cy="39.0" r="0.5" />
<circle cx="85.5" cy="40.0" r="0.5" />
<circle cx="86.1" cy="41.0" r="0.5" />
<circle cx="86.6" cy="65.0" r="0.5" />
<circle cx="87.2" cy="10.0" r="0.5" />
<circle cx="87.7" cy="17.0" r="0.5" />
<circle cx="88.2" cy="18.0" r="0.5" />
<circle cx="88.8" cy="28.0" r="0.5" />
<circle cx="89.3" cy="21.0" r="0.5" />
<circle cx="89.9" cy="29.0" r="0.5" />
<circle cx="90.4" cy="30.0" r="0.5" />
<circle cx="90.9" cy="44.0" r="0.5" />
<circle cx="91.5" cy="18.0" r="0.5" />
<circle cx="92.0" cy="33.0" r="0.5" />
<circle cx="92.6" cy="34.0" r="0.5" />
<circle cx="93.1" cy="45.0" r="0.5" />
<circle cx="93.6" cy="37.0" r="0.5" />
<circle cx="94.2" cy="46.0" r="0.5" />
<circle cx="94.7" cy="47.0" r="0.5" />
<circle cx="95.3" cy="66.0" r="0.5" />
<circle cx="95.8" cy="21.0" r="0.5" />
<circle cx="96.4" cy="29.0" r="0.5" />
<circle cx="96.9" cy="30.0" r="0.5" />
<circle cx="97.4" cy="50.0" r="0.5" />
<circle cx="98.0" cy="34.0" r="0.5" />
<circle cx="98.5" cy="51.0" r="0.5" />
<circle cx="99.1" cy="52.0" r="0.5" />
<circle cx="99.6" cy="67.0" r="0.5" />
<circle cx="100.1" cy="30.0" r="0.5" />
<circle cx="100.7" cy="55.0" r="0.5" />
<circle cx="101.2" cy="56.0" r="0.5" />
<circle cx="101.8" cy="68.0" r="0.5" />
<circle cx="102.3" cy="59.0" r="0.5" />
<circle cx="102.8" cy="69.0" r="0.5" />
<circle cx="103.4" cy="70.0" r="0.5" />
<circle cx="103.9" cy="71.0" r="0.5" />
<circle cx="104.5" cy="12.0" r="0.5" />
<circle cx="105.0" cy="13.0" r="0.5" />
<circle cx="105.6" cy="14.0" r="0.5" />
<circle cx="106.1" cy="32.0" r="0.5" />
<circle cx="106.6" cy="18.0" r="0.5" />
<circle cx="107.2" cy="33.0" r="0.5" />
<circle cx="107.7" cy="34.0" r="0.5" />
<circle cx="108.3" cy="35.0" r="0.5" />
<circle cx="108.8" cy="14.0" r="0.5" />
<circle cx="109.3" cy="36.0" r="0.5" />
<circle cx="109.9" cy="37.0" r="0.5" />
<circle cx="110.4" cy="38.0" r="0.5" />
<circle cx="111.0" cy="39.0" r="0.5" />
<circle cx="111.5" cy="40.0" r="0.5" />
<circle cx="112.1" cy="41.0" r="0.5" />
<circle cx="112.6" cy="72.0" r="0.5" />
<circle cx="113.1" cy="18.0" r="0.5" />
<circle cx="113.7" cy="33.0" r="0.5" />
<circle cx="114.2" cy="34.0" r="0.5" />
<circle cx="114.8" cy="45.0" r="0.5" />
<circle cx="115.3" cy="37.0" r="0.5" />
<circle cx="115.8" cy="46.0" r="0.5" />
<circle cx="116.4" cy="47.0" r="0.5" />
<circle cx="116.9" cy="73.0" r="0.5" />
<circle cx="117.5" cy="34.0" r="0.5" />
<circle cx="118.0" cy="51.0" r="0.5" />
<circle cx="118.5" cy="52.0" r="0.5" />
<circle cx="119.1" cy="74.0" r="0.5" />
<circle cx="119.6" cy="56.0" r="0.5" />
<circle cx="120.2" cy="75.0" r="0.5" />
<circle cx="120.7" cy="76.0" r="0.5" />
<circle cx="121.3" cy="77.0" r="0.5" />
<circle cx="121.8" cy="14.0" r="0.5" />
<circle cx="122.3" cy="36.0" r="0.5" />
<circle cx="122.9" cy="37.0" r="0.5" />
<circle cx="123.4" cy="38.0" r="0.5" />
<circle cx="124.0" cy="39.0" r="0.5" />
<circle cx="124.5" cy="40.0" r="0.5" />
<circle cx="125.0" cy="41.0" r="0.5" />
<circle cx="125.6" cy="78.0" r="0.5" />
<circle cx="126.1" cy="37.0" r="0.5" />
<circle cx="126.7" cy="46.0" r="0.5" />
<circle cx="127.2" cy="47.0" r="0.5" />
<circle cx="127.7" cy="79.0" r="0.5" />
<circle cx="128.3" cy="52.0" r="0.5" />
<circle cx="128.8" cy="80.0" r="0.5" />
<circle cx="129.4" cy="81.0" r="0.5" />
<circle cx="129.9" cy="82.0" r="0.5" />
<circle cx="130.5" cy="39.0" r="0.5" />
<circle cx="131.0" cy="40.0" r="0.5" />
<circle cx="131.5" cy="41.0" r="0.5" />
<circle cx="132.1" cy="83.0" r="0.5" />
<circle cx="132.6" cy="47.0" r="0.5" />
<circle cx="133.2" cy="84.0" r="0.5" />
<circle cx="133.7" cy="85.0" r="0.5" />
<circle cx="134.2" cy="86.0" r="0.5" />
<circle cx="134.8" cy="41.0" r="0.5" />
<circle cx="135.3" cy="87.0" r="0.5" />
<circle cx="135.9" cy="88.0" r="0.5" />
<circle cx="136.4" cy="89.0" r="0.5" />
<circle cx="137.0" cy="90.0" r="0.5" />
<circle cx="137.5" cy="91.0" r="0.5" />
<circle cx="138.0" cy="92.0" r="0.5" />
<circle cx="138.6" cy="93.0" r="0.5" />
<circle cx="139.1" cy="5.0" r="0.5" />
<circle cx="139.7" cy="6.0" r="0.5" />
<circle cx="140.2" cy="7.0" r="0.5" />
<circle cx="140.7" cy="16.0" r="0.5" />
<circle cx="141.3" cy="10.0" r="0.5" />
<circle cx="141.8" cy="17.0" r="0.5" />
<circle cx="142.4" cy="18.0" r="0.5" />
<circle cx="142.9" cy="19.0" r="0.5" />
<circle cx="143.4" cy="7.0" r="0.5" />
<circle cx="144.0" cy="20.0" r="0.5" />
<circle cx="144.5" cy="21.0" r="0.5" />
<circle cx="145.1" cy="22.0" r="0.5" />
<circle cx="145.6" cy="23.0" r="0.5" />
<circle cx="146.2" cy="24.0" r="0.5" />
<circle cx="146.7" cy="25.0" r="0.5" />
<circle cx="147.2" cy="43.0" r="0.5" />
<circle cx="147.8" cy="10.0" r="0.5" />
<circle cx="148.3" cy="17.0" r="0.5" />
<circle cx="148.9" cy="18.0" r="0.5" />
<circle cx="149.4" cy="28.0" r="0.5" />
</g>
</svg>