<svg xmlns="http://www.w3.org/2000/svg" width="161.8" height="100.0" viewBox="-2.472 -5.000 171.803 110.000">
<g fill="none" stroke="black" stroke-width="0.0050%" transform="translate(0, 100.0000) scale(100.0000, -100.0000)">
<polyline points="0.025,0.000 0.051,0.000 0.051,0.000 0.076,0.000 0.076,0.000 0.101,0.000 0.101,0.000 0.126,0.000 0.126,0.000 0.152,0.000 0.152,0.000 0.177,0.000 0.177,0.000 0.202,0.000 0.202,1.000 0.228,1.000 0.228,0.000 0.253,0.000 0.253,0.000 0.278,0.000 0.278,1.000 0.303,1.000 0.303,1.000 0.329,1.000 0.329,0.000 0.354,0.000 0.354,0.000 0.379,0.000 0.379,1.000 0.405,1.000 0.405,0.000 0.430,0.000 0.430,0.000 0.455,0.000 0.455,1.000 0.480,1.000 0.480,1.000 0.506,1.000 0.506,0.000 0.531,0.000 0.531,0.000 0.556,0.000 0.556,1.000 0.581,1.000 0.581,1.000 0.607,1.000 0.607,1.000 0.632,1.000 0.632,0.000 0.657,0.000 0.657,1.000 0.683,1.000 0.683,0.000 0.708,0.000 0.708,1.000 0.733,1.000 0.733,0.000 0.758,0.000 0.758,1.000 0.784,1.000 0.784,0.000 0.809,0.000 0.809,0.000 0.834,0.000 0.834,1.000 0.860,1.000 0.860,1.000 0.885,1.000 0.885,0.000 0.910,0.000 0.910,0.000 0.935,0.000 0.935,1.000 0.961,1.000 0.961,1.000 0.986,1.000 0.986,0.000 1.011,0.000 1.011,1.000 1.037,1.000 1.037,1.000 1.062,1.000 1.062,1.000 1.087,1.000 1.087,1.000 1.112,1.000 1.112,1.000 1.138,1.000 1.138,1.000 1.163,1.000 1.163,1.000 1.188,1.000 1.188,1.000 1.214,1.000 1.214,0.000 1.239,0.000 1.239,1.000 1.264,1.000 1.264,0.000 1.289,0.000 1.289,1.000 1.315,1.000 1.315,0.000 1.340,0.000 1.340,1.000 1.365,1.000 1.365,0.000 1.390,0.000 1.390,1.000 1.416,1.000 1.416,1.000 1.441,1.000 1.441,1.000 1.466,1.000 1.466,0.000 1.492,0.000 1.492,0.000 1.517,0.000 1.517,1.000 1.542,1.000 1.542,1.000 1.567,1.000 1.567,0.000 1.593,0.000 1.593,0.000 1.618,0.000 1.618,0.000 1.643,0.000" />
</g>
</svg>