<svg xmlns="http://www.w3.org/2000/svg" width="161.8" height="100.0" viewBox="-3 -5 172 110">
<g fill="none" stroke="black" stroke-width="5.0900%" transform="translate(0, 100.5894) scale(0.0982, -0.0982)">
<circle cx="20" cy="3" r="5" />
<circle cx="40" cy="7" r="5" />
<circle cx="60" cy="13" r="5" />
<circle cx="79" cy="29" r="5" />
<circle cx="99" cy="31" r="5" />
<circle cx="119" cy="53" r="5" />
<circle cx="139" cy="59" r="5" />
<circle cx="159" cy="61" r="5" />
<circle cx="179" cy="97" r="5" />
<circle cx="198" cy="101" r="5" />
<circle cx="218" cy="103" r="5" />
<circle cx="238" cy="107" r="5" />
<circle cx="258" cy="109" r="5" />
<circle cx="278" cy="113" r="5" />
<circle cx="298" cy="127" r="5" />
<circle cx="318" cy="193" r="5" />
<circle cx="337" cy="197" r="5" />
<circle cx="357" cy="199" r="5" />
<circle cx="377" cy="211" r="5" />
<circle cx="397" cy="223" r="5" />
<circle cx="417" cy="227" r="5" />
<circle cx="437" cy="229" r="5" />
<circle cx="456" cy="233" r="5" />
<circle cx="476" cy="239" r="5" />
<circle cx="496" cy="241" r="5" />
<circle cx="516" cy="251" r="5" />
<circle cx="536" cy="389" r="5" />
<circle cx="556" cy="397" r="5" />
<circle cx="576" cy="401" r="5" />
<circle cx="595" cy="409" r="5" />
<circle cx="615" cy="419" r="5" />
<circle cx="635" cy="421" r="5" />
<circle cx="655" cy="431" r="5" />
<circle cx="675" cy="433" r="5" />
<circle cx="695" cy="439" r="5" />
<circle cx="714" cy="443" r="5" />
<circle cx="734" cy="449" r="5" />
<circle cx="754" cy="457" r="5" />
<circle cx="774" cy="461" r="5" />
<circle cx="794" cy="463" r="5" />
<circle cx="814" cy="467" r="5" />
<circle cx="834" cy="479" r="5" />
<circle cx="853" cy="487" r="5" />
<circle cx="873" cy="491" r="5" />
<circle cx="893" cy="499" r="5" />
<circle cx="913" cy="503" r="5" />
<circle cx="933" cy="509" r="5" />
<circle cx="953" cy="769" r="5" />
<circle cx="972" cy="773" r="5" />
<circle cx="992" cy="787" r="5" />
<circle cx="1012" cy="797" r="5" />
<circle cx="1032" cy="809" r="5" />
<circle cx="1052" cy="811" r="5" />
<circle cx="1072" cy="821" r="5" />
<circle cx="1091" cy="823" r="5" />
<circle cx="1111" cy="827" r="5" />
<circle cx="1131" cy="829" r="5" />
<circle cx="1151" cy="839" r="5" />
<circle cx="1171" cy="853" r="5" />
<circle cx="1191" cy="857" r="5" />
<circle cx="1211" cy="859" r="5" />
<circle cx="1230" cy="863" r="5" />
<circle cx="1250" cy="877" r="5" />
<circle cx="1270" cy="881" r="5" />
<circle cx="1290" cy="883" r="5" />
<circle cx="1310" cy="887" r="5" />
<circle cx="1330" cy="907" r="5" />
<circle cx="1349" cy="911" r="5" />
<circle cx="1369" cy="919" r="5" />
<circle cx="1389" cy="929" r="5" />
<circle cx="1409" cy="937" r="5" />
<circle cx="1429" cy="941" r="5" />
<circle cx="1449" cy="947" r="5" />
<circle cx="1469" cy="953" r="5" />
<circle cx="1488" cy="967" r="5" />
<circle cx="1508" cy="971" r="5" />
<circle cx="1528" cy="977" r="5" />
<circle cx="1548" cy="983" r="5" />
<circle cx="1568" cy="991" r="5" />
<circle cx="1588" cy="997" r="5" />
<circle cx="1607" cy="1009" r="5" />
<circle cx="1627" cy="1013" r="5" />
<circle cx="1647" cy="1019" r="5" />
<circle cx="1667" cy="1021" r="5" />
</g>
</svg>