<svg xmlns="http://www.w3.org/2000/svg" width="161.8" height="100.0" viewBox="-2.51 -50.45 171.80 110.00">
<g fill="none" stroke="black" stroke-width="0.0550%" transform="translate(0, 9.0909) scale(9.0909, -9.0909)">

<line x1="0.55" y1="0.00" x2="0.55" y2="1.00" />
<line x1="0.82" y1="0.00" x2="0.82" y2="-1.00" />
<line x1="1.10" y1="0.00" x2="1.10" y2="2.00" />
<line x1="1.37" y1="0.00" x2="1.37" y2="1.00" />

<line x1="1.92" y1="0.00" x2="1.92" y2="-2.00" />
<line x1="2.19" y1="0.00" x2="2.19" y2="3.00" />
<line x1="2.46" y1="0.00" x2="2.46" y2="-1.00" />
<line x1="2.74" y1="0.00" x2="2.74" y2="2.00" />

<line x1="3.29" y1="0.00" x2="3.29" y2="1.00" />
<line x1="3.56" y1="0.00" x2="3.56" y2="2.00" />
<line x1="3.83" y1="0.00" x2="3.83" y2="-1.00" />
<line x1="4.11" y1="0.00" x2="4.11" y2="-3.00" />
<line x1="4.38" y1="0.00" x2="4.38" y2="4.00" />
<line x1="4.65" y1="0.00" x2="4.65" y2="1.00" />

<line x1="5.20" y1="0.00" x2="5.20" y2="-2.00" />
<line x1="5.48" y1="0.00" x2="5.48" y2="3.00" />

<line x1="6.02" y1="0.00" x2="6.02" y2="1.00" />
<line x1="6.30" y1="0.00" x2="6.30" y2="-1.00" />
<line x1="6.57" y1="0.00" x2="6.57" y2="2.00" />
<line x1="6.85" y1="0.00" x2="6.85" y2="-2.00" />
<line x1="7.12" y1="0.00" x2="7.12" y2="3.00" />
<line x1="7.39" y1="0.00" x2="7.39" y2="1.00" />

<line x1="7.94" y1="0.00" x2="7.94" y2="3.00" />
<line x1="8.21" y1="0.00" x2="8.21" y2="-2.00" />
<line x1="8.49" y1="0.00" x2="8.49" y2="-4.00" />
<line x1="8.76" y1="0.00" x2="8.76" y2="5.00" />
<line x1="9.04" y1="0.00" x2="9.04" y2="-1.00" />
<line x1="9.31" y1="0.00" x2="9.31" y2="2.00" />

<line x1="9.86" y1="0.00" x2="9.86" y2="1.00" />
<line x1="10.13" y1="0.00" x2="10.13" y2="2.00" />
<line x1="10.41" y1="0.00" x2="10.41" y2="-1.00" />
<line x1="10.68" y1="0.00" x2="10.68" y2="-3.00" />
<line x1="10.95" y1="0.00" x2="10.95" y2="4.00" />

<line x1="11.50" y1="0.00" x2="11.50" y2="1.00" />
<line x1="11.77" y1="0.00" x2="11.77" y2="-1.00" />
<line x1="12.05" y1="0.00" x2="12.05" y2="2.00" />
<line x1="12.32" y1="0.00" x2="12.32" y2="1.00" />

<line x1="12.87" y1="0.00" x2="12.87" y2="-2.00" />
<line x1="13.14" y1="0.00" x2="13.14" y2="3.00" />
<line x1="13.42" y1="0.00" x2="13.42" y2="2.00" />
<line x1="13.69" y1="0.00" x2="13.69" y2="-1.00" />
<line x1="13.96" y1="0.00" x2="13.96" y2="-3.00" />
<line x1="14.24" y1="0.00" x2="14.24" y2="4.00" />
<line x1="14.51" y1="0.00" x2="14.51" y2="-1.00" />
<line x1="14.79" y1="0.00" x2="14.79" y2="2.00" />

<line x1="15.33" y1="0.00" x2="15.33" y2="1.00" />
<line x1="15.61" y1="0.00" x2="15.61" y2="-3.00" />
<line x1="15.88" y1="0.00" x2="15.88" y2="4.00" />
<line x1="16.16" y1="0.00" x2="16.16" y2="2.00" />
<line x1="16.43" y1="0.00" x2="16.43" y2="-1.00" />
<line x1="16.70" y1="0.00" x2="16.70" y2="4.00" />
<line x1="16.98" y1="0.00" x2="16.98" y2="-3.00" />
<line x1="17.25" y1="0.00" x2="17.25" y2="-5.00" />
<line x1="17.52" y1="0.00" x2="17.52" y2="6.00" />
<line x1="17.80" y1="0.00" x2="17.80" y2="1.00" />

</g>
</svg>