<svg xmlns="http://www.w3.org/2000/svg" width="161.8" height="100.0" viewBox="-3.617 -5.000 171.803 110.000">
<g fill="none" stroke="black" stroke-width="0.0050%" transform="translate(0, 100.0000) scale(100.0000, -100.0000)">
<line x1="0.014" y1="0.000" x2="0.014" y2="1.000" />

<line x1="0.041" y1="0.000" x2="0.041" y2="1.000" />
<line x1="0.055" y1="0.000" x2="0.055" y2="1.000" />
<line x1="0.069" y1="0.000" x2="0.069" y2="1.000" />

<line x1="0.097" y1="0.000" x2="0.097" y2="1.000" />

<line x1="0.124" y1="0.000" x2="0.124" y2="1.000" />

<line x1="0.152" y1="0.000" x2="0.152" y2="1.000" />
<line x1="0.166" y1="0.000" x2="0.166" y2="1.000" />

<line x1="0.194" y1="0.000" x2="0.194" y2="1.000" />
<line x1="0.207" y1="0.000" x2="0.207" y2="1.000" />
<line x1="0.221" y1="0.000" x2="0.221" y2="1.000" />
<line x1="0.235" y1="0.000" x2="0.235" y2="1.000" />
<line x1="0.249" y1="0.000" x2="0.249" y2="1.000" />
<line x1="0.263" y1="0.000" x2="0.263" y2="1.000" />

<line x1="0.290" y1="0.000" x2="0.290" y2="1.000" />

<line x1="0.318" y1="0.000" x2="0.318" y2="1.000" />

<line x1="0.346" y1="0.000" x2="0.346" y2="1.000" />
<line x1="0.360" y1="0.000" x2="0.360" y2="1.000" />
<line x1="0.373" y1="0.000" x2="0.373" y2="1.000" />
<line x1="0.387" y1="0.000" x2="0.387" y2="1.000" />
<line x1="0.401" y1="0.000" x2="0.401" y2="1.000" />

<line x1="0.429" y1="0.000" x2="0.429" y2="1.000" />

<line x1="0.456" y1="0.000" x2="0.456" y2="1.000" />
<line x1="0.470" y1="0.000" x2="0.470" y2="1.000" />

<line x1="0.498" y1="0.000" x2="0.498" y2="1.000" />
<line x1="0.512" y1="0.000" x2="0.512" y2="1.000" />
<line x1="0.526" y1="0.000" x2="0.526" y2="1.000" />

<line x1="0.553" y1="0.000" x2="0.553" y2="1.000" />

<line x1="0.581" y1="0.000" x2="0.581" y2="1.000" />
<line x1="0.595" y1="0.000" x2="0.595" y2="1.000" />
<line x1="0.608" y1="0.000" x2="0.608" y2="1.000" />
<line x1="0.622" y1="0.000" x2="0.622" y2="1.000" />

<line x1="0.650" y1="0.000" x2="0.650" y2="1.000" />
<line x1="0.664" y1="0.000" x2="0.664" y2="1.000" />

<line x1="0.691" y1="0.000" x2="0.691" y2="1.000" />
<line x1="0.705" y1="0.000" x2="0.705" y2="1.000" />
<line x1="0.719" y1="0.000" x2="0.719" y2="1.000" />
<line x1="0.733" y1="0.000" x2="0.733" y2="1.000" />
<line x1="0.747" y1="0.000" x2="0.747" y2="1.000" />
<line x1="0.761" y1="0.000" x2="0.761" y2="1.000" />

<line x1="0.788" y1="0.000" x2="0.788" y2="1.000" />
<line x1="0.802" y1="0.000" x2="0.802" y2="1.000" />

<line x1="0.830" y1="0.000" x2="0.830" y2="1.000" />

<line x1="0.857" y1="0.000" x2="0.857" y2="1.000" />

<line x1="0.885" y1="0.000" x2="0.885" y2="1.000" />

<line x1="0.913" y1="0.000" x2="0.913" y2="1.000" />



<line x1="0.968" y1="0.000" x2="0.968" y2="1.000" />
<line x1="0.982" y1="0.000" x2="0.982" y2="1.000" />

<line x1="1.010" y1="0.000" x2="1.010" y2="1.000" />
<line x1="1.023" y1="0.000" x2="1.023" y2="1.000" />
<line x1="1.037" y1="0.000" x2="1.037" y2="1.000" />
<line x1="1.051" y1="0.000" x2="1.051" y2="1.000" />
<line x1="1.065" y1="0.000" x2="1.065" y2="1.000" />


<line x1="1.106" y1="0.000" x2="1.106" y2="1.000" />
<line x1="1.120" y1="0.000" x2="1.120" y2="1.000" />
<line x1="1.134" y1="0.000" x2="1.134" y2="1.000" />

<line x1="1.162" y1="0.000" x2="1.162" y2="1.000" />

<line x1="1.189" y1="0.000" x2="1.189" y2="1.000" />

<line x1="1.217" y1="0.000" x2="1.217" y2="1.000" />
<line x1="1.231" y1="0.000" x2="1.231" y2="1.000" />
<line x1="1.245" y1="0.000" x2="1.245" y2="1.000" />
<line x1="1.258" y1="0.000" x2="1.258" y2="1.000" />
<line x1="1.272" y1="0.000" x2="1.272" y2="1.000" />
<line x1="1.286" y1="0.000" x2="1.286" y2="1.000" />
<line x1="1.300" y1="0.000" x2="1.300" y2="1.000" />

<line x1="1.328" y1="0.000" x2="1.328" y2="1.000" />

<line x1="1.355" y1="0.000" x2="1.355" y2="1.000" />
<line x1="1.369" y1="0.000" x2="1.369" y2="1.000" />
<line x1="1.383" y1="0.000" x2="1.383" y2="1.000" />

<line x1="1.411" y1="0.000" x2="1.411" y2="1.000" />
<line x1="1.424" y1="0.000" x2="1.424" y2="1.000" />
<line x1="1.438" y1="0.000" x2="1.438" y2="1.000" />
<line x1="1.452" y1="0.000" x2="1.452" y2="1.000" />

<line x1="1.480" y1="0.000" x2="1.480" y2="1.000" />

<line x1="1.507" y1="0.000" x2="1.507" y2="1.000" />

<line x1="1.535" y1="0.000" x2="1.535" y2="1.000" />
<line x1="1.549" y1="0.000" x2="1.549" y2="1.000" />
<line x1="1.563" y1="0.000" x2="1.563" y2="1.000" />

<line x1="1.590" y1="0.000" x2="1.590" y2="1.000" />
<line x1="1.604" y1="0.000" x2="1.604" y2="1.000" />

<line x1="1.632" y1="0.000" x2="1.632" y2="1.000" />
</g>
</svg>