<svg xmlns="http://www.w3.org/2000/svg" width="161.8" height="100.0" viewBox="-2.51 -5.00 171.80 110.00">
<g fill="none" stroke="black" stroke-width="0.0250%" transform="translate(0, 100.0000) scale(20.0000, -20.0000)">


<line x1="0.37" y1="0.00" x2="0.37" y2="1.00" />


<line x1="0.75" y1="0.00" x2="0.75" y2="1.00" />
<line x1="0.87" y1="0.00" x2="0.87" y2="2.00" />

<line x1="1.12" y1="0.00" x2="1.12" y2="1.00" />

<line x1="1.37" y1="0.00" x2="1.37" y2="1.00" />
<line x1="1.49" y1="0.00" x2="1.49" y2="1.00" />

<line x1="1.74" y1="0.00" x2="1.74" y2="2.00" />
<line x1="1.87" y1="0.00" x2="1.87" y2="3.00" />


<line x1="2.24" y1="0.00" x2="2.24" y2="1.00" />
<line x1="2.36" y1="0.00" x2="2.36" y2="2.00" />

<line x1="2.61" y1="0.00" x2="2.61" y2="1.00" />
<line x1="2.74" y1="0.00" x2="2.74" y2="1.00" />
<line x1="2.86" y1="0.00" x2="2.86" y2="2.00" />
<line x1="2.99" y1="0.00" x2="2.99" y2="1.00" />
<line x1="3.11" y1="0.00" x2="3.11" y2="2.00" />

<line x1="3.36" y1="0.00" x2="3.36" y2="1.00" />
<line x1="3.48" y1="0.00" x2="3.48" y2="2.00" />

<line x1="3.73" y1="0.00" x2="3.73" y2="3.00" />
<line x1="3.86" y1="0.00" x2="3.86" y2="4.00" />

<line x1="4.11" y1="0.00" x2="4.11" y2="1.00" />

<line x1="4.36" y1="0.00" x2="4.36" y2="1.00" />
<line x1="4.48" y1="0.00" x2="4.48" y2="1.00" />

<line x1="4.73" y1="0.00" x2="4.73" y2="2.00" />
<line x1="4.85" y1="0.00" x2="4.85" y2="3.00" />

<line x1="5.10" y1="0.00" x2="5.10" y2="1.00" />
<line x1="5.23" y1="0.00" x2="5.23" y2="1.00" />
<line x1="5.35" y1="0.00" x2="5.35" y2="2.00" />
<line x1="5.48" y1="0.00" x2="5.48" y2="1.00" />
<line x1="5.60" y1="0.00" x2="5.60" y2="1.00" />
<line x1="5.73" y1="0.00" x2="5.73" y2="2.00" />
<line x1="5.85" y1="0.00" x2="5.85" y2="3.00" />
<line x1="5.97" y1="0.00" x2="5.97" y2="1.00" />

<line x1="6.22" y1="0.00" x2="6.22" y2="2.00" />
<line x1="6.35" y1="0.00" x2="6.35" y2="3.00" />

<line x1="6.60" y1="0.00" x2="6.60" y2="2.00" />
<line x1="6.72" y1="0.00" x2="6.72" y2="1.00" />
<line x1="6.85" y1="0.00" x2="6.85" y2="2.00" />
<line x1="6.97" y1="0.00" x2="6.97" y2="2.00" />
<line x1="7.09" y1="0.00" x2="7.09" y2="3.00" />

<line x1="7.34" y1="0.00" x2="7.34" y2="1.00" />
<line x1="7.47" y1="0.00" x2="7.47" y2="3.00" />

<line x1="7.72" y1="0.00" x2="7.72" y2="4.00" />
<line x1="7.84" y1="0.00" x2="7.84" y2="5.00" />


<line x1="8.21" y1="0.00" x2="8.21" y2="1.00" />
</g>
</svg>