<svg xmlns="http://www.w3.org/2000/svg" width="161.8" height="100.0" viewBox="-2.7 -5.0 171.8 110.0">
<g fill="none" stroke="black" stroke-width="0.4200%" transform="translate(0, 100.0000) scale(1.1905, -1.1905)">
<circle cx="2.0" cy="0.0" r="0.4" />
<line x1="2.0" y1="0.0" x2="2.0" y2="3.0" />
<line x1="3.9" y1="0.0" x2="3.9" y2="2.0" />
<line x1="5.9" y1="0.0" x2="5.9" y2="5.0" />
<line x1="7.9" y1="0.0" x2="7.9" y2="6.0" />
<line x1="9.8" y1="0.0" x2="9.8" y2="8.0" />
<line x1="11.8" y1="0.0" x2="11.8" y2="10.0" />
<line x1="13.8" y1="0.0" x2="13.8" y2="21.0" />
<line x1="15.8" y1="0.0" x2="15.8" y2="32.0" />
<line x1="17.7" y1="0.0" x2="17.7" y2="28.0" />
<line x1="19.7" y1="0.0" x2="19.7" y2="48.0" />
<line x1="21.7" y1="0.0" x2="21.7" y2="48.0" />
<line x1="23.6" y1="0.0" x2="23.6" y2="82.0" />
<line x1="25.6" y1="0.0" x2="25.6" y2="75.0" />
<line x1="27.6" y1="0.0" x2="27.6" y2="66.0" />
<line x1="29.5" y1="0.0" x2="29.5" y2="84.0" />
<line x1="31.5" y1="0.0" x2="31.5" y2="75.0" />
<line x1="33.5" y1="0.0" x2="33.5" y2="81.0" />
<line x1="35.5" y1="0.0" x2="35.5" y2="57.0" />
<line x1="37.4" y1="0.0" x2="37.4" y2="64.0" />
<line x1="39.4" y1="0.0" x2="39.4" y2="60.0" />
<line x1="41.4" y1="0.0" x2="41.4" y2="64.0" />
<line x1="43.3" y1="0.0" x2="43.3" y2="37.0" />
<line x1="45.3" y1="0.0" x2="45.3" y2="36.0" />
<line x1="47.3" y1="0.0" x2="47.3" y2="31.0" />
<line x1="49.2" y1="0.0" x2="49.2" y2="31.0" />
<line x1="51.2" y1="0.0" x2="51.2" y2="27.0" />
<line x1="53.2" y1="0.0" x2="53.2" y2="29.0" />
<line x1="55.2" y1="0.0" x2="55.2" y2="22.0" />
<line x1="57.1" y1="0.0" x2="57.1" y2="17.0" />
<line x1="59.1" y1="0.0" x2="59.1" y2="27.0" />
<line x1="61.1" y1="0.0" x2="61.1" y2="28.0" />
<line x1="63.0" y1="0.0" x2="63.0" y2="29.0" />
<line x1="65.0" y1="0.0" x2="65.0" y2="35.0" />
<line x1="67.0" y1="0.0" x2="67.0" y2="27.0" />
<line x1="68.9" y1="0.0" x2="68.9" y2="37.0" />
<line x1="70.9" y1="0.0" x2="70.9" y2="36.0" />
<line x1="72.9" y1="0.0" x2="72.9" y2="32.0" />
<line x1="74.9" y1="0.0" x2="74.9" y2="22.0" />
<line x1="76.8" y1="0.0" x2="76.8" y2="35.0" />
<line x1="78.8" y1="0.0" x2="78.8" y2="40.0" />
<line x1="80.8" y1="0.0" x2="80.8" y2="34.0" />
<line x1="82.7" y1="0.0" x2="82.7" y2="28.0" />
<line x1="84.7" y1="0.0" x2="84.7" y2="32.0" />
<line x1="86.7" y1="0.0" x2="86.7" y2="46.0" />
<line x1="88.6" y1="0.0" x2="88.6" y2="30.0" />
<line x1="90.6" y1="0.0" x2="90.6" y2="44.0" />
<line x1="92.6" y1="0.0" x2="92.6" y2="39.0" />
<line x1="94.5" y1="0.0" x2="94.5" y2="34.0" />
<line x1="96.5" y1="0.0" x2="96.5" y2="31.0" />
<line x1="98.5" y1="0.0" x2="98.5" y2="32.0" />
<line x1="100.5" y1="0.0" x2="100.5" y2="28.0" />
<line x1="102.4" y1="0.0" x2="102.4" y2="18.0" />
<line x1="104.4" y1="0.0" x2="104.4" y2="16.0" />
<line x1="106.4" y1="0.0" x2="106.4" y2="9.0" />
<line x1="108.3" y1="0.0" x2="108.3" y2="15.0" />
<line x1="110.3" y1="0.0" x2="110.3" y2="11.0" />
<line x1="112.3" y1="0.0" x2="112.3" y2="9.0" />
<line x1="114.2" y1="0.0" x2="114.2" y2="13.0" />
<line x1="116.2" y1="0.0" x2="116.2" y2="10.0" />
<line x1="118.2" y1="0.0" x2="118.2" y2="4.0" />
<line x1="120.2" y1="0.0" x2="120.2" y2="5.0" />
<line x1="122.1" y1="0.0" x2="122.1" y2="6.0" />
<line x1="124.1" y1="0.0" x2="124.1" y2="3.0" />
<line x1="126.1" y1="0.0" x2="126.1" y2="1.0" />
<line x1="128.0" y1="0.0" x2="128.0" y2="3.0" />
<line x1="130.0" y1="0.0" x2="130.0" y2="1.0" />
<line x1="132.0" y1="0.0" x2="132.0" y2="0.0" />
<line x1="133.9" y1="0.0" x2="133.9" y2="0.0" />
<line x1="135.9" y1="0.0" x2="135.9" y2="1.0" />
<line x1="137.9" y1="0.0" x2="137.9" y2="0.0" />
</g>
</svg>