<svg xmlns="http://www.w3.org/2000/svg" width="161.8" height="100.0" viewBox="-3.80 -5.00 171.80 110.00">
<g fill="none" stroke="black" stroke-width="0.0900%" transform="translate(0, 100.0000) scale(5.5580, -5.5580)">
<circle cx="0.22" cy="0.00" r="0.09" />
<circle cx="0.43" cy="0.69" r="0.09" />
<circle cx="0.65" cy="0.00" r="0.09" />
<circle cx="0.86" cy="1.61" r="0.09" />
<circle cx="1.08" cy="1.39" r="0.09" />
<circle cx="1.29" cy="0.00" r="0.09" />
<circle cx="1.51" cy="2.64" r="0.09" />
<circle cx="1.73" cy="2.64" r="0.09" />
<circle cx="1.94" cy="1.79" r="0.09" />
<circle cx="2.16" cy="0.00" r="0.09" />
<circle cx="2.37" cy="3.74" r="0.09" />
<circle cx="2.59" cy="3.87" r="0.09" />
<circle cx="2.80" cy="3.30" r="0.09" />
<circle cx="3.02" cy="2.08" r="0.09" />
<circle cx="3.23" cy="0.00" r="0.09" />
<circle cx="3.45" cy="4.88" r="0.09" />
<circle cx="3.67" cy="5.11" r="0.09" />
<circle cx="3.88" cy="4.70" r="0.09" />
<circle cx="4.10" cy="3.78" r="0.09" />
<circle cx="4.31" cy="2.30" r="0.09" />
<circle cx="4.53" cy="0.00" r="0.09" />
<circle cx="4.74" cy="6.06" r="0.09" />
<circle cx="4.96" cy="6.35" r="0.09" />
<circle cx="5.18" cy="6.06" r="0.09" />
<circle cx="5.39" cy="5.34" r="0.09" />
<circle cx="5.61" cy="4.17" r="0.09" />
<circle cx="5.82" cy="2.48" r="0.09" />
<circle cx="6.04" cy="0.00" r="0.09" />
<circle cx="6.25" cy="7.27" r="0.09" />
<circle cx="6.47" cy="7.60" r="0.09" />
<circle cx="6.68" cy="7.40" r="0.09" />
<circle cx="6.90" cy="6.81" r="0.09" />
<circle cx="7.12" cy="5.86" r="0.09" />
<circle cx="7.33" cy="4.50" r="0.09" />
<circle cx="7.55" cy="2.64" r="0.09" />
<circle cx="7.76" cy="0.00" r="0.09" />
<circle cx="7.98" cy="8.49" r="0.09" />
<circle cx="8.19" cy="8.86" r="0.09" />
<circle cx="8.41" cy="8.73" r="0.09" />
<circle cx="8.63" cy="8.24" r="0.09" />
<circle cx="8.84" cy="7.44" r="0.09" />
<circle cx="9.06" cy="6.30" r="0.09" />
<circle cx="9.27" cy="4.78" r="0.09" />
<circle cx="9.49" cy="2.77" r="0.09" />
<circle cx="9.70" cy="0.00" r="0.09" />
<circle cx="9.92" cy="9.73" r="0.09" />
<circle cx="10.14" cy="10.13" r="0.09" />
<circle cx="10.35" cy="10.05" r="0.09" />
<circle cx="10.57" cy="9.65" r="0.09" />
<circle cx="10.78" cy="8.96" r="0.09" />
<circle cx="11.00" cy="7.97" r="0.09" />
<circle cx="11.21" cy="6.68" r="0.09" />
<circle cx="11.43" cy="5.02" r="0.09" />
<circle cx="11.64" cy="2.89" r="0.09" />
<circle cx="11.86" cy="0.00" r="0.09" />
<circle cx="12.08" cy="10.98" r="0.09" />
<circle cx="12.29" cy="11.41" r="0.09" />
<circle cx="12.51" cy="11.38" r="0.09" />
<circle cx="12.72" cy="11.04" r="0.09" />
<circle cx="12.94" cy="10.43" r="0.09" />
<circle cx="13.15" cy="9.57" r="0.09" />
<circle cx="13.37" cy="8.45" r="0.09" />
<circle cx="13.59" cy="7.02" r="0.09" />
<circle cx="13.80" cy="5.24" r="0.09" />
<circle cx="14.02" cy="3.00" r="0.09" />
<circle cx="14.23" cy="0.00" r="0.09" />
<circle cx="14.45" cy="12.25" r="0.09" />
<circle cx="14.66" cy="12.70" r="0.09" />
<circle cx="14.88" cy="12.70" r="0.09" />
<circle cx="15.09" cy="12.41" r="0.09" />
<circle cx="15.31" cy="11.88" r="0.09" />
<circle cx="15.53" cy="11.12" r="0.09" />
<circle cx="15.74" cy="10.12" r="0.09" />
<circle cx="15.96" cy="8.87" r="0.09" />
<circle cx="16.17" cy="7.33" r="0.09" />
<circle cx="16.39" cy="5.44" r="0.09" />
<circle cx="16.60" cy="3.09" r="0.09" />
<circle cx="16.82" cy="0.00" r="0.09" />
<circle cx="17.04" cy="13.52" r="0.09" />
<circle cx="17.25" cy="13.99" r="0.09" />
<circle cx="17.47" cy="14.02" r="0.09" />
<circle cx="17.68" cy="13.78" r="0.09" />
<circle cx="17.90" cy="13.31" r="0.09" />
<circle cx="18.11" cy="12.62" r="0.09" />
<circle cx="18.33" cy="11.73" r="0.09" />
<circle cx="18.55" cy="10.61" r="0.09" />
<circle cx="18.76" cy="9.24" r="0.09" />
<circle cx="18.98" cy="7.60" r="0.09" />
<circle cx="19.19" cy="5.62" r="0.09" />
<circle cx="19.41" cy="3.18" r="0.09" />
<circle cx="19.62" cy="0.00" r="0.09" />
<circle cx="19.84" cy="14.80" r="0.09" />
<circle cx="20.05" cy="15.28" r="0.09" />
<circle cx="20.27" cy="15.34" r="0.09" />
<circle cx="20.49" cy="15.14" r="0.09" />
<circle cx="20.70" cy="14.72" r="0.09" />
<circle cx="20.92" cy="14.10" r="0.09" />
<circle cx="21.13" cy="13.29" r="0.09" />
<circle cx="21.35" cy="12.28" r="0.09" />
<circle cx="21.56" cy="11.05" r="0.09" />
<circle cx="21.78" cy="9.59" r="0.09" />
<circle cx="22.00" cy="7.85" r="0.09" />
<circle cx="22.21" cy="5.78" r="0.09" />
<circle cx="22.43" cy="3.26" r="0.09" />
<circle cx="22.64" cy="0.00" r="0.09" />
<circle cx="22.86" cy="16.09" r="0.09" />
<circle cx="23.07" cy="16.59" r="0.09" />
<circle cx="23.29" cy="16.67" r="0.09" />
<circle cx="23.50" cy="16.49" r="0.09" />
<circle cx="23.72" cy="16.12" r="0.09" />
<circle cx="23.94" cy="15.56" r="0.09" />
<circle cx="24.15" cy="14.82" r="0.09" />
<circle cx="24.37" cy="13.90" r="0.09" />
<circle cx="24.58" cy="12.78" r="0.09" />
<circle cx="24.80" cy="11.46" r="0.09" />
<circle cx="25.01" cy="9.91" r="0.09" />
<circle cx="25.23" cy="8.09" r="0.09" />
<circle cx="25.45" cy="5.93" r="0.09" />
<circle cx="25.66" cy="3.33" r="0.09" />
<circle cx="25.88" cy="0.00" r="0.09" />
<circle cx="26.09" cy="17.38" r="0.09" />
<circle cx="26.31" cy="17.89" r="0.09" />
<circle cx="26.52" cy="17.99" r="0.09" />
<circle cx="26.74" cy="17.85" r="0.09" />
<circle cx="26.96" cy="17.51" r="0.09" />
<circle cx="27.17" cy="17.00" r="0.09" />
<circle cx="27.39" cy="16.32" r="0.09" />
<circle cx="27.60" cy="15.48" r="0.09" />
<circle cx="27.82" cy="14.45" r="0.09" />
<circle cx="28.03" cy="13.25" r="0.09" />
<circle cx="28.25" cy="11.84" r="0.09" />
<circle cx="28.46" cy="10.20" r="0.09" />
<circle cx="28.68" cy="8.30" r="0.09" />
<circle cx="28.90" cy="6.07" r="0.09" />
<circle cx="29.11" cy="3.40" r="0.09" />
<circle cx="29.33" cy="0.00" r="0.09" />
</g>
</svg>