<svg xmlns="http://www.w3.org/2000/svg" width="161.8" height="100.0" viewBox="-3.20 -55.88 171.80 110.00">
<g fill="none" stroke="black" stroke-width="0.0225%" transform="translate(0, -1.7502) scale(22.2285, -22.2285)">
<line x1="0.08" y1="0.00" x2="0.08" y2="0.52" />

<line x1="0.24" y1="0.00" x2="0.24" y2="0.52" />

<line x1="0.40" y1="0.00" x2="0.40" y2="-0.52" />
<line x1="0.49" y1="0.00" x2="0.49" y2="0.52" />


<line x1="0.73" y1="0.00" x2="0.73" y2="-0.75" />
<line x1="0.81" y1="0.00" x2="0.81" y2="0.52" />


<line x1="1.05" y1="0.00" x2="1.05" y2="0.52" />
<line x1="1.13" y1="0.00" x2="1.13" y2="-0.90" />
<line x1="1.21" y1="0.00" x2="1.21" y2="0.52" />



<line x1="1.54" y1="0.00" x2="1.54" y2="0.90" />
<line x1="1.62" y1="0.00" x2="1.62" y2="-1.01" />
<line x1="1.70" y1="0.00" x2="1.70" y2="0.52" />



<line x1="2.02" y1="0.00" x2="2.02" y2="-0.52" />
<line x1="2.10" y1="0.00" x2="2.10" y2="1.17" />
<line x1="2.18" y1="0.00" x2="2.18" y2="-1.10" />
<line x1="2.26" y1="0.00" x2="2.26" y2="0.52" />




<line x1="2.67" y1="0.00" x2="2.67" y2="-1.01" />
<line x1="2.75" y1="0.00" x2="2.75" y2="1.38" />
<line x1="2.83" y1="0.00" x2="2.83" y2="-1.17" />
<line x1="2.91" y1="0.00" x2="2.91" y2="0.52" />




<line x1="3.32" y1="0.00" x2="3.32" y2="0.52" />
<line x1="3.40" y1="0.00" x2="3.40" y2="-1.38" />
<line x1="3.48" y1="0.00" x2="3.48" y2="1.55" />
<line x1="3.56" y1="0.00" x2="3.56" y2="-1.23" />
<line x1="3.64" y1="0.00" x2="3.64" y2="0.52" />





<line x1="4.12" y1="0.00" x2="4.12" y2="1.10" />
<line x1="4.21" y1="0.00" x2="4.21" y2="-1.67" />
<line x1="4.29" y1="0.00" x2="4.29" y2="1.69" />
<line x1="4.37" y1="0.00" x2="4.37" y2="-1.29" />
<line x1="4.45" y1="0.00" x2="4.45" y2="0.52" />





<line x1="4.93" y1="0.00" x2="4.93" y2="-0.52" />
<line x1="5.01" y1="0.00" x2="5.01" y2="1.55" />
<line x1="5.10" y1="0.00" x2="5.10" y2="-1.91" />
<line x1="5.18" y1="0.00" x2="5.18" y2="1.82" />
<line x1="5.26" y1="0.00" x2="5.26" y2="-1.34" />
<line x1="5.34" y1="0.00" x2="5.34" y2="0.52" />






<line x1="5.90" y1="0.00" x2="5.90" y2="-1.17" />
<line x1="5.99" y1="0.00" x2="5.99" y2="1.91" />
<line x1="6.07" y1="0.00" x2="6.07" y2="-2.11" />
<line x1="6.15" y1="0.00" x2="6.15" y2="1.92" />
<line x1="6.23" y1="0.00" x2="6.23" y2="-1.38" />
<line x1="6.31" y1="0.00" x2="6.31" y2="0.52" />
<line x1="6.39" y1="0.00" x2="6.39" y2="-0.00" />





<line x1="6.87" y1="0.00" x2="6.87" y2="0.52" />
<line x1="6.96" y1="0.00" x2="6.96" y2="-1.69" />
<line x1="7.04" y1="0.00" x2="7.04" y2="2.21" />
<line x1="7.12" y1="0.00" x2="7.12" y2="-2.29" />
<line x1="7.20" y1="0.00" x2="7.20" y2="2.02" />
<line x1="7.28" y1="0.00" x2="7.28" y2="-1.42" />
<line x1="7.36" y1="0.00" x2="7.36" y2="0.52" />
</g>
</svg>