<svg xmlns="http://www.w3.org/2000/svg" width="161.8" height="100.0" viewBox="-3.59 -5.00 171.80 110.00">
<g fill="none" stroke="black" stroke-width="0.0400%" transform="translate(0, 100.0000) scale(12.5000, -12.5000)">
<line x1="0.11" y1="0.00" x2="0.11" y2="1.00" />
<line x1="0.23" y1="0.00" x2="0.23" y2="1.00" />
<line x1="0.34" y1="0.00" x2="0.34" y2="6.00" />
<line x1="0.45" y1="0.00" x2="0.45" y2="6.00" />
<line x1="0.56" y1="0.00" x2="0.56" y2="1.00" />
<line x1="0.68" y1="0.00" x2="0.68" y2="3.00" />
<line x1="0.79" y1="0.00" x2="0.79" y2="8.00" />
<line x1="0.90" y1="0.00" x2="0.90" y2="8.00" />
<line x1="1.01" y1="0.00" x2="1.01" y2="8.00" />
<line x1="1.13" y1="0.00" x2="1.13" y2="8.00" />
<line x1="1.24" y1="0.00" x2="1.24" y2="6.00" />
<line x1="1.35" y1="0.00" x2="1.35" y2="6.00" />
<line x1="1.46" y1="0.00" x2="1.46" y2="6.00" />
<line x1="1.58" y1="0.00" x2="1.58" y2="6.00" />
<line x1="1.69" y1="0.00" x2="1.69" y2="6.00" />

<line x1="1.91" y1="0.00" x2="1.91" y2="5.00" />
<line x1="2.03" y1="0.00" x2="2.03" y2="5.00" />


<line x1="2.36" y1="0.00" x2="2.36" y2="5.00" />
<line x1="2.48" y1="0.00" x2="2.48" y2="5.00" />



<line x1="2.93" y1="0.00" x2="2.93" y2="6.00" />
<line x1="3.04" y1="0.00" x2="3.04" y2="6.00" />
<line x1="3.15" y1="0.00" x2="3.15" y2="6.00" />
<line x1="3.26" y1="0.00" x2="3.26" y2="6.00" />
<line x1="3.38" y1="0.00" x2="3.38" y2="6.00" />
<line x1="3.49" y1="0.00" x2="3.49" y2="8.00" />
<line x1="3.60" y1="0.00" x2="3.60" y2="8.00" />
<line x1="3.71" y1="0.00" x2="3.71" y2="3.00" />
<line x1="3.83" y1="0.00" x2="3.83" y2="3.00" />
<line x1="3.94" y1="0.00" x2="3.94" y2="8.00" />
<line x1="4.05" y1="0.00" x2="4.05" y2="6.00" />
<line x1="4.16" y1="0.00" x2="4.16" y2="1.00" />
<line x1="4.28" y1="0.00" x2="4.28" y2="1.00" />
<line x1="4.39" y1="0.00" x2="4.39" y2="6.00" />
<line x1="4.50" y1="0.00" x2="4.50" y2="6.00" />








<line x1="5.52" y1="0.00" x2="5.52" y2="5.00" />
<line x1="5.63" y1="0.00" x2="5.63" y2="5.00" />
<line x1="5.74" y1="0.00" x2="5.74" y2="6.00" />
<line x1="5.85" y1="0.00" x2="5.85" y2="6.00" />
<line x1="5.97" y1="0.00" x2="5.97" y2="1.00" />
<line x1="6.08" y1="0.00" x2="6.08" y2="1.00" />
<line x1="6.19" y1="0.00" x2="6.19" y2="6.00" />
<line x1="6.30" y1="0.00" x2="6.30" y2="8.00" />
<line x1="6.42" y1="0.00" x2="6.42" y2="8.00" />
<line x1="6.53" y1="0.00" x2="6.53" y2="8.00" />
<line x1="6.64" y1="0.00" x2="6.64" y2="8.00" />
<line x1="6.75" y1="0.00" x2="6.75" y2="8.00" />
<line x1="6.87" y1="0.00" x2="6.87" y2="6.00" />
<line x1="6.98" y1="0.00" x2="6.98" y2="6.00" />
<line x1="7.09" y1="0.00" x2="7.09" y2="6.00" />
<line x1="7.20" y1="0.00" x2="7.20" y2="6.00" />
<line x1="7.32" y1="0.00" x2="7.32" y2="1.00" />
<line x1="7.43" y1="0.00" x2="7.43" y2="5.00" />


<line x1="7.77" y1="0.00" x2="7.77" y2="5.00" />
<line x1="7.88" y1="0.00" x2="7.88" y2="5.00" />





<line x1="8.55" y1="0.00" x2="8.55" y2="6.00" />
<line x1="8.67" y1="0.00" x2="8.67" y2="6.00" />
<line x1="8.78" y1="0.00" x2="8.78" y2="6.00" />
<line x1="8.89" y1="0.00" x2="8.89" y2="6.00" />
<line x1="9.00" y1="0.00" x2="9.00" y2="6.00" />
<line x1="9.12" y1="0.00" x2="9.12" y2="3.00" />
<line x1="9.23" y1="0.00" x2="9.23" y2="3.00" />
<line x1="9.34" y1="0.00" x2="9.34" y2="8.00" />
<line x1="9.45" y1="0.00" x2="9.45" y2="8.00" />
<line x1="9.57" y1="0.00" x2="9.57" y2="3.00" />
<line x1="9.68" y1="0.00" x2="9.68" y2="1.00" />
<line x1="9.79" y1="0.00" x2="9.79" y2="6.00" />
<line x1="9.91" y1="0.00" x2="9.91" y2="6.00" />
<line x1="10.02" y1="0.00" x2="10.02" y2="6.00" />
<line x1="10.13" y1="0.00" x2="10.13" y2="6.00" />






<line x1="10.92" y1="0.00" x2="10.92" y2="5.00" />
<line x1="11.03" y1="0.00" x2="11.03" y2="5.00" />


<line x1="11.37" y1="0.00" x2="11.37" y2="1.00" />
<line x1="11.48" y1="0.00" x2="11.48" y2="1.00" />
<line x1="11.59" y1="0.00" x2="11.59" y2="6.00" />
<line x1="11.71" y1="0.00" x2="11.71" y2="6.00" />
<line x1="11.82" y1="0.00" x2="11.82" y2="6.00" />
<line x1="11.93" y1="0.00" x2="11.93" y2="8.00" />
<line x1="12.04" y1="0.00" x2="12.04" y2="8.00" />
<line x1="12.16" y1="0.00" x2="12.16" y2="8.00" />
<line x1="12.27" y1="0.00" x2="12.27" y2="8.00" />
<line x1="12.38" y1="0.00" x2="12.38" y2="8.00" />
<line x1="12.49" y1="0.00" x2="12.49" y2="6.00" />
<line x1="12.61" y1="0.00" x2="12.61" y2="6.00" />
<line x1="12.72" y1="0.00" x2="12.72" y2="1.00" />
<line x1="12.83" y1="0.00" x2="12.83" y2="1.00" />
<line x1="12.94" y1="0.00" x2="12.94" y2="6.00" />

</g>
</svg>