<svg xmlns="http://www.w3.org/2000/svg" width="161.8" height="100.0" viewBox="-5.00 -5.00 171.80 110.00">
<g fill="none" stroke="black" stroke-width="0.1250%" transform="translate(0, 100.0000) scale(4.0000, -4.0000)">
<polyline points="0.00,1.00 0.00,1.00 0.00,1.00 0.81,1.00 0.81,2.00 1.62,2.00 1.62,3.00 2.43,3.00 2.43,3.00 3.24,3.00 3.24,3.00 4.05,3.00 4.05,3.00 4.85,3.00 4.85,3.00 5.66,3.00 5.66,3.00 6.47,3.00 6.47,3.00 7.28,3.00 7.28,3.00 8.09,3.00 8.09,3.00 8.90,3.00 8.90,4.00 9.71,4.00 9.71,4.00 10.52,4.00 10.52,5.00 11.33,5.00 11.33,5.00 12.14,5.00 12.14,5.00 12.94,5.00 12.94,5.00 13.75,5.00 13.75,6.00 14.56,6.00 14.56,7.00 15.37,7.00 15.37,8.00 16.18,8.00 16.18,9.00 16.99,9.00 16.99,9.00 17.80,9.00 17.80,10.00 18.61,10.00 18.61,11.00 19.42,11.00 19.42,12.00 20.23,12.00 20.23,12.00 21.03,12.00 21.03,12.00 21.84,12.00 21.84,13.00 22.65,13.00 22.65,13.00 23.46,13.00 23.46,13.00 24.27,13.00 24.27,13.00 25.08,13.00 25.08,13.00 25.89,13.00 25.89,14.00 26.70,14.00 26.70,14.00 27.51,14.00 27.51,14.00 28.32,14.00 28.32,14.00 29.12,14.00 29.12,14.00 29.93,14.00 29.93,15.00 30.74,15.00 30.74,15.00 31.55,15.00 31.55,15.00 32.36,15.00 32.36,15.00 33.17,15.00 33.17,16.00 33.98,16.00 33.98,17.00 34.79,17.00 34.79,17.00 35.60,17.00 35.60,18.00 36.41,18.00 36.41,18.00 37.21,18.00 37.21,19.00 38.02,19.00 38.02,20.00 38.83,20.00 38.83,21.00 39.64,21.00 39.64,21.00 40.45,21.00" />
<polyline points="0.00,1.00 0.00,1.00 0.00,1.00 0.81,1.00 0.81,1.00 1.62,1.00 1.62,1.00 2.43,1.00 2.43,1.00 3.24,1.00 3.24,2.00 4.05,2.00 4.05,3.00 4.85,3.00 4.85,4.00 5.66,4.00 5.66,5.00 6.47,5.00 6.47,5.00 7.28,5.00 7.28,5.00 8.09,5.00 8.09,5.00 8.90,5.00 8.90,5.00 9.71,5.00 9.71,6.00 10.52,6.00 10.52,7.00 11.33,7.00 11.33,8.00 12.14,8.00 12.14,9.00 12.94,9.00 12.94,9.00 13.75,9.00 13.75,9.00 14.56,9.00 14.56,9.00 15.37,9.00 15.37,9.00 16.18,9.00 16.18,10.00 16.99,10.00 16.99,10.00 17.80,10.00 17.80,11.00 18.61,11.00 18.61,12.00 19.42,12.00 19.42,12.00 20.23,12.00 20.23,12.00 21.03,12.00 21.03,12.00 21.84,12.00 21.84,13.00 22.65,13.00 22.65,13.00 23.46,13.00 23.46,14.00 24.27,14.00 24.27,15.00 25.08,15.00 25.08,15.00 25.89,15.00 25.89,16.00 26.70,16.00 26.70,16.00 27.51,16.00 27.51,17.00 28.32,17.00 28.32,18.00 29.12,18.00 29.12,19.00 29.93,19.00 29.93,19.00 30.74,19.00 30.74,20.00 31.55,20.00 31.55,20.00 32.36,20.00 32.36,21.00 33.17,21.00 33.17,21.00 33.98,21.00 33.98,21.00 34.79,21.00 34.79,22.00 35.60,22.00 35.60,22.00 36.41,22.00 36.41,22.00 37.21,22.00 37.21,22.00 38.02,22.00 38.02,22.00 38.83,22.00 38.83,22.00 39.64,22.00 39.64,23.00 40.45,23.00" />
<polyline points="0.00,0.00 0.00,0.00 0.00,1.00 0.81,1.00 0.81,2.00 1.62,2.00 1.62,2.00 2.43,2.00 2.43,2.00 3.24,2.00 3.24,3.00 4.05,3.00 4.05,3.00 4.85,3.00 4.85,3.00 5.66,3.00 5.66,3.00 6.47,3.00 6.47,3.00 7.28,3.00 7.28,4.00 8.09,4.00 8.09,4.00 8.90,4.00 8.90,5.00 9.71,5.00 9.71,6.00 10.52,6.00 10.52,6.00 11.33,6.00 11.33,6.00 12.14,6.00 12.14,7.00 12.94,7.00 12.94,8.00 13.75,8.00 13.75,8.00 14.56,8.00 14.56,8.00 15.37,8.00 15.37,9.00 16.18,9.00 16.18,10.00 16.99,10.00 16.99,11.00 17.80,11.00 17.80,12.00 18.61,12.00 18.61,12.00 19.42,12.00 19.42,13.00 20.23,13.00 20.23,14.00 21.03,14.00 21.03,15.00 21.84,15.00 21.84,15.00 22.65,15.00 22.65,15.00 23.46,15.00 23.46,16.00 24.27,16.00 24.27,17.00 25.08,17.00 25.08,17.00 25.89,17.00 25.89,17.00 26.70,17.00 26.70,17.00 27.51,17.00 27.51,17.00 28.32,17.00 28.32,18.00 29.12,18.00 29.12,18.00 29.93,18.00 29.93,18.00 30.74,18.00 30.74,19.00 31.55,19.00 31.55,19.00 32.36,19.00 32.36,20.00 33.17,20.00 33.17,20.00 33.98,20.00 33.98,21.00 34.79,21.00 34.79,21.00 35.60,21.00 35.60,22.00 36.41,22.00 36.41,23.00 37.21,23.00 37.21,23.00 38.02,23.00 38.02,24.00 38.83,24.00 38.83,24.00 39.64,24.00 39.64,25.00 40.45,25.00" />
<polyline points="0.00,0.00 0.00,0.00 0.00,0.00 0.81,0.00 0.81,1.00 1.62,1.00 1.62,2.00 2.43,2.00 2.43,2.00 3.24,2.00 3.24,2.00 4.05,2.00 4.05,3.00 4.85,3.00 4.85,3.00 5.66,3.00 5.66,3.00 6.47,3.00 6.47,3.00 7.28,3.00 7.28,3.00 8.09,3.00 8.09,3.00 8.90,3.00 8.90,3.00 9.71,3.00 9.71,3.00 10.52,3.00 10.52,3.00 11.33,3.00 11.33,4.00 12.14,4.00 12.14,5.00 12.94,5.00 12.94,5.00 13.75,5.00 13.75,5.00 14.56,5.00 14.56,6.00 15.37,6.00 15.37,7.00 16.18,7.00 16.18,8.00 16.99,8.00 16.99,8.00 17.80,8.00 17.80,9.00 18.61,9.00 18.61,10.00 19.42,10.00 19.42,10.00 20.23,10.00 20.23,10.00 21.03,10.00 21.03,10.00 21.84,10.00 21.84,10.00 22.65,10.00 22.65,10.00 23.46,10.00 23.46,11.00 24.27,11.00 24.27,11.00 25.08,11.00 25.08,11.00 25.89,11.00 25.89,11.00 26.70,11.00 26.70,11.00 27.51,11.00 27.51,12.00 28.32,12.00 28.32,13.00 29.12,13.00 29.12,13.00 29.93,13.00 29.93,14.00 30.74,14.00 30.74,14.00 31.55,14.00 31.55,15.00 32.36,15.00 32.36,15.00 33.17,15.00 33.17,15.00 33.98,15.00 33.98,15.00 34.79,15.00 34.79,15.00 35.60,15.00 35.60,15.00 36.41,15.00 36.41,15.00 37.21,15.00 37.21,15.00 38.02,15.00 38.02,15.00 38.83,15.00 38.83,15.00 39.64,15.00 39.64,16.00 40.45,16.00" />
</g>
</svg>