<svg xmlns="http://www.w3.org/2000/svg" width="161.80" height="100.00" viewBox="-58.48 -54.32 171.80 110.00">
<g fill="none" stroke="black" stroke-width="0.04%" transform="translate(0, 1.36) scale(12.67, -12.67)">
<circle cx="-4.22" cy="0.00" r="0.04" />
<circle cx="0.00" cy="4.00" r="0.04" />
<polyline points="-4.22,-3.89 -4.09,-3.64 -3.97,-3.40 -3.84,-3.18 -3.71,-2.96 -3.58,-2.75 -3.45,-2.55 -3.33,-2.36 -3.20,-2.18 -3.07,-2.01 -2.94,-1.84 -2.82,-1.69 -2.69,-1.54 -2.56,-1.40 -2.43,-1.27 -2.31,-1.15 -2.18,-1.04 -2.05,-0.93 -1.92,-0.83 -1.79,-0.73 -1.67,-0.64 -1.54,-0.56 -1.41,-0.49 -1.28,-0.42 -1.16,-0.35 -1.03,-0.29 -0.90,-0.24 -0.77,-0.19 -0.65,-0.15 -0.52,-0.11 -0.39,-0.08 -0.26,-0.05 -0.13,-0.02 -0.01,-0.00 0.12,0.02 0.25,0.03 0.38,0.04 0.50,0.05 0.63,0.06 0.76,0.06 0.89,0.06 1.01,0.06 1.14,0.06 1.27,0.06 1.40,0.05 1.53,0.04 1.65,0.04 1.78,0.03 1.91,0.02 2.04,0.01 2.16,-0.00 2.29,-0.01 2.42,-0.02 2.55,-0.03 2.67,-0.04 2.80,-0.05 2.93,-0.05 3.06,-0.06 3.19,-0.06 3.31,-0.06 3.44,-0.06 3.57,-0.06 3.70,-0.06 3.82,-0.05 3.95,-0.04 4.08,-0.03 4.21,-0.01 4.34,0.01 4.46,0.03 4.59,0.06 4.72,0.09 4.85,0.13 4.97,0.17 5.10,0.21 5.23,0.26 5.36,0.32 5.48,0.38 5.61,0.45 5.74,0.52 5.87,0.60 6.00,0.68 6.12,0.77 6.25,0.87 6.38,0.97 6.51,1.08 6.63,1.20 6.76,1.33 6.89,1.46 7.02,1.60 7.14,1.75 7.27,1.91 7.40,2.08 7.53,2.25 7.66,2.44 7.78,2.63 7.91,2.83 8.04,3.05 8.17,3.27 8.29,3.50 8.42,3.75 8.55,4.00" />
</g>
</svg>