<svg xmlns="http://www.w3.org/2000/svg" width="161.8" height="100.0" viewBox="-3.35 -55.00 171.80 110.00">
<g fill="none" stroke="black" stroke-width="0.0696%" transform="translate(0, 0.0000) scale(7.1792, -7.1792)">
<circle cx="0.23" cy="0.00" r="0.07" />
<polyline points="0.23,6.96 0.46,4.87 0.68,3.93 0.91,3.35 1.13,2.95 1.36,2.65 1.58,2.41 1.81,2.21 2.03,2.05 2.26,1.91 2.48,1.79 2.71,1.68 2.93,1.58 3.16,1.49 3.39,1.41 3.61,1.33 3.84,1.26 4.06,1.20 4.29,1.14 4.51,1.08 4.74,1.03 4.96,0.98 5.19,0.93 5.41,0.88 5.64,0.84 5.86,0.79 6.09,0.75 6.32,0.71 6.54,0.68 6.77,0.64 6.99,0.60 7.22,0.57 7.44,0.53 7.67,0.50 7.89,0.47 8.12,0.44 8.34,0.40 8.57,0.37 8.79,0.34 9.02,0.31 9.25,0.28 9.47,0.25 9.70,0.22 9.92,0.20 10.15,0.17 10.37,0.14 10.60,0.11 10.82,0.08 11.05,0.06 11.27,0.03 11.50,0.00 11.72,-0.03 11.95,-0.06 12.18,-0.08 12.40,-0.11 12.63,-0.14 12.85,-0.17 13.08,-0.20 13.30,-0.22 13.53,-0.25 13.75,-0.28 13.98,-0.31 14.20,-0.34 14.43,-0.37 14.65,-0.40 14.88,-0.44 15.10,-0.47 15.33,-0.50 15.56,-0.53 15.78,-0.57 16.01,-0.60 16.23,-0.64 16.46,-0.68 16.68,-0.71 16.91,-0.75 17.13,-0.79 17.36,-0.84 17.58,-0.88 17.81,-0.93 18.03,-0.98 18.26,-1.03 18.49,-1.08 18.71,-1.14 18.94,-1.20 19.16,-1.26 19.39,-1.33 19.61,-1.41 19.84,-1.49 20.06,-1.58 20.29,-1.68 20.51,-1.79 20.74,-1.91 20.96,-2.05 21.19,-2.21 21.42,-2.41 21.64,-2.65 21.87,-2.95 22.09,-3.35 22.32,-3.93 22.54,-4.87 22.77,-6.96" />
</g>
</svg>