<svg xmlns="http://www.w3.org/2000/svg" width="99.5" height="100.0" viewBox="-55.94 -58.21 109.51 110.00">
<g fill="none" stroke="black" stroke-width="0.0256%" transform="translate(0, -6.4271) scale(19.5618, -19.5618)">
<circle cx="-0.26" cy="0.52" r="0.03" />
<circle cx="-0.29" cy="-0.31" r="0.03" />
<circle cx="1.49" cy="-0.23" r="0.03" />
<circle cx="-1.53" cy="1.30" r="0.03" />
<circle cx="0.13" cy="-0.43" r="0.03" />
<circle cx="-0.63" cy="1.04" r="0.03" />
<circle cx="2.48" cy="-1.63" r="0.03" />
<circle cx="-0.66" cy="0.38" r="0.03" />
<circle cx="0.95" cy="-0.99" r="0.03" />
<circle cx="-0.48" cy="-0.19" r="0.03" />
<circle cx="-1.04" cy="1.60" r="0.03" />
<circle cx="0.06" cy="-0.89" r="0.03" />
<circle cx="-0.37" cy="0.41" r="0.03" />
<circle cx="0.85" cy="-0.61" r="0.03" />
<circle cx="2.09" cy="-2.18" r="0.03" />
<circle cx="-1.27" cy="0.89" r="0.03" />
<circle cx="-0.75" cy="0.87" r="0.03" />
<circle cx="0.25" cy="1.17" r="0.03" />
<circle cx="-1.21" cy="0.45" r="0.03" />
<circle cx="0.52" cy="-0.76" r="0.03" />
<circle cx="0.10" cy="-0.39" r="0.03" />
<circle cx="0.41" cy="-1.28" r="0.03" />
<circle cx="0.39" cy="-0.26" r="0.03" />
<circle cx="-1.05" cy="1.20" r="0.03" />
<circle cx="0.59" cy="1.20" r="0.03" />
<circle cx="-1.81" cy="1.31" r="0.03" />
<circle cx="-0.68" cy="0.32" r="0.03" />
<circle cx="-0.22" cy="0.36" r="0.03" />
<circle cx="-0.75" cy="1.87" r="0.03" />
<circle cx="2.45" cy="-1.37" r="0.03" />
<circle cx="-1.25" cy="1.82" r="0.03" />
<circle cx="0.32" cy="-0.43" r="0.03" />
<circle cx="1.21" cy="-0.41" r="0.03" />
<circle cx="-2.27" cy="2.39" r="0.03" />
<circle cx="0.74" cy="0.10" r="0.03" />
<circle cx="-1.11" cy="0.24" r="0.03" />
<circle cx="-1.50" cy="0.54" r="0.03" />
<circle cx="-2.39" cy="1.73" r="0.03" />
<circle cx="0.85" cy="0.09" r="0.03" />
<circle cx="0.15" cy="-0.12" r="0.03" />
<circle cx="0.54" cy="-0.16" r="0.03" />
<circle cx="-1.34" cy="-0.28" r="0.03" />
<circle cx="0.72" cy="-0.48" r="0.03" />
<circle cx="2.23" cy="-1.74" r="0.03" />
<circle cx="0.96" cy="-1.35" r="0.03" />
<circle cx="-0.91" cy="1.12" r="0.03" />
<circle cx="-1.77" cy="0.96" r="0.03" />
<circle cx="0.81" cy="-0.43" r="0.03" />
<circle cx="0.77" cy="-1.00" r="0.03" />
<circle cx="0.21" cy="-0.64" r="0.03" />
<circle cx="-0.38" cy="0.57" r="0.03" />
<circle cx="-0.96" cy="-0.33" r="0.03" />
<circle cx="0.54" cy="-0.05" r="0.03" />
<circle cx="-0.47" cy="-0.07" r="0.03" />
<circle cx="0.72" cy="-1.49" r="0.03" />
<circle cx="-0.38" cy="-0.51" r="0.03" />
<circle cx="0.68" cy="0.46" r="0.03" />
<circle cx="-0.41" cy="-0.12" r="0.03" />
<circle cx="-0.28" cy="-0.30" r="0.03" />
<circle cx="0.22" cy="0.91" r="0.03" />
<circle cx="1.29" cy="-1.88" r="0.03" />
<circle cx="-0.13" cy="-0.84" r="0.03" />
<circle cx="0.26" cy="-0.52" r="0.03" />
<circle cx="-0.71" cy="0.96" r="0.03" />
<circle cx="0.57" cy="-0.14" r="0.03" />
<circle cx="0.59" cy="-0.53" r="0.03" />
<circle cx="0.52" cy="-0.48" r="0.03" />
<circle cx="-1.95" cy="1.70" r="0.03" />
<circle cx="-0.24" cy="0.04" r="0.03" />
<circle cx="0.23" cy="0.66" r="0.03" />
<circle cx="0.56" cy="-0.09" r="0.03" />
<circle cx="-0.77" cy="1.41" r="0.03" />
<circle cx="-0.83" cy="2.01" r="0.03" />
<circle cx="1.54" cy="-0.86" r="0.03" />
<circle cx="-0.14" cy="0.35" r="0.03" />
<circle cx="0.50" cy="-0.96" r="0.03" />
<circle cx="-1.18" cy="0.28" r="0.03" />
<circle cx="0.85" cy="-1.10" r="0.03" />
<circle cx="-0.43" cy="0.75" r="0.03" />
<circle cx="-0.06" cy="-0.56" r="0.03" />
<circle cx="1.85" cy="-1.08" r="0.03" />
<circle cx="0.38" cy="0.85" r="0.03" />
<circle cx="0.83" cy="-1.28" r="0.03" />
<circle cx="-2.32" cy="1.83" r="0.03" />
<circle cx="-0.36" cy="-0.69" r="0.03" />
<circle cx="1.45" cy="-2.19" r="0.03" />
<circle cx="0.36" cy="-1.21" r="0.03" />
<circle cx="0.22" cy="0.36" r="0.03" />
<circle cx="0.14" cy="-0.06" r="0.03" />
<circle cx="1.68" cy="-1.21" r="0.03" />
<circle cx="-0.52" cy="0.18" r="0.03" />
<circle cx="0.89" cy="-0.57" r="0.03" />
<circle cx="-0.23" cy="0.11" r="0.03" />
<circle cx="-1.63" cy="1.08" r="0.03" />
<circle cx="0.90" cy="-1.20" r="0.03" />
<circle cx="0.18" cy="-0.10" r="0.03" />
<circle cx="-0.35" cy="0.64" r="0.03" />
<circle cx="-1.13" cy="1.57" r="0.03" />
<circle cx="-2.16" cy="2.00" r="0.03" />
<circle cx="1.03" cy="-1.41" r="0.03" />
<circle cx="-0.32" cy="-0.74" r="0.03" />
<circle cx="1.55" cy="-0.87" r="0.03" />
<circle cx="0.88" cy="-1.57" r="0.03" />
<circle cx="-0.67" cy="0.15" r="0.03" />
<circle cx="-0.67" cy="0.32" r="0.03" />
<circle cx="0.34" cy="0.46" r="0.03" />
<circle cx="-1.31" cy="1.48" r="0.03" />
<circle cx="-0.03" cy="-0.24" r="0.03" />
<circle cx="1.20" cy="-0.23" r="0.03" />
<circle cx="0.98" cy="-0.50" r="0.03" />
<circle cx="-0.24" cy="-0.47" r="0.03" />
<circle cx="0.38" cy="0.44" r="0.03" />
<circle cx="-0.85" cy="0.02" r="0.03" />
<circle cx="0.62" cy="-0.14" r="0.03" />
<circle cx="0.74" cy="-0.01" r="0.03" />
<circle cx="-1.48" cy="1.28" r="0.03" />
<circle cx="-0.56" cy="0.90" r="0.03" />
<circle cx="0.59" cy="0.63" r="0.03" />
<circle cx="1.39" cy="-1.40" r="0.03" />
<circle cx="-0.48" cy="1.40" r="0.03" />
<circle cx="1.47" cy="-2.72" r="0.03" />
<circle cx="-0.41" cy="0.84" r="0.03" />
<circle cx="0.90" cy="-0.51" r="0.03" />
<circle cx="0.47" cy="0.49" r="0.03" />
<circle cx="1.92" cy="0.01" r="0.03" />
<circle cx="1.43" cy="-1.83" r="0.03" />
<circle cx="-1.78" cy="1.49" r="0.03" />
<circle cx="0.19" cy="-0.40" r="0.03" />
<circle cx="0.47" cy="-0.94" r="0.03" />
<circle cx="2.31" cy="-2.07" r="0.03" />
<circle cx="0.28" cy="0.13" r="0.03" />
<circle cx="-0.49" cy="-0.10" r="0.03" />
<circle cx="-0.53" cy="0.04" r="0.03" />
<circle cx="-0.50" cy="0.24" r="0.03" />
<circle cx="-1.33" cy="-0.53" r="0.03" />
<circle cx="-0.02" cy="0.49" r="0.03" />
<circle cx="0.40" cy="0.53" r="0.03" />
<circle cx="-1.08" cy="0.80" r="0.03" />
<circle cx="-0.41" cy="-0.12" r="0.03" />
<circle cx="-0.85" cy="0.69" r="0.03" />
<circle cx="-0.66" cy="0.84" r="0.03" />
<circle cx="0.38" cy="-0.48" r="0.03" />
<circle cx="1.27" cy="-0.27" r="0.03" />
<circle cx="0.71" cy="-0.84" r="0.03" />
<circle cx="-0.98" cy="0.46" r="0.03" />
<circle cx="0.79" cy="-0.23" r="0.03" />
<circle cx="1.10" cy="-1.42" r="0.03" />
<circle cx="-0.74" cy="1.21" r="0.03" />
<circle cx="0.68" cy="-1.22" r="0.03" />
<circle cx="1.35" cy="-0.76" r="0.03" />
<circle cx="-0.09" cy="-0.54" r="0.03" />
<circle cx="-0.29" cy="0.51" r="0.03" />
<circle cx="1.17" cy="-1.02" r="0.03" />
<circle cx="-1.33" cy="0.82" r="0.03" />
<circle cx="-0.13" cy="-0.76" r="0.03" />
<circle cx="-0.64" cy="1.33" r="0.03" />
<circle cx="1.88" cy="-1.68" r="0.03" />
<circle cx="-0.49" cy="0.23" r="0.03" />
<circle cx="-0.76" cy="0.82" r="0.03" />
<circle cx="-0.10" cy="-0.92" r="0.03" />
<circle cx="0.03" cy="-1.11" r="0.03" />
<circle cx="-0.34" cy="0.02" r="0.03" />
<circle cx="0.35" cy="0.45" r="0.03" />
<circle cx="-0.65" cy="1.52" r="0.03" />
<circle cx="-0.12" cy="0.87" r="0.03" />
<circle cx="2.20" cy="-1.30" r="0.03" />
<circle cx="-0.02" cy="-1.47" r="0.03" />
<circle cx="-0.79" cy="-0.22" r="0.03" />
<circle cx="-1.20" cy="0.98" r="0.03" />
<circle cx="1.02" cy="-0.67" r="0.03" />
<circle cx="1.21" cy="-1.41" r="0.03" />
<circle cx="-0.63" cy="1.51" r="0.03" />
<circle cx="-1.79" cy="0.95" r="0.03" />
<circle cx="0.33" cy="-0.20" r="0.03" />
<circle cx="0.25" cy="0.19" r="0.03" />
<circle cx="0.09" cy="-0.31" r="0.03" />
<circle cx="-1.55" cy="0.86" r="0.03" />
<circle cx="-0.04" cy="-0.48" r="0.03" />
<circle cx="1.47" cy="-0.56" r="0.03" />
<circle cx="-0.54" cy="0.23" r="0.03" />
<circle cx="-0.65" cy="-0.54" r="0.03" />
<circle cx="-0.17" cy="-0.95" r="0.03" />
<circle cx="-0.18" cy="0.40" r="0.03" />
<circle cx="-0.25" cy="-0.12" r="0.03" />
<circle cx="1.17" cy="-1.36" r="0.03" />
<circle cx="-2.27" cy="0.65" r="0.03" />
<circle cx="0.18" cy="0.07" r="0.03" />
<circle cx="-2.60" cy="2.04" r="0.03" />
<circle cx="0.64" cy="0.51" r="0.03" />
<circle cx="-0.44" cy="0.81" r="0.03" />
<circle cx="-0.51" cy="0.48" r="0.03" />
<circle cx="-1.65" cy="1.29" r="0.03" />
<circle cx="0.04" cy="-0.23" r="0.03" />
<circle cx="1.50" cy="0.13" r="0.03" />
<circle cx="-0.40" cy="-0.23" r="0.03" />
<circle cx="-0.20" cy="-0.39" r="0.03" />
<circle cx="-0.61" cy="-0.01" r="0.03" />
<circle cx="0.90" cy="-1.31" r="0.03" />
<circle cx="0.96" cy="0.25" r="0.03" />
<circle cx="1.76" cy="0.18" r="0.03" />
</g>
</svg>