<svg xmlns="http://www.w3.org/2000/svg" width="161.8" height="100.0" viewBox="-4.23 -5.00 171.80 110.00">
<g fill="none" stroke="black" stroke-width="0.0800%" transform="translate(0, 100.0000) scale(6.2500, -6.2500)">
<line x1="0.12" y1="0.00" x2="0.12" y2="2.00" />


<line x1="0.50" y1="0.00" x2="0.50" y2="3.00" />
<line x1="0.62" y1="0.00" x2="0.62" y2="2.00" />
<line x1="0.74" y1="0.00" x2="0.74" y2="3.00" />




<line x1="1.36" y1="0.00" x2="1.36" y2="4.00" />

<line x1="1.61" y1="0.00" x2="1.61" y2="6.00" />

<line x1="1.86" y1="0.00" x2="1.86" y2="4.00" />

<line x1="2.11" y1="0.00" x2="2.11" y2="3.00" />


<line x1="2.48" y1="0.00" x2="2.48" y2="3.00" />

<line x1="2.73" y1="0.00" x2="2.73" y2="5.00" />


<line x1="3.10" y1="0.00" x2="3.10" y2="2.00" />


<line x1="3.47" y1="0.00" x2="3.47" y2="5.00" />








<line x1="4.58" y1="0.00" x2="4.58" y2="6.00" />
<line x1="4.71" y1="0.00" x2="4.71" y2="4.00" />
<line x1="4.83" y1="0.00" x2="4.83" y2="3.00" />



<line x1="5.33" y1="0.00" x2="5.33" y2="3.00" />
<line x1="5.45" y1="0.00" x2="5.45" y2="4.00" />
<line x1="5.57" y1="0.00" x2="5.57" y2="6.00" />










<line x1="6.94" y1="0.00" x2="6.94" y2="7.00" />

<line x1="7.18" y1="0.00" x2="7.18" y2="7.00" />

<line x1="7.43" y1="0.00" x2="7.43" y2="7.00" />
<line x1="7.56" y1="0.00" x2="7.56" y2="2.00" />
<line x1="7.68" y1="0.00" x2="7.68" y2="7.00" />

<line x1="7.93" y1="0.00" x2="7.93" y2="7.00" />

<line x1="8.18" y1="0.00" x2="8.18" y2="7.00" />

<line x1="8.42" y1="0.00" x2="8.42" y2="5.00" />

<line x1="8.67" y1="0.00" x2="8.67" y2="3.00" />
<line x1="8.79" y1="0.00" x2="8.79" y2="10.00" />


<line x1="9.17" y1="0.00" x2="9.17" y2="10.00" />
<line x1="9.29" y1="0.00" x2="9.29" y2="3.00" />

<line x1="9.54" y1="0.00" x2="9.54" y2="5.00" />

<line x1="9.79" y1="0.00" x2="9.79" y2="8.00" />

<line x1="10.03" y1="0.00" x2="10.03" y2="12.00" />

<line x1="10.28" y1="0.00" x2="10.28" y2="8.00" />

<line x1="10.53" y1="0.00" x2="10.53" y2="6.00" />

<line x1="10.78" y1="0.00" x2="10.78" y2="8.00" />

<line x1="11.02" y1="0.00" x2="11.02" y2="12.00" />

<line x1="11.27" y1="0.00" x2="11.27" y2="8.00" />














<line x1="13.13" y1="0.00" x2="13.13" y2="9.00" />
<line x1="13.25" y1="0.00" x2="13.25" y2="6.00" />


<line x1="13.63" y1="0.00" x2="13.63" y2="6.00" />


<line x1="14.00" y1="0.00" x2="14.00" y2="2.00" />


<line x1="14.37" y1="0.00" x2="14.37" y2="6.00" />


<line x1="14.74" y1="0.00" x2="14.74" y2="6.00" />
<line x1="14.86" y1="0.00" x2="14.86" y2="9.00" />
















<line x1="16.97" y1="0.00" x2="16.97" y2="10.00" />

<line x1="17.22" y1="0.00" x2="17.22" y2="5.00" />
<line x1="17.34" y1="0.00" x2="17.34" y2="4.00" />


<line x1="17.71" y1="0.00" x2="17.71" y2="10.00" />

<line x1="17.96" y1="0.00" x2="17.96" y2="16.00" />

<line x1="18.21" y1="0.00" x2="18.21" y2="10.00" />


<line x1="18.58" y1="0.00" x2="18.58" y2="4.00" />
<line x1="18.70" y1="0.00" x2="18.70" y2="5.00" />

<line x1="18.95" y1="0.00" x2="18.95" y2="10.00" />

<line x1="19.20" y1="0.00" x2="19.20" y2="7.00" />



<line x1="19.70" y1="0.00" x2="19.70" y2="3.00" />

<line x1="19.94" y1="0.00" x2="19.94" y2="14.00" />


<line x1="20.31" y1="0.00" x2="20.31" y2="14.00" />

<line x1="20.56" y1="0.00" x2="20.56" y2="3.00" />



<line x1="21.06" y1="0.00" x2="21.06" y2="7.00" />

<line x1="21.31" y1="0.00" x2="21.31" y2="11.00" />

<line x1="21.55" y1="0.00" x2="21.55" y2="11.00" />

<line x1="21.80" y1="0.00" x2="21.80" y2="11.00" />




<line x1="22.42" y1="0.00" x2="22.42" y2="2.00" />




<line x1="23.04" y1="0.00" x2="23.04" y2="11.00" />

<line x1="23.29" y1="0.00" x2="23.29" y2="11.00" />

<line x1="23.54" y1="0.00" x2="23.54" y2="11.00" />




















</g>
</svg>