<svg xmlns="http://www.w3.org/2000/svg" width="161.8" height="100.0" viewBox="-2.51 -5.00 171.80 110.00">
<g fill="none" stroke="black" stroke-width="0.0883%" transform="translate(0, 100.0000) scale(5.6637, -5.6637)">
<circle cx="0.44" cy="0.00" r="0.09" />
<circle cx="0.88" cy="0.69" r="0.09" />
<circle cx="1.32" cy="0.69" r="0.09" />
<circle cx="1.76" cy="1.79" r="0.09" />
<circle cx="2.20" cy="2.48" r="0.09" />
<circle cx="2.64" cy="1.79" r="0.09" />
<circle cx="3.08" cy="3.00" r="0.09" />
<circle cx="3.52" cy="4.09" r="0.09" />
<circle cx="3.96" cy="4.09" r="0.09" />
<circle cx="4.40" cy="3.00" r="0.09" />
<circle cx="4.83" cy="4.25" r="0.09" />
<circle cx="5.27" cy="5.63" r="0.09" />
<circle cx="5.71" cy="6.04" r="0.09" />
<circle cx="6.15" cy="5.63" r="0.09" />
<circle cx="6.59" cy="4.25" r="0.09" />
<circle cx="7.03" cy="5.53" r="0.09" />
<circle cx="7.47" cy="7.14" r="0.09" />
<circle cx="7.91" cy="7.83" r="0.09" />
<circle cx="8.35" cy="7.83" r="0.09" />
<circle cx="8.79" cy="7.14" r="0.09" />
<circle cx="9.23" cy="5.53" r="0.09" />
<circle cx="9.67" cy="6.83" r="0.09" />
<circle cx="10.11" cy="8.62" r="0.09" />
<circle cx="10.55" cy="9.54" r="0.09" />
<circle cx="10.99" cy="9.82" r="0.09" />
<circle cx="11.43" cy="9.54" r="0.09" />
<circle cx="11.87" cy="8.62" r="0.09" />
<circle cx="12.31" cy="6.83" r="0.09" />
<circle cx="12.75" cy="8.14" r="0.09" />
<circle cx="13.19" cy="10.09" r="0.09" />
<circle cx="13.62" cy="11.19" r="0.09" />
<circle cx="14.06" cy="11.70" r="0.09" />
<circle cx="14.50" cy="11.70" r="0.09" />
<circle cx="14.94" cy="11.19" r="0.09" />
<circle cx="15.38" cy="10.09" r="0.09" />
<circle cx="15.82" cy="8.14" r="0.09" />
<circle cx="16.26" cy="9.46" r="0.09" />
<circle cx="16.70" cy="11.54" r="0.09" />
<circle cx="17.14" cy="12.79" r="0.09" />
<circle cx="17.58" cy="13.49" r="0.09" />
<circle cx="18.02" cy="13.71" r="0.09" />
<circle cx="18.46" cy="13.49" r="0.09" />
<circle cx="18.90" cy="12.79" r="0.09" />
<circle cx="19.34" cy="11.54" r="0.09" />
<circle cx="19.78" cy="9.46" r="0.09" />
<circle cx="20.22" cy="10.79" r="0.09" />
<circle cx="20.66" cy="12.99" r="0.09" />
<circle cx="21.10" cy="14.38" r="0.09" />
<circle cx="21.54" cy="15.22" r="0.09" />
<circle cx="21.98" cy="15.63" r="0.09" />
<circle cx="22.42" cy="15.63" r="0.09" />
<circle cx="22.85" cy="15.22" r="0.09" />
<circle cx="23.29" cy="14.38" r="0.09" />
<circle cx="23.73" cy="12.99" r="0.09" />
<circle cx="24.17" cy="10.79" r="0.09" />
<circle cx="24.61" cy="12.13" r="0.09" />
<circle cx="25.05" cy="14.43" r="0.09" />
<circle cx="25.49" cy="15.93" r="0.09" />
<circle cx="25.93" cy="16.91" r="0.09" />
<circle cx="26.37" cy="17.47" r="0.09" />
<circle cx="26.81" cy="17.66" r="0.09" />
<circle cx="27.25" cy="17.47" r="0.09" />
<circle cx="27.69" cy="16.91" r="0.09" />
<circle cx="28.13" cy="15.93" r="0.09" />
<circle cx="28.57" cy="14.43" r="0.09" />
<circle cx="29.01" cy="12.13" r="0.09" />
</g>
</svg>