<svg xmlns="http://www.w3.org/2000/svg" width="161.8" height="100.0" viewBox="-3.3 -5.0 171.8 110.0">
<g fill="none" stroke="black" stroke-width="0.2950%" transform="translate(0, 100.0000) scale(1.6949, -1.6949)">
<circle cx="1.0" cy="0.0" r="0.3" />
<circle cx="1.9" cy="0.0" r="0.3" />
<circle cx="2.9" cy="1.0" r="0.3" />
<circle cx="3.9" cy="0.0" r="0.3" />
<circle cx="4.9" cy="2.0" r="0.3" />
<circle cx="5.8" cy="3.0" r="0.3" />
<circle cx="6.8" cy="4.0" r="0.3" />
<circle cx="7.8" cy="0.0" r="0.3" />
<circle cx="8.8" cy="3.0" r="0.3" />
<circle cx="9.7" cy="2.0" r="0.3" />
<circle cx="10.7" cy="5.0" r="0.3" />
<circle cx="11.7" cy="1.0" r="0.3" />
<circle cx="12.7" cy="6.0" r="0.3" />
<circle cx="13.6" cy="7.0" r="0.3" />
<circle cx="14.6" cy="8.0" r="0.3" />
<circle cx="15.6" cy="0.0" r="0.3" />
<circle cx="16.6" cy="7.0" r="0.3" />
<circle cx="17.5" cy="6.0" r="0.3" />
<circle cx="18.5" cy="9.0" r="0.3" />
<circle cx="19.5" cy="5.0" r="0.3" />
<circle cx="20.5" cy="10.0" r="0.3" />
<circle cx="21.4" cy="11.0" r="0.3" />
<circle cx="22.4" cy="12.0" r="0.3" />
<circle cx="23.4" cy="4.0" r="0.3" />
<circle cx="24.4" cy="13.0" r="0.3" />
<circle cx="25.3" cy="14.0" r="0.3" />
<circle cx="26.3" cy="15.0" r="0.3" />
<circle cx="27.3" cy="16.0" r="0.3" />
<circle cx="28.2" cy="17.0" r="0.3" />
<circle cx="29.2" cy="18.0" r="0.3" />
<circle cx="30.2" cy="19.0" r="0.3" />
<circle cx="31.2" cy="0.0" r="0.3" />
<circle cx="32.1" cy="11.0" r="0.3" />
<circle cx="33.1" cy="10.0" r="0.3" />
<circle cx="34.1" cy="16.0" r="0.3" />
<circle cx="35.1" cy="9.0" r="0.3" />
<circle cx="36.0" cy="14.0" r="0.3" />
<circle cx="37.0" cy="13.0" r="0.3" />
<circle cx="38.0" cy="20.0" r="0.3" />
<circle cx="39.0" cy="12.0" r="0.3" />
<circle cx="39.9" cy="21.0" r="0.3" />
<circle cx="40.9" cy="22.0" r="0.3" />
<circle cx="41.9" cy="23.0" r="0.3" />
<circle cx="42.9" cy="24.0" r="0.3" />
<circle cx="43.8" cy="25.0" r="0.3" />
<circle cx="44.8" cy="26.0" r="0.3" />
<circle cx="45.8" cy="27.0" r="0.3" />
<circle cx="46.8" cy="1.0" r="0.3" />
<circle cx="47.7" cy="28.0" r="0.3" />
<circle cx="48.7" cy="29.0" r="0.3" />
<circle cx="49.7" cy="30.0" r="0.3" />
<circle cx="50.7" cy="31.0" r="0.3" />
<circle cx="51.6" cy="32.0" r="0.3" />
<circle cx="52.6" cy="33.0" r="0.3" />
<circle cx="53.6" cy="34.0" r="0.3" />
<circle cx="54.6" cy="35.0" r="0.3" />
<circle cx="55.5" cy="36.0" r="0.3" />
<circle cx="56.5" cy="37.0" r="0.3" />
<circle cx="57.5" cy="38.0" r="0.3" />
<circle cx="58.4" cy="39.0" r="0.3" />
<circle cx="59.4" cy="40.0" r="0.3" />
<circle cx="60.4" cy="41.0" r="0.3" />
<circle cx="61.4" cy="42.0" r="0.3" />
<circle cx="62.3" cy="0.0" r="0.3" />
<circle cx="63.3" cy="18.0" r="0.3" />
<circle cx="64.3" cy="17.0" r="0.3" />
<circle cx="65.3" cy="24.0" r="0.3" />
<circle cx="66.2" cy="15.0" r="0.3" />
<circle cx="67.2" cy="22.0" r="0.3" />
<circle cx="68.2" cy="21.0" r="0.3" />
<circle cx="69.2" cy="35.0" r="0.3" />
<circle cx="70.1" cy="9.0" r="0.3" />
<circle cx="71.1" cy="29.0" r="0.3" />
<circle cx="72.1" cy="28.0" r="0.3" />
<circle cx="73.1" cy="31.0" r="0.3" />
<circle cx="74.0" cy="30.0" r="0.3" />
<circle cx="75.0" cy="43.0" r="0.3" />
<circle cx="76.0" cy="44.0" r="0.3" />
<circle cx="77.0" cy="45.0" r="0.3" />
<circle cx="77.9" cy="2.0" r="0.3" />
<circle cx="78.9" cy="26.0" r="0.3" />
<circle cx="79.9" cy="25.0" r="0.3" />
<circle cx="80.9" cy="46.0" r="0.3" />
<circle cx="81.8" cy="23.0" r="0.3" />
<circle cx="82.8" cy="47.0" r="0.3" />
<circle cx="83.8" cy="48.0" r="0.3" />
<circle cx="84.7" cy="49.0" r="0.3" />
<circle cx="85.7" cy="20.0" r="0.3" />
<circle cx="86.7" cy="50.0" r="0.3" />
<circle cx="87.7" cy="51.0" r="0.3" />
<circle cx="88.6" cy="52.0" r="0.3" />
<circle cx="89.6" cy="53.0" r="0.3" />
<circle cx="90.6" cy="54.0" r="0.3" />
<circle cx="91.6" cy="55.0" r="0.3" />
<circle cx="92.5" cy="56.0" r="0.3" />
<circle cx="93.5" cy="3.0" r="0.3" />
<circle cx="94.5" cy="57.0" r="0.3" />
<circle cx="95.5" cy="58.0" r="0.3" />
<circle cx="96.4" cy="59.0" r="0.3" />
</g>
</svg>