<svg xmlns="http://www.w3.org/2000/svg" width="161.8" height="100.0" viewBox="-4.23 -5.00 171.80 110.00">
<g fill="none" stroke="black" stroke-width="0.0950%" transform="translate(0, 100.0000) scale(5.2632, -5.2632)">
<circle cx="0.15" cy="0.00" r="0.09" />
<circle cx="0.29" cy="0.00" r="0.09" />
<circle cx="0.44" cy="1.00" r="0.09" />
<circle cx="0.59" cy="0.00" r="0.09" />
<circle cx="0.74" cy="0.00" r="0.09" />
<circle cx="0.88" cy="2.00" r="0.09" />
<circle cx="1.03" cy="0.00" r="0.09" />
<circle cx="1.18" cy="1.00" r="0.09" />
<circle cx="1.32" cy="2.00" r="0.09" />
<circle cx="1.47" cy="3.00" r="0.09" />
<circle cx="1.62" cy="0.00" r="0.09" />
<circle cx="1.77" cy="0.00" r="0.09" />
<circle cx="1.91" cy="0.00" r="0.09" />
<circle cx="2.06" cy="0.00" r="0.09" />
<circle cx="2.21" cy="4.00" r="0.09" />
<circle cx="2.35" cy="0.00" r="0.09" />
<circle cx="2.50" cy="1.00" r="0.09" />
<circle cx="2.65" cy="0.00" r="0.09" />
<circle cx="2.79" cy="1.00" r="0.09" />
<circle cx="2.94" cy="4.00" r="0.09" />
<circle cx="3.09" cy="5.00" r="0.09" />
<circle cx="3.24" cy="0.00" r="0.09" />
<circle cx="3.38" cy="0.00" r="0.09" />
<circle cx="3.53" cy="2.00" r="0.09" />
<circle cx="3.68" cy="2.00" r="0.09" />
<circle cx="3.82" cy="4.00" r="0.09" />
<circle cx="3.97" cy="4.00" r="0.09" />
<circle cx="4.12" cy="6.00" r="0.09" />
<circle cx="4.27" cy="0.00" r="0.09" />
<circle cx="4.41" cy="1.00" r="0.09" />
<circle cx="4.56" cy="2.00" r="0.09" />
<circle cx="4.71" cy="3.00" r="0.09" />
<circle cx="4.85" cy="4.00" r="0.09" />
<circle cx="5.00" cy="5.00" r="0.09" />
<circle cx="5.15" cy="6.00" r="0.09" />
<circle cx="5.30" cy="7.00" r="0.09" />
<circle cx="5.44" cy="0.00" r="0.09" />
<circle cx="5.59" cy="0.00" r="0.09" />
<circle cx="5.74" cy="0.00" r="0.09" />
<circle cx="5.88" cy="0.00" r="0.09" />
<circle cx="6.03" cy="0.00" r="0.09" />
<circle cx="6.18" cy="0.00" r="0.09" />
<circle cx="6.33" cy="0.00" r="0.09" />
<circle cx="6.47" cy="0.00" r="0.09" />
<circle cx="6.62" cy="8.00" r="0.09" />
<circle cx="6.77" cy="0.00" r="0.09" />
<circle cx="6.91" cy="1.00" r="0.09" />
<circle cx="7.06" cy="0.00" r="0.09" />
<circle cx="7.21" cy="1.00" r="0.09" />
<circle cx="7.35" cy="0.00" r="0.09" />
<circle cx="7.50" cy="1.00" r="0.09" />
<circle cx="7.65" cy="0.00" r="0.09" />
<circle cx="7.80" cy="1.00" r="0.09" />
<circle cx="7.94" cy="8.00" r="0.09" />
<circle cx="8.09" cy="9.00" r="0.09" />
<circle cx="8.24" cy="0.00" r="0.09" />
<circle cx="8.38" cy="0.00" r="0.09" />
<circle cx="8.53" cy="2.00" r="0.09" />
<circle cx="8.68" cy="2.00" r="0.09" />
<circle cx="8.83" cy="0.00" r="0.09" />
<circle cx="8.97" cy="0.00" r="0.09" />
<circle cx="9.12" cy="2.00" r="0.09" />
<circle cx="9.27" cy="2.00" r="0.09" />
<circle cx="9.41" cy="8.00" r="0.09" />
<circle cx="9.56" cy="8.00" r="0.09" />
<circle cx="9.71" cy="10.00" r="0.09" />
<circle cx="9.86" cy="0.00" r="0.09" />
<circle cx="10.00" cy="1.00" r="0.09" />
<circle cx="10.15" cy="2.00" r="0.09" />
<circle cx="10.30" cy="3.00" r="0.09" />
<circle cx="10.44" cy="0.00" r="0.09" />
<circle cx="10.59" cy="1.00" r="0.09" />
<circle cx="10.74" cy="2.00" r="0.09" />
<circle cx="10.88" cy="3.00" r="0.09" />
<circle cx="11.03" cy="8.00" r="0.09" />
<circle cx="11.18" cy="9.00" r="0.09" />
<circle cx="11.33" cy="10.00" r="0.09" />
<circle cx="11.47" cy="11.00" r="0.09" />
<circle cx="11.62" cy="0.00" r="0.09" />
<circle cx="11.77" cy="0.00" r="0.09" />
<circle cx="11.91" cy="0.00" r="0.09" />
<circle cx="12.06" cy="0.00" r="0.09" />
<circle cx="12.21" cy="4.00" r="0.09" />
<circle cx="12.36" cy="4.00" r="0.09" />
<circle cx="12.50" cy="4.00" r="0.09" />
<circle cx="12.65" cy="4.00" r="0.09" />
<circle cx="12.80" cy="8.00" r="0.09" />
<circle cx="12.94" cy="8.00" r="0.09" />
<circle cx="13.09" cy="8.00" r="0.09" />
<circle cx="13.24" cy="8.00" r="0.09" />
<circle cx="13.39" cy="12.00" r="0.09" />
<circle cx="13.53" cy="0.00" r="0.09" />
<circle cx="13.68" cy="1.00" r="0.09" />
<circle cx="13.83" cy="0.00" r="0.09" />
<circle cx="13.97" cy="1.00" r="0.09" />
<circle cx="14.12" cy="4.00" r="0.09" />
<circle cx="14.27" cy="5.00" r="0.09" />
<circle cx="14.42" cy="4.00" r="0.09" />
<circle cx="14.56" cy="5.00" r="0.09" />
<circle cx="14.71" cy="8.00" r="0.09" />
<circle cx="14.86" cy="9.00" r="0.09" />
<circle cx="15.00" cy="8.00" r="0.09" />
<circle cx="15.15" cy="9.00" r="0.09" />
<circle cx="15.30" cy="12.00" r="0.09" />
<circle cx="15.44" cy="13.00" r="0.09" />
<circle cx="15.59" cy="0.00" r="0.09" />
<circle cx="15.74" cy="0.00" r="0.09" />
<circle cx="15.89" cy="2.00" r="0.09" />
<circle cx="16.03" cy="2.00" r="0.09" />
<circle cx="16.18" cy="4.00" r="0.09" />
<circle cx="16.33" cy="4.00" r="0.09" />
<circle cx="16.47" cy="6.00" r="0.09" />
<circle cx="16.62" cy="6.00" r="0.09" />
<circle cx="16.77" cy="8.00" r="0.09" />
<circle cx="16.92" cy="8.00" r="0.09" />
<circle cx="17.06" cy="10.00" r="0.09" />
<circle cx="17.21" cy="10.00" r="0.09" />
<circle cx="17.36" cy="12.00" r="0.09" />
<circle cx="17.50" cy="12.00" r="0.09" />
<circle cx="17.65" cy="14.00" r="0.09" />
<circle cx="17.80" cy="0.00" r="0.09" />
<circle cx="17.95" cy="1.00" r="0.09" />
<circle cx="18.09" cy="2.00" r="0.09" />
<circle cx="18.24" cy="3.00" r="0.09" />
<circle cx="18.39" cy="4.00" r="0.09" />
<circle cx="18.53" cy="5.00" r="0.09" />
<circle cx="18.68" cy="6.00" r="0.09" />
<circle cx="18.83" cy="7.00" r="0.09" />
<circle cx="18.98" cy="8.00" r="0.09" />
<circle cx="19.12" cy="9.00" r="0.09" />
<circle cx="19.27" cy="10.00" r="0.09" />
<circle cx="19.42" cy="11.00" r="0.09" />
<circle cx="19.56" cy="12.00" r="0.09" />
<circle cx="19.71" cy="13.00" r="0.09" />
<circle cx="19.86" cy="14.00" r="0.09" />
<circle cx="20.00" cy="15.00" r="0.09" />
<circle cx="20.15" cy="0.00" r="0.09" />
<circle cx="20.30" cy="0.00" r="0.09" />
<circle cx="20.45" cy="0.00" r="0.09" />
<circle cx="20.59" cy="0.00" r="0.09" />
<circle cx="20.74" cy="0.00" r="0.09" />
<circle cx="20.89" cy="0.00" r="0.09" />
<circle cx="21.03" cy="0.00" r="0.09" />
<circle cx="21.18" cy="0.00" r="0.09" />
<circle cx="21.33" cy="0.00" r="0.09" />
<circle cx="21.48" cy="0.00" r="0.09" />
<circle cx="21.62" cy="0.00" r="0.09" />
<circle cx="21.77" cy="0.00" r="0.09" />
<circle cx="21.92" cy="0.00" r="0.09" />
<circle cx="22.06" cy="0.00" r="0.09" />
<circle cx="22.21" cy="0.00" r="0.09" />
<circle cx="22.36" cy="0.00" r="0.09" />
<circle cx="22.51" cy="16.00" r="0.09" />
<circle cx="22.65" cy="0.00" r="0.09" />
<circle cx="22.80" cy="1.00" r="0.09" />
<circle cx="22.95" cy="0.00" r="0.09" />
<circle cx="23.09" cy="1.00" r="0.09" />
<circle cx="23.24" cy="0.00" r="0.09" />
<circle cx="23.39" cy="1.00" r="0.09" />
<circle cx="23.54" cy="0.00" r="0.09" />
<circle cx="23.68" cy="1.00" r="0.09" />
<circle cx="23.83" cy="0.00" r="0.09" />
<circle cx="23.98" cy="1.00" r="0.09" />
<circle cx="24.12" cy="0.00" r="0.09" />
<circle cx="24.27" cy="1.00" r="0.09" />
<circle cx="24.42" cy="0.00" r="0.09" />
<circle cx="24.56" cy="1.00" r="0.09" />
<circle cx="24.71" cy="0.00" r="0.09" />
<circle cx="24.86" cy="1.00" r="0.09" />
<circle cx="25.01" cy="16.00" r="0.09" />
<circle cx="25.15" cy="17.00" r="0.09" />
<circle cx="25.30" cy="0.00" r="0.09" />
<circle cx="25.45" cy="0.00" r="0.09" />
<circle cx="25.59" cy="2.00" r="0.09" />
<circle cx="25.74" cy="2.00" r="0.09" />
<circle cx="25.89" cy="0.00" r="0.09" />
<circle cx="26.04" cy="0.00" r="0.09" />
<circle cx="26.18" cy="2.00" r="0.09" />
<circle cx="26.33" cy="2.00" r="0.09" />
<circle cx="26.48" cy="0.00" r="0.09" />
<circle cx="26.62" cy="0.00" r="0.09" />
<circle cx="26.77" cy="2.00" r="0.09" />
<circle cx="26.92" cy="2.00" r="0.09" />
<circle cx="27.07" cy="0.00" r="0.09" />
<circle cx="27.21" cy="0.00" r="0.09" />
<circle cx="27.36" cy="2.00" r="0.09" />
<circle cx="27.51" cy="2.00" r="0.09" />
<circle cx="27.65" cy="16.00" r="0.09" />
<circle cx="27.80" cy="16.00" r="0.09" />
<circle cx="27.95" cy="18.00" r="0.09" />
<circle cx="28.09" cy="0.00" r="0.09" />
<circle cx="28.24" cy="1.00" r="0.09" />
<circle cx="28.39" cy="2.00" r="0.09" />
<circle cx="28.54" cy="3.00" r="0.09" />
<circle cx="28.68" cy="0.00" r="0.09" />
<circle cx="28.83" cy="1.00" r="0.09" />
<circle cx="28.98" cy="2.00" r="0.09" />
<circle cx="29.12" cy="3.00" r="0.09" />
<circle cx="29.27" cy="0.00" r="0.09" />
<circle cx="29.42" cy="1.00" r="0.09" />
<circle cx="29.57" cy="2.00" r="0.09" />
<circle cx="29.71" cy="3.00" r="0.09" />
<circle cx="29.86" cy="0.00" r="0.09" />
<circle cx="30.01" cy="1.00" r="0.09" />
<circle cx="30.15" cy="2.00" r="0.09" />
<circle cx="30.30" cy="3.00" r="0.09" />
<circle cx="30.45" cy="16.00" r="0.09" />
<circle cx="30.60" cy="17.00" r="0.09" />
<circle cx="30.74" cy="18.00" r="0.09" />
<circle cx="30.89" cy="19.00" r="0.09" />
</g>
</svg>