<svg xmlns="http://www.w3.org/2000/svg" width="161.80" height="100.00" viewBox="-3.37 -5.00 171.80 110.00">
<g fill="none" stroke="black" stroke-width="0.49%" transform="translate(0, 100.00) scale(1.02, -1.02)">
<circle cx="1.60" cy="0.00" r="0.49" />
<polyline points="1.60,0.00 3.20,0.00 4.81,2.00 6.41,0.00 8.01,4.00 9.61,4.00 11.21,6.00 12.81,0.00 14.42,8.00 16.02,8.00 17.62,10.00 19.22,8.00 20.82,12.00 22.42,12.00 24.03,14.00 25.63,0.00 27.23,16.00 28.83,16.00 30.43,18.00 32.03,16.00 33.64,20.00 35.24,20.00 36.84,22.00 38.44,16.00 40.04,24.00 41.64,24.00 43.25,26.00 44.85,24.00 46.45,28.00 48.05,28.00 49.65,30.00 51.25,0.00 52.86,32.00 54.46,32.00 56.06,34.00 57.66,32.00 59.26,36.00 60.86,36.00 62.47,38.00 64.07,32.00 65.67,40.00 67.27,40.00 68.87,42.00 70.47,40.00 72.08,44.00 73.68,44.00 75.28,46.00 76.88,32.00 78.48,48.00 80.08,48.00 81.69,50.00 83.29,48.00 84.89,52.00 86.49,52.00 88.09,54.00 89.69,48.00 91.30,56.00 92.90,56.00 94.50,58.00 96.10,56.00 97.70,60.00 99.30,60.00 100.91,62.00 102.51,0.00 104.11,64.00 105.71,64.00 107.31,66.00 108.91,64.00 110.52,68.00 112.12,68.00 113.72,70.00 115.32,64.00 116.92,72.00 118.53,72.00 120.13,74.00 121.73,72.00 123.33,76.00 124.93,76.00 126.53,78.00 128.14,64.00 129.74,80.00 131.34,80.00 132.94,82.00 134.54,80.00 136.14,84.00 137.75,84.00 139.35,86.00 140.95,80.00 142.55,88.00 144.15,88.00 145.75,90.00 147.36,88.00 148.96,92.00 150.56,92.00 152.16,94.00 153.76,64.00 155.36,96.00 156.97,96.00 158.57,98.00 160.17,96.00" />
</g>
</svg>