<svg xmlns="http://www.w3.org/2000/svg" width="161.8" height="100.0" viewBox="-2.7 -3.4 171.8 110.0">
<g fill="none" stroke="black" stroke-width="0.6300%" transform="translate(0, 103.1746) scale(0.7937, -0.7937)">
<polyline points="2.9,2.0 5.7,2.0 5.7,4.0 8.6,4.0 8.6,5.0 11.5,5.0 11.5,8.0 14.4,8.0 14.4,6.0 17.2,6.0 17.2,9.0 20.1,9.0 20.1,11.0 23.0,11.0 23.0,16.0 25.8,16.0 25.8,10.0 28.7,10.0 28.7,12.0 31.6,12.0 31.6,13.0 34.5,13.0 34.5,17.0 37.3,17.0 37.3,14.0 40.2,14.0 40.2,19.0 43.1,19.0 43.1,23.0 45.9,23.0 45.9,32.0 48.8,32.0 48.8,18.0 51.7,18.0 51.7,20.0 54.6,20.0 54.6,21.0 57.4,21.0 57.4,24.0 60.3,24.0 60.3,22.0 63.2,22.0 63.2,25.0 66.0,25.0 66.0,27.0 68.9,27.0 68.9,33.0 71.8,33.0 71.8,26.0 74.7,26.0 74.7,28.0 77.5,28.0 77.5,29.0 80.4,29.0 80.4,35.0 83.3,35.0 83.3,30.0 86.1,30.0 86.1,39.0 89.0,39.0 89.0,47.0 91.9,47.0 91.9,64.0 94.8,64.0 94.8,34.0 97.6,34.0 97.6,36.0 100.5,36.0 100.5,37.0 103.4,37.0 103.4,40.0 106.2,40.0 106.2,38.0 109.1,38.0 109.1,41.0 112.0,41.0 112.0,43.0 114.9,43.0 114.9,48.0 117.7,48.0 117.7,42.0 120.6,42.0 120.6,44.0 123.5,44.0 123.5,45.0 126.3,45.0 126.3,49.0 129.2,49.0 129.2,46.0 132.1,46.0 132.1,51.0 135.0,51.0 135.0,55.0 137.8,55.0 137.8,65.0 140.7,65.0 140.7,50.0 143.6,50.0 143.6,52.0 146.4,52.0 146.4,53.0 149.3,53.0 149.3,56.0 152.2,56.0 152.2,54.0 155.1,54.0 155.1,57.0 157.9,57.0 157.9,59.0 160.8,59.0 160.8,67.0 163.7,67.0 163.7,58.0 166.5,58.0 166.5,60.0 169.4,60.0 169.4,61.0 172.3,61.0 172.3,71.0 175.2,71.0 175.2,62.0 178.0,62.0 178.0,79.0 180.9,79.0 180.9,95.0 183.8,95.0 183.8,128.0 186.6,128.0 186.6,66.0 189.5,66.0 189.5,68.0 192.4,68.0 192.4,69.0 195.3,69.0 195.3,72.0 198.1,72.0 198.1,70.0 201.0,70.0 201.0,73.0 203.9,73.0 203.9,75.0 206.7,75.0" />
</g>
</svg>