<svg xmlns="http://www.w3.org/2000/svg" width="151.0" height="100.0" viewBox="-3.50 -5.00 161.02 110.00">
<g fill="none" stroke="black" stroke-width="0.0750%" transform="translate(0, 100.0000) scale(6.6667, -6.6667)">
<line x1="0.22" y1="0.00" x2="0.22" y2="1.00" />
<line x1="0.45" y1="0.00" x2="0.45" y2="3.00" />
<line x1="0.67" y1="0.00" x2="0.67" y2="1.00" />
<line x1="0.90" y1="0.00" x2="0.90" y2="7.00" />
<line x1="1.12" y1="0.00" x2="1.12" y2="1.00" />
<line x1="1.35" y1="0.00" x2="1.35" y2="3.00" />
<line x1="1.57" y1="0.00" x2="1.57" y2="1.00" />
<line x1="1.79" y1="0.00" x2="1.79" y2="8.00" />
<line x1="2.02" y1="0.00" x2="2.02" y2="1.00" />
<line x1="2.24" y1="0.00" x2="2.24" y2="3.00" />
<line x1="2.47" y1="0.00" x2="2.47" y2="1.00" />
<line x1="2.69" y1="0.00" x2="2.69" y2="7.00" />
<line x1="2.92" y1="0.00" x2="2.92" y2="1.00" />
<line x1="3.14" y1="0.00" x2="3.14" y2="3.00" />
<line x1="3.36" y1="0.00" x2="3.36" y2="1.00" />
<line x1="3.59" y1="0.00" x2="3.59" y2="9.00" />
<line x1="3.81" y1="0.00" x2="3.81" y2="1.00" />
<line x1="4.04" y1="0.00" x2="4.04" y2="3.00" />
<line x1="4.26" y1="0.00" x2="4.26" y2="1.00" />
<line x1="4.49" y1="0.00" x2="4.49" y2="7.00" />
<line x1="4.71" y1="0.00" x2="4.71" y2="1.00" />
<line x1="4.93" y1="0.00" x2="4.93" y2="3.00" />
<line x1="5.16" y1="0.00" x2="5.16" y2="1.00" />
<line x1="5.38" y1="0.00" x2="5.38" y2="8.00" />
<line x1="5.61" y1="0.00" x2="5.61" y2="1.00" />
<line x1="5.83" y1="0.00" x2="5.83" y2="3.00" />
<line x1="6.06" y1="0.00" x2="6.06" y2="1.00" />
<line x1="6.28" y1="0.00" x2="6.28" y2="7.00" />
<line x1="6.50" y1="0.00" x2="6.50" y2="1.00" />
<line x1="6.73" y1="0.00" x2="6.73" y2="3.00" />
<line x1="6.95" y1="0.00" x2="6.95" y2="1.00" />
<line x1="7.18" y1="0.00" x2="7.18" y2="11.00" />
<line x1="7.40" y1="0.00" x2="7.40" y2="1.00" />
<line x1="7.63" y1="0.00" x2="7.63" y2="3.00" />
<line x1="7.85" y1="0.00" x2="7.85" y2="1.00" />
<line x1="8.07" y1="0.00" x2="8.07" y2="7.00" />
<line x1="8.30" y1="0.00" x2="8.30" y2="1.00" />
<line x1="8.52" y1="0.00" x2="8.52" y2="3.00" />
<line x1="8.75" y1="0.00" x2="8.75" y2="1.00" />
<line x1="8.97" y1="0.00" x2="8.97" y2="8.00" />
<line x1="9.20" y1="0.00" x2="9.20" y2="1.00" />
<line x1="9.42" y1="0.00" x2="9.42" y2="3.00" />
<line x1="9.64" y1="0.00" x2="9.64" y2="1.00" />
<line x1="9.87" y1="0.00" x2="9.87" y2="7.00" />
<line x1="10.09" y1="0.00" x2="10.09" y2="1.00" />
<line x1="10.32" y1="0.00" x2="10.32" y2="3.00" />
<line x1="10.54" y1="0.00" x2="10.54" y2="1.00" />
<line x1="10.77" y1="0.00" x2="10.77" y2="9.00" />
<line x1="10.99" y1="0.00" x2="10.99" y2="1.00" />
<line x1="11.21" y1="0.00" x2="11.21" y2="3.00" />
<line x1="11.44" y1="0.00" x2="11.44" y2="1.00" />
<line x1="11.66" y1="0.00" x2="11.66" y2="7.00" />
<line x1="11.89" y1="0.00" x2="11.89" y2="1.00" />
<line x1="12.11" y1="0.00" x2="12.11" y2="3.00" />
<line x1="12.34" y1="0.00" x2="12.34" y2="1.00" />
<line x1="12.56" y1="0.00" x2="12.56" y2="8.00" />
<line x1="12.78" y1="0.00" x2="12.78" y2="1.00" />
<line x1="13.01" y1="0.00" x2="13.01" y2="3.00" />
<line x1="13.23" y1="0.00" x2="13.23" y2="1.00" />
<line x1="13.46" y1="0.00" x2="13.46" y2="7.00" />
<line x1="13.68" y1="0.00" x2="13.68" y2="1.00" />
<line x1="13.91" y1="0.00" x2="13.91" y2="3.00" />
<line x1="14.13" y1="0.00" x2="14.13" y2="1.00" />
<line x1="14.35" y1="0.00" x2="14.35" y2="15.00" />
<line x1="14.58" y1="0.00" x2="14.58" y2="1.00" />
<line x1="14.80" y1="0.00" x2="14.80" y2="3.00" />
<line x1="15.03" y1="0.00" x2="15.03" y2="1.00" />
<line x1="15.25" y1="0.00" x2="15.25" y2="7.00" />
<line x1="15.48" y1="0.00" x2="15.48" y2="1.00" />
<line x1="15.70" y1="0.00" x2="15.70" y2="3.00" />
<line x1="15.92" y1="0.00" x2="15.92" y2="1.00" />
<line x1="16.15" y1="0.00" x2="16.15" y2="8.00" />
<line x1="16.37" y1="0.00" x2="16.37" y2="1.00" />
<line x1="16.60" y1="0.00" x2="16.60" y2="3.00" />
<line x1="16.82" y1="0.00" x2="16.82" y2="1.00" />
<line x1="17.05" y1="0.00" x2="17.05" y2="7.00" />
<line x1="17.27" y1="0.00" x2="17.27" y2="1.00" />
<line x1="17.49" y1="0.00" x2="17.49" y2="3.00" />
<line x1="17.72" y1="0.00" x2="17.72" y2="1.00" />
<line x1="17.94" y1="0.00" x2="17.94" y2="9.00" />
<line x1="18.17" y1="0.00" x2="18.17" y2="1.00" />
<line x1="18.39" y1="0.00" x2="18.39" y2="3.00" />
<line x1="18.62" y1="0.00" x2="18.62" y2="1.00" />
<line x1="18.84" y1="0.00" x2="18.84" y2="7.00" />
<line x1="19.06" y1="0.00" x2="19.06" y2="1.00" />
<line x1="19.29" y1="0.00" x2="19.29" y2="3.00" />
<line x1="19.51" y1="0.00" x2="19.51" y2="1.00" />
<line x1="19.74" y1="0.00" x2="19.74" y2="8.00" />
<line x1="19.96" y1="0.00" x2="19.96" y2="1.00" />
<line x1="20.19" y1="0.00" x2="20.19" y2="3.00" />
<line x1="20.41" y1="0.00" x2="20.41" y2="1.00" />
<line x1="20.63" y1="0.00" x2="20.63" y2="7.00" />
<line x1="20.86" y1="0.00" x2="20.86" y2="1.00" />
<line x1="21.08" y1="0.00" x2="21.08" y2="3.00" />
<line x1="21.31" y1="0.00" x2="21.31" y2="1.00" />
<line x1="21.53" y1="0.00" x2="21.53" y2="11.00" />
<line x1="21.76" y1="0.00" x2="21.76" y2="1.00" />
<line x1="21.98" y1="0.00" x2="21.98" y2="3.00" />
<line x1="22.20" y1="0.00" x2="22.20" y2="1.00" />
<line x1="22.43" y1="0.00" x2="22.43" y2="7.00" />
<line x1="22.65" y1="0.00" x2="22.65" y2="1.00" />
<line x1="22.88" y1="0.00" x2="22.88" y2="3.00" />
</g>
</svg>