<svg xmlns="http://www.w3.org/2000/svg" width="105.0" height="100.0" viewBox="-3.3 -5.0 115.0 110.0">
<g fill="none" stroke="black" stroke-width="0.3000%" transform="translate(0, 100.0000) scale(1.6667, -1.6667)">
<circle cx="1.0" cy="0.0" r="0.3" />
<polyline points="1.0,0.0 2.0,0.0 3.0,0.0 4.0,0.0 5.0,0.0 6.0,0.0 7.0,4.0 8.0,0.0 9.0,0.0 10.0,0.0 11.0,0.0 12.0,0.0 13.0,0.0 14.0,8.0 15.0,12.0 16.0,0.0 17.0,0.0 18.0,0.0 19.0,0.0 20.0,0.0 21.0,0.0 22.0,0.0 23.0,4.0 24.0,0.0 25.0,0.0 26.0,0.0 27.0,16.0 28.0,16.0 29.0,16.0 30.0,24.0 31.0,28.0 32.0,0.0 33.0,0.0 34.0,0.0 35.0,0.0 36.0,0.0 37.0,0.0 38.0,0.0 39.0,4.0 40.0,0.0 41.0,0.0 42.0,0.0 43.0,0.0 44.0,0.0 45.0,0.0 46.0,8.0 47.0,12.0 48.0,0.0 49.0,0.0 50.0,0.0 51.0,0.0 52.0,0.0 53.0,0.0 54.0,32.0 55.0,36.0 56.0,32.0 57.0,32.0 58.0,32.0 59.0,48.0 60.0,48.0 61.0,48.0 62.0,56.0 63.0,60.0 64.0,0.0" />
</g>
</svg>