<svg xmlns="http://www.w3.org/2000/svg" width="161.8" height="100.0" viewBox="-3.7 -5.0 171.8 110.0">
<g fill="none" stroke="black" stroke-width="0.3150%" transform="translate(0, 100.0000) scale(1.5873, -1.5873)">
<circle cx="0.8" cy="0.0" r="0.3" />
<circle cx="1.6" cy="0.0" r="0.3" />
<circle cx="2.4" cy="0.0" r="0.3" />
<circle cx="3.2" cy="1.0" r="0.3" />
<circle cx="4.0" cy="0.0" r="0.3" />
<circle cx="4.8" cy="0.0" r="0.3" />
<circle cx="5.6" cy="2.0" r="0.3" />
<circle cx="6.4" cy="3.0" r="0.3" />
<circle cx="7.2" cy="0.0" r="0.3" />
<circle cx="8.0" cy="0.0" r="0.3" />
<circle cx="8.8" cy="0.0" r="0.3" />
<circle cx="9.6" cy="1.0" r="0.3" />
<circle cx="10.4" cy="4.0" r="0.3" />
<circle cx="11.2" cy="4.0" r="0.3" />
<circle cx="12.0" cy="6.0" r="0.3" />
<circle cx="12.8" cy="7.0" r="0.3" />
<circle cx="13.6" cy="0.0" r="0.3" />
<circle cx="14.4" cy="0.0" r="0.3" />
<circle cx="15.3" cy="0.0" r="0.3" />
<circle cx="16.1" cy="1.0" r="0.3" />
<circle cx="16.9" cy="0.0" r="0.3" />
<circle cx="17.7" cy="0.0" r="0.3" />
<circle cx="18.5" cy="2.0" r="0.3" />
<circle cx="19.3" cy="3.0" r="0.3" />
<circle cx="20.1" cy="8.0" r="0.3" />
<circle cx="20.9" cy="8.0" r="0.3" />
<circle cx="21.7" cy="8.0" r="0.3" />
<circle cx="22.5" cy="9.0" r="0.3" />
<circle cx="23.3" cy="12.0" r="0.3" />
<circle cx="24.1" cy="12.0" r="0.3" />
<circle cx="24.9" cy="14.0" r="0.3" />
<circle cx="25.7" cy="15.0" r="0.3" />
<circle cx="26.5" cy="0.0" r="0.3" />
<circle cx="27.3" cy="0.0" r="0.3" />
<circle cx="28.1" cy="0.0" r="0.3" />
<circle cx="28.9" cy="1.0" r="0.3" />
<circle cx="29.7" cy="0.0" r="0.3" />
<circle cx="30.5" cy="0.0" r="0.3" />
<circle cx="31.3" cy="2.0" r="0.3" />
<circle cx="32.1" cy="3.0" r="0.3" />
<circle cx="32.9" cy="0.0" r="0.3" />
<circle cx="33.7" cy="0.0" r="0.3" />
<circle cx="34.5" cy="0.0" r="0.3" />
<circle cx="35.3" cy="1.0" r="0.3" />
<circle cx="36.1" cy="4.0" r="0.3" />
<circle cx="36.9" cy="4.0" r="0.3" />
<circle cx="37.7" cy="6.0" r="0.3" />
<circle cx="38.5" cy="7.0" r="0.3" />
<circle cx="39.3" cy="16.0" r="0.3" />
<circle cx="40.1" cy="16.0" r="0.3" />
<circle cx="40.9" cy="16.0" r="0.3" />
<circle cx="41.7" cy="17.0" r="0.3" />
<circle cx="42.5" cy="16.0" r="0.3" />
<circle cx="43.3" cy="16.0" r="0.3" />
<circle cx="44.1" cy="18.0" r="0.3" />
<circle cx="44.9" cy="19.0" r="0.3" />
<circle cx="45.8" cy="24.0" r="0.3" />
<circle cx="46.6" cy="24.0" r="0.3" />
<circle cx="47.4" cy="24.0" r="0.3" />
<circle cx="48.2" cy="25.0" r="0.3" />
<circle cx="49.0" cy="28.0" r="0.3" />
<circle cx="49.8" cy="28.0" r="0.3" />
<circle cx="50.6" cy="30.0" r="0.3" />
<circle cx="51.4" cy="31.0" r="0.3" />
<circle cx="52.2" cy="0.0" r="0.3" />
<circle cx="53.0" cy="0.0" r="0.3" />
<circle cx="53.8" cy="0.0" r="0.3" />
<circle cx="54.6" cy="1.0" r="0.3" />
<circle cx="55.4" cy="0.0" r="0.3" />
<circle cx="56.2" cy="0.0" r="0.3" />
<circle cx="57.0" cy="2.0" r="0.3" />
<circle cx="57.8" cy="3.0" r="0.3" />
<circle cx="58.6" cy="0.0" r="0.3" />
<circle cx="59.4" cy="0.0" r="0.3" />
<circle cx="60.2" cy="0.0" r="0.3" />
<circle cx="61.0" cy="1.0" r="0.3" />
<circle cx="61.8" cy="4.0" r="0.3" />
<circle cx="62.6" cy="4.0" r="0.3" />
<circle cx="63.4" cy="6.0" r="0.3" />
<circle cx="64.2" cy="7.0" r="0.3" />
<circle cx="65.0" cy="0.0" r="0.3" />
<circle cx="65.8" cy="0.0" r="0.3" />
<circle cx="66.6" cy="0.0" r="0.3" />
<circle cx="67.4" cy="1.0" r="0.3" />
<circle cx="68.2" cy="0.0" r="0.3" />
<circle cx="69.0" cy="0.0" r="0.3" />
<circle cx="69.8" cy="2.0" r="0.3" />
<circle cx="70.6" cy="3.0" r="0.3" />
<circle cx="71.4" cy="8.0" r="0.3" />
<circle cx="72.2" cy="8.0" r="0.3" />
<circle cx="73.0" cy="8.0" r="0.3" />
<circle cx="73.8" cy="9.0" r="0.3" />
<circle cx="74.6" cy="12.0" r="0.3" />
<circle cx="75.4" cy="12.0" r="0.3" />
<circle cx="76.3" cy="14.0" r="0.3" />
<circle cx="77.1" cy="15.0" r="0.3" />
<circle cx="77.9" cy="32.0" r="0.3" />
<circle cx="78.7" cy="32.0" r="0.3" />
<circle cx="79.5" cy="32.0" r="0.3" />
<circle cx="80.3" cy="33.0" r="0.3" />
<circle cx="81.1" cy="32.0" r="0.3" />
<circle cx="81.9" cy="32.0" r="0.3" />
<circle cx="82.7" cy="34.0" r="0.3" />
<circle cx="83.5" cy="35.0" r="0.3" />
<circle cx="84.3" cy="32.0" r="0.3" />
<circle cx="85.1" cy="32.0" r="0.3" />
<circle cx="85.9" cy="32.0" r="0.3" />
<circle cx="86.7" cy="33.0" r="0.3" />
<circle cx="87.5" cy="36.0" r="0.3" />
<circle cx="88.3" cy="36.0" r="0.3" />
<circle cx="89.1" cy="38.0" r="0.3" />
<circle cx="89.9" cy="39.0" r="0.3" />
<circle cx="90.7" cy="48.0" r="0.3" />
<circle cx="91.5" cy="48.0" r="0.3" />
<circle cx="92.3" cy="48.0" r="0.3" />
<circle cx="93.1" cy="49.0" r="0.3" />
<circle cx="93.9" cy="48.0" r="0.3" />
<circle cx="94.7" cy="48.0" r="0.3" />
<circle cx="95.5" cy="50.0" r="0.3" />
<circle cx="96.3" cy="51.0" r="0.3" />
<circle cx="97.1" cy="56.0" r="0.3" />
<circle cx="97.9" cy="56.0" r="0.3" />
<circle cx="98.7" cy="56.0" r="0.3" />
<circle cx="99.5" cy="57.0" r="0.3" />
<circle cx="100.3" cy="60.0" r="0.3" />
<circle cx="101.1" cy="60.0" r="0.3" />
<circle cx="101.9" cy="62.0" r="0.3" />
<circle cx="102.7" cy="63.0" r="0.3" />
</g>
</svg>