<svg xmlns="http://www.w3.org/2000/svg" width="161.8" height="100.0" viewBox="-3 -5 172 110">
<g fill="none" stroke="black" stroke-width="3.4300%" transform="translate(0, 100.0000) scale(0.1458, -0.1458)">
<line x1="17" y1="0" x2="17" y2="1" />
<line x1="34" y1="0" x2="34" y2="1" />
<line x1="51" y1="0" x2="51" y2="2" />
<line x1="68" y1="0" x2="68" y2="1" />
<line x1="85" y1="0" x2="85" y2="2" />
<line x1="102" y1="0" x2="102" y2="4" />

<line x1="137" y1="0" x2="137" y2="5" />
<line x1="154" y1="0" x2="154" y2="2" />
<line x1="171" y1="0" x2="171" y2="4" />

<line x1="205" y1="0" x2="205" y2="10" />

<line x1="239" y1="0" x2="239" y2="12" />
<line x1="256" y1="0" x2="256" y2="4" />
<line x1="273" y1="0" x2="273" y2="13" />
<line x1="290" y1="0" x2="290" y2="6" />
<line x1="307" y1="0" x2="307" y2="12" />

<line x1="342" y1="0" x2="342" y2="18" />
<line x1="359" y1="0" x2="359" y2="12" />
<line x1="376" y1="0" x2="376" y2="20" />
<line x1="393" y1="0" x2="393" y2="20" />
<line x1="410" y1="0" x2="410" y2="36" />
<line x1="427" y1="0" x2="427" y2="20" />
<line x1="444" y1="0" x2="444" y2="36" />
<line x1="461" y1="0" x2="461" y2="16" />
<line x1="478" y1="0" x2="478" y2="44" />
<line x1="495" y1="0" x2="495" y2="32" />
<line x1="512" y1="0" x2="512" y2="60" />
<line x1="529" y1="0" x2="529" y2="40" />
<line x1="546" y1="0" x2="546" y2="73" />
<line x1="564" y1="0" x2="564" y2="50" />
<line x1="581" y1="0" x2="581" y2="56" />
<line x1="598" y1="0" x2="598" y2="40" />
<line x1="615" y1="0" x2="615" y2="58" />
<line x1="632" y1="0" x2="632" y2="44" />
<line x1="649" y1="0" x2="649" y2="52" />
<line x1="666" y1="0" x2="666" y2="60" />
<line x1="683" y1="0" x2="683" y2="84" />
<line x1="700" y1="0" x2="700" y2="36" />
<line x1="717" y1="0" x2="717" y2="112" />
<line x1="734" y1="0" x2="734" y2="88" />
<line x1="751" y1="0" x2="751" y2="108" />
<line x1="768" y1="0" x2="768" y2="136" />
<line x1="786" y1="0" x2="786" y2="132" />
<line x1="803" y1="0" x2="803" y2="152" />
<line x1="820" y1="0" x2="820" y2="178" />
<line x1="837" y1="0" x2="837" y2="136" />
<line x1="854" y1="0" x2="854" y2="232" />
<line x1="871" y1="0" x2="871" y2="108" />
<line x1="888" y1="0" x2="888" y2="260" />
<line x1="905" y1="0" x2="905" y2="244" />
<line x1="922" y1="0" x2="922" y2="256" />
<line x1="939" y1="0" x2="939" y2="304" />
<line x1="956" y1="0" x2="956" y2="288" />
<line x1="973" y1="0" x2="973" y2="356" />
<line x1="990" y1="0" x2="990" y2="352" />
<line x1="1008" y1="0" x2="1008" y2="464" />
<line x1="1025" y1="0" x2="1025" y2="448" />
<line x1="1042" y1="0" x2="1042" y2="528" />
<line x1="1059" y1="0" x2="1059" y2="520" />
<line x1="1076" y1="0" x2="1076" y2="640" />
<line x1="1093" y1="0" x2="1093" y2="593" />
<line x1="1110" y1="0" x2="1110" y2="686" />
<line x1="1127" y1="0" x2="1127" y2="596" />
</g>
</svg>