<svg xmlns="http://www.w3.org/2000/svg" width="161.8" height="100.0" viewBox="-3.1 -5.0 171.8 110.0">
<g fill="none" stroke="black" stroke-width="0.9550%" transform="translate(0, 100.0000) scale(0.5236, -0.5236)">

<line x1="7.3" y1="0.0" x2="7.3" y2="2.0" />
<line x1="10.9" y1="0.0" x2="10.9" y2="5.0" />
<line x1="14.5" y1="0.0" x2="14.5" y2="6.0" />
<line x1="18.2" y1="0.0" x2="18.2" y2="11.0" />
<line x1="21.8" y1="0.0" x2="21.8" y2="10.0" />
<line x1="25.5" y1="0.0" x2="25.5" y2="13.0" />
<line x1="29.1" y1="0.0" x2="29.1" y2="14.0" />
<line x1="32.7" y1="0.0" x2="32.7" y2="23.0" />
<line x1="36.4" y1="0.0" x2="36.4" y2="22.0" />
<line x1="40.0" y1="0.0" x2="40.0" y2="21.0" />
<line x1="43.6" y1="0.0" x2="43.6" y2="22.0" />
<line x1="47.3" y1="0.0" x2="47.3" y2="27.0" />
<line x1="50.9" y1="0.0" x2="50.9" y2="26.0" />
<line x1="54.5" y1="0.0" x2="54.5" y2="29.0" />
<line x1="58.2" y1="0.0" x2="58.2" y2="30.0" />
<line x1="61.8" y1="0.0" x2="61.8" y2="47.0" />
<line x1="65.4" y1="0.0" x2="65.4" y2="46.0" />
<line x1="69.1" y1="0.0" x2="69.1" y2="45.0" />
<line x1="72.7" y1="0.0" x2="72.7" y2="46.0" />
<line x1="76.4" y1="0.0" x2="76.4" y2="43.0" />
<line x1="80.0" y1="0.0" x2="80.0" y2="42.0" />
<line x1="83.6" y1="0.0" x2="83.6" y2="45.0" />
<line x1="87.3" y1="0.0" x2="87.3" y2="46.0" />
<line x1="90.9" y1="0.0" x2="90.9" y2="55.0" />
<line x1="94.5" y1="0.0" x2="94.5" y2="54.0" />
<line x1="98.2" y1="0.0" x2="98.2" y2="53.0" />
<line x1="101.8" y1="0.0" x2="101.8" y2="54.0" />
<line x1="105.4" y1="0.0" x2="105.4" y2="59.0" />
<line x1="109.1" y1="0.0" x2="109.1" y2="58.0" />
<line x1="112.7" y1="0.0" x2="112.7" y2="61.0" />
<line x1="116.3" y1="0.0" x2="116.3" y2="62.0" />
<line x1="120.0" y1="0.0" x2="120.0" y2="95.0" />
<line x1="123.6" y1="0.0" x2="123.6" y2="94.0" />
<line x1="127.3" y1="0.0" x2="127.3" y2="93.0" />
<line x1="130.9" y1="0.0" x2="130.9" y2="94.0" />
<line x1="134.5" y1="0.0" x2="134.5" y2="91.0" />
<line x1="138.2" y1="0.0" x2="138.2" y2="90.0" />
<line x1="141.8" y1="0.0" x2="141.8" y2="93.0" />
<line x1="145.4" y1="0.0" x2="145.4" y2="94.0" />
<line x1="149.1" y1="0.0" x2="149.1" y2="87.0" />
<line x1="152.7" y1="0.0" x2="152.7" y2="86.0" />
<line x1="156.3" y1="0.0" x2="156.3" y2="85.0" />
<line x1="160.0" y1="0.0" x2="160.0" y2="86.0" />
<line x1="163.6" y1="0.0" x2="163.6" y2="91.0" />
<line x1="167.2" y1="0.0" x2="167.2" y2="90.0" />
<line x1="170.9" y1="0.0" x2="170.9" y2="93.0" />
<line x1="174.5" y1="0.0" x2="174.5" y2="94.0" />
<line x1="178.2" y1="0.0" x2="178.2" y2="111.0" />
<line x1="181.8" y1="0.0" x2="181.8" y2="110.0" />
<line x1="185.4" y1="0.0" x2="185.4" y2="109.0" />
<line x1="189.1" y1="0.0" x2="189.1" y2="110.0" />
<line x1="192.7" y1="0.0" x2="192.7" y2="107.0" />
<line x1="196.3" y1="0.0" x2="196.3" y2="106.0" />
<line x1="200.0" y1="0.0" x2="200.0" y2="109.0" />
<line x1="203.6" y1="0.0" x2="203.6" y2="110.0" />
<line x1="207.2" y1="0.0" x2="207.2" y2="119.0" />
<line x1="210.9" y1="0.0" x2="210.9" y2="118.0" />
<line x1="214.5" y1="0.0" x2="214.5" y2="117.0" />
<line x1="218.1" y1="0.0" x2="218.1" y2="118.0" />
<line x1="221.8" y1="0.0" x2="221.8" y2="123.0" />
<line x1="225.4" y1="0.0" x2="225.4" y2="122.0" />
<line x1="229.1" y1="0.0" x2="229.1" y2="125.0" />
<line x1="232.7" y1="0.0" x2="232.7" y2="126.0" />
<line x1="236.3" y1="0.0" x2="236.3" y2="191.0" />
<line x1="240.0" y1="0.0" x2="240.0" y2="190.0" />
<line x1="243.6" y1="0.0" x2="243.6" y2="189.0" />
<line x1="247.2" y1="0.0" x2="247.2" y2="190.0" />
<line x1="250.9" y1="0.0" x2="250.9" y2="187.0" />
<line x1="254.5" y1="0.0" x2="254.5" y2="186.0" />
<line x1="258.1" y1="0.0" x2="258.1" y2="189.0" />
<line x1="261.8" y1="0.0" x2="261.8" y2="190.0" />
<line x1="265.4" y1="0.0" x2="265.4" y2="183.0" />
<line x1="269.1" y1="0.0" x2="269.1" y2="182.0" />
<line x1="272.7" y1="0.0" x2="272.7" y2="181.0" />
<line x1="276.3" y1="0.0" x2="276.3" y2="182.0" />
<line x1="280.0" y1="0.0" x2="280.0" y2="187.0" />
<line x1="283.6" y1="0.0" x2="283.6" y2="186.0" />
<line x1="287.2" y1="0.0" x2="287.2" y2="189.0" />
<line x1="290.9" y1="0.0" x2="290.9" y2="190.0" />
<line x1="294.5" y1="0.0" x2="294.5" y2="175.0" />
<line x1="298.1" y1="0.0" x2="298.1" y2="174.0" />
<line x1="301.8" y1="0.0" x2="301.8" y2="173.0" />
<line x1="305.4" y1="0.0" x2="305.4" y2="174.0" />
<line x1="309.0" y1="0.0" x2="309.0" y2="171.0" />
<line x1="312.7" y1="0.0" x2="312.7" y2="170.0" />
</g>
</svg>