<svg xmlns="http://www.w3.org/2000/svg" width="161.2" height="100.0" viewBox="-3 -5 171 110">
<g fill="none" stroke="black" stroke-width="2.5550%" transform="translate(0, 100.0000) scale(0.1957, -0.1957)">
<line x1="10" y1="0" x2="10" y2="2" />
<line x1="20" y1="0" x2="20" y2="3" />
<line x1="29" y1="0" x2="29" y2="5" />
<line x1="39" y1="0" x2="39" y2="7" />
<line x1="49" y1="0" x2="49" y2="11" />
<line x1="59" y1="0" x2="59" y2="13" />
<line x1="69" y1="0" x2="69" y2="25" />
<line x1="78" y1="0" x2="78" y2="23" />
<line x1="88" y1="0" x2="88" y2="23" />
<line x1="98" y1="0" x2="98" y2="29" />
<line x1="108" y1="0" x2="108" y2="31" />
<line x1="118" y1="0" x2="118" y2="55" />
<line x1="127" y1="0" x2="127" y2="59" />
<line x1="137" y1="0" x2="137" y2="59" />
<line x1="147" y1="0" x2="147" y2="63" />
<line x1="157" y1="0" x2="157" y2="63" />
<line x1="167" y1="0" x2="167" y2="63" />
<line x1="176" y1="0" x2="176" y2="61" />
<line x1="186" y1="0" x2="186" y2="111" />
<line x1="196" y1="0" x2="196" y2="111" />
<line x1="206" y1="0" x2="206" y2="107" />
<line x1="216" y1="0" x2="216" y2="111" />
<line x1="226" y1="0" x2="226" y2="123" />
<line x1="235" y1="0" x2="235" y2="127" />
<line x1="245" y1="0" x2="245" y2="103" />
<line x1="255" y1="0" x2="255" y2="101" />
<line x1="265" y1="0" x2="265" y2="103" />
<line x1="275" y1="0" x2="275" y2="107" />
<line x1="284" y1="0" x2="284" y2="111" />
<line x1="294" y1="0" x2="294" y2="113" />
<line x1="304" y1="0" x2="304" y2="127" />
<line x1="314" y1="0" x2="314" y2="223" />
<line x1="324" y1="0" x2="324" y2="223" />
<line x1="333" y1="0" x2="333" y2="223" />
<line x1="343" y1="0" x2="343" y2="221" />
<line x1="353" y1="0" x2="353" y2="223" />
<line x1="363" y1="0" x2="363" y2="223" />
<line x1="373" y1="0" x2="373" y2="251" />
<line x1="382" y1="0" x2="382" y2="255" />
<line x1="392" y1="0" x2="392" y2="255" />
<line x1="402" y1="0" x2="402" y2="247" />
<line x1="412" y1="0" x2="412" y2="245" />
<line x1="422" y1="0" x2="422" y2="255" />
<line x1="431" y1="0" x2="431" y2="211" />
<line x1="441" y1="0" x2="441" y2="215" />
<line x1="451" y1="0" x2="451" y2="215" />
<line x1="461" y1="0" x2="461" y2="211" />
<line x1="471" y1="0" x2="471" y2="223" />
<line x1="480" y1="0" x2="480" y2="239" />
<line x1="490" y1="0" x2="490" y2="237" />
<line x1="500" y1="0" x2="500" y2="237" />
<line x1="510" y1="0" x2="510" y2="239" />
<line x1="520" y1="0" x2="520" y2="251" />
<line x1="529" y1="0" x2="529" y2="251" />
<line x1="539" y1="0" x2="539" y2="457" />
<line x1="549" y1="0" x2="549" y2="455" />
<line x1="559" y1="0" x2="559" y2="463" />
<line x1="569" y1="0" x2="569" y2="463" />
<line x1="578" y1="0" x2="578" y2="469" />
<line x1="588" y1="0" x2="588" y2="475" />
<line x1="598" y1="0" x2="598" y2="475" />
<line x1="608" y1="0" x2="608" y2="485" />
<line x1="618" y1="0" x2="618" y2="499" />
<line x1="627" y1="0" x2="627" y2="447" />
<line x1="637" y1="0" x2="637" y2="447" />
<line x1="647" y1="0" x2="647" y2="445" />
<line x1="657" y1="0" x2="657" y2="511" />
<line x1="667" y1="0" x2="667" y2="507" />
<line x1="677" y1="0" x2="677" y2="507" />
<line x1="686" y1="0" x2="686" y2="509" />
<line x1="696" y1="0" x2="696" y2="505" />
<line x1="706" y1="0" x2="706" y2="503" />
<line x1="716" y1="0" x2="716" y2="511" />
<line x1="726" y1="0" x2="726" y2="501" />
<line x1="735" y1="0" x2="735" y2="511" />
<line x1="745" y1="0" x2="745" y2="511" />
<line x1="755" y1="0" x2="755" y2="439" />
<line x1="765" y1="0" x2="765" y2="445" />
<line x1="775" y1="0" x2="775" y2="433" />
<line x1="784" y1="0" x2="784" y2="447" />
<line x1="794" y1="0" x2="794" y2="431" />
<line x1="804" y1="0" x2="804" y2="429" />
<line x1="814" y1="0" x2="814" y2="431" />
<line x1="824" y1="0" x2="824" y2="443" />
<line x1="833" y1="0" x2="833" y2="447" />
</g>
</svg>