<svg xmlns="http://www.w3.org/2000/svg" width="161.8" height="100.0" viewBox="-3.07 -5.00 171.80 110.00">
<g fill="none" stroke="black" stroke-width="0.0588%" transform="translate(0, 100.0000) scale(8.5094, -8.5094)">
<circle cx="0.23" cy="0.00" r="0.06" />
<circle cx="0.45" cy="1.10" r="0.06" />
<circle cx="0.68" cy="0.00" r="0.06" />
<circle cx="0.91" cy="1.39" r="0.06" />
<circle cx="1.13" cy="1.61" r="0.06" />
<circle cx="1.36" cy="2.20" r="0.06" />
<circle cx="1.58" cy="2.30" r="0.06" />
<circle cx="1.81" cy="2.56" r="0.06" />
<circle cx="2.04" cy="2.64" r="0.06" />
<circle cx="2.26" cy="3.30" r="0.06" />
<circle cx="2.49" cy="3.61" r="0.06" />
<circle cx="2.72" cy="3.83" r="0.06" />
<circle cx="2.94" cy="3.93" r="0.06" />
<circle cx="3.17" cy="4.01" r="0.06" />
<circle cx="3.40" cy="4.03" r="0.06" />
<circle cx="3.62" cy="4.08" r="0.06" />
<circle cx="3.85" cy="4.09" r="0.06" />
<circle cx="4.07" cy="4.78" r="0.06" />
<circle cx="4.30" cy="5.16" r="0.06" />
<circle cx="4.53" cy="5.44" r="0.06" />
<circle cx="4.75" cy="5.64" r="0.06" />
<circle cx="4.98" cy="5.79" r="0.06" />
<circle cx="5.21" cy="5.90" r="0.06" />
<circle cx="5.43" cy="5.97" r="0.06" />
<circle cx="5.66" cy="6.00" r="0.06" />
<circle cx="5.89" cy="6.04" r="0.06" />
<circle cx="6.11" cy="6.06" r="0.06" />
<circle cx="6.34" cy="6.08" r="0.06" />
<circle cx="6.56" cy="6.09" r="0.06" />
<circle cx="6.79" cy="6.10" r="0.06" />
<circle cx="7.02" cy="6.10" r="0.06" />
<circle cx="7.24" cy="6.11" r="0.06" />
<circle cx="7.47" cy="6.11" r="0.06" />
<circle cx="7.70" cy="6.80" r="0.06" />
<circle cx="7.92" cy="7.21" r="0.06" />
<circle cx="8.15" cy="7.49" r="0.06" />
<circle cx="8.38" cy="7.71" r="0.06" />
<circle cx="8.60" cy="7.89" r="0.06" />
<circle cx="8.83" cy="8.04" r="0.06" />
<circle cx="9.05" cy="8.17" r="0.06" />
<circle cx="9.28" cy="8.27" r="0.06" />
<circle cx="9.51" cy="8.37" r="0.06" />
<circle cx="9.73" cy="8.45" r="0.06" />
<circle cx="9.96" cy="8.52" r="0.06" />
<circle cx="10.19" cy="8.57" r="0.06" />
<circle cx="10.41" cy="8.62" r="0.06" />
<circle cx="10.64" cy="8.65" r="0.06" />
<circle cx="10.87" cy="8.67" r="0.06" />
<circle cx="11.09" cy="8.68" r="0.06" />
<circle cx="11.32" cy="8.69" r="0.06" />
<circle cx="11.54" cy="8.70" r="0.06" />
<circle cx="11.77" cy="8.71" r="0.06" />
<circle cx="12.00" cy="8.71" r="0.06" />
<circle cx="12.22" cy="8.72" r="0.06" />
<circle cx="12.45" cy="8.73" r="0.06" />
<circle cx="12.68" cy="8.73" r="0.06" />
<circle cx="12.90" cy="8.73" r="0.06" />
<circle cx="13.13" cy="8.74" r="0.06" />
<circle cx="13.36" cy="8.74" r="0.06" />
<circle cx="13.58" cy="8.74" r="0.06" />
<circle cx="13.81" cy="8.74" r="0.06" />
<circle cx="14.03" cy="8.74" r="0.06" />
<circle cx="14.26" cy="8.74" r="0.06" />
<circle cx="14.49" cy="8.74" r="0.06" />
<circle cx="14.71" cy="8.74" r="0.06" />
<circle cx="14.94" cy="9.44" r="0.06" />
<circle cx="15.17" cy="9.84" r="0.06" />
<circle cx="15.39" cy="10.13" r="0.06" />
<circle cx="15.62" cy="10.35" r="0.06" />
<circle cx="15.85" cy="10.53" r="0.06" />
<circle cx="16.07" cy="10.69" r="0.06" />
<circle cx="16.30" cy="10.82" r="0.06" />
<circle cx="16.52" cy="10.94" r="0.06" />
<circle cx="16.75" cy="11.04" r="0.06" />
<circle cx="16.98" cy="11.14" r="0.06" />
<circle cx="17.20" cy="11.22" r="0.06" />
<circle cx="17.43" cy="11.30" r="0.06" />
<circle cx="17.66" cy="11.37" r="0.06" />
<circle cx="17.88" cy="11.44" r="0.06" />
<circle cx="18.11" cy="11.50" r="0.06" />
<circle cx="18.34" cy="11.56" r="0.06" />
<circle cx="18.56" cy="11.61" r="0.06" />
<circle cx="18.79" cy="11.66" r="0.06" />
<circle cx="19.01" cy="11.71" r="0.06" />
<circle cx="19.24" cy="11.75" r="0.06" />
</g>
</svg>