<svg xmlns="http://www.w3.org/2000/svg" width="161.8" height="100.0" viewBox="-3.4 -5.0 171.8 110.0">
<g fill="none" stroke="black" stroke-width="0.4400%" transform="translate(0, 100.0000) scale(1.1364, -1.1364)">
<circle cx="1.4" cy="0.0" r="0.4" />
<circle cx="2.9" cy="0.0" r="0.4" />
<circle cx="4.3" cy="1.0" r="0.4" />
<circle cx="5.8" cy="0.0" r="0.4" />
<circle cx="7.2" cy="2.0" r="0.4" />
<circle cx="8.6" cy="2.0" r="0.4" />
<circle cx="10.1" cy="4.0" r="0.4" />
<circle cx="11.5" cy="0.0" r="0.4" />
<circle cx="12.9" cy="3.0" r="0.4" />
<circle cx="14.4" cy="4.0" r="0.4" />
<circle cx="15.8" cy="7.0" r="0.4" />
<circle cx="17.3" cy="4.0" r="0.4" />
<circle cx="18.7" cy="7.0" r="0.4" />
<circle cx="20.1" cy="8.0" r="0.4" />
<circle cx="21.6" cy="11.0" r="0.4" />
<circle cx="23.0" cy="0.0" r="0.4" />
<circle cx="24.5" cy="4.0" r="0.4" />
<circle cx="25.9" cy="6.0" r="0.4" />
<circle cx="27.3" cy="10.0" r="0.4" />
<circle cx="28.8" cy="8.0" r="0.4" />
<circle cx="30.2" cy="12.0" r="0.4" />
<circle cx="31.6" cy="14.0" r="0.4" />
<circle cx="33.1" cy="18.0" r="0.4" />
<circle cx="34.5" cy="8.0" r="0.4" />
<circle cx="36.0" cy="12.0" r="0.4" />
<circle cx="37.4" cy="14.0" r="0.4" />
<circle cx="38.8" cy="18.0" r="0.4" />
<circle cx="40.3" cy="16.0" r="0.4" />
<circle cx="41.7" cy="20.0" r="0.4" />
<circle cx="43.1" cy="22.0" r="0.4" />
<circle cx="44.6" cy="26.0" r="0.4" />
<circle cx="46.0" cy="0.0" r="0.4" />
<circle cx="47.5" cy="5.0" r="0.4" />
<circle cx="48.9" cy="8.0" r="0.4" />
<circle cx="50.3" cy="13.0" r="0.4" />
<circle cx="51.8" cy="12.0" r="0.4" />
<circle cx="53.2" cy="17.0" r="0.4" />
<circle cx="54.7" cy="20.0" r="0.4" />
<circle cx="56.1" cy="25.0" r="0.4" />
<circle cx="57.5" cy="16.0" r="0.4" />
<circle cx="59.0" cy="21.0" r="0.4" />
<circle cx="60.4" cy="24.0" r="0.4" />
<circle cx="61.8" cy="29.0" r="0.4" />
<circle cx="63.3" cy="28.0" r="0.4" />
<circle cx="64.7" cy="33.0" r="0.4" />
<circle cx="66.2" cy="36.0" r="0.4" />
<circle cx="67.6" cy="41.0" r="0.4" />
<circle cx="69.0" cy="16.0" r="0.4" />
<circle cx="70.5" cy="21.0" r="0.4" />
<circle cx="71.9" cy="24.0" r="0.4" />
<circle cx="73.4" cy="29.0" r="0.4" />
<circle cx="74.8" cy="28.0" r="0.4" />
<circle cx="76.2" cy="33.0" r="0.4" />
<circle cx="77.7" cy="36.0" r="0.4" />
<circle cx="79.1" cy="41.0" r="0.4" />
<circle cx="80.5" cy="32.0" r="0.4" />
<circle cx="82.0" cy="37.0" r="0.4" />
<circle cx="83.4" cy="40.0" r="0.4" />
<circle cx="84.9" cy="45.0" r="0.4" />
<circle cx="86.3" cy="44.0" r="0.4" />
<circle cx="87.7" cy="49.0" r="0.4" />
<circle cx="89.2" cy="52.0" r="0.4" />
<circle cx="90.6" cy="57.0" r="0.4" />
<circle cx="92.0" cy="0.0" r="0.4" />
<circle cx="93.5" cy="6.0" r="0.4" />
<circle cx="94.9" cy="10.0" r="0.4" />
<circle cx="96.4" cy="16.0" r="0.4" />
<circle cx="97.8" cy="16.0" r="0.4" />
<circle cx="99.2" cy="22.0" r="0.4" />
<circle cx="100.7" cy="26.0" r="0.4" />
<circle cx="102.1" cy="32.0" r="0.4" />
<circle cx="103.6" cy="24.0" r="0.4" />
<circle cx="105.0" cy="30.0" r="0.4" />
<circle cx="106.4" cy="34.0" r="0.4" />
<circle cx="107.9" cy="40.0" r="0.4" />
<circle cx="109.3" cy="40.0" r="0.4" />
<circle cx="110.7" cy="46.0" r="0.4" />
<circle cx="112.2" cy="50.0" r="0.4" />
<circle cx="113.6" cy="56.0" r="0.4" />
<circle cx="115.1" cy="32.0" r="0.4" />
<circle cx="116.5" cy="38.0" r="0.4" />
<circle cx="117.9" cy="42.0" r="0.4" />
<circle cx="119.4" cy="48.0" r="0.4" />
<circle cx="120.8" cy="48.0" r="0.4" />
<circle cx="122.3" cy="54.0" r="0.4" />
<circle cx="123.7" cy="58.0" r="0.4" />
<circle cx="125.1" cy="64.0" r="0.4" />
<circle cx="126.6" cy="56.0" r="0.4" />
<circle cx="128.0" cy="62.0" r="0.4" />
<circle cx="129.4" cy="66.0" r="0.4" />
<circle cx="130.9" cy="72.0" r="0.4" />
<circle cx="132.3" cy="72.0" r="0.4" />
<circle cx="133.8" cy="78.0" r="0.4" />
<circle cx="135.2" cy="82.0" r="0.4" />
<circle cx="136.6" cy="88.0" r="0.4" />
<circle cx="138.1" cy="32.0" r="0.4" />
<circle cx="139.5" cy="38.0" r="0.4" />
<circle cx="140.9" cy="42.0" r="0.4" />
<circle cx="142.4" cy="48.0" r="0.4" />
<circle cx="143.8" cy="48.0" r="0.4" />
</g>
</svg>