<svg xmlns="http://www.w3.org/2000/svg" width="161.8" height="100.0" viewBox="-4.23 -5.00 171.80 110.00">
<g fill="none" stroke="black" stroke-width="0.0750%" transform="translate(0, 100.0000) scale(6.6667, -6.6667)">
<circle cx="0.12" cy="0.00" r="0.07" />
<circle cx="0.23" cy="0.00" r="0.07" />
<circle cx="0.35" cy="0.00" r="0.07" />
<circle cx="0.46" cy="0.00" r="0.07" />
<circle cx="0.58" cy="1.00" r="0.07" />
<circle cx="0.70" cy="0.00" r="0.07" />
<circle cx="0.81" cy="0.00" r="0.07" />
<circle cx="0.93" cy="0.00" r="0.07" />
<circle cx="1.05" cy="0.00" r="0.07" />
<circle cx="1.16" cy="0.00" r="0.07" />
<circle cx="1.28" cy="0.00" r="0.07" />
<circle cx="1.39" cy="1.00" r="0.07" />
<circle cx="1.51" cy="2.00" r="0.07" />
<circle cx="1.63" cy="3.00" r="0.07" />
<circle cx="1.74" cy="0.00" r="0.07" />
<circle cx="1.86" cy="0.00" r="0.07" />
<circle cx="1.97" cy="0.00" r="0.07" />
<circle cx="2.09" cy="2.00" r="0.07" />
<circle cx="2.21" cy="2.00" r="0.07" />
<circle cx="2.32" cy="0.00" r="0.07" />
<circle cx="2.44" cy="0.00" r="0.07" />
<circle cx="2.55" cy="0.00" r="0.07" />
<circle cx="2.67" cy="1.00" r="0.07" />
<circle cx="2.79" cy="0.00" r="0.07" />
<circle cx="2.90" cy="1.00" r="0.07" />
<circle cx="3.02" cy="0.00" r="0.07" />
<circle cx="3.14" cy="1.00" r="0.07" />
<circle cx="3.25" cy="0.00" r="0.07" />
<circle cx="3.37" cy="0.00" r="0.07" />
<circle cx="3.48" cy="0.00" r="0.07" />
<circle cx="3.60" cy="0.00" r="0.07" />
<circle cx="3.72" cy="0.00" r="0.07" />
<circle cx="3.83" cy="0.00" r="0.07" />
<circle cx="3.95" cy="0.00" r="0.07" />
<circle cx="4.06" cy="0.00" r="0.07" />
<circle cx="4.18" cy="0.00" r="0.07" />
<circle cx="4.30" cy="0.00" r="0.07" />
<circle cx="4.41" cy="1.00" r="0.07" />
<circle cx="4.53" cy="2.00" r="0.07" />
<circle cx="4.65" cy="3.00" r="0.07" />
<circle cx="4.76" cy="4.00" r="0.07" />
<circle cx="4.88" cy="5.00" r="0.07" />
<circle cx="4.99" cy="6.00" r="0.07" />
<circle cx="5.11" cy="7.00" r="0.07" />
<circle cx="5.23" cy="0.00" r="0.07" />
<circle cx="5.34" cy="0.00" r="0.07" />
<circle cx="5.46" cy="0.00" r="0.07" />
<circle cx="5.57" cy="2.00" r="0.07" />
<circle cx="5.69" cy="2.00" r="0.07" />
<circle cx="5.81" cy="4.00" r="0.07" />
<circle cx="5.92" cy="4.00" r="0.07" />
<circle cx="6.04" cy="6.00" r="0.07" />
<circle cx="6.15" cy="6.00" r="0.07" />
<circle cx="6.27" cy="0.00" r="0.07" />
<circle cx="6.39" cy="0.00" r="0.07" />
<circle cx="6.50" cy="0.00" r="0.07" />
<circle cx="6.62" cy="1.00" r="0.07" />
<circle cx="6.74" cy="0.00" r="0.07" />
<circle cx="6.85" cy="1.00" r="0.07" />
<circle cx="6.97" cy="4.00" r="0.07" />
<circle cx="7.08" cy="5.00" r="0.07" />
<circle cx="7.20" cy="4.00" r="0.07" />
<circle cx="7.32" cy="5.00" r="0.07" />
<circle cx="7.43" cy="0.00" r="0.07" />
<circle cx="7.55" cy="1.00" r="0.07" />
<circle cx="7.66" cy="0.00" r="0.07" />
<circle cx="7.78" cy="0.00" r="0.07" />
<circle cx="7.90" cy="0.00" r="0.07" />
<circle cx="8.01" cy="0.00" r="0.07" />
<circle cx="8.13" cy="0.00" r="0.07" />
<circle cx="8.25" cy="4.00" r="0.07" />
<circle cx="8.36" cy="4.00" r="0.07" />
<circle cx="8.48" cy="4.00" r="0.07" />
<circle cx="8.59" cy="4.00" r="0.07" />
<circle cx="8.71" cy="0.00" r="0.07" />
<circle cx="8.83" cy="0.00" r="0.07" />
<circle cx="8.94" cy="0.00" r="0.07" />
<circle cx="9.06" cy="0.00" r="0.07" />
<circle cx="9.17" cy="0.00" r="0.07" />
<circle cx="9.29" cy="1.00" r="0.07" />
<circle cx="9.41" cy="2.00" r="0.07" />
<circle cx="9.52" cy="3.00" r="0.07" />
<circle cx="9.64" cy="0.00" r="0.07" />
<circle cx="9.75" cy="1.00" r="0.07" />
<circle cx="9.87" cy="2.00" r="0.07" />
<circle cx="9.99" cy="3.00" r="0.07" />
<circle cx="10.10" cy="0.00" r="0.07" />
<circle cx="10.22" cy="1.00" r="0.07" />
<circle cx="10.34" cy="2.00" r="0.07" />
<circle cx="10.45" cy="3.00" r="0.07" />
<circle cx="10.57" cy="0.00" r="0.07" />
<circle cx="10.68" cy="0.00" r="0.07" />
<circle cx="10.80" cy="0.00" r="0.07" />
<circle cx="10.92" cy="2.00" r="0.07" />
<circle cx="11.03" cy="2.00" r="0.07" />
<circle cx="11.15" cy="0.00" r="0.07" />
<circle cx="11.26" cy="0.00" r="0.07" />
<circle cx="11.38" cy="2.00" r="0.07" />
<circle cx="11.50" cy="2.00" r="0.07" />
<circle cx="11.61" cy="0.00" r="0.07" />
<circle cx="11.73" cy="0.00" r="0.07" />
<circle cx="11.84" cy="2.00" r="0.07" />
<circle cx="11.96" cy="2.00" r="0.07" />
<circle cx="12.08" cy="0.00" r="0.07" />
<circle cx="12.19" cy="0.00" r="0.07" />
<circle cx="12.31" cy="0.00" r="0.07" />
<circle cx="12.43" cy="1.00" r="0.07" />
<circle cx="12.54" cy="0.00" r="0.07" />
<circle cx="12.66" cy="1.00" r="0.07" />
<circle cx="12.77" cy="0.00" r="0.07" />
<circle cx="12.89" cy="1.00" r="0.07" />
<circle cx="13.01" cy="0.00" r="0.07" />
<circle cx="13.12" cy="1.00" r="0.07" />
<circle cx="13.24" cy="0.00" r="0.07" />
<circle cx="13.35" cy="1.00" r="0.07" />
<circle cx="13.47" cy="0.00" r="0.07" />
<circle cx="13.59" cy="1.00" r="0.07" />
<circle cx="13.70" cy="0.00" r="0.07" />
<circle cx="13.82" cy="1.00" r="0.07" />
<circle cx="13.94" cy="0.00" r="0.07" />
<circle cx="14.05" cy="0.00" r="0.07" />
<circle cx="14.17" cy="0.00" r="0.07" />
<circle cx="14.28" cy="0.00" r="0.07" />
<circle cx="14.40" cy="0.00" r="0.07" />
<circle cx="14.52" cy="0.00" r="0.07" />
<circle cx="14.63" cy="0.00" r="0.07" />
<circle cx="14.75" cy="0.00" r="0.07" />
<circle cx="14.86" cy="0.00" r="0.07" />
<circle cx="14.98" cy="0.00" r="0.07" />
<circle cx="15.10" cy="0.00" r="0.07" />
<circle cx="15.21" cy="0.00" r="0.07" />
<circle cx="15.33" cy="0.00" r="0.07" />
<circle cx="15.44" cy="0.00" r="0.07" />
<circle cx="15.56" cy="0.00" r="0.07" />
<circle cx="15.68" cy="0.00" r="0.07" />
<circle cx="15.79" cy="0.00" r="0.07" />
<circle cx="15.91" cy="0.00" r="0.07" />
<circle cx="16.03" cy="1.00" r="0.07" />
<circle cx="16.14" cy="2.00" r="0.07" />
<circle cx="16.26" cy="3.00" r="0.07" />
<circle cx="16.37" cy="4.00" r="0.07" />
<circle cx="16.49" cy="5.00" r="0.07" />
<circle cx="16.61" cy="6.00" r="0.07" />
<circle cx="16.72" cy="7.00" r="0.07" />
<circle cx="16.84" cy="8.00" r="0.07" />
<circle cx="16.95" cy="9.00" r="0.07" />
<circle cx="17.07" cy="10.00" r="0.07" />
<circle cx="17.19" cy="11.00" r="0.07" />
<circle cx="17.30" cy="12.00" r="0.07" />
<circle cx="17.42" cy="13.00" r="0.07" />
<circle cx="17.54" cy="14.00" r="0.07" />
<circle cx="17.65" cy="15.00" r="0.07" />
<circle cx="17.77" cy="0.00" r="0.07" />
<circle cx="17.88" cy="0.00" r="0.07" />
<circle cx="18.00" cy="0.00" r="0.07" />
<circle cx="18.12" cy="2.00" r="0.07" />
<circle cx="18.23" cy="2.00" r="0.07" />
<circle cx="18.35" cy="4.00" r="0.07" />
<circle cx="18.46" cy="4.00" r="0.07" />
<circle cx="18.58" cy="6.00" r="0.07" />
<circle cx="18.70" cy="6.00" r="0.07" />
<circle cx="18.81" cy="8.00" r="0.07" />
<circle cx="18.93" cy="8.00" r="0.07" />
<circle cx="19.04" cy="10.00" r="0.07" />
<circle cx="19.16" cy="10.00" r="0.07" />
<circle cx="19.28" cy="12.00" r="0.07" />
<circle cx="19.39" cy="12.00" r="0.07" />
<circle cx="19.51" cy="14.00" r="0.07" />
<circle cx="19.63" cy="14.00" r="0.07" />
<circle cx="19.74" cy="0.00" r="0.07" />
<circle cx="19.86" cy="0.00" r="0.07" />
<circle cx="19.97" cy="0.00" r="0.07" />
<circle cx="20.09" cy="1.00" r="0.07" />
<circle cx="20.21" cy="0.00" r="0.07" />
<circle cx="20.32" cy="1.00" r="0.07" />
<circle cx="20.44" cy="4.00" r="0.07" />
<circle cx="20.55" cy="5.00" r="0.07" />
<circle cx="20.67" cy="4.00" r="0.07" />
<circle cx="20.79" cy="5.00" r="0.07" />
<circle cx="20.90" cy="8.00" r="0.07" />
<circle cx="21.02" cy="9.00" r="0.07" />
<circle cx="21.14" cy="8.00" r="0.07" />
<circle cx="21.25" cy="9.00" r="0.07" />
<circle cx="21.37" cy="12.00" r="0.07" />
<circle cx="21.48" cy="13.00" r="0.07" />
<circle cx="21.60" cy="12.00" r="0.07" />
<circle cx="21.72" cy="13.00" r="0.07" />
<circle cx="21.83" cy="0.00" r="0.07" />
<circle cx="21.95" cy="1.00" r="0.07" />
<circle cx="22.06" cy="0.00" r="0.07" />
<circle cx="22.18" cy="0.00" r="0.07" />
<circle cx="22.30" cy="0.00" r="0.07" />
<circle cx="22.41" cy="0.00" r="0.07" />
<circle cx="22.53" cy="0.00" r="0.07" />
<circle cx="22.64" cy="4.00" r="0.07" />
<circle cx="22.76" cy="4.00" r="0.07" />
<circle cx="22.88" cy="4.00" r="0.07" />
<circle cx="22.99" cy="4.00" r="0.07" />
<circle cx="23.11" cy="8.00" r="0.07" />
<circle cx="23.23" cy="8.00" r="0.07" />
<circle cx="23.34" cy="8.00" r="0.07" />
<circle cx="23.46" cy="8.00" r="0.07" />
<circle cx="23.57" cy="12.00" r="0.07" />
<circle cx="23.69" cy="12.00" r="0.07" />
<circle cx="23.81" cy="12.00" r="0.07" />
<circle cx="23.92" cy="12.00" r="0.07" />
<circle cx="24.04" cy="0.00" r="0.07" />
<circle cx="24.15" cy="0.00" r="0.07" />
<circle cx="24.27" cy="0.00" r="0.07" />
<circle cx="24.39" cy="0.00" r="0.07" />
</g>
</svg>