<svg xmlns="http://www.w3.org/2000/svg" width="161.8" height="100.0" viewBox="-4.2 -3.1 171.8 110.0">
<g fill="none" stroke="black" stroke-width="0.2700%" transform="translate(0, 103.7037) scale(1.8519, -1.8519)">
<circle cx="0.4" cy="1.0" r="0.3" />
<circle cx="0.9" cy="1.0" r="0.3" />
<circle cx="1.3" cy="3.0" r="0.3" />
<circle cx="1.8" cy="3.0" r="0.3" />
<circle cx="2.2" cy="3.0" r="0.3" />
<circle cx="2.6" cy="3.0" r="0.3" />
<circle cx="3.1" cy="3.0" r="0.3" />
<circle cx="3.5" cy="3.0" r="0.3" />
<circle cx="4.0" cy="5.0" r="0.3" />
<circle cx="4.4" cy="7.0" r="0.3" />
<circle cx="4.9" cy="7.0" r="0.3" />
<circle cx="5.3" cy="7.0" r="0.3" />
<circle cx="5.7" cy="7.0" r="0.3" />
<circle cx="6.2" cy="7.0" r="0.3" />
<circle cx="6.6" cy="7.0" r="0.3" />
<circle cx="7.1" cy="5.0" r="0.3" />
<circle cx="7.5" cy="5.0" r="0.3" />
<circle cx="7.9" cy="5.0" r="0.3" />
<circle cx="8.4" cy="7.0" r="0.3" />
<circle cx="8.8" cy="7.0" r="0.3" />
<circle cx="9.3" cy="11.0" r="0.3" />
<circle cx="9.7" cy="13.0" r="0.3" />
<circle cx="10.1" cy="7.0" r="0.3" />
<circle cx="10.6" cy="7.0" r="0.3" />
<circle cx="11.0" cy="7.0" r="0.3" />
<circle cx="11.5" cy="7.0" r="0.3" />
<circle cx="11.9" cy="13.0" r="0.3" />
<circle cx="12.4" cy="11.0" r="0.3" />
<circle cx="12.8" cy="7.0" r="0.3" />
<circle cx="13.2" cy="7.0" r="0.3" />
<circle cx="13.7" cy="5.0" r="0.3" />
<circle cx="14.1" cy="5.0" r="0.3" />
<circle cx="14.6" cy="7.0" r="0.3" />
<circle cx="15.0" cy="7.0" r="0.3" />
<circle cx="15.4" cy="13.0" r="0.3" />
<circle cx="15.9" cy="13.0" r="0.3" />
<circle cx="16.3" cy="15.0" r="0.3" />
<circle cx="16.8" cy="15.0" r="0.3" />
<circle cx="17.2" cy="15.0" r="0.3" />
<circle cx="17.7" cy="11.0" r="0.3" />
<circle cx="18.1" cy="11.0" r="0.3" />
<circle cx="18.5" cy="11.0" r="0.3" />
<circle cx="19.0" cy="13.0" r="0.3" />
<circle cx="19.4" cy="13.0" r="0.3" />
<circle cx="19.9" cy="13.0" r="0.3" />
<circle cx="20.3" cy="15.0" r="0.3" />
<circle cx="20.7" cy="15.0" r="0.3" />
<circle cx="21.2" cy="11.0" r="0.3" />
<circle cx="21.6" cy="11.0" r="0.3" />
<circle cx="22.1" cy="15.0" r="0.3" />
<circle cx="22.5" cy="15.0" r="0.3" />
<circle cx="22.9" cy="13.0" r="0.3" />
<circle cx="23.4" cy="13.0" r="0.3" />
<circle cx="23.8" cy="13.0" r="0.3" />
<circle cx="24.3" cy="11.0" r="0.3" />
<circle cx="24.7" cy="11.0" r="0.3" />
<circle cx="25.2" cy="11.0" r="0.3" />
<circle cx="25.6" cy="15.0" r="0.3" />
<circle cx="26.0" cy="15.0" r="0.3" />
<circle cx="26.5" cy="15.0" r="0.3" />
<circle cx="26.9" cy="13.0" r="0.3" />
<circle cx="27.4" cy="13.0" r="0.3" />
<circle cx="27.8" cy="7.0" r="0.3" />
<circle cx="28.2" cy="7.0" r="0.3" />
<circle cx="28.7" cy="7.0" r="0.3" />
<circle cx="29.1" cy="7.0" r="0.3" />
<circle cx="29.6" cy="15.0" r="0.3" />
<circle cx="30.0" cy="15.0" r="0.3" />
<circle cx="30.4" cy="15.0" r="0.3" />
<circle cx="30.9" cy="15.0" r="0.3" />
<circle cx="31.3" cy="13.0" r="0.3" />
<circle cx="31.8" cy="13.0" r="0.3" />
<circle cx="32.2" cy="15.0" r="0.3" />
<circle cx="32.7" cy="15.0" r="0.3" />
<circle cx="33.1" cy="27.0" r="0.3" />
<circle cx="33.5" cy="23.0" r="0.3" />
<circle cx="34.0" cy="23.0" r="0.3" />
<circle cx="34.4" cy="27.0" r="0.3" />
<circle cx="34.9" cy="15.0" r="0.3" />
<circle cx="35.3" cy="15.0" r="0.3" />
<circle cx="35.7" cy="15.0" r="0.3" />
<circle cx="36.2" cy="15.0" r="0.3" />
<circle cx="36.6" cy="27.0" r="0.3" />
<circle cx="37.1" cy="27.0" r="0.3" />
<circle cx="37.5" cy="29.0" r="0.3" />
<circle cx="38.0" cy="29.0" r="0.3" />
<circle cx="38.4" cy="31.0" r="0.3" />
<circle cx="38.8" cy="23.0" r="0.3" />
<circle cx="39.3" cy="21.0" r="0.3" />
<circle cx="39.7" cy="29.0" r="0.3" />
<circle cx="40.2" cy="31.0" r="0.3" />
<circle cx="40.6" cy="23.0" r="0.3" />
<circle cx="41.0" cy="23.0" r="0.3" />
<circle cx="41.5" cy="25.0" r="0.3" />
<circle cx="41.9" cy="11.0" r="0.3" />
<circle cx="42.4" cy="11.0" r="0.3" />
<circle cx="42.8" cy="11.0" r="0.3" />
<circle cx="43.2" cy="11.0" r="0.3" />
<circle cx="43.7" cy="25.0" r="0.3" />
<circle cx="44.1" cy="23.0" r="0.3" />
<circle cx="44.6" cy="23.0" r="0.3" />
<circle cx="45.0" cy="31.0" r="0.3" />
<circle cx="45.5" cy="29.0" r="0.3" />
<circle cx="45.9" cy="21.0" r="0.3" />
<circle cx="46.3" cy="23.0" r="0.3" />
<circle cx="46.8" cy="31.0" r="0.3" />
<circle cx="47.2" cy="29.0" r="0.3" />
<circle cx="47.7" cy="29.0" r="0.3" />
<circle cx="48.1" cy="27.0" r="0.3" />
<circle cx="48.5" cy="27.0" r="0.3" />
<circle cx="49.0" cy="15.0" r="0.3" />
<circle cx="49.4" cy="15.0" r="0.3" />
<circle cx="49.9" cy="15.0" r="0.3" />
<circle cx="50.3" cy="15.0" r="0.3" />
<circle cx="50.7" cy="27.0" r="0.3" />
<circle cx="51.2" cy="23.0" r="0.3" />
<circle cx="51.6" cy="23.0" r="0.3" />
<circle cx="52.1" cy="27.0" r="0.3" />
<circle cx="52.5" cy="15.0" r="0.3" />
<circle cx="53.0" cy="15.0" r="0.3" />
<circle cx="53.4" cy="13.0" r="0.3" />
<circle cx="53.8" cy="13.0" r="0.3" />
<circle cx="54.3" cy="15.0" r="0.3" />
<circle cx="54.7" cy="15.0" r="0.3" />
<circle cx="55.2" cy="15.0" r="0.3" />
<circle cx="55.6" cy="15.0" r="0.3" />
<circle cx="56.0" cy="7.0" r="0.3" />
<circle cx="56.5" cy="7.0" r="0.3" />
<circle cx="56.9" cy="9.0" r="0.3" />
<circle cx="57.4" cy="15.0" r="0.3" />
<circle cx="57.8" cy="15.0" r="0.3" />
<circle cx="58.2" cy="15.0" r="0.3" />
<circle cx="58.7" cy="23.0" r="0.3" />
<circle cx="59.1" cy="27.0" r="0.3" />
<circle cx="59.6" cy="27.0" r="0.3" />
<circle cx="60.0" cy="21.0" r="0.3" />
<circle cx="60.5" cy="23.0" r="0.3" />
<circle cx="60.9" cy="31.0" r="0.3" />
<circle cx="61.3" cy="31.0" r="0.3" />
<circle cx="61.8" cy="31.0" r="0.3" />
<circle cx="62.2" cy="31.0" r="0.3" />
<circle cx="62.7" cy="31.0" r="0.3" />
<circle cx="63.1" cy="29.0" r="0.3" />
<circle cx="63.5" cy="21.0" r="0.3" />
<circle cx="64.0" cy="23.0" r="0.3" />
<circle cx="64.4" cy="31.0" r="0.3" />
<circle cx="64.9" cy="31.0" r="0.3" />
<circle cx="65.3" cy="27.0" r="0.3" />
<circle cx="65.8" cy="31.0" r="0.3" />
<circle cx="66.2" cy="31.0" r="0.3" />
<circle cx="66.6" cy="27.0" r="0.3" />
<circle cx="67.1" cy="31.0" r="0.3" />
<circle cx="67.5" cy="31.0" r="0.3" />
<circle cx="68.0" cy="25.0" r="0.3" />
<circle cx="68.4" cy="27.0" r="0.3" />
<circle cx="68.8" cy="27.0" r="0.3" />
<circle cx="69.3" cy="31.0" r="0.3" />
<circle cx="69.7" cy="31.0" r="0.3" />
<circle cx="70.2" cy="29.0" r="0.3" />
<circle cx="70.6" cy="19.0" r="0.3" />
<circle cx="71.0" cy="19.0" r="0.3" />
<circle cx="71.5" cy="31.0" r="0.3" />
<circle cx="71.9" cy="31.0" r="0.3" />
<circle cx="72.4" cy="27.0" r="0.3" />
<circle cx="72.8" cy="31.0" r="0.3" />
<circle cx="73.3" cy="31.0" r="0.3" />
<circle cx="73.7" cy="27.0" r="0.3" />
<circle cx="74.1" cy="27.0" r="0.3" />
<circle cx="74.6" cy="29.0" r="0.3" />
<circle cx="75.0" cy="29.0" r="0.3" />
<circle cx="75.5" cy="55.0" r="0.3" />
<circle cx="75.9" cy="47.0" r="0.3" />
<circle cx="76.3" cy="31.0" r="0.3" />
<circle cx="76.8" cy="31.0" r="0.3" />
<circle cx="77.2" cy="23.0" r="0.3" />
<circle cx="77.7" cy="23.0" r="0.3" />
<circle cx="78.1" cy="23.0" r="0.3" />
<circle cx="78.5" cy="23.0" r="0.3" />
<circle cx="79.0" cy="29.0" r="0.3" />
<circle cx="79.4" cy="29.0" r="0.3" />
<circle cx="79.9" cy="31.0" r="0.3" />
<circle cx="80.3" cy="31.0" r="0.3" />
<circle cx="80.8" cy="27.0" r="0.3" />
<circle cx="81.2" cy="31.0" r="0.3" />
<circle cx="81.6" cy="23.0" r="0.3" />
<circle cx="82.1" cy="23.0" r="0.3" />
<circle cx="82.5" cy="25.0" r="0.3" />
<circle cx="83.0" cy="25.0" r="0.3" />
<circle cx="83.4" cy="29.0" r="0.3" />
<circle cx="83.8" cy="31.0" r="0.3" />
<circle cx="84.3" cy="15.0" r="0.3" />
<circle cx="84.7" cy="15.0" r="0.3" />
<circle cx="85.2" cy="15.0" r="0.3" />
<circle cx="85.6" cy="15.0" r="0.3" />
<circle cx="86.0" cy="31.0" r="0.3" />
<circle cx="86.5" cy="29.0" r="0.3" />
<circle cx="86.9" cy="25.0" r="0.3" />
<circle cx="87.4" cy="25.0" r="0.3" />
<circle cx="87.8" cy="23.0" r="0.3" />
</g>
</svg>