<svg xmlns="http://www.w3.org/2000/svg" width="161.8" height="100.0" viewBox="-4.0 -55.0 171.8 110.0">
<g fill="none" stroke="black" stroke-width="0.5000%" transform="translate(0, 0.0000) scale(1.0000, -1.0000)">
<circle cx="1.0" cy="0.0" r="0.5" />
<circle cx="1.0" cy="42.0" r="0.5" />
<circle cx="1.9" cy="45.0" r="0.5" />
<circle cx="2.9" cy="-38.0" r="0.5" />
<circle cx="3.9" cy="-48.0" r="0.5" />
<circle cx="4.8" cy="7.0" r="0.5" />
<circle cx="5.8" cy="-14.0" r="0.5" />
<circle cx="6.8" cy="21.0" r="0.5" />
<circle cx="7.8" cy="21.0" r="0.5" />
<circle cx="8.7" cy="21.0" r="0.5" />
<circle cx="9.7" cy="49.0" r="0.5" />
<circle cx="10.7" cy="-27.0" r="0.5" />
<circle cx="11.6" cy="49.0" r="0.5" />
<circle cx="12.6" cy="-50.0" r="0.5" />
<circle cx="13.6" cy="21.0" r="0.5" />
<circle cx="14.5" cy="21.0" r="0.5" />
<circle cx="15.5" cy="49.0" r="0.5" />
<circle cx="16.5" cy="33.0" r="0.5" />
<circle cx="17.4" cy="0.0" r="0.5" />
<circle cx="18.4" cy="-27.0" r="0.5" />
<circle cx="19.4" cy="-38.0" r="0.5" />
<circle cx="20.3" cy="-48.0" r="0.5" />
<circle cx="21.3" cy="7.0" r="0.5" />
<circle cx="22.3" cy="46.0" r="0.5" />
<circle cx="23.3" cy="-42.0" r="0.5" />
<circle cx="24.2" cy="42.0" r="0.5" />
<circle cx="25.2" cy="-38.0" r="0.5" />
<circle cx="26.2" cy="-7.0" r="0.5" />
<circle cx="27.1" cy="48.0" r="0.5" />
<circle cx="28.1" cy="14.0" r="0.5" />
<circle cx="29.1" cy="48.0" r="0.5" />
<circle cx="30.0" cy="-49.0" r="0.5" />
<circle cx="31.0" cy="48.0" r="0.5" />
<circle cx="32.0" cy="46.0" r="0.5" />
<circle cx="32.9" cy="-14.0" r="0.5" />
<circle cx="33.9" cy="-49.0" r="0.5" />
<circle cx="34.9" cy="-49.0" r="0.5" />
<circle cx="35.8" cy="-14.0" r="0.5" />
<circle cx="36.8" cy="46.0" r="0.5" />
<circle cx="37.8" cy="-7.0" r="0.5" />
<circle cx="38.8" cy="46.0" r="0.5" />
<circle cx="39.7" cy="-49.0" r="0.5" />
<circle cx="40.7" cy="-38.0" r="0.5" />
<circle cx="41.7" cy="-7.0" r="0.5" />
<circle cx="42.6" cy="38.0" r="0.5" />
<circle cx="43.6" cy="7.0" r="0.5" />
<circle cx="44.6" cy="38.0" r="0.5" />
<circle cx="45.5" cy="38.0" r="0.5" />
<circle cx="46.5" cy="46.0" r="0.5" />
<circle cx="47.5" cy="45.0" r="0.5" />
<circle cx="48.4" cy="33.0" r="0.5" />
<circle cx="49.4" cy="21.0" r="0.5" />
<circle cx="50.4" cy="7.0" r="0.5" />
<circle cx="51.4" cy="-7.0" r="0.5" />
<circle cx="52.3" cy="-27.0" r="0.5" />
<circle cx="53.3" cy="-27.0" r="0.5" />
<circle cx="54.3" cy="-14.0" r="0.5" />
<circle cx="55.2" cy="-20.0" r="0.5" />
<circle cx="56.2" cy="-38.0" r="0.5" />
<circle cx="57.2" cy="-45.0" r="0.5" />
<circle cx="58.1" cy="-48.0" r="0.5" />
<circle cx="59.1" cy="50.0" r="0.5" />
<circle cx="60.1" cy="28.0" r="0.5" />
<circle cx="61.0" cy="-32.0" r="0.5" />
<circle cx="62.0" cy="-50.0" r="0.5" />
<circle cx="63.0" cy="26.0" r="0.5" />
<circle cx="63.9" cy="15.0" r="0.5" />
<circle cx="64.9" cy="-8.0" r="0.5" />
<circle cx="65.9" cy="-8.0" r="0.5" />
<circle cx="66.9" cy="43.0" r="0.5" />
<circle cx="67.8" cy="37.0" r="0.5" />
<circle cx="68.8" cy="1.0" r="0.5" />
<circle cx="69.8" cy="37.0" r="0.5" />
<circle cx="70.7" cy="-46.0" r="0.5" />
<circle cx="71.7" cy="6.0" r="0.5" />
<circle cx="72.7" cy="15.0" r="0.5" />
<circle cx="73.6" cy="43.0" r="0.5" />
<circle cx="74.6" cy="28.0" r="0.5" />
<circle cx="75.6" cy="6.0" r="0.5" />
<circle cx="76.5" cy="-8.0" r="0.5" />
<circle cx="77.5" cy="-32.0" r="0.5" />
<circle cx="78.5" cy="-48.0" r="0.5" />
<circle cx="79.4" cy="34.0" r="0.5" />
<circle cx="80.4" cy="49.0" r="0.5" />
<circle cx="81.4" cy="-50.0" r="0.5" />
<circle cx="82.4" cy="20.0" r="0.5" />
<circle cx="83.3" cy="-38.0" r="0.5" />
<circle cx="84.3" cy="22.0" r="0.5" />
<circle cx="85.3" cy="50.0" r="0.5" />
<circle cx="86.2" cy="-15.0" r="0.5" />
<circle cx="87.2" cy="50.0" r="0.5" />
<circle cx="88.2" cy="-48.0" r="0.5" />
<circle cx="89.1" cy="50.0" r="0.5" />
<circle cx="90.1" cy="49.0" r="0.5" />
<circle cx="91.1" cy="-28.0" r="0.5" />
<circle cx="92.0" cy="-48.0" r="0.5" />
<circle cx="93.0" cy="-48.0" r="0.5" />
<circle cx="94.0" cy="-28.0" r="0.5" />
<circle cx="95.0" cy="49.0" r="0.5" />
<circle cx="95.9" cy="8.0" r="0.5" />
<circle cx="96.9" cy="49.0" r="0.5" />
<circle cx="97.9" cy="50.0" r="0.5" />
<circle cx="98.8" cy="37.0" r="0.5" />
<circle cx="99.8" cy="6.0" r="0.5" />
<circle cx="100.8" cy="-32.0" r="0.5" />
<circle cx="101.7" cy="-50.0" r="0.5" />
<circle cx="102.7" cy="-37.0" r="0.5" />
<circle cx="103.7" cy="-50.0" r="0.5" />
<circle cx="104.6" cy="-50.0" r="0.5" />
<circle cx="105.6" cy="-37.0" r="0.5" />
<circle cx="106.6" cy="-13.0" r="0.5" />
<circle cx="107.5" cy="-32.0" r="0.5" />
<circle cx="108.5" cy="-13.0" r="0.5" />
<circle cx="109.5" cy="50.0" r="0.5" />
<circle cx="110.5" cy="37.0" r="0.5" />
<circle cx="111.4" cy="6.0" r="0.5" />
<circle cx="112.4" cy="6.0" r="0.5" />
<circle cx="113.4" cy="32.0" r="0.5" />
<circle cx="114.3" cy="50.0" r="0.5" />
<circle cx="115.3" cy="37.0" r="0.5" />
<circle cx="116.3" cy="50.0" r="0.5" />
<circle cx="117.2" cy="-50.0" r="0.5" />
<circle cx="118.2" cy="-46.0" r="0.5" />
<circle cx="119.2" cy="-32.0" r="0.5" />
<circle cx="120.1" cy="-15.0" r="0.5" />
<circle cx="121.1" cy="6.0" r="0.5" />
<circle cx="122.1" cy="22.0" r="0.5" />
<circle cx="123.0" cy="34.0" r="0.5" />
<circle cx="124.0" cy="48.0" r="0.5" />
<circle cx="125.0" cy="6.0" r="0.5" />
<circle cx="126.0" cy="22.0" r="0.5" />
<circle cx="126.9" cy="34.0" r="0.5" />
<circle cx="127.9" cy="48.0" r="0.5" />
<circle cx="128.9" cy="34.0" r="0.5" />
<circle cx="129.8" cy="48.0" r="0.5" />
<circle cx="130.8" cy="48.0" r="0.5" />
<circle cx="131.8" cy="50.0" r="0.5" />
<circle cx="132.7" cy="48.0" r="0.5" />
<circle cx="133.7" cy="45.0" r="0.5" />
<circle cx="134.7" cy="43.0" r="0.5" />
<circle cx="135.6" cy="42.0" r="0.5" />
<circle cx="136.6" cy="33.0" r="0.5" />
<circle cx="137.6" cy="14.0" r="0.5" />
<circle cx="138.6" cy="22.0" r="0.5" />
<circle cx="139.5" cy="28.0" r="0.5" />
<circle cx="140.5" cy="21.0" r="0.5" />
<circle cx="141.5" cy="14.0" r="0.5" />
<circle cx="142.4" cy="15.0" r="0.5" />
<circle cx="143.4" cy="7.0" r="0.5" />
<circle cx="144.4" cy="0.0" r="0.5" />
<circle cx="145.3" cy="-20.0" r="0.5" />
<circle cx="146.3" cy="-38.0" r="0.5" />
<circle cx="147.3" cy="-48.0" r="0.5" />
<circle cx="148.2" cy="-32.0" r="0.5" />
<circle cx="149.2" cy="-15.0" r="0.5" />
<circle cx="150.2" cy="-15.0" r="0.5" />
<circle cx="151.1" cy="-8.0" r="0.5" />
<circle cx="152.1" cy="-14.0" r="0.5" />
<circle cx="153.1" cy="-20.0" r="0.5" />
<circle cx="154.1" cy="-26.0" r="0.5" />
<circle cx="155.0" cy="-27.0" r="0.5" />
<circle cx="156.0" cy="-38.0" r="0.5" />
<circle cx="157.0" cy="-48.0" r="0.5" />
<circle cx="157.9" cy="-46.0" r="0.5" />
<circle cx="158.9" cy="-38.0" r="0.5" />
<circle cx="159.9" cy="-42.0" r="0.5" />
<circle cx="160.8" cy="-48.0" r="0.5" />
<circle cx="161.8" cy="-48.0" r="0.5" />
<circle cx="162.8" cy="-49.0" r="0.5" />
</g>
</svg>