<svg xmlns="http://www.w3.org/2000/svg" width="161.8" height="100.0" viewBox="-2.4 -3.8 171.8 110.0">
<g fill="none" stroke="black" stroke-width="1.2600%" transform="translate(0, 102.3810) scale(0.3968, -0.3968)">
<polyline points="6.5,3.0 12.9,6.0 19.4,15.0 25.9,12.0 32.4,15.0 38.8,30.0 45.3,31.0 51.8,24.0 58.2,27.0 64.7,30.0 71.2,63.0 77.7,60.0 84.1,63.0 90.6,62.0 97.1,63.0 103.6,48.0 110.0,51.0 116.5,54.0 123.0,63.0 129.4,60.0 135.9,63.0 142.4,126.0 148.9,127.0 155.3,120.0 161.8,123.0 168.3,126.0 174.7,127.0 181.2,124.0 187.7,127.0 194.2,126.0 200.6,127.0 207.1,96.0 213.6,99.0 220.1,102.0 226.5,111.0 233.0,108.0 239.5,111.0 245.9,126.0 252.4,127.0 258.9,120.0 265.4,123.0 271.8,126.0 278.3,255.0 284.8,252.0 291.2,255.0 297.7,254.0 304.2,255.0 310.7,240.0 317.1,243.0 323.6,246.0 330.1,255.0 336.6,252.0 343.0,255.0 349.5,254.0 356.0,255.0 362.4,248.0 368.9,251.0 375.4,254.0 381.9,255.0 388.3,252.0 394.8,255.0 401.3,254.0 407.7,255.0 414.2,192.0" />
</g>
</svg>