<svg xmlns="http://www.w3.org/2000/svg" width="161.8" height="100.0" viewBox="-2.472 -5.000 171.803 110.000">
<g fill="none" stroke="black" stroke-width="0.0049%" transform="translate(0, 100.0000) scale(101.5873, -101.5873)">
<polyline points="0.025,0.000 0.050,0.000 0.050,0.500 0.075,0.500 0.075,0.750 0.100,0.750 0.100,0.250 0.124,0.250 0.124,0.375 0.149,0.375 0.149,0.875 0.174,0.875 0.174,0.625 0.199,0.625 0.199,0.125 0.224,0.125 0.224,0.188 0.249,0.188 0.249,0.688 0.274,0.688 0.274,0.938 0.299,0.938 0.299,0.438 0.324,0.438 0.324,0.313 0.348,0.313 0.348,0.813 0.373,0.813 0.373,0.563 0.398,0.563 0.398,0.063 0.423,0.063 0.423,0.094 0.448,0.094 0.448,0.594 0.473,0.594 0.473,0.844 0.498,0.844 0.498,0.344 0.523,0.344 0.523,0.469 0.548,0.469 0.548,0.969 0.572,0.969 0.572,0.719 0.597,0.719 0.597,0.219 0.622,0.219 0.622,0.156 0.647,0.156 0.647,0.656 0.672,0.656 0.672,0.906 0.697,0.906 0.697,0.406 0.722,0.406 0.722,0.281 0.747,0.281 0.747,0.781 0.771,0.781 0.771,0.531 0.796,0.531 0.796,0.031 0.821,0.031 0.821,0.047 0.846,0.047 0.846,0.547 0.871,0.547 0.871,0.797 0.896,0.797 0.896,0.297 0.921,0.297 0.921,0.422 0.946,0.422 0.946,0.922 0.971,0.922 0.971,0.672 0.995,0.672 0.995,0.172 1.020,0.172 1.020,0.234 1.045,0.234 1.045,0.734 1.070,0.734 1.070,0.984 1.095,0.984 1.095,0.484 1.120,0.484 1.120,0.359 1.145,0.359 1.145,0.859 1.170,0.859 1.170,0.609 1.195,0.609 1.195,0.109 1.219,0.109 1.219,0.078 1.244,0.078 1.244,0.578 1.269,0.578 1.269,0.828 1.294,0.828 1.294,0.328 1.319,0.328 1.319,0.453 1.344,0.453 1.344,0.953 1.369,0.953 1.369,0.703 1.394,0.703 1.394,0.203 1.419,0.203 1.419,0.141 1.443,0.141 1.443,0.641 1.468,0.641 1.468,0.891 1.493,0.891 1.493,0.391 1.518,0.391 1.518,0.266 1.543,0.266 1.543,0.766 1.568,0.766 1.568,0.516 1.593,0.516 1.593,0.016 1.618,0.016" />
</g>
</svg>