<svg xmlns="http://www.w3.org/2000/svg" width="161.8" height="100.0" viewBox="-4.30 -5.00 171.80 110.00">
<g fill="none" stroke="black" stroke-width="0.1000%" transform="translate(0, 100.0000) scale(5.0000, -5.0000)">
<circle cx="0.14" cy="0.00" r="0.10" />
<circle cx="0.14" cy="0.00" r="0.10" />
<circle cx="0.28" cy="1.00" r="0.10" />
<circle cx="0.42" cy="1.00" r="0.10" />
<circle cx="0.56" cy="2.00" r="0.10" />
<circle cx="0.70" cy="0.00" r="0.10" />
<circle cx="0.84" cy="2.00" r="0.10" />
<circle cx="0.98" cy="3.00" r="0.10" />
<circle cx="1.13" cy="3.00" r="0.10" />
<circle cx="1.27" cy="3.00" r="0.10" />
<circle cx="1.41" cy="3.00" r="0.10" />
<circle cx="1.55" cy="4.00" r="0.10" />
<circle cx="1.69" cy="2.00" r="0.10" />
<circle cx="1.83" cy="0.00" r="0.10" />
<circle cx="1.97" cy="2.00" r="0.10" />
<circle cx="2.11" cy="4.00" r="0.10" />
<circle cx="2.25" cy="5.00" r="0.10" />
<circle cx="2.39" cy="5.00" r="0.10" />
<circle cx="2.53" cy="1.00" r="0.10" />
<circle cx="2.67" cy="1.00" r="0.10" />
<circle cx="2.81" cy="5.00" r="0.10" />
<circle cx="2.95" cy="5.00" r="0.10" />
<circle cx="3.10" cy="6.00" r="0.10" />
<circle cx="3.24" cy="4.00" r="0.10" />
<circle cx="3.38" cy="6.00" r="0.10" />
<circle cx="3.52" cy="0.00" r="0.10" />
<circle cx="3.66" cy="6.00" r="0.10" />
<circle cx="3.80" cy="4.00" r="0.10" />
<circle cx="3.94" cy="6.00" r="0.10" />
<circle cx="4.08" cy="7.00" r="0.10" />
<circle cx="4.22" cy="7.00" r="0.10" />
<circle cx="4.36" cy="7.00" r="0.10" />
<circle cx="4.50" cy="7.00" r="0.10" />
<circle cx="4.64" cy="7.00" r="0.10" />
<circle cx="4.78" cy="7.00" r="0.10" />
<circle cx="4.92" cy="7.00" r="0.10" />
<circle cx="5.07" cy="7.00" r="0.10" />
<circle cx="5.21" cy="8.00" r="0.10" />
<circle cx="5.35" cy="6.00" r="0.10" />
<circle cx="5.49" cy="4.00" r="0.10" />
<circle cx="5.63" cy="6.00" r="0.10" />
<circle cx="5.77" cy="0.00" r="0.10" />
<circle cx="5.91" cy="6.00" r="0.10" />
<circle cx="6.05" cy="4.00" r="0.10" />
<circle cx="6.19" cy="6.00" r="0.10" />
<circle cx="6.33" cy="8.00" r="0.10" />
<circle cx="6.47" cy="9.00" r="0.10" />
<circle cx="6.61" cy="9.00" r="0.10" />
<circle cx="6.75" cy="5.00" r="0.10" />
<circle cx="6.89" cy="5.00" r="0.10" />
<circle cx="7.03" cy="1.00" r="0.10" />
<circle cx="7.18" cy="1.00" r="0.10" />
<circle cx="7.32" cy="5.00" r="0.10" />
<circle cx="7.46" cy="5.00" r="0.10" />
<circle cx="7.60" cy="9.00" r="0.10" />
<circle cx="7.74" cy="9.00" r="0.10" />
<circle cx="7.88" cy="10.00" r="0.10" />
<circle cx="8.02" cy="8.00" r="0.10" />
<circle cx="8.16" cy="10.00" r="0.10" />
<circle cx="8.30" cy="4.00" r="0.10" />
<circle cx="8.44" cy="2.00" r="0.10" />
<circle cx="8.58" cy="0.00" r="0.10" />
<circle cx="8.72" cy="2.00" r="0.10" />
<circle cx="8.86" cy="4.00" r="0.10" />
<circle cx="9.00" cy="10.00" r="0.10" />
<circle cx="9.15" cy="8.00" r="0.10" />
<circle cx="9.29" cy="10.00" r="0.10" />
<circle cx="9.43" cy="11.00" r="0.10" />
<circle cx="9.57" cy="11.00" r="0.10" />
<circle cx="9.71" cy="11.00" r="0.10" />
<circle cx="9.85" cy="11.00" r="0.10" />
<circle cx="9.99" cy="3.00" r="0.10" />
<circle cx="10.13" cy="3.00" r="0.10" />
<circle cx="10.27" cy="3.00" r="0.10" />
<circle cx="10.41" cy="3.00" r="0.10" />
<circle cx="10.55" cy="11.00" r="0.10" />
<circle cx="10.69" cy="11.00" r="0.10" />
<circle cx="10.83" cy="11.00" r="0.10" />
<circle cx="10.97" cy="11.00" r="0.10" />
<circle cx="11.12" cy="12.00" r="0.10" />
<circle cx="11.26" cy="10.00" r="0.10" />
<circle cx="11.40" cy="8.00" r="0.10" />
<circle cx="11.54" cy="10.00" r="0.10" />
<circle cx="11.68" cy="12.00" r="0.10" />
<circle cx="11.82" cy="2.00" r="0.10" />
<circle cx="11.96" cy="0.00" r="0.10" />
<circle cx="12.10" cy="2.00" r="0.10" />
<circle cx="12.24" cy="12.00" r="0.10" />
<circle cx="12.38" cy="10.00" r="0.10" />
<circle cx="12.52" cy="8.00" r="0.10" />
<circle cx="12.66" cy="10.00" r="0.10" />
<circle cx="12.80" cy="12.00" r="0.10" />
<circle cx="12.94" cy="13.00" r="0.10" />
<circle cx="13.08" cy="13.00" r="0.10" />
<circle cx="13.23" cy="9.00" r="0.10" />
<circle cx="13.37" cy="9.00" r="0.10" />
<circle cx="13.51" cy="13.00" r="0.10" />
<circle cx="13.65" cy="13.00" r="0.10" />
<circle cx="13.79" cy="1.00" r="0.10" />
<circle cx="13.93" cy="1.00" r="0.10" />
<circle cx="14.07" cy="13.00" r="0.10" />
<circle cx="14.21" cy="13.00" r="0.10" />
<circle cx="14.35" cy="9.00" r="0.10" />
<circle cx="14.49" cy="9.00" r="0.10" />
<circle cx="14.63" cy="13.00" r="0.10" />
<circle cx="14.77" cy="13.00" r="0.10" />
<circle cx="14.91" cy="14.00" r="0.10" />
<circle cx="15.05" cy="12.00" r="0.10" />
<circle cx="15.20" cy="14.00" r="0.10" />
<circle cx="15.34" cy="8.00" r="0.10" />
<circle cx="15.48" cy="14.00" r="0.10" />
<circle cx="15.62" cy="12.00" r="0.10" />
<circle cx="15.76" cy="14.00" r="0.10" />
<circle cx="15.90" cy="0.00" r="0.10" />
<circle cx="16.04" cy="14.00" r="0.10" />
<circle cx="16.18" cy="12.00" r="0.10" />
<circle cx="16.32" cy="14.00" r="0.10" />
<circle cx="16.46" cy="8.00" r="0.10" />
<circle cx="16.60" cy="14.00" r="0.10" />
<circle cx="16.74" cy="12.00" r="0.10" />
<circle cx="16.88" cy="14.00" r="0.10" />
<circle cx="17.02" cy="15.00" r="0.10" />
<circle cx="17.17" cy="15.00" r="0.10" />
<circle cx="17.31" cy="15.00" r="0.10" />
<circle cx="17.45" cy="15.00" r="0.10" />
<circle cx="17.59" cy="15.00" r="0.10" />
<circle cx="17.73" cy="15.00" r="0.10" />
<circle cx="17.87" cy="15.00" r="0.10" />
<circle cx="18.01" cy="15.00" r="0.10" />
<circle cx="18.15" cy="15.00" r="0.10" />
<circle cx="18.29" cy="15.00" r="0.10" />
<circle cx="18.43" cy="15.00" r="0.10" />
<circle cx="18.57" cy="15.00" r="0.10" />
<circle cx="18.71" cy="15.00" r="0.10" />
<circle cx="18.85" cy="15.00" r="0.10" />
<circle cx="18.99" cy="15.00" r="0.10" />
<circle cx="19.14" cy="15.00" r="0.10" />
<circle cx="19.28" cy="16.00" r="0.10" />
<circle cx="19.42" cy="14.00" r="0.10" />
<circle cx="19.56" cy="12.00" r="0.10" />
<circle cx="19.70" cy="14.00" r="0.10" />
<circle cx="19.84" cy="8.00" r="0.10" />
<circle cx="19.98" cy="14.00" r="0.10" />
<circle cx="20.12" cy="12.00" r="0.10" />
<circle cx="20.26" cy="14.00" r="0.10" />
<circle cx="20.40" cy="0.00" r="0.10" />
<circle cx="20.54" cy="14.00" r="0.10" />
<circle cx="20.68" cy="12.00" r="0.10" />
<circle cx="20.82" cy="14.00" r="0.10" />
<circle cx="20.96" cy="8.00" r="0.10" />
<circle cx="21.10" cy="14.00" r="0.10" />
<circle cx="21.25" cy="12.00" r="0.10" />
<circle cx="21.39" cy="14.00" r="0.10" />
<circle cx="21.53" cy="16.00" r="0.10" />
<circle cx="21.67" cy="17.00" r="0.10" />
<circle cx="21.81" cy="17.00" r="0.10" />
<circle cx="21.95" cy="13.00" r="0.10" />
<circle cx="22.09" cy="13.00" r="0.10" />
<circle cx="22.23" cy="9.00" r="0.10" />
<circle cx="22.37" cy="9.00" r="0.10" />
<circle cx="22.51" cy="13.00" r="0.10" />
<circle cx="22.65" cy="13.00" r="0.10" />
<circle cx="22.79" cy="1.00" r="0.10" />
<circle cx="22.93" cy="1.00" r="0.10" />
<circle cx="23.07" cy="13.00" r="0.10" />
<circle cx="23.22" cy="13.00" r="0.10" />
<circle cx="23.36" cy="9.00" r="0.10" />
<circle cx="23.50" cy="9.00" r="0.10" />
<circle cx="23.64" cy="13.00" r="0.10" />
<circle cx="23.78" cy="13.00" r="0.10" />
<circle cx="23.92" cy="17.00" r="0.10" />
<circle cx="24.06" cy="17.00" r="0.10" />
<circle cx="24.20" cy="18.00" r="0.10" />
<circle cx="24.34" cy="16.00" r="0.10" />
<circle cx="24.48" cy="18.00" r="0.10" />
<circle cx="24.62" cy="12.00" r="0.10" />
<circle cx="24.76" cy="10.00" r="0.10" />
<circle cx="24.90" cy="8.00" r="0.10" />
<circle cx="25.04" cy="10.00" r="0.10" />
<circle cx="25.19" cy="12.00" r="0.10" />
<circle cx="25.33" cy="2.00" r="0.10" />
<circle cx="25.47" cy="0.00" r="0.10" />
<circle cx="25.61" cy="2.00" r="0.10" />
<circle cx="25.75" cy="12.00" r="0.10" />
<circle cx="25.89" cy="10.00" r="0.10" />
<circle cx="26.03" cy="8.00" r="0.10" />
<circle cx="26.17" cy="10.00" r="0.10" />
<circle cx="26.31" cy="12.00" r="0.10" />
<circle cx="26.45" cy="18.00" r="0.10" />
<circle cx="26.59" cy="16.00" r="0.10" />
<circle cx="26.73" cy="18.00" r="0.10" />
<circle cx="26.87" cy="19.00" r="0.10" />
<circle cx="27.01" cy="19.00" r="0.10" />
<circle cx="27.15" cy="19.00" r="0.10" />
<circle cx="27.30" cy="19.00" r="0.10" />
<circle cx="27.44" cy="11.00" r="0.10" />
<circle cx="27.58" cy="11.00" r="0.10" />
<circle cx="27.72" cy="11.00" r="0.10" />
<circle cx="27.86" cy="11.00" r="0.10" />
<circle cx="28.00" cy="3.00" r="0.10" />
<circle cx="28.14" cy="3.00" r="0.10" />
<circle cx="28.28" cy="3.00" r="0.10" />
<circle cx="28.42" cy="3.00" r="0.10" />
<circle cx="28.56" cy="11.00" r="0.10" />
<circle cx="28.70" cy="11.00" r="0.10" />
<circle cx="28.84" cy="11.00" r="0.10" />
<circle cx="28.98" cy="11.00" r="0.10" />
<circle cx="29.12" cy="19.00" r="0.10" />
<circle cx="29.27" cy="19.00" r="0.10" />
<circle cx="29.41" cy="19.00" r="0.10" />
<circle cx="29.55" cy="19.00" r="0.10" />
<circle cx="29.69" cy="20.00" r="0.10" />
<circle cx="29.83" cy="18.00" r="0.10" />
<circle cx="29.97" cy="16.00" r="0.10" />
<circle cx="30.11" cy="18.00" r="0.10" />
<circle cx="30.25" cy="20.00" r="0.10" />
<circle cx="30.39" cy="10.00" r="0.10" />
<circle cx="30.53" cy="8.00" r="0.10" />
<circle cx="30.67" cy="10.00" r="0.10" />
<circle cx="30.81" cy="4.00" r="0.10" />
<circle cx="30.95" cy="2.00" r="0.10" />
<circle cx="31.09" cy="0.00" r="0.10" />
<circle cx="31.24" cy="2.00" r="0.10" />
<circle cx="31.38" cy="4.00" r="0.10" />
<circle cx="31.52" cy="10.00" r="0.10" />
<circle cx="31.66" cy="8.00" r="0.10" />
<circle cx="31.80" cy="10.00" r="0.10" />
<circle cx="31.94" cy="20.00" r="0.10" />
<circle cx="32.08" cy="18.00" r="0.10" />
<circle cx="32.22" cy="16.00" r="0.10" />
<circle cx="32.36" cy="18.00" r="0.10" />
<circle cx="32.50" cy="20.00" r="0.10" />
</g>
</svg>