<svg xmlns="http://www.w3.org/2000/svg" width="161.8" height="100.0" viewBox="-4 -5 172 110">
<g fill="none" stroke="black" stroke-width="163.8300%" transform="translate(0, 100.0061) scale(0.0031, -0.0031)">
<circle cx="417" cy="32767" r="164" />
<circle cx="835" cy="16383" r="164" />
<circle cx="1252" cy="8191" r="164" />
<circle cx="1670" cy="4095" r="164" />
<circle cx="2087" cy="2047" r="164" />
<circle cx="2505" cy="1023" r="164" />
<circle cx="2922" cy="511" r="164" />
<circle cx="3340" cy="255" r="164" />
<circle cx="3757" cy="127" r="164" />
<circle cx="4175" cy="63" r="164" />
<circle cx="4592" cy="31" r="164" />
<circle cx="5009" cy="15" r="164" />
<circle cx="5427" cy="7" r="164" />
<circle cx="5844" cy="3" r="164" />
<circle cx="6262" cy="1" r="164" />
<circle cx="6679" cy="16384" r="164" />
<circle cx="7097" cy="8192" r="164" />
<circle cx="7514" cy="4096" r="164" />
<circle cx="7932" cy="2048" r="164" />
<circle cx="8349" cy="1024" r="164" />
<circle cx="8767" cy="512" r="164" />
<circle cx="9184" cy="256" r="164" />
<circle cx="9601" cy="128" r="164" />
<circle cx="10019" cy="64" r="164" />
<circle cx="10436" cy="32" r="164" />
<circle cx="10854" cy="16" r="164" />
<circle cx="11271" cy="8" r="164" />
<circle cx="11689" cy="4" r="164" />
<circle cx="12106" cy="2" r="164" />
<circle cx="12524" cy="16385" r="164" />
<circle cx="12941" cy="24576" r="164" />
<circle cx="13358" cy="12288" r="164" />
<circle cx="13776" cy="6144" r="164" />
<circle cx="14193" cy="3072" r="164" />
<circle cx="14611" cy="1536" r="164" />
<circle cx="15028" cy="768" r="164" />
<circle cx="15446" cy="384" r="164" />
<circle cx="15863" cy="192" r="164" />
<circle cx="16281" cy="96" r="164" />
<circle cx="16698" cy="48" r="164" />
<circle cx="17116" cy="24" r="164" />
<circle cx="17533" cy="12" r="164" />
<circle cx="17950" cy="6" r="164" />
<circle cx="18368" cy="16387" r="164" />
<circle cx="18785" cy="8193" r="164" />
<circle cx="19203" cy="20480" r="164" />
<circle cx="19620" cy="10240" r="164" />
<circle cx="20038" cy="5120" r="164" />
<circle cx="20455" cy="2560" r="164" />
<circle cx="20873" cy="1280" r="164" />
<circle cx="21290" cy="640" r="164" />
<circle cx="21708" cy="320" r="164" />
<circle cx="22125" cy="160" r="164" />
<circle cx="22542" cy="80" r="164" />
<circle cx="22960" cy="40" r="164" />
<circle cx="23377" cy="20" r="164" />
<circle cx="23795" cy="10" r="164" />
<circle cx="24212" cy="16389" r="164" />
<circle cx="24630" cy="24578" r="164" />
<circle cx="25047" cy="28673" r="164" />
<circle cx="25465" cy="30720" r="164" />
<circle cx="25882" cy="15360" r="164" />
<circle cx="26300" cy="7680" r="164" />
<circle cx="26717" cy="3840" r="164" />
<circle cx="27134" cy="1920" r="164" />
<circle cx="27552" cy="960" r="164" />
<circle cx="27969" cy="480" r="164" />
<circle cx="28387" cy="240" r="164" />
<circle cx="28804" cy="120" r="164" />
<circle cx="29222" cy="60" r="164" />
<circle cx="29639" cy="30" r="164" />
<circle cx="30057" cy="16399" r="164" />
<circle cx="30474" cy="8199" r="164" />
<circle cx="30892" cy="4099" r="164" />
<circle cx="31309" cy="2049" r="164" />
<circle cx="31726" cy="17408" r="164" />
<circle cx="32144" cy="8704" r="164" />
<circle cx="32561" cy="4352" r="164" />
<circle cx="32979" cy="2176" r="164" />
<circle cx="33396" cy="1088" r="164" />
<circle cx="33814" cy="544" r="164" />
<circle cx="34231" cy="272" r="164" />
<circle cx="34649" cy="136" r="164" />
<circle cx="35066" cy="68" r="164" />
<circle cx="35483" cy="34" r="164" />
<circle cx="35901" cy="16401" r="164" />
<circle cx="36318" cy="24584" r="164" />
<circle cx="36736" cy="12292" r="164" />
<circle cx="37153" cy="6146" r="164" />
<circle cx="37571" cy="19457" r="164" />
<circle cx="37988" cy="26112" r="164" />
<circle cx="38406" cy="13056" r="164" />
<circle cx="38823" cy="6528" r="164" />
<circle cx="39241" cy="3264" r="164" />
<circle cx="39658" cy="1632" r="164" />
<circle cx="40075" cy="816" r="164" />
<circle cx="40493" cy="408" r="164" />
<circle cx="40910" cy="204" r="164" />
<circle cx="41328" cy="102" r="164" />
<circle cx="41745" cy="16435" r="164" />
<circle cx="42163" cy="8217" r="164" />
<circle cx="42580" cy="20492" r="164" />
<circle cx="42998" cy="10246" r="164" />
<circle cx="43415" cy="21507" r="164" />
<circle cx="43833" cy="10753" r="164" />
<circle cx="44250" cy="21760" r="164" />
<circle cx="44667" cy="10880" r="164" />
<circle cx="45085" cy="5440" r="164" />
<circle cx="45502" cy="2720" r="164" />
<circle cx="45920" cy="1360" r="164" />
<circle cx="46337" cy="680" r="164" />
<circle cx="46755" cy="340" r="164" />
<circle cx="47172" cy="170" r="164" />
<circle cx="47590" cy="16469" r="164" />
<circle cx="48007" cy="24618" r="164" />
<circle cx="48425" cy="28693" r="164" />
<circle cx="48842" cy="30730" r="164" />
<circle cx="49259" cy="31749" r="164" />
<circle cx="49677" cy="32258" r="164" />
<circle cx="50094" cy="32513" r="164" />
<circle cx="50512" cy="32640" r="164" />
<circle cx="50929" cy="16320" r="164" />
<circle cx="51347" cy="8160" r="164" />
<circle cx="51764" cy="4080" r="164" />
<circle cx="52182" cy="2040" r="164" />
<circle cx="52599" cy="1020" r="164" />
<circle cx="53017" cy="510" r="164" />
<circle cx="53434" cy="16639" r="164" />
</g>
</svg>