<svg xmlns="http://www.w3.org/2000/svg" width="161.8" height="100.0" viewBox="-4 -5 172 110">
<g fill="none" stroke="black" stroke-width="3.8200%" transform="translate(0, 100.2618) scale(0.1309, -0.1309)">
<polyline points="10,1 20,1 20,4 30,4 30,5 40,5 40,12 49,12 49,13 59,13 59,16 69,16 69,17 79,17 79,32 89,32 89,33 99,33 99,36 109,36 109,37 119,37 119,44 129,44 129,45 138,45 138,48 148,48 148,49 158,49 158,80 168,80 168,81 178,81 178,84 188,84 188,85 198,85 198,92 208,92 208,93 218,93 218,96 227,96 227,97 237,97 237,112 247,112 247,113 257,113 257,116 267,116 267,117 277,117 277,124 287,124 287,125 297,125 297,128 307,128 307,129 316,129 316,192 326,192 326,193 336,193 336,196 346,196 346,197 356,197 356,204 366,204 366,205 376,205 376,208 386,208 386,209 396,209 396,224 405,224 405,225 415,225 415,228 425,228 425,229 435,229 435,236 445,236 445,237 455,237 455,240 465,240 465,241 475,241 475,272 485,272 485,273 494,273 494,276 504,276 504,277 514,277 514,284 524,284 524,285 534,285 534,288 544,288 544,289 554,289 554,304 564,304 564,305 574,305 574,308 583,308 583,309 593,309 593,316 603,316 603,317 613,317 613,320 623,320 623,321 633,321 633,448 643,448 643,449 653,449 653,452 663,452 663,453 672,453 672,460 682,460 682,461 692,461 692,464 702,464 702,465 712,465 712,480 722,480 722,481 732,481 732,484 742,484 742,485 752,485 752,492 761,492 761,493 771,493 771,496 781,496 781,497 791,497 791,528 801,528 801,529 811,529 811,532 821,532 821,533 831,533 831,540 841,540 841,541 850,541 850,544 860,544 860,545 870,545 870,560 880,560 880,561 890,561 890,564 900,564 900,565 910,565 910,572 920,572 920,573 930,573 930,576 939,576 939,577 949,577 949,640 959,640 959,641 969,641 969,644 979,644 979,645 989,645 989,652 999,652 999,653 1009,653 1009,656 1019,656 1019,657 1029,657 1029,672 1038,672 1038,673 1048,673 1048,676 1058,676 1058,677 1068,677 1068,684 1078,684 1078,685 1088,685 1088,688 1098,688 1098,689 1108,689 1108,720 1118,720 1118,721 1127,721 1127,724 1137,724 1137,725 1147,725 1147,732 1157,732 1157,733 1167,733 1167,736 1177,736 1177,737 1187,737 1187,752 1197,752 1197,753 1207,753 1207,756 1216,756 1216,757 1226,757 1226,764 1236,764 1236,765 1246,765" />
</g>
</svg>