<svg xmlns="http://www.w3.org/2000/svg" width="161.8" height="100.0" viewBox="-3.7 -5.0 171.8 110.0">
<g fill="none" stroke="black" stroke-width="1.2600%" transform="translate(0, 100.0000) scale(0.3968, -0.3968)">
<circle cx="3.2" cy="0.0" r="1.3" />
<circle cx="6.4" cy="0.0" r="1.3" />
<circle cx="9.6" cy="0.0" r="1.3" />
<circle cx="12.8" cy="4.0" r="1.3" />
<circle cx="16.1" cy="0.0" r="1.3" />
<circle cx="19.3" cy="0.0" r="1.3" />
<circle cx="22.5" cy="8.0" r="1.3" />
<circle cx="25.7" cy="12.0" r="1.3" />
<circle cx="28.9" cy="0.0" r="1.3" />
<circle cx="32.1" cy="0.0" r="1.3" />
<circle cx="35.3" cy="0.0" r="1.3" />
<circle cx="38.5" cy="4.0" r="1.3" />
<circle cx="41.7" cy="16.0" r="1.3" />
<circle cx="44.9" cy="16.0" r="1.3" />
<circle cx="48.2" cy="24.0" r="1.3" />
<circle cx="51.4" cy="28.0" r="1.3" />
<circle cx="54.6" cy="0.0" r="1.3" />
<circle cx="57.8" cy="0.0" r="1.3" />
<circle cx="61.0" cy="0.0" r="1.3" />
<circle cx="64.2" cy="4.0" r="1.3" />
<circle cx="67.4" cy="0.0" r="1.3" />
<circle cx="70.6" cy="0.0" r="1.3" />
<circle cx="73.8" cy="8.0" r="1.3" />
<circle cx="77.1" cy="12.0" r="1.3" />
<circle cx="80.3" cy="32.0" r="1.3" />
<circle cx="83.5" cy="32.0" r="1.3" />
<circle cx="86.7" cy="32.0" r="1.3" />
<circle cx="89.9" cy="36.0" r="1.3" />
<circle cx="93.1" cy="48.0" r="1.3" />
<circle cx="96.3" cy="48.0" r="1.3" />
<circle cx="99.5" cy="56.0" r="1.3" />
<circle cx="102.7" cy="60.0" r="1.3" />
<circle cx="105.9" cy="0.0" r="1.3" />
<circle cx="109.2" cy="0.0" r="1.3" />
<circle cx="112.4" cy="0.0" r="1.3" />
<circle cx="115.6" cy="4.0" r="1.3" />
<circle cx="118.8" cy="0.0" r="1.3" />
<circle cx="122.0" cy="0.0" r="1.3" />
<circle cx="125.2" cy="8.0" r="1.3" />
<circle cx="128.4" cy="12.0" r="1.3" />
<circle cx="131.6" cy="0.0" r="1.3" />
<circle cx="134.8" cy="0.0" r="1.3" />
<circle cx="138.1" cy="0.0" r="1.3" />
<circle cx="141.3" cy="4.0" r="1.3" />
<circle cx="144.5" cy="16.0" r="1.3" />
<circle cx="147.7" cy="16.0" r="1.3" />
<circle cx="150.9" cy="24.0" r="1.3" />
<circle cx="154.1" cy="28.0" r="1.3" />
<circle cx="157.3" cy="64.0" r="1.3" />
<circle cx="160.5" cy="64.0" r="1.3" />
<circle cx="163.7" cy="64.0" r="1.3" />
<circle cx="167.0" cy="68.0" r="1.3" />
<circle cx="170.2" cy="64.0" r="1.3" />
<circle cx="173.4" cy="64.0" r="1.3" />
<circle cx="176.6" cy="72.0" r="1.3" />
<circle cx="179.8" cy="76.0" r="1.3" />
<circle cx="183.0" cy="96.0" r="1.3" />
<circle cx="186.2" cy="96.0" r="1.3" />
<circle cx="189.4" cy="96.0" r="1.3" />
<circle cx="192.6" cy="100.0" r="1.3" />
<circle cx="195.8" cy="112.0" r="1.3" />
<circle cx="199.1" cy="112.0" r="1.3" />
<circle cx="202.3" cy="120.0" r="1.3" />
<circle cx="205.5" cy="124.0" r="1.3" />
<circle cx="208.7" cy="0.0" r="1.3" />
<circle cx="211.9" cy="0.0" r="1.3" />
<circle cx="215.1" cy="0.0" r="1.3" />
<circle cx="218.3" cy="4.0" r="1.3" />
<circle cx="221.5" cy="0.0" r="1.3" />
<circle cx="224.7" cy="0.0" r="1.3" />
<circle cx="228.0" cy="8.0" r="1.3" />
<circle cx="231.2" cy="12.0" r="1.3" />
<circle cx="234.4" cy="0.0" r="1.3" />
<circle cx="237.6" cy="0.0" r="1.3" />
<circle cx="240.8" cy="0.0" r="1.3" />
<circle cx="244.0" cy="4.0" r="1.3" />
<circle cx="247.2" cy="16.0" r="1.3" />
<circle cx="250.4" cy="16.0" r="1.3" />
<circle cx="253.6" cy="24.0" r="1.3" />
<circle cx="256.8" cy="28.0" r="1.3" />
<circle cx="260.1" cy="0.0" r="1.3" />
<circle cx="263.3" cy="0.0" r="1.3" />
<circle cx="266.5" cy="0.0" r="1.3" />
<circle cx="269.7" cy="4.0" r="1.3" />
<circle cx="272.9" cy="0.0" r="1.3" />
<circle cx="276.1" cy="0.0" r="1.3" />
<circle cx="279.3" cy="8.0" r="1.3" />
<circle cx="282.5" cy="12.0" r="1.3" />
<circle cx="285.7" cy="32.0" r="1.3" />
<circle cx="289.0" cy="32.0" r="1.3" />
<circle cx="292.2" cy="32.0" r="1.3" />
<circle cx="295.4" cy="36.0" r="1.3" />
<circle cx="298.6" cy="48.0" r="1.3" />
<circle cx="301.8" cy="48.0" r="1.3" />
<circle cx="305.0" cy="56.0" r="1.3" />
<circle cx="308.2" cy="60.0" r="1.3" />
<circle cx="311.4" cy="128.0" r="1.3" />
<circle cx="314.6" cy="128.0" r="1.3" />
<circle cx="317.8" cy="128.0" r="1.3" />
<circle cx="321.1" cy="132.0" r="1.3" />
<circle cx="324.3" cy="128.0" r="1.3" />
<circle cx="327.5" cy="128.0" r="1.3" />
<circle cx="330.7" cy="136.0" r="1.3" />
<circle cx="333.9" cy="140.0" r="1.3" />
<circle cx="337.1" cy="128.0" r="1.3" />
<circle cx="340.3" cy="128.0" r="1.3" />
<circle cx="343.5" cy="128.0" r="1.3" />
<circle cx="346.7" cy="132.0" r="1.3" />
<circle cx="350.0" cy="144.0" r="1.3" />
<circle cx="353.2" cy="144.0" r="1.3" />
<circle cx="356.4" cy="152.0" r="1.3" />
<circle cx="359.6" cy="156.0" r="1.3" />
<circle cx="362.8" cy="192.0" r="1.3" />
<circle cx="366.0" cy="192.0" r="1.3" />
<circle cx="369.2" cy="192.0" r="1.3" />
<circle cx="372.4" cy="196.0" r="1.3" />
<circle cx="375.6" cy="192.0" r="1.3" />
<circle cx="378.8" cy="192.0" r="1.3" />
<circle cx="382.1" cy="200.0" r="1.3" />
<circle cx="385.3" cy="204.0" r="1.3" />
<circle cx="388.5" cy="224.0" r="1.3" />
<circle cx="391.7" cy="224.0" r="1.3" />
<circle cx="394.9" cy="224.0" r="1.3" />
<circle cx="398.1" cy="228.0" r="1.3" />
<circle cx="401.3" cy="240.0" r="1.3" />
<circle cx="404.5" cy="240.0" r="1.3" />
<circle cx="407.7" cy="248.0" r="1.3" />
<circle cx="411.0" cy="252.0" r="1.3" />
</g>
</svg>