<svg xmlns="http://www.w3.org/2000/svg" width="161.8" height="100.0" viewBox="-4.4 -5.0 171.8 110.0">
<g fill="none" stroke="black" stroke-width="0.5400%" transform="translate(0, 100.0000) scale(0.9259, -0.9259)">
<circle cx="0.7" cy="0.0" r="0.5" />
<circle cx="1.4" cy="0.0" r="0.5" />
<circle cx="2.1" cy="0.0" r="0.5" />
<circle cx="2.8" cy="0.0" r="0.5" />
<circle cx="3.5" cy="1.0" r="0.5" />
<circle cx="4.2" cy="0.0" r="0.5" />
<circle cx="4.9" cy="0.0" r="0.5" />
<circle cx="5.6" cy="2.0" r="0.5" />
<circle cx="6.3" cy="2.0" r="0.5" />
<circle cx="7.0" cy="0.0" r="0.5" />
<circle cx="7.7" cy="0.0" r="0.5" />
<circle cx="8.4" cy="3.0" r="0.5" />
<circle cx="9.1" cy="4.0" r="0.5" />
<circle cx="9.8" cy="3.0" r="0.5" />
<circle cx="10.5" cy="0.0" r="0.5" />
<circle cx="11.2" cy="0.0" r="0.5" />
<circle cx="11.9" cy="4.0" r="0.5" />
<circle cx="12.6" cy="6.0" r="0.5" />
<circle cx="13.3" cy="6.0" r="0.5" />
<circle cx="14.0" cy="4.0" r="0.5" />
<circle cx="14.7" cy="0.0" r="0.5" />
<circle cx="15.4" cy="0.0" r="0.5" />
<circle cx="16.1" cy="5.0" r="0.5" />
<circle cx="16.8" cy="8.0" r="0.5" />
<circle cx="17.5" cy="5.0" r="0.5" />
<circle cx="18.2" cy="8.0" r="0.5" />
<circle cx="18.9" cy="5.0" r="0.5" />
<circle cx="19.6" cy="0.0" r="0.5" />
<circle cx="20.3" cy="0.0" r="0.5" />
<circle cx="21.0" cy="6.0" r="0.5" />
<circle cx="21.7" cy="10.0" r="0.5" />
<circle cx="22.4" cy="12.0" r="0.5" />
<circle cx="23.1" cy="12.0" r="0.5" />
<circle cx="23.8" cy="10.0" r="0.5" />
<circle cx="24.5" cy="6.0" r="0.5" />
<circle cx="25.2" cy="0.0" r="0.5" />
<circle cx="25.9" cy="0.0" r="0.5" />
<circle cx="26.6" cy="7.0" r="0.5" />
<circle cx="27.3" cy="12.0" r="0.5" />
<circle cx="28.0" cy="15.0" r="0.5" />
<circle cx="28.7" cy="16.0" r="0.5" />
<circle cx="29.4" cy="15.0" r="0.5" />
<circle cx="30.1" cy="12.0" r="0.5" />
<circle cx="30.8" cy="7.0" r="0.5" />
<circle cx="31.5" cy="0.0" r="0.5" />
<circle cx="32.2" cy="0.0" r="0.5" />
<circle cx="32.9" cy="8.0" r="0.5" />
<circle cx="33.6" cy="14.0" r="0.5" />
<circle cx="34.3" cy="10.0" r="0.5" />
<circle cx="34.9" cy="20.0" r="0.5" />
<circle cx="35.6" cy="20.0" r="0.5" />
<circle cx="36.3" cy="10.0" r="0.5" />
<circle cx="37.0" cy="14.0" r="0.5" />
<circle cx="37.7" cy="8.0" r="0.5" />
<circle cx="38.4" cy="0.0" r="0.5" />
<circle cx="39.1" cy="0.0" r="0.5" />
<circle cx="39.8" cy="9.0" r="0.5" />
<circle cx="40.5" cy="16.0" r="0.5" />
<circle cx="41.2" cy="9.0" r="0.5" />
<circle cx="41.9" cy="24.0" r="0.5" />
<circle cx="42.6" cy="17.0" r="0.5" />
<circle cx="43.3" cy="24.0" r="0.5" />
<circle cx="44.0" cy="9.0" r="0.5" />
<circle cx="44.7" cy="16.0" r="0.5" />
<circle cx="45.4" cy="9.0" r="0.5" />
<circle cx="46.1" cy="0.0" r="0.5" />
<circle cx="46.8" cy="0.0" r="0.5" />
<circle cx="47.5" cy="10.0" r="0.5" />
<circle cx="48.2" cy="18.0" r="0.5" />
<circle cx="48.9" cy="24.0" r="0.5" />
<circle cx="49.6" cy="28.0" r="0.5" />
<circle cx="50.3" cy="30.0" r="0.5" />
<circle cx="51.0" cy="30.0" r="0.5" />
<circle cx="51.7" cy="28.0" r="0.5" />
<circle cx="52.4" cy="24.0" r="0.5" />
<circle cx="53.1" cy="18.0" r="0.5" />
<circle cx="53.8" cy="10.0" r="0.5" />
<circle cx="54.5" cy="0.0" r="0.5" />
<circle cx="55.2" cy="0.0" r="0.5" />
<circle cx="55.9" cy="11.0" r="0.5" />
<circle cx="56.6" cy="20.0" r="0.5" />
<circle cx="57.3" cy="27.0" r="0.5" />
<circle cx="58.0" cy="32.0" r="0.5" />
<circle cx="58.7" cy="27.0" r="0.5" />
<circle cx="59.4" cy="20.0" r="0.5" />
<circle cx="60.1" cy="27.0" r="0.5" />
<circle cx="60.8" cy="32.0" r="0.5" />
<circle cx="61.5" cy="27.0" r="0.5" />
<circle cx="62.2" cy="20.0" r="0.5" />
<circle cx="62.9" cy="11.0" r="0.5" />
<circle cx="63.6" cy="0.0" r="0.5" />
<circle cx="64.3" cy="0.0" r="0.5" />
<circle cx="65.0" cy="12.0" r="0.5" />
<circle cx="65.7" cy="22.0" r="0.5" />
<circle cx="66.4" cy="30.0" r="0.5" />
<circle cx="67.1" cy="36.0" r="0.5" />
<circle cx="67.8" cy="40.0" r="0.5" />
<circle cx="68.5" cy="18.0" r="0.5" />
<circle cx="69.2" cy="18.0" r="0.5" />
<circle cx="69.9" cy="40.0" r="0.5" />
<circle cx="70.6" cy="36.0" r="0.5" />
<circle cx="71.3" cy="30.0" r="0.5" />
<circle cx="72.0" cy="22.0" r="0.5" />
<circle cx="72.7" cy="12.0" r="0.5" />
<circle cx="73.4" cy="0.0" r="0.5" />
<circle cx="74.1" cy="0.0" r="0.5" />
<circle cx="74.8" cy="13.0" r="0.5" />
<circle cx="75.5" cy="24.0" r="0.5" />
<circle cx="76.2" cy="29.0" r="0.5" />
<circle cx="76.9" cy="40.0" r="0.5" />
<circle cx="77.6" cy="45.0" r="0.5" />
<circle cx="78.3" cy="48.0" r="0.5" />
<circle cx="79.0" cy="21.0" r="0.5" />
<circle cx="79.7" cy="48.0" r="0.5" />
<circle cx="80.4" cy="45.0" r="0.5" />
<circle cx="81.1" cy="40.0" r="0.5" />
<circle cx="81.8" cy="29.0" r="0.5" />
<circle cx="82.5" cy="24.0" r="0.5" />
<circle cx="83.2" cy="13.0" r="0.5" />
<circle cx="83.9" cy="0.0" r="0.5" />
<circle cx="84.6" cy="0.0" r="0.5" />
<circle cx="85.3" cy="14.0" r="0.5" />
<circle cx="86.0" cy="26.0" r="0.5" />
<circle cx="86.7" cy="20.0" r="0.5" />
<circle cx="87.4" cy="44.0" r="0.5" />
<circle cx="88.1" cy="34.0" r="0.5" />
<circle cx="88.8" cy="54.0" r="0.5" />
<circle cx="89.5" cy="56.0" r="0.5" />
<circle cx="90.2" cy="56.0" r="0.5" />
<circle cx="90.9" cy="54.0" r="0.5" />
<circle cx="91.6" cy="34.0" r="0.5" />
<circle cx="92.3" cy="44.0" r="0.5" />
<circle cx="93.0" cy="20.0" r="0.5" />
<circle cx="93.7" cy="26.0" r="0.5" />
<circle cx="94.4" cy="14.0" r="0.5" />
<circle cx="95.1" cy="0.0" r="0.5" />
<circle cx="95.8" cy="0.0" r="0.5" />
<circle cx="96.5" cy="15.0" r="0.5" />
<circle cx="97.2" cy="28.0" r="0.5" />
<circle cx="97.9" cy="23.0" r="0.5" />
<circle cx="98.6" cy="48.0" r="0.5" />
<circle cx="99.3" cy="39.0" r="0.5" />
<circle cx="100.0" cy="60.0" r="0.5" />
<circle cx="100.7" cy="63.0" r="0.5" />
<circle cx="101.4" cy="64.0" r="0.5" />
<circle cx="102.1" cy="63.0" r="0.5" />
<circle cx="102.8" cy="60.0" r="0.5" />
<circle cx="103.5" cy="39.0" r="0.5" />
<circle cx="104.1" cy="48.0" r="0.5" />
<circle cx="104.8" cy="23.0" r="0.5" />
<circle cx="105.5" cy="28.0" r="0.5" />
<circle cx="106.2" cy="15.0" r="0.5" />
<circle cx="106.9" cy="0.0" r="0.5" />
<circle cx="107.6" cy="0.0" r="0.5" />
<circle cx="108.3" cy="16.0" r="0.5" />
<circle cx="109.0" cy="30.0" r="0.5" />
<circle cx="109.7" cy="18.0" r="0.5" />
<circle cx="110.4" cy="52.0" r="0.5" />
<circle cx="111.1" cy="60.0" r="0.5" />
<circle cx="111.8" cy="58.0" r="0.5" />
<circle cx="112.5" cy="54.0" r="0.5" />
<circle cx="113.2" cy="72.0" r="0.5" />
<circle cx="113.9" cy="72.0" r="0.5" />
<circle cx="114.6" cy="54.0" r="0.5" />
<circle cx="115.3" cy="58.0" r="0.5" />
<circle cx="116.0" cy="60.0" r="0.5" />
<circle cx="116.7" cy="52.0" r="0.5" />
<circle cx="117.4" cy="18.0" r="0.5" />
<circle cx="118.1" cy="30.0" r="0.5" />
<circle cx="118.8" cy="16.0" r="0.5" />
<circle cx="119.5" cy="0.0" r="0.5" />
<circle cx="120.2" cy="0.0" r="0.5" />
<circle cx="120.9" cy="17.0" r="0.5" />
<circle cx="121.6" cy="32.0" r="0.5" />
<circle cx="122.3" cy="17.0" r="0.5" />
<circle cx="123.0" cy="56.0" r="0.5" />
<circle cx="123.7" cy="57.0" r="0.5" />
<circle cx="124.4" cy="40.0" r="0.5" />
<circle cx="125.1" cy="49.0" r="0.5" />
<circle cx="125.8" cy="80.0" r="0.5" />
<circle cx="126.5" cy="65.0" r="0.5" />
<circle cx="127.2" cy="80.0" r="0.5" />
<circle cx="127.9" cy="49.0" r="0.5" />
<circle cx="128.6" cy="40.0" r="0.5" />
<circle cx="129.3" cy="57.0" r="0.5" />
<circle cx="130.0" cy="56.0" r="0.5" />
<circle cx="130.7" cy="17.0" r="0.5" />
<circle cx="131.4" cy="32.0" r="0.5" />
<circle cx="132.1" cy="17.0" r="0.5" />
<circle cx="132.8" cy="0.0" r="0.5" />
<circle cx="133.5" cy="0.0" r="0.5" />
<circle cx="134.2" cy="18.0" r="0.5" />
<circle cx="134.9" cy="34.0" r="0.5" />
<circle cx="135.6" cy="48.0" r="0.5" />
<circle cx="136.3" cy="60.0" r="0.5" />
<circle cx="137.0" cy="54.0" r="0.5" />
<circle cx="137.7" cy="46.0" r="0.5" />
<circle cx="138.4" cy="36.0" r="0.5" />
<circle cx="139.1" cy="88.0" r="0.5" />
<circle cx="139.8" cy="90.0" r="0.5" />
<circle cx="140.5" cy="90.0" r="0.5" />
<circle cx="141.2" cy="88.0" r="0.5" />
<circle cx="141.9" cy="36.0" r="0.5" />
<circle cx="142.6" cy="46.0" r="0.5" />
<circle cx="143.3" cy="54.0" r="0.5" />
<circle cx="144.0" cy="60.0" r="0.5" />
<circle cx="144.7" cy="48.0" r="0.5" />
<circle cx="145.4" cy="34.0" r="0.5" />
<circle cx="146.1" cy="18.0" r="0.5" />
<circle cx="146.8" cy="0.0" r="0.5" />
<circle cx="147.5" cy="0.0" r="0.5" />
<circle cx="148.2" cy="19.0" r="0.5" />
<circle cx="148.9" cy="36.0" r="0.5" />
<circle cx="149.6" cy="51.0" r="0.5" />
<circle cx="150.3" cy="64.0" r="0.5" />
<circle cx="151.0" cy="51.0" r="0.5" />
<circle cx="151.7" cy="36.0" r="0.5" />
<circle cx="152.4" cy="35.0" r="0.5" />
<circle cx="153.1" cy="96.0" r="0.5" />
<circle cx="153.8" cy="83.0" r="0.5" />
<circle cx="154.5" cy="68.0" r="0.5" />
<circle cx="155.2" cy="83.0" r="0.5" />
<circle cx="155.9" cy="96.0" r="0.5" />
<circle cx="156.6" cy="35.0" r="0.5" />
<circle cx="157.3" cy="36.0" r="0.5" />
<circle cx="158.0" cy="51.0" r="0.5" />
<circle cx="158.7" cy="64.0" r="0.5" />
<circle cx="159.4" cy="51.0" r="0.5" />
<circle cx="160.1" cy="36.0" r="0.5" />
<circle cx="160.8" cy="19.0" r="0.5" />
<circle cx="161.5" cy="0.0" r="0.5" />
<circle cx="162.2" cy="0.0" r="0.5" />
<circle cx="162.9" cy="20.0" r="0.5" />
<circle cx="163.6" cy="38.0" r="0.5" />
<circle cx="164.3" cy="54.0" r="0.5" />
<circle cx="165.0" cy="68.0" r="0.5" />
<circle cx="165.7" cy="80.0" r="0.5" />
<circle cx="166.4" cy="34.0" r="0.5" />
<circle cx="167.1" cy="42.0" r="0.5" />
<circle cx="167.8" cy="104.0" r="0.5" />
<circle cx="168.5" cy="108.0" r="0.5" />
<circle cx="169.2" cy="78.0" r="0.5" />
<circle cx="169.9" cy="78.0" r="0.5" />
<circle cx="170.6" cy="108.0" r="0.5" />
<circle cx="171.3" cy="104.0" r="0.5" />
<circle cx="172.0" cy="42.0" r="0.5" />
<circle cx="172.7" cy="34.0" r="0.5" />
<circle cx="173.3" cy="80.0" r="0.5" />
<circle cx="174.0" cy="68.0" r="0.5" />
<circle cx="174.7" cy="54.0" r="0.5" />
<circle cx="175.4" cy="38.0" r="0.5" />
</g>
</svg>