<svg xmlns="http://www.w3.org/2000/svg" width="161.8" height="100.0" viewBox="-4.4 -5.0 171.8 110.0">
<g fill="none" stroke="black" stroke-width="0.6350%" transform="translate(0, 100.0000) scale(0.7874, -0.7874)">
<circle cx="0.8" cy="0.0" r="0.6" />
<circle cx="0.8" cy="0.0" r="0.6" />
<circle cx="1.6" cy="0.0" r="0.6" />
<circle cx="2.5" cy="1.0" r="0.6" />
<circle cx="3.3" cy="0.0" r="0.6" />
<circle cx="4.1" cy="2.0" r="0.6" />
<circle cx="4.9" cy="3.0" r="0.6" />
<circle cx="5.8" cy="1.0" r="0.6" />
<circle cx="6.6" cy="0.0" r="0.6" />
<circle cx="7.4" cy="4.0" r="0.6" />
<circle cx="8.2" cy="5.0" r="0.6" />
<circle cx="9.0" cy="7.0" r="0.6" />
<circle cx="9.9" cy="6.0" r="0.6" />
<circle cx="10.7" cy="2.0" r="0.6" />
<circle cx="11.5" cy="3.0" r="0.6" />
<circle cx="12.3" cy="1.0" r="0.6" />
<circle cx="13.2" cy="0.0" r="0.6" />
<circle cx="14.0" cy="8.0" r="0.6" />
<circle cx="14.8" cy="9.0" r="0.6" />
<circle cx="15.6" cy="11.0" r="0.6" />
<circle cx="16.4" cy="10.0" r="0.6" />
<circle cx="17.3" cy="14.0" r="0.6" />
<circle cx="18.1" cy="15.0" r="0.6" />
<circle cx="18.9" cy="13.0" r="0.6" />
<circle cx="19.7" cy="12.0" r="0.6" />
<circle cx="20.5" cy="4.0" r="0.6" />
<circle cx="21.4" cy="5.0" r="0.6" />
<circle cx="22.2" cy="7.0" r="0.6" />
<circle cx="23.0" cy="6.0" r="0.6" />
<circle cx="23.8" cy="2.0" r="0.6" />
<circle cx="24.7" cy="3.0" r="0.6" />
<circle cx="25.5" cy="1.0" r="0.6" />
<circle cx="26.3" cy="0.0" r="0.6" />
<circle cx="27.1" cy="16.0" r="0.6" />
<circle cx="27.9" cy="17.0" r="0.6" />
<circle cx="28.8" cy="19.0" r="0.6" />
<circle cx="29.6" cy="18.0" r="0.6" />
<circle cx="30.4" cy="22.0" r="0.6" />
<circle cx="31.2" cy="23.0" r="0.6" />
<circle cx="32.1" cy="21.0" r="0.6" />
<circle cx="32.9" cy="20.0" r="0.6" />
<circle cx="33.7" cy="28.0" r="0.6" />
<circle cx="34.5" cy="29.0" r="0.6" />
<circle cx="35.3" cy="31.0" r="0.6" />
<circle cx="36.2" cy="30.0" r="0.6" />
<circle cx="37.0" cy="26.0" r="0.6" />
<circle cx="37.8" cy="27.0" r="0.6" />
<circle cx="38.6" cy="25.0" r="0.6" />
<circle cx="39.5" cy="24.0" r="0.6" />
<circle cx="40.3" cy="8.0" r="0.6" />
<circle cx="41.1" cy="9.0" r="0.6" />
<circle cx="41.9" cy="11.0" r="0.6" />
<circle cx="42.7" cy="10.0" r="0.6" />
<circle cx="43.6" cy="14.0" r="0.6" />
<circle cx="44.4" cy="15.0" r="0.6" />
<circle cx="45.2" cy="13.0" r="0.6" />
<circle cx="46.0" cy="12.0" r="0.6" />
<circle cx="46.9" cy="4.0" r="0.6" />
<circle cx="47.7" cy="5.0" r="0.6" />
<circle cx="48.5" cy="7.0" r="0.6" />
<circle cx="49.3" cy="6.0" r="0.6" />
<circle cx="50.1" cy="2.0" r="0.6" />
<circle cx="51.0" cy="3.0" r="0.6" />
<circle cx="51.8" cy="1.0" r="0.6" />
<circle cx="52.6" cy="0.0" r="0.6" />
<circle cx="53.4" cy="32.0" r="0.6" />
<circle cx="54.2" cy="33.0" r="0.6" />
<circle cx="55.1" cy="35.0" r="0.6" />
<circle cx="55.9" cy="34.0" r="0.6" />
<circle cx="56.7" cy="38.0" r="0.6" />
<circle cx="57.5" cy="39.0" r="0.6" />
<circle cx="58.4" cy="37.0" r="0.6" />
<circle cx="59.2" cy="36.0" r="0.6" />
<circle cx="60.0" cy="44.0" r="0.6" />
<circle cx="60.8" cy="45.0" r="0.6" />
<circle cx="61.6" cy="47.0" r="0.6" />
<circle cx="62.5" cy="46.0" r="0.6" />
<circle cx="63.3" cy="42.0" r="0.6" />
<circle cx="64.1" cy="43.0" r="0.6" />
<circle cx="64.9" cy="41.0" r="0.6" />
<circle cx="65.8" cy="40.0" r="0.6" />
<circle cx="66.6" cy="56.0" r="0.6" />
<circle cx="67.4" cy="57.0" r="0.6" />
<circle cx="68.2" cy="59.0" r="0.6" />
<circle cx="69.0" cy="58.0" r="0.6" />
<circle cx="69.9" cy="62.0" r="0.6" />
<circle cx="70.7" cy="63.0" r="0.6" />
<circle cx="71.5" cy="61.0" r="0.6" />
<circle cx="72.3" cy="60.0" r="0.6" />
<circle cx="73.2" cy="52.0" r="0.6" />
<circle cx="74.0" cy="53.0" r="0.6" />
<circle cx="74.8" cy="55.0" r="0.6" />
<circle cx="75.6" cy="54.0" r="0.6" />
<circle cx="76.4" cy="50.0" r="0.6" />
<circle cx="77.3" cy="51.0" r="0.6" />
<circle cx="78.1" cy="49.0" r="0.6" />
<circle cx="78.9" cy="48.0" r="0.6" />
<circle cx="79.7" cy="16.0" r="0.6" />
<circle cx="80.6" cy="17.0" r="0.6" />
<circle cx="81.4" cy="19.0" r="0.6" />
<circle cx="82.2" cy="18.0" r="0.6" />
<circle cx="83.0" cy="22.0" r="0.6" />
<circle cx="83.8" cy="23.0" r="0.6" />
<circle cx="84.7" cy="21.0" r="0.6" />
<circle cx="85.5" cy="20.0" r="0.6" />
<circle cx="86.3" cy="28.0" r="0.6" />
<circle cx="87.1" cy="29.0" r="0.6" />
<circle cx="87.9" cy="31.0" r="0.6" />
<circle cx="88.8" cy="30.0" r="0.6" />
<circle cx="89.6" cy="26.0" r="0.6" />
<circle cx="90.4" cy="27.0" r="0.6" />
<circle cx="91.2" cy="25.0" r="0.6" />
<circle cx="92.1" cy="24.0" r="0.6" />
<circle cx="92.9" cy="8.0" r="0.6" />
<circle cx="93.7" cy="9.0" r="0.6" />
<circle cx="94.5" cy="11.0" r="0.6" />
<circle cx="95.3" cy="10.0" r="0.6" />
<circle cx="96.2" cy="14.0" r="0.6" />
<circle cx="97.0" cy="15.0" r="0.6" />
<circle cx="97.8" cy="13.0" r="0.6" />
<circle cx="98.6" cy="12.0" r="0.6" />
<circle cx="99.5" cy="4.0" r="0.6" />
<circle cx="100.3" cy="5.0" r="0.6" />
<circle cx="101.1" cy="7.0" r="0.6" />
<circle cx="101.9" cy="6.0" r="0.6" />
<circle cx="102.7" cy="2.0" r="0.6" />
<circle cx="103.6" cy="3.0" r="0.6" />
<circle cx="104.4" cy="1.0" r="0.6" />
<circle cx="105.2" cy="0.0" r="0.6" />
<circle cx="106.0" cy="64.0" r="0.6" />
<circle cx="106.9" cy="65.0" r="0.6" />
<circle cx="107.7" cy="67.0" r="0.6" />
<circle cx="108.5" cy="66.0" r="0.6" />
<circle cx="109.3" cy="70.0" r="0.6" />
<circle cx="110.1" cy="71.0" r="0.6" />
<circle cx="111.0" cy="69.0" r="0.6" />
<circle cx="111.8" cy="68.0" r="0.6" />
<circle cx="112.6" cy="76.0" r="0.6" />
<circle cx="113.4" cy="77.0" r="0.6" />
<circle cx="114.3" cy="79.0" r="0.6" />
<circle cx="115.1" cy="78.0" r="0.6" />
<circle cx="115.9" cy="74.0" r="0.6" />
<circle cx="116.7" cy="75.0" r="0.6" />
<circle cx="117.5" cy="73.0" r="0.6" />
<circle cx="118.4" cy="72.0" r="0.6" />
<circle cx="119.2" cy="88.0" r="0.6" />
<circle cx="120.0" cy="89.0" r="0.6" />
<circle cx="120.8" cy="91.0" r="0.6" />
<circle cx="121.7" cy="90.0" r="0.6" />
<circle cx="122.5" cy="94.0" r="0.6" />
<circle cx="123.3" cy="95.0" r="0.6" />
<circle cx="124.1" cy="93.0" r="0.6" />
<circle cx="124.9" cy="92.0" r="0.6" />
<circle cx="125.8" cy="84.0" r="0.6" />
<circle cx="126.6" cy="85.0" r="0.6" />
<circle cx="127.4" cy="87.0" r="0.6" />
<circle cx="128.2" cy="86.0" r="0.6" />
<circle cx="129.0" cy="82.0" r="0.6" />
<circle cx="129.9" cy="83.0" r="0.6" />
<circle cx="130.7" cy="81.0" r="0.6" />
<circle cx="131.5" cy="80.0" r="0.6" />
<circle cx="132.3" cy="112.0" r="0.6" />
<circle cx="133.2" cy="113.0" r="0.6" />
<circle cx="134.0" cy="115.0" r="0.6" />
<circle cx="134.8" cy="114.0" r="0.6" />
<circle cx="135.6" cy="118.0" r="0.6" />
<circle cx="136.4" cy="119.0" r="0.6" />
<circle cx="137.3" cy="117.0" r="0.6" />
<circle cx="138.1" cy="116.0" r="0.6" />
<circle cx="138.9" cy="124.0" r="0.6" />
<circle cx="139.7" cy="125.0" r="0.6" />
<circle cx="140.6" cy="127.0" r="0.6" />
<circle cx="141.4" cy="126.0" r="0.6" />
<circle cx="142.2" cy="122.0" r="0.6" />
<circle cx="143.0" cy="123.0" r="0.6" />
<circle cx="143.8" cy="121.0" r="0.6" />
<circle cx="144.7" cy="120.0" r="0.6" />
<circle cx="145.5" cy="104.0" r="0.6" />
<circle cx="146.3" cy="105.0" r="0.6" />
<circle cx="147.1" cy="107.0" r="0.6" />
<circle cx="148.0" cy="106.0" r="0.6" />
<circle cx="148.8" cy="110.0" r="0.6" />
<circle cx="149.6" cy="111.0" r="0.6" />
<circle cx="150.4" cy="109.0" r="0.6" />
<circle cx="151.2" cy="108.0" r="0.6" />
<circle cx="152.1" cy="100.0" r="0.6" />
<circle cx="152.9" cy="101.0" r="0.6" />
<circle cx="153.7" cy="103.0" r="0.6" />
<circle cx="154.5" cy="102.0" r="0.6" />
<circle cx="155.4" cy="98.0" r="0.6" />
<circle cx="156.2" cy="99.0" r="0.6" />
<circle cx="157.0" cy="97.0" r="0.6" />
<circle cx="157.8" cy="96.0" r="0.6" />
<circle cx="158.6" cy="32.0" r="0.6" />
<circle cx="159.5" cy="33.0" r="0.6" />
<circle cx="160.3" cy="35.0" r="0.6" />
<circle cx="161.1" cy="34.0" r="0.6" />
<circle cx="161.9" cy="38.0" r="0.6" />
<circle cx="162.7" cy="39.0" r="0.6" />
<circle cx="163.6" cy="37.0" r="0.6" />
<circle cx="164.4" cy="36.0" r="0.6" />
<circle cx="165.2" cy="44.0" r="0.6" />
<circle cx="166.0" cy="45.0" r="0.6" />
<circle cx="166.9" cy="47.0" r="0.6" />
<circle cx="167.7" cy="46.0" r="0.6" />
<circle cx="168.5" cy="42.0" r="0.6" />
<circle cx="169.3" cy="43.0" r="0.6" />
<circle cx="170.1" cy="41.0" r="0.6" />
<circle cx="171.0" cy="40.0" r="0.6" />
<circle cx="171.8" cy="56.0" r="0.6" />
<circle cx="172.6" cy="57.0" r="0.6" />
<circle cx="173.4" cy="59.0" r="0.6" />
<circle cx="174.3" cy="58.0" r="0.6" />
<circle cx="175.1" cy="62.0" r="0.6" />
<circle cx="175.9" cy="63.0" r="0.6" />
<circle cx="176.7" cy="61.0" r="0.6" />
<circle cx="177.5" cy="60.0" r="0.6" />
<circle cx="178.4" cy="52.0" r="0.6" />
<circle cx="179.2" cy="53.0" r="0.6" />
<circle cx="180.0" cy="55.0" r="0.6" />
<circle cx="180.8" cy="54.0" r="0.6" />
<circle cx="181.7" cy="50.0" r="0.6" />
<circle cx="182.5" cy="51.0" r="0.6" />
<circle cx="183.3" cy="49.0" r="0.6" />
<circle cx="184.1" cy="48.0" r="0.6" />
<circle cx="184.9" cy="16.0" r="0.6" />
<circle cx="185.8" cy="17.0" r="0.6" />
<circle cx="186.6" cy="19.0" r="0.6" />
<circle cx="187.4" cy="18.0" r="0.6" />
<circle cx="188.2" cy="22.0" r="0.6" />
<circle cx="189.1" cy="23.0" r="0.6" />
<circle cx="189.9" cy="21.0" r="0.6" />
<circle cx="190.7" cy="20.0" r="0.6" />
<circle cx="191.5" cy="28.0" r="0.6" />
<circle cx="192.3" cy="29.0" r="0.6" />
<circle cx="193.2" cy="31.0" r="0.6" />
<circle cx="194.0" cy="30.0" r="0.6" />
<circle cx="194.8" cy="26.0" r="0.6" />
<circle cx="195.6" cy="27.0" r="0.6" />
<circle cx="196.4" cy="25.0" r="0.6" />
<circle cx="197.3" cy="24.0" r="0.6" />
<circle cx="198.1" cy="8.0" r="0.6" />
<circle cx="198.9" cy="9.0" r="0.6" />
<circle cx="199.7" cy="11.0" r="0.6" />
<circle cx="200.6" cy="10.0" r="0.6" />
<circle cx="201.4" cy="14.0" r="0.6" />
<circle cx="202.2" cy="15.0" r="0.6" />
<circle cx="203.0" cy="13.0" r="0.6" />
<circle cx="203.8" cy="12.0" r="0.6" />
<circle cx="204.7" cy="4.0" r="0.6" />
<circle cx="205.5" cy="5.0" r="0.6" />
<circle cx="206.3" cy="7.0" r="0.6" />
</g>
</svg>