<svg xmlns="http://www.w3.org/2000/svg" width="161.8" height="100.0" viewBox="-4.23 -5.00 171.80 110.00">
<g fill="none" stroke="black" stroke-width="0.1550%" transform="translate(0, 100.0000) scale(3.2258, -3.2258)">
<circle cx="0.24" cy="0.00" r="0.15" />
<circle cx="0.48" cy="1.00" r="0.15" />
<circle cx="0.72" cy="0.00" r="0.15" />
<circle cx="0.96" cy="2.00" r="0.15" />
<circle cx="1.20" cy="3.00" r="0.15" />
<circle cx="1.44" cy="0.00" r="0.15" />
<circle cx="1.68" cy="3.00" r="0.15" />
<circle cx="1.92" cy="2.00" r="0.15" />
<circle cx="2.16" cy="1.00" r="0.15" />
<circle cx="2.40" cy="0.00" r="0.15" />
<circle cx="2.64" cy="4.00" r="0.15" />
<circle cx="2.88" cy="5.00" r="0.15" />
<circle cx="3.12" cy="6.00" r="0.15" />
<circle cx="3.36" cy="7.00" r="0.15" />
<circle cx="3.60" cy="0.00" r="0.15" />
<circle cx="3.84" cy="5.00" r="0.15" />
<circle cx="4.08" cy="4.00" r="0.15" />
<circle cx="4.32" cy="7.00" r="0.15" />
<circle cx="4.56" cy="6.00" r="0.15" />
<circle cx="4.80" cy="1.00" r="0.15" />
<circle cx="5.04" cy="0.00" r="0.15" />
<circle cx="5.28" cy="6.00" r="0.15" />
<circle cx="5.52" cy="7.00" r="0.15" />
<circle cx="5.76" cy="4.00" r="0.15" />
<circle cx="6.00" cy="5.00" r="0.15" />
<circle cx="6.24" cy="2.00" r="0.15" />
<circle cx="6.48" cy="3.00" r="0.15" />
<circle cx="6.72" cy="0.00" r="0.15" />
<circle cx="6.96" cy="7.00" r="0.15" />
<circle cx="7.20" cy="6.00" r="0.15" />
<circle cx="7.44" cy="5.00" r="0.15" />
<circle cx="7.68" cy="4.00" r="0.15" />
<circle cx="7.92" cy="3.00" r="0.15" />
<circle cx="8.16" cy="2.00" r="0.15" />
<circle cx="8.40" cy="1.00" r="0.15" />
<circle cx="8.64" cy="0.00" r="0.15" />
<circle cx="8.88" cy="8.00" r="0.15" />
<circle cx="9.12" cy="9.00" r="0.15" />
<circle cx="9.36" cy="10.00" r="0.15" />
<circle cx="9.60" cy="11.00" r="0.15" />
<circle cx="9.84" cy="12.00" r="0.15" />
<circle cx="10.08" cy="13.00" r="0.15" />
<circle cx="10.32" cy="14.00" r="0.15" />
<circle cx="10.56" cy="15.00" r="0.15" />
<circle cx="10.80" cy="0.00" r="0.15" />
<circle cx="11.04" cy="9.00" r="0.15" />
<circle cx="11.28" cy="8.00" r="0.15" />
<circle cx="11.52" cy="11.00" r="0.15" />
<circle cx="11.76" cy="10.00" r="0.15" />
<circle cx="12.00" cy="13.00" r="0.15" />
<circle cx="12.24" cy="12.00" r="0.15" />
<circle cx="12.48" cy="15.00" r="0.15" />
<circle cx="12.72" cy="14.00" r="0.15" />
<circle cx="12.96" cy="1.00" r="0.15" />
<circle cx="13.20" cy="0.00" r="0.15" />
<circle cx="13.44" cy="10.00" r="0.15" />
<circle cx="13.68" cy="11.00" r="0.15" />
<circle cx="13.92" cy="8.00" r="0.15" />
<circle cx="14.16" cy="9.00" r="0.15" />
<circle cx="14.40" cy="14.00" r="0.15" />
<circle cx="14.64" cy="15.00" r="0.15" />
<circle cx="14.88" cy="12.00" r="0.15" />
<circle cx="15.12" cy="13.00" r="0.15" />
<circle cx="15.36" cy="2.00" r="0.15" />
<circle cx="15.60" cy="3.00" r="0.15" />
<circle cx="15.84" cy="0.00" r="0.15" />
<circle cx="16.08" cy="11.00" r="0.15" />
<circle cx="16.32" cy="10.00" r="0.15" />
<circle cx="16.56" cy="9.00" r="0.15" />
<circle cx="16.80" cy="8.00" r="0.15" />
<circle cx="17.04" cy="15.00" r="0.15" />
<circle cx="17.28" cy="14.00" r="0.15" />
<circle cx="17.52" cy="13.00" r="0.15" />
<circle cx="17.76" cy="12.00" r="0.15" />
<circle cx="18.00" cy="3.00" r="0.15" />
<circle cx="18.24" cy="2.00" r="0.15" />
<circle cx="18.48" cy="1.00" r="0.15" />
<circle cx="18.72" cy="0.00" r="0.15" />
<circle cx="18.96" cy="12.00" r="0.15" />
<circle cx="19.20" cy="13.00" r="0.15" />
<circle cx="19.44" cy="14.00" r="0.15" />
<circle cx="19.68" cy="15.00" r="0.15" />
<circle cx="19.92" cy="8.00" r="0.15" />
<circle cx="20.16" cy="9.00" r="0.15" />
<circle cx="20.40" cy="10.00" r="0.15" />
<circle cx="20.64" cy="11.00" r="0.15" />
<circle cx="20.88" cy="4.00" r="0.15" />
<circle cx="21.12" cy="5.00" r="0.15" />
<circle cx="21.36" cy="6.00" r="0.15" />
<circle cx="21.60" cy="7.00" r="0.15" />
<circle cx="21.84" cy="0.00" r="0.15" />
<circle cx="22.08" cy="13.00" r="0.15" />
<circle cx="22.32" cy="12.00" r="0.15" />
<circle cx="22.56" cy="15.00" r="0.15" />
<circle cx="22.80" cy="14.00" r="0.15" />
<circle cx="23.04" cy="9.00" r="0.15" />
<circle cx="23.28" cy="8.00" r="0.15" />
<circle cx="23.52" cy="11.00" r="0.15" />
<circle cx="23.76" cy="10.00" r="0.15" />
<circle cx="24.00" cy="5.00" r="0.15" />
<circle cx="24.24" cy="4.00" r="0.15" />
<circle cx="24.48" cy="7.00" r="0.15" />
<circle cx="24.72" cy="6.00" r="0.15" />
<circle cx="24.96" cy="1.00" r="0.15" />
<circle cx="25.20" cy="0.00" r="0.15" />
<circle cx="25.44" cy="14.00" r="0.15" />
<circle cx="25.68" cy="15.00" r="0.15" />
<circle cx="25.92" cy="12.00" r="0.15" />
<circle cx="26.16" cy="13.00" r="0.15" />
<circle cx="26.40" cy="10.00" r="0.15" />
<circle cx="26.64" cy="11.00" r="0.15" />
<circle cx="26.88" cy="8.00" r="0.15" />
<circle cx="27.12" cy="9.00" r="0.15" />
<circle cx="27.36" cy="6.00" r="0.15" />
<circle cx="27.60" cy="7.00" r="0.15" />
<circle cx="27.84" cy="4.00" r="0.15" />
<circle cx="28.08" cy="5.00" r="0.15" />
<circle cx="28.32" cy="2.00" r="0.15" />
<circle cx="28.56" cy="3.00" r="0.15" />
<circle cx="28.80" cy="0.00" r="0.15" />
<circle cx="29.04" cy="15.00" r="0.15" />
<circle cx="29.28" cy="14.00" r="0.15" />
<circle cx="29.52" cy="13.00" r="0.15" />
<circle cx="29.76" cy="12.00" r="0.15" />
<circle cx="30.00" cy="11.00" r="0.15" />
<circle cx="30.24" cy="10.00" r="0.15" />
<circle cx="30.48" cy="9.00" r="0.15" />
<circle cx="30.72" cy="8.00" r="0.15" />
<circle cx="30.96" cy="7.00" r="0.15" />
<circle cx="31.20" cy="6.00" r="0.15" />
<circle cx="31.44" cy="5.00" r="0.15" />
<circle cx="31.68" cy="4.00" r="0.15" />
<circle cx="31.92" cy="3.00" r="0.15" />
<circle cx="32.16" cy="2.00" r="0.15" />
<circle cx="32.40" cy="1.00" r="0.15" />
<circle cx="32.64" cy="0.00" r="0.15" />
<circle cx="32.88" cy="16.00" r="0.15" />
<circle cx="33.12" cy="17.00" r="0.15" />
<circle cx="33.36" cy="18.00" r="0.15" />
<circle cx="33.60" cy="19.00" r="0.15" />
<circle cx="33.84" cy="20.00" r="0.15" />
<circle cx="34.08" cy="21.00" r="0.15" />
<circle cx="34.32" cy="22.00" r="0.15" />
<circle cx="34.56" cy="23.00" r="0.15" />
<circle cx="34.80" cy="24.00" r="0.15" />
<circle cx="35.04" cy="25.00" r="0.15" />
<circle cx="35.28" cy="26.00" r="0.15" />
<circle cx="35.52" cy="27.00" r="0.15" />
<circle cx="35.76" cy="28.00" r="0.15" />
<circle cx="36.00" cy="29.00" r="0.15" />
<circle cx="36.24" cy="30.00" r="0.15" />
<circle cx="36.48" cy="31.00" r="0.15" />
<circle cx="36.72" cy="0.00" r="0.15" />
<circle cx="36.96" cy="17.00" r="0.15" />
<circle cx="37.20" cy="16.00" r="0.15" />
<circle cx="37.44" cy="19.00" r="0.15" />
<circle cx="37.68" cy="18.00" r="0.15" />
<circle cx="37.92" cy="21.00" r="0.15" />
<circle cx="38.16" cy="20.00" r="0.15" />
<circle cx="38.40" cy="23.00" r="0.15" />
<circle cx="38.64" cy="22.00" r="0.15" />
<circle cx="38.88" cy="25.00" r="0.15" />
<circle cx="39.12" cy="24.00" r="0.15" />
<circle cx="39.36" cy="27.00" r="0.15" />
<circle cx="39.60" cy="26.00" r="0.15" />
<circle cx="39.84" cy="29.00" r="0.15" />
<circle cx="40.08" cy="28.00" r="0.15" />
<circle cx="40.32" cy="31.00" r="0.15" />
<circle cx="40.56" cy="30.00" r="0.15" />
<circle cx="40.80" cy="1.00" r="0.15" />
<circle cx="41.04" cy="0.00" r="0.15" />
<circle cx="41.28" cy="18.00" r="0.15" />
<circle cx="41.52" cy="19.00" r="0.15" />
<circle cx="41.76" cy="16.00" r="0.15" />
<circle cx="42.00" cy="17.00" r="0.15" />
<circle cx="42.24" cy="22.00" r="0.15" />
<circle cx="42.48" cy="23.00" r="0.15" />
<circle cx="42.72" cy="20.00" r="0.15" />
<circle cx="42.96" cy="21.00" r="0.15" />
<circle cx="43.20" cy="26.00" r="0.15" />
<circle cx="43.44" cy="27.00" r="0.15" />
<circle cx="43.68" cy="24.00" r="0.15" />
<circle cx="43.92" cy="25.00" r="0.15" />
<circle cx="44.16" cy="30.00" r="0.15" />
<circle cx="44.40" cy="31.00" r="0.15" />
<circle cx="44.64" cy="28.00" r="0.15" />
<circle cx="44.88" cy="29.00" r="0.15" />
<circle cx="45.12" cy="2.00" r="0.15" />
<circle cx="45.36" cy="3.00" r="0.15" />
<circle cx="45.60" cy="0.00" r="0.15" />
<circle cx="45.84" cy="19.00" r="0.15" />
<circle cx="46.08" cy="18.00" r="0.15" />
<circle cx="46.32" cy="17.00" r="0.15" />
<circle cx="46.56" cy="16.00" r="0.15" />
<circle cx="46.80" cy="23.00" r="0.15" />
<circle cx="47.04" cy="22.00" r="0.15" />
<circle cx="47.28" cy="21.00" r="0.15" />
<circle cx="47.52" cy="20.00" r="0.15" />
<circle cx="47.76" cy="27.00" r="0.15" />
<circle cx="48.00" cy="26.00" r="0.15" />
<circle cx="48.24" cy="25.00" r="0.15" />
<circle cx="48.48" cy="24.00" r="0.15" />
<circle cx="48.72" cy="31.00" r="0.15" />
<circle cx="48.96" cy="30.00" r="0.15" />
<circle cx="49.20" cy="29.00" r="0.15" />
<circle cx="49.44" cy="28.00" r="0.15" />
<circle cx="49.68" cy="3.00" r="0.15" />
<circle cx="49.92" cy="2.00" r="0.15" />
<circle cx="50.16" cy="1.00" r="0.15" />
<circle cx="50.40" cy="0.00" r="0.15" />
</g>
</svg>