<svg xmlns="http://www.w3.org/2000/svg" width="161.8" height="100.0" viewBox="-4.2 -5.0 171.8 110.0">
<g fill="none" stroke="black" stroke-width="1.2750%" transform="translate(0, 100.0000) scale(0.3922, -0.3922)">

<line x1="4.1" y1="0.0" x2="4.1" y2="1.0" />
<line x1="6.2" y1="0.0" x2="6.2" y2="3.0" />
<line x1="8.3" y1="0.0" x2="8.3" y2="3.0" />
<line x1="10.3" y1="0.0" x2="10.3" y2="6.0" />
<line x1="12.4" y1="0.0" x2="12.4" y2="5.0" />
<line x1="14.4" y1="0.0" x2="14.4" y2="5.0" />
<line x1="16.5" y1="0.0" x2="16.5" y2="7.0" />
<line x1="18.6" y1="0.0" x2="18.6" y2="12.0" />
<line x1="20.6" y1="0.0" x2="20.6" y2="9.0" />
<line x1="22.7" y1="0.0" x2="22.7" y2="15.0" />
<line x1="24.8" y1="0.0" x2="24.8" y2="11.0" />
<line x1="26.8" y1="0.0" x2="26.8" y2="10.0" />
<line x1="28.9" y1="0.0" x2="28.9" y2="13.0" />
<line x1="30.9" y1="0.0" x2="30.9" y2="9.0" />
<line x1="33.0" y1="0.0" x2="33.0" y2="15.0" />
<line x1="35.1" y1="0.0" x2="35.1" y2="24.0" />
<line x1="37.1" y1="0.0" x2="37.1" y2="17.0" />
<line x1="39.2" y1="0.0" x2="39.2" y2="27.0" />
<line x1="41.3" y1="0.0" x2="41.3" y2="19.0" />
<line x1="43.3" y1="0.0" x2="43.3" y2="30.0" />
<line x1="45.4" y1="0.0" x2="45.4" y2="21.0" />
<line x1="47.4" y1="0.0" x2="47.4" y2="29.0" />
<line x1="49.5" y1="0.0" x2="49.5" y2="23.0" />
<line x1="51.6" y1="0.0" x2="51.6" y2="20.0" />
<line x1="53.6" y1="0.0" x2="53.6" y2="25.0" />
<line x1="55.7" y1="0.0" x2="55.7" y2="23.0" />
<line x1="57.8" y1="0.0" x2="57.8" y2="27.0" />
<line x1="59.8" y1="0.0" x2="59.8" y2="18.0" />
<line x1="61.9" y1="0.0" x2="61.9" y2="29.0" />
<line x1="64.0" y1="0.0" x2="64.0" y2="17.0" />
<line x1="66.0" y1="0.0" x2="66.0" y2="31.0" />
<line x1="68.1" y1="0.0" x2="68.1" y2="48.0" />
<line x1="70.1" y1="0.0" x2="70.1" y2="33.0" />
<line x1="72.2" y1="0.0" x2="72.2" y2="51.0" />
<line x1="74.3" y1="0.0" x2="74.3" y2="35.0" />
<line x1="76.3" y1="0.0" x2="76.3" y2="54.0" />
<line x1="78.4" y1="0.0" x2="78.4" y2="37.0" />
<line x1="80.5" y1="0.0" x2="80.5" y2="53.0" />
<line x1="82.5" y1="0.0" x2="82.5" y2="39.0" />
<line x1="84.6" y1="0.0" x2="84.6" y2="60.0" />
<line x1="86.6" y1="0.0" x2="86.6" y2="41.0" />
<line x1="88.7" y1="0.0" x2="88.7" y2="63.0" />
<line x1="90.8" y1="0.0" x2="90.8" y2="43.0" />
<line x1="92.8" y1="0.0" x2="92.8" y2="58.0" />
<line x1="94.9" y1="0.0" x2="94.9" y2="45.0" />
<line x1="97.0" y1="0.0" x2="97.0" y2="57.0" />
<line x1="99.0" y1="0.0" x2="99.0" y2="47.0" />
<line x1="101.1" y1="0.0" x2="101.1" y2="40.0" />
<line x1="103.1" y1="0.0" x2="103.1" y2="49.0" />
<line x1="105.2" y1="0.0" x2="105.2" y2="43.0" />
<line x1="107.3" y1="0.0" x2="107.3" y2="51.0" />
<line x1="109.3" y1="0.0" x2="109.3" y2="46.0" />
<line x1="111.4" y1="0.0" x2="111.4" y2="53.0" />
<line x1="113.5" y1="0.0" x2="113.5" y2="45.0" />
<line x1="115.5" y1="0.0" x2="115.5" y2="55.0" />
<line x1="117.6" y1="0.0" x2="117.6" y2="36.0" />
<line x1="119.7" y1="0.0" x2="119.7" y2="57.0" />
<line x1="121.7" y1="0.0" x2="121.7" y2="39.0" />
<line x1="123.8" y1="0.0" x2="123.8" y2="59.0" />
<line x1="125.8" y1="0.0" x2="125.8" y2="34.0" />
<line x1="127.9" y1="0.0" x2="127.9" y2="61.0" />
<line x1="130.0" y1="0.0" x2="130.0" y2="33.0" />
<line x1="132.0" y1="0.0" x2="132.0" y2="63.0" />
<line x1="134.1" y1="0.0" x2="134.1" y2="96.0" />
<line x1="136.2" y1="0.0" x2="136.2" y2="65.0" />
<line x1="138.2" y1="0.0" x2="138.2" y2="99.0" />
<line x1="140.3" y1="0.0" x2="140.3" y2="67.0" />
<line x1="142.3" y1="0.0" x2="142.3" y2="102.0" />
<line x1="144.4" y1="0.0" x2="144.4" y2="69.0" />
<line x1="146.5" y1="0.0" x2="146.5" y2="101.0" />
<line x1="148.5" y1="0.0" x2="148.5" y2="71.0" />
<line x1="150.6" y1="0.0" x2="150.6" y2="108.0" />
<line x1="152.7" y1="0.0" x2="152.7" y2="73.0" />
<line x1="154.7" y1="0.0" x2="154.7" y2="111.0" />
<line x1="156.8" y1="0.0" x2="156.8" y2="75.0" />
<line x1="158.9" y1="0.0" x2="158.9" y2="106.0" />
<line x1="160.9" y1="0.0" x2="160.9" y2="77.0" />
<line x1="163.0" y1="0.0" x2="163.0" y2="105.0" />
<line x1="165.0" y1="0.0" x2="165.0" y2="79.0" />
<line x1="167.1" y1="0.0" x2="167.1" y2="120.0" />
<line x1="169.2" y1="0.0" x2="169.2" y2="81.0" />
<line x1="171.2" y1="0.0" x2="171.2" y2="123.0" />
<line x1="173.3" y1="0.0" x2="173.3" y2="83.0" />
<line x1="175.4" y1="0.0" x2="175.4" y2="126.0" />
<line x1="177.4" y1="0.0" x2="177.4" y2="85.0" />
<line x1="179.5" y1="0.0" x2="179.5" y2="125.0" />
<line x1="181.5" y1="0.0" x2="181.5" y2="87.0" />
<line x1="183.6" y1="0.0" x2="183.6" y2="116.0" />
<line x1="185.7" y1="0.0" x2="185.7" y2="89.0" />
<line x1="187.7" y1="0.0" x2="187.7" y2="119.0" />
<line x1="189.8" y1="0.0" x2="189.8" y2="91.0" />
<line x1="191.9" y1="0.0" x2="191.9" y2="114.0" />
<line x1="193.9" y1="0.0" x2="193.9" y2="93.0" />
<line x1="196.0" y1="0.0" x2="196.0" y2="113.0" />
<line x1="198.0" y1="0.0" x2="198.0" y2="95.0" />
<line x1="200.1" y1="0.0" x2="200.1" y2="80.0" />
<line x1="202.2" y1="0.0" x2="202.2" y2="97.0" />
<line x1="204.2" y1="0.0" x2="204.2" y2="83.0" />
<line x1="206.3" y1="0.0" x2="206.3" y2="99.0" />
<line x1="208.4" y1="0.0" x2="208.4" y2="86.0" />
<line x1="210.4" y1="0.0" x2="210.4" y2="101.0" />
<line x1="212.5" y1="0.0" x2="212.5" y2="85.0" />
<line x1="214.6" y1="0.0" x2="214.6" y2="103.0" />
<line x1="216.6" y1="0.0" x2="216.6" y2="92.0" />
<line x1="218.7" y1="0.0" x2="218.7" y2="105.0" />
<line x1="220.7" y1="0.0" x2="220.7" y2="95.0" />
<line x1="222.8" y1="0.0" x2="222.8" y2="107.0" />
<line x1="224.9" y1="0.0" x2="224.9" y2="90.0" />
<line x1="226.9" y1="0.0" x2="226.9" y2="109.0" />
<line x1="229.0" y1="0.0" x2="229.0" y2="89.0" />
<line x1="231.1" y1="0.0" x2="231.1" y2="111.0" />
<line x1="233.1" y1="0.0" x2="233.1" y2="72.0" />
<line x1="235.2" y1="0.0" x2="235.2" y2="113.0" />
<line x1="237.2" y1="0.0" x2="237.2" y2="75.0" />
<line x1="239.3" y1="0.0" x2="239.3" y2="115.0" />
<line x1="241.4" y1="0.0" x2="241.4" y2="78.0" />
<line x1="243.4" y1="0.0" x2="243.4" y2="117.0" />
<line x1="245.5" y1="0.0" x2="245.5" y2="77.0" />
<line x1="247.6" y1="0.0" x2="247.6" y2="119.0" />
<line x1="249.6" y1="0.0" x2="249.6" y2="68.0" />
<line x1="251.7" y1="0.0" x2="251.7" y2="121.0" />
<line x1="253.7" y1="0.0" x2="253.7" y2="71.0" />
<line x1="255.8" y1="0.0" x2="255.8" y2="123.0" />
<line x1="257.9" y1="0.0" x2="257.9" y2="66.0" />
<line x1="259.9" y1="0.0" x2="259.9" y2="125.0" />
<line x1="262.0" y1="0.0" x2="262.0" y2="65.0" />
<line x1="264.1" y1="0.0" x2="264.1" y2="127.0" />
<line x1="266.1" y1="0.0" x2="266.1" y2="192.0" />
<line x1="268.2" y1="0.0" x2="268.2" y2="129.0" />
<line x1="270.3" y1="0.0" x2="270.3" y2="195.0" />
<line x1="272.3" y1="0.0" x2="272.3" y2="131.0" />
<line x1="274.4" y1="0.0" x2="274.4" y2="198.0" />
<line x1="276.4" y1="0.0" x2="276.4" y2="133.0" />
<line x1="278.5" y1="0.0" x2="278.5" y2="197.0" />
<line x1="280.6" y1="0.0" x2="280.6" y2="135.0" />
<line x1="282.6" y1="0.0" x2="282.6" y2="204.0" />
<line x1="284.7" y1="0.0" x2="284.7" y2="137.0" />
<line x1="286.8" y1="0.0" x2="286.8" y2="207.0" />
<line x1="288.8" y1="0.0" x2="288.8" y2="139.0" />
<line x1="290.9" y1="0.0" x2="290.9" y2="202.0" />
<line x1="292.9" y1="0.0" x2="292.9" y2="141.0" />
<line x1="295.0" y1="0.0" x2="295.0" y2="201.0" />
<line x1="297.1" y1="0.0" x2="297.1" y2="143.0" />
<line x1="299.1" y1="0.0" x2="299.1" y2="216.0" />
<line x1="301.2" y1="0.0" x2="301.2" y2="145.0" />
<line x1="303.3" y1="0.0" x2="303.3" y2="219.0" />
<line x1="305.3" y1="0.0" x2="305.3" y2="147.0" />
<line x1="307.4" y1="0.0" x2="307.4" y2="222.0" />
<line x1="309.4" y1="0.0" x2="309.4" y2="149.0" />
<line x1="311.5" y1="0.0" x2="311.5" y2="221.0" />
<line x1="313.6" y1="0.0" x2="313.6" y2="151.0" />
<line x1="315.6" y1="0.0" x2="315.6" y2="212.0" />
<line x1="317.7" y1="0.0" x2="317.7" y2="153.0" />
<line x1="319.8" y1="0.0" x2="319.8" y2="215.0" />
<line x1="321.8" y1="0.0" x2="321.8" y2="155.0" />
<line x1="323.9" y1="0.0" x2="323.9" y2="210.0" />
<line x1="326.0" y1="0.0" x2="326.0" y2="157.0" />
<line x1="328.0" y1="0.0" x2="328.0" y2="209.0" />
<line x1="330.1" y1="0.0" x2="330.1" y2="159.0" />
<line x1="332.1" y1="0.0" x2="332.1" y2="240.0" />
<line x1="334.2" y1="0.0" x2="334.2" y2="161.0" />
<line x1="336.3" y1="0.0" x2="336.3" y2="243.0" />
<line x1="338.3" y1="0.0" x2="338.3" y2="163.0" />
<line x1="340.4" y1="0.0" x2="340.4" y2="246.0" />
<line x1="342.5" y1="0.0" x2="342.5" y2="165.0" />
<line x1="344.5" y1="0.0" x2="344.5" y2="245.0" />
<line x1="346.6" y1="0.0" x2="346.6" y2="167.0" />
<line x1="348.6" y1="0.0" x2="348.6" y2="252.0" />
<line x1="350.7" y1="0.0" x2="350.7" y2="169.0" />
<line x1="352.8" y1="0.0" x2="352.8" y2="255.0" />
<line x1="354.8" y1="0.0" x2="354.8" y2="171.0" />
<line x1="356.9" y1="0.0" x2="356.9" y2="250.0" />
<line x1="359.0" y1="0.0" x2="359.0" y2="173.0" />
<line x1="361.0" y1="0.0" x2="361.0" y2="249.0" />
<line x1="363.1" y1="0.0" x2="363.1" y2="175.0" />
<line x1="365.1" y1="0.0" x2="365.1" y2="232.0" />
<line x1="367.2" y1="0.0" x2="367.2" y2="177.0" />
<line x1="369.3" y1="0.0" x2="369.3" y2="235.0" />
<line x1="371.3" y1="0.0" x2="371.3" y2="179.0" />
<line x1="373.4" y1="0.0" x2="373.4" y2="238.0" />
<line x1="375.5" y1="0.0" x2="375.5" y2="181.0" />
<line x1="377.5" y1="0.0" x2="377.5" y2="237.0" />
<line x1="379.6" y1="0.0" x2="379.6" y2="183.0" />
<line x1="381.7" y1="0.0" x2="381.7" y2="228.0" />
<line x1="383.7" y1="0.0" x2="383.7" y2="185.0" />
<line x1="385.8" y1="0.0" x2="385.8" y2="231.0" />
<line x1="387.8" y1="0.0" x2="387.8" y2="187.0" />
<line x1="389.9" y1="0.0" x2="389.9" y2="226.0" />
<line x1="392.0" y1="0.0" x2="392.0" y2="189.0" />
<line x1="394.0" y1="0.0" x2="394.0" y2="225.0" />
<line x1="396.1" y1="0.0" x2="396.1" y2="191.0" />
<line x1="398.2" y1="0.0" x2="398.2" y2="160.0" />
<line x1="400.2" y1="0.0" x2="400.2" y2="193.0" />
<line x1="402.3" y1="0.0" x2="402.3" y2="163.0" />
<line x1="404.3" y1="0.0" x2="404.3" y2="195.0" />
<line x1="406.4" y1="0.0" x2="406.4" y2="166.0" />
<line x1="408.5" y1="0.0" x2="408.5" y2="197.0" />
<line x1="410.5" y1="0.0" x2="410.5" y2="165.0" />
<line x1="412.6" y1="0.0" x2="412.6" y2="199.0" />
<line x1="414.7" y1="0.0" x2="414.7" y2="172.0" />
</g>
</svg>