<svg xmlns="http://www.w3.org/2000/svg" width="100.0" height="100.0" viewBox="-55.018 -4.964 110.036 110.000">
<g fill="none" stroke="black" stroke-width="0.0050%" transform="translate(0, 100.0726) scale(100.0363, -100.0363)">
<circle cx="0.000" cy="1.000" r="0.005" />
<polyline points="-0.500,0.000 -0.490,0.000 -0.480,0.001 -0.470,0.001 -0.460,0.002 -0.450,0.003 -0.440,0.004 -0.430,0.005 -0.420,0.007 -0.410,0.010 -0.400,0.013 -0.390,0.017 -0.380,0.022 -0.370,0.028 -0.360,0.035 -0.350,0.044 -0.340,0.054 -0.330,0.065 -0.320,0.079 -0.310,0.094 -0.300,0.111 -0.290,0.130 -0.280,0.151 -0.270,0.174 -0.260,0.199 -0.250,0.227 -0.240,0.257 -0.230,0.289 -0.220,0.323 -0.210,0.358 -0.200,0.396 -0.190,0.434 -0.180,0.474 -0.170,0.515 -0.160,0.557 -0.150,0.599 -0.140,0.640 -0.130,0.682 -0.120,0.722 -0.110,0.761 -0.100,0.798 -0.090,0.833 -0.080,0.866 -0.070,0.896 -0.060,0.923 -0.050,0.946 -0.040,0.965 -0.030,0.980 -0.020,0.991 -0.010,0.998 0.000,1.000 0.010,0.998 0.020,0.991 0.030,0.980 0.040,0.965 0.050,0.946 0.060,0.923 0.070,0.896 0.080,0.866 0.090,0.833 0.100,0.798 0.110,0.761 0.120,0.722 0.130,0.682 0.140,0.640 0.150,0.599 0.160,0.557 0.170,0.515 0.180,0.474 0.190,0.434 0.200,0.396 0.210,0.358 0.220,0.323 0.230,0.289 0.240,0.257 0.250,0.227 0.260,0.199 0.270,0.174 0.280,0.151 0.290,0.130 0.300,0.111 0.310,0.094 0.320,0.079 0.330,0.065 0.340,0.054 0.350,0.044 0.360,0.035 0.370,0.028 0.380,0.022 0.390,0.017 0.400,0.013 0.410,0.010 0.420,0.007 0.430,0.005 0.440,0.004 0.450,0.003 0.460,0.002 0.470,0.001 0.480,0.001 0.490,0.000 0.500,0.000" />
</g>
</svg>