<svg xmlns="http://www.w3.org/2000/svg" width="161.8" height="100.0" viewBox="-4.7 -105.0 171.8 110.0">
<g fill="none" stroke="black" stroke-width="0.6000%" transform="translate(0, -100.0000) scale(0.8333, -0.8333)">
<circle cx="0.4" cy="0.0" r="0.6" />
<polyline points="0.4,-120.0 0.8,-120.0 1.1,-120.0 1.5,-120.0 1.9,-120.0 2.3,-119.8 2.7,-118.5 3.0,-118.4 3.4,-119.6 3.8,-120.0 4.2,-120.0 4.6,-120.0 4.9,-117.9 5.3,-113.9 5.7,-111.5 6.1,-110.2 6.5,-109.7 6.8,-110.2 7.2,-111.7 7.6,-115.2 8.0,-120.0 8.4,-120.0 8.7,-113.6 9.1,-109.4 9.5,-107.0 9.9,-105.7 10.3,-105.2 10.6,-105.6 11.0,-107.1 11.4,-110.1 11.8,-117.0 12.2,-120.0 12.5,-111.6 12.9,-106.7 13.3,-104.1 13.7,-102.6 14.1,-102.1 14.4,-102.4 14.8,-103.6 15.2,-106.2 15.6,-111.8 16.0,-120.0 16.3,-110.6 16.7,-104.9 17.1,-101.9 17.5,-100.3 17.9,-99.6 18.2,-99.7 18.6,-100.7 19.0,-103.0 19.4,-107.6 19.8,-120.0 20.1,-110.5 20.5,-103.6 20.9,-100.2 21.3,-98.4 21.7,-97.5 22.0,-97.4 22.4,-98.2 22.8,-100.1 23.2,-104.0 23.6,-113.8 23.9,-111.6 24.3,-102.7 24.7,-98.8 25.1,-96.7 25.5,-95.6 25.8,-95.3 26.2,-95.9 26.6,-97.6 27.0,-100.8 27.4,-108.2 27.7,-114.5 28.1,-102.2 28.5,-97.6 28.9,-95.1 29.3,-93.8 29.6,-93.4 30.0,-93.8 30.4,-95.1 30.8,-97.9 31.2,-103.7 31.5,-120.0 31.9,-102.0 32.3,-96.6 32.7,-93.7 33.1,-92.2 33.4,-91.5 33.8,-91.7 34.2,-92.8 34.6,-95.2 35.0,-100.0 35.3,-116.8 35.7,-102.3 36.1,-95.7 36.5,-92.4 36.9,-90.6 37.2,-89.7 37.6,-89.7 38.0,-90.6 38.4,-92.6 38.8,-96.6 39.1,-107.0 39.5,-103.3 39.9,-94.9 40.3,-91.1 40.7,-89.0 41.0,-87.9 41.4,-87.7 41.8,-88.4 42.2,-90.1 42.6,-93.4 42.9,-101.1 43.3,-105.8 43.7,-94.3 44.1,-89.9 44.5,-87.4 44.8,-86.1 45.2,-85.7 45.6,-86.1 46.0,-87.5 46.4,-90.4 46.7,-96.4 47.1,-113.4 47.5,-93.9 47.9,-88.6 48.3,-85.8 48.6,-84.3 49.0,-83.7 49.4,-83.9 49.8,-85.0 50.2,-87.4 50.5,-92.3 50.9,-111.3 51.3,-93.9 51.7,-87.4 52.1,-84.2 52.4,-82.4 52.8,-81.5 53.2,-81.5 53.6,-82.4 54.0,-84.4 54.3,-88.4 54.7,-99.5 55.1,-94.3 55.5,-86.2 55.9,-82.5 56.2,-80.4 56.6,-79.3 57.0,-79.1 57.4,-79.7 57.8,-81.4 58.1,-84.7 58.5,-92.7 58.9,-96.0 59.3,-85.1 59.7,-80.7 60.0,-78.2 60.4,-76.9 60.8,-76.5 61.2,-76.9 61.6,-78.2 61.9,-81.1 62.3,-87.2 62.7,-101.3 63.1,-84.0 63.5,-78.8 63.8,-75.9 64.2,-74.4 64.6,-73.7 65.0,-73.9 65.4,-74.9 65.7,-77.3 66.1,-82.3 66.5,-104.4 66.9,-83.0 67.3,-76.7 67.6,-73.5 68.0,-71.6 68.4,-70.7 68.8,-70.6 69.2,-71.4 69.5,-73.4 69.9,-77.5 70.3,-89.2 70.7,-82.4 71.1,-74.5 71.4,-70.7 71.8,-68.6 72.2,-67.4 72.6,-67.1 73.0,-67.7 73.3,-69.3 73.7,-72.7 74.1,-80.9 74.5,-82.6 74.9,-72.2 75.2,-67.8 75.6,-65.3 76.0,-63.9 76.4,-63.3 76.8,-63.6 77.1,-64.9 77.5,-67.7 77.9,-74.0 78.3,-85.6 78.7,-69.9 79.0,-64.7 79.4,-61.8 79.8,-60.2 80.2,-59.5 80.6,-59.6 80.9,-60.7 81.3,-63.1 81.7,-68.3 82.1,-96.2 82.5,-68.5 82.8,-62.6 83.2,-59.7 83.6,-58.4 84.0,-58.2 84.4,-59.1 84.7,-61.6 85.1,-66.4 85.5,-76.9 85.9,-96.2 86.3,-73.1 86.6,-59.0 87.0,-50.3 87.4,-43.9 87.8,-38.7 88.2,-34.4 88.5,-30.6 88.9,-27.3 89.3,-24.4 89.7,-21.7 90.1,-19.3 90.4,-17.1 90.8,-15.1 91.2,-13.3 91.6,-11.6 92.0,-10.1 92.3,-8.7 92.7,-7.4 93.1,-6.3 93.5,-5.2 93.9,-4.3 94.2,-3.5 94.6,-2.7 95.0,-2.1 95.4,-1.5 95.8,-1.0 96.1,-0.7 96.5,-0.4 96.9,-0.2 97.3,-0.0 97.7,0.0 98.0,-0.0 98.4,-0.2 98.8,-0.4 99.2,-0.7 99.6,-1.0 99.9,-1.5 100.3,-2.1 100.7,-2.7 101.1,-3.5 101.5,-4.3 101.8,-5.2 102.2,-6.3 102.6,-7.4 103.0,-8.7 103.4,-10.1 103.7,-11.6 104.1,-13.3 104.5,-15.1 104.9,-17.1 105.3,-19.3 105.6,-21.7 106.0,-24.4 106.4,-27.3 106.8,-30.6 107.2,-34.4 107.5,-38.7 107.9,-43.9 108.3,-50.3 108.7,-59.0 109.1,-73.1 109.4,-96.2 109.8,-76.9 110.2,-66.4 110.6,-61.6 111.0,-59.1 111.3,-58.2 111.7,-58.4 112.1,-59.7 112.5,-62.6 112.9,-68.5 113.2,-96.2 113.6,-68.3 114.0,-63.1 114.4,-60.7 114.8,-59.6 115.1,-59.5 115.5,-60.2 115.9,-61.8 116.3,-64.7 116.7,-69.9 117.0,-85.6 117.4,-74.0 117.8,-67.7 118.2,-64.9 118.6,-63.6 118.9,-63.3 119.3,-63.9 119.7,-65.3 120.1,-67.8 120.5,-72.2 120.8,-82.6 121.2,-80.9 121.6,-72.7 122.0,-69.3 122.3,-67.7 122.7,-67.1 123.1,-67.4 123.5,-68.6 123.9,-70.7 124.2,-74.5 124.6,-82.4 125.0,-89.2 125.4,-77.5 125.8,-73.4 126.1,-71.4 126.5,-70.6 126.9,-70.7 127.3,-71.6 127.7,-73.5 128.0,-76.7 128.4,-83.0 128.8,-104.4 129.2,-82.3 129.6,-77.3 129.9,-74.9 130.3,-73.9 130.7,-73.7 131.1,-74.4 131.5,-75.9 131.8,-78.8 132.2,-84.0 132.6,-101.3 133.0,-87.2 133.4,-81.1 133.7,-78.2 134.1,-76.9 134.5,-76.5 134.9,-76.9 135.3,-78.2 135.6,-80.7 136.0,-85.1 136.4,-96.0 136.8,-92.7 137.2,-84.7 137.5,-81.4 137.9,-79.7 138.3,-79.1 138.7,-79.3 139.1,-80.4 139.4,-82.5 139.8,-86.2 140.2,-94.3 140.6,-99.5 141.0,-88.4 141.3,-84.4 141.7,-82.4 142.1,-81.5 142.5,-81.5 142.9,-82.4 143.2,-84.2 143.6,-87.4 144.0,-93.9 144.4,-111.3 144.8,-92.3 145.1,-87.4 145.5,-85.0 145.9,-83.9 146.3,-83.7 146.7,-84.3 147.0,-85.8 147.4,-88.6 147.8,-93.9 148.2,-113.4 148.6,-96.4 148.9,-90.4 149.3,-87.5 149.7,-86.1 150.1,-85.7 150.5,-86.1 150.8,-87.4 151.2,-89.9 151.6,-94.3 152.0,-105.8 152.4,-101.1 152.7,-93.4 153.1,-90.1 153.5,-88.4 153.9,-87.7 154.3,-87.9 154.6,-89.0 155.0,-91.1 155.4,-94.9 155.8,-103.3 156.2,-107.0 156.5,-96.6 156.9,-92.6 157.3,-90.6 157.7,-89.7 158.1,-89.7 158.4,-90.6 158.8,-92.4 159.2,-95.7 159.6,-102.3 160.0,-116.8 160.3,-100.0 160.7,-95.2 161.1,-92.8 161.5,-91.7 161.9,-91.5 162.2,-92.2 162.6,-93.7 163.0,-96.6 163.4,-102.0 163.8,-120.0 164.1,-103.7 164.5,-97.9 164.9,-95.1 165.3,-93.8 165.7,-93.4 166.0,-93.8 166.4,-95.1 166.8,-97.6 167.2,-102.2 167.6,-114.5 167.9,-108.2 168.3,-100.8 168.7,-97.6 169.1,-95.9 169.5,-95.3 169.8,-95.6 170.2,-96.7 170.6,-98.8 171.0,-102.7 171.4,-111.6 171.7,-113.8 172.1,-104.0 172.5,-100.1 172.9,-98.2 173.3,-97.4 173.6,-97.5 174.0,-98.4 174.4,-100.2 174.8,-103.6 175.2,-110.5 175.5,-120.0 175.9,-107.6 176.3,-103.0 176.7,-100.7 177.1,-99.7 177.4,-99.6 177.8,-100.3 178.2,-101.9 178.6,-104.9 179.0,-110.6 179.3,-120.0 179.7,-111.8 180.1,-106.2 180.5,-103.6 180.9,-102.4 181.2,-102.1 181.6,-102.6 182.0,-104.1 182.4,-106.7 182.8,-111.6 183.1,-120.0 183.5,-117.0 183.9,-110.1 184.3,-107.1 184.7,-105.6 185.0,-105.2 185.4,-105.7 185.8,-107.0 186.2,-109.4 186.6,-113.6 186.9,-120.0 187.3,-120.0 187.7,-115.2 188.1,-111.7 188.5,-110.2 188.8,-109.7 189.2,-110.2 189.6,-111.5 190.0,-113.9 190.4,-117.9 190.7,-120.0 191.1,-120.0 191.5,-120.0 191.9,-119.6 192.3,-118.4 192.6,-118.5 193.0,-119.8 193.4,-120.0 193.8,-120.0 194.2,-120.0 194.5,-120.0" />
</g>
</svg>