<svg xmlns="http://www.w3.org/2000/svg" width="161.8" height="100.0" viewBox="-4.7 -105.0 171.8 110.0">
<g fill="none" stroke="black" stroke-width="0.6000%" transform="translate(0, -100.0000) scale(0.8333, -0.8333)">
<polyline points="0.4,-94.0 0.8,-94.4 1.1,-95.8 1.5,-98.5 1.9,-103.8 2.3,-120.0 2.7,-104.8 3.0,-98.9 3.4,-96.0 3.8,-94.5 4.2,-94.0 4.6,-94.3 4.9,-95.6 5.3,-98.1 5.7,-102.9 6.1,-119.2 6.5,-105.9 6.8,-99.4 7.2,-96.3 7.6,-94.6 8.0,-94.0 8.4,-94.2 8.7,-95.3 9.1,-97.7 9.5,-102.1 9.9,-114.7 10.3,-107.3 10.6,-99.9 11.0,-96.5 11.4,-94.7 11.8,-94.0 12.2,-94.1 12.5,-95.1 12.9,-97.3 13.3,-101.3 13.7,-111.7 14.1,-108.9 14.4,-100.5 14.8,-96.8 15.2,-94.9 15.6,-94.0 16.0,-94.0 16.3,-94.9 16.7,-96.9 17.1,-100.6 17.5,-109.3 17.9,-111.0 18.2,-101.1 18.6,-97.1 19.0,-95.0 19.4,-94.0 19.8,-93.9 20.1,-94.7 20.5,-96.5 20.9,-99.9 21.3,-107.4 21.7,-113.9 22.0,-101.8 22.4,-97.4 22.8,-95.2 23.2,-94.0 23.6,-93.8 23.9,-94.5 24.3,-96.1 24.7,-99.2 25.1,-105.8 25.5,-118.9 25.8,-102.7 26.2,-97.8 26.6,-95.3 27.0,-94.1 27.4,-93.7 27.7,-94.3 28.1,-95.7 28.5,-98.6 28.9,-104.3 29.3,-120.0 29.6,-103.8 30.0,-98.3 30.4,-95.6 30.8,-94.2 31.2,-93.7 31.5,-94.1 31.9,-95.4 32.3,-97.9 32.7,-102.9 33.1,-120.0 33.4,-105.3 33.8,-98.9 34.2,-95.9 34.6,-94.3 35.0,-93.7 35.3,-93.9 35.7,-95.0 36.1,-97.3 36.5,-101.7 36.9,-113.6 37.2,-107.3 37.6,-99.7 38.0,-96.3 38.4,-94.5 38.8,-93.7 39.1,-93.7 39.5,-94.7 39.9,-96.7 40.3,-100.4 40.7,-109.3 41.0,-110.6 41.4,-100.8 41.8,-96.9 42.2,-94.8 42.6,-93.8 42.9,-93.6 43.3,-94.4 43.7,-96.1 44.1,-99.3 44.5,-106.0 44.8,-117.4 45.2,-102.4 45.6,-97.7 46.0,-95.2 46.4,-94.0 46.7,-93.6 47.1,-94.1 47.5,-95.5 47.9,-98.2 48.3,-103.3 48.6,-120.0 49.0,-105.0 49.4,-98.9 49.8,-95.9 50.2,-94.4 50.5,-93.7 50.9,-93.9 51.3,-95.0 51.7,-97.1 52.1,-101.0 52.4,-110.4 52.8,-110.2 53.2,-101.0 53.6,-97.1 54.0,-95.0 54.3,-94.0 54.7,-93.9 55.1,-94.5 55.5,-96.0 55.9,-98.9 56.2,-104.4 56.6,-120.0 57.0,-104.8 57.4,-99.1 57.8,-96.2 58.1,-94.7 58.5,-94.0 58.9,-94.1 59.3,-95.0 59.7,-96.9 60.0,-100.3 60.4,-107.3 60.8,-116.9 61.2,-103.0 61.6,-98.4 61.9,-95.9 62.3,-94.5 62.7,-94.0 63.1,-94.1 63.5,-95.1 63.8,-97.0 64.2,-100.3 64.6,-107.5 65.0,-116.2 65.4,-102.8 65.7,-98.1 66.1,-95.5 66.5,-94.1 66.9,-93.4 67.3,-93.5 67.6,-94.3 68.0,-96.0 68.4,-99.1 68.8,-105.6 69.2,-119.1 69.5,-102.4 69.9,-97.3 70.3,-94.6 70.7,-93.1 71.1,-92.4 71.4,-92.5 71.8,-93.3 72.2,-95.3 72.6,-98.9 73.0,-107.5 73.3,-109.5 73.7,-99.4 74.1,-95.3 74.5,-93.3 74.9,-92.4 75.2,-92.5 75.6,-93.6 76.0,-96.3 76.4,-101.9 76.8,-120.0 77.1,-101.8 77.5,-96.6 77.9,-94.4 78.3,-94.0 78.7,-95.3 79.0,-98.8 79.4,-108.7 79.8,-107.0 80.2,-99.3 80.6,-97.3 80.9,-98.4 81.3,-102.3 81.7,-104.3 82.1,-94.5 82.5,-83.6 82.8,-74.9 83.2,-67.9 83.6,-61.9 84.0,-56.7 84.4,-52.1 84.7,-48.0 85.1,-44.2 85.5,-40.7 85.9,-37.6 86.3,-34.6 86.6,-31.8 87.0,-29.3 87.4,-26.9 87.8,-24.6 88.2,-22.5 88.5,-20.6 88.9,-18.7 89.3,-17.0 89.7,-15.3 90.1,-13.8 90.4,-12.4 90.8,-11.0 91.2,-9.8 91.6,-8.6 92.0,-7.5 92.3,-6.5 92.7,-5.6 93.1,-4.8 93.5,-4.0 93.9,-3.3 94.2,-2.7 94.6,-2.1 95.0,-1.6 95.4,-1.2 95.8,-0.8 96.1,-0.5 96.5,-0.3 96.9,-0.1 97.3,-0.0 97.7,0.0 98.0,-0.0 98.4,-0.1 98.8,-0.3 99.2,-0.5 99.6,-0.8 99.9,-1.2 100.3,-1.6 100.7,-2.1 101.1,-2.7 101.5,-3.3 101.8,-4.0 102.2,-4.8 102.6,-5.6 103.0,-6.5 103.4,-7.5 103.7,-8.6 104.1,-9.8 104.5,-11.0 104.9,-12.4 105.3,-13.8 105.6,-15.3 106.0,-17.0 106.4,-18.7 106.8,-20.6 107.2,-22.5 107.5,-24.6 107.9,-26.9 108.3,-29.3 108.7,-31.8 109.1,-34.6 109.4,-37.6 109.8,-40.7 110.2,-44.2 110.6,-48.0 111.0,-52.1 111.3,-56.7 111.7,-61.9 112.1,-67.9 112.5,-74.9 112.9,-83.6 113.2,-94.5 113.6,-104.3 114.0,-102.3 114.4,-98.4 114.8,-97.3 115.1,-99.3 115.5,-107.0 115.9,-108.7 116.3,-98.8 116.7,-95.3 117.0,-94.0 117.4,-94.4 117.8,-96.6 118.2,-101.8 118.6,-120.0 118.9,-101.9 119.3,-96.3 119.7,-93.6 120.1,-92.5 120.5,-92.4 120.8,-93.3 121.2,-95.3 121.6,-99.4 122.0,-109.5 122.3,-107.5 122.7,-98.9 123.1,-95.3 123.5,-93.3 123.9,-92.5 124.2,-92.4 124.6,-93.1 125.0,-94.6 125.4,-97.3 125.8,-102.4 126.1,-119.1 126.5,-105.6 126.9,-99.1 127.3,-96.0 127.7,-94.3 128.0,-93.5 128.4,-93.4 128.8,-94.1 129.2,-95.5 129.6,-98.1 129.9,-102.8 130.3,-116.2 130.7,-107.5 131.1,-100.3 131.5,-97.0 131.8,-95.1 132.2,-94.1 132.6,-94.0 133.0,-94.5 133.4,-95.9 133.7,-98.4 134.1,-103.0 134.5,-116.9 134.9,-107.3 135.3,-100.3 135.6,-96.9 136.0,-95.0 136.4,-94.1 136.8,-94.0 137.2,-94.7 137.5,-96.2 137.9,-99.1 138.3,-104.8 138.7,-120.0 139.1,-104.4 139.4,-98.9 139.8,-96.0 140.2,-94.5 140.6,-93.9 141.0,-94.0 141.3,-95.0 141.7,-97.1 142.1,-101.0 142.5,-110.2 142.9,-110.4 143.2,-101.0 143.6,-97.1 144.0,-95.0 144.4,-93.9 144.8,-93.7 145.1,-94.4 145.5,-95.9 145.9,-98.9 146.3,-105.0 146.7,-120.0 147.0,-103.3 147.4,-98.2 147.8,-95.5 148.2,-94.1 148.6,-93.6 148.9,-94.0 149.3,-95.2 149.7,-97.7 150.1,-102.4 150.5,-117.4 150.8,-106.0 151.2,-99.3 151.6,-96.1 152.0,-94.4 152.4,-93.6 152.7,-93.8 153.1,-94.8 153.5,-96.9 153.9,-100.8 154.3,-110.6 154.6,-109.3 155.0,-100.4 155.4,-96.7 155.8,-94.7 156.2,-93.7 156.5,-93.7 156.9,-94.5 157.3,-96.3 157.7,-99.7 158.1,-107.3 158.4,-113.6 158.8,-101.7 159.2,-97.3 159.6,-95.0 160.0,-93.9 160.3,-93.7 160.7,-94.3 161.1,-95.9 161.5,-98.9 161.9,-105.3 162.2,-120.0 162.6,-102.9 163.0,-97.9 163.4,-95.4 163.8,-94.1 164.1,-93.7 164.5,-94.2 164.9,-95.6 165.3,-98.3 165.7,-103.8 166.0,-120.0 166.4,-104.3 166.8,-98.6 167.2,-95.7 167.6,-94.3 167.9,-93.7 168.3,-94.1 168.7,-95.3 169.1,-97.8 169.5,-102.7 169.8,-118.9 170.2,-105.8 170.6,-99.2 171.0,-96.1 171.4,-94.5 171.7,-93.8 172.1,-94.0 172.5,-95.2 172.9,-97.4 173.3,-101.8 173.6,-113.9 174.0,-107.4 174.4,-99.9 174.8,-96.5 175.2,-94.7 175.5,-93.9 175.9,-94.0 176.3,-95.0 176.7,-97.1 177.1,-101.1 177.4,-111.0 177.8,-109.3 178.2,-100.6 178.6,-96.9 179.0,-94.9 179.3,-94.0 179.7,-94.0 180.1,-94.9 180.5,-96.8 180.9,-100.5 181.2,-108.9 181.6,-111.7 182.0,-101.3 182.4,-97.3 182.8,-95.1 183.1,-94.1 183.5,-94.0 183.9,-94.7 184.3,-96.5 184.7,-99.9 185.0,-107.3 185.4,-114.7 185.8,-102.1 186.2,-97.7 186.6,-95.3 186.9,-94.2 187.3,-94.0 187.7,-94.6 188.1,-96.3 188.5,-99.4 188.8,-105.9 189.2,-119.2 189.6,-102.9 190.0,-98.1 190.4,-95.6 190.7,-94.3 191.1,-94.0 191.5,-94.5 191.9,-96.0 192.3,-98.9 192.6,-104.8 193.0,-120.0 193.4,-103.8 193.8,-98.5 194.2,-95.8 194.5,-94.4" />
</g>
</svg>