<svg xmlns="http://www.w3.org/2000/svg" width="161.8" height="100.0" viewBox="-5 -5 172 110">
<g fill="none" stroke="black" stroke-width="3.4100%" transform="translate(0, 100.0000) scale(0.1466, -0.1466)">
<circle cx="2" cy="0" r="3" />
<polyline points="2,0 4,18 6,32 9,46 11,56 13,70 15,80 17,90 19,96 22,110 24,120 26,130 28,136 30,146 32,152 34,158 37,160 39,174 41,184 43,194 45,200 47,210 50,216 52,222 54,224 56,234 58,240 60,246 63,248 65,254 67,256 69,258 71,256 73,270 75,280 78,290 80,296 82,306 84,312 86,318 88,320 91,330 93,336 95,342 97,344 99,350 101,352 103,354 106,352 108,362 110,368 112,374 114,376 116,382 119,384 121,386 123,384 125,390 127,392 129,394 131,392 134,394 136,392 138,390 140,384 142,398 144,408 147,418 149,424 151,434 153,440 155,446 157,448 159,458 162,464 164,470 166,472 168,478 170,480 172,482 175,480 177,490 179,496 181,502 183,504 185,510 188,512 190,514 192,512 194,518 196,520 198,522 200,520 203,522 205,520 207,518 209,512 211,522 213,528 216,534 218,536 220,542 222,544 224,546 226,544 228,550 231,552 233,554 235,552 237,554 239,552 241,550 244,544 246,550 248,552 250,554 252,552 254,554 256,552 259,550 261,544 263,546 265,544 267,542 269,536 272,534 274,528 276,522 278,512 280,526 282,536 284,546 287,552 289,562 291,568 293,574 295,576 297,586 300,592 302,598 304,600 306,606 308,608 310,610 313,608 315,618 317,624 319,630 321,632 323,638 325,640 328,642 330,640 332,646 334,648 336,650 338,648 341,650 343,648 345,646 347,640 349,650 351,656 353,662 356,664 358,670 360,672 362,674 364,672 366,678 369,680 371,682 373,680 375,682 377,680 379,678 381,672 384,678 386,680 388,682 390,680 392,682 394,680 397,678 399,672 401,674 403,672 405,670 407,664 410,662 412,656 414,650 416,640 418,650 420,656 422,662 425,664 427,670 429,672 431,674 433,672 435,678 438,680 440,682 442,680 444,682 446,680 448,678 450,672 453,678 455,680 457,682 459,680 461,682 463,680 466,678 468,672 470,674 472,672 474,670 476,664 478,662 481,656 483,650 485,640 487,646 489,648 491,650 494,648 496,650 498,648 500,646 502,640 504,642 506,640 509,638 511,632 513,630 515,624 517,618 519,608 522,610 524,608 526,606 528,600 530,598 532,592 535,586 537,576 539,574 541,568 543,562 545,552 547,546 550,536 552,526 554,512 556,526 558,536 560,546 563,552 565,562 567,568 569,574 571,576 573,586 575,592 578,598 580,600 582,606 584,608 586,610 588,608 591,618 593,624 595,630 597,632 599,638 601,640 603,642 606,640 608,646 610,648 612,650 614,648 616,650 619,648 621,646 623,640 625,650 627,656 629,662 631,664 634,670 636,672 638,674 640,672 642,678 644,680 647,682 649,680 651,682 653,680 655,678 657,672 660,678 662,680 664,682 666,680 668,682 670,680 672,678 675,672 677,674 679,672 681,670 683,664 685,662 688,656 690,650 692,640 694,650 696,656 698,662 700,664 703,670 705,672 707,674 709,672 711,678 713,680 716,682 718,680 720,682 722,680 724,678 726,672 728,678 731,680 733,682 735,680 737,682 739,680 741,678 744,672 746,674 748,672 750,670 752,664 754,662 757,656 759,650 761,640 763,646 765,648 767,650 769,648 772,650 774,648 776,646 778,640 780,642 782,640 785,638 787,632 789,630 791,624 793,618 795,608 797,610 800,608 802,606 804,600 806,598 808,592 810,586 813,576 815,574 817,568 819,562 821,552 823,546 825,536 828,526 830,512 832,522 834,528 836,534 838,536 841,542 843,544 845,546 847,544 849,550 851,552 853,554 856,552 858,554 860,552 862,550 864,544 866,550 869,552 871,554 873,552 875,554 877,552 879,550 882,544 884,546 886,544 888,542 890,536 892,534 894,528 897,522 899,512 901,518 903,520 905,522 907,520 910,522 912,520 914,518 916,512 918,514 920,512 922,510 925,504 927,502 929,496 931,490 933,480 935,482 938,480 940,478 942,472 944,470 946,464 948,458 950,448 953,446 955,440 957,434 959,424 961,418 963,408 966,398 968,384 970,390 972,392 974,394 976,392 978,394 981,392 983,390 985,384 987,386 989,384 991,382 994,376 996,374 998,368 1000,362 1002,352 1004,354 1007,352 1009,350 1011,344 1013,342 1015,336 1017,330 1019,320 1022,318 1024,312 1026,306 1028,296 1030,290 1032,280 1035,270 1037,256 1039,258 1041,256 1043,254 1045,248 1047,246 1050,240 1052,234 1054,224 1056,222 1058,216 1060,210 1063,200 1065,194 1067,184 1069,174 1071,160 1073,158 1075,152 1078,146 1080,136 1082,130 1084,120 1086,110 1088,96 1091,90 1093,80 1095,70 1097,56 1099,46 1101,32 1103,18 1106,0" />
</g>
</svg>