<svg xmlns="http://www.w3.org/2000/svg" width="100.0" height="100.0" viewBox="-5.000 -5.000 110.000 110.000">
<g fill="none" stroke="black" stroke-width="0.0050%" transform="translate(0, 100.0000) scale(100.0000, -100.0000)">
<circle cx="0.000" cy="0.000" r="0.005" />
<circle cx="0.000" cy="1.000" r="0.005" />
<polyline points="0.000,0.000 0.010,0.000 0.020,0.001 0.030,0.002 0.040,0.004 0.050,0.006 0.060,0.009 0.070,0.012 0.080,0.016 0.090,0.020 0.100,0.024 0.110,0.029 0.120,0.035 0.130,0.041 0.140,0.047 0.150,0.054 0.160,0.061 0.170,0.069 0.180,0.077 0.190,0.086 0.200,0.095 0.210,0.104 0.220,0.114 0.230,0.124 0.240,0.135 0.250,0.146 0.260,0.157 0.270,0.168 0.280,0.180 0.290,0.192 0.300,0.205 0.310,0.218 0.320,0.231 0.330,0.244 0.340,0.258 0.350,0.272 0.360,0.286 0.370,0.300 0.380,0.315 0.390,0.330 0.400,0.345 0.410,0.360 0.420,0.375 0.430,0.390 0.440,0.406 0.450,0.421 0.460,0.437 0.470,0.453 0.480,0.468 0.490,0.484 0.500,0.500 0.510,0.516 0.520,0.532 0.530,0.547 0.540,0.563 0.550,0.579 0.560,0.595 0.570,0.610 0.580,0.625 0.590,0.641 0.600,0.656 0.610,0.671 0.620,0.686 0.630,0.700 0.640,0.715 0.650,0.729 0.660,0.743 0.670,0.757 0.680,0.770 0.690,0.784 0.700,0.797 0.710,0.809 0.720,0.822 0.730,0.833 0.740,0.845 0.750,0.856 0.760,0.867 0.770,0.878 0.780,0.888 0.790,0.898 0.800,0.907 0.810,0.916 0.820,0.925 0.830,0.933 0.840,0.941 0.850,0.948 0.860,0.954 0.870,0.961 0.880,0.967 0.890,0.972 0.900,0.977 0.910,0.981 0.920,0.985 0.930,0.989 0.940,0.992 0.950,0.994 0.960,0.996 0.970,0.998 0.980,0.999 0.990,1.000 1.000,1.000" />
<polyline points="0.000,0.000 0.010,0.000 0.020,0.001 0.030,0.002 0.040,0.004 0.050,0.006 0.060,0.009 0.070,0.012 0.080,0.016 0.090,0.020 0.100,0.024 0.110,0.030 0.120,0.035 0.130,0.041 0.140,0.048 0.150,0.054 0.160,0.062 0.170,0.070 0.180,0.078 0.190,0.086 0.200,0.095 0.210,0.105 0.220,0.115 0.230,0.125 0.240,0.136 0.250,0.146 0.260,0.158 0.270,0.169 0.280,0.181 0.290,0.194 0.300,0.206 0.310,0.219 0.320,0.232 0.330,0.245 0.340,0.259 0.350,0.273 0.360,0.287 0.370,0.301 0.380,0.316 0.390,0.331 0.400,0.345 0.410,0.361 0.420,0.376 0.430,0.391 0.440,0.406 0.450,0.422 0.460,0.437 0.470,0.453 0.480,0.469 0.490,0.484 0.500,0.500 0.510,0.516 0.520,0.531 0.530,0.547 0.540,0.563 0.550,0.578 0.560,0.594 0.570,0.609 0.580,0.624 0.590,0.639 0.600,0.655 0.610,0.669 0.620,0.684 0.630,0.699 0.640,0.713 0.650,0.727 0.660,0.741 0.670,0.755 0.680,0.768 0.690,0.781 0.700,0.794 0.710,0.806 0.720,0.819 0.730,0.831 0.740,0.842 0.750,0.854 0.760,0.864 0.770,0.875 0.780,0.885 0.790,0.895 0.800,0.905 0.810,0.914 0.820,0.922 0.830,0.930 0.840,0.938 0.850,0.946 0.860,0.952 0.870,0.959 0.880,0.965 0.890,0.970 0.900,0.976 0.910,0.980 0.920,0.984 0.930,0.988 0.940,0.991 0.950,0.994 0.960,0.996 0.970,0.998 0.980,0.999 0.990,1.000 1.000,1.000" />
</g>
</svg>