<svg xmlns="http://www.w3.org/2000/svg" width="112.6" height="100.0" viewBox="-61.322 -9.000 122.645 110.000">
<g fill="none" stroke="black" stroke-width="0.0156%" transform="translate(0, 92.0002) scale(32.0000, -32.0000)">
<polyline points="1.000,0.000 1.123,0.071 1.241,0.157 1.350,0.258 1.450,0.372 1.539,0.500 1.614,0.639 1.675,0.788 1.721,0.946 1.749,1.110 1.760,1.279 1.753,1.450 1.727,1.622 1.683,1.792 1.620,1.958 1.539,2.118 1.441,2.270 1.326,2.412 1.196,2.542 1.053,2.659 0.897,2.760 0.730,2.845 0.556,2.912 0.374,2.961 0.188,2.990 -0.000,3.000 -0.188,2.990 -0.374,2.961 -0.556,2.912 -0.730,2.845 -0.897,2.760 -1.053,2.659 -1.196,2.542 -1.326,2.412 -1.441,2.270 -1.539,2.118 -1.620,1.958 -1.683,1.792 -1.727,1.622 -1.753,1.450 -1.760,1.279 -1.749,1.110 -1.721,0.946 -1.675,0.788 -1.614,0.639 -1.539,0.500 -1.450,0.372 -1.350,0.258 -1.241,0.157 -1.123,0.071 -1.000,-0.000 -0.873,-0.055 -0.743,-0.094 -0.614,-0.117 -0.487,-0.125 -0.363,-0.118 -0.245,-0.097 -0.134,-0.063 -0.032,-0.018 0.060,0.038 0.142,0.103 0.212,0.175 0.269,0.253 0.313,0.334 0.345,0.417 0.363,0.500 0.369,0.581 0.363,0.660 0.345,0.733 0.316,0.799 0.279,0.858 0.233,0.908 0.181,0.947 0.123,0.976 0.063,0.994 0.000,1.000 -0.063,0.994 -0.123,0.976 -0.181,0.947 -0.233,0.908 -0.279,0.858 -0.316,0.799 -0.345,0.733 -0.363,0.660 -0.369,0.581 -0.363,0.500 -0.345,0.417 -0.313,0.334 -0.269,0.253 -0.212,0.175 -0.142,0.103 -0.060,0.038 0.032,-0.018 0.134,-0.063 0.245,-0.097 0.363,-0.118 0.487,-0.125 0.614,-0.117 0.743,-0.094 0.873,-0.055" />
</g>
</svg>