<svg xmlns="http://www.w3.org/2000/svg" width="100.0" height="100.0" viewBox="-55.00 -55.00 110.00 110.00">
<g fill="none" stroke="black" stroke-width="0.0279%" transform="translate(0, -0.0000) scale(17.9372, -17.9372)">
<circle cx="-2.79" cy="0.00" r="0.03" />
<circle cx="0.00" cy="2.79" r="0.03" />
<polyline points="1.00,0.00 1.23,0.23 1.39,0.55 1.47,0.93 1.43,1.34 1.28,1.76 1.01,2.14 0.63,2.46 0.17,2.68 -0.35,2.79 -0.90,2.76 -1.43,2.60 -1.91,2.31 -2.31,1.91 -2.60,1.43 -2.76,0.90 -2.79,0.35 -2.68,-0.17 -2.46,-0.63 -2.14,-1.01 -1.76,-1.28 -1.34,-1.43 -0.93,-1.47 -0.55,-1.39 -0.23,-1.23 -0.00,-1.00 0.14,-0.74 0.19,-0.47 0.14,-0.22 0.02,-0.03 -0.14,0.10 -0.33,0.16 -0.52,0.13 -0.69,0.04 -0.80,-0.10 -0.86,-0.28 -0.85,-0.46 -0.77,-0.63 -0.63,-0.77 -0.46,-0.85 -0.28,-0.86 -0.10,-0.80 0.04,-0.69 0.13,-0.52 0.16,-0.33 0.10,-0.14 -0.03,0.02 -0.22,0.14 -0.47,0.19 -0.74,0.14 -1.00,0.00 -1.23,-0.23 -1.39,-0.55 -1.47,-0.93 -1.43,-1.34 -1.28,-1.76 -1.01,-2.14 -0.63,-2.46 -0.17,-2.68 0.35,-2.79 0.90,-2.76 1.43,-2.60 1.91,-2.31 2.31,-1.91 2.60,-1.43 2.76,-0.90 2.79,-0.35 2.68,0.17 2.46,0.63 2.14,1.01 1.76,1.28 1.34,1.43 0.93,1.47 0.55,1.39 0.23,1.23 -0.00,1.00 -0.14,0.74 -0.19,0.47 -0.14,0.22 -0.02,0.03 0.14,-0.10 0.33,-0.16 0.52,-0.13 0.69,-0.04 0.80,0.10 0.86,0.28 0.85,0.46 0.77,0.63 0.63,0.77 0.46,0.85 0.28,0.86 0.10,0.80 -0.04,0.69 -0.13,0.52 -0.16,0.33 -0.10,0.14 0.03,-0.02 0.22,-0.14 0.47,-0.19 0.74,-0.14 1.00,-0.00" />
</g>
</svg>