<svg xmlns="http://www.w3.org/2000/svg" width="114.3" height="100.0" viewBox="-62.139 -71.814 124.278 110.000">
<g fill="none" stroke="black" stroke-width="0.0037%" transform="translate(0, -33.6287) scale(133.6287, -133.6287)">
<polyline points="-0.040,0.002 -0.036,0.004 -0.020,0.000 -0.020,0.020 -0.020,0.020 -0.033,0.027 -0.040,0.038 -0.041,0.039 -0.041,0.040 -0.052,0.048 -0.060,0.057 -0.061,0.059 -0.062,0.060 -0.072,0.068 -0.080,0.075 -0.082,0.078 -0.084,0.080 -0.093,0.087 -0.100,0.093 -0.103,0.097 -0.106,0.100 -0.114,0.106 -0.120,0.111 -0.125,0.115 -0.129,0.120 -0.136,0.124 -0.140,0.128 -0.147,0.133 -0.154,0.140 -0.157,0.143 -0.160,0.144 -0.169,0.151 -0.179,0.160 -0.180,0.160 -0.180,0.161 -0.182,0.162 -0.192,0.168 -0.200,0.175 -0.203,0.177 -0.206,0.180 -0.215,0.185 -0.220,0.189 -0.227,0.193 -0.235,0.200 -0.238,0.202 -0.240,0.203 -0.246,0.206 -0.251,0.209 -0.260,0.215 -0.263,0.217 -0.269,0.220 -0.276,0.224 -0.280,0.226 -0.290,0.230 -0.290,0.230 -0.300,0.235 -0.304,0.236 -0.311,0.240 -0.318,0.242 -0.320,0.243 -0.324,0.244 -0.334,0.246 -0.340,0.248 -0.348,0.248 -0.352,0.248 -0.360,0.248 -0.366,0.246 -0.379,0.240 -0.380,0.240 -0.380,0.239 -0.384,0.224 -0.384,0.220 -0.383,0.217 -0.380,0.200 -0.380,0.200 -0.380,0.200 -0.380,0.199 -0.373,0.187 -0.370,0.180 -0.366,0.174 -0.360,0.164 -0.358,0.162 -0.357,0.160 -0.349,0.151 -0.344,0.144 -0.341,0.140 -0.341,0.139 -0.340,0.139 -0.330,0.130 -0.321,0.120 -0.321,0.119 -0.320,0.119 -0.315,0.115 -0.309,0.111 -0.300,0.102 -0.299,0.101 -0.297,0.100 -0.287,0.093 -0.280,0.087 -0.275,0.085 -0.269,0.080 -0.263,0.077 -0.260,0.074 -0.251,0.069 -0.245,0.065 -0.240,0.062 -0.239,0.061 -0.236,0.060 -0.225,0.055 -0.220,0.052 -0.212,0.048 -0.204,0.044 -0.200,0.042 -0.198,0.042 -0.195,0.040 -0.184,0.036 -0.180,0.034 -0.171,0.031 -0.169,0.031 -0.160,0.027 -0.154,0.026 -0.140,0.020 -0.140,0.020 -0.140,0.020 -0.124,0.016 -0.120,0.015 -0.113,0.013 -0.107,0.013 -0.100,0.010 -0.091,0.009 -0.088,0.008 -0.080,0.007 -0.073,0.007 -0.064,0.004 -0.060,0.004 -0.055,0.005 -0.042,0.002 -0.040,0.002" />
<polyline points="0.120,0.015 0.124,0.016 0.140,0.020 0.140,0.020 0.140,0.020 0.154,0.026 0.160,0.027 0.169,0.031 0.171,0.031 0.180,0.034 0.184,0.036 0.195,0.040 0.198,0.042 0.200,0.042 0.204,0.044 0.212,0.048 0.220,0.052 0.225,0.055 0.236,0.060 0.239,0.061 0.240,0.062 0.245,0.065 0.251,0.069 0.260,0.074 0.263,0.077 0.269,0.080 0.275,0.085 0.280,0.087 0.287,0.093 0.297,0.100 0.299,0.101 0.300,0.102 0.309,0.111 0.315,0.115 0.320,0.119 0.321,0.119 0.321,0.120 0.330,0.130 0.340,0.139 0.341,0.139 0.341,0.140 0.344,0.144 0.349,0.151 0.357,0.160 0.358,0.162 0.360,0.164 0.366,0.174 0.370,0.180 0.373,0.187 0.380,0.199 0.380,0.200 0.380,0.200 0.380,0.200 0.383,0.217 0.384,0.220 0.384,0.224 0.380,0.239 0.380,0.240 0.379,0.240 0.366,0.246 0.360,0.248 0.352,0.248 0.348,0.248 0.340,0.248 0.334,0.246 0.324,0.244 0.320,0.243 0.318,0.242 0.311,0.240 0.304,0.236 0.300,0.235 0.290,0.230 0.290,0.230 0.280,0.226 0.276,0.224 0.269,0.220 0.263,0.217 0.260,0.215 0.251,0.209 0.246,0.206 0.240,0.203 0.238,0.202 0.235,0.200 0.227,0.193 0.220,0.189 0.215,0.185 0.206,0.180 0.203,0.177 0.200,0.175 0.192,0.168 0.182,0.162 0.180,0.161 0.180,0.160 0.179,0.160 0.169,0.151 0.160,0.144 0.157,0.143 0.154,0.140 0.147,0.133 0.140,0.128 0.136,0.124 0.129,0.120 0.125,0.115 0.120,0.111 0.114,0.106 0.106,0.100 0.103,0.097 0.100,0.093 0.093,0.087 0.084,0.080 0.082,0.078 0.080,0.075 0.072,0.068 0.062,0.060 0.061,0.059 0.060,0.057 0.052,0.048 0.041,0.040 0.041,0.039 0.040,0.038 0.033,0.027 0.020,0.020 0.020,0.020 0.020,0.000 0.036,0.004 0.040,0.002 0.042,0.002 0.055,0.005 0.060,0.004 0.064,0.004 0.073,0.007 0.080,0.007 0.088,0.008 0.091,0.009 0.100,0.010 0.107,0.013 0.113,0.013 0.120,0.015" />
<line x1="-0.140" y1="0.020" x2="-0.140" y2="0.020" />
<line x1="0.140" y1="0.020" x2="0.140" y2="0.020" />
<polyline points="-0.428,-0.500 -0.424,-0.496 -0.420,-0.490 -0.416,-0.484 -0.412,-0.480 -0.407,-0.473 -0.400,-0.464 -0.398,-0.462 -0.397,-0.460 -0.390,-0.450 -0.386,-0.446 -0.381,-0.440 -0.381,-0.439 -0.380,-0.438 -0.372,-0.428 -0.366,-0.420 -0.363,-0.417 -0.360,-0.412 -0.354,-0.406 -0.350,-0.400 -0.346,-0.394 -0.340,-0.387 -0.337,-0.383 -0.334,-0.380 -0.328,-0.372 -0.320,-0.362 -0.319,-0.361 -0.318,-0.360 -0.310,-0.350 -0.310,-0.350 -0.302,-0.340 -0.301,-0.339 -0.300,-0.337 -0.292,-0.328 -0.285,-0.320 -0.283,-0.317 -0.280,-0.313 -0.274,-0.306 -0.269,-0.300 -0.265,-0.295 -0.260,-0.288 -0.256,-0.284 -0.252,-0.280 -0.247,-0.273 -0.240,-0.264 -0.238,-0.262 -0.236,-0.260 -0.229,-0.251 -0.220,-0.241 -0.220,-0.240 -0.219,-0.240 -0.214,-0.234 -0.210,-0.230 -0.202,-0.220 -0.201,-0.219 -0.200,-0.217 -0.192,-0.208 -0.185,-0.200 -0.183,-0.197 -0.180,-0.194 -0.173,-0.187 -0.167,-0.180 -0.164,-0.176 -0.160,-0.171 -0.155,-0.165 -0.149,-0.160 -0.145,-0.155 -0.140,-0.148 -0.136,-0.144 -0.132,-0.140 -0.127,-0.133 -0.120,-0.126 -0.117,-0.123 -0.113,-0.120 -0.108,-0.112 -0.100,-0.104 -0.098,-0.102 -0.095,-0.100 -0.089,-0.091 -0.080,-0.082 -0.079,-0.081 -0.077,-0.080 -0.069,-0.071 -0.060,-0.061 -0.059,-0.061 -0.058,-0.060 -0.051,-0.051 -0.050,-0.050 -0.045,-0.045 -0.040,-0.040 -0.040,-0.040 -0.039,-0.040 -0.036,-0.036 -0.031,-0.029 -0.020,-0.020 -0.020,-0.020 -0.020,-0.020 -0.020,-0.020 -0.019,-0.019 -0.019,-0.001 0.000,0.000 0.000,0.000 0.019,-0.001 0.019,-0.019 0.020,-0.020 0.020,-0.020 0.020,-0.020 0.020,-0.020 0.031,-0.029 0.036,-0.036 0.039,-0.040 0.040,-0.040 0.040,-0.040 0.045,-0.045 0.050,-0.050 0.051,-0.051 0.058,-0.060 0.059,-0.061 0.060,-0.061 0.069,-0.071 0.077,-0.080 0.079,-0.081 0.080,-0.082 0.089,-0.091 0.095,-0.100 0.098,-0.102 0.100,-0.104 0.108,-0.112 0.113,-0.120 0.117,-0.123 0.120,-0.126 0.127,-0.133 0.132,-0.140 0.136,-0.144 0.140,-0.148 0.145,-0.155 0.149,-0.160 0.155,-0.165 0.160,-0.171 0.164,-0.176 0.167,-0.180 0.173,-0.187 0.180,-0.194 0.183,-0.197 0.185,-0.200 0.192,-0.208 0.200,-0.217 0.201,-0.219 0.202,-0.220 0.210,-0.230 0.214,-0.234 0.219,-0.240 0.220,-0.240 0.220,-0.241 0.229,-0.251 0.236,-0.260 0.238,-0.262 0.240,-0.264 0.247,-0.273 0.252,-0.280 0.256,-0.284 0.260,-0.288 0.265,-0.295 0.269,-0.300 0.274,-0.306 0.280,-0.313 0.283,-0.317 0.285,-0.320 0.292,-0.328 0.300,-0.337 0.301,-0.339 0.302,-0.340 0.310,-0.350 0.310,-0.350 0.318,-0.360 0.319,-0.361 0.320,-0.362 0.328,-0.372 0.334,-0.380 0.337,-0.383 0.340,-0.387 0.346,-0.394 0.350,-0.400 0.354,-0.406 0.360,-0.412 0.363,-0.417 0.366,-0.420 0.372,-0.428 0.380,-0.438 0.381,-0.439 0.381,-0.440 0.386,-0.446 0.390,-0.450 0.397,-0.460 0.398,-0.462 0.400,-0.464 0.407,-0.473 0.412,-0.480 0.416,-0.484 0.420,-0.490 0.424,-0.496 0.428,-0.500" />
<line x1="0.000" y1="0.000" x2="0.000" y2="0.000" />
</g>
</svg>