<svg xmlns="http://www.w3.org/2000/svg" width="161.8" height="100.0" viewBox="-5.000 -62.501 171.803 110.000">
<g fill="none" stroke="black" stroke-width="0.0064%" transform="translate(0, -15.0013) scale(77.8114, -77.8114)">
<polyline points="0.000,0.000 0.021,0.292 0.042,0.390 0.062,0.159 0.083,0.053 0.104,0.066 0.125,0.143 0.146,-0.002 0.166,-0.012 0.187,0.136 0.208,0.031 0.229,0.007 0.250,-0.049 0.270,-0.048 0.291,-0.213 0.312,-0.361 0.333,-0.359 0.354,-0.395 0.374,-0.494 0.395,-0.569 0.416,-0.658 0.437,-0.651 0.457,-0.661 0.478,-0.739 0.499,-0.599 0.520,-0.649 0.541,-0.710 0.561,-0.683 0.582,-0.619 0.603,-0.608 0.624,-0.556 0.645,-0.455 0.665,-0.459 0.686,-0.475 0.707,-0.535 0.728,-0.490 0.749,-0.530 0.769,-0.510 0.790,-0.518 0.811,-0.528 0.832,-0.462 0.853,-0.362 0.873,-0.367 0.894,-0.436 0.915,-0.169 0.936,-0.336 0.957,-0.368 0.977,-0.377 0.998,-0.258 1.019,-0.144 1.040,-0.018 1.061,-0.076 1.081,0.031 1.102,-0.025 1.123,0.015 1.144,0.111 1.164,0.047 1.185,0.019 1.206,-0.039 1.227,0.001 1.248,0.060 1.268,0.037 1.289,0.056 1.310,0.089 1.331,0.096 1.352,0.140 1.372,0.324 1.393,0.270 1.414,0.306 1.435,0.397 1.456,0.416 1.476,0.494 1.497,0.448 1.518,0.273 1.539,0.216 1.560,0.248 1.580,0.453 1.601,0.352 1.622,0.381 1.643,0.546 1.664,0.417 1.684,0.352 1.705,0.360 1.726,0.350 1.747,0.265 1.768,0.160 1.788,0.305 1.809,0.304 1.830,0.365 1.851,0.253 1.871,0.368 1.892,0.381 1.913,0.234 1.934,0.205 1.955,0.007 1.975,-0.064 1.996,-0.046 2.017,0.069 2.038,0.040 2.059,-0.066 2.079,0.000" />
</g>
</svg>