<svg xmlns="http://www.w3.org/2000/svg" width="161.8" height="100.0" viewBox="-5.000 -46.328 171.803 110.000">
<g fill="none" stroke="black" stroke-width="0.0121%" transform="translate(0, 17.3440) scale(41.3280, -41.3280)">
<circle cx="0.000" cy="0.000" r="0.012" />
<circle cx="0.000" cy="1.420" r="0.012" />
<polyline points="0.000,-1.000 0.039,-0.615 0.078,-0.631 0.117,-0.568 0.157,-0.295 0.196,-0.300 0.235,-0.157 0.274,-0.192 0.313,0.005 0.352,-0.000 0.392,-0.064 0.431,0.053 0.470,-0.201 0.509,-0.253 0.548,-0.158 0.587,-0.130 0.626,-0.124 0.666,-0.322 0.705,-0.226 0.744,-0.302 0.783,-0.219 0.822,-0.312 0.861,-0.196 0.900,-0.163 0.940,-0.275 0.979,-0.306 1.018,-0.299 1.057,-0.161 1.096,-0.070 1.135,-0.107 1.175,-0.147 1.214,-0.275 1.253,0.054 1.292,0.421 1.331,0.222 1.370,0.389 1.409,0.381 1.449,0.446 1.488,0.542 1.527,0.663 1.566,0.547 1.605,0.473 1.644,0.508 1.683,0.568 1.723,0.603 1.762,0.853 1.801,0.990 1.840,1.040 1.879,1.006 1.918,0.842 1.958,0.982 1.997,1.017 2.036,0.898 2.075,0.877 2.114,0.837 2.153,0.697 2.192,0.668 2.232,0.779 2.271,0.913 2.310,0.994 2.349,0.816 2.388,0.878 2.427,0.988 2.467,0.928 2.506,1.015 2.545,0.854 2.584,0.893 2.623,0.865 2.662,0.769 2.701,0.955 2.741,0.660 2.780,0.645 2.819,0.492 2.858,0.431 2.897,0.394 2.936,0.540 2.975,0.633 3.015,1.000 3.054,1.014 3.093,0.901 3.132,0.828 3.171,1.035 3.210,1.114 3.250,0.968 3.289,1.083 3.328,1.113 3.367,1.420 3.406,1.237 3.445,1.197 3.484,1.047 3.524,1.024 3.563,0.960 3.602,1.050 3.641,1.064 3.680,1.057 3.719,0.880 3.758,0.931 3.798,1.111 3.837,1.036 3.876,1.150 3.915,1.000" />
<polyline points="0.000,-1.000 0.039,-0.742 0.078,-0.856 0.117,-0.863 0.157,-0.815 0.196,-0.863 0.235,-0.823 0.274,-0.487 0.313,-0.360 0.352,-0.189 0.392,-0.122 0.431,-0.138 0.470,0.075 0.509,0.110 0.548,0.120 0.587,-0.024 0.626,-0.398 0.666,-0.269 0.705,-0.121 0.744,-0.245 0.783,-0.316 0.822,-0.370 0.861,-0.323 0.900,-0.299 0.940,-0.484 0.979,-0.586 1.018,-0.761 1.057,-0.683 1.096,-0.564 1.135,-0.407 1.175,-0.389 1.214,-0.234 1.253,-0.111 1.292,-0.205 1.331,-0.230 1.370,-0.306 1.409,-0.293 1.449,-0.165 1.488,-0.269 1.527,-0.385 1.566,-0.368 1.605,-0.552 1.644,-0.756 1.683,-0.671 1.723,-0.384 1.762,-0.241 1.801,-0.310 1.840,-0.242 1.879,-0.393 1.918,-0.215 1.958,-0.161 1.997,0.119 2.036,0.217 2.075,0.205 2.114,0.204 2.153,0.321 2.192,0.359 2.232,0.366 2.271,0.537 2.310,0.658 2.349,0.649 2.388,0.824 2.427,0.881 2.467,0.693 2.506,0.614 2.545,0.620 2.584,0.521 2.623,0.367 2.662,0.360 2.701,0.284 2.741,0.562 2.780,0.712 2.819,0.620 2.858,0.534 2.897,0.463 2.936,0.470 2.975,0.499 3.015,0.548 3.054,0.486 3.093,0.528 3.132,0.405 3.171,0.494 3.210,0.648 3.250,0.822 3.289,0.760 3.328,0.843 3.367,0.648 3.406,0.868 3.445,0.845 3.484,1.064 3.524,0.907 3.563,1.256 3.602,1.266 3.641,1.028 3.680,0.955 3.719,0.861 3.758,1.188 3.798,1.242 3.837,1.350 3.876,1.140 3.915,1.000" />
<polyline points="0.000,-1.000 0.039,-0.965 0.078,-0.979 0.117,-0.870 0.157,-0.489 0.196,-0.473 0.235,-0.420 0.274,-0.304 0.313,-0.395 0.352,-0.252 0.392,-0.299 0.431,-0.260 0.470,-0.445 0.509,-0.428 0.548,-0.349 0.587,-0.152 0.626,-0.184 0.666,-0.166 0.705,0.058 0.744,0.306 0.783,0.432 0.822,0.559 0.861,0.631 0.900,0.553 0.940,0.533 0.979,0.394 1.018,0.396 1.057,0.227 1.096,0.394 1.135,0.438 1.175,0.454 1.214,0.483 1.253,0.445 1.292,0.397 1.331,0.212 1.370,0.255 1.409,0.398 1.449,0.514 1.488,0.293 1.527,0.131 1.566,0.223 1.605,0.223 1.644,0.374 1.683,0.547 1.723,0.687 1.762,0.661 1.801,0.554 1.840,0.593 1.879,0.675 1.918,0.621 1.958,0.721 1.997,0.628 2.036,0.257 2.075,0.182 2.114,0.123 2.153,0.202 2.192,0.529 2.232,0.573 2.271,0.703 2.310,0.902 2.349,0.895 2.388,0.777 2.427,0.863 2.467,0.774 2.506,0.590 2.545,0.535 2.584,0.636 2.623,0.598 2.662,0.408 2.701,0.371 2.741,0.409 2.780,0.351 2.819,0.508 2.858,0.482 2.897,0.750 2.936,0.724 2.975,0.751 3.015,0.838 3.054,1.012 3.093,1.229 3.132,1.212 3.171,1.080 3.210,1.201 3.250,1.158 3.289,1.195 3.328,1.011 3.367,1.148 3.406,1.287 3.445,1.216 3.484,0.976 3.524,0.721 3.563,0.757 3.602,0.711 3.641,0.490 3.680,0.343 3.719,0.618 3.758,0.785 3.798,0.818 3.837,0.769 3.876,0.797 3.915,1.000" />
</g>
</svg>