<svg xmlns="http://www.w3.org/2000/svg" width="161.8" height="100.0" viewBox="-5.00 -54.54 171.80 110.00">
<g fill="none" stroke="black" stroke-width="0.0169%" transform="translate(0, 0.9217) scale(29.5614, -29.5614)">
<circle cx="0.00" cy="0.00" r="0.02" />
<circle cx="0.00" cy="1.71" r="0.02" />
<polyline points="0.00,-1.00 0.03,-0.73 0.05,-0.75 0.08,-0.70 0.11,-0.51 0.14,-0.52 0.16,-0.42 0.19,-0.45 0.22,-0.31 0.25,-0.31 0.27,-0.36 0.30,-0.28 0.33,-0.46 0.36,-0.50 0.38,-0.43 0.41,-0.41 0.44,-0.41 0.47,-0.55 0.49,-0.49 0.52,-0.54 0.55,-0.49 0.57,-0.56 0.60,-0.48 0.63,-0.46 0.66,-0.54 0.68,-0.56 0.71,-0.56 0.74,-0.47 0.77,-0.41 0.79,-0.43 0.82,-0.47 0.85,-0.56 0.88,-0.33 0.90,-0.07 0.93,-0.21 0.96,-0.10 0.99,-0.10 1.01,-0.06 1.04,0.01 1.07,0.10 1.09,0.02 1.12,-0.03 1.15,-0.01 1.18,0.03 1.20,0.06 1.23,0.24 1.26,0.34 1.29,0.38 1.31,0.36 1.34,0.25 1.37,0.35 1.40,0.38 1.42,0.30 1.45,0.29 1.48,0.26 1.51,0.16 1.53,0.14 1.56,0.22 1.59,0.32 1.61,0.38 1.64,0.26 1.67,0.30 1.70,0.39 1.72,0.35 1.75,0.41 1.78,0.30 1.81,0.33 1.83,0.32 1.86,0.25 1.89,0.38 1.92,0.18 1.94,0.17 1.97,0.05 2.00,0.01 2.03,-0.03 2.05,0.07 2.08,0.13 2.11,0.38 2.13,0.40 2.16,0.32 2.19,0.27 2.22,0.42 2.24,0.48 2.27,0.39 2.30,0.47 2.33,0.50 2.35,0.73 2.38,0.62 2.41,0.61 2.44,0.52 2.46,0.51 2.49,0.47 2.52,0.54 2.55,0.56 2.57,0.56 2.60,0.45 2.63,0.47 2.65,0.59 2.68,0.57 2.71,0.67 2.74,0.85 2.76,1.02 2.79,0.93 2.82,0.91 2.85,0.93 2.87,0.88 2.90,0.90 2.93,1.12 2.96,1.20 2.98,1.31 3.01,1.34 3.04,1.32 3.07,1.46 3.09,1.47 3.12,1.46 3.15,1.35 3.17,1.07 3.20,1.15 3.23,1.24 3.26,1.14 3.28,1.08 3.31,1.03 3.34,1.05 3.37,1.06 3.39,0.91 3.42,0.83 3.45,0.69 3.48,0.73 3.50,0.80 3.53,0.90 3.56,0.90 3.59,1.00 3.61,1.07 3.64,0.99 3.67,0.97 3.69,0.90 3.72,0.89 3.75,0.97 3.78,0.89 3.80,0.79 3.83,0.79 3.86,0.65 3.89,0.49 3.91,0.54 3.94,0.73 3.97,0.82 4.00,0.76 4.02,0.79 4.05,0.67 4.08,0.79 4.11,0.81 4.13,1.00 4.16,1.05 4.19,1.03 4.21,1.02 4.24,1.09 4.27,1.10 4.30,1.10 4.32,1.20 4.35,1.28 4.38,1.26 4.41,1.37 4.43,1.40 4.46,1.25 4.49,1.18 4.52,1.17 4.54,1.09 4.57,0.97 4.60,0.95 4.63,0.89 4.65,1.07 4.68,1.16 4.71,1.09 4.73,1.01 4.76,0.95 4.79,0.94 4.82,0.95 4.84,0.97 4.87,0.91 4.90,0.93 4.93,0.83 4.95,0.88 4.98,0.98 5.01,1.09 5.04,1.03 5.06,1.08 5.09,0.93 5.12,1.07 5.15,1.04 5.17,1.18 5.20,1.06 5.23,1.29 5.25,1.29 5.28,1.11 5.31,1.04 5.34,0.97 5.36,1.18 5.39,1.21 5.42,1.27 5.45,1.11 5.47,1.00" />
<polyline points="0.00,-1.00 0.03,-0.98 0.05,-0.99 0.08,-0.92 0.11,-0.66 0.14,-0.65 0.16,-0.61 0.19,-0.53 0.22,-0.60 0.25,-0.50 0.27,-0.53 0.30,-0.51 0.33,-0.64 0.36,-0.63 0.38,-0.58 0.41,-0.44 0.44,-0.47 0.47,-0.46 0.49,-0.30 0.52,-0.13 0.55,-0.04 0.57,0.05 0.60,0.11 0.63,0.05 0.66,0.04 0.68,-0.06 0.71,-0.06 0.74,-0.17 0.77,-0.06 0.79,-0.03 0.82,-0.01 0.85,0.01 0.88,-0.02 0.90,-0.05 0.93,-0.18 0.96,-0.16 0.99,-0.06 1.01,0.03 1.04,-0.13 1.07,-0.24 1.09,-0.18 1.12,-0.18 1.15,-0.08 1.18,0.04 1.20,0.14 1.23,0.13 1.26,0.05 1.29,0.08 1.31,0.14 1.34,0.10 1.37,0.17 1.40,0.11 1.42,-0.15 1.45,-0.21 1.48,-0.26 1.51,-0.21 1.53,0.02 1.56,0.05 1.59,0.14 1.61,0.29 1.64,0.28 1.67,0.20 1.70,0.27 1.72,0.21 1.75,0.08 1.78,0.04 1.81,0.11 1.83,0.08 1.86,-0.06 1.89,-0.09 1.92,-0.07 1.94,-0.11 1.97,-0.01 2.00,-0.03 2.03,0.15 2.05,0.13 2.08,0.15 2.11,0.21 2.13,0.34 2.16,0.50 2.19,0.50 2.22,0.41 2.24,0.51 2.27,0.49 2.30,0.53 2.33,0.41 2.35,0.51 2.38,0.62 2.41,0.59 2.44,0.44 2.46,0.26 2.49,0.27 2.52,0.23 2.55,0.05 2.57,-0.09 2.60,0.03 2.63,0.11 2.65,0.10 2.68,0.03 2.71,-0.02 2.74,-0.18 2.76,-0.24 2.79,-0.46 2.82,-0.51 2.85,-0.42 2.87,-0.46 2.90,-0.32 2.93,-0.34 2.96,-0.50 2.98,-0.47 3.01,-0.33 3.04,-0.45 3.07,-0.44 3.09,-0.57 3.12,-0.41 3.15,-0.47 3.17,-0.33 3.20,-0.30 3.23,-0.31 3.26,-0.19 3.28,-0.23 3.31,-0.23 3.34,-0.28 3.37,-0.09 3.39,-0.18 3.42,-0.17 3.45,-0.19 3.48,-0.30 3.50,-0.41 3.53,-0.45 3.56,-0.35 3.59,-0.36 3.61,-0.37 3.64,-0.25 3.67,-0.16 3.69,-0.01 3.72,-0.12 3.75,-0.17 3.78,-0.15 3.80,-0.12 3.83,-0.25 3.86,-0.28 3.89,-0.30 3.91,-0.38 3.94,-0.37 3.97,-0.33 4.00,-0.42 4.02,-0.21 4.05,-0.14 4.08,-0.05 4.11,-0.23 4.13,-0.27 4.16,-0.06 4.19,-0.15 4.21,-0.09 4.24,-0.10 4.27,-0.03 4.30,-0.09 4.32,-0.14 4.35,-0.27 4.38,-0.37 4.41,-0.34 4.43,-0.31 4.46,-0.13 4.49,0.00 4.52,0.16 4.54,0.16 4.57,0.23 4.60,0.32 4.63,0.40 4.65,0.36 4.68,0.41 4.71,0.49 4.73,0.54 4.76,0.46 4.79,0.55 4.82,0.52 4.84,0.61 4.87,0.63 4.90,0.62 4.93,0.62 4.95,0.69 4.98,0.75 5.01,0.79 5.04,0.79 5.06,0.80 5.09,0.72 5.12,0.71 5.15,0.71 5.17,0.83 5.20,0.79 5.23,1.08 5.25,1.07 5.28,1.15 5.31,1.09 5.34,1.07 5.36,0.88 5.39,0.86 5.42,0.75 5.45,0.93 5.47,1.00" />
<polyline points="0.00,-1.00 0.03,-1.07 0.05,-1.05 0.08,-0.99 0.11,-1.02 0.14,-1.06 0.16,-0.96 0.19,-0.97 0.22,-0.93 0.25,-0.89 0.27,-0.88 0.30,-1.04 0.33,-1.03 0.36,-0.85 0.38,-0.78 0.41,-0.79 0.44,-0.72 0.47,-0.79 0.49,-0.69 0.52,-0.70 0.55,-0.77 0.57,-0.89 0.60,-0.77 0.63,-0.94 0.66,-1.06 0.68,-1.05 0.71,-1.14 0.74,-1.19 0.77,-1.38 0.79,-1.33 0.82,-1.34 0.85,-1.45 0.88,-1.41 0.90,-1.32 0.93,-1.36 0.96,-1.50 0.99,-1.60 1.01,-1.53 1.04,-1.57 1.07,-1.58 1.09,-1.56 1.12,-1.50 1.15,-1.64 1.18,-1.62 1.20,-1.53 1.23,-1.52 1.26,-1.55 1.29,-1.64 1.31,-1.68 1.34,-1.66 1.37,-1.52 1.40,-1.49 1.42,-1.43 1.45,-1.41 1.48,-1.38 1.51,-1.15 1.53,-1.14 1.56,-1.12 1.59,-1.18 1.61,-1.18 1.64,-1.14 1.67,-1.16 1.70,-1.16 1.72,-1.13 1.75,-1.03 1.78,-1.00 1.81,-1.03 1.83,-0.97 1.86,-0.77 1.89,-0.79 1.92,-0.62 1.94,-0.50 1.97,-0.44 2.00,-0.22 2.03,-0.09 2.05,-0.24 2.08,-0.21 2.11,-0.08 2.13,-0.13 2.16,-0.17 2.19,-0.08 2.22,-0.11 2.24,-0.35 2.27,-0.33 2.30,-0.44 2.33,-0.48 2.35,-0.63 2.38,-0.62 2.41,-0.62 2.44,-0.49 2.46,-0.25 2.49,-0.01 2.52,0.12 2.55,0.25 2.57,0.34 2.60,0.38 2.63,0.16 2.65,0.11 2.68,0.24 2.71,0.21 2.74,0.19 2.76,0.22 2.79,0.31 2.82,0.37 2.85,0.29 2.87,0.22 2.90,0.20 2.93,0.18 2.96,0.13 2.98,0.39 3.01,0.29 3.04,0.33 3.07,0.51 3.09,0.52 3.12,0.57 3.15,0.51 3.17,0.54 3.20,0.69 3.23,0.51 3.26,0.49 3.28,0.67 3.31,0.87 3.34,0.95 3.37,1.06 3.39,1.09 3.42,1.05 3.45,1.03 3.48,1.12 3.50,1.02 3.53,1.03 3.56,1.02 3.59,1.07 3.61,1.21 3.64,1.34 3.67,1.39 3.69,1.40 3.72,1.23 3.75,1.35 3.78,1.35 3.80,1.34 3.83,1.30 3.86,1.17 3.89,1.05 3.91,1.06 3.94,1.11 3.97,1.24 4.00,1.35 4.02,1.41 4.05,1.42 4.08,1.71 4.11,1.61 4.13,1.47 4.16,1.47 4.19,1.46 4.21,1.47 4.24,1.49 4.27,1.41 4.30,1.41 4.32,1.48 4.35,1.46 4.38,1.44 4.41,1.23 4.43,1.13 4.46,0.97 4.49,1.01 4.52,1.07 4.54,1.06 4.57,1.01 4.60,0.93 4.63,0.79 4.65,0.89 4.68,0.88 4.71,0.91 4.73,0.93 4.76,0.93 4.79,0.78 4.82,0.84 4.84,0.83 4.87,1.06 4.90,1.20 4.93,1.15 4.95,1.25 4.98,1.30 5.01,1.26 5.04,1.27 5.06,1.36 5.09,1.35 5.12,1.17 5.15,1.34 5.17,1.30 5.20,1.28 5.23,1.40 5.25,1.37 5.28,1.44 5.31,1.29 5.34,1.27 5.36,1.16 5.39,1.21 5.42,1.03 5.45,0.91 5.47,1.00" />
</g>
</svg>