<svg xmlns="http://www.w3.org/2000/svg" width="161.8" height="100.0" viewBox="-0.241 49.162 171.803 110.000">
<g fill="none" stroke="black" stroke-width="0.0049%" transform="translate(0, 208.3241) scale(101.5539, -101.5539)">
<circle cx="0.047" cy="0.533" r="0.005" />
<circle cx="0.094" cy="0.876" r="0.005" />
<circle cx="0.141" cy="1.044" r="0.005" />
<circle cx="0.187" cy="1.155" r="0.005" />
<circle cx="0.234" cy="1.222" r="0.005" />
<circle cx="0.281" cy="1.270" r="0.005" />
<circle cx="0.328" cy="1.303" r="0.005" />
<circle cx="0.375" cy="1.331" r="0.005" />
<circle cx="0.422" cy="1.351" r="0.005" />
<circle cx="0.469" cy="1.369" r="0.005" />
<circle cx="0.515" cy="1.384" r="0.005" />
<circle cx="0.562" cy="1.397" r="0.005" />
<circle cx="0.609" cy="1.408" r="0.005" />
<circle cx="0.656" cy="1.418" r="0.005" />
<circle cx="0.703" cy="1.429" r="0.005" />
<circle cx="0.750" cy="1.437" r="0.005" />
<circle cx="0.797" cy="1.446" r="0.005" />
<circle cx="0.843" cy="1.453" r="0.005" />
<circle cx="0.890" cy="1.460" r="0.005" />
<circle cx="0.937" cy="1.467" r="0.005" />
<circle cx="0.984" cy="1.472" r="0.005" />
<circle cx="1.031" cy="1.477" r="0.005" />
<circle cx="1.078" cy="1.482" r="0.005" />
<circle cx="1.125" cy="1.486" r="0.005" />
<circle cx="1.172" cy="1.490" r="0.005" />
<circle cx="1.218" cy="1.493" r="0.005" />
<circle cx="1.265" cy="1.497" r="0.005" />
<circle cx="1.312" cy="1.500" r="0.005" />
<circle cx="1.359" cy="1.503" r="0.005" />
<circle cx="1.406" cy="1.506" r="0.005" />
<circle cx="1.453" cy="1.509" r="0.005" />
<circle cx="1.500" cy="1.511" r="0.005" />
<circle cx="1.546" cy="1.513" r="0.005" />
<circle cx="1.593" cy="1.516" r="0.005" />
<circle cx="1.640" cy="1.518" r="0.005" />
</g>
</svg>