<svg xmlns="http://www.w3.org/2000/svg" width="161.8" height="100.0" viewBox="-4.5 -55.0 171.8 110.0">
<g fill="none" stroke="black" stroke-width="0.5000%" transform="translate(0, 0.0000) scale(1.0000, -1.0000)">
<circle cx="0.5" cy="0.0" r="0.5" />
<circle cx="0.5" cy="42.0" r="0.5" />
<circle cx="1.1" cy="-48.0" r="0.5" />
<circle cx="1.6" cy="21.0" r="0.5" />
<circle cx="2.2" cy="21.0" r="0.5" />
<circle cx="2.7" cy="-48.0" r="0.5" />
<circle cx="3.3" cy="42.0" r="0.5" />
<circle cx="3.8" cy="-7.0" r="0.5" />
<circle cx="4.4" cy="-33.0" r="0.5" />
<circle cx="4.9" cy="50.0" r="0.5" />
<circle cx="5.4" cy="-32.0" r="0.5" />
<circle cx="6.0" cy="-8.0" r="0.5" />
<circle cx="6.5" cy="43.0" r="0.5" />
<circle cx="7.1" cy="-48.0" r="0.5" />
<circle cx="7.6" cy="0.0" r="0.5" />
<circle cx="8.2" cy="49.0" r="0.5" />
<circle cx="8.7" cy="-27.0" r="0.5" />
<circle cx="9.3" cy="-14.0" r="0.5" />
<circle cx="9.8" cy="46.0" r="0.5" />
<circle cx="10.4" cy="-45.0" r="0.5" />
<circle cx="10.9" cy="14.0" r="0.5" />
<circle cx="11.4" cy="28.0" r="0.5" />
<circle cx="12.0" cy="-50.0" r="0.5" />
<circle cx="12.5" cy="37.0" r="0.5" />
<circle cx="13.1" cy="1.0" r="0.5" />
<circle cx="13.6" cy="-38.0" r="0.5" />
<circle cx="14.2" cy="42.0" r="0.5" />
<circle cx="14.7" cy="33.0" r="0.5" />
<circle cx="15.3" cy="-38.0" r="0.5" />
<circle cx="15.8" cy="33.0" r="0.5" />
<circle cx="16.3" cy="7.0" r="0.5" />
<circle cx="16.9" cy="-42.0" r="0.5" />
<circle cx="17.4" cy="48.0" r="0.5" />
<circle cx="18.0" cy="-20.0" r="0.5" />
<circle cx="18.5" cy="-21.0" r="0.5" />
<circle cx="19.1" cy="48.0" r="0.5" />
<circle cx="19.6" cy="-42.0" r="0.5" />
<circle cx="20.2" cy="6.0" r="0.5" />
<circle cx="20.7" cy="-50.0" r="0.5" />
<circle cx="21.2" cy="33.0" r="0.5" />
<circle cx="21.8" cy="-27.0" r="0.5" />
<circle cx="22.3" cy="33.0" r="0.5" />
<circle cx="22.9" cy="7.0" r="0.5" />
<circle cx="23.4" cy="-42.0" r="0.5" />
<circle cx="24.0" cy="48.0" r="0.5" />
<circle cx="24.5" cy="-20.0" r="0.5" />
<circle cx="25.1" cy="-21.0" r="0.5" />
<circle cx="25.6" cy="48.0" r="0.5" />
<circle cx="26.2" cy="-42.0" r="0.5" />
<circle cx="26.7" cy="6.0" r="0.5" />
<circle cx="27.2" cy="-49.0" r="0.5" />
<circle cx="27.8" cy="49.0" r="0.5" />
<circle cx="28.3" cy="-27.0" r="0.5" />
<circle cx="28.9" cy="-14.0" r="0.5" />
<circle cx="29.4" cy="46.0" r="0.5" />
<circle cx="30.0" cy="-42.0" r="0.5" />
<circle cx="30.5" cy="14.0" r="0.5" />
<circle cx="31.1" cy="28.0" r="0.5" />
<circle cx="31.6" cy="-48.0" r="0.5" />
<circle cx="32.1" cy="37.0" r="0.5" />
<circle cx="32.7" cy="1.0" r="0.5" />
<circle cx="33.2" cy="-38.0" r="0.5" />
<circle cx="33.8" cy="42.0" r="0.5" />
<circle cx="34.3" cy="7.0" r="0.5" />
<circle cx="34.9" cy="50.0" r="0.5" />
<circle cx="35.4" cy="-27.0" r="0.5" />
<circle cx="36.0" cy="0.0" r="0.5" />
<circle cx="36.5" cy="38.0" r="0.5" />
<circle cx="37.0" cy="-42.0" r="0.5" />
<circle cx="37.6" cy="26.0" r="0.5" />
<circle cx="38.1" cy="15.0" r="0.5" />
<circle cx="38.7" cy="-46.0" r="0.5" />
<circle cx="39.2" cy="45.0" r="0.5" />
<circle cx="39.8" cy="-13.0" r="0.5" />
<circle cx="40.3" cy="33.0" r="0.5" />
<circle cx="40.9" cy="21.0" r="0.5" />
<circle cx="41.4" cy="-14.0" r="0.5" />
<circle cx="41.9" cy="42.0" r="0.5" />
<circle cx="42.5" cy="-7.0" r="0.5" />
<circle cx="43.0" cy="-33.0" r="0.5" />
<circle cx="43.6" cy="50.0" r="0.5" />
<circle cx="44.1" cy="-32.0" r="0.5" />
<circle cx="44.7" cy="-8.0" r="0.5" />
<circle cx="45.2" cy="43.0" r="0.5" />
<circle cx="45.8" cy="-46.0" r="0.5" />
<circle cx="46.3" cy="42.0" r="0.5" />
<circle cx="46.9" cy="21.0" r="0.5" />
<circle cx="47.4" cy="-14.0" r="0.5" />
<circle cx="47.9" cy="42.0" r="0.5" />
<circle cx="48.5" cy="-7.0" r="0.5" />
<circle cx="49.0" cy="-33.0" r="0.5" />
<circle cx="49.6" cy="50.0" r="0.5" />
<circle cx="50.1" cy="-32.0" r="0.5" />
<circle cx="50.7" cy="-8.0" r="0.5" />
<circle cx="51.2" cy="43.0" r="0.5" />
<circle cx="51.8" cy="-45.0" r="0.5" />
<circle cx="52.3" cy="42.0" r="0.5" />
<circle cx="52.8" cy="50.0" r="0.5" />
<circle cx="53.4" cy="-14.0" r="0.5" />
<circle cx="53.9" cy="0.0" r="0.5" />
<circle cx="54.5" cy="38.0" r="0.5" />
<circle cx="55.0" cy="-33.0" r="0.5" />
<circle cx="55.6" cy="26.0" r="0.5" />
<circle cx="56.1" cy="15.0" r="0.5" />
<circle cx="56.7" cy="-38.0" r="0.5" />
<circle cx="57.2" cy="45.0" r="0.5" />
<circle cx="57.7" cy="-13.0" r="0.5" />
<circle cx="58.3" cy="33.0" r="0.5" />
<circle cx="58.8" cy="21.0" r="0.5" />
<circle cx="59.4" cy="46.0" r="0.5" />
<circle cx="59.9" cy="-14.0" r="0.5" />
<circle cx="60.5" cy="14.0" r="0.5" />
<circle cx="61.0" cy="28.0" r="0.5" />
<circle cx="61.6" cy="-33.0" r="0.5" />
<circle cx="62.1" cy="37.0" r="0.5" />
<circle cx="62.7" cy="1.0" r="0.5" />
<circle cx="63.2" cy="-38.0" r="0.5" />
<circle cx="63.7" cy="45.0" r="0.5" />
<circle cx="64.3" cy="33.0" r="0.5" />
<circle cx="64.8" cy="7.0" r="0.5" />
<circle cx="65.4" cy="0.0" r="0.5" />
<circle cx="65.9" cy="48.0" r="0.5" />
<circle cx="66.5" cy="-20.0" r="0.5" />
<circle cx="67.0" cy="-21.0" r="0.5" />
<circle cx="67.6" cy="48.0" r="0.5" />
<circle cx="68.1" cy="-38.0" r="0.5" />
<circle cx="68.6" cy="6.0" r="0.5" />
<circle cx="69.2" cy="-42.0" r="0.5" />
<circle cx="69.7" cy="33.0" r="0.5" />
<circle cx="70.3" cy="7.0" r="0.5" />
<circle cx="70.8" cy="0.0" r="0.5" />
<circle cx="71.4" cy="48.0" r="0.5" />
<circle cx="71.9" cy="-20.0" r="0.5" />
<circle cx="72.5" cy="-21.0" r="0.5" />
<circle cx="73.0" cy="48.0" r="0.5" />
<circle cx="73.5" cy="-33.0" r="0.5" />
<circle cx="74.1" cy="6.0" r="0.5" />
<circle cx="74.6" cy="-38.0" r="0.5" />
<circle cx="75.2" cy="33.0" r="0.5" />
<circle cx="75.7" cy="46.0" r="0.5" />
<circle cx="76.3" cy="0.0" r="0.5" />
<circle cx="76.8" cy="14.0" r="0.5" />
<circle cx="77.4" cy="28.0" r="0.5" />
<circle cx="77.9" cy="-21.0" r="0.5" />
<circle cx="78.5" cy="37.0" r="0.5" />
<circle cx="79.0" cy="1.0" r="0.5" />
<circle cx="79.5" cy="-33.0" r="0.5" />
<circle cx="80.1" cy="50.0" r="0.5" />
<circle cx="80.6" cy="33.0" r="0.5" />
<circle cx="81.2" cy="21.0" r="0.5" />
<circle cx="81.7" cy="38.0" r="0.5" />
<circle cx="82.3" cy="-7.0" r="0.5" />
<circle cx="82.8" cy="26.0" r="0.5" />
<circle cx="83.4" cy="15.0" r="0.5" />
<circle cx="83.9" cy="-27.0" r="0.5" />
<circle cx="84.4" cy="45.0" r="0.5" />
<circle cx="85.0" cy="-13.0" r="0.5" />
<circle cx="85.5" cy="42.0" r="0.5" />
<circle cx="86.1" cy="42.0" r="0.5" />
<circle cx="86.6" cy="7.0" r="0.5" />
<circle cx="87.2" cy="0.0" r="0.5" />
<circle cx="87.7" cy="50.0" r="0.5" />
<circle cx="88.3" cy="-20.0" r="0.5" />
<circle cx="88.8" cy="-8.0" r="0.5" />
<circle cx="89.3" cy="43.0" r="0.5" />
<circle cx="89.9" cy="-32.0" r="0.5" />
<circle cx="90.4" cy="45.0" r="0.5" />
<circle cx="91.0" cy="42.0" r="0.5" />
<circle cx="91.5" cy="7.0" r="0.5" />
<circle cx="92.1" cy="7.0" r="0.5" />
<circle cx="92.6" cy="50.0" r="0.5" />
<circle cx="93.2" cy="-14.0" r="0.5" />
<circle cx="93.7" cy="-8.0" r="0.5" />
<circle cx="94.2" cy="43.0" r="0.5" />
<circle cx="94.8" cy="-27.0" r="0.5" />
<circle cx="95.3" cy="45.0" r="0.5" />
<circle cx="95.9" cy="33.0" r="0.5" />
<circle cx="96.4" cy="38.0" r="0.5" />
<circle cx="97.0" cy="7.0" r="0.5" />
<circle cx="97.5" cy="26.0" r="0.5" />
<circle cx="98.1" cy="15.0" r="0.5" />
<circle cx="98.6" cy="-14.0" r="0.5" />
<circle cx="99.2" cy="45.0" r="0.5" />
<circle cx="99.7" cy="-13.0" r="0.5" />
<circle cx="100.2" cy="46.0" r="0.5" />
<circle cx="100.8" cy="33.0" r="0.5" />
<circle cx="101.3" cy="21.0" r="0.5" />
<circle cx="101.9" cy="28.0" r="0.5" />
<circle cx="102.4" cy="0.0" r="0.5" />
<circle cx="103.0" cy="37.0" r="0.5" />
<circle cx="103.5" cy="1.0" r="0.5" />
<circle cx="104.1" cy="-20.0" r="0.5" />
<circle cx="104.6" cy="49.0" r="0.5" />
<circle cx="105.1" cy="42.0" r="0.5" />
<circle cx="105.7" cy="48.0" r="0.5" />
<circle cx="106.2" cy="7.0" r="0.5" />
<circle cx="106.8" cy="7.0" r="0.5" />
<circle cx="107.3" cy="48.0" r="0.5" />
<circle cx="107.9" cy="-14.0" r="0.5" />
<circle cx="108.4" cy="6.0" r="0.5" />
<circle cx="109.0" cy="-21.0" r="0.5" />
<circle cx="109.5" cy="42.0" r="0.5" />
<circle cx="110.0" cy="48.0" r="0.5" />
<circle cx="110.6" cy="14.0" r="0.5" />
<circle cx="111.1" cy="7.0" r="0.5" />
<circle cx="111.7" cy="48.0" r="0.5" />
<circle cx="112.2" cy="-8.0" r="0.5" />
<circle cx="112.8" cy="6.0" r="0.5" />
<circle cx="113.3" cy="-20.0" r="0.5" />
<circle cx="113.9" cy="42.0" r="0.5" />
<circle cx="114.4" cy="33.0" r="0.5" />
<circle cx="115.0" cy="28.0" r="0.5" />
<circle cx="115.5" cy="7.0" r="0.5" />
<circle cx="116.0" cy="37.0" r="0.5" />
<circle cx="116.6" cy="1.0" r="0.5" />
<circle cx="117.1" cy="-8.0" r="0.5" />
<circle cx="117.7" cy="49.0" r="0.5" />
<circle cx="118.2" cy="42.0" r="0.5" />
<circle cx="118.8" cy="33.0" r="0.5" />
<circle cx="119.3" cy="26.0" r="0.5" />
<circle cx="119.9" cy="15.0" r="0.5" />
<circle cx="120.4" cy="0.0" r="0.5" />
<circle cx="120.9" cy="45.0" r="0.5" />
<circle cx="121.5" cy="-13.0" r="0.5" />
<circle cx="122.0" cy="45.0" r="0.5" />
<circle cx="122.6" cy="38.0" r="0.5" />
<circle cx="123.1" cy="50.0" r="0.5" />
<circle cx="123.7" cy="14.0" r="0.5" />
<circle cx="124.2" cy="7.0" r="0.5" />
<circle cx="124.8" cy="43.0" r="0.5" />
<circle cx="125.3" cy="49.0" r="0.5" />
<circle cx="125.8" cy="42.0" r="0.5" />
<circle cx="126.4" cy="33.0" r="0.5" />
<circle cx="126.9" cy="21.0" r="0.5" />
<circle cx="127.5" cy="37.0" r="0.5" />
<circle cx="128.0" cy="1.0" r="0.5" />
<circle cx="128.6" cy="0.0" r="0.5" />
<circle cx="129.1" cy="45.0" r="0.5" />
<circle cx="129.7" cy="33.0" r="0.5" />
<circle cx="130.2" cy="26.0" r="0.5" />
<circle cx="130.8" cy="37.0" r="0.5" />
<circle cx="131.3" cy="7.0" r="0.5" />
<circle cx="131.8" cy="1.0" r="0.5" />
<circle cx="132.4" cy="45.0" r="0.5" />
<circle cx="132.9" cy="50.0" r="0.5" />
<circle cx="133.5" cy="26.0" r="0.5" />
<circle cx="134.0" cy="21.0" r="0.5" />
<circle cx="134.6" cy="43.0" r="0.5" />
<circle cx="135.1" cy="48.0" r="0.5" />
<circle cx="135.7" cy="42.0" r="0.5" />
<circle cx="136.2" cy="33.0" r="0.5" />
<circle cx="136.7" cy="37.0" r="0.5" />
<circle cx="137.3" cy="14.0" r="0.5" />
<circle cx="137.8" cy="49.0" r="0.5" />
<circle cx="138.4" cy="42.0" r="0.5" />
<circle cx="138.9" cy="33.0" r="0.5" />
<circle cx="139.5" cy="37.0" r="0.5" />
<circle cx="140.0" cy="15.0" r="0.5" />
<circle cx="140.6" cy="49.0" r="0.5" />
<circle cx="141.1" cy="50.0" r="0.5" />
<circle cx="141.6" cy="33.0" r="0.5" />
<circle cx="142.2" cy="28.0" r="0.5" />
<circle cx="142.7" cy="43.0" r="0.5" />
<circle cx="143.3" cy="48.0" r="0.5" />
<circle cx="143.8" cy="42.0" r="0.5" />
<circle cx="144.4" cy="48.0" r="0.5" />
<circle cx="144.9" cy="26.0" r="0.5" />
<circle cx="145.5" cy="21.0" r="0.5" />
<circle cx="146.0" cy="46.0" r="0.5" />
<circle cx="146.5" cy="38.0" r="0.5" />
<circle cx="147.1" cy="33.0" r="0.5" />
<circle cx="147.6" cy="45.0" r="0.5" />
<circle cx="148.2" cy="48.0" r="0.5" />
<circle cx="148.7" cy="42.0" r="0.5" />
<circle cx="149.3" cy="33.0" r="0.5" />
<circle cx="149.8" cy="45.0" r="0.5" />
<circle cx="150.4" cy="48.0" r="0.5" />
<circle cx="150.9" cy="48.0" r="0.5" />
<circle cx="151.5" cy="33.0" r="0.5" />
<circle cx="152.0" cy="28.0" r="0.5" />
<circle cx="152.5" cy="46.0" r="0.5" />
<circle cx="153.1" cy="42.0" r="0.5" />
<circle cx="153.6" cy="43.0" r="0.5" />
<circle cx="154.2" cy="49.0" r="0.5" />
<circle cx="154.7" cy="45.0" r="0.5" />
<circle cx="155.3" cy="37.0" r="0.5" />
<circle cx="155.8" cy="50.0" r="0.5" />
<circle cx="156.4" cy="46.0" r="0.5" />
<circle cx="156.9" cy="38.0" r="0.5" />
<circle cx="157.4" cy="50.0" r="0.5" />
<circle cx="158.0" cy="46.0" r="0.5" />
<circle cx="158.5" cy="43.0" r="0.5" />
<circle cx="159.1" cy="49.0" r="0.5" />
<circle cx="159.6" cy="45.0" r="0.5" />
<circle cx="160.2" cy="42.0" r="0.5" />
<circle cx="160.7" cy="48.0" r="0.5" />
<circle cx="161.3" cy="45.0" r="0.5" />
<circle cx="161.8" cy="48.0" r="0.5" />
<circle cx="162.3" cy="45.0" r="0.5" />
</g>
</svg>