<svg xmlns="http://www.w3.org/2000/svg" width="161.8" height="100.0" viewBox="-4.3 -55.0 171.8 110.0">
<g fill="none" stroke="black" stroke-width="0.5000%" transform="translate(0, 0.0000) scale(1.0000, -1.0000)">
<circle cx="0.7" cy="0.0" r="0.5" />
<circle cx="0.7" cy="42.0" r="0.5" />
<circle cx="1.4" cy="45.0" r="0.5" />
<circle cx="2.1" cy="7.0" r="0.5" />
<circle cx="2.9" cy="-38.0" r="0.5" />
<circle cx="3.6" cy="-48.0" r="0.5" />
<circle cx="4.3" cy="-14.0" r="0.5" />
<circle cx="5.0" cy="33.0" r="0.5" />
<circle cx="5.7" cy="49.0" r="0.5" />
<circle cx="6.4" cy="21.0" r="0.5" />
<circle cx="7.2" cy="-27.0" r="0.5" />
<circle cx="7.9" cy="-50.0" r="0.5" />
<circle cx="8.6" cy="-27.0" r="0.5" />
<circle cx="9.3" cy="21.0" r="0.5" />
<circle cx="10.0" cy="50.0" r="0.5" />
<circle cx="10.7" cy="33.0" r="0.5" />
<circle cx="11.5" cy="-14.0" r="0.5" />
<circle cx="12.2" cy="-48.0" r="0.5" />
<circle cx="12.9" cy="-38.0" r="0.5" />
<circle cx="13.6" cy="7.0" r="0.5" />
<circle cx="14.3" cy="46.0" r="0.5" />
<circle cx="15.0" cy="45.0" r="0.5" />
<circle cx="15.8" cy="7.0" r="0.5" />
<circle cx="16.5" cy="0.0" r="0.5" />
<circle cx="17.2" cy="-38.0" r="0.5" />
<circle cx="17.9" cy="-14.0" r="0.5" />
<circle cx="18.6" cy="33.0" r="0.5" />
<circle cx="19.3" cy="49.0" r="0.5" />
<circle cx="20.0" cy="21.0" r="0.5" />
<circle cx="20.8" cy="-27.0" r="0.5" />
<circle cx="21.5" cy="-48.0" r="0.5" />
<circle cx="22.2" cy="-27.0" r="0.5" />
<circle cx="22.9" cy="21.0" r="0.5" />
<circle cx="23.6" cy="50.0" r="0.5" />
<circle cx="24.3" cy="33.0" r="0.5" />
<circle cx="25.1" cy="-14.0" r="0.5" />
<circle cx="25.8" cy="-48.0" r="0.5" />
<circle cx="26.5" cy="-38.0" r="0.5" />
<circle cx="27.2" cy="7.0" r="0.5" />
<circle cx="27.9" cy="46.0" r="0.5" />
<circle cx="28.6" cy="-50.0" r="0.5" />
<circle cx="29.4" cy="42.0" r="0.5" />
<circle cx="30.1" cy="7.0" r="0.5" />
<circle cx="30.8" cy="0.0" r="0.5" />
<circle cx="31.5" cy="-14.0" r="0.5" />
<circle cx="32.2" cy="33.0" r="0.5" />
<circle cx="32.9" cy="49.0" r="0.5" />
<circle cx="33.6" cy="21.0" r="0.5" />
<circle cx="34.4" cy="-27.0" r="0.5" />
<circle cx="35.1" cy="-38.0" r="0.5" />
<circle cx="35.8" cy="-27.0" r="0.5" />
<circle cx="36.5" cy="21.0" r="0.5" />
<circle cx="37.2" cy="50.0" r="0.5" />
<circle cx="37.9" cy="33.0" r="0.5" />
<circle cx="38.7" cy="-14.0" r="0.5" />
<circle cx="39.4" cy="-48.0" r="0.5" />
<circle cx="40.1" cy="-38.0" r="0.5" />
<circle cx="40.8" cy="7.0" r="0.5" />
<circle cx="41.5" cy="46.0" r="0.5" />
<circle cx="42.2" cy="-48.0" r="0.5" />
<circle cx="43.0" cy="42.0" r="0.5" />
<circle cx="43.7" cy="7.0" r="0.5" />
<circle cx="44.4" cy="0.0" r="0.5" />
<circle cx="45.1" cy="33.0" r="0.5" />
<circle cx="45.8" cy="49.0" r="0.5" />
<circle cx="46.5" cy="21.0" r="0.5" />
<circle cx="47.3" cy="-14.0" r="0.5" />
<circle cx="48.0" cy="-27.0" r="0.5" />
<circle cx="48.7" cy="-27.0" r="0.5" />
<circle cx="49.4" cy="21.0" r="0.5" />
<circle cx="50.1" cy="50.0" r="0.5" />
<circle cx="50.8" cy="33.0" r="0.5" />
<circle cx="51.5" cy="-14.0" r="0.5" />
<circle cx="52.3" cy="-38.0" r="0.5" />
<circle cx="53.0" cy="-38.0" r="0.5" />
<circle cx="53.7" cy="7.0" r="0.5" />
<circle cx="54.4" cy="46.0" r="0.5" />
<circle cx="55.1" cy="-48.0" r="0.5" />
<circle cx="55.8" cy="42.0" r="0.5" />
<circle cx="56.6" cy="7.0" r="0.5" />
<circle cx="57.3" cy="33.0" r="0.5" />
<circle cx="58.0" cy="49.0" r="0.5" />
<circle cx="58.7" cy="21.0" r="0.5" />
<circle cx="59.4" cy="0.0" r="0.5" />
<circle cx="60.1" cy="-14.0" r="0.5" />
<circle cx="60.9" cy="-27.0" r="0.5" />
<circle cx="61.6" cy="21.0" r="0.5" />
<circle cx="62.3" cy="50.0" r="0.5" />
<circle cx="63.0" cy="33.0" r="0.5" />
<circle cx="63.7" cy="-14.0" r="0.5" />
<circle cx="64.4" cy="-27.0" r="0.5" />
<circle cx="65.2" cy="-38.0" r="0.5" />
<circle cx="65.9" cy="7.0" r="0.5" />
<circle cx="66.6" cy="46.0" r="0.5" />
<circle cx="67.3" cy="-38.0" r="0.5" />
<circle cx="68.0" cy="42.0" r="0.5" />
<circle cx="68.7" cy="33.0" r="0.5" />
<circle cx="69.4" cy="49.0" r="0.5" />
<circle cx="70.2" cy="21.0" r="0.5" />
<circle cx="70.9" cy="7.0" r="0.5" />
<circle cx="71.6" cy="0.0" r="0.5" />
<circle cx="72.3" cy="-14.0" r="0.5" />
<circle cx="73.0" cy="21.0" r="0.5" />
<circle cx="73.7" cy="50.0" r="0.5" />
<circle cx="74.5" cy="33.0" r="0.5" />
<circle cx="75.2" cy="-14.0" r="0.5" />
<circle cx="75.9" cy="-27.0" r="0.5" />
<circle cx="76.6" cy="-27.0" r="0.5" />
<circle cx="77.3" cy="7.0" r="0.5" />
<circle cx="78.0" cy="46.0" r="0.5" />
<circle cx="78.8" cy="-38.0" r="0.5" />
<circle cx="79.5" cy="42.0" r="0.5" />
<circle cx="80.2" cy="49.0" r="0.5" />
<circle cx="80.9" cy="33.0" r="0.5" />
<circle cx="81.6" cy="21.0" r="0.5" />
<circle cx="82.3" cy="7.0" r="0.5" />
<circle cx="83.0" cy="0.0" r="0.5" />
<circle cx="83.8" cy="21.0" r="0.5" />
<circle cx="84.5" cy="50.0" r="0.5" />
<circle cx="85.2" cy="33.0" r="0.5" />
<circle cx="85.9" cy="-14.0" r="0.5" />
<circle cx="86.6" cy="-14.0" r="0.5" />
<circle cx="87.3" cy="-27.0" r="0.5" />
<circle cx="88.1" cy="7.0" r="0.5" />
<circle cx="88.8" cy="46.0" r="0.5" />
<circle cx="89.5" cy="-27.0" r="0.5" />
<circle cx="90.2" cy="49.0" r="0.5" />
<circle cx="90.9" cy="42.0" r="0.5" />
<circle cx="91.6" cy="33.0" r="0.5" />
<circle cx="92.4" cy="21.0" r="0.5" />
<circle cx="93.1" cy="7.0" r="0.5" />
<circle cx="93.8" cy="21.0" r="0.5" />
<circle cx="94.5" cy="50.0" r="0.5" />
<circle cx="95.2" cy="33.0" r="0.5" />
<circle cx="95.9" cy="0.0" r="0.5" />
<circle cx="96.7" cy="-14.0" r="0.5" />
<circle cx="97.4" cy="-14.0" r="0.5" />
<circle cx="98.1" cy="7.0" r="0.5" />
<circle cx="98.8" cy="46.0" r="0.5" />
<circle cx="99.5" cy="-27.0" r="0.5" />
<circle cx="100.2" cy="45.0" r="0.5" />
<circle cx="100.9" cy="42.0" r="0.5" />
<circle cx="101.7" cy="33.0" r="0.5" />
<circle cx="102.4" cy="21.0" r="0.5" />
<circle cx="103.1" cy="21.0" r="0.5" />
<circle cx="103.8" cy="50.0" r="0.5" />
<circle cx="104.5" cy="33.0" r="0.5" />
<circle cx="105.2" cy="7.0" r="0.5" />
<circle cx="106.0" cy="0.0" r="0.5" />
<circle cx="106.7" cy="-14.0" r="0.5" />
<circle cx="107.4" cy="7.0" r="0.5" />
<circle cx="108.1" cy="46.0" r="0.5" />
<circle cx="108.8" cy="-14.0" r="0.5" />
<circle cx="109.5" cy="45.0" r="0.5" />
<circle cx="110.3" cy="42.0" r="0.5" />
<circle cx="111.0" cy="33.0" r="0.5" />
<circle cx="111.7" cy="21.0" r="0.5" />
<circle cx="112.4" cy="50.0" r="0.5" />
<circle cx="113.1" cy="33.0" r="0.5" />
<circle cx="113.8" cy="21.0" r="0.5" />
<circle cx="114.6" cy="7.0" r="0.5" />
<circle cx="115.3" cy="0.0" r="0.5" />
<circle cx="116.0" cy="7.0" r="0.5" />
<circle cx="116.7" cy="46.0" r="0.5" />
<circle cx="117.4" cy="-14.0" r="0.5" />
<circle cx="118.1" cy="45.0" r="0.5" />
<circle cx="118.8" cy="42.0" r="0.5" />
<circle cx="119.6" cy="33.0" r="0.5" />
<circle cx="120.3" cy="50.0" r="0.5" />
<circle cx="121.0" cy="33.0" r="0.5" />
<circle cx="121.7" cy="21.0" r="0.5" />
<circle cx="122.4" cy="21.0" r="0.5" />
<circle cx="123.1" cy="7.0" r="0.5" />
<circle cx="123.9" cy="7.0" r="0.5" />
<circle cx="124.6" cy="46.0" r="0.5" />
<circle cx="125.3" cy="0.0" r="0.5" />
<circle cx="126.0" cy="45.0" r="0.5" />
<circle cx="126.7" cy="42.0" r="0.5" />
<circle cx="127.4" cy="50.0" r="0.5" />
<circle cx="128.2" cy="33.0" r="0.5" />
<circle cx="128.9" cy="33.0" r="0.5" />
<circle cx="129.6" cy="21.0" r="0.5" />
<circle cx="130.3" cy="21.0" r="0.5" />
<circle cx="131.0" cy="7.0" r="0.5" />
<circle cx="131.7" cy="46.0" r="0.5" />
<circle cx="132.4" cy="7.0" r="0.5" />
<circle cx="133.2" cy="45.0" r="0.5" />
<circle cx="133.9" cy="50.0" r="0.5" />
<circle cx="134.6" cy="42.0" r="0.5" />
<circle cx="135.3" cy="33.0" r="0.5" />
<circle cx="136.0" cy="33.0" r="0.5" />
<circle cx="136.7" cy="21.0" r="0.5" />
<circle cx="137.5" cy="21.0" r="0.5" />
<circle cx="138.2" cy="46.0" r="0.5" />
<circle cx="138.9" cy="7.0" r="0.5" />
<circle cx="139.6" cy="50.0" r="0.5" />
<circle cx="140.3" cy="45.0" r="0.5" />
<circle cx="141.0" cy="42.0" r="0.5" />
<circle cx="141.8" cy="33.0" r="0.5" />
<circle cx="142.5" cy="33.0" r="0.5" />
<circle cx="143.2" cy="21.0" r="0.5" />
<circle cx="143.9" cy="46.0" r="0.5" />
<circle cx="144.6" cy="21.0" r="0.5" />
<circle cx="145.3" cy="49.0" r="0.5" />
<circle cx="146.1" cy="45.0" r="0.5" />
<circle cx="146.8" cy="42.0" r="0.5" />
<circle cx="147.5" cy="33.0" r="0.5" />
<circle cx="148.2" cy="33.0" r="0.5" />
<circle cx="148.9" cy="46.0" r="0.5" />
<circle cx="149.6" cy="21.0" r="0.5" />
<circle cx="150.3" cy="49.0" r="0.5" />
<circle cx="151.1" cy="45.0" r="0.5" />
<circle cx="151.8" cy="42.0" r="0.5" />
<circle cx="152.5" cy="33.0" r="0.5" />
<circle cx="153.2" cy="46.0" r="0.5" />
<circle cx="153.9" cy="33.0" r="0.5" />
<circle cx="154.6" cy="49.0" r="0.5" />
<circle cx="155.4" cy="45.0" r="0.5" />
<circle cx="156.1" cy="42.0" r="0.5" />
<circle cx="156.8" cy="46.0" r="0.5" />
<circle cx="157.5" cy="33.0" r="0.5" />
<circle cx="158.2" cy="49.0" r="0.5" />
<circle cx="158.9" cy="45.0" r="0.5" />
<circle cx="159.7" cy="46.0" r="0.5" />
<circle cx="160.4" cy="42.0" r="0.5" />
<circle cx="161.1" cy="49.0" r="0.5" />
<circle cx="161.8" cy="46.0" r="0.5" />
<circle cx="162.5" cy="45.0" r="0.5" />
</g>
</svg>