<svg xmlns="http://www.w3.org/2000/svg" width="162" height="72" viewBox="0 0 162 72">
<g stroke="none" transform="translate(0, 0) scale(1, 1)">
<rect x="0" y="0" width="9" height="9" fill="rgb(64,64,64)"/>
<rect x="0" y="9" width="9" height="9" fill="rgb(191,191,191)"/>
<rect x="0" y="18" width="9" height="9" fill="rgb(159,159,159)"/>
<rect x="0" y="27" width="9" height="9" fill="rgb(0,0,0)"/>
<rect x="0" y="36" width="9" height="9" fill="rgb(32,32,32)"/>
<rect x="0" y="45" width="9" height="9" fill="rgb(96,96,96)"/>
<rect x="0" y="54" width="9" height="9" fill="rgb(128,128,128)"/>
<rect x="0" y="63" width="9" height="9" fill="rgb(223,223,223)"/>
<rect x="9" y="0" width="9" height="9" fill="rgb(191,191,191)"/>
<rect x="9" y="9" width="9" height="9" fill="rgb(64,64,64)"/>
<rect x="9" y="18" width="9" height="9" fill="rgb(159,159,159)"/>
<rect x="9" y="27" width="9" height="9" fill="rgb(0,0,0)"/>
<rect x="9" y="36" width="9" height="9" fill="rgb(32,32,32)"/>
<rect x="9" y="45" width="9" height="9" fill="rgb(96,96,96)"/>
<rect x="9" y="54" width="9" height="9" fill="rgb(128,128,128)"/>
<rect x="9" y="63" width="9" height="9" fill="rgb(223,223,223)"/>
<rect x="18" y="0" width="9" height="9" fill="rgb(191,191,191)"/>
<rect x="18" y="9" width="9" height="9" fill="rgb(159,159,159)"/>
<rect x="18" y="18" width="9" height="9" fill="rgb(64,64,64)"/>
<rect x="18" y="27" width="9" height="9" fill="rgb(0,0,0)"/>
<rect x="18" y="36" width="9" height="9" fill="rgb(32,32,32)"/>
<rect x="18" y="45" width="9" height="9" fill="rgb(96,96,96)"/>
<rect x="18" y="54" width="9" height="9" fill="rgb(128,128,128)"/>
<rect x="18" y="63" width="9" height="9" fill="rgb(223,223,223)"/>
<rect x="27" y="0" width="9" height="9" fill="rgb(191,191,191)"/>
<rect x="27" y="9" width="9" height="9" fill="rgb(159,159,159)"/>
<rect x="27" y="18" width="9" height="9" fill="rgb(64,64,64)"/>
<rect x="27" y="27" width="9" height="9" fill="rgb(32,32,32)"/>
<rect x="27" y="36" width="9" height="9" fill="rgb(0,0,0)"/>
<rect x="27" y="45" width="9" height="9" fill="rgb(96,96,96)"/>
<rect x="27" y="54" width="9" height="9" fill="rgb(128,128,128)"/>
<rect x="27" y="63" width="9" height="9" fill="rgb(223,223,223)"/>
<rect x="36" y="0" width="9" height="9" fill="rgb(191,191,191)"/>
<rect x="36" y="9" width="9" height="9" fill="rgb(159,159,159)"/>
<rect x="36" y="18" width="9" height="9" fill="rgb(64,64,64)"/>
<rect x="36" y="27" width="9" height="9" fill="rgb(32,32,32)"/>
<rect x="36" y="36" width="9" height="9" fill="rgb(96,96,96)"/>
<rect x="36" y="45" width="9" height="9" fill="rgb(0,0,0)"/>
<rect x="36" y="54" width="9" height="9" fill="rgb(128,128,128)"/>
<rect x="36" y="63" width="9" height="9" fill="rgb(223,223,223)"/>
<rect x="45" y="0" width="9" height="9" fill="rgb(191,191,191)"/>
<rect x="45" y="9" width="9" height="9" fill="rgb(159,159,159)"/>
<rect x="45" y="18" width="9" height="9" fill="rgb(64,64,64)"/>
<rect x="45" y="27" width="9" height="9" fill="rgb(32,32,32)"/>
<rect x="45" y="36" width="9" height="9" fill="rgb(96,96,96)"/>
<rect x="45" y="45" width="9" height="9" fill="rgb(128,128,128)"/>
<rect x="45" y="54" width="9" height="9" fill="rgb(0,0,0)"/>
<rect x="45" y="63" width="9" height="9" fill="rgb(223,223,223)"/>
<rect x="54" y="0" width="9" height="9" fill="rgb(191,191,191)"/>
<rect x="54" y="9" width="9" height="9" fill="rgb(159,159,159)"/>
<rect x="54" y="18" width="9" height="9" fill="rgb(64,64,64)"/>
<rect x="54" y="27" width="9" height="9" fill="rgb(32,32,32)"/>
<rect x="54" y="36" width="9" height="9" fill="rgb(96,96,96)"/>
<rect x="54" y="45" width="9" height="9" fill="rgb(128,128,128)"/>
<rect x="54" y="54" width="9" height="9" fill="rgb(223,223,223)"/>
<rect x="54" y="63" width="9" height="9" fill="rgb(0,0,0)"/>
<rect x="63" y="0" width="9" height="9" fill="rgb(191,191,191)"/>
<rect x="63" y="9" width="9" height="9" fill="rgb(159,159,159)"/>
<rect x="63" y="18" width="9" height="9" fill="rgb(64,64,64)"/>
<rect x="63" y="27" width="9" height="9" fill="rgb(96,96,96)"/>
<rect x="63" y="36" width="9" height="9" fill="rgb(32,32,32)"/>
<rect x="63" y="45" width="9" height="9" fill="rgb(128,128,128)"/>
<rect x="63" y="54" width="9" height="9" fill="rgb(223,223,223)"/>
<rect x="63" y="63" width="9" height="9" fill="rgb(0,0,0)"/>
<rect x="72" y="0" width="9" height="9" fill="rgb(191,191,191)"/>
<rect x="72" y="9" width="9" height="9" fill="rgb(159,159,159)"/>
<rect x="72" y="18" width="9" height="9" fill="rgb(64,64,64)"/>
<rect x="72" y="27" width="9" height="9" fill="rgb(96,96,96)"/>
<rect x="72" y="36" width="9" height="9" fill="rgb(128,128,128)"/>
<rect x="72" y="45" width="9" height="9" fill="rgb(32,32,32)"/>
<rect x="72" y="54" width="9" height="9" fill="rgb(223,223,223)"/>
<rect x="72" y="63" width="9" height="9" fill="rgb(0,0,0)"/>
<rect x="81" y="0" width="9" height="9" fill="rgb(191,191,191)"/>
<rect x="81" y="9" width="9" height="9" fill="rgb(159,159,159)"/>
<rect x="81" y="18" width="9" height="9" fill="rgb(64,64,64)"/>
<rect x="81" y="27" width="9" height="9" fill="rgb(96,96,96)"/>
<rect x="81" y="36" width="9" height="9" fill="rgb(128,128,128)"/>
<rect x="81" y="45" width="9" height="9" fill="rgb(223,223,223)"/>
<rect x="81" y="54" width="9" height="9" fill="rgb(32,32,32)"/>
<rect x="81" y="63" width="9" height="9" fill="rgb(0,0,0)"/>
<rect x="90" y="0" width="9" height="9" fill="rgb(191,191,191)"/>
<rect x="90" y="9" width="9" height="9" fill="rgb(159,159,159)"/>
<rect x="90" y="18" width="9" height="9" fill="rgb(96,96,96)"/>
<rect x="90" y="27" width="9" height="9" fill="rgb(64,64,64)"/>
<rect x="90" y="36" width="9" height="9" fill="rgb(128,128,128)"/>
<rect x="90" y="45" width="9" height="9" fill="rgb(223,223,223)"/>
<rect x="90" y="54" width="9" height="9" fill="rgb(32,32,32)"/>
<rect x="90" y="63" width="9" height="9" fill="rgb(0,0,0)"/>
<rect x="99" y="0" width="9" height="9" fill="rgb(191,191,191)"/>
<rect x="99" y="9" width="9" height="9" fill="rgb(159,159,159)"/>
<rect x="99" y="18" width="9" height="9" fill="rgb(96,96,96)"/>
<rect x="99" y="27" width="9" height="9" fill="rgb(128,128,128)"/>
<rect x="99" y="36" width="9" height="9" fill="rgb(64,64,64)"/>
<rect x="99" y="45" width="9" height="9" fill="rgb(223,223,223)"/>
<rect x="99" y="54" width="9" height="9" fill="rgb(32,32,32)"/>
<rect x="99" y="63" width="9" height="9" fill="rgb(0,0,0)"/>
<rect x="108" y="0" width="9" height="9" fill="rgb(191,191,191)"/>
<rect x="108" y="9" width="9" height="9" fill="rgb(159,159,159)"/>
<rect x="108" y="18" width="9" height="9" fill="rgb(96,96,96)"/>
<rect x="108" y="27" width="9" height="9" fill="rgb(128,128,128)"/>
<rect x="108" y="36" width="9" height="9" fill="rgb(223,223,223)"/>
<rect x="108" y="45" width="9" height="9" fill="rgb(64,64,64)"/>
<rect x="108" y="54" width="9" height="9" fill="rgb(32,32,32)"/>
<rect x="108" y="63" width="9" height="9" fill="rgb(0,0,0)"/>
<rect x="117" y="0" width="9" height="9" fill="rgb(191,191,191)"/>
<rect x="117" y="9" width="9" height="9" fill="rgb(159,159,159)"/>
<rect x="117" y="18" width="9" height="9" fill="rgb(128,128,128)"/>
<rect x="117" y="27" width="9" height="9" fill="rgb(96,96,96)"/>
<rect x="117" y="36" width="9" height="9" fill="rgb(223,223,223)"/>
<rect x="117" y="45" width="9" height="9" fill="rgb(64,64,64)"/>
<rect x="117" y="54" width="9" height="9" fill="rgb(32,32,32)"/>
<rect x="117" y="63" width="9" height="9" fill="rgb(0,0,0)"/>
<rect x="126" y="0" width="9" height="9" fill="rgb(191,191,191)"/>
<rect x="126" y="9" width="9" height="9" fill="rgb(159,159,159)"/>
<rect x="126" y="18" width="9" height="9" fill="rgb(128,128,128)"/>
<rect x="126" y="27" width="9" height="9" fill="rgb(223,223,223)"/>
<rect x="126" y="36" width="9" height="9" fill="rgb(96,96,96)"/>
<rect x="126" y="45" width="9" height="9" fill="rgb(64,64,64)"/>
<rect x="126" y="54" width="9" height="9" fill="rgb(32,32,32)"/>
<rect x="126" y="63" width="9" height="9" fill="rgb(0,0,0)"/>
<rect x="135" y="0" width="9" height="9" fill="rgb(191,191,191)"/>
<rect x="135" y="9" width="9" height="9" fill="rgb(159,159,159)"/>
<rect x="135" y="18" width="9" height="9" fill="rgb(223,223,223)"/>
<rect x="135" y="27" width="9" height="9" fill="rgb(128,128,128)"/>
<rect x="135" y="36" width="9" height="9" fill="rgb(96,96,96)"/>
<rect x="135" y="45" width="9" height="9" fill="rgb(64,64,64)"/>
<rect x="135" y="54" width="9" height="9" fill="rgb(32,32,32)"/>
<rect x="135" y="63" width="9" height="9" fill="rgb(0,0,0)"/>
<rect x="144" y="0" width="9" height="9" fill="rgb(191,191,191)"/>
<rect x="144" y="9" width="9" height="9" fill="rgb(223,223,223)"/>
<rect x="144" y="18" width="9" height="9" fill="rgb(159,159,159)"/>
<rect x="144" y="27" width="9" height="9" fill="rgb(128,128,128)"/>
<rect x="144" y="36" width="9" height="9" fill="rgb(96,96,96)"/>
<rect x="144" y="45" width="9" height="9" fill="rgb(64,64,64)"/>
<rect x="144" y="54" width="9" height="9" fill="rgb(32,32,32)"/>
<rect x="144" y="63" width="9" height="9" fill="rgb(0,0,0)"/>
<rect x="153" y="0" width="9" height="9" fill="rgb(223,223,223)"/>
<rect x="153" y="9" width="9" height="9" fill="rgb(191,191,191)"/>
<rect x="153" y="18" width="9" height="9" fill="rgb(159,159,159)"/>
<rect x="153" y="27" width="9" height="9" fill="rgb(128,128,128)"/>
<rect x="153" y="36" width="9" height="9" fill="rgb(96,96,96)"/>
<rect x="153" y="45" width="9" height="9" fill="rgb(64,64,64)"/>
<rect x="153" y="54" width="9" height="9" fill="rgb(32,32,32)"/>
<rect x="153" y="63" width="9" height="9" fill="rgb(0,0,0)"/>
</g>
</svg>