<svg xmlns="http://www.w3.org/2000/svg" width="109.8" height="100.0" viewBox="-9.499 -4.392 119.826 110.000">
<g fill="none" stroke="black" stroke-width="0.0050%" transform="translate(0, 101.2166) scale(100.0661, -100.0661)">
<g fill="rgb(120,27,134)" ><circle cx="0.439" cy="0.496" r="0.058" /></g>
<g fill="rgb(120,27,134)" ><circle cx="0.395" cy="0.841" r="0.017" /></g>
<g fill="rgb(120,27,134)" ><circle cx="0.244" cy="0.488" r="0.079" /></g>
<g fill="rgb(120,27,134)" ><circle cx="0.598" cy="0.581" r="0.004" /></g>
<g fill="rgb(120,27,134)" ><circle cx="0.197" cy="0.883" r="0.065" /></g>
<g fill="rgb(120,27,134)" ><circle cx="0.401" cy="0.943" r="0.008" /></g>
<g fill="rgb(120,27,134)" ><circle cx="0.177" cy="0.962" r="0.043" /></g>
<g fill="rgb(68,124,205)" ><circle cx="0.446" cy="0.640" r="0.057" /></g>
<g fill="rgb(68,124,205)" ><circle cx="0.742" cy="0.769" r="0.056" /></g>
<g fill="rgb(68,124,205)" ><circle cx="0.830" cy="0.566" r="0.060" /></g>
<g fill="rgb(68,124,205)" ><circle cx="0.121" cy="0.607" r="0.026" /></g>
<g fill="rgb(68,124,205)" ><circle cx="0.104" cy="0.140" r="0.055" /></g>
<g fill="rgb(68,124,205)" ><circle cx="0.895" cy="0.438" r="0.074" /></g>
<g fill="rgb(68,124,205)" ><circle cx="0.832" cy="0.333" r="0.044" /></g>
<g fill="rgb(131,186,112)" ><circle cx="0.658" cy="0.459" r="0.044" /></g>
<g fill="rgb(131,186,112)" ><circle cx="0.991" cy="0.416" r="0.044" /></g>
<g fill="rgb(131,186,112)" ><circle cx="0.670" cy="0.828" r="0.012" /></g>
<g fill="rgb(131,186,112)" ><circle cx="0.095" cy="0.493" r="0.053" /></g>
<g fill="rgb(131,186,112)" ><circle cx="0.972" cy="0.305" r="0.081" /></g>
<g fill="rgb(131,186,112)" ><circle cx="0.858" cy="0.079" r="0.045" /></g>
<g fill="rgb(131,186,112)" ><circle cx="0.590" cy="0.106" r="0.075" /></g>
<g fill="rgb(221,171,60)" ><circle cx="0.818" cy="0.411" r="0.005" /></g>
<g fill="rgb(221,171,60)" ><circle cx="0.551" cy="0.749" r="0.018" /></g>
<g fill="rgb(221,171,60)" ><circle cx="0.096" cy="0.881" r="0.039" /></g>
<g fill="rgb(221,171,60)" ><circle cx="0.469" cy="0.262" r="0.022" /></g>
<g fill="rgb(221,171,60)" ><circle cx="0.020" cy="0.607" r="0.065" /></g>
<g fill="rgb(221,171,60)" ><circle cx="0.726" cy="0.456" r="0.074" /></g>
<g fill="rgb(221,171,60)" ><circle cx="0.316" cy="0.432" r="0.001" /></g>
<g fill="rgb(219,33,33)" ><circle cx="0.209" cy="0.840" r="0.025" /></g>
<g fill="rgb(219,33,33)" ><circle cx="0.839" cy="0.194" r="0.016" /></g>
<g fill="rgb(219,33,33)" ><circle cx="0.108" cy="0.730" r="0.006" /></g>
<g fill="rgb(219,33,33)" ><circle cx="0.393" cy="0.842" r="0.059" /></g>
<g fill="rgb(219,33,33)" ><circle cx="0.363" cy="0.145" r="0.034" /></g>
<g fill="rgb(219,33,33)" ><circle cx="0.904" cy="0.060" r="0.054" /></g>
<g fill="rgb(219,33,33)" ><circle cx="0.186" cy="0.098" r="0.001" /></g>
</g>
</svg>