<svg xmlns="http://www.w3.org/2000/svg" width="161.8" height="100.0" viewBox="-3.366 -4.998 171.803 110.000">
<g fill="none" stroke="black" stroke-width="0.0049%" transform="translate(0, 100.0030) scale(101.8775, -101.8775)">
<polyline points="0.016,0.000 0.032,0.000 0.048,0.000 0.064,0.000 0.080,0.000 0.096,0.000 0.112,0.000 0.128,0.000 0.144,0.000 0.160,0.000 0.176,0.000 0.193,0.001 0.209,0.001 0.225,0.001 0.241,0.002 0.257,0.003 0.273,0.004 0.289,0.005 0.305,0.007 0.321,0.009 0.337,0.013 0.353,0.017 0.369,0.023 0.385,0.030 0.401,0.039 0.417,0.051 0.433,0.064 0.449,0.080 0.465,0.099 0.481,0.121 0.497,0.145 0.513,0.172 0.529,0.202 0.545,0.235 0.561,0.270 0.578,0.308 0.594,0.349 0.610,0.392 0.626,0.437 0.642,0.484 0.658,0.531 0.674,0.578 0.690,0.625 0.706,0.671 0.722,0.714 0.738,0.754 0.754,0.791 0.770,0.824 0.786,0.853 0.802,0.878 0.818,0.900 0.834,0.918 0.850,0.933 0.866,0.945 0.882,0.955 0.898,0.963 0.914,0.970 0.930,0.974 0.947,0.978 0.963,0.980 0.979,0.981 0.995,0.982 1.011,0.981 1.027,0.979 1.043,0.976 1.059,0.972 1.075,0.967 1.091,0.960 1.107,0.951 1.123,0.940 1.139,0.926 1.155,0.908 1.171,0.887 1.187,0.862 1.203,0.833 1.219,0.798 1.235,0.758 1.251,0.713 1.267,0.663 1.283,0.609 1.299,0.552 1.315,0.494 1.332,0.437 1.348,0.381 1.364,0.327 1.380,0.278 1.396,0.234 1.412,0.195 1.428,0.161 1.444,0.132 1.460,0.108 1.476,0.087 1.492,0.070 1.508,0.057 1.524,0.045 1.540,0.036 1.556,0.029 1.572,0.023 1.588,0.018 1.604,0.015" />
</g>
</svg>