<svg xmlns="http://www.w3.org/2000/svg" width="161.8" height="100.0" viewBox="-3.40 -5.00 171.80 110.00">
<g fill="none" stroke="black" stroke-width="0.0450%" transform="translate(0, 100.0000) scale(11.1111, -11.1111)">
<circle cx="0.14" cy="1.00" r="0.04" />
<circle cx="0.29" cy="5.00" r="0.04" />
<circle cx="0.43" cy="5.00" r="0.04" />
<circle cx="0.58" cy="1.00" r="0.04" />
<circle cx="0.72" cy="3.00" r="0.04" />
<circle cx="0.87" cy="8.00" r="0.04" />
<circle cx="1.01" cy="7.00" r="0.04" />
<circle cx="1.15" cy="5.00" r="0.04" />
<circle cx="1.30" cy="2.00" r="0.04" />
<circle cx="1.44" cy="4.00" r="0.04" />
<circle cx="1.59" cy="5.00" r="0.04" />
<circle cx="1.73" cy="4.00" r="0.04" />
<circle cx="1.87" cy="8.00" r="0.04" />
<circle cx="2.02" cy="3.00" r="0.04" />
<circle cx="2.16" cy="2.00" r="0.04" />
<circle cx="2.31" cy="0.00" r="0.04" />
<circle cx="2.45" cy="3.00" r="0.04" />
<circle cx="2.60" cy="9.00" r="0.04" />
<circle cx="2.74" cy="2.00" r="0.04" />
<circle cx="2.88" cy="2.00" r="0.04" />
<circle cx="3.03" cy="6.00" r="0.04" />
<circle cx="3.17" cy="1.00" r="0.04" />
<circle cx="3.32" cy="9.00" r="0.04" />
<circle cx="3.46" cy="5.00" r="0.04" />
<circle cx="3.60" cy="2.00" r="0.04" />
<circle cx="3.75" cy="5.00" r="0.04" />
<circle cx="3.89" cy="1.00" r="0.04" />
<circle cx="4.04" cy="0.00" r="0.04" />
<circle cx="4.18" cy="2.00" r="0.04" />
<circle cx="4.33" cy="6.00" r="0.04" />
<circle cx="4.47" cy="4.00" r="0.04" />
<circle cx="4.61" cy="6.00" r="0.04" />
<circle cx="4.76" cy="2.00" r="0.04" />
<circle cx="4.90" cy="3.00" r="0.04" />
<circle cx="5.05" cy="8.00" r="0.04" />
<circle cx="5.19" cy="1.00" r="0.04" />
<circle cx="5.33" cy="5.00" r="0.04" />
<circle cx="5.48" cy="1.00" r="0.04" />
<circle cx="5.62" cy="6.00" r="0.04" />
<circle cx="5.77" cy="3.00" r="0.04" />
<circle cx="5.91" cy="5.00" r="0.04" />
<circle cx="6.06" cy="9.00" r="0.04" />
<circle cx="6.20" cy="1.00" r="0.04" />
<circle cx="6.34" cy="7.00" r="0.04" />
<circle cx="6.49" cy="0.00" r="0.04" />
<circle cx="6.63" cy="3.00" r="0.04" />
<circle cx="6.78" cy="8.00" r="0.04" />
<circle cx="6.92" cy="0.00" r="0.04" />
<circle cx="7.06" cy="3.00" r="0.04" />
<circle cx="7.21" cy="8.00" r="0.04" />
<circle cx="7.35" cy="8.00" r="0.04" />
<circle cx="7.50" cy="7.00" r="0.04" />
<circle cx="7.64" cy="1.00" r="0.04" />
<circle cx="7.79" cy="9.00" r="0.04" />
<circle cx="7.93" cy="9.00" r="0.04" />
<circle cx="8.07" cy="5.00" r="0.04" />
<circle cx="8.22" cy="2.00" r="0.04" />
<circle cx="8.36" cy="8.00" r="0.04" />
<circle cx="8.51" cy="0.00" r="0.04" />
<circle cx="8.65" cy="0.00" r="0.04" />
<circle cx="8.80" cy="7.00" r="0.04" />
<circle cx="8.94" cy="1.00" r="0.04" />
<circle cx="9.08" cy="2.00" r="0.04" />
<circle cx="9.23" cy="0.00" r="0.04" />
<circle cx="9.37" cy="1.00" r="0.04" />
<circle cx="9.52" cy="1.00" r="0.04" />
<circle cx="9.66" cy="7.00" r="0.04" />
<circle cx="9.80" cy="9.00" r="0.04" />
<circle cx="9.95" cy="2.00" r="0.04" />
<circle cx="10.09" cy="6.00" r="0.04" />
<circle cx="10.24" cy="7.00" r="0.04" />
<circle cx="10.38" cy="4.00" r="0.04" />
<circle cx="10.53" cy="2.00" r="0.04" />
<circle cx="10.67" cy="5.00" r="0.04" />
<circle cx="10.81" cy="5.00" r="0.04" />
<circle cx="10.96" cy="4.00" r="0.04" />
<circle cx="11.10" cy="2.00" r="0.04" />
<circle cx="11.25" cy="5.00" r="0.04" />
<circle cx="11.39" cy="6.00" r="0.04" />
<circle cx="11.53" cy="9.00" r="0.04" />
<circle cx="11.68" cy="5.00" r="0.04" />
<circle cx="11.82" cy="7.00" r="0.04" />
<circle cx="11.97" cy="2.00" r="0.04" />
<circle cx="12.11" cy="9.00" r="0.04" />
<circle cx="12.26" cy="5.00" r="0.04" />
<circle cx="12.40" cy="7.00" r="0.04" />
<circle cx="12.54" cy="6.00" r="0.04" />
<circle cx="12.69" cy="0.00" r="0.04" />
<circle cx="12.83" cy="4.00" r="0.04" />
<circle cx="12.98" cy="5.00" r="0.04" />
<circle cx="13.12" cy="3.00" r="0.04" />
<circle cx="13.26" cy="6.00" r="0.04" />
<circle cx="13.41" cy="1.00" r="0.04" />
<circle cx="13.55" cy="2.00" r="0.04" />
<circle cx="13.70" cy="0.00" r="0.04" />
<circle cx="13.84" cy="2.00" r="0.04" />
<circle cx="13.99" cy="5.00" r="0.04" />
<circle cx="14.13" cy="4.00" r="0.04" />
<circle cx="14.27" cy="3.00" r="0.04" />
<circle cx="14.42" cy="6.00" r="0.04" />
<circle cx="14.56" cy="2.00" r="0.04" />
<circle cx="14.71" cy="9.00" r="0.04" />
</g>
</svg>