<svg xmlns="http://www.w3.org/2000/svg" width="161.8" height="100.0" viewBox="-4.19 -56.66 171.80 110.00">
<g fill="none" stroke="black" stroke-width="0.0201%" transform="translate(0, -3.3173) scale(24.8425, -24.8425)">

<line x1="0.07" y1="0.00" x2="0.07" y2="-0.69" />
<line x1="0.10" y1="0.00" x2="0.10" y2="0.69" />
<line x1="0.13" y1="0.00" x2="0.13" y2="-1.10" />
<line x1="0.16" y1="0.00" x2="0.16" y2="0.41" />
<line x1="0.20" y1="0.00" x2="0.20" y2="-0.41" />
<line x1="0.23" y1="0.00" x2="0.23" y2="1.10" />
<line x1="0.26" y1="0.00" x2="0.26" y2="-1.39" />
<line x1="0.29" y1="0.00" x2="0.29" y2="0.29" />
<line x1="0.33" y1="0.00" x2="0.33" y2="-0.51" />
<line x1="0.36" y1="0.00" x2="0.36" y2="0.92" />
<line x1="0.39" y1="0.00" x2="0.39" y2="-0.92" />
<line x1="0.43" y1="0.00" x2="0.43" y2="0.51" />
<line x1="0.46" y1="0.00" x2="0.46" y2="-0.29" />
<line x1="0.49" y1="0.00" x2="0.49" y2="1.39" />
<line x1="0.52" y1="0.00" x2="0.52" y2="-1.61" />
<line x1="0.56" y1="0.00" x2="0.56" y2="0.22" />
<line x1="0.59" y1="0.00" x2="0.59" y2="-0.56" />
<line x1="0.62" y1="0.00" x2="0.62" y2="0.85" />
<line x1="0.65" y1="0.00" x2="0.65" y2="-0.98" />
<line x1="0.69" y1="0.00" x2="0.69" y2="0.47" />
<line x1="0.72" y1="0.00" x2="0.72" y2="-0.34" />
<line x1="0.75" y1="0.00" x2="0.75" y2="1.25" />
<line x1="0.79" y1="0.00" x2="0.79" y2="-1.25" />
<line x1="0.82" y1="0.00" x2="0.82" y2="0.34" />
<line x1="0.85" y1="0.00" x2="0.85" y2="-0.47" />
<line x1="0.88" y1="0.00" x2="0.88" y2="0.98" />
<line x1="0.92" y1="0.00" x2="0.92" y2="-0.85" />
<line x1="0.95" y1="0.00" x2="0.95" y2="0.56" />
<line x1="0.98" y1="0.00" x2="0.98" y2="-0.22" />
<line x1="1.01" y1="0.00" x2="1.01" y2="1.61" />
<line x1="1.05" y1="0.00" x2="1.05" y2="-1.79" />
<line x1="1.08" y1="0.00" x2="1.08" y2="0.18" />
<line x1="1.11" y1="0.00" x2="1.11" y2="-0.59" />
<line x1="1.15" y1="0.00" x2="1.15" y2="0.81" />
<line x1="1.18" y1="0.00" x2="1.18" y2="-1.01" />
<line x1="1.21" y1="0.00" x2="1.21" y2="0.45" />
<line x1="1.24" y1="0.00" x2="1.24" y2="-0.36" />
<line x1="1.28" y1="0.00" x2="1.28" y2="1.20" />
<line x1="1.31" y1="0.00" x2="1.31" y2="-1.30" />
<line x1="1.34" y1="0.00" x2="1.34" y2="0.32" />
<line x1="1.37" y1="0.00" x2="1.37" y2="-0.49" />
<line x1="1.41" y1="0.00" x2="1.41" y2="0.96" />
<line x1="1.44" y1="0.00" x2="1.44" y2="-0.88" />
<line x1="1.47" y1="0.00" x2="1.47" y2="0.54" />
<line x1="1.51" y1="0.00" x2="1.51" y2="-0.25" />
<line x1="1.54" y1="0.00" x2="1.54" y2="1.50" />
<line x1="1.57" y1="0.00" x2="1.57" y2="-1.50" />
<line x1="1.60" y1="0.00" x2="1.60" y2="0.25" />
<line x1="1.64" y1="0.00" x2="1.64" y2="-0.54" />
<line x1="1.67" y1="0.00" x2="1.67" y2="0.88" />
<line x1="1.70" y1="0.00" x2="1.70" y2="-0.96" />
<line x1="1.73" y1="0.00" x2="1.73" y2="0.49" />
<line x1="1.77" y1="0.00" x2="1.77" y2="-0.32" />
<line x1="1.80" y1="0.00" x2="1.80" y2="1.30" />
<line x1="1.83" y1="0.00" x2="1.83" y2="-1.20" />
<line x1="1.87" y1="0.00" x2="1.87" y2="0.36" />
<line x1="1.90" y1="0.00" x2="1.90" y2="-0.45" />
<line x1="1.93" y1="0.00" x2="1.93" y2="1.01" />
<line x1="1.96" y1="0.00" x2="1.96" y2="-0.81" />
<line x1="2.00" y1="0.00" x2="2.00" y2="0.59" />
<line x1="2.03" y1="0.00" x2="2.03" y2="-0.18" />
<line x1="2.06" y1="0.00" x2="2.06" y2="1.79" />
<line x1="2.09" y1="0.00" x2="2.09" y2="-1.95" />
<line x1="2.13" y1="0.00" x2="2.13" y2="0.15" />
<line x1="2.16" y1="0.00" x2="2.16" y2="-0.61" />
<line x1="2.19" y1="0.00" x2="2.19" y2="0.79" />
<line x1="2.23" y1="0.00" x2="2.23" y2="-1.03" />
<line x1="2.26" y1="0.00" x2="2.26" y2="0.44" />
<line x1="2.29" y1="0.00" x2="2.29" y2="-0.37" />
<line x1="2.32" y1="0.00" x2="2.32" y2="1.18" />
<line x1="2.36" y1="0.00" x2="2.36" y2="-1.32" />
<line x1="2.39" y1="0.00" x2="2.39" y2="0.31" />
<line x1="2.42" y1="0.00" x2="2.42" y2="-0.49" />
<line x1="2.45" y1="0.00" x2="2.45" y2="0.94" />
<line x1="2.49" y1="0.00" x2="2.49" y2="-0.89" />
<line x1="2.52" y1="0.00" x2="2.52" y2="0.53" />
<line x1="2.55" y1="0.00" x2="2.55" y2="-0.26" />
<line x1="2.59" y1="0.00" x2="2.59" y2="1.47" />
<line x1="2.62" y1="0.00" x2="2.62" y2="-1.54" />
<line x1="2.65" y1="0.00" x2="2.65" y2="0.24" />
<line x1="2.68" y1="0.00" x2="2.68" y2="-0.55" />
<line x1="2.72" y1="0.00" x2="2.72" y2="0.86" />
<line x1="2.75" y1="0.00" x2="2.75" y2="-0.97" />
<line x1="2.78" y1="0.00" x2="2.78" y2="0.48" />
<line x1="2.81" y1="0.00" x2="2.81" y2="-0.33" />
<line x1="2.85" y1="0.00" x2="2.85" y2="1.28" />
<line x1="2.88" y1="0.00" x2="2.88" y2="-1.22" />
<line x1="2.91" y1="0.00" x2="2.91" y2="0.35" />
<line x1="2.95" y1="0.00" x2="2.95" y2="-0.46" />
<line x1="2.98" y1="0.00" x2="2.98" y2="1.00" />
<line x1="3.01" y1="0.00" x2="3.01" y2="-0.83" />
<line x1="3.04" y1="0.00" x2="3.04" y2="0.58" />
<line x1="3.08" y1="0.00" x2="3.08" y2="-0.20" />
<line x1="3.11" y1="0.00" x2="3.11" y2="1.70" />
<line x1="3.14" y1="0.00" x2="3.14" y2="-1.70" />
<line x1="3.17" y1="0.00" x2="3.17" y2="0.20" />
<line x1="3.21" y1="0.00" x2="3.21" y2="-0.58" />
<line x1="3.24" y1="0.00" x2="3.24" y2="0.83" />
<line x1="3.27" y1="0.00" x2="3.27" y2="-1.00" />
<line x1="3.31" y1="0.00" x2="3.31" y2="0.46" />
<line x1="3.34" y1="0.00" x2="3.34" y2="-0.35" />
<line x1="3.37" y1="0.00" x2="3.37" y2="1.22" />
<line x1="3.40" y1="0.00" x2="3.40" y2="-1.28" />
<line x1="3.44" y1="0.00" x2="3.44" y2="0.33" />
<line x1="3.47" y1="0.00" x2="3.47" y2="-0.48" />
<line x1="3.50" y1="0.00" x2="3.50" y2="0.97" />
<line x1="3.53" y1="0.00" x2="3.53" y2="-0.86" />
<line x1="3.57" y1="0.00" x2="3.57" y2="0.55" />
<line x1="3.60" y1="0.00" x2="3.60" y2="-0.24" />
<line x1="3.63" y1="0.00" x2="3.63" y2="1.54" />
<line x1="3.67" y1="0.00" x2="3.67" y2="-1.47" />
<line x1="3.70" y1="0.00" x2="3.70" y2="0.26" />
<line x1="3.73" y1="0.00" x2="3.73" y2="-0.53" />
<line x1="3.76" y1="0.00" x2="3.76" y2="0.89" />
<line x1="3.80" y1="0.00" x2="3.80" y2="-0.94" />
<line x1="3.83" y1="0.00" x2="3.83" y2="0.49" />
<line x1="3.86" y1="0.00" x2="3.86" y2="-0.31" />
<line x1="3.89" y1="0.00" x2="3.89" y2="1.32" />
<line x1="3.93" y1="0.00" x2="3.93" y2="-1.18" />
<line x1="3.96" y1="0.00" x2="3.96" y2="0.37" />
<line x1="3.99" y1="0.00" x2="3.99" y2="-0.44" />
<line x1="4.03" y1="0.00" x2="4.03" y2="1.03" />
<line x1="4.06" y1="0.00" x2="4.06" y2="-0.79" />
<line x1="4.09" y1="0.00" x2="4.09" y2="0.61" />
<line x1="4.12" y1="0.00" x2="4.12" y2="-0.15" />
<line x1="4.16" y1="0.00" x2="4.16" y2="1.95" />
<line x1="4.19" y1="0.00" x2="4.19" y2="-2.08" />
<line x1="4.22" y1="0.00" x2="4.22" y2="0.13" />
<line x1="4.25" y1="0.00" x2="4.25" y2="-0.62" />
<line x1="4.29" y1="0.00" x2="4.29" y2="0.77" />
<line x1="4.32" y1="0.00" x2="4.32" y2="-1.04" />
<line x1="4.35" y1="0.00" x2="4.35" y2="0.44" />
<line x1="4.39" y1="0.00" x2="4.39" y2="-0.37" />
<line x1="4.42" y1="0.00" x2="4.42" y2="1.16" />
<line x1="4.45" y1="0.00" x2="4.45" y2="-1.34" />
<line x1="4.48" y1="0.00" x2="4.48" y2="0.31" />
<line x1="4.52" y1="0.00" x2="4.52" y2="-0.50" />
<line x1="4.55" y1="0.00" x2="4.55" y2="0.94" />
<line x1="4.58" y1="0.00" x2="4.58" y2="-0.89" />
<line x1="4.61" y1="0.00" x2="4.61" y2="0.53" />
<line x1="4.65" y1="0.00" x2="4.65" y2="-0.27" />
<line x1="4.68" y1="0.00" x2="4.68" y2="1.45" />
<line x1="4.71" y1="0.00" x2="4.71" y2="-1.56" />
<line x1="4.75" y1="0.00" x2="4.75" y2="0.24" />
<line x1="4.78" y1="0.00" x2="4.78" y2="-0.55" />
<line x1="4.81" y1="0.00" x2="4.81" y2="0.86" />
<line x1="4.84" y1="0.00" x2="4.84" y2="-0.97" />
<line x1="4.88" y1="0.00" x2="4.88" y2="0.48" />
<line x1="4.91" y1="0.00" x2="4.91" y2="-0.33" />
<line x1="4.94" y1="0.00" x2="4.94" y2="1.27" />
<line x1="4.97" y1="0.00" x2="4.97" y2="-1.23" />
<line x1="5.01" y1="0.00" x2="5.01" y2="0.34" />
<line x1="5.04" y1="0.00" x2="5.04" y2="-0.46" />
<line x1="5.07" y1="0.00" x2="5.07" y2="0.99" />
<line x1="5.11" y1="0.00" x2="5.11" y2="-0.83" />
<line x1="5.14" y1="0.00" x2="5.14" y2="0.57" />
<line x1="5.17" y1="0.00" x2="5.17" y2="-0.21" />
<line x1="5.20" y1="0.00" x2="5.20" y2="1.67" />
<line x1="5.24" y1="0.00" x2="5.24" y2="-1.73" />
<line x1="5.27" y1="0.00" x2="5.27" y2="0.19" />
<line x1="5.30" y1="0.00" x2="5.30" y2="-0.58" />
<line x1="5.33" y1="0.00" x2="5.33" y2="0.82" />
<line x1="5.37" y1="0.00" x2="5.37" y2="-1.00" />
<line x1="5.40" y1="0.00" x2="5.40" y2="0.46" />
<line x1="5.43" y1="0.00" x2="5.43" y2="-0.35" />
<line x1="5.47" y1="0.00" x2="5.47" y2="1.22" />
<line x1="5.50" y1="0.00" x2="5.50" y2="-1.29" />
<line x1="5.53" y1="0.00" x2="5.53" y2="0.32" />
<line x1="5.56" y1="0.00" x2="5.56" y2="-0.48" />
<line x1="5.60" y1="0.00" x2="5.60" y2="0.96" />
<line x1="5.63" y1="0.00" x2="5.63" y2="-0.87" />
<line x1="5.66" y1="0.00" x2="5.66" y2="0.54" />
<line x1="5.69" y1="0.00" x2="5.69" y2="-0.25" />
<line x1="5.73" y1="0.00" x2="5.73" y2="1.53" />
<line x1="5.76" y1="0.00" x2="5.76" y2="-1.48" />
<line x1="5.79" y1="0.00" x2="5.79" y2="0.26" />
<line x1="5.83" y1="0.00" x2="5.83" y2="-0.53" />
<line x1="5.86" y1="0.00" x2="5.86" y2="0.88" />
<line x1="5.89" y1="0.00" x2="5.89" y2="-0.95" />
<line x1="5.92" y1="0.00" x2="5.92" y2="0.49" />
<line x1="5.96" y1="0.00" x2="5.96" y2="-0.31" />
<line x1="5.99" y1="0.00" x2="5.99" y2="1.31" />
<line x1="6.02" y1="0.00" x2="6.02" y2="-1.19" />
<line x1="6.05" y1="0.00" x2="6.05" y2="0.36" />
<line x1="6.09" y1="0.00" x2="6.09" y2="-0.45" />
<line x1="6.12" y1="0.00" x2="6.12" y2="1.02" />
<line x1="6.15" y1="0.00" x2="6.15" y2="-0.80" />
<line x1="6.19" y1="0.00" x2="6.19" y2="0.60" />
<line x1="6.22" y1="0.00" x2="6.22" y2="-0.17" />
<line x1="6.25" y1="0.00" x2="6.25" y2="1.87" />
<line x1="6.28" y1="0.00" x2="6.28" y2="-1.87" />
<line x1="6.32" y1="0.00" x2="6.32" y2="0.17" />
<line x1="6.35" y1="0.00" x2="6.35" y2="-0.60" />
<line x1="6.38" y1="0.00" x2="6.38" y2="0.80" />
<line x1="6.41" y1="0.00" x2="6.41" y2="-1.02" />
<line x1="6.45" y1="0.00" x2="6.45" y2="0.45" />
<line x1="6.48" y1="0.00" x2="6.48" y2="-0.36" />
<line x1="6.51" y1="0.00" x2="6.51" y2="1.19" />
<line x1="6.55" y1="0.00" x2="6.55" y2="-1.31" />
</g>
</svg>