<?xml version="1.0" encoding="UTF-8" standalone="no"?>
<!DOCTYPE svg PUBLIC "-//W3C//DTD SVG 1.1//EN"
 "http://www.w3.org/Graphics/SVG/1.1/DTD/svg11.dtd">
<!-- Generated by graphviz version 12.0.0 (0)
 -->
<!-- Pages: 1 -->
<svg width="87pt" height="46pt"
 viewBox="0.00 0.00 87.00 46.13" xmlns="http://www.w3.org/2000/svg" xmlns:xlink="http://www.w3.org/1999/xlink">
<g id="graph0" class="graph" transform="scale(0.214344 0.214344) rotate(0) translate(4 211.2)">
<!-- 1 -->
<g id="node1" class="node">
<title>1</title>
<polygon fill="none" stroke="black" points="215.89,-207.2 182,-207.2 182,-182.4 215.89,-182.4 215.89,-207.2"/>
<text text-anchor="middle" x="198.94" y="-190.6" font-family="Times,serif" font-size="14.00">1/1</text>
</g>
<!-- 2 -->
<g id="node2" class="node">
<title>2</title>
<polygon fill="none" stroke="black" points="163.89,-146.4 130,-146.4 130,-121.6 163.89,-121.6 163.89,-146.4"/>
<text text-anchor="middle" x="146.94" y="-129.8" font-family="Times,serif" font-size="14.00">1/2</text>
</g>
<!-- 1&#45;&gt;2 -->
<g id="edge1" class="edge">
<title>1&#45;&gt;2</title>
<path fill="none" stroke="black" stroke-width="0.75" d="M188.42,-181.9C180.67,-173.13 170.03,-161.1 161.47,-151.42"/>
<polygon fill="black" stroke="black" stroke-width="0.75" points="162.83,-150.32 158.2,-147.73 160.21,-152.64 162.83,-150.32"/>
</g>
<!-- 9 -->
<g id="node9" class="node">
<title>9</title>
<polygon fill="none" stroke="black" points="267.89,-146.4 234,-146.4 234,-121.6 267.89,-121.6 267.89,-146.4"/>
<text text-anchor="middle" x="250.94" y="-129.8" font-family="Times,serif" font-size="14.00">2/1</text>
</g>
<!-- 1&#45;&gt;9 -->
<g id="edge2" class="edge">
<title>1&#45;&gt;9</title>
<path fill="none" stroke="black" stroke-width="0.75" d="M209.47,-181.9C217.22,-173.13 227.86,-161.1 236.42,-151.42"/>
<polygon fill="black" stroke="black" stroke-width="0.75" points="237.68,-152.64 239.69,-147.73 235.06,-150.32 237.68,-152.64"/>
</g>
<!-- 3 -->
<g id="node3" class="node">
<title>3</title>
<polygon fill="none" stroke="black" points="85.89,-85.6 52,-85.6 52,-60.8 85.89,-60.8 85.89,-85.6"/>
<text text-anchor="middle" x="68.94" y="-69" font-family="Times,serif" font-size="14.00">1/3</text>
</g>
<!-- 2&#45;&gt;3 -->
<g id="edge3" class="edge">
<title>2&#45;&gt;3</title>
<path fill="none" stroke="black" stroke-width="0.75" d="M131.16,-121.1C119.11,-112.02 102.4,-99.42 89.34,-89.57"/>
<polygon fill="black" stroke="black" stroke-width="0.75" points="90.66,-88.38 85.61,-86.76 88.55,-91.17 90.66,-88.38"/>
</g>
<!-- 6 -->
<g id="node6" class="node">
<title>6</title>
<polygon fill="none" stroke="black" points="163.89,-85.6 130,-85.6 130,-60.8 163.89,-60.8 163.89,-85.6"/>
<text text-anchor="middle" x="146.94" y="-69" font-family="Times,serif" font-size="14.00">3/2</text>
</g>
<!-- 2&#45;&gt;6 -->
<g id="edge4" class="edge">
<title>2&#45;&gt;6</title>
<path fill="none" stroke="black" stroke-width="0.75" d="M146.94,-121.1C146.94,-112.73 146.94,-101.39 146.94,-91.96"/>
<polygon fill="black" stroke="black" stroke-width="0.75" points="148.69,-92.22 146.94,-87.22 145.19,-92.22 148.69,-92.22"/>
</g>
<!-- 4 -->
<g id="node4" class="node">
<title>4</title>
<polygon fill="none" stroke="black" points="33.89,-24.8 0,-24.8 0,0 33.89,0 33.89,-24.8"/>
<text text-anchor="middle" x="16.94" y="-8.2" font-family="Times,serif" font-size="14.00">1/4</text>
</g>
<!-- 3&#45;&gt;4 -->
<g id="edge5" class="edge">
<title>3&#45;&gt;4</title>
<path fill="none" stroke="black" stroke-width="0.75" d="M58.42,-60.3C50.67,-51.53 40.03,-39.5 31.47,-29.82"/>
<polygon fill="black" stroke="black" stroke-width="0.75" points="32.83,-28.72 28.2,-26.13 30.21,-31.04 32.83,-28.72"/>
</g>
<!-- 5 -->
<g id="node5" class="node">
<title>5</title>
<polygon fill="none" stroke="black" points="85.89,-24.8 52,-24.8 52,0 85.89,0 85.89,-24.8"/>
<text text-anchor="middle" x="68.94" y="-8.2" font-family="Times,serif" font-size="14.00">4/3</text>
</g>
<!-- 3&#45;&gt;5 -->
<g id="edge6" class="edge">
<title>3&#45;&gt;5</title>
<path fill="none" stroke="black" stroke-width="0.75" d="M68.94,-60.3C68.94,-51.93 68.94,-40.59 68.94,-31.16"/>
<polygon fill="black" stroke="black" stroke-width="0.75" points="70.69,-31.42 68.94,-26.42 67.19,-31.42 70.69,-31.42"/>
</g>
<!-- 7 -->
<g id="node7" class="node">
<title>7</title>
<polygon fill="none" stroke="black" points="137.89,-24.8 104,-24.8 104,0 137.89,0 137.89,-24.8"/>
<text text-anchor="middle" x="120.94" y="-8.2" font-family="Times,serif" font-size="14.00">3/5</text>
</g>
<!-- 6&#45;&gt;7 -->
<g id="edge7" class="edge">
<title>6&#45;&gt;7</title>
<path fill="none" stroke="black" stroke-width="0.75" d="M141.68,-60.3C137.95,-51.85 132.87,-40.37 128.68,-30.89"/>
<polygon fill="black" stroke="black" stroke-width="0.75" points="130.28,-30.18 126.66,-26.32 127.08,-31.6 130.28,-30.18"/>
</g>
<!-- 8 -->
<g id="node8" class="node">
<title>8</title>
<polygon fill="none" stroke="black" points="189.89,-24.8 156,-24.8 156,0 189.89,0 189.89,-24.8"/>
<text text-anchor="middle" x="172.94" y="-8.2" font-family="Times,serif" font-size="14.00">5/2</text>
</g>
<!-- 6&#45;&gt;8 -->
<g id="edge8" class="edge">
<title>6&#45;&gt;8</title>
<path fill="none" stroke="black" stroke-width="0.75" d="M152.21,-60.3C155.94,-51.85 161.02,-40.37 165.21,-30.89"/>
<polygon fill="black" stroke="black" stroke-width="0.75" points="166.81,-31.6 167.23,-26.32 163.61,-30.18 166.81,-31.6"/>
</g>
<!-- 10 -->
<g id="node10" class="node">
<title>10</title>
<polygon fill="none" stroke="black" points="267.89,-85.6 234,-85.6 234,-60.8 267.89,-60.8 267.89,-85.6"/>
<text text-anchor="middle" x="250.94" y="-69" font-family="Times,serif" font-size="14.00">2/3</text>
</g>
<!-- 9&#45;&gt;10 -->
<g id="edge9" class="edge">
<title>9&#45;&gt;10</title>
<path fill="none" stroke="black" stroke-width="0.75" d="M250.94,-121.1C250.94,-112.73 250.94,-101.39 250.94,-91.96"/>
<polygon fill="black" stroke="black" stroke-width="0.75" points="252.69,-92.22 250.94,-87.22 249.19,-92.22 252.69,-92.22"/>
</g>
<!-- 13 -->
<g id="node13" class="node">
<title>13</title>
<polygon fill="none" stroke="black" points="345.89,-85.6 312,-85.6 312,-60.8 345.89,-60.8 345.89,-85.6"/>
<text text-anchor="middle" x="328.94" y="-69" font-family="Times,serif" font-size="14.00">3/1</text>
</g>
<!-- 9&#45;&gt;13 -->
<g id="edge10" class="edge">
<title>9&#45;&gt;13</title>
<path fill="none" stroke="black" stroke-width="0.75" d="M266.73,-121.1C278.78,-112.02 295.49,-99.42 308.55,-89.57"/>
<polygon fill="black" stroke="black" stroke-width="0.75" points="309.34,-91.17 312.28,-86.76 307.23,-88.38 309.34,-91.17"/>
</g>
<!-- 11 -->
<g id="node11" class="node">
<title>11</title>
<polygon fill="none" stroke="black" points="241.89,-24.8 208,-24.8 208,0 241.89,0 241.89,-24.8"/>
<text text-anchor="middle" x="224.94" y="-8.2" font-family="Times,serif" font-size="14.00">2/5</text>
</g>
<!-- 10&#45;&gt;11 -->
<g id="edge11" class="edge">
<title>10&#45;&gt;11</title>
<path fill="none" stroke="black" stroke-width="0.75" d="M245.68,-60.3C241.95,-51.85 236.87,-40.37 232.68,-30.89"/>
<polygon fill="black" stroke="black" stroke-width="0.75" points="234.28,-30.18 230.66,-26.32 231.08,-31.6 234.28,-30.18"/>
</g>
<!-- 12 -->
<g id="node12" class="node">
<title>12</title>
<polygon fill="none" stroke="black" points="293.89,-24.8 260,-24.8 260,0 293.89,0 293.89,-24.8"/>
<text text-anchor="middle" x="276.94" y="-8.2" font-family="Times,serif" font-size="14.00">5/3</text>
</g>
<!-- 10&#45;&gt;12 -->
<g id="edge12" class="edge">
<title>10&#45;&gt;12</title>
<path fill="none" stroke="black" stroke-width="0.75" d="M256.21,-60.3C259.94,-51.85 265.02,-40.37 269.21,-30.89"/>
<polygon fill="black" stroke="black" stroke-width="0.75" points="270.81,-31.6 271.23,-26.32 267.61,-30.18 270.81,-31.6"/>
</g>
<!-- 14 -->
<g id="node14" class="node">
<title>14</title>
<polygon fill="none" stroke="black" points="345.89,-24.8 312,-24.8 312,0 345.89,0 345.89,-24.8"/>
<text text-anchor="middle" x="328.94" y="-8.2" font-family="Times,serif" font-size="14.00">3/4</text>
</g>
<!-- 13&#45;&gt;14 -->
<g id="edge13" class="edge">
<title>13&#45;&gt;14</title>
<path fill="none" stroke="black" stroke-width="0.75" d="M328.94,-60.3C328.94,-51.93 328.94,-40.59 328.94,-31.16"/>
<polygon fill="black" stroke="black" stroke-width="0.75" points="330.69,-31.42 328.94,-26.42 327.19,-31.42 330.69,-31.42"/>
</g>
<!-- 15 -->
<g id="node15" class="node">
<title>15</title>
<polygon fill="none" stroke="black" points="397.89,-24.8 364,-24.8 364,0 397.89,0 397.89,-24.8"/>
<text text-anchor="middle" x="380.94" y="-8.2" font-family="Times,serif" font-size="14.00">4/1</text>
</g>
<!-- 13&#45;&gt;15 -->
<g id="edge14" class="edge">
<title>13&#45;&gt;15</title>
<path fill="none" stroke="black" stroke-width="0.75" d="M339.47,-60.3C347.22,-51.53 357.86,-39.5 366.42,-29.82"/>
<polygon fill="black" stroke="black" stroke-width="0.75" points="367.68,-31.04 369.69,-26.13 365.06,-28.72 367.68,-31.04"/>
</g>
</g>
</svg>
