<svg xmlns="http://www.w3.org/2000/svg" width="161.8" height="100.0" viewBox="156.80 195.00 171.80 110.00">
<g fill="none" stroke="black" stroke-width="0.0250%" transform="translate(0, 500.0000) scale(20.0000, -20.0000)">
<polyline points="8.09,10.00 8.09,10.17 8.09,10.34 8.09,10.52 8.09,10.69 8.09,10.86 8.09,11.03 8.09,11.21 8.09,11.38 8.09,11.55 8.09,11.72 8.09,11.90 8.09,12.07 8.09,12.24 8.09,12.41 8.09,12.59 8.09,12.76 8.09,12.93 8.09,13.10 8.09,13.28 8.09,13.45 8.09,13.62 8.09,13.79 8.09,13.97 8.09,14.14 8.09,14.31 8.09,14.48 8.09,14.66 8.09,14.83 8.09,15.00" />
<polyline points="10.11,10.00 10.11,10.17 10.11,10.34 10.11,10.52 10.11,10.69 10.11,10.86 10.11,11.03 10.11,11.21 10.11,11.38 10.11,11.55 10.11,11.72 10.11,11.90 10.11,12.07 10.11,12.24 10.11,12.41 10.11,12.59 10.11,12.76 10.11,12.93 10.11,13.10 10.11,13.28 10.11,13.45 10.11,13.62 10.11,13.79 10.11,13.97 10.11,14.14 10.11,14.31 10.11,14.48 10.11,14.66 10.11,14.83 10.11,15.00" />
<polyline points="12.14,10.00 12.14,10.17 12.14,10.34 12.14,10.52 12.14,10.69 12.14,10.86 12.14,11.03 12.14,11.21 12.14,11.38 12.14,11.55 12.14,11.72 12.14,11.90 12.14,12.07 12.14,12.24 12.14,12.41 12.14,12.59 12.14,12.76 12.14,12.93 12.14,13.10 12.14,13.28 12.14,13.45 12.14,13.62 12.14,13.79 12.14,13.97 12.14,14.14 12.14,14.31 12.14,14.48 12.14,14.66 12.14,14.83 12.14,15.00" />
<polyline points="14.16,10.00 14.16,10.17 14.16,10.34 14.16,10.52 14.16,10.69 14.16,10.86 14.16,11.03 14.16,11.21 14.16,11.38 14.16,11.55 14.16,11.72 14.16,11.90 14.16,12.07 14.16,12.24 14.16,12.41 14.16,12.59 14.16,12.76 14.16,12.93 14.16,13.10 14.16,13.28 14.16,13.45 14.16,13.62 14.16,13.79 14.16,13.97 14.16,14.14 14.16,14.31 14.16,14.48 14.16,14.66 14.16,14.83 14.16,15.00" />
<polyline points="16.18,10.00 16.18,10.17 16.18,10.34 16.18,10.52 16.18,10.69 16.18,10.86 16.18,11.03 16.18,11.21 16.18,11.38 16.18,11.55 16.18,11.72 16.18,11.90 16.18,12.07 16.18,12.24 16.18,12.41 16.18,12.59 16.18,12.76 16.18,12.93 16.18,13.10 16.18,13.28 16.18,13.45 16.18,13.62 16.18,13.79 16.18,13.97 16.18,14.14 16.18,14.31 16.18,14.48 16.18,14.66 16.18,14.83 16.18,15.00" />
<polyline points="8.09,10.00 8.43,10.00 8.76,10.00 9.10,10.00 9.44,10.00 9.78,10.00 10.11,10.00 10.45,10.00 10.79,10.00 11.12,10.00 11.46,10.00 11.80,10.00 12.14,10.00 12.47,10.00 12.81,10.00 13.15,10.00 13.48,10.00 13.82,10.00 14.16,10.00 14.49,10.00 14.83,10.00 15.17,10.00 15.51,10.00 15.84,10.00 16.18,10.00" />
<polyline points="8.09,11.00 8.43,11.00 8.76,11.00 9.10,11.00 9.44,11.00 9.78,11.00 10.11,11.00 10.45,11.00 10.79,11.00 11.12,11.00 11.46,11.00 11.80,11.00 12.14,11.00 12.47,11.00 12.81,11.00 13.15,11.00 13.48,11.00 13.82,11.00 14.16,11.00 14.49,11.00 14.83,11.00 15.17,11.00 15.51,11.00 15.84,11.00 16.18,11.00" />
<polyline points="8.09,12.00 8.43,12.00 8.76,12.00 9.10,12.00 9.44,12.00 9.78,12.00 10.11,12.00 10.45,12.00 10.79,12.00 11.12,12.00 11.46,12.00 11.80,12.00 12.14,12.00 12.47,12.00 12.81,12.00 13.15,12.00 13.48,12.00 13.82,12.00 14.16,12.00 14.49,12.00 14.83,12.00 15.17,12.00 15.51,12.00 15.84,12.00 16.18,12.00" />
<polyline points="8.09,13.00 8.43,13.00 8.76,13.00 9.10,13.00 9.44,13.00 9.78,13.00 10.11,13.00 10.45,13.00 10.79,13.00 11.12,13.00 11.46,13.00 11.80,13.00 12.14,13.00 12.47,13.00 12.81,13.00 13.15,13.00 13.48,13.00 13.82,13.00 14.16,13.00 14.49,13.00 14.83,13.00 15.17,13.00 15.51,13.00 15.84,13.00 16.18,13.00" />
<polyline points="8.09,14.00 8.43,14.00 8.76,14.00 9.10,14.00 9.44,14.00 9.78,14.00 10.11,14.00 10.45,14.00 10.79,14.00 11.12,14.00 11.46,14.00 11.80,14.00 12.14,14.00 12.47,14.00 12.81,14.00 13.15,14.00 13.48,14.00 13.82,14.00 14.16,14.00 14.49,14.00 14.83,14.00 15.17,14.00 15.51,14.00 15.84,14.00 16.18,14.00" />
<polyline points="8.09,15.00 8.43,15.00 8.76,15.00 9.10,15.00 9.44,15.00 9.78,15.00 10.11,15.00 10.45,15.00 10.79,15.00 11.12,15.00 11.46,15.00 11.80,15.00 12.14,15.00 12.47,15.00 12.81,15.00 13.15,15.00 13.48,15.00 13.82,15.00 14.16,15.00 14.49,15.00 14.83,15.00 15.17,15.00 15.51,15.00 15.84,15.00 16.18,15.00" />
</g>
</svg>