<svg xmlns="http://www.w3.org/2000/svg" width="41.6" height="100.0" viewBox="-25.794 -55.000 51.587 110.000">
<g fill="none" stroke="black" stroke-width="0.0133%" transform="translate(0, 0.0000) scale(37.5000, -37.5000)">
<polyline points="0.240,-1.275 0.283,-1.243 0.353,-1.200 0.374,-1.174 0.400,-1.148 0.441,-1.081 0.472,-1.040 0.494,-0.974 0.516,-0.924 0.533,-0.880 0.535,-0.855 0.554,-0.726 0.554,-0.720 0.554,-0.714 0.544,-0.576 0.541,-0.560 0.535,-0.535 0.516,-0.444 0.504,-0.400 0.485,-0.325 0.483,-0.317 0.462,-0.240 0.453,-0.187 0.440,-0.120 0.433,-0.080 0.433,-0.047 0.433,0.047 0.433,0.080 0.440,0.120 0.453,0.187 0.462,0.240 0.483,0.317 0.485,0.325 0.504,0.400 0.516,0.444 0.535,0.535 0.541,0.560 0.544,0.576 0.554,0.714 0.554,0.720 0.554,0.726 0.535,0.855 0.533,0.880 0.516,0.924 0.494,0.974 0.472,1.040 0.441,1.081 0.400,1.148 0.374,1.174 0.353,1.200 0.283,1.243 0.240,1.275 0.177,1.297 0.122,1.318 0.080,1.333 0.053,1.333 -0.053,1.333 -0.080,1.333 -0.122,1.318 -0.177,1.297 -0.240,1.275 -0.283,1.243 -0.353,1.200 -0.374,1.174 -0.400,1.148 -0.441,1.081 -0.472,1.040 -0.494,0.974 -0.516,0.924 -0.533,0.880 -0.535,0.855 -0.554,0.726 -0.554,0.720 -0.554,0.714 -0.544,0.576 -0.541,0.560 -0.535,0.535 -0.516,0.444 -0.504,0.400 -0.485,0.325 -0.483,0.317 -0.462,0.240 -0.453,0.187 -0.440,0.120 -0.433,0.080 -0.433,0.047 -0.433,-0.047 -0.433,-0.080 -0.440,-0.120 -0.453,-0.187 -0.462,-0.240 -0.483,-0.317 -0.485,-0.325 -0.504,-0.400 -0.516,-0.444 -0.535,-0.535 -0.541,-0.560 -0.544,-0.576 -0.554,-0.714 -0.554,-0.720 -0.554,-0.726 -0.535,-0.855 -0.533,-0.880 -0.516,-0.924 -0.494,-0.974 -0.472,-1.040 -0.441,-1.081 -0.400,-1.148 -0.374,-1.174 -0.353,-1.200 -0.283,-1.243 -0.240,-1.275 -0.177,-1.297 -0.122,-1.318 -0.080,-1.333 -0.053,-1.333 0.053,-1.333 0.080,-1.333 0.122,-1.318 0.177,-1.297 0.240,-1.275" />
</g>
</svg>