<svg xmlns="http://www.w3.org/2000/svg" width="161.8" height="100.0" viewBox="-2.813 -5.000 171.803 110.000">
<g fill="none" stroke="black" stroke-width="0.0100%" transform="translate(0, 100.0000) scale(50.0000, -50.0000)">
<polyline points="0.044,1.000 0.087,1.000 0.087,1.000 0.131,1.000 0.131,0.000 0.175,0.000 0.175,1.000 0.219,1.000 0.219,1.000 0.262,1.000 0.262,2.000 0.306,2.000 0.306,0.000 0.350,0.000 0.350,1.000 0.394,1.000 0.394,0.000 0.437,0.000 0.437,0.000 0.481,0.000 0.481,1.000 0.525,1.000 0.525,0.000 0.568,0.000 0.568,1.000 0.612,1.000 0.612,1.000 0.656,1.000 0.656,1.000 0.700,1.000 0.700,0.000 0.743,0.000 0.743,1.000 0.787,1.000 0.787,1.000 0.831,1.000 0.831,1.000 0.875,1.000 0.875,1.000 0.918,1.000 0.918,2.000 0.962,2.000 0.962,0.000 1.006,0.000 1.006,2.000 1.050,2.000 1.050,0.000 1.093,0.000 1.093,0.000 1.137,0.000 1.137,2.000 1.181,2.000 1.181,0.000 1.224,0.000 1.224,1.000 1.268,1.000 1.268,2.000 1.312,2.000 1.312,1.000 1.356,1.000 1.356,0.000 1.399,0.000 1.399,2.000 1.443,2.000 1.443,1.000 1.487,1.000 1.487,1.000 1.531,1.000 1.531,1.000 1.574,1.000 1.574,0.000 1.618,0.000 1.618,0.000 1.662,0.000 1.662,0.000 1.705,0.000 1.705,1.000 1.749,1.000 1.749,0.000 1.793,0.000 1.793,0.000 1.837,0.000 1.837,1.000 1.880,1.000 1.880,1.000 1.924,1.000 1.924,0.000 1.968,0.000 1.968,1.000 2.012,1.000 2.012,0.000 2.055,0.000 2.055,1.000 2.099,1.000 2.099,0.000 2.143,0.000 2.143,1.000 2.187,1.000 2.187,1.000 2.230,1.000 2.230,1.000 2.274,1.000 2.274,0.000 2.318,0.000 2.318,2.000 2.361,2.000 2.361,0.000 2.405,0.000 2.405,1.000 2.449,1.000 2.449,1.000 2.493,1.000 2.493,0.000 2.536,0.000 2.536,0.000 2.580,0.000 2.580,1.000 2.624,1.000 2.624,1.000 2.668,1.000 2.668,0.000 2.711,0.000 2.711,1.000 2.755,1.000 2.755,1.000 2.799,1.000 2.799,1.000 2.842,1.000 2.842,1.000 2.886,1.000 2.886,0.000 2.930,0.000 2.930,1.000 2.974,1.000 2.974,1.000 3.017,1.000 3.017,1.000 3.061,1.000 3.061,1.000 3.105,1.000 3.105,1.000 3.149,1.000 3.149,1.000 3.192,1.000 3.192,2.000 3.236,2.000 3.236,0.000 3.280,0.000" />
</g>
</svg>