<svg xmlns="http://www.w3.org/2000/svg" width="161.8" height="100.0" viewBox="-4.46 -5.00 171.80 110.00">
<g fill="none" stroke="black" stroke-width="0.1100%" transform="translate(0, 100.0000) scale(4.5455, -4.5455)">
<circle cx="0.12" cy="0.00" r="0.11" />
<circle cx="0.24" cy="0.00" r="0.11" />
<circle cx="0.36" cy="1.00" r="0.11" />
<circle cx="0.47" cy="1.00" r="0.11" />
<circle cx="0.59" cy="1.00" r="0.11" />
<circle cx="0.71" cy="1.00" r="0.11" />
<circle cx="0.83" cy="1.00" r="0.11" />
<circle cx="0.95" cy="1.00" r="0.11" />
<circle cx="1.07" cy="1.00" r="0.11" />
<circle cx="1.19" cy="1.00" r="0.11" />
<circle cx="1.31" cy="2.00" r="0.11" />
<circle cx="1.42" cy="2.00" r="0.11" />
<circle cx="1.54" cy="3.00" r="0.11" />
<circle cx="1.66" cy="3.00" r="0.11" />
<circle cx="1.78" cy="3.00" r="0.11" />
<circle cx="1.90" cy="3.00" r="0.11" />
<circle cx="2.02" cy="1.00" r="0.11" />
<circle cx="2.14" cy="1.00" r="0.11" />
<circle cx="2.25" cy="1.00" r="0.11" />
<circle cx="2.37" cy="1.00" r="0.11" />
<circle cx="2.49" cy="2.00" r="0.11" />
<circle cx="2.61" cy="2.00" r="0.11" />
<circle cx="2.73" cy="2.00" r="0.11" />
<circle cx="2.85" cy="2.00" r="0.11" />
<circle cx="2.97" cy="3.00" r="0.11" />
<circle cx="3.09" cy="3.00" r="0.11" />
<circle cx="3.20" cy="3.00" r="0.11" />
<circle cx="3.32" cy="3.00" r="0.11" />
<circle cx="3.44" cy="3.00" r="0.11" />
<circle cx="3.56" cy="3.00" r="0.11" />
<circle cx="3.68" cy="3.00" r="0.11" />
<circle cx="3.80" cy="3.00" r="0.11" />
<circle cx="3.92" cy="2.00" r="0.11" />
<circle cx="4.03" cy="2.00" r="0.11" />
<circle cx="4.15" cy="2.00" r="0.11" />
<circle cx="4.27" cy="2.00" r="0.11" />
<circle cx="4.39" cy="2.00" r="0.11" />
<circle cx="4.51" cy="2.00" r="0.11" />
<circle cx="4.63" cy="3.00" r="0.11" />
<circle cx="4.75" cy="3.00" r="0.11" />
<circle cx="4.86" cy="3.00" r="0.11" />
<circle cx="4.98" cy="3.00" r="0.11" />
<circle cx="5.10" cy="4.00" r="0.11" />
<circle cx="5.22" cy="4.00" r="0.11" />
<circle cx="5.34" cy="5.00" r="0.11" />
<circle cx="5.46" cy="5.00" r="0.11" />
<circle cx="5.58" cy="5.00" r="0.11" />
<circle cx="5.70" cy="5.00" r="0.11" />
<circle cx="5.81" cy="5.00" r="0.11" />
<circle cx="5.93" cy="5.00" r="0.11" />
<circle cx="6.05" cy="6.00" r="0.11" />
<circle cx="6.17" cy="6.00" r="0.11" />
<circle cx="6.29" cy="7.00" r="0.11" />
<circle cx="6.41" cy="7.00" r="0.11" />
<circle cx="6.53" cy="7.00" r="0.11" />
<circle cx="6.64" cy="7.00" r="0.11" />
<circle cx="6.76" cy="8.00" r="0.11" />
<circle cx="6.88" cy="8.00" r="0.11" />
<circle cx="7.00" cy="8.00" r="0.11" />
<circle cx="7.12" cy="8.00" r="0.11" />
<circle cx="7.24" cy="8.00" r="0.11" />
<circle cx="7.36" cy="8.00" r="0.11" />
<circle cx="7.48" cy="8.00" r="0.11" />
<circle cx="7.59" cy="8.00" r="0.11" />
<circle cx="7.71" cy="2.00" r="0.11" />
<circle cx="7.83" cy="2.00" r="0.11" />
<circle cx="7.95" cy="2.00" r="0.11" />
<circle cx="8.07" cy="2.00" r="0.11" />
<circle cx="8.19" cy="2.00" r="0.11" />
<circle cx="8.31" cy="2.00" r="0.11" />
<circle cx="8.42" cy="2.00" r="0.11" />
<circle cx="8.54" cy="2.00" r="0.11" />
<circle cx="8.66" cy="2.00" r="0.11" />
<circle cx="8.78" cy="2.00" r="0.11" />
<circle cx="8.90" cy="2.00" r="0.11" />
<circle cx="9.02" cy="2.00" r="0.11" />
<circle cx="9.14" cy="3.00" r="0.11" />
<circle cx="9.26" cy="3.00" r="0.11" />
<circle cx="9.37" cy="3.00" r="0.11" />
<circle cx="9.49" cy="3.00" r="0.11" />
<circle cx="9.61" cy="3.00" r="0.11" />
<circle cx="9.73" cy="3.00" r="0.11" />
<circle cx="9.85" cy="3.00" r="0.11" />
<circle cx="9.97" cy="3.00" r="0.11" />
<circle cx="10.09" cy="4.00" r="0.11" />
<circle cx="10.20" cy="4.00" r="0.11" />
<circle cx="10.32" cy="4.00" r="0.11" />
<circle cx="10.44" cy="4.00" r="0.11" />
<circle cx="10.56" cy="5.00" r="0.11" />
<circle cx="10.68" cy="5.00" r="0.11" />
<circle cx="10.80" cy="5.00" r="0.11" />
<circle cx="10.92" cy="5.00" r="0.11" />
<circle cx="11.03" cy="5.00" r="0.11" />
<circle cx="11.15" cy="5.00" r="0.11" />
<circle cx="11.27" cy="5.00" r="0.11" />
<circle cx="11.39" cy="5.00" r="0.11" />
<circle cx="11.51" cy="5.00" r="0.11" />
<circle cx="11.63" cy="5.00" r="0.11" />
<circle cx="11.75" cy="5.00" r="0.11" />
<circle cx="11.87" cy="5.00" r="0.11" />
<circle cx="11.98" cy="6.00" r="0.11" />
<circle cx="12.10" cy="6.00" r="0.11" />
<circle cx="12.22" cy="6.00" r="0.11" />
<circle cx="12.34" cy="6.00" r="0.11" />
<circle cx="12.46" cy="7.00" r="0.11" />
<circle cx="12.58" cy="7.00" r="0.11" />
<circle cx="12.70" cy="7.00" r="0.11" />
<circle cx="12.81" cy="7.00" r="0.11" />
<circle cx="12.93" cy="7.00" r="0.11" />
<circle cx="13.05" cy="7.00" r="0.11" />
<circle cx="13.17" cy="7.00" r="0.11" />
<circle cx="13.29" cy="7.00" r="0.11" />
<circle cx="13.41" cy="8.00" r="0.11" />
<circle cx="13.53" cy="8.00" r="0.11" />
<circle cx="13.65" cy="8.00" r="0.11" />
<circle cx="13.76" cy="8.00" r="0.11" />
<circle cx="13.88" cy="8.00" r="0.11" />
<circle cx="14.00" cy="8.00" r="0.11" />
<circle cx="14.12" cy="8.00" r="0.11" />
<circle cx="14.24" cy="8.00" r="0.11" />
<circle cx="14.36" cy="8.00" r="0.11" />
<circle cx="14.48" cy="8.00" r="0.11" />
<circle cx="14.59" cy="8.00" r="0.11" />
<circle cx="14.71" cy="8.00" r="0.11" />
<circle cx="14.83" cy="8.00" r="0.11" />
<circle cx="14.95" cy="8.00" r="0.11" />
<circle cx="15.07" cy="8.00" r="0.11" />
<circle cx="15.19" cy="8.00" r="0.11" />
<circle cx="15.31" cy="8.00" r="0.11" />
<circle cx="15.43" cy="8.00" r="0.11" />
<circle cx="15.54" cy="7.00" r="0.11" />
<circle cx="15.66" cy="7.00" r="0.11" />
<circle cx="15.78" cy="6.00" r="0.11" />
<circle cx="15.90" cy="6.00" r="0.11" />
<circle cx="16.02" cy="6.00" r="0.11" />
<circle cx="16.14" cy="6.00" r="0.11" />
<circle cx="16.26" cy="5.00" r="0.11" />
<circle cx="16.37" cy="5.00" r="0.11" />
<circle cx="16.49" cy="5.00" r="0.11" />
<circle cx="16.61" cy="5.00" r="0.11" />
<circle cx="16.73" cy="5.00" r="0.11" />
<circle cx="16.85" cy="5.00" r="0.11" />
<circle cx="16.97" cy="6.00" r="0.11" />
<circle cx="17.09" cy="6.00" r="0.11" />
<circle cx="17.21" cy="5.00" r="0.11" />
<circle cx="17.32" cy="5.00" r="0.11" />
<circle cx="17.44" cy="5.00" r="0.11" />
<circle cx="17.56" cy="5.00" r="0.11" />
<circle cx="17.68" cy="5.00" r="0.11" />
<circle cx="17.80" cy="5.00" r="0.11" />
<circle cx="17.92" cy="6.00" r="0.11" />
<circle cx="18.04" cy="6.00" r="0.11" />
<circle cx="18.15" cy="6.00" r="0.11" />
<circle cx="18.27" cy="6.00" r="0.11" />
<circle cx="18.39" cy="7.00" r="0.11" />
<circle cx="18.51" cy="7.00" r="0.11" />
<circle cx="18.63" cy="8.00" r="0.11" />
<circle cx="18.75" cy="8.00" r="0.11" />
<circle cx="18.87" cy="8.00" r="0.11" />
<circle cx="18.98" cy="8.00" r="0.11" />
<circle cx="19.10" cy="7.00" r="0.11" />
<circle cx="19.22" cy="7.00" r="0.11" />
<circle cx="19.34" cy="7.00" r="0.11" />
<circle cx="19.46" cy="7.00" r="0.11" />
<circle cx="19.58" cy="7.00" r="0.11" />
<circle cx="19.70" cy="7.00" r="0.11" />
<circle cx="19.82" cy="8.00" r="0.11" />
<circle cx="19.93" cy="8.00" r="0.11" />
<circle cx="20.05" cy="8.00" r="0.11" />
<circle cx="20.17" cy="8.00" r="0.11" />
<circle cx="20.29" cy="9.00" r="0.11" />
<circle cx="20.41" cy="9.00" r="0.11" />
<circle cx="20.53" cy="10.00" r="0.11" />
<circle cx="20.65" cy="10.00" r="0.11" />
<circle cx="20.76" cy="10.00" r="0.11" />
<circle cx="20.88" cy="10.00" r="0.11" />
<circle cx="21.00" cy="10.00" r="0.11" />
<circle cx="21.12" cy="10.00" r="0.11" />
<circle cx="21.24" cy="11.00" r="0.11" />
<circle cx="21.36" cy="11.00" r="0.11" />
<circle cx="21.48" cy="12.00" r="0.11" />
<circle cx="21.60" cy="12.00" r="0.11" />
<circle cx="21.71" cy="12.00" r="0.11" />
<circle cx="21.83" cy="12.00" r="0.11" />
<circle cx="21.95" cy="13.00" r="0.11" />
<circle cx="22.07" cy="13.00" r="0.11" />
<circle cx="22.19" cy="13.00" r="0.11" />
<circle cx="22.31" cy="13.00" r="0.11" />
<circle cx="22.43" cy="13.00" r="0.11" />
<circle cx="22.54" cy="13.00" r="0.11" />
<circle cx="22.66" cy="13.00" r="0.11" />
<circle cx="22.78" cy="13.00" r="0.11" />
<circle cx="22.90" cy="12.00" r="0.11" />
<circle cx="23.02" cy="12.00" r="0.11" />
<circle cx="23.14" cy="12.00" r="0.11" />
<circle cx="23.26" cy="12.00" r="0.11" />
<circle cx="23.38" cy="12.00" r="0.11" />
<circle cx="23.49" cy="12.00" r="0.11" />
<circle cx="23.61" cy="13.00" r="0.11" />
<circle cx="23.73" cy="13.00" r="0.11" />
<circle cx="23.85" cy="13.00" r="0.11" />
<circle cx="23.97" cy="13.00" r="0.11" />
<circle cx="24.09" cy="14.00" r="0.11" />
<circle cx="24.21" cy="14.00" r="0.11" />
<circle cx="24.32" cy="15.00" r="0.11" />
<circle cx="24.44" cy="15.00" r="0.11" />
<circle cx="24.56" cy="15.00" r="0.11" />
<circle cx="24.68" cy="15.00" r="0.11" />
<circle cx="24.80" cy="15.00" r="0.11" />
<circle cx="24.92" cy="15.00" r="0.11" />
<circle cx="25.04" cy="16.00" r="0.11" />
<circle cx="25.16" cy="16.00" r="0.11" />
<circle cx="25.27" cy="17.00" r="0.11" />
<circle cx="25.39" cy="17.00" r="0.11" />
<circle cx="25.51" cy="17.00" r="0.11" />
<circle cx="25.63" cy="17.00" r="0.11" />
<circle cx="25.75" cy="18.00" r="0.11" />
<circle cx="25.87" cy="18.00" r="0.11" />
<circle cx="25.99" cy="18.00" r="0.11" />
<circle cx="26.10" cy="18.00" r="0.11" />
<circle cx="26.22" cy="18.00" r="0.11" />
<circle cx="26.34" cy="18.00" r="0.11" />
<circle cx="26.46" cy="18.00" r="0.11" />
<circle cx="26.58" cy="18.00" r="0.11" />
<circle cx="26.70" cy="18.00" r="0.11" />
<circle cx="26.82" cy="18.00" r="0.11" />
<circle cx="26.93" cy="19.00" r="0.11" />
<circle cx="27.05" cy="19.00" r="0.11" />
<circle cx="27.17" cy="20.00" r="0.11" />
<circle cx="27.29" cy="20.00" r="0.11" />
<circle cx="27.41" cy="20.00" r="0.11" />
<circle cx="27.53" cy="20.00" r="0.11" />
<circle cx="27.65" cy="21.00" r="0.11" />
<circle cx="27.77" cy="21.00" r="0.11" />
<circle cx="27.88" cy="21.00" r="0.11" />
<circle cx="28.00" cy="21.00" r="0.11" />
<circle cx="28.12" cy="21.00" r="0.11" />
<circle cx="28.24" cy="21.00" r="0.11" />
<circle cx="28.36" cy="21.00" r="0.11" />
<circle cx="28.48" cy="21.00" r="0.11" />
<circle cx="28.60" cy="22.00" r="0.11" />
<circle cx="28.71" cy="22.00" r="0.11" />
<circle cx="28.83" cy="22.00" r="0.11" />
<circle cx="28.95" cy="22.00" r="0.11" />
<circle cx="29.07" cy="22.00" r="0.11" />
<circle cx="29.19" cy="22.00" r="0.11" />
<circle cx="29.31" cy="22.00" r="0.11" />
<circle cx="29.43" cy="22.00" r="0.11" />
<circle cx="29.55" cy="22.00" r="0.11" />
<circle cx="29.66" cy="22.00" r="0.11" />
<circle cx="29.78" cy="22.00" r="0.11" />
<circle cx="29.90" cy="22.00" r="0.11" />
<circle cx="30.02" cy="22.00" r="0.11" />
<circle cx="30.14" cy="22.00" r="0.11" />
<circle cx="30.26" cy="22.00" r="0.11" />
<circle cx="30.38" cy="22.00" r="0.11" />
<circle cx="30.49" cy="8.00" r="0.11" />
<circle cx="30.61" cy="8.00" r="0.11" />
<circle cx="30.73" cy="8.00" r="0.11" />
<circle cx="30.85" cy="8.00" r="0.11" />
<circle cx="30.97" cy="7.00" r="0.11" />
<circle cx="31.09" cy="7.00" r="0.11" />
<circle cx="31.21" cy="7.00" r="0.11" />
<circle cx="31.33" cy="7.00" r="0.11" />
<circle cx="31.44" cy="6.00" r="0.11" />
<circle cx="31.56" cy="6.00" r="0.11" />
<circle cx="31.68" cy="6.00" r="0.11" />
<circle cx="31.80" cy="6.00" r="0.11" />
<circle cx="31.92" cy="6.00" r="0.11" />
<circle cx="32.04" cy="6.00" r="0.11" />
<circle cx="32.16" cy="6.00" r="0.11" />
<circle cx="32.27" cy="6.00" r="0.11" />
<circle cx="32.39" cy="5.00" r="0.11" />
<circle cx="32.51" cy="5.00" r="0.11" />
<circle cx="32.63" cy="5.00" r="0.11" />
<circle cx="32.75" cy="5.00" r="0.11" />
<circle cx="32.87" cy="5.00" r="0.11" />
<circle cx="32.99" cy="5.00" r="0.11" />
<circle cx="33.10" cy="5.00" r="0.11" />
<circle cx="33.22" cy="5.00" r="0.11" />
<circle cx="33.34" cy="5.00" r="0.11" />
<circle cx="33.46" cy="5.00" r="0.11" />
<circle cx="33.58" cy="5.00" r="0.11" />
<circle cx="33.70" cy="5.00" r="0.11" />
<circle cx="33.82" cy="6.00" r="0.11" />
<circle cx="33.94" cy="6.00" r="0.11" />
<circle cx="34.05" cy="6.00" r="0.11" />
<circle cx="34.17" cy="6.00" r="0.11" />
<circle cx="34.29" cy="5.00" r="0.11" />
<circle cx="34.41" cy="5.00" r="0.11" />
<circle cx="34.53" cy="5.00" r="0.11" />
<circle cx="34.65" cy="5.00" r="0.11" />
<circle cx="34.77" cy="5.00" r="0.11" />
<circle cx="34.88" cy="5.00" r="0.11" />
<circle cx="35.00" cy="5.00" r="0.11" />
<circle cx="35.12" cy="5.00" r="0.11" />
<circle cx="35.24" cy="5.00" r="0.11" />
<circle cx="35.36" cy="5.00" r="0.11" />
<circle cx="35.48" cy="5.00" r="0.11" />
<circle cx="35.60" cy="5.00" r="0.11" />
<circle cx="35.72" cy="6.00" r="0.11" />
</g>
</svg>