<svg xmlns="http://www.w3.org/2000/svg" width="161.8" height="100.0" viewBox="-85.902 46.251 171.803 110.000">
<g fill="none" stroke="black" stroke-width="0.0098%" transform="translate(0, 202.5017) scale(51.2508, -51.2508)">
<polyline points="-1.579,2.951 -1.547,2.856 -1.515,2.764 -1.484,2.676 -1.452,2.591 -1.421,2.509 -1.389,2.430 -1.358,2.355 -1.326,2.282 -1.294,2.211 -1.263,2.144 -1.231,2.079 -1.200,2.017 -1.168,1.957 -1.137,1.899 -1.105,1.844 -1.073,1.791 -1.042,1.740 -1.010,1.691 -0.979,1.645 -0.947,1.600 -0.916,1.558 -0.884,1.517 -0.852,1.478 -0.821,1.441 -0.789,1.406 -0.758,1.372 -0.726,1.340 -0.695,1.310 -0.663,1.281 -0.631,1.254 -0.600,1.228 -0.568,1.204 -0.537,1.181 -0.505,1.160 -0.474,1.140 -0.442,1.122 -0.410,1.105 -0.379,1.089 -0.347,1.075 -0.316,1.062 -0.284,1.050 -0.253,1.039 -0.221,1.030 -0.189,1.022 -0.158,1.015 -0.126,1.010 -0.095,1.005 -0.063,1.002 -0.032,1.001 0.000,1.000 0.032,1.001 0.063,1.002 0.095,1.005 0.126,1.010 0.158,1.015 0.189,1.022 0.221,1.030 0.253,1.039 0.284,1.050 0.316,1.062 0.347,1.075 0.379,1.089 0.410,1.105 0.442,1.122 0.474,1.140 0.505,1.160 0.537,1.181 0.568,1.204 0.600,1.228 0.631,1.254 0.663,1.281 0.695,1.310 0.726,1.340 0.758,1.372 0.789,1.406 0.821,1.441 0.852,1.478 0.884,1.517 0.916,1.558 0.947,1.600 0.979,1.645 1.010,1.691 1.042,1.740 1.073,1.791 1.105,1.844 1.137,1.899 1.168,1.957 1.200,2.017 1.231,2.079 1.263,2.144 1.294,2.211 1.326,2.282 1.358,2.355 1.389,2.430 1.421,2.509 1.452,2.591 1.484,2.676 1.515,2.764 1.547,2.856 1.579,2.951" />
<polyline points="-1.579,2.509 -1.547,2.438 -1.515,2.369 -1.484,2.303 -1.452,2.239 -1.421,2.177 -1.389,2.118 -1.358,2.060 -1.326,2.004 -1.294,1.951 -1.263,1.899 -1.231,1.849 -1.200,1.801 -1.168,1.755 -1.137,1.711 -1.105,1.668 -1.073,1.627 -1.042,1.587 -1.010,1.549 -0.979,1.513 -0.947,1.478 -0.916,1.445 -0.884,1.412 -0.852,1.382 -0.821,1.353 -0.789,1.325 -0.758,1.298 -0.726,1.273 -0.695,1.249 -0.663,1.226 -0.631,1.204 -0.600,1.183 -0.568,1.164 -0.537,1.146 -0.505,1.129 -0.474,1.113 -0.442,1.098 -0.410,1.085 -0.379,1.072 -0.347,1.060 -0.316,1.050 -0.284,1.040 -0.253,1.032 -0.221,1.024 -0.189,1.018 -0.158,1.012 -0.126,1.008 -0.095,1.004 -0.063,1.002 -0.032,1.000 0.000,1.000 0.032,1.000 0.063,1.002 0.095,1.004 0.126,1.008 0.158,1.012 0.189,1.018 0.221,1.024 0.253,1.032 0.284,1.040 0.316,1.050 0.347,1.060 0.379,1.072 0.410,1.085 0.442,1.098 0.474,1.113 0.505,1.129 0.537,1.146 0.568,1.164 0.600,1.183 0.631,1.204 0.663,1.226 0.695,1.249 0.726,1.273 0.758,1.298 0.789,1.325 0.821,1.353 0.852,1.382 0.884,1.412 0.916,1.445 0.947,1.478 0.979,1.513 1.010,1.549 1.042,1.587 1.073,1.627 1.105,1.668 1.137,1.711 1.168,1.755 1.200,1.801 1.231,1.849 1.263,1.899 1.294,1.951 1.326,2.004 1.358,2.060 1.389,2.118 1.421,2.177 1.452,2.239 1.484,2.303 1.515,2.369 1.547,2.438 1.579,2.509" />
<polyline points="-1.579,2.087 -1.547,2.038 -1.515,1.990 -1.484,1.944 -1.452,1.899 -1.421,1.856 -1.389,1.814 -1.358,1.773 -1.326,1.734 -1.294,1.696 -1.263,1.659 -1.231,1.623 -1.200,1.589 -1.168,1.556 -1.137,1.524 -1.105,1.493 -1.073,1.463 -1.042,1.435 -1.010,1.407 -0.979,1.381 -0.947,1.355 -0.916,1.331 -0.884,1.307 -0.852,1.285 -0.821,1.263 -0.789,1.242 -0.758,1.223 -0.726,1.204 -0.695,1.186 -0.663,1.169 -0.631,1.153 -0.600,1.138 -0.568,1.123 -0.537,1.110 -0.505,1.097 -0.474,1.085 -0.442,1.074 -0.410,1.064 -0.379,1.054 -0.347,1.045 -0.316,1.038 -0.284,1.030 -0.253,1.024 -0.221,1.018 -0.189,1.013 -0.158,1.009 -0.126,1.006 -0.095,1.003 -0.063,1.001 -0.032,1.000 0.000,1.000 0.032,1.000 0.063,1.001 0.095,1.003 0.126,1.006 0.158,1.009 0.189,1.013 0.221,1.018 0.253,1.024 0.284,1.030 0.316,1.038 0.347,1.045 0.379,1.054 0.410,1.064 0.442,1.074 0.474,1.085 0.505,1.097 0.537,1.110 0.568,1.123 0.600,1.138 0.631,1.153 0.663,1.169 0.695,1.186 0.726,1.204 0.758,1.223 0.789,1.242 0.821,1.263 0.852,1.285 0.884,1.307 0.916,1.331 0.947,1.355 0.979,1.381 1.010,1.407 1.042,1.435 1.073,1.463 1.105,1.493 1.137,1.524 1.168,1.556 1.200,1.589 1.231,1.623 1.263,1.659 1.294,1.696 1.326,1.734 1.358,1.773 1.389,1.814 1.421,1.856 1.452,1.899 1.484,1.944 1.515,1.990 1.547,2.038 1.579,2.087" />
<polyline points="-1.579,1.899 -1.547,1.859 -1.515,1.820 -1.484,1.783 -1.452,1.746 -1.421,1.711 -1.389,1.676 -1.358,1.643 -1.326,1.611 -1.294,1.580 -1.263,1.549 -1.231,1.520 -1.200,1.492 -1.168,1.464 -1.137,1.438 -1.105,1.412 -1.073,1.388 -1.042,1.364 -1.010,1.341 -0.979,1.319 -0.947,1.298 -0.916,1.278 -0.884,1.258 -0.852,1.239 -0.821,1.221 -0.789,1.204 -0.758,1.187 -0.726,1.172 -0.695,1.157 -0.663,1.143 -0.631,1.129 -0.600,1.116 -0.568,1.104 -0.537,1.093 -0.505,1.082 -0.474,1.072 -0.442,1.063 -0.410,1.054 -0.379,1.046 -0.347,1.038 -0.316,1.032 -0.284,1.026 -0.253,1.020 -0.221,1.016 -0.189,1.011 -0.158,1.008 -0.126,1.005 -0.095,1.003 -0.063,1.001 -0.032,1.000 0.000,1.000 0.032,1.000 0.063,1.001 0.095,1.003 0.126,1.005 0.158,1.008 0.189,1.011 0.221,1.016 0.253,1.020 0.284,1.026 0.316,1.032 0.347,1.038 0.379,1.046 0.410,1.054 0.442,1.063 0.474,1.072 0.505,1.082 0.537,1.093 0.568,1.104 0.600,1.116 0.631,1.129 0.663,1.143 0.695,1.157 0.726,1.172 0.758,1.187 0.789,1.204 0.821,1.221 0.852,1.239 0.884,1.258 0.916,1.278 0.947,1.298 0.979,1.319 1.010,1.341 1.042,1.364 1.073,1.388 1.105,1.412 1.137,1.438 1.168,1.464 1.200,1.492 1.231,1.520 1.263,1.549 1.294,1.580 1.326,1.611 1.358,1.643 1.389,1.676 1.421,1.711 1.452,1.746 1.484,1.783 1.515,1.820 1.547,1.859 1.579,1.899" />
</g>
</svg>