<svg xmlns="http://www.w3.org/2000/svg" width="161.8" height="100.0" viewBox="-3.64 -5.00 171.80 110.00">
<g fill="none" stroke="black" stroke-width="0.0250%" transform="translate(0, 100.0000) scale(20.0000, -20.0000)">
<circle cx="0.07" cy="0.00" r="0.03" />


<line x1="0.20" y1="0.00" x2="0.20" y2="1.00" />


<line x1="0.41" y1="0.00" x2="0.41" y2="1.00" />

<line x1="0.54" y1="0.00" x2="0.54" y2="2.00" />

<line x1="0.68" y1="0.00" x2="0.68" y2="1.00" />


<line x1="0.88" y1="0.00" x2="0.88" y2="1.00" />

<line x1="1.02" y1="0.00" x2="1.02" y2="2.00" />

<line x1="1.16" y1="0.00" x2="1.16" y2="1.00" />

<line x1="1.29" y1="0.00" x2="1.29" y2="3.00" />

<line x1="1.43" y1="0.00" x2="1.43" y2="1.00" />

<line x1="1.56" y1="0.00" x2="1.56" y2="2.00" />

<line x1="1.70" y1="0.00" x2="1.70" y2="1.00" />


<line x1="1.90" y1="0.00" x2="1.90" y2="1.00" />

<line x1="2.04" y1="0.00" x2="2.04" y2="2.00" />

<line x1="2.18" y1="0.00" x2="2.18" y2="1.00" />

<line x1="2.31" y1="0.00" x2="2.31" y2="3.00" />

<line x1="2.45" y1="0.00" x2="2.45" y2="1.00" />

<line x1="2.58" y1="0.00" x2="2.58" y2="2.00" />

<line x1="2.72" y1="0.00" x2="2.72" y2="1.00" />

<line x1="2.86" y1="0.00" x2="2.86" y2="4.00" />

<line x1="2.99" y1="0.00" x2="2.99" y2="1.00" />

<line x1="3.13" y1="0.00" x2="3.13" y2="2.00" />

<line x1="3.26" y1="0.00" x2="3.26" y2="1.00" />

<line x1="3.40" y1="0.00" x2="3.40" y2="3.00" />

<line x1="3.54" y1="0.00" x2="3.54" y2="1.00" />

<line x1="3.67" y1="0.00" x2="3.67" y2="2.00" />

<line x1="3.81" y1="0.00" x2="3.81" y2="1.00" />


<line x1="4.01" y1="0.00" x2="4.01" y2="1.00" />

<line x1="4.15" y1="0.00" x2="4.15" y2="2.00" />

<line x1="4.28" y1="0.00" x2="4.28" y2="1.00" />

<line x1="4.42" y1="0.00" x2="4.42" y2="3.00" />

<line x1="4.55" y1="0.00" x2="4.55" y2="1.00" />

<line x1="4.69" y1="0.00" x2="4.69" y2="2.00" />

<line x1="4.83" y1="0.00" x2="4.83" y2="1.00" />

<line x1="4.96" y1="0.00" x2="4.96" y2="4.00" />

<line x1="5.10" y1="0.00" x2="5.10" y2="1.00" />

<line x1="5.23" y1="0.00" x2="5.23" y2="2.00" />

<line x1="5.37" y1="0.00" x2="5.37" y2="1.00" />

<line x1="5.51" y1="0.00" x2="5.51" y2="3.00" />

<line x1="5.64" y1="0.00" x2="5.64" y2="1.00" />

<line x1="5.78" y1="0.00" x2="5.78" y2="2.00" />

<line x1="5.91" y1="0.00" x2="5.91" y2="1.00" />

<line x1="6.05" y1="0.00" x2="6.05" y2="5.00" />

<line x1="6.19" y1="0.00" x2="6.19" y2="1.00" />

<line x1="6.32" y1="0.00" x2="6.32" y2="2.00" />

<line x1="6.46" y1="0.00" x2="6.46" y2="1.00" />

<line x1="6.59" y1="0.00" x2="6.59" y2="3.00" />

<line x1="6.73" y1="0.00" x2="6.73" y2="1.00" />

<line x1="6.87" y1="0.00" x2="6.87" y2="2.00" />

<line x1="7.00" y1="0.00" x2="7.00" y2="1.00" />

<line x1="7.14" y1="0.00" x2="7.14" y2="4.00" />

<line x1="7.27" y1="0.00" x2="7.27" y2="1.00" />

<line x1="7.41" y1="0.00" x2="7.41" y2="2.00" />

<line x1="7.55" y1="0.00" x2="7.55" y2="1.00" />

<line x1="7.68" y1="0.00" x2="7.68" y2="3.00" />

<line x1="7.82" y1="0.00" x2="7.82" y2="1.00" />

<line x1="7.95" y1="0.00" x2="7.95" y2="2.00" />

<line x1="8.09" y1="0.00" x2="8.09" y2="1.00" />

</g>
</svg>