<svg xmlns="http://www.w3.org/2000/svg" width="161.8" height="100.0" viewBox="-86.719 53.540 171.803 110.000">
<g fill="none" stroke="black" stroke-width="0.0081%" transform="translate(0, 217.0801) scale(61.6211, -61.6211)">
<polyline points="-1.326,2.573 -1.300,2.495 -1.273,2.420 -1.247,2.348 -1.220,2.278 -1.194,2.211 -1.167,2.146 -1.140,2.084 -1.114,2.023 -1.087,1.965 -1.061,1.910 -1.034,1.856 -1.008,1.804 -0.981,1.754 -0.955,1.707 -0.928,1.661 -0.902,1.616 -0.875,1.574 -0.849,1.533 -0.822,1.494 -0.796,1.457 -0.769,1.421 -0.743,1.387 -0.716,1.355 -0.690,1.323 -0.663,1.294 -0.637,1.265 -0.610,1.238 -0.584,1.213 -0.557,1.188 -0.530,1.165 -0.504,1.144 -0.477,1.123 -0.451,1.104 -0.424,1.086 -0.398,1.069 -0.371,1.054 -0.345,1.039 -0.318,1.026 -0.292,1.014 -0.265,1.002 -0.239,0.992 -0.212,0.983 -0.186,0.976 -0.159,0.969 -0.133,0.963 -0.106,0.958 -0.080,0.955 -0.053,0.952 -0.027,0.951 0.000,0.950 0.027,0.951 0.053,0.952 0.080,0.955 0.106,0.958 0.133,0.963 0.159,0.969 0.186,0.976 0.212,0.983 0.239,0.992 0.265,1.002 0.292,1.014 0.318,1.026 0.345,1.039 0.371,1.054 0.398,1.069 0.424,1.086 0.451,1.104 0.477,1.123 0.504,1.144 0.530,1.165 0.557,1.188 0.584,1.213 0.610,1.238 0.637,1.265 0.663,1.294 0.690,1.323 0.716,1.355 0.743,1.387 0.769,1.421 0.796,1.457 0.822,1.494 0.849,1.533 0.875,1.574 0.902,1.616 0.928,1.661 0.955,1.707 0.981,1.754 1.008,1.804 1.034,1.856 1.061,1.910 1.087,1.965 1.114,2.023 1.140,2.084 1.167,2.146 1.194,2.211 1.220,2.278 1.247,2.348 1.273,2.420 1.300,2.495" />
<polyline points="-1.326,2.509 -1.300,2.438 -1.273,2.369 -1.247,2.303 -1.220,2.239 -1.194,2.177 -1.167,2.118 -1.140,2.060 -1.114,2.004 -1.087,1.951 -1.061,1.899 -1.034,1.849 -1.008,1.801 -0.981,1.755 -0.955,1.711 -0.928,1.668 -0.902,1.627 -0.875,1.587 -0.849,1.549 -0.822,1.513 -0.796,1.478 -0.769,1.445 -0.743,1.412 -0.716,1.382 -0.690,1.353 -0.663,1.325 -0.637,1.298 -0.610,1.273 -0.584,1.249 -0.557,1.226 -0.530,1.204 -0.504,1.183 -0.477,1.164 -0.451,1.146 -0.424,1.129 -0.398,1.113 -0.371,1.098 -0.345,1.085 -0.318,1.072 -0.292,1.060 -0.265,1.050 -0.239,1.040 -0.212,1.032 -0.186,1.024 -0.159,1.018 -0.133,1.012 -0.106,1.008 -0.080,1.004 -0.053,1.002 -0.027,1.000 0.000,1.000 0.027,1.000 0.053,1.002 0.080,1.004 0.106,1.008 0.133,1.012 0.159,1.018 0.186,1.024 0.212,1.032 0.239,1.040 0.265,1.050 0.292,1.060 0.318,1.072 0.345,1.085 0.371,1.098 0.398,1.113 0.424,1.129 0.451,1.146 0.477,1.164 0.504,1.183 0.530,1.204 0.557,1.226 0.584,1.249 0.610,1.273 0.637,1.298 0.663,1.325 0.690,1.353 0.716,1.382 0.743,1.412 0.769,1.445 0.796,1.478 0.822,1.513 0.849,1.549 0.875,1.587 0.902,1.627 0.928,1.668 0.955,1.711 0.981,1.755 1.008,1.801 1.034,1.849 1.061,1.899 1.087,1.951 1.114,2.004 1.140,2.060 1.167,2.118 1.194,2.177 1.220,2.239 1.247,2.303 1.273,2.369 1.300,2.438" />
<polyline points="-1.326,2.400 -1.300,2.344 -1.273,2.289 -1.247,2.236 -1.220,2.184 -1.194,2.134 -1.167,2.086 -1.140,2.039 -1.114,1.994 -1.087,1.950 -1.061,1.908 -1.034,1.867 -1.008,1.827 -0.981,1.789 -0.955,1.752 -0.928,1.717 -0.902,1.683 -0.875,1.650 -0.849,1.618 -0.822,1.588 -0.796,1.558 -0.769,1.530 -0.743,1.503 -0.716,1.477 -0.690,1.452 -0.663,1.429 -0.637,1.406 -0.610,1.385 -0.584,1.364 -0.557,1.344 -0.530,1.326 -0.504,1.308 -0.477,1.292 -0.451,1.276 -0.424,1.262 -0.398,1.248 -0.371,1.235 -0.345,1.223 -0.318,1.212 -0.292,1.202 -0.265,1.193 -0.239,1.185 -0.212,1.178 -0.186,1.171 -0.159,1.165 -0.133,1.161 -0.106,1.157 -0.080,1.154 -0.053,1.152 -0.027,1.150 0.000,1.150 0.027,1.150 0.053,1.152 0.080,1.154 0.106,1.157 0.133,1.161 0.159,1.165 0.186,1.171 0.212,1.178 0.239,1.185 0.265,1.193 0.292,1.202 0.318,1.212 0.345,1.223 0.371,1.235 0.398,1.248 0.424,1.262 0.451,1.276 0.477,1.292 0.504,1.308 0.530,1.326 0.557,1.344 0.584,1.364 0.610,1.385 0.637,1.406 0.663,1.429 0.690,1.452 0.716,1.477 0.743,1.503 0.769,1.530 0.796,1.558 0.822,1.588 0.849,1.618 0.875,1.650 0.902,1.683 0.928,1.717 0.955,1.752 0.981,1.789 1.008,1.827 1.034,1.867 1.061,1.908 1.087,1.950 1.114,1.994 1.140,2.039 1.167,2.086 1.194,2.134 1.220,2.184 1.247,2.236 1.273,2.289 1.300,2.344" />
<polyline points="-1.326,2.374 -1.300,2.324 -1.273,2.275 -1.247,2.228 -1.220,2.183 -1.194,2.138 -1.167,2.095 -1.140,2.054 -1.114,2.014 -1.087,1.974 -1.061,1.937 -1.034,1.900 -1.008,1.865 -0.981,1.831 -0.955,1.798 -0.928,1.766 -0.902,1.735 -0.875,1.705 -0.849,1.677 -0.822,1.649 -0.796,1.622 -0.769,1.597 -0.743,1.572 -0.716,1.549 -0.690,1.527 -0.663,1.505 -0.637,1.484 -0.610,1.465 -0.584,1.446 -0.557,1.428 -0.530,1.411 -0.504,1.395 -0.477,1.380 -0.451,1.366 -0.424,1.352 -0.398,1.340 -0.371,1.328 -0.345,1.317 -0.318,1.307 -0.292,1.298 -0.265,1.290 -0.239,1.282 -0.212,1.275 -0.186,1.269 -0.159,1.264 -0.133,1.260 -0.106,1.256 -0.080,1.254 -0.053,1.252 -0.027,1.250 0.000,1.250 0.027,1.250 0.053,1.252 0.080,1.254 0.106,1.256 0.133,1.260 0.159,1.264 0.186,1.269 0.212,1.275 0.239,1.282 0.265,1.290 0.292,1.298 0.318,1.307 0.345,1.317 0.371,1.328 0.398,1.340 0.424,1.352 0.451,1.366 0.477,1.380 0.504,1.395 0.530,1.411 0.557,1.428 0.584,1.446 0.610,1.465 0.637,1.484 0.663,1.505 0.690,1.527 0.716,1.549 0.743,1.572 0.769,1.597 0.796,1.622 0.822,1.649 0.849,1.677 0.875,1.705 0.902,1.735 0.928,1.766 0.955,1.798 0.981,1.831 1.008,1.865 1.034,1.900 1.061,1.937 1.087,1.974 1.114,2.014 1.140,2.054 1.167,2.095 1.194,2.138 1.220,2.183 1.247,2.228 1.273,2.275 1.300,2.324" />
</g>
</svg>