<svg xmlns="http://www.w3.org/2000/svg" width="161.8" height="100.0" viewBox="-3.349 -75.055 171.803 110.000">
<g fill="none" stroke="black" stroke-width="0.0071%" transform="translate(0, -40.1103) scale(70.0551, -70.0551)">
<circle cx="0.024" cy="0.000" r="0.007" />
<polyline points="0.024,0.021 0.047,-0.009 0.071,0.008 0.094,-0.076 0.118,0.058 0.141,0.002 0.165,0.003 0.189,-0.001 0.212,0.008 0.236,0.001 0.259,-0.009 0.283,-0.031 0.306,0.029 0.330,0.039 0.354,0.200 0.377,0.300 0.401,-0.085 0.424,0.019 0.448,-0.015 0.471,-0.542 0.495,-0.004 0.518,0.012 0.542,-0.004 0.566,0.019 0.589,-0.009 0.613,-0.097 0.636,0.021 0.660,0.285 0.683,-0.008 0.707,0.231 0.731,-0.032 0.754,-0.107 0.778,-0.024 0.801,-0.136 0.825,0.005 0.848,-0.011 0.872,-0.015 0.896,-0.080 0.919,-0.088 0.943,-0.259 0.966,-0.052 0.990,0.039 1.013,0.126 1.037,0.106 1.061,0.005 1.084,-0.020 1.108,0.038 1.131,-0.001 1.155,0.005 1.178,0.039 1.202,-0.069 1.226,-0.003 1.249,-0.026 1.273,-0.011 1.296,0.018 1.320,0.010 1.343,0.010 1.367,-0.169 1.391,0.013 1.414,-0.149 1.438,-0.023 1.461,-0.053 1.485,0.021 1.508,-0.064 1.532,-0.057 1.555,-0.077 1.579,-0.019 1.603,-0.018 1.626,-0.071 1.650,-0.015 1.673,0.392 1.697,0.004 1.720,-0.103 1.744,0.055 1.768,0.098 1.791,0.016 1.815,0.427 1.838,-1.000 1.862,-1.000 1.885,-0.075 1.909,-0.056 1.933,-0.021 1.956,0.021 1.980,0.014 2.003,0.008 2.027,0.018 2.050,0.029 2.074,-0.007 2.098,0.044 2.121,-0.005 2.145,-0.046 2.168,0.051 2.192,-0.016 2.215,0.065 2.239,0.028 2.263,0.026 2.286,0.007 2.310,0.044 2.333,0.023" />
</g>
</svg>