<svg xmlns="http://www.w3.org/2000/svg" width="161.8" height="100.0" viewBox="-86.719 5.788 171.803 110.000">
<g fill="none" stroke="black" stroke-width="0.0041%" transform="translate(0, 121.5769) scale(121.7855, -121.7855)">
<circle cx="0.000" cy="0.910" r="0.004" />
<polyline points="-0.671,0.089 -0.658,0.090 -0.644,0.092 -0.631,0.094 -0.617,0.096 -0.604,0.098 -0.590,0.100 -0.577,0.102 -0.564,0.104 -0.550,0.107 -0.537,0.109 -0.523,0.112 -0.510,0.114 -0.497,0.117 -0.483,0.120 -0.470,0.123 -0.456,0.127 -0.443,0.130 -0.429,0.134 -0.416,0.137 -0.403,0.141 -0.389,0.146 -0.376,0.150 -0.362,0.155 -0.349,0.160 -0.336,0.165 -0.322,0.171 -0.309,0.177 -0.295,0.183 -0.282,0.190 -0.268,0.197 -0.255,0.205 -0.242,0.214 -0.228,0.222 -0.215,0.232 -0.201,0.242 -0.188,0.253 -0.174,0.265 -0.161,0.278 -0.148,0.291 -0.134,0.306 -0.121,0.321 -0.107,0.338 -0.094,0.355 -0.081,0.373 -0.067,0.393 -0.054,0.413 -0.040,0.434 -0.027,0.456 -0.013,0.478 -0.000,0.500 0.013,0.522 0.027,0.544 0.040,0.566 0.054,0.587 0.067,0.607 0.081,0.627 0.094,0.645 0.107,0.662 0.121,0.679 0.134,0.694 0.148,0.709 0.161,0.722 0.174,0.735 0.188,0.747 0.201,0.758 0.215,0.768 0.228,0.778 0.242,0.786 0.255,0.795 0.268,0.803 0.282,0.810 0.295,0.817 0.309,0.823 0.322,0.829 0.336,0.835 0.349,0.840 0.362,0.845 0.376,0.850 0.389,0.854 0.403,0.859 0.416,0.863 0.429,0.866 0.443,0.870 0.456,0.873 0.470,0.877 0.483,0.880 0.497,0.883 0.510,0.886 0.523,0.888 0.537,0.891 0.550,0.893 0.564,0.896 0.577,0.898 0.590,0.900 0.604,0.902 0.617,0.904 0.631,0.906 0.644,0.908 0.658,0.910" />
</g>
</svg>