<svg xmlns="http://www.w3.org/2000/svg" width="161.8" height="100.0" viewBox="4.0 -32.4 171.8 110.0">
<g fill="none" stroke="black" stroke-width="0.2210%" transform="translate(0, 45.2527) scale(2.2626, -2.2626)">
<polyline points="4.0,-12.1 4.7,-8.7 5.4,-6.1 6.1,-4.2 6.8,-2.6 7.5,-1.4 8.3,-0.3 9.0,0.6 9.7,1.3 10.4,2.0 11.1,2.6 11.8,3.1 12.6,3.5 13.3,4.0 14.0,4.3 14.7,4.7 15.4,5.0 16.1,5.3 16.8,5.5 17.6,5.8 18.3,6.0 19.0,6.2 19.7,6.5 20.4,6.7 21.1,6.8 21.9,7.0 22.6,7.2 23.3,7.3 24.0,7.5 24.7,7.6 25.4,7.8 26.1,7.9 26.9,8.0 27.6,8.2 28.3,8.3 29.0,8.4 29.7,8.5 30.4,8.7 31.1,8.8 31.9,8.9 32.6,9.0 33.3,9.1 34.0,9.2 34.7,9.3 35.4,9.4 36.2,9.5 36.9,9.6 37.6,9.7 38.3,9.8 39.0,9.9 39.7,10.0 40.4,10.1 41.2,10.2 41.9,10.3 42.6,10.4 43.3,10.5 44.0,10.6 44.7,10.7 45.4,10.8 46.2,10.9 46.9,11.0 47.6,11.1 48.3,11.2 49.0,11.3 49.7,11.5 50.5,11.6 51.2,11.7 51.9,11.8 52.6,12.0 53.3,12.1 54.0,12.2 54.7,12.4 55.5,12.5 56.2,12.7 56.9,12.8 57.6,13.0 58.3,13.2 59.0,13.3 59.8,13.5 60.5,13.8 61.2,14.0 61.9,14.2 62.6,14.5 63.3,14.7 64.0,15.0 64.8,15.3 65.5,15.7 66.2,16.0 66.9,16.5 67.6,16.9 68.3,17.4 69.0,18.0 69.8,18.7 70.5,19.4 71.2,20.3 71.9,21.4 72.6,22.6 73.3,24.2 74.1,26.1 74.8,28.7 75.5,32.1" />
</g>
</svg>