<?xml version="1.0" encoding="UTF-8" standalone="no"?>
<!DOCTYPE svg PUBLIC "-//W3C//DTD SVG 1.1//EN"
 "http://www.w3.org/Graphics/SVG/1.1/DTD/svg11.dtd">
<!-- Generated by graphviz version 12.0.0 (0)
 -->
<!-- Pages: 1 -->
<svg width="50pt" height="54pt"
 viewBox="0.00 0.00 50.10 54.00" xmlns="http://www.w3.org/2000/svg" xmlns:xlink="http://www.w3.org/1999/xlink">
<g id="graph0" class="graph" transform="scale(0.180047 0.180047) rotate(0) translate(4 295.92)">
<!-- 1 -->
<g id="node1" class="node">
<title>1</title>
<ellipse fill="black" stroke="black" cx="84.84" cy="-215.61" rx="1.8" ry="1.8"/>
</g>
<!-- 2 -->
<g id="node2" class="node">
<title>2</title>
<ellipse fill="black" stroke="black" cx="123.93" cy="-290.12" rx="1.8" ry="1.8"/>
</g>
<!-- 1&#45;&#45;2 -->
<g id="edge1" class="edge">
<title>1&#45;&#45;2</title>
<path fill="none" stroke="black" stroke-width="0.75" d="M85.81,-217.45C91.21,-227.76 117.68,-278.2 122.99,-288.34"/>
</g>
<!-- 3 -->
<g id="node3" class="node">
<title>3</title>
<ellipse fill="black" stroke="black" cx="1.8" cy="-200.76" rx="1.8" ry="1.8"/>
</g>
<!-- 1&#45;&#45;3 -->
<g id="edge2" class="edge">
<title>1&#45;&#45;3</title>
<path fill="none" stroke="black" stroke-width="0.75" d="M82.79,-215.25C71.3,-213.19 15.08,-203.14 3.78,-201.12"/>
</g>
<!-- 4 -->
<g id="node4" class="node">
<title>4</title>
<ellipse fill="black" stroke="black" cx="37.83" cy="-279.11" rx="1.8" ry="1.8"/>
</g>
<!-- 1&#45;&#45;4 -->
<g id="edge3" class="edge">
<title>1&#45;&#45;4</title>
<path fill="none" stroke="black" stroke-width="0.75" d="M83.48,-217.44C76.62,-226.72 45.77,-268.39 39.1,-277.39"/>
</g>
<!-- 5 -->
<g id="node5" class="node">
<title>5</title>
<ellipse fill="black" stroke="black" cx="135.91" cy="-146.09" rx="1.8" ry="1.8"/>
</g>
<!-- 1&#45;&#45;5 -->
<g id="edge4" class="edge">
<title>1&#45;&#45;5</title>
<path fill="none" stroke="black" stroke-width="0.75" d="M86.1,-213.89C93.23,-204.19 128.35,-156.39 134.87,-147.51"/>
</g>
<!-- 6 -->
<g id="node6" class="node">
<title>6</title>
<ellipse fill="black" stroke="black" cx="202.99" cy="-194" rx="1.8" ry="1.8"/>
</g>
<!-- 5&#45;&#45;6 -->
<g id="edge5" class="edge">
<title>5&#45;&#45;6</title>
<path fill="none" stroke="black" stroke-width="0.75" d="M137.57,-147.28C146.77,-153.85 191.48,-185.77 201.15,-192.68"/>
</g>
<!-- 7 -->
<g id="node7" class="node">
<title>7</title>
<ellipse fill="black" stroke="black" cx="69.01" cy="-98.32" rx="1.8" ry="1.8"/>
</g>
<!-- 5&#45;&#45;7 -->
<g id="edge6" class="edge">
<title>5&#45;&#45;7</title>
<path fill="none" stroke="black" stroke-width="0.75" d="M134.26,-144.91C125.08,-138.36 80.49,-106.52 70.85,-99.64"/>
</g>
<!-- 8 -->
<g id="node8" class="node">
<title>8</title>
<ellipse fill="black" stroke="black" cx="185.28" cy="-75.37" rx="1.8" ry="1.8"/>
</g>
<!-- 5&#45;&#45;8 -->
<g id="edge7" class="edge">
<title>5&#45;&#45;8</title>
<path fill="none" stroke="black" stroke-width="0.75" d="M137.13,-144.34C143.96,-134.56 177.38,-86.68 184.1,-77.05"/>
</g>
<!-- 9 -->
<g id="node9" class="node">
<title>9</title>
<ellipse fill="black" stroke="black" cx="143.81" cy="-1.8" rx="1.8" ry="1.8"/>
</g>
<!-- 8&#45;&#45;9 -->
<g id="edge8" class="edge">
<title>8&#45;&#45;9</title>
<path fill="none" stroke="black" stroke-width="0.75" d="M184.25,-73.55C178.52,-63.37 150.44,-13.57 144.8,-3.55"/>
</g>
<!-- 10 -->
<g id="node10" class="node">
<title>10</title>
<ellipse fill="black" stroke="black" cx="268.44" cy="-87.53" rx="1.8" ry="1.8"/>
</g>
<!-- 8&#45;&#45;10 -->
<g id="edge9" class="edge">
<title>8&#45;&#45;10</title>
<path fill="none" stroke="black" stroke-width="0.75" d="M187.34,-75.67C198.84,-77.35 255.14,-85.59 266.45,-87.24"/>
</g>
<!-- 11 -->
<g id="node11" class="node">
<title>11</title>
<ellipse fill="black" stroke="black" cx="229.16" cy="-9.65" rx="1.8" ry="1.8"/>
</g>
<!-- 8&#45;&#45;11 -->
<g id="edge10" class="edge">
<title>8&#45;&#45;11</title>
<path fill="none" stroke="black" stroke-width="0.75" d="M186.55,-73.47C192.95,-63.87 221.75,-20.74 227.97,-11.42"/>
</g>
</g>
</svg>
