<svg xmlns="http://www.w3.org/2000/svg" width="161.8" height="100.0" viewBox="-85.902 -131.984 171.803 110.000">
<g fill="none" stroke="black" stroke-width="0.0037%" transform="translate(0, -153.9683) scale(134.9206, -134.9206)">
<circle cx="0.000" cy="-0.200" r="0.004" />
<circle cx="-0.231" cy="-0.667" r="0.004" />
<circle cx="-0.346" cy="-0.500" r="0.004" />
<circle cx="-0.448" cy="-0.588" r="0.004" />
<circle cx="-0.415" cy="-0.400" r="0.004" />
<circle cx="-0.479" cy="-0.462" r="0.004" />
<circle cx="-0.549" cy="-0.483" r="0.004" />
<circle cx="-0.461" cy="-0.333" r="0.004" />
<circle cx="-0.505" cy="-0.378" r="0.004" />
<circle cx="-0.553" cy="-0.400" r="0.004" />
<circle cx="-0.600" cy="-0.400" r="0.004" />
<circle cx="0.231" cy="-0.667" r="0.004" />
<circle cx="0.000" cy="-0.500" r="0.004" />
<circle cx="-0.122" cy="-0.706" r="0.004" />
<circle cx="-0.277" cy="-0.800" r="0.004" />
<circle cx="-0.138" cy="-0.400" r="0.004" />
<circle cx="-0.213" cy="-0.538" r="0.004" />
<circle cx="-0.310" cy="-0.621" r="0.004" />
<circle cx="-0.407" cy="-0.647" r="0.004" />
<circle cx="-0.489" cy="-0.634" r="0.004" />
<circle cx="-0.231" cy="-0.333" r="0.004" />
<circle cx="-0.280" cy="-0.432" r="0.004" />
<circle cx="-0.346" cy="-0.500" r="0.004" />
<circle cx="-0.415" cy="-0.533" r="0.004" />
<circle cx="-0.479" cy="-0.538" r="0.004" />
<circle cx="-0.297" cy="-0.286" r="0.004" />
<circle cx="-0.332" cy="-0.360" r="0.004" />
<circle cx="-0.379" cy="-0.415" r="0.004" />
<circle cx="-0.429" cy="-0.448" r="0.004" />
<circle cx="-0.479" cy="-0.462" r="0.004" />
<circle cx="0.346" cy="-0.500" r="0.004" />
<circle cx="0.203" cy="-0.824" r="0.004" />
<circle cx="0.138" cy="-0.400" r="0.004" />
<circle cx="0.053" cy="-0.615" r="0.004" />
<circle cx="-0.072" cy="-0.759" r="0.004" />
<circle cx="-0.203" cy="-0.824" r="0.004" />
<circle cx="-0.321" cy="-0.829" r="0.004" />
<circle cx="0.000" cy="-0.333" r="0.004" />
<circle cx="-0.056" cy="-0.486" r="0.004" />
<circle cx="-0.138" cy="-0.600" r="0.004" />
<circle cx="-0.231" cy="-0.667" r="0.004" />
<circle cx="-0.319" cy="-0.692" r="0.004" />
<circle cx="-0.099" cy="-0.286" r="0.004" />
<circle cx="-0.138" cy="-0.400" r="0.004" />
<circle cx="-0.196" cy="-0.491" r="0.004" />
<circle cx="-0.262" cy="-0.552" r="0.004" />
<circle cx="-0.330" cy="-0.585" r="0.004" />
<circle cx="-0.173" cy="-0.250" r="0.004" />
<circle cx="-0.202" cy="-0.338" r="0.004" />
<circle cx="-0.244" cy="-0.412" r="0.004" />
<circle cx="-0.294" cy="-0.466" r="0.004" />
<circle cx="-0.346" cy="-0.500" r="0.004" />
<circle cx="0.415" cy="-0.400" r="0.004" />
<circle cx="0.319" cy="-0.692" r="0.004" />
<circle cx="0.167" cy="-0.897" r="0.004" />
<circle cx="0.231" cy="-0.333" r="0.004" />
<circle cx="0.168" cy="-0.541" r="0.004" />
<circle cx="0.069" cy="-0.700" r="0.004" />
<circle cx="-0.046" cy="-0.800" r="0.004" />
<circle cx="-0.160" cy="-0.846" r="0.004" />
<circle cx="0.099" cy="-0.286" r="0.004" />
<circle cx="0.055" cy="-0.440" r="0.004" />
<circle cx="-0.013" cy="-0.566" r="0.004" />
<circle cx="-0.095" cy="-0.655" r="0.004" />
<circle cx="-0.181" cy="-0.708" r="0.004" />
<circle cx="-0.000" cy="-0.250" r="0.004" />
<circle cx="-0.032" cy="-0.369" r="0.004" />
<circle cx="-0.081" cy="-0.471" r="0.004" />
<circle cx="-0.142" cy="-0.548" r="0.004" />
<circle cx="-0.208" cy="-0.600" r="0.004" />
<circle cx="-0.077" cy="-0.222" r="0.004" />
<circle cx="-0.101" cy="-0.317" r="0.004" />
<circle cx="-0.138" cy="-0.400" r="0.004" />
<circle cx="-0.184" cy="-0.467" r="0.004" />
<circle cx="-0.235" cy="-0.515" r="0.004" />
<circle cx="0.461" cy="-0.333" r="0.004" />
<circle cx="0.393" cy="-0.595" r="0.004" />
<circle cx="0.277" cy="-0.800" r="0.004" />
<circle cx="0.138" cy="-0.933" r="0.004" />
<circle cx="0.297" cy="-0.286" r="0.004" />
<circle cx="0.249" cy="-0.480" r="0.004" />
<circle cx="0.170" cy="-0.642" r="0.004" />
<circle cx="0.072" cy="-0.759" r="0.004" />
<circle cx="-0.032" cy="-0.831" r="0.004" />
<circle cx="0.173" cy="-0.250" r="0.004" />
<circle cx="0.138" cy="-0.400" r="0.004" />
<circle cx="0.081" cy="-0.529" r="0.004" />
<circle cx="0.009" cy="-0.630" r="0.004" />
<circle cx="-0.069" cy="-0.700" r="0.004" />
<circle cx="0.077" cy="-0.222" r="0.004" />
<circle cx="0.051" cy="-0.341" r="0.004" />
<circle cx="0.008" cy="-0.447" r="0.004" />
<circle cx="-0.046" cy="-0.533" r="0.004" />
<circle cx="-0.107" cy="-0.598" r="0.004" />
<circle cx="0.000" cy="-0.200" r="0.004" />
<circle cx="-0.021" cy="-0.297" r="0.004" />
<circle cx="-0.053" cy="-0.385" r="0.004" />
<circle cx="-0.095" cy="-0.459" r="0.004" />
<circle cx="-0.143" cy="-0.517" r="0.004" />
<circle cx="-0.203" cy="-0.824" r="0.004" />
<circle cx="-0.319" cy="-0.692" r="0.004" />
<circle cx="-0.393" cy="-0.595" r="0.004" />
<circle cx="-0.461" cy="-0.667" r="0.004" />
<circle cx="0.122" cy="-0.706" r="0.004" />
<circle cx="-0.053" cy="-0.615" r="0.004" />
<circle cx="-0.138" cy="-0.800" r="0.004" />
<circle cx="-0.168" cy="-0.541" r="0.004" />
<circle cx="-0.231" cy="-0.667" r="0.004" />
<circle cx="-0.318" cy="-0.757" r="0.004" />
<circle cx="-0.249" cy="-0.480" r="0.004" />
<circle cx="-0.297" cy="-0.571" r="0.004" />
<circle cx="-0.360" cy="-0.640" r="0.004" />
<circle cx="-0.431" cy="-0.679" r="0.004" />
<circle cx="0.448" cy="-0.588" r="0.004" />
<circle cx="0.213" cy="-0.538" r="0.004" />
<circle cx="0.138" cy="-0.800" r="0.004" />
<circle cx="0.056" cy="-0.486" r="0.004" />
<circle cx="0.000" cy="-0.667" r="0.004" />
<circle cx="-0.093" cy="-0.811" r="0.004" />
<circle cx="-0.208" cy="-0.900" r="0.004" />
<circle cx="-0.055" cy="-0.440" r="0.004" />
<circle cx="-0.099" cy="-0.571" r="0.004" />
<circle cx="-0.166" cy="-0.680" r="0.004" />
<circle cx="-0.248" cy="-0.755" r="0.004" />
<circle cx="-0.334" cy="-0.793" r="0.004" />
<circle cx="-0.138" cy="-0.400" r="0.004" />
<circle cx="-0.173" cy="-0.500" r="0.004" />
<circle cx="-0.224" cy="-0.585" r="0.004" />
<circle cx="-0.285" cy="-0.647" r="0.004" />
<circle cx="-0.351" cy="-0.685" r="0.004" />
<circle cx="0.479" cy="-0.462" r="0.004" />
<circle cx="0.280" cy="-0.432" r="0.004" />
<circle cx="0.231" cy="-0.667" r="0.004" />
<circle cx="0.131" cy="-0.865" r="0.004" />
<circle cx="0.138" cy="-0.400" r="0.004" />
<circle cx="0.099" cy="-0.571" r="0.004" />
<circle cx="0.028" cy="-0.720" r="0.004" />
<circle cx="-0.065" cy="-0.830" r="0.004" />
<circle cx="-0.167" cy="-0.897" r="0.004" />
<circle cx="0.032" cy="-0.369" r="0.004" />
<circle cx="0.000" cy="-0.500" r="0.004" />
<circle cx="-0.053" cy="-0.615" r="0.004" />
<circle cx="-0.122" cy="-0.706" r="0.004" />
<circle cx="-0.199" cy="-0.767" r="0.004" />
<circle cx="-0.051" cy="-0.341" r="0.004" />
<circle cx="-0.077" cy="-0.444" r="0.004" />
<circle cx="-0.118" cy="-0.537" r="0.004" />
<circle cx="-0.171" cy="-0.612" r="0.004" />
<circle cx="-0.231" cy="-0.667" r="0.004" />
<circle cx="0.505" cy="-0.378" r="0.004" />
<circle cx="0.461" cy="-0.667" r="0.004" />
<circle cx="0.332" cy="-0.360" r="0.004" />
<circle cx="0.297" cy="-0.571" r="0.004" />
<circle cx="0.221" cy="-0.760" r="0.004" />
<circle cx="0.117" cy="-0.906" r="0.004" />
<circle cx="0.202" cy="-0.338" r="0.004" />
<circle cx="0.173" cy="-0.500" r="0.004" />
<circle cx="0.117" cy="-0.646" r="0.004" />
<circle cx="0.041" cy="-0.765" r="0.004" />
<circle cx="-0.047" cy="-0.849" r="0.004" />
<circle cx="0.101" cy="-0.317" r="0.004" />
<circle cx="0.077" cy="-0.444" r="0.004" />
<circle cx="0.034" cy="-0.561" r="0.004" />
<circle cx="-0.024" cy="-0.659" r="0.004" />
<circle cx="-0.092" cy="-0.733" r="0.004" />
<circle cx="0.021" cy="-0.297" r="0.004" />
<circle cx="0.000" cy="-0.400" r="0.004" />
<circle cx="-0.034" cy="-0.495" r="0.004" />
<circle cx="-0.080" cy="-0.577" r="0.004" />
<circle cx="-0.133" cy="-0.642" r="0.004" />
<circle cx="-0.167" cy="-0.897" r="0.004" />
<circle cx="-0.277" cy="-0.800" r="0.004" />
<circle cx="0.277" cy="-0.800" r="0.004" />
<circle cx="0.072" cy="-0.759" r="0.004" />
<circle cx="-0.069" cy="-0.700" r="0.004" />
<circle cx="-0.131" cy="-0.865" r="0.004" />
<circle cx="-0.170" cy="-0.642" r="0.004" />
<circle cx="-0.221" cy="-0.760" r="0.004" />
<circle cx="-0.297" cy="-0.857" r="0.004" />
<circle cx="0.310" cy="-0.621" r="0.004" />
<circle cx="0.138" cy="-0.600" r="0.004" />
<circle cx="0.093" cy="-0.811" r="0.004" />
<circle cx="0.013" cy="-0.566" r="0.004" />
<circle cx="-0.028" cy="-0.720" r="0.004" />
<circle cx="-0.099" cy="-0.857" r="0.004" />
<circle cx="-0.081" cy="-0.529" r="0.004" />
<circle cx="-0.117" cy="-0.646" r="0.004" />
<circle cx="-0.173" cy="-0.750" r="0.004" />
<circle cx="-0.245" cy="-0.831" r="0.004" />
<circle cx="0.549" cy="-0.483" r="0.004" />
<circle cx="0.346" cy="-0.500" r="0.004" />
<circle cx="0.318" cy="-0.757" r="0.004" />
<circle cx="0.196" cy="-0.491" r="0.004" />
<circle cx="0.166" cy="-0.680" r="0.004" />
<circle cx="0.099" cy="-0.857" r="0.004" />
<circle cx="0.081" cy="-0.471" r="0.004" />
<circle cx="0.053" cy="-0.615" r="0.004" />
<circle cx="0.000" cy="-0.750" r="0.004" />
<circle cx="-0.075" cy="-0.862" r="0.004" />
<circle cx="-0.163" cy="-0.941" r="0.004" />
<circle cx="-0.008" cy="-0.447" r="0.004" />
<circle cx="-0.034" cy="-0.561" r="0.004" />
<circle cx="-0.077" cy="-0.667" r="0.004" />
<circle cx="-0.135" cy="-0.756" r="0.004" />
<circle cx="-0.203" cy="-0.824" r="0.004" />
<circle cx="0.553" cy="-0.400" r="0.004" />
<circle cx="0.379" cy="-0.415" r="0.004" />
<circle cx="0.360" cy="-0.640" r="0.004" />
<circle cx="0.297" cy="-0.857" r="0.004" />
<circle cx="0.244" cy="-0.412" r="0.004" />
<circle cx="0.224" cy="-0.585" r="0.004" />
<circle cx="0.173" cy="-0.750" r="0.004" />
<circle cx="0.096" cy="-0.892" r="0.004" />
<circle cx="0.138" cy="-0.400" r="0.004" />
<circle cx="0.118" cy="-0.537" r="0.004" />
<circle cx="0.077" cy="-0.667" r="0.004" />
<circle cx="0.017" cy="-0.780" r="0.004" />
<circle cx="-0.057" cy="-0.871" r="0.004" />
<circle cx="0.053" cy="-0.385" r="0.004" />
<circle cx="0.034" cy="-0.495" r="0.004" />
<circle cx="-0.000" cy="-0.600" r="0.004" />
<circle cx="-0.048" cy="-0.693" r="0.004" />
<circle cx="-0.106" cy="-0.769" r="0.004" />
<circle cx="-0.138" cy="-0.933" r="0.004" />
<circle cx="0.203" cy="-0.824" r="0.004" />
<circle cx="0.046" cy="-0.800" r="0.004" />
<circle cx="-0.072" cy="-0.759" r="0.004" />
<circle cx="-0.117" cy="-0.906" r="0.004" />
<circle cx="0.407" cy="-0.647" r="0.004" />
<circle cx="0.231" cy="-0.667" r="0.004" />
<circle cx="0.208" cy="-0.900" r="0.004" />
<circle cx="0.095" cy="-0.655" r="0.004" />
<circle cx="0.065" cy="-0.830" r="0.004" />
<circle cx="-0.009" cy="-0.630" r="0.004" />
<circle cx="-0.041" cy="-0.765" r="0.004" />
<circle cx="-0.096" cy="-0.892" r="0.004" />
<circle cx="0.415" cy="-0.533" r="0.004" />
<circle cx="0.262" cy="-0.552" r="0.004" />
<circle cx="0.248" cy="-0.755" r="0.004" />
<circle cx="0.142" cy="-0.548" r="0.004" />
<circle cx="0.122" cy="-0.706" r="0.004" />
<circle cx="0.075" cy="-0.862" r="0.004" />
<circle cx="0.046" cy="-0.533" r="0.004" />
<circle cx="0.024" cy="-0.659" r="0.004" />
<circle cx="-0.017" cy="-0.780" r="0.004" />
<circle cx="-0.077" cy="-0.889" r="0.004" />
<circle cx="0.600" cy="-0.400" r="0.004" />
<circle cx="0.429" cy="-0.448" r="0.004" />
<circle cx="0.431" cy="-0.679" r="0.004" />
<circle cx="0.294" cy="-0.466" r="0.004" />
<circle cx="0.285" cy="-0.647" r="0.004" />
<circle cx="0.245" cy="-0.831" r="0.004" />
<circle cx="0.184" cy="-0.467" r="0.004" />
<circle cx="0.171" cy="-0.612" r="0.004" />
<circle cx="0.135" cy="-0.756" r="0.004" />
<circle cx="0.077" cy="-0.889" r="0.004" />
<circle cx="0.095" cy="-0.459" r="0.004" />
<circle cx="0.080" cy="-0.577" r="0.004" />
<circle cx="0.048" cy="-0.693" r="0.004" />
<circle cx="-0.000" cy="-0.800" r="0.004" />
<circle cx="-0.062" cy="-0.891" r="0.004" />
<circle cx="0.321" cy="-0.829" r="0.004" />
<circle cx="0.160" cy="-0.846" r="0.004" />
<circle cx="0.032" cy="-0.831" r="0.004" />
<circle cx="0.489" cy="-0.634" r="0.004" />
<circle cx="0.319" cy="-0.692" r="0.004" />
<circle cx="0.181" cy="-0.708" r="0.004" />
<circle cx="0.167" cy="-0.897" r="0.004" />
<circle cx="0.069" cy="-0.700" r="0.004" />
<circle cx="0.047" cy="-0.849" r="0.004" />
<circle cx="0.479" cy="-0.538" r="0.004" />
<circle cx="0.330" cy="-0.585" r="0.004" />
<circle cx="0.334" cy="-0.793" r="0.004" />
<circle cx="0.208" cy="-0.600" r="0.004" />
<circle cx="0.199" cy="-0.767" r="0.004" />
<circle cx="0.163" cy="-0.941" r="0.004" />
<circle cx="0.107" cy="-0.598" r="0.004" />
<circle cx="0.092" cy="-0.733" r="0.004" />
<circle cx="0.057" cy="-0.871" r="0.004" />
<circle cx="0.479" cy="-0.462" r="0.004" />
<circle cx="0.346" cy="-0.500" r="0.004" />
<circle cx="0.351" cy="-0.685" r="0.004" />
<circle cx="0.235" cy="-0.515" r="0.004" />
<circle cx="0.231" cy="-0.667" r="0.004" />
<circle cx="0.203" cy="-0.824" r="0.004" />
<circle cx="0.143" cy="-0.517" r="0.004" />
<circle cx="0.133" cy="-0.642" r="0.004" />
<circle cx="0.106" cy="-0.769" r="0.004" />
<circle cx="0.062" cy="-0.891" r="0.004" />
</g>
</svg>