<svg xmlns="http://www.w3.org/2000/svg" width="160.7" height="100.0" viewBox="-2 -5 171 110">
<g fill="none" stroke="black" stroke-width="2.1450%" transform="translate(0, 100.0000) scale(0.2331, -0.2331)">
<line x1="13" y1="0" x2="13" y2="3" />
<line x1="26" y1="0" x2="26" y2="5" />
<line x1="38" y1="0" x2="38" y2="9" />
<line x1="51" y1="0" x2="51" y2="11" />
<line x1="64" y1="0" x2="64" y2="23" />
<line x1="77" y1="0" x2="77" y2="29" />
<line x1="89" y1="0" x2="89" y2="33" />
<line x1="102" y1="0" x2="102" y2="35" />
<line x1="115" y1="0" x2="115" y2="39" />
<line x1="128" y1="0" x2="128" y2="41" />
<line x1="140" y1="0" x2="140" y2="51" />
<line x1="153" y1="0" x2="153" y2="53" />
<line x1="166" y1="0" x2="166" y2="65" />
<line x1="179" y1="0" x2="179" y2="69" />
<line x1="191" y1="0" x2="191" y2="81" />
<line x1="204" y1="0" x2="204" y2="83" />
<line x1="217" y1="0" x2="217" y2="89" />
<line x1="230" y1="0" x2="230" y2="95" />
<line x1="243" y1="0" x2="243" y2="99" />
<line x1="255" y1="0" x2="255" y2="105" />
<line x1="268" y1="0" x2="268" y2="113" />
<line x1="281" y1="0" x2="281" y2="119" />
<line x1="294" y1="0" x2="294" y2="131" />
<line x1="306" y1="0" x2="306" y2="135" />
<line x1="319" y1="0" x2="319" y2="155" />
<line x1="332" y1="0" x2="332" y2="173" />
<line x1="345" y1="0" x2="345" y2="179" />
<line x1="357" y1="0" x2="357" y2="183" />
<line x1="370" y1="0" x2="370" y2="189" />
<line x1="383" y1="0" x2="383" y2="191" />
<line x1="396" y1="0" x2="396" y2="209" />
<line x1="408" y1="0" x2="408" y2="221" />
<line x1="421" y1="0" x2="421" y2="231" />
<line x1="434" y1="0" x2="434" y2="233" />
<line x1="447" y1="0" x2="447" y2="239" />
<line x1="460" y1="0" x2="460" y2="243" />
<line x1="472" y1="0" x2="472" y2="245" />
<line x1="485" y1="0" x2="485" y2="251" />
<line x1="498" y1="0" x2="498" y2="261" />
<line x1="511" y1="0" x2="511" y2="273" />
<line x1="523" y1="0" x2="523" y2="281" />
<line x1="536" y1="0" x2="536" y2="293" />
<line x1="549" y1="0" x2="549" y2="299" />
<line x1="562" y1="0" x2="562" y2="303" />
<line x1="574" y1="0" x2="574" y2="309" />
<line x1="587" y1="0" x2="587" y2="323" />
<line x1="600" y1="0" x2="600" y2="329" />
<line x1="613" y1="0" x2="613" y2="359" />
<line x1="625" y1="0" x2="625" y2="371" />
<line x1="638" y1="0" x2="638" y2="375" />
<line x1="651" y1="0" x2="651" y2="393" />
<line x1="664" y1="0" x2="664" y2="411" />
<line x1="677" y1="0" x2="677" y2="413" />
<line x1="689" y1="0" x2="689" y2="419" />
<line x1="702" y1="0" x2="702" y2="429" />
</g>
</svg>