<svg xmlns="http://www.w3.org/2000/svg" width="100.0" height="100.0" viewBox="-4.0 -55.5 110.0 110.0">
<g fill="none" stroke="black" stroke-width="0.4950%" transform="translate(0, -1.0101) scale(1.0101, -1.0101)">

<line x1="2.0" y1="0.0" x2="2.0" y2="-1.0" />
<line x1="3.0" y1="0.0" x2="3.0" y2="1.0" />
<line x1="4.0" y1="0.0" x2="4.0" y2="-2.0" />
<line x1="5.0" y1="0.0" x2="5.0" y2="2.0" />
<line x1="6.0" y1="0.0" x2="6.0" y2="-3.0" />
<line x1="7.0" y1="0.0" x2="7.0" y2="3.0" />
<line x1="8.0" y1="0.0" x2="8.0" y2="-4.0" />
<line x1="9.0" y1="0.0" x2="9.0" y2="4.0" />
<line x1="10.0" y1="0.0" x2="10.0" y2="-5.0" />
<line x1="11.0" y1="0.0" x2="11.0" y2="5.0" />
<line x1="12.0" y1="0.0" x2="12.0" y2="-6.0" />
<line x1="13.0" y1="0.0" x2="13.0" y2="6.0" />
<line x1="14.0" y1="0.0" x2="14.0" y2="-7.0" />
<line x1="15.0" y1="0.0" x2="15.0" y2="7.0" />
<line x1="16.0" y1="0.0" x2="16.0" y2="-8.0" />
<line x1="17.0" y1="0.0" x2="17.0" y2="8.0" />
<line x1="18.0" y1="0.0" x2="18.0" y2="-9.0" />
<line x1="19.0" y1="0.0" x2="19.0" y2="9.0" />
<line x1="20.0" y1="0.0" x2="20.0" y2="-10.0" />
<line x1="21.0" y1="0.0" x2="21.0" y2="10.0" />
<line x1="22.0" y1="0.0" x2="22.0" y2="-11.0" />
<line x1="23.0" y1="0.0" x2="23.0" y2="11.0" />
<line x1="24.0" y1="0.0" x2="24.0" y2="-12.0" />
<line x1="25.0" y1="0.0" x2="25.0" y2="12.0" />
<line x1="26.0" y1="0.0" x2="26.0" y2="-13.0" />
<line x1="27.0" y1="0.0" x2="27.0" y2="13.0" />
<line x1="28.0" y1="0.0" x2="28.0" y2="-14.0" />
<line x1="29.0" y1="0.0" x2="29.0" y2="14.0" />
<line x1="30.0" y1="0.0" x2="30.0" y2="-15.0" />
<line x1="31.0" y1="0.0" x2="31.0" y2="15.0" />
<line x1="32.0" y1="0.0" x2="32.0" y2="-16.0" />
<line x1="33.0" y1="0.0" x2="33.0" y2="16.0" />
<line x1="34.0" y1="0.0" x2="34.0" y2="-17.0" />
<line x1="35.0" y1="0.0" x2="35.0" y2="17.0" />
<line x1="36.0" y1="0.0" x2="36.0" y2="-18.0" />
<line x1="37.0" y1="0.0" x2="37.0" y2="18.0" />
<line x1="38.0" y1="0.0" x2="38.0" y2="-19.0" />
<line x1="39.0" y1="0.0" x2="39.0" y2="19.0" />
<line x1="40.0" y1="0.0" x2="40.0" y2="-20.0" />
<line x1="41.0" y1="0.0" x2="41.0" y2="20.0" />
<line x1="42.0" y1="0.0" x2="42.0" y2="-21.0" />
<line x1="43.0" y1="0.0" x2="43.0" y2="21.0" />
<line x1="44.0" y1="0.0" x2="44.0" y2="-22.0" />
<line x1="45.0" y1="0.0" x2="45.0" y2="22.0" />
<line x1="46.0" y1="0.0" x2="46.0" y2="-23.0" />
<line x1="47.0" y1="0.0" x2="47.0" y2="23.0" />
<line x1="48.0" y1="0.0" x2="48.0" y2="-24.0" />
<line x1="49.0" y1="0.0" x2="49.0" y2="24.0" />
<line x1="50.0" y1="0.0" x2="50.0" y2="-25.0" />
<line x1="51.0" y1="0.0" x2="51.0" y2="25.0" />
<line x1="52.0" y1="0.0" x2="52.0" y2="-26.0" />
<line x1="53.0" y1="0.0" x2="53.0" y2="26.0" />
<line x1="54.0" y1="0.0" x2="54.0" y2="-27.0" />
<line x1="55.0" y1="0.0" x2="55.0" y2="27.0" />
<line x1="56.0" y1="0.0" x2="56.0" y2="-28.0" />
<line x1="57.0" y1="0.0" x2="57.0" y2="28.0" />
<line x1="58.0" y1="0.0" x2="58.0" y2="-29.0" />
<line x1="59.0" y1="0.0" x2="59.0" y2="29.0" />
<line x1="60.0" y1="0.0" x2="60.0" y2="-30.0" />
<line x1="61.0" y1="0.0" x2="61.0" y2="30.0" />
<line x1="62.0" y1="0.0" x2="62.0" y2="-31.0" />
<line x1="63.0" y1="0.0" x2="63.0" y2="31.0" />
<line x1="64.0" y1="0.0" x2="64.0" y2="-32.0" />
<line x1="65.0" y1="0.0" x2="65.0" y2="32.0" />
<line x1="66.0" y1="0.0" x2="66.0" y2="-33.0" />
<line x1="67.0" y1="0.0" x2="67.0" y2="33.0" />
<line x1="68.0" y1="0.0" x2="68.0" y2="-34.0" />
<line x1="69.0" y1="0.0" x2="69.0" y2="34.0" />
<line x1="70.0" y1="0.0" x2="70.0" y2="-35.0" />
<line x1="71.0" y1="0.0" x2="71.0" y2="35.0" />
<line x1="72.0" y1="0.0" x2="72.0" y2="-36.0" />
<line x1="73.0" y1="0.0" x2="73.0" y2="36.0" />
<line x1="74.0" y1="0.0" x2="74.0" y2="-37.0" />
<line x1="75.0" y1="0.0" x2="75.0" y2="37.0" />
<line x1="76.0" y1="0.0" x2="76.0" y2="-38.0" />
<line x1="77.0" y1="0.0" x2="77.0" y2="38.0" />
<line x1="78.0" y1="0.0" x2="78.0" y2="-39.0" />
<line x1="79.0" y1="0.0" x2="79.0" y2="39.0" />
<line x1="80.0" y1="0.0" x2="80.0" y2="-40.0" />
<line x1="81.0" y1="0.0" x2="81.0" y2="40.0" />
<line x1="82.0" y1="0.0" x2="82.0" y2="-41.0" />
<line x1="83.0" y1="0.0" x2="83.0" y2="41.0" />
<line x1="84.0" y1="0.0" x2="84.0" y2="-42.0" />
<line x1="85.0" y1="0.0" x2="85.0" y2="42.0" />
<line x1="86.0" y1="0.0" x2="86.0" y2="-43.0" />
<line x1="87.0" y1="0.0" x2="87.0" y2="43.0" />
<line x1="88.0" y1="0.0" x2="88.0" y2="-44.0" />
<line x1="89.0" y1="0.0" x2="89.0" y2="44.0" />
<line x1="90.0" y1="0.0" x2="90.0" y2="-45.0" />
<line x1="91.0" y1="0.0" x2="91.0" y2="45.0" />
<line x1="92.0" y1="0.0" x2="92.0" y2="-46.0" />
<line x1="93.0" y1="0.0" x2="93.0" y2="46.0" />
<line x1="94.0" y1="0.0" x2="94.0" y2="-47.0" />
<line x1="95.0" y1="0.0" x2="95.0" y2="47.0" />
<line x1="96.0" y1="0.0" x2="96.0" y2="-48.0" />
<line x1="97.0" y1="0.0" x2="97.0" y2="48.0" />
<line x1="98.0" y1="0.0" x2="98.0" y2="-49.0" />
<line x1="99.0" y1="0.0" x2="99.0" y2="49.0" />
<line x1="100.0" y1="0.0" x2="100.0" y2="-50.0" />
</g>
</svg>