<svg xmlns="http://www.w3.org/2000/svg" width="161.8" height="100.0" viewBox="-3.1 -4.5 171.8 110.0">
<g fill="none" stroke="black" stroke-width="0.9500%" transform="translate(0, 101.0526) scale(0.5263, -0.5263)">
<circle cx="3.7" cy="1.0" r="1.0" />
<circle cx="7.3" cy="2.0" r="1.0" />
<circle cx="11.0" cy="5.0" r="1.0" />
<circle cx="14.6" cy="4.0" r="1.0" />
<circle cx="18.3" cy="11.0" r="1.0" />
<circle cx="22.0" cy="10.0" r="1.0" />
<circle cx="25.6" cy="9.0" r="1.0" />
<circle cx="29.3" cy="8.0" r="1.0" />
<circle cx="32.9" cy="23.0" r="1.0" />
<circle cx="36.6" cy="22.0" r="1.0" />
<circle cx="40.3" cy="21.0" r="1.0" />
<circle cx="43.9" cy="20.0" r="1.0" />
<circle cx="47.6" cy="19.0" r="1.0" />
<circle cx="51.2" cy="18.0" r="1.0" />
<circle cx="54.9" cy="17.0" r="1.0" />
<circle cx="58.6" cy="16.0" r="1.0" />
<circle cx="62.2" cy="47.0" r="1.0" />
<circle cx="65.9" cy="46.0" r="1.0" />
<circle cx="69.5" cy="45.0" r="1.0" />
<circle cx="73.2" cy="44.0" r="1.0" />
<circle cx="76.9" cy="43.0" r="1.0" />
<circle cx="80.5" cy="42.0" r="1.0" />
<circle cx="84.2" cy="41.0" r="1.0" />
<circle cx="87.8" cy="40.0" r="1.0" />
<circle cx="91.5" cy="39.0" r="1.0" />
<circle cx="95.2" cy="38.0" r="1.0" />
<circle cx="98.8" cy="37.0" r="1.0" />
<circle cx="102.5" cy="36.0" r="1.0" />
<circle cx="106.1" cy="35.0" r="1.0" />
<circle cx="109.8" cy="34.0" r="1.0" />
<circle cx="113.5" cy="33.0" r="1.0" />
<circle cx="117.1" cy="32.0" r="1.0" />
<circle cx="120.8" cy="95.0" r="1.0" />
<circle cx="124.4" cy="94.0" r="1.0" />
<circle cx="128.1" cy="93.0" r="1.0" />
<circle cx="131.8" cy="92.0" r="1.0" />
<circle cx="135.4" cy="91.0" r="1.0" />
<circle cx="139.1" cy="90.0" r="1.0" />
<circle cx="142.7" cy="89.0" r="1.0" />
<circle cx="146.4" cy="88.0" r="1.0" />
<circle cx="150.1" cy="87.0" r="1.0" />
<circle cx="153.7" cy="86.0" r="1.0" />
<circle cx="157.4" cy="85.0" r="1.0" />
<circle cx="161.0" cy="84.0" r="1.0" />
<circle cx="164.7" cy="83.0" r="1.0" />
<circle cx="168.4" cy="82.0" r="1.0" />
<circle cx="172.0" cy="81.0" r="1.0" />
<circle cx="175.7" cy="80.0" r="1.0" />
<circle cx="179.3" cy="79.0" r="1.0" />
<circle cx="183.0" cy="78.0" r="1.0" />
<circle cx="186.7" cy="77.0" r="1.0" />
<circle cx="190.3" cy="76.0" r="1.0" />
<circle cx="194.0" cy="75.0" r="1.0" />
<circle cx="197.6" cy="74.0" r="1.0" />
<circle cx="201.3" cy="73.0" r="1.0" />
<circle cx="205.0" cy="72.0" r="1.0" />
<circle cx="208.6" cy="71.0" r="1.0" />
<circle cx="212.3" cy="70.0" r="1.0" />
<circle cx="215.9" cy="69.0" r="1.0" />
<circle cx="219.6" cy="68.0" r="1.0" />
<circle cx="223.3" cy="67.0" r="1.0" />
<circle cx="226.9" cy="66.0" r="1.0" />
<circle cx="230.6" cy="65.0" r="1.0" />
<circle cx="234.2" cy="64.0" r="1.0" />
<circle cx="237.9" cy="191.0" r="1.0" />
<circle cx="241.5" cy="190.0" r="1.0" />
<circle cx="245.2" cy="189.0" r="1.0" />
<circle cx="248.9" cy="188.0" r="1.0" />
<circle cx="252.5" cy="187.0" r="1.0" />
<circle cx="256.2" cy="186.0" r="1.0" />
<circle cx="259.8" cy="185.0" r="1.0" />
<circle cx="263.5" cy="184.0" r="1.0" />
<circle cx="267.2" cy="183.0" r="1.0" />
<circle cx="270.8" cy="182.0" r="1.0" />
<circle cx="274.5" cy="181.0" r="1.0" />
<circle cx="278.1" cy="180.0" r="1.0" />
<circle cx="281.8" cy="179.0" r="1.0" />
<circle cx="285.5" cy="178.0" r="1.0" />
<circle cx="289.1" cy="177.0" r="1.0" />
<circle cx="292.8" cy="176.0" r="1.0" />
<circle cx="296.4" cy="175.0" r="1.0" />
<circle cx="300.1" cy="174.0" r="1.0" />
<circle cx="303.8" cy="173.0" r="1.0" />
<circle cx="307.4" cy="172.0" r="1.0" />
<circle cx="311.1" cy="171.0" r="1.0" />
</g>
</svg>