<svg xmlns="http://www.w3.org/2000/svg" width="161.8" height="100.0" viewBox="-3.73 -5.00 171.80 110.00">
<g fill="none" stroke="black" stroke-width="0.0350%" transform="translate(0, 100.0000) scale(14.2857, -14.2857)">
<circle cx="0.09" cy="0.00" r="0.03" />
<circle cx="0.18" cy="1.00" r="0.03" />
<circle cx="0.27" cy="2.00" r="0.03" />
<circle cx="0.36" cy="3.00" r="0.03" />
<circle cx="0.45" cy="4.00" r="0.03" />
<circle cx="0.54" cy="5.00" r="0.03" />
<circle cx="0.62" cy="6.00" r="0.03" />
<circle cx="0.71" cy="7.00" r="0.03" />
<circle cx="0.80" cy="1.00" r="0.03" />
<circle cx="0.89" cy="0.00" r="0.03" />
<circle cx="0.98" cy="1.00" r="0.03" />
<circle cx="1.07" cy="1.00" r="0.03" />
<circle cx="1.16" cy="1.00" r="0.03" />
<circle cx="1.25" cy="2.00" r="0.03" />
<circle cx="1.34" cy="1.00" r="0.03" />
<circle cx="1.43" cy="3.00" r="0.03" />
<circle cx="1.52" cy="1.00" r="0.03" />
<circle cx="1.61" cy="4.00" r="0.03" />
<circle cx="1.69" cy="1.00" r="0.03" />
<circle cx="1.78" cy="5.00" r="0.03" />
<circle cx="1.87" cy="1.00" r="0.03" />
<circle cx="1.96" cy="6.00" r="0.03" />
<circle cx="2.05" cy="1.00" r="0.03" />
<circle cx="2.14" cy="7.00" r="0.03" />
<circle cx="2.23" cy="2.00" r="0.03" />
<circle cx="2.32" cy="0.00" r="0.03" />
<circle cx="2.41" cy="2.00" r="0.03" />
<circle cx="2.50" cy="1.00" r="0.03" />
<circle cx="2.59" cy="2.00" r="0.03" />
<circle cx="2.68" cy="2.00" r="0.03" />
<circle cx="2.76" cy="2.00" r="0.03" />
<circle cx="2.85" cy="3.00" r="0.03" />
<circle cx="2.94" cy="2.00" r="0.03" />
<circle cx="3.03" cy="4.00" r="0.03" />
<circle cx="3.12" cy="2.00" r="0.03" />
<circle cx="3.21" cy="5.00" r="0.03" />
<circle cx="3.30" cy="2.00" r="0.03" />
<circle cx="3.39" cy="6.00" r="0.03" />
<circle cx="3.48" cy="2.00" r="0.03" />
<circle cx="3.57" cy="7.00" r="0.03" />
<circle cx="3.66" cy="3.00" r="0.03" />
<circle cx="3.75" cy="0.00" r="0.03" />
<circle cx="3.83" cy="3.00" r="0.03" />
<circle cx="3.92" cy="1.00" r="0.03" />
<circle cx="4.01" cy="3.00" r="0.03" />
<circle cx="4.10" cy="2.00" r="0.03" />
<circle cx="4.19" cy="3.00" r="0.03" />
<circle cx="4.28" cy="3.00" r="0.03" />
<circle cx="4.37" cy="3.00" r="0.03" />
<circle cx="4.46" cy="4.00" r="0.03" />
<circle cx="4.55" cy="3.00" r="0.03" />
<circle cx="4.64" cy="5.00" r="0.03" />
<circle cx="4.73" cy="3.00" r="0.03" />
<circle cx="4.82" cy="6.00" r="0.03" />
<circle cx="4.91" cy="3.00" r="0.03" />
<circle cx="4.99" cy="7.00" r="0.03" />
<circle cx="5.08" cy="4.00" r="0.03" />
<circle cx="5.17" cy="0.00" r="0.03" />
<circle cx="5.26" cy="4.00" r="0.03" />
<circle cx="5.35" cy="1.00" r="0.03" />
<circle cx="5.44" cy="4.00" r="0.03" />
<circle cx="5.53" cy="2.00" r="0.03" />
<circle cx="5.62" cy="4.00" r="0.03" />
<circle cx="5.71" cy="3.00" r="0.03" />
<circle cx="5.80" cy="4.00" r="0.03" />
<circle cx="5.89" cy="4.00" r="0.03" />
<circle cx="5.98" cy="4.00" r="0.03" />
<circle cx="6.06" cy="5.00" r="0.03" />
<circle cx="6.15" cy="4.00" r="0.03" />
<circle cx="6.24" cy="6.00" r="0.03" />
<circle cx="6.33" cy="4.00" r="0.03" />
<circle cx="6.42" cy="7.00" r="0.03" />
<circle cx="6.51" cy="5.00" r="0.03" />
<circle cx="6.60" cy="0.00" r="0.03" />
<circle cx="6.69" cy="5.00" r="0.03" />
<circle cx="6.78" cy="1.00" r="0.03" />
<circle cx="6.87" cy="5.00" r="0.03" />
<circle cx="6.96" cy="2.00" r="0.03" />
<circle cx="7.05" cy="5.00" r="0.03" />
<circle cx="7.13" cy="3.00" r="0.03" />
<circle cx="7.22" cy="5.00" r="0.03" />
<circle cx="7.31" cy="4.00" r="0.03" />
<circle cx="7.40" cy="5.00" r="0.03" />
<circle cx="7.49" cy="5.00" r="0.03" />
<circle cx="7.58" cy="5.00" r="0.03" />
<circle cx="7.67" cy="6.00" r="0.03" />
<circle cx="7.76" cy="5.00" r="0.03" />
<circle cx="7.85" cy="7.00" r="0.03" />
<circle cx="7.94" cy="6.00" r="0.03" />
<circle cx="8.03" cy="0.00" r="0.03" />
<circle cx="8.12" cy="6.00" r="0.03" />
<circle cx="8.20" cy="1.00" r="0.03" />
<circle cx="8.29" cy="6.00" r="0.03" />
<circle cx="8.38" cy="2.00" r="0.03" />
<circle cx="8.47" cy="6.00" r="0.03" />
<circle cx="8.56" cy="3.00" r="0.03" />
<circle cx="8.65" cy="6.00" r="0.03" />
<circle cx="8.74" cy="4.00" r="0.03" />
<circle cx="8.83" cy="6.00" r="0.03" />
<circle cx="8.92" cy="5.00" r="0.03" />
<circle cx="9.01" cy="6.00" r="0.03" />
<circle cx="9.10" cy="6.00" r="0.03" />
<circle cx="9.19" cy="6.00" r="0.03" />
<circle cx="9.28" cy="7.00" r="0.03" />
<circle cx="9.36" cy="7.00" r="0.03" />
<circle cx="9.45" cy="0.00" r="0.03" />
<circle cx="9.54" cy="7.00" r="0.03" />
<circle cx="9.63" cy="1.00" r="0.03" />
<circle cx="9.72" cy="7.00" r="0.03" />
<circle cx="9.81" cy="2.00" r="0.03" />
<circle cx="9.90" cy="7.00" r="0.03" />
<circle cx="9.99" cy="3.00" r="0.03" />
<circle cx="10.08" cy="7.00" r="0.03" />
<circle cx="10.17" cy="4.00" r="0.03" />
<circle cx="10.26" cy="7.00" r="0.03" />
<circle cx="10.35" cy="5.00" r="0.03" />
<circle cx="10.43" cy="7.00" r="0.03" />
<circle cx="10.52" cy="6.00" r="0.03" />
<circle cx="10.61" cy="7.00" r="0.03" />
<circle cx="10.70" cy="7.00" r="0.03" />
<circle cx="10.79" cy="1.00" r="0.03" />
<circle cx="10.88" cy="0.00" r="0.03" />
<circle cx="10.97" cy="0.00" r="0.03" />
<circle cx="11.06" cy="1.00" r="0.03" />
<circle cx="11.15" cy="0.00" r="0.03" />
<circle cx="11.24" cy="1.00" r="0.03" />
<circle cx="11.33" cy="1.00" r="0.03" />
<circle cx="11.42" cy="0.00" r="0.03" />
</g>
</svg>