<svg xmlns="http://www.w3.org/2000/svg" width="161.8" height="100.0" viewBox="-3.581 -5.000 171.803 110.000">
<g fill="none" stroke="black" stroke-width="0.0150%" transform="translate(0, 100.0000) scale(33.3333, -33.3333)">

<line x1="0.085" y1="0.000" x2="0.085" y2="1.000" />
<line x1="0.128" y1="0.000" x2="0.128" y2="2.000" />
<line x1="0.170" y1="0.000" x2="0.170" y2="3.000" />
<line x1="0.213" y1="0.000" x2="0.213" y2="1.000" />

<line x1="0.298" y1="0.000" x2="0.298" y2="1.000" />
<line x1="0.341" y1="0.000" x2="0.341" y2="1.000" />
<line x1="0.383" y1="0.000" x2="0.383" y2="1.000" />
<line x1="0.426" y1="0.000" x2="0.426" y2="2.000" />
<line x1="0.468" y1="0.000" x2="0.468" y2="1.000" />
<line x1="0.511" y1="0.000" x2="0.511" y2="3.000" />
<line x1="0.554" y1="0.000" x2="0.554" y2="2.000" />

<line x1="0.639" y1="0.000" x2="0.639" y2="2.000" />
<line x1="0.681" y1="0.000" x2="0.681" y2="1.000" />
<line x1="0.724" y1="0.000" x2="0.724" y2="2.000" />
<line x1="0.766" y1="0.000" x2="0.766" y2="2.000" />
<line x1="0.809" y1="0.000" x2="0.809" y2="2.000" />
<line x1="0.852" y1="0.000" x2="0.852" y2="3.000" />
<line x1="0.894" y1="0.000" x2="0.894" y2="3.000" />

<line x1="0.979" y1="0.000" x2="0.979" y2="3.000" />
<line x1="1.022" y1="0.000" x2="1.022" y2="1.000" />
<line x1="1.064" y1="0.000" x2="1.064" y2="3.000" />
<line x1="1.107" y1="0.000" x2="1.107" y2="2.000" />
<line x1="1.150" y1="0.000" x2="1.150" y2="3.000" />
<line x1="1.192" y1="0.000" x2="1.192" y2="3.000" />
<line x1="1.235" y1="0.000" x2="1.235" y2="1.000" />


<line x1="1.363" y1="0.000" x2="1.363" y2="1.000" />

<line x1="1.448" y1="0.000" x2="1.448" y2="1.000" />
<line x1="1.490" y1="0.000" x2="1.490" y2="1.000" />

<line x1="1.575" y1="0.000" x2="1.575" y2="2.000" />
<line x1="1.618" y1="0.000" x2="1.618" y2="1.000" />

<line x1="1.703" y1="0.000" x2="1.703" y2="3.000" />
<line x1="1.746" y1="0.000" x2="1.746" y2="1.000" />
<line x1="1.788" y1="0.000" x2="1.788" y2="1.000" />

<line x1="1.874" y1="0.000" x2="1.874" y2="1.000" />
<line x1="1.916" y1="0.000" x2="1.916" y2="1.000" />
<line x1="1.959" y1="0.000" x2="1.959" y2="1.000" />
<line x1="2.001" y1="0.000" x2="2.001" y2="1.000" />
<line x1="2.044" y1="0.000" x2="2.044" y2="1.000" />
<line x1="2.086" y1="0.000" x2="2.086" y2="2.000" />
<line x1="2.129" y1="0.000" x2="2.129" y2="1.000" />
<line x1="2.172" y1="0.000" x2="2.172" y2="1.000" />
<line x1="2.214" y1="0.000" x2="2.214" y2="3.000" />
<line x1="2.257" y1="0.000" x2="2.257" y2="1.000" />
<line x1="2.299" y1="0.000" x2="2.299" y2="2.000" />

<line x1="2.384" y1="0.000" x2="2.384" y2="1.000" />
<line x1="2.427" y1="0.000" x2="2.427" y2="2.000" />
<line x1="2.470" y1="0.000" x2="2.470" y2="1.000" />
<line x1="2.512" y1="0.000" x2="2.512" y2="1.000" />
<line x1="2.555" y1="0.000" x2="2.555" y2="2.000" />
<line x1="2.597" y1="0.000" x2="2.597" y2="2.000" />
<line x1="2.640" y1="0.000" x2="2.640" y2="1.000" />
<line x1="2.683" y1="0.000" x2="2.683" y2="2.000" />
<line x1="2.725" y1="0.000" x2="2.725" y2="3.000" />
<line x1="2.768" y1="0.000" x2="2.768" y2="1.000" />
<line x1="2.810" y1="0.000" x2="2.810" y2="3.000" />

<line x1="2.895" y1="0.000" x2="2.895" y2="1.000" />
<line x1="2.938" y1="0.000" x2="2.938" y2="3.000" />
<line x1="2.981" y1="0.000" x2="2.981" y2="1.000" />
<line x1="3.023" y1="0.000" x2="3.023" y2="1.000" />
<line x1="3.066" y1="0.000" x2="3.066" y2="3.000" />
<line x1="3.108" y1="0.000" x2="3.108" y2="2.000" />
<line x1="3.151" y1="0.000" x2="3.151" y2="1.000" />
<line x1="3.193" y1="0.000" x2="3.193" y2="3.000" />
<line x1="3.236" y1="0.000" x2="3.236" y2="3.000" />
<line x1="3.279" y1="0.000" x2="3.279" y2="2.000" />


<line x1="3.406" y1="0.000" x2="3.406" y2="2.000" />

<line x1="3.492" y1="0.000" x2="3.492" y2="1.000" />
<line x1="3.534" y1="0.000" x2="3.534" y2="2.000" />

<line x1="3.619" y1="0.000" x2="3.619" y2="2.000" />
<line x1="3.662" y1="0.000" x2="3.662" y2="2.000" />

<line x1="3.747" y1="0.000" x2="3.747" y2="3.000" />
<line x1="3.790" y1="0.000" x2="3.790" y2="2.000" />
<line x1="3.832" y1="0.000" x2="3.832" y2="1.000" />

<line x1="3.917" y1="0.000" x2="3.917" y2="2.000" />
<line x1="3.960" y1="0.000" x2="3.960" y2="1.000" />
<line x1="4.003" y1="0.000" x2="4.003" y2="1.000" />
<line x1="4.045" y1="0.000" x2="4.045" y2="2.000" />
<line x1="4.088" y1="0.000" x2="4.088" y2="1.000" />
<line x1="4.130" y1="0.000" x2="4.130" y2="2.000" />
<line x1="4.173" y1="0.000" x2="4.173" y2="2.000" />
<line x1="4.215" y1="0.000" x2="4.215" y2="1.000" />
<line x1="4.258" y1="0.000" x2="4.258" y2="3.000" />
<line x1="4.301" y1="0.000" x2="4.301" y2="2.000" />
<line x1="4.343" y1="0.000" x2="4.343" y2="2.000" />

<line x1="4.428" y1="0.000" x2="4.428" y2="2.000" />
<line x1="4.471" y1="0.000" x2="4.471" y2="2.000" />
<line x1="4.513" y1="0.000" x2="4.513" y2="1.000" />
<line x1="4.556" y1="0.000" x2="4.556" y2="2.000" />
<line x1="4.599" y1="0.000" x2="4.599" y2="2.000" />
<line x1="4.641" y1="0.000" x2="4.641" y2="2.000" />
<line x1="4.684" y1="0.000" x2="4.684" y2="2.000" />
<line x1="4.726" y1="0.000" x2="4.726" y2="2.000" />
<line x1="4.769" y1="0.000" x2="4.769" y2="3.000" />
<line x1="4.812" y1="0.000" x2="4.812" y2="2.000" />
<line x1="4.854" y1="0.000" x2="4.854" y2="3.000" />

</g>
</svg>