<svg xmlns="http://www.w3.org/2000/svg" width="161.8" height="100.0" viewBox="-3.44 -54.47 171.80 110.00">
<g fill="none" stroke="black" stroke-width="0.0453%" transform="translate(0, 1.0685) scale(11.0255, -11.0255)">
<circle cx="0.14" cy="0.52" r="0.05" />
<circle cx="0.28" cy="0.00" r="0.05" />
<circle cx="0.42" cy="0.52" r="0.05" />
<circle cx="0.56" cy="-0.52" r="0.05" />
<circle cx="0.71" cy="0.00" r="0.05" />
<circle cx="0.85" cy="0.75" r="0.05" />
<circle cx="0.99" cy="0.00" r="0.05" />
<circle cx="1.13" cy="-0.90" r="0.05" />
<circle cx="1.27" cy="0.00" r="0.05" />
<circle cx="1.41" cy="1.01" r="0.05" />
<circle cx="1.55" cy="0.52" r="0.05" />
<circle cx="1.69" cy="0.00" r="0.05" />
<circle cx="1.83" cy="-1.29" r="0.05" />
<circle cx="1.98" cy="0.00" r="0.05" />
<circle cx="2.12" cy="1.29" r="0.05" />
<circle cx="2.26" cy="0.00" r="0.05" />
<circle cx="2.40" cy="1.10" r="0.05" />
<circle cx="2.54" cy="0.00" r="0.05" />
<circle cx="2.68" cy="-1.67" r="0.05" />
<circle cx="2.82" cy="0.00" r="0.05" />
<circle cx="2.96" cy="1.58" r="0.05" />
<circle cx="3.10" cy="-0.52" r="0.05" />
<circle cx="3.25" cy="0.00" r="0.05" />
<circle cx="3.39" cy="1.63" r="0.05" />
<circle cx="3.53" cy="0.00" r="0.05" />
<circle cx="3.67" cy="-2.05" r="0.05" />
<circle cx="3.81" cy="0.00" r="0.05" />
<circle cx="3.95" cy="1.87" r="0.05" />
<circle cx="4.09" cy="0.00" r="0.05" />
<circle cx="4.23" cy="-1.23" r="0.05" />
<circle cx="4.37" cy="0.00" r="0.05" />
<circle cx="4.52" cy="2.11" r="0.05" />
<circle cx="4.66" cy="0.00" r="0.05" />
<circle cx="4.80" cy="-2.41" r="0.05" />
<circle cx="4.94" cy="0.00" r="0.05" />
<circle cx="5.08" cy="2.17" r="0.05" />
<circle cx="5.22" cy="0.52" r="0.05" />
<circle cx="5.36" cy="0.00" r="0.05" />
<circle cx="5.50" cy="-1.87" r="0.05" />
<circle cx="5.64" cy="0.00" r="0.05" />
<circle cx="5.79" cy="2.57" r="0.05" />
<circle cx="5.93" cy="0.00" r="0.05" />
<circle cx="6.07" cy="-2.77" r="0.05" />
<circle cx="6.21" cy="0.00" r="0.05" />
<circle cx="6.35" cy="2.47" r="0.05" />
<circle cx="6.49" cy="0.00" r="0.05" />
<circle cx="6.63" cy="1.34" r="0.05" />
<circle cx="6.77" cy="0.00" r="0.05" />
<circle cx="6.91" cy="-2.44" r="0.05" />
<circle cx="7.06" cy="0.00" r="0.05" />
<circle cx="7.20" cy="3.00" r="0.05" />
<circle cx="7.34" cy="0.00" r="0.05" />
<circle cx="7.48" cy="-3.12" r="0.05" />
<circle cx="7.62" cy="0.00" r="0.05" />
<circle cx="7.76" cy="2.77" r="0.05" />
<circle cx="7.90" cy="-0.52" r="0.05" />
<circle cx="8.04" cy="0.00" r="0.05" />
<circle cx="8.18" cy="2.06" r="0.05" />
<circle cx="8.33" cy="0.00" r="0.05" />
<circle cx="8.47" cy="-2.96" r="0.05" />
<circle cx="8.61" cy="0.00" r="0.05" />
<circle cx="8.75" cy="3.41" r="0.05" />
<circle cx="8.89" cy="0.00" r="0.05" />
<circle cx="9.03" cy="-3.47" r="0.05" />
<circle cx="9.17" cy="0.00" r="0.05" />
<circle cx="9.31" cy="3.07" r="0.05" />
<circle cx="9.45" cy="0.00" r="0.05" />
<circle cx="9.60" cy="-1.42" r="0.05" />
<circle cx="9.74" cy="0.00" r="0.05" />
<circle cx="9.88" cy="2.71" r="0.05" />
<circle cx="10.02" cy="0.00" r="0.05" />
<circle cx="10.16" cy="-3.45" r="0.05" />
<circle cx="10.30" cy="0.00" r="0.05" />
<circle cx="10.44" cy="3.81" r="0.05" />
<circle cx="10.58" cy="0.00" r="0.05" />
<circle cx="10.72" cy="-3.81" r="0.05" />
<circle cx="10.87" cy="0.00" r="0.05" />
<circle cx="11.01" cy="3.37" r="0.05" />
<circle cx="11.15" cy="0.52" r="0.05" />
<circle cx="11.29" cy="0.00" r="0.05" />
<circle cx="11.43" cy="-2.22" r="0.05" />
<circle cx="11.57" cy="0.00" r="0.05" />
<circle cx="11.71" cy="3.29" r="0.05" />
<circle cx="11.85" cy="0.00" r="0.05" />
<circle cx="11.99" cy="-3.92" r="0.05" />
<circle cx="12.14" cy="0.00" r="0.05" />
<circle cx="12.28" cy="4.20" r="0.05" />
<circle cx="12.42" cy="0.00" r="0.05" />
<circle cx="12.56" cy="-4.15" r="0.05" />
<circle cx="12.70" cy="0.00" r="0.05" />
<circle cx="12.84" cy="3.67" r="0.05" />
<circle cx="12.98" cy="0.00" r="0.05" />
<circle cx="13.12" cy="1.49" r="0.05" />
<circle cx="13.26" cy="0.00" r="0.05" />
<circle cx="13.41" cy="-2.92" r="0.05" />
<circle cx="13.55" cy="0.00" r="0.05" />
<circle cx="13.69" cy="3.83" r="0.05" />
<circle cx="13.83" cy="0.00" r="0.05" />
<circle cx="13.97" cy="-4.36" r="0.05" />
<circle cx="14.11" cy="0.00" r="0.05" />
<circle cx="14.25" cy="4.58" r="0.05" />
<circle cx="14.39" cy="0.00" r="0.05" />
<circle cx="14.53" cy="-4.49" r="0.05" />
<circle cx="14.68" cy="0.00" r="0.05" />
<circle cx="14.82" cy="3.97" r="0.05" />
</g>
</svg>