<svg xmlns="http://www.w3.org/2000/svg" width="161.8" height="100.0" viewBox="-4.23 -55.46 171.80 110.00">
<g fill="none" stroke="black" stroke-width="0.0363%" transform="translate(0, -0.9218) scale(13.7729, -13.7729)">
<circle cx="0.06" cy="0.52" r="0.04" />
<circle cx="0.11" cy="0.00" r="0.04" />
<circle cx="0.17" cy="0.52" r="0.04" />
<circle cx="0.22" cy="-0.52" r="0.04" />
<circle cx="0.28" cy="0.00" r="0.04" />
<circle cx="0.34" cy="0.52" r="0.04" />
<circle cx="0.39" cy="0.00" r="0.04" />
<circle cx="0.45" cy="-0.75" r="0.04" />
<circle cx="0.51" cy="0.00" r="0.04" />
<circle cx="0.56" cy="0.52" r="0.04" />
<circle cx="0.62" cy="0.52" r="0.04" />
<circle cx="0.67" cy="0.00" r="0.04" />
<circle cx="0.73" cy="-0.90" r="0.04" />
<circle cx="0.79" cy="0.00" r="0.04" />
<circle cx="0.84" cy="0.52" r="0.04" />
<circle cx="0.90" cy="0.00" r="0.04" />
<circle cx="0.96" cy="0.90" r="0.04" />
<circle cx="1.01" cy="0.00" r="0.04" />
<circle cx="1.07" cy="-1.01" r="0.04" />
<circle cx="1.12" cy="0.00" r="0.04" />
<circle cx="1.18" cy="0.52" r="0.04" />
<circle cx="1.24" cy="-0.52" r="0.04" />
<circle cx="1.29" cy="0.00" r="0.04" />
<circle cx="1.35" cy="1.17" r="0.04" />
<circle cx="1.41" cy="0.00" r="0.04" />
<circle cx="1.46" cy="-1.10" r="0.04" />
<circle cx="1.52" cy="0.00" r="0.04" />
<circle cx="1.57" cy="0.52" r="0.04" />
<circle cx="1.63" cy="0.00" r="0.04" />
<circle cx="1.69" cy="-1.01" r="0.04" />
<circle cx="1.74" cy="0.00" r="0.04" />
<circle cx="1.80" cy="1.38" r="0.04" />
<circle cx="1.85" cy="0.00" r="0.04" />
<circle cx="1.91" cy="-1.17" r="0.04" />
<circle cx="1.97" cy="0.00" r="0.04" />
<circle cx="2.02" cy="0.52" r="0.04" />
<circle cx="2.08" cy="0.52" r="0.04" />
<circle cx="2.14" cy="0.00" r="0.04" />
<circle cx="2.19" cy="-1.38" r="0.04" />
<circle cx="2.25" cy="0.00" r="0.04" />
<circle cx="2.30" cy="1.55" r="0.04" />
<circle cx="2.36" cy="0.00" r="0.04" />
<circle cx="2.42" cy="-1.23" r="0.04" />
<circle cx="2.47" cy="0.00" r="0.04" />
<circle cx="2.53" cy="0.52" r="0.04" />
<circle cx="2.59" cy="0.00" r="0.04" />
<circle cx="2.64" cy="1.10" r="0.04" />
<circle cx="2.70" cy="0.00" r="0.04" />
<circle cx="2.75" cy="-1.67" r="0.04" />
<circle cx="2.81" cy="0.00" r="0.04" />
<circle cx="2.87" cy="1.69" r="0.04" />
<circle cx="2.92" cy="0.00" r="0.04" />
<circle cx="2.98" cy="-1.29" r="0.04" />
<circle cx="3.04" cy="0.00" r="0.04" />
<circle cx="3.09" cy="0.52" r="0.04" />
<circle cx="3.15" cy="-0.52" r="0.04" />
<circle cx="3.20" cy="0.00" r="0.04" />
<circle cx="3.26" cy="1.55" r="0.04" />
<circle cx="3.32" cy="0.00" r="0.04" />
<circle cx="3.37" cy="-1.91" r="0.04" />
<circle cx="3.43" cy="0.00" r="0.04" />
<circle cx="3.49" cy="1.82" r="0.04" />
<circle cx="3.54" cy="0.00" r="0.04" />
<circle cx="3.60" cy="-1.34" r="0.04" />
<circle cx="3.65" cy="0.00" r="0.04" />
<circle cx="3.71" cy="0.52" r="0.04" />
<circle cx="3.77" cy="0.00" r="0.04" />
<circle cx="3.82" cy="-1.17" r="0.04" />
<circle cx="3.88" cy="0.00" r="0.04" />
<circle cx="3.93" cy="1.91" r="0.04" />
<circle cx="3.99" cy="0.00" r="0.04" />
<circle cx="4.05" cy="-2.11" r="0.04" />
<circle cx="4.10" cy="0.00" r="0.04" />
<circle cx="4.16" cy="1.92" r="0.04" />
<circle cx="4.22" cy="0.00" r="0.04" />
<circle cx="4.27" cy="-1.38" r="0.04" />
<circle cx="4.33" cy="0.00" r="0.04" />
<circle cx="4.38" cy="0.52" r="0.04" />
<circle cx="4.44" cy="0.52" r="0.04" />
<circle cx="4.50" cy="0.00" r="0.04" />
<circle cx="4.55" cy="-1.69" r="0.04" />
<circle cx="4.61" cy="0.00" r="0.04" />
<circle cx="4.67" cy="2.21" r="0.04" />
<circle cx="4.72" cy="0.00" r="0.04" />
<circle cx="4.78" cy="-2.29" r="0.04" />
<circle cx="4.83" cy="0.00" r="0.04" />
<circle cx="4.89" cy="2.02" r="0.04" />
<circle cx="4.95" cy="0.00" r="0.04" />
<circle cx="5.00" cy="-1.42" r="0.04" />
<circle cx="5.06" cy="0.00" r="0.04" />
<circle cx="5.12" cy="0.52" r="0.04" />
<circle cx="5.17" cy="0.00" r="0.04" />
<circle cx="5.23" cy="1.23" r="0.04" />
<circle cx="5.28" cy="0.00" r="0.04" />
<circle cx="5.34" cy="-2.11" r="0.04" />
<circle cx="5.40" cy="0.00" r="0.04" />
<circle cx="5.45" cy="2.46" r="0.04" />
<circle cx="5.51" cy="0.00" r="0.04" />
<circle cx="5.56" cy="-2.44" r="0.04" />
<circle cx="5.62" cy="0.00" r="0.04" />
<circle cx="5.68" cy="2.11" r="0.04" />
<circle cx="5.73" cy="0.00" r="0.04" />
<circle cx="5.79" cy="-1.46" r="0.04" />
<circle cx="5.85" cy="0.00" r="0.04" />
<circle cx="5.90" cy="0.52" r="0.04" />
<circle cx="5.96" cy="-0.52" r="0.04" />
<circle cx="6.01" cy="0.00" r="0.04" />
<circle cx="6.07" cy="1.82" r="0.04" />
<circle cx="6.13" cy="0.00" r="0.04" />
<circle cx="6.18" cy="-2.46" r="0.04" />
<circle cx="6.24" cy="0.00" r="0.04" />
<circle cx="6.30" cy="2.69" r="0.04" />
<circle cx="6.35" cy="0.00" r="0.04" />
<circle cx="6.41" cy="-2.58" r="0.04" />
<circle cx="6.46" cy="0.00" r="0.04" />
<circle cx="6.52" cy="2.18" r="0.04" />
<circle cx="6.58" cy="0.00" r="0.04" />
<circle cx="6.63" cy="-1.49" r="0.04" />
<circle cx="6.69" cy="0.00" r="0.04" />
<circle cx="6.75" cy="0.52" r="0.04" />
<circle cx="6.80" cy="0.00" r="0.04" />
<circle cx="6.86" cy="-1.29" r="0.04" />
<circle cx="6.91" cy="0.00" r="0.04" />
<circle cx="6.97" cy="2.29" r="0.04" />
<circle cx="7.03" cy="0.00" r="0.04" />
<circle cx="7.08" cy="-2.76" r="0.04" />
<circle cx="7.14" cy="0.00" r="0.04" />
<circle cx="7.19" cy="2.88" r="0.04" />
<circle cx="7.25" cy="0.00" r="0.04" />
<circle cx="7.31" cy="-2.71" r="0.04" />
<circle cx="7.36" cy="0.00" r="0.04" />
<circle cx="7.42" cy="2.26" r="0.04" />
<circle cx="7.48" cy="0.00" r="0.04" />
<circle cx="7.53" cy="-1.52" r="0.04" />
<circle cx="7.59" cy="0.00" r="0.04" />
<circle cx="7.64" cy="0.52" r="0.04" />
<circle cx="7.70" cy="0.52" r="0.04" />
<circle cx="7.76" cy="0.00" r="0.04" />
<circle cx="7.81" cy="-1.92" r="0.04" />
<circle cx="7.87" cy="0.00" r="0.04" />
<circle cx="7.93" cy="2.69" r="0.04" />
<circle cx="7.98" cy="0.00" r="0.04" />
<circle cx="8.04" cy="-3.03" r="0.04" />
<circle cx="8.09" cy="0.00" r="0.04" />
<circle cx="8.15" cy="3.06" r="0.04" />
<circle cx="8.21" cy="0.00" r="0.04" />
<circle cx="8.26" cy="-2.82" r="0.04" />
<circle cx="8.32" cy="0.00" r="0.04" />
<circle cx="8.38" cy="2.32" r="0.04" />
<circle cx="8.43" cy="0.00" r="0.04" />
<circle cx="8.49" cy="-1.55" r="0.04" />
<circle cx="8.54" cy="0.00" r="0.04" />
<circle cx="8.60" cy="0.52" r="0.04" />
<circle cx="8.66" cy="0.00" r="0.04" />
<circle cx="8.71" cy="1.34" r="0.04" />
<circle cx="8.77" cy="0.00" r="0.04" />
<circle cx="8.82" cy="-2.44" r="0.04" />
<circle cx="8.88" cy="0.00" r="0.04" />
<circle cx="8.94" cy="3.03" r="0.04" />
<circle cx="8.99" cy="0.00" r="0.04" />
<circle cx="9.05" cy="-3.26" r="0.04" />
<circle cx="9.11" cy="0.00" r="0.04" />
<circle cx="9.16" cy="3.22" r="0.04" />
<circle cx="9.22" cy="0.00" r="0.04" />
<circle cx="9.27" cy="-2.92" r="0.04" />
<circle cx="9.33" cy="0.00" r="0.04" />
<circle cx="9.39" cy="2.39" r="0.04" />
<circle cx="9.44" cy="0.00" r="0.04" />
<circle cx="9.50" cy="-1.58" r="0.04" />
<circle cx="9.56" cy="0.00" r="0.04" />
<circle cx="9.61" cy="0.52" r="0.04" />
<circle cx="9.67" cy="-0.52" r="0.04" />
<circle cx="9.72" cy="0.00" r="0.04" />
<circle cx="9.78" cy="2.02" r="0.04" />
<circle cx="9.84" cy="0.00" r="0.04" />
<circle cx="9.89" cy="-2.88" r="0.04" />
<circle cx="9.95" cy="0.00" r="0.04" />
<circle cx="10.01" cy="3.33" r="0.04" />
<circle cx="10.06" cy="0.00" r="0.04" />
<circle cx="10.12" cy="-3.47" r="0.04" />
<circle cx="10.17" cy="0.00" r="0.04" />
<circle cx="10.23" cy="3.36" r="0.04" />
<circle cx="10.29" cy="0.00" r="0.04" />
<circle cx="10.34" cy="-3.02" r="0.04" />
<circle cx="10.40" cy="0.00" r="0.04" />
<circle cx="10.46" cy="2.44" r="0.04" />
<circle cx="10.51" cy="0.00" r="0.04" />
<circle cx="10.57" cy="-1.60" r="0.04" />
<circle cx="10.62" cy="0.00" r="0.04" />
<circle cx="10.68" cy="0.52" r="0.04" />
<circle cx="10.74" cy="0.00" r="0.04" />
<circle cx="10.79" cy="-1.38" r="0.04" />
<circle cx="10.85" cy="0.00" r="0.04" />
<circle cx="10.90" cy="2.58" r="0.04" />
<circle cx="10.96" cy="0.00" r="0.04" />
<circle cx="11.02" cy="-3.26" r="0.04" />
<circle cx="11.07" cy="0.00" r="0.04" />
<circle cx="11.13" cy="3.60" r="0.04" />
<circle cx="11.19" cy="0.00" r="0.04" />
<circle cx="11.24" cy="-3.66" r="0.04" />
<circle cx="11.30" cy="0.00" r="0.04" />
<circle cx="11.35" cy="3.50" r="0.04" />
<circle cx="11.41" cy="0.00" r="0.04" />
<circle cx="11.47" cy="-3.11" r="0.04" />
<circle cx="11.52" cy="0.00" r="0.04" />
<circle cx="11.58" cy="2.50" r="0.04" />
<circle cx="11.64" cy="0.00" r="0.04" />
<circle cx="11.69" cy="-1.63" r="0.04" />
<circle cx="11.75" cy="0.00" r="0.04" />
<circle cx="11.80" cy="0.52" r="0.04" />
</g>
</svg>