<svg xmlns="http://www.w3.org/2000/svg" width="100.0" height="100.0" viewBox="-55.000 -55.000 110.000 110.000">
<g fill="none" stroke="black" stroke-width="0.0100%" transform="translate(0, 0.0000) scale(50.0000, -50.0000)">
<circle cx="-1.000" cy="0.000" r="0.010" />
<circle cx="0.000" cy="1.000" r="0.010" />
<polyline points="-1.000,-1.000 -0.980,-0.539 -0.960,-0.151 -0.940,0.169 -0.920,0.428 -0.900,0.632 -0.880,0.786 -0.860,0.894 -0.840,0.963 -0.820,0.996 -0.800,0.997 -0.780,0.972 -0.760,0.923 -0.740,0.854 -0.720,0.769 -0.700,0.671 -0.680,0.562 -0.660,0.446 -0.640,0.325 -0.620,0.201 -0.600,0.076 -0.580,-0.048 -0.560,-0.169 -0.540,-0.285 -0.520,-0.396 -0.500,-0.500 -0.480,-0.596 -0.460,-0.683 -0.440,-0.760 -0.420,-0.827 -0.400,-0.884 -0.380,-0.929 -0.360,-0.964 -0.340,-0.987 -0.320,-0.998 -0.300,-0.999 -0.280,-0.988 -0.260,-0.967 -0.240,-0.936 -0.220,-0.895 -0.200,-0.845 -0.180,-0.786 -0.160,-0.720 -0.140,-0.646 -0.120,-0.566 -0.100,-0.480 -0.080,-0.390 -0.060,-0.296 -0.040,-0.199 -0.020,-0.100 0.000,0.000 0.020,0.100 0.040,0.199 0.060,0.296 0.080,0.390 0.100,0.480 0.120,0.566 0.140,0.646 0.160,0.720 0.180,0.786 0.200,0.845 0.220,0.895 0.240,0.936 0.260,0.967 0.280,0.988 0.300,0.999 0.320,0.998 0.340,0.987 0.360,0.964 0.380,0.929 0.400,0.884 0.420,0.827 0.440,0.760 0.460,0.683 0.480,0.596 0.500,0.500 0.520,0.396 0.540,0.285 0.560,0.169 0.580,0.048 0.600,-0.076 0.620,-0.201 0.640,-0.325 0.660,-0.446 0.680,-0.562 0.700,-0.671 0.720,-0.769 0.740,-0.854 0.760,-0.923 0.780,-0.972 0.800,-0.997 0.820,-0.996 0.840,-0.963 0.860,-0.894 0.880,-0.786 0.900,-0.632 0.920,-0.428 0.940,-0.169 0.960,0.151 0.980,0.539 1.000,1.000" />
</g>
</svg>