<svg xmlns="http://www.w3.org/2000/svg" width="161.8" height="100.0" viewBox="-85.90 -23.22 171.80 110.00">
<g fill="none" stroke="black" stroke-width="0.0673%" transform="translate(0, 63.5639) scale(7.4347, -7.4347)">
<circle cx="-10.88" cy="0.00" r="0.07" />
<circle cx="0.00" cy="11.00" r="0.07" />
<polyline points="-10.88,11.00 -10.66,4.05 -10.45,0.07 -10.23,-1.86 -10.01,-2.45 -9.79,-2.22 -9.58,-1.57 -9.36,-0.75 -9.14,0.05 -8.92,0.71 -8.71,1.19 -8.49,1.46 -8.27,1.53 -8.05,1.44 -7.83,1.20 -7.62,0.88 -7.40,0.49 -7.18,0.10 -6.96,-0.28 -6.75,-0.61 -6.53,-0.88 -6.31,-1.06 -6.09,-1.17 -5.88,-1.19 -5.66,-1.13 -5.44,-1.00 -5.22,-0.81 -5.01,-0.58 -4.79,-0.33 -4.57,-0.06 -4.35,0.20 -4.14,0.45 -3.92,0.66 -3.70,0.83 -3.48,0.95 -3.26,1.03 -3.05,1.04 -2.83,1.00 -2.61,0.92 -2.39,0.78 -2.18,0.61 -1.96,0.41 -1.74,0.20 -1.52,-0.03 -1.31,-0.25 -1.09,-0.45 -0.87,-0.64 -0.65,-0.79 -0.44,-0.91 -0.22,-0.98 0.00,-1.00 0.22,-0.98 0.44,-0.91 0.65,-0.79 0.87,-0.64 1.09,-0.45 1.31,-0.25 1.52,-0.03 1.74,0.20 1.96,0.41 2.18,0.61 2.39,0.78 2.61,0.92 2.83,1.00 3.05,1.04 3.26,1.03 3.48,0.95 3.70,0.83 3.92,0.66 4.14,0.45 4.35,0.20 4.57,-0.06 4.79,-0.33 5.01,-0.58 5.22,-0.81 5.44,-1.00 5.66,-1.13 5.88,-1.19 6.09,-1.17 6.31,-1.06 6.53,-0.88 6.75,-0.61 6.96,-0.28 7.18,0.10 7.40,0.49 7.62,0.88 7.83,1.20 8.05,1.44 8.27,1.53 8.49,1.46 8.71,1.19 8.92,0.71 9.14,0.05 9.36,-0.75 9.58,-1.57 9.79,-2.22 10.01,-2.45 10.23,-1.86 10.45,0.07 10.66,4.05 10.88,11.00" />
</g>
</svg>