<svg xmlns="http://www.w3.org/2000/svg" width="100.0" height="100.0" viewBox="-55.000 -55.000 110.000 110.000">
<g fill="none" stroke="black" stroke-width="0.0100%" transform="translate(0, 0.0000) scale(50.0000, -50.0000)">
<circle cx="-1.000" cy="0.000" r="0.010" />
<circle cx="0.000" cy="1.000" r="0.010" />
<polyline points="-1.000,1.000 -0.980,-0.419 -0.960,-0.954 -0.940,-0.943 -0.920,-0.633 -0.900,-0.201 -0.880,0.235 -0.860,0.600 -0.840,0.854 -0.820,0.982 -0.800,0.988 -0.780,0.888 -0.760,0.703 -0.740,0.459 -0.720,0.183 -0.700,-0.100 -0.680,-0.368 -0.660,-0.602 -0.640,-0.789 -0.620,-0.919 -0.600,-0.988 -0.580,-0.995 -0.560,-0.943 -0.540,-0.837 -0.520,-0.686 -0.500,-0.500 -0.480,-0.290 -0.460,-0.068 -0.440,0.156 -0.420,0.369 -0.400,0.562 -0.380,0.727 -0.360,0.857 -0.340,0.947 -0.320,0.993 -0.300,0.996 -0.280,0.954 -0.260,0.872 -0.240,0.753 -0.220,0.603 -0.200,0.428 -0.180,0.237 -0.160,0.036 -0.140,-0.165 -0.120,-0.360 -0.100,-0.539 -0.080,-0.696 -0.060,-0.825 -0.040,-0.921 -0.020,-0.980 0.000,-1.000 0.020,-0.980 0.040,-0.921 0.060,-0.825 0.080,-0.696 0.100,-0.539 0.120,-0.360 0.140,-0.165 0.160,0.036 0.180,0.237 0.200,0.428 0.220,0.603 0.240,0.753 0.260,0.872 0.280,0.954 0.300,0.996 0.320,0.993 0.340,0.947 0.360,0.857 0.380,0.727 0.400,0.562 0.420,0.369 0.440,0.156 0.460,-0.068 0.480,-0.290 0.500,-0.500 0.520,-0.686 0.540,-0.837 0.560,-0.943 0.580,-0.995 0.600,-0.988 0.620,-0.919 0.640,-0.789 0.660,-0.602 0.680,-0.368 0.700,-0.100 0.720,0.183 0.740,0.459 0.760,0.703 0.780,0.888 0.800,0.988 0.820,0.982 0.840,0.854 0.860,0.600 0.880,0.235 0.900,-0.201 0.920,-0.633 0.940,-0.943 0.960,-0.954 0.980,-0.419 1.000,1.000" />
</g>
</svg>