<svg xmlns="http://www.w3.org/2000/svg" width="161.8" height="100.0" viewBox="-5.000 -5.000 171.803 110.000">
<g fill="none" stroke="black" stroke-width="0.0020%" transform="translate(0, 100.0000) scale(250.0000, -250.0000)">
<circle cx="0.000" cy="0.000" r="0.002" />
<circle cx="0.000" cy="0.400" r="0.002" />
<polyline points="0.000,0.400 0.006,0.400 0.013,0.400 0.019,0.400 0.026,0.400 0.032,0.400 0.039,0.400 0.045,0.360 0.052,0.316 0.058,0.281 0.065,0.252 0.071,0.228 0.078,0.207 0.084,0.189 0.091,0.174 0.097,0.160 0.104,0.148 0.110,0.137 0.116,0.128 0.123,0.119 0.129,0.111 0.136,0.104 0.142,0.097 0.149,0.091 0.155,0.086 0.162,0.081 0.168,0.076 0.175,0.072 0.181,0.068 0.188,0.064 0.194,0.061 0.201,0.057 0.207,0.054 0.214,0.052 0.220,0.049 0.227,0.047 0.233,0.044 0.239,0.042 0.246,0.040 0.252,0.038 0.259,0.036 0.265,0.035 0.272,0.033 0.278,0.031 0.285,0.030 0.291,0.029 0.298,0.027 0.304,0.026 0.311,0.025 0.317,0.024 0.324,0.023 0.330,0.022 0.337,0.021 0.343,0.020 0.349,0.019 0.356,0.018 0.362,0.017 0.369,0.017 0.375,0.016 0.382,0.015 0.388,0.015 0.395,0.014 0.401,0.013 0.408,0.013 0.414,0.012 0.421,0.012 0.427,0.011 0.434,0.011 0.440,0.011 0.447,0.010 0.453,0.010 0.460,0.009 0.466,0.009 0.472,0.009 0.479,0.008 0.485,0.008 0.492,0.008 0.498,0.007 0.505,0.007 0.511,0.007 0.518,0.006 0.524,0.006 0.531,0.006 0.537,0.006 0.544,0.006 0.550,0.005 0.557,0.005 0.563,0.005 0.570,0.005 0.576,0.005 0.582,0.004 0.589,0.004 0.595,0.004 0.602,0.004 0.608,0.004 0.615,0.004 0.621,0.004 0.628,0.003 0.634,0.003 0.641,0.003 0.647,0.003" />
<polyline points="0.000,0.000 0.006,0.095 0.013,0.130 0.019,0.155 0.026,0.173 0.032,0.188 0.039,0.200 0.045,0.210 0.052,0.217 0.058,0.224 0.065,0.229 0.071,0.233 0.078,0.236 0.084,0.239 0.091,0.240 0.097,0.241 0.104,0.242 0.110,0.242 0.116,0.242 0.123,0.241 0.129,0.240 0.136,0.239 0.142,0.237 0.149,0.235 0.155,0.233 0.162,0.231 0.168,0.228 0.175,0.226 0.181,0.223 0.188,0.220 0.194,0.218 0.201,0.215 0.207,0.212 0.214,0.209 0.220,0.205 0.227,0.202 0.233,0.199 0.239,0.196 0.246,0.193 0.252,0.189 0.259,0.186 0.265,0.183 0.272,0.180 0.278,0.176 0.285,0.173 0.291,0.170 0.298,0.167 0.304,0.164 0.311,0.160 0.317,0.157 0.324,0.154 0.330,0.151 0.337,0.148 0.343,0.145 0.349,0.142 0.356,0.139 0.362,0.136 0.369,0.133 0.375,0.131 0.382,0.128 0.388,0.125 0.395,0.122 0.401,0.120 0.408,0.117 0.414,0.115 0.421,0.112 0.427,0.110 0.434,0.107 0.440,0.105 0.447,0.102 0.453,0.100 0.460,0.098 0.466,0.096 0.472,0.093 0.479,0.091 0.485,0.089 0.492,0.087 0.498,0.085 0.505,0.083 0.511,0.081 0.518,0.079 0.524,0.077 0.531,0.076 0.537,0.074 0.544,0.072 0.550,0.070 0.557,0.069 0.563,0.067 0.570,0.065 0.576,0.064 0.582,0.062 0.589,0.061 0.595,0.059 0.602,0.058 0.608,0.056 0.615,0.055 0.621,0.054 0.628,0.052 0.634,0.051 0.641,0.050 0.647,0.049" />
<polyline points="0.000,0.000 0.006,0.002 0.013,0.005 0.019,0.009 0.026,0.014 0.032,0.019 0.039,0.024 0.045,0.029 0.052,0.035 0.058,0.040 0.065,0.046 0.071,0.051 0.078,0.057 0.084,0.062 0.091,0.067 0.097,0.072 0.104,0.077 0.110,0.082 0.116,0.087 0.123,0.092 0.129,0.096 0.136,0.100 0.142,0.104 0.149,0.108 0.155,0.112 0.162,0.115 0.168,0.119 0.175,0.122 0.181,0.125 0.188,0.128 0.194,0.131 0.201,0.133 0.207,0.135 0.214,0.138 0.220,0.140 0.227,0.142 0.233,0.143 0.239,0.145 0.246,0.146 0.252,0.148 0.259,0.149 0.265,0.150 0.272,0.151 0.278,0.152 0.285,0.152 0.291,0.153 0.298,0.153 0.304,0.154 0.311,0.154 0.317,0.154 0.324,0.154 0.330,0.154 0.337,0.154 0.343,0.154 0.349,0.153 0.356,0.153 0.362,0.153 0.369,0.152 0.375,0.152 0.382,0.151 0.388,0.150 0.395,0.149 0.401,0.149 0.408,0.148 0.414,0.147 0.421,0.146 0.427,0.145 0.434,0.144 0.440,0.143 0.447,0.141 0.453,0.140 0.460,0.139 0.466,0.138 0.472,0.136 0.479,0.135 0.485,0.134 0.492,0.132 0.498,0.131 0.505,0.130 0.511,0.128 0.518,0.127 0.524,0.125 0.531,0.124 0.537,0.123 0.544,0.121 0.550,0.120 0.557,0.118 0.563,0.117 0.570,0.115 0.576,0.114 0.582,0.112 0.589,0.111 0.595,0.109 0.602,0.108 0.608,0.106 0.615,0.105 0.621,0.103 0.628,0.102 0.634,0.100 0.641,0.099 0.647,0.097" />
</g>
</svg>