<svg xmlns="http://www.w3.org/2000/svg" width="150.0" height="100.0" viewBox="5.00 5.00 160.00 110.00">
<g fill="none" stroke="black" stroke-width="0.0250%" transform="translate(0, 120.0000) scale(20.0000, -20.0000)">
<circle cx="1.00" cy="1.00" r="0.50" />
<circle cx="1.50" cy="2.00" r="0.50" />
<circle cx="1.00" cy="3.00" r="0.50" />
<circle cx="1.50" cy="4.00" r="0.50" />
<circle cx="1.00" cy="5.00" r="0.50" />
<circle cx="2.00" cy="1.00" r="0.50" />
<circle cx="2.50" cy="2.00" r="0.50" />
<circle cx="2.00" cy="3.00" r="0.50" />
<circle cx="2.50" cy="4.00" r="0.50" />
<circle cx="2.00" cy="5.00" r="0.50" />
<circle cx="3.00" cy="1.00" r="0.50" />
<circle cx="3.50" cy="2.00" r="0.50" />
<circle cx="3.00" cy="3.00" r="0.50" />
<circle cx="3.50" cy="4.00" r="0.50" />
<circle cx="3.00" cy="5.00" r="0.50" />
<circle cx="4.00" cy="1.00" r="0.50" />
<circle cx="4.50" cy="2.00" r="0.50" />
<circle cx="4.00" cy="3.00" r="0.50" />
<circle cx="4.50" cy="4.00" r="0.50" />
<circle cx="4.00" cy="5.00" r="0.50" />
<circle cx="5.00" cy="1.00" r="0.50" />
<circle cx="5.50" cy="2.00" r="0.50" />
<circle cx="5.00" cy="3.00" r="0.50" />
<circle cx="5.50" cy="4.00" r="0.50" />
<circle cx="5.00" cy="5.00" r="0.50" />
<circle cx="6.00" cy="1.00" r="0.50" />
<circle cx="6.50" cy="2.00" r="0.50" />
<circle cx="6.00" cy="3.00" r="0.50" />
<circle cx="6.50" cy="4.00" r="0.50" />
<circle cx="6.00" cy="5.00" r="0.50" />
<circle cx="7.00" cy="1.00" r="0.50" />
<circle cx="7.50" cy="2.00" r="0.50" />
<circle cx="7.00" cy="3.00" r="0.50" />
<circle cx="7.50" cy="4.00" r="0.50" />
<circle cx="7.00" cy="5.00" r="0.50" />
</g>
</svg>