<svg xmlns="http://www.w3.org/2000/svg" width="161.8" height="100.0" viewBox="-1.764 -25.354 171.803 110.000">
<g fill="none" stroke="black" stroke-width="0.0061%" transform="translate(0, 59.2911) scale(82.0789, -82.0789)">
<circle cx="0.039" cy="0.000" r="0.006" />
<polyline points="0.039,-0.248 0.079,0.611 0.118,0.413 0.158,0.031 0.197,0.700 0.237,0.552 0.276,0.302 0.315,0.852 0.355,0.679 0.394,0.523 0.434,0.246 0.473,0.787 0.513,0.642 0.552,0.466 0.591,0.132 0.631,0.715 0.670,0.570 0.710,0.338 0.749,0.902 0.789,0.694 0.828,0.543 0.867,0.286 0.907,0.831 0.946,0.670 0.986,0.510 1.025,0.219 1.065,0.763 1.104,0.622 1.143,0.432 1.183,0.065 1.222,0.702 1.262,0.554 1.301,0.306 1.340,0.857 1.380,0.682 1.419,0.526 1.459,0.252 1.498,0.793 1.538,0.647 1.577,0.473 1.616,0.147 1.656,0.720 1.695,0.576 1.735,0.350 1.774,0.921 1.814,0.697 1.853,0.547 1.892,0.293 1.932,0.840 1.971,0.674 2.011,0.516" />
<polyline points="0.039,0.195 0.079,0.745 0.118,0.604 0.158,0.402 0.197,0.009 0.237,0.700 0.276,0.551 0.315,0.302 0.355,0.851 0.394,0.679 0.434,0.523 0.473,0.246 0.513,0.787 0.552,0.642 0.591,0.465 0.631,0.131 0.670,0.714 0.710,0.569 0.749,0.336 0.789,0.900 0.828,0.694 0.867,0.543 0.907,0.285 0.946,0.830 0.986,0.669 1.025,0.509 1.065,0.217 1.104,0.761 1.143,0.620 1.183,0.429 1.222,0.061 1.262,0.701 1.301,0.553 1.340,0.306 1.380,0.856 1.419,0.681 1.459,0.526 1.498,0.251 1.538,0.792 1.577,0.646 1.616,0.472 1.656,0.144 1.695,0.719 1.735,0.575 1.774,0.347 1.814,0.916 1.853,0.696 1.892,0.546 1.932,0.292 1.971,0.838 2.011,0.674" />
<polyline points="0.039,-0.169 0.079,0.670 0.118,0.509 0.158,0.219 0.197,0.763 0.237,0.621 0.276,0.431 0.315,0.064 0.355,0.702 0.394,0.554 0.434,0.306 0.473,0.857 0.513,0.682 0.552,0.526 0.591,0.252 0.631,0.793 0.670,0.646 0.710,0.473 0.749,0.146 0.789,0.720 0.828,0.576 0.867,0.349 0.907,0.920 0.946,0.697 0.986,0.547 1.025,0.293 1.065,0.840 1.104,0.674 1.143,0.516 1.183,0.232 1.222,0.774 1.262,0.631 1.301,0.448 1.340,0.096 1.380,0.706 1.419,0.559 1.459,0.316 1.498,0.871 1.538,0.686 1.577,0.533 1.616,0.265 1.656,0.807 1.695,0.656 1.735,0.488 1.774,0.176 1.814,0.734 1.853,0.592 1.892,0.380 1.932,0.970 1.971,0.700 2.011,0.551" />
<polyline points="0.039,-0.052 0.079,0.699 0.118,0.550 0.158,0.299 0.197,0.848 0.237,0.678 0.276,0.521 0.315,0.242 0.355,0.783 0.394,0.639 0.434,0.461 0.473,0.122 0.513,0.711 0.552,0.566 0.591,0.330 0.631,0.891 0.670,0.692 0.710,0.540 0.749,0.280 0.789,0.824 0.828,0.666 0.867,0.504 0.907,0.207 0.946,0.754 0.986,0.613 1.025,0.416 1.065,0.037 1.104,0.700 1.143,0.552 1.183,0.303 1.222,0.852 1.262,0.680 1.301,0.523 1.340,0.247 1.380,0.788 1.419,0.642 1.459,0.467 1.498,0.134 1.538,0.715 1.577,0.570 1.616,0.339 1.656,0.904 1.695,0.694 1.735,0.544 1.774,0.287 1.814,0.832 1.853,0.670 1.892,0.510 1.932,0.220 1.971,0.764 2.011,0.622" />
</g>
</svg>