<svg xmlns="http://www.w3.org/2000/svg" width="90.3" height="100.0" viewBox="-39.74 -55.00 100.33 110.00">
<g fill="none" stroke="black" stroke-width="0.0360%" transform="translate(0, 0.0000) scale(13.8963, -13.8963)">
<circle cx="0.00" cy="0.00" r="1.00" />
<circle cx="1.00" cy="0.00" r="1.00" />
<circle cx="-0.50" cy="0.87" r="1.00" />
<circle cx="-0.50" cy="-0.87" r="1.00" />
<circle cx="2.00" cy="0.00" r="1.00" />
<circle cx="0.50" cy="0.87" r="1.00" />
<circle cx="0.50" cy="-0.87" r="1.00" />
<circle cx="0.50" cy="0.87" r="1.00" />
<circle cx="-1.00" cy="1.73" r="1.00" />
<circle cx="-1.00" cy="0.00" r="1.00" />
<circle cx="0.50" cy="-0.87" r="1.00" />
<circle cx="-1.00" cy="0.00" r="1.00" />
<circle cx="-1.00" cy="-1.73" r="1.00" />
<circle cx="3.00" cy="0.00" r="1.00" />
<circle cx="1.50" cy="0.87" r="1.00" />
<circle cx="1.50" cy="-0.87" r="1.00" />
<circle cx="1.50" cy="0.87" r="1.00" />
<circle cx="0.00" cy="1.73" r="1.00" />
<circle cx="-0.00" cy="0.00" r="1.00" />
<circle cx="1.50" cy="-0.87" r="1.00" />
<circle cx="-0.00" cy="0.00" r="1.00" />
<circle cx="-0.00" cy="-1.73" r="1.00" />
<circle cx="1.50" cy="0.87" r="1.00" />
<circle cx="0.00" cy="1.73" r="1.00" />
<circle cx="-0.00" cy="0.00" r="1.00" />
<circle cx="0.00" cy="1.73" r="1.00" />
<circle cx="-1.50" cy="2.60" r="1.00" />
<circle cx="-1.50" cy="0.87" r="1.00" />
<circle cx="-0.00" cy="0.00" r="1.00" />
<circle cx="-1.50" cy="0.87" r="1.00" />
<circle cx="-1.50" cy="-0.87" r="1.00" />
<circle cx="1.50" cy="-0.87" r="1.00" />
<circle cx="-0.00" cy="0.00" r="1.00" />
<circle cx="-0.00" cy="-1.73" r="1.00" />
<circle cx="-0.00" cy="0.00" r="1.00" />
<circle cx="-1.50" cy="0.87" r="1.00" />
<circle cx="-1.50" cy="-0.87" r="1.00" />
<circle cx="-0.00" cy="-1.73" r="1.00" />
<circle cx="-1.50" cy="-0.87" r="1.00" />
<circle cx="-1.50" cy="-2.60" r="1.00" />
</g>
</svg>