<svg xmlns="http://www.w3.org/2000/svg" width="100.00" height="100.00" viewBox="-55.00 -55.00 110.00 110.00">
<g fill="none" stroke="black" stroke-width="3.00%" transform="translate(0, 0.00) scale(0.17, -0.17)">
<line x1="100.00" y1="0.00" x2="100.00" y2="0.00" />
<line x1="100.00" y1="0.00" x2="70.71" y2="70.71" />
<line x1="100.00" y1="0.00" x2="0.00" y2="100.00" />
<line x1="100.00" y1="0.00" x2="-70.71" y2="70.71" />
<line x1="100.00" y1="0.00" x2="-100.00" y2="0.00" />
<line x1="100.00" y1="0.00" x2="-70.71" y2="-70.71" />
<line x1="100.00" y1="0.00" x2="-0.00" y2="-100.00" />
<line x1="100.00" y1="0.00" x2="70.71" y2="-70.71" />
<line x1="70.71" y1="70.71" x2="100.00" y2="0.00" />
<line x1="70.71" y1="70.71" x2="70.71" y2="70.71" />
<line x1="70.71" y1="70.71" x2="0.00" y2="100.00" />
<line x1="70.71" y1="70.71" x2="-70.71" y2="70.71" />
<line x1="70.71" y1="70.71" x2="-100.00" y2="0.00" />
<line x1="70.71" y1="70.71" x2="-70.71" y2="-70.71" />
<line x1="70.71" y1="70.71" x2="-0.00" y2="-100.00" />
<line x1="70.71" y1="70.71" x2="70.71" y2="-70.71" />
<line x1="0.00" y1="100.00" x2="100.00" y2="0.00" />
<line x1="0.00" y1="100.00" x2="70.71" y2="70.71" />
<line x1="0.00" y1="100.00" x2="0.00" y2="100.00" />
<line x1="0.00" y1="100.00" x2="-70.71" y2="70.71" />
<line x1="0.00" y1="100.00" x2="-100.00" y2="0.00" />
<line x1="0.00" y1="100.00" x2="-70.71" y2="-70.71" />
<line x1="0.00" y1="100.00" x2="-0.00" y2="-100.00" />
<line x1="0.00" y1="100.00" x2="70.71" y2="-70.71" />
<line x1="-70.71" y1="70.71" x2="100.00" y2="0.00" />
<line x1="-70.71" y1="70.71" x2="70.71" y2="70.71" />
<line x1="-70.71" y1="70.71" x2="0.00" y2="100.00" />
<line x1="-70.71" y1="70.71" x2="-70.71" y2="70.71" />
<line x1="-70.71" y1="70.71" x2="-100.00" y2="0.00" />
<line x1="-70.71" y1="70.71" x2="-70.71" y2="-70.71" />
<line x1="-70.71" y1="70.71" x2="-0.00" y2="-100.00" />
<line x1="-70.71" y1="70.71" x2="70.71" y2="-70.71" />
<line x1="-100.00" y1="0.00" x2="100.00" y2="0.00" />
<line x1="-100.00" y1="0.00" x2="70.71" y2="70.71" />
<line x1="-100.00" y1="0.00" x2="0.00" y2="100.00" />
<line x1="-100.00" y1="0.00" x2="-70.71" y2="70.71" />
<line x1="-100.00" y1="0.00" x2="-100.00" y2="0.00" />
<line x1="-100.00" y1="0.00" x2="-70.71" y2="-70.71" />
<line x1="-100.00" y1="0.00" x2="-0.00" y2="-100.00" />
<line x1="-100.00" y1="0.00" x2="70.71" y2="-70.71" />
<line x1="-70.71" y1="-70.71" x2="100.00" y2="0.00" />
<line x1="-70.71" y1="-70.71" x2="70.71" y2="70.71" />
<line x1="-70.71" y1="-70.71" x2="0.00" y2="100.00" />
<line x1="-70.71" y1="-70.71" x2="-70.71" y2="70.71" />
<line x1="-70.71" y1="-70.71" x2="-100.00" y2="0.00" />
<line x1="-70.71" y1="-70.71" x2="-70.71" y2="-70.71" />
<line x1="-70.71" y1="-70.71" x2="-0.00" y2="-100.00" />
<line x1="-70.71" y1="-70.71" x2="70.71" y2="-70.71" />
<line x1="-0.00" y1="-100.00" x2="100.00" y2="0.00" />
<line x1="-0.00" y1="-100.00" x2="70.71" y2="70.71" />
<line x1="-0.00" y1="-100.00" x2="0.00" y2="100.00" />
<line x1="-0.00" y1="-100.00" x2="-70.71" y2="70.71" />
<line x1="-0.00" y1="-100.00" x2="-100.00" y2="0.00" />
<line x1="-0.00" y1="-100.00" x2="-70.71" y2="-70.71" />
<line x1="-0.00" y1="-100.00" x2="-0.00" y2="-100.00" />
<line x1="-0.00" y1="-100.00" x2="70.71" y2="-70.71" />
<line x1="70.71" y1="-70.71" x2="100.00" y2="0.00" />
<line x1="70.71" y1="-70.71" x2="70.71" y2="70.71" />
<line x1="70.71" y1="-70.71" x2="0.00" y2="100.00" />
<line x1="70.71" y1="-70.71" x2="-70.71" y2="70.71" />
<line x1="70.71" y1="-70.71" x2="-100.00" y2="0.00" />
<line x1="70.71" y1="-70.71" x2="-70.71" y2="-70.71" />
<line x1="70.71" y1="-70.71" x2="-0.00" y2="-100.00" />
<line x1="70.71" y1="-70.71" x2="70.71" y2="-70.71" />
<line x1="200.00" y1="0.00" x2="200.00" y2="0.00" />
<line x1="200.00" y1="0.00" x2="141.42" y2="141.42" />
<line x1="200.00" y1="0.00" x2="0.00" y2="200.00" />
<line x1="200.00" y1="0.00" x2="-141.42" y2="141.42" />
<line x1="200.00" y1="0.00" x2="-200.00" y2="0.00" />
<line x1="200.00" y1="0.00" x2="-141.42" y2="-141.42" />
<line x1="200.00" y1="0.00" x2="-0.00" y2="-200.00" />
<line x1="200.00" y1="0.00" x2="141.42" y2="-141.42" />
<line x1="141.42" y1="141.42" x2="200.00" y2="0.00" />
<line x1="141.42" y1="141.42" x2="141.42" y2="141.42" />
<line x1="141.42" y1="141.42" x2="0.00" y2="200.00" />
<line x1="141.42" y1="141.42" x2="-141.42" y2="141.42" />
<line x1="141.42" y1="141.42" x2="-200.00" y2="0.00" />
<line x1="141.42" y1="141.42" x2="-141.42" y2="-141.42" />
<line x1="141.42" y1="141.42" x2="-0.00" y2="-200.00" />
<line x1="141.42" y1="141.42" x2="141.42" y2="-141.42" />
<line x1="0.00" y1="200.00" x2="200.00" y2="0.00" />
<line x1="0.00" y1="200.00" x2="141.42" y2="141.42" />
<line x1="0.00" y1="200.00" x2="0.00" y2="200.00" />
<line x1="0.00" y1="200.00" x2="-141.42" y2="141.42" />
<line x1="0.00" y1="200.00" x2="-200.00" y2="0.00" />
<line x1="0.00" y1="200.00" x2="-141.42" y2="-141.42" />
<line x1="0.00" y1="200.00" x2="-0.00" y2="-200.00" />
<line x1="0.00" y1="200.00" x2="141.42" y2="-141.42" />
<line x1="-141.42" y1="141.42" x2="200.00" y2="0.00" />
<line x1="-141.42" y1="141.42" x2="141.42" y2="141.42" />
<line x1="-141.42" y1="141.42" x2="0.00" y2="200.00" />
<line x1="-141.42" y1="141.42" x2="-141.42" y2="141.42" />
<line x1="-141.42" y1="141.42" x2="-200.00" y2="0.00" />
<line x1="-141.42" y1="141.42" x2="-141.42" y2="-141.42" />
<line x1="-141.42" y1="141.42" x2="-0.00" y2="-200.00" />
<line x1="-141.42" y1="141.42" x2="141.42" y2="-141.42" />
<line x1="-200.00" y1="0.00" x2="200.00" y2="0.00" />
<line x1="-200.00" y1="0.00" x2="141.42" y2="141.42" />
<line x1="-200.00" y1="0.00" x2="0.00" y2="200.00" />
<line x1="-200.00" y1="0.00" x2="-141.42" y2="141.42" />
<line x1="-200.00" y1="0.00" x2="-200.00" y2="0.00" />
<line x1="-200.00" y1="0.00" x2="-141.42" y2="-141.42" />
<line x1="-200.00" y1="0.00" x2="-0.00" y2="-200.00" />
<line x1="-200.00" y1="0.00" x2="141.42" y2="-141.42" />
<line x1="-141.42" y1="-141.42" x2="200.00" y2="0.00" />
<line x1="-141.42" y1="-141.42" x2="141.42" y2="141.42" />
<line x1="-141.42" y1="-141.42" x2="0.00" y2="200.00" />
<line x1="-141.42" y1="-141.42" x2="-141.42" y2="141.42" />
<line x1="-141.42" y1="-141.42" x2="-200.00" y2="0.00" />
<line x1="-141.42" y1="-141.42" x2="-141.42" y2="-141.42" />
<line x1="-141.42" y1="-141.42" x2="-0.00" y2="-200.00" />
<line x1="-141.42" y1="-141.42" x2="141.42" y2="-141.42" />
<line x1="-0.00" y1="-200.00" x2="200.00" y2="0.00" />
<line x1="-0.00" y1="-200.00" x2="141.42" y2="141.42" />
<line x1="-0.00" y1="-200.00" x2="0.00" y2="200.00" />
<line x1="-0.00" y1="-200.00" x2="-141.42" y2="141.42" />
<line x1="-0.00" y1="-200.00" x2="-200.00" y2="0.00" />
<line x1="-0.00" y1="-200.00" x2="-141.42" y2="-141.42" />
<line x1="-0.00" y1="-200.00" x2="-0.00" y2="-200.00" />
<line x1="-0.00" y1="-200.00" x2="141.42" y2="-141.42" />
<line x1="141.42" y1="-141.42" x2="200.00" y2="0.00" />
<line x1="141.42" y1="-141.42" x2="141.42" y2="141.42" />
<line x1="141.42" y1="-141.42" x2="0.00" y2="200.00" />
<line x1="141.42" y1="-141.42" x2="-141.42" y2="141.42" />
<line x1="141.42" y1="-141.42" x2="-200.00" y2="0.00" />
<line x1="141.42" y1="-141.42" x2="-141.42" y2="-141.42" />
<line x1="141.42" y1="-141.42" x2="-0.00" y2="-200.00" />
<line x1="141.42" y1="-141.42" x2="141.42" y2="-141.42" />
<line x1="300.00" y1="0.00" x2="300.00" y2="0.00" />
<line x1="300.00" y1="0.00" x2="212.13" y2="212.13" />
<line x1="300.00" y1="0.00" x2="0.00" y2="300.00" />
<line x1="300.00" y1="0.00" x2="-212.13" y2="212.13" />
<line x1="300.00" y1="0.00" x2="-300.00" y2="0.00" />
<line x1="300.00" y1="0.00" x2="-212.13" y2="-212.13" />
<line x1="300.00" y1="0.00" x2="-0.00" y2="-300.00" />
<line x1="300.00" y1="0.00" x2="212.13" y2="-212.13" />
<line x1="212.13" y1="212.13" x2="300.00" y2="0.00" />
<line x1="212.13" y1="212.13" x2="212.13" y2="212.13" />
<line x1="212.13" y1="212.13" x2="0.00" y2="300.00" />
<line x1="212.13" y1="212.13" x2="-212.13" y2="212.13" />
<line x1="212.13" y1="212.13" x2="-300.00" y2="0.00" />
<line x1="212.13" y1="212.13" x2="-212.13" y2="-212.13" />
<line x1="212.13" y1="212.13" x2="-0.00" y2="-300.00" />
<line x1="212.13" y1="212.13" x2="212.13" y2="-212.13" />
<line x1="0.00" y1="300.00" x2="300.00" y2="0.00" />
<line x1="0.00" y1="300.00" x2="212.13" y2="212.13" />
<line x1="0.00" y1="300.00" x2="0.00" y2="300.00" />
<line x1="0.00" y1="300.00" x2="-212.13" y2="212.13" />
<line x1="0.00" y1="300.00" x2="-300.00" y2="0.00" />
<line x1="0.00" y1="300.00" x2="-212.13" y2="-212.13" />
<line x1="0.00" y1="300.00" x2="-0.00" y2="-300.00" />
<line x1="0.00" y1="300.00" x2="212.13" y2="-212.13" />
<line x1="-212.13" y1="212.13" x2="300.00" y2="0.00" />
<line x1="-212.13" y1="212.13" x2="212.13" y2="212.13" />
<line x1="-212.13" y1="212.13" x2="0.00" y2="300.00" />
<line x1="-212.13" y1="212.13" x2="-212.13" y2="212.13" />
<line x1="-212.13" y1="212.13" x2="-300.00" y2="0.00" />
<line x1="-212.13" y1="212.13" x2="-212.13" y2="-212.13" />
<line x1="-212.13" y1="212.13" x2="-0.00" y2="-300.00" />
<line x1="-212.13" y1="212.13" x2="212.13" y2="-212.13" />
<line x1="-300.00" y1="0.00" x2="300.00" y2="0.00" />
<line x1="-300.00" y1="0.00" x2="212.13" y2="212.13" />
<line x1="-300.00" y1="0.00" x2="0.00" y2="300.00" />
<line x1="-300.00" y1="0.00" x2="-212.13" y2="212.13" />
<line x1="-300.00" y1="0.00" x2="-300.00" y2="0.00" />
<line x1="-300.00" y1="0.00" x2="-212.13" y2="-212.13" />
<line x1="-300.00" y1="0.00" x2="-0.00" y2="-300.00" />
<line x1="-300.00" y1="0.00" x2="212.13" y2="-212.13" />
<line x1="-212.13" y1="-212.13" x2="300.00" y2="0.00" />
<line x1="-212.13" y1="-212.13" x2="212.13" y2="212.13" />
<line x1="-212.13" y1="-212.13" x2="0.00" y2="300.00" />
<line x1="-212.13" y1="-212.13" x2="-212.13" y2="212.13" />
<line x1="-212.13" y1="-212.13" x2="-300.00" y2="0.00" />
<line x1="-212.13" y1="-212.13" x2="-212.13" y2="-212.13" />
<line x1="-212.13" y1="-212.13" x2="-0.00" y2="-300.00" />
<line x1="-212.13" y1="-212.13" x2="212.13" y2="-212.13" />
<line x1="-0.00" y1="-300.00" x2="300.00" y2="0.00" />
<line x1="-0.00" y1="-300.00" x2="212.13" y2="212.13" />
<line x1="-0.00" y1="-300.00" x2="0.00" y2="300.00" />
<line x1="-0.00" y1="-300.00" x2="-212.13" y2="212.13" />
<line x1="-0.00" y1="-300.00" x2="-300.00" y2="0.00" />
<line x1="-0.00" y1="-300.00" x2="-212.13" y2="-212.13" />
<line x1="-0.00" y1="-300.00" x2="-0.00" y2="-300.00" />
<line x1="-0.00" y1="-300.00" x2="212.13" y2="-212.13" />
<line x1="212.13" y1="-212.13" x2="300.00" y2="0.00" />
<line x1="212.13" y1="-212.13" x2="212.13" y2="212.13" />
<line x1="212.13" y1="-212.13" x2="0.00" y2="300.00" />
<line x1="212.13" y1="-212.13" x2="-212.13" y2="212.13" />
<line x1="212.13" y1="-212.13" x2="-300.00" y2="0.00" />
<line x1="212.13" y1="-212.13" x2="-212.13" y2="-212.13" />
<line x1="212.13" y1="-212.13" x2="-0.00" y2="-300.00" />
<line x1="212.13" y1="-212.13" x2="212.13" y2="-212.13" />
</g>
</svg>