<svg xmlns="http://www.w3.org/2000/svg" width="161.8" height="100.0" viewBox="-5.0 -5.0 171.8 110.0">
<g fill="none" stroke="black" stroke-width="0.6250%" transform="translate(0, 100.0000) scale(0.8000, -0.8000)">
<circle cx="0.0" cy="0.0" r="0.6" />
<circle cx="0.0" cy="125.0" r="0.6" />
<polyline points="0.0,0.0 4.0,0.0 8.1,0.0 12.1,0.0 16.2,0.1 20.2,0.1 24.3,0.2 28.3,0.3 32.4,0.5 36.4,0.7 40.5,1.0 44.5,1.3 48.5,1.7 52.6,2.2 56.6,2.7 60.7,3.4 64.7,4.1 68.8,4.9 72.8,5.8 76.9,6.9 80.9,8.0 84.9,9.3 89.0,10.6 93.0,12.2 97.1,13.8 101.1,15.6 105.2,17.6 109.2,19.7 113.3,22.0 117.3,24.4 121.4,27.0 125.4,29.8 129.4,32.8 133.5,35.9 137.5,39.3 141.6,42.9 145.6,46.7 149.7,50.7 153.7,54.9 157.8,59.3 161.8,64.0 165.8,68.9 169.9,74.1 173.9,79.5 178.0,85.2 182.0,91.1 186.1,97.3 190.1,103.8 194.2,110.6 198.2,117.6 202.3,125.0" />
</g>
</svg>