<?xml version="1.0" encoding="UTF-8" standalone="no"?>
<!DOCTYPE svg PUBLIC "-//W3C//DTD SVG 1.1//EN"
 "http://www.w3.org/Graphics/SVG/1.1/DTD/svg11.dtd">
<!-- Generated by graphviz version 12.0.0 (0)
 -->
<!-- Pages: 1 -->
<svg width="48pt" height="54pt"
 viewBox="0.00 0.00 48.38 54.00" xmlns="http://www.w3.org/2000/svg" xmlns:xlink="http://www.w3.org/1999/xlink">
<g id="graph0" class="graph" transform="scale(0.533348 0.533348) rotate(0) translate(4 97.25)">
<!-- 1 -->
<g id="node1" class="node">
<title>1</title>
<ellipse fill="black" stroke="black" cx="3.08" cy="-22.33" rx="1.8" ry="1.8"/>
</g>
<!-- 6 -->
<g id="node2" class="node">
<title>6</title>
<ellipse fill="black" stroke="black" cx="80.92" cy="-25.66" rx="1.8" ry="1.8"/>
</g>
<!-- 1&#45;&#45;6 -->
<g id="edge1" class="edge">
<title>1&#45;&#45;6</title>
<path fill="none" stroke="black" stroke-width="0.75" d="M5.33,-22.43C16.69,-22.91 67.77,-25.1 78.81,-25.57"/>
</g>
<!-- 2 -->
<g id="node3" class="node">
<title>2</title>
<ellipse fill="black" stroke="black" cx="43.05" cy="-1.8" rx="1.8" ry="1.8"/>
</g>
<!-- 1&#45;&#45;2 -->
<g id="edge2" class="edge">
<title>1&#45;&#45;2</title>
<path fill="none" stroke="black" stroke-width="0.75" d="M4.8,-21.45C11.25,-18.13 34.05,-6.42 41.01,-2.85"/>
</g>
<!-- 5 -->
<g id="node4" class="node">
<title>5</title>
<ellipse fill="black" stroke="black" cx="39.18" cy="-91.45" rx="1.8" ry="1.8"/>
</g>
<!-- 1&#45;&#45;5 -->
<g id="edge3" class="edge">
<title>1&#45;&#45;5</title>
<path fill="none" stroke="black" stroke-width="0.75" d="M4.12,-24.33C9.39,-34.42 33.08,-79.78 38.2,-89.58"/>
</g>
<!-- 3 -->
<g id="node5" class="node">
<title>3</title>
<ellipse fill="black" stroke="black" cx="78.85" cy="-70.37" rx="1.8" ry="1.8"/>
</g>
<!-- 1&#45;&#45;3 -->
<g id="edge4" class="edge">
<title>1&#45;&#45;3</title>
<path fill="none" stroke="black" stroke-width="0.75" d="M4.95,-23.52C15.44,-30.16 66.73,-62.68 77.05,-69.22"/>
</g>
<!-- 4 -->
<g id="node6" class="node">
<title>4</title>
<ellipse fill="black" stroke="black" cx="1.8" cy="-66.98" rx="1.8" ry="1.8"/>
</g>
<!-- 1&#45;&#45;4 -->
<g id="edge5" class="edge">
<title>1&#45;&#45;4</title>
<path fill="none" stroke="black" stroke-width="0.75" d="M3.02,-24.49C2.8,-32.01 2.08,-57.09 1.86,-64.74"/>
</g>
<!-- 2&#45;&#45;6 -->
<g id="edge7" class="edge">
<title>2&#45;&#45;6</title>
<path fill="none" stroke="black" stroke-width="0.75" d="M44.68,-2.83C50.79,-6.68 72.39,-20.29 78.99,-24.45"/>
</g>
<!-- 2&#45;&#45;5 -->
<g id="edge9" class="edge">
<title>2&#45;&#45;5</title>
<path fill="none" stroke="black" stroke-width="0.75" d="M42.95,-4.02C42.42,-16.42 39.79,-77.11 39.27,-89.31"/>
</g>
<!-- 2&#45;&#45;3 -->
<g id="edge6" class="edge">
<title>2&#45;&#45;3</title>
<path fill="none" stroke="black" stroke-width="0.75" d="M44.08,-3.78C49.31,-13.79 72.81,-58.79 77.89,-68.51"/>
</g>
<!-- 2&#45;&#45;4 -->
<g id="edge8" class="edge">
<title>2&#45;&#45;4</title>
<path fill="none" stroke="black" stroke-width="0.75" d="M41.86,-3.68C35.84,-13.2 8.77,-55.97 2.92,-65.22"/>
</g>
<!-- 5&#45;&#45;6 -->
<g id="edge15" class="edge">
<title>5&#45;&#45;6</title>
<path fill="none" stroke="black" stroke-width="0.75" d="M40.38,-89.55C46.47,-79.94 73.87,-36.77 79.79,-27.44"/>
</g>
<!-- 3&#45;&#45;6 -->
<g id="edge12" class="edge">
<title>3&#45;&#45;6</title>
<path fill="none" stroke="black" stroke-width="0.75" d="M78.95,-68.21C79.3,-60.67 80.46,-35.56 80.81,-27.9"/>
</g>
<!-- 3&#45;&#45;5 -->
<g id="edge11" class="edge">
<title>3&#45;&#45;5</title>
<path fill="none" stroke="black" stroke-width="0.75" d="M77.15,-71.27C70.74,-74.68 48.11,-86.7 41.2,-90.37"/>
</g>
<!-- 3&#45;&#45;4 -->
<g id="edge10" class="edge">
<title>3&#45;&#45;4</title>
<path fill="none" stroke="black" stroke-width="0.75" d="M76.63,-70.27C65.38,-69.77 14.81,-67.55 3.89,-67.07"/>
</g>
<!-- 4&#45;&#45;6 -->
<g id="edge14" class="edge">
<title>4&#45;&#45;6</title>
<path fill="none" stroke="black" stroke-width="0.75" d="M3.76,-65.96C14.7,-60.24 68.26,-32.27 79.03,-26.65"/>
</g>
<!-- 4&#45;&#45;5 -->
<g id="edge13" class="edge">
<title>4&#45;&#45;5</title>
<path fill="none" stroke="black" stroke-width="0.75" d="M3.41,-68.03C9.44,-71.98 30.76,-85.94 37.27,-90.2"/>
</g>
</g>
</svg>
