<svg xmlns="http://www.w3.org/2000/svg" width="100.0" height="100.0" viewBox="-55.00 -55.00 110.00 110.00">
<g fill="none" stroke="black" stroke-width="0.0200%" transform="translate(0, 0.0000) scale(25.0000, -25.0000)">
<circle cx="0.00" cy="0.00" r="1.00" />
<circle cx="-1.00" cy="0.00" r="1.00" />
<circle cx="1.00" cy="0.00" r="1.00" />
<circle cx="0.00" cy="-1.00" r="1.00" />
<circle cx="0.00" cy="1.00" r="1.00" />
<polygon points="1.00,1.00 -1.00,1.00 -1.00,-1.00 1.00,-1.00" />
<circle cx="1.00" cy="0.00" r="0.02" />
<circle cx="0.87" cy="0.50" r="0.02" />
<circle cx="0.50" cy="0.87" r="0.02" />
<circle cx="0.00" cy="1.00" r="0.02" />
<circle cx="-0.50" cy="0.87" r="0.02" />
<circle cx="-0.87" cy="0.50" r="0.02" />
<circle cx="-1.00" cy="0.00" r="0.02" />
<circle cx="-0.87" cy="-0.50" r="0.02" />
<circle cx="-0.50" cy="-0.87" r="0.02" />
<circle cx="-0.00" cy="-1.00" r="0.02" />
<circle cx="0.50" cy="-0.87" r="0.02" />
<circle cx="0.87" cy="-0.50" r="0.02" />
</g>
</svg>