<svg xmlns="http://www.w3.org/2000/svg" width="100.0" height="100.0" viewBox="-55.00 -55.00 110.00 110.00">
<g fill="none" stroke="black" stroke-width="0.0700%" transform="translate(0, 0.0000) scale(7.1429, -7.1429)">
<g fill="rgb(204,204,204)"><path d="M 1.00,0.00 A 1.00 1.00 0.00 0 1 0.31,0.95 L 0.62,1.90 A 2.00 2.00 0.00 0 0 2.00,0.00 Z" /></g>
<g fill="rgb(0,0,0)"><path d="M 2.00,0.00 A 2.00 2.00 0.00 0 1 0.62,1.90 L 0.93,2.85 A 3.00 3.00 0.00 0 0 3.00,0.00 Z" /></g>
<g fill="rgb(204,204,204)"><path d="M 3.00,0.00 A 3.00 3.00 0.00 0 1 0.93,2.85 L 1.24,3.80 A 4.00 4.00 0.00 0 0 4.00,0.00 Z" /></g>
<g fill="rgb(0,0,0)"><path d="M 4.00,0.00 A 4.00 4.00 0.00 0 1 1.24,3.80 L 1.55,4.76 A 5.00 5.00 0.00 0 0 5.00,0.00 Z" /></g>
<g fill="rgb(204,204,204)"><path d="M 5.00,0.00 A 5.00 5.00 0.00 0 1 1.55,4.76 L 1.85,5.71 A 6.00 6.00 0.00 0 0 6.00,0.00 Z" /></g>
<g fill="rgb(0,0,0)"><path d="M 6.00,0.00 A 6.00 6.00 0.00 0 1 1.85,5.71 L 2.16,6.66 A 7.00 7.00 0.00 0 0 7.00,0.00 Z" /></g>
<g fill="rgb(204,204,204)"><path d="M 0.31,0.95 A 1.00 1.00 0.00 0 1 -0.81,0.59 L -1.62,1.18 A 2.00 2.00 0.00 0 0 0.62,1.90 Z" /></g>
<g fill="rgb(0,0,0)"><path d="M 0.62,1.90 A 2.00 2.00 0.00 0 1 -1.62,1.18 L -2.43,1.76 A 3.00 3.00 0.00 0 0 0.93,2.85 Z" /></g>
<g fill="rgb(153,153,153)"><path d="M 0.93,2.85 A 3.00 3.00 0.00 0 1 -2.43,1.76 L -3.24,2.35 A 4.00 4.00 0.00 0 0 1.24,3.80 Z" /></g>
<g fill="rgb(153,153,153)"><path d="M 1.24,3.80 A 4.00 4.00 0.00 0 1 -3.24,2.35 L -4.05,2.94 A 5.00 5.00 0.00 0 0 1.55,4.76 Z" /></g>
<g fill="rgb(51,51,51)"><path d="M 1.55,4.76 A 5.00 5.00 0.00 0 1 -4.05,2.94 L -4.85,3.53 A 6.00 6.00 0.00 0 0 1.85,5.71 Z" /></g>
<g fill="rgb(51,51,51)"><path d="M 1.85,5.71 A 6.00 6.00 0.00 0 1 -4.85,3.53 L -5.66,4.11 A 7.00 7.00 0.00 0 0 2.16,6.66 Z" /></g>
<g fill="rgb(204,204,204)"><path d="M -0.81,0.59 A 1.00 1.00 0.00 0 1 -0.81,-0.59 L -1.62,-1.18 A 2.00 2.00 0.00 0 0 -1.62,1.18 Z" /></g>
<g fill="rgb(0,0,0)"><path d="M -1.62,1.18 A 2.00 2.00 0.00 0 1 -1.62,-1.18 L -2.43,-1.76 A 3.00 3.00 0.00 0 0 -2.43,1.76 Z" /></g>
<g fill="rgb(102,102,102)"><path d="M -2.43,1.76 A 3.00 3.00 0.00 0 1 -2.43,-1.76 L -3.24,-2.35 A 4.00 4.00 0.00 0 0 -3.24,2.35 Z" /></g>
<g fill="rgb(204,204,204)"><path d="M -3.24,2.35 A 4.00 4.00 0.00 0 1 -3.24,-2.35 L -4.05,-2.94 A 5.00 5.00 0.00 0 0 -4.05,2.94 Z" /></g>
<g fill="rgb(0,0,0)"><path d="M -4.05,2.94 A 5.00 5.00 0.00 0 1 -4.05,-2.94 L -4.85,-3.53 A 6.00 6.00 0.00 0 0 -4.85,3.53 Z" /></g>
<g fill="rgb(102,102,102)"><path d="M -4.85,3.53 A 6.00 6.00 0.00 0 1 -4.85,-3.53 L -5.66,-4.11 A 7.00 7.00 0.00 0 0 -5.66,4.11 Z" /></g>
<g fill="rgb(153,153,153)"><path d="M -0.81,-0.59 A 1.00 1.00 0.00 0 1 0.31,-0.95 L 0.62,-1.90 A 2.00 2.00 0.00 0 0 -1.62,-1.18 Z" /></g>
<g fill="rgb(102,102,102)"><path d="M -1.62,-1.18 A 2.00 2.00 0.00 0 1 0.62,-1.90 L 0.93,-2.85 A 3.00 3.00 0.00 0 0 -2.43,-1.76 Z" /></g>
<g fill="rgb(51,51,51)"><path d="M -2.43,-1.76 A 3.00 3.00 0.00 0 1 0.93,-2.85 L 1.24,-3.80 A 4.00 4.00 0.00 0 0 -3.24,-2.35 Z" /></g>
<g fill="rgb(153,153,153)"><path d="M -3.24,-2.35 A 4.00 4.00 0.00 0 1 1.24,-3.80 L 1.55,-4.76 A 5.00 5.00 0.00 0 0 -4.05,-2.94 Z" /></g>
<g fill="rgb(102,102,102)"><path d="M -4.05,-2.94 A 5.00 5.00 0.00 0 1 1.55,-4.76 L 1.85,-5.71 A 6.00 6.00 0.00 0 0 -4.85,-3.53 Z" /></g>
<g fill="rgb(51,51,51)"><path d="M -4.85,-3.53 A 6.00 6.00 0.00 0 1 1.85,-5.71 L 2.16,-6.66 A 7.00 7.00 0.00 0 0 -5.66,-4.11 Z" /></g>
<g fill="rgb(102,102,102)"><path d="M 0.31,-0.95 A 1.00 1.00 0.00 0 1 1.00,-0.00 L 2.00,-0.00 A 2.00 2.00 0.00 0 0 0.62,-1.90 Z" /></g>
<g fill="rgb(102,102,102)"><path d="M 0.62,-1.90 A 2.00 2.00 0.00 0 1 2.00,-0.00 L 3.00,-0.00 A 3.00 3.00 0.00 0 0 0.93,-2.85 Z" /></g>
<g fill="rgb(102,102,102)"><path d="M 0.93,-2.85 A 3.00 3.00 0.00 0 1 3.00,-0.00 L 4.00,-0.00 A 4.00 4.00 0.00 0 0 1.24,-3.80 Z" /></g>
<g fill="rgb(102,102,102)"><path d="M 1.24,-3.80 A 4.00 4.00 0.00 0 1 4.00,-0.00 L 5.00,-0.00 A 5.00 5.00 0.00 0 0 1.55,-4.76 Z" /></g>
<g fill="rgb(102,102,102)"><path d="M 1.55,-4.76 A 5.00 5.00 0.00 0 1 5.00,-0.00 L 6.00,-0.00 A 6.00 6.00 0.00 0 0 1.85,-5.71 Z" /></g>
<g fill="rgb(102,102,102)"><path d="M 1.85,-5.71 A 6.00 6.00 0.00 0 1 6.00,-0.00 L 7.00,-0.00 A 7.00 7.00 0.00 0 0 2.16,-6.66 Z" /></g>
</g>
</svg>