<svg xmlns="http://www.w3.org/2000/svg" width="108.2" height="100.0" viewBox="-36.657 -55.000 118.244 110.000">
<g fill="none" stroke="black" stroke-width="0.0068%" transform="translate(0, -0.0000) scale(73.1595, -73.1595)">
<polyline points="1.000,-0.000 1.023,0.079 1.039,0.157 1.046,0.233 1.046,0.306 1.038,0.374 1.023,0.438 1.001,0.496 0.974,0.546 0.942,0.590 0.905,0.626 0.865,0.653 0.823,0.672 0.778,0.682 0.734,0.683 0.689,0.676 0.646,0.660 0.605,0.637 0.566,0.605 0.532,0.567 0.502,0.522 0.476,0.472 0.457,0.417 0.443,0.359 0.435,0.297 0.433,0.234 0.438,0.170 0.449,0.107 0.466,0.044 0.488,-0.016 0.516,-0.073 0.549,-0.126 0.585,-0.174 0.625,-0.217 0.667,-0.253 0.711,-0.283 0.756,-0.306 0.801,-0.322 0.844,-0.330 0.886,-0.331 0.924,-0.325 0.959,-0.312 0.988,-0.293 1.013,-0.267 1.031,-0.236 1.043,-0.200 1.047,-0.160 1.043,-0.117 1.032,-0.071 1.013,-0.024 0.985,0.024 0.950,0.071 0.907,0.117 0.856,0.160 0.799,0.200 0.735,0.236 0.666,0.267 0.592,0.293 0.514,0.312 0.433,0.325 0.350,0.331 0.267,0.330 0.183,0.322 0.102,0.306 0.022,0.283 -0.054,0.253 -0.125,0.217 -0.191,0.174 -0.250,0.126 -0.302,0.073 -0.346,0.016 -0.382,-0.044 -0.408,-0.107 -0.425,-0.170 -0.433,-0.234 -0.430,-0.297 -0.418,-0.359 -0.396,-0.417 -0.365,-0.472 -0.325,-0.522 -0.277,-0.567 -0.221,-0.605 -0.159,-0.637 -0.090,-0.660 -0.016,-0.676 0.062,-0.683 0.142,-0.682 0.225,-0.672 0.308,-0.653 0.392,-0.626 0.474,-0.590 0.553,-0.546 0.629,-0.496 0.701,-0.438 0.768,-0.374 0.828,-0.306 0.882,-0.233 0.929,-0.157 0.969,-0.079 1.000,-0.000" />
</g>
</svg>