<svg xmlns="http://www.w3.org/2000/svg" width="83.9" height="100.0" viewBox="-19.988 -55.000 93.882 110.000">
<g fill="none" stroke="black" stroke-width="0.0072%" transform="translate(0, -0.0000) scale(69.0102, -69.0102)">
<polyline points="-0.033,-0.028 -0.034,-0.035 -0.033,-0.042 -0.031,-0.049 -0.027,-0.055 -0.023,-0.060 -0.017,-0.065 -0.011,-0.068 -0.004,-0.070 0.003,-0.071 0.010,-0.070 0.017,-0.068 0.023,-0.064 0.028,-0.060 0.032,-0.054 0.036,-0.048 0.037,-0.041 0.037,-0.033 0.036,-0.026 0.033,-0.019 0.029,-0.013 0.024,-0.008 0.017,-0.004 0.010,-0.001 0.002,-0.000 -0.006,-0.000 -0.014,-0.002 -0.021,-0.006 -0.028,-0.011 -0.034,-0.017 -0.038,-0.025 -0.041,-0.033 -0.042,-0.042 -0.042,-0.051 -0.040,-0.059 -0.036,-0.068 -0.031,-0.075 -0.024,-0.081 -0.017,-0.086 -0.008,-0.089 0.001,-0.091 0.010,-0.091 0.019,-0.089 0.027,-0.085 0.035,-0.079 0.041,-0.073 0.045,-0.065 0.048,-0.056 0.049,-0.047 0.048,-0.037 0.045,-0.028 0.040,-0.020 0.034,-0.013 0.025,-0.007 0.016,-0.003 0.006,-0.000 -0.005,-0.000 -0.015,-0.002 -0.026,-0.006 -0.035,-0.013 -0.043,-0.021 -0.050,-0.030 -0.055,-0.041 -0.057,-0.053 -0.058,-0.065 -0.056,-0.078 -0.052,-0.089 -0.045,-0.100 -0.037,-0.110 -0.027,-0.118 -0.015,-0.123 -0.003,-0.127 0.010,-0.128 0.023,-0.126 0.035,-0.122 0.046,-0.115 0.055,-0.107 0.063,-0.096 0.068,-0.084 0.071,-0.071 0.070,-0.058 0.067,-0.045 0.061,-0.033 0.053,-0.022 0.042,-0.012 0.028,-0.005 0.014,-0.001 -0.002,-0.000 -0.018,-0.002 -0.034,-0.007 -0.049,-0.016 -0.063,-0.028 -0.074,-0.042 -0.083,-0.059 -0.089,-0.077 -0.091,-0.097 -0.090,-0.117 -0.085,-0.137 -0.076,-0.156 -0.064,-0.174 -0.049,-0.189 -0.031,-0.201 -0.011,-0.209 0.010,-0.214 0.032,-0.214 0.053,-0.211 0.073,-0.202 0.092,-0.190 0.107,-0.175 0.118,-0.156 0.126,-0.135 0.128,-0.113 0.126,-0.090 0.118,-0.068 0.105,-0.047 0.086,-0.029 0.063,-0.014 0.036,-0.004 0.006,-0.000 -0.026,-0.002 -0.060,-0.011 -0.093,-0.027 -0.125,-0.050 -0.155,-0.081 -0.180,-0.118 -0.199,-0.162 -0.212,-0.211 -0.217,-0.265 -0.214,-0.322 -0.201,-0.380 -0.178,-0.439 -0.146,-0.496 -0.103,-0.550 -0.051,-0.600 0.010,-0.643 0.079,-0.678 0.155,-0.704 0.236,-0.720 0.321,-0.725 0.408,-0.717 0.495,-0.697 0.581,-0.665 0.663,-0.621 0.740,-0.565 0.809,-0.498 0.870,-0.422 0.920,-0.337 0.959,-0.246 0.985,-0.149 0.998,-0.050 0.998,0.050 0.985,0.149 0.959,0.246 0.920,0.337 0.870,0.422 0.809,0.498 0.740,0.565 0.663,0.621 0.581,0.665 0.495,0.697 0.408,0.717 0.321,0.725 0.236,0.720 0.155,0.704 0.079,0.678 0.010,0.643 -0.051,0.600 -0.103,0.550 -0.146,0.496 -0.178,0.439 -0.201,0.380 -0.214,0.322 -0.217,0.265 -0.212,0.211 -0.199,0.162 -0.180,0.118 -0.155,0.081 -0.125,0.050 -0.093,0.027 -0.060,0.011 -0.026,0.002 0.006,0.000 0.036,0.004 0.063,0.014 0.086,0.029 0.105,0.047 0.118,0.068 0.126,0.090 0.128,0.113 0.126,0.135 0.118,0.156 0.107,0.175 0.092,0.190 0.073,0.202 0.053,0.211 0.032,0.214 0.010,0.214 -0.011,0.209 -0.031,0.201 -0.049,0.189 -0.064,0.174 -0.076,0.156 -0.085,0.137 -0.090,0.117 -0.091,0.097 -0.089,0.077 -0.083,0.059 -0.074,0.042 -0.063,0.028 -0.049,0.016 -0.034,0.007 -0.018,0.002 -0.002,0.000 0.014,0.001 0.028,0.005 0.042,0.012 0.053,0.022 0.061,0.033 0.067,0.045 0.070,0.058 0.071,0.071 0.068,0.084 0.063,0.096 0.055,0.107 0.046,0.115 0.035,0.122 0.023,0.126 0.010,0.128 -0.003,0.127 -0.015,0.123 -0.027,0.118 -0.037,0.110 -0.045,0.100 -0.052,0.089 -0.056,0.078 -0.058,0.065 -0.057,0.053 -0.055,0.041 -0.050,0.030 -0.043,0.021 -0.035,0.013 -0.026,0.006 -0.015,0.002 -0.005,0.000 0.006,0.000 0.016,0.003 0.025,0.007 0.034,0.013 0.040,0.020 0.045,0.028 0.048,0.037 0.049,0.047 0.048,0.056 0.045,0.065 0.041,0.073 0.035,0.079 0.027,0.085 0.019,0.089 0.010,0.091 0.001,0.091 -0.008,0.089 -0.017,0.086 -0.024,0.081 -0.031,0.075 -0.036,0.068 -0.040,0.059 -0.042,0.051 -0.042,0.042 -0.041,0.033 -0.038,0.025 -0.034,0.017 -0.028,0.011 -0.021,0.006 -0.014,0.002 -0.006,0.000 0.002,0.000 0.010,0.001 0.017,0.004 0.024,0.008 0.029,0.013 0.033,0.019 0.036,0.026 0.037,0.033 0.037,0.041 0.036,0.048 0.032,0.054 0.028,0.060 0.023,0.064 0.017,0.068 0.010,0.070 0.003,0.071 -0.004,0.070 -0.011,0.068 -0.017,0.065 -0.023,0.060 -0.027,0.055 -0.031,0.049 -0.033,0.042 -0.034,0.035 -0.033,0.028" />
</g>
</svg>