<svg xmlns="http://www.w3.org/2000/svg" width="161.8" height="100.0" viewBox="-2.81 26.70 171.80 110.00">
<g fill="none" stroke="black" stroke-width="0.0219%" transform="translate(0, 163.4081) scale(22.8696, -22.8696)">
<circle cx="0.10" cy="1.61" r="0.02" />
<circle cx="0.19" cy="2.56" r="0.02" />
<circle cx="0.29" cy="1.39" r="0.02" />
<circle cx="0.38" cy="2.30" r="0.02" />
<circle cx="0.48" cy="3.22" r="0.02" />
<circle cx="0.57" cy="2.40" r="0.02" />
<circle cx="0.67" cy="4.22" r="0.02" />
<circle cx="0.76" cy="2.64" r="0.02" />
<circle cx="0.86" cy="3.66" r="0.02" />
<circle cx="0.96" cy="3.53" r="0.02" />
<circle cx="1.05" cy="2.20" r="0.02" />
<circle cx="1.15" cy="1.39" r="0.02" />
<circle cx="1.24" cy="1.61" r="0.02" />
<circle cx="1.34" cy="1.61" r="0.02" />
<circle cx="1.43" cy="2.77" r="0.02" />
<circle cx="1.53" cy="2.77" r="0.02" />
<circle cx="1.63" cy="5.46" r="0.02" />
<circle cx="1.72" cy="3.14" r="0.02" />
<circle cx="1.82" cy="2.77" r="0.02" />
<circle cx="1.91" cy="1.61" r="0.02" />
<circle cx="2.01" cy="2.40" r="0.02" />
<circle cx="2.10" cy="1.61" r="0.02" />
<circle cx="2.20" cy="4.14" r="0.02" />
<circle cx="2.29" cy="4.75" r="0.02" />
<circle cx="2.39" cy="2.89" r="0.02" />
<circle cx="2.49" cy="2.89" r="0.02" />
<circle cx="2.58" cy="3.50" r="0.02" />
<circle cx="2.68" cy="5.66" r="0.02" />
<circle cx="2.77" cy="3.85" r="0.02" />
<circle cx="2.87" cy="3.37" r="0.02" />
<circle cx="2.96" cy="5.76" r="0.02" />
<circle cx="3.06" cy="2.64" r="0.02" />
<circle cx="3.16" cy="2.48" r="0.02" />
<circle cx="3.25" cy="4.11" r="0.02" />
<circle cx="3.35" cy="4.09" r="0.02" />
<circle cx="3.44" cy="1.79" r="0.02" />
<circle cx="3.54" cy="2.77" r="0.02" />
<circle cx="3.63" cy="2.30" r="0.02" />
<circle cx="3.73" cy="1.61" r="0.02" />
<circle cx="3.82" cy="2.64" r="0.02" />
<circle cx="3.92" cy="3.83" r="0.02" />
<circle cx="4.02" cy="1.61" r="0.02" />
<circle cx="4.11" cy="1.79" r="0.02" />
<circle cx="4.21" cy="2.71" r="0.02" />
<circle cx="4.30" cy="4.65" r="0.02" />
<circle cx="4.40" cy="1.39" r="0.02" />
<circle cx="4.49" cy="2.40" r="0.02" />
<circle cx="4.59" cy="3.87" r="0.02" />
<circle cx="4.68" cy="3.78" r="0.02" />
<circle cx="4.78" cy="1.61" r="0.02" />
<circle cx="4.88" cy="1.79" r="0.02" />
<circle cx="4.97" cy="2.30" r="0.02" />
<circle cx="5.07" cy="1.61" r="0.02" />
<circle cx="5.16" cy="4.01" r="0.02" />
<circle cx="5.26" cy="2.71" r="0.02" />
<circle cx="5.35" cy="2.64" r="0.02" />
<circle cx="5.45" cy="3.22" r="0.02" />
<circle cx="5.55" cy="2.83" r="0.02" />
<circle cx="5.64" cy="2.20" r="0.02" />
<circle cx="5.74" cy="2.77" r="0.02" />
<circle cx="5.83" cy="1.79" r="0.02" />
<circle cx="5.93" cy="1.95" r="0.02" />
<circle cx="6.02" cy="3.26" r="0.02" />
<circle cx="6.12" cy="1.61" r="0.02" />
<circle cx="6.21" cy="3.50" r="0.02" />
<circle cx="6.31" cy="3.83" r="0.02" />
<circle cx="6.41" cy="1.61" r="0.02" />
<circle cx="6.50" cy="2.77" r="0.02" />
<circle cx="6.60" cy="3.14" r="0.02" />
<circle cx="6.69" cy="2.56" r="0.02" />
<circle cx="6.79" cy="2.71" r="0.02" />
<circle cx="6.88" cy="2.40" r="0.02" />
<circle cx="6.98" cy="2.77" r="0.02" />
<circle cx="7.08" cy="2.64" r="0.02" />
<circle cx="7.17" cy="2.40" r="0.02" />
</g>
</svg>