<svg xmlns="http://www.w3.org/2000/svg" width="161.8" height="100.0" viewBox="-4 -5 172 110">
<g fill="none" stroke="black" stroke-width="1.8500%" transform="translate(0, 100.5405) scale(0.2703, -0.2703)">
<circle cx="2" cy="1" r="2" />
<circle cx="5" cy="5" r="2" />
<circle cx="7" cy="1" r="2" />
<circle cx="10" cy="1" r="2" />
<circle cx="12" cy="3" r="2" />
<circle cx="14" cy="11" r="2" />
<circle cx="17" cy="1" r="2" />
<circle cx="19" cy="7" r="2" />
<circle cx="22" cy="5" r="2" />
<circle cx="24" cy="17" r="2" />
<circle cx="27" cy="3" r="2" />
<circle cx="29" cy="5" r="2" />
<circle cx="31" cy="7" r="2" />
<circle cx="34" cy="23" r="2" />
<circle cx="36" cy="1" r="2" />
<circle cx="39" cy="13" r="2" />
<circle cx="41" cy="9" r="2" />
<circle cx="43" cy="29" r="2" />
<circle cx="46" cy="5" r="2" />
<circle cx="48" cy="1" r="2" />
<circle cx="51" cy="11" r="2" />
<circle cx="53" cy="35" r="2" />
<circle cx="56" cy="3" r="2" />
<circle cx="58" cy="19" r="2" />
<circle cx="60" cy="13" r="2" />
<circle cx="63" cy="41" r="2" />
<circle cx="65" cy="7" r="2" />
<circle cx="68" cy="11" r="2" />
<circle cx="70" cy="15" r="2" />
<circle cx="72" cy="47" r="2" />
<circle cx="75" cy="1" r="2" />
<circle cx="77" cy="25" r="2" />
<circle cx="80" cy="17" r="2" />
<circle cx="82" cy="53" r="2" />
<circle cx="84" cy="9" r="2" />
<circle cx="87" cy="7" r="2" />
<circle cx="89" cy="19" r="2" />
<circle cx="92" cy="59" r="2" />
<circle cx="94" cy="5" r="2" />
<circle cx="97" cy="31" r="2" />
<circle cx="99" cy="21" r="2" />
<circle cx="101" cy="65" r="2" />
<circle cx="104" cy="11" r="2" />
<circle cx="106" cy="17" r="2" />
<circle cx="109" cy="23" r="2" />
<circle cx="111" cy="71" r="2" />
<circle cx="113" cy="3" r="2" />
<circle cx="116" cy="37" r="2" />
<circle cx="118" cy="25" r="2" />
<circle cx="121" cy="77" r="2" />
<circle cx="123" cy="13" r="2" />
<circle cx="126" cy="5" r="2" />
<circle cx="128" cy="27" r="2" />
<circle cx="130" cy="83" r="2" />
<circle cx="133" cy="7" r="2" />
<circle cx="135" cy="43" r="2" />
<circle cx="138" cy="29" r="2" />
<circle cx="140" cy="89" r="2" />
<circle cx="142" cy="15" r="2" />
<circle cx="145" cy="23" r="2" />
<circle cx="147" cy="31" r="2" />
<circle cx="150" cy="95" r="2" />
<circle cx="152" cy="1" r="2" />
<circle cx="154" cy="49" r="2" />
<circle cx="157" cy="33" r="2" />
<circle cx="159" cy="101" r="2" />
<circle cx="162" cy="17" r="2" />
<circle cx="164" cy="13" r="2" />
<circle cx="167" cy="35" r="2" />
<circle cx="169" cy="107" r="2" />
<circle cx="171" cy="9" r="2" />
<circle cx="174" cy="55" r="2" />
<circle cx="176" cy="37" r="2" />
<circle cx="179" cy="113" r="2" />
<circle cx="181" cy="19" r="2" />
<circle cx="183" cy="29" r="2" />
<circle cx="186" cy="39" r="2" />
<circle cx="188" cy="119" r="2" />
<circle cx="191" cy="5" r="2" />
<circle cx="193" cy="61" r="2" />
<circle cx="196" cy="41" r="2" />
<circle cx="198" cy="125" r="2" />
<circle cx="200" cy="21" r="2" />
<circle cx="203" cy="1" r="2" />
<circle cx="205" cy="43" r="2" />
<circle cx="208" cy="131" r="2" />
<circle cx="210" cy="11" r="2" />
<circle cx="212" cy="67" r="2" />
<circle cx="215" cy="45" r="2" />
<circle cx="217" cy="137" r="2" />
<circle cx="220" cy="23" r="2" />
<circle cx="222" cy="35" r="2" />
<circle cx="225" cy="47" r="2" />
<circle cx="227" cy="143" r="2" />
<circle cx="229" cy="3" r="2" />
<circle cx="232" cy="73" r="2" />
<circle cx="234" cy="49" r="2" />
<circle cx="237" cy="149" r="2" />
<circle cx="239" cy="25" r="2" />
<circle cx="241" cy="19" r="2" />
<circle cx="244" cy="51" r="2" />
<circle cx="246" cy="155" r="2" />
<circle cx="249" cy="13" r="2" />
<circle cx="251" cy="79" r="2" />
<circle cx="253" cy="53" r="2" />
<circle cx="256" cy="161" r="2" />
<circle cx="258" cy="27" r="2" />
<circle cx="261" cy="41" r="2" />
<circle cx="263" cy="55" r="2" />
<circle cx="266" cy="167" r="2" />
<circle cx="268" cy="7" r="2" />
<circle cx="270" cy="85" r="2" />
<circle cx="273" cy="57" r="2" />
<circle cx="275" cy="173" r="2" />
<circle cx="278" cy="29" r="2" />
<circle cx="280" cy="11" r="2" />
<circle cx="282" cy="59" r="2" />
<circle cx="285" cy="179" r="2" />
<circle cx="287" cy="15" r="2" />
<circle cx="290" cy="91" r="2" />
<circle cx="292" cy="61" r="2" />
<circle cx="295" cy="185" r="2" />
<circle cx="297" cy="31" r="2" />
<circle cx="299" cy="47" r="2" />
<circle cx="302" cy="63" r="2" />
<circle cx="304" cy="191" r="2" />
<circle cx="307" cy="1" r="2" />
<circle cx="309" cy="97" r="2" />
<circle cx="311" cy="65" r="2" />
<circle cx="314" cy="197" r="2" />
<circle cx="316" cy="33" r="2" />
<circle cx="319" cy="25" r="2" />
<circle cx="321" cy="67" r="2" />
<circle cx="323" cy="203" r="2" />
<circle cx="326" cy="17" r="2" />
<circle cx="328" cy="103" r="2" />
<circle cx="331" cy="69" r="2" />
<circle cx="333" cy="209" r="2" />
<circle cx="336" cy="35" r="2" />
<circle cx="338" cy="53" r="2" />
<circle cx="340" cy="71" r="2" />
<circle cx="343" cy="215" r="2" />
<circle cx="345" cy="9" r="2" />
<circle cx="348" cy="109" r="2" />
<circle cx="350" cy="73" r="2" />
<circle cx="352" cy="221" r="2" />
<circle cx="355" cy="37" r="2" />
<circle cx="357" cy="7" r="2" />
<circle cx="360" cy="75" r="2" />
<circle cx="362" cy="227" r="2" />
<circle cx="365" cy="19" r="2" />
<circle cx="367" cy="115" r="2" />
<circle cx="369" cy="77" r="2" />
<circle cx="372" cy="233" r="2" />
<circle cx="374" cy="39" r="2" />
<circle cx="377" cy="59" r="2" />
<circle cx="379" cy="79" r="2" />
<circle cx="381" cy="239" r="2" />
<circle cx="384" cy="5" r="2" />
<circle cx="386" cy="121" r="2" />
<circle cx="389" cy="81" r="2" />
<circle cx="391" cy="245" r="2" />
<circle cx="393" cy="41" r="2" />
<circle cx="396" cy="31" r="2" />
<circle cx="398" cy="83" r="2" />
<circle cx="401" cy="251" r="2" />
<circle cx="403" cy="21" r="2" />
<circle cx="406" cy="127" r="2" />
<circle cx="408" cy="85" r="2" />
<circle cx="410" cy="257" r="2" />
<circle cx="413" cy="43" r="2" />
<circle cx="415" cy="65" r="2" />
<circle cx="418" cy="87" r="2" />
<circle cx="420" cy="263" r="2" />
<circle cx="422" cy="11" r="2" />
<circle cx="425" cy="133" r="2" />
<circle cx="427" cy="89" r="2" />
<circle cx="430" cy="269" r="2" />
<circle cx="432" cy="45" r="2" />
<circle cx="435" cy="17" r="2" />
<circle cx="437" cy="91" r="2" />
<circle cx="439" cy="275" r="2" />
<circle cx="442" cy="23" r="2" />
<circle cx="444" cy="139" r="2" />
<circle cx="447" cy="93" r="2" />
<circle cx="449" cy="281" r="2" />
<circle cx="451" cy="47" r="2" />
<circle cx="454" cy="71" r="2" />
<circle cx="456" cy="95" r="2" />
<circle cx="459" cy="287" r="2" />
<circle cx="461" cy="3" r="2" />
<circle cx="463" cy="145" r="2" />
<circle cx="466" cy="97" r="2" />
<circle cx="468" cy="293" r="2" />
<circle cx="471" cy="49" r="2" />
<circle cx="473" cy="37" r="2" />
<circle cx="476" cy="99" r="2" />
<circle cx="478" cy="299" r="2" />
<circle cx="480" cy="25" r="2" />
<circle cx="483" cy="151" r="2" />
<circle cx="485" cy="101" r="2" />
<circle cx="488" cy="305" r="2" />
<circle cx="490" cy="51" r="2" />
<circle cx="492" cy="77" r="2" />
<circle cx="495" cy="103" r="2" />
<circle cx="497" cy="311" r="2" />
<circle cx="500" cy="13" r="2" />
<circle cx="502" cy="157" r="2" />
<circle cx="505" cy="105" r="2" />
<circle cx="507" cy="317" r="2" />
<circle cx="509" cy="53" r="2" />
<circle cx="512" cy="5" r="2" />
<circle cx="514" cy="107" r="2" />
<circle cx="517" cy="323" r="2" />
<circle cx="519" cy="27" r="2" />
<circle cx="521" cy="163" r="2" />
<circle cx="524" cy="109" r="2" />
<circle cx="526" cy="329" r="2" />
<circle cx="529" cy="55" r="2" />
<circle cx="531" cy="83" r="2" />
<circle cx="533" cy="111" r="2" />
<circle cx="536" cy="335" r="2" />
<circle cx="538" cy="7" r="2" />
<circle cx="541" cy="169" r="2" />
<circle cx="543" cy="113" r="2" />
<circle cx="546" cy="341" r="2" />
<circle cx="548" cy="57" r="2" />
<circle cx="550" cy="43" r="2" />
<circle cx="553" cy="115" r="2" />
<circle cx="555" cy="347" r="2" />
<circle cx="558" cy="29" r="2" />
<circle cx="560" cy="175" r="2" />
<circle cx="562" cy="117" r="2" />
<circle cx="565" cy="353" r="2" />
<circle cx="567" cy="59" r="2" />
<circle cx="570" cy="89" r="2" />
<circle cx="572" cy="119" r="2" />
<circle cx="575" cy="359" r="2" />
<circle cx="577" cy="15" r="2" />
<circle cx="579" cy="181" r="2" />
<circle cx="582" cy="121" r="2" />
<circle cx="584" cy="365" r="2" />
<circle cx="587" cy="61" r="2" />
<circle cx="589" cy="23" r="2" />
<circle cx="591" cy="123" r="2" />
<circle cx="594" cy="371" r="2" />
<circle cx="596" cy="31" r="2" />
<circle cx="599" cy="187" r="2" />
<circle cx="601" cy="125" r="2" />
</g>
</svg>