<svg xmlns="http://www.w3.org/2000/svg" width="161.8" height="100.0" viewBox="-4.4 -5.0 171.8 110.0">
<g fill="none" stroke="black" stroke-width="0.4050%" transform="translate(0, 100.0000) scale(1.2346, -1.2346)">
<circle cx="0.5" cy="0.0" r="0.4" />
<circle cx="1.1" cy="1.0" r="0.4" />
<circle cx="1.6" cy="5.0" r="0.4" />
<circle cx="2.1" cy="2.0" r="0.4" />
<circle cx="2.6" cy="4.0" r="0.4" />
<circle cx="3.2" cy="6.0" r="0.4" />
<circle cx="3.7" cy="11.0" r="0.4" />
<circle cx="4.2" cy="3.0" r="0.4" />
<circle cx="4.7" cy="13.0" r="0.4" />
<circle cx="5.3" cy="5.0" r="0.4" />
<circle cx="5.8" cy="10.0" r="0.4" />
<circle cx="6.3" cy="7.0" r="0.4" />
<circle cx="6.8" cy="7.0" r="0.4" />
<circle cx="7.4" cy="12.0" r="0.4" />
<circle cx="7.9" cy="12.0" r="0.4" />
<circle cx="8.4" cy="4.0" r="0.4" />
<circle cx="8.9" cy="9.0" r="0.4" />
<circle cx="9.5" cy="14.0" r="0.4" />
<circle cx="10.0" cy="14.0" r="0.4" />
<circle cx="10.5" cy="6.0" r="0.4" />
<circle cx="11.1" cy="6.0" r="0.4" />
<circle cx="11.6" cy="11.0" r="0.4" />
<circle cx="12.1" cy="11.0" r="0.4" />
<circle cx="12.6" cy="8.0" r="0.4" />
<circle cx="13.2" cy="16.0" r="0.4" />
<circle cx="13.7" cy="8.0" r="0.4" />
<circle cx="14.2" cy="70.0" r="0.4" />
<circle cx="14.7" cy="13.0" r="0.4" />
<circle cx="15.3" cy="13.0" r="0.4" />
<circle cx="15.8" cy="13.0" r="0.4" />
<circle cx="16.3" cy="67.0" r="0.4" />
<circle cx="16.8" cy="5.0" r="0.4" />
<circle cx="17.4" cy="18.0" r="0.4" />
<circle cx="17.9" cy="10.0" r="0.4" />
<circle cx="18.4" cy="10.0" r="0.4" />
<circle cx="18.9" cy="15.0" r="0.4" />
<circle cx="19.5" cy="15.0" r="0.4" />
<circle cx="20.0" cy="15.0" r="0.4" />
<circle cx="20.5" cy="23.0" r="0.4" />
<circle cx="21.1" cy="7.0" r="0.4" />
<circle cx="21.6" cy="69.0" r="0.4" />
<circle cx="22.1" cy="7.0" r="0.4" />
<circle cx="22.6" cy="20.0" r="0.4" />
<circle cx="23.2" cy="12.0" r="0.4" />
<circle cx="23.7" cy="12.0" r="0.4" />
<circle cx="24.2" cy="12.0" r="0.4" />
<circle cx="24.7" cy="66.0" r="0.4" />
<circle cx="25.3" cy="9.0" r="0.4" />
<circle cx="25.8" cy="17.0" r="0.4" />
<circle cx="26.3" cy="17.0" r="0.4" />
<circle cx="26.8" cy="17.0" r="0.4" />
<circle cx="27.4" cy="9.0" r="0.4" />
<circle cx="27.9" cy="9.0" r="0.4" />
<circle cx="28.4" cy="71.0" r="0.4" />
<circle cx="28.9" cy="71.0" r="0.4" />
<circle cx="29.5" cy="14.0" r="0.4" />
<circle cx="30.0" cy="22.0" r="0.4" />
<circle cx="30.5" cy="14.0" r="0.4" />
<circle cx="31.1" cy="22.0" r="0.4" />
<circle cx="31.6" cy="14.0" r="0.4" />
<circle cx="32.1" cy="14.0" r="0.4" />
<circle cx="32.6" cy="68.0" r="0.4" />
<circle cx="33.2" cy="68.0" r="0.4" />
<circle cx="33.7" cy="6.0" r="0.4" />
<circle cx="34.2" cy="19.0" r="0.4" />
<circle cx="34.7" cy="19.0" r="0.4" />
<circle cx="35.3" cy="19.0" r="0.4" />
<circle cx="35.8" cy="11.0" r="0.4" />
<circle cx="36.3" cy="11.0" r="0.4" />
<circle cx="36.8" cy="11.0" r="0.4" />
<circle cx="37.4" cy="65.0" r="0.4" />
<circle cx="37.9" cy="16.0" r="0.4" />
<circle cx="38.4" cy="73.0" r="0.4" />
<circle cx="38.9" cy="16.0" r="0.4" />
<circle cx="39.5" cy="11.0" r="0.4" />
<circle cx="40.0" cy="16.0" r="0.4" />
<circle cx="40.5" cy="16.0" r="0.4" />
<circle cx="41.1" cy="24.0" r="0.4" />
<circle cx="41.6" cy="24.0" r="0.4" />
<circle cx="42.1" cy="8.0" r="0.4" />
<circle cx="42.6" cy="16.0" r="0.4" />
<circle cx="43.2" cy="70.0" r="0.4" />
<circle cx="43.7" cy="70.0" r="0.4" />
<circle cx="44.2" cy="8.0" r="0.4" />
<circle cx="44.7" cy="8.0" r="0.4" />
<circle cx="45.3" cy="21.0" r="0.4" />
<circle cx="45.8" cy="21.0" r="0.4" />
<circle cx="46.3" cy="13.0" r="0.4" />
<circle cx="46.8" cy="21.0" r="0.4" />
<circle cx="47.4" cy="13.0" r="0.4" />
<circle cx="47.9" cy="59.0" r="0.4" />
<circle cx="48.4" cy="13.0" r="0.4" />
<circle cx="49.0" cy="13.0" r="0.4" />
<circle cx="49.5" cy="67.0" r="0.4" />
<circle cx="50.0" cy="67.0" r="0.4" />
<circle cx="50.5" cy="10.0" r="0.4" />
<circle cx="51.1" cy="75.0" r="0.4" />
<circle cx="51.6" cy="18.0" r="0.4" />
<circle cx="52.1" cy="18.0" r="0.4" />
<circle cx="52.6" cy="18.0" r="0.4" />
<circle cx="53.2" cy="18.0" r="0.4" />
<circle cx="53.7" cy="18.0" r="0.4" />
<circle cx="54.2" cy="56.0" r="0.4" />
<circle cx="54.7" cy="10.0" r="0.4" />
<circle cx="55.3" cy="26.0" r="0.4" />
<circle cx="55.8" cy="10.0" r="0.4" />
<circle cx="56.3" cy="64.0" r="0.4" />
<circle cx="56.8" cy="72.0" r="0.4" />
<circle cx="57.4" cy="72.0" r="0.4" />
<circle cx="57.9" cy="72.0" r="0.4" />
<circle cx="58.4" cy="45.0" r="0.4" />
<circle cx="59.0" cy="15.0" r="0.4" />
<circle cx="59.5" cy="10.0" r="0.4" />
<circle cx="60.0" cy="23.0" r="0.4" />
<circle cx="60.5" cy="23.0" r="0.4" />
<circle cx="61.1" cy="15.0" r="0.4" />
<circle cx="61.6" cy="15.0" r="0.4" />
<circle cx="62.1" cy="23.0" r="0.4" />
<circle cx="62.6" cy="23.0" r="0.4" />
<circle cx="63.2" cy="15.0" r="0.4" />
<circle cx="63.7" cy="61.0" r="0.4" />
<circle cx="64.2" cy="15.0" r="0.4" />
<circle cx="64.7" cy="31.0" r="0.4" />
<circle cx="65.3" cy="69.0" r="0.4" />
<circle cx="65.8" cy="69.0" r="0.4" />
<circle cx="66.3" cy="69.0" r="0.4" />
<circle cx="66.8" cy="31.0" r="0.4" />
<circle cx="67.4" cy="7.0" r="0.4" />
<circle cx="67.9" cy="77.0" r="0.4" />
<circle cx="68.4" cy="20.0" r="0.4" />
<circle cx="69.0" cy="20.0" r="0.4" />
<circle cx="69.5" cy="20.0" r="0.4" />
<circle cx="70.0" cy="20.0" r="0.4" />
<circle cx="70.5" cy="20.0" r="0.4" />
<circle cx="71.1" cy="28.0" r="0.4" />
<circle cx="71.6" cy="12.0" r="0.4" />
<circle cx="72.1" cy="58.0" r="0.4" />
<circle cx="72.6" cy="12.0" r="0.4" />
<circle cx="73.2" cy="28.0" r="0.4" />
<circle cx="73.7" cy="12.0" r="0.4" />
<circle cx="74.2" cy="12.0" r="0.4" />
<circle cx="74.7" cy="66.0" r="0.4" />
<circle cx="75.3" cy="66.0" r="0.4" />
<circle cx="75.8" cy="17.0" r="0.4" />
<circle cx="76.3" cy="74.0" r="0.4" />
<circle cx="76.8" cy="74.0" r="0.4" />
<circle cx="77.4" cy="74.0" r="0.4" />
<circle cx="77.9" cy="17.0" r="0.4" />
<circle cx="78.4" cy="17.0" r="0.4" />
<circle cx="79.0" cy="12.0" r="0.4" />
<circle cx="79.5" cy="12.0" r="0.4" />
<circle cx="80.0" cy="17.0" r="0.4" />
<circle cx="80.5" cy="25.0" r="0.4" />
<circle cx="81.1" cy="17.0" r="0.4" />
<circle cx="81.6" cy="55.0" r="0.4" />
<circle cx="82.1" cy="25.0" r="0.4" />
<circle cx="82.6" cy="25.0" r="0.4" />
<circle cx="83.2" cy="25.0" r="0.4" />
<circle cx="83.7" cy="36.0" r="0.4" />
<circle cx="84.2" cy="9.0" r="0.4" />
<circle cx="84.7" cy="63.0" r="0.4" />
<circle cx="85.3" cy="17.0" r="0.4" />
<circle cx="85.8" cy="17.0" r="0.4" />
<circle cx="86.3" cy="71.0" r="0.4" />
<circle cx="86.8" cy="71.0" r="0.4" />
<circle cx="87.4" cy="71.0" r="0.4" />
<circle cx="87.9" cy="44.0" r="0.4" />
<circle cx="88.4" cy="9.0" r="0.4" />
<circle cx="89.0" cy="33.0" r="0.4" />
<circle cx="89.5" cy="9.0" r="0.4" />
<circle cx="90.0" cy="79.0" r="0.4" />
<circle cx="90.5" cy="22.0" r="0.4" />
<circle cx="91.1" cy="22.0" r="0.4" />
<circle cx="91.6" cy="22.0" r="0.4" />
<circle cx="92.1" cy="52.0" r="0.4" />
<circle cx="92.6" cy="14.0" r="0.4" />
<circle cx="93.2" cy="22.0" r="0.4" />
<circle cx="93.7" cy="22.0" r="0.4" />
<circle cx="94.2" cy="22.0" r="0.4" />
<circle cx="94.7" cy="14.0" r="0.4" />
<circle cx="95.3" cy="14.0" r="0.4" />
<circle cx="95.8" cy="60.0" r="0.4" />
<circle cx="96.3" cy="60.0" r="0.4" />
<circle cx="96.8" cy="14.0" r="0.4" />
<circle cx="97.4" cy="30.0" r="0.4" />
<circle cx="97.9" cy="14.0" r="0.4" />
<circle cx="98.4" cy="30.0" r="0.4" />
<circle cx="99.0" cy="68.0" r="0.4" />
<circle cx="99.5" cy="68.0" r="0.4" />
<circle cx="100.0" cy="68.0" r="0.4" />
<circle cx="100.5" cy="30.0" r="0.4" />
<circle cx="101.1" cy="11.0" r="0.4" />
<circle cx="101.6" cy="76.0" r="0.4" />
<circle cx="102.1" cy="76.0" r="0.4" />
<circle cx="102.6" cy="76.0" r="0.4" />
<circle cx="103.2" cy="19.0" r="0.4" />
<circle cx="103.7" cy="19.0" r="0.4" />
<circle cx="104.2" cy="19.0" r="0.4" />
<circle cx="104.7" cy="76.0" r="0.4" />
<circle cx="105.3" cy="19.0" r="0.4" />
<circle cx="105.8" cy="14.0" r="0.4" />
<circle cx="106.3" cy="19.0" r="0.4" />
<circle cx="106.8" cy="27.0" r="0.4" />
<circle cx="107.4" cy="19.0" r="0.4" />
<circle cx="107.9" cy="19.0" r="0.4" />
<circle cx="108.4" cy="57.0" r="0.4" />
<circle cx="109.0" cy="57.0" r="0.4" />
<circle cx="109.5" cy="11.0" r="0.4" />
<circle cx="110.0" cy="27.0" r="0.4" />
<circle cx="110.5" cy="27.0" r="0.4" />
<circle cx="111.1" cy="27.0" r="0.4" />
<circle cx="111.6" cy="11.0" r="0.4" />
<circle cx="112.1" cy="11.0" r="0.4" />
<circle cx="112.6" cy="65.0" r="0.4" />
<circle cx="113.2" cy="65.0" r="0.4" />
<circle cx="113.7" cy="73.0" r="0.4" />
<circle cx="114.2" cy="19.0" r="0.4" />
<circle cx="114.7" cy="73.0" r="0.4" />
<circle cx="115.3" cy="35.0" r="0.4" />
<circle cx="115.8" cy="73.0" r="0.4" />
<circle cx="116.3" cy="73.0" r="0.4" />
<circle cx="116.8" cy="46.0" r="0.4" />
<circle cx="117.4" cy="46.0" r="0.4" />
<circle cx="117.9" cy="16.0" r="0.4" />
<circle cx="118.4" cy="35.0" r="0.4" />
<circle cx="119.0" cy="11.0" r="0.4" />
<circle cx="119.5" cy="11.0" r="0.4" />
<circle cx="120.0" cy="24.0" r="0.4" />
<circle cx="120.5" cy="24.0" r="0.4" />
<circle cx="121.1" cy="24.0" r="0.4" />
<circle cx="121.6" cy="81.0" r="0.4" />
<circle cx="122.1" cy="16.0" r="0.4" />
<circle cx="122.6" cy="54.0" r="0.4" />
<circle cx="123.2" cy="16.0" r="0.4" />
<circle cx="123.7" cy="81.0" r="0.4" />
<circle cx="124.2" cy="24.0" r="0.4" />
<circle cx="124.7" cy="24.0" r="0.4" />
<circle cx="125.3" cy="24.0" r="0.4" />
<circle cx="125.8" cy="35.0" r="0.4" />
<circle cx="126.3" cy="16.0" r="0.4" />
<circle cx="126.8" cy="16.0" r="0.4" />
<circle cx="127.4" cy="62.0" r="0.4" />
<circle cx="127.9" cy="62.0" r="0.4" />
<circle cx="128.4" cy="16.0" r="0.4" />
<circle cx="129.0" cy="16.0" r="0.4" />
<circle cx="129.5" cy="32.0" r="0.4" />
<circle cx="130.0" cy="32.0" r="0.4" />
<circle cx="130.5" cy="70.0" r="0.4" />
<circle cx="131.1" cy="32.0" r="0.4" />
<circle cx="131.6" cy="70.0" r="0.4" />
</g>
</svg>