<svg xmlns="http://www.w3.org/2000/svg" width="161.8" height="100.0" viewBox="-2.9 -4.2 171.8 110.0">
<g fill="none" stroke="black" stroke-width="0.5950%" transform="translate(0, 101.6807) scale(0.8403, -0.8403)">
<circle cx="2.5" cy="1.0" r="0.6" />
<circle cx="5.0" cy="1.0" r="0.6" />
<circle cx="7.5" cy="2.0" r="0.6" />
<circle cx="10.0" cy="1.0" r="0.6" />
<circle cx="12.5" cy="3.0" r="0.6" />
<circle cx="15.0" cy="3.0" r="0.6" />
<circle cx="17.5" cy="1.0" r="0.6" />
<circle cx="20.0" cy="4.0" r="0.6" />
<circle cx="22.5" cy="6.0" r="0.6" />
<circle cx="25.0" cy="4.0" r="0.6" />
<circle cx="27.5" cy="1.0" r="0.6" />
<circle cx="30.0" cy="5.0" r="0.6" />
<circle cx="32.5" cy="9.0" r="0.6" />
<circle cx="35.0" cy="10.0" r="0.6" />
<circle cx="37.5" cy="5.0" r="0.6" />
<circle cx="40.0" cy="1.0" r="0.6" />
<circle cx="42.5" cy="6.0" r="0.6" />
<circle cx="45.0" cy="12.0" r="0.6" />
<circle cx="47.5" cy="16.0" r="0.6" />
<circle cx="50.0" cy="15.0" r="0.6" />
<circle cx="52.5" cy="6.0" r="0.6" />
<circle cx="55.0" cy="1.0" r="0.6" />
<circle cx="57.5" cy="7.0" r="0.6" />
<circle cx="60.0" cy="15.0" r="0.6" />
<circle cx="62.5" cy="22.0" r="0.6" />
<circle cx="65.0" cy="25.0" r="0.6" />
<circle cx="67.5" cy="21.0" r="0.6" />
<circle cx="70.0" cy="7.0" r="0.6" />
<circle cx="72.5" cy="1.0" r="0.6" />
<circle cx="75.0" cy="8.0" r="0.6" />
<circle cx="77.5" cy="18.0" r="0.6" />
<circle cx="80.0" cy="28.0" r="0.6" />
<circle cx="82.5" cy="35.0" r="0.6" />
<circle cx="85.0" cy="36.0" r="0.6" />
<circle cx="87.5" cy="28.0" r="0.6" />
<circle cx="90.0" cy="8.0" r="0.6" />
<circle cx="92.5" cy="1.0" r="0.6" />
<circle cx="95.0" cy="9.0" r="0.6" />
<circle cx="97.5" cy="21.0" r="0.6" />
<circle cx="100.0" cy="34.0" r="0.6" />
<circle cx="102.5" cy="45.0" r="0.6" />
<circle cx="105.0" cy="51.0" r="0.6" />
<circle cx="107.5" cy="49.0" r="0.6" />
<circle cx="110.0" cy="36.0" r="0.6" />
<circle cx="112.5" cy="9.0" r="0.6" />
<circle cx="115.0" cy="1.0" r="0.6" />
<circle cx="117.5" cy="10.0" r="0.6" />
<circle cx="120.0" cy="24.0" r="0.6" />
<circle cx="122.5" cy="40.0" r="0.6" />
<circle cx="125.0" cy="55.0" r="0.6" />
<circle cx="127.5" cy="66.0" r="0.6" />
<circle cx="130.0" cy="70.0" r="0.6" />
<circle cx="132.5" cy="64.0" r="0.6" />
<circle cx="135.0" cy="45.0" r="0.6" />
<circle cx="137.5" cy="10.0" r="0.6" />
<circle cx="140.0" cy="1.0" r="0.6" />
<circle cx="142.5" cy="11.0" r="0.6" />
<circle cx="145.0" cy="27.0" r="0.6" />
<circle cx="147.5" cy="46.0" r="0.6" />
<circle cx="150.0" cy="65.0" r="0.6" />
<circle cx="152.5" cy="81.0" r="0.6" />
<circle cx="155.0" cy="91.0" r="0.6" />
<circle cx="157.5" cy="92.0" r="0.6" />
<circle cx="160.0" cy="81.0" r="0.6" />
<circle cx="162.5" cy="55.0" r="0.6" />
<circle cx="165.0" cy="11.0" r="0.6" />
<circle cx="167.5" cy="1.0" r="0.6" />
<circle cx="170.0" cy="12.0" r="0.6" />
<circle cx="172.5" cy="30.0" r="0.6" />
<circle cx="175.0" cy="52.0" r="0.6" />
<circle cx="177.5" cy="75.0" r="0.6" />
<circle cx="180.0" cy="96.0" r="0.6" />
<circle cx="182.5" cy="112.0" r="0.6" />
<circle cx="185.0" cy="120.0" r="0.6" />
<circle cx="187.5" cy="117.0" r="0.6" />
<circle cx="190.0" cy="100.0" r="0.6" />
<circle cx="192.5" cy="66.0" r="0.6" />
<circle cx="195.0" cy="12.0" r="0.6" />
</g>
</svg>