<svg xmlns="http://www.w3.org/2000/svg" width="161.8" height="100.0" viewBox="-4.41 -43.97 171.80 110.00">
<g fill="none" stroke="black" stroke-width="0.0441%" transform="translate(0, 22.0512) scale(11.3496, -11.3496)">
<circle cx="0.05" cy="-1.10" r="0.04" />
<circle cx="0.10" cy="0.69" r="0.04" />
<circle cx="0.16" cy="0.00" r="0.04" />
<circle cx="0.21" cy="1.39" r="0.04" />
<circle cx="0.26" cy="0.69" r="0.04" />
<circle cx="0.31" cy="-1.61" r="0.04" />
<circle cx="0.37" cy="0.47" r="0.04" />
<circle cx="0.42" cy="-0.22" r="0.04" />
<circle cx="0.47" cy="-0.92" r="0.04" />
<circle cx="0.52" cy="-1.61" r="0.04" />
<circle cx="0.57" cy="-1.95" r="0.04" />
<circle cx="0.63" cy="0.36" r="0.04" />
<circle cx="0.68" cy="-0.34" r="0.04" />
<circle cx="0.73" cy="1.15" r="0.04" />
<circle cx="0.78" cy="0.45" r="0.04" />
<circle cx="0.84" cy="1.74" r="0.04" />
<circle cx="0.89" cy="1.05" r="0.04" />
<circle cx="0.94" cy="0.36" r="0.04" />
<circle cx="0.99" cy="-2.20" r="0.04" />
<circle cx="1.04" cy="0.29" r="0.04" />
<circle cx="1.10" cy="-0.41" r="0.04" />
<circle cx="1.15" cy="-1.10" r="0.04" />
<circle cx="1.20" cy="0.69" r="0.04" />
<circle cx="1.25" cy="0.00" r="0.04" />
<circle cx="1.31" cy="1.39" r="0.04" />
<circle cx="1.36" cy="0.69" r="0.04" />
<circle cx="1.41" cy="-2.40" r="0.04" />
<circle cx="1.46" cy="0.24" r="0.04" />
<circle cx="1.51" cy="-0.45" r="0.04" />
<circle cx="1.57" cy="1.07" r="0.04" />
<circle cx="1.62" cy="0.37" r="0.04" />
<circle cx="1.67" cy="-0.32" r="0.04" />
<circle cx="1.72" cy="-1.01" r="0.04" />
<circle cx="1.78" cy="-1.70" r="0.04" />
<circle cx="1.83" cy="-2.40" r="0.04" />
<circle cx="1.88" cy="-2.56" r="0.04" />
<circle cx="1.93" cy="0.21" r="0.04" />
<circle cx="1.98" cy="-0.49" r="0.04" />
<circle cx="2.04" cy="-1.18" r="0.04" />
<circle cx="2.09" cy="-1.87" r="0.04" />
<circle cx="2.14" cy="-2.56" r="0.04" />
<circle cx="2.19" cy="-2.71" r="0.04" />
<circle cx="2.25" cy="0.18" r="0.04" />
<circle cx="2.30" cy="-0.51" r="0.04" />
<circle cx="2.35" cy="1.03" r="0.04" />
<circle cx="2.40" cy="0.34" r="0.04" />
<circle cx="2.45" cy="1.65" r="0.04" />
<circle cx="2.51" cy="0.96" r="0.04" />
<circle cx="2.56" cy="2.17" r="0.04" />
<circle cx="2.61" cy="1.48" r="0.04" />
<circle cx="2.66" cy="0.79" r="0.04" />
<circle cx="2.72" cy="2.03" r="0.04" />
<circle cx="2.77" cy="1.34" r="0.04" />
<circle cx="2.82" cy="2.52" r="0.04" />
<circle cx="2.87" cy="1.82" r="0.04" />
<circle cx="2.92" cy="2.98" r="0.04" />
<circle cx="2.98" cy="2.28" r="0.04" />
<circle cx="3.03" cy="3.41" r="0.04" />
<circle cx="3.08" cy="2.72" r="0.04" />
<circle cx="3.13" cy="2.03" r="0.04" />
<circle cx="3.19" cy="-2.83" r="0.04" />
<circle cx="3.24" cy="0.16" r="0.04" />
<circle cx="3.29" cy="-0.53" r="0.04" />
<circle cx="3.34" cy="-1.22" r="0.04" />
<circle cx="3.39" cy="0.63" r="0.04" />
<circle cx="3.45" cy="-0.06" r="0.04" />
<circle cx="3.50" cy="-0.75" r="0.04" />
<circle cx="3.55" cy="-1.45" r="0.04" />
<circle cx="3.60" cy="-2.14" r="0.04" />
<circle cx="3.66" cy="-2.83" r="0.04" />
<circle cx="3.71" cy="-2.94" r="0.04" />
<circle cx="3.76" cy="0.15" r="0.04" />
<circle cx="3.81" cy="-0.55" r="0.04" />
<circle cx="3.86" cy="1.01" r="0.04" />
<circle cx="3.92" cy="0.31" r="0.04" />
<circle cx="3.97" cy="-0.38" r="0.04" />
<circle cx="4.02" cy="1.12" r="0.04" />
<circle cx="4.07" cy="0.42" r="0.04" />
<circle cx="4.13" cy="1.72" r="0.04" />
<circle cx="4.18" cy="1.03" r="0.04" />
<circle cx="4.23" cy="2.24" r="0.04" />
<circle cx="4.28" cy="1.54" r="0.04" />
<circle cx="4.33" cy="2.71" r="0.04" />
<circle cx="4.39" cy="2.02" r="0.04" />
<circle cx="4.44" cy="3.16" r="0.04" />
<circle cx="4.49" cy="2.47" r="0.04" />
<circle cx="4.54" cy="1.77" r="0.04" />
<circle cx="4.60" cy="1.08" r="0.04" />
<circle cx="4.65" cy="0.39" r="0.04" />
<circle cx="4.70" cy="-0.31" r="0.04" />
<circle cx="4.75" cy="-1.00" r="0.04" />
<circle cx="4.80" cy="0.74" r="0.04" />
<circle cx="4.86" cy="0.05" r="0.04" />
<circle cx="4.91" cy="-0.64" r="0.04" />
<circle cx="4.96" cy="-1.34" r="0.04" />
<circle cx="5.01" cy="0.58" r="0.04" />
<circle cx="5.07" cy="-0.11" r="0.04" />
<circle cx="5.12" cy="1.30" r="0.04" />
<circle cx="5.17" cy="0.61" r="0.04" />
<circle cx="5.22" cy="1.88" r="0.04" />
<circle cx="5.27" cy="1.18" r="0.04" />
<circle cx="5.33" cy="0.49" r="0.04" />
<circle cx="5.38" cy="1.77" r="0.04" />
<circle cx="5.43" cy="-3.04" r="0.04" />
<circle cx="5.48" cy="0.13" r="0.04" />
<circle cx="5.54" cy="-0.56" r="0.04" />
<circle cx="5.59" cy="-1.25" r="0.04" />
<circle cx="5.64" cy="-1.95" r="0.04" />
<circle cx="5.69" cy="0.36" r="0.04" />
<circle cx="5.74" cy="-0.34" r="0.04" />
<circle cx="5.80" cy="1.15" r="0.04" />
<circle cx="5.85" cy="0.45" r="0.04" />
<circle cx="5.90" cy="1.74" r="0.04" />
<circle cx="5.95" cy="1.05" r="0.04" />
<circle cx="6.01" cy="0.36" r="0.04" />
<circle cx="6.06" cy="-3.14" r="0.04" />
<circle cx="6.11" cy="0.12" r="0.04" />
<circle cx="6.16" cy="-0.57" r="0.04" />
<circle cx="6.21" cy="0.99" r="0.04" />
<circle cx="6.27" cy="0.30" r="0.04" />
<circle cx="6.32" cy="1.62" r="0.04" />
<circle cx="6.37" cy="0.92" r="0.04" />
<circle cx="6.42" cy="0.23" r="0.04" />
<circle cx="6.48" cy="1.56" r="0.04" />
<circle cx="6.53" cy="0.87" r="0.04" />
<circle cx="6.58" cy="2.10" r="0.04" />
<circle cx="6.63" cy="1.41" r="0.04" />
<circle cx="6.68" cy="0.71" r="0.04" />
<circle cx="6.74" cy="1.96" r="0.04" />
<circle cx="6.79" cy="1.27" r="0.04" />
<circle cx="6.84" cy="0.58" r="0.04" />
<circle cx="6.89" cy="1.85" r="0.04" />
<circle cx="6.95" cy="1.15" r="0.04" />
<circle cx="7.00" cy="2.35" r="0.04" />
<circle cx="7.05" cy="1.66" r="0.04" />
<circle cx="7.10" cy="2.82" r="0.04" />
<circle cx="7.15" cy="2.13" r="0.04" />
<circle cx="7.21" cy="3.26" r="0.04" />
<circle cx="7.26" cy="2.57" r="0.04" />
<circle cx="7.31" cy="3.70" r="0.04" />
<circle cx="7.36" cy="3.00" r="0.04" />
<circle cx="7.42" cy="4.12" r="0.04" />
<circle cx="7.47" cy="3.42" r="0.04" />
<circle cx="7.52" cy="2.73" r="0.04" />
<circle cx="7.57" cy="3.85" r="0.04" />
<circle cx="7.62" cy="3.16" r="0.04" />
<circle cx="7.68" cy="4.27" r="0.04" />
<circle cx="7.73" cy="3.58" r="0.04" />
<circle cx="7.78" cy="4.69" r="0.04" />
<circle cx="7.83" cy="3.99" r="0.04" />
<circle cx="7.89" cy="3.30" r="0.04" />
<circle cx="7.94" cy="4.41" r="0.04" />
<circle cx="7.99" cy="3.72" r="0.04" />
<circle cx="8.04" cy="3.02" r="0.04" />
<circle cx="8.09" cy="4.14" r="0.04" />
<circle cx="8.15" cy="3.45" r="0.04" />
<circle cx="8.20" cy="4.55" r="0.04" />
<circle cx="8.25" cy="3.86" r="0.04" />
<circle cx="8.30" cy="4.97" r="0.04" />
<circle cx="8.36" cy="4.27" r="0.04" />
<circle cx="8.41" cy="5.38" r="0.04" />
<circle cx="8.46" cy="4.68" r="0.04" />
<circle cx="8.51" cy="3.99" r="0.04" />
<circle cx="8.56" cy="3.30" r="0.04" />
<circle cx="8.62" cy="2.60" r="0.04" />
<circle cx="8.67" cy="3.73" r="0.04" />
<circle cx="8.72" cy="3.03" r="0.04" />
<circle cx="8.77" cy="2.34" r="0.04" />
<circle cx="8.83" cy="3.47" r="0.04" />
<circle cx="8.88" cy="2.78" r="0.04" />
<circle cx="8.93" cy="2.08" r="0.04" />
<circle cx="8.98" cy="3.22" r="0.04" />
<circle cx="9.03" cy="2.53" r="0.04" />
<circle cx="9.09" cy="3.66" r="0.04" />
<circle cx="9.14" cy="2.96" r="0.04" />
<circle cx="9.19" cy="4.08" r="0.04" />
<circle cx="9.24" cy="3.39" r="0.04" />
<circle cx="9.30" cy="4.49" r="0.04" />
<circle cx="9.35" cy="3.80" r="0.04" />
<circle cx="9.40" cy="3.11" r="0.04" />
<circle cx="9.45" cy="4.22" r="0.04" />
<circle cx="9.50" cy="3.53" r="0.04" />
<circle cx="9.56" cy="2.84" r="0.04" />
<circle cx="9.61" cy="2.14" r="0.04" />
<circle cx="9.66" cy="1.45" r="0.04" />
<circle cx="9.71" cy="0.76" r="0.04" />
<circle cx="9.77" cy="2.00" r="0.04" />
<circle cx="9.82" cy="1.31" r="0.04" />
<circle cx="9.87" cy="2.49" r="0.04" />
<circle cx="9.92" cy="1.80" r="0.04" />
<circle cx="9.97" cy="2.95" r="0.04" />
<circle cx="10.03" cy="2.26" r="0.04" />
<circle cx="10.08" cy="1.56" r="0.04" />
<circle cx="10.13" cy="-3.22" r="0.04" />
<circle cx="10.18" cy="0.11" r="0.04" />
<circle cx="10.24" cy="-0.58" r="0.04" />
<circle cx="10.29" cy="-1.27" r="0.04" />
<circle cx="10.34" cy="0.61" r="0.04" />
<circle cx="10.39" cy="-0.08" r="0.04" />
<circle cx="10.44" cy="1.32" r="0.04" />
<circle cx="10.50" cy="0.63" r="0.04" />
<circle cx="10.55" cy="1.89" r="0.04" />
<circle cx="10.60" cy="1.20" r="0.04" />
<circle cx="10.65" cy="2.39" r="0.04" />
<circle cx="10.71" cy="1.70" r="0.04" />
<circle cx="10.76" cy="2.86" r="0.04" />
<circle cx="10.81" cy="2.17" r="0.04" />
<circle cx="10.86" cy="1.47" r="0.04" />
<circle cx="10.91" cy="2.64" r="0.04" />
<circle cx="10.97" cy="1.95" r="0.04" />
<circle cx="11.02" cy="1.26" r="0.04" />
<circle cx="11.07" cy="0.57" r="0.04" />
<circle cx="11.12" cy="-0.13" r="0.04" />
<circle cx="11.18" cy="-0.82" r="0.04" />
<circle cx="11.23" cy="0.84" r="0.04" />
<circle cx="11.28" cy="0.15" r="0.04" />
<circle cx="11.33" cy="1.50" r="0.04" />
<circle cx="11.38" cy="0.81" r="0.04" />
<circle cx="11.44" cy="0.11" r="0.04" />
<circle cx="11.49" cy="-3.30" r="0.04" />
<circle cx="11.54" cy="0.11" r="0.04" />
<circle cx="11.59" cy="-0.59" r="0.04" />
<circle cx="11.65" cy="0.98" r="0.04" />
<circle cx="11.70" cy="0.29" r="0.04" />
<circle cx="11.75" cy="-0.41" r="0.04" />
<circle cx="11.80" cy="-1.10" r="0.04" />
<circle cx="11.85" cy="0.69" r="0.04" />
<circle cx="11.91" cy="0.00" r="0.04" />
<circle cx="11.96" cy="1.39" r="0.04" />
<circle cx="12.01" cy="0.69" r="0.04" />
<circle cx="12.06" cy="-3.37" r="0.04" />
<circle cx="12.12" cy="0.10" r="0.04" />
<circle cx="12.17" cy="-0.59" r="0.04" />
<circle cx="12.22" cy="-1.29" r="0.04" />
<circle cx="12.27" cy="-1.98" r="0.04" />
<circle cx="12.32" cy="-2.67" r="0.04" />
<circle cx="12.38" cy="-3.37" r="0.04" />
<circle cx="12.43" cy="-3.43" r="0.04" />
<circle cx="12.48" cy="0.09" r="0.04" />
<circle cx="12.53" cy="-0.60" r="0.04" />
<circle cx="12.59" cy="0.97" r="0.04" />
<circle cx="12.64" cy="0.28" r="0.04" />
<circle cx="12.69" cy="1.60" r="0.04" />
<circle cx="12.74" cy="0.91" r="0.04" />
<circle cx="12.79" cy="2.13" r="0.04" />
<circle cx="12.85" cy="1.44" r="0.04" />
<circle cx="12.90" cy="2.62" r="0.04" />
<circle cx="12.95" cy="1.92" r="0.04" />
<circle cx="13.00" cy="1.23" r="0.04" />
<circle cx="13.06" cy="0.54" r="0.04" />
<circle cx="13.11" cy="1.81" r="0.04" />
<circle cx="13.16" cy="1.12" r="0.04" />
<circle cx="13.21" cy="2.32" r="0.04" />
<circle cx="13.26" cy="1.63" r="0.04" />
<circle cx="13.32" cy="0.94" r="0.04" />
<circle cx="13.37" cy="2.16" r="0.04" />
<circle cx="13.42" cy="1.46" r="0.04" />
<circle cx="13.47" cy="0.77" r="0.04" />
<circle cx="13.53" cy="2.01" r="0.04" />
<circle cx="13.58" cy="1.32" r="0.04" />
<circle cx="13.63" cy="0.63" r="0.04" />
<circle cx="13.68" cy="-0.07" r="0.04" />
<circle cx="13.73" cy="1.34" r="0.04" />
<circle cx="13.79" cy="0.64" r="0.04" />
<circle cx="13.84" cy="1.90" r="0.04" />
<circle cx="13.89" cy="1.21" r="0.04" />
<circle cx="13.94" cy="0.52" r="0.04" />
<circle cx="14.00" cy="-0.18" r="0.04" />
<circle cx="14.05" cy="-0.87" r="0.04" />
<circle cx="14.10" cy="0.81" r="0.04" />
<circle cx="14.15" cy="0.12" r="0.04" />
<circle cx="14.20" cy="1.48" r="0.04" />
<circle cx="14.26" cy="0.79" r="0.04" />
<circle cx="14.31" cy="0.09" r="0.04" />
</g>
</svg>