<svg xmlns="http://www.w3.org/2000/svg" width="161.8" height="100.0" viewBox="-4.0 -5.0 171.8 110.0">
<g fill="none" stroke="black" stroke-width="0.5850%" transform="translate(0, 100.0000) scale(0.8547, -0.8547)">
<circle cx="1.2" cy="0.0" r="0.6" />
<circle cx="2.3" cy="0.0" r="0.6" />
<circle cx="3.5" cy="3.0" r="0.6" />
<circle cx="4.6" cy="0.0" r="0.6" />
<circle cx="5.8" cy="1.0" r="0.6" />
<circle cx="6.9" cy="4.0" r="0.6" />
<circle cx="8.1" cy="12.0" r="0.6" />
<circle cx="9.2" cy="0.0" r="0.6" />
<circle cx="10.4" cy="15.0" r="0.6" />
<circle cx="11.5" cy="2.0" r="0.6" />
<circle cx="12.7" cy="10.0" r="0.6" />
<circle cx="13.9" cy="5.0" r="0.6" />
<circle cx="15.0" cy="5.0" r="0.6" />
<circle cx="16.2" cy="13.0" r="0.6" />
<circle cx="17.3" cy="13.0" r="0.6" />
<circle cx="18.5" cy="0.0" r="0.6" />
<circle cx="19.6" cy="8.0" r="0.6" />
<circle cx="20.8" cy="16.0" r="0.6" />
<circle cx="21.9" cy="16.0" r="0.6" />
<circle cx="23.1" cy="3.0" r="0.6" />
<circle cx="24.2" cy="1.0" r="0.6" />
<circle cx="25.4" cy="11.0" r="0.6" />
<circle cx="26.5" cy="11.0" r="0.6" />
<circle cx="27.7" cy="6.0" r="0.6" />
<circle cx="28.9" cy="19.0" r="0.6" />
<circle cx="30.0" cy="6.0" r="0.6" />
<circle cx="31.2" cy="107.0" r="0.6" />
<circle cx="32.3" cy="14.0" r="0.6" />
<circle cx="33.5" cy="14.0" r="0.6" />
<circle cx="34.6" cy="14.0" r="0.6" />
<circle cx="35.8" cy="102.0" r="0.6" />
<circle cx="36.9" cy="0.0" r="0.6" />
<circle cx="38.1" cy="22.0" r="0.6" />
<circle cx="39.2" cy="9.0" r="0.6" />
<circle cx="40.4" cy="9.0" r="0.6" />
<circle cx="41.6" cy="17.0" r="0.6" />
<circle cx="42.7" cy="17.0" r="0.6" />
<circle cx="43.9" cy="17.0" r="0.6" />
<circle cx="45.0" cy="30.0" r="0.6" />
<circle cx="46.2" cy="4.0" r="0.6" />
<circle cx="47.3" cy="105.0" r="0.6" />
<circle cx="48.5" cy="2.0" r="0.6" />
<circle cx="49.6" cy="25.0" r="0.6" />
<circle cx="50.8" cy="12.0" r="0.6" />
<circle cx="51.9" cy="12.0" r="0.6" />
<circle cx="53.1" cy="12.0" r="0.6" />
<circle cx="54.3" cy="100.0" r="0.6" />
<circle cx="55.4" cy="7.0" r="0.6" />
<circle cx="56.6" cy="20.0" r="0.6" />
<circle cx="57.7" cy="20.0" r="0.6" />
<circle cx="58.9" cy="20.0" r="0.6" />
<circle cx="60.0" cy="7.0" r="0.6" />
<circle cx="61.2" cy="7.0" r="0.6" />
<circle cx="62.3" cy="108.0" r="0.6" />
<circle cx="63.5" cy="108.0" r="0.6" />
<circle cx="64.6" cy="15.0" r="0.6" />
<circle cx="65.8" cy="28.0" r="0.6" />
<circle cx="67.0" cy="15.0" r="0.6" />
<circle cx="68.1" cy="28.0" r="0.6" />
<circle cx="69.3" cy="15.0" r="0.6" />
<circle cx="70.4" cy="15.0" r="0.6" />
<circle cx="71.6" cy="103.0" r="0.6" />
<circle cx="72.7" cy="103.0" r="0.6" />
<circle cx="73.9" cy="0.0" r="0.6" />
<circle cx="75.0" cy="23.0" r="0.6" />
<circle cx="76.2" cy="23.0" r="0.6" />
<circle cx="77.3" cy="23.0" r="0.6" />
<circle cx="78.5" cy="10.0" r="0.6" />
<circle cx="79.6" cy="10.0" r="0.6" />
<circle cx="80.8" cy="10.0" r="0.6" />
<circle cx="82.0" cy="98.0" r="0.6" />
<circle cx="83.1" cy="18.0" r="0.6" />
<circle cx="84.3" cy="111.0" r="0.6" />
<circle cx="85.4" cy="18.0" r="0.6" />
<circle cx="86.6" cy="6.0" r="0.6" />
<circle cx="87.7" cy="18.0" r="0.6" />
<circle cx="88.9" cy="18.0" r="0.6" />
<circle cx="90.0" cy="31.0" r="0.6" />
<circle cx="91.2" cy="31.0" r="0.6" />
<circle cx="92.3" cy="5.0" r="0.6" />
<circle cx="93.5" cy="18.0" r="0.6" />
<circle cx="94.7" cy="106.0" r="0.6" />
<circle cx="95.8" cy="106.0" r="0.6" />
<circle cx="97.0" cy="3.0" r="0.6" />
<circle cx="98.1" cy="1.0" r="0.6" />
<circle cx="99.3" cy="26.0" r="0.6" />
<circle cx="100.4" cy="26.0" r="0.6" />
<circle cx="101.6" cy="13.0" r="0.6" />
<circle cx="102.7" cy="26.0" r="0.6" />
<circle cx="103.9" cy="13.0" r="0.6" />
<circle cx="105.0" cy="88.0" r="0.6" />
<circle cx="106.2" cy="13.0" r="0.6" />
<circle cx="107.4" cy="13.0" r="0.6" />
<circle cx="108.5" cy="101.0" r="0.6" />
<circle cx="109.7" cy="101.0" r="0.6" />
<circle cx="110.8" cy="8.0" r="0.6" />
<circle cx="112.0" cy="114.0" r="0.6" />
<circle cx="113.1" cy="21.0" r="0.6" />
<circle cx="114.3" cy="21.0" r="0.6" />
<circle cx="115.4" cy="21.0" r="0.6" />
<circle cx="116.6" cy="21.0" r="0.6" />
<circle cx="117.7" cy="21.0" r="0.6" />
<circle cx="118.9" cy="83.0" r="0.6" />
<circle cx="120.1" cy="8.0" r="0.6" />
<circle cx="121.2" cy="34.0" r="0.6" />
<circle cx="122.4" cy="8.0" r="0.6" />
<circle cx="123.5" cy="96.0" r="0.6" />
<circle cx="124.7" cy="109.0" r="0.6" />
<circle cx="125.8" cy="109.0" r="0.6" />
<circle cx="127.0" cy="109.0" r="0.6" />
<circle cx="128.1" cy="65.0" r="0.6" />
<circle cx="129.3" cy="16.0" r="0.6" />
<circle cx="130.4" cy="4.0" r="0.6" />
<circle cx="131.6" cy="29.0" r="0.6" />
<circle cx="132.7" cy="29.0" r="0.6" />
<circle cx="133.9" cy="16.0" r="0.6" />
<circle cx="135.1" cy="16.0" r="0.6" />
<circle cx="136.2" cy="29.0" r="0.6" />
<circle cx="137.4" cy="29.0" r="0.6" />
<circle cx="138.5" cy="16.0" r="0.6" />
<circle cx="139.7" cy="91.0" r="0.6" />
<circle cx="140.8" cy="16.0" r="0.6" />
<circle cx="142.0" cy="42.0" r="0.6" />
<circle cx="143.1" cy="104.0" r="0.6" />
<circle cx="144.3" cy="104.0" r="0.6" />
<circle cx="145.4" cy="104.0" r="0.6" />
<circle cx="146.6" cy="42.0" r="0.6" />
<circle cx="147.8" cy="0.0" r="0.6" />
<circle cx="148.9" cy="117.0" r="0.6" />
<circle cx="150.1" cy="24.0" r="0.6" />
<circle cx="151.2" cy="24.0" r="0.6" />
<circle cx="152.4" cy="24.0" r="0.6" />
<circle cx="153.5" cy="24.0" r="0.6" />
<circle cx="154.7" cy="24.0" r="0.6" />
<circle cx="155.8" cy="37.0" r="0.6" />
<circle cx="157.0" cy="11.0" r="0.6" />
<circle cx="158.1" cy="86.0" r="0.6" />
<circle cx="159.3" cy="11.0" r="0.6" />
<circle cx="160.5" cy="37.0" r="0.6" />
<circle cx="161.6" cy="11.0" r="0.6" />
<circle cx="162.8" cy="11.0" r="0.6" />
<circle cx="163.9" cy="99.0" r="0.6" />
<circle cx="165.1" cy="99.0" r="0.6" />
<circle cx="166.2" cy="19.0" r="0.6" />
<circle cx="167.4" cy="112.0" r="0.6" />
<circle cx="168.5" cy="112.0" r="0.6" />
<circle cx="169.7" cy="112.0" r="0.6" />
<circle cx="170.8" cy="19.0" r="0.6" />
<circle cx="172.0" cy="19.0" r="0.6" />
<circle cx="173.1" cy="7.0" r="0.6" />
<circle cx="174.3" cy="5.0" r="0.6" />
<circle cx="175.5" cy="19.0" r="0.6" />
<circle cx="176.6" cy="32.0" r="0.6" />
<circle cx="177.8" cy="19.0" r="0.6" />
<circle cx="178.9" cy="81.0" r="0.6" />
<circle cx="180.1" cy="32.0" r="0.6" />
<circle cx="181.2" cy="32.0" r="0.6" />
<circle cx="182.4" cy="32.0" r="0.6" />
<circle cx="183.5" cy="50.0" r="0.6" />
<circle cx="184.7" cy="6.0" r="0.6" />
<circle cx="185.8" cy="94.0" r="0.6" />
<circle cx="187.0" cy="19.0" r="0.6" />
<circle cx="188.2" cy="19.0" r="0.6" />
<circle cx="189.3" cy="107.0" r="0.6" />
<circle cx="190.5" cy="107.0" r="0.6" />
</g>
</svg>