<svg xmlns="http://www.w3.org/2000/svg" width="161.8" height="100.0" viewBox="-4.19 -5.00 171.80 110.00">
<g fill="none" stroke="black" stroke-width="0.0457%" transform="translate(0, 100.0000) scale(10.9524, -10.9524)">
<circle cx="0.07" cy="0.00" r="0.05" />
<circle cx="0.07" cy="0.00" r="0.05" />
<circle cx="0.15" cy="0.69" r="0.05" />
<circle cx="0.22" cy="2.77" r="0.05" />
<circle cx="0.30" cy="1.39" r="0.05" />
<circle cx="0.37" cy="2.77" r="0.05" />
<circle cx="0.45" cy="2.77" r="0.05" />
<circle cx="0.52" cy="3.95" r="0.05" />
<circle cx="0.59" cy="2.08" r="0.05" />
<circle cx="0.67" cy="3.95" r="0.05" />
<circle cx="0.74" cy="2.77" r="0.05" />
<circle cx="0.82" cy="3.95" r="0.05" />
<circle cx="0.89" cy="2.77" r="0.05" />
<circle cx="0.97" cy="3.69" r="0.05" />
<circle cx="1.04" cy="3.95" r="0.05" />
<circle cx="1.11" cy="5.08" r="0.05" />
<circle cx="1.19" cy="2.77" r="0.05" />
<circle cx="1.26" cy="3.95" r="0.05" />
<circle cx="1.34" cy="3.95" r="0.05" />
<circle cx="1.41" cy="4.48" r="0.05" />
<circle cx="1.48" cy="3.00" r="0.05" />
<circle cx="1.56" cy="4.16" r="0.05" />
<circle cx="1.63" cy="3.95" r="0.05" />
<circle cx="1.71" cy="5.08" r="0.05" />
<circle cx="1.78" cy="3.18" r="0.05" />
<circle cx="1.86" cy="4.48" r="0.05" />
<circle cx="1.93" cy="3.69" r="0.05" />
<circle cx="2.00" cy="9.13" r="0.05" />
<circle cx="2.08" cy="3.95" r="0.05" />
<circle cx="2.15" cy="4.48" r="0.05" />
<circle cx="2.23" cy="5.08" r="0.05" />
<circle cx="2.30" cy="9.13" r="0.05" />
<circle cx="2.38" cy="3.47" r="0.05" />
<circle cx="2.45" cy="4.61" r="0.05" />
<circle cx="2.52" cy="3.95" r="0.05" />
<circle cx="2.60" cy="5.08" r="0.05" />
<circle cx="2.67" cy="3.95" r="0.05" />
<circle cx="2.75" cy="4.72" r="0.05" />
<circle cx="2.82" cy="4.48" r="0.05" />
<circle cx="2.90" cy="5.72" r="0.05" />
<circle cx="2.97" cy="3.69" r="0.05" />
<circle cx="3.04" cy="9.13" r="0.05" />
<circle cx="3.12" cy="4.16" r="0.05" />
<circle cx="3.19" cy="5.28" r="0.05" />
<circle cx="3.27" cy="3.95" r="0.05" />
<circle cx="3.34" cy="4.91" r="0.05" />
<circle cx="3.41" cy="5.08" r="0.05" />
<circle cx="3.49" cy="9.13" r="0.05" />
<circle cx="3.56" cy="3.87" r="0.05" />
<circle cx="3.64" cy="5.00" r="0.05" />
<circle cx="3.71" cy="4.48" r="0.05" />
<circle cx="3.79" cy="5.45" r="0.05" />
<circle cx="3.86" cy="3.95" r="0.05" />
<circle cx="3.93" cy="5.08" r="0.05" />
<circle cx="4.01" cy="9.13" r="0.05" />
<circle cx="4.08" cy="9.13" r="0.05" />
<circle cx="4.16" cy="4.03" r="0.05" />
<circle cx="4.23" cy="5.28" r="0.05" />
<circle cx="4.31" cy="4.48" r="0.05" />
<circle cx="4.38" cy="5.72" r="0.05" />
<circle cx="4.45" cy="5.08" r="0.05" />
<circle cx="4.53" cy="5.21" r="0.05" />
<circle cx="4.60" cy="9.13" r="0.05" />
<circle cx="4.68" cy="9.13" r="0.05" />
<circle cx="4.75" cy="4.16" r="0.05" />
<circle cx="4.83" cy="5.28" r="0.05" />
<circle cx="4.90" cy="4.61" r="0.05" />
<circle cx="4.97" cy="5.72" r="0.05" />
<circle cx="5.05" cy="4.22" r="0.05" />
<circle cx="5.12" cy="5.34" r="0.05" />
<circle cx="5.20" cy="5.08" r="0.05" />
<circle cx="5.27" cy="9.13" r="0.05" />
<circle cx="5.35" cy="4.28" r="0.05" />
<circle cx="5.42" cy="9.13" r="0.05" />
<circle cx="5.49" cy="4.72" r="0.05" />
<circle cx="5.57" cy="5.83" r="0.05" />
<circle cx="5.64" cy="4.48" r="0.05" />
<circle cx="5.72" cy="5.45" r="0.05" />
<circle cx="5.79" cy="5.72" r="0.05" />
<circle cx="5.86" cy="6.69" r="0.05" />
<circle cx="5.94" cy="4.38" r="0.05" />
<circle cx="6.01" cy="5.50" r="0.05" />
<circle cx="6.09" cy="9.13" r="0.05" />
<circle cx="6.16" cy="9.13" r="0.05" />
<circle cx="6.24" cy="4.43" r="0.05" />
<circle cx="6.31" cy="5.55" r="0.05" />
<circle cx="6.38" cy="5.28" r="0.05" />
<circle cx="6.46" cy="6.38" r="0.05" />
<circle cx="6.53" cy="4.48" r="0.05" />
<circle cx="6.61" cy="5.72" r="0.05" />
<circle cx="6.68" cy="4.91" r="0.05" />
<circle cx="6.76" cy="9.13" r="0.05" />
<circle cx="6.83" cy="5.08" r="0.05" />
<circle cx="6.90" cy="5.63" r="0.05" />
<circle cx="6.98" cy="9.13" r="0.05" />
<circle cx="7.05" cy="9.13" r="0.05" />
<circle cx="7.13" cy="4.56" r="0.05" />
<circle cx="7.20" cy="9.13" r="0.05" />
<circle cx="7.28" cy="5.00" r="0.05" />
<circle cx="7.35" cy="6.10" r="0.05" />
<circle cx="7.42" cy="4.61" r="0.05" />
<circle cx="7.50" cy="5.72" r="0.05" />
<circle cx="7.57" cy="5.45" r="0.05" />
<circle cx="7.65" cy="9.13" r="0.05" />
<circle cx="7.72" cy="4.64" r="0.05" />
<circle cx="7.79" cy="6.69" r="0.05" />
<circle cx="7.87" cy="5.08" r="0.05" />
<circle cx="7.94" cy="9.13" r="0.05" />
<circle cx="8.02" cy="9.13" r="0.05" />
<circle cx="8.09" cy="9.13" r="0.05" />
<circle cx="8.17" cy="9.13" r="0.05" />
<circle cx="8.24" cy="9.13" r="0.05" />
<circle cx="8.31" cy="4.72" r="0.05" />
<circle cx="8.39" cy="5.83" r="0.05" />
<circle cx="8.46" cy="5.28" r="0.05" />
<circle cx="8.54" cy="6.25" r="0.05" />
<circle cx="8.61" cy="4.75" r="0.05" />
<circle cx="8.69" cy="5.86" r="0.05" />
<circle cx="8.76" cy="5.72" r="0.05" />
<circle cx="8.83" cy="6.69" r="0.05" />
<circle cx="8.91" cy="5.08" r="0.05" />
<circle cx="8.98" cy="9.13" r="0.05" />
<circle cx="9.06" cy="5.21" r="0.05" />
<circle cx="9.13" cy="6.44" r="0.05" />
<circle cx="9.21" cy="9.13" r="0.05" />
<circle cx="9.28" cy="9.13" r="0.05" />
<circle cx="9.35" cy="9.13" r="0.05" />
<circle cx="9.43" cy="8.38" r="0.05" />
<circle cx="9.50" cy="4.85" r="0.05" />
<circle cx="9.58" cy="9.13" r="0.05" />
<circle cx="9.65" cy="5.28" r="0.05" />
<circle cx="9.73" cy="6.38" r="0.05" />
<circle cx="9.80" cy="4.88" r="0.05" />
<circle cx="9.87" cy="5.99" r="0.05" />
<circle cx="9.95" cy="5.72" r="0.05" />
<circle cx="10.02" cy="6.82" r="0.05" />
<circle cx="10.10" cy="4.91" r="0.05" />
<circle cx="10.17" cy="9.13" r="0.05" />
<circle cx="10.24" cy="5.34" r="0.05" />
<circle cx="10.32" cy="6.44" r="0.05" />
<circle cx="10.39" cy="5.08" r="0.05" />
<circle cx="10.47" cy="6.05" r="0.05" />
<circle cx="10.54" cy="9.13" r="0.05" />
<circle cx="10.62" cy="9.13" r="0.05" />
<circle cx="10.69" cy="4.97" r="0.05" />
<circle cx="10.76" cy="9.13" r="0.05" />
<circle cx="10.84" cy="9.13" r="0.05" />
<circle cx="10.91" cy="9.13" r="0.05" />
<circle cx="10.99" cy="5.00" r="0.05" />
<circle cx="11.06" cy="6.10" r="0.05" />
<circle cx="11.14" cy="5.83" r="0.05" />
<circle cx="11.21" cy="6.93" r="0.05" />
<circle cx="11.28" cy="5.02" r="0.05" />
<circle cx="11.36" cy="6.25" r="0.05" />
<circle cx="11.43" cy="5.45" r="0.05" />
<circle cx="11.51" cy="9.13" r="0.05" />
<circle cx="11.58" cy="5.72" r="0.05" />
<circle cx="11.66" cy="6.16" r="0.05" />
<circle cx="11.73" cy="6.69" r="0.05" />
<circle cx="11.80" cy="9.13" r="0.05" />
<circle cx="11.88" cy="5.08" r="0.05" />
<circle cx="11.95" cy="9.13" r="0.05" />
<circle cx="12.03" cy="5.50" r="0.05" />
<circle cx="12.10" cy="6.60" r="0.05" />
<circle cx="12.18" cy="9.13" r="0.05" />
<circle cx="12.25" cy="9.13" r="0.05" />
<circle cx="12.32" cy="9.13" r="0.05" />
<circle cx="12.40" cy="9.13" r="0.05" />
<circle cx="12.47" cy="5.12" r="0.05" />
<circle cx="12.55" cy="8.38" r="0.05" />
<circle cx="12.62" cy="5.55" r="0.05" />
<circle cx="12.69" cy="9.13" r="0.05" />
<circle cx="12.77" cy="5.28" r="0.05" />
<circle cx="12.84" cy="6.25" r="0.05" />
<circle cx="12.92" cy="6.38" r="0.05" />
<circle cx="12.99" cy="9.13" r="0.05" />
<circle cx="13.07" cy="5.17" r="0.05" />
<circle cx="13.14" cy="6.28" r="0.05" />
<circle cx="13.21" cy="5.72" r="0.05" />
<circle cx="13.29" cy="6.69" r="0.05" />
<circle cx="13.36" cy="5.19" r="0.05" />
<circle cx="13.44" cy="6.30" r="0.05" />
<circle cx="13.51" cy="9.13" r="0.05" />
<circle cx="13.59" cy="9.13" r="0.05" />
<circle cx="13.66" cy="5.21" r="0.05" />
<circle cx="13.73" cy="6.44" r="0.05" />
<circle cx="13.81" cy="5.63" r="0.05" />
<circle cx="13.88" cy="6.86" r="0.05" />
<circle cx="13.96" cy="9.13" r="0.05" />
<circle cx="14.03" cy="9.13" r="0.05" />
<circle cx="14.11" cy="9.13" r="0.05" />
<circle cx="14.18" cy="8.38" r="0.05" />
<circle cx="14.25" cy="5.26" r="0.05" />
<circle cx="14.33" cy="9.13" r="0.05" />
<circle cx="14.40" cy="9.13" r="0.05" />
<circle cx="14.48" cy="9.13" r="0.05" />
<circle cx="14.55" cy="5.28" r="0.05" />
<circle cx="14.62" cy="6.38" r="0.05" />
<circle cx="14.70" cy="6.10" r="0.05" />
<circle cx="14.77" cy="9.13" r="0.05" />
<circle cx="14.85" cy="5.30" r="0.05" />
</g>
</svg>