<svg xmlns="http://www.w3.org/2000/svg" width="161.1" height="100.0" viewBox="-2.4 -5.0 171.1 110.0">
<g fill="none" stroke="black" stroke-width="1.1050%" transform="translate(0, 100.0000) scale(0.4525, -0.4525)">
<line x1="5.7" y1="0.0" x2="5.7" y2="1.0" />
<line x1="11.3" y1="0.0" x2="11.3" y2="1.0" />
<line x1="17.0" y1="0.0" x2="17.0" y2="1.0" />
<line x1="22.6" y1="0.0" x2="22.6" y2="1.0" />
<line x1="28.3" y1="0.0" x2="28.3" y2="1.0" />
<line x1="33.9" y1="0.0" x2="33.9" y2="1.0" />
<line x1="39.6" y1="0.0" x2="39.6" y2="1.0" />
<line x1="45.2" y1="0.0" x2="45.2" y2="3.0" />
<line x1="50.9" y1="0.0" x2="50.9" y2="1.0" />
<line x1="56.5" y1="0.0" x2="56.5" y2="1.0" />
<line x1="62.2" y1="0.0" x2="62.2" y2="1.0" />
<line x1="67.8" y1="0.0" x2="67.8" y2="1.0" />
<line x1="73.5" y1="0.0" x2="73.5" y2="3.0" />
<line x1="79.1" y1="0.0" x2="79.1" y2="5.0" />
<line x1="84.8" y1="0.0" x2="84.8" y2="5.0" />
<line x1="90.4" y1="0.0" x2="90.4" y2="1.0" />
<line x1="96.1" y1="0.0" x2="96.1" y2="1.0" />
<line x1="101.7" y1="0.0" x2="101.7" y2="1.0" />
<line x1="107.4" y1="0.0" x2="107.4" y2="1.0" />
<line x1="113.0" y1="0.0" x2="113.0" y2="3.0" />
<line x1="118.7" y1="0.0" x2="118.7" y2="5.0" />
<line x1="124.3" y1="0.0" x2="124.3" y2="9.0" />
<line x1="130.0" y1="0.0" x2="130.0" y2="13.0" />
<line x1="135.6" y1="0.0" x2="135.6" y2="11.0" />
<line x1="141.3" y1="0.0" x2="141.3" y2="1.0" />
<line x1="146.9" y1="0.0" x2="146.9" y2="1.0" />
<line x1="152.6" y1="0.0" x2="152.6" y2="1.0" />
<line x1="158.2" y1="0.0" x2="158.2" y2="1.0" />
<line x1="163.9" y1="0.0" x2="163.9" y2="3.0" />
<line x1="169.5" y1="0.0" x2="169.5" y2="5.0" />
<line x1="175.2" y1="0.0" x2="175.2" y2="9.0" />
<line x1="180.8" y1="0.0" x2="180.8" y2="17.0" />
<line x1="186.5" y1="0.0" x2="186.5" y2="27.0" />
<line x1="192.1" y1="0.0" x2="192.1" y2="33.0" />
<line x1="197.8" y1="0.0" x2="197.8" y2="25.0" />
<line x1="203.4" y1="0.0" x2="203.4" y2="1.0" />
<line x1="209.1" y1="0.0" x2="209.1" y2="1.0" />
<line x1="214.7" y1="0.0" x2="214.7" y2="1.0" />
<line x1="220.4" y1="0.0" x2="220.4" y2="1.0" />
<line x1="226.0" y1="0.0" x2="226.0" y2="3.0" />
<line x1="231.7" y1="0.0" x2="231.7" y2="5.0" />
<line x1="237.3" y1="0.0" x2="237.3" y2="9.0" />
<line x1="243.0" y1="0.0" x2="243.0" y2="17.0" />
<line x1="248.6" y1="0.0" x2="248.6" y2="31.0" />
<line x1="254.3" y1="0.0" x2="254.3" y2="53.0" />
<line x1="259.9" y1="0.0" x2="259.9" y2="77.0" />
<line x1="265.6" y1="0.0" x2="265.6" y2="85.0" />
<line x1="271.2" y1="0.0" x2="271.2" y2="59.0" />
<line x1="276.9" y1="0.0" x2="276.9" y2="1.0" />
<line x1="282.5" y1="0.0" x2="282.5" y2="1.0" />
<line x1="288.2" y1="0.0" x2="288.2" y2="1.0" />
<line x1="293.8" y1="0.0" x2="293.8" y2="1.0" />
<line x1="299.5" y1="0.0" x2="299.5" y2="3.0" />
<line x1="305.1" y1="0.0" x2="305.1" y2="5.0" />
<line x1="310.8" y1="0.0" x2="310.8" y2="9.0" />
<line x1="316.4" y1="0.0" x2="316.4" y2="17.0" />
<line x1="322.1" y1="0.0" x2="322.1" y2="31.0" />
<line x1="327.7" y1="0.0" x2="327.7" y2="57.0" />
<line x1="333.4" y1="0.0" x2="333.4" y2="101.0" />
<line x1="339.0" y1="0.0" x2="339.0" y2="161.0" />
<line x1="344.7" y1="0.0" x2="344.7" y2="215.0" />
<line x1="350.3" y1="0.0" x2="350.3" y2="221.0" />
<line x1="356.0" y1="0.0" x2="356.0" y2="145.0" />
<line x1="361.6" y1="0.0" x2="361.6" y2="1.0" />
</g>
</svg>