<svg xmlns="http://www.w3.org/2000/svg" width="161.8" height="100.0" viewBox="-4.4 -5.0 171.8 110.0">
<g fill="none" stroke="black" stroke-width="0.2300%" transform="translate(0, 100.0000) scale(2.1739, -2.1739)">
<circle cx="0.3" cy="0.0" r="0.2" />
<circle cx="0.6" cy="0.0" r="0.2" />
<circle cx="0.9" cy="2.0" r="0.2" />
<circle cx="1.2" cy="0.0" r="0.2" />
<circle cx="1.5" cy="1.0" r="0.2" />
<circle cx="1.8" cy="2.0" r="0.2" />
<circle cx="2.1" cy="5.0" r="0.2" />
<circle cx="2.4" cy="0.0" r="0.2" />
<circle cx="2.7" cy="6.0" r="0.2" />
<circle cx="3.0" cy="1.0" r="0.2" />
<circle cx="3.3" cy="4.0" r="0.2" />
<circle cx="3.6" cy="2.0" r="0.2" />
<circle cx="3.9" cy="2.0" r="0.2" />
<circle cx="4.2" cy="5.0" r="0.2" />
<circle cx="4.5" cy="5.0" r="0.2" />
<circle cx="4.8" cy="0.0" r="0.2" />
<circle cx="5.1" cy="3.0" r="0.2" />
<circle cx="5.4" cy="6.0" r="0.2" />
<circle cx="5.7" cy="6.0" r="0.2" />
<circle cx="6.0" cy="1.0" r="0.2" />
<circle cx="6.3" cy="1.0" r="0.2" />
<circle cx="6.6" cy="4.0" r="0.2" />
<circle cx="6.9" cy="4.0" r="0.2" />
<circle cx="7.2" cy="2.0" r="0.2" />
<circle cx="7.5" cy="7.0" r="0.2" />
<circle cx="7.8" cy="2.0" r="0.2" />
<circle cx="8.1" cy="41.0" r="0.2" />
<circle cx="8.4" cy="5.0" r="0.2" />
<circle cx="8.7" cy="5.0" r="0.2" />
<circle cx="9.0" cy="5.0" r="0.2" />
<circle cx="9.3" cy="39.0" r="0.2" />
<circle cx="9.6" cy="0.0" r="0.2" />
<circle cx="9.9" cy="8.0" r="0.2" />
<circle cx="10.2" cy="3.0" r="0.2" />
<circle cx="10.5" cy="3.0" r="0.2" />
<circle cx="10.8" cy="6.0" r="0.2" />
<circle cx="11.1" cy="6.0" r="0.2" />
<circle cx="11.4" cy="6.0" r="0.2" />
<circle cx="11.7" cy="11.0" r="0.2" />
<circle cx="12.0" cy="1.0" r="0.2" />
<circle cx="12.3" cy="40.0" r="0.2" />
<circle cx="12.6" cy="1.0" r="0.2" />
<circle cx="12.9" cy="9.0" r="0.2" />
<circle cx="13.2" cy="4.0" r="0.2" />
<circle cx="13.5" cy="4.0" r="0.2" />
<circle cx="13.8" cy="4.0" r="0.2" />
<circle cx="14.0" cy="38.0" r="0.2" />
<circle cx="14.3" cy="2.0" r="0.2" />
<circle cx="14.6" cy="7.0" r="0.2" />
<circle cx="14.9" cy="7.0" r="0.2" />
<circle cx="15.2" cy="7.0" r="0.2" />
<circle cx="15.5" cy="2.0" r="0.2" />
<circle cx="15.8" cy="2.0" r="0.2" />
<circle cx="16.1" cy="41.0" r="0.2" />
<circle cx="16.4" cy="41.0" r="0.2" />
<circle cx="16.7" cy="5.0" r="0.2" />
<circle cx="17.0" cy="10.0" r="0.2" />
<circle cx="17.3" cy="5.0" r="0.2" />
<circle cx="17.6" cy="10.0" r="0.2" />
<circle cx="17.9" cy="5.0" r="0.2" />
<circle cx="18.2" cy="5.0" r="0.2" />
<circle cx="18.5" cy="39.0" r="0.2" />
<circle cx="18.8" cy="39.0" r="0.2" />
<circle cx="19.1" cy="0.0" r="0.2" />
<circle cx="19.4" cy="8.0" r="0.2" />
<circle cx="19.7" cy="8.0" r="0.2" />
<circle cx="20.0" cy="8.0" r="0.2" />
<circle cx="20.3" cy="3.0" r="0.2" />
<circle cx="20.6" cy="3.0" r="0.2" />
<circle cx="20.9" cy="3.0" r="0.2" />
<circle cx="21.2" cy="37.0" r="0.2" />
<circle cx="21.5" cy="6.0" r="0.2" />
<circle cx="21.8" cy="42.0" r="0.2" />
<circle cx="22.1" cy="6.0" r="0.2" />
<circle cx="22.4" cy="3.0" r="0.2" />
<circle cx="22.7" cy="6.0" r="0.2" />
<circle cx="23.0" cy="6.0" r="0.2" />
<circle cx="23.3" cy="11.0" r="0.2" />
<circle cx="23.6" cy="11.0" r="0.2" />
<circle cx="23.9" cy="1.0" r="0.2" />
<circle cx="24.2" cy="6.0" r="0.2" />
<circle cx="24.5" cy="40.0" r="0.2" />
<circle cx="24.8" cy="40.0" r="0.2" />
<circle cx="25.1" cy="1.0" r="0.2" />
<circle cx="25.4" cy="1.0" r="0.2" />
<circle cx="25.7" cy="9.0" r="0.2" />
<circle cx="26.0" cy="9.0" r="0.2" />
<circle cx="26.3" cy="4.0" r="0.2" />
<circle cx="26.6" cy="9.0" r="0.2" />
<circle cx="26.9" cy="4.0" r="0.2" />
<circle cx="27.2" cy="33.0" r="0.2" />
<circle cx="27.5" cy="4.0" r="0.2" />
<circle cx="27.8" cy="4.0" r="0.2" />
<circle cx="28.1" cy="38.0" r="0.2" />
<circle cx="28.4" cy="38.0" r="0.2" />
<circle cx="28.7" cy="2.0" r="0.2" />
<circle cx="29.0" cy="43.0" r="0.2" />
<circle cx="29.3" cy="7.0" r="0.2" />
<circle cx="29.6" cy="7.0" r="0.2" />
<circle cx="29.9" cy="7.0" r="0.2" />
<circle cx="30.2" cy="7.0" r="0.2" />
<circle cx="30.5" cy="7.0" r="0.2" />
<circle cx="30.8" cy="31.0" r="0.2" />
<circle cx="31.1" cy="2.0" r="0.2" />
<circle cx="31.4" cy="12.0" r="0.2" />
<circle cx="31.7" cy="2.0" r="0.2" />
<circle cx="32.0" cy="36.0" r="0.2" />
<circle cx="32.3" cy="41.0" r="0.2" />
<circle cx="32.6" cy="41.0" r="0.2" />
<circle cx="32.9" cy="41.0" r="0.2" />
<circle cx="33.2" cy="24.0" r="0.2" />
<circle cx="33.5" cy="5.0" r="0.2" />
<circle cx="33.8" cy="2.0" r="0.2" />
<circle cx="34.1" cy="10.0" r="0.2" />
<circle cx="34.4" cy="10.0" r="0.2" />
<circle cx="34.7" cy="5.0" r="0.2" />
<circle cx="35.0" cy="5.0" r="0.2" />
<circle cx="35.3" cy="10.0" r="0.2" />
<circle cx="35.6" cy="10.0" r="0.2" />
<circle cx="35.9" cy="5.0" r="0.2" />
<circle cx="36.2" cy="34.0" r="0.2" />
<circle cx="36.5" cy="5.0" r="0.2" />
<circle cx="36.8" cy="15.0" r="0.2" />
<circle cx="37.1" cy="39.0" r="0.2" />
<circle cx="37.4" cy="39.0" r="0.2" />
<circle cx="37.7" cy="39.0" r="0.2" />
<circle cx="38.0" cy="15.0" r="0.2" />
<circle cx="38.3" cy="0.0" r="0.2" />
<circle cx="38.6" cy="44.0" r="0.2" />
<circle cx="38.9" cy="8.0" r="0.2" />
<circle cx="39.2" cy="8.0" r="0.2" />
<circle cx="39.5" cy="8.0" r="0.2" />
<circle cx="39.8" cy="8.0" r="0.2" />
<circle cx="40.1" cy="8.0" r="0.2" />
<circle cx="40.4" cy="13.0" r="0.2" />
<circle cx="40.7" cy="3.0" r="0.2" />
<circle cx="41.0" cy="32.0" r="0.2" />
<circle cx="41.3" cy="3.0" r="0.2" />
<circle cx="41.5" cy="13.0" r="0.2" />
<circle cx="41.8" cy="3.0" r="0.2" />
<circle cx="42.1" cy="3.0" r="0.2" />
<circle cx="42.4" cy="37.0" r="0.2" />
<circle cx="42.7" cy="37.0" r="0.2" />
<circle cx="43.0" cy="6.0" r="0.2" />
<circle cx="43.3" cy="42.0" r="0.2" />
<circle cx="43.6" cy="42.0" r="0.2" />
<circle cx="43.9" cy="42.0" r="0.2" />
<circle cx="44.2" cy="6.0" r="0.2" />
<circle cx="44.5" cy="6.0" r="0.2" />
<circle cx="44.8" cy="3.0" r="0.2" />
<circle cx="45.1" cy="3.0" r="0.2" />
<circle cx="45.4" cy="6.0" r="0.2" />
<circle cx="45.7" cy="11.0" r="0.2" />
<circle cx="46.0" cy="6.0" r="0.2" />
<circle cx="46.3" cy="30.0" r="0.2" />
<circle cx="46.6" cy="11.0" r="0.2" />
<circle cx="46.9" cy="11.0" r="0.2" />
<circle cx="47.2" cy="11.0" r="0.2" />
<circle cx="47.5" cy="18.0" r="0.2" />
<circle cx="47.8" cy="1.0" r="0.2" />
<circle cx="48.1" cy="35.0" r="0.2" />
<circle cx="48.4" cy="6.0" r="0.2" />
<circle cx="48.7" cy="6.0" r="0.2" />
<circle cx="49.0" cy="40.0" r="0.2" />
<circle cx="49.3" cy="40.0" r="0.2" />
<circle cx="49.6" cy="40.0" r="0.2" />
<circle cx="49.9" cy="23.0" r="0.2" />
<circle cx="50.2" cy="1.0" r="0.2" />
<circle cx="50.5" cy="16.0" r="0.2" />
<circle cx="50.8" cy="1.0" r="0.2" />
<circle cx="51.1" cy="45.0" r="0.2" />
<circle cx="51.4" cy="9.0" r="0.2" />
<circle cx="51.7" cy="9.0" r="0.2" />
<circle cx="52.0" cy="9.0" r="0.2" />
<circle cx="52.3" cy="28.0" r="0.2" />
<circle cx="52.6" cy="4.0" r="0.2" />
<circle cx="52.9" cy="9.0" r="0.2" />
<circle cx="53.2" cy="9.0" r="0.2" />
<circle cx="53.5" cy="9.0" r="0.2" />
<circle cx="53.8" cy="4.0" r="0.2" />
<circle cx="54.1" cy="4.0" r="0.2" />
<circle cx="54.4" cy="33.0" r="0.2" />
<circle cx="54.7" cy="33.0" r="0.2" />
<circle cx="55.0" cy="4.0" r="0.2" />
<circle cx="55.3" cy="14.0" r="0.2" />
<circle cx="55.6" cy="4.0" r="0.2" />
<circle cx="55.9" cy="14.0" r="0.2" />
<circle cx="56.2" cy="38.0" r="0.2" />
<circle cx="56.5" cy="38.0" r="0.2" />
<circle cx="56.8" cy="38.0" r="0.2" />
<circle cx="57.1" cy="14.0" r="0.2" />
<circle cx="57.4" cy="2.0" r="0.2" />
<circle cx="57.7" cy="43.0" r="0.2" />
<circle cx="58.0" cy="43.0" r="0.2" />
<circle cx="58.3" cy="43.0" r="0.2" />
<circle cx="58.6" cy="7.0" r="0.2" />
<circle cx="58.9" cy="7.0" r="0.2" />
<circle cx="59.2" cy="7.0" r="0.2" />
<circle cx="59.5" cy="43.0" r="0.2" />
<circle cx="59.8" cy="7.0" r="0.2" />
<circle cx="60.1" cy="4.0" r="0.2" />
<circle cx="60.4" cy="7.0" r="0.2" />
<circle cx="60.7" cy="12.0" r="0.2" />
<circle cx="61.0" cy="7.0" r="0.2" />
<circle cx="61.3" cy="7.0" r="0.2" />
<circle cx="61.6" cy="31.0" r="0.2" />
<circle cx="61.9" cy="31.0" r="0.2" />
<circle cx="62.2" cy="2.0" r="0.2" />
<circle cx="62.5" cy="12.0" r="0.2" />
<circle cx="62.8" cy="12.0" r="0.2" />
<circle cx="63.1" cy="12.0" r="0.2" />
<circle cx="63.4" cy="2.0" r="0.2" />
<circle cx="63.7" cy="2.0" r="0.2" />
<circle cx="64.0" cy="36.0" r="0.2" />
<circle cx="64.3" cy="36.0" r="0.2" />
<circle cx="64.6" cy="41.0" r="0.2" />
<circle cx="64.9" cy="7.0" r="0.2" />
<circle cx="65.2" cy="41.0" r="0.2" />
<circle cx="65.5" cy="17.0" r="0.2" />
<circle cx="65.8" cy="41.0" r="0.2" />
<circle cx="66.1" cy="41.0" r="0.2" />
<circle cx="66.4" cy="24.0" r="0.2" />
<circle cx="66.7" cy="24.0" r="0.2" />
<circle cx="67.0" cy="5.0" r="0.2" />
<circle cx="67.3" cy="17.0" r="0.2" />
<circle cx="67.6" cy="2.0" r="0.2" />
<circle cx="67.9" cy="2.0" r="0.2" />
<circle cx="68.2" cy="10.0" r="0.2" />
<circle cx="68.5" cy="10.0" r="0.2" />
<circle cx="68.8" cy="10.0" r="0.2" />
<circle cx="69.0" cy="46.0" r="0.2" />
<circle cx="69.3" cy="5.0" r="0.2" />
<circle cx="69.6" cy="29.0" r="0.2" />
<circle cx="69.9" cy="5.0" r="0.2" />
<circle cx="70.2" cy="46.0" r="0.2" />
<circle cx="70.5" cy="10.0" r="0.2" />
<circle cx="70.8" cy="10.0" r="0.2" />
<circle cx="71.1" cy="10.0" r="0.2" />
<circle cx="71.4" cy="17.0" r="0.2" />
<circle cx="71.7" cy="5.0" r="0.2" />
<circle cx="72.0" cy="5.0" r="0.2" />
<circle cx="72.3" cy="34.0" r="0.2" />
<circle cx="72.6" cy="34.0" r="0.2" />
<circle cx="72.9" cy="5.0" r="0.2" />
<circle cx="73.2" cy="5.0" r="0.2" />
<circle cx="73.5" cy="15.0" r="0.2" />
<circle cx="73.8" cy="15.0" r="0.2" />
<circle cx="74.1" cy="39.0" r="0.2" />
<circle cx="74.4" cy="15.0" r="0.2" />
<circle cx="74.7" cy="39.0" r="0.2" />
</g>
</svg>