<svg xmlns="http://www.w3.org/2000/svg" width="156" height="78" viewBox="0 0 156 78">
<g stroke="none" transform="translate(0, 0) scale(1, 1)">
<rect x="0" y="0" width="13" height="13" fill="rgb(255,127,14)"/>
<rect x="0" y="13" width="13" height="13" fill="rgb(255,127,14)"/>
<rect x="0" y="26" width="13" height="13" fill="rgb(255,127,14)"/>
<rect x="0" y="39" width="13" height="13" fill="rgb(255,127,14)"/>
<rect x="0" y="52" width="13" height="13" fill="rgb(255,127,14)"/>
<rect x="0" y="65" width="13" height="13" fill="rgb(255,127,14)"/>
<rect x="13" y="0" width="13" height="13" fill="rgb(148,103,189)"/>
<rect x="13" y="13" width="13" height="13" fill="rgb(148,103,189)"/>
<rect x="13" y="26" width="13" height="13" fill="rgb(148,103,189)"/>
<rect x="13" y="39" width="13" height="13" fill="rgb(148,103,189)"/>
<rect x="13" y="52" width="13" height="13" fill="rgb(148,103,189)"/>
<rect x="13" y="65" width="13" height="13" fill="rgb(148,103,189)"/>
<rect x="26" y="0" width="13" height="13" fill="rgb(44,160,44)"/>
<rect x="26" y="13" width="13" height="13" fill="rgb(44,160,44)"/>
<rect x="26" y="26" width="13" height="13" fill="rgb(44,160,44)"/>
<rect x="26" y="39" width="13" height="13" fill="rgb(44,160,44)"/>
<rect x="26" y="52" width="13" height="13" fill="rgb(44,160,44)"/>
<rect x="26" y="65" width="13" height="13" fill="rgb(44,160,44)"/>
<rect x="39" y="0" width="13" height="13" fill="rgb(188,189,34)"/>
<rect x="39" y="13" width="13" height="13" fill="rgb(188,189,34)"/>
<rect x="39" y="26" width="13" height="13" fill="rgb(188,189,34)"/>
<rect x="39" y="39" width="13" height="13" fill="rgb(188,189,34)"/>
<rect x="39" y="52" width="13" height="13" fill="rgb(188,189,34)"/>
<rect x="39" y="65" width="13" height="13" fill="rgb(188,189,34)"/>
<rect x="52" y="0" width="13" height="13" fill="rgb(140,86,75)"/>
<rect x="52" y="13" width="13" height="13" fill="rgb(140,86,75)"/>
<rect x="52" y="26" width="13" height="13" fill="rgb(140,86,75)"/>
<rect x="52" y="39" width="13" height="13" fill="rgb(140,86,75)"/>
<rect x="52" y="52" width="13" height="13" fill="rgb(140,86,75)"/>
<rect x="52" y="65" width="13" height="13" fill="rgb(140,86,75)"/>
<rect x="65" y="0" width="13" height="13" fill="rgb(127,127,127)"/>
<rect x="65" y="13" width="13" height="13" fill="rgb(127,127,127)"/>
<rect x="65" y="26" width="13" height="13" fill="rgb(127,127,127)"/>
<rect x="65" y="39" width="13" height="13" fill="rgb(127,127,127)"/>
<rect x="65" y="52" width="13" height="13" fill="rgb(127,127,127)"/>
<rect x="65" y="65" width="13" height="13" fill="rgb(127,127,127)"/>
<rect x="78" y="0" width="13" height="13" fill="rgb(255,127,14)"/>
<rect x="78" y="13" width="13" height="13" fill="rgb(255,127,14)"/>
<rect x="78" y="26" width="13" height="13" fill="rgb(255,127,14)"/>
<rect x="78" y="39" width="13" height="13" fill="rgb(255,127,14)"/>
<rect x="78" y="52" width="13" height="13" fill="rgb(255,127,14)"/>
<rect x="78" y="65" width="13" height="13" fill="rgb(255,127,14)"/>
<rect x="91" y="0" width="13" height="13" fill="rgb(148,103,189)"/>
<rect x="91" y="13" width="13" height="13" fill="rgb(148,103,189)"/>
<rect x="91" y="26" width="13" height="13" fill="rgb(148,103,189)"/>
<rect x="91" y="39" width="13" height="13" fill="rgb(148,103,189)"/>
<rect x="91" y="52" width="13" height="13" fill="rgb(148,103,189)"/>
<rect x="91" y="65" width="13" height="13" fill="rgb(148,103,189)"/>
<rect x="104" y="0" width="13" height="13" fill="rgb(44,160,44)"/>
<rect x="104" y="13" width="13" height="13" fill="rgb(44,160,44)"/>
<rect x="104" y="26" width="13" height="13" fill="rgb(44,160,44)"/>
<rect x="104" y="39" width="13" height="13" fill="rgb(44,160,44)"/>
<rect x="104" y="52" width="13" height="13" fill="rgb(44,160,44)"/>
<rect x="104" y="65" width="13" height="13" fill="rgb(44,160,44)"/>
<rect x="117" y="0" width="13" height="13" fill="rgb(188,189,34)"/>
<rect x="117" y="13" width="13" height="13" fill="rgb(188,189,34)"/>
<rect x="117" y="26" width="13" height="13" fill="rgb(188,189,34)"/>
<rect x="117" y="39" width="13" height="13" fill="rgb(188,189,34)"/>
<rect x="117" y="52" width="13" height="13" fill="rgb(188,189,34)"/>
<rect x="117" y="65" width="13" height="13" fill="rgb(188,189,34)"/>
<rect x="130" y="0" width="13" height="13" fill="rgb(140,86,75)"/>
<rect x="130" y="13" width="13" height="13" fill="rgb(140,86,75)"/>
<rect x="130" y="26" width="13" height="13" fill="rgb(140,86,75)"/>
<rect x="130" y="39" width="13" height="13" fill="rgb(140,86,75)"/>
<rect x="130" y="52" width="13" height="13" fill="rgb(140,86,75)"/>
<rect x="130" y="65" width="13" height="13" fill="rgb(140,86,75)"/>
<rect x="143" y="0" width="13" height="13" fill="rgb(127,127,127)"/>
<rect x="143" y="13" width="13" height="13" fill="rgb(127,127,127)"/>
<rect x="143" y="26" width="13" height="13" fill="rgb(127,127,127)"/>
<rect x="143" y="39" width="13" height="13" fill="rgb(127,127,127)"/>
<rect x="143" y="52" width="13" height="13" fill="rgb(127,127,127)"/>
<rect x="143" y="65" width="13" height="13" fill="rgb(127,127,127)"/>
</g>
</svg>