<svg xmlns="http://www.w3.org/2000/svg" width="160" height="24" viewBox="0 0 160 24">
<rect x="0" y="0" width="8" height="8" fill="rgb(120,27,134)"/>
<rect x="0" y="8" width="8" height="8" fill="rgb(120,27,134)"/>
<rect x="0" y="16" width="8" height="8" fill="rgb(120,27,134)"/>
<rect x="8" y="0" width="8" height="8" fill="rgb(120,27,134)"/>
<rect x="8" y="8" width="8" height="8" fill="rgb(72,42,181)"/>
<rect x="8" y="16" width="8" height="8" fill="rgb(120,27,134)"/>
<rect x="16" y="0" width="8" height="8" fill="rgb(72,42,181)"/>
<rect x="16" y="8" width="8" height="8" fill="rgb(72,42,181)"/>
<rect x="16" y="16" width="8" height="8" fill="rgb(72,42,181)"/>
<rect x="24" y="0" width="8" height="8" fill="rgb(62,88,207)"/>
<rect x="24" y="8" width="8" height="8" fill="rgb(72,42,181)"/>
<rect x="24" y="16" width="8" height="8" fill="rgb(219,33,33)"/>
<rect x="32" y="0" width="8" height="8" fill="rgb(62,88,207)"/>
<rect x="32" y="8" width="8" height="8" fill="rgb(62,88,207)"/>
<rect x="32" y="16" width="8" height="8" fill="rgb(219,33,33)"/>
<rect x="40" y="0" width="8" height="8" fill="rgb(62,88,207)"/>
<rect x="40" y="8" width="8" height="8" fill="rgb(62,88,207)"/>
<rect x="40" y="16" width="8" height="8" fill="rgb(219,33,33)"/>
<rect x="48" y="0" width="8" height="8" fill="rgb(71,132,200)"/>
<rect x="48" y="8" width="8" height="8" fill="rgb(71,132,200)"/>
<rect x="48" y="16" width="8" height="8" fill="rgb(219,33,33)"/>
<rect x="56" y="0" width="8" height="8" fill="rgb(71,132,200)"/>
<rect x="56" y="8" width="8" height="8" fill="rgb(230,145,54)"/>
<rect x="56" y="16" width="8" height="8" fill="rgb(219,33,33)"/>
<rect x="64" y="0" width="8" height="8" fill="rgb(71,132,200)"/>
<rect x="64" y="8" width="8" height="8" fill="rgb(230,145,54)"/>
<rect x="64" y="16" width="8" height="8" fill="rgb(230,145,54)"/>
<rect x="72" y="0" width="8" height="8" fill="rgb(71,132,200)"/>
<rect x="72" y="8" width="8" height="8" fill="rgb(89,164,170)"/>
<rect x="72" y="16" width="8" height="8" fill="rgb(230,145,54)"/>
<rect x="80" y="0" width="8" height="8" fill="rgb(89,164,170)"/>
<rect x="80" y="8" width="8" height="8" fill="rgb(89,164,170)"/>
<rect x="80" y="16" width="8" height="8" fill="rgb(230,145,54)"/>
<rect x="88" y="0" width="8" height="8" fill="rgb(116,182,130)"/>
<rect x="88" y="8" width="8" height="8" fill="rgb(89,164,170)"/>
<rect x="88" y="16" width="8" height="8" fill="rgb(89,164,170)"/>
<rect x="96" y="0" width="8" height="8" fill="rgb(116,182,130)"/>
<rect x="96" y="8" width="8" height="8" fill="rgb(116,182,130)"/>
<rect x="96" y="16" width="8" height="8" fill="rgb(116,182,130)"/>
<rect x="104" y="0" width="8" height="8" fill="rgb(116,182,130)"/>
<rect x="104" y="8" width="8" height="8" fill="rgb(147,189,98)"/>
<rect x="104" y="16" width="8" height="8" fill="rgb(147,189,98)"/>
<rect x="112" y="0" width="8" height="8" fill="rgb(147,189,98)"/>
<rect x="112" y="8" width="8" height="8" fill="rgb(147,189,98)"/>
<rect x="112" y="16" width="8" height="8" fill="rgb(227,93,44)"/>
<rect x="120" y="0" width="8" height="8" fill="rgb(147,189,98)"/>
<rect x="120" y="8" width="8" height="8" fill="rgb(227,93,44)"/>
<rect x="120" y="16" width="8" height="8" fill="rgb(227,93,44)"/>
<rect x="128" y="0" width="8" height="8" fill="rgb(184,188,74)"/>
<rect x="128" y="8" width="8" height="8" fill="rgb(184,188,74)"/>
<rect x="128" y="16" width="8" height="8" fill="rgb(227,93,44)"/>
<rect x="136" y="0" width="8" height="8" fill="rgb(215,175,62)"/>
<rect x="136" y="8" width="8" height="8" fill="rgb(184,188,74)"/>
<rect x="136" y="16" width="8" height="8" fill="rgb(227,93,44)"/>
<rect x="144" y="0" width="8" height="8" fill="rgb(215,175,62)"/>
<rect x="144" y="8" width="8" height="8" fill="rgb(184,188,74)"/>
<rect x="144" y="16" width="8" height="8" fill="rgb(184,188,74)"/>
<rect x="152" y="0" width="8" height="8" fill="rgb(215,175,62)"/>
<rect x="152" y="8" width="8" height="8" fill="rgb(215,175,62)"/>
<rect x="152" y="16" width="8" height="8" fill="rgb(215,175,62)"/>
</svg>