<svg xmlns="http://www.w3.org/2000/svg" width="100.0" height="100.0" viewBox="-55.00 -55.00 110.00 110.00">
<g fill="none" stroke="black" stroke-width="0.0200%" transform="translate(0, 0.0000) scale(25.0000, -25.0000)">
<polyline points="1.04,2.00 1.04,1.96 1.04,1.87 1.04,1.83 1.03,1.81 1.00,1.79 0.92,1.76 0.91,1.76 0.91,1.74 0.87,1.67 0.87,1.63 0.87,1.54 0.88,1.50 0.86,1.47 0.83,1.46 0.75,1.42 0.74,1.42 0.75,1.41 0.71,1.33 0.71,1.29 0.71,1.21 0.71,1.17 0.70,1.14 0.67,1.12 0.59,1.09 0.58,1.09 0.58,1.08 0.54,1.00 0.53,0.97 0.50,0.96 0.42,0.92 0.41,0.93 0.41,0.91 0.37,0.83 0.37,0.79 0.37,0.71 0.37,0.67 0.36,0.64 0.33,0.63 0.25,0.59 0.25,0.59 0.25,0.58 0.21,0.50 0.21,0.46 0.21,0.37 0.21,0.33 0.19,0.31 0.17,0.29 0.08,0.25 0.08,0.25 0.08,0.25 0.04,0.17 0.03,0.14 0.00,0.13 -0.03,0.14 -0.04,0.17 -0.08,0.25 -0.08,0.25 -0.08,0.25 -0.17,0.29 -0.19,0.31 -0.21,0.33 -0.21,0.37 -0.21,0.46 -0.21,0.50 -0.24,0.58 -0.24,0.59 -0.26,0.59 -0.33,0.63 -0.36,0.64 -0.38,0.67 -0.37,0.71 -0.36,0.80 -0.36,0.83 -0.37,0.87 -0.34,1.00 -0.34,1.00 -0.34,1.01 -0.33,1.03 -0.28,1.11 -0.24,1.17 -0.23,1.23 -0.20,1.30 -0.19,1.33 -0.18,1.35 -0.17,1.43 -0.15,1.49 -0.15,1.50 -0.14,1.52 -0.13,1.63 -0.12,1.67 -0.11,1.72 -0.11,1.77 -0.10,1.83 -0.09,1.91 -0.09,1.92 -0.08,2.00" />
<polyline points="1.12,2.00 1.12,1.96 1.13,1.87 1.13,1.83 1.09,1.75 1.09,1.75 1.08,1.75 1.00,1.71 0.97,1.69 0.96,1.67 0.96,1.63 0.96,1.54 0.96,1.50 0.92,1.42 0.92,1.41 0.91,1.41 0.83,1.37 0.81,1.36 0.79,1.33 0.79,1.29 0.80,1.20 0.80,1.17 0.76,1.09 0.76,1.07 0.74,1.07 0.67,1.04 0.64,1.03 0.63,1.00 0.59,0.92 0.59,0.91 0.58,0.91 0.50,0.88 0.47,0.86 0.46,0.83 0.46,0.79 0.46,0.71 0.46,0.67 0.42,0.59 0.42,0.58 0.41,0.58 0.33,0.54 0.31,0.53 0.29,0.50 0.29,0.46 0.29,0.37 0.29,0.33 0.25,0.25 0.25,0.25 0.25,0.25 0.17,0.21 0.14,0.19 0.13,0.17 0.08,0.08 0.08,0.08 0.08,0.08 0.00,0.04 -0.08,0.08 -0.08,0.08 -0.08,0.08 -0.13,0.17 -0.14,0.19 -0.17,0.21 -0.25,0.25 -0.25,0.25 -0.25,0.25 -0.29,0.33 -0.29,0.37 -0.29,0.46 -0.29,0.50 -0.31,0.53 -0.33,0.54 -0.41,0.58 -0.43,0.57 -0.43,0.59 -0.47,0.67 -0.46,0.70 -0.47,0.80 -0.46,0.83 -0.47,0.86 -0.50,0.89 -0.55,0.89 -0.64,0.83 -0.65,0.82 -0.67,0.80 -0.71,0.79 -0.80,0.80 -0.83,0.79 -0.87,0.79 -0.98,0.81 -1.00,0.82 -1.02,0.82 -1.07,0.83 -1.15,0.85 -1.17,0.86 -1.21,0.87 -1.27,0.89 -1.33,0.92 -1.39,0.94 -1.48,0.98 -1.50,0.99 -1.51,0.99 -1.53,1.00 -1.63,1.04 -1.67,1.06 -1.74,1.09 -1.78,1.12 -1.83,1.14 -1.85,1.15 -1.89,1.17 -1.96,1.20 -2.00,1.23" />
<polyline points="2.00,1.08 1.95,1.05 1.88,1.00 1.85,0.98 1.83,0.97 1.75,0.91 1.73,0.90 1.67,0.85 1.66,0.84 1.64,0.83 1.56,0.77 1.50,0.73 1.47,0.70 1.43,0.67 1.38,0.62 1.33,0.59 1.29,0.54 1.25,0.50 1.21,0.46 1.17,0.42 1.13,0.37 1.12,0.33 1.07,0.26 1.06,0.23 1.03,0.17 1.02,0.15 1.00,0.00 0.88,-0.04 0.83,-0.05 0.79,-0.04 0.71,-0.04 0.67,-0.04 0.62,-0.04 0.54,-0.04 0.50,-0.04 0.46,-0.04 0.38,-0.04 0.33,-0.04 0.29,-0.04 0.21,-0.04 0.17,-0.04 0.08,-0.08 0.04,-0.17 0.08,-0.25 0.08,-0.25 0.08,-0.25 0.17,-0.29 0.19,-0.31 0.21,-0.33 0.21,-0.37 0.21,-0.46 0.21,-0.50 0.25,-0.58 0.25,-0.59 0.25,-0.59 0.33,-0.63 0.36,-0.64 0.37,-0.67 0.37,-0.71 0.37,-0.79 0.37,-0.83 0.41,-0.91 0.41,-0.93 0.42,-0.92 0.50,-0.96 0.53,-0.97 0.54,-1.00 0.58,-1.08 0.58,-1.09 0.59,-1.09 0.67,-1.12 0.70,-1.14 0.71,-1.17 0.71,-1.21 0.71,-1.29 0.71,-1.33 0.75,-1.41 0.74,-1.42 0.75,-1.42 0.83,-1.46 0.86,-1.47 0.88,-1.50 0.87,-1.54 0.87,-1.63 0.87,-1.67 0.91,-1.74 0.91,-1.76 0.92,-1.76 1.00,-1.79 1.03,-1.81 1.04,-1.83 1.04,-1.87 1.04,-1.96 1.04,-2.00" />
<polyline points="-2.00,-0.13 -1.96,-0.13 -1.87,-0.13 -1.83,-0.13 -1.80,-0.13 -1.70,-0.13 -1.67,-0.13 -1.63,-0.13 -1.54,-0.13 -1.50,-0.13 -1.46,-0.13 -1.37,-0.13 -1.33,-0.13 -1.30,-0.13 -1.20,-0.13 -1.17,-0.13 -1.13,-0.13 -1.04,-0.13 -1.00,-0.13 -0.96,-0.13 -0.87,-0.13 -0.83,-0.13 -0.80,-0.13 -0.70,-0.13 -0.67,-0.13 -0.63,-0.13 -0.54,-0.13 -0.50,-0.13 -0.46,-0.13 -0.37,-0.13 -0.33,-0.13 -0.29,-0.13 -0.21,-0.13 -0.17,-0.13 -0.14,-0.14 -0.13,-0.17 -0.14,-0.19 -0.17,-0.21 -0.25,-0.25 -0.25,-0.25 -0.25,-0.25 -0.29,-0.33 -0.29,-0.37 -0.29,-0.46 -0.29,-0.50 -0.31,-0.53 -0.33,-0.54 -0.41,-0.58 -0.43,-0.57 -0.43,-0.59 -0.47,-0.67 -0.46,-0.70 -0.47,-0.80 -0.46,-0.83 -0.47,-0.86 -0.50,-0.89 -0.55,-0.89 -0.64,-0.83 -0.65,-0.82 -0.67,-0.80 -0.71,-0.79 -0.80,-0.80 -0.83,-0.79 -0.87,-0.79 -0.98,-0.81 -1.00,-0.82 -1.02,-0.82 -1.07,-0.83 -1.15,-0.85 -1.17,-0.86 -1.21,-0.87 -1.27,-0.89 -1.33,-0.92 -1.39,-0.94 -1.48,-0.98 -1.50,-0.99 -1.51,-0.99 -1.53,-1.00 -1.63,-1.04 -1.67,-1.06 -1.74,-1.09 -1.78,-1.12 -1.83,-1.14 -1.85,-1.15 -1.89,-1.17 -1.96,-1.20 -2.00,-1.23" />
<polyline points="-2.00,-0.04 -1.96,-0.04 -1.88,-0.04 -1.83,-0.04 -1.79,-0.04 -1.71,-0.04 -1.67,-0.04 -1.62,-0.04 -1.54,-0.04 -1.50,-0.04 -1.46,-0.04 -1.38,-0.04 -1.33,-0.04 -1.29,-0.04 -1.21,-0.04 -1.17,-0.04 -1.12,-0.04 -1.04,-0.04 -1.00,-0.04 -0.96,-0.04 -0.88,-0.04 -0.83,-0.04 -0.79,-0.04 -0.71,-0.04 -0.67,-0.04 -0.62,-0.04 -0.54,-0.04 -0.50,-0.04 -0.46,-0.04 -0.38,-0.04 -0.33,-0.04 -0.29,-0.04 -0.21,-0.04 -0.17,-0.04 -0.08,-0.08 -0.04,-0.17 -0.08,-0.25 -0.08,-0.25 -0.08,-0.25 -0.17,-0.29 -0.19,-0.31 -0.21,-0.33 -0.21,-0.37 -0.21,-0.46 -0.21,-0.50 -0.24,-0.58 -0.24,-0.59 -0.26,-0.59 -0.33,-0.63 -0.36,-0.64 -0.38,-0.67 -0.37,-0.71 -0.36,-0.80 -0.36,-0.83 -0.37,-0.87 -0.34,-1.00 -0.34,-1.00 -0.34,-1.01 -0.33,-1.03 -0.28,-1.11 -0.24,-1.17 -0.23,-1.23 -0.20,-1.30 -0.19,-1.33 -0.18,-1.35 -0.17,-1.43 -0.15,-1.49 -0.15,-1.50 -0.14,-1.52 -0.13,-1.63 -0.12,-1.67 -0.11,-1.72 -0.11,-1.77 -0.10,-1.83 -0.09,-1.91 -0.09,-1.92 -0.08,-2.00" />
<polyline points="2.00,-1.08 1.95,-1.05 1.88,-1.00 1.85,-0.98 1.83,-0.97 1.75,-0.91 1.73,-0.90 1.67,-0.85 1.66,-0.84 1.64,-0.83 1.56,-0.77 1.50,-0.73 1.47,-0.70 1.43,-0.67 1.38,-0.62 1.33,-0.59 1.29,-0.54 1.25,-0.50 1.21,-0.46 1.17,-0.42 1.13,-0.37 1.12,-0.33 1.07,-0.26 1.06,-0.23 1.03,-0.17 1.01,-0.16 1.00,-0.16 0.99,-0.16 0.86,-0.14 0.83,-0.14 0.80,-0.14 0.70,-0.13 0.67,-0.13 0.63,-0.13 0.54,-0.13 0.50,-0.13 0.46,-0.13 0.37,-0.13 0.33,-0.13 0.29,-0.13 0.21,-0.13 0.17,-0.13 0.14,-0.14 0.13,-0.17 0.14,-0.19 0.17,-0.21 0.25,-0.25 0.25,-0.25 0.25,-0.25 0.29,-0.33 0.29,-0.37 0.29,-0.46 0.29,-0.50 0.31,-0.53 0.33,-0.54 0.41,-0.58 0.42,-0.58 0.42,-0.59 0.46,-0.67 0.46,-0.71 0.46,-0.79 0.46,-0.83 0.47,-0.86 0.50,-0.88 0.58,-0.91 0.59,-0.91 0.59,-0.92 0.63,-1.00 0.64,-1.03 0.67,-1.04 0.74,-1.07 0.76,-1.07 0.76,-1.09 0.80,-1.17 0.80,-1.20 0.79,-1.29 0.79,-1.33 0.81,-1.36 0.83,-1.37 0.91,-1.41 0.92,-1.41 0.92,-1.42 0.96,-1.50 0.96,-1.54 0.96,-1.63 0.96,-1.67 0.97,-1.69 1.00,-1.71 1.08,-1.75 1.09,-1.75 1.09,-1.75 1.13,-1.83 1.13,-1.87 1.12,-1.96 1.12,-2.00" />
</g>
</svg>