<?xml version="1.0" encoding="UTF-8" standalone="no"?>
<!DOCTYPE svg PUBLIC "-//W3C//DTD SVG 1.1//EN"
 "http://www.w3.org/Graphics/SVG/1.1/DTD/svg11.dtd">
<!-- Generated by graphviz version 12.0.0 (0)
 -->
<!-- Pages: 1 -->
<svg width="69pt" height="54pt"
 viewBox="0.00 0.00 68.58 54.00" xmlns="http://www.w3.org/2000/svg" xmlns:xlink="http://www.w3.org/1999/xlink">
<g id="graph0" class="graph" transform="scale(0.41411 0.41411) rotate(0) translate(4 126.4)">
<!-- 1 -->
<g id="node1" class="node">
<title>1</title>
<ellipse fill="black" stroke="black" cx="78.8" cy="-120.6" rx="1.8" ry="1.8"/>
</g>
<!-- 2 -->
<g id="node2" class="node">
<title>2</title>
<ellipse fill="black" stroke="black" cx="56.8" cy="-81" rx="1.8" ry="1.8"/>
</g>
<!-- 1&#45;&gt;2 -->
<g id="edge1" class="edge">
<title>1&#45;&gt;2</title>
<path fill="none" stroke="black" stroke-width="0.75" d="M78.26,-118.67C75.81,-114.49 65.71,-97.22 60.28,-87.95"/>
<polygon fill="black" stroke="black" stroke-width="0.75" points="61.86,-87.18 57.82,-83.75 58.84,-88.95 61.86,-87.18"/>
</g>
<!-- 9 -->
<g id="node9" class="node">
<title>9</title>
<ellipse fill="black" stroke="black" cx="100.8" cy="-81" rx="1.8" ry="1.8"/>
</g>
<!-- 1&#45;&gt;9 -->
<g id="edge2" class="edge">
<title>1&#45;&gt;9</title>
<path fill="none" stroke="black" stroke-width="0.75" d="M79.34,-118.67C81.79,-114.49 91.89,-97.22 97.32,-87.95"/>
<polygon fill="black" stroke="black" stroke-width="0.75" points="98.76,-88.95 99.78,-83.75 95.74,-87.18 98.76,-88.95"/>
</g>
<!-- 3 -->
<g id="node3" class="node">
<title>3</title>
<ellipse fill="black" stroke="black" cx="23.8" cy="-41.4" rx="1.8" ry="1.8"/>
</g>
<!-- 2&#45;&gt;3 -->
<g id="edge3" class="edge">
<title>2&#45;&gt;3</title>
<path fill="none" stroke="black" stroke-width="0.75" d="M55.98,-79.07C52.17,-74.73 35.95,-56.25 28.1,-47.3"/>
<polygon fill="black" stroke="black" stroke-width="0.75" points="29.84,-46.62 25.22,-44.02 27.21,-48.93 29.84,-46.62"/>
</g>
<!-- 6 -->
<g id="node6" class="node">
<title>6</title>
<ellipse fill="black" stroke="black" cx="56.8" cy="-41.4" rx="1.8" ry="1.8"/>
</g>
<!-- 2&#45;&gt;6 -->
<g id="edge4" class="edge">
<title>2&#45;&gt;6</title>
<path fill="none" stroke="black" stroke-width="0.75" d="M56.8,-78.75C56.8,-74.29 56.8,-58.94 56.8,-49.67"/>
<polygon fill="black" stroke="black" stroke-width="0.75" points="58.55,-49.83 56.8,-44.83 55.05,-49.83 58.55,-49.83"/>
</g>
<!-- 4 -->
<g id="node4" class="node">
<title>4</title>
<ellipse fill="black" stroke="black" cx="1.8" cy="-1.8" rx="1.8" ry="1.8"/>
</g>
<!-- 3&#45;&gt;4 -->
<g id="edge5" class="edge">
<title>3&#45;&gt;4</title>
<path fill="none" stroke="black" stroke-width="0.75" d="M23.26,-39.47C20.81,-35.29 10.71,-18.02 5.28,-8.75"/>
<polygon fill="black" stroke="black" stroke-width="0.75" points="6.86,-7.98 2.82,-4.55 3.84,-9.75 6.86,-7.98"/>
</g>
<!-- 5 -->
<g id="node5" class="node">
<title>5</title>
<ellipse fill="black" stroke="black" cx="23.8" cy="-1.8" rx="1.8" ry="1.8"/>
</g>
<!-- 3&#45;&gt;5 -->
<g id="edge6" class="edge">
<title>3&#45;&gt;5</title>
<path fill="none" stroke="black" stroke-width="0.75" d="M23.8,-39.15C23.8,-34.69 23.8,-19.34 23.8,-10.07"/>
<polygon fill="black" stroke="black" stroke-width="0.75" points="25.55,-10.23 23.8,-5.23 22.05,-10.23 25.55,-10.23"/>
</g>
<!-- 7 -->
<g id="node7" class="node">
<title>7</title>
<ellipse fill="black" stroke="black" cx="45.8" cy="-1.8" rx="1.8" ry="1.8"/>
</g>
<!-- 6&#45;&gt;7 -->
<g id="edge7" class="edge">
<title>6&#45;&gt;7</title>
<path fill="none" stroke="black" stroke-width="0.75" d="M56.43,-39.15C55.1,-34.58 50.41,-18.56 47.73,-9.38"/>
<polygon fill="black" stroke="black" stroke-width="0.75" points="49.42,-8.94 46.34,-4.63 46.06,-9.92 49.42,-8.94"/>
</g>
<!-- 8 -->
<g id="node8" class="node">
<title>8</title>
<ellipse fill="black" stroke="black" cx="67.8" cy="-1.8" rx="1.8" ry="1.8"/>
</g>
<!-- 6&#45;&gt;8 -->
<g id="edge8" class="edge">
<title>6&#45;&gt;8</title>
<path fill="none" stroke="black" stroke-width="0.75" d="M57.17,-39.15C58.5,-34.58 63.19,-18.56 65.87,-9.38"/>
<polygon fill="black" stroke="black" stroke-width="0.75" points="67.54,-9.92 67.26,-4.63 64.18,-8.94 67.54,-9.92"/>
</g>
<!-- 10 -->
<g id="node10" class="node">
<title>10</title>
<ellipse fill="black" stroke="black" cx="100.8" cy="-41.4" rx="1.8" ry="1.8"/>
</g>
<!-- 9&#45;&gt;10 -->
<g id="edge9" class="edge">
<title>9&#45;&gt;10</title>
<path fill="none" stroke="black" stroke-width="0.75" d="M100.8,-78.75C100.8,-74.29 100.8,-58.94 100.8,-49.67"/>
<polygon fill="black" stroke="black" stroke-width="0.75" points="102.55,-49.83 100.8,-44.83 99.05,-49.83 102.55,-49.83"/>
</g>
<!-- 13 -->
<g id="node13" class="node">
<title>13</title>
<ellipse fill="black" stroke="black" cx="133.8" cy="-41.4" rx="1.8" ry="1.8"/>
</g>
<!-- 9&#45;&gt;13 -->
<g id="edge10" class="edge">
<title>9&#45;&gt;13</title>
<path fill="none" stroke="black" stroke-width="0.75" d="M101.62,-79.07C105.43,-74.73 121.65,-56.25 129.5,-47.3"/>
<polygon fill="black" stroke="black" stroke-width="0.75" points="130.39,-48.93 132.38,-44.02 127.76,-46.62 130.39,-48.93"/>
</g>
<!-- 11 -->
<g id="node11" class="node">
<title>11</title>
<ellipse fill="black" stroke="black" cx="89.8" cy="-1.8" rx="1.8" ry="1.8"/>
</g>
<!-- 10&#45;&gt;11 -->
<g id="edge11" class="edge">
<title>10&#45;&gt;11</title>
<path fill="none" stroke="black" stroke-width="0.75" d="M100.43,-39.15C99.1,-34.58 94.41,-18.56 91.73,-9.38"/>
<polygon fill="black" stroke="black" stroke-width="0.75" points="93.42,-8.94 90.34,-4.63 90.06,-9.92 93.42,-8.94"/>
</g>
<!-- 12 -->
<g id="node12" class="node">
<title>12</title>
<ellipse fill="black" stroke="black" cx="111.8" cy="-1.8" rx="1.8" ry="1.8"/>
</g>
<!-- 10&#45;&gt;12 -->
<g id="edge12" class="edge">
<title>10&#45;&gt;12</title>
<path fill="none" stroke="black" stroke-width="0.75" d="M101.17,-39.15C102.5,-34.58 107.19,-18.56 109.87,-9.38"/>
<polygon fill="black" stroke="black" stroke-width="0.75" points="111.54,-9.92 111.26,-4.63 108.18,-8.94 111.54,-9.92"/>
</g>
<!-- 14 -->
<g id="node14" class="node">
<title>14</title>
<ellipse fill="black" stroke="black" cx="133.8" cy="-1.8" rx="1.8" ry="1.8"/>
</g>
<!-- 13&#45;&gt;14 -->
<g id="edge13" class="edge">
<title>13&#45;&gt;14</title>
<path fill="none" stroke="black" stroke-width="0.75" d="M133.8,-39.15C133.8,-34.69 133.8,-19.34 133.8,-10.07"/>
<polygon fill="black" stroke="black" stroke-width="0.75" points="135.55,-10.23 133.8,-5.23 132.05,-10.23 135.55,-10.23"/>
</g>
<!-- 15 -->
<g id="node15" class="node">
<title>15</title>
<ellipse fill="black" stroke="black" cx="155.8" cy="-1.8" rx="1.8" ry="1.8"/>
</g>
<!-- 13&#45;&gt;15 -->
<g id="edge14" class="edge">
<title>13&#45;&gt;15</title>
<path fill="none" stroke="black" stroke-width="0.75" d="M134.34,-39.47C136.79,-35.29 146.89,-18.02 152.32,-8.75"/>
<polygon fill="black" stroke="black" stroke-width="0.75" points="153.76,-9.75 154.78,-4.55 150.74,-7.98 153.76,-9.75"/>
</g>
</g>
</svg>
