<svg xmlns="http://www.w3.org/2000/svg" width="161.8" height="100.0" viewBox="-74.34 -55.00 171.80 110.00">
<g fill="none" stroke="black" stroke-width="0.0510%" transform="translate(0, 0.0000) scale(9.8111, -9.8111)">
<circle cx="-7.07" cy="0.00" r="0.05" />
<circle cx="0.00" cy="5.10" r="0.05" />
<polyline points="1.90,-3.60 1.79,-3.00 1.66,-2.50 1.52,-2.08 1.37,-1.71 1.21,-1.38 1.04,-1.10 0.86,-0.84 0.67,-0.61 0.47,-0.40 0.26,-0.21 0.05,-0.04 -0.18,0.12 -0.40,0.27 -0.64,0.40 -0.88,0.52 -1.12,0.62 -1.37,0.72 -1.62,0.80 -1.87,0.88 -2.12,0.95 -2.38,1.00 -2.63,1.05 -2.89,1.09 -3.14,1.13 -3.39,1.15 -3.63,1.17 -3.88,1.18 -4.12,1.18 -4.35,1.18 -4.58,1.16 -4.80,1.15 -5.01,1.12 -5.22,1.09 -5.42,1.06 -5.60,1.02 -5.78,0.97 -5.95,0.93 -6.11,0.87 -6.26,0.81 -6.40,0.75 -6.52,0.69 -6.64,0.62 -6.74,0.55 -6.82,0.47 -6.90,0.40 -6.96,0.32 -7.01,0.24 -7.04,0.16 -7.06,0.08 -7.07,0.00 -7.06,-0.08 -7.04,-0.16 -7.01,-0.24 -6.96,-0.32 -6.90,-0.40 -6.82,-0.47 -6.74,-0.55 -6.64,-0.62 -6.52,-0.69 -6.40,-0.75 -6.26,-0.81 -6.11,-0.87 -5.95,-0.93 -5.78,-0.97 -5.60,-1.02 -5.42,-1.06 -5.22,-1.09 -5.01,-1.12 -4.80,-1.15 -4.58,-1.16 -4.35,-1.18 -4.12,-1.18 -3.88,-1.18 -3.63,-1.17 -3.39,-1.15 -3.14,-1.13 -2.89,-1.09 -2.63,-1.05 -2.38,-1.00 -2.12,-0.95 -1.87,-0.88 -1.62,-0.80 -1.37,-0.72 -1.12,-0.62 -0.88,-0.52 -0.64,-0.40 -0.40,-0.27 -0.18,-0.12 0.05,0.04 0.26,0.21 0.47,0.40 0.67,0.61 0.86,0.84 1.04,1.10 1.21,1.38 1.37,1.71 1.52,2.08 1.66,2.50 1.79,3.00 1.90,3.60" />
<polyline points="2.02,-3.81 1.93,-3.24 1.84,-2.76 1.73,-2.36 1.62,-2.01 1.50,-1.71 1.37,-1.44 1.23,-1.21 1.09,-0.99 0.94,-0.80 0.79,-0.62 0.62,-0.47 0.46,-0.32 0.29,-0.19 0.11,-0.07 -0.07,0.04 -0.25,0.14 -0.44,0.23 -0.62,0.31 -0.81,0.38 -1.00,0.45 -1.19,0.50 -1.39,0.55 -1.58,0.60 -1.76,0.63 -1.95,0.66 -2.14,0.69 -2.32,0.70 -2.50,0.72 -2.67,0.72 -2.84,0.72 -3.01,0.72 -3.17,0.71 -3.32,0.70 -3.47,0.68 -3.61,0.66 -3.75,0.63 -3.88,0.60 -4.00,0.57 -4.11,0.53 -4.21,0.49 -4.30,0.45 -4.39,0.41 -4.46,0.36 -4.53,0.31 -4.58,0.26 -4.63,0.21 -4.67,0.16 -4.69,0.11 -4.71,0.05 -4.71,0.00 -4.71,-0.05 -4.69,-0.11 -4.67,-0.16 -4.63,-0.21 -4.58,-0.26 -4.53,-0.31 -4.46,-0.36 -4.39,-0.41 -4.30,-0.45 -4.21,-0.49 -4.11,-0.53 -4.00,-0.57 -3.88,-0.60 -3.75,-0.63 -3.61,-0.66 -3.47,-0.68 -3.32,-0.70 -3.17,-0.71 -3.01,-0.72 -2.84,-0.72 -2.67,-0.72 -2.50,-0.72 -2.32,-0.70 -2.14,-0.69 -1.95,-0.66 -1.76,-0.63 -1.58,-0.60 -1.39,-0.55 -1.19,-0.50 -1.00,-0.45 -0.81,-0.38 -0.62,-0.31 -0.44,-0.23 -0.25,-0.14 -0.07,-0.04 0.11,0.07 0.29,0.19 0.46,0.32 0.62,0.47 0.79,0.62 0.94,0.80 1.09,0.99 1.23,1.21 1.37,1.44 1.50,1.71 1.62,2.01 1.73,2.36 1.84,2.76 1.93,3.24 2.02,3.81" />
<polyline points="2.13,-4.03 2.07,-3.48 2.01,-3.02 1.94,-2.64 1.86,-2.32 1.78,-2.04 1.70,-1.79 1.61,-1.57 1.51,-1.38 1.41,-1.20 1.31,-1.04 1.20,-0.90 1.09,-0.76 0.98,-0.64 0.86,-0.53 0.74,-0.43 0.62,-0.34 0.49,-0.26 0.37,-0.18 0.24,-0.11 0.12,-0.05 -0.01,0.00 -0.14,0.06 -0.27,0.10 -0.39,0.14 -0.52,0.18 -0.64,0.21 -0.76,0.23 -0.88,0.25 -1.00,0.27 -1.11,0.28 -1.22,0.29 -1.33,0.30 -1.43,0.30 -1.53,0.30 -1.62,0.30 -1.71,0.29 -1.80,0.28 -1.88,0.27 -1.95,0.25 -2.02,0.24 -2.08,0.22 -2.14,0.20 -2.19,0.18 -2.23,0.15 -2.27,0.13 -2.30,0.11 -2.33,0.08 -2.34,0.05 -2.35,0.03 -2.36,0.00 -2.35,-0.03 -2.34,-0.05 -2.33,-0.08 -2.30,-0.11 -2.27,-0.13 -2.23,-0.15 -2.19,-0.18 -2.14,-0.20 -2.08,-0.22 -2.02,-0.24 -1.95,-0.25 -1.88,-0.27 -1.80,-0.28 -1.71,-0.29 -1.62,-0.30 -1.53,-0.30 -1.43,-0.30 -1.33,-0.30 -1.22,-0.29 -1.11,-0.28 -1.00,-0.27 -0.88,-0.25 -0.76,-0.23 -0.64,-0.21 -0.52,-0.18 -0.39,-0.14 -0.27,-0.10 -0.14,-0.06 -0.01,-0.00 0.12,0.05 0.24,0.11 0.37,0.18 0.49,0.26 0.62,0.34 0.74,0.43 0.86,0.53 0.98,0.64 1.09,0.76 1.20,0.90 1.31,1.04 1.41,1.20 1.51,1.38 1.61,1.57 1.70,1.79 1.78,2.04 1.86,2.32 1.94,2.64 2.01,3.02 2.07,3.48 2.13,4.03" />
<polyline points="2.24,-4.24 2.21,-3.71 2.18,-3.29 2.15,-2.93 2.11,-2.63 2.07,-2.36 2.03,-2.14 1.98,-1.94 1.93,-1.76 1.88,-1.60 1.83,-1.46 1.78,-1.33 1.72,-1.21 1.67,-1.10 1.61,-1.00 1.55,-0.91 1.49,-0.83 1.42,-0.75 1.36,-0.68 1.30,-0.61 1.24,-0.55 1.17,-0.50 1.11,-0.44 1.05,-0.40 0.98,-0.35 0.92,-0.31 0.86,-0.28 0.80,-0.24 0.74,-0.21 0.68,-0.18 0.62,-0.16 0.57,-0.14 0.51,-0.12 0.46,-0.10 0.41,-0.08 0.37,-0.07 0.32,-0.05 0.28,-0.04 0.24,-0.03 0.20,-0.03 0.17,-0.02 0.14,-0.01 0.11,-0.01 0.08,-0.01 0.06,-0.00 0.04,-0.00 0.03,-0.00 0.02,-0.00 0.01,-0.00 0.00,-0.00 0.00,0.00 0.00,0.00 0.01,0.00 0.02,0.00 0.03,0.00 0.04,0.00 0.06,0.00 0.08,0.01 0.11,0.01 0.14,0.01 0.17,0.02 0.20,0.03 0.24,0.03 0.28,0.04 0.32,0.05 0.37,0.07 0.41,0.08 0.46,0.10 0.51,0.12 0.57,0.14 0.62,0.16 0.68,0.18 0.74,0.21 0.80,0.24 0.86,0.28 0.92,0.31 0.98,0.35 1.05,0.40 1.11,0.44 1.17,0.50 1.24,0.55 1.30,0.61 1.36,0.68 1.42,0.75 1.49,0.83 1.55,0.91 1.61,1.00 1.67,1.10 1.72,1.21 1.78,1.33 1.83,1.46 1.88,1.60 1.93,1.76 1.98,1.94 2.03,2.14 2.07,2.36 2.11,2.63 2.15,2.93 2.18,3.29 2.21,3.71 2.24,4.24" />
<polyline points="2.30,-4.35 2.29,-3.83 2.27,-3.42 2.25,-3.07 2.23,-2.78 2.21,-2.53 2.19,-2.31 2.17,-2.12 2.15,-1.95 2.12,-1.80 2.09,-1.66 2.07,-1.54 2.04,-1.43 2.01,-1.33 1.98,-1.23 1.95,-1.15 1.92,-1.07 1.89,-0.99 1.86,-0.92 1.83,-0.86 1.80,-0.80 1.76,-0.75 1.73,-0.69 1.70,-0.64 1.67,-0.60 1.64,-0.56 1.61,-0.52 1.58,-0.48 1.55,-0.44 1.52,-0.41 1.49,-0.38 1.46,-0.35 1.44,-0.32 1.41,-0.30 1.38,-0.27 1.36,-0.25 1.34,-0.23 1.32,-0.20 1.30,-0.18 1.28,-0.17 1.26,-0.15 1.25,-0.13 1.23,-0.11 1.22,-0.10 1.21,-0.08 1.20,-0.07 1.19,-0.05 1.19,-0.04 1.18,-0.03 1.18,-0.01 1.18,-0.00 1.18,0.01 1.18,0.03 1.19,0.04 1.19,0.05 1.20,0.07 1.21,0.08 1.22,0.10 1.23,0.11 1.25,0.13 1.26,0.15 1.28,0.17 1.30,0.18 1.32,0.20 1.34,0.23 1.36,0.25 1.38,0.27 1.41,0.30 1.44,0.32 1.46,0.35 1.49,0.38 1.52,0.41 1.55,0.44 1.58,0.48 1.61,0.52 1.64,0.56 1.67,0.60 1.70,0.64 1.73,0.69 1.76,0.75 1.80,0.80 1.83,0.86 1.86,0.92 1.89,0.99 1.92,1.07 1.95,1.15 1.98,1.23 2.01,1.33 2.04,1.43 2.07,1.54 2.09,1.66 2.12,1.80 2.15,1.95 2.17,2.12 2.19,2.31 2.21,2.53 2.23,2.78 2.25,3.07 2.27,3.42 2.29,3.83 2.30,4.35" />
<polyline points="2.36,-4.46 2.36,-3.95 2.36,-3.55 2.36,-3.21 2.36,-2.93 2.36,-2.69 2.36,-2.48 2.36,-2.30 2.36,-2.14 2.36,-2.00 2.36,-1.87 2.36,-1.76 2.36,-1.65 2.36,-1.55 2.36,-1.47 2.36,-1.38 2.36,-1.31 2.36,-1.24 2.36,-1.17 2.36,-1.11 2.36,-1.05 2.36,-1.00 2.36,-0.94 2.36,-0.89 2.36,-0.85 2.36,-0.80 2.36,-0.76 2.36,-0.72 2.36,-0.68 2.36,-0.64 2.36,-0.60 2.36,-0.56 2.36,-0.53 2.36,-0.49 2.36,-0.46 2.36,-0.43 2.36,-0.40 2.36,-0.37 2.36,-0.34 2.36,-0.31 2.36,-0.28 2.36,-0.25 2.36,-0.22 2.36,-0.19 2.36,-0.16 2.36,-0.14 2.36,-0.11 2.36,-0.08 2.36,-0.05 2.36,-0.03 2.36,-0.00 2.36,0.03 2.36,0.05 2.36,0.08 2.36,0.11 2.36,0.14 2.36,0.16 2.36,0.19 2.36,0.22 2.36,0.25 2.36,0.28 2.36,0.31 2.36,0.34 2.36,0.37 2.36,0.40 2.36,0.43 2.36,0.46 2.36,0.49 2.36,0.53 2.36,0.56 2.36,0.60 2.36,0.64 2.36,0.68 2.36,0.72 2.36,0.76 2.36,0.80 2.36,0.85 2.36,0.89 2.36,0.94 2.36,1.00 2.36,1.05 2.36,1.11 2.36,1.17 2.36,1.24 2.36,1.31 2.36,1.38 2.36,1.47 2.36,1.55 2.36,1.65 2.36,1.76 2.36,1.87 2.36,2.00 2.36,2.14 2.36,2.30 2.36,2.48 2.36,2.69 2.36,2.93 2.36,3.21 2.36,3.55 2.36,3.95 2.36,4.46" />
<polyline points="2.47,-4.67 2.50,-4.19 2.53,-3.81 2.56,-3.50 2.60,-3.24 2.64,-3.02 2.68,-2.83 2.73,-2.67 2.78,-2.53 2.83,-2.40 2.88,-2.29 2.93,-2.19 2.99,-2.09 3.05,-2.01 3.10,-1.93 3.16,-1.86 3.23,-1.79 3.29,-1.73 3.35,-1.66 3.41,-1.61 3.48,-1.55 3.54,-1.50 3.60,-1.44 3.67,-1.39 3.73,-1.34 3.79,-1.29 3.85,-1.24 3.91,-1.19 3.97,-1.14 4.03,-1.09 4.09,-1.04 4.14,-0.99 4.20,-0.94 4.25,-0.89 4.30,-0.84 4.35,-0.79 4.39,-0.74 4.43,-0.69 4.47,-0.64 4.51,-0.59 4.54,-0.53 4.58,-0.48 4.60,-0.43 4.63,-0.38 4.65,-0.32 4.67,-0.27 4.68,-0.22 4.70,-0.16 4.71,-0.11 4.71,-0.05 4.71,-0.00 4.71,0.05 4.71,0.11 4.70,0.16 4.68,0.22 4.67,0.27 4.65,0.32 4.63,0.38 4.60,0.43 4.58,0.48 4.54,0.53 4.51,0.59 4.47,0.64 4.43,0.69 4.39,0.74 4.35,0.79 4.30,0.84 4.25,0.89 4.20,0.94 4.14,0.99 4.09,1.04 4.03,1.09 3.97,1.14 3.91,1.19 3.85,1.24 3.79,1.29 3.73,1.34 3.67,1.39 3.60,1.44 3.54,1.50 3.48,1.55 3.41,1.61 3.35,1.66 3.29,1.73 3.23,1.79 3.16,1.86 3.10,1.93 3.05,2.01 2.99,2.09 2.93,2.19 2.88,2.29 2.83,2.40 2.78,2.53 2.73,2.67 2.68,2.83 2.64,3.02 2.60,3.24 2.56,3.50 2.53,3.81 2.50,4.19 2.47,4.67" />
<polyline points="2.58,-4.88 2.64,-4.43 2.70,-4.07 2.77,-3.78 2.85,-3.54 2.93,-3.34 3.01,-3.18 3.10,-3.03 3.20,-2.91 3.30,-2.80 3.40,-2.70 3.51,-2.62 3.62,-2.54 3.74,-2.46 3.85,-2.40 3.97,-2.33 4.09,-2.27 4.22,-2.21 4.34,-2.16 4.47,-2.10 4.60,-2.05 4.72,-2.00 4.85,-1.94 4.98,-1.89 5.10,-1.83 5.23,-1.78 5.35,-1.72 5.47,-1.66 5.59,-1.60 5.71,-1.54 5.82,-1.48 5.93,-1.42 6.04,-1.35 6.14,-1.29 6.24,-1.22 6.34,-1.15 6.43,-1.08 6.51,-1.01 6.59,-0.94 6.66,-0.87 6.73,-0.79 6.80,-0.71 6.85,-0.64 6.90,-0.56 6.95,-0.48 6.98,-0.40 7.01,-0.32 7.04,-0.24 7.05,-0.16 7.06,-0.08 7.07,-0.00 7.06,0.08 7.05,0.16 7.04,0.24 7.01,0.32 6.98,0.40 6.95,0.48 6.90,0.56 6.85,0.64 6.80,0.71 6.73,0.79 6.66,0.87 6.59,0.94 6.51,1.01 6.43,1.08 6.34,1.15 6.24,1.22 6.14,1.29 6.04,1.35 5.93,1.42 5.82,1.48 5.71,1.54 5.59,1.60 5.47,1.66 5.35,1.72 5.23,1.78 5.10,1.83 4.98,1.89 4.85,1.94 4.72,2.00 4.60,2.05 4.47,2.10 4.34,2.16 4.22,2.21 4.09,2.27 3.97,2.33 3.85,2.40 3.74,2.46 3.62,2.54 3.51,2.62 3.40,2.70 3.30,2.80 3.20,2.91 3.10,3.03 3.01,3.18 2.93,3.34 2.85,3.54 2.77,3.78 2.70,4.07 2.64,4.43 2.58,4.88" />
<polyline points="2.70,-5.10 2.78,-4.67 2.88,-4.33 2.98,-4.06 3.09,-3.85 3.21,-3.67 3.34,-3.52 3.48,-3.40 3.62,-3.29 3.77,-3.20 3.93,-3.12 4.09,-3.05 4.25,-2.98 4.43,-2.92 4.60,-2.86 4.78,-2.81 4.96,-2.76 5.15,-2.70 5.34,-2.65 5.53,-2.60 5.72,-2.55 5.91,-2.50 6.10,-2.44 6.29,-2.38 6.48,-2.32 6.66,-2.26 6.85,-2.20 7.03,-2.14 7.21,-2.07 7.38,-2.00 7.56,-1.92 7.72,-1.85 7.88,-1.77 8.04,-1.69 8.18,-1.60 8.33,-1.52 8.46,-1.43 8.59,-1.33 8.71,-1.24 8.82,-1.15 8.92,-1.05 9.01,-0.95 9.10,-0.85 9.17,-0.74 9.24,-0.64 9.30,-0.54 9.34,-0.43 9.38,-0.32 9.40,-0.22 9.42,-0.11 9.42,-0.00 9.42,0.11 9.40,0.22 9.38,0.32 9.34,0.43 9.30,0.54 9.24,0.64 9.17,0.74 9.10,0.85 9.01,0.95 8.92,1.05 8.82,1.15 8.71,1.24 8.59,1.33 8.46,1.43 8.33,1.52 8.18,1.60 8.04,1.69 7.88,1.77 7.72,1.85 7.56,1.92 7.38,2.00 7.21,2.07 7.03,2.14 6.85,2.20 6.66,2.26 6.48,2.32 6.29,2.38 6.10,2.44 5.91,2.50 5.72,2.55 5.53,2.60 5.34,2.65 5.15,2.70 4.96,2.76 4.78,2.81 4.60,2.86 4.43,2.92 4.25,2.98 4.09,3.05 3.93,3.12 3.77,3.20 3.62,3.29 3.48,3.40 3.34,3.52 3.21,3.67 3.09,3.85 2.98,4.06 2.88,4.33 2.78,4.67 2.70,5.10" />
</g>
</svg>