<svg xmlns="http://www.w3.org/2000/svg" width="100.0" height="100.0" viewBox="-71.67 -38.33 110.00 110.00">
<g fill="none" stroke="black" stroke-width="0.1200%" transform="translate(0, 33.3333) scale(4.1667, -4.1667)">
<circle cx="-16.00" cy="0.00" r="0.12" />
<circle cx="0.00" cy="16.00" r="0.12" />
<polyline points="0.00,0.00 0.00,-0.00 0.00,-0.00 0.00,-0.02 0.00,-0.04 0.00,-0.07 0.00,-0.13 0.00,-0.20 0.00,-0.30 0.00,-0.42 0.00,-0.58 0.00,-0.77 0.00,-1.00 0.00,-1.27 0.00,-1.59 0.00,-1.95 0.00,-2.37 0.00,-2.84 0.00,-3.38 0.00,-3.97 0.00,-4.63 0.00,-5.36 0.00,-6.16 0.00,-7.04 0.00,-8.00" />
<polyline points="0.04,0.00 0.03,0.03 0.01,0.05 -0.03,0.07 -0.07,0.07 -0.14,0.07 -0.21,0.04 -0.30,-0.00 -0.41,-0.07 -0.53,-0.17 -0.66,-0.30 -0.80,-0.46 -0.96,-0.67 -1.14,-0.91 -1.32,-1.20 -1.53,-1.54 -1.74,-1.93 -1.97,-2.37 -2.21,-2.87 -2.47,-3.44 -2.74,-4.07 -3.03,-4.78 -3.32,-5.55 -3.64,-6.40 -3.96,-7.33" />
<polyline points="0.30,0.00 0.28,0.11 0.24,0.22 0.17,0.32 0.07,0.41 -0.05,0.48 -0.20,0.54 -0.38,0.58 -0.59,0.59 -0.83,0.58 -1.09,0.53 -1.38,0.45 -1.70,0.33 -2.05,0.17 -2.43,-0.03 -2.83,-0.29 -3.26,-0.59 -3.72,-0.95 -4.20,-1.38 -4.72,-1.86 -5.26,-2.41 -5.83,-3.03 -6.43,-3.72 -7.05,-4.49 -7.70,-5.33" />
<polyline points="1.00,0.00 0.98,0.25 0.92,0.50 0.81,0.73 0.67,0.96 0.48,1.18 0.25,1.38 -0.02,1.55 -0.33,1.70 -0.69,1.83 -1.08,1.92 -1.52,1.98 -2.00,2.00 -2.52,1.98 -3.08,1.91 -3.69,1.80 -4.33,1.63 -5.02,1.41 -5.75,1.13 -6.52,0.78 -7.33,0.37 -8.19,-0.11 -9.08,-0.66 -10.02,-1.29 -11.00,-2.00" />
<polyline points="2.37,0.00 2.34,0.44 2.26,0.88 2.12,1.32 1.93,1.74 1.68,2.15 1.37,2.54 1.01,2.91 0.59,3.26 0.12,3.58 -0.41,3.87 -0.99,4.12 -1.63,4.33 -2.32,4.51 -3.07,4.63 -3.88,4.71 -4.74,4.74 -5.66,4.71 -6.63,4.63 -7.66,4.48 -8.74,4.26 -9.88,3.97 -11.07,3.62 -12.32,3.18 -13.63,2.67" />
<polyline points="4.63,0.00 4.59,0.69 4.49,1.38 4.32,2.07 4.07,2.74 3.76,3.40 3.38,4.04 2.93,4.66 2.41,5.26 1.82,5.83 1.16,6.37 0.43,6.87 -0.37,7.33 -1.24,7.76 -2.18,8.13 -3.18,8.46 -4.26,8.74 -5.41,8.96 -6.62,9.12 -7.91,9.23 -9.26,9.26 -10.68,9.22 -12.18,9.12 -13.74,8.93 -15.37,8.67" />
<polyline points="8.00,0.00 7.96,1.00 7.83,2.00 7.63,2.98 7.33,3.96 6.96,4.93 6.50,5.88 5.96,6.80 5.33,7.70 4.63,8.58 3.83,9.42 2.96,10.23 2.00,11.00 0.96,11.73 -0.17,12.41 -1.38,13.05 -2.67,13.63 -4.04,14.16 -5.50,14.63 -7.04,15.03 -8.67,15.37 -10.38,15.64 -12.17,15.84 -14.04,15.96 -16.00,16.00" />
<polyline points="0.00,0.00 0.00,0.00 0.00,0.00 0.02,0.00 0.04,0.00 0.07,0.00 0.13,0.00 0.20,0.00 0.30,0.00 0.42,0.00 0.58,0.00 0.77,0.00 1.00,0.00 1.27,0.00 1.59,0.00 1.95,0.00 2.37,0.00 2.84,0.00 3.38,0.00 3.97,0.00 4.63,0.00 5.36,0.00 6.16,0.00 7.04,0.00 8.00,0.00" />
<polyline points="0.00,-0.04 -0.03,-0.03 -0.05,-0.01 -0.07,0.03 -0.07,0.07 -0.07,0.14 -0.04,0.21 0.00,0.30 0.07,0.41 0.17,0.53 0.30,0.66 0.46,0.80 0.67,0.96 0.91,1.14 1.20,1.32 1.54,1.53 1.93,1.74 2.37,1.97 2.87,2.21 3.44,2.47 4.07,2.74 4.78,3.03 5.55,3.32 6.40,3.64 7.33,3.96" />
<polyline points="0.00,-0.30 -0.11,-0.28 -0.22,-0.24 -0.32,-0.17 -0.41,-0.07 -0.48,0.05 -0.54,0.20 -0.58,0.38 -0.59,0.59 -0.58,0.83 -0.53,1.09 -0.45,1.38 -0.33,1.70 -0.17,2.05 0.03,2.43 0.29,2.83 0.59,3.26 0.95,3.72 1.38,4.20 1.86,4.72 2.41,5.26 3.03,5.83 3.72,6.43 4.49,7.05 5.33,7.70" />
<polyline points="0.00,-1.00 -0.25,-0.98 -0.50,-0.92 -0.73,-0.81 -0.96,-0.67 -1.18,-0.48 -1.38,-0.25 -1.55,0.02 -1.70,0.33 -1.83,0.69 -1.92,1.08 -1.98,1.52 -2.00,2.00 -1.98,2.52 -1.91,3.08 -1.80,3.69 -1.63,4.33 -1.41,5.02 -1.13,5.75 -0.78,6.52 -0.37,7.33 0.11,8.19 0.66,9.08 1.29,10.02 2.00,11.00" />
<polyline points="0.00,-2.37 -0.44,-2.34 -0.88,-2.26 -1.32,-2.12 -1.74,-1.93 -2.15,-1.68 -2.54,-1.37 -2.91,-1.01 -3.26,-0.59 -3.58,-0.12 -3.87,0.41 -4.12,0.99 -4.33,1.63 -4.51,2.32 -4.63,3.07 -4.71,3.88 -4.74,4.74 -4.71,5.66 -4.63,6.63 -4.48,7.66 -4.26,8.74 -3.97,9.88 -3.62,11.07 -3.18,12.32 -2.67,13.63" />
<polyline points="0.00,-4.63 -0.69,-4.59 -1.38,-4.49 -2.07,-4.32 -2.74,-4.07 -3.40,-3.76 -4.04,-3.38 -4.66,-2.93 -5.26,-2.41 -5.83,-1.82 -6.37,-1.16 -6.87,-0.43 -7.33,0.37 -7.76,1.24 -8.13,2.18 -8.46,3.18 -8.74,4.26 -8.96,5.41 -9.12,6.62 -9.23,7.91 -9.26,9.26 -9.22,10.68 -9.12,12.18 -8.93,13.74 -8.67,15.37" />
<polyline points="0.00,-8.00 -1.00,-7.96 -2.00,-7.83 -2.98,-7.63 -3.96,-7.33 -4.93,-6.96 -5.88,-6.50 -6.80,-5.96 -7.70,-5.33 -8.58,-4.63 -9.42,-3.83 -10.23,-2.96 -11.00,-2.00 -11.73,-0.96 -12.41,0.17 -13.05,1.38 -13.63,2.67 -14.16,4.04 -14.63,5.50 -15.03,7.04 -15.37,8.67 -15.64,10.38 -15.84,12.17 -15.96,14.04 -16.00,16.00" />
</g>
</svg>