<svg xmlns="http://www.w3.org/2000/svg" width="160.2" height="100.0" viewBox="-2.0 -5.0 170.2 110.0">
<g fill="none" stroke="black" stroke-width="0.5000%" transform="translate(0, 100.0000) scale(1.0000, -1.0000)">
<line x1="3.0" y1="0.0" x2="3.0" y2="1.0" />
<line x1="5.9" y1="0.0" x2="5.9" y2="2.0" />
<line x1="8.9" y1="0.0" x2="8.9" y2="4.0" />
<line x1="11.9" y1="0.0" x2="11.9" y2="5.0" />
<line x1="14.8" y1="0.0" x2="14.8" y2="7.0" />
<line x1="17.8" y1="0.0" x2="17.8" y2="9.0" />
<line x1="20.8" y1="0.0" x2="20.8" y2="10.0" />
<line x1="23.7" y1="0.0" x2="23.7" y2="12.0" />
<line x1="26.7" y1="0.0" x2="26.7" y2="14.0" />
<line x1="29.7" y1="0.0" x2="29.7" y2="16.0" />
<line x1="32.6" y1="0.0" x2="32.6" y2="17.0" />
<line x1="35.6" y1="0.0" x2="35.6" y2="19.0" />
<line x1="38.6" y1="0.0" x2="38.6" y2="21.0" />
<line x1="41.5" y1="0.0" x2="41.5" y2="23.0" />
<line x1="44.5" y1="0.0" x2="44.5" y2="25.0" />
<line x1="47.5" y1="0.0" x2="47.5" y2="26.0" />
<line x1="50.4" y1="0.0" x2="50.4" y2="28.0" />
<line x1="53.4" y1="0.0" x2="53.4" y2="30.0" />
<line x1="56.4" y1="0.0" x2="56.4" y2="32.0" />
<line x1="59.3" y1="0.0" x2="59.3" y2="34.0" />
<line x1="62.3" y1="0.0" x2="62.3" y2="36.0" />
<line x1="65.3" y1="0.0" x2="65.3" y2="37.0" />
<line x1="68.2" y1="0.0" x2="68.2" y2="39.0" />
<line x1="71.2" y1="0.0" x2="71.2" y2="41.0" />
<line x1="74.2" y1="0.0" x2="74.2" y2="43.0" />
<line x1="77.1" y1="0.0" x2="77.1" y2="45.0" />
<line x1="80.1" y1="0.0" x2="80.1" y2="47.0" />
<line x1="83.1" y1="0.0" x2="83.1" y2="49.0" />
<line x1="86.0" y1="0.0" x2="86.0" y2="50.0" />
<line x1="89.0" y1="0.0" x2="89.0" y2="52.0" />
<line x1="92.0" y1="0.0" x2="92.0" y2="54.0" />
<line x1="94.9" y1="0.0" x2="94.9" y2="56.0" />
<line x1="97.9" y1="0.0" x2="97.9" y2="58.0" />
<line x1="100.9" y1="0.0" x2="100.9" y2="60.0" />
<line x1="103.8" y1="0.0" x2="103.8" y2="62.0" />
<line x1="106.8" y1="0.0" x2="106.8" y2="64.0" />
<line x1="109.8" y1="0.0" x2="109.8" y2="65.0" />
<line x1="112.7" y1="0.0" x2="112.7" y2="67.0" />
<line x1="115.7" y1="0.0" x2="115.7" y2="69.0" />
<line x1="118.7" y1="0.0" x2="118.7" y2="71.0" />
<line x1="121.6" y1="0.0" x2="121.6" y2="73.0" />
<line x1="124.6" y1="0.0" x2="124.6" y2="75.0" />
<line x1="127.6" y1="0.0" x2="127.6" y2="77.0" />
<line x1="130.5" y1="0.0" x2="130.5" y2="79.0" />
<line x1="133.5" y1="0.0" x2="133.5" y2="81.0" />
<line x1="136.5" y1="0.0" x2="136.5" y2="82.0" />
<line x1="139.4" y1="0.0" x2="139.4" y2="84.0" />
<line x1="142.4" y1="0.0" x2="142.4" y2="86.0" />
<line x1="145.4" y1="0.0" x2="145.4" y2="88.0" />
<line x1="148.3" y1="0.0" x2="148.3" y2="90.0" />
<line x1="151.3" y1="0.0" x2="151.3" y2="92.0" />
<line x1="154.3" y1="0.0" x2="154.3" y2="94.0" />
<line x1="157.2" y1="0.0" x2="157.2" y2="96.0" />
<line x1="160.2" y1="0.0" x2="160.2" y2="98.0" />
<line x1="163.2" y1="0.0" x2="163.2" y2="100.0" />
</g>
</svg>