<svg xmlns="http://www.w3.org/2000/svg" width="156.9" height="100.0" viewBox="-1.4 -5.0 166.9 110.0">
<g fill="none" stroke="black" stroke-width="0.4950%" transform="translate(0, 100.0000) scale(1.0101, -1.0101)">
<line x1="3.5" y1="0.0" x2="3.5" y2="3.0" />
<line x1="7.1" y1="0.0" x2="7.1" y2="6.0" />
<line x1="10.6" y1="0.0" x2="10.6" y2="8.0" />
<line x1="14.1" y1="0.0" x2="14.1" y2="11.0" />
<line x1="17.7" y1="0.0" x2="17.7" y2="13.0" />
<line x1="21.2" y1="0.0" x2="21.2" y2="15.0" />
<line x1="24.7" y1="0.0" x2="24.7" y2="18.0" />
<line x1="28.2" y1="0.0" x2="28.2" y2="20.0" />
<line x1="31.8" y1="0.0" x2="31.8" y2="22.0" />
<line x1="35.3" y1="0.0" x2="35.3" y2="24.0" />
<line x1="38.8" y1="0.0" x2="38.8" y2="27.0" />
<line x1="42.4" y1="0.0" x2="42.4" y2="29.0" />
<line x1="45.9" y1="0.0" x2="45.9" y2="31.0" />
<line x1="49.4" y1="0.0" x2="49.4" y2="33.0" />
<line x1="53.0" y1="0.0" x2="53.0" y2="35.0" />
<line x1="56.5" y1="0.0" x2="56.5" y2="38.0" />
<line x1="60.0" y1="0.0" x2="60.0" y2="40.0" />
<line x1="63.5" y1="0.0" x2="63.5" y2="42.0" />
<line x1="67.1" y1="0.0" x2="67.1" y2="44.0" />
<line x1="70.6" y1="0.0" x2="70.6" y2="46.0" />
<line x1="74.1" y1="0.0" x2="74.1" y2="48.0" />
<line x1="77.7" y1="0.0" x2="77.7" y2="51.0" />
<line x1="81.2" y1="0.0" x2="81.2" y2="53.0" />
<line x1="84.7" y1="0.0" x2="84.7" y2="55.0" />
<line x1="88.3" y1="0.0" x2="88.3" y2="57.0" />
<line x1="91.8" y1="0.0" x2="91.8" y2="59.0" />
<line x1="95.3" y1="0.0" x2="95.3" y2="61.0" />
<line x1="98.8" y1="0.0" x2="98.8" y2="63.0" />
<line x1="102.4" y1="0.0" x2="102.4" y2="66.0" />
<line x1="105.9" y1="0.0" x2="105.9" y2="68.0" />
<line x1="109.4" y1="0.0" x2="109.4" y2="70.0" />
<line x1="113.0" y1="0.0" x2="113.0" y2="72.0" />
<line x1="116.5" y1="0.0" x2="116.5" y2="74.0" />
<line x1="120.0" y1="0.0" x2="120.0" y2="76.0" />
<line x1="123.6" y1="0.0" x2="123.6" y2="78.0" />
<line x1="127.1" y1="0.0" x2="127.1" y2="80.0" />
<line x1="130.6" y1="0.0" x2="130.6" y2="83.0" />
<line x1="134.1" y1="0.0" x2="134.1" y2="85.0" />
<line x1="137.7" y1="0.0" x2="137.7" y2="87.0" />
<line x1="141.2" y1="0.0" x2="141.2" y2="89.0" />
<line x1="144.7" y1="0.0" x2="144.7" y2="91.0" />
<line x1="148.3" y1="0.0" x2="148.3" y2="93.0" />
<line x1="151.8" y1="0.0" x2="151.8" y2="95.0" />
<line x1="155.3" y1="0.0" x2="155.3" y2="97.0" />
<line x1="158.9" y1="0.0" x2="158.9" y2="99.0" />
</g>
</svg>