<svg xmlns="http://www.w3.org/2000/svg" width="161.8" height="100.0" viewBox="-2.0 -2.0 171.8 110.0">
<g fill="none" stroke="black" stroke-width="0.1650%" transform="translate(0, 106.0606) scale(3.0303, -3.0303)">
<circle cx="1.0" cy="1.0" r="0.2" />
<circle cx="2.0" cy="1.0" r="0.2" />
<circle cx="3.0" cy="2.0" r="0.2" />
<circle cx="4.0" cy="2.0" r="0.2" />
<circle cx="4.9" cy="3.0" r="0.2" />
<circle cx="5.9" cy="3.0" r="0.2" />
<circle cx="6.9" cy="5.0" r="0.2" />
<circle cx="7.9" cy="5.0" r="0.2" />
<circle cx="8.9" cy="5.0" r="0.2" />
<circle cx="9.9" cy="5.0" r="0.2" />
<circle cx="10.9" cy="8.0" r="0.2" />
<circle cx="11.9" cy="7.0" r="0.2" />
<circle cx="12.9" cy="8.0" r="0.2" />
<circle cx="13.8" cy="8.0" r="0.2" />
<circle cx="14.8" cy="7.0" r="0.2" />
<circle cx="15.8" cy="8.0" r="0.2" />
<circle cx="16.8" cy="12.0" r="0.2" />
<circle cx="17.8" cy="13.0" r="0.2" />
<circle cx="18.8" cy="11.0" r="0.2" />
<circle cx="19.8" cy="12.0" r="0.2" />
<circle cx="20.8" cy="13.0" r="0.2" />
<circle cx="21.8" cy="12.0" r="0.2" />
<circle cx="22.7" cy="13.0" r="0.2" />
<circle cx="23.7" cy="11.0" r="0.2" />
<circle cx="24.7" cy="12.0" r="0.2" />
<circle cx="25.7" cy="13.0" r="0.2" />
<circle cx="26.7" cy="19.0" r="0.2" />
<circle cx="27.7" cy="19.0" r="0.2" />
<circle cx="28.7" cy="21.0" r="0.2" />
<circle cx="29.7" cy="17.0" r="0.2" />
<circle cx="30.7" cy="18.0" r="0.2" />
<circle cx="31.6" cy="19.0" r="0.2" />
<circle cx="32.6" cy="19.0" r="0.2" />
<circle cx="33.6" cy="21.0" r="0.2" />
<circle cx="34.6" cy="19.0" r="0.2" />
<circle cx="35.6" cy="19.0" r="0.2" />
<circle cx="36.6" cy="21.0" r="0.2" />
<circle cx="37.6" cy="17.0" r="0.2" />
<circle cx="38.6" cy="18.0" r="0.2" />
<circle cx="39.6" cy="19.0" r="0.2" />
<circle cx="40.5" cy="19.0" r="0.2" />
<circle cx="41.5" cy="21.0" r="0.2" />
<circle cx="42.5" cy="29.0" r="0.2" />
<circle cx="43.5" cy="31.0" r="0.2" />
<circle cx="44.5" cy="30.0" r="0.2" />
<circle cx="45.5" cy="31.0" r="0.2" />
<circle cx="46.5" cy="34.0" r="0.2" />
<circle cx="47.5" cy="27.0" r="0.2" />
<circle cx="48.5" cy="26.0" r="0.2" />
<circle cx="49.4" cy="29.0" r="0.2" />
<circle cx="50.4" cy="29.0" r="0.2" />
<circle cx="51.4" cy="31.0" r="0.2" />
<circle cx="52.4" cy="30.0" r="0.2" />
<circle cx="53.4" cy="31.0" r="0.2" />
<circle cx="54.4" cy="34.0" r="0.2" />
</g>
</svg>