<svg xmlns="http://www.w3.org/2000/svg" width="161.8" height="100.0" viewBox="-2.548 61.667 171.803 110.000">
<g fill="none" stroke="black" stroke-width="0.0150%" transform="translate(0, 233.3333) scale(33.3333, -33.3333)">
<polyline points="0.074,2.000 0.147,2.000 0.147,2.000 0.221,2.000 0.221,3.000 0.294,3.000 0.294,2.000 0.368,2.000 0.368,5.000 0.441,5.000 0.441,2.000 0.515,2.000 0.515,2.000 0.588,2.000 0.588,3.000 0.662,3.000 0.662,3.000 0.735,3.000 0.735,2.000 0.809,2.000 0.809,2.000 0.883,2.000 0.883,2.000 0.956,2.000 0.956,3.000 1.030,3.000 1.030,3.000 1.103,3.000 1.103,3.000 1.177,3.000 1.177,2.000 1.250,2.000 1.250,2.000 1.324,2.000 1.324,2.000 1.397,2.000 1.397,4.000 1.471,4.000 1.471,2.000 1.544,2.000 1.544,3.000 1.618,3.000 1.618,3.000 1.692,3.000 1.692,3.000 1.765,3.000 1.765,3.000 1.839,3.000 1.839,2.000 1.912,2.000 1.912,2.000 1.986,2.000 1.986,4.000 2.059,4.000 2.059,2.000 2.133,2.000 2.133,2.000 2.206,2.000 2.206,2.000 2.280,2.000 2.280,3.000 2.354,3.000 2.354,3.000 2.427,3.000 2.427,2.000 2.501,2.000 2.501,3.000 2.574,3.000 2.574,3.000 2.648,3.000 2.648,3.000 2.721,3.000 2.721,4.000 2.795,4.000 2.795,3.000 2.868,3.000 2.868,3.000 2.942,3.000 2.942,2.000 3.015,2.000 3.015,4.000 3.089,4.000 3.089,2.000 3.163,2.000 3.163,2.000 3.236,2.000 3.236,2.000 3.310,2.000 3.310,2.000 3.383,2.000 3.383,2.000 3.457,2.000 3.457,3.000 3.530,3.000 3.530,2.000 3.604,2.000 3.604,2.000 3.677,2.000 3.677,3.000 3.751,3.000 3.751,3.000 3.824,3.000 3.824,3.000 3.898,3.000 3.898,5.000 3.972,5.000 3.972,2.000 4.045,2.000 4.045,3.000 4.119,3.000 4.119,3.000 4.192,3.000 4.192,3.000 4.266,3.000 4.266,3.000 4.339,3.000 4.339,3.000 4.413,3.000 4.413,3.000 4.486,3.000 4.486,3.000 4.560,3.000 4.560,2.000 4.633,2.000 4.633,2.000 4.707,2.000 4.707,2.000 4.781,2.000 4.781,3.000 4.854,3.000 4.854,2.000 4.928,2.000" />
</g>
</svg>