<svg xmlns="http://www.w3.org/2000/svg" width="89.8" height="100.0" viewBox="-49.886 -55.000 99.773 110.000">
<g fill="none" stroke="black" stroke-width="0.0109%" transform="translate(0, 0.0000) scale(45.6991, -45.6991)">
<polyline points="0.861,0.664 0.861,0.664 0.861,0.664 0.860,0.664 0.838,0.691 0.823,0.713 0.817,0.719 0.812,0.725 0.794,0.744 0.779,0.762 0.770,0.770 0.762,0.778 0.745,0.795 0.730,0.812 0.720,0.819 0.713,0.825 0.694,0.841 0.673,0.861 0.667,0.864 0.664,0.867 0.643,0.882 0.639,0.885 0.615,0.903 0.611,0.906 0.606,0.910 0.581,0.925 0.566,0.934 0.550,0.944 0.526,0.959 0.520,0.962 0.516,0.964 0.507,0.969 0.486,0.978 0.467,0.988 0.453,0.994 0.426,1.008 0.420,1.010 0.418,1.011 0.413,1.013 0.384,1.023 0.369,1.029 0.348,1.036 0.337,1.040 0.320,1.046 0.311,1.049 0.284,1.057 0.273,1.060 0.271,1.061 0.266,1.062 0.233,1.069 0.221,1.071 0.204,1.075 0.191,1.077 0.172,1.080 0.149,1.083 0.146,1.084 0.123,1.087 0.105,1.089 0.090,1.090 0.074,1.092 0.060,1.092 0.038,1.093 0.025,1.094 0.012,1.094 -0.012,1.094 -0.025,1.094 -0.038,1.093 -0.060,1.092 -0.074,1.092 -0.090,1.090 -0.105,1.089 -0.123,1.087 -0.146,1.084 -0.149,1.083 -0.172,1.080 -0.191,1.077 -0.204,1.075 -0.221,1.071 -0.233,1.069 -0.266,1.062 -0.271,1.061 -0.273,1.060 -0.284,1.057 -0.311,1.049 -0.320,1.046 -0.337,1.040 -0.348,1.036 -0.369,1.029 -0.384,1.023 -0.413,1.013 -0.418,1.011 -0.420,1.010 -0.426,1.008 -0.453,0.994 -0.467,0.988 -0.486,0.978 -0.507,0.969 -0.516,0.964 -0.520,0.962 -0.526,0.959 -0.550,0.944 -0.566,0.934 -0.581,0.925 -0.606,0.910 -0.611,0.906 -0.615,0.903 -0.639,0.885 -0.643,0.882 -0.664,0.867 -0.667,0.864 -0.673,0.861 -0.694,0.841 -0.713,0.825 -0.720,0.819 -0.730,0.812 -0.745,0.795 -0.762,0.778 -0.770,0.770 -0.779,0.762 -0.794,0.744 -0.812,0.725 -0.817,0.719 -0.823,0.713 -0.838,0.691 -0.860,0.664 -0.861,0.664 -0.861,0.664 -0.861,0.664 -0.879,0.633 -0.893,0.615 -0.899,0.603 -0.910,0.584 -0.917,0.572 -0.922,0.566 -0.931,0.545 -0.933,0.539 -0.945,0.516 -0.948,0.506 -0.959,0.479 -0.962,0.471 -0.964,0.467 -0.966,0.460 -0.972,0.431 -0.977,0.418 -0.979,0.398 -0.979,0.389 -0.982,0.369 -0.980,0.348 -0.977,0.338 -0.975,0.320 -0.970,0.308 -0.959,0.292 -0.950,0.279 -0.940,0.271 -0.923,0.257 -0.910,0.250 -0.891,0.240 -0.873,0.233 -0.861,0.228 -0.856,0.226 -0.841,0.221 -0.819,0.214 -0.812,0.212 -0.798,0.208 -0.781,0.202 -0.762,0.197 -0.743,0.192 -0.730,0.189 -0.713,0.185 -0.703,0.182 -0.666,0.174 -0.664,0.174 -0.663,0.173 -0.658,0.172 -0.624,0.163 -0.615,0.161 -0.599,0.156 -0.585,0.153 -0.566,0.148 -0.546,0.143 -0.534,0.140 -0.516,0.136 -0.506,0.133 -0.470,0.126 -0.467,0.125 -0.466,0.125 -0.458,0.123 -0.428,0.113 -0.418,0.111 -0.401,0.106 -0.389,0.103 -0.369,0.097 -0.350,0.092 -0.334,0.088 -0.320,0.085 -0.311,0.083 -0.271,0.074 -0.271,0.074 -0.270,0.074 -0.269,0.074 -0.234,0.061 -0.221,0.056 -0.197,0.049 -0.196,0.048 -0.172,0.041 -0.159,0.038 -0.130,0.032 -0.123,0.030 -0.118,0.029 -0.086,0.025 -0.086,0.012 -0.086,-0.012 -0.086,-0.025 -0.118,-0.029 -0.123,-0.030 -0.130,-0.032 -0.159,-0.038 -0.172,-0.041 -0.196,-0.048 -0.197,-0.049 -0.221,-0.056 -0.234,-0.061 -0.269,-0.074 -0.270,-0.074 -0.271,-0.074 -0.271,-0.074 -0.311,-0.083 -0.320,-0.085 -0.334,-0.088 -0.350,-0.092 -0.369,-0.097 -0.389,-0.103 -0.401,-0.106 -0.418,-0.111 -0.428,-0.113 -0.458,-0.123 -0.466,-0.125 -0.467,-0.125 -0.470,-0.126 -0.506,-0.133 -0.516,-0.136 -0.534,-0.140 -0.546,-0.143 -0.566,-0.148 -0.585,-0.153 -0.599,-0.156 -0.615,-0.161 -0.624,-0.163 -0.658,-0.172 -0.663,-0.173 -0.664,-0.174 -0.666,-0.174 -0.703,-0.182 -0.713,-0.185 -0.730,-0.189 -0.743,-0.192 -0.762,-0.197 -0.781,-0.202 -0.798,-0.208 -0.812,-0.212 -0.819,-0.214 -0.841,-0.221 -0.856,-0.226 -0.861,-0.228 -0.873,-0.233 -0.891,-0.240 -0.910,-0.250 -0.923,-0.257 -0.940,-0.271 -0.950,-0.279 -0.959,-0.292 -0.970,-0.308 -0.975,-0.320 -0.977,-0.338 -0.980,-0.348 -0.982,-0.369 -0.979,-0.389 -0.979,-0.398 -0.977,-0.418 -0.972,-0.431 -0.966,-0.460 -0.964,-0.467 -0.962,-0.471 -0.959,-0.479 -0.948,-0.506 -0.945,-0.516 -0.933,-0.539 -0.931,-0.545 -0.922,-0.566 -0.917,-0.572 -0.910,-0.584 -0.899,-0.603 -0.893,-0.615 -0.879,-0.633 -0.861,-0.664 -0.861,-0.664 -0.861,-0.664" />
<polyline points="0.861,-0.664 0.861,-0.664 0.861,-0.664 0.879,-0.633 0.893,-0.615 0.899,-0.603 0.910,-0.584 0.917,-0.572 0.922,-0.566 0.931,-0.545 0.933,-0.539 0.945,-0.516 0.948,-0.506 0.959,-0.479 0.962,-0.471 0.964,-0.467 0.966,-0.460 0.972,-0.431 0.977,-0.418 0.979,-0.398 0.979,-0.389 0.982,-0.369 0.980,-0.348 0.977,-0.338 0.975,-0.320 0.970,-0.308 0.959,-0.292 0.950,-0.279 0.940,-0.271 0.923,-0.257 0.910,-0.250 0.891,-0.240 0.873,-0.233 0.861,-0.228 0.856,-0.226 0.841,-0.221 0.819,-0.214 0.812,-0.212 0.798,-0.208 0.781,-0.202 0.762,-0.197 0.743,-0.192 0.730,-0.189 0.713,-0.185 0.703,-0.182 0.666,-0.174 0.664,-0.174 0.663,-0.173 0.658,-0.172 0.624,-0.163 0.615,-0.161 0.599,-0.156 0.585,-0.153 0.566,-0.148 0.546,-0.143 0.534,-0.140 0.516,-0.136 0.506,-0.133 0.470,-0.126 0.467,-0.125 0.466,-0.125 0.458,-0.123 0.428,-0.113 0.418,-0.111 0.401,-0.106 0.389,-0.103 0.369,-0.097 0.350,-0.092 0.334,-0.088 0.320,-0.085 0.311,-0.083 0.271,-0.074 0.271,-0.074 0.270,-0.074 0.269,-0.074 0.234,-0.061 0.221,-0.056 0.197,-0.049 0.196,-0.048 0.172,-0.041 0.159,-0.038 0.130,-0.032 0.123,-0.030 0.118,-0.029 0.086,-0.025 0.086,-0.012 0.086,0.012 0.086,0.025 0.118,0.029 0.123,0.030 0.130,0.032 0.159,0.038 0.172,0.041 0.196,0.048 0.197,0.049 0.221,0.056 0.234,0.061 0.269,0.074 0.270,0.074 0.271,0.074 0.271,0.074 0.311,0.083 0.320,0.085 0.334,0.088 0.350,0.092 0.369,0.097 0.389,0.103 0.401,0.106 0.418,0.111 0.428,0.113 0.458,0.123 0.466,0.125 0.467,0.125 0.470,0.126 0.506,0.133 0.516,0.136 0.534,0.140 0.546,0.143 0.566,0.148 0.585,0.153 0.599,0.156 0.615,0.161 0.624,0.163 0.658,0.172 0.663,0.173 0.664,0.174 0.666,0.174 0.703,0.182 0.713,0.185 0.730,0.189 0.743,0.192 0.762,0.197 0.781,0.202 0.798,0.208 0.812,0.212 0.819,0.214 0.841,0.221 0.856,0.226 0.861,0.228 0.873,0.233 0.891,0.240 0.910,0.250 0.923,0.257 0.940,0.271 0.950,0.279 0.959,0.292 0.970,0.308 0.975,0.320 0.977,0.338 0.980,0.348 0.982,0.369 0.979,0.389 0.979,0.398 0.977,0.418 0.972,0.431 0.966,0.460 0.964,0.467 0.962,0.471 0.959,0.479 0.948,0.506 0.945,0.516 0.933,0.539 0.931,0.545 0.922,0.566 0.917,0.572 0.910,0.584 0.899,0.603 0.893,0.615 0.879,0.633 0.861,0.664" />
<polyline points="0.861,-0.664 0.860,-0.664 0.838,-0.691 0.823,-0.713 0.817,-0.719 0.812,-0.725 0.794,-0.744 0.779,-0.762 0.770,-0.770 0.762,-0.778 0.745,-0.795 0.730,-0.812 0.720,-0.819 0.713,-0.825 0.694,-0.841 0.673,-0.861 0.667,-0.864 0.664,-0.867 0.643,-0.882 0.639,-0.885 0.615,-0.903 0.611,-0.906 0.606,-0.910 0.581,-0.925 0.566,-0.934 0.550,-0.944 0.526,-0.959 0.520,-0.962 0.516,-0.964 0.507,-0.969 0.486,-0.978 0.467,-0.988 0.453,-0.994 0.426,-1.008 0.420,-1.010 0.418,-1.011 0.413,-1.013 0.384,-1.023 0.369,-1.029 0.348,-1.036 0.337,-1.040 0.320,-1.046 0.311,-1.049 0.284,-1.057 0.273,-1.060 0.271,-1.061 0.266,-1.062 0.233,-1.069 0.221,-1.071 0.204,-1.075 0.191,-1.077 0.172,-1.080 0.149,-1.083 0.146,-1.084 0.123,-1.087 0.105,-1.089 0.090,-1.090 0.074,-1.092 0.060,-1.092 0.038,-1.093 0.025,-1.094 0.012,-1.094 -0.012,-1.094 -0.025,-1.094 -0.038,-1.093 -0.060,-1.092 -0.074,-1.092 -0.090,-1.090 -0.105,-1.089 -0.123,-1.087 -0.146,-1.084 -0.149,-1.083 -0.172,-1.080 -0.191,-1.077 -0.204,-1.075 -0.221,-1.071 -0.233,-1.069 -0.266,-1.062 -0.271,-1.061 -0.273,-1.060 -0.284,-1.057 -0.311,-1.049 -0.320,-1.046 -0.337,-1.040 -0.348,-1.036 -0.369,-1.029 -0.384,-1.023 -0.413,-1.013 -0.418,-1.011 -0.420,-1.010 -0.426,-1.008 -0.453,-0.994 -0.467,-0.988 -0.486,-0.978 -0.507,-0.969 -0.516,-0.964 -0.520,-0.962 -0.526,-0.959 -0.550,-0.944 -0.566,-0.934 -0.581,-0.925 -0.606,-0.910 -0.611,-0.906 -0.615,-0.903 -0.639,-0.885 -0.643,-0.882 -0.664,-0.867 -0.667,-0.864 -0.673,-0.861 -0.694,-0.841 -0.713,-0.825 -0.720,-0.819 -0.730,-0.812 -0.745,-0.795 -0.762,-0.778 -0.770,-0.770 -0.779,-0.762 -0.794,-0.744 -0.812,-0.725 -0.817,-0.719 -0.823,-0.713 -0.838,-0.691 -0.860,-0.664 -0.861,-0.664" />
</g>
</svg>