<svg xmlns="http://www.w3.org/2000/svg" width="100.0" height="100.0" viewBox="-3.1 -3.1 110.0 110.0">
<g fill="none" stroke="black" stroke-width="0.2700%" transform="translate(0, 103.7037) scale(1.8519, -1.8519)">
<circle cx="1.0" cy="1.0" r="0.3" />
<circle cx="2.0" cy="2.0" r="0.3" />
<circle cx="3.0" cy="3.0" r="0.3" />
<circle cx="4.0" cy="5.0" r="0.3" />
<circle cx="5.0" cy="5.0" r="0.3" />
<circle cx="6.0" cy="8.0" r="0.3" />
<circle cx="7.0" cy="7.0" r="0.3" />
<circle cx="8.0" cy="8.0" r="0.3" />
<circle cx="9.0" cy="12.0" r="0.3" />
<circle cx="10.0" cy="13.0" r="0.3" />
<circle cx="11.0" cy="11.0" r="0.3" />
<circle cx="12.0" cy="12.0" r="0.3" />
<circle cx="13.0" cy="13.0" r="0.3" />
<circle cx="14.0" cy="19.0" r="0.3" />
<circle cx="15.0" cy="19.0" r="0.3" />
<circle cx="16.0" cy="21.0" r="0.3" />
<circle cx="17.0" cy="17.0" r="0.3" />
<circle cx="18.0" cy="18.0" r="0.3" />
<circle cx="19.0" cy="19.0" r="0.3" />
<circle cx="20.0" cy="19.0" r="0.3" />
<circle cx="21.0" cy="21.0" r="0.3" />
<circle cx="22.0" cy="29.0" r="0.3" />
<circle cx="23.0" cy="31.0" r="0.3" />
<circle cx="24.0" cy="30.0" r="0.3" />
<circle cx="25.0" cy="31.0" r="0.3" />
<circle cx="26.0" cy="34.0" r="0.3" />
<circle cx="27.0" cy="27.0" r="0.3" />
<circle cx="28.0" cy="26.0" r="0.3" />
<circle cx="29.0" cy="29.0" r="0.3" />
<circle cx="30.0" cy="29.0" r="0.3" />
<circle cx="31.0" cy="31.0" r="0.3" />
<circle cx="32.0" cy="30.0" r="0.3" />
<circle cx="33.0" cy="31.0" r="0.3" />
<circle cx="34.0" cy="34.0" r="0.3" />
<circle cx="35.0" cy="46.0" r="0.3" />
<circle cx="36.0" cy="45.0" r="0.3" />
<circle cx="37.0" cy="50.0" r="0.3" />
<circle cx="38.0" cy="46.0" r="0.3" />
<circle cx="39.0" cy="49.0" r="0.3" />
<circle cx="40.0" cy="49.0" r="0.3" />
<circle cx="41.0" cy="50.0" r="0.3" />
<circle cx="42.0" cy="55.0" r="0.3" />
<circle cx="43.0" cy="41.0" r="0.3" />
<circle cx="44.0" cy="44.0" r="0.3" />
<circle cx="45.0" cy="41.0" r="0.3" />
<circle cx="46.0" cy="43.0" r="0.3" />
<circle cx="47.0" cy="47.0" r="0.3" />
<circle cx="48.0" cy="46.0" r="0.3" />
<circle cx="49.0" cy="45.0" r="0.3" />
<circle cx="50.0" cy="50.0" r="0.3" />
<circle cx="51.0" cy="46.0" r="0.3" />
<circle cx="52.0" cy="49.0" r="0.3" />
<circle cx="53.0" cy="49.0" r="0.3" />
<circle cx="54.0" cy="50.0" r="0.3" />
<circle cx="55.0" cy="55.0" r="0.3" />
</g>
</svg>