<svg xmlns="http://www.w3.org/2000/svg" width="100.0" height="100.0" viewBox="-5.00 -5.00 110.00 110.00">
<g fill="none" stroke="black" stroke-width="0.0628%" transform="translate(0, 100.0000) scale(7.9577, -7.9577)">
<line x1="1.91" y1="10.66" x2="1.31" y2="10.05" />
<line x1="2.51" y1="11.26" x2="1.91" y2="10.66" />
<line x1="1.39" y1="11.18" x2="0.27" y2="10.05" />
<line x1="2.51" y1="12.30" x2="1.39" y2="11.18" />
<line x1="0.87" y1="11.70" x2="1.74" y2="12.57" />
<line x1="0.00" y1="10.83" x2="0.87" y2="11.70" />
<line x1="4.46" y1="10.05" x2="3.26" y2="10.80" />
<line x1="3.26" y1="10.80" x2="2.51" y2="11.26" />
<line x1="3.90" y1="11.44" x2="5.03" y2="10.75" />
<line x1="3.90" y1="11.44" x2="3.21" y2="11.87" />
<line x1="2.51" y1="12.30" x2="3.21" y2="11.87" />
<line x1="4.55" y1="12.09" x2="5.03" y2="11.79" />
<line x1="3.77" y1="12.57" x2="4.55" y2="12.09" />
<line x1="5.72" y1="10.75" x2="6.85" y2="10.75" />
<line x1="7.54" y1="10.75" x2="6.85" y2="10.75" />
<line x1="5.72" y1="10.75" x2="5.03" y2="10.75" />
<line x1="6.76" y1="11.79" x2="7.54" y2="11.79" />
<line x1="6.76" y1="11.79" x2="5.80" y2="11.79" />
<line x1="5.03" y1="11.79" x2="5.80" y2="11.79" />
<line x1="9.31" y1="10.80" x2="8.10" y2="10.05" />
<line x1="10.05" y1="11.26" x2="9.31" y2="10.80" />
<line x1="9.36" y1="11.87" x2="10.05" y2="12.30" />
<line x1="9.36" y1="11.87" x2="8.66" y2="11.44" />
<line x1="7.54" y1="10.75" x2="8.66" y2="11.44" />
<line x1="8.02" y1="12.09" x2="8.80" y2="12.57" />
<line x1="7.54" y1="11.79" x2="8.02" y2="12.09" />
<line x1="11.26" y1="10.05" x2="10.66" y2="10.66" />
<line x1="10.66" y1="10.66" x2="10.05" y2="11.26" />
<line x1="12.30" y1="10.05" x2="11.18" y2="11.18" />
<line x1="11.18" y1="11.18" x2="10.05" y2="12.30" />
<line x1="11.70" y1="11.70" x2="12.57" y2="10.83" />
<line x1="10.83" y1="12.57" x2="11.70" y2="11.70" />
<line x1="1.77" y1="9.31" x2="2.51" y2="8.10" />
<line x1="1.31" y1="10.05" x2="1.77" y2="9.31" />
<line x1="1.82" y1="7.54" x2="1.12" y2="8.66" />
<line x1="0.69" y1="9.36" x2="0.27" y2="10.05" />
<line x1="0.69" y1="9.36" x2="1.12" y2="8.66" />
<line x1="0.78" y1="7.54" x2="0.48" y2="8.02" />
<line x1="0.48" y1="8.02" x2="0.00" y2="8.80" />
<line x1="3.49" y1="9.08" x2="4.46" y2="10.05" />
<line x1="2.51" y1="8.10" x2="3.49" y2="9.08" />
<line x1="4.33" y1="8.23" x2="3.64" y2="7.54" />
<line x1="5.03" y1="8.93" x2="4.33" y2="8.23" />
<line x1="6.42" y1="8.93" x2="7.54" y2="8.93" />
<line x1="6.42" y1="8.93" x2="6.15" y2="8.93" />
<line x1="5.03" y1="8.93" x2="6.15" y2="8.93" />
<line x1="9.08" y1="9.08" x2="10.05" y2="8.10" />
<line x1="8.10" y1="10.05" x2="9.08" y2="9.08" />
<line x1="8.93" y1="7.54" x2="8.23" y2="8.23" />
<line x1="8.23" y1="8.23" x2="7.54" y2="8.93" />
<line x1="10.80" y1="9.31" x2="11.26" y2="10.05" />
<line x1="10.05" y1="8.10" x2="10.80" y2="9.31" />
<line x1="11.44" y1="8.66" x2="10.75" y2="7.54" />
<line x1="11.44" y1="8.66" x2="11.87" y2="9.36" />
<line x1="12.30" y1="10.05" x2="11.87" y2="9.36" />
<line x1="12.09" y1="8.02" x2="11.79" y2="7.54" />
<line x1="12.57" y1="8.80" x2="12.09" y2="8.02" />
<line x1="1.82" y1="5.72" x2="1.82" y2="5.03" />
<line x1="1.82" y1="5.72" x2="1.82" y2="6.85" />
<line x1="1.82" y1="7.54" x2="1.82" y2="6.85" />
<line x1="0.78" y1="5.03" x2="0.78" y2="5.80" />
<line x1="0.78" y1="6.76" x2="0.78" y2="7.54" />
<line x1="0.78" y1="6.76" x2="0.78" y2="5.80" />
<line x1="3.64" y1="5.03" x2="3.64" y2="6.15" />
<line x1="3.64" y1="6.42" x2="3.64" y2="7.54" />
<line x1="3.64" y1="6.42" x2="3.64" y2="6.15" />
<line x1="8.93" y1="6.15" x2="8.93" y2="5.03" />
<line x1="8.93" y1="6.15" x2="8.93" y2="6.42" />
<line x1="8.93" y1="7.54" x2="8.93" y2="6.42" />
<line x1="10.75" y1="5.03" x2="10.75" y2="5.72" />
<line x1="10.75" y1="6.85" x2="10.75" y2="7.54" />
<line x1="10.75" y1="6.85" x2="10.75" y2="5.72" />
<line x1="11.79" y1="5.80" x2="11.79" y2="5.03" />
<line x1="11.79" y1="5.80" x2="11.79" y2="6.76" />
<line x1="11.79" y1="7.54" x2="11.79" y2="6.76" />
<line x1="1.77" y1="3.26" x2="1.31" y2="2.51" />
<line x1="2.51" y1="4.46" x2="1.77" y2="3.26" />
<line x1="0.27" y1="2.51" x2="0.69" y2="3.21" />
<line x1="1.12" y1="3.90" x2="1.82" y2="5.03" />
<line x1="1.12" y1="3.90" x2="0.69" y2="3.21" />
<line x1="0.48" y1="4.55" x2="0.78" y2="5.03" />
<line x1="0.00" y1="3.77" x2="0.48" y2="4.55" />
<line x1="4.46" y1="2.51" x2="3.49" y2="3.49" />
<line x1="3.49" y1="3.49" x2="2.51" y2="4.46" />
<line x1="4.33" y1="4.33" x2="5.03" y2="3.64" />
<line x1="3.64" y1="5.03" x2="4.33" y2="4.33" />
<line x1="6.15" y1="3.64" x2="6.42" y2="3.64" />
<line x1="7.54" y1="3.64" x2="6.42" y2="3.64" />
<line x1="6.15" y1="3.64" x2="5.03" y2="3.64" />
<line x1="9.08" y1="3.49" x2="8.10" y2="2.51" />
<line x1="10.05" y1="4.46" x2="9.08" y2="3.49" />
<line x1="8.23" y1="4.33" x2="8.93" y2="5.03" />
<line x1="7.54" y1="3.64" x2="8.23" y2="4.33" />
<line x1="11.26" y1="2.51" x2="10.80" y2="3.26" />
<line x1="10.80" y1="3.26" x2="10.05" y2="4.46" />
<line x1="11.87" y1="3.21" x2="12.30" y2="2.51" />
<line x1="11.87" y1="3.21" x2="11.44" y2="3.90" />
<line x1="10.75" y1="5.03" x2="11.44" y2="3.90" />
<line x1="12.09" y1="4.55" x2="12.57" y2="3.77" />
<line x1="11.79" y1="5.03" x2="12.09" y2="4.55" />
<line x1="1.91" y1="1.91" x2="2.51" y2="1.31" />
<line x1="1.31" y1="2.51" x2="1.91" y2="1.91" />
<line x1="1.39" y1="1.39" x2="2.51" y2="0.27" />
<line x1="0.27" y1="2.51" x2="1.39" y2="1.39" />
<line x1="1.74" y1="0.00" x2="0.87" y2="0.87" />
<line x1="0.87" y1="0.87" x2="0.00" y2="1.74" />
<line x1="3.26" y1="1.77" x2="4.46" y2="2.51" />
<line x1="2.51" y1="1.31" x2="3.26" y2="1.77" />
<line x1="3.21" y1="0.69" x2="3.90" y2="1.12" />
<line x1="5.03" y1="1.82" x2="3.90" y2="1.12" />
<line x1="3.21" y1="0.69" x2="2.51" y2="0.27" />
<line x1="4.55" y1="0.48" x2="3.77" y2="0.00" />
<line x1="5.03" y1="0.78" x2="4.55" y2="0.48" />
<line x1="6.85" y1="1.82" x2="7.54" y2="1.82" />
<line x1="6.85" y1="1.82" x2="5.72" y2="1.82" />
<line x1="5.03" y1="1.82" x2="5.72" y2="1.82" />
<line x1="5.80" y1="0.78" x2="6.76" y2="0.78" />
<line x1="7.54" y1="0.78" x2="6.76" y2="0.78" />
<line x1="5.80" y1="0.78" x2="5.03" y2="0.78" />
<line x1="9.31" y1="1.77" x2="10.05" y2="1.31" />
<line x1="8.10" y1="2.51" x2="9.31" y2="1.77" />
<line x1="8.66" y1="1.12" x2="9.36" y2="0.69" />
<line x1="10.05" y1="0.27" x2="9.36" y2="0.69" />
<line x1="8.66" y1="1.12" x2="7.54" y2="1.82" />
<line x1="8.80" y1="0.00" x2="8.02" y2="0.48" />
<line x1="8.02" y1="0.48" x2="7.54" y2="0.78" />
<line x1="10.66" y1="1.91" x2="11.26" y2="2.51" />
<line x1="10.05" y1="1.31" x2="10.66" y2="1.91" />
<line x1="11.18" y1="1.39" x2="12.30" y2="2.51" />
<line x1="10.05" y1="0.27" x2="11.18" y2="1.39" />
<line x1="11.70" y1="0.87" x2="10.83" y2="0.00" />
<line x1="12.57" y1="1.74" x2="11.70" y2="0.87" />
<line x1="1.91" y1="10.66" x2="1.31" y2="10.05" />
<line x1="2.51" y1="11.26" x2="1.91" y2="10.66" />
<line x1="1.39" y1="11.18" x2="0.27" y2="10.05" />
<line x1="2.51" y1="12.30" x2="1.39" y2="11.18" />
<line x1="0.87" y1="11.70" x2="1.74" y2="12.57" />
<line x1="0.00" y1="10.83" x2="0.87" y2="11.70" />
<line x1="4.46" y1="10.05" x2="3.26" y2="10.80" />
<line x1="3.26" y1="10.80" x2="2.51" y2="11.26" />
<line x1="3.90" y1="11.44" x2="5.03" y2="10.75" />
<line x1="3.90" y1="11.44" x2="3.21" y2="11.87" />
<line x1="2.51" y1="12.30" x2="3.21" y2="11.87" />
<line x1="4.55" y1="12.09" x2="5.03" y2="11.79" />
<line x1="3.77" y1="12.57" x2="4.55" y2="12.09" />
<line x1="5.72" y1="10.75" x2="6.85" y2="10.75" />
<line x1="7.54" y1="10.75" x2="6.85" y2="10.75" />
<line x1="5.72" y1="10.75" x2="5.03" y2="10.75" />
<line x1="6.76" y1="11.79" x2="7.54" y2="11.79" />
<line x1="6.76" y1="11.79" x2="5.80" y2="11.79" />
<line x1="5.03" y1="11.79" x2="5.80" y2="11.79" />
<line x1="9.31" y1="10.80" x2="8.10" y2="10.05" />
<line x1="10.05" y1="11.26" x2="9.31" y2="10.80" />
<line x1="9.36" y1="11.87" x2="10.05" y2="12.30" />
<line x1="9.36" y1="11.87" x2="8.66" y2="11.44" />
<line x1="7.54" y1="10.75" x2="8.66" y2="11.44" />
<line x1="8.02" y1="12.09" x2="8.80" y2="12.57" />
<line x1="7.54" y1="11.79" x2="8.02" y2="12.09" />
<line x1="11.26" y1="10.05" x2="10.66" y2="10.66" />
<line x1="10.66" y1="10.66" x2="10.05" y2="11.26" />
<line x1="12.30" y1="10.05" x2="11.18" y2="11.18" />
<line x1="11.18" y1="11.18" x2="10.05" y2="12.30" />
<line x1="11.70" y1="11.70" x2="12.57" y2="10.83" />
<line x1="10.83" y1="12.57" x2="11.70" y2="11.70" />
<line x1="1.77" y1="9.31" x2="2.51" y2="8.10" />
<line x1="1.31" y1="10.05" x2="1.77" y2="9.31" />
<line x1="1.82" y1="7.54" x2="1.12" y2="8.66" />
<line x1="0.69" y1="9.36" x2="0.27" y2="10.05" />
<line x1="0.69" y1="9.36" x2="1.12" y2="8.66" />
<line x1="0.78" y1="7.54" x2="0.48" y2="8.02" />
<line x1="0.48" y1="8.02" x2="0.00" y2="8.80" />
<line x1="3.49" y1="9.08" x2="4.46" y2="10.05" />
<line x1="2.51" y1="8.10" x2="3.49" y2="9.08" />
<line x1="4.33" y1="8.23" x2="3.64" y2="7.54" />
<line x1="5.03" y1="8.93" x2="4.33" y2="8.23" />
<line x1="6.42" y1="8.93" x2="7.54" y2="8.93" />
<line x1="6.42" y1="8.93" x2="6.15" y2="8.93" />
<line x1="5.03" y1="8.93" x2="6.15" y2="8.93" />
<line x1="9.08" y1="9.08" x2="10.05" y2="8.10" />
<line x1="8.10" y1="10.05" x2="9.08" y2="9.08" />
<line x1="8.93" y1="7.54" x2="8.23" y2="8.23" />
<line x1="8.23" y1="8.23" x2="7.54" y2="8.93" />
<line x1="10.80" y1="9.31" x2="11.26" y2="10.05" />
<line x1="10.05" y1="8.10" x2="10.80" y2="9.31" />
<line x1="11.44" y1="8.66" x2="10.75" y2="7.54" />
<line x1="11.44" y1="8.66" x2="11.87" y2="9.36" />
<line x1="12.30" y1="10.05" x2="11.87" y2="9.36" />
<line x1="12.09" y1="8.02" x2="11.79" y2="7.54" />
<line x1="12.57" y1="8.80" x2="12.09" y2="8.02" />
<line x1="1.82" y1="5.72" x2="1.82" y2="5.03" />
<line x1="1.82" y1="5.72" x2="1.82" y2="6.85" />
<line x1="1.82" y1="7.54" x2="1.82" y2="6.85" />
<line x1="0.78" y1="5.03" x2="0.78" y2="5.80" />
<line x1="0.78" y1="6.76" x2="0.78" y2="7.54" />
<line x1="0.78" y1="6.76" x2="0.78" y2="5.80" />
<line x1="3.64" y1="5.03" x2="3.64" y2="6.15" />
<line x1="3.64" y1="6.42" x2="3.64" y2="7.54" />
<line x1="3.64" y1="6.42" x2="3.64" y2="6.15" />
<line x1="8.93" y1="6.15" x2="8.93" y2="5.03" />
<line x1="8.93" y1="6.15" x2="8.93" y2="6.42" />
<line x1="8.93" y1="7.54" x2="8.93" y2="6.42" />
<line x1="10.75" y1="5.03" x2="10.75" y2="5.72" />
<line x1="10.75" y1="6.85" x2="10.75" y2="7.54" />
<line x1="10.75" y1="6.85" x2="10.75" y2="5.72" />
<line x1="11.79" y1="5.80" x2="11.79" y2="5.03" />
<line x1="11.79" y1="5.80" x2="11.79" y2="6.76" />
<line x1="11.79" y1="7.54" x2="11.79" y2="6.76" />
<line x1="1.77" y1="3.26" x2="1.31" y2="2.51" />
<line x1="2.51" y1="4.46" x2="1.77" y2="3.26" />
<line x1="0.27" y1="2.51" x2="0.69" y2="3.21" />
<line x1="1.12" y1="3.90" x2="1.82" y2="5.03" />
<line x1="1.12" y1="3.90" x2="0.69" y2="3.21" />
<line x1="0.48" y1="4.55" x2="0.78" y2="5.03" />
<line x1="0.00" y1="3.77" x2="0.48" y2="4.55" />
<line x1="4.46" y1="2.51" x2="3.49" y2="3.49" />
<line x1="3.49" y1="3.49" x2="2.51" y2="4.46" />
<line x1="4.33" y1="4.33" x2="5.03" y2="3.64" />
<line x1="3.64" y1="5.03" x2="4.33" y2="4.33" />
<line x1="6.15" y1="3.64" x2="6.42" y2="3.64" />
<line x1="7.54" y1="3.64" x2="6.42" y2="3.64" />
<line x1="6.15" y1="3.64" x2="5.03" y2="3.64" />
<line x1="9.08" y1="3.49" x2="8.10" y2="2.51" />
<line x1="10.05" y1="4.46" x2="9.08" y2="3.49" />
<line x1="8.23" y1="4.33" x2="8.93" y2="5.03" />
<line x1="7.54" y1="3.64" x2="8.23" y2="4.33" />
<line x1="11.26" y1="2.51" x2="10.80" y2="3.26" />
<line x1="10.80" y1="3.26" x2="10.05" y2="4.46" />
<line x1="11.87" y1="3.21" x2="12.30" y2="2.51" />
<line x1="11.87" y1="3.21" x2="11.44" y2="3.90" />
<line x1="10.75" y1="5.03" x2="11.44" y2="3.90" />
<line x1="12.09" y1="4.55" x2="12.57" y2="3.77" />
<line x1="11.79" y1="5.03" x2="12.09" y2="4.55" />
<line x1="1.91" y1="1.91" x2="2.51" y2="1.31" />
<line x1="1.31" y1="2.51" x2="1.91" y2="1.91" />
<line x1="1.39" y1="1.39" x2="2.51" y2="0.27" />
<line x1="0.27" y1="2.51" x2="1.39" y2="1.39" />
<line x1="1.74" y1="0.00" x2="0.87" y2="0.87" />
<line x1="0.87" y1="0.87" x2="0.00" y2="1.74" />
<line x1="3.26" y1="1.77" x2="4.46" y2="2.51" />
<line x1="2.51" y1="1.31" x2="3.26" y2="1.77" />
<line x1="3.21" y1="0.69" x2="3.90" y2="1.12" />
<line x1="5.03" y1="1.82" x2="3.90" y2="1.12" />
<line x1="3.21" y1="0.69" x2="2.51" y2="0.27" />
<line x1="4.55" y1="0.48" x2="3.77" y2="0.00" />
<line x1="5.03" y1="0.78" x2="4.55" y2="0.48" />
<line x1="6.85" y1="1.82" x2="7.54" y2="1.82" />
<line x1="6.85" y1="1.82" x2="5.72" y2="1.82" />
<line x1="5.03" y1="1.82" x2="5.72" y2="1.82" />
<line x1="5.80" y1="0.78" x2="6.76" y2="0.78" />
<line x1="7.54" y1="0.78" x2="6.76" y2="0.78" />
<line x1="5.80" y1="0.78" x2="5.03" y2="0.78" />
<line x1="9.31" y1="1.77" x2="10.05" y2="1.31" />
<line x1="8.10" y1="2.51" x2="9.31" y2="1.77" />
<line x1="8.66" y1="1.12" x2="9.36" y2="0.69" />
<line x1="10.05" y1="0.27" x2="9.36" y2="0.69" />
<line x1="8.66" y1="1.12" x2="7.54" y2="1.82" />
<line x1="8.80" y1="0.00" x2="8.02" y2="0.48" />
<line x1="8.02" y1="0.48" x2="7.54" y2="0.78" />
<line x1="10.66" y1="1.91" x2="11.26" y2="2.51" />
<line x1="10.05" y1="1.31" x2="10.66" y2="1.91" />
<line x1="11.18" y1="1.39" x2="12.30" y2="2.51" />
<line x1="10.05" y1="0.27" x2="11.18" y2="1.39" />
<line x1="11.70" y1="0.87" x2="10.83" y2="0.00" />
<line x1="12.57" y1="1.74" x2="11.70" y2="0.87" />
<line x1="1.91" y1="10.66" x2="1.31" y2="10.05" />
<line x1="2.51" y1="11.26" x2="1.91" y2="10.66" />
<line x1="1.39" y1="11.18" x2="0.27" y2="10.05" />
<line x1="2.51" y1="12.30" x2="1.39" y2="11.18" />
<line x1="0.87" y1="11.70" x2="1.74" y2="12.57" />
<line x1="0.00" y1="10.83" x2="0.87" y2="11.70" />
<line x1="4.46" y1="10.05" x2="3.26" y2="10.80" />
<line x1="3.26" y1="10.80" x2="2.51" y2="11.26" />
<line x1="3.90" y1="11.44" x2="5.03" y2="10.75" />
<line x1="3.90" y1="11.44" x2="3.21" y2="11.87" />
<line x1="2.51" y1="12.30" x2="3.21" y2="11.87" />
<line x1="4.55" y1="12.09" x2="5.03" y2="11.79" />
<line x1="3.77" y1="12.57" x2="4.55" y2="12.09" />
<line x1="5.72" y1="10.75" x2="6.85" y2="10.75" />
<line x1="7.54" y1="10.75" x2="6.85" y2="10.75" />
<line x1="5.72" y1="10.75" x2="5.03" y2="10.75" />
<line x1="6.76" y1="11.79" x2="7.54" y2="11.79" />
<line x1="6.76" y1="11.79" x2="5.80" y2="11.79" />
<line x1="5.03" y1="11.79" x2="5.80" y2="11.79" />
<line x1="9.31" y1="10.80" x2="8.10" y2="10.05" />
<line x1="10.05" y1="11.26" x2="9.31" y2="10.80" />
<line x1="9.36" y1="11.87" x2="10.05" y2="12.30" />
<line x1="9.36" y1="11.87" x2="8.66" y2="11.44" />
<line x1="7.54" y1="10.75" x2="8.66" y2="11.44" />
<line x1="8.02" y1="12.09" x2="8.80" y2="12.57" />
<line x1="7.54" y1="11.79" x2="8.02" y2="12.09" />
<line x1="11.26" y1="10.05" x2="10.66" y2="10.66" />
<line x1="10.66" y1="10.66" x2="10.05" y2="11.26" />
<line x1="12.30" y1="10.05" x2="11.18" y2="11.18" />
<line x1="11.18" y1="11.18" x2="10.05" y2="12.30" />
<line x1="11.70" y1="11.70" x2="12.57" y2="10.83" />
<line x1="10.83" y1="12.57" x2="11.70" y2="11.70" />
<line x1="1.77" y1="9.31" x2="2.51" y2="8.10" />
<line x1="1.31" y1="10.05" x2="1.77" y2="9.31" />
<line x1="1.82" y1="7.54" x2="1.12" y2="8.66" />
<line x1="0.69" y1="9.36" x2="0.27" y2="10.05" />
<line x1="0.69" y1="9.36" x2="1.12" y2="8.66" />
<line x1="0.78" y1="7.54" x2="0.48" y2="8.02" />
<line x1="0.48" y1="8.02" x2="0.00" y2="8.80" />
<line x1="3.49" y1="9.08" x2="4.46" y2="10.05" />
<line x1="2.51" y1="8.10" x2="3.49" y2="9.08" />
<line x1="4.33" y1="8.23" x2="3.64" y2="7.54" />
<line x1="5.03" y1="8.93" x2="4.33" y2="8.23" />
<line x1="6.42" y1="8.93" x2="7.54" y2="8.93" />
<line x1="6.42" y1="8.93" x2="6.15" y2="8.93" />
<line x1="5.03" y1="8.93" x2="6.15" y2="8.93" />
<line x1="9.08" y1="9.08" x2="10.05" y2="8.10" />
<line x1="8.10" y1="10.05" x2="9.08" y2="9.08" />
<line x1="8.93" y1="7.54" x2="8.23" y2="8.23" />
<line x1="8.23" y1="8.23" x2="7.54" y2="8.93" />
<line x1="10.80" y1="9.31" x2="11.26" y2="10.05" />
<line x1="10.05" y1="8.10" x2="10.80" y2="9.31" />
<line x1="11.44" y1="8.66" x2="10.75" y2="7.54" />
<line x1="11.44" y1="8.66" x2="11.87" y2="9.36" />
<line x1="12.30" y1="10.05" x2="11.87" y2="9.36" />
<line x1="12.09" y1="8.02" x2="11.79" y2="7.54" />
<line x1="12.57" y1="8.80" x2="12.09" y2="8.02" />
<line x1="1.82" y1="5.72" x2="1.82" y2="5.03" />
<line x1="1.82" y1="5.72" x2="1.82" y2="6.85" />
<line x1="1.82" y1="7.54" x2="1.82" y2="6.85" />
<line x1="0.78" y1="5.03" x2="0.78" y2="5.80" />
<line x1="0.78" y1="6.76" x2="0.78" y2="7.54" />
<line x1="0.78" y1="6.76" x2="0.78" y2="5.80" />
<line x1="3.64" y1="5.03" x2="3.64" y2="6.15" />
<line x1="3.64" y1="6.42" x2="3.64" y2="7.54" />
<line x1="3.64" y1="6.42" x2="3.64" y2="6.15" />
<line x1="8.93" y1="6.15" x2="8.93" y2="5.03" />
<line x1="8.93" y1="6.15" x2="8.93" y2="6.42" />
<line x1="8.93" y1="7.54" x2="8.93" y2="6.42" />
<line x1="10.75" y1="5.03" x2="10.75" y2="5.72" />
<line x1="10.75" y1="6.85" x2="10.75" y2="7.54" />
<line x1="10.75" y1="6.85" x2="10.75" y2="5.72" />
<line x1="11.79" y1="5.80" x2="11.79" y2="5.03" />
<line x1="11.79" y1="5.80" x2="11.79" y2="6.76" />
<line x1="11.79" y1="7.54" x2="11.79" y2="6.76" />
<line x1="1.77" y1="3.26" x2="1.31" y2="2.51" />
<line x1="2.51" y1="4.46" x2="1.77" y2="3.26" />
<line x1="0.27" y1="2.51" x2="0.69" y2="3.21" />
<line x1="1.12" y1="3.90" x2="1.82" y2="5.03" />
<line x1="1.12" y1="3.90" x2="0.69" y2="3.21" />
<line x1="0.48" y1="4.55" x2="0.78" y2="5.03" />
<line x1="0.00" y1="3.77" x2="0.48" y2="4.55" />
<line x1="4.46" y1="2.51" x2="3.49" y2="3.49" />
<line x1="3.49" y1="3.49" x2="2.51" y2="4.46" />
<line x1="4.33" y1="4.33" x2="5.03" y2="3.64" />
<line x1="3.64" y1="5.03" x2="4.33" y2="4.33" />
<line x1="6.15" y1="3.64" x2="6.42" y2="3.64" />
<line x1="7.54" y1="3.64" x2="6.42" y2="3.64" />
<line x1="6.15" y1="3.64" x2="5.03" y2="3.64" />
<line x1="9.08" y1="3.49" x2="8.10" y2="2.51" />
<line x1="10.05" y1="4.46" x2="9.08" y2="3.49" />
<line x1="8.23" y1="4.33" x2="8.93" y2="5.03" />
<line x1="7.54" y1="3.64" x2="8.23" y2="4.33" />
<line x1="11.26" y1="2.51" x2="10.80" y2="3.26" />
<line x1="10.80" y1="3.26" x2="10.05" y2="4.46" />
<line x1="11.87" y1="3.21" x2="12.30" y2="2.51" />
<line x1="11.87" y1="3.21" x2="11.44" y2="3.90" />
<line x1="10.75" y1="5.03" x2="11.44" y2="3.90" />
<line x1="12.09" y1="4.55" x2="12.57" y2="3.77" />
<line x1="11.79" y1="5.03" x2="12.09" y2="4.55" />
<line x1="1.91" y1="1.91" x2="2.51" y2="1.31" />
<line x1="1.31" y1="2.51" x2="1.91" y2="1.91" />
<line x1="1.39" y1="1.39" x2="2.51" y2="0.27" />
<line x1="0.27" y1="2.51" x2="1.39" y2="1.39" />
<line x1="1.74" y1="0.00" x2="0.87" y2="0.87" />
<line x1="0.87" y1="0.87" x2="0.00" y2="1.74" />
<line x1="3.26" y1="1.77" x2="4.46" y2="2.51" />
<line x1="2.51" y1="1.31" x2="3.26" y2="1.77" />
<line x1="3.21" y1="0.69" x2="3.90" y2="1.12" />
<line x1="5.03" y1="1.82" x2="3.90" y2="1.12" />
<line x1="3.21" y1="0.69" x2="2.51" y2="0.27" />
<line x1="4.55" y1="0.48" x2="3.77" y2="0.00" />
<line x1="5.03" y1="0.78" x2="4.55" y2="0.48" />
<line x1="6.85" y1="1.82" x2="7.54" y2="1.82" />
<line x1="6.85" y1="1.82" x2="5.72" y2="1.82" />
<line x1="5.03" y1="1.82" x2="5.72" y2="1.82" />
<line x1="5.80" y1="0.78" x2="6.76" y2="0.78" />
<line x1="7.54" y1="0.78" x2="6.76" y2="0.78" />
<line x1="5.80" y1="0.78" x2="5.03" y2="0.78" />
<line x1="9.31" y1="1.77" x2="10.05" y2="1.31" />
<line x1="8.10" y1="2.51" x2="9.31" y2="1.77" />
<line x1="8.66" y1="1.12" x2="9.36" y2="0.69" />
<line x1="10.05" y1="0.27" x2="9.36" y2="0.69" />
<line x1="8.66" y1="1.12" x2="7.54" y2="1.82" />
<line x1="8.80" y1="0.00" x2="8.02" y2="0.48" />
<line x1="8.02" y1="0.48" x2="7.54" y2="0.78" />
<line x1="10.66" y1="1.91" x2="11.26" y2="2.51" />
<line x1="10.05" y1="1.31" x2="10.66" y2="1.91" />
<line x1="11.18" y1="1.39" x2="12.30" y2="2.51" />
<line x1="10.05" y1="0.27" x2="11.18" y2="1.39" />
<line x1="11.70" y1="0.87" x2="10.83" y2="0.00" />
<line x1="12.57" y1="1.74" x2="11.70" y2="0.87" />
</g>
</svg>