<svg xmlns="http://www.w3.org/2000/svg" width="99.9" height="100.0" viewBox="-105.072 -55.000 109.909 110.000">
<g fill="none" stroke="black" stroke-width="0.0100%" transform="translate(0, 0.0000) scale(50.0795, -50.0795)">
<polyline points="-0.857,-0.989 -0.843,-0.986 -0.767,-0.971 -0.747,-0.967 -0.743,-0.966 -0.735,-0.963 -0.662,-0.938 -0.629,-0.927 -0.581,-0.905 -0.545,-0.887 -0.514,-0.873 -0.504,-0.867 -0.487,-0.857 -0.435,-0.822 -0.400,-0.798 -0.370,-0.773 -0.333,-0.743 -0.309,-0.720 -0.286,-0.698 -0.253,-0.661 -0.224,-0.629 -0.202,-0.598 -0.171,-0.557 -0.155,-0.531 -0.144,-0.514 -0.114,-0.457 -0.085,-0.400 -0.077,-0.380 -0.057,-0.329 -0.046,-0.297 -0.042,-0.286 -0.038,-0.267 -0.024,-0.205 -0.016,-0.171 -0.011,-0.125 -0.009,-0.105 -0.003,-0.057 -0.003,-0.003 -0.003,0.003 -0.003,0.057 -0.009,0.105 -0.011,0.125 -0.016,0.171 -0.024,0.205 -0.038,0.267 -0.042,0.286 -0.046,0.297 -0.057,0.329 -0.077,0.380 -0.085,0.400 -0.114,0.457 -0.144,0.514 -0.155,0.531 -0.171,0.557 -0.202,0.598 -0.224,0.629 -0.253,0.661 -0.286,0.698 -0.309,0.720 -0.333,0.743 -0.370,0.773 -0.400,0.798 -0.435,0.822 -0.487,0.857 -0.504,0.867 -0.514,0.873 -0.545,0.887 -0.581,0.905 -0.629,0.927 -0.662,0.938 -0.735,0.963 -0.743,0.966 -0.747,0.967 -0.767,0.971 -0.843,0.986 -0.857,0.989 -0.876,0.990 -0.947,0.996 -0.971,0.998 -0.998,0.998 -1.061,0.996 -1.086,0.995 -1.107,0.992 -1.191,0.981 -1.200,0.979 -1.206,0.978 -1.232,0.971 -1.296,0.953 -1.314,0.948 -1.353,0.932 -1.379,0.922 -1.429,0.902 -1.458,0.886 -1.513,0.857 -1.531,0.846 -1.543,0.839 -1.598,0.798 -1.616,0.784 -1.657,0.753 -1.663,0.748 -1.669,0.743 -1.719,0.690 -1.771,0.636 -1.775,0.632 -1.777,0.629 -1.790,0.610 -1.822,0.564 -1.856,0.514 -1.867,0.495 -1.886,0.461 -1.906,0.420 -1.915,0.400 -1.932,0.354 -1.938,0.338 -1.957,0.286 -1.965,0.251 -1.979,0.192 -1.984,0.171 -1.986,0.158 -1.998,0.059 -1.998,0.057 -1.998,0.055 -1.998,-0.055 -1.998,-0.057 -1.998,-0.059 -1.986,-0.158 -1.984,-0.171 -1.979,-0.192 -1.965,-0.251 -1.957,-0.286 -1.938,-0.338 -1.932,-0.354 -1.915,-0.400 -1.906,-0.420 -1.886,-0.461 -1.867,-0.495 -1.856,-0.514 -1.822,-0.564 -1.790,-0.610 -1.777,-0.629 -1.775,-0.632 -1.771,-0.636 -1.719,-0.690 -1.669,-0.743 -1.663,-0.748 -1.657,-0.753 -1.616,-0.784 -1.598,-0.798 -1.543,-0.839 -1.531,-0.846 -1.513,-0.857 -1.458,-0.886 -1.429,-0.902 -1.379,-0.922 -1.353,-0.932 -1.314,-0.948 -1.296,-0.953 -1.232,-0.971 -1.206,-0.978 -1.200,-0.979 -1.191,-0.981 -1.107,-0.992 -1.086,-0.995 -1.061,-0.996 -0.998,-0.998 -0.971,-0.998 -0.947,-0.996 -0.876,-0.990 -0.857,-0.989" />
<line x1="-0.114" y1="0.457" x2="-0.114" y2="0.457" />
<line x1="-0.114" y1="-0.457" x2="-0.114" y2="-0.457" />
</g>
</svg>