<svg xmlns="http://www.w3.org/2000/svg" width="161.8" height="100.0" viewBox="-3 116 172 110">
<g fill="none" stroke="black" stroke-width="22.1550%" transform="translate(0, 341.9318) scale(0.0226, -0.0226)">
<polyline points="72,9791 145,7650 217,6237 290,6694 362,6295 435,6980 507,6821 579,5360 652,5360 724,5716 797,5790 869,6720 941,6779 1014,6152 1086,6800 1159,6816 1231,7650 1304,9196 1376,7480 1448,6220 1521,6711 1593,6380 1666,6742 1738,6600 1810,5360 1883,5360 1955,5937 2028,6028 2100,6635 2173,6762 2245,6169 2317,6970 2390,7411 2462,7650 2535,8601 2607,7310 2680,6203 2752,6728 2824,6465 2897,6504 2969,6379 3042,5360 3114,5360 3186,6158 3259,6266 3331,6550 3404,6745 3476,6186 3549,7140 3621,8006 3693,7650 3766,8006 3838,7140 3911,6186 3983,6745 4055,6550 4128,6266 4200,6158 4273,5360 4345,5360 4418,6379 4490,6504 4562,6465 4635,6728 4707,6203 4780,7310 4852,8601 4925,7650 4997,7411 5069,6970 5142,6169 5214,6762 5287,6635 5359,6028 5431,5937 5504,5360 5576,5360 5649,6600 5721,6742 5794,6380 5866,6711 5938,6220 6011,7480 6083,9196 6156,7650 6228,6816 6300,6800 6373,6152 6445,6779 6518,6720 6590,5790 6663,5716 6735,5360 6807,5360 6880,6821 6952,6980 7025,6295 7097,6694 7170,6237 7242,7650" />
</g>
</svg>