<svg xmlns="http://www.w3.org/2000/svg" width="109.9" height="100.0" viewBox="74.25 -31.42 119.91 110.00">
<g fill="none" stroke="black" stroke-width="0.0189%" transform="translate(0, 47.1654) scale(26.4173, -26.4173)">
<circle cx="3.00" cy="-1.00" r="0.02" />
<circle cx="3.68" cy="-0.61" r="0.02" />
<circle cx="4.36" cy="-0.21" r="0.02" />
<circle cx="3.00" cy="0.50" r="0.02" />
<circle cx="3.68" cy="0.89" r="0.02" />
<circle cx="4.36" cy="1.29" r="0.02" />
<circle cx="3.00" cy="2.00" r="0.02" />
<circle cx="3.68" cy="2.39" r="0.02" />
<circle cx="4.36" cy="2.79" r="0.02" />
<circle cx="3.70" cy="-1.00" r="0.02" />
<circle cx="4.38" cy="-0.61" r="0.02" />
<circle cx="5.06" cy="-0.21" r="0.02" />
<circle cx="3.70" cy="0.50" r="0.02" />
<circle cx="4.38" cy="0.89" r="0.02" />
<circle cx="5.06" cy="1.29" r="0.02" />
<circle cx="3.70" cy="2.00" r="0.02" />
<circle cx="4.38" cy="2.39" r="0.02" />
<circle cx="5.06" cy="2.79" r="0.02" />
<circle cx="4.40" cy="-1.00" r="0.02" />
<circle cx="5.08" cy="-0.61" r="0.02" />
<circle cx="5.76" cy="-0.21" r="0.02" />
<circle cx="4.40" cy="0.50" r="0.02" />
<circle cx="5.08" cy="0.89" r="0.02" />
<circle cx="5.76" cy="1.29" r="0.02" />
<circle cx="4.40" cy="2.00" r="0.02" />
<circle cx="5.08" cy="2.39" r="0.02" />
<circle cx="5.76" cy="2.79" r="0.02" />
<circle cx="5.10" cy="-1.00" r="0.02" />
<circle cx="5.78" cy="-0.61" r="0.02" />
<circle cx="6.46" cy="-0.21" r="0.02" />
<circle cx="5.10" cy="0.50" r="0.02" />
<circle cx="5.78" cy="0.89" r="0.02" />
<circle cx="6.46" cy="1.29" r="0.02" />
<circle cx="5.10" cy="2.00" r="0.02" />
<circle cx="5.78" cy="2.39" r="0.02" />
<circle cx="6.46" cy="2.79" r="0.02" />
<circle cx="5.80" cy="-1.00" r="0.02" />
<circle cx="6.48" cy="-0.61" r="0.02" />
<circle cx="7.16" cy="-0.21" r="0.02" />
<circle cx="5.80" cy="0.50" r="0.02" />
<circle cx="6.48" cy="0.89" r="0.02" />
<circle cx="7.16" cy="1.29" r="0.02" />
<circle cx="5.80" cy="2.00" r="0.02" />
<circle cx="6.48" cy="2.39" r="0.02" />
<circle cx="7.16" cy="2.79" r="0.02" />
</g>
</svg>