<?xml version="1.0" encoding="UTF-8" standalone="no"?>
<!DOCTYPE svg PUBLIC "-//W3C//DTD SVG 1.1//EN"
 "http://www.w3.org/Graphics/SVG/1.1/DTD/svg11.dtd">
<!-- Generated by graphviz version 12.0.0 (0)
 -->
<!-- Pages: 1 -->
<svg width="87pt" height="22pt"
 viewBox="0.00 0.00 87.00 22.01" xmlns="http://www.w3.org/2000/svg" xmlns:xlink="http://www.w3.org/1999/xlink">
<g id="graph0" class="graph" transform="scale(0.142547 0.142547) rotate(0) translate(4 150.4)">
<!-- 1 -->
<g id="node1" class="node">
<title>1</title>
<polygon fill="none" stroke="black" points="327.32,-146.4 281,-146.4 281,-121.6 327.32,-121.6 327.32,-146.4"/>
<text text-anchor="middle" x="304.16" y="-129.8" font-family="Times,serif" font-size="14.00">[3, 1]</text>
</g>
<!-- 2 -->
<g id="node2" class="node">
<title>2</title>
<polygon fill="none" stroke="black" points="150.32,-85.6 104,-85.6 104,-60.8 150.32,-60.8 150.32,-85.6"/>
<text text-anchor="middle" x="127.16" y="-69" font-family="Times,serif" font-size="14.00">[5, 3]</text>
</g>
<!-- 1&#45;&gt;2 -->
<g id="edge1" class="edge">
<title>1&#45;&gt;2</title>
<path fill="none" stroke="black" stroke-width="0.75" d="M280.66,-125.19C248.66,-114.56 191.38,-95.53 156.57,-83.97"/>
<polygon fill="black" stroke="black" stroke-width="0.75" points="157.14,-82.31 151.84,-82.4 156.03,-85.64 157.14,-82.31"/>
</g>
<!-- 6 -->
<g id="node6" class="node">
<title>6</title>
<polygon fill="none" stroke="black" points="327.32,-85.6 281,-85.6 281,-60.8 327.32,-60.8 327.32,-85.6"/>
<text text-anchor="middle" x="304.16" y="-69" font-family="Times,serif" font-size="14.00">[7, 3]</text>
</g>
<!-- 1&#45;&gt;6 -->
<g id="edge2" class="edge">
<title>1&#45;&gt;6</title>
<path fill="none" stroke="black" stroke-width="0.75" d="M304.16,-121.1C304.16,-112.73 304.16,-101.39 304.16,-91.96"/>
<polygon fill="black" stroke="black" stroke-width="0.75" points="305.91,-92.22 304.16,-87.22 302.41,-92.22 305.91,-92.22"/>
</g>
<!-- 10 -->
<g id="node10" class="node">
<title>10</title>
<polygon fill="none" stroke="black" points="500.32,-85.6 454,-85.6 454,-60.8 500.32,-60.8 500.32,-85.6"/>
<text text-anchor="middle" x="477.16" y="-69" font-family="Times,serif" font-size="14.00">[5, 1]</text>
</g>
<!-- 1&#45;&gt;10 -->
<g id="edge3" class="edge">
<title>1&#45;&gt;10</title>
<path fill="none" stroke="black" stroke-width="0.75" d="M327.49,-125.07C358.71,-114.46 414.05,-95.65 447.98,-84.12"/>
<polygon fill="black" stroke="black" stroke-width="0.75" points="448.4,-85.82 452.57,-82.56 447.28,-82.51 448.4,-85.82"/>
</g>
<!-- 3 -->
<g id="node3" class="node">
<title>3</title>
<polygon fill="none" stroke="black" points="46.32,-24.8 0,-24.8 0,0 46.32,0 46.32,-24.8"/>
<text text-anchor="middle" x="23.16" y="-8.2" font-family="Times,serif" font-size="14.00">[7, 5]</text>
</g>
<!-- 2&#45;&gt;3 -->
<g id="edge4" class="edge">
<title>2&#45;&gt;3</title>
<path fill="none" stroke="black" stroke-width="0.75" d="M106.12,-60.3C89.76,-51.06 66.99,-38.18 49.44,-28.26"/>
<polygon fill="black" stroke="black" stroke-width="0.75" points="50.38,-26.78 45.16,-25.84 48.66,-29.82 50.38,-26.78"/>
</g>
<!-- 4 -->
<g id="node4" class="node">
<title>4</title>
<polygon fill="none" stroke="black" points="117.82,-24.8 64.5,-24.8 64.5,0 117.82,0 117.82,-24.8"/>
<text text-anchor="middle" x="91.16" y="-8.2" font-family="Times,serif" font-size="14.00">[13, 5]</text>
</g>
<!-- 2&#45;&gt;4 -->
<g id="edge5" class="edge">
<title>2&#45;&gt;4</title>
<path fill="none" stroke="black" stroke-width="0.75" d="M119.88,-60.3C114.61,-51.69 107.41,-39.94 101.54,-30.35"/>
<polygon fill="black" stroke="black" stroke-width="0.75" points="103.13,-29.6 99.03,-26.25 100.15,-31.43 103.13,-29.6"/>
</g>
<!-- 5 -->
<g id="node5" class="node">
<title>5</title>
<polygon fill="none" stroke="black" points="188.82,-24.8 135.5,-24.8 135.5,0 188.82,0 188.82,-24.8"/>
<text text-anchor="middle" x="162.16" y="-8.2" font-family="Times,serif" font-size="14.00">[11, 3]</text>
</g>
<!-- 2&#45;&gt;5 -->
<g id="edge6" class="edge">
<title>2&#45;&gt;5</title>
<path fill="none" stroke="black" stroke-width="0.75" d="M134.24,-60.3C139.37,-51.69 146.37,-39.94 152.07,-30.35"/>
<polygon fill="black" stroke="black" stroke-width="0.75" points="153.46,-31.45 154.51,-26.26 150.45,-29.66 153.46,-31.45"/>
</g>
<!-- 7 -->
<g id="node7" class="node">
<title>7</title>
<polygon fill="none" stroke="black" points="259.82,-24.8 206.5,-24.8 206.5,0 259.82,0 259.82,-24.8"/>
<text text-anchor="middle" x="233.16" y="-8.2" font-family="Times,serif" font-size="14.00">[11, 7]</text>
</g>
<!-- 6&#45;&gt;7 -->
<g id="edge7" class="edge">
<title>6&#45;&gt;7</title>
<path fill="none" stroke="black" stroke-width="0.75" d="M289.79,-60.3C278.92,-51.29 263.89,-38.84 252.04,-29.03"/>
<polygon fill="black" stroke="black" stroke-width="0.75" points="253.35,-27.85 248.38,-26.01 251.12,-30.54 253.35,-27.85"/>
</g>
<!-- 8 -->
<g id="node8" class="node">
<title>8</title>
<polygon fill="none" stroke="black" points="330.82,-24.8 277.5,-24.8 277.5,0 330.82,0 330.82,-24.8"/>
<text text-anchor="middle" x="304.16" y="-8.2" font-family="Times,serif" font-size="14.00">[17, 7]</text>
</g>
<!-- 6&#45;&gt;8 -->
<g id="edge8" class="edge">
<title>6&#45;&gt;8</title>
<path fill="none" stroke="black" stroke-width="0.75" d="M304.16,-60.3C304.16,-51.93 304.16,-40.59 304.16,-31.16"/>
<polygon fill="black" stroke="black" stroke-width="0.75" points="305.91,-31.42 304.16,-26.42 302.41,-31.42 305.91,-31.42"/>
</g>
<!-- 9 -->
<g id="node9" class="node">
<title>9</title>
<polygon fill="none" stroke="black" points="401.82,-24.8 348.5,-24.8 348.5,0 401.82,0 401.82,-24.8"/>
<text text-anchor="middle" x="375.16" y="-8.2" font-family="Times,serif" font-size="14.00">[13, 3]</text>
</g>
<!-- 6&#45;&gt;9 -->
<g id="edge9" class="edge">
<title>6&#45;&gt;9</title>
<path fill="none" stroke="black" stroke-width="0.75" d="M318.53,-60.3C329.4,-51.29 344.44,-38.84 356.28,-29.03"/>
<polygon fill="black" stroke="black" stroke-width="0.75" points="357.21,-30.54 359.94,-26.01 354.97,-27.85 357.21,-30.54"/>
</g>
<!-- 11 -->
<g id="node11" class="node">
<title>11</title>
<polygon fill="none" stroke="black" points="466.32,-24.8 420,-24.8 420,0 466.32,0 466.32,-24.8"/>
<text text-anchor="middle" x="443.16" y="-8.2" font-family="Times,serif" font-size="14.00">[9, 5]</text>
</g>
<!-- 10&#45;&gt;11 -->
<g id="edge10" class="edge">
<title>10&#45;&gt;11</title>
<path fill="none" stroke="black" stroke-width="0.75" d="M470.28,-60.3C465.3,-51.69 458.51,-39.94 452.96,-30.35"/>
<polygon fill="black" stroke="black" stroke-width="0.75" points="454.62,-29.72 450.6,-26.26 451.59,-31.47 454.62,-29.72"/>
</g>
<!-- 12 -->
<g id="node12" class="node">
<title>12</title>
<polygon fill="none" stroke="black" points="537.82,-24.8 484.5,-24.8 484.5,0 537.82,0 537.82,-24.8"/>
<text text-anchor="middle" x="511.16" y="-8.2" font-family="Times,serif" font-size="14.00">[11, 5]</text>
</g>
<!-- 10&#45;&gt;12 -->
<g id="edge11" class="edge">
<title>10&#45;&gt;12</title>
<path fill="none" stroke="black" stroke-width="0.75" d="M484.04,-60.3C489.02,-51.69 495.82,-39.94 501.36,-30.35"/>
<polygon fill="black" stroke="black" stroke-width="0.75" points="502.74,-31.47 503.72,-26.26 499.71,-29.72 502.74,-31.47"/>
</g>
<!-- 13 -->
<g id="node13" class="node">
<title>13</title>
<polygon fill="none" stroke="black" points="602.32,-24.8 556,-24.8 556,0 602.32,0 602.32,-24.8"/>
<text text-anchor="middle" x="579.16" y="-8.2" font-family="Times,serif" font-size="14.00">[7, 1]</text>
</g>
<!-- 10&#45;&gt;13 -->
<g id="edge12" class="edge">
<title>10&#45;&gt;13</title>
<path fill="none" stroke="black" stroke-width="0.75" d="M497.8,-60.3C513.84,-51.06 536.18,-38.18 553.39,-28.26"/>
<polygon fill="black" stroke="black" stroke-width="0.75" points="554.11,-29.86 557.57,-25.85 552.36,-26.83 554.11,-29.86"/>
</g>
</g>
</svg>
