<svg xmlns="http://www.w3.org/2000/svg" width="161.8" height="100.0" viewBox="-4.6 -3.6 171.8 110.0">
<g fill="none" stroke="black" stroke-width="0.3450%" transform="translate(0, 102.8986) scale(1.4493, -1.4493)">
<circle cx="0.3" cy="1.0" r="0.3" />
<circle cx="0.6" cy="2.0" r="0.3" />
<circle cx="0.9" cy="2.0" r="0.3" />
<circle cx="1.2" cy="1.0" r="0.3" />
<circle cx="1.5" cy="3.0" r="0.3" />
<circle cx="1.8" cy="3.0" r="0.3" />
<circle cx="2.2" cy="2.0" r="0.3" />
<circle cx="2.5" cy="5.0" r="0.3" />
<circle cx="2.8" cy="5.0" r="0.3" />
<circle cx="3.1" cy="2.0" r="0.3" />
<circle cx="3.4" cy="4.0" r="0.3" />
<circle cx="3.7" cy="4.0" r="0.3" />
<circle cx="4.0" cy="1.0" r="0.3" />
<circle cx="4.3" cy="4.0" r="0.3" />
<circle cx="4.6" cy="4.0" r="0.3" />
<circle cx="4.9" cy="3.0" r="0.3" />
<circle cx="5.2" cy="8.0" r="0.3" />
<circle cx="5.5" cy="8.0" r="0.3" />
<circle cx="5.8" cy="3.0" r="0.3" />
<circle cx="6.2" cy="7.0" r="0.3" />
<circle cx="6.5" cy="7.0" r="0.3" />
<circle cx="6.8" cy="2.0" r="0.3" />
<circle cx="7.1" cy="8.0" r="0.3" />
<circle cx="7.4" cy="8.0" r="0.3" />
<circle cx="7.7" cy="5.0" r="0.3" />
<circle cx="8.0" cy="12.0" r="0.3" />
<circle cx="8.3" cy="12.0" r="0.3" />
<circle cx="8.6" cy="5.0" r="0.3" />
<circle cx="8.9" cy="9.0" r="0.3" />
<circle cx="9.2" cy="9.0" r="0.3" />
<circle cx="9.5" cy="2.0" r="0.3" />
<circle cx="9.8" cy="7.0" r="0.3" />
<circle cx="10.1" cy="7.0" r="0.3" />
<circle cx="10.5" cy="4.0" r="0.3" />
<circle cx="10.8" cy="9.0" r="0.3" />
<circle cx="11.1" cy="9.0" r="0.3" />
<circle cx="11.4" cy="4.0" r="0.3" />
<circle cx="11.7" cy="6.0" r="0.3" />
<circle cx="12.0" cy="6.0" r="0.3" />
<circle cx="12.3" cy="1.0" r="0.3" />
<circle cx="12.6" cy="5.0" r="0.3" />
<circle cx="12.9" cy="5.0" r="0.3" />
<circle cx="13.2" cy="4.0" r="0.3" />
<circle cx="13.5" cy="11.0" r="0.3" />
<circle cx="13.8" cy="11.0" r="0.3" />
<circle cx="14.1" cy="4.0" r="0.3" />
<circle cx="14.5" cy="10.0" r="0.3" />
<circle cx="14.8" cy="10.0" r="0.3" />
<circle cx="15.1" cy="3.0" r="0.3" />
<circle cx="15.4" cy="13.0" r="0.3" />
<circle cx="15.7" cy="13.0" r="0.3" />
<circle cx="16.0" cy="8.0" r="0.3" />
<circle cx="16.3" cy="19.0" r="0.3" />
<circle cx="16.6" cy="19.0" r="0.3" />
<circle cx="16.9" cy="8.0" r="0.3" />
<circle cx="17.2" cy="14.0" r="0.3" />
<circle cx="17.5" cy="14.0" r="0.3" />
<circle cx="17.8" cy="3.0" r="0.3" />
<circle cx="18.1" cy="12.0" r="0.3" />
<circle cx="18.5" cy="12.0" r="0.3" />
<circle cx="18.8" cy="7.0" r="0.3" />
<circle cx="19.1" cy="16.0" r="0.3" />
<circle cx="19.4" cy="16.0" r="0.3" />
<circle cx="19.7" cy="7.0" r="0.3" />
<circle cx="20.0" cy="11.0" r="0.3" />
<circle cx="20.3" cy="11.0" r="0.3" />
<circle cx="20.6" cy="2.0" r="0.3" />
<circle cx="20.9" cy="11.0" r="0.3" />
<circle cx="21.2" cy="11.0" r="0.3" />
<circle cx="21.5" cy="8.0" r="0.3" />
<circle cx="21.8" cy="21.0" r="0.3" />
<circle cx="22.1" cy="21.0" r="0.3" />
<circle cx="22.5" cy="8.0" r="0.3" />
<circle cx="22.8" cy="18.0" r="0.3" />
<circle cx="23.1" cy="18.0" r="0.3" />
<circle cx="23.4" cy="5.0" r="0.3" />
<circle cx="23.7" cy="19.0" r="0.3" />
<circle cx="24.0" cy="19.0" r="0.3" />
<circle cx="24.3" cy="12.0" r="0.3" />
<circle cx="24.6" cy="29.0" r="0.3" />
<circle cx="24.9" cy="29.0" r="0.3" />
<circle cx="25.2" cy="12.0" r="0.3" />
<circle cx="25.5" cy="22.0" r="0.3" />
<circle cx="25.8" cy="22.0" r="0.3" />
<circle cx="26.1" cy="5.0" r="0.3" />
<circle cx="26.5" cy="16.0" r="0.3" />
<circle cx="26.8" cy="16.0" r="0.3" />
<circle cx="27.1" cy="9.0" r="0.3" />
<circle cx="27.4" cy="20.0" r="0.3" />
<circle cx="27.7" cy="20.0" r="0.3" />
<circle cx="28.0" cy="9.0" r="0.3" />
<circle cx="28.3" cy="13.0" r="0.3" />
<circle cx="28.6" cy="13.0" r="0.3" />
<circle cx="28.9" cy="2.0" r="0.3" />
<circle cx="29.2" cy="10.0" r="0.3" />
<circle cx="29.5" cy="10.0" r="0.3" />
<circle cx="29.8" cy="7.0" r="0.3" />
<circle cx="30.1" cy="18.0" r="0.3" />
<circle cx="30.4" cy="18.0" r="0.3" />
<circle cx="30.8" cy="7.0" r="0.3" />
<circle cx="31.1" cy="15.0" r="0.3" />
<circle cx="31.4" cy="15.0" r="0.3" />
<circle cx="31.7" cy="4.0" r="0.3" />
<circle cx="32.0" cy="14.0" r="0.3" />
<circle cx="32.3" cy="14.0" r="0.3" />
<circle cx="32.6" cy="9.0" r="0.3" />
<circle cx="32.9" cy="22.0" r="0.3" />
<circle cx="33.2" cy="22.0" r="0.3" />
<circle cx="33.5" cy="9.0" r="0.3" />
<circle cx="33.8" cy="17.0" r="0.3" />
<circle cx="34.1" cy="17.0" r="0.3" />
<circle cx="34.4" cy="4.0" r="0.3" />
<circle cx="34.8" cy="11.0" r="0.3" />
<circle cx="35.1" cy="11.0" r="0.3" />
<circle cx="35.4" cy="6.0" r="0.3" />
<circle cx="35.7" cy="13.0" r="0.3" />
<circle cx="36.0" cy="13.0" r="0.3" />
<circle cx="36.3" cy="6.0" r="0.3" />
<circle cx="36.6" cy="8.0" r="0.3" />
<circle cx="36.9" cy="8.0" r="0.3" />
<circle cx="37.2" cy="1.0" r="0.3" />
<circle cx="37.5" cy="6.0" r="0.3" />
<circle cx="37.8" cy="6.0" r="0.3" />
<circle cx="38.1" cy="5.0" r="0.3" />
<circle cx="38.4" cy="14.0" r="0.3" />
<circle cx="38.8" cy="14.0" r="0.3" />
<circle cx="39.1" cy="5.0" r="0.3" />
<circle cx="39.4" cy="13.0" r="0.3" />
<circle cx="39.7" cy="13.0" r="0.3" />
<circle cx="40.0" cy="4.0" r="0.3" />
<circle cx="40.3" cy="18.0" r="0.3" />
<circle cx="40.6" cy="18.0" r="0.3" />
<circle cx="40.9" cy="11.0" r="0.3" />
<circle cx="41.2" cy="26.0" r="0.3" />
<circle cx="41.5" cy="26.0" r="0.3" />
<circle cx="41.8" cy="11.0" r="0.3" />
<circle cx="42.1" cy="19.0" r="0.3" />
<circle cx="42.4" cy="19.0" r="0.3" />
<circle cx="42.8" cy="4.0" r="0.3" />
<circle cx="43.1" cy="17.0" r="0.3" />
<circle cx="43.4" cy="17.0" r="0.3" />
<circle cx="43.7" cy="10.0" r="0.3" />
<circle cx="44.0" cy="23.0" r="0.3" />
<circle cx="44.3" cy="23.0" r="0.3" />
<circle cx="44.6" cy="10.0" r="0.3" />
<circle cx="44.9" cy="16.0" r="0.3" />
<circle cx="45.2" cy="16.0" r="0.3" />
<circle cx="45.5" cy="3.0" r="0.3" />
<circle cx="45.8" cy="18.0" r="0.3" />
<circle cx="46.1" cy="18.0" r="0.3" />
<circle cx="46.4" cy="13.0" r="0.3" />
<circle cx="46.7" cy="34.0" r="0.3" />
<circle cx="47.1" cy="34.0" r="0.3" />
<circle cx="47.4" cy="13.0" r="0.3" />
<circle cx="47.7" cy="29.0" r="0.3" />
<circle cx="48.0" cy="29.0" r="0.3" />
<circle cx="48.3" cy="8.0" r="0.3" />
<circle cx="48.6" cy="30.0" r="0.3" />
<circle cx="48.9" cy="30.0" r="0.3" />
<circle cx="49.2" cy="19.0" r="0.3" />
<circle cx="49.5" cy="46.0" r="0.3" />
<circle cx="49.8" cy="46.0" r="0.3" />
<circle cx="50.1" cy="19.0" r="0.3" />
<circle cx="50.4" cy="35.0" r="0.3" />
<circle cx="50.7" cy="35.0" r="0.3" />
<circle cx="51.1" cy="8.0" r="0.3" />
<circle cx="51.4" cy="25.0" r="0.3" />
<circle cx="51.7" cy="25.0" r="0.3" />
<circle cx="52.0" cy="14.0" r="0.3" />
<circle cx="52.3" cy="31.0" r="0.3" />
<circle cx="52.6" cy="31.0" r="0.3" />
<circle cx="52.9" cy="14.0" r="0.3" />
<circle cx="53.2" cy="20.0" r="0.3" />
<circle cx="53.5" cy="20.0" r="0.3" />
<circle cx="53.8" cy="3.0" r="0.3" />
<circle cx="54.1" cy="17.0" r="0.3" />
<circle cx="54.4" cy="17.0" r="0.3" />
<circle cx="54.7" cy="12.0" r="0.3" />
<circle cx="55.1" cy="31.0" r="0.3" />
<circle cx="55.4" cy="31.0" r="0.3" />
<circle cx="55.7" cy="12.0" r="0.3" />
<circle cx="56.0" cy="26.0" r="0.3" />
<circle cx="56.3" cy="26.0" r="0.3" />
<circle cx="56.6" cy="7.0" r="0.3" />
<circle cx="56.9" cy="25.0" r="0.3" />
<circle cx="57.2" cy="25.0" r="0.3" />
<circle cx="57.5" cy="16.0" r="0.3" />
<circle cx="57.8" cy="39.0" r="0.3" />
<circle cx="58.1" cy="39.0" r="0.3" />
<circle cx="58.4" cy="16.0" r="0.3" />
<circle cx="58.7" cy="30.0" r="0.3" />
<circle cx="59.1" cy="30.0" r="0.3" />
<circle cx="59.4" cy="7.0" r="0.3" />
<circle cx="59.7" cy="20.0" r="0.3" />
<circle cx="60.0" cy="20.0" r="0.3" />
<circle cx="60.3" cy="11.0" r="0.3" />
<circle cx="60.6" cy="24.0" r="0.3" />
<circle cx="60.9" cy="24.0" r="0.3" />
<circle cx="61.2" cy="11.0" r="0.3" />
<circle cx="61.5" cy="15.0" r="0.3" />
<circle cx="61.8" cy="15.0" r="0.3" />
<circle cx="62.1" cy="2.0" r="0.3" />
<circle cx="62.4" cy="14.0" r="0.3" />
<circle cx="62.7" cy="14.0" r="0.3" />
<circle cx="63.0" cy="11.0" r="0.3" />
<circle cx="63.4" cy="30.0" r="0.3" />
<circle cx="63.7" cy="30.0" r="0.3" />
<circle cx="64.0" cy="11.0" r="0.3" />
<circle cx="64.3" cy="27.0" r="0.3" />
<circle cx="64.6" cy="27.0" r="0.3" />
<circle cx="64.9" cy="8.0" r="0.3" />
<circle cx="65.2" cy="34.0" r="0.3" />
<circle cx="65.5" cy="34.0" r="0.3" />
<circle cx="65.8" cy="21.0" r="0.3" />
<circle cx="66.1" cy="50.0" r="0.3" />
<circle cx="66.4" cy="50.0" r="0.3" />
<circle cx="66.7" cy="21.0" r="0.3" />
<circle cx="67.0" cy="37.0" r="0.3" />
<circle cx="67.4" cy="37.0" r="0.3" />
<circle cx="67.7" cy="8.0" r="0.3" />
<circle cx="68.0" cy="31.0" r="0.3" />
<circle cx="68.3" cy="31.0" r="0.3" />
<circle cx="68.6" cy="18.0" r="0.3" />
<circle cx="68.9" cy="41.0" r="0.3" />
<circle cx="69.2" cy="41.0" r="0.3" />
<circle cx="69.5" cy="18.0" r="0.3" />
<circle cx="69.8" cy="28.0" r="0.3" />
<circle cx="70.1" cy="28.0" r="0.3" />
<circle cx="70.4" cy="5.0" r="0.3" />
<circle cx="70.7" cy="26.0" r="0.3" />
<circle cx="71.0" cy="26.0" r="0.3" />
<circle cx="71.4" cy="19.0" r="0.3" />
<circle cx="71.7" cy="50.0" r="0.3" />
<circle cx="72.0" cy="50.0" r="0.3" />
<circle cx="72.3" cy="19.0" r="0.3" />
<circle cx="72.6" cy="43.0" r="0.3" />
<circle cx="72.9" cy="43.0" r="0.3" />
<circle cx="73.2" cy="12.0" r="0.3" />
<circle cx="73.5" cy="46.0" r="0.3" />
<circle cx="73.8" cy="46.0" r="0.3" />
<circle cx="74.1" cy="29.0" r="0.3" />
<circle cx="74.4" cy="70.0" r="0.3" />
<circle cx="74.7" cy="70.0" r="0.3" />
<circle cx="75.0" cy="29.0" r="0.3" />
<circle cx="75.4" cy="53.0" r="0.3" />
<circle cx="75.7" cy="53.0" r="0.3" />
<circle cx="76.0" cy="12.0" r="0.3" />
<circle cx="76.3" cy="39.0" r="0.3" />
<circle cx="76.6" cy="39.0" r="0.3" />
<circle cx="76.9" cy="22.0" r="0.3" />
<circle cx="77.2" cy="49.0" r="0.3" />
<circle cx="77.5" cy="49.0" r="0.3" />
<circle cx="77.8" cy="22.0" r="0.3" />
<circle cx="78.1" cy="32.0" r="0.3" />
<circle cx="78.4" cy="32.0" r="0.3" />
<circle cx="78.7" cy="5.0" r="0.3" />
<circle cx="79.0" cy="23.0" r="0.3" />
<circle cx="79.4" cy="23.0" r="0.3" />
<circle cx="79.7" cy="16.0" r="0.3" />
<circle cx="80.0" cy="41.0" r="0.3" />
<circle cx="80.3" cy="41.0" r="0.3" />
<circle cx="80.6" cy="16.0" r="0.3" />
<circle cx="80.9" cy="34.0" r="0.3" />
<circle cx="81.2" cy="34.0" r="0.3" />
<circle cx="81.5" cy="9.0" r="0.3" />
<circle cx="81.8" cy="31.0" r="0.3" />
<circle cx="82.1" cy="31.0" r="0.3" />
<circle cx="82.4" cy="20.0" r="0.3" />
<circle cx="82.7" cy="49.0" r="0.3" />
<circle cx="83.0" cy="49.0" r="0.3" />
<circle cx="83.3" cy="20.0" r="0.3" />
<circle cx="83.7" cy="38.0" r="0.3" />
<circle cx="84.0" cy="38.0" r="0.3" />
<circle cx="84.3" cy="9.0" r="0.3" />
<circle cx="84.6" cy="24.0" r="0.3" />
<circle cx="84.9" cy="24.0" r="0.3" />
<circle cx="85.2" cy="13.0" r="0.3" />
<circle cx="85.5" cy="28.0" r="0.3" />
<circle cx="85.8" cy="28.0" r="0.3" />
<circle cx="86.1" cy="13.0" r="0.3" />
<circle cx="86.4" cy="17.0" r="0.3" />
<circle cx="86.7" cy="17.0" r="0.3" />
<circle cx="87.0" cy="2.0" r="0.3" />
<circle cx="87.3" cy="13.0" r="0.3" />
<circle cx="87.7" cy="13.0" r="0.3" />
<circle cx="88.0" cy="10.0" r="0.3" />
<circle cx="88.3" cy="27.0" r="0.3" />
<circle cx="88.6" cy="27.0" r="0.3" />
<circle cx="88.9" cy="10.0" r="0.3" />
<circle cx="89.2" cy="24.0" r="0.3" />
<circle cx="89.5" cy="24.0" r="0.3" />
<circle cx="89.8" cy="7.0" r="0.3" />
<circle cx="90.1" cy="29.0" r="0.3" />
<circle cx="90.4" cy="29.0" r="0.3" />
<circle cx="90.7" cy="18.0" r="0.3" />
<circle cx="91.0" cy="43.0" r="0.3" />
<circle cx="91.3" cy="43.0" r="0.3" />
<circle cx="91.7" cy="18.0" r="0.3" />
<circle cx="92.0" cy="32.0" r="0.3" />
<circle cx="92.3" cy="32.0" r="0.3" />
<circle cx="92.6" cy="7.0" r="0.3" />
<circle cx="92.9" cy="26.0" r="0.3" />
<circle cx="93.2" cy="26.0" r="0.3" />
<circle cx="93.5" cy="15.0" r="0.3" />
<circle cx="93.8" cy="34.0" r="0.3" />
<circle cx="94.1" cy="34.0" r="0.3" />
<circle cx="94.4" cy="15.0" r="0.3" />
<circle cx="94.7" cy="23.0" r="0.3" />
<circle cx="95.0" cy="23.0" r="0.3" />
<circle cx="95.3" cy="4.0" r="0.3" />
<circle cx="95.7" cy="19.0" r="0.3" />
<circle cx="96.0" cy="19.0" r="0.3" />
<circle cx="96.3" cy="14.0" r="0.3" />
<circle cx="96.6" cy="37.0" r="0.3" />
<circle cx="96.9" cy="37.0" r="0.3" />
<circle cx="97.2" cy="14.0" r="0.3" />
<circle cx="97.5" cy="32.0" r="0.3" />
<circle cx="97.8" cy="32.0" r="0.3" />
<circle cx="98.1" cy="9.0" r="0.3" />
<circle cx="98.4" cy="35.0" r="0.3" />
<circle cx="98.7" cy="35.0" r="0.3" />
<circle cx="99.0" cy="22.0" r="0.3" />
<circle cx="99.3" cy="53.0" r="0.3" />
<circle cx="99.6" cy="53.0" r="0.3" />
<circle cx="100.0" cy="22.0" r="0.3" />
<circle cx="100.3" cy="40.0" r="0.3" />
<circle cx="100.6" cy="40.0" r="0.3" />
<circle cx="100.9" cy="9.0" r="0.3" />
<circle cx="101.2" cy="30.0" r="0.3" />
<circle cx="101.5" cy="30.0" r="0.3" />
<circle cx="101.8" cy="17.0" r="0.3" />
<circle cx="102.1" cy="38.0" r="0.3" />
<circle cx="102.4" cy="38.0" r="0.3" />
<circle cx="102.7" cy="17.0" r="0.3" />
<circle cx="103.0" cy="25.0" r="0.3" />
<circle cx="103.3" cy="25.0" r="0.3" />
<circle cx="103.6" cy="4.0" r="0.3" />
<circle cx="104.0" cy="16.0" r="0.3" />
<circle cx="104.3" cy="16.0" r="0.3" />
<circle cx="104.6" cy="11.0" r="0.3" />
<circle cx="104.9" cy="28.0" r="0.3" />
<circle cx="105.2" cy="28.0" r="0.3" />
<circle cx="105.5" cy="11.0" r="0.3" />
<circle cx="105.8" cy="23.0" r="0.3" />
<circle cx="106.1" cy="23.0" r="0.3" />
<circle cx="106.4" cy="6.0" r="0.3" />
<circle cx="106.7" cy="20.0" r="0.3" />
<circle cx="107.0" cy="20.0" r="0.3" />
<circle cx="107.3" cy="13.0" r="0.3" />
<circle cx="107.6" cy="32.0" r="0.3" />
<circle cx="108.0" cy="32.0" r="0.3" />
<circle cx="108.3" cy="13.0" r="0.3" />
<circle cx="108.6" cy="25.0" r="0.3" />
<circle cx="108.9" cy="25.0" r="0.3" />
<circle cx="109.2" cy="6.0" r="0.3" />
<circle cx="109.5" cy="15.0" r="0.3" />
<circle cx="109.8" cy="15.0" r="0.3" />
<circle cx="110.1" cy="8.0" r="0.3" />
<circle cx="110.4" cy="17.0" r="0.3" />
<circle cx="110.7" cy="17.0" r="0.3" />
<circle cx="111.0" cy="8.0" r="0.3" />
<circle cx="111.3" cy="10.0" r="0.3" />
<circle cx="111.6" cy="10.0" r="0.3" />
<circle cx="112.0" cy="1.0" r="0.3" />
</g>
</svg>