<svg xmlns="http://www.w3.org/2000/svg" width="161.8" height="100.0" viewBox="-4.6 -3.7 171.8 110.0">
<g fill="none" stroke="black" stroke-width="1.1800%" transform="translate(0, 102.5424) scale(0.4237, -0.4237)">
<circle cx="1.1" cy="3.0" r="1.2" />
<circle cx="2.1" cy="5.0" r="1.2" />
<circle cx="3.2" cy="7.0" r="1.2" />
<circle cx="4.2" cy="5.0" r="1.2" />
<circle cx="5.3" cy="7.0" r="1.2" />
<circle cx="6.3" cy="13.0" r="1.2" />
<circle cx="7.4" cy="11.0" r="1.2" />
<circle cx="8.4" cy="11.0" r="1.2" />
<circle cx="9.5" cy="17.0" r="1.2" />
<circle cx="10.5" cy="13.0" r="1.2" />
<circle cx="11.6" cy="9.0" r="1.2" />
<circle cx="12.6" cy="11.0" r="1.2" />
<circle cx="13.7" cy="7.0" r="1.2" />
<circle cx="14.7" cy="9.0" r="1.2" />
<circle cx="15.8" cy="19.0" r="1.2" />
<circle cx="16.8" cy="17.0" r="1.2" />
<circle cx="17.9" cy="21.0" r="1.2" />
<circle cx="18.9" cy="31.0" r="1.2" />
<circle cx="20.0" cy="23.0" r="1.2" />
<circle cx="21.0" cy="19.0" r="1.2" />
<circle cx="22.1" cy="25.0" r="1.2" />
<circle cx="23.1" cy="17.0" r="1.2" />
<circle cx="24.2" cy="15.0" r="1.2" />
<circle cx="25.2" cy="29.0" r="1.2" />
<circle cx="26.3" cy="25.0" r="1.2" />
<circle cx="27.4" cy="27.0" r="1.2" />
<circle cx="28.4" cy="41.0" r="1.2" />
<circle cx="29.5" cy="31.0" r="1.2" />
<circle cx="30.5" cy="23.0" r="1.2" />
<circle cx="31.6" cy="29.0" r="1.2" />
<circle cx="32.6" cy="19.0" r="1.2" />
<circle cx="33.7" cy="13.0" r="1.2" />
<circle cx="34.7" cy="23.0" r="1.2" />
<circle cx="35.8" cy="19.0" r="1.2" />
<circle cx="36.8" cy="17.0" r="1.2" />
<circle cx="37.9" cy="27.0" r="1.2" />
<circle cx="38.9" cy="21.0" r="1.2" />
<circle cx="40.0" cy="13.0" r="1.2" />
<circle cx="41.0" cy="15.0" r="1.2" />
<circle cx="42.1" cy="9.0" r="1.2" />
<circle cx="43.1" cy="11.0" r="1.2" />
<circle cx="44.2" cy="25.0" r="1.2" />
<circle cx="45.2" cy="23.0" r="1.2" />
<circle cx="46.3" cy="31.0" r="1.2" />
<circle cx="47.3" cy="45.0" r="1.2" />
<circle cx="48.4" cy="33.0" r="1.2" />
<circle cx="49.4" cy="29.0" r="1.2" />
<circle cx="50.5" cy="39.0" r="1.2" />
<circle cx="51.5" cy="27.0" r="1.2" />
<circle cx="52.6" cy="29.0" r="1.2" />
<circle cx="53.6" cy="55.0" r="1.2" />
<circle cx="54.7" cy="47.0" r="1.2" />
<circle cx="55.8" cy="49.0" r="1.2" />
<circle cx="56.8" cy="75.0" r="1.2" />
<circle cx="57.9" cy="57.0" r="1.2" />
<circle cx="58.9" cy="41.0" r="1.2" />
<circle cx="60.0" cy="51.0" r="1.2" />
<circle cx="61.0" cy="33.0" r="1.2" />
<circle cx="62.1" cy="27.0" r="1.2" />
<circle cx="63.1" cy="49.0" r="1.2" />
<circle cx="64.2" cy="41.0" r="1.2" />
<circle cx="65.2" cy="39.0" r="1.2" />
<circle cx="66.3" cy="61.0" r="1.2" />
<circle cx="67.3" cy="47.0" r="1.2" />
<circle cx="68.4" cy="31.0" r="1.2" />
<circle cx="69.4" cy="37.0" r="1.2" />
<circle cx="70.5" cy="23.0" r="1.2" />
<circle cx="71.5" cy="19.0" r="1.2" />
<circle cx="72.6" cy="41.0" r="1.2" />
<circle cx="73.6" cy="37.0" r="1.2" />
<circle cx="74.7" cy="47.0" r="1.2" />
<circle cx="75.7" cy="69.0" r="1.2" />
<circle cx="76.8" cy="51.0" r="1.2" />
<circle cx="77.8" cy="43.0" r="1.2" />
<circle cx="78.9" cy="57.0" r="1.2" />
<circle cx="79.9" cy="39.0" r="1.2" />
<circle cx="81.0" cy="37.0" r="1.2" />
<circle cx="82.1" cy="71.0" r="1.2" />
<circle cx="83.1" cy="61.0" r="1.2" />
<circle cx="84.2" cy="65.0" r="1.2" />
<circle cx="85.2" cy="99.0" r="1.2" />
<circle cx="86.3" cy="75.0" r="1.2" />
<circle cx="87.3" cy="55.0" r="1.2" />
<circle cx="88.4" cy="69.0" r="1.2" />
<circle cx="89.4" cy="45.0" r="1.2" />
<circle cx="90.5" cy="33.0" r="1.2" />
<circle cx="91.5" cy="59.0" r="1.2" />
<circle cx="92.6" cy="49.0" r="1.2" />
<circle cx="93.6" cy="45.0" r="1.2" />
<circle cx="94.7" cy="71.0" r="1.2" />
<circle cx="95.7" cy="55.0" r="1.2" />
<circle cx="96.8" cy="35.0" r="1.2" />
<circle cx="97.8" cy="41.0" r="1.2" />
<circle cx="98.9" cy="25.0" r="1.2" />
<circle cx="99.9" cy="17.0" r="1.2" />
<circle cx="101.0" cy="35.0" r="1.2" />
<circle cx="102.0" cy="31.0" r="1.2" />
<circle cx="103.1" cy="37.0" r="1.2" />
<circle cx="104.1" cy="55.0" r="1.2" />
<circle cx="105.2" cy="41.0" r="1.2" />
<circle cx="106.2" cy="33.0" r="1.2" />
<circle cx="107.3" cy="43.0" r="1.2" />
<circle cx="108.4" cy="29.0" r="1.2" />
<circle cx="109.4" cy="23.0" r="1.2" />
<circle cx="110.5" cy="45.0" r="1.2" />
<circle cx="111.5" cy="39.0" r="1.2" />
<circle cx="112.6" cy="43.0" r="1.2" />
<circle cx="113.6" cy="65.0" r="1.2" />
<circle cx="114.7" cy="49.0" r="1.2" />
<circle cx="115.7" cy="37.0" r="1.2" />
<circle cx="116.8" cy="47.0" r="1.2" />
<circle cx="117.8" cy="31.0" r="1.2" />
<circle cx="118.9" cy="19.0" r="1.2" />
<circle cx="119.9" cy="33.0" r="1.2" />
<circle cx="121.0" cy="27.0" r="1.2" />
<circle cx="122.0" cy="23.0" r="1.2" />
<circle cx="123.1" cy="37.0" r="1.2" />
<circle cx="124.1" cy="29.0" r="1.2" />
<circle cx="125.2" cy="17.0" r="1.2" />
<circle cx="126.2" cy="19.0" r="1.2" />
<circle cx="127.3" cy="11.0" r="1.2" />
<circle cx="128.3" cy="13.0" r="1.2" />
<circle cx="129.4" cy="31.0" r="1.2" />
<circle cx="130.4" cy="29.0" r="1.2" />
<circle cx="131.5" cy="41.0" r="1.2" />
<circle cx="132.5" cy="59.0" r="1.2" />
<circle cx="133.6" cy="43.0" r="1.2" />
<circle cx="134.6" cy="39.0" r="1.2" />
<circle cx="135.7" cy="53.0" r="1.2" />
<circle cx="136.8" cy="37.0" r="1.2" />
<circle cx="137.8" cy="43.0" r="1.2" />
<circle cx="138.9" cy="81.0" r="1.2" />
<circle cx="139.9" cy="69.0" r="1.2" />
<circle cx="141.0" cy="71.0" r="1.2" />
<circle cx="142.0" cy="109.0" r="1.2" />
<circle cx="143.1" cy="83.0" r="1.2" />
<circle cx="144.1" cy="59.0" r="1.2" />
<circle cx="145.2" cy="73.0" r="1.2" />
<circle cx="146.2" cy="47.0" r="1.2" />
<circle cx="147.3" cy="41.0" r="1.2" />
<circle cx="148.3" cy="75.0" r="1.2" />
<circle cx="149.4" cy="63.0" r="1.2" />
<circle cx="150.4" cy="61.0" r="1.2" />
<circle cx="151.5" cy="95.0" r="1.2" />
<circle cx="152.5" cy="73.0" r="1.2" />
<circle cx="153.6" cy="49.0" r="1.2" />
<circle cx="154.6" cy="59.0" r="1.2" />
<circle cx="155.7" cy="37.0" r="1.2" />
<circle cx="156.7" cy="37.0" r="1.2" />
<circle cx="157.8" cy="79.0" r="1.2" />
<circle cx="158.8" cy="71.0" r="1.2" />
<circle cx="159.9" cy="89.0" r="1.2" />
<circle cx="160.9" cy="131.0" r="1.2" />
<circle cx="162.0" cy="97.0" r="1.2" />
<circle cx="163.1" cy="81.0" r="1.2" />
<circle cx="164.1" cy="107.0" r="1.2" />
<circle cx="165.2" cy="73.0" r="1.2" />
<circle cx="166.2" cy="67.0" r="1.2" />
<circle cx="167.3" cy="129.0" r="1.2" />
<circle cx="168.3" cy="111.0" r="1.2" />
<circle cx="169.4" cy="119.0" r="1.2" />
<circle cx="170.4" cy="181.0" r="1.2" />
<circle cx="171.5" cy="137.0" r="1.2" />
<circle cx="172.5" cy="101.0" r="1.2" />
<circle cx="173.6" cy="127.0" r="1.2" />
<circle cx="174.6" cy="83.0" r="1.2" />
<circle cx="175.7" cy="59.0" r="1.2" />
<circle cx="176.7" cy="105.0" r="1.2" />
<circle cx="177.8" cy="87.0" r="1.2" />
<circle cx="178.8" cy="79.0" r="1.2" />
<circle cx="179.9" cy="125.0" r="1.2" />
<circle cx="180.9" cy="97.0" r="1.2" />
<circle cx="182.0" cy="61.0" r="1.2" />
<circle cx="183.0" cy="71.0" r="1.2" />
<circle cx="184.1" cy="43.0" r="1.2" />
<circle cx="185.1" cy="35.0" r="1.2" />
<circle cx="186.2" cy="73.0" r="1.2" />
<circle cx="187.2" cy="65.0" r="1.2" />
<circle cx="188.3" cy="79.0" r="1.2" />
<circle cx="189.4" cy="117.0" r="1.2" />
<circle cx="190.4" cy="87.0" r="1.2" />
<circle cx="191.5" cy="71.0" r="1.2" />
<circle cx="192.5" cy="93.0" r="1.2" />
<circle cx="193.6" cy="63.0" r="1.2" />
<circle cx="194.6" cy="53.0" r="1.2" />
<circle cx="195.7" cy="103.0" r="1.2" />
<circle cx="196.7" cy="89.0" r="1.2" />
<circle cx="197.8" cy="97.0" r="1.2" />
<circle cx="198.8" cy="147.0" r="1.2" />
<circle cx="199.9" cy="111.0" r="1.2" />
<circle cx="200.9" cy="83.0" r="1.2" />
<circle cx="202.0" cy="105.0" r="1.2" />
<circle cx="203.0" cy="69.0" r="1.2" />
<circle cx="204.1" cy="45.0" r="1.2" />
<circle cx="205.1" cy="79.0" r="1.2" />
<circle cx="206.2" cy="65.0" r="1.2" />
<circle cx="207.2" cy="57.0" r="1.2" />
<circle cx="208.3" cy="91.0" r="1.2" />
<circle cx="209.3" cy="71.0" r="1.2" />
<circle cx="210.4" cy="43.0" r="1.2" />
<circle cx="211.4" cy="49.0" r="1.2" />
<circle cx="212.5" cy="29.0" r="1.2" />
<circle cx="213.5" cy="23.0" r="1.2" />
<circle cx="214.6" cy="53.0" r="1.2" />
<circle cx="215.6" cy="49.0" r="1.2" />
<circle cx="216.7" cy="67.0" r="1.2" />
<circle cx="217.8" cy="97.0" r="1.2" />
<circle cx="218.8" cy="71.0" r="1.2" />
<circle cx="219.9" cy="63.0" r="1.2" />
<circle cx="220.9" cy="85.0" r="1.2" />
<circle cx="222.0" cy="59.0" r="1.2" />
<circle cx="223.0" cy="65.0" r="1.2" />
<circle cx="224.1" cy="123.0" r="1.2" />
<circle cx="225.1" cy="105.0" r="1.2" />
<circle cx="226.2" cy="109.0" r="1.2" />
<circle cx="227.2" cy="167.0" r="1.2" />
<circle cx="228.3" cy="127.0" r="1.2" />
<circle cx="229.3" cy="91.0" r="1.2" />
<circle cx="230.4" cy="113.0" r="1.2" />
<circle cx="231.4" cy="73.0" r="1.2" />
<circle cx="232.5" cy="61.0" r="1.2" />
<circle cx="233.5" cy="111.0" r="1.2" />
<circle cx="234.6" cy="93.0" r="1.2" />
<circle cx="235.6" cy="89.0" r="1.2" />
<circle cx="236.7" cy="139.0" r="1.2" />
<circle cx="237.7" cy="107.0" r="1.2" />
<circle cx="238.8" cy="71.0" r="1.2" />
<circle cx="239.8" cy="85.0" r="1.2" />
<circle cx="240.9" cy="53.0" r="1.2" />
<circle cx="241.9" cy="47.0" r="1.2" />
<circle cx="243.0" cy="101.0" r="1.2" />
<circle cx="244.1" cy="91.0" r="1.2" />
<circle cx="245.1" cy="115.0" r="1.2" />
<circle cx="246.2" cy="169.0" r="1.2" />
<circle cx="247.2" cy="125.0" r="1.2" />
<circle cx="248.3" cy="105.0" r="1.2" />
<circle cx="249.3" cy="139.0" r="1.2" />
<circle cx="250.4" cy="95.0" r="1.2" />
<circle cx="251.4" cy="89.0" r="1.2" />
<circle cx="252.5" cy="171.0" r="1.2" />
<circle cx="253.5" cy="147.0" r="1.2" />
<circle cx="254.6" cy="157.0" r="1.2" />
<circle cx="255.6" cy="239.0" r="1.2" />
<circle cx="256.7" cy="181.0" r="1.2" />
<circle cx="257.7" cy="133.0" r="1.2" />
<circle cx="258.8" cy="167.0" r="1.2" />
<circle cx="259.8" cy="109.0" r="1.2" />
<circle cx="260.9" cy="79.0" r="1.2" />
<circle cx="261.9" cy="141.0" r="1.2" />
<circle cx="263.0" cy="117.0" r="1.2" />
<circle cx="264.0" cy="107.0" r="1.2" />
<circle cx="265.1" cy="169.0" r="1.2" />
<circle cx="266.1" cy="131.0" r="1.2" />
<circle cx="267.2" cy="83.0" r="1.2" />
<circle cx="268.2" cy="97.0" r="1.2" />
<circle cx="269.3" cy="59.0" r="1.2" />
<circle cx="270.3" cy="43.0" r="1.2" />
<circle cx="271.4" cy="89.0" r="1.2" />
<circle cx="272.5" cy="79.0" r="1.2" />
<circle cx="273.5" cy="95.0" r="1.2" />
<circle cx="274.6" cy="141.0" r="1.2" />
<circle cx="275.6" cy="105.0" r="1.2" />
<circle cx="276.7" cy="85.0" r="1.2" />
<circle cx="277.7" cy="111.0" r="1.2" />
<circle cx="278.8" cy="75.0" r="1.2" />
<circle cx="279.8" cy="61.0" r="1.2" />
<circle cx="280.9" cy="119.0" r="1.2" />
<circle cx="281.9" cy="103.0" r="1.2" />
<circle cx="283.0" cy="113.0" r="1.2" />
<circle cx="284.0" cy="171.0" r="1.2" />
<circle cx="285.1" cy="129.0" r="1.2" />
<circle cx="286.1" cy="97.0" r="1.2" />
<circle cx="287.2" cy="123.0" r="1.2" />
<circle cx="288.2" cy="81.0" r="1.2" />
<circle cx="289.3" cy="51.0" r="1.2" />
<circle cx="290.3" cy="89.0" r="1.2" />
<circle cx="291.4" cy="73.0" r="1.2" />
<circle cx="292.4" cy="63.0" r="1.2" />
<circle cx="293.5" cy="101.0" r="1.2" />
<circle cx="294.5" cy="79.0" r="1.2" />
<circle cx="295.6" cy="47.0" r="1.2" />
<circle cx="296.6" cy="53.0" r="1.2" />
<circle cx="297.7" cy="31.0" r="1.2" />
<circle cx="298.8" cy="21.0" r="1.2" />
<circle cx="299.8" cy="47.0" r="1.2" />
<circle cx="300.9" cy="43.0" r="1.2" />
<circle cx="301.9" cy="57.0" r="1.2" />
<circle cx="303.0" cy="83.0" r="1.2" />
<circle cx="304.0" cy="61.0" r="1.2" />
<circle cx="305.1" cy="53.0" r="1.2" />
<circle cx="306.1" cy="71.0" r="1.2" />
<circle cx="307.2" cy="49.0" r="1.2" />
<circle cx="308.2" cy="51.0" r="1.2" />
<circle cx="309.3" cy="97.0" r="1.2" />
<circle cx="310.3" cy="83.0" r="1.2" />
<circle cx="311.4" cy="87.0" r="1.2" />
<circle cx="312.4" cy="133.0" r="1.2" />
<circle cx="313.5" cy="101.0" r="1.2" />
<circle cx="314.5" cy="73.0" r="1.2" />
<circle cx="315.6" cy="91.0" r="1.2" />
<circle cx="316.6" cy="59.0" r="1.2" />
<circle cx="317.7" cy="47.0" r="1.2" />
<circle cx="318.7" cy="85.0" r="1.2" />
<circle cx="319.8" cy="71.0" r="1.2" />
<circle cx="320.8" cy="67.0" r="1.2" />
<circle cx="321.9" cy="105.0" r="1.2" />
<circle cx="322.9" cy="81.0" r="1.2" />
<circle cx="324.0" cy="53.0" r="1.2" />
<circle cx="325.1" cy="63.0" r="1.2" />
<circle cx="326.1" cy="39.0" r="1.2" />
<circle cx="327.2" cy="29.0" r="1.2" />
<circle cx="328.2" cy="63.0" r="1.2" />
<circle cx="329.3" cy="57.0" r="1.2" />
<circle cx="330.3" cy="73.0" r="1.2" />
<circle cx="331.4" cy="107.0" r="1.2" />
<circle cx="332.4" cy="79.0" r="1.2" />
<circle cx="333.5" cy="67.0" r="1.2" />
<circle cx="334.5" cy="89.0" r="1.2" />
<circle cx="335.6" cy="61.0" r="1.2" />
<circle cx="336.6" cy="59.0" r="1.2" />
<circle cx="337.7" cy="113.0" r="1.2" />
<circle cx="338.7" cy="97.0" r="1.2" />
<circle cx="339.8" cy="103.0" r="1.2" />
<circle cx="340.8" cy="157.0" r="1.2" />
<circle cx="341.9" cy="119.0" r="1.2" />
<circle cx="342.9" cy="87.0" r="1.2" />
<circle cx="344.0" cy="109.0" r="1.2" />
<circle cx="345.0" cy="71.0" r="1.2" />
<circle cx="346.1" cy="53.0" r="1.2" />
<circle cx="347.1" cy="95.0" r="1.2" />
<circle cx="348.2" cy="79.0" r="1.2" />
<circle cx="349.2" cy="73.0" r="1.2" />
<circle cx="350.3" cy="115.0" r="1.2" />
<circle cx="351.3" cy="89.0" r="1.2" />
<circle cx="352.4" cy="57.0" r="1.2" />
<circle cx="353.5" cy="67.0" r="1.2" />
<circle cx="354.5" cy="41.0" r="1.2" />
<circle cx="355.6" cy="25.0" r="1.2" />
<circle cx="356.6" cy="51.0" r="1.2" />
<circle cx="357.7" cy="45.0" r="1.2" />
<circle cx="358.7" cy="53.0" r="1.2" />
<circle cx="359.8" cy="79.0" r="1.2" />
<circle cx="360.8" cy="59.0" r="1.2" />
<circle cx="361.9" cy="47.0" r="1.2" />
<circle cx="362.9" cy="61.0" r="1.2" />
<circle cx="364.0" cy="41.0" r="1.2" />
<circle cx="365.0" cy="31.0" r="1.2" />
<circle cx="366.1" cy="61.0" r="1.2" />
<circle cx="367.1" cy="53.0" r="1.2" />
<circle cx="368.2" cy="59.0" r="1.2" />
<circle cx="369.2" cy="89.0" r="1.2" />
<circle cx="370.3" cy="67.0" r="1.2" />
<circle cx="371.3" cy="51.0" r="1.2" />
<circle cx="372.4" cy="65.0" r="1.2" />
<circle cx="373.4" cy="43.0" r="1.2" />
<circle cx="374.5" cy="25.0" r="1.2" />
<circle cx="375.5" cy="43.0" r="1.2" />
<circle cx="376.6" cy="35.0" r="1.2" />
<circle cx="377.6" cy="29.0" r="1.2" />
<circle cx="378.7" cy="47.0" r="1.2" />
<circle cx="379.8" cy="37.0" r="1.2" />
<circle cx="380.8" cy="21.0" r="1.2" />
<circle cx="381.9" cy="23.0" r="1.2" />
<circle cx="382.9" cy="13.0" r="1.2" />
</g>
</svg>