<svg xmlns="http://www.w3.org/2000/svg" width="149.4" height="100.0" viewBox="7.45 -5.00 159.36 110.00">
<g fill="none" stroke="black" stroke-width="0.0402%" transform="translate(0, 100.0000) scale(12.4464, -12.4464)">
<circle cx="1.00" cy="0.00" r="0.04" />
<circle cx="2.00" cy="0.00" r="0.04" />
<circle cx="3.00" cy="0.00" r="0.04" />
<circle cx="4.00" cy="0.00" r="0.04" />
<circle cx="5.00" cy="0.00" r="0.04" />
<circle cx="6.00" cy="0.00" r="0.04" />
<circle cx="7.00" cy="0.00" r="0.04" />
<circle cx="8.00" cy="0.00" r="0.04" />
<circle cx="9.00" cy="0.00" r="0.04" />
<circle cx="10.00" cy="0.00" r="0.04" />
<circle cx="11.00" cy="0.00" r="0.04" />
<circle cx="12.00" cy="0.00" r="0.04" />
<circle cx="13.00" cy="0.00" r="0.04" />
<circle cx="1.00" cy="8.03" r="0.04" />
<circle cx="1.00" cy="8.03" r="0.04" />
<circle cx="2.00" cy="8.03" r="0.04" />
<circle cx="3.00" cy="8.03" r="0.04" />
<circle cx="4.00" cy="8.03" r="0.04" />
<circle cx="5.00" cy="8.03" r="0.04" />
<circle cx="5.00" cy="8.03" r="0.04" />
<circle cx="6.00" cy="8.03" r="0.04" />
<circle cx="7.00" cy="8.03" r="0.04" />
<circle cx="8.00" cy="8.03" r="0.04" />
<circle cx="9.00" cy="8.03" r="0.04" />
<circle cx="10.00" cy="8.03" r="0.04" />
<circle cx="11.00" cy="8.03" r="0.04" />
<line x1="1.00" y1="0.00" x2="1.00" y2="8.03" />
<line x1="2.00" y1="0.00" x2="1.00" y2="8.03" />
<line x1="3.00" y1="0.00" x2="2.00" y2="8.03" />
<line x1="4.00" y1="0.00" x2="3.00" y2="8.03" />
<line x1="5.00" y1="0.00" x2="4.00" y2="8.03" />
<line x1="6.00" y1="0.00" x2="5.00" y2="8.03" />
<line x1="7.00" y1="0.00" x2="5.00" y2="8.03" />
<line x1="8.00" y1="0.00" x2="6.00" y2="8.03" />
<line x1="9.00" y1="0.00" x2="7.00" y2="8.03" />
<line x1="10.00" y1="0.00" x2="8.00" y2="8.03" />
<line x1="11.00" y1="0.00" x2="9.00" y2="8.03" />
<line x1="12.00" y1="0.00" x2="10.00" y2="8.03" />
<line x1="13.00" y1="0.00" x2="11.00" y2="8.03" />
</g>
</svg>