<svg xmlns="http://www.w3.org/2000/svg" width="161.8" height="100.0" viewBox="-86.719 -55.002 171.803 110.000">
<g fill="none" stroke="black" stroke-width="0.0100%" transform="translate(0, -0.0037) scale(49.9982, -49.9982)">
<polyline points="-1.634,-1.000 -1.602,-0.998 -1.569,-0.992 -1.536,-0.982 -1.504,-0.969 -1.471,-0.951 -1.438,-0.930 -1.406,-0.905 -1.373,-0.876 -1.340,-0.844 -1.308,-0.809 -1.275,-0.771 -1.242,-0.729 -1.209,-0.685 -1.177,-0.637 -1.144,-0.588 -1.111,-0.536 -1.079,-0.482 -1.046,-0.426 -1.013,-0.368 -0.981,-0.309 -0.948,-0.249 -0.915,-0.187 -0.883,-0.125 -0.850,-0.063 -0.817,0.000 -0.785,0.063 -0.752,0.125 -0.719,0.187 -0.686,0.249 -0.654,0.309 -0.621,0.368 -0.588,0.426 -0.556,0.482 -0.523,0.536 -0.490,0.588 -0.458,0.637 -0.425,0.685 -0.392,0.729 -0.360,0.771 -0.327,0.809 -0.294,0.844 -0.262,0.876 -0.229,0.905 -0.196,0.930 -0.163,0.951 -0.131,0.969 -0.098,0.982 -0.065,0.992 -0.033,0.998 0.000,1.000 0.033,0.998 0.065,0.992 0.098,0.982 0.131,0.969 0.163,0.951 0.196,0.930 0.229,0.905 0.262,0.876 0.294,0.844 0.327,0.809 0.360,0.771 0.392,0.729 0.425,0.685 0.458,0.637 0.490,0.588 0.523,0.536 0.556,0.482 0.588,0.426 0.621,0.368 0.654,0.309 0.686,0.249 0.719,0.187 0.752,0.125 0.785,0.063 0.817,-0.000 0.850,-0.063 0.883,-0.125 0.915,-0.187 0.948,-0.249 0.981,-0.309 1.013,-0.368 1.046,-0.426 1.079,-0.482 1.111,-0.536 1.144,-0.588 1.177,-0.637 1.209,-0.685 1.242,-0.729 1.275,-0.771 1.308,-0.809 1.340,-0.844 1.373,-0.876 1.406,-0.905 1.438,-0.930 1.471,-0.951 1.504,-0.969 1.536,-0.982 1.569,-0.992 1.602,-0.998" />
<polyline points="-1.634,-1.000 -1.602,-0.998 -1.569,-0.992 -1.536,-0.982 -1.504,-0.969 -1.471,-0.951 -1.438,-0.930 -1.406,-0.905 -1.373,-0.876 -1.340,-0.844 -1.308,-0.809 -1.275,-0.771 -1.242,-0.729 -1.209,-0.685 -1.177,-0.637 -1.144,-0.588 -1.111,-0.536 -1.079,-0.482 -1.046,-0.426 -1.013,-0.368 -0.981,-0.309 -0.948,-0.249 -0.915,-0.187 -0.883,-0.125 -0.850,-0.063 -0.817,-0.000 -0.785,0.063 -0.752,0.125 -0.719,0.187 -0.686,0.249 -0.654,0.309 -0.621,0.368 -0.588,0.426 -0.556,0.482 -0.523,0.536 -0.490,0.588 -0.458,0.637 -0.425,0.685 -0.392,0.729 -0.360,0.771 -0.327,0.809 -0.294,0.844 -0.262,0.876 -0.229,0.905 -0.196,0.930 -0.163,0.951 -0.131,0.969 -0.098,0.982 -0.065,0.992 -0.033,0.998 0.000,1.000 0.033,0.998 0.065,0.992 0.098,0.982 0.131,0.969 0.163,0.951 0.196,0.930 0.229,0.905 0.262,0.876 0.294,0.844 0.327,0.809 0.360,0.771 0.392,0.729 0.425,0.685 0.458,0.637 0.490,0.588 0.523,0.536 0.556,0.482 0.588,0.426 0.621,0.368 0.654,0.309 0.686,0.249 0.719,0.187 0.752,0.125 0.785,0.063 0.817,-0.000 0.850,-0.063 0.883,-0.125 0.915,-0.187 0.948,-0.249 0.981,-0.309 1.013,-0.368 1.046,-0.426 1.079,-0.482 1.111,-0.536 1.144,-0.588 1.177,-0.637 1.209,-0.685 1.242,-0.729 1.275,-0.771 1.308,-0.809 1.340,-0.844 1.373,-0.876 1.406,-0.905 1.438,-0.930 1.471,-0.951 1.504,-0.969 1.536,-0.982 1.569,-0.992 1.602,-0.998" />
</g>
</svg>