<svg xmlns="http://www.w3.org/2000/svg" width="161.8" height="100.0" viewBox="-5.0 -53.3 171.8 110.0">
<g fill="none" stroke="black" stroke-width="0.4857%" transform="translate(0, 3.4882) scale(1.0294, -1.0294)">
<polyline points="0.0,0.0 1.6,0.4 3.1,0.5 4.7,0.1 6.3,-0.9 7.9,-2.0 9.4,-3.0 11.0,-3.3 12.6,-2.6 14.1,-0.8 15.7,1.6 17.3,4.0 18.9,5.8 20.4,6.3 22.0,5.1 23.6,2.3 25.1,-1.5 26.7,-5.4 28.3,-8.4 29.9,-9.5 31.4,-8.1 33.0,-4.5 34.6,0.7 36.2,6.2 37.7,10.6 39.3,12.6 40.9,11.5 42.4,7.3 44.0,0.9 45.6,-6.2 47.2,-12.2 48.7,-15.5 50.3,-15.0 51.9,-10.6 53.4,-3.2 55.0,5.4 56.6,13.2 58.2,18.0 59.7,18.5 61.3,14.3 62.9,6.2 64.4,-3.9 66.0,-13.5 67.6,-20.1 69.2,-21.9 70.7,-18.3 72.3,-9.8 73.9,1.5 75.4,12.9 77.0,21.6 78.6,25.1 80.2,22.5 81.7,14.0 83.3,1.7 84.9,-11.6 86.4,-22.4 88.0,-27.9 89.6,-26.6 91.2,-18.6 92.7,-5.6 94.3,9.3 95.9,22.4 97.5,30.2 99.0,30.7 100.6,23.5 102.2,10.1 103.7,-6.2 105.3,-21.5 106.9,-31.8 108.5,-34.4 110.0,-28.5 111.6,-15.2 113.2,2.3 114.7,19.7 116.3,32.6 117.9,37.7 119.5,33.5 121.0,20.7 122.6,2.5 124.2,-16.9 125.7,-32.5 127.3,-40.4 128.9,-38.3 130.5,-26.6 132.0,-7.9 133.6,13.2 135.2,31.5 136.7,42.4 138.3,42.8 139.9,32.6 141.5,14.0 143.0,-8.6 144.6,-29.5 146.2,-43.5 147.7,-46.9 149.3,-38.6 150.9,-20.5 152.5,3.1 154.0,26.4 155.6,43.6 157.2,50.3" />
</g>
</svg>