<svg xmlns="http://www.w3.org/2000/svg" width="109.9" height="100.0" viewBox="-54.98 -59.99 119.87 110.00">
<g fill="none" stroke="black" stroke-width="0.0501%" transform="translate(0, -9.9732) scale(9.9810, -9.9810)">
<polyline points="0.00,0.00 0.03,0.00 0.06,0.01 0.09,0.03 0.11,0.04 0.13,0.07 0.15,0.10 0.17,0.13 0.17,0.16 0.18,0.20 0.18,0.24 0.17,0.28 0.15,0.33 0.13,0.37 0.10,0.41 0.07,0.44 0.03,0.48 -0.02,0.51 -0.07,0.54 -0.12,0.56 -0.19,0.57 -0.25,0.58 -0.32,0.58 -0.39,0.57 -0.46,0.55 -0.53,0.53 -0.60,0.50 -0.67,0.46 -0.74,0.40 -0.80,0.35 -0.86,0.28 -0.91,0.20 -0.95,0.12 -0.99,0.03 -1.02,-0.06 -1.04,-0.16 -1.05,-0.27 -1.04,-0.38 -1.03,-0.49 -1.01,-0.60 -0.97,-0.71 -0.92,-0.81 -0.86,-0.92 -0.79,-1.02 -0.71,-1.11 -0.61,-1.20 -0.51,-1.28 -0.39,-1.35 -0.27,-1.41 -0.14,-1.46 -0.00,-1.50 0.14,-1.52 0.29,-1.53 0.44,-1.53 0.60,-1.51 0.75,-1.47 0.90,-1.42 1.05,-1.35 1.19,-1.27 1.33,-1.17 1.46,-1.06 1.58,-0.93 1.68,-0.79 1.78,-0.64 1.86,-0.48 1.93,-0.31 1.98,-0.12 2.01,0.06 2.02,0.26 2.02,0.45 2.00,0.65 1.95,0.85 1.89,1.04 1.81,1.23 1.71,1.42 1.59,1.59 1.45,1.76 1.30,1.91 1.13,2.05 0.94,2.18 0.74,2.28 0.53,2.37 0.31,2.44 0.08,2.49 -0.16,2.52 -0.40,2.52 -0.64,2.50 -0.88,2.46 -1.12,2.39 -1.36,2.30 -1.59,2.18 -1.81,2.05 -2.01,1.89 -2.20,1.71 -2.38,1.51 -2.54,1.29 -2.68,1.06 -2.79,0.81 -2.89,0.55 -2.96,0.28 -3.00,-0.00 -3.02,-0.29 -3.01,-0.57 -2.97,-0.86 -2.90,-1.15 -2.81,-1.43 -2.68,-1.70 -2.54,-1.97 -2.36,-2.22 -2.16,-2.45 -1.94,-2.67 -1.70,-2.87 -1.43,-3.04 -1.15,-3.19 -0.85,-3.31 -0.54,-3.41 -0.22,-3.47 0.11,-3.51 0.44,-3.51 0.78,-3.48 1.11,-3.42 1.44,-3.33 1.76,-3.21 2.07,-3.05 2.37,-2.87 2.65,-2.65 2.91,-2.41 3.15,-2.14 3.37,-1.85 3.55,-1.54 3.71,-1.21 3.84,-0.86 3.93,-0.50 3.99,-0.13 4.01,0.25 4.00,0.63 3.95,1.01 3.87,1.39 3.75,1.76 3.59,2.12 3.40,2.47 3.17,2.80 2.92,3.11 2.63,3.39 2.31,3.65 1.97,3.88 1.61,4.07 1.23,4.23 0.83,4.36 0.42,4.45 0.00,4.50 -0.43,4.51 -0.85,4.48 -1.28,4.41 -1.70,4.30 -2.11,4.14 -2.51,3.95 -2.89,3.72 -3.24,3.46 -3.58,3.15 -3.88,2.82 -4.16,2.46 -4.40,2.07 -4.60,1.66 -4.77,1.22 -4.89,0.77 -4.97,0.31 -5.01,-0.16 -5.00,-0.63 -4.95,-1.11 -4.85,-1.58 -4.71,-2.04 -4.52,-2.49 -4.29,-2.92 -4.02,-3.33 -3.71,-3.71 -3.37,-4.07 -2.98,-4.39 -2.57,-4.68 -2.13,-4.93 -1.67,-5.14 -1.18,-5.30 -0.68,-5.42 -0.17,-5.49 0.35,-5.51 0.87,-5.48 1.39,-5.40 1.90,-5.28 2.40,-5.10 2.89,-4.88 3.35,-4.61 3.79,-4.30 4.20,-3.94 4.57,-3.55 4.91,-3.12 5.21,-2.66 5.47,-2.16 5.68,-1.65 5.83,-1.11 5.94,-0.56 6.00,-0.00" />
</g>
</svg>