<svg xmlns="http://www.w3.org/2000/svg" width="161.80" height="100.00" viewBox="-85.90 -55.00 171.80 110.00">
<g fill="none" stroke="black" stroke-width="0.06%" transform="translate(0, 0.00) scale(8.33, -8.33)">
<circle cx="-9.71" cy="0.00" r="0.06" />
<circle cx="0.00" cy="6.00" r="0.06" />
<polyline points="-9.71,6.00 -9.51,4.89 -9.32,3.74 -9.13,3.00 -8.93,2.49 -8.74,2.12 -8.54,1.82 -8.35,1.59 -8.15,1.40 -7.96,1.23 -7.77,1.09 -7.57,0.97 -7.38,0.86 -7.18,0.76 -6.99,0.67 -6.80,0.58 -6.60,0.51 -6.41,0.43 -6.21,0.36 -6.02,0.30 -5.82,0.23 -5.63,0.17 -5.44,0.11 -5.24,0.05 -5.05,-0.01 -4.85,-0.07 -4.66,-0.13 -4.47,-0.19 -4.27,-0.26 -4.08,-0.32 -3.88,-0.39 -3.69,-0.46 -3.49,-0.53 -3.30,-0.61 -3.11,-0.70 -2.91,-0.79 -2.72,-0.90 -2.52,-1.01 -2.33,-1.14 -2.14,-1.29 -1.94,-1.46 -1.75,-1.67 -1.55,-1.92 -1.36,-2.24 -1.16,-2.66 -0.97,-3.23 -0.78,-4.09 -0.58,-5.50 -0.39,-6.00 -0.19,-6.00 0.00,6.00 0.19,6.00 0.39,6.00 0.58,5.50 0.78,4.09 0.97,3.23 1.16,2.66 1.36,2.24 1.55,1.92 1.75,1.67 1.94,1.46 2.14,1.29 2.33,1.14 2.52,1.01 2.72,0.90 2.91,0.79 3.11,0.70 3.30,0.61 3.49,0.53 3.69,0.46 3.88,0.39 4.08,0.32 4.27,0.26 4.47,0.19 4.66,0.13 4.85,0.07 5.05,0.01 5.24,-0.05 5.44,-0.11 5.63,-0.17 5.82,-0.23 6.02,-0.30 6.21,-0.36 6.41,-0.43 6.60,-0.51 6.80,-0.58 6.99,-0.67 7.18,-0.76 7.38,-0.86 7.57,-0.97 7.77,-1.09 7.96,-1.23 8.15,-1.40 8.35,-1.59 8.54,-1.82 8.74,-2.12 8.93,-2.49 9.13,-3.00 9.32,-3.74 9.51,-4.89 9.71,-6.00" />
</g>
</svg>