<svg xmlns="http://www.w3.org/2000/svg" width="161.80" height="100.00" viewBox="-85.90 -55.00 171.80 110.00">
<g fill="none" stroke="black" stroke-width="0.04%" transform="translate(0, 0.00) scale(12.50, -12.50)">
<circle cx="-6.47" cy="0.00" r="0.04" />
<circle cx="0.00" cy="4.00" r="0.04" />
<polyline points="-6.47,-1.00 -6.34,-1.00 -6.21,-1.00 -6.08,-1.00 -5.95,-1.00 -5.82,-1.00 -5.70,-1.00 -5.57,-1.00 -5.44,-1.00 -5.31,-1.00 -5.18,-1.00 -5.05,-1.00 -4.92,-1.00 -4.79,-1.01 -4.66,-1.01 -4.53,-1.01 -4.40,-1.01 -4.27,-1.01 -4.14,-1.01 -4.01,-1.01 -3.88,-1.02 -3.75,-1.02 -3.62,-1.02 -3.49,-1.03 -3.37,-1.03 -3.24,-1.04 -3.11,-1.04 -2.98,-1.05 -2.85,-1.06 -2.72,-1.07 -2.59,-1.08 -2.46,-1.10 -2.33,-1.12 -2.20,-1.14 -2.07,-1.17 -1.94,-1.20 -1.81,-1.24 -1.68,-1.29 -1.55,-1.34 -1.42,-1.42 -1.29,-1.51 -1.16,-1.62 -1.04,-1.77 -0.91,-1.97 -0.78,-2.24 -0.65,-2.63 -0.52,-3.23 -0.39,-4.00 -0.26,-4.00 -0.13,-4.00 0.00,4.00 0.13,4.00 0.26,4.00 0.39,4.00 0.52,3.23 0.65,2.63 0.78,2.24 0.91,1.97 1.04,1.77 1.16,1.62 1.29,1.51 1.42,1.42 1.55,1.34 1.68,1.29 1.81,1.24 1.94,1.20 2.07,1.17 2.20,1.14 2.33,1.12 2.46,1.10 2.59,1.08 2.72,1.07 2.85,1.06 2.98,1.05 3.11,1.04 3.24,1.04 3.37,1.03 3.49,1.03 3.62,1.02 3.75,1.02 3.88,1.02 4.01,1.01 4.14,1.01 4.27,1.01 4.40,1.01 4.53,1.01 4.66,1.01 4.79,1.01 4.92,1.00 5.05,1.00 5.18,1.00 5.31,1.00 5.44,1.00 5.57,1.00 5.70,1.00 5.82,1.00 5.95,1.00 6.08,1.00 6.21,1.00 6.34,1.00 6.47,1.00" />
</g>
</svg>