<svg xmlns="http://www.w3.org/2000/svg" width="130.8" height="100.0" viewBox="-71.310 -52.368 140.808 110.000">
<g fill="none" stroke="black" stroke-width="0.0110%" transform="translate(0, 5.2630) scale(45.3535, -45.3535)">
<polyline points="-0.078,0.208 -0.047,0.150 -0.013,0.097 0.026,0.048 0.069,0.003 0.114,-0.038 0.162,-0.075 0.212,-0.109 0.264,-0.139 0.317,-0.167 0.370,-0.192 0.424,-0.217 0.478,-0.241 0.533,-0.264 0.587,-0.288 0.640,-0.314 0.693,-0.340 0.745,-0.368 0.796,-0.397 0.845,-0.428 0.893,-0.459 0.938,-0.490 0.981,-0.520 1.021,-0.547 1.058,-0.571 1.091,-0.590 1.119,-0.602 1.143,-0.606 1.160,-0.600 1.172,-0.584 1.177,-0.555 1.175,-0.515 1.166,-0.462 1.149,-0.399 1.125,-0.325 1.094,-0.244 1.056,-0.155 1.011,-0.063 0.960,0.031 0.904,0.123 0.844,0.213 0.781,0.297 0.715,0.373 0.649,0.441 0.583,0.499 0.517,0.547 0.454,0.584 0.394,0.610 0.337,0.626 0.285,0.632 0.237,0.629 0.196,0.618 0.160,0.599 0.130,0.574 0.106,0.543 0.089,0.508 0.078,0.470 0.074,0.429 0.075,0.386 0.082,0.342 0.095,0.298 0.113,0.254 0.137,0.211 0.164,0.169 0.196,0.128 0.232,0.088 0.271,0.050 0.313,0.013 0.359,-0.024 0.406,-0.060 0.456,-0.097 0.508,-0.135 0.562,-0.175 0.617,-0.216 0.673,-0.260 0.729,-0.308 0.786,-0.358 0.844,-0.412 0.901,-0.469 0.957,-0.528 1.012,-0.588 1.065,-0.648 1.115,-0.705 1.162,-0.757 1.205,-0.801 1.242,-0.835 1.273,-0.855 1.296,-0.859 1.312,-0.845 1.318,-0.811 1.314,-0.757 1.300,-0.682 1.274,-0.589 1.238,-0.480 1.190,-0.357 1.133,-0.226 1.065,-0.090 0.990,0.045 0.906,0.177 0.817,0.300 0.724,0.412 0.627,0.510 0.530,0.593 0.432,0.661 0.336,0.712 0.243,0.748 0.154,0.769 0.070,0.777 -0.008,0.772 -0.080,0.757 -0.146,0.732 -0.204,0.700 -0.256,0.660 -0.300,0.615 -0.337,0.565 -0.366,0.512 -0.389,0.456 -0.406,0.398 -0.416,0.339 -0.420,0.279 -0.420,0.221 -0.414,0.164 -0.404,0.109 -0.391,0.057 -0.374,0.007 -0.355,-0.038 -0.333,-0.079 -0.311,-0.116 -0.287,-0.149 -0.263,-0.176 -0.239,-0.199 -0.215,-0.217 -0.192,-0.231 -0.171,-0.241 -0.151,-0.246 -0.133,-0.247 -0.117,-0.246 -0.104,-0.241 -0.092,-0.233 -0.083,-0.223 -0.077,-0.211 -0.073,-0.197 -0.072,-0.182 -0.073,-0.167 -0.077,-0.150 -0.083,-0.134 -0.091,-0.118 -0.101,-0.101 -0.113,-0.086 -0.127,-0.071 -0.143,-0.057 -0.160,-0.044 -0.179,-0.031 -0.199,-0.020 -0.221,-0.010 -0.243,-0.000 -0.267,0.008 -0.291,0.016 -0.316,0.023 -0.341,0.029 -0.368,0.035 -0.395,0.041 -0.422,0.047 -0.450,0.053 -0.478,0.060 -0.507,0.067 -0.536,0.074 -0.566,0.083 -0.595,0.093 -0.625,0.104 -0.656,0.116 -0.686,0.130 -0.717,0.145 -0.747,0.161 -0.777,0.179 -0.808,0.198 -0.837,0.218 -0.867,0.239 -0.895,0.260 -0.922,0.280 -0.949,0.300 -0.973,0.318 -0.996,0.333 -1.017,0.346 -1.035,0.355 -1.050,0.359 -1.062,0.358 -1.071,0.352 -1.076,0.338 -1.076,0.319 -1.073,0.292 -1.065,0.259 -1.053,0.220 -1.037,0.175 -1.016,0.125 -0.991,0.072 -0.962,0.016 -0.930,-0.042 -0.896,-0.099 -0.858,-0.156 -0.819,-0.210 -0.779,-0.261 -0.738,-0.307 -0.697,-0.349 -0.658,-0.384 -0.619,-0.414 -0.583,-0.437 -0.549,-0.454 -0.519,-0.465 -0.492,-0.469 -0.469,-0.467 -0.450,-0.460 -0.436,-0.447 -0.427,-0.430 -0.423,-0.408 -0.424,-0.382 -0.430,-0.352 -0.441,-0.319 -0.457,-0.283 -0.478,-0.244 -0.503,-0.202 -0.534,-0.156 -0.569,-0.107 -0.608,-0.054 -0.651,0.004 -0.697,0.066 -0.747,0.133 -0.800,0.206 -0.856,0.284 -0.914,0.367 -0.973,0.456 -1.033,0.548 -1.093,0.643 -1.152,0.738 -1.209,0.830 -1.264,0.916 -1.314,0.991 -1.358,1.051 -1.395,1.092 -1.423,1.109 -1.441,1.099 -1.447,1.059 -1.440,0.989 -1.420,0.890 -1.384,0.764 -1.335,0.616 -1.270,0.452 -1.193,0.278 -1.102,0.100 -1.001,-0.074 -0.890,-0.238 -0.772,-0.387 -0.649,-0.519 -0.523,-0.631 -0.395,-0.723 -0.268,-0.795 -0.143,-0.848 -0.021,-0.885 0.096,-0.908 0.208,-0.920 0.314,-0.922 0.413,-0.918 0.504,-0.908 0.589,-0.893 0.665,-0.875 0.734,-0.853 0.795,-0.828 0.848,-0.799 0.893,-0.765 0.930,-0.725 0.958,-0.680 0.978,-0.628 0.990,-0.569 0.993,-0.504 0.989,-0.433 0.977,-0.355 0.957,-0.274 0.931,-0.189 0.898,-0.103 0.860,-0.017 0.816,0.067 0.769,0.147 0.718,0.222 0.666,0.291 0.612,0.352 0.557,0.405 0.504,0.450 0.452,0.485 0.402,0.512 0.354,0.529 0.311,0.538 0.272,0.539 0.237,0.533 0.207,0.521 0.182,0.503 0.163,0.479 0.149,0.452 0.141,0.421 0.138,0.388 0.140,0.352 0.148,0.316 0.160,0.279 0.178,0.241 0.200,0.204 0.226,0.167 0.256,0.130 0.290,0.094 0.328,0.058 0.368,0.022 0.411,-0.014 0.457,-0.050 0.505,-0.088 0.555,-0.128 0.607,-0.170 0.660,-0.214 0.715,-0.262 0.770,-0.313 0.826,-0.368 0.882,-0.426 0.938,-0.486 0.993,-0.549 1.046,-0.611 1.098,-0.673 1.146,-0.730 1.191,-0.781 1.231,-0.823 1.266,-0.853 1.293,-0.867 1.313,-0.864 1.324,-0.841 1.325,-0.798 1.316,-0.733 1.296,-0.649 1.265,-0.546 1.223,-0.429 1.169,-0.300 1.106,-0.164 1.033,-0.026 0.953,0.110 0.865,0.239 0.772,0.359 0.676,0.466 0.577,0.558 0.478,0.634 0.380,0.694 0.284,0.738 0.191,0.767 0.103,0.781 0.020,0.783 -0.056,0.773 -0.127,0.753 -0.190,0.724 -0.246,0.688 -0.295,0.645 -0.337,0.598 -0.371,0.546 -0.399,0.491 -0.420,0.433 -0.434,0.375 -0.442,0.315 -0.445,0.256 -0.443,0.198 -0.436,0.141 -0.425,0.086 -0.410,0.035 -0.393,-0.014 -0.373,-0.058 -0.351,-0.099 -0.329,-0.134 -0.305,-0.166 -0.282,-0.192 -0.258,-0.214 -0.236,-0.231 -0.214,-0.243 -0.194,-0.252 -0.176,-0.256 -0.159,-0.256 -0.145,-0.254 -0.134,-0.248 -0.125,-0.239 -0.118,-0.229 -0.114,-0.216 -0.113,-0.202 -0.115,-0.187 -0.119,-0.171 -0.125,-0.154 -0.134,-0.137 -0.146,-0.121 -0.160,-0.104 -0.175,-0.088 -0.193,-0.073 -0.213,-0.058 -0.234,-0.044 -0.257,-0.030 -0.281,-0.018 -0.307,-0.006 -0.334,0.006 -0.362,0.017 -0.391,0.028 -0.422,0.040 -0.452,0.051 -0.484,0.063 -0.517,0.075 -0.550,0.088 -0.583,0.103 -0.617,0.118 -0.652,0.135 -0.686,0.154 -0.721,0.174 -0.756,0.196 -0.791,0.219 -0.825,0.243 -0.859,0.268 -0.892,0.294 -0.925,0.320 -0.956,0.345 -0.985,0.368 -1.012,0.390 -1.037,0.407 -1.059,0.421 -1.078,0.429 -1.093,0.431 -1.104,0.425 -1.111,0.412 -1.113,0.391 -1.110,0.361 -1.102,0.323 -1.088,0.277 -1.070,0.224 -1.046,0.165 -1.017,0.101 -0.983,0.034 -0.945,-0.035 -0.904,-0.104 -0.859,-0.171 -0.812,-0.236 -0.764,-0.296 -0.715,-0.350 -0.666,-0.398 -0.618,-0.439 -0.571,-0.473 -0.527,-0.498 -0.486,-0.516 -0.448,-0.527 -0.415,-0.530 -0.385,-0.526 -0.361,-0.517 -0.342,-0.501 -0.328,-0.480 -0.320,-0.455 -0.318,-0.426 -0.321,-0.394 -0.329,-0.359 -0.343,-0.321 -0.362,-0.282 -0.387,-0.240 -0.416,-0.196 -0.450,-0.149 -0.489,-0.100 -0.531,-0.049 -0.578,0.006 -0.628,0.066 -0.682,0.129 -0.738,0.198 -0.797,0.273 -0.859,0.353 -0.921,0.439 -0.985,0.530 -1.049,0.625 -1.113,0.722 -1.175,0.819 -1.235,0.911 -1.291,0.995 -1.341,1.067 -1.385,1.122 -1.421,1.154 -1.446,1.160 -1.461,1.137 -1.462,1.082 -1.449,0.996 -1.422,0.880 -1.379,0.737 -1.321,0.575 -1.249,0.398 -1.162,0.214 -1.063,0.030 -0.954,-0.146 -0.835,-0.309 -0.710,-0.456 -0.581,-0.582 -0.449,-0.688 -0.316,-0.772 -0.184,-0.838 -0.055,-0.886 0.070,-0.919 0.190,-0.940 0.304,-0.953 0.412,-0.958 0.513,-0.959 0.607,-0.956 0.693,-0.950 0.772,-0.941 0.843,-0.929 0.905,-0.914 0.959,-0.893 1.004,-0.865 1.041,-0.830 1.068,-0.786 1.085,-0.731 1.093,-0.667 1.092,-0.592 1.081,-0.508 1.060,-0.415 1.031,-0.315 0.994,-0.211 0.948,-0.105 0.896,0.001 0.838,0.103 0.775,0.201 0.708,0.291 0.639,0.372 0.568,0.442 0.498,0.502 0.428,0.549 0.360,0.585 0.295,0.610 0.234,0.624 0.177,0.627 0.125,0.621 0.079,0.607 0.038,0.585 0.003,0.557 -0.025,0.524 -0.048,0.486 -0.064,0.445 -0.074,0.402 -0.079,0.357 -0.078,0.311 -0.072,0.266 -0.062,0.221 -0.046,0.178 -0.027,0.137 -0.004,0.098 0.022,0.062 0.051,0.029 0.082,-0.001 0.115,-0.028 0.150,-0.052 0.187,-0.073 0.224,-0.091 0.262,-0.107 0.301,-0.120 0.340,-0.132 0.379,-0.142 0.419,-0.152 0.458,-0.160 0.496,-0.169 0.535,-0.177 0.573,-0.186 0.610,-0.195 0.647,-0.205 0.683,-0.216 0.718,-0.227 0.753,-0.240 0.786,-0.253 0.819,-0.267 0.850,-0.281 0.879,-0.294 0.907,-0.308 0.934,-0.320 0.958,-0.330 0.979,-0.338 0.998,-0.343 1.015,-0.344 1.028,-0.340 1.038,-0.332 1.044,-0.319 1.047,-0.300 1.045,-0.275 1.040,-0.245 1.030,-0.209 1.017,-0.169 0.999,-0.124 0.978,-0.076 0.953,-0.026 0.925,0.026 0.895,0.079 0.862,0.131 0.827,0.180 0.792,0.228 0.755,0.271 0.719,0.310 0.683,0.345 0.649,0.374 0.616,0.397 0.585,0.415 0.558,0.426 0.533,0.432 0.512,0.432 0.495,0.427 0.483,0.417 0.474,0.403 0.471,0.383 0.472,0.360 0.478,0.333 0.488,0.302 0.504,0.268 0.524,0.230 0.548,0.189 0.577,0.144 0.610,0.096 0.648,0.043 0.689,-0.014 0.733,-0.076 0.781,-0.143 0.832,-0.215 0.885,-0.292 0.940,-0.374 0.996,-0.460 1.052,-0.549 1.109,-0.639 1.164,-0.729 1.218,-0.813 1.268,-0.891 1.313,-0.957 1.352,-1.007 1.384,-1.037 1.408,-1.044 1.421,-1.025 1.422,-0.979 1.411,-0.904 1.387,-0.802 1.349,-0.677 1.297,-0.532 1.232,-0.373 1.154,-0.207 1.065,-0.039 0.966,0.124 0.859,0.277 0.745,0.416 0.627,0.538 0.507,0.641 0.386,0.724 0.266,0.788 0.148,0.834 0.034,0.864 -0.075,0.881 -0.178,0.885 -0.275,0.879 -0.365,0.866 -0.448,0.846 -0.523,0.821 -0.591,0.791 -0.651,0.757 -0.703,0.719 -0.748,0.677 -0.785,0.632 -0.814,0.583 -0.836,0.530 -0.851,0.473 -0.859,0.413 -0.860,0.350 -0.855,0.285 -0.844,0.218 -0.827,0.149 -0.806,0.081 -0.780,0.014 -0.751,-0.051 -0.718,-0.113 -0.683,-0.172 -0.647,-0.225" />
</g>
</svg>