<svg xmlns="http://www.w3.org/2000/svg" width="135" height="99" viewBox="0 0 135 99">
<rect x="0" y="0" width="9" height="9" fill="rgb(0,0,0)"/>
<rect x="0" y="9" width="9" height="9" fill="rgb(142,49,121)"/>
<rect x="0" y="18" width="9" height="9" fill="rgb(230,46,107)"/>
<rect x="0" y="27" width="9" height="9" fill="rgb(175,89,62)"/>
<rect x="0" y="36" width="9" height="9" fill="rgb(77,140,87)"/>
<rect x="0" y="45" width="9" height="9" fill="rgb(230,115,92)"/>
<rect x="0" y="54" width="9" height="9" fill="rgb(71,171,204)"/>
<rect x="0" y="63" width="9" height="9" fill="rgb(51,204,153)"/>
<rect x="0" y="72" width="9" height="9" fill="rgb(242,186,73)"/>
<rect x="0" y="81" width="9" height="9" fill="rgb(255,183,213)"/>
<rect x="0" y="90" width="9" height="9" fill="rgb(217,230,80)"/>
<rect x="9" y="0" width="9" height="9" fill="rgb(165,11,94)"/>
<rect x="9" y="9" width="9" height="9" fill="rgb(128,55,144)"/>
<rect x="9" y="18" width="9" height="9" fill="rgb(0,117,94)"/>
<rect x="9" y="27" width="9" height="9" fill="rgb(79,105,198)"/>
<rect x="9" y="36" width="9" height="9" fill="rgb(246,83,166)"/>
<rect x="9" y="45" width="9" height="9" fill="rgb(233,116,81)"/>
<rect x="9" y="54" width="9" height="9" fill="rgb(217,130,181)"/>
<rect x="9" y="63" width="9" height="9" fill="rgb(255,145,164)"/>
<rect x="9" y="72" width="9" height="9" fill="rgb(230,188,92)"/>
<rect x="9" y="81" width="9" height="9" fill="rgb(143,216,216)"/>
<rect x="9" y="90" width="9" height="9" fill="rgb(253,213,177)"/>
<rect x="18" y="0" width="9" height="9" fill="rgb(45,56,58)"/>
<rect x="18" y="9" width="9" height="9" fill="rgb(135,66,31)"/>
<rect x="18" y="18" width="9" height="9" fill="rgb(0,102,255)"/>
<rect x="18" y="27" width="9" height="9" fill="rgb(115,106,98)"/>
<rect x="18" y="36" width="9" height="9" fill="rgb(94,140,49)"/>
<rect x="18" y="45" width="9" height="9" fill="rgb(73,151,208)"/>
<rect x="18" y="54" width="9" height="9" fill="rgb(218,138,103)"/>
<rect x="18" y="63" width="9" height="9" fill="rgb(255,153,128)"/>
<rect x="18" y="72" width="9" height="9" fill="rgb(235,176,215)"/>
<rect x="18" y="81" width="9" height="9" fill="rgb(175,227,19)"/>
<rect x="18" y="90" width="9" height="9" fill="rgb(238,217,196)"/>
<rect x="27" y="0" width="9" height="9" fill="rgb(63,38,191)"/>
<rect x="27" y="9" width="9" height="9" fill="rgb(198,45,66)"/>
<rect x="27" y="18" width="9" height="9" fill="rgb(128,85,51)"/>
<rect x="27" y="27" width="9" height="9" fill="rgb(204,85,61)"/>
<rect x="27" y="36" width="9" height="9" fill="rgb(139,114,190)"/>
<rect x="27" y="45" width="9" height="9" fill="rgb(210,125,70)"/>
<rect x="27" y="54" width="9" height="9" fill="rgb(252,116,253)"/>
<rect x="27" y="63" width="9" height="9" fill="rgb(201,160,220)"/>
<rect x="27" y="72" width="9" height="9" fill="rgb(251,174,210)"/>
<rect x="27" y="81" width="9" height="9" fill="rgb(147,223,184)"/>
<rect x="27" y="90" width="9" height="9" fill="rgb(255,235,0)"/>
<rect x="36" y="0" width="9" height="9" fill="rgb(0,70,140)"/>
<rect x="36" y="9" width="9" height="9" fill="rgb(107,63,160)"/>
<rect x="36" y="18" width="9" height="9" fill="rgb(218,50,135)"/>
<rect x="36" y="27" width="9" height="9" fill="rgb(200,80,155)"/>
<rect x="36" y="36" width="9" height="9" fill="rgb(13,152,186)"/>
<rect x="36" y="45" width="9" height="9" fill="rgb(254,111,94)"/>
<rect x="36" y="54" width="9" height="9" fill="rgb(255,136,51)"/>
<rect x="36" y="63" width="9" height="9" fill="rgb(181,179,92)"/>
<rect x="36" y="72" width="9" height="9" fill="rgb(201,192,187)"/>
<rect x="36" y="81" width="9" height="9" fill="rgb(157,224,147)"/>
<rect x="36" y="90" width="9" height="9" fill="rgb(253,215,228)"/>
<rect x="45" y="0" width="9" height="9" fill="rgb(237,10,63)"/>
<rect x="45" y="9" width="9" height="9" fill="rgb(225,44,44)"/>
<rect x="45" y="18" width="9" height="9" fill="rgb(1,120,111)"/>
<rect x="45" y="27" width="9" height="9" fill="rgb(69,112,230)"/>
<rect x="45" y="36" width="9" height="9" fill="rgb(0,157,196)"/>
<rect x="45" y="45" width="9" height="9" fill="rgb(41,171,135)"/>
<rect x="45" y="54" width="9" height="9" fill="rgb(153,153,204)"/>
<rect x="45" y="63" width="9" height="9" fill="rgb(226,156,210)"/>
<rect x="45" y="72" width="9" height="9" fill="rgb(147,204,234)"/>
<rect x="45" y="81" width="9" height="9" fill="rgb(195,205,230)"/>
<rect x="45" y="90" width="9" height="9" fill="rgb(241,231,136)"/>
<rect x="54" y="0" width="9" height="9" fill="rgb(227,11,92)"/>
<rect x="54" y="9" width="9" height="9" fill="rgb(179,59,36)"/>
<rect x="54" y="18" width="9" height="9" fill="rgb(143,71,179)"/>
<rect x="54" y="27" width="9" height="9" fill="rgb(219,80,121)"/>
<rect x="54" y="36" width="9" height="9" fill="rgb(231,114,0)"/>
<rect x="54" y="45" width="9" height="9" fill="rgb(26,179,133)"/>
<rect x="54" y="54" width="9" height="9" fill="rgb(0,204,153)"/>
<rect x="54" y="63" width="9" height="9" fill="rgb(222,166,129)"/>
<rect x="54" y="72" width="9" height="9" fill="rgb(230,190,138)"/>
<rect x="54" y="81" width="9" height="9" fill="rgb(237,201,175)"/>
<rect x="54" y="90" width="9" height="9" fill="rgb(251,232,112)"/>
<rect x="63" y="0" width="9" height="9" fill="rgb(115,46,108)"/>
<rect x="63" y="9" width="9" height="9" fill="rgb(204,51,54)"/>
<rect x="63" y="18" width="9" height="9" fill="rgb(100,86,183)"/>
<rect x="63" y="27" width="9" height="9" fill="rgb(247,70,138)"/>
<rect x="63" y="36" width="9" height="9" fill="rgb(255,104,31)"/>
<rect x="63" y="45" width="9" height="9" fill="rgb(146,146,110)"/>
<rect x="63" y="54" width="9" height="9" fill="rgb(252,128,165)"/>
<rect x="63" y="63" width="9" height="9" fill="rgb(172,172,230)"/>
<rect x="63" y="72" width="9" height="9" fill="rgb(126,212,230)"/>
<rect x="63" y="81" width="9" height="9" fill="rgb(149,224,232)"/>
<rect x="63" y="90" width="9" height="9" fill="rgb(251,231,178)"/>
<rect x="72" y="0" width="9" height="9" fill="rgb(101,45,193)"/>
<rect x="72" y="9" width="9" height="9" fill="rgb(202,52,53)"/>
<rect x="72" y="18" width="9" height="9" fill="rgb(204,71,75)"/>
<rect x="72" y="27" width="9" height="9" fill="rgb(254,76,64)"/>
<rect x="72" y="36" width="9" height="9" fill="rgb(2,164,211)"/>
<rect x="72" y="45" width="9" height="9" fill="rgb(141,144,161)"/>
<rect x="72" y="54" width="9" height="9" fill="rgb(191,143,204)"/>
<rect x="72" y="63" width="9" height="9" fill="rgb(169,178,195)"/>
<rect x="72" y="72" width="9" height="9" fill="rgb(255,185,123)"/>
<rect x="72" y="81" width="9" height="9" fill="rgb(190,230,75)"/>
<rect x="72" y="90" width="9" height="9" fill="rgb(236,235,189)"/>
<rect x="81" y="0" width="9" height="9" fill="rgb(253,14,53)"/>
<rect x="81" y="9" width="9" height="9" fill="rgb(102,82,51)"/>
<rect x="81" y="18" width="9" height="9" fill="rgb(185,78,72)"/>
<rect x="81" y="27" width="9" height="9" fill="rgb(131,112,80)"/>
<rect x="81" y="36" width="9" height="9" fill="rgb(139,134,128)"/>
<rect x="81" y="45" width="9" height="9" fill="rgb(123,160,91)"/>
<rect x="81" y="54" width="9" height="9" fill="rgb(229,142,115)"/>
<rect x="81" y="63" width="9" height="9" fill="rgb(247,163,142)"/>
<rect x="81" y="72" width="9" height="9" fill="rgb(108,218,231)"/>
<rect x="81" y="81" width="9" height="9" fill="rgb(255,203,164)"/>
<rect x="81" y="90" width="9" height="9" fill="rgb(250,250,55)"/>
<rect x="90" y="0" width="9" height="9" fill="rgb(115,51,128)"/>
<rect x="90" y="9" width="9" height="9" fill="rgb(166,58,121)"/>
<rect x="90" y="18" width="9" height="9" fill="rgb(165,83,83)"/>
<rect x="90" y="27" width="9" height="9" fill="rgb(193,84,193)"/>
<rect x="90" y="36" width="9" height="9" fill="rgb(51,154,204)"/>
<rect x="90" y="45" width="9" height="9" fill="rgb(140,144,200)"/>
<rect x="90" y="54" width="9" height="9" fill="rgb(99,183,108)"/>
<rect x="90" y="63" width="9" height="9" fill="rgb(172,191,96)"/>
<rect x="90" y="72" width="9" height="9" fill="rgb(118,215,234)"/>
<rect x="90" y="81" width="9" height="9" fill="rgb(197,225,122)"/>
<rect x="90" y="90" width="9" height="9" fill="rgb(255,255,153)"/>
<rect x="99" y="0" width="9" height="9" fill="rgb(195,33,72)"/>
<rect x="99" y="9" width="9" height="9" fill="rgb(187,51,133)"/>
<rect x="99" y="18" width="9" height="9" fill="rgb(0,128,128)"/>
<rect x="99" y="27" width="9" height="9" fill="rgb(146,111,91)"/>
<rect x="99" y="36" width="9" height="9" fill="rgb(217,108,190)"/>
<rect x="99" y="45" width="9" height="9" fill="rgb(95,167,119)"/>
<rect x="99" y="54" width="9" height="9" fill="rgb(48,191,191)"/>
<rect x="99" y="63" width="9" height="9" fill="rgb(255,174,66)"/>
<rect x="99" y="72" width="9" height="9" fill="rgb(242,198,73)"/>
<rect x="99" y="81" width="9" height="9" fill="rgb(248,213,104)"/>
<rect x="99" y="90" width="9" height="9" fill="rgb(255,255,159)"/>
<rect x="108" y="0" width="9" height="9" fill="rgb(102,66,40)"/>
<rect x="108" y="9" width="9" height="9" fill="rgb(21,96,189)"/>
<rect x="108" y="18" width="9" height="9" fill="rgb(255,51,153)"/>
<rect x="108" y="27" width="9" height="9" fill="rgb(118,110,200)"/>
<rect x="108" y="36" width="9" height="9" fill="rgb(58,166,85)"/>
<rect x="108" y="45" width="9" height="9" fill="rgb(200,138,101)"/>
<rect x="108" y="54" width="9" height="9" fill="rgb(0,204,204)"/>
<rect x="108" y="63" width="9" height="9" fill="rgb(236,177,118)"/>
<rect x="108" y="72" width="9" height="9" fill="rgb(254,186,173)"/>
<rect x="108" y="81" width="9" height="9" fill="rgb(252,214,103)"/>
<rect x="108" y="90" width="9" height="9" fill="rgb(255,255,255)"/>
<rect x="117" y="0" width="9" height="9" fill="rgb(217,33,33)"/>
<rect x="117" y="9" width="9" height="9" fill="rgb(0,102,204)"/>
<rect x="117" y="18" width="9" height="9" fill="rgb(131,89,163)"/>
<rect x="117" y="27" width="9" height="9" fill="rgb(112,112,204)"/>
<rect x="117" y="36" width="9" height="9" fill="rgb(122,137,184)"/>
<rect x="117" y="45" width="9" height="9" fill="rgb(255,127,73)"/>
<rect x="117" y="54" width="9" height="9" fill="rgb(217,154,108)"/>
<rect x="117" y="63" width="9" height="9" fill="rgb(214,174,221)"/>
<rect x="117" y="72" width="9" height="9" fill="rgb(141,217,204)"/>
<rect x="117" y="81" width="9" height="9" fill="rgb(217,214,207)"/>
<rect x="126" y="0" width="9" height="9" fill="rgb(97,64,81)"/>
<rect x="126" y="9" width="9" height="9" fill="rgb(17,100,180)"/>
<rect x="126" y="18" width="9" height="9" fill="rgb(158,91,64)"/>
<rect x="126" y="27" width="9" height="9" fill="rgb(255,83,73)"/>
<rect x="126" y="36" width="9" height="9" fill="rgb(230,103,206)"/>
<rect x="126" y="45" width="9" height="9" fill="rgb(108,166,124)"/>
<rect x="126" y="54" width="9" height="9" fill="rgb(240,145,169)"/>
<rect x="126" y="63" width="9" height="9" fill="rgb(255,166,201)"/>
<rect x="126" y="72" width="9" height="9" fill="rgb(200,200,205)"/>
<rect x="126" y="81" width="9" height="9" fill="rgb(254,216,93)"/>
</svg>