<svg xmlns="http://www.w3.org/2000/svg" width="161.8" height="100.0" viewBox="-45.45 -55.00 171.80 110.00">
<g fill="none" stroke="black" stroke-width="0.0600%" transform="translate(0, 0.0000) scale(8.3333, -8.3333)">
<polyline points="-4.85,-1.00 -4.66,-1.00 -4.47,-1.01 -4.27,-1.02 -4.08,-1.03 -3.88,-1.05 -3.69,-1.08 -3.49,-1.11 -3.30,-1.14 -3.11,-1.18 -2.91,-1.24 -2.72,-1.30 -2.52,-1.37 -2.33,-1.46 -2.14,-1.57 -1.94,-1.70 -1.75,-1.87 -1.55,-2.08 -1.36,-2.35 -1.16,-2.72 -0.97,-3.24 -0.78,-4.02 -0.58,-5.34 -0.39,-6.00 -0.19,-6.00 0.00,6.00 0.19,6.00 0.39,6.00 0.58,5.34 0.78,4.02 0.97,3.24 1.16,2.72 1.36,2.35 1.55,2.08 1.75,1.87 1.94,1.70 2.14,1.57 2.33,1.46 2.52,1.37 2.72,1.30 2.91,1.24 3.11,1.18 3.30,1.14 3.49,1.11 3.69,1.08 3.88,1.05 4.08,1.03 4.27,1.02 4.47,1.01 4.66,1.00 4.85,1.00 5.05,1.00 5.24,1.01 5.44,1.02 5.63,1.03 5.82,1.05 6.02,1.08 6.21,1.11 6.41,1.14 6.60,1.18 6.80,1.24 6.99,1.30 7.18,1.37 7.38,1.46 7.57,1.57 7.77,1.70 7.96,1.87 8.15,2.08 8.35,2.35 8.54,2.72 8.74,3.24 8.93,4.02 9.13,5.34 9.32,6.00 9.51,6.00 9.71,-6.00 9.90,-6.00 10.10,-6.00 10.29,-5.34 10.48,-4.02 10.68,-3.24 10.87,-2.72 11.07,-2.35 11.26,-2.08 11.46,-1.87 11.65,-1.70 11.84,-1.57 12.04,-1.46 12.23,-1.37 12.43,-1.30 12.62,-1.24 12.81,-1.18 13.01,-1.14 13.20,-1.11 13.40,-1.08 13.59,-1.05 13.79,-1.03 13.98,-1.02 14.17,-1.01 14.37,-1.00 14.56,-1.00" />
</g>
</svg>