<svg xmlns="http://www.w3.org/2000/svg" width="192" height="54" viewBox="0 0 192 54">
<rect x="3" y="51" width="3" height="3" fill="rgb(0,0,0)"/>
<rect x="6" y="42" width="3" height="3" fill="rgb(0,0,0)"/>
<rect x="9" y="39" width="3" height="3" fill="rgb(0,0,0)"/>
<rect x="9" y="42" width="3" height="3" fill="rgb(0,0,0)"/>
<rect x="9" y="48" width="3" height="3" fill="rgb(0,0,0)"/>
<rect x="9" y="51" width="3" height="3" fill="rgb(0,0,0)"/>
<rect x="12" y="33" width="3" height="3" fill="rgb(0,0,0)"/>
<rect x="15" y="33" width="3" height="3" fill="rgb(0,0,0)"/>
<rect x="15" y="36" width="3" height="3" fill="rgb(0,0,0)"/>
<rect x="15" y="39" width="3" height="3" fill="rgb(0,0,0)"/>
<rect x="15" y="42" width="3" height="3" fill="rgb(0,0,0)"/>
<rect x="15" y="45" width="3" height="3" fill="rgb(0,0,0)"/>
<rect x="15" y="51" width="3" height="3" fill="rgb(0,0,0)"/>
<rect x="18" y="30" width="3" height="3" fill="rgb(0,0,0)"/>
<rect x="18" y="33" width="3" height="3" fill="rgb(0,0,0)"/>
<rect x="18" y="39" width="3" height="3" fill="rgb(0,0,0)"/>
<rect x="18" y="42" width="3" height="3" fill="rgb(0,0,0)"/>
<rect x="21" y="27" width="3" height="3" fill="rgb(0,0,0)"/>
<rect x="21" y="33" width="3" height="3" fill="rgb(0,0,0)"/>
<rect x="21" y="39" width="3" height="3" fill="rgb(0,0,0)"/>
<rect x="21" y="45" width="3" height="3" fill="rgb(0,0,0)"/>
<rect x="21" y="48" width="3" height="3" fill="rgb(0,0,0)"/>
<rect x="21" y="51" width="3" height="3" fill="rgb(0,0,0)"/>
<rect x="24" y="24" width="3" height="3" fill="rgb(0,0,0)"/>
<rect x="27" y="24" width="3" height="3" fill="rgb(0,0,0)"/>
<rect x="27" y="30" width="3" height="3" fill="rgb(0,0,0)"/>
<rect x="27" y="33" width="3" height="3" fill="rgb(0,0,0)"/>
<rect x="27" y="39" width="3" height="3" fill="rgb(0,0,0)"/>
<rect x="27" y="42" width="3" height="3" fill="rgb(0,0,0)"/>
<rect x="27" y="51" width="3" height="3" fill="rgb(0,0,0)"/>
<rect x="30" y="24" width="3" height="3" fill="rgb(0,0,0)"/>
<rect x="30" y="27" width="3" height="3" fill="rgb(0,0,0)"/>
<rect x="30" y="30" width="3" height="3" fill="rgb(0,0,0)"/>
<rect x="30" y="33" width="3" height="3" fill="rgb(0,0,0)"/>
<rect x="30" y="36" width="3" height="3" fill="rgb(0,0,0)"/>
<rect x="30" y="42" width="3" height="3" fill="rgb(0,0,0)"/>
<rect x="33" y="21" width="3" height="3" fill="rgb(0,0,0)"/>
<rect x="33" y="27" width="3" height="3" fill="rgb(0,0,0)"/>
<rect x="33" y="36" width="3" height="3" fill="rgb(0,0,0)"/>
<rect x="33" y="39" width="3" height="3" fill="rgb(0,0,0)"/>
<rect x="33" y="48" width="3" height="3" fill="rgb(0,0,0)"/>
<rect x="33" y="51" width="3" height="3" fill="rgb(0,0,0)"/>
<rect x="36" y="21" width="3" height="3" fill="rgb(0,0,0)"/>
<rect x="36" y="24" width="3" height="3" fill="rgb(0,0,0)"/>
<rect x="36" y="30" width="3" height="3" fill="rgb(0,0,0)"/>
<rect x="36" y="33" width="3" height="3" fill="rgb(0,0,0)"/>
<rect x="39" y="18" width="3" height="3" fill="rgb(0,0,0)"/>
<rect x="39" y="30" width="3" height="3" fill="rgb(0,0,0)"/>
<rect x="39" y="39" width="3" height="3" fill="rgb(0,0,0)"/>
<rect x="39" y="45" width="3" height="3" fill="rgb(0,0,0)"/>
<rect x="39" y="51" width="3" height="3" fill="rgb(0,0,0)"/>
<rect x="42" y="18" width="3" height="3" fill="rgb(0,0,0)"/>
<rect x="42" y="24" width="3" height="3" fill="rgb(0,0,0)"/>
<rect x="42" y="30" width="3" height="3" fill="rgb(0,0,0)"/>
<rect x="42" y="36" width="3" height="3" fill="rgb(0,0,0)"/>
<rect x="42" y="39" width="3" height="3" fill="rgb(0,0,0)"/>
<rect x="42" y="42" width="3" height="3" fill="rgb(0,0,0)"/>
<rect x="45" y="18" width="3" height="3" fill="rgb(0,0,0)"/>
<rect x="45" y="21" width="3" height="3" fill="rgb(0,0,0)"/>
<rect x="45" y="27" width="3" height="3" fill="rgb(0,0,0)"/>
<rect x="45" y="36" width="3" height="3" fill="rgb(0,0,0)"/>
<rect x="45" y="42" width="3" height="3" fill="rgb(0,0,0)"/>
<rect x="45" y="45" width="3" height="3" fill="rgb(0,0,0)"/>
<rect x="45" y="48" width="3" height="3" fill="rgb(0,0,0)"/>
<rect x="45" y="51" width="3" height="3" fill="rgb(0,0,0)"/>
<rect x="48" y="15" width="3" height="3" fill="rgb(0,0,0)"/>
<rect x="51" y="15" width="3" height="3" fill="rgb(0,0,0)"/>
<rect x="51" y="24" width="3" height="3" fill="rgb(0,0,0)"/>
<rect x="51" y="27" width="3" height="3" fill="rgb(0,0,0)"/>
<rect x="51" y="36" width="3" height="3" fill="rgb(0,0,0)"/>
<rect x="51" y="39" width="3" height="3" fill="rgb(0,0,0)"/>
<rect x="51" y="51" width="3" height="3" fill="rgb(0,0,0)"/>
<rect x="54" y="15" width="3" height="3" fill="rgb(0,0,0)"/>
<rect x="54" y="21" width="3" height="3" fill="rgb(0,0,0)"/>
<rect x="54" y="24" width="3" height="3" fill="rgb(0,0,0)"/>
<rect x="54" y="30" width="3" height="3" fill="rgb(0,0,0)"/>
<rect x="54" y="33" width="3" height="3" fill="rgb(0,0,0)"/>
<rect x="54" y="42" width="3" height="3" fill="rgb(0,0,0)"/>
<rect x="57" y="15" width="3" height="3" fill="rgb(0,0,0)"/>
<rect x="57" y="18" width="3" height="3" fill="rgb(0,0,0)"/>
<rect x="57" y="24" width="3" height="3" fill="rgb(0,0,0)"/>
<rect x="57" y="30" width="3" height="3" fill="rgb(0,0,0)"/>
<rect x="57" y="33" width="3" height="3" fill="rgb(0,0,0)"/>
<rect x="57" y="42" width="3" height="3" fill="rgb(0,0,0)"/>
<rect x="57" y="48" width="3" height="3" fill="rgb(0,0,0)"/>
<rect x="57" y="51" width="3" height="3" fill="rgb(0,0,0)"/>
<rect x="60" y="15" width="3" height="3" fill="rgb(0,0,0)"/>
<rect x="60" y="18" width="3" height="3" fill="rgb(0,0,0)"/>
<rect x="60" y="21" width="3" height="3" fill="rgb(0,0,0)"/>
<rect x="60" y="24" width="3" height="3" fill="rgb(0,0,0)"/>
<rect x="60" y="27" width="3" height="3" fill="rgb(0,0,0)"/>
<rect x="60" y="33" width="3" height="3" fill="rgb(0,0,0)"/>
<rect x="63" y="12" width="3" height="3" fill="rgb(0,0,0)"/>
<rect x="63" y="21" width="3" height="3" fill="rgb(0,0,0)"/>
<rect x="63" y="36" width="3" height="3" fill="rgb(0,0,0)"/>
<rect x="63" y="42" width="3" height="3" fill="rgb(0,0,0)"/>
<rect x="63" y="45" width="3" height="3" fill="rgb(0,0,0)"/>
<rect x="63" y="51" width="3" height="3" fill="rgb(0,0,0)"/>
<rect x="66" y="12" width="3" height="3" fill="rgb(0,0,0)"/>
<rect x="66" y="18" width="3" height="3" fill="rgb(0,0,0)"/>
<rect x="66" y="27" width="3" height="3" fill="rgb(0,0,0)"/>
<rect x="66" y="30" width="3" height="3" fill="rgb(0,0,0)"/>
<rect x="66" y="39" width="3" height="3" fill="rgb(0,0,0)"/>
<rect x="66" y="42" width="3" height="3" fill="rgb(0,0,0)"/>
<rect x="69" y="12" width="3" height="3" fill="rgb(0,0,0)"/>
<rect x="69" y="18" width="3" height="3" fill="rgb(0,0,0)"/>
<rect x="69" y="21" width="3" height="3" fill="rgb(0,0,0)"/>
<rect x="69" y="24" width="3" height="3" fill="rgb(0,0,0)"/>
<rect x="69" y="27" width="3" height="3" fill="rgb(0,0,0)"/>
<rect x="69" y="30" width="3" height="3" fill="rgb(0,0,0)"/>
<rect x="69" y="45" width="3" height="3" fill="rgb(0,0,0)"/>
<rect x="69" y="48" width="3" height="3" fill="rgb(0,0,0)"/>
<rect x="69" y="51" width="3" height="3" fill="rgb(0,0,0)"/>
<rect x="72" y="12" width="3" height="3" fill="rgb(0,0,0)"/>
<rect x="72" y="15" width="3" height="3" fill="rgb(0,0,0)"/>
<rect x="72" y="21" width="3" height="3" fill="rgb(0,0,0)"/>
<rect x="72" y="24" width="3" height="3" fill="rgb(0,0,0)"/>
<rect x="75" y="12" width="3" height="3" fill="rgb(0,0,0)"/>
<rect x="75" y="15" width="3" height="3" fill="rgb(0,0,0)"/>
<rect x="75" y="18" width="3" height="3" fill="rgb(0,0,0)"/>
<rect x="75" y="21" width="3" height="3" fill="rgb(0,0,0)"/>
<rect x="75" y="27" width="3" height="3" fill="rgb(0,0,0)"/>
<rect x="75" y="42" width="3" height="3" fill="rgb(0,0,0)"/>
<rect x="75" y="51" width="3" height="3" fill="rgb(0,0,0)"/>
<rect x="78" y="9" width="3" height="3" fill="rgb(0,0,0)"/>
<rect x="78" y="21" width="3" height="3" fill="rgb(0,0,0)"/>
<rect x="78" y="30" width="3" height="3" fill="rgb(0,0,0)"/>
<rect x="78" y="36" width="3" height="3" fill="rgb(0,0,0)"/>
<rect x="78" y="42" width="3" height="3" fill="rgb(0,0,0)"/>
<rect x="81" y="9" width="3" height="3" fill="rgb(0,0,0)"/>
<rect x="81" y="18" width="3" height="3" fill="rgb(0,0,0)"/>
<rect x="81" y="21" width="3" height="3" fill="rgb(0,0,0)"/>
<rect x="81" y="30" width="3" height="3" fill="rgb(0,0,0)"/>
<rect x="81" y="33" width="3" height="3" fill="rgb(0,0,0)"/>
<rect x="81" y="36" width="3" height="3" fill="rgb(0,0,0)"/>
<rect x="81" y="48" width="3" height="3" fill="rgb(0,0,0)"/>
<rect x="81" y="51" width="3" height="3" fill="rgb(0,0,0)"/>
<rect x="84" y="9" width="3" height="3" fill="rgb(0,0,0)"/>
<rect x="84" y="15" width="3" height="3" fill="rgb(0,0,0)"/>
<rect x="84" y="21" width="3" height="3" fill="rgb(0,0,0)"/>
<rect x="84" y="27" width="3" height="3" fill="rgb(0,0,0)"/>
<rect x="84" y="30" width="3" height="3" fill="rgb(0,0,0)"/>
<rect x="84" y="33" width="3" height="3" fill="rgb(0,0,0)"/>
<rect x="87" y="9" width="3" height="3" fill="rgb(0,0,0)"/>
<rect x="87" y="15" width="3" height="3" fill="rgb(0,0,0)"/>
<rect x="87" y="18" width="3" height="3" fill="rgb(0,0,0)"/>
<rect x="87" y="21" width="3" height="3" fill="rgb(0,0,0)"/>
<rect x="87" y="24" width="3" height="3" fill="rgb(0,0,0)"/>
<rect x="87" y="27" width="3" height="3" fill="rgb(0,0,0)"/>
<rect x="87" y="33" width="3" height="3" fill="rgb(0,0,0)"/>
<rect x="87" y="45" width="3" height="3" fill="rgb(0,0,0)"/>
<rect x="87" y="51" width="3" height="3" fill="rgb(0,0,0)"/>
<rect x="90" y="9" width="3" height="3" fill="rgb(0,0,0)"/>
<rect x="90" y="12" width="3" height="3" fill="rgb(0,0,0)"/>
<rect x="90" y="18" width="3" height="3" fill="rgb(0,0,0)"/>
<rect x="90" y="27" width="3" height="3" fill="rgb(0,0,0)"/>
<rect x="90" y="33" width="3" height="3" fill="rgb(0,0,0)"/>
<rect x="90" y="36" width="3" height="3" fill="rgb(0,0,0)"/>
<rect x="90" y="39" width="3" height="3" fill="rgb(0,0,0)"/>
<rect x="90" y="42" width="3" height="3" fill="rgb(0,0,0)"/>
<rect x="93" y="9" width="3" height="3" fill="rgb(0,0,0)"/>
<rect x="93" y="12" width="3" height="3" fill="rgb(0,0,0)"/>
<rect x="93" y="15" width="3" height="3" fill="rgb(0,0,0)"/>
<rect x="93" y="21" width="3" height="3" fill="rgb(0,0,0)"/>
<rect x="93" y="33" width="3" height="3" fill="rgb(0,0,0)"/>
<rect x="93" y="39" width="3" height="3" fill="rgb(0,0,0)"/>
<rect x="93" y="42" width="3" height="3" fill="rgb(0,0,0)"/>
<rect x="93" y="45" width="3" height="3" fill="rgb(0,0,0)"/>
<rect x="93" y="48" width="3" height="3" fill="rgb(0,0,0)"/>
<rect x="93" y="51" width="3" height="3" fill="rgb(0,0,0)"/>
<rect x="96" y="6" width="3" height="3" fill="rgb(0,0,0)"/>
<rect x="99" y="6" width="3" height="3" fill="rgb(0,0,0)"/>
<rect x="99" y="18" width="3" height="3" fill="rgb(0,0,0)"/>
<rect x="99" y="21" width="3" height="3" fill="rgb(0,0,0)"/>
<rect x="99" y="33" width="3" height="3" fill="rgb(0,0,0)"/>
<rect x="99" y="36" width="3" height="3" fill="rgb(0,0,0)"/>
<rect x="99" y="51" width="3" height="3" fill="rgb(0,0,0)"/>
<rect x="102" y="6" width="3" height="3" fill="rgb(0,0,0)"/>
<rect x="102" y="15" width="3" height="3" fill="rgb(0,0,0)"/>
<rect x="102" y="18" width="3" height="3" fill="rgb(0,0,0)"/>
<rect x="102" y="27" width="3" height="3" fill="rgb(0,0,0)"/>
<rect x="102" y="30" width="3" height="3" fill="rgb(0,0,0)"/>
<rect x="102" y="42" width="3" height="3" fill="rgb(0,0,0)"/>
<rect x="105" y="6" width="3" height="3" fill="rgb(0,0,0)"/>
<rect x="105" y="12" width="3" height="3" fill="rgb(0,0,0)"/>
<rect x="105" y="21" width="3" height="3" fill="rgb(0,0,0)"/>
<rect x="105" y="24" width="3" height="3" fill="rgb(0,0,0)"/>
<rect x="105" y="27" width="3" height="3" fill="rgb(0,0,0)"/>
<rect x="105" y="33" width="3" height="3" fill="rgb(0,0,0)"/>
<rect x="105" y="36" width="3" height="3" fill="rgb(0,0,0)"/>
<rect x="105" y="39" width="3" height="3" fill="rgb(0,0,0)"/>
<rect x="105" y="42" width="3" height="3" fill="rgb(0,0,0)"/>
<rect x="105" y="48" width="3" height="3" fill="rgb(0,0,0)"/>
<rect x="105" y="51" width="3" height="3" fill="rgb(0,0,0)"/>
<rect x="108" y="6" width="3" height="3" fill="rgb(0,0,0)"/>
<rect x="108" y="12" width="3" height="3" fill="rgb(0,0,0)"/>
<rect x="108" y="15" width="3" height="3" fill="rgb(0,0,0)"/>
<rect x="108" y="21" width="3" height="3" fill="rgb(0,0,0)"/>
<rect x="108" y="24" width="3" height="3" fill="rgb(0,0,0)"/>
<rect x="108" y="33" width="3" height="3" fill="rgb(0,0,0)"/>
<rect x="111" y="6" width="3" height="3" fill="rgb(0,0,0)"/>
<rect x="111" y="9" width="3" height="3" fill="rgb(0,0,0)"/>
<rect x="111" y="21" width="3" height="3" fill="rgb(0,0,0)"/>
<rect x="111" y="27" width="3" height="3" fill="rgb(0,0,0)"/>
<rect x="111" y="30" width="3" height="3" fill="rgb(0,0,0)"/>
<rect x="111" y="33" width="3" height="3" fill="rgb(0,0,0)"/>
<rect x="111" y="39" width="3" height="3" fill="rgb(0,0,0)"/>
<rect x="111" y="42" width="3" height="3" fill="rgb(0,0,0)"/>
<rect x="111" y="45" width="3" height="3" fill="rgb(0,0,0)"/>
<rect x="111" y="51" width="3" height="3" fill="rgb(0,0,0)"/>
<rect x="114" y="6" width="3" height="3" fill="rgb(0,0,0)"/>
<rect x="114" y="9" width="3" height="3" fill="rgb(0,0,0)"/>
<rect x="114" y="15" width="3" height="3" fill="rgb(0,0,0)"/>
<rect x="114" y="21" width="3" height="3" fill="rgb(0,0,0)"/>
<rect x="114" y="24" width="3" height="3" fill="rgb(0,0,0)"/>
<rect x="114" y="33" width="3" height="3" fill="rgb(0,0,0)"/>
<rect x="114" y="39" width="3" height="3" fill="rgb(0,0,0)"/>
<rect x="114" y="42" width="3" height="3" fill="rgb(0,0,0)"/>
<rect x="117" y="6" width="3" height="3" fill="rgb(0,0,0)"/>
<rect x="117" y="9" width="3" height="3" fill="rgb(0,0,0)"/>
<rect x="117" y="12" width="3" height="3" fill="rgb(0,0,0)"/>
<rect x="117" y="21" width="3" height="3" fill="rgb(0,0,0)"/>
<rect x="117" y="24" width="3" height="3" fill="rgb(0,0,0)"/>
<rect x="117" y="27" width="3" height="3" fill="rgb(0,0,0)"/>
<rect x="117" y="30" width="3" height="3" fill="rgb(0,0,0)"/>
<rect x="117" y="36" width="3" height="3" fill="rgb(0,0,0)"/>
<rect x="117" y="39" width="3" height="3" fill="rgb(0,0,0)"/>
<rect x="117" y="45" width="3" height="3" fill="rgb(0,0,0)"/>
<rect x="117" y="48" width="3" height="3" fill="rgb(0,0,0)"/>
<rect x="117" y="51" width="3" height="3" fill="rgb(0,0,0)"/>
<rect x="120" y="6" width="3" height="3" fill="rgb(0,0,0)"/>
<rect x="120" y="9" width="3" height="3" fill="rgb(0,0,0)"/>
<rect x="120" y="12" width="3" height="3" fill="rgb(0,0,0)"/>
<rect x="120" y="15" width="3" height="3" fill="rgb(0,0,0)"/>
<rect x="120" y="18" width="3" height="3" fill="rgb(0,0,0)"/>
<rect x="120" y="24" width="3" height="3" fill="rgb(0,0,0)"/>
<rect x="123" y="3" width="3" height="3" fill="rgb(0,0,0)"/>
<rect x="123" y="18" width="3" height="3" fill="rgb(0,0,0)"/>
<rect x="123" y="21" width="3" height="3" fill="rgb(0,0,0)"/>
<rect x="123" y="27" width="3" height="3" fill="rgb(0,0,0)"/>
<rect x="123" y="36" width="3" height="3" fill="rgb(0,0,0)"/>
<rect x="123" y="39" width="3" height="3" fill="rgb(0,0,0)"/>
<rect x="123" y="42" width="3" height="3" fill="rgb(0,0,0)"/>
<rect x="123" y="51" width="3" height="3" fill="rgb(0,0,0)"/>
<rect x="126" y="3" width="3" height="3" fill="rgb(0,0,0)"/>
<rect x="126" y="12" width="3" height="3" fill="rgb(0,0,0)"/>
<rect x="126" y="27" width="3" height="3" fill="rgb(0,0,0)"/>
<rect x="126" y="33" width="3" height="3" fill="rgb(0,0,0)"/>
<rect x="126" y="36" width="3" height="3" fill="rgb(0,0,0)"/>
<rect x="126" y="42" width="3" height="3" fill="rgb(0,0,0)"/>
<rect x="129" y="3" width="3" height="3" fill="rgb(0,0,0)"/>
<rect x="129" y="12" width="3" height="3" fill="rgb(0,0,0)"/>
<rect x="129" y="15" width="3" height="3" fill="rgb(0,0,0)"/>
<rect x="129" y="21" width="3" height="3" fill="rgb(0,0,0)"/>
<rect x="129" y="24" width="3" height="3" fill="rgb(0,0,0)"/>
<rect x="129" y="30" width="3" height="3" fill="rgb(0,0,0)"/>
<rect x="129" y="39" width="3" height="3" fill="rgb(0,0,0)"/>
<rect x="129" y="48" width="3" height="3" fill="rgb(0,0,0)"/>
<rect x="129" y="51" width="3" height="3" fill="rgb(0,0,0)"/>
<rect x="132" y="3" width="3" height="3" fill="rgb(0,0,0)"/>
<rect x="132" y="9" width="3" height="3" fill="rgb(0,0,0)"/>
<rect x="132" y="18" width="3" height="3" fill="rgb(0,0,0)"/>
<rect x="132" y="21" width="3" height="3" fill="rgb(0,0,0)"/>
<rect x="132" y="30" width="3" height="3" fill="rgb(0,0,0)"/>
<rect x="132" y="33" width="3" height="3" fill="rgb(0,0,0)"/>
<rect x="135" y="3" width="3" height="3" fill="rgb(0,0,0)"/>
<rect x="135" y="9" width="3" height="3" fill="rgb(0,0,0)"/>
<rect x="135" y="12" width="3" height="3" fill="rgb(0,0,0)"/>
<rect x="135" y="24" width="3" height="3" fill="rgb(0,0,0)"/>
<rect x="135" y="27" width="3" height="3" fill="rgb(0,0,0)"/>
<rect x="135" y="30" width="3" height="3" fill="rgb(0,0,0)"/>
<rect x="135" y="33" width="3" height="3" fill="rgb(0,0,0)"/>
<rect x="135" y="36" width="3" height="3" fill="rgb(0,0,0)"/>
<rect x="135" y="39" width="3" height="3" fill="rgb(0,0,0)"/>
<rect x="135" y="45" width="3" height="3" fill="rgb(0,0,0)"/>
<rect x="135" y="51" width="3" height="3" fill="rgb(0,0,0)"/>
<rect x="138" y="3" width="3" height="3" fill="rgb(0,0,0)"/>
<rect x="138" y="9" width="3" height="3" fill="rgb(0,0,0)"/>
<rect x="138" y="12" width="3" height="3" fill="rgb(0,0,0)"/>
<rect x="138" y="15" width="3" height="3" fill="rgb(0,0,0)"/>
<rect x="138" y="18" width="3" height="3" fill="rgb(0,0,0)"/>
<rect x="138" y="21" width="3" height="3" fill="rgb(0,0,0)"/>
<rect x="138" y="36" width="3" height="3" fill="rgb(0,0,0)"/>
<rect x="138" y="39" width="3" height="3" fill="rgb(0,0,0)"/>
<rect x="138" y="42" width="3" height="3" fill="rgb(0,0,0)"/>
<rect x="141" y="3" width="3" height="3" fill="rgb(0,0,0)"/>
<rect x="141" y="6" width="3" height="3" fill="rgb(0,0,0)"/>
<rect x="141" y="15" width="3" height="3" fill="rgb(0,0,0)"/>
<rect x="141" y="21" width="3" height="3" fill="rgb(0,0,0)"/>
<rect x="141" y="27" width="3" height="3" fill="rgb(0,0,0)"/>
<rect x="141" y="30" width="3" height="3" fill="rgb(0,0,0)"/>
<rect x="141" y="42" width="3" height="3" fill="rgb(0,0,0)"/>
<rect x="141" y="45" width="3" height="3" fill="rgb(0,0,0)"/>
<rect x="141" y="48" width="3" height="3" fill="rgb(0,0,0)"/>
<rect x="141" y="51" width="3" height="3" fill="rgb(0,0,0)"/>
<rect x="144" y="3" width="3" height="3" fill="rgb(0,0,0)"/>
<rect x="144" y="6" width="3" height="3" fill="rgb(0,0,0)"/>
<rect x="144" y="12" width="3" height="3" fill="rgb(0,0,0)"/>
<rect x="144" y="15" width="3" height="3" fill="rgb(0,0,0)"/>
<rect x="147" y="3" width="3" height="3" fill="rgb(0,0,0)"/>
<rect x="147" y="6" width="3" height="3" fill="rgb(0,0,0)"/>
<rect x="147" y="9" width="3" height="3" fill="rgb(0,0,0)"/>
<rect x="147" y="18" width="3" height="3" fill="rgb(0,0,0)"/>
<rect x="147" y="24" width="3" height="3" fill="rgb(0,0,0)"/>
<rect x="147" y="27" width="3" height="3" fill="rgb(0,0,0)"/>
<rect x="147" y="30" width="3" height="3" fill="rgb(0,0,0)"/>
<rect x="147" y="39" width="3" height="3" fill="rgb(0,0,0)"/>
<rect x="147" y="51" width="3" height="3" fill="rgb(0,0,0)"/>
<rect x="150" y="3" width="3" height="3" fill="rgb(0,0,0)"/>
<rect x="150" y="6" width="3" height="3" fill="rgb(0,0,0)"/>
<rect x="150" y="9" width="3" height="3" fill="rgb(0,0,0)"/>
<rect x="150" y="12" width="3" height="3" fill="rgb(0,0,0)"/>
<rect x="150" y="18" width="3" height="3" fill="rgb(0,0,0)"/>
<rect x="150" y="33" width="3" height="3" fill="rgb(0,0,0)"/>
<rect x="150" y="42" width="3" height="3" fill="rgb(0,0,0)"/>
<rect x="153" y="0" width="3" height="3" fill="rgb(0,0,0)"/>
<rect x="153" y="21" width="3" height="3" fill="rgb(0,0,0)"/>
<rect x="153" y="24" width="3" height="3" fill="rgb(0,0,0)"/>
<rect x="153" y="36" width="3" height="3" fill="rgb(0,0,0)"/>
<rect x="153" y="42" width="3" height="3" fill="rgb(0,0,0)"/>
<rect x="153" y="48" width="3" height="3" fill="rgb(0,0,0)"/>
<rect x="153" y="51" width="3" height="3" fill="rgb(0,0,0)"/>
<rect x="156" y="0" width="3" height="3" fill="rgb(0,0,0)"/>
<rect x="156" y="12" width="3" height="3" fill="rgb(0,0,0)"/>
<rect x="156" y="21" width="3" height="3" fill="rgb(0,0,0)"/>
<rect x="156" y="27" width="3" height="3" fill="rgb(0,0,0)"/>
<rect x="156" y="33" width="3" height="3" fill="rgb(0,0,0)"/>
<rect x="159" y="0" width="3" height="3" fill="rgb(0,0,0)"/>
<rect x="159" y="9" width="3" height="3" fill="rgb(0,0,0)"/>
<rect x="159" y="21" width="3" height="3" fill="rgb(0,0,0)"/>
<rect x="159" y="27" width="3" height="3" fill="rgb(0,0,0)"/>
<rect x="159" y="30" width="3" height="3" fill="rgb(0,0,0)"/>
<rect x="159" y="42" width="3" height="3" fill="rgb(0,0,0)"/>
<rect x="159" y="45" width="3" height="3" fill="rgb(0,0,0)"/>
<rect x="159" y="51" width="3" height="3" fill="rgb(0,0,0)"/>
<rect x="162" y="0" width="3" height="3" fill="rgb(0,0,0)"/>
<rect x="162" y="9" width="3" height="3" fill="rgb(0,0,0)"/>
<rect x="162" y="12" width="3" height="3" fill="rgb(0,0,0)"/>
<rect x="162" y="21" width="3" height="3" fill="rgb(0,0,0)"/>
<rect x="162" y="24" width="3" height="3" fill="rgb(0,0,0)"/>
<rect x="162" y="27" width="3" height="3" fill="rgb(0,0,0)"/>
<rect x="162" y="39" width="3" height="3" fill="rgb(0,0,0)"/>
<rect x="162" y="42" width="3" height="3" fill="rgb(0,0,0)"/>
<rect x="165" y="0" width="3" height="3" fill="rgb(0,0,0)"/>
<rect x="165" y="6" width="3" height="3" fill="rgb(0,0,0)"/>
<rect x="165" y="18" width="3" height="3" fill="rgb(0,0,0)"/>
<rect x="165" y="27" width="3" height="3" fill="rgb(0,0,0)"/>
<rect x="165" y="30" width="3" height="3" fill="rgb(0,0,0)"/>
<rect x="165" y="33" width="3" height="3" fill="rgb(0,0,0)"/>
<rect x="165" y="36" width="3" height="3" fill="rgb(0,0,0)"/>
<rect x="165" y="45" width="3" height="3" fill="rgb(0,0,0)"/>
<rect x="165" y="48" width="3" height="3" fill="rgb(0,0,0)"/>
<rect x="165" y="51" width="3" height="3" fill="rgb(0,0,0)"/>
<rect x="168" y="0" width="3" height="3" fill="rgb(0,0,0)"/>
<rect x="168" y="6" width="3" height="3" fill="rgb(0,0,0)"/>
<rect x="168" y="12" width="3" height="3" fill="rgb(0,0,0)"/>
<rect x="168" y="18" width="3" height="3" fill="rgb(0,0,0)"/>
<rect x="168" y="21" width="3" height="3" fill="rgb(0,0,0)"/>
<rect x="168" y="24" width="3" height="3" fill="rgb(0,0,0)"/>
<rect x="171" y="0" width="3" height="3" fill="rgb(0,0,0)"/>
<rect x="171" y="6" width="3" height="3" fill="rgb(0,0,0)"/>
<rect x="171" y="9" width="3" height="3" fill="rgb(0,0,0)"/>
<rect x="171" y="15" width="3" height="3" fill="rgb(0,0,0)"/>
<rect x="171" y="24" width="3" height="3" fill="rgb(0,0,0)"/>
<rect x="171" y="27" width="3" height="3" fill="rgb(0,0,0)"/>
<rect x="171" y="33" width="3" height="3" fill="rgb(0,0,0)"/>
<rect x="171" y="36" width="3" height="3" fill="rgb(0,0,0)"/>
<rect x="171" y="42" width="3" height="3" fill="rgb(0,0,0)"/>
<rect x="171" y="51" width="3" height="3" fill="rgb(0,0,0)"/>
<rect x="174" y="0" width="3" height="3" fill="rgb(0,0,0)"/>
<rect x="174" y="6" width="3" height="3" fill="rgb(0,0,0)"/>
<rect x="174" y="9" width="3" height="3" fill="rgb(0,0,0)"/>
<rect x="174" y="12" width="3" height="3" fill="rgb(0,0,0)"/>
<rect x="174" y="15" width="3" height="3" fill="rgb(0,0,0)"/>
<rect x="174" y="18" width="3" height="3" fill="rgb(0,0,0)"/>
<rect x="174" y="24" width="3" height="3" fill="rgb(0,0,0)"/>
<rect x="174" y="36" width="3" height="3" fill="rgb(0,0,0)"/>
<rect x="174" y="42" width="3" height="3" fill="rgb(0,0,0)"/>
<rect x="177" y="0" width="3" height="3" fill="rgb(0,0,0)"/>
<rect x="177" y="3" width="3" height="3" fill="rgb(0,0,0)"/>
<rect x="177" y="12" width="3" height="3" fill="rgb(0,0,0)"/>
<rect x="177" y="24" width="3" height="3" fill="rgb(0,0,0)"/>
<rect x="177" y="33" width="3" height="3" fill="rgb(0,0,0)"/>
<rect x="177" y="48" width="3" height="3" fill="rgb(0,0,0)"/>
<rect x="177" y="51" width="3" height="3" fill="rgb(0,0,0)"/>
<rect x="180" y="0" width="3" height="3" fill="rgb(0,0,0)"/>
<rect x="180" y="3" width="3" height="3" fill="rgb(0,0,0)"/>
<rect x="180" y="9" width="3" height="3" fill="rgb(0,0,0)"/>
<rect x="180" y="18" width="3" height="3" fill="rgb(0,0,0)"/>
<rect x="180" y="24" width="3" height="3" fill="rgb(0,0,0)"/>
<rect x="180" y="27" width="3" height="3" fill="rgb(0,0,0)"/>
<rect x="180" y="30" width="3" height="3" fill="rgb(0,0,0)"/>
<rect x="180" y="33" width="3" height="3" fill="rgb(0,0,0)"/>
<rect x="183" y="0" width="3" height="3" fill="rgb(0,0,0)"/>
<rect x="183" y="3" width="3" height="3" fill="rgb(0,0,0)"/>
<rect x="183" y="9" width="3" height="3" fill="rgb(0,0,0)"/>
<rect x="183" y="12" width="3" height="3" fill="rgb(0,0,0)"/>
<rect x="183" y="15" width="3" height="3" fill="rgb(0,0,0)"/>
<rect x="183" y="21" width="3" height="3" fill="rgb(0,0,0)"/>
<rect x="183" y="24" width="3" height="3" fill="rgb(0,0,0)"/>
<rect x="183" y="30" width="3" height="3" fill="rgb(0,0,0)"/>
<rect x="183" y="36" width="3" height="3" fill="rgb(0,0,0)"/>
<rect x="183" y="45" width="3" height="3" fill="rgb(0,0,0)"/>
<rect x="183" y="51" width="3" height="3" fill="rgb(0,0,0)"/>
<rect x="186" y="0" width="3" height="3" fill="rgb(0,0,0)"/>
<rect x="186" y="3" width="3" height="3" fill="rgb(0,0,0)"/>
<rect x="186" y="6" width="3" height="3" fill="rgb(0,0,0)"/>
<rect x="186" y="12" width="3" height="3" fill="rgb(0,0,0)"/>
<rect x="186" y="24" width="3" height="3" fill="rgb(0,0,0)"/>
<rect x="186" y="30" width="3" height="3" fill="rgb(0,0,0)"/>
<rect x="186" y="33" width="3" height="3" fill="rgb(0,0,0)"/>
<rect x="186" y="36" width="3" height="3" fill="rgb(0,0,0)"/>
<rect x="186" y="39" width="3" height="3" fill="rgb(0,0,0)"/>
<rect x="186" y="42" width="3" height="3" fill="rgb(0,0,0)"/>
<rect x="189" y="0" width="3" height="3" fill="rgb(0,0,0)"/>
<rect x="189" y="3" width="3" height="3" fill="rgb(0,0,0)"/>
<rect x="189" y="6" width="3" height="3" fill="rgb(0,0,0)"/>
<rect x="189" y="9" width="3" height="3" fill="rgb(0,0,0)"/>
<rect x="189" y="15" width="3" height="3" fill="rgb(0,0,0)"/>
<rect x="189" y="30" width="3" height="3" fill="rgb(0,0,0)"/>
<rect x="189" y="36" width="3" height="3" fill="rgb(0,0,0)"/>
<rect x="189" y="39" width="3" height="3" fill="rgb(0,0,0)"/>
<rect x="189" y="42" width="3" height="3" fill="rgb(0,0,0)"/>
<rect x="189" y="45" width="3" height="3" fill="rgb(0,0,0)"/>
<rect x="189" y="48" width="3" height="3" fill="rgb(0,0,0)"/>
<rect x="189" y="51" width="3" height="3" fill="rgb(0,0,0)"/>
</svg>