<svg xmlns="http://www.w3.org/2000/svg" width="161.8" height="100.0" viewBox="-3.7 -5.0 171.8 110.0">
<g fill="none" stroke="black" stroke-width="0.2350%" transform="translate(0, 100.0000) scale(2.1277, -2.1277)">


<line x1="1.8" y1="0.0" x2="1.8" y2="2.0" />
<line x1="2.4" y1="0.0" x2="2.4" y2="2.0" />
<line x1="3.0" y1="0.0" x2="3.0" y2="4.0" />
<line x1="3.6" y1="0.0" x2="3.6" y2="4.0" />
<line x1="4.2" y1="0.0" x2="4.2" y2="6.0" />
<line x1="4.8" y1="0.0" x2="4.8" y2="6.0" />

<line x1="6.0" y1="0.0" x2="6.0" y2="1.0" />
<line x1="6.6" y1="0.0" x2="6.6" y2="2.0" />
<line x1="7.2" y1="0.0" x2="7.2" y2="3.0" />
<line x1="7.8" y1="0.0" x2="7.8" y2="4.0" />
<line x1="8.4" y1="0.0" x2="8.4" y2="5.0" />
<line x1="9.0" y1="0.0" x2="9.0" y2="6.0" />
<line x1="9.6" y1="0.0" x2="9.6" y2="7.0" />
<line x1="10.2" y1="0.0" x2="10.2" y2="11.0" />
<line x1="10.8" y1="0.0" x2="10.8" y2="10.0" />
<line x1="11.4" y1="0.0" x2="11.4" y2="9.0" />
<line x1="12.0" y1="0.0" x2="12.0" y2="8.0" />
<line x1="12.6" y1="0.0" x2="12.6" y2="15.0" />
<line x1="13.2" y1="0.0" x2="13.2" y2="14.0" />
<line x1="13.8" y1="0.0" x2="13.8" y2="13.0" />
<line x1="14.4" y1="0.0" x2="14.4" y2="12.0" />
<line x1="15.0" y1="0.0" x2="15.0" y2="3.0" />
<line x1="15.6" y1="0.0" x2="15.6" y2="2.0" />
<line x1="16.2" y1="0.0" x2="16.2" y2="1.0" />

<line x1="17.4" y1="0.0" x2="17.4" y2="7.0" />
<line x1="18.0" y1="0.0" x2="18.0" y2="6.0" />
<line x1="18.6" y1="0.0" x2="18.6" y2="5.0" />
<line x1="19.2" y1="0.0" x2="19.2" y2="4.0" />
<line x1="19.8" y1="0.0" x2="19.8" y2="32.0" />
<line x1="20.4" y1="0.0" x2="20.4" y2="32.0" />
<line x1="21.0" y1="0.0" x2="21.0" y2="34.0" />
<line x1="21.6" y1="0.0" x2="21.6" y2="34.0" />
<line x1="22.2" y1="0.0" x2="22.2" y2="36.0" />
<line x1="22.8" y1="0.0" x2="22.8" y2="36.0" />
<line x1="23.4" y1="0.0" x2="23.4" y2="38.0" />
<line x1="24.0" y1="0.0" x2="24.0" y2="38.0" />
<line x1="24.6" y1="0.0" x2="24.6" y2="32.0" />
<line x1="25.1" y1="0.0" x2="25.1" y2="33.0" />
<line x1="25.7" y1="0.0" x2="25.7" y2="34.0" />
<line x1="26.3" y1="0.0" x2="26.3" y2="35.0" />
<line x1="26.9" y1="0.0" x2="26.9" y2="36.0" />
<line x1="27.5" y1="0.0" x2="27.5" y2="37.0" />
<line x1="28.1" y1="0.0" x2="28.1" y2="38.0" />
<line x1="28.7" y1="0.0" x2="28.7" y2="39.0" />
<line x1="29.3" y1="0.0" x2="29.3" y2="43.0" />
<line x1="29.9" y1="0.0" x2="29.9" y2="42.0" />
<line x1="30.5" y1="0.0" x2="30.5" y2="41.0" />
<line x1="31.1" y1="0.0" x2="31.1" y2="40.0" />
<line x1="31.7" y1="0.0" x2="31.7" y2="47.0" />
<line x1="32.3" y1="0.0" x2="32.3" y2="46.0" />
<line x1="32.9" y1="0.0" x2="32.9" y2="45.0" />
<line x1="33.5" y1="0.0" x2="33.5" y2="44.0" />
<line x1="34.1" y1="0.0" x2="34.1" y2="35.0" />
<line x1="34.7" y1="0.0" x2="34.7" y2="34.0" />
<line x1="35.3" y1="0.0" x2="35.3" y2="33.0" />
<line x1="35.9" y1="0.0" x2="35.9" y2="32.0" />
<line x1="36.5" y1="0.0" x2="36.5" y2="39.0" />
<line x1="37.1" y1="0.0" x2="37.1" y2="38.0" />
<line x1="37.7" y1="0.0" x2="37.7" y2="37.0" />
<line x1="38.3" y1="0.0" x2="38.3" y2="36.0" />

<line x1="39.5" y1="0.0" x2="39.5" y2="1.0" />
<line x1="40.1" y1="0.0" x2="40.1" y2="2.0" />
<line x1="40.7" y1="0.0" x2="40.7" y2="3.0" />
<line x1="41.3" y1="0.0" x2="41.3" y2="4.0" />
<line x1="41.9" y1="0.0" x2="41.9" y2="5.0" />
<line x1="42.5" y1="0.0" x2="42.5" y2="6.0" />
<line x1="43.1" y1="0.0" x2="43.1" y2="7.0" />
<line x1="43.7" y1="0.0" x2="43.7" y2="8.0" />
<line x1="44.3" y1="0.0" x2="44.3" y2="9.0" />
<line x1="44.9" y1="0.0" x2="44.9" y2="10.0" />
<line x1="45.5" y1="0.0" x2="45.5" y2="11.0" />
<line x1="46.1" y1="0.0" x2="46.1" y2="12.0" />
<line x1="46.7" y1="0.0" x2="46.7" y2="13.0" />
<line x1="47.3" y1="0.0" x2="47.3" y2="14.0" />
<line x1="47.9" y1="0.0" x2="47.9" y2="15.0" />
<line x1="48.5" y1="0.0" x2="48.5" y2="16.0" />
<line x1="49.1" y1="0.0" x2="49.1" y2="17.0" />
<line x1="49.7" y1="0.0" x2="49.7" y2="18.0" />
<line x1="50.3" y1="0.0" x2="50.3" y2="19.0" />
<line x1="50.9" y1="0.0" x2="50.9" y2="20.0" />
<line x1="51.5" y1="0.0" x2="51.5" y2="21.0" />
<line x1="52.1" y1="0.0" x2="52.1" y2="22.0" />
<line x1="52.7" y1="0.0" x2="52.7" y2="23.0" />
<line x1="53.3" y1="0.0" x2="53.3" y2="24.0" />
<line x1="53.9" y1="0.0" x2="53.9" y2="25.0" />
<line x1="54.5" y1="0.0" x2="54.5" y2="26.0" />
<line x1="55.1" y1="0.0" x2="55.1" y2="27.0" />
<line x1="55.7" y1="0.0" x2="55.7" y2="28.0" />
<line x1="56.3" y1="0.0" x2="56.3" y2="29.0" />
<line x1="56.9" y1="0.0" x2="56.9" y2="30.0" />
<line x1="57.5" y1="0.0" x2="57.5" y2="31.0" />
<line x1="58.1" y1="0.0" x2="58.1" y2="29.0" />
<line x1="58.7" y1="0.0" x2="58.7" y2="28.0" />
<line x1="59.3" y1="0.0" x2="59.3" y2="31.0" />
<line x1="59.9" y1="0.0" x2="59.9" y2="30.0" />
<line x1="60.5" y1="0.0" x2="60.5" y2="25.0" />
<line x1="61.1" y1="0.0" x2="61.1" y2="24.0" />
<line x1="61.7" y1="0.0" x2="61.7" y2="27.0" />
<line x1="62.3" y1="0.0" x2="62.3" y2="26.0" />
<line x1="62.9" y1="0.0" x2="62.9" y2="21.0" />
<line x1="63.5" y1="0.0" x2="63.5" y2="20.0" />
<line x1="64.1" y1="0.0" x2="64.1" y2="23.0" />
<line x1="64.7" y1="0.0" x2="64.7" y2="22.0" />
<line x1="65.3" y1="0.0" x2="65.3" y2="17.0" />
<line x1="65.9" y1="0.0" x2="65.9" y2="16.0" />
<line x1="66.5" y1="0.0" x2="66.5" y2="19.0" />
<line x1="67.1" y1="0.0" x2="67.1" y2="18.0" />
<line x1="67.7" y1="0.0" x2="67.7" y2="13.0" />
<line x1="68.3" y1="0.0" x2="68.3" y2="12.0" />
<line x1="68.9" y1="0.0" x2="68.9" y2="15.0" />
<line x1="69.5" y1="0.0" x2="69.5" y2="14.0" />
<line x1="70.1" y1="0.0" x2="70.1" y2="9.0" />
<line x1="70.7" y1="0.0" x2="70.7" y2="8.0" />
<line x1="71.3" y1="0.0" x2="71.3" y2="11.0" />
<line x1="71.9" y1="0.0" x2="71.9" y2="10.0" />
<line x1="72.5" y1="0.0" x2="72.5" y2="5.0" />
<line x1="73.1" y1="0.0" x2="73.1" y2="4.0" />
<line x1="73.7" y1="0.0" x2="73.7" y2="7.0" />
<line x1="74.3" y1="0.0" x2="74.3" y2="6.0" />
<line x1="74.8" y1="0.0" x2="74.8" y2="1.0" />

<line x1="76.0" y1="0.0" x2="76.0" y2="3.0" />
<line x1="76.6" y1="0.0" x2="76.6" y2="2.0" />
</g>
</svg>