<svg xmlns="http://www.w3.org/2000/svg" width="156.0" height="100.0" viewBox="-3.19 -5.00 166.02 110.00">
<g fill="none" stroke="black" stroke-width="0.1400%" transform="translate(0, 100.0000) scale(3.5714, -3.5714)">
<line x1="0.51" y1="0.00" x2="0.51" y2="1.00" />
<line x1="1.02" y1="0.00" x2="1.02" y2="1.00" />
<line x1="1.52" y1="0.00" x2="1.52" y2="1.00" />
<line x1="2.03" y1="0.00" x2="2.03" y2="1.00" />
<line x1="2.54" y1="0.00" x2="2.54" y2="1.00" />
<line x1="3.05" y1="0.00" x2="3.05" y2="1.00" />
<line x1="3.56" y1="0.00" x2="3.56" y2="1.00" />
<line x1="4.06" y1="0.00" x2="4.06" y2="1.00" />
<line x1="4.57" y1="0.00" x2="4.57" y2="2.00" />
<line x1="5.08" y1="0.00" x2="5.08" y2="2.00" />
<line x1="5.59" y1="0.00" x2="5.59" y2="2.00" />
<line x1="6.10" y1="0.00" x2="6.10" y2="2.00" />
<line x1="6.60" y1="0.00" x2="6.60" y2="2.00" />
<line x1="7.11" y1="0.00" x2="7.11" y2="2.00" />
<line x1="7.62" y1="0.00" x2="7.62" y2="2.00" />
<line x1="8.13" y1="0.00" x2="8.13" y2="2.00" />
<line x1="8.64" y1="0.00" x2="8.64" y2="3.00" />
<line x1="9.14" y1="0.00" x2="9.14" y2="3.00" />
<line x1="9.65" y1="0.00" x2="9.65" y2="3.00" />
<line x1="10.16" y1="0.00" x2="10.16" y2="3.00" />
<line x1="10.67" y1="0.00" x2="10.67" y2="3.00" />
<line x1="11.18" y1="0.00" x2="11.18" y2="3.00" />
<line x1="11.68" y1="0.00" x2="11.68" y2="3.00" />
<line x1="12.19" y1="0.00" x2="12.19" y2="3.00" />
<line x1="12.70" y1="0.00" x2="12.70" y2="4.00" />
<line x1="13.21" y1="0.00" x2="13.21" y2="4.00" />
<line x1="13.72" y1="0.00" x2="13.72" y2="4.00" />
<line x1="14.22" y1="0.00" x2="14.22" y2="5.00" />
<line x1="14.73" y1="0.00" x2="14.73" y2="5.00" />
<line x1="15.24" y1="0.00" x2="15.24" y2="5.00" />
<line x1="15.75" y1="0.00" x2="15.75" y2="5.00" />
<line x1="16.26" y1="0.00" x2="16.26" y2="5.00" />
<line x1="16.76" y1="0.00" x2="16.76" y2="6.00" />
<line x1="17.27" y1="0.00" x2="17.27" y2="6.00" />
<line x1="17.78" y1="0.00" x2="17.78" y2="6.00" />
<line x1="18.29" y1="0.00" x2="18.29" y2="7.00" />
<line x1="18.80" y1="0.00" x2="18.80" y2="7.00" />
<line x1="19.30" y1="0.00" x2="19.30" y2="7.00" />
<line x1="19.81" y1="0.00" x2="19.81" y2="7.00" />
<line x1="20.32" y1="0.00" x2="20.32" y2="7.00" />
<line x1="20.83" y1="0.00" x2="20.83" y2="8.00" />
<line x1="21.34" y1="0.00" x2="21.34" y2="8.00" />
<line x1="21.84" y1="0.00" x2="21.84" y2="8.00" />
<line x1="22.35" y1="0.00" x2="22.35" y2="9.00" />
<line x1="22.86" y1="0.00" x2="22.86" y2="9.00" />
<line x1="23.37" y1="0.00" x2="23.37" y2="9.00" />
<line x1="23.88" y1="0.00" x2="23.88" y2="9.00" />
<line x1="24.38" y1="0.00" x2="24.38" y2="9.00" />
<line x1="24.89" y1="0.00" x2="24.89" y2="10.00" />
<line x1="25.40" y1="0.00" x2="25.40" y2="10.00" />
<line x1="25.91" y1="0.00" x2="25.91" y2="10.00" />
<line x1="26.42" y1="0.00" x2="26.42" y2="11.00" />
<line x1="26.92" y1="0.00" x2="26.92" y2="11.00" />
<line x1="27.43" y1="0.00" x2="27.43" y2="11.00" />
<line x1="27.94" y1="0.00" x2="27.94" y2="12.00" />
<line x1="28.45" y1="0.00" x2="28.45" y2="12.00" />
<line x1="28.96" y1="0.00" x2="28.96" y2="13.00" />
<line x1="29.46" y1="0.00" x2="29.46" y2="13.00" />
<line x1="29.97" y1="0.00" x2="29.97" y2="13.00" />
<line x1="30.48" y1="0.00" x2="30.48" y2="14.00" />
<line x1="30.99" y1="0.00" x2="30.99" y2="14.00" />
<line x1="31.50" y1="0.00" x2="31.50" y2="14.00" />
<line x1="32.00" y1="0.00" x2="32.00" y2="15.00" />
<line x1="32.51" y1="0.00" x2="32.51" y2="15.00" />
<line x1="33.02" y1="0.00" x2="33.02" y2="17.00" />
<line x1="33.53" y1="0.00" x2="33.53" y2="17.00" />
<line x1="34.04" y1="0.00" x2="34.04" y2="17.00" />
<line x1="34.54" y1="0.00" x2="34.54" y2="18.00" />
<line x1="35.05" y1="0.00" x2="35.05" y2="18.00" />
<line x1="35.56" y1="0.00" x2="35.56" y2="18.00" />
<line x1="36.07" y1="0.00" x2="36.07" y2="19.00" />
<line x1="36.58" y1="0.00" x2="36.58" y2="19.00" />
<line x1="37.08" y1="0.00" x2="37.08" y2="21.00" />
<line x1="37.59" y1="0.00" x2="37.59" y2="21.00" />
<line x1="38.10" y1="0.00" x2="38.10" y2="21.00" />
<line x1="38.61" y1="0.00" x2="38.61" y2="22.00" />
<line x1="39.12" y1="0.00" x2="39.12" y2="22.00" />
<line x1="39.62" y1="0.00" x2="39.62" y2="22.00" />
<line x1="40.13" y1="0.00" x2="40.13" y2="23.00" />
<line x1="40.64" y1="0.00" x2="40.64" y2="23.00" />
<line x1="41.15" y1="0.00" x2="41.15" y2="25.00" />
<line x1="41.65" y1="0.00" x2="41.65" y2="26.00" />
<line x1="42.16" y1="0.00" x2="42.16" y2="26.00" />
<line x1="42.67" y1="0.00" x2="42.67" y2="27.00" />
<line x1="43.18" y1="0.00" x2="43.18" y2="27.00" />
<line x1="43.69" y1="0.00" x2="43.69" y2="27.00" />
<line x1="44.19" y1="0.00" x2="44.19" y2="28.00" />
</g>
</svg>