<svg xmlns="http://www.w3.org/2000/svg" width="161.8" height="100.0" viewBox="-3 -5 172 110">
<g fill="none" stroke="black" stroke-width="1373.1250%" transform="translate(0, 100.0000) scale(0.0004, -0.0004)">

<line x1="13672" y1="0" x2="13672" y2="1" />
<line x1="20509" y1="0" x2="20509" y2="8" />
<line x1="27345" y1="0" x2="27345" y2="27" />
<line x1="34181" y1="0" x2="34181" y2="64" />
<line x1="41017" y1="0" x2="41017" y2="125" />
<line x1="47853" y1="0" x2="47853" y2="216" />
<line x1="54690" y1="0" x2="54690" y2="343" />
<line x1="61526" y1="0" x2="61526" y2="512" />
<line x1="68362" y1="0" x2="68362" y2="729" />
<line x1="75198" y1="0" x2="75198" y2="1000" />
<line x1="82034" y1="0" x2="82034" y2="1331" />
<line x1="88871" y1="0" x2="88871" y2="1728" />
<line x1="95707" y1="0" x2="95707" y2="2197" />
<line x1="102543" y1="0" x2="102543" y2="2744" />
<line x1="109379" y1="0" x2="109379" y2="3375" />
<line x1="116215" y1="0" x2="116215" y2="4096" />
<line x1="123051" y1="0" x2="123051" y2="4913" />
<line x1="129888" y1="0" x2="129888" y2="5832" />
<line x1="136724" y1="0" x2="136724" y2="6859" />
<line x1="143560" y1="0" x2="143560" y2="8000" />
<line x1="150396" y1="0" x2="150396" y2="9261" />
<line x1="157232" y1="0" x2="157232" y2="10648" />
<line x1="164069" y1="0" x2="164069" y2="12167" />
<line x1="170905" y1="0" x2="170905" y2="13824" />
<line x1="177741" y1="0" x2="177741" y2="15625" />
<line x1="184577" y1="0" x2="184577" y2="17576" />
<line x1="191413" y1="0" x2="191413" y2="19683" />
<line x1="198250" y1="0" x2="198250" y2="21952" />
<line x1="205086" y1="0" x2="205086" y2="24389" />
<line x1="211922" y1="0" x2="211922" y2="27000" />
<line x1="218758" y1="0" x2="218758" y2="29791" />
<line x1="225594" y1="0" x2="225594" y2="32768" />
<line x1="232431" y1="0" x2="232431" y2="35937" />
<line x1="239267" y1="0" x2="239267" y2="39304" />
<line x1="246103" y1="0" x2="246103" y2="42875" />
<line x1="252939" y1="0" x2="252939" y2="46656" />
<line x1="259775" y1="0" x2="259775" y2="50653" />
<line x1="266612" y1="0" x2="266612" y2="54872" />
<line x1="273448" y1="0" x2="273448" y2="59319" />
<line x1="280284" y1="0" x2="280284" y2="64000" />
<line x1="287120" y1="0" x2="287120" y2="68921" />
<line x1="293956" y1="0" x2="293956" y2="74088" />
<line x1="300793" y1="0" x2="300793" y2="79507" />
<line x1="307629" y1="0" x2="307629" y2="85184" />
<line x1="314465" y1="0" x2="314465" y2="91125" />
<line x1="321301" y1="0" x2="321301" y2="97336" />
<line x1="328137" y1="0" x2="328137" y2="103823" />
<line x1="334973" y1="0" x2="334973" y2="110592" />
<line x1="341810" y1="0" x2="341810" y2="117649" />
<line x1="348646" y1="0" x2="348646" y2="125000" />
<line x1="355482" y1="0" x2="355482" y2="132651" />
<line x1="362318" y1="0" x2="362318" y2="140608" />
<line x1="369154" y1="0" x2="369154" y2="148877" />
<line x1="375991" y1="0" x2="375991" y2="157464" />
<line x1="382827" y1="0" x2="382827" y2="166375" />
<line x1="389663" y1="0" x2="389663" y2="175616" />
<line x1="396499" y1="0" x2="396499" y2="185193" />
<line x1="403335" y1="0" x2="403335" y2="195112" />
<line x1="410172" y1="0" x2="410172" y2="205379" />
<line x1="417008" y1="0" x2="417008" y2="216000" />
<line x1="423844" y1="0" x2="423844" y2="226981" />
<line x1="430680" y1="0" x2="430680" y2="238328" />
<line x1="437516" y1="0" x2="437516" y2="250047" />
<line x1="444353" y1="0" x2="444353" y2="262144" />
<line x1="451189" y1="0" x2="451189" y2="274625" />
</g>
</svg>