<svg xmlns="http://www.w3.org/2000/svg" width="161.8" height="100.0" viewBox="35.451 -19.144 171.803 110.000">
<g fill="none" stroke="black" stroke-width="0.0058%" transform="translate(0, 71.7127) scale(85.8564, -85.8564)">
<circle cx="0.471" cy="0.000" r="0.006" />
<polyline points="0.471,0.000 0.490,-0.017 0.509,-0.034 0.528,-0.051 0.547,-0.067 0.565,-0.082 0.584,-0.097 0.603,-0.111 0.622,-0.123 0.641,-0.134 0.660,-0.144 0.678,-0.152 0.697,-0.158 0.716,-0.163 0.735,-0.165 0.754,-0.165 0.773,-0.162 0.792,-0.157 0.810,-0.149 0.829,-0.138 0.848,-0.123 0.867,-0.106 0.886,-0.085 0.905,-0.061 0.923,-0.032 0.942,0.000 0.961,0.036 0.980,0.076 0.999,0.119 1.018,0.165 1.037,0.214 1.055,0.264 1.074,0.316 1.093,0.368 1.112,0.422 1.131,0.475 1.150,0.529 1.168,0.581 1.187,0.633 1.206,0.682 1.225,0.730 1.244,0.776 1.263,0.818 1.282,0.857 1.300,0.892 1.319,0.923 1.338,0.950 1.357,0.971 1.376,0.987 1.395,0.997 1.413,1.000 1.432,0.997 1.451,0.987 1.470,0.971 1.489,0.950 1.508,0.923 1.527,0.892 1.545,0.857 1.564,0.818 1.583,0.776 1.602,0.730 1.621,0.682 1.640,0.633 1.658,0.581 1.677,0.529 1.696,0.475 1.715,0.422 1.734,0.368 1.753,0.316 1.772,0.264 1.790,0.214 1.809,0.165 1.828,0.119 1.847,0.076 1.866,0.036 1.885,-0.000 1.903,-0.032 1.922,-0.061 1.941,-0.085 1.960,-0.106 1.979,-0.123 1.998,-0.138 2.017,-0.149 2.035,-0.157 2.054,-0.162 2.073,-0.165 2.092,-0.165 2.111,-0.163 2.130,-0.158 2.148,-0.152 2.167,-0.144 2.186,-0.134 2.205,-0.123 2.224,-0.111 2.243,-0.097 2.261,-0.082 2.280,-0.067 2.299,-0.051 2.318,-0.034 2.337,-0.017 2.356,-0.000" />
</g>
</svg>