<svg xmlns="http://www.w3.org/2000/svg" width="161.8" height="100.0" viewBox="-21.18 -16.14 171.80 110.00">
<g fill="none" stroke="black" stroke-width="0.0238%" transform="translate(0, 77.7166) scale(20.9994, -20.9994)">
<polyline points="-0.77,-0.53 -0.69,-0.52 -0.62,-0.50 -0.54,-0.46 -0.46,-0.42 -0.39,-0.36 -0.31,-0.30 -0.23,-0.23 -0.15,-0.16 -0.08,-0.08 -0.00,-0.00 0.08,0.08 0.15,0.16 0.23,0.23 0.31,0.30 0.39,0.36 0.46,0.42 0.54,0.47 0.62,0.52 0.69,0.56 0.77,0.59 0.85,0.62 0.92,0.64 1.00,0.65 1.08,0.66 1.16,0.67 1.23,0.66 1.31,0.66 1.39,0.64 1.46,0.62 1.54,0.60 1.62,0.57 1.70,0.54 1.77,0.50 1.85,0.46 1.93,0.41 2.00,0.36 2.08,0.31 2.16,0.26 2.23,0.21 2.31,0.16 2.39,0.11 2.47,0.06 2.54,0.02 2.62,-0.03 2.70,-0.07 2.77,-0.10 2.85,-0.14 2.93,-0.16 3.01,-0.18 3.08,-0.20 3.16,-0.21 3.24,-0.21 3.31,-0.21 3.39,-0.19 3.47,-0.18 3.54,-0.15 3.62,-0.13 3.70,-0.09 3.78,-0.05 3.85,-0.00 3.93,0.05 4.01,0.10 4.08,0.16 4.16,0.23 4.24,0.30 4.31,0.37 4.39,0.45 4.47,0.53 4.55,0.62 4.62,0.71 4.70,0.80 4.78,0.90 4.85,1.00 4.93,1.10 5.01,1.21 5.09,1.31 5.16,1.42 5.24,1.54 5.32,1.65 5.39,1.77 5.47,1.89 5.55,2.01 5.62,2.13 5.70,2.25 5.78,2.37 5.86,2.50 5.93,2.62 6.01,2.75 6.09,2.87 6.16,3.00 6.24,3.13 6.32,3.25 6.40,3.38 6.47,3.50 6.55,3.63 6.63,3.75 6.70,3.87 6.78,3.99 6.86,4.11 6.93,4.23" />
</g>
</svg>