<svg xmlns="http://www.w3.org/2000/svg" width="161.8" height="100.0" viewBox="-5.000 -5.000 171.803 110.000">
<g fill="none" stroke="black" stroke-width="0.0038%" transform="translate(0, 100.0000) scale(133.3333, -133.3333)">
<circle cx="0.000" cy="0.000" r="0.004" />
<circle cx="0.000" cy="0.750" r="0.004" />
<polyline points="0.000,0.000 0.012,0.030 0.024,0.059 0.036,0.087 0.049,0.115 0.061,0.142 0.073,0.169 0.085,0.195 0.097,0.221 0.109,0.246 0.121,0.270 0.133,0.294 0.146,0.317 0.158,0.339 0.170,0.361 0.182,0.382 0.194,0.403 0.206,0.423 0.218,0.443 0.231,0.462 0.243,0.480 0.255,0.498 0.267,0.515 0.279,0.531 0.291,0.547 0.303,0.563 0.316,0.577 0.328,0.591 0.340,0.605 0.352,0.618 0.364,0.630 0.376,0.642 0.388,0.653 0.400,0.663 0.413,0.673 0.425,0.683 0.437,0.691 0.449,0.699 0.461,0.707 0.473,0.714 0.485,0.720 0.498,0.726 0.510,0.731 0.522,0.735 0.534,0.739 0.546,0.743 0.558,0.745 0.570,0.747 0.582,0.749 0.595,0.750 0.607,0.750 0.619,0.750 0.631,0.749 0.643,0.747 0.655,0.745 0.667,0.742 0.680,0.739 0.692,0.735 0.704,0.731 0.716,0.726 0.728,0.720 0.740,0.714 0.752,0.707 0.765,0.699 0.777,0.691 0.789,0.682 0.801,0.673 0.813,0.663 0.825,0.653 0.837,0.642 0.849,0.630 0.862,0.618 0.874,0.605 0.886,0.591 0.898,0.577 0.910,0.562 0.922,0.547 0.934,0.531 0.947,0.515 0.959,0.498 0.971,0.480 0.983,0.462 0.995,0.443 1.007,0.423 1.019,0.403 1.031,0.382 1.044,0.361 1.056,0.339 1.068,0.317 1.080,0.294 1.092,0.270 1.104,0.246 1.116,0.221 1.129,0.195 1.141,0.169 1.153,0.142 1.165,0.115 1.177,0.087 1.189,0.059 1.201,0.030 1.214,-0.000" />
</g>
</svg>