<svg xmlns="http://www.w3.org/2000/svg" width="134.7" height="100.0" viewBox="-41.593 -5.000 144.712 110.000">
<g fill="none" stroke="black" stroke-width="0.0153%" transform="translate(0, 100.0000) scale(32.7061, -32.7061)">
<circle cx="0.000" cy="0.000" r="0.015" />
<circle cx="1.000" cy="2.000" r="0.015" />
<circle cx="-1.000" cy="3.000" r="0.015" />
<circle cx="0.000" cy="1.000" r="0.015" />
<circle cx="3.000" cy="0.000" r="0.015" />
<polyline points="0.000,0.000 0.079,0.081 0.158,0.163 0.236,0.244 0.313,0.326 0.389,0.407 0.462,0.488 0.533,0.569 0.602,0.650 0.668,0.731 0.730,0.812 0.788,0.893 0.843,0.973 0.893,1.054 0.938,1.134 0.977,1.214 1.011,1.293 1.039,1.373 1.061,1.452 1.075,1.531 1.083,1.610 1.083,1.689 1.075,1.767 1.059,1.845 1.034,1.923 1.000,2.000 0.957,2.077 0.905,2.153 0.845,2.228 0.778,2.302 0.705,2.375 0.625,2.445 0.541,2.514 0.452,2.579 0.360,2.642 0.265,2.702 0.168,2.758 0.070,2.810 -0.029,2.858 -0.128,2.902 -0.227,2.941 -0.323,2.975 -0.417,3.004 -0.509,3.026 -0.596,3.043 -0.679,3.054 -0.757,3.058 -0.828,3.054 -0.893,3.044 -0.951,3.026 -1.000,3.000 -1.041,2.966 -1.073,2.924 -1.096,2.875 -1.111,2.820 -1.119,2.758 -1.119,2.690 -1.111,2.617 -1.096,2.540 -1.075,2.458 -1.047,2.373 -1.012,2.285 -0.971,2.194 -0.925,2.100 -0.872,2.006 -0.815,1.910 -0.752,1.813 -0.685,1.716 -0.612,1.620 -0.536,1.525 -0.455,1.431 -0.371,1.339 -0.283,1.249 -0.192,1.163 -0.097,1.079 0.000,1.000 0.100,0.925 0.202,0.854 0.307,0.788 0.414,0.725 0.523,0.666 0.634,0.611 0.747,0.559 0.862,0.510 0.979,0.465 1.097,0.422 1.217,0.382 1.338,0.344 1.461,0.308 1.585,0.275 1.710,0.244 1.836,0.215 1.963,0.187 2.091,0.160 2.219,0.135 2.349,0.111 2.478,0.088 2.608,0.065 2.739,0.043 2.869,0.021 3.000,0.000" />
</g>
</svg>