<svg xmlns="http://www.w3.org/2000/svg" width="161.8" height="100.0" viewBox="-85.902 -55.000 171.803 110.000">
<g fill="none" stroke="black" stroke-width="0.0025%" transform="translate(0, 0.0000) scale(200.0000, -200.0000)">
<polyline points="-0.405,0.000 -0.396,0.020 -0.388,0.038 -0.380,0.056 -0.372,0.074 -0.364,0.090 -0.356,0.106 -0.348,0.120 -0.340,0.134 -0.332,0.148 -0.324,0.160 -0.316,0.172 -0.307,0.182 -0.299,0.192 -0.291,0.202 -0.283,0.210 -0.275,0.218 -0.267,0.224 -0.259,0.230 -0.251,0.236 -0.243,0.240 -0.235,0.244 -0.227,0.246 -0.218,0.248 -0.210,0.250 -0.202,0.250 -0.194,0.250 -0.186,0.248 -0.178,0.246 -0.170,0.244 -0.162,0.240 -0.154,0.236 -0.146,0.230 -0.138,0.224 -0.129,0.218 -0.121,0.210 -0.113,0.202 -0.105,0.192 -0.097,0.182 -0.089,0.172 -0.081,0.160 -0.073,0.148 -0.065,0.134 -0.057,0.120 -0.049,0.106 -0.040,0.090 -0.032,0.074 -0.024,0.056 -0.016,0.038 -0.008,0.020 0.000,-0.000 0.008,-0.020 0.016,-0.038 0.024,-0.056 0.032,-0.074 0.040,-0.090 0.049,-0.106 0.057,-0.120 0.065,-0.134 0.073,-0.148 0.081,-0.160 0.089,-0.172 0.097,-0.182 0.105,-0.192 0.113,-0.202 0.121,-0.210 0.129,-0.218 0.138,-0.224 0.146,-0.230 0.154,-0.236 0.162,-0.240 0.170,-0.244 0.178,-0.246 0.186,-0.248 0.194,-0.250 0.202,-0.250 0.210,-0.250 0.218,-0.248 0.227,-0.246 0.235,-0.244 0.243,-0.240 0.251,-0.236 0.259,-0.230 0.267,-0.224 0.275,-0.218 0.283,-0.210 0.291,-0.202 0.299,-0.192 0.307,-0.182 0.316,-0.172 0.324,-0.160 0.332,-0.148 0.340,-0.134 0.348,-0.120 0.356,-0.106 0.364,-0.090 0.372,-0.074 0.380,-0.056 0.388,-0.038 0.396,-0.020 0.405,0.000" />
</g>
</svg>