<svg xmlns="http://www.w3.org/2000/svg" width="127.4" height="100.0" viewBox="37.60 22.66 137.37 110.00">
<g fill="none" stroke="black" stroke-width="0.0313%" transform="translate(0, 155.3157) scale(15.9712, -15.9712)">
<polygon points="9.21,3.16 10.21,3.16 10.21,4.16 9.21,4.16" />
<polygon points="9.64,3.41 10.64,3.41 10.64,4.41 9.64,4.41" />
<polygon points="10.21,4.16 9.21,4.16 9.64,4.41 10.64,4.41" />
<polygon points="9.21,3.16 10.21,3.16 10.64,3.41 9.64,3.41" />
<polygon points="9.21,3.16 9.64,3.41 9.64,4.41 9.21,4.16" />
<polygon points="10.21,3.16 10.21,4.16 10.64,4.41 10.64,3.41" />
<polygon points="2.67,5.13 3.67,5.13 3.67,6.13 2.67,6.13" />
<polygon points="3.10,5.38 4.10,5.38 4.10,6.38 3.10,6.38" />
<polygon points="3.67,6.13 2.67,6.13 3.10,6.38 4.10,6.38" />
<polygon points="2.67,5.13 3.67,5.13 4.10,5.38 3.10,5.38" />
<polygon points="2.67,5.13 3.10,5.38 3.10,6.38 2.67,6.13" />
<polygon points="3.67,5.13 3.67,6.13 4.10,6.38 4.10,5.38" />
<polygon points="5.28,1.73 6.28,1.73 6.28,2.73 5.28,2.73" />
<polygon points="5.71,1.98 6.71,1.98 6.71,2.98 5.71,2.98" />
<polygon points="6.28,2.73 5.28,2.73 5.71,2.98 6.71,2.98" />
<polygon points="5.28,1.73 6.28,1.73 6.71,1.98 5.71,1.98" />
<polygon points="5.28,1.73 5.71,1.98 5.71,2.98 5.28,2.73" />
<polygon points="6.28,1.73 6.28,2.73 6.71,2.98 6.71,1.98" />
<polygon points="2.88,3.59 3.88,3.59 3.88,4.59 2.88,4.59" />
<polygon points="3.32,3.84 4.32,3.84 4.32,4.84 3.32,4.84" />
<polygon points="3.88,4.59 2.88,4.59 3.32,4.84 4.32,4.84" />
<polygon points="2.88,3.59 3.88,3.59 4.32,3.84 3.32,3.84" />
<polygon points="2.88,3.59 3.32,3.84 3.32,4.84 2.88,4.59" />
<polygon points="3.88,3.59 3.88,4.59 4.32,4.84 4.32,3.84" />
<polygon points="6.00,6.74 7.00,6.74 7.00,7.74 6.00,7.74" />
<polygon points="6.43,6.99 7.43,6.99 7.43,7.99 6.43,7.99" />
<polygon points="7.00,7.74 6.00,7.74 6.43,7.99 7.43,7.99" />
<polygon points="6.00,6.74 7.00,6.74 7.43,6.99 6.43,6.99" />
<polygon points="6.00,6.74 6.43,6.99 6.43,7.99 6.00,7.74" />
<polygon points="7.00,6.74 7.00,7.74 7.43,7.99 7.43,6.99" />
<polygon points="4.15,5.69 5.15,5.69 5.15,6.69 4.15,6.69" />
<polygon points="4.58,5.94 5.58,5.94 5.58,6.94 4.58,6.94" />
<polygon points="5.15,6.69 4.15,6.69 4.58,6.94 5.58,6.94" />
<polygon points="4.15,5.69 5.15,5.69 5.58,5.94 4.58,5.94" />
<polygon points="4.15,5.69 4.58,5.94 4.58,6.94 4.15,6.69" />
<polygon points="5.15,5.69 5.15,6.69 5.58,6.94 5.58,5.94" />
<polygon points="4.46,3.64 5.46,3.64 5.46,4.64 4.46,4.64" />
<polygon points="4.89,3.89 5.89,3.89 5.89,4.89 4.89,4.89" />
<polygon points="5.46,4.64 4.46,4.64 4.89,4.89 5.89,4.89" />
<polygon points="4.46,3.64 5.46,3.64 5.89,3.89 4.89,3.89" />
<polygon points="4.46,3.64 4.89,3.89 4.89,4.89 4.46,4.64" />
<polygon points="5.46,3.64 5.46,4.64 5.89,4.89 5.89,3.89" />
<polygon points="7.19,2.38 8.19,2.38 8.19,3.38 7.19,3.38" />
<polygon points="7.63,2.63 8.63,2.63 8.63,3.63 7.63,3.63" />
<polygon points="8.19,3.38 7.19,3.38 7.63,3.63 8.63,3.63" />
<polygon points="7.19,2.38 8.19,2.38 8.63,2.63 7.63,2.63" />
<polygon points="7.19,2.38 7.63,2.63 7.63,3.63 7.19,3.38" />
<polygon points="8.19,2.38 8.19,3.38 8.63,3.63 8.63,2.63" />
<polygon points="2.89,5.13 3.89,5.13 3.89,6.13 2.89,6.13" />
<polygon points="3.33,5.38 4.33,5.38 4.33,6.38 3.33,6.38" />
<polygon points="3.89,6.13 2.89,6.13 3.33,6.38 4.33,6.38" />
<polygon points="2.89,5.13 3.89,5.13 4.33,5.38 3.33,5.38" />
<polygon points="2.89,5.13 3.33,5.38 3.33,6.38 2.89,6.13" />
<polygon points="3.89,5.13 3.89,6.13 4.33,6.38 4.33,5.38" />
<polygon points="4.66,2.66 5.66,2.66 5.66,3.66 4.66,3.66" />
<polygon points="5.09,2.91 6.09,2.91 6.09,3.91 5.09,3.91" />
<polygon points="5.66,3.66 4.66,3.66 5.09,3.91 6.09,3.91" />
<polygon points="4.66,2.66 5.66,2.66 6.09,2.91 5.09,2.91" />
<polygon points="4.66,2.66 5.09,2.91 5.09,3.91 4.66,3.66" />
<polygon points="5.66,2.66 5.66,3.66 6.09,3.91 6.09,2.91" />
<polygon points="3.74,4.01 4.74,4.01 4.74,5.01 3.74,5.01" />
<polygon points="4.18,4.26 5.18,4.26 5.18,5.26 4.18,5.26" />
<polygon points="4.74,5.01 3.74,5.01 4.18,5.26 5.18,5.26" />
<polygon points="3.74,4.01 4.74,4.01 5.18,4.26 4.18,4.26" />
<polygon points="3.74,4.01 4.18,4.26 4.18,5.26 3.74,5.01" />
<polygon points="4.74,4.01 4.74,5.01 5.18,5.26 5.18,4.26" />
<polygon points="5.99,4.67 6.99,4.67 6.99,5.67 5.99,5.67" />
<polygon points="6.42,4.92 7.42,4.92 7.42,5.92 6.42,5.92" />
<polygon points="6.99,5.67 5.99,5.67 6.42,5.92 7.42,5.92" />
<polygon points="5.99,4.67 6.99,4.67 7.42,4.92 6.42,4.92" />
<polygon points="5.99,4.67 6.42,4.92 6.42,5.92 5.99,5.67" />
<polygon points="6.99,4.67 6.99,5.67 7.42,5.92 7.42,4.92" />
<polygon points="3.09,6.27 4.09,6.27 4.09,7.27 3.09,7.27" />
<polygon points="3.53,6.52 4.53,6.52 4.53,7.52 3.53,7.52" />
<polygon points="4.09,7.27 3.09,7.27 3.53,7.52 4.53,7.52" />
<polygon points="3.09,6.27 4.09,6.27 4.53,6.52 3.53,6.52" />
<polygon points="3.09,6.27 3.53,6.52 3.53,7.52 3.09,7.27" />
<polygon points="4.09,6.27 4.09,7.27 4.53,7.52 4.53,6.52" />
</g>
</svg>