<svg xmlns="http://www.w3.org/2000/svg" width="161.8" height="100.0" viewBox="-3.91 -5.00 171.80 110.00">
<g fill="none" stroke="black" stroke-width="0.0225%" transform="translate(0, 100.0000) scale(22.2222, -22.2222)">
<polyline points="0.05,0.00 0.10,0.50 0.15,1.00 0.20,1.50 0.24,2.00 0.29,2.50 0.34,3.00 0.39,3.50 0.44,4.00 0.49,4.50 0.54,4.18 0.59,3.83 0.64,3.62 0.68,3.43 0.73,3.27 0.78,3.19 0.83,3.06 0.88,3.06 0.93,2.95 0.98,3.00 1.03,2.90 1.08,3.00 1.12,2.91 1.17,3.04 1.22,2.96 1.27,3.12 1.32,3.04 1.37,3.21 1.42,3.14 1.47,3.33 1.51,3.29 1.56,3.19 1.61,3.15 1.66,3.09 1.71,3.06 1.76,3.03 1.81,3.00 1.86,3.00 1.91,2.97 1.95,3.00 2.00,2.98 2.05,3.02 2.10,3.00 2.15,3.07 2.20,3.04 2.25,3.13 2.30,3.11 2.35,3.21 2.39,3.18 2.44,3.30 2.49,3.29 2.54,3.23 2.59,3.23 2.64,3.19 2.69,3.18 2.74,3.16 2.79,3.16 2.83,3.16 2.88,3.15 2.93,3.17 2.98,3.16 3.03,3.19 3.08,3.19 3.13,3.23 3.18,3.23 3.23,3.29 3.27,3.28 3.32,3.35 3.37,3.35 3.42,3.43 3.47,3.44 3.52,3.39 3.57,3.40 3.62,3.36 3.67,3.37 3.71,3.36 3.76,3.36 3.81,3.36 3.86,3.37 3.91,3.38 3.96,3.38 4.01,3.40 4.06,3.41 4.10,3.44 4.15,3.45 4.20,3.49 4.25,3.49 4.30,3.55 4.35,3.55 4.40,3.61 4.45,3.63 4.50,3.59 4.54,3.60 4.59,3.57 4.64,3.59 4.69,3.57 4.74,3.59 4.79,3.58 4.84,3.60 4.89,3.60 4.94,3.61 4.98,3.63 5.03,3.64 5.08,3.66 5.13,3.68 5.18,3.71 5.23,3.72 5.28,3.76 5.33,3.77 5.38,3.82 5.42,3.84 5.47,3.80 5.52,3.82 5.57,3.80 5.62,3.82 5.67,3.80 5.72,3.82 5.77,3.81 5.82,3.83 5.86,3.83 5.91,3.85 5.96,3.86 6.01,3.88 6.06,3.90 6.11,3.91 6.16,3.94 6.21,3.95 6.25,3.98 6.30,4.00 6.35,4.04 6.40,4.06 6.45,4.03 6.50,4.05 6.55,4.03 6.60,4.05 6.65,4.04 6.69,4.06 6.74,4.05 6.79,4.07 6.84,4.07 6.89,4.09 6.94,4.10 6.99,4.12 7.04,4.13 7.09,4.15 7.13,4.17 7.18,4.19 7.23,4.22 7.28,4.23 7.33,4.27" />
</g>
</svg>