<svg xmlns="http://www.w3.org/2000/svg" width="161.8" height="100.0" viewBox="-85.90 -76.13 171.80 110.00">
<g fill="none" stroke="black" stroke-width="0.0173%" transform="translate(0, -42.2650) scale(28.8675, -28.8675)">
<polyline points="-2.80,-2.46 -2.75,-2.43 -2.69,-2.39 -2.63,-2.36 -2.58,-2.32 -2.52,-2.29 -2.47,-2.25 -2.41,-2.21 -2.35,-2.17 -2.30,-2.14 -2.24,-2.10 -2.19,-2.06 -2.13,-2.02 -2.07,-1.98 -2.02,-1.94 -1.96,-1.90 -1.91,-1.86 -1.85,-1.81 -1.79,-1.77 -1.74,-1.73 -1.68,-1.68 -1.63,-1.64 -1.57,-1.59 -1.51,-1.55 -1.46,-1.50 -1.40,-1.45 -1.35,-1.40 -1.29,-1.35 -1.23,-1.30 -1.18,-1.24 -1.12,-1.19 -1.06,-1.14 -1.01,-1.08 -0.95,-1.02 -0.90,-0.96 -0.84,-0.90 -0.78,-0.83 -0.73,-0.77 -0.67,-0.70 -0.62,-0.62 -0.56,-0.55 -0.50,-0.47 -0.45,-0.39 -0.39,-0.30 -0.34,-0.20 -0.28,-0.10 -0.22,0.02 -0.17,0.15 -0.11,0.31 -0.06,0.51 0.00,1.00 0.06,0.51 0.11,0.31 0.17,0.15 0.22,0.02 0.28,-0.10 0.34,-0.20 0.39,-0.30 0.45,-0.39 0.50,-0.47 0.56,-0.55 0.62,-0.62 0.67,-0.70 0.73,-0.77 0.78,-0.83 0.84,-0.90 0.90,-0.96 0.95,-1.02 1.01,-1.08 1.06,-1.14 1.12,-1.19 1.18,-1.24 1.23,-1.30 1.29,-1.35 1.35,-1.40 1.40,-1.45 1.46,-1.50 1.51,-1.55 1.57,-1.59 1.63,-1.64 1.68,-1.68 1.74,-1.73 1.79,-1.77 1.85,-1.81 1.91,-1.86 1.96,-1.90 2.02,-1.94 2.07,-1.98 2.13,-2.02 2.19,-2.06 2.24,-2.10 2.30,-2.14 2.35,-2.17 2.41,-2.21 2.47,-2.25 2.52,-2.29 2.58,-2.32 2.63,-2.36 2.69,-2.39 2.75,-2.43 2.80,-2.46" />
</g>
</svg>