<svg xmlns="http://www.w3.org/2000/svg" width="99.7" height="100.0" viewBox="-54.487 -55.000 109.658 110.000">
<g fill="none" stroke="black" stroke-width="0.0100%" transform="translate(0, 0.0000) scale(50.1714, -50.1714)">
<circle cx="1.000" cy="0.000" r="0.010" />
<circle cx="0.946" cy="0.325" r="0.010" />
<circle cx="0.789" cy="0.614" r="0.010" />
<circle cx="0.547" cy="0.837" r="0.010" />
<circle cx="0.245" cy="0.969" r="0.010" />
<circle cx="-0.083" cy="0.997" r="0.010" />
<circle cx="-0.402" cy="0.916" r="0.010" />
<circle cx="-0.677" cy="0.736" r="0.010" />
<circle cx="-0.879" cy="0.476" r="0.010" />
<circle cx="-0.986" cy="0.165" r="0.010" />
<circle cx="-0.986" cy="-0.165" r="0.010" />
<circle cx="-0.879" cy="-0.476" r="0.010" />
<circle cx="-0.677" cy="-0.736" r="0.010" />
<circle cx="-0.402" cy="-0.916" r="0.010" />
<circle cx="-0.083" cy="-0.997" r="0.010" />
<circle cx="0.245" cy="-0.969" r="0.010" />
<circle cx="0.547" cy="-0.837" r="0.010" />
<circle cx="0.789" cy="-0.614" r="0.010" />
<circle cx="0.946" cy="-0.325" r="0.010" />
<line x1="1.000" y1="0.000" x2="0.946" y2="0.325" />
<line x1="1.000" y1="0.000" x2="-0.677" y2="0.736" />
<line x1="1.000" y1="0.000" x2="-0.879" y2="0.476" />
<line x1="1.000" y1="0.000" x2="-0.879" y2="-0.476" />
<line x1="1.000" y1="0.000" x2="-0.677" y2="-0.736" />
<line x1="1.000" y1="0.000" x2="0.946" y2="-0.325" />
<line x1="0.946" y1="0.325" x2="0.789" y2="0.614" />
<line x1="0.946" y1="0.325" x2="-0.879" y2="0.476" />
<line x1="0.946" y1="0.325" x2="-0.986" y2="0.165" />
<line x1="0.946" y1="0.325" x2="-0.677" y2="-0.736" />
<line x1="0.946" y1="0.325" x2="-0.402" y2="-0.916" />
<line x1="0.789" y1="0.614" x2="0.547" y2="0.837" />
<line x1="0.789" y1="0.614" x2="-0.986" y2="0.165" />
<line x1="0.789" y1="0.614" x2="-0.986" y2="-0.165" />
<line x1="0.789" y1="0.614" x2="-0.402" y2="-0.916" />
<line x1="0.789" y1="0.614" x2="-0.083" y2="-0.997" />
<line x1="0.547" y1="0.837" x2="0.245" y2="0.969" />
<line x1="0.547" y1="0.837" x2="-0.986" y2="-0.165" />
<line x1="0.547" y1="0.837" x2="-0.879" y2="-0.476" />
<line x1="0.547" y1="0.837" x2="-0.083" y2="-0.997" />
<line x1="0.547" y1="0.837" x2="0.245" y2="-0.969" />
<line x1="0.245" y1="0.969" x2="-0.083" y2="0.997" />
<line x1="0.245" y1="0.969" x2="-0.879" y2="-0.476" />
<line x1="0.245" y1="0.969" x2="-0.677" y2="-0.736" />
<line x1="0.245" y1="0.969" x2="0.245" y2="-0.969" />
<line x1="0.245" y1="0.969" x2="0.547" y2="-0.837" />
<line x1="-0.083" y1="0.997" x2="-0.402" y2="0.916" />
<line x1="-0.083" y1="0.997" x2="-0.677" y2="-0.736" />
<line x1="-0.083" y1="0.997" x2="-0.402" y2="-0.916" />
<line x1="-0.083" y1="0.997" x2="0.547" y2="-0.837" />
<line x1="-0.083" y1="0.997" x2="0.789" y2="-0.614" />
<line x1="-0.402" y1="0.916" x2="-0.677" y2="0.736" />
<line x1="-0.402" y1="0.916" x2="-0.402" y2="-0.916" />
<line x1="-0.402" y1="0.916" x2="-0.083" y2="-0.997" />
<line x1="-0.402" y1="0.916" x2="0.789" y2="-0.614" />
<line x1="-0.402" y1="0.916" x2="0.946" y2="-0.325" />
<line x1="-0.677" y1="0.736" x2="-0.879" y2="0.476" />
<line x1="-0.677" y1="0.736" x2="-0.083" y2="-0.997" />
<line x1="-0.677" y1="0.736" x2="0.245" y2="-0.969" />
<line x1="-0.677" y1="0.736" x2="0.946" y2="-0.325" />
<line x1="-0.879" y1="0.476" x2="-0.986" y2="0.165" />
<line x1="-0.879" y1="0.476" x2="0.245" y2="-0.969" />
<line x1="-0.879" y1="0.476" x2="0.547" y2="-0.837" />
<line x1="-0.986" y1="0.165" x2="-0.986" y2="-0.165" />
<line x1="-0.986" y1="0.165" x2="0.547" y2="-0.837" />
<line x1="-0.986" y1="0.165" x2="0.789" y2="-0.614" />
<line x1="-0.986" y1="-0.165" x2="-0.879" y2="-0.476" />
<line x1="-0.986" y1="-0.165" x2="0.789" y2="-0.614" />
<line x1="-0.986" y1="-0.165" x2="0.946" y2="-0.325" />
<line x1="-0.879" y1="-0.476" x2="-0.677" y2="-0.736" />
<line x1="-0.879" y1="-0.476" x2="0.946" y2="-0.325" />
<line x1="-0.677" y1="-0.736" x2="-0.402" y2="-0.916" />
<line x1="-0.402" y1="-0.916" x2="-0.083" y2="-0.997" />
<line x1="-0.083" y1="-0.997" x2="0.245" y2="-0.969" />
<line x1="0.245" y1="-0.969" x2="0.547" y2="-0.837" />
<line x1="0.547" y1="-0.837" x2="0.789" y2="-0.614" />
<line x1="0.789" y1="-0.614" x2="0.946" y2="-0.325" />
</g>
</svg>