<svg xmlns="http://www.w3.org/2000/svg" width="161.8" height="100.0" viewBox="-2.432 -5.000 171.803 110.000">
<g fill="none" stroke="black" stroke-width="0.0050%" transform="translate(0, 100.0000) scale(100.0000, -100.0000)">





<line x1="0.154" y1="0.000" x2="0.154" y2="1.000" />



<line x1="0.257" y1="0.000" x2="0.257" y2="1.000" />
<line x1="0.283" y1="0.000" x2="0.283" y2="1.000" />


<line x1="0.360" y1="0.000" x2="0.360" y2="1.000" />

<line x1="0.411" y1="0.000" x2="0.411" y2="1.000" />


<line x1="0.488" y1="0.000" x2="0.488" y2="1.000" />
<line x1="0.514" y1="0.000" x2="0.514" y2="1.000" />
<line x1="0.539" y1="0.000" x2="0.539" y2="1.000" />

<line x1="0.591" y1="0.000" x2="0.591" y2="1.000" />

<line x1="0.642" y1="0.000" x2="0.642" y2="1.000" />
<line x1="0.668" y1="0.000" x2="0.668" y2="1.000" />

<line x1="0.719" y1="0.000" x2="0.719" y2="1.000" />
<line x1="0.745" y1="0.000" x2="0.745" y2="1.000" />
<line x1="0.770" y1="0.000" x2="0.770" y2="1.000" />
<line x1="0.796" y1="0.000" x2="0.796" y2="1.000" />
<line x1="0.822" y1="0.000" x2="0.822" y2="1.000" />





<line x1="0.976" y1="0.000" x2="0.976" y2="1.000" />



<line x1="1.079" y1="0.000" x2="1.079" y2="1.000" />
<line x1="1.104" y1="0.000" x2="1.104" y2="1.000" />


<line x1="1.181" y1="0.000" x2="1.181" y2="1.000" />

<line x1="1.233" y1="0.000" x2="1.233" y2="1.000" />


<line x1="1.310" y1="0.000" x2="1.310" y2="1.000" />
<line x1="1.336" y1="0.000" x2="1.336" y2="1.000" />
<line x1="1.361" y1="0.000" x2="1.361" y2="1.000" />

<line x1="1.413" y1="0.000" x2="1.413" y2="1.000" />

<line x1="1.464" y1="0.000" x2="1.464" y2="1.000" />
<line x1="1.490" y1="0.000" x2="1.490" y2="1.000" />

<line x1="1.541" y1="0.000" x2="1.541" y2="1.000" />
<line x1="1.567" y1="0.000" x2="1.567" y2="1.000" />
<line x1="1.592" y1="0.000" x2="1.592" y2="1.000" />
<line x1="1.618" y1="0.000" x2="1.618" y2="1.000" />
<line x1="1.644" y1="0.000" x2="1.644" y2="1.000" />
</g>
</svg>