<svg xmlns="http://www.w3.org/2000/svg" width="161.8" height="100.0" viewBox="-2.432 -5.000 171.803 110.000">
<g fill="none" stroke="black" stroke-width="0.0050%" transform="translate(0, 100.0000) scale(100.0000, -100.0000)">


<line x1="0.077" y1="0.000" x2="0.077" y2="1.000" />
<line x1="0.103" y1="0.000" x2="0.103" y2="1.000" />


<line x1="0.180" y1="0.000" x2="0.180" y2="1.000" />
<line x1="0.205" y1="0.000" x2="0.205" y2="1.000" />


<line x1="0.283" y1="0.000" x2="0.283" y2="1.000" />
<line x1="0.308" y1="0.000" x2="0.308" y2="1.000" />


<line x1="0.385" y1="0.000" x2="0.385" y2="1.000" />
<line x1="0.411" y1="0.000" x2="0.411" y2="1.000" />


<line x1="0.488" y1="0.000" x2="0.488" y2="1.000" />
<line x1="0.514" y1="0.000" x2="0.514" y2="1.000" />


<line x1="0.591" y1="0.000" x2="0.591" y2="1.000" />
<line x1="0.616" y1="0.000" x2="0.616" y2="1.000" />


<line x1="0.693" y1="0.000" x2="0.693" y2="1.000" />
<line x1="0.719" y1="0.000" x2="0.719" y2="1.000" />


<line x1="0.796" y1="0.000" x2="0.796" y2="1.000" />
<line x1="0.822" y1="0.000" x2="0.822" y2="1.000" />


<line x1="0.899" y1="0.000" x2="0.899" y2="1.000" />
<line x1="0.925" y1="0.000" x2="0.925" y2="1.000" />


<line x1="1.002" y1="0.000" x2="1.002" y2="1.000" />
<line x1="1.027" y1="0.000" x2="1.027" y2="1.000" />


<line x1="1.104" y1="0.000" x2="1.104" y2="1.000" />
<line x1="1.130" y1="0.000" x2="1.130" y2="1.000" />


<line x1="1.207" y1="0.000" x2="1.207" y2="1.000" />
<line x1="1.233" y1="0.000" x2="1.233" y2="1.000" />


<line x1="1.310" y1="0.000" x2="1.310" y2="1.000" />
<line x1="1.336" y1="0.000" x2="1.336" y2="1.000" />


<line x1="1.413" y1="0.000" x2="1.413" y2="1.000" />
<line x1="1.438" y1="0.000" x2="1.438" y2="1.000" />


<line x1="1.515" y1="0.000" x2="1.515" y2="1.000" />
<line x1="1.541" y1="0.000" x2="1.541" y2="1.000" />


<line x1="1.618" y1="0.000" x2="1.618" y2="1.000" />
<line x1="1.644" y1="0.000" x2="1.644" y2="1.000" />
</g>
</svg>