<svg xmlns="http://www.w3.org/2000/svg" width="161.8" height="100.0" viewBox="-3.726 -5.000 171.803 110.000">
<g fill="none" stroke="black" stroke-width="0.0050%" transform="translate(0, 100.0000) scale(100.0000, -100.0000)">







<line x1="0.102" y1="0.000" x2="0.102" y2="1.000" />





<line x1="0.178" y1="0.000" x2="0.178" y2="1.000" />
<line x1="0.191" y1="0.000" x2="0.191" y2="1.000" />




<line x1="0.255" y1="0.000" x2="0.255" y2="1.000" />

<line x1="0.280" y1="0.000" x2="0.280" y2="1.000" />




<line x1="0.344" y1="0.000" x2="0.344" y2="1.000" />
<line x1="0.357" y1="0.000" x2="0.357" y2="1.000" />
<line x1="0.369" y1="0.000" x2="0.369" y2="1.000" />



<line x1="0.420" y1="0.000" x2="0.420" y2="1.000" />


<line x1="0.459" y1="0.000" x2="0.459" y2="1.000" />



<line x1="0.510" y1="0.000" x2="0.510" y2="1.000" />

<line x1="0.535" y1="0.000" x2="0.535" y2="1.000" />
<line x1="0.548" y1="0.000" x2="0.548" y2="1.000" />



<line x1="0.599" y1="0.000" x2="0.599" y2="1.000" />
<line x1="0.612" y1="0.000" x2="0.612" y2="1.000" />

<line x1="0.637" y1="0.000" x2="0.637" y2="1.000" />



<line x1="0.688" y1="0.000" x2="0.688" y2="1.000" />
<line x1="0.701" y1="0.000" x2="0.701" y2="1.000" />
<line x1="0.713" y1="0.000" x2="0.713" y2="1.000" />
<line x1="0.726" y1="0.000" x2="0.726" y2="1.000" />


<line x1="0.764" y1="0.000" x2="0.764" y2="1.000" />


<line x1="0.803" y1="0.000" x2="0.803" y2="1.000" />
<line x1="0.815" y1="0.000" x2="0.815" y2="1.000" />


<line x1="0.854" y1="0.000" x2="0.854" y2="1.000" />

<line x1="0.879" y1="0.000" x2="0.879" y2="1.000" />

<line x1="0.905" y1="0.000" x2="0.905" y2="1.000" />


<line x1="0.943" y1="0.000" x2="0.943" y2="1.000" />

<line x1="0.968" y1="0.000" x2="0.968" y2="1.000" />
<line x1="0.981" y1="0.000" x2="0.981" y2="1.000" />
<line x1="0.994" y1="0.000" x2="0.994" y2="1.000" />


<line x1="1.032" y1="0.000" x2="1.032" y2="1.000" />
<line x1="1.045" y1="0.000" x2="1.045" y2="1.000" />

<line x1="1.070" y1="0.000" x2="1.070" y2="1.000" />
<line x1="1.083" y1="0.000" x2="1.083" y2="1.000" />


<line x1="1.121" y1="0.000" x2="1.121" y2="1.000" />
<line x1="1.134" y1="0.000" x2="1.134" y2="1.000" />
<line x1="1.147" y1="0.000" x2="1.147" y2="1.000" />

<line x1="1.172" y1="0.000" x2="1.172" y2="1.000" />


<line x1="1.210" y1="0.000" x2="1.210" y2="1.000" />
<line x1="1.223" y1="0.000" x2="1.223" y2="1.000" />
<line x1="1.236" y1="0.000" x2="1.236" y2="1.000" />
<line x1="1.249" y1="0.000" x2="1.249" y2="1.000" />
<line x1="1.261" y1="0.000" x2="1.261" y2="1.000" />

<line x1="1.287" y1="0.000" x2="1.287" y2="1.000" />

<line x1="1.312" y1="0.000" x2="1.312" y2="1.000" />

<line x1="1.338" y1="0.000" x2="1.338" y2="1.000" />
<line x1="1.350" y1="0.000" x2="1.350" y2="1.000" />

<line x1="1.376" y1="0.000" x2="1.376" y2="1.000" />

<line x1="1.401" y1="0.000" x2="1.401" y2="1.000" />
<line x1="1.414" y1="0.000" x2="1.414" y2="1.000" />
<line x1="1.427" y1="0.000" x2="1.427" y2="1.000" />
<line x1="1.440" y1="0.000" x2="1.440" y2="1.000" />

<line x1="1.465" y1="0.000" x2="1.465" y2="1.000" />
<line x1="1.478" y1="0.000" x2="1.478" y2="1.000" />

<line x1="1.503" y1="0.000" x2="1.503" y2="1.000" />
<line x1="1.516" y1="0.000" x2="1.516" y2="1.000" />
<line x1="1.529" y1="0.000" x2="1.529" y2="1.000" />

<line x1="1.554" y1="0.000" x2="1.554" y2="1.000" />
<line x1="1.567" y1="0.000" x2="1.567" y2="1.000" />
<line x1="1.580" y1="0.000" x2="1.580" y2="1.000" />
<line x1="1.593" y1="0.000" x2="1.593" y2="1.000" />
<line x1="1.605" y1="0.000" x2="1.605" y2="1.000" />
<line x1="1.618" y1="0.000" x2="1.618" y2="1.000" />
<line x1="1.631" y1="0.000" x2="1.631" y2="1.000" />
</g>
</svg>