<svg xmlns="http://www.w3.org/2000/svg" width="161.8" height="100.0" viewBox="-2.432 -5.000 171.803 110.000">
<g fill="none" stroke="black" stroke-width="0.0050%" transform="translate(0, 100.0000) scale(100.0000, -100.0000)">






<line x1="0.180" y1="0.000" x2="0.180" y2="1.000" />




<line x1="0.308" y1="0.000" x2="0.308" y2="1.000" />
<line x1="0.334" y1="0.000" x2="0.334" y2="1.000" />



<line x1="0.437" y1="0.000" x2="0.437" y2="1.000" />

<line x1="0.488" y1="0.000" x2="0.488" y2="1.000" />



<line x1="0.591" y1="0.000" x2="0.591" y2="1.000" />
<line x1="0.616" y1="0.000" x2="0.616" y2="1.000" />
<line x1="0.642" y1="0.000" x2="0.642" y2="1.000" />


<line x1="0.719" y1="0.000" x2="0.719" y2="1.000" />


<line x1="0.796" y1="0.000" x2="0.796" y2="1.000" />

<line x1="0.848" y1="0.000" x2="0.848" y2="1.000" />
<line x1="0.873" y1="0.000" x2="0.873" y2="1.000" />


<line x1="0.950" y1="0.000" x2="0.950" y2="1.000" />
<line x1="0.976" y1="0.000" x2="0.976" y2="1.000" />

<line x1="1.027" y1="0.000" x2="1.027" y2="1.000" />


<line x1="1.104" y1="0.000" x2="1.104" y2="1.000" />
<line x1="1.130" y1="0.000" x2="1.130" y2="1.000" />
<line x1="1.156" y1="0.000" x2="1.156" y2="1.000" />
<line x1="1.181" y1="0.000" x2="1.181" y2="1.000" />

<line x1="1.233" y1="0.000" x2="1.233" y2="1.000" />

<line x1="1.284" y1="0.000" x2="1.284" y2="1.000" />

<line x1="1.336" y1="0.000" x2="1.336" y2="1.000" />
<line x1="1.361" y1="0.000" x2="1.361" y2="1.000" />
<line x1="1.387" y1="0.000" x2="1.387" y2="1.000" />

<line x1="1.438" y1="0.000" x2="1.438" y2="1.000" />
<line x1="1.464" y1="0.000" x2="1.464" y2="1.000" />

<line x1="1.515" y1="0.000" x2="1.515" y2="1.000" />
<line x1="1.541" y1="0.000" x2="1.541" y2="1.000" />
<line x1="1.567" y1="0.000" x2="1.567" y2="1.000" />
<line x1="1.592" y1="0.000" x2="1.592" y2="1.000" />
<line x1="1.618" y1="0.000" x2="1.618" y2="1.000" />
<line x1="1.644" y1="0.000" x2="1.644" y2="1.000" />
</g>
</svg>