<svg xmlns="http://www.w3.org/2000/svg" width="161.8" height="100.0" viewBox="-4.365 -5.000 171.803 110.000">
<g fill="none" stroke="black" stroke-width="0.0050%" transform="translate(0, 100.0000) scale(100.0000, -100.0000)">








<line x1="0.057" y1="0.000" x2="0.057" y2="1.000" />






<line x1="0.102" y1="0.000" x2="0.102" y2="1.000" />
<line x1="0.108" y1="0.000" x2="0.108" y2="1.000" />





<line x1="0.146" y1="0.000" x2="0.146" y2="1.000" />

<line x1="0.159" y1="0.000" x2="0.159" y2="1.000" />





<line x1="0.197" y1="0.000" x2="0.197" y2="1.000" />
<line x1="0.203" y1="0.000" x2="0.203" y2="1.000" />
<line x1="0.209" y1="0.000" x2="0.209" y2="1.000" />




<line x1="0.241" y1="0.000" x2="0.241" y2="1.000" />


<line x1="0.260" y1="0.000" x2="0.260" y2="1.000" />




<line x1="0.292" y1="0.000" x2="0.292" y2="1.000" />

<line x1="0.305" y1="0.000" x2="0.305" y2="1.000" />
<line x1="0.311" y1="0.000" x2="0.311" y2="1.000" />




<line x1="0.343" y1="0.000" x2="0.343" y2="1.000" />
<line x1="0.349" y1="0.000" x2="0.349" y2="1.000" />

<line x1="0.362" y1="0.000" x2="0.362" y2="1.000" />




<line x1="0.393" y1="0.000" x2="0.393" y2="1.000" />
<line x1="0.400" y1="0.000" x2="0.400" y2="1.000" />
<line x1="0.406" y1="0.000" x2="0.406" y2="1.000" />
<line x1="0.412" y1="0.000" x2="0.412" y2="1.000" />



<line x1="0.438" y1="0.000" x2="0.438" y2="1.000" />



<line x1="0.463" y1="0.000" x2="0.463" y2="1.000" />


<line x1="0.482" y1="0.000" x2="0.482" y2="1.000" />
<line x1="0.489" y1="0.000" x2="0.489" y2="1.000" />



<line x1="0.514" y1="0.000" x2="0.514" y2="1.000" />

<line x1="0.527" y1="0.000" x2="0.527" y2="1.000" />

<line x1="0.539" y1="0.000" x2="0.539" y2="1.000" />



<line x1="0.565" y1="0.000" x2="0.565" y2="1.000" />

<line x1="0.577" y1="0.000" x2="0.577" y2="1.000" />
<line x1="0.584" y1="0.000" x2="0.584" y2="1.000" />
<line x1="0.590" y1="0.000" x2="0.590" y2="1.000" />



<line x1="0.615" y1="0.000" x2="0.615" y2="1.000" />
<line x1="0.622" y1="0.000" x2="0.622" y2="1.000" />


<line x1="0.641" y1="0.000" x2="0.641" y2="1.000" />



<line x1="0.666" y1="0.000" x2="0.666" y2="1.000" />
<line x1="0.673" y1="0.000" x2="0.673" y2="1.000" />

<line x1="0.685" y1="0.000" x2="0.685" y2="1.000" />
<line x1="0.692" y1="0.000" x2="0.692" y2="1.000" />



<line x1="0.717" y1="0.000" x2="0.717" y2="1.000" />
<line x1="0.723" y1="0.000" x2="0.723" y2="1.000" />
<line x1="0.730" y1="0.000" x2="0.730" y2="1.000" />

<line x1="0.742" y1="0.000" x2="0.742" y2="1.000" />



<line x1="0.768" y1="0.000" x2="0.768" y2="1.000" />
<line x1="0.774" y1="0.000" x2="0.774" y2="1.000" />
<line x1="0.780" y1="0.000" x2="0.780" y2="1.000" />
<line x1="0.787" y1="0.000" x2="0.787" y2="1.000" />
<line x1="0.793" y1="0.000" x2="0.793" y2="1.000" />


<line x1="0.812" y1="0.000" x2="0.812" y2="1.000" />


<line x1="0.831" y1="0.000" x2="0.831" y2="1.000" />

<line x1="0.844" y1="0.000" x2="0.844" y2="1.000" />


<line x1="0.863" y1="0.000" x2="0.863" y2="1.000" />


<line x1="0.882" y1="0.000" x2="0.882" y2="1.000" />
<line x1="0.888" y1="0.000" x2="0.888" y2="1.000" />
<line x1="0.895" y1="0.000" x2="0.895" y2="1.000" />


<line x1="0.914" y1="0.000" x2="0.914" y2="1.000" />

<line x1="0.926" y1="0.000" x2="0.926" y2="1.000" />

<line x1="0.939" y1="0.000" x2="0.939" y2="1.000" />
<line x1="0.945" y1="0.000" x2="0.945" y2="1.000" />


<line x1="0.964" y1="0.000" x2="0.964" y2="1.000" />

<line x1="0.977" y1="0.000" x2="0.977" y2="1.000" />
<line x1="0.984" y1="0.000" x2="0.984" y2="1.000" />

<line x1="0.996" y1="0.000" x2="0.996" y2="1.000" />


<line x1="1.015" y1="0.000" x2="1.015" y2="1.000" />

<line x1="1.028" y1="0.000" x2="1.028" y2="1.000" />
<line x1="1.034" y1="0.000" x2="1.034" y2="1.000" />
<line x1="1.041" y1="0.000" x2="1.041" y2="1.000" />
<line x1="1.047" y1="0.000" x2="1.047" y2="1.000" />


<line x1="1.066" y1="0.000" x2="1.066" y2="1.000" />
<line x1="1.072" y1="0.000" x2="1.072" y2="1.000" />


<line x1="1.091" y1="0.000" x2="1.091" y2="1.000" />
<line x1="1.098" y1="0.000" x2="1.098" y2="1.000" />

<line x1="1.110" y1="0.000" x2="1.110" y2="1.000" />

<line x1="1.123" y1="0.000" x2="1.123" y2="1.000" />


<line x1="1.142" y1="0.000" x2="1.142" y2="1.000" />
<line x1="1.148" y1="0.000" x2="1.148" y2="1.000" />

<line x1="1.161" y1="0.000" x2="1.161" y2="1.000" />
<line x1="1.168" y1="0.000" x2="1.168" y2="1.000" />
<line x1="1.174" y1="0.000" x2="1.174" y2="1.000" />


<line x1="1.193" y1="0.000" x2="1.193" y2="1.000" />
<line x1="1.199" y1="0.000" x2="1.199" y2="1.000" />
<line x1="1.206" y1="0.000" x2="1.206" y2="1.000" />

<line x1="1.218" y1="0.000" x2="1.218" y2="1.000" />
<line x1="1.225" y1="0.000" x2="1.225" y2="1.000" />


<line x1="1.244" y1="0.000" x2="1.244" y2="1.000" />
<line x1="1.250" y1="0.000" x2="1.250" y2="1.000" />
<line x1="1.256" y1="0.000" x2="1.256" y2="1.000" />
<line x1="1.263" y1="0.000" x2="1.263" y2="1.000" />

<line x1="1.275" y1="0.000" x2="1.275" y2="1.000" />


<line x1="1.294" y1="0.000" x2="1.294" y2="1.000" />
<line x1="1.301" y1="0.000" x2="1.301" y2="1.000" />
<line x1="1.307" y1="0.000" x2="1.307" y2="1.000" />
<line x1="1.313" y1="0.000" x2="1.313" y2="1.000" />
<line x1="1.320" y1="0.000" x2="1.320" y2="1.000" />
<line x1="1.326" y1="0.000" x2="1.326" y2="1.000" />

<line x1="1.339" y1="0.000" x2="1.339" y2="1.000" />

<line x1="1.352" y1="0.000" x2="1.352" y2="1.000" />

<line x1="1.364" y1="0.000" x2="1.364" y2="1.000" />

<line x1="1.377" y1="0.000" x2="1.377" y2="1.000" />
<line x1="1.383" y1="0.000" x2="1.383" y2="1.000" />
<line x1="1.390" y1="0.000" x2="1.390" y2="1.000" />

<line x1="1.402" y1="0.000" x2="1.402" y2="1.000" />

<line x1="1.415" y1="0.000" x2="1.415" y2="1.000" />
<line x1="1.421" y1="0.000" x2="1.421" y2="1.000" />

<line x1="1.434" y1="0.000" x2="1.434" y2="1.000" />
<line x1="1.440" y1="0.000" x2="1.440" y2="1.000" />

<line x1="1.453" y1="0.000" x2="1.453" y2="1.000" />

<line x1="1.466" y1="0.000" x2="1.466" y2="1.000" />
<line x1="1.472" y1="0.000" x2="1.472" y2="1.000" />
<line x1="1.478" y1="0.000" x2="1.478" y2="1.000" />
<line x1="1.485" y1="0.000" x2="1.485" y2="1.000" />
<line x1="1.491" y1="0.000" x2="1.491" y2="1.000" />

<line x1="1.504" y1="0.000" x2="1.504" y2="1.000" />
<line x1="1.510" y1="0.000" x2="1.510" y2="1.000" />

<line x1="1.523" y1="0.000" x2="1.523" y2="1.000" />
<line x1="1.529" y1="0.000" x2="1.529" y2="1.000" />
<line x1="1.536" y1="0.000" x2="1.536" y2="1.000" />
<line x1="1.542" y1="0.000" x2="1.542" y2="1.000" />

<line x1="1.555" y1="0.000" x2="1.555" y2="1.000" />
<line x1="1.561" y1="0.000" x2="1.561" y2="1.000" />
<line x1="1.567" y1="0.000" x2="1.567" y2="1.000" />

<line x1="1.580" y1="0.000" x2="1.580" y2="1.000" />
<line x1="1.586" y1="0.000" x2="1.586" y2="1.000" />
<line x1="1.593" y1="0.000" x2="1.593" y2="1.000" />
<line x1="1.599" y1="0.000" x2="1.599" y2="1.000" />
<line x1="1.605" y1="0.000" x2="1.605" y2="1.000" />
<line x1="1.612" y1="0.000" x2="1.612" y2="1.000" />
<line x1="1.618" y1="0.000" x2="1.618" y2="1.000" />
<line x1="1.624" y1="0.000" x2="1.624" y2="1.000" />
</g>
</svg>