<svg xmlns="http://www.w3.org/2000/svg" width="161.8" height="100.0" viewBox="-5.000 -5.000 171.803 110.000">
<g fill="none" stroke="black" stroke-width="0.0025%" transform="translate(0, 100.0000) scale(200.0000, -200.0000)">
<polyline points="0.000,0.000 0.008,0.020 0.016,0.039 0.024,0.058 0.032,0.077 0.040,0.095 0.049,0.113 0.057,0.130 0.065,0.147 0.073,0.164 0.081,0.180 0.089,0.196 0.097,0.211 0.105,0.226 0.113,0.241 0.121,0.255 0.129,0.269 0.138,0.282 0.146,0.295 0.154,0.308 0.162,0.320 0.170,0.332 0.178,0.343 0.186,0.354 0.194,0.365 0.202,0.375 0.210,0.385 0.218,0.394 0.227,0.403 0.235,0.412 0.243,0.420 0.251,0.428 0.259,0.435 0.267,0.442 0.275,0.449 0.283,0.455 0.291,0.461 0.299,0.466 0.307,0.471 0.316,0.476 0.324,0.480 0.332,0.484 0.340,0.487 0.348,0.490 0.356,0.493 0.364,0.495 0.372,0.497 0.380,0.498 0.388,0.499 0.396,0.500 0.405,0.500 0.413,0.500 0.421,0.499 0.429,0.498 0.437,0.497 0.445,0.495 0.453,0.493 0.461,0.490 0.469,0.487 0.477,0.484 0.485,0.480 0.494,0.476 0.502,0.471 0.510,0.466 0.518,0.461 0.526,0.455 0.534,0.449 0.542,0.442 0.550,0.435 0.558,0.428 0.566,0.420 0.574,0.412 0.582,0.403 0.591,0.394 0.599,0.385 0.607,0.375 0.615,0.365 0.623,0.354 0.631,0.343 0.639,0.332 0.647,0.320 0.655,0.308 0.663,0.295 0.671,0.282 0.680,0.269 0.688,0.255 0.696,0.241 0.704,0.226 0.712,0.211 0.720,0.196 0.728,0.180 0.736,0.164 0.744,0.147 0.752,0.130 0.760,0.113 0.769,0.095 0.777,0.077 0.785,0.058 0.793,0.039 0.801,0.020 0.809,0.000" />
</g>
</svg>