<svg xmlns="http://www.w3.org/2000/svg" width="161.8" height="100.0" viewBox="-4.187 -5.000 171.803 110.000">
<g fill="none" stroke="black" stroke-width="0.0132%" transform="translate(0, 100.0000) scale(37.7858, -37.7858)">
<circle cx="0.022" cy="0.000" r="0.013" />
<circle cx="0.043" cy="0.000" r="0.013" />
<circle cx="0.065" cy="0.519" r="0.013" />
<circle cx="0.086" cy="0.000" r="0.013" />
<circle cx="0.108" cy="0.000" r="0.013" />
<circle cx="0.129" cy="0.519" r="0.013" />
<circle cx="0.151" cy="1.171" r="0.013" />
<circle cx="0.172" cy="0.000" r="0.013" />
<circle cx="0.194" cy="0.519" r="0.013" />
<circle cx="0.215" cy="0.000" r="0.013" />
<circle cx="0.237" cy="0.749" r="0.013" />
<circle cx="0.258" cy="0.519" r="0.013" />
<circle cx="0.280" cy="1.171" r="0.013" />
<circle cx="0.301" cy="1.171" r="0.013" />
<circle cx="0.323" cy="0.519" r="0.013" />
<circle cx="0.344" cy="0.000" r="0.013" />
<circle cx="0.366" cy="1.578" r="0.013" />
<circle cx="0.387" cy="0.519" r="0.013" />
<circle cx="0.409" cy="1.628" r="0.013" />
<circle cx="0.430" cy="0.000" r="0.013" />
<circle cx="0.452" cy="1.171" r="0.013" />
<circle cx="0.473" cy="0.749" r="0.013" />
<circle cx="0.495" cy="1.713" r="0.013" />
<circle cx="0.516" cy="0.519" r="0.013" />
<circle cx="0.538" cy="0.000" r="0.013" />
<circle cx="0.559" cy="1.171" r="0.013" />
<circle cx="0.581" cy="0.898" r="0.013" />
<circle cx="0.603" cy="1.171" r="0.013" />
<circle cx="0.624" cy="1.816" r="0.013" />
<circle cx="0.646" cy="0.519" r="0.013" />
<circle cx="0.667" cy="1.551" r="0.013" />
<circle cx="0.689" cy="0.000" r="0.013" />
<circle cx="0.710" cy="0.749" r="0.013" />
<circle cx="0.732" cy="1.578" r="0.013" />
<circle cx="0.753" cy="1.171" r="0.013" />
<circle cx="0.775" cy="0.519" r="0.013" />
<circle cx="0.796" cy="0.898" r="0.013" />
<circle cx="0.818" cy="1.628" r="0.013" />
<circle cx="0.839" cy="1.171" r="0.013" />
<circle cx="0.861" cy="0.000" r="0.013" />
<circle cx="0.882" cy="1.097" r="0.013" />
<circle cx="0.904" cy="1.171" r="0.013" />
<circle cx="0.925" cy="1.693" r="0.013" />
<circle cx="0.947" cy="0.749" r="0.013" />
<circle cx="0.968" cy="0.519" r="0.013" />
<circle cx="0.990" cy="1.713" r="0.013" />
<circle cx="1.011" cy="2.029" r="0.013" />
<circle cx="1.033" cy="0.519" r="0.013" />
<circle cx="1.054" cy="1.990" r="0.013" />
<circle cx="1.076" cy="0.000" r="0.013" />
<circle cx="1.097" cy="1.578" r="0.013" />
<circle cx="1.119" cy="1.171" r="0.013" />
<circle cx="1.140" cy="1.490" r="0.013" />
<circle cx="1.162" cy="0.898" r="0.013" />
<circle cx="1.184" cy="0.749" r="0.013" />
<circle cx="1.205" cy="1.171" r="0.013" />
<circle cx="1.227" cy="1.628" r="0.013" />
<circle cx="1.248" cy="1.816" r="0.013" />
<circle cx="1.270" cy="2.129" r="0.013" />
<circle cx="1.291" cy="0.519" r="0.013" />
<circle cx="1.313" cy="2.143" r="0.013" />
<circle cx="1.334" cy="1.551" r="0.013" />
<circle cx="1.356" cy="1.171" r="0.013" />
<circle cx="1.377" cy="0.000" r="0.013" />
<circle cx="1.399" cy="1.171" r="0.013" />
<circle cx="1.420" cy="0.749" r="0.013" />
<circle cx="1.442" cy="1.886" r="0.013" />
<circle cx="1.463" cy="1.578" r="0.013" />
<circle cx="1.485" cy="1.713" r="0.013" />
<circle cx="1.506" cy="1.171" r="0.013" />
<circle cx="1.528" cy="1.912" r="0.013" />
<circle cx="1.549" cy="0.519" r="0.013" />
<circle cx="1.571" cy="1.288" r="0.013" />
<circle cx="1.592" cy="0.898" r="0.013" />
<circle cx="1.614" cy="0.519" r="0.013" />
<circle cx="1.635" cy="1.628" r="0.013" />
<circle cx="1.657" cy="1.171" r="0.013" />
<circle cx="1.678" cy="1.171" r="0.013" />
<circle cx="1.700" cy="1.490" r="0.013" />
<circle cx="1.721" cy="0.000" r="0.013" />
<circle cx="1.743" cy="1.337" r="0.013" />
<circle cx="1.764" cy="1.097" r="0.013" />
<circle cx="1.786" cy="1.980" r="0.013" />
<circle cx="1.808" cy="1.171" r="0.013" />
<circle cx="1.829" cy="1.578" r="0.013" />
<circle cx="1.851" cy="1.693" r="0.013" />
<circle cx="1.872" cy="1.816" r="0.013" />
<circle cx="1.894" cy="0.749" r="0.013" />
<circle cx="1.915" cy="2.010" r="0.013" />
<circle cx="1.937" cy="0.519" r="0.013" />
<circle cx="1.958" cy="1.171" r="0.013" />
<circle cx="1.980" cy="1.713" r="0.013" />
<circle cx="2.001" cy="1.551" r="0.013" />
<circle cx="2.023" cy="2.029" r="0.013" />
<circle cx="2.044" cy="1.628" r="0.013" />
<circle cx="2.066" cy="0.519" r="0.013" />
<circle cx="2.087" cy="2.346" r="0.013" />
<circle cx="2.109" cy="1.990" r="0.013" />
<circle cx="2.130" cy="0.749" r="0.013" />
<circle cx="2.152" cy="0.000" r="0.013" />
<circle cx="2.173" cy="1.009" r="0.013" />
<circle cx="2.195" cy="1.578" r="0.013" />
<circle cx="2.216" cy="1.899" r="0.013" />
<circle cx="2.238" cy="1.171" r="0.013" />
<circle cx="2.259" cy="1.171" r="0.013" />
<circle cx="2.281" cy="1.490" r="0.013" />
<circle cx="2.302" cy="2.090" r="0.013" />
<circle cx="2.324" cy="0.898" r="0.013" />
<circle cx="2.345" cy="2.397" r="0.013" />
<circle cx="2.367" cy="0.749" r="0.013" />
<circle cx="2.389" cy="0.898" r="0.013" />
<circle cx="2.410" cy="1.171" r="0.013" />
<circle cx="2.432" cy="2.413" r="0.013" />
<circle cx="2.453" cy="1.628" r="0.013" />
<circle cx="2.475" cy="1.713" r="0.013" />
<circle cx="2.496" cy="1.816" r="0.013" />
<circle cx="2.518" cy="1.171" r="0.013" />
<circle cx="2.539" cy="2.129" r="0.013" />
<circle cx="2.561" cy="2.047" r="0.013" />
<circle cx="2.582" cy="0.519" r="0.013" />
<circle cx="2.604" cy="1.713" r="0.013" />
<circle cx="2.625" cy="2.143" r="0.013" />
<circle cx="2.647" cy="1.097" r="0.013" />
<circle cx="2.668" cy="1.551" r="0.013" />
<circle cx="2.690" cy="0.000" r="0.013" />
<circle cx="2.711" cy="1.171" r="0.013" />
<circle cx="2.733" cy="1.990" r="0.013" />
<circle cx="2.754" cy="0.000" r="0.013" />
<circle cx="2.776" cy="1.693" r="0.013" />
<circle cx="2.797" cy="1.171" r="0.013" />
<circle cx="2.819" cy="2.478" r="0.013" />
<circle cx="2.840" cy="0.749" r="0.013" />
<circle cx="2.862" cy="1.628" r="0.013" />
<circle cx="2.883" cy="1.886" r="0.013" />
<circle cx="2.905" cy="0.898" r="0.013" />
<circle cx="2.926" cy="1.578" r="0.013" />
<circle cx="2.948" cy="1.288" r="0.013" />
<circle cx="2.970" cy="1.713" r="0.013" />
<circle cx="2.991" cy="2.029" r="0.013" />
<circle cx="3.013" cy="1.171" r="0.013" />
<circle cx="3.034" cy="2.029" r="0.013" />
<circle cx="3.056" cy="1.912" r="0.013" />
<circle cx="3.077" cy="1.171" r="0.013" />
<circle cx="3.099" cy="0.519" r="0.013" />
<circle cx="3.120" cy="1.816" r="0.013" />
<circle cx="3.142" cy="1.288" r="0.013" />
<circle cx="3.163" cy="1.990" r="0.013" />
<circle cx="3.185" cy="0.898" r="0.013" />
<circle cx="3.206" cy="2.534" r="0.013" />
<circle cx="3.228" cy="0.519" r="0.013" />
<circle cx="3.249" cy="2.240" r="0.013" />
<circle cx="3.271" cy="1.628" r="0.013" />
<circle cx="3.292" cy="1.578" r="0.013" />
<circle cx="3.314" cy="1.171" r="0.013" />
<circle cx="3.335" cy="1.551" r="0.013" />
<circle cx="3.357" cy="1.171" r="0.013" />
<circle cx="3.378" cy="2.257" r="0.013" />
<circle cx="3.400" cy="1.490" r="0.013" />
<circle cx="3.421" cy="1.490" r="0.013" />
<circle cx="3.443" cy="0.000" r="0.013" />
<circle cx="3.464" cy="2.185" r="0.013" />
<circle cx="3.486" cy="1.337" r="0.013" />
<circle cx="3.507" cy="2.273" r="0.013" />
<circle cx="3.529" cy="1.097" r="0.013" />
<circle cx="3.551" cy="0.749" r="0.013" />
<circle cx="3.572" cy="1.980" r="0.013" />
<circle cx="3.594" cy="2.583" r="0.013" />
<circle cx="3.615" cy="1.171" r="0.013" />
<circle cx="3.637" cy="2.257" r="0.013" />
<circle cx="3.658" cy="1.578" r="0.013" />
<circle cx="3.680" cy="1.628" r="0.013" />
<circle cx="3.701" cy="1.693" r="0.013" />
<circle cx="3.723" cy="2.000" r="0.013" />
<circle cx="3.744" cy="1.816" r="0.013" />
<circle cx="3.766" cy="1.171" r="0.013" />
<circle cx="3.787" cy="0.749" r="0.013" />
<circle cx="3.809" cy="2.129" r="0.013" />
<circle cx="3.830" cy="2.010" r="0.013" />
<circle cx="3.852" cy="2.614" r="0.013" />
<circle cx="3.873" cy="0.519" r="0.013" />
<circle cx="3.895" cy="2.619" r="0.013" />
<circle cx="3.916" cy="1.171" r="0.013" />
<circle cx="3.938" cy="2.143" r="0.013" />
<circle cx="3.959" cy="1.713" r="0.013" />
<circle cx="3.981" cy="0.898" r="0.013" />
<circle cx="4.002" cy="1.551" r="0.013" />
<circle cx="4.024" cy="1.578" r="0.013" />
<circle cx="4.045" cy="2.029" r="0.013" />
<circle cx="4.067" cy="1.171" r="0.013" />
<circle cx="4.088" cy="1.628" r="0.013" />
<circle cx="4.110" cy="2.342" r="0.013" />
<circle cx="4.131" cy="0.519" r="0.013" />
<circle cx="4.153" cy="2.646" r="0.013" />
<circle cx="4.175" cy="2.346" r="0.013" />
<circle cx="4.196" cy="1.171" r="0.013" />
<circle cx="4.218" cy="1.990" r="0.013" />
<circle cx="4.239" cy="2.355" r="0.013" />
<circle cx="4.261" cy="0.749" r="0.013" />
<circle cx="4.282" cy="2.360" r="0.013" />
<circle cx="4.304" cy="0.000" r="0.013" />
</g>
</svg>