<svg xmlns="http://www.w3.org/2000/svg" width="161.8" height="100.0" viewBox="-4 -5 172 110">
<g fill="none" stroke="black" stroke-width="5.1600%" transform="translate(0, 100.0000) scale(0.0969, -0.0969)">
<circle cx="10" cy="0" r="5" />
<circle cx="19" cy="1" r="5" />
<circle cx="29" cy="0" r="5" />
<circle cx="38" cy="6" r="5" />
<circle cx="48" cy="2" r="5" />
<circle cx="58" cy="6" r="5" />
<circle cx="67" cy="16" r="5" />
<circle cx="77" cy="18" r="5" />
<circle cx="86" cy="22" r="5" />
<circle cx="96" cy="28" r="5" />
<circle cx="106" cy="15" r="5" />
<circle cx="115" cy="3" r="5" />
<circle cx="125" cy="5" r="5" />
<circle cx="134" cy="21" r="5" />
<circle cx="144" cy="46" r="5" />
<circle cx="154" cy="13" r="5" />
<circle cx="163" cy="58" r="5" />
<circle cx="173" cy="60" r="5" />
<circle cx="182" cy="33" r="5" />
<circle cx="192" cy="35" r="5" />
<circle cx="202" cy="8" r="5" />
<circle cx="211" cy="13" r="5" />
<circle cx="221" cy="41" r="5" />
<circle cx="230" cy="44" r="5" />
<circle cx="240" cy="96" r="5" />
<circle cx="250" cy="4" r="5" />
<circle cx="259" cy="34" r="5" />
<circle cx="269" cy="53" r="5" />
<circle cx="278" cy="108" r="5" />
<circle cx="288" cy="112" r="5" />
<circle cx="297" cy="42" r="5" />
<circle cx="307" cy="130" r="5" />
<circle cx="317" cy="8" r="5" />
<circle cx="326" cy="46" r="5" />
<circle cx="336" cy="148" r="5" />
<circle cx="345" cy="75" r="5" />
<circle cx="355" cy="78" r="5" />
<circle cx="365" cy="81" r="5" />
<circle cx="374" cy="166" r="5" />
<circle cx="384" cy="43" r="5" />
<circle cx="393" cy="178" r="5" />
<circle cx="403" cy="180" r="5" />
<circle cx="413" cy="95" r="5" />
<circle cx="422" cy="192" r="5" />
<circle cx="432" cy="98" r="5" />
<circle cx="441" cy="99" r="5" />
<circle cx="451" cy="30" r="5" />
<circle cx="461" cy="222" r="5" />
<circle cx="470" cy="113" r="5" />
<circle cx="480" cy="228" r="5" />
<circle cx="489" cy="232" r="5" />
<circle cx="499" cy="7" r="5" />
<circle cx="509" cy="30" r="5" />
<circle cx="518" cy="50" r="5" />
<circle cx="528" cy="256" r="5" />
<circle cx="537" cy="262" r="5" />
<circle cx="547" cy="268" r="5" />
<circle cx="557" cy="5" r="5" />
<circle cx="566" cy="69" r="5" />
<circle cx="576" cy="28" r="5" />
<circle cx="585" cy="141" r="5" />
<circle cx="595" cy="146" r="5" />
<circle cx="605" cy="153" r="5" />
<circle cx="614" cy="155" r="5" />
<circle cx="624" cy="312" r="5" />
<circle cx="633" cy="79" r="5" />
<circle cx="643" cy="110" r="5" />
<circle cx="653" cy="336" r="5" />
<circle cx="662" cy="173" r="5" />
<circle cx="672" cy="116" r="5" />
<circle cx="681" cy="32" r="5" />
<circle cx="691" cy="179" r="5" />
<circle cx="701" cy="366" r="5" />
<circle cx="710" cy="186" r="5" />
<circle cx="720" cy="378" r="5" />
<circle cx="729" cy="382" r="5" />
<circle cx="739" cy="388" r="5" />
<circle cx="749" cy="99" r="5" />
<circle cx="758" cy="200" r="5" />
<circle cx="768" cy="204" r="5" />
<circle cx="777" cy="418" r="5" />
<circle cx="787" cy="140" r="5" />
<circle cx="797" cy="215" r="5" />
<circle cx="806" cy="432" r="5" />
<circle cx="816" cy="219" r="5" />
<circle cx="825" cy="221" r="5" />
<circle cx="835" cy="32" r="5" />
<circle cx="845" cy="152" r="5" />
<circle cx="854" cy="460" r="5" />
<circle cx="864" cy="154" r="5" />
<circle cx="873" cy="233" r="5" />
<circle cx="883" cy="239" r="5" />
<circle cx="892" cy="486" r="5" />
<circle cx="902" cy="490" r="5" />
<circle cx="912" cy="498" r="5" />
<circle cx="921" cy="502" r="5" />
<circle cx="931" cy="508" r="5" />
<circle cx="940" cy="52" r="5" />
<circle cx="950" cy="261" r="5" />
<circle cx="960" cy="540" r="5" />
<circle cx="969" cy="91" r="5" />
<circle cx="979" cy="278" r="5" />
<circle cx="988" cy="281" r="5" />
<circle cx="998" cy="284" r="5" />
<circle cx="1008" cy="570" r="5" />
<circle cx="1017" cy="576" r="5" />
<circle cx="1027" cy="293" r="5" />
<circle cx="1036" cy="592" r="5" />
<circle cx="1046" cy="299" r="5" />
<circle cx="1056" cy="300" r="5" />
<circle cx="1065" cy="202" r="5" />
<circle cx="1075" cy="51" r="5" />
<circle cx="1084" cy="88" r="5" />
<circle cx="1094" cy="618" r="5" />
<circle cx="1104" cy="315" r="5" />
<circle cx="1113" cy="32" r="5" />
<circle cx="1123" cy="107" r="5" />
<circle cx="1132" cy="646" r="5" />
<circle cx="1142" cy="326" r="5" />
<circle cx="1152" cy="658" r="5" />
<circle cx="1161" cy="220" r="5" />
<circle cx="1171" cy="224" r="5" />
<circle cx="1180" cy="338" r="5" />
<circle cx="1190" cy="341" r="5" />
<circle cx="1200" cy="230" r="5" />
<circle cx="1209" cy="700" r="5" />
<circle cx="1219" cy="708" r="5" />
<circle cx="1228" cy="359" r="5" />
<circle cx="1238" cy="726" r="5" />
<circle cx="1248" cy="61" r="5" />
<circle cx="1257" cy="246" r="5" />
<circle cx="1267" cy="742" r="5" />
<circle cx="1276" cy="125" r="5" />
<circle cx="1286" cy="27" r="5" />
<circle cx="1296" cy="380" r="5" />
<circle cx="1305" cy="192" r="5" />
<circle cx="1315" cy="193" r="5" />
<circle cx="1324" cy="393" r="5" />
<circle cx="1334" cy="199" r="5" />
<circle cx="1344" cy="202" r="5" />
<circle cx="1353" cy="810" r="5" />
<circle cx="1363" cy="820" r="5" />
<circle cx="1372" cy="822" r="5" />
<circle cx="1382" cy="413" r="5" />
<circle cx="1392" cy="276" r="5" />
<circle cx="1401" cy="419" r="5" />
<circle cx="1411" cy="213" r="5" />
<circle cx="1420" cy="856" r="5" />
<circle cx="1430" cy="26" r="5" />
<circle cx="1439" cy="862" r="5" />
<circle cx="1449" cy="438" r="5" />
<circle cx="1459" cy="440" r="5" />
<circle cx="1468" cy="441" r="5" />
<circle cx="1478" cy="886" r="5" />
<circle cx="1487" cy="151" r="5" />
<circle cx="1497" cy="455" r="5" />
<circle cx="1507" cy="459" r="5" />
<circle cx="1516" cy="464" r="5" />
<circle cx="1526" cy="936" r="5" />
<circle cx="1535" cy="940" r="5" />
<circle cx="1545" cy="473" r="5" />
<circle cx="1555" cy="952" r="5" />
<circle cx="1564" cy="322" r="5" />
<circle cx="1574" cy="970" r="5" />
<circle cx="1583" cy="976" r="5" />
<circle cx="1593" cy="982" r="5" />
<circle cx="1603" cy="495" r="5" />
<circle cx="1612" cy="166" r="5" />
<circle cx="1622" cy="252" r="5" />
<circle cx="1631" cy="253" r="5" />
<circle cx="1641" cy="1018" r="5" />
<circle cx="1651" cy="1020" r="5" />
<circle cx="1660" cy="103" r="5" />
<circle cx="1670" cy="1032" r="5" />
<circle cx="1679" cy="519" r="5" />
</g>
</svg>