<svg xmlns="http://www.w3.org/2000/svg" width="161.8" height="100.0" viewBox="-3.40 -5.00 171.80 110.00">
<g fill="none" stroke="black" stroke-width="0.0450%" transform="translate(0, 100.0000) scale(11.1111, -11.1111)">
<polyline points="0.14,0.00 0.29,0.00 0.29,1.00 0.43,1.00 0.43,2.00 0.58,2.00 0.58,3.00 0.72,3.00 0.72,4.00 0.87,4.00 0.87,5.00 1.01,5.00 1.01,6.00 1.15,6.00 1.15,7.00 1.30,7.00 1.30,8.00 1.44,8.00 1.44,9.00 1.59,9.00 1.59,1.00 1.73,1.00 1.73,1.00 1.87,1.00 1.87,1.00 2.02,1.00 2.02,1.00 2.16,1.00 2.16,1.00 2.31,1.00 2.31,1.00 2.45,1.00 2.45,1.00 2.60,1.00 2.60,1.00 2.74,1.00 2.74,1.00 2.88,1.00 2.88,1.00 3.03,1.00 3.03,2.00 3.17,2.00 3.17,2.00 3.32,2.00 3.32,2.00 3.46,2.00 3.46,2.00 3.60,2.00 3.60,2.00 3.75,2.00 3.75,2.00 3.89,2.00 3.89,2.00 4.04,2.00 4.04,2.00 4.18,2.00 4.18,2.00 4.33,2.00 4.33,2.00 4.47,2.00 4.47,3.00 4.61,3.00 4.61,3.00 4.76,3.00 4.76,3.00 4.90,3.00 4.90,3.00 5.05,3.00 5.05,3.00 5.19,3.00 5.19,3.00 5.33,3.00 5.33,3.00 5.48,3.00 5.48,3.00 5.62,3.00 5.62,3.00 5.77,3.00 5.77,3.00 5.91,3.00 5.91,4.00 6.06,4.00 6.06,4.00 6.20,4.00 6.20,4.00 6.34,4.00 6.34,4.00 6.49,4.00 6.49,4.00 6.63,4.00 6.63,4.00 6.78,4.00 6.78,4.00 6.92,4.00 6.92,4.00 7.06,4.00 7.06,4.00 7.21,4.00 7.21,4.00 7.35,4.00 7.35,5.00 7.50,5.00 7.50,5.00 7.64,5.00 7.64,5.00 7.79,5.00 7.79,5.00 7.93,5.00 7.93,5.00 8.07,5.00 8.07,5.00 8.22,5.00 8.22,5.00 8.36,5.00 8.36,5.00 8.51,5.00 8.51,5.00 8.65,5.00 8.65,5.00 8.80,5.00 8.80,6.00 8.94,6.00 8.94,6.00 9.08,6.00 9.08,6.00 9.23,6.00 9.23,6.00 9.37,6.00 9.37,6.00 9.52,6.00 9.52,6.00 9.66,6.00 9.66,6.00 9.80,6.00 9.80,6.00 9.95,6.00 9.95,6.00 10.09,6.00 10.09,6.00 10.24,6.00 10.24,7.00 10.38,7.00 10.38,7.00 10.53,7.00 10.53,7.00 10.67,7.00 10.67,7.00 10.81,7.00 10.81,7.00 10.96,7.00 10.96,7.00 11.10,7.00 11.10,7.00 11.25,7.00 11.25,7.00 11.39,7.00 11.39,7.00 11.53,7.00 11.53,7.00 11.68,7.00 11.68,8.00 11.82,8.00 11.82,8.00 11.97,8.00 11.97,8.00 12.11,8.00 12.11,8.00 12.26,8.00 12.26,8.00 12.40,8.00 12.40,8.00 12.54,8.00 12.54,8.00 12.69,8.00 12.69,8.00 12.83,8.00 12.83,8.00 12.98,8.00 12.98,8.00 13.12,8.00 13.12,9.00 13.26,9.00 13.26,9.00 13.41,9.00 13.41,9.00 13.55,9.00 13.55,9.00 13.70,9.00 13.70,9.00 13.84,9.00 13.84,9.00 13.99,9.00 13.99,9.00 14.13,9.00 14.13,9.00 14.27,9.00 14.27,9.00 14.42,9.00 14.42,9.00 14.56,9.00 14.56,1.00 14.71,1.00" />
</g>
</svg>