<svg xmlns="http://www.w3.org/2000/svg" width="161.8" height="100.0" viewBox="-4.16 -5.00 171.80 110.00">
<g fill="none" stroke="black" stroke-width="0.0450%" transform="translate(0, 100.0000) scale(11.1111, -11.1111)">
<circle cx="0.08" cy="1.00" r="0.04" />
<circle cx="0.15" cy="2.00" r="0.04" />
<circle cx="0.23" cy="3.00" r="0.04" />
<circle cx="0.30" cy="4.00" r="0.04" />
<circle cx="0.38" cy="6.00" r="0.04" />
<circle cx="0.45" cy="7.00" r="0.04" />
<circle cx="0.53" cy="8.00" r="0.04" />
<circle cx="0.60" cy="9.00" r="0.04" />
<circle cx="0.68" cy="1.00" r="0.04" />
<circle cx="0.75" cy="2.00" r="0.04" />
<circle cx="0.83" cy="3.00" r="0.04" />
<circle cx="0.91" cy="4.00" r="0.04" />
<circle cx="0.98" cy="6.00" r="0.04" />
<circle cx="1.06" cy="7.00" r="0.04" />
<circle cx="1.13" cy="8.00" r="0.04" />
<circle cx="1.21" cy="9.00" r="0.04" />
<circle cx="1.28" cy="0.00" r="0.04" />
<circle cx="1.36" cy="2.00" r="0.04" />
<circle cx="1.43" cy="3.00" r="0.04" />
<circle cx="1.51" cy="4.00" r="0.04" />
<circle cx="1.58" cy="5.00" r="0.04" />
<circle cx="1.66" cy="7.00" r="0.04" />
<circle cx="1.74" cy="8.00" r="0.04" />
<circle cx="1.81" cy="9.00" r="0.04" />
<circle cx="1.89" cy="0.00" r="0.04" />
<circle cx="1.96" cy="2.00" r="0.04" />
<circle cx="2.04" cy="3.00" r="0.04" />
<circle cx="2.11" cy="4.00" r="0.04" />
<circle cx="2.19" cy="5.00" r="0.04" />
<circle cx="2.26" cy="7.00" r="0.04" />
<circle cx="2.34" cy="8.00" r="0.04" />
<circle cx="2.41" cy="9.00" r="0.04" />
<circle cx="2.49" cy="0.00" r="0.04" />
<circle cx="2.57" cy="1.00" r="0.04" />
<circle cx="2.64" cy="3.00" r="0.04" />
<circle cx="2.72" cy="4.00" r="0.04" />
<circle cx="2.79" cy="5.00" r="0.04" />
<circle cx="2.87" cy="6.00" r="0.04" />
<circle cx="2.94" cy="8.00" r="0.04" />
<circle cx="3.02" cy="9.00" r="0.04" />
<circle cx="3.09" cy="0.00" r="0.04" />
<circle cx="3.17" cy="1.00" r="0.04" />
<circle cx="3.24" cy="3.00" r="0.04" />
<circle cx="3.32" cy="4.00" r="0.04" />
<circle cx="3.40" cy="5.00" r="0.04" />
<circle cx="3.47" cy="6.00" r="0.04" />
<circle cx="3.55" cy="8.00" r="0.04" />
<circle cx="3.62" cy="9.00" r="0.04" />
<circle cx="3.70" cy="0.00" r="0.04" />
<circle cx="3.77" cy="1.00" r="0.04" />
<circle cx="3.85" cy="2.00" r="0.04" />
<circle cx="3.92" cy="4.00" r="0.04" />
<circle cx="4.00" cy="5.00" r="0.04" />
<circle cx="4.07" cy="6.00" r="0.04" />
<circle cx="4.15" cy="7.00" r="0.04" />
<circle cx="4.23" cy="9.00" r="0.04" />
<circle cx="4.30" cy="0.00" r="0.04" />
<circle cx="4.38" cy="1.00" r="0.04" />
<circle cx="4.45" cy="2.00" r="0.04" />
<circle cx="4.53" cy="4.00" r="0.04" />
<circle cx="4.60" cy="5.00" r="0.04" />
<circle cx="4.68" cy="6.00" r="0.04" />
<circle cx="4.75" cy="7.00" r="0.04" />
<circle cx="4.83" cy="9.00" r="0.04" />
<circle cx="4.90" cy="0.00" r="0.04" />
<circle cx="4.98" cy="1.00" r="0.04" />
<circle cx="5.06" cy="2.00" r="0.04" />
<circle cx="5.13" cy="3.00" r="0.04" />
<circle cx="5.21" cy="5.00" r="0.04" />
<circle cx="5.28" cy="6.00" r="0.04" />
<circle cx="5.36" cy="7.00" r="0.04" />
<circle cx="5.43" cy="8.00" r="0.04" />
<circle cx="5.51" cy="0.00" r="0.04" />
<circle cx="5.58" cy="1.00" r="0.04" />
<circle cx="5.66" cy="2.00" r="0.04" />
<circle cx="5.73" cy="3.00" r="0.04" />
<circle cx="5.81" cy="5.00" r="0.04" />
<circle cx="5.89" cy="6.00" r="0.04" />
<circle cx="5.96" cy="7.00" r="0.04" />
<circle cx="6.04" cy="8.00" r="0.04" />
<circle cx="6.11" cy="0.00" r="0.04" />
<circle cx="6.19" cy="1.00" r="0.04" />
<circle cx="6.26" cy="2.00" r="0.04" />
<circle cx="6.34" cy="3.00" r="0.04" />
<circle cx="6.41" cy="4.00" r="0.04" />
<circle cx="6.49" cy="6.00" r="0.04" />
<circle cx="6.56" cy="7.00" r="0.04" />
<circle cx="6.64" cy="8.00" r="0.04" />
<circle cx="6.72" cy="9.00" r="0.04" />
<circle cx="6.79" cy="1.00" r="0.04" />
<circle cx="6.87" cy="2.00" r="0.04" />
<circle cx="6.94" cy="3.00" r="0.04" />
<circle cx="7.02" cy="4.00" r="0.04" />
<circle cx="7.09" cy="6.00" r="0.04" />
<circle cx="7.17" cy="7.00" r="0.04" />
<circle cx="7.24" cy="8.00" r="0.04" />
<circle cx="7.32" cy="9.00" r="0.04" />
<circle cx="7.39" cy="0.00" r="0.04" />
<circle cx="7.47" cy="2.00" r="0.04" />
<circle cx="7.55" cy="3.00" r="0.04" />
<circle cx="7.62" cy="4.00" r="0.04" />
<circle cx="7.70" cy="5.00" r="0.04" />
<circle cx="7.77" cy="7.00" r="0.04" />
<circle cx="7.85" cy="8.00" r="0.04" />
<circle cx="7.92" cy="9.00" r="0.04" />
<circle cx="8.00" cy="0.00" r="0.04" />
<circle cx="8.07" cy="2.00" r="0.04" />
<circle cx="8.15" cy="3.00" r="0.04" />
<circle cx="8.22" cy="4.00" r="0.04" />
<circle cx="8.30" cy="5.00" r="0.04" />
<circle cx="8.38" cy="7.00" r="0.04" />
<circle cx="8.45" cy="8.00" r="0.04" />
<circle cx="8.53" cy="9.00" r="0.04" />
<circle cx="8.60" cy="0.00" r="0.04" />
<circle cx="8.68" cy="1.00" r="0.04" />
<circle cx="8.75" cy="3.00" r="0.04" />
<circle cx="8.83" cy="4.00" r="0.04" />
<circle cx="8.90" cy="5.00" r="0.04" />
<circle cx="8.98" cy="6.00" r="0.04" />
<circle cx="9.05" cy="8.00" r="0.04" />
<circle cx="9.13" cy="9.00" r="0.04" />
<circle cx="9.21" cy="0.00" r="0.04" />
<circle cx="9.28" cy="1.00" r="0.04" />
<circle cx="9.36" cy="3.00" r="0.04" />
<circle cx="9.43" cy="4.00" r="0.04" />
<circle cx="9.51" cy="5.00" r="0.04" />
<circle cx="9.58" cy="6.00" r="0.04" />
<circle cx="9.66" cy="8.00" r="0.04" />
<circle cx="9.73" cy="9.00" r="0.04" />
<circle cx="9.81" cy="0.00" r="0.04" />
<circle cx="9.88" cy="1.00" r="0.04" />
<circle cx="9.96" cy="2.00" r="0.04" />
<circle cx="10.04" cy="4.00" r="0.04" />
<circle cx="10.11" cy="5.00" r="0.04" />
<circle cx="10.19" cy="6.00" r="0.04" />
<circle cx="10.26" cy="7.00" r="0.04" />
<circle cx="10.34" cy="9.00" r="0.04" />
<circle cx="10.41" cy="0.00" r="0.04" />
<circle cx="10.49" cy="1.00" r="0.04" />
<circle cx="10.56" cy="2.00" r="0.04" />
<circle cx="10.64" cy="4.00" r="0.04" />
<circle cx="10.71" cy="5.00" r="0.04" />
<circle cx="10.79" cy="6.00" r="0.04" />
<circle cx="10.87" cy="7.00" r="0.04" />
<circle cx="10.94" cy="9.00" r="0.04" />
<circle cx="11.02" cy="0.00" r="0.04" />
<circle cx="11.09" cy="1.00" r="0.04" />
<circle cx="11.17" cy="2.00" r="0.04" />
<circle cx="11.24" cy="3.00" r="0.04" />
<circle cx="11.32" cy="5.00" r="0.04" />
<circle cx="11.39" cy="6.00" r="0.04" />
<circle cx="11.47" cy="7.00" r="0.04" />
<circle cx="11.54" cy="8.00" r="0.04" />
<circle cx="11.62" cy="0.00" r="0.04" />
<circle cx="11.70" cy="1.00" r="0.04" />
<circle cx="11.77" cy="2.00" r="0.04" />
<circle cx="11.85" cy="3.00" r="0.04" />
<circle cx="11.92" cy="5.00" r="0.04" />
<circle cx="12.00" cy="6.00" r="0.04" />
<circle cx="12.07" cy="7.00" r="0.04" />
<circle cx="12.15" cy="8.00" r="0.04" />
<circle cx="12.22" cy="0.00" r="0.04" />
<circle cx="12.30" cy="1.00" r="0.04" />
<circle cx="12.37" cy="2.00" r="0.04" />
<circle cx="12.45" cy="3.00" r="0.04" />
<circle cx="12.53" cy="4.00" r="0.04" />
<circle cx="12.60" cy="6.00" r="0.04" />
<circle cx="12.68" cy="7.00" r="0.04" />
<circle cx="12.75" cy="8.00" r="0.04" />
<circle cx="12.83" cy="9.00" r="0.04" />
<circle cx="12.90" cy="1.00" r="0.04" />
<circle cx="12.98" cy="2.00" r="0.04" />
<circle cx="13.05" cy="3.00" r="0.04" />
<circle cx="13.13" cy="4.00" r="0.04" />
<circle cx="13.20" cy="6.00" r="0.04" />
<circle cx="13.28" cy="7.00" r="0.04" />
<circle cx="13.36" cy="8.00" r="0.04" />
<circle cx="13.43" cy="9.00" r="0.04" />
<circle cx="13.51" cy="1.00" r="0.04" />
<circle cx="13.58" cy="2.00" r="0.04" />
<circle cx="13.66" cy="3.00" r="0.04" />
<circle cx="13.73" cy="4.00" r="0.04" />
<circle cx="13.81" cy="5.00" r="0.04" />
<circle cx="13.88" cy="7.00" r="0.04" />
<circle cx="13.96" cy="8.00" r="0.04" />
<circle cx="14.03" cy="9.00" r="0.04" />
<circle cx="14.11" cy="0.00" r="0.04" />
<circle cx="14.19" cy="2.00" r="0.04" />
<circle cx="14.26" cy="3.00" r="0.04" />
<circle cx="14.34" cy="4.00" r="0.04" />
<circle cx="14.41" cy="5.00" r="0.04" />
<circle cx="14.49" cy="7.00" r="0.04" />
<circle cx="14.56" cy="8.00" r="0.04" />
<circle cx="14.64" cy="9.00" r="0.04" />
</g>
</svg>