<svg xmlns="http://www.w3.org/2000/svg" width="161.8" height="100.0" viewBox="-4.16 -5.00 171.80 110.00">
<g fill="none" stroke="black" stroke-width="0.0450%" transform="translate(0, 100.0000) scale(11.1111, -11.1111)">
<circle cx="0.08" cy="2.00" r="0.04" />
<circle cx="0.15" cy="4.00" r="0.04" />
<circle cx="0.23" cy="7.00" r="0.04" />
<circle cx="0.30" cy="9.00" r="0.04" />
<circle cx="0.38" cy="2.00" r="0.04" />
<circle cx="0.46" cy="4.00" r="0.04" />
<circle cx="0.53" cy="7.00" r="0.04" />
<circle cx="0.61" cy="9.00" r="0.04" />
<circle cx="0.68" cy="2.00" r="0.04" />
<circle cx="0.76" cy="4.00" r="0.04" />
<circle cx="0.83" cy="7.00" r="0.04" />
<circle cx="0.91" cy="9.00" r="0.04" />
<circle cx="0.99" cy="2.00" r="0.04" />
<circle cx="1.06" cy="4.00" r="0.04" />
<circle cx="1.14" cy="7.00" r="0.04" />
<circle cx="1.21" cy="9.00" r="0.04" />
<circle cx="1.29" cy="2.00" r="0.04" />
<circle cx="1.37" cy="4.00" r="0.04" />
<circle cx="1.44" cy="7.00" r="0.04" />
<circle cx="1.52" cy="9.00" r="0.04" />
<circle cx="1.59" cy="2.00" r="0.04" />
<circle cx="1.67" cy="4.00" r="0.04" />
<circle cx="1.74" cy="7.00" r="0.04" />
<circle cx="1.82" cy="9.00" r="0.04" />
<circle cx="1.90" cy="1.00" r="0.04" />
<circle cx="1.97" cy="4.00" r="0.04" />
<circle cx="2.05" cy="6.00" r="0.04" />
<circle cx="2.12" cy="9.00" r="0.04" />
<circle cx="2.20" cy="1.00" r="0.04" />
<circle cx="2.28" cy="4.00" r="0.04" />
<circle cx="2.35" cy="6.00" r="0.04" />
<circle cx="2.43" cy="9.00" r="0.04" />
<circle cx="2.50" cy="1.00" r="0.04" />
<circle cx="2.58" cy="4.00" r="0.04" />
<circle cx="2.65" cy="6.00" r="0.04" />
<circle cx="2.73" cy="9.00" r="0.04" />
<circle cx="2.81" cy="1.00" r="0.04" />
<circle cx="2.88" cy="4.00" r="0.04" />
<circle cx="2.96" cy="6.00" r="0.04" />
<circle cx="3.03" cy="9.00" r="0.04" />
<circle cx="3.11" cy="1.00" r="0.04" />
<circle cx="3.19" cy="4.00" r="0.04" />
<circle cx="3.26" cy="6.00" r="0.04" />
<circle cx="3.34" cy="9.00" r="0.04" />
<circle cx="3.41" cy="1.00" r="0.04" />
<circle cx="3.49" cy="4.00" r="0.04" />
<circle cx="3.56" cy="6.00" r="0.04" />
<circle cx="3.64" cy="9.00" r="0.04" />
<circle cx="3.72" cy="1.00" r="0.04" />
<circle cx="3.79" cy="3.00" r="0.04" />
<circle cx="3.87" cy="6.00" r="0.04" />
<circle cx="3.94" cy="8.00" r="0.04" />
<circle cx="4.02" cy="1.00" r="0.04" />
<circle cx="4.10" cy="3.00" r="0.04" />
<circle cx="4.17" cy="6.00" r="0.04" />
<circle cx="4.25" cy="8.00" r="0.04" />
<circle cx="4.32" cy="1.00" r="0.04" />
<circle cx="4.40" cy="3.00" r="0.04" />
<circle cx="4.47" cy="6.00" r="0.04" />
<circle cx="4.55" cy="8.00" r="0.04" />
<circle cx="4.63" cy="1.00" r="0.04" />
<circle cx="4.70" cy="3.00" r="0.04" />
<circle cx="4.78" cy="6.00" r="0.04" />
<circle cx="4.85" cy="8.00" r="0.04" />
<circle cx="4.93" cy="1.00" r="0.04" />
<circle cx="5.01" cy="3.00" r="0.04" />
<circle cx="5.08" cy="6.00" r="0.04" />
<circle cx="5.16" cy="8.00" r="0.04" />
<circle cx="5.23" cy="1.00" r="0.04" />
<circle cx="5.31" cy="3.00" r="0.04" />
<circle cx="5.39" cy="6.00" r="0.04" />
<circle cx="5.46" cy="8.00" r="0.04" />
<circle cx="5.54" cy="0.00" r="0.04" />
<circle cx="5.61" cy="3.00" r="0.04" />
<circle cx="5.69" cy="5.00" r="0.04" />
<circle cx="5.76" cy="8.00" r="0.04" />
<circle cx="5.84" cy="0.00" r="0.04" />
<circle cx="5.92" cy="3.00" r="0.04" />
<circle cx="5.99" cy="5.00" r="0.04" />
<circle cx="6.07" cy="8.00" r="0.04" />
<circle cx="6.14" cy="0.00" r="0.04" />
<circle cx="6.22" cy="3.00" r="0.04" />
<circle cx="6.30" cy="5.00" r="0.04" />
<circle cx="6.37" cy="8.00" r="0.04" />
<circle cx="6.45" cy="0.00" r="0.04" />
<circle cx="6.52" cy="3.00" r="0.04" />
<circle cx="6.60" cy="5.00" r="0.04" />
<circle cx="6.67" cy="8.00" r="0.04" />
<circle cx="6.75" cy="0.00" r="0.04" />
<circle cx="6.83" cy="3.00" r="0.04" />
<circle cx="6.90" cy="5.00" r="0.04" />
<circle cx="6.98" cy="8.00" r="0.04" />
<circle cx="7.05" cy="0.00" r="0.04" />
<circle cx="7.13" cy="3.00" r="0.04" />
<circle cx="7.21" cy="5.00" r="0.04" />
<circle cx="7.28" cy="8.00" r="0.04" />
<circle cx="7.36" cy="0.00" r="0.04" />
<circle cx="7.43" cy="2.00" r="0.04" />
<circle cx="7.51" cy="5.00" r="0.04" />
<circle cx="7.58" cy="7.00" r="0.04" />
<circle cx="7.66" cy="0.00" r="0.04" />
<circle cx="7.74" cy="2.00" r="0.04" />
<circle cx="7.81" cy="5.00" r="0.04" />
<circle cx="7.89" cy="7.00" r="0.04" />
<circle cx="7.96" cy="0.00" r="0.04" />
<circle cx="8.04" cy="2.00" r="0.04" />
<circle cx="8.12" cy="5.00" r="0.04" />
<circle cx="8.19" cy="7.00" r="0.04" />
<circle cx="8.27" cy="0.00" r="0.04" />
<circle cx="8.34" cy="2.00" r="0.04" />
<circle cx="8.42" cy="5.00" r="0.04" />
<circle cx="8.49" cy="7.00" r="0.04" />
<circle cx="8.57" cy="0.00" r="0.04" />
<circle cx="8.65" cy="2.00" r="0.04" />
<circle cx="8.72" cy="5.00" r="0.04" />
<circle cx="8.80" cy="7.00" r="0.04" />
<circle cx="8.87" cy="0.00" r="0.04" />
<circle cx="8.95" cy="2.00" r="0.04" />
<circle cx="9.03" cy="5.00" r="0.04" />
<circle cx="9.10" cy="7.00" r="0.04" />
<circle cx="9.18" cy="9.00" r="0.04" />
<circle cx="9.25" cy="2.00" r="0.04" />
<circle cx="9.33" cy="4.00" r="0.04" />
<circle cx="9.40" cy="7.00" r="0.04" />
<circle cx="9.48" cy="9.00" r="0.04" />
<circle cx="9.56" cy="2.00" r="0.04" />
<circle cx="9.63" cy="4.00" r="0.04" />
<circle cx="9.71" cy="7.00" r="0.04" />
<circle cx="9.78" cy="9.00" r="0.04" />
<circle cx="9.86" cy="2.00" r="0.04" />
<circle cx="9.94" cy="4.00" r="0.04" />
<circle cx="10.01" cy="7.00" r="0.04" />
<circle cx="10.09" cy="9.00" r="0.04" />
<circle cx="10.16" cy="2.00" r="0.04" />
<circle cx="10.24" cy="4.00" r="0.04" />
<circle cx="10.31" cy="7.00" r="0.04" />
<circle cx="10.39" cy="9.00" r="0.04" />
<circle cx="10.47" cy="2.00" r="0.04" />
<circle cx="10.54" cy="4.00" r="0.04" />
<circle cx="10.62" cy="7.00" r="0.04" />
<circle cx="10.69" cy="9.00" r="0.04" />
<circle cx="10.77" cy="2.00" r="0.04" />
<circle cx="10.85" cy="4.00" r="0.04" />
<circle cx="10.92" cy="7.00" r="0.04" />
<circle cx="11.00" cy="9.00" r="0.04" />
<circle cx="11.07" cy="1.00" r="0.04" />
<circle cx="11.15" cy="4.00" r="0.04" />
<circle cx="11.23" cy="6.00" r="0.04" />
<circle cx="11.30" cy="9.00" r="0.04" />
<circle cx="11.38" cy="1.00" r="0.04" />
<circle cx="11.45" cy="4.00" r="0.04" />
<circle cx="11.53" cy="6.00" r="0.04" />
<circle cx="11.60" cy="9.00" r="0.04" />
<circle cx="11.68" cy="1.00" r="0.04" />
<circle cx="11.76" cy="4.00" r="0.04" />
<circle cx="11.83" cy="6.00" r="0.04" />
<circle cx="11.91" cy="9.00" r="0.04" />
<circle cx="11.98" cy="1.00" r="0.04" />
<circle cx="12.06" cy="4.00" r="0.04" />
<circle cx="12.14" cy="6.00" r="0.04" />
<circle cx="12.21" cy="9.00" r="0.04" />
<circle cx="12.29" cy="1.00" r="0.04" />
<circle cx="12.36" cy="4.00" r="0.04" />
<circle cx="12.44" cy="6.00" r="0.04" />
<circle cx="12.51" cy="9.00" r="0.04" />
<circle cx="12.59" cy="1.00" r="0.04" />
<circle cx="12.67" cy="4.00" r="0.04" />
<circle cx="12.74" cy="6.00" r="0.04" />
<circle cx="12.82" cy="8.00" r="0.04" />
<circle cx="12.89" cy="1.00" r="0.04" />
<circle cx="12.97" cy="3.00" r="0.04" />
<circle cx="13.05" cy="6.00" r="0.04" />
<circle cx="13.12" cy="8.00" r="0.04" />
<circle cx="13.20" cy="1.00" r="0.04" />
<circle cx="13.27" cy="3.00" r="0.04" />
<circle cx="13.35" cy="6.00" r="0.04" />
<circle cx="13.42" cy="8.00" r="0.04" />
<circle cx="13.50" cy="1.00" r="0.04" />
<circle cx="13.58" cy="3.00" r="0.04" />
<circle cx="13.65" cy="6.00" r="0.04" />
<circle cx="13.73" cy="8.00" r="0.04" />
<circle cx="13.80" cy="1.00" r="0.04" />
<circle cx="13.88" cy="3.00" r="0.04" />
<circle cx="13.96" cy="6.00" r="0.04" />
<circle cx="14.03" cy="8.00" r="0.04" />
<circle cx="14.11" cy="1.00" r="0.04" />
<circle cx="14.18" cy="3.00" r="0.04" />
<circle cx="14.26" cy="6.00" r="0.04" />
<circle cx="14.33" cy="8.00" r="0.04" />
<circle cx="14.41" cy="1.00" r="0.04" />
<circle cx="14.49" cy="3.00" r="0.04" />
<circle cx="14.56" cy="6.00" r="0.04" />
<circle cx="14.64" cy="8.00" r="0.04" />
</g>
</svg>