<svg xmlns="http://www.w3.org/2000/svg" width="161.8" height="100.0" viewBox="-165.942 -39.109 171.803 110.000">
<g fill="none" stroke="black" stroke-width="0.0147%" transform="translate(0, 31.7817) scale(34.1092, -34.1092)">
<circle cx="0.000" cy="0.000" r="0.015" />
<circle cx="-2.359" cy="-1.000" r="0.015" />
<circle cx="-1.341" cy="1.346" r="0.015" />
<circle cx="-1.239" cy="1.454" r="0.015" />
<circle cx="-0.692" cy="1.435" r="0.015" />
<circle cx="-0.782" cy="1.249" r="0.015" />
<circle cx="-1.816" cy="1.205" r="0.015" />
<circle cx="-2.091" cy="1.497" r="0.015" />
<circle cx="-0.505" cy="1.679" r="0.015" />
<circle cx="-0.037" cy="1.034" r="0.015" />
<circle cx="-3.166" cy="0.661" r="0.015" />
<circle cx="-4.647" cy="0.799" r="0.015" />
<circle cx="-4.288" cy="1.178" r="0.015" />
<circle cx="-2.236" cy="1.853" r="0.015" />
<circle cx="-0.090" cy="1.322" r="0.015" />
<circle cx="-1.379" cy="1.006" r="0.015" />
<circle cx="-3.331" cy="1.080" r="0.015" />
<circle cx="-2.866" cy="1.659" r="0.015" />
<circle cx="-0.050" cy="1.739" r="0.015" />
<circle cx="-0.000" cy="0.793" r="0.015" />
<circle cx="-4.344" cy="0.174" r="0.015" />
<circle cx="-3.395" cy="0.072" r="0.015" />
<circle cx="-2.797" cy="-0.042" r="0.015" />
<circle cx="-2.076" cy="-0.144" r="0.015" />
<circle cx="-1.459" cy="-0.264" r="0.015" />
<circle cx="-0.814" cy="-0.329" r="0.015" />
<circle cx="-0.526" cy="-0.457" r="0.015" />
<circle cx="-0.133" cy="-0.346" r="0.015" />
<circle cx="-0.463" cy="-0.676" r="0.015" />
<circle cx="-0.076" cy="0.084" r="0.015" />
<circle cx="-2.893" cy="-0.955" r="0.015" />
<circle cx="-1.087" cy="1.376" r="0.015" />
<circle cx="-1.078" cy="1.379" r="0.015" />
<circle cx="-1.059" cy="1.377" r="0.015" />
<circle cx="-1.071" cy="1.370" r="0.015" />
<circle cx="-1.107" cy="1.372" r="0.015" />
<circle cx="-1.096" cy="1.385" r="0.015" />
<circle cx="-1.028" cy="1.384" r="0.015" />
<circle cx="-1.032" cy="1.361" r="0.015" />
<circle cx="-1.156" cy="1.357" r="0.015" />
<circle cx="-1.182" cy="1.397" r="0.015" />
<circle cx="-0.967" cy="1.415" r="0.015" />
<circle cx="-0.875" cy="1.345" r="0.015" />
<circle cx="-1.249" cy="1.297" r="0.015" />
<circle cx="-1.525" cy="1.398" r="0.015" />
<circle cx="-0.958" cy="1.526" r="0.015" />
<circle cx="-0.402" cy="1.319" r="0.015" />
<circle cx="-1.397" cy="1.117" r="0.015" />
<circle cx="-2.650" cy="1.263" r="0.015" />
<circle cx="-1.722" cy="1.757" r="0.015" />
<circle cx="0.004" cy="1.336" r="0.015" />
<circle cx="-1.298" cy="0.978" r="0.015" />
<circle cx="-3.488" cy="1.005" r="0.015" />
<circle cx="-3.317" cy="1.553" r="0.015" />
<circle cx="-0.292" cy="1.898" r="0.015" />
<circle cx="-0.197" cy="0.618" r="0.015" />
<circle cx="-4.707" cy="-0.138" r="0.015" />
<circle cx="-1.464" cy="0.035" r="0.015" />
<circle cx="-2.579" cy="-0.488" r="0.015" />
<circle cx="-0.063" cy="0.331" r="0.015" />
<circle cx="-4.199" cy="-0.723" r="0.015" />
<circle cx="-0.140" cy="1.019" r="0.015" />
<circle cx="-3.255" cy="0.673" r="0.015" />
<circle cx="-4.629" cy="0.837" r="0.015" />
<circle cx="-4.142" cy="1.261" r="0.015" />
<circle cx="-1.714" cy="1.932" r="0.015" />
<circle cx="-0.288" cy="1.031" r="0.015" />
<circle cx="-3.186" cy="0.747" r="0.015" />
<circle cx="-4.471" cy="0.989" r="0.015" />
<circle cx="-3.394" cy="1.568" r="0.015" />
<circle cx="-0.246" cy="1.898" r="0.015" />
<circle cx="-0.197" cy="0.601" r="0.015" />
<circle cx="-4.715" cy="-0.174" r="0.015" />
<circle cx="-1.254" cy="0.061" r="0.015" />
<circle cx="-2.745" cy="-0.550" r="0.015" />
<circle cx="0.004" cy="0.488" r="0.015" />
<circle cx="-4.643" cy="-0.479" r="0.015" />
<circle cx="-0.054" cy="0.498" r="0.015" />
<circle cx="-4.658" cy="-0.439" r="0.015" />
<circle cx="-0.137" cy="0.422" r="0.015" />
<circle cx="-4.503" cy="-0.549" r="0.015" />
<circle cx="0.025" cy="0.642" r="0.015" />
<circle cx="-4.688" cy="-0.168" r="0.015" />
<circle cx="-1.288" cy="0.058" r="0.015" />
<circle cx="-2.725" cy="-0.539" r="0.015" />
<circle cx="-0.003" cy="0.463" r="0.015" />
<circle cx="-4.599" cy="-0.523" r="0.015" />
<circle cx="0.007" cy="0.587" r="0.015" />
<circle cx="-4.718" cy="-0.278" r="0.015" />
<circle cx="-0.713" cy="0.170" r="0.015" />
<circle cx="-3.403" cy="-0.674" r="0.015" />
<circle cx="-0.053" cy="0.858" r="0.015" />
<circle cx="-4.092" cy="0.331" r="0.015" />
<circle cx="-4.169" cy="0.250" r="0.015" />
<circle cx="-3.805" cy="0.146" r="0.015" />
<circle cx="-3.243" cy="0.034" r="0.015" />
<circle cx="-2.561" cy="-0.072" r="0.015" />
<circle cx="-1.894" cy="-0.184" r="0.015" />
<circle cx="-1.229" cy="-0.283" r="0.015" />
<circle cx="-0.727" cy="-0.380" r="0.015" />
<circle cx="-0.341" cy="-0.409" r="0.015" />
<circle cx="-0.252" cy="-0.498" r="0.015" />
<circle cx="-0.061" cy="-0.367" r="0.015" />
<circle cx="-0.387" cy="-0.670" r="0.015" />
<circle cx="-0.066" cy="0.044" r="0.015" />
<circle cx="-2.640" cy="-0.971" r="0.015" />
<circle cx="-1.176" cy="1.356" r="0.015" />
<circle cx="-1.183" cy="1.403" r="0.015" />
<circle cx="-0.935" cy="1.417" r="0.015" />
<circle cx="-0.869" cy="1.334" r="0.015" />
<circle cx="-1.311" cy="1.290" r="0.015" />
<circle cx="-1.567" cy="1.414" r="0.015" />
<circle cx="-0.878" cy="1.540" r="0.015" />
<circle cx="-0.352" cy="1.284" r="0.015" />
<circle cx="-1.603" cy="1.078" r="0.015" />
<circle cx="-2.892" cy="1.270" r="0.015" />
<circle cx="-1.675" cy="1.810" r="0.015" />
<circle cx="-0.031" cy="1.241" r="0.015" />
<circle cx="-1.871" cy="0.928" r="0.015" />
<circle cx="-3.757" cy="1.083" r="0.015" />
<circle cx="-2.843" cy="1.706" r="0.015" />
<circle cx="0.000" cy="1.680" r="0.015" />
<circle cx="-0.037" cy="0.851" r="0.015" />
<circle cx="-4.124" cy="0.309" r="0.015" />
<circle cx="-4.079" cy="0.220" r="0.015" />
<circle cx="-3.654" cy="0.112" r="0.015" />
<circle cx="-3.038" cy="0.002" r="0.015" />
<circle cx="-2.354" cy="-0.105" r="0.015" />
<circle cx="-1.687" cy="-0.217" r="0.015" />
<circle cx="-1.052" cy="-0.312" r="0.015" />
<circle cx="-0.598" cy="-0.400" r="0.015" />
<circle cx="-0.279" cy="-0.421" r="0.015" />
<circle cx="-0.218" cy="-0.499" r="0.015" />
<circle cx="-0.059" cy="-0.376" r="0.015" />
<circle cx="-0.354" cy="-0.655" r="0.015" />
<circle cx="-0.046" cy="-0.001" r="0.015" />
<circle cx="-2.356" cy="-0.983" r="0.015" />
<circle cx="-1.246" cy="1.315" r="0.015" />
<circle cx="-1.417" cy="1.408" r="0.015" />
<circle cx="-0.908" cy="1.493" r="0.015" />
<circle cx="-0.526" cy="1.315" r="0.015" />
<circle cx="-1.422" cy="1.160" r="0.015" />
<circle cx="-2.380" cy="1.326" r="0.015" />
<circle cx="-1.346" cy="1.738" r="0.015" />
</g>
</svg>