<svg xmlns="http://www.w3.org/2000/svg" width="77.4" height="100.0" viewBox="-74.282 -39.684 87.368 110.000">
<g fill="none" stroke="black" stroke-width="0.0144%" transform="translate(0, 30.6315) scale(34.6842, -34.6842)">
<circle cx="0.000" cy="0.000" r="0.014" />
<circle cx="-1.000" cy="-1.000" r="0.014" />
<circle cx="-0.125" cy="1.363" r="0.014" />
<circle cx="-1.088" cy="1.067" r="0.014" />
<circle cx="-1.576" cy="1.502" r="0.014" />
<circle cx="-0.557" cy="1.727" r="0.014" />
<circle cx="-0.306" cy="0.846" r="0.014" />
<circle cx="-1.939" cy="0.665" r="0.014" />
<circle cx="-1.669" cy="0.997" r="0.014" />
<circle cx="-1.542" cy="1.637" r="0.014" />
<circle cx="-0.287" cy="1.513" r="0.014" />
<circle cx="-0.748" cy="1.046" r="0.014" />
<circle cx="-1.665" cy="1.292" r="0.014" />
<circle cx="-0.999" cy="1.883" r="0.014" />
<circle cx="-0.029" cy="0.741" r="0.014" />
<circle cx="-1.996" cy="0.245" r="0.014" />
<circle cx="-1.176" cy="0.135" r="0.014" />
<circle cx="-1.174" cy="-0.254" r="0.014" />
<circle cx="-0.336" cy="-0.124" r="0.014" />
<circle cx="-0.715" cy="-0.738" r="0.014" />
<circle cx="0.043" cy="0.669" r="0.014" />
<circle cx="-1.997" cy="0.026" r="0.014" />
<circle cx="-0.711" cy="-0.035" r="0.014" />
<circle cx="-0.875" cy="-0.550" r="0.014" />
<circle cx="0.013" cy="0.308" r="0.014" />
<circle cx="-1.636" cy="-0.742" r="0.014" />
<circle cx="0.233" cy="1.105" r="0.014" />
<circle cx="-1.614" cy="0.746" r="0.014" />
<circle cx="-1.764" cy="1.107" r="0.014" />
<circle cx="-1.341" cy="1.811" r="0.014" />
<circle cx="-0.046" cy="1.072" r="0.014" />
<circle cx="-1.674" cy="0.889" r="0.014" />
<circle cx="-1.665" cy="1.442" r="0.014" />
<circle cx="-0.666" cy="1.818" r="0.014" />
<circle cx="-0.158" cy="0.710" r="0.014" />
<circle cx="-1.997" cy="0.257" r="0.014" />
<circle cx="-1.198" cy="0.152" r="0.014" />
<circle cx="-1.204" cy="-0.230" r="0.014" />
<circle cx="-0.375" cy="-0.142" r="0.014" />
<circle cx="-0.674" cy="-0.699" r="0.014" />
<circle cx="0.042" cy="0.553" r="0.014" />
<circle cx="-1.945" cy="-0.253" r="0.014" />
<circle cx="-0.133" cy="0.136" r="0.014" />
<circle cx="-1.299" cy="-0.859" r="0.014" />
<circle cx="0.090" cy="1.241" r="0.014" />
<circle cx="-1.352" cy="0.934" r="0.014" />
<circle cx="-1.703" cy="1.413" r="0.014" />
<circle cx="-0.721" cy="1.852" r="0.014" />
<circle cx="-0.107" cy="0.661" r="0.014" />
<circle cx="-1.995" cy="0.105" r="0.014" />
<circle cx="-0.887" cy="-0.005" r="0.014" />
<circle cx="-0.917" cy="-0.455" r="0.014" />
<circle cx="-0.072" cy="0.112" r="0.014" />
<circle cx="-1.248" cy="-0.916" r="0.014" />
<circle cx="0.027" cy="1.335" r="0.014" />
<circle cx="-1.150" cy="0.977" r="0.014" />
<circle cx="-1.695" cy="1.400" r="0.014" />
<circle cx="-0.751" cy="1.858" r="0.014" />
<circle cx="-0.096" cy="0.665" r="0.014" />
<circle cx="-1.996" cy="0.108" r="0.014" />
<circle cx="-0.892" cy="-0.003" r="0.014" />
<circle cx="-0.920" cy="-0.452" r="0.014" />
<circle cx="-0.075" cy="0.108" r="0.014" />
<circle cx="-1.238" cy="-0.917" r="0.014" />
<circle cx="0.024" cy="1.333" r="0.014" />
<circle cx="-1.156" cy="0.980" r="0.014" />
<circle cx="-1.690" cy="1.407" r="0.014" />
<circle cx="-0.737" cy="1.852" r="0.014" />
<circle cx="-0.105" cy="0.671" r="0.014" />
<circle cx="-1.997" cy="0.127" r="0.014" />
<circle cx="-0.934" cy="0.010" r="0.014" />
<circle cx="-0.943" cy="-0.429" r="0.014" />
<circle cx="-0.099" cy="0.072" r="0.014" />
<circle cx="-1.160" cy="-0.921" r="0.014" />
<circle cx="0.003" cy="1.302" r="0.014" />
<circle cx="-1.222" cy="0.998" r="0.014" />
<circle cx="-1.653" cy="1.467" r="0.014" />
<circle cx="-0.614" cy="1.791" r="0.014" />
<circle cx="-0.200" cy="0.741" r="0.014" />
<circle cx="-1.992" cy="0.357" r="0.014" />
<circle cx="-1.372" cy="0.316" r="0.014" />
<circle cx="-1.481" cy="0.059" r="0.014" />
<circle cx="-0.935" cy="-0.169" r="0.014" />
<circle cx="-0.550" cy="-0.346" r="0.014" />
<circle cx="-0.273" cy="-0.318" r="0.014" />
<circle cx="-0.340" cy="-0.540" r="0.014" />
<circle cx="-0.054" cy="-0.036" r="0.014" />
<circle cx="-0.919" cy="-0.961" r="0.014" />
<circle cx="-0.088" cy="1.255" r="0.014" />
<circle cx="-1.324" cy="1.053" r="0.014" />
<circle cx="-1.548" cy="1.593" r="0.014" />
<circle cx="-0.373" cy="1.591" r="0.014" />
<circle cx="-0.578" cy="0.989" r="0.014" />
<circle cx="-1.768" cy="1.107" r="0.014" />
<circle cx="-1.339" cy="1.812" r="0.014" />
<circle cx="-0.044" cy="1.068" r="0.014" />
<circle cx="-1.680" cy="0.884" r="0.014" />
<circle cx="-1.668" cy="1.433" r="0.014" />
<circle cx="-0.685" cy="1.826" r="0.014" />
</g>
</svg>