<svg xmlns="http://www.w3.org/2000/svg" width="161.8" height="100.0" viewBox="-4.05 -5.00 171.80 110.00">
<g fill="none" stroke="black" stroke-width="0.0665%" transform="translate(0, 100.0000) scale(7.5176, -7.5176)">
<circle cx="0.13" cy="0.00" r="0.07" />
<circle cx="0.25" cy="0.00" r="0.07" />
<circle cx="0.38" cy="0.00" r="0.07" />
<circle cx="0.51" cy="0.00" r="0.07" />
<circle cx="0.63" cy="1.10" r="0.07" />
<circle cx="0.76" cy="0.00" r="0.07" />
<circle cx="0.89" cy="0.00" r="0.07" />
<circle cx="1.01" cy="1.61" r="0.07" />
<circle cx="1.14" cy="1.61" r="0.07" />
<circle cx="1.27" cy="0.00" r="0.07" />
<circle cx="1.39" cy="0.00" r="0.07" />
<circle cx="1.52" cy="1.95" r="0.07" />
<circle cx="1.65" cy="2.56" r="0.07" />
<circle cx="1.77" cy="1.95" r="0.07" />
<circle cx="1.90" cy="0.00" r="0.07" />
<circle cx="2.03" cy="0.00" r="0.07" />
<circle cx="2.15" cy="2.20" r="0.07" />
<circle cx="2.28" cy="3.22" r="0.07" />
<circle cx="2.41" cy="3.22" r="0.07" />
<circle cx="2.53" cy="2.20" r="0.07" />
<circle cx="2.66" cy="0.00" r="0.07" />
<circle cx="2.79" cy="0.00" r="0.07" />
<circle cx="2.91" cy="2.40" r="0.07" />
<circle cx="3.04" cy="3.71" r="0.07" />
<circle cx="3.17" cy="4.14" r="0.07" />
<circle cx="3.29" cy="3.71" r="0.07" />
<circle cx="3.42" cy="2.40" r="0.07" />
<circle cx="3.54" cy="0.00" r="0.07" />
<circle cx="3.67" cy="0.00" r="0.07" />
<circle cx="3.80" cy="2.56" r="0.07" />
<circle cx="3.92" cy="4.11" r="0.07" />
<circle cx="4.05" cy="4.86" r="0.07" />
<circle cx="4.18" cy="4.86" r="0.07" />
<circle cx="4.30" cy="4.11" r="0.07" />
<circle cx="4.43" cy="2.56" r="0.07" />
<circle cx="4.56" cy="0.00" r="0.07" />
<circle cx="4.68" cy="0.00" r="0.07" />
<circle cx="4.81" cy="2.71" r="0.07" />
<circle cx="4.94" cy="4.44" r="0.07" />
<circle cx="5.06" cy="5.44" r="0.07" />
<circle cx="5.19" cy="5.77" r="0.07" />
<circle cx="5.32" cy="5.44" r="0.07" />
<circle cx="5.44" cy="4.44" r="0.07" />
<circle cx="5.57" cy="2.71" r="0.07" />
<circle cx="5.70" cy="0.00" r="0.07" />
<circle cx="5.82" cy="0.00" r="0.07" />
<circle cx="5.95" cy="2.83" r="0.07" />
<circle cx="6.08" cy="4.73" r="0.07" />
<circle cx="6.20" cy="5.93" r="0.07" />
<circle cx="6.33" cy="6.52" r="0.07" />
<circle cx="6.46" cy="6.52" r="0.07" />
<circle cx="6.58" cy="5.93" r="0.07" />
<circle cx="6.71" cy="4.73" r="0.07" />
<circle cx="6.84" cy="2.83" r="0.07" />
<circle cx="6.96" cy="0.00" r="0.07" />
<circle cx="7.09" cy="0.00" r="0.07" />
<circle cx="7.22" cy="2.94" r="0.07" />
<circle cx="7.34" cy="4.98" r="0.07" />
<circle cx="7.47" cy="6.35" r="0.07" />
<circle cx="7.60" cy="7.16" r="0.07" />
<circle cx="7.72" cy="7.43" r="0.07" />
<circle cx="7.85" cy="7.16" r="0.07" />
<circle cx="7.98" cy="6.35" r="0.07" />
<circle cx="8.10" cy="4.98" r="0.07" />
<circle cx="8.23" cy="2.94" r="0.07" />
<circle cx="8.36" cy="0.00" r="0.07" />
<circle cx="8.48" cy="0.00" r="0.07" />
<circle cx="8.61" cy="3.04" r="0.07" />
<circle cx="8.74" cy="5.20" r="0.07" />
<circle cx="8.86" cy="6.73" r="0.07" />
<circle cx="8.99" cy="7.71" r="0.07" />
<circle cx="9.12" cy="8.20" r="0.07" />
<circle cx="9.24" cy="8.20" r="0.07" />
<circle cx="9.37" cy="7.71" r="0.07" />
<circle cx="9.50" cy="6.73" r="0.07" />
<circle cx="9.62" cy="5.20" r="0.07" />
<circle cx="9.75" cy="3.04" r="0.07" />
<circle cx="9.88" cy="0.00" r="0.07" />
<circle cx="10.00" cy="0.00" r="0.07" />
<circle cx="10.13" cy="3.14" r="0.07" />
<circle cx="10.26" cy="5.40" r="0.07" />
<circle cx="10.38" cy="7.06" r="0.07" />
<circle cx="10.51" cy="8.20" r="0.07" />
<circle cx="10.63" cy="8.88" r="0.07" />
<circle cx="10.76" cy="9.10" r="0.07" />
<circle cx="10.89" cy="8.88" r="0.07" />
<circle cx="11.01" cy="8.20" r="0.07" />
<circle cx="11.14" cy="7.06" r="0.07" />
<circle cx="11.27" cy="5.40" r="0.07" />
<circle cx="11.39" cy="3.14" r="0.07" />
<circle cx="11.52" cy="0.00" r="0.07" />
<circle cx="11.65" cy="0.00" r="0.07" />
<circle cx="11.77" cy="3.22" r="0.07" />
<circle cx="11.90" cy="5.58" r="0.07" />
<circle cx="12.03" cy="7.35" r="0.07" />
<circle cx="12.15" cy="8.64" r="0.07" />
<circle cx="12.28" cy="9.48" r="0.07" />
<circle cx="12.41" cy="9.89" r="0.07" />
<circle cx="12.53" cy="9.89" r="0.07" />
<circle cx="12.66" cy="9.48" r="0.07" />
<circle cx="12.79" cy="8.64" r="0.07" />
<circle cx="12.91" cy="7.35" r="0.07" />
<circle cx="13.04" cy="5.58" r="0.07" />
<circle cx="13.17" cy="3.22" r="0.07" />
<circle cx="13.29" cy="0.00" r="0.07" />
<circle cx="13.42" cy="0.00" r="0.07" />
<circle cx="13.55" cy="3.30" r="0.07" />
<circle cx="13.67" cy="5.75" r="0.07" />
<circle cx="13.80" cy="7.62" r="0.07" />
<circle cx="13.93" cy="9.03" r="0.07" />
<circle cx="14.05" cy="10.02" r="0.07" />
<circle cx="14.18" cy="10.60" r="0.07" />
<circle cx="14.31" cy="10.79" r="0.07" />
<circle cx="14.43" cy="10.60" r="0.07" />
<circle cx="14.56" cy="10.02" r="0.07" />
<circle cx="14.69" cy="9.03" r="0.07" />
<circle cx="14.81" cy="7.62" r="0.07" />
<circle cx="14.94" cy="5.75" r="0.07" />
<circle cx="15.07" cy="3.30" r="0.07" />
<circle cx="15.19" cy="0.00" r="0.07" />
<circle cx="15.32" cy="0.00" r="0.07" />
<circle cx="15.45" cy="3.37" r="0.07" />
<circle cx="15.57" cy="5.90" r="0.07" />
<circle cx="15.70" cy="7.87" r="0.07" />
<circle cx="15.83" cy="9.39" r="0.07" />
<circle cx="15.95" cy="10.50" r="0.07" />
<circle cx="16.08" cy="11.23" r="0.07" />
<circle cx="16.21" cy="11.59" r="0.07" />
<circle cx="16.33" cy="11.59" r="0.07" />
<circle cx="16.46" cy="11.23" r="0.07" />
<circle cx="16.59" cy="10.50" r="0.07" />
<circle cx="16.71" cy="9.39" r="0.07" />
<circle cx="16.84" cy="7.87" r="0.07" />
<circle cx="16.97" cy="5.90" r="0.07" />
<circle cx="17.09" cy="3.37" r="0.07" />
<circle cx="17.22" cy="0.00" r="0.07" />
<circle cx="17.35" cy="0.00" r="0.07" />
<circle cx="17.47" cy="3.43" r="0.07" />
<circle cx="17.60" cy="6.04" r="0.07" />
<circle cx="17.72" cy="8.10" r="0.07" />
<circle cx="17.85" cy="9.72" r="0.07" />
<circle cx="17.98" cy="10.95" r="0.07" />
<circle cx="18.10" cy="11.81" r="0.07" />
<circle cx="18.23" cy="12.32" r="0.07" />
<circle cx="18.36" cy="12.49" r="0.07" />
<circle cx="18.48" cy="12.32" r="0.07" />
<circle cx="18.61" cy="11.81" r="0.07" />
<circle cx="18.74" cy="10.95" r="0.07" />
<circle cx="18.86" cy="9.72" r="0.07" />
<circle cx="18.99" cy="8.10" r="0.07" />
<circle cx="19.12" cy="6.04" r="0.07" />
<circle cx="19.24" cy="3.43" r="0.07" />
<circle cx="19.37" cy="0.00" r="0.07" />
<circle cx="19.50" cy="0.00" r="0.07" />
<circle cx="19.62" cy="3.50" r="0.07" />
<circle cx="19.75" cy="6.18" r="0.07" />
<circle cx="19.88" cy="8.32" r="0.07" />
<circle cx="20.00" cy="10.02" r="0.07" />
<circle cx="20.13" cy="11.35" r="0.07" />
<circle cx="20.26" cy="12.33" r="0.07" />
<circle cx="20.38" cy="12.98" r="0.07" />
<circle cx="20.51" cy="13.30" r="0.07" />
<circle cx="20.64" cy="13.30" r="0.07" />
<circle cx="20.76" cy="12.98" r="0.07" />
<circle cx="20.89" cy="12.33" r="0.07" />
<circle cx="21.02" cy="11.35" r="0.07" />
<circle cx="21.14" cy="10.02" r="0.07" />
<circle cx="21.27" cy="8.32" r="0.07" />
<circle cx="21.40" cy="6.18" r="0.07" />
<circle cx="21.52" cy="3.50" r="0.07" />
<circle cx="21.65" cy="0.00" r="0.07" />
</g>
</svg>