<svg xmlns="http://www.w3.org/2000/svg" width="96" height="96" viewBox="0 0 96 96">
<g stroke="none" transform="translate(0, 0) scale(1, 1)">
<rect x="0" y="0" width="8" height="8" fill="rgba(255,255,255,0)"/>
<rect x="0" y="8" width="8" height="8" fill="rgba(255,255,255,0)"/>
<rect x="0" y="16" width="8" height="8" fill="rgba(255,255,255,0)"/>
<rect x="0" y="24" width="8" height="8" fill="rgba(255,255,255,0)"/>
<rect x="0" y="32" width="8" height="8" fill="rgba(255,255,255,0)"/>
<rect x="0" y="40" width="8" height="8" fill="rgb(253,253,253)"/>
<rect x="0" y="48" width="8" height="8" fill="rgb(250,250,250)"/>
<rect x="0" y="56" width="8" height="8" fill="rgb(250,250,250)"/>
<rect x="0" y="64" width="8" height="8" fill="rgba(255,255,255,0)"/>
<rect x="0" y="72" width="8" height="8" fill="rgb(250,250,250)"/>
<rect x="0" y="80" width="8" height="8" fill="rgba(255,255,255,0)"/>
<rect x="0" y="88" width="8" height="8" fill="rgba(255,255,255,0)"/>
<rect x="8" y="0" width="8" height="8" fill="rgba(255,255,255,0)"/>
<rect x="8" y="8" width="8" height="8" fill="rgba(255,255,255,0)"/>
<rect x="8" y="16" width="8" height="8" fill="rgba(255,255,255,0)"/>
<rect x="8" y="24" width="8" height="8" fill="rgba(255,255,255,0)"/>
<rect x="8" y="32" width="8" height="8" fill="rgb(240,240,240)"/>
<rect x="8" y="40" width="8" height="8" fill="rgb(248,248,248)"/>
<rect x="8" y="48" width="8" height="8" fill="rgb(230,230,230)"/>
<rect x="8" y="56" width="8" height="8" fill="rgb(235,235,235)"/>
<rect x="8" y="64" width="8" height="8" fill="rgb(248,248,248)"/>
<rect x="8" y="72" width="8" height="8" fill="rgb(245,245,245)"/>
<rect x="8" y="80" width="8" height="8" fill="rgba(255,255,255,0)"/>
<rect x="8" y="88" width="8" height="8" fill="rgba(255,255,255,0)"/>
<rect x="16" y="0" width="8" height="8" fill="rgba(255,255,255,0)"/>
<rect x="16" y="8" width="8" height="8" fill="rgba(255,255,255,0)"/>
<rect x="16" y="16" width="8" height="8" fill="rgba(255,255,255,0)"/>
<rect x="16" y="24" width="8" height="8" fill="rgb(248,248,248)"/>
<rect x="16" y="32" width="8" height="8" fill="rgb(240,240,240)"/>
<rect x="16" y="40" width="8" height="8" fill="rgb(215,215,215)"/>
<rect x="16" y="48" width="8" height="8" fill="rgb(186,186,186)"/>
<rect x="16" y="56" width="8" height="8" fill="rgb(205,205,205)"/>
<rect x="16" y="64" width="8" height="8" fill="rgb(208,208,208)"/>
<rect x="16" y="72" width="8" height="8" fill="rgb(233,233,233)"/>
<rect x="16" y="80" width="8" height="8" fill="rgb(253,253,253)"/>
<rect x="16" y="88" width="8" height="8" fill="rgb(253,253,253)"/>
<rect x="24" y="0" width="8" height="8" fill="rgba(255,255,255,0)"/>
<rect x="24" y="8" width="8" height="8" fill="rgb(253,253,253)"/>
<rect x="24" y="16" width="8" height="8" fill="rgb(243,243,243)"/>
<rect x="24" y="24" width="8" height="8" fill="rgb(230,230,230)"/>
<rect x="24" y="32" width="8" height="8" fill="rgb(191,191,191)"/>
<rect x="24" y="40" width="8" height="8" fill="rgb(146,146,146)"/>
<rect x="24" y="48" width="8" height="8" fill="rgb(99,99,99)"/>
<rect x="24" y="56" width="8" height="8" fill="rgb(158,158,158)"/>
<rect x="24" y="64" width="8" height="8" fill="rgb(151,151,151)"/>
<rect x="24" y="72" width="8" height="8" fill="rgb(208,208,208)"/>
<rect x="24" y="80" width="8" height="8" fill="rgb(240,240,240)"/>
<rect x="24" y="88" width="8" height="8" fill="rgb(253,253,253)"/>
<rect x="32" y="0" width="8" height="8" fill="rgb(253,253,253)"/>
<rect x="32" y="8" width="8" height="8" fill="rgb(253,253,253)"/>
<rect x="32" y="16" width="8" height="8" fill="rgb(248,248,248)"/>
<rect x="32" y="24" width="8" height="8" fill="rgb(223,223,223)"/>
<rect x="32" y="32" width="8" height="8" fill="rgb(171,171,171)"/>
<rect x="32" y="40" width="8" height="8" fill="rgb(79,79,79)"/>
<rect x="32" y="48" width="8" height="8" fill="rgb(37,37,37)"/>
<rect x="32" y="56" width="8" height="8" fill="rgb(40,40,40)"/>
<rect x="32" y="64" width="8" height="8" fill="rgb(114,114,114)"/>
<rect x="32" y="72" width="8" height="8" fill="rgb(163,163,163)"/>
<rect x="32" y="80" width="8" height="8" fill="rgb(225,225,225)"/>
<rect x="32" y="88" width="8" height="8" fill="rgb(245,245,245)"/>
<rect x="40" y="0" width="8" height="8" fill="rgba(255,255,255,0)"/>
<rect x="40" y="8" width="8" height="8" fill="rgba(255,255,255,0)"/>
<rect x="40" y="16" width="8" height="8" fill="rgb(253,253,253)"/>
<rect x="40" y="24" width="8" height="8" fill="rgb(215,215,215)"/>
<rect x="40" y="32" width="8" height="8" fill="rgb(126,126,126)"/>
<rect x="40" y="40" width="8" height="8" fill="rgb(54,54,54)"/>
<rect x="40" y="48" width="8" height="8" fill="rgb(0,0,0)"/>
<rect x="40" y="56" width="8" height="8" fill="rgb(22,22,22)"/>
<rect x="40" y="64" width="8" height="8" fill="rgb(74,74,74)"/>
<rect x="40" y="72" width="8" height="8" fill="rgb(186,186,186)"/>
<rect x="40" y="80" width="8" height="8" fill="rgb(238,238,238)"/>
<rect x="40" y="88" width="8" height="8" fill="rgb(248,248,248)"/>
<rect x="48" y="0" width="8" height="8" fill="rgba(255,255,255,0)"/>
<rect x="48" y="8" width="8" height="8" fill="rgb(253,253,253)"/>
<rect x="48" y="16" width="8" height="8" fill="rgb(248,248,248)"/>
<rect x="48" y="24" width="8" height="8" fill="rgb(213,213,213)"/>
<rect x="48" y="32" width="8" height="8" fill="rgb(183,183,183)"/>
<rect x="48" y="40" width="8" height="8" fill="rgb(42,42,42)"/>
<rect x="48" y="48" width="8" height="8" fill="rgb(77,77,77)"/>
<rect x="48" y="56" width="8" height="8" fill="rgb(62,62,62)"/>
<rect x="48" y="64" width="8" height="8" fill="rgb(114,114,114)"/>
<rect x="48" y="72" width="8" height="8" fill="rgb(203,203,203)"/>
<rect x="48" y="80" width="8" height="8" fill="rgb(223,223,223)"/>
<rect x="48" y="88" width="8" height="8" fill="rgb(240,240,240)"/>
<rect x="56" y="0" width="8" height="8" fill="rgba(255,255,255,0)"/>
<rect x="56" y="8" width="8" height="8" fill="rgb(250,250,250)"/>
<rect x="56" y="16" width="8" height="8" fill="rgb(248,248,248)"/>
<rect x="56" y="24" width="8" height="8" fill="rgb(230,230,230)"/>
<rect x="56" y="32" width="8" height="8" fill="rgb(208,208,208)"/>
<rect x="56" y="40" width="8" height="8" fill="rgb(176,176,176)"/>
<rect x="56" y="48" width="8" height="8" fill="rgb(136,136,136)"/>
<rect x="56" y="56" width="8" height="8" fill="rgb(149,149,149)"/>
<rect x="56" y="64" width="8" height="8" fill="rgb(156,156,156)"/>
<rect x="56" y="72" width="8" height="8" fill="rgb(218,218,218)"/>
<rect x="56" y="80" width="8" height="8" fill="rgb(233,233,233)"/>
<rect x="56" y="88" width="8" height="8" fill="rgba(255,255,255,0)"/>
<rect x="64" y="0" width="8" height="8" fill="rgba(255,255,255,0)"/>
<rect x="64" y="8" width="8" height="8" fill="rgba(255,255,255,0)"/>
<rect x="64" y="16" width="8" height="8" fill="rgb(248,248,248)"/>
<rect x="64" y="24" width="8" height="8" fill="rgb(243,243,243)"/>
<rect x="64" y="32" width="8" height="8" fill="rgb(235,235,235)"/>
<rect x="64" y="40" width="8" height="8" fill="rgb(228,228,228)"/>
<rect x="64" y="48" width="8" height="8" fill="rgb(188,188,188)"/>
<rect x="64" y="56" width="8" height="8" fill="rgb(210,210,210)"/>
<rect x="64" y="64" width="8" height="8" fill="rgb(225,225,225)"/>
<rect x="64" y="72" width="8" height="8" fill="rgb(238,238,238)"/>
<rect x="64" y="80" width="8" height="8" fill="rgb(245,245,245)"/>
<rect x="64" y="88" width="8" height="8" fill="rgba(255,255,255,0)"/>
<rect x="72" y="0" width="8" height="8" fill="rgba(255,255,255,0)"/>
<rect x="72" y="8" width="8" height="8" fill="rgba(255,255,255,0)"/>
<rect x="72" y="16" width="8" height="8" fill="rgba(255,255,255,0)"/>
<rect x="72" y="24" width="8" height="8" fill="rgb(250,250,250)"/>
<rect x="72" y="32" width="8" height="8" fill="rgb(250,250,250)"/>
<rect x="72" y="40" width="8" height="8" fill="rgb(225,225,225)"/>
<rect x="72" y="48" width="8" height="8" fill="rgb(245,245,245)"/>
<rect x="72" y="56" width="8" height="8" fill="rgb(248,248,248)"/>
<rect x="72" y="64" width="8" height="8" fill="rgb(248,248,248)"/>
<rect x="72" y="72" width="8" height="8" fill="rgb(250,250,250)"/>
<rect x="72" y="80" width="8" height="8" fill="rgb(253,253,253)"/>
<rect x="72" y="88" width="8" height="8" fill="rgba(255,255,255,0)"/>
<rect x="80" y="0" width="8" height="8" fill="rgba(255,255,255,0)"/>
<rect x="80" y="8" width="8" height="8" fill="rgba(255,255,255,0)"/>
<rect x="80" y="16" width="8" height="8" fill="rgba(255,255,255,0)"/>
<rect x="80" y="24" width="8" height="8" fill="rgba(255,255,255,0)"/>
<rect x="80" y="32" width="8" height="8" fill="rgba(255,255,255,0)"/>
<rect x="80" y="40" width="8" height="8" fill="rgb(253,253,253)"/>
<rect x="80" y="48" width="8" height="8" fill="rgb(248,248,248)"/>
<rect x="80" y="56" width="8" height="8" fill="rgba(255,255,255,0)"/>
<rect x="80" y="64" width="8" height="8" fill="rgba(255,255,255,0)"/>
<rect x="80" y="72" width="8" height="8" fill="rgb(253,253,253)"/>
<rect x="80" y="80" width="8" height="8" fill="rgba(255,255,255,0)"/>
<rect x="80" y="88" width="8" height="8" fill="rgba(255,255,255,0)"/>
<rect x="88" y="0" width="8" height="8" fill="rgba(255,255,255,0)"/>
<rect x="88" y="8" width="8" height="8" fill="rgba(255,255,255,0)"/>
<rect x="88" y="16" width="8" height="8" fill="rgba(255,255,255,0)"/>
<rect x="88" y="24" width="8" height="8" fill="rgba(255,255,255,0)"/>
<rect x="88" y="32" width="8" height="8" fill="rgba(255,255,255,0)"/>
<rect x="88" y="40" width="8" height="8" fill="rgb(253,253,253)"/>
<rect x="88" y="48" width="8" height="8" fill="rgba(255,255,255,0)"/>
<rect x="88" y="56" width="8" height="8" fill="rgba(255,255,255,0)"/>
<rect x="88" y="64" width="8" height="8" fill="rgba(255,255,255,0)"/>
<rect x="88" y="72" width="8" height="8" fill="rgba(255,255,255,0)"/>
<rect x="88" y="80" width="8" height="8" fill="rgba(255,255,255,0)"/>
<rect x="88" y="88" width="8" height="8" fill="rgba(255,255,255,0)"/>
</g>
</svg>