<svg xmlns="http://www.w3.org/2000/svg" width="96" height="96" viewBox="0 0 96 96">
<g stroke="none" transform="translate(0, 0) scale(1, 1)">
<rect x="16" y="48" width="8" height="8" fill="rgb(170,170,170)"/>
<rect x="16" y="72" width="8" height="8" fill="rgb(170,170,170)"/>
<rect x="24" y="24" width="8" height="8" fill="rgb(85,85,85)"/>
<rect x="24" y="40" width="8" height="8" fill="rgb(170,170,170)"/>
<rect x="32" y="32" width="8" height="8" fill="rgb(170,170,170)"/>
<rect x="32" y="40" width="8" height="8" fill="rgb(85,85,85)"/>
<rect x="32" y="48" width="8" height="8" fill="rgb(85,85,85)"/>
<rect x="32" y="56" width="8" height="8" fill="rgb(170,170,170)"/>
<rect x="32" y="64" width="8" height="8" fill="rgb(0,0,0)"/>
<rect x="40" y="32" width="8" height="8" fill="rgb(0,0,0)"/>
<rect x="40" y="48" width="8" height="8" fill="rgb(85,85,85)"/>
<rect x="40" y="56" width="8" height="8" fill="rgb(85,85,85)"/>
<rect x="40" y="64" width="8" height="8" fill="rgb(170,170,170)"/>
<rect x="40" y="80" width="8" height="8" fill="rgb(170,170,170)"/>
<rect x="48" y="24" width="8" height="8" fill="rgb(85,85,85)"/>
<rect x="48" y="32" width="8" height="8" fill="rgb(85,85,85)"/>
<rect x="48" y="48" width="8" height="8" fill="rgb(0,0,0)"/>
<rect x="48" y="56" width="8" height="8" fill="rgb(85,85,85)"/>
<rect x="56" y="16" width="8" height="8" fill="rgb(85,85,85)"/>
<rect x="56" y="24" width="8" height="8" fill="rgb(170,170,170)"/>
<rect x="56" y="32" width="8" height="8" fill="rgb(170,170,170)"/>
<rect x="56" y="40" width="8" height="8" fill="rgb(0,0,0)"/>
<rect x="56" y="48" width="8" height="8" fill="rgb(170,170,170)"/>
<rect x="56" y="56" width="8" height="8" fill="rgb(85,85,85)"/>
<rect x="64" y="24" width="8" height="8" fill="rgb(170,170,170)"/>
<rect x="64" y="32" width="8" height="8" fill="rgb(170,170,170)"/>
<rect x="64" y="48" width="8" height="8" fill="rgb(170,170,170)"/>
<rect x="72" y="16" width="8" height="8" fill="rgb(0,0,0)"/>
<rect x="72" y="56" width="8" height="8" fill="rgb(170,170,170)"/>
<rect x="80" y="32" width="8" height="8" fill="rgb(170,170,170)"/>
</g>
</svg>