<svg xmlns="http://www.w3.org/2000/svg" width="161.8" height="100.0" viewBox="-3.92 0.00 171.80 110.00">
<g fill="none" stroke="black" stroke-width="0.1000%" transform="translate(0, 110.0000) scale(5.0000, -5.0000)">
<circle cx="0.22" cy="1.00" r="0.10" />
<circle cx="0.43" cy="2.00" r="0.10" />
<circle cx="0.65" cy="1.00" r="0.10" />
<circle cx="0.86" cy="3.00" r="0.10" />
<circle cx="1.08" cy="1.00" r="0.10" />
<circle cx="1.29" cy="4.00" r="0.10" />
<circle cx="1.51" cy="1.00" r="0.10" />
<circle cx="1.73" cy="2.00" r="0.10" />
<circle cx="1.94" cy="1.00" r="0.10" />
<circle cx="2.16" cy="5.00" r="0.10" />
<circle cx="2.37" cy="1.00" r="0.10" />
<circle cx="2.59" cy="6.00" r="0.10" />
<circle cx="2.80" cy="1.00" r="0.10" />
<circle cx="3.02" cy="2.00" r="0.10" />
<circle cx="3.24" cy="1.00" r="0.10" />
<circle cx="3.45" cy="3.00" r="0.10" />
<circle cx="3.67" cy="1.00" r="0.10" />
<circle cx="3.88" cy="7.00" r="0.10" />
<circle cx="4.10" cy="1.00" r="0.10" />
<circle cx="4.31" cy="2.00" r="0.10" />
<circle cx="4.53" cy="1.00" r="0.10" />
<circle cx="4.75" cy="8.00" r="0.10" />
<circle cx="4.96" cy="1.00" r="0.10" />
<circle cx="5.18" cy="4.00" r="0.10" />
<circle cx="5.39" cy="1.00" r="0.10" />
<circle cx="5.61" cy="2.00" r="0.10" />
<circle cx="5.82" cy="1.00" r="0.10" />
<circle cx="6.04" cy="3.00" r="0.10" />
<circle cx="6.26" cy="1.00" r="0.10" />
<circle cx="6.47" cy="9.00" r="0.10" />
<circle cx="6.69" cy="1.00" r="0.10" />
<circle cx="6.90" cy="2.00" r="0.10" />
<circle cx="7.12" cy="1.00" r="0.10" />
<circle cx="7.34" cy="10.00" r="0.10" />
<circle cx="7.55" cy="1.00" r="0.10" />
<circle cx="7.77" cy="5.00" r="0.10" />
<circle cx="7.98" cy="1.00" r="0.10" />
<circle cx="8.20" cy="2.00" r="0.10" />
<circle cx="8.41" cy="1.00" r="0.10" />
<circle cx="8.63" cy="3.00" r="0.10" />
<circle cx="8.85" cy="1.00" r="0.10" />
<circle cx="9.06" cy="11.00" r="0.10" />
<circle cx="9.28" cy="1.00" r="0.10" />
<circle cx="9.49" cy="2.00" r="0.10" />
<circle cx="9.71" cy="1.00" r="0.10" />
<circle cx="9.92" cy="4.00" r="0.10" />
<circle cx="10.14" cy="1.00" r="0.10" />
<circle cx="10.36" cy="12.00" r="0.10" />
<circle cx="10.57" cy="1.00" r="0.10" />
<circle cx="10.79" cy="2.00" r="0.10" />
<circle cx="11.00" cy="1.00" r="0.10" />
<circle cx="11.22" cy="3.00" r="0.10" />
<circle cx="11.43" cy="1.00" r="0.10" />
<circle cx="11.65" cy="6.00" r="0.10" />
<circle cx="11.87" cy="1.00" r="0.10" />
<circle cx="12.08" cy="2.00" r="0.10" />
<circle cx="12.30" cy="1.00" r="0.10" />
<circle cx="12.51" cy="13.00" r="0.10" />
<circle cx="12.73" cy="1.00" r="0.10" />
<circle cx="12.94" cy="14.00" r="0.10" />
<circle cx="13.16" cy="1.00" r="0.10" />
<circle cx="13.38" cy="2.00" r="0.10" />
<circle cx="13.59" cy="1.00" r="0.10" />
<circle cx="13.81" cy="3.00" r="0.10" />
<circle cx="14.02" cy="1.00" r="0.10" />
<circle cx="14.24" cy="4.00" r="0.10" />
<circle cx="14.45" cy="1.00" r="0.10" />
<circle cx="14.67" cy="2.00" r="0.10" />
<circle cx="14.89" cy="1.00" r="0.10" />
<circle cx="15.10" cy="5.00" r="0.10" />
<circle cx="15.32" cy="1.00" r="0.10" />
<circle cx="15.53" cy="7.00" r="0.10" />
<circle cx="15.75" cy="1.00" r="0.10" />
<circle cx="15.96" cy="2.00" r="0.10" />
<circle cx="16.18" cy="1.00" r="0.10" />
<circle cx="16.40" cy="3.00" r="0.10" />
<circle cx="16.61" cy="1.00" r="0.10" />
<circle cx="16.83" cy="15.00" r="0.10" />
<circle cx="17.04" cy="1.00" r="0.10" />
<circle cx="17.26" cy="2.00" r="0.10" />
<circle cx="17.47" cy="1.00" r="0.10" />
<circle cx="17.69" cy="16.00" r="0.10" />
<circle cx="17.91" cy="1.00" r="0.10" />
<circle cx="18.12" cy="4.00" r="0.10" />
<circle cx="18.34" cy="1.00" r="0.10" />
<circle cx="18.55" cy="2.00" r="0.10" />
<circle cx="18.77" cy="1.00" r="0.10" />
<circle cx="18.98" cy="3.00" r="0.10" />
<circle cx="19.20" cy="1.00" r="0.10" />
<circle cx="19.42" cy="8.00" r="0.10" />
<circle cx="19.63" cy="1.00" r="0.10" />
<circle cx="19.85" cy="2.00" r="0.10" />
<circle cx="20.06" cy="1.00" r="0.10" />
<circle cx="20.28" cy="6.00" r="0.10" />
<circle cx="20.50" cy="1.00" r="0.10" />
<circle cx="20.71" cy="5.00" r="0.10" />
<circle cx="20.93" cy="1.00" r="0.10" />
<circle cx="21.14" cy="2.00" r="0.10" />
<circle cx="21.36" cy="1.00" r="0.10" />
<circle cx="21.57" cy="3.00" r="0.10" />
<circle cx="21.79" cy="1.00" r="0.10" />
<circle cx="22.01" cy="17.00" r="0.10" />
<circle cx="22.22" cy="1.00" r="0.10" />
<circle cx="22.44" cy="2.00" r="0.10" />
<circle cx="22.65" cy="1.00" r="0.10" />
<circle cx="22.87" cy="4.00" r="0.10" />
<circle cx="23.08" cy="1.00" r="0.10" />
<circle cx="23.30" cy="18.00" r="0.10" />
<circle cx="23.52" cy="1.00" r="0.10" />
<circle cx="23.73" cy="2.00" r="0.10" />
<circle cx="23.95" cy="1.00" r="0.10" />
<circle cx="24.16" cy="3.00" r="0.10" />
<circle cx="24.38" cy="1.00" r="0.10" />
<circle cx="24.59" cy="9.00" r="0.10" />
<circle cx="24.81" cy="1.00" r="0.10" />
<circle cx="25.03" cy="2.00" r="0.10" />
<circle cx="25.24" cy="1.00" r="0.10" />
<circle cx="25.46" cy="19.00" r="0.10" />
<circle cx="25.67" cy="1.00" r="0.10" />
<circle cx="25.89" cy="7.00" r="0.10" />
<circle cx="26.10" cy="1.00" r="0.10" />
<circle cx="26.32" cy="2.00" r="0.10" />
<circle cx="26.54" cy="1.00" r="0.10" />
<circle cx="26.75" cy="3.00" r="0.10" />
<circle cx="26.97" cy="1.00" r="0.10" />
<circle cx="27.18" cy="4.00" r="0.10" />
<circle cx="27.40" cy="1.00" r="0.10" />
<circle cx="27.61" cy="2.00" r="0.10" />
<circle cx="27.83" cy="1.00" r="0.10" />
<circle cx="28.05" cy="5.00" r="0.10" />
<circle cx="28.26" cy="1.00" r="0.10" />
<circle cx="28.48" cy="20.00" r="0.10" />
<circle cx="28.69" cy="1.00" r="0.10" />
<circle cx="28.91" cy="2.00" r="0.10" />
<circle cx="29.12" cy="1.00" r="0.10" />
<circle cx="29.34" cy="3.00" r="0.10" />
<circle cx="29.56" cy="1.00" r="0.10" />
<circle cx="29.77" cy="6.00" r="0.10" />
<circle cx="29.99" cy="1.00" r="0.10" />
<circle cx="30.20" cy="2.00" r="0.10" />
<circle cx="30.42" cy="1.00" r="0.10" />
<circle cx="30.63" cy="10.00" r="0.10" />
<circle cx="30.85" cy="1.00" r="0.10" />
<circle cx="31.07" cy="4.00" r="0.10" />
<circle cx="31.28" cy="1.00" r="0.10" />
<circle cx="31.50" cy="2.00" r="0.10" />
<circle cx="31.71" cy="1.00" r="0.10" />
<circle cx="31.93" cy="3.00" r="0.10" />
<circle cx="32.14" cy="1.00" r="0.10" />
<circle cx="32.36" cy="21.00" r="0.10" />
<circle cx="32.58" cy="1.00" r="0.10" />
</g>
</svg>