<svg xmlns="http://www.w3.org/2000/svg" width="161.8" height="100.0" viewBox="-3.4 -5.0 171.8 110.0">
<g fill="none" stroke="black" stroke-width="0.3608%" transform="translate(0, 100.0000) scale(1.3858, -1.3858)">
<polyline points="1.2,0.0 2.4,0.5 3.5,1.0 4.7,1.5 5.9,2.1 7.1,2.9 8.3,3.8 9.4,5.2 10.6,7.2 11.8,10.7 13.0,18.6 14.2,54.7 15.3,72.2 16.5,23.0 17.7,14.1 18.9,10.3 20.0,8.2 21.2,6.9 22.4,6.0 23.6,5.3 24.8,4.8 25.9,4.3 27.1,4.0 28.3,3.7 29.5,3.5 30.7,3.3 31.8,3.1 33.0,2.9 34.2,2.8 35.4,2.6 36.6,2.5 37.7,2.4 38.9,2.3 40.1,2.3 41.3,2.2 42.5,2.1 43.6,2.0 44.8,2.0 46.0,1.9 47.2,1.9 48.4,1.8 49.5,1.8 50.7,1.7 51.9,1.7 53.1,1.7 54.2,1.6 55.4,1.6 56.6,1.5 57.8,1.5 59.0,1.5 60.1,1.5 61.3,1.4 62.5,1.4 63.7,1.4 64.9,1.4 66.0,1.3 67.2,1.3 68.4,1.3 69.6,1.3 70.8,1.3 71.9,1.3 73.1,1.2 74.3,1.2 75.5,1.2 76.7,1.2 77.8,1.2 79.0,1.2 80.2,1.2 81.4,1.2 82.6,1.1 83.7,1.1 84.9,1.1 86.1,1.1 87.3,1.1 88.5,1.1 89.6,1.1 90.8,1.1 92.0,1.1 93.2,1.1 94.3,1.1 95.5,1.1 96.7,1.0 97.9,1.0 99.1,1.0 100.2,1.0 101.4,1.0 102.6,1.0 103.8,1.0 105.0,1.0 106.1,1.0 107.3,1.0 108.5,1.0 109.7,1.0 110.9,1.0 112.0,1.0 113.2,1.0 114.4,1.0 115.6,1.0 116.8,1.0 117.9,1.0" />
</g>
</svg>