<svg xmlns="http://www.w3.org/2000/svg" width="102" height="102" viewBox="0 0 102 102">
<g stroke="none" transform="translate(0, 0) scale(1, 1)">
<rect x="0" y="0" width="6" height="6" fill="rgba(255,255,255,0)"/>
<rect x="0" y="6" width="6" height="6" fill="rgb(156,156,156)"/>
<rect x="0" y="12" width="6" height="6" fill="rgb(192,192,192)"/>
<rect x="0" y="18" width="6" height="6" fill="rgb(145,145,145)"/>
<rect x="0" y="24" width="6" height="6" fill="rgb(135,135,135)"/>
<rect x="0" y="30" width="6" height="6" fill="rgb(22,22,22)"/>
<rect x="0" y="36" width="6" height="6" fill="rgb(44,44,44)"/>
<rect x="0" y="42" width="6" height="6" fill="rgb(110,110,110)"/>
<rect x="0" y="48" width="6" height="6" fill="rgb(206,206,206)"/>
<rect x="0" y="54" width="6" height="6" fill="rgb(223,223,223)"/>
<rect x="0" y="60" width="6" height="6" fill="rgb(224,224,224)"/>
<rect x="0" y="66" width="6" height="6" fill="rgb(208,208,208)"/>
<rect x="0" y="72" width="6" height="6" fill="rgb(123,123,123)"/>
<rect x="0" y="78" width="6" height="6" fill="rgb(132,132,132)"/>
<rect x="0" y="84" width="6" height="6" fill="rgb(79,79,79)"/>
<rect x="0" y="90" width="6" height="6" fill="rgb(181,181,181)"/>
<rect x="0" y="96" width="6" height="6" fill="rgb(183,183,183)"/>
<rect x="6" y="0" width="6" height="6" fill="rgb(174,174,174)"/>
<rect x="6" y="6" width="6" height="6" fill="rgb(228,228,228)"/>
<rect x="6" y="12" width="6" height="6" fill="rgb(183,183,183)"/>
<rect x="6" y="18" width="6" height="6" fill="rgb(134,134,134)"/>
<rect x="6" y="24" width="6" height="6" fill="rgb(55,55,55)"/>
<rect x="6" y="30" width="6" height="6" fill="rgb(45,45,45)"/>
<rect x="6" y="36" width="6" height="6" fill="rgb(58,58,58)"/>
<rect x="6" y="42" width="6" height="6" fill="rgb(79,79,79)"/>
<rect x="6" y="48" width="6" height="6" fill="rgb(122,122,122)"/>
<rect x="6" y="54" width="6" height="6" fill="rgb(232,232,232)"/>
<rect x="6" y="60" width="6" height="6" fill="rgb(220,220,220)"/>
<rect x="6" y="66" width="6" height="6" fill="rgb(173,173,173)"/>
<rect x="6" y="72" width="6" height="6" fill="rgb(122,122,122)"/>
<rect x="6" y="78" width="6" height="6" fill="rgb(80,80,80)"/>
<rect x="6" y="84" width="6" height="6" fill="rgb(65,65,65)"/>
<rect x="6" y="90" width="6" height="6" fill="rgb(169,169,169)"/>
<rect x="6" y="96" width="6" height="6" fill="rgb(166,166,166)"/>
<rect x="12" y="0" width="6" height="6" fill="rgb(252,252,252)"/>
<rect x="12" y="6" width="6" height="6" fill="rgb(241,241,241)"/>
<rect x="12" y="12" width="6" height="6" fill="rgb(218,218,218)"/>
<rect x="12" y="18" width="6" height="6" fill="rgb(173,173,173)"/>
<rect x="12" y="24" width="6" height="6" fill="rgb(111,111,111)"/>
<rect x="12" y="30" width="6" height="6" fill="rgb(91,91,91)"/>
<rect x="12" y="36" width="6" height="6" fill="rgb(109,109,109)"/>
<rect x="12" y="42" width="6" height="6" fill="rgb(156,156,156)"/>
<rect x="12" y="48" width="6" height="6" fill="rgb(175,175,175)"/>
<rect x="12" y="54" width="6" height="6" fill="rgb(224,224,224)"/>
<rect x="12" y="60" width="6" height="6" fill="rgb(252,252,252)"/>
<rect x="12" y="66" width="6" height="6" fill="rgb(218,218,218)"/>
<rect x="12" y="72" width="6" height="6" fill="rgb(133,133,133)"/>
<rect x="12" y="78" width="6" height="6" fill="rgb(132,132,132)"/>
<rect x="12" y="84" width="6" height="6" fill="rgb(114,114,114)"/>
<rect x="12" y="90" width="6" height="6" fill="rgb(75,75,75)"/>
<rect x="12" y="96" width="6" height="6" fill="rgb(130,130,130)"/>
<rect x="18" y="0" width="6" height="6" fill="rgb(199,199,199)"/>
<rect x="18" y="6" width="6" height="6" fill="rgb(154,154,154)"/>
<rect x="18" y="12" width="6" height="6" fill="rgb(163,163,163)"/>
<rect x="18" y="18" width="6" height="6" fill="rgb(223,223,223)"/>
<rect x="18" y="24" width="6" height="6" fill="rgb(226,226,226)"/>
<rect x="18" y="30" width="6" height="6" fill="rgb(197,197,197)"/>
<rect x="18" y="36" width="6" height="6" fill="rgb(246,246,246)"/>
<rect x="18" y="42" width="6" height="6" fill="rgb(228,228,228)"/>
<rect x="18" y="48" width="6" height="6" fill="rgb(220,220,220)"/>
<rect x="18" y="54" width="6" height="6" fill="rgb(245,245,245)"/>
<rect x="18" y="60" width="6" height="6" fill="rgb(198,198,198)"/>
<rect x="18" y="66" width="6" height="6" fill="rgb(204,204,204)"/>
<rect x="18" y="72" width="6" height="6" fill="rgb(197,197,197)"/>
<rect x="18" y="78" width="6" height="6" fill="rgb(139,139,139)"/>
<rect x="18" y="84" width="6" height="6" fill="rgb(78,78,78)"/>
<rect x="18" y="90" width="6" height="6" fill="rgb(117,117,117)"/>
<rect x="18" y="96" width="6" height="6" fill="rgb(98,98,98)"/>
<rect x="24" y="0" width="6" height="6" fill="rgb(207,207,207)"/>
<rect x="24" y="6" width="6" height="6" fill="rgb(219,219,219)"/>
<rect x="24" y="12" width="6" height="6" fill="rgb(192,192,192)"/>
<rect x="24" y="18" width="6" height="6" fill="rgb(113,113,113)"/>
<rect x="24" y="24" width="6" height="6" fill="rgb(211,211,211)"/>
<rect x="24" y="30" width="6" height="6" fill="rgb(166,166,166)"/>
<rect x="24" y="36" width="6" height="6" fill="rgb(207,207,207)"/>
<rect x="24" y="42" width="6" height="6" fill="rgb(192,192,192)"/>
<rect x="24" y="48" width="6" height="6" fill="rgb(191,191,191)"/>
<rect x="24" y="54" width="6" height="6" fill="rgb(163,163,163)"/>
<rect x="24" y="60" width="6" height="6" fill="rgb(245,245,245)"/>
<rect x="24" y="66" width="6" height="6" fill="rgb(200,200,200)"/>
<rect x="24" y="72" width="6" height="6" fill="rgb(189,189,189)"/>
<rect x="24" y="78" width="6" height="6" fill="rgb(172,172,172)"/>
<rect x="24" y="84" width="6" height="6" fill="rgb(96,96,96)"/>
<rect x="24" y="90" width="6" height="6" fill="rgb(123,123,123)"/>
<rect x="24" y="96" width="6" height="6" fill="rgb(83,83,83)"/>
<rect x="30" y="0" width="6" height="6" fill="rgb(71,71,71)"/>
<rect x="30" y="6" width="6" height="6" fill="rgb(152,152,152)"/>
<rect x="30" y="12" width="6" height="6" fill="rgb(104,104,104)"/>
<rect x="30" y="18" width="6" height="6" fill="rgb(95,95,95)"/>
<rect x="30" y="24" width="6" height="6" fill="rgb(109,109,109)"/>
<rect x="30" y="30" width="6" height="6" fill="rgb(143,143,143)"/>
<rect x="30" y="36" width="6" height="6" fill="rgb(137,137,137)"/>
<rect x="30" y="42" width="6" height="6" fill="rgb(181,181,181)"/>
<rect x="30" y="48" width="6" height="6" fill="rgb(202,202,202)"/>
<rect x="30" y="54" width="6" height="6" fill="rgb(218,218,218)"/>
<rect x="30" y="60" width="6" height="6" fill="rgb(225,225,225)"/>
<rect x="30" y="66" width="6" height="6" fill="rgb(253,253,253)"/>
<rect x="30" y="72" width="6" height="6" fill="rgb(214,214,214)"/>
<rect x="30" y="78" width="6" height="6" fill="rgb(229,229,229)"/>
<rect x="30" y="84" width="6" height="6" fill="rgb(165,165,165)"/>
<rect x="30" y="90" width="6" height="6" fill="rgb(125,125,125)"/>
<rect x="30" y="96" width="6" height="6" fill="rgb(133,133,133)"/>
<rect x="36" y="0" width="6" height="6" fill="rgb(11,11,11)"/>
<rect x="36" y="6" width="6" height="6" fill="rgb(119,119,119)"/>
<rect x="36" y="12" width="6" height="6" fill="rgb(53,53,53)"/>
<rect x="36" y="18" width="6" height="6" fill="rgb(59,59,59)"/>
<rect x="36" y="24" width="6" height="6" fill="rgb(58,58,58)"/>
<rect x="36" y="30" width="6" height="6" fill="rgb(90,90,90)"/>
<rect x="36" y="36" width="6" height="6" fill="rgb(241,241,241)"/>
<rect x="36" y="42" width="6" height="6" fill="rgb(227,227,227)"/>
<rect x="36" y="48" width="6" height="6" fill="rgb(193,193,193)"/>
<rect x="36" y="54" width="6" height="6" fill="rgb(192,192,192)"/>
<rect x="36" y="60" width="6" height="6" fill="rgb(243,243,243)"/>
<rect x="36" y="66" width="6" height="6" fill="rgb(235,235,235)"/>
<rect x="36" y="72" width="6" height="6" fill="rgb(160,160,160)"/>
<rect x="36" y="78" width="6" height="6" fill="rgb(184,184,184)"/>
<rect x="36" y="84" width="6" height="6" fill="rgb(149,149,149)"/>
<rect x="36" y="90" width="6" height="6" fill="rgb(68,68,68)"/>
<rect x="36" y="96" width="6" height="6" fill="rgb(147,147,147)"/>
<rect x="42" y="0" width="6" height="6" fill="rgb(57,57,57)"/>
<rect x="42" y="6" width="6" height="6" fill="rgb(64,64,64)"/>
<rect x="42" y="12" width="6" height="6" fill="rgb(19,19,19)"/>
<rect x="42" y="18" width="6" height="6" fill="rgb(0,0,0)"/>
<rect x="42" y="24" width="6" height="6" fill="rgb(124,124,124)"/>
<rect x="42" y="30" width="6" height="6" fill="rgb(183,183,183)"/>
<rect x="42" y="36" width="6" height="6" fill="rgb(222,222,222)"/>
<rect x="42" y="42" width="6" height="6" fill="rgb(184,184,184)"/>
<rect x="42" y="48" width="6" height="6" fill="rgb(156,156,156)"/>
<rect x="42" y="54" width="6" height="6" fill="rgb(208,208,208)"/>
<rect x="42" y="60" width="6" height="6" fill="rgb(252,252,252)"/>
<rect x="42" y="66" width="6" height="6" fill="rgb(159,159,159)"/>
<rect x="42" y="72" width="6" height="6" fill="rgb(97,97,97)"/>
<rect x="42" y="78" width="6" height="6" fill="rgb(127,127,127)"/>
<rect x="42" y="84" width="6" height="6" fill="rgb(103,103,103)"/>
<rect x="42" y="90" width="6" height="6" fill="rgb(72,72,72)"/>
<rect x="42" y="96" width="6" height="6" fill="rgb(85,85,85)"/>
<rect x="48" y="0" width="6" height="6" fill="rgb(53,53,53)"/>
<rect x="48" y="6" width="6" height="6" fill="rgb(87,87,87)"/>
<rect x="48" y="12" width="6" height="6" fill="rgb(12,12,12)"/>
<rect x="48" y="18" width="6" height="6" fill="rgb(150,150,150)"/>
<rect x="48" y="24" width="6" height="6" fill="rgb(150,150,150)"/>
<rect x="48" y="30" width="6" height="6" fill="rgb(254,254,254)"/>
<rect x="48" y="36" width="6" height="6" fill="rgb(195,195,195)"/>
<rect x="48" y="42" width="6" height="6" fill="rgb(237,237,237)"/>
<rect x="48" y="48" width="6" height="6" fill="rgb(242,242,242)"/>
<rect x="48" y="54" width="6" height="6" fill="rgb(252,252,252)"/>
<rect x="48" y="60" width="6" height="6" fill="rgb(224,224,224)"/>
<rect x="48" y="66" width="6" height="6" fill="rgb(134,134,134)"/>
<rect x="48" y="72" width="6" height="6" fill="rgb(209,209,209)"/>
<rect x="48" y="78" width="6" height="6" fill="rgb(90,90,90)"/>
<rect x="48" y="84" width="6" height="6" fill="rgb(76,76,76)"/>
<rect x="48" y="90" width="6" height="6" fill="rgb(26,26,26)"/>
<rect x="48" y="96" width="6" height="6" fill="rgb(48,48,48)"/>
<rect x="54" y="0" width="6" height="6" fill="rgb(7,7,7)"/>
<rect x="54" y="6" width="6" height="6" fill="rgb(89,89,89)"/>
<rect x="54" y="12" width="6" height="6" fill="rgb(29,29,29)"/>
<rect x="54" y="18" width="6" height="6" fill="rgb(142,142,142)"/>
<rect x="54" y="24" width="6" height="6" fill="rgb(206,206,206)"/>
<rect x="54" y="30" width="6" height="6" fill="rgb(254,254,254)"/>
<rect x="54" y="36" width="6" height="6" fill="rgb(252,252,252)"/>
<rect x="54" y="42" width="6" height="6" fill="rgb(218,218,218)"/>
<rect x="54" y="48" width="6" height="6" fill="rgb(238,238,238)"/>
<rect x="54" y="54" width="6" height="6" fill="rgb(245,245,245)"/>
<rect x="54" y="60" width="6" height="6" fill="rgb(193,193,193)"/>
<rect x="54" y="66" width="6" height="6" fill="rgb(172,172,172)"/>
<rect x="54" y="72" width="6" height="6" fill="rgb(171,171,171)"/>
<rect x="54" y="78" width="6" height="6" fill="rgb(242,242,242)"/>
<rect x="54" y="84" width="6" height="6" fill="rgb(248,248,248)"/>
<rect x="54" y="90" width="6" height="6" fill="rgb(157,157,157)"/>
<rect x="54" y="96" width="6" height="6" fill="rgb(129,129,129)"/>
<rect x="60" y="0" width="6" height="6" fill="rgb(68,68,68)"/>
<rect x="60" y="6" width="6" height="6" fill="rgb(82,82,82)"/>
<rect x="60" y="12" width="6" height="6" fill="rgb(71,71,71)"/>
<rect x="60" y="18" width="6" height="6" fill="rgb(115,115,115)"/>
<rect x="60" y="24" width="6" height="6" fill="rgb(191,191,191)"/>
<rect x="60" y="30" width="6" height="6" fill="rgb(245,245,245)"/>
<rect x="60" y="36" width="6" height="6" fill="rgb(208,208,208)"/>
<rect x="60" y="42" width="6" height="6" fill="rgb(236,236,236)"/>
<rect x="60" y="48" width="6" height="6" fill="rgb(233,233,233)"/>
<rect x="60" y="54" width="6" height="6" fill="rgb(227,227,227)"/>
<rect x="60" y="60" width="6" height="6" fill="rgb(179,179,179)"/>
<rect x="60" y="66" width="6" height="6" fill="rgb(255,255,255)"/>
<rect x="60" y="72" width="6" height="6" fill="rgb(210,210,210)"/>
<rect x="60" y="78" width="6" height="6" fill="rgb(199,199,199)"/>
<rect x="60" y="84" width="6" height="6" fill="rgb(224,224,224)"/>
<rect x="60" y="90" width="6" height="6" fill="rgb(238,238,238)"/>
<rect x="60" y="96" width="6" height="6" fill="rgb(115,115,115)"/>
<rect x="66" y="0" width="6" height="6" fill="rgb(85,85,85)"/>
<rect x="66" y="6" width="6" height="6" fill="rgb(178,178,178)"/>
<rect x="66" y="12" width="6" height="6" fill="rgb(217,217,217)"/>
<rect x="66" y="18" width="6" height="6" fill="rgb(226,226,226)"/>
<rect x="66" y="24" width="6" height="6" fill="rgb(191,191,191)"/>
<rect x="66" y="30" width="6" height="6" fill="rgb(204,204,204)"/>
<rect x="66" y="36" width="6" height="6" fill="rgb(171,171,171)"/>
<rect x="66" y="42" width="6" height="6" fill="rgb(197,197,197)"/>
<rect x="66" y="48" width="6" height="6" fill="rgb(228,228,228)"/>
<rect x="66" y="54" width="6" height="6" fill="rgb(217,217,217)"/>
<rect x="66" y="60" width="6" height="6" fill="rgb(153,153,153)"/>
<rect x="66" y="66" width="6" height="6" fill="rgb(252,252,252)"/>
<rect x="66" y="72" width="6" height="6" fill="rgb(146,146,146)"/>
<rect x="66" y="78" width="6" height="6" fill="rgb(164,164,164)"/>
<rect x="66" y="84" width="6" height="6" fill="rgb(245,245,245)"/>
<rect x="66" y="90" width="6" height="6" fill="rgb(176,176,176)"/>
<rect x="66" y="96" width="6" height="6" fill="rgb(241,241,241)"/>
<rect x="72" y="0" width="6" height="6" fill="rgb(194,194,194)"/>
<rect x="72" y="6" width="6" height="6" fill="rgb(224,224,224)"/>
<rect x="72" y="12" width="6" height="6" fill="rgb(253,253,253)"/>
<rect x="72" y="18" width="6" height="6" fill="rgb(244,244,244)"/>
<rect x="72" y="24" width="6" height="6" fill="rgb(173,173,173)"/>
<rect x="72" y="30" width="6" height="6" fill="rgb(167,167,167)"/>
<rect x="72" y="36" width="6" height="6" fill="rgb(239,239,239)"/>
<rect x="72" y="42" width="6" height="6" fill="rgb(232,232,232)"/>
<rect x="72" y="48" width="6" height="6" fill="rgb(187,187,187)"/>
<rect x="72" y="54" width="6" height="6" fill="rgb(254,254,254)"/>
<rect x="72" y="60" width="6" height="6" fill="rgb(164,164,164)"/>
<rect x="72" y="66" width="6" height="6" fill="rgb(185,185,185)"/>
<rect x="72" y="72" width="6" height="6" fill="rgb(138,138,138)"/>
<rect x="72" y="78" width="6" height="6" fill="rgb(142,142,142)"/>
<rect x="72" y="84" width="6" height="6" fill="rgb(212,212,212)"/>
<rect x="72" y="90" width="6" height="6" fill="rgb(215,215,215)"/>
<rect x="72" y="96" width="6" height="6" fill="rgb(195,195,195)"/>
<rect x="78" y="0" width="6" height="6" fill="rgb(114,114,114)"/>
<rect x="78" y="6" width="6" height="6" fill="rgb(140,140,140)"/>
<rect x="78" y="12" width="6" height="6" fill="rgb(226,226,226)"/>
<rect x="78" y="18" width="6" height="6" fill="rgb(217,217,217)"/>
<rect x="78" y="24" width="6" height="6" fill="rgb(203,203,203)"/>
<rect x="78" y="30" width="6" height="6" fill="rgb(195,195,195)"/>
<rect x="78" y="36" width="6" height="6" fill="rgb(252,252,252)"/>
<rect x="78" y="42" width="6" height="6" fill="rgb(245,245,245)"/>
<rect x="78" y="48" width="6" height="6" fill="rgb(217,217,217)"/>
<rect x="78" y="54" width="6" height="6" fill="rgb(195,195,195)"/>
<rect x="78" y="60" width="6" height="6" fill="rgb(199,199,199)"/>
<rect x="78" y="66" width="6" height="6" fill="rgb(77,77,77)"/>
<rect x="78" y="72" width="6" height="6" fill="rgb(71,71,71)"/>
<rect x="78" y="78" width="6" height="6" fill="rgb(96,96,96)"/>
<rect x="78" y="84" width="6" height="6" fill="rgb(79,79,79)"/>
<rect x="78" y="90" width="6" height="6" fill="rgb(204,204,204)"/>
<rect x="78" y="96" width="6" height="6" fill="rgb(169,169,169)"/>
<rect x="84" y="0" width="6" height="6" fill="rgb(106,106,106)"/>
<rect x="84" y="6" width="6" height="6" fill="rgb(207,207,207)"/>
<rect x="84" y="12" width="6" height="6" fill="rgb(224,224,224)"/>
<rect x="84" y="18" width="6" height="6" fill="rgb(213,213,213)"/>
<rect x="84" y="24" width="6" height="6" fill="rgb(246,246,246)"/>
<rect x="84" y="30" width="6" height="6" fill="rgb(216,216,216)"/>
<rect x="84" y="36" width="6" height="6" fill="rgb(178,178,178)"/>
<rect x="84" y="42" width="6" height="6" fill="rgb(247,247,247)"/>
<rect x="84" y="48" width="6" height="6" fill="rgb(109,109,109)"/>
<rect x="84" y="54" width="6" height="6" fill="rgb(197,197,197)"/>
<rect x="84" y="60" width="6" height="6" fill="rgb(82,82,82)"/>
<rect x="84" y="66" width="6" height="6" fill="rgb(66,66,66)"/>
<rect x="84" y="72" width="6" height="6" fill="rgb(89,89,89)"/>
<rect x="84" y="78" width="6" height="6" fill="rgb(65,65,65)"/>
<rect x="84" y="84" width="6" height="6" fill="rgb(97,97,97)"/>
<rect x="84" y="90" width="6" height="6" fill="rgb(202,202,202)"/>
<rect x="84" y="96" width="6" height="6" fill="rgb(173,173,173)"/>
<rect x="90" y="0" width="6" height="6" fill="rgb(137,137,137)"/>
<rect x="90" y="6" width="6" height="6" fill="rgb(94,94,94)"/>
<rect x="90" y="12" width="6" height="6" fill="rgb(99,99,99)"/>
<rect x="90" y="18" width="6" height="6" fill="rgb(192,192,192)"/>
<rect x="90" y="24" width="6" height="6" fill="rgb(204,204,204)"/>
<rect x="90" y="30" width="6" height="6" fill="rgb(234,234,234)"/>
<rect x="90" y="36" width="6" height="6" fill="rgb(198,198,198)"/>
<rect x="90" y="42" width="6" height="6" fill="rgb(207,207,207)"/>
<rect x="90" y="48" width="6" height="6" fill="rgb(242,242,242)"/>
<rect x="90" y="54" width="6" height="6" fill="rgb(108,108,108)"/>
<rect x="90" y="60" width="6" height="6" fill="rgb(93,93,93)"/>
<rect x="90" y="66" width="6" height="6" fill="rgb(180,180,180)"/>
<rect x="90" y="72" width="6" height="6" fill="rgb(84,84,84)"/>
<rect x="90" y="78" width="6" height="6" fill="rgb(83,83,83)"/>
<rect x="90" y="84" width="6" height="6" fill="rgb(121,121,121)"/>
<rect x="90" y="90" width="6" height="6" fill="rgb(128,128,128)"/>
<rect x="90" y="96" width="6" height="6" fill="rgb(113,113,113)"/>
<rect x="96" y="0" width="6" height="6" fill="rgb(183,183,183)"/>
<rect x="96" y="6" width="6" height="6" fill="rgb(134,134,134)"/>
<rect x="96" y="12" width="6" height="6" fill="rgb(68,68,68)"/>
<rect x="96" y="18" width="6" height="6" fill="rgb(95,95,95)"/>
<rect x="96" y="24" width="6" height="6" fill="rgb(147,147,147)"/>
<rect x="96" y="30" width="6" height="6" fill="rgb(198,198,198)"/>
<rect x="96" y="36" width="6" height="6" fill="rgb(128,128,128)"/>
<rect x="96" y="42" width="6" height="6" fill="rgb(159,159,159)"/>
<rect x="96" y="48" width="6" height="6" fill="rgb(149,149,149)"/>
<rect x="96" y="54" width="6" height="6" fill="rgb(182,182,182)"/>
<rect x="96" y="60" width="6" height="6" fill="rgb(177,177,177)"/>
<rect x="96" y="66" width="6" height="6" fill="rgb(155,155,155)"/>
<rect x="96" y="72" width="6" height="6" fill="rgb(106,106,106)"/>
<rect x="96" y="78" width="6" height="6" fill="rgb(163,163,163)"/>
<rect x="96" y="84" width="6" height="6" fill="rgb(250,250,250)"/>
<rect x="96" y="90" width="6" height="6" fill="rgb(172,172,172)"/>
<rect x="96" y="96" width="6" height="6" fill="rgba(255,255,255,0)"/>
</g>
</svg>