<svg xmlns="http://www.w3.org/2000/svg" width="100" height="105" viewBox="0 0 100 105">
<rect x="0" y="0" width="5" height="5" fill="rgb(170,170,170)"/>
<rect x="5" y="0" width="5" height="5" fill="rgb(85,85,85)"/>
<rect x="5" y="5" width="5" height="5" fill="rgb(170,170,170)"/>
<rect x="10" y="5" width="5" height="5" fill="rgb(85,85,85)"/>
<rect x="10" y="10" width="5" height="5" fill="rgb(170,170,170)"/>
<rect x="15" y="0" width="5" height="5" fill="rgb(85,85,85)"/>
<rect x="15" y="5" width="5" height="5" fill="rgb(85,85,85)"/>
<rect x="15" y="15" width="5" height="5" fill="rgb(0,0,0)"/>
<rect x="20" y="0" width="5" height="5" fill="rgb(85,85,85)"/>
<rect x="20" y="10" width="5" height="5" fill="rgb(85,85,85)"/>
<rect x="20" y="15" width="5" height="5" fill="rgb(85,85,85)"/>
<rect x="20" y="20" width="5" height="5" fill="rgb(0,0,0)"/>
<rect x="25" y="5" width="5" height="5" fill="rgb(85,85,85)"/>
<rect x="25" y="10" width="5" height="5" fill="rgb(85,85,85)"/>
<rect x="25" y="20" width="5" height="5" fill="rgb(85,85,85)"/>
<rect x="25" y="25" width="5" height="5" fill="rgb(0,0,0)"/>
<rect x="30" y="10" width="5" height="5" fill="rgb(85,85,85)"/>
<rect x="30" y="25" width="5" height="5" fill="rgb(85,85,85)"/>
<rect x="30" y="30" width="5" height="5" fill="rgb(0,0,0)"/>
<rect x="35" y="0" width="5" height="5" fill="rgb(85,85,85)"/>
<rect x="35" y="5" width="5" height="5" fill="rgb(85,85,85)"/>
<rect x="35" y="10" width="5" height="5" fill="rgb(85,85,85)"/>
<rect x="35" y="30" width="5" height="5" fill="rgb(85,85,85)"/>
<rect x="35" y="35" width="5" height="5" fill="rgb(0,0,0)"/>
<rect x="40" y="0" width="5" height="5" fill="rgb(85,85,85)"/>
<rect x="40" y="10" width="5" height="5" fill="rgb(85,85,85)"/>
<rect x="40" y="35" width="5" height="5" fill="rgb(85,85,85)"/>
<rect x="40" y="40" width="5" height="5" fill="rgb(0,0,0)"/>
<rect x="45" y="5" width="5" height="5" fill="rgb(85,85,85)"/>
<rect x="45" y="10" width="5" height="5" fill="rgb(85,85,85)"/>
<rect x="45" y="40" width="5" height="5" fill="rgb(85,85,85)"/>
<rect x="45" y="45" width="5" height="5" fill="rgb(0,0,0)"/>
<rect x="50" y="0" width="5" height="5" fill="rgb(85,85,85)"/>
<rect x="50" y="5" width="5" height="5" fill="rgb(85,85,85)"/>
<rect x="50" y="15" width="5" height="5" fill="rgb(85,85,85)"/>
<rect x="50" y="20" width="5" height="5" fill="rgb(85,85,85)"/>
<rect x="50" y="25" width="5" height="5" fill="rgb(85,85,85)"/>
<rect x="50" y="30" width="5" height="5" fill="rgb(85,85,85)"/>
<rect x="50" y="35" width="5" height="5" fill="rgb(85,85,85)"/>
<rect x="50" y="40" width="5" height="5" fill="rgb(85,85,85)"/>
<rect x="50" y="50" width="5" height="5" fill="rgb(170,170,170)"/>
<rect x="55" y="5" width="5" height="5" fill="rgb(85,85,85)"/>
<rect x="55" y="20" width="5" height="5" fill="rgb(85,85,85)"/>
<rect x="55" y="30" width="5" height="5" fill="rgb(85,85,85)"/>
<rect x="55" y="40" width="5" height="5" fill="rgb(85,85,85)"/>
<rect x="55" y="55" width="5" height="5" fill="rgb(0,0,0)"/>
<rect x="60" y="10" width="5" height="5" fill="rgb(85,85,85)"/>
<rect x="60" y="15" width="5" height="5" fill="rgb(85,85,85)"/>
<rect x="60" y="20" width="5" height="5" fill="rgb(85,85,85)"/>
<rect x="60" y="35" width="5" height="5" fill="rgb(85,85,85)"/>
<rect x="60" y="40" width="5" height="5" fill="rgb(85,85,85)"/>
<rect x="60" y="60" width="5" height="5" fill="rgb(170,170,170)"/>
<rect x="65" y="0" width="5" height="5" fill="rgb(85,85,85)"/>
<rect x="65" y="5" width="5" height="5" fill="rgb(85,85,85)"/>
<rect x="65" y="10" width="5" height="5" fill="rgb(85,85,85)"/>
<rect x="65" y="20" width="5" height="5" fill="rgb(85,85,85)"/>
<rect x="65" y="40" width="5" height="5" fill="rgb(85,85,85)"/>
<rect x="65" y="65" width="5" height="5" fill="rgb(0,0,0)"/>
<rect x="70" y="0" width="5" height="5" fill="rgb(85,85,85)"/>
<rect x="70" y="10" width="5" height="5" fill="rgb(85,85,85)"/>
<rect x="70" y="25" width="5" height="5" fill="rgb(85,85,85)"/>
<rect x="70" y="30" width="5" height="5" fill="rgb(85,85,85)"/>
<rect x="70" y="35" width="5" height="5" fill="rgb(85,85,85)"/>
<rect x="70" y="40" width="5" height="5" fill="rgb(85,85,85)"/>
<rect x="70" y="70" width="5" height="5" fill="rgb(170,170,170)"/>
<rect x="75" y="5" width="5" height="5" fill="rgb(85,85,85)"/>
<rect x="75" y="10" width="5" height="5" fill="rgb(85,85,85)"/>
<rect x="75" y="30" width="5" height="5" fill="rgb(85,85,85)"/>
<rect x="75" y="40" width="5" height="5" fill="rgb(85,85,85)"/>
<rect x="75" y="75" width="5" height="5" fill="rgb(0,0,0)"/>
<rect x="80" y="0" width="5" height="5" fill="rgb(85,85,85)"/>
<rect x="80" y="5" width="5" height="5" fill="rgb(85,85,85)"/>
<rect x="80" y="15" width="5" height="5" fill="rgb(85,85,85)"/>
<rect x="80" y="20" width="5" height="5" fill="rgb(85,85,85)"/>
<rect x="80" y="25" width="5" height="5" fill="rgb(85,85,85)"/>
<rect x="80" y="30" width="5" height="5" fill="rgb(85,85,85)"/>
<rect x="80" y="45" width="5" height="5" fill="rgb(85,85,85)"/>
<rect x="80" y="50" width="5" height="5" fill="rgb(85,85,85)"/>
<rect x="80" y="55" width="5" height="5" fill="rgb(85,85,85)"/>
<rect x="80" y="60" width="5" height="5" fill="rgb(85,85,85)"/>
<rect x="80" y="65" width="5" height="5" fill="rgb(85,85,85)"/>
<rect x="80" y="70" width="5" height="5" fill="rgb(85,85,85)"/>
<rect x="80" y="75" width="5" height="5" fill="rgb(85,85,85)"/>
<rect x="80" y="80" width="5" height="5" fill="rgb(0,0,0)"/>
<rect x="85" y="5" width="5" height="5" fill="rgb(85,85,85)"/>
<rect x="85" y="20" width="5" height="5" fill="rgb(85,85,85)"/>
<rect x="85" y="30" width="5" height="5" fill="rgb(85,85,85)"/>
<rect x="85" y="50" width="5" height="5" fill="rgb(85,85,85)"/>
<rect x="85" y="60" width="5" height="5" fill="rgb(85,85,85)"/>
<rect x="85" y="70" width="5" height="5" fill="rgb(85,85,85)"/>
<rect x="85" y="80" width="5" height="5" fill="rgb(85,85,85)"/>
<rect x="85" y="85" width="5" height="5" fill="rgb(0,0,0)"/>
<rect x="90" y="0" width="5" height="5" fill="rgb(85,85,85)"/>
<rect x="90" y="5" width="5" height="5" fill="rgb(85,85,85)"/>
<rect x="90" y="25" width="5" height="5" fill="rgb(85,85,85)"/>
<rect x="90" y="30" width="5" height="5" fill="rgb(85,85,85)"/>
<rect x="90" y="55" width="5" height="5" fill="rgb(85,85,85)"/>
<rect x="90" y="60" width="5" height="5" fill="rgb(85,85,85)"/>
<rect x="90" y="75" width="5" height="5" fill="rgb(85,85,85)"/>
<rect x="90" y="80" width="5" height="5" fill="rgb(85,85,85)"/>
<rect x="90" y="90" width="5" height="5" fill="rgb(170,170,170)"/>
<rect x="95" y="0" width="5" height="5" fill="rgb(85,85,85)"/>
<rect x="95" y="10" width="5" height="5" fill="rgb(85,85,85)"/>
<rect x="95" y="15" width="5" height="5" fill="rgb(85,85,85)"/>
<rect x="95" y="20" width="5" height="5" fill="rgb(85,85,85)"/>
<rect x="95" y="25" width="5" height="5" fill="rgb(85,85,85)"/>
<rect x="95" y="35" width="5" height="5" fill="rgb(85,85,85)"/>
<rect x="95" y="40" width="5" height="5" fill="rgb(85,85,85)"/>
<rect x="95" y="45" width="5" height="5" fill="rgb(85,85,85)"/>
<rect x="95" y="50" width="5" height="5" fill="rgb(85,85,85)"/>
<rect x="95" y="55" width="5" height="5" fill="rgb(85,85,85)"/>
<rect x="95" y="65" width="5" height="5" fill="rgb(85,85,85)"/>
<rect x="95" y="70" width="5" height="5" fill="rgb(85,85,85)"/>
<rect x="95" y="75" width="5" height="5" fill="rgb(85,85,85)"/>
<rect x="95" y="85" width="5" height="5" fill="rgb(85,85,85)"/>
<rect x="95" y="90" width="5" height="5" fill="rgb(85,85,85)"/>
<rect x="95" y="95" width="5" height="5" fill="rgb(170,170,170)"/>
</svg>