<svg xmlns="http://www.w3.org/2000/svg" width="161.8" height="100.0" viewBox="-4.36 -5.00 171.80 110.00">
<g fill="none" stroke="black" stroke-width="0.0450%" transform="translate(0, 100.0000) scale(11.1111, -11.1111)">
<circle cx="0.06" cy="0.00" r="0.04" />
<circle cx="0.12" cy="0.00" r="0.04" />
<circle cx="0.17" cy="0.00" r="0.04" />
<circle cx="0.23" cy="0.00" r="0.04" />
<circle cx="0.29" cy="1.00" r="0.04" />
<circle cx="0.35" cy="0.00" r="0.04" />
<circle cx="0.40" cy="0.00" r="0.04" />
<circle cx="0.46" cy="2.00" r="0.04" />
<circle cx="0.52" cy="2.00" r="0.04" />
<circle cx="0.58" cy="0.00" r="0.04" />
<circle cx="0.64" cy="0.00" r="0.04" />
<circle cx="0.69" cy="3.00" r="0.04" />
<circle cx="0.75" cy="4.00" r="0.04" />
<circle cx="0.81" cy="3.00" r="0.04" />
<circle cx="0.87" cy="0.00" r="0.04" />
<circle cx="0.92" cy="0.00" r="0.04" />
<circle cx="0.98" cy="4.00" r="0.04" />
<circle cx="1.04" cy="6.00" r="0.04" />
<circle cx="1.10" cy="6.00" r="0.04" />
<circle cx="1.16" cy="4.00" r="0.04" />
<circle cx="1.21" cy="0.00" r="0.04" />
<circle cx="1.27" cy="0.00" r="0.04" />
<circle cx="1.33" cy="5.00" r="0.04" />
<circle cx="1.39" cy="8.00" r="0.04" />
<circle cx="1.44" cy="9.00" r="0.04" />
<circle cx="1.50" cy="8.00" r="0.04" />
<circle cx="1.56" cy="5.00" r="0.04" />
<circle cx="1.62" cy="0.00" r="0.04" />
<circle cx="1.68" cy="0.00" r="0.04" />
<circle cx="1.73" cy="6.00" r="0.04" />
<circle cx="1.79" cy="1.00" r="0.04" />
<circle cx="1.85" cy="3.00" r="0.04" />
<circle cx="1.91" cy="3.00" r="0.04" />
<circle cx="1.96" cy="1.00" r="0.04" />
<circle cx="2.02" cy="6.00" r="0.04" />
<circle cx="2.08" cy="0.00" r="0.04" />
<circle cx="2.14" cy="0.00" r="0.04" />
<circle cx="2.20" cy="7.00" r="0.04" />
<circle cx="2.25" cy="3.00" r="0.04" />
<circle cx="2.31" cy="6.00" r="0.04" />
<circle cx="2.37" cy="7.00" r="0.04" />
<circle cx="2.43" cy="6.00" r="0.04" />
<circle cx="2.48" cy="3.00" r="0.04" />
<circle cx="2.54" cy="7.00" r="0.04" />
<circle cx="2.60" cy="0.00" r="0.04" />
<circle cx="2.66" cy="0.00" r="0.04" />
<circle cx="2.72" cy="8.00" r="0.04" />
<circle cx="2.77" cy="5.00" r="0.04" />
<circle cx="2.83" cy="9.00" r="0.04" />
<circle cx="2.89" cy="2.00" r="0.04" />
<circle cx="2.95" cy="2.00" r="0.04" />
<circle cx="3.00" cy="9.00" r="0.04" />
<circle cx="3.06" cy="5.00" r="0.04" />
<circle cx="3.12" cy="8.00" r="0.04" />
<circle cx="3.18" cy="0.00" r="0.04" />
<circle cx="3.24" cy="0.00" r="0.04" />
<circle cx="3.29" cy="9.00" r="0.04" />
<circle cx="3.35" cy="7.00" r="0.04" />
<circle cx="3.41" cy="3.00" r="0.04" />
<circle cx="3.47" cy="6.00" r="0.04" />
<circle cx="3.53" cy="7.00" r="0.04" />
<circle cx="3.58" cy="6.00" r="0.04" />
<circle cx="3.64" cy="3.00" r="0.04" />
<circle cx="3.70" cy="7.00" r="0.04" />
<circle cx="3.76" cy="9.00" r="0.04" />
<circle cx="3.81" cy="0.00" r="0.04" />
<circle cx="3.87" cy="0.00" r="0.04" />
<circle cx="3.93" cy="1.00" r="0.04" />
<circle cx="3.99" cy="9.00" r="0.04" />
<circle cx="4.05" cy="6.00" r="0.04" />
<circle cx="4.10" cy="1.00" r="0.04" />
<circle cx="4.16" cy="3.00" r="0.04" />
<circle cx="4.22" cy="3.00" r="0.04" />
<circle cx="4.28" cy="1.00" r="0.04" />
<circle cx="4.33" cy="6.00" r="0.04" />
<circle cx="4.39" cy="9.00" r="0.04" />
<circle cx="4.45" cy="1.00" r="0.04" />
<circle cx="4.51" cy="0.00" r="0.04" />
<circle cx="4.57" cy="0.00" r="0.04" />
<circle cx="4.62" cy="2.00" r="0.04" />
<circle cx="4.68" cy="2.00" r="0.04" />
<circle cx="4.74" cy="9.00" r="0.04" />
<circle cx="4.80" cy="5.00" r="0.04" />
<circle cx="4.85" cy="8.00" r="0.04" />
<circle cx="4.91" cy="9.00" r="0.04" />
<circle cx="4.97" cy="8.00" r="0.04" />
<circle cx="5.03" cy="5.00" r="0.04" />
<circle cx="5.09" cy="9.00" r="0.04" />
<circle cx="5.14" cy="2.00" r="0.04" />
<circle cx="5.20" cy="2.00" r="0.04" />
<circle cx="5.26" cy="0.00" r="0.04" />
<circle cx="5.32" cy="0.00" r="0.04" />
<circle cx="5.37" cy="3.00" r="0.04" />
<circle cx="5.43" cy="4.00" r="0.04" />
<circle cx="5.49" cy="3.00" r="0.04" />
<circle cx="5.55" cy="9.00" r="0.04" />
<circle cx="5.61" cy="4.00" r="0.04" />
<circle cx="5.66" cy="6.00" r="0.04" />
<circle cx="5.72" cy="6.00" r="0.04" />
<circle cx="5.78" cy="4.00" r="0.04" />
<circle cx="5.84" cy="9.00" r="0.04" />
<circle cx="5.89" cy="3.00" r="0.04" />
<circle cx="5.95" cy="4.00" r="0.04" />
<circle cx="6.01" cy="3.00" r="0.04" />
<circle cx="6.07" cy="0.00" r="0.04" />
<circle cx="6.13" cy="0.00" r="0.04" />
<circle cx="6.18" cy="4.00" r="0.04" />
<circle cx="6.24" cy="6.00" r="0.04" />
<circle cx="6.30" cy="6.00" r="0.04" />
<circle cx="6.36" cy="4.00" r="0.04" />
<circle cx="6.41" cy="9.00" r="0.04" />
<circle cx="6.47" cy="3.00" r="0.04" />
<circle cx="6.53" cy="4.00" r="0.04" />
<circle cx="6.59" cy="3.00" r="0.04" />
<circle cx="6.65" cy="9.00" r="0.04" />
<circle cx="6.70" cy="4.00" r="0.04" />
<circle cx="6.76" cy="6.00" r="0.04" />
<circle cx="6.82" cy="6.00" r="0.04" />
<circle cx="6.88" cy="4.00" r="0.04" />
<circle cx="6.93" cy="0.00" r="0.04" />
<circle cx="6.99" cy="0.00" r="0.04" />
<circle cx="7.05" cy="5.00" r="0.04" />
<circle cx="7.11" cy="8.00" r="0.04" />
<circle cx="7.17" cy="9.00" r="0.04" />
<circle cx="7.22" cy="8.00" r="0.04" />
<circle cx="7.28" cy="5.00" r="0.04" />
<circle cx="7.34" cy="9.00" r="0.04" />
<circle cx="7.40" cy="2.00" r="0.04" />
<circle cx="7.45" cy="2.00" r="0.04" />
<circle cx="7.51" cy="9.00" r="0.04" />
<circle cx="7.57" cy="5.00" r="0.04" />
<circle cx="7.63" cy="8.00" r="0.04" />
<circle cx="7.69" cy="9.00" r="0.04" />
<circle cx="7.74" cy="8.00" r="0.04" />
<circle cx="7.80" cy="5.00" r="0.04" />
<circle cx="7.86" cy="0.00" r="0.04" />
<circle cx="7.92" cy="0.00" r="0.04" />
<circle cx="7.97" cy="6.00" r="0.04" />
<circle cx="8.03" cy="1.00" r="0.04" />
<circle cx="8.09" cy="3.00" r="0.04" />
<circle cx="8.15" cy="3.00" r="0.04" />
<circle cx="8.21" cy="1.00" r="0.04" />
<circle cx="8.26" cy="6.00" r="0.04" />
<circle cx="8.32" cy="9.00" r="0.04" />
<circle cx="8.38" cy="1.00" r="0.04" />
<circle cx="8.44" cy="9.00" r="0.04" />
<circle cx="8.49" cy="6.00" r="0.04" />
<circle cx="8.55" cy="1.00" r="0.04" />
<circle cx="8.61" cy="3.00" r="0.04" />
<circle cx="8.67" cy="3.00" r="0.04" />
<circle cx="8.73" cy="1.00" r="0.04" />
<circle cx="8.78" cy="6.00" r="0.04" />
<circle cx="8.84" cy="0.00" r="0.04" />
<circle cx="8.90" cy="0.00" r="0.04" />
<circle cx="8.96" cy="7.00" r="0.04" />
<circle cx="9.01" cy="3.00" r="0.04" />
<circle cx="9.07" cy="6.00" r="0.04" />
<circle cx="9.13" cy="7.00" r="0.04" />
<circle cx="9.19" cy="6.00" r="0.04" />
<circle cx="9.25" cy="3.00" r="0.04" />
<circle cx="9.30" cy="7.00" r="0.04" />
<circle cx="9.36" cy="9.00" r="0.04" />
<circle cx="9.42" cy="9.00" r="0.04" />
<circle cx="9.48" cy="7.00" r="0.04" />
<circle cx="9.53" cy="3.00" r="0.04" />
<circle cx="9.59" cy="6.00" r="0.04" />
<circle cx="9.65" cy="7.00" r="0.04" />
<circle cx="9.71" cy="6.00" r="0.04" />
<circle cx="9.77" cy="3.00" r="0.04" />
<circle cx="9.82" cy="7.00" r="0.04" />
<circle cx="9.88" cy="0.00" r="0.04" />
<circle cx="9.94" cy="0.00" r="0.04" />
<circle cx="10.00" cy="8.00" r="0.04" />
<circle cx="10.05" cy="5.00" r="0.04" />
<circle cx="10.11" cy="9.00" r="0.04" />
<circle cx="10.17" cy="2.00" r="0.04" />
<circle cx="10.23" cy="2.00" r="0.04" />
<circle cx="10.29" cy="9.00" r="0.04" />
<circle cx="10.34" cy="5.00" r="0.04" />
<circle cx="10.40" cy="8.00" r="0.04" />
<circle cx="10.46" cy="9.00" r="0.04" />
<circle cx="10.52" cy="8.00" r="0.04" />
<circle cx="10.58" cy="5.00" r="0.04" />
<circle cx="10.63" cy="9.00" r="0.04" />
<circle cx="10.69" cy="2.00" r="0.04" />
<circle cx="10.75" cy="2.00" r="0.04" />
<circle cx="10.81" cy="9.00" r="0.04" />
<circle cx="10.86" cy="5.00" r="0.04" />
<circle cx="10.92" cy="8.00" r="0.04" />
<circle cx="10.98" cy="0.00" r="0.04" />
<circle cx="11.04" cy="0.00" r="0.04" />
<circle cx="11.10" cy="9.00" r="0.04" />
<circle cx="11.15" cy="7.00" r="0.04" />
<circle cx="11.21" cy="3.00" r="0.04" />
<circle cx="11.27" cy="6.00" r="0.04" />
<circle cx="11.33" cy="7.00" r="0.04" />
<circle cx="11.38" cy="6.00" r="0.04" />
<circle cx="11.44" cy="3.00" r="0.04" />
<circle cx="11.50" cy="7.00" r="0.04" />
<circle cx="11.56" cy="9.00" r="0.04" />
<circle cx="11.62" cy="9.00" r="0.04" />
<circle cx="11.67" cy="7.00" r="0.04" />
<circle cx="11.73" cy="3.00" r="0.04" />
<circle cx="11.79" cy="6.00" r="0.04" />
<circle cx="11.85" cy="7.00" r="0.04" />
<circle cx="11.90" cy="6.00" r="0.04" />
<circle cx="11.96" cy="3.00" r="0.04" />
<circle cx="12.02" cy="7.00" r="0.04" />
<circle cx="12.08" cy="9.00" r="0.04" />
<circle cx="12.14" cy="0.00" r="0.04" />
<circle cx="12.19" cy="0.00" r="0.04" />
<circle cx="12.25" cy="1.00" r="0.04" />
<circle cx="12.31" cy="9.00" r="0.04" />
<circle cx="12.37" cy="6.00" r="0.04" />
<circle cx="12.42" cy="1.00" r="0.04" />
<circle cx="12.48" cy="3.00" r="0.04" />
<circle cx="12.54" cy="3.00" r="0.04" />
<circle cx="12.60" cy="1.00" r="0.04" />
<circle cx="12.66" cy="6.00" r="0.04" />
<circle cx="12.71" cy="9.00" r="0.04" />
<circle cx="12.77" cy="1.00" r="0.04" />
<circle cx="12.83" cy="9.00" r="0.04" />
<circle cx="12.89" cy="6.00" r="0.04" />
<circle cx="12.94" cy="1.00" r="0.04" />
<circle cx="13.00" cy="3.00" r="0.04" />
<circle cx="13.06" cy="3.00" r="0.04" />
<circle cx="13.12" cy="1.00" r="0.04" />
<circle cx="13.18" cy="6.00" r="0.04" />
<circle cx="13.23" cy="9.00" r="0.04" />
<circle cx="13.29" cy="1.00" r="0.04" />
<circle cx="13.35" cy="0.00" r="0.04" />
<circle cx="13.41" cy="0.00" r="0.04" />
<circle cx="13.46" cy="2.00" r="0.04" />
<circle cx="13.52" cy="2.00" r="0.04" />
<circle cx="13.58" cy="9.00" r="0.04" />
<circle cx="13.64" cy="5.00" r="0.04" />
<circle cx="13.70" cy="8.00" r="0.04" />
<circle cx="13.75" cy="9.00" r="0.04" />
<circle cx="13.81" cy="8.00" r="0.04" />
<circle cx="13.87" cy="5.00" r="0.04" />
<circle cx="13.93" cy="9.00" r="0.04" />
<circle cx="13.98" cy="2.00" r="0.04" />
<circle cx="14.04" cy="2.00" r="0.04" />
<circle cx="14.10" cy="9.00" r="0.04" />
<circle cx="14.16" cy="5.00" r="0.04" />
<circle cx="14.22" cy="8.00" r="0.04" />
<circle cx="14.27" cy="9.00" r="0.04" />
<circle cx="14.33" cy="8.00" r="0.04" />
<circle cx="14.39" cy="5.00" r="0.04" />
<circle cx="14.45" cy="9.00" r="0.04" />
<circle cx="14.50" cy="2.00" r="0.04" />
<circle cx="14.56" cy="2.00" r="0.04" />
<circle cx="14.62" cy="0.00" r="0.04" />
</g>
</svg>