<svg xmlns="http://www.w3.org/2000/svg" width="161.8" height="100.0" viewBox="-4.05 -5.00 171.80 110.00">
<g fill="none" stroke="black" stroke-width="0.0650%" transform="translate(0, 100.0000) scale(7.6923, -7.6923)">
<circle cx="0.12" cy="0.00" r="0.07" />
<circle cx="0.25" cy="0.00" r="0.07" />
<circle cx="0.37" cy="0.00" r="0.07" />
<circle cx="0.49" cy="0.00" r="0.07" />
<circle cx="0.62" cy="1.00" r="0.07" />
<circle cx="0.74" cy="0.00" r="0.07" />
<circle cx="0.87" cy="0.00" r="0.07" />
<circle cx="0.99" cy="2.00" r="0.07" />
<circle cx="1.11" cy="2.00" r="0.07" />
<circle cx="1.24" cy="0.00" r="0.07" />
<circle cx="1.36" cy="0.00" r="0.07" />
<circle cx="1.48" cy="3.00" r="0.07" />
<circle cx="1.61" cy="4.00" r="0.07" />
<circle cx="1.73" cy="3.00" r="0.07" />
<circle cx="1.86" cy="0.00" r="0.07" />
<circle cx="1.98" cy="0.00" r="0.07" />
<circle cx="2.10" cy="4.00" r="0.07" />
<circle cx="2.23" cy="6.00" r="0.07" />
<circle cx="2.35" cy="6.00" r="0.07" />
<circle cx="2.47" cy="4.00" r="0.07" />
<circle cx="2.60" cy="0.00" r="0.07" />
<circle cx="2.72" cy="0.00" r="0.07" />
<circle cx="2.85" cy="5.00" r="0.07" />
<circle cx="2.97" cy="8.00" r="0.07" />
<circle cx="3.09" cy="9.00" r="0.07" />
<circle cx="3.22" cy="8.00" r="0.07" />
<circle cx="3.34" cy="5.00" r="0.07" />
<circle cx="3.46" cy="0.00" r="0.07" />
<circle cx="3.59" cy="0.00" r="0.07" />
<circle cx="3.71" cy="6.00" r="0.07" />
<circle cx="3.84" cy="1.00" r="0.07" />
<circle cx="3.96" cy="3.00" r="0.07" />
<circle cx="4.08" cy="3.00" r="0.07" />
<circle cx="4.21" cy="1.00" r="0.07" />
<circle cx="4.33" cy="6.00" r="0.07" />
<circle cx="4.45" cy="0.00" r="0.07" />
<circle cx="4.58" cy="0.00" r="0.07" />
<circle cx="4.70" cy="7.00" r="0.07" />
<circle cx="4.83" cy="3.00" r="0.07" />
<circle cx="4.95" cy="6.00" r="0.07" />
<circle cx="5.07" cy="7.00" r="0.07" />
<circle cx="5.20" cy="6.00" r="0.07" />
<circle cx="5.32" cy="3.00" r="0.07" />
<circle cx="5.44" cy="7.00" r="0.07" />
<circle cx="5.57" cy="0.00" r="0.07" />
<circle cx="5.69" cy="0.00" r="0.07" />
<circle cx="5.82" cy="8.00" r="0.07" />
<circle cx="5.94" cy="5.00" r="0.07" />
<circle cx="6.06" cy="9.00" r="0.07" />
<circle cx="6.19" cy="2.00" r="0.07" />
<circle cx="6.31" cy="2.00" r="0.07" />
<circle cx="6.43" cy="9.00" r="0.07" />
<circle cx="6.56" cy="5.00" r="0.07" />
<circle cx="6.68" cy="8.00" r="0.07" />
<circle cx="6.81" cy="0.00" r="0.07" />
<circle cx="6.93" cy="0.00" r="0.07" />
<circle cx="7.05" cy="9.00" r="0.07" />
<circle cx="7.18" cy="7.00" r="0.07" />
<circle cx="7.30" cy="3.00" r="0.07" />
<circle cx="7.42" cy="6.00" r="0.07" />
<circle cx="7.55" cy="7.00" r="0.07" />
<circle cx="7.67" cy="6.00" r="0.07" />
<circle cx="7.80" cy="3.00" r="0.07" />
<circle cx="7.92" cy="7.00" r="0.07" />
<circle cx="8.04" cy="9.00" r="0.07" />
<circle cx="8.17" cy="0.00" r="0.07" />
<circle cx="8.29" cy="0.00" r="0.07" />
<circle cx="8.41" cy="1.00" r="0.07" />
<circle cx="8.54" cy="9.00" r="0.07" />
<circle cx="8.66" cy="6.00" r="0.07" />
<circle cx="8.78" cy="10.00" r="0.07" />
<circle cx="8.91" cy="3.00" r="0.07" />
<circle cx="9.03" cy="3.00" r="0.07" />
<circle cx="9.16" cy="10.00" r="0.07" />
<circle cx="9.28" cy="6.00" r="0.07" />
<circle cx="9.40" cy="9.00" r="0.07" />
<circle cx="9.53" cy="1.00" r="0.07" />
<circle cx="9.65" cy="0.00" r="0.07" />
<circle cx="9.77" cy="0.00" r="0.07" />
<circle cx="9.90" cy="2.00" r="0.07" />
<circle cx="10.02" cy="2.00" r="0.07" />
<circle cx="10.15" cy="9.00" r="0.07" />
<circle cx="10.27" cy="5.00" r="0.07" />
<circle cx="10.39" cy="8.00" r="0.07" />
<circle cx="10.52" cy="9.00" r="0.07" />
<circle cx="10.64" cy="8.00" r="0.07" />
<circle cx="10.76" cy="5.00" r="0.07" />
<circle cx="10.89" cy="9.00" r="0.07" />
<circle cx="11.01" cy="2.00" r="0.07" />
<circle cx="11.14" cy="2.00" r="0.07" />
<circle cx="11.26" cy="0.00" r="0.07" />
<circle cx="11.38" cy="0.00" r="0.07" />
<circle cx="11.51" cy="3.00" r="0.07" />
<circle cx="11.63" cy="4.00" r="0.07" />
<circle cx="11.75" cy="3.00" r="0.07" />
<circle cx="11.88" cy="9.00" r="0.07" />
<circle cx="12.00" cy="4.00" r="0.07" />
<circle cx="12.13" cy="6.00" r="0.07" />
<circle cx="12.25" cy="6.00" r="0.07" />
<circle cx="12.37" cy="4.00" r="0.07" />
<circle cx="12.50" cy="9.00" r="0.07" />
<circle cx="12.62" cy="3.00" r="0.07" />
<circle cx="12.74" cy="4.00" r="0.07" />
<circle cx="12.87" cy="3.00" r="0.07" />
<circle cx="12.99" cy="0.00" r="0.07" />
<circle cx="13.12" cy="0.00" r="0.07" />
<circle cx="13.24" cy="4.00" r="0.07" />
<circle cx="13.36" cy="6.00" r="0.07" />
<circle cx="13.49" cy="6.00" r="0.07" />
<circle cx="13.61" cy="4.00" r="0.07" />
<circle cx="13.73" cy="9.00" r="0.07" />
<circle cx="13.86" cy="12.00" r="0.07" />
<circle cx="13.98" cy="13.00" r="0.07" />
<circle cx="14.11" cy="12.00" r="0.07" />
<circle cx="14.23" cy="9.00" r="0.07" />
<circle cx="14.35" cy="4.00" r="0.07" />
<circle cx="14.48" cy="6.00" r="0.07" />
<circle cx="14.60" cy="6.00" r="0.07" />
<circle cx="14.72" cy="4.00" r="0.07" />
<circle cx="14.85" cy="0.00" r="0.07" />
<circle cx="14.97" cy="0.00" r="0.07" />
<circle cx="15.10" cy="5.00" r="0.07" />
<circle cx="15.22" cy="8.00" r="0.07" />
<circle cx="15.34" cy="9.00" r="0.07" />
<circle cx="15.47" cy="8.00" r="0.07" />
<circle cx="15.59" cy="5.00" r="0.07" />
<circle cx="15.71" cy="9.00" r="0.07" />
<circle cx="15.84" cy="11.00" r="0.07" />
<circle cx="15.96" cy="11.00" r="0.07" />
<circle cx="16.09" cy="9.00" r="0.07" />
<circle cx="16.21" cy="5.00" r="0.07" />
<circle cx="16.33" cy="8.00" r="0.07" />
<circle cx="16.46" cy="9.00" r="0.07" />
<circle cx="16.58" cy="8.00" r="0.07" />
<circle cx="16.70" cy="5.00" r="0.07" />
<circle cx="16.83" cy="0.00" r="0.07" />
<circle cx="16.95" cy="0.00" r="0.07" />
<circle cx="17.08" cy="6.00" r="0.07" />
<circle cx="17.20" cy="10.00" r="0.07" />
<circle cx="17.32" cy="12.00" r="0.07" />
<circle cx="17.45" cy="12.00" r="0.07" />
<circle cx="17.57" cy="10.00" r="0.07" />
<circle cx="17.69" cy="6.00" r="0.07" />
<circle cx="17.82" cy="9.00" r="0.07" />
<circle cx="17.94" cy="10.00" r="0.07" />
<circle cx="18.06" cy="9.00" r="0.07" />
<circle cx="18.19" cy="6.00" r="0.07" />
<circle cx="18.31" cy="10.00" r="0.07" />
<circle cx="18.44" cy="12.00" r="0.07" />
<circle cx="18.56" cy="12.00" r="0.07" />
<circle cx="18.68" cy="10.00" r="0.07" />
<circle cx="18.81" cy="6.00" r="0.07" />
<circle cx="18.93" cy="0.00" r="0.07" />
<circle cx="19.05" cy="0.00" r="0.07" />
<circle cx="19.18" cy="7.00" r="0.07" />
<circle cx="19.30" cy="3.00" r="0.07" />
<circle cx="19.43" cy="6.00" r="0.07" />
<circle cx="19.55" cy="7.00" r="0.07" />
<circle cx="19.67" cy="6.00" r="0.07" />
<circle cx="19.80" cy="12.00" r="0.07" />
<circle cx="19.92" cy="7.00" r="0.07" />
<circle cx="20.04" cy="9.00" r="0.07" />
<circle cx="20.17" cy="9.00" r="0.07" />
<circle cx="20.29" cy="7.00" r="0.07" />
<circle cx="20.42" cy="12.00" r="0.07" />
<circle cx="20.54" cy="6.00" r="0.07" />
<circle cx="20.66" cy="7.00" r="0.07" />
<circle cx="20.79" cy="6.00" r="0.07" />
<circle cx="20.91" cy="3.00" r="0.07" />
<circle cx="21.03" cy="7.00" r="0.07" />
<circle cx="21.16" cy="0.00" r="0.07" />
</g>
</svg>