<svg xmlns="http://www.w3.org/2000/svg" width="161.8" height="100.0" viewBox="-4.35 11.67 171.80 110.00">
<g fill="none" stroke="black" stroke-width="0.0300%" transform="translate(0, 133.3333) scale(16.6667, -16.6667)">
<circle cx="0.04" cy="1.00" r="0.03" />
<circle cx="0.08" cy="1.00" r="0.03" />
<circle cx="0.12" cy="2.00" r="0.03" />
<circle cx="0.16" cy="1.00" r="0.03" />
<circle cx="0.19" cy="2.00" r="0.03" />
<circle cx="0.23" cy="2.00" r="0.03" />
<circle cx="0.27" cy="3.00" r="0.03" />
<circle cx="0.31" cy="1.00" r="0.03" />
<circle cx="0.35" cy="2.00" r="0.03" />
<circle cx="0.39" cy="2.00" r="0.03" />
<circle cx="0.43" cy="3.00" r="0.03" />
<circle cx="0.47" cy="2.00" r="0.03" />
<circle cx="0.51" cy="3.00" r="0.03" />
<circle cx="0.55" cy="3.00" r="0.03" />
<circle cx="0.58" cy="4.00" r="0.03" />
<circle cx="0.62" cy="1.00" r="0.03" />
<circle cx="0.66" cy="2.00" r="0.03" />
<circle cx="0.70" cy="2.00" r="0.03" />
<circle cx="0.74" cy="3.00" r="0.03" />
<circle cx="0.78" cy="2.00" r="0.03" />
<circle cx="0.82" cy="3.00" r="0.03" />
<circle cx="0.86" cy="3.00" r="0.03" />
<circle cx="0.90" cy="4.00" r="0.03" />
<circle cx="0.94" cy="2.00" r="0.03" />
<circle cx="0.97" cy="3.00" r="0.03" />
<circle cx="1.01" cy="3.00" r="0.03" />
<circle cx="1.05" cy="4.00" r="0.03" />
<circle cx="1.09" cy="3.00" r="0.03" />
<circle cx="1.13" cy="4.00" r="0.03" />
<circle cx="1.17" cy="4.00" r="0.03" />
<circle cx="1.21" cy="5.00" r="0.03" />
<circle cx="1.25" cy="1.00" r="0.03" />
<circle cx="1.29" cy="2.00" r="0.03" />
<circle cx="1.33" cy="2.00" r="0.03" />
<circle cx="1.36" cy="3.00" r="0.03" />
<circle cx="1.40" cy="2.00" r="0.03" />
<circle cx="1.44" cy="3.00" r="0.03" />
<circle cx="1.48" cy="3.00" r="0.03" />
<circle cx="1.52" cy="4.00" r="0.03" />
<circle cx="1.56" cy="2.00" r="0.03" />
<circle cx="1.60" cy="3.00" r="0.03" />
<circle cx="1.64" cy="3.00" r="0.03" />
<circle cx="1.68" cy="4.00" r="0.03" />
<circle cx="1.72" cy="3.00" r="0.03" />
<circle cx="1.75" cy="4.00" r="0.03" />
<circle cx="1.79" cy="4.00" r="0.03" />
<circle cx="1.83" cy="5.00" r="0.03" />
<circle cx="1.87" cy="2.00" r="0.03" />
<circle cx="1.91" cy="3.00" r="0.03" />
<circle cx="1.95" cy="3.00" r="0.03" />
<circle cx="1.99" cy="4.00" r="0.03" />
<circle cx="2.03" cy="3.00" r="0.03" />
<circle cx="2.07" cy="4.00" r="0.03" />
<circle cx="2.11" cy="4.00" r="0.03" />
<circle cx="2.14" cy="5.00" r="0.03" />
<circle cx="2.18" cy="3.00" r="0.03" />
<circle cx="2.22" cy="4.00" r="0.03" />
<circle cx="2.26" cy="4.00" r="0.03" />
<circle cx="2.30" cy="5.00" r="0.03" />
<circle cx="2.34" cy="4.00" r="0.03" />
<circle cx="2.38" cy="5.00" r="0.03" />
<circle cx="2.42" cy="5.00" r="0.03" />
<circle cx="2.46" cy="6.00" r="0.03" />
<circle cx="2.50" cy="1.00" r="0.03" />
<circle cx="2.53" cy="2.00" r="0.03" />
<circle cx="2.57" cy="2.00" r="0.03" />
<circle cx="2.61" cy="3.00" r="0.03" />
<circle cx="2.65" cy="2.00" r="0.03" />
<circle cx="2.69" cy="3.00" r="0.03" />
<circle cx="2.73" cy="3.00" r="0.03" />
<circle cx="2.77" cy="4.00" r="0.03" />
<circle cx="2.81" cy="2.00" r="0.03" />
<circle cx="2.85" cy="3.00" r="0.03" />
<circle cx="2.89" cy="3.00" r="0.03" />
<circle cx="2.92" cy="4.00" r="0.03" />
<circle cx="2.96" cy="3.00" r="0.03" />
<circle cx="3.00" cy="4.00" r="0.03" />
<circle cx="3.04" cy="4.00" r="0.03" />
<circle cx="3.08" cy="5.00" r="0.03" />
<circle cx="3.12" cy="2.00" r="0.03" />
<circle cx="3.16" cy="3.00" r="0.03" />
<circle cx="3.20" cy="3.00" r="0.03" />
<circle cx="3.24" cy="4.00" r="0.03" />
<circle cx="3.28" cy="3.00" r="0.03" />
<circle cx="3.31" cy="4.00" r="0.03" />
<circle cx="3.35" cy="4.00" r="0.03" />
<circle cx="3.39" cy="5.00" r="0.03" />
<circle cx="3.43" cy="3.00" r="0.03" />
<circle cx="3.47" cy="4.00" r="0.03" />
<circle cx="3.51" cy="4.00" r="0.03" />
<circle cx="3.55" cy="5.00" r="0.03" />
<circle cx="3.59" cy="4.00" r="0.03" />
<circle cx="3.63" cy="5.00" r="0.03" />
<circle cx="3.66" cy="5.00" r="0.03" />
<circle cx="3.70" cy="6.00" r="0.03" />
<circle cx="3.74" cy="2.00" r="0.03" />
<circle cx="3.78" cy="3.00" r="0.03" />
<circle cx="3.82" cy="3.00" r="0.03" />
<circle cx="3.86" cy="4.00" r="0.03" />
<circle cx="3.90" cy="3.00" r="0.03" />
<circle cx="3.94" cy="4.00" r="0.03" />
<circle cx="3.98" cy="4.00" r="0.03" />
<circle cx="4.02" cy="5.00" r="0.03" />
<circle cx="4.05" cy="3.00" r="0.03" />
<circle cx="4.09" cy="4.00" r="0.03" />
<circle cx="4.13" cy="4.00" r="0.03" />
<circle cx="4.17" cy="5.00" r="0.03" />
<circle cx="4.21" cy="4.00" r="0.03" />
<circle cx="4.25" cy="5.00" r="0.03" />
<circle cx="4.29" cy="5.00" r="0.03" />
<circle cx="4.33" cy="6.00" r="0.03" />
<circle cx="4.37" cy="3.00" r="0.03" />
<circle cx="4.41" cy="4.00" r="0.03" />
<circle cx="4.44" cy="4.00" r="0.03" />
<circle cx="4.48" cy="5.00" r="0.03" />
<circle cx="4.52" cy="4.00" r="0.03" />
<circle cx="4.56" cy="5.00" r="0.03" />
<circle cx="4.60" cy="5.00" r="0.03" />
<circle cx="4.64" cy="6.00" r="0.03" />
<circle cx="4.68" cy="4.00" r="0.03" />
<circle cx="4.72" cy="5.00" r="0.03" />
<circle cx="4.76" cy="5.00" r="0.03" />
<circle cx="4.80" cy="6.00" r="0.03" />
<circle cx="4.83" cy="5.00" r="0.03" />
<circle cx="4.87" cy="6.00" r="0.03" />
<circle cx="4.91" cy="6.00" r="0.03" />
<circle cx="4.95" cy="7.00" r="0.03" />
<circle cx="4.99" cy="1.00" r="0.03" />
<circle cx="5.03" cy="2.00" r="0.03" />
<circle cx="5.07" cy="2.00" r="0.03" />
<circle cx="5.11" cy="3.00" r="0.03" />
<circle cx="5.15" cy="2.00" r="0.03" />
<circle cx="5.19" cy="3.00" r="0.03" />
<circle cx="5.22" cy="3.00" r="0.03" />
<circle cx="5.26" cy="4.00" r="0.03" />
<circle cx="5.30" cy="2.00" r="0.03" />
<circle cx="5.34" cy="3.00" r="0.03" />
<circle cx="5.38" cy="3.00" r="0.03" />
<circle cx="5.42" cy="4.00" r="0.03" />
<circle cx="5.46" cy="3.00" r="0.03" />
<circle cx="5.50" cy="4.00" r="0.03" />
<circle cx="5.54" cy="4.00" r="0.03" />
<circle cx="5.58" cy="5.00" r="0.03" />
<circle cx="5.61" cy="2.00" r="0.03" />
<circle cx="5.65" cy="3.00" r="0.03" />
<circle cx="5.69" cy="3.00" r="0.03" />
<circle cx="5.73" cy="4.00" r="0.03" />
<circle cx="5.77" cy="3.00" r="0.03" />
<circle cx="5.81" cy="4.00" r="0.03" />
<circle cx="5.85" cy="4.00" r="0.03" />
<circle cx="5.89" cy="5.00" r="0.03" />
<circle cx="5.93" cy="3.00" r="0.03" />
<circle cx="5.97" cy="4.00" r="0.03" />
<circle cx="6.00" cy="4.00" r="0.03" />
<circle cx="6.04" cy="5.00" r="0.03" />
<circle cx="6.08" cy="4.00" r="0.03" />
<circle cx="6.12" cy="5.00" r="0.03" />
<circle cx="6.16" cy="5.00" r="0.03" />
<circle cx="6.20" cy="6.00" r="0.03" />
<circle cx="6.24" cy="2.00" r="0.03" />
<circle cx="6.28" cy="3.00" r="0.03" />
<circle cx="6.32" cy="3.00" r="0.03" />
<circle cx="6.36" cy="4.00" r="0.03" />
<circle cx="6.39" cy="3.00" r="0.03" />
<circle cx="6.43" cy="4.00" r="0.03" />
<circle cx="6.47" cy="4.00" r="0.03" />
<circle cx="6.51" cy="5.00" r="0.03" />
<circle cx="6.55" cy="3.00" r="0.03" />
<circle cx="6.59" cy="4.00" r="0.03" />
<circle cx="6.63" cy="4.00" r="0.03" />
<circle cx="6.67" cy="5.00" r="0.03" />
<circle cx="6.71" cy="4.00" r="0.03" />
<circle cx="6.75" cy="5.00" r="0.03" />
<circle cx="6.78" cy="5.00" r="0.03" />
<circle cx="6.82" cy="6.00" r="0.03" />
<circle cx="6.86" cy="3.00" r="0.03" />
<circle cx="6.90" cy="4.00" r="0.03" />
<circle cx="6.94" cy="4.00" r="0.03" />
<circle cx="6.98" cy="5.00" r="0.03" />
<circle cx="7.02" cy="4.00" r="0.03" />
<circle cx="7.06" cy="5.00" r="0.03" />
<circle cx="7.10" cy="5.00" r="0.03" />
<circle cx="7.13" cy="6.00" r="0.03" />
<circle cx="7.17" cy="4.00" r="0.03" />
<circle cx="7.21" cy="5.00" r="0.03" />
<circle cx="7.25" cy="5.00" r="0.03" />
<circle cx="7.29" cy="6.00" r="0.03" />
<circle cx="7.33" cy="5.00" r="0.03" />
<circle cx="7.37" cy="6.00" r="0.03" />
<circle cx="7.41" cy="6.00" r="0.03" />
<circle cx="7.45" cy="7.00" r="0.03" />
<circle cx="7.49" cy="2.00" r="0.03" />
<circle cx="7.52" cy="3.00" r="0.03" />
<circle cx="7.56" cy="3.00" r="0.03" />
<circle cx="7.60" cy="4.00" r="0.03" />
<circle cx="7.64" cy="3.00" r="0.03" />
<circle cx="7.68" cy="4.00" r="0.03" />
<circle cx="7.72" cy="4.00" r="0.03" />
<circle cx="7.76" cy="5.00" r="0.03" />
<circle cx="7.80" cy="3.00" r="0.03" />
<circle cx="7.84" cy="4.00" r="0.03" />
<circle cx="7.88" cy="4.00" r="0.03" />
<circle cx="7.91" cy="5.00" r="0.03" />
<circle cx="7.95" cy="4.00" r="0.03" />
<circle cx="7.99" cy="5.00" r="0.03" />
<circle cx="8.03" cy="5.00" r="0.03" />
<circle cx="8.07" cy="6.00" r="0.03" />
<circle cx="8.11" cy="3.00" r="0.03" />
<circle cx="8.15" cy="4.00" r="0.03" />
<circle cx="8.19" cy="4.00" r="0.03" />
<circle cx="8.23" cy="5.00" r="0.03" />
<circle cx="8.27" cy="4.00" r="0.03" />
<circle cx="8.30" cy="5.00" r="0.03" />
<circle cx="8.34" cy="5.00" r="0.03" />
<circle cx="8.38" cy="6.00" r="0.03" />
<circle cx="8.42" cy="4.00" r="0.03" />
<circle cx="8.46" cy="5.00" r="0.03" />
<circle cx="8.50" cy="5.00" r="0.03" />
<circle cx="8.54" cy="6.00" r="0.03" />
<circle cx="8.58" cy="5.00" r="0.03" />
<circle cx="8.62" cy="6.00" r="0.03" />
<circle cx="8.66" cy="6.00" r="0.03" />
<circle cx="8.69" cy="7.00" r="0.03" />
<circle cx="8.73" cy="3.00" r="0.03" />
<circle cx="8.77" cy="4.00" r="0.03" />
<circle cx="8.81" cy="4.00" r="0.03" />
<circle cx="8.85" cy="5.00" r="0.03" />
<circle cx="8.89" cy="4.00" r="0.03" />
<circle cx="8.93" cy="5.00" r="0.03" />
<circle cx="8.97" cy="5.00" r="0.03" />
<circle cx="9.01" cy="6.00" r="0.03" />
<circle cx="9.05" cy="4.00" r="0.03" />
<circle cx="9.08" cy="5.00" r="0.03" />
<circle cx="9.12" cy="5.00" r="0.03" />
<circle cx="9.16" cy="6.00" r="0.03" />
<circle cx="9.20" cy="5.00" r="0.03" />
<circle cx="9.24" cy="6.00" r="0.03" />
<circle cx="9.28" cy="6.00" r="0.03" />
<circle cx="9.32" cy="7.00" r="0.03" />
<circle cx="9.36" cy="4.00" r="0.03" />
<circle cx="9.40" cy="5.00" r="0.03" />
<circle cx="9.44" cy="5.00" r="0.03" />
<circle cx="9.47" cy="6.00" r="0.03" />
<circle cx="9.51" cy="5.00" r="0.03" />
<circle cx="9.55" cy="6.00" r="0.03" />
<circle cx="9.59" cy="6.00" r="0.03" />
<circle cx="9.63" cy="7.00" r="0.03" />
<circle cx="9.67" cy="5.00" r="0.03" />
<circle cx="9.71" cy="6.00" r="0.03" />
<circle cx="9.75" cy="6.00" r="0.03" />
</g>
</svg>