<svg xmlns="http://www.w3.org/2000/svg" width="161.80" height="100.00" viewBox="-2.39 15.00 171.80 110.00">
<g fill="none" stroke="black" stroke-width="0.03%" transform="translate(0, 140.00) scale(20.00, -20.00)">
<polyline points="0.13,1.00 0.26,1.00 0.39,2.00 0.52,1.00 0.65,2.00 0.78,2.00 0.91,3.00 1.04,1.00 1.17,2.00 1.30,2.00 1.44,3.00 1.57,2.00 1.70,3.00 1.83,3.00 1.96,4.00 2.09,1.00 2.22,2.00 2.35,2.00 2.48,3.00 2.61,2.00 2.74,3.00 2.87,3.00 3.00,4.00 3.13,2.00 3.26,3.00 3.39,3.00 3.52,4.00 3.65,3.00 3.78,4.00 3.91,4.00 4.05,5.00 4.18,1.00 4.31,2.00 4.44,2.00 4.57,3.00 4.70,2.00 4.83,3.00 4.96,3.00 5.09,4.00 5.22,2.00 5.35,3.00 5.48,3.00 5.61,4.00 5.74,3.00 5.87,4.00 6.00,4.00 6.13,5.00 6.26,2.00 6.39,3.00 6.52,3.00 6.65,4.00 6.79,3.00 6.92,4.00 7.05,4.00 7.18,5.00 7.31,3.00 7.44,4.00 7.57,4.00 7.70,5.00 7.83,4.00 7.96,5.00 8.09,5.00 8.22,6.00" />
</g>
</svg>