<svg xmlns="http://www.w3.org/2000/svg" width="161.8" height="100.0" viewBox="-3.096 -5.000 171.803 110.000">
<g fill="none" stroke="black" stroke-width="0.0050%" transform="translate(0, 100.0000) scale(100.0000, -100.0000)">

<line x1="0.038" y1="0.000" x2="0.038" y2="1.000" />

<line x1="0.076" y1="0.000" x2="0.076" y2="1.000" />

<line x1="0.114" y1="0.000" x2="0.114" y2="1.000" />

<line x1="0.152" y1="0.000" x2="0.152" y2="1.000" />

<line x1="0.190" y1="0.000" x2="0.190" y2="1.000" />
<line x1="0.209" y1="0.000" x2="0.209" y2="1.000" />

<line x1="0.247" y1="0.000" x2="0.247" y2="1.000" />

<line x1="0.286" y1="0.000" x2="0.286" y2="1.000" />

<line x1="0.324" y1="0.000" x2="0.324" y2="1.000" />

<line x1="0.362" y1="0.000" x2="0.362" y2="1.000" />
<line x1="0.381" y1="0.000" x2="0.381" y2="1.000" />

<line x1="0.419" y1="0.000" x2="0.419" y2="1.000" />

<line x1="0.457" y1="0.000" x2="0.457" y2="1.000" />

<line x1="0.495" y1="0.000" x2="0.495" y2="1.000" />

<line x1="0.533" y1="0.000" x2="0.533" y2="1.000" />
<line x1="0.552" y1="0.000" x2="0.552" y2="1.000" />

<line x1="0.590" y1="0.000" x2="0.590" y2="1.000" />

<line x1="0.628" y1="0.000" x2="0.628" y2="1.000" />

<line x1="0.666" y1="0.000" x2="0.666" y2="1.000" />

<line x1="0.704" y1="0.000" x2="0.704" y2="1.000" />
<line x1="0.723" y1="0.000" x2="0.723" y2="1.000" />

<line x1="0.761" y1="0.000" x2="0.761" y2="1.000" />

<line x1="0.799" y1="0.000" x2="0.799" y2="1.000" />

<line x1="0.838" y1="0.000" x2="0.838" y2="1.000" />

<line x1="0.876" y1="0.000" x2="0.876" y2="1.000" />
<line x1="0.895" y1="0.000" x2="0.895" y2="1.000" />

<line x1="0.933" y1="0.000" x2="0.933" y2="1.000" />

<line x1="0.971" y1="0.000" x2="0.971" y2="1.000" />

<line x1="1.009" y1="0.000" x2="1.009" y2="1.000" />

<line x1="1.047" y1="0.000" x2="1.047" y2="1.000" />
<line x1="1.066" y1="0.000" x2="1.066" y2="1.000" />

<line x1="1.104" y1="0.000" x2="1.104" y2="1.000" />

<line x1="1.142" y1="0.000" x2="1.142" y2="1.000" />

<line x1="1.180" y1="0.000" x2="1.180" y2="1.000" />

<line x1="1.218" y1="0.000" x2="1.218" y2="1.000" />
<line x1="1.237" y1="0.000" x2="1.237" y2="1.000" />

<line x1="1.275" y1="0.000" x2="1.275" y2="1.000" />

<line x1="1.313" y1="0.000" x2="1.313" y2="1.000" />

<line x1="1.352" y1="0.000" x2="1.352" y2="1.000" />

<line x1="1.390" y1="0.000" x2="1.390" y2="1.000" />
<line x1="1.409" y1="0.000" x2="1.409" y2="1.000" />

<line x1="1.447" y1="0.000" x2="1.447" y2="1.000" />

<line x1="1.485" y1="0.000" x2="1.485" y2="1.000" />

<line x1="1.523" y1="0.000" x2="1.523" y2="1.000" />

<line x1="1.561" y1="0.000" x2="1.561" y2="1.000" />
<line x1="1.580" y1="0.000" x2="1.580" y2="1.000" />

<line x1="1.618" y1="0.000" x2="1.618" y2="1.000" />

</g>
</svg>