<svg xmlns="http://www.w3.org/2000/svg" width="161.8" height="100.0" viewBox="-3.4 -5.0 171.8 110.0">
<g fill="none" stroke="black" stroke-width="0.4050%" transform="translate(0, 100.0000) scale(1.2346, -1.2346)">
<circle cx="1.3" cy="0.0" r="0.4" />
<line x1="1.3" y1="0.0" x2="1.3" y2="1.0" />
<line x1="2.6" y1="0.0" x2="2.6" y2="2.0" />
<line x1="4.0" y1="0.0" x2="4.0" y2="3.0" />
<line x1="5.3" y1="0.0" x2="5.3" y2="4.0" />
<line x1="6.6" y1="0.0" x2="6.6" y2="5.0" />
<line x1="7.9" y1="0.0" x2="7.9" y2="6.0" />
<line x1="9.3" y1="0.0" x2="9.3" y2="7.0" />
<line x1="10.6" y1="0.0" x2="10.6" y2="8.0" />
<line x1="11.9" y1="0.0" x2="11.9" y2="9.0" />

<line x1="14.6" y1="0.0" x2="14.6" y2="1.0" />
<line x1="15.9" y1="0.0" x2="15.9" y2="2.0" />
<line x1="17.2" y1="0.0" x2="17.2" y2="3.0" />
<line x1="18.5" y1="0.0" x2="18.5" y2="4.0" />
<line x1="19.9" y1="0.0" x2="19.9" y2="5.0" />
<line x1="21.2" y1="0.0" x2="21.2" y2="6.0" />
<line x1="22.5" y1="0.0" x2="22.5" y2="7.0" />
<line x1="23.8" y1="0.0" x2="23.8" y2="8.0" />
<line x1="25.2" y1="0.0" x2="25.2" y2="9.0" />

<line x1="27.8" y1="0.0" x2="27.8" y2="2.0" />
<line x1="29.1" y1="0.0" x2="29.1" y2="4.0" />
<line x1="30.4" y1="0.0" x2="30.4" y2="6.0" />
<line x1="31.8" y1="0.0" x2="31.8" y2="8.0" />
<line x1="33.1" y1="0.0" x2="33.1" y2="10.0" />
<line x1="34.4" y1="0.0" x2="34.4" y2="12.0" />
<line x1="35.7" y1="0.0" x2="35.7" y2="14.0" />
<line x1="37.1" y1="0.0" x2="37.1" y2="16.0" />
<line x1="38.4" y1="0.0" x2="38.4" y2="18.0" />

<line x1="41.0" y1="0.0" x2="41.0" y2="3.0" />
<line x1="42.4" y1="0.0" x2="42.4" y2="6.0" />
<line x1="43.7" y1="0.0" x2="43.7" y2="9.0" />
<line x1="45.0" y1="0.0" x2="45.0" y2="12.0" />
<line x1="46.3" y1="0.0" x2="46.3" y2="15.0" />
<line x1="47.7" y1="0.0" x2="47.7" y2="18.0" />
<line x1="49.0" y1="0.0" x2="49.0" y2="21.0" />
<line x1="50.3" y1="0.0" x2="50.3" y2="24.0" />
<line x1="51.6" y1="0.0" x2="51.6" y2="27.0" />

<line x1="54.3" y1="0.0" x2="54.3" y2="4.0" />
<line x1="55.6" y1="0.0" x2="55.6" y2="8.0" />
<line x1="56.9" y1="0.0" x2="56.9" y2="12.0" />
<line x1="58.2" y1="0.0" x2="58.2" y2="16.0" />
<line x1="59.6" y1="0.0" x2="59.6" y2="20.0" />
<line x1="60.9" y1="0.0" x2="60.9" y2="24.0" />
<line x1="62.2" y1="0.0" x2="62.2" y2="28.0" />
<line x1="63.5" y1="0.0" x2="63.5" y2="32.0" />
<line x1="64.9" y1="0.0" x2="64.9" y2="36.0" />

<line x1="67.5" y1="0.0" x2="67.5" y2="5.0" />
<line x1="68.8" y1="0.0" x2="68.8" y2="10.0" />
<line x1="70.2" y1="0.0" x2="70.2" y2="15.0" />
<line x1="71.5" y1="0.0" x2="71.5" y2="20.0" />
<line x1="72.8" y1="0.0" x2="72.8" y2="25.0" />
<line x1="74.1" y1="0.0" x2="74.1" y2="30.0" />
<line x1="75.5" y1="0.0" x2="75.5" y2="35.0" />
<line x1="76.8" y1="0.0" x2="76.8" y2="40.0" />
<line x1="78.1" y1="0.0" x2="78.1" y2="45.0" />

<line x1="80.8" y1="0.0" x2="80.8" y2="6.0" />
<line x1="82.1" y1="0.0" x2="82.1" y2="12.0" />
<line x1="83.4" y1="0.0" x2="83.4" y2="18.0" />
<line x1="84.7" y1="0.0" x2="84.7" y2="24.0" />
<line x1="86.0" y1="0.0" x2="86.0" y2="30.0" />
<line x1="87.4" y1="0.0" x2="87.4" y2="36.0" />
<line x1="88.7" y1="0.0" x2="88.7" y2="42.0" />
<line x1="90.0" y1="0.0" x2="90.0" y2="48.0" />
<line x1="91.3" y1="0.0" x2="91.3" y2="54.0" />

<line x1="94.0" y1="0.0" x2="94.0" y2="7.0" />
<line x1="95.3" y1="0.0" x2="95.3" y2="14.0" />
<line x1="96.6" y1="0.0" x2="96.6" y2="21.0" />
<line x1="98.0" y1="0.0" x2="98.0" y2="28.0" />
<line x1="99.3" y1="0.0" x2="99.3" y2="35.0" />
<line x1="100.6" y1="0.0" x2="100.6" y2="42.0" />
<line x1="101.9" y1="0.0" x2="101.9" y2="49.0" />
<line x1="103.3" y1="0.0" x2="103.3" y2="56.0" />
<line x1="104.6" y1="0.0" x2="104.6" y2="63.0" />

<line x1="107.2" y1="0.0" x2="107.2" y2="8.0" />
<line x1="108.6" y1="0.0" x2="108.6" y2="16.0" />
<line x1="109.9" y1="0.0" x2="109.9" y2="24.0" />
<line x1="111.2" y1="0.0" x2="111.2" y2="32.0" />
<line x1="112.5" y1="0.0" x2="112.5" y2="40.0" />
<line x1="113.9" y1="0.0" x2="113.9" y2="48.0" />
<line x1="115.2" y1="0.0" x2="115.2" y2="56.0" />
<line x1="116.5" y1="0.0" x2="116.5" y2="64.0" />
<line x1="117.8" y1="0.0" x2="117.8" y2="72.0" />

<line x1="120.5" y1="0.0" x2="120.5" y2="9.0" />
<line x1="121.8" y1="0.0" x2="121.8" y2="18.0" />
<line x1="123.1" y1="0.0" x2="123.1" y2="27.0" />
<line x1="124.4" y1="0.0" x2="124.4" y2="36.0" />
<line x1="125.8" y1="0.0" x2="125.8" y2="45.0" />
<line x1="127.1" y1="0.0" x2="127.1" y2="54.0" />
<line x1="128.4" y1="0.0" x2="128.4" y2="63.0" />
<line x1="129.7" y1="0.0" x2="129.7" y2="72.0" />
<line x1="131.1" y1="0.0" x2="131.1" y2="81.0" />

</g>
</svg>