<svg xmlns="http://www.w3.org/2000/svg" width="156.7" height="100.0" viewBox="-3.2 -5.0 166.7 110.0">
<g fill="none" stroke="black" stroke-width="0.1600%" transform="translate(0, 100.0000) scale(3.1250, -3.1250)">
<line x1="0.6" y1="0.0" x2="0.6" y2="1.0" />
<line x1="1.2" y1="0.0" x2="1.2" y2="1.0" />
<line x1="1.8" y1="0.0" x2="1.8" y2="2.0" />
<line x1="2.4" y1="0.0" x2="2.4" y2="2.0" />
<line x1="3.0" y1="0.0" x2="3.0" y2="2.0" />
<line x1="3.5" y1="0.0" x2="3.5" y2="2.0" />
<line x1="4.1" y1="0.0" x2="4.1" y2="4.0" />
<line x1="4.7" y1="0.0" x2="4.7" y2="4.0" />
<line x1="5.3" y1="0.0" x2="5.3" y2="2.0" />
<line x1="5.9" y1="0.0" x2="5.9" y2="2.0" />
<line x1="6.5" y1="0.0" x2="6.5" y2="4.0" />
<line x1="7.1" y1="0.0" x2="7.1" y2="4.0" />
<line x1="7.7" y1="0.0" x2="7.7" y2="4.0" />
<line x1="8.3" y1="0.0" x2="8.3" y2="4.0" />
<line x1="8.9" y1="0.0" x2="8.9" y2="8.0" />
<line x1="9.4" y1="0.0" x2="9.4" y2="8.0" />
<line x1="10.0" y1="0.0" x2="10.0" y2="2.0" />
<line x1="10.6" y1="0.0" x2="10.6" y2="2.0" />
<line x1="11.2" y1="0.0" x2="11.2" y2="4.0" />
<line x1="11.8" y1="0.0" x2="11.8" y2="4.0" />
<line x1="12.4" y1="0.0" x2="12.4" y2="4.0" />
<line x1="13.0" y1="0.0" x2="13.0" y2="4.0" />
<line x1="13.6" y1="0.0" x2="13.6" y2="8.0" />
<line x1="14.2" y1="0.0" x2="14.2" y2="8.0" />
<line x1="14.8" y1="0.0" x2="14.8" y2="4.0" />
<line x1="15.3" y1="0.0" x2="15.3" y2="4.0" />
<line x1="15.9" y1="0.0" x2="15.9" y2="8.0" />
<line x1="16.5" y1="0.0" x2="16.5" y2="8.0" />
<line x1="17.1" y1="0.0" x2="17.1" y2="8.0" />
<line x1="17.7" y1="0.0" x2="17.7" y2="8.0" />
<line x1="18.3" y1="0.0" x2="18.3" y2="16.0" />
<line x1="18.9" y1="0.0" x2="18.9" y2="16.0" />
<line x1="19.5" y1="0.0" x2="19.5" y2="2.0" />
<line x1="20.1" y1="0.0" x2="20.1" y2="2.0" />
<line x1="20.7" y1="0.0" x2="20.7" y2="4.0" />
<line x1="21.2" y1="0.0" x2="21.2" y2="4.0" />
<line x1="21.8" y1="0.0" x2="21.8" y2="4.0" />
<line x1="22.4" y1="0.0" x2="22.4" y2="4.0" />
<line x1="23.0" y1="0.0" x2="23.0" y2="8.0" />
<line x1="23.6" y1="0.0" x2="23.6" y2="8.0" />
<line x1="24.2" y1="0.0" x2="24.2" y2="4.0" />
<line x1="24.8" y1="0.0" x2="24.8" y2="4.0" />
<line x1="25.4" y1="0.0" x2="25.4" y2="8.0" />
<line x1="26.0" y1="0.0" x2="26.0" y2="8.0" />
<line x1="26.6" y1="0.0" x2="26.6" y2="8.0" />
<line x1="27.1" y1="0.0" x2="27.1" y2="8.0" />
<line x1="27.7" y1="0.0" x2="27.7" y2="16.0" />
<line x1="28.3" y1="0.0" x2="28.3" y2="16.0" />
<line x1="28.9" y1="0.0" x2="28.9" y2="4.0" />
<line x1="29.5" y1="0.0" x2="29.5" y2="4.0" />
<line x1="30.1" y1="0.0" x2="30.1" y2="8.0" />
<line x1="30.7" y1="0.0" x2="30.7" y2="8.0" />
<line x1="31.3" y1="0.0" x2="31.3" y2="8.0" />
<line x1="31.9" y1="0.0" x2="31.9" y2="8.0" />
<line x1="32.5" y1="0.0" x2="32.5" y2="16.0" />
<line x1="33.0" y1="0.0" x2="33.0" y2="16.0" />
<line x1="33.6" y1="0.0" x2="33.6" y2="8.0" />
<line x1="34.2" y1="0.0" x2="34.2" y2="8.0" />
<line x1="34.8" y1="0.0" x2="34.8" y2="16.0" />
<line x1="35.4" y1="0.0" x2="35.4" y2="16.0" />
<line x1="36.0" y1="0.0" x2="36.0" y2="16.0" />
<line x1="36.6" y1="0.0" x2="36.6" y2="16.0" />
<line x1="37.2" y1="0.0" x2="37.2" y2="32.0" />
<line x1="37.8" y1="0.0" x2="37.8" y2="32.0" />
<line x1="38.4" y1="0.0" x2="38.4" y2="2.0" />
<line x1="38.9" y1="0.0" x2="38.9" y2="2.0" />
<line x1="39.5" y1="0.0" x2="39.5" y2="4.0" />
<line x1="40.1" y1="0.0" x2="40.1" y2="4.0" />
<line x1="40.7" y1="0.0" x2="40.7" y2="4.0" />
<line x1="41.3" y1="0.0" x2="41.3" y2="4.0" />
<line x1="41.9" y1="0.0" x2="41.9" y2="8.0" />
<line x1="42.5" y1="0.0" x2="42.5" y2="8.0" />
<line x1="43.1" y1="0.0" x2="43.1" y2="4.0" />
<line x1="43.7" y1="0.0" x2="43.7" y2="4.0" />
<line x1="44.3" y1="0.0" x2="44.3" y2="8.0" />
<line x1="44.8" y1="0.0" x2="44.8" y2="8.0" />
<line x1="45.4" y1="0.0" x2="45.4" y2="8.0" />
<line x1="46.0" y1="0.0" x2="46.0" y2="8.0" />
<line x1="46.6" y1="0.0" x2="46.6" y2="16.0" />
<line x1="47.2" y1="0.0" x2="47.2" y2="16.0" />
<line x1="47.8" y1="0.0" x2="47.8" y2="4.0" />
<line x1="48.4" y1="0.0" x2="48.4" y2="4.0" />
<line x1="49.0" y1="0.0" x2="49.0" y2="8.0" />
<line x1="49.6" y1="0.0" x2="49.6" y2="8.0" />
<line x1="50.2" y1="0.0" x2="50.2" y2="8.0" />
<line x1="50.7" y1="0.0" x2="50.7" y2="8.0" />
</g>
</svg>