<svg xmlns="http://www.w3.org/2000/svg" width="161.8" height="100.0" viewBox="-1.70 7.50 171.80 110.00">
<g fill="none" stroke="black" stroke-width="0.0400%" transform="translate(0, 125.0000) scale(12.5000, -12.5000)">
<polyline points="0.26,1.00 0.53,2.00 0.79,3.00 1.06,4.00 1.32,5.00 1.59,6.00 1.85,7.00 2.11,8.00 2.38,9.00 2.64,1.00 2.91,2.00 3.17,3.00 3.43,4.00 3.70,5.00 3.96,6.00 4.23,7.00 4.49,8.00 4.76,9.00 5.02,1.00 5.28,2.00 5.55,3.00 5.81,4.00 6.08,5.00 6.34,6.00 6.60,7.00 6.87,8.00 7.13,9.00 7.40,1.00 7.66,2.00 7.93,3.00 8.19,4.00 8.45,5.00 8.72,6.00 8.98,7.00 9.25,8.00 9.51,9.00 9.77,1.00 10.04,2.00 10.30,3.00 10.57,4.00 10.83,5.00 11.10,6.00 11.36,7.00 11.62,8.00 11.89,9.00 12.15,1.00 12.42,2.00 12.68,3.00 12.94,4.00 13.21,5.00" />
</g>
</svg>