<svg xmlns="http://www.w3.org/2000/svg" width="161.8" height="100.0" viewBox="-3 -5 172 110">
<g fill="none" stroke="black" stroke-width="8.9500%" transform="translate(0, 100.1117) scale(0.0559, -0.0559)">
<circle cx="34" cy="1" r="9" />
<circle cx="68" cy="3" r="9" />
<circle cx="102" cy="5" r="9" />
<circle cx="136" cy="9" r="9" />
<circle cx="170" cy="11" r="9" />
<circle cx="204" cy="15" r="9" />
<circle cx="239" cy="19" r="9" />
<circle cx="273" cy="29" r="9" />
<circle cx="307" cy="31" r="9" />
<circle cx="341" cy="35" r="9" />
<circle cx="375" cy="39" r="9" />
<circle cx="409" cy="49" r="9" />
<circle cx="443" cy="53" r="9" />
<circle cx="477" cy="63" r="9" />
<circle cx="511" cy="73" r="9" />
<circle cx="545" cy="101" r="9" />
<circle cx="579" cy="103" r="9" />
<circle cx="613" cy="107" r="9" />
<circle cx="647" cy="111" r="9" />
<circle cx="681" cy="121" r="9" />
<circle cx="716" cy="125" r="9" />
<circle cx="750" cy="135" r="9" />
<circle cx="784" cy="145" r="9" />
<circle cx="818" cy="173" r="9" />
<circle cx="852" cy="177" r="9" />
<circle cx="886" cy="187" r="9" />
<circle cx="920" cy="197" r="9" />
<circle cx="954" cy="225" r="9" />
<circle cx="988" cy="235" r="9" />
<circle cx="1022" cy="263" r="9" />
<circle cx="1056" cy="291" r="9" />
<circle cx="1090" cy="373" r="9" />
<circle cx="1124" cy="375" r="9" />
<circle cx="1159" cy="379" r="9" />
<circle cx="1193" cy="383" r="9" />
<circle cx="1227" cy="393" r="9" />
<circle cx="1261" cy="397" r="9" />
<circle cx="1295" cy="407" r="9" />
<circle cx="1329" cy="417" r="9" />
<circle cx="1363" cy="445" r="9" />
<circle cx="1397" cy="449" r="9" />
<circle cx="1431" cy="459" r="9" />
<circle cx="1465" cy="469" r="9" />
<circle cx="1499" cy="497" r="9" />
<circle cx="1533" cy="507" r="9" />
<circle cx="1567" cy="535" r="9" />
<circle cx="1601" cy="563" r="9" />
<circle cx="1636" cy="645" r="9" />
<circle cx="1670" cy="649" r="9" />
<circle cx="1704" cy="659" r="9" />
<circle cx="1738" cy="669" r="9" />
<circle cx="1772" cy="697" r="9" />
<circle cx="1806" cy="707" r="9" />
<circle cx="1840" cy="735" r="9" />
<circle cx="1874" cy="763" r="9" />
<circle cx="1908" cy="845" r="9" />
<circle cx="1942" cy="855" r="9" />
<circle cx="1976" cy="883" r="9" />
<circle cx="2010" cy="911" r="9" />
<circle cx="2044" cy="993" r="9" />
<circle cx="2079" cy="1021" r="9" />
<circle cx="2113" cy="1103" r="9" />
<circle cx="2147" cy="1185" r="9" />
<circle cx="2181" cy="1429" r="9" />
<circle cx="2215" cy="1431" r="9" />
<circle cx="2249" cy="1435" r="9" />
<circle cx="2283" cy="1439" r="9" />
<circle cx="2317" cy="1449" r="9" />
<circle cx="2351" cy="1453" r="9" />
<circle cx="2385" cy="1463" r="9" />
<circle cx="2419" cy="1473" r="9" />
<circle cx="2453" cy="1501" r="9" />
<circle cx="2487" cy="1505" r="9" />
<circle cx="2521" cy="1515" r="9" />
<circle cx="2556" cy="1525" r="9" />
<circle cx="2590" cy="1553" r="9" />
<circle cx="2624" cy="1563" r="9" />
<circle cx="2658" cy="1591" r="9" />
<circle cx="2692" cy="1619" r="9" />
<circle cx="2726" cy="1701" r="9" />
<circle cx="2760" cy="1705" r="9" />
<circle cx="2794" cy="1715" r="9" />
<circle cx="2828" cy="1725" r="9" />
<circle cx="2862" cy="1753" r="9" />
<circle cx="2896" cy="1763" r="9" />
<circle cx="2930" cy="1791" r="9" />
</g>
</svg>