<svg xmlns="http://www.w3.org/2000/svg" width="141.9" height="100.0" viewBox="-44.12 -31.40 151.86 110.00">
<g fill="none" stroke="black" stroke-width="0.0758%" transform="translate(0, 47.2031) scale(6.5996, -6.5996)">
<polyline points="0.57,-0.25 0.13,-0.50 -0.30,-0.75 -0.73,-1.00 -1.17,-1.25 -1.60,-1.50 -2.03,-1.75 -2.46,-2.00 -2.90,-2.25 -3.33,-2.50 -3.76,-2.75 -4.20,-3.00 -4.63,-3.25 -5.06,-3.50 -5.50,-3.75 -5.93,-4.00" />
<polyline points="1.57,-0.25 1.13,-0.46 0.70,-0.59 0.27,-0.67 -0.17,-0.72 -0.60,-0.75 -1.03,-0.79 -1.46,-0.86 -1.90,-0.98 -2.33,-1.16 -2.76,-1.42 -3.20,-1.80 -3.63,-2.29 -4.06,-2.94 -4.50,-3.75 -4.93,-4.00" />
<polyline points="2.57,-0.25 2.13,-0.34 1.70,-0.17 1.27,0.19 0.83,0.66 0.40,1.15 -0.03,1.60 -0.46,1.90 -0.90,2.00 -1.33,1.80 -1.76,1.23 -2.20,0.21 -2.63,-1.34 -3.06,-3.50 -3.50,-3.75 -3.93,-4.00" />
<polyline points="3.57,-0.25 3.13,-0.17 2.70,0.44 2.27,1.42 1.83,2.57 1.40,3.73 0.97,4.70 0.54,5.32 0.10,5.40 -0.33,4.76 -0.76,3.22 -1.20,0.61 -1.63,-3.25 -2.06,-3.50 -2.50,-3.75 -2.93,-4.00" />
<polyline points="4.57,-0.25 4.13,0.03 3.70,1.16 3.27,2.82 2.83,4.70 2.40,6.46 1.97,7.81 1.54,8.41 1.10,7.94 0.67,6.10 0.24,2.56 -0.20,-3.00 -0.63,-3.25 -1.06,-3.50 -1.50,-3.75 -1.93,-4.00" />
<polyline points="5.57,-0.25 5.13,0.25 4.70,1.90 4.27,4.23 3.83,6.71 3.40,8.87 2.97,10.20 2.54,10.20 2.10,8.37 1.67,4.22 1.24,-2.75 0.80,-3.00 0.37,-3.25 -0.06,-3.50 -0.50,-3.75 -0.93,-4.00" />
<polyline points="6.57,-0.25 6.13,0.46 5.70,2.60 5.27,5.45 4.83,8.31 4.40,10.45 3.97,11.15 3.54,9.71 3.10,5.40 2.67,-2.50 2.24,-2.75 1.80,-3.00 1.37,-3.25 0.94,-3.50 0.50,-3.75 0.07,-4.00" />
<polyline points="7.57,-0.25 7.13,0.64 6.70,3.15 6.27,6.32 5.83,9.16 5.40,10.70 4.97,9.96 4.54,5.97 4.10,-2.25 3.67,-2.50 3.24,-2.75 2.80,-3.00 2.37,-3.25 1.94,-3.50 1.50,-3.75 1.07,-4.00" />
<polyline points="8.57,-0.25 8.13,0.77 7.70,3.50 7.27,6.65 6.83,8.94 6.40,9.12 5.97,5.90 5.54,-2.00 5.10,-2.25 4.67,-2.50 4.24,-2.75 3.80,-3.00 3.37,-3.25 2.94,-3.50 2.50,-3.75 2.07,-4.00" />
<polyline points="9.57,-0.25 9.13,0.84 8.70,3.55 8.27,6.26 7.83,7.35 7.40,5.22 6.97,-1.75 6.54,-2.00 6.10,-2.25 5.67,-2.50 5.24,-2.75 4.80,-3.00 4.37,-3.25 3.94,-3.50 3.50,-3.75 3.07,-4.00" />
<polyline points="10.57,-0.25 10.13,0.83 9.70,3.23 9.27,4.97 8.83,4.06 8.40,-1.50 7.97,-1.75 7.54,-2.00 7.10,-2.25 6.67,-2.50 6.24,-2.75 5.80,-3.00 5.37,-3.25 4.94,-3.50 4.50,-3.75 4.07,-4.00" />
<polyline points="11.57,-0.25 11.13,0.70 10.70,2.46 10.27,2.61 9.83,-1.25 9.40,-1.50 8.97,-1.75 8.54,-2.00 8.10,-2.25 7.67,-2.50 7.24,-2.75 6.80,-3.00 6.37,-3.25 5.94,-3.50 5.50,-3.75 5.07,-4.00" />
<polyline points="12.57,-0.25 12.13,0.46 11.70,1.16 11.27,-1.00 10.83,-1.25 10.40,-1.50 9.97,-1.75 9.54,-2.00 9.10,-2.25 8.67,-2.50 8.24,-2.75 7.80,-3.00 7.37,-3.25 6.94,-3.50 6.50,-3.75 6.07,-4.00" />
<polyline points="13.57,-0.25 13.13,0.06 12.70,-0.75 12.27,-1.00 11.83,-1.25 11.40,-1.50 10.97,-1.75 10.54,-2.00 10.10,-2.25 9.67,-2.50 9.24,-2.75 8.80,-3.00 8.37,-3.25 7.94,-3.50 7.50,-3.75 7.07,-4.00" />
<polyline points="14.57,-0.25 14.13,-0.50 13.70,-0.75 13.27,-1.00 12.83,-1.25 12.40,-1.50 11.97,-1.75 11.54,-2.00 11.10,-2.25 10.67,-2.50 10.24,-2.75 9.80,-3.00 9.37,-3.25 8.94,-3.50 8.50,-3.75 8.07,-4.00" />
<polyline points="15.57,-0.25 15.13,-0.50 14.70,-0.75 14.27,-1.00 13.83,-1.25 13.40,-1.50 12.97,-1.75 12.54,-2.00 12.10,-2.25 11.67,-2.50 11.24,-2.75 10.80,-3.00 10.37,-3.25 9.94,-3.50 9.50,-3.75 9.07,-4.00" />
<polyline points="0.57,-0.25 1.57,-0.25 2.57,-0.25 3.57,-0.25 4.57,-0.25 5.57,-0.25 6.57,-0.25 7.57,-0.25 8.57,-0.25 9.57,-0.25 10.57,-0.25 11.57,-0.25 12.57,-0.25 13.57,-0.25 14.57,-0.25 15.57,-0.25" />
<polyline points="0.13,-0.50 1.13,-0.46 2.13,-0.34 3.13,-0.17 4.13,0.03 5.13,0.25 6.13,0.46 7.13,0.64 8.13,0.77 9.13,0.84 10.13,0.83 11.13,0.70 12.13,0.46 13.13,0.06 14.13,-0.50 15.13,-0.50" />
<polyline points="-0.30,-0.75 0.70,-0.59 1.70,-0.17 2.70,0.44 3.70,1.16 4.70,1.90 5.70,2.60 6.70,3.15 7.70,3.50 8.70,3.55 9.70,3.23 10.70,2.46 11.70,1.16 12.70,-0.75 13.70,-0.75 14.70,-0.75" />
<polyline points="-0.73,-1.00 0.27,-0.67 1.27,0.19 2.27,1.42 3.27,2.82 4.27,4.23 5.27,5.45 6.27,6.32 7.27,6.65 8.27,6.26 9.27,4.97 10.27,2.61 11.27,-1.00 12.27,-1.00 13.27,-1.00 14.27,-1.00" />
<polyline points="-1.17,-1.25 -0.17,-0.72 0.83,0.66 1.83,2.57 2.83,4.70 3.83,6.71 4.83,8.31 5.83,9.16 6.83,8.94 7.83,7.35 8.83,4.06 9.83,-1.25 10.83,-1.25 11.83,-1.25 12.83,-1.25 13.83,-1.25" />
<polyline points="-1.60,-1.50 -0.60,-0.75 0.40,1.15 1.40,3.73 2.40,6.46 3.40,8.87 4.40,10.45 5.40,10.70 6.40,9.12 7.40,5.22 8.40,-1.50 9.40,-1.50 10.40,-1.50 11.40,-1.50 12.40,-1.50 13.40,-1.50" />
<polyline points="-2.03,-1.75 -1.03,-0.79 -0.03,1.60 0.97,4.70 1.97,7.81 2.97,10.20 3.97,11.15 4.97,9.96 5.97,5.90 6.97,-1.75 7.97,-1.75 8.97,-1.75 9.97,-1.75 10.97,-1.75 11.97,-1.75 12.97,-1.75" />
<polyline points="-2.46,-2.00 -1.46,-0.86 -0.46,1.90 0.54,5.32 1.54,8.41 2.54,10.20 3.54,9.71 4.54,5.97 5.54,-2.00 6.54,-2.00 7.54,-2.00 8.54,-2.00 9.54,-2.00 10.54,-2.00 11.54,-2.00 12.54,-2.00" />
<polyline points="-2.90,-2.25 -1.90,-0.98 -0.90,2.00 0.10,5.40 1.10,7.94 2.10,8.37 3.10,5.40 4.10,-2.25 5.10,-2.25 6.10,-2.25 7.10,-2.25 8.10,-2.25 9.10,-2.25 10.10,-2.25 11.10,-2.25 12.10,-2.25" />
<polyline points="-3.33,-2.50 -2.33,-1.16 -1.33,1.80 -0.33,4.76 0.67,6.10 1.67,4.22 2.67,-2.50 3.67,-2.50 4.67,-2.50 5.67,-2.50 6.67,-2.50 7.67,-2.50 8.67,-2.50 9.67,-2.50 10.67,-2.50 11.67,-2.50" />
<polyline points="-3.76,-2.75 -2.76,-1.42 -1.76,1.23 -0.76,3.22 0.24,2.56 1.24,-2.75 2.24,-2.75 3.24,-2.75 4.24,-2.75 5.24,-2.75 6.24,-2.75 7.24,-2.75 8.24,-2.75 9.24,-2.75 10.24,-2.75 11.24,-2.75" />
<polyline points="-4.20,-3.00 -3.20,-1.80 -2.20,0.21 -1.20,0.61 -0.20,-3.00 0.80,-3.00 1.80,-3.00 2.80,-3.00 3.80,-3.00 4.80,-3.00 5.80,-3.00 6.80,-3.00 7.80,-3.00 8.80,-3.00 9.80,-3.00 10.80,-3.00" />
<polyline points="-4.63,-3.25 -3.63,-2.29 -2.63,-1.34 -1.63,-3.25 -0.63,-3.25 0.37,-3.25 1.37,-3.25 2.37,-3.25 3.37,-3.25 4.37,-3.25 5.37,-3.25 6.37,-3.25 7.37,-3.25 8.37,-3.25 9.37,-3.25 10.37,-3.25" />
<polyline points="-5.06,-3.50 -4.06,-2.94 -3.06,-3.50 -2.06,-3.50 -1.06,-3.50 -0.06,-3.50 0.94,-3.50 1.94,-3.50 2.94,-3.50 3.94,-3.50 4.94,-3.50 5.94,-3.50 6.94,-3.50 7.94,-3.50 8.94,-3.50 9.94,-3.50" />
<polyline points="-5.50,-3.75 -4.50,-3.75 -3.50,-3.75 -2.50,-3.75 -1.50,-3.75 -0.50,-3.75 0.50,-3.75 1.50,-3.75 2.50,-3.75 3.50,-3.75 4.50,-3.75 5.50,-3.75 6.50,-3.75 7.50,-3.75 8.50,-3.75 9.50,-3.75" />
<polyline points="-5.93,-4.00 -4.93,-4.00 -3.93,-4.00 -2.93,-4.00 -1.93,-4.00 -0.93,-4.00 0.07,-4.00 1.07,-4.00 2.07,-4.00 3.07,-4.00 4.07,-4.00 5.07,-4.00 6.07,-4.00 7.07,-4.00 8.07,-4.00 9.07,-4.00" />
</g>
</svg>