<svg xmlns="http://www.w3.org/2000/svg" width="100.0" height="100.0" viewBox="-5.000 -5.000 110.000 110.000">
<g fill="none" stroke="black" stroke-width="0.0050%" transform="translate(0, 100.0000) scale(100.0000, -100.0000)">
<circle cx="0.000" cy="0.000" r="0.005" />
<circle cx="0.000" cy="1.000" r="0.005" />
<circle cx="0.290" cy="0.203" r="0.005" />
<circle cx="0.469" cy="0.121" r="0.005" />
<circle cx="0.204" cy="0.113" r="0.005" />
<circle cx="0.119" cy="0.240" r="0.005" />
<circle cx="0.192" cy="0.197" r="0.005" />
<circle cx="0.190" cy="0.303" r="0.005" />
<circle cx="0.027" cy="0.554" r="0.005" />
<circle cx="0.240" cy="0.463" r="0.005" />
<circle cx="0.124" cy="0.162" r="0.005" />
<circle cx="0.181" cy="0.556" r="0.005" />
<circle cx="0.176" cy="0.209" r="0.005" />
<circle cx="0.188" cy="0.057" r="0.005" />
<circle cx="0.291" cy="0.370" r="0.005" />
<circle cx="0.432" cy="0.484" r="0.005" />
<circle cx="0.498" cy="0.167" r="0.005" />
<circle cx="0.119" cy="0.271" r="0.005" />
<circle cx="0.100" cy="0.315" r="0.005" />
<circle cx="0.332" cy="0.401" r="0.005" />
<circle cx="0.273" cy="0.226" r="0.005" />
<circle cx="0.236" cy="0.079" r="0.005" />
<circle cx="0.262" cy="0.129" r="0.005" />
<circle cx="0.415" cy="0.183" r="0.005" />
<circle cx="0.375" cy="0.180" r="0.005" />
<circle cx="0.223" cy="0.339" r="0.005" />
<circle cx="0.394" cy="0.287" r="0.005" />
<circle cx="0.413" cy="0.335" r="0.005" />
<circle cx="0.451" cy="0.070" r="0.005" />
<circle cx="0.263" cy="0.517" r="0.005" />
<circle cx="0.138" cy="0.615" r="0.005" />
<circle cx="0.204" cy="0.479" r="0.005" />
<circle cx="0.175" cy="0.579" r="0.005" />
<circle cx="0.097" cy="0.360" r="0.005" />
<circle cx="0.133" cy="0.153" r="0.005" />
<circle cx="0.142" cy="0.592" r="0.005" />
<circle cx="0.269" cy="0.443" r="0.005" />
<circle cx="0.238" cy="0.102" r="0.005" />
<circle cx="0.331" cy="0.417" r="0.005" />
<circle cx="0.650" cy="0.104" r="0.005" />
<circle cx="0.292" cy="0.070" r="0.005" />
<circle cx="0.246" cy="0.381" r="0.005" />
<circle cx="0.140" cy="0.081" r="0.005" />
<circle cx="0.253" cy="0.265" r="0.005" />
<circle cx="0.179" cy="0.315" r="0.005" />
<circle cx="0.356" cy="0.261" r="0.005" />
<circle cx="0.242" cy="0.272" r="0.005" />
<circle cx="0.192" cy="0.433" r="0.005" />
<circle cx="0.596" cy="0.215" r="0.005" />
<circle cx="0.385" cy="0.087" r="0.005" />
<circle cx="0.353" cy="0.504" r="0.005" />
<circle cx="0.411" cy="0.259" r="0.005" />
<circle cx="0.104" cy="0.486" r="0.005" />
<circle cx="0.174" cy="0.396" r="0.005" />
<circle cx="0.335" cy="0.130" r="0.005" />
<circle cx="0.207" cy="0.345" r="0.005" />
<circle cx="0.512" cy="0.225" r="0.005" />
<circle cx="0.213" cy="0.278" r="0.005" />
<circle cx="0.481" cy="0.390" r="0.005" />
<circle cx="0.284" cy="0.319" r="0.005" />
<circle cx="0.083" cy="0.509" r="0.005" />
<circle cx="0.495" cy="0.221" r="0.005" />
<circle cx="0.152" cy="0.212" r="0.005" />
<circle cx="0.247" cy="0.265" r="0.005" />
<circle cx="0.182" cy="0.391" r="0.005" />
<circle cx="0.088" cy="0.727" r="0.005" />
<circle cx="0.220" cy="0.386" r="0.005" />
<circle cx="0.342" cy="0.511" r="0.005" />
<circle cx="0.638" cy="0.176" r="0.005" />
<circle cx="0.130" cy="0.243" r="0.005" />
<circle cx="0.599" cy="0.128" r="0.005" />
<circle cx="0.367" cy="0.240" r="0.005" />
<circle cx="0.309" cy="0.128" r="0.005" />
<circle cx="0.175" cy="0.255" r="0.005" />
<circle cx="0.260" cy="0.057" r="0.005" />
<circle cx="0.373" cy="0.107" r="0.005" />
<circle cx="0.251" cy="0.349" r="0.005" />
<circle cx="0.240" cy="0.384" r="0.005" />
<circle cx="0.391" cy="0.354" r="0.005" />
<circle cx="0.279" cy="0.216" r="0.005" />
<circle cx="0.259" cy="0.088" r="0.005" />
<circle cx="0.185" cy="0.369" r="0.005" />
<circle cx="0.158" cy="0.561" r="0.005" />
<circle cx="0.077" cy="0.291" r="0.005" />
<circle cx="0.365" cy="0.334" r="0.005" />
<circle cx="0.123" cy="0.082" r="0.005" />
<circle cx="0.100" cy="0.466" r="0.005" />
<circle cx="0.144" cy="0.357" r="0.005" />
<circle cx="0.127" cy="0.534" r="0.005" />
<circle cx="0.402" cy="0.231" r="0.005" />
<circle cx="0.224" cy="0.239" r="0.005" />
<circle cx="0.126" cy="0.549" r="0.005" />
<circle cx="0.347" cy="0.253" r="0.005" />
<circle cx="0.177" cy="0.627" r="0.005" />
<circle cx="0.169" cy="0.411" r="0.005" />
<circle cx="0.448" cy="0.284" r="0.005" />
<circle cx="0.060" cy="0.103" r="0.005" />
<circle cx="0.698" cy="0.115" r="0.005" />
<circle cx="0.253" cy="0.141" r="0.005" />
<circle cx="0.359" cy="0.248" r="0.005" />
<circle cx="0.086" cy="0.409" r="0.005" />
<circle cx="0.089" cy="0.598" r="0.005" />
<circle cx="0.000" cy="0.000" r="0.005" />
<circle cx="1.000" cy="1.000" r="0.005" />
</g>
</svg>