<svg xmlns="http://www.w3.org/2000/svg" width="161.8" height="100.0" viewBox="3 -5 172 110">
<g fill="none" stroke="black" stroke-width="2.3700%" transform="translate(0, 100.0000) scale(0.2110, -0.2110)">
<circle cx="40" cy="0" r="2" />
<line x1="40" y1="0" x2="40" y2="421" />
<line x1="48" y1="0" x2="48" y2="0" />
<line x1="57" y1="0" x2="57" y2="0" />
<line x1="66" y1="0" x2="66" y2="0" />
<line x1="75" y1="0" x2="75" y2="444" />
<line x1="84" y1="0" x2="84" y2="0" />
<line x1="93" y1="0" x2="93" y2="0" />
<line x1="101" y1="0" x2="101" y2="0" />
<line x1="110" y1="0" x2="110" y2="474" />
<line x1="119" y1="0" x2="119" y2="0" />
<line x1="128" y1="0" x2="128" y2="0" />
<line x1="137" y1="0" x2="137" y2="0" />
<line x1="145" y1="0" x2="145" y2="432" />
<line x1="154" y1="0" x2="154" y2="0" />
<line x1="163" y1="0" x2="163" y2="0" />
<line x1="172" y1="0" x2="172" y2="0" />
<line x1="181" y1="0" x2="181" y2="444" />
<line x1="190" y1="0" x2="190" y2="0" />
<line x1="198" y1="0" x2="198" y2="0" />
<line x1="207" y1="0" x2="207" y2="0" />
<line x1="216" y1="0" x2="216" y2="464" />
<line x1="225" y1="0" x2="225" y2="0" />
<line x1="234" y1="0" x2="234" y2="0" />
<line x1="242" y1="0" x2="242" y2="0" />
<line x1="251" y1="0" x2="251" y2="401" />
<line x1="260" y1="0" x2="260" y2="0" />
<line x1="269" y1="0" x2="269" y2="0" />
<line x1="278" y1="0" x2="278" y2="0" />
<line x1="287" y1="0" x2="287" y2="401" />
<line x1="295" y1="0" x2="295" y2="0" />
<line x1="304" y1="0" x2="304" y2="0" />
<line x1="313" y1="0" x2="313" y2="0" />
<line x1="322" y1="0" x2="322" y2="440" />
<line x1="331" y1="0" x2="331" y2="0" />
<line x1="339" y1="0" x2="339" y2="0" />
<line x1="348" y1="0" x2="348" y2="0" />
<line x1="357" y1="0" x2="357" y2="410" />
<line x1="366" y1="0" x2="366" y2="0" />
<line x1="375" y1="0" x2="375" y2="0" />
<line x1="383" y1="0" x2="383" y2="0" />
<line x1="392" y1="0" x2="392" y2="389" />
<line x1="401" y1="0" x2="401" y2="0" />
<line x1="410" y1="0" x2="410" y2="0" />
<line x1="419" y1="0" x2="419" y2="0" />
<line x1="428" y1="0" x2="428" y2="429" />
<line x1="436" y1="0" x2="436" y2="0" />
<line x1="445" y1="0" x2="445" y2="0" />
<line x1="454" y1="0" x2="454" y2="0" />
<line x1="463" y1="0" x2="463" y2="450" />
<line x1="472" y1="0" x2="472" y2="0" />
<line x1="480" y1="0" x2="480" y2="0" />
<line x1="489" y1="0" x2="489" y2="0" />
<line x1="498" y1="0" x2="498" y2="417" />
<line x1="507" y1="0" x2="507" y2="0" />
<line x1="516" y1="0" x2="516" y2="0" />
<line x1="525" y1="0" x2="525" y2="0" />
<line x1="533" y1="0" x2="533" y2="438" />
<line x1="542" y1="0" x2="542" y2="0" />
<line x1="551" y1="0" x2="551" y2="0" />
<line x1="560" y1="0" x2="560" y2="0" />
<line x1="569" y1="0" x2="569" y2="452" />
<line x1="577" y1="0" x2="577" y2="0" />
<line x1="586" y1="0" x2="586" y2="0" />
<line x1="595" y1="0" x2="595" y2="0" />
<line x1="604" y1="0" x2="604" y2="463" />
<line x1="613" y1="0" x2="613" y2="0" />
<line x1="621" y1="0" x2="621" y2="0" />
<line x1="630" y1="0" x2="630" y2="0" />
<line x1="639" y1="0" x2="639" y2="441" />
<line x1="648" y1="0" x2="648" y2="0" />
<line x1="657" y1="0" x2="657" y2="0" />
<line x1="666" y1="0" x2="666" y2="0" />
<line x1="674" y1="0" x2="674" y2="430" />
<line x1="683" y1="0" x2="683" y2="0" />
<line x1="692" y1="0" x2="692" y2="0" />
<line x1="701" y1="0" x2="701" y2="0" />
<line x1="710" y1="0" x2="710" y2="428" />
<line x1="718" y1="0" x2="718" y2="0" />
<line x1="727" y1="0" x2="727" y2="0" />
<line x1="736" y1="0" x2="736" y2="0" />
<line x1="745" y1="0" x2="745" y2="464" />
<line x1="754" y1="0" x2="754" y2="0" />
<line x1="763" y1="0" x2="763" y2="0" />
<line x1="771" y1="0" x2="771" y2="0" />
<line x1="780" y1="0" x2="780" y2="442" />
<line x1="789" y1="0" x2="789" y2="0" />
<line x1="798" y1="0" x2="798" y2="0" />
<line x1="807" y1="0" x2="807" y2="426" />
</g>
</svg>