<svg xmlns="http://www.w3.org/2000/svg" width="165" height="55" viewBox="0 0 165 55">
<g stroke="none" transform="translate(0, 0) scale(1, 1)">
<rect x="0" y="0" width="11" height="11" fill="rgb(51,102,153)"/>
<rect x="0" y="11" width="11" height="11" fill="rgb(153,102,204)"/>
<rect x="0" y="22" width="11" height="11" fill="rgb(102,153,102)"/>
<rect x="0" y="33" width="11" height="11" fill="rgb(51,51,153)"/>
<rect x="0" y="44" width="11" height="11" fill="rgb(102,153,102)"/>
<rect x="11" y="0" width="11" height="11" fill="rgb(51,102,102)"/>
<rect x="11" y="11" width="11" height="11" fill="rgb(153,51,153)"/>
<rect x="11" y="22" width="11" height="11" fill="rgb(153,102,51)"/>
<rect x="11" y="33" width="11" height="11" fill="rgb(51,102,204)"/>
<rect x="11" y="44" width="11" height="11" fill="rgb(204,153,51)"/>
<rect x="22" y="0" width="11" height="11" fill="rgb(51,51,204)"/>
<rect x="22" y="11" width="11" height="11" fill="rgb(51,153,153)"/>
<rect x="22" y="22" width="11" height="11" fill="rgb(204,153,102)"/>
<rect x="22" y="33" width="11" height="11" fill="rgb(51,102,153)"/>
<rect x="22" y="44" width="11" height="11" fill="rgb(102,153,102)"/>
<rect x="33" y="0" width="11" height="11" fill="rgb(204,102,51)"/>
<rect x="33" y="11" width="11" height="11" fill="rgb(204,51,204)"/>
<rect x="33" y="22" width="11" height="11" fill="rgb(153,51,153)"/>
<rect x="33" y="33" width="11" height="11" fill="rgb(204,51,102)"/>
<rect x="33" y="44" width="11" height="11" fill="rgb(0,51,102)"/>
<rect x="44" y="0" width="11" height="11" fill="rgb(102,153,51)"/>
<rect x="44" y="11" width="11" height="11" fill="rgb(51,102,153)"/>
<rect x="44" y="22" width="11" height="11" fill="rgb(102,102,204)"/>
<rect x="44" y="33" width="11" height="11" fill="rgb(153,51,102)"/>
<rect x="44" y="44" width="11" height="11" fill="rgb(204,102,153)"/>
<rect x="55" y="0" width="11" height="11" fill="rgb(51,102,102)"/>
<rect x="55" y="11" width="11" height="11" fill="rgb(51,153,153)"/>
<rect x="55" y="22" width="11" height="11" fill="rgb(51,153,51)"/>
<rect x="55" y="33" width="11" height="11" fill="rgb(0,153,51)"/>
<rect x="55" y="44" width="11" height="11" fill="rgb(204,51,153)"/>
<rect x="66" y="0" width="11" height="11" fill="rgb(204,153,153)"/>
<rect x="66" y="11" width="11" height="11" fill="rgb(204,153,51)"/>
<rect x="66" y="22" width="11" height="11" fill="rgb(153,51,102)"/>
<rect x="66" y="33" width="11" height="11" fill="rgb(51,51,153)"/>
<rect x="66" y="44" width="11" height="11" fill="rgb(0,102,51)"/>
<rect x="77" y="0" width="11" height="11" fill="rgb(204,51,204)"/>
<rect x="77" y="11" width="11" height="11" fill="rgb(102,153,204)"/>
<rect x="77" y="22" width="11" height="11" fill="rgb(153,153,51)"/>
<rect x="77" y="33" width="11" height="11" fill="rgb(0,51,204)"/>
<rect x="77" y="44" width="11" height="11" fill="rgb(204,51,51)"/>
<rect x="88" y="0" width="11" height="11" fill="rgb(204,153,102)"/>
<rect x="88" y="11" width="11" height="11" fill="rgb(102,51,102)"/>
<rect x="88" y="22" width="11" height="11" fill="rgb(204,102,153)"/>
<rect x="88" y="33" width="11" height="11" fill="rgb(204,153,102)"/>
<rect x="88" y="44" width="11" height="11" fill="rgb(153,153,153)"/>
<rect x="99" y="0" width="11" height="11" fill="rgb(51,153,102)"/>
<rect x="99" y="11" width="11" height="11" fill="rgb(204,102,153)"/>
<rect x="99" y="22" width="11" height="11" fill="rgb(102,153,102)"/>
<rect x="99" y="33" width="11" height="11" fill="rgb(153,51,153)"/>
<rect x="99" y="44" width="11" height="11" fill="rgb(153,153,51)"/>
<rect x="110" y="0" width="11" height="11" fill="rgb(0,102,204)"/>
<rect x="110" y="11" width="11" height="11" fill="rgb(102,153,153)"/>
<rect x="110" y="22" width="11" height="11" fill="rgb(0,102,102)"/>
<rect x="110" y="33" width="11" height="11" fill="rgb(204,102,51)"/>
<rect x="110" y="44" width="11" height="11" fill="rgb(0,153,51)"/>
<rect x="121" y="0" width="11" height="11" fill="rgb(102,51,204)"/>
<rect x="121" y="11" width="11" height="11" fill="rgb(102,153,204)"/>
<rect x="121" y="22" width="11" height="11" fill="rgb(153,102,51)"/>
<rect x="121" y="33" width="11" height="11" fill="rgb(51,102,51)"/>
<rect x="121" y="44" width="11" height="11" fill="rgb(0,51,102)"/>
<rect x="132" y="0" width="11" height="11" fill="rgb(153,153,153)"/>
<rect x="132" y="11" width="11" height="11" fill="rgb(153,102,204)"/>
<rect x="132" y="22" width="11" height="11" fill="rgb(0,153,102)"/>
<rect x="132" y="33" width="11" height="11" fill="rgb(51,153,153)"/>
<rect x="132" y="44" width="11" height="11" fill="rgb(102,102,204)"/>
<rect x="143" y="0" width="11" height="11" fill="rgb(51,153,51)"/>
<rect x="143" y="11" width="11" height="11" fill="rgb(51,102,51)"/>
<rect x="143" y="22" width="11" height="11" fill="rgb(0,51,204)"/>
<rect x="143" y="33" width="11" height="11" fill="rgb(204,51,102)"/>
<rect x="143" y="44" width="11" height="11" fill="rgb(204,102,102)"/>
<rect x="154" y="0" width="11" height="11" fill="rgb(102,51,153)"/>
<rect x="154" y="11" width="11" height="11" fill="rgb(204,153,102)"/>
<rect x="154" y="22" width="11" height="11" fill="rgb(102,153,204)"/>
<rect x="154" y="33" width="11" height="11" fill="rgb(204,153,102)"/>
<rect x="154" y="44" width="11" height="11" fill="rgb(51,51,153)"/>
</g>
</svg>