<svg xmlns="http://www.w3.org/2000/svg" width="161.8" height="100.0" viewBox="-4.4 -47.9 171.8 110.0">
<g fill="none" stroke="black" stroke-width="0.3312%" transform="translate(0, 14.1640) scale(1.5095, -1.5095)">
<circle cx="0.4" cy="0.0" r="0.3" />
<line x1="0.4" y1="0.0" x2="0.4" y2="-11.0" />
<line x1="0.8" y1="0.0" x2="0.8" y2="-12.4" />
<line x1="1.3" y1="0.0" x2="1.3" y2="-13.6" />
<line x1="1.7" y1="0.0" x2="1.7" y2="-14.8" />
<line x1="2.1" y1="0.0" x2="2.1" y2="-15.8" />
<line x1="2.5" y1="0.0" x2="2.5" y2="-16.7" />
<line x1="2.9" y1="0.0" x2="2.9" y2="-17.4" />
<line x1="3.3" y1="0.0" x2="3.3" y2="-18.0" />
<line x1="3.8" y1="0.0" x2="3.8" y2="-18.5" />
<line x1="4.2" y1="0.0" x2="4.2" y2="-18.8" />
<line x1="4.6" y1="0.0" x2="4.6" y2="-19.0" />
<line x1="5.0" y1="0.0" x2="5.0" y2="-19.1" />
<line x1="5.4" y1="0.0" x2="5.4" y2="-19.0" />
<line x1="5.9" y1="0.0" x2="5.9" y2="-18.8" />
<line x1="6.3" y1="0.0" x2="6.3" y2="-18.5" />
<line x1="6.7" y1="0.0" x2="6.7" y2="-18.0" />
<line x1="7.1" y1="0.0" x2="7.1" y2="-17.4" />
<line x1="7.5" y1="0.0" x2="7.5" y2="-16.8" />
<line x1="8.0" y1="0.0" x2="8.0" y2="-16.0" />
<line x1="8.4" y1="0.0" x2="8.4" y2="-15.1" />
<line x1="8.8" y1="0.0" x2="8.8" y2="-14.2" />
<line x1="9.2" y1="0.0" x2="9.2" y2="-13.2" />
<line x1="9.6" y1="0.0" x2="9.6" y2="-12.1" />
<line x1="10.0" y1="0.0" x2="10.0" y2="-11.0" />
<line x1="10.5" y1="0.0" x2="10.5" y2="-9.8" />
<line x1="10.9" y1="0.0" x2="10.9" y2="-8.6" />
<line x1="11.3" y1="0.0" x2="11.3" y2="-7.4" />
<line x1="11.7" y1="0.0" x2="11.7" y2="-6.1" />
<line x1="12.1" y1="0.0" x2="12.1" y2="-4.9" />
<line x1="12.6" y1="0.0" x2="12.6" y2="-3.6" />
<line x1="13.0" y1="0.0" x2="13.0" y2="-2.4" />
<line x1="13.4" y1="0.0" x2="13.4" y2="-1.2" />
<line x1="13.8" y1="0.0" x2="13.8" y2="0.0" />
<line x1="14.2" y1="0.0" x2="14.2" y2="1.1" />
<line x1="14.7" y1="0.0" x2="14.7" y2="2.2" />
<line x1="15.1" y1="0.0" x2="15.1" y2="3.3" />
<line x1="15.5" y1="0.0" x2="15.5" y2="4.2" />
<line x1="15.9" y1="0.0" x2="15.9" y2="5.1" />
<line x1="16.3" y1="0.0" x2="16.3" y2="6.0" />
<line x1="16.7" y1="0.0" x2="16.7" y2="6.7" />
<line x1="17.2" y1="0.0" x2="17.2" y2="7.4" />
<line x1="17.6" y1="0.0" x2="17.6" y2="8.0" />
<line x1="18.0" y1="0.0" x2="18.0" y2="8.5" />
<line x1="18.4" y1="0.0" x2="18.4" y2="9.0" />
<line x1="18.8" y1="0.0" x2="18.8" y2="9.3" />
<line x1="19.3" y1="0.0" x2="19.3" y2="9.6" />
<line x1="19.7" y1="0.0" x2="19.7" y2="9.7" />
<line x1="20.1" y1="0.0" x2="20.1" y2="9.8" />
<line x1="20.5" y1="0.0" x2="20.5" y2="9.9" />
<line x1="20.9" y1="0.0" x2="20.9" y2="9.8" />
<line x1="21.4" y1="0.0" x2="21.4" y2="9.7" />
<line x1="21.8" y1="0.0" x2="21.8" y2="9.5" />
<line x1="22.2" y1="0.0" x2="22.2" y2="9.2" />
<line x1="22.6" y1="0.0" x2="22.6" y2="8.9" />
<line x1="23.0" y1="0.0" x2="23.0" y2="8.5" />
<line x1="23.4" y1="0.0" x2="23.4" y2="8.1" />
<line x1="23.9" y1="0.0" x2="23.9" y2="7.6" />
<line x1="24.3" y1="0.0" x2="24.3" y2="7.1" />
<line x1="24.7" y1="0.0" x2="24.7" y2="6.6" />
<line x1="25.1" y1="0.0" x2="25.1" y2="6.0" />
<line x1="25.5" y1="0.0" x2="25.5" y2="5.5" />
<line x1="26.0" y1="0.0" x2="26.0" y2="4.9" />
<line x1="26.4" y1="0.0" x2="26.4" y2="4.3" />
<line x1="26.8" y1="0.0" x2="26.8" y2="3.7" />
<line x1="27.2" y1="0.0" x2="27.2" y2="3.1" />
<line x1="27.6" y1="0.0" x2="27.6" y2="2.6" />
<line x1="28.1" y1="0.0" x2="28.1" y2="2.0" />
<line x1="28.5" y1="0.0" x2="28.5" y2="1.5" />
<line x1="28.9" y1="0.0" x2="28.9" y2="1.0" />
<line x1="29.3" y1="0.0" x2="29.3" y2="0.6" />
<line x1="29.7" y1="0.0" x2="29.7" y2="0.2" />
<line x1="30.1" y1="0.0" x2="30.1" y2="-0.2" />
<line x1="30.6" y1="0.0" x2="30.6" y2="-0.6" />
<line x1="31.0" y1="0.0" x2="31.0" y2="-0.9" />
<line x1="31.4" y1="0.0" x2="31.4" y2="-1.1" />
<line x1="31.8" y1="0.0" x2="31.8" y2="-1.3" />
<line x1="32.2" y1="0.0" x2="32.2" y2="-1.5" />
<line x1="32.7" y1="0.0" x2="32.7" y2="-1.6" />
<line x1="33.1" y1="0.0" x2="33.1" y2="-1.7" />
<line x1="33.5" y1="0.0" x2="33.5" y2="-1.7" />
<line x1="33.9" y1="0.0" x2="33.9" y2="-1.7" />
<line x1="34.3" y1="0.0" x2="34.3" y2="-1.6" />
<line x1="34.8" y1="0.0" x2="34.8" y2="-1.5" />
<line x1="35.2" y1="0.0" x2="35.2" y2="-1.4" />
<line x1="35.6" y1="0.0" x2="35.6" y2="-1.2" />
<line x1="36.0" y1="0.0" x2="36.0" y2="-1.0" />
<line x1="36.4" y1="0.0" x2="36.4" y2="-0.8" />
<line x1="36.8" y1="0.0" x2="36.8" y2="-0.6" />
<line x1="37.3" y1="0.0" x2="37.3" y2="-0.4" />
<line x1="37.7" y1="0.0" x2="37.7" y2="-0.1" />
<line x1="38.1" y1="0.0" x2="38.1" y2="0.1" />
<line x1="38.5" y1="0.0" x2="38.5" y2="0.3" />
<line x1="38.9" y1="0.0" x2="38.9" y2="0.6" />
<line x1="39.4" y1="0.0" x2="39.4" y2="0.8" />
<line x1="39.8" y1="0.0" x2="39.8" y2="1.0" />
<line x1="40.2" y1="0.0" x2="40.2" y2="1.2" />
<line x1="40.6" y1="0.0" x2="40.6" y2="1.4" />
<line x1="41.0" y1="0.0" x2="41.0" y2="1.5" />
<line x1="41.5" y1="0.0" x2="41.5" y2="1.6" />
<line x1="41.9" y1="0.0" x2="41.9" y2="1.7" />
<line x1="42.3" y1="0.0" x2="42.3" y2="1.7" />
<line x1="42.7" y1="0.0" x2="42.7" y2="1.7" />
<line x1="43.1" y1="0.0" x2="43.1" y2="1.6" />
<line x1="43.5" y1="0.0" x2="43.5" y2="1.5" />
<line x1="44.0" y1="0.0" x2="44.0" y2="1.4" />
<line x1="44.4" y1="0.0" x2="44.4" y2="1.2" />
<line x1="44.8" y1="0.0" x2="44.8" y2="0.9" />
<line x1="45.2" y1="0.0" x2="45.2" y2="0.6" />
<line x1="45.6" y1="0.0" x2="45.6" y2="0.3" />
<line x1="46.1" y1="0.0" x2="46.1" y2="-0.1" />
<line x1="46.5" y1="0.0" x2="46.5" y2="-0.5" />
<line x1="46.9" y1="0.0" x2="46.9" y2="-0.9" />
<line x1="47.3" y1="0.0" x2="47.3" y2="-1.4" />
<line x1="47.7" y1="0.0" x2="47.7" y2="-1.9" />
<line x1="48.2" y1="0.0" x2="48.2" y2="-2.5" />
<line x1="48.6" y1="0.0" x2="48.6" y2="-3.0" />
<line x1="49.0" y1="0.0" x2="49.0" y2="-3.6" />
<line x1="49.4" y1="0.0" x2="49.4" y2="-4.2" />
<line x1="49.8" y1="0.0" x2="49.8" y2="-4.8" />
<line x1="50.2" y1="0.0" x2="50.2" y2="-5.3" />
<line x1="50.7" y1="0.0" x2="50.7" y2="-5.9" />
<line x1="51.1" y1="0.0" x2="51.1" y2="-6.5" />
<line x1="51.5" y1="0.0" x2="51.5" y2="-7.0" />
<line x1="51.9" y1="0.0" x2="51.9" y2="-7.5" />
<line x1="52.3" y1="0.0" x2="52.3" y2="-8.0" />
<line x1="52.8" y1="0.0" x2="52.8" y2="-8.4" />
<line x1="53.2" y1="0.0" x2="53.2" y2="-8.8" />
<line x1="53.6" y1="0.0" x2="53.6" y2="-9.1" />
<line x1="54.0" y1="0.0" x2="54.0" y2="-9.4" />
<line x1="54.4" y1="0.0" x2="54.4" y2="-9.6" />
<line x1="54.8" y1="0.0" x2="54.8" y2="-9.8" />
<line x1="55.3" y1="0.0" x2="55.3" y2="-9.9" />
<line x1="55.7" y1="0.0" x2="55.7" y2="-9.9" />
<line x1="56.1" y1="0.0" x2="56.1" y2="-9.8" />
<line x1="56.5" y1="0.0" x2="56.5" y2="-9.6" />
<line x1="56.9" y1="0.0" x2="56.9" y2="-9.4" />
<line x1="57.4" y1="0.0" x2="57.4" y2="-9.0" />
<line x1="57.8" y1="0.0" x2="57.8" y2="-8.6" />
<line x1="58.2" y1="0.0" x2="58.2" y2="-8.1" />
<line x1="58.6" y1="0.0" x2="58.6" y2="-7.5" />
<line x1="59.0" y1="0.0" x2="59.0" y2="-6.9" />
<line x1="59.5" y1="0.0" x2="59.5" y2="-6.1" />
<line x1="59.9" y1="0.0" x2="59.9" y2="-5.3" />
<line x1="60.3" y1="0.0" x2="60.3" y2="-4.4" />
<line x1="60.7" y1="0.0" x2="60.7" y2="-3.5" />
<line x1="61.1" y1="0.0" x2="61.1" y2="-2.4" />
<line x1="61.5" y1="0.0" x2="61.5" y2="-1.4" />
<line x1="62.0" y1="0.0" x2="62.0" y2="-0.2" />
<line x1="62.4" y1="0.0" x2="62.4" y2="0.9" />
<line x1="62.8" y1="0.0" x2="62.8" y2="2.1" />
<line x1="63.2" y1="0.0" x2="63.2" y2="3.4" />
<line x1="63.6" y1="0.0" x2="63.6" y2="4.6" />
<line x1="64.1" y1="0.0" x2="64.1" y2="5.9" />
<line x1="64.5" y1="0.0" x2="64.5" y2="7.1" />
<line x1="64.9" y1="0.0" x2="64.9" y2="8.3" />
<line x1="65.3" y1="0.0" x2="65.3" y2="9.6" />
<line x1="65.7" y1="0.0" x2="65.7" y2="10.7" />
<line x1="66.2" y1="0.0" x2="66.2" y2="11.9" />
<line x1="66.6" y1="0.0" x2="66.6" y2="13.0" />
<line x1="67.0" y1="0.0" x2="67.0" y2="14.0" />
<line x1="67.4" y1="0.0" x2="67.4" y2="15.0" />
<line x1="67.8" y1="0.0" x2="67.8" y2="15.8" />
<line x1="68.2" y1="0.0" x2="68.2" y2="16.6" />
<line x1="68.7" y1="0.0" x2="68.7" y2="17.3" />
<line x1="69.1" y1="0.0" x2="69.1" y2="17.9" />
<line x1="69.5" y1="0.0" x2="69.5" y2="18.4" />
<line x1="69.9" y1="0.0" x2="69.9" y2="18.7" />
<line x1="70.3" y1="0.0" x2="70.3" y2="19.0" />
<line x1="70.8" y1="0.0" x2="70.8" y2="19.1" />
<line x1="71.2" y1="0.0" x2="71.2" y2="19.0" />
<line x1="71.6" y1="0.0" x2="71.6" y2="18.9" />
<line x1="72.0" y1="0.0" x2="72.0" y2="18.6" />
<line x1="72.4" y1="0.0" x2="72.4" y2="18.1" />
<line x1="72.9" y1="0.0" x2="72.9" y2="17.6" />
<line x1="73.3" y1="0.0" x2="73.3" y2="16.8" />
<line x1="73.7" y1="0.0" x2="73.7" y2="16.0" />
<line x1="74.1" y1="0.0" x2="74.1" y2="15.0" />
<line x1="74.5" y1="0.0" x2="74.5" y2="13.9" />
<line x1="74.9" y1="0.0" x2="74.9" y2="12.6" />
<line x1="75.4" y1="0.0" x2="75.4" y2="11.3" />
<line x1="75.8" y1="0.0" x2="75.8" y2="9.8" />
<line x1="76.2" y1="0.0" x2="76.2" y2="8.2" />
<line x1="76.6" y1="0.0" x2="76.6" y2="6.6" />
<line x1="77.0" y1="0.0" x2="77.0" y2="4.8" />
<line x1="77.5" y1="0.0" x2="77.5" y2="3.0" />
<line x1="77.9" y1="0.0" x2="77.9" y2="1.1" />
<line x1="78.3" y1="0.0" x2="78.3" y2="-0.8" />
<line x1="78.7" y1="0.0" x2="78.7" y2="-2.7" />
<line x1="79.1" y1="0.0" x2="79.1" y2="-4.7" />
<line x1="79.6" y1="0.0" x2="79.6" y2="-6.7" />
<line x1="80.0" y1="0.0" x2="80.0" y2="-8.7" />
<line x1="80.4" y1="0.0" x2="80.4" y2="-10.6" />
<line x1="80.8" y1="0.0" x2="80.8" y2="-12.6" />
<line x1="81.2" y1="0.0" x2="81.2" y2="-14.4" />
<line x1="81.6" y1="0.0" x2="81.6" y2="-16.3" />
<line x1="82.1" y1="0.0" x2="82.1" y2="-18.0" />
<line x1="82.5" y1="0.0" x2="82.5" y2="-19.6" />
<line x1="82.9" y1="0.0" x2="82.9" y2="-21.2" />
<line x1="83.3" y1="0.0" x2="83.3" y2="-22.6" />
<line x1="83.7" y1="0.0" x2="83.7" y2="-23.9" />
<line x1="84.2" y1="0.0" x2="84.2" y2="-25.0" />
<line x1="84.6" y1="0.0" x2="84.6" y2="-26.0" />
<line x1="85.0" y1="0.0" x2="85.0" y2="-26.9" />
<line x1="85.4" y1="0.0" x2="85.4" y2="-27.5" />
<line x1="85.8" y1="0.0" x2="85.8" y2="-28.0" />
<line x1="86.3" y1="0.0" x2="86.3" y2="-28.3" />
<line x1="86.7" y1="0.0" x2="86.7" y2="-28.4" />
<line x1="87.1" y1="0.0" x2="87.1" y2="-28.3" />
<line x1="87.5" y1="0.0" x2="87.5" y2="-28.1" />
<line x1="87.9" y1="0.0" x2="87.9" y2="-27.6" />
<line x1="88.3" y1="0.0" x2="88.3" y2="-26.9" />
<line x1="88.8" y1="0.0" x2="88.8" y2="-26.0" />
<line x1="89.2" y1="0.0" x2="89.2" y2="-25.0" />
<line x1="89.6" y1="0.0" x2="89.6" y2="-23.7" />
<line x1="90.0" y1="0.0" x2="90.0" y2="-22.3" />
<line x1="90.4" y1="0.0" x2="90.4" y2="-20.7" />
<line x1="90.9" y1="0.0" x2="90.9" y2="-18.9" />
<line x1="91.3" y1="0.0" x2="91.3" y2="-16.9" />
<line x1="91.7" y1="0.0" x2="91.7" y2="-14.9" />
<line x1="92.1" y1="0.0" x2="92.1" y2="-12.6" />
<line x1="92.5" y1="0.0" x2="92.5" y2="-10.3" />
<line x1="93.0" y1="0.0" x2="93.0" y2="-7.8" />
<line x1="93.4" y1="0.0" x2="93.4" y2="-5.3" />
<line x1="93.8" y1="0.0" x2="93.8" y2="-2.7" />
<line x1="94.2" y1="0.0" x2="94.2" y2="0.0" />
<line x1="94.6" y1="0.0" x2="94.6" y2="2.7" />
<line x1="95.0" y1="0.0" x2="95.0" y2="5.5" />
<line x1="95.5" y1="0.0" x2="95.5" y2="8.2" />
<line x1="95.9" y1="0.0" x2="95.9" y2="10.9" />
<line x1="96.3" y1="0.0" x2="96.3" y2="13.6" />
<line x1="96.7" y1="0.0" x2="96.7" y2="16.2" />
<line x1="97.1" y1="0.0" x2="97.1" y2="18.8" />
<line x1="97.6" y1="0.0" x2="97.6" y2="21.3" />
<line x1="98.0" y1="0.0" x2="98.0" y2="23.6" />
<line x1="98.4" y1="0.0" x2="98.4" y2="25.9" />
<line x1="98.8" y1="0.0" x2="98.8" y2="28.0" />
<line x1="99.2" y1="0.0" x2="99.2" y2="29.9" />
<line x1="99.7" y1="0.0" x2="99.7" y2="31.6" />
<line x1="100.1" y1="0.0" x2="100.1" y2="33.2" />
<line x1="100.5" y1="0.0" x2="100.5" y2="34.5" />
<line x1="100.9" y1="0.0" x2="100.9" y2="35.7" />
<line x1="101.3" y1="0.0" x2="101.3" y2="36.6" />
<line x1="101.7" y1="0.0" x2="101.7" y2="37.2" />
<line x1="102.2" y1="0.0" x2="102.2" y2="37.6" />
<line x1="102.6" y1="0.0" x2="102.6" y2="37.8" />
<line x1="103.0" y1="0.0" x2="103.0" y2="37.7" />
<line x1="103.4" y1="0.0" x2="103.4" y2="37.4" />
<line x1="103.8" y1="0.0" x2="103.8" y2="36.8" />
<line x1="104.3" y1="0.0" x2="104.3" y2="35.9" />
<line x1="104.7" y1="0.0" x2="104.7" y2="34.8" />
<line x1="105.1" y1="0.0" x2="105.1" y2="33.4" />
<line x1="105.5" y1="0.0" x2="105.5" y2="31.8" />
<line x1="105.9" y1="0.0" x2="105.9" y2="30.0" />
<line x1="106.4" y1="0.0" x2="106.4" y2="27.9" />
<line x1="106.8" y1="0.0" x2="106.8" y2="25.6" />
<line x1="107.2" y1="0.0" x2="107.2" y2="23.1" />
<line x1="107.6" y1="0.0" x2="107.6" y2="20.4" />
</g>
</svg>