<svg xmlns="http://www.w3.org/2000/svg" width="80.9" height="100.0" viewBox="-5.000 -5.000 90.902 110.000">
<g fill="none" stroke="black" stroke-width="0.0100%" transform="translate(0, 100.0000) scale(50.0000, -50.0000)">
<circle cx="0.000" cy="2.000" r="0.010" />
<line x1="0.000" y1="0.000" x2="0.000" y2="1.000" />
<line x1="0.033" y1="0.000" x2="0.033" y2="2.000" />
<line x1="0.066" y1="0.000" x2="0.066" y2="1.000" />
<line x1="0.099" y1="0.000" x2="0.099" y2="1.000" />
<line x1="0.132" y1="0.000" x2="0.132" y2="1.000" />
<line x1="0.165" y1="0.000" x2="0.165" y2="2.000" />
<line x1="0.198" y1="0.000" x2="0.198" y2="2.000" />
<line x1="0.231" y1="0.000" x2="0.231" y2="1.000" />
<line x1="0.264" y1="0.000" x2="0.264" y2="1.000" />
<line x1="0.297" y1="0.000" x2="0.297" y2="2.000" />
<line x1="0.330" y1="0.000" x2="0.330" y2="2.000" />
<line x1="0.363" y1="0.000" x2="0.363" y2="2.000" />
<line x1="0.396" y1="0.000" x2="0.396" y2="2.000" />
<line x1="0.429" y1="0.000" x2="0.429" y2="2.000" />
<line x1="0.462" y1="0.000" x2="0.462" y2="1.000" />
<line x1="0.495" y1="0.000" x2="0.495" y2="2.000" />
<line x1="0.528" y1="0.000" x2="0.528" y2="2.000" />
<line x1="0.561" y1="0.000" x2="0.561" y2="2.000" />
<line x1="0.594" y1="0.000" x2="0.594" y2="1.000" />
<line x1="0.627" y1="0.000" x2="0.627" y2="1.000" />
<line x1="0.660" y1="0.000" x2="0.660" y2="1.000" />
<line x1="0.693" y1="0.000" x2="0.693" y2="2.000" />
<line x1="0.726" y1="0.000" x2="0.726" y2="2.000" />
<line x1="0.759" y1="0.000" x2="0.759" y2="1.000" />
<line x1="0.793" y1="0.000" x2="0.793" y2="1.000" />
<line x1="0.826" y1="0.000" x2="0.826" y2="1.000" />
<line x1="0.859" y1="0.000" x2="0.859" y2="2.000" />
<line x1="0.892" y1="0.000" x2="0.892" y2="1.000" />
<line x1="0.925" y1="0.000" x2="0.925" y2="1.000" />
<line x1="0.958" y1="0.000" x2="0.958" y2="2.000" />
<line x1="0.991" y1="0.000" x2="0.991" y2="2.000" />
<line x1="1.024" y1="0.000" x2="1.024" y2="2.000" />
<line x1="1.057" y1="0.000" x2="1.057" y2="2.000" />
<line x1="1.090" y1="0.000" x2="1.090" y2="2.000" />
<line x1="1.123" y1="0.000" x2="1.123" y2="1.000" />
<line x1="1.156" y1="0.000" x2="1.156" y2="1.000" />
<line x1="1.189" y1="0.000" x2="1.189" y2="1.000" />
<line x1="1.222" y1="0.000" x2="1.222" y2="1.000" />
<line x1="1.255" y1="0.000" x2="1.255" y2="2.000" />
<line x1="1.288" y1="0.000" x2="1.288" y2="2.000" />
<line x1="1.321" y1="0.000" x2="1.321" y2="2.000" />
<line x1="1.354" y1="0.000" x2="1.354" y2="2.000" />
<line x1="1.387" y1="0.000" x2="1.387" y2="2.000" />
<line x1="1.420" y1="0.000" x2="1.420" y2="2.000" />
<line x1="1.453" y1="0.000" x2="1.453" y2="2.000" />
<line x1="1.486" y1="0.000" x2="1.486" y2="2.000" />
<line x1="1.519" y1="0.000" x2="1.519" y2="1.000" />
<line x1="1.552" y1="0.000" x2="1.552" y2="1.000" />
<line x1="1.585" y1="0.000" x2="1.585" y2="2.000" />
<line x1="1.618" y1="0.000" x2="1.618" y2="2.000" />
</g>
</svg>