<svg xmlns="http://www.w3.org/2000/svg" width="98.8" height="100.0" viewBox="-56.239 -54.007 108.792 110.000">
<g fill="none" stroke="black" stroke-width="0.0096%" transform="translate(0, 1.9855) scale(52.1913, -52.1913)">
<circle cx="-0.353" cy="-0.176" r="0.010" />
<circle cx="0.793" cy="0.580" r="0.010" />
<circle cx="0.148" cy="-0.864" r="0.010" />
<circle cx="0.158" cy="-0.939" r="0.010" />
<circle cx="0.227" cy="0.407" r="0.010" />
<circle cx="0.747" cy="-0.184" r="0.010" />
<circle cx="-0.269" cy="-0.604" r="0.010" />
<circle cx="0.546" cy="0.641" r="0.010" />
<circle cx="0.638" cy="-0.722" r="0.010" />
<circle cx="0.774" cy="-0.322" r="0.010" />
<circle cx="0.908" cy="-0.156" r="0.010" />
<circle cx="-0.210" cy="-0.170" r="0.010" />
<circle cx="-0.502" cy="-0.267" r="0.010" />
<circle cx="0.869" cy="0.140" r="0.010" />
<circle cx="0.495" cy="0.680" r="0.010" />
<circle cx="-0.255" cy="-0.255" r="0.010" />
<circle cx="0.239" cy="0.144" r="0.010" />
<circle cx="-0.013" cy="-0.816" r="0.010" />
<circle cx="0.095" cy="-0.131" r="0.010" />
<circle cx="-0.389" cy="0.312" r="0.010" />
<circle cx="0.066" cy="-0.898" r="0.010" />
<circle cx="0.515" cy="0.126" r="0.010" />
<circle cx="-0.114" cy="-0.858" r="0.010" />
<circle cx="-0.302" cy="0.901" r="0.010" />
<circle cx="-0.866" cy="-0.430" r="0.010" />
<circle cx="0.286" cy="-0.930" r="0.010" />
<circle cx="-0.408" cy="0.788" r="0.010" />
<circle cx="-0.833" cy="0.545" r="0.010" />
<circle cx="-0.772" cy="0.154" r="0.010" />
<circle cx="-0.039" cy="0.468" r="0.010" />
<circle cx="0.154" cy="0.977" r="0.010" />
<circle cx="0.871" cy="0.193" r="0.010" />
<circle cx="0.318" cy="-0.888" r="0.010" />
<circle cx="-0.754" cy="0.327" r="0.010" />
<circle cx="-0.012" cy="0.658" r="0.010" />
<circle cx="-0.489" cy="0.497" r="0.010" />
<circle cx="-0.516" cy="0.596" r="0.010" />
<circle cx="-0.137" cy="0.424" r="0.010" />
<circle cx="0.673" cy="-0.657" r="0.010" />
<circle cx="0.047" cy="-0.250" r="0.010" />
<circle cx="0.674" cy="-0.553" r="0.010" />
<circle cx="0.085" cy="-0.317" r="0.010" />
<circle cx="0.084" cy="-0.406" r="0.010" />
<circle cx="0.264" cy="-0.346" r="0.010" />
<circle cx="-0.104" cy="-0.510" r="0.010" />
<circle cx="-0.486" cy="0.631" r="0.010" />
<circle cx="0.739" cy="0.331" r="0.010" />
<circle cx="0.216" cy="-0.466" r="0.010" />
<circle cx="-0.415" cy="-0.148" r="0.010" />
<circle cx="0.251" cy="-0.588" r="0.010" />
<circle cx="0.631" cy="0.679" r="0.010" />
<circle cx="-0.922" cy="-0.265" r="0.010" />
<circle cx="0.017" cy="-0.844" r="0.010" />
<circle cx="0.143" cy="0.642" r="0.010" />
<circle cx="0.019" cy="0.155" r="0.010" />
<circle cx="-0.160" cy="-0.204" r="0.010" />
<circle cx="-0.332" cy="0.345" r="0.010" />
<circle cx="0.155" cy="0.512" r="0.010" />
<circle cx="-0.196" cy="0.319" r="0.010" />
<circle cx="0.791" cy="-0.463" r="0.010" />
<circle cx="-0.179" cy="0.124" r="0.010" />
<circle cx="-0.672" cy="-0.226" r="0.010" />
<circle cx="0.171" cy="-0.353" r="0.010" />
<circle cx="0.121" cy="-0.408" r="0.010" />
<circle cx="0.056" cy="-0.938" r="0.010" />
<circle cx="-0.313" cy="0.765" r="0.010" />
<circle cx="-0.605" cy="0.402" r="0.010" />
<circle cx="-0.040" cy="-0.266" r="0.010" />
<circle cx="0.658" cy="-0.115" r="0.010" />
<circle cx="-0.566" cy="-0.273" r="0.010" />
<circle cx="-0.383" cy="-0.130" r="0.010" />
<circle cx="-0.805" cy="-0.516" r="0.010" />
<circle cx="-0.019" cy="-0.561" r="0.010" />
<circle cx="-0.142" cy="-0.373" r="0.010" />
<circle cx="-0.783" cy="0.040" r="0.010" />
<circle cx="-0.854" cy="-0.243" r="0.010" />
<circle cx="-0.982" cy="-0.125" r="0.010" />
<circle cx="-0.506" cy="-0.361" r="0.010" />
<circle cx="-0.623" cy="-0.147" r="0.010" />
<circle cx="-0.744" cy="-0.303" r="0.010" />
<circle cx="0.873" cy="-0.433" r="0.010" />
<circle cx="0.623" cy="-0.759" r="0.010" />
<circle cx="0.340" cy="-0.613" r="0.010" />
<circle cx="0.360" cy="0.311" r="0.010" />
<circle cx="-0.136" cy="-0.687" r="0.010" />
<circle cx="-0.031" cy="0.448" r="0.010" />
<circle cx="0.480" cy="0.171" r="0.010" />
<circle cx="-0.345" cy="-0.803" r="0.010" />
<circle cx="-0.015" cy="-0.743" r="0.010" />
<circle cx="0.441" cy="0.843" r="0.010" />
<circle cx="0.911" cy="-0.124" r="0.010" />
<circle cx="0.893" cy="-0.254" r="0.010" />
<circle cx="0.202" cy="0.950" r="0.010" />
<circle cx="0.563" cy="-0.409" r="0.010" />
<circle cx="-0.643" cy="-0.285" r="0.010" />
<circle cx="0.165" cy="-0.394" r="0.010" />
<circle cx="0.508" cy="-0.613" r="0.010" />
<circle cx="-0.616" cy="0.712" r="0.010" />
<circle cx="0.391" cy="-0.126" r="0.010" />
<circle cx="-0.024" cy="-0.789" r="0.010" />
</g>
</svg>