<svg xmlns="http://www.w3.org/2000/svg" width="161.8" height="100.0" viewBox="-4.19 12.18 171.80 110.00">
<g fill="none" stroke="black" stroke-width="0.0202%" transform="translate(0, 134.3632) scale(24.7878, -24.7878)">
<circle cx="0.03" cy="0.69" r="0.02" />
<circle cx="0.07" cy="1.10" r="0.02" />
<circle cx="0.10" cy="0.69" r="0.02" />
<circle cx="0.13" cy="1.61" r="0.02" />
<circle cx="0.16" cy="0.69" r="0.02" />
<circle cx="0.20" cy="1.10" r="0.02" />
<circle cx="0.23" cy="1.95" r="0.02" />
<circle cx="0.26" cy="0.69" r="0.02" />
<circle cx="0.30" cy="1.10" r="0.02" />
<circle cx="0.33" cy="0.69" r="0.02" />
<circle cx="0.36" cy="1.61" r="0.02" />
<circle cx="0.39" cy="2.40" r="0.02" />
<circle cx="0.43" cy="0.69" r="0.02" />
<circle cx="0.46" cy="1.10" r="0.02" />
<circle cx="0.49" cy="2.56" r="0.02" />
<circle cx="0.52" cy="0.69" r="0.02" />
<circle cx="0.56" cy="1.95" r="0.02" />
<circle cx="0.59" cy="1.10" r="0.02" />
<circle cx="0.62" cy="1.61" r="0.02" />
<circle cx="0.66" cy="0.69" r="0.02" />
<circle cx="0.69" cy="2.83" r="0.02" />
<circle cx="0.72" cy="0.69" r="0.02" />
<circle cx="0.75" cy="1.10" r="0.02" />
<circle cx="0.79" cy="2.94" r="0.02" />
<circle cx="0.82" cy="0.69" r="0.02" />
<circle cx="0.85" cy="1.61" r="0.02" />
<circle cx="0.89" cy="1.10" r="0.02" />
<circle cx="0.92" cy="1.95" r="0.02" />
<circle cx="0.95" cy="0.69" r="0.02" />
<circle cx="0.98" cy="2.40" r="0.02" />
<circle cx="1.02" cy="3.14" r="0.02" />
<circle cx="1.05" cy="0.69" r="0.02" />
<circle cx="1.08" cy="1.10" r="0.02" />
<circle cx="1.12" cy="1.61" r="0.02" />
<circle cx="1.15" cy="0.69" r="0.02" />
<circle cx="1.18" cy="2.56" r="0.02" />
<circle cx="1.21" cy="1.10" r="0.02" />
<circle cx="1.25" cy="0.69" r="0.02" />
<circle cx="1.28" cy="1.95" r="0.02" />
<circle cx="1.31" cy="3.37" r="0.02" />
<circle cx="1.34" cy="0.69" r="0.02" />
<circle cx="1.38" cy="1.10" r="0.02" />
<circle cx="1.41" cy="1.61" r="0.02" />
<circle cx="1.44" cy="3.43" r="0.02" />
<circle cx="1.48" cy="0.69" r="0.02" />
<circle cx="1.51" cy="1.10" r="0.02" />
<circle cx="1.54" cy="2.40" r="0.02" />
<circle cx="1.57" cy="0.69" r="0.02" />
<circle cx="1.61" cy="2.83" r="0.02" />
<circle cx="1.64" cy="1.61" r="0.02" />
<circle cx="1.67" cy="1.95" r="0.02" />
<circle cx="1.71" cy="0.69" r="0.02" />
<circle cx="1.74" cy="1.10" r="0.02" />
<circle cx="1.77" cy="3.61" r="0.02" />
<circle cx="1.80" cy="0.69" r="0.02" />
<circle cx="1.84" cy="2.94" r="0.02" />
<circle cx="1.87" cy="1.10" r="0.02" />
<circle cx="1.90" cy="2.56" r="0.02" />
<circle cx="1.94" cy="0.69" r="0.02" />
<circle cx="1.97" cy="1.61" r="0.02" />
<circle cx="2.00" cy="3.71" r="0.02" />
<circle cx="2.03" cy="0.69" r="0.02" />
<circle cx="2.07" cy="1.10" r="0.02" />
<circle cx="2.10" cy="1.95" r="0.02" />
<circle cx="2.13" cy="3.76" r="0.02" />
<circle cx="2.16" cy="0.69" r="0.02" />
<circle cx="2.20" cy="2.40" r="0.02" />
<circle cx="2.23" cy="1.10" r="0.02" />
<circle cx="2.26" cy="1.61" r="0.02" />
<circle cx="2.30" cy="0.69" r="0.02" />
<circle cx="2.33" cy="3.14" r="0.02" />
<circle cx="2.36" cy="3.85" r="0.02" />
<circle cx="2.39" cy="0.69" r="0.02" />
<circle cx="2.43" cy="1.10" r="0.02" />
<circle cx="2.46" cy="1.95" r="0.02" />
<circle cx="2.49" cy="0.69" r="0.02" />
<circle cx="2.53" cy="1.61" r="0.02" />
<circle cx="2.56" cy="1.10" r="0.02" />
<circle cx="2.59" cy="2.83" r="0.02" />
<circle cx="2.62" cy="0.69" r="0.02" />
<circle cx="2.66" cy="2.56" r="0.02" />
<circle cx="2.69" cy="3.97" r="0.02" />
<circle cx="2.72" cy="0.69" r="0.02" />
<circle cx="2.76" cy="1.10" r="0.02" />
<circle cx="2.79" cy="1.61" r="0.02" />
<circle cx="2.82" cy="2.40" r="0.02" />
<circle cx="2.85" cy="0.69" r="0.02" />
<circle cx="2.89" cy="1.95" r="0.02" />
<circle cx="2.92" cy="1.10" r="0.02" />
<circle cx="2.95" cy="2.94" r="0.02" />
<circle cx="2.98" cy="0.69" r="0.02" />
<circle cx="3.02" cy="3.37" r="0.02" />
<circle cx="3.05" cy="4.08" r="0.02" />
<circle cx="3.08" cy="0.69" r="0.02" />
<circle cx="3.12" cy="1.10" r="0.02" />
<circle cx="3.15" cy="1.61" r="0.02" />
<circle cx="3.18" cy="4.11" r="0.02" />
<circle cx="3.21" cy="0.69" r="0.02" />
<circle cx="3.25" cy="3.43" r="0.02" />
<circle cx="3.28" cy="1.10" r="0.02" />
<circle cx="3.31" cy="1.95" r="0.02" />
<circle cx="3.35" cy="0.69" r="0.02" />
<circle cx="3.38" cy="1.61" r="0.02" />
<circle cx="3.41" cy="2.56" r="0.02" />
<circle cx="3.44" cy="0.69" r="0.02" />
<circle cx="3.48" cy="1.10" r="0.02" />
<circle cx="3.51" cy="2.40" r="0.02" />
<circle cx="3.54" cy="4.20" r="0.02" />
<circle cx="3.58" cy="0.69" r="0.02" />
<circle cx="3.61" cy="2.83" r="0.02" />
<circle cx="3.64" cy="1.10" r="0.02" />
<circle cx="3.67" cy="3.14" r="0.02" />
<circle cx="3.71" cy="0.69" r="0.02" />
<circle cx="3.74" cy="1.61" r="0.02" />
<circle cx="3.77" cy="1.95" r="0.02" />
<circle cx="3.80" cy="4.26" r="0.02" />
<circle cx="3.84" cy="0.69" r="0.02" />
<circle cx="3.87" cy="1.10" r="0.02" />
<circle cx="3.90" cy="4.29" r="0.02" />
<circle cx="3.94" cy="0.69" r="0.02" />
<circle cx="3.97" cy="3.61" r="0.02" />
<circle cx="4.00" cy="1.10" r="0.02" />
<circle cx="4.03" cy="1.61" r="0.02" />
<circle cx="4.07" cy="0.69" r="0.02" />
<circle cx="4.10" cy="2.94" r="0.02" />
<circle cx="4.13" cy="1.95" r="0.02" />
<circle cx="4.17" cy="2.40" r="0.02" />
<circle cx="4.20" cy="0.69" r="0.02" />
<circle cx="4.23" cy="1.10" r="0.02" />
<circle cx="4.26" cy="2.56" r="0.02" />
<circle cx="4.30" cy="4.37" r="0.02" />
<circle cx="4.33" cy="0.69" r="0.02" />
<circle cx="4.36" cy="1.61" r="0.02" />
<circle cx="4.40" cy="1.10" r="0.02" />
<circle cx="4.43" cy="0.69" r="0.02" />
<circle cx="4.46" cy="3.71" r="0.02" />
<circle cx="4.49" cy="4.42" r="0.02" />
<circle cx="4.53" cy="0.69" r="0.02" />
<circle cx="4.56" cy="1.10" r="0.02" />
<circle cx="4.59" cy="1.95" r="0.02" />
<circle cx="4.63" cy="1.61" r="0.02" />
<circle cx="4.66" cy="2.83" r="0.02" />
<circle cx="4.69" cy="0.69" r="0.02" />
<circle cx="4.72" cy="3.76" r="0.02" />
<circle cx="4.76" cy="1.10" r="0.02" />
<circle cx="4.79" cy="3.37" r="0.02" />
<circle cx="4.82" cy="0.69" r="0.02" />
<circle cx="4.85" cy="2.40" r="0.02" />
<circle cx="4.89" cy="4.49" r="0.02" />
<circle cx="4.92" cy="0.69" r="0.02" />
<circle cx="4.95" cy="1.10" r="0.02" />
<circle cx="4.99" cy="1.61" r="0.02" />
<circle cx="5.02" cy="1.95" r="0.02" />
<circle cx="5.05" cy="2.56" r="0.02" />
<circle cx="5.08" cy="0.69" r="0.02" />
<circle cx="5.12" cy="3.14" r="0.02" />
<circle cx="5.15" cy="1.10" r="0.02" />
<circle cx="5.18" cy="3.43" r="0.02" />
<circle cx="5.22" cy="0.69" r="0.02" />
<circle cx="5.25" cy="3.85" r="0.02" />
<circle cx="5.28" cy="1.61" r="0.02" />
<circle cx="5.31" cy="2.94" r="0.02" />
<circle cx="5.35" cy="0.69" r="0.02" />
<circle cx="5.38" cy="1.10" r="0.02" />
<circle cx="5.41" cy="4.57" r="0.02" />
<circle cx="5.45" cy="0.69" r="0.02" />
<circle cx="5.48" cy="1.95" r="0.02" />
<circle cx="5.51" cy="1.10" r="0.02" />
<circle cx="5.54" cy="2.40" r="0.02" />
<circle cx="5.58" cy="0.69" r="0.02" />
<circle cx="5.61" cy="1.61" r="0.02" />
<circle cx="5.64" cy="4.62" r="0.02" />
<circle cx="5.67" cy="0.69" r="0.02" />
<circle cx="5.71" cy="1.10" r="0.02" />
<circle cx="5.74" cy="2.83" r="0.02" />
<circle cx="5.77" cy="4.63" r="0.02" />
<circle cx="5.81" cy="0.69" r="0.02" />
<circle cx="5.84" cy="2.56" r="0.02" />
<circle cx="5.87" cy="1.10" r="0.02" />
<circle cx="5.90" cy="1.61" r="0.02" />
<circle cx="5.94" cy="1.95" r="0.02" />
<circle cx="5.97" cy="0.69" r="0.02" />
<circle cx="6.00" cy="3.97" r="0.02" />
<circle cx="6.04" cy="4.67" r="0.02" />
<circle cx="6.07" cy="0.69" r="0.02" />
<circle cx="6.10" cy="1.10" r="0.02" />
<circle cx="6.13" cy="4.69" r="0.02" />
<circle cx="6.17" cy="0.69" r="0.02" />
<circle cx="6.20" cy="1.61" r="0.02" />
<circle cx="6.23" cy="2.40" r="0.02" />
<circle cx="6.27" cy="1.10" r="0.02" />
<circle cx="6.30" cy="3.61" r="0.02" />
<circle cx="6.33" cy="0.69" r="0.02" />
<circle cx="6.36" cy="1.95" r="0.02" />
<circle cx="6.40" cy="4.73" r="0.02" />
<circle cx="6.43" cy="0.69" r="0.02" />
<circle cx="6.46" cy="1.10" r="0.02" />
<circle cx="6.49" cy="2.94" r="0.02" />
<circle cx="6.53" cy="1.61" r="0.02" />
<circle cx="6.56" cy="3.14" r="0.02" />
</g>
</svg>