<svg xmlns="http://www.w3.org/2000/svg" width="161.8" height="100.0" viewBox="-85.902 -55.000 171.803 110.000">
<g fill="none" stroke="black" stroke-width="0.0050%" transform="translate(0, 0.0000) scale(100.0000, -100.0000)">
<circle cx="-0.809" cy="0.000" r="0.005" />
<circle cx="0.000" cy="0.500" r="0.005" />
<polyline points="-0.809,-0.500 -0.793,-0.495 -0.777,-0.490 -0.760,-0.485 -0.744,-0.479 -0.728,-0.474 -0.712,-0.468 -0.696,-0.462 -0.680,-0.457 -0.663,-0.451 -0.647,-0.444 -0.631,-0.438 -0.615,-0.432 -0.599,-0.425 -0.582,-0.419 -0.566,-0.412 -0.550,-0.405 -0.534,-0.398 -0.518,-0.390 -0.502,-0.383 -0.485,-0.375 -0.469,-0.367 -0.453,-0.359 -0.437,-0.351 -0.421,-0.342 -0.405,-0.333 -0.388,-0.324 -0.372,-0.315 -0.356,-0.306 -0.340,-0.296 -0.324,-0.286 -0.307,-0.275 -0.291,-0.265 -0.275,-0.254 -0.259,-0.242 -0.243,-0.231 -0.227,-0.219 -0.210,-0.206 -0.194,-0.194 -0.178,-0.180 -0.162,-0.167 -0.146,-0.153 -0.129,-0.138 -0.113,-0.123 -0.097,-0.107 -0.081,-0.091 -0.065,-0.074 -0.049,-0.057 -0.032,-0.038 -0.016,-0.020 0.000,0.000 0.016,0.020 0.032,0.038 0.049,0.057 0.065,0.074 0.081,0.091 0.097,0.107 0.113,0.123 0.129,0.138 0.146,0.153 0.162,0.167 0.178,0.180 0.194,0.194 0.210,0.206 0.227,0.219 0.243,0.231 0.259,0.242 0.275,0.254 0.291,0.265 0.307,0.275 0.324,0.286 0.340,0.296 0.356,0.306 0.372,0.315 0.388,0.324 0.405,0.333 0.421,0.342 0.437,0.351 0.453,0.359 0.469,0.367 0.485,0.375 0.502,0.383 0.518,0.390 0.534,0.398 0.550,0.405 0.566,0.412 0.582,0.419 0.599,0.425 0.615,0.432 0.631,0.438 0.647,0.444 0.663,0.451 0.680,0.457 0.696,0.462 0.712,0.468 0.728,0.474 0.744,0.479 0.760,0.485 0.777,0.490 0.793,0.495 0.809,0.500" />
</g>
</svg>