<svg xmlns="http://www.w3.org/2000/svg" width="161.8" height="100.0" viewBox="-4.2 -5.0 171.8 110.0">
<g fill="none" stroke="black" stroke-width="0.2077%" transform="translate(0, 100.0000) scale(2.4071, -2.4071)">
<circle cx="0.3" cy="0.0" r="0.2" />
<circle cx="0.7" cy="0.0" r="0.2" />
<circle cx="1.0" cy="0.0" r="0.2" />
<circle cx="1.4" cy="0.7" r="0.2" />
<circle cx="1.7" cy="0.0" r="0.2" />
<circle cx="2.0" cy="1.8" r="0.2" />
<circle cx="2.4" cy="0.0" r="0.2" />
<circle cx="2.7" cy="2.1" r="0.2" />
<circle cx="3.0" cy="1.1" r="0.2" />
<circle cx="3.4" cy="2.3" r="0.2" />
<circle cx="3.7" cy="0.0" r="0.2" />
<circle cx="4.1" cy="5.0" r="0.2" />
<circle cx="4.4" cy="0.0" r="0.2" />
<circle cx="4.7" cy="2.6" r="0.2" />
<circle cx="5.1" cy="2.7" r="0.2" />
<circle cx="5.4" cy="4.2" r="0.2" />
<circle cx="5.7" cy="0.0" r="0.2" />
<circle cx="6.1" cy="5.8" r="0.2" />
<circle cx="6.4" cy="0.0" r="0.2" />
<circle cx="6.8" cy="6.0" r="0.2" />
<circle cx="7.1" cy="3.0" r="0.2" />
<circle cx="7.4" cy="3.1" r="0.2" />
<circle cx="7.8" cy="0.0" r="0.2" />
<circle cx="8.1" cy="9.5" r="0.2" />
<circle cx="8.4" cy="1.6" r="0.2" />
<circle cx="8.8" cy="3.3" r="0.2" />
<circle cx="9.1" cy="3.3" r="0.2" />
<circle cx="9.5" cy="6.7" r="0.2" />
<circle cx="9.8" cy="0.0" r="0.2" />
<circle cx="10.1" cy="10.2" r="0.2" />
<circle cx="10.5" cy="0.0" r="0.2" />
<circle cx="10.8" cy="6.9" r="0.2" />
<circle cx="11.1" cy="3.5" r="0.2" />
<circle cx="11.5" cy="3.5" r="0.2" />
<circle cx="11.8" cy="3.6" r="0.2" />
<circle cx="12.2" cy="12.5" r="0.2" />
<circle cx="12.5" cy="0.0" r="0.2" />
<circle cx="12.8" cy="3.6" r="0.2" />
<circle cx="13.2" cy="3.7" r="0.2" />
<circle cx="13.5" cy="11.1" r="0.2" />
<circle cx="13.8" cy="0.0" r="0.2" />
<circle cx="14.2" cy="11.2" r="0.2" />
<circle cx="14.5" cy="0.0" r="0.2" />
<circle cx="14.9" cy="7.6" r="0.2" />
<circle cx="15.2" cy="7.6" r="0.2" />
<circle cx="15.5" cy="3.8" r="0.2" />
<circle cx="15.9" cy="0.0" r="0.2" />
<circle cx="16.2" cy="15.5" r="0.2" />
<circle cx="16.6" cy="1.9" r="0.2" />
<circle cx="16.9" cy="7.8" r="0.2" />
<circle cx="17.2" cy="3.9" r="0.2" />
<circle cx="17.6" cy="7.9" r="0.2" />
<circle cx="17.9" cy="0.0" r="0.2" />
<circle cx="18.2" cy="12.0" r="0.2" />
<circle cx="18.6" cy="4.0" r="0.2" />
<circle cx="18.9" cy="12.1" r="0.2" />
<circle cx="19.3" cy="4.0" r="0.2" />
<circle cx="19.6" cy="4.1" r="0.2" />
<circle cx="19.9" cy="0.0" r="0.2" />
<circle cx="20.3" cy="20.5" r="0.2" />
<circle cx="20.6" cy="0.0" r="0.2" />
<circle cx="20.9" cy="4.1" r="0.2" />
<circle cx="21.3" cy="8.3" r="0.2" />
<circle cx="21.6" cy="10.4" r="0.2" />
<circle cx="22.0" cy="4.2" r="0.2" />
<circle cx="22.3" cy="12.6" r="0.2" />
<circle cx="22.6" cy="0.0" r="0.2" />
<circle cx="23.0" cy="8.4" r="0.2" />
<circle cx="23.3" cy="4.2" r="0.2" />
<circle cx="23.6" cy="12.7" r="0.2" />
<circle cx="24.0" cy="0.0" r="0.2" />
<circle cx="24.3" cy="21.4" r="0.2" />
<circle cx="24.7" cy="0.0" r="0.2" />
<circle cx="25.0" cy="4.3" r="0.2" />
<circle cx="25.3" cy="8.6" r="0.2" />
<circle cx="25.7" cy="8.7" r="0.2" />
<circle cx="26.0" cy="4.3" r="0.2" />
<circle cx="26.3" cy="13.1" r="0.2" />
<circle cx="26.7" cy="0.0" r="0.2" />
<circle cx="27.0" cy="17.5" r="0.2" />
<circle cx="27.4" cy="6.6" r="0.2" />
<circle cx="27.7" cy="4.4" r="0.2" />
<circle cx="28.0" cy="0.0" r="0.2" />
<circle cx="28.4" cy="22.2" r="0.2" />
<circle cx="28.7" cy="4.4" r="0.2" />
<circle cx="29.0" cy="4.5" r="0.2" />
<circle cx="29.4" cy="4.5" r="0.2" />
<circle cx="29.7" cy="13.4" r="0.2" />
<circle cx="30.1" cy="0.0" r="0.2" />
<circle cx="30.4" cy="22.5" r="0.2" />
<circle cx="30.7" cy="4.5" r="0.2" />
<circle cx="31.1" cy="9.0" r="0.2" />
<circle cx="31.4" cy="4.5" r="0.2" />
<circle cx="31.8" cy="4.5" r="0.2" />
<circle cx="32.1" cy="4.6" r="0.2" />
<circle cx="32.4" cy="22.8" r="0.2" />
<circle cx="32.8" cy="0.0" r="0.2" />
<circle cx="33.1" cy="9.2" r="0.2" />
<circle cx="33.4" cy="9.2" r="0.2" />
<circle cx="33.8" cy="16.1" r="0.2" />
<circle cx="34.1" cy="0.0" r="0.2" />
<circle cx="34.5" cy="13.9" r="0.2" />
<circle cx="34.8" cy="0.0" r="0.2" />
<circle cx="35.1" cy="13.9" r="0.2" />
<circle cx="35.5" cy="14.0" r="0.2" />
<circle cx="35.8" cy="4.7" r="0.2" />
<circle cx="36.1" cy="0.0" r="0.2" />
<circle cx="36.5" cy="23.4" r="0.2" />
<circle cx="36.8" cy="0.0" r="0.2" />
<circle cx="37.2" cy="14.1" r="0.2" />
<circle cx="37.5" cy="4.7" r="0.2" />
<circle cx="37.8" cy="18.9" r="0.2" />
<circle cx="38.2" cy="0.0" r="0.2" />
<circle cx="38.5" cy="14.2" r="0.2" />
<circle cx="38.8" cy="4.7" r="0.2" />
<circle cx="39.2" cy="9.5" r="0.2" />
<circle cx="39.5" cy="9.5" r="0.2" />
<circle cx="39.9" cy="4.8" r="0.2" />
<circle cx="40.2" cy="4.8" r="0.2" />
<circle cx="40.5" cy="33.5" r="0.2" />
<circle cx="40.9" cy="2.4" r="0.2" />
<circle cx="41.2" cy="4.8" r="0.2" />
<circle cx="41.5" cy="4.8" r="0.2" />
<circle cx="41.9" cy="9.6" r="0.2" />
<circle cx="42.2" cy="4.8" r="0.2" />
<circle cx="42.6" cy="24.2" r="0.2" />
<circle cx="42.9" cy="0.0" r="0.2" />
<circle cx="43.2" cy="14.6" r="0.2" />
<circle cx="43.6" cy="4.9" r="0.2" />
<circle cx="43.9" cy="14.6" r="0.2" />
<circle cx="44.2" cy="0.0" r="0.2" />
<circle cx="44.6" cy="24.4" r="0.2" />
<circle cx="44.9" cy="4.9" r="0.2" />
<circle cx="45.3" cy="4.9" r="0.2" />
<circle cx="45.6" cy="14.7" r="0.2" />
<circle cx="45.9" cy="14.7" r="0.2" />
<circle cx="46.3" cy="0.0" r="0.2" />
<circle cx="46.6" cy="14.8" r="0.2" />
<circle cx="47.0" cy="0.0" r="0.2" />
<circle cx="47.3" cy="24.7" r="0.2" />
<circle cx="47.6" cy="4.9" r="0.2" />
<circle cx="48.0" cy="5.0" r="0.2" />
<circle cx="48.3" cy="5.0" r="0.2" />
<circle cx="48.6" cy="32.3" r="0.2" />
<circle cx="49.0" cy="5.0" r="0.2" />
<circle cx="49.3" cy="5.0" r="0.2" />
<circle cx="49.7" cy="10.0" r="0.2" />
<circle cx="50.0" cy="10.0" r="0.2" />
<circle cx="50.3" cy="0.0" r="0.2" />
<circle cx="50.7" cy="25.1" r="0.2" />
<circle cx="51.0" cy="0.0" r="0.2" />
<circle cx="51.3" cy="15.1" r="0.2" />
<circle cx="51.7" cy="10.1" r="0.2" />
<circle cx="52.0" cy="15.1" r="0.2" />
<circle cx="52.4" cy="5.0" r="0.2" />
<circle cx="52.7" cy="25.2" r="0.2" />
<circle cx="53.0" cy="0.0" r="0.2" />
<circle cx="53.4" cy="5.1" r="0.2" />
<circle cx="53.7" cy="5.1" r="0.2" />
<circle cx="54.0" cy="25.4" r="0.2" />
<circle cx="54.4" cy="5.1" r="0.2" />
<circle cx="54.7" cy="20.4" r="0.2" />
<circle cx="55.1" cy="0.0" r="0.2" />
<circle cx="55.4" cy="10.2" r="0.2" />
<circle cx="55.7" cy="15.3" r="0.2" />
<circle cx="56.1" cy="5.1" r="0.2" />
<circle cx="56.4" cy="0.0" r="0.2" />
<circle cx="56.7" cy="35.9" r="0.2" />
<circle cx="57.1" cy="2.6" r="0.2" />
<circle cx="57.4" cy="15.4" r="0.2" />
<circle cx="57.8" cy="10.3" r="0.2" />
<circle cx="58.1" cy="10.3" r="0.2" />
<circle cx="58.4" cy="0.0" r="0.2" />
<circle cx="58.8" cy="15.5" r="0.2" />
<circle cx="59.1" cy="10.3" r="0.2" />
<circle cx="59.5" cy="20.7" r="0.2" />
<circle cx="59.8" cy="5.2" r="0.2" />
<circle cx="60.1" cy="5.2" r="0.2" />
<circle cx="60.5" cy="0.0" r="0.2" />
<circle cx="60.8" cy="41.5" r="0.2" />
<circle cx="61.1" cy="0.0" r="0.2" />
<circle cx="61.5" cy="15.6" r="0.2" />
<circle cx="61.8" cy="5.2" r="0.2" />
<circle cx="62.2" cy="15.6" r="0.2" />
<circle cx="62.5" cy="5.2" r="0.2" />
<circle cx="62.8" cy="15.7" r="0.2" />
<circle cx="63.2" cy="5.2" r="0.2" />
<circle cx="63.5" cy="10.5" r="0.2" />
<circle cx="63.8" cy="15.7" r="0.2" />
<circle cx="64.2" cy="15.7" r="0.2" />
<circle cx="64.5" cy="0.0" r="0.2" />
<circle cx="64.9" cy="31.5" r="0.2" />
<circle cx="65.2" cy="0.0" r="0.2" />
<circle cx="65.5" cy="5.3" r="0.2" />
<circle cx="65.9" cy="15.8" r="0.2" />
<circle cx="66.2" cy="18.5" r="0.2" />
<circle cx="66.5" cy="0.0" r="0.2" />
<circle cx="66.9" cy="26.4" r="0.2" />
<circle cx="67.2" cy="0.0" r="0.2" />
<circle cx="67.6" cy="26.5" r="0.2" />
</g>
</svg>