<svg xmlns="http://www.w3.org/2000/svg" width="161.8" height="100.0" viewBox="-3.92 -5.00 171.80 110.00">
<g fill="none" stroke="black" stroke-width="0.0400%" transform="translate(0, 100.0000) scale(12.5000, -12.5000)">
<circle cx="0.09" cy="0.00" r="0.04" />
<circle cx="0.17" cy="1.00" r="0.04" />
<circle cx="0.26" cy="1.00" r="0.04" />
<circle cx="0.35" cy="2.00" r="0.04" />
<circle cx="0.43" cy="2.00" r="0.04" />
<circle cx="0.52" cy="1.00" r="0.04" />
<circle cx="0.60" cy="2.00" r="0.04" />
<circle cx="0.69" cy="2.00" r="0.04" />
<circle cx="0.78" cy="2.00" r="0.04" />
<circle cx="0.86" cy="1.00" r="0.04" />
<circle cx="0.95" cy="1.00" r="0.04" />
<circle cx="1.04" cy="1.00" r="0.04" />
<circle cx="1.12" cy="3.00" r="0.04" />
<circle cx="1.21" cy="2.00" r="0.04" />
<circle cx="1.29" cy="3.00" r="0.04" />
<circle cx="1.38" cy="2.00" r="0.04" />
<circle cx="1.47" cy="1.00" r="0.04" />
<circle cx="1.55" cy="1.00" r="0.04" />
<circle cx="1.64" cy="3.00" r="0.04" />
<circle cx="1.73" cy="1.00" r="0.04" />
<circle cx="1.81" cy="2.00" r="0.04" />
<circle cx="1.90" cy="2.00" r="0.04" />
<circle cx="1.98" cy="1.00" r="0.04" />
<circle cx="2.07" cy="1.00" r="0.04" />
<circle cx="2.16" cy="4.00" r="0.04" />
<circle cx="2.24" cy="1.00" r="0.04" />
<circle cx="2.33" cy="1.00" r="0.04" />
<circle cx="2.42" cy="1.00" r="0.04" />
<circle cx="2.50" cy="2.00" r="0.04" />
<circle cx="2.59" cy="1.00" r="0.04" />
<circle cx="2.68" cy="3.00" r="0.04" />
<circle cx="2.76" cy="3.00" r="0.04" />
<circle cx="2.85" cy="3.00" r="0.04" />
<circle cx="2.93" cy="1.00" r="0.04" />
<circle cx="3.02" cy="1.00" r="0.04" />
<circle cx="3.11" cy="1.00" r="0.04" />
<circle cx="3.19" cy="3.00" r="0.04" />
<circle cx="3.28" cy="1.00" r="0.04" />
<circle cx="3.37" cy="2.00" r="0.04" />
<circle cx="3.45" cy="2.00" r="0.04" />
<circle cx="3.54" cy="2.00" r="0.04" />
<circle cx="3.62" cy="1.00" r="0.04" />
<circle cx="3.71" cy="4.00" r="0.04" />
<circle cx="3.80" cy="1.00" r="0.04" />
<circle cx="3.88" cy="2.00" r="0.04" />
<circle cx="3.97" cy="2.00" r="0.04" />
<circle cx="4.06" cy="1.00" r="0.04" />
<circle cx="4.14" cy="1.00" r="0.04" />
<circle cx="4.23" cy="5.00" r="0.04" />
<circle cx="4.31" cy="1.00" r="0.04" />
<circle cx="4.40" cy="1.00" r="0.04" />
<circle cx="4.49" cy="1.00" r="0.04" />
<circle cx="4.57" cy="1.00" r="0.04" />
<circle cx="4.66" cy="1.00" r="0.04" />
<circle cx="4.75" cy="3.00" r="0.04" />
<circle cx="4.83" cy="1.00" r="0.04" />
<circle cx="4.92" cy="3.00" r="0.04" />
<circle cx="5.01" cy="2.00" r="0.04" />
<circle cx="5.09" cy="1.00" r="0.04" />
<circle cx="5.18" cy="1.00" r="0.04" />
<circle cx="5.26" cy="6.00" r="0.04" />
<circle cx="5.35" cy="1.00" r="0.04" />
<circle cx="5.44" cy="3.00" r="0.04" />
<circle cx="5.52" cy="2.00" r="0.04" />
<circle cx="5.61" cy="1.00" r="0.04" />
<circle cx="5.70" cy="1.00" r="0.04" />
<circle cx="5.78" cy="1.00" r="0.04" />
<circle cx="5.87" cy="1.00" r="0.04" />
<circle cx="5.95" cy="2.00" r="0.04" />
<circle cx="6.04" cy="1.00" r="0.04" />
<circle cx="6.13" cy="1.00" r="0.04" />
<circle cx="6.21" cy="1.00" r="0.04" />
<circle cx="6.30" cy="8.00" r="0.04" />
<circle cx="6.39" cy="1.00" r="0.04" />
<circle cx="6.47" cy="2.00" r="0.04" />
<circle cx="6.56" cy="1.00" r="0.04" />
<circle cx="6.64" cy="1.00" r="0.04" />
<circle cx="6.73" cy="1.00" r="0.04" />
<circle cx="6.82" cy="2.00" r="0.04" />
<circle cx="6.90" cy="1.00" r="0.04" />
<circle cx="6.99" cy="3.00" r="0.04" />
<circle cx="7.08" cy="1.00" r="0.04" />
<circle cx="7.16" cy="1.00" r="0.04" />
<circle cx="7.25" cy="1.00" r="0.04" />
<circle cx="7.34" cy="6.00" r="0.04" />
<circle cx="7.42" cy="1.00" r="0.04" />
<circle cx="7.51" cy="1.00" r="0.04" />
<circle cx="7.59" cy="1.00" r="0.04" />
<circle cx="7.68" cy="1.00" r="0.04" />
<circle cx="7.77" cy="1.00" r="0.04" />
<circle cx="7.85" cy="5.00" r="0.04" />
<circle cx="7.94" cy="2.00" r="0.04" />
<circle cx="8.03" cy="1.00" r="0.04" />
<circle cx="8.11" cy="3.00" r="0.04" />
<circle cx="8.20" cy="1.00" r="0.04" />
<circle cx="8.28" cy="1.00" r="0.04" />
<circle cx="8.37" cy="5.00" r="0.04" />
<circle cx="8.46" cy="1.00" r="0.04" />
<circle cx="8.54" cy="3.00" r="0.04" />
<circle cx="8.63" cy="1.00" r="0.04" />
<circle cx="8.72" cy="1.00" r="0.04" />
<circle cx="8.80" cy="1.00" r="0.04" />
<circle cx="8.89" cy="2.00" r="0.04" />
<circle cx="8.97" cy="1.00" r="0.04" />
<circle cx="9.06" cy="3.00" r="0.04" />
<circle cx="9.15" cy="2.00" r="0.04" />
<circle cx="9.23" cy="1.00" r="0.04" />
<circle cx="9.32" cy="1.00" r="0.04" />
<circle cx="9.41" cy="4.00" r="0.04" />
<circle cx="9.49" cy="1.00" r="0.04" />
<circle cx="9.58" cy="2.00" r="0.04" />
<circle cx="9.67" cy="1.00" r="0.04" />
<circle cx="9.75" cy="3.00" r="0.04" />
<circle cx="9.84" cy="1.00" r="0.04" />
<circle cx="9.92" cy="3.00" r="0.04" />
<circle cx="10.01" cy="1.00" r="0.04" />
<circle cx="10.10" cy="1.00" r="0.04" />
<circle cx="10.18" cy="2.00" r="0.04" />
<circle cx="10.27" cy="1.00" r="0.04" />
<circle cx="10.36" cy="1.00" r="0.04" />
<circle cx="10.44" cy="6.00" r="0.04" />
<circle cx="10.53" cy="2.00" r="0.04" />
<circle cx="10.61" cy="1.00" r="0.04" />
<circle cx="10.70" cy="1.00" r="0.04" />
<circle cx="10.79" cy="4.00" r="0.04" />
<circle cx="10.87" cy="1.00" r="0.04" />
<circle cx="10.96" cy="4.00" r="0.04" />
<circle cx="11.05" cy="2.00" r="0.04" />
<circle cx="11.13" cy="3.00" r="0.04" />
<circle cx="11.22" cy="1.00" r="0.04" />
<circle cx="11.30" cy="1.00" r="0.04" />
<circle cx="11.39" cy="1.00" r="0.04" />
<circle cx="11.48" cy="3.00" r="0.04" />
<circle cx="11.56" cy="2.00" r="0.04" />
<circle cx="11.65" cy="1.00" r="0.04" />
<circle cx="11.74" cy="1.00" r="0.04" />
<circle cx="11.82" cy="1.00" r="0.04" />
<circle cx="11.91" cy="1.00" r="0.04" />
<circle cx="12.00" cy="2.00" r="0.04" />
<circle cx="12.08" cy="1.00" r="0.04" />
<circle cx="12.17" cy="4.00" r="0.04" />
<circle cx="12.25" cy="1.00" r="0.04" />
<circle cx="12.34" cy="1.00" r="0.04" />
<circle cx="12.43" cy="1.00" r="0.04" />
<circle cx="12.51" cy="7.00" r="0.04" />
<circle cx="12.60" cy="1.00" r="0.04" />
<circle cx="12.69" cy="1.00" r="0.04" />
<circle cx="12.77" cy="1.00" r="0.04" />
<circle cx="12.86" cy="1.00" r="0.04" />
<circle cx="12.94" cy="1.00" r="0.04" />
<circle cx="13.03" cy="2.00" r="0.04" />
</g>
</svg>