<svg xmlns="http://www.w3.org/2000/svg" width="159.4" height="100.0" viewBox="-2.5 -5.0 169.4 110.0">
<g fill="none" stroke="black" stroke-width="0.6650%" transform="translate(0, 100.0000) scale(0.7519, -0.7519)">
<line x1="3.3" y1="0.0" x2="3.3" y2="2.0" />
<line x1="6.6" y1="0.0" x2="6.6" y2="5.0" />
<line x1="9.9" y1="0.0" x2="9.9" y2="2.0" />
<line x1="13.2" y1="0.0" x2="13.2" y2="10.0" />
<line x1="16.6" y1="0.0" x2="16.6" y2="2.0" />
<line x1="19.9" y1="0.0" x2="19.9" y2="12.0" />
<line x1="23.2" y1="0.0" x2="23.2" y2="2.0" />
<line x1="26.5" y1="0.0" x2="26.5" y2="10.0" />
<line x1="29.8" y1="0.0" x2="29.8" y2="2.0" />
<line x1="33.1" y1="0.0" x2="33.1" y2="16.0" />
<line x1="36.4" y1="0.0" x2="36.4" y2="2.0" />
<line x1="39.7" y1="0.0" x2="39.7" y2="30.0" />
<line x1="43.1" y1="0.0" x2="43.1" y2="2.0" />
<line x1="46.4" y1="0.0" x2="46.4" y2="5.0" />
<line x1="49.7" y1="0.0" x2="49.7" y2="2.0" />
<line x1="53.0" y1="0.0" x2="53.0" y2="27.0" />
<line x1="56.3" y1="0.0" x2="56.3" y2="2.0" />
<line x1="59.6" y1="0.0" x2="59.6" y2="31.0" />
<line x1="62.9" y1="0.0" x2="62.9" y2="2.0" />
<line x1="66.2" y1="0.0" x2="66.2" y2="21.0" />
<line x1="69.6" y1="0.0" x2="69.6" y2="2.0" />
<line x1="72.9" y1="0.0" x2="72.9" y2="28.0" />
<line x1="76.2" y1="0.0" x2="76.2" y2="2.0" />
<line x1="79.5" y1="0.0" x2="79.5" y2="30.0" />
<line x1="82.8" y1="0.0" x2="82.8" y2="2.0" />
<line x1="86.1" y1="0.0" x2="86.1" y2="5.0" />
<line x1="89.4" y1="0.0" x2="89.4" y2="2.0" />
<line x1="92.7" y1="0.0" x2="92.7" y2="39.0" />
<line x1="96.0" y1="0.0" x2="96.0" y2="2.0" />
<line x1="99.4" y1="0.0" x2="99.4" y2="54.0" />
<line x1="102.7" y1="0.0" x2="102.7" y2="2.0" />
<line x1="106.0" y1="0.0" x2="106.0" y2="27.0" />
<line x1="109.3" y1="0.0" x2="109.3" y2="2.0" />
<line x1="112.6" y1="0.0" x2="112.6" y2="5.0" />
<line x1="115.9" y1="0.0" x2="115.9" y2="2.0" />
<line x1="119.2" y1="0.0" x2="119.2" y2="86.0" />
<line x1="122.5" y1="0.0" x2="122.5" y2="2.0" />
<line x1="125.9" y1="0.0" x2="125.9" y2="5.0" />
<line x1="129.2" y1="0.0" x2="129.2" y2="2.0" />
<line x1="132.5" y1="0.0" x2="132.5" y2="62.0" />
<line x1="135.8" y1="0.0" x2="135.8" y2="2.0" />
<line x1="139.1" y1="0.0" x2="139.1" y2="55.0" />
<line x1="142.4" y1="0.0" x2="142.4" y2="2.0" />
<line x1="145.7" y1="0.0" x2="145.7" y2="33.0" />
<line x1="149.0" y1="0.0" x2="149.0" y2="2.0" />
<line x1="152.3" y1="0.0" x2="152.3" y2="52.0" />
<line x1="155.7" y1="0.0" x2="155.7" y2="2.0" />
<line x1="159.0" y1="0.0" x2="159.0" y2="47.0" />
<line x1="162.3" y1="0.0" x2="162.3" y2="2.0" />
<line x1="165.6" y1="0.0" x2="165.6" y2="16.0" />
<line x1="168.9" y1="0.0" x2="168.9" y2="2.0" />
<line x1="172.2" y1="0.0" x2="172.2" y2="63.0" />
<line x1="175.5" y1="0.0" x2="175.5" y2="2.0" />
<line x1="178.8" y1="0.0" x2="178.8" y2="31.0" />
<line x1="182.2" y1="0.0" x2="182.2" y2="2.0" />
<line x1="185.5" y1="0.0" x2="185.5" y2="39.0" />
<line x1="188.8" y1="0.0" x2="188.8" y2="2.0" />
<line x1="192.1" y1="0.0" x2="192.1" y2="64.0" />
<line x1="195.4" y1="0.0" x2="195.4" y2="2.0" />
<line x1="198.7" y1="0.0" x2="198.7" y2="133.0" />
<line x1="202.0" y1="0.0" x2="202.0" y2="2.0" />
<line x1="205.3" y1="0.0" x2="205.3" y2="5.0" />
<line x1="208.7" y1="0.0" x2="208.7" y2="2.0" />
<line x1="212.0" y1="0.0" x2="212.0" y2="27.0" />
<line x1="215.3" y1="0.0" x2="215.3" y2="2.0" />
</g>
</svg>