<svg xmlns="http://www.w3.org/2000/svg" width="161.8" height="100.0" viewBox="-3.260 -5.000 171.803 110.000">
<g fill="none" stroke="black" stroke-width="0.0050%" transform="translate(0, 100.0000) scale(100.0000, -100.0000)">
<line x1="0.017" y1="0.000" x2="0.017" y2="1.000" />
<line x1="0.035" y1="0.000" x2="0.035" y2="1.000" />
<line x1="0.052" y1="0.000" x2="0.052" y2="1.000" />
<line x1="0.070" y1="0.000" x2="0.070" y2="1.000" />
<line x1="0.087" y1="0.000" x2="0.087" y2="1.000" />

<line x1="0.122" y1="0.000" x2="0.122" y2="1.000" />
<line x1="0.139" y1="0.000" x2="0.139" y2="1.000" />
<line x1="0.157" y1="0.000" x2="0.157" y2="1.000" />

<line x1="0.191" y1="0.000" x2="0.191" y2="1.000" />
<line x1="0.209" y1="0.000" x2="0.209" y2="1.000" />
<line x1="0.226" y1="0.000" x2="0.226" y2="1.000" />

<line x1="0.261" y1="0.000" x2="0.261" y2="1.000" />


<line x1="0.313" y1="0.000" x2="0.313" y2="1.000" />
<line x1="0.331" y1="0.000" x2="0.331" y2="1.000" />
<line x1="0.348" y1="0.000" x2="0.348" y2="1.000" />
<line x1="0.365" y1="0.000" x2="0.365" y2="1.000" />


<line x1="0.418" y1="0.000" x2="0.418" y2="1.000" />
<line x1="0.435" y1="0.000" x2="0.435" y2="1.000" />
<line x1="0.452" y1="0.000" x2="0.452" y2="1.000" />


<line x1="0.505" y1="0.000" x2="0.505" y2="1.000" />

<line x1="0.539" y1="0.000" x2="0.539" y2="1.000" />

<line x1="0.574" y1="0.000" x2="0.574" y2="1.000" />
<line x1="0.592" y1="0.000" x2="0.592" y2="1.000" />


<line x1="0.644" y1="0.000" x2="0.644" y2="1.000" />


<line x1="0.696" y1="0.000" x2="0.696" y2="1.000" />
<line x1="0.713" y1="0.000" x2="0.713" y2="1.000" />
<line x1="0.731" y1="0.000" x2="0.731" y2="1.000" />
<line x1="0.748" y1="0.000" x2="0.748" y2="1.000" />

<line x1="0.783" y1="0.000" x2="0.783" y2="1.000" />
<line x1="0.800" y1="0.000" x2="0.800" y2="1.000" />




<line x1="0.887" y1="0.000" x2="0.887" y2="1.000" />
<line x1="0.905" y1="0.000" x2="0.905" y2="1.000" />



<line x1="0.974" y1="0.000" x2="0.974" y2="1.000" />

<line x1="1.009" y1="0.000" x2="1.009" y2="1.000" />
<line x1="1.026" y1="0.000" x2="1.026" y2="1.000" />

<line x1="1.061" y1="0.000" x2="1.061" y2="1.000" />
<line x1="1.079" y1="0.000" x2="1.079" y2="1.000" />



<line x1="1.148" y1="0.000" x2="1.148" y2="1.000" />



<line x1="1.218" y1="0.000" x2="1.218" y2="1.000" />
<line x1="1.235" y1="0.000" x2="1.235" y2="1.000" />
<line x1="1.253" y1="0.000" x2="1.253" y2="1.000" />
<line x1="1.270" y1="0.000" x2="1.270" y2="1.000" />


<line x1="1.322" y1="0.000" x2="1.322" y2="1.000" />
<line x1="1.340" y1="0.000" x2="1.340" y2="1.000" />


<line x1="1.392" y1="0.000" x2="1.392" y2="1.000" />


<line x1="1.444" y1="0.000" x2="1.444" y2="1.000" />
<line x1="1.461" y1="0.000" x2="1.461" y2="1.000" />




<line x1="1.548" y1="0.000" x2="1.548" y2="1.000" />

<line x1="1.583" y1="0.000" x2="1.583" y2="1.000" />



</g>
</svg>