<svg xmlns="http://www.w3.org/2000/svg" width="151.0" height="100.0" viewBox="-3.14 -5.00 161.02 110.00">
<g fill="none" stroke="black" stroke-width="0.0750%" transform="translate(0, 100.0000) scale(6.6667, -6.6667)">
<line x1="0.28" y1="0.00" x2="0.28" y2="1.00" />
<line x1="0.56" y1="0.00" x2="0.56" y2="1.00" />
<line x1="0.84" y1="0.00" x2="0.84" y2="1.00" />
<line x1="1.12" y1="0.00" x2="1.12" y2="2.00" />
<line x1="1.40" y1="0.00" x2="1.40" y2="1.00" />
<line x1="1.68" y1="0.00" x2="1.68" y2="1.00" />
<line x1="1.96" y1="0.00" x2="1.96" y2="2.00" />
<line x1="2.24" y1="0.00" x2="2.24" y2="3.00" />
<line x1="2.52" y1="0.00" x2="2.52" y2="1.00" />
<line x1="2.80" y1="0.00" x2="2.80" y2="1.00" />
<line x1="3.08" y1="0.00" x2="3.08" y2="2.00" />
<line x1="3.36" y1="0.00" x2="3.36" y2="4.00" />
<line x1="3.64" y1="0.00" x2="3.64" y2="1.00" />
<line x1="3.92" y1="0.00" x2="3.92" y2="3.00" />
<line x1="4.19" y1="0.00" x2="4.19" y2="1.00" />
<line x1="4.47" y1="0.00" x2="4.47" y2="2.00" />
<line x1="4.75" y1="0.00" x2="4.75" y2="5.00" />
<line x1="5.03" y1="0.00" x2="5.03" y2="1.00" />
<line x1="5.31" y1="0.00" x2="5.31" y2="1.00" />
<line x1="5.59" y1="0.00" x2="5.59" y2="2.00" />
<line x1="5.87" y1="0.00" x2="5.87" y2="3.00" />
<line x1="6.15" y1="0.00" x2="6.15" y2="4.00" />
<line x1="6.43" y1="0.00" x2="6.43" y2="6.00" />
<line x1="6.71" y1="0.00" x2="6.71" y2="1.00" />
<line x1="6.99" y1="0.00" x2="6.99" y2="1.00" />
<line x1="7.27" y1="0.00" x2="7.27" y2="2.00" />
<line x1="7.55" y1="0.00" x2="7.55" y2="7.00" />
<line x1="7.83" y1="0.00" x2="7.83" y2="1.00" />
<line x1="8.11" y1="0.00" x2="8.11" y2="3.00" />
<line x1="8.39" y1="0.00" x2="8.39" y2="5.00" />
<line x1="8.67" y1="0.00" x2="8.67" y2="1.00" />
<line x1="8.95" y1="0.00" x2="8.95" y2="2.00" />
<line x1="9.23" y1="0.00" x2="9.23" y2="4.00" />
<line x1="9.51" y1="0.00" x2="9.51" y2="8.00" />
<line x1="9.79" y1="0.00" x2="9.79" y2="1.00" />
<line x1="10.07" y1="0.00" x2="10.07" y2="1.00" />
<line x1="10.35" y1="0.00" x2="10.35" y2="2.00" />
<line x1="10.63" y1="0.00" x2="10.63" y2="3.00" />
<line x1="10.91" y1="0.00" x2="10.91" y2="6.00" />
<line x1="11.19" y1="0.00" x2="11.19" y2="9.00" />
<line x1="11.47" y1="0.00" x2="11.47" y2="1.00" />
<line x1="11.75" y1="0.00" x2="11.75" y2="1.00" />
<line x1="12.03" y1="0.00" x2="12.03" y2="2.00" />
<line x1="12.31" y1="0.00" x2="12.31" y2="4.00" />
<line x1="12.58" y1="0.00" x2="12.58" y2="5.00" />
<line x1="12.86" y1="0.00" x2="12.86" y2="10.00" />
<line x1="13.14" y1="0.00" x2="13.14" y2="1.00" />
<line x1="13.42" y1="0.00" x2="13.42" y2="3.00" />
<line x1="13.70" y1="0.00" x2="13.70" y2="7.00" />
<line x1="13.98" y1="0.00" x2="13.98" y2="1.00" />
<line x1="14.26" y1="0.00" x2="14.26" y2="2.00" />
<line x1="14.54" y1="0.00" x2="14.54" y2="11.00" />
<line x1="14.82" y1="0.00" x2="14.82" y2="1.00" />
<line x1="15.10" y1="0.00" x2="15.10" y2="1.00" />
<line x1="15.38" y1="0.00" x2="15.38" y2="2.00" />
<line x1="15.66" y1="0.00" x2="15.66" y2="3.00" />
<line x1="15.94" y1="0.00" x2="15.94" y2="4.00" />
<line x1="16.22" y1="0.00" x2="16.22" y2="6.00" />
<line x1="16.50" y1="0.00" x2="16.50" y2="8.00" />
<line x1="16.78" y1="0.00" x2="16.78" y2="12.00" />
<line x1="17.06" y1="0.00" x2="17.06" y2="1.00" />
<line x1="17.34" y1="0.00" x2="17.34" y2="5.00" />
<line x1="17.62" y1="0.00" x2="17.62" y2="1.00" />
<line x1="17.90" y1="0.00" x2="17.90" y2="2.00" />
<line x1="18.18" y1="0.00" x2="18.18" y2="13.00" />
<line x1="18.46" y1="0.00" x2="18.46" y2="1.00" />
<line x1="18.74" y1="0.00" x2="18.74" y2="3.00" />
<line x1="19.02" y1="0.00" x2="19.02" y2="9.00" />
<line x1="19.30" y1="0.00" x2="19.30" y2="1.00" />
<line x1="19.58" y1="0.00" x2="19.58" y2="2.00" />
<line x1="19.86" y1="0.00" x2="19.86" y2="4.00" />
<line x1="20.14" y1="0.00" x2="20.14" y2="7.00" />
<line x1="20.42" y1="0.00" x2="20.42" y2="14.00" />
<line x1="20.69" y1="0.00" x2="20.69" y2="1.00" />
<line x1="20.97" y1="0.00" x2="20.97" y2="1.00" />
<line x1="21.25" y1="0.00" x2="21.25" y2="2.00" />
<line x1="21.53" y1="0.00" x2="21.53" y2="3.00" />
<line x1="21.81" y1="0.00" x2="21.81" y2="5.00" />
<line x1="22.09" y1="0.00" x2="22.09" y2="6.00" />
<line x1="22.37" y1="0.00" x2="22.37" y2="10.00" />
<line x1="22.65" y1="0.00" x2="22.65" y2="15.00" />
<line x1="22.93" y1="0.00" x2="22.93" y2="1.00" />
</g>
</svg>