<svg xmlns="http://www.w3.org/2000/svg" width="161.8" height="100.0" viewBox="-3.9 -5.0 171.8 110.0">
<g fill="none" stroke="black" stroke-width="0.2350%" transform="translate(0, 100.0000) scale(2.1277, -2.1277)">
<circle cx="0.5" cy="0.0" r="0.2" />
<circle cx="1.0" cy="0.0" r="0.2" />
<circle cx="1.5" cy="1.0" r="0.2" />
<circle cx="2.0" cy="0.0" r="0.2" />
<circle cx="2.6" cy="2.0" r="0.2" />
<circle cx="3.1" cy="0.0" r="0.2" />
<circle cx="3.6" cy="3.0" r="0.2" />
<circle cx="4.1" cy="1.0" r="0.2" />
<circle cx="4.6" cy="1.0" r="0.2" />
<circle cx="5.1" cy="2.0" r="0.2" />
<circle cx="5.6" cy="4.0" r="0.2" />
<circle cx="6.1" cy="0.0" r="0.2" />
<circle cx="6.6" cy="5.0" r="0.2" />
<circle cx="7.1" cy="3.0" r="0.2" />
<circle cx="7.7" cy="4.0" r="0.2" />
<circle cx="8.2" cy="0.0" r="0.2" />
<circle cx="8.7" cy="6.0" r="0.2" />
<circle cx="9.2" cy="1.0" r="0.2" />
<circle cx="9.7" cy="7.0" r="0.2" />
<circle cx="10.2" cy="2.0" r="0.2" />
<circle cx="10.7" cy="5.0" r="0.2" />
<circle cx="11.2" cy="6.0" r="0.2" />
<circle cx="11.7" cy="8.0" r="0.2" />
<circle cx="12.2" cy="0.0" r="0.2" />
<circle cx="12.8" cy="2.0" r="0.2" />
<circle cx="13.3" cy="7.0" r="0.2" />
<circle cx="13.8" cy="8.0" r="0.2" />
<circle cx="14.3" cy="3.0" r="0.2" />
<circle cx="14.8" cy="9.0" r="0.2" />
<circle cx="15.3" cy="1.0" r="0.2" />
<circle cx="15.8" cy="10.0" r="0.2" />
<circle cx="16.3" cy="4.0" r="0.2" />
<circle cx="16.8" cy="9.0" r="0.2" />
<circle cx="17.4" cy="10.0" r="0.2" />
<circle cx="17.9" cy="11.0" r="0.2" />
<circle cx="18.4" cy="0.0" r="0.2" />
<circle cx="18.9" cy="11.0" r="0.2" />
<circle cx="19.4" cy="12.0" r="0.2" />
<circle cx="19.9" cy="13.0" r="0.2" />
<circle cx="20.4" cy="2.0" r="0.2" />
<circle cx="20.9" cy="12.0" r="0.2" />
<circle cx="21.4" cy="3.0" r="0.2" />
<circle cx="21.9" cy="13.0" r="0.2" />
<circle cx="22.5" cy="5.0" r="0.2" />
<circle cx="23.0" cy="6.0" r="0.2" />
<circle cx="23.5" cy="14.0" r="0.2" />
<circle cx="24.0" cy="14.0" r="0.2" />
<circle cx="24.5" cy="0.0" r="0.2" />
<circle cx="25.0" cy="3.0" r="0.2" />
<circle cx="25.5" cy="7.0" r="0.2" />
<circle cx="26.0" cy="15.0" r="0.2" />
<circle cx="26.5" cy="8.0" r="0.2" />
<circle cx="27.1" cy="15.0" r="0.2" />
<circle cx="27.6" cy="4.0" r="0.2" />
<circle cx="28.1" cy="16.0" r="0.2" />
<circle cx="28.6" cy="5.0" r="0.2" />
<circle cx="29.1" cy="17.0" r="0.2" />
<circle cx="29.6" cy="18.0" r="0.2" />
<circle cx="30.1" cy="16.0" r="0.2" />
<circle cx="30.6" cy="0.0" r="0.2" />
<circle cx="31.1" cy="17.0" r="0.2" />
<circle cx="31.6" cy="19.0" r="0.2" />
<circle cx="32.2" cy="9.0" r="0.2" />
<circle cx="32.7" cy="0.0" r="0.2" />
<circle cx="33.2" cy="20.0" r="0.2" />
<circle cx="33.7" cy="6.0" r="0.2" />
<circle cx="34.2" cy="18.0" r="0.2" />
<circle cx="34.7" cy="10.0" r="0.2" />
<circle cx="35.2" cy="21.0" r="0.2" />
<circle cx="35.7" cy="7.0" r="0.2" />
<circle cx="36.2" cy="19.0" r="0.2" />
<circle cx="36.7" cy="1.0" r="0.2" />
<circle cx="37.3" cy="20.0" r="0.2" />
<circle cx="37.8" cy="22.0" r="0.2" />
<circle cx="38.3" cy="11.0" r="0.2" />
<circle cx="38.8" cy="12.0" r="0.2" />
<circle cx="39.3" cy="23.0" r="0.2" />
<circle cx="39.8" cy="8.0" r="0.2" />
<circle cx="40.3" cy="21.0" r="0.2" />
<circle cx="40.8" cy="1.0" r="0.2" />
<circle cx="41.3" cy="1.0" r="0.2" />
<circle cx="41.9" cy="24.0" r="0.2" />
<circle cx="42.4" cy="22.0" r="0.2" />
<circle cx="42.9" cy="2.0" r="0.2" />
<circle cx="43.4" cy="25.0" r="0.2" />
<circle cx="43.9" cy="26.0" r="0.2" />
<circle cx="44.4" cy="27.0" r="0.2" />
<circle cx="44.9" cy="9.0" r="0.2" />
<circle cx="45.4" cy="23.0" r="0.2" />
<circle cx="45.9" cy="3.0" r="0.2" />
<circle cx="46.4" cy="28.0" r="0.2" />
<circle cx="47.0" cy="13.0" r="0.2" />
<circle cx="47.5" cy="29.0" r="0.2" />
<circle cx="48.0" cy="30.0" r="0.2" />
<circle cx="48.5" cy="31.0" r="0.2" />
<circle cx="49.0" cy="4.0" r="0.2" />
<circle cx="49.5" cy="24.0" r="0.2" />
<circle cx="50.0" cy="14.0" r="0.2" />
<circle cx="50.5" cy="15.0" r="0.2" />
<circle cx="51.0" cy="1.0" r="0.2" />
<circle cx="51.5" cy="25.0" r="0.2" />
<circle cx="52.1" cy="10.0" r="0.2" />
<circle cx="52.6" cy="26.0" r="0.2" />
<circle cx="53.1" cy="11.0" r="0.2" />
<circle cx="53.6" cy="12.0" r="0.2" />
<circle cx="54.1" cy="32.0" r="0.2" />
<circle cx="54.6" cy="27.0" r="0.2" />
<circle cx="55.1" cy="5.0" r="0.2" />
<circle cx="55.6" cy="28.0" r="0.2" />
<circle cx="56.1" cy="13.0" r="0.2" />
<circle cx="56.7" cy="33.0" r="0.2" />
<circle cx="57.2" cy="2.0" r="0.2" />
<circle cx="57.7" cy="29.0" r="0.2" />
<circle cx="58.2" cy="14.0" r="0.2" />
<circle cx="58.7" cy="34.0" r="0.2" />
<circle cx="59.2" cy="16.0" r="0.2" />
<circle cx="59.7" cy="17.0" r="0.2" />
<circle cx="60.2" cy="35.0" r="0.2" />
<circle cx="60.7" cy="36.0" r="0.2" />
<circle cx="61.2" cy="0.0" r="0.2" />
<circle cx="61.8" cy="4.0" r="0.2" />
<circle cx="62.3" cy="37.0" r="0.2" />
<circle cx="62.8" cy="38.0" r="0.2" />
<circle cx="63.3" cy="18.0" r="0.2" />
<circle cx="63.8" cy="39.0" r="0.2" />
<circle cx="64.3" cy="6.0" r="0.2" />
<circle cx="64.8" cy="30.0" r="0.2" />
<circle cx="65.3" cy="15.0" r="0.2" />
<circle cx="65.8" cy="40.0" r="0.2" />
<circle cx="66.4" cy="16.0" r="0.2" />
<circle cx="66.9" cy="31.0" r="0.2" />
<circle cx="67.4" cy="7.0" r="0.2" />
<circle cx="67.9" cy="41.0" r="0.2" />
<circle cx="68.4" cy="42.0" r="0.2" />
<circle cx="68.9" cy="17.0" r="0.2" />
<circle cx="69.4" cy="18.0" r="0.2" />
<circle cx="69.9" cy="32.0" r="0.2" />
<circle cx="70.4" cy="19.0" r="0.2" />
<circle cx="70.9" cy="33.0" r="0.2" />
<circle cx="71.5" cy="8.0" r="0.2" />
<circle cx="72.0" cy="43.0" r="0.2" />
<circle cx="72.5" cy="44.0" r="0.2" />
<circle cx="73.0" cy="45.0" r="0.2" />
<circle cx="73.5" cy="0.0" r="0.2" />
<circle cx="74.0" cy="46.0" r="0.2" />
<circle cx="74.5" cy="47.0" r="0.2" />
<circle cx="75.0" cy="19.0" r="0.2" />
<circle cx="75.5" cy="20.0" r="0.2" />
<circle cx="76.0" cy="34.0" r="0.2" />
<circle cx="76.6" cy="9.0" r="0.2" />
</g>
</svg>