<svg xmlns="http://www.w3.org/2000/svg" width="161.8" height="100.0" viewBox="-3.6 -41.4 171.8 110.0">
<g fill="none" stroke="black" stroke-width="0.8800%" transform="translate(0, 27.2727) scale(0.5682, -0.5682)">
<line x1="2.5" y1="0.0" x2="2.5" y2="1.0" />
<line x1="5.0" y1="0.0" x2="5.0" y2="1.0" />
<line x1="7.5" y1="0.0" x2="7.5" y2="2.0" />
<line x1="10.0" y1="0.0" x2="10.0" y2="1.0" />
<line x1="12.5" y1="0.0" x2="12.5" y2="4.0" />

<line x1="17.5" y1="0.0" x2="17.5" y2="6.0" />
<line x1="20.0" y1="0.0" x2="20.0" y2="1.0" />
<line x1="22.5" y1="0.0" x2="22.5" y2="5.0" />
<line x1="25.0" y1="0.0" x2="25.0" y2="2.0" />
<line x1="27.5" y1="0.0" x2="27.5" y2="10.0" />
<line x1="30.0" y1="0.0" x2="30.0" y2="-4.0" />
<line x1="32.5" y1="0.0" x2="32.5" y2="12.0" />
<line x1="35.0" y1="0.0" x2="35.0" y2="4.0" />
<line x1="37.5" y1="0.0" x2="37.5" y2="6.0" />
<line x1="40.0" y1="0.0" x2="40.0" y2="1.0" />
<line x1="42.5" y1="0.0" x2="42.5" y2="16.0" />
<line x1="45.0" y1="0.0" x2="45.0" y2="-3.0" />
<line x1="47.5" y1="0.0" x2="47.5" y2="18.0" />
<line x1="50.0" y1="0.0" x2="50.0" y2="-2.0" />
<line x1="52.5" y1="0.0" x2="52.5" y2="10.0" />
<line x1="55.0" y1="0.0" x2="55.0" y2="8.0" />
<line x1="57.5" y1="0.0" x2="57.5" y2="22.0" />
<line x1="60.0" y1="0.0" x2="60.0" y2="-12.0" />
<line x1="62.5" y1="0.0" x2="62.5" y2="19.0" />
<line x1="64.9" y1="0.0" x2="64.9" y2="10.0" />
<line x1="67.4" y1="0.0" x2="67.4" y2="14.0" />

<line x1="72.4" y1="0.0" x2="72.4" y2="28.0" />
<line x1="74.9" y1="0.0" x2="74.9" y2="-12.0" />
<line x1="77.4" y1="0.0" x2="77.4" y2="30.0" />
<line x1="79.9" y1="0.0" x2="79.9" y2="1.0" />
<line x1="82.4" y1="0.0" x2="82.4" y2="18.0" />
<line x1="84.9" y1="0.0" x2="84.9" y2="14.0" />
<line x1="87.4" y1="0.0" x2="87.4" y2="22.0" />
<line x1="89.9" y1="0.0" x2="89.9" y2="-19.0" />
<line x1="92.4" y1="0.0" x2="92.4" y2="36.0" />
<line x1="94.9" y1="0.0" x2="94.9" y2="16.0" />
<line x1="97.4" y1="0.0" x2="97.4" y2="22.0" />
<line x1="99.9" y1="0.0" x2="99.9" y2="-10.0" />
<line x1="102.4" y1="0.0" x2="102.4" y2="40.0" />
<line x1="104.9" y1="0.0" x2="104.9" y2="-12.0" />
<line x1="107.4" y1="0.0" x2="107.4" y2="42.0" />
<line x1="109.9" y1="0.0" x2="109.9" y2="4.0" />
<line x1="112.4" y1="0.0" x2="112.4" y2="12.0" />
<line x1="114.9" y1="0.0" x2="114.9" y2="20.0" />
<line x1="117.4" y1="0.0" x2="117.4" y2="46.0" />
<line x1="119.9" y1="0.0" x2="119.9" y2="-28.0" />
<line x1="122.4" y1="0.0" x2="122.4" y2="41.0" />
<line x1="124.9" y1="0.0" x2="124.9" y2="7.0" />
<line x1="127.4" y1="0.0" x2="127.4" y2="30.0" />
<line x1="129.9" y1="0.0" x2="129.9" y2="6.0" />
<line x1="132.4" y1="0.0" x2="132.4" y2="52.0" />
<line x1="134.9" y1="0.0" x2="134.9" y2="-12.0" />
<line x1="137.4" y1="0.0" x2="137.4" y2="38.0" />
<line x1="139.9" y1="0.0" x2="139.9" y2="-8.0" />
<line x1="142.4" y1="0.0" x2="142.4" y2="34.0" />
<line x1="144.9" y1="0.0" x2="144.9" y2="26.0" />
<line x1="147.4" y1="0.0" x2="147.4" y2="58.0" />
<line x1="149.9" y1="0.0" x2="149.9" y2="-48.0" />
<line x1="152.4" y1="0.0" x2="152.4" y2="60.0" />
<line x1="154.9" y1="0.0" x2="154.9" y2="28.0" />
<line x1="157.4" y1="0.0" x2="157.4" y2="22.0" />
<line x1="159.9" y1="0.0" x2="159.9" y2="1.0" />
<line x1="162.4" y1="0.0" x2="162.4" y2="46.0" />
<line x1="164.9" y1="0.0" x2="164.9" y2="-12.0" />
<line x1="167.4" y1="0.0" x2="167.4" y2="66.0" />
<line x1="169.9" y1="0.0" x2="169.9" y2="10.0" />
<line x1="172.4" y1="0.0" x2="172.4" y2="42.0" />
<line x1="174.9" y1="0.0" x2="174.9" y2="-4.0" />
<line x1="177.4" y1="0.0" x2="177.4" y2="70.0" />
<line x1="179.9" y1="0.0" x2="179.9" y2="-51.0" />
<line x1="182.4" y1="0.0" x2="182.4" y2="72.0" />
<line x1="184.9" y1="0.0" x2="184.9" y2="34.0" />
<line x1="187.4" y1="0.0" x2="187.4" y2="26.0" />
<line x1="189.8" y1="0.0" x2="189.8" y2="12.0" />
<line x1="192.3" y1="0.0" x2="192.3" y2="58.0" />
<line x1="194.8" y1="0.0" x2="194.8" y2="-12.0" />
<line x1="197.3" y1="0.0" x2="197.3" y2="78.0" />
<line x1="199.8" y1="0.0" x2="199.8" y2="-26.0" />
<line x1="202.3" y1="0.0" x2="202.3" y2="41.0" />
<line x1="204.8" y1="0.0" x2="204.8" y2="38.0" />
<line x1="207.3" y1="0.0" x2="207.3" y2="82.0" />
<line x1="209.8" y1="0.0" x2="209.8" y2="-56.0" />
<line x1="212.3" y1="0.0" x2="212.3" y2="62.0" />
<line x1="214.8" y1="0.0" x2="214.8" y2="40.0" />
<line x1="217.3" y1="0.0" x2="217.3" y2="54.0" />
<line x1="219.8" y1="0.0" x2="219.8" y2="-4.0" />
<line x1="222.3" y1="0.0" x2="222.3" y2="88.0" />
<line x1="224.8" y1="0.0" x2="224.8" y2="-54.0" />
<line x1="227.3" y1="0.0" x2="227.3" y2="70.0" />
<line x1="229.8" y1="0.0" x2="229.8" y2="16.0" />
<line x1="232.3" y1="0.0" x2="232.3" y2="58.0" />
<line x1="234.8" y1="0.0" x2="234.8" y2="44.0" />
<line x1="237.3" y1="0.0" x2="237.3" y2="70.0" />
<line x1="239.8" y1="0.0" x2="239.8" y2="-60.0" />
<line x1="242.3" y1="0.0" x2="242.3" y2="96.0" />
<line x1="244.8" y1="0.0" x2="244.8" y2="25.0" />
<line x1="247.3" y1="0.0" x2="247.3" y2="42.0" />
<line x1="249.8" y1="0.0" x2="249.8" y2="-17.0" />
<line x1="252.3" y1="0.0" x2="252.3" y2="100.0" />
<line x1="254.8" y1="0.0" x2="254.8" y2="-12.0" />
<line x1="257.3" y1="0.0" x2="257.3" y2="102.0" />
<line x1="259.8" y1="0.0" x2="259.8" y2="-2.0" />
<line x1="262.3" y1="0.0" x2="262.3" y2="18.0" />
<line x1="264.8" y1="0.0" x2="264.8" y2="50.0" />
<line x1="267.3" y1="0.0" x2="267.3" y2="106.0" />
<line x1="269.8" y1="0.0" x2="269.8" y2="-64.0" />
<line x1="272.3" y1="0.0" x2="272.3" y2="108.0" />
<line x1="274.8" y1="0.0" x2="274.8" y2="4.0" />
<line x1="277.3" y1="0.0" x2="277.3" y2="70.0" />
<line x1="279.8" y1="0.0" x2="279.8" y2="-24.0" />
<line x1="282.3" y1="0.0" x2="282.3" y2="112.0" />
<line x1="284.8" y1="0.0" x2="284.8" y2="-12.0" />
<line x1="287.3" y1="0.0" x2="287.3" y2="86.0" />
</g>
</svg>