<svg xmlns="http://www.w3.org/2000/svg" width="161.8" height="100.0" viewBox="-3.07 15.00 171.80 110.00">
<g fill="none" stroke="black" stroke-width="0.0250%" transform="translate(0, 140.0000) scale(20.0000, -20.0000)">
<circle cx="0.10" cy="1.00" r="0.03" />
<circle cx="0.19" cy="1.00" r="0.03" />
<circle cx="0.29" cy="1.00" r="0.03" />
<circle cx="0.39" cy="2.00" r="0.03" />
<circle cx="0.48" cy="1.00" r="0.03" />
<circle cx="0.58" cy="2.00" r="0.03" />
<circle cx="0.67" cy="1.00" r="0.03" />
<circle cx="0.77" cy="2.00" r="0.03" />
<circle cx="0.87" cy="2.00" r="0.03" />
<circle cx="0.96" cy="2.00" r="0.03" />
<circle cx="1.06" cy="1.00" r="0.03" />
<circle cx="1.16" cy="3.00" r="0.03" />
<circle cx="1.25" cy="1.00" r="0.03" />
<circle cx="1.35" cy="2.00" r="0.03" />
<circle cx="1.44" cy="2.00" r="0.03" />
<circle cx="1.54" cy="3.00" r="0.03" />
<circle cx="1.64" cy="1.00" r="0.03" />
<circle cx="1.73" cy="3.00" r="0.03" />
<circle cx="1.83" cy="1.00" r="0.03" />
<circle cx="1.93" cy="3.00" r="0.03" />
<circle cx="2.02" cy="2.00" r="0.03" />
<circle cx="2.12" cy="2.00" r="0.03" />
<circle cx="2.22" cy="1.00" r="0.03" />
<circle cx="2.31" cy="4.00" r="0.03" />
<circle cx="2.41" cy="2.00" r="0.03" />
<circle cx="2.50" cy="2.00" r="0.03" />
<circle cx="2.60" cy="2.00" r="0.03" />
<circle cx="2.70" cy="3.00" r="0.03" />
<circle cx="2.79" cy="1.00" r="0.03" />
<circle cx="2.89" cy="4.00" r="0.03" />
<circle cx="2.99" cy="1.00" r="0.03" />
<circle cx="3.08" cy="3.00" r="0.03" />
<circle cx="3.18" cy="2.00" r="0.03" />
<circle cx="3.27" cy="2.00" r="0.03" />
<circle cx="3.37" cy="2.00" r="0.03" />
<circle cx="3.47" cy="5.00" r="0.03" />
<circle cx="3.56" cy="1.00" r="0.03" />
<circle cx="3.66" cy="2.00" r="0.03" />
<circle cx="3.76" cy="2.00" r="0.03" />
<circle cx="3.85" cy="4.00" r="0.03" />
<circle cx="3.95" cy="1.00" r="0.03" />
<circle cx="4.05" cy="4.00" r="0.03" />
<circle cx="4.14" cy="1.00" r="0.03" />
<circle cx="4.24" cy="3.00" r="0.03" />
<circle cx="4.33" cy="3.00" r="0.03" />
<circle cx="4.43" cy="2.00" r="0.03" />
<circle cx="4.53" cy="1.00" r="0.03" />
<circle cx="4.62" cy="5.00" r="0.03" />
<circle cx="4.72" cy="2.00" r="0.03" />
<circle cx="4.82" cy="3.00" r="0.03" />
<circle cx="4.91" cy="2.00" r="0.03" />
<circle cx="5.01" cy="3.00" r="0.03" />
<circle cx="5.10" cy="1.00" r="0.03" />
<circle cx="5.20" cy="4.00" r="0.03" />
<circle cx="5.30" cy="2.00" r="0.03" />
<circle cx="5.39" cy="4.00" r="0.03" />
<circle cx="5.49" cy="2.00" r="0.03" />
<circle cx="5.59" cy="2.00" r="0.03" />
<circle cx="5.68" cy="1.00" r="0.03" />
<circle cx="5.78" cy="6.00" r="0.03" />
<circle cx="5.88" cy="1.00" r="0.03" />
<circle cx="5.97" cy="2.00" r="0.03" />
<circle cx="6.07" cy="3.00" r="0.03" />
<circle cx="6.16" cy="4.00" r="0.03" />
<circle cx="6.26" cy="2.00" r="0.03" />
<circle cx="6.36" cy="4.00" r="0.03" />
<circle cx="6.45" cy="1.00" r="0.03" />
<circle cx="6.55" cy="3.00" r="0.03" />
<circle cx="6.65" cy="2.00" r="0.03" />
<circle cx="6.74" cy="4.00" r="0.03" />
<circle cx="6.84" cy="1.00" r="0.03" />
<circle cx="6.93" cy="6.00" r="0.03" />
<circle cx="7.03" cy="1.00" r="0.03" />
<circle cx="7.13" cy="2.00" r="0.03" />
<circle cx="7.22" cy="3.00" r="0.03" />
<circle cx="7.32" cy="3.00" r="0.03" />
<circle cx="7.42" cy="2.00" r="0.03" />
<circle cx="7.51" cy="4.00" r="0.03" />
<circle cx="7.61" cy="1.00" r="0.03" />
<circle cx="7.70" cy="5.00" r="0.03" />
<circle cx="7.80" cy="3.00" r="0.03" />
<circle cx="7.90" cy="2.00" r="0.03" />
<circle cx="7.99" cy="1.00" r="0.03" />
<circle cx="8.09" cy="6.00" r="0.03" />
<circle cx="8.19" cy="2.00" r="0.03" />
</g>
</svg>