<svg xmlns="http://www.w3.org/2000/svg" width="161.8" height="100.0" viewBox="3.52 0.26 171.80 110.00">
<g fill="none" stroke="black" stroke-width="0.0950%" transform="translate(0, 110.5263) scale(5.2632, -5.2632)">
<circle cx="32.36" cy="1.00" r="0.09" />
<circle cx="16.18" cy="2.00" r="0.09" />
<circle cx="32.36" cy="2.00" r="0.09" />
<circle cx="10.79" cy="3.00" r="0.09" />
<circle cx="21.57" cy="3.00" r="0.09" />
<circle cx="32.36" cy="3.00" r="0.09" />
<circle cx="8.09" cy="4.00" r="0.09" />
<circle cx="16.18" cy="4.00" r="0.09" />
<circle cx="24.27" cy="4.00" r="0.09" />
<circle cx="32.36" cy="4.00" r="0.09" />
<circle cx="6.47" cy="5.00" r="0.09" />
<circle cx="12.94" cy="5.00" r="0.09" />
<circle cx="19.42" cy="5.00" r="0.09" />
<circle cx="25.89" cy="5.00" r="0.09" />
<circle cx="32.36" cy="5.00" r="0.09" />
<circle cx="5.39" cy="6.00" r="0.09" />
<circle cx="10.79" cy="6.00" r="0.09" />
<circle cx="16.18" cy="6.00" r="0.09" />
<circle cx="21.57" cy="6.00" r="0.09" />
<circle cx="26.97" cy="6.00" r="0.09" />
<circle cx="32.36" cy="6.00" r="0.09" />
<circle cx="4.62" cy="7.00" r="0.09" />
<circle cx="9.25" cy="7.00" r="0.09" />
<circle cx="13.87" cy="7.00" r="0.09" />
<circle cx="18.49" cy="7.00" r="0.09" />
<circle cx="23.11" cy="7.00" r="0.09" />
<circle cx="27.74" cy="7.00" r="0.09" />
<circle cx="32.36" cy="7.00" r="0.09" />
<circle cx="4.05" cy="8.00" r="0.09" />
<circle cx="8.09" cy="8.00" r="0.09" />
<circle cx="12.14" cy="8.00" r="0.09" />
<circle cx="16.18" cy="8.00" r="0.09" />
<circle cx="20.23" cy="8.00" r="0.09" />
<circle cx="24.27" cy="8.00" r="0.09" />
<circle cx="28.32" cy="8.00" r="0.09" />
<circle cx="32.36" cy="8.00" r="0.09" />
<circle cx="3.60" cy="9.00" r="0.09" />
<circle cx="7.19" cy="9.00" r="0.09" />
<circle cx="10.79" cy="9.00" r="0.09" />
<circle cx="14.38" cy="9.00" r="0.09" />
<circle cx="17.98" cy="9.00" r="0.09" />
<circle cx="21.57" cy="9.00" r="0.09" />
<circle cx="25.17" cy="9.00" r="0.09" />
<circle cx="28.77" cy="9.00" r="0.09" />
<circle cx="32.36" cy="9.00" r="0.09" />
<circle cx="3.24" cy="10.00" r="0.09" />
<circle cx="6.47" cy="10.00" r="0.09" />
<circle cx="9.71" cy="10.00" r="0.09" />
<circle cx="12.94" cy="10.00" r="0.09" />
<circle cx="16.18" cy="10.00" r="0.09" />
<circle cx="19.42" cy="10.00" r="0.09" />
<circle cx="22.65" cy="10.00" r="0.09" />
<circle cx="25.89" cy="10.00" r="0.09" />
<circle cx="29.12" cy="10.00" r="0.09" />
<circle cx="32.36" cy="10.00" r="0.09" />
<circle cx="2.94" cy="11.00" r="0.09" />
<circle cx="5.88" cy="11.00" r="0.09" />
<circle cx="8.83" cy="11.00" r="0.09" />
<circle cx="11.77" cy="11.00" r="0.09" />
<circle cx="14.71" cy="11.00" r="0.09" />
<circle cx="17.65" cy="11.00" r="0.09" />
<circle cx="20.59" cy="11.00" r="0.09" />
<circle cx="23.54" cy="11.00" r="0.09" />
<circle cx="26.48" cy="11.00" r="0.09" />
<circle cx="29.42" cy="11.00" r="0.09" />
<circle cx="32.36" cy="11.00" r="0.09" />
<circle cx="2.70" cy="12.00" r="0.09" />
<circle cx="5.39" cy="12.00" r="0.09" />
<circle cx="8.09" cy="12.00" r="0.09" />
<circle cx="10.79" cy="12.00" r="0.09" />
<circle cx="13.48" cy="12.00" r="0.09" />
<circle cx="16.18" cy="12.00" r="0.09" />
<circle cx="18.88" cy="12.00" r="0.09" />
<circle cx="21.57" cy="12.00" r="0.09" />
<circle cx="24.27" cy="12.00" r="0.09" />
<circle cx="26.97" cy="12.00" r="0.09" />
<circle cx="29.66" cy="12.00" r="0.09" />
<circle cx="32.36" cy="12.00" r="0.09" />
<circle cx="2.49" cy="13.00" r="0.09" />
<circle cx="4.98" cy="13.00" r="0.09" />
<circle cx="7.47" cy="13.00" r="0.09" />
<circle cx="9.96" cy="13.00" r="0.09" />
<circle cx="12.45" cy="13.00" r="0.09" />
<circle cx="14.94" cy="13.00" r="0.09" />
<circle cx="17.42" cy="13.00" r="0.09" />
<circle cx="19.91" cy="13.00" r="0.09" />
<circle cx="22.40" cy="13.00" r="0.09" />
<circle cx="24.89" cy="13.00" r="0.09" />
<circle cx="27.38" cy="13.00" r="0.09" />
<circle cx="29.87" cy="13.00" r="0.09" />
<circle cx="32.36" cy="13.00" r="0.09" />
<circle cx="2.31" cy="14.00" r="0.09" />
<circle cx="4.62" cy="14.00" r="0.09" />
<circle cx="6.93" cy="14.00" r="0.09" />
<circle cx="9.25" cy="14.00" r="0.09" />
<circle cx="11.56" cy="14.00" r="0.09" />
<circle cx="13.87" cy="14.00" r="0.09" />
<circle cx="16.18" cy="14.00" r="0.09" />
<circle cx="18.49" cy="14.00" r="0.09" />
<circle cx="20.80" cy="14.00" r="0.09" />
<circle cx="23.11" cy="14.00" r="0.09" />
<circle cx="25.43" cy="14.00" r="0.09" />
<circle cx="27.74" cy="14.00" r="0.09" />
<circle cx="30.05" cy="14.00" r="0.09" />
<circle cx="32.36" cy="14.00" r="0.09" />
<circle cx="2.16" cy="15.00" r="0.09" />
<circle cx="4.31" cy="15.00" r="0.09" />
<circle cx="6.47" cy="15.00" r="0.09" />
<circle cx="8.63" cy="15.00" r="0.09" />
<circle cx="10.79" cy="15.00" r="0.09" />
<circle cx="12.94" cy="15.00" r="0.09" />
<circle cx="15.10" cy="15.00" r="0.09" />
<circle cx="17.26" cy="15.00" r="0.09" />
<circle cx="19.42" cy="15.00" r="0.09" />
<circle cx="21.57" cy="15.00" r="0.09" />
<circle cx="23.73" cy="15.00" r="0.09" />
<circle cx="25.89" cy="15.00" r="0.09" />
<circle cx="28.05" cy="15.00" r="0.09" />
<circle cx="30.20" cy="15.00" r="0.09" />
<circle cx="32.36" cy="15.00" r="0.09" />
<circle cx="2.02" cy="16.00" r="0.09" />
<circle cx="4.05" cy="16.00" r="0.09" />
<circle cx="6.07" cy="16.00" r="0.09" />
<circle cx="8.09" cy="16.00" r="0.09" />
<circle cx="10.11" cy="16.00" r="0.09" />
<circle cx="12.14" cy="16.00" r="0.09" />
<circle cx="14.16" cy="16.00" r="0.09" />
<circle cx="16.18" cy="16.00" r="0.09" />
<circle cx="18.20" cy="16.00" r="0.09" />
<circle cx="20.23" cy="16.00" r="0.09" />
<circle cx="22.25" cy="16.00" r="0.09" />
<circle cx="24.27" cy="16.00" r="0.09" />
<circle cx="26.29" cy="16.00" r="0.09" />
<circle cx="28.32" cy="16.00" r="0.09" />
<circle cx="30.34" cy="16.00" r="0.09" />
<circle cx="32.36" cy="16.00" r="0.09" />
<circle cx="1.90" cy="17.00" r="0.09" />
<circle cx="3.81" cy="17.00" r="0.09" />
<circle cx="5.71" cy="17.00" r="0.09" />
<circle cx="7.61" cy="17.00" r="0.09" />
<circle cx="9.52" cy="17.00" r="0.09" />
<circle cx="11.42" cy="17.00" r="0.09" />
<circle cx="13.32" cy="17.00" r="0.09" />
<circle cx="15.23" cy="17.00" r="0.09" />
<circle cx="17.13" cy="17.00" r="0.09" />
<circle cx="19.04" cy="17.00" r="0.09" />
<circle cx="20.94" cy="17.00" r="0.09" />
<circle cx="22.84" cy="17.00" r="0.09" />
<circle cx="24.75" cy="17.00" r="0.09" />
<circle cx="26.65" cy="17.00" r="0.09" />
<circle cx="28.55" cy="17.00" r="0.09" />
<circle cx="30.46" cy="17.00" r="0.09" />
<circle cx="32.36" cy="17.00" r="0.09" />
<circle cx="1.80" cy="18.00" r="0.09" />
<circle cx="3.60" cy="18.00" r="0.09" />
<circle cx="5.39" cy="18.00" r="0.09" />
<circle cx="7.19" cy="18.00" r="0.09" />
<circle cx="8.99" cy="18.00" r="0.09" />
<circle cx="10.79" cy="18.00" r="0.09" />
<circle cx="12.58" cy="18.00" r="0.09" />
<circle cx="14.38" cy="18.00" r="0.09" />
<circle cx="16.18" cy="18.00" r="0.09" />
<circle cx="17.98" cy="18.00" r="0.09" />
<circle cx="19.78" cy="18.00" r="0.09" />
<circle cx="21.57" cy="18.00" r="0.09" />
<circle cx="23.37" cy="18.00" r="0.09" />
<circle cx="25.17" cy="18.00" r="0.09" />
<circle cx="26.97" cy="18.00" r="0.09" />
<circle cx="28.77" cy="18.00" r="0.09" />
<circle cx="30.56" cy="18.00" r="0.09" />
<circle cx="32.36" cy="18.00" r="0.09" />
<circle cx="1.70" cy="19.00" r="0.09" />
<circle cx="3.41" cy="19.00" r="0.09" />
<circle cx="5.11" cy="19.00" r="0.09" />
<circle cx="6.81" cy="19.00" r="0.09" />
<circle cx="8.52" cy="19.00" r="0.09" />
<circle cx="10.22" cy="19.00" r="0.09" />
<circle cx="11.92" cy="19.00" r="0.09" />
<circle cx="13.63" cy="19.00" r="0.09" />
<circle cx="15.33" cy="19.00" r="0.09" />
<circle cx="17.03" cy="19.00" r="0.09" />
<circle cx="18.74" cy="19.00" r="0.09" />
<circle cx="20.44" cy="19.00" r="0.09" />
<circle cx="22.14" cy="19.00" r="0.09" />
<circle cx="23.84" cy="19.00" r="0.09" />
<circle cx="25.55" cy="19.00" r="0.09" />
<circle cx="27.25" cy="19.00" r="0.09" />
<circle cx="28.95" cy="19.00" r="0.09" />
<circle cx="30.66" cy="19.00" r="0.09" />
<circle cx="32.36" cy="19.00" r="0.09" />
<circle cx="1.62" cy="20.00" r="0.09" />
<circle cx="3.24" cy="20.00" r="0.09" />
<circle cx="4.85" cy="20.00" r="0.09" />
<circle cx="6.47" cy="20.00" r="0.09" />
<circle cx="8.09" cy="20.00" r="0.09" />
<circle cx="9.71" cy="20.00" r="0.09" />
<circle cx="11.33" cy="20.00" r="0.09" />
<circle cx="12.94" cy="20.00" r="0.09" />
<circle cx="14.56" cy="20.00" r="0.09" />
<circle cx="16.18" cy="20.00" r="0.09" />
<circle cx="17.80" cy="20.00" r="0.09" />
<circle cx="19.42" cy="20.00" r="0.09" />
<circle cx="21.03" cy="20.00" r="0.09" />
<circle cx="22.65" cy="20.00" r="0.09" />
<circle cx="24.27" cy="20.00" r="0.09" />
<circle cx="25.89" cy="20.00" r="0.09" />
<circle cx="27.51" cy="20.00" r="0.09" />
<circle cx="29.12" cy="20.00" r="0.09" />
<circle cx="30.74" cy="20.00" r="0.09" />
<circle cx="32.36" cy="20.00" r="0.09" />
</g>
</svg>