<svg xmlns="http://www.w3.org/2000/svg" width="161.8" height="100.0" viewBox="-4.4 -2.7 171.8 110.0">
<g fill="none" stroke="black" stroke-width="0.2200%" transform="translate(0, 104.5455) scale(2.2727, -2.2727)">
<circle cx="0.3" cy="1.0" r="0.2" />
<circle cx="0.6" cy="1.0" r="0.2" />
<circle cx="0.9" cy="2.0" r="0.2" />
<circle cx="1.1" cy="2.0" r="0.2" />
<circle cx="1.4" cy="3.0" r="0.2" />
<circle cx="1.7" cy="2.0" r="0.2" />
<circle cx="2.0" cy="4.0" r="0.2" />
<circle cx="2.3" cy="3.0" r="0.2" />
<circle cx="2.6" cy="5.0" r="0.2" />
<circle cx="2.9" cy="2.0" r="0.2" />
<circle cx="3.1" cy="4.0" r="0.2" />
<circle cx="3.4" cy="6.0" r="0.2" />
<circle cx="3.7" cy="4.0" r="0.2" />
<circle cx="4.0" cy="7.0" r="0.2" />
<circle cx="4.3" cy="2.0" r="0.2" />
<circle cx="4.6" cy="4.0" r="0.2" />
<circle cx="4.9" cy="6.0" r="0.2" />
<circle cx="5.1" cy="8.0" r="0.2" />
<circle cx="5.4" cy="4.0" r="0.2" />
<circle cx="5.7" cy="7.0" r="0.2" />
<circle cx="6.0" cy="11.0" r="0.2" />
<circle cx="6.3" cy="2.0" r="0.2" />
<circle cx="6.6" cy="5.0" r="0.2" />
<circle cx="6.9" cy="7.0" r="0.2" />
<circle cx="7.1" cy="9.0" r="0.2" />
<circle cx="7.4" cy="3.0" r="0.2" />
<circle cx="7.7" cy="6.0" r="0.2" />
<circle cx="8.0" cy="10.0" r="0.2" />
<circle cx="8.3" cy="4.0" r="0.2" />
<circle cx="8.6" cy="8.0" r="0.2" />
<circle cx="8.9" cy="11.0" r="0.2" />
<circle cx="9.1" cy="13.0" r="0.2" />
<circle cx="9.4" cy="2.0" r="0.2" />
<circle cx="9.7" cy="4.0" r="0.2" />
<circle cx="10.0" cy="6.0" r="0.2" />
<circle cx="10.3" cy="8.0" r="0.2" />
<circle cx="10.6" cy="10.0" r="0.2" />
<circle cx="10.9" cy="13.0" r="0.2" />
<circle cx="11.2" cy="15.0" r="0.2" />
<circle cx="11.4" cy="4.0" r="0.2" />
<circle cx="11.7" cy="8.0" r="0.2" />
<circle cx="12.0" cy="12.0" r="0.2" />
<circle cx="12.3" cy="6.0" r="0.2" />
<circle cx="12.6" cy="9.0" r="0.2" />
<circle cx="12.9" cy="13.0" r="0.2" />
<circle cx="13.2" cy="15.0" r="0.2" />
<circle cx="13.4" cy="17.0" r="0.2" />
<circle cx="13.7" cy="2.0" r="0.2" />
<circle cx="14.0" cy="4.0" r="0.2" />
<circle cx="14.3" cy="7.0" r="0.2" />
<circle cx="14.6" cy="11.0" r="0.2" />
<circle cx="14.9" cy="15.0" r="0.2" />
<circle cx="15.2" cy="19.0" r="0.2" />
<circle cx="15.4" cy="2.0" r="0.2" />
<circle cx="15.7" cy="4.0" r="0.2" />
<circle cx="16.0" cy="8.0" r="0.2" />
<circle cx="16.3" cy="11.0" r="0.2" />
<circle cx="16.6" cy="15.0" r="0.2" />
<circle cx="16.9" cy="21.0" r="0.2" />
<circle cx="17.2" cy="4.0" r="0.2" />
<circle cx="17.4" cy="8.0" r="0.2" />
<circle cx="17.7" cy="11.0" r="0.2" />
<circle cx="18.0" cy="13.0" r="0.2" />
<circle cx="18.3" cy="17.0" r="0.2" />
<circle cx="18.6" cy="19.0" r="0.2" />
<circle cx="18.9" cy="21.0" r="0.2" />
<circle cx="19.2" cy="24.0" r="0.2" />
<circle cx="19.4" cy="8.0" r="0.2" />
<circle cx="19.7" cy="10.0" r="0.2" />
<circle cx="20.0" cy="12.0" r="0.2" />
<circle cx="20.3" cy="16.0" r="0.2" />
<circle cx="20.6" cy="5.0" r="0.2" />
<circle cx="20.9" cy="7.0" r="0.2" />
<circle cx="21.2" cy="9.0" r="0.2" />
<circle cx="21.4" cy="12.0" r="0.2" />
<circle cx="21.7" cy="16.0" r="0.2" />
<circle cx="22.0" cy="18.0" r="0.2" />
<circle cx="22.3" cy="6.0" r="0.2" />
<circle cx="22.6" cy="10.0" r="0.2" />
<circle cx="22.9" cy="14.0" r="0.2" />
<circle cx="23.2" cy="4.0" r="0.2" />
<circle cx="23.4" cy="7.0" r="0.2" />
<circle cx="23.7" cy="11.0" r="0.2" />
<circle cx="24.0" cy="13.0" r="0.2" />
<circle cx="24.3" cy="15.0" r="0.2" />
<circle cx="24.6" cy="17.0" r="0.2" />
<circle cx="24.9" cy="19.0" r="0.2" />
<circle cx="25.2" cy="23.0" r="0.2" />
<circle cx="25.4" cy="2.0" r="0.2" />
<circle cx="25.7" cy="10.0" r="0.2" />
<circle cx="26.0" cy="14.0" r="0.2" />
<circle cx="26.3" cy="18.0" r="0.2" />
<circle cx="26.6" cy="24.0" r="0.2" />
<circle cx="26.9" cy="29.0" r="0.2" />
<circle cx="27.2" cy="2.0" r="0.2" />
<circle cx="27.4" cy="4.0" r="0.2" />
<circle cx="27.7" cy="6.0" r="0.2" />
<circle cx="28.0" cy="9.0" r="0.2" />
<circle cx="28.3" cy="15.0" r="0.2" />
<circle cx="28.6" cy="20.0" r="0.2" />
<circle cx="28.9" cy="6.0" r="0.2" />
<circle cx="29.2" cy="12.0" r="0.2" />
<circle cx="29.4" cy="16.0" r="0.2" />
<circle cx="29.7" cy="20.0" r="0.2" />
<circle cx="30.0" cy="24.0" r="0.2" />
<circle cx="30.3" cy="27.0" r="0.2" />
<circle cx="30.6" cy="4.0" r="0.2" />
<circle cx="30.9" cy="6.0" r="0.2" />
<circle cx="31.2" cy="8.0" r="0.2" />
<circle cx="31.5" cy="10.0" r="0.2" />
<circle cx="31.7" cy="14.0" r="0.2" />
<circle cx="32.0" cy="16.0" r="0.2" />
<circle cx="32.3" cy="18.0" r="0.2" />
<circle cx="32.6" cy="20.0" r="0.2" />
<circle cx="32.9" cy="22.0" r="0.2" />
<circle cx="33.2" cy="4.0" r="0.2" />
<circle cx="33.5" cy="8.0" r="0.2" />
<circle cx="33.7" cy="12.0" r="0.2" />
<circle cx="34.0" cy="18.0" r="0.2" />
<circle cx="34.3" cy="26.0" r="0.2" />
<circle cx="34.6" cy="4.0" r="0.2" />
<circle cx="34.9" cy="6.0" r="0.2" />
<circle cx="35.2" cy="8.0" r="0.2" />
<circle cx="35.5" cy="11.0" r="0.2" />
<circle cx="35.7" cy="15.0" r="0.2" />
<circle cx="36.0" cy="18.0" r="0.2" />
<circle cx="36.3" cy="22.0" r="0.2" />
<circle cx="36.6" cy="28.0" r="0.2" />
<circle cx="36.9" cy="6.0" r="0.2" />
<circle cx="37.2" cy="10.0" r="0.2" />
<circle cx="37.5" cy="16.0" r="0.2" />
<circle cx="37.7" cy="21.0" r="0.2" />
<circle cx="38.0" cy="27.0" r="0.2" />
<circle cx="38.3" cy="35.0" r="0.2" />
<circle cx="38.6" cy="4.0" r="0.2" />
<circle cx="38.9" cy="8.0" r="0.2" />
<circle cx="39.2" cy="11.0" r="0.2" />
<circle cx="39.5" cy="15.0" r="0.2" />
<circle cx="39.7" cy="19.0" r="0.2" />
<circle cx="40.0" cy="23.0" r="0.2" />
<circle cx="40.3" cy="27.0" r="0.2" />
<circle cx="40.6" cy="32.0" r="0.2" />
<circle cx="40.9" cy="6.0" r="0.2" />
<circle cx="41.2" cy="12.0" r="0.2" />
<circle cx="41.5" cy="18.0" r="0.2" />
<circle cx="41.7" cy="22.0" r="0.2" />
<circle cx="42.0" cy="25.0" r="0.2" />
<circle cx="42.3" cy="3.0" r="0.2" />
<circle cx="42.6" cy="7.0" r="0.2" />
<circle cx="42.9" cy="13.0" r="0.2" />
<circle cx="43.2" cy="19.0" r="0.2" />
<circle cx="43.5" cy="23.0" r="0.2" />
<circle cx="43.7" cy="26.0" r="0.2" />
<circle cx="44.0" cy="30.0" r="0.2" />
<circle cx="44.3" cy="8.0" r="0.2" />
<circle cx="44.6" cy="12.0" r="0.2" />
<circle cx="44.9" cy="14.0" r="0.2" />
<circle cx="45.2" cy="18.0" r="0.2" />
<circle cx="45.5" cy="24.0" r="0.2" />
<circle cx="45.7" cy="28.0" r="0.2" />
<circle cx="46.0" cy="34.0" r="0.2" />
<circle cx="46.3" cy="4.0" r="0.2" />
<circle cx="46.6" cy="8.0" r="0.2" />
<circle cx="46.9" cy="12.0" r="0.2" />
<circle cx="47.2" cy="17.0" r="0.2" />
<circle cx="47.5" cy="21.0" r="0.2" />
<circle cx="47.7" cy="25.0" r="0.2" />
<circle cx="48.0" cy="29.0" r="0.2" />
<circle cx="48.3" cy="32.0" r="0.2" />
<circle cx="48.6" cy="36.0" r="0.2" />
<circle cx="48.9" cy="9.0" r="0.2" />
<circle cx="49.2" cy="11.0" r="0.2" />
<circle cx="49.5" cy="15.0" r="0.2" />
<circle cx="49.7" cy="17.0" r="0.2" />
<circle cx="50.0" cy="19.0" r="0.2" />
<circle cx="50.3" cy="23.0" r="0.2" />
<circle cx="50.6" cy="29.0" r="0.2" />
<circle cx="50.9" cy="33.0" r="0.2" />
<circle cx="51.2" cy="4.0" r="0.2" />
<circle cx="51.5" cy="10.0" r="0.2" />
<circle cx="51.8" cy="16.0" r="0.2" />
<circle cx="52.0" cy="20.0" r="0.2" />
<circle cx="52.3" cy="23.0" r="0.2" />
<circle cx="52.6" cy="25.0" r="0.2" />
<circle cx="52.9" cy="27.0" r="0.2" />
<circle cx="53.2" cy="29.0" r="0.2" />
<circle cx="53.5" cy="31.0" r="0.2" />
<circle cx="53.8" cy="2.0" r="0.2" />
<circle cx="54.0" cy="4.0" r="0.2" />
<circle cx="54.3" cy="8.0" r="0.2" />
<circle cx="54.6" cy="16.0" r="0.2" />
<circle cx="54.9" cy="20.0" r="0.2" />
<circle cx="55.2" cy="26.0" r="0.2" />
<circle cx="55.5" cy="30.0" r="0.2" />
<circle cx="55.8" cy="36.0" r="0.2" />
<circle cx="56.0" cy="44.0" r="0.2" />
<circle cx="56.3" cy="6.0" r="0.2" />
<circle cx="56.6" cy="12.0" r="0.2" />
<circle cx="56.9" cy="16.0" r="0.2" />
<circle cx="57.2" cy="19.0" r="0.2" />
<circle cx="57.5" cy="23.0" r="0.2" />
<circle cx="57.8" cy="29.0" r="0.2" />
<circle cx="58.0" cy="31.0" r="0.2" />
<circle cx="58.3" cy="35.0" r="0.2" />
<circle cx="58.6" cy="38.0" r="0.2" />
<circle cx="58.9" cy="4.0" r="0.2" />
<circle cx="59.2" cy="6.0" r="0.2" />
<circle cx="59.5" cy="12.0" r="0.2" />
<circle cx="59.8" cy="21.0" r="0.2" />
<circle cx="60.0" cy="24.0" r="0.2" />
<circle cx="60.3" cy="26.0" r="0.2" />
<circle cx="60.6" cy="30.0" r="0.2" />
<circle cx="60.9" cy="32.0" r="0.2" />
<circle cx="61.2" cy="34.0" r="0.2" />
<circle cx="61.5" cy="36.0" r="0.2" />
<circle cx="61.8" cy="38.0" r="0.2" />
<circle cx="62.0" cy="42.0" r="0.2" />
<circle cx="62.3" cy="8.0" r="0.2" />
<circle cx="62.6" cy="11.0" r="0.2" />
<circle cx="62.9" cy="15.0" r="0.2" />
<circle cx="63.2" cy="20.0" r="0.2" />
<circle cx="63.5" cy="26.0" r="0.2" />
<circle cx="63.8" cy="28.0" r="0.2" />
<circle cx="64.0" cy="31.0" r="0.2" />
<circle cx="64.3" cy="35.0" r="0.2" />
<circle cx="64.6" cy="37.0" r="0.2" />
<circle cx="64.9" cy="2.0" r="0.2" />
<circle cx="65.2" cy="4.0" r="0.2" />
<circle cx="65.5" cy="6.0" r="0.2" />
<circle cx="65.8" cy="9.0" r="0.2" />
<circle cx="66.0" cy="13.0" r="0.2" />
<circle cx="66.3" cy="18.0" r="0.2" />
<circle cx="66.6" cy="24.0" r="0.2" />
<circle cx="66.9" cy="28.0" r="0.2" />
<circle cx="67.2" cy="36.0" r="0.2" />
<circle cx="67.5" cy="45.0" r="0.2" />
<circle cx="67.8" cy="6.0" r="0.2" />
<circle cx="68.0" cy="12.0" r="0.2" />
<circle cx="68.3" cy="16.0" r="0.2" />
<circle cx="68.6" cy="22.0" r="0.2" />
<circle cx="68.9" cy="27.0" r="0.2" />
<circle cx="69.2" cy="29.0" r="0.2" />
<circle cx="69.5" cy="31.0" r="0.2" />
<circle cx="69.8" cy="33.0" r="0.2" />
<circle cx="70.0" cy="35.0" r="0.2" />
<circle cx="70.3" cy="39.0" r="0.2" />
<circle cx="70.6" cy="4.0" r="0.2" />
<circle cx="70.9" cy="8.0" r="0.2" />
<circle cx="71.2" cy="11.0" r="0.2" />
<circle cx="71.5" cy="15.0" r="0.2" />
</g>
</svg>