<svg xmlns="http://www.w3.org/2000/svg" width="161.8" height="100.0" viewBox="-3.58 -55.00 171.80 110.00">
<g fill="none" stroke="black" stroke-width="0.0800%" transform="translate(0, 0.0000) scale(6.2500, -6.2500)">
<line x1="0.23" y1="0.00" x2="0.23" y2="1.00" />

<line x1="0.68" y1="0.00" x2="0.68" y2="2.00" />
<line x1="0.91" y1="0.00" x2="0.91" y2="-1.00" />
<line x1="1.14" y1="0.00" x2="1.14" y2="2.00" />

<line x1="1.59" y1="0.00" x2="1.59" y2="2.00" />
<line x1="1.82" y1="0.00" x2="1.82" y2="-2.00" />
<line x1="2.04" y1="0.00" x2="2.04" y2="3.00" />

<line x1="2.50" y1="0.00" x2="2.50" y2="2.00" />
<line x1="2.73" y1="0.00" x2="2.73" y2="-2.00" />
<line x1="2.95" y1="0.00" x2="2.95" y2="2.00" />

<line x1="3.41" y1="0.00" x2="3.41" y2="4.00" />
<line x1="3.63" y1="0.00" x2="3.63" y2="-3.00" />
<line x1="3.86" y1="0.00" x2="3.86" y2="2.00" />

<line x1="4.31" y1="0.00" x2="4.31" y2="2.00" />
<line x1="4.54" y1="0.00" x2="4.54" y2="-2.00" />
<line x1="4.77" y1="0.00" x2="4.77" y2="4.00" />

<line x1="5.22" y1="0.00" x2="5.22" y2="2.00" />
<line x1="5.45" y1="0.00" x2="5.45" y2="-4.00" />
<line x1="5.68" y1="0.00" x2="5.68" y2="3.00" />

<line x1="6.13" y1="0.00" x2="6.13" y2="4.00" />
<line x1="6.36" y1="0.00" x2="6.36" y2="-2.00" />
<line x1="6.59" y1="0.00" x2="6.59" y2="2.00" />

<line x1="7.04" y1="0.00" x2="7.04" y2="2.00" />
<line x1="7.27" y1="0.00" x2="7.27" y2="-4.00" />
<line x1="7.49" y1="0.00" x2="7.49" y2="4.00" />

<line x1="7.95" y1="0.00" x2="7.95" y2="4.00" />
<line x1="8.18" y1="0.00" x2="8.18" y2="-3.00" />
<line x1="8.40" y1="0.00" x2="8.40" y2="2.00" />

<line x1="8.86" y1="0.00" x2="8.86" y2="4.00" />
<line x1="9.08" y1="0.00" x2="9.08" y2="-4.00" />
<line x1="9.31" y1="0.00" x2="9.31" y2="2.00" />

<line x1="9.76" y1="0.00" x2="9.76" y2="2.00" />
<line x1="9.99" y1="0.00" x2="9.99" y2="-2.00" />
<line x1="10.22" y1="0.00" x2="10.22" y2="6.00" />

<line x1="10.67" y1="0.00" x2="10.67" y2="2.00" />
<line x1="10.90" y1="0.00" x2="10.90" y2="-6.00" />
<line x1="11.13" y1="0.00" x2="11.13" y2="3.00" />

<line x1="11.58" y1="0.00" x2="11.58" y2="4.00" />
<line x1="11.81" y1="0.00" x2="11.81" y2="-2.00" />
<line x1="12.04" y1="0.00" x2="12.04" y2="2.00" />

<line x1="12.49" y1="0.00" x2="12.49" y2="4.00" />
<line x1="12.72" y1="0.00" x2="12.72" y2="-4.00" />
<line x1="12.94" y1="0.00" x2="12.94" y2="4.00" />

<line x1="13.40" y1="0.00" x2="13.40" y2="2.00" />
<line x1="13.63" y1="0.00" x2="13.63" y2="-4.00" />
<line x1="13.85" y1="0.00" x2="13.85" y2="2.00" />

<line x1="14.31" y1="0.00" x2="14.31" y2="6.00" />
<line x1="14.53" y1="0.00" x2="14.53" y2="-5.00" />
<line x1="14.76" y1="0.00" x2="14.76" y2="4.00" />

<line x1="15.22" y1="0.00" x2="15.22" y2="2.00" />
<line x1="15.44" y1="0.00" x2="15.44" y2="-2.00" />
<line x1="15.67" y1="0.00" x2="15.67" y2="4.00" />

<line x1="16.12" y1="0.00" x2="16.12" y2="2.00" />
<line x1="16.35" y1="0.00" x2="16.35" y2="-6.00" />
<line x1="16.58" y1="0.00" x2="16.58" y2="2.00" />

<line x1="17.03" y1="0.00" x2="17.03" y2="6.00" />
<line x1="17.26" y1="0.00" x2="17.26" y2="-2.00" />
<line x1="17.49" y1="0.00" x2="17.49" y2="4.00" />

<line x1="17.94" y1="0.00" x2="17.94" y2="2.00" />
<line x1="18.17" y1="0.00" x2="18.17" y2="-6.00" />
<line x1="18.39" y1="0.00" x2="18.39" y2="5.00" />

<line x1="18.85" y1="0.00" x2="18.85" y2="2.00" />
<line x1="19.08" y1="0.00" x2="19.08" y2="-4.00" />
<line x1="19.30" y1="0.00" x2="19.30" y2="4.00" />

<line x1="19.76" y1="0.00" x2="19.76" y2="4.00" />
<line x1="19.98" y1="0.00" x2="19.98" y2="-4.00" />
<line x1="20.21" y1="0.00" x2="20.21" y2="2.00" />

<line x1="20.67" y1="0.00" x2="20.67" y2="4.00" />
<line x1="20.89" y1="0.00" x2="20.89" y2="-2.00" />
<line x1="21.12" y1="0.00" x2="21.12" y2="4.00" />

<line x1="21.57" y1="0.00" x2="21.57" y2="4.00" />
<line x1="21.80" y1="0.00" x2="21.80" y2="-8.00" />
<line x1="22.03" y1="0.00" x2="22.03" y2="2.00" />

<line x1="22.48" y1="0.00" x2="22.48" y2="6.00" />
<line x1="22.71" y1="0.00" x2="22.71" y2="-3.00" />
<line x1="22.94" y1="0.00" x2="22.94" y2="2.00" />

<line x1="23.39" y1="0.00" x2="23.39" y2="2.00" />
<line x1="23.62" y1="0.00" x2="23.62" y2="-4.00" />
<line x1="23.84" y1="0.00" x2="23.84" y2="8.00" />

<line x1="24.30" y1="0.00" x2="24.30" y2="2.00" />
<line x1="24.53" y1="0.00" x2="24.53" y2="-4.00" />
<line x1="24.75" y1="0.00" x2="24.75" y2="2.00" />

<line x1="25.21" y1="0.00" x2="25.21" y2="4.00" />
<line x1="25.43" y1="0.00" x2="25.43" y2="-6.00" />
<line x1="25.66" y1="0.00" x2="25.66" y2="2.00" />

<line x1="26.12" y1="0.00" x2="26.12" y2="4.00" />
</g>
</svg>