<svg xmlns="http://www.w3.org/2000/svg" width="161.6" height="100.0" viewBox="-3 -5 172 110">
<g fill="none" stroke="black" stroke-width="3.3750%" transform="translate(0, 100.0000) scale(0.1481, -0.1481)">
<line x1="13" y1="0" x2="13" y2="1" />
<line x1="26" y1="0" x2="26" y2="4" />
<line x1="39" y1="0" x2="39" y2="5" />
<line x1="52" y1="0" x2="52" y2="11" />
<line x1="65" y1="0" x2="65" y2="7" />
<line x1="78" y1="0" x2="78" y2="22" />
<line x1="91" y1="0" x2="91" y2="9" />
<line x1="104" y1="0" x2="104" y2="26" />
<line x1="117" y1="0" x2="117" y2="18" />
<line x1="130" y1="0" x2="130" y2="30" />
<line x1="143" y1="0" x2="143" y2="13" />
<line x1="156" y1="0" x2="156" y2="64" />
<line x1="169" y1="0" x2="169" y2="15" />
<line x1="182" y1="0" x2="182" y2="38" />
<line x1="195" y1="0" x2="195" y2="38" />
<line x1="208" y1="0" x2="208" y2="57" />
<line x1="221" y1="0" x2="221" y2="19" />
<line x1="234" y1="0" x2="234" y2="82" />
<line x1="247" y1="0" x2="247" y2="21" />
<line x1="260" y1="0" x2="260" y2="87" />
<line x1="273" y1="0" x2="273" y2="48" />
<line x1="286" y1="0" x2="286" y2="54" />
<line x1="299" y1="0" x2="299" y2="25" />
<line x1="312" y1="0" x2="312" y2="156" />
<line x1="325" y1="0" x2="325" y2="38" />
<line x1="338" y1="0" x2="338" y2="62" />
<line x1="351" y1="0" x2="351" y2="58" />
<line x1="364" y1="0" x2="364" y2="109" />
<line x1="377" y1="0" x2="377" y2="31" />
<line x1="389" y1="0" x2="389" y2="179" />
<line x1="402" y1="0" x2="402" y2="33" />
<line x1="415" y1="0" x2="415" y2="120" />
<line x1="428" y1="0" x2="428" y2="68" />
<line x1="441" y1="0" x2="441" y2="78" />
<line x1="454" y1="0" x2="454" y2="68" />
<line x1="467" y1="0" x2="467" y2="244" />
<line x1="480" y1="0" x2="480" y2="39" />
<line x1="493" y1="0" x2="493" y2="86" />
<line x1="506" y1="0" x2="506" y2="78" />
<line x1="519" y1="0" x2="519" y2="213" />
<line x1="532" y1="0" x2="532" y2="43" />
<line x1="545" y1="0" x2="545" y2="224" />
<line x1="558" y1="0" x2="558" y2="45" />
<line x1="571" y1="0" x2="571" y2="153" />
<line x1="584" y1="0" x2="584" y2="143" />
<line x1="597" y1="0" x2="597" y2="102" />
<line x1="610" y1="0" x2="610" y2="49" />
<line x1="623" y1="0" x2="623" y2="348" />
<line x1="636" y1="0" x2="636" y2="66" />
<line x1="649" y1="0" x2="649" y2="166" />
<line x1="662" y1="0" x2="662" y2="98" />
<line x1="675" y1="0" x2="675" y2="175" />
<line x1="688" y1="0" x2="688" y2="55" />
<line x1="701" y1="0" x2="701" y2="268" />
<line x1="714" y1="0" x2="714" y2="96" />
<line x1="727" y1="0" x2="727" y2="267" />
<line x1="740" y1="0" x2="740" y2="108" />
<line x1="753" y1="0" x2="753" y2="126" />
<line x1="766" y1="0" x2="766" y2="61" />
<line x1="779" y1="0" x2="779" y2="542" />
<line x1="792" y1="0" x2="792" y2="63" />
<line x1="805" y1="0" x2="805" y2="134" />
<line x1="818" y1="0" x2="818" y2="181" />
<line x1="831" y1="0" x2="831" y2="247" />
<line x1="844" y1="0" x2="844" y2="110" />
<line x1="857" y1="0" x2="857" y2="312" />
<line x1="870" y1="0" x2="870" y2="69" />
<line x1="883" y1="0" x2="883" y2="219" />
<line x1="896" y1="0" x2="896" y2="128" />
<line x1="909" y1="0" x2="909" y2="309" />
<line x1="922" y1="0" x2="922" y2="73" />
<line x1="935" y1="0" x2="935" y2="606" />
<line x1="948" y1="0" x2="948" y2="75" />
<line x1="961" y1="0" x2="961" y2="158" />
<line x1="974" y1="0" x2="974" y2="211" />
<line x1="987" y1="0" x2="987" y2="241" />
<line x1="1000" y1="0" x2="1000" y2="124" />
<line x1="1013" y1="0" x2="1013" y2="356" />
<line x1="1026" y1="0" x2="1026" y2="81" />
<line x1="1039" y1="0" x2="1039" y2="477" />
<line x1="1052" y1="0" x2="1052" y2="179" />
<line x1="1065" y1="0" x2="1065" y2="174" />
<line x1="1078" y1="0" x2="1078" y2="85" />
<line x1="1091" y1="0" x2="1091" y2="675" />
<line x1="1104" y1="0" x2="1104" y2="138" />
</g>
</svg>