<svg xmlns="http://www.w3.org/2000/svg" width="161.8" height="100.0" viewBox="185098.1 -125.0 171.8 110.0">
<g fill="none" stroke="black" stroke-width="0.5000%" transform="translate(0, -140.0000) scale(1.0000, -1.0000)">
<circle cx="185191.3" cy="-120.0" r="0.5" />
<circle cx="185106.8" cy="-119.0" r="0.5" />
<circle cx="185252.6" cy="-119.0" r="0.5" />
<circle cx="185142.3" cy="-118.0" r="0.5" />
<circle cx="185150.9" cy="-117.0" r="0.5" />
<circle cx="185132.5" cy="-116.0" r="0.5" />
<circle cx="185228.1" cy="-115.0" r="0.5" />
<circle cx="185154.6" cy="-114.0" r="0.5" />
<circle cx="185192.6" cy="-113.0" r="0.5" />
<circle cx="185201.2" cy="-112.0" r="0.5" />
<circle cx="185180.3" cy="-111.0" r="0.5" />
<circle cx="185130.1" cy="-110.0" r="0.5" />
<circle cx="185264.9" cy="-110.0" r="0.5" />
<circle cx="185184.0" cy="-109.0" r="0.5" />
<circle cx="185206.1" cy="-108.0" r="0.5" />
<circle cx="185196.2" cy="-107.0" r="0.5" />
<circle cx="185154.6" cy="-106.0" r="0.5" />
<circle cx="185209.7" cy="-105.0" r="0.5" />
<circle cx="185103.1" cy="-104.0" r="0.5" />
<circle cx="185230.6" cy="-104.0" r="0.5" />
<circle cx="185217.1" cy="-103.0" r="0.5" />
<circle cx="185169.3" cy="-102.0" r="0.5" />
<circle cx="185211.0" cy="-101.0" r="0.5" />
<circle cx="185215.9" cy="-100.0" r="0.5" />
<circle cx="185184.0" cy="-99.0" r="0.5" />
<circle cx="185115.3" cy="-98.0" r="0.5" />
<circle cx="185235.5" cy="-98.0" r="0.5" />
<circle cx="185128.8" cy="-97.0" r="0.5" />
<circle cx="185247.7" cy="-97.0" r="0.5" />
<circle cx="185103.1" cy="-96.0" r="0.5" />
<circle cx="185220.8" cy="-96.0" r="0.5" />
<circle cx="185154.6" cy="-95.0" r="0.5" />
<circle cx="185164.4" cy="-94.0" r="0.5" />
<circle cx="185132.5" cy="-93.0" r="0.5" />
<circle cx="185246.5" cy="-93.0" r="0.5" />
<circle cx="185171.7" cy="-92.0" r="0.5" />
<circle cx="185166.8" cy="-91.0" r="0.5" />
<circle cx="185117.8" cy="-90.0" r="0.5" />
<circle cx="185228.1" cy="-90.0" r="0.5" />
<circle cx="185133.7" cy="-89.0" r="0.5" />
<circle cx="185242.8" cy="-89.0" r="0.5" />
<circle cx="185103.1" cy="-88.0" r="0.5" />
<circle cx="185211.0" cy="-88.0" r="0.5" />
<circle cx="185132.5" cy="-87.0" r="0.5" />
<circle cx="185239.2" cy="-87.0" r="0.5" />
<circle cx="185112.9" cy="-86.0" r="0.5" />
<circle cx="185218.3" cy="-86.0" r="0.5" />
<circle cx="185148.4" cy="-85.0" r="0.5" />
<circle cx="185252.6" cy="-85.0" r="0.5" />
<circle cx="185132.5" cy="-84.0" r="0.5" />
<circle cx="185235.5" cy="-84.0" r="0.5" />
<circle cx="185166.8" cy="-83.0" r="0.5" />
<circle cx="185147.2" cy="-82.0" r="0.5" />
<circle cx="185247.7" cy="-82.0" r="0.5" />
<circle cx="185173.0" cy="-81.0" r="0.5" />
<circle cx="185142.3" cy="-80.0" r="0.5" />
<circle cx="185240.4" cy="-80.0" r="0.5" />
<circle cx="185152.1" cy="-79.0" r="0.5" />
<circle cx="185249.0" cy="-79.0" r="0.5" />
<circle cx="185103.1" cy="-78.0" r="0.5" />
<circle cx="185198.7" cy="-78.0" r="0.5" />
<circle cx="185184.0" cy="-77.0" r="0.5" />
<circle cx="185108.0" cy="-76.0" r="0.5" />
<circle cx="185201.2" cy="-76.0" r="0.5" />
<circle cx="185154.6" cy="-75.0" r="0.5" />
<circle cx="185246.5" cy="-75.0" r="0.5" />
<circle cx="185135.0" cy="-74.0" r="0.5" />
<circle cx="185225.7" cy="-74.0" r="0.5" />
<circle cx="185138.6" cy="-73.0" r="0.5" />
<circle cx="185228.1" cy="-73.0" r="0.5" />
<circle cx="185161.9" cy="-72.0" r="0.5" />
<circle cx="185250.2" cy="-72.0" r="0.5" />
<circle cx="185114.1" cy="-71.0" r="0.5" />
<circle cx="185201.2" cy="-71.0" r="0.5" />
<circle cx="185166.8" cy="-70.0" r="0.5" />
<circle cx="185252.6" cy="-70.0" r="0.5" />
<circle cx="185143.5" cy="-69.0" r="0.5" />
<circle cx="185228.1" cy="-69.0" r="0.5" />
<circle cx="185127.6" cy="-68.0" r="0.5" />
<circle cx="185211.0" cy="-68.0" r="0.5" />
<circle cx="185115.3" cy="-67.0" r="0.5" />
<circle cx="185197.5" cy="-67.0" r="0.5" />
<circle cx="185103.1" cy="-66.0" r="0.5" />
<circle cx="185184.0" cy="-66.0" r="0.5" />
<circle cx="185264.9" cy="-66.0" r="0.5" />
<circle cx="185166.8" cy="-65.0" r="0.5" />
<circle cx="185246.5" cy="-65.0" r="0.5" />
<circle cx="185142.3" cy="-64.0" r="0.5" />
<circle cx="185220.8" cy="-64.0" r="0.5" />
<circle cx="185106.8" cy="-63.0" r="0.5" />
<circle cx="185184.0" cy="-63.0" r="0.5" />
<circle cx="185261.2" cy="-63.0" r="0.5" />
<circle cx="185132.5" cy="-62.0" r="0.5" />
<circle cx="185208.5" cy="-62.0" r="0.5" />
<circle cx="185137.4" cy="-61.0" r="0.5" />
<circle cx="185212.2" cy="-61.0" r="0.5" />
<circle cx="185117.8" cy="-60.0" r="0.5" />
<circle cx="185191.3" cy="-60.0" r="0.5" />
<circle cx="185264.9" cy="-60.0" r="0.5" />
<circle cx="185142.3" cy="-59.0" r="0.5" />
<circle cx="185214.6" cy="-59.0" r="0.5" />
<circle cx="185132.5" cy="-58.0" r="0.5" />
<circle cx="185203.6" cy="-58.0" r="0.5" />
<circle cx="185154.6" cy="-57.0" r="0.5" />
<circle cx="185224.4" cy="-57.0" r="0.5" />
<circle cx="185132.5" cy="-56.0" r="0.5" />
<circle cx="185201.2" cy="-56.0" r="0.5" />
<circle cx="185130.1" cy="-55.0" r="0.5" />
<circle cx="185197.5" cy="-55.0" r="0.5" />
<circle cx="185264.9" cy="-55.0" r="0.5" />
<circle cx="185139.9" cy="-54.0" r="0.5" />
<circle cx="185206.1" cy="-54.0" r="0.5" />
<circle cx="185154.6" cy="-53.0" r="0.5" />
<circle cx="185219.5" cy="-53.0" r="0.5" />
<circle cx="185103.1" cy="-52.0" r="0.5" />
<circle cx="185166.8" cy="-52.0" r="0.5" />
<circle cx="185230.6" cy="-52.0" r="0.5" />
<circle cx="185106.8" cy="-51.0" r="0.5" />
<circle cx="185169.3" cy="-51.0" r="0.5" />
<circle cx="185231.8" cy="-51.0" r="0.5" />
<circle cx="185154.6" cy="-50.0" r="0.5" />
<circle cx="185215.9" cy="-50.0" r="0.5" />
<circle cx="185115.3" cy="-49.0" r="0.5" />
<circle cx="185175.4" cy="-49.0" r="0.5" />
<circle cx="185235.5" cy="-49.0" r="0.5" />
<circle cx="185103.1" cy="-48.0" r="0.5" />
<circle cx="185161.9" cy="-48.0" r="0.5" />
<circle cx="185220.8" cy="-48.0" r="0.5" />
<circle cx="185106.8" cy="-47.0" r="0.5" />
<circle cx="185164.4" cy="-47.0" r="0.5" />
<circle cx="185222.0" cy="-47.0" r="0.5" />
<circle cx="185115.3" cy="-46.0" r="0.5" />
<circle cx="185171.7" cy="-46.0" r="0.5" />
<circle cx="185228.1" cy="-46.0" r="0.5" />
<circle cx="185117.8" cy="-45.0" r="0.5" />
<circle cx="185173.0" cy="-45.0" r="0.5" />
<circle cx="185228.1" cy="-45.0" r="0.5" />
<circle cx="185103.1" cy="-44.0" r="0.5" />
<circle cx="185157.0" cy="-44.0" r="0.5" />
<circle cx="185211.0" cy="-44.0" r="0.5" />
<circle cx="185264.9" cy="-44.0" r="0.5" />
<circle cx="185112.9" cy="-43.0" r="0.5" />
<circle cx="185165.6" cy="-43.0" r="0.5" />
<circle cx="185218.3" cy="-43.0" r="0.5" />
<circle cx="185132.5" cy="-42.0" r="0.5" />
<circle cx="185184.0" cy="-42.0" r="0.5" />
<circle cx="185235.5" cy="-42.0" r="0.5" />
<circle cx="185147.2" cy="-41.0" r="0.5" />
<circle cx="185197.5" cy="-41.0" r="0.5" />
<circle cx="185247.7" cy="-41.0" r="0.5" />
<circle cx="185142.3" cy="-40.0" r="0.5" />
<circle cx="185191.3" cy="-40.0" r="0.5" />
<circle cx="185240.4" cy="-40.0" r="0.5" />
<circle cx="185103.1" cy="-39.0" r="0.5" />
<circle cx="185150.9" cy="-39.0" r="0.5" />
<circle cx="185198.7" cy="-39.0" r="0.5" />
<circle cx="185246.5" cy="-39.0" r="0.5" />
<circle cx="185108.0" cy="-38.0" r="0.5" />
<circle cx="185154.6" cy="-38.0" r="0.5" />
<circle cx="185201.2" cy="-38.0" r="0.5" />
<circle cx="185247.7" cy="-38.0" r="0.5" />
<circle cx="185135.0" cy="-37.0" r="0.5" />
<circle cx="185180.3" cy="-37.0" r="0.5" />
<circle cx="185225.7" cy="-37.0" r="0.5" />
<circle cx="185117.8" cy="-36.0" r="0.5" />
<circle cx="185161.9" cy="-36.0" r="0.5" />
<circle cx="185206.1" cy="-36.0" r="0.5" />
<circle cx="185250.2" cy="-36.0" r="0.5" />
<circle cx="185123.9" cy="-35.0" r="0.5" />
<circle cx="185166.8" cy="-35.0" r="0.5" />
<circle cx="185209.7" cy="-35.0" r="0.5" />
<circle cx="185252.6" cy="-35.0" r="0.5" />
<circle cx="185127.6" cy="-34.0" r="0.5" />
<circle cx="185169.3" cy="-34.0" r="0.5" />
<circle cx="185211.0" cy="-34.0" r="0.5" />
<circle cx="185252.6" cy="-34.0" r="0.5" />
<circle cx="185103.1" cy="-33.0" r="0.5" />
<circle cx="185143.5" cy="-33.0" r="0.5" />
<circle cx="185184.0" cy="-33.0" r="0.5" />
<circle cx="185224.4" cy="-33.0" r="0.5" />
<circle cx="185264.9" cy="-33.0" r="0.5" />
<circle cx="185103.1" cy="-32.0" r="0.5" />
<circle cx="185142.3" cy="-32.0" r="0.5" />
<circle cx="185181.5" cy="-32.0" r="0.5" />
<circle cx="185220.8" cy="-32.0" r="0.5" />
<circle cx="185260.0" cy="-32.0" r="0.5" />
<circle cx="185132.5" cy="-31.0" r="0.5" />
<circle cx="185170.5" cy="-31.0" r="0.5" />
<circle cx="185208.5" cy="-31.0" r="0.5" />
<circle cx="185246.5" cy="-31.0" r="0.5" />
<circle cx="185117.8" cy="-30.0" r="0.5" />
<circle cx="185154.6" cy="-30.0" r="0.5" />
<circle cx="185191.3" cy="-30.0" r="0.5" />
<circle cx="185228.1" cy="-30.0" r="0.5" />
<circle cx="185264.9" cy="-30.0" r="0.5" />
<circle cx="185132.5" cy="-29.0" r="0.5" />
<circle cx="185168.1" cy="-29.0" r="0.5" />
<circle cx="185203.6" cy="-29.0" r="0.5" />
<circle cx="185239.2" cy="-29.0" r="0.5" />
<circle cx="185132.5" cy="-28.0" r="0.5" />
<circle cx="185166.8" cy="-28.0" r="0.5" />
<circle cx="185201.2" cy="-28.0" r="0.5" />
<circle cx="185235.5" cy="-28.0" r="0.5" />
<circle cx="185106.8" cy="-27.0" r="0.5" />
<circle cx="185139.9" cy="-27.0" r="0.5" />
<circle cx="185173.0" cy="-27.0" r="0.5" />
<circle cx="185206.1" cy="-27.0" r="0.5" />
<circle cx="185239.2" cy="-27.0" r="0.5" />
<circle cx="185103.1" cy="-26.0" r="0.5" />
<circle cx="185135.0" cy="-26.0" r="0.5" />
<circle cx="185166.8" cy="-26.0" r="0.5" />
<circle cx="185198.7" cy="-26.0" r="0.5" />
<circle cx="185230.6" cy="-26.0" r="0.5" />
<circle cx="185262.4" cy="-26.0" r="0.5" />
<circle cx="185123.9" cy="-25.0" r="0.5" />
<circle cx="185154.6" cy="-25.0" r="0.5" />
<circle cx="185185.2" cy="-25.0" r="0.5" />
<circle cx="185215.9" cy="-25.0" r="0.5" />
<circle cx="185246.5" cy="-25.0" r="0.5" />
<circle cx="185103.1" cy="-24.0" r="0.5" />
<circle cx="185132.5" cy="-24.0" r="0.5" />
<circle cx="185161.9" cy="-24.0" r="0.5" />
<circle cx="185191.3" cy="-24.0" r="0.5" />
<circle cx="185220.8" cy="-24.0" r="0.5" />
<circle cx="185250.2" cy="-24.0" r="0.5" />
<circle cx="185115.3" cy="-23.0" r="0.5" />
<circle cx="185143.5" cy="-23.0" r="0.5" />
<circle cx="185171.7" cy="-23.0" r="0.5" />
<circle cx="185199.9" cy="-23.0" r="0.5" />
<circle cx="185228.1" cy="-23.0" r="0.5" />
<circle cx="185256.3" cy="-23.0" r="0.5" />
<circle cx="185103.1" cy="-22.0" r="0.5" />
<circle cx="185130.1" cy="-22.0" r="0.5" />
<circle cx="185157.0" cy="-22.0" r="0.5" />
<circle cx="185184.0" cy="-22.0" r="0.5" />
<circle cx="185211.0" cy="-22.0" r="0.5" />
<circle cx="185237.9" cy="-22.0" r="0.5" />
<circle cx="185264.9" cy="-22.0" r="0.5" />
<circle cx="185106.8" cy="-21.0" r="0.5" />
<circle cx="185132.5" cy="-21.0" r="0.5" />
<circle cx="185158.2" cy="-21.0" r="0.5" />
<circle cx="185184.0" cy="-21.0" r="0.5" />
<circle cx="185209.7" cy="-21.0" r="0.5" />
<circle cx="185235.5" cy="-21.0" r="0.5" />
<circle cx="185261.2" cy="-21.0" r="0.5" />
<circle cx="185117.8" cy="-20.0" r="0.5" />
<circle cx="185142.3" cy="-20.0" r="0.5" />
<circle cx="185166.8" cy="-20.0" r="0.5" />
<circle cx="185191.3" cy="-20.0" r="0.5" />
<circle cx="185215.9" cy="-20.0" r="0.5" />
<circle cx="185240.4" cy="-20.0" r="0.5" />
<circle cx="185264.9" cy="-20.0" r="0.5" />
</g>
</svg>