<svg xmlns="http://www.w3.org/2000/svg" width="161.8" height="100.0" viewBox="-5.0 -125.0 171.8 110.0">
<g fill="none" stroke="black" stroke-width="0.5000%" transform="translate(0, -140.0000) scale(1.0000, -1.0000)">
<circle cx="88.3" cy="-120.0" r="0.5" />
<circle cx="3.7" cy="-119.0" r="0.5" />
<circle cx="149.5" cy="-119.0" r="0.5" />
<circle cx="39.2" cy="-118.0" r="0.5" />
<circle cx="47.8" cy="-117.0" r="0.5" />
<circle cx="29.4" cy="-116.0" r="0.5" />
<circle cx="125.0" cy="-115.0" r="0.5" />
<circle cx="51.5" cy="-114.0" r="0.5" />
<circle cx="89.5" cy="-113.0" r="0.5" />
<circle cx="98.1" cy="-112.0" r="0.5" />
<circle cx="77.2" cy="-111.0" r="0.5" />
<circle cx="27.0" cy="-110.0" r="0.5" />
<circle cx="161.8" cy="-110.0" r="0.5" />
<circle cx="80.9" cy="-109.0" r="0.5" />
<circle cx="103.0" cy="-108.0" r="0.5" />
<circle cx="93.2" cy="-107.0" r="0.5" />
<circle cx="51.5" cy="-106.0" r="0.5" />
<circle cx="106.6" cy="-105.0" r="0.5" />
<circle cx="0.0" cy="-104.0" r="0.5" />
<circle cx="127.5" cy="-104.0" r="0.5" />
<circle cx="114.0" cy="-103.0" r="0.5" />
<circle cx="66.2" cy="-102.0" r="0.5" />
<circle cx="107.9" cy="-101.0" r="0.5" />
<circle cx="112.8" cy="-100.0" r="0.5" />
<circle cx="80.9" cy="-99.0" r="0.5" />
<circle cx="12.3" cy="-98.0" r="0.5" />
<circle cx="132.4" cy="-98.0" r="0.5" />
<circle cx="25.7" cy="-97.0" r="0.5" />
<circle cx="144.6" cy="-97.0" r="0.5" />
<circle cx="0.0" cy="-96.0" r="0.5" />
<circle cx="117.7" cy="-96.0" r="0.5" />
<circle cx="51.5" cy="-95.0" r="0.5" />
<circle cx="61.3" cy="-94.0" r="0.5" />
<circle cx="29.4" cy="-93.0" r="0.5" />
<circle cx="143.4" cy="-93.0" r="0.5" />
<circle cx="68.6" cy="-92.0" r="0.5" />
<circle cx="63.7" cy="-91.0" r="0.5" />
<circle cx="14.7" cy="-90.0" r="0.5" />
<circle cx="125.0" cy="-90.0" r="0.5" />
<circle cx="30.6" cy="-89.0" r="0.5" />
<circle cx="139.7" cy="-89.0" r="0.5" />
<circle cx="0.0" cy="-88.0" r="0.5" />
<circle cx="107.9" cy="-88.0" r="0.5" />
<circle cx="29.4" cy="-87.0" r="0.5" />
<circle cx="136.1" cy="-87.0" r="0.5" />
<circle cx="9.8" cy="-86.0" r="0.5" />
<circle cx="115.2" cy="-86.0" r="0.5" />
<circle cx="45.4" cy="-85.0" r="0.5" />
<circle cx="149.5" cy="-85.0" r="0.5" />
<circle cx="29.4" cy="-84.0" r="0.5" />
<circle cx="132.4" cy="-84.0" r="0.5" />
<circle cx="63.7" cy="-83.0" r="0.5" />
<circle cx="44.1" cy="-82.0" r="0.5" />
<circle cx="144.6" cy="-82.0" r="0.5" />
<circle cx="69.9" cy="-81.0" r="0.5" />
<circle cx="39.2" cy="-80.0" r="0.5" />
<circle cx="137.3" cy="-80.0" r="0.5" />
<circle cx="49.0" cy="-79.0" r="0.5" />
<circle cx="145.9" cy="-79.0" r="0.5" />
<circle cx="0.0" cy="-78.0" r="0.5" />
<circle cx="95.6" cy="-78.0" r="0.5" />
<circle cx="80.9" cy="-77.0" r="0.5" />
<circle cx="4.9" cy="-76.0" r="0.5" />
<circle cx="98.1" cy="-76.0" r="0.5" />
<circle cx="51.5" cy="-75.0" r="0.5" />
<circle cx="143.4" cy="-75.0" r="0.5" />
<circle cx="31.9" cy="-74.0" r="0.5" />
<circle cx="122.6" cy="-74.0" r="0.5" />
<circle cx="35.5" cy="-73.0" r="0.5" />
<circle cx="125.0" cy="-73.0" r="0.5" />
<circle cx="58.8" cy="-72.0" r="0.5" />
<circle cx="147.1" cy="-72.0" r="0.5" />
<circle cx="11.0" cy="-71.0" r="0.5" />
<circle cx="98.1" cy="-71.0" r="0.5" />
<circle cx="63.7" cy="-70.0" r="0.5" />
<circle cx="149.5" cy="-70.0" r="0.5" />
<circle cx="40.5" cy="-69.0" r="0.5" />
<circle cx="125.0" cy="-69.0" r="0.5" />
<circle cx="24.5" cy="-68.0" r="0.5" />
<circle cx="107.9" cy="-68.0" r="0.5" />
<circle cx="12.3" cy="-67.0" r="0.5" />
<circle cx="94.4" cy="-67.0" r="0.5" />
<circle cx="0.0" cy="-66.0" r="0.5" />
<circle cx="80.9" cy="-66.0" r="0.5" />
<circle cx="161.8" cy="-66.0" r="0.5" />
<circle cx="63.7" cy="-65.0" r="0.5" />
<circle cx="143.4" cy="-65.0" r="0.5" />
<circle cx="39.2" cy="-64.0" r="0.5" />
<circle cx="117.7" cy="-64.0" r="0.5" />
<circle cx="3.7" cy="-63.0" r="0.5" />
<circle cx="80.9" cy="-63.0" r="0.5" />
<circle cx="158.1" cy="-63.0" r="0.5" />
<circle cx="29.4" cy="-62.0" r="0.5" />
<circle cx="105.4" cy="-62.0" r="0.5" />
<circle cx="34.3" cy="-61.0" r="0.5" />
<circle cx="109.1" cy="-61.0" r="0.5" />
<circle cx="14.7" cy="-60.0" r="0.5" />
<circle cx="88.3" cy="-60.0" r="0.5" />
<circle cx="161.8" cy="-60.0" r="0.5" />
<circle cx="39.2" cy="-59.0" r="0.5" />
<circle cx="111.5" cy="-59.0" r="0.5" />
<circle cx="29.4" cy="-58.0" r="0.5" />
<circle cx="100.5" cy="-58.0" r="0.5" />
<circle cx="51.5" cy="-57.0" r="0.5" />
<circle cx="121.4" cy="-57.0" r="0.5" />
<circle cx="29.4" cy="-56.0" r="0.5" />
<circle cx="98.1" cy="-56.0" r="0.5" />
<circle cx="27.0" cy="-55.0" r="0.5" />
<circle cx="94.4" cy="-55.0" r="0.5" />
<circle cx="161.8" cy="-55.0" r="0.5" />
<circle cx="36.8" cy="-54.0" r="0.5" />
<circle cx="103.0" cy="-54.0" r="0.5" />
<circle cx="51.5" cy="-53.0" r="0.5" />
<circle cx="116.4" cy="-53.0" r="0.5" />
<circle cx="0.0" cy="-52.0" r="0.5" />
<circle cx="63.7" cy="-52.0" r="0.5" />
<circle cx="127.5" cy="-52.0" r="0.5" />
<circle cx="3.7" cy="-51.0" r="0.5" />
<circle cx="66.2" cy="-51.0" r="0.5" />
<circle cx="128.7" cy="-51.0" r="0.5" />
<circle cx="51.5" cy="-50.0" r="0.5" />
<circle cx="112.8" cy="-50.0" r="0.5" />
<circle cx="12.3" cy="-49.0" r="0.5" />
<circle cx="72.3" cy="-49.0" r="0.5" />
<circle cx="132.4" cy="-49.0" r="0.5" />
<circle cx="0.0" cy="-48.0" r="0.5" />
<circle cx="58.8" cy="-48.0" r="0.5" />
<circle cx="117.7" cy="-48.0" r="0.5" />
<circle cx="3.7" cy="-47.0" r="0.5" />
<circle cx="61.3" cy="-47.0" r="0.5" />
<circle cx="118.9" cy="-47.0" r="0.5" />
<circle cx="12.3" cy="-46.0" r="0.5" />
<circle cx="68.6" cy="-46.0" r="0.5" />
<circle cx="125.0" cy="-46.0" r="0.5" />
<circle cx="14.7" cy="-45.0" r="0.5" />
<circle cx="69.9" cy="-45.0" r="0.5" />
<circle cx="125.0" cy="-45.0" r="0.5" />
<circle cx="0.0" cy="-44.0" r="0.5" />
<circle cx="53.9" cy="-44.0" r="0.5" />
<circle cx="107.9" cy="-44.0" r="0.5" />
<circle cx="161.8" cy="-44.0" r="0.5" />
<circle cx="9.8" cy="-43.0" r="0.5" />
<circle cx="62.5" cy="-43.0" r="0.5" />
<circle cx="115.2" cy="-43.0" r="0.5" />
<circle cx="29.4" cy="-42.0" r="0.5" />
<circle cx="80.9" cy="-42.0" r="0.5" />
<circle cx="132.4" cy="-42.0" r="0.5" />
<circle cx="44.1" cy="-41.0" r="0.5" />
<circle cx="94.4" cy="-41.0" r="0.5" />
<circle cx="144.6" cy="-41.0" r="0.5" />
<circle cx="39.2" cy="-40.0" r="0.5" />
<circle cx="88.3" cy="-40.0" r="0.5" />
<circle cx="137.3" cy="-40.0" r="0.5" />
<circle cx="0.0" cy="-39.0" r="0.5" />
<circle cx="47.8" cy="-39.0" r="0.5" />
<circle cx="95.6" cy="-39.0" r="0.5" />
<circle cx="143.4" cy="-39.0" r="0.5" />
<circle cx="4.9" cy="-38.0" r="0.5" />
<circle cx="51.5" cy="-38.0" r="0.5" />
<circle cx="98.1" cy="-38.0" r="0.5" />
<circle cx="144.6" cy="-38.0" r="0.5" />
<circle cx="31.9" cy="-37.0" r="0.5" />
<circle cx="77.2" cy="-37.0" r="0.5" />
<circle cx="122.6" cy="-37.0" r="0.5" />
<circle cx="14.7" cy="-36.0" r="0.5" />
<circle cx="58.8" cy="-36.0" r="0.5" />
<circle cx="103.0" cy="-36.0" r="0.5" />
<circle cx="147.1" cy="-36.0" r="0.5" />
<circle cx="20.8" cy="-35.0" r="0.5" />
<circle cx="63.7" cy="-35.0" r="0.5" />
<circle cx="106.6" cy="-35.0" r="0.5" />
<circle cx="149.5" cy="-35.0" r="0.5" />
<circle cx="24.5" cy="-34.0" r="0.5" />
<circle cx="66.2" cy="-34.0" r="0.5" />
<circle cx="107.9" cy="-34.0" r="0.5" />
<circle cx="149.5" cy="-34.0" r="0.5" />
<circle cx="0.0" cy="-33.0" r="0.5" />
<circle cx="40.5" cy="-33.0" r="0.5" />
<circle cx="80.9" cy="-33.0" r="0.5" />
<circle cx="121.4" cy="-33.0" r="0.5" />
<circle cx="161.8" cy="-33.0" r="0.5" />
<circle cx="0.0" cy="-32.0" r="0.5" />
<circle cx="39.2" cy="-32.0" r="0.5" />
<circle cx="78.5" cy="-32.0" r="0.5" />
<circle cx="117.7" cy="-32.0" r="0.5" />
<circle cx="156.9" cy="-32.0" r="0.5" />
<circle cx="29.4" cy="-31.0" r="0.5" />
<circle cx="67.4" cy="-31.0" r="0.5" />
<circle cx="105.4" cy="-31.0" r="0.5" />
<circle cx="143.4" cy="-31.0" r="0.5" />
<circle cx="14.7" cy="-30.0" r="0.5" />
<circle cx="51.5" cy="-30.0" r="0.5" />
<circle cx="88.3" cy="-30.0" r="0.5" />
<circle cx="125.0" cy="-30.0" r="0.5" />
<circle cx="161.8" cy="-30.0" r="0.5" />
<circle cx="29.4" cy="-29.0" r="0.5" />
<circle cx="65.0" cy="-29.0" r="0.5" />
<circle cx="100.5" cy="-29.0" r="0.5" />
<circle cx="136.1" cy="-29.0" r="0.5" />
<circle cx="29.4" cy="-28.0" r="0.5" />
<circle cx="63.7" cy="-28.0" r="0.5" />
<circle cx="98.1" cy="-28.0" r="0.5" />
<circle cx="132.4" cy="-28.0" r="0.5" />
<circle cx="3.7" cy="-27.0" r="0.5" />
<circle cx="36.8" cy="-27.0" r="0.5" />
<circle cx="69.9" cy="-27.0" r="0.5" />
<circle cx="103.0" cy="-27.0" r="0.5" />
<circle cx="136.1" cy="-27.0" r="0.5" />
<circle cx="0.0" cy="-26.0" r="0.5" />
<circle cx="31.9" cy="-26.0" r="0.5" />
<circle cx="63.7" cy="-26.0" r="0.5" />
<circle cx="95.6" cy="-26.0" r="0.5" />
<circle cx="127.5" cy="-26.0" r="0.5" />
<circle cx="159.4" cy="-26.0" r="0.5" />
<circle cx="20.8" cy="-25.0" r="0.5" />
<circle cx="51.5" cy="-25.0" r="0.5" />
<circle cx="82.1" cy="-25.0" r="0.5" />
<circle cx="112.8" cy="-25.0" r="0.5" />
<circle cx="143.4" cy="-25.0" r="0.5" />
<circle cx="0.0" cy="-24.0" r="0.5" />
<circle cx="29.4" cy="-24.0" r="0.5" />
<circle cx="58.8" cy="-24.0" r="0.5" />
<circle cx="88.3" cy="-24.0" r="0.5" />
<circle cx="117.7" cy="-24.0" r="0.5" />
<circle cx="147.1" cy="-24.0" r="0.5" />
<circle cx="12.3" cy="-23.0" r="0.5" />
<circle cx="40.5" cy="-23.0" r="0.5" />
<circle cx="68.6" cy="-23.0" r="0.5" />
<circle cx="96.8" cy="-23.0" r="0.5" />
<circle cx="125.0" cy="-23.0" r="0.5" />
<circle cx="153.2" cy="-23.0" r="0.5" />
<circle cx="0.0" cy="-22.0" r="0.5" />
<circle cx="27.0" cy="-22.0" r="0.5" />
<circle cx="53.9" cy="-22.0" r="0.5" />
<circle cx="80.9" cy="-22.0" r="0.5" />
<circle cx="107.9" cy="-22.0" r="0.5" />
<circle cx="134.8" cy="-22.0" r="0.5" />
<circle cx="161.8" cy="-22.0" r="0.5" />
<circle cx="3.7" cy="-21.0" r="0.5" />
<circle cx="29.4" cy="-21.0" r="0.5" />
<circle cx="55.2" cy="-21.0" r="0.5" />
<circle cx="80.9" cy="-21.0" r="0.5" />
<circle cx="106.6" cy="-21.0" r="0.5" />
<circle cx="132.4" cy="-21.0" r="0.5" />
<circle cx="158.1" cy="-21.0" r="0.5" />
<circle cx="14.7" cy="-20.0" r="0.5" />
<circle cx="39.2" cy="-20.0" r="0.5" />
<circle cx="63.7" cy="-20.0" r="0.5" />
<circle cx="88.3" cy="-20.0" r="0.5" />
<circle cx="112.8" cy="-20.0" r="0.5" />
<circle cx="137.3" cy="-20.0" r="0.5" />
<circle cx="161.8" cy="-20.0" r="0.5" />
</g>
</svg>