<svg xmlns="http://www.w3.org/2000/svg" width="161.8" height="100.0" viewBox="-4.2 -4.7 171.8 110.0">
<g fill="none" stroke="black" stroke-width="1.4350%" transform="translate(0, 100.6969) scale(0.3484, -0.3484)">
<circle cx="2.3" cy="1.0" r="1.4" />
<circle cx="4.6" cy="2.0" r="1.4" />
<circle cx="7.0" cy="4.0" r="1.4" />
<circle cx="9.3" cy="6.0" r="1.4" />
<circle cx="11.6" cy="3.0" r="1.4" />
<circle cx="13.9" cy="5.0" r="1.4" />
<circle cx="16.3" cy="10.0" r="1.4" />
<circle cx="18.6" cy="8.0" r="1.4" />
<circle cx="20.9" cy="12.0" r="1.4" />
<circle cx="23.2" cy="9.0" r="1.4" />
<circle cx="25.5" cy="15.0" r="1.4" />
<circle cx="27.9" cy="20.0" r="1.4" />
<circle cx="30.2" cy="16.0" r="1.4" />
<circle cx="32.5" cy="24.0" r="1.4" />
<circle cx="34.8" cy="18.0" r="1.4" />
<circle cx="37.2" cy="21.0" r="1.4" />
<circle cx="39.5" cy="7.0" r="1.4" />
<circle cx="41.8" cy="11.0" r="1.4" />
<circle cx="44.1" cy="22.0" r="1.4" />
<circle cx="46.4" cy="14.0" r="1.4" />
<circle cx="48.8" cy="28.0" r="1.4" />
<circle cx="51.1" cy="26.0" r="1.4" />
<circle cx="53.4" cy="13.0" r="1.4" />
<circle cx="55.7" cy="17.0" r="1.4" />
<circle cx="58.0" cy="34.0" r="1.4" />
<circle cx="60.4" cy="30.0" r="1.4" />
<circle cx="62.7" cy="45.0" r="1.4" />
<circle cx="65.0" cy="27.0" r="1.4" />
<circle cx="67.3" cy="33.0" r="1.4" />
<circle cx="69.7" cy="44.0" r="1.4" />
<circle cx="72.0" cy="32.0" r="1.4" />
<circle cx="74.3" cy="40.0" r="1.4" />
<circle cx="76.6" cy="25.0" r="1.4" />
<circle cx="78.9" cy="35.0" r="1.4" />
<circle cx="81.3" cy="42.0" r="1.4" />
<circle cx="83.6" cy="36.0" r="1.4" />
<circle cx="85.9" cy="48.0" r="1.4" />
<circle cx="88.2" cy="52.0" r="1.4" />
<circle cx="90.6" cy="39.0" r="1.4" />
<circle cx="92.9" cy="51.0" r="1.4" />
<circle cx="95.2" cy="68.0" r="1.4" />
<circle cx="97.5" cy="56.0" r="1.4" />
<circle cx="99.8" cy="70.0" r="1.4" />
<circle cx="102.2" cy="50.0" r="1.4" />
<circle cx="104.5" cy="55.0" r="1.4" />
<circle cx="106.8" cy="66.0" r="1.4" />
<circle cx="109.1" cy="54.0" r="1.4" />
<circle cx="111.5" cy="63.0" r="1.4" />
<circle cx="113.8" cy="49.0" r="1.4" />
<circle cx="116.1" cy="77.0" r="1.4" />
<circle cx="118.4" cy="88.0" r="1.4" />
<circle cx="120.7" cy="64.0" r="1.4" />
<circle cx="123.1" cy="72.0" r="1.4" />
<circle cx="125.4" cy="81.0" r="1.4" />
<circle cx="127.7" cy="90.0" r="1.4" />
<circle cx="130.0" cy="60.0" r="1.4" />
<circle cx="132.3" cy="38.0" r="1.4" />
<circle cx="134.7" cy="19.0" r="1.4" />
<circle cx="137.0" cy="23.0" r="1.4" />
<circle cx="139.3" cy="46.0" r="1.4" />
<circle cx="141.6" cy="58.0" r="1.4" />
<circle cx="144.0" cy="29.0" r="1.4" />
<circle cx="146.3" cy="31.0" r="1.4" />
<circle cx="148.6" cy="62.0" r="1.4" />
<circle cx="150.9" cy="74.0" r="1.4" />
<circle cx="153.2" cy="37.0" r="1.4" />
<circle cx="155.6" cy="41.0" r="1.4" />
<circle cx="157.9" cy="82.0" r="1.4" />
<circle cx="160.2" cy="76.0" r="1.4" />
<circle cx="162.5" cy="114.0" r="1.4" />
<circle cx="164.9" cy="57.0" r="1.4" />
<circle cx="167.2" cy="43.0" r="1.4" />
<circle cx="169.5" cy="86.0" r="1.4" />
<circle cx="171.8" cy="78.0" r="1.4" />
<circle cx="174.1" cy="117.0" r="1.4" />
<circle cx="176.5" cy="69.0" r="1.4" />
<circle cx="178.8" cy="92.0" r="1.4" />
<circle cx="181.1" cy="80.0" r="1.4" />
<circle cx="183.4" cy="100.0" r="1.4" />
<circle cx="185.8" cy="65.0" r="1.4" />
<circle cx="188.1" cy="91.0" r="1.4" />
<circle cx="190.4" cy="84.0" r="1.4" />
<circle cx="192.7" cy="96.0" r="1.4" />
<circle cx="195.0" cy="104.0" r="1.4" />
<circle cx="197.4" cy="130.0" r="1.4" />
<circle cx="199.7" cy="75.0" r="1.4" />
<circle cx="202.0" cy="105.0" r="1.4" />
<circle cx="204.3" cy="98.0" r="1.4" />
<circle cx="206.6" cy="112.0" r="1.4" />
<circle cx="209.0" cy="120.0" r="1.4" />
<circle cx="211.3" cy="135.0" r="1.4" />
<circle cx="213.6" cy="99.0" r="1.4" />
<circle cx="215.9" cy="110.0" r="1.4" />
<circle cx="218.3" cy="140.0" r="1.4" />
<circle cx="220.6" cy="126.0" r="1.4" />
<circle cx="222.9" cy="108.0" r="1.4" />
<circle cx="225.2" cy="102.0" r="1.4" />
<circle cx="227.5" cy="85.0" r="1.4" />
<circle cx="229.9" cy="95.0" r="1.4" />
<circle cx="232.2" cy="133.0" r="1.4" />
<circle cx="234.5" cy="119.0" r="1.4" />
<circle cx="236.8" cy="136.0" r="1.4" />
<circle cx="239.2" cy="128.0" r="1.4" />
<circle cx="241.5" cy="144.0" r="1.4" />
<circle cx="243.8" cy="153.0" r="1.4" />
<circle cx="246.1" cy="170.0" r="1.4" />
<circle cx="248.4" cy="150.0" r="1.4" />
<circle cx="250.8" cy="165.0" r="1.4" />
<circle cx="253.1" cy="121.0" r="1.4" />
<circle cx="255.4" cy="132.0" r="1.4" />
<circle cx="257.7" cy="156.0" r="1.4" />
<circle cx="260.1" cy="143.0" r="1.4" />
<circle cx="262.4" cy="154.0" r="1.4" />
<circle cx="264.7" cy="168.0" r="1.4" />
<circle cx="267.0" cy="180.0" r="1.4" />
<circle cx="269.3" cy="195.0" r="1.4" />
<circle cx="271.7" cy="169.0" r="1.4" />
<circle cx="274.0" cy="182.0" r="1.4" />
<circle cx="276.3" cy="196.0" r="1.4" />
<circle cx="278.6" cy="210.0" r="1.4" />
<circle cx="280.9" cy="225.0" r="1.4" />
<circle cx="283.3" cy="240.0" r="1.4" />
<circle cx="285.6" cy="160.0" r="1.4" />
<circle cx="287.9" cy="94.0" r="1.4" />
<circle cx="290.2" cy="47.0" r="1.4" />
<circle cx="292.6" cy="53.0" r="1.4" />
<circle cx="294.9" cy="106.0" r="1.4" />
<circle cx="297.2" cy="116.0" r="1.4" />
<circle cx="299.5" cy="174.0" r="1.4" />
<circle cx="301.8" cy="87.0" r="1.4" />
<circle cx="304.2" cy="59.0" r="1.4" />
<circle cx="306.5" cy="118.0" r="1.4" />
<circle cx="308.8" cy="122.0" r="1.4" />
<circle cx="311.1" cy="61.0" r="1.4" />
<circle cx="313.5" cy="67.0" r="1.4" />
<circle cx="315.8" cy="134.0" r="1.4" />
<circle cx="318.1" cy="124.0" r="1.4" />
<circle cx="320.4" cy="186.0" r="1.4" />
<circle cx="322.7" cy="93.0" r="1.4" />
<circle cx="325.1" cy="71.0" r="1.4" />
<circle cx="327.4" cy="142.0" r="1.4" />
<circle cx="329.7" cy="138.0" r="1.4" />
<circle cx="332.0" cy="207.0" r="1.4" />
<circle cx="334.4" cy="111.0" r="1.4" />
<circle cx="336.7" cy="148.0" r="1.4" />
<circle cx="339.0" cy="152.0" r="1.4" />
<circle cx="341.3" cy="190.0" r="1.4" />
<circle cx="343.6" cy="115.0" r="1.4" />
<circle cx="346.0" cy="161.0" r="1.4" />
<circle cx="348.3" cy="147.0" r="1.4" />
<circle cx="350.6" cy="189.0" r="1.4" />
<circle cx="352.9" cy="162.0" r="1.4" />
<circle cx="355.2" cy="192.0" r="1.4" />
<circle cx="357.6" cy="224.0" r="1.4" />
<circle cx="359.9" cy="175.0" r="1.4" />
<circle cx="362.2" cy="125.0" r="1.4" />
<circle cx="364.5" cy="145.0" r="1.4" />
<circle cx="366.9" cy="203.0" r="1.4" />
<circle cx="369.2" cy="217.0" r="1.4" />
<circle cx="371.5" cy="155.0" r="1.4" />
<circle cx="373.8" cy="185.0" r="1.4" />
<circle cx="376.1" cy="222.0" r="1.4" />
<circle cx="378.5" cy="198.0" r="1.4" />
<circle cx="380.8" cy="231.0" r="1.4" />
<circle cx="383.1" cy="238.0" r="1.4" />
<circle cx="385.4" cy="204.0" r="1.4" />
<circle cx="387.8" cy="216.0" r="1.4" />
<circle cx="390.1" cy="234.0" r="1.4" />
<circle cx="392.4" cy="208.0" r="1.4" />
<circle cx="394.7" cy="176.0" r="1.4" />
<circle cx="397.0" cy="187.0" r="1.4" />
<circle cx="399.4" cy="221.0" r="1.4" />
<circle cx="401.7" cy="247.0" r="1.4" />
<circle cx="404.0" cy="171.0" r="1.4" />
<circle cx="406.3" cy="243.0" r="1.4" />
<circle cx="408.7" cy="270.0" r="1.4" />
<circle cx="411.0" cy="200.0" r="1.4" />
<circle cx="413.3" cy="220.0" r="1.4" />
<circle cx="415.6" cy="209.0" r="1.4" />
<circle cx="417.9" cy="228.0" r="1.4" />
<circle cx="420.3" cy="252.0" r="1.4" />
<circle cx="422.6" cy="273.0" r="1.4" />
<circle cx="424.9" cy="260.0" r="1.4" />
<circle cx="427.2" cy="280.0" r="1.4" />
<circle cx="429.5" cy="266.0" r="1.4" />
<circle cx="431.9" cy="285.0" r="1.4" />
<circle cx="434.2" cy="255.0" r="1.4" />
<circle cx="436.5" cy="272.0" r="1.4" />
<circle cx="438.8" cy="256.0" r="1.4" />
<circle cx="441.2" cy="288.0" r="1.4" />
<circle cx="443.5" cy="261.0" r="1.4" />
<circle cx="445.8" cy="232.0" r="1.4" />
<circle cx="448.1" cy="184.0" r="1.4" />
<circle cx="450.4" cy="230.0" r="1.4" />
<circle cx="452.8" cy="205.0" r="1.4" />
<circle cx="455.1" cy="123.0" r="1.4" />
<circle cx="457.4" cy="129.0" r="1.4" />
<circle cx="459.7" cy="172.0" r="1.4" />
<circle cx="462.1" cy="164.0" r="1.4" />
<circle cx="464.4" cy="246.0" r="1.4" />
<circle cx="466.7" cy="141.0" r="1.4" />
</g>
</svg>