<svg xmlns="http://www.w3.org/2000/svg" width="161.8" height="100.0" viewBox="-2.98 -71.67 171.80 110.00">
<g fill="none" stroke="black" stroke-width="0.0600%" transform="translate(0, -33.3333) scale(8.3333, -8.3333)">
<line x1="0.24" y1="0.00" x2="0.24" y2="1.00" />
<line x1="0.49" y1="0.00" x2="0.49" y2="-2.00" />
<line x1="0.73" y1="0.00" x2="0.73" y2="-2.00" />
<line x1="0.97" y1="0.00" x2="0.97" y2="1.00" />
<line x1="1.21" y1="0.00" x2="1.21" y2="-2.00" />
<line x1="1.46" y1="0.00" x2="1.46" y2="4.00" />
<line x1="1.70" y1="0.00" x2="1.70" y2="-2.00" />

<line x1="2.18" y1="0.00" x2="2.18" y2="1.00" />
<line x1="2.43" y1="0.00" x2="2.43" y2="4.00" />
<line x1="2.67" y1="0.00" x2="2.67" y2="-2.00" />
<line x1="2.91" y1="0.00" x2="2.91" y2="-2.00" />
<line x1="3.16" y1="0.00" x2="3.16" y2="-2.00" />
<line x1="3.40" y1="0.00" x2="3.40" y2="4.00" />
<line x1="3.64" y1="0.00" x2="3.64" y2="4.00" />

<line x1="4.13" y1="0.00" x2="4.13" y2="-2.00" />
<line x1="4.37" y1="0.00" x2="4.37" y2="-2.00" />
<line x1="4.61" y1="0.00" x2="4.61" y2="-2.00" />
<line x1="4.85" y1="0.00" x2="4.85" y2="-2.00" />
<line x1="5.10" y1="0.00" x2="5.10" y2="4.00" />
<line x1="5.34" y1="0.00" x2="5.34" y2="4.00" />
<line x1="5.58" y1="0.00" x2="5.58" y2="-2.00" />

<line x1="6.07" y1="0.00" x2="6.07" y2="1.00" />
<line x1="6.31" y1="0.00" x2="6.31" y2="4.00" />

<line x1="6.80" y1="0.00" x2="6.80" y2="-2.00" />
<line x1="7.04" y1="0.00" x2="7.04" y2="-2.00" />
<line x1="7.28" y1="0.00" x2="7.28" y2="-8.00" />
<line x1="7.52" y1="0.00" x2="7.52" y2="-2.00" />

<line x1="8.01" y1="0.00" x2="8.01" y2="4.00" />
<line x1="8.25" y1="0.00" x2="8.25" y2="4.00" />
<line x1="8.49" y1="0.00" x2="8.49" y2="4.00" />
<line x1="8.74" y1="0.00" x2="8.74" y2="1.00" />
<line x1="8.98" y1="0.00" x2="8.98" y2="-2.00" />
<line x1="9.22" y1="0.00" x2="9.22" y2="4.00" />
<line x1="9.47" y1="0.00" x2="9.47" y2="4.00" />

<line x1="9.95" y1="0.00" x2="9.95" y2="-2.00" />
<line x1="10.19" y1="0.00" x2="10.19" y2="-8.00" />
<line x1="10.44" y1="0.00" x2="10.44" y2="-2.00" />
<line x1="10.68" y1="0.00" x2="10.68" y2="-2.00" />
<line x1="10.92" y1="0.00" x2="10.92" y2="-2.00" />
<line x1="11.16" y1="0.00" x2="11.16" y2="4.00" />
<line x1="11.41" y1="0.00" x2="11.41" y2="-2.00" />

<line x1="11.89" y1="0.00" x2="11.89" y2="1.00" />
<line x1="12.14" y1="0.00" x2="12.14" y2="-2.00" />
<line x1="12.38" y1="0.00" x2="12.38" y2="4.00" />
<line x1="12.62" y1="0.00" x2="12.62" y2="-2.00" />
<line x1="12.86" y1="0.00" x2="12.86" y2="-2.00" />

<line x1="13.35" y1="0.00" x2="13.35" y2="4.00" />

<line x1="13.83" y1="0.00" x2="13.83" y2="4.00" />
<line x1="14.08" y1="0.00" x2="14.08" y2="4.00" />
<line x1="14.32" y1="0.00" x2="14.32" y2="-2.00" />
<line x1="14.56" y1="0.00" x2="14.56" y2="4.00" />
<line x1="14.81" y1="0.00" x2="14.81" y2="-2.00" />
<line x1="15.05" y1="0.00" x2="15.05" y2="4.00" />
<line x1="15.29" y1="0.00" x2="15.29" y2="-2.00" />

<line x1="15.78" y1="0.00" x2="15.78" y2="4.00" />
<line x1="16.02" y1="0.00" x2="16.02" y2="-8.00" />
<line x1="16.26" y1="0.00" x2="16.26" y2="-2.00" />
<line x1="16.50" y1="0.00" x2="16.50" y2="-2.00" />
<line x1="16.75" y1="0.00" x2="16.75" y2="4.00" />
<line x1="16.99" y1="0.00" x2="16.99" y2="-8.00" />
<line x1="17.23" y1="0.00" x2="17.23" y2="-2.00" />

<line x1="17.72" y1="0.00" x2="17.72" y2="-2.00" />
<line x1="17.96" y1="0.00" x2="17.96" y2="4.00" />
<line x1="18.20" y1="0.00" x2="18.20" y2="-2.00" />
<line x1="18.45" y1="0.00" x2="18.45" y2="-2.00" />
<line x1="18.69" y1="0.00" x2="18.69" y2="4.00" />
<line x1="18.93" y1="0.00" x2="18.93" y2="-8.00" />
<line x1="19.17" y1="0.00" x2="19.17" y2="-2.00" />


</g>
</svg>