<svg xmlns="http://www.w3.org/2000/svg" width="161.8" height="100.0" viewBox="-3.2 -5.0 171.8 110.0">
<g fill="none" stroke="black" stroke-width="0.3650%" transform="translate(0, 100.0000) scale(1.3699, -1.3699)">
<circle cx="1.3" cy="1.0" r="0.4" />
<circle cx="2.7" cy="0.0" r="0.4" />
<circle cx="4.0" cy="2.0" r="0.4" />
<circle cx="5.4" cy="3.0" r="0.4" />
<circle cx="6.7" cy="0.0" r="0.4" />
<circle cx="8.1" cy="5.0" r="0.4" />
<circle cx="9.4" cy="4.0" r="0.4" />
<circle cx="10.7" cy="7.0" r="0.4" />
<circle cx="12.1" cy="0.0" r="0.4" />
<circle cx="13.4" cy="0.0" r="0.4" />
<circle cx="14.8" cy="0.0" r="0.4" />
<circle cx="16.1" cy="6.0" r="0.4" />
<circle cx="17.4" cy="9.0" r="0.4" />
<circle cx="18.8" cy="13.0" r="0.4" />
<circle cx="20.1" cy="8.0" r="0.4" />
<circle cx="21.5" cy="0.0" r="0.4" />
<circle cx="22.8" cy="0.0" r="0.4" />
<circle cx="24.2" cy="10.0" r="0.4" />
<circle cx="25.5" cy="0.0" r="0.4" />
<circle cx="26.8" cy="19.0" r="0.4" />
<circle cx="28.2" cy="0.0" r="0.4" />
<circle cx="29.5" cy="0.0" r="0.4" />
<circle cx="30.9" cy="0.0" r="0.4" />
<circle cx="32.2" cy="14.0" r="0.4" />
<circle cx="33.6" cy="0.0" r="0.4" />
<circle cx="34.9" cy="0.0" r="0.4" />
<circle cx="36.2" cy="0.0" r="0.4" />
<circle cx="37.6" cy="12.0" r="0.4" />
<circle cx="38.9" cy="0.0" r="0.4" />
<circle cx="40.3" cy="29.0" r="0.4" />
<circle cx="41.6" cy="16.0" r="0.4" />
<circle cx="43.0" cy="21.0" r="0.4" />
<circle cx="44.3" cy="0.0" r="0.4" />
<circle cx="45.6" cy="0.0" r="0.4" />
<circle cx="47.0" cy="0.0" r="0.4" />
<circle cx="48.3" cy="22.0" r="0.4" />
<circle cx="49.7" cy="0.0" r="0.4" />
<circle cx="51.0" cy="37.0" r="0.4" />
<circle cx="52.3" cy="18.0" r="0.4" />
<circle cx="53.7" cy="27.0" r="0.4" />
<circle cx="55.0" cy="0.0" r="0.4" />
<circle cx="56.4" cy="20.0" r="0.4" />
<circle cx="57.7" cy="0.0" r="0.4" />
<circle cx="59.1" cy="43.0" r="0.4" />
<circle cx="60.4" cy="0.0" r="0.4" />
<circle cx="61.7" cy="0.0" r="0.4" />
<circle cx="63.1" cy="0.0" r="0.4" />
<circle cx="64.4" cy="33.0" r="0.4" />
<circle cx="65.8" cy="0.0" r="0.4" />
<circle cx="67.1" cy="0.0" r="0.4" />
<circle cx="68.5" cy="0.0" r="0.4" />
<circle cx="69.8" cy="0.0" r="0.4" />
<circle cx="71.1" cy="0.0" r="0.4" />
<circle cx="72.5" cy="34.0" r="0.4" />
<circle cx="73.8" cy="0.0" r="0.4" />
<circle cx="75.2" cy="28.0" r="0.4" />
<circle cx="76.5" cy="49.0" r="0.4" />
<circle cx="77.8" cy="0.0" r="0.4" />
<circle cx="79.2" cy="0.0" r="0.4" />
<circle cx="80.5" cy="24.0" r="0.4" />
<circle cx="81.9" cy="0.0" r="0.4" />
<circle cx="83.2" cy="61.0" r="0.4" />
<circle cx="84.6" cy="32.0" r="0.4" />
<circle cx="85.9" cy="0.0" r="0.4" />
<circle cx="87.2" cy="0.0" r="0.4" />
<circle cx="88.6" cy="0.0" r="0.4" />
<circle cx="89.9" cy="0.0" r="0.4" />
<circle cx="91.3" cy="67.0" r="0.4" />
<circle cx="92.6" cy="0.0" r="0.4" />
<circle cx="94.0" cy="0.0" r="0.4" />
<circle cx="95.3" cy="0.0" r="0.4" />
<circle cx="96.6" cy="30.0" r="0.4" />
<circle cx="98.0" cy="0.0" r="0.4" />
<circle cx="99.3" cy="73.0" r="0.4" />
<circle cx="100.7" cy="0.0" r="0.4" />
<circle cx="102.0" cy="0.0" r="0.4" />
<circle cx="103.4" cy="0.0" r="0.4" />
<circle cx="104.7" cy="45.0" r="0.4" />
<circle cx="106.0" cy="0.0" r="0.4" />
<circle cx="107.4" cy="57.0" r="0.4" />
<circle cx="108.7" cy="0.0" r="0.4" />
<circle cx="110.1" cy="0.0" r="0.4" />
<circle cx="111.4" cy="0.0" r="0.4" />
<circle cx="112.7" cy="44.0" r="0.4" />
<circle cx="114.1" cy="0.0" r="0.4" />
<circle cx="115.4" cy="0.0" r="0.4" />
<circle cx="116.8" cy="0.0" r="0.4" />
<circle cx="118.1" cy="0.0" r="0.4" />
<circle cx="119.5" cy="0.0" r="0.4" />
</g>
</svg>