<svg xmlns="http://www.w3.org/2000/svg" width="161.8" height="100.0" viewBox="-3.936 -5.000 171.803 110.000">
<g fill="none" stroke="black" stroke-width="0.0050%" transform="translate(0, 100.0000) scale(100.0000, -100.0000)">
<line x1="0.011" y1="0.000" x2="0.011" y2="1.000" />
<line x1="0.021" y1="0.000" x2="0.021" y2="1.000" />
<line x1="0.032" y1="0.000" x2="0.032" y2="1.000" />
<line x1="0.043" y1="0.000" x2="0.043" y2="1.000" />

<line x1="0.064" y1="0.000" x2="0.064" y2="1.000" />
<line x1="0.075" y1="0.000" x2="0.075" y2="1.000" />
<line x1="0.085" y1="0.000" x2="0.085" y2="1.000" />

<line x1="0.106" y1="0.000" x2="0.106" y2="1.000" />
<line x1="0.117" y1="0.000" x2="0.117" y2="1.000" />



<line x1="0.160" y1="0.000" x2="0.160" y2="1.000" />
<line x1="0.170" y1="0.000" x2="0.170" y2="1.000" />
<line x1="0.181" y1="0.000" x2="0.181" y2="1.000" />
<line x1="0.192" y1="0.000" x2="0.192" y2="1.000" />


<line x1="0.224" y1="0.000" x2="0.224" y2="1.000" />
<line x1="0.234" y1="0.000" x2="0.234" y2="1.000" />





<line x1="0.298" y1="0.000" x2="0.298" y2="1.000" />
<line x1="0.309" y1="0.000" x2="0.309" y2="1.000" />
<line x1="0.319" y1="0.000" x2="0.319" y2="1.000" />

<line x1="0.341" y1="0.000" x2="0.341" y2="1.000" />



<line x1="0.383" y1="0.000" x2="0.383" y2="1.000" />
<line x1="0.394" y1="0.000" x2="0.394" y2="1.000" />

<line x1="0.415" y1="0.000" x2="0.415" y2="1.000" />





<line x1="0.479" y1="0.000" x2="0.479" y2="1.000" />
<line x1="0.490" y1="0.000" x2="0.490" y2="1.000" />
<line x1="0.500" y1="0.000" x2="0.500" y2="1.000" />


<line x1="0.532" y1="0.000" x2="0.532" y2="1.000" />




<line x1="0.585" y1="0.000" x2="0.585" y2="1.000" />
<line x1="0.596" y1="0.000" x2="0.596" y2="1.000" />









<line x1="0.703" y1="0.000" x2="0.703" y2="1.000" />
<line x1="0.713" y1="0.000" x2="0.713" y2="1.000" />
<line x1="0.724" y1="0.000" x2="0.724" y2="1.000" />
<line x1="0.735" y1="0.000" x2="0.735" y2="1.000" />
<line x1="0.745" y1="0.000" x2="0.745" y2="1.000" />

<line x1="0.766" y1="0.000" x2="0.766" y2="1.000" />





<line x1="0.830" y1="0.000" x2="0.830" y2="1.000" />
<line x1="0.841" y1="0.000" x2="0.841" y2="1.000" />











<line x1="0.969" y1="0.000" x2="0.969" y2="1.000" />
<line x1="0.979" y1="0.000" x2="0.979" y2="1.000" />
<line x1="0.990" y1="0.000" x2="0.990" y2="1.000" />




<line x1="1.043" y1="0.000" x2="1.043" y2="1.000" />






<line x1="1.118" y1="0.000" x2="1.118" y2="1.000" />
<line x1="1.128" y1="0.000" x2="1.128" y2="1.000" />

<line x1="1.150" y1="0.000" x2="1.150" y2="1.000" />

<line x1="1.171" y1="0.000" x2="1.171" y2="1.000" />









<line x1="1.277" y1="0.000" x2="1.277" y2="1.000" />
<line x1="1.288" y1="0.000" x2="1.288" y2="1.000" />
<line x1="1.299" y1="0.000" x2="1.299" y2="1.000" />

<line x1="1.320" y1="0.000" x2="1.320" y2="1.000" />



<line x1="1.363" y1="0.000" x2="1.363" y2="1.000" />







<line x1="1.448" y1="0.000" x2="1.448" y2="1.000" />
<line x1="1.458" y1="0.000" x2="1.458" y2="1.000" />















<line x1="1.629" y1="0.000" x2="1.629" y2="1.000" />
</g>
</svg>