<svg xmlns="http://www.w3.org/2000/svg" width="161.8" height="100.0" viewBox="-3.46 9.29 171.80 110.00">
<g fill="none" stroke="black" stroke-width="0.0350%" transform="translate(0, 128.5714) scale(14.2857, -14.2857)">
<polyline points="0.11,1.00 0.22,1.00 0.22,1.00 0.32,1.00 0.32,2.00 0.43,2.00 0.43,1.00 0.54,1.00 0.54,2.00 0.65,2.00 0.65,2.00 0.76,2.00 0.76,2.00 0.86,2.00 0.86,1.00 0.97,1.00 0.97,3.00 1.08,3.00 1.08,2.00 1.19,2.00 1.19,2.00 1.29,2.00 1.29,2.00 1.40,2.00 1.40,2.00 1.51,2.00 1.51,2.00 1.62,2.00 1.62,4.00 1.73,4.00 1.73,1.00 1.83,1.00 1.83,2.00 1.94,2.00 1.94,3.00 2.05,3.00 2.05,2.00 2.16,2.00 2.16,2.00 2.27,2.00 2.27,4.00 2.37,4.00 2.37,2.00 2.48,2.00 2.48,2.00 2.59,2.00 2.59,2.00 2.70,2.00 2.70,3.00 2.80,3.00 2.80,2.00 2.91,2.00 2.91,4.00 3.02,4.00 3.02,2.00 3.13,2.00 3.13,2.00 3.24,2.00 3.24,4.00 3.34,4.00 3.34,2.00 3.45,2.00 3.45,1.00 3.56,1.00 3.56,4.00 3.67,4.00 3.67,2.00 3.78,2.00 3.78,4.00 3.88,4.00 3.88,3.00 3.99,3.00 3.99,2.00 4.10,2.00 4.10,2.00 4.21,2.00 4.21,4.00 4.31,4.00 4.31,2.00 4.42,2.00 4.42,2.00 4.53,2.00 4.53,4.00 4.64,4.00 4.64,2.00 4.75,2.00 4.75,2.00 4.85,2.00 4.85,6.00 4.96,6.00 4.96,2.00 5.07,2.00 5.07,2.00 5.18,2.00 5.18,2.00 5.29,2.00 5.29,3.00 5.39,3.00 5.39,3.00 5.50,3.00 5.50,4.00 5.61,4.00 5.61,2.00 5.72,2.00 5.72,2.00 5.82,2.00 5.82,4.00 5.93,4.00 5.93,4.00 6.04,4.00 6.04,2.00 6.15,2.00 6.15,4.00 6.26,4.00 6.26,2.00 6.36,2.00 6.36,2.00 6.47,2.00 6.47,4.00 6.58,4.00 6.58,2.00 6.69,2.00 6.69,2.00 6.80,2.00 6.80,6.00 6.90,6.00 6.90,1.00 7.01,1.00 7.01,4.00 7.12,4.00 7.12,4.00 7.23,4.00 7.23,2.00 7.34,2.00 7.34,2.00 7.44,2.00 7.44,4.00 7.55,4.00 7.55,4.00 7.66,4.00 7.66,2.00 7.77,2.00 7.77,3.00 7.87,3.00 7.87,2.00 7.98,2.00 7.98,2.00 8.09,2.00 8.09,6.00 8.20,6.00 8.20,2.00 8.31,2.00 8.31,4.00 8.41,4.00 8.41,4.00 8.52,4.00 8.52,2.00 8.63,2.00 8.63,2.00 8.74,2.00 8.74,5.00 8.85,5.00 8.85,2.00 8.95,2.00 8.95,2.00 9.06,2.00 9.06,4.00 9.17,4.00 9.17,4.00 9.28,4.00 9.28,2.00 9.38,2.00 9.38,4.00 9.49,4.00 9.49,2.00 9.60,2.00 9.60,2.00 9.71,2.00 9.71,6.00 9.82,6.00 9.82,4.00 9.92,4.00 9.92,2.00 10.03,2.00 10.03,4.00 10.14,4.00 10.14,2.00 10.25,2.00 10.25,4.00 10.36,4.00 10.36,2.00 10.46,2.00 10.46,2.00 10.57,2.00 10.57,3.00 10.68,3.00 10.68,6.00 10.79,6.00 10.79,3.00 10.89,3.00 10.89,2.00 11.00,2.00 11.00,4.00 11.11,4.00 11.11,2.00 11.22,2.00 11.22,2.00 11.33,2.00 11.33,8.00 11.43,8.00" />
</g>
</svg>