<svg xmlns="http://www.w3.org/2000/svg" width="161.8" height="100.0" viewBox="-3.44 7.50 171.80 110.00">
<g fill="none" stroke="black" stroke-width="0.0400%" transform="translate(0, 125.0000) scale(12.5000, -12.5000)">
<circle cx="0.12" cy="1.00" r="0.04" />
<circle cx="0.25" cy="1.00" r="0.04" />
<circle cx="0.37" cy="2.00" r="0.04" />
<circle cx="0.50" cy="2.00" r="0.04" />
<circle cx="0.62" cy="2.00" r="0.04" />
<circle cx="0.75" cy="2.00" r="0.04" />
<circle cx="0.87" cy="2.00" r="0.04" />
<circle cx="1.00" cy="3.00" r="0.04" />
<circle cx="1.12" cy="3.00" r="0.04" />
<circle cx="1.24" cy="3.00" r="0.04" />
<circle cx="1.37" cy="2.00" r="0.04" />
<circle cx="1.49" cy="3.00" r="0.04" />
<circle cx="1.62" cy="2.00" r="0.04" />
<circle cx="1.74" cy="3.00" r="0.04" />
<circle cx="1.87" cy="4.00" r="0.04" />
<circle cx="1.99" cy="4.00" r="0.04" />
<circle cx="2.12" cy="2.00" r="0.04" />
<circle cx="2.24" cy="4.00" r="0.04" />
<circle cx="2.36" cy="2.00" r="0.04" />
<circle cx="2.49" cy="4.00" r="0.04" />
<circle cx="2.61" cy="4.00" r="0.04" />
<circle cx="2.74" cy="3.00" r="0.04" />
<circle cx="2.86" cy="2.00" r="0.04" />
<circle cx="2.99" cy="5.00" r="0.04" />
<circle cx="3.11" cy="3.00" r="0.04" />
<circle cx="3.24" cy="3.00" r="0.04" />
<circle cx="3.36" cy="4.00" r="0.04" />
<circle cx="3.48" cy="5.00" r="0.04" />
<circle cx="3.61" cy="2.00" r="0.04" />
<circle cx="3.73" cy="5.00" r="0.04" />
<circle cx="3.86" cy="2.00" r="0.04" />
<circle cx="3.98" cy="5.00" r="0.04" />
<circle cx="4.11" cy="4.00" r="0.04" />
<circle cx="4.23" cy="3.00" r="0.04" />
<circle cx="4.36" cy="4.00" r="0.04" />
<circle cx="4.48" cy="6.00" r="0.04" />
<circle cx="4.61" cy="2.00" r="0.04" />
<circle cx="4.73" cy="3.00" r="0.04" />
<circle cx="4.85" cy="4.00" r="0.04" />
<circle cx="4.98" cy="6.00" r="0.04" />
<circle cx="5.10" cy="2.00" r="0.04" />
<circle cx="5.23" cy="5.00" r="0.04" />
<circle cx="5.35" cy="2.00" r="0.04" />
<circle cx="5.48" cy="5.00" r="0.04" />
<circle cx="5.60" cy="6.00" r="0.04" />
<circle cx="5.73" cy="3.00" r="0.04" />
<circle cx="5.85" cy="2.00" r="0.04" />
<circle cx="5.97" cy="7.00" r="0.04" />
<circle cx="6.10" cy="3.00" r="0.04" />
<circle cx="6.22" cy="5.00" r="0.04" />
<circle cx="6.35" cy="4.00" r="0.04" />
<circle cx="6.47" cy="5.00" r="0.04" />
<circle cx="6.60" cy="2.00" r="0.04" />
<circle cx="6.72" cy="6.00" r="0.04" />
<circle cx="6.85" cy="4.00" r="0.04" />
<circle cx="6.97" cy="6.00" r="0.04" />
<circle cx="7.09" cy="4.00" r="0.04" />
<circle cx="7.22" cy="3.00" r="0.04" />
<circle cx="7.34" cy="2.00" r="0.04" />
<circle cx="7.47" cy="7.00" r="0.04" />
<circle cx="7.59" cy="2.00" r="0.04" />
<circle cx="7.72" cy="3.00" r="0.04" />
<circle cx="7.84" cy="6.00" r="0.04" />
<circle cx="7.97" cy="6.00" r="0.04" />
<circle cx="8.09" cy="4.00" r="0.04" />
<circle cx="8.21" cy="6.00" r="0.04" />
<circle cx="8.34" cy="2.00" r="0.04" />
<circle cx="8.46" cy="5.00" r="0.04" />
<circle cx="8.59" cy="4.00" r="0.04" />
<circle cx="8.71" cy="7.00" r="0.04" />
<circle cx="8.84" cy="2.00" r="0.04" />
<circle cx="8.96" cy="8.00" r="0.04" />
<circle cx="9.09" cy="2.00" r="0.04" />
<circle cx="9.21" cy="3.00" r="0.04" />
<circle cx="9.33" cy="6.00" r="0.04" />
<circle cx="9.46" cy="5.00" r="0.04" />
<circle cx="9.58" cy="4.00" r="0.04" />
<circle cx="9.71" cy="6.00" r="0.04" />
<circle cx="9.83" cy="2.00" r="0.04" />
<circle cx="9.96" cy="8.00" r="0.04" />
<circle cx="10.08" cy="5.00" r="0.04" />
<circle cx="10.21" cy="3.00" r="0.04" />
<circle cx="10.33" cy="2.00" r="0.04" />
<circle cx="10.45" cy="8.00" r="0.04" />
<circle cx="10.58" cy="4.00" r="0.04" />
<circle cx="10.70" cy="3.00" r="0.04" />
<circle cx="10.83" cy="4.00" r="0.04" />
<circle cx="10.95" cy="7.00" r="0.04" />
<circle cx="11.08" cy="2.00" r="0.04" />
<circle cx="11.20" cy="8.00" r="0.04" />
<circle cx="11.33" cy="4.00" r="0.04" />
<circle cx="11.45" cy="5.00" r="0.04" />
<circle cx="11.58" cy="4.00" r="0.04" />
<circle cx="11.70" cy="3.00" r="0.04" />
<circle cx="11.82" cy="4.00" r="0.04" />
<circle cx="11.95" cy="9.00" r="0.04" />
<circle cx="12.07" cy="2.00" r="0.04" />
<circle cx="12.20" cy="5.00" r="0.04" />
<circle cx="12.32" cy="6.00" r="0.04" />
<circle cx="12.45" cy="7.00" r="0.04" />
<circle cx="12.57" cy="2.00" r="0.04" />
<circle cx="12.70" cy="6.00" r="0.04" />
<circle cx="12.82" cy="2.00" r="0.04" />
<circle cx="12.94" cy="7.00" r="0.04" />
<circle cx="13.07" cy="8.00" r="0.04" />
</g>
</svg>