<svg xmlns="http://www.w3.org/2000/svg" width="161.8" height="100.0" viewBox="237.71 4.09 171.80 110.00">
<g fill="none" stroke="black" stroke-width="0.0550%" transform="translate(0, 118.1818) scale(9.0909, -9.0909)">
<circle cx="26.70" cy="1.00" r="0.05" />
<circle cx="27.14" cy="1.00" r="0.05" />
<circle cx="27.59" cy="1.00" r="0.05" />
<circle cx="28.03" cy="1.00" r="0.05" />
<circle cx="28.48" cy="1.00" r="0.05" />
<circle cx="28.92" cy="1.00" r="0.05" />
<circle cx="29.37" cy="1.00" r="0.05" />
<circle cx="29.81" cy="1.00" r="0.05" />
<circle cx="30.26" cy="1.00" r="0.05" />
<circle cx="30.70" cy="1.00" r="0.05" />
<circle cx="31.15" cy="1.00" r="0.05" />
<circle cx="31.59" cy="1.00" r="0.05" />
<circle cx="32.04" cy="1.00" r="0.05" />
<circle cx="32.48" cy="1.00" r="0.05" />
<circle cx="32.93" cy="1.00" r="0.05" />
<circle cx="33.37" cy="1.00" r="0.05" />
<circle cx="33.82" cy="1.00" r="0.05" />
<circle cx="34.26" cy="1.00" r="0.05" />
<circle cx="34.71" cy="1.00" r="0.05" />
<circle cx="35.15" cy="1.00" r="0.05" />
<circle cx="35.60" cy="1.00" r="0.05" />
<circle cx="36.04" cy="1.00" r="0.05" />
<circle cx="36.49" cy="1.00" r="0.05" />
<circle cx="36.93" cy="1.00" r="0.05" />
<circle cx="37.38" cy="1.00" r="0.05" />
<circle cx="37.82" cy="1.00" r="0.05" />
<circle cx="38.27" cy="1.00" r="0.05" />
<circle cx="38.71" cy="1.00" r="0.05" />
<circle cx="39.16" cy="1.00" r="0.05" />
<circle cx="39.60" cy="1.00" r="0.05" />
<circle cx="40.05" cy="1.00" r="0.05" />
<circle cx="40.49" cy="1.00" r="0.05" />
<circle cx="40.94" cy="1.00" r="0.05" />
<circle cx="41.38" cy="1.00" r="0.05" />
<circle cx="41.83" cy="1.00" r="0.05" />
<circle cx="42.27" cy="1.00" r="0.05" />
<circle cx="42.72" cy="1.00" r="0.05" />
<circle cx="43.16" cy="1.00" r="0.05" />
<circle cx="43.61" cy="1.00" r="0.05" />
<circle cx="44.05" cy="1.00" r="0.05" />
<circle cx="44.50" cy="1.00" r="0.05" />
<circle cx="26.70" cy="2.00" r="0.05" />
<circle cx="27.59" cy="2.00" r="0.05" />
<circle cx="28.48" cy="2.00" r="0.05" />
<circle cx="29.37" cy="2.00" r="0.05" />
<circle cx="30.26" cy="2.00" r="0.05" />
<circle cx="31.15" cy="2.00" r="0.05" />
<circle cx="32.04" cy="2.00" r="0.05" />
<circle cx="32.93" cy="2.00" r="0.05" />
<circle cx="33.82" cy="2.00" r="0.05" />
<circle cx="34.71" cy="2.00" r="0.05" />
<circle cx="35.60" cy="2.00" r="0.05" />
<circle cx="36.49" cy="2.00" r="0.05" />
<circle cx="37.38" cy="2.00" r="0.05" />
<circle cx="38.27" cy="2.00" r="0.05" />
<circle cx="39.16" cy="2.00" r="0.05" />
<circle cx="40.05" cy="2.00" r="0.05" />
<circle cx="40.94" cy="2.00" r="0.05" />
<circle cx="41.83" cy="2.00" r="0.05" />
<circle cx="42.72" cy="2.00" r="0.05" />
<circle cx="43.61" cy="2.00" r="0.05" />
<circle cx="44.50" cy="2.00" r="0.05" />
<circle cx="26.70" cy="3.00" r="0.05" />
<circle cx="28.03" cy="3.00" r="0.05" />
<circle cx="29.37" cy="3.00" r="0.05" />
<circle cx="30.70" cy="3.00" r="0.05" />
<circle cx="32.04" cy="3.00" r="0.05" />
<circle cx="33.37" cy="3.00" r="0.05" />
<circle cx="34.71" cy="3.00" r="0.05" />
<circle cx="36.04" cy="3.00" r="0.05" />
<circle cx="37.38" cy="3.00" r="0.05" />
<circle cx="38.71" cy="3.00" r="0.05" />
<circle cx="40.05" cy="3.00" r="0.05" />
<circle cx="41.38" cy="3.00" r="0.05" />
<circle cx="42.72" cy="3.00" r="0.05" />
<circle cx="44.05" cy="3.00" r="0.05" />
<circle cx="26.70" cy="4.00" r="0.05" />
<circle cx="28.48" cy="4.00" r="0.05" />
<circle cx="30.26" cy="4.00" r="0.05" />
<circle cx="32.04" cy="4.00" r="0.05" />
<circle cx="33.82" cy="4.00" r="0.05" />
<circle cx="35.60" cy="4.00" r="0.05" />
<circle cx="37.38" cy="4.00" r="0.05" />
<circle cx="39.16" cy="4.00" r="0.05" />
<circle cx="40.94" cy="4.00" r="0.05" />
<circle cx="42.72" cy="4.00" r="0.05" />
<circle cx="44.50" cy="4.00" r="0.05" />
<circle cx="26.70" cy="5.00" r="0.05" />
<circle cx="28.92" cy="5.00" r="0.05" />
<circle cx="31.15" cy="5.00" r="0.05" />
<circle cx="33.37" cy="5.00" r="0.05" />
<circle cx="35.60" cy="5.00" r="0.05" />
<circle cx="37.82" cy="5.00" r="0.05" />
<circle cx="40.05" cy="5.00" r="0.05" />
<circle cx="42.27" cy="5.00" r="0.05" />
<circle cx="44.50" cy="5.00" r="0.05" />
<circle cx="26.70" cy="6.00" r="0.05" />
<circle cx="29.37" cy="6.00" r="0.05" />
<circle cx="32.04" cy="6.00" r="0.05" />
<circle cx="34.71" cy="6.00" r="0.05" />
<circle cx="37.38" cy="6.00" r="0.05" />
<circle cx="40.05" cy="6.00" r="0.05" />
<circle cx="42.72" cy="6.00" r="0.05" />
<circle cx="28.03" cy="7.00" r="0.05" />
<circle cx="31.15" cy="7.00" r="0.05" />
<circle cx="34.26" cy="7.00" r="0.05" />
<circle cx="37.38" cy="7.00" r="0.05" />
<circle cx="40.49" cy="7.00" r="0.05" />
<circle cx="43.61" cy="7.00" r="0.05" />
<circle cx="28.48" cy="8.00" r="0.05" />
<circle cx="32.04" cy="8.00" r="0.05" />
<circle cx="35.60" cy="8.00" r="0.05" />
<circle cx="39.16" cy="8.00" r="0.05" />
<circle cx="42.72" cy="8.00" r="0.05" />
<circle cx="28.03" cy="9.00" r="0.05" />
<circle cx="32.04" cy="9.00" r="0.05" />
<circle cx="36.04" cy="9.00" r="0.05" />
<circle cx="40.05" cy="9.00" r="0.05" />
<circle cx="44.05" cy="9.00" r="0.05" />
<circle cx="26.70" cy="10.00" r="0.05" />
<circle cx="31.15" cy="10.00" r="0.05" />
<circle cx="35.60" cy="10.00" r="0.05" />
<circle cx="40.05" cy="10.00" r="0.05" />
<circle cx="44.50" cy="10.00" r="0.05" />
<circle cx="29.37" cy="11.00" r="0.05" />
<circle cx="34.26" cy="11.00" r="0.05" />
<circle cx="39.16" cy="11.00" r="0.05" />
<circle cx="44.05" cy="11.00" r="0.05" />
<circle cx="26.70" cy="12.00" r="0.05" />
<circle cx="32.04" cy="12.00" r="0.05" />
<circle cx="37.38" cy="12.00" r="0.05" />
<circle cx="42.72" cy="12.00" r="0.05" />
</g>
</svg>