<svg xmlns="http://www.w3.org/2000/svg" width="161.8" height="100.0" viewBox="-1.6 -4.7 171.8 110.0">
<g fill="none" stroke="black" stroke-width="1.5050%" transform="translate(0, 100.6645) scale(0.3322, -0.3322)">
<circle cx="10.4" cy="1.0" r="1.5" />
<circle cx="20.7" cy="2.0" r="1.5" />
<circle cx="31.1" cy="4.0" r="1.5" />
<circle cx="41.4" cy="7.0" r="1.5" />
<circle cx="51.8" cy="9.0" r="1.5" />
<circle cx="62.2" cy="12.0" r="1.5" />
<circle cx="72.5" cy="18.0" r="1.5" />
<circle cx="82.9" cy="24.0" r="1.5" />
<circle cx="93.3" cy="32.0" r="1.5" />
<circle cx="103.6" cy="38.0" r="1.5" />
<circle cx="114.0" cy="42.0" r="1.5" />
<circle cx="124.3" cy="50.0" r="1.5" />
<circle cx="134.7" cy="56.0" r="1.5" />
<circle cx="145.1" cy="64.0" r="1.5" />
<circle cx="155.4" cy="71.0" r="1.5" />
<circle cx="165.8" cy="73.0" r="1.5" />
<circle cx="176.2" cy="75.0" r="1.5" />
<circle cx="186.5" cy="81.0" r="1.5" />
<circle cx="196.9" cy="86.0" r="1.5" />
<circle cx="207.2" cy="90.0" r="1.5" />
<circle cx="217.6" cy="102.0" r="1.5" />
<circle cx="228.0" cy="110.0" r="1.5" />
<circle cx="238.3" cy="118.0" r="1.5" />
<circle cx="248.7" cy="122.0" r="1.5" />
<circle cx="259.1" cy="126.0" r="1.5" />
<circle cx="269.4" cy="138.0" r="1.5" />
<circle cx="279.8" cy="146.0" r="1.5" />
<circle cx="290.1" cy="150.0" r="1.5" />
<circle cx="300.5" cy="162.0" r="1.5" />
<circle cx="310.9" cy="172.0" r="1.5" />
<circle cx="321.2" cy="178.0" r="1.5" />
<circle cx="331.6" cy="182.0" r="1.5" />
<circle cx="342.0" cy="190.0" r="1.5" />
<circle cx="352.3" cy="198.0" r="1.5" />
<circle cx="362.7" cy="210.0" r="1.5" />
<circle cx="373.0" cy="226.0" r="1.5" />
<circle cx="383.4" cy="230.0" r="1.5" />
<circle cx="393.8" cy="238.0" r="1.5" />
<circle cx="404.1" cy="246.0" r="1.5" />
<circle cx="414.5" cy="254.0" r="1.5" />
<circle cx="424.9" cy="258.0" r="1.5" />
<circle cx="435.2" cy="266.0" r="1.5" />
<circle cx="445.6" cy="274.0" r="1.5" />
<circle cx="455.9" cy="278.0" r="1.5" />
<circle cx="466.3" cy="282.0" r="1.5" />
<circle cx="476.7" cy="290.0" r="1.5" />
<circle cx="487.0" cy="298.0" r="1.5" />
<circle cx="497.4" cy="302.0" r="1.5" />
</g>
</svg>