<svg xmlns="http://www.w3.org/2000/svg" width="161.8" height="100.0" viewBox="-4 -5 172 110">
<g fill="none" stroke="black" stroke-width="1.9900%" transform="translate(0, 100.5025) scale(0.2513, -0.2513)">
<circle cx="3" cy="1" r="2" />
<circle cx="7" cy="3" r="2" />
<circle cx="10" cy="6" r="2" />
<circle cx="14" cy="2" r="2" />
<circle cx="17" cy="8" r="2" />
<circle cx="21" cy="4" r="2" />
<circle cx="24" cy="10" r="2" />
<circle cx="28" cy="14" r="2" />
<circle cx="31" cy="13" r="2" />
<circle cx="35" cy="7" r="2" />
<circle cx="38" cy="15" r="2" />
<circle cx="42" cy="9" r="2" />
<circle cx="45" cy="17" r="2" />
<circle cx="49" cy="11" r="2" />
<circle cx="52" cy="19" r="2" />
<circle cx="56" cy="29" r="2" />
<circle cx="59" cy="5" r="2" />
<circle cx="63" cy="31" r="2" />
<circle cx="66" cy="26" r="2" />
<circle cx="70" cy="34" r="2" />
<circle cx="73" cy="50" r="2" />
<circle cx="77" cy="16" r="2" />
<circle cx="80" cy="30" r="2" />
<circle cx="84" cy="18" r="2" />
<circle cx="87" cy="32" r="2" />
<circle cx="91" cy="20" r="2" />
<circle cx="94" cy="61" r="2" />
<circle cx="98" cy="23" r="2" />
<circle cx="101" cy="35" r="2" />
<circle cx="105" cy="25" r="2" />
<circle cx="108" cy="37" r="2" />
<circle cx="112" cy="27" r="2" />
<circle cx="115" cy="39" r="2" />
<circle cx="119" cy="63" r="2" />
<circle cx="122" cy="42" r="2" />
<circle cx="126" cy="66" r="2" />
<circle cx="129" cy="45" r="2" />
<circle cx="133" cy="69" r="2" />
<circle cx="136" cy="48" r="2" />
<circle cx="140" cy="72" r="2" />
<circle cx="143" cy="51" r="2" />
<circle cx="147" cy="33" r="2" />
<circle cx="150" cy="53" r="2" />
<circle cx="154" cy="79" r="2" />
<circle cx="157" cy="56" r="2" />
<circle cx="161" cy="36" r="2" />
<circle cx="164" cy="58" r="2" />
<circle cx="168" cy="38" r="2" />
<circle cx="171" cy="60" r="2" />
<circle cx="175" cy="40" r="2" />
<circle cx="178" cy="62" r="2" />
<circle cx="182" cy="94" r="2" />
<circle cx="185" cy="12" r="2" />
<circle cx="189" cy="96" r="2" />
<circle cx="192" cy="124" r="2" />
<circle cx="196" cy="44" r="2" />
<circle cx="199" cy="70" r="2" />
<circle cx="203" cy="46" r="2" />
<circle cx="206" cy="131" r="2" />
<circle cx="210" cy="49" r="2" />
<circle cx="213" cy="73" r="2" />
<circle cx="217" cy="113" r="2" />
<circle cx="220" cy="76" r="2" />
<circle cx="224" cy="52" r="2" />
<circle cx="227" cy="78" r="2" />
<circle cx="231" cy="54" r="2" />
<circle cx="234" cy="80" r="2" />
<circle cx="238" cy="192" r="2" />
<circle cx="241" cy="84" r="2" />
<circle cx="245" cy="126" r="2" />
<circle cx="248" cy="87" r="2" />
<circle cx="252" cy="57" r="2" />
<circle cx="255" cy="89" r="2" />
<circle cx="259" cy="59" r="2" />
<circle cx="262" cy="91" r="2" />
<circle cx="266" cy="137" r="2" />
<circle cx="269" cy="171" r="2" />
<circle cx="273" cy="141" r="2" />
<circle cx="276" cy="175" r="2" />
<circle cx="280" cy="65" r="2" />
<circle cx="283" cy="97" r="2" />
<circle cx="287" cy="67" r="2" />
<circle cx="290" cy="99" r="2" />
<circle cx="294" cy="153" r="2" />
<circle cx="297" cy="102" r="2" />
<circle cx="301" cy="156" r="2" />
<circle cx="304" cy="105" r="2" />
<circle cx="308" cy="71" r="2" />
<circle cx="311" cy="107" r="2" />
<circle cx="315" cy="163" r="2" />
<circle cx="318" cy="110" r="2" />
<circle cx="322" cy="74" r="2" />
<circle cx="325" cy="112" r="2" />
<circle cx="329" cy="170" r="2" />
<circle cx="332" cy="115" r="2" />
<circle cx="336" cy="77" r="2" />
<circle cx="339" cy="117" r="2" />
<circle cx="343" cy="177" r="2" />
<circle cx="346" cy="21" r="2" />
<circle cx="350" cy="179" r="2" />
<circle cx="353" cy="225" r="2" />
<circle cx="357" cy="81" r="2" />
<circle cx="360" cy="22" r="2" />
<circle cx="364" cy="82" r="2" />
<circle cx="367" cy="128" r="2" />
<circle cx="371" cy="190" r="2" />
<circle cx="374" cy="24" r="2" />
<circle cx="378" cy="300" r="2" />
<circle cx="381" cy="136" r="2" />
<circle cx="385" cy="194" r="2" />
<circle cx="388" cy="28" r="2" />
<circle cx="392" cy="196" r="2" />
<circle cx="395" cy="143" r="2" />
<circle cx="399" cy="85" r="2" />
<circle cx="402" cy="145" r="2" />
<circle cx="406" cy="203" r="2" />
<circle cx="409" cy="148" r="2" />
<circle cx="413" cy="88" r="2" />
<circle cx="416" cy="150" r="2" />
<circle cx="420" cy="90" r="2" />
<circle cx="423" cy="152" r="2" />
<circle cx="427" cy="92" r="2" />
<circle cx="430" cy="154" r="2" />
<circle cx="434" cy="218" r="2" />
<circle cx="437" cy="157" r="2" />
<circle cx="441" cy="95" r="2" />
<circle cx="444" cy="159" r="2" />
<circle cx="448" cy="353" r="2" />
<circle cx="451" cy="292" r="2" />
<circle cx="455" cy="98" r="2" />
<circle cx="458" cy="164" r="2" />
<circle cx="462" cy="100" r="2" />
<circle cx="465" cy="166" r="2" />
<circle cx="469" cy="236" r="2" />
<circle cx="472" cy="169" r="2" />
<circle cx="476" cy="103" r="2" />
<circle cx="479" cy="308" r="2" />
<circle cx="483" cy="106" r="2" />
<circle cx="486" cy="172" r="2" />
<circle cx="490" cy="108" r="2" />
<circle cx="493" cy="174" r="2" />
<circle cx="497" cy="252" r="2" />
<circle cx="500" cy="320" r="2" />
<circle cx="504" cy="256" r="2" />
<circle cx="507" cy="324" r="2" />
<circle cx="511" cy="114" r="2" />
<circle cx="514" cy="180" r="2" />
<circle cx="518" cy="116" r="2" />
<circle cx="521" cy="182" r="2" />
<circle cx="525" cy="118" r="2" />
<circle cx="528" cy="184" r="2" />
<circle cx="532" cy="120" r="2" />
<circle cx="535" cy="186" r="2" />
<circle cx="539" cy="122" r="2" />
<circle cx="542" cy="188" r="2" />
<circle cx="546" cy="280" r="2" />
<circle cx="549" cy="191" r="2" />
<circle cx="553" cy="125" r="2" />
<circle cx="556" cy="193" r="2" />
<circle cx="560" cy="127" r="2" />
<circle cx="563" cy="195" r="2" />
<circle cx="567" cy="129" r="2" />
<circle cx="570" cy="197" r="2" />
<circle cx="574" cy="295" r="2" />
<circle cx="577" cy="200" r="2" />
<circle cx="581" cy="132" r="2" />
<circle cx="584" cy="202" r="2" />
<circle cx="588" cy="134" r="2" />
<circle cx="591" cy="204" r="2" />
<circle cx="595" cy="306" r="2" />
<circle cx="598" cy="207" r="2" />
<circle cx="602" cy="309" r="2" />
<circle cx="605" cy="210" r="2" />
<circle cx="609" cy="138" r="2" />
<circle cx="612" cy="212" r="2" />
<circle cx="616" cy="140" r="2" />
<circle cx="619" cy="214" r="2" />
<circle cx="623" cy="142" r="2" />
<circle cx="626" cy="216" r="2" />
<circle cx="630" cy="144" r="2" />
<circle cx="633" cy="399" r="2" />
<circle cx="637" cy="147" r="2" />
<circle cx="640" cy="219" r="2" />
<circle cx="644" cy="149" r="2" />
<circle cx="647" cy="221" r="2" />
</g>
</svg>