<svg xmlns="http://www.w3.org/2000/svg" width="141.6" height="100.0" viewBox="-2.79 -5.00 151.58 110.00">
<g fill="none" stroke="black" stroke-width="0.0400%" transform="translate(0, 100.0000) scale(12.5000, -12.5000)">
<line x1="0.18" y1="0.00" x2="0.18" y2="1.00" />
<line x1="0.35" y1="0.00" x2="0.35" y2="2.00" />
<line x1="0.53" y1="0.00" x2="0.53" y2="2.00" />
<line x1="0.71" y1="0.00" x2="0.71" y2="2.00" />
<line x1="0.88" y1="0.00" x2="0.88" y2="3.00" />
<line x1="1.06" y1="0.00" x2="1.06" y2="2.00" />
<line x1="1.24" y1="0.00" x2="1.24" y2="2.00" />
<line x1="1.42" y1="0.00" x2="1.42" y2="4.00" />
<line x1="1.59" y1="0.00" x2="1.59" y2="2.00" />
<line x1="1.77" y1="0.00" x2="1.77" y2="2.00" />
<line x1="1.95" y1="0.00" x2="1.95" y2="4.00" />
<line x1="2.12" y1="0.00" x2="2.12" y2="2.00" />
<line x1="2.30" y1="0.00" x2="2.30" y2="3.00" />
<line x1="2.48" y1="0.00" x2="2.48" y2="4.00" />
<line x1="2.65" y1="0.00" x2="2.65" y2="2.00" />
<line x1="2.83" y1="0.00" x2="2.83" y2="2.00" />
<line x1="3.01" y1="0.00" x2="3.01" y2="4.00" />
<line x1="3.19" y1="0.00" x2="3.19" y2="4.00" />
<line x1="3.36" y1="0.00" x2="3.36" y2="2.00" />
<line x1="3.54" y1="0.00" x2="3.54" y2="4.00" />
<line x1="3.72" y1="0.00" x2="3.72" y2="2.00" />
<line x1="3.89" y1="0.00" x2="3.89" y2="2.00" />
<line x1="4.07" y1="0.00" x2="4.07" y2="6.00" />
<line x1="4.25" y1="0.00" x2="4.25" y2="2.00" />
<line x1="4.42" y1="0.00" x2="4.42" y2="3.00" />
<line x1="4.60" y1="0.00" x2="4.60" y2="4.00" />
<line x1="4.78" y1="0.00" x2="4.78" y2="2.00" />
<line x1="4.96" y1="0.00" x2="4.96" y2="4.00" />
<line x1="5.13" y1="0.00" x2="5.13" y2="4.00" />
<line x1="5.31" y1="0.00" x2="5.31" y2="2.00" />
<line x1="5.49" y1="0.00" x2="5.49" y2="2.00" />
<line x1="5.66" y1="0.00" x2="5.66" y2="6.00" />
<line x1="5.84" y1="0.00" x2="5.84" y2="4.00" />
<line x1="6.02" y1="0.00" x2="6.02" y2="2.00" />
<line x1="6.19" y1="0.00" x2="6.19" y2="4.00" />
<line x1="6.37" y1="0.00" x2="6.37" y2="2.00" />
<line x1="6.55" y1="0.00" x2="6.55" y2="2.00" />
<line x1="6.72" y1="0.00" x2="6.72" y2="6.00" />
<line x1="6.90" y1="0.00" x2="6.90" y2="4.00" />
<line x1="7.08" y1="0.00" x2="7.08" y2="2.00" />
<line x1="7.26" y1="0.00" x2="7.26" y2="5.00" />
<line x1="7.43" y1="0.00" x2="7.43" y2="2.00" />
<line x1="7.61" y1="0.00" x2="7.61" y2="4.00" />
<line x1="7.79" y1="0.00" x2="7.79" y2="4.00" />
<line x1="7.96" y1="0.00" x2="7.96" y2="2.00" />
<line x1="8.14" y1="0.00" x2="8.14" y2="4.00" />
<line x1="8.32" y1="0.00" x2="8.32" y2="4.00" />
<line x1="8.49" y1="0.00" x2="8.49" y2="4.00" />
<line x1="8.67" y1="0.00" x2="8.67" y2="2.00" />
<line x1="8.85" y1="0.00" x2="8.85" y2="6.00" />
<line x1="9.03" y1="0.00" x2="9.03" y2="2.00" />
<line x1="9.20" y1="0.00" x2="9.20" y2="2.00" />
<line x1="9.38" y1="0.00" x2="9.38" y2="8.00" />
<line x1="9.56" y1="0.00" x2="9.56" y2="2.00" />
<line x1="9.73" y1="0.00" x2="9.73" y2="2.00" />
<line x1="9.91" y1="0.00" x2="9.91" y2="4.00" />
<line x1="10.09" y1="0.00" x2="10.09" y2="2.00" />
<line x1="10.26" y1="0.00" x2="10.26" y2="4.00" />
<line x1="10.44" y1="0.00" x2="10.44" y2="6.00" />
<line x1="10.62" y1="0.00" x2="10.62" y2="4.00" />
<line x1="10.80" y1="0.00" x2="10.80" y2="3.00" />
<line x1="10.97" y1="0.00" x2="10.97" y2="4.00" />
<line x1="11.15" y1="0.00" x2="11.15" y2="4.00" />
<line x1="11.33" y1="0.00" x2="11.33" y2="2.00" />
<line x1="11.50" y1="0.00" x2="11.50" y2="4.00" />
</g>
</svg>