<?xml version="1.0" encoding="UTF-8" standalone="no"?>
<!DOCTYPE svg PUBLIC "-//W3C//DTD SVG 1.1//EN"
 "http://www.w3.org/Graphics/SVG/1.1/DTD/svg11.dtd">
<!-- Generated by graphviz version 12.0.0 (0)
 -->
<!-- Pages: 1 -->
<svg width="56pt" height="108pt"
 viewBox="0.00 0.00 56.30 108.00" xmlns="http://www.w3.org/2000/svg" xmlns:xlink="http://www.w3.org/1999/xlink">
<g id="graph0" class="graph" transform="scale(0.574468 0.574468) rotate(0) translate(4 184)">
<!-- a -->
<g id="node1" class="node">
<title>a</title>
<ellipse fill="none" stroke="black" cx="45" cy="-162" rx="18" ry="18"/>
<text text-anchor="middle" x="45" y="-157.8" font-family="Times,serif" font-size="14.00">a</text>
</g>
<!-- b -->
<g id="node2" class="node">
<title>b</title>
<ellipse fill="none" stroke="black" cx="18" cy="-90" rx="18" ry="18"/>
<text text-anchor="middle" x="18" y="-85.8" font-family="Times,serif" font-size="14.00">b</text>
</g>
<!-- a&#45;&gt;b -->
<g id="edge1" class="edge">
<title>a&#45;&gt;b</title>
<path fill="none" stroke="black" d="M38.74,-144.76C35.09,-135.31 30.45,-123.26 26.47,-112.97"/>
<polygon fill="black" stroke="black" points="28.21,-112.59 24.77,-108.56 24.94,-113.85 28.21,-112.59"/>
</g>
<!-- c -->
<g id="node3" class="node">
<title>c</title>
<ellipse fill="none" stroke="black" cx="72" cy="-90" rx="18" ry="18"/>
<text text-anchor="middle" x="72" y="-85.8" font-family="Times,serif" font-size="14.00">c</text>
</g>
<!-- a&#45;&gt;c -->
<g id="edge2" class="edge">
<title>a&#45;&gt;c</title>
<path fill="none" stroke="black" d="M51.26,-144.76C54.91,-135.31 59.55,-123.26 63.53,-112.97"/>
<polygon fill="black" stroke="black" points="65.06,-113.85 65.23,-108.56 61.79,-112.59 65.06,-113.85"/>
</g>
<!-- d -->
<g id="node4" class="node">
<title>d</title>
<ellipse fill="none" stroke="black" cx="45" cy="-18" rx="18" ry="18"/>
<text text-anchor="middle" x="45" y="-13.8" font-family="Times,serif" font-size="14.00">d</text>
</g>
<!-- b&#45;&gt;d -->
<g id="edge3" class="edge">
<title>b&#45;&gt;d</title>
<path fill="none" stroke="black" d="M24.26,-72.76C27.91,-63.31 32.55,-51.26 36.53,-40.97"/>
<polygon fill="black" stroke="black" points="38.06,-41.85 38.23,-36.56 34.79,-40.59 38.06,-41.85"/>
</g>
<!-- c&#45;&gt;d -->
<g id="edge4" class="edge">
<title>c&#45;&gt;d</title>
<path fill="none" stroke="black" d="M65.74,-72.76C62.09,-63.31 57.45,-51.26 53.47,-40.97"/>
<polygon fill="black" stroke="black" points="55.21,-40.59 51.77,-36.56 51.94,-41.85 55.21,-40.59"/>
</g>
</g>
</svg>
