<svg xmlns="http://www.w3.org/2000/svg" width="332.9" height="100.0" viewBox="6.64 6.64 342.88 110.00">
<g fill="none" stroke="black" stroke-width="0.0365%" transform="translate(0, 123.2877) scale(13.6986, -13.6986)">
<g fill="rgb(0,0,0)" ><circle cx="1.00" cy="1.00" r="0.15" /></g>
<g fill="rgb(0,0,0)" ><circle cx="1.00" cy="2.00" r="0.15" /></g>
<g fill="rgb(0,0,0)" ><circle cx="1.00" cy="3.00" r="0.15" /></g>
<g fill="rgb(0,0,0)" ><circle cx="1.00" cy="4.00" r="0.15" /></g>
<g fill="rgb(0,0,0)" ><circle cx="2.00" cy="1.00" r="0.15" /></g>
<g fill="rgb(0,0,0)" ><circle cx="2.00" cy="2.00" r="0.15" /></g>
<g fill="rgb(0,0,0)" ><circle cx="3.00" cy="1.00" r="0.15" /></g>
<g fill="rgb(0,0,0)" ><circle cx="3.00" cy="2.00" r="0.15" /></g>
<g fill="rgb(0,0,0)" ><circle cx="3.00" cy="3.00" r="0.15" /></g>
<g fill="rgb(0,0,0)" ><circle cx="3.00" cy="4.00" r="0.15" /></g>
<g fill="rgb(0,0,0)" ><circle cx="4.00" cy="1.00" r="0.15" /></g>
<g fill="rgb(0,0,0)" ><circle cx="4.00" cy="2.00" r="0.15" /></g>
<g fill="rgb(0,0,0)" ><circle cx="4.00" cy="3.00" r="0.15" /></g>
<g fill="rgb(0,0,0)" ><circle cx="4.00" cy="4.00" r="0.15" /></g>
<g fill="rgb(0,0,0)" ><circle cx="5.00" cy="1.00" r="0.15" /></g>
<g fill="rgb(0,0,0)" ><circle cx="5.00" cy="2.00" r="0.15" /></g>
<g fill="rgb(0,0,0)" ><circle cx="5.00" cy="3.00" r="0.15" /></g>
<g fill="rgb(0,0,0)" ><circle cx="5.00" cy="4.00" r="0.15" /></g>
<g fill="rgb(0,0,0)" ><circle cx="6.00" cy="1.00" r="0.15" /></g>
<g fill="rgb(0,0,0)" ><circle cx="6.00" cy="2.00" r="0.15" /></g>
<g fill="rgb(0,0,0)" ><circle cx="6.00" cy="3.00" r="0.15" /></g>
<g fill="rgb(0,0,0)" ><circle cx="6.00" cy="4.00" r="0.15" /></g>
<g fill="rgb(0,0,0)" ><circle cx="6.00" cy="5.00" r="0.15" /></g>
<g fill="rgb(0,0,0)" ><circle cx="7.00" cy="1.00" r="0.15" /></g>
<g fill="rgb(0,0,0)" ><circle cx="7.00" cy="2.00" r="0.15" /></g>
<g fill="rgb(0,0,0)" ><circle cx="7.00" cy="3.00" r="0.15" /></g>
<g fill="rgb(0,0,0)" ><circle cx="8.00" cy="1.00" r="0.15" /></g>
<g fill="rgb(0,0,0)" ><circle cx="8.00" cy="2.00" r="0.15" /></g>
<g fill="rgb(0,0,0)" ><circle cx="9.00" cy="1.00" r="0.15" /></g>
<g fill="rgb(0,0,0)" ><circle cx="9.00" cy="2.00" r="0.15" /></g>
<g fill="rgb(0,0,0)" ><circle cx="9.00" cy="3.00" r="0.15" /></g>
<g fill="rgb(0,0,0)" ><circle cx="9.00" cy="4.00" r="0.15" /></g>
<g fill="rgb(0,0,0)" ><circle cx="9.00" cy="5.00" r="0.15" /></g>
<g fill="rgb(0,0,0)" ><circle cx="10.00" cy="1.00" r="0.15" /></g>
<g fill="rgb(0,0,0)" ><circle cx="10.00" cy="2.00" r="0.15" /></g>
<g fill="rgb(0,0,0)" ><circle cx="10.00" cy="3.00" r="0.15" /></g>
<g fill="rgb(0,0,0)" ><circle cx="10.00" cy="4.00" r="0.15" /></g>
<g fill="rgb(0,0,0)" ><circle cx="10.00" cy="5.00" r="0.15" /></g>
<g fill="rgb(0,0,0)" ><circle cx="11.00" cy="1.00" r="0.15" /></g>
<g fill="rgb(0,0,0)" ><circle cx="11.00" cy="2.00" r="0.15" /></g>
<g fill="rgb(0,0,0)" ><circle cx="11.00" cy="3.00" r="0.15" /></g>
<g fill="rgb(0,0,0)" ><circle cx="12.00" cy="1.00" r="0.15" /></g>
<g fill="rgb(0,0,0)" ><circle cx="12.00" cy="2.00" r="0.15" /></g>
<g fill="rgb(0,0,0)" ><circle cx="12.00" cy="3.00" r="0.15" /></g>
<g fill="rgb(0,0,0)" ><circle cx="12.00" cy="4.00" r="0.15" /></g>
<g fill="rgb(0,0,0)" ><circle cx="13.00" cy="1.00" r="0.15" /></g>
<g fill="rgb(0,0,0)" ><circle cx="13.00" cy="2.00" r="0.15" /></g>
<g fill="rgb(0,0,0)" ><circle cx="13.00" cy="3.00" r="0.15" /></g>
<g fill="rgb(0,0,0)" ><circle cx="13.00" cy="4.00" r="0.15" /></g>
<g fill="rgb(0,0,0)" ><circle cx="13.00" cy="5.00" r="0.15" /></g>
<g fill="rgb(0,0,0)" ><circle cx="13.00" cy="6.00" r="0.15" /></g>
<g fill="rgb(0,0,0)" ><circle cx="13.00" cy="7.00" r="0.15" /></g>
<g fill="rgb(0,0,0)" ><circle cx="13.00" cy="8.00" r="0.15" /></g>
<g fill="rgb(0,0,0)" ><circle cx="14.00" cy="1.00" r="0.15" /></g>
<g fill="rgb(0,0,0)" ><circle cx="14.00" cy="2.00" r="0.15" /></g>
<g fill="rgb(0,0,0)" ><circle cx="14.00" cy="3.00" r="0.15" /></g>
<g fill="rgb(0,0,0)" ><circle cx="14.00" cy="4.00" r="0.15" /></g>
<g fill="rgb(0,0,0)" ><circle cx="15.00" cy="1.00" r="0.15" /></g>
<g fill="rgb(0,0,0)" ><circle cx="15.00" cy="2.00" r="0.15" /></g>
<g fill="rgb(0,0,0)" ><circle cx="15.00" cy="3.00" r="0.15" /></g>
<g fill="rgb(0,0,0)" ><circle cx="15.00" cy="4.00" r="0.15" /></g>
<g fill="rgb(0,0,0)" ><circle cx="15.00" cy="5.00" r="0.15" /></g>
<g fill="rgb(0,0,0)" ><circle cx="16.00" cy="1.00" r="0.15" /></g>
<g fill="rgb(0,0,0)" ><circle cx="17.00" cy="1.00" r="0.15" /></g>
<g fill="rgb(0,0,0)" ><circle cx="17.00" cy="2.00" r="0.15" /></g>
<g fill="rgb(0,0,0)" ><circle cx="18.00" cy="1.00" r="0.15" /></g>
<g fill="rgb(0,0,0)" ><circle cx="18.00" cy="2.00" r="0.15" /></g>
<g fill="rgb(0,0,0)" ><circle cx="18.00" cy="3.00" r="0.15" /></g>
<g fill="rgb(0,0,0)" ><circle cx="18.00" cy="4.00" r="0.15" /></g>
<g fill="rgb(0,0,0)" ><circle cx="18.00" cy="5.00" r="0.15" /></g>
<g fill="rgb(0,0,0)" ><circle cx="19.00" cy="1.00" r="0.15" /></g>
<g fill="rgb(0,0,0)" ><circle cx="19.00" cy="2.00" r="0.15" /></g>
<g fill="rgb(0,0,0)" ><circle cx="19.00" cy="3.00" r="0.15" /></g>
<g fill="rgb(0,0,0)" ><circle cx="19.00" cy="4.00" r="0.15" /></g>
<g fill="rgb(0,0,0)" ><circle cx="20.00" cy="1.00" r="0.15" /></g>
<g fill="rgb(0,0,0)" ><circle cx="20.00" cy="2.00" r="0.15" /></g>
<g fill="rgb(0,0,0)" ><circle cx="20.00" cy="3.00" r="0.15" /></g>
<g fill="rgb(0,0,0)" ><circle cx="20.00" cy="4.00" r="0.15" /></g>
<g fill="rgb(0,0,0)" ><circle cx="20.00" cy="5.00" r="0.15" /></g>
<g fill="rgb(0,0,0)" ><circle cx="20.00" cy="6.00" r="0.15" /></g>
<g fill="rgb(0,0,0)" ><circle cx="21.00" cy="1.00" r="0.15" /></g>
<g fill="rgb(0,0,0)" ><circle cx="21.00" cy="2.00" r="0.15" /></g>
<g fill="rgb(0,0,0)" ><circle cx="21.00" cy="3.00" r="0.15" /></g>
<g fill="rgb(0,0,0)" ><circle cx="22.00" cy="1.00" r="0.15" /></g>
<g fill="rgb(0,0,0)" ><circle cx="22.00" cy="2.00" r="0.15" /></g>
<g fill="rgb(0,0,0)" ><circle cx="22.00" cy="3.00" r="0.15" /></g>
<g fill="rgb(0,0,0)" ><circle cx="22.00" cy="4.00" r="0.15" /></g>
<g fill="rgb(0,0,0)" ><circle cx="22.00" cy="5.00" r="0.15" /></g>
<g fill="rgb(0,0,0)" ><circle cx="23.00" cy="1.00" r="0.15" /></g>
<g fill="rgb(0,0,0)" ><circle cx="23.00" cy="2.00" r="0.15" /></g>
<g fill="rgb(0,0,0)" ><circle cx="23.00" cy="3.00" r="0.15" /></g>
<g fill="rgb(0,0,0)" ><circle cx="23.00" cy="4.00" r="0.15" /></g>
<g fill="rgb(0,0,0)" ><circle cx="23.00" cy="5.00" r="0.15" /></g>
<g fill="rgb(0,0,0)" ><circle cx="24.00" cy="1.00" r="0.15" /></g>
<g fill="rgb(0,0,0)" ><circle cx="24.00" cy="2.00" r="0.15" /></g>
<g fill="rgb(0,0,0)" ><circle cx="24.00" cy="3.00" r="0.15" /></g>
<g fill="rgb(0,0,0)" ><circle cx="24.00" cy="4.00" r="0.15" /></g>
<g fill="rgb(0,0,0)" ><circle cx="24.00" cy="5.00" r="0.15" /></g>
<g fill="rgb(0,0,0)" ><circle cx="25.00" cy="1.00" r="0.15" /></g>
<g fill="rgb(0,0,0)" ><circle cx="25.00" cy="2.00" r="0.15" /></g>
</g>
</svg>