<svg xmlns="http://www.w3.org/2000/svg" width="161.8" height="100.0" viewBox="-4.35 7.75 171.80 110.00">
<g fill="none" stroke="black" stroke-width="0.0203%" transform="translate(0, 125.5036) scale(24.5769, -24.5769)">
<circle cx="0.03" cy="0.52" r="0.02" />
<circle cx="0.05" cy="0.75" r="0.02" />
<circle cx="0.08" cy="0.90" r="0.02" />
<circle cx="0.11" cy="1.01" r="0.02" />
<circle cx="0.13" cy="1.10" r="0.02" />
<circle cx="0.16" cy="1.17" r="0.02" />
<circle cx="0.19" cy="1.34" r="0.02" />
<circle cx="0.21" cy="1.29" r="0.02" />
<circle cx="0.24" cy="1.23" r="0.02" />
<circle cx="0.26" cy="1.38" r="0.02" />
<circle cx="0.29" cy="1.55" r="0.02" />
<circle cx="0.32" cy="1.46" r="0.02" />
<circle cx="0.34" cy="1.77" r="0.02" />
<circle cx="0.37" cy="1.63" r="0.02" />
<circle cx="0.40" cy="1.80" r="0.02" />
<circle cx="0.42" cy="1.58" r="0.02" />
<circle cx="0.45" cy="1.42" r="0.02" />
<circle cx="0.48" cy="1.52" r="0.02" />
<circle cx="0.50" cy="1.69" r="0.02" />
<circle cx="0.53" cy="1.67" r="0.02" />
<circle cx="0.56" cy="1.91" r="0.02" />
<circle cx="0.58" cy="1.85" r="0.02" />
<circle cx="0.61" cy="2.02" r="0.02" />
<circle cx="0.63" cy="1.75" r="0.02" />
<circle cx="0.66" cy="2.06" r="0.02" />
<circle cx="0.69" cy="2.06" r="0.02" />
<circle cx="0.71" cy="2.24" r="0.02" />
<circle cx="0.74" cy="1.92" r="0.02" />
<circle cx="0.77" cy="2.46" r="0.02" />
<circle cx="0.79" cy="2.10" r="0.02" />
<circle cx="0.82" cy="2.27" r="0.02" />
<circle cx="0.85" cy="1.87" r="0.02" />
<circle cx="0.87" cy="1.49" r="0.02" />
<circle cx="0.90" cy="1.71" r="0.02" />
<circle cx="0.93" cy="1.89" r="0.02" />
<circle cx="0.95" cy="1.82" r="0.02" />
<circle cx="0.98" cy="2.11" r="0.02" />
<circle cx="1.00" cy="1.99" r="0.02" />
<circle cx="1.03" cy="2.16" r="0.02" />
<circle cx="1.06" cy="1.97" r="0.02" />
<circle cx="1.08" cy="2.25" r="0.02" />
<circle cx="1.11" cy="2.21" r="0.02" />
<circle cx="1.14" cy="2.39" r="0.02" />
<circle cx="1.16" cy="2.14" r="0.02" />
<circle cx="1.19" cy="2.61" r="0.02" />
<circle cx="1.22" cy="2.32" r="0.02" />
<circle cx="1.24" cy="2.49" r="0.02" />
<circle cx="1.27" cy="2.05" r="0.02" />
<circle cx="1.30" cy="2.45" r="0.02" />
<circle cx="1.32" cy="2.36" r="0.02" />
<circle cx="1.35" cy="2.53" r="0.02" />
<circle cx="1.37" cy="2.36" r="0.02" />
<circle cx="1.40" cy="2.75" r="0.02" />
<circle cx="1.43" cy="2.54" r="0.02" />
<circle cx="1.45" cy="2.72" r="0.02" />
<circle cx="1.48" cy="2.22" r="0.02" />
<circle cx="1.51" cy="2.90" r="0.02" />
<circle cx="1.53" cy="2.76" r="0.02" />
<circle cx="1.56" cy="2.94" r="0.02" />
<circle cx="1.59" cy="2.40" r="0.02" />
<circle cx="1.61" cy="3.16" r="0.02" />
<circle cx="1.64" cy="2.57" r="0.02" />
<circle cx="1.67" cy="2.75" r="0.02" />
<circle cx="1.69" cy="2.17" r="0.02" />
<circle cx="1.72" cy="1.60" r="0.02" />
<circle cx="1.75" cy="1.78" r="0.02" />
<circle cx="1.77" cy="1.96" r="0.02" />
<circle cx="1.80" cy="2.01" r="0.02" />
<circle cx="1.82" cy="2.18" r="0.02" />
<circle cx="1.85" cy="2.18" r="0.02" />
<circle cx="1.88" cy="2.36" r="0.02" />
<circle cx="1.90" cy="2.11" r="0.02" />
<circle cx="1.93" cy="2.32" r="0.02" />
<circle cx="1.96" cy="2.41" r="0.02" />
<circle cx="1.98" cy="2.58" r="0.02" />
<circle cx="2.01" cy="2.29" r="0.02" />
<circle cx="2.04" cy="2.80" r="0.02" />
<circle cx="2.06" cy="2.46" r="0.02" />
<circle cx="2.09" cy="2.64" r="0.02" />
<circle cx="2.12" cy="2.27" r="0.02" />
<circle cx="2.14" cy="2.52" r="0.02" />
<circle cx="2.17" cy="2.55" r="0.02" />
<circle cx="2.19" cy="2.73" r="0.02" />
<circle cx="2.22" cy="2.51" r="0.02" />
<circle cx="2.25" cy="2.95" r="0.02" />
<circle cx="2.27" cy="2.69" r="0.02" />
<circle cx="2.30" cy="2.86" r="0.02" />
<circle cx="2.33" cy="2.44" r="0.02" />
<circle cx="2.35" cy="3.09" r="0.02" />
<circle cx="2.38" cy="2.91" r="0.02" />
<circle cx="2.41" cy="3.08" r="0.02" />
<circle cx="2.43" cy="2.62" r="0.02" />
<circle cx="2.46" cy="3.30" r="0.02" />
<circle cx="2.49" cy="2.79" r="0.02" />
<circle cx="2.51" cy="2.97" r="0.02" />
<circle cx="2.54" cy="2.35" r="0.02" />
<circle cx="2.56" cy="2.59" r="0.02" />
<circle cx="2.59" cy="2.75" r="0.02" />
<circle cx="2.62" cy="2.92" r="0.02" />
<circle cx="2.64" cy="2.66" r="0.02" />
<circle cx="2.67" cy="3.14" r="0.02" />
<circle cx="2.70" cy="2.83" r="0.02" />
<circle cx="2.72" cy="3.01" r="0.02" />
<circle cx="2.75" cy="2.66" r="0.02" />
<circle cx="2.78" cy="3.29" r="0.02" />
<circle cx="2.80" cy="3.05" r="0.02" />
<circle cx="2.83" cy="3.23" r="0.02" />
<circle cx="2.86" cy="2.84" r="0.02" />
<circle cx="2.88" cy="3.45" r="0.02" />
<circle cx="2.91" cy="3.02" r="0.02" />
<circle cx="2.93" cy="3.19" r="0.02" />
<circle cx="2.96" cy="2.52" r="0.02" />
<circle cx="2.99" cy="3.49" r="0.02" />
<circle cx="3.01" cy="3.20" r="0.02" />
<circle cx="3.04" cy="3.37" r="0.02" />
<circle cx="3.07" cy="3.06" r="0.02" />
<circle cx="3.09" cy="3.60" r="0.02" />
<circle cx="3.12" cy="3.24" r="0.02" />
<circle cx="3.15" cy="3.41" r="0.02" />
<circle cx="3.17" cy="2.70" r="0.02" />
<circle cx="3.20" cy="3.74" r="0.02" />
<circle cx="3.23" cy="3.46" r="0.02" />
<circle cx="3.25" cy="3.64" r="0.02" />
<circle cx="3.28" cy="2.87" r="0.02" />
<circle cx="3.30" cy="3.86" r="0.02" />
<circle cx="3.33" cy="3.05" r="0.02" />
<circle cx="3.36" cy="3.23" r="0.02" />
<circle cx="3.38" cy="2.47" r="0.02" />
<circle cx="3.41" cy="1.65" r="0.02" />
<circle cx="3.44" cy="1.90" r="0.02" />
<circle cx="3.46" cy="2.07" r="0.02" />
<circle cx="3.49" cy="2.08" r="0.02" />
<circle cx="3.52" cy="2.29" r="0.02" />
<circle cx="3.54" cy="2.26" r="0.02" />
<circle cx="3.57" cy="2.43" r="0.02" />
<circle cx="3.60" cy="2.31" r="0.02" />
<circle cx="3.62" cy="2.44" r="0.02" />
<circle cx="3.65" cy="2.48" r="0.02" />
<circle cx="3.68" cy="2.65" r="0.02" />
<circle cx="3.70" cy="2.48" r="0.02" />
<circle cx="3.73" cy="2.87" r="0.02" />
<circle cx="3.75" cy="2.66" r="0.02" />
<circle cx="3.78" cy="2.84" r="0.02" />
<circle cx="3.81" cy="2.41" r="0.02" />
<circle cx="3.83" cy="2.64" r="0.02" />
<circle cx="3.86" cy="2.62" r="0.02" />
<circle cx="3.89" cy="2.80" r="0.02" />
<circle cx="3.91" cy="2.71" r="0.02" />
<circle cx="3.94" cy="3.02" r="0.02" />
<circle cx="3.97" cy="2.88" r="0.02" />
<circle cx="3.99" cy="3.06" r="0.02" />
<circle cx="4.02" cy="2.59" r="0.02" />
<circle cx="4.05" cy="3.17" r="0.02" />
<circle cx="4.07" cy="3.10" r="0.02" />
<circle cx="4.10" cy="3.28" r="0.02" />
<circle cx="4.12" cy="2.76" r="0.02" />
<circle cx="4.15" cy="3.50" r="0.02" />
<circle cx="4.18" cy="2.94" r="0.02" />
<circle cx="4.20" cy="3.12" r="0.02" />
<circle cx="4.23" cy="2.57" r="0.02" />
<circle cx="4.26" cy="2.71" r="0.02" />
<circle cx="4.28" cy="2.82" r="0.02" />
<circle cx="4.31" cy="3.00" r="0.02" />
<circle cx="4.34" cy="2.85" r="0.02" />
<circle cx="4.36" cy="3.22" r="0.02" />
<circle cx="4.39" cy="3.03" r="0.02" />
<circle cx="4.42" cy="3.20" r="0.02" />
<circle cx="4.44" cy="2.81" r="0.02" />
<circle cx="4.47" cy="3.36" r="0.02" />
<circle cx="4.49" cy="3.25" r="0.02" />
<circle cx="4.52" cy="3.42" r="0.02" />
<circle cx="4.55" cy="2.99" r="0.02" />
<circle cx="4.57" cy="3.65" r="0.02" />
<circle cx="4.60" cy="3.16" r="0.02" />
<circle cx="4.63" cy="3.34" r="0.02" />
<circle cx="4.65" cy="2.74" r="0.02" />
<circle cx="4.68" cy="3.56" r="0.02" />
<circle cx="4.71" cy="3.40" r="0.02" />
<circle cx="4.73" cy="3.57" r="0.02" />
<circle cx="4.76" cy="3.21" r="0.02" />
<circle cx="4.79" cy="3.79" r="0.02" />
<circle cx="4.81" cy="3.38" r="0.02" />
<circle cx="4.84" cy="3.56" r="0.02" />
<circle cx="4.86" cy="2.92" r="0.02" />
<circle cx="4.89" cy="3.94" r="0.02" />
<circle cx="4.92" cy="3.61" r="0.02" />
<circle cx="4.94" cy="3.78" r="0.02" />
<circle cx="4.97" cy="3.09" r="0.02" />
<circle cx="5.00" cy="4.00" r="0.02" />
<circle cx="5.02" cy="3.27" r="0.02" />
<circle cx="5.05" cy="3.45" r="0.02" />
<circle cx="5.08" cy="2.65" r="0.02" />
<circle cx="5.10" cy="2.82" r="0.02" />
<circle cx="5.13" cy="2.89" r="0.02" />
<circle cx="5.16" cy="3.07" r="0.02" />
<circle cx="5.18" cy="3.05" r="0.02" />
<circle cx="5.21" cy="3.29" r="0.02" />
<circle cx="5.24" cy="3.22" r="0.02" />
<circle cx="5.26" cy="3.40" r="0.02" />
<circle cx="5.29" cy="2.96" r="0.02" />
<circle cx="5.31" cy="3.44" r="0.02" />
<circle cx="5.34" cy="3.45" r="0.02" />
<circle cx="5.37" cy="3.62" r="0.02" />
<circle cx="5.39" cy="3.13" r="0.02" />
<circle cx="5.42" cy="3.84" r="0.02" />
<circle cx="5.45" cy="3.31" r="0.02" />
<circle cx="5.47" cy="3.48" r="0.02" />
<circle cx="5.50" cy="2.96" r="0.02" />
<circle cx="5.53" cy="3.63" r="0.02" />
<circle cx="5.55" cy="3.59" r="0.02" />
<circle cx="5.58" cy="3.77" r="0.02" />
<circle cx="5.61" cy="3.35" r="0.02" />
<circle cx="5.63" cy="3.99" r="0.02" />
<circle cx="5.66" cy="3.53" r="0.02" />
<circle cx="5.68" cy="3.71" r="0.02" />
<circle cx="5.71" cy="3.14" r="0.02" />
<circle cx="5.74" cy="4.14" r="0.02" />
<circle cx="5.76" cy="3.75" r="0.02" />
<circle cx="5.79" cy="3.93" r="0.02" />
<circle cx="5.82" cy="3.32" r="0.02" />
<circle cx="5.84" cy="4.15" r="0.02" />
<circle cx="5.87" cy="3.49" r="0.02" />
<circle cx="5.90" cy="3.67" r="0.02" />
<circle cx="5.92" cy="2.82" r="0.02" />
<circle cx="5.95" cy="3.70" r="0.02" />
<circle cx="5.98" cy="3.79" r="0.02" />
<circle cx="6.00" cy="3.96" r="0.02" />
<circle cx="6.03" cy="3.50" r="0.02" />
<circle cx="6.05" cy="4.19" r="0.02" />
<circle cx="6.08" cy="3.68" r="0.02" />
<circle cx="6.11" cy="3.85" r="0.02" />
<circle cx="6.13" cy="3.36" r="0.02" />
<circle cx="6.16" cy="4.33" r="0.02" />
<circle cx="6.19" cy="3.90" r="0.02" />
<circle cx="6.21" cy="4.07" r="0.02" />
<circle cx="6.24" cy="3.54" r="0.02" />
<circle cx="6.27" cy="4.30" r="0.02" />
<circle cx="6.29" cy="3.71" r="0.02" />
<circle cx="6.32" cy="3.89" r="0.02" />
<circle cx="6.35" cy="3.00" r="0.02" />
<circle cx="6.37" cy="4.53" r="0.02" />
<circle cx="6.40" cy="4.04" r="0.02" />
<circle cx="6.42" cy="4.22" r="0.02" />
<circle cx="6.45" cy="3.76" r="0.02" />
<circle cx="6.48" cy="4.44" r="0.02" />
<circle cx="6.50" cy="3.94" r="0.02" />
<circle cx="6.53" cy="4.11" r="0.02" />
<circle cx="6.56" cy="3.17" r="0.02" />
<circle cx="6.58" cy="4.59" r="0.02" />
<circle cx="6.61" cy="4.16" r="0.02" />
</g>
</svg>