<svg xmlns="http://www.w3.org/2000/svg" width="161.8" height="100.0" viewBox="-3 -5 172 110">
<g fill="none" stroke="black" stroke-width="3.1200%" transform="translate(0, 100.3205) scale(0.1603, -0.1603)">
<circle cx="14" cy="1" r="3" />
<circle cx="27" cy="2" r="3" />
<circle cx="41" cy="3" r="3" />
<circle cx="55" cy="4" r="3" />
<circle cx="68" cy="5" r="3" />
<circle cx="82" cy="6" r="3" />
<circle cx="96" cy="9" r="3" />
<circle cx="109" cy="8" r="3" />
<circle cx="123" cy="7" r="3" />
<circle cx="136" cy="10" r="3" />
<circle cx="150" cy="15" r="3" />
<circle cx="164" cy="12" r="3" />
<circle cx="177" cy="25" r="3" />
<circle cx="191" cy="18" r="3" />
<circle cx="205" cy="27" r="3" />
<circle cx="218" cy="16" r="3" />
<circle cx="232" cy="11" r="3" />
<circle cx="246" cy="14" r="3" />
<circle cx="259" cy="21" r="3" />
<circle cx="273" cy="20" r="3" />
<circle cx="287" cy="35" r="3" />
<circle cx="300" cy="30" r="3" />
<circle cx="314" cy="45" r="3" />
<circle cx="327" cy="24" r="3" />
<circle cx="341" cy="49" r="3" />
<circle cx="355" cy="50" r="3" />
<circle cx="368" cy="75" r="3" />
<circle cx="382" cy="36" r="3" />
<circle cx="396" cy="125" r="3" />
<circle cx="409" cy="54" r="3" />
<circle cx="423" cy="81" r="3" />
<circle cx="437" cy="32" r="3" />
<circle cx="450" cy="13" r="3" />
<circle cx="464" cy="22" r="3" />
<circle cx="478" cy="33" r="3" />
<circle cx="491" cy="28" r="3" />
<circle cx="505" cy="55" r="3" />
<circle cx="518" cy="42" r="3" />
<circle cx="532" cy="63" r="3" />
<circle cx="546" cy="40" r="3" />
<circle cx="559" cy="77" r="3" />
<circle cx="573" cy="70" r="3" />
<circle cx="587" cy="105" r="3" />
<circle cx="600" cy="60" r="3" />
<circle cx="614" cy="175" r="3" />
<circle cx="628" cy="90" r="3" />
<circle cx="641" cy="135" r="3" />
<circle cx="655" cy="48" r="3" />
<circle cx="669" cy="121" r="3" />
<circle cx="682" cy="98" r="3" />
<circle cx="696" cy="147" r="3" />
<circle cx="709" cy="100" r="3" />
<circle cx="723" cy="245" r="3" />
<circle cx="737" cy="150" r="3" />
<circle cx="750" cy="225" r="3" />
<circle cx="764" cy="72" r="3" />
<circle cx="778" cy="343" r="3" />
<circle cx="791" cy="250" r="3" />
<circle cx="805" cy="375" r="3" />
<circle cx="819" cy="108" r="3" />
<circle cx="832" cy="625" r="3" />
<circle cx="846" cy="162" r="3" />
<circle cx="860" cy="243" r="3" />
<circle cx="873" cy="64" r="3" />
<circle cx="887" cy="17" r="3" />
<circle cx="901" cy="26" r="3" />
<circle cx="914" cy="39" r="3" />
<circle cx="928" cy="44" r="3" />
<circle cx="941" cy="65" r="3" />
<circle cx="955" cy="66" r="3" />
<circle cx="969" cy="99" r="3" />
<circle cx="982" cy="56" r="3" />
<circle cx="996" cy="91" r="3" />
<circle cx="1010" cy="110" r="3" />
<circle cx="1023" cy="165" r="3" />
</g>
</svg>