<svg xmlns="http://www.w3.org/2000/svg" width="161.8" height="100.0" viewBox="-3.4 -93.7 171.8 110.0">
<g fill="none" stroke="black" stroke-width="0.2760%" transform="translate(0, -77.4539) scale(1.8117, -1.8117)">
<polyline points="0.9,0.7 1.8,2.9 2.7,1.8 3.6,1.8 4.5,6.2 5.4,2.6 6.3,2.3 7.2,4.2 8.1,1.9 9.0,1.0 9.9,-5.8 10.8,-8.6 11.7,-7.5 12.6,-12.9 13.5,-14.0 14.4,-9.5 15.3,-15.4 16.2,-19.8 17.1,-20.5 18.0,-17.3 18.9,-11.8 19.8,-17.6 20.7,-16.3 21.7,-14.7 22.6,-18.5 23.5,-16.2 24.4,-17.6 25.3,-19.6 26.2,-23.7 27.1,-27.1 28.0,-32.1 28.9,-32.5 29.8,-30.8 30.7,-31.6 31.6,-31.3 32.5,-30.8 33.4,-32.9 34.3,-34.6 35.2,-31.7 36.1,-33.9 37.0,-36.4 37.9,-35.5 38.8,-37.6 39.7,-42.6 40.6,-44.9 41.5,-40.8 42.4,-37.2 43.3,-33.4 44.2,-33.8 45.1,-34.4 46.0,-35.1 46.9,-36.5 47.8,-37.5 48.7,-37.3 49.6,-34.6 50.5,-32.7 51.4,-34.9 52.3,-38.7 53.2,-34.2 54.1,-35.7 55.0,-32.9 55.9,-30.9 56.8,-30.4 57.7,-28.7 58.6,-29.0 59.5,-29.8 60.4,-27.4 61.3,-22.9 62.2,-21.5 63.1,-26.4 64.0,-29.9 65.0,-26.6 65.9,-29.9 66.8,-29.9 67.7,-31.4 68.6,-32.9 69.5,-34.4 70.4,-36.0 71.3,-36.6 72.2,-39.5 73.1,-38.7 74.0,-38.4 74.9,-38.0 75.8,-38.8 76.7,-44.7 77.6,-46.2 78.5,-45.2 79.4,-48.3 80.3,-49.0 81.2,-48.5 82.1,-48.2 83.0,-46.9 83.9,-44.7 84.8,-44.9 85.7,-46.8 86.6,-44.4 87.5,-43.7 88.4,-40.8 89.3,-41.8 90.2,-37.6" />
</g>
</svg>