<svg xmlns="http://www.w3.org/2000/svg" width="98.9" height="100.0" viewBox="-53 -55 109 110">
<g fill="none" stroke="black" stroke-width="1.8514%" transform="translate(0, 0.0000) scale(0.2701, -0.2701)">
<circle cx="2" cy="-1" r="1" />
<circle cx="3" cy="-2" r="1" />
<circle cx="3" cy="-6" r="2" />
<circle cx="2" cy="-12" r="4" />
<circle cx="-4" cy="-22" r="7" />
<circle cx="-20" cy="-35" r="14" />
<circle cx="-58" cy="-48" r="26" />
<circle cx="-131" cy="-48" r="48" />
<circle cx="3" cy="0" r="1" />
<circle cx="6" cy="-2" r="2" />
<circle cx="9" cy="-8" r="4" />
<circle cx="11" cy="-19" r="7" />
<circle cx="7" cy="-40" r="14" />
<circle cx="-13" cy="-74" r="26" />
<circle cx="-70" cy="-121" r="48" />
<circle cx="2" cy="1" r="1" />
<circle cx="6" cy="2" r="2" />
<circle cx="12" cy="0" r="4" />
<circle cx="21" cy="-7" r="7" />
<circle cx="31" cy="-26" r="14" />
<circle cx="38" cy="-65" r="26" />
<circle cx="24" cy="-137" r="48" />
<circle cx="3" cy="2" r="1" />
<circle cx="1" cy="2" r="1" />
<circle cx="9" cy="8" r="4" />
<circle cx="21" cy="7" r="7" />
<circle cx="41" cy="0" r="14" />
<circle cx="71" cy="-26" r="26" />
<circle cx="107" cy="-90" r="48" />
<circle cx="3" cy="6" r="2" />
<circle cx="1" cy="3" r="1" />
<circle cx="-0" cy="2" r="1" />
<circle cx="11" cy="19" r="7" />
<circle cx="31" cy="26" r="14" />
<circle cx="71" cy="26" r="26" />
<circle cx="140" cy="0" r="48" />
<circle cx="2" cy="12" r="4" />
<circle cx="-1" cy="6" r="2" />
<circle cx="-2" cy="3" r="1" />
<circle cx="-1" cy="1" r="1" />
<circle cx="7" cy="40" r="14" />
<circle cx="38" cy="65" r="26" />
<circle cx="107" cy="90" r="48" />
<circle cx="-4" cy="22" r="7" />
<circle cx="-6" cy="10" r="4" />
<circle cx="-5" cy="4" r="2" />
<circle cx="-3" cy="1" r="1" />
<circle cx="-2" cy="-0" r="1" />
<circle cx="-13" cy="74" r="26" />
<circle cx="24" cy="137" r="48" />
<circle cx="-20" cy="35" r="14" />
<circle cx="-17" cy="14" r="7" />
<circle cx="-11" cy="4" r="4" />
<circle cx="-6" cy="-0" r="2" />
<circle cx="-3" cy="-1" r="1" />
<circle cx="-1" cy="-1" r="1" />
<circle cx="-70" cy="121" r="48" />
<circle cx="-58" cy="48" r="26" />
<circle cx="-38" cy="14" r="14" />
<circle cx="-22" cy="-0" r="7" />
<circle cx="-11" cy="-4" r="4" />
<circle cx="-5" cy="-4" r="2" />
<circle cx="-2" cy="-3" r="1" />
<circle cx="-0" cy="-2" r="1" />
<circle cx="-131" cy="48" r="48" />
<circle cx="-75" cy="-0" r="26" />
<circle cx="-38" cy="-14" r="14" />
<circle cx="-17" cy="-14" r="7" />
<circle cx="-6" cy="-10" r="4" />
<circle cx="-1" cy="-6" r="2" />
<circle cx="1" cy="-3" r="1" />
<circle cx="1" cy="-2" r="1" />
</g>
</svg>