<svg xmlns="http://www.w3.org/2000/svg" width="161.8" height="100.0" viewBox="-3.74 -38.33 171.80 110.00">
<g fill="none" stroke="black" stroke-width="0.0750%" transform="translate(0, 33.3333) scale(6.6667, -6.6667)">

<line x1="0.38" y1="0.00" x2="0.38" y2="1.00" />
<line x1="0.57" y1="0.00" x2="0.57" y2="1.00" />


<line x1="1.14" y1="0.00" x2="1.14" y2="-1.00" />
<line x1="1.33" y1="0.00" x2="1.33" y2="-1.00" />
<line x1="1.52" y1="0.00" x2="1.52" y2="-2.00" />
<line x1="1.71" y1="0.00" x2="1.71" y2="-2.00" />
<line x1="1.90" y1="0.00" x2="1.90" y2="-3.00" />
<line x1="2.09" y1="0.00" x2="2.09" y2="-3.00" />
<line x1="2.28" y1="0.00" x2="2.28" y2="-2.00" />
<line x1="2.46" y1="0.00" x2="2.46" y2="-2.00" />
<line x1="2.65" y1="0.00" x2="2.65" y2="-3.00" />
<line x1="2.84" y1="0.00" x2="2.84" y2="-3.00" />
<line x1="3.03" y1="0.00" x2="3.03" y2="-4.00" />
<line x1="3.22" y1="0.00" x2="3.22" y2="-4.00" />
<line x1="3.41" y1="0.00" x2="3.41" y2="-5.00" />
<line x1="3.60" y1="0.00" x2="3.60" y2="-5.00" />
<line x1="3.79" y1="0.00" x2="3.79" y2="-4.00" />
<line x1="3.98" y1="0.00" x2="3.98" y2="-4.00" />
<line x1="4.17" y1="0.00" x2="4.17" y2="-3.00" />
<line x1="4.36" y1="0.00" x2="4.36" y2="-3.00" />
<line x1="4.55" y1="0.00" x2="4.55" y2="-2.00" />
<line x1="4.74" y1="0.00" x2="4.74" y2="-2.00" />
<line x1="4.93" y1="0.00" x2="4.93" y2="-3.00" />
<line x1="5.12" y1="0.00" x2="5.12" y2="-3.00" />
<line x1="5.31" y1="0.00" x2="5.31" y2="-2.00" />
<line x1="5.50" y1="0.00" x2="5.50" y2="-2.00" />
<line x1="5.69" y1="0.00" x2="5.69" y2="-3.00" />
<line x1="5.88" y1="0.00" x2="5.88" y2="-3.00" />
<line x1="6.07" y1="0.00" x2="6.07" y2="-4.00" />
<line x1="6.26" y1="0.00" x2="6.26" y2="-4.00" />
<line x1="6.45" y1="0.00" x2="6.45" y2="-5.00" />
<line x1="6.64" y1="0.00" x2="6.64" y2="-5.00" />
<line x1="6.83" y1="0.00" x2="6.83" y2="-4.00" />
<line x1="7.02" y1="0.00" x2="7.02" y2="-4.00" />
<line x1="7.21" y1="0.00" x2="7.21" y2="-3.00" />
<line x1="7.39" y1="0.00" x2="7.39" y2="-3.00" />
<line x1="7.58" y1="0.00" x2="7.58" y2="-2.00" />
<line x1="7.77" y1="0.00" x2="7.77" y2="-2.00" />
<line x1="7.96" y1="0.00" x2="7.96" y2="-1.00" />
<line x1="8.15" y1="0.00" x2="8.15" y2="-1.00" />
<line x1="8.34" y1="0.00" x2="8.34" y2="-2.00" />
<line x1="8.53" y1="0.00" x2="8.53" y2="-2.00" />
<line x1="8.72" y1="0.00" x2="8.72" y2="-1.00" />
<line x1="8.91" y1="0.00" x2="8.91" y2="-1.00" />


<line x1="9.48" y1="0.00" x2="9.48" y2="-1.00" />
<line x1="9.67" y1="0.00" x2="9.67" y2="-1.00" />


<line x1="10.24" y1="0.00" x2="10.24" y2="1.00" />
<line x1="10.43" y1="0.00" x2="10.43" y2="1.00" />
<line x1="10.62" y1="0.00" x2="10.62" y2="2.00" />
<line x1="10.81" y1="0.00" x2="10.81" y2="2.00" />
<line x1="11.00" y1="0.00" x2="11.00" y2="1.00" />
<line x1="11.19" y1="0.00" x2="11.19" y2="1.00" />
<line x1="11.38" y1="0.00" x2="11.38" y2="2.00" />
<line x1="11.57" y1="0.00" x2="11.57" y2="2.00" />
<line x1="11.76" y1="0.00" x2="11.76" y2="1.00" />
<line x1="11.95" y1="0.00" x2="11.95" y2="1.00" />


<line x1="12.51" y1="0.00" x2="12.51" y2="-1.00" />
<line x1="12.70" y1="0.00" x2="12.70" y2="-1.00" />


<line x1="13.27" y1="0.00" x2="13.27" y2="1.00" />
<line x1="13.46" y1="0.00" x2="13.46" y2="1.00" />
<line x1="13.65" y1="0.00" x2="13.65" y2="2.00" />
<line x1="13.84" y1="0.00" x2="13.84" y2="2.00" />
<line x1="14.03" y1="0.00" x2="14.03" y2="3.00" />
<line x1="14.22" y1="0.00" x2="14.22" y2="3.00" />
<line x1="14.41" y1="0.00" x2="14.41" y2="2.00" />
<line x1="14.60" y1="0.00" x2="14.60" y2="2.00" />
<line x1="14.79" y1="0.00" x2="14.79" y2="3.00" />
<line x1="14.98" y1="0.00" x2="14.98" y2="3.00" />
<line x1="15.17" y1="0.00" x2="15.17" y2="4.00" />
<line x1="15.36" y1="0.00" x2="15.36" y2="4.00" />
<line x1="15.55" y1="0.00" x2="15.55" y2="5.00" />
<line x1="15.74" y1="0.00" x2="15.74" y2="5.00" />
<line x1="15.93" y1="0.00" x2="15.93" y2="4.00" />
<line x1="16.12" y1="0.00" x2="16.12" y2="4.00" />
<line x1="16.31" y1="0.00" x2="16.31" y2="3.00" />
<line x1="16.50" y1="0.00" x2="16.50" y2="3.00" />
<line x1="16.69" y1="0.00" x2="16.69" y2="2.00" />
<line x1="16.88" y1="0.00" x2="16.88" y2="2.00" />
<line x1="17.07" y1="0.00" x2="17.07" y2="3.00" />
<line x1="17.25" y1="0.00" x2="17.25" y2="3.00" />
<line x1="17.44" y1="0.00" x2="17.44" y2="2.00" />
<line x1="17.63" y1="0.00" x2="17.63" y2="2.00" />
<line x1="17.82" y1="0.00" x2="17.82" y2="3.00" />
<line x1="18.01" y1="0.00" x2="18.01" y2="3.00" />
<line x1="18.20" y1="0.00" x2="18.20" y2="4.00" />
<line x1="18.39" y1="0.00" x2="18.39" y2="4.00" />
<line x1="18.58" y1="0.00" x2="18.58" y2="3.00" />
<line x1="18.77" y1="0.00" x2="18.77" y2="3.00" />
<line x1="18.96" y1="0.00" x2="18.96" y2="4.00" />
<line x1="19.15" y1="0.00" x2="19.15" y2="4.00" />
<line x1="19.34" y1="0.00" x2="19.34" y2="5.00" />
<line x1="19.53" y1="0.00" x2="19.53" y2="5.00" />
<line x1="19.72" y1="0.00" x2="19.72" y2="6.00" />
<line x1="19.91" y1="0.00" x2="19.91" y2="6.00" />
<line x1="20.10" y1="0.00" x2="20.10" y2="7.00" />
<line x1="20.29" y1="0.00" x2="20.29" y2="7.00" />
<line x1="20.48" y1="0.00" x2="20.48" y2="6.00" />
<line x1="20.67" y1="0.00" x2="20.67" y2="6.00" />
<line x1="20.86" y1="0.00" x2="20.86" y2="7.00" />
<line x1="21.05" y1="0.00" x2="21.05" y2="7.00" />
<line x1="21.24" y1="0.00" x2="21.24" y2="8.00" />
<line x1="21.43" y1="0.00" x2="21.43" y2="8.00" />
<line x1="21.62" y1="0.00" x2="21.62" y2="7.00" />
<line x1="21.81" y1="0.00" x2="21.81" y2="7.00" />
<line x1="22.00" y1="0.00" x2="22.00" y2="8.00" />
<line x1="22.18" y1="0.00" x2="22.18" y2="8.00" />
<line x1="22.37" y1="0.00" x2="22.37" y2="9.00" />
<line x1="22.56" y1="0.00" x2="22.56" y2="9.00" />
<line x1="22.75" y1="0.00" x2="22.75" y2="10.00" />
<line x1="22.94" y1="0.00" x2="22.94" y2="10.00" />
<line x1="23.13" y1="0.00" x2="23.13" y2="9.00" />
<line x1="23.32" y1="0.00" x2="23.32" y2="9.00" />
<line x1="23.51" y1="0.00" x2="23.51" y2="10.00" />
<line x1="23.70" y1="0.00" x2="23.70" y2="10.00" />
<line x1="23.89" y1="0.00" x2="23.89" y2="9.00" />
<line x1="24.08" y1="0.00" x2="24.08" y2="9.00" />
<line x1="24.27" y1="0.00" x2="24.27" y2="8.00" />
<line x1="24.46" y1="0.00" x2="24.46" y2="8.00" />
</g>
</svg>