<svg xmlns="http://www.w3.org/2000/svg" width="161.8" height="100.0" viewBox="-3.71 -5.00 171.80 110.00">
<g fill="none" stroke="black" stroke-width="0.0400%" transform="translate(0, 100.0000) scale(12.5000, -12.5000)">
<circle cx="0.10" cy="0.00" r="0.04" />
<circle cx="0.10" cy="0.00" r="0.04" />
<circle cx="0.21" cy="1.00" r="0.04" />
<circle cx="0.31" cy="1.00" r="0.04" />
<circle cx="0.41" cy="2.00" r="0.04" />
<circle cx="0.52" cy="2.00" r="0.04" />
<circle cx="0.62" cy="2.00" r="0.04" />
<circle cx="0.72" cy="3.00" r="0.04" />
<circle cx="0.83" cy="2.00" r="0.04" />
<circle cx="0.93" cy="3.00" r="0.04" />
<circle cx="1.04" cy="3.00" r="0.04" />
<circle cx="1.14" cy="3.00" r="0.04" />
<circle cx="1.24" cy="4.00" r="0.04" />
<circle cx="1.35" cy="3.00" r="0.04" />
<circle cx="1.45" cy="3.00" r="0.04" />
<circle cx="1.55" cy="4.00" r="0.04" />
<circle cx="1.66" cy="3.00" r="0.04" />
<circle cx="1.76" cy="4.00" r="0.04" />
<circle cx="1.86" cy="4.00" r="0.04" />
<circle cx="1.97" cy="4.00" r="0.04" />
<circle cx="2.07" cy="5.00" r="0.04" />
<circle cx="2.17" cy="3.00" r="0.04" />
<circle cx="2.28" cy="4.00" r="0.04" />
<circle cx="2.38" cy="4.00" r="0.04" />
<circle cx="2.49" cy="4.00" r="0.04" />
<circle cx="2.59" cy="5.00" r="0.04" />
<circle cx="2.69" cy="4.00" r="0.04" />
<circle cx="2.80" cy="4.00" r="0.04" />
<circle cx="2.90" cy="5.00" r="0.04" />
<circle cx="3.00" cy="4.00" r="0.04" />
<circle cx="3.11" cy="5.00" r="0.04" />
<circle cx="3.21" cy="5.00" r="0.04" />
<circle cx="3.31" cy="5.00" r="0.04" />
<circle cx="3.42" cy="6.00" r="0.04" />
<circle cx="3.52" cy="4.00" r="0.04" />
<circle cx="3.62" cy="4.00" r="0.04" />
<circle cx="3.73" cy="5.00" r="0.04" />
<circle cx="3.83" cy="4.00" r="0.04" />
<circle cx="3.94" cy="5.00" r="0.04" />
<circle cx="4.04" cy="5.00" r="0.04" />
<circle cx="4.14" cy="5.00" r="0.04" />
<circle cx="4.25" cy="6.00" r="0.04" />
<circle cx="4.35" cy="4.00" r="0.04" />
<circle cx="4.45" cy="5.00" r="0.04" />
<circle cx="4.56" cy="5.00" r="0.04" />
<circle cx="4.66" cy="5.00" r="0.04" />
<circle cx="4.76" cy="6.00" r="0.04" />
<circle cx="4.87" cy="5.00" r="0.04" />
<circle cx="4.97" cy="5.00" r="0.04" />
<circle cx="5.07" cy="6.00" r="0.04" />
<circle cx="5.18" cy="5.00" r="0.04" />
<circle cx="5.28" cy="6.00" r="0.04" />
<circle cx="5.38" cy="6.00" r="0.04" />
<circle cx="5.49" cy="6.00" r="0.04" />
<circle cx="5.59" cy="7.00" r="0.04" />
<circle cx="5.70" cy="4.00" r="0.04" />
<circle cx="5.80" cy="5.00" r="0.04" />
<circle cx="5.90" cy="5.00" r="0.04" />
<circle cx="6.01" cy="5.00" r="0.04" />
<circle cx="6.11" cy="6.00" r="0.04" />
<circle cx="6.21" cy="5.00" r="0.04" />
<circle cx="6.32" cy="5.00" r="0.04" />
<circle cx="6.42" cy="6.00" r="0.04" />
<circle cx="6.52" cy="5.00" r="0.04" />
<circle cx="6.63" cy="6.00" r="0.04" />
<circle cx="6.73" cy="6.00" r="0.04" />
<circle cx="6.83" cy="6.00" r="0.04" />
<circle cx="6.94" cy="7.00" r="0.04" />
<circle cx="7.04" cy="5.00" r="0.04" />
<circle cx="7.15" cy="5.00" r="0.04" />
<circle cx="7.25" cy="6.00" r="0.04" />
<circle cx="7.35" cy="5.00" r="0.04" />
<circle cx="7.46" cy="6.00" r="0.04" />
<circle cx="7.56" cy="6.00" r="0.04" />
<circle cx="7.66" cy="6.00" r="0.04" />
<circle cx="7.77" cy="7.00" r="0.04" />
<circle cx="7.87" cy="5.00" r="0.04" />
<circle cx="7.97" cy="6.00" r="0.04" />
<circle cx="8.08" cy="6.00" r="0.04" />
<circle cx="8.18" cy="6.00" r="0.04" />
<circle cx="8.28" cy="7.00" r="0.04" />
<circle cx="8.39" cy="6.00" r="0.04" />
<circle cx="8.49" cy="6.00" r="0.04" />
<circle cx="8.59" cy="7.00" r="0.04" />
<circle cx="8.70" cy="6.00" r="0.04" />
<circle cx="8.80" cy="7.00" r="0.04" />
<circle cx="8.91" cy="7.00" r="0.04" />
<circle cx="9.01" cy="7.00" r="0.04" />
<circle cx="9.11" cy="8.00" r="0.04" />
<circle cx="9.22" cy="5.00" r="0.04" />
<circle cx="9.32" cy="5.00" r="0.04" />
<circle cx="9.42" cy="6.00" r="0.04" />
<circle cx="9.53" cy="5.00" r="0.04" />
<circle cx="9.63" cy="6.00" r="0.04" />
<circle cx="9.73" cy="6.00" r="0.04" />
<circle cx="9.84" cy="6.00" r="0.04" />
<circle cx="9.94" cy="7.00" r="0.04" />
<circle cx="10.04" cy="5.00" r="0.04" />
<circle cx="10.15" cy="6.00" r="0.04" />
<circle cx="10.25" cy="6.00" r="0.04" />
<circle cx="10.36" cy="6.00" r="0.04" />
<circle cx="10.46" cy="7.00" r="0.04" />
<circle cx="10.56" cy="6.00" r="0.04" />
<circle cx="10.67" cy="6.00" r="0.04" />
<circle cx="10.77" cy="7.00" r="0.04" />
<circle cx="10.87" cy="6.00" r="0.04" />
<circle cx="10.98" cy="7.00" r="0.04" />
<circle cx="11.08" cy="7.00" r="0.04" />
<circle cx="11.18" cy="7.00" r="0.04" />
<circle cx="11.29" cy="8.00" r="0.04" />
<circle cx="11.39" cy="5.00" r="0.04" />
<circle cx="11.49" cy="6.00" r="0.04" />
<circle cx="11.60" cy="6.00" r="0.04" />
<circle cx="11.70" cy="6.00" r="0.04" />
<circle cx="11.81" cy="7.00" r="0.04" />
<circle cx="11.91" cy="6.00" r="0.04" />
<circle cx="12.01" cy="6.00" r="0.04" />
<circle cx="12.12" cy="7.00" r="0.04" />
<circle cx="12.22" cy="6.00" r="0.04" />
<circle cx="12.32" cy="7.00" r="0.04" />
<circle cx="12.43" cy="7.00" r="0.04" />
<circle cx="12.53" cy="7.00" r="0.04" />
<circle cx="12.63" cy="8.00" r="0.04" />
<circle cx="12.74" cy="6.00" r="0.04" />
<circle cx="12.84" cy="6.00" r="0.04" />
<circle cx="12.94" cy="7.00" r="0.04" />
<circle cx="13.05" cy="6.00" r="0.04" />
</g>
</svg>