<svg xmlns="http://www.w3.org/2000/svg" width="161.8" height="100.0" viewBox="-2.5 -5.0 171.8 110.0">
<g fill="none" stroke="black" stroke-width="0.6250%" transform="translate(0, 100.0000) scale(0.8000, -0.8000)">

<line x1="6.3" y1="0.0" x2="6.3" y2="3.0" />
<line x1="9.5" y1="0.0" x2="9.5" y2="4.0" />
<line x1="12.6" y1="0.0" x2="12.6" y2="5.0" />
<line x1="15.8" y1="0.0" x2="15.8" y2="7.0" />
<line x1="19.0" y1="0.0" x2="19.0" y2="11.0" />
<line x1="22.1" y1="0.0" x2="22.1" y2="14.0" />
<line x1="25.3" y1="0.0" x2="25.3" y2="16.0" />
<line x1="28.4" y1="0.0" x2="28.4" y2="17.0" />
<line x1="31.6" y1="0.0" x2="31.6" y2="18.0" />
<line x1="34.8" y1="0.0" x2="34.8" y2="21.0" />
<line x1="37.9" y1="0.0" x2="37.9" y2="22.0" />
<line x1="41.1" y1="0.0" x2="41.1" y2="23.0" />
<line x1="44.2" y1="0.0" x2="44.2" y2="25.0" />
<line x1="47.4" y1="0.0" x2="47.4" y2="26.0" />
<line x1="50.6" y1="0.0" x2="50.6" y2="28.0" />
<line x1="53.7" y1="0.0" x2="53.7" y2="32.0" />
<line x1="56.9" y1="0.0" x2="56.9" y2="33.0" />
<line x1="60.0" y1="0.0" x2="60.0" y2="34.0" />
<line x1="63.2" y1="0.0" x2="63.2" y2="36.0" />
<line x1="66.4" y1="0.0" x2="66.4" y2="40.0" />
<line x1="69.5" y1="0.0" x2="69.5" y2="41.0" />
<line x1="72.7" y1="0.0" x2="72.7" y2="45.0" />
<line x1="75.8" y1="0.0" x2="75.8" y2="48.0" />
<line x1="79.0" y1="0.0" x2="79.0" y2="50.0" />
<line x1="82.2" y1="0.0" x2="82.2" y2="51.0" />
<line x1="85.3" y1="0.0" x2="85.3" y2="52.0" />
<line x1="88.5" y1="0.0" x2="88.5" y2="54.0" />
<line x1="91.6" y1="0.0" x2="91.6" y2="58.0" />
<line x1="94.8" y1="0.0" x2="94.8" y2="61.0" />
<line x1="98.0" y1="0.0" x2="98.0" y2="63.0" />
<line x1="101.1" y1="0.0" x2="101.1" y2="64.0" />
<line x1="104.3" y1="0.0" x2="104.3" y2="65.0" />
<line x1="107.4" y1="0.0" x2="107.4" y2="69.0" />
<line x1="110.6" y1="0.0" x2="110.6" y2="71.0" />
<line x1="113.8" y1="0.0" x2="113.8" y2="72.0" />
<line x1="116.9" y1="0.0" x2="116.9" y2="73.0" />
<line x1="120.1" y1="0.0" x2="120.1" y2="76.0" />
<line x1="123.2" y1="0.0" x2="123.2" y2="77.0" />
<line x1="126.4" y1="0.0" x2="126.4" y2="78.0" />
<line x1="129.6" y1="0.0" x2="129.6" y2="80.0" />
<line x1="132.7" y1="0.0" x2="132.7" y2="81.0" />
<line x1="135.9" y1="0.0" x2="135.9" y2="83.0" />
<line x1="139.0" y1="0.0" x2="139.0" y2="87.0" />
<line x1="142.2" y1="0.0" x2="142.2" y2="90.0" />
<line x1="145.4" y1="0.0" x2="145.4" y2="92.0" />
<line x1="148.5" y1="0.0" x2="148.5" y2="93.0" />
<line x1="151.7" y1="0.0" x2="151.7" y2="94.0" />
<line x1="154.9" y1="0.0" x2="154.9" y2="97.0" />
<line x1="158.0" y1="0.0" x2="158.0" y2="98.0" />
<line x1="161.2" y1="0.0" x2="161.2" y2="99.0" />
<line x1="164.3" y1="0.0" x2="164.3" y2="101.0" />
<line x1="167.5" y1="0.0" x2="167.5" y2="102.0" />
<line x1="170.7" y1="0.0" x2="170.7" y2="104.0" />
<line x1="173.8" y1="0.0" x2="173.8" y2="108.0" />
<line x1="177.0" y1="0.0" x2="177.0" y2="110.0" />
<line x1="180.1" y1="0.0" x2="180.1" y2="111.0" />
<line x1="183.3" y1="0.0" x2="183.3" y2="112.0" />
<line x1="186.5" y1="0.0" x2="186.5" y2="114.0" />
<line x1="189.6" y1="0.0" x2="189.6" y2="115.0" />
<line x1="192.8" y1="0.0" x2="192.8" y2="117.0" />
<line x1="195.9" y1="0.0" x2="195.9" y2="121.0" />
<line x1="199.1" y1="0.0" x2="199.1" y2="122.0" />
<line x1="202.3" y1="0.0" x2="202.3" y2="123.0" />
<line x1="205.4" y1="0.0" x2="205.4" y2="125.0" />
</g>
</svg>