<svg xmlns="http://www.w3.org/2000/svg" width="161.8" height="100.0" viewBox="1.74 -5.00 171.80 110.00">
<g fill="none" stroke="black" stroke-width="0.0250%" transform="translate(0, 100.0000) scale(20.0000, -20.0000)">
<circle cx="0.34" cy="0.00" r="0.03" />
<polyline points="0.34,0.00 0.67,1.00 1.01,0.00 1.35,1.00 1.69,2.00 2.02,3.00 2.36,4.00 2.70,3.00 3.03,4.00 3.37,3.00 3.71,2.00 4.05,3.00 4.38,2.00 4.72,3.00 5.06,4.00 5.39,3.00 5.73,4.00 6.07,3.00 6.40,4.00 6.74,5.00 7.08,4.00 7.42,3.00 7.75,2.00 8.09,1.00 8.43,0.00" />
<circle cx="0.34" cy="0.00" r="0.03" />
<circle cx="0.67" cy="1.00" r="0.03" />
<circle cx="1.01" cy="0.00" r="0.03" />
<circle cx="1.35" cy="1.00" r="0.03" />
<circle cx="1.69" cy="2.00" r="0.03" />
<circle cx="2.02" cy="3.00" r="0.03" />
<circle cx="2.36" cy="4.00" r="0.03" />
<circle cx="2.70" cy="3.00" r="0.03" />
<circle cx="3.03" cy="4.00" r="0.03" />
<circle cx="3.37" cy="3.00" r="0.03" />
<circle cx="3.71" cy="2.00" r="0.03" />
<circle cx="4.05" cy="3.00" r="0.03" />
<circle cx="4.38" cy="2.00" r="0.03" />
<circle cx="4.72" cy="3.00" r="0.03" />
<circle cx="5.06" cy="4.00" r="0.03" />
<circle cx="5.39" cy="3.00" r="0.03" />
<circle cx="5.73" cy="4.00" r="0.03" />
<circle cx="6.07" cy="3.00" r="0.03" />
<circle cx="6.40" cy="4.00" r="0.03" />
<circle cx="6.74" cy="5.00" r="0.03" />
<circle cx="7.08" cy="4.00" r="0.03" />
<circle cx="7.42" cy="3.00" r="0.03" />
<circle cx="7.75" cy="2.00" r="0.03" />
<circle cx="8.09" cy="1.00" r="0.03" />
<circle cx="8.43" cy="0.00" r="0.03" />
</g>
</svg>