<?xml version="1.0" encoding="UTF-8" standalone="no"?>
<!DOCTYPE svg PUBLIC "-//W3C//DTD SVG 1.1//EN"
 "http://www.w3.org/Graphics/SVG/1.1/DTD/svg11.dtd">
<!-- Generated by graphviz version 12.0.0 (0)
 -->
<!-- Pages: 1 -->
<svg width="18pt" height="54pt"
 viewBox="0.00 0.00 17.66 54.00" xmlns="http://www.w3.org/2000/svg" xmlns:xlink="http://www.w3.org/1999/xlink">
<g id="graph0" class="graph" transform="scale(0.317647 0.317647) rotate(0) translate(4 166)">
<!-- 1 -->
<g id="node1" class="node">
<title>1</title>
<ellipse fill="black" stroke="black" cx="34.8" cy="-160.2" rx="1.8" ry="1.8"/>
</g>
<!-- 2 -->
<g id="node2" class="node">
<title>2</title>
<ellipse fill="black" stroke="black" cx="34.8" cy="-120.6" rx="1.8" ry="1.8"/>
</g>
<!-- 1&#45;&gt;2 -->
<g id="edge1" class="edge">
<title>1&#45;&gt;2</title>
<path fill="none" stroke="black" stroke-width="0.75" d="M34.8,-157.95C34.8,-153.49 34.8,-138.14 34.8,-128.87"/>
<polygon fill="black" stroke="black" stroke-width="0.75" points="36.55,-129.03 34.8,-124.03 33.05,-129.03 36.55,-129.03"/>
</g>
<!-- 3 -->
<g id="node3" class="node">
<title>3</title>
<ellipse fill="black" stroke="black" cx="23.8" cy="-81" rx="1.8" ry="1.8"/>
</g>
<!-- 2&#45;&gt;3 -->
<g id="edge2" class="edge">
<title>2&#45;&gt;3</title>
<path fill="none" stroke="black" stroke-width="0.75" d="M34.43,-118.35C33.1,-113.78 28.41,-97.76 25.73,-88.58"/>
<polygon fill="black" stroke="black" stroke-width="0.75" points="27.42,-88.14 24.34,-83.83 24.06,-89.12 27.42,-88.14"/>
</g>
<!-- 7 -->
<g id="node7" class="node">
<title>7</title>
<ellipse fill="black" stroke="black" cx="45.8" cy="-81" rx="1.8" ry="1.8"/>
</g>
<!-- 2&#45;&gt;7 -->
<g id="edge3" class="edge">
<title>2&#45;&gt;7</title>
<path fill="none" stroke="black" stroke-width="0.75" d="M35.17,-118.35C36.5,-113.78 41.19,-97.76 43.87,-88.58"/>
<polygon fill="black" stroke="black" stroke-width="0.75" points="45.54,-89.12 45.26,-83.83 42.18,-88.14 45.54,-89.12"/>
</g>
<!-- 4 -->
<g id="node4" class="node">
<title>4</title>
<ellipse fill="black" stroke="black" cx="1.8" cy="-41.4" rx="1.8" ry="1.8"/>
</g>
<!-- 3&#45;&gt;4 -->
<g id="edge4" class="edge">
<title>3&#45;&gt;4</title>
<path fill="none" stroke="black" stroke-width="0.75" d="M23.26,-79.07C20.81,-74.89 10.71,-57.62 5.28,-48.35"/>
<polygon fill="black" stroke="black" stroke-width="0.75" points="6.86,-47.58 2.82,-44.15 3.84,-49.35 6.86,-47.58"/>
</g>
<!-- 6 -->
<g id="node6" class="node">
<title>6</title>
<ellipse fill="black" stroke="black" cx="23.8" cy="-41.4" rx="1.8" ry="1.8"/>
</g>
<!-- 3&#45;&gt;6 -->
<g id="edge5" class="edge">
<title>3&#45;&gt;6</title>
<path fill="none" stroke="black" stroke-width="0.75" d="M23.8,-78.75C23.8,-74.29 23.8,-58.94 23.8,-49.67"/>
<polygon fill="black" stroke="black" stroke-width="0.75" points="25.55,-49.83 23.8,-44.83 22.05,-49.83 25.55,-49.83"/>
</g>
<!-- 5 -->
<g id="node5" class="node">
<title>5</title>
<ellipse fill="black" stroke="black" cx="1.8" cy="-1.8" rx="1.8" ry="1.8"/>
</g>
<!-- 4&#45;&gt;5 -->
<g id="edge6" class="edge">
<title>4&#45;&gt;5</title>
<path fill="none" stroke="black" stroke-width="0.75" d="M1.8,-39.15C1.8,-34.69 1.8,-19.34 1.8,-10.07"/>
<polygon fill="black" stroke="black" stroke-width="0.75" points="3.55,-10.23 1.8,-5.23 0.05,-10.23 3.55,-10.23"/>
</g>
<!-- 8 -->
<g id="node8" class="node">
<title>8</title>
<ellipse fill="black" stroke="black" cx="45.8" cy="-41.4" rx="1.8" ry="1.8"/>
</g>
<!-- 7&#45;&gt;8 -->
<g id="edge7" class="edge">
<title>7&#45;&gt;8</title>
<path fill="none" stroke="black" stroke-width="0.75" d="M45.8,-78.75C45.8,-74.29 45.8,-58.94 45.8,-49.67"/>
<polygon fill="black" stroke="black" stroke-width="0.75" points="47.55,-49.83 45.8,-44.83 44.05,-49.83 47.55,-49.83"/>
</g>
</g>
</svg>
