<svg xmlns="http://www.w3.org/2000/svg" width="161.8" height="100.0" viewBox="-112.87 -31.89 171.80 110.00">
<g fill="none" stroke="black" stroke-width="0.0186%" transform="translate(0, 46.2117) scale(26.8941, -26.8941)">
<polyline points="-4.01,-1.00 -3.95,-0.97 -3.89,-0.94 -3.83,-0.91 -3.77,-0.88 -3.71,-0.85 -3.65,-0.82 -3.59,-0.79 -3.53,-0.76 -3.47,-0.73 -3.41,-0.70 -3.35,-0.67 -3.29,-0.64 -3.23,-0.61 -3.17,-0.58 -3.11,-0.55 -3.05,-0.52 -2.99,-0.49 -2.93,-0.46 -2.87,-0.43 -2.81,-0.40 -2.75,-0.37 -2.69,-0.34 -2.63,-0.31 -2.57,-0.28 -2.51,-0.25 -2.45,-0.22 -2.39,-0.19 -2.33,-0.16 -2.27,-0.13 -2.21,-0.10 -2.15,-0.07 -2.09,-0.04 -2.03,-0.01 -1.97,0.02 -1.91,0.05 -1.85,0.08 -1.78,0.11 -1.72,0.14 -1.66,0.17 -1.60,0.20 -1.54,0.23 -1.48,0.26 -1.42,0.29 -1.36,0.32 -1.30,0.35 -1.24,0.38 -1.18,0.41 -1.12,0.44 -1.06,0.47 -1.00,0.50 -0.94,0.53 -0.88,0.56 -0.82,0.59 -0.76,0.62 -0.70,0.65 -0.64,0.68 -0.58,0.71 -0.52,0.74 -0.46,0.77 -0.40,0.80 -0.34,0.83 -0.28,0.86 -0.22,0.89 -0.16,0.92 -0.10,0.95 -0.04,0.98 0.02,1.01 0.08,1.04 0.14,1.07 0.20,1.10 0.26,1.13 0.32,1.16 0.38,1.19 0.44,1.22 0.50,1.25 0.56,1.28 0.62,1.31 0.68,1.34 0.74,1.37 0.80,1.40 0.86,1.43 0.92,1.46 0.98,1.49 1.04,1.52 1.10,1.55 1.16,1.58 1.22,1.61 1.28,1.64 1.34,1.67 1.40,1.70 1.46,1.73 1.52,1.76 1.58,1.79 1.64,1.82 1.70,1.85 1.76,1.88 1.82,1.91 1.89,1.94 1.95,1.97 2.01,2.00" />
<polyline points="-4.01,0.14 -3.95,0.14 -3.89,0.14 -3.83,0.15 -3.77,0.15 -3.71,0.16 -3.65,0.16 -3.59,0.17 -3.53,0.17 -3.47,0.18 -3.41,0.18 -3.35,0.19 -3.29,0.19 -3.23,0.20 -3.17,0.21 -3.11,0.21 -3.05,0.22 -2.99,0.23 -2.93,0.23 -2.87,0.24 -2.81,0.25 -2.75,0.25 -2.69,0.26 -2.63,0.27 -2.57,0.28 -2.51,0.29 -2.45,0.30 -2.39,0.30 -2.33,0.31 -2.27,0.32 -2.21,0.33 -2.15,0.34 -2.09,0.35 -2.03,0.36 -1.97,0.38 -1.91,0.39 -1.85,0.40 -1.78,0.41 -1.72,0.42 -1.66,0.44 -1.60,0.45 -1.54,0.46 -1.48,0.48 -1.42,0.49 -1.36,0.51 -1.30,0.52 -1.24,0.54 -1.18,0.55 -1.12,0.57 -1.06,0.59 -1.00,0.61 -0.94,0.63 -0.88,0.64 -0.82,0.66 -0.76,0.68 -0.70,0.70 -0.64,0.73 -0.58,0.75 -0.52,0.77 -0.46,0.79 -0.40,0.82 -0.34,0.84 -0.28,0.87 -0.22,0.90 -0.16,0.92 -0.10,0.95 -0.04,0.98 0.02,1.01 0.08,1.04 0.14,1.07 0.20,1.11 0.26,1.14 0.32,1.17 0.38,1.21 0.44,1.25 0.50,1.28 0.56,1.32 0.62,1.36 0.68,1.40 0.74,1.45 0.80,1.49 0.86,1.54 0.92,1.58 0.98,1.63 1.04,1.68 1.10,1.73 1.16,1.79 1.22,1.84 1.28,1.90 1.34,1.95 1.40,2.01 1.46,2.08 1.52,2.14 1.58,2.20 1.64,2.27 1.70,2.34 1.76,2.41 1.82,2.48 1.89,2.56 1.95,2.64 2.01,2.72" />
</g>
</svg>