<svg xmlns="http://www.w3.org/2000/svg" width="161.8" height="100.0" viewBox="-5.000 -9.765 171.803 110.000">
<g fill="none" stroke="black" stroke-width="0.0055%" transform="translate(0, 90.4693) scale(90.4693, -90.4693)">
<polyline points="0.000,0.000 0.018,0.001 0.036,0.001 0.054,0.001 0.072,0.001 0.089,0.001 0.107,0.001 0.125,0.001 0.143,0.001 0.161,0.002 0.179,0.002 0.197,0.002 0.215,0.002 0.233,0.002 0.250,0.002 0.268,0.002 0.286,0.002 0.304,0.002 0.322,0.001 0.340,0.001 0.358,0.001 0.376,0.001 0.393,0.001 0.411,0.001 0.429,0.000 0.447,-0.000 0.465,-0.000 0.483,-0.001 0.501,-0.001 0.519,-0.002 0.537,-0.002 0.554,-0.003 0.572,-0.004 0.590,-0.005 0.608,-0.006 0.626,-0.006 0.644,-0.008 0.662,-0.009 0.680,-0.010 0.698,-0.011 0.715,-0.013 0.733,-0.014 0.751,-0.016 0.769,-0.017 0.787,-0.019 0.805,-0.021 0.823,-0.023 0.841,-0.025 0.858,-0.027 0.876,-0.029 0.894,-0.031 0.912,-0.033 0.930,-0.036 0.948,-0.038 0.966,-0.040 0.984,-0.042 1.002,-0.044 1.019,-0.046 1.037,-0.048 1.055,-0.049 1.073,-0.051 1.091,-0.052 1.109,-0.052 1.127,-0.053 1.145,-0.053 1.163,-0.052 1.180,-0.051 1.198,-0.049 1.216,-0.046 1.234,-0.043 1.252,-0.039 1.270,-0.033 1.288,-0.027 1.306,-0.019 1.323,-0.010 1.341,0.000 1.359,0.012 1.377,0.025 1.395,0.041 1.413,0.058 1.431,0.077 1.449,0.099 1.467,0.122 1.484,0.148 1.502,0.177 1.520,0.208 1.538,0.242 1.556,0.278 1.574,0.317 1.592,0.359 1.610,0.405 1.628,0.452 1.645,0.503 1.663,0.557 1.681,0.613 1.699,0.672 1.717,0.734 1.735,0.798 1.753,0.864 1.771,0.931 1.788,1.000" />
<polyline points="0.000,0.000 0.018,0.069 0.036,0.136 0.054,0.202 0.072,0.266 0.089,0.328 0.107,0.387 0.125,0.443 0.143,0.497 0.161,0.548 0.179,0.595 0.197,0.641 0.215,0.683 0.233,0.722 0.250,0.758 0.268,0.792 0.286,0.823 0.304,0.852 0.322,0.878 0.340,0.901 0.358,0.923 0.376,0.942 0.393,0.959 0.411,0.975 0.429,0.988 0.447,1.000 0.465,1.010 0.483,1.019 0.501,1.027 0.519,1.033 0.537,1.039 0.554,1.043 0.572,1.046 0.590,1.049 0.608,1.051 0.626,1.052 0.644,1.053 0.662,1.053 0.680,1.052 0.698,1.052 0.715,1.051 0.733,1.049 0.751,1.048 0.769,1.046 0.787,1.044 0.805,1.042 0.823,1.040 0.841,1.038 0.858,1.036 0.876,1.033 0.894,1.031 0.912,1.029 0.930,1.027 0.948,1.025 0.966,1.023 0.984,1.021 1.002,1.019 1.019,1.017 1.037,1.016 1.055,1.014 1.073,1.013 1.091,1.011 1.109,1.010 1.127,1.009 1.145,1.008 1.163,1.006 1.180,1.006 1.198,1.005 1.216,1.004 1.234,1.003 1.252,1.002 1.270,1.002 1.288,1.001 1.306,1.001 1.323,1.000 1.341,1.000 1.359,1.000 1.377,0.999 1.395,0.999 1.413,0.999 1.431,0.999 1.449,0.999 1.467,0.999 1.484,0.998 1.502,0.998 1.520,0.998 1.538,0.998 1.556,0.998 1.574,0.998 1.592,0.998 1.610,0.998 1.628,0.998 1.645,0.999 1.663,0.999 1.681,0.999 1.699,0.999 1.717,0.999 1.735,0.999 1.753,0.999 1.771,0.999 1.788,1.000" />
<polyline points="0.000,0.000 0.018,0.001 0.036,0.001 0.054,0.001 0.072,0.001 0.089,0.001 0.107,0.001 0.125,0.001 0.143,0.001 0.161,0.001 0.179,0.001 0.197,0.000 0.215,0.000 0.233,-0.000 0.250,-0.001 0.268,-0.001 0.286,-0.002 0.304,-0.003 0.322,-0.004 0.340,-0.005 0.358,-0.006 0.376,-0.008 0.393,-0.010 0.411,-0.011 0.429,-0.013 0.447,-0.016 0.465,-0.018 0.483,-0.020 0.501,-0.022 0.519,-0.024 0.537,-0.025 0.554,-0.026 0.572,-0.026 0.590,-0.025 0.608,-0.023 0.626,-0.019 0.644,-0.013 0.662,-0.005 0.680,0.006 0.698,0.020 0.715,0.039 0.733,0.061 0.751,0.088 0.769,0.121 0.787,0.159 0.805,0.202 0.823,0.252 0.841,0.307 0.858,0.367 0.876,0.432 0.894,0.500 0.912,0.568 0.930,0.633 0.948,0.693 0.966,0.748 0.984,0.798 1.002,0.841 1.019,0.879 1.037,0.912 1.055,0.939 1.073,0.961 1.091,0.980 1.109,0.994 1.127,1.005 1.145,1.013 1.163,1.019 1.180,1.023 1.198,1.025 1.216,1.026 1.234,1.026 1.252,1.025 1.270,1.024 1.288,1.022 1.306,1.020 1.323,1.018 1.341,1.016 1.359,1.013 1.377,1.011 1.395,1.010 1.413,1.008 1.431,1.006 1.449,1.005 1.467,1.004 1.484,1.003 1.502,1.002 1.520,1.001 1.538,1.001 1.556,1.000 1.574,1.000 1.592,1.000 1.610,0.999 1.628,0.999 1.645,0.999 1.663,0.999 1.681,0.999 1.699,0.999 1.717,0.999 1.735,0.999 1.753,0.999 1.771,0.999 1.788,1.000" />
<polyline points="0.000,0.000 0.018,0.163 0.036,0.296 0.054,0.404 0.072,0.488 0.089,0.552 0.107,0.599 0.125,0.632 0.143,0.653 0.161,0.664 0.179,0.667 0.197,0.665 0.215,0.658 0.233,0.648 0.250,0.636 0.268,0.622 0.286,0.608 0.304,0.595 0.322,0.581 0.340,0.569 0.358,0.557 0.376,0.547 0.393,0.537 0.411,0.529 0.429,0.522 0.447,0.516 0.465,0.511 0.483,0.506 0.501,0.503 0.519,0.500 0.537,0.498 0.554,0.497 0.572,0.496 0.590,0.495 0.608,0.495 0.626,0.495 0.644,0.495 0.662,0.495 0.680,0.495 0.698,0.496 0.715,0.496 0.733,0.497 0.751,0.497 0.769,0.497 0.787,0.498 0.805,0.498 0.823,0.499 0.841,0.499 0.858,0.499 0.876,0.499 0.894,0.500 0.912,0.500 0.930,0.500 0.948,0.500 0.966,0.500 0.984,0.500 1.002,0.499 1.019,0.499 1.037,0.499 1.055,0.498 1.073,0.497 1.091,0.497 1.109,0.496 1.127,0.495 1.145,0.494 1.163,0.492 1.180,0.491 1.198,0.490 1.216,0.488 1.234,0.487 1.252,0.486 1.270,0.485 1.288,0.484 1.306,0.483 1.323,0.484 1.341,0.484 1.359,0.486 1.377,0.489 1.395,0.493 1.413,0.499 1.431,0.507 1.449,0.516 1.467,0.529 1.484,0.544 1.502,0.562 1.520,0.584 1.538,0.609 1.556,0.637 1.574,0.670 1.592,0.706 1.610,0.745 1.628,0.786 1.645,0.830 1.663,0.874 1.681,0.917 1.699,0.957 1.717,0.991 1.735,1.017 1.753,1.030 1.771,1.026 1.788,1.000" />
</g>
</svg>