<svg xmlns="http://www.w3.org/2000/svg" width="100.0" height="100.0" viewBox="-5.000 -5.000 110.000 110.000">
<g fill="none" stroke="black" stroke-width="0.0050%" transform="translate(0, 100.0000) scale(100.0000, -100.0000)">
<polyline points="0.000,0.000 0.010,0.000 0.020,0.000 0.030,0.000 0.040,0.000 0.050,0.000 0.060,0.000 0.070,0.000 0.080,0.000 0.090,0.000 0.100,0.000 0.110,0.000 0.120,0.000 0.130,0.000 0.140,0.000 0.150,0.000 0.160,0.000 0.170,0.000 0.180,0.000 0.190,0.000 0.200,0.000 0.210,0.000 0.220,0.001 0.230,0.001 0.240,0.001 0.250,0.001 0.260,0.001 0.270,0.001 0.280,0.002 0.290,0.002 0.300,0.002 0.310,0.003 0.320,0.003 0.330,0.004 0.340,0.005 0.350,0.005 0.360,0.006 0.370,0.007 0.380,0.008 0.390,0.009 0.400,0.010 0.410,0.012 0.420,0.013 0.430,0.015 0.440,0.016 0.450,0.018 0.460,0.021 0.470,0.023 0.480,0.025 0.490,0.028 0.500,0.031 0.510,0.035 0.520,0.038 0.530,0.042 0.540,0.046 0.550,0.050 0.560,0.055 0.570,0.060 0.580,0.066 0.590,0.071 0.600,0.078 0.610,0.084 0.620,0.092 0.630,0.099 0.640,0.107 0.650,0.116 0.660,0.125 0.670,0.135 0.680,0.145 0.690,0.156 0.700,0.168 0.710,0.180 0.720,0.193 0.730,0.207 0.740,0.222 0.750,0.237 0.760,0.254 0.770,0.271 0.780,0.289 0.790,0.308 0.800,0.328 0.810,0.349 0.820,0.371 0.830,0.394 0.840,0.418 0.850,0.444 0.860,0.470 0.870,0.498 0.880,0.528 0.890,0.558 0.900,0.590 0.910,0.624 0.920,0.659 0.930,0.696 0.940,0.734 0.950,0.774 0.960,0.815 0.970,0.859 0.980,0.904 0.990,0.951 1.000,1.000" />
<polyline points="0.000,0.000 0.010,0.049 0.020,0.096 0.030,0.141 0.040,0.185 0.050,0.226 0.060,0.266 0.070,0.304 0.080,0.341 0.090,0.376 0.100,0.410 0.110,0.442 0.120,0.472 0.130,0.502 0.140,0.530 0.150,0.556 0.160,0.582 0.170,0.606 0.180,0.629 0.190,0.651 0.200,0.672 0.210,0.692 0.220,0.711 0.230,0.729 0.240,0.746 0.250,0.763 0.260,0.778 0.270,0.793 0.280,0.807 0.290,0.820 0.300,0.832 0.310,0.844 0.320,0.855 0.330,0.865 0.340,0.875 0.350,0.884 0.360,0.893 0.370,0.901 0.380,0.908 0.390,0.916 0.400,0.922 0.410,0.929 0.420,0.934 0.430,0.940 0.440,0.945 0.450,0.950 0.460,0.954 0.470,0.958 0.480,0.962 0.490,0.965 0.500,0.969 0.510,0.972 0.520,0.975 0.530,0.977 0.540,0.979 0.550,0.982 0.560,0.984 0.570,0.985 0.580,0.987 0.590,0.988 0.600,0.990 0.610,0.991 0.620,0.992 0.630,0.993 0.640,0.994 0.650,0.995 0.660,0.995 0.670,0.996 0.680,0.997 0.690,0.997 0.700,0.998 0.710,0.998 0.720,0.998 0.730,0.999 0.740,0.999 0.750,0.999 0.760,0.999 0.770,0.999 0.780,0.999 0.790,1.000 0.800,1.000 0.810,1.000 0.820,1.000 0.830,1.000 0.840,1.000 0.850,1.000 0.860,1.000 0.870,1.000 0.880,1.000 0.890,1.000 0.900,1.000 0.910,1.000 0.920,1.000 0.930,1.000 0.940,1.000 0.950,1.000 0.960,1.000 0.970,1.000 0.980,1.000 0.990,1.000 1.000,1.000" />
<polyline points="0.000,0.000 0.010,0.000 0.020,0.000 0.030,0.000 0.040,0.000 0.050,0.000 0.060,0.000 0.070,0.000 0.080,0.000 0.090,0.000 0.100,0.000 0.110,0.000 0.120,0.000 0.130,0.001 0.140,0.001 0.150,0.001 0.160,0.002 0.170,0.002 0.180,0.003 0.190,0.004 0.200,0.005 0.210,0.007 0.220,0.008 0.230,0.010 0.240,0.013 0.250,0.016 0.260,0.019 0.270,0.023 0.280,0.028 0.290,0.033 0.300,0.039 0.310,0.046 0.320,0.054 0.330,0.063 0.340,0.073 0.350,0.084 0.360,0.097 0.370,0.111 0.380,0.127 0.390,0.144 0.400,0.164 0.410,0.185 0.420,0.209 0.430,0.235 0.440,0.264 0.450,0.295 0.460,0.330 0.470,0.367 0.480,0.408 0.490,0.452 0.500,0.500 0.510,0.548 0.520,0.592 0.530,0.633 0.540,0.670 0.550,0.705 0.560,0.736 0.570,0.765 0.580,0.791 0.590,0.815 0.600,0.836 0.610,0.856 0.620,0.873 0.630,0.889 0.640,0.903 0.650,0.916 0.660,0.927 0.670,0.937 0.680,0.946 0.690,0.954 0.700,0.961 0.710,0.967 0.720,0.972 0.730,0.977 0.740,0.981 0.750,0.984 0.760,0.987 0.770,0.990 0.780,0.992 0.790,0.993 0.800,0.995 0.810,0.996 0.820,0.997 0.830,0.998 0.840,0.998 0.850,0.999 0.860,0.999 0.870,0.999 0.880,1.000 0.890,1.000 0.900,1.000 0.910,1.000 0.920,1.000 0.930,1.000 0.940,1.000 0.950,1.000 0.960,1.000 0.970,1.000 0.980,1.000 0.990,1.000 1.000,1.000" />
<polyline points="0.000,0.000 0.010,0.048 0.020,0.092 0.030,0.133 0.040,0.170 0.050,0.205 0.060,0.236 0.070,0.265 0.080,0.291 0.090,0.315 0.100,0.336 0.110,0.356 0.120,0.373 0.130,0.389 0.140,0.403 0.150,0.416 0.160,0.427 0.170,0.437 0.180,0.446 0.190,0.454 0.200,0.461 0.210,0.467 0.220,0.472 0.230,0.477 0.240,0.481 0.250,0.484 0.260,0.487 0.270,0.490 0.280,0.492 0.290,0.493 0.300,0.495 0.310,0.496 0.320,0.497 0.330,0.498 0.340,0.498 0.350,0.499 0.360,0.499 0.370,0.499 0.380,0.500 0.390,0.500 0.400,0.500 0.410,0.500 0.420,0.500 0.430,0.500 0.440,0.500 0.450,0.500 0.460,0.500 0.470,0.500 0.480,0.500 0.490,0.500 0.500,0.500 0.510,0.500 0.520,0.500 0.530,0.500 0.540,0.500 0.550,0.500 0.560,0.500 0.570,0.500 0.580,0.500 0.590,0.500 0.600,0.500 0.610,0.500 0.620,0.500 0.630,0.501 0.640,0.501 0.650,0.501 0.660,0.502 0.670,0.502 0.680,0.503 0.690,0.504 0.700,0.505 0.710,0.507 0.720,0.508 0.730,0.510 0.740,0.513 0.750,0.516 0.760,0.519 0.770,0.523 0.780,0.528 0.790,0.533 0.800,0.539 0.810,0.546 0.820,0.554 0.830,0.563 0.840,0.573 0.850,0.584 0.860,0.597 0.870,0.611 0.880,0.627 0.890,0.644 0.900,0.664 0.910,0.685 0.920,0.709 0.930,0.735 0.940,0.764 0.950,0.795 0.960,0.830 0.970,0.867 0.980,0.908 0.990,0.952 1.000,1.000" />
</g>
</svg>