<svg xmlns="http://www.w3.org/2000/svg" width="161.8" height="100.0" viewBox="-3.1 -3.4 171.8 110.0">
<g fill="none" stroke="black" stroke-width="0.6350%" transform="translate(0, 103.1496) scale(0.7874, -0.7874)">
<circle cx="2.4" cy="3.0" r="0.6" />
<circle cx="4.9" cy="6.0" r="0.6" />
<circle cx="7.3" cy="2.0" r="0.6" />
<circle cx="9.8" cy="4.0" r="0.6" />
<circle cx="12.2" cy="8.0" r="0.6" />
<circle cx="14.7" cy="10.0" r="0.6" />
<circle cx="17.1" cy="5.0" r="0.6" />
<circle cx="19.6" cy="15.0" r="0.6" />
<circle cx="22.0" cy="9.0" r="0.6" />
<circle cx="24.5" cy="12.0" r="0.6" />
<circle cx="26.9" cy="14.0" r="0.6" />
<circle cx="29.4" cy="7.0" r="0.6" />
<circle cx="31.8" cy="21.0" r="0.6" />
<circle cx="34.2" cy="18.0" r="0.6" />
<circle cx="36.7" cy="16.0" r="0.6" />
<circle cx="39.1" cy="20.0" r="0.6" />
<circle cx="41.6" cy="22.0" r="0.6" />
<circle cx="44.0" cy="11.0" r="0.6" />
<circle cx="46.5" cy="33.0" r="0.6" />
<circle cx="48.9" cy="24.0" r="0.6" />
<circle cx="51.4" cy="26.0" r="0.6" />
<circle cx="53.8" cy="13.0" r="0.6" />
<circle cx="56.3" cy="39.0" r="0.6" />
<circle cx="58.7" cy="27.0" r="0.6" />
<circle cx="61.2" cy="30.0" r="0.6" />
<circle cx="63.6" cy="25.0" r="0.6" />
<circle cx="66.1" cy="35.0" r="0.6" />
<circle cx="68.5" cy="28.0" r="0.6" />
<circle cx="70.9" cy="32.0" r="0.6" />
<circle cx="73.4" cy="34.0" r="0.6" />
<circle cx="75.8" cy="17.0" r="0.6" />
<circle cx="78.3" cy="51.0" r="0.6" />
<circle cx="80.7" cy="36.0" r="0.6" />
<circle cx="83.2" cy="38.0" r="0.6" />
<circle cx="85.6" cy="19.0" r="0.6" />
<circle cx="88.1" cy="57.0" r="0.6" />
<circle cx="90.5" cy="42.0" r="0.6" />
<circle cx="93.0" cy="40.0" r="0.6" />
<circle cx="95.4" cy="44.0" r="0.6" />
<circle cx="97.9" cy="46.0" r="0.6" />
<circle cx="100.3" cy="23.0" r="0.6" />
<circle cx="102.7" cy="69.0" r="0.6" />
<circle cx="105.2" cy="45.0" r="0.6" />
<circle cx="107.6" cy="48.0" r="0.6" />
<circle cx="110.1" cy="50.0" r="0.6" />
<circle cx="112.5" cy="52.0" r="0.6" />
<circle cx="115.0" cy="54.0" r="0.6" />
<circle cx="117.4" cy="56.0" r="0.6" />
<circle cx="119.9" cy="49.0" r="0.6" />
<circle cx="122.3" cy="63.0" r="0.6" />
<circle cx="124.8" cy="60.0" r="0.6" />
<circle cx="127.2" cy="55.0" r="0.6" />
<circle cx="129.7" cy="65.0" r="0.6" />
<circle cx="132.1" cy="70.0" r="0.6" />
<circle cx="134.5" cy="58.0" r="0.6" />
<circle cx="137.0" cy="29.0" r="0.6" />
<circle cx="139.4" cy="87.0" r="0.6" />
<circle cx="141.9" cy="66.0" r="0.6" />
<circle cx="144.3" cy="62.0" r="0.6" />
<circle cx="146.8" cy="31.0" r="0.6" />
<circle cx="149.2" cy="93.0" r="0.6" />
<circle cx="151.7" cy="72.0" r="0.6" />
<circle cx="154.1" cy="64.0" r="0.6" />
<circle cx="156.6" cy="68.0" r="0.6" />
<circle cx="159.0" cy="74.0" r="0.6" />
<circle cx="161.5" cy="37.0" r="0.6" />
<circle cx="163.9" cy="111.0" r="0.6" />
<circle cx="166.3" cy="75.0" r="0.6" />
<circle cx="168.8" cy="78.0" r="0.6" />
<circle cx="171.2" cy="76.0" r="0.6" />
<circle cx="173.7" cy="80.0" r="0.6" />
<circle cx="176.1" cy="82.0" r="0.6" />
<circle cx="178.6" cy="41.0" r="0.6" />
<circle cx="181.0" cy="123.0" r="0.6" />
<circle cx="183.5" cy="81.0" r="0.6" />
<circle cx="185.9" cy="84.0" r="0.6" />
<circle cx="188.4" cy="77.0" r="0.6" />
<circle cx="190.8" cy="88.0" r="0.6" />
<circle cx="193.3" cy="86.0" r="0.6" />
<circle cx="195.7" cy="43.0" r="0.6" />
<circle cx="198.2" cy="129.0" r="0.6" />
<circle cx="200.6" cy="90.0" r="0.6" />
<circle cx="203.0" cy="85.0" r="0.6" />
<circle cx="205.5" cy="95.0" r="0.6" />
<circle cx="207.9" cy="100.0" r="0.6" />
</g>
</svg>