<svg xmlns="http://www.w3.org/2000/svg" width="161.8" height="100.0" viewBox="-4 -5 172 110">
<g fill="none" stroke="black" stroke-width="2.4300%" transform="translate(0, 100.4115) scale(0.2058, -0.2058)">
<circle cx="3" cy="1" r="2" />
<circle cx="6" cy="2" r="2" />
<circle cx="9" cy="5" r="2" />
<circle cx="12" cy="3" r="2" />
<circle cx="15" cy="10" r="2" />
<circle cx="18" cy="4" r="2" />
<circle cx="21" cy="14" r="2" />
<circle cx="24" cy="8" r="2" />
<circle cx="27" cy="6" r="2" />
<circle cx="30" cy="9" r="2" />
<circle cx="33" cy="20" r="2" />
<circle cx="36" cy="7" r="2" />
<circle cx="39" cy="28" r="2" />
<circle cx="42" cy="13" r="2" />
<circle cx="45" cy="11" r="2" />
<circle cx="48" cy="17" r="2" />
<circle cx="51" cy="33" r="2" />
<circle cx="54" cy="12" r="2" />
<circle cx="57" cy="37" r="2" />
<circle cx="60" cy="18" r="2" />
<circle cx="63" cy="15" r="2" />
<circle cx="66" cy="19" r="2" />
<circle cx="69" cy="43" r="2" />
<circle cx="72" cy="16" r="2" />
<circle cx="75" cy="24" r="2" />
<circle cx="78" cy="27" r="2" />
<circle cx="81" cy="22" r="2" />
<circle cx="84" cy="26" r="2" />
<circle cx="87" cy="57" r="2" />
<circle cx="90" cy="23" r="2" />
<circle cx="93" cy="61" r="2" />
<circle cx="96" cy="31" r="2" />
<circle cx="99" cy="21" r="2" />
<circle cx="102" cy="32" r="2" />
<circle cx="105" cy="25" r="2" />
<circle cx="108" cy="30" r="2" />
<circle cx="111" cy="67" r="2" />
<circle cx="114" cy="36" r="2" />
<circle cx="117" cy="29" r="2" />
<circle cx="120" cy="40" r="2" />
<circle cx="123" cy="74" r="2" />
<circle cx="126" cy="35" r="2" />
<circle cx="129" cy="81" r="2" />
<circle cx="132" cy="41" r="2" />
<circle cx="135" cy="39" r="2" />
<circle cx="138" cy="42" r="2" />
<circle cx="141" cy="89" r="2" />
<circle cx="144" cy="45" r="2" />
<circle cx="147" cy="50" r="2" />
<circle cx="150" cy="46" r="2" />
<circle cx="153" cy="34" r="2" />
<circle cx="156" cy="47" r="2" />
<circle cx="159" cy="100" r="2" />
<circle cx="162" cy="48" r="2" />
<circle cx="165" cy="53" r="2" />
<circle cx="168" cy="49" r="2" />
<circle cx="171" cy="38" r="2" />
<circle cx="174" cy="56" r="2" />
<circle cx="177" cy="107" r="2" />
<circle cx="180" cy="52" r="2" />
<circle cx="183" cy="115" r="2" />
<circle cx="186" cy="60" r="2" />
<circle cx="189" cy="51" r="2" />
<circle cx="192" cy="64" r="2" />
<circle cx="195" cy="54" r="2" />
<circle cx="198" cy="59" r="2" />
<circle cx="201" cy="128" r="2" />
<circle cx="204" cy="65" r="2" />
<circle cx="207" cy="44" r="2" />
<circle cx="210" cy="55" r="2" />
<circle cx="213" cy="134" r="2" />
<circle cx="216" cy="63" r="2" />
<circle cx="219" cy="138" r="2" />
<circle cx="222" cy="66" r="2" />
<circle cx="225" cy="69" r="2" />
<circle cx="228" cy="71" r="2" />
<circle cx="231" cy="78" r="2" />
<circle cx="234" cy="70" r="2" />
<circle cx="237" cy="151" r="2" />
<circle cx="240" cy="72" r="2" />
<circle cx="243" cy="76" r="2" />
<circle cx="246" cy="73" r="2" />
<circle cx="249" cy="160" r="2" />
<circle cx="252" cy="77" r="2" />
<circle cx="255" cy="84" r="2" />
<circle cx="258" cy="80" r="2" />
<circle cx="261" cy="58" r="2" />
<circle cx="264" cy="79" r="2" />
<circle cx="267" cy="167" r="2" />
<circle cx="270" cy="83" r="2" />
<circle cx="273" cy="93" r="2" />
<circle cx="276" cy="87" r="2" />
<circle cx="279" cy="62" r="2" />
<circle cx="282" cy="88" r="2" />
<circle cx="285" cy="85" r="2" />
<circle cx="288" cy="91" r="2" />
<circle cx="291" cy="182" r="2" />
<circle cx="294" cy="92" r="2" />
<circle cx="297" cy="96" r="2" />
<circle cx="300" cy="86" r="2" />
<circle cx="303" cy="189" r="2" />
<circle cx="306" cy="95" r="2" />
<circle cx="309" cy="197" r="2" />
<circle cx="312" cy="94" r="2" />
<circle cx="315" cy="97" r="2" />
<circle cx="318" cy="99" r="2" />
<circle cx="321" cy="203" r="2" />
<circle cx="324" cy="98" r="2" />
<circle cx="327" cy="207" r="2" />
<circle cx="330" cy="103" r="2" />
<circle cx="333" cy="68" r="2" />
<circle cx="336" cy="104" r="2" />
<circle cx="339" cy="216" r="2" />
<circle cx="342" cy="102" r="2" />
<circle cx="345" cy="111" r="2" />
<circle cx="348" cy="105" r="2" />
<circle cx="351" cy="109" r="2" />
<circle cx="354" cy="106" r="2" />
<circle cx="357" cy="118" r="2" />
<circle cx="360" cy="110" r="2" />
<circle cx="363" cy="124" r="2" />
<circle cx="366" cy="114" r="2" />
<circle cx="369" cy="75" r="2" />
<circle cx="372" cy="121" r="2" />
<circle cx="375" cy="112" r="2" />
<circle cx="378" cy="117" r="2" />
<circle cx="381" cy="236" r="2" />
<circle cx="384" cy="122" r="2" />
<circle cx="387" cy="82" r="2" />
<circle cx="390" cy="113" r="2" />
<circle cx="393" cy="253" r="2" />
<circle cx="396" cy="123" r="2" />
<circle cx="399" cy="119" r="2" />
<circle cx="402" cy="127" r="2" />
<circle cx="405" cy="130" r="2" />
<circle cx="408" cy="132" r="2" />
<circle cx="411" cy="259" r="2" />
<circle cx="414" cy="131" r="2" />
<circle cx="417" cy="264" r="2" />
<circle cx="420" cy="120" r="2" />
<circle cx="423" cy="90" r="2" />
<circle cx="426" cy="133" r="2" />
<circle cx="429" cy="125" r="2" />
<circle cx="432" cy="136" r="2" />
<circle cx="435" cy="142" r="2" />
<circle cx="438" cy="137" r="2" />
<circle cx="441" cy="140" r="2" />
<circle cx="444" cy="145" r="2" />
<circle cx="447" cy="279" r="2" />
<circle cx="450" cy="141" r="2" />
<circle cx="453" cy="287" r="2" />
<circle cx="456" cy="146" r="2" />
<circle cx="459" cy="148" r="2" />
<circle cx="462" cy="126" r="2" />
<circle cx="465" cy="143" r="2" />
<circle cx="468" cy="147" r="2" />
<circle cx="471" cy="297" r="2" />
<circle cx="474" cy="150" r="2" />
<circle cx="477" cy="101" r="2" />
<circle cx="480" cy="144" r="2" />
<circle cx="483" cy="155" r="2" />
<circle cx="486" cy="149" r="2" />
<circle cx="489" cy="305" r="2" />
<circle cx="492" cy="158" r="2" />
<circle cx="495" cy="153" r="2" />
<circle cx="498" cy="159" r="2" />
<circle cx="501" cy="314" r="2" />
<circle cx="504" cy="154" r="2" />
<circle cx="507" cy="171" r="2" />
<circle cx="510" cy="157" r="2" />
<circle cx="513" cy="162" r="2" />
<circle cx="516" cy="164" r="2" />
<circle cx="519" cy="328" r="2" />
<circle cx="522" cy="163" r="2" />
<circle cx="525" cy="156" r="2" />
<circle cx="528" cy="165" r="2" />
<circle cx="531" cy="108" r="2" />
<circle cx="534" cy="166" r="2" />
<circle cx="537" cy="336" r="2" />
<circle cx="540" cy="169" r="2" />
<circle cx="543" cy="344" r="2" />
<circle cx="546" cy="170" r="2" />
<circle cx="549" cy="116" r="2" />
<circle cx="552" cy="175" r="2" />
<circle cx="555" cy="173" r="2" />
<circle cx="558" cy="176" r="2" />
<circle cx="561" cy="185" r="2" />
<circle cx="564" cy="177" r="2" />
<circle cx="567" cy="179" r="2" />
<circle cx="570" cy="174" r="2" />
<circle cx="573" cy="363" r="2" />
<circle cx="576" cy="178" r="2" />
<circle cx="579" cy="371" r="2" />
<circle cx="582" cy="181" r="2" />
<circle cx="585" cy="172" r="2" />
<circle cx="588" cy="180" r="2" />
<circle cx="591" cy="377" r="2" />
<circle cx="594" cy="184" r="2" />
<circle cx="597" cy="381" r="2" />
<circle cx="600" cy="187" r="2" />
<circle cx="603" cy="129" r="2" />
<circle cx="606" cy="188" r="2" />
<circle cx="609" cy="193" r="2" />
<circle cx="612" cy="186" r="2" />
<circle cx="615" cy="210" r="2" />
<circle cx="618" cy="196" r="2" />
<circle cx="621" cy="191" r="2" />
<circle cx="624" cy="200" r="2" />
<circle cx="627" cy="213" r="2" />
<circle cx="630" cy="192" r="2" />
<circle cx="633" cy="401" r="2" />
<circle cx="636" cy="201" r="2" />
<circle cx="639" cy="135" r="2" />
<circle cx="642" cy="202" r="2" />
<circle cx="645" cy="211" r="2" />
<circle cx="648" cy="199" r="2" />
<circle cx="651" cy="194" r="2" />
<circle cx="654" cy="206" r="2" />
<circle cx="657" cy="139" r="2" />
<circle cx="660" cy="212" r="2" />
<circle cx="663" cy="220" r="2" />
<circle cx="666" cy="205" r="2" />
<circle cx="669" cy="420" r="2" />
<circle cx="672" cy="195" r="2" />
<circle cx="675" cy="209" r="2" />
<circle cx="678" cy="215" r="2" />
<circle cx="681" cy="430" r="2" />
<circle cx="684" cy="214" r="2" />
<circle cx="687" cy="438" r="2" />
<circle cx="690" cy="222" r="2" />
<circle cx="693" cy="218" r="2" />
<circle cx="696" cy="223" r="2" />
<circle cx="699" cy="444" r="2" />
<circle cx="702" cy="219" r="2" />
<circle cx="705" cy="226" r="2" />
<circle cx="708" cy="224" r="2" />
<circle cx="711" cy="152" r="2" />
<circle cx="714" cy="221" r="2" />
<circle cx="717" cy="458" r="2" />
<circle cx="720" cy="225" r="2" />
<circle cx="723" cy="462" r="2" />
<circle cx="726" cy="229" r="2" />
<circle cx="729" cy="232" r="2" />
<circle cx="732" cy="230" r="2" />
<circle cx="735" cy="227" r="2" />
<circle cx="738" cy="231" r="2" />
<circle cx="741" cy="242" r="2" />
<circle cx="744" cy="234" r="2" />
<circle cx="747" cy="161" r="2" />
<circle cx="750" cy="228" r="2" />
<circle cx="753" cy="474" r="2" />
<circle cx="756" cy="233" r="2" />
<circle cx="759" cy="248" r="2" />
<circle cx="762" cy="235" r="2" />
<circle cx="765" cy="238" r="2" />
<circle cx="768" cy="240" r="2" />
<circle cx="771" cy="487" r="2" />
<circle cx="774" cy="239" r="2" />
<circle cx="777" cy="244" r="2" />
<circle cx="780" cy="241" r="2" />
<circle cx="783" cy="246" r="2" />
<circle cx="786" cy="252" r="2" />
<circle cx="789" cy="247" r="2" />
</g>
</svg>