<svg xmlns="http://www.w3.org/2000/svg" width="161.8" height="100.0" viewBox="-85.902 96.711 171.803 110.000">
<g fill="none" stroke="black" stroke-width="0.0064%" transform="translate(0, 303.4225) scale(77.5813, -77.5813)">
<circle cx="0.000" cy="2.600" r="0.006" />
<polyline points="-1.043,1.311 -1.022,1.315 -1.001,1.318 -0.980,1.322 -0.959,1.326 -0.939,1.329 -0.918,1.333 -0.897,1.337 -0.876,1.341 -0.855,1.345 -0.834,1.349 -0.813,1.353 -0.793,1.357 -0.772,1.361 -0.751,1.365 -0.730,1.370 -0.709,1.374 -0.688,1.378 -0.667,1.383 -0.647,1.387 -0.626,1.392 -0.605,1.396 -0.584,1.401 -0.563,1.406 -0.542,1.411 -0.521,1.416 -0.501,1.421 -0.480,1.426 -0.459,1.431 -0.438,1.436 -0.417,1.442 -0.396,1.447 -0.375,1.452 -0.355,1.458 -0.334,1.464 -0.313,1.469 -0.292,1.475 -0.271,1.481 -0.250,1.487 -0.229,1.494 -0.209,1.500 -0.188,1.506 -0.167,1.513 -0.146,1.520 -0.125,1.527 -0.104,1.534 -0.083,1.541 -0.063,1.548 -0.042,1.555 -0.021,1.563 0.000,1.571 0.021,1.579 0.042,1.587 0.063,1.595 0.083,1.604 0.104,1.612 0.125,1.621 0.146,1.631 0.167,1.640 0.188,1.650 0.209,1.660 0.229,1.670 0.250,1.680 0.271,1.691 0.292,1.702 0.313,1.714 0.334,1.726 0.355,1.738 0.375,1.751 0.396,1.764 0.417,1.778 0.438,1.792 0.459,1.806 0.480,1.822 0.501,1.837 0.521,1.854 0.542,1.871 0.563,1.890 0.584,1.909 0.605,1.929 0.626,1.950 0.647,1.972 0.667,1.995 0.688,2.020 0.709,2.047 0.730,2.075 0.751,2.106 0.772,2.139 0.793,2.175 0.813,2.214 0.834,2.257 0.855,2.305 0.876,2.359 0.897,2.421 0.918,2.493 0.939,2.578 0.959,2.600 0.980,2.600 1.001,2.600 1.022,2.600 1.043,2.600" />
</g>
</svg>