<svg xmlns="http://www.w3.org/2000/svg" width="53.7" height="100.0" viewBox="-21.46 -55.00 63.73 110.00">
<g fill="none" stroke="black" stroke-width="0.0300%" transform="translate(0, 0.0000) scale(16.6667, -16.6667)">
<polyline points="2.24,-3.00 2.21,-2.93 2.18,-2.87 2.16,-2.83 2.16,-2.81 2.14,-2.77 2.11,-2.69 2.09,-2.66 2.05,-2.58 2.05,-2.56 2.01,-2.49 2.00,-2.46 1.97,-2.38 1.95,-2.34 1.94,-2.31 1.91,-2.25 1.89,-2.22 1.86,-2.14 1.84,-2.10 1.80,-2.01 1.79,-1.98 1.78,-1.97 1.76,-1.94 1.73,-1.87 1.70,-1.80 1.68,-1.75 1.63,-1.64 1.62,-1.63 1.62,-1.63 1.62,-1.62 1.57,-1.52 1.54,-1.46 1.51,-1.40 1.46,-1.29 1.46,-1.29 1.46,-1.28 1.46,-1.28 1.40,-1.17 1.37,-1.11 1.35,-1.05 1.30,-0.96 1.30,-0.94 1.29,-0.94 1.29,-0.91 1.24,-0.82 1.21,-0.77 1.18,-0.70 1.16,-0.65 1.14,-0.60 1.14,-0.58 1.11,-0.51 1.09,-0.46 1.08,-0.43 1.06,-0.37 1.04,-0.33 1.02,-0.26 1.01,-0.19 1.00,-0.15 0.99,-0.09 0.99,-0.03 0.99,0.03 0.99,0.09 1.00,0.15 1.01,0.19 1.02,0.26 1.04,0.33 1.06,0.37 1.08,0.43 1.09,0.46 1.11,0.51 1.14,0.58 1.14,0.60 1.16,0.65 1.18,0.70 1.21,0.77 1.24,0.82 1.29,0.91 1.29,0.94 1.30,0.94 1.30,0.96 1.35,1.05 1.37,1.11 1.40,1.17 1.46,1.28 1.46,1.28 1.46,1.29 1.46,1.29 1.51,1.40 1.54,1.46 1.57,1.52 1.62,1.62 1.62,1.63 1.62,1.63 1.63,1.64 1.68,1.75 1.70,1.80 1.73,1.87 1.76,1.94 1.78,1.97 1.79,1.98 1.80,2.01 1.84,2.10 1.86,2.14 1.89,2.22 1.91,2.25 1.94,2.31 1.95,2.34 1.97,2.38 2.00,2.46 2.01,2.49 2.05,2.56 2.05,2.58 2.09,2.66 2.11,2.69 2.14,2.77 2.16,2.81 2.16,2.83 2.18,2.87 2.21,2.93 2.24,3.00" />
<polyline points="-0.60,-0.62 -0.58,-0.62 -0.48,-0.60 -0.44,-0.59 -0.43,-0.59 -0.40,-0.57 -0.33,-0.53 -0.26,-0.48 -0.23,-0.46 -0.19,-0.43 -0.15,-0.37 -0.09,-0.28 -0.07,-0.27 -0.07,-0.26 -0.06,-0.23 -0.03,-0.14 -0.01,-0.09 -0.01,-0.01 -0.01,0.01 -0.01,0.09 -0.03,0.14 -0.06,0.23 -0.07,0.26 -0.07,0.27 -0.09,0.28 -0.15,0.37 -0.19,0.43 -0.23,0.46 -0.26,0.48 -0.33,0.53 -0.40,0.57 -0.43,0.59 -0.44,0.59 -0.48,0.60 -0.58,0.62 -0.60,0.62 -0.61,0.61 -0.66,0.60 -0.74,0.57 -0.77,0.55 -0.83,0.49 -0.88,0.43 -0.90,0.39 -0.94,0.31 -0.96,0.27 -0.96,0.26 -0.96,0.24 -0.98,0.12 -0.99,0.09 -0.99,0.04 -0.99,-0.04 -0.99,-0.09 -0.98,-0.12 -0.96,-0.24 -0.96,-0.26 -0.96,-0.27 -0.94,-0.31 -0.90,-0.39 -0.88,-0.43 -0.83,-0.49 -0.77,-0.55 -0.74,-0.57 -0.66,-0.60 -0.61,-0.61 -0.60,-0.62" />
</g>
</svg>