<svg xmlns="http://www.w3.org/2000/svg" width="85.4" height="100.0" viewBox="-55.053 -55.000 95.447 110.000">
<g fill="none" stroke="black" stroke-width="0.0100%" transform="translate(0, 0.0000) scale(50.0534, -50.0534)">
<circle cx="0.707" cy="0.707" r="0.010" />
<circle cx="0.603" cy="0.798" r="0.010" />
<circle cx="0.487" cy="0.874" r="0.010" />
<circle cx="0.361" cy="0.932" r="0.010" />
<circle cx="0.229" cy="0.973" r="0.010" />
<circle cx="0.092" cy="0.996" r="0.010" />
<circle cx="-0.046" cy="0.999" r="0.010" />
<circle cx="-0.184" cy="0.983" r="0.010" />
<circle cx="-0.318" cy="0.948" r="0.010" />
<circle cx="-0.446" cy="0.895" r="0.010" />
<circle cx="-0.565" cy="0.825" r="0.010" />
<circle cx="-0.674" cy="0.739" r="0.010" />
<circle cx="-0.769" cy="0.639" r="0.010" />
<circle cx="-0.850" cy="0.526" r="0.010" />
<circle cx="-0.915" cy="0.404" r="0.010" />
<circle cx="-0.962" cy="0.274" r="0.010" />
<circle cx="-0.990" cy="0.138" r="0.010" />
<circle cx="-1.000" cy="-0.000" r="0.010" />
<circle cx="-0.990" cy="-0.138" r="0.010" />
<circle cx="-0.962" cy="-0.274" r="0.010" />
<circle cx="-0.915" cy="-0.404" r="0.010" />
<circle cx="-0.850" cy="-0.526" r="0.010" />
<circle cx="-0.769" cy="-0.639" r="0.010" />
<circle cx="-0.674" cy="-0.739" r="0.010" />
<circle cx="-0.565" cy="-0.825" r="0.010" />
<circle cx="-0.446" cy="-0.895" r="0.010" />
<circle cx="-0.318" cy="-0.948" r="0.010" />
<circle cx="-0.184" cy="-0.983" r="0.010" />
<circle cx="-0.046" cy="-0.999" r="0.010" />
<circle cx="0.092" cy="-0.996" r="0.010" />
<circle cx="0.229" cy="-0.973" r="0.010" />
<circle cx="0.361" cy="-0.932" r="0.010" />
<circle cx="0.487" cy="-0.874" r="0.010" />
<circle cx="0.603" cy="-0.798" r="0.010" />
<circle cx="0.707" cy="-0.707" r="0.010" />
</g>
</svg>