<svg xmlns="http://www.w3.org/2000/svg" width="161.8" height="100.0" viewBox="-85.90 -39.10 171.80 110.00">
<g fill="none" stroke="black" stroke-width="0.0350%" transform="translate(0, 31.7950) scale(14.2746, -14.2746)">
<polyline points="-5.67,-0.35 -5.55,-0.34 -5.44,0.60 -5.33,0.95 -5.21,-0.30 -5.10,-2.04 -4.99,-2.39 -4.87,-1.23 -4.76,-0.35 -4.65,-0.98 -4.53,-2.19 -4.42,-2.23 -4.31,-0.97 -4.19,0.07 -4.08,-0.03 -3.97,-0.26 -3.85,0.80 -3.74,2.73 -3.63,3.64 -3.51,2.68 -3.40,1.23 -3.29,1.11 -3.17,2.21 -3.06,2.80 -2.95,2.07 -2.83,1.16 -2.72,1.48 -2.61,2.61 -2.49,2.91 -2.38,1.94 -2.27,1.21 -2.15,2.13 -2.04,3.94 -1.93,4.62 -1.81,3.50 -1.70,2.04 -1.59,1.73 -1.47,2.11 -1.36,1.65 -1.25,0.10 -1.13,-1.02 -1.02,-0.60 -0.91,0.41 -0.79,0.23 -0.68,-1.26 -0.57,-2.27 -0.45,-1.49 -0.34,0.13 -0.23,0.75 -0.11,0.06 0.00,-0.49 0.11,0.06 0.23,0.75 0.34,0.13 0.45,-1.49 0.57,-2.27 0.68,-1.26 0.79,0.23 0.91,0.41 1.02,-0.60 1.13,-1.02 1.25,0.10 1.36,1.65 1.47,2.11 1.59,1.73 1.70,2.04 1.81,3.50 1.93,4.62 2.04,3.94 2.15,2.13 2.27,1.21 2.38,1.94 2.49,2.91 2.61,2.61 2.72,1.48 2.83,1.16 2.95,2.07 3.06,2.80 3.17,2.21 3.29,1.11 3.40,1.23 3.51,2.68 3.63,3.64 3.74,2.73 3.85,0.80 3.97,-0.26 4.08,-0.03 4.19,0.07 4.31,-0.97 4.42,-2.23 4.53,-2.19 4.65,-0.98 4.76,-0.35 4.87,-1.23 4.99,-2.39 5.10,-2.04 5.21,-0.30 5.33,0.95 5.44,0.60 5.55,-0.34 5.67,-0.35" />
</g>
</svg>