<svg xmlns="http://www.w3.org/2000/svg" width="161.8" height="100.0" viewBox="-5.000 59.663 171.803 110.000">
<g fill="none" stroke="black" stroke-width="0.0121%" transform="translate(0, 229.3260) scale(41.1658, -41.1658)">
<polyline points="0.000,1.571 0.040,1.571 0.079,1.571 0.119,1.572 0.159,1.572 0.199,1.573 0.238,1.574 0.278,1.576 0.318,1.577 0.357,1.579 0.397,1.581 0.437,1.583 0.476,1.585 0.516,1.587 0.556,1.590 0.596,1.593 0.635,1.596 0.675,1.599 0.715,1.603 0.754,1.607 0.794,1.610 0.834,1.615 0.873,1.619 0.913,1.624 0.953,1.628 0.993,1.634 1.032,1.639 1.072,1.644 1.112,1.650 1.151,1.656 1.191,1.663 1.231,1.669 1.270,1.676 1.310,1.683 1.350,1.691 1.390,1.698 1.429,1.706 1.469,1.715 1.509,1.723 1.548,1.732 1.588,1.741 1.628,1.751 1.667,1.761 1.707,1.771 1.747,1.782 1.787,1.793 1.826,1.804 1.866,1.816 1.906,1.828 1.945,1.841 1.985,1.854 2.025,1.868 2.065,1.882 2.104,1.896 2.144,1.911 2.184,1.927 2.223,1.943 2.263,1.959 2.303,1.977 2.342,1.995 2.382,2.013 2.422,2.033 2.462,2.053 2.501,2.073 2.541,2.095 2.581,2.117 2.620,2.140 2.660,2.165 2.700,2.190 2.739,2.216 2.779,2.244 2.819,2.272 2.859,2.302 2.898,2.333 2.938,2.366 2.978,2.400 3.017,2.436 3.057,2.474 3.097,2.514 3.136,2.556 3.176,2.600 3.216,2.647 3.256,2.697 3.295,2.750 3.335,2.806 3.375,2.867 3.414,2.932 3.454,3.003 3.494,3.079 3.534,3.163 3.573,3.255 3.613,3.358 3.653,3.473 3.692,3.604 3.732,3.756 3.772,3.936 3.811,4.000 3.851,4.000 3.891,4.000 3.931,4.000" />
</g>
</svg>