<svg xmlns="http://www.w3.org/2000/svg" width="161.8" height="100.0" viewBox="-85.90 -54.98 171.80 110.00">
<g fill="none" stroke="black" stroke-width="0.0169%" transform="translate(0, 0.0304) scale(29.5693, -29.5693)">
<polyline points="-2.74,0.30 -2.68,0.44 -2.63,0.59 -2.57,0.75 -2.52,0.92 -2.46,1.09 -2.41,1.26 -2.35,1.41 -2.30,1.53 -2.24,1.63 -2.19,1.68 -2.13,1.69 -2.08,1.66 -2.02,1.58 -1.97,1.47 -1.92,1.33 -1.86,1.17 -1.81,1.00 -1.75,0.83 -1.70,0.66 -1.64,0.51 -1.59,0.36 -1.53,0.23 -1.48,0.10 -1.42,-0.02 -1.37,-0.15 -1.31,-0.28 -1.26,-0.41 -1.20,-0.56 -1.15,-0.72 -1.09,-0.89 -1.04,-1.06 -0.98,-1.23 -0.93,-1.38 -0.88,-1.51 -0.82,-1.61 -0.77,-1.67 -0.71,-1.69 -0.66,-1.66 -0.60,-1.60 -0.55,-1.49 -0.49,-1.36 -0.44,-1.20 -0.38,-1.03 -0.33,-0.86 -0.27,-0.69 -0.22,-0.54 -0.16,-0.39 -0.11,-0.25 -0.05,-0.12 0.00,0.00 0.05,0.12 0.11,0.25 0.16,0.39 0.22,0.54 0.27,0.69 0.33,0.86 0.38,1.03 0.44,1.20 0.49,1.36 0.55,1.49 0.60,1.60 0.66,1.66 0.71,1.69 0.77,1.67 0.82,1.61 0.88,1.51 0.93,1.38 0.98,1.23 1.04,1.06 1.09,0.89 1.15,0.72 1.20,0.56 1.26,0.41 1.31,0.28 1.37,0.15 1.42,0.02 1.48,-0.10 1.53,-0.23 1.59,-0.36 1.64,-0.51 1.70,-0.66 1.75,-0.83 1.81,-1.00 1.86,-1.17 1.92,-1.33 1.97,-1.47 2.02,-1.58 2.08,-1.66 2.13,-1.69 2.19,-1.68 2.24,-1.63 2.30,-1.53 2.35,-1.41 2.41,-1.26 2.46,-1.09 2.52,-0.92 2.57,-0.75 2.63,-0.59 2.68,-0.44 2.74,-0.30" />
<polyline points="-2.74,1.57 -2.68,1.46 -2.63,1.31 -2.57,1.15 -2.52,0.99 -2.46,0.82 -2.41,0.65 -2.35,0.49 -2.30,0.35 -2.24,0.22 -2.19,0.09 -2.13,-0.03 -2.08,-0.16 -2.02,-0.29 -1.97,-0.43 -1.92,-0.58 -1.86,-0.74 -1.81,-0.91 -1.75,-1.08 -1.70,-1.24 -1.64,-1.39 -1.59,-1.52 -1.53,-1.62 -1.48,-1.68 -1.42,-1.69 -1.37,-1.66 -1.31,-1.59 -1.26,-1.48 -1.20,-1.34 -1.15,-1.18 -1.09,-1.02 -1.04,-0.85 -0.98,-0.68 -0.93,-0.52 -0.88,-0.38 -0.82,-0.24 -0.77,-0.11 -0.71,0.01 -0.66,0.13 -0.60,0.26 -0.55,0.40 -0.49,0.55 -0.44,0.71 -0.38,0.88 -0.33,1.05 -0.27,1.21 -0.22,1.37 -0.16,1.50 -0.11,1.60 -0.05,1.67 0.00,1.69 0.05,1.67 0.11,1.60 0.16,1.50 0.22,1.37 0.27,1.21 0.33,1.05 0.38,0.88 0.44,0.71 0.49,0.55 0.55,0.40 0.60,0.26 0.66,0.13 0.71,0.01 0.77,-0.11 0.82,-0.24 0.88,-0.38 0.93,-0.52 0.98,-0.68 1.04,-0.85 1.09,-1.02 1.15,-1.18 1.20,-1.34 1.26,-1.48 1.31,-1.59 1.37,-1.66 1.42,-1.69 1.48,-1.68 1.53,-1.62 1.59,-1.52 1.64,-1.39 1.70,-1.24 1.75,-1.08 1.81,-0.91 1.86,-0.74 1.92,-0.58 1.97,-0.43 2.02,-0.29 2.08,-0.16 2.13,-0.03 2.19,0.09 2.24,0.22 2.30,0.35 2.35,0.49 2.41,0.65 2.46,0.82 2.52,0.99 2.57,1.15 2.63,1.31 2.68,1.46 2.74,1.57" />
<polyline points="-2.74,1.57 -2.68,1.46 -2.63,1.32 -2.57,1.17 -2.52,1.00 -2.46,0.85 -2.41,0.70 -2.35,0.58 -2.30,0.48 -2.24,0.41 -2.19,0.37 -2.13,0.36 -2.08,0.38 -2.02,0.44 -1.97,0.53 -1.92,0.64 -1.86,0.78 -1.81,0.93 -1.75,1.09 -1.70,1.25 -1.64,1.40 -1.59,1.52 -1.53,1.62 -1.48,1.68 -1.42,1.69 -1.37,1.66 -1.31,1.59 -1.26,1.48 -1.20,1.35 -1.15,1.19 -1.09,1.03 -1.04,0.88 -0.98,0.73 -0.93,0.60 -0.88,0.49 -0.82,0.42 -0.77,0.37 -0.71,0.36 -0.66,0.38 -0.60,0.43 -0.55,0.51 -0.49,0.62 -0.44,0.75 -0.38,0.90 -0.33,1.06 -0.27,1.22 -0.22,1.37 -0.16,1.50 -0.11,1.61 -0.05,1.67 0.00,1.69 0.05,1.67 0.11,1.61 0.16,1.50 0.22,1.37 0.27,1.22 0.33,1.06 0.38,0.90 0.44,0.75 0.49,0.62 0.55,0.51 0.60,0.43 0.66,0.38 0.71,0.36 0.77,0.37 0.82,0.42 0.88,0.49 0.93,0.60 0.98,0.73 1.04,0.88 1.09,1.03 1.15,1.19 1.20,1.35 1.26,1.48 1.31,1.59 1.37,1.66 1.42,1.69 1.48,1.68 1.53,1.62 1.59,1.52 1.64,1.40 1.70,1.25 1.75,1.09 1.81,0.93 1.86,0.78 1.92,0.64 1.97,0.53 2.02,0.44 2.08,0.38 2.13,0.36 2.19,0.37 2.24,0.41 2.30,0.48 2.35,0.58 2.41,0.70 2.46,0.85 2.52,1.00 2.57,1.17 2.63,1.32 2.68,1.46 2.74,1.57" />
<polyline points="-2.74,0.45 -2.68,0.54 -2.63,0.65 -2.57,0.79 -2.52,0.95 -2.46,1.11 -2.41,1.27 -2.35,1.41 -2.30,1.53 -2.24,1.63 -2.19,1.68 -2.13,1.69 -2.08,1.66 -2.02,1.58 -1.97,1.47 -1.92,1.33 -1.86,1.18 -1.81,1.02 -1.75,0.86 -1.70,0.72 -1.64,0.59 -1.59,0.49 -1.53,0.41 -1.48,0.37 -1.42,0.36 -1.37,0.38 -1.31,0.43 -1.26,0.52 -1.20,0.63 -1.15,0.77 -1.09,0.92 -1.04,1.08 -0.98,1.24 -0.93,1.39 -0.88,1.51 -0.82,1.61 -0.77,1.67 -0.71,1.69 -0.66,1.67 -0.60,1.60 -0.55,1.49 -0.49,1.36 -0.44,1.21 -0.38,1.05 -0.33,0.89 -0.27,0.74 -0.22,0.61 -0.16,0.50 -0.11,0.42 -0.05,0.37 0.00,0.36 0.05,0.37 0.11,0.42 0.16,0.50 0.22,0.61 0.27,0.74 0.33,0.89 0.38,1.05 0.44,1.21 0.49,1.36 0.55,1.49 0.60,1.60 0.66,1.67 0.71,1.69 0.77,1.67 0.82,1.61 0.88,1.51 0.93,1.39 0.98,1.24 1.04,1.08 1.09,0.92 1.15,0.77 1.20,0.63 1.26,0.52 1.31,0.43 1.37,0.38 1.42,0.36 1.48,0.37 1.53,0.41 1.59,0.49 1.64,0.59 1.70,0.72 1.75,0.86 1.81,1.02 1.86,1.18 1.92,1.33 1.97,1.47 2.02,1.58 2.08,1.66 2.13,1.69 2.19,1.68 2.24,1.63 2.30,1.53 2.35,1.41 2.41,1.27 2.46,1.11 2.52,0.95 2.57,0.79 2.63,0.65 2.68,0.54 2.74,0.45" />
</g>
</svg>