<svg xmlns="http://www.w3.org/2000/svg" width="100.0" height="100.0" viewBox="-55.000 -55.000 110.000 110.000">
<g fill="none" stroke="black" stroke-width="0.0150%" transform="translate(0, 0.0000) scale(33.3333, -33.3333)">
<polyline points="1.000,0.000 0.998,0.063 0.992,0.125 0.982,0.187 0.969,0.249 0.951,0.309 0.930,0.368 0.905,0.426 0.876,0.482 0.844,0.536 0.809,0.588 0.771,0.637 0.729,0.685 0.685,0.729 0.637,0.771 0.588,0.809 0.536,0.844 0.482,0.876 0.426,0.905 0.368,0.930 0.309,0.951 0.249,0.969 0.187,0.982 0.125,0.992 0.063,0.998 -0.000,1.000 -0.063,0.998 -0.125,0.992 -0.187,0.982 -0.249,0.969 -0.309,0.951 -0.368,0.930 -0.426,0.905 -0.482,0.876 -0.536,0.844 -0.588,0.809 -0.637,0.771 -0.685,0.729 -0.729,0.685 -0.771,0.637 -0.809,0.588 -0.844,0.536 -0.876,0.482 -0.905,0.426 -0.930,0.368 -0.951,0.309 -0.969,0.249 -0.982,0.187 -0.992,0.125 -0.998,0.063 -1.000,-0.000 -0.998,-0.063 -0.992,-0.125 -0.982,-0.187 -0.969,-0.249 -0.951,-0.309 -0.930,-0.368 -0.905,-0.426 -0.876,-0.482 -0.844,-0.536 -0.809,-0.588 -0.771,-0.637 -0.729,-0.685 -0.685,-0.729 -0.637,-0.771 -0.588,-0.809 -0.536,-0.844 -0.482,-0.876 -0.426,-0.905 -0.368,-0.930 -0.309,-0.951 -0.249,-0.969 -0.187,-0.982 -0.125,-0.992 -0.063,-0.998 -0.000,-1.000 0.063,-0.998 0.125,-0.992 0.187,-0.982 0.249,-0.969 0.309,-0.951 0.368,-0.930 0.426,-0.905 0.482,-0.876 0.536,-0.844 0.588,-0.809 0.637,-0.771 0.685,-0.729 0.729,-0.685 0.771,-0.637 0.809,-0.588 0.844,-0.536 0.876,-0.482 0.905,-0.426 0.930,-0.368 0.951,-0.309 0.969,-0.249 0.982,-0.187 0.992,-0.125 0.998,-0.063" />
<polyline points="1.000,0.000 0.998,0.094 0.992,0.188 0.982,0.281 0.969,0.373 0.951,0.464 0.930,0.552 0.905,0.639 0.876,0.723 0.844,0.804 0.809,0.882 0.771,0.956 0.729,1.027 0.685,1.093 0.637,1.156 0.588,1.214 0.536,1.266 0.482,1.314 0.426,1.357 0.368,1.395 0.309,1.427 0.249,1.453 0.187,1.473 0.125,1.488 0.063,1.497 -0.000,1.500 -0.063,1.497 -0.125,1.488 -0.187,1.473 -0.249,1.453 -0.309,1.427 -0.368,1.395 -0.426,1.357 -0.482,1.314 -0.536,1.266 -0.588,1.214 -0.637,1.156 -0.685,1.093 -0.729,1.027 -0.771,0.956 -0.809,0.882 -0.844,0.804 -0.876,0.723 -0.905,0.639 -0.930,0.552 -0.951,0.464 -0.969,0.373 -0.982,0.281 -0.992,0.188 -0.998,0.094 -1.000,-0.000 -0.998,-0.094 -0.992,-0.188 -0.982,-0.281 -0.969,-0.373 -0.951,-0.464 -0.930,-0.552 -0.905,-0.639 -0.876,-0.723 -0.844,-0.804 -0.809,-0.882 -0.771,-0.956 -0.729,-1.027 -0.685,-1.093 -0.637,-1.156 -0.588,-1.214 -0.536,-1.266 -0.482,-1.314 -0.426,-1.357 -0.368,-1.395 -0.309,-1.427 -0.249,-1.453 -0.187,-1.473 -0.125,-1.488 -0.063,-1.497 -0.000,-1.500 0.063,-1.497 0.125,-1.488 0.187,-1.473 0.249,-1.453 0.309,-1.427 0.368,-1.395 0.426,-1.357 0.482,-1.314 0.536,-1.266 0.588,-1.214 0.637,-1.156 0.685,-1.093 0.729,-1.027 0.771,-0.956 0.809,-0.882 0.844,-0.804 0.876,-0.723 0.905,-0.639 0.930,-0.552 0.951,-0.464 0.969,-0.373 0.982,-0.281 0.992,-0.188 0.998,-0.094" />
<polyline points="1.500,0.000 1.497,0.063 1.488,0.125 1.473,0.187 1.453,0.249 1.427,0.309 1.395,0.368 1.357,0.426 1.314,0.482 1.266,0.536 1.214,0.588 1.156,0.637 1.093,0.685 1.027,0.729 0.956,0.771 0.882,0.809 0.804,0.844 0.723,0.876 0.639,0.905 0.552,0.930 0.464,0.951 0.373,0.969 0.281,0.982 0.188,0.992 0.094,0.998 -0.000,1.000 -0.094,0.998 -0.188,0.992 -0.281,0.982 -0.373,0.969 -0.464,0.951 -0.552,0.930 -0.639,0.905 -0.723,0.876 -0.804,0.844 -0.882,0.809 -0.956,0.771 -1.027,0.729 -1.093,0.685 -1.156,0.637 -1.214,0.588 -1.266,0.536 -1.314,0.482 -1.357,0.426 -1.395,0.368 -1.427,0.309 -1.453,0.249 -1.473,0.187 -1.488,0.125 -1.497,0.063 -1.500,-0.000 -1.497,-0.063 -1.488,-0.125 -1.473,-0.187 -1.453,-0.249 -1.427,-0.309 -1.395,-0.368 -1.357,-0.426 -1.314,-0.482 -1.266,-0.536 -1.214,-0.588 -1.156,-0.637 -1.093,-0.685 -1.027,-0.729 -0.956,-0.771 -0.882,-0.809 -0.804,-0.844 -0.723,-0.876 -0.639,-0.905 -0.552,-0.930 -0.464,-0.951 -0.373,-0.969 -0.281,-0.982 -0.188,-0.992 -0.094,-0.998 -0.000,-1.000 0.094,-0.998 0.188,-0.992 0.281,-0.982 0.373,-0.969 0.464,-0.951 0.552,-0.930 0.639,-0.905 0.723,-0.876 0.804,-0.844 0.882,-0.809 0.956,-0.771 1.027,-0.729 1.093,-0.685 1.156,-0.637 1.214,-0.588 1.266,-0.536 1.314,-0.482 1.357,-0.426 1.395,-0.368 1.427,-0.309 1.453,-0.249 1.473,-0.187 1.488,-0.125 1.497,-0.063" />
</g>
</svg>