<svg xmlns="http://www.w3.org/2000/svg" width="161.8" height="100.0" viewBox="22 -5 172 110">
<g fill="none" stroke="black" stroke-width="16.7000%" transform="translate(0, 100.0000) scale(0.0299, -0.0299)">
<circle cx="912" cy="0" r="17" />
<line x1="912" y1="0" x2="912" y2="458" />
<line x1="980" y1="0" x2="980" y2="0" />
<line x1="1047" y1="0" x2="1047" y2="0" />
<line x1="1115" y1="0" x2="1115" y2="0" />
<line x1="1182" y1="0" x2="1182" y2="0" />
<line x1="1250" y1="0" x2="1250" y2="0" />
<line x1="1317" y1="0" x2="1317" y2="0" />
<line x1="1385" y1="0" x2="1385" y2="0" />
<line x1="1452" y1="0" x2="1452" y2="0" />
<line x1="1520" y1="0" x2="1520" y2="0" />
<line x1="1587" y1="0" x2="1587" y2="0" />
<line x1="1655" y1="0" x2="1655" y2="0" />
<line x1="1723" y1="0" x2="1723" y2="0" />
<line x1="1790" y1="0" x2="1790" y2="982" />
<line x1="1858" y1="0" x2="1858" y2="0" />
<line x1="1925" y1="0" x2="1925" y2="0" />
<line x1="1993" y1="0" x2="1993" y2="0" />
<line x1="2060" y1="0" x2="2060" y2="0" />
<line x1="2128" y1="0" x2="2128" y2="0" />
<line x1="2195" y1="0" x2="2195" y2="0" />
<line x1="2263" y1="0" x2="2263" y2="0" />
<line x1="2331" y1="0" x2="2331" y2="0" />
<line x1="2398" y1="0" x2="2398" y2="0" />
<line x1="2466" y1="0" x2="2466" y2="0" />
<line x1="2533" y1="0" x2="2533" y2="0" />
<line x1="2601" y1="0" x2="2601" y2="0" />
<line x1="2668" y1="0" x2="2668" y2="1927" />
<line x1="2736" y1="0" x2="2736" y2="0" />
<line x1="2803" y1="0" x2="2803" y2="0" />
<line x1="2871" y1="0" x2="2871" y2="0" />
<line x1="2939" y1="0" x2="2939" y2="0" />
<line x1="3006" y1="0" x2="3006" y2="0" />
<line x1="3074" y1="0" x2="3074" y2="0" />
<line x1="3141" y1="0" x2="3141" y2="0" />
<line x1="3209" y1="0" x2="3209" y2="0" />
<line x1="3276" y1="0" x2="3276" y2="0" />
<line x1="3344" y1="0" x2="3344" y2="0" />
<line x1="3411" y1="0" x2="3411" y2="0" />
<line x1="3479" y1="0" x2="3479" y2="0" />
<line x1="3547" y1="0" x2="3547" y2="0" />
<line x1="3614" y1="0" x2="3614" y2="3340" />
<line x1="3682" y1="0" x2="3682" y2="0" />
<line x1="3749" y1="0" x2="3749" y2="0" />
<line x1="3817" y1="0" x2="3817" y2="0" />
<line x1="3884" y1="0" x2="3884" y2="0" />
<line x1="3952" y1="0" x2="3952" y2="0" />
<line x1="4019" y1="0" x2="4019" y2="0" />
<line x1="4087" y1="0" x2="4087" y2="0" />
<line x1="4155" y1="0" x2="4155" y2="0" />
<line x1="4222" y1="0" x2="4222" y2="0" />
<line x1="4290" y1="0" x2="4290" y2="0" />
<line x1="4357" y1="0" x2="4357" y2="0" />
<line x1="4425" y1="0" x2="4425" y2="0" />
<line x1="4492" y1="0" x2="4492" y2="1832" />
<line x1="4560" y1="0" x2="4560" y2="0" />
<line x1="4627" y1="0" x2="4627" y2="0" />
<line x1="4695" y1="0" x2="4695" y2="0" />
<line x1="4762" y1="0" x2="4762" y2="0" />
<line x1="4830" y1="0" x2="4830" y2="0" />
<line x1="4898" y1="0" x2="4898" y2="0" />
<line x1="4965" y1="0" x2="4965" y2="0" />
<line x1="5033" y1="0" x2="5033" y2="0" />
<line x1="5100" y1="0" x2="5100" y2="0" />
<line x1="5168" y1="0" x2="5168" y2="0" />
<line x1="5235" y1="0" x2="5235" y2="0" />
<line x1="5303" y1="0" x2="5303" y2="0" />
<line x1="5370" y1="0" x2="5370" y2="980" />
<line x1="5438" y1="0" x2="5438" y2="0" />
<line x1="5506" y1="0" x2="5506" y2="0" />
<line x1="5573" y1="0" x2="5573" y2="0" />
<line x1="5641" y1="0" x2="5641" y2="0" />
<line x1="5708" y1="0" x2="5708" y2="0" />
<line x1="5776" y1="0" x2="5776" y2="0" />
<line x1="5843" y1="0" x2="5843" y2="0" />
<line x1="5911" y1="0" x2="5911" y2="0" />
<line x1="5978" y1="0" x2="5978" y2="0" />
<line x1="6046" y1="0" x2="6046" y2="0" />
<line x1="6114" y1="0" x2="6114" y2="0" />
<line x1="6181" y1="0" x2="6181" y2="0" />
<line x1="6249" y1="0" x2="6249" y2="0" />
<line x1="6316" y1="0" x2="6316" y2="481" />
</g>
</svg>