<svg xmlns="http://www.w3.org/2000/svg" width="161.8" height="100.0" viewBox="-85.902 -5.000 171.803 110.000">
<g fill="none" stroke="black" stroke-width="0.0037%" transform="translate(0, 100.0000) scale(133.3333, -133.3333)">
<polyline points="-0.607,0.000 -0.595,0.030 -0.582,0.059 -0.570,0.087 -0.558,0.115 -0.546,0.143 -0.534,0.169 -0.522,0.195 -0.510,0.221 -0.498,0.246 -0.485,0.270 -0.473,0.294 -0.461,0.317 -0.449,0.339 -0.437,0.361 -0.425,0.383 -0.413,0.403 -0.400,0.423 -0.388,0.443 -0.376,0.462 -0.364,0.480 -0.352,0.498 -0.340,0.515 -0.328,0.531 -0.316,0.547 -0.303,0.563 -0.291,0.577 -0.279,0.591 -0.267,0.605 -0.255,0.618 -0.243,0.630 -0.231,0.642 -0.218,0.653 -0.206,0.663 -0.194,0.673 -0.182,0.683 -0.170,0.691 -0.158,0.699 -0.146,0.707 -0.133,0.714 -0.121,0.720 -0.109,0.726 -0.097,0.731 -0.085,0.735 -0.073,0.739 -0.061,0.743 -0.049,0.745 -0.036,0.747 -0.024,0.749 -0.012,0.750 0.000,0.750 0.012,0.750 0.024,0.749 0.036,0.747 0.049,0.745 0.061,0.742 0.073,0.739 0.085,0.735 0.097,0.731 0.109,0.726 0.121,0.720 0.133,0.714 0.146,0.707 0.158,0.699 0.170,0.691 0.182,0.682 0.194,0.673 0.206,0.663 0.218,0.653 0.231,0.642 0.243,0.630 0.255,0.618 0.267,0.605 0.279,0.591 0.291,0.577 0.303,0.562 0.316,0.547 0.328,0.531 0.340,0.515 0.352,0.498 0.364,0.480 0.376,0.462 0.388,0.443 0.400,0.423 0.413,0.403 0.425,0.382 0.437,0.361 0.449,0.339 0.461,0.317 0.473,0.294 0.485,0.270 0.498,0.246 0.510,0.221 0.522,0.195 0.534,0.169 0.546,0.142 0.558,0.115 0.570,0.087 0.582,0.059 0.595,0.030 0.607,0.000" />
</g>
</svg>