<svg xmlns="http://www.w3.org/2000/svg" width="70.8" height="100.0" viewBox="-40.40 -55.00 80.79 110.00">
<g fill="none" stroke="black" stroke-width="0.0399%" transform="translate(0, -0.0000) scale(12.5193, -12.5193)">
<polyline points="2.00,0.00 2.01,0.00 2.05,0.01 2.11,0.03 2.18,0.07 2.28,0.13 2.38,0.21 2.48,0.33 2.58,0.47 2.67,0.65 2.75,0.86 2.80,1.09 2.83,1.35 2.82,1.62 2.77,1.91 2.68,2.21 2.55,2.50 2.38,2.79 2.16,3.06 1.91,3.31 1.62,3.52 1.29,3.71 0.94,3.85 0.57,3.94 0.19,3.99 -0.19,3.99 -0.57,3.94 -0.94,3.85 -1.29,3.71 -1.62,3.52 -1.91,3.31 -2.16,3.06 -2.38,2.79 -2.55,2.50 -2.68,2.21 -2.77,1.91 -2.82,1.62 -2.83,1.35 -2.80,1.09 -2.75,0.86 -2.67,0.65 -2.58,0.47 -2.48,0.33 -2.38,0.21 -2.28,0.13 -2.18,0.07 -2.11,0.03 -2.05,0.01 -2.01,0.00 -2.00,-0.00 -2.01,-0.00 -2.05,-0.01 -2.11,-0.03 -2.18,-0.07 -2.28,-0.13 -2.38,-0.21 -2.48,-0.33 -2.58,-0.47 -2.67,-0.65 -2.75,-0.86 -2.80,-1.09 -2.83,-1.35 -2.82,-1.62 -2.77,-1.91 -2.68,-2.21 -2.55,-2.50 -2.38,-2.79 -2.16,-3.06 -1.91,-3.31 -1.62,-3.52 -1.29,-3.71 -0.94,-3.85 -0.57,-3.94 -0.19,-3.99 0.19,-3.99 0.57,-3.94 0.94,-3.85 1.29,-3.71 1.62,-3.52 1.91,-3.31 2.16,-3.06 2.38,-2.79 2.55,-2.50 2.68,-2.21 2.77,-1.91 2.82,-1.62 2.83,-1.35 2.80,-1.09 2.75,-0.86 2.67,-0.65 2.58,-0.47 2.48,-0.33 2.38,-0.21 2.28,-0.13 2.18,-0.07 2.11,-0.03 2.05,-0.01 2.01,-0.00 2.00,0.00" />
</g>
</svg>