<svg xmlns="http://www.w3.org/2000/svg" width="86.6" height="100.0" viewBox="-62.76 -55.00 96.63 110.00">
<g fill="none" stroke="black" stroke-width="0.0260%" transform="translate(0, -0.0000) scale(19.2538, -19.2538)">
<polyline points="1.00,0.00 1.00,0.00 1.02,0.00 1.04,0.01 1.06,0.02 1.10,0.03 1.14,0.05 1.18,0.09 1.22,0.13 1.27,0.18 1.32,0.24 1.36,0.31 1.40,0.39 1.44,0.49 1.47,0.59 1.49,0.70 1.50,0.82 1.50,0.95 1.48,1.09 1.45,1.23 1.41,1.37 1.35,1.52 1.27,1.66 1.17,1.80 1.06,1.93 0.93,2.06 0.79,2.18 0.63,2.29 0.46,2.38 0.27,2.46 0.07,2.53 -0.14,2.57 -0.35,2.59 -0.57,2.60 -0.80,2.58 -1.02,2.54 -1.25,2.48 -1.47,2.39 -1.68,2.28 -1.89,2.15 -2.08,2.01 -2.26,1.84 -2.43,1.65 -2.57,1.45 -2.70,1.23 -2.81,1.00 -2.89,0.76 -2.95,0.51 -2.99,0.26 -3.00,-0.00 -2.99,-0.26 -2.95,-0.51 -2.89,-0.76 -2.81,-1.00 -2.70,-1.23 -2.57,-1.45 -2.43,-1.65 -2.26,-1.84 -2.08,-2.01 -1.89,-2.15 -1.68,-2.28 -1.47,-2.39 -1.25,-2.48 -1.02,-2.54 -0.80,-2.58 -0.57,-2.60 -0.35,-2.59 -0.14,-2.57 0.07,-2.53 0.27,-2.46 0.46,-2.38 0.63,-2.29 0.79,-2.18 0.93,-2.06 1.06,-1.93 1.17,-1.80 1.27,-1.66 1.35,-1.52 1.41,-1.37 1.45,-1.23 1.48,-1.09 1.50,-0.95 1.50,-0.82 1.49,-0.70 1.47,-0.59 1.44,-0.49 1.40,-0.39 1.36,-0.31 1.32,-0.24 1.27,-0.18 1.22,-0.13 1.18,-0.09 1.14,-0.05 1.10,-0.03 1.06,-0.02 1.04,-0.01 1.02,-0.00 1.00,-0.00 1.00,0.00" />
</g>
</svg>