<svg xmlns="http://www.w3.org/2000/svg" width="98.5" height="100.0" viewBox="-55.79 -55.00 108.47 110.00">
<g fill="none" stroke="black" stroke-width="0.1280%" transform="translate(0, 0.0000) scale(3.9070, -3.9070)">
<circle cx="-13.00" cy="0.00" r="0.13" />
<circle cx="0.00" cy="12.80" r="0.13" />
<polyline points="-1.00,0.00 -0.52,-2.20 0.85,-4.04 2.91,-5.21 5.37,-5.49 7.87,-4.80 10.04,-3.18 11.56,-0.82 12.20,2.01 11.85,4.96 10.52,7.64 8.37,9.73 5.69,10.98 2.80,11.25 0.07,10.53 -2.14,8.97 -3.57,6.81 -4.05,4.38 -3.58,2.06 -2.25,0.19 -0.31,-0.95 1.93,-1.17 4.10,-0.44 5.85,1.16 6.89,3.41 7.00,6.00 6.13,8.57 4.35,10.74 1.86,12.23 -1.05,12.80 -4.02,12.36 -6.67,10.97 -8.69,8.80 -9.84,6.14 -10.00,3.33 -9.19,0.74 -7.58,-1.29 -5.42,-2.50 -3.06,-2.77 -0.87,-2.09 0.81,-0.59 1.71,1.47 1.69,3.77 0.71,5.93 -1.12,7.60 -3.54,8.51 -6.25,8.48 -8.87,7.46 -11.06,5.54 -12.50,2.95 -13.00,-0.00 -12.50,-2.95 -11.06,-5.54 -8.87,-7.46 -6.25,-8.48 -3.54,-8.51 -1.12,-7.60 0.71,-5.93 1.69,-3.77 1.71,-1.47 0.81,0.59 -0.87,2.09 -3.06,2.77 -5.42,2.50 -7.58,1.29 -9.19,-0.74 -10.00,-3.33 -9.84,-6.14 -8.69,-8.80 -6.67,-10.97 -4.02,-12.36 -1.05,-12.80 1.86,-12.23 4.35,-10.74 6.13,-8.57 7.00,-6.00 6.89,-3.41 5.85,-1.16 4.10,0.44 1.93,1.17 -0.31,0.95 -2.25,-0.19 -3.58,-2.06 -4.05,-4.38 -3.57,-6.81 -2.14,-8.97 0.07,-10.53 2.80,-11.25 5.69,-10.98 8.37,-9.73 10.52,-7.64 11.85,-4.96 12.20,-2.01 11.56,0.82 10.04,3.18 7.87,4.80 5.37,5.49 2.91,5.21 0.85,4.04 -0.52,2.20" />
</g>
</svg>