<svg xmlns="http://www.w3.org/2000/svg" width="161.8" height="100.0" viewBox="-85.902 -55.000 171.803 110.000">
<g fill="none" stroke="black" stroke-width="0.0100%" transform="translate(0, 0.0000) scale(50.0011, -50.0011)">
<circle cx="-1.618" cy="0.000" r="0.010" />
<circle cx="0.000" cy="1.000" r="0.010" />
<polyline points="-1.618,-1.000 -1.586,-1.000 -1.553,-1.000 -1.521,-1.000 -1.489,-1.000 -1.456,-1.000 -1.424,-1.000 -1.391,-1.000 -1.359,-1.000 -1.327,-0.999 -1.294,-0.999 -1.262,-0.999 -1.230,-0.999 -1.197,-0.998 -1.165,-0.998 -1.133,-0.997 -1.100,-0.996 -1.068,-0.995 -1.036,-0.993 -1.003,-0.991 -0.971,-0.989 -0.938,-0.986 -0.906,-0.982 -0.874,-0.978 -0.841,-0.973 -0.809,-0.966 -0.777,-0.958 -0.744,-0.949 -0.712,-0.938 -0.680,-0.925 -0.647,-0.910 -0.615,-0.893 -0.582,-0.873 -0.550,-0.851 -0.518,-0.825 -0.485,-0.797 -0.453,-0.765 -0.421,-0.730 -0.388,-0.691 -0.356,-0.649 -0.324,-0.604 -0.291,-0.555 -0.259,-0.503 -0.227,-0.447 -0.194,-0.389 -0.162,-0.329 -0.129,-0.266 -0.097,-0.201 -0.065,-0.135 -0.032,-0.068 0.000,0.000 0.032,0.068 0.065,0.135 0.097,0.201 0.129,0.266 0.162,0.329 0.194,0.389 0.227,0.447 0.259,0.503 0.291,0.555 0.324,0.604 0.356,0.649 0.388,0.691 0.421,0.730 0.453,0.765 0.485,0.797 0.518,0.825 0.550,0.851 0.582,0.873 0.615,0.893 0.647,0.910 0.680,0.925 0.712,0.938 0.744,0.949 0.777,0.958 0.809,0.966 0.841,0.973 0.874,0.978 0.906,0.982 0.938,0.986 0.971,0.989 1.003,0.991 1.036,0.993 1.068,0.995 1.100,0.996 1.133,0.997 1.165,0.998 1.197,0.998 1.230,0.999 1.262,0.999 1.294,0.999 1.327,0.999 1.359,1.000 1.391,1.000 1.424,1.000 1.456,1.000 1.489,1.000 1.521,1.000 1.553,1.000 1.586,1.000 1.618,1.000" />
</g>
</svg>