<svg xmlns="http://www.w3.org/2000/svg" width="161.8" height="100.0" viewBox="-85.902 -4.999 171.803 110.000">
<g fill="none" stroke="black" stroke-width="0.0100%" transform="translate(0, 100.0022) scale(50.0011, -50.0011)">
<circle cx="0.000" cy="2.000" r="0.010" />
<polyline points="-1.618,2.000 -1.586,2.000 -1.553,2.000 -1.521,2.000 -1.489,2.000 -1.456,2.000 -1.424,2.000 -1.391,2.000 -1.359,2.000 -1.327,1.999 -1.294,1.999 -1.262,1.999 -1.230,1.999 -1.197,1.998 -1.165,1.998 -1.133,1.997 -1.100,1.996 -1.068,1.995 -1.036,1.993 -1.003,1.991 -0.971,1.989 -0.938,1.986 -0.906,1.982 -0.874,1.978 -0.841,1.973 -0.809,1.966 -0.777,1.958 -0.744,1.949 -0.712,1.938 -0.680,1.925 -0.647,1.910 -0.615,1.893 -0.582,1.873 -0.550,1.851 -0.518,1.825 -0.485,1.797 -0.453,1.765 -0.421,1.730 -0.388,1.691 -0.356,1.649 -0.324,1.604 -0.291,1.555 -0.259,1.503 -0.227,1.447 -0.194,1.389 -0.162,1.329 -0.129,1.266 -0.097,1.201 -0.065,1.135 -0.032,1.068 0.000,1.000 0.032,0.932 0.065,0.865 0.097,0.799 0.129,0.734 0.162,0.671 0.194,0.611 0.227,0.553 0.259,0.497 0.291,0.445 0.324,0.396 0.356,0.351 0.388,0.309 0.421,0.270 0.453,0.235 0.485,0.203 0.518,0.175 0.550,0.149 0.582,0.127 0.615,0.107 0.647,0.090 0.680,0.075 0.712,0.062 0.744,0.051 0.777,0.042 0.809,0.034 0.841,0.027 0.874,0.022 0.906,0.018 0.938,0.014 0.971,0.011 1.003,0.009 1.036,0.007 1.068,0.005 1.100,0.004 1.133,0.003 1.165,0.002 1.197,0.002 1.230,0.001 1.262,0.001 1.294,0.001 1.327,0.001 1.359,0.000 1.391,0.000 1.424,0.000 1.456,0.000 1.489,0.000 1.521,0.000 1.553,0.000 1.586,0.000 1.618,0.000" />
</g>
</svg>