<svg xmlns="http://www.w3.org/2000/svg" width="161.8" height="100.0" viewBox="-4 -5 172 110">
<g fill="none" stroke="black" stroke-width="5.3050%" transform="translate(0, 100.1885) scale(0.0943, -0.0943)">
<circle cx="7" cy="1" r="5" />
<circle cx="14" cy="4" r="5" />
<circle cx="21" cy="6" r="5" />
<circle cx="28" cy="9" r="5" />
<circle cx="34" cy="10" r="5" />
<circle cx="41" cy="18" r="5" />
<circle cx="48" cy="14" r="5" />
<circle cx="55" cy="20" r="5" />
<circle cx="62" cy="20" r="5" />
<circle cx="69" cy="30" r="5" />
<circle cx="76" cy="22" r="5" />
<circle cx="83" cy="38" r="5" />
<circle cx="90" cy="26" r="5" />
<circle cx="97" cy="42" r="5" />
<circle cx="103" cy="40" r="5" />
<circle cx="110" cy="42" r="5" />
<circle cx="117" cy="34" r="5" />
<circle cx="124" cy="62" r="5" />
<circle cx="131" cy="38" r="5" />
<circle cx="138" cy="60" r="5" />
<circle cx="145" cy="56" r="5" />
<circle cx="152" cy="66" r="5" />
<circle cx="159" cy="46" r="5" />
<circle cx="165" cy="82" r="5" />
<circle cx="172" cy="54" r="5" />
<circle cx="179" cy="78" r="5" />
<circle cx="186" cy="66" r="5" />
<circle cx="193" cy="84" r="5" />
<circle cx="200" cy="58" r="5" />
<circle cx="207" cy="122" r="5" />
<circle cx="214" cy="62" r="5" />
<circle cx="221" cy="88" r="5" />
<circle cx="228" cy="88" r="5" />
<circle cx="234" cy="102" r="5" />
<circle cx="241" cy="84" r="5" />
<circle cx="248" cy="126" r="5" />
<circle cx="255" cy="74" r="5" />
<circle cx="262" cy="114" r="5" />
<circle cx="269" cy="104" r="5" />
<circle cx="276" cy="126" r="5" />
<circle cx="283" cy="82" r="5" />
<circle cx="290" cy="168" r="5" />
<circle cx="296" cy="86" r="5" />
<circle cx="303" cy="132" r="5" />
<circle cx="310" cy="128" r="5" />
<circle cx="317" cy="138" r="5" />
<circle cx="324" cy="94" r="5" />
<circle cx="331" cy="172" r="5" />
<circle cx="338" cy="104" r="5" />
<circle cx="345" cy="166" r="5" />
<circle cx="352" cy="136" r="5" />
<circle cx="359" cy="156" r="5" />
<circle cx="365" cy="106" r="5" />
<circle cx="372" cy="198" r="5" />
<circle cx="379" cy="132" r="5" />
<circle cx="386" cy="170" r="5" />
<circle cx="393" cy="152" r="5" />
<circle cx="400" cy="174" r="5" />
<circle cx="407" cy="118" r="5" />
<circle cx="414" cy="254" r="5" />
<circle cx="421" cy="122" r="5" />
<circle cx="427" cy="186" r="5" />
<circle cx="434" cy="172" r="5" />
<circle cx="441" cy="180" r="5" />
<circle cx="448" cy="156" r="5" />
<circle cx="455" cy="264" r="5" />
<circle cx="462" cy="134" r="5" />
<circle cx="469" cy="204" r="5" />
<circle cx="476" cy="184" r="5" />
<circle cx="483" cy="258" r="5" />
<circle cx="490" cy="142" r="5" />
<circle cx="496" cy="256" r="5" />
<circle cx="503" cy="146" r="5" />
<circle cx="510" cy="222" r="5" />
<circle cx="517" cy="224" r="5" />
<circle cx="524" cy="228" r="5" />
<circle cx="531" cy="176" r="5" />
<circle cx="538" cy="312" r="5" />
<circle cx="545" cy="158" r="5" />
<circle cx="552" cy="262" r="5" />
<circle cx="558" cy="204" r="5" />
<circle cx="565" cy="246" r="5" />
<circle cx="572" cy="166" r="5" />
<circle cx="579" cy="346" r="5" />
<circle cx="586" cy="204" r="5" />
<circle cx="593" cy="258" r="5" />
<circle cx="600" cy="232" r="5" />
<circle cx="607" cy="264" r="5" />
<circle cx="614" cy="178" r="5" />
<circle cx="621" cy="386" r="5" />
<circle cx="627" cy="208" r="5" />
<circle cx="634" cy="276" r="5" />
<circle cx="641" cy="248" r="5" />
<circle cx="648" cy="282" r="5" />
<circle cx="655" cy="228" r="5" />
<circle cx="662" cy="356" r="5" />
<circle cx="669" cy="194" r="5" />
<circle cx="676" cy="318" r="5" />
<circle cx="683" cy="264" r="5" />
<circle cx="689" cy="336" r="5" />
<circle cx="696" cy="202" r="5" />
<circle cx="703" cy="408" r="5" />
<circle cx="710" cy="206" r="5" />
<circle cx="717" cy="312" r="5" />
<circle cx="724" cy="352" r="5" />
<circle cx="731" cy="318" r="5" />
<circle cx="738" cy="214" r="5" />
<circle cx="745" cy="400" r="5" />
<circle cx="752" cy="218" r="5" />
<circle cx="758" cy="396" r="5" />
<circle cx="765" cy="296" r="5" />
<circle cx="772" cy="354" r="5" />
<circle cx="779" cy="226" r="5" />
<circle cx="786" cy="456" r="5" />
<circle cx="793" cy="276" r="5" />
<circle cx="800" cy="348" r="5" />
<circle cx="807" cy="312" r="5" />
<circle cx="814" cy="354" r="5" />
<circle cx="820" cy="272" r="5" />
<circle cx="827" cy="520" r="5" />
<circle cx="834" cy="252" r="5" />
<circle cx="841" cy="366" r="5" />
<circle cx="848" cy="328" r="5" />
<circle cx="855" cy="372" r="5" />
<circle cx="862" cy="290" r="5" />
<circle cx="869" cy="526" r="5" />
<circle cx="876" cy="254" r="5" />
<circle cx="882" cy="368" r="5" />
<circle cx="889" cy="344" r="5" />
<circle cx="896" cy="468" r="5" />
<circle cx="903" cy="262" r="5" />
<circle cx="910" cy="530" r="5" />
<circle cx="917" cy="304" r="5" />
<circle cx="924" cy="402" r="5" />
<circle cx="931" cy="404" r="5" />
<circle cx="938" cy="408" r="5" />
<circle cx="945" cy="274" r="5" />
<circle cx="951" cy="552" r="5" />
<circle cx="958" cy="278" r="5" />
<circle cx="965" cy="530" r="5" />
<circle cx="972" cy="376" r="5" />
<circle cx="979" cy="426" r="5" />
<circle cx="986" cy="312" r="5" />
<circle cx="993" cy="530" r="5" />
<circle cx="1000" cy="348" r="5" />
<circle cx="1007" cy="438" r="5" />
<circle cx="1013" cy="428" r="5" />
<circle cx="1020" cy="444" r="5" />
<circle cx="1027" cy="298" r="5" />
<circle cx="1034" cy="672" r="5" />
<circle cx="1041" cy="302" r="5" />
<circle cx="1048" cy="456" r="5" />
<circle cx="1055" cy="408" r="5" />
<circle cx="1062" cy="534" r="5" />
<circle cx="1069" cy="372" r="5" />
<circle cx="1076" cy="624" r="5" />
<circle cx="1082" cy="314" r="5" />
<circle cx="1089" cy="474" r="5" />
<circle cx="1096" cy="424" r="5" />
<circle cx="1103" cy="540" r="5" />
<circle cx="1110" cy="368" r="5" />
<circle cx="1117" cy="618" r="5" />
<circle cx="1124" cy="326" r="5" />
<circle cx="1131" cy="492" r="5" />
<circle cx="1138" cy="536" r="5" />
<circle cx="1144" cy="498" r="5" />
<circle cx="1151" cy="334" r="5" />
<circle cx="1158" cy="706" r="5" />
<circle cx="1165" cy="350" r="5" />
<circle cx="1172" cy="612" r="5" />
<circle cx="1179" cy="456" r="5" />
<circle cx="1186" cy="516" r="5" />
<circle cx="1193" cy="346" r="5" />
<circle cx="1200" cy="696" r="5" />
<circle cx="1207" cy="456" r="5" />
<circle cx="1213" cy="538" r="5" />
<circle cx="1220" cy="472" r="5" />
<circle cx="1227" cy="534" r="5" />
<circle cx="1234" cy="358" r="5" />
<circle cx="1241" cy="790" r="5" />
<circle cx="1248" cy="362" r="5" />
<circle cx="1255" cy="626" r="5" />
<circle cx="1262" cy="488" r="5" />
<circle cx="1269" cy="552" r="5" />
<circle cx="1275" cy="444" r="5" />
<circle cx="1282" cy="744" r="5" />
<circle cx="1289" cy="408" r="5" />
<circle cx="1296" cy="564" r="5" />
<circle cx="1303" cy="544" r="5" />
<circle cx="1310" cy="684" r="5" />
<circle cx="1317" cy="382" r="5" />
<circle cx="1324" cy="728" r="5" />
<circle cx="1331" cy="386" r="5" />
<circle cx="1338" cy="582" r="5" />
<circle cx="1344" cy="628" r="5" />
<circle cx="1351" cy="642" r="5" />
<circle cx="1358" cy="394" r="5" />
<circle cx="1365" cy="806" r="5" />
<circle cx="1372" cy="398" r="5" />
<circle cx="1379" cy="680" r="5" />
<circle cx="1386" cy="536" r="5" />
<circle cx="1393" cy="606" r="5" />
<circle cx="1400" cy="464" r="5" />
<circle cx="1406" cy="816" r="5" />
<circle cx="1413" cy="492" r="5" />
<circle cx="1420" cy="618" r="5" />
<circle cx="1427" cy="552" r="5" />
<circle cx="1434" cy="630" r="5" />
<circle cx="1441" cy="456" r="5" />
<circle cx="1448" cy="1056" r="5" />
<circle cx="1455" cy="422" r="5" />
<circle cx="1462" cy="636" r="5" />
<circle cx="1469" cy="568" r="5" />
<circle cx="1475" cy="642" r="5" />
<circle cx="1482" cy="516" r="5" />
<circle cx="1489" cy="812" r="5" />
<circle cx="1496" cy="496" r="5" />
<circle cx="1503" cy="654" r="5" />
<circle cx="1510" cy="584" r="5" />
<circle cx="1517" cy="810" r="5" />
<circle cx="1524" cy="476" r="5" />
<circle cx="1531" cy="888" r="5" />
<circle cx="1537" cy="446" r="5" />
<circle cx="1544" cy="724" r="5" />
<circle cx="1551" cy="680" r="5" />
<circle cx="1558" cy="678" r="5" />
<circle cx="1565" cy="454" r="5" />
<circle cx="1572" cy="912" r="5" />
<circle cx="1579" cy="458" r="5" />
<circle cx="1586" cy="828" r="5" />
<circle cx="1593" cy="724" r="5" />
<circle cx="1600" cy="696" r="5" />
<circle cx="1606" cy="466" r="5" />
<circle cx="1613" cy="946" r="5" />
<circle cx="1620" cy="564" r="5" />
<circle cx="1627" cy="708" r="5" />
<circle cx="1634" cy="632" r="5" />
<circle cx="1641" cy="816" r="5" />
<circle cx="1648" cy="478" r="5" />
<circle cx="1655" cy="1062" r="5" />
<circle cx="1662" cy="482" r="5" />
<circle cx="1668" cy="766" r="5" />
<circle cx="1675" cy="630" r="5" />
<circle cx="1682" cy="732" r="5" />
<circle cx="1689" cy="648" r="5" />
<circle cx="1696" cy="984" r="5" />
<circle cx="1703" cy="532" r="5" />
<circle cx="1710" cy="744" r="5" />
<circle cx="1717" cy="664" r="5" />
<circle cx="1724" cy="870" r="5" />
</g>
</svg>