<svg xmlns="http://www.w3.org/2000/svg" width="102.7" height="100.0" viewBox="-35.137 -5.000 112.740 110.000">
<g fill="none" stroke="black" stroke-width="0.0091%" transform="translate(0, 100.0000) scale(54.7945, -54.7945)">
<circle cx="0.000" cy="0.000" r="0.009" />
<circle cx="-0.200" cy="1.100" r="0.009" />
<circle cx="0.650" cy="0.450" r="0.009" />
<circle cx="0.450" cy="1.550" r="0.009" />
<circle cx="1.125" cy="0.375" r="0.009" />
<circle cx="0.325" cy="1.275" r="0.009" />
<circle cx="-0.550" cy="0.550" r="0.009" />
<circle cx="0.975" cy="1.725" r="0.009" />
<circle cx="-0.025" cy="0.725" r="0.009" />
<circle cx="0.800" cy="0.100" r="0.009" />
<circle cx="-0.225" cy="1.825" r="0.009" />
<circle cx="0.000" cy="1.000" r="0.009" />
<circle cx="0.650" cy="1.450" r="0.009" />
<circle cx="1.325" cy="0.275" r="0.009" />
<circle cx="1.125" cy="1.375" r="0.009" />
<circle cx="-0.350" cy="0.450" r="0.009" />
<circle cx="-0.550" cy="1.550" r="0.009" />
<circle cx="0.125" cy="0.375" r="0.009" />
<circle cx="0.775" cy="0.825" r="0.009" />
<circle cx="1.000" cy="0.000" r="0.009" />
<circle cx="-0.025" cy="1.725" r="0.009" />
<circle cx="0.800" cy="1.100" r="0.009" />
<circle cx="-0.200" cy="0.100" r="0.009" />
<circle cx="1.325" cy="1.275" r="0.009" />
<circle cx="0.450" cy="0.550" r="0.009" />
<circle cx="-0.350" cy="1.450" r="0.009" />
<circle cx="0.325" cy="0.275" r="0.009" />
<circle cx="0.125" cy="1.375" r="0.009" />
<circle cx="0.975" cy="0.725" r="0.009" />
<circle cx="0.775" cy="1.825" r="0.009" />
<circle cx="1.000" cy="1.000" r="0.009" />
<circle cx="-0.225" cy="0.825" r="0.009" />
<line x1="0.000" y1="0.000" x2="0.000" y2="1.000" />
<line x1="0.000" y1="0.000" x2="-0.350" y2="0.450" />
<line x1="0.000" y1="0.000" x2="1.000" y2="0.000" />
<line x1="0.000" y1="0.000" x2="-0.200" y2="0.100" />
<line x1="0.000" y1="0.000" x2="0.325" y2="0.275" />
<line x1="-0.200" y1="1.100" x2="0.000" y2="1.000" />
<line x1="-0.200" y1="1.100" x2="-0.550" y2="1.550" />
<line x1="-0.200" y1="1.100" x2="0.800" y2="1.100" />
<line x1="-0.200" y1="1.100" x2="-0.200" y2="0.100" />
<line x1="-0.200" y1="1.100" x2="0.125" y2="1.375" />
<line x1="0.650" y1="0.450" x2="0.650" y2="1.450" />
<line x1="0.650" y1="0.450" x2="-0.350" y2="0.450" />
<line x1="0.650" y1="0.450" x2="1.000" y2="0.000" />
<line x1="0.650" y1="0.450" x2="0.450" y2="0.550" />
<line x1="0.650" y1="0.450" x2="0.975" y2="0.725" />
<line x1="0.450" y1="1.550" x2="0.650" y2="1.450" />
<line x1="0.450" y1="1.550" x2="-0.550" y2="1.550" />
<line x1="0.450" y1="1.550" x2="0.800" y2="1.100" />
<line x1="0.450" y1="1.550" x2="0.450" y2="0.550" />
<line x1="0.450" y1="1.550" x2="0.775" y2="1.825" />
<line x1="1.125" y1="0.375" x2="0.800" y2="0.100" />
<line x1="1.125" y1="0.375" x2="1.325" y2="0.275" />
<line x1="1.125" y1="0.375" x2="1.125" y2="1.375" />
<line x1="1.125" y1="0.375" x2="0.125" y2="0.375" />
<line x1="1.125" y1="0.375" x2="0.775" y2="0.825" />
<line x1="0.325" y1="1.275" x2="0.000" y2="1.000" />
<line x1="0.325" y1="1.275" x2="-0.025" y2="1.725" />
<line x1="0.325" y1="1.275" x2="1.325" y2="1.275" />
<line x1="0.325" y1="1.275" x2="0.325" y2="0.275" />
<line x1="0.325" y1="1.275" x2="0.125" y2="1.375" />
<line x1="-0.550" y1="0.550" x2="-0.350" y2="0.450" />
<line x1="-0.550" y1="0.550" x2="-0.550" y2="1.550" />
<line x1="-0.550" y1="0.550" x2="-0.200" y2="0.100" />
<line x1="-0.550" y1="0.550" x2="0.450" y2="0.550" />
<line x1="-0.550" y1="0.550" x2="-0.225" y2="0.825" />
<line x1="0.975" y1="1.725" x2="0.650" y2="1.450" />
<line x1="0.975" y1="1.725" x2="-0.025" y2="1.725" />
<line x1="0.975" y1="1.725" x2="1.325" y2="1.275" />
<line x1="0.975" y1="1.725" x2="0.975" y2="0.725" />
<line x1="0.975" y1="1.725" x2="0.775" y2="1.825" />
<line x1="-0.025" y1="0.725" x2="-0.350" y2="0.450" />
<line x1="-0.025" y1="0.725" x2="-0.025" y2="1.725" />
<line x1="-0.025" y1="0.725" x2="0.325" y2="0.275" />
<line x1="-0.025" y1="0.725" x2="0.975" y2="0.725" />
<line x1="-0.025" y1="0.725" x2="-0.225" y2="0.825" />
<line x1="0.800" y1="0.100" x2="1.000" y2="0.000" />
<line x1="0.800" y1="0.100" x2="0.800" y2="1.100" />
<line x1="0.800" y1="0.100" x2="-0.200" y2="0.100" />
<line x1="0.800" y1="0.100" x2="0.450" y2="0.550" />
<line x1="-0.225" y1="1.825" x2="-0.550" y2="1.550" />
<line x1="-0.225" y1="1.825" x2="-0.025" y2="1.725" />
<line x1="-0.225" y1="1.825" x2="0.125" y2="1.375" />
<line x1="-0.225" y1="1.825" x2="0.775" y2="1.825" />
<line x1="-0.225" y1="1.825" x2="-0.225" y2="0.825" />
<line x1="0.000" y1="1.000" x2="-0.350" y2="1.450" />
<line x1="0.000" y1="1.000" x2="1.000" y2="1.000" />
<line x1="0.650" y1="1.450" x2="-0.350" y2="1.450" />
<line x1="0.650" y1="1.450" x2="1.000" y2="1.000" />
<line x1="1.325" y1="0.275" x2="1.000" y2="0.000" />
<line x1="1.325" y1="0.275" x2="1.325" y2="1.275" />
<line x1="1.325" y1="0.275" x2="0.325" y2="0.275" />
<line x1="1.325" y1="0.275" x2="0.975" y2="0.725" />
<line x1="1.125" y1="1.375" x2="0.800" y2="1.100" />
<line x1="1.125" y1="1.375" x2="1.325" y2="1.275" />
<line x1="1.125" y1="1.375" x2="0.125" y2="1.375" />
<line x1="1.125" y1="1.375" x2="0.775" y2="1.825" />
<line x1="-0.350" y1="0.450" x2="-0.350" y2="1.450" />
<line x1="-0.550" y1="1.550" x2="-0.350" y2="1.450" />
<line x1="0.125" y1="0.375" x2="-0.200" y2="0.100" />
<line x1="0.125" y1="0.375" x2="0.325" y2="0.275" />
<line x1="0.125" y1="0.375" x2="0.125" y2="1.375" />
<line x1="0.125" y1="0.375" x2="-0.225" y2="0.825" />
<line x1="0.775" y1="0.825" x2="0.450" y2="0.550" />
<line x1="0.775" y1="0.825" x2="0.975" y2="0.725" />
<line x1="0.775" y1="0.825" x2="0.775" y2="1.825" />
<line x1="0.775" y1="0.825" x2="-0.225" y2="0.825" />
<line x1="1.000" y1="0.000" x2="1.000" y2="1.000" />
<line x1="-0.025" y1="1.725" x2="-0.350" y2="1.450" />
<line x1="0.800" y1="1.100" x2="1.000" y2="1.000" />
<line x1="1.325" y1="1.275" x2="1.000" y2="1.000" />
</g>
</svg>