<svg xmlns="http://www.w3.org/2000/svg" width="161.8" height="100.0" viewBox="-2 -5 172 110">
<g fill="none" stroke="black" stroke-width="3.8650%" transform="translate(0, 100.2587) scale(0.1294, -0.1294)">
<polyline points="26,1 51,2 77,4 102,6 128,10 153,12 179,18 204,22 230,28 255,32 281,42 306,46 332,58 357,64 383,72 408,80 434,96 459,102 485,120 511,128 536,140 562,150 587,172 613,180 638,200 664,212 689,230 715,242 740,270 766,278 791,308 817,324 842,344 868,360 893,384 919,396 944,432 970,450 995,474 1021,490 1047,530 1072,542 1098,584 1123,604 1149,628 1174,650 1200,696 1225,712 1251,754 1276,774" />
</g>
</svg>