<svg xmlns="http://www.w3.org/2000/svg" width="161.5" height="100.0" viewBox="-3 -5 172 110">
<g fill="none" stroke="black" stroke-width="2.8350%" transform="translate(0, 100.0000) scale(0.1764, -0.1764)">
<line x1="9" y1="0" x2="9" y2="1" />
<line x1="19" y1="0" x2="19" y2="3" />
<line x1="28" y1="0" x2="28" y2="5" />
<line x1="37" y1="0" x2="37" y2="8" />
<line x1="47" y1="0" x2="47" y2="9" />
<line x1="56" y1="0" x2="56" y2="15" />
<line x1="65" y1="0" x2="65" y2="13" />
<line x1="75" y1="0" x2="75" y2="20" />
<line x1="84" y1="0" x2="84" y2="21" />
<line x1="93" y1="0" x2="93" y2="27" />
<line x1="103" y1="0" x2="103" y2="21" />
<line x1="112" y1="0" x2="112" y2="40" />
<line x1="121" y1="0" x2="121" y2="25" />
<line x1="131" y1="0" x2="131" y2="39" />
<line x1="140" y1="0" x2="140" y2="45" />
<line x1="150" y1="0" x2="150" y2="48" />
<line x1="159" y1="0" x2="159" y2="33" />
<line x1="168" y1="0" x2="168" y2="63" />
<line x1="178" y1="0" x2="178" y2="37" />
<line x1="187" y1="0" x2="187" y2="72" />
<line x1="196" y1="0" x2="196" y2="65" />
<line x1="206" y1="0" x2="206" y2="63" />
<line x1="215" y1="0" x2="215" y2="45" />
<line x1="224" y1="0" x2="224" y2="100" />
<line x1="234" y1="0" x2="234" y2="65" />
<line x1="243" y1="0" x2="243" y2="75" />
<line x1="252" y1="0" x2="252" y2="81" />
<line x1="262" y1="0" x2="262" y2="104" />
<line x1="271" y1="0" x2="271" y2="57" />
<line x1="280" y1="0" x2="280" y2="135" />
<line x1="290" y1="0" x2="290" y2="61" />
<line x1="299" y1="0" x2="299" y2="112" />
<line x1="308" y1="0" x2="308" y2="105" />
<line x1="318" y1="0" x2="318" y2="99" />
<line x1="327" y1="0" x2="327" y2="117" />
<line x1="336" y1="0" x2="336" y2="168" />
<line x1="346" y1="0" x2="346" y2="73" />
<line x1="355" y1="0" x2="355" y2="111" />
<line x1="364" y1="0" x2="364" y2="125" />
<line x1="374" y1="0" x2="374" y2="180" />
<line x1="383" y1="0" x2="383" y2="81" />
<line x1="392" y1="0" x2="392" y2="195" />
<line x1="402" y1="0" x2="402" y2="85" />
<line x1="411" y1="0" x2="411" y2="168" />
<line x1="421" y1="0" x2="421" y2="189" />
<line x1="430" y1="0" x2="430" y2="135" />
<line x1="439" y1="0" x2="439" y2="93" />
<line x1="449" y1="0" x2="449" y2="240" />
<line x1="458" y1="0" x2="458" y2="133" />
<line x1="467" y1="0" x2="467" y2="195" />
<line x1="477" y1="0" x2="477" y2="165" />
<line x1="486" y1="0" x2="486" y2="200" />
<line x1="495" y1="0" x2="495" y2="105" />
<line x1="505" y1="0" x2="505" y2="243" />
<line x1="514" y1="0" x2="514" y2="189" />
<line x1="523" y1="0" x2="523" y2="260" />
<line x1="533" y1="0" x2="533" y2="185" />
<line x1="542" y1="0" x2="542" y2="171" />
<line x1="551" y1="0" x2="551" y2="117" />
<line x1="561" y1="0" x2="561" y2="360" />
<line x1="570" y1="0" x2="570" y2="121" />
<line x1="579" y1="0" x2="579" y2="183" />
<line x1="589" y1="0" x2="589" y2="273" />
<line x1="598" y1="0" x2="598" y2="256" />
<line x1="607" y1="0" x2="607" y2="225" />
<line x1="617" y1="0" x2="617" y2="315" />
<line x1="626" y1="0" x2="626" y2="133" />
<line x1="635" y1="0" x2="635" y2="264" />
<line x1="645" y1="0" x2="645" y2="225" />
<line x1="654" y1="0" x2="654" y2="351" />
<line x1="663" y1="0" x2="663" y2="141" />
<line x1="673" y1="0" x2="673" y2="420" />
<line x1="682" y1="0" x2="682" y2="145" />
<line x1="692" y1="0" x2="692" y2="219" />
<line x1="701" y1="0" x2="701" y2="325" />
<line x1="710" y1="0" x2="710" y2="296" />
<line x1="720" y1="0" x2="720" y2="273" />
<line x1="729" y1="0" x2="729" y2="375" />
<line x1="738" y1="0" x2="738" y2="157" />
<line x1="748" y1="0" x2="748" y2="432" />
<line x1="757" y1="0" x2="757" y2="297" />
<line x1="766" y1="0" x2="766" y2="243" />
<line x1="776" y1="0" x2="776" y2="165" />
<line x1="785" y1="0" x2="785" y2="520" />
<line x1="794" y1="0" x2="794" y2="297" />
<line x1="804" y1="0" x2="804" y2="255" />
<line x1="813" y1="0" x2="813" y2="285" />
<line x1="822" y1="0" x2="822" y2="420" />
<line x1="832" y1="0" x2="832" y2="177" />
<line x1="841" y1="0" x2="841" y2="567" />
<line x1="850" y1="0" x2="850" y2="325" />
<line x1="860" y1="0" x2="860" y2="360" />
<line x1="869" y1="0" x2="869" y2="305" />
<line x1="878" y1="0" x2="878" y2="279" />
<line x1="888" y1="0" x2="888" y2="333" />
<line x1="897" y1="0" x2="897" y2="560" />
<line x1="906" y1="0" x2="906" y2="193" />
<line x1="916" y1="0" x2="916" y2="399" />
<line x1="925" y1="0" x2="925" y2="441" />
</g>
</svg>