<svg xmlns="http://www.w3.org/2000/svg" width="161.8" height="100.0" viewBox="-3.35 -5.00 171.80 110.00">
<g fill="none" stroke="black" stroke-width="0.0347%" transform="translate(0, 100.0000) scale(14.4270, -14.4270)">
<circle cx="0.11" cy="0.00" r="0.03" />
<circle cx="0.23" cy="0.69" r="0.03" />
<circle cx="0.34" cy="0.69" r="0.03" />
<circle cx="0.46" cy="2.08" r="0.03" />
<circle cx="0.57" cy="0.69" r="0.03" />
<circle cx="0.69" cy="1.39" r="0.03" />
<circle cx="0.80" cy="0.69" r="0.03" />
<circle cx="0.92" cy="2.77" r="0.03" />
<circle cx="1.03" cy="2.08" r="0.03" />
<circle cx="1.14" cy="1.39" r="0.03" />
<circle cx="1.26" cy="0.69" r="0.03" />
<circle cx="1.37" cy="2.77" r="0.03" />
<circle cx="1.49" cy="0.69" r="0.03" />
<circle cx="1.60" cy="1.39" r="0.03" />
<circle cx="1.72" cy="1.39" r="0.03" />
<circle cx="1.83" cy="4.85" r="0.03" />
<circle cx="1.95" cy="0.69" r="0.03" />
<circle cx="2.06" cy="2.77" r="0.03" />
<circle cx="2.17" cy="0.69" r="0.03" />
<circle cx="2.29" cy="2.77" r="0.03" />
<circle cx="2.40" cy="1.39" r="0.03" />
<circle cx="2.52" cy="1.39" r="0.03" />
<circle cx="2.63" cy="0.69" r="0.03" />
<circle cx="2.75" cy="3.47" r="0.03" />
<circle cx="2.86" cy="2.08" r="0.03" />
<circle cx="2.98" cy="1.39" r="0.03" />
<circle cx="3.09" cy="2.77" r="0.03" />
<circle cx="3.20" cy="2.77" r="0.03" />
<circle cx="3.32" cy="0.69" r="0.03" />
<circle cx="3.43" cy="2.08" r="0.03" />
<circle cx="3.55" cy="0.69" r="0.03" />
<circle cx="3.66" cy="5.55" r="0.03" />
<circle cx="3.78" cy="1.39" r="0.03" />
<circle cx="3.89" cy="1.39" r="0.03" />
<circle cx="4.01" cy="1.39" r="0.03" />
<circle cx="4.12" cy="4.16" r="0.03" />
<circle cx="4.23" cy="0.69" r="0.03" />
<circle cx="4.35" cy="1.39" r="0.03" />
<circle cx="4.46" cy="1.39" r="0.03" />
<circle cx="4.58" cy="3.47" r="0.03" />
<circle cx="4.69" cy="0.69" r="0.03" />
<circle cx="4.81" cy="2.08" r="0.03" />
<circle cx="4.92" cy="0.69" r="0.03" />
<circle cx="5.04" cy="2.77" r="0.03" />
<circle cx="5.15" cy="2.77" r="0.03" />
<circle cx="5.26" cy="1.39" r="0.03" />
<circle cx="5.38" cy="0.69" r="0.03" />
<circle cx="5.49" cy="5.55" r="0.03" />
<circle cx="5.61" cy="2.08" r="0.03" />
<circle cx="5.72" cy="2.77" r="0.03" />
<circle cx="5.84" cy="1.39" r="0.03" />
<circle cx="5.95" cy="2.77" r="0.03" />
<circle cx="6.07" cy="0.69" r="0.03" />
<circle cx="6.18" cy="3.47" r="0.03" />
<circle cx="6.29" cy="1.39" r="0.03" />
<circle cx="6.41" cy="3.47" r="0.03" />
<circle cx="6.52" cy="1.39" r="0.03" />
<circle cx="6.64" cy="1.39" r="0.03" />
<circle cx="6.75" cy="0.69" r="0.03" />
<circle cx="6.87" cy="3.47" r="0.03" />
<circle cx="6.98" cy="0.69" r="0.03" />
<circle cx="7.10" cy="1.39" r="0.03" />
<circle cx="7.21" cy="2.77" r="0.03" />
<circle cx="7.32" cy="6.93" r="0.03" />
<circle cx="7.44" cy="1.39" r="0.03" />
<circle cx="7.55" cy="2.08" r="0.03" />
<circle cx="7.67" cy="0.69" r="0.03" />
<circle cx="7.78" cy="2.77" r="0.03" />
<circle cx="7.90" cy="1.39" r="0.03" />
<circle cx="8.01" cy="2.08" r="0.03" />
<circle cx="8.13" cy="0.69" r="0.03" />
<circle cx="8.24" cy="4.85" r="0.03" />
<circle cx="8.35" cy="0.69" r="0.03" />
<circle cx="8.47" cy="1.39" r="0.03" />
<circle cx="8.58" cy="2.77" r="0.03" />
<circle cx="8.70" cy="2.77" r="0.03" />
<circle cx="8.81" cy="1.39" r="0.03" />
<circle cx="8.93" cy="2.08" r="0.03" />
<circle cx="9.04" cy="0.69" r="0.03" />
<circle cx="9.16" cy="5.55" r="0.03" />
<circle cx="9.27" cy="4.85" r="0.03" />
<circle cx="9.38" cy="1.39" r="0.03" />
<circle cx="9.50" cy="0.69" r="0.03" />
<circle cx="9.61" cy="3.47" r="0.03" />
<circle cx="9.73" cy="1.39" r="0.03" />
<circle cx="9.84" cy="1.39" r="0.03" />
<circle cx="9.96" cy="1.39" r="0.03" />
<circle cx="10.07" cy="3.47" r="0.03" />
<circle cx="10.19" cy="0.69" r="0.03" />
<circle cx="10.30" cy="3.47" r="0.03" />
<circle cx="10.41" cy="1.39" r="0.03" />
<circle cx="10.53" cy="2.77" r="0.03" />
<circle cx="10.64" cy="1.39" r="0.03" />
<circle cx="10.76" cy="1.39" r="0.03" />
<circle cx="10.87" cy="1.39" r="0.03" />
<circle cx="10.99" cy="6.24" r="0.03" />
<circle cx="11.10" cy="0.69" r="0.03" />
<circle cx="11.22" cy="2.77" r="0.03" />
<circle cx="11.33" cy="2.77" r="0.03" />
</g>
</svg>