<svg xmlns="http://www.w3.org/2000/svg" width="157.9" height="100.0" viewBox="-3.1 -5.0 167.9 110.0">
<g fill="none" stroke="black" stroke-width="0.2050%" transform="translate(0, 100.0000) scale(2.4390, -2.4390)">
<line x1="0.8" y1="0.0" x2="0.8" y2="1.0" />
<line x1="1.5" y1="0.0" x2="1.5" y2="1.0" />
<line x1="2.3" y1="0.0" x2="2.3" y2="1.0" />
<line x1="3.0" y1="0.0" x2="3.0" y2="1.0" />
<line x1="3.8" y1="0.0" x2="3.8" y2="2.0" />
<line x1="4.6" y1="0.0" x2="4.6" y2="1.0" />
<line x1="5.3" y1="0.0" x2="5.3" y2="3.0" />
<line x1="6.1" y1="0.0" x2="6.1" y2="1.0" />
<line x1="6.9" y1="0.0" x2="6.9" y2="3.0" />
<line x1="7.6" y1="0.0" x2="7.6" y2="2.0" />
<line x1="8.4" y1="0.0" x2="8.4" y2="5.0" />
<line x1="9.1" y1="0.0" x2="9.1" y2="1.0" />
<line x1="9.9" y1="0.0" x2="9.9" y2="6.0" />
<line x1="10.7" y1="0.0" x2="10.7" y2="3.0" />
<line x1="11.4" y1="0.0" x2="11.4" y2="2.0" />
<line x1="12.2" y1="0.0" x2="12.2" y2="2.0" />
<line x1="12.9" y1="0.0" x2="12.9" y2="8.0" />
<line x1="13.7" y1="0.0" x2="13.7" y2="3.0" />
<line x1="14.5" y1="0.0" x2="14.5" y2="9.0" />
<line x1="15.2" y1="0.0" x2="15.2" y2="2.0" />
<line x1="16.0" y1="0.0" x2="16.0" y2="3.0" />
<line x1="16.8" y1="0.0" x2="16.8" y2="5.0" />
<line x1="17.5" y1="0.0" x2="17.5" y2="11.0" />
<line x1="18.3" y1="0.0" x2="18.3" y2="1.0" />
<line x1="19.0" y1="0.0" x2="19.0" y2="10.0" />
<line x1="19.8" y1="0.0" x2="19.8" y2="6.0" />
<line x1="20.6" y1="0.0" x2="20.6" y2="9.0" />
<line x1="21.3" y1="0.0" x2="21.3" y2="3.0" />
<line x1="22.1" y1="0.0" x2="22.1" y2="14.0" />
<line x1="22.8" y1="0.0" x2="22.8" y2="2.0" />
<line x1="23.6" y1="0.0" x2="23.6" y2="15.0" />
<line x1="24.4" y1="0.0" x2="24.4" y2="4.0" />
<line x1="25.1" y1="0.0" x2="25.1" y2="5.0" />
<line x1="25.9" y1="0.0" x2="25.9" y2="8.0" />
<line x1="26.6" y1="0.0" x2="26.6" y2="6.0" />
<line x1="27.4" y1="0.0" x2="27.4" y2="3.0" />
<line x1="28.2" y1="0.0" x2="28.2" y2="18.0" />
<line x1="28.9" y1="0.0" x2="28.9" y2="9.0" />
<line x1="29.7" y1="0.0" x2="29.7" y2="6.0" />
<line x1="30.5" y1="0.0" x2="30.5" y2="2.0" />
<line x1="31.2" y1="0.0" x2="31.2" y2="20.0" />
<line x1="32.0" y1="0.0" x2="32.0" y2="3.0" />
<line x1="32.7" y1="0.0" x2="32.7" y2="21.0" />
<line x1="33.5" y1="0.0" x2="33.5" y2="5.0" />
<line x1="34.3" y1="0.0" x2="34.3" y2="6.0" />
<line x1="35.0" y1="0.0" x2="35.0" y2="11.0" />
<line x1="35.8" y1="0.0" x2="35.8" y2="23.0" />
<line x1="36.5" y1="0.0" x2="36.5" y2="2.0" />
<line x1="37.3" y1="0.0" x2="37.3" y2="21.0" />
<line x1="38.1" y1="0.0" x2="38.1" y2="10.0" />
<line x1="38.8" y1="0.0" x2="38.8" y2="8.0" />
<line x1="39.6" y1="0.0" x2="39.6" y2="6.0" />
<line x1="40.4" y1="0.0" x2="40.4" y2="26.0" />
<line x1="41.1" y1="0.0" x2="41.1" y2="9.0" />
<line x1="41.9" y1="0.0" x2="41.9" y2="10.0" />
<line x1="42.6" y1="0.0" x2="42.6" y2="3.0" />
<line x1="43.4" y1="0.0" x2="43.4" y2="9.0" />
<line x1="44.2" y1="0.0" x2="44.2" y2="14.0" />
<line x1="44.9" y1="0.0" x2="44.9" y2="29.0" />
<line x1="45.7" y1="0.0" x2="45.7" y2="2.0" />
<line x1="46.4" y1="0.0" x2="46.4" y2="30.0" />
<line x1="47.2" y1="0.0" x2="47.2" y2="15.0" />
<line x1="48.0" y1="0.0" x2="48.0" y2="9.0" />
<line x1="48.7" y1="0.0" x2="48.7" y2="8.0" />
<line x1="49.5" y1="0.0" x2="49.5" y2="12.0" />
<line x1="50.3" y1="0.0" x2="50.3" y2="5.0" />
<line x1="51.0" y1="0.0" x2="51.0" y2="33.0" />
<line x1="51.8" y1="0.0" x2="51.8" y2="8.0" />
<line x1="52.5" y1="0.0" x2="52.5" y2="11.0" />
<line x1="53.3" y1="0.0" x2="53.3" y2="6.0" />
<line x1="54.1" y1="0.0" x2="54.1" y2="35.0" />
<line x1="54.8" y1="0.0" x2="54.8" y2="3.0" />
<line x1="55.6" y1="0.0" x2="55.6" y2="36.0" />
<line x1="56.3" y1="0.0" x2="56.3" y2="18.0" />
<line x1="57.1" y1="0.0" x2="57.1" y2="10.0" />
<line x1="57.9" y1="0.0" x2="57.9" y2="9.0" />
<line x1="58.6" y1="0.0" x2="58.6" y2="15.0" />
<line x1="59.4" y1="0.0" x2="59.4" y2="6.0" />
<line x1="60.2" y1="0.0" x2="60.2" y2="39.0" />
<line x1="60.9" y1="0.0" x2="60.9" y2="4.0" />
<line x1="61.7" y1="0.0" x2="61.7" y2="27.0" />
<line x1="62.4" y1="0.0" x2="62.4" y2="20.0" />
<line x1="63.2" y1="0.0" x2="63.2" y2="41.0" />
<line x1="64.0" y1="0.0" x2="64.0" y2="3.0" />
<line x1="64.7" y1="0.0" x2="64.7" y2="16.0" />
<line x1="65.5" y1="0.0" x2="65.5" y2="21.0" />
</g>
</svg>