<svg xmlns="http://www.w3.org/2000/svg" width="161.8" height="100.0" viewBox="-3.59 -55.00 171.80 110.00">
<g fill="none" stroke="black" stroke-width="0.1200%" transform="translate(0, 0.0000) scale(4.1667, -4.1667)">
<line x1="0.34" y1="0.00" x2="0.34" y2="1.00" />
<line x1="0.68" y1="0.00" x2="0.68" y2="-3.00" />

<line x1="1.35" y1="0.00" x2="1.35" y2="6.00" />
<line x1="1.69" y1="0.00" x2="1.69" y2="-3.00" />


<line x1="2.70" y1="0.00" x2="2.70" y2="-6.00" />

<line x1="3.38" y1="0.00" x2="3.38" y2="6.00" />


<line x1="4.39" y1="0.00" x2="4.39" y2="6.00" />
<line x1="4.73" y1="0.00" x2="4.73" y2="-6.00" />


<line x1="5.74" y1="0.00" x2="5.74" y2="-3.00" />


<line x1="6.75" y1="0.00" x2="6.75" y2="-6.00" />

<line x1="7.43" y1="0.00" x2="7.43" y2="12.00" />



<line x1="8.78" y1="0.00" x2="8.78" y2="-3.00" />

<line x1="9.45" y1="0.00" x2="9.45" y2="6.00" />
<line x1="9.79" y1="0.00" x2="9.79" y2="-6.00" />


<line x1="10.81" y1="0.00" x2="10.81" y2="-6.00" />




<line x1="12.49" y1="0.00" x2="12.49" y2="6.00" />
<line x1="12.83" y1="0.00" x2="12.83" y2="-6.00" />

<line x1="13.51" y1="0.00" x2="13.51" y2="12.00" />



<line x1="14.86" y1="0.00" x2="14.86" y2="-6.00" />




<line x1="16.55" y1="0.00" x2="16.55" y2="6.00" />
<line x1="16.88" y1="0.00" x2="16.88" y2="-9.00" />


<line x1="17.90" y1="0.00" x2="17.90" y2="-6.00" />




<line x1="19.59" y1="0.00" x2="19.59" y2="12.00" />



<line x1="20.94" y1="0.00" x2="20.94" y2="-6.00" />

<line x1="21.61" y1="0.00" x2="21.61" y2="12.00" />
<line x1="21.95" y1="0.00" x2="21.95" y2="-3.00" />


<line x1="22.96" y1="0.00" x2="22.96" y2="-6.00" />





<line x1="24.99" y1="0.00" x2="24.99" y2="-6.00" />

<line x1="25.66" y1="0.00" x2="25.66" y2="6.00" />
<line x1="26.00" y1="0.00" x2="26.00" y2="-6.00" />


<line x1="27.01" y1="0.00" x2="27.01" y2="-6.00" />

<line x1="27.69" y1="0.00" x2="27.69" y2="6.00" />


<line x1="28.70" y1="0.00" x2="28.70" y2="12.00" />






<line x1="31.07" y1="0.00" x2="31.07" y2="-12.00" />

<line x1="31.74" y1="0.00" x2="31.74" y2="12.00" />



<line x1="33.09" y1="0.00" x2="33.09" y2="-6.00" />


<line x1="34.11" y1="0.00" x2="34.11" y2="-3.00" />


<line x1="35.12" y1="0.00" x2="35.12" y2="-6.00" />




<line x1="36.81" y1="0.00" x2="36.81" y2="6.00" />
<line x1="37.14" y1="0.00" x2="37.14" y2="-6.00" />

<line x1="37.82" y1="0.00" x2="37.82" y2="12.00" />
<line x1="38.16" y1="0.00" x2="38.16" y2="-6.00" />



</g>
</svg>