<svg xmlns="http://www.w3.org/2000/svg" width="161.8" height="100.0" viewBox="-3.64 -5.00 171.80 110.00">
<g fill="none" stroke="black" stroke-width="0.0600%" transform="translate(0, 100.0000) scale(8.3333, -8.3333)">
<line x1="0.16" y1="0.00" x2="0.16" y2="1.00" />
<line x1="0.33" y1="0.00" x2="0.33" y2="1.00" />
<line x1="0.49" y1="0.00" x2="0.49" y2="1.00" />
<line x1="0.65" y1="0.00" x2="0.65" y2="2.00" />
<line x1="0.98" y1="0.00" x2="0.98" y2="1.00" />
<line x1="1.14" y1="0.00" x2="1.14" y2="2.00" />
<line x1="1.31" y1="0.00" x2="1.31" y2="1.00" />
<line x1="1.63" y1="0.00" x2="1.63" y2="1.00" />
<line x1="1.79" y1="0.00" x2="1.79" y2="4.00" />
<line x1="2.45" y1="0.00" x2="2.45" y2="1.00" />
<line x1="2.61" y1="0.00" x2="2.61" y2="2.00" />
<line x1="2.77" y1="0.00" x2="2.77" y2="2.00" />
<line x1="2.94" y1="0.00" x2="2.94" y2="1.00" />
<line x1="3.43" y1="0.00" x2="3.43" y2="1.00" />
<line x1="3.59" y1="0.00" x2="3.59" y2="6.00" />
<line x1="4.57" y1="0.00" x2="4.57" y2="1.00" />
<line x1="4.73" y1="0.00" x2="4.73" y2="4.00" />
<line x1="4.89" y1="0.00" x2="4.89" y2="2.00" />
<line x1="5.22" y1="0.00" x2="5.22" y2="1.00" />
<line x1="5.87" y1="0.00" x2="5.87" y2="1.00" />
<line x1="6.04" y1="0.00" x2="6.04" y2="6.00" />
<line x1="6.36" y1="0.00" x2="6.36" y2="2.00" />
<line x1="7.34" y1="0.00" x2="7.34" y2="1.00" />
<line x1="7.51" y1="0.00" x2="7.51" y2="4.00" />
<line x1="7.67" y1="0.00" x2="7.67" y2="4.00" />
<line x1="8.16" y1="0.00" x2="8.16" y2="1.00" />
<line x1="8.97" y1="0.00" x2="8.97" y2="1.00" />
<line x1="9.14" y1="0.00" x2="9.14" y2="10.00" />
<line x1="10.77" y1="0.00" x2="10.77" y2="1.00" />
<line x1="10.93" y1="0.00" x2="10.93" y2="4.00" />
<line x1="11.10" y1="0.00" x2="11.10" y2="2.00" />
<line x1="11.26" y1="0.00" x2="11.26" y2="2.00" />
<line x1="11.42" y1="0.00" x2="11.42" y2="2.00" />
<line x1="11.75" y1="0.00" x2="11.75" y2="1.00" />
<line x1="12.73" y1="0.00" x2="12.73" y2="1.00" />
<line x1="12.89" y1="0.00" x2="12.89" y2="12.00" />
<line x1="14.85" y1="0.00" x2="14.85" y2="1.00" />
<line x1="15.01" y1="0.00" x2="15.01" y2="6.00" />
<line x1="15.17" y1="0.00" x2="15.17" y2="6.00" />
<line x1="15.99" y1="0.00" x2="15.99" y2="1.00" />
<line x1="17.13" y1="0.00" x2="17.13" y2="1.00" />
<line x1="17.30" y1="0.00" x2="17.30" y2="8.00" />
<line x1="17.62" y1="0.00" x2="17.62" y2="4.00" />
<line x1="17.95" y1="0.00" x2="17.95" y2="2.00" />
<line x1="19.58" y1="0.00" x2="19.58" y2="1.00" />
</g>
</svg>
