<svg xmlns="http://www.w3.org/2000/svg" width="161.8" height="100.0" viewBox="-4.730 -3.626 171.803 110.000">
<g fill="none" stroke="black" stroke-width="0.0055%" transform="translate(0, 102.7488) scale(90.9542, -90.9542)">
<polyline points="0.003,1.000 0.006,1.025 0.009,1.047 0.012,1.066 0.015,1.082 0.018,1.095 0.021,1.104 0.024,1.111 0.027,1.114 0.030,1.115 0.033,1.112 0.036,1.107 0.039,1.100 0.042,1.090 0.044,1.078 0.047,1.064 0.050,1.049 0.053,1.032 0.056,1.014 0.059,0.994 0.062,0.974 0.065,0.953 0.068,0.930 0.071,0.908 0.074,0.885 0.077,0.861 0.080,0.837 0.083,0.813 0.086,0.788 0.089,0.764 0.092,0.740 0.095,0.715 0.098,0.691 0.101,0.667 0.104,0.643 0.107,0.620 0.110,0.596 0.113,0.573 0.116,0.551 0.119,0.529 0.122,0.507 0.125,0.486 0.127,0.465 0.130,0.445 0.133,0.426 0.136,0.407 0.139,0.388 0.142,0.370 0.145,0.353 0.148,0.336 0.151,0.320 0.154,0.305 0.157,0.290 0.160,0.276 0.163,0.262 0.166,0.249 0.169,0.237 0.172,0.225 0.175,0.214 0.178,0.203 0.181,0.193 0.184,0.183 0.187,0.174 0.190,0.166 0.193,0.158 0.196,0.150 0.199,0.143 0.202,0.136 0.205,0.130 0.208,0.124 0.211,0.119 0.213,0.113 0.216,0.109 0.219,0.104 0.222,0.100 0.225,0.096 0.228,0.093 0.231,0.090 0.234,0.087 0.237,0.084 0.240,0.081 0.243,0.079 0.246,0.077 0.249,0.075 0.252,0.074 0.255,0.072 0.258,0.071 0.261,0.070 0.264,0.069 0.267,0.069 0.270,0.068 0.273,0.068 0.276,0.068 0.279,0.068 0.282,0.068 0.285,0.068 0.288,0.069 0.291,0.070 0.294,0.070 0.296,0.071 0.299,0.073 0.302,0.074 0.305,0.076 0.308,0.078 0.311,0.080 0.314,0.082 0.317,0.085 0.320,0.087 0.323,0.090 0.326,0.094 0.329,0.097 0.332,0.101 0.335,0.106 0.338,0.110 0.341,0.115 0.344,0.120 0.347,0.126 0.350,0.132 0.353,0.138 0.356,0.145 0.359,0.152 0.362,0.160 0.365,0.168 0.368,0.176 0.371,0.185 0.374,0.194 0.377,0.204 0.380,0.213 0.382,0.224 0.385,0.234 0.388,0.244 0.391,0.255 0.394,0.266 0.397,0.277 0.400,0.287 0.403,0.298 0.406,0.308 0.409,0.318 0.412,0.327 0.415,0.336 0.418,0.344 0.421,0.352 0.424,0.359 0.427,0.365 0.430,0.370 0.433,0.374 0.436,0.378 0.439,0.380 0.442,0.382 0.445,0.382 0.448,0.381 0.451,0.380 0.454,0.378 0.457,0.374 0.460,0.370 0.463,0.365 0.465,0.360 0.468,0.354 0.471,0.347 0.474,0.339 0.477,0.331 0.480,0.323 0.483,0.314 0.486,0.305 0.489,0.296 0.492,0.287 0.495,0.277 0.498,0.267 0.501,0.258 0.504,0.248 0.507,0.238 0.510,0.229 0.513,0.219 0.516,0.210 0.519,0.201 0.522,0.192 0.525,0.183 0.528,0.175 0.531,0.166 0.534,0.159 0.537,0.151 0.540,0.144 0.543,0.136 0.546,0.130 0.549,0.123 0.551,0.117 0.554,0.111 0.557,0.106 0.560,0.100 0.563,0.095 0.566,0.091 0.569,0.086 0.572,0.082 0.575,0.078 0.578,0.075 0.581,0.071 0.584,0.068 0.587,0.065 0.590,0.062 0.593,0.060 0.596,0.057 0.599,0.055 0.602,0.053 0.605,0.051 0.608,0.049 0.611,0.048 0.614,0.046 0.617,0.045 0.620,0.044 0.623,0.043 0.626,0.042 0.629,0.041 0.632,0.040 0.634,0.040 0.637,0.039 0.640,0.039 0.643,0.038 0.646,0.038 0.649,0.038 0.652,0.038 0.655,0.038 0.658,0.038 0.661,0.039 0.664,0.039 0.667,0.039 0.670,0.040 0.673,0.041 0.676,0.042 0.679,0.042 0.682,0.043 0.685,0.045 0.688,0.046 0.691,0.047 0.694,0.049 0.697,0.050 0.700,0.052 0.703,0.054 0.706,0.056 0.709,0.059 0.712,0.061 0.715,0.064 0.718,0.067 0.720,0.070 0.723,0.073 0.726,0.076 0.729,0.080 0.732,0.084 0.735,0.088 0.738,0.093 0.741,0.097 0.744,0.102 0.747,0.107 0.750,0.113 0.753,0.118 0.756,0.124 0.759,0.130 0.762,0.136 0.765,0.142 0.768,0.148 0.771,0.155 0.774,0.161 0.777,0.168 0.780,0.174 0.783,0.180 0.786,0.187 0.789,0.193 0.792,0.198 0.795,0.204 0.798,0.209 0.801,0.214 0.803,0.218 0.806,0.222 0.809,0.226 0.812,0.229 0.815,0.231 0.818,0.233 0.821,0.234 0.824,0.235 0.827,0.235 0.830,0.234 0.833,0.233 0.836,0.231 0.839,0.229 0.842,0.226 0.845,0.223 0.848,0.219 0.851,0.215 0.854,0.211 0.857,0.206 0.860,0.201 0.863,0.195 0.866,0.190 0.869,0.184 0.872,0.178 0.875,0.172 0.878,0.166 0.881,0.160 0.884,0.154 0.887,0.148 0.889,0.142 0.892,0.136 0.895,0.130 0.898,0.124 0.901,0.118 0.904,0.113 0.907,0.108 0.910,0.103 0.913,0.098 0.916,0.093 0.919,0.088 0.922,0.084 0.925,0.080 0.928,0.076 0.931,0.072 0.934,0.068 0.937,0.065 0.940,0.062 0.943,0.059 0.946,0.056 0.949,0.053 0.952,0.051 0.955,0.048 0.958,0.046 0.961,0.044 0.964,0.042 0.967,0.040 0.970,0.039 0.972,0.037 0.975,0.036 0.978,0.035 0.981,0.033 0.984,0.032 0.987,0.031 0.990,0.031 0.993,0.030 0.996,0.029 0.999,0.028 1.002,0.028 1.005,0.027 1.008,0.027 1.011,0.027 1.014,0.026 1.017,0.026 1.020,0.026 1.023,0.026 1.026,0.026 1.029,0.026 1.032,0.026 1.035,0.026 1.038,0.027 1.041,0.027 1.044,0.027 1.047,0.028 1.050,0.028 1.053,0.029 1.056,0.030 1.058,0.030 1.061,0.031 1.064,0.032 1.067,0.033 1.070,0.034 1.073,0.036 1.076,0.037 1.079,0.038 1.082,0.040 1.085,0.042 1.088,0.044 1.091,0.045 1.094,0.048 1.097,0.050 1.100,0.052 1.103,0.055 1.106,0.057 1.109,0.060 1.112,0.063 1.115,0.066 1.118,0.070 1.121,0.073 1.124,0.077 1.127,0.081 1.130,0.085 1.133,0.089 1.136,0.093 1.139,0.097 1.141,0.101 1.144,0.106 1.147,0.110 1.150,0.115 1.153,0.119 1.156,0.124 1.159,0.128 1.162,0.133 1.165,0.137 1.168,0.141 1.171,0.145 1.174,0.148 1.177,0.152 1.180,0.155 1.183,0.158 1.186,0.160 1.189,0.162 1.192,0.164 1.195,0.165 1.198,0.166 1.201,0.166 1.204,0.166 1.207,0.166 1.210,0.165 1.213,0.164 1.216,0.162 1.219,0.160 1.222,0.158 1.225,0.156 1.227,0.153 1.230,0.149 1.233,0.146 1.236,0.142 1.239,0.138 1.242,0.134 1.245,0.130 1.248,0.126 1.251,0.122 1.254,0.117 1.257,0.113 1.260,0.109 1.263,0.104 1.266,0.100 1.269,0.096 1.272,0.091 1.275,0.087 1.278,0.083 1.281,0.079 1.284,0.076 1.287,0.072 1.290,0.068 1.293,0.065 1.296,0.062 1.299,0.059 1.302,0.056 1.305,0.053 1.308,0.050 1.310,0.048 1.313,0.046 1.316,0.043 1.319,0.041 1.322,0.039 1.325,0.037 1.328,0.036 1.331,0.034 1.334,0.033 1.337,0.031 1.340,0.030 1.343,0.029 1.346,0.028 1.349,0.027 1.352,0.026 1.355,0.025 1.358,0.024 1.361,0.023 1.364,0.023 1.367,0.022 1.370,0.021 1.373,0.021 1.376,0.021 1.379,0.020 1.382,0.020 1.385,0.020 1.388,0.020 1.391,0.019 1.394,0.019 1.396,0.019 1.399,0.019 1.402,0.019 1.405,0.019 1.408,0.020 1.411,0.020 1.414,0.020 1.417,0.020 1.420,0.021 1.423,0.021 1.426,0.022 1.429,0.022 1.432,0.023 1.435,0.023 1.438,0.024 1.441,0.025 1.444,0.026 1.447,0.027 1.450,0.028 1.453,0.029 1.456,0.030 1.459,0.031 1.462,0.033 1.465,0.034 1.468,0.036 1.471,0.037 1.474,0.039 1.477,0.041 1.479,0.043 1.482,0.045 1.485,0.047 1.488,0.050 1.491,0.052 1.494,0.055 1.497,0.058 1.500,0.060 1.503,0.063 1.506,0.066 1.509,0.070 1.512,0.073 1.515,0.076 1.518,0.079 1.521,0.083 1.524,0.086 1.527,0.090 1.530,0.093 1.533,0.096 1.536,0.100 1.539,0.103 1.542,0.106 1.545,0.109 1.548,0.112 1.551,0.115 1.554,0.117 1.557,0.119 1.560,0.121 1.563,0.123 1.565,0.124 1.568,0.125 1.571,0.126 1.574,0.127 1.577,0.127 1.580,0.127 1.583,0.126 1.586,0.125 1.589,0.124 1.592,0.123 1.595,0.121 1.598,0.119 1.601,0.117 1.604,0.115 1.607,0.112 1.610,0.110 1.613,0.107 1.616,0.104 1.619,0.101 1.622,0.097 1.625,0.094 1.628,0.091 1.631,0.087 1.634,0.084 1.637,0.081 1.640,0.077 1.643,0.074 1.646,0.071 1.648,0.068 1.651,0.064 1.654,0.061 1.657,0.059 1.660,0.056 1.663,0.053 1.666,0.050 1.669,0.048 1.672,0.045 1.675,0.043 1.678,0.041 1.681,0.039 1.684,0.037 1.687,0.035 1.690,0.034 1.693,0.032 1.696,0.030 1.699,0.029 1.702,0.028 1.705,0.026 1.708,0.025 1.711,0.024 1.714,0.023 1.717,0.022 1.720,0.021 1.723,0.021 1.726,0.020 1.729,0.019 1.732,0.019 1.734,0.018 1.737,0.018 1.740,0.017 1.743,0.017 1.746,0.016 1.749,0.016 1.752,0.016 1.755,0.016 1.758,0.015 1.761,0.015 1.764,0.015 1.767,0.015 1.770,0.015 1.773,0.015 1.776,0.015 1.779,0.015 1.782,0.015" />
</g>
</svg>