<svg xmlns="http://www.w3.org/2000/svg" width="161.8" height="100.0" viewBox="-5.000 -14.236 171.803 110.000">
<g fill="none" stroke="black" stroke-width="0.0055%" transform="translate(0, 81.5281) scale(90.7641, -90.7641)">
<polyline points="0.000,1.000 0.018,0.983 0.036,0.969 0.053,0.949 0.071,0.930 0.089,0.904 0.107,0.864 0.125,0.857 0.143,0.868 0.160,0.843 0.178,0.852 0.196,0.832 0.214,0.855 0.232,0.838 0.250,0.817 0.267,0.819 0.285,0.839 0.303,0.853 0.321,0.843 0.339,0.828 0.357,0.877 0.374,0.823 0.392,0.789 0.410,0.795 0.428,0.825 0.446,0.828 0.463,0.802 0.481,0.824 0.499,0.751 0.517,0.782 0.535,0.742 0.553,0.748 0.570,0.731 0.588,0.687 0.606,0.665 0.624,0.659 0.642,0.621 0.660,0.607 0.677,0.520 0.695,0.516 0.713,0.477 0.731,0.489 0.749,0.488 0.767,0.450 0.784,0.372 0.802,0.363 0.820,0.360 0.838,0.368 0.856,0.326 0.874,0.361 0.891,0.347 0.909,0.347 0.927,0.409 0.945,0.409 0.963,0.402 0.980,0.378 0.998,0.326 1.016,0.338 1.034,0.259 1.052,0.276 1.070,0.249 1.087,0.246 1.105,0.253 1.123,0.199 1.141,0.108 1.159,0.131 1.177,0.094 1.194,0.096 1.212,0.051 1.230,-0.010 1.248,0.021 1.266,0.025 1.284,0.037 1.301,0.017 1.319,0.080 1.337,0.050 1.355,0.067 1.373,0.079 1.390,0.076 1.408,0.068 1.426,0.052 1.444,0.123 1.462,0.181 1.480,0.224 1.497,0.214 1.515,0.262 1.533,0.243 1.551,0.193 1.569,0.166 1.587,0.182 1.604,0.177 1.622,0.197 1.640,0.156 1.658,0.111 1.676,0.033 1.694,0.008 1.711,0.009 1.729,0.019 1.747,-0.009 1.765,-0.037 1.783,-0.102" />
</g>
</svg>