<svg xmlns="http://www.w3.org/2000/svg" width="161.8" height="100.0" viewBox="-3.44 -5.00 171.80 110.00">
<g fill="none" stroke="black" stroke-width="0.0350%" transform="translate(0, 100.0000) scale(14.2857, -14.2857)">
<circle cx="0.11" cy="0.00" r="0.03" />
<circle cx="0.22" cy="1.00" r="0.03" />
<circle cx="0.33" cy="2.00" r="0.03" />
<circle cx="0.44" cy="2.00" r="0.03" />
<circle cx="0.54" cy="3.00" r="0.03" />
<circle cx="0.65" cy="2.00" r="0.03" />
<circle cx="0.76" cy="3.00" r="0.03" />
<circle cx="0.87" cy="3.00" r="0.03" />
<circle cx="0.98" cy="3.00" r="0.03" />
<circle cx="1.09" cy="3.00" r="0.03" />
<circle cx="1.20" cy="4.00" r="0.03" />
<circle cx="1.31" cy="3.00" r="0.03" />
<circle cx="1.42" cy="4.00" r="0.03" />
<circle cx="1.52" cy="3.00" r="0.03" />
<circle cx="1.63" cy="4.00" r="0.03" />
<circle cx="1.74" cy="4.00" r="0.03" />
<circle cx="1.85" cy="5.00" r="0.03" />
<circle cx="1.96" cy="3.00" r="0.03" />
<circle cx="2.07" cy="4.00" r="0.03" />
<circle cx="2.18" cy="4.00" r="0.03" />
<circle cx="2.29" cy="4.00" r="0.03" />
<circle cx="2.40" cy="4.00" r="0.03" />
<circle cx="2.50" cy="5.00" r="0.03" />
<circle cx="2.61" cy="4.00" r="0.03" />
<circle cx="2.72" cy="5.00" r="0.03" />
<circle cx="2.83" cy="4.00" r="0.03" />
<circle cx="2.94" cy="4.00" r="0.03" />
<circle cx="3.05" cy="4.00" r="0.03" />
<circle cx="3.16" cy="5.00" r="0.03" />
<circle cx="3.27" cy="4.00" r="0.03" />
<circle cx="3.38" cy="5.00" r="0.03" />
<circle cx="3.48" cy="5.00" r="0.03" />
<circle cx="3.59" cy="5.00" r="0.03" />
<circle cx="3.70" cy="5.00" r="0.03" />
<circle cx="3.81" cy="5.00" r="0.03" />
<circle cx="3.92" cy="4.00" r="0.03" />
<circle cx="4.03" cy="5.00" r="0.03" />
<circle cx="4.14" cy="4.00" r="0.03" />
<circle cx="4.25" cy="5.00" r="0.03" />
<circle cx="4.36" cy="5.00" r="0.03" />
<circle cx="4.47" cy="6.00" r="0.03" />
<circle cx="4.57" cy="4.00" r="0.03" />
<circle cx="4.68" cy="5.00" r="0.03" />
<circle cx="4.79" cy="5.00" r="0.03" />
<circle cx="4.90" cy="5.00" r="0.03" />
<circle cx="5.01" cy="5.00" r="0.03" />
<circle cx="5.12" cy="6.00" r="0.03" />
<circle cx="5.23" cy="5.00" r="0.03" />
<circle cx="5.34" cy="5.00" r="0.03" />
<circle cx="5.45" cy="5.00" r="0.03" />
<circle cx="5.55" cy="6.00" r="0.03" />
<circle cx="5.66" cy="5.00" r="0.03" />
<circle cx="5.77" cy="6.00" r="0.03" />
<circle cx="5.88" cy="4.00" r="0.03" />
<circle cx="5.99" cy="6.00" r="0.03" />
<circle cx="6.10" cy="5.00" r="0.03" />
<circle cx="6.21" cy="5.00" r="0.03" />
<circle cx="6.32" cy="5.00" r="0.03" />
<circle cx="6.43" cy="6.00" r="0.03" />
<circle cx="6.53" cy="5.00" r="0.03" />
<circle cx="6.64" cy="6.00" r="0.03" />
<circle cx="6.75" cy="5.00" r="0.03" />
<circle cx="6.86" cy="5.00" r="0.03" />
<circle cx="6.97" cy="6.00" r="0.03" />
<circle cx="7.08" cy="6.00" r="0.03" />
<circle cx="7.19" cy="5.00" r="0.03" />
<circle cx="7.30" cy="6.00" r="0.03" />
<circle cx="7.41" cy="6.00" r="0.03" />
<circle cx="7.51" cy="6.00" r="0.03" />
<circle cx="7.62" cy="5.00" r="0.03" />
<circle cx="7.73" cy="6.00" r="0.03" />
<circle cx="7.84" cy="5.00" r="0.03" />
<circle cx="7.95" cy="6.00" r="0.03" />
<circle cx="8.06" cy="5.00" r="0.03" />
<circle cx="8.17" cy="6.00" r="0.03" />
<circle cx="8.28" cy="5.00" r="0.03" />
<circle cx="8.39" cy="6.00" r="0.03" />
<circle cx="8.49" cy="5.00" r="0.03" />
<circle cx="8.60" cy="6.00" r="0.03" />
<circle cx="8.71" cy="6.00" r="0.03" />
<circle cx="8.82" cy="5.00" r="0.03" />
<circle cx="8.93" cy="6.00" r="0.03" />
<circle cx="9.04" cy="7.00" r="0.03" />
<circle cx="9.15" cy="5.00" r="0.03" />
<circle cx="9.26" cy="7.00" r="0.03" />
<circle cx="9.37" cy="5.00" r="0.03" />
<circle cx="9.47" cy="6.00" r="0.03" />
<circle cx="9.58" cy="6.00" r="0.03" />
<circle cx="9.69" cy="7.00" r="0.03" />
<circle cx="9.80" cy="5.00" r="0.03" />
<circle cx="9.91" cy="6.00" r="0.03" />
<circle cx="10.02" cy="6.00" r="0.03" />
<circle cx="10.13" cy="6.00" r="0.03" />
<circle cx="10.24" cy="6.00" r="0.03" />
<circle cx="10.35" cy="6.00" r="0.03" />
<circle cx="10.45" cy="6.00" r="0.03" />
<circle cx="10.56" cy="7.00" r="0.03" />
<circle cx="10.67" cy="5.00" r="0.03" />
<circle cx="10.78" cy="6.00" r="0.03" />
<circle cx="10.89" cy="6.00" r="0.03" />
<circle cx="11.00" cy="7.00" r="0.03" />
<circle cx="11.11" cy="6.00" r="0.03" />
<circle cx="11.22" cy="7.00" r="0.03" />
<circle cx="11.33" cy="6.00" r="0.03" />
<circle cx="11.44" cy="6.00" r="0.03" />
</g>
</svg>