<svg xmlns="http://www.w3.org/2000/svg" width="161.8" height="100.0" viewBox="-3.1 -35.8 171.8 110.0">
<g fill="none" stroke="black" stroke-width="0.5850%" transform="translate(0, 38.4615) scale(0.8547, -0.8547)">
<line x1="2.2" y1="0.0" x2="2.2" y2="1.0" />

<line x1="6.7" y1="0.0" x2="6.7" y2="1.0" />

<line x1="11.1" y1="0.0" x2="11.1" y2="3.0" />
<line x1="13.4" y1="0.0" x2="13.4" y2="-2.0" />
<line x1="15.6" y1="0.0" x2="15.6" y2="5.0" />

<line x1="20.0" y1="0.0" x2="20.0" y2="3.0" />
<line x1="22.3" y1="0.0" x2="22.3" y2="-2.0" />
<line x1="24.5" y1="0.0" x2="24.5" y2="9.0" />
<line x1="26.7" y1="0.0" x2="26.7" y2="-4.0" />
<line x1="29.0" y1="0.0" x2="29.0" y2="11.0" />
<line x1="31.2" y1="0.0" x2="31.2" y2="-2.0" />
<line x1="33.4" y1="0.0" x2="33.4" y2="1.0" />

<line x1="37.9" y1="0.0" x2="37.9" y2="15.0" />
<line x1="40.1" y1="0.0" x2="40.1" y2="-6.0" />
<line x1="42.3" y1="0.0" x2="42.3" y2="17.0" />
<line x1="44.5" y1="0.0" x2="44.5" y2="-4.0" />
<line x1="46.8" y1="0.0" x2="46.8" y2="3.0" />
<line x1="49.0" y1="0.0" x2="49.0" y2="-2.0" />
<line x1="51.2" y1="0.0" x2="51.2" y2="21.0" />
<line x1="53.5" y1="0.0" x2="53.5" y2="-8.0" />
<line x1="55.7" y1="0.0" x2="55.7" y2="15.0" />
<line x1="57.9" y1="0.0" x2="57.9" y2="-2.0" />
<line x1="60.1" y1="0.0" x2="60.1" y2="9.0" />
<line x1="62.4" y1="0.0" x2="62.4" y2="-4.0" />
<line x1="64.6" y1="0.0" x2="64.6" y2="27.0" />
<line x1="66.8" y1="0.0" x2="66.8" y2="-14.0" />
<line x1="69.0" y1="0.0" x2="69.0" y2="29.0" />

<line x1="73.5" y1="0.0" x2="73.5" y2="7.0" />
<line x1="75.7" y1="0.0" x2="75.7" y2="-2.0" />
<line x1="78.0" y1="0.0" x2="78.0" y2="13.0" />
<line x1="80.2" y1="0.0" x2="80.2" y2="-12.0" />
<line x1="82.4" y1="0.0" x2="82.4" y2="35.0" />
<line x1="84.6" y1="0.0" x2="84.6" y2="-2.0" />
<line x1="86.9" y1="0.0" x2="86.9" y2="9.0" />
<line x1="89.1" y1="0.0" x2="89.1" y2="-8.0" />
<line x1="91.3" y1="0.0" x2="91.3" y2="39.0" />
<line x1="93.5" y1="0.0" x2="93.5" y2="-18.0" />
<line x1="95.8" y1="0.0" x2="95.8" y2="41.0" />
<line x1="98.0" y1="0.0" x2="98.0" y2="-4.0" />
<line x1="100.2" y1="0.0" x2="100.2" y2="3.0" />
<line x1="102.5" y1="0.0" x2="102.5" y2="-2.0" />
<line x1="104.7" y1="0.0" x2="104.7" y2="45.0" />
<line x1="106.9" y1="0.0" x2="106.9" y2="-16.0" />
<line x1="109.1" y1="0.0" x2="109.1" y2="35.0" />
<line x1="111.4" y1="0.0" x2="111.4" y2="-10.0" />
<line x1="113.6" y1="0.0" x2="113.6" y2="13.0" />
<line x1="115.8" y1="0.0" x2="115.8" y2="-4.0" />
<line x1="118.0" y1="0.0" x2="118.0" y2="51.0" />
<line x1="120.3" y1="0.0" x2="120.3" y2="-18.0" />
<line x1="122.5" y1="0.0" x2="122.5" y2="25.0" />
<line x1="124.7" y1="0.0" x2="124.7" y2="-8.0" />
<line x1="126.9" y1="0.0" x2="126.9" y2="15.0" />
<line x1="129.2" y1="0.0" x2="129.2" y2="-2.0" />
<line x1="131.4" y1="0.0" x2="131.4" y2="57.0" />
<line x1="133.6" y1="0.0" x2="133.6" y2="-28.0" />
<line x1="135.9" y1="0.0" x2="135.9" y2="59.0" />
<line x1="138.1" y1="0.0" x2="138.1" y2="-2.0" />
<line x1="140.3" y1="0.0" x2="140.3" y2="9.0" />

<line x1="144.8" y1="0.0" x2="144.8" y2="31.0" />
<line x1="147.0" y1="0.0" x2="147.0" y2="-26.0" />
<line x1="149.2" y1="0.0" x2="149.2" y2="65.0" />
<line x1="151.4" y1="0.0" x2="151.4" y2="-4.0" />
<line x1="153.7" y1="0.0" x2="153.7" y2="19.0" />
<line x1="155.9" y1="0.0" x2="155.9" y2="-22.0" />
<line x1="158.1" y1="0.0" x2="158.1" y2="69.0" />
<line x1="160.4" y1="0.0" x2="160.4" y2="-24.0" />
<line x1="162.6" y1="0.0" x2="162.6" y2="71.0" />
<line x1="164.8" y1="0.0" x2="164.8" y2="-2.0" />
<line x1="167.0" y1="0.0" x2="167.0" y2="5.0" />
<line x1="169.3" y1="0.0" x2="169.3" y2="-4.0" />
<line x1="171.5" y1="0.0" x2="171.5" y2="43.0" />
<line x1="173.7" y1="0.0" x2="173.7" y2="-30.0" />
<line x1="175.9" y1="0.0" x2="175.9" y2="77.0" />
<line x1="178.2" y1="0.0" x2="178.2" y2="-16.0" />
<line x1="180.4" y1="0.0" x2="180.4" y2="27.0" />
<line x1="182.6" y1="0.0" x2="182.6" y2="-2.0" />
<line x1="184.9" y1="0.0" x2="184.9" y2="81.0" />
<line x1="187.1" y1="0.0" x2="187.1" y2="-36.0" />
<line x1="189.3" y1="0.0" x2="189.3" y2="43.0" />
<line x1="191.5" y1="0.0" x2="191.5" y2="-2.0" />
</g>
</svg>