<svg xmlns="http://www.w3.org/2000/svg" width="161.80" height="100.00" viewBox="-3.35 -3.96 171.80 110.00">
<g fill="none" stroke="black" stroke-width="0.48%" transform="translate(0, 102.08) scale(1.04, -1.04)">
<polyline points="1.59,1.00 3.17,2.00 4.76,3.00 6.34,3.00 7.93,5.00 9.51,4.00 11.10,7.00 12.68,4.00 14.27,5.00 15.85,6.00 17.44,11.00 19.02,5.00 20.61,13.00 22.19,8.00 23.78,7.00 25.36,5.00 26.95,17.00 28.53,6.00 30.12,19.00 31.70,7.00 33.29,9.00 34.87,12.00 36.46,23.00 38.04,6.00 39.63,9.00 41.21,14.00 42.80,7.00 44.38,9.00 45.97,29.00 47.55,8.00 49.14,31.00 50.72,6.00 52.31,13.00 53.89,18.00 55.48,11.00 57.06,7.00 58.65,37.00 60.23,20.00 61.82,15.00 63.40,8.00 64.99,41.00 66.57,10.00 68.16,43.00 69.74,13.00 71.33,9.00 72.91,24.00 74.50,47.00 76.08,7.00 77.67,13.00 79.25,10.00 80.84,19.00 82.42,15.00 84.01,53.00 85.59,8.00 87.18,15.00 88.76,10.00 90.35,21.00 91.93,30.00 93.52,59.00 95.10,9.00 96.69,61.00 98.27,32.00 99.86,11.00 101.44,7.00 103.03,17.00 104.61,14.00 106.20,67.00 107.78,19.00 109.37,25.00 110.95,12.00 112.54,71.00 114.12,8.00 115.71,73.00 117.29,38.00 118.88,11.00 120.46,21.00 122.05,17.00 123.63,16.00 125.22,79.00 126.80,9.00 128.39,9.00 129.97,42.00 131.56,83.00 133.14,11.00 134.73,21.00 136.31,44.00 137.90,31.00 139.48,14.00 141.07,89.00 142.65,10.00 144.24,19.00 145.82,25.00 147.41,33.00 148.99,48.00 150.58,23.00 152.16,8.00 153.75,97.00 155.33,14.00 156.92,15.00" />
</g>
</svg>