<svg xmlns="http://www.w3.org/2000/svg" width="161.8" height="100.0" viewBox="-3.35 -5.00 171.80 110.00">
<g fill="none" stroke="black" stroke-width="0.0450%" transform="translate(0, 100.0000) scale(11.1111, -11.1111)">
<circle cx="0.15" cy="5.00" r="0.04" />
<circle cx="0.30" cy="7.00" r="0.04" />
<circle cx="0.45" cy="7.00" r="0.04" />
<circle cx="0.59" cy="2.00" r="0.04" />
<circle cx="0.74" cy="1.00" r="0.04" />
<circle cx="0.89" cy="5.00" r="0.04" />
<circle cx="1.04" cy="6.00" r="0.04" />
<circle cx="1.19" cy="6.00" r="0.04" />
<circle cx="1.34" cy="4.00" r="0.04" />
<circle cx="1.49" cy="9.00" r="0.04" />
<circle cx="1.63" cy="0.00" r="0.04" />
<circle cx="1.78" cy="1.00" r="0.04" />
<circle cx="1.93" cy="5.00" r="0.04" />
<circle cx="2.08" cy="3.00" r="0.04" />
<circle cx="2.23" cy="2.00" r="0.04" />
<circle cx="2.38" cy="8.00" r="0.04" />
<circle cx="2.53" cy="6.00" r="0.04" />
<circle cx="2.67" cy="0.00" r="0.04" />
<circle cx="2.82" cy="6.00" r="0.04" />
<circle cx="2.97" cy="0.00" r="0.04" />
<circle cx="3.12" cy="6.00" r="0.04" />
<circle cx="3.27" cy="5.00" r="0.04" />
<circle cx="3.42" cy="1.00" r="0.04" />
<circle cx="3.57" cy="2.00" r="0.04" />
<circle cx="3.71" cy="0.00" r="0.04" />
<circle cx="3.86" cy="9.00" r="0.04" />
<circle cx="4.01" cy="0.00" r="0.04" />
<circle cx="4.16" cy="0.00" r="0.04" />
<circle cx="4.31" cy="8.00" r="0.04" />
<circle cx="4.46" cy="2.00" r="0.04" />
<circle cx="4.61" cy="4.00" r="0.04" />
<circle cx="4.76" cy="0.00" r="0.04" />
<circle cx="4.90" cy="2.00" r="0.04" />
<circle cx="5.05" cy="4.00" r="0.04" />
<circle cx="5.20" cy="3.00" r="0.04" />
<circle cx="5.35" cy="1.00" r="0.04" />
<circle cx="5.50" cy="0.00" r="0.04" />
<circle cx="5.65" cy="4.00" r="0.04" />
<circle cx="5.80" cy="2.00" r="0.04" />
<circle cx="5.94" cy="1.00" r="0.04" />
<circle cx="6.09" cy="5.00" r="0.04" />
<circle cx="6.24" cy="9.00" r="0.04" />
<circle cx="6.39" cy="3.00" r="0.04" />
<circle cx="6.54" cy="3.00" r="0.04" />
<circle cx="6.69" cy="5.00" r="0.04" />
<circle cx="6.84" cy="9.00" r="0.04" />
<circle cx="6.98" cy="3.00" r="0.04" />
<circle cx="7.13" cy="9.00" r="0.04" />
<circle cx="7.28" cy="9.00" r="0.04" />
<circle cx="7.43" cy="2.00" r="0.04" />
<circle cx="7.58" cy="3.00" r="0.04" />
<circle cx="7.73" cy="5.00" r="0.04" />
<circle cx="7.88" cy="9.00" r="0.04" />
<circle cx="8.02" cy="8.00" r="0.04" />
<circle cx="8.17" cy="8.00" r="0.04" />
<circle cx="8.32" cy="0.00" r="0.04" />
<circle cx="8.47" cy="5.00" r="0.04" />
<circle cx="8.62" cy="7.00" r="0.04" />
<circle cx="8.77" cy="6.00" r="0.04" />
<circle cx="8.92" cy="7.00" r="0.04" />
<circle cx="9.06" cy="2.00" r="0.04" />
<circle cx="9.21" cy="3.00" r="0.04" />
<circle cx="9.36" cy="4.00" r="0.04" />
<circle cx="9.51" cy="8.00" r="0.04" />
<circle cx="9.66" cy="8.00" r="0.04" />
<circle cx="9.81" cy="4.00" r="0.04" />
<circle cx="9.96" cy="8.00" r="0.04" />
<circle cx="10.10" cy="6.00" r="0.04" />
<circle cx="10.25" cy="7.00" r="0.04" />
<circle cx="10.40" cy="7.00" r="0.04" />
<circle cx="10.55" cy="2.00" r="0.04" />
<circle cx="10.70" cy="6.00" r="0.04" />
<circle cx="10.85" cy="7.00" r="0.04" />
<circle cx="11.00" cy="7.00" r="0.04" />
<circle cx="11.14" cy="7.00" r="0.04" />
<circle cx="11.29" cy="6.00" r="0.04" />
<circle cx="11.44" cy="6.00" r="0.04" />
<circle cx="11.59" cy="4.00" r="0.04" />
<circle cx="11.74" cy="6.00" r="0.04" />
<circle cx="11.89" cy="7.00" r="0.04" />
<circle cx="12.04" cy="0.00" r="0.04" />
<circle cx="12.18" cy="9.00" r="0.04" />
<circle cx="12.33" cy="3.00" r="0.04" />
<circle cx="12.48" cy="6.00" r="0.04" />
<circle cx="12.63" cy="9.00" r="0.04" />
<circle cx="12.78" cy="4.00" r="0.04" />
<circle cx="12.93" cy="7.00" r="0.04" />
<circle cx="13.08" cy="0.00" r="0.04" />
<circle cx="13.22" cy="6.00" r="0.04" />
<circle cx="13.37" cy="3.00" r="0.04" />
<circle cx="13.52" cy="2.00" r="0.04" />
<circle cx="13.67" cy="9.00" r="0.04" />
<circle cx="13.82" cy="1.00" r="0.04" />
<circle cx="13.97" cy="7.00" r="0.04" />
<circle cx="14.12" cy="4.00" r="0.04" />
<circle cx="14.27" cy="6.00" r="0.04" />
<circle cx="14.41" cy="7.00" r="0.04" />
<circle cx="14.56" cy="4.00" r="0.04" />
<circle cx="14.71" cy="9.00" r="0.04" />
</g>
</svg>