<svg xmlns="http://www.w3.org/2000/svg" width="161.8" height="100.0" viewBox="-4.2 -5.0 171.8 110.0">
<g fill="none" stroke="black" stroke-width="0.2053%" transform="translate(0, 100.0000) scale(2.4354, -2.4354)">
<circle cx="0.3" cy="0.0" r="0.2" />
<circle cx="0.3" cy="0.0" r="0.2" />
<circle cx="0.6" cy="0.0" r="0.2" />
<circle cx="0.9" cy="0.0" r="0.2" />
<circle cx="1.3" cy="0.0" r="0.2" />
<circle cx="1.6" cy="0.0" r="0.2" />
<circle cx="1.9" cy="1.4" r="0.2" />
<circle cx="2.2" cy="0.0" r="0.2" />
<circle cx="2.5" cy="0.0" r="0.2" />
<circle cx="2.8" cy="2.4" r="0.2" />
<circle cx="3.2" cy="2.4" r="0.2" />
<circle cx="3.5" cy="0.0" r="0.2" />
<circle cx="3.8" cy="0.0" r="0.2" />
<circle cx="4.1" cy="3.3" r="0.2" />
<circle cx="4.4" cy="4.2" r="0.2" />
<circle cx="4.7" cy="3.3" r="0.2" />
<circle cx="5.1" cy="0.0" r="0.2" />
<circle cx="5.4" cy="0.0" r="0.2" />
<circle cx="5.7" cy="4.0" r="0.2" />
<circle cx="6.0" cy="5.7" r="0.2" />
<circle cx="6.3" cy="5.7" r="0.2" />
<circle cx="6.6" cy="4.0" r="0.2" />
<circle cx="7.0" cy="0.0" r="0.2" />
<circle cx="7.3" cy="0.0" r="0.2" />
<circle cx="7.6" cy="4.8" r="0.2" />
<circle cx="7.9" cy="7.1" r="0.2" />
<circle cx="8.2" cy="7.8" r="0.2" />
<circle cx="8.5" cy="7.1" r="0.2" />
<circle cx="8.9" cy="4.8" r="0.2" />
<circle cx="9.2" cy="0.0" r="0.2" />
<circle cx="9.5" cy="0.0" r="0.2" />
<circle cx="9.8" cy="5.5" r="0.2" />
<circle cx="10.1" cy="8.4" r="0.2" />
<circle cx="10.4" cy="9.7" r="0.2" />
<circle cx="10.8" cy="9.7" r="0.2" />
<circle cx="11.1" cy="8.4" r="0.2" />
<circle cx="11.4" cy="5.5" r="0.2" />
<circle cx="11.7" cy="0.0" r="0.2" />
<circle cx="12.0" cy="0.0" r="0.2" />
<circle cx="12.3" cy="6.2" r="0.2" />
<circle cx="12.7" cy="9.6" r="0.2" />
<circle cx="13.0" cy="11.4" r="0.2" />
<circle cx="13.3" cy="12.0" r="0.2" />
<circle cx="13.6" cy="11.4" r="0.2" />
<circle cx="13.9" cy="9.6" r="0.2" />
<circle cx="14.2" cy="6.2" r="0.2" />
<circle cx="14.6" cy="0.0" r="0.2" />
<circle cx="14.9" cy="0.0" r="0.2" />
<circle cx="15.2" cy="6.9" r="0.2" />
<circle cx="15.5" cy="10.8" r="0.2" />
<circle cx="15.8" cy="13.0" r="0.2" />
<circle cx="16.1" cy="14.1" r="0.2" />
<circle cx="16.5" cy="14.1" r="0.2" />
<circle cx="16.8" cy="13.0" r="0.2" />
<circle cx="17.1" cy="10.8" r="0.2" />
<circle cx="17.4" cy="6.9" r="0.2" />
<circle cx="17.7" cy="0.0" r="0.2" />
<circle cx="18.0" cy="0.0" r="0.2" />
<circle cx="18.3" cy="7.6" r="0.2" />
<circle cx="18.7" cy="11.9" r="0.2" />
<circle cx="19.0" cy="14.6" r="0.2" />
<circle cx="19.3" cy="16.1" r="0.2" />
<circle cx="19.6" cy="16.6" r="0.2" />
<circle cx="19.9" cy="16.1" r="0.2" />
<circle cx="20.2" cy="14.6" r="0.2" />
<circle cx="20.6" cy="11.9" r="0.2" />
<circle cx="20.9" cy="7.6" r="0.2" />
<circle cx="21.2" cy="0.0" r="0.2" />
<circle cx="21.5" cy="0.0" r="0.2" />
<circle cx="21.8" cy="8.3" r="0.2" />
<circle cx="22.1" cy="13.1" r="0.2" />
<circle cx="22.5" cy="16.1" r="0.2" />
<circle cx="22.8" cy="18.0" r="0.2" />
<circle cx="23.1" cy="18.9" r="0.2" />
<circle cx="23.4" cy="18.9" r="0.2" />
<circle cx="23.7" cy="18.0" r="0.2" />
<circle cx="24.0" cy="16.1" r="0.2" />
<circle cx="24.4" cy="13.1" r="0.2" />
<circle cx="24.7" cy="8.3" r="0.2" />
<circle cx="25.0" cy="0.0" r="0.2" />
<circle cx="25.3" cy="0.0" r="0.2" />
<circle cx="25.6" cy="9.0" r="0.2" />
<circle cx="25.9" cy="14.2" r="0.2" />
<circle cx="26.3" cy="17.6" r="0.2" />
<circle cx="26.6" cy="19.9" r="0.2" />
<circle cx="26.9" cy="21.1" r="0.2" />
<circle cx="27.2" cy="21.5" r="0.2" />
<circle cx="27.5" cy="21.1" r="0.2" />
<circle cx="27.8" cy="19.9" r="0.2" />
<circle cx="28.2" cy="17.6" r="0.2" />
<circle cx="28.5" cy="14.2" r="0.2" />
<circle cx="28.8" cy="9.0" r="0.2" />
<circle cx="29.1" cy="0.0" r="0.2" />
<circle cx="29.4" cy="0.0" r="0.2" />
<circle cx="29.7" cy="9.7" r="0.2" />
<circle cx="30.1" cy="15.3" r="0.2" />
<circle cx="30.4" cy="19.1" r="0.2" />
<circle cx="30.7" cy="21.7" r="0.2" />
<circle cx="31.0" cy="23.3" r="0.2" />
<circle cx="31.3" cy="24.1" r="0.2" />
<circle cx="31.6" cy="24.1" r="0.2" />
<circle cx="32.0" cy="23.3" r="0.2" />
<circle cx="32.3" cy="21.7" r="0.2" />
<circle cx="32.6" cy="19.1" r="0.2" />
<circle cx="32.9" cy="15.3" r="0.2" />
<circle cx="33.2" cy="9.7" r="0.2" />
<circle cx="33.5" cy="0.0" r="0.2" />
<circle cx="33.9" cy="0.0" r="0.2" />
<circle cx="34.2" cy="10.4" r="0.2" />
<circle cx="34.5" cy="16.4" r="0.2" />
<circle cx="34.8" cy="20.6" r="0.2" />
<circle cx="35.1" cy="23.4" r="0.2" />
<circle cx="35.4" cy="25.4" r="0.2" />
<circle cx="35.7" cy="26.5" r="0.2" />
<circle cx="36.1" cy="26.8" r="0.2" />
<circle cx="36.4" cy="26.5" r="0.2" />
<circle cx="36.7" cy="25.4" r="0.2" />
<circle cx="37.0" cy="23.4" r="0.2" />
<circle cx="37.3" cy="20.6" r="0.2" />
<circle cx="37.6" cy="16.4" r="0.2" />
<circle cx="38.0" cy="10.4" r="0.2" />
<circle cx="38.3" cy="0.0" r="0.2" />
<circle cx="38.6" cy="0.0" r="0.2" />
<circle cx="38.9" cy="11.1" r="0.2" />
<circle cx="39.2" cy="17.6" r="0.2" />
<circle cx="39.5" cy="22.0" r="0.2" />
<circle cx="39.9" cy="25.2" r="0.2" />
<circle cx="40.2" cy="27.4" r="0.2" />
<circle cx="40.5" cy="28.8" r="0.2" />
<circle cx="40.8" cy="29.5" r="0.2" />
<circle cx="41.1" cy="29.5" r="0.2" />
<circle cx="41.4" cy="28.8" r="0.2" />
<circle cx="41.8" cy="27.4" r="0.2" />
<circle cx="42.1" cy="25.2" r="0.2" />
<circle cx="42.4" cy="22.0" r="0.2" />
<circle cx="42.7" cy="17.6" r="0.2" />
<circle cx="43.0" cy="11.1" r="0.2" />
<circle cx="43.3" cy="0.0" r="0.2" />
<circle cx="43.7" cy="0.0" r="0.2" />
<circle cx="44.0" cy="11.8" r="0.2" />
<circle cx="44.3" cy="18.7" r="0.2" />
<circle cx="44.6" cy="23.4" r="0.2" />
<circle cx="44.9" cy="26.9" r="0.2" />
<circle cx="45.2" cy="29.4" r="0.2" />
<circle cx="45.6" cy="31.1" r="0.2" />
<circle cx="45.9" cy="32.1" r="0.2" />
<circle cx="46.2" cy="32.4" r="0.2" />
<circle cx="46.5" cy="32.1" r="0.2" />
<circle cx="46.8" cy="31.1" r="0.2" />
<circle cx="47.1" cy="29.4" r="0.2" />
<circle cx="47.5" cy="26.9" r="0.2" />
<circle cx="47.8" cy="23.4" r="0.2" />
<circle cx="48.1" cy="18.7" r="0.2" />
<circle cx="48.4" cy="11.8" r="0.2" />
<circle cx="48.7" cy="0.0" r="0.2" />
<circle cx="49.0" cy="0.0" r="0.2" />
<circle cx="49.4" cy="12.5" r="0.2" />
<circle cx="49.7" cy="19.8" r="0.2" />
<circle cx="50.0" cy="24.8" r="0.2" />
<circle cx="50.3" cy="28.6" r="0.2" />
<circle cx="50.6" cy="31.3" r="0.2" />
<circle cx="50.9" cy="33.3" r="0.2" />
<circle cx="51.3" cy="34.5" r="0.2" />
<circle cx="51.6" cy="35.2" r="0.2" />
<circle cx="51.9" cy="35.2" r="0.2" />
<circle cx="52.2" cy="34.5" r="0.2" />
<circle cx="52.5" cy="33.3" r="0.2" />
<circle cx="52.8" cy="31.3" r="0.2" />
<circle cx="53.1" cy="28.6" r="0.2" />
<circle cx="53.5" cy="24.8" r="0.2" />
<circle cx="53.8" cy="19.8" r="0.2" />
<circle cx="54.1" cy="12.5" r="0.2" />
<circle cx="54.4" cy="0.0" r="0.2" />
<circle cx="54.7" cy="0.0" r="0.2" />
<circle cx="55.0" cy="13.2" r="0.2" />
<circle cx="55.4" cy="20.9" r="0.2" />
<circle cx="55.7" cy="26.3" r="0.2" />
<circle cx="56.0" cy="30.3" r="0.2" />
<circle cx="56.3" cy="33.3" r="0.2" />
<circle cx="56.6" cy="35.5" r="0.2" />
<circle cx="56.9" cy="37.0" r="0.2" />
<circle cx="57.3" cy="37.9" r="0.2" />
<circle cx="57.6" cy="38.2" r="0.2" />
<circle cx="57.9" cy="37.9" r="0.2" />
<circle cx="58.2" cy="37.0" r="0.2" />
<circle cx="58.5" cy="35.5" r="0.2" />
<circle cx="58.8" cy="33.3" r="0.2" />
<circle cx="59.2" cy="30.3" r="0.2" />
<circle cx="59.5" cy="26.3" r="0.2" />
<circle cx="59.8" cy="20.9" r="0.2" />
<circle cx="60.1" cy="13.2" r="0.2" />
<circle cx="60.4" cy="0.0" r="0.2" />
<circle cx="60.7" cy="0.0" r="0.2" />
<circle cx="61.1" cy="13.9" r="0.2" />
<circle cx="61.4" cy="22.0" r="0.2" />
<circle cx="61.7" cy="27.7" r="0.2" />
<circle cx="62.0" cy="31.9" r="0.2" />
<circle cx="62.3" cy="35.2" r="0.2" />
<circle cx="62.6" cy="37.6" r="0.2" />
<circle cx="63.0" cy="39.4" r="0.2" />
<circle cx="63.3" cy="40.5" r="0.2" />
<circle cx="63.6" cy="41.1" r="0.2" />
<circle cx="63.9" cy="41.1" r="0.2" />
<circle cx="64.2" cy="40.5" r="0.2" />
<circle cx="64.5" cy="39.4" r="0.2" />
<circle cx="64.9" cy="37.6" r="0.2" />
<circle cx="65.2" cy="35.2" r="0.2" />
<circle cx="65.5" cy="31.9" r="0.2" />
<circle cx="65.8" cy="27.7" r="0.2" />
<circle cx="66.1" cy="22.0" r="0.2" />
<circle cx="66.4" cy="13.9" r="0.2" />
<circle cx="66.8" cy="0.0" r="0.2" />
</g>
</svg>