<svg xmlns="http://www.w3.org/2000/svg" width="161.8" height="100.0" viewBox="-1.9 -5.0 171.8 110.0">
<g fill="none" stroke="black" stroke-width="0.2563%" transform="translate(0, 100.0000) scale(1.9510, -1.9510)">
<circle cx="1.6" cy="0.0" r="0.3" />
<circle cx="1.6" cy="0.0" r="0.3" />
<circle cx="2.4" cy="0.0" r="0.3" />
<circle cx="2.8" cy="1.8" r="0.3" />
<circle cx="3.6" cy="0.0" r="0.3" />
<circle cx="4.0" cy="3.1" r="0.3" />
<circle cx="4.4" cy="3.1" r="0.3" />
<circle cx="5.2" cy="0.0" r="0.3" />
<circle cx="5.6" cy="4.3" r="0.3" />
<circle cx="6.0" cy="5.4" r="0.3" />
<circle cx="6.4" cy="4.3" r="0.3" />
<circle cx="7.2" cy="0.0" r="0.3" />
<circle cx="7.6" cy="5.5" r="0.3" />
<circle cx="8.0" cy="7.4" r="0.3" />
<circle cx="8.4" cy="7.4" r="0.3" />
<circle cx="8.8" cy="5.5" r="0.3" />
<circle cx="9.6" cy="0.0" r="0.3" />
<circle cx="10.0" cy="6.6" r="0.3" />
<circle cx="10.4" cy="9.3" r="0.3" />
<circle cx="10.8" cy="10.1" r="0.3" />
<circle cx="11.2" cy="9.3" r="0.3" />
<circle cx="11.6" cy="6.6" r="0.3" />
<circle cx="12.4" cy="0.0" r="0.3" />
<circle cx="12.8" cy="7.7" r="0.3" />
<circle cx="13.2" cy="11.0" r="0.3" />
<circle cx="13.6" cy="12.5" r="0.3" />
<circle cx="14.0" cy="12.5" r="0.3" />
<circle cx="14.4" cy="11.0" r="0.3" />
<circle cx="14.8" cy="7.7" r="0.3" />
<circle cx="15.6" cy="0.0" r="0.3" />
<circle cx="16.0" cy="8.8" r="0.3" />
<circle cx="16.4" cy="12.7" r="0.3" />
<circle cx="16.8" cy="14.7" r="0.3" />
<circle cx="17.2" cy="15.4" r="0.3" />
<circle cx="17.6" cy="14.7" r="0.3" />
<circle cx="18.0" cy="12.7" r="0.3" />
<circle cx="18.4" cy="8.8" r="0.3" />
<circle cx="19.2" cy="0.0" r="0.3" />
<circle cx="19.6" cy="9.9" r="0.3" />
<circle cx="20.0" cy="14.4" r="0.3" />
<circle cx="20.4" cy="16.9" r="0.3" />
<circle cx="20.8" cy="18.1" r="0.3" />
<circle cx="21.2" cy="18.1" r="0.3" />
<circle cx="21.6" cy="16.9" r="0.3" />
<circle cx="22.0" cy="14.4" r="0.3" />
<circle cx="22.4" cy="9.9" r="0.3" />
<circle cx="23.2" cy="0.0" r="0.3" />
<circle cx="23.6" cy="11.0" r="0.3" />
<circle cx="24.0" cy="16.0" r="0.3" />
<circle cx="24.4" cy="19.0" r="0.3" />
<circle cx="24.8" cy="20.6" r="0.3" />
<circle cx="25.2" cy="21.1" r="0.3" />
<circle cx="25.6" cy="20.6" r="0.3" />
<circle cx="26.0" cy="19.0" r="0.3" />
<circle cx="26.4" cy="16.0" r="0.3" />
<circle cx="26.8" cy="11.0" r="0.3" />
<circle cx="27.6" cy="0.0" r="0.3" />
<circle cx="28.0" cy="12.1" r="0.3" />
<circle cx="28.4" cy="17.7" r="0.3" />
<circle cx="28.8" cy="21.1" r="0.3" />
<circle cx="29.2" cy="23.1" r="0.3" />
<circle cx="29.6" cy="24.1" r="0.3" />
<circle cx="30.0" cy="24.1" r="0.3" />
<circle cx="30.4" cy="23.1" r="0.3" />
<circle cx="30.8" cy="21.1" r="0.3" />
<circle cx="31.2" cy="17.7" r="0.3" />
<circle cx="31.7" cy="12.1" r="0.3" />
<circle cx="32.5" cy="0.0" r="0.3" />
<circle cx="32.9" cy="13.2" r="0.3" />
<circle cx="33.3" cy="19.3" r="0.3" />
<circle cx="33.7" cy="23.1" r="0.3" />
<circle cx="34.1" cy="25.5" r="0.3" />
<circle cx="34.5" cy="26.9" r="0.3" />
<circle cx="34.9" cy="27.3" r="0.3" />
<circle cx="35.3" cy="26.9" r="0.3" />
<circle cx="35.7" cy="25.5" r="0.3" />
<circle cx="36.1" cy="23.1" r="0.3" />
<circle cx="36.5" cy="19.3" r="0.3" />
<circle cx="36.9" cy="13.2" r="0.3" />
<circle cx="37.7" cy="0.0" r="0.3" />
<circle cx="38.1" cy="14.3" r="0.3" />
<circle cx="38.5" cy="20.9" r="0.3" />
<circle cx="38.9" cy="25.1" r="0.3" />
<circle cx="39.3" cy="27.9" r="0.3" />
<circle cx="39.7" cy="29.6" r="0.3" />
<circle cx="40.1" cy="30.5" r="0.3" />
<circle cx="40.5" cy="30.5" r="0.3" />
<circle cx="40.9" cy="29.6" r="0.3" />
<circle cx="41.3" cy="27.9" r="0.3" />
<circle cx="41.7" cy="25.1" r="0.3" />
<circle cx="42.1" cy="20.9" r="0.3" />
<circle cx="42.5" cy="14.3" r="0.3" />
<circle cx="43.3" cy="0.0" r="0.3" />
<circle cx="43.7" cy="15.4" r="0.3" />
<circle cx="44.1" cy="22.5" r="0.3" />
<circle cx="44.5" cy="27.1" r="0.3" />
<circle cx="44.9" cy="30.2" r="0.3" />
<circle cx="45.3" cy="32.3" r="0.3" />
<circle cx="45.7" cy="33.5" r="0.3" />
<circle cx="46.1" cy="33.9" r="0.3" />
<circle cx="46.5" cy="33.5" r="0.3" />
<circle cx="46.9" cy="32.3" r="0.3" />
<circle cx="47.3" cy="30.2" r="0.3" />
<circle cx="47.7" cy="27.1" r="0.3" />
<circle cx="48.1" cy="22.5" r="0.3" />
<circle cx="48.5" cy="15.4" r="0.3" />
<circle cx="49.3" cy="0.0" r="0.3" />
<circle cx="49.7" cy="16.5" r="0.3" />
<circle cx="50.1" cy="24.1" r="0.3" />
<circle cx="50.5" cy="29.1" r="0.3" />
<circle cx="50.9" cy="32.5" r="0.3" />
<circle cx="51.3" cy="34.9" r="0.3" />
<circle cx="51.7" cy="36.4" r="0.3" />
<circle cx="52.1" cy="37.1" r="0.3" />
<circle cx="52.5" cy="37.1" r="0.3" />
<circle cx="52.9" cy="36.4" r="0.3" />
<circle cx="53.3" cy="34.9" r="0.3" />
<circle cx="53.7" cy="32.5" r="0.3" />
<circle cx="54.1" cy="29.1" r="0.3" />
<circle cx="54.5" cy="24.1" r="0.3" />
<circle cx="54.9" cy="16.5" r="0.3" />
<circle cx="55.7" cy="0.0" r="0.3" />
<circle cx="56.1" cy="17.6" r="0.3" />
<circle cx="56.5" cy="25.7" r="0.3" />
<circle cx="56.9" cy="31.1" r="0.3" />
<circle cx="57.3" cy="34.8" r="0.3" />
<circle cx="57.7" cy="37.5" r="0.3" />
<circle cx="58.1" cy="39.3" r="0.3" />
<circle cx="58.5" cy="40.3" r="0.3" />
<circle cx="58.9" cy="40.7" r="0.3" />
<circle cx="59.3" cy="40.3" r="0.3" />
<circle cx="59.7" cy="39.3" r="0.3" />
<circle cx="60.1" cy="37.5" r="0.3" />
<circle cx="60.5" cy="34.8" r="0.3" />
<circle cx="60.9" cy="31.1" r="0.3" />
<circle cx="61.3" cy="25.7" r="0.3" />
<circle cx="61.7" cy="17.6" r="0.3" />
<circle cx="62.5" cy="0.0" r="0.3" />
<circle cx="62.9" cy="18.7" r="0.3" />
<circle cx="63.3" cy="27.4" r="0.3" />
<circle cx="63.7" cy="33.0" r="0.3" />
<circle cx="64.1" cy="37.1" r="0.3" />
<circle cx="64.5" cy="40.0" r="0.3" />
<circle cx="64.9" cy="42.1" r="0.3" />
<circle cx="65.3" cy="43.4" r="0.3" />
<circle cx="65.7" cy="44.1" r="0.3" />
<circle cx="66.1" cy="44.1" r="0.3" />
<circle cx="66.5" cy="43.4" r="0.3" />
<circle cx="66.9" cy="42.1" r="0.3" />
<circle cx="67.3" cy="40.0" r="0.3" />
<circle cx="67.7" cy="37.1" r="0.3" />
<circle cx="68.1" cy="33.0" r="0.3" />
<circle cx="68.5" cy="27.4" r="0.3" />
<circle cx="68.9" cy="18.7" r="0.3" />
<circle cx="69.7" cy="0.0" r="0.3" />
<circle cx="70.1" cy="19.8" r="0.3" />
<circle cx="70.5" cy="29.0" r="0.3" />
<circle cx="70.9" cy="35.0" r="0.3" />
<circle cx="71.3" cy="39.3" r="0.3" />
<circle cx="71.7" cy="42.5" r="0.3" />
<circle cx="72.1" cy="44.9" r="0.3" />
<circle cx="72.5" cy="46.5" r="0.3" />
<circle cx="72.9" cy="47.4" r="0.3" />
<circle cx="73.3" cy="47.7" r="0.3" />
<circle cx="73.7" cy="47.4" r="0.3" />
<circle cx="74.1" cy="46.5" r="0.3" />
<circle cx="74.5" cy="44.9" r="0.3" />
<circle cx="74.9" cy="42.5" r="0.3" />
<circle cx="75.3" cy="39.3" r="0.3" />
<circle cx="75.7" cy="35.0" r="0.3" />
<circle cx="76.1" cy="29.0" r="0.3" />
<circle cx="76.5" cy="19.8" r="0.3" />
<circle cx="77.3" cy="0.0" r="0.3" />
<circle cx="77.7" cy="20.9" r="0.3" />
<circle cx="78.1" cy="30.6" r="0.3" />
<circle cx="78.5" cy="36.9" r="0.3" />
<circle cx="78.9" cy="41.6" r="0.3" />
<circle cx="79.3" cy="45.0" r="0.3" />
<circle cx="79.7" cy="47.6" r="0.3" />
<circle cx="80.1" cy="49.5" r="0.3" />
<circle cx="80.5" cy="50.7" r="0.3" />
<circle cx="80.9" cy="51.3" r="0.3" />
<circle cx="81.3" cy="51.3" r="0.3" />
<circle cx="81.7" cy="50.7" r="0.3" />
<circle cx="82.1" cy="49.5" r="0.3" />
<circle cx="82.5" cy="47.6" r="0.3" />
<circle cx="82.9" cy="45.0" r="0.3" />
<circle cx="83.3" cy="41.6" r="0.3" />
<circle cx="83.7" cy="36.9" r="0.3" />
<circle cx="84.1" cy="30.6" r="0.3" />
<circle cx="84.5" cy="20.9" r="0.3" />
</g>
</svg>