<svg xmlns="http://www.w3.org/2000/svg" width="161.8" height="100.0" viewBox="-4.2 -5.0 171.8 110.0">
<g fill="none" stroke="black" stroke-width="0.6900%" transform="translate(0, 100.0000) scale(0.7246, -0.7246)">
<circle cx="1.1" cy="0.0" r="0.7" />
<circle cx="2.2" cy="1.0" r="0.7" />
<circle cx="3.4" cy="1.0" r="0.7" />
<circle cx="4.5" cy="2.0" r="0.7" />
<circle cx="5.6" cy="1.0" r="0.7" />
<circle cx="6.7" cy="4.0" r="0.7" />
<circle cx="7.9" cy="1.0" r="0.7" />
<circle cx="9.0" cy="4.0" r="0.7" />
<circle cx="10.1" cy="3.0" r="0.7" />
<circle cx="11.2" cy="6.0" r="0.7" />
<circle cx="12.3" cy="1.0" r="0.7" />
<circle cx="13.5" cy="8.0" r="0.7" />
<circle cx="14.6" cy="1.0" r="0.7" />
<circle cx="15.7" cy="8.0" r="0.7" />
<circle cx="16.8" cy="7.0" r="0.7" />
<circle cx="18.0" cy="8.0" r="0.7" />
<circle cx="19.1" cy="1.0" r="0.7" />
<circle cx="20.2" cy="12.0" r="0.7" />
<circle cx="21.3" cy="1.0" r="0.7" />
<circle cx="22.4" cy="12.0" r="0.7" />
<circle cx="23.6" cy="9.0" r="0.7" />
<circle cx="24.7" cy="12.0" r="0.7" />
<circle cx="25.8" cy="1.0" r="0.7" />
<circle cx="26.9" cy="16.0" r="0.7" />
<circle cx="28.1" cy="5.0" r="0.7" />
<circle cx="29.2" cy="14.0" r="0.7" />
<circle cx="30.3" cy="9.0" r="0.7" />
<circle cx="31.4" cy="16.0" r="0.7" />
<circle cx="32.5" cy="1.0" r="0.7" />
<circle cx="33.7" cy="22.0" r="0.7" />
<circle cx="34.8" cy="1.0" r="0.7" />
<circle cx="35.9" cy="16.0" r="0.7" />
<circle cx="37.0" cy="13.0" r="0.7" />
<circle cx="38.1" cy="18.0" r="0.7" />
<circle cx="39.3" cy="11.0" r="0.7" />
<circle cx="40.4" cy="24.0" r="0.7" />
<circle cx="41.5" cy="1.0" r="0.7" />
<circle cx="42.6" cy="20.0" r="0.7" />
<circle cx="43.8" cy="15.0" r="0.7" />
<circle cx="44.9" cy="24.0" r="0.7" />
<circle cx="46.0" cy="1.0" r="0.7" />
<circle cx="47.1" cy="30.0" r="0.7" />
<circle cx="48.2" cy="1.0" r="0.7" />
<circle cx="49.4" cy="24.0" r="0.7" />
<circle cx="50.5" cy="21.0" r="0.7" />
<circle cx="51.6" cy="24.0" r="0.7" />
<circle cx="52.7" cy="1.0" r="0.7" />
<circle cx="53.9" cy="32.0" r="0.7" />
<circle cx="55.0" cy="7.0" r="0.7" />
<circle cx="56.1" cy="30.0" r="0.7" />
<circle cx="57.2" cy="19.0" r="0.7" />
<circle cx="58.3" cy="28.0" r="0.7" />
<circle cx="59.5" cy="1.0" r="0.7" />
<circle cx="60.6" cy="36.0" r="0.7" />
<circle cx="61.7" cy="15.0" r="0.7" />
<circle cx="62.8" cy="32.0" r="0.7" />
<circle cx="64.0" cy="21.0" r="0.7" />
<circle cx="65.1" cy="30.0" r="0.7" />
<circle cx="66.2" cy="1.0" r="0.7" />
<circle cx="67.3" cy="44.0" r="0.7" />
<circle cx="68.4" cy="1.0" r="0.7" />
<circle cx="69.6" cy="32.0" r="0.7" />
<circle cx="70.7" cy="27.0" r="0.7" />
<circle cx="71.8" cy="32.0" r="0.7" />
<circle cx="72.9" cy="17.0" r="0.7" />
<circle cx="74.1" cy="46.0" r="0.7" />
<circle cx="75.2" cy="1.0" r="0.7" />
<circle cx="76.3" cy="36.0" r="0.7" />
<circle cx="77.4" cy="25.0" r="0.7" />
<circle cx="78.5" cy="46.0" r="0.7" />
<circle cx="79.7" cy="1.0" r="0.7" />
<circle cx="80.8" cy="48.0" r="0.7" />
<circle cx="81.9" cy="1.0" r="0.7" />
<circle cx="83.0" cy="38.0" r="0.7" />
<circle cx="84.2" cy="35.0" r="0.7" />
<circle cx="85.3" cy="40.0" r="0.7" />
<circle cx="86.4" cy="17.0" r="0.7" />
<circle cx="87.5" cy="54.0" r="0.7" />
<circle cx="88.6" cy="1.0" r="0.7" />
<circle cx="89.8" cy="48.0" r="0.7" />
<circle cx="90.9" cy="27.0" r="0.7" />
<circle cx="92.0" cy="42.0" r="0.7" />
<circle cx="93.1" cy="1.0" r="0.7" />
<circle cx="94.3" cy="60.0" r="0.7" />
<circle cx="95.4" cy="21.0" r="0.7" />
<circle cx="96.5" cy="44.0" r="0.7" />
<circle cx="97.6" cy="31.0" r="0.7" />
<circle cx="98.7" cy="48.0" r="0.7" />
<circle cx="99.9" cy="1.0" r="0.7" />
<circle cx="101.0" cy="66.0" r="0.7" />
<circle cx="102.1" cy="19.0" r="0.7" />
<circle cx="103.2" cy="48.0" r="0.7" />
<circle cx="104.4" cy="33.0" r="0.7" />
<circle cx="105.5" cy="48.0" r="0.7" />
<circle cx="106.6" cy="23.0" r="0.7" />
<circle cx="107.7" cy="64.0" r="0.7" />
<circle cx="108.8" cy="1.0" r="0.7" />
<circle cx="110.0" cy="56.0" r="0.7" />
<circle cx="111.1" cy="39.0" r="0.7" />
<circle cx="112.2" cy="60.0" r="0.7" />
<circle cx="113.3" cy="1.0" r="0.7" />
<circle cx="114.4" cy="70.0" r="0.7" />
<circle cx="115.6" cy="1.0" r="0.7" />
<circle cx="116.7" cy="56.0" r="0.7" />
<circle cx="117.8" cy="57.0" r="0.7" />
<circle cx="118.9" cy="54.0" r="0.7" />
<circle cx="120.1" cy="1.0" r="0.7" />
<circle cx="121.2" cy="72.0" r="0.7" />
<circle cx="122.3" cy="1.0" r="0.7" />
<circle cx="123.4" cy="70.0" r="0.7" />
<circle cx="124.5" cy="39.0" r="0.7" />
<circle cx="125.7" cy="64.0" r="0.7" />
<circle cx="126.8" cy="1.0" r="0.7" />
<circle cx="127.9" cy="78.0" r="0.7" />
<circle cx="129.0" cy="27.0" r="0.7" />
<circle cx="130.2" cy="60.0" r="0.7" />
<circle cx="131.3" cy="45.0" r="0.7" />
<circle cx="132.4" cy="60.0" r="0.7" />
<circle cx="133.5" cy="23.0" r="0.7" />
<circle cx="134.6" cy="88.0" r="0.7" />
<circle cx="135.8" cy="11.0" r="0.7" />
<circle cx="136.9" cy="62.0" r="0.7" />
<circle cx="138.0" cy="43.0" r="0.7" />
<circle cx="139.1" cy="64.0" r="0.7" />
<circle cx="140.3" cy="25.0" r="0.7" />
<circle cx="141.4" cy="90.0" r="0.7" />
<circle cx="142.5" cy="1.0" r="0.7" />
<circle cx="143.6" cy="64.0" r="0.7" />
<circle cx="144.7" cy="45.0" r="0.7" />
<circle cx="145.9" cy="82.0" r="0.7" />
<circle cx="147.0" cy="1.0" r="0.7" />
<circle cx="148.1" cy="92.0" r="0.7" />
<circle cx="149.2" cy="25.0" r="0.7" />
<circle cx="150.4" cy="68.0" r="0.7" />
<circle cx="151.5" cy="63.0" r="0.7" />
<circle cx="152.6" cy="72.0" r="0.7" />
<circle cx="153.7" cy="1.0" r="0.7" />
<circle cx="154.8" cy="94.0" r="0.7" />
<circle cx="156.0" cy="1.0" r="0.7" />
<circle cx="157.1" cy="92.0" r="0.7" />
<circle cx="158.2" cy="49.0" r="0.7" />
<circle cx="159.3" cy="72.0" r="0.7" />
<circle cx="160.5" cy="23.0" r="0.7" />
<circle cx="161.6" cy="96.0" r="0.7" />
<circle cx="162.7" cy="33.0" r="0.7" />
<circle cx="163.8" cy="74.0" r="0.7" />
<circle cx="164.9" cy="63.0" r="0.7" />
<circle cx="166.1" cy="76.0" r="0.7" />
<circle cx="167.2" cy="1.0" r="0.7" />
<circle cx="168.3" cy="110.0" r="0.7" />
<circle cx="169.4" cy="1.0" r="0.7" />
<circle cx="170.6" cy="80.0" r="0.7" />
<circle cx="171.7" cy="57.0" r="0.7" />
<circle cx="172.8" cy="94.0" r="0.7" />
<circle cx="173.9" cy="35.0" r="0.7" />
<circle cx="175.0" cy="108.0" r="0.7" />
<circle cx="176.2" cy="1.0" r="0.7" />
<circle cx="177.3" cy="80.0" r="0.7" />
<circle cx="178.4" cy="55.0" r="0.7" />
<circle cx="179.5" cy="96.0" r="0.7" />
<circle cx="180.7" cy="29.0" r="0.7" />
<circle cx="181.8" cy="108.0" r="0.7" />
<circle cx="182.9" cy="1.0" r="0.7" />
<circle cx="184.0" cy="84.0" r="0.7" />
<circle cx="185.1" cy="85.0" r="0.7" />
<circle cx="186.3" cy="84.0" r="0.7" />
<circle cx="187.4" cy="1.0" r="0.7" />
<circle cx="188.5" cy="120.0" r="0.7" />
<circle cx="189.6" cy="13.0" r="0.7" />
<circle cx="190.7" cy="106.0" r="0.7" />
<circle cx="191.9" cy="63.0" r="0.7" />
<circle cx="193.0" cy="88.0" r="0.7" />
<circle cx="194.1" cy="1.0" r="0.7" />
<circle cx="195.2" cy="118.0" r="0.7" />
<circle cx="196.4" cy="55.0" r="0.7" />
<circle cx="197.5" cy="96.0" r="0.7" />
<circle cx="198.6" cy="61.0" r="0.7" />
<circle cx="199.7" cy="90.0" r="0.7" />
<circle cx="200.8" cy="1.0" r="0.7" />
<circle cx="202.0" cy="132.0" r="0.7" />
<circle cx="203.1" cy="1.0" r="0.7" />
<circle cx="204.2" cy="110.0" r="0.7" />
<circle cx="205.3" cy="63.0" r="0.7" />
<circle cx="206.5" cy="96.0" r="0.7" />
<circle cx="207.6" cy="41.0" r="0.7" />
<circle cx="208.7" cy="126.0" r="0.7" />
<circle cx="209.8" cy="27.0" r="0.7" />
<circle cx="210.9" cy="96.0" r="0.7" />
<circle cx="212.1" cy="81.0" r="0.7" />
<circle cx="213.2" cy="118.0" r="0.7" />
<circle cx="214.3" cy="1.0" r="0.7" />
<circle cx="215.4" cy="128.0" r="0.7" />
<circle cx="216.6" cy="1.0" r="0.7" />
<circle cx="217.7" cy="98.0" r="0.7" />
<circle cx="218.8" cy="99.0" r="0.7" />
<circle cx="219.9" cy="112.0" r="0.7" />
<circle cx="221.0" cy="1.0" r="0.7" />
<circle cx="222.2" cy="138.0" r="0.7" />
<circle cx="223.3" cy="1.0" r="0.7" />
<circle cx="224.4" cy="120.0" r="0.7" />
</g>
</svg>