<svg xmlns="http://www.w3.org/2000/svg" width="161.8" height="100.0" viewBox="-85.90 -55.00 171.80 110.00">
<g fill="none" stroke="black" stroke-width="0.1000%" transform="translate(0, 0.0000) scale(5.0000, -5.0000)">
<circle cx="-16.18" cy="0.00" r="0.10" />
<circle cx="0.00" cy="10.00" r="0.10" />
<polyline points="-16.18,10.00 -15.86,0.49 -15.53,0.30 -15.21,0.25 -14.89,0.25 -14.56,0.27 -14.24,0.33 -13.92,0.44 -13.59,0.69 -13.27,1.49 -12.94,10.00 -12.62,-1.92 -12.30,-1.14 -11.97,-0.93 -11.65,-0.89 -11.33,-0.95 -11.00,-1.11 -10.68,-1.45 -10.36,-2.20 -10.03,-4.63 -9.71,-10.00 -9.38,5.56 -9.06,3.19 -8.74,2.51 -8.41,2.31 -8.09,2.36 -7.77,2.66 -7.44,3.33 -7.12,4.85 -6.80,9.71 -6.47,10.00 -6.15,-10.00 -5.82,-5.74 -5.50,-4.27 -5.18,-3.70 -4.85,-3.54 -4.53,-3.72 -4.21,-4.33 -3.88,-5.82 -3.56,-10.00 -3.24,-10.00 -2.91,9.51 -2.59,4.59 -2.27,2.99 -1.94,2.22 -1.62,1.77 -1.29,1.49 -0.97,1.30 -0.65,1.16 -0.32,1.07 -0.00,1.00 0.32,0.95 0.65,0.92 0.97,0.90 1.29,0.89 1.62,0.89 1.94,0.89 2.27,0.91 2.59,0.93 2.91,0.96 3.24,1.00 3.56,1.05 3.88,1.10 4.21,1.17 4.53,1.24 4.85,1.33 5.18,1.43 5.50,1.54 5.82,1.68 6.15,1.83 6.47,2.00 6.80,2.20 7.12,2.42 7.44,2.68 7.77,2.98 8.09,3.32 8.41,3.72 8.74,4.17 9.06,4.69 9.38,5.30 9.71,6.00 10.03,6.81 10.36,7.76 10.68,8.86 11.00,10.00 11.33,10.00 11.65,10.00 11.97,10.00 12.30,10.00 12.62,10.00 12.94,10.00 13.27,10.00 13.59,10.00 13.92,10.00 14.24,10.00 14.56,10.00 14.89,10.00 15.21,10.00 15.53,10.00 15.86,10.00 16.18,10.00" />
</g>
</svg>