<svg xmlns="http://www.w3.org/2000/svg" width="161.8" height="100.0" viewBox="-3.736 13.333 171.803 110.000">
<g fill="none" stroke="black" stroke-width="0.0038%" transform="translate(0, 136.6656) scale(133.2145, -133.2145)">
<polyline points="0.009,0.635 0.019,0.635 0.019,0.635 0.028,0.635 0.028,0.635 0.038,0.635 0.038,0.635 0.047,0.635 0.047,0.635 0.057,0.635 0.057,0.635 0.066,0.635 0.066,0.635 0.076,0.635 0.076,0.635 0.085,0.635 0.085,0.805 0.095,0.805 0.095,0.805 0.104,0.805 0.104,0.805 0.114,0.805 0.114,0.805 0.123,0.805 0.123,0.805 0.133,0.805 0.133,0.805 0.142,0.805 0.142,0.805 0.152,0.805 0.152,0.805 0.161,0.805 0.161,0.259 0.171,0.259 0.171,0.259 0.180,0.259 0.180,0.259 0.190,0.259 0.190,0.259 0.199,0.259 0.199,0.259 0.209,0.259 0.209,0.259 0.218,0.259 0.218,0.259 0.228,0.259 0.228,0.259 0.237,0.259 0.237,0.762 0.247,0.762 0.247,0.762 0.256,0.762 0.256,0.762 0.266,0.762 0.266,0.762 0.275,0.762 0.275,0.762 0.285,0.762 0.285,0.762 0.294,0.762 0.294,0.762 0.304,0.762 0.304,0.762 0.313,0.762 0.313,0.460 0.323,0.460 0.323,0.460 0.332,0.460 0.332,0.460 0.342,0.460 0.342,0.460 0.351,0.460 0.351,0.460 0.361,0.460 0.361,0.460 0.370,0.460 0.370,0.460 0.380,0.460 0.380,0.460 0.389,0.460 0.389,0.208 0.399,0.208 0.399,0.208 0.408,0.208 0.408,0.208 0.418,0.208 0.418,0.208 0.427,0.208 0.427,0.208 0.436,0.208 0.436,0.208 0.446,0.208 0.446,0.208 0.455,0.208 0.455,0.208 0.465,0.208 0.465,0.782 0.474,0.782 0.474,0.782 0.484,0.782 0.484,0.782 0.493,0.782 0.493,0.782 0.503,0.782 0.503,0.782 0.512,0.782 0.512,0.782 0.522,0.782 0.522,0.782 0.531,0.782 0.531,0.782 0.541,0.782 0.541,0.253 0.550,0.253 0.550,0.253 0.560,0.253 0.560,0.253 0.569,0.253 0.569,0.253 0.579,0.253 0.579,0.253 0.588,0.253 0.588,0.253 0.598,0.253 0.598,0.253 0.607,0.253 0.607,0.253 0.617,0.253 0.617,0.289 0.626,0.289 0.626,0.289 0.636,0.289 0.636,0.289 0.645,0.289 0.645,0.289 0.655,0.289 0.655,0.289 0.664,0.289 0.664,0.289 0.674,0.289 0.674,0.289 0.683,0.289 0.683,0.289 0.693,0.289 0.693,0.888 0.702,0.888 0.702,0.888 0.712,0.888 0.712,0.888 0.721,0.888 0.721,0.888 0.731,0.888 0.731,0.888 0.740,0.888 0.740,0.888 0.750,0.888 0.750,0.888 0.759,0.888 0.759,0.888 0.769,0.888 0.769,0.770 0.778,0.770 0.778,0.770 0.788,0.770 0.788,0.770 0.797,0.770 0.797,0.770 0.807,0.770 0.807,0.770 0.816,0.770 0.816,0.770 0.826,0.770 0.826,0.770 0.835,0.770 0.835,0.770 0.845,0.770 0.845,0.138 0.854,0.138 0.854,0.138 0.864,0.138 0.864,0.138 0.873,0.138 0.873,0.138 0.882,0.138 0.882,0.138 0.892,0.138 0.892,0.138 0.901,0.138 0.901,0.138 0.911,0.138 0.911,0.138 0.920,0.138 0.920,0.789 0.930,0.789 0.930,0.789 0.939,0.789 0.939,0.789 0.949,0.789 0.949,0.789 0.958,0.789 0.958,0.789 0.968,0.789 0.968,0.789 0.977,0.789 0.977,0.789 0.987,0.789 0.987,0.789 0.996,0.789 0.996,0.182 1.006,0.182 1.006,0.182 1.015,0.182 1.015,0.182 1.025,0.182 1.025,0.182 1.034,0.182 1.034,0.182 1.044,0.182 1.044,0.182 1.053,0.182 1.053,0.182 1.063,0.182 1.063,0.182 1.072,0.182 1.072,0.780 1.082,0.780 1.082,0.780 1.091,0.780 1.091,0.780 1.101,0.780 1.101,0.780 1.110,0.780 1.110,0.780 1.120,0.780 1.120,0.780 1.129,0.780 1.129,0.780 1.139,0.780 1.139,0.780 1.148,0.780 1.148,0.688 1.158,0.688 1.158,0.688 1.167,0.688 1.167,0.688 1.177,0.688 1.177,0.688 1.186,0.688 1.186,0.688 1.196,0.688 1.196,0.688 1.205,0.688 1.205,0.688 1.215,0.688 1.215,0.688 1.224,0.688" />
</g>
</svg>