<svg xmlns="http://www.w3.org/2000/svg" width="100.0" height="100.0" viewBox="-55.000 -55.000 110.000 110.000">
<g fill="none" stroke="black" stroke-width="0.0100%" transform="translate(0, 0.0000) scale(50.0000, -50.0000)">
<circle cx="0.000" cy="0.000" r="1.000" />
<circle cx="1.000" cy="0.000" r="0.010" />
<circle cx="-0.861" cy="-0.509" r="0.010" />
<circle cx="0.482" cy="0.876" r="0.010" />
<circle cx="0.031" cy="-1.000" r="0.010" />
<circle cx="-0.535" cy="0.845" r="0.010" />
<circle cx="0.890" cy="-0.455" r="0.010" />
<circle cx="-0.998" cy="-0.061" r="0.010" />
<circle cx="0.828" cy="0.561" r="0.010" />
<circle cx="-0.427" cy="-0.904" r="0.010" />
<circle cx="-0.092" cy="0.996" r="0.010" />
<circle cx="0.586" cy="-0.810" r="0.010" />
<circle cx="-0.917" cy="0.400" r="0.010" />
<circle cx="0.992" cy="0.123" r="0.010" />
<polyline points="1.000,0.000 -0.861,-0.509 0.482,0.876 0.031,-1.000 -0.535,0.845 0.890,-0.455 -0.998,-0.061 0.828,0.561 -0.427,-0.904 -0.092,0.996 0.586,-0.810 -0.917,0.400 0.992,0.123" />
</g>
</svg>