<svg xmlns="http://www.w3.org/2000/svg" width="161.8" height="100.0" viewBox="-5.000 -5.000 171.803 110.000">
<g fill="none" stroke="black" stroke-width="0.0115%" transform="translate(0, 100.0000) scale(43.4294, -43.4294)">
<circle cx="0.000" cy="0.000" r="0.012" />
<circle cx="0.000" cy="2.303" r="0.012" />
<polyline points="0.000,0.000 0.037,0.005 0.075,0.010 0.112,0.015 0.149,0.020 0.186,0.025 0.224,0.031 0.261,0.036 0.298,0.041 0.335,0.047 0.373,0.052 0.410,0.058 0.447,0.063 0.484,0.069 0.522,0.075 0.559,0.080 0.596,0.086 0.633,0.092 0.671,0.098 0.708,0.104 0.745,0.110 0.782,0.117 0.820,0.123 0.857,0.129 0.894,0.136 0.931,0.142 0.969,0.149 1.006,0.156 1.043,0.162 1.080,0.169 1.118,0.176 1.155,0.183 1.192,0.190 1.229,0.198 1.267,0.205 1.304,0.213 1.341,0.220 1.378,0.228 1.416,0.236 1.453,0.244 1.490,0.252 1.528,0.260 1.565,0.269 1.602,0.277 1.639,0.286 1.677,0.295 1.714,0.304 1.751,0.313 1.788,0.322 1.826,0.332 1.863,0.342 1.900,0.351 1.937,0.362 1.975,0.372 2.012,0.382 2.049,0.393 2.086,0.404 2.124,0.415 2.161,0.427 2.198,0.439 2.235,0.451 2.273,0.463 2.310,0.476 2.347,0.489 2.384,0.502 2.422,0.516 2.459,0.530 2.496,0.544 2.533,0.559 2.571,0.575 2.608,0.590 2.645,0.607 2.682,0.624 2.720,0.641 2.757,0.660 2.794,0.678 2.832,0.698 2.869,0.718 2.906,0.740 2.943,0.762 2.981,0.785 3.018,0.809 3.055,0.835 3.092,0.862 3.130,0.891 3.167,0.921 3.204,0.953 3.241,0.988 3.279,1.025 3.316,1.065 3.353,1.108 3.390,1.156 3.428,1.208 3.465,1.267 3.502,1.334 3.539,1.411 3.577,1.502 3.614,1.613 3.651,1.757 3.688,1.959 3.726,2.303" />
</g>
</svg>