<svg xmlns="http://www.w3.org/2000/svg" width="161.8" height="100.0" viewBox="-5.00 -5.00 171.80 110.00">
<g fill="none" stroke="black" stroke-width="0.0250%" transform="translate(0, 100.0000) scale(20.0000, -20.0000)">
<polyline points="0.00,0.00 0.08,0.02 0.16,0.04 0.24,0.06 0.32,0.08 0.40,0.10 0.49,0.12 0.57,0.15 0.65,0.17 0.73,0.19 0.81,0.21 0.89,0.23 0.97,0.26 1.05,0.28 1.13,0.30 1.21,0.33 1.29,0.35 1.38,0.37 1.46,0.40 1.54,0.42 1.62,0.45 1.70,0.47 1.78,0.50 1.86,0.52 1.94,0.55 2.02,0.58 2.10,0.60 2.18,0.63 2.27,0.66 2.35,0.68 2.43,0.71 2.51,0.74 2.59,0.77 2.67,0.80 2.75,0.83 2.83,0.86 2.91,0.89 2.99,0.92 3.07,0.96 3.16,0.99 3.24,1.02 3.32,1.06 3.40,1.09 3.48,1.12 3.56,1.16 3.64,1.20 3.72,1.23 3.80,1.27 3.88,1.31 3.96,1.35 4.05,1.39 4.13,1.43 4.21,1.47 4.29,1.51 4.37,1.55 4.45,1.60 4.53,1.64 4.61,1.69 4.69,1.74 4.77,1.78 4.85,1.83 4.94,1.88 5.02,1.94 5.10,1.99 5.18,2.04 5.26,2.10 5.34,2.16 5.42,2.22 5.50,2.28 5.58,2.34 5.66,2.41 5.74,2.48 5.82,2.55 5.91,2.62 5.99,2.69 6.07,2.77 6.15,2.85 6.23,2.94 6.31,3.03 6.39,3.12 6.47,3.22 6.55,3.32 6.63,3.43 6.71,3.54 6.80,3.67 6.88,3.79 6.96,3.93 7.04,4.08 7.12,4.24 7.20,4.41 7.28,4.61 7.36,4.82 7.44,5.00 7.52,5.00 7.60,5.00 7.69,5.00 7.77,5.00 7.85,5.00 7.93,5.00 8.01,5.00 8.09,5.00" />
<polyline points="0.00,0.00 0.08,0.01 0.16,0.02 0.24,0.03 0.32,0.04 0.40,0.05 0.49,0.06 0.57,0.07 0.65,0.08 0.73,0.09 0.81,0.11 0.89,0.12 0.97,0.13 1.05,0.14 1.13,0.15 1.21,0.16 1.29,0.17 1.38,0.19 1.46,0.20 1.54,0.21 1.62,0.22 1.70,0.24 1.78,0.25 1.86,0.26 1.94,0.27 2.02,0.29 2.10,0.30 2.18,0.31 2.27,0.33 2.35,0.34 2.43,0.36 2.51,0.37 2.59,0.39 2.67,0.40 2.75,0.42 2.83,0.43 2.91,0.45 2.99,0.46 3.07,0.48 3.16,0.49 3.24,0.51 3.32,0.53 3.40,0.54 3.48,0.56 3.56,0.58 3.64,0.60 3.72,0.62 3.80,0.63 3.88,0.65 3.96,0.67 4.05,0.69 4.13,0.71 4.21,0.73 4.29,0.76 4.37,0.78 4.45,0.80 4.53,0.82 4.61,0.84 4.69,0.87 4.77,0.89 4.85,0.92 4.94,0.94 5.02,0.97 5.10,0.99 5.18,1.02 5.26,1.05 5.34,1.08 5.42,1.11 5.50,1.14 5.58,1.17 5.66,1.20 5.74,1.24 5.82,1.27 5.91,1.31 5.99,1.35 6.07,1.39 6.15,1.43 6.23,1.47 6.31,1.51 6.39,1.56 6.47,1.61 6.55,1.66 6.63,1.71 6.71,1.77 6.80,1.83 6.88,1.90 6.96,1.97 7.04,2.04 7.12,2.12 7.20,2.21 7.28,2.30 7.36,2.41 7.44,2.53 7.52,2.66 7.60,2.81 7.69,3.00 7.77,3.22 7.85,3.51 7.93,3.91 8.01,4.61 8.09,5.00" />
<polyline points="0.00,0.00 0.08,0.00 0.16,0.01 0.24,0.01 0.32,0.01 0.40,0.02 0.49,0.02 0.57,0.02 0.65,0.03 0.73,0.03 0.81,0.04 0.89,0.04 0.97,0.04 1.05,0.05 1.13,0.05 1.21,0.05 1.29,0.06 1.38,0.06 1.46,0.07 1.54,0.07 1.62,0.07 1.70,0.08 1.78,0.08 1.86,0.09 1.94,0.09 2.02,0.10 2.10,0.10 2.18,0.10 2.27,0.11 2.35,0.11 2.43,0.12 2.51,0.12 2.59,0.13 2.67,0.13 2.75,0.14 2.83,0.14 2.91,0.15 2.99,0.15 3.07,0.16 3.16,0.16 3.24,0.17 3.32,0.18 3.40,0.18 3.48,0.19 3.56,0.19 3.64,0.20 3.72,0.21 3.80,0.21 3.88,0.22 3.96,0.22 4.05,0.23 4.13,0.24 4.21,0.24 4.29,0.25 4.37,0.26 4.45,0.27 4.53,0.27 4.61,0.28 4.69,0.29 4.77,0.30 4.85,0.31 4.94,0.31 5.02,0.32 5.10,0.33 5.18,0.34 5.26,0.35 5.34,0.36 5.42,0.37 5.50,0.38 5.58,0.39 5.66,0.40 5.74,0.41 5.82,0.42 5.91,0.44 5.99,0.45 6.07,0.46 6.15,0.48 6.23,0.49 6.31,0.50 6.39,0.52 6.47,0.54 6.55,0.55 6.63,0.57 6.71,0.59 6.80,0.61 6.88,0.63 6.96,0.66 7.04,0.68 7.12,0.71 7.20,0.74 7.28,0.77 7.36,0.80 7.44,0.84 7.52,0.89 7.60,0.94 7.69,1.00 7.77,1.07 7.85,1.17 7.93,1.30 8.01,1.54 8.09,5.00" />
</g>
</svg>