<svg xmlns="http://www.w3.org/2000/svg" width="161.8" height="100.0" viewBox="-3 -5 172 110">
<g fill="none" stroke="black" stroke-width="4.0750%" transform="translate(0, 100.0000) scale(0.1227, -0.1227)">
<circle cx="14" cy="0" r="4" />
<line x1="14" y1="0" x2="14" y2="815" />
<line x1="27" y1="0" x2="27" y2="761" />
<line x1="41" y1="0" x2="41" y2="726" />
<line x1="55" y1="0" x2="55" y2="695" />
<line x1="69" y1="0" x2="69" y2="613" />
<line x1="82" y1="0" x2="82" y2="547" />
<line x1="96" y1="0" x2="96" y2="516" />
<line x1="110" y1="0" x2="110" y2="434" />
<line x1="124" y1="0" x2="124" y2="397" />
<line x1="137" y1="0" x2="137" y2="383" />
<line x1="151" y1="0" x2="151" y2="360" />
<line x1="165" y1="0" x2="165" y2="329" />
<line x1="179" y1="0" x2="179" y2="284" />
<line x1="192" y1="0" x2="192" y2="237" />
<line x1="206" y1="0" x2="206" y2="252" />
<line x1="220" y1="0" x2="220" y2="191" />
<line x1="234" y1="0" x2="234" y2="176" />
<line x1="247" y1="0" x2="247" y2="177" />
<line x1="261" y1="0" x2="261" y2="183" />
<line x1="275" y1="0" x2="275" y2="139" />
<line x1="288" y1="0" x2="288" y2="156" />
<line x1="302" y1="0" x2="302" y2="138" />
<line x1="316" y1="0" x2="316" y2="144" />
<line x1="330" y1="0" x2="330" y2="102" />
<line x1="343" y1="0" x2="343" y2="105" />
<line x1="357" y1="0" x2="357" y2="111" />
<line x1="371" y1="0" x2="371" y2="86" />
<line x1="385" y1="0" x2="385" y2="80" />
<line x1="398" y1="0" x2="398" y2="60" />
<line x1="412" y1="0" x2="412" y2="65" />
<line x1="426" y1="0" x2="426" y2="61" />
<line x1="440" y1="0" x2="440" y2="60" />
<line x1="453" y1="0" x2="453" y2="46" />
<line x1="467" y1="0" x2="467" y2="46" />
<line x1="481" y1="0" x2="481" y2="44" />
<line x1="495" y1="0" x2="495" y2="32" />
<line x1="508" y1="0" x2="508" y2="51" />
<line x1="522" y1="0" x2="522" y2="30" />
<line x1="536" y1="0" x2="536" y2="23" />
<line x1="549" y1="0" x2="549" y2="26" />
<line x1="563" y1="0" x2="563" y2="32" />
<line x1="577" y1="0" x2="577" y2="21" />
<line x1="591" y1="0" x2="591" y2="29" />
<line x1="604" y1="0" x2="604" y2="33" />
<line x1="618" y1="0" x2="618" y2="26" />
<line x1="632" y1="0" x2="632" y2="13" />
<line x1="646" y1="0" x2="646" y2="19" />
<line x1="659" y1="0" x2="659" y2="18" />
<line x1="673" y1="0" x2="673" y2="7" />
<line x1="687" y1="0" x2="687" y2="9" />
<line x1="701" y1="0" x2="701" y2="9" />
<line x1="714" y1="0" x2="714" y2="10" />
<line x1="728" y1="0" x2="728" y2="9" />
<line x1="742" y1="0" x2="742" y2="5" />
<line x1="756" y1="0" x2="756" y2="5" />
<line x1="769" y1="0" x2="769" y2="5" />
<line x1="783" y1="0" x2="783" y2="8" />
<line x1="797" y1="0" x2="797" y2="3" />
<line x1="810" y1="0" x2="810" y2="2" />
<line x1="824" y1="0" x2="824" y2="5" />
<line x1="838" y1="0" x2="838" y2="5" />
<line x1="852" y1="0" x2="852" y2="2" />
<line x1="865" y1="0" x2="865" y2="5" />
<line x1="879" y1="0" x2="879" y2="1" />
<line x1="893" y1="0" x2="893" y2="4" />
<line x1="907" y1="0" x2="907" y2="2" />
<line x1="920" y1="0" x2="920" y2="0" />
<line x1="934" y1="0" x2="934" y2="3" />
<line x1="948" y1="0" x2="948" y2="2" />
<line x1="962" y1="0" x2="962" y2="4" />
<line x1="975" y1="0" x2="975" y2="1" />
<line x1="989" y1="0" x2="989" y2="1" />
<line x1="1003" y1="0" x2="1003" y2="1" />
<line x1="1016" y1="0" x2="1016" y2="3" />
<line x1="1030" y1="0" x2="1030" y2="0" />
<line x1="1044" y1="0" x2="1044" y2="1" />
<line x1="1058" y1="0" x2="1058" y2="4" />
<line x1="1071" y1="0" x2="1071" y2="2" />
<line x1="1085" y1="0" x2="1085" y2="0" />
<line x1="1099" y1="0" x2="1099" y2="2" />
<line x1="1113" y1="0" x2="1113" y2="1" />
<line x1="1126" y1="0" x2="1126" y2="0" />
<line x1="1140" y1="0" x2="1140" y2="0" />
<line x1="1154" y1="0" x2="1154" y2="1" />
<line x1="1168" y1="0" x2="1168" y2="1" />
<line x1="1181" y1="0" x2="1181" y2="0" />
<line x1="1195" y1="0" x2="1195" y2="1" />
<line x1="1209" y1="0" x2="1209" y2="1" />
<line x1="1223" y1="0" x2="1223" y2="0" />
<line x1="1236" y1="0" x2="1236" y2="1" />
<line x1="1250" y1="0" x2="1250" y2="1" />
<line x1="1264" y1="0" x2="1264" y2="0" />
<line x1="1277" y1="0" x2="1277" y2="0" />
<line x1="1291" y1="0" x2="1291" y2="0" />
<line x1="1305" y1="0" x2="1305" y2="0" />
<line x1="1319" y1="0" x2="1319" y2="0" />
<line x1="1332" y1="0" x2="1332" y2="1" />
</g>
</svg>