<svg xmlns="http://www.w3.org/2000/svg" width="161.8" height="100.0" viewBox="-58.9345 -5.0000 171.8034 110.0000">
<g fill="none" stroke="black" stroke-width="0.0012%" transform="translate(0, 100.0000) scale(407.9714, -407.9714)">
<polyline points="-0.1322,0.0000 -0.1282,0.0000 -0.1243,0.0000 -0.1203,0.0000 -0.1163,0.0000 -0.1124,0.0000 -0.1084,0.0000 -0.1044,0.0000 -0.1005,0.0000 -0.0965,0.0000 -0.0925,0.0000 -0.0886,0.0000 -0.0846,0.0000 -0.0806,0.0000 -0.0767,0.0000 -0.0727,0.0000 -0.0687,0.0000 -0.0648,0.0000 -0.0608,0.0000 -0.0568,0.0001 -0.0529,0.0002 -0.0489,0.0006 -0.0449,0.0012 -0.0410,0.0025 -0.0370,0.0046 -0.0331,0.0080 -0.0291,0.0131 -0.0251,0.0204 -0.0212,0.0300 -0.0172,0.0422 -0.0132,0.0569 -0.0093,0.0739 -0.0053,0.0927 -0.0013,0.1128 0.0026,0.1333 0.0066,0.1536 0.0106,0.1731 0.0145,0.1909 0.0185,0.2066 0.0225,0.2199 0.0264,0.2304 0.0304,0.2381 0.0344,0.2430 0.0383,0.2451 0.0423,0.2447 0.0463,0.2420 0.0502,0.2374 0.0542,0.2310 0.0582,0.2233 0.0621,0.2145 0.0661,0.2048 0.0701,0.1946 0.0740,0.1841 0.0780,0.1733 0.0820,0.1626 0.0859,0.1521 0.0899,0.1417 0.0939,0.1317 0.0978,0.1221 0.1018,0.1129 0.1058,0.1042 0.1097,0.0960 0.1137,0.0883 0.1177,0.0811 0.1216,0.0744 0.1256,0.0681 0.1296,0.0623 0.1335,0.0569 0.1375,0.0520 0.1415,0.0474 0.1454,0.0432 0.1494,0.0394 0.1534,0.0358 0.1573,0.0326 0.1613,0.0296 0.1653,0.0269 0.1692,0.0245 0.1732,0.0222 0.1772,0.0202 0.1811,0.0183 0.1851,0.0166 0.1890,0.0151 0.1930,0.0137 0.1970,0.0124 0.2009,0.0112 0.2049,0.0102 0.2089,0.0092 0.2128,0.0084 0.2168,0.0076 0.2208,0.0069 0.2247,0.0062 0.2287,0.0056 0.2327,0.0051 0.2366,0.0046 0.2406,0.0042 0.2446,0.0038 0.2485,0.0034 0.2525,0.0031 0.2565,0.0028 0.2604,0.0025 0.2644,0.0023" />
<polyline points="-0.1322,0.0000 -0.1282,0.0000 -0.1243,0.0000 -0.1203,0.0000 -0.1163,0.0000 -0.1124,0.0000 -0.1084,0.0000 -0.1044,0.0000 -0.1005,0.0000 -0.0965,0.0000 -0.0925,0.0000 -0.0886,0.0001 -0.0846,0.0001 -0.0806,0.0003 -0.0767,0.0005 -0.0727,0.0010 -0.0687,0.0016 -0.0648,0.0027 -0.0608,0.0042 -0.0568,0.0063 -0.0529,0.0091 -0.0489,0.0128 -0.0449,0.0175 -0.0410,0.0232 -0.0370,0.0300 -0.0331,0.0379 -0.0291,0.0468 -0.0251,0.0566 -0.0212,0.0671 -0.0172,0.0782 -0.0132,0.0897 -0.0093,0.1013 -0.0053,0.1127 -0.0013,0.1238 0.0026,0.1344 0.0066,0.1442 0.0106,0.1531 0.0145,0.1610 0.0185,0.1678 0.0225,0.1734 0.0264,0.1778 0.0304,0.1810 0.0344,0.1830 0.0383,0.1839 0.0423,0.1837 0.0463,0.1826 0.0502,0.1805 0.0542,0.1777 0.0582,0.1742 0.0621,0.1700 0.0661,0.1654 0.0701,0.1603 0.0740,0.1549 0.0780,0.1492 0.0820,0.1433 0.0859,0.1374 0.0899,0.1314 0.0939,0.1253 0.0978,0.1193 0.1018,0.1134 0.1058,0.1076 0.1097,0.1019 0.1137,0.0964 0.1177,0.0910 0.1216,0.0858 0.1256,0.0809 0.1296,0.0761 0.1335,0.0715 0.1375,0.0672 0.1415,0.0630 0.1454,0.0591 0.1494,0.0554 0.1534,0.0518 0.1573,0.0485 0.1613,0.0453 0.1653,0.0424 0.1692,0.0396 0.1732,0.0369 0.1772,0.0345 0.1811,0.0322 0.1851,0.0300 0.1890,0.0279 0.1930,0.0260 0.1970,0.0243 0.2009,0.0226 0.2049,0.0210 0.2089,0.0196 0.2128,0.0182 0.2168,0.0169 0.2208,0.0158 0.2247,0.0146 0.2287,0.0136 0.2327,0.0127 0.2366,0.0118 0.2406,0.0109 0.2446,0.0102 0.2485,0.0094 0.2525,0.0088 0.2565,0.0082 0.2604,0.0076 0.2644,0.0070" />
<polyline points="-0.1322,0.0005 -0.1282,0.0007 -0.1243,0.0010 -0.1203,0.0014 -0.1163,0.0019 -0.1124,0.0025 -0.1084,0.0034 -0.1044,0.0044 -0.1005,0.0056 -0.0965,0.0071 -0.0925,0.0089 -0.0886,0.0109 -0.0846,0.0133 -0.0806,0.0159 -0.0767,0.0189 -0.0727,0.0223 -0.0687,0.0259 -0.0648,0.0298 -0.0608,0.0340 -0.0568,0.0385 -0.0529,0.0431 -0.0489,0.0480 -0.0449,0.0530 -0.0410,0.0581 -0.0370,0.0632 -0.0331,0.0684 -0.0291,0.0735 -0.0251,0.0785 -0.0212,0.0834 -0.0172,0.0881 -0.0132,0.0926 -0.0093,0.0968 -0.0053,0.1008 -0.0013,0.1045 0.0026,0.1079 0.0066,0.1109 0.0106,0.1136 0.0145,0.1160 0.0185,0.1179 0.0225,0.1196 0.0264,0.1208 0.0304,0.1218 0.0344,0.1223 0.0383,0.1226 0.0423,0.1226 0.0463,0.1222 0.0502,0.1216 0.0542,0.1207 0.0582,0.1196 0.0621,0.1182 0.0661,0.1167 0.0701,0.1149 0.0740,0.1130 0.0780,0.1110 0.0820,0.1088 0.0859,0.1065 0.0899,0.1041 0.0939,0.1016 0.0978,0.0990 0.1018,0.0964 0.1058,0.0938 0.1097,0.0911 0.1137,0.0885 0.1177,0.0858 0.1216,0.0831 0.1256,0.0804 0.1296,0.0778 0.1335,0.0752 0.1375,0.0726 0.1415,0.0700 0.1454,0.0675 0.1494,0.0650 0.1534,0.0626 0.1573,0.0603 0.1613,0.0580 0.1653,0.0557 0.1692,0.0535 0.1732,0.0514 0.1772,0.0494 0.1811,0.0474 0.1851,0.0454 0.1890,0.0435 0.1930,0.0417 0.1970,0.0400 0.2009,0.0383 0.2049,0.0366 0.2089,0.0351 0.2128,0.0336 0.2168,0.0321 0.2208,0.0307 0.2247,0.0293 0.2287,0.0280 0.2327,0.0268 0.2366,0.0256 0.2406,0.0244 0.2446,0.0233 0.2485,0.0223 0.2525,0.0213 0.2565,0.0203 0.2604,0.0194 0.2644,0.0185" />
</g>
</svg>