<svg xmlns="http://www.w3.org/2000/svg" width="161.8" height="100.0" viewBox="-69.721 -5.000 171.803 110.000">
<g fill="none" stroke="black" stroke-width="0.0050%" transform="translate(0, 100.0000) scale(100.0553, -100.0553)">
<circle cx="0.000" cy="0.999" r="0.005" />
<polyline points="-0.647,0.000 -0.631,0.000 -0.615,0.000 -0.598,0.000 -0.582,0.000 -0.566,0.001 -0.550,0.001 -0.534,0.002 -0.517,0.004 -0.501,0.007 -0.485,0.011 -0.469,0.017 -0.453,0.025 -0.437,0.036 -0.420,0.050 -0.404,0.066 -0.388,0.085 -0.372,0.108 -0.356,0.133 -0.340,0.162 -0.323,0.192 -0.307,0.225 -0.291,0.259 -0.275,0.295 -0.259,0.331 -0.243,0.368 -0.226,0.405 -0.210,0.441 -0.194,0.477 -0.178,0.512 -0.162,0.545 -0.146,0.578 -0.129,0.609 -0.113,0.638 -0.097,0.666 -0.081,0.692 -0.065,0.717 -0.049,0.740 -0.032,0.761 -0.016,0.781 0.000,0.800 0.016,0.817 0.032,0.833 0.049,0.848 0.065,0.861 0.081,0.873 0.097,0.885 0.113,0.895 0.129,0.905 0.146,0.913 0.162,0.921 0.178,0.928 0.194,0.935 0.210,0.941 0.226,0.946 0.243,0.951 0.259,0.956 0.275,0.960 0.291,0.964 0.307,0.967 0.323,0.970 0.340,0.973 0.356,0.976 0.372,0.978 0.388,0.980 0.404,0.982 0.420,0.984 0.437,0.985 0.453,0.987 0.469,0.988 0.485,0.989 0.501,0.990 0.517,0.991 0.534,0.992 0.550,0.993 0.566,0.993 0.582,0.994 0.598,0.994 0.615,0.995 0.631,0.995 0.647,0.996 0.663,0.996 0.679,0.997 0.695,0.997 0.712,0.997 0.728,0.998 0.744,0.998 0.760,0.998 0.776,0.998 0.792,0.998 0.809,0.998 0.825,0.999 0.841,0.999 0.857,0.999 0.873,0.999 0.889,0.999 0.906,0.999 0.922,0.999 0.938,0.999 0.954,0.999 0.970,0.999" />
<polyline points="-0.647,0.000 -0.631,0.000 -0.615,0.000 -0.598,0.000 -0.582,0.000 -0.566,0.000 -0.550,0.000 -0.534,0.000 -0.517,0.000 -0.501,0.000 -0.485,0.000 -0.469,0.000 -0.453,0.000 -0.437,0.000 -0.420,0.000 -0.404,0.000 -0.388,0.000 -0.372,0.000 -0.356,0.000 -0.340,0.000 -0.323,0.001 -0.307,0.001 -0.291,0.002 -0.275,0.004 -0.259,0.007 -0.243,0.011 -0.226,0.017 -0.210,0.025 -0.194,0.036 -0.178,0.050 -0.162,0.066 -0.146,0.085 -0.129,0.108 -0.113,0.133 -0.097,0.162 -0.081,0.192 -0.065,0.225 -0.049,0.259 -0.032,0.295 -0.016,0.331 0.000,0.368 0.016,0.405 0.032,0.441 0.049,0.477 0.065,0.512 0.081,0.545 0.097,0.578 0.113,0.609 0.129,0.638 0.146,0.666 0.162,0.692 0.178,0.717 0.194,0.740 0.210,0.761 0.226,0.781 0.243,0.800 0.259,0.817 0.275,0.833 0.291,0.848 0.307,0.861 0.323,0.873 0.340,0.885 0.356,0.895 0.372,0.905 0.388,0.913 0.404,0.921 0.420,0.928 0.437,0.935 0.453,0.941 0.469,0.946 0.485,0.951 0.501,0.956 0.517,0.960 0.534,0.964 0.550,0.967 0.566,0.970 0.582,0.973 0.598,0.976 0.615,0.978 0.631,0.980 0.647,0.982 0.663,0.984 0.679,0.985 0.695,0.987 0.712,0.988 0.728,0.989 0.744,0.990 0.760,0.991 0.776,0.992 0.792,0.993 0.809,0.993 0.825,0.994 0.841,0.994 0.857,0.995 0.873,0.995 0.889,0.996 0.906,0.996 0.922,0.997 0.938,0.997 0.954,0.997 0.970,0.998" />
<polyline points="-0.647,0.000 -0.631,0.000 -0.615,0.000 -0.598,0.000 -0.582,0.000 -0.566,0.000 -0.550,0.000 -0.534,0.000 -0.517,0.000 -0.501,0.000 -0.485,0.000 -0.469,0.000 -0.453,0.000 -0.437,0.000 -0.420,0.000 -0.404,0.000 -0.388,0.000 -0.372,0.000 -0.356,0.000 -0.340,0.000 -0.323,0.000 -0.307,0.000 -0.291,0.000 -0.275,0.000 -0.259,0.000 -0.243,0.000 -0.226,0.000 -0.210,0.000 -0.194,0.000 -0.178,0.000 -0.162,0.000 -0.146,0.000 -0.129,0.000 -0.113,0.000 -0.097,0.000 -0.081,0.000 -0.065,0.000 -0.049,0.000 -0.032,0.000 -0.016,0.000 0.000,0.001 0.016,0.001 0.032,0.002 0.049,0.004 0.065,0.007 0.081,0.011 0.097,0.017 0.113,0.025 0.129,0.036 0.146,0.050 0.162,0.066 0.178,0.085 0.194,0.108 0.210,0.133 0.226,0.162 0.243,0.192 0.259,0.225 0.275,0.259 0.291,0.295 0.307,0.331 0.323,0.368 0.340,0.405 0.356,0.441 0.372,0.477 0.388,0.512 0.404,0.545 0.420,0.578 0.437,0.609 0.453,0.638 0.469,0.666 0.485,0.692 0.501,0.717 0.517,0.740 0.534,0.761 0.550,0.781 0.566,0.800 0.582,0.817 0.598,0.833 0.615,0.848 0.631,0.861 0.647,0.873 0.663,0.885 0.679,0.895 0.695,0.905 0.712,0.913 0.728,0.921 0.744,0.928 0.760,0.935 0.776,0.941 0.792,0.946 0.809,0.951 0.825,0.956 0.841,0.960 0.857,0.964 0.873,0.967 0.889,0.970 0.906,0.973 0.922,0.976 0.938,0.978 0.954,0.980 0.970,0.982" />
</g>
</svg>