<svg xmlns="http://www.w3.org/2000/svg" width="100.0" height="100.0" viewBox="-5.000 -5.000 110.000 110.000">
<g fill="none" stroke="black" stroke-width="0.0050%" transform="translate(0, 100.0000) scale(100.0000, -100.0000)">
<polyline points="0.000,0.000 0.010,0.000 0.020,0.000 0.030,0.000 0.040,0.000 0.050,0.000 0.060,0.000 0.070,0.000 0.080,0.001 0.090,0.001 0.100,0.002 0.110,0.003 0.120,0.004 0.130,0.006 0.140,0.008 0.150,0.011 0.160,0.014 0.170,0.018 0.180,0.023 0.190,0.028 0.200,0.034 0.210,0.041 0.220,0.049 0.230,0.058 0.240,0.067 0.250,0.077 0.260,0.088 0.270,0.100 0.280,0.113 0.290,0.126 0.300,0.141 0.310,0.156 0.320,0.171 0.330,0.188 0.340,0.205 0.350,0.222 0.360,0.240 0.370,0.259 0.380,0.278 0.390,0.297 0.400,0.316 0.410,0.336 0.420,0.356 0.430,0.376 0.440,0.396 0.450,0.416 0.460,0.436 0.470,0.456 0.480,0.476 0.490,0.496 0.500,0.516 0.510,0.536 0.520,0.556 0.530,0.576 0.540,0.596 0.550,0.616 0.560,0.636 0.570,0.655 0.580,0.675 0.590,0.695 0.600,0.714 0.610,0.733 0.620,0.752 0.630,0.770 0.640,0.788 0.650,0.805 0.660,0.822 0.670,0.838 0.680,0.853 0.690,0.868 0.700,0.881 0.710,0.894 0.720,0.906 0.730,0.918 0.740,0.928 0.750,0.938 0.760,0.947 0.770,0.955 0.780,0.963 0.790,0.969 0.800,0.975 0.810,0.980 0.820,0.984 0.830,0.988 0.840,0.991 0.850,0.994 0.860,0.995 0.870,0.997 0.880,0.998 0.890,0.999 0.900,0.999 0.910,1.000 0.920,1.000 0.930,1.000 0.940,1.000 0.950,1.000 0.960,1.000 0.970,1.000 0.980,1.000 0.990,1.000 1.000,1.000" />
</g>
</svg>