<svg xmlns="http://www.w3.org/2000/svg" width="161.8" height="100.0" viewBox="-3.7 -4.1 171.8 110.0">
<g fill="none" stroke="black" stroke-width="0.5350%" transform="translate(0, 101.8692) scale(0.9346, -0.9346)">
<circle cx="1.4" cy="1.0" r="0.5" />
<circle cx="2.8" cy="1.0" r="0.5" />
<circle cx="4.2" cy="2.0" r="0.5" />
<circle cx="5.6" cy="1.0" r="0.5" />
<circle cx="7.0" cy="1.0" r="0.5" />
<circle cx="8.4" cy="2.0" r="0.5" />
<circle cx="9.9" cy="4.0" r="0.5" />
<circle cx="11.3" cy="3.0" r="0.5" />
<circle cx="12.7" cy="1.0" r="0.5" />
<circle cx="14.1" cy="6.0" r="0.5" />
<circle cx="15.5" cy="2.0" r="0.5" />
<circle cx="16.9" cy="8.0" r="0.5" />
<circle cx="18.3" cy="2.0" r="0.5" />
<circle cx="19.7" cy="1.0" r="0.5" />
<circle cx="21.1" cy="8.0" r="0.5" />
<circle cx="22.5" cy="12.0" r="0.5" />
<circle cx="23.9" cy="3.0" r="0.5" />
<circle cx="25.3" cy="14.0" r="0.5" />
<circle cx="26.7" cy="2.0" r="0.5" />
<circle cx="28.2" cy="2.0" r="0.5" />
<circle cx="29.6" cy="6.0" r="0.5" />
<circle cx="31.0" cy="18.0" r="0.5" />
<circle cx="32.4" cy="4.0" r="0.5" />
<circle cx="33.8" cy="5.0" r="0.5" />
<circle cx="35.2" cy="8.0" r="0.5" />
<circle cx="36.6" cy="9.0" r="0.5" />
<circle cx="38.0" cy="4.0" r="0.5" />
<circle cx="39.4" cy="24.0" r="0.5" />
<circle cx="40.8" cy="1.0" r="0.5" />
<circle cx="42.2" cy="26.0" r="0.5" />
<circle cx="43.6" cy="16.0" r="0.5" />
<circle cx="45.0" cy="6.0" r="0.5" />
<circle cx="46.4" cy="12.0" r="0.5" />
<circle cx="47.9" cy="2.0" r="0.5" />
<circle cx="49.3" cy="6.0" r="0.5" />
<circle cx="50.7" cy="32.0" r="0.5" />
<circle cx="52.1" cy="14.0" r="0.5" />
<circle cx="53.5" cy="8.0" r="0.5" />
<circle cx="54.9" cy="4.0" r="0.5" />
<circle cx="56.3" cy="36.0" r="0.5" />
<circle cx="57.7" cy="2.0" r="0.5" />
<circle cx="59.1" cy="38.0" r="0.5" />
<circle cx="60.5" cy="12.0" r="0.5" />
<circle cx="61.9" cy="3.0" r="0.5" />
<circle cx="63.3" cy="18.0" r="0.5" />
<circle cx="64.7" cy="42.0" r="0.5" />
<circle cx="66.2" cy="8.0" r="0.5" />
<circle cx="67.6" cy="14.0" r="0.5" />
<circle cx="69.0" cy="5.0" r="0.5" />
<circle cx="70.4" cy="12.0" r="0.5" />
<circle cx="71.8" cy="16.0" r="0.5" />
<circle cx="73.2" cy="48.0" r="0.5" />
<circle cx="74.6" cy="9.0" r="0.5" />
<circle cx="76.0" cy="6.0" r="0.5" />
<circle cx="77.4" cy="8.0" r="0.5" />
<circle cx="78.8" cy="14.0" r="0.5" />
<circle cx="80.2" cy="24.0" r="0.5" />
<circle cx="81.6" cy="54.0" r="0.5" />
<circle cx="83.0" cy="2.0" r="0.5" />
<circle cx="84.5" cy="56.0" r="0.5" />
<circle cx="85.9" cy="26.0" r="0.5" />
<circle cx="87.3" cy="6.0" r="0.5" />
<circle cx="88.7" cy="32.0" r="0.5" />
<circle cx="90.1" cy="8.0" r="0.5" />
<circle cx="91.5" cy="6.0" r="0.5" />
<circle cx="92.9" cy="62.0" r="0.5" />
<circle cx="94.3" cy="24.0" r="0.5" />
<circle cx="95.7" cy="18.0" r="0.5" />
<circle cx="97.1" cy="2.0" r="0.5" />
<circle cx="98.5" cy="66.0" r="0.5" />
<circle cx="99.9" cy="12.0" r="0.5" />
<circle cx="101.3" cy="68.0" r="0.5" />
<circle cx="102.8" cy="32.0" r="0.5" />
<circle cx="104.2" cy="5.0" r="0.5" />
<circle cx="105.6" cy="28.0" r="0.5" />
<circle cx="107.0" cy="12.0" r="0.5" />
<circle cx="108.4" cy="8.0" r="0.5" />
<circle cx="109.8" cy="74.0" r="0.5" />
<circle cx="111.2" cy="8.0" r="0.5" />
<circle cx="112.6" cy="27.0" r="0.5" />
<circle cx="114.0" cy="36.0" r="0.5" />
<circle cx="115.4" cy="78.0" r="0.5" />
<circle cx="116.8" cy="4.0" r="0.5" />
<circle cx="118.2" cy="12.0" r="0.5" />
<circle cx="119.6" cy="38.0" r="0.5" />
<circle cx="121.0" cy="24.0" r="0.5" />
<circle cx="122.5" cy="24.0" r="0.5" />
<circle cx="123.9" cy="84.0" r="0.5" />
<circle cx="125.3" cy="3.0" r="0.5" />
<circle cx="126.7" cy="16.0" r="0.5" />
<circle cx="128.1" cy="36.0" r="0.5" />
<circle cx="129.5" cy="26.0" r="0.5" />
<circle cx="130.9" cy="42.0" r="0.5" />
<circle cx="132.3" cy="14.0" r="0.5" />
<circle cx="133.7" cy="16.0" r="0.5" />
<circle cx="135.1" cy="92.0" r="0.5" />
<circle cx="136.5" cy="14.0" r="0.5" />
<circle cx="137.9" cy="18.0" r="0.5" />
<circle cx="139.3" cy="10.0" r="0.5" />
<circle cx="140.8" cy="96.0" r="0.5" />
<circle cx="142.2" cy="12.0" r="0.5" />
<circle cx="143.6" cy="98.0" r="0.5" />
<circle cx="145.0" cy="32.0" r="0.5" />
<circle cx="146.4" cy="2.0" r="0.5" />
<circle cx="147.8" cy="48.0" r="0.5" />
<circle cx="149.2" cy="102.0" r="0.5" />
<circle cx="150.6" cy="18.0" r="0.5" />
<circle cx="152.0" cy="104.0" r="0.5" />
<circle cx="153.4" cy="6.0" r="0.5" />
<circle cx="154.8" cy="32.0" r="0.5" />
<circle cx="156.2" cy="16.0" r="0.5" />
<circle cx="157.6" cy="108.0" r="0.5" />
<circle cx="159.1" cy="14.0" r="0.5" />
<circle cx="160.5" cy="18.0" r="0.5" />
<circle cx="161.9" cy="48.0" r="0.5" />
<circle cx="163.3" cy="24.0" r="0.5" />
<circle cx="164.7" cy="54.0" r="0.5" />
<circle cx="166.1" cy="24.0" r="0.5" />
<circle cx="167.5" cy="4.0" r="0.5" />
<circle cx="168.9" cy="66.0" r="0.5" />
<circle cx="170.3" cy="56.0" r="0.5" />
<circle cx="171.7" cy="36.0" r="0.5" />
<circle cx="173.1" cy="52.0" r="0.5" />
<circle cx="174.5" cy="25.0" r="0.5" />
</g>
</svg>