<svg xmlns="http://www.w3.org/2000/svg" width="161.8" height="100.0" viewBox="-4.4 -5.0 171.8 110.0">
<g fill="none" stroke="black" stroke-width="0.2010%" transform="translate(0, 100.0000) scale(2.4874, -2.4874)">
<circle cx="0.2" cy="0.0" r="0.2" />
<circle cx="0.5" cy="0.7" r="0.2" />
<circle cx="0.7" cy="1.4" r="0.2" />
<circle cx="0.9" cy="1.1" r="0.2" />
<circle cx="1.2" cy="2.1" r="0.2" />
<circle cx="1.4" cy="1.8" r="0.2" />
<circle cx="1.7" cy="2.8" r="0.2" />
<circle cx="1.9" cy="1.6" r="0.2" />
<circle cx="2.1" cy="2.2" r="0.2" />
<circle cx="2.4" cy="2.5" r="0.2" />
<circle cx="2.6" cy="3.5" r="0.2" />
<circle cx="2.8" cy="2.3" r="0.2" />
<circle cx="3.1" cy="4.2" r="0.2" />
<circle cx="3.3" cy="3.2" r="0.2" />
<circle cx="3.6" cy="2.9" r="0.2" />
<circle cx="3.8" cy="1.9" r="0.2" />
<circle cx="4.0" cy="4.9" r="0.2" />
<circle cx="4.3" cy="2.7" r="0.2" />
<circle cx="4.5" cy="5.5" r="0.2" />
<circle cx="4.7" cy="3.0" r="0.2" />
<circle cx="5.0" cy="3.6" r="0.2" />
<circle cx="5.2" cy="3.9" r="0.2" />
<circle cx="5.5" cy="6.2" r="0.2" />
<circle cx="5.7" cy="2.6" r="0.2" />
<circle cx="5.9" cy="3.3" r="0.2" />
<circle cx="6.2" cy="4.6" r="0.2" />
<circle cx="6.4" cy="3.2" r="0.2" />
<circle cx="6.6" cy="3.7" r="0.2" />
<circle cx="6.9" cy="6.9" r="0.2" />
<circle cx="7.1" cy="3.4" r="0.2" />
<circle cx="7.4" cy="7.6" r="0.2" />
<circle cx="7.6" cy="2.4" r="0.2" />
<circle cx="7.8" cy="4.3" r="0.2" />
<circle cx="8.1" cy="5.3" r="0.2" />
<circle cx="8.3" cy="4.0" r="0.2" />
<circle cx="8.5" cy="3.0" r="0.2" />
<circle cx="8.8" cy="8.3" r="0.2" />
<circle cx="9.0" cy="6.0" r="0.2" />
<circle cx="9.3" cy="5.0" r="0.2" />
<circle cx="9.5" cy="3.3" r="0.2" />
<circle cx="9.7" cy="9.0" r="0.2" />
<circle cx="10.0" cy="4.1" r="0.2" />
<circle cx="10.2" cy="9.7" r="0.2" />
<circle cx="10.4" cy="4.4" r="0.2" />
<circle cx="10.7" cy="3.9" r="0.2" />
<circle cx="10.9" cy="6.6" r="0.2" />
<circle cx="11.2" cy="10.4" r="0.2" />
<circle cx="11.4" cy="3.1" r="0.2" />
<circle cx="11.6" cy="4.4" r="0.2" />
<circle cx="11.9" cy="3.8" r="0.2" />
<circle cx="12.1" cy="5.7" r="0.2" />
<circle cx="12.3" cy="5.1" r="0.2" />
<circle cx="12.6" cy="11.1" r="0.2" />
<circle cx="12.8" cy="3.6" r="0.2" />
<circle cx="13.1" cy="4.7" r="0.2" />
<circle cx="13.3" cy="4.0" r="0.2" />
<circle cx="13.5" cy="6.4" r="0.2" />
<circle cx="13.8" cy="7.3" r="0.2" />
<circle cx="14.0" cy="11.8" r="0.2" />
<circle cx="14.2" cy="3.7" r="0.2" />
<circle cx="14.5" cy="12.5" r="0.2" />
<circle cx="14.7" cy="8.0" r="0.2" />
<circle cx="15.0" cy="4.6" r="0.2" />
<circle cx="15.2" cy="2.6" r="0.2" />
<circle cx="15.4" cy="5.4" r="0.2" />
<circle cx="15.7" cy="4.8" r="0.2" />
<circle cx="15.9" cy="13.2" r="0.2" />
<circle cx="16.1" cy="5.8" r="0.2" />
<circle cx="16.4" cy="7.0" r="0.2" />
<circle cx="16.6" cy="4.5" r="0.2" />
<circle cx="16.9" cy="13.9" r="0.2" />
<circle cx="17.1" cy="3.5" r="0.2" />
<circle cx="17.3" cy="14.6" r="0.2" />
<circle cx="17.6" cy="8.7" r="0.2" />
<circle cx="17.8" cy="4.3" r="0.2" />
<circle cx="18.0" cy="6.5" r="0.2" />
<circle cx="18.3" cy="5.1" r="0.2" />
<circle cx="18.5" cy="5.5" r="0.2" />
<circle cx="18.8" cy="15.2" r="0.2" />
<circle cx="19.0" cy="3.8" r="0.2" />
<circle cx="19.2" cy="3.9" r="0.2" />
<circle cx="19.5" cy="9.4" r="0.2" />
<circle cx="19.7" cy="15.9" r="0.2" />
<circle cx="19.9" cy="4.4" r="0.2" />
<circle cx="20.2" cy="6.1" r="0.2" />
<circle cx="20.4" cy="10.1" r="0.2" />
<circle cx="20.7" cy="7.7" r="0.2" />
<circle cx="20.9" cy="4.7" r="0.2" />
<circle cx="21.1" cy="16.6" r="0.2" />
<circle cx="21.4" cy="4.2" r="0.2" />
<circle cx="21.6" cy="5.8" r="0.2" />
<circle cx="21.8" cy="7.2" r="0.2" />
<circle cx="22.1" cy="8.4" r="0.2" />
<circle cx="22.3" cy="10.8" r="0.2" />
<circle cx="22.6" cy="6.8" r="0.2" />
<circle cx="22.8" cy="3.3" r="0.2" />
<circle cx="23.0" cy="17.3" r="0.2" />
<circle cx="23.3" cy="4.9" r="0.2" />
<circle cx="23.5" cy="5.3" r="0.2" />
<circle cx="23.7" cy="4.1" r="0.2" />
<circle cx="24.0" cy="18.0" r="0.2" />
<circle cx="24.2" cy="6.2" r="0.2" />
<circle cx="24.5" cy="18.7" r="0.2" />
<circle cx="24.7" cy="5.4" r="0.2" />
<circle cx="24.9" cy="5.0" r="0.2" />
<circle cx="25.2" cy="11.5" r="0.2" />
<circle cx="25.4" cy="19.4" r="0.2" />
<circle cx="25.6" cy="4.0" r="0.2" />
<circle cx="25.9" cy="20.1" r="0.2" />
<circle cx="26.1" cy="5.2" r="0.2" />
<circle cx="26.4" cy="9.1" r="0.2" />
<circle cx="26.6" cy="4.5" r="0.2" />
<circle cx="26.8" cy="20.8" r="0.2" />
<circle cx="27.1" cy="6.9" r="0.2" />
<circle cx="27.3" cy="7.5" r="0.2" />
<circle cx="27.5" cy="7.8" r="0.2" />
<circle cx="27.8" cy="6.0" r="0.2" />
<circle cx="28.0" cy="12.2" r="0.2" />
<circle cx="28.3" cy="6.5" r="0.2" />
<circle cx="28.5" cy="4.2" r="0.2" />
<circle cx="28.7" cy="5.5" r="0.2" />
<circle cx="29.0" cy="12.9" r="0.2" />
<circle cx="29.2" cy="9.8" r="0.2" />
<circle cx="29.4" cy="8.5" r="0.2" />
<circle cx="29.7" cy="4.8" r="0.2" />
<circle cx="29.9" cy="4.9" r="0.2" />
<circle cx="30.2" cy="21.5" r="0.2" />
<circle cx="30.4" cy="2.8" r="0.2" />
<circle cx="30.6" cy="10.5" r="0.2" />
<circle cx="30.9" cy="5.9" r="0.2" />
<circle cx="31.1" cy="22.2" r="0.2" />
<circle cx="31.3" cy="5.1" r="0.2" />
<circle cx="31.6" cy="7.2" r="0.2" />
<circle cx="31.8" cy="13.6" r="0.2" />
<circle cx="32.0" cy="4.6" r="0.2" />
<circle cx="32.3" cy="6.1" r="0.2" />
<circle cx="32.5" cy="22.9" r="0.2" />
<circle cx="32.8" cy="7.6" r="0.2" />
<circle cx="33.0" cy="23.6" r="0.2" />
<circle cx="33.2" cy="4.8" r="0.2" />
<circle cx="33.5" cy="11.2" r="0.2" />
<circle cx="33.7" cy="14.3" r="0.2" />
<circle cx="33.9" cy="6.2" r="0.2" />
<circle cx="34.2" cy="3.7" r="0.2" />
<circle cx="34.4" cy="8.1" r="0.2" />
<circle cx="34.7" cy="15.0" r="0.2" />
<circle cx="34.9" cy="5.4" r="0.2" />
<circle cx="35.1" cy="9.2" r="0.2" />
<circle cx="35.4" cy="24.3" r="0.2" />
<circle cx="35.6" cy="4.7" r="0.2" />
<circle cx="35.8" cy="25.0" r="0.2" />
<circle cx="36.1" cy="6.8" r="0.2" />
<circle cx="36.3" cy="6.7" r="0.2" />
<circle cx="36.6" cy="5.6" r="0.2" />
<circle cx="36.8" cy="8.8" r="0.2" />
<circle cx="37.0" cy="5.8" r="0.2" />
<circle cx="37.3" cy="25.6" r="0.2" />
<circle cx="37.5" cy="15.7" r="0.2" />
<circle cx="37.7" cy="11.9" r="0.2" />
<circle cx="38.0" cy="4.0" r="0.2" />
<circle cx="38.2" cy="7.9" r="0.2" />
<circle cx="38.5" cy="4.3" r="0.2" />
<circle cx="38.7" cy="26.3" r="0.2" />
<circle cx="38.9" cy="9.9" r="0.2" />
<circle cx="39.2" cy="5.7" r="0.2" />
<circle cx="39.4" cy="16.3" r="0.2" />
<circle cx="39.6" cy="27.0" r="0.2" />
<circle cx="39.9" cy="4.9" r="0.2" />
<circle cx="40.1" cy="6.6" r="0.2" />
<circle cx="40.4" cy="6.6" r="0.2" />
<circle cx="40.6" cy="7.4" r="0.2" />
<circle cx="40.8" cy="10.6" r="0.2" />
<circle cx="41.1" cy="27.7" r="0.2" />
<circle cx="41.3" cy="8.3" r="0.2" />
<circle cx="41.5" cy="5.5" r="0.2" />
<circle cx="41.8" cy="5.2" r="0.2" />
<circle cx="42.0" cy="12.6" r="0.2" />
<circle cx="42.3" cy="17.0" r="0.2" />
<circle cx="42.5" cy="28.4" r="0.2" />
<circle cx="42.7" cy="4.7" r="0.2" />
<circle cx="43.0" cy="29.1" r="0.2" />
<circle cx="43.2" cy="6.3" r="0.2" />
<circle cx="43.4" cy="13.3" r="0.2" />
<circle cx="43.7" cy="7.5" r="0.2" />
<circle cx="43.9" cy="9.5" r="0.2" />
<circle cx="44.2" cy="8.9" r="0.2" />
<circle cx="44.4" cy="6.9" r="0.2" />
<circle cx="44.6" cy="11.3" r="0.2" />
<circle cx="44.9" cy="5.3" r="0.2" />
<circle cx="45.1" cy="7.3" r="0.2" />
<circle cx="45.3" cy="29.8" r="0.2" />
<circle cx="45.6" cy="3.5" r="0.2" />
<circle cx="45.8" cy="30.5" r="0.2" />
<circle cx="46.1" cy="17.7" r="0.2" />
<circle cx="46.3" cy="6.4" r="0.2" />
<circle cx="46.5" cy="5.2" r="0.2" />
<circle cx="46.8" cy="31.2" r="0.2" />
<circle cx="47.0" cy="5.6" r="0.2" />
<circle cx="47.2" cy="31.9" r="0.2" />
<circle cx="47.5" cy="4.6" r="0.2" />
<circle cx="47.7" cy="14.0" r="0.2" />
<circle cx="48.0" cy="18.4" r="0.2" />
<circle cx="48.2" cy="8.6" r="0.2" />
<circle cx="48.4" cy="6.5" r="0.2" />
<circle cx="48.7" cy="10.2" r="0.2" />
<circle cx="48.9" cy="19.1" r="0.2" />
<circle cx="49.1" cy="8.1" r="0.2" />
<circle cx="49.4" cy="5.9" r="0.2" />
<circle cx="49.6" cy="7.6" r="0.2" />
<circle cx="49.9" cy="5.3" r="0.2" />
<circle cx="50.1" cy="32.6" r="0.2" />
<circle cx="50.3" cy="12.0" r="0.2" />
<circle cx="50.6" cy="14.7" r="0.2" />
<circle cx="50.8" cy="19.8" r="0.2" />
<circle cx="51.0" cy="10.9" r="0.2" />
<circle cx="51.3" cy="4.2" r="0.2" />
<circle cx="51.5" cy="9.2" r="0.2" />
<circle cx="51.8" cy="20.5" r="0.2" />
<circle cx="52.0" cy="15.4" r="0.2" />
<circle cx="52.2" cy="5.5" r="0.2" />
<circle cx="52.5" cy="7.3" r="0.2" />
<circle cx="52.7" cy="9.6" r="0.2" />
<circle cx="52.9" cy="33.3" r="0.2" />
<circle cx="53.2" cy="4.6" r="0.2" />
<circle cx="53.4" cy="5.0" r="0.2" />
<circle cx="53.7" cy="21.2" r="0.2" />
<circle cx="53.9" cy="34.0" r="0.2" />
<circle cx="54.1" cy="7.2" r="0.2" />
<circle cx="54.4" cy="34.7" r="0.2" />
<circle cx="54.6" cy="8.0" r="0.2" />
<circle cx="54.8" cy="6.1" r="0.2" />
<circle cx="55.1" cy="8.2" r="0.2" />
<circle cx="55.3" cy="35.4" r="0.2" />
<circle cx="55.6" cy="6.3" r="0.2" />
<circle cx="55.8" cy="11.6" r="0.2" />
<circle cx="56.0" cy="12.7" r="0.2" />
<circle cx="56.3" cy="16.1" r="0.2" />
<circle cx="56.5" cy="7.0" r="0.2" />
<circle cx="56.7" cy="36.0" r="0.2" />
<circle cx="57.0" cy="4.4" r="0.2" />
<circle cx="57.2" cy="36.7" r="0.2" />
<circle cx="57.5" cy="6.0" r="0.2" />
<circle cx="57.7" cy="4.8" r="0.2" />
<circle cx="57.9" cy="13.4" r="0.2" />
<circle cx="58.2" cy="5.9" r="0.2" />
<circle cx="58.4" cy="10.3" r="0.2" />
<circle cx="58.6" cy="8.0" r="0.2" />
<circle cx="58.9" cy="8.9" r="0.2" />
<circle cx="59.1" cy="16.8" r="0.2" />
<circle cx="59.4" cy="5.2" r="0.2" />
<circle cx="59.6" cy="37.4" r="0.2" />
<circle cx="59.8" cy="5.4" r="0.2" />
<circle cx="60.1" cy="8.3" r="0.2" />
<circle cx="60.3" cy="21.9" r="0.2" />
<circle cx="60.5" cy="7.1" r="0.2" />
<circle cx="60.8" cy="2.9" r="0.2" />
<circle cx="61.0" cy="38.1" r="0.2" />
<circle cx="61.3" cy="11.0" r="0.2" />
<circle cx="61.5" cy="9.9" r="0.2" />
<circle cx="61.7" cy="6.2" r="0.2" />
<circle cx="62.0" cy="8.8" r="0.2" />
<circle cx="62.2" cy="22.6" r="0.2" />
<circle cx="62.4" cy="38.8" r="0.2" />
<circle cx="62.7" cy="5.6" r="0.2" />
<circle cx="62.9" cy="12.3" r="0.2" />
<circle cx="63.1" cy="7.7" r="0.2" />
<circle cx="63.4" cy="17.4" r="0.2" />
<circle cx="63.6" cy="14.1" r="0.2" />
<circle cx="63.9" cy="39.5" r="0.2" />
<circle cx="64.1" cy="5.0" r="0.2" />
<circle cx="64.3" cy="40.2" r="0.2" />
<circle cx="64.6" cy="6.6" r="0.2" />
<circle cx="64.8" cy="6.8" r="0.2" />
<circle cx="65.0" cy="23.3" r="0.2" />
<circle cx="65.3" cy="6.2" r="0.2" />
</g>
</svg>