<svg xmlns="http://www.w3.org/2000/svg" width="161.8" height="100.0" viewBox="-3.92 -28.08 171.80 110.00">
<g fill="none" stroke="black" stroke-width="0.0323%" transform="translate(0, 53.8435) scale(15.4843, -15.4843)">
<circle cx="0.07" cy="0.00" r="0.03" />
<circle cx="0.07" cy="0.00" r="0.03" />
<circle cx="0.14" cy="0.00" r="0.03" />
<circle cx="0.21" cy="0.52" r="0.03" />
<circle cx="0.28" cy="0.00" r="0.03" />
<circle cx="0.35" cy="1.10" r="0.03" />
<circle cx="0.42" cy="0.00" r="0.03" />
<circle cx="0.49" cy="0.52" r="0.03" />
<circle cx="0.56" cy="0.00" r="0.03" />
<circle cx="0.63" cy="1.73" r="0.03" />
<circle cx="0.70" cy="0.75" r="0.03" />
<circle cx="0.77" cy="0.90" r="0.03" />
<circle cx="0.84" cy="-0.52" r="0.03" />
<circle cx="0.91" cy="1.10" r="0.03" />
<circle cx="0.98" cy="0.00" r="0.03" />
<circle cx="1.04" cy="0.52" r="0.03" />
<circle cx="1.11" cy="0.00" r="0.03" />
<circle cx="1.18" cy="2.44" r="0.03" />
<circle cx="1.25" cy="1.52" r="0.03" />
<circle cx="1.32" cy="1.55" r="0.03" />
<circle cx="1.39" cy="-0.52" r="0.03" />
<circle cx="1.46" cy="1.60" r="0.03" />
<circle cx="1.53" cy="0.00" r="0.03" />
<circle cx="1.60" cy="0.52" r="0.03" />
<circle cx="1.67" cy="-0.75" r="0.03" />
<circle cx="1.74" cy="1.73" r="0.03" />
<circle cx="1.81" cy="0.75" r="0.03" />
<circle cx="1.88" cy="0.90" r="0.03" />
<circle cx="1.95" cy="-0.52" r="0.03" />
<circle cx="2.02" cy="1.10" r="0.03" />
<circle cx="2.09" cy="0.00" r="0.03" />
<circle cx="2.16" cy="0.52" r="0.03" />
<circle cx="2.23" cy="0.00" r="0.03" />
<circle cx="2.30" cy="3.22" r="0.03" />
<circle cx="2.37" cy="2.30" r="0.03" />
<circle cx="2.44" cy="2.30" r="0.03" />
<circle cx="2.51" cy="1.10" r="0.03" />
<circle cx="2.58" cy="2.31" r="0.03" />
<circle cx="2.65" cy="1.17" r="0.03" />
<circle cx="2.72" cy="1.23" r="0.03" />
<circle cx="2.79" cy="-1.01" r="0.03" />
<circle cx="2.86" cy="2.34" r="0.03" />
<circle cx="2.93" cy="1.29" r="0.03" />
<circle cx="3.00" cy="1.34" r="0.03" />
<circle cx="3.07" cy="-0.90" r="0.03" />
<circle cx="3.13" cy="1.42" r="0.03" />
<circle cx="3.20" cy="-0.75" r="0.03" />
<circle cx="3.27" cy="-0.52" r="0.03" />
<circle cx="3.34" cy="-0.90" r="0.03" />
<circle cx="3.41" cy="2.44" r="0.03" />
<circle cx="3.48" cy="1.52" r="0.03" />
<circle cx="3.55" cy="1.55" r="0.03" />
<circle cx="3.62" cy="-0.52" r="0.03" />
<circle cx="3.69" cy="1.60" r="0.03" />
<circle cx="3.76" cy="0.00" r="0.03" />
<circle cx="3.83" cy="0.52" r="0.03" />
<circle cx="3.90" cy="-0.75" r="0.03" />
<circle cx="3.97" cy="1.73" r="0.03" />
<circle cx="4.04" cy="0.75" r="0.03" />
<circle cx="4.11" cy="0.90" r="0.03" />
<circle cx="4.18" cy="-0.52" r="0.03" />
<circle cx="4.25" cy="1.10" r="0.03" />
<circle cx="4.32" cy="0.00" r="0.03" />
<circle cx="4.39" cy="0.52" r="0.03" />
<circle cx="4.46" cy="0.00" r="0.03" />
<circle cx="4.53" cy="4.06" r="0.03" />
<circle cx="4.60" cy="3.12" r="0.03" />
<circle cx="4.67" cy="3.12" r="0.03" />
<circle cx="4.74" cy="2.09" r="0.03" />
<circle cx="4.81" cy="3.12" r="0.03" />
<circle cx="4.88" cy="2.10" r="0.03" />
<circle cx="4.95" cy="2.11" r="0.03" />
<circle cx="5.02" cy="-1.01" r="0.03" />
<circle cx="5.09" cy="3.12" r="0.03" />
<circle cx="5.16" cy="2.11" r="0.03" />
<circle cx="5.22" cy="2.12" r="0.03" />
<circle cx="5.29" cy="-0.90" r="0.03" />
<circle cx="5.36" cy="2.14" r="0.03" />
<circle cx="5.43" cy="-0.75" r="0.03" />
<circle cx="5.50" cy="-0.52" r="0.03" />
<circle cx="5.57" cy="-1.23" r="0.03" />
<circle cx="5.64" cy="3.14" r="0.03" />
<circle cx="5.71" cy="2.16" r="0.03" />
<circle cx="5.78" cy="2.16" r="0.03" />
<circle cx="5.85" cy="-0.52" r="0.03" />
<circle cx="5.92" cy="2.18" r="0.03" />
<circle cx="5.99" cy="0.00" r="0.03" />
<circle cx="6.06" cy="0.52" r="0.03" />
<circle cx="6.13" cy="-1.17" r="0.03" />
<circle cx="6.20" cy="2.22" r="0.03" />
<circle cx="6.27" cy="0.75" r="0.03" />
<circle cx="6.34" cy="0.90" r="0.03" />
<circle cx="6.41" cy="-1.10" r="0.03" />
<circle cx="6.48" cy="1.10" r="0.03" />
<circle cx="6.55" cy="-1.01" r="0.03" />
<circle cx="6.62" cy="-0.90" r="0.03" />
<circle cx="6.69" cy="-1.01" r="0.03" />
<circle cx="6.76" cy="3.22" r="0.03" />
<circle cx="6.83" cy="2.30" r="0.03" />
<circle cx="6.90" cy="2.30" r="0.03" />
<circle cx="6.97" cy="1.10" r="0.03" />
<circle cx="7.04" cy="2.31" r="0.03" />
<circle cx="7.11" cy="1.17" r="0.03" />
<circle cx="7.18" cy="1.23" r="0.03" />
<circle cx="7.25" cy="-1.01" r="0.03" />
<circle cx="7.31" cy="2.34" r="0.03" />
<circle cx="7.38" cy="1.29" r="0.03" />
<circle cx="7.45" cy="1.34" r="0.03" />
<circle cx="7.52" cy="-0.90" r="0.03" />
<circle cx="7.59" cy="1.42" r="0.03" />
<circle cx="7.66" cy="-0.75" r="0.03" />
<circle cx="7.73" cy="-0.52" r="0.03" />
<circle cx="7.80" cy="-0.90" r="0.03" />
<circle cx="7.87" cy="2.44" r="0.03" />
<circle cx="7.94" cy="1.52" r="0.03" />
<circle cx="8.01" cy="1.55" r="0.03" />
<circle cx="8.08" cy="-0.52" r="0.03" />
<circle cx="8.15" cy="1.60" r="0.03" />
<circle cx="8.22" cy="0.00" r="0.03" />
<circle cx="8.29" cy="0.52" r="0.03" />
<circle cx="8.36" cy="-0.75" r="0.03" />
<circle cx="8.43" cy="1.73" r="0.03" />
<circle cx="8.50" cy="0.75" r="0.03" />
<circle cx="8.57" cy="0.90" r="0.03" />
<circle cx="8.64" cy="-0.52" r="0.03" />
<circle cx="8.71" cy="1.10" r="0.03" />
<circle cx="8.78" cy="0.00" r="0.03" />
<circle cx="8.85" cy="0.52" r="0.03" />
<circle cx="8.92" cy="0.00" r="0.03" />
<circle cx="8.99" cy="4.97" r="0.03" />
<circle cx="9.06" cy="3.98" r="0.03" />
<circle cx="9.13" cy="3.98" r="0.03" />
<circle cx="9.20" cy="2.98" r="0.03" />
<circle cx="9.27" cy="3.98" r="0.03" />
<circle cx="9.33" cy="2.98" r="0.03" />
<circle cx="9.40" cy="2.98" r="0.03" />
<circle cx="9.47" cy="1.67" r="0.03" />
<circle cx="9.54" cy="3.98" r="0.03" />
<circle cx="9.61" cy="2.98" r="0.03" />
<circle cx="9.68" cy="2.98" r="0.03" />
<circle cx="9.75" cy="1.69" r="0.03" />
<circle cx="9.82" cy="2.98" r="0.03" />
<circle cx="9.89" cy="1.71" r="0.03" />
<circle cx="9.96" cy="1.73" r="0.03" />
<circle cx="10.03" cy="-1.49" r="0.03" />
<circle cx="10.10" cy="3.99" r="0.03" />
<circle cx="10.17" cy="2.99" r="0.03" />
<circle cx="10.24" cy="2.99" r="0.03" />
<circle cx="10.31" cy="1.73" r="0.03" />
<circle cx="10.38" cy="2.99" r="0.03" />
<circle cx="10.45" cy="1.75" r="0.03" />
<circle cx="10.52" cy="1.77" r="0.03" />
</g>
</svg>