<svg xmlns="http://www.w3.org/2000/svg" width="161.8" height="100.0" viewBox="-3.382 28.333 171.803 110.000">
<g fill="none" stroke="black" stroke-width="0.0150%" transform="translate(0, 166.6667) scale(33.3333, -33.3333)">
<circle cx="0.049" cy="1.000" r="0.015" />
<circle cx="0.097" cy="1.000" r="0.015" />
<circle cx="0.146" cy="2.000" r="0.015" />
<circle cx="0.194" cy="1.000" r="0.015" />
<circle cx="0.243" cy="2.000" r="0.015" />
<circle cx="0.291" cy="1.000" r="0.015" />
<circle cx="0.340" cy="2.000" r="0.015" />
<circle cx="0.388" cy="2.000" r="0.015" />
<circle cx="0.437" cy="2.000" r="0.015" />
<circle cx="0.485" cy="2.000" r="0.015" />
<circle cx="0.534" cy="3.000" r="0.015" />
<circle cx="0.582" cy="2.000" r="0.015" />
<circle cx="0.631" cy="2.000" r="0.015" />
<circle cx="0.680" cy="2.000" r="0.015" />
<circle cx="0.728" cy="2.000" r="0.015" />
<circle cx="0.777" cy="2.000" r="0.015" />
<circle cx="0.825" cy="3.000" r="0.015" />
<circle cx="0.874" cy="2.000" r="0.015" />
<circle cx="0.922" cy="3.000" r="0.015" />
<circle cx="0.971" cy="2.000" r="0.015" />
<circle cx="1.019" cy="3.000" r="0.015" />
<circle cx="1.068" cy="2.000" r="0.015" />
<circle cx="1.116" cy="3.000" r="0.015" />
<circle cx="1.165" cy="2.000" r="0.015" />
<circle cx="1.214" cy="3.000" r="0.015" />
<circle cx="1.262" cy="2.000" r="0.015" />
<circle cx="1.311" cy="3.000" r="0.015" />
<circle cx="1.359" cy="2.000" r="0.015" />
<circle cx="1.408" cy="3.000" r="0.015" />
<circle cx="1.456" cy="2.000" r="0.015" />
<circle cx="1.505" cy="2.000" r="0.015" />
<circle cx="1.553" cy="3.000" r="0.015" />
<circle cx="1.602" cy="3.000" r="0.015" />
<circle cx="1.650" cy="2.000" r="0.015" />
<circle cx="1.699" cy="4.000" r="0.015" />
<circle cx="1.747" cy="2.000" r="0.015" />
<circle cx="1.796" cy="3.000" r="0.015" />
<circle cx="1.845" cy="3.000" r="0.015" />
<circle cx="1.893" cy="3.000" r="0.015" />
<circle cx="1.942" cy="2.000" r="0.015" />
<circle cx="1.990" cy="3.000" r="0.015" />
<circle cx="2.039" cy="2.000" r="0.015" />
<circle cx="2.087" cy="4.000" r="0.015" />
<circle cx="2.136" cy="3.000" r="0.015" />
<circle cx="2.184" cy="3.000" r="0.015" />
<circle cx="2.233" cy="2.000" r="0.015" />
<circle cx="2.281" cy="3.000" r="0.015" />
<circle cx="2.330" cy="2.000" r="0.015" />
<circle cx="2.379" cy="3.000" r="0.015" />
<circle cx="2.427" cy="3.000" r="0.015" />
<circle cx="2.476" cy="4.000" r="0.015" />
<circle cx="2.524" cy="2.000" r="0.015" />
<circle cx="2.573" cy="3.000" r="0.015" />
<circle cx="2.621" cy="3.000" r="0.015" />
<circle cx="2.670" cy="3.000" r="0.015" />
<circle cx="2.718" cy="3.000" r="0.015" />
<circle cx="2.767" cy="3.000" r="0.015" />
<circle cx="2.815" cy="2.000" r="0.015" />
<circle cx="2.864" cy="4.000" r="0.015" />
<circle cx="2.912" cy="2.000" r="0.015" />
<circle cx="2.961" cy="3.000" r="0.015" />
<circle cx="3.010" cy="3.000" r="0.015" />
<circle cx="3.058" cy="2.000" r="0.015" />
<circle cx="3.107" cy="3.000" r="0.015" />
<circle cx="3.155" cy="4.000" r="0.015" />
<circle cx="3.204" cy="2.000" r="0.015" />
<circle cx="3.252" cy="4.000" r="0.015" />
<circle cx="3.301" cy="3.000" r="0.015" />
<circle cx="3.349" cy="3.000" r="0.015" />
<circle cx="3.398" cy="2.000" r="0.015" />
<circle cx="3.446" cy="4.000" r="0.015" />
<circle cx="3.495" cy="2.000" r="0.015" />
<circle cx="3.543" cy="3.000" r="0.015" />
<circle cx="3.592" cy="3.000" r="0.015" />
<circle cx="3.641" cy="4.000" r="0.015" />
<circle cx="3.689" cy="3.000" r="0.015" />
<circle cx="3.738" cy="4.000" r="0.015" />
<circle cx="3.786" cy="2.000" r="0.015" />
<circle cx="3.835" cy="3.000" r="0.015" />
<circle cx="3.883" cy="2.000" r="0.015" />
<circle cx="3.932" cy="3.000" r="0.015" />
<circle cx="3.980" cy="2.000" r="0.015" />
<circle cx="4.029" cy="4.000" r="0.015" />
<circle cx="4.077" cy="3.000" r="0.015" />
<circle cx="4.126" cy="3.000" r="0.015" />
<circle cx="4.175" cy="3.000" r="0.015" />
<circle cx="4.223" cy="4.000" r="0.015" />
<circle cx="4.272" cy="2.000" r="0.015" />
<circle cx="4.320" cy="4.000" r="0.015" />
<circle cx="4.369" cy="3.000" r="0.015" />
<circle cx="4.417" cy="4.000" r="0.015" />
<circle cx="4.466" cy="3.000" r="0.015" />
<circle cx="4.514" cy="3.000" r="0.015" />
<circle cx="4.563" cy="3.000" r="0.015" />
<circle cx="4.611" cy="3.000" r="0.015" />
<circle cx="4.660" cy="2.000" r="0.015" />
<circle cx="4.708" cy="3.000" r="0.015" />
<circle cx="4.757" cy="4.000" r="0.015" />
<circle cx="4.806" cy="4.000" r="0.015" />
<circle cx="4.854" cy="3.000" r="0.015" />
<circle cx="4.903" cy="4.000" r="0.015" />
</g>
</svg>