<svg xmlns="http://www.w3.org/2000/svg" width="161.8" height="100.0" viewBox="-3.43 -5.00 171.80 110.00">
<g fill="none" stroke="black" stroke-width="0.0200%" transform="translate(0, 100.0000) scale(25.0000, -25.0000)">
<line x1="0.06" y1="0.00" x2="0.06" y2="1.00" />

<line x1="0.19" y1="0.00" x2="0.19" y2="1.00" />
<line x1="0.25" y1="0.00" x2="0.25" y2="2.00" />


<line x1="0.44" y1="0.00" x2="0.44" y2="1.00" />
<line x1="0.50" y1="0.00" x2="0.50" y2="1.00" />
<line x1="0.57" y1="0.00" x2="0.57" y2="2.00" />


<line x1="0.75" y1="0.00" x2="0.75" y2="2.00" />


<line x1="0.94" y1="0.00" x2="0.94" y2="1.00" />
<line x1="1.01" y1="0.00" x2="1.01" y2="2.00" />
<line x1="1.07" y1="0.00" x2="1.07" y2="1.00" />

<line x1="1.19" y1="0.00" x2="1.19" y2="2.00" />




<line x1="1.51" y1="0.00" x2="1.51" y2="3.00" />
<line x1="1.57" y1="0.00" x2="1.57" y2="2.00" />


<line x1="1.76" y1="0.00" x2="1.76" y2="2.00" />


<line x1="1.95" y1="0.00" x2="1.95" y2="1.00" />

<line x1="2.07" y1="0.00" x2="2.07" y2="2.00" />

<line x1="2.20" y1="0.00" x2="2.20" y2="1.00" />
<line x1="2.26" y1="0.00" x2="2.26" y2="2.00" />


<line x1="2.45" y1="0.00" x2="2.45" y2="2.00" />
<line x1="2.51" y1="0.00" x2="2.51" y2="2.00" />



<line x1="2.76" y1="0.00" x2="2.76" y2="2.00" />



<line x1="3.02" y1="0.00" x2="3.02" y2="1.00" />
<line x1="3.08" y1="0.00" x2="3.08" y2="3.00" />

<line x1="3.20" y1="0.00" x2="3.20" y2="2.00" />
<line x1="3.27" y1="0.00" x2="3.27" y2="2.00" />




<line x1="3.58" y1="0.00" x2="3.58" y2="2.00" />


<line x1="3.77" y1="0.00" x2="3.77" y2="2.00" />


<line x1="3.96" y1="0.00" x2="3.96" y2="1.00" />
<line x1="4.02" y1="0.00" x2="4.02" y2="4.00" />


<line x1="4.21" y1="0.00" x2="4.21" y2="2.00" />



<line x1="4.46" y1="0.00" x2="4.46" y2="1.00" />
<line x1="4.52" y1="0.00" x2="4.52" y2="2.00" />
<line x1="4.59" y1="0.00" x2="4.59" y2="2.00" />





<line x1="4.96" y1="0.00" x2="4.96" y2="2.00" />
<line x1="5.03" y1="0.00" x2="5.03" y2="1.00" />
<line x1="5.09" y1="0.00" x2="5.09" y2="2.00" />


<line x1="5.28" y1="0.00" x2="5.28" y2="4.00" />



<line x1="5.53" y1="0.00" x2="5.53" y2="2.00" />
<line x1="5.59" y1="0.00" x2="5.59" y2="2.00" />






<line x1="6.03" y1="0.00" x2="6.03" y2="2.00" />
<line x1="6.10" y1="0.00" x2="6.10" y2="1.00" />

<line x1="6.22" y1="0.00" x2="6.22" y2="3.00" />
<line x1="6.28" y1="0.00" x2="6.28" y2="2.00" />


<line x1="6.47" y1="0.00" x2="6.47" y2="2.00" />

</g>
</svg>