<svg xmlns="http://www.w3.org/2000/svg" width="161.8" height="100.0" viewBox="-3 -66 172 110">
<g fill="none" stroke="black" stroke-width="2.8800%" transform="translate(0, -21.8750) scale(0.1736, -0.1736)">
<line x1="13" y1="0" x2="13" y2="-3" />
<line x1="27" y1="0" x2="27" y2="-5" />
<line x1="40" y1="0" x2="40" y2="1" />
<line x1="53" y1="0" x2="53" y2="-9" />
<line x1="67" y1="0" x2="67" y2="15" />
<line x1="80" y1="0" x2="80" y2="-13" />
<line x1="93" y1="0" x2="93" y2="1" />
<line x1="107" y1="0" x2="107" y2="4" />
<line x1="120" y1="0" x2="120" y2="27" />
<line x1="133" y1="0" x2="133" y2="-21" />
<line x1="146" y1="0" x2="146" y2="-5" />
<line x1="160" y1="0" x2="160" y2="-25" />
<line x1="173" y1="0" x2="173" y2="39" />
<line x1="186" y1="0" x2="186" y2="45" />
<line x1="200" y1="0" x2="200" y2="1" />
<line x1="213" y1="0" x2="213" y2="-33" />
<line x1="226" y1="0" x2="226" y2="-12" />
<line x1="240" y1="0" x2="240" y2="-37" />
<line x1="253" y1="0" x2="253" y2="-9" />
<line x1="266" y1="0" x2="266" y2="65" />
<line x1="280" y1="0" x2="280" y2="63" />
<line x1="293" y1="0" x2="293" y2="-45" />
<line x1="306" y1="0" x2="306" y2="-5" />
<line x1="320" y1="0" x2="320" y2="16" />
<line x1="333" y1="0" x2="333" y2="75" />
<line x1="346" y1="0" x2="346" y2="4" />
<line x1="359" y1="0" x2="359" y2="-13" />
<line x1="373" y1="0" x2="373" y2="-57" />
<line x1="386" y1="0" x2="386" y2="-135" />
<line x1="399" y1="0" x2="399" y2="-61" />
<line x1="413" y1="0" x2="413" y2="1" />
<line x1="426" y1="0" x2="426" y2="105" />
<line x1="439" y1="0" x2="439" y2="99" />
<line x1="453" y1="0" x2="453" y2="117" />
<line x1="466" y1="0" x2="466" y2="4" />
<line x1="479" y1="0" x2="479" y2="-73" />
<line x1="493" y1="0" x2="493" y2="111" />
<line x1="506" y1="0" x2="506" y2="125" />
<line x1="519" y1="0" x2="519" y2="-9" />
<line x1="533" y1="0" x2="533" y2="-81" />
<line x1="546" y1="0" x2="546" y2="-195" />
<line x1="559" y1="0" x2="559" y2="-85" />
<line x1="573" y1="0" x2="573" y2="-21" />
<line x1="586" y1="0" x2="586" y2="-36" />
<line x1="599" y1="0" x2="599" y2="135" />
<line x1="612" y1="0" x2="612" y2="-93" />
<line x1="626" y1="0" x2="626" y2="-5" />
<line x1="639" y1="0" x2="639" y2="36" />
<line x1="652" y1="0" x2="652" y2="-48" />
<line x1="666" y1="0" x2="666" y2="165" />
<line x1="679" y1="0" x2="679" y2="-25" />
<line x1="692" y1="0" x2="692" y2="-105" />
<line x1="706" y1="0" x2="706" y2="-12" />
<line x1="719" y1="0" x2="719" y2="189" />
<line x1="732" y1="0" x2="732" y2="-13" />
<line x1="746" y1="0" x2="746" y2="185" />
<line x1="759" y1="0" x2="759" y2="171" />
<line x1="772" y1="0" x2="772" y2="-117" />
<line x1="786" y1="0" x2="786" y2="45" />
<line x1="799" y1="0" x2="799" y2="-121" />
<line x1="812" y1="0" x2="812" y2="183" />
<line x1="825" y1="0" x2="825" y2="-52" />
<line x1="839" y1="0" x2="839" y2="1" />
<line x1="852" y1="0" x2="852" y2="225" />
<line x1="865" y1="0" x2="865" y2="-315" />
<line x1="879" y1="0" x2="879" y2="-133" />
<line x1="892" y1="0" x2="892" y2="-33" />
<line x1="905" y1="0" x2="905" y2="225" />
<line x1="919" y1="0" x2="919" y2="-351" />
<line x1="932" y1="0" x2="932" y2="-141" />
<line x1="945" y1="0" x2="945" y2="4" />
</g>
</svg>