<svg xmlns="http://www.w3.org/2000/svg" width="161.8" height="100.0" viewBox="-4.4 -2.7 171.8 110.0">
<g fill="none" stroke="black" stroke-width="0.2200%" transform="translate(0, 104.5455) scale(2.2727, -2.2727)">
<circle cx="0.3" cy="1.0" r="0.2" />
<circle cx="0.6" cy="1.0" r="0.2" />
<circle cx="0.9" cy="2.0" r="0.2" />
<circle cx="1.1" cy="1.0" r="0.2" />
<circle cx="1.4" cy="2.0" r="0.2" />
<circle cx="1.7" cy="1.0" r="0.2" />
<circle cx="2.0" cy="3.0" r="0.2" />
<circle cx="2.3" cy="3.0" r="0.2" />
<circle cx="2.6" cy="4.0" r="0.2" />
<circle cx="2.8" cy="2.0" r="0.2" />
<circle cx="3.1" cy="3.0" r="0.2" />
<circle cx="3.4" cy="1.0" r="0.2" />
<circle cx="3.7" cy="5.0" r="0.2" />
<circle cx="4.0" cy="4.0" r="0.2" />
<circle cx="4.3" cy="5.0" r="0.2" />
<circle cx="4.6" cy="2.0" r="0.2" />
<circle cx="4.8" cy="3.0" r="0.2" />
<circle cx="5.1" cy="1.0" r="0.2" />
<circle cx="5.4" cy="6.0" r="0.2" />
<circle cx="5.7" cy="4.0" r="0.2" />
<circle cx="6.0" cy="5.0" r="0.2" />
<circle cx="6.3" cy="2.0" r="0.2" />
<circle cx="6.5" cy="3.0" r="0.2" />
<circle cx="6.8" cy="1.0" r="0.2" />
<circle cx="7.1" cy="4.0" r="0.2" />
<circle cx="7.4" cy="6.0" r="0.2" />
<circle cx="7.7" cy="7.0" r="0.2" />
<circle cx="8.0" cy="7.0" r="0.2" />
<circle cx="8.3" cy="8.0" r="0.2" />
<circle cx="8.5" cy="6.0" r="0.2" />
<circle cx="8.8" cy="8.0" r="0.2" />
<circle cx="9.1" cy="9.0" r="0.2" />
<circle cx="9.4" cy="10.0" r="0.2" />
<circle cx="9.7" cy="7.0" r="0.2" />
<circle cx="10.0" cy="8.0" r="0.2" />
<circle cx="10.3" cy="4.0" r="0.2" />
<circle cx="10.5" cy="11.0" r="0.2" />
<circle cx="10.8" cy="9.0" r="0.2" />
<circle cx="11.1" cy="10.0" r="0.2" />
<circle cx="11.4" cy="5.0" r="0.2" />
<circle cx="11.7" cy="6.0" r="0.2" />
<circle cx="12.0" cy="2.0" r="0.2" />
<circle cx="12.2" cy="11.0" r="0.2" />
<circle cx="12.5" cy="7.0" r="0.2" />
<circle cx="12.8" cy="8.0" r="0.2" />
<circle cx="13.1" cy="3.0" r="0.2" />
<circle cx="13.4" cy="4.0" r="0.2" />
<circle cx="13.7" cy="1.0" r="0.2" />
<circle cx="14.0" cy="9.0" r="0.2" />
<circle cx="14.2" cy="12.0" r="0.2" />
<circle cx="14.5" cy="13.0" r="0.2" />
<circle cx="14.8" cy="12.0" r="0.2" />
<circle cx="15.1" cy="13.0" r="0.2" />
<circle cx="15.4" cy="9.0" r="0.2" />
<circle cx="15.7" cy="14.0" r="0.2" />
<circle cx="15.9" cy="14.0" r="0.2" />
<circle cx="16.2" cy="15.0" r="0.2" />
<circle cx="16.5" cy="10.0" r="0.2" />
<circle cx="16.8" cy="11.0" r="0.2" />
<circle cx="17.1" cy="5.0" r="0.2" />
<circle cx="17.4" cy="16.0" r="0.2" />
<circle cx="17.7" cy="12.0" r="0.2" />
<circle cx="17.9" cy="13.0" r="0.2" />
<circle cx="18.2" cy="6.0" r="0.2" />
<circle cx="18.5" cy="7.0" r="0.2" />
<circle cx="18.8" cy="2.0" r="0.2" />
<circle cx="19.1" cy="14.0" r="0.2" />
<circle cx="19.4" cy="8.0" r="0.2" />
<circle cx="19.6" cy="9.0" r="0.2" />
<circle cx="19.9" cy="3.0" r="0.2" />
<circle cx="20.2" cy="4.0" r="0.2" />
<circle cx="20.5" cy="1.0" r="0.2" />
<circle cx="20.8" cy="15.0" r="0.2" />
<circle cx="21.1" cy="17.0" r="0.2" />
<circle cx="21.4" cy="18.0" r="0.2" />
<circle cx="21.6" cy="15.0" r="0.2" />
<circle cx="21.9" cy="16.0" r="0.2" />
<circle cx="22.2" cy="10.0" r="0.2" />
<circle cx="22.5" cy="19.0" r="0.2" />
<circle cx="22.8" cy="17.0" r="0.2" />
<circle cx="23.1" cy="18.0" r="0.2" />
<circle cx="23.4" cy="11.0" r="0.2" />
<circle cx="23.6" cy="12.0" r="0.2" />
<circle cx="23.9" cy="5.0" r="0.2" />
<circle cx="24.2" cy="19.0" r="0.2" />
<circle cx="24.5" cy="13.0" r="0.2" />
<circle cx="24.8" cy="14.0" r="0.2" />
<circle cx="25.1" cy="6.0" r="0.2" />
<circle cx="25.3" cy="7.0" r="0.2" />
<circle cx="25.6" cy="2.0" r="0.2" />
<circle cx="25.9" cy="15.0" r="0.2" />
<circle cx="26.2" cy="8.0" r="0.2" />
<circle cx="26.5" cy="9.0" r="0.2" />
<circle cx="26.8" cy="3.0" r="0.2" />
<circle cx="27.1" cy="4.0" r="0.2" />
<circle cx="27.3" cy="1.0" r="0.2" />
<circle cx="27.6" cy="20.0" r="0.2" />
<circle cx="27.9" cy="20.0" r="0.2" />
<circle cx="28.2" cy="21.0" r="0.2" />
<circle cx="28.5" cy="16.0" r="0.2" />
<circle cx="28.8" cy="17.0" r="0.2" />
<circle cx="29.0" cy="10.0" r="0.2" />
<circle cx="29.3" cy="22.0" r="0.2" />
<circle cx="29.6" cy="18.0" r="0.2" />
<circle cx="29.9" cy="19.0" r="0.2" />
<circle cx="30.2" cy="11.0" r="0.2" />
<circle cx="30.5" cy="12.0" r="0.2" />
<circle cx="30.8" cy="5.0" r="0.2" />
<circle cx="31.0" cy="20.0" r="0.2" />
<circle cx="31.3" cy="13.0" r="0.2" />
<circle cx="31.6" cy="14.0" r="0.2" />
<circle cx="31.9" cy="6.0" r="0.2" />
<circle cx="32.2" cy="7.0" r="0.2" />
<circle cx="32.5" cy="2.0" r="0.2" />
<circle cx="32.7" cy="15.0" r="0.2" />
<circle cx="33.0" cy="8.0" r="0.2" />
<circle cx="33.3" cy="9.0" r="0.2" />
<circle cx="33.6" cy="3.0" r="0.2" />
<circle cx="33.9" cy="4.0" r="0.2" />
<circle cx="34.2" cy="1.0" r="0.2" />
<circle cx="34.5" cy="5.0" r="0.2" />
<circle cx="34.7" cy="10.0" r="0.2" />
<circle cx="35.0" cy="11.0" r="0.2" />
<circle cx="35.3" cy="16.0" r="0.2" />
<circle cx="35.6" cy="17.0" r="0.2" />
<circle cx="35.9" cy="21.0" r="0.2" />
<circle cx="36.2" cy="12.0" r="0.2" />
<circle cx="36.5" cy="18.0" r="0.2" />
<circle cx="36.7" cy="19.0" r="0.2" />
<circle cx="37.0" cy="22.0" r="0.2" />
<circle cx="37.3" cy="23.0" r="0.2" />
<circle cx="37.6" cy="23.0" r="0.2" />
<circle cx="37.9" cy="20.0" r="0.2" />
<circle cx="38.2" cy="24.0" r="0.2" />
<circle cx="38.4" cy="25.0" r="0.2" />
<circle cx="38.7" cy="24.0" r="0.2" />
<circle cx="39.0" cy="25.0" r="0.2" />
<circle cx="39.3" cy="21.0" r="0.2" />
<circle cx="39.6" cy="26.0" r="0.2" />
<circle cx="39.9" cy="26.0" r="0.2" />
<circle cx="40.2" cy="27.0" r="0.2" />
<circle cx="40.4" cy="22.0" r="0.2" />
<circle cx="40.7" cy="23.0" r="0.2" />
<circle cx="41.0" cy="16.0" r="0.2" />
<circle cx="41.3" cy="13.0" r="0.2" />
<circle cx="41.6" cy="21.0" r="0.2" />
<circle cx="41.9" cy="22.0" r="0.2" />
<circle cx="42.1" cy="27.0" r="0.2" />
<circle cx="42.4" cy="28.0" r="0.2" />
<circle cx="42.7" cy="28.0" r="0.2" />
<circle cx="43.0" cy="23.0" r="0.2" />
<circle cx="43.3" cy="29.0" r="0.2" />
<circle cx="43.6" cy="30.0" r="0.2" />
<circle cx="43.9" cy="29.0" r="0.2" />
<circle cx="44.1" cy="30.0" r="0.2" />
<circle cx="44.4" cy="24.0" r="0.2" />
<circle cx="44.7" cy="31.0" r="0.2" />
<circle cx="45.0" cy="31.0" r="0.2" />
<circle cx="45.3" cy="32.0" r="0.2" />
<circle cx="45.6" cy="25.0" r="0.2" />
<circle cx="45.8" cy="26.0" r="0.2" />
<circle cx="46.1" cy="17.0" r="0.2" />
<circle cx="46.4" cy="33.0" r="0.2" />
<circle cx="46.7" cy="27.0" r="0.2" />
<circle cx="47.0" cy="28.0" r="0.2" />
<circle cx="47.3" cy="18.0" r="0.2" />
<circle cx="47.6" cy="19.0" r="0.2" />
<circle cx="47.8" cy="10.0" r="0.2" />
<circle cx="48.1" cy="24.0" r="0.2" />
<circle cx="48.4" cy="32.0" r="0.2" />
<circle cx="48.7" cy="33.0" r="0.2" />
<circle cx="49.0" cy="34.0" r="0.2" />
<circle cx="49.3" cy="35.0" r="0.2" />
<circle cx="49.6" cy="29.0" r="0.2" />
<circle cx="49.8" cy="34.0" r="0.2" />
<circle cx="50.1" cy="36.0" r="0.2" />
<circle cx="50.4" cy="37.0" r="0.2" />
<circle cx="50.7" cy="30.0" r="0.2" />
<circle cx="51.0" cy="31.0" r="0.2" />
<circle cx="51.3" cy="20.0" r="0.2" />
<circle cx="51.5" cy="38.0" r="0.2" />
<circle cx="51.8" cy="32.0" r="0.2" />
<circle cx="52.1" cy="33.0" r="0.2" />
<circle cx="52.4" cy="21.0" r="0.2" />
<circle cx="52.7" cy="22.0" r="0.2" />
<circle cx="53.0" cy="11.0" r="0.2" />
<circle cx="53.3" cy="34.0" r="0.2" />
<circle cx="53.5" cy="23.0" r="0.2" />
<circle cx="53.8" cy="24.0" r="0.2" />
<circle cx="54.1" cy="12.0" r="0.2" />
<circle cx="54.4" cy="13.0" r="0.2" />
<circle cx="54.7" cy="5.0" r="0.2" />
<circle cx="55.0" cy="35.0" r="0.2" />
<circle cx="55.2" cy="39.0" r="0.2" />
<circle cx="55.5" cy="40.0" r="0.2" />
<circle cx="55.8" cy="35.0" r="0.2" />
<circle cx="56.1" cy="36.0" r="0.2" />
<circle cx="56.4" cy="25.0" r="0.2" />
<circle cx="56.7" cy="41.0" r="0.2" />
<circle cx="57.0" cy="37.0" r="0.2" />
<circle cx="57.2" cy="38.0" r="0.2" />
<circle cx="57.5" cy="26.0" r="0.2" />
<circle cx="57.8" cy="27.0" r="0.2" />
<circle cx="58.1" cy="14.0" r="0.2" />
<circle cx="58.4" cy="39.0" r="0.2" />
<circle cx="58.7" cy="28.0" r="0.2" />
<circle cx="58.9" cy="29.0" r="0.2" />
<circle cx="59.2" cy="15.0" r="0.2" />
<circle cx="59.5" cy="16.0" r="0.2" />
<circle cx="59.8" cy="6.0" r="0.2" />
<circle cx="60.1" cy="30.0" r="0.2" />
<circle cx="60.4" cy="17.0" r="0.2" />
<circle cx="60.7" cy="18.0" r="0.2" />
<circle cx="60.9" cy="7.0" r="0.2" />
<circle cx="61.2" cy="8.0" r="0.2" />
<circle cx="61.5" cy="2.0" r="0.2" />
<circle cx="61.8" cy="42.0" r="0.2" />
<circle cx="62.1" cy="40.0" r="0.2" />
<circle cx="62.4" cy="41.0" r="0.2" />
<circle cx="62.7" cy="31.0" r="0.2" />
<circle cx="62.9" cy="32.0" r="0.2" />
<circle cx="63.2" cy="19.0" r="0.2" />
<circle cx="63.5" cy="42.0" r="0.2" />
<circle cx="63.8" cy="33.0" r="0.2" />
<circle cx="64.1" cy="34.0" r="0.2" />
<circle cx="64.4" cy="20.0" r="0.2" />
<circle cx="64.6" cy="21.0" r="0.2" />
<circle cx="64.9" cy="9.0" r="0.2" />
<circle cx="65.2" cy="35.0" r="0.2" />
<circle cx="65.5" cy="22.0" r="0.2" />
<circle cx="65.8" cy="23.0" r="0.2" />
<circle cx="66.1" cy="10.0" r="0.2" />
<circle cx="66.4" cy="11.0" r="0.2" />
<circle cx="66.6" cy="3.0" r="0.2" />
<circle cx="66.9" cy="24.0" r="0.2" />
<circle cx="67.2" cy="12.0" r="0.2" />
<circle cx="67.5" cy="13.0" r="0.2" />
<circle cx="67.8" cy="4.0" r="0.2" />
<circle cx="68.1" cy="5.0" r="0.2" />
<circle cx="68.3" cy="1.0" r="0.2" />
<circle cx="68.6" cy="14.0" r="0.2" />
<circle cx="68.9" cy="25.0" r="0.2" />
<circle cx="69.2" cy="26.0" r="0.2" />
<circle cx="69.5" cy="36.0" r="0.2" />
<circle cx="69.8" cy="37.0" r="0.2" />
<circle cx="70.1" cy="43.0" r="0.2" />
<circle cx="70.3" cy="27.0" r="0.2" />
<circle cx="70.6" cy="38.0" r="0.2" />
<circle cx="70.9" cy="39.0" r="0.2" />
<circle cx="71.2" cy="44.0" r="0.2" />
<circle cx="71.5" cy="45.0" r="0.2" />
</g>
</svg>