<svg xmlns="http://www.w3.org/2000/svg" width="161.8" height="100.0" viewBox="-4.46 -5.00 171.80 110.00">
<g fill="none" stroke="black" stroke-width="0.1000%" transform="translate(0, 100.0000) scale(5.0000, -5.0000)">
<circle cx="0.11" cy="0.00" r="0.10" />
<circle cx="0.22" cy="1.00" r="0.10" />
<circle cx="0.32" cy="2.00" r="0.10" />
<circle cx="0.43" cy="1.00" r="0.10" />
<circle cx="0.54" cy="3.00" r="0.10" />
<circle cx="0.65" cy="2.00" r="0.10" />
<circle cx="0.76" cy="4.00" r="0.10" />
<circle cx="0.87" cy="3.00" r="0.10" />
<circle cx="0.97" cy="1.00" r="0.10" />
<circle cx="1.08" cy="5.00" r="0.10" />
<circle cx="1.19" cy="2.00" r="0.10" />
<circle cx="1.30" cy="4.00" r="0.10" />
<circle cx="1.41" cy="2.00" r="0.10" />
<circle cx="1.52" cy="6.00" r="0.10" />
<circle cx="1.62" cy="3.00" r="0.10" />
<circle cx="1.73" cy="5.00" r="0.10" />
<circle cx="1.84" cy="3.00" r="0.10" />
<circle cx="1.95" cy="7.00" r="0.10" />
<circle cx="2.06" cy="4.00" r="0.10" />
<circle cx="2.16" cy="2.00" r="0.10" />
<circle cx="2.27" cy="6.00" r="0.10" />
<circle cx="2.38" cy="1.00" r="0.10" />
<circle cx="2.49" cy="3.00" r="0.10" />
<circle cx="2.60" cy="4.00" r="0.10" />
<circle cx="2.71" cy="8.00" r="0.10" />
<circle cx="2.81" cy="5.00" r="0.10" />
<circle cx="2.92" cy="3.00" r="0.10" />
<circle cx="3.03" cy="7.00" r="0.10" />
<circle cx="3.14" cy="2.00" r="0.10" />
<circle cx="3.25" cy="4.00" r="0.10" />
<circle cx="3.36" cy="5.00" r="0.10" />
<circle cx="3.46" cy="9.00" r="0.10" />
<circle cx="3.57" cy="6.00" r="0.10" />
<circle cx="3.68" cy="4.00" r="0.10" />
<circle cx="3.79" cy="8.00" r="0.10" />
<circle cx="3.90" cy="3.00" r="0.10" />
<circle cx="4.00" cy="5.00" r="0.10" />
<circle cx="4.11" cy="2.00" r="0.10" />
<circle cx="4.22" cy="6.00" r="0.10" />
<circle cx="4.33" cy="10.00" r="0.10" />
<circle cx="4.44" cy="3.00" r="0.10" />
<circle cx="4.55" cy="7.00" r="0.10" />
<circle cx="4.65" cy="2.00" r="0.10" />
<circle cx="4.76" cy="4.00" r="0.10" />
<circle cx="4.87" cy="5.00" r="0.10" />
<circle cx="4.98" cy="9.00" r="0.10" />
<circle cx="5.09" cy="4.00" r="0.10" />
<circle cx="5.20" cy="6.00" r="0.10" />
<circle cx="5.30" cy="3.00" r="0.10" />
<circle cx="5.41" cy="7.00" r="0.10" />
<circle cx="5.52" cy="11.00" r="0.10" />
<circle cx="5.63" cy="4.00" r="0.10" />
<circle cx="5.74" cy="8.00" r="0.10" />
<circle cx="5.84" cy="1.00" r="0.10" />
<circle cx="5.95" cy="3.00" r="0.10" />
<circle cx="6.06" cy="5.00" r="0.10" />
<circle cx="6.17" cy="6.00" r="0.10" />
<circle cx="6.28" cy="10.00" r="0.10" />
<circle cx="6.39" cy="5.00" r="0.10" />
<circle cx="6.49" cy="7.00" r="0.10" />
<circle cx="6.60" cy="4.00" r="0.10" />
<circle cx="6.71" cy="8.00" r="0.10" />
<circle cx="6.82" cy="12.00" r="0.10" />
<circle cx="6.93" cy="5.00" r="0.10" />
<circle cx="7.03" cy="9.00" r="0.10" />
<circle cx="7.14" cy="2.00" r="0.10" />
<circle cx="7.25" cy="4.00" r="0.10" />
<circle cx="7.36" cy="6.00" r="0.10" />
<circle cx="7.47" cy="3.00" r="0.10" />
<circle cx="7.58" cy="7.00" r="0.10" />
<circle cx="7.68" cy="11.00" r="0.10" />
<circle cx="7.79" cy="2.00" r="0.10" />
<circle cx="7.90" cy="4.00" r="0.10" />
<circle cx="8.01" cy="6.00" r="0.10" />
<circle cx="8.12" cy="8.00" r="0.10" />
<circle cx="8.23" cy="5.00" r="0.10" />
<circle cx="8.33" cy="3.00" r="0.10" />
<circle cx="8.44" cy="9.00" r="0.10" />
<circle cx="8.55" cy="5.00" r="0.10" />
<circle cx="8.66" cy="13.00" r="0.10" />
<circle cx="8.77" cy="6.00" r="0.10" />
<circle cx="8.87" cy="10.00" r="0.10" />
<circle cx="8.98" cy="3.00" r="0.10" />
<circle cx="9.09" cy="5.00" r="0.10" />
<circle cx="9.20" cy="7.00" r="0.10" />
<circle cx="9.31" cy="4.00" r="0.10" />
<circle cx="9.42" cy="8.00" r="0.10" />
<circle cx="9.52" cy="12.00" r="0.10" />
<circle cx="9.63" cy="3.00" r="0.10" />
<circle cx="9.74" cy="5.00" r="0.10" />
<circle cx="9.85" cy="7.00" r="0.10" />
<circle cx="9.96" cy="9.00" r="0.10" />
<circle cx="10.07" cy="2.00" r="0.10" />
<circle cx="10.17" cy="6.00" r="0.10" />
<circle cx="10.28" cy="4.00" r="0.10" />
<circle cx="10.39" cy="10.00" r="0.10" />
<circle cx="10.50" cy="6.00" r="0.10" />
<circle cx="10.61" cy="14.00" r="0.10" />
<circle cx="10.71" cy="7.00" r="0.10" />
<circle cx="10.82" cy="11.00" r="0.10" />
<circle cx="10.93" cy="4.00" r="0.10" />
<circle cx="11.04" cy="6.00" r="0.10" />
<circle cx="11.15" cy="8.00" r="0.10" />
<circle cx="11.26" cy="5.00" r="0.10" />
<circle cx="11.36" cy="9.00" r="0.10" />
<circle cx="11.47" cy="13.00" r="0.10" />
<circle cx="11.58" cy="4.00" r="0.10" />
<circle cx="11.69" cy="6.00" r="0.10" />
<circle cx="11.80" cy="8.00" r="0.10" />
<circle cx="11.91" cy="3.00" r="0.10" />
<circle cx="12.01" cy="10.00" r="0.10" />
<circle cx="12.12" cy="3.00" r="0.10" />
<circle cx="12.23" cy="7.00" r="0.10" />
<circle cx="12.34" cy="1.00" r="0.10" />
<circle cx="12.45" cy="5.00" r="0.10" />
<circle cx="12.55" cy="11.00" r="0.10" />
<circle cx="12.66" cy="7.00" r="0.10" />
<circle cx="12.77" cy="4.00" r="0.10" />
<circle cx="12.88" cy="15.00" r="0.10" />
<circle cx="12.99" cy="8.00" r="0.10" />
<circle cx="13.10" cy="12.00" r="0.10" />
<circle cx="13.20" cy="5.00" r="0.10" />
<circle cx="13.31" cy="3.00" r="0.10" />
<circle cx="13.42" cy="5.00" r="0.10" />
<circle cx="13.53" cy="7.00" r="0.10" />
<circle cx="13.64" cy="9.00" r="0.10" />
<circle cx="13.75" cy="6.00" r="0.10" />
<circle cx="13.85" cy="2.00" r="0.10" />
<circle cx="13.96" cy="4.00" r="0.10" />
<circle cx="14.07" cy="10.00" r="0.10" />
<circle cx="14.18" cy="6.00" r="0.10" />
<circle cx="14.29" cy="14.00" r="0.10" />
<circle cx="14.39" cy="5.00" r="0.10" />
<circle cx="14.50" cy="7.00" r="0.10" />
<circle cx="14.61" cy="9.00" r="0.10" />
<circle cx="14.72" cy="4.00" r="0.10" />
<circle cx="14.83" cy="11.00" r="0.10" />
<circle cx="14.94" cy="4.00" r="0.10" />
<circle cx="15.04" cy="8.00" r="0.10" />
<circle cx="15.15" cy="2.00" r="0.10" />
<circle cx="15.26" cy="6.00" r="0.10" />
<circle cx="15.37" cy="12.00" r="0.10" />
<circle cx="15.48" cy="8.00" r="0.10" />
<circle cx="15.59" cy="5.00" r="0.10" />
<circle cx="15.69" cy="16.00" r="0.10" />
<circle cx="15.80" cy="9.00" r="0.10" />
<circle cx="15.91" cy="2.00" r="0.10" />
<circle cx="16.02" cy="13.00" r="0.10" />
<circle cx="16.13" cy="6.00" r="0.10" />
<circle cx="16.23" cy="4.00" r="0.10" />
<circle cx="16.34" cy="6.00" r="0.10" />
<circle cx="16.45" cy="8.00" r="0.10" />
<circle cx="16.56" cy="10.00" r="0.10" />
<circle cx="16.67" cy="3.00" r="0.10" />
<circle cx="16.78" cy="7.00" r="0.10" />
<circle cx="16.88" cy="3.00" r="0.10" />
<circle cx="16.99" cy="5.00" r="0.10" />
<circle cx="17.10" cy="11.00" r="0.10" />
<circle cx="17.21" cy="7.00" r="0.10" />
<circle cx="17.32" cy="15.00" r="0.10" />
<circle cx="17.42" cy="6.00" r="0.10" />
<circle cx="17.53" cy="8.00" r="0.10" />
<circle cx="17.64" cy="10.00" r="0.10" />
<circle cx="17.75" cy="5.00" r="0.10" />
<circle cx="17.86" cy="12.00" r="0.10" />
<circle cx="17.97" cy="5.00" r="0.10" />
<circle cx="18.07" cy="9.00" r="0.10" />
<circle cx="18.18" cy="3.00" r="0.10" />
<circle cx="18.29" cy="7.00" r="0.10" />
<circle cx="18.40" cy="13.00" r="0.10" />
<circle cx="18.51" cy="9.00" r="0.10" />
<circle cx="18.62" cy="6.00" r="0.10" />
<circle cx="18.72" cy="17.00" r="0.10" />
<circle cx="18.83" cy="10.00" r="0.10" />
<circle cx="18.94" cy="3.00" r="0.10" />
<circle cx="19.05" cy="14.00" r="0.10" />
<circle cx="19.16" cy="7.00" r="0.10" />
<circle cx="19.26" cy="5.00" r="0.10" />
<circle cx="19.37" cy="7.00" r="0.10" />
<circle cx="19.48" cy="9.00" r="0.10" />
<circle cx="19.59" cy="4.00" r="0.10" />
<circle cx="19.70" cy="11.00" r="0.10" />
<circle cx="19.81" cy="4.00" r="0.10" />
<circle cx="19.91" cy="8.00" r="0.10" />
<circle cx="20.02" cy="4.00" r="0.10" />
<circle cx="20.13" cy="2.00" r="0.10" />
<circle cx="20.24" cy="6.00" r="0.10" />
<circle cx="20.35" cy="12.00" r="0.10" />
<circle cx="20.46" cy="8.00" r="0.10" />
<circle cx="20.56" cy="3.00" r="0.10" />
<circle cx="20.67" cy="5.00" r="0.10" />
<circle cx="20.78" cy="16.00" r="0.10" />
<circle cx="20.89" cy="7.00" r="0.10" />
<circle cx="21.00" cy="9.00" r="0.10" />
<circle cx="21.10" cy="11.00" r="0.10" />
<circle cx="21.21" cy="6.00" r="0.10" />
<circle cx="21.32" cy="13.00" r="0.10" />
<circle cx="21.43" cy="6.00" r="0.10" />
<circle cx="21.54" cy="4.00" r="0.10" />
<circle cx="21.65" cy="10.00" r="0.10" />
<circle cx="21.75" cy="6.00" r="0.10" />
<circle cx="21.86" cy="4.00" r="0.10" />
<circle cx="21.97" cy="8.00" r="0.10" />
<circle cx="22.08" cy="14.00" r="0.10" />
<circle cx="22.19" cy="10.00" r="0.10" />
<circle cx="22.30" cy="7.00" r="0.10" />
<circle cx="22.40" cy="18.00" r="0.10" />
<circle cx="22.51" cy="3.00" r="0.10" />
<circle cx="22.62" cy="5.00" r="0.10" />
<circle cx="22.73" cy="11.00" r="0.10" />
<circle cx="22.84" cy="4.00" r="0.10" />
<circle cx="22.94" cy="7.00" r="0.10" />
<circle cx="23.05" cy="15.00" r="0.10" />
<circle cx="23.16" cy="8.00" r="0.10" />
<circle cx="23.27" cy="6.00" r="0.10" />
<circle cx="23.38" cy="8.00" r="0.10" />
<circle cx="23.49" cy="10.00" r="0.10" />
<circle cx="23.59" cy="5.00" r="0.10" />
<circle cx="23.70" cy="12.00" r="0.10" />
<circle cx="23.81" cy="5.00" r="0.10" />
<circle cx="23.92" cy="9.00" r="0.10" />
<circle cx="24.03" cy="5.00" r="0.10" />
<circle cx="24.14" cy="3.00" r="0.10" />
<circle cx="24.24" cy="7.00" r="0.10" />
<circle cx="24.35" cy="13.00" r="0.10" />
<circle cx="24.46" cy="9.00" r="0.10" />
<circle cx="24.57" cy="4.00" r="0.10" />
<circle cx="24.68" cy="6.00" r="0.10" />
<circle cx="24.78" cy="17.00" r="0.10" />
<circle cx="24.89" cy="8.00" r="0.10" />
<circle cx="25.00" cy="10.00" r="0.10" />
<circle cx="25.11" cy="3.00" r="0.10" />
<circle cx="25.22" cy="12.00" r="0.10" />
<circle cx="25.33" cy="7.00" r="0.10" />
<circle cx="25.43" cy="14.00" r="0.10" />
<circle cx="25.54" cy="7.00" r="0.10" />
<circle cx="25.65" cy="5.00" r="0.10" />
<circle cx="25.76" cy="11.00" r="0.10" />
<circle cx="25.87" cy="7.00" r="0.10" />
<circle cx="25.98" cy="5.00" r="0.10" />
<circle cx="26.08" cy="9.00" r="0.10" />
<circle cx="26.19" cy="2.00" r="0.10" />
<circle cx="26.30" cy="15.00" r="0.10" />
<circle cx="26.41" cy="11.00" r="0.10" />
<circle cx="26.52" cy="4.00" r="0.10" />
<circle cx="26.62" cy="1.00" r="0.10" />
<circle cx="26.73" cy="8.00" r="0.10" />
<circle cx="26.84" cy="19.00" r="0.10" />
<circle cx="26.95" cy="4.00" r="0.10" />
<circle cx="27.06" cy="6.00" r="0.10" />
<circle cx="27.17" cy="12.00" r="0.10" />
<circle cx="27.27" cy="5.00" r="0.10" />
<circle cx="27.38" cy="8.00" r="0.10" />
<circle cx="27.49" cy="16.00" r="0.10" />
<circle cx="27.60" cy="9.00" r="0.10" />
<circle cx="27.71" cy="7.00" r="0.10" />
<circle cx="27.82" cy="9.00" r="0.10" />
<circle cx="27.92" cy="11.00" r="0.10" />
<circle cx="28.03" cy="6.00" r="0.10" />
<circle cx="28.14" cy="13.00" r="0.10" />
<circle cx="28.25" cy="6.00" r="0.10" />
<circle cx="28.36" cy="10.00" r="0.10" />
<circle cx="28.46" cy="6.00" r="0.10" />
<circle cx="28.57" cy="4.00" r="0.10" />
<circle cx="28.68" cy="8.00" r="0.10" />
<circle cx="28.79" cy="14.00" r="0.10" />
<circle cx="28.90" cy="10.00" r="0.10" />
<circle cx="29.01" cy="5.00" r="0.10" />
<circle cx="29.11" cy="7.00" r="0.10" />
<circle cx="29.22" cy="18.00" r="0.10" />
<circle cx="29.33" cy="9.00" r="0.10" />
<circle cx="29.44" cy="4.00" r="0.10" />
<circle cx="29.55" cy="11.00" r="0.10" />
<circle cx="29.65" cy="4.00" r="0.10" />
<circle cx="29.76" cy="13.00" r="0.10" />
<circle cx="29.87" cy="8.00" r="0.10" />
<circle cx="29.98" cy="15.00" r="0.10" />
<circle cx="30.09" cy="8.00" r="0.10" />
<circle cx="30.20" cy="2.00" r="0.10" />
<circle cx="30.30" cy="6.00" r="0.10" />
<circle cx="30.41" cy="12.00" r="0.10" />
<circle cx="30.52" cy="8.00" r="0.10" />
<circle cx="30.63" cy="6.00" r="0.10" />
<circle cx="30.74" cy="10.00" r="0.10" />
<circle cx="30.85" cy="3.00" r="0.10" />
<circle cx="30.95" cy="5.00" r="0.10" />
<circle cx="31.06" cy="16.00" r="0.10" />
<circle cx="31.17" cy="12.00" r="0.10" />
<circle cx="31.28" cy="5.00" r="0.10" />
<circle cx="31.39" cy="2.00" r="0.10" />
<circle cx="31.49" cy="9.00" r="0.10" />
<circle cx="31.60" cy="20.00" r="0.10" />
<circle cx="31.71" cy="5.00" r="0.10" />
<circle cx="31.82" cy="3.00" r="0.10" />
<circle cx="31.93" cy="7.00" r="0.10" />
<circle cx="32.04" cy="13.00" r="0.10" />
<circle cx="32.14" cy="6.00" r="0.10" />
<circle cx="32.25" cy="9.00" r="0.10" />
<circle cx="32.36" cy="4.00" r="0.10" />
<circle cx="32.47" cy="6.00" r="0.10" />
</g>
</svg>