<svg xmlns="http://www.w3.org/2000/svg" width="100.0" height="100.0" viewBox="-5.000 -5.000 110.000 110.000">
<g fill="none" stroke="black" stroke-width="0.0050%" transform="translate(0, 100.0000) scale(100.0000, -100.0000)">
<rect x="0.000" y="0.000" width="1.000" height="1.000" />
<line x1="0.500" y1="0.000" x2="0.500" y2="0.500" />
<polyline points="0.000,0.000 0.500,0.500 1.000,0.000" />
<polyline points="0.000,1.000 0.500,0.000 1.000,1.000" />
<line x1="0.000" y1="1.000" x2="0.500" y2="0.500" />
<line x1="0.500" y1="0.500" x2="1.000" y2="1.000" />
<line x1="0.333" y1="0.000" x2="0.333" y2="0.333" />
<polyline points="0.000,0.000 0.333,0.333 0.500,0.000" />
<polyline points="0.000,1.000 0.333,0.000 0.500,0.500" />
<line x1="0.000" y1="1.000" x2="0.333" y2="0.333" />
<line x1="0.667" y1="0.000" x2="0.667" y2="0.333" />
<polyline points="0.500,0.000 0.667,0.333 1.000,0.000" />
<polyline points="0.500,0.500 0.667,0.000 1.000,1.000" />
<line x1="0.667" y1="0.333" x2="1.000" y2="1.000" />
<line x1="0.250" y1="0.000" x2="0.250" y2="0.250" />
<polyline points="0.000,0.000 0.250,0.250 0.333,0.000" />
<polyline points="0.000,1.000 0.250,0.000 0.333,0.333" />
<line x1="0.000" y1="1.000" x2="0.250" y2="0.250" />
<line x1="0.750" y1="0.000" x2="0.750" y2="0.250" />
<polyline points="0.667,0.000 0.750,0.250 1.000,0.000" />
<polyline points="0.667,0.333 0.750,0.000 1.000,1.000" />
<line x1="0.750" y1="0.250" x2="1.000" y2="1.000" />
<line x1="0.200" y1="0.000" x2="0.200" y2="0.200" />
<polyline points="0.000,0.000 0.200,0.200 0.250,0.000" />
<polyline points="0.000,1.000 0.200,0.000 0.250,0.250" />
<line x1="0.000" y1="1.000" x2="0.200" y2="0.200" />
<line x1="0.400" y1="0.000" x2="0.400" y2="0.200" />
<polyline points="0.333,0.000 0.400,0.200 0.500,0.000" />
<polyline points="0.333,0.333 0.400,0.000 0.500,0.500" />
<line x1="0.600" y1="0.000" x2="0.600" y2="0.200" />
<polyline points="0.500,0.000 0.600,0.200 0.667,0.000" />
<polyline points="0.500,0.500 0.600,0.000 0.667,0.333" />
<line x1="0.800" y1="0.000" x2="0.800" y2="0.200" />
<polyline points="0.750,0.000 0.800,0.200 1.000,0.000" />
<polyline points="0.750,0.250 0.800,0.000 1.000,1.000" />
<line x1="0.800" y1="0.200" x2="1.000" y2="1.000" />
<line x1="0.167" y1="0.000" x2="0.167" y2="0.167" />
<polyline points="0.000,0.000 0.167,0.167 0.200,0.000" />
<polyline points="0.000,1.000 0.167,0.000 0.200,0.200" />
<line x1="0.000" y1="1.000" x2="0.167" y2="0.167" />
<line x1="0.833" y1="0.000" x2="0.833" y2="0.167" />
<polyline points="0.800,0.000 0.833,0.167 1.000,0.000" />
<polyline points="0.800,0.200 0.833,0.000 1.000,1.000" />
<line x1="0.833" y1="0.167" x2="1.000" y2="1.000" />
<line x1="0.143" y1="0.000" x2="0.143" y2="0.143" />
<polyline points="0.000,0.000 0.143,0.143 0.167,0.000" />
<polyline points="0.000,1.000 0.143,0.000 0.167,0.167" />
<line x1="0.000" y1="1.000" x2="0.143" y2="0.143" />
<line x1="0.286" y1="0.000" x2="0.286" y2="0.143" />
<polyline points="0.250,0.000 0.286,0.143 0.333,0.000" />
<polyline points="0.250,0.250 0.286,0.000 0.333,0.333" />
<line x1="0.429" y1="0.000" x2="0.429" y2="0.143" />
<polyline points="0.400,0.000 0.429,0.143 0.500,0.000" />
<polyline points="0.400,0.200 0.429,0.000 0.500,0.500" />
<line x1="0.571" y1="0.000" x2="0.571" y2="0.143" />
<polyline points="0.500,0.000 0.571,0.143 0.600,0.000" />
<polyline points="0.500,0.500 0.571,0.000 0.600,0.200" />
<line x1="0.714" y1="0.000" x2="0.714" y2="0.143" />
<polyline points="0.667,0.000 0.714,0.143 0.750,0.000" />
<polyline points="0.667,0.333 0.714,0.000 0.750,0.250" />
<line x1="0.857" y1="0.000" x2="0.857" y2="0.143" />
<polyline points="0.833,0.000 0.857,0.143 1.000,0.000" />
<polyline points="0.833,0.167 0.857,0.000 1.000,1.000" />
<line x1="0.857" y1="0.143" x2="1.000" y2="1.000" />
<line x1="0.125" y1="0.000" x2="0.125" y2="0.125" />
<polyline points="0.000,0.000 0.125,0.125 0.143,0.000" />
<polyline points="0.000,1.000 0.125,0.000 0.143,0.143" />
<line x1="0.000" y1="1.000" x2="0.125" y2="0.125" />
<line x1="0.375" y1="0.000" x2="0.375" y2="0.125" />
<polyline points="0.333,0.000 0.375,0.125 0.400,0.000" />
<polyline points="0.333,0.333 0.375,0.000 0.400,0.200" />
<line x1="0.625" y1="0.000" x2="0.625" y2="0.125" />
<polyline points="0.600,0.000 0.625,0.125 0.667,0.000" />
<polyline points="0.600,0.200 0.625,0.000 0.667,0.333" />
<line x1="0.875" y1="0.000" x2="0.875" y2="0.125" />
<polyline points="0.857,0.000 0.875,0.125 1.000,0.000" />
<polyline points="0.857,0.143 0.875,0.000 1.000,1.000" />
<line x1="0.875" y1="0.125" x2="1.000" y2="1.000" />
<line x1="0.111" y1="0.000" x2="0.111" y2="0.111" />
<polyline points="0.000,0.000 0.111,0.111 0.125,0.000" />
<polyline points="0.000,1.000 0.111,0.000 0.125,0.125" />
<line x1="0.000" y1="1.000" x2="0.111" y2="0.111" />
<line x1="0.222" y1="0.000" x2="0.222" y2="0.111" />
<polyline points="0.200,0.000 0.222,0.111 0.250,0.000" />
<polyline points="0.200,0.200 0.222,0.000 0.250,0.250" />
<line x1="0.444" y1="0.000" x2="0.444" y2="0.111" />
<polyline points="0.429,0.000 0.444,0.111 0.500,0.000" />
<polyline points="0.429,0.143 0.444,0.000 0.500,0.500" />
<line x1="0.556" y1="0.000" x2="0.556" y2="0.111" />
<polyline points="0.500,0.000 0.556,0.111 0.571,0.000" />
<polyline points="0.500,0.500 0.556,0.000 0.571,0.143" />
<line x1="0.778" y1="0.000" x2="0.778" y2="0.111" />
<polyline points="0.750,0.000 0.778,0.111 0.800,0.000" />
<polyline points="0.750,0.250 0.778,0.000 0.800,0.200" />
<line x1="0.889" y1="0.000" x2="0.889" y2="0.111" />
<polyline points="0.875,0.000 0.889,0.111 1.000,0.000" />
<polyline points="0.875,0.125 0.889,0.000 1.000,1.000" />
<line x1="0.889" y1="0.111" x2="1.000" y2="1.000" />
</g>
</svg>