<svg xmlns="http://www.w3.org/2000/svg" width="161.8" height="100.0" viewBox="-4.293 -55.000 171.803 110.000">
<g fill="none" stroke="black" stroke-width="0.0046%" transform="translate(0, 0.0000) scale(107.6923, -107.6923)">
<circle cx="0.007" cy="-0.464" r="0.005" />
<circle cx="0.013" cy="0.009" r="0.005" />
<circle cx="0.020" cy="0.010" r="0.005" />
<circle cx="0.026" cy="0.010" r="0.005" />
<circle cx="0.033" cy="0.011" r="0.005" />
<circle cx="0.039" cy="0.011" r="0.005" />
<circle cx="0.046" cy="0.012" r="0.005" />
<circle cx="0.052" cy="0.012" r="0.005" />
<circle cx="0.059" cy="0.013" r="0.005" />
<circle cx="0.066" cy="0.014" r="0.005" />
<circle cx="0.072" cy="0.014" r="0.005" />
<circle cx="0.079" cy="0.015" r="0.005" />
<circle cx="0.085" cy="0.016" r="0.005" />
<circle cx="0.092" cy="0.017" r="0.005" />
<circle cx="0.098" cy="-0.159" r="0.005" />
<circle cx="0.105" cy="0.175" r="0.005" />
<circle cx="0.112" cy="-0.158" r="0.005" />
<circle cx="0.118" cy="0.176" r="0.005" />
<circle cx="0.125" cy="-0.157" r="0.005" />
<circle cx="0.131" cy="0.176" r="0.005" />
<circle cx="0.138" cy="-0.156" r="0.005" />
<circle cx="0.144" cy="0.177" r="0.005" />
<circle cx="0.151" cy="-0.155" r="0.005" />
<circle cx="0.157" cy="0.179" r="0.005" />
<circle cx="0.164" cy="-0.243" r="0.005" />
<circle cx="0.171" cy="0.105" r="0.005" />
<circle cx="0.177" cy="-0.095" r="0.005" />
<circle cx="0.184" cy="0.258" r="0.005" />
<circle cx="0.190" cy="-0.242" r="0.005" />
<circle cx="0.197" cy="0.105" r="0.005" />
<circle cx="0.203" cy="-0.095" r="0.005" />
<circle cx="0.210" cy="0.259" r="0.005" />
<circle cx="0.217" cy="-0.294" r="0.005" />
<circle cx="0.223" cy="0.074" r="0.005" />
<circle cx="0.230" cy="0.106" r="0.005" />
<circle cx="0.236" cy="-0.094" r="0.005" />
<circle cx="0.243" cy="-0.068" r="0.005" />
<circle cx="0.249" cy="0.306" r="0.005" />
<circle cx="0.256" cy="-0.293" r="0.005" />
<circle cx="0.262" cy="0.075" r="0.005" />
<circle cx="0.269" cy="0.107" r="0.005" />
<circle cx="0.276" cy="-0.211" r="0.005" />
<circle cx="0.282" cy="0.128" r="0.005" />
<circle cx="0.289" cy="-0.068" r="0.005" />
<circle cx="0.295" cy="-0.053" r="0.005" />
<circle cx="0.302" cy="0.339" r="0.005" />
<circle cx="0.308" cy="-0.328" r="0.005" />
<circle cx="0.315" cy="0.058" r="0.005" />
<circle cx="0.321" cy="0.076" r="0.005" />
<circle cx="0.328" cy="-0.122" r="0.005" />
<circle cx="0.335" cy="0.219" r="0.005" />
<circle cx="0.341" cy="-0.210" r="0.005" />
<circle cx="0.348" cy="0.129" r="0.005" />
<circle cx="0.354" cy="-0.067" r="0.005" />
<circle cx="0.361" cy="-0.053" r="0.005" />
<circle cx="0.367" cy="-0.043" r="0.005" />
<circle cx="0.374" cy="0.362" r="0.005" />
<circle cx="0.381" cy="-0.371" r="0.005" />
<circle cx="0.387" cy="0.040" r="0.005" />
<circle cx="0.394" cy="0.048" r="0.005" />
<circle cx="0.400" cy="0.059" r="0.005" />
<circle cx="0.407" cy="-0.134" r="0.005" />
<circle cx="0.413" cy="0.203" r="0.005" />
<circle cx="0.420" cy="-0.121" r="0.005" />
<circle cx="0.426" cy="-0.081" r="0.005" />
<circle cx="0.433" cy="0.281" r="0.005" />
<circle cx="0.440" cy="-0.274" r="0.005" />
<circle cx="0.446" cy="0.085" r="0.005" />
<circle cx="0.453" cy="-0.114" r="0.005" />
<circle cx="0.459" cy="0.230" r="0.005" />
<circle cx="0.466" cy="-0.197" r="0.005" />
<circle cx="0.472" cy="0.139" r="0.005" />
<circle cx="0.479" cy="-0.052" r="0.005" />
<circle cx="0.486" cy="-0.043" r="0.005" />
<circle cx="0.492" cy="-0.037" r="0.005" />
<circle cx="0.499" cy="-0.032" r="0.005" />
<circle cx="0.505" cy="0.393" r="0.005" />
<circle cx="0.512" cy="-0.397" r="0.005" />
<circle cx="0.518" cy="0.031" r="0.005" />
<circle cx="0.525" cy="0.035" r="0.005" />
<circle cx="0.531" cy="0.041" r="0.005" />
<circle cx="0.538" cy="0.048" r="0.005" />
<circle cx="0.545" cy="-0.141" r="0.005" />
<circle cx="0.551" cy="0.194" r="0.005" />
<circle cx="0.558" cy="-0.133" r="0.005" />
<circle cx="0.564" cy="-0.087" r="0.005" />
<circle cx="0.571" cy="0.271" r="0.005" />
<circle cx="0.577" cy="-0.224" r="0.005" />
<circle cx="0.584" cy="0.118" r="0.005" />
<circle cx="0.590" cy="-0.081" r="0.005" />
<circle cx="0.597" cy="-0.061" r="0.005" />
<circle cx="0.604" cy="0.321" r="0.005" />
<circle cx="0.610" cy="-0.344" r="0.005" />
<circle cx="0.617" cy="0.051" r="0.005" />
<circle cx="0.623" cy="0.064" r="0.005" />
<circle cx="0.630" cy="0.086" r="0.005" />
<circle cx="0.636" cy="-0.113" r="0.005" />
<circle cx="0.643" cy="-0.078" r="0.005" />
<circle cx="0.650" cy="0.288" r="0.005" />
<circle cx="0.656" cy="-0.267" r="0.005" />
<circle cx="0.663" cy="0.090" r="0.005" />
<circle cx="0.669" cy="-0.110" r="0.005" />
<circle cx="0.676" cy="0.235" r="0.005" />
<circle cx="0.682" cy="-0.190" r="0.005" />
<circle cx="0.689" cy="0.145" r="0.005" />
<circle cx="0.695" cy="-0.186" r="0.005" />
<circle cx="0.702" cy="0.149" r="0.005" />
<circle cx="0.709" cy="-0.036" r="0.005" />
<circle cx="0.715" cy="-0.031" r="0.005" />
<circle cx="0.722" cy="-0.028" r="0.005" />
<circle cx="0.728" cy="-0.025" r="0.005" />
<circle cx="0.735" cy="-0.023" r="0.005" />
<circle cx="0.741" cy="-0.021" r="0.005" />
<circle cx="0.748" cy="-0.019" r="0.005" />
<circle cx="0.755" cy="0.431" r="0.005" />
<circle cx="0.761" cy="-0.431" r="0.005" />
<circle cx="0.768" cy="0.019" r="0.005" />
<circle cx="0.774" cy="0.021" r="0.005" />
<circle cx="0.781" cy="0.023" r="0.005" />
<circle cx="0.787" cy="0.025" r="0.005" />
<circle cx="0.794" cy="0.028" r="0.005" />
<circle cx="0.800" cy="0.031" r="0.005" />
<circle cx="0.807" cy="0.036" r="0.005" />
<circle cx="0.814" cy="-0.149" r="0.005" />
<circle cx="0.820" cy="0.186" r="0.005" />
<circle cx="0.827" cy="-0.145" r="0.005" />
<circle cx="0.833" cy="0.190" r="0.005" />
<circle cx="0.840" cy="-0.235" r="0.005" />
<circle cx="0.846" cy="0.110" r="0.005" />
<circle cx="0.853" cy="-0.090" r="0.005" />
<circle cx="0.859" cy="0.267" r="0.005" />
<circle cx="0.866" cy="-0.288" r="0.005" />
<circle cx="0.873" cy="0.078" r="0.005" />
<circle cx="0.879" cy="0.113" r="0.005" />
<circle cx="0.886" cy="-0.086" r="0.005" />
<circle cx="0.892" cy="-0.064" r="0.005" />
<circle cx="0.899" cy="-0.051" r="0.005" />
<circle cx="0.905" cy="0.344" r="0.005" />
<circle cx="0.912" cy="-0.321" r="0.005" />
<circle cx="0.919" cy="0.061" r="0.005" />
<circle cx="0.925" cy="0.081" r="0.005" />
<circle cx="0.932" cy="-0.118" r="0.005" />
<circle cx="0.938" cy="0.224" r="0.005" />
<circle cx="0.945" cy="-0.271" r="0.005" />
<circle cx="0.951" cy="0.087" r="0.005" />
<circle cx="0.958" cy="0.133" r="0.005" />
<circle cx="0.964" cy="-0.194" r="0.005" />
<circle cx="0.971" cy="0.141" r="0.005" />
<circle cx="0.978" cy="-0.048" r="0.005" />
<circle cx="0.984" cy="-0.041" r="0.005" />
<circle cx="0.991" cy="-0.035" r="0.005" />
<circle cx="0.997" cy="-0.031" r="0.005" />
<circle cx="1.004" cy="0.397" r="0.005" />
<circle cx="1.010" cy="-0.393" r="0.005" />
<circle cx="1.017" cy="0.032" r="0.005" />
<circle cx="1.024" cy="0.037" r="0.005" />
<circle cx="1.030" cy="0.043" r="0.005" />
<circle cx="1.037" cy="0.052" r="0.005" />
<circle cx="1.043" cy="-0.139" r="0.005" />
<circle cx="1.050" cy="0.197" r="0.005" />
<circle cx="1.056" cy="-0.230" r="0.005" />
<circle cx="1.063" cy="0.114" r="0.005" />
<circle cx="1.069" cy="-0.085" r="0.005" />
<circle cx="1.076" cy="0.274" r="0.005" />
<circle cx="1.083" cy="-0.281" r="0.005" />
<circle cx="1.089" cy="0.081" r="0.005" />
<circle cx="1.096" cy="0.121" r="0.005" />
<circle cx="1.102" cy="-0.203" r="0.005" />
<circle cx="1.109" cy="0.134" r="0.005" />
<circle cx="1.115" cy="-0.059" r="0.005" />
<circle cx="1.122" cy="-0.048" r="0.005" />
<circle cx="1.128" cy="-0.040" r="0.005" />
<circle cx="1.135" cy="0.371" r="0.005" />
<circle cx="1.142" cy="-0.362" r="0.005" />
<circle cx="1.148" cy="0.043" r="0.005" />
<circle cx="1.155" cy="0.053" r="0.005" />
<circle cx="1.161" cy="0.067" r="0.005" />
<circle cx="1.168" cy="-0.129" r="0.005" />
<circle cx="1.174" cy="0.210" r="0.005" />
<circle cx="1.181" cy="-0.219" r="0.005" />
<circle cx="1.188" cy="0.122" r="0.005" />
<circle cx="1.194" cy="-0.076" r="0.005" />
<circle cx="1.201" cy="-0.058" r="0.005" />
<circle cx="1.207" cy="0.328" r="0.005" />
<circle cx="1.214" cy="-0.339" r="0.005" />
<circle cx="1.220" cy="0.053" r="0.005" />
<circle cx="1.227" cy="0.068" r="0.005" />
<circle cx="1.233" cy="-0.128" r="0.005" />
<circle cx="1.240" cy="0.211" r="0.005" />
<circle cx="1.247" cy="-0.107" r="0.005" />
<circle cx="1.253" cy="-0.075" r="0.005" />
<circle cx="1.260" cy="0.293" r="0.005" />
<circle cx="1.266" cy="-0.306" r="0.005" />
<circle cx="1.273" cy="0.068" r="0.005" />
<circle cx="1.279" cy="0.094" r="0.005" />
<circle cx="1.286" cy="-0.106" r="0.005" />
<circle cx="1.293" cy="-0.074" r="0.005" />
<circle cx="1.299" cy="0.294" r="0.005" />
<circle cx="1.306" cy="-0.259" r="0.005" />
<circle cx="1.312" cy="0.095" r="0.005" />
<circle cx="1.319" cy="-0.105" r="0.005" />
<circle cx="1.325" cy="0.242" r="0.005" />
<circle cx="1.332" cy="-0.258" r="0.005" />
<circle cx="1.338" cy="0.095" r="0.005" />
<circle cx="1.345" cy="-0.105" r="0.005" />
<circle cx="1.352" cy="0.243" r="0.005" />
<circle cx="1.358" cy="-0.179" r="0.005" />
<circle cx="1.365" cy="0.155" r="0.005" />
<circle cx="1.371" cy="-0.177" r="0.005" />
<circle cx="1.378" cy="0.156" r="0.005" />
<circle cx="1.384" cy="-0.176" r="0.005" />
<circle cx="1.391" cy="0.157" r="0.005" />
<circle cx="1.397" cy="-0.176" r="0.005" />
<circle cx="1.404" cy="0.158" r="0.005" />
<circle cx="1.411" cy="-0.175" r="0.005" />
<circle cx="1.417" cy="0.159" r="0.005" />
<circle cx="1.424" cy="-0.017" r="0.005" />
<circle cx="1.430" cy="-0.016" r="0.005" />
<circle cx="1.437" cy="-0.015" r="0.005" />
<circle cx="1.443" cy="-0.014" r="0.005" />
<circle cx="1.450" cy="-0.014" r="0.005" />
<circle cx="1.457" cy="-0.013" r="0.005" />
<circle cx="1.463" cy="-0.012" r="0.005" />
<circle cx="1.470" cy="-0.012" r="0.005" />
<circle cx="1.476" cy="-0.011" r="0.005" />
<circle cx="1.483" cy="-0.011" r="0.005" />
<circle cx="1.489" cy="-0.010" r="0.005" />
<circle cx="1.496" cy="-0.010" r="0.005" />
<circle cx="1.502" cy="-0.009" r="0.005" />
<circle cx="1.509" cy="0.464" r="0.005" />
</g>
</svg>