<svg xmlns="http://www.w3.org/2000/svg" width="161.8" height="100.0" viewBox="-4.06 -5.00 171.80 110.00">
<g fill="none" stroke="black" stroke-width="0.1100%" transform="translate(0, 100.0000) scale(4.5455, -4.5455)">
<circle cx="0.21" cy="0.00" r="0.11" />
<circle cx="0.21" cy="0.00" r="0.11" />
<circle cx="0.41" cy="1.00" r="0.11" />
<circle cx="0.62" cy="1.00" r="0.11" />
<circle cx="0.83" cy="1.00" r="0.11" />
<circle cx="1.03" cy="1.00" r="0.11" />
<circle cx="1.24" cy="1.00" r="0.11" />
<circle cx="1.45" cy="1.00" r="0.11" />
<circle cx="1.66" cy="1.00" r="0.11" />
<circle cx="1.86" cy="1.00" r="0.11" />
<circle cx="2.07" cy="1.00" r="0.11" />
<circle cx="2.28" cy="1.00" r="0.11" />
<circle cx="2.48" cy="1.00" r="0.11" />
<circle cx="2.69" cy="1.00" r="0.11" />
<circle cx="2.90" cy="2.00" r="0.11" />
<circle cx="3.10" cy="1.00" r="0.11" />
<circle cx="3.31" cy="2.00" r="0.11" />
<circle cx="3.52" cy="1.00" r="0.11" />
<circle cx="3.73" cy="2.00" r="0.11" />
<circle cx="3.93" cy="1.00" r="0.11" />
<circle cx="4.14" cy="2.00" r="0.11" />
<circle cx="4.35" cy="1.00" r="0.11" />
<circle cx="4.55" cy="3.00" r="0.11" />
<circle cx="4.76" cy="2.00" r="0.11" />
<circle cx="4.97" cy="3.00" r="0.11" />
<circle cx="5.17" cy="1.00" r="0.11" />
<circle cx="5.38" cy="3.00" r="0.11" />
<circle cx="5.59" cy="2.00" r="0.11" />
<circle cx="5.79" cy="3.00" r="0.11" />
<circle cx="6.00" cy="1.00" r="0.11" />
<circle cx="6.21" cy="4.00" r="0.11" />
<circle cx="6.42" cy="3.00" r="0.11" />
<circle cx="6.62" cy="2.00" r="0.11" />
<circle cx="6.83" cy="3.00" r="0.11" />
<circle cx="7.04" cy="4.00" r="0.11" />
<circle cx="7.24" cy="1.00" r="0.11" />
<circle cx="7.45" cy="4.00" r="0.11" />
<circle cx="7.66" cy="3.00" r="0.11" />
<circle cx="7.86" cy="5.00" r="0.11" />
<circle cx="8.07" cy="2.00" r="0.11" />
<circle cx="8.28" cy="5.00" r="0.11" />
<circle cx="8.49" cy="3.00" r="0.11" />
<circle cx="8.69" cy="4.00" r="0.11" />
<circle cx="8.90" cy="5.00" r="0.11" />
<circle cx="9.11" cy="1.00" r="0.11" />
<circle cx="9.31" cy="6.00" r="0.11" />
<circle cx="9.52" cy="5.00" r="0.11" />
<circle cx="9.73" cy="4.00" r="0.11" />
<circle cx="9.93" cy="3.00" r="0.11" />
<circle cx="10.14" cy="5.00" r="0.11" />
<circle cx="10.35" cy="2.00" r="0.11" />
<circle cx="10.55" cy="5.00" r="0.11" />
<circle cx="10.76" cy="3.00" r="0.11" />
<circle cx="10.97" cy="7.00" r="0.11" />
<circle cx="11.18" cy="4.00" r="0.11" />
<circle cx="11.38" cy="5.00" r="0.11" />
<circle cx="11.59" cy="6.00" r="0.11" />
<circle cx="11.80" cy="7.00" r="0.11" />
<circle cx="12.00" cy="1.00" r="0.11" />
<circle cx="12.21" cy="8.00" r="0.11" />
<circle cx="12.42" cy="7.00" r="0.11" />
<circle cx="12.62" cy="6.00" r="0.11" />
<circle cx="12.83" cy="5.00" r="0.11" />
<circle cx="13.04" cy="4.00" r="0.11" />
<circle cx="13.25" cy="7.00" r="0.11" />
<circle cx="13.45" cy="3.00" r="0.11" />
<circle cx="13.66" cy="8.00" r="0.11" />
<circle cx="13.87" cy="5.00" r="0.11" />
<circle cx="14.07" cy="7.00" r="0.11" />
<circle cx="14.28" cy="9.00" r="0.11" />
<circle cx="14.49" cy="2.00" r="0.11" />
<circle cx="14.69" cy="9.00" r="0.11" />
<circle cx="14.90" cy="7.00" r="0.11" />
<circle cx="15.11" cy="5.00" r="0.11" />
<circle cx="15.31" cy="8.00" r="0.11" />
<circle cx="15.52" cy="3.00" r="0.11" />
<circle cx="15.73" cy="10.00" r="0.11" />
<circle cx="15.94" cy="7.00" r="0.11" />
<circle cx="16.14" cy="4.00" r="0.11" />
<circle cx="16.35" cy="9.00" r="0.11" />
<circle cx="16.56" cy="5.00" r="0.11" />
<circle cx="16.76" cy="6.00" r="0.11" />
<circle cx="16.97" cy="7.00" r="0.11" />
<circle cx="17.18" cy="8.00" r="0.11" />
<circle cx="17.38" cy="9.00" r="0.11" />
<circle cx="17.59" cy="10.00" r="0.11" />
<circle cx="17.80" cy="11.00" r="0.11" />
<circle cx="18.01" cy="1.00" r="0.11" />
<circle cx="18.21" cy="12.00" r="0.11" />
<circle cx="18.42" cy="11.00" r="0.11" />
<circle cx="18.63" cy="10.00" r="0.11" />
<circle cx="18.83" cy="9.00" r="0.11" />
<circle cx="19.04" cy="8.00" r="0.11" />
<circle cx="19.25" cy="7.00" r="0.11" />
<circle cx="19.45" cy="6.00" r="0.11" />
<circle cx="19.66" cy="11.00" r="0.11" />
<circle cx="19.87" cy="5.00" r="0.11" />
<circle cx="20.07" cy="9.00" r="0.11" />
<circle cx="20.28" cy="13.00" r="0.11" />
<circle cx="20.49" cy="4.00" r="0.11" />
<circle cx="20.70" cy="11.00" r="0.11" />
<circle cx="20.90" cy="7.00" r="0.11" />
<circle cx="21.11" cy="10.00" r="0.11" />
<circle cx="21.32" cy="13.00" r="0.11" />
<circle cx="21.52" cy="3.00" r="0.11" />
<circle cx="21.73" cy="14.00" r="0.11" />
<circle cx="21.94" cy="11.00" r="0.11" />
<circle cx="22.14" cy="8.00" r="0.11" />
<circle cx="22.35" cy="13.00" r="0.11" />
<circle cx="22.56" cy="5.00" r="0.11" />
<circle cx="22.77" cy="12.00" r="0.11" />
<circle cx="22.97" cy="7.00" r="0.11" />
<circle cx="23.18" cy="9.00" r="0.11" />
<circle cx="23.39" cy="11.00" r="0.11" />
<circle cx="23.59" cy="13.00" r="0.11" />
<circle cx="23.80" cy="15.00" r="0.11" />
<circle cx="24.01" cy="2.00" r="0.11" />
<circle cx="24.21" cy="15.00" r="0.11" />
<circle cx="24.42" cy="13.00" r="0.11" />
<circle cx="24.63" cy="11.00" r="0.11" />
<circle cx="24.83" cy="9.00" r="0.11" />
<circle cx="25.04" cy="16.00" r="0.11" />
<circle cx="25.25" cy="7.00" r="0.11" />
<circle cx="25.46" cy="12.00" r="0.11" />
<circle cx="25.66" cy="5.00" r="0.11" />
<circle cx="25.87" cy="13.00" r="0.11" />
<circle cx="26.08" cy="8.00" r="0.11" />
<circle cx="26.28" cy="11.00" r="0.11" />
<circle cx="26.49" cy="14.00" r="0.11" />
<circle cx="26.70" cy="17.00" r="0.11" />
<circle cx="26.90" cy="3.00" r="0.11" />
<circle cx="27.11" cy="16.00" r="0.11" />
<circle cx="27.32" cy="13.00" r="0.11" />
<circle cx="27.53" cy="10.00" r="0.11" />
<circle cx="27.73" cy="17.00" r="0.11" />
<circle cx="27.94" cy="7.00" r="0.11" />
<circle cx="28.15" cy="18.00" r="0.11" />
<circle cx="28.35" cy="11.00" r="0.11" />
<circle cx="28.56" cy="15.00" r="0.11" />
<circle cx="28.77" cy="4.00" r="0.11" />
<circle cx="28.97" cy="17.00" r="0.11" />
<circle cx="29.18" cy="13.00" r="0.11" />
<circle cx="29.39" cy="9.00" r="0.11" />
<circle cx="29.59" cy="14.00" r="0.11" />
<circle cx="29.80" cy="19.00" r="0.11" />
<circle cx="30.01" cy="5.00" r="0.11" />
<circle cx="30.22" cy="16.00" r="0.11" />
<circle cx="30.42" cy="11.00" r="0.11" />
<circle cx="30.63" cy="17.00" r="0.11" />
<circle cx="30.84" cy="6.00" r="0.11" />
<circle cx="31.04" cy="19.00" r="0.11" />
<circle cx="31.25" cy="13.00" r="0.11" />
<circle cx="31.46" cy="20.00" r="0.11" />
<circle cx="31.66" cy="7.00" r="0.11" />
<circle cx="31.87" cy="15.00" r="0.11" />
<circle cx="32.08" cy="8.00" r="0.11" />
<circle cx="32.29" cy="17.00" r="0.11" />
<circle cx="32.49" cy="9.00" r="0.11" />
<circle cx="32.70" cy="19.00" r="0.11" />
<circle cx="32.91" cy="10.00" r="0.11" />
<circle cx="33.11" cy="21.00" r="0.11" />
<circle cx="33.32" cy="11.00" r="0.11" />
<circle cx="33.53" cy="12.00" r="0.11" />
<circle cx="33.73" cy="13.00" r="0.11" />
<circle cx="33.94" cy="14.00" r="0.11" />
<circle cx="34.15" cy="15.00" r="0.11" />
<circle cx="34.36" cy="16.00" r="0.11" />
<circle cx="34.56" cy="17.00" r="0.11" />
<circle cx="34.77" cy="18.00" r="0.11" />
<circle cx="34.98" cy="19.00" r="0.11" />
<circle cx="35.18" cy="20.00" r="0.11" />
<circle cx="35.39" cy="21.00" r="0.11" />
<circle cx="35.60" cy="22.00" r="0.11" />
<circle cx="35.80" cy="1.00" r="0.11" />
</g>
</svg>