<svg xmlns="http://www.w3.org/2000/svg" width="161.8" height="100.0" viewBox="-4.059 -5.000 171.803 110.000">
<g fill="none" stroke="black" stroke-width="0.0050%" transform="translate(0, 100.0000) scale(100.0000, -100.0000)">
<polyline points="0.009,0.000 0.019,0.043 0.028,0.045 0.038,0.048 0.047,0.050 0.056,0.053 0.066,0.056 0.075,0.059 0.085,0.063 0.094,0.067 0.103,0.071 0.113,0.077 0.122,0.083 0.132,0.087 0.141,0.091 0.151,0.095 0.160,0.100 0.169,0.105 0.179,0.111 0.188,0.118 0.198,0.125 0.207,0.130 0.216,0.133 0.226,0.136 0.235,0.143 0.245,0.150 0.254,0.154 0.263,0.158 0.273,0.167 0.282,0.174 0.292,0.176 0.301,0.182 0.310,0.188 0.320,0.190 0.329,0.200 0.339,0.211 0.348,0.214 0.357,0.217 0.367,0.222 0.376,0.227 0.386,0.231 0.395,0.235 0.405,0.238 0.414,0.250 0.423,0.261 0.433,0.263 0.442,0.267 0.452,0.273 0.461,0.278 0.470,0.286 0.480,0.294 0.489,0.300 0.499,0.304 0.508,0.308 0.517,0.313 0.527,0.316 0.536,0.318 0.546,0.333 0.555,0.348 0.564,0.350 0.574,0.353 0.583,0.357 0.593,0.364 0.602,0.368 0.611,0.375 0.621,0.381 0.630,0.385 0.640,0.389 0.649,0.391 0.659,0.400 0.668,0.409 0.677,0.412 0.687,0.417 0.696,0.421 0.706,0.429 0.715,0.435 0.724,0.438 0.734,0.444 0.743,0.450 0.753,0.455 0.762,0.462 0.771,0.467 0.781,0.471 0.790,0.474 0.800,0.476 0.809,0.478 0.818,0.500 0.828,0.522 0.837,0.524 0.847,0.526 0.856,0.529 0.865,0.533 0.875,0.538 0.884,0.545 0.894,0.550 0.903,0.556 0.912,0.563 0.922,0.565 0.931,0.571 0.941,0.579 0.950,0.583 0.960,0.588 0.969,0.591 0.978,0.600 0.988,0.609 0.997,0.611 1.007,0.615 1.016,0.619 1.025,0.625 1.035,0.632 1.044,0.636 1.054,0.643 1.063,0.647 1.072,0.650 1.082,0.652 1.091,0.667 1.101,0.682 1.110,0.684 1.119,0.688 1.129,0.692 1.138,0.696 1.148,0.700 1.157,0.706 1.166,0.714 1.176,0.722 1.185,0.727 1.195,0.733 1.204,0.737 1.214,0.739 1.223,0.750 1.232,0.762 1.242,0.765 1.251,0.769 1.261,0.773 1.270,0.778 1.279,0.783 1.289,0.786 1.298,0.789 1.308,0.800 1.317,0.810 1.326,0.813 1.336,0.818 1.345,0.824 1.355,0.826 1.364,0.833 1.373,0.842 1.383,0.846 1.392,0.850 1.402,0.857 1.411,0.864 1.420,0.867 1.430,0.870 1.439,0.875 1.449,0.882 1.458,0.889 1.468,0.895 1.477,0.900 1.486,0.905 1.496,0.909 1.505,0.913 1.515,0.917 1.524,0.923 1.533,0.929 1.543,0.933 1.552,0.938 1.562,0.941 1.571,0.944 1.580,0.947 1.590,0.950 1.599,0.952 1.609,0.955 1.618,0.957 1.627,1.000" />
</g>
</svg>