<svg xmlns="http://www.w3.org/2000/svg" width="154.3" height="100.0" viewBox="-2.6 -5.0 164.3 110.0">
<g fill="none" stroke="black" stroke-width="0.2150%" transform="translate(0, 100.0000) scale(2.3256, -2.3256)">
<line x1="1.0" y1="0.0" x2="1.0" y2="2.0" />
<line x1="2.0" y1="0.0" x2="2.0" y2="3.0" />
<line x1="3.1" y1="0.0" x2="3.1" y2="2.0" />
<line x1="4.1" y1="0.0" x2="4.1" y2="5.0" />
<line x1="5.1" y1="0.0" x2="5.1" y2="3.0" />
<line x1="6.1" y1="0.0" x2="6.1" y2="2.0" />
<line x1="7.1" y1="0.0" x2="7.1" y2="7.0" />
<line x1="8.2" y1="0.0" x2="8.2" y2="4.0" />
<line x1="9.2" y1="0.0" x2="9.2" y2="3.0" />
<line x1="10.2" y1="0.0" x2="10.2" y2="2.0" />
<line x1="11.2" y1="0.0" x2="11.2" y2="11.0" />
<line x1="12.2" y1="0.0" x2="12.2" y2="6.0" />
<line x1="13.3" y1="0.0" x2="13.3" y2="4.0" />
<line x1="14.3" y1="0.0" x2="14.3" y2="3.0" />
<line x1="15.3" y1="0.0" x2="15.3" y2="2.0" />
<line x1="16.3" y1="0.0" x2="16.3" y2="13.0" />
<line x1="17.4" y1="0.0" x2="17.4" y2="7.0" />
<line x1="18.4" y1="0.0" x2="18.4" y2="5.0" />
<line x1="19.4" y1="0.0" x2="19.4" y2="4.0" />
<line x1="20.4" y1="0.0" x2="20.4" y2="3.0" />
<line x1="21.4" y1="0.0" x2="21.4" y2="2.0" />
<line x1="22.5" y1="0.0" x2="22.5" y2="19.0" />
<line x1="23.5" y1="0.0" x2="23.5" y2="10.0" />
<line x1="24.5" y1="0.0" x2="24.5" y2="7.0" />
<line x1="25.5" y1="0.0" x2="25.5" y2="5.0" />
<line x1="26.5" y1="0.0" x2="26.5" y2="4.0" />
<line x1="27.6" y1="0.0" x2="27.6" y2="3.0" />
<line x1="28.6" y1="0.0" x2="28.6" y2="2.0" />
<line x1="29.6" y1="0.0" x2="29.6" y2="23.0" />
<line x1="30.6" y1="0.0" x2="30.6" y2="12.0" />
<line x1="31.6" y1="0.0" x2="31.6" y2="8.0" />
<line x1="32.7" y1="0.0" x2="32.7" y2="6.0" />
<line x1="33.7" y1="0.0" x2="33.7" y2="5.0" />
<line x1="34.7" y1="0.0" x2="34.7" y2="4.0" />
<line x1="35.7" y1="0.0" x2="35.7" y2="3.0" />
<line x1="36.7" y1="0.0" x2="36.7" y2="2.0" />
<line x1="37.8" y1="0.0" x2="37.8" y2="29.0" />
<line x1="38.8" y1="0.0" x2="38.8" y2="15.0" />
<line x1="39.8" y1="0.0" x2="39.8" y2="10.0" />
<line x1="40.8" y1="0.0" x2="40.8" y2="8.0" />
<line x1="41.8" y1="0.0" x2="41.8" y2="6.0" />
<line x1="42.9" y1="0.0" x2="42.9" y2="5.0" />
<line x1="43.9" y1="0.0" x2="43.9" y2="4.0" />
<line x1="44.9" y1="0.0" x2="44.9" y2="3.0" />
<line x1="45.9" y1="0.0" x2="45.9" y2="2.0" />
<line x1="46.9" y1="0.0" x2="46.9" y2="33.0" />
<line x1="48.0" y1="0.0" x2="48.0" y2="17.0" />
<line x1="49.0" y1="0.0" x2="49.0" y2="12.0" />
<line x1="50.0" y1="0.0" x2="50.0" y2="9.0" />
<line x1="51.0" y1="0.0" x2="51.0" y2="7.0" />
<line x1="52.1" y1="0.0" x2="52.1" y2="6.0" />
<line x1="53.1" y1="0.0" x2="53.1" y2="5.0" />
<line x1="54.1" y1="0.0" x2="54.1" y2="4.0" />
<line x1="55.1" y1="0.0" x2="55.1" y2="3.0" />
<line x1="56.1" y1="0.0" x2="56.1" y2="2.0" />
<line x1="57.2" y1="0.0" x2="57.2" y2="43.0" />
<line x1="58.2" y1="0.0" x2="58.2" y2="22.0" />
<line x1="59.2" y1="0.0" x2="59.2" y2="15.0" />
<line x1="60.2" y1="0.0" x2="60.2" y2="11.0" />
<line x1="61.2" y1="0.0" x2="61.2" y2="9.0" />
<line x1="62.3" y1="0.0" x2="62.3" y2="7.0" />
<line x1="63.3" y1="0.0" x2="63.3" y2="6.0" />
<line x1="64.3" y1="0.0" x2="64.3" y2="5.0" />
<line x1="65.3" y1="0.0" x2="65.3" y2="4.0" />
<line x1="66.3" y1="0.0" x2="66.3" y2="3.0" />
<line x1="67.4" y1="0.0" x2="67.4" y2="2.0" />
</g>
</svg>