<svg xmlns="http://www.w3.org/2000/svg" width="161.8" height="100.0" viewBox="-4.3655 -5.0000 171.8034 110.0000">
<g fill="none" stroke="black" stroke-width="0.0012%" transform="translate(0, 100.0000) scale(404.3975, -404.3975)">
<polyline points="0.0016,0.0000 0.0031,0.0001 0.0047,0.0002 0.0063,0.0004 0.0078,0.0005 0.0094,0.0006 0.0110,0.0008 0.0126,0.0009 0.0141,0.0011 0.0157,0.0012 0.0173,0.0014 0.0188,0.0016 0.0204,0.0018 0.0220,0.0021 0.0235,0.0024 0.0251,0.0028 0.0267,0.0032 0.0282,0.0038 0.0298,0.0046 0.0314,0.0057 0.0330,0.0076 0.0345,0.0111 0.0361,0.0209 0.0377,0.2473 0.0392,0.0237 0.0408,0.0108 0.0424,0.0067 0.0439,0.0047 0.0455,0.0034 0.0471,0.0025 0.0486,0.0018 0.0502,0.0012 0.0518,0.0007 0.0533,0.0002 0.0549,0.0002 0.0565,0.0007 0.0581,0.0011 0.0596,0.0017 0.0612,0.0022 0.0628,0.0029 0.0643,0.0037 0.0659,0.0048 0.0675,0.0062 0.0690,0.0083 0.0706,0.0116 0.0722,0.0180 0.0737,0.0348 0.0753,0.2344 0.0769,0.0552 0.0785,0.0258 0.0800,0.0172 0.0816,0.0131 0.0832,0.0107 0.0847,0.0092 0.0863,0.0080 0.0879,0.0072 0.0894,0.0065 0.0910,0.0060 0.0926,0.0056 0.0941,0.0052 0.0957,0.0049 0.0973,0.0046 0.0989,0.0044 0.1004,0.0042 0.1020,0.0040 0.1036,0.0039 0.1051,0.0037 0.1067,0.0036 0.1083,0.0035 0.1098,0.0034 0.1114,0.0033 0.1130,0.0032 0.1145,0.0031 0.1161,0.0030 0.1177,0.0030 0.1192,0.0029 0.1208,0.0028 0.1224,0.0028 0.1240,0.0027 0.1255,0.0027 0.1271,0.0026 0.1287,0.0026 0.1302,0.0025 0.1318,0.0025 0.1334,0.0024 0.1349,0.0024 0.1365,0.0024 0.1381,0.0023 0.1396,0.0023 0.1412,0.0023 0.1428,0.0023 0.1444,0.0022 0.1459,0.0022 0.1475,0.0022 0.1491,0.0022 0.1506,0.0021 0.1522,0.0021 0.1538,0.0021 0.1553,0.0021 0.1569,0.0021 0.1585,0.0020 0.1600,0.0020 0.1616,0.0020 0.1632,0.0020 0.1648,0.0020 0.1663,0.0020 0.1679,0.0020 0.1695,0.0020 0.1710,0.0019 0.1726,0.0019 0.1742,0.0019 0.1757,0.0019 0.1773,0.0019 0.1789,0.0019 0.1804,0.0019 0.1820,0.0019 0.1836,0.0019 0.1851,0.0019 0.1867,0.0019 0.1883,0.0019 0.1899,0.0019 0.1914,0.0019 0.1930,0.0019 0.1946,0.0019 0.1961,0.0018 0.1977,0.0018 0.1993,0.0018 0.2008,0.0018 0.2024,0.0018 0.2040,0.0018 0.2055,0.0018 0.2071,0.0018 0.2087,0.0018 0.2103,0.0019 0.2118,0.0019 0.2134,0.0019 0.2150,0.0019 0.2165,0.0019 0.2181,0.0019 0.2197,0.0019 0.2212,0.0019 0.2228,0.0019 0.2244,0.0019 0.2259,0.0019 0.2275,0.0019 0.2291,0.0019 0.2307,0.0019 0.2322,0.0019 0.2338,0.0019 0.2354,0.0020 0.2369,0.0020 0.2385,0.0020 0.2401,0.0020 0.2416,0.0020 0.2432,0.0020 0.2448,0.0020 0.2463,0.0020 0.2479,0.0021 0.2495,0.0021 0.2510,0.0021 0.2526,0.0021 0.2542,0.0021 0.2558,0.0022 0.2573,0.0022 0.2589,0.0022 0.2605,0.0022 0.2620,0.0023 0.2636,0.0023 0.2652,0.0023 0.2667,0.0023 0.2683,0.0024 0.2699,0.0024 0.2714,0.0024 0.2730,0.0025 0.2746,0.0025 0.2762,0.0026 0.2777,0.0026 0.2793,0.0027 0.2809,0.0027 0.2824,0.0028 0.2840,0.0028 0.2856,0.0029 0.2871,0.0030 0.2887,0.0030 0.2903,0.0031 0.2918,0.0032 0.2934,0.0033 0.2950,0.0034 0.2966,0.0035 0.2981,0.0036 0.2997,0.0037 0.3013,0.0039 0.3028,0.0040 0.3044,0.0042 0.3060,0.0044 0.3075,0.0046 0.3091,0.0049 0.3107,0.0052 0.3122,0.0056 0.3138,0.0060 0.3154,0.0065 0.3169,0.0072 0.3185,0.0080 0.3201,0.0092 0.3217,0.0107 0.3232,0.0131 0.3248,0.0172 0.3264,0.0258 0.3279,0.0552 0.3295,0.2344 0.3311,0.0348 0.3326,0.0180 0.3342,0.0116 0.3358,0.0083 0.3373,0.0062 0.3389,0.0048 0.3405,0.0037 0.3421,0.0029 0.3436,0.0022 0.3452,0.0017 0.3468,0.0011 0.3483,0.0007 0.3499,0.0002 0.3515,0.0002 0.3530,0.0007 0.3546,0.0012 0.3562,0.0018 0.3577,0.0025 0.3593,0.0034 0.3609,0.0047 0.3625,0.0067 0.3640,0.0108 0.3656,0.0237 0.3672,0.2473 0.3687,0.0209 0.3703,0.0111 0.3719,0.0076 0.3734,0.0057 0.3750,0.0046 0.3766,0.0038 0.3781,0.0032 0.3797,0.0028 0.3813,0.0024 0.3829,0.0021 0.3844,0.0018 0.3860,0.0016 0.3876,0.0014 0.3891,0.0012 0.3907,0.0011 0.3923,0.0009 0.3938,0.0008 0.3954,0.0006 0.3970,0.0005 0.3985,0.0004 0.4001,0.0002 0.4017,0.0001" />
</g>
</svg>