<svg xmlns="http://www.w3.org/2000/svg" width="161.8" height="100.0" viewBox="-85.902 -54.761 171.803 110.000">
<g fill="none" stroke="black" stroke-width="0.0100%" transform="translate(0, 0.4780) scale(49.7610, -49.7610)">
<polyline points="-1.626,-1.000 -1.593,-0.965 -1.561,-0.914 -1.528,-0.847 -1.496,-0.765 -1.463,-0.672 -1.431,-0.569 -1.398,-0.457 -1.366,-0.339 -1.333,-0.216 -1.301,-0.091 -1.268,0.034 -1.236,0.157 -1.203,0.277 -1.171,0.391 -1.138,0.499 -1.106,0.599 -1.073,0.689 -1.041,0.769 -1.008,0.838 -0.975,0.896 -0.943,0.941 -0.910,0.974 -0.878,0.994 -0.845,1.003 -0.813,1.000 -0.780,0.986 -0.748,0.962 -0.715,0.928 -0.683,0.886 -0.650,0.836 -0.618,0.780 -0.585,0.719 -0.553,0.655 -0.520,0.588 -0.488,0.520 -0.455,0.451 -0.423,0.384 -0.390,0.320 -0.358,0.258 -0.325,0.201 -0.293,0.150 -0.260,0.104 -0.228,0.065 -0.195,0.033 -0.163,0.008 -0.130,-0.009 -0.098,-0.018 -0.065,-0.020 -0.033,-0.014 0.000,0.000 0.033,0.021 0.065,0.048 0.098,0.081 0.130,0.120 0.163,0.164 0.195,0.212 0.228,0.263 0.260,0.316 0.293,0.372 0.325,0.428 0.358,0.485 0.390,0.541 0.423,0.596 0.455,0.650 0.488,0.700 0.520,0.748 0.553,0.793 0.585,0.834 0.618,0.871 0.650,0.903 0.683,0.932 0.715,0.955 0.748,0.974 0.780,0.989 0.813,1.000 0.845,1.007 0.878,1.010 0.910,1.009 0.943,1.006 0.975,1.000 1.008,0.992 1.041,0.982 1.073,0.971 1.106,0.959 1.138,0.948 1.171,0.936 1.203,0.925 1.236,0.916 1.268,0.908 1.301,0.902 1.333,0.898 1.366,0.897 1.398,0.899 1.431,0.903 1.463,0.911 1.496,0.922 1.528,0.937 1.561,0.955 1.593,0.976 1.626,1.000" />
</g>
</svg>