<svg xmlns="http://www.w3.org/2000/svg" width="161.8" height="100.0" viewBox="-3.91 6.11 171.80 110.00">
<g fill="none" stroke="black" stroke-width="0.0450%" transform="translate(0, 122.2222) scale(11.1111, -11.1111)">
<circle cx="0.10" cy="1.00" r="0.04" />
<circle cx="0.20" cy="1.00" r="0.04" />
<circle cx="0.29" cy="1.00" r="0.04" />
<circle cx="0.39" cy="2.00" r="0.04" />
<circle cx="0.49" cy="1.00" r="0.04" />
<circle cx="0.59" cy="2.00" r="0.04" />
<circle cx="0.68" cy="2.00" r="0.04" />
<circle cx="0.78" cy="1.00" r="0.04" />
<circle cx="0.88" cy="3.00" r="0.04" />
<circle cx="0.98" cy="2.00" r="0.04" />
<circle cx="1.08" cy="2.00" r="0.04" />
<circle cx="1.17" cy="3.00" r="0.04" />
<circle cx="1.27" cy="1.00" r="0.04" />
<circle cx="1.37" cy="3.00" r="0.04" />
<circle cx="1.47" cy="3.00" r="0.04" />
<circle cx="1.56" cy="2.00" r="0.04" />
<circle cx="1.66" cy="4.00" r="0.04" />
<circle cx="1.76" cy="2.00" r="0.04" />
<circle cx="1.86" cy="3.00" r="0.04" />
<circle cx="1.95" cy="3.00" r="0.04" />
<circle cx="2.05" cy="1.00" r="0.04" />
<circle cx="2.15" cy="4.00" r="0.04" />
<circle cx="2.25" cy="3.00" r="0.04" />
<circle cx="2.35" cy="3.00" r="0.04" />
<circle cx="2.44" cy="5.00" r="0.04" />
<circle cx="2.54" cy="2.00" r="0.04" />
<circle cx="2.64" cy="4.00" r="0.04" />
<circle cx="2.74" cy="4.00" r="0.04" />
<circle cx="2.83" cy="2.00" r="0.04" />
<circle cx="2.93" cy="5.00" r="0.04" />
<circle cx="3.03" cy="3.00" r="0.04" />
<circle cx="3.13" cy="3.00" r="0.04" />
<circle cx="3.23" cy="4.00" r="0.04" />
<circle cx="3.32" cy="1.00" r="0.04" />
<circle cx="3.42" cy="4.00" r="0.04" />
<circle cx="3.52" cy="4.00" r="0.04" />
<circle cx="3.62" cy="3.00" r="0.04" />
<circle cx="3.71" cy="6.00" r="0.04" />
<circle cx="3.81" cy="3.00" r="0.04" />
<circle cx="3.91" cy="5.00" r="0.04" />
<circle cx="4.01" cy="5.00" r="0.04" />
<circle cx="4.10" cy="2.00" r="0.04" />
<circle cx="4.20" cy="6.00" r="0.04" />
<circle cx="4.30" cy="4.00" r="0.04" />
<circle cx="4.40" cy="4.00" r="0.04" />
<circle cx="4.50" cy="6.00" r="0.04" />
<circle cx="4.59" cy="2.00" r="0.04" />
<circle cx="4.69" cy="5.00" r="0.04" />
<circle cx="4.79" cy="5.00" r="0.04" />
<circle cx="4.89" cy="3.00" r="0.04" />
<circle cx="4.98" cy="6.00" r="0.04" />
<circle cx="5.08" cy="3.00" r="0.04" />
<circle cx="5.18" cy="4.00" r="0.04" />
<circle cx="5.28" cy="4.00" r="0.04" />
<circle cx="5.38" cy="1.00" r="0.04" />
<circle cx="5.47" cy="5.00" r="0.04" />
<circle cx="5.57" cy="4.00" r="0.04" />
<circle cx="5.67" cy="4.00" r="0.04" />
<circle cx="5.77" cy="7.00" r="0.04" />
<circle cx="5.86" cy="3.00" r="0.04" />
<circle cx="5.96" cy="6.00" r="0.04" />
<circle cx="6.06" cy="6.00" r="0.04" />
<circle cx="6.16" cy="3.00" r="0.04" />
<circle cx="6.25" cy="8.00" r="0.04" />
<circle cx="6.35" cy="5.00" r="0.04" />
<circle cx="6.45" cy="5.00" r="0.04" />
<circle cx="6.55" cy="7.00" r="0.04" />
<circle cx="6.65" cy="2.00" r="0.04" />
<circle cx="6.74" cy="6.00" r="0.04" />
<circle cx="6.84" cy="6.00" r="0.04" />
<circle cx="6.94" cy="4.00" r="0.04" />
<circle cx="7.04" cy="8.00" r="0.04" />
<circle cx="7.13" cy="4.00" r="0.04" />
<circle cx="7.23" cy="6.00" r="0.04" />
<circle cx="7.33" cy="6.00" r="0.04" />
<circle cx="7.43" cy="2.00" r="0.04" />
<circle cx="7.53" cy="7.00" r="0.04" />
<circle cx="7.62" cy="5.00" r="0.04" />
<circle cx="7.72" cy="5.00" r="0.04" />
<circle cx="7.82" cy="8.00" r="0.04" />
<circle cx="7.92" cy="3.00" r="0.04" />
<circle cx="8.01" cy="6.00" r="0.04" />
<circle cx="8.11" cy="6.00" r="0.04" />
<circle cx="8.21" cy="3.00" r="0.04" />
<circle cx="8.31" cy="7.00" r="0.04" />
<circle cx="8.41" cy="4.00" r="0.04" />
<circle cx="8.50" cy="4.00" r="0.04" />
<circle cx="8.60" cy="5.00" r="0.04" />
<circle cx="8.70" cy="1.00" r="0.04" />
<circle cx="8.80" cy="5.00" r="0.04" />
<circle cx="8.89" cy="5.00" r="0.04" />
<circle cx="8.99" cy="4.00" r="0.04" />
<circle cx="9.09" cy="8.00" r="0.04" />
<circle cx="9.19" cy="4.00" r="0.04" />
<circle cx="9.28" cy="7.00" r="0.04" />
<circle cx="9.38" cy="7.00" r="0.04" />
<circle cx="9.48" cy="3.00" r="0.04" />
<circle cx="9.58" cy="9.00" r="0.04" />
<circle cx="9.68" cy="6.00" r="0.04" />
<circle cx="9.77" cy="6.00" r="0.04" />
<circle cx="9.87" cy="9.00" r="0.04" />
<circle cx="9.97" cy="3.00" r="0.04" />
<circle cx="10.07" cy="8.00" r="0.04" />
<circle cx="10.16" cy="8.00" r="0.04" />
<circle cx="10.26" cy="5.00" r="0.04" />
<circle cx="10.36" cy="10.00" r="0.04" />
<circle cx="10.46" cy="5.00" r="0.04" />
<circle cx="10.56" cy="7.00" r="0.04" />
<circle cx="10.65" cy="7.00" r="0.04" />
<circle cx="10.75" cy="2.00" r="0.04" />
<circle cx="10.85" cy="8.00" r="0.04" />
<circle cx="10.95" cy="6.00" r="0.04" />
<circle cx="11.04" cy="6.00" r="0.04" />
<circle cx="11.14" cy="10.00" r="0.04" />
<circle cx="11.24" cy="4.00" r="0.04" />
<circle cx="11.34" cy="8.00" r="0.04" />
<circle cx="11.43" cy="8.00" r="0.04" />
<circle cx="11.53" cy="4.00" r="0.04" />
<circle cx="11.63" cy="10.00" r="0.04" />
<circle cx="11.73" cy="6.00" r="0.04" />
<circle cx="11.83" cy="6.00" r="0.04" />
<circle cx="11.92" cy="8.00" r="0.04" />
<circle cx="12.02" cy="2.00" r="0.04" />
<circle cx="12.12" cy="7.00" r="0.04" />
<circle cx="12.22" cy="7.00" r="0.04" />
<circle cx="12.31" cy="5.00" r="0.04" />
<circle cx="12.41" cy="10.00" r="0.04" />
<circle cx="12.51" cy="5.00" r="0.04" />
<circle cx="12.61" cy="8.00" r="0.04" />
<circle cx="12.71" cy="8.00" r="0.04" />
<circle cx="12.80" cy="3.00" r="0.04" />
<circle cx="12.90" cy="9.00" r="0.04" />
<circle cx="13.00" cy="6.00" r="0.04" />
<circle cx="13.10" cy="6.00" r="0.04" />
<circle cx="13.19" cy="9.00" r="0.04" />
<circle cx="13.29" cy="3.00" r="0.04" />
<circle cx="13.39" cy="7.00" r="0.04" />
<circle cx="13.49" cy="7.00" r="0.04" />
<circle cx="13.58" cy="4.00" r="0.04" />
<circle cx="13.68" cy="8.00" r="0.04" />
<circle cx="13.78" cy="4.00" r="0.04" />
<circle cx="13.88" cy="5.00" r="0.04" />
<circle cx="13.98" cy="5.00" r="0.04" />
<circle cx="14.07" cy="1.00" r="0.04" />
<circle cx="14.17" cy="6.00" r="0.04" />
<circle cx="14.27" cy="5.00" r="0.04" />
<circle cx="14.37" cy="5.00" r="0.04" />
<circle cx="14.46" cy="9.00" r="0.04" />
<circle cx="14.56" cy="4.00" r="0.04" />
<circle cx="14.66" cy="8.00" r="0.04" />
</g>
</svg>