<svg xmlns="http://www.w3.org/2000/svg" width="161.8" height="100.0" viewBox="-3.4 -5.0 171.8 110.0">
<g fill="none" stroke="black" stroke-width="0.4002%" transform="translate(0, 100.0000) scale(1.2494, -1.2494)">
<circle cx="1.3" cy="0.0" r="0.4" />
<circle cx="2.6" cy="0.7" r="0.4" />
<circle cx="3.9" cy="1.1" r="0.4" />
<circle cx="5.2" cy="2.1" r="0.4" />
<circle cx="6.5" cy="1.6" r="0.4" />
<circle cx="7.8" cy="5.0" r="0.4" />
<circle cx="9.2" cy="3.0" r="0.4" />
<circle cx="10.5" cy="2.1" r="0.4" />
<circle cx="11.8" cy="5.0" r="0.4" />
<circle cx="13.1" cy="6.4" r="0.4" />
<circle cx="14.4" cy="4.0" r="0.4" />
<circle cx="15.7" cy="5.0" r="0.4" />
<circle cx="17.0" cy="2.6" r="0.4" />
<circle cx="18.3" cy="10.7" r="0.4" />
<circle cx="19.6" cy="8.8" r="0.4" />
<circle cx="20.9" cy="5.0" r="0.4" />
<circle cx="22.2" cy="3.5" r="0.4" />
<circle cx="23.5" cy="5.0" r="0.4" />
<circle cx="24.9" cy="7.9" r="0.4" />
<circle cx="26.2" cy="13.6" r="0.4" />
<circle cx="27.5" cy="3.0" r="0.4" />
<circle cx="28.8" cy="13.6" r="0.4" />
<circle cx="30.1" cy="10.7" r="0.4" />
<circle cx="31.4" cy="5.0" r="0.4" />
<circle cx="32.7" cy="11.2" r="0.4" />
<circle cx="34.0" cy="9.3" r="0.4" />
<circle cx="35.3" cy="16.5" r="0.4" />
<circle cx="36.6" cy="10.7" r="0.4" />
<circle cx="37.9" cy="5.9" r="0.4" />
<circle cx="39.2" cy="28.1" r="0.4" />
<circle cx="40.6" cy="13.6" r="0.4" />
<circle cx="41.9" cy="10.7" r="0.4" />
<circle cx="43.2" cy="8.8" r="0.4" />
<circle cx="44.5" cy="3.5" r="0.4" />
<circle cx="45.8" cy="18.4" r="0.4" />
<circle cx="47.1" cy="5.0" r="0.4" />
<circle cx="48.4" cy="8.3" r="0.4" />
<circle cx="49.7" cy="7.9" r="0.4" />
<circle cx="51.0" cy="12.7" r="0.4" />
<circle cx="52.3" cy="13.6" r="0.4" />
<circle cx="53.6" cy="8.8" r="0.4" />
<circle cx="54.9" cy="10.7" r="0.4" />
<circle cx="56.2" cy="20.4" r="0.4" />
<circle cx="57.6" cy="13.6" r="0.4" />
<circle cx="58.9" cy="28.1" r="0.4" />
<circle cx="60.2" cy="10.7" r="0.4" />
<circle cx="61.5" cy="6.9" r="0.4" />
<circle cx="62.8" cy="5.0" r="0.4" />
<circle cx="64.1" cy="26.1" r="0.4" />
<circle cx="65.4" cy="35.3" r="0.4" />
<circle cx="66.7" cy="16.5" r="0.4" />
<circle cx="68.0" cy="19.4" r="0.4" />
<circle cx="69.3" cy="12.2" r="0.4" />
<circle cx="70.6" cy="16.5" r="0.4" />
<circle cx="71.9" cy="4.0" r="0.4" />
<circle cx="73.3" cy="10.7" r="0.4" />
<circle cx="74.6" cy="16.5" r="0.4" />
<circle cx="75.9" cy="19.4" r="0.4" />
<circle cx="77.2" cy="27.1" r="0.4" />
<circle cx="78.5" cy="28.1" r="0.4" />
<circle cx="79.8" cy="6.4" r="0.4" />
<circle cx="81.1" cy="13.6" r="0.4" />
<circle cx="82.4" cy="10.7" r="0.4" />
<circle cx="83.7" cy="22.3" r="0.4" />
<circle cx="85.0" cy="16.0" r="0.4" />
<circle cx="86.3" cy="28.1" r="0.4" />
<circle cx="87.6" cy="31.9" r="0.4" />
<circle cx="89.0" cy="7.9" r="0.4" />
<circle cx="90.3" cy="10.7" r="0.4" />
<circle cx="91.6" cy="56.9" r="0.4" />
<circle cx="92.9" cy="32.9" r="0.4" />
<circle cx="94.2" cy="5.0" r="0.4" />
<circle cx="95.5" cy="17.0" r="0.4" />
<circle cx="96.8" cy="26.6" r="0.4" />
<circle cx="98.1" cy="47.3" r="0.4" />
<circle cx="99.4" cy="7.9" r="0.4" />
<circle cx="100.7" cy="18.4" r="0.4" />
<circle cx="102.0" cy="39.6" r="0.4" />
<circle cx="103.3" cy="36.7" r="0.4" />
<circle cx="104.7" cy="28.1" r="0.4" />
<circle cx="106.0" cy="51.2" r="0.4" />
<circle cx="107.3" cy="28.1" r="0.4" />
<circle cx="108.6" cy="39.6" r="0.4" />
<circle cx="109.9" cy="10.7" r="0.4" />
<circle cx="111.2" cy="20.8" r="0.4" />
<circle cx="112.5" cy="62.7" r="0.4" />
<circle cx="113.8" cy="12.7" r="0.4" />
<circle cx="115.1" cy="13.6" r="0.4" />
<circle cx="116.4" cy="4.5" r="0.4" />
<circle cx="117.7" cy="28.1" r="0.4" />
<circle cx="119.0" cy="26.1" r="0.4" />
<circle cx="120.3" cy="10.7" r="0.4" />
<circle cx="121.7" cy="28.1" r="0.4" />
<circle cx="123.0" cy="22.3" r="0.4" />
<circle cx="124.3" cy="42.5" r="0.4" />
<circle cx="125.6" cy="10.7" r="0.4" />
<circle cx="126.9" cy="22.8" r="0.4" />
<circle cx="128.2" cy="80.0" r="0.4" />
<circle cx="129.5" cy="28.1" r="0.4" />
<circle cx="130.8" cy="71.4" r="0.4" />
</g>
</svg>