<svg xmlns="http://www.w3.org/2000/svg" width="161.8" height="100.0" viewBox="-1.56 -5.00 171.80 110.00">
<g fill="none" stroke="black" stroke-width="0.0650%" transform="translate(0, 100.0000) scale(7.6923, -7.6923)">

<line x1="0.90" y1="0.00" x2="0.90" y2="1.00" />
<line x1="1.34" y1="0.00" x2="1.34" y2="1.00" />
<line x1="1.79" y1="0.00" x2="1.79" y2="2.00" />
<line x1="2.24" y1="0.00" x2="2.24" y2="3.00" />
<line x1="2.69" y1="0.00" x2="2.69" y2="5.00" />
<line x1="3.13" y1="0.00" x2="3.13" y2="8.00" />
<line x1="3.58" y1="0.00" x2="3.58" y2="13.00" />
<line x1="4.03" y1="0.00" x2="4.03" y2="7.00" />
<line x1="4.48" y1="0.00" x2="4.48" y2="6.00" />
<line x1="4.92" y1="0.00" x2="4.92" y2="13.00" />
<line x1="5.37" y1="0.00" x2="5.37" y2="5.00" />
<line x1="5.82" y1="0.00" x2="5.82" y2="4.00" />
<line x1="6.27" y1="0.00" x2="6.27" y2="9.00" />
<line x1="6.71" y1="0.00" x2="6.71" y2="13.00" />
<line x1="7.16" y1="0.00" x2="7.16" y2="8.00" />
<line x1="7.61" y1="0.00" x2="7.61" y2="7.00" />
<line x1="8.06" y1="0.00" x2="8.06" y2="1.00" />
<line x1="8.50" y1="0.00" x2="8.50" y2="8.00" />
<line x1="8.95" y1="0.00" x2="8.95" y2="9.00" />
<line x1="9.40" y1="0.00" x2="9.40" y2="3.00" />
<line x1="9.85" y1="0.00" x2="9.85" y2="12.00" />
<line x1="10.29" y1="0.00" x2="10.29" y2="1.00" />
<line x1="10.74" y1="0.00" x2="10.74" y2="13.00" />

<line x1="11.64" y1="0.00" x2="11.64" y2="13.00" />
<line x1="12.08" y1="0.00" x2="12.08" y2="13.00" />
<line x1="12.53" y1="0.00" x2="12.53" y2="12.00" />
<line x1="12.98" y1="0.00" x2="12.98" y2="11.00" />
<line x1="13.43" y1="0.00" x2="13.43" y2="9.00" />
<line x1="13.87" y1="0.00" x2="13.87" y2="6.00" />
<line x1="14.32" y1="0.00" x2="14.32" y2="1.00" />
<line x1="14.77" y1="0.00" x2="14.77" y2="7.00" />
<line x1="15.22" y1="0.00" x2="15.22" y2="8.00" />
<line x1="15.66" y1="0.00" x2="15.66" y2="1.00" />
<line x1="16.11" y1="0.00" x2="16.11" y2="9.00" />
<line x1="16.56" y1="0.00" x2="16.56" y2="10.00" />
<line x1="17.01" y1="0.00" x2="17.01" y2="5.00" />
<line x1="17.45" y1="0.00" x2="17.45" y2="1.00" />
<line x1="17.90" y1="0.00" x2="17.90" y2="6.00" />
<line x1="18.35" y1="0.00" x2="18.35" y2="7.00" />
<line x1="18.80" y1="0.00" x2="18.80" y2="13.00" />
<line x1="19.24" y1="0.00" x2="19.24" y2="6.00" />
<line x1="19.69" y1="0.00" x2="19.69" y2="5.00" />
<line x1="20.14" y1="0.00" x2="20.14" y2="11.00" />
<line x1="20.59" y1="0.00" x2="20.59" y2="2.00" />
<line x1="21.03" y1="0.00" x2="21.03" y2="13.00" />
<line x1="21.48" y1="0.00" x2="21.48" y2="1.00" />
</g>
</svg>