<svg xmlns="http://www.w3.org/2000/svg" width="161.8" height="100.0" viewBox="-1.56 -5.00 171.80 110.00">
<g fill="none" stroke="black" stroke-width="0.0550%" transform="translate(0, 100.0000) scale(9.0909, -9.0909)">

<line x1="0.76" y1="0.00" x2="0.76" y2="1.00" />
<line x1="1.14" y1="0.00" x2="1.14" y2="1.00" />
<line x1="1.51" y1="0.00" x2="1.51" y2="2.00" />
<line x1="1.89" y1="0.00" x2="1.89" y2="3.00" />
<line x1="2.27" y1="0.00" x2="2.27" y2="5.00" />
<line x1="2.65" y1="0.00" x2="2.65" y2="8.00" />
<line x1="3.03" y1="0.00" x2="3.03" y2="1.00" />
<line x1="3.41" y1="0.00" x2="3.41" y2="9.00" />
<line x1="3.79" y1="0.00" x2="3.79" y2="10.00" />
<line x1="4.17" y1="0.00" x2="4.17" y2="7.00" />
<line x1="4.54" y1="0.00" x2="4.54" y2="5.00" />

<line x1="5.30" y1="0.00" x2="5.30" y2="5.00" />
<line x1="5.68" y1="0.00" x2="5.68" y2="5.00" />
<line x1="6.06" y1="0.00" x2="6.06" y2="10.00" />
<line x1="6.44" y1="0.00" x2="6.44" y2="3.00" />
<line x1="6.82" y1="0.00" x2="6.82" y2="1.00" />
<line x1="7.20" y1="0.00" x2="7.20" y2="4.00" />
<line x1="7.57" y1="0.00" x2="7.57" y2="5.00" />
<line x1="7.95" y1="0.00" x2="7.95" y2="9.00" />
<line x1="8.33" y1="0.00" x2="8.33" y2="2.00" />
<line x1="8.71" y1="0.00" x2="8.71" y2="11.00" />
<line x1="9.09" y1="0.00" x2="9.09" y2="1.00" />

<line x1="9.85" y1="0.00" x2="9.85" y2="1.00" />
<line x1="10.22" y1="0.00" x2="10.22" y2="1.00" />
<line x1="10.60" y1="0.00" x2="10.60" y2="2.00" />
<line x1="10.98" y1="0.00" x2="10.98" y2="3.00" />
<line x1="11.36" y1="0.00" x2="11.36" y2="5.00" />
<line x1="11.74" y1="0.00" x2="11.74" y2="8.00" />
<line x1="12.12" y1="0.00" x2="12.12" y2="1.00" />
<line x1="12.50" y1="0.00" x2="12.50" y2="9.00" />
<line x1="12.88" y1="0.00" x2="12.88" y2="10.00" />
<line x1="13.25" y1="0.00" x2="13.25" y2="7.00" />
<line x1="13.63" y1="0.00" x2="13.63" y2="5.00" />

<line x1="14.39" y1="0.00" x2="14.39" y2="5.00" />
<line x1="14.77" y1="0.00" x2="14.77" y2="5.00" />
<line x1="15.15" y1="0.00" x2="15.15" y2="10.00" />
<line x1="15.53" y1="0.00" x2="15.53" y2="3.00" />
<line x1="15.90" y1="0.00" x2="15.90" y2="1.00" />
<line x1="16.28" y1="0.00" x2="16.28" y2="4.00" />
<line x1="16.66" y1="0.00" x2="16.66" y2="5.00" />
<line x1="17.04" y1="0.00" x2="17.04" y2="9.00" />
<line x1="17.42" y1="0.00" x2="17.42" y2="2.00" />
<line x1="17.80" y1="0.00" x2="17.80" y2="11.00" />
<line x1="18.18" y1="0.00" x2="18.18" y2="1.00" />
</g>
</svg>