<svg xmlns="http://www.w3.org/2000/svg" width="161.8" height="100.0" viewBox="-2.9 -5.0 171.8 110.0">
<g fill="none" stroke="black" stroke-width="0.4450%" transform="translate(0, 100.0000) scale(1.1236, -1.1236)">


<line x1="5.6" y1="0.0" x2="5.6" y2="1.0" />

<line x1="9.4" y1="0.0" x2="9.4" y2="1.0" />
<line x1="11.2" y1="0.0" x2="11.2" y2="1.0" />

<line x1="15.0" y1="0.0" x2="15.0" y2="1.0" />
<line x1="16.8" y1="0.0" x2="16.8" y2="2.0" />
<line x1="18.7" y1="0.0" x2="18.7" y2="2.0" />

<line x1="22.4" y1="0.0" x2="22.4" y2="1.0" />
<line x1="24.3" y1="0.0" x2="24.3" y2="3.0" />
<line x1="26.2" y1="0.0" x2="26.2" y2="3.0" />
<line x1="28.1" y1="0.0" x2="28.1" y2="3.0" />

<line x1="31.8" y1="0.0" x2="31.8" y2="1.0" />
<line x1="33.7" y1="0.0" x2="33.7" y2="4.0" />
<line x1="35.5" y1="0.0" x2="35.5" y2="4.0" />
<line x1="37.4" y1="0.0" x2="37.4" y2="5.0" />
<line x1="39.3" y1="0.0" x2="39.3" y2="5.0" />

<line x1="43.0" y1="0.0" x2="43.0" y2="1.0" />
<line x1="44.9" y1="0.0" x2="44.9" y2="5.0" />
<line x1="46.8" y1="0.0" x2="46.8" y2="5.0" />
<line x1="48.6" y1="0.0" x2="48.6" y2="7.0" />
<line x1="50.5" y1="0.0" x2="50.5" y2="8.0" />
<line x1="52.4" y1="0.0" x2="52.4" y2="8.0" />

<line x1="56.1" y1="0.0" x2="56.1" y2="1.0" />
<line x1="58.0" y1="0.0" x2="58.0" y2="6.0" />
<line x1="59.8" y1="0.0" x2="59.8" y2="6.0" />
<line x1="61.7" y1="0.0" x2="61.7" y2="9.0" />
<line x1="63.6" y1="0.0" x2="63.6" y2="11.0" />
<line x1="65.5" y1="0.0" x2="65.5" y2="13.0" />
<line x1="67.3" y1="0.0" x2="67.3" y2="13.0" />

<line x1="71.1" y1="0.0" x2="71.1" y2="1.0" />
<line x1="72.9" y1="0.0" x2="72.9" y2="7.0" />
<line x1="74.8" y1="0.0" x2="74.8" y2="7.0" />
<line x1="76.7" y1="0.0" x2="76.7" y2="11.0" />
<line x1="78.5" y1="0.0" x2="78.5" y2="14.0" />
<line x1="80.4" y1="0.0" x2="80.4" y2="18.0" />
<line x1="82.3" y1="0.0" x2="82.3" y2="21.0" />
<line x1="84.2" y1="0.0" x2="84.2" y2="21.0" />

<line x1="87.9" y1="0.0" x2="87.9" y2="1.0" />
<line x1="89.8" y1="0.0" x2="89.8" y2="8.0" />
<line x1="91.6" y1="0.0" x2="91.6" y2="8.0" />
<line x1="93.5" y1="0.0" x2="93.5" y2="13.0" />
<line x1="95.4" y1="0.0" x2="95.4" y2="17.0" />
<line x1="97.3" y1="0.0" x2="97.3" y2="23.0" />
<line x1="99.1" y1="0.0" x2="99.1" y2="29.0" />
<line x1="101.0" y1="0.0" x2="101.0" y2="34.0" />
<line x1="102.9" y1="0.0" x2="102.9" y2="34.0" />

<line x1="106.6" y1="0.0" x2="106.6" y2="1.0" />
<line x1="108.5" y1="0.0" x2="108.5" y2="9.0" />
<line x1="110.3" y1="0.0" x2="110.3" y2="9.0" />
<line x1="112.2" y1="0.0" x2="112.2" y2="15.0" />
<line x1="114.1" y1="0.0" x2="114.1" y2="20.0" />
<line x1="116.0" y1="0.0" x2="116.0" y2="28.0" />
<line x1="117.8" y1="0.0" x2="117.8" y2="37.0" />
<line x1="119.7" y1="0.0" x2="119.7" y2="47.0" />
<line x1="121.6" y1="0.0" x2="121.6" y2="55.0" />
<line x1="123.4" y1="0.0" x2="123.4" y2="55.0" />

<line x1="127.2" y1="0.0" x2="127.2" y2="1.0" />
<line x1="129.0" y1="0.0" x2="129.0" y2="10.0" />
<line x1="130.9" y1="0.0" x2="130.9" y2="10.0" />
<line x1="132.8" y1="0.0" x2="132.8" y2="17.0" />
<line x1="134.7" y1="0.0" x2="134.7" y2="23.0" />
<line x1="136.5" y1="0.0" x2="136.5" y2="33.0" />
<line x1="138.4" y1="0.0" x2="138.4" y2="45.0" />
<line x1="140.3" y1="0.0" x2="140.3" y2="60.0" />
<line x1="142.1" y1="0.0" x2="142.1" y2="76.0" />
<line x1="144.0" y1="0.0" x2="144.0" y2="89.0" />
<line x1="145.9" y1="0.0" x2="145.9" y2="89.0" />
</g>
</svg>