<svg xmlns="http://www.w3.org/2000/svg" width="161.8" height="100.0" viewBox="-4.2 -5.0 171.8 110.0">
<g fill="none" stroke="black" stroke-width="0.9200%" transform="translate(0, 100.0000) scale(0.5435, -0.5435)">
<circle cx="1.5" cy="0.0" r="0.9" />
<polyline points="1.5,0.0 3.0,1.0 4.5,2.0 6.0,3.0 7.5,0.0 9.0,2.0 10.5,6.0 12.0,5.0 13.5,7.0 15.0,5.0 16.5,1.0 18.0,0.0 19.4,12.0 20.9,13.0 22.4,10.0 23.9,11.0 25.4,16.0 26.9,10.0 28.4,1.0 29.9,5.0 31.4,5.0 32.9,1.0 34.4,22.0 35.9,0.0 37.4,0.0 38.9,25.0 40.4,20.0 41.9,11.0 43.4,1.0 44.9,20.0 46.4,1.0 47.9,5.0 49.4,13.0 50.9,33.0 52.4,30.0 53.9,0.0 55.4,36.0 56.9,1.0 58.3,37.0 59.8,35.0 61.3,1.0 62.8,34.0 64.3,42.0 65.8,25.0 67.3,20.0 68.8,45.0 70.3,46.0 71.8,0.0 73.3,36.0 74.8,25.0 76.3,32.0 77.8,23.0 79.3,52.0 80.8,8.0 82.3,5.0 83.8,21.0 85.3,40.0 86.8,1.0 88.3,1.0 89.8,0.0 91.3,1.0 92.8,1.0 94.3,43.0 95.7,59.0 97.2,60.0 98.7,52.0 100.2,66.0 101.7,65.0 103.2,44.0 104.7,14.9 106.2,0.9 107.7,0.0 109.2,72.0 110.7,73.3 112.2,50.3 113.7,3.5 115.2,3.0 116.7,46.0 118.2,6.0 119.7,20.0 121.2,29.0 122.7,34.0 124.2,54.0 125.7,0.0 127.2,56.0 128.7,8.0 130.2,69.0 131.7,0.0 133.2,53.0 134.6,54.0 136.1,55.0 137.6,0.0 139.1,86.0 140.6,60.0 142.1,36.0 143.6,64.0 145.1,78.0 146.6,52.0 148.1,55.0 149.6,0.0 151.1,84.0 152.6,64.0 154.1,64.0 155.6,72.0 157.1,2.0 158.6,66.0 160.1,40.0 161.6,36.0 163.1,94.0 164.6,10.0 166.1,44.0 167.6,0.0 169.1,112.0 170.6,0.0 172.0,32.0 173.5,92.0 175.0,57.0 176.5,54.0 178.0,12.0 179.5,80.0 181.0,86.0 182.5,110.0 184.0,46.0 185.5,40.0 187.0,85.0 188.5,14.0 190.0,95.0 191.5,0.0 193.0,39.0 194.5,124.0 196.0,11.0 197.5,36.0 199.0,107.0 200.5,80.0 202.0,39.0 203.5,8.0 205.0,48.0 206.5,52.0 208.0,68.0 209.5,100.0 210.9,103.0 212.4,136.0 213.9,0.0 215.4,48.0 216.9,28.0 218.4,42.0 219.9,41.0 221.4,84.0 222.9,70.0 224.4,18.0 225.9,51.0 227.4,56.0 228.9,68.0 230.4,56.0 231.9,123.0 233.4,76.0 234.9,73.0 236.4,8.0 237.9,38.0 239.4,64.0 240.9,86.0 242.4,98.0 243.9,145.0 245.4,4.0 246.9,125.0 248.3,28.0 249.8,105.0 251.3,104.0 252.8,161.0 254.3,160.0 255.8,4.0 257.3,120.0 258.8,170.0 260.3,26.0 261.8,140.0 263.3,16.0 264.8,96.0 266.3,88.0 267.8,78.0 269.3,16.0 270.8,156.0 272.3,140.0 273.8,26.0 275.3,64.0 276.8,85.0 278.3,152.0 279.8,10.0 281.3,156.0 282.8,152.0 284.3,128.0 285.7,157.0 287.2,128.0 288.7,73.0 290.2,58.0 291.7,86.0 293.2,36.0 294.7,146.0 296.2,184.0 297.7,72.0 299.2,96.0" />
</g>
</svg>