<svg xmlns="http://www.w3.org/2000/svg" width="161.8" height="100.0" viewBox="-0.38 -5.00 171.80 110.00">
<g fill="none" stroke="black" stroke-width="0.0300%" transform="translate(0, 100.0000) scale(16.6667, -16.6667)">

<line x1="0.55" y1="0.00" x2="0.55" y2="1.00" />
<line x1="0.83" y1="0.00" x2="0.83" y2="1.00" />
<line x1="1.11" y1="0.00" x2="1.11" y2="2.00" />
<line x1="1.39" y1="0.00" x2="1.39" y2="3.00" />
<line x1="1.66" y1="0.00" x2="1.66" y2="5.00" />
<line x1="1.94" y1="0.00" x2="1.94" y2="1.00" />
<line x1="2.22" y1="0.00" x2="2.22" y2="6.00" />

<line x1="2.77" y1="0.00" x2="2.77" y2="6.00" />
<line x1="3.05" y1="0.00" x2="3.05" y2="6.00" />
<line x1="3.33" y1="0.00" x2="3.33" y2="5.00" />
<line x1="3.61" y1="0.00" x2="3.61" y2="4.00" />
<line x1="3.88" y1="0.00" x2="3.88" y2="2.00" />
<line x1="4.16" y1="0.00" x2="4.16" y2="6.00" />
<line x1="4.44" y1="0.00" x2="4.44" y2="1.00" />

<line x1="4.99" y1="0.00" x2="4.99" y2="1.00" />
<line x1="5.27" y1="0.00" x2="5.27" y2="1.00" />
<line x1="5.55" y1="0.00" x2="5.55" y2="2.00" />
<line x1="5.82" y1="0.00" x2="5.82" y2="3.00" />
<line x1="6.10" y1="0.00" x2="6.10" y2="5.00" />
<line x1="6.38" y1="0.00" x2="6.38" y2="1.00" />
<line x1="6.66" y1="0.00" x2="6.66" y2="6.00" />

<line x1="7.21" y1="0.00" x2="7.21" y2="6.00" />
<line x1="7.49" y1="0.00" x2="7.49" y2="6.00" />
<line x1="7.77" y1="0.00" x2="7.77" y2="5.00" />
<line x1="8.04" y1="0.00" x2="8.04" y2="4.00" />
<line x1="8.32" y1="0.00" x2="8.32" y2="2.00" />
<line x1="8.60" y1="0.00" x2="8.60" y2="6.00" />
<line x1="8.88" y1="0.00" x2="8.88" y2="1.00" />

<line x1="9.43" y1="0.00" x2="9.43" y2="1.00" />
<line x1="9.71" y1="0.00" x2="9.71" y2="1.00" />
<line x1="9.99" y1="0.00" x2="9.99" y2="2.00" />
</g>
</svg>