<svg xmlns="http://www.w3.org/2000/svg" width="161.8" height="100.0" viewBox="-85.902 0.725 171.803 110.000">
<g fill="none" stroke="black" stroke-width="0.0027%" transform="translate(0, 111.4507) scale(185.5496, -185.5496)">
<polyline points="-0.436,0.031 -0.427,0.032 -0.419,0.033 -0.410,0.034 -0.401,0.035 -0.392,0.036 -0.384,0.037 -0.375,0.038 -0.366,0.040 -0.358,0.041 -0.349,0.043 -0.340,0.044 -0.331,0.046 -0.323,0.048 -0.314,0.049 -0.305,0.051 -0.296,0.054 -0.288,0.056 -0.279,0.058 -0.270,0.061 -0.262,0.064 -0.253,0.067 -0.244,0.070 -0.235,0.074 -0.227,0.077 -0.218,0.081 -0.209,0.086 -0.201,0.091 -0.192,0.096 -0.183,0.102 -0.174,0.109 -0.166,0.116 -0.157,0.124 -0.148,0.132 -0.140,0.142 -0.131,0.153 -0.122,0.165 -0.113,0.178 -0.105,0.193 -0.096,0.209 -0.087,0.228 -0.078,0.248 -0.070,0.271 -0.061,0.296 -0.052,0.323 -0.044,0.352 -0.035,0.382 -0.026,0.413 -0.017,0.444 -0.009,0.473 -0.000,0.500 0.009,0.523 0.017,0.541 0.026,0.555 0.035,0.564 0.044,0.569 0.052,0.570 0.061,0.568 0.070,0.563 0.078,0.557 0.087,0.549 0.096,0.541 0.105,0.532 0.113,0.523 0.122,0.513 0.131,0.504 0.140,0.495 0.148,0.486 0.157,0.477 0.166,0.468 0.174,0.460 0.183,0.452 0.192,0.445 0.201,0.437 0.209,0.430 0.218,0.423 0.227,0.417 0.235,0.410 0.244,0.404 0.253,0.398 0.262,0.393 0.270,0.387 0.279,0.382 0.288,0.377 0.296,0.372 0.305,0.367 0.314,0.362 0.323,0.358 0.331,0.354 0.340,0.350 0.349,0.346 0.358,0.342 0.366,0.338 0.375,0.334 0.384,0.331 0.392,0.327 0.401,0.324 0.410,0.321 0.419,0.318 0.427,0.315 0.436,0.312" />
</g>
</svg>