<svg xmlns="http://www.w3.org/2000/svg" width="101.5" height="100.0" viewBox="-4.0 -5.0 111.5 110.0">
<g fill="none" stroke="black" stroke-width="0.9800%" transform="translate(0, 100.0000) scale(0.5102, -0.5102)">
<circle cx="2.0" cy="0.0" r="1.0" />
<circle cx="3.0" cy="1.0" r="1.0" />
<circle cx="4.0" cy="2.0" r="1.0" />
<circle cx="5.0" cy="3.0" r="1.0" />
<circle cx="6.0" cy="0.0" r="1.0" />
<circle cx="7.0" cy="2.0" r="1.0" />
<circle cx="8.0" cy="6.0" r="1.0" />
<circle cx="9.0" cy="5.0" r="1.0" />
<circle cx="10.0" cy="7.0" r="1.0" />
<circle cx="11.0" cy="5.0" r="1.0" />
<circle cx="12.0" cy="1.0" r="1.0" />
<circle cx="13.0" cy="0.0" r="1.0" />
<circle cx="14.0" cy="12.0" r="1.0" />
<circle cx="15.0" cy="13.0" r="1.0" />
<circle cx="16.0" cy="10.0" r="1.0" />
<circle cx="17.0" cy="11.0" r="1.0" />
<circle cx="18.0" cy="16.0" r="1.0" />
<circle cx="19.0" cy="10.0" r="1.0" />
<circle cx="20.0" cy="1.0" r="1.0" />
<circle cx="21.0" cy="5.0" r="1.0" />
<circle cx="22.0" cy="5.0" r="1.0" />
<circle cx="23.0" cy="1.0" r="1.0" />
<circle cx="24.0" cy="22.0" r="1.0" />
<circle cx="25.0" cy="0.0" r="1.0" />
<circle cx="26.0" cy="0.0" r="1.0" />
<circle cx="27.0" cy="25.0" r="1.0" />
<circle cx="28.0" cy="20.0" r="1.0" />
<circle cx="29.0" cy="11.0" r="1.0" />
<circle cx="30.0" cy="1.0" r="1.0" />
<circle cx="31.0" cy="20.0" r="1.0" />
<circle cx="32.0" cy="1.0" r="1.0" />
<circle cx="33.0" cy="5.0" r="1.0" />
<circle cx="34.0" cy="13.0" r="1.0" />
<circle cx="35.0" cy="33.0" r="1.0" />
<circle cx="36.0" cy="30.0" r="1.0" />
<circle cx="37.0" cy="0.0" r="1.0" />
<circle cx="38.0" cy="36.0" r="1.0" />
<circle cx="39.0" cy="1.0" r="1.0" />
<circle cx="40.0" cy="37.0" r="1.0" />
<circle cx="41.0" cy="35.0" r="1.0" />
<circle cx="42.0" cy="1.0" r="1.0" />
<circle cx="43.0" cy="34.0" r="1.0" />
<circle cx="44.0" cy="42.0" r="1.0" />
<circle cx="45.0" cy="25.0" r="1.0" />
<circle cx="46.0" cy="20.0" r="1.0" />
<circle cx="47.0" cy="45.0" r="1.0" />
<circle cx="48.0" cy="46.0" r="1.0" />
<circle cx="49.0" cy="0.0" r="1.0" />
<circle cx="50.0" cy="36.0" r="1.0" />
<circle cx="51.0" cy="25.0" r="1.0" />
<circle cx="52.0" cy="32.0" r="1.0" />
<circle cx="53.0" cy="23.0" r="1.0" />
<circle cx="54.0" cy="52.0" r="1.0" />
<circle cx="55.0" cy="8.0" r="1.0" />
<circle cx="56.0" cy="5.0" r="1.0" />
<circle cx="57.0" cy="21.0" r="1.0" />
<circle cx="58.0" cy="40.0" r="1.0" />
<circle cx="59.0" cy="1.0" r="1.0" />
<circle cx="60.0" cy="1.0" r="1.0" />
<circle cx="61.0" cy="0.0" r="1.0" />
<circle cx="62.0" cy="1.0" r="1.0" />
<circle cx="63.0" cy="1.0" r="1.0" />
<circle cx="64.0" cy="43.0" r="1.0" />
<circle cx="65.0" cy="59.0" r="1.0" />
<circle cx="66.0" cy="60.0" r="1.0" />
<circle cx="67.0" cy="52.0" r="1.0" />
<circle cx="68.0" cy="66.0" r="1.0" />
<circle cx="69.0" cy="65.0" r="1.0" />
<circle cx="70.0" cy="44.0" r="1.0" />
<circle cx="71.0" cy="15.0" r="1.0" />
<circle cx="72.0" cy="1.0" r="1.0" />
<circle cx="73.0" cy="0.0" r="1.0" />
<circle cx="74.0" cy="72.0" r="1.0" />
<circle cx="75.0" cy="73.0" r="1.0" />
<circle cx="76.0" cy="50.0" r="1.0" />
<circle cx="77.0" cy="3.0" r="1.0" />
<circle cx="78.0" cy="2.0" r="1.0" />
<circle cx="79.0" cy="44.0" r="1.0" />
<circle cx="80.0" cy="1.0" r="1.0" />
<circle cx="81.0" cy="5.0" r="1.0" />
<circle cx="82.0" cy="7.0" r="1.0" />
<circle cx="83.0" cy="1.0" r="1.0" />
<circle cx="84.0" cy="82.0" r="1.0" />
<circle cx="85.0" cy="24.0" r="1.0" />
<circle cx="86.0" cy="80.0" r="1.0" />
<circle cx="87.0" cy="85.0" r="1.0" />
<circle cx="88.0" cy="31.0" r="1.0" />
<circle cx="89.0" cy="43.0" r="1.0" />
<circle cx="90.0" cy="1.0" r="1.0" />
<circle cx="91.0" cy="10.0" r="1.0" />
<circle cx="92.0" cy="26.0" r="1.0" />
<circle cx="93.0" cy="89.0" r="1.0" />
<circle cx="94.0" cy="2.0" r="1.0" />
<circle cx="95.0" cy="93.0" r="1.0" />
<circle cx="96.0" cy="5.0" r="1.0" />
<circle cx="97.0" cy="0.0" r="1.0" />
<circle cx="98.0" cy="96.0" r="1.0" />
<circle cx="99.0" cy="15.0" r="1.0" />
<circle cx="100.0" cy="56.0" r="1.0" />
<circle cx="101.0" cy="75.0" r="1.0" />
<circle cx="102.0" cy="1.0" r="1.0" />
<circle cx="103.0" cy="26.0" r="1.0" />
<circle cx="104.0" cy="102.0" r="1.0" />
<circle cx="105.0" cy="5.0" r="1.0" />
<circle cx="106.0" cy="55.0" r="1.0" />
<circle cx="107.0" cy="105.0" r="1.0" />
<circle cx="108.0" cy="106.0" r="1.0" />
<circle cx="109.0" cy="0.0" r="1.0" />
<circle cx="110.0" cy="1.0" r="1.0" />
<circle cx="111.0" cy="55.0" r="1.0" />
<circle cx="112.0" cy="109.0" r="1.0" />
<circle cx="113.0" cy="91.0" r="1.0" />
<circle cx="114.0" cy="112.0" r="1.0" />
<circle cx="115.0" cy="46.0" r="1.0" />
<circle cx="116.0" cy="110.0" r="1.0" />
<circle cx="117.0" cy="61.0" r="1.0" />
<circle cx="118.0" cy="83.0" r="1.0" />
<circle cx="119.0" cy="1.0" r="1.0" />
<circle cx="120.0" cy="55.0" r="1.0" />
<circle cx="121.0" cy="0.0" r="1.0" />
<circle cx="122.0" cy="89.0" r="1.0" />
<circle cx="123.0" cy="1.0" r="1.0" />
<circle cx="124.0" cy="2.0" r="1.0" />
<circle cx="125.0" cy="3.0" r="1.0" />
<circle cx="126.0" cy="0.0" r="1.0" />
<circle cx="127.0" cy="62.0" r="1.0" />
<circle cx="128.0" cy="126.0" r="1.0" />
<circle cx="129.0" cy="69.0" r="1.0" />
<circle cx="130.0" cy="127.0" r="1.0" />
<circle cx="131.0" cy="75.0" r="1.0" />
<circle cx="132.0" cy="1.0" r="1.0" />
<circle cx="133.0" cy="12.0" r="1.0" />
<circle cx="134.0" cy="89.0" r="1.0" />
<circle cx="135.0" cy="133.0" r="1.0" />
<circle cx="136.0" cy="115.0" r="1.0" />
<circle cx="137.0" cy="115.0" r="1.0" />
<circle cx="138.0" cy="136.0" r="1.0" />
<circle cx="139.0" cy="130.0" r="1.0" />
<circle cx="140.0" cy="1.0" r="1.0" />
<circle cx="141.0" cy="25.0" r="1.0" />
<circle cx="142.0" cy="92.0" r="1.0" />
<circle cx="143.0" cy="1.0" r="1.0" />
<circle cx="144.0" cy="2.0" r="1.0" />
<circle cx="145.0" cy="0.0" r="1.0" />
<circle cx="146.0" cy="5.0" r="1.0" />
<circle cx="147.0" cy="145.0" r="1.0" />
<circle cx="148.0" cy="128.0" r="1.0" />
<circle cx="149.0" cy="71.0" r="1.0" />
<circle cx="150.0" cy="1.0" r="1.0" />
<circle cx="151.0" cy="50.0" r="1.0" />
<circle cx="152.0" cy="1.0" r="1.0" />
<circle cx="153.0" cy="21.0" r="1.0" />
<circle cx="154.0" cy="34.0" r="1.0" />
<circle cx="155.0" cy="69.0" r="1.0" />
<circle cx="156.0" cy="5.0" r="1.0" />
<circle cx="157.0" cy="12.0" r="1.0" />
<circle cx="158.0" cy="156.0" r="1.0" />
<circle cx="159.0" cy="1.0" r="1.0" />
<circle cx="160.0" cy="157.0" r="1.0" />
<circle cx="161.0" cy="155.0" r="1.0" />
<circle cx="162.0" cy="148.0" r="1.0" />
<circle cx="163.0" cy="154.0" r="1.0" />
<circle cx="164.0" cy="162.0" r="1.0" />
<circle cx="165.0" cy="85.0" r="1.0" />
<circle cx="166.0" cy="5.0" r="1.0" />
<circle cx="167.0" cy="165.0" r="1.0" />
<circle cx="168.0" cy="166.0" r="1.0" />
<circle cx="169.0" cy="0.0" r="1.0" />
<circle cx="170.0" cy="105.0" r="1.0" />
<circle cx="171.0" cy="115.0" r="1.0" />
<circle cx="172.0" cy="110.0" r="1.0" />
<circle cx="173.0" cy="83.0" r="1.0" />
<circle cx="174.0" cy="172.0" r="1.0" />
<circle cx="175.0" cy="8.0" r="1.0" />
<circle cx="176.0" cy="50.0" r="1.0" />
<circle cx="177.0" cy="85.0" r="1.0" />
<circle cx="178.0" cy="61.0" r="1.0" />
<circle cx="179.0" cy="1.0" r="1.0" />
<circle cx="180.0" cy="1.0" r="1.0" />
<circle cx="181.0" cy="0.0" r="1.0" />
<circle cx="182.0" cy="1.0" r="1.0" />
<circle cx="183.0" cy="169.0" r="1.0" />
<circle cx="184.0" cy="124.0" r="1.0" />
<circle cx="185.0" cy="163.0" r="1.0" />
<circle cx="186.0" cy="180.0" r="1.0" />
<circle cx="187.0" cy="70.0" r="1.0" />
<circle cx="188.0" cy="13.0" r="1.0" />
<circle cx="189.0" cy="185.0" r="1.0" />
<circle cx="190.0" cy="128.0" r="1.0" />
<circle cx="191.0" cy="55.0" r="1.0" />
<circle cx="192.0" cy="1.0" r="1.0" />
<circle cx="193.0" cy="0.0" r="1.0" />
<circle cx="194.0" cy="192.0" r="1.0" />
<circle cx="195.0" cy="193.0" r="1.0" />
<circle cx="196.0" cy="170.0" r="1.0" />
<circle cx="197.0" cy="3.0" r="1.0" />
<circle cx="198.0" cy="196.0" r="1.0" />
<circle cx="199.0" cy="98.0" r="1.0" />
<circle cx="200.0" cy="1.0" r="1.0" />
<circle cx="201.0" cy="125.0" r="1.0" />
</g>
</svg>