<svg xmlns="http://www.w3.org/2000/svg" width="161.8" height="100.0" viewBox="-3.1 -5.0 171.8 110.0">
<g fill="none" stroke="black" stroke-width="0.4900%" transform="translate(0, 100.0000) scale(1.0204, -1.0204)">

<line x1="3.7" y1="0.0" x2="3.7" y2="1.0" />
<line x1="5.6" y1="0.0" x2="5.6" y2="1.0" />
<line x1="7.5" y1="0.0" x2="7.5" y2="2.0" />
<line x1="9.3" y1="0.0" x2="9.3" y2="3.0" />
<line x1="11.2" y1="0.0" x2="11.2" y2="5.0" />
<line x1="13.1" y1="0.0" x2="13.1" y2="8.0" />
<line x1="14.9" y1="0.0" x2="14.9" y2="4.0" />
<line x1="16.8" y1="0.0" x2="16.8" y2="3.0" />
<line x1="18.7" y1="0.0" x2="18.7" y2="7.0" />
<line x1="20.5" y1="0.0" x2="20.5" y2="10.0" />
<line x1="22.4" y1="0.0" x2="22.4" y2="17.0" />
<line x1="24.3" y1="0.0" x2="24.3" y2="9.0" />
<line x1="26.1" y1="0.0" x2="26.1" y2="8.0" />
<line x1="28.0" y1="0.0" x2="28.0" y2="17.0" />
<line x1="29.8" y1="0.0" x2="29.8" y2="7.0" />
<line x1="31.7" y1="0.0" x2="31.7" y2="24.0" />
<line x1="33.6" y1="0.0" x2="33.6" y2="22.0" />
<line x1="35.4" y1="0.0" x2="35.4" y2="19.0" />
<line x1="37.3" y1="0.0" x2="37.3" y2="14.0" />
<line x1="39.2" y1="0.0" x2="39.2" y2="24.0" />
<line x1="41.0" y1="0.0" x2="41.0" y2="20.0" />
<line x1="42.9" y1="0.0" x2="42.9" y2="17.0" />
<line x1="44.8" y1="0.0" x2="44.8" y2="28.0" />
<line x1="46.6" y1="0.0" x2="46.6" y2="27.0" />
<line x1="48.5" y1="0.0" x2="48.5" y2="19.0" />
<line x1="50.4" y1="0.0" x2="50.4" y2="19.0" />
<line x1="52.2" y1="0.0" x2="52.2" y2="29.0" />
<line x1="54.1" y1="0.0" x2="54.1" y2="21.0" />
<line x1="56.0" y1="0.0" x2="56.0" y2="23.0" />
<line x1="57.8" y1="0.0" x2="57.8" y2="17.0" />
<line x1="59.7" y1="0.0" x2="59.7" y2="31.0" />
<line x1="61.6" y1="0.0" x2="61.6" y2="30.0" />
<line x1="63.4" y1="0.0" x2="63.4" y2="34.0" />
<line x1="65.3" y1="0.0" x2="65.3" y2="37.0" />
<line x1="67.2" y1="0.0" x2="67.2" y2="35.0" />
<line x1="69.0" y1="0.0" x2="69.0" y2="27.0" />
<line x1="70.9" y1="0.0" x2="70.9" y2="35.0" />
<line x1="72.8" y1="0.0" x2="72.8" y2="44.0" />
<line x1="74.6" y1="0.0" x2="74.6" y2="43.0" />
<line x1="76.5" y1="0.0" x2="76.5" y2="24.0" />
<line x1="78.4" y1="0.0" x2="78.4" y2="31.0" />
<line x1="80.2" y1="0.0" x2="80.2" y2="46.0" />
<line x1="82.1" y1="0.0" x2="82.1" y2="41.0" />
<line x1="83.9" y1="0.0" x2="83.9" y2="33.0" />
<line x1="85.8" y1="0.0" x2="85.8" y2="29.0" />
<line x1="87.7" y1="0.0" x2="87.7" y2="35.0" />
<line x1="89.5" y1="0.0" x2="89.5" y2="37.0" />
<line x1="91.4" y1="0.0" x2="91.4" y2="54.0" />
<line x1="93.3" y1="0.0" x2="93.3" y2="55.0" />
<line x1="95.1" y1="0.0" x2="95.1" y2="46.0" />
<line x1="97.0" y1="0.0" x2="97.0" y2="29.0" />
<line x1="98.9" y1="0.0" x2="98.9" y2="48.0" />
<line x1="100.7" y1="0.0" x2="100.7" y2="41.0" />
<line x1="102.6" y1="0.0" x2="102.6" y2="53.0" />
<line x1="104.5" y1="0.0" x2="104.5" y2="58.0" />
<line x1="106.3" y1="0.0" x2="106.3" y2="48.0" />
<line x1="108.2" y1="0.0" x2="108.2" y2="52.0" />
<line x1="110.1" y1="0.0" x2="110.1" y2="73.0" />
<line x1="111.9" y1="0.0" x2="111.9" y2="44.0" />
<line x1="113.8" y1="0.0" x2="113.8" y2="54.0" />
<line x1="115.7" y1="0.0" x2="115.7" y2="53.0" />
<line x1="117.5" y1="0.0" x2="117.5" y2="62.0" />
<line x1="119.4" y1="0.0" x2="119.4" y2="61.0" />
<line x1="121.3" y1="0.0" x2="121.3" y2="51.0" />
<line x1="123.1" y1="0.0" x2="123.1" y2="67.0" />
<line x1="125.0" y1="0.0" x2="125.0" y2="73.0" />
<line x1="126.9" y1="0.0" x2="126.9" y2="59.0" />
<line x1="128.7" y1="0.0" x2="128.7" y2="51.0" />
<line x1="130.6" y1="0.0" x2="130.6" y2="65.0" />
<line x1="132.5" y1="0.0" x2="132.5" y2="62.0" />
<line x1="134.3" y1="0.0" x2="134.3" y2="46.0" />
<line x1="136.2" y1="0.0" x2="136.2" y2="72.0" />
<line x1="138.0" y1="0.0" x2="138.0" y2="64.0" />
<line x1="139.9" y1="0.0" x2="139.9" y2="82.0" />
<line x1="141.8" y1="0.0" x2="141.8" y2="65.0" />
<line x1="143.6" y1="0.0" x2="143.6" y2="66.0" />
<line x1="145.5" y1="0.0" x2="145.5" y2="86.0" />
<line x1="147.4" y1="0.0" x2="147.4" y2="80.0" />
<line x1="149.2" y1="0.0" x2="149.2" y2="58.0" />
<line x1="151.1" y1="0.0" x2="151.1" y2="84.0" />
<line x1="153.0" y1="0.0" x2="153.0" y2="79.0" />
<line x1="154.8" y1="0.0" x2="154.8" y2="64.0" />
<line x1="156.7" y1="0.0" x2="156.7" y2="98.0" />
<line x1="158.6" y1="0.0" x2="158.6" y2="72.0" />
<line x1="160.4" y1="0.0" x2="160.4" y2="89.0" />
</g>
</svg>