<svg xmlns="http://www.w3.org/2000/svg" width="161.8" height="100.0" viewBox="0.39 -5.00 171.80 110.00">
<g fill="none" stroke="black" stroke-width="0.0750%" transform="translate(0, 100.0000) scale(6.6667, -6.6667)">
<circle cx="0.81" cy="0.00" r="0.07" />

<line x1="1.62" y1="0.00" x2="1.62" y2="1.00" />
<line x1="2.43" y1="0.00" x2="2.43" y2="1.00" />
<line x1="3.24" y1="0.00" x2="3.24" y2="1.00" />
<line x1="4.05" y1="0.00" x2="4.05" y2="2.00" />
<line x1="4.85" y1="0.00" x2="4.85" y2="1.00" />
<line x1="5.66" y1="0.00" x2="5.66" y2="2.00" />
<line x1="6.47" y1="0.00" x2="6.47" y2="1.00" />
<line x1="7.28" y1="0.00" x2="7.28" y2="5.00" />
<line x1="8.09" y1="0.00" x2="8.09" y2="2.00" />
<line x1="8.90" y1="0.00" x2="8.90" y2="2.00" />
<line x1="9.71" y1="0.00" x2="9.71" y2="1.00" />
<line x1="10.52" y1="0.00" x2="10.52" y2="5.00" />
<line x1="11.33" y1="0.00" x2="11.33" y2="1.00" />
<line x1="12.14" y1="0.00" x2="12.14" y2="2.00" />
<line x1="12.94" y1="0.00" x2="12.94" y2="1.00" />
<line x1="13.75" y1="0.00" x2="13.75" y2="14.00" />
<line x1="14.56" y1="0.00" x2="14.56" y2="1.00" />
<line x1="15.37" y1="0.00" x2="15.37" y2="5.00" />
<line x1="16.18" y1="0.00" x2="16.18" y2="1.00" />
<line x1="16.99" y1="0.00" x2="16.99" y2="5.00" />
<line x1="17.80" y1="0.00" x2="17.80" y2="2.00" />
<line x1="18.61" y1="0.00" x2="18.61" y2="2.00" />
<line x1="19.42" y1="0.00" x2="19.42" y2="1.00" />
<line x1="20.23" y1="0.00" x2="20.23" y2="15.00" />
<line x1="21.03" y1="0.00" x2="21.03" y2="2.00" />
<line x1="21.84" y1="0.00" x2="21.84" y2="2.00" />
<line x1="22.65" y1="0.00" x2="22.65" y2="5.00" />
<line x1="23.46" y1="0.00" x2="23.46" y2="4.00" />
<line x1="24.27" y1="0.00" x2="24.27" y2="1.00" />
<line x1="25.08" y1="0.00" x2="25.08" y2="4.00" />
</g>
</svg>