<svg xmlns="http://www.w3.org/2000/svg" width="161.8" height="100.0" viewBox="0.00 -5.00 171.80 110.00">
<g fill="none" stroke="black" stroke-width="0.0387%" transform="translate(0, 100.0000) scale(12.9094, -12.9094)">
<circle cx="0.39" cy="0.00" r="0.04" />
<circle cx="0.39" cy="0.00" r="0.04" />
<circle cx="0.52" cy="0.69" r="0.04" />
<circle cx="0.65" cy="0.00" r="0.04" />
<circle cx="0.78" cy="1.10" r="0.04" />
<circle cx="0.90" cy="0.00" r="0.04" />
<circle cx="1.03" cy="2.20" r="0.04" />
<circle cx="1.16" cy="1.10" r="0.04" />
<circle cx="1.29" cy="1.10" r="0.04" />
<circle cx="1.36" cy="0.00" r="0.04" />
<circle cx="1.42" cy="0.00" r="0.04" />
<circle cx="1.55" cy="2.48" r="0.04" />
<circle cx="1.68" cy="0.00" r="0.04" />
<circle cx="1.74" cy="0.69" r="0.04" />
<circle cx="1.81" cy="0.69" r="0.04" />
<circle cx="1.94" cy="1.10" r="0.04" />
<circle cx="2.07" cy="3.78" r="0.04" />
<circle cx="2.20" cy="0.00" r="0.04" />
<circle cx="2.33" cy="2.30" r="0.04" />
<circle cx="2.46" cy="0.00" r="0.04" />
<circle cx="2.52" cy="0.00" r="0.04" />
<circle cx="2.58" cy="2.40" r="0.04" />
<circle cx="2.71" cy="1.61" r="0.04" />
<circle cx="2.84" cy="0.69" r="0.04" />
<circle cx="2.97" cy="0.00" r="0.04" />
<circle cx="3.10" cy="3.85" r="0.04" />
<circle cx="3.23" cy="1.10" r="0.04" />
<circle cx="3.36" cy="1.10" r="0.04" />
<circle cx="3.49" cy="2.48" r="0.04" />
<circle cx="3.55" cy="0.00" r="0.04" />
<circle cx="3.62" cy="2.30" r="0.04" />
<circle cx="3.68" cy="0.00" r="0.04" />
<circle cx="3.75" cy="0.00" r="0.04" />
<circle cx="3.88" cy="2.40" r="0.04" />
<circle cx="4.01" cy="0.00" r="0.04" />
<circle cx="4.07" cy="0.69" r="0.04" />
<circle cx="4.13" cy="5.55" r="0.04" />
<circle cx="4.26" cy="1.10" r="0.04" />
<circle cx="4.39" cy="1.10" r="0.04" />
<circle cx="4.52" cy="1.10" r="0.04" />
<circle cx="4.65" cy="3.78" r="0.04" />
<circle cx="4.78" cy="0.00" r="0.04" />
<circle cx="4.85" cy="0.00" r="0.04" />
<circle cx="4.91" cy="0.69" r="0.04" />
<circle cx="5.04" cy="1.61" r="0.04" />
<circle cx="5.17" cy="3.85" r="0.04" />
<circle cx="5.23" cy="2.30" r="0.04" />
<circle cx="5.30" cy="0.00" r="0.04" />
<circle cx="5.43" cy="2.56" r="0.04" />
<circle cx="5.56" cy="0.00" r="0.04" />
<circle cx="5.69" cy="2.20" r="0.04" />
<circle cx="5.81" cy="2.08" r="0.04" />
<circle cx="5.94" cy="0.69" r="0.04" />
<circle cx="6.01" cy="0.00" r="0.04" />
<circle cx="6.07" cy="0.00" r="0.04" />
<circle cx="6.20" cy="5.41" r="0.04" />
<circle cx="6.33" cy="1.10" r="0.04" />
<circle cx="6.46" cy="2.48" r="0.04" />
<circle cx="6.59" cy="1.10" r="0.04" />
<circle cx="6.72" cy="2.40" r="0.04" />
<circle cx="6.78" cy="0.00" r="0.04" />
<circle cx="6.85" cy="0.00" r="0.04" />
<circle cx="6.98" cy="3.66" r="0.04" />
<circle cx="7.11" cy="1.61" r="0.04" />
<circle cx="7.17" cy="0.00" r="0.04" />
<circle cx="7.24" cy="3.64" r="0.04" />
<circle cx="7.37" cy="1.61" r="0.04" />
<circle cx="7.49" cy="1.10" r="0.04" />
<circle cx="7.56" cy="0.69" r="0.04" />
<circle cx="7.62" cy="0.00" r="0.04" />
<circle cx="7.75" cy="3.78" r="0.04" />
<circle cx="7.88" cy="0.00" r="0.04" />
<circle cx="8.01" cy="0.69" r="0.04" />
<circle cx="8.08" cy="0.69" r="0.04" />
<circle cx="8.14" cy="2.64" r="0.04" />
<circle cx="8.27" cy="7.75" r="0.04" />
<circle cx="8.33" cy="0.00" r="0.04" />
<circle cx="8.40" cy="1.10" r="0.04" />
<circle cx="8.53" cy="2.08" r="0.04" />
<circle cx="8.66" cy="0.00" r="0.04" />
<circle cx="8.72" cy="0.69" r="0.04" />
<circle cx="8.79" cy="2.48" r="0.04" />
<circle cx="8.92" cy="1.10" r="0.04" />
<circle cx="9.04" cy="2.20" r="0.04" />
<circle cx="9.17" cy="0.00" r="0.04" />
<circle cx="9.30" cy="5.23" r="0.04" />
<circle cx="9.43" cy="0.00" r="0.04" />
<circle cx="9.50" cy="1.39" r="0.04" />
<circle cx="9.56" cy="1.10" r="0.04" />
<circle cx="9.69" cy="2.40" r="0.04" />
<circle cx="9.82" cy="2.20" r="0.04" />
<circle cx="9.95" cy="1.10" r="0.04" />
<circle cx="10.01" cy="0.00" r="0.04" />
<circle cx="10.08" cy="2.77" r="0.04" />
<circle cx="10.21" cy="0.00" r="0.04" />
<circle cx="10.34" cy="5.44" r="0.04" />
<circle cx="10.47" cy="3.91" r="0.04" />
<circle cx="10.60" cy="1.10" r="0.04" />
<circle cx="10.66" cy="0.00" r="0.04" />
<circle cx="10.72" cy="0.00" r="0.04" />
<circle cx="10.85" cy="3.99" r="0.04" />
<circle cx="10.98" cy="1.10" r="0.04" />
<circle cx="11.05" cy="1.10" r="0.04" />
<circle cx="11.11" cy="0.69" r="0.04" />
<circle cx="11.24" cy="1.10" r="0.04" />
<circle cx="11.37" cy="3.61" r="0.04" />
<circle cx="11.50" cy="0.00" r="0.04" />
<circle cx="11.63" cy="3.50" r="0.04" />
<circle cx="11.76" cy="1.10" r="0.04" />
<circle cx="11.82" cy="0.00" r="0.04" />
<circle cx="11.89" cy="2.20" r="0.04" />
<circle cx="12.02" cy="1.61" r="0.04" />
<circle cx="12.15" cy="0.69" r="0.04" />
<circle cx="12.21" cy="2.30" r="0.04" />
<circle cx="12.28" cy="1.10" r="0.04" />
<circle cx="12.40" cy="7.33" r="0.04" />
<circle cx="12.53" cy="0.00" r="0.04" />
<circle cx="12.60" cy="0.00" r="0.04" />
<circle cx="12.66" cy="2.08" r="0.04" />
<circle cx="12.79" cy="2.08" r="0.04" />
<circle cx="12.92" cy="3.83" r="0.04" />
</g>
</svg>