<svg xmlns="http://www.w3.org/2000/svg" width="161.8" height="100.0" viewBox="-4.3502 993.6547 171.8034 110.0000">
<g fill="none" stroke="black" stroke-width="0.0004%" transform="translate(0, 2097.3094) scale(1334.0807, -1334.0807)">
<circle cx="0.0005" cy="0.8182" r="0.0004" />
<circle cx="0.0010" cy="0.7500" r="0.0004" />
<circle cx="0.0015" cy="0.7692" r="0.0004" />
<circle cx="0.0019" cy="0.7857" r="0.0004" />
<circle cx="0.0024" cy="0.8000" r="0.0004" />
<circle cx="0.0029" cy="0.8125" r="0.0004" />
<circle cx="0.0034" cy="0.8235" r="0.0004" />
<circle cx="0.0039" cy="0.7778" r="0.0004" />
<circle cx="0.0044" cy="0.7895" r="0.0004" />
<circle cx="0.0049" cy="0.7500" r="0.0004" />
<circle cx="0.0054" cy="0.7619" r="0.0004" />
<circle cx="0.0058" cy="0.7727" r="0.0004" />
<circle cx="0.0063" cy="0.7826" r="0.0004" />
<circle cx="0.0068" cy="0.7917" r="0.0004" />
<circle cx="0.0073" cy="0.7600" r="0.0004" />
<circle cx="0.0078" cy="0.7692" r="0.0004" />
<circle cx="0.0083" cy="0.7778" r="0.0004" />
<circle cx="0.0088" cy="0.7500" r="0.0004" />
<circle cx="0.0093" cy="0.7586" r="0.0004" />
<circle cx="0.0097" cy="0.7667" r="0.0004" />
<circle cx="0.0102" cy="0.7742" r="0.0004" />
<circle cx="0.0107" cy="0.7813" r="0.0004" />
<circle cx="0.0112" cy="0.7879" r="0.0004" />
<circle cx="0.0117" cy="0.7941" r="0.0004" />
<circle cx="0.0122" cy="0.8000" r="0.0004" />
<circle cx="0.0127" cy="0.7778" r="0.0004" />
<circle cx="0.0132" cy="0.7838" r="0.0004" />
<circle cx="0.0136" cy="0.7895" r="0.0004" />
<circle cx="0.0141" cy="0.7949" r="0.0004" />
<circle cx="0.0146" cy="0.8000" r="0.0004" />
<circle cx="0.0151" cy="0.8049" r="0.0004" />
<circle cx="0.0156" cy="0.8095" r="0.0004" />
<circle cx="0.0161" cy="0.8140" r="0.0004" />
<circle cx="0.0166" cy="0.7955" r="0.0004" />
<circle cx="0.0170" cy="0.7778" r="0.0004" />
<circle cx="0.0175" cy="0.7826" r="0.0004" />
<circle cx="0.0180" cy="0.7872" r="0.0004" />
<circle cx="0.0185" cy="0.7917" r="0.0004" />
<circle cx="0.0190" cy="0.7755" r="0.0004" />
<circle cx="0.0195" cy="0.7600" r="0.0004" />
<circle cx="0.0200" cy="0.7647" r="0.0004" />
<circle cx="0.0205" cy="0.7500" r="0.0004" />
<circle cx="0.0209" cy="0.7547" r="0.0004" />
<circle cx="0.0214" cy="0.7593" r="0.0004" />
<circle cx="0.0219" cy="0.7636" r="0.0004" />
<circle cx="0.0224" cy="0.7679" r="0.0004" />
<circle cx="0.0229" cy="0.7719" r="0.0004" />
<circle cx="0.0234" cy="0.7759" r="0.0004" />
<circle cx="0.0239" cy="0.7797" r="0.0004" />
<circle cx="0.0244" cy="0.7667" r="0.0004" />
<circle cx="0.0248" cy="0.7705" r="0.0004" />
<circle cx="0.0253" cy="0.7742" r="0.0004" />
<circle cx="0.0258" cy="0.7619" r="0.0004" />
<circle cx="0.0263" cy="0.7656" r="0.0004" />
<circle cx="0.0268" cy="0.7692" r="0.0004" />
<circle cx="0.0273" cy="0.7727" r="0.0004" />
<circle cx="0.0278" cy="0.7761" r="0.0004" />
<circle cx="0.0283" cy="0.7647" r="0.0004" />
<circle cx="0.0287" cy="0.7681" r="0.0004" />
<circle cx="0.0292" cy="0.7714" r="0.0004" />
<circle cx="0.0297" cy="0.7746" r="0.0004" />
<circle cx="0.0302" cy="0.7639" r="0.0004" />
<circle cx="0.0307" cy="0.7671" r="0.0004" />
<circle cx="0.0312" cy="0.7703" r="0.0004" />
<circle cx="0.0317" cy="0.7600" r="0.0004" />
<circle cx="0.0321" cy="0.7500" r="0.0004" />
<circle cx="0.0326" cy="0.7532" r="0.0004" />
<circle cx="0.0331" cy="0.7564" r="0.0004" />
<circle cx="0.0336" cy="0.7595" r="0.0004" />
<circle cx="0.0341" cy="0.7625" r="0.0004" />
<circle cx="0.0346" cy="0.7654" r="0.0004" />
<circle cx="0.0351" cy="0.7683" r="0.0004" />
<circle cx="0.0356" cy="0.7711" r="0.0004" />
<circle cx="0.0360" cy="0.7619" r="0.0004" />
<circle cx="0.0365" cy="0.7647" r="0.0004" />
<circle cx="0.0370" cy="0.7674" r="0.0004" />
<circle cx="0.0375" cy="0.7701" r="0.0004" />
<circle cx="0.0380" cy="0.7727" r="0.0004" />
<circle cx="0.0385" cy="0.7753" r="0.0004" />
<circle cx="0.0390" cy="0.7667" r="0.0004" />
<circle cx="0.0395" cy="0.7692" r="0.0004" />
<circle cx="0.0399" cy="0.7609" r="0.0004" />
<circle cx="0.0404" cy="0.7634" r="0.0004" />
<circle cx="0.0409" cy="0.7660" r="0.0004" />
<circle cx="0.0414" cy="0.7684" r="0.0004" />
<circle cx="0.0419" cy="0.7708" r="0.0004" />
<circle cx="0.0424" cy="0.7732" r="0.0004" />
<circle cx="0.0429" cy="0.7653" r="0.0004" />
<circle cx="0.0434" cy="0.7576" r="0.0004" />
<circle cx="0.0438" cy="0.7500" r="0.0004" />
<circle cx="0.0443" cy="0.7525" r="0.0004" />
<circle cx="0.0448" cy="0.7549" r="0.0004" />
<circle cx="0.0453" cy="0.7573" r="0.0004" />
<circle cx="0.0458" cy="0.7596" r="0.0004" />
<circle cx="0.0463" cy="0.7619" r="0.0004" />
<circle cx="0.0468" cy="0.7642" r="0.0004" />
<circle cx="0.0472" cy="0.7664" r="0.0004" />
<circle cx="0.0477" cy="0.7593" r="0.0004" />
<circle cx="0.0482" cy="0.7615" r="0.0004" />
<circle cx="0.0487" cy="0.7636" r="0.0004" />
<circle cx="0.0492" cy="0.7658" r="0.0004" />
<circle cx="0.0497" cy="0.7679" r="0.0004" />
<circle cx="0.0502" cy="0.7699" r="0.0004" />
<circle cx="0.0507" cy="0.7719" r="0.0004" />
<circle cx="0.0511" cy="0.7739" r="0.0004" />
<circle cx="0.0516" cy="0.7672" r="0.0004" />
<circle cx="0.0521" cy="0.7607" r="0.0004" />
<circle cx="0.0526" cy="0.7627" r="0.0004" />
<circle cx="0.0531" cy="0.7647" r="0.0004" />
<circle cx="0.0536" cy="0.7667" r="0.0004" />
<circle cx="0.0541" cy="0.7603" r="0.0004" />
<circle cx="0.0546" cy="0.7623" r="0.0004" />
<circle cx="0.0550" cy="0.7642" r="0.0004" />
<circle cx="0.0555" cy="0.7581" r="0.0004" />
<circle cx="0.0560" cy="0.7600" r="0.0004" />
<circle cx="0.0565" cy="0.7540" r="0.0004" />
<circle cx="0.0570" cy="0.7559" r="0.0004" />
<circle cx="0.0575" cy="0.7578" r="0.0004" />
<circle cx="0.0580" cy="0.7597" r="0.0004" />
<circle cx="0.0585" cy="0.7615" r="0.0004" />
<circle cx="0.0589" cy="0.7634" r="0.0004" />
<circle cx="0.0594" cy="0.7576" r="0.0004" />
<circle cx="0.0599" cy="0.7594" r="0.0004" />
<circle cx="0.0604" cy="0.7612" r="0.0004" />
<circle cx="0.0609" cy="0.7630" r="0.0004" />
<circle cx="0.0614" cy="0.7647" r="0.0004" />
<circle cx="0.0619" cy="0.7664" r="0.0004" />
<circle cx="0.0623" cy="0.7681" r="0.0004" />
<circle cx="0.0628" cy="0.7698" r="0.0004" />
<circle cx="0.0633" cy="0.7643" r="0.0004" />
<circle cx="0.0638" cy="0.7660" r="0.0004" />
<circle cx="0.0643" cy="0.7676" r="0.0004" />
<circle cx="0.0648" cy="0.7692" r="0.0004" />
<circle cx="0.0653" cy="0.7639" r="0.0004" />
<circle cx="0.0658" cy="0.7655" r="0.0004" />
<circle cx="0.0662" cy="0.7671" r="0.0004" />
<circle cx="0.0667" cy="0.7619" r="0.0004" />
<circle cx="0.0672" cy="0.7568" r="0.0004" />
<circle cx="0.0677" cy="0.7584" r="0.0004" />
<circle cx="0.0682" cy="0.7533" r="0.0004" />
<circle cx="0.0687" cy="0.7550" r="0.0004" />
<circle cx="0.0692" cy="0.7566" r="0.0004" />
<circle cx="0.0697" cy="0.7516" r="0.0004" />
<circle cx="0.0701" cy="0.7532" r="0.0004" />
<circle cx="0.0706" cy="0.7548" r="0.0004" />
<circle cx="0.0711" cy="0.7500" r="0.0004" />
<circle cx="0.0716" cy="0.7516" r="0.0004" />
<circle cx="0.0721" cy="0.7532" r="0.0004" />
<circle cx="0.0726" cy="0.7547" r="0.0004" />
<circle cx="0.0731" cy="0.7562" r="0.0004" />
<circle cx="0.0736" cy="0.7578" r="0.0004" />
<circle cx="0.0740" cy="0.7593" r="0.0004" />
<circle cx="0.0745" cy="0.7607" r="0.0004" />
<circle cx="0.0750" cy="0.7561" r="0.0004" />
<circle cx="0.0755" cy="0.7576" r="0.0004" />
<circle cx="0.0760" cy="0.7590" r="0.0004" />
<circle cx="0.0765" cy="0.7605" r="0.0004" />
<circle cx="0.0770" cy="0.7619" r="0.0004" />
<circle cx="0.0774" cy="0.7574" r="0.0004" />
<circle cx="0.0779" cy="0.7588" r="0.0004" />
<circle cx="0.0784" cy="0.7544" r="0.0004" />
<circle cx="0.0789" cy="0.7500" r="0.0004" />
<circle cx="0.0794" cy="0.7514" r="0.0004" />
<circle cx="0.0799" cy="0.7529" r="0.0004" />
<circle cx="0.0804" cy="0.7486" r="0.0004" />
<circle cx="0.0809" cy="0.7500" r="0.0004" />
<circle cx="0.0813" cy="0.7514" r="0.0004" />
<circle cx="0.0818" cy="0.7528" r="0.0004" />
<circle cx="0.0823" cy="0.7542" r="0.0004" />
<circle cx="0.0828" cy="0.7500" r="0.0004" />
<circle cx="0.0833" cy="0.7514" r="0.0004" />
<circle cx="0.0838" cy="0.7527" r="0.0004" />
<circle cx="0.0843" cy="0.7541" r="0.0004" />
<circle cx="0.0848" cy="0.7554" r="0.0004" />
<circle cx="0.0852" cy="0.7568" r="0.0004" />
<circle cx="0.0857" cy="0.7581" r="0.0004" />
<circle cx="0.0862" cy="0.7594" r="0.0004" />
<circle cx="0.0867" cy="0.7553" r="0.0004" />
<circle cx="0.0872" cy="0.7566" r="0.0004" />
<circle cx="0.0877" cy="0.7579" r="0.0004" />
<circle cx="0.0882" cy="0.7592" r="0.0004" />
<circle cx="0.0886" cy="0.7604" r="0.0004" />
<circle cx="0.0891" cy="0.7617" r="0.0004" />
<circle cx="0.0896" cy="0.7629" r="0.0004" />
<circle cx="0.0901" cy="0.7641" r="0.0004" />
<circle cx="0.0906" cy="0.7602" r="0.0004" />
<circle cx="0.0911" cy="0.7614" r="0.0004" />
<circle cx="0.0916" cy="0.7576" r="0.0004" />
<circle cx="0.0921" cy="0.7588" r="0.0004" />
<circle cx="0.0925" cy="0.7550" r="0.0004" />
<circle cx="0.0930" cy="0.7562" r="0.0004" />
<circle cx="0.0935" cy="0.7574" r="0.0004" />
<circle cx="0.0940" cy="0.7586" r="0.0004" />
<circle cx="0.0945" cy="0.7549" r="0.0004" />
<circle cx="0.0950" cy="0.7561" r="0.0004" />
<circle cx="0.0955" cy="0.7573" r="0.0004" />
<circle cx="0.0960" cy="0.7536" r="0.0004" />
<circle cx="0.0964" cy="0.7548" r="0.0004" />
<circle cx="0.0969" cy="0.7560" r="0.0004" />
<circle cx="0.0974" cy="0.7571" r="0.0004" />
<circle cx="0.0979" cy="0.7583" r="0.0004" />
<circle cx="0.0984" cy="0.7547" r="0.0004" />
<circle cx="0.0989" cy="0.7559" r="0.0004" />
<circle cx="0.0994" cy="0.7570" r="0.0004" />
<circle cx="0.0999" cy="0.7581" r="0.0004" />
<circle cx="0.1003" cy="0.7593" r="0.0004" />
<circle cx="0.1008" cy="0.7604" r="0.0004" />
<circle cx="0.1013" cy="0.7615" r="0.0004" />
<circle cx="0.1018" cy="0.7626" r="0.0004" />
<circle cx="0.1023" cy="0.7591" r="0.0004" />
<circle cx="0.1028" cy="0.7602" r="0.0004" />
<circle cx="0.1033" cy="0.7613" r="0.0004" />
<circle cx="0.1037" cy="0.7623" r="0.0004" />
<circle cx="0.1042" cy="0.7634" r="0.0004" />
<circle cx="0.1047" cy="0.7600" r="0.0004" />
<circle cx="0.1052" cy="0.7611" r="0.0004" />
<circle cx="0.1057" cy="0.7621" r="0.0004" />
<circle cx="0.1062" cy="0.7588" r="0.0004" />
<circle cx="0.1067" cy="0.7598" r="0.0004" />
<circle cx="0.1072" cy="0.7609" r="0.0004" />
<circle cx="0.1076" cy="0.7619" r="0.0004" />
<circle cx="0.1081" cy="0.7629" r="0.0004" />
<circle cx="0.1086" cy="0.7639" r="0.0004" />
<circle cx="0.1091" cy="0.7607" r="0.0004" />
<circle cx="0.1096" cy="0.7617" r="0.0004" />
<circle cx="0.1101" cy="0.7585" r="0.0004" />
<circle cx="0.1106" cy="0.7595" r="0.0004" />
<circle cx="0.1111" cy="0.7605" r="0.0004" />
<circle cx="0.1115" cy="0.7615" r="0.0004" />
<circle cx="0.1120" cy="0.7625" r="0.0004" />
<circle cx="0.1125" cy="0.7635" r="0.0004" />
<circle cx="0.1130" cy="0.7603" r="0.0004" />
<circle cx="0.1135" cy="0.7613" r="0.0004" />
<circle cx="0.1140" cy="0.7582" r="0.0004" />
<circle cx="0.1145" cy="0.7551" r="0.0004" />
<circle cx="0.1150" cy="0.7561" r="0.0004" />
<circle cx="0.1154" cy="0.7571" r="0.0004" />
<circle cx="0.1159" cy="0.7581" r="0.0004" />
<circle cx="0.1164" cy="0.7590" r="0.0004" />
<circle cx="0.1169" cy="0.7600" r="0.0004" />
<circle cx="0.1174" cy="0.7610" r="0.0004" />
<circle cx="0.1179" cy="0.7579" r="0.0004" />
<circle cx="0.1184" cy="0.7589" r="0.0004" />
<circle cx="0.1188" cy="0.7598" r="0.0004" />
<circle cx="0.1193" cy="0.7608" r="0.0004" />
<circle cx="0.1198" cy="0.7578" r="0.0004" />
<circle cx="0.1203" cy="0.7588" r="0.0004" />
<circle cx="0.1208" cy="0.7597" r="0.0004" />
<circle cx="0.1213" cy="0.7606" r="0.0004" />
<circle cx="0.1218" cy="0.7577" r="0.0004" />
</g>
</svg>