<svg xmlns="http://www.w3.org/2000/svg" width="161.8" height="100.0" viewBox="-3.70 5.00 171.80 110.00">
<g fill="none" stroke="black" stroke-width="0.0500%" transform="translate(0, 120.0000) scale(10.0000, -10.0000)">
<circle cx="0.13" cy="1.00" r="0.05" />
<circle cx="0.26" cy="1.00" r="0.05" />
<circle cx="0.39" cy="1.00" r="0.05" />
<circle cx="0.52" cy="2.00" r="0.05" />
<circle cx="0.65" cy="1.00" r="0.05" />
<circle cx="0.78" cy="1.00" r="0.05" />
<circle cx="0.91" cy="1.00" r="0.05" />
<circle cx="1.04" cy="3.00" r="0.05" />
<circle cx="1.17" cy="2.00" r="0.05" />
<circle cx="1.30" cy="1.00" r="0.05" />
<circle cx="1.44" cy="1.00" r="0.05" />
<circle cx="1.57" cy="2.00" r="0.05" />
<circle cx="1.70" cy="1.00" r="0.05" />
<circle cx="1.83" cy="1.00" r="0.05" />
<circle cx="1.96" cy="1.00" r="0.05" />
<circle cx="2.09" cy="5.00" r="0.05" />
<circle cx="2.22" cy="1.00" r="0.05" />
<circle cx="2.35" cy="2.00" r="0.05" />
<circle cx="2.48" cy="1.00" r="0.05" />
<circle cx="2.61" cy="2.00" r="0.05" />
<circle cx="2.74" cy="1.00" r="0.05" />
<circle cx="2.87" cy="1.00" r="0.05" />
<circle cx="3.00" cy="1.00" r="0.05" />
<circle cx="3.13" cy="3.00" r="0.05" />
<circle cx="3.26" cy="2.00" r="0.05" />
<circle cx="3.39" cy="1.00" r="0.05" />
<circle cx="3.52" cy="3.00" r="0.05" />
<circle cx="3.65" cy="2.00" r="0.05" />
<circle cx="3.78" cy="1.00" r="0.05" />
<circle cx="3.91" cy="1.00" r="0.05" />
<circle cx="4.05" cy="1.00" r="0.05" />
<circle cx="4.18" cy="7.00" r="0.05" />
<circle cx="4.31" cy="1.00" r="0.05" />
<circle cx="4.44" cy="1.00" r="0.05" />
<circle cx="4.57" cy="1.00" r="0.05" />
<circle cx="4.70" cy="4.00" r="0.05" />
<circle cx="4.83" cy="1.00" r="0.05" />
<circle cx="4.96" cy="1.00" r="0.05" />
<circle cx="5.09" cy="1.00" r="0.05" />
<circle cx="5.22" cy="3.00" r="0.05" />
<circle cx="5.35" cy="1.00" r="0.05" />
<circle cx="5.48" cy="1.00" r="0.05" />
<circle cx="5.61" cy="1.00" r="0.05" />
<circle cx="5.74" cy="2.00" r="0.05" />
<circle cx="5.87" cy="2.00" r="0.05" />
<circle cx="6.00" cy="1.00" r="0.05" />
<circle cx="6.13" cy="1.00" r="0.05" />
<circle cx="6.26" cy="5.00" r="0.05" />
<circle cx="6.39" cy="2.00" r="0.05" />
<circle cx="6.52" cy="2.00" r="0.05" />
<circle cx="6.65" cy="1.00" r="0.05" />
<circle cx="6.79" cy="2.00" r="0.05" />
<circle cx="6.92" cy="1.00" r="0.05" />
<circle cx="7.05" cy="3.00" r="0.05" />
<circle cx="7.18" cy="1.00" r="0.05" />
<circle cx="7.31" cy="3.00" r="0.05" />
<circle cx="7.44" cy="1.00" r="0.05" />
<circle cx="7.57" cy="1.00" r="0.05" />
<circle cx="7.70" cy="1.00" r="0.05" />
<circle cx="7.83" cy="2.00" r="0.05" />
<circle cx="7.96" cy="1.00" r="0.05" />
<circle cx="8.09" cy="1.00" r="0.05" />
<circle cx="8.22" cy="2.00" r="0.05" />
<circle cx="8.35" cy="11.00" r="0.05" />
<circle cx="8.48" cy="1.00" r="0.05" />
<circle cx="8.61" cy="1.00" r="0.05" />
<circle cx="8.74" cy="1.00" r="0.05" />
<circle cx="8.87" cy="2.00" r="0.05" />
<circle cx="9.00" cy="1.00" r="0.05" />
<circle cx="9.13" cy="1.00" r="0.05" />
<circle cx="9.26" cy="1.00" r="0.05" />
<circle cx="9.40" cy="6.00" r="0.05" />
<circle cx="9.53" cy="1.00" r="0.05" />
<circle cx="9.66" cy="1.00" r="0.05" />
<circle cx="9.79" cy="2.00" r="0.05" />
<circle cx="9.92" cy="2.00" r="0.05" />
<circle cx="10.05" cy="1.00" r="0.05" />
<circle cx="10.18" cy="1.00" r="0.05" />
<circle cx="10.31" cy="1.00" r="0.05" />
<circle cx="10.44" cy="5.00" r="0.05" />
<circle cx="10.57" cy="5.00" r="0.05" />
<circle cx="10.70" cy="1.00" r="0.05" />
<circle cx="10.83" cy="1.00" r="0.05" />
<circle cx="10.96" cy="2.00" r="0.05" />
<circle cx="11.09" cy="1.00" r="0.05" />
<circle cx="11.22" cy="1.00" r="0.05" />
<circle cx="11.35" cy="1.00" r="0.05" />
<circle cx="11.48" cy="3.00" r="0.05" />
<circle cx="11.61" cy="1.00" r="0.05" />
<circle cx="11.74" cy="2.00" r="0.05" />
<circle cx="11.87" cy="1.00" r="0.05" />
<circle cx="12.00" cy="2.00" r="0.05" />
<circle cx="12.14" cy="1.00" r="0.05" />
<circle cx="12.27" cy="1.00" r="0.05" />
<circle cx="12.40" cy="1.00" r="0.05" />
<circle cx="12.53" cy="7.00" r="0.05" />
<circle cx="12.66" cy="1.00" r="0.05" />
<circle cx="12.79" cy="2.00" r="0.05" />
<circle cx="12.92" cy="2.00" r="0.05" />
<circle cx="13.05" cy="4.00" r="0.05" />
<circle cx="13.18" cy="1.00" r="0.05" />
<circle cx="13.31" cy="1.00" r="0.05" />
<circle cx="13.44" cy="1.00" r="0.05" />
<circle cx="13.57" cy="3.00" r="0.05" />
<circle cx="13.70" cy="1.00" r="0.05" />
<circle cx="13.83" cy="1.00" r="0.05" />
<circle cx="13.96" cy="1.00" r="0.05" />
<circle cx="14.09" cy="6.00" r="0.05" />
<circle cx="14.22" cy="1.00" r="0.05" />
<circle cx="14.35" cy="1.00" r="0.05" />
<circle cx="14.48" cy="1.00" r="0.05" />
<circle cx="14.61" cy="5.00" r="0.05" />
<circle cx="14.74" cy="1.00" r="0.05" />
<circle cx="14.88" cy="1.00" r="0.05" />
<circle cx="15.01" cy="1.00" r="0.05" />
<circle cx="15.14" cy="2.00" r="0.05" />
<circle cx="15.27" cy="2.00" r="0.05" />
<circle cx="15.40" cy="1.00" r="0.05" />
<circle cx="15.53" cy="1.00" r="0.05" />
<circle cx="15.66" cy="3.00" r="0.05" />
<circle cx="15.79" cy="2.00" r="0.05" />
<circle cx="15.92" cy="1.00" r="0.05" />
<circle cx="16.05" cy="1.00" r="0.05" />
<circle cx="16.18" cy="2.00" r="0.05" />
<circle cx="16.31" cy="3.00" r="0.05" />
</g>
</svg>