<svg xmlns="http://www.w3.org/2000/svg" width="161.8" height="100.0" viewBox="-3.444 -5.000 171.803 110.000">
<g fill="none" stroke="black" stroke-width="0.0050%" transform="translate(0, 100.0000) scale(100.0000, -100.0000)">
<line x1="0.016" y1="0.000" x2="0.016" y2="1.000" />
<line x1="0.031" y1="0.000" x2="0.031" y2="1.000" />

<line x1="0.062" y1="0.000" x2="0.062" y2="1.000" />





<line x1="0.156" y1="0.000" x2="0.156" y2="1.000" />


<line x1="0.202" y1="0.000" x2="0.202" y2="1.000" />


<line x1="0.249" y1="0.000" x2="0.249" y2="1.000" />

<line x1="0.280" y1="0.000" x2="0.280" y2="1.000" />









<line x1="0.436" y1="0.000" x2="0.436" y2="1.000" />






<line x1="0.545" y1="0.000" x2="0.545" y2="1.000" />




<line x1="0.622" y1="0.000" x2="0.622" y2="1.000" />






<line x1="0.731" y1="0.000" x2="0.731" y2="1.000" />


<line x1="0.778" y1="0.000" x2="0.778" y2="1.000" />


<line x1="0.825" y1="0.000" x2="0.825" y2="1.000" />

<line x1="0.856" y1="0.000" x2="0.856" y2="1.000" />











<line x1="1.042" y1="0.000" x2="1.042" y2="1.000" />



<line x1="1.105" y1="0.000" x2="1.105" y2="1.000" />


<line x1="1.151" y1="0.000" x2="1.151" y2="1.000" />







<line x1="1.276" y1="0.000" x2="1.276" y2="1.000" />


<line x1="1.322" y1="0.000" x2="1.322" y2="1.000" />





<line x1="1.416" y1="0.000" x2="1.416" y2="1.000" />




<line x1="1.494" y1="0.000" x2="1.494" y2="1.000" />






<line x1="1.602" y1="0.000" x2="1.602" y2="1.000" />


</g>
</svg>