<svg xmlns="http://www.w3.org/2000/svg" width="161.8" height="100.0" viewBox="-3 -4 172 110">
<g fill="none" stroke="black" stroke-width="20.7950%" transform="translate(0, 101.2984) scale(0.0240, -0.0240)">
<polyline points="76,27 153,27 153,29 229,29 229,30 306,30 306,32 382,32 382,34 459,34 459,36 535,36 535,38 612,38 612,41 688,41 688,43 765,43 765,46 841,46 841,48 918,48 918,51 994,51 994,55 1071,55 1071,58 1147,58 1147,61 1224,61 1224,65 1300,65 1300,69 1376,69 1376,73 1453,73 1453,77 1529,77 1529,82 1606,82 1606,87 1682,87 1682,92 1759,92 1759,97 1835,97 1835,103 1912,103 1912,110 1988,110 1988,116 2065,116 2065,123 2141,123 2141,130 2218,130 2218,138 2294,138 2294,146 2371,146 2371,155 2447,155 2447,164 2524,164 2524,174 2600,174 2600,184 2676,184 2676,195 2753,195 2753,207 2829,207 2829,220 2906,220 2906,233 2982,233 2982,246 3059,246 3059,261 3135,261 3135,277 3212,277 3212,293 3288,293 3288,311 3365,311 3365,329 3441,329 3441,349 3518,349 3518,369 3594,369 3594,391 3671,391 3671,415 3747,415 3747,440 3824,440 3824,466 3900,466 3900,493 3976,493 3976,523 4053,523 4053,554 4129,554 4129,587 4206,587 4206,622 4282,622 4282,659 4359,659 4359,698 4435,698 4435,739 4512,739 4512,783 4588,783 4588,830 4665,830 4665,880 4741,880 4741,932 4818,932 4818,987 4894,987 4894,1046 4971,1046 4971,1108 5047,1108 5047,1174 5124,1174 5124,1244 5200,1244 5200,1318 5276,1318 5276,1396 5353,1396 5353,1479 5429,1479 5429,1567 5506,1567 5506,1661 5582,1661 5582,1760 5659,1760 5659,1864 5735,1864 5735,1975 5812,1975 5812,2093 5888,2093 5888,2217 5965,2217 5965,2349 6041,2349 6041,2489 6118,2489 6118,2637 6194,2637 6194,2793 6271,2793 6271,2959 6347,2959 6347,3135 6424,3135 6424,3322 6500,3322 6500,3520 6576,3520 6576,3729 6653,3729 6653,3951 6729,3951 6729,4186 6806,4186" />
</g>
</svg>