<svg xmlns="http://www.w3.org/2000/svg" width="161.8" height="100.0" viewBox="-3.66 -5.00 171.80 110.00">
<g fill="none" stroke="black" stroke-width="0.1000%" transform="translate(0, 100.0000) scale(5.0000, -5.0000)">
<polyline points="0.27,0.00 0.53,0.00 0.53,1.00 0.80,1.00 0.80,2.00 1.07,2.00 1.07,2.00 1.34,2.00 1.34,3.00 1.60,3.00 1.60,3.00 1.87,3.00 1.87,4.00 2.14,4.00 2.14,4.00 2.41,4.00 2.41,4.00 2.67,4.00 2.67,5.00 2.94,5.00 2.94,5.00 3.21,5.00 3.21,5.00 3.48,5.00 3.48,6.00 3.74,6.00 3.74,6.00 4.01,6.00 4.01,6.00 4.28,6.00 4.28,6.00 4.55,6.00 4.55,7.00 4.81,7.00 4.81,7.00 5.08,7.00 5.08,7.00 5.35,7.00 5.35,7.00 5.62,7.00 5.62,8.00 5.88,8.00 5.88,8.00 6.15,8.00 6.15,8.00 6.42,8.00 6.42,8.00 6.69,8.00 6.69,8.00 6.95,8.00 6.95,9.00 7.22,9.00 7.22,9.00 7.49,9.00 7.49,9.00 7.76,9.00 7.76,9.00 8.02,9.00 8.02,9.00 8.29,9.00 8.29,10.00 8.56,10.00 8.56,10.00 8.83,10.00 8.83,10.00 9.09,10.00 9.09,10.00 9.36,10.00 9.36,10.00 9.63,10.00 9.63,10.00 9.90,10.00 9.90,11.00 10.16,11.00 10.16,11.00 10.43,11.00 10.43,11.00 10.70,11.00 10.70,11.00 10.97,11.00 10.97,11.00 11.23,11.00 11.23,11.00 11.50,11.00 11.50,12.00 11.77,12.00 11.77,12.00 12.03,12.00 12.03,12.00 12.30,12.00 12.30,12.00 12.57,12.00 12.57,12.00 12.84,12.00 12.84,12.00 13.10,12.00 13.10,12.00 13.37,12.00 13.37,13.00 13.64,13.00 13.64,13.00 13.91,13.00 13.91,13.00 14.17,13.00 14.17,13.00 14.44,13.00 14.44,13.00 14.71,13.00 14.71,13.00 14.98,13.00 14.98,13.00 15.24,13.00 15.24,14.00 15.51,14.00 15.51,14.00 15.78,14.00 15.78,14.00 16.05,14.00 16.05,14.00 16.31,14.00 16.31,14.00 16.58,14.00 16.58,14.00 16.85,14.00 16.85,14.00 17.12,14.00 17.12,14.00 17.38,14.00 17.38,15.00 17.65,15.00 17.65,15.00 17.92,15.00 17.92,15.00 18.19,15.00 18.19,15.00 18.45,15.00 18.45,15.00 18.72,15.00 18.72,15.00 18.99,15.00 18.99,15.00 19.26,15.00 19.26,15.00 19.52,15.00 19.52,16.00 19.79,16.00 19.79,16.00 20.06,16.00 20.06,16.00 20.33,16.00 20.33,16.00 20.59,16.00 20.59,16.00 20.86,16.00 20.86,16.00 21.13,16.00 21.13,16.00 21.40,16.00 21.40,16.00 21.66,16.00 21.66,16.00 21.93,16.00 21.93,17.00 22.20,17.00 22.20,17.00 22.47,17.00 22.47,17.00 22.73,17.00 22.73,17.00 23.00,17.00 23.00,17.00 23.27,17.00 23.27,17.00 23.54,17.00 23.54,17.00 23.80,17.00 23.80,17.00 24.07,17.00 24.07,17.00 24.34,17.00 24.34,18.00 24.60,18.00 24.60,18.00 24.87,18.00 24.87,18.00 25.14,18.00 25.14,18.00 25.41,18.00 25.41,18.00 25.67,18.00 25.67,18.00 25.94,18.00 25.94,18.00 26.21,18.00 26.21,18.00 26.48,18.00 26.48,18.00 26.74,18.00 26.74,18.00 27.01,18.00 27.01,19.00 27.28,19.00 27.28,19.00 27.55,19.00 27.55,19.00 27.81,19.00 27.81,19.00 28.08,19.00 28.08,19.00 28.35,19.00 28.35,19.00 28.62,19.00 28.62,19.00 28.88,19.00 28.88,19.00 29.15,19.00 29.15,19.00 29.42,19.00 29.42,19.00 29.69,19.00 29.69,20.00 29.95,20.00 29.95,20.00 30.22,20.00 30.22,20.00 30.49,20.00 30.49,20.00 30.76,20.00 30.76,20.00 31.02,20.00 31.02,20.00 31.29,20.00 31.29,20.00 31.56,20.00 31.56,20.00 31.83,20.00 31.83,20.00 32.09,20.00 32.09,20.00 32.36,20.00 32.36,20.00 32.63,20.00" />
</g>
</svg>