<svg xmlns="http://www.w3.org/2000/svg" width="159.9" height="100.0" viewBox="-3.2 -5.0 169.9 110.0">
<g fill="none" stroke="black" stroke-width="0.4200%" transform="translate(0, 100.0000) scale(1.1905, -1.1905)">
<line x1="1.5" y1="0.0" x2="1.5" y2="1.0" />
<line x1="3.0" y1="0.0" x2="3.0" y2="1.0" />
<line x1="4.5" y1="0.0" x2="4.5" y2="1.0" />
<line x1="6.0" y1="0.0" x2="6.0" y2="1.0" />
<line x1="7.5" y1="0.0" x2="7.5" y2="1.0" />
<line x1="9.0" y1="0.0" x2="9.0" y2="1.0" />
<line x1="10.4" y1="0.0" x2="10.4" y2="1.0" />
<line x1="11.9" y1="0.0" x2="11.9" y2="2.0" />
<line x1="13.4" y1="0.0" x2="13.4" y2="1.0" />
<line x1="14.9" y1="0.0" x2="14.9" y2="1.0" />
<line x1="16.4" y1="0.0" x2="16.4" y2="1.0" />
<line x1="17.9" y1="0.0" x2="17.9" y2="2.0" />
<line x1="19.4" y1="0.0" x2="19.4" y2="3.0" />
<line x1="20.9" y1="0.0" x2="20.9" y2="1.0" />
<line x1="22.4" y1="0.0" x2="22.4" y2="1.0" />
<line x1="23.9" y1="0.0" x2="23.9" y2="1.0" />
<line x1="25.4" y1="0.0" x2="25.4" y2="3.0" />
<line x1="26.9" y1="0.0" x2="26.9" y2="3.0" />
<line x1="28.4" y1="0.0" x2="28.4" y2="4.0" />
<line x1="29.8" y1="0.0" x2="29.8" y2="1.0" />
<line x1="31.3" y1="0.0" x2="31.3" y2="1.0" />
<line x1="32.8" y1="0.0" x2="32.8" y2="1.0" />
<line x1="34.3" y1="0.0" x2="34.3" y2="3.0" />
<line x1="35.8" y1="0.0" x2="35.8" y2="6.0" />
<line x1="37.3" y1="0.0" x2="37.3" y2="4.0" />
<line x1="38.8" y1="0.0" x2="38.8" y2="5.0" />
<line x1="40.3" y1="0.0" x2="40.3" y2="1.0" />
<line x1="41.8" y1="0.0" x2="41.8" y2="1.0" />
<line x1="43.3" y1="0.0" x2="43.3" y2="1.0" />
<line x1="44.8" y1="0.0" x2="44.8" y2="4.0" />
<line x1="46.3" y1="0.0" x2="46.3" y2="6.0" />
<line x1="47.7" y1="0.0" x2="47.7" y2="10.0" />
<line x1="49.2" y1="0.0" x2="49.2" y2="5.0" />
<line x1="50.7" y1="0.0" x2="50.7" y2="6.0" />
<line x1="52.2" y1="0.0" x2="52.2" y2="1.0" />
<line x1="53.7" y1="0.0" x2="53.7" y2="1.0" />
<line x1="55.2" y1="0.0" x2="55.2" y2="1.0" />
<line x1="56.7" y1="0.0" x2="56.7" y2="4.0" />
<line x1="58.2" y1="0.0" x2="58.2" y2="10.0" />
<line x1="59.7" y1="0.0" x2="59.7" y2="10.0" />
<line x1="61.2" y1="0.0" x2="61.2" y2="15.0" />
<line x1="62.7" y1="0.0" x2="62.7" y2="6.0" />
<line x1="64.2" y1="0.0" x2="64.2" y2="7.0" />
<line x1="65.7" y1="0.0" x2="65.7" y2="1.0" />
<line x1="67.1" y1="0.0" x2="67.1" y2="1.0" />
<line x1="68.6" y1="0.0" x2="68.6" y2="1.0" />
<line x1="70.1" y1="0.0" x2="70.1" y2="5.0" />
<line x1="71.6" y1="0.0" x2="71.6" y2="10.0" />
<line x1="73.1" y1="0.0" x2="73.1" y2="20.0" />
<line x1="74.6" y1="0.0" x2="74.6" y2="15.0" />
<line x1="76.1" y1="0.0" x2="76.1" y2="21.0" />
<line x1="77.6" y1="0.0" x2="77.6" y2="7.0" />
<line x1="79.1" y1="0.0" x2="79.1" y2="8.0" />
<line x1="80.6" y1="0.0" x2="80.6" y2="1.0" />
<line x1="82.1" y1="0.0" x2="82.1" y2="1.0" />
<line x1="83.6" y1="0.0" x2="83.6" y2="1.0" />
<line x1="85.1" y1="0.0" x2="85.1" y2="5.0" />
<line x1="86.5" y1="0.0" x2="86.5" y2="15.0" />
<line x1="88.0" y1="0.0" x2="88.0" y2="20.0" />
<line x1="89.5" y1="0.0" x2="89.5" y2="35.0" />
<line x1="91.0" y1="0.0" x2="91.0" y2="21.0" />
<line x1="92.5" y1="0.0" x2="92.5" y2="28.0" />
<line x1="94.0" y1="0.0" x2="94.0" y2="8.0" />
<line x1="95.5" y1="0.0" x2="95.5" y2="9.0" />
<line x1="97.0" y1="0.0" x2="97.0" y2="1.0" />
<line x1="98.5" y1="0.0" x2="98.5" y2="1.0" />
<line x1="100.0" y1="0.0" x2="100.0" y2="1.0" />
<line x1="101.5" y1="0.0" x2="101.5" y2="6.0" />
<line x1="103.0" y1="0.0" x2="103.0" y2="15.0" />
<line x1="104.5" y1="0.0" x2="104.5" y2="35.0" />
<line x1="105.9" y1="0.0" x2="105.9" y2="35.0" />
<line x1="107.4" y1="0.0" x2="107.4" y2="56.0" />
<line x1="108.9" y1="0.0" x2="108.9" y2="28.0" />
<line x1="110.4" y1="0.0" x2="110.4" y2="36.0" />
<line x1="111.9" y1="0.0" x2="111.9" y2="9.0" />
<line x1="113.4" y1="0.0" x2="113.4" y2="10.0" />
<line x1="114.9" y1="0.0" x2="114.9" y2="1.0" />
<line x1="116.4" y1="0.0" x2="116.4" y2="1.0" />
<line x1="117.9" y1="0.0" x2="117.9" y2="1.0" />
<line x1="119.4" y1="0.0" x2="119.4" y2="6.0" />
<line x1="120.9" y1="0.0" x2="120.9" y2="21.0" />
<line x1="122.4" y1="0.0" x2="122.4" y2="35.0" />
<line x1="123.9" y1="0.0" x2="123.9" y2="70.0" />
<line x1="125.3" y1="0.0" x2="125.3" y2="56.0" />
<line x1="126.8" y1="0.0" x2="126.8" y2="84.0" />
<line x1="128.3" y1="0.0" x2="128.3" y2="36.0" />
<line x1="129.8" y1="0.0" x2="129.8" y2="45.0" />
<line x1="131.3" y1="0.0" x2="131.3" y2="10.0" />
<line x1="132.8" y1="0.0" x2="132.8" y2="11.0" />
<line x1="134.3" y1="0.0" x2="134.3" y2="1.0" />
<line x1="135.8" y1="0.0" x2="135.8" y2="1.0" />
</g>
</svg>