<svg xmlns="http://www.w3.org/2000/svg" width="161.8" height="100.0" viewBox="-2.5 -5.0 171.8 110.0">
<g fill="none" stroke="black" stroke-width="0.2350%" transform="translate(0, 100.0000) scale(2.1277, -2.1277)">

<line x1="2.3" y1="0.0" x2="2.3" y2="1.0" />
<line x1="3.5" y1="0.0" x2="3.5" y2="1.0" />
<line x1="4.7" y1="0.0" x2="4.7" y2="3.0" />
<line x1="5.8" y1="0.0" x2="5.8" y2="2.0" />
<line x1="7.0" y1="0.0" x2="7.0" y2="4.0" />
<line x1="8.2" y1="0.0" x2="8.2" y2="4.0" />
<line x1="9.4" y1="0.0" x2="9.4" y2="6.0" />
<line x1="10.5" y1="0.0" x2="10.5" y2="4.0" />
<line x1="11.7" y1="0.0" x2="11.7" y2="7.0" />
<line x1="12.9" y1="0.0" x2="12.9" y2="7.0" />
<line x1="14.0" y1="0.0" x2="14.0" y2="9.0" />
<line x1="15.2" y1="0.0" x2="15.2" y2="7.0" />
<line x1="16.4" y1="0.0" x2="16.4" y2="9.0" />
<line x1="17.5" y1="0.0" x2="17.5" y2="9.0" />
<line x1="18.7" y1="0.0" x2="18.7" y2="13.0" />
<line x1="19.9" y1="0.0" x2="19.9" y2="10.0" />
<line x1="21.1" y1="0.0" x2="21.1" y2="12.0" />
<line x1="22.2" y1="0.0" x2="22.2" y2="12.0" />
<line x1="23.4" y1="0.0" x2="23.4" y2="14.0" />
<line x1="24.6" y1="0.0" x2="24.6" y2="12.0" />
<line x1="25.7" y1="0.0" x2="25.7" y2="16.0" />
<line x1="26.9" y1="0.0" x2="26.9" y2="16.0" />
<line x1="28.1" y1="0.0" x2="28.1" y2="18.0" />
<line x1="29.2" y1="0.0" x2="29.2" y2="14.0" />
<line x1="30.4" y1="0.0" x2="30.4" y2="17.0" />
<line x1="31.6" y1="0.0" x2="31.6" y2="17.0" />
<line x1="32.8" y1="0.0" x2="32.8" y2="21.0" />
<line x1="33.9" y1="0.0" x2="33.9" y2="19.0" />
<line x1="35.1" y1="0.0" x2="35.1" y2="21.0" />
<line x1="36.3" y1="0.0" x2="36.3" y2="21.0" />
<line x1="37.4" y1="0.0" x2="37.4" y2="23.0" />
<line x1="38.6" y1="0.0" x2="38.6" y2="19.0" />
<line x1="39.8" y1="0.0" x2="39.8" y2="23.0" />
<line x1="40.9" y1="0.0" x2="40.9" y2="23.0" />
<line x1="42.1" y1="0.0" x2="42.1" y2="27.0" />
<line x1="43.3" y1="0.0" x2="43.3" y2="24.0" />
<line x1="44.5" y1="0.0" x2="44.5" y2="26.0" />
<line x1="45.6" y1="0.0" x2="45.6" y2="26.0" />
<line x1="46.8" y1="0.0" x2="46.8" y2="30.0" />
<line x1="48.0" y1="0.0" x2="48.0" y2="26.0" />
<line x1="49.1" y1="0.0" x2="49.1" y2="28.0" />
<line x1="50.3" y1="0.0" x2="50.3" y2="28.0" />
<line x1="51.5" y1="0.0" x2="51.5" y2="30.0" />
<line x1="52.6" y1="0.0" x2="52.6" y2="28.0" />
<line x1="53.8" y1="0.0" x2="53.8" y2="34.0" />
<line x1="55.0" y1="0.0" x2="55.0" y2="34.0" />
<line x1="56.2" y1="0.0" x2="56.2" y2="36.0" />
<line x1="57.3" y1="0.0" x2="57.3" y2="30.0" />
<line x1="58.5" y1="0.0" x2="58.5" y2="33.0" />
<line x1="59.7" y1="0.0" x2="59.7" y2="33.0" />
<line x1="60.8" y1="0.0" x2="60.8" y2="37.0" />
<line x1="62.0" y1="0.0" x2="62.0" y2="35.0" />
<line x1="63.2" y1="0.0" x2="63.2" y2="37.0" />
<line x1="64.3" y1="0.0" x2="64.3" y2="37.0" />
<line x1="65.5" y1="0.0" x2="65.5" y2="41.0" />
<line x1="66.7" y1="0.0" x2="66.7" y2="37.0" />
<line x1="67.9" y1="0.0" x2="67.9" y2="41.0" />
<line x1="69.0" y1="0.0" x2="69.0" y2="41.0" />
<line x1="70.2" y1="0.0" x2="70.2" y2="43.0" />
<line x1="71.4" y1="0.0" x2="71.4" y2="39.0" />
<line x1="72.5" y1="0.0" x2="72.5" y2="41.0" />
<line x1="73.7" y1="0.0" x2="73.7" y2="41.0" />
<line x1="74.9" y1="0.0" x2="74.9" y2="47.0" />
<line x1="76.0" y1="0.0" x2="76.0" y2="42.0" />
<line x1="77.2" y1="0.0" x2="77.2" y2="46.0" />
</g>
</svg>