<svg xmlns="http://www.w3.org/2000/svg" width="161.8" height="100.0" viewBox="-3.59 -5.00 171.80 110.00">
<g fill="none" stroke="black" stroke-width="0.0350%" transform="translate(0, 100.0000) scale(14.2857, -14.2857)">
<circle cx="0.10" cy="0.00" r="0.03" />
<circle cx="0.20" cy="1.00" r="0.03" />
<circle cx="0.30" cy="1.00" r="0.03" />
<circle cx="0.39" cy="2.00" r="0.03" />
<circle cx="0.49" cy="1.00" r="0.03" />
<circle cx="0.59" cy="3.00" r="0.03" />
<circle cx="0.69" cy="2.00" r="0.03" />
<circle cx="0.79" cy="2.00" r="0.03" />
<circle cx="0.89" cy="1.00" r="0.03" />
<circle cx="0.98" cy="4.00" r="0.03" />
<circle cx="1.08" cy="3.00" r="0.03" />
<circle cx="1.18" cy="3.00" r="0.03" />
<circle cx="1.28" cy="2.00" r="0.03" />
<circle cx="1.38" cy="3.00" r="0.03" />
<circle cx="1.48" cy="2.00" r="0.03" />
<circle cx="1.58" cy="2.00" r="0.03" />
<circle cx="1.67" cy="1.00" r="0.03" />
<circle cx="1.77" cy="5.00" r="0.03" />
<circle cx="1.87" cy="4.00" r="0.03" />
<circle cx="1.97" cy="4.00" r="0.03" />
<circle cx="2.07" cy="3.00" r="0.03" />
<circle cx="2.17" cy="4.00" r="0.03" />
<circle cx="2.27" cy="3.00" r="0.03" />
<circle cx="2.36" cy="3.00" r="0.03" />
<circle cx="2.46" cy="2.00" r="0.03" />
<circle cx="2.56" cy="4.00" r="0.03" />
<circle cx="2.66" cy="3.00" r="0.03" />
<circle cx="2.76" cy="3.00" r="0.03" />
<circle cx="2.86" cy="2.00" r="0.03" />
<circle cx="2.95" cy="3.00" r="0.03" />
<circle cx="3.05" cy="2.00" r="0.03" />
<circle cx="3.15" cy="2.00" r="0.03" />
<circle cx="3.25" cy="1.00" r="0.03" />
<circle cx="3.35" cy="6.00" r="0.03" />
<circle cx="3.45" cy="5.00" r="0.03" />
<circle cx="3.55" cy="5.00" r="0.03" />
<circle cx="3.64" cy="4.00" r="0.03" />
<circle cx="3.74" cy="5.00" r="0.03" />
<circle cx="3.84" cy="4.00" r="0.03" />
<circle cx="3.94" cy="4.00" r="0.03" />
<circle cx="4.04" cy="3.00" r="0.03" />
<circle cx="4.14" cy="5.00" r="0.03" />
<circle cx="4.24" cy="4.00" r="0.03" />
<circle cx="4.33" cy="4.00" r="0.03" />
<circle cx="4.43" cy="3.00" r="0.03" />
<circle cx="4.53" cy="4.00" r="0.03" />
<circle cx="4.63" cy="3.00" r="0.03" />
<circle cx="4.73" cy="3.00" r="0.03" />
<circle cx="4.83" cy="2.00" r="0.03" />
<circle cx="4.92" cy="5.00" r="0.03" />
<circle cx="5.02" cy="4.00" r="0.03" />
<circle cx="5.12" cy="4.00" r="0.03" />
<circle cx="5.22" cy="3.00" r="0.03" />
<circle cx="5.32" cy="4.00" r="0.03" />
<circle cx="5.42" cy="3.00" r="0.03" />
<circle cx="5.52" cy="3.00" r="0.03" />
<circle cx="5.61" cy="2.00" r="0.03" />
<circle cx="5.71" cy="4.00" r="0.03" />
<circle cx="5.81" cy="3.00" r="0.03" />
<circle cx="5.91" cy="3.00" r="0.03" />
<circle cx="6.01" cy="2.00" r="0.03" />
<circle cx="6.11" cy="3.00" r="0.03" />
<circle cx="6.20" cy="2.00" r="0.03" />
<circle cx="6.30" cy="2.00" r="0.03" />
<circle cx="6.40" cy="1.00" r="0.03" />
<circle cx="6.50" cy="7.00" r="0.03" />
<circle cx="6.60" cy="6.00" r="0.03" />
<circle cx="6.70" cy="6.00" r="0.03" />
<circle cx="6.80" cy="5.00" r="0.03" />
<circle cx="6.89" cy="6.00" r="0.03" />
<circle cx="6.99" cy="5.00" r="0.03" />
<circle cx="7.09" cy="5.00" r="0.03" />
<circle cx="7.19" cy="4.00" r="0.03" />
<circle cx="7.29" cy="6.00" r="0.03" />
<circle cx="7.39" cy="5.00" r="0.03" />
<circle cx="7.49" cy="5.00" r="0.03" />
<circle cx="7.58" cy="4.00" r="0.03" />
<circle cx="7.68" cy="5.00" r="0.03" />
<circle cx="7.78" cy="4.00" r="0.03" />
<circle cx="7.88" cy="4.00" r="0.03" />
<circle cx="7.98" cy="3.00" r="0.03" />
<circle cx="8.08" cy="6.00" r="0.03" />
<circle cx="8.17" cy="5.00" r="0.03" />
<circle cx="8.27" cy="5.00" r="0.03" />
<circle cx="8.37" cy="4.00" r="0.03" />
<circle cx="8.47" cy="5.00" r="0.03" />
<circle cx="8.57" cy="4.00" r="0.03" />
<circle cx="8.67" cy="4.00" r="0.03" />
<circle cx="8.77" cy="3.00" r="0.03" />
<circle cx="8.86" cy="5.00" r="0.03" />
<circle cx="8.96" cy="4.00" r="0.03" />
<circle cx="9.06" cy="4.00" r="0.03" />
<circle cx="9.16" cy="3.00" r="0.03" />
<circle cx="9.26" cy="4.00" r="0.03" />
<circle cx="9.36" cy="3.00" r="0.03" />
<circle cx="9.45" cy="3.00" r="0.03" />
<circle cx="9.55" cy="2.00" r="0.03" />
<circle cx="9.65" cy="6.00" r="0.03" />
<circle cx="9.75" cy="5.00" r="0.03" />
<circle cx="9.85" cy="5.00" r="0.03" />
<circle cx="9.95" cy="4.00" r="0.03" />
<circle cx="10.05" cy="5.00" r="0.03" />
<circle cx="10.14" cy="4.00" r="0.03" />
<circle cx="10.24" cy="4.00" r="0.03" />
<circle cx="10.34" cy="3.00" r="0.03" />
<circle cx="10.44" cy="5.00" r="0.03" />
<circle cx="10.54" cy="4.00" r="0.03" />
<circle cx="10.64" cy="4.00" r="0.03" />
<circle cx="10.74" cy="3.00" r="0.03" />
<circle cx="10.83" cy="4.00" r="0.03" />
<circle cx="10.93" cy="3.00" r="0.03" />
<circle cx="11.03" cy="3.00" r="0.03" />
<circle cx="11.13" cy="2.00" r="0.03" />
<circle cx="11.23" cy="5.00" r="0.03" />
<circle cx="11.33" cy="4.00" r="0.03" />
<circle cx="11.42" cy="4.00" r="0.03" />
</g>
</svg>