<svg xmlns="http://www.w3.org/2000/svg" width="161.8" height="100.0" viewBox="-2.5 -2.8 171.8 110.0">
<g fill="none" stroke="black" stroke-width="0.2300%" transform="translate(0, 104.3478) scale(2.1739, -2.1739)">
<circle cx="1.1" cy="1.0" r="0.2" />
<circle cx="2.3" cy="3.0" r="0.2" />
<circle cx="3.4" cy="2.0" r="0.2" />
<circle cx="4.6" cy="5.0" r="0.2" />
<circle cx="5.7" cy="4.0" r="0.2" />
<circle cx="6.9" cy="3.0" r="0.2" />
<circle cx="8.0" cy="9.0" r="0.2" />
<circle cx="9.2" cy="8.0" r="0.2" />
<circle cx="10.3" cy="6.0" r="0.2" />
<circle cx="11.5" cy="4.0" r="0.2" />
<circle cx="12.6" cy="11.0" r="0.2" />
<circle cx="13.7" cy="10.0" r="0.2" />
<circle cx="14.9" cy="9.0" r="0.2" />
<circle cx="16.0" cy="8.0" r="0.2" />
<circle cx="17.2" cy="5.0" r="0.2" />
<circle cx="18.3" cy="17.0" r="0.2" />
<circle cx="19.5" cy="16.0" r="0.2" />
<circle cx="20.6" cy="15.0" r="0.2" />
<circle cx="21.8" cy="12.0" r="0.2" />
<circle cx="22.9" cy="10.0" r="0.2" />
<circle cx="24.0" cy="6.0" r="0.2" />
<circle cx="25.2" cy="21.0" r="0.2" />
<circle cx="26.3" cy="20.0" r="0.2" />
<circle cx="27.5" cy="18.0" r="0.2" />
<circle cx="28.6" cy="16.0" r="0.2" />
<circle cx="29.8" cy="15.0" r="0.2" />
<circle cx="30.9" cy="12.0" r="0.2" />
<circle cx="32.1" cy="7.0" r="0.2" />
<circle cx="33.2" cy="29.0" r="0.2" />
<circle cx="34.4" cy="28.0" r="0.2" />
<circle cx="35.5" cy="27.0" r="0.2" />
<circle cx="36.6" cy="24.0" r="0.2" />
<circle cx="37.8" cy="20.0" r="0.2" />
<circle cx="38.9" cy="18.0" r="0.2" />
<circle cx="40.1" cy="14.0" r="0.2" />
<circle cx="41.2" cy="8.0" r="0.2" />
<circle cx="42.4" cy="33.0" r="0.2" />
<circle cx="43.5" cy="32.0" r="0.2" />
<circle cx="44.7" cy="30.0" r="0.2" />
<circle cx="45.8" cy="28.0" r="0.2" />
<circle cx="46.9" cy="25.0" r="0.2" />
<circle cx="48.1" cy="24.0" r="0.2" />
<circle cx="49.2" cy="21.0" r="0.2" />
<circle cx="50.4" cy="16.0" r="0.2" />
<circle cx="51.5" cy="9.0" r="0.2" />
<circle cx="52.7" cy="41.0" r="0.2" />
<circle cx="53.8" cy="40.0" r="0.2" />
<circle cx="55.0" cy="39.0" r="0.2" />
<circle cx="56.1" cy="36.0" r="0.2" />
<circle cx="57.3" cy="35.0" r="0.2" />
<circle cx="58.4" cy="30.0" r="0.2" />
<circle cx="59.5" cy="28.0" r="0.2" />
<circle cx="60.7" cy="24.0" r="0.2" />
<circle cx="61.8" cy="18.0" r="0.2" />
<circle cx="63.0" cy="10.0" r="0.2" />
<circle cx="64.1" cy="47.0" r="0.2" />
<circle cx="65.3" cy="46.0" r="0.2" />
<circle cx="66.4" cy="45.0" r="0.2" />
<circle cx="67.6" cy="44.0" r="0.2" />
<circle cx="68.7" cy="40.0" r="0.2" />
<circle cx="69.8" cy="36.0" r="0.2" />
<circle cx="71.0" cy="35.0" r="0.2" />
<circle cx="72.1" cy="32.0" r="0.2" />
<circle cx="73.3" cy="27.0" r="0.2" />
<circle cx="74.4" cy="20.0" r="0.2" />
<circle cx="75.6" cy="11.0" r="0.2" />
</g>
</svg>