<svg xmlns="http://www.w3.org/2000/svg" width="93.8" height="100.0" viewBox="-56.80 -63.01 103.78 110.00">
<g fill="none" stroke="black" stroke-width="0.0189%" transform="translate(0, -16.0296) scale(26.4509, -26.4509)">
<polyline points="-1.96,1.07 -1.78,0.91 -1.62,0.78 -1.48,0.66 -1.35,0.57 -1.24,0.48 -1.13,0.40 -1.02,0.34 -0.93,0.28 -0.83,0.23 -0.75,0.18 -0.66,0.14 -0.57,0.11 -0.49,0.08 -0.41,0.06 -0.33,0.04 -0.25,0.02 -0.17,0.01 -0.10,0.00 -0.02,0.00 0.06,0.00 0.14,0.01 0.22,0.02 0.29,0.03 0.37,0.05 0.45,0.07 0.53,0.09 0.61,0.12 0.69,0.16 0.77,0.20 0.84,0.24 0.92,0.29 0.99,0.34 1.07,0.40 1.14,0.46 1.20,0.52 1.27,0.59 1.33,0.66 1.39,0.74 1.44,0.81 1.48,0.89 1.52,0.96 1.55,1.04 1.57,1.12 1.58,1.19 1.59,1.26 1.58,1.32 1.57,1.38 1.55,1.44 1.52,1.48 1.48,1.52 1.43,1.55 1.38,1.57 1.31,1.58 1.25,1.59 1.18,1.58 1.11,1.57 1.03,1.54 0.95,1.51 0.88,1.47 0.80,1.43 0.73,1.38 0.65,1.32 0.58,1.26 0.52,1.20 0.45,1.13 0.39,1.06 0.34,0.98 0.28,0.91 0.24,0.83 0.19,0.76 0.16,0.68 0.12,0.60 0.09,0.52 0.07,0.44 0.04,0.36 0.03,0.28 0.01,0.21 0.01,0.13 0.00,0.05 0.00,-0.03 0.00,-0.11 0.01,-0.18 0.02,-0.26 0.04,-0.34 0.06,-0.42 0.08,-0.50 0.11,-0.58 0.15,-0.67 0.19,-0.76 0.23,-0.85 0.29,-0.94 0.34,-1.04 0.41,-1.14 0.49,-1.25 0.58,-1.37 0.68,-1.50 0.79,-1.64 0.93,-1.80 1.09,-1.98 1.28,-2.19" />
</g>
</svg>