<svg xmlns="http://www.w3.org/2000/svg" width="161.8" height="100.0" viewBox="-4.35 -1.30 171.80 110.00">
<g fill="none" stroke="black" stroke-width="0.1350%" transform="translate(0, 107.4074) scale(3.7037, -3.7037)">
<circle cx="0.17" cy="1.00" r="0.14" />
<circle cx="0.35" cy="1.00" r="0.14" />
<circle cx="0.52" cy="2.00" r="0.14" />
<circle cx="0.70" cy="1.00" r="0.14" />
<circle cx="0.87" cy="1.00" r="0.14" />
<circle cx="1.05" cy="2.00" r="0.14" />
<circle cx="1.22" cy="2.00" r="0.14" />
<circle cx="1.40" cy="4.00" r="0.14" />
<circle cx="1.57" cy="4.00" r="0.14" />
<circle cx="1.75" cy="1.00" r="0.14" />
<circle cx="1.92" cy="1.00" r="0.14" />
<circle cx="2.10" cy="2.00" r="0.14" />
<circle cx="2.27" cy="1.00" r="0.14" />
<circle cx="2.45" cy="1.00" r="0.14" />
<circle cx="2.62" cy="2.00" r="0.14" />
<circle cx="2.80" cy="2.00" r="0.14" />
<circle cx="2.97" cy="4.00" r="0.14" />
<circle cx="3.15" cy="4.00" r="0.14" />
<circle cx="3.32" cy="2.00" r="0.14" />
<circle cx="3.49" cy="4.00" r="0.14" />
<circle cx="3.67" cy="4.00" r="0.14" />
<circle cx="3.84" cy="5.00" r="0.14" />
<circle cx="4.02" cy="5.00" r="0.14" />
<circle cx="4.19" cy="8.00" r="0.14" />
<circle cx="4.37" cy="5.00" r="0.14" />
<circle cx="4.54" cy="5.00" r="0.14" />
<circle cx="4.72" cy="9.00" r="0.14" />
<circle cx="4.89" cy="1.00" r="0.14" />
<circle cx="5.07" cy="1.00" r="0.14" />
<circle cx="5.24" cy="2.00" r="0.14" />
<circle cx="5.42" cy="1.00" r="0.14" />
<circle cx="5.59" cy="1.00" r="0.14" />
<circle cx="5.77" cy="2.00" r="0.14" />
<circle cx="5.94" cy="2.00" r="0.14" />
<circle cx="6.12" cy="4.00" r="0.14" />
<circle cx="6.29" cy="4.00" r="0.14" />
<circle cx="6.47" cy="1.00" r="0.14" />
<circle cx="6.64" cy="1.00" r="0.14" />
<circle cx="6.82" cy="2.00" r="0.14" />
<circle cx="6.99" cy="1.00" r="0.14" />
<circle cx="7.16" cy="1.00" r="0.14" />
<circle cx="7.34" cy="2.00" r="0.14" />
<circle cx="7.51" cy="2.00" r="0.14" />
<circle cx="7.69" cy="4.00" r="0.14" />
<circle cx="7.86" cy="4.00" r="0.14" />
<circle cx="8.04" cy="2.00" r="0.14" />
<circle cx="8.21" cy="4.00" r="0.14" />
<circle cx="8.39" cy="4.00" r="0.14" />
<circle cx="8.56" cy="5.00" r="0.14" />
<circle cx="8.74" cy="5.00" r="0.14" />
<circle cx="8.91" cy="8.00" r="0.14" />
<circle cx="9.09" cy="5.00" r="0.14" />
<circle cx="9.26" cy="5.00" r="0.14" />
<circle cx="9.44" cy="9.00" r="0.14" />
<circle cx="9.61" cy="9.00" r="0.14" />
<circle cx="9.79" cy="4.00" r="0.14" />
<circle cx="9.96" cy="4.00" r="0.14" />
<circle cx="10.14" cy="5.00" r="0.14" />
<circle cx="10.31" cy="5.00" r="0.14" />
<circle cx="10.48" cy="10.00" r="0.14" />
<circle cx="10.66" cy="5.00" r="0.14" />
<circle cx="10.83" cy="5.00" r="0.14" />
<circle cx="11.01" cy="10.00" r="0.14" />
<circle cx="11.18" cy="2.00" r="0.14" />
<circle cx="11.36" cy="10.00" r="0.14" />
<circle cx="11.53" cy="13.00" r="0.14" />
<circle cx="11.71" cy="11.00" r="0.14" />
<circle cx="11.88" cy="10.00" r="0.14" />
<circle cx="12.06" cy="8.00" r="0.14" />
<circle cx="12.23" cy="11.00" r="0.14" />
<circle cx="12.41" cy="13.00" r="0.14" />
<circle cx="12.58" cy="10.00" r="0.14" />
<circle cx="12.76" cy="12.00" r="0.14" />
<circle cx="12.93" cy="10.00" r="0.14" />
<circle cx="13.11" cy="10.00" r="0.14" />
<circle cx="13.28" cy="12.00" r="0.14" />
<circle cx="13.46" cy="10.00" r="0.14" />
<circle cx="13.63" cy="11.00" r="0.14" />
<circle cx="13.81" cy="14.00" r="0.14" />
<circle cx="13.98" cy="20.00" r="0.14" />
<circle cx="14.15" cy="13.00" r="0.14" />
<circle cx="14.33" cy="1.00" r="0.14" />
<circle cx="14.50" cy="1.00" r="0.14" />
<circle cx="14.68" cy="2.00" r="0.14" />
<circle cx="14.85" cy="1.00" r="0.14" />
<circle cx="15.03" cy="1.00" r="0.14" />
<circle cx="15.20" cy="2.00" r="0.14" />
<circle cx="15.38" cy="2.00" r="0.14" />
<circle cx="15.55" cy="4.00" r="0.14" />
<circle cx="15.73" cy="4.00" r="0.14" />
<circle cx="15.90" cy="2.00" r="0.14" />
<circle cx="16.08" cy="1.00" r="0.14" />
<circle cx="16.25" cy="1.00" r="0.14" />
<circle cx="16.43" cy="13.00" r="0.14" />
<circle cx="16.60" cy="3.00" r="0.14" />
<circle cx="16.78" cy="1.00" r="0.14" />
<circle cx="16.95" cy="2.00" r="0.14" />
<circle cx="17.13" cy="4.00" r="0.14" />
<circle cx="17.30" cy="2.00" r="0.14" />
<circle cx="17.47" cy="4.00" r="0.14" />
<circle cx="17.65" cy="4.00" r="0.14" />
<circle cx="17.82" cy="2.00" r="0.14" />
<circle cx="18.00" cy="3.00" r="0.14" />
<circle cx="18.17" cy="3.00" r="0.14" />
<circle cx="18.35" cy="1.00" r="0.14" />
<circle cx="18.52" cy="5.00" r="0.14" />
<circle cx="18.70" cy="3.00" r="0.14" />
<circle cx="18.87" cy="4.00" r="0.14" />
<circle cx="19.05" cy="10.00" r="0.14" />
<circle cx="19.22" cy="10.00" r="0.14" />
<circle cx="19.40" cy="1.00" r="0.14" />
<circle cx="19.57" cy="1.00" r="0.14" />
<circle cx="19.75" cy="10.00" r="0.14" />
<circle cx="19.92" cy="4.00" r="0.14" />
<circle cx="20.10" cy="1.00" r="0.14" />
<circle cx="20.27" cy="1.00" r="0.14" />
<circle cx="20.45" cy="5.00" r="0.14" />
<circle cx="20.62" cy="10.00" r="0.14" />
<circle cx="20.79" cy="5.00" r="0.14" />
<circle cx="20.97" cy="8.00" r="0.14" />
<circle cx="21.14" cy="6.00" r="0.14" />
<circle cx="21.32" cy="1.00" r="0.14" />
<circle cx="21.49" cy="2.00" r="0.14" />
<circle cx="21.67" cy="9.00" r="0.14" />
<circle cx="21.84" cy="4.00" r="0.14" />
<circle cx="22.02" cy="8.00" r="0.14" />
<circle cx="22.19" cy="2.00" r="0.14" />
<circle cx="22.37" cy="9.00" r="0.14" />
<circle cx="22.54" cy="4.00" r="0.14" />
<circle cx="22.72" cy="5.00" r="0.14" />
<circle cx="22.89" cy="8.00" r="0.14" />
<circle cx="23.07" cy="10.00" r="0.14" />
<circle cx="23.24" cy="10.00" r="0.14" />
<circle cx="23.42" cy="5.00" r="0.14" />
<circle cx="23.59" cy="5.00" r="0.14" />
<circle cx="23.77" cy="9.00" r="0.14" />
<circle cx="23.94" cy="4.00" r="0.14" />
<circle cx="24.12" cy="10.00" r="0.14" />
<circle cx="24.29" cy="5.00" r="0.14" />
<circle cx="24.46" cy="13.00" r="0.14" />
<circle cx="24.64" cy="4.00" r="0.14" />
<circle cx="24.81" cy="5.00" r="0.14" />
<circle cx="24.99" cy="9.00" r="0.14" />
<circle cx="25.16" cy="7.00" r="0.14" />
<circle cx="25.34" cy="20.00" r="0.14" />
<circle cx="25.51" cy="13.00" r="0.14" />
<circle cx="25.69" cy="11.00" r="0.14" />
<circle cx="25.86" cy="17.00" r="0.14" />
<circle cx="26.04" cy="8.00" r="0.14" />
<circle cx="26.21" cy="18.00" r="0.14" />
<circle cx="26.39" cy="11.00" r="0.14" />
<circle cx="26.56" cy="20.00" r="0.14" />
<circle cx="26.74" cy="11.00" r="0.14" />
<circle cx="26.91" cy="11.00" r="0.14" />
<circle cx="27.09" cy="12.00" r="0.14" />
<circle cx="27.26" cy="5.00" r="0.14" />
<circle cx="27.44" cy="5.00" r="0.14" />
<circle cx="27.61" cy="11.00" r="0.14" />
<circle cx="27.78" cy="12.00" r="0.14" />
<circle cx="27.96" cy="12.00" r="0.14" />
<circle cx="28.13" cy="9.00" r="0.14" />
<circle cx="28.31" cy="14.00" r="0.14" />
<circle cx="28.48" cy="15.00" r="0.14" />
<circle cx="28.66" cy="8.00" r="0.14" />
<circle cx="28.83" cy="8.00" r="0.14" />
<circle cx="29.01" cy="12.00" r="0.14" />
<circle cx="29.18" cy="11.00" r="0.14" />
<circle cx="29.36" cy="13.00" r="0.14" />
<circle cx="29.53" cy="10.00" r="0.14" />
<circle cx="29.71" cy="18.00" r="0.14" />
<circle cx="29.88" cy="12.00" r="0.14" />
<circle cx="30.06" cy="10.00" r="0.14" />
<circle cx="30.23" cy="22.00" r="0.14" />
<circle cx="30.41" cy="20.00" r="0.14" />
<circle cx="30.58" cy="8.00" r="0.14" />
<circle cx="30.76" cy="20.00" r="0.14" />
<circle cx="30.93" cy="1.00" r="0.14" />
<circle cx="31.11" cy="23.00" r="0.14" />
<circle cx="31.28" cy="14.00" r="0.14" />
<circle cx="31.45" cy="2.00" r="0.14" />
<circle cx="31.63" cy="21.00" r="0.14" />
<circle cx="31.80" cy="10.00" r="0.14" />
<circle cx="31.98" cy="10.00" r="0.14" />
<circle cx="32.15" cy="2.00" r="0.14" />
<circle cx="32.33" cy="10.00" r="0.14" />
<circle cx="32.50" cy="10.00" r="0.14" />
<circle cx="32.68" cy="20.00" r="0.14" />
<circle cx="32.85" cy="21.00" r="0.14" />
<circle cx="33.03" cy="9.00" r="0.14" />
<circle cx="33.20" cy="20.00" r="0.14" />
<circle cx="33.38" cy="23.00" r="0.14" />
<circle cx="33.55" cy="23.00" r="0.14" />
<circle cx="33.73" cy="10.00" r="0.14" />
<circle cx="33.90" cy="27.00" r="0.14" />
<circle cx="34.08" cy="3.00" r="0.14" />
<circle cx="34.25" cy="16.00" r="0.14" />
<circle cx="34.43" cy="24.00" r="0.14" />
<circle cx="34.60" cy="24.00" r="0.14" />
<circle cx="34.77" cy="20.00" r="0.14" />
<circle cx="34.95" cy="24.00" r="0.14" />
<circle cx="35.12" cy="13.00" r="0.14" />
<circle cx="35.30" cy="28.00" r="0.14" />
<circle cx="35.47" cy="26.00" r="0.14" />
<circle cx="35.65" cy="4.00" r="0.14" />
<circle cx="35.82" cy="6.00" r="0.14" />
<circle cx="36.00" cy="11.00" r="0.14" />
<circle cx="36.17" cy="3.00" r="0.14" />
<circle cx="36.35" cy="13.00" r="0.14" />
<circle cx="36.52" cy="4.00" r="0.14" />
<circle cx="36.70" cy="10.00" r="0.14" />
<circle cx="36.87" cy="23.00" r="0.14" />
<circle cx="37.05" cy="4.00" r="0.14" />
<circle cx="37.22" cy="25.00" r="0.14" />
<circle cx="37.40" cy="17.00" r="0.14" />
<circle cx="37.57" cy="10.00" r="0.14" />
<circle cx="37.75" cy="26.00" r="0.14" />
<circle cx="37.92" cy="13.00" r="0.14" />
<circle cx="38.09" cy="13.00" r="0.14" />
<circle cx="38.27" cy="11.00" r="0.14" />
<circle cx="38.44" cy="19.00" r="0.14" />
<circle cx="38.62" cy="4.00" r="0.14" />
<circle cx="38.79" cy="10.00" r="0.14" />
<circle cx="38.97" cy="2.00" r="0.14" />
<circle cx="39.14" cy="26.00" r="0.14" />
<circle cx="39.32" cy="24.00" r="0.14" />
<circle cx="39.49" cy="25.00" r="0.14" />
<circle cx="39.67" cy="5.00" r="0.14" />
<circle cx="39.84" cy="7.00" r="0.14" />
<circle cx="40.02" cy="2.00" r="0.14" />
<circle cx="40.19" cy="5.00" r="0.14" />
<circle cx="40.37" cy="3.00" r="0.14" />
<circle cx="40.54" cy="2.00" r="0.14" />
<circle cx="40.72" cy="28.00" r="0.14" />
<circle cx="40.89" cy="26.00" r="0.14" />
<circle cx="41.07" cy="18.00" r="0.14" />
<circle cx="41.24" cy="1.00" r="0.14" />
<circle cx="41.42" cy="1.00" r="0.14" />
<circle cx="41.59" cy="7.00" r="0.14" />
<circle cx="41.76" cy="3.00" r="0.14" />
<circle cx="41.94" cy="5.00" r="0.14" />
<circle cx="42.11" cy="13.00" r="0.14" />
<circle cx="42.29" cy="10.00" r="0.14" />
<circle cx="42.46" cy="8.00" r="0.14" />
<circle cx="42.64" cy="1.00" r="0.14" />
<circle cx="42.81" cy="1.00" r="0.14" />
<circle cx="42.99" cy="28.00" r="0.14" />
<circle cx="43.16" cy="1.00" r="0.14" />
<circle cx="43.34" cy="23.00" r="0.14" />
<circle cx="43.51" cy="5.00" r="0.14" />
<circle cx="43.69" cy="10.00" r="0.14" />
<circle cx="43.86" cy="4.00" r="0.14" />
</g>
</svg>