<svg xmlns="http://www.w3.org/2000/svg" width="161.8" height="100.0" viewBox="-3.37 -73.70 171.80 110.00">
<g fill="none" stroke="black" stroke-width="0.0221%" transform="translate(0, -37.4038) scale(22.5894, -22.5894)">
<circle cx="0.07" cy="0.00" r="0.02" />
<polyline points="0.07,1.39 0.14,-1.43 0.22,-1.69 0.29,-0.45 0.36,-1.84 0.43,-2.12 0.51,-0.41 0.58,-2.26 0.65,-0.92 0.72,-1.37 0.80,-1.84 0.87,-1.38 0.94,-0.89 1.01,-1.93 1.09,-0.80 1.16,-0.95 1.23,-1.04 1.30,-0.83 1.37,-0.78 1.45,-0.58 1.52,-3.04 1.59,-2.28 1.66,-2.39 1.74,-1.05 1.81,-2.16 1.88,-0.57 1.95,-1.42 2.03,-1.20 2.10,-1.71 2.17,-1.73 2.24,-1.08 2.32,-2.17 2.39,-1.08 2.46,-1.27 2.53,-0.73 2.60,-0.82 2.68,-1.46 2.75,-1.72 2.82,-1.15 2.89,-0.99 2.97,-2.49 3.04,-1.09 3.11,-0.46 3.18,-2.30 3.26,-0.65 3.33,-2.09 3.40,-0.83 3.47,-1.08 3.55,-1.04 3.62,-0.71 3.69,-1.47 3.76,-0.71 3.83,-1.04 3.91,-1.08 3.98,-0.83 4.05,-2.09 4.12,-0.65 4.20,-2.30 4.27,-0.46 4.34,-1.09 4.41,-2.49 4.49,-0.99 4.56,-1.15 4.63,-1.72 4.70,-1.46 4.78,-0.82 4.85,-0.73 4.92,-1.27 4.99,-1.08 5.06,-2.17 5.14,-1.08 5.21,-1.73 5.28,-1.71 5.35,-1.20 5.43,-1.42 5.50,-0.57 5.57,-2.16 5.64,-1.05 5.72,-2.39 5.79,-2.28 5.86,-3.04 5.93,-0.58 6.01,-0.78 6.08,-0.83 6.15,-1.04 6.22,-0.95 6.29,-0.80 6.37,-1.93 6.44,-0.89 6.51,-1.38 6.58,-1.84 6.66,-1.37 6.73,-0.92 6.80,-2.26 6.87,-0.41 6.95,-2.12 7.02,-1.84 7.09,-0.45 7.16,-1.69 7.24,-1.43" />
</g>
</svg>