<svg xmlns="http://www.w3.org/2000/svg" width="161.8" height="100.0" viewBox="-3.349 -4.768 171.803 110.000">
<g fill="none" stroke="black" stroke-width="0.0020%" transform="translate(0, 100.4634) scale(254.8116, -254.8116)">
<polyline points="0.006,0.037 0.013,0.020 0.019,0.356 0.026,0.014 0.032,0.008 0.039,0.393 0.045,0.006 0.052,0.120 0.058,0.043 0.065,0.014 0.071,0.042 0.078,0.128 0.084,0.012 0.091,0.157 0.097,0.113 0.104,0.092 0.110,0.149 0.117,0.166 0.123,0.263 0.130,0.001 0.136,0.005 0.143,0.004 0.149,0.089 0.156,0.007 0.162,0.267 0.168,0.038 0.175,0.062 0.181,0.019 0.188,0.019 0.194,0.083 0.201,0.007 0.207,0.084 0.214,0.053 0.220,0.186 0.227,0.151 0.233,0.035 0.240,0.019 0.246,0.070 0.253,0.102 0.259,0.003 0.266,0.081 0.272,0.345 0.279,0.005 0.285,0.221 0.292,0.008 0.298,0.148 0.305,0.083 0.311,0.091 0.317,0.197 0.324,0.034 0.330,0.197 0.337,0.091 0.343,0.083 0.350,0.148 0.356,0.008 0.363,0.221 0.369,0.005 0.376,0.345 0.382,0.081 0.389,0.003 0.395,0.102 0.402,0.070 0.408,0.019 0.415,0.035 0.421,0.151 0.428,0.186 0.434,0.053 0.441,0.084 0.447,0.007 0.454,0.083 0.460,0.019 0.467,0.019 0.473,0.062 0.479,0.038 0.486,0.267 0.492,0.007 0.499,0.089 0.505,0.004 0.512,0.005 0.518,0.001 0.525,0.263 0.531,0.166 0.538,0.149 0.544,0.092 0.551,0.113 0.557,0.157 0.564,0.012 0.570,0.128 0.577,0.042 0.583,0.014 0.590,0.043 0.596,0.120 0.603,0.006 0.609,0.393 0.616,0.008 0.622,0.014 0.629,0.356 0.635,0.020 0.641,0.037" />
</g>
</svg>