<svg xmlns="http://www.w3.org/2000/svg" width="161.8" height="100.0" viewBox="-4.187 0.001 171.803 110.000">
<g fill="none" stroke="black" stroke-width="0.0048%" transform="translate(0, 110.0027) scale(105.0013, -105.0013)">
<circle cx="0.008" cy="1.000" r="0.005" />
<circle cx="0.015" cy="0.741" r="0.005" />
<circle cx="0.023" cy="0.048" r="0.005" />
<circle cx="0.031" cy="0.804" r="0.005" />
<circle cx="0.039" cy="0.820" r="0.005" />
<circle cx="0.046" cy="0.810" r="0.005" />
<circle cx="0.054" cy="0.912" r="0.005" />
<circle cx="0.062" cy="0.790" r="0.005" />
<circle cx="0.070" cy="0.873" r="0.005" />
<circle cx="0.077" cy="0.793" r="0.005" />
<circle cx="0.085" cy="0.810" r="0.005" />
<circle cx="0.093" cy="0.819" r="0.005" />
<circle cx="0.101" cy="0.608" r="0.005" />
<circle cx="0.108" cy="0.863" r="0.005" />
<circle cx="0.116" cy="0.207" r="0.005" />
<circle cx="0.124" cy="0.730" r="0.005" />
<circle cx="0.132" cy="0.960" r="0.005" />
<circle cx="0.139" cy="0.745" r="0.005" />
<circle cx="0.147" cy="0.597" r="0.005" />
<circle cx="0.155" cy="0.606" r="0.005" />
<circle cx="0.163" cy="0.906" r="0.005" />
<circle cx="0.170" cy="0.882" r="0.005" />
<circle cx="0.178" cy="0.529" r="0.005" />
<circle cx="0.186" cy="0.595" r="0.005" />
<circle cx="0.194" cy="0.430" r="0.005" />
<circle cx="0.201" cy="0.713" r="0.005" />
<circle cx="0.209" cy="0.879" r="0.005" />
<circle cx="0.217" cy="0.962" r="0.005" />
<circle cx="0.225" cy="0.458" r="0.005" />
<circle cx="0.232" cy="0.719" r="0.005" />
<circle cx="0.240" cy="0.671" r="0.005" />
<circle cx="0.248" cy="0.702" r="0.005" />
<circle cx="0.256" cy="0.317" r="0.005" />
<circle cx="0.263" cy="0.795" r="0.005" />
<circle cx="0.271" cy="0.106" r="0.005" />
<circle cx="0.279" cy="0.909" r="0.005" />
<circle cx="0.287" cy="0.782" r="0.005" />
<circle cx="0.294" cy="0.979" r="0.005" />
<circle cx="0.302" cy="0.389" r="0.005" />
<circle cx="0.310" cy="0.951" r="0.005" />
<circle cx="0.317" cy="0.637" r="0.005" />
<circle cx="0.325" cy="0.788" r="0.005" />
<circle cx="0.333" cy="0.535" r="0.005" />
<circle cx="0.341" cy="0.853" r="0.005" />
<circle cx="0.348" cy="0.907" r="0.005" />
<circle cx="0.356" cy="0.722" r="0.005" />
<circle cx="0.364" cy="0.801" r="0.005" />
<circle cx="0.372" cy="0.760" r="0.005" />
<circle cx="0.379" cy="0.178" r="0.005" />
<circle cx="0.387" cy="0.943" r="0.005" />
<circle cx="0.395" cy="0.753" r="0.005" />
<circle cx="0.403" cy="0.876" r="0.005" />
<circle cx="0.410" cy="0.732" r="0.005" />
<circle cx="0.418" cy="0.922" r="0.005" />
<circle cx="0.426" cy="0.960" r="0.005" />
<circle cx="0.434" cy="0.704" r="0.005" />
<circle cx="0.441" cy="0.547" r="0.005" />
<circle cx="0.449" cy="0.936" r="0.005" />
<circle cx="0.457" cy="0.337" r="0.005" />
<circle cx="0.465" cy="0.887" r="0.005" />
<circle cx="0.472" cy="0.308" r="0.005" />
<circle cx="0.480" cy="0.909" r="0.005" />
<circle cx="0.488" cy="0.440" r="0.005" />
<circle cx="0.496" cy="0.992" r="0.005" />
<circle cx="0.503" cy="0.715" r="0.005" />
<circle cx="0.511" cy="0.792" r="0.005" />
<circle cx="0.519" cy="0.283" r="0.005" />
<circle cx="0.527" cy="0.979" r="0.005" />
<circle cx="0.534" cy="0.806" r="0.005" />
<circle cx="0.542" cy="0.879" r="0.005" />
<circle cx="0.550" cy="0.606" r="0.005" />
<circle cx="0.558" cy="0.822" r="0.005" />
<circle cx="0.565" cy="0.509" r="0.005" />
<circle cx="0.573" cy="0.804" r="0.005" />
<circle cx="0.581" cy="0.504" r="0.005" />
<circle cx="0.589" cy="0.821" r="0.005" />
<circle cx="0.596" cy="0.582" r="0.005" />
<circle cx="0.604" cy="0.867" r="0.005" />
<circle cx="0.612" cy="0.736" r="0.005" />
<circle cx="0.619" cy="0.939" r="0.005" />
<circle cx="0.627" cy="0.958" r="0.005" />
<circle cx="0.635" cy="0.738" r="0.005" />
<circle cx="0.643" cy="0.449" r="0.005" />
<circle cx="0.650" cy="0.859" r="0.005" />
<circle cx="0.658" cy="0.796" r="0.005" />
<circle cx="0.666" cy="0.996" r="0.005" />
<circle cx="0.674" cy="0.410" r="0.005" />
<circle cx="0.681" cy="0.866" r="0.005" />
<circle cx="0.689" cy="0.860" r="0.005" />
<circle cx="0.697" cy="0.759" r="0.005" />
<circle cx="0.705" cy="0.578" r="0.005" />
<circle cx="0.712" cy="0.944" r="0.005" />
<circle cx="0.720" cy="0.344" r="0.005" />
<circle cx="0.728" cy="0.871" r="0.005" />
<circle cx="0.736" cy="0.919" r="0.005" />
<circle cx="0.743" cy="0.814" r="0.005" />
<circle cx="0.751" cy="0.766" r="0.005" />
<circle cx="0.759" cy="0.772" r="0.005" />
<circle cx="0.767" cy="0.652" r="0.005" />
<circle cx="0.774" cy="0.995" r="0.005" />
<circle cx="0.782" cy="0.573" r="0.005" />
<circle cx="0.790" cy="0.973" r="0.005" />
<circle cx="0.798" cy="0.527" r="0.005" />
<circle cx="0.805" cy="0.963" r="0.005" />
<circle cx="0.813" cy="0.511" r="0.005" />
<circle cx="0.821" cy="0.962" r="0.005" />
<circle cx="0.829" cy="0.524" r="0.005" />
<circle cx="0.836" cy="0.970" r="0.005" />
<circle cx="0.844" cy="0.562" r="0.005" />
<circle cx="0.852" cy="0.986" r="0.005" />
<circle cx="0.860" cy="0.625" r="0.005" />
<circle cx="0.867" cy="0.787" r="0.005" />
<circle cx="0.875" cy="0.709" r="0.005" />
<circle cx="0.883" cy="0.819" r="0.005" />
<circle cx="0.891" cy="0.815" r="0.005" />
<circle cx="0.898" cy="0.857" r="0.005" />
<circle cx="0.906" cy="0.940" r="0.005" />
<circle cx="0.914" cy="0.899" r="0.005" />
<circle cx="0.921" cy="0.378" r="0.005" />
<circle cx="0.929" cy="0.945" r="0.005" />
<circle cx="0.937" cy="0.542" r="0.005" />
<circle cx="0.945" cy="0.994" r="0.005" />
<circle cx="0.952" cy="0.720" r="0.005" />
<circle cx="0.960" cy="0.853" r="0.005" />
<circle cx="0.968" cy="0.912" r="0.005" />
<circle cx="0.976" cy="0.911" r="0.005" />
<circle cx="0.983" cy="0.434" r="0.005" />
<circle cx="0.991" cy="0.969" r="0.005" />
<circle cx="0.999" cy="0.655" r="0.005" />
<circle cx="1.007" cy="0.852" r="0.005" />
<circle cx="1.014" cy="0.888" r="0.005" />
<circle cx="1.022" cy="0.916" r="0.005" />
<circle cx="1.030" cy="0.461" r="0.005" />
<circle cx="1.038" cy="0.980" r="0.005" />
<circle cx="1.045" cy="0.717" r="0.005" />
<circle cx="1.053" cy="0.883" r="0.005" />
<circle cx="1.061" cy="0.981" r="0.005" />
<circle cx="1.069" cy="0.950" r="0.005" />
<circle cx="1.076" cy="0.599" r="0.005" />
<circle cx="1.084" cy="0.864" r="0.005" />
<circle cx="1.092" cy="0.881" r="0.005" />
<circle cx="1.100" cy="0.933" r="0.005" />
<circle cx="1.107" cy="0.527" r="0.005" />
<circle cx="1.115" cy="0.999" r="0.005" />
<circle cx="1.123" cy="0.825" r="0.005" />
<circle cx="1.131" cy="0.927" r="0.005" />
<circle cx="1.138" cy="0.495" r="0.005" />
<circle cx="1.146" cy="0.993" r="0.005" />
<circle cx="1.154" cy="0.808" r="0.005" />
<circle cx="1.162" cy="0.930" r="0.005" />
<circle cx="1.169" cy="0.500" r="0.005" />
<circle cx="1.177" cy="0.995" r="0.005" />
<circle cx="1.185" cy="0.824" r="0.005" />
<circle cx="1.193" cy="0.940" r="0.005" />
<circle cx="1.200" cy="0.536" r="0.005" />
<circle cx="1.208" cy="0.891" r="0.005" />
<circle cx="1.216" cy="0.869" r="0.005" />
<circle cx="1.223" cy="0.954" r="0.005" />
<circle cx="1.231" cy="0.601" r="0.005" />
<circle cx="1.239" cy="0.911" r="0.005" />
<circle cx="1.247" cy="0.941" r="0.005" />
<circle cx="1.254" cy="0.970" r="0.005" />
<circle cx="1.262" cy="0.689" r="0.005" />
<circle cx="1.270" cy="0.934" r="0.005" />
<circle cx="1.278" cy="0.448" r="0.005" />
<circle cx="1.285" cy="0.988" r="0.005" />
<circle cx="1.293" cy="0.799" r="0.005" />
<circle cx="1.301" cy="0.956" r="0.005" />
<circle cx="1.309" cy="0.572" r="0.005" />
<circle cx="1.316" cy="0.930" r="0.005" />
<circle cx="1.324" cy="0.927" r="0.005" />
<circle cx="1.332" cy="0.978" r="0.005" />
<circle cx="1.340" cy="0.713" r="0.005" />
<circle cx="1.347" cy="0.955" r="0.005" />
<circle cx="1.355" cy="0.508" r="0.005" />
<circle cx="1.363" cy="0.997" r="0.005" />
<circle cx="1.371" cy="0.869" r="0.005" />
<circle cx="1.378" cy="0.977" r="0.005" />
<circle cx="1.386" cy="0.675" r="0.005" />
<circle cx="1.394" cy="0.962" r="0.005" />
<circle cx="1.402" cy="0.489" r="0.005" />
<circle cx="1.409" cy="0.995" r="0.005" />
<circle cx="1.417" cy="0.853" r="0.005" />
<circle cx="1.425" cy="0.982" r="0.005" />
<circle cx="1.433" cy="0.677" r="0.005" />
<circle cx="1.440" cy="0.973" r="0.005" />
<circle cx="1.448" cy="0.507" r="0.005" />
<circle cx="1.456" cy="0.997" r="0.005" />
<circle cx="1.464" cy="0.873" r="0.005" />
<circle cx="1.471" cy="0.990" r="0.005" />
<circle cx="1.479" cy="0.712" r="0.005" />
<circle cx="1.487" cy="0.986" r="0.005" />
<circle cx="1.495" cy="0.557" r="0.005" />
<circle cx="1.502" cy="1.000" r="0.005" />
<circle cx="1.510" cy="0.922" r="0.005" />
<circle cx="1.518" cy="0.997" r="0.005" />
<circle cx="1.525" cy="0.775" r="0.005" />
<circle cx="1.533" cy="0.997" r="0.005" />
<circle cx="1.541" cy="0.633" r="0.005" />
<circle cx="1.549" cy="1.000" r="0.005" />
</g>
</svg>