<svg xmlns="http://www.w3.org/2000/svg" width="161.8" height="100.0" viewBox="21 -5 172 110">
<g fill="none" stroke="black" stroke-width="1.7600%" transform="translate(0, 100.0000) scale(0.2841, -0.2841)">
<circle cx="93" cy="0" r="2" />
<line x1="93" y1="0" x2="93" y2="4" />
<line x1="99" y1="0" x2="99" y2="4" />
<line x1="106" y1="0" x2="106" y2="14" />
<line x1="112" y1="0" x2="112" y2="21" />
<line x1="118" y1="0" x2="118" y2="34" />
<line x1="125" y1="0" x2="125" y2="47" />
<line x1="131" y1="0" x2="131" y2="75" />
<line x1="138" y1="0" x2="138" y2="78" />
<line x1="144" y1="0" x2="144" y2="132" />
<line x1="150" y1="0" x2="150" y2="143" />
<line x1="157" y1="0" x2="157" y2="162" />
<line x1="163" y1="0" x2="163" y2="189" />
<line x1="170" y1="0" x2="170" y2="201" />
<line x1="176" y1="0" x2="176" y2="236" />
<line x1="182" y1="0" x2="182" y2="259" />
<line x1="189" y1="0" x2="189" y2="281" />
<line x1="195" y1="0" x2="195" y2="320" />
<line x1="202" y1="0" x2="202" y2="315" />
<line x1="208" y1="0" x2="208" y2="319" />
<line x1="214" y1="0" x2="214" y2="315" />
<line x1="221" y1="0" x2="221" y2="327" />
<line x1="227" y1="0" x2="227" y2="306" />
<line x1="234" y1="0" x2="234" y2="326" />
<line x1="240" y1="0" x2="240" y2="323" />
<line x1="246" y1="0" x2="246" y2="352" />
<line x1="253" y1="0" x2="253" y2="321" />
<line x1="259" y1="0" x2="259" y2="318" />
<line x1="266" y1="0" x2="266" y2="323" />
<line x1="272" y1="0" x2="272" y2="297" />
<line x1="278" y1="0" x2="278" y2="284" />
<line x1="285" y1="0" x2="285" y2="253" />
<line x1="291" y1="0" x2="291" y2="258" />
<line x1="298" y1="0" x2="298" y2="255" />
<line x1="304" y1="0" x2="304" y2="238" />
<line x1="310" y1="0" x2="310" y2="227" />
<line x1="317" y1="0" x2="317" y2="232" />
<line x1="323" y1="0" x2="323" y2="175" />
<line x1="330" y1="0" x2="330" y2="185" />
<line x1="336" y1="0" x2="336" y2="162" />
<line x1="342" y1="0" x2="342" y2="162" />
<line x1="349" y1="0" x2="349" y2="125" />
<line x1="355" y1="0" x2="355" y2="143" />
<line x1="362" y1="0" x2="362" y2="113" />
<line x1="368" y1="0" x2="368" y2="99" />
<line x1="374" y1="0" x2="374" y2="120" />
<line x1="381" y1="0" x2="381" y2="99" />
<line x1="387" y1="0" x2="387" y2="84" />
<line x1="394" y1="0" x2="394" y2="73" />
<line x1="400" y1="0" x2="400" y2="77" />
<line x1="406" y1="0" x2="406" y2="55" />
<line x1="413" y1="0" x2="413" y2="66" />
<line x1="419" y1="0" x2="419" y2="56" />
<line x1="426" y1="0" x2="426" y2="60" />
<line x1="432" y1="0" x2="432" y2="47" />
<line x1="438" y1="0" x2="438" y2="41" />
<line x1="445" y1="0" x2="445" y2="23" />
<line x1="451" y1="0" x2="451" y2="29" />
<line x1="458" y1="0" x2="458" y2="30" />
<line x1="464" y1="0" x2="464" y2="27" />
<line x1="470" y1="0" x2="470" y2="18" />
<line x1="477" y1="0" x2="477" y2="25" />
<line x1="483" y1="0" x2="483" y2="21" />
<line x1="490" y1="0" x2="490" y2="13" />
<line x1="496" y1="0" x2="496" y2="13" />
<line x1="502" y1="0" x2="502" y2="10" />
<line x1="509" y1="0" x2="509" y2="4" />
<line x1="515" y1="0" x2="515" y2="10" />
<line x1="522" y1="0" x2="522" y2="12" />
<line x1="528" y1="0" x2="528" y2="6" />
<line x1="534" y1="0" x2="534" y2="6" />
<line x1="541" y1="0" x2="541" y2="4" />
<line x1="547" y1="0" x2="547" y2="4" />
<line x1="554" y1="0" x2="554" y2="3" />
<line x1="560" y1="0" x2="560" y2="4" />
<line x1="566" y1="0" x2="566" y2="1" />

<line x1="579" y1="0" x2="579" y2="3" />
<line x1="586" y1="0" x2="586" y2="1" />
<line x1="592" y1="0" x2="592" y2="1" />











</g>
</svg>