<svg xmlns="http://www.w3.org/2000/svg" width="161.8" height="100.0" viewBox="-4.968 -5.000 171.803 110.000">
<g fill="none" stroke="black" stroke-width="0.0088%" transform="translate(0, 100.0001) scale(56.7845, -56.7845)">
<polyline points="0.001,0.000 0.029,0.001 0.058,0.005 0.086,0.012 0.115,0.021 0.143,0.033 0.172,0.047 0.200,0.065 0.229,0.084 0.257,0.107 0.286,0.132 0.314,0.160 0.343,0.191 0.371,0.225 0.399,0.262 0.428,0.302 0.456,0.346 0.485,0.393 0.513,0.445 0.542,0.502 0.570,0.563 0.599,0.630 0.627,0.704 0.656,0.784 0.684,0.873 0.713,0.970 0.741,1.076 0.770,1.192 0.798,1.316 0.827,1.443 0.855,1.568 0.884,1.677 0.912,1.749 0.941,1.761 0.969,1.695 0.998,1.549 1.026,1.349 1.055,1.135 1.083,0.944 1.112,0.798 1.140,0.702 1.169,0.653 1.197,0.644 1.226,0.667 1.254,0.717 1.283,0.790 1.311,0.884 1.340,0.995 1.368,1.118 1.397,1.244 1.425,1.355 1.454,1.422 1.482,1.414 1.511,1.316 1.539,1.152 1.568,0.977 1.596,0.837 1.625,0.754 1.653,0.729 1.682,0.755 1.710,0.820 1.739,0.917 1.767,1.037 1.796,1.164 1.824,1.273 1.853,1.323 1.881,1.279 1.910,1.145 1.938,0.979 1.967,0.846 1.995,0.780 2.024,0.781 2.052,0.838 2.081,0.937 2.109,1.062 2.138,1.185 2.166,1.262 2.195,1.245 2.223,1.124 2.252,0.964 2.280,0.843 2.309,0.799 2.337,0.830 2.366,0.917 2.394,1.040 2.423,1.164 2.451,1.233 2.480,1.193 2.508,1.054 2.537,0.906 2.565,0.826 2.594,0.832 2.622,0.910 2.651,1.032 2.679,1.154 2.708,1.210 2.736,1.145 2.765,0.995 2.793,0.870 2.822,0.833 2.850,0.886" />
</g>
</svg>