<svg xmlns="http://www.w3.org/2000/svg" width="161.8" height="100.0" viewBox="-85.902 -55.000 171.803 110.000">
<g fill="none" stroke="black" stroke-width="0.0078%" transform="translate(0, 0.0000) scale(64.1113, -64.1113)">
<circle cx="-1.262" cy="0.000" r="0.008" />
<circle cx="0.000" cy="0.780" r="0.008" />
<polyline points="-1.262,-0.564 -1.249,-0.545 -1.237,-0.500 -1.224,-0.455 -1.211,-0.434 -1.199,-0.449 -1.186,-0.491 -1.174,-0.539 -1.161,-0.567 -1.148,-0.562 -1.136,-0.526 -1.123,-0.477 -1.110,-0.438 -1.098,-0.428 -1.085,-0.449 -1.073,-0.494 -1.060,-0.542 -1.047,-0.572 -1.035,-0.574 -1.022,-0.545 -1.010,-0.498 -0.997,-0.452 -0.984,-0.422 -0.972,-0.421 -0.959,-0.448 -0.946,-0.494 -0.934,-0.542 -0.921,-0.577 -0.909,-0.588 -0.896,-0.571 -0.883,-0.533 -0.871,-0.484 -0.858,-0.438 -0.845,-0.410 -0.833,-0.406 -0.820,-0.426 -0.808,-0.466 -0.795,-0.515 -0.782,-0.562 -0.770,-0.594 -0.757,-0.606 -0.745,-0.594 -0.732,-0.562 -0.719,-0.517 -0.707,-0.467 -0.694,-0.423 -0.681,-0.392 -0.669,-0.380 -0.656,-0.389 -0.644,-0.416 -0.631,-0.457 -0.618,-0.506 -0.606,-0.555 -0.593,-0.597 -0.580,-0.627 -0.568,-0.640 -0.555,-0.636 -0.543,-0.616 -0.530,-0.582 -0.517,-0.537 -0.505,-0.488 -0.492,-0.439 -0.480,-0.394 -0.467,-0.358 -0.454,-0.334 -0.442,-0.322 -0.429,-0.324 -0.416,-0.339 -0.404,-0.365 -0.391,-0.402 -0.379,-0.445 -0.366,-0.493 -0.353,-0.543 -0.341,-0.592 -0.328,-0.639 -0.315,-0.680 -0.303,-0.715 -0.290,-0.744 -0.278,-0.764 -0.265,-0.776 -0.252,-0.780 -0.240,-0.776 -0.227,-0.765 -0.215,-0.747 -0.202,-0.723 -0.189,-0.694 -0.177,-0.660 -0.164,-0.622 -0.151,-0.581 -0.139,-0.538 -0.126,-0.492 -0.114,-0.445 -0.101,-0.397 -0.088,-0.349 -0.076,-0.299 -0.063,-0.250 -0.050,-0.200 -0.038,-0.150 -0.025,-0.100 -0.013,-0.050 -0.000,-0.000 0.013,0.050 0.025,0.100 0.038,0.150 0.050,0.200 0.063,0.250 0.076,0.299 0.088,0.349 0.101,0.397 0.114,0.445 0.126,0.492 0.139,0.538 0.151,0.581 0.164,0.622 0.177,0.660 0.189,0.694 0.202,0.723 0.215,0.747 0.227,0.765 0.240,0.776 0.252,0.780 0.265,0.776 0.278,0.764 0.290,0.744 0.303,0.715 0.315,0.680 0.328,0.639 0.341,0.592 0.353,0.543 0.366,0.493 0.379,0.445 0.391,0.402 0.404,0.365 0.416,0.339 0.429,0.324 0.442,0.322 0.454,0.334 0.467,0.358 0.480,0.394 0.492,0.439 0.505,0.488 0.517,0.537 0.530,0.582 0.543,0.616 0.555,0.636 0.568,0.640 0.580,0.627 0.593,0.597 0.606,0.555 0.618,0.506 0.631,0.457 0.644,0.416 0.656,0.389 0.669,0.380 0.681,0.392 0.694,0.423 0.707,0.467 0.719,0.517 0.732,0.562 0.745,0.594 0.757,0.606 0.770,0.594 0.782,0.562 0.795,0.515 0.808,0.466 0.820,0.426 0.833,0.406 0.845,0.410 0.858,0.438 0.871,0.484 0.883,0.533 0.896,0.571 0.909,0.588 0.921,0.577 0.934,0.542 0.946,0.494 0.959,0.448 0.972,0.421 0.984,0.422 0.997,0.452 1.010,0.498 1.022,0.545 1.035,0.574 1.047,0.572 1.060,0.542 1.073,0.494 1.085,0.449 1.098,0.428 1.110,0.438 1.123,0.477 1.136,0.526 1.148,0.562 1.161,0.567 1.174,0.539 1.186,0.491 1.199,0.449 1.211,0.434 1.224,0.455 1.237,0.500 1.249,0.545 1.262,0.564" />
</g>
</svg>