<svg xmlns="http://www.w3.org/2000/svg" width="161.8" height="100.0" viewBox="12.98 3.06 171.80 110.00">
<g fill="none" stroke="black" stroke-width="0.0352%" transform="translate(0, 116.1105) scale(14.2069, -14.2069)">
<polyline points="1.27,7.61 1.38,6.39 1.49,5.44 1.61,4.68 1.72,4.07 1.83,3.56 1.95,3.14 2.06,2.79 2.18,2.48 2.29,2.22 2.40,2.00 2.52,1.80 2.63,1.63 2.75,1.47 2.86,1.33 2.97,1.21 3.09,1.10 3.20,1.00 3.32,0.91 3.43,0.83 3.54,0.76 3.66,0.70 3.77,0.65 3.88,0.61 4.00,0.58 4.11,0.57 4.23,0.57 4.34,0.60 4.45,0.66 4.57,0.75 4.68,0.88 4.80,1.04 4.91,1.21 5.02,1.38 5.14,1.50 5.25,1.55 5.37,1.54 5.48,1.47 5.59,1.37 5.71,1.25 5.82,1.13 5.93,1.02 6.05,0.92 6.16,0.83 6.28,0.76 6.39,0.72 6.50,0.70 6.62,0.72 6.73,0.78 6.85,0.88 6.96,1.02 7.07,1.18 7.19,1.31 7.30,1.37 7.42,1.35 7.53,1.28 7.64,1.17 7.76,1.05 7.87,0.94 7.99,0.85 8.10,0.79 8.21,0.76 8.33,0.77 8.44,0.84 8.55,0.96 8.67,1.10 8.78,1.23 8.90,1.29 9.01,1.27 9.12,1.18 9.24,1.07 9.35,0.95 9.47,0.86 9.58,0.80 9.69,0.79 9.81,0.84 9.92,0.94 10.04,1.09 10.15,1.21 10.26,1.25 10.38,1.21 10.49,1.10 10.60,0.99 10.72,0.89 10.83,0.82 10.95,0.81 11.06,0.87 11.17,0.99 11.29,1.13 11.40,1.22 11.52,1.20 11.63,1.11 11.74,0.99 11.86,0.89 11.97,0.83 12.09,0.84 12.20,0.92 12.31,1.05 12.43,1.17 12.54,1.20 12.65,1.13" />
</g>
</svg>