<svg xmlns="http://www.w3.org/2000/svg" width="161.8" height="100.0" viewBox="-2.51 -5.00 171.80 110.00">
<g fill="none" stroke="black" stroke-width="0.0200%" transform="translate(0, 100.0000) scale(25.0000, -25.0000)">
<line x1="0.10" y1="0.00" x2="0.10" y2="1.00" />
<line x1="0.20" y1="0.00" x2="0.20" y2="2.00" />
<line x1="0.30" y1="0.00" x2="0.30" y2="1.00" />
<line x1="0.40" y1="0.00" x2="0.40" y2="2.00" />
<line x1="0.50" y1="0.00" x2="0.50" y2="2.00" />

<line x1="0.70" y1="0.00" x2="0.70" y2="3.00" />
<line x1="0.80" y1="0.00" x2="0.80" y2="2.00" />

<line x1="1.00" y1="0.00" x2="1.00" y2="2.00" />
<line x1="1.10" y1="0.00" x2="1.10" y2="2.00" />
<line x1="1.19" y1="0.00" x2="1.19" y2="2.00" />
<line x1="1.29" y1="0.00" x2="1.29" y2="1.00" />
<line x1="1.39" y1="0.00" x2="1.39" y2="2.00" />

<line x1="1.59" y1="0.00" x2="1.59" y2="2.00" />
<line x1="1.69" y1="0.00" x2="1.69" y2="4.00" />

<line x1="1.89" y1="0.00" x2="1.89" y2="2.00" />

<line x1="2.09" y1="0.00" x2="2.09" y2="1.00" />
<line x1="2.19" y1="0.00" x2="2.19" y2="4.00" />
<line x1="2.29" y1="0.00" x2="2.29" y2="2.00" />

<line x1="2.49" y1="0.00" x2="2.49" y2="2.00" />
<line x1="2.59" y1="0.00" x2="2.59" y2="2.00" />

<line x1="2.79" y1="0.00" x2="2.79" y2="2.00" />
<line x1="2.89" y1="0.00" x2="2.89" y2="2.00" />
<line x1="2.99" y1="0.00" x2="2.99" y2="2.00" />
<line x1="3.09" y1="0.00" x2="3.09" y2="1.00" />
<line x1="3.19" y1="0.00" x2="3.19" y2="4.00" />


<line x1="3.48" y1="0.00" x2="3.48" y2="2.00" />

<line x1="3.68" y1="0.00" x2="3.68" y2="4.00" />
<line x1="3.78" y1="0.00" x2="3.78" y2="2.00" />
<line x1="3.88" y1="0.00" x2="3.88" y2="2.00" />
<line x1="3.98" y1="0.00" x2="3.98" y2="2.00" />


<line x1="4.28" y1="0.00" x2="4.28" y2="3.00" />
<line x1="4.38" y1="0.00" x2="4.38" y2="2.00" />

<line x1="4.58" y1="0.00" x2="4.58" y2="2.00" />
<line x1="4.68" y1="0.00" x2="4.68" y2="4.00" />

<line x1="4.88" y1="0.00" x2="4.88" y2="2.00" />
<line x1="4.98" y1="0.00" x2="4.98" y2="2.00" />

<line x1="5.18" y1="0.00" x2="5.18" y2="4.00" />



<line x1="5.58" y1="0.00" x2="5.58" y2="4.00" />
<line x1="5.68" y1="0.00" x2="5.68" y2="3.00" />
<line x1="5.78" y1="0.00" x2="5.78" y2="2.00" />
<line x1="5.87" y1="0.00" x2="5.87" y2="2.00" />

<line x1="6.07" y1="0.00" x2="6.07" y2="2.00" />
<line x1="6.17" y1="0.00" x2="6.17" y2="2.00" />


<line x1="6.47" y1="0.00" x2="6.47" y2="2.00" />
<line x1="6.57" y1="0.00" x2="6.57" y2="2.00" />
</g>
</svg>