<svg xmlns="http://www.w3.org/2000/svg" width="161.8" height="100.0" viewBox="-1.9 -5.0 171.8 110.0">
<g fill="none" stroke="black" stroke-width="0.4450%" transform="translate(0, 100.0000) scale(1.1236, -1.1236)">

<line x1="5.4" y1="0.0" x2="5.4" y2="3.0" />
<line x1="8.2" y1="0.0" x2="8.2" y2="3.0" />
<line x1="10.9" y1="0.0" x2="10.9" y2="5.0" />
<line x1="13.6" y1="0.0" x2="13.6" y2="7.0" />
<line x1="16.3" y1="0.0" x2="16.3" y2="3.0" />
<line x1="19.0" y1="0.0" x2="19.0" y2="5.0" />
<line x1="21.7" y1="0.0" x2="21.7" y2="7.0" />
<line x1="24.5" y1="0.0" x2="24.5" y2="3.0" />
<line x1="27.2" y1="0.0" x2="27.2" y2="5.0" />
<line x1="29.9" y1="0.0" x2="29.9" y2="7.0" />
<line x1="32.6" y1="0.0" x2="32.6" y2="23.0" />
<line x1="35.3" y1="0.0" x2="35.3" y2="11.0" />
<line x1="38.0" y1="0.0" x2="38.0" y2="13.0" />
<line x1="40.8" y1="0.0" x2="40.8" y2="3.0" />
<line x1="43.5" y1="0.0" x2="43.5" y2="5.0" />
<line x1="46.2" y1="0.0" x2="46.2" y2="7.0" />

<line x1="51.6" y1="0.0" x2="51.6" y2="11.0" />
<line x1="54.3" y1="0.0" x2="54.3" y2="13.0" />
<line x1="57.1" y1="0.0" x2="57.1" y2="3.0" />
<line x1="59.8" y1="0.0" x2="59.8" y2="5.0" />
<line x1="62.5" y1="0.0" x2="62.5" y2="7.0" />
<line x1="65.2" y1="0.0" x2="65.2" y2="47.0" />
<line x1="67.9" y1="0.0" x2="67.9" y2="11.0" />
<line x1="70.6" y1="0.0" x2="70.6" y2="13.0" />
<line x1="73.4" y1="0.0" x2="73.4" y2="53.0" />
<line x1="76.1" y1="0.0" x2="76.1" y2="17.0" />
<line x1="78.8" y1="0.0" x2="78.8" y2="19.0" />
<line x1="81.5" y1="0.0" x2="81.5" y2="3.0" />
<line x1="84.2" y1="0.0" x2="84.2" y2="5.0" />
<line x1="86.9" y1="0.0" x2="86.9" y2="7.0" />

<line x1="92.4" y1="0.0" x2="92.4" y2="11.0" />
<line x1="95.1" y1="0.0" x2="95.1" y2="13.0" />
<line x1="97.8" y1="0.0" x2="97.8" y2="3.0" />
<line x1="100.5" y1="0.0" x2="100.5" y2="5.0" />
<line x1="103.2" y1="0.0" x2="103.2" y2="7.0" />

<line x1="108.7" y1="0.0" x2="108.7" y2="11.0" />
<line x1="111.4" y1="0.0" x2="111.4" y2="13.0" />
<line x1="114.1" y1="0.0" x2="114.1" y2="83.0" />
<line x1="116.8" y1="0.0" x2="116.8" y2="17.0" />
<line x1="119.6" y1="0.0" x2="119.6" y2="19.0" />
<line x1="122.3" y1="0.0" x2="122.3" y2="89.0" />
<line x1="125.0" y1="0.0" x2="125.0" y2="23.0" />
<line x1="127.7" y1="0.0" x2="127.7" y2="37.0" />

<line x1="133.1" y1="0.0" x2="133.1" y2="29.0" />
<line x1="135.9" y1="0.0" x2="135.9" y2="31.0" />
<line x1="138.6" y1="0.0" x2="138.6" y2="3.0" />
<line x1="141.3" y1="0.0" x2="141.3" y2="5.0" />
<line x1="144.0" y1="0.0" x2="144.0" y2="7.0" />
<line x1="146.7" y1="0.0" x2="146.7" y2="3.0" />
</g>
</svg>