<svg xmlns="http://www.w3.org/2000/svg" width="161.8" height="100.0" viewBox="-2.84 -5.00 171.80 110.00">
<g fill="none" stroke="black" stroke-width="0.0200%" transform="translate(0, 100.0000) scale(25.0000, -25.0000)">
<line x1="0.09" y1="0.00" x2="0.09" y2="1.00" />
<line x1="0.17" y1="0.00" x2="0.17" y2="2.00" />
<line x1="0.26" y1="0.00" x2="0.26" y2="1.00" />

<line x1="0.43" y1="0.00" x2="0.43" y2="2.00" />
<line x1="0.52" y1="0.00" x2="0.52" y2="2.00" />


<line x1="0.78" y1="0.00" x2="0.78" y2="1.00" />
<line x1="0.86" y1="0.00" x2="0.86" y2="2.00" />
<line x1="0.95" y1="0.00" x2="0.95" y2="2.00" />


<line x1="1.21" y1="0.00" x2="1.21" y2="2.00" />


<line x1="1.47" y1="0.00" x2="1.47" y2="2.00" />
<line x1="1.55" y1="0.00" x2="1.55" y2="2.00" />
<line x1="1.64" y1="0.00" x2="1.64" y2="1.00" />

<line x1="1.81" y1="0.00" x2="1.81" y2="2.00" />




<line x1="2.24" y1="0.00" x2="2.24" y2="4.00" />
<line x1="2.33" y1="0.00" x2="2.33" y2="2.00" />


<line x1="2.59" y1="0.00" x2="2.59" y2="2.00" />


<line x1="2.85" y1="0.00" x2="2.85" y2="1.00" />

<line x1="3.02" y1="0.00" x2="3.02" y2="2.00" />

<line x1="3.19" y1="0.00" x2="3.19" y2="2.00" />
<line x1="3.28" y1="0.00" x2="3.28" y2="2.00" />


<line x1="3.54" y1="0.00" x2="3.54" y2="2.00" />
<line x1="3.62" y1="0.00" x2="3.62" y2="2.00" />



<line x1="3.97" y1="0.00" x2="3.97" y2="2.00" />



<line x1="4.31" y1="0.00" x2="4.31" y2="2.00" />
<line x1="4.40" y1="0.00" x2="4.40" y2="3.00" />

<line x1="4.57" y1="0.00" x2="4.57" y2="2.00" />
<line x1="4.66" y1="0.00" x2="4.66" y2="2.00" />




<line x1="5.09" y1="0.00" x2="5.09" y2="2.00" />


<line x1="5.35" y1="0.00" x2="5.35" y2="2.00" />


<line x1="5.61" y1="0.00" x2="5.61" y2="2.00" />
<line x1="5.70" y1="0.00" x2="5.70" y2="4.00" />


<line x1="5.95" y1="0.00" x2="5.95" y2="2.00" />



<line x1="6.30" y1="0.00" x2="6.30" y2="1.00" />
<line x1="6.39" y1="0.00" x2="6.39" y2="2.00" />
<line x1="6.47" y1="0.00" x2="6.47" y2="2.00" />

</g>
</svg>