<svg xmlns="http://www.w3.org/2000/svg" width="115.8" height="100.0" viewBox="-62.893 -4.685 125.786 110.000">
<g fill="none" stroke="black" stroke-width="0.0127%" transform="translate(0, 100.6301) scale(39.4867, -39.4867)">
<circle cx="-1.010" cy="0.009" r="0.013" />
<circle cx="-1.011" cy="0.010" r="0.013" />
<circle cx="-1.012" cy="0.011" r="0.013" />
<circle cx="-1.013" cy="0.013" r="0.013" />
<circle cx="-1.015" cy="0.014" r="0.013" />
<circle cx="-1.016" cy="0.015" r="0.013" />
<circle cx="-1.018" cy="0.017" r="0.013" />
<circle cx="-1.020" cy="0.019" r="0.013" />
<circle cx="-1.022" cy="0.021" r="0.013" />
<circle cx="-1.024" cy="0.023" r="0.013" />
<circle cx="-1.027" cy="0.026" r="0.013" />
<circle cx="-1.030" cy="0.028" r="0.013" />
<circle cx="-1.033" cy="0.032" r="0.013" />
<circle cx="-1.036" cy="0.035" r="0.013" />
<circle cx="-1.040" cy="0.039" r="0.013" />
<circle cx="-1.044" cy="0.043" r="0.013" />
<circle cx="-1.049" cy="0.048" r="0.013" />
<circle cx="-1.054" cy="0.053" r="0.013" />
<circle cx="-1.060" cy="0.059" r="0.013" />
<circle cx="-1.066" cy="0.066" r="0.013" />
<circle cx="-1.073" cy="0.073" r="0.013" />
<circle cx="-1.081" cy="0.081" r="0.013" />
<circle cx="-1.089" cy="0.091" r="0.013" />
<circle cx="-1.099" cy="0.101" r="0.013" />
<circle cx="-1.109" cy="0.113" r="0.013" />
<circle cx="-1.120" cy="0.126" r="0.013" />
<circle cx="-1.133" cy="0.141" r="0.013" />
<circle cx="-1.147" cy="0.158" r="0.013" />
<circle cx="-1.162" cy="0.178" r="0.013" />
<circle cx="-1.179" cy="0.200" r="0.013" />
<circle cx="-1.197" cy="0.225" r="0.013" />
<circle cx="-1.217" cy="0.254" r="0.013" />
<circle cx="-1.238" cy="0.287" r="0.013" />
<circle cx="-1.262" cy="0.325" r="0.013" />
<circle cx="-1.287" cy="0.369" r="0.013" />
<circle cx="-1.314" cy="0.421" r="0.013" />
<circle cx="-1.342" cy="0.480" r="0.013" />
<circle cx="-1.371" cy="0.550" r="0.013" />
<circle cx="-1.399" cy="0.632" r="0.013" />
<circle cx="-1.426" cy="0.728" r="0.013" />
<circle cx="-1.448" cy="0.840" r="0.013" />
<circle cx="-1.464" cy="0.972" r="0.013" />
<circle cx="-1.466" cy="1.125" r="0.013" />
<circle cx="-1.449" cy="1.302" r="0.013" />
<circle cx="-1.403" cy="1.502" r="0.013" />
<circle cx="-1.316" cy="1.722" r="0.013" />
<circle cx="-1.176" cy="1.951" r="0.013" />
<circle cx="-0.971" cy="2.173" r="0.013" />
<circle cx="-0.698" cy="2.364" r="0.013" />
<circle cx="-0.366" cy="2.494" r="0.013" />
<circle cx="-0.000" cy="2.540" r="0.013" />
<circle cx="0.366" cy="2.494" r="0.013" />
<circle cx="0.698" cy="2.364" r="0.013" />
<circle cx="0.971" cy="2.173" r="0.013" />
<circle cx="1.176" cy="1.951" r="0.013" />
<circle cx="1.316" cy="1.722" r="0.013" />
<circle cx="1.403" cy="1.502" r="0.013" />
<circle cx="1.449" cy="1.302" r="0.013" />
<circle cx="1.466" cy="1.125" r="0.013" />
<circle cx="1.464" cy="0.972" r="0.013" />
<circle cx="1.448" cy="0.840" r="0.013" />
<circle cx="1.426" cy="0.728" r="0.013" />
<circle cx="1.399" cy="0.632" r="0.013" />
<circle cx="1.371" cy="0.550" r="0.013" />
<circle cx="1.342" cy="0.480" r="0.013" />
<circle cx="1.314" cy="0.421" r="0.013" />
<circle cx="1.287" cy="0.369" r="0.013" />
<circle cx="1.262" cy="0.325" r="0.013" />
<circle cx="1.238" cy="0.287" r="0.013" />
<circle cx="1.217" cy="0.254" r="0.013" />
<circle cx="1.197" cy="0.225" r="0.013" />
<circle cx="1.179" cy="0.200" r="0.013" />
<circle cx="1.162" cy="0.178" r="0.013" />
<circle cx="1.147" cy="0.158" r="0.013" />
<circle cx="1.133" cy="0.141" r="0.013" />
<circle cx="1.120" cy="0.126" r="0.013" />
<circle cx="1.109" cy="0.113" r="0.013" />
<circle cx="1.099" cy="0.101" r="0.013" />
<circle cx="1.089" cy="0.091" r="0.013" />
<circle cx="1.081" cy="0.081" r="0.013" />
<circle cx="1.073" cy="0.073" r="0.013" />
<circle cx="1.066" cy="0.066" r="0.013" />
<circle cx="1.060" cy="0.059" r="0.013" />
<circle cx="1.054" cy="0.053" r="0.013" />
<circle cx="1.049" cy="0.048" r="0.013" />
<circle cx="1.044" cy="0.043" r="0.013" />
<circle cx="1.040" cy="0.039" r="0.013" />
<circle cx="1.036" cy="0.035" r="0.013" />
<circle cx="1.033" cy="0.032" r="0.013" />
<circle cx="1.030" cy="0.028" r="0.013" />
<circle cx="1.027" cy="0.026" r="0.013" />
<circle cx="1.024" cy="0.023" r="0.013" />
<circle cx="1.022" cy="0.021" r="0.013" />
<circle cx="1.020" cy="0.019" r="0.013" />
<circle cx="1.018" cy="0.017" r="0.013" />
<circle cx="1.016" cy="0.015" r="0.013" />
<circle cx="1.015" cy="0.014" r="0.013" />
<circle cx="1.013" cy="0.013" r="0.013" />
<circle cx="1.012" cy="0.011" r="0.013" />
<circle cx="1.011" cy="0.010" r="0.013" />
<circle cx="1.010" cy="0.009" r="0.013" />
<circle cx="-1.007" cy="0.011" r="0.013" />
<circle cx="-1.008" cy="0.013" r="0.013" />
<circle cx="-1.009" cy="0.014" r="0.013" />
<circle cx="-1.010" cy="0.015" r="0.013" />
<circle cx="-1.011" cy="0.017" r="0.013" />
<circle cx="-1.012" cy="0.019" r="0.013" />
<circle cx="-1.013" cy="0.021" r="0.013" />
<circle cx="-1.015" cy="0.023" r="0.013" />
<circle cx="-1.016" cy="0.026" r="0.013" />
<circle cx="-1.018" cy="0.028" r="0.013" />
<circle cx="-1.020" cy="0.031" r="0.013" />
<circle cx="-1.022" cy="0.035" r="0.013" />
<circle cx="-1.024" cy="0.039" r="0.013" />
<circle cx="-1.026" cy="0.043" r="0.013" />
<circle cx="-1.029" cy="0.047" r="0.013" />
<circle cx="-1.032" cy="0.052" r="0.013" />
<circle cx="-1.035" cy="0.058" r="0.013" />
<circle cx="-1.039" cy="0.065" r="0.013" />
<circle cx="-1.043" cy="0.072" r="0.013" />
<circle cx="-1.047" cy="0.080" r="0.013" />
<circle cx="-1.051" cy="0.088" r="0.013" />
<circle cx="-1.057" cy="0.098" r="0.013" />
<circle cx="-1.062" cy="0.109" r="0.013" />
<circle cx="-1.068" cy="0.121" r="0.013" />
<circle cx="-1.075" cy="0.135" r="0.013" />
<circle cx="-1.082" cy="0.150" r="0.013" />
<circle cx="-1.090" cy="0.168" r="0.013" />
<circle cx="-1.098" cy="0.187" r="0.013" />
<circle cx="-1.107" cy="0.209" r="0.013" />
<circle cx="-1.116" cy="0.233" r="0.013" />
<circle cx="-1.126" cy="0.261" r="0.013" />
<circle cx="-1.136" cy="0.292" r="0.013" />
<circle cx="-1.146" cy="0.328" r="0.013" />
<circle cx="-1.156" cy="0.368" r="0.013" />
<circle cx="-1.166" cy="0.413" r="0.013" />
<circle cx="-1.175" cy="0.464" r="0.013" />
<circle cx="-1.182" cy="0.522" r="0.013" />
<circle cx="-1.187" cy="0.588" r="0.013" />
<circle cx="-1.188" cy="0.662" r="0.013" />
<circle cx="-1.184" cy="0.746" r="0.013" />
<circle cx="-1.172" cy="0.839" r="0.013" />
<circle cx="-1.150" cy="0.943" r="0.013" />
<circle cx="-1.114" cy="1.056" r="0.013" />
<circle cx="-1.061" cy="1.177" r="0.013" />
<circle cx="-0.987" cy="1.304" r="0.013" />
<circle cx="-0.887" cy="1.433" r="0.013" />
<circle cx="-0.760" cy="1.556" r="0.013" />
<circle cx="-0.603" cy="1.666" r="0.013" />
<circle cx="-0.420" cy="1.754" r="0.013" />
<circle cx="-0.216" cy="1.811" r="0.013" />
<circle cx="-0.000" cy="1.830" r="0.013" />
<circle cx="0.216" cy="1.811" r="0.013" />
<circle cx="0.420" cy="1.754" r="0.013" />
<circle cx="0.603" cy="1.666" r="0.013" />
<circle cx="0.760" cy="1.556" r="0.013" />
<circle cx="0.887" cy="1.433" r="0.013" />
<circle cx="0.987" cy="1.304" r="0.013" />
<circle cx="1.061" cy="1.177" r="0.013" />
<circle cx="1.114" cy="1.056" r="0.013" />
<circle cx="1.150" cy="0.943" r="0.013" />
<circle cx="1.172" cy="0.839" r="0.013" />
<circle cx="1.184" cy="0.746" r="0.013" />
<circle cx="1.188" cy="0.662" r="0.013" />
<circle cx="1.187" cy="0.588" r="0.013" />
<circle cx="1.182" cy="0.522" r="0.013" />
<circle cx="1.175" cy="0.464" r="0.013" />
<circle cx="1.166" cy="0.413" r="0.013" />
<circle cx="1.156" cy="0.368" r="0.013" />
<circle cx="1.146" cy="0.328" r="0.013" />
<circle cx="1.136" cy="0.292" r="0.013" />
<circle cx="1.126" cy="0.261" r="0.013" />
<circle cx="1.116" cy="0.233" r="0.013" />
<circle cx="1.107" cy="0.209" r="0.013" />
<circle cx="1.098" cy="0.187" r="0.013" />
<circle cx="1.090" cy="0.168" r="0.013" />
<circle cx="1.082" cy="0.150" r="0.013" />
<circle cx="1.075" cy="0.135" r="0.013" />
<circle cx="1.068" cy="0.121" r="0.013" />
<circle cx="1.062" cy="0.109" r="0.013" />
<circle cx="1.057" cy="0.098" r="0.013" />
<circle cx="1.051" cy="0.088" r="0.013" />
<circle cx="1.047" cy="0.080" r="0.013" />
<circle cx="1.043" cy="0.072" r="0.013" />
<circle cx="1.039" cy="0.065" r="0.013" />
<circle cx="1.035" cy="0.058" r="0.013" />
<circle cx="1.032" cy="0.052" r="0.013" />
<circle cx="1.029" cy="0.047" r="0.013" />
<circle cx="1.026" cy="0.043" r="0.013" />
<circle cx="1.024" cy="0.039" r="0.013" />
<circle cx="1.022" cy="0.035" r="0.013" />
<circle cx="1.020" cy="0.031" r="0.013" />
<circle cx="1.018" cy="0.028" r="0.013" />
<circle cx="1.016" cy="0.026" r="0.013" />
<circle cx="1.015" cy="0.023" r="0.013" />
<circle cx="1.013" cy="0.021" r="0.013" />
<circle cx="1.012" cy="0.019" r="0.013" />
<circle cx="1.011" cy="0.017" r="0.013" />
<circle cx="1.010" cy="0.015" r="0.013" />
<circle cx="1.009" cy="0.014" r="0.013" />
<circle cx="1.008" cy="0.013" r="0.013" />
<circle cx="1.007" cy="0.011" r="0.013" />
<circle cx="-1.004" cy="0.013" r="0.013" />
<circle cx="-1.005" cy="0.014" r="0.013" />
<circle cx="-1.005" cy="0.016" r="0.013" />
<circle cx="-1.006" cy="0.017" r="0.013" />
<circle cx="-1.006" cy="0.019" r="0.013" />
<circle cx="-1.007" cy="0.021" r="0.013" />
<circle cx="-1.007" cy="0.023" r="0.013" />
<circle cx="-1.008" cy="0.026" r="0.013" />
<circle cx="-1.009" cy="0.029" r="0.013" />
<circle cx="-1.010" cy="0.032" r="0.013" />
<circle cx="-1.011" cy="0.035" r="0.013" />
<circle cx="-1.012" cy="0.039" r="0.013" />
<circle cx="-1.013" cy="0.043" r="0.013" />
<circle cx="-1.015" cy="0.048" r="0.013" />
<circle cx="-1.016" cy="0.053" r="0.013" />
<circle cx="-1.018" cy="0.058" r="0.013" />
<circle cx="-1.019" cy="0.065" r="0.013" />
<circle cx="-1.021" cy="0.072" r="0.013" />
<circle cx="-1.023" cy="0.079" r="0.013" />
<circle cx="-1.025" cy="0.088" r="0.013" />
<circle cx="-1.027" cy="0.097" r="0.013" />
<circle cx="-1.030" cy="0.108" r="0.013" />
<circle cx="-1.032" cy="0.120" r="0.013" />
<circle cx="-1.035" cy="0.133" r="0.013" />
<circle cx="-1.037" cy="0.147" r="0.013" />
<circle cx="-1.040" cy="0.163" r="0.013" />
<circle cx="-1.043" cy="0.181" r="0.013" />
<circle cx="-1.046" cy="0.201" r="0.013" />
<circle cx="-1.048" cy="0.223" r="0.013" />
<circle cx="-1.050" cy="0.248" r="0.013" />
<circle cx="-1.052" cy="0.275" r="0.013" />
<circle cx="-1.053" cy="0.306" r="0.013" />
<circle cx="-1.054" cy="0.340" r="0.013" />
<circle cx="-1.053" cy="0.378" r="0.013" />
<circle cx="-1.050" cy="0.420" r="0.013" />
<circle cx="-1.045" cy="0.466" r="0.013" />
<circle cx="-1.037" cy="0.517" r="0.013" />
<circle cx="-1.026" cy="0.573" r="0.013" />
<circle cx="-1.009" cy="0.635" r="0.013" />
<circle cx="-0.987" cy="0.701" r="0.013" />
<circle cx="-0.957" cy="0.773" r="0.013" />
<circle cx="-0.918" cy="0.849" r="0.013" />
<circle cx="-0.869" cy="0.928" r="0.013" />
<circle cx="-0.807" cy="1.010" r="0.013" />
<circle cx="-0.732" cy="1.091" r="0.013" />
<circle cx="-0.642" cy="1.168" r="0.013" />
<circle cx="-0.536" cy="1.239" r="0.013" />
<circle cx="-0.417" cy="1.300" r="0.013" />
<circle cx="-0.286" cy="1.347" r="0.013" />
<circle cx="-0.145" cy="1.376" r="0.013" />
<circle cx="-0.000" cy="1.386" r="0.013" />
<circle cx="0.145" cy="1.376" r="0.013" />
<circle cx="0.286" cy="1.347" r="0.013" />
<circle cx="0.417" cy="1.300" r="0.013" />
<circle cx="0.536" cy="1.239" r="0.013" />
<circle cx="0.642" cy="1.168" r="0.013" />
<circle cx="0.732" cy="1.091" r="0.013" />
<circle cx="0.807" cy="1.010" r="0.013" />
<circle cx="0.869" cy="0.928" r="0.013" />
<circle cx="0.918" cy="0.849" r="0.013" />
<circle cx="0.957" cy="0.773" r="0.013" />
<circle cx="0.987" cy="0.701" r="0.013" />
<circle cx="1.009" cy="0.635" r="0.013" />
<circle cx="1.026" cy="0.573" r="0.013" />
<circle cx="1.037" cy="0.517" r="0.013" />
<circle cx="1.045" cy="0.466" r="0.013" />
<circle cx="1.050" cy="0.420" r="0.013" />
<circle cx="1.053" cy="0.378" r="0.013" />
<circle cx="1.054" cy="0.340" r="0.013" />
<circle cx="1.053" cy="0.306" r="0.013" />
<circle cx="1.052" cy="0.275" r="0.013" />
<circle cx="1.050" cy="0.248" r="0.013" />
<circle cx="1.048" cy="0.223" r="0.013" />
<circle cx="1.046" cy="0.201" r="0.013" />
<circle cx="1.043" cy="0.181" r="0.013" />
<circle cx="1.040" cy="0.163" r="0.013" />
<circle cx="1.037" cy="0.147" r="0.013" />
<circle cx="1.035" cy="0.133" r="0.013" />
<circle cx="1.032" cy="0.120" r="0.013" />
<circle cx="1.030" cy="0.108" r="0.013" />
<circle cx="1.027" cy="0.097" r="0.013" />
<circle cx="1.025" cy="0.088" r="0.013" />
<circle cx="1.023" cy="0.079" r="0.013" />
<circle cx="1.021" cy="0.072" r="0.013" />
<circle cx="1.019" cy="0.065" r="0.013" />
<circle cx="1.018" cy="0.058" r="0.013" />
<circle cx="1.016" cy="0.053" r="0.013" />
<circle cx="1.015" cy="0.048" r="0.013" />
<circle cx="1.013" cy="0.043" r="0.013" />
<circle cx="1.012" cy="0.039" r="0.013" />
<circle cx="1.011" cy="0.035" r="0.013" />
<circle cx="1.010" cy="0.032" r="0.013" />
<circle cx="1.009" cy="0.029" r="0.013" />
<circle cx="1.008" cy="0.026" r="0.013" />
<circle cx="1.007" cy="0.023" r="0.013" />
<circle cx="1.007" cy="0.021" r="0.013" />
<circle cx="1.006" cy="0.019" r="0.013" />
<circle cx="1.006" cy="0.017" r="0.013" />
<circle cx="1.005" cy="0.016" r="0.013" />
<circle cx="1.005" cy="0.014" r="0.013" />
<circle cx="1.004" cy="0.013" r="0.013" />
<circle cx="-1.001" cy="0.013" r="0.013" />
<circle cx="-1.001" cy="0.015" r="0.013" />
<circle cx="-1.001" cy="0.016" r="0.013" />
<circle cx="-1.001" cy="0.018" r="0.013" />
<circle cx="-1.001" cy="0.020" r="0.013" />
<circle cx="-1.001" cy="0.022" r="0.013" />
<circle cx="-1.001" cy="0.025" r="0.013" />
<circle cx="-1.002" cy="0.027" r="0.013" />
<circle cx="-1.002" cy="0.030" r="0.013" />
<circle cx="-1.002" cy="0.033" r="0.013" />
<circle cx="-1.002" cy="0.037" r="0.013" />
<circle cx="-1.002" cy="0.040" r="0.013" />
<circle cx="-1.002" cy="0.045" r="0.013" />
<circle cx="-1.002" cy="0.049" r="0.013" />
<circle cx="-1.002" cy="0.055" r="0.013" />
<circle cx="-1.002" cy="0.060" r="0.013" />
<circle cx="-1.003" cy="0.067" r="0.013" />
<circle cx="-1.003" cy="0.074" r="0.013" />
<circle cx="-1.002" cy="0.082" r="0.013" />
<circle cx="-1.002" cy="0.090" r="0.013" />
<circle cx="-1.002" cy="0.100" r="0.013" />
<circle cx="-1.002" cy="0.110" r="0.013" />
<circle cx="-1.001" cy="0.122" r="0.013" />
<circle cx="-1.000" cy="0.135" r="0.013" />
<circle cx="-0.999" cy="0.149" r="0.013" />
<circle cx="-0.998" cy="0.165" r="0.013" />
<circle cx="-0.996" cy="0.182" r="0.013" />
<circle cx="-0.994" cy="0.201" r="0.013" />
<circle cx="-0.991" cy="0.222" r="0.013" />
<circle cx="-0.987" cy="0.245" r="0.013" />
<circle cx="-0.983" cy="0.270" r="0.013" />
<circle cx="-0.976" cy="0.298" r="0.013" />
<circle cx="-0.969" cy="0.328" r="0.013" />
<circle cx="-0.959" cy="0.362" r="0.013" />
<circle cx="-0.948" cy="0.398" r="0.013" />
<circle cx="-0.933" cy="0.437" r="0.013" />
<circle cx="-0.915" cy="0.480" r="0.013" />
<circle cx="-0.894" cy="0.525" r="0.013" />
<circle cx="-0.868" cy="0.573" r="0.013" />
<circle cx="-0.836" cy="0.624" r="0.013" />
<circle cx="-0.798" cy="0.677" r="0.013" />
<circle cx="-0.753" cy="0.732" r="0.013" />
<circle cx="-0.701" cy="0.787" r="0.013" />
<circle cx="-0.640" cy="0.842" r="0.013" />
<circle cx="-0.571" cy="0.895" r="0.013" />
<circle cx="-0.493" cy="0.944" r="0.013" />
<circle cx="-0.407" cy="0.987" r="0.013" />
<circle cx="-0.312" cy="1.023" r="0.013" />
<circle cx="-0.212" cy="1.051" r="0.013" />
<circle cx="-0.107" cy="1.068" r="0.013" />
<circle cx="-0.000" cy="1.073" r="0.013" />
<circle cx="0.107" cy="1.068" r="0.013" />
<circle cx="0.212" cy="1.051" r="0.013" />
<circle cx="0.312" cy="1.023" r="0.013" />
<circle cx="0.407" cy="0.987" r="0.013" />
<circle cx="0.493" cy="0.944" r="0.013" />
<circle cx="0.571" cy="0.895" r="0.013" />
<circle cx="0.640" cy="0.842" r="0.013" />
<circle cx="0.701" cy="0.787" r="0.013" />
<circle cx="0.753" cy="0.732" r="0.013" />
<circle cx="0.798" cy="0.677" r="0.013" />
<circle cx="0.836" cy="0.624" r="0.013" />
<circle cx="0.868" cy="0.573" r="0.013" />
<circle cx="0.894" cy="0.525" r="0.013" />
<circle cx="0.915" cy="0.480" r="0.013" />
<circle cx="0.933" cy="0.437" r="0.013" />
<circle cx="0.948" cy="0.398" r="0.013" />
<circle cx="0.959" cy="0.362" r="0.013" />
<circle cx="0.969" cy="0.328" r="0.013" />
<circle cx="0.976" cy="0.298" r="0.013" />
<circle cx="0.983" cy="0.270" r="0.013" />
<circle cx="0.987" cy="0.245" r="0.013" />
<circle cx="0.991" cy="0.222" r="0.013" />
<circle cx="0.994" cy="0.201" r="0.013" />
<circle cx="0.996" cy="0.182" r="0.013" />
<circle cx="0.998" cy="0.165" r="0.013" />
<circle cx="0.999" cy="0.149" r="0.013" />
<circle cx="1.000" cy="0.135" r="0.013" />
<circle cx="1.001" cy="0.122" r="0.013" />
<circle cx="1.002" cy="0.110" r="0.013" />
<circle cx="1.002" cy="0.100" r="0.013" />
<circle cx="1.002" cy="0.090" r="0.013" />
<circle cx="1.002" cy="0.082" r="0.013" />
<circle cx="1.003" cy="0.074" r="0.013" />
<circle cx="1.003" cy="0.067" r="0.013" />
<circle cx="1.002" cy="0.060" r="0.013" />
<circle cx="1.002" cy="0.055" r="0.013" />
<circle cx="1.002" cy="0.049" r="0.013" />
<circle cx="1.002" cy="0.045" r="0.013" />
<circle cx="1.002" cy="0.040" r="0.013" />
<circle cx="1.002" cy="0.037" r="0.013" />
<circle cx="1.002" cy="0.033" r="0.013" />
<circle cx="1.002" cy="0.030" r="0.013" />
<circle cx="1.002" cy="0.027" r="0.013" />
<circle cx="1.001" cy="0.025" r="0.013" />
<circle cx="1.001" cy="0.022" r="0.013" />
<circle cx="1.001" cy="0.020" r="0.013" />
<circle cx="1.001" cy="0.018" r="0.013" />
<circle cx="1.001" cy="0.016" r="0.013" />
<circle cx="1.001" cy="0.015" r="0.013" />
<circle cx="1.001" cy="0.013" r="0.013" />
<circle cx="-0.998" cy="0.013" r="0.013" />
<circle cx="-0.997" cy="0.015" r="0.013" />
<circle cx="-0.997" cy="0.016" r="0.013" />
<circle cx="-0.997" cy="0.018" r="0.013" />
<circle cx="-0.996" cy="0.020" r="0.013" />
<circle cx="-0.996" cy="0.022" r="0.013" />
<circle cx="-0.995" cy="0.024" r="0.013" />
<circle cx="-0.995" cy="0.027" r="0.013" />
<circle cx="-0.994" cy="0.029" r="0.013" />
<circle cx="-0.994" cy="0.032" r="0.013" />
<circle cx="-0.993" cy="0.036" r="0.013" />
<circle cx="-0.992" cy="0.040" r="0.013" />
<circle cx="-0.991" cy="0.044" r="0.013" />
<circle cx="-0.990" cy="0.048" r="0.013" />
<circle cx="-0.989" cy="0.053" r="0.013" />
<circle cx="-0.988" cy="0.059" r="0.013" />
<circle cx="-0.986" cy="0.065" r="0.013" />
<circle cx="-0.984" cy="0.072" r="0.013" />
<circle cx="-0.982" cy="0.079" r="0.013" />
<circle cx="-0.980" cy="0.087" r="0.013" />
<circle cx="-0.978" cy="0.096" r="0.013" />
<circle cx="-0.975" cy="0.106" r="0.013" />
<circle cx="-0.972" cy="0.117" r="0.013" />
<circle cx="-0.968" cy="0.129" r="0.013" />
<circle cx="-0.964" cy="0.142" r="0.013" />
<circle cx="-0.959" cy="0.156" r="0.013" />
<circle cx="-0.953" cy="0.172" r="0.013" />
<circle cx="-0.947" cy="0.189" r="0.013" />
<circle cx="-0.939" cy="0.207" r="0.013" />
<circle cx="-0.930" cy="0.228" r="0.013" />
<circle cx="-0.920" cy="0.250" r="0.013" />
<circle cx="-0.909" cy="0.274" r="0.013" />
<circle cx="-0.895" cy="0.299" r="0.013" />
<circle cx="-0.880" cy="0.327" r="0.013" />
<circle cx="-0.862" cy="0.357" r="0.013" />
<circle cx="-0.841" cy="0.389" r="0.013" />
<circle cx="-0.818" cy="0.422" r="0.013" />
<circle cx="-0.790" cy="0.458" r="0.013" />
<circle cx="-0.759" cy="0.495" r="0.013" />
<circle cx="-0.723" cy="0.533" r="0.013" />
<circle cx="-0.683" cy="0.572" r="0.013" />
<circle cx="-0.637" cy="0.611" r="0.013" />
<circle cx="-0.586" cy="0.649" r="0.013" />
<circle cx="-0.529" cy="0.686" r="0.013" />
<circle cx="-0.467" cy="0.722" r="0.013" />
<circle cx="-0.399" cy="0.754" r="0.013" />
<circle cx="-0.326" cy="0.781" r="0.013" />
<circle cx="-0.249" cy="0.804" r="0.013" />
<circle cx="-0.168" cy="0.821" r="0.013" />
<circle cx="-0.085" cy="0.832" r="0.013" />
<circle cx="-0.000" cy="0.835" r="0.013" />
<circle cx="0.085" cy="0.832" r="0.013" />
<circle cx="0.168" cy="0.821" r="0.013" />
<circle cx="0.249" cy="0.804" r="0.013" />
<circle cx="0.326" cy="0.781" r="0.013" />
<circle cx="0.399" cy="0.754" r="0.013" />
<circle cx="0.467" cy="0.722" r="0.013" />
<circle cx="0.529" cy="0.686" r="0.013" />
<circle cx="0.586" cy="0.649" r="0.013" />
<circle cx="0.637" cy="0.611" r="0.013" />
<circle cx="0.683" cy="0.572" r="0.013" />
<circle cx="0.723" cy="0.533" r="0.013" />
<circle cx="0.759" cy="0.495" r="0.013" />
<circle cx="0.790" cy="0.458" r="0.013" />
<circle cx="0.818" cy="0.422" r="0.013" />
<circle cx="0.841" cy="0.389" r="0.013" />
<circle cx="0.862" cy="0.357" r="0.013" />
<circle cx="0.880" cy="0.327" r="0.013" />
<circle cx="0.895" cy="0.299" r="0.013" />
<circle cx="0.909" cy="0.274" r="0.013" />
<circle cx="0.920" cy="0.250" r="0.013" />
<circle cx="0.930" cy="0.228" r="0.013" />
<circle cx="0.939" cy="0.207" r="0.013" />
<circle cx="0.947" cy="0.189" r="0.013" />
<circle cx="0.953" cy="0.172" r="0.013" />
<circle cx="0.959" cy="0.156" r="0.013" />
<circle cx="0.964" cy="0.142" r="0.013" />
<circle cx="0.968" cy="0.129" r="0.013" />
<circle cx="0.972" cy="0.117" r="0.013" />
<circle cx="0.975" cy="0.106" r="0.013" />
<circle cx="0.978" cy="0.096" r="0.013" />
<circle cx="0.980" cy="0.087" r="0.013" />
<circle cx="0.982" cy="0.079" r="0.013" />
<circle cx="0.984" cy="0.072" r="0.013" />
<circle cx="0.986" cy="0.065" r="0.013" />
<circle cx="0.988" cy="0.059" r="0.013" />
<circle cx="0.989" cy="0.053" r="0.013" />
<circle cx="0.990" cy="0.048" r="0.013" />
<circle cx="0.991" cy="0.044" r="0.013" />
<circle cx="0.992" cy="0.040" r="0.013" />
<circle cx="0.993" cy="0.036" r="0.013" />
<circle cx="0.994" cy="0.032" r="0.013" />
<circle cx="0.994" cy="0.029" r="0.013" />
<circle cx="0.995" cy="0.027" r="0.013" />
<circle cx="0.995" cy="0.024" r="0.013" />
<circle cx="0.996" cy="0.022" r="0.013" />
<circle cx="0.996" cy="0.020" r="0.013" />
<circle cx="0.997" cy="0.018" r="0.013" />
<circle cx="0.997" cy="0.016" r="0.013" />
<circle cx="0.997" cy="0.015" r="0.013" />
<circle cx="0.998" cy="0.013" r="0.013" />
<circle cx="-0.994" cy="0.012" r="0.013" />
<circle cx="-0.994" cy="0.013" r="0.013" />
<circle cx="-0.993" cy="0.015" r="0.013" />
<circle cx="-0.992" cy="0.016" r="0.013" />
<circle cx="-0.992" cy="0.018" r="0.013" />
<circle cx="-0.991" cy="0.020" r="0.013" />
<circle cx="-0.990" cy="0.022" r="0.013" />
<circle cx="-0.988" cy="0.024" r="0.013" />
<circle cx="-0.987" cy="0.027" r="0.013" />
<circle cx="-0.986" cy="0.030" r="0.013" />
<circle cx="-0.984" cy="0.033" r="0.013" />
<circle cx="-0.983" cy="0.036" r="0.013" />
<circle cx="-0.981" cy="0.040" r="0.013" />
<circle cx="-0.979" cy="0.044" r="0.013" />
<circle cx="-0.976" cy="0.049" r="0.013" />
<circle cx="-0.974" cy="0.054" r="0.013" />
<circle cx="-0.971" cy="0.059" r="0.013" />
<circle cx="-0.968" cy="0.065" r="0.013" />
<circle cx="-0.964" cy="0.072" r="0.013" />
<circle cx="-0.960" cy="0.079" r="0.013" />
<circle cx="-0.956" cy="0.087" r="0.013" />
<circle cx="-0.951" cy="0.095" r="0.013" />
<circle cx="-0.945" cy="0.105" r="0.013" />
<circle cx="-0.939" cy="0.115" r="0.013" />
<circle cx="-0.932" cy="0.127" r="0.013" />
<circle cx="-0.924" cy="0.139" r="0.013" />
<circle cx="-0.915" cy="0.152" r="0.013" />
<circle cx="-0.905" cy="0.167" r="0.013" />
<circle cx="-0.894" cy="0.182" r="0.013" />
<circle cx="-0.882" cy="0.199" r="0.013" />
<circle cx="-0.868" cy="0.218" r="0.013" />
<circle cx="-0.852" cy="0.237" r="0.013" />
<circle cx="-0.835" cy="0.258" r="0.013" />
<circle cx="-0.815" cy="0.280" r="0.013" />
<circle cx="-0.794" cy="0.304" r="0.013" />
<circle cx="-0.769" cy="0.328" r="0.013" />
<circle cx="-0.742" cy="0.354" r="0.013" />
<circle cx="-0.711" cy="0.381" r="0.013" />
<circle cx="-0.678" cy="0.408" r="0.013" />
<circle cx="-0.641" cy="0.436" r="0.013" />
<circle cx="-0.600" cy="0.464" r="0.013" />
<circle cx="-0.555" cy="0.492" r="0.013" />
<circle cx="-0.506" cy="0.519" r="0.013" />
<circle cx="-0.454" cy="0.544" r="0.013" />
<circle cx="-0.398" cy="0.568" r="0.013" />
<circle cx="-0.338" cy="0.589" r="0.013" />
<circle cx="-0.274" cy="0.607" r="0.013" />
<circle cx="-0.208" cy="0.622" r="0.013" />
<circle cx="-0.140" cy="0.633" r="0.013" />
<circle cx="-0.070" cy="0.640" r="0.013" />
<circle cx="-0.000" cy="0.642" r="0.013" />
<circle cx="0.070" cy="0.640" r="0.013" />
<circle cx="0.140" cy="0.633" r="0.013" />
<circle cx="0.208" cy="0.622" r="0.013" />
<circle cx="0.274" cy="0.607" r="0.013" />
<circle cx="0.338" cy="0.589" r="0.013" />
<circle cx="0.398" cy="0.568" r="0.013" />
<circle cx="0.454" cy="0.544" r="0.013" />
<circle cx="0.506" cy="0.519" r="0.013" />
<circle cx="0.555" cy="0.492" r="0.013" />
<circle cx="0.600" cy="0.464" r="0.013" />
<circle cx="0.641" cy="0.436" r="0.013" />
<circle cx="0.678" cy="0.408" r="0.013" />
<circle cx="0.711" cy="0.381" r="0.013" />
<circle cx="0.742" cy="0.354" r="0.013" />
<circle cx="0.769" cy="0.328" r="0.013" />
<circle cx="0.794" cy="0.304" r="0.013" />
<circle cx="0.815" cy="0.280" r="0.013" />
<circle cx="0.835" cy="0.258" r="0.013" />
<circle cx="0.852" cy="0.237" r="0.013" />
<circle cx="0.868" cy="0.218" r="0.013" />
<circle cx="0.882" cy="0.199" r="0.013" />
<circle cx="0.894" cy="0.182" r="0.013" />
<circle cx="0.905" cy="0.167" r="0.013" />
<circle cx="0.915" cy="0.152" r="0.013" />
<circle cx="0.924" cy="0.139" r="0.013" />
<circle cx="0.932" cy="0.127" r="0.013" />
<circle cx="0.939" cy="0.115" r="0.013" />
<circle cx="0.945" cy="0.105" r="0.013" />
<circle cx="0.951" cy="0.095" r="0.013" />
<circle cx="0.956" cy="0.087" r="0.013" />
<circle cx="0.960" cy="0.079" r="0.013" />
<circle cx="0.964" cy="0.072" r="0.013" />
<circle cx="0.968" cy="0.065" r="0.013" />
<circle cx="0.971" cy="0.059" r="0.013" />
<circle cx="0.974" cy="0.054" r="0.013" />
<circle cx="0.976" cy="0.049" r="0.013" />
<circle cx="0.979" cy="0.044" r="0.013" />
<circle cx="0.981" cy="0.040" r="0.013" />
<circle cx="0.983" cy="0.036" r="0.013" />
<circle cx="0.984" cy="0.033" r="0.013" />
<circle cx="0.986" cy="0.030" r="0.013" />
<circle cx="0.987" cy="0.027" r="0.013" />
<circle cx="0.988" cy="0.024" r="0.013" />
<circle cx="0.990" cy="0.022" r="0.013" />
<circle cx="0.991" cy="0.020" r="0.013" />
<circle cx="0.992" cy="0.018" r="0.013" />
<circle cx="0.992" cy="0.016" r="0.013" />
<circle cx="0.993" cy="0.015" r="0.013" />
<circle cx="0.994" cy="0.013" r="0.013" />
<circle cx="0.994" cy="0.012" r="0.013" />
<circle cx="-0.992" cy="0.010" r="0.013" />
<circle cx="-0.991" cy="0.011" r="0.013" />
<circle cx="-0.990" cy="0.013" r="0.013" />
<circle cx="-0.989" cy="0.014" r="0.013" />
<circle cx="-0.987" cy="0.015" r="0.013" />
<circle cx="-0.986" cy="0.017" r="0.013" />
<circle cx="-0.985" cy="0.019" r="0.013" />
<circle cx="-0.983" cy="0.021" r="0.013" />
<circle cx="-0.981" cy="0.023" r="0.013" />
<circle cx="-0.979" cy="0.025" r="0.013" />
<circle cx="-0.977" cy="0.028" r="0.013" />
<circle cx="-0.974" cy="0.031" r="0.013" />
<circle cx="-0.972" cy="0.034" r="0.013" />
<circle cx="-0.969" cy="0.037" r="0.013" />
<circle cx="-0.965" cy="0.041" r="0.013" />
<circle cx="-0.962" cy="0.045" r="0.013" />
<circle cx="-0.958" cy="0.050" r="0.013" />
<circle cx="-0.953" cy="0.055" r="0.013" />
<circle cx="-0.948" cy="0.060" r="0.013" />
<circle cx="-0.943" cy="0.066" r="0.013" />
<circle cx="-0.937" cy="0.073" r="0.013" />
<circle cx="-0.930" cy="0.080" r="0.013" />
<circle cx="-0.922" cy="0.088" r="0.013" />
<circle cx="-0.914" cy="0.096" r="0.013" />
<circle cx="-0.905" cy="0.105" r="0.013" />
<circle cx="-0.895" cy="0.115" r="0.013" />
<circle cx="-0.884" cy="0.126" r="0.013" />
<circle cx="-0.871" cy="0.137" r="0.013" />
<circle cx="-0.858" cy="0.150" r="0.013" />
<circle cx="-0.843" cy="0.163" r="0.013" />
<circle cx="-0.826" cy="0.177" r="0.013" />
<circle cx="-0.808" cy="0.192" r="0.013" />
<circle cx="-0.788" cy="0.208" r="0.013" />
<circle cx="-0.765" cy="0.225" r="0.013" />
<circle cx="-0.741" cy="0.243" r="0.013" />
<circle cx="-0.714" cy="0.261" r="0.013" />
<circle cx="-0.685" cy="0.280" r="0.013" />
<circle cx="-0.653" cy="0.299" r="0.013" />
<circle cx="-0.619" cy="0.319" r="0.013" />
<circle cx="-0.582" cy="0.339" r="0.013" />
<circle cx="-0.541" cy="0.358" r="0.013" />
<circle cx="-0.498" cy="0.377" r="0.013" />
<circle cx="-0.452" cy="0.396" r="0.013" />
<circle cx="-0.403" cy="0.413" r="0.013" />
<circle cx="-0.351" cy="0.429" r="0.013" />
<circle cx="-0.297" cy="0.443" r="0.013" />
<circle cx="-0.240" cy="0.455" r="0.013" />
<circle cx="-0.182" cy="0.465" r="0.013" />
<circle cx="-0.122" cy="0.472" r="0.013" />
<circle cx="-0.061" cy="0.476" r="0.013" />
<circle cx="-0.000" cy="0.478" r="0.013" />
<circle cx="0.061" cy="0.476" r="0.013" />
<circle cx="0.122" cy="0.472" r="0.013" />
<circle cx="0.182" cy="0.465" r="0.013" />
<circle cx="0.240" cy="0.455" r="0.013" />
<circle cx="0.297" cy="0.443" r="0.013" />
<circle cx="0.351" cy="0.429" r="0.013" />
<circle cx="0.403" cy="0.413" r="0.013" />
<circle cx="0.452" cy="0.396" r="0.013" />
<circle cx="0.498" cy="0.377" r="0.013" />
<circle cx="0.541" cy="0.358" r="0.013" />
<circle cx="0.582" cy="0.339" r="0.013" />
<circle cx="0.619" cy="0.319" r="0.013" />
<circle cx="0.653" cy="0.299" r="0.013" />
<circle cx="0.685" cy="0.280" r="0.013" />
<circle cx="0.714" cy="0.261" r="0.013" />
<circle cx="0.741" cy="0.243" r="0.013" />
<circle cx="0.765" cy="0.225" r="0.013" />
<circle cx="0.788" cy="0.208" r="0.013" />
<circle cx="0.808" cy="0.192" r="0.013" />
<circle cx="0.826" cy="0.177" r="0.013" />
<circle cx="0.843" cy="0.163" r="0.013" />
<circle cx="0.858" cy="0.150" r="0.013" />
<circle cx="0.871" cy="0.137" r="0.013" />
<circle cx="0.884" cy="0.126" r="0.013" />
<circle cx="0.895" cy="0.115" r="0.013" />
<circle cx="0.905" cy="0.105" r="0.013" />
<circle cx="0.914" cy="0.096" r="0.013" />
<circle cx="0.922" cy="0.088" r="0.013" />
<circle cx="0.930" cy="0.080" r="0.013" />
<circle cx="0.937" cy="0.073" r="0.013" />
<circle cx="0.943" cy="0.066" r="0.013" />
<circle cx="0.948" cy="0.060" r="0.013" />
<circle cx="0.953" cy="0.055" r="0.013" />
<circle cx="0.958" cy="0.050" r="0.013" />
<circle cx="0.962" cy="0.045" r="0.013" />
<circle cx="0.965" cy="0.041" r="0.013" />
<circle cx="0.969" cy="0.037" r="0.013" />
<circle cx="0.972" cy="0.034" r="0.013" />
<circle cx="0.974" cy="0.031" r="0.013" />
<circle cx="0.977" cy="0.028" r="0.013" />
<circle cx="0.979" cy="0.025" r="0.013" />
<circle cx="0.981" cy="0.023" r="0.013" />
<circle cx="0.983" cy="0.021" r="0.013" />
<circle cx="0.985" cy="0.019" r="0.013" />
<circle cx="0.986" cy="0.017" r="0.013" />
<circle cx="0.987" cy="0.015" r="0.013" />
<circle cx="0.989" cy="0.014" r="0.013" />
<circle cx="0.990" cy="0.013" r="0.013" />
<circle cx="0.991" cy="0.011" r="0.013" />
<circle cx="0.992" cy="0.010" r="0.013" />
<circle cx="-0.989" cy="0.008" r="0.013" />
<circle cx="-0.988" cy="0.009" r="0.013" />
<circle cx="-0.987" cy="0.010" r="0.013" />
<circle cx="-0.985" cy="0.011" r="0.013" />
<circle cx="-0.984" cy="0.012" r="0.013" />
<circle cx="-0.982" cy="0.013" r="0.013" />
<circle cx="-0.980" cy="0.014" r="0.013" />
<circle cx="-0.978" cy="0.016" r="0.013" />
<circle cx="-0.976" cy="0.018" r="0.013" />
<circle cx="-0.974" cy="0.019" r="0.013" />
<circle cx="-0.971" cy="0.021" r="0.013" />
<circle cx="-0.968" cy="0.023" r="0.013" />
<circle cx="-0.964" cy="0.026" r="0.013" />
<circle cx="-0.961" cy="0.028" r="0.013" />
<circle cx="-0.957" cy="0.031" r="0.013" />
<circle cx="-0.952" cy="0.034" r="0.013" />
<circle cx="-0.947" cy="0.038" r="0.013" />
<circle cx="-0.942" cy="0.042" r="0.013" />
<circle cx="-0.936" cy="0.046" r="0.013" />
<circle cx="-0.929" cy="0.050" r="0.013" />
<circle cx="-0.922" cy="0.055" r="0.013" />
<circle cx="-0.914" cy="0.060" r="0.013" />
<circle cx="-0.905" cy="0.066" r="0.013" />
<circle cx="-0.895" cy="0.072" r="0.013" />
<circle cx="-0.884" cy="0.079" r="0.013" />
<circle cx="-0.873" cy="0.086" r="0.013" />
<circle cx="-0.860" cy="0.094" r="0.013" />
<circle cx="-0.846" cy="0.103" r="0.013" />
<circle cx="-0.830" cy="0.111" r="0.013" />
<circle cx="-0.813" cy="0.121" r="0.013" />
<circle cx="-0.795" cy="0.131" r="0.013" />
<circle cx="-0.775" cy="0.142" r="0.013" />
<circle cx="-0.753" cy="0.153" r="0.013" />
<circle cx="-0.729" cy="0.165" r="0.013" />
<circle cx="-0.703" cy="0.177" r="0.013" />
<circle cx="-0.675" cy="0.190" r="0.013" />
<circle cx="-0.645" cy="0.203" r="0.013" />
<circle cx="-0.613" cy="0.216" r="0.013" />
<circle cx="-0.578" cy="0.229" r="0.013" />
<circle cx="-0.541" cy="0.242" r="0.013" />
<circle cx="-0.501" cy="0.255" r="0.013" />
<circle cx="-0.459" cy="0.268" r="0.013" />
<circle cx="-0.415" cy="0.280" r="0.013" />
<circle cx="-0.369" cy="0.291" r="0.013" />
<circle cx="-0.320" cy="0.301" r="0.013" />
<circle cx="-0.270" cy="0.310" r="0.013" />
<circle cx="-0.218" cy="0.318" r="0.013" />
<circle cx="-0.165" cy="0.324" r="0.013" />
<circle cx="-0.111" cy="0.329" r="0.013" />
<circle cx="-0.055" cy="0.331" r="0.013" />
<circle cx="-0.000" cy="0.332" r="0.013" />
<circle cx="0.055" cy="0.331" r="0.013" />
<circle cx="0.111" cy="0.329" r="0.013" />
<circle cx="0.165" cy="0.324" r="0.013" />
<circle cx="0.218" cy="0.318" r="0.013" />
<circle cx="0.270" cy="0.310" r="0.013" />
<circle cx="0.320" cy="0.301" r="0.013" />
<circle cx="0.369" cy="0.291" r="0.013" />
<circle cx="0.415" cy="0.280" r="0.013" />
<circle cx="0.459" cy="0.268" r="0.013" />
<circle cx="0.501" cy="0.255" r="0.013" />
<circle cx="0.541" cy="0.242" r="0.013" />
<circle cx="0.578" cy="0.229" r="0.013" />
<circle cx="0.613" cy="0.216" r="0.013" />
<circle cx="0.645" cy="0.203" r="0.013" />
<circle cx="0.675" cy="0.190" r="0.013" />
<circle cx="0.703" cy="0.177" r="0.013" />
<circle cx="0.729" cy="0.165" r="0.013" />
<circle cx="0.753" cy="0.153" r="0.013" />
<circle cx="0.775" cy="0.142" r="0.013" />
<circle cx="0.795" cy="0.131" r="0.013" />
<circle cx="0.813" cy="0.121" r="0.013" />
<circle cx="0.830" cy="0.111" r="0.013" />
<circle cx="0.846" cy="0.103" r="0.013" />
<circle cx="0.860" cy="0.094" r="0.013" />
<circle cx="0.873" cy="0.086" r="0.013" />
<circle cx="0.884" cy="0.079" r="0.013" />
<circle cx="0.895" cy="0.072" r="0.013" />
<circle cx="0.905" cy="0.066" r="0.013" />
<circle cx="0.914" cy="0.060" r="0.013" />
<circle cx="0.922" cy="0.055" r="0.013" />
<circle cx="0.929" cy="0.050" r="0.013" />
<circle cx="0.936" cy="0.046" r="0.013" />
<circle cx="0.942" cy="0.042" r="0.013" />
<circle cx="0.947" cy="0.038" r="0.013" />
<circle cx="0.952" cy="0.034" r="0.013" />
<circle cx="0.957" cy="0.031" r="0.013" />
<circle cx="0.961" cy="0.028" r="0.013" />
<circle cx="0.964" cy="0.026" r="0.013" />
<circle cx="0.968" cy="0.023" r="0.013" />
<circle cx="0.971" cy="0.021" r="0.013" />
<circle cx="0.974" cy="0.019" r="0.013" />
<circle cx="0.976" cy="0.018" r="0.013" />
<circle cx="0.978" cy="0.016" r="0.013" />
<circle cx="0.980" cy="0.014" r="0.013" />
<circle cx="0.982" cy="0.013" r="0.013" />
<circle cx="0.984" cy="0.012" r="0.013" />
<circle cx="0.985" cy="0.011" r="0.013" />
<circle cx="0.987" cy="0.010" r="0.013" />
<circle cx="0.988" cy="0.009" r="0.013" />
<circle cx="0.989" cy="0.008" r="0.013" />
</g>
</svg>