<svg xmlns="http://www.w3.org/2000/svg" width="97.8" height="100.0" viewBox="-47.9 -56.3 107.8 110.0">
<g fill="none" stroke="black" stroke-width="0.5469%" transform="translate(0, -2.6087) scale(0.9143, -0.9143)">
<polyline points="0.0,0.0 0.3,1.0 -1.6,1.2 -2.4,-1.8 1.2,-3.8 5.0,-0.0 1.9,5.7 -5.7,4.1 -6.5,-4.7 2.8,-8.6 10.0,-0.0 3.4,10.5 -9.7,7.1 -10.5,-7.6 4.3,-13.3 15.0,-0.0 4.9,15.2 -13.8,10.0 -14.6,-10.6 5.9,-18.1 20.0,-0.0 6.5,20.0 -17.8,12.9 -18.6,-13.5 7.4,-22.8 25.0,-0.0 8.0,24.7 -21.8,15.9 -22.7,-16.5 9.0,-27.6 30.0,-0.0 9.6,29.5 -25.9,18.8 -26.7,-19.4 10.5,-32.3 35.0,-0.0 11.1,34.2 -29.9,21.7 -30.7,-22.3 12.1,-37.1 40.0,-0.0 12.7,39.0 -34.0,24.7 -34.8,-25.3 13.6,-41.8 45.0,-0.0 14.2,43.7 -38.0,27.6 -38.8,-28.2 15.1,-46.6 50.0,-0.0 15.8,48.5 -42.1,30.6 -42.9,-31.2 16.7,-51.4 55.0,0.0 17.3,53.3 -46.1,33.5 -46.9,-34.1 18.2,-56.1 60.0,-0.0" />
</g>
</svg>