<svg xmlns="http://www.w3.org/2000/svg" width="161.8" height="100.0" viewBox="-3.37 11.67 171.80 110.00">
<g fill="none" stroke="black" stroke-width="0.0343%" transform="translate(0, 133.3333) scale(14.5833, -14.5833)">
<circle cx="0.11" cy="2.00" r="0.03" />
<circle cx="0.22" cy="3.00" r="0.03" />
<circle cx="0.34" cy="1.50" r="0.03" />
<circle cx="0.45" cy="4.00" r="0.03" />
<circle cx="0.56" cy="2.50" r="0.03" />
<circle cx="0.67" cy="1.33" r="0.03" />
<circle cx="0.78" cy="1.67" r="0.03" />
<circle cx="0.90" cy="5.00" r="0.03" />
<circle cx="1.01" cy="3.50" r="0.03" />
<circle cx="1.12" cy="2.33" r="0.03" />
<circle cx="1.23" cy="2.67" r="0.03" />
<circle cx="1.34" cy="1.25" r="0.03" />
<circle cx="1.46" cy="1.40" r="0.03" />
<circle cx="1.57" cy="1.75" r="0.03" />
<circle cx="1.68" cy="1.60" r="0.03" />
<circle cx="1.79" cy="6.00" r="0.03" />
<circle cx="1.91" cy="4.50" r="0.03" />
<circle cx="2.02" cy="3.33" r="0.03" />
<circle cx="2.13" cy="3.67" r="0.03" />
<circle cx="2.24" cy="2.25" r="0.03" />
<circle cx="2.35" cy="2.40" r="0.03" />
<circle cx="2.47" cy="2.75" r="0.03" />
<circle cx="2.58" cy="2.60" r="0.03" />
<circle cx="2.69" cy="1.20" r="0.03" />
<circle cx="2.80" cy="1.29" r="0.03" />
<circle cx="2.91" cy="1.43" r="0.03" />
<circle cx="3.03" cy="1.38" r="0.03" />
<circle cx="3.14" cy="1.80" r="0.03" />
<circle cx="3.25" cy="1.71" r="0.03" />
<circle cx="3.36" cy="1.57" r="0.03" />
<circle cx="3.47" cy="1.63" r="0.03" />
<circle cx="3.59" cy="7.00" r="0.03" />
<circle cx="3.70" cy="5.50" r="0.03" />
<circle cx="3.81" cy="4.33" r="0.03" />
<circle cx="3.92" cy="4.67" r="0.03" />
<circle cx="4.03" cy="3.25" r="0.03" />
<circle cx="4.15" cy="3.40" r="0.03" />
<circle cx="4.26" cy="3.75" r="0.03" />
<circle cx="4.37" cy="3.60" r="0.03" />
<circle cx="4.48" cy="2.20" r="0.03" />
<circle cx="4.59" cy="2.29" r="0.03" />
<circle cx="4.71" cy="2.43" r="0.03" />
<circle cx="4.82" cy="2.38" r="0.03" />
<circle cx="4.93" cy="2.80" r="0.03" />
<circle cx="5.04" cy="2.71" r="0.03" />
<circle cx="5.16" cy="2.57" r="0.03" />
<circle cx="5.27" cy="2.63" r="0.03" />
<circle cx="5.38" cy="1.17" r="0.03" />
<circle cx="5.49" cy="1.22" r="0.03" />
<circle cx="5.60" cy="1.30" r="0.03" />
<circle cx="5.72" cy="1.27" r="0.03" />
<circle cx="5.83" cy="1.44" r="0.03" />
<circle cx="5.94" cy="1.42" r="0.03" />
<circle cx="6.05" cy="1.36" r="0.03" />
<circle cx="6.16" cy="1.38" r="0.03" />
<circle cx="6.28" cy="1.83" r="0.03" />
<circle cx="6.39" cy="1.78" r="0.03" />
<circle cx="6.50" cy="1.70" r="0.03" />
<circle cx="6.61" cy="1.73" r="0.03" />
<circle cx="6.72" cy="1.56" r="0.03" />
<circle cx="6.84" cy="1.58" r="0.03" />
<circle cx="6.95" cy="1.64" r="0.03" />
<circle cx="7.06" cy="1.62" r="0.03" />
<circle cx="7.17" cy="8.00" r="0.03" />
<circle cx="7.28" cy="6.50" r="0.03" />
<circle cx="7.40" cy="5.33" r="0.03" />
<circle cx="7.51" cy="5.67" r="0.03" />
<circle cx="7.62" cy="4.25" r="0.03" />
<circle cx="7.73" cy="4.40" r="0.03" />
<circle cx="7.85" cy="4.75" r="0.03" />
<circle cx="7.96" cy="4.60" r="0.03" />
<circle cx="8.07" cy="3.20" r="0.03" />
<circle cx="8.18" cy="3.29" r="0.03" />
<circle cx="8.29" cy="3.43" r="0.03" />
<circle cx="8.41" cy="3.38" r="0.03" />
<circle cx="8.52" cy="3.80" r="0.03" />
<circle cx="8.63" cy="3.71" r="0.03" />
<circle cx="8.74" cy="3.57" r="0.03" />
<circle cx="8.85" cy="3.63" r="0.03" />
<circle cx="8.97" cy="2.17" r="0.03" />
<circle cx="9.08" cy="2.22" r="0.03" />
<circle cx="9.19" cy="2.30" r="0.03" />
<circle cx="9.30" cy="2.27" r="0.03" />
<circle cx="9.41" cy="2.44" r="0.03" />
<circle cx="9.53" cy="2.42" r="0.03" />
<circle cx="9.64" cy="2.36" r="0.03" />
<circle cx="9.75" cy="2.38" r="0.03" />
<circle cx="9.86" cy="2.83" r="0.03" />
<circle cx="9.97" cy="2.78" r="0.03" />
<circle cx="10.09" cy="2.70" r="0.03" />
<circle cx="10.20" cy="2.73" r="0.03" />
<circle cx="10.31" cy="2.56" r="0.03" />
<circle cx="10.42" cy="2.58" r="0.03" />
<circle cx="10.53" cy="2.64" r="0.03" />
<circle cx="10.65" cy="2.62" r="0.03" />
<circle cx="10.76" cy="1.14" r="0.03" />
<circle cx="10.87" cy="1.18" r="0.03" />
<circle cx="10.98" cy="1.23" r="0.03" />
<circle cx="11.10" cy="1.21" r="0.03" />
<circle cx="11.21" cy="1.31" r="0.03" />
</g>
</svg>