<svg xmlns="http://www.w3.org/2000/svg" width="95.9" height="100.0" viewBox="-52 -57 106 110">
<g fill="none" stroke="black" stroke-width="6.5369%" transform="translate(0, -3.5566) scale(0.0765, -0.0765)">
<circle cx="-1" cy="2" r="7" />
<circle cx="-3" cy="0" r="7" />
<circle cx="1" cy="-5" r="7" />
<circle cx="5" cy="5" r="7" />
<circle cx="0" cy="-11" r="7" />
<circle cx="12" cy="5" r="7" />
<circle cx="-5" cy="-16" r="7" />
<circle cx="19" cy="3" r="7" />
<circle cx="-12" cy="-19" r="7" />
<circle cx="-22" cy="-19" r="7" />
<circle cx="28" cy="-13" r="7" />
<circle cx="28" cy="-24" r="7" />
<circle cx="-40" cy="-7" r="7" />
<circle cx="24" cy="-36" r="7" />
<circle cx="-47" cy="6" r="7" />
<circle cx="-49" cy="21" r="7" />
<circle cx="-45" cy="38" r="7" />
<circle cx="-16" cy="-59" r="7" />
<circle cx="-35" cy="-57" r="7" />
<circle cx="-22" cy="68" r="7" />
<circle cx="-54" cy="-49" r="7" />
<circle cx="-71" cy="-35" r="7" />
<circle cx="21" cy="80" r="7" />
<circle cx="45" cy="77" r="7" />
<circle cx="-90" cy="37" r="7" />
<circle cx="90" cy="46" r="7" />
<circle cx="-81" cy="64" r="7" />
<circle cx="105" cy="20" r="7" />
<circle cx="-63" cy="89" r="7" />
<circle cx="112" cy="-11" r="7" />
<circle cx="30" cy="124" r="7" />
<circle cx="77" cy="-106" r="7" />
<circle cx="46" cy="-129" r="7" />
<circle cx="100" cy="97" r="7" />
<circle cx="-33" cy="-145" r="7" />
<circle cx="148" cy="31" r="7" />
<circle cx="157" cy="-12" r="7" />
<circle cx="152" cy="-58" r="7" />
<circle cx="-147" cy="-79" r="7" />
<circle cx="-169" cy="-36" r="7" />
<circle cx="-179" cy="13" r="7" />
<circle cx="63" cy="-169" r="7" />
<circle cx="-154" cy="114" r="7" />
<circle cx="-40" cy="-189" r="7" />
<circle cx="-119" cy="157" r="7" />
<circle cx="-94" cy="-175" r="7" />
<circle cx="-184" cy="-104" r="7" />
<circle cx="-223" cy="12" r="7" />
<circle cx="157" cy="164" r="7" />
<circle cx="-216" cy="76" r="7" />
<circle cx="202" cy="116" r="7" />
<circle cx="232" cy="57" r="7" />
<circle cx="-149" cy="189" r="7" />
<circle cx="238" cy="-81" r="7" />
<circle cx="211" cy="-147" r="7" />
<circle cx="165" cy="-205" r="7" />
<circle cx="103" cy="-248" r="7" />
<circle cx="184" cy="199" r="7" />
<circle cx="238" cy="142" r="7" />
<circle cx="-48" cy="-277" r="7" />
<circle cx="274" cy="72" r="7" />
<circle cx="-197" cy="-217" r="7" />
<circle cx="197" cy="-236" r="7" />
<circle cx="-311" cy="5" r="7" />
<circle cx="125" cy="-287" r="7" />
<circle cx="-303" cy="94" r="7" />
<circle cx="-140" cy="-300" r="7" />
<circle cx="-223" cy="-253" r="7" />
<circle cx="50" cy="343" r="7" />
<circle cx="-335" cy="-98" r="7" />
<circle cx="147" cy="321" r="7" />
<circle cx="235" cy="272" r="7" />
<circle cx="-310" cy="197" r="7" />
<circle cx="-246" cy="280" r="7" />
<circle cx="-161" cy="343" r="7" />
<circle cx="369" cy="-104" r="7" />
<circle cx="330" cy="-206" r="7" />
<circle cx="159" cy="364" r="7" />
<circle cx="173" cy="-362" r="7" />
<circle cx="339" cy="229" r="7" />
<circle cx="-164" cy="-385" r="7" />
<circle cx="421" cy="11" r="7" />
<circle cx="-355" cy="-244" r="7" />
<circle cx="371" cy="-223" r="7" />
<circle cx="299" cy="-322" r="7" />
<circle cx="-443" cy="-16" r="7" />
<circle cx="-435" cy="110" r="7" />
<circle cx="-46" cy="-455" r="7" />
<circle cx="-316" cy="335" r="7" />
<circle cx="-174" cy="-429" r="7" />
<circle cx="-213" cy="416" r="7" />
<circle cx="44" cy="477" r="7" />
<circle cx="-486" cy="-26" r="7" />
<circle cx="301" cy="388" r="7" />
<circle cx="-435" cy="245" r="7" />
<circle cx="473" cy="170" r="7" />
<circle cx="508" cy="32" r="7" />
<circle cx="456" cy="-252" r="7" />
<circle cx="39" cy="522" r="7" />
<circle cx="432" cy="326" r="7" />
<circle cx="511" cy="194" r="7" />
<circle cx="-329" cy="-449" r="7" />
<circle cx="-447" cy="-343" r="7" />
<circle cx="-530" cy="-207" r="7" />
<circle cx="410" cy="-397" r="7" />
<circle cx="286" cy="-501" r="7" />
<circle cx="-521" cy="270" r="7" />
<circle cx="-429" cy="409" r="7" />
<circle cx="-301" cy="518" r="7" />
<circle cx="-347" cy="-491" r="7" />
<circle cx="-475" cy="-378" r="7" />
<circle cx="-567" cy="-233" r="7" />
<circle cx="196" cy="585" r="7" />
<circle cx="-616" cy="-66" r="7" />
<circle cx="-565" cy="280" r="7" />
<circle cx="637" cy="74" r="7" />
<circle cx="-333" cy="550" r="7" />
<circle cx="638" cy="-108" r="7" />
<circle cx="588" cy="-285" r="7" />
<circle cx="489" cy="-442" r="7" />
<circle cx="199" cy="630" r="7" />
<circle cx="515" cy="433" r="7" />
<circle cx="-9" cy="-677" r="7" />
</g>
</svg>