<svg xmlns="http://www.w3.org/2000/svg" width="162.6" height="100.0" viewBox="19.74 -55.00 172.60 110.00">
<g fill="none" stroke="black" stroke-width="0.0424%" transform="translate(0, 0.0000) scale(11.7827, -11.7827)">
<polygon points="2.10,0.00 2.55,-0.78 3.45,-0.78 3.90,-0.00 3.45,0.78 2.55,0.78" />
<polygon points="3.60,-0.87 4.05,-1.65 4.95,-1.65 5.40,-0.87 4.95,-0.09 4.05,-0.09" />
<polygon points="5.10,-1.73 5.55,-2.51 6.45,-2.51 6.90,-1.73 6.45,-0.95 5.55,-0.95" />
<polygon points="6.60,-2.60 7.05,-3.38 7.95,-3.38 8.40,-2.60 7.95,-1.82 7.05,-1.82" />
<polygon points="8.10,-3.46 8.55,-4.24 9.45,-4.24 9.90,-3.46 9.45,-2.68 8.55,-2.68" />
<polygon points="3.60,0.87 4.05,0.09 4.95,0.09 5.40,0.87 4.95,1.65 4.05,1.65" />
<polygon points="5.10,0.00 5.55,-0.78 6.45,-0.78 6.90,-0.00 6.45,0.78 5.55,0.78" />
<polygon points="6.60,-0.87 7.05,-1.65 7.95,-1.65 8.40,-0.87 7.95,-0.09 7.05,-0.09" />
<polygon points="8.10,-1.73 8.55,-2.51 9.45,-2.51 9.90,-1.73 9.45,-0.95 8.55,-0.95" />
<polygon points="9.60,-2.60 10.05,-3.38 10.95,-3.38 11.40,-2.60 10.95,-1.82 10.05,-1.82" />
<polygon points="5.10,1.73 5.55,0.95 6.45,0.95 6.90,1.73 6.45,2.51 5.55,2.51" />
<polygon points="6.60,0.87 7.05,0.09 7.95,0.09 8.40,0.87 7.95,1.65 7.05,1.65" />
<polygon points="8.10,0.00 8.55,-0.78 9.45,-0.78 9.90,-0.00 9.45,0.78 8.55,0.78" />
<polygon points="9.60,-0.87 10.05,-1.65 10.95,-1.65 11.40,-0.87 10.95,-0.09 10.05,-0.09" />
<polygon points="11.10,-1.73 11.55,-2.51 12.45,-2.51 12.90,-1.73 12.45,-0.95 11.55,-0.95" />
<polygon points="6.60,2.60 7.05,1.82 7.95,1.82 8.40,2.60 7.95,3.38 7.05,3.38" />
<polygon points="8.10,1.73 8.55,0.95 9.45,0.95 9.90,1.73 9.45,2.51 8.55,2.51" />
<polygon points="9.60,0.87 10.05,0.09 10.95,0.09 11.40,0.87 10.95,1.65 10.05,1.65" />
<polygon points="11.10,0.00 11.55,-0.78 12.45,-0.78 12.90,-0.00 12.45,0.78 11.55,0.78" />
<polygon points="12.60,-0.87 13.05,-1.65 13.95,-1.65 14.40,-0.87 13.95,-0.09 13.05,-0.09" />
<polygon points="8.10,3.46 8.55,2.68 9.45,2.68 9.90,3.46 9.45,4.24 8.55,4.24" />
<polygon points="9.60,2.60 10.05,1.82 10.95,1.82 11.40,2.60 10.95,3.38 10.05,3.38" />
<polygon points="11.10,1.73 11.55,0.95 12.45,0.95 12.90,1.73 12.45,2.51 11.55,2.51" />
<polygon points="12.60,0.87 13.05,0.09 13.95,0.09 14.40,0.87 13.95,1.65 13.05,1.65" />
<polygon points="14.10,0.00 14.55,-0.78 15.45,-0.78 15.90,-0.00 15.45,0.78 14.55,0.78" />
</g>
</svg>