<svg xmlns="http://www.w3.org/2000/svg" width="99.6" height="100.0" viewBox="-55.3 -55.7 109.6 110.0">
<g fill="none" stroke="black" stroke-width="0.3907%" transform="translate(0, -1.3569) scale(1.2799, -1.2799)">
<circle cx="-1.2" cy="0.7" r="0.4" />
<circle cx="-0.2" cy="-1.7" r="0.4" />
<circle cx="0.2" cy="2.2" r="0.4" />
<circle cx="-1.6" cy="-2.1" r="0.4" />
<circle cx="-1.3" cy="3.0" r="0.4" />
<circle cx="-2.8" cy="-2.2" r="0.4" />
<circle cx="2.9" cy="2.9" r="0.4" />
<circle cx="-2.8" cy="3.4" r="0.4" />
<circle cx="1.4" cy="-4.6" r="0.4" />
<circle cx="-4.0" cy="3.6" r="0.4" />
<circle cx="-5.1" cy="-2.3" r="0.4" />
<circle cx="5.3" cy="3.0" r="0.4" />
<circle cx="-5.3" cy="3.7" r="0.4" />
<circle cx="-6.1" cy="-2.3" r="0.4" />
<circle cx="4.2" cy="-5.4" r="0.4" />
<circle cx="-1.4" cy="7.2" r="0.4" />
<circle cx="-3.2" cy="-7.0" r="0.4" />
<circle cx="2.9" cy="-7.3" r="0.4" />
<circle cx="3.2" cy="7.5" r="0.4" />
<circle cx="-7.5" cy="3.8" r="0.4" />
<circle cx="-8.2" cy="-2.3" r="0.4" />
<circle cx="6.8" cy="-5.7" r="0.4" />
<circle cx="7.0" cy="5.8" r="0.4" />
<circle cx="-8.6" cy="3.8" r="0.4" />
<circle cx="5.7" cy="-8.0" r="0.4" />
<circle cx="9.6" cy="3.1" r="0.4" />
<circle cx="6.0" cy="8.2" r="0.4" />
<circle cx="-5.8" cy="8.6" r="0.4" />
<circle cx="-9.7" cy="3.8" r="0.4" />
<circle cx="-7.3" cy="-7.8" r="0.4" />
<circle cx="-1.4" cy="11.2" r="0.4" />
<circle cx="-10.8" cy="3.8" r="0.4" />
<circle cx="-3.3" cy="-11.2" r="0.4" />
<circle cx="2.9" cy="-11.4" r="0.4" />
<circle cx="3.3" cy="11.8" r="0.4" />
<circle cx="-2.9" cy="11.9" r="0.4" />
<circle cx="-12.3" cy="-2.3" r="0.4" />
<circle cx="1.4" cy="-12.7" r="0.4" />
<circle cx="11.4" cy="-6.0" r="0.4" />
<circle cx="7.5" cy="10.8" r="0.4" />
<circle cx="-9.7" cy="9.2" r="0.4" />
<circle cx="-12.9" cy="3.9" r="0.4" />
<circle cx="5.9" cy="-12.5" r="0.4" />
<circle cx="10.8" cy="-8.7" r="0.4" />
<circle cx="13.7" cy="3.1" r="0.4" />
<circle cx="11.1" cy="8.8" r="0.4" />
<circle cx="-14.3" cy="-2.3" r="0.4" />
<circle cx="13.6" cy="-6.1" r="0.4" />
<circle cx="13.8" cy="6.1" r="0.4" />
<circle cx="10.2" cy="11.2" r="0.4" />
<circle cx="-1.4" cy="15.2" r="0.4" />
<circle cx="-15.0" cy="3.9" r="0.4" />
<circle cx="-15.3" cy="-2.3" r="0.4" />
<circle cx="8.7" cy="-13.2" r="0.4" />
<circle cx="15.7" cy="3.1" r="0.4" />
<circle cx="3.3" cy="15.9" r="0.4" />
<circle cx="-13.3" cy="9.5" r="0.4" />
<circle cx="-16.0" cy="3.9" r="0.4" />
<circle cx="-10.3" cy="-13.0" r="0.4" />
<circle cx="1.4" cy="-16.7" r="0.4" />
<circle cx="7.4" cy="-15.1" r="0.4" />
<circle cx="12.7" cy="11.5" r="0.4" />
<circle cx="-17.4" cy="-2.4" r="0.4" />
<circle cx="-11.6" cy="-13.2" r="0.4" />
<circle cx="-6.3" cy="-16.5" r="0.4" />
<circle cx="6.0" cy="-16.8" r="0.4" />
<circle cx="6.3" cy="17.1" r="0.4" />
<circle cx="-11.5" cy="14.3" r="0.4" />
<circle cx="-12.9" cy="-13.4" r="0.4" />
<circle cx="-7.8" cy="-17.0" r="0.4" />
<circle cx="4.5" cy="-18.2" r="0.4" />
<circle cx="17.9" cy="-6.2" r="0.4" />
<circle cx="10.5" cy="16.0" r="0.4" />
<circle cx="-7.5" cy="17.8" r="0.4" />
<circle cx="-19.1" cy="3.9" r="0.4" />
<circle cx="-17.7" cy="-8.4" r="0.4" />
<circle cx="-3.3" cy="-19.4" r="0.4" />
<circle cx="17.7" cy="-9.1" r="0.4" />
<circle cx="19.8" cy="3.1" r="0.4" />
<circle cx="3.3" cy="19.9" r="0.4" />
<circle cx="-20.1" cy="3.9" r="0.4" />
<circle cx="-20.4" cy="-2.4" r="0.4" />
<circle cx="1.4" cy="-20.7" r="0.4" />
<circle cx="7.5" cy="-19.4" r="0.4" />
<circle cx="20.0" cy="-6.2" r="0.4" />
<circle cx="20.1" cy="6.2" r="0.4" />
<circle cx="7.8" cy="19.7" r="0.4" />
<circle cx="-15.4" cy="14.9" r="0.4" />
<circle cx="-21.1" cy="3.9" r="0.4" />
<circle cx="-21.4" cy="-2.4" r="0.4" />
<circle cx="-16.6" cy="-13.8" r="0.4" />
<circle cx="16.5" cy="-14.4" r="0.4" />
<circle cx="20.1" cy="9.2" r="0.4" />
<circle cx="12.0" cy="18.6" r="0.4" />
<circle cx="-11.8" cy="19.0" r="0.4" />
<circle cx="-20.2" cy="9.8" r="0.4" />
<circle cx="-20.9" cy="-8.4" r="0.4" />
<circle cx="10.4" cy="-20.3" r="0.4" />
<circle cx="15.6" cy="-16.8" r="0.4" />
<circle cx="-1.4" cy="23.2" r="0.4" />
<circle cx="-17.8" cy="15.1" r="0.4" />
<circle cx="-19.0" cy="-14.0" r="0.4" />
<circle cx="-3.3" cy="-23.5" r="0.4" />
<circle cx="14.5" cy="-19.0" r="0.4" />
<circle cx="18.9" cy="-14.6" r="0.4" />
<circle cx="23.8" cy="3.1" r="0.4" />
<circle cx="3.3" cy="24.0" r="0.4" />
<circle cx="-14.5" cy="19.6" r="0.4" />
<circle cx="-24.2" cy="3.9" r="0.4" />
<circle cx="-24.4" cy="-2.4" r="0.4" />
<circle cx="-16.0" cy="-18.7" r="0.4" />
<circle cx="1.4" cy="-24.7" r="0.4" />
<circle cx="13.2" cy="-21.0" r="0.4" />
<circle cx="18.1" cy="-17.1" r="0.4" />
<circle cx="18.3" cy="17.2" r="0.4" />
<circle cx="-10.5" cy="23.0" r="0.4" />
<circle cx="-15.8" cy="19.8" r="0.4" />
<circle cx="-23.4" cy="9.9" r="0.4" />
<circle cx="-24.1" cy="-8.5" r="0.4" />
<circle cx="-12.2" cy="-22.6" r="0.4" />
<circle cx="-6.4" cy="-24.9" r="0.4" />
<circle cx="24.3" cy="-9.2" r="0.4" />
<circle cx="25.8" cy="3.1" r="0.4" />
<circle cx="17.4" cy="19.5" r="0.4" />
<circle cx="-6.0" cy="25.6" r="0.4" />
<circle cx="-26.2" cy="3.9" r="0.4" />
<circle cx="-18.6" cy="-19.1" r="0.4" />
<circle cx="10.5" cy="-24.7" r="0.4" />
<circle cx="26.2" cy="-6.2" r="0.4" />
<circle cx="24.2" cy="12.1" r="0.4" />
<circle cx="10.9" cy="24.9" r="0.4" />
<circle cx="-1.4" cy="27.2" r="0.4" />
<circle cx="-22.6" cy="15.5" r="0.4" />
<circle cx="-27.4" cy="-2.4" r="0.4" />
<circle cx="-23.6" cy="-14.2" r="0.4" />
<circle cx="-3.3" cy="-27.5" r="0.4" />
<circle cx="9.1" cy="-26.3" r="0.4" />
<circle cx="26.5" cy="9.3" r="0.4" />
<circle cx="3.3" cy="28.0" r="0.4" />
<circle cx="-26.6" cy="10.0" r="0.4" />
<circle cx="-28.2" cy="3.9" r="0.4" />
<circle cx="-16.4" cy="-23.5" r="0.4" />
<circle cx="-10.9" cy="-26.5" r="0.4" />
<circle cx="1.4" cy="-28.7" r="0.4" />
<circle cx="7.6" cy="-27.8" r="0.4" />
<circle cx="28.3" cy="-6.2" r="0.4" />
<circle cx="7.9" cy="28.1" r="0.4" />
<circle cx="-4.5" cy="28.9" r="0.4" />
<circle cx="-10.6" cy="27.3" r="0.4" />
<circle cx="-21.0" cy="20.5" r="0.4" />
<circle cx="-22.3" cy="-19.5" r="0.4" />
<circle cx="-12.4" cy="-27.0" r="0.4" />
<circle cx="-6.4" cy="-29.0" r="0.4" />
<circle cx="6.0" cy="-29.2" r="0.4" />
<circle cx="22.4" cy="20.1" r="0.4" />
<circle cx="12.4" cy="27.5" r="0.4" />
<circle cx="-12.0" cy="27.8" r="0.4" />
<circle cx="-30.2" cy="3.9" r="0.4" />
<circle cx="-23.5" cy="-19.6" r="0.4" />
<circle cx="-13.8" cy="-27.4" r="0.4" />
<circle cx="4.5" cy="-30.4" r="0.4" />
<circle cx="21.2" cy="-22.4" r="0.4" />
<circle cx="25.5" cy="17.7" r="0.4" />
<circle cx="16.6" cy="26.4" r="0.4" />
<circle cx="-1.4" cy="31.2" r="0.4" />
<circle cx="-18.9" cy="25.0" r="0.4" />
<circle cx="-31.2" cy="3.9" r="0.4" />
<circle cx="-28.1" cy="-14.4" r="0.4" />
<circle cx="2.9" cy="-31.6" r="0.4" />
<circle cx="14.9" cy="-28.1" r="0.4" />
<circle cx="28.1" cy="-15.1" r="0.4" />
<circle cx="30.6" cy="-9.3" r="0.4" />
<circle cx="24.8" cy="20.3" r="0.4" />
<circle cx="20.4" cy="24.8" r="0.4" />
<circle cx="3.3" cy="32.1" r="0.4" />
<circle cx="-24.7" cy="20.9" r="0.4" />
<circle cx="-28.3" cy="15.8" r="0.4" />
<circle cx="-29.2" cy="-14.4" r="0.4" />
<circle cx="-25.9" cy="-19.8" r="0.4" />
<circle cx="-11.0" cy="-30.8" r="0.4" />
<circle cx="32.4" cy="-6.2" r="0.4" />
<circle cx="32.4" cy="6.2" r="0.4" />
<circle cx="30.7" cy="12.3" r="0.4" />
<circle cx="24.0" cy="22.8" r="0.4" />
<circle cx="8.0" cy="32.2" r="0.4" />
<circle cx="-10.6" cy="31.6" r="0.4" />
<circle cx="-29.4" cy="15.8" r="0.4" />
<circle cx="-33.4" cy="-2.4" r="0.4" />
<circle cx="-27.1" cy="-19.9" r="0.4" />
<circle cx="30.4" cy="-15.1" r="0.4" />
<circle cx="32.7" cy="-9.3" r="0.4" />
<circle cx="27.2" cy="20.5" r="0.4" />
<circle cx="6.4" cy="33.6" r="0.4" />
<circle cx="-22.8" cy="25.7" r="0.4" />
<circle cx="-33.0" cy="10.1" r="0.4" />
<circle cx="-33.5" cy="-8.6" r="0.4" />
<circle cx="-19.4" cy="-28.7" r="0.4" />
<circle cx="16.4" cy="-30.7" r="0.4" />
<circle cx="26.2" cy="-23.0" r="0.4" />
<circle cx="34.4" cy="-6.2" r="0.4" />
<circle cx="32.8" cy="12.3" r="0.4" />
<circle cx="30.1" cy="18.0" r="0.4" />
<circle cx="16.7" cy="30.9" r="0.4" />
<circle cx="-19.2" cy="29.7" r="0.4" />
<circle cx="-35.3" cy="3.9" r="0.4" />
<circle cx="-3.3" cy="-35.6" r="0.4" />
<circle cx="2.9" cy="-35.6" r="0.4" />
<circle cx="15.0" cy="-32.5" r="0.4" />
<circle cx="29.4" cy="-20.6" r="0.4" />
<circle cx="32.6" cy="-15.2" r="0.4" />
<circle cx="35.9" cy="3.1" r="0.4" />
<circle cx="32.7" cy="15.2" r="0.4" />
<circle cx="29.6" cy="20.7" r="0.4" />
<circle cx="20.8" cy="29.6" r="0.4" />
<circle cx="-15.1" cy="33.0" r="0.4" />
<circle cx="-20.5" cy="30.0" r="0.4" />
<circle cx="-32.8" cy="15.9" r="0.4" />
<circle cx="28.7" cy="-23.2" r="0.4" />
<circle cx="36.4" cy="-6.3" r="0.4" />
<circle cx="34.9" cy="12.3" r="0.4" />
<circle cx="19.6" cy="31.6" r="0.4" />
<circle cx="-30.7" cy="21.4" r="0.4" />
<circle cx="-36.5" cy="-8.6" r="0.4" />
<circle cx="-6.4" cy="-37.2" r="0.4" />
<circle cx="6.1" cy="-37.3" r="0.4" />
<circle cx="12.2" cy="-35.8" r="0.4" />
<circle cx="23.2" cy="-29.9" r="0.4" />
<circle cx="34.7" cy="-15.3" r="0.4" />
<circle cx="36.9" cy="9.3" r="0.4" />
<circle cx="31.9" cy="20.8" r="0.4" />
<circle cx="28.1" cy="25.8" r="0.4" />
<circle cx="12.5" cy="36.1" r="0.4" />
<circle cx="-23.2" cy="30.5" r="0.4" />
<circle cx="-38.3" cy="3.9" r="0.4" />
<circle cx="-38.4" cy="-2.4" r="0.4" />
<circle cx="-35.7" cy="-14.6" r="0.4" />
<circle cx="-32.9" cy="-20.2" r="0.4" />
<circle cx="-24.7" cy="-29.7" r="0.4" />
<circle cx="-8.0" cy="-37.9" r="0.4" />
<circle cx="26.9" cy="-28.1" r="0.4" />
<circle cx="38.5" cy="6.3" r="0.4" />
<circle cx="27.1" cy="28.2" r="0.4" />
<circle cx="-7.6" cy="38.5" r="0.4" />
<circle cx="-24.6" cy="30.7" r="0.4" />
<circle cx="-33.0" cy="21.5" r="0.4" />
<circle cx="-39.3" cy="3.9" r="0.4" />
<circle cx="-34.0" cy="-20.2" r="0.4" />
<circle cx="-26.1" cy="-29.9" r="0.4" />
<circle cx="-3.3" cy="-39.6" r="0.4" />
<circle cx="9.2" cy="-38.7" r="0.4" />
</g>
</svg>