<svg xmlns="http://www.w3.org/2000/svg" width="161.8" height="100.0" viewBox="-4.2 -5.0 171.8 110.0">
<g fill="none" stroke="black" stroke-width="1.2650%" transform="translate(0, 100.0000) scale(0.3953, -0.3953)">
<circle cx="2.0" cy="0.0" r="1.3" />
<circle cx="4.1" cy="1.0" r="1.3" />
<circle cx="6.1" cy="1.0" r="1.3" />
<circle cx="8.2" cy="3.0" r="1.3" />
<circle cx="10.2" cy="1.0" r="1.3" />
<circle cx="12.3" cy="5.0" r="1.3" />
<circle cx="14.3" cy="3.0" r="1.3" />
<circle cx="16.4" cy="7.0" r="1.3" />
<circle cx="18.4" cy="1.0" r="1.3" />
<circle cx="20.5" cy="9.0" r="1.3" />
<circle cx="22.5" cy="5.0" r="1.3" />
<circle cx="24.6" cy="13.0" r="1.3" />
<circle cx="26.6" cy="3.0" r="1.3" />
<circle cx="28.7" cy="11.0" r="1.3" />
<circle cx="30.7" cy="7.0" r="1.3" />
<circle cx="32.7" cy="15.0" r="1.3" />
<circle cx="34.8" cy="1.0" r="1.3" />
<circle cx="36.8" cy="17.0" r="1.3" />
<circle cx="38.9" cy="9.0" r="1.3" />
<circle cx="40.9" cy="25.0" r="1.3" />
<circle cx="43.0" cy="5.0" r="1.3" />
<circle cx="45.0" cy="21.0" r="1.3" />
<circle cx="47.1" cy="13.0" r="1.3" />
<circle cx="49.1" cy="29.0" r="1.3" />
<circle cx="51.2" cy="3.0" r="1.3" />
<circle cx="53.2" cy="19.0" r="1.3" />
<circle cx="55.3" cy="11.0" r="1.3" />
<circle cx="57.3" cy="27.0" r="1.3" />
<circle cx="59.4" cy="7.0" r="1.3" />
<circle cx="61.4" cy="23.0" r="1.3" />
<circle cx="63.5" cy="15.0" r="1.3" />
<circle cx="65.5" cy="31.0" r="1.3" />
<circle cx="67.5" cy="1.0" r="1.3" />
<circle cx="69.6" cy="33.0" r="1.3" />
<circle cx="71.6" cy="17.0" r="1.3" />
<circle cx="73.7" cy="49.0" r="1.3" />
<circle cx="75.7" cy="9.0" r="1.3" />
<circle cx="77.8" cy="41.0" r="1.3" />
<circle cx="79.8" cy="25.0" r="1.3" />
<circle cx="81.9" cy="57.0" r="1.3" />
<circle cx="83.9" cy="5.0" r="1.3" />
<circle cx="86.0" cy="37.0" r="1.3" />
<circle cx="88.0" cy="21.0" r="1.3" />
<circle cx="90.1" cy="53.0" r="1.3" />
<circle cx="92.1" cy="13.0" r="1.3" />
<circle cx="94.2" cy="45.0" r="1.3" />
<circle cx="96.2" cy="29.0" r="1.3" />
<circle cx="98.2" cy="61.0" r="1.3" />
<circle cx="100.3" cy="3.0" r="1.3" />
<circle cx="102.3" cy="35.0" r="1.3" />
<circle cx="104.4" cy="19.0" r="1.3" />
<circle cx="106.4" cy="51.0" r="1.3" />
<circle cx="108.5" cy="11.0" r="1.3" />
<circle cx="110.5" cy="43.0" r="1.3" />
<circle cx="112.6" cy="27.0" r="1.3" />
<circle cx="114.6" cy="59.0" r="1.3" />
<circle cx="116.7" cy="7.0" r="1.3" />
<circle cx="118.7" cy="39.0" r="1.3" />
<circle cx="120.8" cy="23.0" r="1.3" />
<circle cx="122.8" cy="55.0" r="1.3" />
<circle cx="124.9" cy="15.0" r="1.3" />
<circle cx="126.9" cy="47.0" r="1.3" />
<circle cx="128.9" cy="31.0" r="1.3" />
<circle cx="131.0" cy="63.0" r="1.3" />
<circle cx="133.0" cy="1.0" r="1.3" />
<circle cx="135.1" cy="65.0" r="1.3" />
<circle cx="137.1" cy="33.0" r="1.3" />
<circle cx="139.2" cy="97.0" r="1.3" />
<circle cx="141.2" cy="17.0" r="1.3" />
<circle cx="143.3" cy="81.0" r="1.3" />
<circle cx="145.3" cy="49.0" r="1.3" />
<circle cx="147.4" cy="113.0" r="1.3" />
<circle cx="149.4" cy="9.0" r="1.3" />
<circle cx="151.5" cy="73.0" r="1.3" />
<circle cx="153.5" cy="41.0" r="1.3" />
<circle cx="155.6" cy="105.0" r="1.3" />
<circle cx="157.6" cy="25.0" r="1.3" />
<circle cx="159.7" cy="89.0" r="1.3" />
<circle cx="161.7" cy="57.0" r="1.3" />
<circle cx="163.7" cy="121.0" r="1.3" />
<circle cx="165.8" cy="5.0" r="1.3" />
<circle cx="167.8" cy="69.0" r="1.3" />
<circle cx="169.9" cy="37.0" r="1.3" />
<circle cx="171.9" cy="101.0" r="1.3" />
<circle cx="174.0" cy="21.0" r="1.3" />
<circle cx="176.0" cy="85.0" r="1.3" />
<circle cx="178.1" cy="53.0" r="1.3" />
<circle cx="180.1" cy="117.0" r="1.3" />
<circle cx="182.2" cy="13.0" r="1.3" />
<circle cx="184.2" cy="77.0" r="1.3" />
<circle cx="186.3" cy="45.0" r="1.3" />
<circle cx="188.3" cy="109.0" r="1.3" />
<circle cx="190.4" cy="29.0" r="1.3" />
<circle cx="192.4" cy="93.0" r="1.3" />
<circle cx="194.4" cy="61.0" r="1.3" />
<circle cx="196.5" cy="125.0" r="1.3" />
<circle cx="198.5" cy="3.0" r="1.3" />
<circle cx="200.6" cy="67.0" r="1.3" />
<circle cx="202.6" cy="35.0" r="1.3" />
<circle cx="204.7" cy="99.0" r="1.3" />
<circle cx="206.7" cy="19.0" r="1.3" />
<circle cx="208.8" cy="83.0" r="1.3" />
<circle cx="210.8" cy="51.0" r="1.3" />
<circle cx="212.9" cy="115.0" r="1.3" />
<circle cx="214.9" cy="11.0" r="1.3" />
<circle cx="217.0" cy="75.0" r="1.3" />
<circle cx="219.0" cy="43.0" r="1.3" />
<circle cx="221.1" cy="107.0" r="1.3" />
<circle cx="223.1" cy="27.0" r="1.3" />
<circle cx="225.1" cy="91.0" r="1.3" />
<circle cx="227.2" cy="59.0" r="1.3" />
<circle cx="229.2" cy="123.0" r="1.3" />
<circle cx="231.3" cy="7.0" r="1.3" />
<circle cx="233.3" cy="71.0" r="1.3" />
<circle cx="235.4" cy="39.0" r="1.3" />
<circle cx="237.4" cy="103.0" r="1.3" />
<circle cx="239.5" cy="23.0" r="1.3" />
<circle cx="241.5" cy="87.0" r="1.3" />
<circle cx="243.6" cy="55.0" r="1.3" />
<circle cx="245.6" cy="119.0" r="1.3" />
<circle cx="247.7" cy="15.0" r="1.3" />
<circle cx="249.7" cy="79.0" r="1.3" />
<circle cx="251.8" cy="47.0" r="1.3" />
<circle cx="253.8" cy="111.0" r="1.3" />
<circle cx="255.9" cy="31.0" r="1.3" />
<circle cx="257.9" cy="95.0" r="1.3" />
<circle cx="259.9" cy="63.0" r="1.3" />
<circle cx="262.0" cy="127.0" r="1.3" />
<circle cx="264.0" cy="1.0" r="1.3" />
<circle cx="266.1" cy="129.0" r="1.3" />
<circle cx="268.1" cy="65.0" r="1.3" />
<circle cx="270.2" cy="193.0" r="1.3" />
<circle cx="272.2" cy="33.0" r="1.3" />
<circle cx="274.3" cy="161.0" r="1.3" />
<circle cx="276.3" cy="97.0" r="1.3" />
<circle cx="278.4" cy="225.0" r="1.3" />
<circle cx="280.4" cy="17.0" r="1.3" />
<circle cx="282.5" cy="145.0" r="1.3" />
<circle cx="284.5" cy="81.0" r="1.3" />
<circle cx="286.6" cy="209.0" r="1.3" />
<circle cx="288.6" cy="49.0" r="1.3" />
<circle cx="290.6" cy="177.0" r="1.3" />
<circle cx="292.7" cy="113.0" r="1.3" />
<circle cx="294.7" cy="241.0" r="1.3" />
<circle cx="296.8" cy="9.0" r="1.3" />
<circle cx="298.8" cy="137.0" r="1.3" />
<circle cx="300.9" cy="73.0" r="1.3" />
<circle cx="302.9" cy="201.0" r="1.3" />
<circle cx="305.0" cy="41.0" r="1.3" />
<circle cx="307.0" cy="169.0" r="1.3" />
<circle cx="309.1" cy="105.0" r="1.3" />
<circle cx="311.1" cy="233.0" r="1.3" />
<circle cx="313.2" cy="25.0" r="1.3" />
<circle cx="315.2" cy="153.0" r="1.3" />
<circle cx="317.3" cy="89.0" r="1.3" />
<circle cx="319.3" cy="217.0" r="1.3" />
<circle cx="321.3" cy="57.0" r="1.3" />
<circle cx="323.4" cy="185.0" r="1.3" />
<circle cx="325.4" cy="121.0" r="1.3" />
<circle cx="327.5" cy="249.0" r="1.3" />
<circle cx="329.5" cy="5.0" r="1.3" />
<circle cx="331.6" cy="133.0" r="1.3" />
<circle cx="333.6" cy="69.0" r="1.3" />
<circle cx="335.7" cy="197.0" r="1.3" />
<circle cx="337.7" cy="37.0" r="1.3" />
<circle cx="339.8" cy="165.0" r="1.3" />
<circle cx="341.8" cy="101.0" r="1.3" />
<circle cx="343.9" cy="229.0" r="1.3" />
<circle cx="345.9" cy="21.0" r="1.3" />
<circle cx="348.0" cy="149.0" r="1.3" />
<circle cx="350.0" cy="85.0" r="1.3" />
<circle cx="352.1" cy="213.0" r="1.3" />
<circle cx="354.1" cy="53.0" r="1.3" />
<circle cx="356.1" cy="181.0" r="1.3" />
<circle cx="358.2" cy="117.0" r="1.3" />
<circle cx="360.2" cy="245.0" r="1.3" />
<circle cx="362.3" cy="13.0" r="1.3" />
<circle cx="364.3" cy="141.0" r="1.3" />
<circle cx="366.4" cy="77.0" r="1.3" />
<circle cx="368.4" cy="205.0" r="1.3" />
<circle cx="370.5" cy="45.0" r="1.3" />
<circle cx="372.5" cy="173.0" r="1.3" />
<circle cx="374.6" cy="109.0" r="1.3" />
<circle cx="376.6" cy="237.0" r="1.3" />
<circle cx="378.7" cy="29.0" r="1.3" />
<circle cx="380.7" cy="157.0" r="1.3" />
<circle cx="382.8" cy="93.0" r="1.3" />
<circle cx="384.8" cy="221.0" r="1.3" />
<circle cx="386.8" cy="61.0" r="1.3" />
<circle cx="388.9" cy="189.0" r="1.3" />
<circle cx="390.9" cy="125.0" r="1.3" />
<circle cx="393.0" cy="253.0" r="1.3" />
<circle cx="395.0" cy="3.0" r="1.3" />
<circle cx="397.1" cy="131.0" r="1.3" />
<circle cx="399.1" cy="67.0" r="1.3" />
<circle cx="401.2" cy="195.0" r="1.3" />
<circle cx="403.2" cy="35.0" r="1.3" />
<circle cx="405.3" cy="163.0" r="1.3" />
<circle cx="407.3" cy="99.0" r="1.3" />
<circle cx="409.4" cy="227.0" r="1.3" />
<circle cx="411.4" cy="19.0" r="1.3" />
</g>
</svg>