<svg xmlns="http://www.w3.org/2000/svg" width="161.8" height="100.0" viewBox="-60.569 -77.574 171.803 110.000">
<g fill="none" stroke="black" stroke-width="0.0053%" transform="translate(0, -45.1479) scale(94.7213, -94.7213)">
<circle cx="-0.587" cy="0.000" r="0.005" />
<circle cx="0.000" cy="0.290" r="0.005" />
<polyline points="0.000,0.000 0.011,0.001 0.022,0.003 0.033,0.006 0.043,0.010 0.053,0.015 0.063,0.022 0.071,0.030 0.079,0.039 0.085,0.048 0.091,0.059 0.095,0.070 0.098,0.082 0.100,0.095 0.100,0.108 0.099,0.121 0.096,0.135 0.092,0.149 0.086,0.163 0.078,0.177 0.069,0.190 0.059,0.203 0.046,0.216 0.032,0.228 0.017,0.240 -0.000,0.250 -0.018,0.259 -0.038,0.268 -0.059,0.275 -0.081,0.281 -0.104,0.285 -0.128,0.288 -0.153,0.290 -0.178,0.289 -0.204,0.287 -0.231,0.283 -0.257,0.277 -0.284,0.270 -0.311,0.260 -0.337,0.249 -0.363,0.235 -0.388,0.220 -0.413,0.202 -0.436,0.183 -0.459,0.162 -0.480,0.139 -0.500,0.114 -0.518,0.088 -0.534,0.060 -0.548,0.031 -0.561,-0.000 -0.571,-0.032 -0.579,-0.065 -0.584,-0.099 -0.587,-0.134 -0.587,-0.170 -0.584,-0.206 -0.578,-0.243 -0.570,-0.279 -0.559,-0.316 -0.544,-0.353 -0.527,-0.389 -0.507,-0.424 -0.484,-0.459 -0.458,-0.493 -0.428,-0.526 -0.397,-0.557 -0.362,-0.587 -0.325,-0.615 -0.285,-0.642 -0.243,-0.666 -0.198,-0.688 -0.151,-0.707 -0.103,-0.724 -0.052,-0.739 0.000,-0.750 0.054,-0.759 0.108,-0.764 0.164,-0.766 0.220,-0.765 0.277,-0.761 0.334,-0.753 0.392,-0.742 0.448,-0.727 0.505,-0.709 0.560,-0.688 0.615,-0.663 0.668,-0.634 0.719,-0.602 0.769,-0.567 0.817,-0.529 0.862,-0.488 0.904,-0.443 0.944,-0.396 0.980,-0.346 1.013,-0.294 1.043,-0.239 1.069,-0.182 1.090,-0.123 1.108,-0.062 1.122,-0.000" />
</g>
</svg>