<svg xmlns="http://www.w3.org/2000/svg" width="161.8" height="100.0" viewBox="-85.902 -5.000 171.803 110.000">
<g fill="none" stroke="black" stroke-width="0.0050%" transform="translate(0, 100.0000) scale(100.0000, -100.0000)">
<circle cx="-0.809" cy="0.000" r="0.005" />
<circle cx="0.000" cy="1.000" r="0.005" />
<polyline points="-0.809,0.000 -0.793,0.000 -0.777,0.000 -0.760,0.000 -0.744,0.000 -0.728,0.000 -0.712,0.000 -0.696,0.000 -0.680,0.000 -0.663,0.000 -0.647,0.000 -0.631,0.000 -0.615,0.000 -0.599,0.000 -0.582,0.000 -0.566,0.000 -0.550,0.000 -0.534,0.000 -0.518,0.000 -0.502,0.000 -0.485,0.000 -0.469,0.000 -0.453,0.000 -0.437,0.000 -0.421,0.000 -0.405,0.000 -0.388,0.000 -0.372,0.000 -0.356,0.000 -0.340,0.000 -0.324,0.000 -0.307,0.000 -0.291,0.000 -0.275,0.000 -0.259,0.000 -0.243,0.000 -0.227,0.000 -0.210,0.000 -0.194,0.000 -0.178,0.000 -0.162,0.000 -0.146,0.000 -0.129,0.000 -0.113,0.000 -0.097,0.000 -0.081,0.000 -0.065,0.000 -0.049,0.000 -0.032,0.000 -0.016,0.000 0.000,0.000 0.016,0.141 0.032,0.200 0.049,0.245 0.065,0.283 0.081,0.316 0.097,0.346 0.113,0.374 0.129,0.400 0.146,0.424 0.162,0.447 0.178,0.469 0.194,0.490 0.210,0.510 0.227,0.529 0.243,0.548 0.259,0.566 0.275,0.583 0.291,0.600 0.307,0.616 0.324,0.632 0.340,0.648 0.356,0.663 0.372,0.678 0.388,0.693 0.405,0.707 0.421,0.721 0.437,0.735 0.453,0.748 0.469,0.762 0.485,0.775 0.502,0.787 0.518,0.800 0.534,0.812 0.550,0.825 0.566,0.837 0.582,0.849 0.599,0.860 0.615,0.872 0.631,0.883 0.647,0.894 0.663,0.906 0.680,0.917 0.696,0.927 0.712,0.938 0.728,0.949 0.744,0.959 0.760,0.970 0.777,0.980 0.793,0.990 0.809,1.000" />
</g>
</svg>