<svg xmlns="http://www.w3.org/2000/svg" width="161.8" height="100.0" viewBox="-5.00 -53.75 171.80 110.00">
<g fill="none" stroke="black" stroke-width="0.0192%" transform="translate(0, 2.5011) scale(26.0936, -26.0936)">
<polyline points="0.00,0.00 0.06,0.48 0.12,0.93 0.19,1.31 0.25,1.62 0.31,1.83 0.37,1.92 0.43,1.90 0.50,1.77 0.56,1.54 0.62,1.22 0.68,0.84 0.74,0.43 0.81,0.01 0.87,-0.39 0.93,-0.75 0.99,-1.04 1.05,-1.25 1.12,-1.37 1.18,-1.40 1.24,-1.34 1.30,-1.21 1.36,-1.01 1.43,-0.77 1.49,-0.51 1.55,-0.25 1.61,-0.01 1.67,0.20 1.74,0.37 1.80,0.48 1.86,0.53 1.92,0.53 1.98,0.48 2.05,0.40 2.11,0.30 2.17,0.20 2.23,0.11 2.29,0.04 2.36,-0.00 2.42,-0.00 2.48,0.04 2.54,0.12 2.60,0.22 2.67,0.34 2.73,0.46 2.79,0.57 2.85,0.65 2.91,0.69 2.98,0.67 3.04,0.60 3.10,0.46 3.16,0.26 3.22,0.01 3.29,-0.27 3.35,-0.56 3.41,-0.85 3.47,-1.11 3.53,-1.32 3.60,-1.46 3.66,-1.52 3.72,-1.49 3.78,-1.36 3.84,-1.13 3.91,-0.82 3.97,-0.45 4.03,-0.03 4.09,0.41 4.15,0.84 4.22,1.23 4.28,1.56 4.34,1.80 4.40,1.94 4.46,1.96 4.53,1.87 4.59,1.66 4.65,1.35 4.71,0.96 4.77,0.51 4.84,0.04 4.90,-0.44 4.96,-0.88 5.02,-1.27 5.08,-1.57 5.15,-1.77 5.21,-1.87 5.27,-1.85 5.33,-1.72 5.39,-1.49 5.46,-1.19 5.52,-0.83 5.58,-0.43 5.64,-0.04 5.70,0.34 5.77,0.67 5.83,0.94 5.89,1.14 5.95,1.24 6.01,1.27 6.08,1.21 6.14,1.08 6.20,0.90" />
</g>
</svg>