<svg xmlns="http://www.w3.org/2000/svg" width="161.8" height="100.0" viewBox="-5.000 -54.981 171.803 110.000">
<g fill="none" stroke="black" stroke-width="0.0100%" transform="translate(0, 0.0372) scale(50.0203, -50.0203)">
<polyline points="0.000,0.000 0.032,0.002 0.065,0.010 0.097,0.022 0.129,0.040 0.162,0.062 0.194,0.090 0.226,0.122 0.259,0.159 0.291,0.201 0.323,0.247 0.356,0.298 0.388,0.352 0.421,0.410 0.453,0.471 0.485,0.533 0.518,0.597 0.550,0.661 0.582,0.724 0.615,0.785 0.647,0.841 0.679,0.892 0.712,0.936 0.744,0.969 0.776,0.991 0.809,1.000 0.841,0.993 0.873,0.968 0.906,0.925 0.938,0.862 0.970,0.778 1.003,0.674 1.035,0.549 1.067,0.407 1.100,0.249 1.132,0.079 1.165,-0.098 1.197,-0.277 1.229,-0.451 1.262,-0.614 1.294,-0.757 1.326,-0.873 1.359,-0.955 1.391,-0.996 1.423,-0.992 1.456,-0.939 1.488,-0.838 1.520,-0.689 1.553,-0.500 1.585,-0.277 1.617,-0.033 1.650,0.218 1.682,0.459 1.714,0.674 1.747,0.845 1.779,0.958 1.811,1.000 1.844,0.964 1.876,0.849 1.909,0.661 1.941,0.412 1.973,0.122 2.006,-0.184 2.038,-0.477 2.070,-0.728 2.103,-0.908 2.135,-0.994 2.167,-0.974 2.200,-0.845 2.232,-0.616 2.264,-0.311 2.297,0.036 2.329,0.384 2.361,0.686 2.394,0.902 2.426,0.997 2.458,0.954 2.491,0.774 2.523,0.478 2.555,0.105 2.588,-0.288 2.620,-0.640 2.652,-0.892 2.685,-0.998 2.717,-0.935 2.750,-0.708 2.782,-0.352 2.814,0.073 2.847,0.489 2.879,0.815 2.911,0.986 2.944,0.960 2.976,0.739 3.008,0.360 3.041,-0.099 3.073,-0.541 3.105,-0.867 3.138,-0.999 3.170,-0.901 3.202,-0.589 3.235,-0.132" />
</g>
</svg>