<svg xmlns="http://www.w3.org/2000/svg" width="161.8" height="100.0" viewBox="-85.902 546.127 171.803 110.000">
<g fill="none" stroke="black" stroke-width="0.0073%" transform="translate(0, 1202.2537) scale(68.8875, -68.8875)">
<circle cx="0.000" cy="9.452" r="0.007" />
<polyline points="-1.174,9.452 -1.151,9.249 -1.127,9.065 -1.104,8.899 -1.080,8.750 -1.057,8.618 -1.033,8.501 -1.010,8.398 -0.986,8.309 -0.963,8.233 -0.940,8.169 -0.916,8.117 -0.893,8.075 -0.869,8.043 -0.846,8.020 -0.822,8.006 -0.799,8.000 -0.775,8.002 -0.752,8.009 -0.728,8.023 -0.705,8.043 -0.681,8.067 -0.658,8.095 -0.634,8.127 -0.611,8.163 -0.587,8.201 -0.564,8.242 -0.540,8.285 -0.517,8.328 -0.493,8.373 -0.470,8.419 -0.446,8.465 -0.423,8.510 -0.399,8.555 -0.376,8.599 -0.352,8.642 -0.329,8.684 -0.305,8.724 -0.282,8.762 -0.258,8.798 -0.235,8.831 -0.211,8.862 -0.188,8.890 -0.164,8.915 -0.141,8.938 -0.117,8.956 -0.094,8.972 -0.070,8.984 -0.047,8.993 -0.023,8.998 0.000,9.000 0.023,8.998 0.047,8.993 0.070,8.984 0.094,8.972 0.117,8.956 0.141,8.938 0.164,8.915 0.188,8.890 0.211,8.862 0.235,8.831 0.258,8.798 0.282,8.762 0.305,8.724 0.329,8.684 0.352,8.642 0.376,8.599 0.399,8.555 0.423,8.510 0.446,8.465 0.470,8.419 0.493,8.373 0.517,8.328 0.540,8.285 0.564,8.242 0.587,8.201 0.611,8.163 0.634,8.127 0.658,8.095 0.681,8.067 0.705,8.043 0.728,8.023 0.752,8.009 0.775,8.002 0.799,8.000 0.822,8.006 0.846,8.020 0.869,8.043 0.893,8.075 0.916,8.117 0.940,8.169 0.963,8.233 0.986,8.309 1.010,8.398 1.033,8.501 1.057,8.618 1.080,8.750 1.104,8.899 1.127,9.065 1.151,9.249 1.174,9.452" />
</g>
</svg>