<svg xmlns="http://www.w3.org/2000/svg" width="161.8" height="100.0" viewBox="-5.000 -55.000 171.803 110.000">
<g fill="none" stroke="black" stroke-width="0.0100%" transform="translate(0, 0.0000) scale(50.0000, -50.0000)">
<circle cx="0.000" cy="0.000" r="0.010" />
<circle cx="0.000" cy="1.000" r="0.010" />
<polyline points="0.000,0.000 0.033,0.063 0.065,0.125 0.098,0.187 0.131,0.249 0.163,0.309 0.196,0.368 0.229,0.426 0.262,0.482 0.294,0.536 0.327,0.588 0.360,0.637 0.392,0.685 0.425,0.729 0.458,0.771 0.490,0.809 0.523,0.844 0.556,0.876 0.588,0.905 0.621,0.930 0.654,0.951 0.686,0.969 0.719,0.982 0.752,0.992 0.785,0.998 0.817,1.000 0.850,0.998 0.883,0.992 0.915,0.982 0.948,0.969 0.981,0.951 1.013,0.930 1.046,0.905 1.079,0.876 1.111,0.844 1.144,0.809 1.177,0.771 1.209,0.729 1.242,0.685 1.275,0.637 1.308,0.588 1.340,0.536 1.373,0.482 1.406,0.426 1.438,0.368 1.471,0.309 1.504,0.249 1.536,0.187 1.569,0.125 1.602,0.063 1.634,-0.000 1.667,-0.063 1.700,-0.125 1.732,-0.187 1.765,-0.249 1.798,-0.309 1.831,-0.368 1.863,-0.426 1.896,-0.482 1.929,-0.536 1.961,-0.588 1.994,-0.637 2.027,-0.685 2.059,-0.729 2.092,-0.771 2.125,-0.809 2.157,-0.844 2.190,-0.876 2.223,-0.905 2.255,-0.930 2.288,-0.951 2.321,-0.969 2.354,-0.982 2.386,-0.992 2.419,-0.998 2.452,-1.000 2.484,-0.998 2.517,-0.992 2.550,-0.982 2.582,-0.969 2.615,-0.951 2.648,-0.930 2.680,-0.905 2.713,-0.876 2.746,-0.844 2.778,-0.809 2.811,-0.771 2.844,-0.729 2.877,-0.685 2.909,-0.637 2.942,-0.588 2.975,-0.536 3.007,-0.482 3.040,-0.426 3.073,-0.368 3.105,-0.309 3.138,-0.249 3.171,-0.187 3.203,-0.125 3.236,-0.063" />
<polyline points="0.000,1.000 0.033,0.998 0.065,0.992 0.098,0.982 0.131,0.969 0.163,0.951 0.196,0.930 0.229,0.905 0.262,0.876 0.294,0.844 0.327,0.809 0.360,0.771 0.392,0.729 0.425,0.685 0.458,0.637 0.490,0.588 0.523,0.536 0.556,0.482 0.588,0.426 0.621,0.368 0.654,0.309 0.686,0.249 0.719,0.187 0.752,0.125 0.785,0.063 0.817,-0.000 0.850,-0.063 0.883,-0.125 0.915,-0.187 0.948,-0.249 0.981,-0.309 1.013,-0.368 1.046,-0.426 1.079,-0.482 1.111,-0.536 1.144,-0.588 1.177,-0.637 1.209,-0.685 1.242,-0.729 1.275,-0.771 1.308,-0.809 1.340,-0.844 1.373,-0.876 1.406,-0.905 1.438,-0.930 1.471,-0.951 1.504,-0.969 1.536,-0.982 1.569,-0.992 1.602,-0.998 1.634,-1.000 1.667,-0.998 1.700,-0.992 1.732,-0.982 1.765,-0.969 1.798,-0.951 1.831,-0.930 1.863,-0.905 1.896,-0.876 1.929,-0.844 1.961,-0.809 1.994,-0.771 2.027,-0.729 2.059,-0.685 2.092,-0.637 2.125,-0.588 2.157,-0.536 2.190,-0.482 2.223,-0.426 2.255,-0.368 2.288,-0.309 2.321,-0.249 2.354,-0.187 2.386,-0.125 2.419,-0.063 2.452,-0.000 2.484,0.063 2.517,0.125 2.550,0.187 2.582,0.249 2.615,0.309 2.648,0.368 2.680,0.426 2.713,0.482 2.746,0.536 2.778,0.588 2.811,0.637 2.844,0.685 2.877,0.729 2.909,0.771 2.942,0.809 2.975,0.844 3.007,0.876 3.040,0.905 3.073,0.930 3.105,0.951 3.138,0.969 3.171,0.982 3.203,0.992 3.236,0.998" />
</g>
</svg>