<svg xmlns="http://www.w3.org/2000/svg" width="104.2" height="100.0" viewBox="-37.9 -55.0 114.2 110.0">
<g fill="none" stroke="black" stroke-width="0.6432%" transform="translate(0, 0.0000) scale(0.7773, -0.7773)">
<polyline points="84.7,-54.9 90.3,-35.4 91.7,-15.9 89.2,2.8 83.2,19.7 74.2,34.5 62.9,46.5 49.9,55.6 36.0,61.5 21.9,64.3 8.1,64.2 -4.7,61.3 -16.0,56.1 -25.6,49.1 -33.1,40.7 -38.3,31.4 -41.4,21.8 -42.4,12.3 -41.4,3.3 -38.7,-4.7 -34.6,-11.6 -29.5,-17.1 -23.8,-21.2 -17.7,-23.8 -11.7,-24.9 -6.0,-24.8 -0.8,-23.5 3.6,-21.4 7.2,-18.5 9.8,-15.3 11.5,-11.8 12.4,-8.4 12.5,-5.2 11.9,-2.3 10.8,0.1 9.4,2.0 7.7,3.4 6.0,4.3 4.4,4.7 2.9,4.7 1.6,4.4 0.6,3.9 -0.2,3.3 -0.7,2.6 -1.0,2.0 -1.1,1.4 -1.1,1.0 -1.1,0.6 -1.0,0.3 -1.0,0.1 -1.0,-0.1 -1.0,-0.3 -1.1,-0.6 -1.1,-1.0 -1.1,-1.4 -1.0,-2.0 -0.7,-2.6 -0.2,-3.3 0.6,-3.9 1.6,-4.4 2.9,-4.7 4.4,-4.7 6.0,-4.3 7.7,-3.4 9.4,-2.0 10.8,-0.1 11.9,2.3 12.5,5.2 12.4,8.4 11.5,11.8 9.8,15.3 7.2,18.5 3.6,21.4 -0.8,23.5 -6.0,24.8 -11.7,24.9 -17.7,23.8 -23.8,21.2 -29.5,17.1 -34.6,11.6 -38.7,4.7 -41.4,-3.3 -42.4,-12.3 -41.4,-21.8 -38.3,-31.4 -33.1,-40.7 -25.6,-49.1 -16.0,-56.1 -4.7,-61.3 8.1,-64.2 21.9,-64.3 36.0,-61.5 49.9,-55.6 62.9,-46.5 74.2,-34.5 83.2,-19.7 89.2,-2.8 91.7,15.9 90.3,35.4 84.7,54.9" />
</g>
</svg>