<svg xmlns="http://www.w3.org/2000/svg" width="130.1" height="100.0" viewBox="-70.06 -55.00 140.13 110.00">
<g fill="none" stroke="black" stroke-width="0.0171%" transform="translate(0, 0.0000) scale(29.2893, -29.2893)">
<circle cx="-2.22" cy="-1.71" r="0.02" />
<circle cx="-1.94" cy="-1.71" r="0.02" />
<circle cx="-1.67" cy="-1.71" r="0.02" />
<circle cx="-1.39" cy="-1.71" r="0.02" />
<circle cx="-1.11" cy="-1.71" r="0.02" />
<circle cx="-0.83" cy="-1.71" r="0.02" />
<circle cx="-0.56" cy="-1.71" r="0.02" />
<circle cx="-0.28" cy="-1.71" r="0.02" />
<circle cx="0.00" cy="-1.71" r="0.02" />
<circle cx="0.28" cy="-1.71" r="0.02" />
<circle cx="0.56" cy="-1.71" r="0.02" />
<circle cx="0.83" cy="-1.71" r="0.02" />
<circle cx="1.11" cy="-1.71" r="0.02" />
<circle cx="1.39" cy="-1.71" r="0.02" />
<circle cx="1.67" cy="-1.71" r="0.02" />
<circle cx="1.94" cy="-1.71" r="0.02" />
<circle cx="2.22" cy="-1.71" r="0.02" />
<circle cx="-2.22" cy="-1.14" r="0.02" />
<circle cx="-1.94" cy="-1.14" r="0.02" />
<circle cx="-1.67" cy="-1.14" r="0.02" />
<circle cx="-1.39" cy="-1.14" r="0.02" />
<circle cx="-1.11" cy="-1.14" r="0.02" />
<circle cx="-0.83" cy="-1.14" r="0.02" />
<circle cx="-0.56" cy="-1.14" r="0.02" />
<circle cx="-0.28" cy="-1.14" r="0.02" />
<circle cx="0.00" cy="-1.14" r="0.02" />
<circle cx="0.28" cy="-1.14" r="0.02" />
<circle cx="0.56" cy="-1.14" r="0.02" />
<circle cx="0.83" cy="-1.14" r="0.02" />
<circle cx="1.11" cy="-1.14" r="0.02" />
<circle cx="1.39" cy="-1.14" r="0.02" />
<circle cx="1.67" cy="-1.14" r="0.02" />
<circle cx="1.94" cy="-1.14" r="0.02" />
<circle cx="2.22" cy="-1.14" r="0.02" />
<circle cx="-2.22" cy="-0.71" r="0.02" />
<circle cx="-1.94" cy="-0.71" r="0.02" />
<circle cx="-1.67" cy="-0.71" r="0.02" />
<circle cx="-1.39" cy="-0.71" r="0.02" />
<circle cx="-1.11" cy="-0.71" r="0.02" />
<circle cx="-0.83" cy="-0.71" r="0.02" />
<circle cx="-0.56" cy="-0.71" r="0.02" />
<circle cx="-0.28" cy="-0.71" r="0.02" />
<circle cx="0.00" cy="-0.71" r="0.02" />
<circle cx="0.28" cy="-0.71" r="0.02" />
<circle cx="0.56" cy="-0.71" r="0.02" />
<circle cx="0.83" cy="-0.71" r="0.02" />
<circle cx="1.11" cy="-0.71" r="0.02" />
<circle cx="1.39" cy="-0.71" r="0.02" />
<circle cx="1.67" cy="-0.71" r="0.02" />
<circle cx="1.94" cy="-0.71" r="0.02" />
<circle cx="2.22" cy="-0.71" r="0.02" />
<circle cx="-2.22" cy="-0.34" r="0.02" />
<circle cx="-1.94" cy="-0.34" r="0.02" />
<circle cx="-1.67" cy="-0.34" r="0.02" />
<circle cx="-1.39" cy="-0.34" r="0.02" />
<circle cx="-1.11" cy="-0.34" r="0.02" />
<circle cx="-0.83" cy="-0.34" r="0.02" />
<circle cx="-0.56" cy="-0.34" r="0.02" />
<circle cx="-0.28" cy="-0.34" r="0.02" />
<circle cx="0.00" cy="-0.34" r="0.02" />
<circle cx="0.28" cy="-0.34" r="0.02" />
<circle cx="0.56" cy="-0.34" r="0.02" />
<circle cx="0.83" cy="-0.34" r="0.02" />
<circle cx="1.11" cy="-0.34" r="0.02" />
<circle cx="1.39" cy="-0.34" r="0.02" />
<circle cx="1.67" cy="-0.34" r="0.02" />
<circle cx="1.94" cy="-0.34" r="0.02" />
<circle cx="2.22" cy="-0.34" r="0.02" />
<circle cx="-2.22" cy="0.00" r="0.02" />
<circle cx="-1.94" cy="0.00" r="0.02" />
<circle cx="-1.67" cy="0.00" r="0.02" />
<circle cx="-1.39" cy="0.00" r="0.02" />
<circle cx="-1.11" cy="0.00" r="0.02" />
<circle cx="-0.83" cy="0.00" r="0.02" />
<circle cx="-0.56" cy="0.00" r="0.02" />
<circle cx="-0.28" cy="0.00" r="0.02" />
<circle cx="0.00" cy="0.00" r="0.02" />
<circle cx="0.28" cy="0.00" r="0.02" />
<circle cx="0.56" cy="0.00" r="0.02" />
<circle cx="0.83" cy="0.00" r="0.02" />
<circle cx="1.11" cy="0.00" r="0.02" />
<circle cx="1.39" cy="0.00" r="0.02" />
<circle cx="1.67" cy="0.00" r="0.02" />
<circle cx="1.94" cy="0.00" r="0.02" />
<circle cx="2.22" cy="0.00" r="0.02" />
<circle cx="-2.22" cy="0.34" r="0.02" />
<circle cx="-1.94" cy="0.34" r="0.02" />
<circle cx="-1.67" cy="0.34" r="0.02" />
<circle cx="-1.39" cy="0.34" r="0.02" />
<circle cx="-1.11" cy="0.34" r="0.02" />
<circle cx="-0.83" cy="0.34" r="0.02" />
<circle cx="-0.56" cy="0.34" r="0.02" />
<circle cx="-0.28" cy="0.34" r="0.02" />
<circle cx="0.00" cy="0.34" r="0.02" />
<circle cx="0.28" cy="0.34" r="0.02" />
<circle cx="0.56" cy="0.34" r="0.02" />
<circle cx="0.83" cy="0.34" r="0.02" />
<circle cx="1.11" cy="0.34" r="0.02" />
<circle cx="1.39" cy="0.34" r="0.02" />
<circle cx="1.67" cy="0.34" r="0.02" />
<circle cx="1.94" cy="0.34" r="0.02" />
<circle cx="2.22" cy="0.34" r="0.02" />
<circle cx="-2.22" cy="0.71" r="0.02" />
<circle cx="-1.94" cy="0.71" r="0.02" />
<circle cx="-1.67" cy="0.71" r="0.02" />
<circle cx="-1.39" cy="0.71" r="0.02" />
<circle cx="-1.11" cy="0.71" r="0.02" />
<circle cx="-0.83" cy="0.71" r="0.02" />
<circle cx="-0.56" cy="0.71" r="0.02" />
<circle cx="-0.28" cy="0.71" r="0.02" />
<circle cx="0.00" cy="0.71" r="0.02" />
<circle cx="0.28" cy="0.71" r="0.02" />
<circle cx="0.56" cy="0.71" r="0.02" />
<circle cx="0.83" cy="0.71" r="0.02" />
<circle cx="1.11" cy="0.71" r="0.02" />
<circle cx="1.39" cy="0.71" r="0.02" />
<circle cx="1.67" cy="0.71" r="0.02" />
<circle cx="1.94" cy="0.71" r="0.02" />
<circle cx="2.22" cy="0.71" r="0.02" />
<circle cx="-2.22" cy="1.14" r="0.02" />
<circle cx="-1.94" cy="1.14" r="0.02" />
<circle cx="-1.67" cy="1.14" r="0.02" />
<circle cx="-1.39" cy="1.14" r="0.02" />
<circle cx="-1.11" cy="1.14" r="0.02" />
<circle cx="-0.83" cy="1.14" r="0.02" />
<circle cx="-0.56" cy="1.14" r="0.02" />
<circle cx="-0.28" cy="1.14" r="0.02" />
<circle cx="0.00" cy="1.14" r="0.02" />
<circle cx="0.28" cy="1.14" r="0.02" />
<circle cx="0.56" cy="1.14" r="0.02" />
<circle cx="0.83" cy="1.14" r="0.02" />
<circle cx="1.11" cy="1.14" r="0.02" />
<circle cx="1.39" cy="1.14" r="0.02" />
<circle cx="1.67" cy="1.14" r="0.02" />
<circle cx="1.94" cy="1.14" r="0.02" />
<circle cx="2.22" cy="1.14" r="0.02" />
<circle cx="-2.22" cy="1.71" r="0.02" />
<circle cx="-1.94" cy="1.71" r="0.02" />
<circle cx="-1.67" cy="1.71" r="0.02" />
<circle cx="-1.39" cy="1.71" r="0.02" />
<circle cx="-1.11" cy="1.71" r="0.02" />
<circle cx="-0.83" cy="1.71" r="0.02" />
<circle cx="-0.56" cy="1.71" r="0.02" />
<circle cx="-0.28" cy="1.71" r="0.02" />
<circle cx="0.00" cy="1.71" r="0.02" />
<circle cx="0.28" cy="1.71" r="0.02" />
<circle cx="0.56" cy="1.71" r="0.02" />
<circle cx="0.83" cy="1.71" r="0.02" />
<circle cx="1.11" cy="1.71" r="0.02" />
<circle cx="1.39" cy="1.71" r="0.02" />
<circle cx="1.67" cy="1.71" r="0.02" />
<circle cx="1.94" cy="1.71" r="0.02" />
<circle cx="2.22" cy="1.71" r="0.02" />
</g>
</svg>