<svg xmlns="http://www.w3.org/2000/svg" width="157.1" height="100.0" viewBox="-83.54 -55.00 167.08 110.00">
<g fill="none" stroke="black" stroke-width="0.0200%" transform="translate(0, 0.0000) scale(25.0000, -25.0000)">
<circle cx="-3.14" cy="-2.00" r="0.02" />
<circle cx="-2.72" cy="-2.00" r="0.02" />
<circle cx="-2.30" cy="-2.00" r="0.02" />
<circle cx="-1.88" cy="-2.00" r="0.02" />
<circle cx="-1.47" cy="-2.00" r="0.02" />
<circle cx="-1.05" cy="-2.00" r="0.02" />
<circle cx="-0.63" cy="-2.00" r="0.02" />
<circle cx="-0.21" cy="-2.00" r="0.02" />
<circle cx="0.21" cy="-2.00" r="0.02" />
<circle cx="0.63" cy="-2.00" r="0.02" />
<circle cx="1.05" cy="-2.00" r="0.02" />
<circle cx="1.47" cy="-2.00" r="0.02" />
<circle cx="1.88" cy="-2.00" r="0.02" />
<circle cx="2.30" cy="-2.00" r="0.02" />
<circle cx="2.72" cy="-2.00" r="0.02" />
<circle cx="3.14" cy="-2.00" r="0.02" />
<circle cx="-3.14" cy="-1.90" r="0.02" />
<circle cx="-2.72" cy="-1.90" r="0.02" />
<circle cx="-2.30" cy="-1.90" r="0.02" />
<circle cx="-1.88" cy="-1.90" r="0.02" />
<circle cx="-1.47" cy="-1.90" r="0.02" />
<circle cx="-1.05" cy="-1.90" r="0.02" />
<circle cx="-0.63" cy="-1.90" r="0.02" />
<circle cx="-0.21" cy="-1.90" r="0.02" />
<circle cx="0.21" cy="-1.90" r="0.02" />
<circle cx="0.63" cy="-1.90" r="0.02" />
<circle cx="1.05" cy="-1.90" r="0.02" />
<circle cx="1.47" cy="-1.90" r="0.02" />
<circle cx="1.88" cy="-1.90" r="0.02" />
<circle cx="2.30" cy="-1.90" r="0.02" />
<circle cx="2.72" cy="-1.90" r="0.02" />
<circle cx="3.14" cy="-1.90" r="0.02" />
<circle cx="-3.14" cy="-1.62" r="0.02" />
<circle cx="-2.72" cy="-1.62" r="0.02" />
<circle cx="-2.30" cy="-1.62" r="0.02" />
<circle cx="-1.88" cy="-1.62" r="0.02" />
<circle cx="-1.47" cy="-1.62" r="0.02" />
<circle cx="-1.05" cy="-1.62" r="0.02" />
<circle cx="-0.63" cy="-1.62" r="0.02" />
<circle cx="-0.21" cy="-1.62" r="0.02" />
<circle cx="0.21" cy="-1.62" r="0.02" />
<circle cx="0.63" cy="-1.62" r="0.02" />
<circle cx="1.05" cy="-1.62" r="0.02" />
<circle cx="1.47" cy="-1.62" r="0.02" />
<circle cx="1.88" cy="-1.62" r="0.02" />
<circle cx="2.30" cy="-1.62" r="0.02" />
<circle cx="2.72" cy="-1.62" r="0.02" />
<circle cx="3.14" cy="-1.62" r="0.02" />
<circle cx="-3.14" cy="-1.18" r="0.02" />
<circle cx="-2.72" cy="-1.18" r="0.02" />
<circle cx="-2.30" cy="-1.18" r="0.02" />
<circle cx="-1.88" cy="-1.18" r="0.02" />
<circle cx="-1.47" cy="-1.18" r="0.02" />
<circle cx="-1.05" cy="-1.18" r="0.02" />
<circle cx="-0.63" cy="-1.18" r="0.02" />
<circle cx="-0.21" cy="-1.18" r="0.02" />
<circle cx="0.21" cy="-1.18" r="0.02" />
<circle cx="0.63" cy="-1.18" r="0.02" />
<circle cx="1.05" cy="-1.18" r="0.02" />
<circle cx="1.47" cy="-1.18" r="0.02" />
<circle cx="1.88" cy="-1.18" r="0.02" />
<circle cx="2.30" cy="-1.18" r="0.02" />
<circle cx="2.72" cy="-1.18" r="0.02" />
<circle cx="3.14" cy="-1.18" r="0.02" />
<circle cx="-3.14" cy="-0.62" r="0.02" />
<circle cx="-2.72" cy="-0.62" r="0.02" />
<circle cx="-2.30" cy="-0.62" r="0.02" />
<circle cx="-1.88" cy="-0.62" r="0.02" />
<circle cx="-1.47" cy="-0.62" r="0.02" />
<circle cx="-1.05" cy="-0.62" r="0.02" />
<circle cx="-0.63" cy="-0.62" r="0.02" />
<circle cx="-0.21" cy="-0.62" r="0.02" />
<circle cx="0.21" cy="-0.62" r="0.02" />
<circle cx="0.63" cy="-0.62" r="0.02" />
<circle cx="1.05" cy="-0.62" r="0.02" />
<circle cx="1.47" cy="-0.62" r="0.02" />
<circle cx="1.88" cy="-0.62" r="0.02" />
<circle cx="2.30" cy="-0.62" r="0.02" />
<circle cx="2.72" cy="-0.62" r="0.02" />
<circle cx="3.14" cy="-0.62" r="0.02" />
<circle cx="-3.14" cy="0.00" r="0.02" />
<circle cx="-2.72" cy="0.00" r="0.02" />
<circle cx="-2.30" cy="0.00" r="0.02" />
<circle cx="-1.88" cy="0.00" r="0.02" />
<circle cx="-1.47" cy="0.00" r="0.02" />
<circle cx="-1.05" cy="0.00" r="0.02" />
<circle cx="-0.63" cy="0.00" r="0.02" />
<circle cx="-0.21" cy="0.00" r="0.02" />
<circle cx="0.21" cy="0.00" r="0.02" />
<circle cx="0.63" cy="0.00" r="0.02" />
<circle cx="1.05" cy="0.00" r="0.02" />
<circle cx="1.47" cy="0.00" r="0.02" />
<circle cx="1.88" cy="0.00" r="0.02" />
<circle cx="2.30" cy="0.00" r="0.02" />
<circle cx="2.72" cy="0.00" r="0.02" />
<circle cx="3.14" cy="0.00" r="0.02" />
<circle cx="-3.14" cy="0.62" r="0.02" />
<circle cx="-2.72" cy="0.62" r="0.02" />
<circle cx="-2.30" cy="0.62" r="0.02" />
<circle cx="-1.88" cy="0.62" r="0.02" />
<circle cx="-1.47" cy="0.62" r="0.02" />
<circle cx="-1.05" cy="0.62" r="0.02" />
<circle cx="-0.63" cy="0.62" r="0.02" />
<circle cx="-0.21" cy="0.62" r="0.02" />
<circle cx="0.21" cy="0.62" r="0.02" />
<circle cx="0.63" cy="0.62" r="0.02" />
<circle cx="1.05" cy="0.62" r="0.02" />
<circle cx="1.47" cy="0.62" r="0.02" />
<circle cx="1.88" cy="0.62" r="0.02" />
<circle cx="2.30" cy="0.62" r="0.02" />
<circle cx="2.72" cy="0.62" r="0.02" />
<circle cx="3.14" cy="0.62" r="0.02" />
<circle cx="-3.14" cy="1.18" r="0.02" />
<circle cx="-2.72" cy="1.18" r="0.02" />
<circle cx="-2.30" cy="1.18" r="0.02" />
<circle cx="-1.88" cy="1.18" r="0.02" />
<circle cx="-1.47" cy="1.18" r="0.02" />
<circle cx="-1.05" cy="1.18" r="0.02" />
<circle cx="-0.63" cy="1.18" r="0.02" />
<circle cx="-0.21" cy="1.18" r="0.02" />
<circle cx="0.21" cy="1.18" r="0.02" />
<circle cx="0.63" cy="1.18" r="0.02" />
<circle cx="1.05" cy="1.18" r="0.02" />
<circle cx="1.47" cy="1.18" r="0.02" />
<circle cx="1.88" cy="1.18" r="0.02" />
<circle cx="2.30" cy="1.18" r="0.02" />
<circle cx="2.72" cy="1.18" r="0.02" />
<circle cx="3.14" cy="1.18" r="0.02" />
<circle cx="-3.14" cy="1.62" r="0.02" />
<circle cx="-2.72" cy="1.62" r="0.02" />
<circle cx="-2.30" cy="1.62" r="0.02" />
<circle cx="-1.88" cy="1.62" r="0.02" />
<circle cx="-1.47" cy="1.62" r="0.02" />
<circle cx="-1.05" cy="1.62" r="0.02" />
<circle cx="-0.63" cy="1.62" r="0.02" />
<circle cx="-0.21" cy="1.62" r="0.02" />
<circle cx="0.21" cy="1.62" r="0.02" />
<circle cx="0.63" cy="1.62" r="0.02" />
<circle cx="1.05" cy="1.62" r="0.02" />
<circle cx="1.47" cy="1.62" r="0.02" />
<circle cx="1.88" cy="1.62" r="0.02" />
<circle cx="2.30" cy="1.62" r="0.02" />
<circle cx="2.72" cy="1.62" r="0.02" />
<circle cx="3.14" cy="1.62" r="0.02" />
<circle cx="-3.14" cy="1.90" r="0.02" />
<circle cx="-2.72" cy="1.90" r="0.02" />
<circle cx="-2.30" cy="1.90" r="0.02" />
<circle cx="-1.88" cy="1.90" r="0.02" />
<circle cx="-1.47" cy="1.90" r="0.02" />
<circle cx="-1.05" cy="1.90" r="0.02" />
<circle cx="-0.63" cy="1.90" r="0.02" />
<circle cx="-0.21" cy="1.90" r="0.02" />
<circle cx="0.21" cy="1.90" r="0.02" />
<circle cx="0.63" cy="1.90" r="0.02" />
<circle cx="1.05" cy="1.90" r="0.02" />
<circle cx="1.47" cy="1.90" r="0.02" />
<circle cx="1.88" cy="1.90" r="0.02" />
<circle cx="2.30" cy="1.90" r="0.02" />
<circle cx="2.72" cy="1.90" r="0.02" />
<circle cx="3.14" cy="1.90" r="0.02" />
<circle cx="-3.14" cy="2.00" r="0.02" />
<circle cx="-2.72" cy="2.00" r="0.02" />
<circle cx="-2.30" cy="2.00" r="0.02" />
<circle cx="-1.88" cy="2.00" r="0.02" />
<circle cx="-1.47" cy="2.00" r="0.02" />
<circle cx="-1.05" cy="2.00" r="0.02" />
<circle cx="-0.63" cy="2.00" r="0.02" />
<circle cx="-0.21" cy="2.00" r="0.02" />
<circle cx="0.21" cy="2.00" r="0.02" />
<circle cx="0.63" cy="2.00" r="0.02" />
<circle cx="1.05" cy="2.00" r="0.02" />
<circle cx="1.47" cy="2.00" r="0.02" />
<circle cx="1.88" cy="2.00" r="0.02" />
<circle cx="2.30" cy="2.00" r="0.02" />
<circle cx="2.72" cy="2.00" r="0.02" />
<circle cx="3.14" cy="2.00" r="0.02" />
</g>
</svg>