<svg xmlns="http://www.w3.org/2000/svg" width="161.8" height="100.0" viewBox="-85.90 -55.00 171.80 110.00">
<g fill="none" stroke="black" stroke-width="0.1000%" transform="translate(0, 0.0000) scale(5.0000, -5.0000)">
<circle cx="-16.18" cy="0.00" r="0.10" />
<circle cx="0.00" cy="10.00" r="0.10" />
<polyline points="-16.18,10.00 -15.86,0.59 -15.53,0.34 -15.21,0.27 -14.89,0.25 -14.56,0.25 -14.24,0.26 -13.92,0.30 -13.59,0.36 -13.27,0.47 -12.94,0.69 -12.62,1.22 -12.30,3.97 -11.97,-4.39 -11.65,-1.65 -11.33,-1.14 -11.00,-0.95 -10.68,-0.89 -10.36,-0.90 -10.03,-0.97 -9.71,-1.11 -9.38,-1.36 -9.06,-1.82 -8.74,-2.80 -8.41,-5.86 -8.09,10.00 -7.77,6.79 -7.44,3.76 -7.12,2.83 -6.80,2.45 -6.47,2.31 -6.15,2.33 -5.82,2.51 -5.50,2.87 -5.18,3.54 -4.85,4.85 -4.53,8.08 -4.21,10.00 -3.88,-10.00 -3.56,-8.94 -3.24,-5.74 -2.91,-4.47 -2.59,-3.86 -2.27,-3.59 -1.94,-3.55 -1.62,-3.72 -1.29,-4.16 -0.97,-5.05 -0.65,-7.01 -0.32,-10.00 0.00,10.00 0.32,10.00 0.65,5.81 0.97,3.79 1.29,2.80 1.62,2.22 1.94,1.85 2.27,1.59 2.59,1.40 2.91,1.27 3.24,1.16 3.56,1.09 3.88,1.02 4.21,0.98 4.53,0.94 4.85,0.92 5.18,0.90 5.50,0.89 5.82,0.89 6.15,0.89 6.47,0.89 6.80,0.91 7.12,0.92 7.44,0.94 7.77,0.97 8.09,1.00 8.41,1.04 8.74,1.08 9.06,1.13 9.38,1.18 9.71,1.24 10.03,1.31 10.36,1.39 10.68,1.47 11.00,1.57 11.33,1.68 11.65,1.80 11.97,1.93 12.30,2.08 12.62,2.24 12.94,2.42 13.27,2.63 13.59,2.86 13.92,3.11 14.24,3.40 14.56,3.72 14.89,4.07 15.21,4.48 15.53,4.93 15.86,5.43 16.18,6.00" />
</g>
</svg>