<svg xmlns="http://www.w3.org/2000/svg" width="161.8" height="100.0" viewBox="0.3934 -5.0000 171.8034 110.0000">
<g fill="none" stroke="black" stroke-width="0.0013%" transform="translate(0, 100.0000) scale(375.9942, -375.9942)">
<circle cx="0.0143" cy="0.0000" r="0.0013" />
<polyline points="0.0143,0.0000 0.0287,0.0000 0.0430,0.0000 0.0574,0.0000 0.0717,0.0000 0.0861,0.0000 0.1004,0.0000 0.1148,0.0000 0.1291,0.0000 0.1434,0.0000 0.1578,0.0000 0.1721,0.0000 0.1865,0.0360 0.2008,0.1093 0.2152,0.2130 0.2295,0.2660 0.2439,0.2130 0.2582,0.1093 0.2725,0.0360 0.2869,0.0000 0.3012,0.0000 0.3156,0.0000 0.3299,0.0000 0.3443,0.0000 0.3586,0.0000 0.3730,0.0000 0.3873,0.0000 0.4016,0.0000 0.4160,0.0000 0.4303,0.0000 0.4447,0.0000" />
<polyline points="0.0143,0.0000 0.0287,0.0000 0.0430,0.0000 0.0574,0.0000 0.0717,0.0000 0.0861,0.0000 0.1004,0.0000 0.1148,0.0000 0.1291,0.0000 0.1434,0.0180 0.1578,0.0332 0.1721,0.0547 0.1865,0.0807 0.2008,0.1065 0.2152,0.1258 0.2295,0.1330 0.2439,0.1258 0.2582,0.1065 0.2725,0.0807 0.2869,0.0547 0.3012,0.0332 0.3156,0.0180 0.3299,0.0000 0.3443,0.0000 0.3586,0.0000 0.3730,0.0000 0.3873,0.0000 0.4016,0.0000 0.4160,0.0000 0.4303,0.0000 0.4447,0.0000" />
<polyline points="0.0143,0.0000 0.0287,0.0000 0.0430,0.0000 0.0574,0.0000 0.0717,0.0000 0.0861,0.0000 0.1004,0.0120 0.1148,0.0183 0.1291,0.0264 0.1434,0.0364 0.1578,0.0478 0.1721,0.0597 0.1865,0.0710 0.2008,0.0803 0.2152,0.0865 0.2295,0.0887 0.2439,0.0865 0.2582,0.0803 0.2725,0.0710 0.2869,0.0597 0.3012,0.0478 0.3156,0.0364 0.3299,0.0264 0.3443,0.0183 0.3586,0.0120 0.3730,0.0000 0.3873,0.0000 0.4016,0.0000 0.4160,0.0000 0.4303,0.0000 0.4447,0.0000" />
<polyline points="0.0143,0.0000 0.0287,0.0000 0.0430,0.0000 0.0574,0.0090 0.0717,0.0124 0.0861,0.0166 0.1004,0.0216 0.1148,0.0273 0.1291,0.0337 0.1434,0.0403 0.1578,0.0470 0.1721,0.0532 0.1865,0.0587 0.2008,0.0629 0.2152,0.0656 0.2295,0.0665 0.2439,0.0656 0.2582,0.0629 0.2725,0.0587 0.2869,0.0532 0.3012,0.0470 0.3156,0.0403 0.3299,0.0337 0.3443,0.0273 0.3586,0.0216 0.3730,0.0166 0.3873,0.0124 0.4016,0.0090 0.4160,0.0000 0.4303,0.0000 0.4447,0.0000" />
</g>
</svg>