<svg xmlns="http://www.w3.org/2000/svg" width="105" height="105" viewBox="0 0 105 105">
<rect x="0" y="0" width="5" height="5" fill="rgb(250,250,250)"/>
<rect x="0" y="5" width="5" height="5" fill="rgb(248,248,248)"/>
<rect x="0" y="10" width="5" height="5" fill="rgb(245,245,245)"/>
<rect x="0" y="15" width="5" height="5" fill="rgb(242,242,242)"/>
<rect x="0" y="20" width="5" height="5" fill="rgb(238,238,238)"/>
<rect x="0" y="25" width="5" height="5" fill="rgb(234,234,234)"/>
<rect x="0" y="30" width="5" height="5" fill="rgb(230,230,230)"/>
<rect x="0" y="35" width="5" height="5" fill="rgb(226,226,226)"/>
<rect x="0" y="40" width="5" height="5" fill="rgb(223,223,223)"/>
<rect x="0" y="45" width="5" height="5" fill="rgb(221,221,221)"/>
<rect x="0" y="50" width="5" height="5" fill="rgb(220,220,220)"/>
<rect x="0" y="55" width="5" height="5" fill="rgb(221,221,221)"/>
<rect x="0" y="60" width="5" height="5" fill="rgb(223,223,223)"/>
<rect x="0" y="65" width="5" height="5" fill="rgb(226,226,226)"/>
<rect x="0" y="70" width="5" height="5" fill="rgb(230,230,230)"/>
<rect x="0" y="75" width="5" height="5" fill="rgb(234,234,234)"/>
<rect x="0" y="80" width="5" height="5" fill="rgb(238,238,238)"/>
<rect x="0" y="85" width="5" height="5" fill="rgb(242,242,242)"/>
<rect x="0" y="90" width="5" height="5" fill="rgb(245,245,245)"/>
<rect x="0" y="95" width="5" height="5" fill="rgb(248,248,248)"/>
<rect x="0" y="100" width="5" height="5" fill="rgb(250,250,250)"/>
<rect x="5" y="0" width="5" height="5" fill="rgb(248,248,248)"/>
<rect x="5" y="5" width="5" height="5" fill="rgb(245,245,245)"/>
<rect x="5" y="10" width="5" height="5" fill="rgb(241,241,241)"/>
<rect x="5" y="15" width="5" height="5" fill="rgb(236,236,236)"/>
<rect x="5" y="20" width="5" height="5" fill="rgb(230,230,230)"/>
<rect x="5" y="25" width="5" height="5" fill="rgb(224,224,224)"/>
<rect x="5" y="30" width="5" height="5" fill="rgb(218,218,218)"/>
<rect x="5" y="35" width="5" height="5" fill="rgb(213,213,213)"/>
<rect x="5" y="40" width="5" height="5" fill="rgb(208,208,208)"/>
<rect x="5" y="45" width="5" height="5" fill="rgb(206,206,206)"/>
<rect x="5" y="50" width="5" height="5" fill="rgb(205,205,205)"/>
<rect x="5" y="55" width="5" height="5" fill="rgb(206,206,206)"/>
<rect x="5" y="60" width="5" height="5" fill="rgb(208,208,208)"/>
<rect x="5" y="65" width="5" height="5" fill="rgb(213,213,213)"/>
<rect x="5" y="70" width="5" height="5" fill="rgb(218,218,218)"/>
<rect x="5" y="75" width="5" height="5" fill="rgb(224,224,224)"/>
<rect x="5" y="80" width="5" height="5" fill="rgb(230,230,230)"/>
<rect x="5" y="85" width="5" height="5" fill="rgb(236,236,236)"/>
<rect x="5" y="90" width="5" height="5" fill="rgb(241,241,241)"/>
<rect x="5" y="95" width="5" height="5" fill="rgb(245,245,245)"/>
<rect x="5" y="100" width="5" height="5" fill="rgb(248,248,248)"/>
<rect x="10" y="0" width="5" height="5" fill="rgb(245,245,245)"/>
<rect x="10" y="5" width="5" height="5" fill="rgb(241,241,241)"/>
<rect x="10" y="10" width="5" height="5" fill="rgb(235,235,235)"/>
<rect x="10" y="15" width="5" height="5" fill="rgb(228,228,228)"/>
<rect x="10" y="20" width="5" height="5" fill="rgb(220,220,220)"/>
<rect x="10" y="25" width="5" height="5" fill="rgb(212,212,212)"/>
<rect x="10" y="30" width="5" height="5" fill="rgb(204,204,204)"/>
<rect x="10" y="35" width="5" height="5" fill="rgb(196,196,196)"/>
<rect x="10" y="40" width="5" height="5" fill="rgb(190,190,190)"/>
<rect x="10" y="45" width="5" height="5" fill="rgb(186,186,186)"/>
<rect x="10" y="50" width="5" height="5" fill="rgb(184,184,184)"/>
<rect x="10" y="55" width="5" height="5" fill="rgb(186,186,186)"/>
<rect x="10" y="60" width="5" height="5" fill="rgb(190,190,190)"/>
<rect x="10" y="65" width="5" height="5" fill="rgb(196,196,196)"/>
<rect x="10" y="70" width="5" height="5" fill="rgb(204,204,204)"/>
<rect x="10" y="75" width="5" height="5" fill="rgb(212,212,212)"/>
<rect x="10" y="80" width="5" height="5" fill="rgb(220,220,220)"/>
<rect x="10" y="85" width="5" height="5" fill="rgb(228,228,228)"/>
<rect x="10" y="90" width="5" height="5" fill="rgb(235,235,235)"/>
<rect x="10" y="95" width="5" height="5" fill="rgb(241,241,241)"/>
<rect x="10" y="100" width="5" height="5" fill="rgb(245,245,245)"/>
<rect x="15" y="0" width="5" height="5" fill="rgb(242,242,242)"/>
<rect x="15" y="5" width="5" height="5" fill="rgb(236,236,236)"/>
<rect x="15" y="10" width="5" height="5" fill="rgb(228,228,228)"/>
<rect x="15" y="15" width="5" height="5" fill="rgb(219,219,219)"/>
<rect x="15" y="20" width="5" height="5" fill="rgb(208,208,208)"/>
<rect x="15" y="25" width="5" height="5" fill="rgb(197,197,197)"/>
<rect x="15" y="30" width="5" height="5" fill="rgb(186,186,186)"/>
<rect x="15" y="35" width="5" height="5" fill="rgb(175,175,175)"/>
<rect x="15" y="40" width="5" height="5" fill="rgb(167,167,167)"/>
<rect x="15" y="45" width="5" height="5" fill="rgb(161,161,161)"/>
<rect x="15" y="50" width="5" height="5" fill="rgb(159,159,159)"/>
<rect x="15" y="55" width="5" height="5" fill="rgb(161,161,161)"/>
<rect x="15" y="60" width="5" height="5" fill="rgb(167,167,167)"/>
<rect x="15" y="65" width="5" height="5" fill="rgb(175,175,175)"/>
<rect x="15" y="70" width="5" height="5" fill="rgb(186,186,186)"/>
<rect x="15" y="75" width="5" height="5" fill="rgb(197,197,197)"/>
<rect x="15" y="80" width="5" height="5" fill="rgb(208,208,208)"/>
<rect x="15" y="85" width="5" height="5" fill="rgb(219,219,219)"/>
<rect x="15" y="90" width="5" height="5" fill="rgb(228,228,228)"/>
<rect x="15" y="95" width="5" height="5" fill="rgb(236,236,236)"/>
<rect x="15" y="100" width="5" height="5" fill="rgb(242,242,242)"/>
<rect x="20" y="0" width="5" height="5" fill="rgb(238,238,238)"/>
<rect x="20" y="5" width="5" height="5" fill="rgb(230,230,230)"/>
<rect x="20" y="10" width="5" height="5" fill="rgb(220,220,220)"/>
<rect x="20" y="15" width="5" height="5" fill="rgb(208,208,208)"/>
<rect x="20" y="20" width="5" height="5" fill="rgb(195,195,195)"/>
<rect x="20" y="25" width="5" height="5" fill="rgb(180,180,180)"/>
<rect x="20" y="30" width="5" height="5" fill="rgb(165,165,165)"/>
<rect x="20" y="35" width="5" height="5" fill="rgb(151,151,151)"/>
<rect x="20" y="40" width="5" height="5" fill="rgb(140,140,140)"/>
<rect x="20" y="45" width="5" height="5" fill="rgb(133,133,133)"/>
<rect x="20" y="50" width="5" height="5" fill="rgb(131,131,131)"/>
<rect x="20" y="55" width="5" height="5" fill="rgb(133,133,133)"/>
<rect x="20" y="60" width="5" height="5" fill="rgb(140,140,140)"/>
<rect x="20" y="65" width="5" height="5" fill="rgb(151,151,151)"/>
<rect x="20" y="70" width="5" height="5" fill="rgb(165,165,165)"/>
<rect x="20" y="75" width="5" height="5" fill="rgb(180,180,180)"/>
<rect x="20" y="80" width="5" height="5" fill="rgb(195,195,195)"/>
<rect x="20" y="85" width="5" height="5" fill="rgb(208,208,208)"/>
<rect x="20" y="90" width="5" height="5" fill="rgb(220,220,220)"/>
<rect x="20" y="95" width="5" height="5" fill="rgb(230,230,230)"/>
<rect x="20" y="100" width="5" height="5" fill="rgb(238,238,238)"/>
<rect x="25" y="0" width="5" height="5" fill="rgb(234,234,234)"/>
<rect x="25" y="5" width="5" height="5" fill="rgb(224,224,224)"/>
<rect x="25" y="10" width="5" height="5" fill="rgb(212,212,212)"/>
<rect x="25" y="15" width="5" height="5" fill="rgb(197,197,197)"/>
<rect x="25" y="20" width="5" height="5" fill="rgb(180,180,180)"/>
<rect x="25" y="25" width="5" height="5" fill="rgb(161,161,161)"/>
<rect x="25" y="30" width="5" height="5" fill="rgb(143,143,143)"/>
<rect x="25" y="35" width="5" height="5" fill="rgb(126,126,126)"/>
<rect x="25" y="40" width="5" height="5" fill="rgb(112,112,112)"/>
<rect x="25" y="45" width="5" height="5" fill="rgb(103,103,103)"/>
<rect x="25" y="50" width="5" height="5" fill="rgb(100,100,100)"/>
<rect x="25" y="55" width="5" height="5" fill="rgb(103,103,103)"/>
<rect x="25" y="60" width="5" height="5" fill="rgb(112,112,112)"/>
<rect x="25" y="65" width="5" height="5" fill="rgb(126,126,126)"/>
<rect x="25" y="70" width="5" height="5" fill="rgb(143,143,143)"/>
<rect x="25" y="75" width="5" height="5" fill="rgb(161,161,161)"/>
<rect x="25" y="80" width="5" height="5" fill="rgb(180,180,180)"/>
<rect x="25" y="85" width="5" height="5" fill="rgb(197,197,197)"/>
<rect x="25" y="90" width="5" height="5" fill="rgb(212,212,212)"/>
<rect x="25" y="95" width="5" height="5" fill="rgb(224,224,224)"/>
<rect x="25" y="100" width="5" height="5" fill="rgb(234,234,234)"/>
<rect x="30" y="0" width="5" height="5" fill="rgb(230,230,230)"/>
<rect x="30" y="5" width="5" height="5" fill="rgb(218,218,218)"/>
<rect x="30" y="10" width="5" height="5" fill="rgb(204,204,204)"/>
<rect x="30" y="15" width="5" height="5" fill="rgb(186,186,186)"/>
<rect x="30" y="20" width="5" height="5" fill="rgb(165,165,165)"/>
<rect x="30" y="25" width="5" height="5" fill="rgb(143,143,143)"/>
<rect x="30" y="30" width="5" height="5" fill="rgb(121,121,121)"/>
<rect x="30" y="35" width="5" height="5" fill="rgb(100,100,100)"/>
<rect x="30" y="40" width="5" height="5" fill="rgb(84,84,84)"/>
<rect x="30" y="45" width="5" height="5" fill="rgb(73,73,73)"/>
<rect x="30" y="50" width="5" height="5" fill="rgb(70,70,70)"/>
<rect x="30" y="55" width="5" height="5" fill="rgb(73,73,73)"/>
<rect x="30" y="60" width="5" height="5" fill="rgb(84,84,84)"/>
<rect x="30" y="65" width="5" height="5" fill="rgb(100,100,100)"/>
<rect x="30" y="70" width="5" height="5" fill="rgb(121,121,121)"/>
<rect x="30" y="75" width="5" height="5" fill="rgb(143,143,143)"/>
<rect x="30" y="80" width="5" height="5" fill="rgb(165,165,165)"/>
<rect x="30" y="85" width="5" height="5" fill="rgb(186,186,186)"/>
<rect x="30" y="90" width="5" height="5" fill="rgb(204,204,204)"/>
<rect x="30" y="95" width="5" height="5" fill="rgb(218,218,218)"/>
<rect x="30" y="100" width="5" height="5" fill="rgb(230,230,230)"/>
<rect x="35" y="0" width="5" height="5" fill="rgb(226,226,226)"/>
<rect x="35" y="5" width="5" height="5" fill="rgb(213,213,213)"/>
<rect x="35" y="10" width="5" height="5" fill="rgb(196,196,196)"/>
<rect x="35" y="15" width="5" height="5" fill="rgb(175,175,175)"/>
<rect x="35" y="20" width="5" height="5" fill="rgb(151,151,151)"/>
<rect x="35" y="25" width="5" height="5" fill="rgb(126,126,126)"/>
<rect x="35" y="30" width="5" height="5" fill="rgb(100,100,100)"/>
<rect x="35" y="35" width="5" height="5" fill="rgb(77,77,77)"/>
<rect x="35" y="40" width="5" height="5" fill="rgb(58,58,58)"/>
<rect x="35" y="45" width="5" height="5" fill="rgb(46,46,46)"/>
<rect x="35" y="50" width="5" height="5" fill="rgb(42,42,42)"/>
<rect x="35" y="55" width="5" height="5" fill="rgb(46,46,46)"/>
<rect x="35" y="60" width="5" height="5" fill="rgb(58,58,58)"/>
<rect x="35" y="65" width="5" height="5" fill="rgb(77,77,77)"/>
<rect x="35" y="70" width="5" height="5" fill="rgb(100,100,100)"/>
<rect x="35" y="75" width="5" height="5" fill="rgb(126,126,126)"/>
<rect x="35" y="80" width="5" height="5" fill="rgb(151,151,151)"/>
<rect x="35" y="85" width="5" height="5" fill="rgb(175,175,175)"/>
<rect x="35" y="90" width="5" height="5" fill="rgb(196,196,196)"/>
<rect x="35" y="95" width="5" height="5" fill="rgb(213,213,213)"/>
<rect x="35" y="100" width="5" height="5" fill="rgb(226,226,226)"/>
<rect x="40" y="0" width="5" height="5" fill="rgb(223,223,223)"/>
<rect x="40" y="5" width="5" height="5" fill="rgb(208,208,208)"/>
<rect x="40" y="10" width="5" height="5" fill="rgb(190,190,190)"/>
<rect x="40" y="15" width="5" height="5" fill="rgb(167,167,167)"/>
<rect x="40" y="20" width="5" height="5" fill="rgb(140,140,140)"/>
<rect x="40" y="25" width="5" height="5" fill="rgb(112,112,112)"/>
<rect x="40" y="30" width="5" height="5" fill="rgb(84,84,84)"/>
<rect x="40" y="35" width="5" height="5" fill="rgb(58,58,58)"/>
<rect x="40" y="40" width="5" height="5" fill="rgb(38,38,38)"/>
<rect x="40" y="45" width="5" height="5" fill="rgb(24,24,24)"/>
<rect x="40" y="50" width="5" height="5" fill="rgb(20,20,20)"/>
<rect x="40" y="55" width="5" height="5" fill="rgb(24,24,24)"/>
<rect x="40" y="60" width="5" height="5" fill="rgb(38,38,38)"/>
<rect x="40" y="65" width="5" height="5" fill="rgb(58,58,58)"/>
<rect x="40" y="70" width="5" height="5" fill="rgb(84,84,84)"/>
<rect x="40" y="75" width="5" height="5" fill="rgb(112,112,112)"/>
<rect x="40" y="80" width="5" height="5" fill="rgb(140,140,140)"/>
<rect x="40" y="85" width="5" height="5" fill="rgb(167,167,167)"/>
<rect x="40" y="90" width="5" height="5" fill="rgb(190,190,190)"/>
<rect x="40" y="95" width="5" height="5" fill="rgb(208,208,208)"/>
<rect x="40" y="100" width="5" height="5" fill="rgb(223,223,223)"/>
<rect x="45" y="0" width="5" height="5" fill="rgb(221,221,221)"/>
<rect x="45" y="5" width="5" height="5" fill="rgb(206,206,206)"/>
<rect x="45" y="10" width="5" height="5" fill="rgb(186,186,186)"/>
<rect x="45" y="15" width="5" height="5" fill="rgb(161,161,161)"/>
<rect x="45" y="20" width="5" height="5" fill="rgb(133,133,133)"/>
<rect x="45" y="25" width="5" height="5" fill="rgb(103,103,103)"/>
<rect x="45" y="30" width="5" height="5" fill="rgb(73,73,73)"/>
<rect x="45" y="35" width="5" height="5" fill="rgb(46,46,46)"/>
<rect x="45" y="40" width="5" height="5" fill="rgb(24,24,24)"/>
<rect x="45" y="45" width="5" height="5" fill="rgb(10,10,10)"/>
<rect x="45" y="50" width="5" height="5" fill="rgb(5,5,5)"/>
<rect x="45" y="55" width="5" height="5" fill="rgb(10,10,10)"/>
<rect x="45" y="60" width="5" height="5" fill="rgb(24,24,24)"/>
<rect x="45" y="65" width="5" height="5" fill="rgb(46,46,46)"/>
<rect x="45" y="70" width="5" height="5" fill="rgb(73,73,73)"/>
<rect x="45" y="75" width="5" height="5" fill="rgb(103,103,103)"/>
<rect x="45" y="80" width="5" height="5" fill="rgb(133,133,133)"/>
<rect x="45" y="85" width="5" height="5" fill="rgb(161,161,161)"/>
<rect x="45" y="90" width="5" height="5" fill="rgb(186,186,186)"/>
<rect x="45" y="95" width="5" height="5" fill="rgb(206,206,206)"/>
<rect x="45" y="100" width="5" height="5" fill="rgb(221,221,221)"/>
<rect x="50" y="0" width="5" height="5" fill="rgb(220,220,220)"/>
<rect x="50" y="5" width="5" height="5" fill="rgb(205,205,205)"/>
<rect x="50" y="10" width="5" height="5" fill="rgb(184,184,184)"/>
<rect x="50" y="15" width="5" height="5" fill="rgb(159,159,159)"/>
<rect x="50" y="20" width="5" height="5" fill="rgb(131,131,131)"/>
<rect x="50" y="25" width="5" height="5" fill="rgb(100,100,100)"/>
<rect x="50" y="30" width="5" height="5" fill="rgb(70,70,70)"/>
<rect x="50" y="35" width="5" height="5" fill="rgb(42,42,42)"/>
<rect x="50" y="40" width="5" height="5" fill="rgb(20,20,20)"/>
<rect x="50" y="45" width="5" height="5" fill="rgb(5,5,5)"/>
<rect x="50" y="50" width="5" height="5" fill="rgb(0,0,0)"/>
<rect x="50" y="55" width="5" height="5" fill="rgb(5,5,5)"/>
<rect x="50" y="60" width="5" height="5" fill="rgb(20,20,20)"/>
<rect x="50" y="65" width="5" height="5" fill="rgb(42,42,42)"/>
<rect x="50" y="70" width="5" height="5" fill="rgb(70,70,70)"/>
<rect x="50" y="75" width="5" height="5" fill="rgb(100,100,100)"/>
<rect x="50" y="80" width="5" height="5" fill="rgb(131,131,131)"/>
<rect x="50" y="85" width="5" height="5" fill="rgb(159,159,159)"/>
<rect x="50" y="90" width="5" height="5" fill="rgb(184,184,184)"/>
<rect x="50" y="95" width="5" height="5" fill="rgb(205,205,205)"/>
<rect x="50" y="100" width="5" height="5" fill="rgb(220,220,220)"/>
<rect x="55" y="0" width="5" height="5" fill="rgb(221,221,221)"/>
<rect x="55" y="5" width="5" height="5" fill="rgb(206,206,206)"/>
<rect x="55" y="10" width="5" height="5" fill="rgb(186,186,186)"/>
<rect x="55" y="15" width="5" height="5" fill="rgb(161,161,161)"/>
<rect x="55" y="20" width="5" height="5" fill="rgb(133,133,133)"/>
<rect x="55" y="25" width="5" height="5" fill="rgb(103,103,103)"/>
<rect x="55" y="30" width="5" height="5" fill="rgb(73,73,73)"/>
<rect x="55" y="35" width="5" height="5" fill="rgb(46,46,46)"/>
<rect x="55" y="40" width="5" height="5" fill="rgb(24,24,24)"/>
<rect x="55" y="45" width="5" height="5" fill="rgb(10,10,10)"/>
<rect x="55" y="50" width="5" height="5" fill="rgb(5,5,5)"/>
<rect x="55" y="55" width="5" height="5" fill="rgb(10,10,10)"/>
<rect x="55" y="60" width="5" height="5" fill="rgb(24,24,24)"/>
<rect x="55" y="65" width="5" height="5" fill="rgb(46,46,46)"/>
<rect x="55" y="70" width="5" height="5" fill="rgb(73,73,73)"/>
<rect x="55" y="75" width="5" height="5" fill="rgb(103,103,103)"/>
<rect x="55" y="80" width="5" height="5" fill="rgb(133,133,133)"/>
<rect x="55" y="85" width="5" height="5" fill="rgb(161,161,161)"/>
<rect x="55" y="90" width="5" height="5" fill="rgb(186,186,186)"/>
<rect x="55" y="95" width="5" height="5" fill="rgb(206,206,206)"/>
<rect x="55" y="100" width="5" height="5" fill="rgb(221,221,221)"/>
<rect x="60" y="0" width="5" height="5" fill="rgb(223,223,223)"/>
<rect x="60" y="5" width="5" height="5" fill="rgb(208,208,208)"/>
<rect x="60" y="10" width="5" height="5" fill="rgb(190,190,190)"/>
<rect x="60" y="15" width="5" height="5" fill="rgb(167,167,167)"/>
<rect x="60" y="20" width="5" height="5" fill="rgb(140,140,140)"/>
<rect x="60" y="25" width="5" height="5" fill="rgb(112,112,112)"/>
<rect x="60" y="30" width="5" height="5" fill="rgb(84,84,84)"/>
<rect x="60" y="35" width="5" height="5" fill="rgb(58,58,58)"/>
<rect x="60" y="40" width="5" height="5" fill="rgb(38,38,38)"/>
<rect x="60" y="45" width="5" height="5" fill="rgb(24,24,24)"/>
<rect x="60" y="50" width="5" height="5" fill="rgb(20,20,20)"/>
<rect x="60" y="55" width="5" height="5" fill="rgb(24,24,24)"/>
<rect x="60" y="60" width="5" height="5" fill="rgb(38,38,38)"/>
<rect x="60" y="65" width="5" height="5" fill="rgb(58,58,58)"/>
<rect x="60" y="70" width="5" height="5" fill="rgb(84,84,84)"/>
<rect x="60" y="75" width="5" height="5" fill="rgb(112,112,112)"/>
<rect x="60" y="80" width="5" height="5" fill="rgb(140,140,140)"/>
<rect x="60" y="85" width="5" height="5" fill="rgb(167,167,167)"/>
<rect x="60" y="90" width="5" height="5" fill="rgb(190,190,190)"/>
<rect x="60" y="95" width="5" height="5" fill="rgb(208,208,208)"/>
<rect x="60" y="100" width="5" height="5" fill="rgb(223,223,223)"/>
<rect x="65" y="0" width="5" height="5" fill="rgb(226,226,226)"/>
<rect x="65" y="5" width="5" height="5" fill="rgb(213,213,213)"/>
<rect x="65" y="10" width="5" height="5" fill="rgb(196,196,196)"/>
<rect x="65" y="15" width="5" height="5" fill="rgb(175,175,175)"/>
<rect x="65" y="20" width="5" height="5" fill="rgb(151,151,151)"/>
<rect x="65" y="25" width="5" height="5" fill="rgb(126,126,126)"/>
<rect x="65" y="30" width="5" height="5" fill="rgb(100,100,100)"/>
<rect x="65" y="35" width="5" height="5" fill="rgb(77,77,77)"/>
<rect x="65" y="40" width="5" height="5" fill="rgb(58,58,58)"/>
<rect x="65" y="45" width="5" height="5" fill="rgb(46,46,46)"/>
<rect x="65" y="50" width="5" height="5" fill="rgb(42,42,42)"/>
<rect x="65" y="55" width="5" height="5" fill="rgb(46,46,46)"/>
<rect x="65" y="60" width="5" height="5" fill="rgb(58,58,58)"/>
<rect x="65" y="65" width="5" height="5" fill="rgb(77,77,77)"/>
<rect x="65" y="70" width="5" height="5" fill="rgb(100,100,100)"/>
<rect x="65" y="75" width="5" height="5" fill="rgb(126,126,126)"/>
<rect x="65" y="80" width="5" height="5" fill="rgb(151,151,151)"/>
<rect x="65" y="85" width="5" height="5" fill="rgb(175,175,175)"/>
<rect x="65" y="90" width="5" height="5" fill="rgb(196,196,196)"/>
<rect x="65" y="95" width="5" height="5" fill="rgb(213,213,213)"/>
<rect x="65" y="100" width="5" height="5" fill="rgb(226,226,226)"/>
<rect x="70" y="0" width="5" height="5" fill="rgb(230,230,230)"/>
<rect x="70" y="5" width="5" height="5" fill="rgb(218,218,218)"/>
<rect x="70" y="10" width="5" height="5" fill="rgb(204,204,204)"/>
<rect x="70" y="15" width="5" height="5" fill="rgb(186,186,186)"/>
<rect x="70" y="20" width="5" height="5" fill="rgb(165,165,165)"/>
<rect x="70" y="25" width="5" height="5" fill="rgb(143,143,143)"/>
<rect x="70" y="30" width="5" height="5" fill="rgb(121,121,121)"/>
<rect x="70" y="35" width="5" height="5" fill="rgb(100,100,100)"/>
<rect x="70" y="40" width="5" height="5" fill="rgb(84,84,84)"/>
<rect x="70" y="45" width="5" height="5" fill="rgb(73,73,73)"/>
<rect x="70" y="50" width="5" height="5" fill="rgb(70,70,70)"/>
<rect x="70" y="55" width="5" height="5" fill="rgb(73,73,73)"/>
<rect x="70" y="60" width="5" height="5" fill="rgb(84,84,84)"/>
<rect x="70" y="65" width="5" height="5" fill="rgb(100,100,100)"/>
<rect x="70" y="70" width="5" height="5" fill="rgb(121,121,121)"/>
<rect x="70" y="75" width="5" height="5" fill="rgb(143,143,143)"/>
<rect x="70" y="80" width="5" height="5" fill="rgb(165,165,165)"/>
<rect x="70" y="85" width="5" height="5" fill="rgb(186,186,186)"/>
<rect x="70" y="90" width="5" height="5" fill="rgb(204,204,204)"/>
<rect x="70" y="95" width="5" height="5" fill="rgb(218,218,218)"/>
<rect x="70" y="100" width="5" height="5" fill="rgb(230,230,230)"/>
<rect x="75" y="0" width="5" height="5" fill="rgb(234,234,234)"/>
<rect x="75" y="5" width="5" height="5" fill="rgb(224,224,224)"/>
<rect x="75" y="10" width="5" height="5" fill="rgb(212,212,212)"/>
<rect x="75" y="15" width="5" height="5" fill="rgb(197,197,197)"/>
<rect x="75" y="20" width="5" height="5" fill="rgb(180,180,180)"/>
<rect x="75" y="25" width="5" height="5" fill="rgb(161,161,161)"/>
<rect x="75" y="30" width="5" height="5" fill="rgb(143,143,143)"/>
<rect x="75" y="35" width="5" height="5" fill="rgb(126,126,126)"/>
<rect x="75" y="40" width="5" height="5" fill="rgb(112,112,112)"/>
<rect x="75" y="45" width="5" height="5" fill="rgb(103,103,103)"/>
<rect x="75" y="50" width="5" height="5" fill="rgb(100,100,100)"/>
<rect x="75" y="55" width="5" height="5" fill="rgb(103,103,103)"/>
<rect x="75" y="60" width="5" height="5" fill="rgb(112,112,112)"/>
<rect x="75" y="65" width="5" height="5" fill="rgb(126,126,126)"/>
<rect x="75" y="70" width="5" height="5" fill="rgb(143,143,143)"/>
<rect x="75" y="75" width="5" height="5" fill="rgb(161,161,161)"/>
<rect x="75" y="80" width="5" height="5" fill="rgb(180,180,180)"/>
<rect x="75" y="85" width="5" height="5" fill="rgb(197,197,197)"/>
<rect x="75" y="90" width="5" height="5" fill="rgb(212,212,212)"/>
<rect x="75" y="95" width="5" height="5" fill="rgb(224,224,224)"/>
<rect x="75" y="100" width="5" height="5" fill="rgb(234,234,234)"/>
<rect x="80" y="0" width="5" height="5" fill="rgb(238,238,238)"/>
<rect x="80" y="5" width="5" height="5" fill="rgb(230,230,230)"/>
<rect x="80" y="10" width="5" height="5" fill="rgb(220,220,220)"/>
<rect x="80" y="15" width="5" height="5" fill="rgb(208,208,208)"/>
<rect x="80" y="20" width="5" height="5" fill="rgb(195,195,195)"/>
<rect x="80" y="25" width="5" height="5" fill="rgb(180,180,180)"/>
<rect x="80" y="30" width="5" height="5" fill="rgb(165,165,165)"/>
<rect x="80" y="35" width="5" height="5" fill="rgb(151,151,151)"/>
<rect x="80" y="40" width="5" height="5" fill="rgb(140,140,140)"/>
<rect x="80" y="45" width="5" height="5" fill="rgb(133,133,133)"/>
<rect x="80" y="50" width="5" height="5" fill="rgb(131,131,131)"/>
<rect x="80" y="55" width="5" height="5" fill="rgb(133,133,133)"/>
<rect x="80" y="60" width="5" height="5" fill="rgb(140,140,140)"/>
<rect x="80" y="65" width="5" height="5" fill="rgb(151,151,151)"/>
<rect x="80" y="70" width="5" height="5" fill="rgb(165,165,165)"/>
<rect x="80" y="75" width="5" height="5" fill="rgb(180,180,180)"/>
<rect x="80" y="80" width="5" height="5" fill="rgb(195,195,195)"/>
<rect x="80" y="85" width="5" height="5" fill="rgb(208,208,208)"/>
<rect x="80" y="90" width="5" height="5" fill="rgb(220,220,220)"/>
<rect x="80" y="95" width="5" height="5" fill="rgb(230,230,230)"/>
<rect x="80" y="100" width="5" height="5" fill="rgb(238,238,238)"/>
<rect x="85" y="0" width="5" height="5" fill="rgb(242,242,242)"/>
<rect x="85" y="5" width="5" height="5" fill="rgb(236,236,236)"/>
<rect x="85" y="10" width="5" height="5" fill="rgb(228,228,228)"/>
<rect x="85" y="15" width="5" height="5" fill="rgb(219,219,219)"/>
<rect x="85" y="20" width="5" height="5" fill="rgb(208,208,208)"/>
<rect x="85" y="25" width="5" height="5" fill="rgb(197,197,197)"/>
<rect x="85" y="30" width="5" height="5" fill="rgb(186,186,186)"/>
<rect x="85" y="35" width="5" height="5" fill="rgb(175,175,175)"/>
<rect x="85" y="40" width="5" height="5" fill="rgb(167,167,167)"/>
<rect x="85" y="45" width="5" height="5" fill="rgb(161,161,161)"/>
<rect x="85" y="50" width="5" height="5" fill="rgb(159,159,159)"/>
<rect x="85" y="55" width="5" height="5" fill="rgb(161,161,161)"/>
<rect x="85" y="60" width="5" height="5" fill="rgb(167,167,167)"/>
<rect x="85" y="65" width="5" height="5" fill="rgb(175,175,175)"/>
<rect x="85" y="70" width="5" height="5" fill="rgb(186,186,186)"/>
<rect x="85" y="75" width="5" height="5" fill="rgb(197,197,197)"/>
<rect x="85" y="80" width="5" height="5" fill="rgb(208,208,208)"/>
<rect x="85" y="85" width="5" height="5" fill="rgb(219,219,219)"/>
<rect x="85" y="90" width="5" height="5" fill="rgb(228,228,228)"/>
<rect x="85" y="95" width="5" height="5" fill="rgb(236,236,236)"/>
<rect x="85" y="100" width="5" height="5" fill="rgb(242,242,242)"/>
<rect x="90" y="0" width="5" height="5" fill="rgb(245,245,245)"/>
<rect x="90" y="5" width="5" height="5" fill="rgb(241,241,241)"/>
<rect x="90" y="10" width="5" height="5" fill="rgb(235,235,235)"/>
<rect x="90" y="15" width="5" height="5" fill="rgb(228,228,228)"/>
<rect x="90" y="20" width="5" height="5" fill="rgb(220,220,220)"/>
<rect x="90" y="25" width="5" height="5" fill="rgb(212,212,212)"/>
<rect x="90" y="30" width="5" height="5" fill="rgb(204,204,204)"/>
<rect x="90" y="35" width="5" height="5" fill="rgb(196,196,196)"/>
<rect x="90" y="40" width="5" height="5" fill="rgb(190,190,190)"/>
<rect x="90" y="45" width="5" height="5" fill="rgb(186,186,186)"/>
<rect x="90" y="50" width="5" height="5" fill="rgb(184,184,184)"/>
<rect x="90" y="55" width="5" height="5" fill="rgb(186,186,186)"/>
<rect x="90" y="60" width="5" height="5" fill="rgb(190,190,190)"/>
<rect x="90" y="65" width="5" height="5" fill="rgb(196,196,196)"/>
<rect x="90" y="70" width="5" height="5" fill="rgb(204,204,204)"/>
<rect x="90" y="75" width="5" height="5" fill="rgb(212,212,212)"/>
<rect x="90" y="80" width="5" height="5" fill="rgb(220,220,220)"/>
<rect x="90" y="85" width="5" height="5" fill="rgb(228,228,228)"/>
<rect x="90" y="90" width="5" height="5" fill="rgb(235,235,235)"/>
<rect x="90" y="95" width="5" height="5" fill="rgb(241,241,241)"/>
<rect x="90" y="100" width="5" height="5" fill="rgb(245,245,245)"/>
<rect x="95" y="0" width="5" height="5" fill="rgb(248,248,248)"/>
<rect x="95" y="5" width="5" height="5" fill="rgb(245,245,245)"/>
<rect x="95" y="10" width="5" height="5" fill="rgb(241,241,241)"/>
<rect x="95" y="15" width="5" height="5" fill="rgb(236,236,236)"/>
<rect x="95" y="20" width="5" height="5" fill="rgb(230,230,230)"/>
<rect x="95" y="25" width="5" height="5" fill="rgb(224,224,224)"/>
<rect x="95" y="30" width="5" height="5" fill="rgb(218,218,218)"/>
<rect x="95" y="35" width="5" height="5" fill="rgb(213,213,213)"/>
<rect x="95" y="40" width="5" height="5" fill="rgb(208,208,208)"/>
<rect x="95" y="45" width="5" height="5" fill="rgb(206,206,206)"/>
<rect x="95" y="50" width="5" height="5" fill="rgb(205,205,205)"/>
<rect x="95" y="55" width="5" height="5" fill="rgb(206,206,206)"/>
<rect x="95" y="60" width="5" height="5" fill="rgb(208,208,208)"/>
<rect x="95" y="65" width="5" height="5" fill="rgb(213,213,213)"/>
<rect x="95" y="70" width="5" height="5" fill="rgb(218,218,218)"/>
<rect x="95" y="75" width="5" height="5" fill="rgb(224,224,224)"/>
<rect x="95" y="80" width="5" height="5" fill="rgb(230,230,230)"/>
<rect x="95" y="85" width="5" height="5" fill="rgb(236,236,236)"/>
<rect x="95" y="90" width="5" height="5" fill="rgb(241,241,241)"/>
<rect x="95" y="95" width="5" height="5" fill="rgb(245,245,245)"/>
<rect x="95" y="100" width="5" height="5" fill="rgb(248,248,248)"/>
<rect x="100" y="0" width="5" height="5" fill="rgb(250,250,250)"/>
<rect x="100" y="5" width="5" height="5" fill="rgb(248,248,248)"/>
<rect x="100" y="10" width="5" height="5" fill="rgb(245,245,245)"/>
<rect x="100" y="15" width="5" height="5" fill="rgb(242,242,242)"/>
<rect x="100" y="20" width="5" height="5" fill="rgb(238,238,238)"/>
<rect x="100" y="25" width="5" height="5" fill="rgb(234,234,234)"/>
<rect x="100" y="30" width="5" height="5" fill="rgb(230,230,230)"/>
<rect x="100" y="35" width="5" height="5" fill="rgb(226,226,226)"/>
<rect x="100" y="40" width="5" height="5" fill="rgb(223,223,223)"/>
<rect x="100" y="45" width="5" height="5" fill="rgb(221,221,221)"/>
<rect x="100" y="50" width="5" height="5" fill="rgb(220,220,220)"/>
<rect x="100" y="55" width="5" height="5" fill="rgb(221,221,221)"/>
<rect x="100" y="60" width="5" height="5" fill="rgb(223,223,223)"/>
<rect x="100" y="65" width="5" height="5" fill="rgb(226,226,226)"/>
<rect x="100" y="70" width="5" height="5" fill="rgb(230,230,230)"/>
<rect x="100" y="75" width="5" height="5" fill="rgb(234,234,234)"/>
<rect x="100" y="80" width="5" height="5" fill="rgb(238,238,238)"/>
<rect x="100" y="85" width="5" height="5" fill="rgb(242,242,242)"/>
<rect x="100" y="90" width="5" height="5" fill="rgb(245,245,245)"/>
<rect x="100" y="95" width="5" height="5" fill="rgb(248,248,248)"/>
<rect x="100" y="100" width="5" height="5" fill="rgb(250,250,250)"/>
</svg>