<svg xmlns="http://www.w3.org/2000/svg" width="161.8" height="100.0" viewBox="-85.902 -5.000 171.803 110.000">
<g fill="none" stroke="black" stroke-width="0.0066%" transform="translate(0, 100.0000) scale(75.1988, -75.1988)">
<polyline points="-1.076,0.000 -1.054,0.000 -1.033,0.000 -1.011,0.000 -0.990,0.000 -0.968,0.000 -0.947,0.000 -0.925,0.000 -0.904,0.000 -0.882,0.000 -0.861,0.000 -0.839,0.000 -0.818,0.000 -0.796,0.000 -0.775,0.000 -0.753,0.000 -0.732,0.000 -0.710,0.000 -0.689,0.000 -0.667,0.000 -0.646,0.000 -0.624,0.000 -0.602,0.000 -0.581,0.000 -0.559,0.000 -0.538,0.000 -0.516,0.000 -0.495,0.000 -0.473,0.000 -0.452,0.000 -0.430,0.000 -0.409,0.000 -0.387,0.000 -0.366,0.000 -0.344,0.000 -0.323,0.000 -0.301,0.000 -0.280,0.000 -0.258,0.000 -0.237,0.002 -0.215,0.005 -0.194,0.015 -0.172,0.038 -0.151,0.087 -0.129,0.180 -0.108,0.332 -0.086,0.547 -0.065,0.807 -0.043,1.065 -0.022,1.258 -0.000,1.330 0.022,1.258 0.043,1.065 0.065,0.807 0.086,0.547 0.108,0.332 0.129,0.180 0.151,0.087 0.172,0.038 0.194,0.015 0.215,0.005 0.237,0.002 0.258,0.000 0.280,0.000 0.301,0.000 0.323,0.000 0.344,0.000 0.366,0.000 0.387,0.000 0.409,0.000 0.430,0.000 0.452,0.000 0.473,0.000 0.495,0.000 0.516,0.000 0.538,0.000 0.559,0.000 0.581,0.000 0.602,0.000 0.624,0.000 0.646,0.000 0.667,0.000 0.689,0.000 0.710,0.000 0.732,0.000 0.753,0.000 0.775,0.000 0.796,0.000 0.818,0.000 0.839,0.000 0.861,0.000 0.882,0.000 0.904,0.000 0.925,0.000 0.947,0.000 0.968,0.000 0.990,0.000 1.011,0.000 1.033,0.000 1.054,0.000 1.076,0.000" />
<polyline points="-1.076,0.000 -1.054,0.000 -1.033,0.000 -1.011,0.000 -0.990,0.000 -0.968,0.000 -0.947,0.000 -0.925,0.000 -0.904,0.000 -0.882,0.000 -0.861,0.000 -0.839,0.000 -0.818,0.000 -0.796,0.000 -0.775,0.001 -0.753,0.001 -0.732,0.001 -0.710,0.002 -0.689,0.002 -0.667,0.003 -0.646,0.004 -0.624,0.006 -0.602,0.008 -0.581,0.010 -0.559,0.014 -0.538,0.018 -0.516,0.022 -0.495,0.028 -0.473,0.035 -0.452,0.044 -0.430,0.054 -0.409,0.066 -0.387,0.079 -0.366,0.094 -0.344,0.111 -0.323,0.130 -0.301,0.150 -0.280,0.171 -0.258,0.194 -0.237,0.218 -0.215,0.242 -0.194,0.266 -0.172,0.290 -0.151,0.312 -0.129,0.333 -0.108,0.352 -0.086,0.368 -0.065,0.381 -0.043,0.391 -0.022,0.397 -0.000,0.399 0.022,0.397 0.043,0.391 0.065,0.381 0.086,0.368 0.108,0.352 0.129,0.333 0.151,0.312 0.172,0.290 0.194,0.266 0.215,0.242 0.237,0.218 0.258,0.194 0.280,0.171 0.301,0.150 0.323,0.130 0.344,0.111 0.366,0.094 0.387,0.079 0.409,0.066 0.430,0.054 0.452,0.044 0.473,0.035 0.495,0.028 0.516,0.022 0.538,0.018 0.559,0.014 0.581,0.010 0.602,0.008 0.624,0.006 0.646,0.004 0.667,0.003 0.689,0.002 0.710,0.002 0.732,0.001 0.753,0.001 0.775,0.001 0.796,0.000 0.818,0.000 0.839,0.000 0.861,0.000 0.882,0.000 0.904,0.000 0.925,0.000 0.947,0.000 0.968,0.000 0.990,0.000 1.011,0.000 1.033,0.000 1.054,0.000 1.076,0.000" />
<polyline points="-1.076,0.009 -1.054,0.010 -1.033,0.011 -1.011,0.013 -0.990,0.014 -0.968,0.016 -0.947,0.018 -0.925,0.020 -0.904,0.022 -0.882,0.024 -0.861,0.027 -0.839,0.030 -0.818,0.033 -0.796,0.036 -0.775,0.039 -0.753,0.043 -0.732,0.047 -0.710,0.051 -0.689,0.055 -0.667,0.060 -0.646,0.065 -0.624,0.070 -0.602,0.075 -0.581,0.080 -0.559,0.086 -0.538,0.091 -0.516,0.097 -0.495,0.103 -0.473,0.109 -0.452,0.115 -0.430,0.121 -0.409,0.127 -0.387,0.133 -0.366,0.139 -0.344,0.145 -0.323,0.151 -0.301,0.156 -0.280,0.161 -0.258,0.167 -0.237,0.171 -0.215,0.176 -0.194,0.180 -0.172,0.184 -0.151,0.188 -0.129,0.191 -0.108,0.193 -0.086,0.196 -0.065,0.197 -0.043,0.198 -0.022,0.199 -0.000,0.199 0.022,0.199 0.043,0.198 0.065,0.197 0.086,0.196 0.108,0.193 0.129,0.191 0.151,0.188 0.172,0.184 0.194,0.180 0.215,0.176 0.237,0.171 0.258,0.167 0.280,0.161 0.301,0.156 0.323,0.151 0.344,0.145 0.366,0.139 0.387,0.133 0.409,0.127 0.430,0.121 0.452,0.115 0.473,0.109 0.495,0.103 0.516,0.097 0.538,0.091 0.559,0.086 0.581,0.080 0.602,0.075 0.624,0.070 0.646,0.065 0.667,0.060 0.689,0.055 0.710,0.051 0.732,0.047 0.753,0.043 0.775,0.039 0.796,0.036 0.818,0.033 0.839,0.030 0.861,0.027 0.882,0.024 0.904,0.022 0.925,0.020 0.947,0.018 0.968,0.016 0.990,0.014 1.011,0.013 1.033,0.011 1.054,0.010 1.076,0.009" />
</g>
</svg>