<svg xmlns="http://www.w3.org/2000/svg" width="161.8" height="100.0" viewBox="-0.9549 -5.0000 171.8034 110.0000">
<g fill="none" stroke="black" stroke-width="0.0010%" transform="translate(0, 100.0000) scale(501.3257, -501.3257)">
<line x1="0.0081" y1="0.0000" x2="0.0081" y2="0.0000" />
<line x1="0.0161" y1="0.0000" x2="0.0161" y2="0.0000" />
<line x1="0.0242" y1="0.0000" x2="0.0242" y2="0.0000" />
<line x1="0.0323" y1="0.0000" x2="0.0323" y2="0.0000" />
<line x1="0.0403" y1="0.0000" x2="0.0403" y2="0.0000" />
<line x1="0.0484" y1="0.0000" x2="0.0484" y2="0.0000" />
<line x1="0.0565" y1="0.0000" x2="0.0565" y2="0.0000" />
<line x1="0.0646" y1="0.0000" x2="0.0646" y2="0.0000" />
<line x1="0.0726" y1="0.0000" x2="0.0726" y2="0.0000" />
<line x1="0.0807" y1="0.0000" x2="0.0807" y2="0.0000" />
<line x1="0.0888" y1="0.0000" x2="0.0888" y2="0.0000" />
<line x1="0.0968" y1="0.0000" x2="0.0968" y2="0.0000" />
<line x1="0.1049" y1="0.0000" x2="0.1049" y2="0.0001" />
<line x1="0.1130" y1="0.0000" x2="0.1130" y2="0.0004" />
<line x1="0.1210" y1="0.0000" x2="0.1210" y2="0.0022" />
<line x1="0.1291" y1="0.0000" x2="0.1291" y2="0.0088" />
<line x1="0.1372" y1="0.0000" x2="0.1372" y2="0.0270" />
<line x1="0.1452" y1="0.0000" x2="0.1452" y2="0.0648" />
<line x1="0.1533" y1="0.0000" x2="0.1533" y2="0.1210" />
<line x1="0.1614" y1="0.0000" x2="0.1614" y2="0.1760" />
<line x1="0.1694" y1="0.0000" x2="0.1694" y2="0.1995" />
<line x1="0.1775" y1="0.0000" x2="0.1775" y2="0.1760" />
<line x1="0.1856" y1="0.0000" x2="0.1856" y2="0.1210" />
<line x1="0.1937" y1="0.0000" x2="0.1937" y2="0.0648" />
<line x1="0.2017" y1="0.0000" x2="0.2017" y2="0.0270" />
<line x1="0.2098" y1="0.0000" x2="0.2098" y2="0.0088" />
<line x1="0.2179" y1="0.0000" x2="0.2179" y2="0.0022" />
<line x1="0.2259" y1="0.0000" x2="0.2259" y2="0.0004" />
<line x1="0.2340" y1="0.0000" x2="0.2340" y2="0.0001" />
<line x1="0.2421" y1="0.0000" x2="0.2421" y2="0.0000" />
<line x1="0.2501" y1="0.0000" x2="0.2501" y2="0.0000" />
<line x1="0.2582" y1="0.0000" x2="0.2582" y2="0.0000" />
<line x1="0.2663" y1="0.0000" x2="0.2663" y2="0.0000" />
<line x1="0.2743" y1="0.0000" x2="0.2743" y2="0.0000" />
<line x1="0.2824" y1="0.0000" x2="0.2824" y2="0.0000" />
<line x1="0.2905" y1="0.0000" x2="0.2905" y2="0.0000" />
<line x1="0.2985" y1="0.0000" x2="0.2985" y2="0.0000" />
<line x1="0.3066" y1="0.0000" x2="0.3066" y2="0.0000" />
<line x1="0.3147" y1="0.0000" x2="0.3147" y2="0.0000" />
<line x1="0.3228" y1="0.0000" x2="0.3228" y2="0.0000" />
<line x1="0.3308" y1="0.0000" x2="0.3308" y2="0.0000" />
</g>
</svg>