<svg xmlns="http://www.w3.org/2000/svg" width="168" height="40" viewBox="0 0 168 40">
<rect x="0" y="0" width="8" height="8" fill="rgb(250,250,250)"/>
<rect x="0" y="8" width="8" height="8" fill="rgb(234,234,234)"/>
<rect x="0" y="16" width="8" height="8" fill="rgb(220,220,220)"/>
<rect x="0" y="24" width="8" height="8" fill="rgb(234,234,234)"/>
<rect x="0" y="32" width="8" height="8" fill="rgb(250,250,250)"/>
<rect x="8" y="0" width="8" height="8" fill="rgb(248,248,248)"/>
<rect x="8" y="8" width="8" height="8" fill="rgb(224,224,224)"/>
<rect x="8" y="16" width="8" height="8" fill="rgb(205,205,205)"/>
<rect x="8" y="24" width="8" height="8" fill="rgb(224,224,224)"/>
<rect x="8" y="32" width="8" height="8" fill="rgb(248,248,248)"/>
<rect x="16" y="0" width="8" height="8" fill="rgb(245,245,245)"/>
<rect x="16" y="8" width="8" height="8" fill="rgb(212,212,212)"/>
<rect x="16" y="16" width="8" height="8" fill="rgb(184,184,184)"/>
<rect x="16" y="24" width="8" height="8" fill="rgb(212,212,212)"/>
<rect x="16" y="32" width="8" height="8" fill="rgb(245,245,245)"/>
<rect x="24" y="0" width="8" height="8" fill="rgb(242,242,242)"/>
<rect x="24" y="8" width="8" height="8" fill="rgb(197,197,197)"/>
<rect x="24" y="16" width="8" height="8" fill="rgb(159,159,159)"/>
<rect x="24" y="24" width="8" height="8" fill="rgb(197,197,197)"/>
<rect x="24" y="32" width="8" height="8" fill="rgb(242,242,242)"/>
<rect x="32" y="0" width="8" height="8" fill="rgb(238,238,238)"/>
<rect x="32" y="8" width="8" height="8" fill="rgb(180,180,180)"/>
<rect x="32" y="16" width="8" height="8" fill="rgb(131,131,131)"/>
<rect x="32" y="24" width="8" height="8" fill="rgb(180,180,180)"/>
<rect x="32" y="32" width="8" height="8" fill="rgb(238,238,238)"/>
<rect x="40" y="0" width="8" height="8" fill="rgb(234,234,234)"/>
<rect x="40" y="8" width="8" height="8" fill="rgb(161,161,161)"/>
<rect x="40" y="16" width="8" height="8" fill="rgb(100,100,100)"/>
<rect x="40" y="24" width="8" height="8" fill="rgb(161,161,161)"/>
<rect x="40" y="32" width="8" height="8" fill="rgb(234,234,234)"/>
<rect x="48" y="0" width="8" height="8" fill="rgb(230,230,230)"/>
<rect x="48" y="8" width="8" height="8" fill="rgb(143,143,143)"/>
<rect x="48" y="16" width="8" height="8" fill="rgb(70,70,70)"/>
<rect x="48" y="24" width="8" height="8" fill="rgb(143,143,143)"/>
<rect x="48" y="32" width="8" height="8" fill="rgb(230,230,230)"/>
<rect x="56" y="0" width="8" height="8" fill="rgb(226,226,226)"/>
<rect x="56" y="8" width="8" height="8" fill="rgb(126,126,126)"/>
<rect x="56" y="16" width="8" height="8" fill="rgb(42,42,42)"/>
<rect x="56" y="24" width="8" height="8" fill="rgb(126,126,126)"/>
<rect x="56" y="32" width="8" height="8" fill="rgb(226,226,226)"/>
<rect x="64" y="0" width="8" height="8" fill="rgb(223,223,223)"/>
<rect x="64" y="8" width="8" height="8" fill="rgb(112,112,112)"/>
<rect x="64" y="16" width="8" height="8" fill="rgb(20,20,20)"/>
<rect x="64" y="24" width="8" height="8" fill="rgb(112,112,112)"/>
<rect x="64" y="32" width="8" height="8" fill="rgb(223,223,223)"/>
<rect x="72" y="0" width="8" height="8" fill="rgb(221,221,221)"/>
<rect x="72" y="8" width="8" height="8" fill="rgb(103,103,103)"/>
<rect x="72" y="16" width="8" height="8" fill="rgb(5,5,5)"/>
<rect x="72" y="24" width="8" height="8" fill="rgb(103,103,103)"/>
<rect x="72" y="32" width="8" height="8" fill="rgb(221,221,221)"/>
<rect x="80" y="0" width="8" height="8" fill="rgb(220,220,220)"/>
<rect x="80" y="8" width="8" height="8" fill="rgb(100,100,100)"/>
<rect x="80" y="16" width="8" height="8" fill="rgb(0,0,0)"/>
<rect x="80" y="24" width="8" height="8" fill="rgb(100,100,100)"/>
<rect x="80" y="32" width="8" height="8" fill="rgb(220,220,220)"/>
<rect x="88" y="0" width="8" height="8" fill="rgb(221,221,221)"/>
<rect x="88" y="8" width="8" height="8" fill="rgb(103,103,103)"/>
<rect x="88" y="16" width="8" height="8" fill="rgb(5,5,5)"/>
<rect x="88" y="24" width="8" height="8" fill="rgb(103,103,103)"/>
<rect x="88" y="32" width="8" height="8" fill="rgb(221,221,221)"/>
<rect x="96" y="0" width="8" height="8" fill="rgb(223,223,223)"/>
<rect x="96" y="8" width="8" height="8" fill="rgb(112,112,112)"/>
<rect x="96" y="16" width="8" height="8" fill="rgb(20,20,20)"/>
<rect x="96" y="24" width="8" height="8" fill="rgb(112,112,112)"/>
<rect x="96" y="32" width="8" height="8" fill="rgb(223,223,223)"/>
<rect x="104" y="0" width="8" height="8" fill="rgb(226,226,226)"/>
<rect x="104" y="8" width="8" height="8" fill="rgb(126,126,126)"/>
<rect x="104" y="16" width="8" height="8" fill="rgb(42,42,42)"/>
<rect x="104" y="24" width="8" height="8" fill="rgb(126,126,126)"/>
<rect x="104" y="32" width="8" height="8" fill="rgb(226,226,226)"/>
<rect x="112" y="0" width="8" height="8" fill="rgb(230,230,230)"/>
<rect x="112" y="8" width="8" height="8" fill="rgb(143,143,143)"/>
<rect x="112" y="16" width="8" height="8" fill="rgb(70,70,70)"/>
<rect x="112" y="24" width="8" height="8" fill="rgb(143,143,143)"/>
<rect x="112" y="32" width="8" height="8" fill="rgb(230,230,230)"/>
<rect x="120" y="0" width="8" height="8" fill="rgb(234,234,234)"/>
<rect x="120" y="8" width="8" height="8" fill="rgb(161,161,161)"/>
<rect x="120" y="16" width="8" height="8" fill="rgb(100,100,100)"/>
<rect x="120" y="24" width="8" height="8" fill="rgb(161,161,161)"/>
<rect x="120" y="32" width="8" height="8" fill="rgb(234,234,234)"/>
<rect x="128" y="0" width="8" height="8" fill="rgb(238,238,238)"/>
<rect x="128" y="8" width="8" height="8" fill="rgb(180,180,180)"/>
<rect x="128" y="16" width="8" height="8" fill="rgb(131,131,131)"/>
<rect x="128" y="24" width="8" height="8" fill="rgb(180,180,180)"/>
<rect x="128" y="32" width="8" height="8" fill="rgb(238,238,238)"/>
<rect x="136" y="0" width="8" height="8" fill="rgb(242,242,242)"/>
<rect x="136" y="8" width="8" height="8" fill="rgb(197,197,197)"/>
<rect x="136" y="16" width="8" height="8" fill="rgb(159,159,159)"/>
<rect x="136" y="24" width="8" height="8" fill="rgb(197,197,197)"/>
<rect x="136" y="32" width="8" height="8" fill="rgb(242,242,242)"/>
<rect x="144" y="0" width="8" height="8" fill="rgb(245,245,245)"/>
<rect x="144" y="8" width="8" height="8" fill="rgb(212,212,212)"/>
<rect x="144" y="16" width="8" height="8" fill="rgb(184,184,184)"/>
<rect x="144" y="24" width="8" height="8" fill="rgb(212,212,212)"/>
<rect x="144" y="32" width="8" height="8" fill="rgb(245,245,245)"/>
<rect x="152" y="0" width="8" height="8" fill="rgb(248,248,248)"/>
<rect x="152" y="8" width="8" height="8" fill="rgb(224,224,224)"/>
<rect x="152" y="16" width="8" height="8" fill="rgb(205,205,205)"/>
<rect x="152" y="24" width="8" height="8" fill="rgb(224,224,224)"/>
<rect x="152" y="32" width="8" height="8" fill="rgb(248,248,248)"/>
<rect x="160" y="0" width="8" height="8" fill="rgb(250,250,250)"/>
<rect x="160" y="8" width="8" height="8" fill="rgb(234,234,234)"/>
<rect x="160" y="16" width="8" height="8" fill="rgb(220,220,220)"/>
<rect x="160" y="24" width="8" height="8" fill="rgb(234,234,234)"/>
<rect x="160" y="32" width="8" height="8" fill="rgb(250,250,250)"/>
</svg>