<svg xmlns="http://www.w3.org/2000/svg" width="161.80" height="100.00" viewBox="-2.72 4.09 171.80 110.00">
<g fill="none" stroke="black" stroke-width="0.05%" transform="translate(0, 118.18) scale(9.09, -9.09)">
<polyline points="0.25,1.00 0.50,2.00 0.75,3.00 1.00,4.00 1.25,1.00 1.50,6.00 1.75,1.00 2.01,4.00 2.26,3.00 2.51,2.00 2.76,1.00 3.01,12.00 3.26,1.00 3.51,2.00 3.76,3.00 4.01,4.00 4.26,1.00 4.51,6.00 4.76,1.00 5.01,4.00 5.26,3.00 5.51,2.00 5.77,1.00 6.02,12.00 6.27,1.00 6.52,2.00 6.77,3.00 7.02,4.00 7.27,1.00 7.52,6.00 7.77,1.00 8.02,4.00 8.27,3.00 8.52,2.00 8.77,1.00 9.02,12.00 9.28,1.00 9.53,2.00 9.78,3.00 10.03,4.00 10.28,1.00 10.53,6.00 10.78,1.00 11.03,4.00 11.28,3.00 11.53,2.00 11.78,1.00 12.03,12.00 12.28,1.00 12.53,2.00 12.78,3.00 13.04,4.00 13.29,1.00 13.54,6.00 13.79,1.00 14.04,4.00 14.29,3.00 14.54,2.00 14.79,1.00 15.04,12.00 15.29,1.00 15.54,2.00 15.79,3.00 16.04,4.00 16.29,1.00 16.54,6.00 16.80,1.00 17.05,4.00 17.30,3.00 17.55,2.00 17.80,1.00 18.05,12.00" />
</g>
</svg>