<svg xmlns="http://www.w3.org/2000/svg" width="161.8" height="100.0" viewBox="-3.37 -5.00 171.80 110.00">
<g fill="none" stroke="black" stroke-width="0.1300%" transform="translate(0, 100.0000) scale(3.8462, -3.8462)">





<line x1="2.55" y1="0.00" x2="2.55" y2="2.00" />





<line x1="5.10" y1="0.00" x2="5.10" y2="2.00" />





<line x1="7.65" y1="0.00" x2="7.65" y2="8.00" />

<line x1="8.50" y1="0.00" x2="8.50" y2="4.00" />
<line x1="8.92" y1="0.00" x2="8.92" y2="6.00" />


<line x1="10.20" y1="0.00" x2="10.20" y2="2.00" />





<line x1="12.75" y1="0.00" x2="12.75" y2="2.00" />





<line x1="15.30" y1="0.00" x2="15.30" y2="8.00" />



<line x1="17.00" y1="0.00" x2="17.00" y2="4.00" />

<line x1="17.85" y1="0.00" x2="17.85" y2="20.00" />





<line x1="20.40" y1="0.00" x2="20.40" y2="2.00" />





<line x1="22.95" y1="0.00" x2="22.95" y2="26.00" />





<line x1="25.50" y1="0.00" x2="25.50" y2="14.00" />


<line x1="26.77" y1="0.00" x2="26.77" y2="6.00" />


<line x1="28.05" y1="0.00" x2="28.05" y2="2.00" />





<line x1="30.60" y1="0.00" x2="30.60" y2="8.00" />





<line x1="33.15" y1="0.00" x2="33.15" y2="2.00" />

<line x1="34.00" y1="0.00" x2="34.00" y2="4.00" />



<line x1="35.69" y1="0.00" x2="35.69" y2="20.00" />





<line x1="38.24" y1="0.00" x2="38.24" y2="8.00" />





<line x1="40.79" y1="0.00" x2="40.79" y2="2.00" />



<line x1="42.49" y1="0.00" x2="42.49" y2="24.00" />
</g>
</svg>