<svg xmlns="http://www.w3.org/2000/svg" width="161.803" height="100.000" viewBox="-3.736 -55.000 171.803 110.000">
<g fill="none" stroke="black" stroke-width="0.010%" transform="translate(0, 0.000) scale(50.000, -50.000)">
<circle cx="0.025" cy="0.000" r="0.010" />
<polyline points="0.025,-1.000 0.051,-0.862 0.076,-0.730 0.101,-0.604 0.126,-0.483 0.152,-0.368 0.177,-0.258 0.202,-0.154 0.228,-0.055 0.253,0.039 0.278,0.129 0.303,0.213 0.329,0.292 0.354,0.367 0.379,0.436 0.405,0.502 0.430,0.563 0.455,0.619 0.480,0.671 0.506,0.719 0.531,0.763 0.556,0.802 0.581,0.838 0.607,0.870 0.632,0.898 0.657,0.923 0.683,0.944 0.708,0.961 0.733,0.976 0.758,0.986 0.784,0.994 0.809,0.999 0.834,1.000 0.860,0.999 0.885,0.994 0.910,0.987 0.935,0.978 0.961,0.965 0.986,0.951 1.011,0.933 1.037,0.914 1.062,0.892 1.087,0.869 1.112,0.843 1.138,0.815 1.163,0.786 1.188,0.755 1.214,0.722 1.239,0.688 1.264,0.652 1.289,0.614 1.315,0.576 1.340,0.536 1.365,0.495 1.390,0.453 1.416,0.411 1.441,0.367 1.466,0.323 1.492,0.278 1.517,0.232 1.542,0.187 1.567,0.140 1.593,0.094 1.618,0.047 1.643,0.000 1.669,-0.047 1.694,-0.094 1.719,-0.140 1.744,-0.187 1.770,-0.232 1.795,-0.278 1.820,-0.323 1.846,-0.367 1.871,-0.411 1.896,-0.453 1.921,-0.495 1.947,-0.536 1.972,-0.576 1.997,-0.614 2.023,-0.652 2.048,-0.688 2.073,-0.722 2.098,-0.755 2.124,-0.786 2.149,-0.815 2.174,-0.843 2.200,-0.869 2.225,-0.892 2.250,-0.914 2.275,-0.933 2.301,-0.951 2.326,-0.965 2.351,-0.978 2.376,-0.987 2.402,-0.994 2.427,-0.999 2.452,-1.000 2.478,-0.999 2.503,-0.994 2.528,-0.986 2.553,-0.976 2.579,-0.961 2.604,-0.944 2.629,-0.923 2.655,-0.898 2.680,-0.870 2.705,-0.838 2.730,-0.802 2.756,-0.763 2.781,-0.719 2.806,-0.671 2.832,-0.619 2.857,-0.563 2.882,-0.502 2.907,-0.436 2.933,-0.367 2.958,-0.292 2.983,-0.213 3.009,-0.129 3.034,-0.039 3.059,0.055 3.084,0.154 3.110,0.258 3.135,0.368 3.160,0.483 3.186,0.604 3.211,0.730 3.236,0.862 3.261,1.000" />
</g>
</svg>