<svg xmlns="http://www.w3.org/2000/svg" width="100.0" height="100.0" viewBox="-55.000 -55.000 110.000 110.000">
<g fill="none" stroke="black" stroke-width="0.0100%" transform="translate(0, 0.0000) scale(50.0000, -50.0000)">
<circle cx="-1.000" cy="0.000" r="0.010" />
<circle cx="0.000" cy="1.000" r="0.010" />
<polyline points="-1.000,1.000 -0.980,0.921 -0.960,0.843 -0.940,0.767 -0.920,0.693 -0.900,0.620 -0.880,0.549 -0.860,0.479 -0.840,0.411 -0.820,0.345 -0.800,0.280 -0.780,0.217 -0.760,0.155 -0.740,0.095 -0.720,0.037 -0.700,-0.020 -0.680,-0.075 -0.660,-0.129 -0.640,-0.181 -0.620,-0.231 -0.600,-0.280 -0.580,-0.327 -0.560,-0.373 -0.540,-0.417 -0.520,-0.459 -0.500,-0.500 -0.480,-0.539 -0.460,-0.577 -0.440,-0.613 -0.420,-0.647 -0.400,-0.680 -0.380,-0.711 -0.360,-0.741 -0.340,-0.769 -0.320,-0.795 -0.300,-0.820 -0.280,-0.843 -0.260,-0.865 -0.240,-0.885 -0.220,-0.903 -0.200,-0.920 -0.180,-0.935 -0.160,-0.949 -0.140,-0.961 -0.120,-0.971 -0.100,-0.980 -0.080,-0.987 -0.060,-0.993 -0.040,-0.997 -0.020,-0.999 0.000,-1.000 0.020,-0.999 0.040,-0.997 0.060,-0.993 0.080,-0.987 0.100,-0.980 0.120,-0.971 0.140,-0.961 0.160,-0.949 0.180,-0.935 0.200,-0.920 0.220,-0.903 0.240,-0.885 0.260,-0.865 0.280,-0.843 0.300,-0.820 0.320,-0.795 0.340,-0.769 0.360,-0.741 0.380,-0.711 0.400,-0.680 0.420,-0.647 0.440,-0.613 0.460,-0.577 0.480,-0.539 0.500,-0.500 0.520,-0.459 0.540,-0.417 0.560,-0.373 0.580,-0.327 0.600,-0.280 0.620,-0.231 0.640,-0.181 0.660,-0.129 0.680,-0.075 0.700,-0.020 0.720,0.037 0.740,0.095 0.760,0.155 0.780,0.217 0.800,0.280 0.820,0.345 0.840,0.411 0.860,0.479 0.880,0.549 0.900,0.620 0.920,0.693 0.940,0.767 0.960,0.843 0.980,0.921 1.000,1.000" />
</g>
</svg>