<svg xmlns="http://www.w3.org/2000/svg" width="161.803" height="100.000" viewBox="-3.736 -4.990 171.803 110.000">
<g fill="none" stroke="black" stroke-width="0.005%" transform="translate(0, 100.020) scale(100.010, -100.010)">
<polyline points="0.013,1.000 0.025,0.912 0.038,0.832 0.051,0.759 0.063,0.692 0.076,0.631 0.088,0.575 0.101,0.525 0.114,0.479 0.126,0.437 0.139,0.398 0.152,0.363 0.164,0.331 0.177,0.302 0.190,0.275 0.202,0.251 0.215,0.229 0.228,0.209 0.240,0.191 0.253,0.174 0.265,0.158 0.278,0.145 0.291,0.132 0.303,0.120 0.316,0.110 0.329,0.100 0.341,0.091 0.354,0.083 0.367,0.076 0.379,0.069 0.392,0.063 0.404,0.058 0.417,0.052 0.430,0.048 0.442,0.044 0.455,0.040 0.468,0.036 0.480,0.033 0.493,0.030 0.506,0.028 0.518,0.025 0.531,0.023 0.544,0.021 0.556,0.019 0.569,0.017 0.581,0.016 0.594,0.014 0.607,0.013 0.619,0.012 0.632,0.011 0.645,0.010 0.657,0.009 0.670,0.008 0.683,0.008 0.695,0.007 0.708,0.006 0.720,0.006 0.733,0.005 0.746,0.005 0.758,0.004 0.771,0.004 0.784,0.004 0.796,0.003 0.809,0.003 0.822,0.003 0.834,0.003 0.847,0.002 0.859,0.002 0.872,0.002 0.885,0.002 0.897,0.002 0.910,0.001 0.923,0.001 0.935,0.001 0.948,0.001 0.961,0.001 0.973,0.001 0.986,0.001 0.999,0.001 1.011,0.001 1.024,0.001 1.036,0.001 1.049,0.001 1.062,0.000 1.074,0.000 1.087,0.000 1.100,0.000 1.112,0.000 1.125,0.000 1.138,0.000 1.150,0.000 1.163,0.000 1.175,0.000 1.188,0.000 1.201,0.000 1.213,0.000 1.226,0.000 1.239,0.000 1.251,0.000 1.264,0.000 1.277,0.000 1.289,0.000 1.302,0.000 1.315,0.000 1.327,0.000 1.340,0.000 1.352,0.000 1.365,0.000 1.378,0.000 1.390,0.000 1.403,0.000 1.416,0.000 1.428,0.000 1.441,0.000 1.454,0.000 1.466,0.000 1.479,0.000 1.491,0.000 1.504,0.000 1.517,0.000 1.529,0.000 1.542,0.000 1.555,0.000 1.567,0.000 1.580,0.000 1.593,0.000 1.605,0.000 1.618,0.000 1.631,0.000" />
</g>
</svg>