<svg xmlns="http://www.w3.org/2000/svg" width="161.803" height="100.000" viewBox="-85.902 -55.000 171.803 110.000">
<g fill="none" stroke="black" stroke-width="0.010%" transform="translate(0, 0.000) scale(50.000, -50.000)">
<circle cx="-1.618" cy="0.000" r="0.010" />
<circle cx="0.000" cy="1.000" r="0.010" />
<polyline points="-1.618,-1.000 -1.586,-0.825 -1.553,-0.659 -1.521,-0.502 -1.489,-0.355 -1.456,-0.216 -1.424,-0.086 -1.392,0.036 -1.359,0.149 -1.327,0.255 -1.294,0.352 -1.262,0.442 -1.230,0.524 -1.197,0.599 -1.165,0.667 -1.133,0.728 -1.100,0.782 -1.068,0.830 -1.036,0.871 -1.003,0.907 -0.971,0.936 -0.938,0.960 -0.906,0.978 -0.874,0.990 -0.841,0.998 -0.809,1.000 -0.777,0.998 -0.744,0.991 -0.712,0.979 -0.680,0.964 -0.647,0.944 -0.615,0.921 -0.582,0.893 -0.550,0.863 -0.518,0.829 -0.485,0.792 -0.453,0.752 -0.421,0.710 -0.388,0.665 -0.356,0.617 -0.324,0.568 -0.291,0.517 -0.259,0.464 -0.227,0.409 -0.194,0.353 -0.162,0.296 -0.129,0.238 -0.097,0.179 -0.065,0.120 -0.032,0.060 0.000,-0.000 0.032,-0.060 0.065,-0.120 0.097,-0.179 0.129,-0.238 0.162,-0.296 0.194,-0.353 0.227,-0.409 0.259,-0.464 0.291,-0.517 0.324,-0.568 0.356,-0.617 0.388,-0.665 0.421,-0.710 0.453,-0.752 0.485,-0.792 0.518,-0.829 0.550,-0.863 0.582,-0.893 0.615,-0.921 0.647,-0.944 0.680,-0.964 0.712,-0.979 0.744,-0.991 0.777,-0.998 0.809,-1.000 0.841,-0.998 0.874,-0.990 0.906,-0.978 0.938,-0.960 0.971,-0.936 1.003,-0.907 1.036,-0.871 1.068,-0.830 1.100,-0.782 1.133,-0.728 1.165,-0.667 1.197,-0.599 1.230,-0.524 1.262,-0.442 1.294,-0.352 1.327,-0.255 1.359,-0.149 1.392,-0.036 1.424,0.086 1.456,0.216 1.489,0.355 1.521,0.502 1.553,0.659 1.586,0.825 1.618,1.000" />
</g>
</svg>