<svg xmlns="http://www.w3.org/2000/svg" width="161.8" height="100.0" viewBox="-4.842 -55.000 171.803 110.000">
<g fill="none" stroke="black" stroke-width="0.0100%" transform="translate(0, 0.0000) scale(50.0000, -50.0000)">
<polyline points="0.003,1.000 0.006,1.000 0.009,1.000 0.013,1.000 0.016,1.000 0.019,1.000 0.022,1.000 0.025,1.000 0.028,1.000 0.032,1.000 0.035,1.000 0.038,1.000 0.041,1.000 0.044,1.000 0.047,1.000 0.051,1.000 0.054,1.000 0.057,1.000 0.060,1.000 0.063,1.000 0.066,1.000 0.070,1.000 0.073,1.000 0.076,1.000 0.079,1.000 0.082,1.000 0.085,1.000 0.089,1.000 0.092,1.000 0.095,1.000 0.098,1.000 0.101,1.000 0.104,1.000 0.108,1.000 0.111,1.000 0.114,1.000 0.117,1.000 0.120,1.000 0.123,1.000 0.127,1.000 0.130,1.000 0.133,1.000 0.136,1.000 0.139,1.000 0.142,1.000 0.146,1.000 0.149,1.000 0.152,1.000 0.155,1.000 0.158,1.000 0.161,1.000 0.164,1.000 0.168,1.000 0.171,1.000 0.174,1.000 0.177,1.000 0.180,1.000 0.183,1.000 0.187,1.000 0.190,1.000 0.193,1.000 0.196,1.000 0.199,1.000 0.202,1.000 0.206,1.000 0.209,1.000 0.212,1.000 0.215,1.000 0.218,1.000 0.221,1.000 0.225,1.000 0.228,1.000 0.231,1.000 0.234,1.000 0.237,1.000 0.240,1.000 0.244,1.000 0.247,1.000 0.250,1.000 0.253,1.000 0.256,1.000 0.259,1.000 0.263,1.000 0.266,1.000 0.269,1.000 0.272,1.000 0.275,1.000 0.278,1.000 0.282,1.000 0.285,1.000 0.288,1.000 0.291,1.000 0.294,1.000 0.297,1.000 0.301,1.000 0.304,1.000 0.307,1.000 0.310,1.000 0.313,1.000 0.316,1.000 0.319,1.000 0.323,1.000 0.326,1.000 0.329,1.000 0.332,1.000 0.335,1.000 0.338,1.000 0.342,1.000 0.345,1.000 0.348,1.000 0.351,1.000 0.354,1.000 0.357,1.000 0.361,1.000 0.364,1.000 0.367,1.000 0.370,1.000 0.373,1.000 0.376,1.000 0.380,1.000 0.383,1.000 0.386,1.000 0.389,1.000 0.392,1.000 0.395,1.000 0.399,1.000 0.402,1.000 0.405,1.000 0.408,1.000 0.411,1.000 0.414,1.000 0.418,1.000 0.421,1.000 0.424,1.000 0.427,1.000 0.430,1.000 0.433,1.000 0.437,1.000 0.440,1.000 0.443,1.000 0.446,1.000 0.449,1.000 0.452,1.000 0.456,1.000 0.459,1.000 0.462,1.000 0.465,1.000 0.468,1.000 0.471,1.000 0.474,1.000 0.478,1.000 0.481,1.000 0.484,1.000 0.487,1.000 0.490,1.000 0.493,1.000 0.497,1.000 0.500,1.000 0.503,1.000 0.506,1.000 0.509,1.000 0.512,1.000 0.516,1.000 0.519,1.000 0.522,1.000 0.525,1.000 0.528,1.000 0.531,1.000 0.535,1.000 0.538,1.000 0.541,1.000 0.544,1.000 0.547,1.000 0.550,1.000 0.554,1.000 0.557,1.000 0.560,1.000 0.563,1.000 0.566,1.000 0.569,1.000 0.573,1.000 0.576,1.000 0.579,1.000 0.582,1.000 0.585,1.000 0.588,1.000 0.592,1.000 0.595,1.000 0.598,1.000 0.601,1.000 0.604,1.000 0.607,1.000 0.611,1.000 0.614,1.000 0.617,1.000 0.620,1.000 0.623,1.000 0.626,1.000 0.629,1.000 0.633,1.000 0.636,1.000 0.639,1.000 0.642,1.000 0.645,1.000 0.648,1.000 0.652,1.000 0.655,1.000 0.658,1.000 0.661,1.000 0.664,1.000 0.667,1.000 0.671,1.000 0.674,1.000 0.677,1.000 0.680,1.000 0.683,1.000 0.686,1.000 0.690,1.000 0.693,1.000 0.696,1.000 0.699,1.000 0.702,1.000 0.705,1.000 0.709,1.000 0.712,1.000 0.715,1.000 0.718,1.000 0.721,1.000 0.724,1.000 0.728,1.000 0.731,1.000 0.734,1.000 0.737,1.000 0.740,1.000 0.743,1.000 0.747,1.000 0.750,1.000 0.753,1.000 0.756,1.000 0.759,1.000 0.762,1.000 0.766,1.000 0.769,1.000 0.772,1.000 0.775,1.000 0.778,1.000 0.781,1.000 0.785,1.000 0.788,1.000 0.791,1.000 0.794,1.000 0.797,1.000 0.800,1.000 0.803,1.000 0.807,1.000 0.810,1.000 0.813,1.000 0.816,1.000 0.819,1.000 0.822,1.000 0.826,1.000 0.829,1.000 0.832,1.000 0.835,1.000 0.838,1.000 0.841,1.000 0.845,1.000 0.848,1.000 0.851,1.000 0.854,1.000 0.857,1.000 0.860,1.000 0.864,1.000 0.867,1.000 0.870,1.000 0.873,1.000 0.876,1.000 0.879,1.000 0.883,1.000 0.886,1.000 0.889,1.000 0.892,1.000 0.895,1.000 0.898,1.000 0.902,1.000 0.905,1.000 0.908,1.000 0.911,1.000 0.914,1.000 0.917,1.000 0.921,1.000 0.924,1.000 0.927,1.000 0.930,1.000 0.933,1.000 0.936,1.000 0.940,1.000 0.943,1.000 0.946,1.000 0.949,1.000 0.952,1.000 0.955,1.000 0.958,1.000 0.962,1.000 0.965,1.000 0.968,1.000 0.971,1.000 0.974,1.000 0.977,1.000 0.981,1.000 0.984,1.000 0.987,1.000 0.990,1.000 0.993,1.000 0.996,1.000 1.000,1.000 1.003,1.000 1.006,1.000 1.009,1.000 1.012,1.000 1.015,1.000 1.019,1.000 1.022,1.000 1.025,1.000 1.028,1.000 1.031,1.000 1.034,1.000 1.038,1.000 1.041,1.000 1.044,1.000 1.047,1.000 1.050,1.000 1.053,1.000 1.057,1.000 1.060,1.000 1.063,1.000 1.066,1.000 1.069,1.000 1.072,1.000 1.076,1.000 1.079,1.000 1.082,1.000 1.085,1.000 1.088,1.000 1.091,1.000 1.095,1.000 1.098,1.000 1.101,1.000 1.104,1.000 1.107,1.000 1.110,1.000 1.113,1.000 1.117,1.000 1.120,1.000 1.123,1.000 1.126,1.000 1.129,1.000 1.132,1.000 1.136,1.000 1.139,1.000 1.142,1.000 1.145,1.000 1.148,1.000 1.151,1.000 1.155,1.000 1.158,1.000 1.161,1.000 1.164,1.000 1.167,1.000 1.170,1.000 1.174,1.000 1.177,1.000 1.180,1.000 1.183,1.000 1.186,1.000 1.189,1.000 1.193,1.000 1.196,1.000 1.199,1.000 1.202,1.000 1.205,1.000 1.208,1.000 1.212,1.000 1.215,1.000 1.218,1.000 1.221,1.000 1.224,1.000 1.227,1.000 1.231,1.000 1.234,1.000 1.237,1.000 1.240,1.000 1.243,1.000 1.246,1.000 1.250,1.000 1.253,1.000 1.256,1.000 1.259,1.000 1.262,1.000 1.265,1.000 1.268,1.000 1.272,1.000 1.275,1.000 1.278,1.000 1.281,1.000 1.284,1.000 1.287,1.000 1.291,1.000 1.294,1.000 1.297,1.000 1.300,1.000 1.303,1.000 1.306,1.000 1.310,1.000 1.313,1.000 1.316,1.000 1.319,1.000 1.322,1.000 1.325,1.000 1.329,1.000 1.332,1.000 1.335,1.000 1.338,1.000 1.341,1.000 1.344,1.000 1.348,1.000 1.351,1.000 1.354,1.000 1.357,1.000 1.360,1.000 1.363,1.000 1.367,1.000 1.370,1.000 1.373,1.000 1.376,1.000 1.379,1.000 1.382,1.000 1.386,1.000 1.389,1.000 1.392,1.000 1.395,1.000 1.398,1.000 1.401,1.000 1.405,1.000 1.408,1.000 1.411,1.000 1.414,1.000 1.417,1.000 1.420,1.000 1.423,1.000 1.427,1.000 1.430,1.000 1.433,1.000 1.436,1.000 1.439,1.000 1.442,1.000 1.446,1.000 1.449,1.000 1.452,1.000 1.455,1.000 1.458,1.000 1.461,1.000 1.465,1.000 1.468,1.000 1.471,1.000 1.474,1.000 1.477,1.000 1.480,1.000 1.484,1.000 1.487,1.000 1.490,1.000 1.493,1.000 1.496,1.000 1.499,1.000 1.503,1.000 1.506,1.000 1.509,1.000 1.512,1.000 1.515,1.000 1.518,1.000 1.522,1.000 1.525,1.000 1.528,1.000 1.531,1.000 1.534,1.000 1.537,1.000 1.541,1.000 1.544,1.000 1.547,1.000 1.550,1.000 1.553,1.000 1.556,1.000 1.560,1.000 1.563,1.000 1.566,1.000 1.569,1.000 1.572,1.000 1.575,1.000 1.578,1.000 1.582,1.000 1.585,1.000 1.588,1.000 1.591,1.000 1.594,1.000 1.597,1.000 1.601,1.000 1.604,1.000 1.607,1.000 1.610,1.000 1.613,1.000 1.616,1.000 1.620,1.000 1.623,-1.000 1.626,-1.000 1.629,-1.000 1.632,-1.000 1.635,-1.000 1.639,-1.000 1.642,-1.000 1.645,-1.000 1.648,-1.000 1.651,-1.000 1.654,-1.000 1.658,-1.000 1.661,-1.000 1.664,-1.000 1.667,-1.000 1.670,-1.000 1.673,-1.000 1.677,-1.000 1.680,-1.000 1.683,-1.000 1.686,-1.000 1.689,-1.000 1.692,-1.000 1.696,-1.000 1.699,-1.000 1.702,-1.000 1.705,-1.000 1.708,-1.000 1.711,-1.000 1.715,-1.000 1.718,-1.000 1.721,-1.000 1.724,-1.000 1.727,-1.000 1.730,-1.000 1.733,-1.000 1.737,-1.000 1.740,-1.000 1.743,-1.000 1.746,-1.000 1.749,-1.000 1.752,-1.000 1.756,-1.000 1.759,-1.000 1.762,-1.000 1.765,-1.000 1.768,-1.000 1.771,-1.000 1.775,-1.000 1.778,-1.000 1.781,-1.000 1.784,-1.000 1.787,-1.000 1.790,-1.000 1.794,-1.000 1.797,-1.000 1.800,-1.000 1.803,-1.000 1.806,-1.000 1.809,-1.000 1.813,-1.000 1.816,-1.000 1.819,-1.000 1.822,-1.000 1.825,-1.000 1.828,-1.000 1.832,-1.000 1.835,-1.000 1.838,-1.000 1.841,-1.000 1.844,-1.000 1.847,-1.000 1.851,-1.000 1.854,-1.000 1.857,-1.000 1.860,-1.000 1.863,-1.000 1.866,-1.000 1.870,-1.000 1.873,-1.000 1.876,-1.000 1.879,-1.000 1.882,-1.000 1.885,-1.000 1.888,-1.000 1.892,-1.000 1.895,-1.000 1.898,-1.000 1.901,-1.000 1.904,-1.000 1.907,-1.000 1.911,-1.000 1.914,-1.000 1.917,-1.000 1.920,-1.000 1.923,-1.000 1.926,-1.000 1.930,-1.000 1.933,-1.000 1.936,-1.000 1.939,-1.000 1.942,-1.000 1.945,-1.000 1.949,-1.000 1.952,-1.000 1.955,-1.000 1.958,-1.000 1.961,-1.000 1.964,-1.000 1.968,-1.000 1.971,-1.000 1.974,-1.000 1.977,-1.000 1.980,-1.000 1.983,-1.000 1.987,-1.000 1.990,-1.000 1.993,-1.000 1.996,-1.000 1.999,-1.000 2.002,-1.000 2.006,-1.000 2.009,-1.000 2.012,-1.000 2.015,-1.000 2.018,-1.000 2.021,-1.000 2.025,-1.000 2.028,-1.000 2.031,-1.000 2.034,-1.000 2.037,-1.000 2.040,-1.000 2.043,-1.000 2.047,-1.000 2.050,-1.000 2.053,-1.000 2.056,-1.000 2.059,-1.000 2.062,-1.000 2.066,-1.000 2.069,-1.000 2.072,-1.000 2.075,-1.000 2.078,-1.000 2.081,-1.000 2.085,-1.000 2.088,-1.000 2.091,-1.000 2.094,-1.000 2.097,-1.000 2.100,-1.000 2.104,-1.000 2.107,-1.000 2.110,-1.000 2.113,-1.000 2.116,-1.000 2.119,-1.000 2.123,-1.000 2.126,-1.000 2.129,-1.000 2.132,-1.000 2.135,-1.000 2.138,-1.000 2.142,-1.000 2.145,-1.000 2.148,-1.000 2.151,-1.000 2.154,-1.000 2.157,-1.000 2.161,-1.000 2.164,-1.000 2.167,-1.000 2.170,-1.000 2.173,-1.000 2.176,-1.000 2.180,-1.000 2.183,-1.000 2.186,-1.000 2.189,-1.000 2.192,-1.000 2.195,-1.000 2.199,-1.000 2.202,-1.000 2.205,-1.000 2.208,-1.000 2.211,-1.000 2.214,-1.000 2.217,-1.000 2.221,-1.000 2.224,-1.000 2.227,-1.000 2.230,-1.000 2.233,-1.000 2.236,-1.000 2.240,-1.000 2.243,-1.000 2.246,-1.000 2.249,-1.000 2.252,-1.000 2.255,-1.000 2.259,-1.000 2.262,-1.000 2.265,-1.000 2.268,-1.000 2.271,-1.000 2.274,-1.000 2.278,-1.000 2.281,-1.000 2.284,-1.000 2.287,-1.000 2.290,-1.000 2.293,-1.000 2.297,-1.000 2.300,-1.000 2.303,-1.000 2.306,-1.000 2.309,-1.000 2.312,-1.000 2.316,-1.000 2.319,-1.000 2.322,-1.000 2.325,-1.000 2.328,-1.000 2.331,-1.000 2.335,-1.000 2.338,-1.000 2.341,-1.000 2.344,-1.000 2.347,-1.000 2.350,-1.000 2.354,-1.000 2.357,-1.000 2.360,-1.000 2.363,-1.000 2.366,-1.000 2.369,-1.000 2.372,-1.000 2.376,-1.000 2.379,-1.000 2.382,-1.000 2.385,-1.000 2.388,-1.000 2.391,-1.000 2.395,-1.000 2.398,-1.000 2.401,-1.000 2.404,-1.000 2.407,-1.000 2.410,-1.000 2.414,-1.000 2.417,-1.000 2.420,-1.000 2.423,-1.000 2.426,-1.000 2.429,-1.000 2.433,-1.000 2.436,-1.000 2.439,-1.000 2.442,-1.000 2.445,-1.000 2.448,-1.000 2.452,-1.000 2.455,-1.000 2.458,-1.000 2.461,-1.000 2.464,-1.000 2.467,-1.000 2.471,-1.000 2.474,-1.000 2.477,-1.000 2.480,-1.000 2.483,-1.000 2.486,-1.000 2.490,-1.000 2.493,-1.000 2.496,-1.000 2.499,-1.000 2.502,-1.000 2.505,-1.000 2.509,-1.000 2.512,-1.000 2.515,-1.000 2.518,-1.000 2.521,-1.000 2.524,-1.000 2.527,-1.000 2.531,-1.000 2.534,-1.000 2.537,-1.000 2.540,-1.000 2.543,-1.000 2.546,-1.000 2.550,-1.000 2.553,-1.000 2.556,-1.000 2.559,-1.000 2.562,-1.000 2.565,-1.000 2.569,-1.000 2.572,-1.000 2.575,-1.000 2.578,-1.000 2.581,-1.000 2.584,-1.000 2.588,-1.000 2.591,-1.000 2.594,-1.000 2.597,-1.000 2.600,-1.000 2.603,-1.000 2.607,-1.000 2.610,-1.000 2.613,-1.000 2.616,-1.000 2.619,-1.000 2.622,-1.000 2.626,-1.000 2.629,-1.000 2.632,-1.000 2.635,-1.000 2.638,-1.000 2.641,-1.000 2.645,-1.000 2.648,-1.000 2.651,-1.000 2.654,-1.000 2.657,-1.000 2.660,-1.000 2.664,-1.000 2.667,-1.000 2.670,-1.000 2.673,-1.000 2.676,-1.000 2.679,-1.000 2.682,-1.000 2.686,-1.000 2.689,-1.000 2.692,-1.000 2.695,-1.000 2.698,-1.000 2.701,-1.000 2.705,-1.000 2.708,-1.000 2.711,-1.000 2.714,-1.000 2.717,-1.000 2.720,-1.000 2.724,-1.000 2.727,-1.000 2.730,-1.000 2.733,-1.000 2.736,-1.000 2.739,-1.000 2.743,-1.000 2.746,-1.000 2.749,-1.000 2.752,-1.000 2.755,-1.000 2.758,-1.000 2.762,-1.000 2.765,-1.000 2.768,-1.000 2.771,-1.000 2.774,-1.000 2.777,-1.000 2.781,-1.000 2.784,-1.000 2.787,-1.000 2.790,-1.000 2.793,-1.000 2.796,-1.000 2.800,-1.000 2.803,-1.000 2.806,-1.000 2.809,-1.000 2.812,-1.000 2.815,-1.000 2.819,-1.000 2.822,-1.000 2.825,-1.000 2.828,-1.000 2.831,-1.000 2.834,-1.000 2.837,-1.000 2.841,-1.000 2.844,-1.000 2.847,-1.000 2.850,-1.000 2.853,-1.000 2.856,-1.000 2.860,-1.000 2.863,-1.000 2.866,-1.000 2.869,-1.000 2.872,-1.000 2.875,-1.000 2.879,-1.000 2.882,-1.000 2.885,-1.000 2.888,-1.000 2.891,-1.000 2.894,-1.000 2.898,-1.000 2.901,-1.000 2.904,-1.000 2.907,-1.000 2.910,-1.000 2.913,-1.000 2.917,-1.000 2.920,-1.000 2.923,-1.000 2.926,-1.000 2.929,-1.000 2.932,-1.000 2.936,-1.000 2.939,-1.000 2.942,-1.000 2.945,-1.000 2.948,-1.000 2.951,-1.000 2.955,-1.000 2.958,-1.000 2.961,-1.000 2.964,-1.000 2.967,-1.000 2.970,-1.000 2.974,-1.000 2.977,-1.000 2.980,-1.000 2.983,-1.000 2.986,-1.000 2.989,-1.000 2.992,-1.000 2.996,-1.000 2.999,-1.000 3.002,-1.000 3.005,-1.000 3.008,-1.000 3.011,-1.000 3.015,-1.000 3.018,-1.000 3.021,-1.000 3.024,-1.000 3.027,-1.000 3.030,-1.000 3.034,-1.000 3.037,-1.000 3.040,-1.000 3.043,-1.000 3.046,-1.000 3.049,-1.000 3.053,-1.000 3.056,-1.000 3.059,-1.000 3.062,-1.000 3.065,-1.000 3.068,-1.000 3.072,-1.000 3.075,-1.000 3.078,-1.000 3.081,-1.000 3.084,-1.000 3.087,-1.000 3.091,-1.000 3.094,-1.000 3.097,-1.000 3.100,-1.000 3.103,-1.000 3.106,-1.000 3.110,-1.000 3.113,-1.000 3.116,-1.000 3.119,-1.000 3.122,-1.000 3.125,-1.000 3.129,-1.000 3.132,-1.000 3.135,-1.000 3.138,-1.000 3.141,-1.000 3.144,-1.000 3.147,-1.000 3.151,-1.000 3.154,-1.000 3.157,-1.000 3.160,-1.000 3.163,-1.000 3.166,-1.000 3.170,-1.000 3.173,-1.000 3.176,-1.000 3.179,-1.000 3.182,-1.000 3.185,-1.000 3.189,-1.000 3.192,-1.000 3.195,-1.000 3.198,-1.000 3.201,-1.000 3.204,-1.000 3.208,-1.000 3.211,-1.000 3.214,-1.000 3.217,-1.000 3.220,-1.000 3.223,-1.000 3.227,-1.000 3.230,-1.000 3.233,-1.000 3.236,-1.000 3.239,-1.000" />
</g>
</svg>