<svg xmlns="http://www.w3.org/2000/svg" width="161.803" height="100.000" viewBox="-4.842 -55.000 171.803 110.000">
<g fill="none" stroke="black" stroke-width="0.010%" transform="translate(0, -0.000) scale(50.000, -50.000)">
<circle cx="0.003" cy="0.000" r="0.010" />
<polyline points="0.003,0.000 0.006,0.006 0.009,0.013 0.013,0.019 0.016,0.025 0.019,0.032 0.022,0.038 0.025,0.045 0.028,0.052 0.032,0.059 0.035,0.066 0.038,0.073 0.041,0.080 0.044,0.088 0.047,0.096 0.051,0.103 0.054,0.112 0.057,0.120 0.060,0.129 0.063,0.138 0.066,0.147 0.070,0.156 0.073,0.166 0.076,0.176 0.079,0.186 0.082,0.197 0.085,0.207 0.089,0.219 0.092,0.230 0.095,0.242 0.098,0.253 0.101,0.266 0.104,0.278 0.108,0.291 0.111,0.304 0.114,0.317 0.117,0.331 0.120,0.345 0.123,0.359 0.127,0.373 0.130,0.387 0.133,0.402 0.136,0.417 0.139,0.432 0.142,0.447 0.146,0.462 0.149,0.477 0.152,0.493 0.155,0.508 0.158,0.524 0.161,0.539 0.164,0.555 0.168,0.571 0.171,0.586 0.174,0.602 0.177,0.618 0.180,0.633 0.183,0.648 0.187,0.664 0.190,0.679 0.193,0.694 0.196,0.709 0.199,0.723 0.202,0.738 0.206,0.752 0.209,0.766 0.212,0.779 0.215,0.793 0.218,0.806 0.221,0.818 0.225,0.831 0.228,0.843 0.231,0.854 0.234,0.866 0.237,0.877 0.240,0.887 0.244,0.897 0.247,0.907 0.250,0.916 0.253,0.924 0.256,0.933 0.259,0.940 0.263,0.948 0.266,0.954 0.269,0.961 0.272,0.967 0.275,0.972 0.278,0.977 0.282,0.981 0.285,0.985 0.288,0.989 0.291,0.992 0.294,0.994 0.297,0.996 0.301,0.998 0.304,0.999 0.307,1.000 0.310,1.000 0.313,1.000 0.316,0.999 0.319,0.998 0.323,0.997 0.326,0.996 0.329,0.994 0.332,0.991 0.335,0.989 0.338,0.986 0.342,0.983 0.345,0.979 0.348,0.975 0.351,0.972 0.354,0.967 0.357,0.963 0.361,0.959 0.364,0.954 0.367,0.949 0.370,0.945 0.373,0.940 0.376,0.935 0.380,0.930 0.383,0.925 0.386,0.920 0.389,0.915 0.392,0.910 0.395,0.905 0.399,0.900 0.402,0.895 0.405,0.891 0.408,0.886 0.411,0.882 0.414,0.878 0.418,0.874 0.421,0.870 0.424,0.866 0.427,0.863 0.430,0.859 0.433,0.856 0.437,0.853 0.440,0.851 0.443,0.848 0.446,0.846 0.449,0.844 0.452,0.843 0.456,0.842 0.459,0.840 0.462,0.840 0.465,0.839 0.468,0.839 0.471,0.839 0.474,0.839 0.478,0.839 0.481,0.840 0.484,0.841 0.487,0.842 0.490,0.844 0.493,0.845 0.497,0.847 0.500,0.849 0.503,0.851 0.506,0.854 0.509,0.856 0.512,0.859 0.516,0.861 0.519,0.864 0.522,0.867 0.525,0.870 0.528,0.873 0.531,0.876 0.535,0.880 0.538,0.883 0.541,0.886 0.544,0.889 0.547,0.892 0.550,0.895 0.554,0.898 0.557,0.901 0.560,0.904 0.563,0.907 0.566,0.909 0.569,0.911 0.573,0.914 0.576,0.916 0.579,0.918 0.582,0.919 0.585,0.920 0.588,0.922 0.592,0.922 0.595,0.923 0.598,0.923 0.601,0.923 0.604,0.923 0.607,0.923 0.611,0.922 0.614,0.921 0.617,0.919 0.620,0.917 0.623,0.915 0.626,0.913 0.629,0.910 0.633,0.907 0.636,0.904 0.639,0.900 0.642,0.896 0.645,0.891 0.648,0.887 0.652,0.882 0.655,0.876 0.658,0.871 0.661,0.865 0.664,0.859 0.667,0.852 0.671,0.846 0.674,0.839 0.677,0.832 0.680,0.824 0.683,0.817 0.686,0.809 0.690,0.802 0.693,0.794 0.696,0.785 0.699,0.777 0.702,0.769 0.705,0.761 0.709,0.752 0.712,0.744 0.715,0.735 0.718,0.727 0.721,0.719 0.724,0.710 0.728,0.702 0.731,0.694 0.734,0.686 0.737,0.678 0.740,0.670 0.743,0.662 0.747,0.655 0.750,0.648 0.753,0.641 0.756,0.634 0.759,0.627 0.762,0.621 0.766,0.615 0.769,0.610 0.772,0.604 0.775,0.599 0.778,0.595 0.781,0.590 0.785,0.587 0.788,0.583 0.791,0.580 0.794,0.577 0.797,0.575 0.800,0.573 0.803,0.572 0.807,0.571 0.810,0.570 0.813,0.570 0.816,0.570 0.819,0.571 0.822,0.572 0.826,0.573 0.829,0.575 0.832,0.577 0.835,0.580 0.838,0.583 0.841,0.587 0.845,0.590 0.848,0.595 0.851,0.599 0.854,0.604 0.857,0.610 0.860,0.615 0.864,0.621 0.867,0.627 0.870,0.634 0.873,0.641 0.876,0.648 0.879,0.655 0.883,0.662 0.886,0.670 0.889,0.678 0.892,0.686 0.895,0.694 0.898,0.702 0.902,0.710 0.905,0.719 0.908,0.727 0.911,0.735 0.914,0.744 0.917,0.752 0.921,0.761 0.924,0.769 0.927,0.777 0.930,0.785 0.933,0.794 0.936,0.802 0.940,0.809 0.943,0.817 0.946,0.824 0.949,0.832 0.952,0.839 0.955,0.846 0.958,0.852 0.962,0.859 0.965,0.865 0.968,0.871 0.971,0.876 0.974,0.882 0.977,0.887 0.981,0.891 0.984,0.896 0.987,0.900 0.990,0.904 0.993,0.907 0.996,0.910 1.000,0.913 1.003,0.915 1.006,0.917 1.009,0.919 1.012,0.921 1.015,0.922 1.019,0.923 1.022,0.923 1.025,0.923 1.028,0.923 1.031,0.923 1.034,0.922 1.038,0.922 1.041,0.920 1.044,0.919 1.047,0.918 1.050,0.916 1.053,0.914 1.057,0.911 1.060,0.909 1.063,0.907 1.066,0.904 1.069,0.901 1.072,0.898 1.076,0.895 1.079,0.892 1.082,0.889 1.085,0.886 1.088,0.883 1.091,0.880 1.095,0.876 1.098,0.873 1.101,0.870 1.104,0.867 1.107,0.864 1.110,0.861 1.113,0.859 1.117,0.856 1.120,0.854 1.123,0.851 1.126,0.849 1.129,0.847 1.132,0.845 1.136,0.844 1.139,0.842 1.142,0.841 1.145,0.840 1.148,0.839 1.151,0.839 1.155,0.839 1.158,0.839 1.161,0.839 1.164,0.840 1.167,0.840 1.170,0.842 1.174,0.843 1.177,0.844 1.180,0.846 1.183,0.848 1.186,0.851 1.189,0.853 1.193,0.856 1.196,0.859 1.199,0.863 1.202,0.866 1.205,0.870 1.208,0.874 1.212,0.878 1.215,0.882 1.218,0.886 1.221,0.891 1.224,0.895 1.227,0.900 1.231,0.905 1.234,0.910 1.237,0.915 1.240,0.920 1.243,0.925 1.246,0.930 1.250,0.935 1.253,0.940 1.256,0.945 1.259,0.949 1.262,0.954 1.265,0.959 1.268,0.963 1.272,0.967 1.275,0.972 1.278,0.975 1.281,0.979 1.284,0.983 1.287,0.986 1.291,0.989 1.294,0.991 1.297,0.994 1.300,0.996 1.303,0.997 1.306,0.998 1.310,0.999 1.313,1.000 1.316,1.000 1.319,1.000 1.322,0.999 1.325,0.998 1.329,0.996 1.332,0.994 1.335,0.992 1.338,0.989 1.341,0.985 1.344,0.981 1.348,0.977 1.351,0.972 1.354,0.967 1.357,0.961 1.360,0.954 1.363,0.948 1.367,0.940 1.370,0.933 1.373,0.924 1.376,0.916 1.379,0.907 1.382,0.897 1.386,0.887 1.389,0.877 1.392,0.866 1.395,0.854 1.398,0.843 1.401,0.831 1.405,0.818 1.408,0.806 1.411,0.793 1.414,0.779 1.417,0.766 1.420,0.752 1.423,0.738 1.427,0.723 1.430,0.709 1.433,0.694 1.436,0.679 1.439,0.664 1.442,0.648 1.446,0.633 1.449,0.618 1.452,0.602 1.455,0.586 1.458,0.571 1.461,0.555 1.465,0.539 1.468,0.524 1.471,0.508 1.474,0.493 1.477,0.477 1.480,0.462 1.484,0.447 1.487,0.432 1.490,0.417 1.493,0.402 1.496,0.387 1.499,0.373 1.503,0.359 1.506,0.345 1.509,0.331 1.512,0.317 1.515,0.304 1.518,0.291 1.522,0.278 1.525,0.266 1.528,0.253 1.531,0.242 1.534,0.230 1.537,0.219 1.541,0.207 1.544,0.197 1.547,0.186 1.550,0.176 1.553,0.166 1.556,0.156 1.560,0.147 1.563,0.138 1.566,0.129 1.569,0.120 1.572,0.112 1.575,0.103 1.578,0.096 1.582,0.088 1.585,0.080 1.588,0.073 1.591,0.066 1.594,0.059 1.597,0.052 1.601,0.045 1.604,0.038 1.607,0.032 1.610,0.025 1.613,0.019 1.616,0.013 1.620,0.006 1.623,-0.000 1.626,-0.006 1.629,-0.013 1.632,-0.019 1.635,-0.025 1.639,-0.032 1.642,-0.038 1.645,-0.045 1.648,-0.052 1.651,-0.059 1.654,-0.066 1.658,-0.073 1.661,-0.080 1.664,-0.088 1.667,-0.096 1.670,-0.103 1.673,-0.112 1.677,-0.120 1.680,-0.129 1.683,-0.138 1.686,-0.147 1.689,-0.156 1.692,-0.166 1.696,-0.176 1.699,-0.186 1.702,-0.197 1.705,-0.207 1.708,-0.219 1.711,-0.230 1.715,-0.242 1.718,-0.253 1.721,-0.266 1.724,-0.278 1.727,-0.291 1.730,-0.304 1.733,-0.317 1.737,-0.331 1.740,-0.345 1.743,-0.359 1.746,-0.373 1.749,-0.387 1.752,-0.402 1.756,-0.417 1.759,-0.432 1.762,-0.447 1.765,-0.462 1.768,-0.477 1.771,-0.493 1.775,-0.508 1.778,-0.524 1.781,-0.539 1.784,-0.555 1.787,-0.571 1.790,-0.586 1.794,-0.602 1.797,-0.618 1.800,-0.633 1.803,-0.648 1.806,-0.664 1.809,-0.679 1.813,-0.694 1.816,-0.709 1.819,-0.723 1.822,-0.738 1.825,-0.752 1.828,-0.766 1.832,-0.779 1.835,-0.793 1.838,-0.806 1.841,-0.818 1.844,-0.831 1.847,-0.843 1.851,-0.854 1.854,-0.866 1.857,-0.877 1.860,-0.887 1.863,-0.897 1.866,-0.907 1.870,-0.916 1.873,-0.924 1.876,-0.933 1.879,-0.940 1.882,-0.948 1.885,-0.954 1.888,-0.961 1.892,-0.967 1.895,-0.972 1.898,-0.977 1.901,-0.981 1.904,-0.985 1.907,-0.989 1.911,-0.992 1.914,-0.994 1.917,-0.996 1.920,-0.998 1.923,-0.999 1.926,-1.000 1.930,-1.000 1.933,-1.000 1.936,-0.999 1.939,-0.998 1.942,-0.997 1.945,-0.996 1.949,-0.994 1.952,-0.991 1.955,-0.989 1.958,-0.986 1.961,-0.983 1.964,-0.979 1.968,-0.975 1.971,-0.972 1.974,-0.967 1.977,-0.963 1.980,-0.959 1.983,-0.954 1.987,-0.949 1.990,-0.945 1.993,-0.940 1.996,-0.935 1.999,-0.930 2.002,-0.925 2.006,-0.920 2.009,-0.915 2.012,-0.910 2.015,-0.905 2.018,-0.900 2.021,-0.895 2.025,-0.891 2.028,-0.886 2.031,-0.882 2.034,-0.878 2.037,-0.874 2.040,-0.870 2.043,-0.866 2.047,-0.863 2.050,-0.859 2.053,-0.856 2.056,-0.853 2.059,-0.851 2.062,-0.848 2.066,-0.846 2.069,-0.844 2.072,-0.843 2.075,-0.842 2.078,-0.840 2.081,-0.840 2.085,-0.839 2.088,-0.839 2.091,-0.839 2.094,-0.839 2.097,-0.839 2.100,-0.840 2.104,-0.841 2.107,-0.842 2.110,-0.844 2.113,-0.845 2.116,-0.847 2.119,-0.849 2.123,-0.851 2.126,-0.854 2.129,-0.856 2.132,-0.859 2.135,-0.861 2.138,-0.864 2.142,-0.867 2.145,-0.870 2.148,-0.873 2.151,-0.876 2.154,-0.880 2.157,-0.883 2.161,-0.886 2.164,-0.889 2.167,-0.892 2.170,-0.895 2.173,-0.898 2.176,-0.901 2.180,-0.904 2.183,-0.907 2.186,-0.909 2.189,-0.911 2.192,-0.914 2.195,-0.916 2.199,-0.918 2.202,-0.919 2.205,-0.920 2.208,-0.922 2.211,-0.922 2.214,-0.923 2.217,-0.923 2.221,-0.923 2.224,-0.923 2.227,-0.923 2.230,-0.922 2.233,-0.921 2.236,-0.919 2.240,-0.917 2.243,-0.915 2.246,-0.913 2.249,-0.910 2.252,-0.907 2.255,-0.904 2.259,-0.900 2.262,-0.896 2.265,-0.891 2.268,-0.887 2.271,-0.882 2.274,-0.876 2.278,-0.871 2.281,-0.865 2.284,-0.859 2.287,-0.852 2.290,-0.846 2.293,-0.839 2.297,-0.832 2.300,-0.824 2.303,-0.817 2.306,-0.809 2.309,-0.802 2.312,-0.794 2.316,-0.785 2.319,-0.777 2.322,-0.769 2.325,-0.761 2.328,-0.752 2.331,-0.744 2.335,-0.735 2.338,-0.727 2.341,-0.719 2.344,-0.710 2.347,-0.702 2.350,-0.694 2.354,-0.686 2.357,-0.678 2.360,-0.670 2.363,-0.662 2.366,-0.655 2.369,-0.648 2.372,-0.641 2.376,-0.634 2.379,-0.627 2.382,-0.621 2.385,-0.615 2.388,-0.610 2.391,-0.604 2.395,-0.599 2.398,-0.595 2.401,-0.590 2.404,-0.587 2.407,-0.583 2.410,-0.580 2.414,-0.577 2.417,-0.575 2.420,-0.573 2.423,-0.572 2.426,-0.571 2.429,-0.570 2.433,-0.570 2.436,-0.570 2.439,-0.571 2.442,-0.572 2.445,-0.573 2.448,-0.575 2.452,-0.577 2.455,-0.580 2.458,-0.583 2.461,-0.587 2.464,-0.590 2.467,-0.595 2.471,-0.599 2.474,-0.604 2.477,-0.610 2.480,-0.615 2.483,-0.621 2.486,-0.627 2.490,-0.634 2.493,-0.641 2.496,-0.648 2.499,-0.655 2.502,-0.662 2.505,-0.670 2.509,-0.678 2.512,-0.686 2.515,-0.694 2.518,-0.702 2.521,-0.710 2.524,-0.719 2.527,-0.727 2.531,-0.735 2.534,-0.744 2.537,-0.752 2.540,-0.761 2.543,-0.769 2.546,-0.777 2.550,-0.785 2.553,-0.794 2.556,-0.802 2.559,-0.809 2.562,-0.817 2.565,-0.824 2.569,-0.832 2.572,-0.839 2.575,-0.846 2.578,-0.852 2.581,-0.859 2.584,-0.865 2.588,-0.871 2.591,-0.876 2.594,-0.882 2.597,-0.887 2.600,-0.891 2.603,-0.896 2.607,-0.900 2.610,-0.904 2.613,-0.907 2.616,-0.910 2.619,-0.913 2.622,-0.915 2.626,-0.917 2.629,-0.919 2.632,-0.921 2.635,-0.922 2.638,-0.923 2.641,-0.923 2.645,-0.923 2.648,-0.923 2.651,-0.923 2.654,-0.922 2.657,-0.922 2.660,-0.920 2.664,-0.919 2.667,-0.918 2.670,-0.916 2.673,-0.914 2.676,-0.911 2.679,-0.909 2.682,-0.907 2.686,-0.904 2.689,-0.901 2.692,-0.898 2.695,-0.895 2.698,-0.892 2.701,-0.889 2.705,-0.886 2.708,-0.883 2.711,-0.880 2.714,-0.876 2.717,-0.873 2.720,-0.870 2.724,-0.867 2.727,-0.864 2.730,-0.861 2.733,-0.859 2.736,-0.856 2.739,-0.854 2.743,-0.851 2.746,-0.849 2.749,-0.847 2.752,-0.845 2.755,-0.844 2.758,-0.842 2.762,-0.841 2.765,-0.840 2.768,-0.839 2.771,-0.839 2.774,-0.839 2.777,-0.839 2.781,-0.839 2.784,-0.840 2.787,-0.840 2.790,-0.842 2.793,-0.843 2.796,-0.844 2.800,-0.846 2.803,-0.848 2.806,-0.851 2.809,-0.853 2.812,-0.856 2.815,-0.859 2.819,-0.863 2.822,-0.866 2.825,-0.870 2.828,-0.874 2.831,-0.878 2.834,-0.882 2.837,-0.886 2.841,-0.891 2.844,-0.895 2.847,-0.900 2.850,-0.905 2.853,-0.910 2.856,-0.915 2.860,-0.920 2.863,-0.925 2.866,-0.930 2.869,-0.935 2.872,-0.940 2.875,-0.945 2.879,-0.949 2.882,-0.954 2.885,-0.959 2.888,-0.963 2.891,-0.967 2.894,-0.972 2.898,-0.975 2.901,-0.979 2.904,-0.983 2.907,-0.986 2.910,-0.989 2.913,-0.991 2.917,-0.994 2.920,-0.996 2.923,-0.997 2.926,-0.998 2.929,-0.999 2.932,-1.000 2.936,-1.000 2.939,-1.000 2.942,-0.999 2.945,-0.998 2.948,-0.996 2.951,-0.994 2.955,-0.992 2.958,-0.989 2.961,-0.985 2.964,-0.981 2.967,-0.977 2.970,-0.972 2.974,-0.967 2.977,-0.961 2.980,-0.954 2.983,-0.948 2.986,-0.940 2.989,-0.933 2.992,-0.924 2.996,-0.916 2.999,-0.907 3.002,-0.897 3.005,-0.887 3.008,-0.877 3.011,-0.866 3.015,-0.854 3.018,-0.843 3.021,-0.831 3.024,-0.818 3.027,-0.806 3.030,-0.793 3.034,-0.779 3.037,-0.766 3.040,-0.752 3.043,-0.738 3.046,-0.723 3.049,-0.709 3.053,-0.694 3.056,-0.679 3.059,-0.664 3.062,-0.648 3.065,-0.633 3.068,-0.618 3.072,-0.602 3.075,-0.586 3.078,-0.571 3.081,-0.555 3.084,-0.539 3.087,-0.524 3.091,-0.508 3.094,-0.493 3.097,-0.477 3.100,-0.462 3.103,-0.447 3.106,-0.432 3.110,-0.417 3.113,-0.402 3.116,-0.387 3.119,-0.373 3.122,-0.359 3.125,-0.345 3.129,-0.331 3.132,-0.317 3.135,-0.304 3.138,-0.291 3.141,-0.278 3.144,-0.266 3.147,-0.253 3.151,-0.242 3.154,-0.230 3.157,-0.219 3.160,-0.207 3.163,-0.197 3.166,-0.186 3.170,-0.176 3.173,-0.166 3.176,-0.156 3.179,-0.147 3.182,-0.138 3.185,-0.129 3.189,-0.120 3.192,-0.112 3.195,-0.103 3.198,-0.096 3.201,-0.088 3.204,-0.080 3.208,-0.073 3.211,-0.066 3.214,-0.059 3.217,-0.052 3.220,-0.045 3.223,-0.038 3.227,-0.032 3.230,-0.025 3.233,-0.019 3.236,-0.013 3.239,-0.006" />
</g>
</svg>