<svg xmlns="http://www.w3.org/2000/svg" width="161.8" height="100.0" viewBox="-4.842 -55.049 171.803 110.000">
<g fill="none" stroke="black" stroke-width="0.0100%" transform="translate(0, -0.0978) scale(50.0489, -50.0489)">
<polyline points="0.003,0.000 0.006,0.002 0.009,0.004 0.013,0.006 0.016,0.008 0.019,0.010 0.022,0.012 0.025,0.014 0.028,0.016 0.032,0.018 0.035,0.020 0.038,0.021 0.041,0.023 0.044,0.025 0.047,0.027 0.051,0.029 0.054,0.031 0.057,0.033 0.060,0.035 0.063,0.037 0.066,0.039 0.070,0.041 0.073,0.043 0.076,0.045 0.079,0.047 0.082,0.049 0.085,0.051 0.088,0.053 0.092,0.055 0.095,0.057 0.098,0.059 0.101,0.061 0.104,0.063 0.107,0.064 0.111,0.066 0.114,0.068 0.117,0.070 0.120,0.072 0.123,0.074 0.126,0.076 0.130,0.078 0.133,0.080 0.136,0.082 0.139,0.084 0.142,0.086 0.145,0.088 0.149,0.090 0.152,0.092 0.155,0.094 0.158,0.096 0.161,0.098 0.164,0.100 0.167,0.102 0.171,0.104 0.174,0.105 0.177,0.107 0.180,0.109 0.183,0.111 0.186,0.113 0.190,0.115 0.193,0.117 0.196,0.119 0.199,0.121 0.202,0.123 0.205,0.125 0.209,0.127 0.212,0.129 0.215,0.131 0.218,0.133 0.221,0.135 0.224,0.137 0.228,0.139 0.231,0.141 0.234,0.143 0.237,0.145 0.240,0.146 0.243,0.148 0.246,0.150 0.250,0.152 0.253,0.154 0.256,0.156 0.259,0.158 0.262,0.160 0.265,0.162 0.269,0.164 0.272,0.166 0.275,0.168 0.278,0.170 0.281,0.172 0.284,0.174 0.288,0.176 0.291,0.178 0.294,0.180 0.297,0.182 0.300,0.184 0.303,0.186 0.307,0.188 0.310,0.189 0.313,0.191 0.316,0.193 0.319,0.195 0.322,0.197 0.326,0.199 0.329,0.201 0.332,0.203 0.335,0.205 0.338,0.207 0.341,0.209 0.344,0.211 0.348,0.213 0.351,0.215 0.354,0.217 0.357,0.219 0.360,0.221 0.363,0.223 0.367,0.225 0.370,0.227 0.373,0.229 0.376,0.230 0.379,0.232 0.382,0.234 0.386,0.236 0.389,0.238 0.392,0.240 0.395,0.242 0.398,0.244 0.401,0.246 0.405,0.248 0.408,0.250 0.411,0.252 0.414,0.254 0.417,0.256 0.420,0.258 0.423,0.260 0.427,0.262 0.430,0.264 0.433,0.266 0.436,0.268 0.439,0.270 0.442,0.271 0.446,0.273 0.449,0.275 0.452,0.277 0.455,0.279 0.458,0.281 0.461,0.283 0.465,0.285 0.468,0.287 0.471,0.289 0.474,0.291 0.477,0.293 0.480,0.295 0.484,0.297 0.487,0.299 0.490,0.301 0.493,0.303 0.496,0.305 0.499,0.307 0.502,0.309 0.506,0.311 0.509,0.313 0.512,0.314 0.515,0.316 0.518,0.318 0.521,0.320 0.525,0.322 0.528,0.324 0.531,0.326 0.534,0.328 0.537,0.330 0.540,0.332 0.544,0.334 0.547,0.336 0.550,0.338 0.553,0.340 0.556,0.342 0.559,0.344 0.563,0.346 0.566,0.348 0.569,0.350 0.572,0.352 0.575,0.354 0.578,0.355 0.581,0.357 0.585,0.359 0.588,0.361 0.591,0.363 0.594,0.365 0.597,0.367 0.600,0.369 0.604,0.371 0.607,0.373 0.610,0.375 0.613,0.377 0.616,0.379 0.619,0.381 0.623,0.383 0.626,0.385 0.629,0.387 0.632,0.389 0.635,0.391 0.638,0.393 0.642,0.395 0.645,0.396 0.648,0.398 0.651,0.400 0.654,0.402 0.657,0.404 0.660,0.406 0.664,0.408 0.667,0.410 0.670,0.412 0.673,0.414 0.676,0.416 0.679,0.418 0.683,0.420 0.686,0.422 0.689,0.424 0.692,0.426 0.695,0.428 0.698,0.430 0.702,0.432 0.705,0.434 0.708,0.436 0.711,0.438 0.714,0.439 0.717,0.441 0.721,0.443 0.724,0.445 0.727,0.447 0.730,0.449 0.733,0.451 0.736,0.453 0.739,0.455 0.743,0.457 0.746,0.459 0.749,0.461 0.752,0.463 0.755,0.465 0.758,0.467 0.762,0.469 0.765,0.471 0.768,0.473 0.771,0.475 0.774,0.477 0.777,0.479 0.781,0.480 0.784,0.482 0.787,0.484 0.790,0.486 0.793,0.488 0.796,0.490 0.800,0.492 0.803,0.494 0.806,0.496 0.809,0.498 0.812,0.500 0.815,0.502 0.818,0.504 0.822,0.506 0.825,0.508 0.828,0.510 0.831,0.512 0.834,0.514 0.837,0.516 0.841,0.518 0.844,0.520 0.847,0.521 0.850,0.523 0.853,0.525 0.856,0.527 0.860,0.529 0.863,0.531 0.866,0.533 0.869,0.535 0.872,0.537 0.875,0.539 0.879,0.541 0.882,0.543 0.885,0.545 0.888,0.547 0.891,0.549 0.894,0.551 0.898,0.553 0.901,0.555 0.904,0.557 0.907,0.559 0.910,0.561 0.913,0.563 0.916,0.564 0.920,0.566 0.923,0.568 0.926,0.570 0.929,0.572 0.932,0.574 0.935,0.576 0.939,0.578 0.942,0.580 0.945,0.582 0.948,0.584 0.951,0.586 0.954,0.588 0.958,0.590 0.961,0.592 0.964,0.594 0.967,0.596 0.970,0.598 0.973,0.600 0.977,0.602 0.980,0.604 0.983,0.605 0.986,0.607 0.989,0.609 0.992,0.611 0.995,0.613 0.999,0.615 1.002,0.617 1.005,0.619 1.008,0.621 1.011,0.623 1.014,0.625 1.018,0.627 1.021,0.629 1.024,0.631 1.027,0.633 1.030,0.635 1.033,0.637 1.037,0.639 1.040,0.641 1.043,0.643 1.046,0.645 1.049,0.646 1.052,0.648 1.056,0.650 1.059,0.652 1.062,0.654 1.065,0.656 1.068,0.658 1.071,0.660 1.074,0.662 1.078,0.664 1.081,0.666 1.084,0.668 1.087,0.670 1.090,0.672 1.093,0.674 1.097,0.676 1.100,0.678 1.103,0.680 1.106,0.682 1.109,0.684 1.112,0.686 1.116,0.688 1.119,0.689 1.122,0.691 1.125,0.693 1.128,0.695 1.131,0.697 1.135,0.699 1.138,0.701 1.141,0.703 1.144,0.705 1.147,0.707 1.150,0.709 1.153,0.711 1.157,0.713 1.160,0.715 1.163,0.717 1.166,0.719 1.169,0.721 1.172,0.723 1.176,0.725 1.179,0.727 1.182,0.729 1.185,0.730 1.188,0.732 1.191,0.734 1.195,0.736 1.198,0.738 1.201,0.740 1.204,0.742 1.207,0.744 1.210,0.746 1.214,0.748 1.217,0.750 1.220,0.752 1.223,0.754 1.226,0.756 1.229,0.758 1.232,0.760 1.236,0.762 1.239,0.764 1.242,0.766 1.245,0.768 1.248,0.770 1.251,0.771 1.255,0.773 1.258,0.775 1.261,0.777 1.264,0.779 1.267,0.781 1.270,0.783 1.274,0.785 1.277,0.787 1.280,0.789 1.283,0.791 1.286,0.793 1.289,0.795 1.293,0.797 1.296,0.799 1.299,0.801 1.302,0.803 1.305,0.805 1.308,0.807 1.311,0.809 1.315,0.811 1.318,0.813 1.321,0.814 1.324,0.816 1.327,0.818 1.330,0.820 1.334,0.822 1.337,0.824 1.340,0.826 1.343,0.828 1.346,0.830 1.349,0.832 1.353,0.834 1.356,0.836 1.359,0.838 1.362,0.840 1.365,0.842 1.368,0.844 1.372,0.846 1.375,0.848 1.378,0.850 1.381,0.852 1.384,0.854 1.387,0.855 1.390,0.857 1.394,0.859 1.397,0.861 1.400,0.863 1.403,0.865 1.406,0.867 1.409,0.869 1.413,0.871 1.416,0.873 1.419,0.875 1.422,0.877 1.425,0.879 1.428,0.881 1.432,0.883 1.435,0.885 1.438,0.887 1.441,0.889 1.444,0.891 1.447,0.893 1.451,0.895 1.454,0.896 1.457,0.898 1.460,0.900 1.463,0.902 1.466,0.904 1.470,0.906 1.473,0.908 1.476,0.910 1.479,0.912 1.482,0.914 1.485,0.916 1.488,0.918 1.492,0.920 1.495,0.922 1.498,0.924 1.501,0.926 1.504,0.928 1.507,0.930 1.511,0.932 1.514,0.934 1.517,0.936 1.520,0.938 1.523,0.939 1.526,0.941 1.530,0.943 1.533,0.945 1.536,0.947 1.539,0.949 1.542,0.951 1.545,0.953 1.549,0.955 1.552,0.957 1.555,0.959 1.558,0.961 1.561,0.963 1.564,0.965 1.567,0.967 1.571,0.969 1.574,0.971 1.577,0.973 1.580,0.975 1.583,0.977 1.586,0.979 1.590,0.980 1.593,0.982 1.596,0.984 1.599,0.986 1.602,0.988 1.605,0.990 1.609,0.992 1.612,0.994 1.615,0.996 1.618,0.998 1.621,-1.000 1.624,-0.998 1.628,-0.996 1.631,-0.994 1.634,-0.992 1.637,-0.990 1.640,-0.988 1.643,-0.986 1.646,-0.984 1.650,-0.982 1.653,-0.980 1.656,-0.979 1.659,-0.977 1.662,-0.975 1.665,-0.973 1.669,-0.971 1.672,-0.969 1.675,-0.967 1.678,-0.965 1.681,-0.963 1.684,-0.961 1.688,-0.959 1.691,-0.957 1.694,-0.955 1.697,-0.953 1.700,-0.951 1.703,-0.949 1.707,-0.947 1.710,-0.945 1.713,-0.943 1.716,-0.941 1.719,-0.939 1.722,-0.938 1.725,-0.936 1.729,-0.934 1.732,-0.932 1.735,-0.930 1.738,-0.928 1.741,-0.926 1.744,-0.924 1.748,-0.922 1.751,-0.920 1.754,-0.918 1.757,-0.916 1.760,-0.914 1.763,-0.912 1.767,-0.910 1.770,-0.908 1.773,-0.906 1.776,-0.904 1.779,-0.902 1.782,-0.900 1.786,-0.898 1.789,-0.896 1.792,-0.895 1.795,-0.893 1.798,-0.891 1.801,-0.889 1.804,-0.887 1.808,-0.885 1.811,-0.883 1.814,-0.881 1.817,-0.879 1.820,-0.877 1.823,-0.875 1.827,-0.873 1.830,-0.871 1.833,-0.869 1.836,-0.867 1.839,-0.865 1.842,-0.863 1.846,-0.861 1.849,-0.859 1.852,-0.857 1.855,-0.855 1.858,-0.854 1.861,-0.852 1.865,-0.850 1.868,-0.848 1.871,-0.846 1.874,-0.844 1.877,-0.842 1.880,-0.840 1.883,-0.838 1.887,-0.836 1.890,-0.834 1.893,-0.832 1.896,-0.830 1.899,-0.828 1.902,-0.826 1.906,-0.824 1.909,-0.822 1.912,-0.820 1.915,-0.818 1.918,-0.816 1.921,-0.814 1.925,-0.813 1.928,-0.811 1.931,-0.809 1.934,-0.807 1.937,-0.805 1.940,-0.803 1.944,-0.801 1.947,-0.799 1.950,-0.797 1.953,-0.795 1.956,-0.793 1.959,-0.791 1.962,-0.789 1.966,-0.787 1.969,-0.785 1.972,-0.783 1.975,-0.781 1.978,-0.779 1.981,-0.777 1.985,-0.775 1.988,-0.773 1.991,-0.771 1.994,-0.770 1.997,-0.768 2.000,-0.766 2.004,-0.764 2.007,-0.762 2.010,-0.760 2.013,-0.758 2.016,-0.756 2.019,-0.754 2.023,-0.752 2.026,-0.750 2.029,-0.748 2.032,-0.746 2.035,-0.744 2.038,-0.742 2.042,-0.740 2.045,-0.738 2.048,-0.736 2.051,-0.734 2.054,-0.732 2.057,-0.730 2.060,-0.729 2.064,-0.727 2.067,-0.725 2.070,-0.723 2.073,-0.721 2.076,-0.719 2.079,-0.717 2.083,-0.715 2.086,-0.713 2.089,-0.711 2.092,-0.709 2.095,-0.707 2.098,-0.705 2.102,-0.703 2.105,-0.701 2.108,-0.699 2.111,-0.697 2.114,-0.695 2.117,-0.693 2.121,-0.691 2.124,-0.689 2.127,-0.688 2.130,-0.686 2.133,-0.684 2.136,-0.682 2.139,-0.680 2.143,-0.678 2.146,-0.676 2.149,-0.674 2.152,-0.672 2.155,-0.670 2.158,-0.668 2.162,-0.666 2.165,-0.664 2.168,-0.662 2.171,-0.660 2.174,-0.658 2.177,-0.656 2.181,-0.654 2.184,-0.652 2.187,-0.650 2.190,-0.648 2.193,-0.646 2.196,-0.645 2.200,-0.643 2.203,-0.641 2.206,-0.639 2.209,-0.637 2.212,-0.635 2.215,-0.633 2.218,-0.631 2.222,-0.629 2.225,-0.627 2.228,-0.625 2.231,-0.623 2.234,-0.621 2.237,-0.619 2.241,-0.617 2.244,-0.615 2.247,-0.613 2.250,-0.611 2.253,-0.609 2.256,-0.607 2.260,-0.605 2.263,-0.604 2.266,-0.602 2.269,-0.600 2.272,-0.598 2.275,-0.596 2.279,-0.594 2.282,-0.592 2.285,-0.590 2.288,-0.588 2.291,-0.586 2.294,-0.584 2.297,-0.582 2.301,-0.580 2.304,-0.578 2.307,-0.576 2.310,-0.574 2.313,-0.572 2.316,-0.570 2.320,-0.568 2.323,-0.566 2.326,-0.564 2.329,-0.563 2.332,-0.561 2.335,-0.559 2.339,-0.557 2.342,-0.555 2.345,-0.553 2.348,-0.551 2.351,-0.549 2.354,-0.547 2.358,-0.545 2.361,-0.543 2.364,-0.541 2.367,-0.539 2.370,-0.537 2.373,-0.535 2.376,-0.533 2.380,-0.531 2.383,-0.529 2.386,-0.527 2.389,-0.525 2.392,-0.523 2.395,-0.521 2.399,-0.520 2.402,-0.518 2.405,-0.516 2.408,-0.514 2.411,-0.512 2.414,-0.510 2.418,-0.508 2.421,-0.506 2.424,-0.504 2.427,-0.502 2.430,-0.500 2.433,-0.498 2.437,-0.496 2.440,-0.494 2.443,-0.492 2.446,-0.490 2.449,-0.488 2.452,-0.486 2.455,-0.484 2.459,-0.482 2.462,-0.480 2.465,-0.479 2.468,-0.477 2.471,-0.475 2.474,-0.473 2.478,-0.471 2.481,-0.469 2.484,-0.467 2.487,-0.465 2.490,-0.463 2.493,-0.461 2.497,-0.459 2.500,-0.457 2.503,-0.455 2.506,-0.453 2.509,-0.451 2.512,-0.449 2.516,-0.447 2.519,-0.445 2.522,-0.443 2.525,-0.441 2.528,-0.439 2.531,-0.438 2.534,-0.436 2.538,-0.434 2.541,-0.432 2.544,-0.430 2.547,-0.428 2.550,-0.426 2.553,-0.424 2.557,-0.422 2.560,-0.420 2.563,-0.418 2.566,-0.416 2.569,-0.414 2.572,-0.412 2.576,-0.410 2.579,-0.408 2.582,-0.406 2.585,-0.404 2.588,-0.402 2.591,-0.400 2.595,-0.398 2.598,-0.396 2.601,-0.395 2.604,-0.393 2.607,-0.391 2.610,-0.389 2.614,-0.387 2.617,-0.385 2.620,-0.383 2.623,-0.381 2.626,-0.379 2.629,-0.377 2.632,-0.375 2.636,-0.373 2.639,-0.371 2.642,-0.369 2.645,-0.367 2.648,-0.365 2.651,-0.363 2.655,-0.361 2.658,-0.359 2.661,-0.357 2.664,-0.355 2.667,-0.354 2.670,-0.352 2.674,-0.350 2.677,-0.348 2.680,-0.346 2.683,-0.344 2.686,-0.342 2.689,-0.340 2.693,-0.338 2.696,-0.336 2.699,-0.334 2.702,-0.332 2.705,-0.330 2.708,-0.328 2.711,-0.326 2.715,-0.324 2.718,-0.322 2.721,-0.320 2.724,-0.318 2.727,-0.316 2.730,-0.314 2.734,-0.313 2.737,-0.311 2.740,-0.309 2.743,-0.307 2.746,-0.305 2.749,-0.303 2.753,-0.301 2.756,-0.299 2.759,-0.297 2.762,-0.295 2.765,-0.293 2.768,-0.291 2.772,-0.289 2.775,-0.287 2.778,-0.285 2.781,-0.283 2.784,-0.281 2.787,-0.279 2.790,-0.277 2.794,-0.275 2.797,-0.273 2.800,-0.271 2.803,-0.270 2.806,-0.268 2.809,-0.266 2.813,-0.264 2.816,-0.262 2.819,-0.260 2.822,-0.258 2.825,-0.256 2.828,-0.254 2.832,-0.252 2.835,-0.250 2.838,-0.248 2.841,-0.246 2.844,-0.244 2.847,-0.242 2.851,-0.240 2.854,-0.238 2.857,-0.236 2.860,-0.234 2.863,-0.232 2.866,-0.230 2.869,-0.229 2.873,-0.227 2.876,-0.225 2.879,-0.223 2.882,-0.221 2.885,-0.219 2.888,-0.217 2.892,-0.215 2.895,-0.213 2.898,-0.211 2.901,-0.209 2.904,-0.207 2.907,-0.205 2.911,-0.203 2.914,-0.201 2.917,-0.199 2.920,-0.197 2.923,-0.195 2.926,-0.193 2.930,-0.191 2.933,-0.189 2.936,-0.188 2.939,-0.186 2.942,-0.184 2.945,-0.182 2.948,-0.180 2.952,-0.178 2.955,-0.176 2.958,-0.174 2.961,-0.172 2.964,-0.170 2.967,-0.168 2.971,-0.166 2.974,-0.164 2.977,-0.162 2.980,-0.160 2.983,-0.158 2.986,-0.156 2.990,-0.154 2.993,-0.152 2.996,-0.150 2.999,-0.148 3.002,-0.146 3.005,-0.145 3.009,-0.143 3.012,-0.141 3.015,-0.139 3.018,-0.137 3.021,-0.135 3.024,-0.133 3.027,-0.131 3.031,-0.129 3.034,-0.127 3.037,-0.125 3.040,-0.123 3.043,-0.121 3.046,-0.119 3.050,-0.117 3.053,-0.115 3.056,-0.113 3.059,-0.111 3.062,-0.109 3.065,-0.107 3.069,-0.105 3.072,-0.104 3.075,-0.102 3.078,-0.100 3.081,-0.098 3.084,-0.096 3.088,-0.094 3.091,-0.092 3.094,-0.090 3.097,-0.088 3.100,-0.086 3.103,-0.084 3.106,-0.082 3.110,-0.080 3.113,-0.078 3.116,-0.076 3.119,-0.074 3.122,-0.072 3.125,-0.070 3.129,-0.068 3.132,-0.066 3.135,-0.064 3.138,-0.063 3.141,-0.061 3.144,-0.059 3.148,-0.057 3.151,-0.055 3.154,-0.053 3.157,-0.051 3.160,-0.049 3.163,-0.047 3.167,-0.045 3.170,-0.043 3.173,-0.041 3.176,-0.039 3.179,-0.037 3.182,-0.035 3.186,-0.033 3.189,-0.031 3.192,-0.029 3.195,-0.027 3.198,-0.025 3.201,-0.023 3.204,-0.021 3.208,-0.020 3.211,-0.018 3.214,-0.016 3.217,-0.014 3.220,-0.012 3.223,-0.010 3.227,-0.008 3.230,-0.006 3.233,-0.004 3.236,-0.002" />
</g>
</svg>