<svg xmlns="http://www.w3.org/2000/svg" width="161.803" height="100.000" viewBox="-85.902 -55.000 171.803 110.000">
<g fill="none" stroke="black" stroke-width="0.010%" transform="translate(0, 0.000) scale(50.000, -50.000)">
<circle cx="-1.618" cy="0.000" r="0.010" />
<circle cx="0.000" cy="1.000" r="0.010" />
<polyline points="-1.618,1.000 -1.586,0.921 -1.553,0.843 -1.521,0.767 -1.489,0.693 -1.456,0.620 -1.424,0.549 -1.392,0.479 -1.359,0.411 -1.327,0.345 -1.294,0.280 -1.262,0.217 -1.230,0.155 -1.197,0.095 -1.165,0.037 -1.133,-0.020 -1.100,-0.075 -1.068,-0.129 -1.036,-0.181 -1.003,-0.231 -0.971,-0.280 -0.938,-0.327 -0.906,-0.373 -0.874,-0.417 -0.841,-0.459 -0.809,-0.500 -0.777,-0.539 -0.744,-0.577 -0.712,-0.613 -0.680,-0.647 -0.647,-0.680 -0.615,-0.711 -0.582,-0.741 -0.550,-0.769 -0.518,-0.795 -0.485,-0.820 -0.453,-0.843 -0.421,-0.865 -0.388,-0.885 -0.356,-0.903 -0.324,-0.920 -0.291,-0.935 -0.259,-0.949 -0.227,-0.961 -0.194,-0.971 -0.162,-0.980 -0.129,-0.987 -0.097,-0.993 -0.065,-0.997 -0.032,-0.999 0.000,-1.000 0.032,-0.999 0.065,-0.997 0.097,-0.993 0.129,-0.987 0.162,-0.980 0.194,-0.971 0.227,-0.961 0.259,-0.949 0.291,-0.935 0.324,-0.920 0.356,-0.903 0.388,-0.885 0.421,-0.865 0.453,-0.843 0.485,-0.820 0.518,-0.795 0.550,-0.769 0.582,-0.741 0.615,-0.711 0.647,-0.680 0.680,-0.647 0.712,-0.613 0.744,-0.577 0.777,-0.539 0.809,-0.500 0.841,-0.459 0.874,-0.417 0.906,-0.373 0.938,-0.327 0.971,-0.280 1.003,-0.231 1.036,-0.181 1.068,-0.129 1.100,-0.075 1.133,-0.020 1.165,0.037 1.197,0.095 1.230,0.155 1.262,0.217 1.294,0.280 1.327,0.345 1.359,0.411 1.392,0.479 1.424,0.549 1.456,0.620 1.489,0.693 1.521,0.767 1.553,0.843 1.586,0.921 1.618,1.000" />
</g>
</svg>