<svg xmlns="http://www.w3.org/2000/svg" width="161.803" height="100.000" viewBox="-85.902 -55.000 171.803 110.000">
<g fill="none" stroke="black" stroke-width="0.010%" transform="translate(0, 0.000) scale(50.000, -50.000)">
<circle cx="-1.618" cy="0.000" r="0.010" />
<circle cx="0.000" cy="1.000" r="0.010" />
<polyline points="-1.618,-1.000 -1.586,-0.980 -1.553,-0.960 -1.521,-0.940 -1.489,-0.920 -1.456,-0.900 -1.424,-0.880 -1.392,-0.860 -1.359,-0.840 -1.327,-0.820 -1.294,-0.800 -1.262,-0.780 -1.230,-0.760 -1.197,-0.740 -1.165,-0.720 -1.133,-0.700 -1.100,-0.680 -1.068,-0.660 -1.036,-0.640 -1.003,-0.620 -0.971,-0.600 -0.938,-0.580 -0.906,-0.560 -0.874,-0.540 -0.841,-0.520 -0.809,-0.500 -0.777,-0.480 -0.744,-0.460 -0.712,-0.440 -0.680,-0.420 -0.647,-0.400 -0.615,-0.380 -0.582,-0.360 -0.550,-0.340 -0.518,-0.320 -0.485,-0.300 -0.453,-0.280 -0.421,-0.260 -0.388,-0.240 -0.356,-0.220 -0.324,-0.200 -0.291,-0.180 -0.259,-0.160 -0.227,-0.140 -0.194,-0.120 -0.162,-0.100 -0.129,-0.080 -0.097,-0.060 -0.065,-0.040 -0.032,-0.020 0.000,0.000 0.032,0.020 0.065,0.040 0.097,0.060 0.129,0.080 0.162,0.100 0.194,0.120 0.227,0.140 0.259,0.160 0.291,0.180 0.324,0.200 0.356,0.220 0.388,0.240 0.421,0.260 0.453,0.280 0.485,0.300 0.518,0.320 0.550,0.340 0.582,0.360 0.615,0.380 0.647,0.400 0.680,0.420 0.712,0.440 0.744,0.460 0.777,0.480 0.809,0.500 0.841,0.520 0.874,0.540 0.906,0.560 0.938,0.580 0.971,0.600 1.003,0.620 1.036,0.640 1.068,0.660 1.100,0.680 1.133,0.700 1.165,0.720 1.197,0.740 1.230,0.760 1.262,0.780 1.294,0.800 1.327,0.820 1.359,0.840 1.392,0.860 1.424,0.880 1.456,0.900 1.489,0.920 1.521,0.940 1.553,0.960 1.586,0.980 1.618,1.000" />
</g>
</svg>