<svg xmlns="http://www.w3.org/2000/svg" width="161.8" height="100.0" viewBox="-4.842 -53.690 171.803 110.000">
<g fill="none" stroke="black" stroke-width="0.0097%" transform="translate(0, 2.6208) scale(51.3104, -51.3104)">
<circle cx="0.003" cy="0.000" r="0.010" />
<polyline points="0.003,1.000 0.006,0.997 0.009,0.987 0.012,0.971 0.015,0.949 0.018,0.921 0.022,0.886 0.025,0.846 0.028,0.801 0.031,0.751 0.034,0.695 0.037,0.636 0.040,0.572 0.043,0.505 0.046,0.434 0.049,0.361 0.052,0.286 0.055,0.209 0.059,0.131 0.062,0.052 0.065,-0.027 0.068,-0.105 0.071,-0.183 0.074,-0.259 0.077,-0.334 0.080,-0.406 0.083,-0.475 0.086,-0.541 0.089,-0.603 0.092,-0.661 0.096,-0.715 0.099,-0.763 0.102,-0.807 0.105,-0.845 0.108,-0.877 0.111,-0.904 0.114,-0.924 0.117,-0.939 0.120,-0.947 0.123,-0.949 0.126,-0.945 0.129,-0.934 0.133,-0.918 0.136,-0.895 0.139,-0.867 0.142,-0.833 0.145,-0.794 0.148,-0.750 0.151,-0.701 0.154,-0.648 0.157,-0.591 0.160,-0.530 0.163,-0.466 0.166,-0.400 0.170,-0.331 0.173,-0.260 0.176,-0.188 0.179,-0.115 0.182,-0.042 0.185,0.031 0.188,0.103 0.191,0.174 0.194,0.244 0.197,0.311 0.200,0.376 0.203,0.438 0.207,0.497 0.210,0.551 0.213,0.602 0.216,0.649 0.219,0.690 0.222,0.727 0.225,0.758 0.228,0.785 0.231,0.805 0.234,0.820 0.237,0.830 0.240,0.833 0.244,0.831 0.247,0.823 0.250,0.810 0.253,0.791 0.256,0.767 0.259,0.738 0.262,0.704 0.265,0.666 0.268,0.623 0.271,0.576 0.274,0.526 0.277,0.472 0.281,0.415 0.284,0.356 0.287,0.295 0.290,0.233 0.293,0.169 0.296,0.104 0.299,0.040 0.302,-0.025 0.305,-0.088 0.308,-0.151 0.311,-0.212 0.314,-0.272 0.318,-0.328 0.321,-0.382 0.324,-0.434 0.327,-0.481 0.330,-0.525 0.333,-0.565 0.336,-0.600 0.339,-0.631 0.342,-0.658 0.345,-0.679 0.348,-0.696 0.351,-0.707 0.354,-0.714 0.358,-0.715 0.361,-0.711 0.364,-0.703 0.367,-0.689 0.370,-0.670 0.373,-0.647 0.376,-0.620 0.379,-0.588 0.382,-0.552 0.385,-0.513 0.388,-0.470 0.391,-0.425 0.395,-0.376 0.398,-0.325 0.401,-0.273 0.404,-0.218 0.407,-0.163 0.410,-0.107 0.413,-0.050 0.416,0.006 0.419,0.062 0.422,0.117 0.425,0.171 0.428,0.224 0.432,0.274 0.435,0.322 0.438,0.367 0.441,0.409 0.444,0.448 0.447,0.484 0.450,0.515 0.453,0.543 0.456,0.567 0.459,0.586 0.462,0.601 0.465,0.612 0.469,0.618 0.472,0.619 0.475,0.616 0.478,0.608 0.481,0.597 0.484,0.580 0.487,0.560 0.490,0.536 0.493,0.508 0.496,0.477 0.499,0.442 0.502,0.404 0.506,0.364 0.509,0.321 0.512,0.276 0.515,0.230 0.518,0.182 0.521,0.133 0.524,0.083 0.527,0.034 0.530,-0.016 0.533,-0.065 0.536,-0.114 0.539,-0.161 0.543,-0.207 0.546,-0.251 0.549,-0.292 0.552,-0.332 0.555,-0.368 0.558,-0.402 0.561,-0.432 0.564,-0.459 0.567,-0.483 0.570,-0.503 0.573,-0.519 0.576,-0.531 0.580,-0.539 0.583,-0.543 0.586,-0.542 0.589,-0.538 0.592,-0.530 0.595,-0.518 0.598,-0.502 0.601,-0.483 0.604,-0.460 0.607,-0.434 0.610,-0.405 0.613,-0.373 0.617,-0.338 0.620,-0.301 0.623,-0.262 0.626,-0.222 0.629,-0.180 0.632,-0.137 0.635,-0.093 0.638,-0.048 0.641,-0.004 0.644,0.040 0.647,0.084 0.650,0.127 0.653,0.168 0.657,0.208 0.660,0.246 0.663,0.283 0.666,0.317 0.669,0.348 0.672,0.376 0.675,0.402 0.678,0.424 0.681,0.443 0.684,0.459 0.687,0.471 0.690,0.480 0.694,0.484 0.697,0.486 0.700,0.483 0.703,0.477 0.706,0.468 0.709,0.455 0.712,0.438 0.715,0.418 0.718,0.396 0.721,0.370 0.724,0.342 0.727,0.312 0.731,0.279 0.734,0.244 0.737,0.208 0.740,0.170 0.743,0.131 0.746,0.092 0.749,0.051 0.752,0.011 0.755,-0.029 0.758,-0.069 0.761,-0.108 0.764,-0.146 0.768,-0.183 0.771,-0.218 0.774,-0.251 0.777,-0.282 0.780,-0.311 0.783,-0.338 0.786,-0.362 0.789,-0.383 0.792,-0.401 0.795,-0.416 0.798,-0.427 0.801,-0.436 0.805,-0.441 0.808,-0.442 0.811,-0.441 0.814,-0.436 0.817,-0.428 0.820,-0.416 0.823,-0.402 0.826,-0.384 0.829,-0.364 0.832,-0.341 0.835,-0.315 0.838,-0.287 0.842,-0.258 0.845,-0.226 0.848,-0.193 0.851,-0.158 0.854,-0.123 0.857,-0.086 0.860,-0.049 0.863,-0.012 0.866,0.025 0.869,0.061 0.872,0.097 0.875,0.132 0.879,0.166 0.882,0.199 0.885,0.230 0.888,0.259 0.891,0.286 0.894,0.310 0.897,0.333 0.900,0.352 0.903,0.369 0.906,0.383 0.909,0.394 0.912,0.402 0.916,0.407 0.919,0.408 0.922,0.407 0.925,0.402 0.928,0.395 0.931,0.384 0.934,0.371 0.937,0.355 0.940,0.336 0.943,0.314 0.946,0.291 0.949,0.265 0.953,0.237 0.956,0.208 0.959,0.177 0.962,0.145 0.965,0.111 0.968,0.078 0.971,0.043 0.974,0.009 0.977,-0.026 0.980,-0.060 0.983,-0.094 0.986,-0.127 0.989,-0.158 0.993,-0.189 0.996,-0.217 0.999,-0.245 1.002,-0.270 1.005,-0.293 1.008,-0.313 1.011,-0.332 1.014,-0.347 1.017,-0.360 1.020,-0.370 1.023,-0.377 1.026,-0.382 1.030,-0.383 1.033,-0.382 1.036,-0.377 1.039,-0.370 1.042,-0.360 1.045,-0.347 1.048,-0.331 1.051,-0.314 1.054,-0.293 1.057,-0.271 1.060,-0.246 1.063,-0.220 1.067,-0.192 1.070,-0.163 1.073,-0.132 1.076,-0.101 1.079,-0.069 1.082,-0.036 1.085,-0.003 1.088,0.029 1.091,0.062 1.094,0.093 1.097,0.124 1.100,0.154 1.104,0.183 1.107,0.210 1.110,0.236 1.113,0.259 1.116,0.281 1.119,0.300 1.122,0.317 1.125,0.332 1.128,0.344 1.131,0.353 1.134,0.360 1.137,0.363 1.141,0.364 1.144,0.363 1.147,0.358 1.150,0.351 1.153,0.341 1.156,0.328 1.159,0.313 1.162,0.296 1.165,0.276 1.168,0.254 1.171,0.231 1.174,0.205 1.178,0.178 1.181,0.150 1.184,0.121 1.187,0.091 1.190,0.060 1.193,0.029 1.196,-0.002 1.199,-0.034 1.202,-0.065 1.205,-0.095 1.208,-0.124 1.211,-0.153 1.215,-0.180 1.218,-0.206 1.221,-0.230 1.224,-0.253 1.227,-0.273 1.230,-0.291 1.233,-0.307 1.236,-0.321 1.239,-0.332 1.242,-0.340 1.245,-0.346 1.248,-0.349 1.252,-0.350 1.255,-0.348 1.258,-0.343 1.261,-0.335 1.264,-0.325 1.267,-0.313 1.270,-0.298 1.273,-0.280 1.276,-0.261 1.279,-0.240 1.282,-0.216 1.285,-0.192 1.288,-0.165 1.292,-0.138 1.295,-0.110 1.298,-0.080 1.301,-0.050 1.304,-0.020 1.307,0.010 1.310,0.040 1.313,0.070 1.316,0.099 1.319,0.128 1.322,0.155 1.325,0.181 1.329,0.206 1.332,0.229 1.335,0.251 1.338,0.270 1.341,0.287 1.344,0.302 1.347,0.315 1.350,0.325 1.353,0.333 1.356,0.338 1.359,0.341 1.362,0.341 1.366,0.338 1.369,0.333 1.372,0.325 1.375,0.314 1.378,0.302 1.381,0.286 1.384,0.269 1.387,0.250 1.390,0.229 1.393,0.206 1.396,0.181 1.399,0.155 1.403,0.128 1.406,0.100 1.409,0.071 1.412,0.042 1.415,0.012 1.418,-0.017 1.421,-0.047 1.424,-0.076 1.427,-0.105 1.430,-0.132 1.433,-0.159 1.436,-0.184 1.440,-0.208 1.443,-0.231 1.446,-0.251 1.449,-0.270 1.452,-0.286 1.455,-0.301 1.458,-0.313 1.461,-0.322 1.464,-0.329 1.467,-0.334 1.470,-0.336 1.473,-0.335 1.477,-0.332 1.480,-0.326 1.483,-0.318 1.486,-0.307 1.489,-0.294 1.492,-0.278 1.495,-0.261 1.498,-0.241 1.501,-0.220 1.504,-0.197 1.507,-0.172 1.510,-0.146 1.514,-0.119 1.517,-0.091 1.520,-0.063 1.523,-0.034 1.526,-0.004 1.529,0.025 1.532,0.054 1.535,0.083 1.538,0.111 1.541,0.138 1.544,0.164 1.547,0.189 1.551,0.212 1.554,0.234 1.557,0.254 1.560,0.272 1.563,0.288 1.566,0.302 1.569,0.313 1.572,0.322 1.575,0.328 1.578,0.332 1.581,0.333 1.584,0.332 1.588,0.328 1.591,0.322 1.594,0.313 1.597,0.302 1.600,0.288 1.603,0.272 1.606,0.254 1.609,0.234 1.612,0.212 1.615,0.189 1.618,0.164 1.621,0.138 1.624,0.111 1.628,0.083 1.631,0.054 1.634,0.025 1.637,-0.004 1.640,-0.034 1.643,-0.063 1.646,-0.091 1.649,-0.119 1.652,-0.146 1.655,-0.172 1.658,-0.197 1.661,-0.220 1.665,-0.241 1.668,-0.261 1.671,-0.278 1.674,-0.294 1.677,-0.307 1.680,-0.318 1.683,-0.326 1.686,-0.332 1.689,-0.335 1.692,-0.336 1.695,-0.334 1.698,-0.329 1.702,-0.322 1.705,-0.313 1.708,-0.301 1.711,-0.286 1.714,-0.270 1.717,-0.251 1.720,-0.231 1.723,-0.208 1.726,-0.184 1.729,-0.159 1.732,-0.132 1.735,-0.105 1.739,-0.076 1.742,-0.047 1.745,-0.017 1.748,0.012 1.751,0.042 1.754,0.071 1.757,0.100 1.760,0.128 1.763,0.155 1.766,0.181 1.769,0.206 1.772,0.229 1.776,0.250 1.779,0.269 1.782,0.286 1.785,0.302 1.788,0.314 1.791,0.325 1.794,0.333 1.797,0.338 1.800,0.341 1.803,0.341 1.806,0.338 1.809,0.333 1.813,0.325 1.816,0.315 1.819,0.302 1.822,0.287 1.825,0.270 1.828,0.251 1.831,0.229 1.834,0.206 1.837,0.181 1.840,0.155 1.843,0.128 1.846,0.099 1.850,0.070 1.853,0.040 1.856,0.010 1.859,-0.020 1.862,-0.050 1.865,-0.080 1.868,-0.110 1.871,-0.138 1.874,-0.165 1.877,-0.192 1.880,-0.216 1.883,-0.240 1.887,-0.261 1.890,-0.280 1.893,-0.298 1.896,-0.313 1.899,-0.325 1.902,-0.335 1.905,-0.343 1.908,-0.348 1.911,-0.350 1.914,-0.349 1.917,-0.346 1.920,-0.340 1.923,-0.332 1.927,-0.321 1.930,-0.307 1.933,-0.291 1.936,-0.273 1.939,-0.253 1.942,-0.230 1.945,-0.206 1.948,-0.180 1.951,-0.153 1.954,-0.124 1.957,-0.095 1.960,-0.065 1.964,-0.034 1.967,-0.002 1.970,0.029 1.973,0.060 1.976,0.091 1.979,0.121 1.982,0.150 1.985,0.178 1.988,0.205 1.991,0.231 1.994,0.254 1.997,0.276 2.001,0.296 2.004,0.313 2.007,0.328 2.010,0.341 2.013,0.351 2.016,0.358 2.019,0.363 2.022,0.364 2.025,0.363 2.028,0.360 2.031,0.353 2.034,0.344 2.038,0.332 2.041,0.317 2.044,0.300 2.047,0.281 2.050,0.259 2.053,0.236 2.056,0.210 2.059,0.183 2.062,0.154 2.065,0.124 2.068,0.093 2.071,0.062 2.075,0.029 2.078,-0.003 2.081,-0.036 2.084,-0.069 2.087,-0.101 2.090,-0.132 2.093,-0.163 2.096,-0.192 2.099,-0.220 2.102,-0.246 2.105,-0.271 2.108,-0.293 2.112,-0.314 2.115,-0.331 2.118,-0.347 2.121,-0.360 2.124,-0.370 2.127,-0.377 2.130,-0.382 2.133,-0.383 2.136,-0.382 2.139,-0.377 2.142,-0.370 2.145,-0.360 2.149,-0.347 2.152,-0.332 2.155,-0.313 2.158,-0.293 2.161,-0.270 2.164,-0.245 2.167,-0.217 2.170,-0.189 2.173,-0.158 2.176,-0.127 2.179,-0.094 2.182,-0.060 2.186,-0.026 2.189,0.009 2.192,0.043 2.195,0.078 2.198,0.111 2.201,0.145 2.204,0.177 2.207,0.208 2.210,0.237 2.213,0.265 2.216,0.291 2.219,0.314 2.223,0.336 2.226,0.355 2.229,0.371 2.232,0.384 2.235,0.395 2.238,0.402 2.241,0.407 2.244,0.408 2.247,0.407 2.250,0.402 2.253,0.394 2.256,0.383 2.259,0.369 2.263,0.352 2.266,0.333 2.269,0.310 2.272,0.286 2.275,0.259 2.278,0.230 2.281,0.199 2.284,0.166 2.287,0.132 2.290,0.097 2.293,0.061 2.296,0.025 2.300,-0.012 2.303,-0.049 2.306,-0.086 2.309,-0.123 2.312,-0.158 2.315,-0.193 2.318,-0.226 2.321,-0.258 2.324,-0.287 2.327,-0.315 2.330,-0.341 2.333,-0.364 2.337,-0.384 2.340,-0.402 2.343,-0.416 2.346,-0.428 2.349,-0.436 2.352,-0.441 2.355,-0.442 2.358,-0.441 2.361,-0.436 2.364,-0.427 2.367,-0.416 2.370,-0.401 2.374,-0.383 2.377,-0.362 2.380,-0.338 2.383,-0.311 2.386,-0.282 2.389,-0.251 2.392,-0.218 2.395,-0.183 2.398,-0.146 2.401,-0.108 2.404,-0.069 2.407,-0.029 2.411,0.011 2.414,0.051 2.417,0.092 2.420,0.131 2.423,0.170 2.426,0.208 2.429,0.244 2.432,0.279 2.435,0.312 2.438,0.342 2.441,0.370 2.444,0.396 2.448,0.418 2.451,0.438 2.454,0.455 2.457,0.468 2.460,0.477 2.463,0.483 2.466,0.486 2.469,0.484 2.472,0.480 2.475,0.471 2.478,0.459 2.481,0.443 2.485,0.424 2.488,0.402 2.491,0.376 2.494,0.348 2.497,0.317 2.500,0.283 2.503,0.246 2.506,0.208 2.509,0.168 2.512,0.127 2.515,0.084 2.518,0.040 2.522,-0.004 2.525,-0.048 2.528,-0.093 2.531,-0.137 2.534,-0.180 2.537,-0.222 2.540,-0.262 2.543,-0.301 2.546,-0.338 2.549,-0.373 2.552,-0.405 2.555,-0.434 2.558,-0.460 2.562,-0.483 2.565,-0.502 2.568,-0.518 2.571,-0.530 2.574,-0.538 2.577,-0.542 2.580,-0.543 2.583,-0.539 2.586,-0.531 2.589,-0.519 2.592,-0.503 2.595,-0.483 2.599,-0.459 2.602,-0.432 2.605,-0.402 2.608,-0.368 2.611,-0.332 2.614,-0.292 2.617,-0.251 2.620,-0.207 2.623,-0.161 2.626,-0.114 2.629,-0.065 2.632,-0.016 2.636,0.034 2.639,0.083 2.642,0.133 2.645,0.182 2.648,0.230 2.651,0.276 2.654,0.321 2.657,0.364 2.660,0.404 2.663,0.442 2.666,0.477 2.669,0.508 2.673,0.536 2.676,0.560 2.679,0.580 2.682,0.597 2.685,0.608 2.688,0.616 2.691,0.619 2.694,0.618 2.697,0.612 2.700,0.601 2.703,0.586 2.706,0.567 2.710,0.543 2.713,0.515 2.716,0.484 2.719,0.448 2.722,0.409 2.725,0.367 2.728,0.322 2.731,0.274 2.734,0.224 2.737,0.171 2.740,0.117 2.743,0.062 2.747,0.006 2.750,-0.050 2.753,-0.107 2.756,-0.163 2.759,-0.218 2.762,-0.273 2.765,-0.325 2.768,-0.376 2.771,-0.425 2.774,-0.470 2.777,-0.513 2.780,-0.552 2.784,-0.588 2.787,-0.620 2.790,-0.647 2.793,-0.670 2.796,-0.689 2.799,-0.703 2.802,-0.711 2.805,-0.715 2.808,-0.714 2.811,-0.707 2.814,-0.696 2.817,-0.679 2.821,-0.658 2.824,-0.631 2.827,-0.600 2.830,-0.565 2.833,-0.525 2.836,-0.481 2.839,-0.434 2.842,-0.382 2.845,-0.328 2.848,-0.272 2.851,-0.212 2.854,-0.151 2.858,-0.088 2.861,-0.025 2.864,0.040 2.867,0.104 2.870,0.169 2.873,0.233 2.876,0.295 2.879,0.356 2.882,0.415 2.885,0.472 2.888,0.526 2.891,0.576 2.894,0.623 2.898,0.666 2.901,0.704 2.904,0.738 2.907,0.767 2.910,0.791 2.913,0.810 2.916,0.823 2.919,0.831 2.922,0.833 2.925,0.830 2.928,0.820 2.931,0.805 2.935,0.785 2.938,0.758 2.941,0.727 2.944,0.690 2.947,0.649 2.950,0.602 2.953,0.551 2.956,0.497 2.959,0.438 2.962,0.376 2.965,0.311 2.968,0.244 2.972,0.174 2.975,0.103 2.978,0.031 2.981,-0.042 2.984,-0.115 2.987,-0.188 2.990,-0.260 2.993,-0.331 2.996,-0.400 2.999,-0.466 3.002,-0.530 3.005,-0.591 3.009,-0.648 3.012,-0.701 3.015,-0.750 3.018,-0.794 3.021,-0.833 3.024,-0.867 3.027,-0.895 3.030,-0.918 3.033,-0.934 3.036,-0.945 3.039,-0.949 3.042,-0.947 3.046,-0.939 3.049,-0.924 3.052,-0.904 3.055,-0.877 3.058,-0.845 3.061,-0.807 3.064,-0.763 3.067,-0.715 3.070,-0.661 3.073,-0.603 3.076,-0.541 3.079,-0.475 3.083,-0.406 3.086,-0.334 3.089,-0.259 3.092,-0.183 3.095,-0.105 3.098,-0.027 3.101,0.052 3.104,0.131 3.107,0.209 3.110,0.286 3.113,0.361 3.116,0.434 3.120,0.505 3.123,0.572 3.126,0.636 3.129,0.695 3.132,0.751 3.135,0.801 3.138,0.846 3.141,0.886 3.144,0.921 3.147,0.949 3.150,0.971 3.153,0.987 3.157,0.997" />
</g>
</svg>