<svg xmlns="http://www.w3.org/2000/svg" width="161.8" height="100.0" viewBox="-4.842 -20.681 171.803 110.000">
<g fill="none" stroke="black" stroke-width="0.0059%" transform="translate(0, 68.6386) scale(84.3193, -84.3193)">
<polyline points="0.002,1.000 0.004,1.000 0.006,0.999 0.008,0.998 0.009,0.996 0.011,0.993 0.013,0.991 0.015,0.987 0.017,0.983 0.019,0.979 0.021,0.974 0.023,0.969 0.024,0.963 0.026,0.956 0.028,0.949 0.030,0.942 0.032,0.935 0.034,0.926 0.036,0.918 0.038,0.909 0.039,0.900 0.041,0.890 0.043,0.880 0.045,0.869 0.047,0.859 0.049,0.848 0.051,0.836 0.053,0.825 0.054,0.813 0.056,0.801 0.058,0.788 0.060,0.776 0.062,0.763 0.064,0.750 0.066,0.737 0.068,0.724 0.069,0.710 0.071,0.697 0.073,0.683 0.075,0.669 0.077,0.656 0.079,0.642 0.081,0.628 0.083,0.614 0.084,0.601 0.086,0.587 0.088,0.573 0.090,0.559 0.092,0.546 0.094,0.532 0.096,0.519 0.098,0.505 0.099,0.492 0.101,0.479 0.103,0.466 0.105,0.453 0.107,0.441 0.109,0.428 0.111,0.416 0.113,0.404 0.114,0.392 0.116,0.380 0.118,0.369 0.120,0.358 0.122,0.347 0.124,0.336 0.126,0.325 0.128,0.315 0.129,0.305 0.131,0.295 0.133,0.285 0.135,0.276 0.137,0.267 0.139,0.258 0.141,0.250 0.143,0.241 0.144,0.233 0.146,0.225 0.148,0.218 0.150,0.210 0.152,0.203 0.154,0.196 0.156,0.189 0.158,0.183 0.159,0.177 0.161,0.170 0.163,0.165 0.165,0.159 0.167,0.153 0.169,0.148 0.171,0.143 0.173,0.138 0.174,0.133 0.176,0.129 0.178,0.124 0.180,0.120 0.182,0.116 0.184,0.112 0.186,0.108 0.188,0.104 0.189,0.100 0.191,0.096 0.193,0.093 0.195,0.089 0.197,0.086 0.199,0.083 0.201,0.080 0.203,0.076 0.204,0.073 0.206,0.070 0.208,0.067 0.210,0.064 0.212,0.062 0.214,0.059 0.216,0.056 0.218,0.053 0.219,0.050 0.221,0.047 0.223,0.045 0.225,0.042 0.227,0.039 0.229,0.036 0.231,0.033 0.233,0.031 0.234,0.028 0.236,0.025 0.238,0.022 0.240,0.020 0.242,0.017 0.244,0.014 0.246,0.011 0.248,0.008 0.249,0.005 0.251,0.003 0.253,-0.000 0.255,-0.003 0.257,-0.006 0.259,-0.009 0.261,-0.011 0.263,-0.014 0.264,-0.017 0.266,-0.020 0.268,-0.023 0.270,-0.025 0.272,-0.028 0.274,-0.031 0.276,-0.034 0.278,-0.036 0.279,-0.039 0.281,-0.042 0.283,-0.044 0.285,-0.047 0.287,-0.049 0.289,-0.052 0.291,-0.054 0.293,-0.057 0.294,-0.059 0.296,-0.061 0.298,-0.064 0.300,-0.066 0.302,-0.068 0.304,-0.070 0.306,-0.072 0.308,-0.074 0.310,-0.076 0.311,-0.078 0.313,-0.080 0.315,-0.082 0.317,-0.083 0.319,-0.085 0.321,-0.087 0.323,-0.088 0.325,-0.089 0.326,-0.091 0.328,-0.092 0.330,-0.093 0.332,-0.095 0.334,-0.096 0.336,-0.097 0.338,-0.098 0.340,-0.099 0.341,-0.100 0.343,-0.100 0.345,-0.101 0.347,-0.102 0.349,-0.103 0.351,-0.103 0.353,-0.104 0.355,-0.105 0.356,-0.105 0.358,-0.106 0.360,-0.106 0.362,-0.107 0.364,-0.107 0.366,-0.107 0.368,-0.108 0.370,-0.108 0.371,-0.108 0.373,-0.109 0.375,-0.109 0.377,-0.109 0.379,-0.110 0.381,-0.110 0.383,-0.110 0.385,-0.111 0.386,-0.111 0.388,-0.111 0.390,-0.112 0.392,-0.112 0.394,-0.112 0.396,-0.113 0.398,-0.113 0.400,-0.114 0.401,-0.114 0.403,-0.114 0.405,-0.115 0.407,-0.115 0.409,-0.116 0.411,-0.116 0.413,-0.117 0.415,-0.118 0.416,-0.118 0.418,-0.119 0.420,-0.120 0.422,-0.120 0.424,-0.121 0.426,-0.122 0.428,-0.122 0.430,-0.123 0.431,-0.124 0.433,-0.125 0.435,-0.126 0.437,-0.127 0.439,-0.128 0.441,-0.128 0.443,-0.129 0.445,-0.130 0.446,-0.131 0.448,-0.132 0.450,-0.133 0.452,-0.134 0.454,-0.135 0.456,-0.136 0.458,-0.137 0.460,-0.138 0.461,-0.139 0.463,-0.140 0.465,-0.141 0.467,-0.142 0.469,-0.143 0.471,-0.144 0.473,-0.145 0.475,-0.146 0.476,-0.147 0.478,-0.147 0.480,-0.148 0.482,-0.149 0.484,-0.150 0.486,-0.151 0.488,-0.151 0.490,-0.152 0.491,-0.153 0.493,-0.153 0.495,-0.154 0.497,-0.155 0.499,-0.155 0.501,-0.156 0.503,-0.156 0.505,-0.157 0.506,-0.157 0.508,-0.158 0.510,-0.158 0.512,-0.158 0.514,-0.159 0.516,-0.159 0.518,-0.159 0.520,-0.159 0.521,-0.159 0.523,-0.159 0.525,-0.160 0.527,-0.160 0.529,-0.160 0.531,-0.160 0.533,-0.160 0.535,-0.160 0.536,-0.160 0.538,-0.160 0.540,-0.160 0.542,-0.160 0.544,-0.159 0.546,-0.159 0.548,-0.159 0.550,-0.159 0.551,-0.159 0.553,-0.159 0.555,-0.159 0.557,-0.159 0.559,-0.158 0.561,-0.158 0.563,-0.158 0.565,-0.158 0.566,-0.158 0.568,-0.158 0.570,-0.158 0.572,-0.158 0.574,-0.158 0.576,-0.157 0.578,-0.157 0.580,-0.157 0.581,-0.157 0.583,-0.157 0.585,-0.157 0.587,-0.158 0.589,-0.158 0.591,-0.158 0.593,-0.158 0.595,-0.158 0.597,-0.158 0.598,-0.158 0.600,-0.159 0.602,-0.159 0.604,-0.159 0.606,-0.159 0.608,-0.160 0.610,-0.160 0.612,-0.160 0.613,-0.161 0.615,-0.161 0.617,-0.162 0.619,-0.162 0.621,-0.163 0.623,-0.163 0.625,-0.164 0.627,-0.164 0.628,-0.165 0.630,-0.165 0.632,-0.166 0.634,-0.166 0.636,-0.167 0.638,-0.167 0.640,-0.168 0.642,-0.168 0.643,-0.169 0.645,-0.169 0.647,-0.170 0.649,-0.171 0.651,-0.171 0.653,-0.172 0.655,-0.172 0.657,-0.173 0.658,-0.173 0.660,-0.174 0.662,-0.174 0.664,-0.175 0.666,-0.175 0.668,-0.175 0.670,-0.176 0.672,-0.176 0.673,-0.177 0.675,-0.177 0.677,-0.177 0.679,-0.178 0.681,-0.178 0.683,-0.178 0.685,-0.178 0.687,-0.178 0.688,-0.179 0.690,-0.179 0.692,-0.179 0.694,-0.179 0.696,-0.179 0.698,-0.179 0.700,-0.179 0.702,-0.179 0.703,-0.179 0.705,-0.179 0.707,-0.179 0.709,-0.179 0.711,-0.179 0.713,-0.179 0.715,-0.178 0.717,-0.178 0.718,-0.178 0.720,-0.178 0.722,-0.178 0.724,-0.177 0.726,-0.177 0.728,-0.177 0.730,-0.177 0.732,-0.176 0.733,-0.176 0.735,-0.176 0.737,-0.176 0.739,-0.175 0.741,-0.175 0.743,-0.175 0.745,-0.175 0.747,-0.174 0.748,-0.174 0.750,-0.174 0.752,-0.174 0.754,-0.174 0.756,-0.173 0.758,-0.173 0.760,-0.173 0.762,-0.173 0.763,-0.173 0.765,-0.173 0.767,-0.173 0.769,-0.173 0.771,-0.173 0.773,-0.173 0.775,-0.173 0.777,-0.173 0.778,-0.173 0.780,-0.173 0.782,-0.173 0.784,-0.173 0.786,-0.173 0.788,-0.173 0.790,-0.173 0.792,-0.174 0.793,-0.174 0.795,-0.174 0.797,-0.174 0.799,-0.174 0.801,-0.175 0.803,-0.175 0.805,-0.175 0.807,-0.176 0.808,-0.176 0.810,-0.176 0.812,-0.177 0.814,-0.177 0.816,-0.178 0.818,-0.178 0.820,-0.178 0.822,-0.179 0.823,-0.179 0.825,-0.179 0.827,-0.180 0.829,-0.180 0.831,-0.181 0.833,-0.181 0.835,-0.181 0.837,-0.182 0.838,-0.182 0.840,-0.183 0.842,-0.183 0.844,-0.183 0.846,-0.184 0.848,-0.184 0.850,-0.184 0.852,-0.184 0.853,-0.185 0.855,-0.185 0.857,-0.185 0.859,-0.185 0.861,-0.185 0.863,-0.186 0.865,-0.186 0.867,-0.186 0.868,-0.186 0.870,-0.186 0.872,-0.186 0.874,-0.186 0.876,-0.186 0.878,-0.186 0.880,-0.186 0.882,-0.186 0.883,-0.186 0.885,-0.186 0.887,-0.185 0.889,-0.185 0.891,-0.185 0.893,-0.185 0.895,-0.185 0.897,-0.184 0.899,-0.184 0.900,-0.184 0.902,-0.184 0.904,-0.183 0.906,-0.183 0.908,-0.183 0.910,-0.183 0.912,-0.182 0.914,-0.182 0.915,-0.182 0.917,-0.181 0.919,-0.181 0.921,-0.181 0.923,-0.180 0.925,-0.180 0.927,-0.180 0.929,-0.179 0.930,-0.179 0.932,-0.179 0.934,-0.179 0.936,-0.178 0.938,-0.178 0.940,-0.178 0.942,-0.178 0.944,-0.177 0.945,-0.177 0.947,-0.177 0.949,-0.177 0.951,-0.177 0.953,-0.177 0.955,-0.177 0.957,-0.177 0.959,-0.177 0.960,-0.176 0.962,-0.176 0.964,-0.176 0.966,-0.177 0.968,-0.177 0.970,-0.177 0.972,-0.177 0.974,-0.177 0.975,-0.177 0.977,-0.177 0.979,-0.177 0.981,-0.177 0.983,-0.178 0.985,-0.178 0.987,-0.178 0.989,-0.178 0.990,-0.179 0.992,-0.179 0.994,-0.179 0.996,-0.179 0.998,-0.180 1.000,-0.180 1.002,-0.180 1.004,-0.181 1.005,-0.181 1.007,-0.181 1.009,-0.182 1.011,-0.182 1.013,-0.182 1.015,-0.183 1.017,-0.183 1.019,-0.183 1.020,-0.183 1.022,-0.184 1.024,-0.184 1.026,-0.184 1.028,-0.184 1.030,-0.185 1.032,-0.185 1.034,-0.185 1.035,-0.185 1.037,-0.185 1.039,-0.186 1.041,-0.186 1.043,-0.186 1.045,-0.186 1.047,-0.186 1.049,-0.186 1.050,-0.186 1.052,-0.186 1.054,-0.186 1.056,-0.186 1.058,-0.186 1.060,-0.186 1.062,-0.186 1.064,-0.185 1.065,-0.185 1.067,-0.185 1.069,-0.185 1.071,-0.185 1.073,-0.184 1.075,-0.184 1.077,-0.184 1.079,-0.184 1.080,-0.183 1.082,-0.183 1.084,-0.183 1.086,-0.182 1.088,-0.182 1.090,-0.181 1.092,-0.181 1.094,-0.181 1.095,-0.180 1.097,-0.180 1.099,-0.179 1.101,-0.179 1.103,-0.179 1.105,-0.178 1.107,-0.178 1.109,-0.178 1.110,-0.177 1.112,-0.177 1.114,-0.176 1.116,-0.176 1.118,-0.176 1.120,-0.175 1.122,-0.175 1.124,-0.175 1.125,-0.174 1.127,-0.174 1.129,-0.174 1.131,-0.174 1.133,-0.174 1.135,-0.173 1.137,-0.173 1.139,-0.173 1.140,-0.173 1.142,-0.173 1.144,-0.173 1.146,-0.173 1.148,-0.173 1.150,-0.173 1.152,-0.173 1.154,-0.173 1.155,-0.173 1.157,-0.173 1.159,-0.173 1.161,-0.173 1.163,-0.173 1.165,-0.173 1.167,-0.173 1.169,-0.173 1.170,-0.174 1.172,-0.174 1.174,-0.174 1.176,-0.174 1.178,-0.174 1.180,-0.175 1.182,-0.175 1.184,-0.175 1.186,-0.175 1.187,-0.176 1.189,-0.176 1.191,-0.176 1.193,-0.176 1.195,-0.177 1.197,-0.177 1.199,-0.177 1.201,-0.177 1.202,-0.178 1.204,-0.178 1.206,-0.178 1.208,-0.178 1.210,-0.178 1.212,-0.179 1.214,-0.179 1.216,-0.179 1.217,-0.179 1.219,-0.179 1.221,-0.179 1.223,-0.179 1.225,-0.179 1.227,-0.179 1.229,-0.179 1.231,-0.179 1.232,-0.179 1.234,-0.179 1.236,-0.179 1.238,-0.178 1.240,-0.178 1.242,-0.178 1.244,-0.178 1.246,-0.178 1.247,-0.177 1.249,-0.177 1.251,-0.177 1.253,-0.176 1.255,-0.176 1.257,-0.175 1.259,-0.175 1.261,-0.175 1.262,-0.174 1.264,-0.174 1.266,-0.173 1.268,-0.173 1.270,-0.172 1.272,-0.172 1.274,-0.171 1.276,-0.171 1.277,-0.170 1.279,-0.169 1.281,-0.169 1.283,-0.168 1.285,-0.168 1.287,-0.167 1.289,-0.167 1.291,-0.166 1.292,-0.166 1.294,-0.165 1.296,-0.165 1.298,-0.164 1.300,-0.164 1.302,-0.163 1.304,-0.163 1.306,-0.162 1.307,-0.162 1.309,-0.161 1.311,-0.161 1.313,-0.160 1.315,-0.160 1.317,-0.160 1.319,-0.159 1.321,-0.159 1.322,-0.159 1.324,-0.159 1.326,-0.158 1.328,-0.158 1.330,-0.158 1.332,-0.158 1.334,-0.158 1.336,-0.158 1.337,-0.158 1.339,-0.157 1.341,-0.157 1.343,-0.157 1.345,-0.157 1.347,-0.157 1.349,-0.157 1.351,-0.158 1.352,-0.158 1.354,-0.158 1.356,-0.158 1.358,-0.158 1.360,-0.158 1.362,-0.158 1.364,-0.158 1.366,-0.158 1.367,-0.159 1.369,-0.159 1.371,-0.159 1.373,-0.159 1.375,-0.159 1.377,-0.159 1.379,-0.159 1.381,-0.159 1.382,-0.160 1.384,-0.160 1.386,-0.160 1.388,-0.160 1.390,-0.160 1.392,-0.160 1.394,-0.160 1.396,-0.160 1.397,-0.160 1.399,-0.160 1.401,-0.159 1.403,-0.159 1.405,-0.159 1.407,-0.159 1.409,-0.159 1.411,-0.159 1.412,-0.158 1.414,-0.158 1.416,-0.158 1.418,-0.157 1.420,-0.157 1.422,-0.156 1.424,-0.156 1.426,-0.155 1.427,-0.155 1.429,-0.154 1.431,-0.153 1.433,-0.153 1.435,-0.152 1.437,-0.151 1.439,-0.151 1.441,-0.150 1.442,-0.149 1.444,-0.148 1.446,-0.147 1.448,-0.147 1.450,-0.146 1.452,-0.145 1.454,-0.144 1.456,-0.143 1.457,-0.142 1.459,-0.141 1.461,-0.140 1.463,-0.139 1.465,-0.138 1.467,-0.137 1.469,-0.136 1.471,-0.135 1.472,-0.134 1.474,-0.133 1.476,-0.132 1.478,-0.131 1.480,-0.130 1.482,-0.129 1.484,-0.128 1.486,-0.128 1.488,-0.127 1.489,-0.126 1.491,-0.125 1.493,-0.124 1.495,-0.123 1.497,-0.122 1.499,-0.122 1.501,-0.121 1.503,-0.120 1.504,-0.120 1.506,-0.119 1.508,-0.118 1.510,-0.118 1.512,-0.117 1.514,-0.116 1.516,-0.116 1.518,-0.115 1.519,-0.115 1.521,-0.114 1.523,-0.114 1.525,-0.114 1.527,-0.113 1.529,-0.113 1.531,-0.112 1.533,-0.112 1.534,-0.112 1.536,-0.111 1.538,-0.111 1.540,-0.111 1.542,-0.110 1.544,-0.110 1.546,-0.110 1.548,-0.109 1.549,-0.109 1.551,-0.109 1.553,-0.108 1.555,-0.108 1.557,-0.108 1.559,-0.107 1.561,-0.107 1.563,-0.107 1.564,-0.106 1.566,-0.106 1.568,-0.105 1.570,-0.105 1.572,-0.104 1.574,-0.103 1.576,-0.103 1.578,-0.102 1.579,-0.101 1.581,-0.100 1.583,-0.100 1.585,-0.099 1.587,-0.098 1.589,-0.097 1.591,-0.096 1.593,-0.095 1.594,-0.093 1.596,-0.092 1.598,-0.091 1.600,-0.089 1.602,-0.088 1.604,-0.087 1.606,-0.085 1.608,-0.083 1.609,-0.082 1.611,-0.080 1.613,-0.078 1.615,-0.076 1.617,-0.074 1.619,-0.072 1.621,-0.070 1.623,-0.068 1.624,-0.066 1.626,-0.064 1.628,-0.061 1.630,-0.059 1.632,-0.057 1.634,-0.054 1.636,-0.052 1.638,-0.049 1.639,-0.047 1.641,-0.044 1.643,-0.042 1.645,-0.039 1.647,-0.036 1.649,-0.034 1.651,-0.031 1.653,-0.028 1.654,-0.025 1.656,-0.023 1.658,-0.020 1.660,-0.017 1.662,-0.014 1.664,-0.011 1.666,-0.009 1.668,-0.006 1.669,-0.003 1.671,-0.000 1.673,0.003 1.675,0.005 1.677,0.008 1.679,0.011 1.681,0.014 1.683,0.017 1.684,0.020 1.686,0.022 1.688,0.025 1.690,0.028 1.692,0.031 1.694,0.033 1.696,0.036 1.698,0.039 1.699,0.042 1.701,0.045 1.703,0.047 1.705,0.050 1.707,0.053 1.709,0.056 1.711,0.059 1.713,0.062 1.714,0.064 1.716,0.067 1.718,0.070 1.720,0.073 1.722,0.076 1.724,0.080 1.726,0.083 1.728,0.086 1.729,0.089 1.731,0.093 1.733,0.096 1.735,0.100 1.737,0.104 1.739,0.108 1.741,0.112 1.743,0.116 1.744,0.120 1.746,0.124 1.748,0.129 1.750,0.133 1.752,0.138 1.754,0.143 1.756,0.148 1.758,0.153 1.759,0.159 1.761,0.165 1.763,0.170 1.765,0.177 1.767,0.183 1.769,0.189 1.771,0.196 1.773,0.203 1.775,0.210 1.776,0.218 1.778,0.225 1.780,0.233 1.782,0.241 1.784,0.250 1.786,0.258 1.788,0.267 1.790,0.276 1.791,0.285 1.793,0.295 1.795,0.305 1.797,0.315 1.799,0.325 1.801,0.336 1.803,0.347 1.805,0.358 1.806,0.369 1.808,0.380 1.810,0.392 1.812,0.404 1.814,0.416 1.816,0.428 1.818,0.441 1.820,0.453 1.821,0.466 1.823,0.479 1.825,0.492 1.827,0.505 1.829,0.519 1.831,0.532 1.833,0.546 1.835,0.559 1.836,0.573 1.838,0.587 1.840,0.601 1.842,0.614 1.844,0.628 1.846,0.642 1.848,0.656 1.850,0.669 1.851,0.683 1.853,0.697 1.855,0.710 1.857,0.724 1.859,0.737 1.861,0.750 1.863,0.763 1.865,0.776 1.866,0.788 1.868,0.801 1.870,0.813 1.872,0.825 1.874,0.836 1.876,0.848 1.878,0.859 1.880,0.869 1.881,0.880 1.883,0.890 1.885,0.900 1.887,0.909 1.889,0.918 1.891,0.926 1.893,0.935 1.895,0.942 1.896,0.949 1.898,0.956 1.900,0.963 1.902,0.969 1.904,0.974 1.906,0.979 1.908,0.983 1.910,0.987 1.911,0.991 1.913,0.993 1.915,0.996 1.917,0.998 1.919,0.999 1.921,1.000" />
</g>
</svg>