<svg xmlns="http://www.w3.org/2000/svg" width="161.803" height="100.000" viewBox="-4.683 -5.000 171.803 110.000">
<g fill="none" stroke="black" stroke-width="0.005%" transform="translate(0, 100.000) scale(100.799, -100.799)">
<circle cx="0.003" cy="0.000" r="0.005" />
<polyline points="0.003,0.992 0.006,0.984 0.009,0.976 0.013,0.969 0.016,0.961 0.019,0.953 0.022,0.946 0.025,0.938 0.028,0.931 0.031,0.923 0.035,0.916 0.038,0.909 0.041,0.902 0.044,0.894 0.047,0.887 0.050,0.880 0.053,0.873 0.057,0.866 0.060,0.859 0.063,0.853 0.066,0.846 0.069,0.839 0.072,0.832 0.075,0.826 0.079,0.819 0.082,0.813 0.085,0.806 0.088,0.800 0.091,0.793 0.094,0.787 0.097,0.781 0.101,0.775 0.104,0.769 0.107,0.762 0.110,0.756 0.113,0.750 0.116,0.744 0.119,0.738 0.123,0.732 0.126,0.727 0.129,0.721 0.132,0.715 0.135,0.709 0.138,0.704 0.141,0.698 0.145,0.692 0.148,0.687 0.151,0.681 0.154,0.676 0.157,0.671 0.160,0.665 0.163,0.660 0.166,0.655 0.170,0.649 0.173,0.644 0.176,0.639 0.179,0.634 0.182,0.629 0.185,0.624 0.188,0.619 0.192,0.614 0.195,0.609 0.198,0.604 0.201,0.599 0.204,0.594 0.207,0.590 0.210,0.585 0.214,0.580 0.217,0.576 0.220,0.571 0.223,0.566 0.226,0.562 0.229,0.557 0.232,0.553 0.236,0.548 0.239,0.544 0.242,0.540 0.245,0.535 0.248,0.531 0.251,0.527 0.254,0.522 0.258,0.518 0.261,0.514 0.264,0.510 0.267,0.506 0.270,0.502 0.273,0.498 0.276,0.494 0.280,0.490 0.283,0.486 0.286,0.482 0.289,0.478 0.292,0.474 0.295,0.470 0.298,0.466 0.302,0.463 0.305,0.459 0.308,0.455 0.311,0.451 0.314,0.448 0.317,0.444 0.320,0.440 0.324,0.437 0.327,0.433 0.330,0.430 0.333,0.426 0.336,0.423 0.339,0.419 0.342,0.416 0.346,0.413 0.349,0.409 0.352,0.406 0.355,0.403 0.358,0.399 0.361,0.396 0.364,0.393 0.368,0.390 0.371,0.387 0.374,0.383 0.377,0.380 0.380,0.377 0.383,0.374 0.386,0.371 0.390,0.368 0.393,0.365 0.396,0.362 0.399,0.359 0.402,0.356 0.405,0.353 0.408,0.350 0.412,0.347 0.415,0.345 0.418,0.342 0.421,0.339 0.424,0.336 0.427,0.333 0.430,0.331 0.434,0.328 0.437,0.325 0.440,0.323 0.443,0.320 0.446,0.317 0.449,0.315 0.452,0.312 0.455,0.309 0.459,0.307 0.462,0.304 0.465,0.302 0.468,0.299 0.471,0.297 0.474,0.294 0.477,0.292 0.481,0.290 0.484,0.287 0.487,0.285 0.490,0.282 0.493,0.280 0.496,0.278 0.499,0.275 0.503,0.273 0.506,0.271 0.509,0.269 0.512,0.266 0.515,0.264 0.518,0.262 0.521,0.260 0.525,0.258 0.528,0.256 0.531,0.253 0.534,0.251 0.537,0.249 0.540,0.247 0.543,0.245 0.547,0.243 0.550,0.241 0.553,0.239 0.556,0.237 0.559,0.235 0.562,0.233 0.565,0.231 0.569,0.229 0.572,0.227 0.575,0.225 0.578,0.223 0.581,0.221 0.584,0.220 0.587,0.218 0.591,0.216 0.594,0.214 0.597,0.212 0.600,0.210 0.603,0.209 0.606,0.207 0.609,0.205 0.613,0.203 0.616,0.202 0.619,0.200 0.622,0.198 0.625,0.197 0.628,0.195 0.631,0.193 0.635,0.192 0.638,0.190 0.641,0.188 0.644,0.187 0.647,0.185 0.650,0.184 0.653,0.182 0.657,0.180 0.660,0.179 0.663,0.177 0.666,0.176 0.669,0.174 0.672,0.173 0.675,0.171 0.679,0.170 0.682,0.168 0.685,0.167 0.688,0.165 0.691,0.164 0.694,0.163 0.697,0.161 0.701,0.160 0.704,0.158 0.707,0.157 0.710,0.156 0.713,0.154 0.716,0.153 0.719,0.152 0.723,0.150 0.726,0.149 0.729,0.148 0.732,0.146 0.735,0.145 0.738,0.144 0.741,0.143 0.744,0.141 0.748,0.140 0.751,0.139 0.754,0.138 0.757,0.136 0.760,0.135 0.763,0.134 0.766,0.133 0.770,0.132 0.773,0.130 0.776,0.129 0.779,0.128 0.782,0.127 0.785,0.126 0.788,0.125 0.792,0.124 0.795,0.122 0.798,0.121 0.801,0.120 0.804,0.119 0.807,0.118 0.810,0.117 0.814,0.116 0.817,0.115 0.820,0.114 0.823,0.113 0.826,0.112 0.829,0.111 0.832,0.110 0.836,0.109 0.839,0.108 0.842,0.107 0.845,0.106 0.848,0.105 0.851,0.104 0.854,0.103 0.858,0.102 0.861,0.101 0.864,0.100 0.867,0.099 0.870,0.098 0.873,0.097 0.876,0.097 0.880,0.096 0.883,0.095 0.886,0.094 0.889,0.093 0.892,0.092 0.895,0.091 0.898,0.090 0.902,0.090 0.905,0.089 0.908,0.088 0.911,0.087 0.914,0.086 0.917,0.085 0.920,0.085 0.924,0.084 0.927,0.083 0.930,0.082 0.933,0.081 0.936,0.081 0.939,0.080 0.942,0.079 0.946,0.078 0.949,0.078 0.952,0.077 0.955,0.076 0.958,0.075 0.961,0.075 0.964,0.074 0.968,0.073 0.971,0.072 0.974,0.072 0.977,0.071 0.980,0.070 0.983,0.070 0.986,0.069 0.990,0.068 0.993,0.068 0.996,0.067 0.999,0.066 1.002,0.066 1.005,0.065 1.008,0.064 1.012,0.064 1.015,0.063 1.018,0.062 1.021,0.062 1.024,0.061 1.027,0.061 1.030,0.060 1.033,0.059 1.037,0.059 1.040,0.058 1.043,0.057 1.046,0.057 1.049,0.056 1.052,0.056 1.055,0.055 1.059,0.055 1.062,0.054 1.065,0.053 1.068,0.053 1.071,0.052 1.074,0.052 1.077,0.051 1.081,0.051 1.084,0.050 1.087,0.050 1.090,0.049 1.093,0.049 1.096,0.048 1.099,0.047 1.103,0.047 1.106,0.046 1.109,0.046 1.112,0.045 1.115,0.045 1.118,0.044 1.121,0.044 1.125,0.043 1.128,0.043 1.131,0.043 1.134,0.042 1.137,0.042 1.140,0.041 1.143,0.041 1.147,0.040 1.150,0.040 1.153,0.039 1.156,0.039 1.159,0.038 1.162,0.038 1.165,0.037 1.169,0.037 1.172,0.037 1.175,0.036 1.178,0.036 1.181,0.035 1.184,0.035 1.187,0.034 1.191,0.034 1.194,0.034 1.197,0.033 1.200,0.033 1.203,0.032 1.206,0.032 1.209,0.032 1.213,0.031 1.216,0.031 1.219,0.030 1.222,0.030 1.225,0.030 1.228,0.029 1.231,0.029 1.235,0.029 1.238,0.028 1.241,0.028 1.244,0.028 1.247,0.027 1.250,0.027 1.253,0.026 1.257,0.026 1.260,0.026 1.263,0.025 1.266,0.025 1.269,0.025 1.272,0.024 1.275,0.024 1.279,0.024 1.282,0.023 1.285,0.023 1.288,0.023 1.291,0.022 1.294,0.022 1.297,0.022 1.301,0.021 1.304,0.021 1.307,0.021 1.310,0.021 1.313,0.020 1.316,0.020 1.319,0.020 1.322,0.019 1.326,0.019 1.329,0.019 1.332,0.018 1.335,0.018 1.338,0.018 1.341,0.018 1.344,0.017 1.348,0.017 1.351,0.017 1.354,0.016 1.357,0.016 1.360,0.016 1.363,0.016 1.366,0.015 1.370,0.015 1.373,0.015 1.376,0.015 1.379,0.014 1.382,0.014 1.385,0.014 1.388,0.014 1.392,0.013 1.395,0.013 1.398,0.013 1.401,0.013 1.404,0.012 1.407,0.012 1.410,0.012 1.414,0.012 1.417,0.011 1.420,0.011 1.423,0.011 1.426,0.011 1.429,0.010 1.432,0.010 1.436,0.010 1.439,0.010 1.442,0.010 1.445,0.009 1.448,0.009 1.451,0.009 1.454,0.009 1.458,0.008 1.461,0.008 1.464,0.008 1.467,0.008 1.470,0.008 1.473,0.007 1.476,0.007 1.480,0.007 1.483,0.007 1.486,0.007 1.489,0.006 1.492,0.006 1.495,0.006 1.498,0.006 1.502,0.006 1.505,0.005 1.508,0.005 1.511,0.005 1.514,0.005 1.517,0.005 1.520,0.005 1.524,0.004 1.527,0.004 1.530,0.004 1.533,0.004 1.536,0.004 1.539,0.003 1.542,0.003 1.546,0.003 1.549,0.003 1.552,0.003 1.555,0.003 1.558,0.002 1.561,0.002 1.564,0.002 1.568,0.002 1.571,0.002 1.574,0.002 1.577,0.002 1.580,0.001 1.583,0.001 1.586,0.001 1.590,0.001 1.593,0.001 1.596,0.001 1.599,0.000 1.602,0.000 1.605,0.000 1.608,0.000" />
</g>
</svg>