<svg xmlns="http://www.w3.org/2000/svg" width="161.8" height="100.0" viewBox="-4.842 -5.000 171.803 110.000">
<g fill="none" stroke="black" stroke-width="0.0050%" transform="translate(0, 100.0000) scale(100.0000, -100.0000)">
<polyline points="0.002,0.000 0.003,0.000 0.005,0.000 0.006,0.000 0.008,0.000 0.009,0.000 0.011,0.000 0.013,0.000 0.014,0.000 0.016,0.000 0.017,0.000 0.019,0.000 0.021,0.000 0.022,0.000 0.024,0.000 0.025,0.001 0.027,0.001 0.028,0.001 0.030,0.001 0.032,0.001 0.033,0.001 0.035,0.001 0.036,0.001 0.038,0.001 0.040,0.001 0.041,0.001 0.043,0.002 0.044,0.002 0.046,0.002 0.047,0.002 0.049,0.002 0.051,0.002 0.052,0.002 0.054,0.003 0.055,0.003 0.057,0.003 0.059,0.003 0.060,0.003 0.062,0.003 0.063,0.004 0.065,0.004 0.066,0.004 0.068,0.004 0.070,0.004 0.071,0.005 0.073,0.005 0.074,0.005 0.076,0.005 0.078,0.005 0.079,0.006 0.081,0.006 0.082,0.006 0.084,0.006 0.085,0.007 0.087,0.007 0.089,0.007 0.090,0.007 0.092,0.008 0.093,0.008 0.095,0.008 0.096,0.008 0.098,0.009 0.100,0.009 0.101,0.009 0.103,0.010 0.104,0.010 0.106,0.010 0.108,0.011 0.109,0.011 0.111,0.011 0.112,0.011 0.114,0.012 0.115,0.012 0.117,0.012 0.119,0.013 0.120,0.013 0.122,0.014 0.123,0.014 0.125,0.014 0.127,0.015 0.128,0.015 0.130,0.015 0.131,0.016 0.133,0.016 0.134,0.017 0.136,0.017 0.138,0.017 0.139,0.018 0.141,0.018 0.142,0.019 0.144,0.019 0.146,0.019 0.147,0.020 0.149,0.020 0.150,0.021 0.152,0.021 0.153,0.022 0.155,0.022 0.157,0.022 0.158,0.023 0.160,0.023 0.161,0.024 0.163,0.024 0.164,0.025 0.166,0.025 0.168,0.026 0.169,0.026 0.171,0.027 0.172,0.027 0.174,0.028 0.176,0.028 0.177,0.029 0.179,0.029 0.180,0.030 0.182,0.030 0.183,0.031 0.185,0.031 0.187,0.032 0.188,0.032 0.190,0.033 0.191,0.034 0.193,0.034 0.195,0.035 0.196,0.035 0.198,0.036 0.199,0.036 0.201,0.037 0.202,0.037 0.204,0.038 0.206,0.039 0.207,0.039 0.209,0.040 0.210,0.040 0.212,0.041 0.214,0.042 0.215,0.042 0.217,0.043 0.218,0.044 0.220,0.044 0.221,0.045 0.223,0.045 0.225,0.046 0.226,0.047 0.228,0.047 0.229,0.048 0.231,0.049 0.233,0.049 0.234,0.050 0.236,0.051 0.237,0.051 0.239,0.052 0.240,0.053 0.242,0.053 0.244,0.054 0.245,0.055 0.247,0.055 0.248,0.056 0.250,0.057 0.251,0.058 0.253,0.058 0.255,0.059 0.256,0.060 0.258,0.060 0.259,0.061 0.261,0.062 0.263,0.063 0.264,0.063 0.266,0.064 0.267,0.065 0.269,0.066 0.270,0.066 0.272,0.067 0.274,0.068 0.275,0.069 0.277,0.070 0.278,0.070 0.280,0.071 0.282,0.072 0.283,0.073 0.285,0.074 0.286,0.074 0.288,0.075 0.289,0.076 0.291,0.077 0.293,0.078 0.294,0.078 0.296,0.079 0.297,0.080 0.299,0.081 0.301,0.082 0.302,0.083 0.304,0.083 0.305,0.084 0.307,0.085 0.308,0.086 0.310,0.087 0.312,0.088 0.313,0.089 0.315,0.089 0.316,0.090 0.318,0.091 0.319,0.092 0.321,0.093 0.323,0.094 0.324,0.095 0.326,0.096 0.327,0.097 0.329,0.097 0.331,0.098 0.332,0.099 0.334,0.100 0.335,0.101 0.337,0.102 0.338,0.103 0.340,0.104 0.342,0.105 0.343,0.106 0.345,0.107 0.346,0.108 0.348,0.109 0.350,0.110 0.351,0.111 0.353,0.112 0.354,0.113 0.356,0.113 0.357,0.114 0.359,0.115 0.361,0.116 0.362,0.117 0.364,0.118 0.365,0.119 0.367,0.120 0.369,0.121 0.370,0.122 0.372,0.123 0.373,0.124 0.375,0.125 0.376,0.126 0.378,0.127 0.380,0.128 0.381,0.130 0.383,0.131 0.384,0.132 0.386,0.133 0.388,0.134 0.389,0.135 0.391,0.136 0.392,0.137 0.394,0.138 0.395,0.139 0.397,0.140 0.399,0.141 0.400,0.142 0.402,0.143 0.403,0.144 0.405,0.145 0.406,0.146 0.408,0.148 0.410,0.149 0.411,0.150 0.413,0.151 0.414,0.152 0.416,0.153 0.418,0.154 0.419,0.155 0.421,0.156 0.422,0.157 0.424,0.159 0.425,0.160 0.427,0.161 0.429,0.162 0.430,0.163 0.432,0.164 0.433,0.165 0.435,0.167 0.437,0.168 0.438,0.169 0.440,0.170 0.441,0.171 0.443,0.172 0.444,0.173 0.446,0.175 0.448,0.176 0.449,0.177 0.451,0.178 0.452,0.179 0.454,0.180 0.456,0.182 0.457,0.183 0.459,0.184 0.460,0.185 0.462,0.186 0.463,0.188 0.465,0.189 0.467,0.190 0.468,0.191 0.470,0.192 0.471,0.194 0.473,0.195 0.474,0.196 0.476,0.197 0.478,0.198 0.479,0.200 0.481,0.201 0.482,0.202 0.484,0.203 0.486,0.205 0.487,0.206 0.489,0.207 0.490,0.208 0.492,0.210 0.493,0.211 0.495,0.212 0.497,0.213 0.498,0.215 0.500,0.216 0.501,0.217 0.503,0.218 0.505,0.220 0.506,0.221 0.508,0.222 0.509,0.223 0.511,0.225 0.512,0.226 0.514,0.227 0.516,0.229 0.517,0.230 0.519,0.231 0.520,0.233 0.522,0.234 0.524,0.235 0.525,0.236 0.527,0.238 0.528,0.239 0.530,0.240 0.531,0.242 0.533,0.243 0.535,0.244 0.536,0.246 0.538,0.247 0.539,0.248 0.541,0.250 0.543,0.251 0.544,0.252 0.546,0.254 0.547,0.255 0.549,0.256 0.550,0.258 0.552,0.259 0.554,0.260 0.555,0.262 0.557,0.263 0.558,0.264 0.560,0.266 0.561,0.267 0.563,0.268 0.565,0.270 0.566,0.271 0.568,0.272 0.569,0.274 0.571,0.275 0.573,0.277 0.574,0.278 0.576,0.279 0.577,0.281 0.579,0.282 0.580,0.283 0.582,0.285 0.584,0.286 0.585,0.288 0.587,0.289 0.588,0.290 0.590,0.292 0.592,0.293 0.593,0.295 0.595,0.296 0.596,0.297 0.598,0.299 0.599,0.300 0.601,0.302 0.603,0.303 0.604,0.304 0.606,0.306 0.607,0.307 0.609,0.309 0.611,0.310 0.612,0.311 0.614,0.313 0.615,0.314 0.617,0.316 0.618,0.317 0.620,0.319 0.622,0.320 0.623,0.321 0.625,0.323 0.626,0.324 0.628,0.326 0.629,0.327 0.631,0.329 0.633,0.330 0.634,0.332 0.636,0.333 0.637,0.334 0.639,0.336 0.641,0.337 0.642,0.339 0.644,0.340 0.645,0.342 0.647,0.343 0.648,0.345 0.650,0.346 0.652,0.348 0.653,0.349 0.655,0.350 0.656,0.352 0.658,0.353 0.660,0.355 0.661,0.356 0.663,0.358 0.664,0.359 0.666,0.361 0.667,0.362 0.669,0.364 0.671,0.365 0.672,0.367 0.674,0.368 0.675,0.370 0.677,0.371 0.679,0.373 0.680,0.374 0.682,0.376 0.683,0.377 0.685,0.379 0.686,0.380 0.688,0.381 0.690,0.383 0.691,0.384 0.693,0.386 0.694,0.387 0.696,0.389 0.698,0.390 0.699,0.392 0.701,0.393 0.702,0.395 0.704,0.396 0.705,0.398 0.707,0.399 0.709,0.401 0.710,0.402 0.712,0.404 0.713,0.405 0.715,0.407 0.716,0.408 0.718,0.410 0.720,0.411 0.721,0.413 0.723,0.415 0.724,0.416 0.726,0.418 0.728,0.419 0.729,0.421 0.731,0.422 0.732,0.424 0.734,0.425 0.735,0.427 0.737,0.428 0.739,0.430 0.740,0.431 0.742,0.433 0.743,0.434 0.745,0.436 0.747,0.437 0.748,0.439 0.750,0.440 0.751,0.442 0.753,0.443 0.754,0.445 0.756,0.446 0.758,0.448 0.759,0.449 0.761,0.451 0.762,0.453 0.764,0.454 0.766,0.456 0.767,0.457 0.769,0.459 0.770,0.460 0.772,0.462 0.773,0.463 0.775,0.465 0.777,0.466 0.778,0.468 0.780,0.469 0.781,0.471 0.783,0.472 0.785,0.474 0.786,0.475 0.788,0.477 0.789,0.479 0.791,0.480 0.792,0.482 0.794,0.483 0.796,0.485 0.797,0.486 0.799,0.488 0.800,0.489 0.802,0.491 0.803,0.492 0.805,0.494 0.807,0.495 0.808,0.497 0.810,0.498 0.811,0.500 0.813,0.502 0.815,0.503 0.816,0.505 0.818,0.506 0.819,0.508 0.821,0.509 0.822,0.511 0.824,0.512 0.826,0.514 0.827,0.515 0.829,0.517 0.830,0.518 0.832,0.520 0.834,0.521 0.835,0.523 0.837,0.525 0.838,0.526 0.840,0.528 0.841,0.529 0.843,0.531 0.845,0.532 0.846,0.534 0.848,0.535 0.849,0.537 0.851,0.538 0.853,0.540 0.854,0.541 0.856,0.543 0.857,0.544 0.859,0.546 0.860,0.547 0.862,0.549 0.864,0.551 0.865,0.552 0.867,0.554 0.868,0.555 0.870,0.557 0.871,0.558 0.873,0.560 0.875,0.561 0.876,0.563 0.878,0.564 0.879,0.566 0.881,0.567 0.883,0.569 0.884,0.570 0.886,0.572 0.887,0.573 0.889,0.575 0.890,0.576 0.892,0.578 0.894,0.579 0.895,0.581 0.897,0.582 0.898,0.584 0.900,0.585 0.902,0.587 0.903,0.589 0.905,0.590 0.906,0.592 0.908,0.593 0.909,0.595 0.911,0.596 0.913,0.598 0.914,0.599 0.916,0.601 0.917,0.602 0.919,0.604 0.921,0.605 0.922,0.607 0.924,0.608 0.925,0.610 0.927,0.611 0.928,0.613 0.930,0.614 0.932,0.616 0.933,0.617 0.935,0.619 0.936,0.620 0.938,0.621 0.940,0.623 0.941,0.624 0.943,0.626 0.944,0.627 0.946,0.629 0.947,0.630 0.949,0.632 0.951,0.633 0.952,0.635 0.954,0.636 0.955,0.638 0.957,0.639 0.958,0.641 0.960,0.642 0.962,0.644 0.963,0.645 0.965,0.647 0.966,0.648 0.968,0.650 0.970,0.651 0.971,0.652 0.973,0.654 0.974,0.655 0.976,0.657 0.977,0.658 0.979,0.660 0.981,0.661 0.982,0.663 0.984,0.664 0.985,0.666 0.987,0.667 0.989,0.668 0.990,0.670 0.992,0.671 0.993,0.673 0.995,0.674 0.996,0.676 0.998,0.677 1.000,0.679 1.001,0.680 1.003,0.681 1.004,0.683 1.006,0.684 1.008,0.686 1.009,0.687 1.011,0.689 1.012,0.690 1.014,0.691 1.015,0.693 1.017,0.694 1.019,0.696 1.020,0.697 1.022,0.698 1.023,0.700 1.025,0.701 1.026,0.703 1.028,0.704 1.030,0.705 1.031,0.707 1.033,0.708 1.034,0.710 1.036,0.711 1.038,0.712 1.039,0.714 1.041,0.715 1.042,0.717 1.044,0.718 1.045,0.719 1.047,0.721 1.049,0.722 1.050,0.723 1.052,0.725 1.053,0.726 1.055,0.728 1.057,0.729 1.058,0.730 1.060,0.732 1.061,0.733 1.063,0.734 1.064,0.736 1.066,0.737 1.068,0.738 1.069,0.740 1.071,0.741 1.072,0.742 1.074,0.744 1.076,0.745 1.077,0.746 1.079,0.748 1.080,0.749 1.082,0.750 1.083,0.752 1.085,0.753 1.087,0.754 1.088,0.756 1.090,0.757 1.091,0.758 1.093,0.760 1.095,0.761 1.096,0.762 1.098,0.764 1.099,0.765 1.101,0.766 1.102,0.768 1.104,0.769 1.106,0.770 1.107,0.771 1.109,0.773 1.110,0.774 1.112,0.775 1.113,0.777 1.115,0.778 1.117,0.779 1.118,0.780 1.120,0.782 1.121,0.783 1.123,0.784 1.125,0.785 1.126,0.787 1.128,0.788 1.129,0.789 1.131,0.790 1.132,0.792 1.134,0.793 1.136,0.794 1.137,0.795 1.139,0.797 1.140,0.798 1.142,0.799 1.144,0.800 1.145,0.802 1.147,0.803 1.148,0.804 1.150,0.805 1.151,0.806 1.153,0.808 1.155,0.809 1.156,0.810 1.158,0.811 1.159,0.812 1.161,0.814 1.163,0.815 1.164,0.816 1.166,0.817 1.167,0.818 1.169,0.820 1.170,0.821 1.172,0.822 1.174,0.823 1.175,0.824 1.177,0.825 1.178,0.827 1.180,0.828 1.181,0.829 1.183,0.830 1.185,0.831 1.186,0.832 1.188,0.834 1.189,0.835 1.191,0.836 1.193,0.837 1.194,0.838 1.196,0.839 1.197,0.840 1.199,0.841 1.200,0.843 1.202,0.844 1.204,0.845 1.205,0.846 1.207,0.847 1.208,0.848 1.210,0.849 1.212,0.850 1.213,0.851 1.215,0.852 1.216,0.854 1.218,0.855 1.219,0.856 1.221,0.857 1.223,0.858 1.224,0.859 1.226,0.860 1.227,0.861 1.229,0.862 1.231,0.863 1.232,0.864 1.234,0.865 1.235,0.866 1.237,0.867 1.238,0.868 1.240,0.869 1.242,0.870 1.243,0.872 1.245,0.873 1.246,0.874 1.248,0.875 1.250,0.876 1.251,0.877 1.253,0.878 1.254,0.879 1.256,0.880 1.257,0.881 1.259,0.882 1.261,0.883 1.262,0.884 1.264,0.885 1.265,0.886 1.267,0.887 1.268,0.887 1.270,0.888 1.272,0.889 1.273,0.890 1.275,0.891 1.276,0.892 1.278,0.893 1.280,0.894 1.281,0.895 1.283,0.896 1.284,0.897 1.286,0.898 1.287,0.899 1.289,0.900 1.291,0.901 1.292,0.902 1.294,0.903 1.295,0.903 1.297,0.904 1.299,0.905 1.300,0.906 1.302,0.907 1.303,0.908 1.305,0.909 1.306,0.910 1.308,0.911 1.310,0.911 1.311,0.912 1.313,0.913 1.314,0.914 1.316,0.915 1.318,0.916 1.319,0.917 1.321,0.917 1.322,0.918 1.324,0.919 1.325,0.920 1.327,0.921 1.329,0.922 1.330,0.922 1.332,0.923 1.333,0.924 1.335,0.925 1.336,0.926 1.338,0.926 1.340,0.927 1.341,0.928 1.343,0.929 1.344,0.930 1.346,0.930 1.348,0.931 1.349,0.932 1.351,0.933 1.352,0.934 1.354,0.934 1.355,0.935 1.357,0.936 1.359,0.937 1.360,0.937 1.362,0.938 1.363,0.939 1.365,0.940 1.367,0.940 1.368,0.941 1.370,0.942 1.371,0.942 1.373,0.943 1.374,0.944 1.376,0.945 1.378,0.945 1.379,0.946 1.381,0.947 1.382,0.947 1.384,0.948 1.386,0.949 1.387,0.949 1.389,0.950 1.390,0.951 1.392,0.951 1.393,0.952 1.395,0.953 1.397,0.953 1.398,0.954 1.400,0.955 1.401,0.955 1.403,0.956 1.405,0.956 1.406,0.957 1.408,0.958 1.409,0.958 1.411,0.959 1.412,0.960 1.414,0.960 1.416,0.961 1.417,0.961 1.419,0.962 1.420,0.963 1.422,0.963 1.423,0.964 1.425,0.964 1.427,0.965 1.428,0.965 1.430,0.966 1.431,0.966 1.433,0.967 1.435,0.968 1.436,0.968 1.438,0.969 1.439,0.969 1.441,0.970 1.442,0.970 1.444,0.971 1.446,0.971 1.447,0.972 1.449,0.972 1.450,0.973 1.452,0.973 1.454,0.974 1.455,0.974 1.457,0.975 1.458,0.975 1.460,0.976 1.461,0.976 1.463,0.977 1.465,0.977 1.466,0.978 1.468,0.978 1.469,0.978 1.471,0.979 1.473,0.979 1.474,0.980 1.476,0.980 1.477,0.981 1.479,0.981 1.480,0.981 1.482,0.982 1.484,0.982 1.485,0.983 1.487,0.983 1.488,0.983 1.490,0.984 1.492,0.984 1.493,0.985 1.495,0.985 1.496,0.985 1.498,0.986 1.499,0.986 1.501,0.986 1.503,0.987 1.504,0.987 1.506,0.988 1.507,0.988 1.509,0.988 1.510,0.989 1.512,0.989 1.514,0.989 1.515,0.989 1.517,0.990 1.518,0.990 1.520,0.990 1.522,0.991 1.523,0.991 1.525,0.991 1.526,0.992 1.528,0.992 1.529,0.992 1.531,0.992 1.533,0.993 1.534,0.993 1.536,0.993 1.537,0.993 1.539,0.994 1.541,0.994 1.542,0.994 1.544,0.994 1.545,0.995 1.547,0.995 1.548,0.995 1.550,0.995 1.552,0.995 1.553,0.996 1.555,0.996 1.556,0.996 1.558,0.996 1.560,0.996 1.561,0.997 1.563,0.997 1.564,0.997 1.566,0.997 1.567,0.997 1.569,0.997 1.571,0.998 1.572,0.998 1.574,0.998 1.575,0.998 1.577,0.998 1.578,0.998 1.580,0.998 1.582,0.999 1.583,0.999 1.585,0.999 1.586,0.999 1.588,0.999 1.590,0.999 1.591,0.999 1.593,0.999 1.594,0.999 1.596,0.999 1.597,0.999 1.599,1.000 1.601,1.000 1.602,1.000 1.604,1.000 1.605,1.000 1.607,1.000 1.609,1.000 1.610,1.000 1.612,1.000 1.613,1.000 1.615,1.000 1.616,1.000 1.618,1.000 1.620,1.000" />
</g>
</svg>