<svg xmlns="http://www.w3.org/2000/svg" width="161.8" height="100.0" viewBox="-4.684 -55.000 171.803 110.000">
<g fill="none" stroke="black" stroke-width="0.0100%" transform="translate(0, -0.0000) scale(50.0000, -50.0000)">
<polyline points="0.006,-0.827 0.013,-0.859 0.019,-0.876 0.025,-0.881 0.032,-0.878 0.038,-0.872 0.044,-0.863 0.051,-0.853 0.057,-0.844 0.063,-0.836 0.070,-0.830 0.076,-0.826 0.082,-0.824 0.088,-0.823 0.095,-0.825 0.101,-0.828 0.107,-0.832 0.114,-0.837 0.120,-0.842 0.126,-0.848 0.133,-0.854 0.139,-0.860 0.145,-0.865 0.152,-0.869 0.158,-0.873 0.164,-0.876 0.171,-0.878 0.177,-0.879 0.183,-0.880 0.190,-0.879 0.196,-0.878 0.202,-0.875 0.209,-0.872 0.215,-0.869 0.221,-0.865 0.228,-0.861 0.234,-0.856 0.240,-0.851 0.246,-0.847 0.253,-0.842 0.259,-0.837 0.265,-0.833 0.272,-0.829 0.278,-0.825 0.284,-0.822 0.291,-0.820 0.297,-0.818 0.303,-0.816 0.310,-0.815 0.316,-0.815 0.322,-0.815 0.329,-0.816 0.335,-0.818 0.341,-0.820 0.348,-0.822 0.354,-0.825 0.360,-0.828 0.367,-0.832 0.373,-0.836 0.379,-0.840 0.386,-0.844 0.392,-0.848 0.398,-0.852 0.405,-0.857 0.411,-0.861 0.417,-0.865 0.423,-0.868 0.430,-0.872 0.436,-0.875 0.442,-0.878 0.449,-0.880 0.455,-0.882 0.461,-0.884 0.468,-0.885 0.474,-0.886 0.480,-0.886 0.487,-0.885 0.493,-0.885 0.499,-0.884 0.506,-0.882 0.512,-0.880 0.518,-0.878 0.525,-0.875 0.531,-0.872 0.537,-0.868 0.544,-0.865 0.550,-0.861 0.556,-0.857 0.563,-0.853 0.569,-0.848 0.575,-0.844 0.581,-0.840 0.588,-0.836 0.594,-0.831 0.600,-0.827 0.607,-0.824 0.613,-0.820 0.619,-0.817 0.626,-0.814 0.632,-0.811 0.638,-0.808 0.645,-0.806 0.651,-0.805 0.657,-0.803 0.664,-0.802 0.670,-0.802 0.676,-0.802 0.683,-0.802 0.689,-0.803 0.695,-0.804 0.702,-0.806 0.708,-0.808 0.714,-0.810 0.721,-0.813 0.727,-0.816 0.733,-0.820 0.739,-0.824 0.746,-0.828 0.752,-0.832 0.758,-0.836 0.765,-0.841 0.771,-0.845 0.777,-0.850 0.784,-0.855 0.790,-0.859 0.796,-0.864 0.803,-0.869 0.809,-0.873 0.815,-0.877 0.822,-0.881 0.828,-0.885 0.834,-0.889 0.841,-0.892 0.847,-0.895 0.853,-0.898 0.860,-0.900 0.866,-0.902 0.872,-0.903 0.879,-0.904 0.885,-0.905 0.891,-0.905 0.898,-0.905 0.904,-0.904 0.910,-0.902 0.916,-0.901 0.923,-0.899 0.929,-0.896 0.935,-0.893 0.942,-0.889 0.948,-0.886 0.954,-0.881 0.961,-0.877 0.967,-0.872 0.973,-0.867 0.980,-0.862 0.986,-0.856 0.992,-0.850 0.999,-0.844 1.005,-0.838 1.011,-0.832 1.018,-0.826 1.024,-0.820 1.030,-0.815 1.037,-0.809 1.043,-0.803 1.049,-0.798 1.056,-0.793 1.062,-0.788 1.068,-0.783 1.074,-0.779 1.081,-0.775 1.087,-0.772 1.093,-0.769 1.100,-0.766 1.106,-0.764 1.112,-0.763 1.119,-0.762 1.125,-0.762 1.131,-0.762 1.138,-0.763 1.144,-0.765 1.150,-0.767 1.157,-0.770 1.163,-0.773 1.169,-0.777 1.176,-0.782 1.182,-0.787 1.188,-0.793 1.195,-0.799 1.201,-0.806 1.207,-0.813 1.214,-0.821 1.220,-0.829 1.226,-0.837 1.232,-0.846 1.239,-0.855 1.245,-0.864 1.251,-0.874 1.258,-0.883 1.264,-0.893 1.270,-0.902 1.277,-0.912 1.283,-0.921 1.289,-0.930 1.296,-0.939 1.302,-0.947 1.308,-0.955 1.315,-0.963 1.321,-0.970 1.327,-0.977 1.334,-0.983 1.340,-0.988 1.346,-0.992 1.353,-0.995 1.359,-0.998 1.365,-0.999 1.372,-1.000 1.378,-0.999 1.384,-0.998 1.390,-0.995 1.397,-0.991 1.403,-0.985 1.409,-0.979 1.416,-0.971 1.422,-0.961 1.428,-0.951 1.435,-0.939 1.441,-0.925 1.447,-0.910 1.454,-0.893 1.460,-0.876 1.466,-0.856 1.473,-0.835 1.479,-0.813 1.485,-0.789 1.492,-0.764 1.498,-0.738 1.504,-0.710 1.511,-0.681 1.517,-0.651 1.523,-0.620 1.530,-0.587 1.536,-0.553 1.542,-0.518 1.549,-0.482 1.555,-0.446 1.561,-0.408 1.567,-0.370 1.574,-0.330 1.580,-0.291 1.586,-0.250 1.593,-0.209 1.599,-0.168 1.605,-0.126 1.612,-0.084 1.618,-0.042 1.624,0.000 1.631,0.042 1.637,0.084 1.643,0.126 1.650,0.168 1.656,0.209 1.662,0.250 1.669,0.291 1.675,0.330 1.681,0.370 1.688,0.408 1.694,0.446 1.700,0.482 1.707,0.518 1.713,0.553 1.719,0.587 1.725,0.620 1.732,0.651 1.738,0.681 1.744,0.710 1.751,0.738 1.757,0.764 1.763,0.789 1.770,0.813 1.776,0.835 1.782,0.856 1.789,0.876 1.795,0.893 1.801,0.910 1.808,0.925 1.814,0.939 1.820,0.951 1.827,0.961 1.833,0.971 1.839,0.979 1.846,0.985 1.852,0.991 1.858,0.995 1.865,0.998 1.871,0.999 1.877,1.000 1.883,0.999 1.890,0.998 1.896,0.995 1.902,0.992 1.909,0.988 1.915,0.983 1.921,0.977 1.928,0.970 1.934,0.963 1.940,0.955 1.947,0.947 1.953,0.939 1.959,0.930 1.966,0.921 1.972,0.912 1.978,0.902 1.985,0.893 1.991,0.883 1.997,0.874 2.004,0.864 2.010,0.855 2.016,0.846 2.023,0.837 2.029,0.829 2.035,0.821 2.042,0.813 2.048,0.806 2.054,0.799 2.060,0.793 2.067,0.787 2.073,0.782 2.079,0.777 2.086,0.773 2.092,0.770 2.098,0.767 2.105,0.765 2.111,0.763 2.117,0.762 2.124,0.762 2.130,0.762 2.136,0.763 2.143,0.764 2.149,0.766 2.155,0.769 2.162,0.772 2.168,0.775 2.174,0.779 2.181,0.783 2.187,0.788 2.193,0.793 2.200,0.798 2.206,0.803 2.212,0.809 2.218,0.815 2.225,0.820 2.231,0.826 2.237,0.832 2.244,0.838 2.250,0.844 2.256,0.850 2.263,0.856 2.269,0.862 2.275,0.867 2.282,0.872 2.288,0.877 2.294,0.881 2.301,0.886 2.307,0.889 2.313,0.893 2.320,0.896 2.326,0.899 2.332,0.901 2.339,0.902 2.345,0.904 2.351,0.905 2.358,0.905 2.364,0.905 2.370,0.904 2.376,0.903 2.383,0.902 2.389,0.900 2.395,0.898 2.402,0.895 2.408,0.892 2.414,0.889 2.421,0.885 2.427,0.881 2.433,0.877 2.440,0.873 2.446,0.869 2.452,0.864 2.459,0.859 2.465,0.855 2.471,0.850 2.478,0.845 2.484,0.841 2.490,0.836 2.497,0.832 2.503,0.828 2.509,0.824 2.516,0.820 2.522,0.816 2.528,0.813 2.534,0.810 2.541,0.808 2.547,0.806 2.553,0.804 2.560,0.803 2.566,0.802 2.572,0.802 2.579,0.802 2.585,0.802 2.591,0.803 2.598,0.805 2.604,0.806 2.610,0.808 2.617,0.811 2.623,0.814 2.629,0.817 2.636,0.820 2.642,0.824 2.648,0.827 2.655,0.831 2.661,0.836 2.667,0.840 2.674,0.844 2.680,0.848 2.686,0.853 2.693,0.857 2.699,0.861 2.705,0.865 2.711,0.868 2.718,0.872 2.724,0.875 2.730,0.878 2.737,0.880 2.743,0.882 2.749,0.884 2.756,0.885 2.762,0.885 2.768,0.886 2.775,0.886 2.781,0.885 2.787,0.884 2.794,0.882 2.800,0.880 2.806,0.878 2.813,0.875 2.819,0.872 2.825,0.868 2.832,0.865 2.838,0.861 2.844,0.857 2.851,0.852 2.857,0.848 2.863,0.844 2.869,0.840 2.876,0.836 2.882,0.832 2.888,0.828 2.895,0.825 2.901,0.822 2.907,0.820 2.914,0.818 2.920,0.816 2.926,0.815 2.933,0.815 2.939,0.815 2.945,0.816 2.952,0.818 2.958,0.820 2.964,0.822 2.971,0.825 2.977,0.829 2.983,0.833 2.990,0.837 2.996,0.842 3.002,0.847 3.009,0.851 3.015,0.856 3.021,0.861 3.027,0.865 3.034,0.869 3.040,0.872 3.046,0.875 3.053,0.878 3.059,0.879 3.065,0.880 3.072,0.879 3.078,0.878 3.084,0.876 3.091,0.873 3.097,0.869 3.103,0.865 3.110,0.860 3.116,0.854 3.122,0.848 3.129,0.842 3.135,0.837 3.141,0.832 3.148,0.828 3.154,0.825 3.160,0.823 3.167,0.824 3.173,0.826 3.179,0.830 3.186,0.836 3.192,0.844 3.198,0.853 3.204,0.863 3.211,0.872 3.217,0.878 3.223,0.881 3.230,0.876 3.236,0.859 3.242,0.827" />
</g>
</svg>