<svg xmlns="http://www.w3.org/2000/svg" width="161.8" height="100.0" viewBox="-4.684 -55.000 171.803 110.000">
<g fill="none" stroke="black" stroke-width="0.0100%" transform="translate(0, 0.0000) scale(50.0000, -50.0000)">
<polyline points="0.006,0.123 0.013,0.020 0.019,-0.050 0.025,-0.093 0.032,-0.116 0.038,-0.123 0.044,-0.116 0.051,-0.101 0.057,-0.080 0.063,-0.055 0.070,-0.027 0.076,0.000 0.082,0.027 0.088,0.051 0.095,0.073 0.101,0.092 0.107,0.107 0.114,0.119 0.120,0.127 0.126,0.131 0.133,0.131 0.139,0.128 0.145,0.123 0.152,0.114 0.158,0.103 0.164,0.090 0.171,0.075 0.177,0.059 0.183,0.042 0.190,0.025 0.196,0.007 0.202,-0.010 0.209,-0.027 0.215,-0.044 0.221,-0.059 0.228,-0.074 0.234,-0.087 0.240,-0.099 0.246,-0.109 0.253,-0.117 0.259,-0.123 0.265,-0.128 0.272,-0.131 0.278,-0.132 0.284,-0.131 0.291,-0.128 0.297,-0.124 0.303,-0.117 0.310,-0.110 0.316,-0.101 0.322,-0.090 0.329,-0.079 0.335,-0.066 0.341,-0.053 0.348,-0.038 0.354,-0.024 0.360,-0.008 0.367,0.007 0.373,0.023 0.379,0.039 0.386,0.054 0.392,0.070 0.398,0.084 0.405,0.099 0.411,0.112 0.417,0.125 0.423,0.137 0.430,0.148 0.436,0.158 0.442,0.166 0.449,0.174 0.455,0.180 0.461,0.185 0.468,0.188 0.474,0.190 0.480,0.191 0.487,0.190 0.493,0.188 0.499,0.185 0.506,0.180 0.512,0.175 0.518,0.167 0.525,0.159 0.531,0.150 0.537,0.139 0.544,0.128 0.550,0.115 0.556,0.102 0.563,0.088 0.569,0.074 0.575,0.058 0.581,0.043 0.588,0.027 0.594,0.011 0.600,-0.005 0.607,-0.021 0.613,-0.038 0.619,-0.054 0.626,-0.069 0.632,-0.085 0.638,-0.099 0.645,-0.114 0.651,-0.127 0.657,-0.140 0.664,-0.152 0.670,-0.164 0.676,-0.174 0.683,-0.183 0.689,-0.191 0.695,-0.198 0.702,-0.204 0.708,-0.208 0.714,-0.211 0.721,-0.213 0.727,-0.214 0.733,-0.213 0.739,-0.211 0.746,-0.208 0.752,-0.203 0.758,-0.197 0.765,-0.189 0.771,-0.180 0.777,-0.170 0.784,-0.159 0.790,-0.147 0.796,-0.133 0.803,-0.118 0.809,-0.103 0.815,-0.086 0.822,-0.068 0.828,-0.050 0.834,-0.031 0.841,-0.011 0.847,0.010 0.853,0.031 0.860,0.052 0.866,0.074 0.872,0.096 0.879,0.118 0.885,0.140 0.891,0.163 0.898,0.185 0.904,0.207 0.910,0.228 0.916,0.249 0.923,0.270 0.929,0.290 0.935,0.309 0.942,0.328 0.948,0.345 0.954,0.362 0.961,0.378 0.967,0.392 0.973,0.406 0.980,0.418 0.986,0.429 0.992,0.438 0.999,0.446 1.005,0.453 1.011,0.458 1.018,0.461 1.024,0.463 1.030,0.463 1.037,0.462 1.043,0.459 1.049,0.454 1.056,0.447 1.062,0.439 1.068,0.429 1.074,0.417 1.081,0.404 1.087,0.389 1.093,0.372 1.100,0.353 1.106,0.333 1.112,0.312 1.119,0.288 1.125,0.264 1.131,0.238 1.138,0.211 1.144,0.182 1.150,0.152 1.157,0.121 1.163,0.089 1.169,0.056 1.176,0.022 1.182,-0.013 1.188,-0.048 1.195,-0.084 1.201,-0.121 1.207,-0.158 1.214,-0.196 1.220,-0.234 1.226,-0.271 1.232,-0.309 1.239,-0.347 1.245,-0.385 1.251,-0.422 1.258,-0.459 1.264,-0.496 1.270,-0.532 1.277,-0.567 1.283,-0.602 1.289,-0.636 1.296,-0.668 1.302,-0.700 1.308,-0.730 1.315,-0.760 1.321,-0.788 1.327,-0.814 1.334,-0.839 1.340,-0.863 1.346,-0.884 1.353,-0.905 1.359,-0.923 1.365,-0.939 1.372,-0.954 1.378,-0.967 1.384,-0.977 1.390,-0.986 1.397,-0.993 1.403,-0.997 1.409,-1.000 1.416,-1.000 1.422,-0.998 1.428,-0.994 1.435,-0.988 1.441,-0.980 1.447,-0.969 1.454,-0.957 1.460,-0.942 1.466,-0.925 1.473,-0.907 1.479,-0.886 1.485,-0.863 1.492,-0.838 1.498,-0.812 1.504,-0.783 1.511,-0.753 1.517,-0.721 1.523,-0.688 1.530,-0.653 1.536,-0.616 1.542,-0.578 1.549,-0.539 1.555,-0.499 1.561,-0.457 1.567,-0.414 1.574,-0.371 1.580,-0.326 1.586,-0.281 1.593,-0.235 1.599,-0.189 1.605,-0.142 1.612,-0.095 1.618,-0.047 1.624,0.000 1.631,0.047 1.637,0.095 1.643,0.142 1.650,0.189 1.656,0.235 1.662,0.281 1.669,0.326 1.675,0.371 1.681,0.414 1.688,0.457 1.694,0.499 1.700,0.539 1.707,0.578 1.713,0.616 1.719,0.653 1.725,0.688 1.732,0.721 1.738,0.753 1.744,0.783 1.751,0.812 1.757,0.838 1.763,0.863 1.770,0.886 1.776,0.907 1.782,0.925 1.789,0.942 1.795,0.957 1.801,0.969 1.808,0.980 1.814,0.988 1.820,0.994 1.827,0.998 1.833,1.000 1.839,1.000 1.846,0.997 1.852,0.993 1.858,0.986 1.865,0.977 1.871,0.967 1.877,0.954 1.883,0.939 1.890,0.923 1.896,0.905 1.902,0.884 1.909,0.863 1.915,0.839 1.921,0.814 1.928,0.788 1.934,0.760 1.940,0.730 1.947,0.700 1.953,0.668 1.959,0.636 1.966,0.602 1.972,0.567 1.978,0.532 1.985,0.496 1.991,0.459 1.997,0.422 2.004,0.385 2.010,0.347 2.016,0.309 2.023,0.271 2.029,0.234 2.035,0.196 2.042,0.158 2.048,0.121 2.054,0.084 2.060,0.048 2.067,0.013 2.073,-0.022 2.079,-0.056 2.086,-0.089 2.092,-0.121 2.098,-0.152 2.105,-0.182 2.111,-0.211 2.117,-0.238 2.124,-0.264 2.130,-0.288 2.136,-0.312 2.143,-0.333 2.149,-0.353 2.155,-0.372 2.162,-0.389 2.168,-0.404 2.174,-0.417 2.181,-0.429 2.187,-0.439 2.193,-0.447 2.200,-0.454 2.206,-0.459 2.212,-0.462 2.218,-0.463 2.225,-0.463 2.231,-0.461 2.237,-0.458 2.244,-0.453 2.250,-0.446 2.256,-0.438 2.263,-0.429 2.269,-0.418 2.275,-0.406 2.282,-0.392 2.288,-0.378 2.294,-0.362 2.301,-0.345 2.307,-0.328 2.313,-0.309 2.320,-0.290 2.326,-0.270 2.332,-0.249 2.339,-0.228 2.345,-0.207 2.351,-0.185 2.358,-0.163 2.364,-0.140 2.370,-0.118 2.376,-0.096 2.383,-0.074 2.389,-0.052 2.395,-0.031 2.402,-0.010 2.408,0.011 2.414,0.031 2.421,0.050 2.427,0.068 2.433,0.086 2.440,0.103 2.446,0.118 2.452,0.133 2.459,0.147 2.465,0.159 2.471,0.170 2.478,0.180 2.484,0.189 2.490,0.197 2.497,0.203 2.503,0.208 2.509,0.211 2.516,0.213 2.522,0.214 2.528,0.213 2.534,0.211 2.541,0.208 2.547,0.204 2.553,0.198 2.560,0.191 2.566,0.183 2.572,0.174 2.579,0.164 2.585,0.152 2.591,0.140 2.598,0.127 2.604,0.114 2.610,0.099 2.617,0.085 2.623,0.069 2.629,0.054 2.636,0.038 2.642,0.021 2.648,0.005 2.655,-0.011 2.661,-0.027 2.667,-0.043 2.674,-0.058 2.680,-0.074 2.686,-0.088 2.693,-0.102 2.699,-0.115 2.705,-0.128 2.711,-0.139 2.718,-0.150 2.724,-0.159 2.730,-0.167 2.737,-0.175 2.743,-0.180 2.749,-0.185 2.756,-0.188 2.762,-0.190 2.768,-0.191 2.775,-0.190 2.781,-0.188 2.787,-0.185 2.794,-0.180 2.800,-0.174 2.806,-0.166 2.813,-0.158 2.819,-0.148 2.825,-0.137 2.832,-0.125 2.838,-0.112 2.844,-0.099 2.851,-0.084 2.857,-0.070 2.863,-0.054 2.869,-0.039 2.876,-0.023 2.882,-0.007 2.888,0.008 2.895,0.024 2.901,0.038 2.907,0.053 2.914,0.066 2.920,0.079 2.926,0.090 2.933,0.101 2.939,0.110 2.945,0.117 2.952,0.124 2.958,0.128 2.964,0.131 2.971,0.132 2.977,0.131 2.983,0.128 2.990,0.123 2.996,0.117 3.002,0.109 3.009,0.099 3.015,0.087 3.021,0.074 3.027,0.059 3.034,0.044 3.040,0.027 3.046,0.010 3.053,-0.007 3.059,-0.025 3.065,-0.042 3.072,-0.059 3.078,-0.075 3.084,-0.090 3.091,-0.103 3.097,-0.114 3.103,-0.123 3.110,-0.128 3.116,-0.131 3.122,-0.131 3.129,-0.127 3.135,-0.119 3.141,-0.107 3.148,-0.092 3.154,-0.073 3.160,-0.051 3.167,-0.027 3.173,-0.000 3.179,0.027 3.186,0.055 3.192,0.080 3.198,0.101 3.204,0.116 3.211,0.123 3.217,0.116 3.223,0.093 3.230,0.050 3.236,-0.020 3.242,-0.123" />
</g>
</svg>