<svg xmlns="http://www.w3.org/2000/svg" width="161.8" height="100.0" viewBox="-4.684 -52.079 171.803 110.000">
<g fill="none" stroke="black" stroke-width="0.0094%" transform="translate(0, 5.8429) scale(52.9214, -52.9214)">
<polyline points="0.006,-0.115 0.012,-0.335 0.018,-0.492 0.024,-0.599 0.030,-0.665 0.036,-0.701 0.042,-0.712 0.048,-0.707 0.054,-0.689 0.060,-0.664 0.066,-0.635 0.072,-0.604 0.078,-0.575 0.084,-0.548 0.090,-0.526 0.096,-0.508 0.102,-0.496 0.107,-0.489 0.113,-0.487 0.119,-0.492 0.125,-0.501 0.131,-0.515 0.137,-0.533 0.143,-0.554 0.149,-0.578 0.155,-0.605 0.161,-0.632 0.167,-0.661 0.173,-0.690 0.179,-0.719 0.185,-0.747 0.191,-0.773 0.197,-0.798 0.203,-0.820 0.209,-0.839 0.215,-0.856 0.221,-0.870 0.227,-0.880 0.233,-0.886 0.239,-0.890 0.245,-0.889 0.251,-0.885 0.257,-0.877 0.263,-0.866 0.269,-0.852 0.275,-0.834 0.281,-0.814 0.287,-0.791 0.293,-0.765 0.299,-0.737 0.305,-0.707 0.311,-0.675 0.316,-0.642 0.322,-0.608 0.328,-0.572 0.334,-0.536 0.340,-0.500 0.346,-0.464 0.352,-0.428 0.358,-0.393 0.364,-0.358 0.370,-0.325 0.376,-0.292 0.382,-0.261 0.388,-0.232 0.394,-0.204 0.400,-0.178 0.406,-0.154 0.412,-0.133 0.418,-0.113 0.424,-0.096 0.430,-0.082 0.436,-0.070 0.442,-0.060 0.448,-0.052 0.454,-0.048 0.460,-0.045 0.466,-0.045 0.472,-0.047 0.478,-0.051 0.484,-0.058 0.490,-0.066 0.496,-0.077 0.502,-0.089 0.508,-0.103 0.514,-0.118 0.520,-0.135 0.525,-0.153 0.531,-0.172 0.537,-0.192 0.543,-0.213 0.549,-0.234 0.555,-0.256 0.561,-0.279 0.567,-0.301 0.573,-0.323 0.579,-0.346 0.585,-0.367 0.591,-0.389 0.597,-0.410 0.603,-0.430 0.609,-0.449 0.615,-0.468 0.621,-0.485 0.627,-0.501 0.633,-0.516 0.639,-0.529 0.645,-0.541 0.651,-0.552 0.657,-0.561 0.663,-0.568 0.669,-0.574 0.675,-0.578 0.681,-0.580 0.687,-0.581 0.693,-0.580 0.699,-0.577 0.705,-0.573 0.711,-0.566 0.717,-0.559 0.723,-0.549 0.729,-0.538 0.734,-0.526 0.740,-0.512 0.746,-0.496 0.752,-0.479 0.758,-0.461 0.764,-0.442 0.770,-0.422 0.776,-0.401 0.782,-0.378 0.788,-0.355 0.794,-0.331 0.800,-0.307 0.806,-0.282 0.812,-0.257 0.818,-0.231 0.824,-0.205 0.830,-0.179 0.836,-0.152 0.842,-0.126 0.848,-0.100 0.854,-0.075 0.860,-0.049 0.866,-0.024 0.872,0.000 0.878,0.024 0.884,0.047 0.890,0.070 0.896,0.092 0.902,0.112 0.908,0.132 0.914,0.151 0.920,0.169 0.926,0.186 0.932,0.202 0.938,0.216 0.944,0.230 0.949,0.242 0.955,0.253 0.961,0.263 0.967,0.271 0.973,0.278 0.979,0.285 0.985,0.290 0.991,0.293 0.997,0.296 1.003,0.297 1.009,0.297 1.015,0.297 1.021,0.295 1.027,0.292 1.033,0.288 1.039,0.284 1.045,0.278 1.051,0.272 1.057,0.265 1.063,0.257 1.069,0.249 1.075,0.241 1.081,0.231 1.087,0.222 1.093,0.212 1.099,0.202 1.105,0.192 1.111,0.181 1.117,0.171 1.123,0.161 1.129,0.151 1.135,0.141 1.141,0.131 1.147,0.122 1.153,0.113 1.158,0.105 1.164,0.097 1.170,0.090 1.176,0.083 1.182,0.077 1.188,0.072 1.194,0.068 1.200,0.065 1.206,0.062 1.212,0.061 1.218,0.060 1.224,0.061 1.230,0.062 1.236,0.065 1.242,0.068 1.248,0.073 1.254,0.079 1.260,0.086 1.266,0.094 1.272,0.103 1.278,0.113 1.284,0.125 1.290,0.137 1.296,0.150 1.302,0.165 1.308,0.180 1.314,0.196 1.320,0.214 1.326,0.232 1.332,0.251 1.338,0.271 1.344,0.291 1.350,0.312 1.356,0.334 1.362,0.356 1.367,0.379 1.373,0.403 1.379,0.426 1.385,0.450 1.391,0.475 1.397,0.499 1.403,0.524 1.409,0.548 1.415,0.573 1.421,0.598 1.427,0.622 1.433,0.646 1.439,0.670 1.445,0.693 1.451,0.716 1.457,0.739 1.463,0.761 1.469,0.782 1.475,0.803 1.481,0.823 1.487,0.842 1.493,0.860 1.499,0.877 1.505,0.893 1.511,0.909 1.517,0.923 1.523,0.936 1.529,0.948 1.535,0.959 1.541,0.968 1.547,0.977 1.553,0.984 1.559,0.990 1.565,0.994 1.571,0.997 1.576,0.999 1.582,1.000 1.588,0.999 1.594,0.997 1.600,0.994 1.606,0.990 1.612,0.984 1.618,0.977 1.624,0.969 1.630,0.959 1.636,0.949 1.642,0.937 1.648,0.924 1.654,0.910 1.660,0.896 1.666,0.880 1.672,0.863 1.678,0.846 1.684,0.827 1.690,0.808 1.696,0.789 1.702,0.769 1.708,0.748 1.714,0.726 1.720,0.705 1.726,0.683 1.732,0.660 1.738,0.638 1.744,0.615 1.750,0.592 1.756,0.569 1.762,0.547 1.768,0.524 1.774,0.502 1.780,0.480 1.785,0.458 1.791,0.436 1.797,0.415 1.803,0.395 1.809,0.375 1.815,0.355 1.821,0.336 1.827,0.318 1.833,0.301 1.839,0.285 1.845,0.269 1.851,0.254 1.857,0.240 1.863,0.227 1.869,0.215 1.875,0.204 1.881,0.194 1.887,0.185 1.893,0.177 1.899,0.170 1.905,0.164 1.911,0.159 1.917,0.155 1.923,0.152 1.929,0.150 1.935,0.149 1.941,0.149 1.947,0.150 1.953,0.152 1.959,0.154 1.965,0.158 1.971,0.162 1.977,0.167 1.983,0.173 1.989,0.179 1.994,0.187 2.000,0.194 2.006,0.202 2.012,0.211 2.018,0.220 2.024,0.229 2.030,0.239 2.036,0.249 2.042,0.259 2.048,0.269 2.054,0.279 2.060,0.289 2.066,0.299 2.072,0.309 2.078,0.319 2.084,0.329 2.090,0.338 2.096,0.347 2.102,0.355 2.108,0.363 2.114,0.370 2.120,0.377 2.126,0.383 2.132,0.389 2.138,0.394 2.144,0.398 2.150,0.401 2.156,0.404 2.162,0.405 2.168,0.406 2.174,0.406 2.180,0.406 2.186,0.404 2.192,0.401 2.198,0.398 2.203,0.394 2.209,0.389 2.215,0.383 2.221,0.376 2.227,0.369 2.233,0.360 2.239,0.351 2.245,0.341 2.251,0.331 2.257,0.320 2.263,0.309 2.269,0.296 2.275,0.284 2.281,0.271 2.287,0.258 2.293,0.244 2.299,0.230 2.305,0.216 2.311,0.202 2.317,0.188 2.323,0.174 2.329,0.160 2.335,0.146 2.341,0.132 2.347,0.119 2.353,0.106 2.359,0.094 2.365,0.082 2.371,0.071 2.377,0.060 2.383,0.050 2.389,0.041 2.395,0.033 2.401,0.025 2.407,0.019 2.413,0.013 2.418,0.008 2.424,0.004 2.430,0.002 2.436,0.000 2.442,-0.001 2.448,-0.000 2.454,0.001 2.460,0.004 2.466,0.007 2.472,0.012 2.478,0.018 2.484,0.024 2.490,0.032 2.496,0.040 2.502,0.049 2.508,0.059 2.514,0.070 2.520,0.081 2.526,0.093 2.532,0.105 2.538,0.118 2.544,0.131 2.550,0.144 2.556,0.158 2.562,0.171 2.568,0.185 2.574,0.198 2.580,0.211 2.586,0.223 2.592,0.236 2.598,0.247 2.604,0.258 2.610,0.268 2.616,0.278 2.622,0.286 2.627,0.293 2.633,0.300 2.639,0.305 2.645,0.308 2.651,0.311 2.657,0.312 2.663,0.312 2.669,0.310 2.675,0.307 2.681,0.302 2.687,0.296 2.693,0.289 2.699,0.280 2.705,0.270 2.711,0.258 2.717,0.245 2.723,0.231 2.729,0.216 2.735,0.200 2.741,0.183 2.747,0.165 2.753,0.147 2.759,0.128 2.765,0.108 2.771,0.089 2.777,0.069 2.783,0.050 2.789,0.031 2.795,0.012 2.801,-0.006 2.807,-0.023 2.813,-0.039 2.819,-0.054 2.825,-0.068 2.831,-0.080 2.836,-0.091 2.842,-0.099 2.848,-0.106 2.854,-0.112 2.860,-0.115 2.866,-0.116 2.872,-0.115 2.878,-0.112 2.884,-0.107 2.890,-0.101 2.896,-0.092 2.902,-0.082 2.908,-0.070 2.914,-0.057 2.920,-0.042 2.926,-0.027 2.932,-0.011 2.938,0.005 2.944,0.021 2.950,0.038 2.956,0.054 2.962,0.069 2.968,0.083 2.974,0.096 2.980,0.108 2.986,0.119 2.992,0.129 2.998,0.138 3.004,0.147 3.010,0.155 3.016,0.165 3.022,0.177 3.028,0.193 3.034,0.213 3.040,0.242 3.045,0.281 3.051,0.334 3.057,0.405 3.063,0.499" />
</g>
</svg>