<svg xmlns="http://www.w3.org/2000/svg" width="161.8" height="100.0" viewBox="-4.842 -55.000 171.803 110.000">
<g fill="none" stroke="black" stroke-width="0.0100%" transform="translate(0, -0.0000) scale(50.0000, -50.0000)">
<circle cx="0.003" cy="0.000" r="0.010" />
<polyline points="0.003,0.000 0.006,0.033 0.009,0.065 0.013,0.098 0.016,0.131 0.019,0.163 0.022,0.195 0.025,0.227 0.028,0.259 0.032,0.290 0.035,0.321 0.038,0.352 0.041,0.382 0.044,0.412 0.047,0.441 0.051,0.470 0.054,0.498 0.057,0.526 0.060,0.553 0.063,0.579 0.066,0.605 0.070,0.630 0.073,0.654 0.076,0.678 0.079,0.701 0.082,0.723 0.085,0.744 0.089,0.765 0.092,0.784 0.095,0.803 0.098,0.821 0.101,0.838 0.104,0.855 0.108,0.870 0.111,0.885 0.114,0.898 0.117,0.911 0.120,0.923 0.123,0.934 0.127,0.944 0.130,0.953 0.133,0.962 0.136,0.969 0.139,0.976 0.142,0.982 0.146,0.987 0.149,0.991 0.152,0.994 0.155,0.997 0.158,0.999 0.161,1.000 0.164,1.000 0.168,1.000 0.171,0.999 0.174,0.997 0.177,0.994 0.180,0.991 0.183,0.988 0.187,0.984 0.190,0.979 0.193,0.974 0.196,0.968 0.199,0.962 0.202,0.955 0.206,0.948 0.209,0.941 0.212,0.933 0.215,0.925 0.218,0.917 0.221,0.908 0.225,0.900 0.228,0.891 0.231,0.882 0.234,0.872 0.237,0.863 0.240,0.854 0.244,0.844 0.247,0.835 0.250,0.825 0.253,0.816 0.256,0.806 0.259,0.797 0.263,0.788 0.266,0.778 0.269,0.769 0.272,0.761 0.275,0.752 0.278,0.744 0.282,0.735 0.285,0.727 0.288,0.720 0.291,0.712 0.294,0.705 0.297,0.698 0.301,0.692 0.304,0.685 0.307,0.679 0.310,0.674 0.313,0.668 0.316,0.664 0.319,0.659 0.323,0.655 0.326,0.651 0.329,0.647 0.332,0.644 0.335,0.641 0.338,0.639 0.342,0.637 0.345,0.635 0.348,0.633 0.351,0.632 0.354,0.632 0.357,0.631 0.361,0.631 0.364,0.631 0.367,0.631 0.370,0.632 0.373,0.633 0.376,0.634 0.380,0.635 0.383,0.637 0.386,0.639 0.389,0.641 0.392,0.643 0.395,0.645 0.399,0.647 0.402,0.650 0.405,0.653 0.408,0.656 0.411,0.658 0.414,0.661 0.418,0.664 0.421,0.667 0.424,0.670 0.427,0.673 0.430,0.676 0.433,0.679 0.437,0.682 0.440,0.685 0.443,0.688 0.446,0.690 0.449,0.693 0.452,0.695 0.456,0.698 0.459,0.700 0.462,0.702 0.465,0.704 0.468,0.705 0.471,0.707 0.474,0.708 0.478,0.709 0.481,0.710 0.484,0.711 0.487,0.712 0.490,0.712 0.493,0.712 0.497,0.712 0.500,0.712 0.503,0.711 0.506,0.710 0.509,0.709 0.512,0.708 0.516,0.706 0.519,0.705 0.522,0.703 0.525,0.701 0.528,0.698 0.531,0.696 0.535,0.693 0.538,0.690 0.541,0.687 0.544,0.684 0.547,0.680 0.550,0.676 0.554,0.673 0.557,0.669 0.560,0.665 0.563,0.660 0.566,0.656 0.569,0.652 0.573,0.647 0.576,0.643 0.579,0.638 0.582,0.633 0.585,0.628 0.588,0.624 0.592,0.619 0.595,0.614 0.598,0.609 0.601,0.604 0.604,0.599 0.607,0.595 0.611,0.590 0.614,0.585 0.617,0.580 0.620,0.576 0.623,0.571 0.626,0.567 0.629,0.563 0.633,0.559 0.636,0.554 0.639,0.551 0.642,0.547 0.645,0.543 0.648,0.540 0.652,0.536 0.655,0.533 0.658,0.530 0.661,0.527 0.664,0.524 0.667,0.522 0.671,0.519 0.674,0.517 0.677,0.515 0.680,0.513 0.683,0.511 0.686,0.510 0.690,0.509 0.693,0.507 0.696,0.506 0.699,0.505 0.702,0.505 0.705,0.504 0.709,0.504 0.712,0.503 0.715,0.503 0.718,0.503 0.721,0.503 0.724,0.504 0.728,0.504 0.731,0.504 0.734,0.505 0.737,0.506 0.740,0.506 0.743,0.507 0.747,0.508 0.750,0.509 0.753,0.510 0.756,0.511 0.759,0.512 0.762,0.513 0.766,0.514 0.769,0.515 0.772,0.516 0.775,0.517 0.778,0.518 0.781,0.519 0.785,0.520 0.788,0.520 0.791,0.521 0.794,0.522 0.797,0.522 0.800,0.523 0.803,0.523 0.807,0.523 0.810,0.524 0.813,0.524 0.816,0.524 0.819,0.523 0.822,0.523 0.826,0.523 0.829,0.522 0.832,0.521 0.835,0.520 0.838,0.519 0.841,0.518 0.845,0.517 0.848,0.515 0.851,0.514 0.854,0.512 0.857,0.510 0.860,0.508 0.864,0.505 0.867,0.503 0.870,0.500 0.873,0.498 0.876,0.495 0.879,0.492 0.883,0.488 0.886,0.485 0.889,0.482 0.892,0.478 0.895,0.475 0.898,0.471 0.902,0.467 0.905,0.463 0.908,0.459 0.911,0.455 0.914,0.451 0.917,0.446 0.921,0.442 0.924,0.438 0.927,0.433 0.930,0.429 0.933,0.424 0.936,0.420 0.940,0.415 0.943,0.411 0.946,0.406 0.949,0.402 0.952,0.398 0.955,0.393 0.958,0.389 0.962,0.384 0.965,0.380 0.968,0.376 0.971,0.372 0.974,0.368 0.977,0.364 0.981,0.360 0.984,0.356 0.987,0.352 0.990,0.348 0.993,0.345 0.996,0.341 1.000,0.338 1.003,0.335 1.006,0.332 1.009,0.329 1.012,0.326 1.015,0.323 1.019,0.321 1.022,0.318 1.025,0.316 1.028,0.314 1.031,0.312 1.034,0.310 1.038,0.308 1.041,0.306 1.044,0.305 1.047,0.303 1.050,0.302 1.053,0.301 1.057,0.300 1.060,0.299 1.063,0.298 1.066,0.297 1.069,0.296 1.072,0.296 1.076,0.295 1.079,0.295 1.082,0.294 1.085,0.294 1.088,0.294 1.091,0.294 1.095,0.293 1.098,0.293 1.101,0.293 1.104,0.293 1.107,0.293 1.110,0.293 1.113,0.293 1.117,0.293 1.120,0.293 1.123,0.293 1.126,0.293 1.129,0.292 1.132,0.292 1.136,0.292 1.139,0.292 1.142,0.291 1.145,0.291 1.148,0.290 1.151,0.290 1.155,0.289 1.158,0.289 1.161,0.288 1.164,0.287 1.167,0.286 1.170,0.285 1.174,0.284 1.177,0.282 1.180,0.281 1.183,0.279 1.186,0.278 1.189,0.276 1.193,0.274 1.196,0.272 1.199,0.270 1.202,0.268 1.205,0.266 1.208,0.263 1.212,0.261 1.215,0.258 1.218,0.255 1.221,0.252 1.224,0.249 1.227,0.246 1.231,0.243 1.234,0.240 1.237,0.236 1.240,0.233 1.243,0.230 1.246,0.226 1.250,0.222 1.253,0.219 1.256,0.215 1.259,0.211 1.262,0.207 1.265,0.203 1.268,0.200 1.272,0.196 1.275,0.192 1.278,0.188 1.281,0.184 1.284,0.180 1.287,0.176 1.291,0.172 1.294,0.168 1.297,0.164 1.300,0.160 1.303,0.157 1.306,0.153 1.310,0.149 1.313,0.146 1.316,0.142 1.319,0.138 1.322,0.135 1.325,0.132 1.329,0.128 1.332,0.125 1.335,0.122 1.338,0.119 1.341,0.116 1.344,0.114 1.348,0.111 1.351,0.108 1.354,0.106 1.357,0.104 1.360,0.102 1.363,0.099 1.367,0.097 1.370,0.096 1.373,0.094 1.376,0.092 1.379,0.091 1.382,0.089 1.386,0.088 1.389,0.087 1.392,0.086 1.395,0.085 1.398,0.084 1.401,0.083 1.405,0.083 1.408,0.082 1.411,0.082 1.414,0.081 1.417,0.081 1.420,0.081 1.423,0.080 1.427,0.080 1.430,0.080 1.433,0.080 1.436,0.080 1.439,0.080 1.442,0.080 1.446,0.081 1.449,0.081 1.452,0.081 1.455,0.081 1.458,0.081 1.461,0.081 1.465,0.082 1.468,0.082 1.471,0.082 1.474,0.082 1.477,0.082 1.480,0.082 1.484,0.082 1.487,0.082 1.490,0.082 1.493,0.082 1.496,0.081 1.499,0.081 1.503,0.081 1.506,0.080 1.509,0.079 1.512,0.079 1.515,0.078 1.518,0.077 1.522,0.076 1.525,0.075 1.528,0.074 1.531,0.073 1.534,0.072 1.537,0.070 1.541,0.069 1.544,0.067 1.547,0.065 1.550,0.063 1.553,0.061 1.556,0.059 1.560,0.057 1.563,0.055 1.566,0.053 1.569,0.050 1.572,0.048 1.575,0.045 1.578,0.043 1.582,0.040 1.585,0.037 1.588,0.034 1.591,0.031 1.594,0.028 1.597,0.025 1.601,0.022 1.604,0.019 1.607,0.016 1.610,0.013 1.613,0.010 1.616,0.006 1.620,0.003 1.623,0.000 1.626,-0.003 1.629,-0.006 1.632,-0.010 1.635,-0.013 1.639,-0.016 1.642,-0.019 1.645,-0.022 1.648,-0.025 1.651,-0.028 1.654,-0.031 1.658,-0.034 1.661,-0.037 1.664,-0.040 1.667,-0.043 1.670,-0.045 1.673,-0.048 1.677,-0.050 1.680,-0.053 1.683,-0.055 1.686,-0.057 1.689,-0.059 1.692,-0.061 1.696,-0.063 1.699,-0.065 1.702,-0.067 1.705,-0.069 1.708,-0.070 1.711,-0.072 1.715,-0.073 1.718,-0.074 1.721,-0.075 1.724,-0.076 1.727,-0.077 1.730,-0.078 1.733,-0.079 1.737,-0.079 1.740,-0.080 1.743,-0.081 1.746,-0.081 1.749,-0.081 1.752,-0.082 1.756,-0.082 1.759,-0.082 1.762,-0.082 1.765,-0.082 1.768,-0.082 1.771,-0.082 1.775,-0.082 1.778,-0.082 1.781,-0.082 1.784,-0.081 1.787,-0.081 1.790,-0.081 1.794,-0.081 1.797,-0.081 1.800,-0.081 1.803,-0.080 1.806,-0.080 1.809,-0.080 1.813,-0.080 1.816,-0.080 1.819,-0.080 1.822,-0.080 1.825,-0.081 1.828,-0.081 1.832,-0.081 1.835,-0.082 1.838,-0.082 1.841,-0.083 1.844,-0.083 1.847,-0.084 1.851,-0.085 1.854,-0.086 1.857,-0.087 1.860,-0.088 1.863,-0.089 1.866,-0.091 1.870,-0.092 1.873,-0.094 1.876,-0.096 1.879,-0.097 1.882,-0.099 1.885,-0.102 1.888,-0.104 1.892,-0.106 1.895,-0.108 1.898,-0.111 1.901,-0.114 1.904,-0.116 1.907,-0.119 1.911,-0.122 1.914,-0.125 1.917,-0.128 1.920,-0.132 1.923,-0.135 1.926,-0.138 1.930,-0.142 1.933,-0.146 1.936,-0.149 1.939,-0.153 1.942,-0.157 1.945,-0.160 1.949,-0.164 1.952,-0.168 1.955,-0.172 1.958,-0.176 1.961,-0.180 1.964,-0.184 1.968,-0.188 1.971,-0.192 1.974,-0.196 1.977,-0.200 1.980,-0.203 1.983,-0.207 1.987,-0.211 1.990,-0.215 1.993,-0.219 1.996,-0.222 1.999,-0.226 2.002,-0.230 2.006,-0.233 2.009,-0.236 2.012,-0.240 2.015,-0.243 2.018,-0.246 2.021,-0.249 2.025,-0.252 2.028,-0.255 2.031,-0.258 2.034,-0.261 2.037,-0.263 2.040,-0.266 2.043,-0.268 2.047,-0.270 2.050,-0.272 2.053,-0.274 2.056,-0.276 2.059,-0.278 2.062,-0.279 2.066,-0.281 2.069,-0.282 2.072,-0.284 2.075,-0.285 2.078,-0.286 2.081,-0.287 2.085,-0.288 2.088,-0.289 2.091,-0.289 2.094,-0.290 2.097,-0.290 2.100,-0.291 2.104,-0.291 2.107,-0.292 2.110,-0.292 2.113,-0.292 2.116,-0.292 2.119,-0.293 2.123,-0.293 2.126,-0.293 2.129,-0.293 2.132,-0.293 2.135,-0.293 2.138,-0.293 2.142,-0.293 2.145,-0.293 2.148,-0.293 2.151,-0.293 2.154,-0.294 2.157,-0.294 2.161,-0.294 2.164,-0.294 2.167,-0.295 2.170,-0.295 2.173,-0.296 2.176,-0.296 2.180,-0.297 2.183,-0.298 2.186,-0.299 2.189,-0.300 2.192,-0.301 2.195,-0.302 2.199,-0.303 2.202,-0.305 2.205,-0.306 2.208,-0.308 2.211,-0.310 2.214,-0.312 2.217,-0.314 2.221,-0.316 2.224,-0.318 2.227,-0.321 2.230,-0.323 2.233,-0.326 2.236,-0.329 2.240,-0.332 2.243,-0.335 2.246,-0.338 2.249,-0.341 2.252,-0.345 2.255,-0.348 2.259,-0.352 2.262,-0.356 2.265,-0.360 2.268,-0.364 2.271,-0.368 2.274,-0.372 2.278,-0.376 2.281,-0.380 2.284,-0.384 2.287,-0.389 2.290,-0.393 2.293,-0.398 2.297,-0.402 2.300,-0.406 2.303,-0.411 2.306,-0.415 2.309,-0.420 2.312,-0.424 2.316,-0.429 2.319,-0.433 2.322,-0.438 2.325,-0.442 2.328,-0.446 2.331,-0.451 2.335,-0.455 2.338,-0.459 2.341,-0.463 2.344,-0.467 2.347,-0.471 2.350,-0.475 2.354,-0.478 2.357,-0.482 2.360,-0.485 2.363,-0.488 2.366,-0.492 2.369,-0.495 2.372,-0.498 2.376,-0.500 2.379,-0.503 2.382,-0.505 2.385,-0.508 2.388,-0.510 2.391,-0.512 2.395,-0.514 2.398,-0.515 2.401,-0.517 2.404,-0.518 2.407,-0.519 2.410,-0.520 2.414,-0.521 2.417,-0.522 2.420,-0.523 2.423,-0.523 2.426,-0.523 2.429,-0.524 2.433,-0.524 2.436,-0.524 2.439,-0.523 2.442,-0.523 2.445,-0.523 2.448,-0.522 2.452,-0.522 2.455,-0.521 2.458,-0.520 2.461,-0.520 2.464,-0.519 2.467,-0.518 2.471,-0.517 2.474,-0.516 2.477,-0.515 2.480,-0.514 2.483,-0.513 2.486,-0.512 2.490,-0.511 2.493,-0.510 2.496,-0.509 2.499,-0.508 2.502,-0.507 2.505,-0.506 2.509,-0.506 2.512,-0.505 2.515,-0.504 2.518,-0.504 2.521,-0.504 2.524,-0.503 2.527,-0.503 2.531,-0.503 2.534,-0.503 2.537,-0.504 2.540,-0.504 2.543,-0.505 2.546,-0.505 2.550,-0.506 2.553,-0.507 2.556,-0.509 2.559,-0.510 2.562,-0.511 2.565,-0.513 2.569,-0.515 2.572,-0.517 2.575,-0.519 2.578,-0.522 2.581,-0.524 2.584,-0.527 2.588,-0.530 2.591,-0.533 2.594,-0.536 2.597,-0.540 2.600,-0.543 2.603,-0.547 2.607,-0.551 2.610,-0.554 2.613,-0.559 2.616,-0.563 2.619,-0.567 2.622,-0.571 2.626,-0.576 2.629,-0.580 2.632,-0.585 2.635,-0.590 2.638,-0.595 2.641,-0.599 2.645,-0.604 2.648,-0.609 2.651,-0.614 2.654,-0.619 2.657,-0.624 2.660,-0.628 2.664,-0.633 2.667,-0.638 2.670,-0.643 2.673,-0.647 2.676,-0.652 2.679,-0.656 2.682,-0.660 2.686,-0.665 2.689,-0.669 2.692,-0.673 2.695,-0.676 2.698,-0.680 2.701,-0.684 2.705,-0.687 2.708,-0.690 2.711,-0.693 2.714,-0.696 2.717,-0.698 2.720,-0.701 2.724,-0.703 2.727,-0.705 2.730,-0.706 2.733,-0.708 2.736,-0.709 2.739,-0.710 2.743,-0.711 2.746,-0.712 2.749,-0.712 2.752,-0.712 2.755,-0.712 2.758,-0.712 2.762,-0.711 2.765,-0.710 2.768,-0.709 2.771,-0.708 2.774,-0.707 2.777,-0.705 2.781,-0.704 2.784,-0.702 2.787,-0.700 2.790,-0.698 2.793,-0.695 2.796,-0.693 2.800,-0.690 2.803,-0.688 2.806,-0.685 2.809,-0.682 2.812,-0.679 2.815,-0.676 2.819,-0.673 2.822,-0.670 2.825,-0.667 2.828,-0.664 2.831,-0.661 2.834,-0.658 2.837,-0.656 2.841,-0.653 2.844,-0.650 2.847,-0.647 2.850,-0.645 2.853,-0.643 2.856,-0.641 2.860,-0.639 2.863,-0.637 2.866,-0.635 2.869,-0.634 2.872,-0.633 2.875,-0.632 2.879,-0.631 2.882,-0.631 2.885,-0.631 2.888,-0.631 2.891,-0.632 2.894,-0.632 2.898,-0.633 2.901,-0.635 2.904,-0.637 2.907,-0.639 2.910,-0.641 2.913,-0.644 2.917,-0.647 2.920,-0.651 2.923,-0.655 2.926,-0.659 2.929,-0.664 2.932,-0.668 2.936,-0.674 2.939,-0.679 2.942,-0.685 2.945,-0.692 2.948,-0.698 2.951,-0.705 2.955,-0.712 2.958,-0.720 2.961,-0.727 2.964,-0.735 2.967,-0.744 2.970,-0.752 2.974,-0.761 2.977,-0.769 2.980,-0.778 2.983,-0.788 2.986,-0.797 2.989,-0.806 2.992,-0.816 2.996,-0.825 2.999,-0.835 3.002,-0.844 3.005,-0.854 3.008,-0.863 3.011,-0.872 3.015,-0.882 3.018,-0.891 3.021,-0.900 3.024,-0.908 3.027,-0.917 3.030,-0.925 3.034,-0.933 3.037,-0.941 3.040,-0.948 3.043,-0.955 3.046,-0.962 3.049,-0.968 3.053,-0.974 3.056,-0.979 3.059,-0.984 3.062,-0.988 3.065,-0.991 3.068,-0.994 3.072,-0.997 3.075,-0.999 3.078,-1.000 3.081,-1.000 3.084,-1.000 3.087,-0.999 3.091,-0.997 3.094,-0.994 3.097,-0.991 3.100,-0.987 3.103,-0.982 3.106,-0.976 3.110,-0.969 3.113,-0.962 3.116,-0.953 3.119,-0.944 3.122,-0.934 3.125,-0.923 3.129,-0.911 3.132,-0.898 3.135,-0.885 3.138,-0.870 3.141,-0.855 3.144,-0.838 3.147,-0.821 3.151,-0.803 3.154,-0.784 3.157,-0.765 3.160,-0.744 3.163,-0.723 3.166,-0.701 3.170,-0.678 3.173,-0.654 3.176,-0.630 3.179,-0.605 3.182,-0.579 3.185,-0.553 3.189,-0.526 3.192,-0.498 3.195,-0.470 3.198,-0.441 3.201,-0.412 3.204,-0.382 3.208,-0.352 3.211,-0.321 3.214,-0.290 3.217,-0.259 3.220,-0.227 3.223,-0.195 3.227,-0.163 3.230,-0.131 3.233,-0.098 3.236,-0.065 3.239,-0.033" />
</g>
</svg>