<svg xmlns="http://www.w3.org/2000/svg" width="161.8" height="100.0" viewBox="-3.736 -22.809 171.803 110.000">
<g fill="none" stroke="black" stroke-width="0.0061%" transform="translate(0, 64.3816) scale(82.1908, -82.1908)">
<polyline points="0.015,0.000 0.031,0.016 0.046,0.032 0.062,0.048 0.077,0.063 0.092,0.077 0.108,0.091 0.123,0.102 0.138,0.112 0.154,0.120 0.169,0.125 0.185,0.128 0.200,0.128 0.215,0.125 0.231,0.120 0.246,0.111 0.261,0.100 0.277,0.086 0.292,0.070 0.308,0.051 0.323,0.030 0.338,0.008 0.354,-0.016 0.369,-0.040 0.384,-0.065 0.400,-0.090 0.415,-0.113 0.431,-0.136 0.446,-0.157 0.461,-0.175 0.477,-0.191 0.492,-0.204 0.508,-0.212 0.523,-0.217 0.538,-0.217 0.554,-0.212 0.569,-0.202 0.584,-0.186 0.600,-0.166 0.615,-0.140 0.631,-0.108 0.646,-0.072 0.661,-0.030 0.677,0.016 0.692,0.066 0.707,0.120 0.723,0.178 0.738,0.238 0.754,0.300 0.769,0.364 0.784,0.428 0.800,0.492 0.815,0.555 0.831,0.617 0.846,0.676 0.861,0.732 0.877,0.784 0.892,0.832 0.907,0.875 0.923,0.912 0.938,0.943 0.954,0.968 0.969,0.986 0.984,0.996 1.000,1.000 1.015,0.996 1.030,0.986 1.046,0.968 1.061,0.943 1.077,0.912 1.092,0.875 1.107,0.832 1.123,0.784 1.138,0.732 1.153,0.676 1.169,0.617 1.184,0.555 1.200,0.492 1.215,0.428 1.230,0.364 1.246,0.300 1.261,0.238 1.277,0.178 1.292,0.120 1.307,0.066 1.323,0.016 1.338,-0.030 1.353,-0.072 1.369,-0.108 1.384,-0.140 1.400,-0.166 1.415,-0.186 1.430,-0.202 1.446,-0.212 1.461,-0.217 1.476,-0.217 1.492,-0.212 1.507,-0.204 1.523,-0.191 1.538,-0.175 1.553,-0.157 1.569,-0.136 1.584,-0.113 1.600,-0.090 1.615,-0.065 1.630,-0.040 1.646,-0.016 1.661,0.008 1.676,0.030 1.692,0.051 1.707,0.070 1.723,0.086 1.738,0.100 1.753,0.111 1.769,0.120 1.784,0.125 1.799,0.128 1.815,0.128 1.830,0.125 1.846,0.120 1.861,0.112 1.876,0.102 1.892,0.091 1.907,0.077 1.922,0.063 1.938,0.048 1.953,0.032 1.969,0.016 1.984,0.000" />
</g>
</svg>