<svg xmlns="http://www.w3.org/2000/svg" width="161.8" height="100.0" viewBox="-3.736 -5.000 171.803 110.000">
<g fill="none" stroke="black" stroke-width="0.0050%" transform="translate(0, 100.0000) scale(100.0000, -100.0000)">
<polyline points="0.013,-0.000 0.025,0.000 0.038,0.001 0.051,0.002 0.063,0.004 0.076,0.006 0.088,0.008 0.101,0.011 0.114,0.015 0.126,0.019 0.139,0.023 0.152,0.029 0.164,0.035 0.177,0.042 0.190,0.049 0.202,0.057 0.215,0.066 0.228,0.076 0.240,0.087 0.253,0.099 0.265,0.112 0.278,0.125 0.291,0.140 0.303,0.155 0.316,0.172 0.329,0.190 0.341,0.208 0.354,0.228 0.367,0.249 0.379,0.270 0.392,0.293 0.405,0.316 0.417,0.340 0.430,0.365 0.442,0.391 0.455,0.417 0.468,0.444 0.480,0.471 0.493,0.499 0.506,0.527 0.518,0.555 0.531,0.583 0.544,0.611 0.556,0.639 0.569,0.667 0.581,0.695 0.594,0.722 0.607,0.748 0.619,0.774 0.632,0.798 0.645,0.822 0.657,0.845 0.670,0.866 0.683,0.887 0.695,0.905 0.708,0.923 0.721,0.939 0.733,0.953 0.746,0.965 0.758,0.976 0.771,0.984 0.784,0.991 0.796,0.996 0.809,0.999 0.822,1.000 0.834,0.999 0.847,0.996 0.860,0.991 0.872,0.984 0.885,0.976 0.898,0.965 0.910,0.953 0.923,0.939 0.935,0.923 0.948,0.905 0.961,0.887 0.973,0.866 0.986,0.845 0.999,0.822 1.011,0.798 1.024,0.774 1.037,0.748 1.049,0.722 1.062,0.695 1.074,0.667 1.087,0.639 1.100,0.611 1.112,0.583 1.125,0.555 1.138,0.527 1.150,0.499 1.163,0.471 1.176,0.444 1.188,0.417 1.201,0.391 1.214,0.365 1.226,0.340 1.239,0.316 1.251,0.293 1.264,0.270 1.277,0.249 1.289,0.228 1.302,0.208 1.315,0.190 1.327,0.172 1.340,0.155 1.353,0.140 1.365,0.125 1.378,0.112 1.390,0.099 1.403,0.087 1.416,0.076 1.428,0.066 1.441,0.057 1.454,0.049 1.466,0.042 1.479,0.035 1.492,0.029 1.504,0.023 1.517,0.019 1.530,0.015 1.542,0.011 1.555,0.008 1.567,0.006 1.580,0.004 1.593,0.002 1.605,0.001 1.618,0.000 1.631,-0.000" />
</g>
</svg>