<svg xmlns="http://www.w3.org/2000/svg" width="161.8" height="100.0" viewBox="-3.736 -4.994 171.803 110.000">
<g fill="none" stroke="black" stroke-width="0.0050%" transform="translate(0, 100.0120) scale(100.0060, -100.0060)">
<polyline points="0.013,0.000 0.025,0.000 0.038,0.000 0.051,0.000 0.063,0.001 0.076,0.001 0.088,0.002 0.101,0.002 0.114,0.003 0.126,0.004 0.139,0.005 0.152,0.007 0.164,0.009 0.177,0.011 0.190,0.014 0.202,0.018 0.215,0.022 0.228,0.026 0.240,0.032 0.253,0.038 0.265,0.045 0.278,0.053 0.291,0.062 0.303,0.072 0.316,0.083 0.329,0.095 0.341,0.109 0.354,0.123 0.367,0.139 0.379,0.157 0.392,0.176 0.404,0.196 0.417,0.217 0.430,0.240 0.442,0.265 0.455,0.290 0.468,0.317 0.480,0.345 0.493,0.374 0.506,0.404 0.518,0.435 0.531,0.467 0.544,0.499 0.556,0.532 0.569,0.565 0.581,0.598 0.594,0.631 0.607,0.663 0.619,0.696 0.632,0.727 0.645,0.758 0.657,0.788 0.670,0.817 0.683,0.844 0.695,0.869 0.708,0.893 0.720,0.914 0.733,0.934 0.746,0.951 0.758,0.966 0.771,0.978 0.784,0.988 0.796,0.994 0.809,0.999 0.822,1.000 0.834,0.999 0.847,0.994 0.860,0.988 0.872,0.978 0.885,0.966 0.897,0.951 0.910,0.934 0.923,0.914 0.935,0.893 0.948,0.869 0.961,0.844 0.973,0.817 0.986,0.788 0.999,0.758 1.011,0.727 1.024,0.696 1.036,0.663 1.049,0.631 1.062,0.598 1.074,0.565 1.087,0.532 1.100,0.499 1.112,0.467 1.125,0.435 1.138,0.404 1.150,0.374 1.163,0.345 1.176,0.317 1.188,0.290 1.201,0.265 1.213,0.240 1.226,0.217 1.239,0.196 1.251,0.176 1.264,0.157 1.277,0.139 1.289,0.123 1.302,0.109 1.315,0.095 1.327,0.083 1.340,0.072 1.352,0.062 1.365,0.053 1.378,0.045 1.390,0.038 1.403,0.032 1.416,0.026 1.428,0.022 1.441,0.018 1.454,0.014 1.466,0.011 1.479,0.009 1.492,0.007 1.504,0.005 1.517,0.004 1.529,0.003 1.542,0.002 1.555,0.002 1.567,0.001 1.580,0.001 1.593,0.000 1.605,0.000 1.618,0.000 1.631,0.000" />
</g>
</svg>