<svg xmlns="http://www.w3.org/2000/svg" width="161.8" height="100.0" viewBox="-3.736 -5.000 171.803 110.000">
<g fill="none" stroke="black" stroke-width="0.0050%" transform="translate(0, 100.0000) scale(100.0000, -100.0000)">
<circle cx="0.013" cy="0.000" r="0.005" />
<polyline points="0.013,0.000 0.025,0.001 0.038,0.002 0.051,0.005 0.063,0.010 0.076,0.015 0.088,0.022 0.101,0.029 0.114,0.038 0.126,0.048 0.139,0.059 0.152,0.071 0.164,0.084 0.177,0.098 0.190,0.113 0.202,0.130 0.215,0.146 0.228,0.164 0.240,0.183 0.253,0.202 0.265,0.222 0.278,0.243 0.291,0.264 0.303,0.286 0.316,0.309 0.329,0.332 0.341,0.355 0.354,0.379 0.367,0.402 0.379,0.427 0.392,0.451 0.405,0.475 0.417,0.500 0.430,0.525 0.442,0.549 0.455,0.573 0.468,0.598 0.480,0.621 0.493,0.645 0.506,0.668 0.518,0.691 0.531,0.714 0.544,0.736 0.556,0.757 0.569,0.778 0.581,0.798 0.594,0.817 0.607,0.836 0.619,0.854 0.632,0.870 0.645,0.887 0.657,0.902 0.670,0.916 0.683,0.929 0.695,0.941 0.708,0.952 0.721,0.962 0.733,0.971 0.746,0.978 0.758,0.985 0.771,0.990 0.784,0.995 0.796,0.998 0.809,0.999 0.822,1.000 0.834,0.999 0.847,0.998 0.860,0.995 0.872,0.990 0.885,0.985 0.898,0.978 0.910,0.971 0.923,0.962 0.935,0.952 0.948,0.941 0.961,0.929 0.973,0.916 0.986,0.902 0.999,0.887 1.011,0.870 1.024,0.854 1.037,0.836 1.049,0.817 1.062,0.798 1.074,0.778 1.087,0.757 1.100,0.736 1.112,0.714 1.125,0.691 1.138,0.668 1.150,0.645 1.163,0.621 1.176,0.598 1.188,0.573 1.201,0.549 1.214,0.525 1.226,0.500 1.239,0.475 1.251,0.451 1.264,0.427 1.277,0.402 1.289,0.379 1.302,0.355 1.315,0.332 1.327,0.309 1.340,0.286 1.353,0.264 1.365,0.243 1.378,0.222 1.390,0.202 1.403,0.183 1.416,0.164 1.428,0.146 1.441,0.130 1.454,0.113 1.466,0.098 1.479,0.084 1.492,0.071 1.504,0.059 1.517,0.048 1.530,0.038 1.542,0.029 1.555,0.022 1.567,0.015 1.580,0.010 1.593,0.005 1.605,0.002 1.618,0.001 1.631,0.000" />
</g>
</svg>