<svg xmlns="http://www.w3.org/2000/svg" width="161.8" height="100.0" viewBox="-3.736 4.524 171.803 110.000">
<g fill="none" stroke="black" stroke-width="0.0046%" transform="translate(0, 119.0476) scale(109.5238, -109.5238)">
<polyline points="0.012,0.087 0.023,0.088 0.035,0.089 0.046,0.092 0.058,0.096 0.069,0.101 0.081,0.107 0.092,0.114 0.104,0.122 0.115,0.131 0.127,0.141 0.139,0.152 0.150,0.164 0.162,0.177 0.173,0.191 0.185,0.205 0.196,0.221 0.208,0.237 0.219,0.254 0.231,0.272 0.242,0.290 0.254,0.309 0.265,0.328 0.277,0.348 0.289,0.369 0.300,0.390 0.312,0.411 0.323,0.433 0.335,0.454 0.346,0.476 0.358,0.499 0.369,0.521 0.381,0.543 0.392,0.566 0.404,0.588 0.416,0.610 0.427,0.633 0.439,0.654 0.450,0.676 0.462,0.697 0.473,0.718 0.485,0.739 0.496,0.759 0.508,0.778 0.519,0.797 0.531,0.815 0.542,0.833 0.554,0.850 0.566,0.866 0.577,0.882 0.589,0.896 0.600,0.910 0.612,0.923 0.623,0.935 0.635,0.946 0.646,0.956 0.658,0.965 0.669,0.973 0.681,0.980 0.693,0.986 0.704,0.991 0.716,0.995 0.727,0.998 0.739,0.999 0.750,1.000 0.762,0.999 0.773,0.998 0.785,0.995 0.796,0.991 0.808,0.986 0.819,0.980 0.831,0.973 0.843,0.965 0.854,0.956 0.866,0.946 0.877,0.935 0.889,0.923 0.900,0.910 0.912,0.896 0.923,0.882 0.935,0.866 0.946,0.850 0.958,0.833 0.970,0.815 0.981,0.797 0.993,0.778 1.004,0.759 1.016,0.739 1.027,0.718 1.039,0.697 1.050,0.676 1.062,0.654 1.073,0.633 1.085,0.610 1.096,0.588 1.108,0.566 1.120,0.543 1.131,0.521 1.143,0.499 1.154,0.476 1.166,0.454 1.177,0.433 1.189,0.411 1.200,0.390 1.212,0.369 1.223,0.348 1.235,0.328 1.247,0.309 1.258,0.290 1.270,0.272 1.281,0.254 1.293,0.237 1.304,0.221 1.316,0.205 1.327,0.191 1.339,0.177 1.350,0.164 1.362,0.152 1.373,0.141 1.385,0.131 1.397,0.122 1.408,0.114 1.420,0.107 1.431,0.101 1.443,0.096 1.454,0.092 1.466,0.089 1.477,0.088 1.489,0.087" />
</g>
</svg>