<svg xmlns="http://www.w3.org/2000/svg" width="161.8" height="100.0" viewBox="-3 -5 172 110">
<g fill="none" stroke="black" stroke-width="18.6250%" transform="translate(0, 100.0000) scale(0.0268, -0.0268)">
<polyline points="60,0 121,0 121,1 181,1 181,2 241,2 241,5 301,5 301,7 362,7 362,12 422,12 422,15 482,15 482,22 542,22 542,26 603,26 603,35 663,35 663,40 723,40 723,51 784,51 784,57 844,57 844,70 904,70 904,77 964,77 964,92 1025,92 1025,100 1085,100 1085,117 1145,117 1145,126 1205,126 1205,145 1266,145 1266,155 1326,155 1326,176 1386,176 1386,187 1447,187 1447,210 1507,210 1507,222 1567,222 1567,247 1627,247 1627,260 1688,260 1688,287 1748,287 1748,301 1808,301 1808,330 1868,330 1868,345 1929,345 1929,376 1989,376 1989,392 2049,392 2049,425 2110,425 2110,442 2170,442 2170,477 2230,477 2230,495 2290,495 2290,532 2351,532 2351,551 2411,551 2411,590 2471,590 2471,610 2531,610 2531,651 2592,651 2592,672 2652,672 2652,715 2712,715 2712,737 2773,737 2773,782 2833,782 2833,805 2893,805 2893,852 2953,852 2953,876 3014,876 3014,925 3074,925 3074,950 3134,950 3134,1001 3194,1001 3194,1027 3255,1027 3255,1080 3315,1080 3315,1107 3375,1107 3375,1162 3435,1162 3435,1190 3496,1190 3496,1247 3556,1247 3556,1276 3616,1276 3616,1335 3677,1335 3677,1365 3737,1365 3737,1426 3797,1426 3797,1457 3857,1457 3857,1520 3918,1520 3918,1552 3978,1552 3978,1617 4038,1617 4038,1650 4098,1650 4098,1717 4159,1717 4159,1751 4219,1751 4219,1820 4279,1820 4279,1855 4340,1855 4340,1926 4400,1926 4400,1962 4460,1962 4460,2035 4520,2035 4520,2072 4581,2072 4581,2147 4641,2147 4641,2185 4701,2185 4701,2262 4761,2262 4761,2301 4822,2301 4822,2380 4882,2380 4882,2420 4942,2420 4942,2501 5003,2501 5003,2542 5063,2542 5063,2625 5123,2625 5123,2667 5183,2667 5183,2752 5244,2752 5244,2795 5304,2795 5304,2882 5364,2882 5364,2926 5424,2926 5424,3015 5485,3015 5485,3060 5545,3060 5545,3151 5605,3151 5605,3197 5666,3197 5666,3290 5726,3290 5726,3337 5786,3337 5786,3432 5846,3432 5846,3480 5907,3480 5907,3577 5967,3577 5967,3626 6027,3626 6027,3725 6087,3725" />
</g>
</svg>