<svg xmlns="http://www.w3.org/2000/svg" width="100.0" height="100.0" viewBox="-55.000 -55.000 110.000 110.000">
<g fill="none" stroke="black" stroke-width="0.0100%" transform="translate(0, 0.0000) scale(50.0000, -50.0000)">
<polyline points="0.240,-0.971 0.248,-0.968 0.280,-0.960 0.280,-0.960 0.280,-0.960 0.280,-0.960 0.310,-0.950 0.320,-0.947 0.340,-0.940 0.340,-0.940 0.360,-0.933 0.369,-0.929 0.392,-0.920 0.398,-0.917 0.400,-0.916 0.407,-0.913 0.425,-0.905 0.440,-0.898 0.452,-0.892 0.475,-0.880 0.478,-0.878 0.480,-0.877 0.487,-0.873 0.504,-0.864 0.520,-0.854 0.529,-0.849 0.542,-0.840 0.553,-0.833 0.560,-0.828 0.577,-0.817 0.600,-0.800 0.622,-0.782 0.640,-0.768 0.644,-0.764 0.650,-0.760 0.666,-0.746 0.680,-0.733 0.687,-0.727 0.694,-0.720 0.707,-0.707 0.720,-0.694 0.727,-0.687 0.733,-0.680 0.746,-0.666 0.760,-0.650 0.764,-0.644 0.768,-0.640 0.782,-0.622 0.800,-0.600 0.800,-0.600 0.800,-0.600 0.817,-0.577 0.828,-0.560 0.833,-0.553 0.840,-0.542 0.849,-0.529 0.854,-0.520 0.864,-0.504 0.873,-0.487 0.877,-0.480 0.878,-0.478 0.880,-0.475 0.892,-0.452 0.898,-0.440 0.905,-0.425 0.913,-0.407 0.916,-0.400 0.918,-0.397 0.920,-0.392 0.929,-0.369 0.933,-0.360 0.940,-0.340 0.947,-0.320 0.950,-0.310 0.960,-0.280 0.960,-0.280 0.960,-0.280 0.968,-0.248 0.971,-0.240 0.974,-0.226 0.976,-0.216 0.980,-0.200 0.983,-0.183 0.984,-0.176 0.987,-0.160 0.989,-0.149 0.991,-0.129 0.993,-0.120 0.993,-0.113 0.996,-0.084 0.997,-0.080 0.997,-0.077 0.999,-0.041 0.999,-0.040 0.999,-0.039 1.000,0.000 0.999,0.039 0.999,0.040 0.999,0.041 0.997,0.077 0.997,0.080 0.996,0.084 0.993,0.113 0.993,0.120 0.991,0.129 0.989,0.149 0.987,0.160 0.984,0.176 0.983,0.183 0.980,0.200 0.976,0.216 0.974,0.226 0.971,0.240 0.968,0.248 0.960,0.280 0.960,0.280 0.960,0.280 0.960,0.280 0.950,0.310 0.947,0.320 0.940,0.340 0.933,0.360 0.929,0.369 0.920,0.392 0.918,0.397 0.916,0.400 0.913,0.407 0.905,0.425 0.898,0.440 0.892,0.452 0.880,0.475 0.878,0.478 0.877,0.480 0.873,0.487 0.864,0.504 0.854,0.520 0.849,0.529 0.840,0.542 0.833,0.553 0.828,0.560 0.817,0.577 0.800,0.600 0.800,0.600 0.800,0.600 0.800,0.600 0.782,0.622 0.768,0.640 0.764,0.644 0.760,0.650 0.746,0.666 0.733,0.680 0.727,0.687 0.720,0.694 0.707,0.707 0.694,0.720 0.687,0.727 0.680,0.733 0.666,0.746 0.650,0.760 0.644,0.764 0.640,0.768 0.622,0.782 0.600,0.800 0.600,0.800 0.600,0.800 0.577,0.817 0.560,0.828 0.553,0.833 0.542,0.840 0.529,0.849 0.520,0.854 0.504,0.864 0.487,0.873 0.480,0.877 0.478,0.878 0.475,0.880 0.452,0.892 0.440,0.898 0.425,0.905 0.407,0.913 0.400,0.916 0.397,0.918 0.392,0.920 0.369,0.929 0.360,0.933 0.340,0.940 0.340,0.940 0.320,0.947 0.310,0.950 0.280,0.960 0.280,0.960 0.280,0.960 0.248,0.968 0.240,0.971 0.226,0.974 0.216,0.976 0.200,0.980 0.183,0.983 0.176,0.984 0.160,0.987 0.149,0.989 0.129,0.991 0.120,0.993 0.113,0.993 0.084,0.996 0.080,0.997 0.077,0.997 0.041,0.999 0.040,0.999 0.039,0.999 0.000,1.000 -0.039,0.999 -0.040,0.999 -0.041,0.999 -0.077,0.997 -0.080,0.997 -0.084,0.996 -0.113,0.993 -0.120,0.993 -0.129,0.991 -0.149,0.989 -0.160,0.987 -0.176,0.984 -0.183,0.983 -0.200,0.980 -0.216,0.976 -0.226,0.974 -0.240,0.971 -0.248,0.968 -0.280,0.960 -0.280,0.960 -0.310,0.950 -0.320,0.947 -0.340,0.940 -0.340,0.940 -0.360,0.933 -0.369,0.929 -0.392,0.920 -0.397,0.918 -0.400,0.916 -0.407,0.913 -0.425,0.905 -0.440,0.898 -0.452,0.892 -0.475,0.880 -0.478,0.878 -0.480,0.877 -0.487,0.873 -0.504,0.864 -0.520,0.854 -0.529,0.849 -0.542,0.840 -0.553,0.833 -0.560,0.828 -0.577,0.817 -0.600,0.800 -0.600,0.800 -0.622,0.782 -0.640,0.768 -0.644,0.764 -0.650,0.760 -0.666,0.746 -0.680,0.733 -0.687,0.727 -0.694,0.720 -0.707,0.707 -0.720,0.694 -0.727,0.687 -0.733,0.680 -0.746,0.666 -0.760,0.650 -0.764,0.644 -0.768,0.640 -0.782,0.622 -0.800,0.600 -0.817,0.577 -0.828,0.560 -0.833,0.553 -0.840,0.542 -0.849,0.529 -0.854,0.520 -0.864,0.504 -0.873,0.487 -0.877,0.480 -0.878,0.478 -0.880,0.475 -0.892,0.452 -0.898,0.440 -0.905,0.425 -0.913,0.407 -0.916,0.400 -0.917,0.398 -0.920,0.392 -0.929,0.369 -0.933,0.360 -0.940,0.340 -0.947,0.320 -0.950,0.310 -0.960,0.280 -0.960,0.280 -0.968,0.248 -0.971,0.240 -0.974,0.226 -0.976,0.216 -0.980,0.200 -0.983,0.183 -0.984,0.176 -0.987,0.160 -0.989,0.149 -0.991,0.129 -0.993,0.120 -0.993,0.113 -0.996,0.084 -0.997,0.080 -0.997,0.077 -0.999,0.041 -0.999,0.040 -0.999,0.039 -1.000,0.000 -0.999,-0.039 -0.999,-0.040 -0.999,-0.041 -0.997,-0.077 -0.997,-0.080 -0.996,-0.084 -0.993,-0.113 -0.993,-0.120 -0.991,-0.129 -0.989,-0.149 -0.987,-0.160 -0.984,-0.176 -0.983,-0.183 -0.980,-0.200 -0.976,-0.216 -0.974,-0.226 -0.971,-0.240 -0.968,-0.248 -0.960,-0.280 -0.960,-0.280 -0.960,-0.280 -0.960,-0.280 -0.950,-0.310 -0.947,-0.320 -0.940,-0.340 -0.933,-0.360 -0.929,-0.369 -0.920,-0.392 -0.918,-0.397 -0.916,-0.400 -0.913,-0.407 -0.905,-0.425 -0.898,-0.440 -0.892,-0.452 -0.880,-0.475 -0.878,-0.478 -0.877,-0.480 -0.873,-0.487 -0.864,-0.504 -0.854,-0.520 -0.849,-0.529 -0.840,-0.542 -0.833,-0.553 -0.828,-0.560 -0.817,-0.577 -0.800,-0.600 -0.800,-0.600 -0.800,-0.600 -0.800,-0.600 -0.782,-0.622 -0.768,-0.640 -0.764,-0.644 -0.760,-0.650 -0.746,-0.666 -0.733,-0.680 -0.727,-0.687 -0.720,-0.694 -0.707,-0.707 -0.694,-0.720 -0.687,-0.727 -0.680,-0.733 -0.666,-0.746 -0.650,-0.760 -0.644,-0.764 -0.640,-0.768 -0.622,-0.782 -0.600,-0.800 -0.600,-0.800 -0.600,-0.800 -0.577,-0.817 -0.560,-0.828 -0.553,-0.833 -0.542,-0.840 -0.529,-0.849 -0.520,-0.854 -0.504,-0.864 -0.487,-0.873 -0.480,-0.877 -0.478,-0.878 -0.475,-0.880 -0.452,-0.892 -0.440,-0.898 -0.425,-0.905 -0.407,-0.913 -0.400,-0.916 -0.397,-0.918 -0.392,-0.920 -0.369,-0.929 -0.360,-0.933 -0.340,-0.940 -0.340,-0.940 -0.320,-0.947 -0.310,-0.950 -0.280,-0.960 -0.280,-0.960 -0.280,-0.960 -0.248,-0.968 -0.240,-0.971 -0.226,-0.974 -0.216,-0.976 -0.200,-0.980 -0.183,-0.983 -0.176,-0.984 -0.160,-0.987 -0.149,-0.989 -0.129,-0.991 -0.120,-0.993 -0.113,-0.993 -0.084,-0.996 -0.080,-0.997 -0.077,-0.997 -0.041,-0.999 -0.040,-0.999 -0.039,-0.999 0.000,-1.000 0.039,-0.999 0.040,-0.999 0.041,-0.999 0.077,-0.997 0.080,-0.997 0.084,-0.996 0.113,-0.993 0.120,-0.993 0.129,-0.991 0.149,-0.989 0.160,-0.987 0.176,-0.984 0.183,-0.983 0.200,-0.980 0.216,-0.976 0.226,-0.974 0.240,-0.971" />
<polyline points="-0.280,0.960 -0.280,0.960 -0.280,0.960" />
<line x1="0.280" y1="0.960" x2="0.280" y2="0.960" />
<polyline points="-0.600,0.800 -0.600,0.800 -0.600,0.800" />
<line x1="0.600" y1="0.800" x2="0.600" y2="0.800" />
<line x1="-0.940" y1="0.340" x2="-0.940" y2="0.340" />
<line x1="0.940" y1="0.340" x2="0.940" y2="0.340" />
<polyline points="-0.960,0.280 -0.960,0.280 -0.960,0.280" />
<line x1="0.960" y1="-0.280" x2="0.960" y2="-0.280" />
<line x1="-0.940" y1="-0.340" x2="-0.940" y2="-0.340" />
<line x1="0.940" y1="-0.340" x2="0.940" y2="-0.340" />
<line x1="0.800" y1="-0.600" x2="0.800" y2="-0.600" />
<line x1="-0.600" y1="-0.800" x2="-0.600" y2="-0.800" />
<line x1="-0.280" y1="-0.960" x2="-0.280" y2="-0.960" />
</g>
</svg>