<svg xmlns="http://www.w3.org/2000/svg" width="98.3" height="100.0" viewBox="-1.36 -58.31 108.29 110.00">
<g fill="none" stroke="black" stroke-width="0.1373%" transform="translate(0, -6.6205) scale(3.6404, -3.6404)">
<circle cx="1.00" cy="0.00" r="0.14" />
<circle cx="2.00" cy="0.52" r="0.14" />
<circle cx="3.00" cy="-0.52" r="0.14" />
<circle cx="4.00" cy="0.00" r="0.14" />
<circle cx="5.00" cy="0.52" r="0.14" />
<circle cx="6.00" cy="0.00" r="0.14" />
<circle cx="7.00" cy="-0.90" r="0.14" />
<circle cx="8.00" cy="0.00" r="0.14" />
<circle cx="9.00" cy="1.60" r="0.14" />
<circle cx="10.00" cy="0.00" r="0.14" />
<circle cx="11.00" cy="-2.55" r="0.14" />
<circle cx="12.00" cy="0.00" r="0.14" />
<circle cx="13.00" cy="3.68" r="0.14" />
<circle cx="14.00" cy="0.00" r="0.14" />
<circle cx="15.00" cy="-4.94" r="0.14" />
<circle cx="16.00" cy="0.00" r="0.14" />
<circle cx="17.00" cy="6.33" r="0.14" />
<circle cx="18.00" cy="0.00" r="0.14" />
<circle cx="19.00" cy="-7.82" r="0.14" />
<circle cx="20.00" cy="0.00" r="0.14" />
<circle cx="21.00" cy="9.41" r="0.14" />
<circle cx="22.00" cy="0.00" r="0.14" />
<circle cx="23.00" cy="-11.08" r="0.14" />
<circle cx="24.00" cy="0.00" r="0.14" />
<circle cx="25.00" cy="12.83" r="0.14" />
<circle cx="26.00" cy="0.00" r="0.14" />
<circle cx="27.00" cy="-14.64" r="0.14" />
<circle cx="28.00" cy="0.00" r="0.14" />
</g>
</svg>