<svg xmlns="http://www.w3.org/2000/svg" width="103.2" height="100.0" viewBox="-51.957 -41.655 113.210 110.000">
<g fill="none" stroke="black" stroke-width="0.0131%" transform="translate(0, 26.6891) scale(38.2446, -38.2446)">
<polyline points="0.000,1.656 0.037,1.656 0.074,1.654 0.111,1.652 0.148,1.649 0.184,1.645 0.221,1.640 0.257,1.634 0.293,1.627 0.330,1.620 0.365,1.611 0.401,1.602 0.436,1.592 0.471,1.580 0.506,1.568 0.541,1.556 0.575,1.542 0.608,1.527 0.642,1.512 0.675,1.496 0.707,1.479 0.739,1.462 0.771,1.443 0.802,1.424 0.832,1.404 0.862,1.384 0.891,1.362 0.920,1.340 0.949,1.318 0.976,1.294 1.003,1.270 1.030,1.246 1.055,1.221 1.080,1.195 1.105,1.168 1.128,1.142 1.151,1.114 1.174,1.086 1.195,1.058 1.216,1.029 1.236,1.000 1.255,0.970 1.273,0.940 1.291,0.910 1.308,0.879 1.324,0.848 1.339,0.816 1.354,0.784 1.367,0.752 1.380,0.720 1.392,0.688 1.403,0.655 1.413,0.622 1.423,0.589 1.431,0.556 1.439,0.523 1.446,0.490 1.452,0.456 1.457,0.423 1.462,0.389 1.465,0.356 1.468,0.323 1.470,0.289 1.471,0.256 1.471,0.223 1.470,0.190 1.469,0.157 1.467,0.125 1.464,0.092 1.460,0.060 1.455,0.028 1.450,-0.004 1.444,-0.035 1.437,-0.067 1.429,-0.098 1.421,-0.128 1.412,-0.158 1.402,-0.188 1.391,-0.218 1.380,-0.247 1.369,-0.276 1.356,-0.304 1.343,-0.332 1.329,-0.359 1.315,-0.386 1.300,-0.412 1.284,-0.438 1.268,-0.463 1.252,-0.488 1.235,-0.512 1.217,-0.536 1.199,-0.559 1.180,-0.581 1.161,-0.603 1.142,-0.624 1.122,-0.645 1.102,-0.665 1.081,-0.684 1.060,-0.703 1.039,-0.721 1.017,-0.739 0.995,-0.755 0.973,-0.771 0.951,-0.787 0.928,-0.802 0.905,-0.816 0.882,-0.829 0.859,-0.842 0.836,-0.854 0.812,-0.866 0.788,-0.876 0.765,-0.886 0.741,-0.896 0.717,-0.905 0.693,-0.913 0.669,-0.920 0.646,-0.927 0.622,-0.933 0.598,-0.938 0.574,-0.943 0.550,-0.947 0.527,-0.950 0.504,-0.953 0.480,-0.955 0.457,-0.957 0.434,-0.958 0.411,-0.958 0.389,-0.958 0.367,-0.957 0.344,-0.956 0.323,-0.954 0.301,-0.952 0.280,-0.949 0.259,-0.945 0.238,-0.941 0.218,-0.937 0.198,-0.932 0.178,-0.927 0.159,-0.921 0.140,-0.914 0.121,-0.908 0.103,-0.900 0.085,-0.893 0.068,-0.885 0.051,-0.877 0.034,-0.868 0.018,-0.859 0.003,-0.850 -0.012,-0.840 -0.027,-0.830 -0.041,-0.820 -0.055,-0.810 -0.068,-0.799 -0.081,-0.789 -0.094,-0.778 -0.106,-0.766 -0.117,-0.755 -0.128,-0.744 -0.138,-0.732 -0.148,-0.720 -0.158,-0.709 -0.167,-0.697 -0.175,-0.685 -0.183,-0.673 -0.191,-0.661 -0.198,-0.649 -0.204,-0.637 -0.211,-0.625 -0.216,-0.613 -0.222,-0.601 -0.226,-0.589 -0.231,-0.578 -0.234,-0.566 -0.238,-0.554 -0.241,-0.543 -0.244,-0.532 -0.246,-0.521 -0.248,-0.510 -0.249,-0.499 -0.250,-0.489 -0.251,-0.478 -0.251,-0.468 -0.251,-0.458 -0.251,-0.449 -0.250,-0.439 -0.249,-0.430 -0.248,-0.421 -0.246,-0.413 -0.244,-0.405 -0.242,-0.397 -0.240,-0.389 -0.237,-0.382 -0.235,-0.375 -0.232,-0.368 -0.228,-0.362 -0.225,-0.356 -0.222,-0.350 -0.218,-0.345 -0.214,-0.340 -0.210,-0.336 -0.206,-0.331 -0.202,-0.328 -0.198,-0.324 -0.194,-0.321 -0.189,-0.318 -0.185,-0.316 -0.181,-0.314 -0.177,-0.312 -0.172,-0.311 -0.168,-0.310 -0.164,-0.310 -0.160,-0.309 -0.156,-0.309 -0.152,-0.310 -0.148,-0.311 -0.144,-0.312 -0.141,-0.314 -0.137,-0.315 -0.134,-0.318 -0.131,-0.320 -0.128,-0.323 -0.125,-0.326 -0.123,-0.329 -0.121,-0.333 -0.119,-0.337 -0.117,-0.341 -0.116,-0.346 -0.115,-0.350 -0.114,-0.355 -0.113,-0.360 -0.113,-0.366 -0.113,-0.371 -0.113,-0.377 -0.114,-0.383 -0.115,-0.389 -0.116,-0.395 -0.118,-0.401 -0.120,-0.408 -0.123,-0.414 -0.126,-0.421 -0.129,-0.428 -0.132,-0.434 -0.136,-0.441 -0.141,-0.448 -0.146,-0.455 -0.151,-0.462 -0.156,-0.468 -0.162,-0.475 -0.169,-0.482 -0.176,-0.488 -0.183,-0.495 -0.191,-0.501 -0.199,-0.508 -0.207,-0.514 -0.216,-0.520 -0.225,-0.526 -0.235,-0.532 -0.245,-0.537 -0.255,-0.542 -0.266,-0.548 -0.277,-0.552 -0.289,-0.557 -0.300,-0.561 -0.313,-0.565 -0.325,-0.569 -0.338,-0.573 -0.351,-0.576 -0.365,-0.578 -0.379,-0.581 -0.393,-0.583 -0.407,-0.584 -0.422,-0.586 -0.437,-0.587 -0.452,-0.587 -0.468,-0.587 -0.484,-0.586 -0.500,-0.586 -0.516,-0.584 -0.532,-0.582 -0.549,-0.580 -0.565,-0.577 -0.582,-0.574 -0.599,-0.570 -0.616,-0.566 -0.633,-0.561 -0.650,-0.555 -0.668,-0.550 -0.685,-0.543 -0.703,-0.536 -0.720,-0.528 -0.737,-0.520 -0.755,-0.512 -0.772,-0.502 -0.789,-0.493 -0.806,-0.482 -0.824,-0.471 -0.841,-0.460 -0.857,-0.448 -0.874,-0.435 -0.891,-0.422 -0.907,-0.408 -0.923,-0.393 -0.939,-0.379 -0.955,-0.363 -0.970,-0.347 -0.985,-0.330 -1.000,-0.313 -1.015,-0.296 -1.029,-0.277 -1.043,-0.259 -1.056,-0.239 -1.069,-0.220 -1.082,-0.199 -1.094,-0.179 -1.106,-0.157 -1.118,-0.136 -1.129,-0.113 -1.139,-0.091 -1.149,-0.068 -1.158,-0.044 -1.167,-0.020 -1.175,0.004 -1.183,0.029 -1.190,0.054 -1.197,0.079 -1.203,0.105 -1.208,0.131 -1.213,0.157 -1.217,0.184 -1.221,0.211 -1.223,0.238 -1.226,0.266 -1.227,0.293 -1.228,0.321 -1.228,0.349 -1.227,0.377 -1.226,0.406 -1.224,0.434 -1.221,0.463 -1.217,0.492 -1.213,0.520 -1.208,0.549 -1.202,0.578 -1.195,0.607 -1.188,0.636 -1.180,0.664 -1.171,0.693 -1.162,0.722 -1.151,0.750 -1.140,0.779 -1.128,0.807 -1.116,0.835 -1.102,0.863 -1.088,0.890 -1.073,0.918 -1.057,0.945 -1.041,0.972 -1.024,0.998 -1.006,1.025 -0.987,1.051 -0.968,1.076 -0.948,1.101 -0.927,1.126 -0.906,1.150 -0.884,1.174 -0.861,1.198 -0.837,1.221 -0.813,1.243 -0.788,1.265 -0.763,1.286 -0.737,1.307 -0.710,1.328 -0.683,1.347 -0.656,1.366 -0.627,1.385 -0.598,1.402 -0.569,1.419 -0.539,1.436 -0.509,1.451 -0.478,1.466 -0.447,1.481 -0.415,1.494 -0.383,1.507 -0.350,1.519 -0.318,1.530 -0.284,1.541 -0.251,1.550 -0.217,1.559 -0.183,1.567 -0.148,1.574 -0.114,1.581 -0.079,1.586 -0.044,1.591 -0.008,1.595 0.027,1.598 0.063,1.600 0.098,1.601 0.134,1.601 0.170,1.601" />
</g>
</svg>