<svg xmlns="http://www.w3.org/2000/svg" width="99.9" height="100.0" viewBox="-54.991 -54.981 109.878 110.000">
<g fill="none" stroke="black" stroke-width="0.0139%" transform="translate(0, 0.0382) scale(36.0602, -36.0602)">
<polyline points="0.000,1.387 0.140,1.376 0.275,1.343 0.402,1.290 0.516,1.219 0.615,1.133 0.695,1.035 0.756,0.931 0.796,0.824 0.816,0.718 0.817,0.618 0.802,0.528 0.773,0.450 0.733,0.387 0.688,0.341 0.640,0.312 0.594,0.300 0.555,0.304 0.525,0.321 0.507,0.348 0.505,0.383 0.518,0.421 0.549,0.457 0.595,0.489 0.657,0.511 0.731,0.520 0.814,0.514 0.903,0.491 0.993,0.448 1.081,0.385 1.162,0.304 1.232,0.205 1.287,0.091 1.324,-0.034 1.342,-0.168 1.337,-0.305 1.311,-0.442 1.263,-0.574 1.194,-0.697 1.108,-0.806 1.007,-0.899 0.895,-0.973 0.776,-1.027 0.654,-1.059 0.534,-1.071 0.420,-1.063 0.316,-1.037 0.225,-0.997 0.150,-0.946 0.091,-0.887 0.051,-0.825 0.028,-0.765 0.022,-0.710 0.031,-0.664 0.051,-0.629 0.079,-0.610 0.111,-0.606 0.143,-0.618 0.172,-0.647 0.193,-0.690 0.202,-0.746 0.196,-0.811 0.174,-0.883 0.134,-0.956 0.075,-1.027 -0.002,-1.092 -0.096,-1.146 -0.204,-1.186 -0.323,-1.208 -0.450,-1.211 -0.580,-1.193 -0.708,-1.153 -0.832,-1.092 -0.945,-1.011 -1.045,-0.912 -1.128,-0.799 -1.192,-0.675 -1.234,-0.545 -1.255,-0.412 -1.254,-0.281 -1.233,-0.157 -1.194,-0.044 -1.139,0.056 -1.073,0.140 -0.999,0.206 -0.921,0.253 -0.843,0.281 -0.771,0.292 -0.707,0.287 -0.655,0.270 -0.617,0.243 -0.594,0.211 -0.588,0.177 -0.599,0.146 -0.624,0.122 -0.662,0.108 -0.710,0.108 -0.765,0.123 -0.823,0.155 -0.879,0.206 -0.929,0.273 -0.969,0.357 -0.996,0.454 -1.006,0.562 -0.997,0.677 -0.968,0.795 -0.918,0.911 -0.847,1.022 -0.757,1.123 -0.650,1.209 -0.529,1.279 -0.398,1.329 -0.260,1.357 -0.121,1.364 0.015,1.348 0.144,1.312 0.262,1.257 0.366,1.186 0.453,1.103 0.521,1.012 0.569,0.917 0.598,0.823 0.608,0.733 0.602,0.651 0.581,0.581 0.550,0.525 0.513,0.485 0.473,0.462 0.434,0.456 0.401,0.465 0.378,0.487 0.367,0.521 0.371,0.561 0.391,0.606 0.428,0.649 0.482,0.688 0.551,0.718 0.634,0.735 0.727,0.737 0.827,0.721 0.929,0.685 1.030,0.629 1.126,0.553 1.211,0.459 1.282,0.349 1.336,0.225 1.370,0.091 1.383,-0.048 1.374,-0.188 1.343,-0.324 1.291,-0.453 1.220,-0.571 1.134,-0.673 1.035,-0.758 0.927,-0.823 0.816,-0.867 0.705,-0.891 0.599,-0.895 0.501,-0.882 0.415,-0.854 0.344,-0.814 0.289,-0.766 0.252,-0.715 0.232,-0.665 0.228,-0.619 0.238,-0.582 0.260,-0.556 0.291,-0.544 0.326,-0.549 0.361,-0.569 0.393,-0.606 0.417,-0.659 0.430,-0.724 0.428,-0.800 0.410,-0.883 0.372,-0.968 0.316,-1.053 0.240,-1.131 0.147,-1.200 0.038,-1.255 -0.083,-1.294 -0.213,-1.313 -0.348,-1.310 -0.484,-1.286 -0.616,-1.240 -0.740,-1.173 -0.851,-1.088 -0.947,-0.987 -1.024,-0.874 -1.081,-0.753 -1.116,-0.628 -1.131,-0.504 -1.125,-0.384 -1.100,-0.274 -1.060,-0.176 -1.008,-0.093 -0.946,-0.027 -0.881,0.021 -0.815,0.051 -0.753,0.064 -0.699,0.061 -0.656,0.045 -0.627,0.020 -0.614,-0.011 -0.616,-0.043 -0.635,-0.073 -0.669,-0.097 -0.717,-0.110 -0.775,-0.110 -0.840,-0.094 -0.908,-0.061 -0.976,-0.009 -1.038,0.061 -1.092,0.147 -1.132,0.249 -1.156,0.363 -1.161,0.485 -1.145,0.611 -1.108,0.738 -1.049,0.860 -0.971,0.973 -0.874,1.074 -0.762,1.159 -0.638,1.225 -0.507,1.269 -0.372,1.293 -0.238,1.294 -0.110,1.274 0.009,1.236 0.115,1.181 0.205,1.113 0.277,1.036 0.331,0.954 0.365,0.871 0.381,0.791 0.381,0.720 0.366,0.659 0.341,0.611 0.309,0.579 0.274,0.563 0.241,0.564 0.212,0.581 0.193,0.611 0.186,0.652 0.194,0.701 0.218,0.754 0.260,0.807 0.320,0.855 0.395,0.895 0.485,0.923 0.586,0.935 0.696,0.929 0.809,0.904 0.923,0.857 1.031,0.790 1.131,0.704 1.218,0.600 1.288,0.481 1.340,0.351 1.370,0.214 1.378,0.074 1.365,-0.064 1.330,-0.196 1.275,-0.318 1.204,-0.427 1.120,-0.518 1.026,-0.592 0.927,-0.645 0.827,-0.679 0.730,-0.693 0.641,-0.689 0.563,-0.671 0.498,-0.641 0.449,-0.602 0.417,-0.560 0.401,-0.518 0.402,-0.480 0.417,-0.450 0.444,-0.431 0.479,-0.426 0.520,-0.438 0.561,-0.466 0.599,-0.510 0.630,-0.571 0.649,-0.645 0.654,-0.731 0.642,-0.825 0.611,-0.922 0.560,-1.020 0.489,-1.112 0.400,-1.196 0.293,-1.267 0.173,-1.322 0.042,-1.358 -0.095,-1.373 -0.235,-1.365 -0.372,-1.336 -0.503,-1.285 -0.622,-1.215 -0.728,-1.129 -0.816,-1.028 -0.885,-0.919 -0.934,-0.804 -0.961,-0.688 -0.968,-0.576 -0.957,-0.472 -0.930,-0.378 -0.890,-0.299 -0.841,-0.236 -0.786,-0.190 -0.731,-0.162 -0.680,-0.150 -0.635,-0.154 -0.601,-0.171 -0.581,-0.197 -0.575,-0.229 -0.586,-0.264 -0.614,-0.296 -0.657,-0.322 -0.714,-0.338 -0.782,-0.340 -0.858,-0.327 -0.938,-0.295 -1.019,-0.245 -1.095,-0.176 -1.162,-0.089 -1.217,0.014 -1.256,0.131 -1.277,0.257 -1.276,0.390 -1.254,0.524 -1.211,0.655 -1.146,0.779 -1.062,0.891 -0.962,0.989 -0.848,1.069 -0.726,1.129 -0.598,1.167 -0.470,1.184 -0.346,1.181 -0.229,1.158 -0.125,1.118 -0.035,1.064 0.039,1.001 0.094,0.931 0.131,0.861 0.150,0.792 0.152,0.731 0.141,0.680 0.119,0.641 0.090,0.618 0.057,0.610 0.025,0.619 -0.001,0.644 -0.019,0.683 -0.024,0.733 -0.015,0.792 0.012,0.855 0.056,0.919 0.118,0.979 0.198,1.031 0.293,1.072 0.400,1.097 0.517,1.104 0.640,1.091 0.763,1.057 0.884,1.002 0.996,0.926 1.097,0.832 1.183,0.721 1.251,0.598 1.298,0.466 1.323,0.330 1.327,0.193 1.309,0.061 1.271,-0.062 1.216,-0.173 1.147,-0.269 1.067,-0.347 0.981,-0.407 0.893,-0.447 0.808,-0.468 0.728,-0.472 0.659,-0.461 0.602,-0.438 0.561,-0.406 0.535,-0.370 0.527,-0.334 0.534,-0.301 0.556,-0.276 0.590,-0.263 0.633,-0.263 0.681,-0.280 0.730,-0.313 0.777,-0.364 0.817,-0.431 0.846,-0.513 0.860,-0.608 0.857,-0.711 0.835,-0.819 0.793,-0.929 0.730,-1.035 0.647,-1.133 0.547,-1.220 0.431,-1.291 0.303,-1.344 0.167,-1.376 0.027,-1.386 -0.113,-1.374 -0.247,-1.341 -0.373,-1.287 -0.485,-1.216 -0.581,-1.130 -0.659,-1.034 -0.718,-0.931 -0.756,-0.827 -0.774,-0.724 -0.774,-0.628 -0.757,-0.541 -0.728,-0.468 -0.689,-0.410 -0.644,-0.368 -0.598,-0.344 -0.555,-0.336 -0.519,-0.344 -0.493,-0.364 -0.480,-0.395 -0.482,-0.431 -0.501,-0.470 -0.536,-0.508 -0.588,-0.539 -0.653,-0.560 -0.732,-0.568 -0.818,-0.560 -0.910,-0.534 -1.004,-0.488 -1.093,-0.423 -1.175,-0.338 -1.246,-0.237 -1.301,-0.121 -1.338,0.007 -1.354,0.142 -1.349,0.280 -1.322,0.417 -1.273,0.549 -1.204,0.671 -1.117,0.779 -1.017,0.871 -0.905,0.943 -0.788,0.995 -0.668,1.026 -0.550,1.036 -0.440,1.027 -0.339,1.001 -0.252,0.961 -0.181,0.910 -0.126,0.853 -0.090,0.794 -0.071,0.736 -0.069,0.685 -0.080,0.643 -0.102,0.613 -0.132,0.599 -0.165,0.600 -0.197,0.618 -0.225,0.651 -0.244,0.699 -0.251,0.759 -0.242,0.829 -0.217,0.903 -0.173,0.979 -0.111,1.052 -0.030,1.118 0.067,1.172 0.178,1.212 0.300,1.234 0.429,1.236 0.560,1.216 0.690,1.175 0.814,1.113 0.927,1.031 1.026,0.931 1.109,0.818 1.171,0.694 1.212,0.565 1.232,0.434 1.230,0.305 1.209,0.184 1.169,0.073 1.115,-0.024 1.049,-0.104 0.977,-0.166 0.901,-0.210 0.827,-0.235 0.758,-0.243 0.699,-0.236 0.651,-0.217 0.618,-0.190 0.601,-0.157 0.600,-0.124 0.616,-0.095 0.646,-0.073 0.688,-0.062 0.740,-0.065 0.798,-0.084 0.858,-0.121 0.915,-0.175 0.966,-0.247 1.006,-0.334 1.033,-0.435 1.042,-0.547 1.032,-0.664 1.001,-0.784 0.949,-0.902 0.876,-1.014 0.785,-1.115 0.676,-1.202 0.555,-1.271 0.423,-1.320 0.286,-1.347 0.148,-1.353 0.013,-1.336 -0.115,-1.300 -0.231,-1.245 -0.332,-1.174 -0.416,-1.093 -0.481,-1.003 -0.527,-0.911 -0.553,-0.819 -0.561,-0.733 -0.553,-0.655 -0.532,-0.590 -0.501,-0.539 -0.464,-0.504 -0.425,-0.486 -0.388,-0.484 -0.358,-0.497 -0.338,-0.524 -0.331,-0.561 -0.339,-0.604 -0.364,-0.650 -0.406,-0.695 -0.464,-0.734 -0.538,-0.764 -0.625,-0.780 -0.722,-0.780 -0.825,-0.762 -0.930,-0.724 -1.033,-0.666 -1.129,-0.588 -1.215,-0.491 -1.287,-0.379 -1.340,-0.253 -1.374,-0.119 -1.386,0.021 -1.376,0.161 -1.344,0.297 -1.292,0.425 -1.221,0.541 -1.135,0.641 -1.036,0.724 -0.931,0.787 -0.822,0.829 -0.713,0.851 -0.610,0.854 -0.517,0.839 -0.435,0.811 -0.368,0.771 -0.318,0.725 -0.285,0.675 -0.269,0.628 -0.269,0.585 -0.283,0.551 -0.308,0.530 -0.341,0.523 -0.377,0.533 -0.413,0.558 -0.445,0.601 -0.468,0.658 -0.479,0.728 -0.475,0.807 -0.454,0.893 -0.414,0.982 -0.354,1.068 -0.275,1.148 -0.179,1.218 -0.068,1.273 0.056,1.311 0.188,1.329 0.324,1.326 0.461,1.301 0.593,1.254 0.716,1.186 0.826,1.100 0.921,0.999 0.997,0.887 1.052,0.767 1.086,0.643 1.099,0.521 1.092,0.405 1.067,0.298 1.027,0.203 0.975,0.124 0.915,0.062 0.852,0.018 0.789,-0.008 0.731,-0.017 0.681,-0.012 0.643,0.006 0.618,0.033 0.610,0.065 0.618,0.097 0.642,0.127 0.681,0.149 0.732,0.160 0.794,0.157 0.863,0.138 0.934,0.101 1.004,0.045 1.068,-0.029 1.121,-0.119 1.161,-0.224 1.185,-0.341 1.189,-0.465 1.172,-0.594 1.133,-0.721 1.073,-0.844 0.994,-0.958 0.896,-1.058 0.783,-1.142 0.660,-1.207 0.529,-1.251 0.395,-1.273 0.263,-1.274 0.137,-1.253 0.020,-1.214 -0.083,-1.160 -0.169,-1.093 -0.238,-1.017 -0.288,-0.937 -0.320,-0.857 -0.333,-0.781 -0.330,-0.714 -0.314,-0.657 -0.288,-0.615 -0.256,-0.588 -0.222,-0.577 -0.190,-0.583 -0.164,-0.604 -0.147,-0.639 -0.144,-0.684 -0.156,-0.736 -0.184,-0.791 -0.231,-0.846 -0.294,-0.895 -0.374,-0.935 -0.468,-0.963 -0.573,-0.974 -0.685,-0.967 -0.801,-0.939 -0.916,-0.891 -1.026,-0.822 -1.127,-0.734 -1.213,-0.628 -1.284,-0.508 -1.334,-0.378 -1.364,-0.240 -1.371,-0.101 -1.357,0.036 -1.321,0.167 -1.267,0.287 -1.196,0.393 -1.112,0.483 -1.020,0.553 -0.923,0.604 -0.826,0.635 -0.733,0.647 -0.647,0.643 -0.573,0.623 -0.513,0.593 -0.469,0.555 -0.442,0.514 -0.431,0.473 -0.436,0.438 -0.455,0.411 -0.485,0.397 -0.524,0.397 -0.566,0.412 -0.609,0.445 -0.647,0.495 -0.678,0.560 -0.696,0.639 -0.699,0.729 -0.685,0.826 -0.652,0.926 -0.598,1.025 -0.525,1.120 -0.433,1.204 -0.324,1.276 -0.202,1.330" />
</g>
</svg>