<svg xmlns="http://www.w3.org/2000/svg" width="161.8" height="100.0" viewBox="-5.000 142.160 171.803 110.000">
<g fill="none" stroke="black" stroke-width="0.0068%" transform="translate(0, 394.3202) scale(73.5800, -73.5800)">
<circle cx="0.000" cy="3.359" r="0.007" />
<polyline points="0.000,2.000 0.022,2.000 0.044,2.000 0.067,2.000 0.089,2.000 0.111,2.001 0.133,2.001 0.155,2.001 0.178,2.001 0.200,2.002 0.222,2.002 0.244,2.003 0.267,2.003 0.289,2.004 0.311,2.005 0.333,2.005 0.355,2.006 0.378,2.007 0.400,2.008 0.422,2.009 0.444,2.010 0.466,2.011 0.489,2.012 0.511,2.013 0.533,2.015 0.555,2.016 0.578,2.018 0.600,2.019 0.622,2.021 0.644,2.023 0.666,2.025 0.689,2.027 0.711,2.029 0.733,2.031 0.755,2.033 0.777,2.036 0.800,2.038 0.822,2.041 0.844,2.044 0.866,2.047 0.888,2.050 0.911,2.053 0.933,2.057 0.955,2.060 0.977,2.064 1.000,2.068 1.022,2.072 1.044,2.076 1.066,2.081 1.088,2.085 1.111,2.090 1.133,2.095 1.155,2.100 1.177,2.106 1.199,2.112 1.222,2.118 1.244,2.124 1.266,2.131 1.288,2.138 1.311,2.145 1.333,2.153 1.355,2.161 1.377,2.169 1.399,2.178 1.422,2.187 1.444,2.197 1.466,2.207 1.488,2.217 1.510,2.228 1.533,2.240 1.555,2.252 1.577,2.265 1.599,2.279 1.621,2.293 1.644,2.308 1.666,2.324 1.688,2.341 1.710,2.359 1.733,2.378 1.755,2.398 1.777,2.419 1.799,2.442 1.821,2.466 1.844,2.491 1.866,2.518 1.888,2.548 1.910,2.579 1.932,2.613 1.955,2.649 1.977,2.688 1.999,2.730 2.021,2.776 2.044,2.826 2.066,2.881 2.088,2.941 2.110,3.007 2.132,3.080 2.155,3.162 2.177,3.255 2.199,3.359" />
</g>
</svg>