<svg xmlns="http://www.w3.org/2000/svg" width="161.8" height="100.0" viewBox="-5.00 -0.37 171.80 110.00">
<g fill="none" stroke="black" stroke-width="0.0214%" transform="translate(0, 109.2503) scale(23.3145, -23.3145)">
<circle cx="0.00" cy="4.49" r="0.02" />
<polyline points="0.00,1.00 0.07,1.08 0.14,1.02 0.21,0.93 0.28,1.05 0.35,0.98 0.42,0.94 0.49,0.96 0.56,0.99 0.62,0.94 0.69,0.88 0.76,0.82 0.83,0.90 0.90,0.95 0.97,1.00 1.04,0.96 1.11,0.98 1.18,1.21 1.25,1.01 1.32,1.03 1.39,1.11 1.46,1.16 1.53,1.03 1.60,0.99 1.67,1.15 1.74,1.46 1.80,1.41 1.87,1.52 1.94,1.40 2.01,1.47 2.08,1.42 2.15,1.30 2.22,1.49 2.29,1.34 2.36,1.36 2.43,1.31 2.50,1.30 2.57,0.95 2.64,1.05 2.71,1.03 2.78,0.93 2.85,0.92 2.91,1.03 2.98,0.98 3.05,1.07 3.12,1.07 3.19,1.20 3.26,1.25 3.33,1.28 3.40,1.24 3.47,1.22 3.54,1.26 3.61,1.08 3.68,1.12 3.75,1.07 3.82,1.00 3.89,0.99 3.96,0.98 4.03,1.13 4.09,1.11 4.16,1.10 4.23,1.12 4.30,1.27 4.37,1.37 4.44,1.28 4.51,1.34 4.58,1.54 4.65,1.52 4.72,1.61 4.79,2.09 4.86,2.10 4.93,2.11 5.00,2.16 5.07,2.52 5.14,2.44 5.21,2.39 5.27,2.42 5.34,2.58 5.41,2.66 5.48,2.74 5.55,2.63 5.62,2.49 5.69,2.41 5.76,2.98 5.83,3.50 5.90,3.34 5.97,3.73 6.04,4.30 6.11,4.49 6.18,4.12 6.25,4.14 6.32,4.06 6.38,3.35 6.45,3.29 6.52,3.37 6.59,2.75 6.66,2.53 6.73,2.93 6.80,3.25 6.87,3.34 6.94,3.06" />
<polyline points="0.00,1.00 0.07,1.10 0.14,1.00 0.21,1.21 0.28,1.15 0.35,1.33 0.42,1.50 0.49,1.34 0.56,1.46 0.62,1.34 0.69,1.33 0.76,1.43 0.83,1.32 0.90,1.34 0.97,1.24 1.04,1.36 1.11,1.29 1.18,1.34 1.25,1.10 1.32,0.99 1.39,1.02 1.46,1.24 1.53,1.19 1.60,1.24 1.67,1.12 1.74,1.00 1.80,1.14 1.87,0.97 1.94,1.12 2.01,1.21 2.08,1.30 2.15,1.45 2.22,1.49 2.29,1.54 2.36,1.72 2.43,1.73 2.50,2.12 2.57,2.08 2.64,2.08 2.71,1.82 2.78,1.95 2.85,2.04 2.91,2.04 2.98,1.82 3.05,1.48 3.12,1.61 3.19,1.39 3.26,1.08 3.33,1.06 3.40,0.89 3.47,0.95 3.54,1.00 3.61,0.99 3.68,0.83 3.75,0.90 3.82,1.00 3.89,0.85 3.96,0.89 4.03,0.90 4.09,0.91 4.16,0.75 4.23,0.86 4.30,0.87 4.37,0.94 4.44,1.14 4.51,1.20 4.58,1.08 4.65,0.97 4.72,0.97 4.79,0.84 4.86,0.74 4.93,0.85 5.00,0.92 5.07,0.98 5.14,1.12 5.21,1.07 5.27,0.88 5.34,1.15 5.41,1.13 5.48,1.00 5.55,1.02 5.62,0.90 5.69,0.88 5.76,1.04 5.83,1.18 5.90,1.23 5.97,1.31 6.04,1.59 6.11,1.59 6.18,1.58 6.25,1.57 6.32,1.51 6.38,1.49 6.45,1.64 6.52,1.32 6.59,1.49 6.66,1.75 6.73,1.80 6.80,1.86 6.87,2.03 6.94,1.82" />
<polyline points="0.00,1.00 0.07,0.86 0.14,0.91 0.21,0.98 0.28,0.99 0.35,1.02 0.42,1.15 0.49,1.26 0.56,1.18 0.62,1.13 0.69,1.20 0.76,1.20 0.83,1.10 0.90,1.23 0.97,1.18 1.04,1.06 1.11,1.07 1.18,1.01 1.25,1.10 1.32,1.05 1.39,1.30 1.46,1.30 1.53,1.17 1.60,1.25 1.67,1.23 1.74,1.13 1.80,1.16 1.87,1.27 1.94,1.12 2.01,1.15 2.08,0.99 2.15,0.94 2.22,0.87 2.29,0.86 2.36,0.68 2.43,0.76 2.50,0.72 2.57,0.65 2.64,0.59 2.71,0.68 2.78,0.66 2.85,0.71 2.91,0.68 2.98,0.63 3.05,0.63 3.12,0.65 3.19,0.48 3.26,0.50 3.33,0.52 3.40,0.62 3.47,0.64 3.54,0.61 3.61,0.67 3.68,0.65 3.75,0.69 3.82,0.62 3.89,0.69 3.96,0.85 4.03,0.93 4.09,0.90 4.16,0.97 4.23,1.00 4.30,1.11 4.37,1.06 4.44,1.28 4.51,1.54 4.58,1.84 4.65,1.80 4.72,2.10 4.79,2.22 4.86,2.00 4.93,1.88 5.00,1.74 5.07,1.70 5.14,1.50 5.21,1.51 5.27,1.89 5.34,2.18 5.41,1.89 5.48,1.92 5.55,2.01 5.62,2.54 5.69,2.04 5.76,2.23 5.83,2.04 5.90,2.04 5.97,2.20 6.04,2.00 6.11,2.24 6.18,2.10 6.25,1.91 6.32,2.18 6.38,2.12 6.45,2.02 6.52,1.86 6.59,1.95 6.66,1.96 6.73,2.06 6.80,2.09 6.87,2.04 6.94,2.16" />
<polyline points="0.00,1.00 0.07,0.85 0.14,0.81 0.21,0.83 0.28,0.81 0.35,0.74 0.42,0.73 0.49,0.75 0.56,0.77 0.62,0.78 0.69,0.68 0.76,0.65 0.83,0.54 0.90,0.48 0.97,0.41 1.04,0.47 1.11,0.39 1.18,0.42 1.25,0.39 1.32,0.45 1.39,0.46 1.46,0.51 1.53,0.47 1.60,0.44 1.67,0.40 1.74,0.37 1.80,0.34 1.87,0.32 1.94,0.32 2.01,0.31 2.08,0.27 2.15,0.22 2.22,0.24 2.29,0.25 2.36,0.25 2.43,0.25 2.50,0.25 2.57,0.20 2.64,0.21 2.71,0.24 2.78,0.24 2.85,0.29 2.91,0.30 2.98,0.30 3.05,0.28 3.12,0.27 3.19,0.24 3.26,0.24 3.33,0.26 3.40,0.32 3.47,0.33 3.54,0.29 3.61,0.30 3.68,0.36 3.75,0.42 3.82,0.39 3.89,0.32 3.96,0.32 4.03,0.31 4.09,0.30 4.16,0.31 4.23,0.35 4.30,0.35 4.37,0.38 4.44,0.37 4.51,0.43 4.58,0.41 4.65,0.44 4.72,0.52 4.79,0.50 4.86,0.50 4.93,0.59 5.00,0.62 5.07,0.66 5.14,0.63 5.21,0.61 5.27,0.55 5.34,0.50 5.41,0.52 5.48,0.51 5.55,0.48 5.62,0.53 5.69,0.58 5.76,0.48 5.83,0.49 5.90,0.44 5.97,0.42 6.04,0.41 6.11,0.43 6.18,0.45 6.25,0.49 6.32,0.52 6.38,0.54 6.45,0.48 6.52,0.45 6.59,0.43 6.66,0.39 6.73,0.36 6.80,0.36 6.87,0.31 6.94,0.35" />
</g>
</svg>