<svg xmlns="http://www.w3.org/2000/svg" width="161.8" height="100.0" viewBox="-5.000 130.272 171.803 110.000">
<g fill="none" stroke="black" stroke-width="0.0074%" transform="translate(0, 370.5435) scale(67.6359, -67.6359)">
<polyline points="0.000,2.000 0.024,2.000 0.048,2.000 0.072,2.000 0.096,2.000 0.120,2.001 0.144,2.001 0.167,2.001 0.191,2.001 0.215,2.002 0.239,2.002 0.263,2.003 0.287,2.003 0.311,2.004 0.335,2.005 0.359,2.005 0.383,2.006 0.407,2.007 0.431,2.008 0.455,2.009 0.478,2.010 0.502,2.011 0.526,2.012 0.550,2.013 0.574,2.015 0.598,2.016 0.622,2.018 0.646,2.019 0.670,2.021 0.694,2.023 0.718,2.025 0.742,2.027 0.766,2.029 0.789,2.031 0.813,2.033 0.837,2.036 0.861,2.038 0.885,2.041 0.909,2.044 0.933,2.047 0.957,2.050 0.981,2.053 1.005,2.057 1.029,2.060 1.053,2.064 1.077,2.068 1.100,2.072 1.124,2.076 1.148,2.081 1.172,2.085 1.196,2.090 1.220,2.095 1.244,2.100 1.268,2.106 1.292,2.112 1.316,2.118 1.340,2.124 1.364,2.131 1.388,2.138 1.411,2.145 1.435,2.153 1.459,2.161 1.483,2.169 1.507,2.178 1.531,2.187 1.555,2.197 1.579,2.207 1.603,2.217 1.627,2.228 1.651,2.240 1.675,2.252 1.699,2.265 1.722,2.279 1.746,2.293 1.770,2.308 1.794,2.324 1.818,2.341 1.842,2.359 1.866,2.378 1.890,2.398 1.914,2.419 1.938,2.442 1.962,2.466 1.986,2.491 2.010,2.518 2.033,2.548 2.057,2.579 2.081,2.613 2.105,2.649 2.129,2.688 2.153,2.730 2.177,2.776 2.201,2.826 2.225,2.881 2.249,2.941 2.273,3.007 2.297,3.080 2.321,3.162 2.344,3.255 2.368,3.359 2.392,3.479" />
</g>
</svg>