<svg xmlns="http://www.w3.org/2000/svg" width="161.8" height="100.0" viewBox="-3 -5 172 110">
<g fill="none" stroke="black" stroke-width="5.0800%" transform="translate(0, 100.0000) scale(0.0984, -0.0984)">
<circle cx="19" cy="0" r="5" />
<line x1="19" y1="0" x2="19" y2="1016" />
<line x1="38" y1="0" x2="38" y2="881" />
<line x1="57" y1="0" x2="57" y2="818" />
<line x1="76" y1="0" x2="76" y2="760" />
<line x1="96" y1="0" x2="96" y2="660" />
<line x1="115" y1="0" x2="115" y2="538" />
<line x1="134" y1="0" x2="134" y2="550" />
<line x1="153" y1="0" x2="153" y2="457" />
<line x1="172" y1="0" x2="172" y2="420" />
<line x1="191" y1="0" x2="191" y2="413" />
<line x1="210" y1="0" x2="210" y2="377" />
<line x1="229" y1="0" x2="229" y2="305" />
<line x1="248" y1="0" x2="248" y2="295" />
<line x1="268" y1="0" x2="268" y2="233" />
<line x1="287" y1="0" x2="287" y2="220" />
<line x1="306" y1="0" x2="306" y2="225" />
<line x1="325" y1="0" x2="325" y2="191" />
<line x1="344" y1="0" x2="344" y2="155" />
<line x1="363" y1="0" x2="363" y2="138" />
<line x1="382" y1="0" x2="382" y2="132" />
<line x1="401" y1="0" x2="401" y2="108" />
<line x1="421" y1="0" x2="421" y2="110" />
<line x1="440" y1="0" x2="440" y2="100" />
<line x1="459" y1="0" x2="459" y2="88" />
<line x1="478" y1="0" x2="478" y2="77" />
<line x1="497" y1="0" x2="497" y2="61" />
<line x1="516" y1="0" x2="516" y2="54" />
<line x1="535" y1="0" x2="535" y2="57" />
<line x1="554" y1="0" x2="554" y2="55" />
<line x1="573" y1="0" x2="573" y2="50" />
<line x1="593" y1="0" x2="593" y2="47" />
<line x1="612" y1="0" x2="612" y2="45" />
<line x1="631" y1="0" x2="631" y2="29" />
<line x1="650" y1="0" x2="650" y2="38" />
<line x1="669" y1="0" x2="669" y2="32" />
<line x1="688" y1="0" x2="688" y2="33" />
<line x1="707" y1="0" x2="707" y2="22" />
<line x1="726" y1="0" x2="726" y2="22" />
<line x1="745" y1="0" x2="745" y2="22" />
<line x1="765" y1="0" x2="765" y2="17" />
<line x1="784" y1="0" x2="784" y2="15" />
<line x1="803" y1="0" x2="803" y2="15" />
<line x1="822" y1="0" x2="822" y2="13" />
<line x1="841" y1="0" x2="841" y2="10" />
<line x1="860" y1="0" x2="860" y2="14" />
<line x1="879" y1="0" x2="879" y2="12" />
<line x1="898" y1="0" x2="898" y2="8" />
<line x1="918" y1="0" x2="918" y2="4" />
<line x1="937" y1="0" x2="937" y2="6" />
<line x1="956" y1="0" x2="956" y2="5" />
<line x1="975" y1="0" x2="975" y2="5" />
<line x1="994" y1="0" x2="994" y2="4" />
<line x1="1013" y1="0" x2="1013" y2="6" />
<line x1="1032" y1="0" x2="1032" y2="1" />
<line x1="1051" y1="0" x2="1051" y2="7" />
<line x1="1070" y1="0" x2="1070" y2="1" />
<line x1="1090" y1="0" x2="1090" y2="3" />
<line x1="1109" y1="0" x2="1109" y2="6" />
<line x1="1128" y1="0" x2="1128" y2="1" />
<line x1="1147" y1="0" x2="1147" y2="2" />
<line x1="1166" y1="0" x2="1166" y2="0" />
<line x1="1185" y1="0" x2="1185" y2="1" />
<line x1="1204" y1="0" x2="1204" y2="1" />
<line x1="1223" y1="0" x2="1223" y2="1" />
<line x1="1242" y1="0" x2="1242" y2="1" />
<line x1="1262" y1="0" x2="1262" y2="1" />
<line x1="1281" y1="0" x2="1281" y2="0" />
<line x1="1300" y1="0" x2="1300" y2="1" />
<line x1="1319" y1="0" x2="1319" y2="0" />
<line x1="1338" y1="0" x2="1338" y2="0" />
<line x1="1357" y1="0" x2="1357" y2="0" />
<line x1="1376" y1="0" x2="1376" y2="0" />
<line x1="1395" y1="0" x2="1395" y2="0" />
<line x1="1415" y1="0" x2="1415" y2="0" />
<line x1="1434" y1="0" x2="1434" y2="0" />
<line x1="1453" y1="0" x2="1453" y2="0" />
<line x1="1472" y1="0" x2="1472" y2="1" />
<line x1="1491" y1="0" x2="1491" y2="1" />
<line x1="1510" y1="0" x2="1510" y2="0" />
<line x1="1529" y1="0" x2="1529" y2="1" />
<line x1="1548" y1="0" x2="1548" y2="0" />
<line x1="1567" y1="0" x2="1567" y2="1" />
<line x1="1587" y1="0" x2="1587" y2="0" />
<line x1="1606" y1="0" x2="1606" y2="0" />
<line x1="1625" y1="0" x2="1625" y2="0" />
<line x1="1644" y1="0" x2="1644" y2="0" />
<line x1="1663" y1="0" x2="1663" y2="1" />
</g>
</svg>