<svg xmlns="http://www.w3.org/2000/svg" width="161.8" height="100.0" viewBox="-3.37 -5.00 171.80 110.00">
<g fill="none" stroke="black" stroke-width="0.0300%" transform="translate(0, 100.0000) scale(16.6667, -16.6667)">
<circle cx="0.10" cy="0.00" r="0.03" />
<line x1="0.10" y1="0.00" x2="0.10" y2="1.00" />
<line x1="0.20" y1="0.00" x2="0.20" y2="3.00" />
<line x1="0.29" y1="0.00" x2="0.29" y2="0.00" />
<line x1="0.39" y1="0.00" x2="0.39" y2="1.00" />
<line x1="0.49" y1="0.00" x2="0.49" y2="1.00" />
<line x1="0.59" y1="0.00" x2="0.59" y2="0.00" />
<line x1="0.69" y1="0.00" x2="0.69" y2="6.00" />
<line x1="0.78" y1="0.00" x2="0.78" y2="1.00" />
<line x1="0.88" y1="0.00" x2="0.88" y2="1.00" />
<line x1="0.98" y1="0.00" x2="0.98" y2="0.00" />
<line x1="1.08" y1="0.00" x2="1.08" y2="1.00" />
<line x1="1.18" y1="0.00" x2="1.18" y2="4.00" />
<line x1="1.27" y1="0.00" x2="1.27" y2="3.00" />
<line x1="1.37" y1="0.00" x2="1.37" y2="0.00" />
<line x1="1.47" y1="0.00" x2="1.47" y2="2.00" />
<line x1="1.57" y1="0.00" x2="1.57" y2="0.00" />
<line x1="1.67" y1="0.00" x2="1.67" y2="0.00" />
<line x1="1.77" y1="0.00" x2="1.77" y2="0.00" />
<line x1="1.86" y1="0.00" x2="1.86" y2="0.00" />
<line x1="1.96" y1="0.00" x2="1.96" y2="1.00" />
<line x1="2.06" y1="0.00" x2="2.06" y2="0.00" />
<line x1="2.16" y1="0.00" x2="2.16" y2="2.00" />
<line x1="2.26" y1="0.00" x2="2.26" y2="0.00" />
<line x1="2.35" y1="0.00" x2="2.35" y2="1.00" />
<line x1="2.45" y1="0.00" x2="2.45" y2="2.00" />
<line x1="2.55" y1="0.00" x2="2.55" y2="0.00" />
<line x1="2.65" y1="0.00" x2="2.65" y2="0.00" />
<line x1="2.75" y1="0.00" x2="2.75" y2="1.00" />
<line x1="2.84" y1="0.00" x2="2.84" y2="1.00" />
<line x1="2.94" y1="0.00" x2="2.94" y2="1.00" />
<line x1="3.04" y1="0.00" x2="3.04" y2="2.00" />
<line x1="3.14" y1="0.00" x2="3.14" y2="0.00" />
<line x1="3.24" y1="0.00" x2="3.24" y2="0.00" />
<line x1="3.33" y1="0.00" x2="3.33" y2="0.00" />
<line x1="3.43" y1="0.00" x2="3.43" y2="0.00" />
<line x1="3.53" y1="0.00" x2="3.53" y2="0.00" />
<line x1="3.63" y1="0.00" x2="3.63" y2="2.00" />
<line x1="3.73" y1="0.00" x2="3.73" y2="0.00" />
<line x1="3.82" y1="0.00" x2="3.82" y2="1.00" />
<line x1="3.92" y1="0.00" x2="3.92" y2="1.00" />
<line x1="4.02" y1="0.00" x2="4.02" y2="1.00" />
<line x1="4.12" y1="0.00" x2="4.12" y2="2.00" />
<line x1="4.22" y1="0.00" x2="4.22" y2="0.00" />
<line x1="4.31" y1="0.00" x2="4.31" y2="1.00" />
<line x1="4.41" y1="0.00" x2="4.41" y2="0.00" />
<line x1="4.51" y1="0.00" x2="4.51" y2="0.00" />
<line x1="4.61" y1="0.00" x2="4.61" y2="0.00" />
<line x1="4.71" y1="0.00" x2="4.71" y2="0.00" />
<line x1="4.81" y1="0.00" x2="4.81" y2="0.00" />
<line x1="4.90" y1="0.00" x2="4.90" y2="0.00" />
<line x1="5.00" y1="0.00" x2="5.00" y2="0.00" />
<line x1="5.10" y1="0.00" x2="5.10" y2="2.00" />
<line x1="5.20" y1="0.00" x2="5.20" y2="2.00" />
<line x1="5.30" y1="0.00" x2="5.30" y2="4.00" />
<line x1="5.39" y1="0.00" x2="5.39" y2="0.00" />
<line x1="5.49" y1="0.00" x2="5.49" y2="0.00" />
<line x1="5.59" y1="0.00" x2="5.59" y2="0.00" />
<line x1="5.69" y1="0.00" x2="5.69" y2="1.00" />
<line x1="5.79" y1="0.00" x2="5.79" y2="1.00" />
<line x1="5.88" y1="0.00" x2="5.88" y2="1.00" />
<line x1="5.98" y1="0.00" x2="5.98" y2="1.00" />
<line x1="6.08" y1="0.00" x2="6.08" y2="0.00" />
<line x1="6.18" y1="0.00" x2="6.18" y2="5.00" />
<line x1="6.28" y1="0.00" x2="6.28" y2="0.00" />
<line x1="6.37" y1="0.00" x2="6.37" y2="0.00" />
<line x1="6.47" y1="0.00" x2="6.47" y2="1.00" />
<line x1="6.57" y1="0.00" x2="6.57" y2="1.00" />
<line x1="6.67" y1="0.00" x2="6.67" y2="0.00" />
<line x1="6.77" y1="0.00" x2="6.77" y2="2.00" />
<line x1="6.86" y1="0.00" x2="6.86" y2="1.00" />
<line x1="6.96" y1="0.00" x2="6.96" y2="2.00" />
<line x1="7.06" y1="0.00" x2="7.06" y2="0.00" />
<line x1="7.16" y1="0.00" x2="7.16" y2="0.00" />
<line x1="7.26" y1="0.00" x2="7.26" y2="0.00" />
<line x1="7.35" y1="0.00" x2="7.35" y2="1.00" />
<line x1="7.45" y1="0.00" x2="7.45" y2="2.00" />
<line x1="7.55" y1="0.00" x2="7.55" y2="3.00" />
<line x1="7.65" y1="0.00" x2="7.65" y2="0.00" />
<line x1="7.75" y1="0.00" x2="7.75" y2="0.00" />
<line x1="7.85" y1="0.00" x2="7.85" y2="1.00" />
<line x1="7.94" y1="0.00" x2="7.94" y2="0.00" />
<line x1="8.04" y1="0.00" x2="8.04" y2="4.00" />
<line x1="8.14" y1="0.00" x2="8.14" y2="1.00" />
<line x1="8.24" y1="0.00" x2="8.24" y2="0.00" />
<line x1="8.34" y1="0.00" x2="8.34" y2="1.00" />
<line x1="8.43" y1="0.00" x2="8.43" y2="1.00" />
<line x1="8.53" y1="0.00" x2="8.53" y2="1.00" />
<line x1="8.63" y1="0.00" x2="8.63" y2="0.00" />
<line x1="8.73" y1="0.00" x2="8.73" y2="3.00" />
<line x1="8.83" y1="0.00" x2="8.83" y2="1.00" />
<line x1="8.92" y1="0.00" x2="8.92" y2="0.00" />
<line x1="9.02" y1="0.00" x2="9.02" y2="1.00" />
<line x1="9.12" y1="0.00" x2="9.12" y2="1.00" />
<line x1="9.22" y1="0.00" x2="9.22" y2="0.00" />
<line x1="9.32" y1="0.00" x2="9.32" y2="0.00" />
<line x1="9.41" y1="0.00" x2="9.41" y2="0.00" />
<line x1="9.51" y1="0.00" x2="9.51" y2="2.00" />
<line x1="9.61" y1="0.00" x2="9.61" y2="1.00" />
<line x1="9.71" y1="0.00" x2="9.71" y2="1.00" />
<line x1="9.81" y1="0.00" x2="9.81" y2="1.00" />
</g>
</svg>