<svg xmlns="http://www.w3.org/2000/svg" width="170" height="80" viewBox="0 0 170 80">
<rect x="0" y="0" width="10" height="10" fill="rgb(0,0,0)"/>
<rect x="0" y="10" width="10" height="10" fill="rgb(191,191,191)"/>
<rect x="0" y="20" width="10" height="10" fill="rgb(159,159,159)"/>
<rect x="0" y="30" width="10" height="10" fill="rgb(32,32,32)"/>
<rect x="0" y="40" width="10" height="10" fill="rgb(96,96,96)"/>
<rect x="0" y="50" width="10" height="10" fill="rgb(223,223,223)"/>
<rect x="0" y="60" width="10" height="10" fill="rgb(64,64,64)"/>
<rect x="0" y="70" width="10" height="10" fill="rgb(128,128,128)"/>
<rect x="10" y="0" width="10" height="10" fill="rgb(191,191,191)"/>
<rect x="10" y="10" width="10" height="10" fill="rgb(0,0,0)"/>
<rect x="10" y="20" width="10" height="10" fill="rgb(159,159,159)"/>
<rect x="10" y="30" width="10" height="10" fill="rgb(32,32,32)"/>
<rect x="10" y="40" width="10" height="10" fill="rgb(96,96,96)"/>
<rect x="10" y="50" width="10" height="10" fill="rgb(223,223,223)"/>
<rect x="10" y="60" width="10" height="10" fill="rgb(64,64,64)"/>
<rect x="10" y="70" width="10" height="10" fill="rgb(128,128,128)"/>
<rect x="20" y="0" width="10" height="10" fill="rgb(191,191,191)"/>
<rect x="20" y="10" width="10" height="10" fill="rgb(159,159,159)"/>
<rect x="20" y="20" width="10" height="10" fill="rgb(0,0,0)"/>
<rect x="20" y="30" width="10" height="10" fill="rgb(32,32,32)"/>
<rect x="20" y="40" width="10" height="10" fill="rgb(96,96,96)"/>
<rect x="20" y="50" width="10" height="10" fill="rgb(223,223,223)"/>
<rect x="20" y="60" width="10" height="10" fill="rgb(64,64,64)"/>
<rect x="20" y="70" width="10" height="10" fill="rgb(128,128,128)"/>
<rect x="30" y="0" width="10" height="10" fill="rgb(191,191,191)"/>
<rect x="30" y="10" width="10" height="10" fill="rgb(159,159,159)"/>
<rect x="30" y="20" width="10" height="10" fill="rgb(32,32,32)"/>
<rect x="30" y="30" width="10" height="10" fill="rgb(0,0,0)"/>
<rect x="30" y="40" width="10" height="10" fill="rgb(96,96,96)"/>
<rect x="30" y="50" width="10" height="10" fill="rgb(223,223,223)"/>
<rect x="30" y="60" width="10" height="10" fill="rgb(64,64,64)"/>
<rect x="30" y="70" width="10" height="10" fill="rgb(128,128,128)"/>
<rect x="40" y="0" width="10" height="10" fill="rgb(191,191,191)"/>
<rect x="40" y="10" width="10" height="10" fill="rgb(159,159,159)"/>
<rect x="40" y="20" width="10" height="10" fill="rgb(32,32,32)"/>
<rect x="40" y="30" width="10" height="10" fill="rgb(96,96,96)"/>
<rect x="40" y="40" width="10" height="10" fill="rgb(0,0,0)"/>
<rect x="40" y="50" width="10" height="10" fill="rgb(223,223,223)"/>
<rect x="40" y="60" width="10" height="10" fill="rgb(64,64,64)"/>
<rect x="40" y="70" width="10" height="10" fill="rgb(128,128,128)"/>
<rect x="50" y="0" width="10" height="10" fill="rgb(191,191,191)"/>
<rect x="50" y="10" width="10" height="10" fill="rgb(159,159,159)"/>
<rect x="50" y="20" width="10" height="10" fill="rgb(96,96,96)"/>
<rect x="50" y="30" width="10" height="10" fill="rgb(32,32,32)"/>
<rect x="50" y="40" width="10" height="10" fill="rgb(0,0,0)"/>
<rect x="50" y="50" width="10" height="10" fill="rgb(223,223,223)"/>
<rect x="50" y="60" width="10" height="10" fill="rgb(64,64,64)"/>
<rect x="50" y="70" width="10" height="10" fill="rgb(128,128,128)"/>
<rect x="60" y="0" width="10" height="10" fill="rgb(191,191,191)"/>
<rect x="60" y="10" width="10" height="10" fill="rgb(159,159,159)"/>
<rect x="60" y="20" width="10" height="10" fill="rgb(96,96,96)"/>
<rect x="60" y="30" width="10" height="10" fill="rgb(32,32,32)"/>
<rect x="60" y="40" width="10" height="10" fill="rgb(223,223,223)"/>
<rect x="60" y="50" width="10" height="10" fill="rgb(0,0,0)"/>
<rect x="60" y="60" width="10" height="10" fill="rgb(64,64,64)"/>
<rect x="60" y="70" width="10" height="10" fill="rgb(128,128,128)"/>
<rect x="70" y="0" width="10" height="10" fill="rgb(191,191,191)"/>
<rect x="70" y="10" width="10" height="10" fill="rgb(159,159,159)"/>
<rect x="70" y="20" width="10" height="10" fill="rgb(96,96,96)"/>
<rect x="70" y="30" width="10" height="10" fill="rgb(223,223,223)"/>
<rect x="70" y="40" width="10" height="10" fill="rgb(32,32,32)"/>
<rect x="70" y="50" width="10" height="10" fill="rgb(0,0,0)"/>
<rect x="70" y="60" width="10" height="10" fill="rgb(64,64,64)"/>
<rect x="70" y="70" width="10" height="10" fill="rgb(128,128,128)"/>
<rect x="80" y="0" width="10" height="10" fill="rgb(191,191,191)"/>
<rect x="80" y="10" width="10" height="10" fill="rgb(159,159,159)"/>
<rect x="80" y="20" width="10" height="10" fill="rgb(223,223,223)"/>
<rect x="80" y="30" width="10" height="10" fill="rgb(96,96,96)"/>
<rect x="80" y="40" width="10" height="10" fill="rgb(32,32,32)"/>
<rect x="80" y="50" width="10" height="10" fill="rgb(0,0,0)"/>
<rect x="80" y="60" width="10" height="10" fill="rgb(64,64,64)"/>
<rect x="80" y="70" width="10" height="10" fill="rgb(128,128,128)"/>
<rect x="90" y="0" width="10" height="10" fill="rgb(191,191,191)"/>
<rect x="90" y="10" width="10" height="10" fill="rgb(223,223,223)"/>
<rect x="90" y="20" width="10" height="10" fill="rgb(159,159,159)"/>
<rect x="90" y="30" width="10" height="10" fill="rgb(96,96,96)"/>
<rect x="90" y="40" width="10" height="10" fill="rgb(32,32,32)"/>
<rect x="90" y="50" width="10" height="10" fill="rgb(0,0,0)"/>
<rect x="90" y="60" width="10" height="10" fill="rgb(64,64,64)"/>
<rect x="90" y="70" width="10" height="10" fill="rgb(128,128,128)"/>
<rect x="100" y="0" width="10" height="10" fill="rgb(223,223,223)"/>
<rect x="100" y="10" width="10" height="10" fill="rgb(191,191,191)"/>
<rect x="100" y="20" width="10" height="10" fill="rgb(159,159,159)"/>
<rect x="100" y="30" width="10" height="10" fill="rgb(96,96,96)"/>
<rect x="100" y="40" width="10" height="10" fill="rgb(32,32,32)"/>
<rect x="100" y="50" width="10" height="10" fill="rgb(0,0,0)"/>
<rect x="100" y="60" width="10" height="10" fill="rgb(64,64,64)"/>
<rect x="100" y="70" width="10" height="10" fill="rgb(128,128,128)"/>
<rect x="110" y="0" width="10" height="10" fill="rgb(223,223,223)"/>
<rect x="110" y="10" width="10" height="10" fill="rgb(191,191,191)"/>
<rect x="110" y="20" width="10" height="10" fill="rgb(159,159,159)"/>
<rect x="110" y="30" width="10" height="10" fill="rgb(96,96,96)"/>
<rect x="110" y="40" width="10" height="10" fill="rgb(32,32,32)"/>
<rect x="110" y="50" width="10" height="10" fill="rgb(64,64,64)"/>
<rect x="110" y="60" width="10" height="10" fill="rgb(0,0,0)"/>
<rect x="110" y="70" width="10" height="10" fill="rgb(128,128,128)"/>
<rect x="120" y="0" width="10" height="10" fill="rgb(223,223,223)"/>
<rect x="120" y="10" width="10" height="10" fill="rgb(191,191,191)"/>
<rect x="120" y="20" width="10" height="10" fill="rgb(159,159,159)"/>
<rect x="120" y="30" width="10" height="10" fill="rgb(96,96,96)"/>
<rect x="120" y="40" width="10" height="10" fill="rgb(64,64,64)"/>
<rect x="120" y="50" width="10" height="10" fill="rgb(32,32,32)"/>
<rect x="120" y="60" width="10" height="10" fill="rgb(0,0,0)"/>
<rect x="120" y="70" width="10" height="10" fill="rgb(128,128,128)"/>
<rect x="130" y="0" width="10" height="10" fill="rgb(223,223,223)"/>
<rect x="130" y="10" width="10" height="10" fill="rgb(191,191,191)"/>
<rect x="130" y="20" width="10" height="10" fill="rgb(159,159,159)"/>
<rect x="130" y="30" width="10" height="10" fill="rgb(96,96,96)"/>
<rect x="130" y="40" width="10" height="10" fill="rgb(64,64,64)"/>
<rect x="130" y="50" width="10" height="10" fill="rgb(32,32,32)"/>
<rect x="130" y="60" width="10" height="10" fill="rgb(128,128,128)"/>
<rect x="130" y="70" width="10" height="10" fill="rgb(0,0,0)"/>
<rect x="140" y="0" width="10" height="10" fill="rgb(223,223,223)"/>
<rect x="140" y="10" width="10" height="10" fill="rgb(191,191,191)"/>
<rect x="140" y="20" width="10" height="10" fill="rgb(159,159,159)"/>
<rect x="140" y="30" width="10" height="10" fill="rgb(96,96,96)"/>
<rect x="140" y="40" width="10" height="10" fill="rgb(64,64,64)"/>
<rect x="140" y="50" width="10" height="10" fill="rgb(128,128,128)"/>
<rect x="140" y="60" width="10" height="10" fill="rgb(32,32,32)"/>
<rect x="140" y="70" width="10" height="10" fill="rgb(0,0,0)"/>
<rect x="150" y="0" width="10" height="10" fill="rgb(223,223,223)"/>
<rect x="150" y="10" width="10" height="10" fill="rgb(191,191,191)"/>
<rect x="150" y="20" width="10" height="10" fill="rgb(159,159,159)"/>
<rect x="150" y="30" width="10" height="10" fill="rgb(96,96,96)"/>
<rect x="150" y="40" width="10" height="10" fill="rgb(128,128,128)"/>
<rect x="150" y="50" width="10" height="10" fill="rgb(64,64,64)"/>
<rect x="150" y="60" width="10" height="10" fill="rgb(32,32,32)"/>
<rect x="150" y="70" width="10" height="10" fill="rgb(0,0,0)"/>
<rect x="160" y="0" width="10" height="10" fill="rgb(223,223,223)"/>
<rect x="160" y="10" width="10" height="10" fill="rgb(191,191,191)"/>
<rect x="160" y="20" width="10" height="10" fill="rgb(159,159,159)"/>
<rect x="160" y="30" width="10" height="10" fill="rgb(128,128,128)"/>
<rect x="160" y="40" width="10" height="10" fill="rgb(96,96,96)"/>
<rect x="160" y="50" width="10" height="10" fill="rgb(64,64,64)"/>
<rect x="160" y="60" width="10" height="10" fill="rgb(32,32,32)"/>
<rect x="160" y="70" width="10" height="10" fill="rgb(0,0,0)"/>
</svg>