<svg xmlns="http://www.w3.org/2000/svg" width="161.8" height="100.0" viewBox="-3.4 -3.9 171.8 110.0">
<g fill="none" stroke="black" stroke-width="0.4600%" transform="translate(0, 102.1739) scale(1.0870, -1.0870)">
<circle cx="1.5" cy="1.0" r="0.5" />
<circle cx="3.0" cy="1.0" r="0.5" />
<circle cx="4.5" cy="3.0" r="0.5" />
<circle cx="6.0" cy="2.0" r="0.5" />
<circle cx="7.5" cy="1.0" r="0.5" />
<circle cx="9.0" cy="5.0" r="0.5" />
<circle cx="10.5" cy="3.0" r="0.5" />
<circle cx="12.0" cy="8.0" r="0.5" />
<circle cx="13.5" cy="5.0" r="0.5" />
<circle cx="15.0" cy="2.0" r="0.5" />
<circle cx="16.5" cy="9.0" r="0.5" />
<circle cx="18.0" cy="5.0" r="0.5" />
<circle cx="19.5" cy="1.0" r="0.5" />
<circle cx="21.1" cy="10.0" r="0.5" />
<circle cx="22.6" cy="5.0" r="0.5" />
<circle cx="24.1" cy="15.0" r="0.5" />
<circle cx="25.6" cy="9.0" r="0.5" />
<circle cx="27.1" cy="3.0" r="0.5" />
<circle cx="28.6" cy="15.0" r="0.5" />
<circle cx="30.1" cy="8.0" r="0.5" />
<circle cx="31.6" cy="21.0" r="0.5" />
<circle cx="33.1" cy="13.0" r="0.5" />
<circle cx="34.6" cy="5.0" r="0.5" />
<circle cx="36.1" cy="20.0" r="0.5" />
<circle cx="37.6" cy="11.0" r="0.5" />
<circle cx="39.1" cy="2.0" r="0.5" />
<circle cx="40.6" cy="19.0" r="0.5" />
<circle cx="42.1" cy="9.0" r="0.5" />
<circle cx="43.6" cy="27.0" r="0.5" />
<circle cx="45.1" cy="16.0" r="0.5" />
<circle cx="46.6" cy="5.0" r="0.5" />
<circle cx="48.1" cy="25.0" r="0.5" />
<circle cx="49.6" cy="13.0" r="0.5" />
<circle cx="51.1" cy="1.0" r="0.5" />
<circle cx="52.6" cy="23.0" r="0.5" />
<circle cx="54.1" cy="10.0" r="0.5" />
<circle cx="55.6" cy="33.0" r="0.5" />
<circle cx="57.1" cy="19.0" r="0.5" />
<circle cx="58.6" cy="5.0" r="0.5" />
<circle cx="60.1" cy="30.0" r="0.5" />
<circle cx="61.6" cy="15.0" r="0.5" />
<circle cx="63.2" cy="41.0" r="0.5" />
<circle cx="64.7" cy="25.0" r="0.5" />
<circle cx="66.2" cy="9.0" r="0.5" />
<circle cx="67.7" cy="37.0" r="0.5" />
<circle cx="69.2" cy="20.0" r="0.5" />
<circle cx="70.7" cy="3.0" r="0.5" />
<circle cx="72.2" cy="33.0" r="0.5" />
<circle cx="73.7" cy="15.0" r="0.5" />
<circle cx="75.2" cy="46.0" r="0.5" />
<circle cx="76.7" cy="27.0" r="0.5" />
<circle cx="78.2" cy="8.0" r="0.5" />
<circle cx="79.7" cy="41.0" r="0.5" />
<circle cx="81.2" cy="21.0" r="0.5" />
<circle cx="82.7" cy="55.0" r="0.5" />
<circle cx="84.2" cy="34.0" r="0.5" />
<circle cx="85.7" cy="13.0" r="0.5" />
<circle cx="87.2" cy="49.0" r="0.5" />
<circle cx="88.7" cy="27.0" r="0.5" />
<circle cx="90.2" cy="5.0" r="0.5" />
<circle cx="91.7" cy="43.0" r="0.5" />
<circle cx="93.2" cy="20.0" r="0.5" />
<circle cx="94.7" cy="59.0" r="0.5" />
<circle cx="96.2" cy="35.0" r="0.5" />
<circle cx="97.7" cy="11.0" r="0.5" />
<circle cx="99.2" cy="52.0" r="0.5" />
<circle cx="100.7" cy="27.0" r="0.5" />
<circle cx="102.2" cy="2.0" r="0.5" />
<circle cx="103.8" cy="45.0" r="0.5" />
<circle cx="105.3" cy="19.0" r="0.5" />
<circle cx="106.8" cy="63.0" r="0.5" />
<circle cx="108.3" cy="36.0" r="0.5" />
<circle cx="109.8" cy="9.0" r="0.5" />
<circle cx="111.3" cy="55.0" r="0.5" />
<circle cx="112.8" cy="27.0" r="0.5" />
<circle cx="114.3" cy="74.0" r="0.5" />
<circle cx="115.8" cy="45.0" r="0.5" />
<circle cx="117.3" cy="16.0" r="0.5" />
<circle cx="118.8" cy="65.0" r="0.5" />
<circle cx="120.3" cy="35.0" r="0.5" />
<circle cx="121.8" cy="5.0" r="0.5" />
<circle cx="123.3" cy="56.0" r="0.5" />
<circle cx="124.8" cy="25.0" r="0.5" />
<circle cx="126.3" cy="77.0" r="0.5" />
<circle cx="127.8" cy="45.0" r="0.5" />
<circle cx="129.3" cy="13.0" r="0.5" />
<circle cx="130.8" cy="67.0" r="0.5" />
<circle cx="132.3" cy="34.0" r="0.5" />
<circle cx="133.8" cy="1.0" r="0.5" />
<circle cx="135.3" cy="57.0" r="0.5" />
<circle cx="136.8" cy="23.0" r="0.5" />
<circle cx="138.3" cy="80.0" r="0.5" />
<circle cx="139.8" cy="45.0" r="0.5" />
<circle cx="141.3" cy="10.0" r="0.5" />
<circle cx="142.8" cy="69.0" r="0.5" />
<circle cx="144.3" cy="33.0" r="0.5" />
<circle cx="145.9" cy="93.0" r="0.5" />
<circle cx="147.4" cy="56.0" r="0.5" />
<circle cx="148.9" cy="19.0" r="0.5" />
<circle cx="150.4" cy="81.0" r="0.5" />
</g>
</svg>