<svg xmlns="http://www.w3.org/2000/svg" width="161.803" height="100.000" viewBox="-3.366 -4.491 171.803 110.000">
<g fill="none" stroke="black" stroke-width="0.005%" transform="translate(0, 101.018) scale(101.333, -101.333)">
<polyline points="0.016,0.618 0.032,0.236 0.048,0.854 0.065,0.472 0.081,0.090 0.097,0.708 0.113,0.326 0.129,0.944 0.145,0.562 0.161,0.180 0.177,0.798 0.194,0.416 0.210,0.034 0.226,0.652 0.242,0.271 0.258,0.889 0.274,0.507 0.290,0.125 0.306,0.743 0.323,0.361 0.339,0.979 0.355,0.597 0.371,0.215 0.387,0.833 0.403,0.451 0.419,0.069 0.435,0.687 0.452,0.305 0.468,0.923 0.484,0.541 0.500,0.159 0.516,0.777 0.532,0.395 0.548,0.013 0.565,0.631 0.581,0.249 0.597,0.867 0.613,0.485 0.629,0.103 0.645,0.721 0.661,0.339 0.677,0.957 0.694,0.575 0.710,0.193 0.726,0.812 0.742,0.430 0.758,0.048 0.774,0.666 0.790,0.284 0.806,0.902 0.823,0.520 0.839,0.138 0.855,0.756 0.871,0.374 0.887,0.992 0.903,0.610 0.919,0.228 0.935,0.846 0.952,0.464 0.968,0.082 0.984,0.700 1.000,0.318 1.016,0.936 1.032,0.554 1.048,0.172 1.064,0.790 1.081,0.408 1.097,0.026 1.113,0.644 1.129,0.262 1.145,0.880 1.161,0.498 1.177,0.116 1.194,0.735 1.210,0.353 1.226,0.971 1.242,0.589 1.258,0.207 1.274,0.825 1.290,0.443 1.306,0.061 1.323,0.679 1.339,0.297 1.355,0.915 1.371,0.533 1.387,0.151 1.403,0.769 1.419,0.387 1.435,0.005 1.452,0.623 1.468,0.241 1.484,0.859 1.500,0.477 1.516,0.095 1.532,0.713 1.548,0.331 1.564,0.949 1.581,0.567 1.597,0.185 1.613,0.803" />
</g>
</svg>