<svg xmlns="http://www.w3.org/2000/svg" width="161.8" height="100.0" viewBox="-3.366 -4.337 171.803 110.000">
<g fill="none" stroke="black" stroke-width="0.0050%" transform="translate(0, 101.3263) scale(100.8197, -100.8197)">
<circle cx="0.016" cy="0.118" r="0.005" />
<circle cx="0.032" cy="0.736" r="0.005" />
<circle cx="0.049" cy="0.354" r="0.005" />
<circle cx="0.065" cy="0.972" r="0.005" />
<circle cx="0.081" cy="0.590" r="0.005" />
<circle cx="0.097" cy="0.208" r="0.005" />
<circle cx="0.113" cy="0.826" r="0.005" />
<circle cx="0.130" cy="0.444" r="0.005" />
<circle cx="0.146" cy="0.062" r="0.005" />
<circle cx="0.162" cy="0.680" r="0.005" />
<circle cx="0.178" cy="0.298" r="0.005" />
<circle cx="0.195" cy="0.916" r="0.005" />
<circle cx="0.211" cy="0.534" r="0.005" />
<circle cx="0.227" cy="0.152" r="0.005" />
<circle cx="0.243" cy="0.771" r="0.005" />
<circle cx="0.259" cy="0.389" r="0.005" />
<circle cx="0.276" cy="0.007" r="0.005" />
<circle cx="0.292" cy="0.625" r="0.005" />
<circle cx="0.308" cy="0.243" r="0.005" />
<circle cx="0.324" cy="0.861" r="0.005" />
<circle cx="0.340" cy="0.479" r="0.005" />
<circle cx="0.357" cy="0.097" r="0.005" />
<circle cx="0.373" cy="0.715" r="0.005" />
<circle cx="0.389" cy="0.333" r="0.005" />
<circle cx="0.405" cy="0.951" r="0.005" />
<circle cx="0.421" cy="0.569" r="0.005" />
<circle cx="0.438" cy="0.187" r="0.005" />
<circle cx="0.454" cy="0.805" r="0.005" />
<circle cx="0.470" cy="0.423" r="0.005" />
<circle cx="0.486" cy="0.041" r="0.005" />
<circle cx="0.503" cy="0.659" r="0.005" />
<circle cx="0.519" cy="0.277" r="0.005" />
<circle cx="0.535" cy="0.895" r="0.005" />
<circle cx="0.551" cy="0.513" r="0.005" />
<circle cx="0.567" cy="0.131" r="0.005" />
<circle cx="0.584" cy="0.749" r="0.005" />
<circle cx="0.600" cy="0.367" r="0.005" />
<circle cx="0.616" cy="0.985" r="0.005" />
<circle cx="0.632" cy="0.603" r="0.005" />
<circle cx="0.648" cy="0.221" r="0.005" />
<circle cx="0.665" cy="0.839" r="0.005" />
<circle cx="0.681" cy="0.457" r="0.005" />
<circle cx="0.697" cy="0.075" r="0.005" />
<circle cx="0.713" cy="0.693" r="0.005" />
<circle cx="0.729" cy="0.312" r="0.005" />
<circle cx="0.746" cy="0.930" r="0.005" />
<circle cx="0.762" cy="0.548" r="0.005" />
<circle cx="0.778" cy="0.166" r="0.005" />
<circle cx="0.794" cy="0.784" r="0.005" />
<circle cx="0.811" cy="0.402" r="0.005" />
<circle cx="0.827" cy="0.020" r="0.005" />
<circle cx="0.843" cy="0.638" r="0.005" />
<circle cx="0.859" cy="0.256" r="0.005" />
<circle cx="0.875" cy="0.874" r="0.005" />
<circle cx="0.892" cy="0.492" r="0.005" />
<circle cx="0.908" cy="0.110" r="0.005" />
<circle cx="0.924" cy="0.728" r="0.005" />
<circle cx="0.940" cy="0.346" r="0.005" />
<circle cx="0.956" cy="0.964" r="0.005" />
<circle cx="0.973" cy="0.582" r="0.005" />
<circle cx="0.989" cy="0.200" r="0.005" />
<circle cx="1.005" cy="0.818" r="0.005" />
<circle cx="1.021" cy="0.436" r="0.005" />
<circle cx="1.037" cy="0.054" r="0.005" />
<circle cx="1.054" cy="0.672" r="0.005" />
<circle cx="1.070" cy="0.290" r="0.005" />
<circle cx="1.086" cy="0.908" r="0.005" />
<circle cx="1.102" cy="0.526" r="0.005" />
<circle cx="1.119" cy="0.144" r="0.005" />
<circle cx="1.135" cy="0.762" r="0.005" />
<circle cx="1.151" cy="0.380" r="0.005" />
<circle cx="1.167" cy="0.998" r="0.005" />
<circle cx="1.183" cy="0.616" r="0.005" />
<circle cx="1.200" cy="0.235" r="0.005" />
<circle cx="1.216" cy="0.853" r="0.005" />
<circle cx="1.232" cy="0.471" r="0.005" />
<circle cx="1.248" cy="0.089" r="0.005" />
<circle cx="1.264" cy="0.707" r="0.005" />
<circle cx="1.281" cy="0.325" r="0.005" />
<circle cx="1.297" cy="0.943" r="0.005" />
<circle cx="1.313" cy="0.561" r="0.005" />
<circle cx="1.329" cy="0.179" r="0.005" />
<circle cx="1.346" cy="0.797" r="0.005" />
<circle cx="1.362" cy="0.415" r="0.005" />
<circle cx="1.378" cy="0.033" r="0.005" />
<circle cx="1.394" cy="0.651" r="0.005" />
<circle cx="1.410" cy="0.269" r="0.005" />
<circle cx="1.427" cy="0.887" r="0.005" />
<circle cx="1.443" cy="0.505" r="0.005" />
<circle cx="1.459" cy="0.123" r="0.005" />
<circle cx="1.475" cy="0.741" r="0.005" />
<circle cx="1.491" cy="0.359" r="0.005" />
<circle cx="1.508" cy="0.977" r="0.005" />
<circle cx="1.524" cy="0.595" r="0.005" />
<circle cx="1.540" cy="0.213" r="0.005" />
<circle cx="1.556" cy="0.831" r="0.005" />
<circle cx="1.572" cy="0.449" r="0.005" />
<circle cx="1.589" cy="0.067" r="0.005" />
<circle cx="1.605" cy="0.685" r="0.005" />
<circle cx="1.621" cy="0.303" r="0.005" />
</g>
</svg>