<svg xmlns="http://www.w3.org/2000/svg" width="161.7" height="100.0" viewBox="-3 -5 172 110">
<g fill="none" stroke="black" stroke-width="6.2300%" transform="translate(0, 100.0000) scale(0.0803, -0.0803)">
<line x1="21" y1="0" x2="21" y2="1" />
<line x1="42" y1="0" x2="42" y2="3" />
<line x1="62" y1="0" x2="62" y2="5" />
<line x1="83" y1="0" x2="83" y2="8" />
<line x1="104" y1="0" x2="104" y2="11" />
<line x1="125" y1="0" x2="125" y2="15" />
<line x1="145" y1="0" x2="145" y2="19" />
<line x1="166" y1="0" x2="166" y2="23" />
<line x1="187" y1="0" x2="187" y2="28" />
<line x1="208" y1="0" x2="208" y2="33" />
<line x1="228" y1="0" x2="228" y2="38" />
<line x1="249" y1="0" x2="249" y2="44" />
<line x1="270" y1="0" x2="270" y2="50" />
<line x1="291" y1="0" x2="291" y2="56" />
<line x1="312" y1="0" x2="312" y2="62" />
<line x1="332" y1="0" x2="332" y2="69" />
<line x1="353" y1="0" x2="353" y2="76" />
<line x1="374" y1="0" x2="374" y2="83" />
<line x1="395" y1="0" x2="395" y2="90" />
<line x1="415" y1="0" x2="415" y2="98" />
<line x1="436" y1="0" x2="436" y2="106" />
<line x1="457" y1="0" x2="457" y2="114" />
<line x1="478" y1="0" x2="478" y2="122" />
<line x1="498" y1="0" x2="498" y2="131" />
<line x1="519" y1="0" x2="519" y2="140" />
<line x1="540" y1="0" x2="540" y2="149" />
<line x1="561" y1="0" x2="561" y2="158" />
<line x1="581" y1="0" x2="581" y2="167" />
<line x1="602" y1="0" x2="602" y2="177" />
<line x1="623" y1="0" x2="623" y2="187" />
<line x1="644" y1="0" x2="644" y2="197" />
<line x1="665" y1="0" x2="665" y2="207" />
<line x1="685" y1="0" x2="685" y2="217" />
<line x1="706" y1="0" x2="706" y2="228" />
<line x1="727" y1="0" x2="727" y2="239" />
<line x1="748" y1="0" x2="748" y2="250" />
<line x1="768" y1="0" x2="768" y2="261" />
<line x1="789" y1="0" x2="789" y2="272" />
<line x1="810" y1="0" x2="810" y2="284" />
<line x1="831" y1="0" x2="831" y2="296" />
<line x1="851" y1="0" x2="851" y2="308" />
<line x1="872" y1="0" x2="872" y2="320" />
<line x1="893" y1="0" x2="893" y2="332" />
<line x1="914" y1="0" x2="914" y2="344" />
<line x1="935" y1="0" x2="935" y2="357" />
<line x1="955" y1="0" x2="955" y2="370" />
<line x1="976" y1="0" x2="976" y2="383" />
<line x1="997" y1="0" x2="997" y2="396" />
<line x1="1018" y1="0" x2="1018" y2="409" />
<line x1="1038" y1="0" x2="1038" y2="422" />
<line x1="1059" y1="0" x2="1059" y2="436" />
<line x1="1080" y1="0" x2="1080" y2="450" />
<line x1="1101" y1="0" x2="1101" y2="464" />
<line x1="1121" y1="0" x2="1121" y2="478" />
<line x1="1142" y1="0" x2="1142" y2="492" />
<line x1="1163" y1="0" x2="1163" y2="506" />
<line x1="1184" y1="0" x2="1184" y2="521" />
<line x1="1205" y1="0" x2="1205" y2="536" />
<line x1="1225" y1="0" x2="1225" y2="551" />
<line x1="1246" y1="0" x2="1246" y2="566" />
<line x1="1267" y1="0" x2="1267" y2="581" />
<line x1="1288" y1="0" x2="1288" y2="596" />
<line x1="1308" y1="0" x2="1308" y2="612" />
<line x1="1329" y1="0" x2="1329" y2="628" />
<line x1="1350" y1="0" x2="1350" y2="644" />
<line x1="1371" y1="0" x2="1371" y2="660" />
<line x1="1391" y1="0" x2="1391" y2="676" />
<line x1="1412" y1="0" x2="1412" y2="692" />
<line x1="1433" y1="0" x2="1433" y2="708" />
<line x1="1454" y1="0" x2="1454" y2="725" />
<line x1="1474" y1="0" x2="1474" y2="742" />
<line x1="1495" y1="0" x2="1495" y2="759" />
<line x1="1516" y1="0" x2="1516" y2="776" />
<line x1="1537" y1="0" x2="1537" y2="793" />
<line x1="1558" y1="0" x2="1558" y2="810" />
<line x1="1578" y1="0" x2="1578" y2="827" />
<line x1="1599" y1="0" x2="1599" y2="845" />
<line x1="1620" y1="0" x2="1620" y2="863" />
<line x1="1641" y1="0" x2="1641" y2="881" />
<line x1="1661" y1="0" x2="1661" y2="899" />
<line x1="1682" y1="0" x2="1682" y2="917" />
<line x1="1703" y1="0" x2="1703" y2="935" />
<line x1="1724" y1="0" x2="1724" y2="953" />
<line x1="1744" y1="0" x2="1744" y2="972" />
<line x1="1765" y1="0" x2="1765" y2="991" />
<line x1="1786" y1="0" x2="1786" y2="1010" />
<line x1="1807" y1="0" x2="1807" y2="1029" />
<line x1="1828" y1="0" x2="1828" y2="1048" />
<line x1="1848" y1="0" x2="1848" y2="1067" />
<line x1="1869" y1="0" x2="1869" y2="1086" />
<line x1="1890" y1="0" x2="1890" y2="1106" />
<line x1="1911" y1="0" x2="1911" y2="1126" />
<line x1="1931" y1="0" x2="1931" y2="1146" />
<line x1="1952" y1="0" x2="1952" y2="1166" />
<line x1="1973" y1="0" x2="1973" y2="1186" />
<line x1="1994" y1="0" x2="1994" y2="1206" />
<line x1="2014" y1="0" x2="2014" y2="1226" />
<line x1="2035" y1="0" x2="2035" y2="1246" />
</g>
</svg>