<svg xmlns="http://www.w3.org/2000/svg" width="161.8" height="100.0" viewBox="-58.934 -5.000 171.803 110.000">
<g fill="none" stroke="black" stroke-width="0.0050%" transform="translate(0, 100.0000) scale(100.0006, -100.0006)">
<polyline points="-0.539,0.011 -0.523,0.014 -0.507,0.017 -0.491,0.020 -0.475,0.024 -0.458,0.028 -0.442,0.033 -0.426,0.038 -0.410,0.044 -0.394,0.050 -0.378,0.057 -0.361,0.065 -0.345,0.073 -0.329,0.082 -0.313,0.092 -0.297,0.102 -0.280,0.113 -0.264,0.124 -0.248,0.136 -0.232,0.149 -0.216,0.162 -0.200,0.175 -0.183,0.189 -0.167,0.204 -0.151,0.218 -0.135,0.233 -0.119,0.249 -0.102,0.265 -0.086,0.280 -0.070,0.297 -0.054,0.313 -0.038,0.329 -0.022,0.346 -0.005,0.362 0.011,0.379 0.027,0.395 0.043,0.412 0.059,0.428 0.076,0.445 0.092,0.461 0.108,0.477 0.124,0.493 0.140,0.508 0.156,0.523 0.173,0.539 0.189,0.553 0.205,0.568 0.221,0.582 0.237,0.596 0.253,0.610 0.270,0.624 0.286,0.637 0.302,0.649 0.318,0.662 0.334,0.674 0.351,0.686 0.367,0.697 0.383,0.708 0.399,0.719 0.415,0.730 0.431,0.740 0.448,0.750 0.464,0.759 0.480,0.769 0.496,0.778 0.512,0.786 0.529,0.795 0.545,0.803 0.561,0.810 0.577,0.818 0.593,0.825 0.609,0.832 0.626,0.839 0.642,0.846 0.658,0.852 0.674,0.858 0.690,0.864 0.707,0.869 0.723,0.875 0.739,0.880 0.755,0.885 0.771,0.890 0.787,0.894 0.804,0.899 0.820,0.903 0.836,0.907 0.852,0.911 0.868,0.915 0.885,0.918 0.901,0.922 0.917,0.925 0.933,0.928 0.949,0.931 0.965,0.934 0.982,0.937 0.998,0.940 1.014,0.942 1.030,0.945 1.046,0.947 1.063,0.949 1.079,0.951" />
<polyline points="-0.539,0.000 -0.523,0.000 -0.507,0.000 -0.491,0.000 -0.475,0.000 -0.458,0.000 -0.442,0.000 -0.426,0.000 -0.410,0.000 -0.394,0.000 -0.378,0.000 -0.361,0.001 -0.345,0.001 -0.329,0.002 -0.313,0.003 -0.297,0.005 -0.280,0.009 -0.264,0.013 -0.248,0.019 -0.232,0.026 -0.216,0.036 -0.200,0.048 -0.183,0.062 -0.167,0.079 -0.151,0.099 -0.135,0.120 -0.119,0.144 -0.102,0.171 -0.086,0.199 -0.070,0.228 -0.054,0.259 -0.038,0.291 -0.022,0.324 -0.005,0.357 0.011,0.390 0.027,0.423 0.043,0.455 0.059,0.487 0.076,0.518 0.092,0.549 0.108,0.578 0.124,0.606 0.140,0.632 0.156,0.658 0.173,0.682 0.189,0.705 0.205,0.726 0.221,0.747 0.237,0.766 0.253,0.783 0.270,0.800 0.286,0.816 0.302,0.830 0.318,0.843 0.334,0.856 0.351,0.867 0.367,0.878 0.383,0.888 0.399,0.897 0.415,0.906 0.431,0.913 0.448,0.920 0.464,0.927 0.480,0.933 0.496,0.939 0.512,0.944 0.529,0.949 0.545,0.953 0.561,0.957 0.577,0.960 0.593,0.964 0.609,0.967 0.626,0.970 0.642,0.972 0.658,0.975 0.674,0.977 0.690,0.979 0.707,0.981 0.723,0.982 0.739,0.984 0.755,0.985 0.771,0.986 0.787,0.988 0.804,0.989 0.820,0.990 0.836,0.990 0.852,0.991 0.868,0.992 0.885,0.993 0.901,0.993 0.917,0.994 0.933,0.994 0.949,0.995 0.965,0.995 0.982,0.996 0.998,0.996 1.014,0.996 1.030,0.997 1.046,0.997 1.063,0.997 1.079,0.998" />
<polyline points="-0.539,0.000 -0.523,0.000 -0.507,0.000 -0.491,0.000 -0.475,0.000 -0.458,0.000 -0.442,0.000 -0.426,0.000 -0.410,0.000 -0.394,0.000 -0.378,0.000 -0.361,0.000 -0.345,0.000 -0.329,0.000 -0.313,0.000 -0.297,0.000 -0.280,0.000 -0.264,0.000 -0.248,0.000 -0.232,0.000 -0.216,0.000 -0.200,0.000 -0.183,0.000 -0.167,0.002 -0.151,0.005 -0.135,0.011 -0.119,0.024 -0.102,0.044 -0.086,0.073 -0.070,0.113 -0.054,0.162 -0.038,0.218 -0.022,0.280 -0.005,0.346 0.011,0.412 0.027,0.477 0.043,0.539 0.059,0.596 0.076,0.649 0.092,0.697 0.108,0.740 0.124,0.778 0.140,0.810 0.156,0.839 0.173,0.864 0.189,0.885 0.205,0.903 0.221,0.918 0.237,0.931 0.253,0.942 0.270,0.951 0.286,0.959 0.302,0.966 0.318,0.971 0.334,0.976 0.351,0.980 0.367,0.983 0.383,0.986 0.399,0.988 0.415,0.990 0.431,0.992 0.448,0.993 0.464,0.994 0.480,0.995 0.496,0.996 0.512,0.997 0.529,0.997 0.545,0.998 0.561,0.998 0.577,0.998 0.593,0.999 0.609,0.999 0.626,0.999 0.642,0.999 0.658,0.999 0.674,0.999 0.690,1.000 0.707,1.000 0.723,1.000 0.739,1.000 0.755,1.000 0.771,1.000 0.787,1.000 0.804,1.000 0.820,1.000 0.836,1.000 0.852,1.000 0.868,1.000 0.885,1.000 0.901,1.000 0.917,1.000 0.933,1.000 0.949,1.000 0.965,1.000 0.982,1.000 0.998,1.000 1.014,1.000 1.030,1.000 1.046,1.000 1.063,1.000 1.079,1.000" />
</g>
</svg>