<svg xmlns="http://www.w3.org/2000/svg" width="161.8" height="100.0" viewBox="-58.934 -31.894 171.803 110.000">
<g fill="none" stroke="black" stroke-width="0.0093%" transform="translate(0, 46.2117) scale(53.9218, -53.9218)">
<circle cx="-1.000" cy="0.000" r="0.009" />
<circle cx="0.000" cy="1.356" r="0.009" />
<polyline points="-1.000,-0.000 -0.970,-0.000 -0.940,-0.000 -0.910,-0.000 -0.880,-0.000 -0.850,-0.000 -0.820,-0.000 -0.790,-0.000 -0.760,-0.000 -0.730,-0.000 -0.700,-0.000 -0.670,-0.000 -0.640,-0.001 -0.610,-0.001 -0.580,-0.002 -0.550,-0.003 -0.520,-0.004 -0.490,-0.006 -0.460,-0.009 -0.430,-0.013 -0.400,-0.018 -0.370,-0.024 -0.340,-0.031 -0.310,-0.040 -0.280,-0.049 -0.250,-0.060 -0.220,-0.072 -0.190,-0.085 -0.160,-0.099 -0.130,-0.114 -0.100,-0.130 -0.070,-0.146 -0.040,-0.162 -0.010,-0.178 0.020,-0.195 0.050,-0.211 0.080,-0.228 0.110,-0.244 0.140,-0.259 0.170,-0.274 0.200,-0.289 0.230,-0.303 0.260,-0.316 0.290,-0.329 0.320,-0.341 0.350,-0.352 0.380,-0.363 0.410,-0.373 0.440,-0.383 0.470,-0.392 0.500,-0.400 0.530,-0.408 0.560,-0.415 0.590,-0.422 0.620,-0.428 0.650,-0.434 0.680,-0.439 0.710,-0.444 0.740,-0.449 0.770,-0.453 0.800,-0.457 0.830,-0.460 0.860,-0.464 0.890,-0.467 0.920,-0.469 0.950,-0.472 0.980,-0.474 1.010,-0.476 1.040,-0.478 1.070,-0.480 1.100,-0.482 1.130,-0.483 1.160,-0.485 1.190,-0.486 1.220,-0.487 1.250,-0.488 1.280,-0.489 1.310,-0.490 1.340,-0.491 1.370,-0.492 1.400,-0.493 1.430,-0.493 1.460,-0.494 1.490,-0.494 1.520,-0.495 1.550,-0.495 1.580,-0.496 1.610,-0.496 1.640,-0.496 1.670,-0.497 1.700,-0.497 1.730,-0.497 1.760,-0.497 1.790,-0.498 1.820,-0.498 1.850,-0.498 1.880,-0.498 1.910,-0.498 1.940,-0.499 1.970,-0.499 2.000,-0.499" />
<polyline points="-1.000,0.000 -0.970,0.000 -0.940,0.000 -0.910,0.000 -0.880,0.000 -0.850,0.000 -0.820,0.000 -0.790,0.000 -0.760,0.000 -0.730,0.000 -0.700,0.000 -0.670,0.001 -0.640,0.001 -0.610,0.002 -0.580,0.003 -0.550,0.005 -0.520,0.009 -0.490,0.013 -0.460,0.019 -0.430,0.026 -0.400,0.036 -0.370,0.048 -0.340,0.062 -0.310,0.079 -0.280,0.099 -0.250,0.120 -0.220,0.144 -0.190,0.171 -0.160,0.199 -0.130,0.228 -0.100,0.259 -0.070,0.291 -0.040,0.324 -0.010,0.357 0.020,0.390 0.050,0.423 0.080,0.455 0.110,0.487 0.140,0.518 0.170,0.549 0.200,0.578 0.230,0.606 0.260,0.632 0.290,0.658 0.320,0.682 0.350,0.705 0.380,0.726 0.410,0.747 0.440,0.766 0.470,0.783 0.500,0.800 0.530,0.816 0.560,0.830 0.590,0.843 0.620,0.856 0.650,0.867 0.680,0.878 0.710,0.888 0.740,0.897 0.770,0.906 0.800,0.913 0.830,0.920 0.860,0.927 0.890,0.933 0.920,0.939 0.950,0.944 0.980,0.949 1.010,0.953 1.040,0.957 1.070,0.960 1.100,0.964 1.130,0.967 1.160,0.970 1.190,0.972 1.220,0.975 1.250,0.977 1.280,0.979 1.310,0.981 1.340,0.982 1.370,0.984 1.400,0.985 1.430,0.986 1.460,0.988 1.490,0.989 1.520,0.990 1.550,0.990 1.580,0.991 1.610,0.992 1.640,0.993 1.670,0.993 1.700,0.994 1.730,0.994 1.760,0.995 1.790,0.995 1.820,0.996 1.850,0.996 1.880,0.996 1.910,0.997 1.940,0.997 1.970,0.997 2.000,0.998" />
<polyline points="-1.000,0.000 -0.970,0.000 -0.940,0.000 -0.910,0.000 -0.880,0.000 -0.850,0.000 -0.820,0.000 -0.790,0.000 -0.760,0.000 -0.730,0.000 -0.700,0.000 -0.670,0.001 -0.640,0.001 -0.610,0.003 -0.580,0.005 -0.550,0.007 -0.520,0.012 -0.490,0.018 -0.460,0.026 -0.430,0.036 -0.400,0.049 -0.370,0.065 -0.340,0.085 -0.310,0.108 -0.280,0.134 -0.250,0.164 -0.220,0.196 -0.190,0.232 -0.160,0.270 -0.130,0.310 -0.100,0.352 -0.070,0.396 -0.040,0.440 -0.010,0.485 0.020,0.530 0.050,0.575 0.080,0.619 0.110,0.662 0.140,0.705 0.170,0.746 0.200,0.785 0.230,0.823 0.260,0.859 0.290,0.894 0.320,0.927 0.350,0.958 0.380,0.987 0.410,1.015 0.440,1.041 0.470,1.065 0.500,1.087 0.530,1.108 0.560,1.128 0.590,1.146 0.620,1.163 0.650,1.179 0.680,1.193 0.710,1.207 0.740,1.219 0.770,1.231 0.800,1.241 0.830,1.251 0.860,1.260 0.890,1.268 0.920,1.276 0.950,1.283 0.980,1.289 1.010,1.295 1.040,1.300 1.070,1.305 1.100,1.310 1.130,1.314 1.160,1.318 1.190,1.321 1.220,1.325 1.250,1.328 1.280,1.330 1.310,1.333 1.340,1.335 1.370,1.337 1.400,1.339 1.430,1.341 1.460,1.342 1.490,1.344 1.520,1.345 1.550,1.346 1.580,1.347 1.610,1.348 1.640,1.349 1.670,1.350 1.700,1.351 1.730,1.352 1.760,1.352 1.790,1.353 1.820,1.353 1.850,1.354 1.880,1.354 1.910,1.355 1.940,1.355 1.970,1.355 2.000,1.356" />
</g>
</svg>