<svg xmlns="http://www.w3.org/2000/svg" width="105.5" height="100.0" viewBox="-35.69 -98.69 115.52 110.00">
<g fill="none" stroke="black" stroke-width="0.0396%" transform="translate(0, -87.3868) scale(12.6132, -12.6132)">
<polygon points="0.00,0.50 -0.43,0.25 -0.43,-0.25 -0.00,-0.50 0.43,-0.25 0.43,0.25" />
<polygon points="1.00,0.50 0.57,0.25 0.57,-0.25 1.00,-0.50 1.43,-0.25 1.43,0.25" />
<polygon points="1.50,-0.37 1.07,-0.62 1.07,-1.12 1.50,-1.37 1.93,-1.12 1.93,-0.62" />
<polygon points="0.50,-0.37 0.07,-0.62 0.07,-1.12 0.50,-1.37 0.93,-1.12 0.93,-0.62" />
<polygon points="-0.00,-1.23 -0.43,-1.48 -0.43,-1.98 -0.00,-2.23 0.43,-1.98 0.43,-1.48" />
<polygon points="1.00,-1.23 0.57,-1.48 0.57,-1.98 1.00,-2.23 1.43,-1.98 1.43,-1.48" />
<polygon points="2.00,-1.23 1.57,-1.48 1.57,-1.98 2.00,-2.23 2.43,-1.98 2.43,-1.48" />
<polygon points="2.50,-0.37 2.07,-0.62 2.07,-1.12 2.50,-1.37 2.93,-1.12 2.93,-0.62" />
<polygon points="3.50,-0.37 3.07,-0.62 3.07,-1.12 3.50,-1.37 3.93,-1.12 3.93,-0.62" />
<polygon points="4.00,-1.23 3.57,-1.48 3.57,-1.98 4.00,-2.23 4.43,-1.98 4.43,-1.48" />
<polygon points="4.50,-2.10 4.07,-2.35 4.07,-2.85 4.50,-3.10 4.93,-2.85 4.93,-2.35" />
<polygon points="3.50,-2.10 3.07,-2.35 3.07,-2.85 3.50,-3.10 3.93,-2.85 3.93,-2.35" />
<polygon points="3.00,-1.23 2.57,-1.48 2.57,-1.98 3.00,-2.23 3.43,-1.98 3.43,-1.48" />
<polygon points="2.50,-2.10 2.07,-2.35 2.07,-2.85 2.50,-3.10 2.93,-2.85 2.93,-2.35" />
<polygon points="3.00,-2.96 2.57,-3.21 2.57,-3.71 3.00,-3.96 3.43,-3.71 3.43,-3.21" />
<polygon points="2.50,-3.83 2.07,-4.08 2.07,-4.58 2.50,-4.83 2.93,-4.58 2.93,-4.08" />
<polygon points="1.50,-3.83 1.07,-4.08 1.07,-4.58 1.50,-4.83 1.93,-4.58 1.93,-4.08" />
<polygon points="0.50,-3.83 0.07,-4.08 0.07,-4.58 0.50,-4.83 0.93,-4.58 0.93,-4.08" />
<polygon points="1.00,-2.96 0.57,-3.21 0.57,-3.71 1.00,-3.96 1.43,-3.71 1.43,-3.21" />
<polygon points="2.00,-2.96 1.57,-3.21 1.57,-3.71 2.00,-3.96 2.43,-3.71 2.43,-3.21" />
<polygon points="1.50,-2.10 1.07,-2.35 1.07,-2.85 1.50,-3.10 1.93,-2.85 1.93,-2.35" />
<polygon points="0.50,-2.10 0.07,-2.35 0.07,-2.85 0.50,-3.10 0.93,-2.85 0.93,-2.35" />
<polygon points="-0.00,-2.96 -0.43,-3.21 -0.43,-3.71 -0.00,-3.96 0.43,-3.71 0.43,-3.21" />
<polygon points="-1.00,-2.96 -1.43,-3.21 -1.43,-3.71 -1.00,-3.96 -0.57,-3.71 -0.57,-3.21" />
<polygon points="-0.50,-2.10 -0.93,-2.35 -0.93,-2.85 -0.50,-3.10 -0.07,-2.85 -0.07,-2.35" />
<polygon points="-1.00,-1.23 -1.43,-1.48 -1.43,-1.98 -1.00,-2.23 -0.57,-1.98 -0.57,-1.48" />
<polygon points="-1.50,-2.10 -1.93,-2.35 -1.93,-2.85 -1.50,-3.10 -1.07,-2.85 -1.07,-2.35" />
<polygon points="-2.00,-2.96 -2.43,-3.21 -2.43,-3.71 -2.00,-3.96 -1.57,-3.71 -1.57,-3.21" />
<polygon points="-1.50,-3.83 -1.93,-4.08 -1.93,-4.58 -1.50,-4.83 -1.07,-4.58 -1.07,-4.08" />
<polygon points="-0.50,-3.83 -0.93,-4.08 -0.93,-4.58 -0.50,-4.83 -0.07,-4.58 -0.07,-4.08" />
<polygon points="-0.00,-4.70 -0.43,-4.95 -0.43,-5.45 -0.00,-5.70 0.43,-5.45 0.43,-4.95" />
<polygon points="-1.00,-4.70 -1.43,-4.95 -1.43,-5.45 -1.00,-5.70 -0.57,-5.45 -0.57,-4.95" />
<polygon points="-1.50,-5.56 -1.93,-5.81 -1.93,-6.31 -1.50,-6.56 -1.07,-6.31 -1.07,-5.81" />
<polygon points="-0.50,-5.56 -0.93,-5.81 -0.93,-6.31 -0.50,-6.56 -0.07,-6.31 -0.07,-5.81" />
<polygon points="0.50,-5.56 0.07,-5.81 0.07,-6.31 0.50,-6.56 0.93,-6.31 0.93,-5.81" />
<polygon points="1.00,-4.70 0.57,-4.95 0.57,-5.45 1.00,-5.70 1.43,-5.45 1.43,-4.95" />
<polygon points="2.00,-4.70 1.57,-4.95 1.57,-5.45 2.00,-5.70 2.43,-5.45 2.43,-4.95" />
<polygon points="2.50,-5.56 2.07,-5.81 2.07,-6.31 2.50,-6.56 2.93,-6.31 2.93,-5.81" />
<polygon points="1.50,-5.56 1.07,-5.81 1.07,-6.31 1.50,-6.56 1.93,-6.31 1.93,-5.81" />
<polygon points="1.00,-6.43 0.57,-6.68 0.57,-7.18 1.00,-7.43 1.43,-7.18 1.43,-6.68" />
<polygon points="2.00,-6.43 1.57,-6.68 1.57,-7.18 2.00,-7.43 2.43,-7.18 2.43,-6.68" />
<polygon points="3.00,-6.43 2.57,-6.68 2.57,-7.18 3.00,-7.43 3.43,-7.18 3.43,-6.68" />
<polygon points="3.50,-5.56 3.07,-5.81 3.07,-6.31 3.50,-6.56 3.93,-6.31 3.93,-5.81" />
<polygon points="3.00,-4.70 2.57,-4.95 2.57,-5.45 3.00,-5.70 3.43,-5.45 3.43,-4.95" />
<polygon points="3.50,-3.83 3.07,-4.08 3.07,-4.58 3.50,-4.83 3.93,-4.58 3.93,-4.08" />
<polygon points="4.00,-2.96 3.57,-3.21 3.57,-3.71 4.00,-3.96 4.43,-3.71 4.43,-3.21" />
<polygon points="4.50,-3.83 4.07,-4.08 4.07,-4.58 4.50,-4.83 4.93,-4.58 4.93,-4.08" />
<polygon points="4.00,-4.70 3.57,-4.95 3.57,-5.45 4.00,-5.70 4.43,-5.45 4.43,-4.95" />
<polygon points="5.00,-4.70 4.57,-4.95 4.57,-5.45 5.00,-5.70 5.43,-5.45 5.43,-4.95" />
<polygon points="5.50,-3.83 5.07,-4.08 5.07,-4.58 5.50,-4.83 5.93,-4.58 5.93,-4.08" />
</g>
</svg>