<svg xmlns="http://www.w3.org/2000/svg" width="96.2" height="100.0" viewBox="-50.71 -105.00 106.23 110.00">
<g fill="none" stroke="black" stroke-width="0.1039%" transform="translate(0, -100.0000) scale(4.8113, -4.8113)">
<polyline points="0.00,0.00 1.00,0.00 1.50,-0.87 0.50,-0.87 -0.00,-1.73 1.00,-1.73 2.00,-1.73 2.50,-0.87 3.50,-0.87 4.00,-1.73 4.50,-2.60 3.50,-2.60 3.00,-1.73 2.50,-2.60 3.00,-3.46 2.50,-4.33 1.50,-4.33 0.50,-4.33 1.00,-3.46 2.00,-3.46 1.50,-2.60 0.50,-2.60 -0.00,-3.46 -1.00,-3.46 -0.50,-2.60 -1.00,-1.73 -1.50,-2.60 -2.00,-3.46 -1.50,-4.33 -0.50,-4.33 -0.00,-5.20 -1.00,-5.20 -1.50,-6.06 -0.50,-6.06 0.50,-6.06 1.00,-5.20 2.00,-5.20 2.50,-6.06 1.50,-6.06 1.00,-6.93 2.00,-6.93 3.00,-6.93 3.50,-6.06 3.00,-5.20 3.50,-4.33 4.00,-3.46 4.50,-4.33 4.00,-5.20 5.00,-5.20 5.50,-4.33 6.50,-4.33 7.00,-5.20 6.00,-5.20 5.50,-6.06 6.50,-6.06 7.50,-6.06 8.00,-5.20 9.00,-5.20 9.50,-6.06 10.00,-6.93 9.00,-6.93 8.50,-6.06 8.00,-6.93 8.50,-7.79 9.50,-7.79 10.00,-8.66 10.50,-9.53 9.50,-9.53 9.00,-8.66 8.50,-9.53 9.00,-10.39 8.50,-11.26 7.50,-11.26 6.50,-11.26 7.00,-10.39 8.00,-10.39 7.50,-9.53 6.50,-9.53 6.00,-8.66 6.50,-7.79 7.00,-8.66 8.00,-8.66 7.50,-7.79 7.00,-6.93 6.00,-6.93 5.50,-7.79 4.50,-7.79 5.00,-6.93 4.50,-6.06 4.00,-6.93 3.50,-7.79 4.00,-8.66 5.00,-8.66 5.50,-9.53 6.00,-10.39 5.00,-10.39 4.50,-9.53 4.00,-10.39 4.50,-11.26 4.00,-12.12 3.00,-12.12 3.50,-11.26 3.00,-10.39 2.50,-11.26 2.00,-12.12 2.50,-12.99 2.00,-13.86 1.00,-13.86 -0.00,-13.86 0.50,-12.99 1.50,-12.99 1.00,-12.12 -0.00,-12.12 -0.50,-12.99 -1.50,-12.99 -2.50,-12.99 -2.00,-12.12 -1.00,-12.12 -1.50,-11.26 -2.50,-11.26 -3.00,-10.39 -2.50,-9.53 -2.00,-8.66 -1.50,-9.53 -2.00,-10.39 -1.00,-10.39 -0.50,-9.53 0.50,-9.53 1.00,-10.39 -0.00,-10.39 -0.50,-11.26 0.50,-11.26 1.50,-11.26 2.00,-10.39 1.50,-9.53 2.00,-8.66 2.50,-9.53 3.50,-9.53 3.00,-8.66 2.50,-7.79 1.50,-7.79 1.00,-8.66 -0.00,-8.66 -1.00,-8.66 -0.50,-7.79 0.50,-7.79 -0.00,-6.93 -1.00,-6.93 -1.50,-7.79 -2.50,-7.79 -2.00,-6.93 -2.50,-6.06 -3.00,-6.93 -3.50,-7.79 -3.00,-8.66 -3.50,-9.53 -4.50,-9.53 -5.50,-9.53 -5.00,-8.66 -4.00,-8.66 -4.50,-7.79 -5.50,-7.79 -6.00,-6.93 -5.50,-6.06 -5.00,-5.20 -4.50,-6.06 -5.00,-6.93 -4.00,-6.93 -3.50,-6.06 -4.00,-5.20 -3.50,-4.33 -3.00,-5.20 -2.00,-5.20 -2.50,-4.33 -3.00,-3.46 -4.00,-3.46 -4.50,-4.33 -5.50,-4.33 -5.00,-3.46 -5.50,-2.60 -6.00,-3.46 -6.50,-4.33 -6.00,-5.20 -6.50,-6.06 -7.50,-6.06 -7.00,-5.20 -7.50,-4.33 -8.00,-5.20 -8.50,-6.06 -8.00,-6.93 -7.00,-6.93 -6.50,-7.79 -6.00,-8.66 -7.00,-8.66 -7.50,-7.79 -8.00,-8.66 -7.50,-9.53 -6.50,-9.53 -6.00,-10.39 -7.00,-10.39 -7.50,-11.26 -6.50,-11.26 -5.50,-11.26 -5.00,-10.39 -4.00,-10.39 -3.50,-11.26 -3.00,-12.12 -4.00,-12.12 -4.50,-11.26 -5.00,-12.12 -4.50,-12.99 -5.00,-13.86 -6.00,-13.86 -7.00,-13.86 -6.50,-12.99 -5.50,-12.99 -6.00,-12.12 -7.00,-12.12 -7.50,-12.99 -8.50,-12.99 -8.00,-12.12 -8.50,-11.26 -9.00,-12.12 -9.50,-12.99 -9.00,-13.86 -8.00,-13.86 -7.50,-14.72 -8.50,-14.72 -9.00,-15.59 -8.00,-15.59 -7.00,-15.59 -6.50,-14.72 -5.50,-14.72 -5.00,-15.59 -6.00,-15.59 -6.50,-16.45 -5.50,-16.45 -4.50,-16.45 -4.00,-15.59 -4.50,-14.72 -4.00,-13.86 -3.50,-12.99 -3.00,-13.86 -3.50,-14.72 -2.50,-14.72 -2.00,-13.86 -1.00,-13.86 -0.50,-14.72 -1.50,-14.72 -2.00,-15.59 -1.00,-15.59 -0.00,-15.59 0.50,-14.72 1.50,-14.72 2.00,-15.59 2.50,-16.45 1.50,-16.45 1.00,-15.59 0.50,-16.45 1.00,-17.32 0.50,-18.19 -0.50,-18.19 -1.50,-18.19 -1.00,-17.32 -0.00,-17.32 -0.50,-16.45 -1.50,-16.45 -2.00,-17.32 -3.00,-17.32 -2.50,-16.45 -3.00,-15.59 -3.50,-16.45 -4.00,-17.32 -3.50,-18.19 -2.50,-18.19 -2.00,-19.05 -3.00,-19.05 -3.50,-19.92 -2.50,-19.92 -1.50,-19.92 -1.00,-19.05 -0.00,-19.05 0.50,-19.92 -0.50,-19.92 -1.00,-20.78 -0.00,-20.78 1.00,-20.78 1.50,-19.92 1.00,-19.05 1.50,-18.19 2.00,-17.32 2.50,-18.19 2.00,-19.05 3.00,-19.05 3.50,-18.19 3.00,-17.32 3.50,-16.45 4.00,-17.32 5.00,-17.32 4.50,-16.45 4.00,-15.59 3.00,-15.59 2.50,-14.72 3.00,-13.86 3.50,-12.99 4.00,-13.86 3.50,-14.72 4.50,-14.72 5.00,-13.86 4.50,-12.99 5.00,-12.12 5.50,-11.26 6.00,-12.12 5.50,-12.99 6.50,-12.99 7.00,-12.12 8.00,-12.12 8.50,-12.99 9.00,-13.86 8.00,-13.86 7.50,-12.99 7.00,-13.86 7.50,-14.72 7.00,-15.59 6.00,-15.59 6.50,-14.72 6.00,-13.86 5.50,-14.72 5.00,-15.59 5.50,-16.45 6.50,-16.45 7.00,-17.32 6.00,-17.32 5.50,-18.19 6.50,-18.19 7.50,-18.19 8.00,-17.32 7.50,-16.45 8.00,-15.59 8.50,-14.72 9.00,-15.59 8.50,-16.45 9.50,-16.45 10.00,-15.59" />
</g>
</svg>