<svg xmlns="http://www.w3.org/2000/svg" width="161.8" height="100.0" viewBox="-3.35 -5.00 171.80 110.00">
<g fill="none" stroke="black" stroke-width="0.0208%" transform="translate(0, 100.0000) scale(24.0449, -24.0449)">
<circle cx="0.07" cy="0.00" r="0.02" />
<circle cx="0.07" cy="0.00" r="0.02" />
<circle cx="0.14" cy="0.69" r="0.02" />
<circle cx="0.21" cy="0.69" r="0.02" />
<circle cx="0.27" cy="1.39" r="0.02" />
<circle cx="0.34" cy="0.69" r="0.02" />
<circle cx="0.41" cy="1.39" r="0.02" />
<circle cx="0.48" cy="1.39" r="0.02" />
<circle cx="0.55" cy="2.08" r="0.02" />
<circle cx="0.62" cy="0.69" r="0.02" />
<circle cx="0.69" cy="1.39" r="0.02" />
<circle cx="0.76" cy="1.39" r="0.02" />
<circle cx="0.82" cy="2.08" r="0.02" />
<circle cx="0.89" cy="1.39" r="0.02" />
<circle cx="0.96" cy="2.08" r="0.02" />
<circle cx="1.03" cy="2.08" r="0.02" />
<circle cx="1.10" cy="2.77" r="0.02" />
<circle cx="1.17" cy="0.69" r="0.02" />
<circle cx="1.24" cy="1.39" r="0.02" />
<circle cx="1.30" cy="1.39" r="0.02" />
<circle cx="1.37" cy="2.08" r="0.02" />
<circle cx="1.44" cy="1.39" r="0.02" />
<circle cx="1.51" cy="2.08" r="0.02" />
<circle cx="1.58" cy="2.08" r="0.02" />
<circle cx="1.65" cy="2.77" r="0.02" />
<circle cx="1.72" cy="1.39" r="0.02" />
<circle cx="1.79" cy="2.08" r="0.02" />
<circle cx="1.85" cy="2.08" r="0.02" />
<circle cx="1.92" cy="2.77" r="0.02" />
<circle cx="1.99" cy="2.08" r="0.02" />
<circle cx="2.06" cy="2.77" r="0.02" />
<circle cx="2.13" cy="2.77" r="0.02" />
<circle cx="2.20" cy="3.47" r="0.02" />
<circle cx="2.27" cy="0.69" r="0.02" />
<circle cx="2.33" cy="1.39" r="0.02" />
<circle cx="2.40" cy="1.39" r="0.02" />
<circle cx="2.47" cy="2.08" r="0.02" />
<circle cx="2.54" cy="1.39" r="0.02" />
<circle cx="2.61" cy="2.08" r="0.02" />
<circle cx="2.68" cy="2.08" r="0.02" />
<circle cx="2.75" cy="2.77" r="0.02" />
<circle cx="2.82" cy="1.39" r="0.02" />
<circle cx="2.88" cy="2.08" r="0.02" />
<circle cx="2.95" cy="2.08" r="0.02" />
<circle cx="3.02" cy="2.77" r="0.02" />
<circle cx="3.09" cy="2.08" r="0.02" />
<circle cx="3.16" cy="2.77" r="0.02" />
<circle cx="3.23" cy="2.77" r="0.02" />
<circle cx="3.30" cy="3.47" r="0.02" />
<circle cx="3.36" cy="1.39" r="0.02" />
<circle cx="3.43" cy="2.08" r="0.02" />
<circle cx="3.50" cy="2.08" r="0.02" />
<circle cx="3.57" cy="2.77" r="0.02" />
<circle cx="3.64" cy="2.08" r="0.02" />
<circle cx="3.71" cy="2.77" r="0.02" />
<circle cx="3.78" cy="2.77" r="0.02" />
<circle cx="3.85" cy="3.47" r="0.02" />
<circle cx="3.91" cy="2.08" r="0.02" />
<circle cx="3.98" cy="2.77" r="0.02" />
<circle cx="4.05" cy="2.77" r="0.02" />
<circle cx="4.12" cy="3.47" r="0.02" />
<circle cx="4.19" cy="2.77" r="0.02" />
<circle cx="4.26" cy="3.47" r="0.02" />
<circle cx="4.33" cy="3.47" r="0.02" />
<circle cx="4.39" cy="4.16" r="0.02" />
<circle cx="4.46" cy="0.69" r="0.02" />
<circle cx="4.53" cy="1.39" r="0.02" />
<circle cx="4.60" cy="1.39" r="0.02" />
<circle cx="4.67" cy="2.08" r="0.02" />
<circle cx="4.74" cy="1.39" r="0.02" />
<circle cx="4.81" cy="2.08" r="0.02" />
<circle cx="4.88" cy="2.08" r="0.02" />
<circle cx="4.94" cy="2.77" r="0.02" />
<circle cx="5.01" cy="1.39" r="0.02" />
<circle cx="5.08" cy="2.08" r="0.02" />
<circle cx="5.15" cy="2.08" r="0.02" />
<circle cx="5.22" cy="2.77" r="0.02" />
<circle cx="5.29" cy="2.08" r="0.02" />
<circle cx="5.36" cy="2.77" r="0.02" />
<circle cx="5.42" cy="2.77" r="0.02" />
<circle cx="5.49" cy="3.47" r="0.02" />
<circle cx="5.56" cy="1.39" r="0.02" />
<circle cx="5.63" cy="2.08" r="0.02" />
<circle cx="5.70" cy="2.08" r="0.02" />
<circle cx="5.77" cy="2.77" r="0.02" />
<circle cx="5.84" cy="2.08" r="0.02" />
<circle cx="5.91" cy="2.77" r="0.02" />
<circle cx="5.97" cy="2.77" r="0.02" />
<circle cx="6.04" cy="3.47" r="0.02" />
<circle cx="6.11" cy="2.08" r="0.02" />
<circle cx="6.18" cy="2.77" r="0.02" />
<circle cx="6.25" cy="2.77" r="0.02" />
<circle cx="6.32" cy="3.47" r="0.02" />
<circle cx="6.39" cy="2.77" r="0.02" />
<circle cx="6.45" cy="3.47" r="0.02" />
<circle cx="6.52" cy="3.47" r="0.02" />
<circle cx="6.59" cy="4.16" r="0.02" />
<circle cx="6.66" cy="1.39" r="0.02" />
<circle cx="6.73" cy="2.08" r="0.02" />
<circle cx="6.80" cy="2.08" r="0.02" />
</g>
</svg>