<svg xmlns="http://www.w3.org/2000/svg" width="78.7" height="100.0" viewBox="-24.85 -5.00 88.68 110.00">
<g fill="none" stroke="black" stroke-width="0.0170%" transform="translate(0, 100.0000) scale(29.4118, -29.4118)">
<circle cx="0.00" cy="0.00" r="0.02" />
<circle cx="0.50" cy="0.15" r="0.02" />
<circle cx="0.17" cy="0.63" r="0.02" />
<circle cx="0.68" cy="0.78" r="0.02" />
<circle cx="-0.13" cy="0.80" r="0.02" />
<circle cx="0.38" cy="0.95" r="0.02" />
<circle cx="0.05" cy="1.43" r="0.02" />
<circle cx="0.55" cy="1.57" r="0.02" />
<circle cx="-0.20" cy="0.10" r="0.02" />
<circle cx="0.30" cy="0.25" r="0.02" />
<circle cx="-0.03" cy="0.72" r="0.02" />
<circle cx="0.47" cy="0.88" r="0.02" />
<circle cx="-0.33" cy="0.90" r="0.02" />
<circle cx="0.17" cy="1.05" r="0.02" />
<circle cx="-0.15" cy="1.52" r="0.02" />
<circle cx="0.35" cy="1.67" r="0.02" />
<circle cx="-0.35" cy="0.45" r="0.02" />
<circle cx="0.15" cy="0.60" r="0.02" />
<circle cx="-0.17" cy="1.07" r="0.02" />
<circle cx="0.33" cy="1.22" r="0.02" />
<circle cx="-0.47" cy="1.25" r="0.02" />
<circle cx="0.03" cy="1.40" r="0.02" />
<circle cx="-0.30" cy="1.88" r="0.02" />
<circle cx="0.20" cy="2.02" r="0.02" />
<circle cx="-0.55" cy="0.55" r="0.02" />
<circle cx="-0.05" cy="0.70" r="0.02" />
<circle cx="-0.38" cy="1.18" r="0.02" />
<circle cx="0.12" cy="1.32" r="0.02" />
<circle cx="-0.68" cy="1.35" r="0.02" />
<circle cx="-0.18" cy="1.50" r="0.02" />
<circle cx="-0.50" cy="1.98" r="0.02" />
<circle cx="0.00" cy="2.13" r="0.02" />
<circle cx="0.33" cy="0.28" r="0.02" />
<circle cx="0.82" cy="0.43" r="0.02" />
<circle cx="0.50" cy="0.90" r="0.02" />
<circle cx="1.00" cy="1.05" r="0.02" />
<circle cx="0.20" cy="1.08" r="0.02" />
<circle cx="0.70" cy="1.23" r="0.02" />
<circle cx="0.38" cy="1.70" r="0.02" />
<circle cx="0.88" cy="1.85" r="0.02" />
<circle cx="0.13" cy="0.38" r="0.02" />
<circle cx="0.63" cy="0.53" r="0.02" />
<circle cx="0.30" cy="1.00" r="0.02" />
<circle cx="0.80" cy="1.15" r="0.02" />
<circle cx="0.00" cy="1.18" r="0.02" />
<circle cx="0.50" cy="1.32" r="0.02" />
<circle cx="0.17" cy="1.80" r="0.02" />
<circle cx="0.68" cy="1.95" r="0.02" />
<circle cx="-0.02" cy="0.73" r="0.02" />
<circle cx="0.48" cy="0.88" r="0.02" />
<circle cx="0.15" cy="1.35" r="0.02" />
<circle cx="0.65" cy="1.50" r="0.02" />
<circle cx="-0.15" cy="1.53" r="0.02" />
<circle cx="0.35" cy="1.68" r="0.02" />
<circle cx="0.03" cy="2.15" r="0.02" />
<circle cx="0.53" cy="2.30" r="0.02" />
<circle cx="-0.22" cy="0.83" r="0.02" />
<circle cx="0.28" cy="0.98" r="0.02" />
<circle cx="-0.05" cy="1.45" r="0.02" />
<circle cx="0.45" cy="1.60" r="0.02" />
<circle cx="-0.35" cy="1.63" r="0.02" />
<circle cx="0.15" cy="1.77" r="0.02" />
<circle cx="-0.17" cy="2.25" r="0.02" />
<circle cx="0.33" cy="2.40" r="0.02" />
<circle cx="0.00" cy="1.00" r="0.02" />
<circle cx="0.50" cy="1.15" r="0.02" />
<circle cx="0.17" cy="1.63" r="0.02" />
<circle cx="0.68" cy="1.77" r="0.02" />
<circle cx="-0.13" cy="1.80" r="0.02" />
<circle cx="0.38" cy="1.95" r="0.02" />
<circle cx="0.05" cy="2.42" r="0.02" />
<circle cx="0.55" cy="2.57" r="0.02" />
<circle cx="-0.20" cy="1.10" r="0.02" />
<circle cx="0.30" cy="1.25" r="0.02" />
<circle cx="-0.03" cy="1.73" r="0.02" />
<circle cx="0.47" cy="1.88" r="0.02" />
<circle cx="-0.33" cy="1.90" r="0.02" />
<circle cx="0.17" cy="2.05" r="0.02" />
<circle cx="-0.15" cy="2.53" r="0.02" />
<circle cx="0.35" cy="2.68" r="0.02" />
<circle cx="-0.35" cy="1.45" r="0.02" />
<circle cx="0.15" cy="1.60" r="0.02" />
<circle cx="-0.17" cy="2.08" r="0.02" />
<circle cx="0.33" cy="2.23" r="0.02" />
<circle cx="-0.47" cy="2.25" r="0.02" />
<circle cx="0.03" cy="2.40" r="0.02" />
<circle cx="-0.30" cy="2.88" r="0.02" />
<circle cx="0.20" cy="3.02" r="0.02" />
<circle cx="-0.55" cy="1.55" r="0.02" />
<circle cx="-0.05" cy="1.70" r="0.02" />
<circle cx="-0.38" cy="2.17" r="0.02" />
<circle cx="0.12" cy="2.32" r="0.02" />
<circle cx="-0.68" cy="2.35" r="0.02" />
<circle cx="-0.18" cy="2.50" r="0.02" />
<circle cx="-0.50" cy="2.98" r="0.02" />
<circle cx="0.00" cy="3.13" r="0.02" />
<circle cx="0.33" cy="1.27" r="0.02" />
<circle cx="0.82" cy="1.42" r="0.02" />
<circle cx="0.50" cy="1.90" r="0.02" />
<circle cx="1.00" cy="2.05" r="0.02" />
<circle cx="0.20" cy="2.08" r="0.02" />
<circle cx="0.70" cy="2.23" r="0.02" />
<circle cx="0.38" cy="2.70" r="0.02" />
<circle cx="0.88" cy="2.85" r="0.02" />
<circle cx="0.13" cy="1.38" r="0.02" />
<circle cx="0.63" cy="1.52" r="0.02" />
<circle cx="0.30" cy="2.00" r="0.02" />
<circle cx="0.80" cy="2.15" r="0.02" />
<circle cx="0.00" cy="2.17" r="0.02" />
<circle cx="0.50" cy="2.32" r="0.02" />
<circle cx="0.17" cy="2.80" r="0.02" />
<circle cx="0.68" cy="2.95" r="0.02" />
<circle cx="-0.02" cy="1.72" r="0.02" />
<circle cx="0.48" cy="1.87" r="0.02" />
<circle cx="0.15" cy="2.35" r="0.02" />
<circle cx="0.65" cy="2.50" r="0.02" />
<circle cx="-0.15" cy="2.52" r="0.02" />
<circle cx="0.35" cy="2.67" r="0.02" />
<circle cx="0.03" cy="3.15" r="0.02" />
<circle cx="0.53" cy="3.30" r="0.02" />
<circle cx="-0.22" cy="1.82" r="0.02" />
<circle cx="0.28" cy="1.97" r="0.02" />
<circle cx="-0.05" cy="2.45" r="0.02" />
<circle cx="0.45" cy="2.60" r="0.02" />
<circle cx="-0.35" cy="2.63" r="0.02" />
<circle cx="0.15" cy="2.77" r="0.02" />
<circle cx="-0.17" cy="3.25" r="0.02" />
<circle cx="0.33" cy="3.40" r="0.02" />
<circle cx="1.00" cy="0.00" r="0.02" />
<circle cx="1.50" cy="0.15" r="0.02" />
<circle cx="1.18" cy="0.63" r="0.02" />
<circle cx="1.68" cy="0.78" r="0.02" />
<circle cx="0.88" cy="0.80" r="0.02" />
<circle cx="1.38" cy="0.95" r="0.02" />
<circle cx="1.05" cy="1.43" r="0.02" />
<circle cx="1.55" cy="1.57" r="0.02" />
<circle cx="0.80" cy="0.10" r="0.02" />
<circle cx="1.30" cy="0.25" r="0.02" />
<circle cx="0.98" cy="0.72" r="0.02" />
<circle cx="1.48" cy="0.88" r="0.02" />
<circle cx="0.68" cy="0.90" r="0.02" />
<circle cx="1.18" cy="1.05" r="0.02" />
<circle cx="0.85" cy="1.52" r="0.02" />
<circle cx="1.35" cy="1.67" r="0.02" />
<circle cx="0.65" cy="0.45" r="0.02" />
<circle cx="1.15" cy="0.60" r="0.02" />
<circle cx="0.82" cy="1.07" r="0.02" />
<circle cx="1.32" cy="1.22" r="0.02" />
<circle cx="0.53" cy="1.25" r="0.02" />
<circle cx="1.02" cy="1.40" r="0.02" />
<circle cx="0.70" cy="1.88" r="0.02" />
<circle cx="1.20" cy="2.02" r="0.02" />
<circle cx="0.45" cy="0.55" r="0.02" />
<circle cx="0.95" cy="0.70" r="0.02" />
<circle cx="0.63" cy="1.18" r="0.02" />
<circle cx="1.13" cy="1.32" r="0.02" />
<circle cx="0.33" cy="1.35" r="0.02" />
<circle cx="0.82" cy="1.50" r="0.02" />
<circle cx="0.50" cy="1.98" r="0.02" />
<circle cx="1.00" cy="2.13" r="0.02" />
<circle cx="1.32" cy="0.28" r="0.02" />
<circle cx="1.82" cy="0.43" r="0.02" />
<circle cx="1.50" cy="0.90" r="0.02" />
<circle cx="2.00" cy="1.05" r="0.02" />
<circle cx="1.20" cy="1.08" r="0.02" />
<circle cx="1.70" cy="1.23" r="0.02" />
<circle cx="1.38" cy="1.70" r="0.02" />
<circle cx="1.88" cy="1.85" r="0.02" />
<circle cx="1.13" cy="0.38" r="0.02" />
<circle cx="1.63" cy="0.53" r="0.02" />
<circle cx="1.30" cy="1.00" r="0.02" />
<circle cx="1.80" cy="1.15" r="0.02" />
<circle cx="1.00" cy="1.18" r="0.02" />
<circle cx="1.50" cy="1.32" r="0.02" />
<circle cx="1.18" cy="1.80" r="0.02" />
<circle cx="1.68" cy="1.95" r="0.02" />
<circle cx="0.97" cy="0.73" r="0.02" />
<circle cx="1.48" cy="0.88" r="0.02" />
<circle cx="1.15" cy="1.35" r="0.02" />
<circle cx="1.65" cy="1.50" r="0.02" />
<circle cx="0.85" cy="1.53" r="0.02" />
<circle cx="1.35" cy="1.68" r="0.02" />
<circle cx="1.02" cy="2.15" r="0.02" />
<circle cx="1.52" cy="2.30" r="0.02" />
<circle cx="0.77" cy="0.83" r="0.02" />
<circle cx="1.27" cy="0.98" r="0.02" />
<circle cx="0.95" cy="1.45" r="0.02" />
<circle cx="1.45" cy="1.60" r="0.02" />
<circle cx="0.65" cy="1.63" r="0.02" />
<circle cx="1.15" cy="1.77" r="0.02" />
<circle cx="0.82" cy="2.25" r="0.02" />
<circle cx="1.32" cy="2.40" r="0.02" />
<circle cx="1.00" cy="1.00" r="0.02" />
<circle cx="1.50" cy="1.15" r="0.02" />
<circle cx="1.18" cy="1.63" r="0.02" />
<circle cx="1.68" cy="1.77" r="0.02" />
<circle cx="0.88" cy="1.80" r="0.02" />
<circle cx="1.38" cy="1.95" r="0.02" />
<circle cx="1.05" cy="2.42" r="0.02" />
<circle cx="1.55" cy="2.57" r="0.02" />
<circle cx="0.80" cy="1.10" r="0.02" />
<circle cx="1.30" cy="1.25" r="0.02" />
<circle cx="0.98" cy="1.73" r="0.02" />
<circle cx="1.48" cy="1.88" r="0.02" />
<circle cx="0.68" cy="1.90" r="0.02" />
<circle cx="1.18" cy="2.05" r="0.02" />
<circle cx="0.85" cy="2.53" r="0.02" />
<circle cx="1.35" cy="2.68" r="0.02" />
<circle cx="0.65" cy="1.45" r="0.02" />
<circle cx="1.15" cy="1.60" r="0.02" />
<circle cx="0.82" cy="2.08" r="0.02" />
<circle cx="1.32" cy="2.23" r="0.02" />
<circle cx="0.53" cy="2.25" r="0.02" />
<circle cx="1.02" cy="2.40" r="0.02" />
<circle cx="0.70" cy="2.88" r="0.02" />
<circle cx="1.20" cy="3.02" r="0.02" />
<circle cx="0.45" cy="1.55" r="0.02" />
<circle cx="0.95" cy="1.70" r="0.02" />
<circle cx="0.63" cy="2.17" r="0.02" />
<circle cx="1.13" cy="2.32" r="0.02" />
<circle cx="0.33" cy="2.35" r="0.02" />
<circle cx="0.82" cy="2.50" r="0.02" />
<circle cx="0.50" cy="2.98" r="0.02" />
<circle cx="1.00" cy="3.13" r="0.02" />
<circle cx="1.32" cy="1.27" r="0.02" />
<circle cx="1.82" cy="1.42" r="0.02" />
<circle cx="1.50" cy="1.90" r="0.02" />
<circle cx="2.00" cy="2.05" r="0.02" />
<circle cx="1.20" cy="2.08" r="0.02" />
<circle cx="1.70" cy="2.23" r="0.02" />
<circle cx="1.38" cy="2.70" r="0.02" />
<circle cx="1.88" cy="2.85" r="0.02" />
<circle cx="1.13" cy="1.38" r="0.02" />
<circle cx="1.63" cy="1.52" r="0.02" />
<circle cx="1.30" cy="2.00" r="0.02" />
<circle cx="1.80" cy="2.15" r="0.02" />
<circle cx="1.00" cy="2.17" r="0.02" />
<circle cx="1.50" cy="2.32" r="0.02" />
<circle cx="1.18" cy="2.80" r="0.02" />
<circle cx="1.68" cy="2.95" r="0.02" />
<circle cx="0.97" cy="1.72" r="0.02" />
<circle cx="1.48" cy="1.87" r="0.02" />
<circle cx="1.15" cy="2.35" r="0.02" />
<circle cx="1.65" cy="2.50" r="0.02" />
<circle cx="0.85" cy="2.52" r="0.02" />
<circle cx="1.35" cy="2.67" r="0.02" />
<circle cx="1.02" cy="3.15" r="0.02" />
<circle cx="1.52" cy="3.30" r="0.02" />
<circle cx="0.77" cy="1.82" r="0.02" />
<circle cx="1.27" cy="1.97" r="0.02" />
<circle cx="0.95" cy="2.45" r="0.02" />
<circle cx="1.45" cy="2.60" r="0.02" />
<circle cx="0.65" cy="2.63" r="0.02" />
<circle cx="1.15" cy="2.77" r="0.02" />
<circle cx="0.82" cy="3.25" r="0.02" />
<circle cx="1.32" cy="3.40" r="0.02" />
</g>
</svg>