<svg xmlns="http://www.w3.org/2000/svg" width="94.9" height="100.0" viewBox="-52.995 -55.237 104.933 110.000">
<g fill="none" stroke="black" stroke-width="0.0088%" transform="translate(0, -0.4747) scale(56.7304, -56.7304)">
<circle cx="0.082" cy="0.165" r="0.009" />
<circle cx="-0.831" cy="-0.886" r="0.009" />
<circle cx="0.567" cy="-0.843" r="0.009" />
<circle cx="-0.642" cy="0.767" r="0.009" />
<circle cx="0.087" cy="0.230" r="0.009" />
<circle cx="0.140" cy="-0.027" r="0.009" />
<circle cx="0.206" cy="-0.585" r="0.009" />
<circle cx="0.827" cy="0.877" r="0.009" />
<circle cx="0.172" cy="-0.602" r="0.009" />
<circle cx="-0.670" cy="-0.728" r="0.009" />
<circle cx="-0.187" cy="0.641" r="0.009" />
<circle cx="-0.846" cy="-0.352" r="0.009" />
<circle cx="0.784" cy="0.047" r="0.009" />
<circle cx="-0.575" cy="-0.705" r="0.009" />
<circle cx="-0.513" cy="-0.328" r="0.009" />
<circle cx="-0.168" cy="-0.333" r="0.009" />
<circle cx="0.587" cy="0.569" r="0.009" />
<polygon points="-0.846,-0.352 -0.831,-0.886 0.567,-0.843 0.784,0.047 0.827,0.877 -0.642,0.767" />
</g>
</svg>