<?xml version="1.0" encoding="UTF-8" standalone="no"?>
<!DOCTYPE svg PUBLIC "-//W3C//DTD SVG 1.1//EN"
 "http://www.w3.org/Graphics/SVG/1.1/DTD/svg11.dtd">
<!-- Generated by graphviz version 12.0.0 (0)
 -->
<!-- Pages: 1 -->
<svg width="52pt" height="54pt"
 viewBox="0.00 0.00 52.34 54.00" xmlns="http://www.w3.org/2000/svg" xmlns:xlink="http://www.w3.org/1999/xlink">
<g id="graph0" class="graph" transform="scale(0.0950071 0.0950071) rotate(0) translate(4 564.38)">
<!-- 1 -->
<g id="node1" class="node">
<title>1</title>
<ellipse fill="black" stroke="black" cx="55.52" cy="-1.8" rx="1.8" ry="1.8"/>
</g>
<!-- 2 -->
<g id="node2" class="node">
<title>2</title>
<ellipse fill="black" stroke="black" cx="103.51" cy="-63.97" rx="1.8" ry="1.8"/>
</g>
<!-- 1&#45;&#45;2 -->
<g id="edge1" class="edge">
<title>1&#45;&#45;2</title>
<path fill="none" stroke="black" stroke-width="0.75" d="M56.91,-3.59C63.92,-12.67 95.41,-53.47 102.21,-62.29"/>
</g>
<!-- 3 -->
<g id="node3" class="node">
<title>3</title>
<ellipse fill="black" stroke="black" cx="171.61" cy="-68.92" rx="1.8" ry="1.8"/>
</g>
<!-- 2&#45;&#45;3 -->
<g id="edge2" class="edge">
<title>2&#45;&#45;3</title>
<path fill="none" stroke="black" stroke-width="0.75" d="M105.78,-64.14C116.3,-64.9 160.3,-68.1 169.8,-68.79"/>
</g>
<!-- 5 -->
<g id="node4" class="node">
<title>5</title>
<ellipse fill="black" stroke="black" cx="159.12" cy="-132.72" rx="1.8" ry="1.8"/>
</g>
<!-- 2&#45;&#45;5 -->
<g id="edge3" class="edge">
<title>2&#45;&#45;5</title>
<path fill="none" stroke="black" stroke-width="0.75" d="M104.88,-65.67C112.65,-75.27 150.89,-122.53 157.99,-131.31"/>
</g>
<!-- 3&#45;&#45;5 -->
<g id="edge4" class="edge">
<title>3&#45;&#45;5</title>
<path fill="none" stroke="black" stroke-width="0.75" d="M171.2,-71.04C169.3,-80.73 161.48,-120.68 159.55,-130.52"/>
</g>
<!-- 8 -->
<g id="node5" class="node">
<title>8</title>
<ellipse fill="black" stroke="black" cx="204.14" cy="-161.65" rx="1.8" ry="1.8"/>
</g>
<!-- 3&#45;&#45;8 -->
<g id="edge5" class="edge">
<title>3&#45;&#45;8</title>
<path fill="none" stroke="black" stroke-width="0.75" d="M172.29,-70.86C176.53,-82.92 199.24,-147.68 203.47,-159.72"/>
</g>
<!-- 5&#45;&#45;8 -->
<g id="edge8" class="edge">
<title>5&#45;&#45;8</title>
<path fill="none" stroke="black" stroke-width="0.75" d="M161.06,-133.96C168.46,-138.72 194.96,-155.75 202.27,-160.44"/>
</g>
<!-- 7 -->
<g id="node6" class="node">
<title>7</title>
<ellipse fill="black" stroke="black" cx="246.22" cy="-130.84" rx="1.8" ry="1.8"/>
</g>
<!-- 5&#45;&#45;7 -->
<g id="edge6" class="edge">
<title>5&#45;&#45;7</title>
<path fill="none" stroke="black" stroke-width="0.75" d="M161.28,-132.67C173.33,-132.41 232.29,-131.14 244.15,-130.89"/>
</g>
<!-- 12 -->
<g id="node7" class="node">
<title>12</title>
<ellipse fill="black" stroke="black" cx="229.49" cy="-213.04" rx="1.8" ry="1.8"/>
</g>
<!-- 5&#45;&#45;12 -->
<g id="edge7" class="edge">
<title>5&#45;&#45;12</title>
<path fill="none" stroke="black" stroke-width="0.75" d="M160.59,-134.39C169.75,-144.85 218.9,-200.95 228.03,-211.37"/>
</g>
<!-- 13 -->
<g id="node8" class="node">
<title>13</title>
<ellipse fill="black" stroke="black" cx="138.81" cy="-214.57" rx="1.8" ry="1.8"/>
</g>
<!-- 5&#45;&#45;13 -->
<g id="edge9" class="edge">
<title>5&#45;&#45;13</title>
<path fill="none" stroke="black" stroke-width="0.75" d="M158.62,-134.74C155.81,-146.07 142.06,-201.48 139.29,-212.62"/>
</g>
<!-- 8&#45;&#45;13 -->
<g id="edge16" class="edge">
<title>8&#45;&#45;13</title>
<path fill="none" stroke="black" stroke-width="0.75" d="M202.53,-162.96C193.41,-170.34 148.49,-206.73 140.14,-213.49"/>
</g>
<!-- 11 -->
<g id="node9" class="node">
<title>11</title>
<ellipse fill="black" stroke="black" cx="271.58" cy="-162.93" rx="1.8" ry="1.8"/>
</g>
<!-- 8&#45;&#45;11 -->
<g id="edge10" class="edge">
<title>8&#45;&#45;11</title>
<path fill="none" stroke="black" stroke-width="0.75" d="M206.39,-161.69C216.81,-161.89 260.38,-162.72 269.78,-162.89"/>
</g>
<!-- 19 -->
<g id="node10" class="node">
<title>19</title>
<ellipse fill="black" stroke="black" cx="273.79" cy="-209.65" rx="1.8" ry="1.8"/>
</g>
<!-- 8&#45;&#45;19 -->
<g id="edge11" class="edge">
<title>8&#45;&#45;19</title>
<path fill="none" stroke="black" stroke-width="0.75" d="M205.86,-162.83C215.58,-169.53 263.47,-202.54 272.36,-208.67"/>
</g>
<!-- 21 -->
<g id="node13" class="node">
<title>21</title>
<ellipse fill="black" stroke="black" cx="186.8" cy="-263.92" rx="1.8" ry="1.8"/>
</g>
<!-- 8&#45;&#45;21 -->
<g id="edge17" class="edge">
<title>8&#45;&#45;21</title>
<path fill="none" stroke="black" stroke-width="0.75" d="M203.78,-163.78C201.52,-177.09 189.41,-248.52 187.16,-261.79"/>
</g>
<!-- 7&#45;&#45;12 -->
<g id="edge12" class="edge">
<title>7&#45;&#45;12</title>
<path fill="none" stroke="black" stroke-width="0.75" d="M245.81,-132.88C243.5,-144.25 232.17,-199.9 229.89,-211.08"/>
</g>
<!-- 7&#45;&#45;19 -->
<g id="edge13" class="edge">
<title>7&#45;&#45;19</title>
<path fill="none" stroke="black" stroke-width="0.75" d="M246.91,-132.79C250.69,-143.6 269.06,-196.12 273.03,-207.48"/>
</g>
<!-- 12&#45;&#45;19 -->
<g id="edge24" class="edge">
<title>12&#45;&#45;19</title>
<path fill="none" stroke="black" stroke-width="0.75" d="M231.63,-212.88C239.1,-212.31 263.98,-210.4 271.57,-209.82"/>
</g>
<!-- 17 -->
<g id="node11" class="node">
<title>17</title>
<ellipse fill="black" stroke="black" cx="313.19" cy="-212.62" rx="1.8" ry="1.8"/>
</g>
<!-- 12&#45;&#45;17 -->
<g id="edge14" class="edge">
<title>12&#45;&#45;17</title>
<path fill="none" stroke="black" stroke-width="0.75" d="M231.56,-213.03C243.14,-212.97 299.8,-212.69 311.19,-212.63"/>
</g>
<!-- 29 -->
<g id="node12" class="node">
<title>29</title>
<ellipse fill="black" stroke="black" cx="290.4" cy="-287.69" rx="1.8" ry="1.8"/>
</g>
<!-- 12&#45;&#45;29 -->
<g id="edge15" class="edge">
<title>12&#45;&#45;29</title>
<path fill="none" stroke="black" stroke-width="0.75" d="M230.77,-214.6C238.69,-224.32 281.23,-276.45 289.13,-286.14"/>
</g>
<!-- 31 -->
<g id="node15" class="node">
<title>31</title>
<ellipse fill="black" stroke="black" cx="197.44" cy="-259.71" rx="1.8" ry="1.8"/>
</g>
<!-- 12&#45;&#45;31 -->
<g id="edge25" class="edge">
<title>12&#45;&#45;31</title>
<path fill="none" stroke="black" stroke-width="0.75" d="M228.43,-214.6C223.56,-221.68 203.48,-250.91 198.54,-258.11"/>
</g>
<!-- 13&#45;&#45;21 -->
<g id="edge32" class="edge">
<title>13&#45;&#45;21</title>
<path fill="none" stroke="black" stroke-width="0.75" d="M140.4,-216.21C147.82,-223.84 178.83,-255.72 185.52,-262.6"/>
</g>
<!-- 18 -->
<g id="node14" class="node">
<title>18</title>
<ellipse fill="black" stroke="black" cx="153.77" cy="-191.14" rx="1.8" ry="1.8"/>
</g>
<!-- 13&#45;&#45;18 -->
<g id="edge18" class="edge">
<title>13&#45;&#45;18</title>
<path fill="none" stroke="black" stroke-width="0.75" d="M139.98,-212.73C142.79,-208.33 149.88,-197.24 152.64,-192.91"/>
</g>
<!-- 13&#45;&#45;31 -->
<g id="edge19" class="edge">
<title>13&#45;&#45;31</title>
<path fill="none" stroke="black" stroke-width="0.75" d="M140.5,-215.87C149.06,-222.47 187.54,-252.09 195.85,-258.49"/>
</g>
<!-- 34 -->
<g id="node23" class="node">
<title>34</title>
<ellipse fill="black" stroke="black" cx="85" cy="-270.58" rx="1.8" ry="1.8"/>
</g>
<!-- 13&#45;&#45;34 -->
<g id="edge33" class="edge">
<title>13&#45;&#45;34</title>
<path fill="none" stroke="black" stroke-width="0.75" d="M137.48,-215.96C130.1,-223.64 94.24,-260.97 86.48,-269.04"/>
</g>
<!-- 11&#45;&#45;19 -->
<g id="edge20" class="edge">
<title>11&#45;&#45;19</title>
<path fill="none" stroke="black" stroke-width="0.75" d="M271.68,-165.18C272.06,-173.2 273.34,-200.27 273.7,-207.73"/>
</g>
<!-- 30 -->
<g id="node16" class="node">
<title>30</title>
<ellipse fill="black" stroke="black" cx="285.24" cy="-255.83" rx="1.8" ry="1.8"/>
</g>
<!-- 11&#45;&#45;30 -->
<g id="edge21" class="edge">
<title>11&#45;&#45;30</title>
<path fill="none" stroke="black" stroke-width="0.75" d="M271.86,-164.87C273.63,-176.85 283.02,-240.73 284.91,-253.58"/>
</g>
<!-- 19&#45;&#45;31 -->
<g id="edge48" class="edge">
<title>19&#45;&#45;31</title>
<path fill="none" stroke="black" stroke-width="0.75" d="M271.9,-210.88C261.34,-217.81 209.65,-251.71 199.26,-258.52"/>
</g>
<!-- 19&#45;&#45;30 -->
<g id="edge40" class="edge">
<title>19&#45;&#45;30</title>
<path fill="none" stroke="black" stroke-width="0.75" d="M274.34,-211.87C276.31,-219.8 282.95,-246.57 284.78,-253.94"/>
</g>
<!-- 27 -->
<g id="node17" class="node">
<title>27</title>
<ellipse fill="black" stroke="black" cx="338.81" cy="-164.94" rx="1.8" ry="1.8"/>
</g>
<!-- 19&#45;&#45;27 -->
<g id="edge22" class="edge">
<title>19&#45;&#45;27</title>
<path fill="none" stroke="black" stroke-width="0.75" d="M275.66,-208.36C285.16,-201.83 327.83,-172.49 337.05,-166.15"/>
</g>
<!-- 46 -->
<g id="node18" class="node">
<title>46</title>
<ellipse fill="black" stroke="black" cx="361.14" cy="-244.57" rx="1.8" ry="1.8"/>
</g>
<!-- 19&#45;&#45;46 -->
<g id="edge23" class="edge">
<title>19&#45;&#45;46</title>
<path fill="none" stroke="black" stroke-width="0.75" d="M275.61,-210.38C286.88,-214.88 346.94,-238.89 359.02,-243.72"/>
</g>
<!-- 26 -->
<g id="node19" class="node">
<title>26</title>
<ellipse fill="black" stroke="black" cx="327.54" cy="-233.13" rx="1.8" ry="1.8"/>
</g>
<!-- 19&#45;&#45;26 -->
<g id="edge26" class="edge">
<title>19&#45;&#45;26</title>
<path fill="none" stroke="black" stroke-width="0.75" d="M275.58,-210.43C283.66,-213.96 316.8,-228.43 325.46,-232.22"/>
</g>
<!-- 45 -->
<g id="node20" class="node">
<title>45</title>
<ellipse fill="black" stroke="black" cx="352.76" cy="-194.88" rx="1.8" ry="1.8"/>
</g>
<!-- 19&#45;&#45;45 -->
<g id="edge27" class="edge">
<title>19&#45;&#45;45</title>
<path fill="none" stroke="black" stroke-width="0.75" d="M275.74,-209.28C286.57,-207.25 339.2,-197.41 350.59,-195.28"/>
</g>
<!-- 50 -->
<g id="node24" class="node">
<title>50</title>
<ellipse fill="black" stroke="black" cx="244.14" cy="-291.41" rx="1.8" ry="1.8"/>
</g>
<!-- 19&#45;&#45;50 -->
<g id="edge49" class="edge">
<title>19&#45;&#45;50</title>
<path fill="none" stroke="black" stroke-width="0.75" d="M273.05,-211.67C268.95,-222.98 248.88,-278.33 244.85,-289.46"/>
</g>
<!-- 49 -->
<g id="node25" class="node">
<title>49</title>
<ellipse fill="black" stroke="black" cx="223.77" cy="-184.07" rx="1.8" ry="1.8"/>
</g>
<!-- 19&#45;&#45;49 -->
<g id="edge41" class="edge">
<title>19&#45;&#45;49</title>
<path fill="none" stroke="black" stroke-width="0.75" d="M272.12,-208.79C264.53,-204.91 233.21,-188.89 225.49,-184.95"/>
</g>
<!-- 17&#45;&#45;29 -->
<g id="edge28" class="edge">
<title>17&#45;&#45;29</title>
<path fill="none" stroke="black" stroke-width="0.75" d="M312.53,-214.79C309.2,-225.75 294.25,-275.01 291.02,-285.66"/>
</g>
<!-- 17&#45;&#45;46 -->
<g id="edge29" class="edge">
<title>17&#45;&#45;46</title>
<path fill="none" stroke="black" stroke-width="0.75" d="M314.78,-213.68C322.06,-218.53 352.09,-238.54 359.49,-243.47"/>
</g>
<!-- 29&#45;&#45;46 -->
<g id="edge56" class="edge">
<title>29&#45;&#45;46</title>
<path fill="none" stroke="black" stroke-width="0.75" d="M292.15,-286.62C301.85,-280.71 349,-251.97 359.19,-245.76"/>
</g>
<!-- 41 -->
<g id="node21" class="node">
<title>41</title>
<ellipse fill="black" stroke="black" cx="359.41" cy="-321.95" rx="1.8" ry="1.8"/>
</g>
<!-- 29&#45;&#45;41 -->
<g id="edge30" class="edge">
<title>29&#45;&#45;41</title>
<path fill="none" stroke="black" stroke-width="0.75" d="M292.39,-288.68C302.47,-293.68 347.75,-316.16 357.54,-321.02"/>
</g>
<!-- 70 -->
<g id="node22" class="node">
<title>70</title>
<ellipse fill="black" stroke="black" cx="368.07" cy="-371.15" rx="1.8" ry="1.8"/>
</g>
<!-- 29&#45;&#45;70 -->
<g id="edge31" class="edge">
<title>29&#45;&#45;70</title>
<path fill="none" stroke="black" stroke-width="0.75" d="M291.75,-289.14C301.18,-299.27 357.13,-359.4 366.68,-369.66"/>
</g>
<!-- 29&#45;&#45;50 -->
<g id="edge68" class="edge">
<title>29&#45;&#45;50</title>
<path fill="none" stroke="black" stroke-width="0.75" d="M288.17,-287.87C280.23,-288.51 253.42,-290.66 246.04,-291.26"/>
</g>
<!-- 75 -->
<g id="node27" class="node">
<title>75</title>
<ellipse fill="black" stroke="black" cx="270.85" cy="-328.85" rx="1.8" ry="1.8"/>
</g>
<!-- 29&#45;&#45;75 -->
<g id="edge57" class="edge">
<title>29&#45;&#45;75</title>
<path fill="none" stroke="black" stroke-width="0.75" d="M289.56,-289.46C286.34,-296.23 274.83,-320.45 271.66,-327.13"/>
</g>
<!-- 79 -->
<g id="node42" class="node">
<title>79</title>
<ellipse fill="black" stroke="black" cx="241.77" cy="-333.33" rx="1.8" ry="1.8"/>
</g>
<!-- 29&#45;&#45;79 -->
<g id="edge69" class="edge">
<title>29&#45;&#45;79</title>
<path fill="none" stroke="black" stroke-width="0.75" d="M288.78,-289.21C281.4,-296.14 250.94,-324.72 243.44,-331.76"/>
</g>
<!-- 21&#45;&#45;29 -->
<g id="edge34" class="edge">
<title>21&#45;&#45;29</title>
<path fill="none" stroke="black" stroke-width="0.75" d="M188.97,-264.41C202.45,-267.51 274.8,-284.11 288.25,-287.2"/>
</g>
<!-- 21&#45;&#45;34 -->
<g id="edge64" class="edge">
<title>21&#45;&#45;34</title>
<path fill="none" stroke="black" stroke-width="0.75" d="M184.68,-264.06C171.43,-264.92 100.33,-269.58 87.11,-270.45"/>
</g>
<!-- 21&#45;&#45;50 -->
<g id="edge35" class="edge">
<title>21&#45;&#45;50</title>
<path fill="none" stroke="black" stroke-width="0.75" d="M188.71,-264.83C197.42,-269.01 233.33,-286.22 242.17,-290.46"/>
</g>
<!-- 55 -->
<g id="node39" class="node">
<title>55</title>
<ellipse fill="black" stroke="black" cx="87.8" cy="-242.42" rx="1.8" ry="1.8"/>
</g>
<!-- 21&#45;&#45;55 -->
<g id="edge65" class="edge">
<title>21&#45;&#45;55</title>
<path fill="none" stroke="black" stroke-width="0.75" d="M184.73,-263.47C171.85,-260.67 102.71,-245.66 89.86,-242.87"/>
</g>
<!-- 18&#45;&#45;31 -->
<g id="edge36" class="edge">
<title>18&#45;&#45;31</title>
<path fill="none" stroke="black" stroke-width="0.75" d="M154.85,-192.84C160.84,-202.24 189.94,-247.94 196.24,-257.83"/>
</g>
<!-- 18&#45;&#45;49 -->
<g id="edge37" class="edge">
<title>18&#45;&#45;49</title>
<path fill="none" stroke="black" stroke-width="0.75" d="M155.79,-190.94C166.01,-189.91 211.95,-185.26 221.88,-184.26"/>
</g>
<!-- 31&#45;&#45;50 -->
<g id="edge96" class="edge">
<title>31&#45;&#45;50</title>
<path fill="none" stroke="black" stroke-width="0.75" d="M198.99,-260.77C206.08,-265.58 235.33,-285.43 242.53,-290.32"/>
</g>
<!-- 31&#45;&#45;49 -->
<g id="edge72" class="edge">
<title>31&#45;&#45;49</title>
<path fill="none" stroke="black" stroke-width="0.75" d="M198.09,-257.84C201.7,-247.47 219.25,-197.05 223.05,-186.15"/>
</g>
<!-- 44 -->
<g id="node26" class="node">
<title>44</title>
<ellipse fill="black" stroke="black" cx="210.4" cy="-320.56" rx="1.8" ry="1.8"/>
</g>
<!-- 31&#45;&#45;44 -->
<g id="edge38" class="edge">
<title>31&#45;&#45;44</title>
<path fill="none" stroke="black" stroke-width="0.75" d="M197.87,-261.74C199.84,-270.98 207.95,-309.08 209.95,-318.46"/>
</g>
<!-- 31&#45;&#45;75 -->
<g id="edge39" class="edge">
<title>31&#45;&#45;75</title>
<path fill="none" stroke="black" stroke-width="0.75" d="M198.97,-261.16C208.52,-270.16 259.79,-318.44 269.32,-327.41"/>
</g>
<!-- 43 -->
<g id="node32" class="node">
<title>43</title>
<ellipse fill="black" stroke="black" cx="113" cy="-248.49" rx="1.8" ry="1.8"/>
</g>
<!-- 31&#45;&#45;43 -->
<g id="edge50" class="edge">
<title>31&#45;&#45;43</title>
<path fill="none" stroke="black" stroke-width="0.75" d="M195.35,-259.44C183.67,-257.88 126.5,-250.29 115.01,-248.76"/>
</g>
<!-- 74 -->
<g id="node33" class="node">
<title>74</title>
<ellipse fill="black" stroke="black" cx="117.33" cy="-321.46" rx="1.8" ry="1.8"/>
</g>
<!-- 31&#45;&#45;74 -->
<g id="edge51" class="edge">
<title>31&#45;&#45;74</title>
<path fill="none" stroke="black" stroke-width="0.75" d="M195.76,-261C185.34,-269.04 129.39,-312.16 118.99,-320.17"/>
</g>
<!-- 81 -->
<g id="node41" class="node">
<title>81</title>
<ellipse fill="black" stroke="black" cx="119.81" cy="-290.6" rx="1.8" ry="1.8"/>
</g>
<!-- 31&#45;&#45;81 -->
<g id="edge97" class="edge">
<title>31&#45;&#45;81</title>
<path fill="none" stroke="black" stroke-width="0.75" d="M195.52,-260.48C184.87,-264.71 133.13,-285.3 121.94,-289.75"/>
</g>
<!-- 80 -->
<g id="node44" class="node">
<title>80</title>
<ellipse fill="black" stroke="black" cx="137.04" cy="-332.78" rx="1.8" ry="1.8"/>
</g>
<!-- 31&#45;&#45;80 -->
<g id="edge73" class="edge">
<title>31&#45;&#45;80</title>
<path fill="none" stroke="black" stroke-width="0.75" d="M196.18,-261.24C188.38,-270.67 146.86,-320.9 138.5,-331"/>
</g>
<!-- 30&#45;&#45;41 -->
<g id="edge42" class="edge">
<title>30&#45;&#45;41</title>
<path fill="none" stroke="black" stroke-width="0.75" d="M286.79,-257.21C296.45,-265.81 348.24,-311.99 357.87,-320.57"/>
</g>
<!-- 30&#45;&#45;49 -->
<g id="edge80" class="edge">
<title>30&#45;&#45;49</title>
<path fill="none" stroke="black" stroke-width="0.75" d="M283.96,-254.33C276.03,-245.07 233.77,-195.73 225.26,-185.81"/>
</g>
<!-- 71 -->
<g id="node28" class="node">
<title>71</title>
<ellipse fill="black" stroke="black" cx="321.2" cy="-320.66" rx="1.8" ry="1.8"/>
</g>
<!-- 30&#45;&#45;71 -->
<g id="edge43" class="edge">
<title>30&#45;&#45;71</title>
<path fill="none" stroke="black" stroke-width="0.75" d="M286.28,-257.7C291.53,-267.17 315.13,-309.71 320.23,-318.9"/>
</g>
<!-- 30&#45;&#45;79 -->
<g id="edge81" class="edge">
<title>30&#45;&#45;79</title>
<path fill="none" stroke="black" stroke-width="0.75" d="M284.17,-257.74C278.16,-268.47 248.72,-320.94 242.81,-331.48"/>
</g>
<!-- 27&#45;&#45;46 -->
<g id="edge44" class="edge">
<title>27&#45;&#45;46</title>
<path fill="none" stroke="black" stroke-width="0.75" d="M339.36,-166.91C342.42,-177.83 357.31,-230.9 360.53,-242.38"/>
</g>
<!-- 73 -->
<g id="node29" class="node">
<title>73</title>
<ellipse fill="black" stroke="black" cx="398.94" cy="-155.11" rx="1.8" ry="1.8"/>
</g>
<!-- 27&#45;&#45;73 -->
<g id="edge45" class="edge">
<title>27&#45;&#45;73</title>
<path fill="none" stroke="black" stroke-width="0.75" d="M340.81,-164.61C349.94,-163.12 387.6,-156.96 396.87,-155.45"/>
</g>
<!-- 46&#45;&#45;75 -->
<g id="edge112" class="edge">
<title>46&#45;&#45;75</title>
<path fill="none" stroke="black" stroke-width="0.75" d="M359.57,-246.03C348.61,-256.26 283.56,-316.99 272.46,-327.35"/>
</g>
<!-- 46&#45;&#45;73 -->
<g id="edge88" class="edge">
<title>46&#45;&#45;73</title>
<path fill="none" stroke="black" stroke-width="0.75" d="M361.93,-242.7C366.85,-231.06 393.25,-168.58 398.15,-156.97"/>
</g>
<!-- 65 -->
<g id="node30" class="node">
<title>65</title>
<ellipse fill="black" stroke="black" cx="442.03" cy="-266.2" rx="1.8" ry="1.8"/>
</g>
<!-- 46&#45;&#45;65 -->
<g id="edge46" class="edge">
<title>46&#45;&#45;65</title>
<path fill="none" stroke="black" stroke-width="0.75" d="M363.14,-245.1C374.33,-248.1 429.09,-262.74 440.1,-265.68"/>
</g>
<!-- 111 -->
<g id="node31" class="node">
<title>111</title>
<ellipse fill="black" stroke="black" cx="432.21" cy="-315.77" rx="1.8" ry="1.8"/>
</g>
<!-- 46&#45;&#45;111 -->
<g id="edge47" class="edge">
<title>46&#45;&#45;111</title>
<path fill="none" stroke="black" stroke-width="0.75" d="M362.62,-246.06C371.87,-255.32 421.51,-305.05 430.74,-314.29"/>
</g>
<!-- 109 -->
<g id="node35" class="node">
<title>109</title>
<ellipse fill="black" stroke="black" cx="430.21" cy="-195.73" rx="1.8" ry="1.8"/>
</g>
<!-- 46&#45;&#45;109 -->
<g id="edge59" class="edge">
<title>46&#45;&#45;109</title>
<path fill="none" stroke="black" stroke-width="0.75" d="M362.85,-243.36C372.49,-236.55 419.98,-202.96 428.8,-196.72"/>
</g>
<!-- 63 -->
<g id="node36" class="node">
<title>63</title>
<ellipse fill="black" stroke="black" cx="421.58" cy="-240.99" rx="1.8" ry="1.8"/>
</g>
<!-- 46&#45;&#45;63 -->
<g id="edge58" class="edge">
<title>46&#45;&#45;63</title>
<path fill="none" stroke="black" stroke-width="0.75" d="M363.44,-244.43C373.09,-243.86 410.36,-241.65 419.53,-241.11"/>
</g>
<!-- 121 -->
<g id="node43" class="node">
<title>121</title>
<ellipse fill="black" stroke="black" cx="345.47" cy="-280.94" rx="1.8" ry="1.8"/>
</g>
<!-- 46&#45;&#45;121 -->
<g id="edge113" class="edge">
<title>46&#45;&#45;121</title>
<path fill="none" stroke="black" stroke-width="0.75" d="M360.3,-246.52C357.55,-252.9 348.88,-273.01 346.24,-279.14"/>
</g>
<!-- 119 -->
<g id="node47" class="node">
<title>119</title>
<ellipse fill="black" stroke="black" cx="314.98" cy="-290.61" rx="1.8" ry="1.8"/>
</g>
<!-- 46&#45;&#45;119 -->
<g id="edge89" class="edge">
<title>46&#45;&#45;119</title>
<path fill="none" stroke="black" stroke-width="0.75" d="M359.6,-246.1C352.6,-253.09 323.69,-281.93 316.57,-289.03"/>
</g>
<!-- 26&#45;&#45;45 -->
<g id="edge52" class="edge">
<title>26&#45;&#45;45</title>
<path fill="none" stroke="black" stroke-width="0.75" d="M328.63,-231.48C332.77,-225.19 347.62,-202.68 351.71,-196.47"/>
</g>
<!-- 26&#45;&#45;71 -->
<g id="edge53" class="edge">
<title>26&#45;&#45;71</title>
<path fill="none" stroke="black" stroke-width="0.75" d="M327.39,-235.29C326.51,-247.4 322.21,-306.66 321.35,-318.57"/>
</g>
<!-- 45&#45;&#45;71 -->
<g id="edge104" class="edge">
<title>45&#45;&#45;71</title>
<path fill="none" stroke="black" stroke-width="0.75" d="M352.21,-197.06C348.35,-212.46 325.25,-304.51 321.67,-318.8"/>
</g>
<!-- 64 -->
<g id="node34" class="node">
<title>64</title>
<ellipse fill="black" stroke="black" cx="400.65" cy="-126.03" rx="1.8" ry="1.8"/>
</g>
<!-- 45&#45;&#45;64 -->
<g id="edge54" class="edge">
<title>45&#45;&#45;64</title>
<path fill="none" stroke="black" stroke-width="0.75" d="M353.95,-193.17C360.63,-183.57 393.56,-136.23 399.67,-127.44"/>
</g>
<!-- 45&#45;&#45;109 -->
<g id="edge55" class="edge">
<title>45&#45;&#45;109</title>
<path fill="none" stroke="black" stroke-width="0.75" d="M355,-194.9C366.31,-195.02 417.13,-195.58 428.11,-195.7"/>
</g>
<!-- 116 -->
<g id="node46" class="node">
<title>116</title>
<ellipse fill="black" stroke="black" cx="299.21" cy="-117.14" rx="1.8" ry="1.8"/>
</g>
<!-- 45&#45;&#45;116 -->
<g id="edge105" class="edge">
<title>45&#45;&#45;116</title>
<path fill="none" stroke="black" stroke-width="0.75" d="M351.64,-193.25C344.73,-183.22 307.92,-129.78 300.51,-119.03"/>
</g>
<!-- 41&#45;&#45;70 -->
<g id="edge60" class="edge">
<title>41&#45;&#45;70</title>
<path fill="none" stroke="black" stroke-width="0.75" d="M359.78,-324.06C361.21,-332.15 366.3,-361.11 367.71,-369.1"/>
</g>
<!-- 41&#45;&#45;71 -->
<g id="edge84" class="edge">
<title>41&#45;&#45;71</title>
<path fill="none" stroke="black" stroke-width="0.75" d="M357.35,-321.88C350.78,-321.66 330.3,-320.97 323.45,-320.73"/>
</g>
<!-- 41&#45;&#45;111 -->
<g id="edge61" class="edge">
<title>41&#45;&#45;111</title>
<path fill="none" stroke="black" stroke-width="0.75" d="M361.51,-321.77C372.05,-320.87 419.08,-316.89 429.96,-315.96"/>
</g>
<!-- 112 -->
<g id="node52" class="node">
<title>112</title>
<ellipse fill="black" stroke="black" cx="401.35" cy="-409.5" rx="1.8" ry="1.8"/>
</g>
<!-- 41&#45;&#45;112 -->
<g id="edge85" class="edge">
<title>41&#45;&#45;112</title>
<path fill="none" stroke="black" stroke-width="0.75" d="M360.28,-323.77C365.74,-335.17 395.03,-396.32 400.48,-407.68"/>
</g>
<!-- 70&#45;&#45;111 -->
<g id="edge120" class="edge">
<title>70&#45;&#45;111</title>
<path fill="none" stroke="black" stroke-width="0.75" d="M369.65,-369.78C378.6,-362.05 422.71,-323.98 430.9,-316.9"/>
</g>
<!-- 99 -->
<g id="node37" class="node">
<title>99</title>
<ellipse fill="black" stroke="black" cx="429.21" cy="-438.84" rx="1.8" ry="1.8"/>
</g>
<!-- 70&#45;&#45;99 -->
<g id="edge62" class="edge">
<title>70&#45;&#45;99</title>
<path fill="none" stroke="black" stroke-width="0.75" d="M369.58,-372.82C378.11,-382.27 420.16,-428.82 427.97,-437.46"/>
</g>
<!-- 169 -->
<g id="node38" class="node">
<title>169</title>
<ellipse fill="black" stroke="black" cx="384.34" cy="-474.67" rx="1.8" ry="1.8"/>
</g>
<!-- 70&#45;&#45;169 -->
<g id="edge63" class="edge">
<title>70&#45;&#45;169</title>
<path fill="none" stroke="black" stroke-width="0.75" d="M368.41,-373.31C370.52,-386.79 381.89,-459.09 384,-472.52"/>
</g>
<!-- 181 -->
<g id="node49" class="node">
<title>181</title>
<ellipse fill="black" stroke="black" cx="311.74" cy="-403.75" rx="1.8" ry="1.8"/>
</g>
<!-- 70&#45;&#45;181 -->
<g id="edge121" class="edge">
<title>70&#45;&#45;181</title>
<path fill="none" stroke="black" stroke-width="0.75" d="M366.19,-372.23C357.64,-377.18 322.37,-397.6 313.68,-402.63"/>
</g>
<!-- 47 -->
<g id="node40" class="node">
<title>47</title>
<ellipse fill="black" stroke="black" cx="1.8" cy="-281.43" rx="1.8" ry="1.8"/>
</g>
<!-- 34&#45;&#45;47 -->
<g id="edge66" class="edge">
<title>34&#45;&#45;47</title>
<path fill="none" stroke="black" stroke-width="0.75" d="M82.94,-270.85C71.43,-272.35 15.11,-279.69 3.78,-281.17"/>
</g>
<!-- 34&#45;&#45;81 -->
<g id="edge67" class="edge">
<title>34&#45;&#45;81</title>
<path fill="none" stroke="black" stroke-width="0.75" d="M86.87,-271.66C92.97,-275.17 112.22,-286.24 118.09,-289.61"/>
</g>
<!-- 50&#45;&#45;71 -->
<g id="edge70" class="edge">
<title>50&#45;&#45;71</title>
<path fill="none" stroke="black" stroke-width="0.75" d="M246.05,-292.13C256.61,-296.15 307.97,-315.64 319.08,-319.85"/>
</g>
<!-- 50&#45;&#45;121 -->
<g id="edge71" class="edge">
<title>50&#45;&#45;121</title>
<path fill="none" stroke="black" stroke-width="0.75" d="M246.26,-291.19C259.44,-289.83 330.21,-282.51 343.36,-281.15"/>
</g>
<!-- 50&#45;&#45;119 -->
<g id="edge99" class="edge">
<title>50&#45;&#45;119</title>
<path fill="none" stroke="black" stroke-width="0.75" d="M246.19,-291.39C256.53,-291.27 303.02,-290.75 313.07,-290.63"/>
</g>
<!-- 69 -->
<g id="node60" class="node">
<title>69</title>
<ellipse fill="black" stroke="black" cx="175.88" cy="-381.95" rx="1.8" ry="1.8"/>
</g>
<!-- 50&#45;&#45;69 -->
<g id="edge98" class="edge">
<title>50&#45;&#45;69</title>
<path fill="none" stroke="black" stroke-width="0.75" d="M242.96,-292.98C234.67,-303.97 185.49,-369.2 177.1,-380.33"/>
</g>
<!-- 67 -->
<g id="node45" class="node">
<title>67</title>
<ellipse fill="black" stroke="black" cx="191.33" cy="-94.26" rx="1.8" ry="1.8"/>
</g>
<!-- 49&#45;&#45;67 -->
<g id="edge74" class="edge">
<title>49&#45;&#45;67</title>
<path fill="none" stroke="black" stroke-width="0.75" d="M223.1,-182.19C218.87,-170.5 196.21,-107.78 192,-96.12"/>
</g>
<!-- 49&#45;&#45;116 -->
<g id="edge75" class="edge">
<title>49&#45;&#45;116</title>
<path fill="none" stroke="black" stroke-width="0.75" d="M225.35,-182.67C235.17,-173.96 287.85,-127.22 297.64,-118.53"/>
</g>
<!-- 68 -->
<g id="node50" class="node">
<title>68</title>
<ellipse fill="black" stroke="black" cx="233.57" cy="-77.83" rx="1.8" ry="1.8"/>
</g>
<!-- 49&#45;&#45;68 -->
<g id="edge82" class="edge">
<title>49&#45;&#45;68</title>
<path fill="none" stroke="black" stroke-width="0.75" d="M223.98,-181.85C225.25,-168.02 232.09,-93.83 233.37,-80.04"/>
</g>
<!-- 117 -->
<g id="node51" class="node">
<title>117</title>
<ellipse fill="black" stroke="black" cx="121.68" cy="-163.62" rx="1.8" ry="1.8"/>
</g>
<!-- 49&#45;&#45;117 -->
<g id="edge83" class="edge">
<title>49&#45;&#45;117</title>
<path fill="none" stroke="black" stroke-width="0.75" d="M221.64,-183.64C208.35,-180.98 137.05,-166.7 123.8,-164.04"/>
</g>
<!-- 44&#45;&#45;75 -->
<g id="edge76" class="edge">
<title>44&#45;&#45;75</title>
<path fill="none" stroke="black" stroke-width="0.75" d="M212.41,-320.83C221.59,-322.09 259.44,-327.29 268.76,-328.56"/>
</g>
<!-- 44&#45;&#45;119 -->
<g id="edge77" class="edge">
<title>44&#45;&#45;119</title>
<path fill="none" stroke="black" stroke-width="0.75" d="M212.58,-319.93C226.19,-316.04 299.24,-295.12 312.81,-291.23"/>
</g>
<!-- 106 -->
<g id="node48" class="node">
<title>106</title>
<ellipse fill="black" stroke="black" cx="254.25" cy="-426.07" rx="1.8" ry="1.8"/>
</g>
<!-- 75&#45;&#45;106 -->
<g id="edge78" class="edge">
<title>75&#45;&#45;106</title>
<path fill="none" stroke="black" stroke-width="0.75" d="M270.5,-330.88C268.34,-343.53 256.75,-411.43 254.59,-424.05"/>
</g>
<!-- 75&#45;&#45;181 -->
<g id="edge79" class="edge">
<title>75&#45;&#45;181</title>
<path fill="none" stroke="black" stroke-width="0.75" d="M271.86,-330.7C277.51,-341.06 305.2,-391.77 310.77,-401.96"/>
</g>
<!-- 179 -->
<g id="node62" class="node">
<title>179</title>
<ellipse fill="black" stroke="black" cx="188.09" cy="-386.02" rx="1.8" ry="1.8"/>
</g>
<!-- 75&#45;&#45;179 -->
<g id="edge115" class="edge">
<title>75&#45;&#45;179</title>
<path fill="none" stroke="black" stroke-width="0.75" d="M269.12,-330.04C258.35,-337.48 200.55,-377.41 189.81,-384.83"/>
</g>
<!-- 104 -->
<g id="node67" class="node">
<title>104</title>
<ellipse fill="black" stroke="black" cx="225.82" cy="-419.47" rx="1.8" ry="1.8"/>
</g>
<!-- 75&#45;&#45;104 -->
<g id="edge114" class="edge">
<title>75&#45;&#45;104</title>
<path fill="none" stroke="black" stroke-width="0.75" d="M269.9,-330.74C264.05,-342.54 232.6,-405.82 226.76,-417.59"/>
</g>
<!-- 101 -->
<g id="node53" class="node">
<title>101</title>
<ellipse fill="black" stroke="black" cx="309.05" cy="-427.59" rx="1.8" ry="1.8"/>
</g>
<!-- 71&#45;&#45;101 -->
<g id="edge86" class="edge">
<title>71&#45;&#45;101</title>
<path fill="none" stroke="black" stroke-width="0.75" d="M320.95,-322.89C319.36,-336.81 310.88,-411.49 309.3,-425.37"/>
</g>
<!-- 172 -->
<g id="node54" class="node">
<title>172</title>
<ellipse fill="black" stroke="black" cx="415.39" cy="-323.93" rx="1.8" ry="1.8"/>
</g>
<!-- 71&#45;&#45;172 -->
<g id="edge87" class="edge">
<title>71&#45;&#45;172</title>
<path fill="none" stroke="black" stroke-width="0.75" d="M323.17,-320.73C335.32,-321.15 400.07,-323.39 413.1,-323.85"/>
</g>
<!-- 97 -->
<g id="node63" class="node">
<title>97</title>
<ellipse fill="black" stroke="black" cx="275.69" cy="-413.41" rx="1.8" ry="1.8"/>
</g>
<!-- 71&#45;&#45;97 -->
<g id="edge106" class="edge">
<title>71&#45;&#45;97</title>
<path fill="none" stroke="black" stroke-width="0.75" d="M320.25,-322.6C314.33,-334.67 282.54,-399.45 276.63,-411.49"/>
</g>
<!-- 168 -->
<g id="node64" class="node">
<title>168</title>
<ellipse fill="black" stroke="black" cx="350.98" cy="-411.56" rx="1.8" ry="1.8"/>
</g>
<!-- 71&#45;&#45;168 -->
<g id="edge107" class="edge">
<title>71&#45;&#45;168</title>
<path fill="none" stroke="black" stroke-width="0.75" d="M321.82,-322.56C325.7,-334.39 346.49,-397.87 350.36,-409.67"/>
</g>
<!-- 100 -->
<g id="node55" class="node">
<title>100</title>
<ellipse fill="black" stroke="black" cx="455.34" cy="-74.28" rx="1.8" ry="1.8"/>
</g>
<!-- 73&#45;&#45;100 -->
<g id="edge90" class="edge">
<title>73&#45;&#45;100</title>
<path fill="none" stroke="black" stroke-width="0.75" d="M400.12,-153.42C407.46,-142.9 446.85,-86.45 454.17,-75.96"/>
</g>
<!-- 173 -->
<g id="node56" class="node">
<title>173</title>
<ellipse fill="black" stroke="black" cx="408.74" cy="-68.78" rx="1.8" ry="1.8"/>
</g>
<!-- 73&#45;&#45;173 -->
<g id="edge91" class="edge">
<title>73&#45;&#45;173</title>
<path fill="none" stroke="black" stroke-width="0.75" d="M399.18,-152.97C400.54,-141.03 407.17,-82.59 408.5,-70.84"/>
</g>
<!-- 65&#45;&#45;111 -->
<g id="edge92" class="edge">
<title>65&#45;&#45;111</title>
<path fill="none" stroke="black" stroke-width="0.75" d="M441.61,-268.33C439.99,-276.48 434.22,-305.66 432.62,-313.71"/>
</g>
<!-- 176 -->
<g id="node57" class="node">
<title>176</title>
<ellipse fill="black" stroke="black" cx="541.11" cy="-255.3" rx="1.8" ry="1.8"/>
</g>
<!-- 65&#45;&#45;176 -->
<g id="edge93" class="edge">
<title>65&#45;&#45;176</title>
<path fill="none" stroke="black" stroke-width="0.75" d="M444.1,-265.97C456.99,-264.55 526.19,-256.94 539.05,-255.52"/>
</g>
<!-- 157 -->
<g id="node58" class="node">
<title>157</title>
<ellipse fill="black" stroke="black" cx="518.92" cy="-324.39" rx="1.8" ry="1.8"/>
</g>
<!-- 111&#45;&#45;157 -->
<g id="edge94" class="edge">
<title>111&#45;&#45;157</title>
<path fill="none" stroke="black" stroke-width="0.75" d="M434.36,-315.99C446.35,-317.18 505.05,-323.01 516.85,-324.18"/>
</g>
<!-- 268 -->
<g id="node59" class="node">
<title>268</title>
<ellipse fill="black" stroke="black" cx="481.87" cy="-390.52" rx="1.8" ry="1.8"/>
</g>
<!-- 111&#45;&#45;268 -->
<g id="edge95" class="edge">
<title>111&#45;&#45;268</title>
<path fill="none" stroke="black" stroke-width="0.75" d="M433.44,-317.62C440.31,-327.96 473.93,-378.57 480.69,-388.74"/>
</g>
<!-- 263 -->
<g id="node66" class="node">
<title>263</title>
<ellipse fill="black" stroke="black" cx="497.6" cy="-257.05" rx="1.8" ry="1.8"/>
</g>
<!-- 111&#45;&#45;263 -->
<g id="edge123" class="edge">
<title>111&#45;&#45;263</title>
<path fill="none" stroke="black" stroke-width="0.75" d="M433.83,-314.32C442.96,-306.13 487.91,-265.75 496.26,-258.25"/>
</g>
<!-- 152 -->
<g id="node70" class="node">
<title>152</title>
<ellipse fill="black" stroke="black" cx="508.28" cy="-355.79" rx="1.8" ry="1.8"/>
</g>
<!-- 111&#45;&#45;152 -->
<g id="edge122" class="edge">
<title>111&#45;&#45;152</title>
<path fill="none" stroke="black" stroke-width="0.75" d="M434.1,-316.76C444.62,-322.3 496.11,-349.39 506.46,-354.83"/>
</g>
<!-- 43&#45;&#45;74 -->
<g id="edge100" class="edge">
<title>43&#45;&#45;74</title>
<path fill="none" stroke="black" stroke-width="0.75" d="M113.12,-250.6C113.75,-261.16 116.55,-308.3 117.19,-319.2"/>
</g>
<!-- 43&#45;&#45;117 -->
<g id="edge101" class="edge">
<title>43&#45;&#45;117</title>
<path fill="none" stroke="black" stroke-width="0.75" d="M113.21,-246.4C114.41,-234.65 120.29,-177.19 121.47,-165.64"/>
</g>
<!-- 105 -->
<g id="node61" class="node">
<title>105</title>
<ellipse fill="black" stroke="black" cx="40.39" cy="-366.65" rx="1.8" ry="1.8"/>
</g>
<!-- 74&#45;&#45;105 -->
<g id="edge102" class="edge">
<title>74&#45;&#45;105</title>
<path fill="none" stroke="black" stroke-width="0.75" d="M115.42,-322.57C104.78,-328.82 52.7,-359.42 42.23,-365.57"/>
</g>
<!-- 74&#45;&#45;179 -->
<g id="edge103" class="edge">
<title>74&#45;&#45;179</title>
<path fill="none" stroke="black" stroke-width="0.75" d="M118.8,-322.8C128.01,-331.21 177.44,-376.3 186.62,-384.68"/>
</g>
<!-- 64&#45;&#45;109 -->
<g id="edge108" class="edge">
<title>64&#45;&#45;109</title>
<path fill="none" stroke="black" stroke-width="0.75" d="M401.5,-128.04C405.82,-138.22 425.22,-183.96 429.41,-193.84"/>
</g>
<!-- 64&#45;&#45;173 -->
<g id="edge109" class="edge">
<title>64&#45;&#45;173</title>
<path fill="none" stroke="black" stroke-width="0.75" d="M400.92,-124.13C402.14,-115.51 407.12,-80.22 408.42,-71"/>
</g>
<!-- 154 -->
<g id="node65" class="node">
<title>154</title>
<ellipse fill="black" stroke="black" cx="502.6" cy="-151.4" rx="1.8" ry="1.8"/>
</g>
<!-- 109&#45;&#45;154 -->
<g id="edge110" class="edge">
<title>109&#45;&#45;154</title>
<path fill="none" stroke="black" stroke-width="0.75" d="M432,-194.63C442.01,-188.5 491.02,-158.49 500.87,-152.46"/>
</g>
<!-- 109&#45;&#45;263 -->
<g id="edge111" class="edge">
<title>109&#45;&#45;263</title>
<path fill="none" stroke="black" stroke-width="0.75" d="M431.87,-197.24C441.28,-205.8 487.62,-247.96 496.22,-255.8"/>
</g>
<!-- 155 -->
<g id="node68" class="node">
<title>155</title>
<ellipse fill="black" stroke="black" cx="516.98" cy="-184.8" rx="1.8" ry="1.8"/>
</g>
<!-- 109&#45;&#45;155 -->
<g id="edge118" class="edge">
<title>109&#45;&#45;155</title>
<path fill="none" stroke="black" stroke-width="0.75" d="M432.35,-195.46C444.36,-193.95 503.1,-186.55 514.91,-185.06"/>
</g>
<!-- 264 -->
<g id="node69" class="node">
<title>264</title>
<ellipse fill="black" stroke="black" cx="479.53" cy="-122.46" rx="1.8" ry="1.8"/>
</g>
<!-- 109&#45;&#45;264 -->
<g id="edge119" class="edge">
<title>109&#45;&#45;264</title>
<path fill="none" stroke="black" stroke-width="0.75" d="M431.43,-193.92C438.25,-183.78 471.64,-134.18 478.36,-124.21"/>
</g>
<!-- 63&#45;&#45;109 -->
<g id="edge116" class="edge">
<title>63&#45;&#45;109</title>
<path fill="none" stroke="black" stroke-width="0.75" d="M421.99,-238.8C423.47,-231.03 428.48,-204.81 429.85,-197.58"/>
</g>
<!-- 63&#45;&#45;172 -->
<g id="edge117" class="edge">
<title>63&#45;&#45;172</title>
<path fill="none" stroke="black" stroke-width="0.75" d="M421.42,-243.04C420.57,-254.41 416.45,-309.69 415.56,-321.64"/>
</g>
<!-- 99&#45;&#45;169 -->
<g id="edge124" class="edge">
<title>99&#45;&#45;169</title>
<path fill="none" stroke="black" stroke-width="0.75" d="M427.72,-440.04C420.91,-445.48 392.8,-467.92 385.88,-473.44"/>
</g>
<!-- 99&#45;&#45;268 -->
<g id="edge125" class="edge">
<title>99&#45;&#45;268</title>
<path fill="none" stroke="black" stroke-width="0.75" d="M430.52,-437.65C437.74,-431.02 472.83,-398.82 480.42,-391.85"/>
</g>
<!-- 239 -->
<g id="node71" class="node">
<title>239</title>
<ellipse fill="black" stroke="black" cx="442.63" cy="-537.32" rx="1.8" ry="1.8"/>
</g>
<!-- 169&#45;&#45;239 -->
<g id="edge126" class="edge">
<title>169&#45;&#45;239</title>
<path fill="none" stroke="black" stroke-width="0.75" d="M385.78,-476.22C393.91,-484.97 433.99,-528.04 441.44,-536.04"/>
</g>
<!-- 408 -->
<g id="node72" class="node">
<title>408</title>
<ellipse fill="black" stroke="black" cx="368.84" cy="-558.58" rx="1.8" ry="1.8"/>
</g>
<!-- 169&#45;&#45;408 -->
<g id="edge127" class="edge">
<title>169&#45;&#45;408</title>
<path fill="none" stroke="black" stroke-width="0.75" d="M383.95,-476.75C381.81,-488.36 371.32,-545.16 369.21,-556.58"/>
</g>
</g>
</svg>
