<?xml version="1.0" encoding="UTF-8" standalone="no"?>
<!DOCTYPE svg PUBLIC "-//W3C//DTD SVG 1.1//EN"
 "http://www.w3.org/Graphics/SVG/1.1/DTD/svg11.dtd">
<!-- Generated by graphviz version 12.0.0 (0)
 -->
<!-- Pages: 1 -->
<svg width="56pt" height="54pt"
 viewBox="0.00 0.00 55.59 54.00" xmlns="http://www.w3.org/2000/svg" xmlns:xlink="http://www.w3.org/1999/xlink">
<g id="graph0" class="graph" transform="scale(0.144475 0.144475) rotate(0) translate(4 369.77)">
<!-- 1 -->
<g id="node1" class="node">
<title>1</title>
<ellipse fill="black" stroke="black" cx="30.82" cy="-137.36" rx="1.8" ry="1.8"/>
</g>
<!-- 2 -->
<g id="node2" class="node">
<title>2</title>
<ellipse fill="black" stroke="black" cx="106.88" cy="-69.11" rx="1.8" ry="1.8"/>
</g>
<!-- 1&#45;&#45;2 -->
<g id="edge1" class="edge">
<title>1&#45;&#45;2</title>
<path fill="none" stroke="black" stroke-width="0.75" d="M32.41,-135.93C42.31,-127.05 95.42,-79.39 105.3,-70.53"/>
</g>
<!-- 4 -->
<g id="node3" class="node">
<title>4</title>
<ellipse fill="black" stroke="black" cx="90.14" cy="-159.38" rx="1.8" ry="1.8"/>
</g>
<!-- 1&#45;&#45;4 -->
<g id="edge2" class="edge">
<title>1&#45;&#45;4</title>
<path fill="none" stroke="black" stroke-width="0.75" d="M32.8,-138.09C41.8,-141.43 78.95,-155.22 88.09,-158.62"/>
</g>
<!-- 7 -->
<g id="node4" class="node">
<title>7</title>
<ellipse fill="black" stroke="black" cx="98.41" cy="-227.25" rx="1.8" ry="1.8"/>
</g>
<!-- 1&#45;&#45;7 -->
<g id="edge3" class="edge">
<title>1&#45;&#45;7</title>
<path fill="none" stroke="black" stroke-width="0.75" d="M32,-138.92C40.2,-149.83 88.9,-214.6 97.21,-225.65"/>
</g>
<!-- 19 -->
<g id="node5" class="node">
<title>19</title>
<ellipse fill="black" stroke="black" cx="1.8" cy="-188.48" rx="1.8" ry="1.8"/>
</g>
<!-- 1&#45;&#45;19 -->
<g id="edge4" class="edge">
<title>1&#45;&#45;19</title>
<path fill="none" stroke="black" stroke-width="0.75" d="M29.86,-139.06C25.45,-146.82 7.27,-178.84 2.8,-186.72"/>
</g>
<!-- 3 -->
<g id="node6" class="node">
<title>3</title>
<ellipse fill="black" stroke="black" cx="185.94" cy="-1.8" rx="1.8" ry="1.8"/>
</g>
<!-- 2&#45;&#45;3 -->
<g id="edge5" class="edge">
<title>2&#45;&#45;3</title>
<path fill="none" stroke="black" stroke-width="0.75" d="M108.53,-67.7C118.82,-58.94 174.03,-11.94 184.29,-3.2"/>
</g>
<!-- 5 -->
<g id="node7" class="node">
<title>5</title>
<ellipse fill="black" stroke="black" cx="171.59" cy="-88.1" rx="1.8" ry="1.8"/>
</g>
<!-- 2&#45;&#45;5 -->
<g id="edge6" class="edge">
<title>2&#45;&#45;5</title>
<path fill="none" stroke="black" stroke-width="0.75" d="M109.03,-69.74C119.03,-72.68 160.84,-84.94 169.86,-87.59"/>
</g>
<!-- 8 -->
<g id="node8" class="node">
<title>8</title>
<ellipse fill="black" stroke="black" cx="176.6" cy="-153.56" rx="1.8" ry="1.8"/>
</g>
<!-- 2&#45;&#45;8 -->
<g id="edge7" class="edge">
<title>2&#45;&#45;8</title>
<path fill="none" stroke="black" stroke-width="0.75" d="M108.33,-70.87C117.41,-81.86 166.1,-140.85 175.15,-151.81"/>
</g>
<!-- 20 -->
<g id="node9" class="node">
<title>20</title>
<ellipse fill="black" stroke="black" cx="70.06" cy="-109.56" rx="1.8" ry="1.8"/>
</g>
<!-- 2&#45;&#45;20 -->
<g id="edge8" class="edge">
<title>2&#45;&#45;20</title>
<path fill="none" stroke="black" stroke-width="0.75" d="M105.65,-70.46C100.06,-76.6 77.01,-101.93 71.33,-108.16"/>
</g>
<!-- 4&#45;&#45;5 -->
<g id="edge12" class="edge">
<title>4&#45;&#45;5</title>
<path fill="none" stroke="black" stroke-width="0.75" d="M91.84,-157.89C102.44,-148.61 159.32,-98.83 169.89,-89.58"/>
</g>
<!-- 10 -->
<g id="node13" class="node">
<title>10</title>
<ellipse fill="black" stroke="black" cx="163.5" cy="-245.04" rx="1.8" ry="1.8"/>
</g>
<!-- 4&#45;&#45;10 -->
<g id="edge13" class="edge">
<title>4&#45;&#45;10</title>
<path fill="none" stroke="black" stroke-width="0.75" d="M91.41,-160.86C100.31,-171.26 153.17,-232.98 162.19,-243.51"/>
</g>
<!-- 22 -->
<g id="node14" class="node">
<title>22</title>
<ellipse fill="black" stroke="black" cx="52.5" cy="-210.21" rx="1.8" ry="1.8"/>
</g>
<!-- 4&#45;&#45;22 -->
<g id="edge14" class="edge">
<title>4&#45;&#45;22</title>
<path fill="none" stroke="black" stroke-width="0.75" d="M88.88,-161.07C83.17,-168.79 59.6,-200.62 53.79,-208.46"/>
</g>
<!-- 7&#45;&#45;8 -->
<g id="edge20" class="edge">
<title>7&#45;&#45;8</title>
<path fill="none" stroke="black" stroke-width="0.75" d="M100.04,-225.71C110.22,-216.12 164.82,-164.66 174.97,-155.09"/>
</g>
<!-- 7&#45;&#45;10 -->
<g id="edge21" class="edge">
<title>7&#45;&#45;10</title>
<path fill="none" stroke="black" stroke-width="0.75" d="M100.58,-227.85C110.64,-230.59 152.69,-242.08 161.77,-244.56"/>
</g>
<!-- 13 -->
<g id="node19" class="node">
<title>13</title>
<ellipse fill="black" stroke="black" cx="167.38" cy="-312.77" rx="1.8" ry="1.8"/>
</g>
<!-- 7&#45;&#45;13 -->
<g id="edge22" class="edge">
<title>7&#45;&#45;13</title>
<path fill="none" stroke="black" stroke-width="0.75" d="M99.85,-229.04C108.83,-240.17 157,-299.9 165.95,-311"/>
</g>
<!-- 25 -->
<g id="node20" class="node">
<title>25</title>
<ellipse fill="black" stroke="black" cx="61.56" cy="-269.83" rx="1.8" ry="1.8"/>
</g>
<!-- 7&#45;&#45;25 -->
<g id="edge23" class="edge">
<title>7&#45;&#45;25</title>
<path fill="none" stroke="black" stroke-width="0.75" d="M97.19,-228.67C91.59,-235.13 68.51,-261.8 62.83,-268.36"/>
</g>
<!-- 19&#45;&#45;20 -->
<g id="edge52" class="edge">
<title>19&#45;&#45;20</title>
<path fill="none" stroke="black" stroke-width="0.75" d="M3.23,-186.83C12.11,-176.56 59.78,-121.44 68.64,-111.2"/>
</g>
<!-- 19&#45;&#45;22 -->
<g id="edge53" class="edge">
<title>19&#45;&#45;22</title>
<path fill="none" stroke="black" stroke-width="0.75" d="M3.49,-189.2C11.18,-192.5 42.93,-206.11 50.75,-209.47"/>
</g>
<!-- 19&#45;&#45;25 -->
<g id="edge54" class="edge">
<title>19&#45;&#45;25</title>
<path fill="none" stroke="black" stroke-width="0.75" d="M3.05,-190.18C10.83,-200.76 52.56,-257.58 60.32,-268.14"/>
</g>
<!-- 6 -->
<g id="node10" class="node">
<title>6</title>
<ellipse fill="black" stroke="black" cx="254.09" cy="-19.33" rx="1.8" ry="1.8"/>
</g>
<!-- 3&#45;&#45;6 -->
<g id="edge9" class="edge">
<title>3&#45;&#45;6</title>
<path fill="none" stroke="black" stroke-width="0.75" d="M187.9,-2.31C197.85,-4.87 242.58,-16.37 252.24,-18.85"/>
</g>
<!-- 9 -->
<g id="node11" class="node">
<title>9</title>
<ellipse fill="black" stroke="black" cx="256.23" cy="-79.01" rx="1.8" ry="1.8"/>
</g>
<!-- 3&#45;&#45;9 -->
<g id="edge10" class="edge">
<title>3&#45;&#45;9</title>
<path fill="none" stroke="black" stroke-width="0.75" d="M187.41,-3.41C196.55,-13.46 245.64,-67.38 254.77,-77.41"/>
</g>
<!-- 21 -->
<g id="node12" class="node">
<title>21</title>
<ellipse fill="black" stroke="black" cx="139.04" cy="-35.64" rx="1.8" ry="1.8"/>
</g>
<!-- 3&#45;&#45;21 -->
<g id="edge11" class="edge">
<title>3&#45;&#45;21</title>
<path fill="none" stroke="black" stroke-width="0.75" d="M184.38,-2.93C177.26,-8.06 147.89,-29.26 140.66,-34.47"/>
</g>
<!-- 5&#45;&#45;6 -->
<g id="edge15" class="edge">
<title>5&#45;&#45;6</title>
<path fill="none" stroke="black" stroke-width="0.75" d="M173.31,-86.66C184.05,-77.71 241.66,-29.68 252.37,-20.76"/>
</g>
<!-- 11 -->
<g id="node15" class="node">
<title>11</title>
<ellipse fill="black" stroke="black" cx="239.62" cy="-171.21" rx="1.8" ry="1.8"/>
</g>
<!-- 5&#45;&#45;11 -->
<g id="edge16" class="edge">
<title>5&#45;&#45;11</title>
<path fill="none" stroke="black" stroke-width="0.75" d="M173.01,-89.83C181.86,-100.65 229.37,-158.7 238.2,-169.48"/>
</g>
<!-- 23 -->
<g id="node16" class="node">
<title>23</title>
<ellipse fill="black" stroke="black" cx="131.04" cy="-129.63" rx="1.8" ry="1.8"/>
</g>
<!-- 5&#45;&#45;23 -->
<g id="edge17" class="edge">
<title>5&#45;&#45;23</title>
<path fill="none" stroke="black" stroke-width="0.75" d="M170.24,-89.48C164.08,-95.79 138.69,-121.79 132.44,-128.2"/>
</g>
<!-- 8&#45;&#45;9 -->
<g id="edge24" class="edge">
<title>8&#45;&#45;9</title>
<path fill="none" stroke="black" stroke-width="0.75" d="M178.26,-152.01C188.62,-142.3 244.24,-90.24 254.57,-80.56"/>
</g>
<!-- 8&#45;&#45;11 -->
<g id="edge25" class="edge">
<title>8&#45;&#45;11</title>
<path fill="none" stroke="black" stroke-width="0.75" d="M178.69,-154.15C188.26,-156.83 227.73,-167.88 237.45,-170.6"/>
</g>
<!-- 14 -->
<g id="node21" class="node">
<title>14</title>
<ellipse fill="black" stroke="black" cx="245.93" cy="-236.27" rx="1.8" ry="1.8"/>
</g>
<!-- 8&#45;&#45;14 -->
<g id="edge26" class="edge">
<title>8&#45;&#45;14</title>
<path fill="none" stroke="black" stroke-width="0.75" d="M178.05,-155.29C187.07,-166.05 235.49,-223.81 244.49,-234.55"/>
</g>
<!-- 26 -->
<g id="node22" class="node">
<title>26</title>
<ellipse fill="black" stroke="black" cx="137.23" cy="-194.55" rx="1.8" ry="1.8"/>
</g>
<!-- 8&#45;&#45;26 -->
<g id="edge27" class="edge">
<title>8&#45;&#45;26</title>
<path fill="none" stroke="black" stroke-width="0.75" d="M175.29,-154.93C169.31,-161.15 144.65,-186.82 138.58,-193.14"/>
</g>
<!-- 20&#45;&#45;21 -->
<g id="edge55" class="edge">
<title>20&#45;&#45;21</title>
<path fill="none" stroke="black" stroke-width="0.75" d="M71.5,-108.01C80.48,-98.39 128.66,-46.77 137.61,-37.17"/>
</g>
<!-- 20&#45;&#45;23 -->
<g id="edge56" class="edge">
<title>20&#45;&#45;23</title>
<path fill="none" stroke="black" stroke-width="0.75" d="M72.09,-110.22C81.35,-113.27 119.54,-125.84 128.94,-128.94"/>
</g>
<!-- 20&#45;&#45;26 -->
<g id="edge57" class="edge">
<title>20&#45;&#45;26</title>
<path fill="none" stroke="black" stroke-width="0.75" d="M71.46,-111.33C80.21,-122.39 127.11,-181.75 135.83,-192.78"/>
</g>
<!-- 12 -->
<g id="node17" class="node">
<title>12</title>
<ellipse fill="black" stroke="black" cx="315.27" cy="-95.97" rx="1.8" ry="1.8"/>
</g>
<!-- 6&#45;&#45;12 -->
<g id="edge18" class="edge">
<title>6&#45;&#45;12</title>
<path fill="none" stroke="black" stroke-width="0.75" d="M255.36,-20.93C263.33,-30.9 306.06,-84.43 314,-94.38"/>
</g>
<!-- 24 -->
<g id="node18" class="node">
<title>24</title>
<ellipse fill="black" stroke="black" cx="209.25" cy="-52.82" rx="1.8" ry="1.8"/>
</g>
<!-- 6&#45;&#45;24 -->
<g id="edge19" class="edge">
<title>6&#45;&#45;24</title>
<path fill="none" stroke="black" stroke-width="0.75" d="M252.59,-20.44C245.79,-25.53 217.71,-46.5 210.79,-51.67"/>
</g>
<!-- 9&#45;&#45;12 -->
<g id="edge28" class="edge">
<title>9&#45;&#45;12</title>
<path fill="none" stroke="black" stroke-width="0.75" d="M258.19,-79.58C267.16,-82.15 304.14,-92.77 313.24,-95.39"/>
</g>
<!-- 15 -->
<g id="node23" class="node">
<title>15</title>
<ellipse fill="black" stroke="black" cx="324.4" cy="-155.49" rx="1.8" ry="1.8"/>
</g>
<!-- 9&#45;&#45;15 -->
<g id="edge29" class="edge">
<title>9&#45;&#45;15</title>
<path fill="none" stroke="black" stroke-width="0.75" d="M257.65,-80.61C266.52,-90.56 314.14,-143.97 322.99,-153.9"/>
</g>
<!-- 27 -->
<g id="node24" class="node">
<title>27</title>
<ellipse fill="black" stroke="black" cx="213.1" cy="-120.45" rx="1.8" ry="1.8"/>
</g>
<!-- 9&#45;&#45;27 -->
<g id="edge30" class="edge">
<title>9&#45;&#45;27</title>
<path fill="none" stroke="black" stroke-width="0.75" d="M254.79,-80.39C248.24,-86.68 221.23,-112.63 214.58,-119.02"/>
</g>
<!-- 21&#45;&#45;24 -->
<g id="edge58" class="edge">
<title>21&#45;&#45;24</title>
<path fill="none" stroke="black" stroke-width="0.75" d="M141.07,-36.13C151.32,-38.64 197.39,-49.92 207.35,-52.36"/>
</g>
<!-- 21&#45;&#45;27 -->
<g id="edge59" class="edge">
<title>21&#45;&#45;27</title>
<path fill="none" stroke="black" stroke-width="0.75" d="M140.33,-37.11C149.32,-47.41 202.67,-108.51 211.78,-118.94"/>
</g>
<!-- 10&#45;&#45;11 -->
<g id="edge31" class="edge">
<title>10&#45;&#45;11</title>
<path fill="none" stroke="black" stroke-width="0.75" d="M165.09,-243.49C174.99,-233.89 228.16,-182.33 238.04,-172.74"/>
</g>
<!-- 16 -->
<g id="node25" class="node">
<title>16</title>
<ellipse fill="black" stroke="black" cx="237.49" cy="-330.01" rx="1.8" ry="1.8"/>
</g>
<!-- 10&#45;&#45;16 -->
<g id="edge32" class="edge">
<title>10&#45;&#45;16</title>
<path fill="none" stroke="black" stroke-width="0.75" d="M164.78,-246.51C173.76,-256.82 227.07,-318.05 236.17,-328.49"/>
</g>
<!-- 28 -->
<g id="node26" class="node">
<title>28</title>
<ellipse fill="black" stroke="black" cx="120.62" cy="-286.71" rx="1.8" ry="1.8"/>
</g>
<!-- 10&#45;&#45;28 -->
<g id="edge33" class="edge">
<title>10&#45;&#45;28</title>
<path fill="none" stroke="black" stroke-width="0.75" d="M162.07,-246.42C155.56,-252.75 128.71,-278.85 122.1,-285.27"/>
</g>
<!-- 22&#45;&#45;23 -->
<g id="edge60" class="edge">
<title>22&#45;&#45;23</title>
<path fill="none" stroke="black" stroke-width="0.75" d="M53.86,-208.81C63.39,-199.03 119.98,-140.97 129.64,-131.06"/>
</g>
<!-- 22&#45;&#45;28 -->
<g id="edge61" class="edge">
<title>22&#45;&#45;28</title>
<path fill="none" stroke="black" stroke-width="0.75" d="M53.92,-211.81C62.79,-221.77 110.36,-275.19 119.21,-285.12"/>
</g>
<!-- 11&#45;&#45;12 -->
<g id="edge34" class="edge">
<title>11&#45;&#45;12</title>
<path fill="none" stroke="black" stroke-width="0.75" d="M241.2,-169.64C251.04,-159.85 303.88,-107.3 313.7,-97.54"/>
</g>
<!-- 17 -->
<g id="node27" class="node">
<title>17</title>
<ellipse fill="black" stroke="black" cx="306.74" cy="-256.31" rx="1.8" ry="1.8"/>
</g>
<!-- 11&#45;&#45;17 -->
<g id="edge35" class="edge">
<title>11&#45;&#45;17</title>
<path fill="none" stroke="black" stroke-width="0.75" d="M241.02,-172.99C249.76,-184.06 296.63,-243.5 305.34,-254.54"/>
</g>
<!-- 29 -->
<g id="node28" class="node">
<title>29</title>
<ellipse fill="black" stroke="black" cx="200.34" cy="-212.29" rx="1.8" ry="1.8"/>
</g>
<!-- 11&#45;&#45;29 -->
<g id="edge36" class="edge">
<title>11&#45;&#45;29</title>
<path fill="none" stroke="black" stroke-width="0.75" d="M238.31,-172.58C232.35,-178.81 207.75,-204.54 201.69,-210.87"/>
</g>
<!-- 23&#45;&#45;24 -->
<g id="edge62" class="edge">
<title>23&#45;&#45;24</title>
<path fill="none" stroke="black" stroke-width="0.75" d="M132.68,-128.02C142.85,-118.03 197.48,-64.39 207.63,-54.42"/>
</g>
<!-- 23&#45;&#45;29 -->
<g id="edge63" class="edge">
<title>23&#45;&#45;29</title>
<path fill="none" stroke="black" stroke-width="0.75" d="M132.49,-131.35C141.51,-142.11 189.9,-199.84 198.9,-210.57"/>
</g>
<!-- 18 -->
<g id="node29" class="node">
<title>18</title>
<ellipse fill="black" stroke="black" cx="375" cy="-177.47" rx="1.8" ry="1.8"/>
</g>
<!-- 12&#45;&#45;18 -->
<g id="edge37" class="edge">
<title>12&#45;&#45;18</title>
<path fill="none" stroke="black" stroke-width="0.75" d="M316.52,-97.67C324.29,-108.28 366.01,-165.2 373.76,-175.78"/>
</g>
<!-- 30 -->
<g id="node30" class="node">
<title>30</title>
<ellipse fill="black" stroke="black" cx="278.25" cy="-138.34" rx="1.8" ry="1.8"/>
</g>
<!-- 12&#45;&#45;30 -->
<g id="edge38" class="edge">
<title>12&#45;&#45;30</title>
<path fill="none" stroke="black" stroke-width="0.75" d="M314.04,-97.38C308.42,-103.81 285.23,-130.35 279.52,-136.88"/>
</g>
<!-- 24&#45;&#45;30 -->
<g id="edge64" class="edge">
<title>24&#45;&#45;30</title>
<path fill="none" stroke="black" stroke-width="0.75" d="M210.69,-54.61C219.67,-65.74 267.86,-125.46 276.82,-136.56"/>
</g>
<!-- 13&#45;&#45;14 -->
<g id="edge39" class="edge">
<title>13&#45;&#45;14</title>
<path fill="none" stroke="black" stroke-width="0.75" d="M169.02,-311.18C179.25,-301.22 234.1,-247.79 244.3,-237.85"/>
</g>
<!-- 13&#45;&#45;16 -->
<g id="edge40" class="edge">
<title>13&#45;&#45;16</title>
<path fill="none" stroke="black" stroke-width="0.75" d="M169.41,-313.27C179.64,-315.79 225.65,-327.1 235.59,-329.54"/>
</g>
<!-- 31 -->
<g id="node31" class="node">
<title>31</title>
<ellipse fill="black" stroke="black" cx="122.7" cy="-346.43" rx="1.8" ry="1.8"/>
</g>
<!-- 13&#45;&#45;31 -->
<g id="edge41" class="edge">
<title>13&#45;&#45;31</title>
<path fill="none" stroke="black" stroke-width="0.75" d="M165.9,-313.89C159.11,-319 131.13,-340.08 124.24,-345.27"/>
</g>
<!-- 25&#45;&#45;26 -->
<g id="edge65" class="edge">
<title>25&#45;&#45;26</title>
<path fill="none" stroke="black" stroke-width="0.75" d="M63.14,-268.26C72.99,-258.46 125.83,-205.88 135.65,-196.11"/>
</g>
<!-- 25&#45;&#45;28 -->
<g id="edge66" class="edge">
<title>25&#45;&#45;28</title>
<path fill="none" stroke="black" stroke-width="0.75" d="M63.53,-270.39C72.49,-272.95 109.48,-283.52 118.59,-286.13"/>
</g>
<!-- 25&#45;&#45;31 -->
<g id="edge67" class="edge">
<title>25&#45;&#45;31</title>
<path fill="none" stroke="black" stroke-width="0.75" d="M62.84,-271.43C70.8,-281.4 113.5,-334.89 121.43,-344.84"/>
</g>
<!-- 14&#45;&#45;15 -->
<g id="edge42" class="edge">
<title>14&#45;&#45;15</title>
<path fill="none" stroke="black" stroke-width="0.75" d="M247.29,-234.86C256.82,-225.06 313.36,-166.86 323,-156.93"/>
</g>
<!-- 14&#45;&#45;17 -->
<g id="edge43" class="edge">
<title>14&#45;&#45;17</title>
<path fill="none" stroke="black" stroke-width="0.75" d="M247.95,-236.93C257.18,-239.98 295.27,-252.53 304.65,-255.62"/>
</g>
<!-- 32 -->
<g id="node32" class="node">
<title>32</title>
<ellipse fill="black" stroke="black" cx="205.22" cy="-277.61" rx="1.8" ry="1.8"/>
</g>
<!-- 14&#45;&#45;32 -->
<g id="edge44" class="edge">
<title>14&#45;&#45;32</title>
<path fill="none" stroke="black" stroke-width="0.75" d="M244.57,-237.64C238.39,-243.92 212.9,-269.81 206.62,-276.18"/>
</g>
<!-- 26&#45;&#45;27 -->
<g id="edge68" class="edge">
<title>26&#45;&#45;27</title>
<path fill="none" stroke="black" stroke-width="0.75" d="M138.81,-193C148.68,-183.36 201.67,-131.61 211.52,-121.99"/>
</g>
<!-- 26&#45;&#45;29 -->
<g id="edge69" class="edge">
<title>26&#45;&#45;29</title>
<path fill="none" stroke="black" stroke-width="0.75" d="M139.33,-195.14C148.91,-197.83 188.43,-208.94 198.17,-211.68"/>
</g>
<!-- 26&#45;&#45;32 -->
<g id="edge70" class="edge">
<title>26&#45;&#45;32</title>
<path fill="none" stroke="black" stroke-width="0.75" d="M138.65,-196.28C147.49,-207.09 194.98,-265.1 203.8,-275.88"/>
</g>
<!-- 15&#45;&#45;18 -->
<g id="edge45" class="edge">
<title>15&#45;&#45;18</title>
<path fill="none" stroke="black" stroke-width="0.75" d="M326.09,-156.22C333.77,-159.56 365.46,-173.33 373.26,-176.72"/>
</g>
<!-- 33 -->
<g id="node33" class="node">
<title>33</title>
<ellipse fill="black" stroke="black" cx="286.45" cy="-206" rx="1.8" ry="1.8"/>
</g>
<!-- 15&#45;&#45;33 -->
<g id="edge46" class="edge">
<title>15&#45;&#45;33</title>
<path fill="none" stroke="black" stroke-width="0.75" d="M323.14,-157.17C317.38,-164.83 293.61,-196.47 287.76,-204.26"/>
</g>
<!-- 27&#45;&#45;30 -->
<g id="edge71" class="edge">
<title>27&#45;&#45;30</title>
<path fill="none" stroke="black" stroke-width="0.75" d="M215.27,-121.04C225.34,-123.81 267.43,-135.37 276.51,-137.86"/>
</g>
<!-- 27&#45;&#45;33 -->
<g id="edge72" class="edge">
<title>27&#45;&#45;33</title>
<path fill="none" stroke="black" stroke-width="0.75" d="M214.37,-121.93C223.28,-132.32 276.13,-193.95 285.14,-204.47"/>
</g>
<!-- 16&#45;&#45;17 -->
<g id="edge47" class="edge">
<title>16&#45;&#45;17</title>
<path fill="none" stroke="black" stroke-width="0.75" d="M238.94,-328.47C247.95,-318.88 296.31,-267.41 305.3,-257.84"/>
</g>
<!-- 34 -->
<g id="node34" class="node">
<title>34</title>
<ellipse fill="black" stroke="black" cx="190.8" cy="-363.97" rx="1.8" ry="1.8"/>
</g>
<!-- 16&#45;&#45;34 -->
<g id="edge48" class="edge">
<title>16&#45;&#45;34</title>
<path fill="none" stroke="black" stroke-width="0.75" d="M235.94,-331.14C228.85,-336.29 199.6,-357.56 192.4,-362.8"/>
</g>
<!-- 28&#45;&#45;29 -->
<g id="edge73" class="edge">
<title>28&#45;&#45;29</title>
<path fill="none" stroke="black" stroke-width="0.75" d="M122.29,-285.15C132.66,-275.47 188.34,-223.49 198.68,-213.83"/>
</g>
<!-- 28&#45;&#45;34 -->
<g id="edge74" class="edge">
<title>28&#45;&#45;34</title>
<path fill="none" stroke="black" stroke-width="0.75" d="M122.09,-288.32C131.22,-298.38 180.23,-352.33 189.34,-362.36"/>
</g>
<!-- 17&#45;&#45;18 -->
<g id="edge49" class="edge">
<title>17&#45;&#45;18</title>
<path fill="none" stroke="black" stroke-width="0.75" d="M308.16,-254.67C317.05,-244.41 364.72,-189.34 373.58,-179.11"/>
</g>
<!-- 35 -->
<g id="node35" class="node">
<title>35</title>
<ellipse fill="black" stroke="black" cx="269.93" cy="-296.76" rx="1.8" ry="1.8"/>
</g>
<!-- 17&#45;&#45;35 -->
<g id="edge50" class="edge">
<title>17&#45;&#45;35</title>
<path fill="none" stroke="black" stroke-width="0.75" d="M305.51,-257.66C299.93,-263.8 276.88,-289.13 271.2,-295.37"/>
</g>
<!-- 29&#45;&#45;30 -->
<g id="edge75" class="edge">
<title>29&#45;&#45;30</title>
<path fill="none" stroke="black" stroke-width="0.75" d="M201.97,-210.74C212.11,-201.12 266.52,-149.47 276.63,-139.88"/>
</g>
<!-- 29&#45;&#45;35 -->
<g id="edge76" class="edge">
<title>29&#45;&#45;35</title>
<path fill="none" stroke="black" stroke-width="0.75" d="M201.79,-214.05C210.85,-225.04 259.45,-284.04 268.49,-295.01"/>
</g>
<!-- 36 -->
<g id="node36" class="node">
<title>36</title>
<ellipse fill="black" stroke="black" cx="345.76" cy="-228.35" rx="1.8" ry="1.8"/>
</g>
<!-- 18&#45;&#45;36 -->
<g id="edge51" class="edge">
<title>18&#45;&#45;36</title>
<path fill="none" stroke="black" stroke-width="0.75" d="M374.03,-179.17C369.59,-186.89 351.27,-218.75 346.76,-226.6"/>
</g>
<!-- 30&#45;&#45;36 -->
<g id="edge77" class="edge">
<title>30&#45;&#45;36</title>
<path fill="none" stroke="black" stroke-width="0.75" d="M279.42,-139.9C287.61,-150.83 336.25,-215.68 344.55,-226.74"/>
</g>
<!-- 31&#45;&#45;32 -->
<g id="edge78" class="edge">
<title>31&#45;&#45;32</title>
<path fill="none" stroke="black" stroke-width="0.75" d="M124.43,-344.99C135.17,-336.03 192.79,-287.97 203.5,-279.04"/>
</g>
<!-- 31&#45;&#45;34 -->
<g id="edge79" class="edge">
<title>31&#45;&#45;34</title>
<path fill="none" stroke="black" stroke-width="0.75" d="M124.67,-346.93C134.61,-349.5 179.3,-361.01 188.95,-363.49"/>
</g>
<!-- 32&#45;&#45;33 -->
<g id="edge80" class="edge">
<title>32&#45;&#45;33</title>
<path fill="none" stroke="black" stroke-width="0.75" d="M206.91,-276.11C217.49,-266.79 274.22,-216.78 284.77,-207.49"/>
</g>
<!-- 32&#45;&#45;35 -->
<g id="edge81" class="edge">
<title>32&#45;&#45;35</title>
<path fill="none" stroke="black" stroke-width="0.75" d="M207.37,-278.24C217.37,-281.2 259.18,-293.58 268.21,-296.25"/>
</g>
<!-- 33&#45;&#45;36 -->
<g id="edge82" class="edge">
<title>33&#45;&#45;36</title>
<path fill="none" stroke="black" stroke-width="0.75" d="M288.43,-206.74C297.43,-210.13 334.57,-224.13 343.72,-227.58"/>
</g>
<!-- 34&#45;&#45;35 -->
<g id="edge83" class="edge">
<title>34&#45;&#45;35</title>
<path fill="none" stroke="black" stroke-width="0.75" d="M192.45,-362.56C202.75,-353.82 258.02,-306.88 268.29,-298.16"/>
</g>
<!-- 35&#45;&#45;36 -->
<g id="edge84" class="edge">
<title>35&#45;&#45;36</title>
<path fill="none" stroke="black" stroke-width="0.75" d="M271.52,-295.34C281.38,-286.43 334.34,-238.65 344.18,-229.77"/>
</g>
</g>
</svg>
