<?xml version="1.0" encoding="UTF-8" standalone="no"?>
<!DOCTYPE svg PUBLIC "-//W3C//DTD SVG 1.1//EN"
 "http://www.w3.org/Graphics/SVG/1.1/DTD/svg11.dtd">
<!-- Generated by graphviz version 12.0.0 (0)
 -->
<!-- Pages: 1 -->
<svg width="38pt" height="54pt"
 viewBox="0.00 0.00 38.19 54.00" xmlns="http://www.w3.org/2000/svg" xmlns:xlink="http://www.w3.org/1999/xlink">
<g id="graph0" class="graph" transform="scale(0.165938 0.165938) rotate(0) translate(4 321.42)">
<!-- 1 -->
<g id="node1" class="node">
<title>1</title>
<ellipse fill="black" stroke="black" cx="1.8" cy="-277.29" rx="1.8" ry="1.8"/>
</g>
<!-- 2 -->
<g id="node2" class="node">
<title>2</title>
<ellipse fill="black" stroke="black" cx="73.09" cy="-315.62" rx="1.8" ry="1.8"/>
</g>
<!-- 1&#45;&#45;2 -->
<g id="edge1" class="edge">
<title>1&#45;&#45;2</title>
<path fill="none" stroke="black" stroke-width="0.75" d="M3.56,-278.24C13.34,-283.5 60.85,-309.04 71.13,-314.57"/>
</g>
<!-- 3 -->
<g id="node3" class="node">
<title>3</title>
<ellipse fill="black" stroke="black" cx="36.66" cy="-207.5" rx="1.8" ry="1.8"/>
</g>
<!-- 1&#45;&#45;3 -->
<g id="edge2" class="edge">
<title>1&#45;&#45;3</title>
<path fill="none" stroke="black" stroke-width="0.75" d="M2.81,-275.28C7.9,-265.09 30.78,-219.29 35.72,-209.39"/>
</g>
<!-- 4 -->
<g id="node4" class="node">
<title>4</title>
<ellipse fill="black" stroke="black" cx="111.78" cy="-247.91" rx="1.8" ry="1.8"/>
</g>
<!-- 2&#45;&#45;4 -->
<g id="edge3" class="edge">
<title>2&#45;&#45;4</title>
<path fill="none" stroke="black" stroke-width="0.75" d="M74.2,-313.67C79.85,-303.78 105.24,-259.35 110.73,-249.75"/>
</g>
<!-- 3&#45;&#45;4 -->
<g id="edge4" class="edge">
<title>3&#45;&#45;4</title>
<path fill="none" stroke="black" stroke-width="0.75" d="M38.52,-208.5C48.91,-214.09 99.76,-241.45 109.98,-246.95"/>
</g>
<!-- 5 -->
<g id="node5" class="node">
<title>5</title>
<ellipse fill="black" stroke="black" cx="74.3" cy="-138.93" rx="1.8" ry="1.8"/>
</g>
<!-- 3&#45;&#45;5 -->
<g id="edge5" class="edge">
<title>3&#45;&#45;5</title>
<path fill="none" stroke="black" stroke-width="0.75" d="M37.75,-205.52C43.25,-195.51 67.95,-150.51 73.28,-140.79"/>
</g>
<!-- 6 -->
<g id="node6" class="node">
<title>6</title>
<ellipse fill="black" stroke="black" cx="150.27" cy="-179.6" rx="1.8" ry="1.8"/>
</g>
<!-- 4&#45;&#45;6 -->
<g id="edge6" class="edge">
<title>4&#45;&#45;6</title>
<path fill="none" stroke="black" stroke-width="0.75" d="M112.89,-245.94C118.51,-235.97 143.77,-191.13 149.23,-181.45"/>
</g>
<!-- 5&#45;&#45;6 -->
<g id="edge7" class="edge">
<title>5&#45;&#45;6</title>
<path fill="none" stroke="black" stroke-width="0.75" d="M76.18,-139.93C86.69,-145.56 138.12,-173.09 148.46,-178.63"/>
</g>
<!-- 7 -->
<g id="node7" class="node">
<title>7</title>
<ellipse fill="black" stroke="black" cx="111.05" cy="-69.95" rx="1.8" ry="1.8"/>
</g>
<!-- 5&#45;&#45;7 -->
<g id="edge8" class="edge">
<title>5&#45;&#45;7</title>
<path fill="none" stroke="black" stroke-width="0.75" d="M75.36,-136.94C80.73,-126.87 104.84,-81.6 110.05,-71.82"/>
</g>
<!-- 8 -->
<g id="node8" class="node">
<title>8</title>
<ellipse fill="black" stroke="black" cx="186.39" cy="-109.92" rx="1.8" ry="1.8"/>
</g>
<!-- 6&#45;&#45;8 -->
<g id="edge9" class="edge">
<title>6&#45;&#45;8</title>
<path fill="none" stroke="black" stroke-width="0.75" d="M151.32,-177.59C156.59,-167.41 180.29,-121.69 185.41,-111.81"/>
</g>
<!-- 7&#45;&#45;8 -->
<g id="edge10" class="edge">
<title>7&#45;&#45;8</title>
<path fill="none" stroke="black" stroke-width="0.75" d="M112.91,-70.94C123.33,-76.47 174.34,-103.53 184.59,-108.97"/>
</g>
<!-- 9 -->
<g id="node9" class="node">
<title>9</title>
<ellipse fill="black" stroke="black" cx="148.77" cy="-1.8" rx="1.8" ry="1.8"/>
</g>
<!-- 7&#45;&#45;9 -->
<g id="edge11" class="edge">
<title>7&#45;&#45;9</title>
<path fill="none" stroke="black" stroke-width="0.75" d="M112.14,-67.99C117.64,-58.03 142.4,-13.31 147.75,-3.64"/>
</g>
<!-- 10 -->
<g id="node10" class="node">
<title>10</title>
<ellipse fill="black" stroke="black" cx="220.35" cy="-39.58" rx="1.8" ry="1.8"/>
</g>
<!-- 8&#45;&#45;10 -->
<g id="edge12" class="edge">
<title>8&#45;&#45;10</title>
<path fill="none" stroke="black" stroke-width="0.75" d="M187.37,-107.89C192.33,-97.62 214.61,-51.46 219.43,-41.49"/>
</g>
<!-- 9&#45;&#45;10 -->
<g id="edge13" class="edge">
<title>9&#45;&#45;10</title>
<path fill="none" stroke="black" stroke-width="0.75" d="M150.54,-2.73C160.36,-7.92 208.06,-33.1 218.38,-38.54"/>
</g>
</g>
</svg>
