<?xml version="1.0" encoding="UTF-8" standalone="no"?>
<!DOCTYPE svg PUBLIC "-//W3C//DTD SVG 1.1//EN"
 "http://www.w3.org/Graphics/SVG/1.1/DTD/svg11.dtd">
<!-- Generated by graphviz version 12.0.0 (0)
 -->
<!-- Pages: 1 -->
<svg width="54pt" height="54pt"
 viewBox="0.00 0.00 54.05 54.00" xmlns="http://www.w3.org/2000/svg" xmlns:xlink="http://www.w3.org/1999/xlink">
<g id="graph0" class="graph" transform="scale(0.135947 0.135947) rotate(0) translate(4 393.21)">
<!-- 1 -->
<g id="node1" class="node">
<title>1</title>
<ellipse fill="black" stroke="black" cx="40.69" cy="-60.14" rx="1.8" ry="1.8"/>
</g>
<!-- 2 -->
<g id="node2" class="node">
<title>2</title>
<ellipse fill="black" stroke="black" cx="139.18" cy="-6.37" rx="1.8" ry="1.8"/>
</g>
<!-- 1&#45;&#45;2 -->
<g id="edge1" class="edge">
<title>1&#45;&#45;2</title>
<path fill="none" stroke="black" stroke-width="0.75" d="M42.4,-59.21C54.35,-52.68 125.32,-13.94 137.43,-7.33"/>
</g>
<!-- 8 -->
<g id="node3" class="node">
<title>8</title>
<ellipse fill="black" stroke="black" cx="1.8" cy="-165.81" rx="1.8" ry="1.8"/>
</g>
<!-- 1&#45;&#45;8 -->
<g id="edge2" class="edge">
<title>1&#45;&#45;8</title>
<path fill="none" stroke="black" stroke-width="0.75" d="M40.01,-61.98C35.29,-74.8 7.27,-150.94 2.49,-163.93"/>
</g>
<!-- 9 -->
<g id="node4" class="node">
<title>9</title>
<ellipse fill="black" stroke="black" cx="41.54" cy="-118.08" rx="1.8" ry="1.8"/>
</g>
<!-- 1&#45;&#45;9 -->
<g id="edge3" class="edge">
<title>1&#45;&#45;9</title>
<path fill="none" stroke="black" stroke-width="0.75" d="M40.72,-62.07C40.84,-70.79 41.37,-106.51 41.51,-115.84"/>
</g>
<!-- 33 -->
<g id="node5" class="node">
<title>33</title>
<ellipse fill="black" stroke="black" cx="97.93" cy="-55.96" rx="1.8" ry="1.8"/>
</g>
<!-- 1&#45;&#45;33 -->
<g id="edge4" class="edge">
<title>1&#45;&#45;33</title>
<path fill="none" stroke="black" stroke-width="0.75" d="M42.59,-60C51.21,-59.38 86.5,-56.8 95.72,-56.12"/>
</g>
<!-- 3 -->
<g id="node6" class="node">
<title>3</title>
<ellipse fill="black" stroke="black" cx="247.39" cy="-33.43" rx="1.8" ry="1.8"/>
</g>
<!-- 2&#45;&#45;3 -->
<g id="edge5" class="edge">
<title>2&#45;&#45;3</title>
<path fill="none" stroke="black" stroke-width="0.75" d="M141.06,-6.84C154.2,-10.13 232.15,-29.62 245.46,-32.95"/>
</g>
<!-- 10 -->
<g id="node7" class="node">
<title>10</title>
<ellipse fill="black" stroke="black" cx="141.1" cy="-69.38" rx="1.8" ry="1.8"/>
</g>
<!-- 2&#45;&#45;10 -->
<g id="edge6" class="edge">
<title>2&#45;&#45;10</title>
<path fill="none" stroke="black" stroke-width="0.75" d="M139.25,-8.47C139.54,-18.04 140.74,-57.5 141.03,-67.21"/>
</g>
<!-- 34 -->
<g id="node8" class="node">
<title>34</title>
<ellipse fill="black" stroke="black" cx="196.98" cy="-1.8" rx="1.8" ry="1.8"/>
</g>
<!-- 2&#45;&#45;34 -->
<g id="edge7" class="edge">
<title>2&#45;&#45;34</title>
<path fill="none" stroke="black" stroke-width="0.75" d="M141.11,-6.22C149.8,-5.53 185.44,-2.71 194.75,-1.98"/>
</g>
<!-- 16 -->
<g id="node23" class="node">
<title>16</title>
<ellipse fill="black" stroke="black" cx="2.56" cy="-224.5" rx="1.8" ry="1.8"/>
</g>
<!-- 8&#45;&#45;16 -->
<g id="edge23" class="edge">
<title>8&#45;&#45;16</title>
<path fill="none" stroke="black" stroke-width="0.75" d="M1.83,-168.04C1.95,-177.34 2.41,-212.97 2.53,-222.27"/>
</g>
<!-- 40 -->
<g id="node24" class="node">
<title>40</title>
<ellipse fill="black" stroke="black" cx="63.86" cy="-160.89" rx="1.8" ry="1.8"/>
</g>
<!-- 8&#45;&#45;40 -->
<g id="edge24" class="edge">
<title>8&#45;&#45;40</title>
<path fill="none" stroke="black" stroke-width="0.75" d="M3.86,-165.65C13.29,-164.9 52.15,-161.82 61.72,-161.06"/>
</g>
<!-- 9&#45;&#45;10 -->
<g id="edge25" class="edge">
<title>9&#45;&#45;10</title>
<path fill="none" stroke="black" stroke-width="0.75" d="M43.27,-117.23C55.35,-111.32 127.08,-76.24 139.32,-70.25"/>
</g>
<!-- 9&#45;&#45;16 -->
<g id="edge26" class="edge">
<title>9&#45;&#45;16</title>
<path fill="none" stroke="black" stroke-width="0.75" d="M40.86,-119.93C36.13,-132.84 8.04,-209.52 3.25,-222.6"/>
</g>
<!-- 17 -->
<g id="node25" class="node">
<title>17</title>
<ellipse fill="black" stroke="black" cx="102.72" cy="-156.6" rx="1.8" ry="1.8"/>
</g>
<!-- 9&#45;&#45;17 -->
<g id="edge27" class="edge">
<title>9&#45;&#45;17</title>
<path fill="none" stroke="black" stroke-width="0.75" d="M43.3,-119.19C52.24,-124.82 92.39,-150.09 101.06,-155.56"/>
</g>
<!-- 33&#45;&#45;34 -->
<g id="edge73" class="edge">
<title>33&#45;&#45;34</title>
<path fill="none" stroke="black" stroke-width="0.75" d="M99.65,-55.02C111.67,-48.45 183.04,-9.42 195.22,-2.77"/>
</g>
<!-- 33&#45;&#45;40 -->
<g id="edge74" class="edge">
<title>33&#45;&#45;40</title>
<path fill="none" stroke="black" stroke-width="0.75" d="M97.34,-57.78C93.2,-70.52 68.66,-146.12 64.47,-159.02"/>
</g>
<!-- 4 -->
<g id="node9" class="node">
<title>4</title>
<ellipse fill="black" stroke="black" cx="281.69" cy="-136.88" rx="1.8" ry="1.8"/>
</g>
<!-- 3&#45;&#45;4 -->
<g id="edge8" class="edge">
<title>3&#45;&#45;4</title>
<path fill="none" stroke="black" stroke-width="0.75" d="M248.1,-35.59C252.57,-49.05 276.53,-121.31 280.98,-134.74"/>
</g>
<!-- 11 -->
<g id="node10" class="node">
<title>11</title>
<ellipse fill="black" stroke="black" cx="241.93" cy="-102.28" rx="1.8" ry="1.8"/>
</g>
<!-- 3&#45;&#45;11 -->
<g id="edge9" class="edge">
<title>3&#45;&#45;11</title>
<path fill="none" stroke="black" stroke-width="0.75" d="M247.2,-35.72C246.36,-46.36 242.84,-90.84 242.08,-100.45"/>
</g>
<!-- 35 -->
<g id="node11" class="node">
<title>35</title>
<ellipse fill="black" stroke="black" cx="306.41" cy="-33.46" rx="1.8" ry="1.8"/>
</g>
<!-- 3&#45;&#45;35 -->
<g id="edge10" class="edge">
<title>3&#45;&#45;35</title>
<path fill="none" stroke="black" stroke-width="0.75" d="M249.63,-33.43C258.98,-33.44 294.81,-33.45 304.17,-33.46"/>
</g>
<!-- 10&#45;&#45;11 -->
<g id="edge28" class="edge">
<title>10&#45;&#45;11</title>
<path fill="none" stroke="black" stroke-width="0.75" d="M143.2,-70.07C156.33,-74.35 226.75,-97.33 239.84,-101.6"/>
</g>
<!-- 18 -->
<g id="node26" class="node">
<title>18</title>
<ellipse fill="black" stroke="black" cx="195.45" cy="-117.6" rx="1.8" ry="1.8"/>
</g>
<!-- 10&#45;&#45;18 -->
<g id="edge29" class="edge">
<title>10&#45;&#45;18</title>
<path fill="none" stroke="black" stroke-width="0.75" d="M142.44,-70.57C149.9,-77.19 186.12,-109.33 193.95,-116.28"/>
</g>
<!-- 34&#45;&#45;35 -->
<g id="edge75" class="edge">
<title>34&#45;&#45;35</title>
<path fill="none" stroke="black" stroke-width="0.75" d="M198.88,-2.35C212.16,-6.19 291.01,-29 304.46,-32.89"/>
</g>
<!-- 5 -->
<g id="node12" class="node">
<title>5</title>
<ellipse fill="black" stroke="black" cx="241.67" cy="-230.26" rx="1.8" ry="1.8"/>
</g>
<!-- 4&#45;&#45;5 -->
<g id="edge11" class="edge">
<title>4&#45;&#45;5</title>
<path fill="none" stroke="black" stroke-width="0.75" d="M280.86,-138.83C275.65,-150.99 247.69,-216.2 242.5,-228.32"/>
</g>
<!-- 12 -->
<g id="node13" class="node">
<title>12</title>
<ellipse fill="black" stroke="black" cx="286.95" cy="-199.6" rx="1.8" ry="1.8"/>
</g>
<!-- 4&#45;&#45;12 -->
<g id="edge12" class="edge">
<title>4&#45;&#45;12</title>
<path fill="none" stroke="black" stroke-width="0.75" d="M281.87,-138.97C282.67,-148.49 285.96,-187.77 286.77,-197.44"/>
</g>
<!-- 36 -->
<g id="node14" class="node">
<title>36</title>
<ellipse fill="black" stroke="black" cx="354.75" cy="-136.03" rx="1.8" ry="1.8"/>
</g>
<!-- 4&#45;&#45;36 -->
<g id="edge13" class="edge">
<title>4&#45;&#45;36</title>
<path fill="none" stroke="black" stroke-width="0.75" d="M283.8,-136.86C294.38,-136.74 341.58,-136.18 352.5,-136.05"/>
</g>
<!-- 11&#45;&#45;12 -->
<g id="edge30" class="edge">
<title>11&#45;&#45;12</title>
<path fill="none" stroke="black" stroke-width="0.75" d="M242.87,-104.31C248.73,-116.98 280.17,-184.94 286.01,-197.57"/>
</g>
<!-- 19 -->
<g id="node27" class="node">
<title>19</title>
<ellipse fill="black" stroke="black" cx="303.72" cy="-134.99" rx="1.8" ry="1.8"/>
</g>
<!-- 11&#45;&#45;19 -->
<g id="edge31" class="edge">
<title>11&#45;&#45;19</title>
<path fill="none" stroke="black" stroke-width="0.75" d="M243.71,-103.22C252.73,-108 293.28,-129.47 302.04,-134.11"/>
</g>
<!-- 35&#45;&#45;36 -->
<g id="edge76" class="edge">
<title>35&#45;&#45;36</title>
<path fill="none" stroke="black" stroke-width="0.75" d="M307.25,-35.24C313.12,-47.69 347.95,-121.59 353.89,-134.2"/>
</g>
<!-- 6 -->
<g id="node15" class="node">
<title>6</title>
<ellipse fill="black" stroke="black" cx="157.55" cy="-283.07" rx="1.8" ry="1.8"/>
</g>
<!-- 5&#45;&#45;6 -->
<g id="edge14" class="edge">
<title>5&#45;&#45;6</title>
<path fill="none" stroke="black" stroke-width="0.75" d="M239.91,-231.36C228.96,-238.24 170.22,-275.12 159.3,-281.98"/>
</g>
<!-- 13 -->
<g id="node16" class="node">
<title>13</title>
<ellipse fill="black" stroke="black" cx="257.25" cy="-299.46" rx="1.8" ry="1.8"/>
</g>
<!-- 5&#45;&#45;13 -->
<g id="edge15" class="edge">
<title>5&#45;&#45;13</title>
<path fill="none" stroke="black" stroke-width="0.75" d="M242.12,-232.26C244.39,-242.36 254.62,-287.78 256.83,-297.59"/>
</g>
<!-- 37 -->
<g id="node17" class="node">
<title>37</title>
<ellipse fill="black" stroke="black" cx="312.13" cy="-239.91" rx="1.8" ry="1.8"/>
</g>
<!-- 5&#45;&#45;37 -->
<g id="edge16" class="edge">
<title>5&#45;&#45;37</title>
<path fill="none" stroke="black" stroke-width="0.75" d="M243.7,-230.54C253.99,-231.95 300.23,-238.28 310.22,-239.65"/>
</g>
<!-- 12&#45;&#45;13 -->
<g id="edge32" class="edge">
<title>12&#45;&#45;13</title>
<path fill="none" stroke="black" stroke-width="0.75" d="M286.33,-201.68C282.46,-214.68 261.72,-284.42 257.87,-297.39"/>
</g>
<!-- 20 -->
<g id="node28" class="node">
<title>20</title>
<ellipse fill="black" stroke="black" cx="351.52" cy="-229.96" rx="1.8" ry="1.8"/>
</g>
<!-- 12&#45;&#45;20 -->
<g id="edge33" class="edge">
<title>12&#45;&#45;20</title>
<path fill="none" stroke="black" stroke-width="0.75" d="M288.81,-200.47C298.24,-204.91 340.62,-224.83 349.77,-229.14"/>
</g>
<!-- 36&#45;&#45;37 -->
<g id="edge77" class="edge">
<title>36&#45;&#45;37</title>
<path fill="none" stroke="black" stroke-width="0.75" d="M354.01,-137.83C348.84,-150.44 318.13,-225.28 312.89,-238.05"/>
</g>
<!-- 7 -->
<g id="node18" class="node">
<title>7</title>
<ellipse fill="black" stroke="black" cx="46.76" cy="-267.85" rx="1.8" ry="1.8"/>
</g>
<!-- 6&#45;&#45;7 -->
<g id="edge17" class="edge">
<title>6&#45;&#45;7</title>
<path fill="none" stroke="black" stroke-width="0.75" d="M155.63,-282.81C142.18,-280.96 62.35,-269.99 48.73,-268.12"/>
</g>
<!-- 14 -->
<g id="node19" class="node">
<title>14</title>
<ellipse fill="black" stroke="black" cx="161.25" cy="-356.42" rx="1.8" ry="1.8"/>
</g>
<!-- 6&#45;&#45;14 -->
<g id="edge18" class="edge">
<title>6&#45;&#45;14</title>
<path fill="none" stroke="black" stroke-width="0.75" d="M157.66,-285.19C158.19,-295.81 160.58,-343.19 161.13,-354.15"/>
</g>
<!-- 38 -->
<g id="node20" class="node">
<title>38</title>
<ellipse fill="black" stroke="black" cx="218.16" cy="-285.44" rx="1.8" ry="1.8"/>
</g>
<!-- 6&#45;&#45;38 -->
<g id="edge19" class="edge">
<title>6&#45;&#45;38</title>
<path fill="none" stroke="black" stroke-width="0.75" d="M159.57,-283.15C168.77,-283.51 206.73,-284.99 216.07,-285.36"/>
</g>
<!-- 13&#45;&#45;14 -->
<g id="edge34" class="edge">
<title>13&#45;&#45;14</title>
<path fill="none" stroke="black" stroke-width="0.75" d="M255.59,-300.45C243.93,-307.36 174.76,-348.4 162.96,-355.4"/>
</g>
<!-- 21 -->
<g id="node29" class="node">
<title>21</title>
<ellipse fill="black" stroke="black" cx="312.45" cy="-334.66" rx="1.8" ry="1.8"/>
</g>
<!-- 13&#45;&#45;21 -->
<g id="edge35" class="edge">
<title>13&#45;&#45;21</title>
<path fill="none" stroke="black" stroke-width="0.75" d="M259.09,-300.63C267.47,-305.98 302.04,-328.02 310.55,-333.45"/>
</g>
<!-- 37&#45;&#45;38 -->
<g id="edge78" class="edge">
<title>37&#45;&#45;38</title>
<path fill="none" stroke="black" stroke-width="0.75" d="M310.16,-240.86C297.93,-246.78 232.31,-278.58 220.11,-284.49"/>
</g>
<!-- 7&#45;&#45;8 -->
<g id="edge20" class="edge">
<title>7&#45;&#45;8</title>
<path fill="none" stroke="black" stroke-width="0.75" d="M45.98,-266.08C40.52,-253.69 8.13,-180.18 2.6,-167.63"/>
</g>
<!-- 15 -->
<g id="node21" class="node">
<title>15</title>
<ellipse fill="black" stroke="black" cx="51.64" cy="-327.01" rx="1.8" ry="1.8"/>
</g>
<!-- 7&#45;&#45;15 -->
<g id="edge21" class="edge">
<title>7&#45;&#45;15</title>
<path fill="none" stroke="black" stroke-width="0.75" d="M46.94,-270.1C47.71,-279.47 50.68,-315.38 51.45,-324.76"/>
</g>
<!-- 39 -->
<g id="node22" class="node">
<title>39</title>
<ellipse fill="black" stroke="black" cx="114.89" cy="-255.86" rx="1.8" ry="1.8"/>
</g>
<!-- 7&#45;&#45;39 -->
<g id="edge22" class="edge">
<title>7&#45;&#45;39</title>
<path fill="none" stroke="black" stroke-width="0.75" d="M48.72,-267.5C58.67,-265.75 103.39,-257.88 113.05,-256.18"/>
</g>
<!-- 14&#45;&#45;15 -->
<g id="edge36" class="edge">
<title>14&#45;&#45;15</title>
<path fill="none" stroke="black" stroke-width="0.75" d="M159.34,-355.91C146.04,-352.34 67.07,-331.15 53.59,-327.53"/>
</g>
<!-- 22 -->
<g id="node30" class="node">
<title>22</title>
<ellipse fill="black" stroke="black" cx="212.7" cy="-387.41" rx="1.8" ry="1.8"/>
</g>
<!-- 14&#45;&#45;22 -->
<g id="edge37" class="edge">
<title>14&#45;&#45;22</title>
<path fill="none" stroke="black" stroke-width="0.75" d="M162.96,-357.45C170.77,-362.16 203,-381.57 210.93,-386.35"/>
</g>
<!-- 38&#45;&#45;39 -->
<g id="edge79" class="edge">
<title>38&#45;&#45;39</title>
<path fill="none" stroke="black" stroke-width="0.75" d="M216,-284.82C202.56,-280.97 130.44,-260.31 117.04,-256.47"/>
</g>
<!-- 15&#45;&#45;16 -->
<g id="edge38" class="edge">
<title>15&#45;&#45;16</title>
<path fill="none" stroke="black" stroke-width="0.75" d="M50.79,-325.23C44.83,-312.79 9.47,-238.93 3.43,-226.33"/>
</g>
<!-- 23 -->
<g id="node31" class="node">
<title>23</title>
<ellipse fill="black" stroke="black" cx="104.55" cy="-357.27" rx="1.8" ry="1.8"/>
</g>
<!-- 15&#45;&#45;23 -->
<g id="edge39" class="edge">
<title>15&#45;&#45;23</title>
<path fill="none" stroke="black" stroke-width="0.75" d="M53.4,-328.01C61.43,-332.61 94.57,-351.56 102.73,-356.23"/>
</g>
<!-- 39&#45;&#45;40 -->
<g id="edge80" class="edge">
<title>39&#45;&#45;40</title>
<path fill="none" stroke="black" stroke-width="0.75" d="M113.83,-253.87C107.19,-241.51 71.55,-175.19 64.92,-162.86"/>
</g>
<!-- 24 -->
<g id="node32" class="node">
<title>24</title>
<ellipse fill="black" stroke="black" cx="62.41" cy="-252.77" rx="1.8" ry="1.8"/>
</g>
<!-- 16&#45;&#45;24 -->
<g id="edge40" class="edge">
<title>16&#45;&#45;24</title>
<path fill="none" stroke="black" stroke-width="0.75" d="M4.55,-225.44C13.63,-229.73 51.12,-247.44 60.35,-251.8"/>
</g>
<!-- 17&#45;&#45;18 -->
<g id="edge41" class="edge">
<title>17&#45;&#45;18</title>
<path fill="none" stroke="black" stroke-width="0.75" d="M104.66,-155.79C116.72,-150.71 181.49,-123.48 193.52,-118.41"/>
</g>
<!-- 17&#45;&#45;24 -->
<g id="edge42" class="edge">
<title>17&#45;&#45;24</title>
<path fill="none" stroke="black" stroke-width="0.75" d="M101.88,-158.61C96.63,-171.12 68.48,-238.29 63.25,-250.77"/>
</g>
<!-- 25 -->
<g id="node33" class="node">
<title>25</title>
<ellipse fill="black" stroke="black" cx="140.6" cy="-113.26" rx="1.8" ry="1.8"/>
</g>
<!-- 17&#45;&#45;25 -->
<g id="edge43" class="edge">
<title>17&#45;&#45;25</title>
<path fill="none" stroke="black" stroke-width="0.75" d="M103.98,-155.16C109.73,-148.58 133.45,-121.43 139.3,-114.75"/>
</g>
<!-- 18&#45;&#45;19 -->
<g id="edge44" class="edge">
<title>18&#45;&#45;19</title>
<path fill="none" stroke="black" stroke-width="0.75" d="M197.71,-117.97C211.8,-120.23 287.41,-132.37 301.47,-134.63"/>
</g>
<!-- 26 -->
<g id="node34" class="node">
<title>26</title>
<ellipse fill="black" stroke="black" cx="229.24" cy="-59.03" rx="1.8" ry="1.8"/>
</g>
<!-- 18&#45;&#45;26 -->
<g id="edge45" class="edge">
<title>18&#45;&#45;26</title>
<path fill="none" stroke="black" stroke-width="0.75" d="M196.57,-115.66C201.79,-106.6 223.63,-68.76 228.34,-60.59"/>
</g>
<!-- 19&#45;&#45;20 -->
<g id="edge46" class="edge">
<title>19&#45;&#45;20</title>
<path fill="none" stroke="black" stroke-width="0.75" d="M304.72,-136.98C310.94,-149.34 344.32,-215.66 350.53,-227.99"/>
</g>
<!-- 27 -->
<g id="node35" class="node">
<title>27</title>
<ellipse fill="black" stroke="black" cx="339.72" cy="-84.15" rx="1.8" ry="1.8"/>
</g>
<!-- 19&#45;&#45;27 -->
<g id="edge47" class="edge">
<title>19&#45;&#45;27</title>
<path fill="none" stroke="black" stroke-width="0.75" d="M304.91,-133.3C310.38,-125.58 332.93,-93.74 338.48,-85.9"/>
</g>
<!-- 20&#45;&#45;21 -->
<g id="edge48" class="edge">
<title>20&#45;&#45;21</title>
<path fill="none" stroke="black" stroke-width="0.75" d="M350.84,-231.78C346.1,-244.49 317.95,-319.92 313.14,-332.79"/>
</g>
<!-- 28 -->
<g id="node36" class="node">
<title>28</title>
<ellipse fill="black" stroke="black" cx="387.75" cy="-186.61" rx="1.8" ry="1.8"/>
</g>
<!-- 20&#45;&#45;28 -->
<g id="edge49" class="edge">
<title>20&#45;&#45;28</title>
<path fill="none" stroke="black" stroke-width="0.75" d="M352.73,-228.52C358.23,-221.94 380.92,-194.78 386.5,-188.1"/>
</g>
<!-- 21&#45;&#45;22 -->
<g id="edge50" class="edge">
<title>21&#45;&#45;22</title>
<path fill="none" stroke="black" stroke-width="0.75" d="M310.72,-335.57C298.61,-341.98 226.74,-379.99 214.48,-386.47"/>
</g>
<!-- 29 -->
<g id="node37" class="node">
<title>29</title>
<ellipse fill="black" stroke="black" cx="350.46" cy="-293.13" rx="1.8" ry="1.8"/>
</g>
<!-- 21&#45;&#45;29 -->
<g id="edge51" class="edge">
<title>21&#45;&#45;29</title>
<path fill="none" stroke="black" stroke-width="0.75" d="M313.71,-333.28C319.48,-326.97 343.29,-300.96 349.15,-294.56"/>
</g>
<!-- 22&#45;&#45;23 -->
<g id="edge52" class="edge">
<title>22&#45;&#45;23</title>
<path fill="none" stroke="black" stroke-width="0.75" d="M210.82,-386.89C197.7,-383.23 119.77,-361.51 106.48,-357.81"/>
</g>
<!-- 30 -->
<g id="node38" class="node">
<title>30</title>
<ellipse fill="black" stroke="black" cx="252.07" cy="-347.01" rx="1.8" ry="1.8"/>
</g>
<!-- 22&#45;&#45;30 -->
<g id="edge53" class="edge">
<title>22&#45;&#45;30</title>
<path fill="none" stroke="black" stroke-width="0.75" d="M214.01,-386.07C219.99,-379.93 244.64,-354.63 250.71,-348.4"/>
</g>
<!-- 23&#45;&#45;24 -->
<g id="edge54" class="edge">
<title>23&#45;&#45;24</title>
<path fill="none" stroke="black" stroke-width="0.75" d="M103.82,-355.46C98.7,-342.77 68.34,-267.48 63.16,-254.64"/>
</g>
<!-- 31 -->
<g id="node39" class="node">
<title>31</title>
<ellipse fill="black" stroke="black" cx="148.5" cy="-314.29" rx="1.8" ry="1.8"/>
</g>
<!-- 23&#45;&#45;31 -->
<g id="edge55" class="edge">
<title>23&#45;&#45;31</title>
<path fill="none" stroke="black" stroke-width="0.75" d="M106.01,-355.84C112.68,-349.32 140.21,-322.4 146.99,-315.77"/>
</g>
<!-- 32 -->
<g id="node40" class="node">
<title>32</title>
<ellipse fill="black" stroke="black" cx="113.21" cy="-210.7" rx="1.8" ry="1.8"/>
</g>
<!-- 24&#45;&#45;32 -->
<g id="edge56" class="edge">
<title>24&#45;&#45;32</title>
<path fill="none" stroke="black" stroke-width="0.75" d="M64.1,-251.37C71.81,-244.98 103.63,-218.63 111.46,-212.15"/>
</g>
<!-- 25&#45;&#45;33 -->
<g id="edge59" class="edge">
<title>25&#45;&#45;33</title>
<path fill="none" stroke="black" stroke-width="0.75" d="M139.54,-111.84C133.69,-103.98 105.26,-65.8 99.11,-57.54"/>
</g>
<!-- 25&#45;&#45;26 -->
<g id="edge57" class="edge">
<title>25&#45;&#45;26</title>
<path fill="none" stroke="black" stroke-width="0.75" d="M142.45,-112.13C153.99,-105.07 215.89,-67.2 227.4,-60.16"/>
</g>
<!-- 25&#45;&#45;32 -->
<g id="edge58" class="edge">
<title>25&#45;&#45;32</title>
<path fill="none" stroke="black" stroke-width="0.75" d="M140.03,-115.29C136.46,-127.97 117.34,-196.03 113.78,-208.67"/>
</g>
<!-- 26&#45;&#45;34 -->
<g id="edge61" class="edge">
<title>26&#45;&#45;34</title>
<path fill="none" stroke="black" stroke-width="0.75" d="M228.17,-57.13C223.27,-48.44 203.07,-12.59 198.09,-3.77"/>
</g>
<!-- 26&#45;&#45;27 -->
<g id="edge60" class="edge">
<title>26&#45;&#45;27</title>
<path fill="none" stroke="black" stroke-width="0.75" d="M231.16,-59.47C244.57,-62.52 324.17,-80.61 337.75,-83.7"/>
</g>
<!-- 27&#45;&#45;35 -->
<g id="edge63" class="edge">
<title>27&#45;&#45;35</title>
<path fill="none" stroke="black" stroke-width="0.75" d="M338.61,-82.46C333.55,-74.77 312.69,-43.02 307.56,-35.2"/>
</g>
<!-- 27&#45;&#45;28 -->
<g id="edge62" class="edge">
<title>27&#45;&#45;28</title>
<path fill="none" stroke="black" stroke-width="0.75" d="M340.55,-85.93C346.38,-98.37 380.99,-172.18 386.89,-184.78"/>
</g>
<!-- 28&#45;&#45;36 -->
<g id="edge65" class="edge">
<title>28&#45;&#45;36</title>
<path fill="none" stroke="black" stroke-width="0.75" d="M386.65,-184.92C381.64,-177.24 360.98,-145.57 355.89,-137.77"/>
</g>
<!-- 28&#45;&#45;29 -->
<g id="edge64" class="edge">
<title>28&#45;&#45;29</title>
<path fill="none" stroke="black" stroke-width="0.75" d="M387.1,-188.45C382.58,-201.38 355.71,-278.13 351.12,-291.23"/>
</g>
<!-- 29&#45;&#45;37 -->
<g id="edge67" class="edge">
<title>29&#45;&#45;37</title>
<path fill="none" stroke="black" stroke-width="0.75" d="M349.18,-291.36C343.36,-283.28 319.36,-249.94 313.45,-241.74"/>
</g>
<!-- 29&#45;&#45;30 -->
<g id="edge66" class="edge">
<title>29&#45;&#45;30</title>
<path fill="none" stroke="black" stroke-width="0.75" d="M348.75,-294.06C336.81,-300.6 265.92,-339.42 253.82,-346.05"/>
</g>
<!-- 30&#45;&#45;38 -->
<g id="edge69" class="edge">
<title>30&#45;&#45;38</title>
<path fill="none" stroke="black" stroke-width="0.75" d="M251.09,-345.23C246.14,-336.24 223.89,-295.84 219.08,-287.11"/>
</g>
<!-- 30&#45;&#45;31 -->
<g id="edge68" class="edge">
<title>30&#45;&#45;31</title>
<path fill="none" stroke="black" stroke-width="0.75" d="M249.91,-346.32C236.43,-342.07 164.1,-319.22 150.65,-314.97"/>
</g>
<!-- 31&#45;&#45;39 -->
<g id="edge71" class="edge">
<title>31&#45;&#45;39</title>
<path fill="none" stroke="black" stroke-width="0.75" d="M147.38,-312.35C142.19,-303.32 120.48,-265.56 115.79,-257.41"/>
</g>
<!-- 31&#45;&#45;32 -->
<g id="edge70" class="edge">
<title>31&#45;&#45;32</title>
<path fill="none" stroke="black" stroke-width="0.75" d="M147.77,-312.13C143.17,-298.65 118.53,-226.3 113.94,-212.85"/>
</g>
<!-- 32&#45;&#45;40 -->
<g id="edge72" class="edge">
<title>32&#45;&#45;40</title>
<path fill="none" stroke="black" stroke-width="0.75" d="M111.99,-209.47C105.22,-202.64 72.33,-169.44 65.22,-162.26"/>
</g>
</g>
</svg>
