<?xml version="1.0" encoding="UTF-8" standalone="no"?>
<!DOCTYPE svg PUBLIC "-//W3C//DTD SVG 1.1//EN"
 "http://www.w3.org/Graphics/SVG/1.1/DTD/svg11.dtd">
<!-- Generated by graphviz version 12.0.0 (0)
 -->
<!-- Pages: 1 -->
<svg width="71pt" height="54pt"
 viewBox="0.00 0.00 71.18 54.00" xmlns="http://www.w3.org/2000/svg" xmlns:xlink="http://www.w3.org/1999/xlink">
<g id="graph0" class="graph" transform="scale(0.490768 0.490768) rotate(0) translate(4 106.03)">
<!-- 1 -->
<g id="node1" class="node">
<title>1</title>
<ellipse fill="black" stroke="black" cx="10.19" cy="-1.8" rx="1.8" ry="1.8"/>
</g>
<!-- 2 -->
<g id="node2" class="node">
<title>2</title>
<ellipse fill="black" stroke="black" cx="95.09" cy="-5.38" rx="1.8" ry="1.8"/>
</g>
<!-- 1&#45;&#45;2 -->
<g id="edge1" class="edge">
<title>1&#45;&#45;2</title>
<path fill="none" stroke="black" stroke-width="0.75" d="M12.29,-1.89C24.04,-2.38 81.51,-4.81 93.07,-5.29"/>
</g>
<!-- 3 -->
<g id="node3" class="node">
<title>3</title>
<ellipse fill="black" stroke="black" cx="52.29" cy="-47.28" rx="1.8" ry="1.8"/>
</g>
<!-- 1&#45;&#45;3 -->
<g id="edge2" class="edge">
<title>1&#45;&#45;3</title>
<path fill="none" stroke="black" stroke-width="0.75" d="M11.59,-3.31C17.98,-10.22 44.35,-38.7 50.84,-45.71"/>
</g>
<!-- 5 -->
<g id="node4" class="node">
<title>5</title>
<ellipse fill="black" stroke="black" cx="1.8" cy="-84.98" rx="1.8" ry="1.8"/>
</g>
<!-- 1&#45;&#45;5 -->
<g id="edge3" class="edge">
<title>1&#45;&#45;5</title>
<path fill="none" stroke="black" stroke-width="0.75" d="M9.98,-3.86C8.82,-15.36 3.14,-71.67 2,-82.99"/>
</g>
<!-- 4 -->
<g id="node5" class="node">
<title>4</title>
<ellipse fill="black" stroke="black" cx="135.24" cy="-57.95" rx="1.8" ry="1.8"/>
</g>
<!-- 2&#45;&#45;4 -->
<g id="edge4" class="edge">
<title>2&#45;&#45;4</title>
<path fill="none" stroke="black" stroke-width="0.75" d="M96.43,-7.13C102.52,-15.11 127.67,-48.04 133.86,-56.14"/>
</g>
<!-- 6 -->
<g id="node6" class="node">
<title>6</title>
<ellipse fill="black" stroke="black" cx="84.38" cy="-100.23" rx="1.8" ry="1.8"/>
</g>
<!-- 2&#45;&#45;6 -->
<g id="edge5" class="edge">
<title>2&#45;&#45;6</title>
<path fill="none" stroke="black" stroke-width="0.75" d="M94.87,-7.36C93.47,-19.71 85.99,-85.95 84.6,-98.26"/>
</g>
<!-- 3&#45;&#45;5 -->
<g id="edge7" class="edge">
<title>3&#45;&#45;5</title>
<path fill="none" stroke="black" stroke-width="0.75" d="M50.61,-48.53C42.94,-54.26 11.32,-77.87 3.54,-83.68"/>
</g>
<!-- 3&#45;&#45;4 -->
<g id="edge6" class="edge">
<title>3&#45;&#45;4</title>
<path fill="none" stroke="black" stroke-width="0.75" d="M54.34,-47.54C65.82,-49.02 121.97,-56.25 133.26,-57.7"/>
</g>
<!-- 5&#45;&#45;6 -->
<g id="edge9" class="edge">
<title>5&#45;&#45;6</title>
<path fill="none" stroke="black" stroke-width="0.75" d="M3.84,-85.35C15.27,-87.46 71.17,-97.79 82.41,-99.87"/>
</g>
<!-- 4&#45;&#45;6 -->
<g id="edge8" class="edge">
<title>4&#45;&#45;6</title>
<path fill="none" stroke="black" stroke-width="0.75" d="M133.55,-59.36C125.83,-65.78 93.97,-92.26 86.13,-98.78"/>
</g>
</g>
</svg>
