<?xml version="1.0" encoding="UTF-8" standalone="no"?>
<!DOCTYPE svg PUBLIC "-//W3C//DTD SVG 1.1//EN"
 "http://www.w3.org/Graphics/SVG/1.1/DTD/svg11.dtd">
<!-- Generated by graphviz version 12.0.0 (0)
 -->
<!-- Pages: 1 -->
<svg width="55pt" height="54pt"
 viewBox="0.00 0.00 55.03 54.00" xmlns="http://www.w3.org/2000/svg" xmlns:xlink="http://www.w3.org/1999/xlink">
<g id="graph0" class="graph" transform="scale(0.516171 0.516171) rotate(0) translate(4 100.62)">
<!-- 1 -->
<g id="node1" class="node">
<title>1</title>
<ellipse fill="black" stroke="black" cx="1.8" cy="-60.92" rx="1.8" ry="1.8"/>
</g>
<!-- 2 -->
<g id="node2" class="node">
<title>2</title>
<ellipse fill="black" stroke="black" cx="96.81" cy="-58.16" rx="1.8" ry="1.8"/>
</g>
<!-- 1&#45;&#45;2 -->
<g id="edge1" class="edge">
<title>1&#45;&#45;2</title>
<path fill="none" stroke="black" stroke-width="0.75" d="M3.78,-60.86C16.15,-60.5 82.5,-58.57 94.83,-58.21"/>
</g>
<!-- 3 -->
<g id="node3" class="node">
<title>3</title>
<ellipse fill="black" stroke="black" cx="49.78" cy="-1.8" rx="1.8" ry="1.8"/>
</g>
<!-- 1&#45;&#45;3 -->
<g id="edge2" class="edge">
<title>1&#45;&#45;3</title>
<path fill="none" stroke="black" stroke-width="0.75" d="M3.18,-59.22C10.19,-50.58 41.68,-11.78 48.48,-3.4"/>
</g>
<!-- 4 -->
<g id="node4" class="node">
<title>4</title>
<ellipse fill="black" stroke="black" cx="30.16" cy="-94.82" rx="1.8" ry="1.8"/>
</g>
<!-- 1&#45;&#45;4 -->
<g id="edge3" class="edge">
<title>1&#45;&#45;4</title>
<path fill="none" stroke="black" stroke-width="0.75" d="M3.02,-62.38C7.6,-67.85 23.77,-87.18 28.71,-93.09"/>
</g>
<!-- 5 -->
<g id="node5" class="node">
<title>5</title>
<ellipse fill="black" stroke="black" cx="73.19" cy="-92.12" rx="1.8" ry="1.8"/>
</g>
<!-- 1&#45;&#45;5 -->
<g id="edge4" class="edge">
<title>1&#45;&#45;5</title>
<path fill="none" stroke="black" stroke-width="0.75" d="M3.86,-61.82C14.28,-66.38 61.13,-86.85 71.25,-91.28"/>
</g>
<!-- 6 -->
<g id="node6" class="node">
<title>6</title>
<ellipse fill="black" stroke="black" cx="46.54" cy="-52.24" rx="1.8" ry="1.8"/>
</g>
<!-- 1&#45;&#45;6 -->
<g id="edge5" class="edge">
<title>1&#45;&#45;6</title>
<path fill="none" stroke="black" stroke-width="0.75" d="M3.96,-60.5C11.5,-59.04 36.63,-54.16 44.3,-52.67"/>
</g>
<!-- 7 -->
<g id="node7" class="node">
<title>7</title>
<ellipse fill="black" stroke="black" cx="12.1" cy="-18.99" rx="1.8" ry="1.8"/>
</g>
<!-- 1&#45;&#45;7 -->
<g id="edge6" class="edge">
<title>1&#45;&#45;7</title>
<path fill="none" stroke="black" stroke-width="0.75" d="M2.24,-59.12C3.91,-52.35 9.78,-28.44 11.57,-21.13"/>
</g>
<!-- 8 -->
<g id="node8" class="node">
<title>8</title>
<ellipse fill="black" stroke="black" cx="86.27" cy="-19.16" rx="1.8" ry="1.8"/>
</g>
<!-- 1&#45;&#45;8 -->
<g id="edge7" class="edge">
<title>1&#45;&#45;8</title>
<path fill="none" stroke="black" stroke-width="0.75" d="M3.56,-60.05C14.46,-54.66 72.54,-25.95 84.22,-20.17"/>
</g>
<!-- 2&#45;&#45;3 -->
<g id="edge8" class="edge">
<title>2&#45;&#45;3</title>
<path fill="none" stroke="black" stroke-width="0.75" d="M95.64,-56.76C89.19,-49.03 57.86,-11.47 51.08,-3.35"/>
</g>
<!-- 2&#45;&#45;4 -->
<g id="edge9" class="edge">
<title>2&#45;&#45;4</title>
<path fill="none" stroke="black" stroke-width="0.75" d="M94.88,-59.21C85.15,-64.57 41.41,-88.63 31.96,-93.82"/>
</g>
<!-- 2&#45;&#45;5 -->
<g id="edge10" class="edge">
<title>2&#45;&#45;5</title>
<path fill="none" stroke="black" stroke-width="0.75" d="M95.54,-59.98C91.4,-65.93 78.33,-84.72 74.35,-90.45"/>
</g>
<!-- 2&#45;&#45;6 -->
<g id="edge11" class="edge">
<title>2&#45;&#45;6</title>
<path fill="none" stroke="black" stroke-width="0.75" d="M94.65,-57.9C86.38,-56.93 56.79,-53.44 48.64,-52.48"/>
</g>
<!-- 2&#45;&#45;7 -->
<g id="edge12" class="edge">
<title>2&#45;&#45;7</title>
<path fill="none" stroke="black" stroke-width="0.75" d="M95.04,-57.34C84.11,-52.28 25.87,-25.36 14.15,-19.94"/>
</g>
<!-- 2&#45;&#45;8 -->
<g id="edge13" class="edge">
<title>2&#45;&#45;8</title>
<path fill="none" stroke="black" stroke-width="0.75" d="M96.24,-56.06C94.39,-49.22 88.57,-27.65 86.79,-21.08"/>
</g>
<!-- 3&#45;&#45;4 -->
<g id="edge14" class="edge">
<title>3&#45;&#45;4</title>
<path fill="none" stroke="black" stroke-width="0.75" d="M49.37,-3.74C46.82,-15.85 33.11,-80.81 30.56,-92.88"/>
</g>
<!-- 3&#45;&#45;5 -->
<g id="edge15" class="edge">
<title>3&#45;&#45;5</title>
<path fill="none" stroke="black" stroke-width="0.75" d="M50.27,-3.69C53.29,-15.34 69.38,-77.44 72.62,-89.93"/>
</g>
<!-- 3&#45;&#45;6 -->
<g id="edge16" class="edge">
<title>3&#45;&#45;6</title>
<path fill="none" stroke="black" stroke-width="0.75" d="M49.64,-3.97C49.11,-12.26 47.2,-41.95 46.68,-50.13"/>
</g>
<!-- 3&#45;&#45;7 -->
<g id="edge17" class="edge">
<title>3&#45;&#45;7</title>
<path fill="none" stroke="black" stroke-width="0.75" d="M47.76,-2.72C41.15,-5.74 20.3,-15.25 13.95,-18.15"/>
</g>
<!-- 3&#45;&#45;8 -->
<g id="edge18" class="edge">
<title>3&#45;&#45;8</title>
<path fill="none" stroke="black" stroke-width="0.75" d="M51.74,-2.73C58.14,-5.78 78.32,-15.38 84.48,-18.3"/>
</g>
<!-- 4&#45;&#45;5 -->
<g id="edge19" class="edge">
<title>4&#45;&#45;5</title>
<path fill="none" stroke="black" stroke-width="0.75" d="M32.23,-94.69C39.48,-94.23 63.65,-92.72 71.03,-92.26"/>
</g>
<!-- 4&#45;&#45;6 -->
<g id="edge20" class="edge">
<title>4&#45;&#45;6</title>
<path fill="none" stroke="black" stroke-width="0.75" d="M30.95,-92.76C33.71,-85.59 42.91,-61.67 45.72,-54.37"/>
</g>
<!-- 4&#45;&#45;7 -->
<g id="edge21" class="edge">
<title>4&#45;&#45;7</title>
<path fill="none" stroke="black" stroke-width="0.75" d="M29.63,-92.63C27,-81.56 15.15,-31.8 12.58,-21.04"/>
</g>
<!-- 4&#45;&#45;8 -->
<g id="edge22" class="edge">
<title>4&#45;&#45;8</title>
<path fill="none" stroke="black" stroke-width="0.75" d="M31.33,-93.24C38.57,-83.48 77.15,-31.46 84.91,-20.99"/>
</g>
<!-- 5&#45;&#45;6 -->
<g id="edge23" class="edge">
<title>5&#45;&#45;6</title>
<path fill="none" stroke="black" stroke-width="0.75" d="M72.04,-90.41C67.66,-83.85 51.98,-60.37 47.65,-53.9"/>
</g>
<!-- 5&#45;&#45;7 -->
<g id="edge24" class="edge">
<title>5&#45;&#45;7</title>
<path fill="none" stroke="black" stroke-width="0.75" d="M71.91,-90.6C63.96,-81.08 21.29,-30 13.36,-20.51"/>
</g>
<!-- 5&#45;&#45;8 -->
<g id="edge25" class="edge">
<title>5&#45;&#45;8</title>
<path fill="none" stroke="black" stroke-width="0.75" d="M73.56,-90.02C75.46,-79.46 83.91,-32.32 85.87,-21.42"/>
</g>
<!-- 6&#45;&#45;7 -->
<g id="edge26" class="edge">
<title>6&#45;&#45;7</title>
<path fill="none" stroke="black" stroke-width="0.75" d="M45.06,-50.81C39.39,-45.34 19.12,-25.77 13.53,-20.38"/>
</g>
<!-- 6&#45;&#45;8 -->
<g id="edge27" class="edge">
<title>6&#45;&#45;8</title>
<path fill="none" stroke="black" stroke-width="0.75" d="M48.25,-50.82C54.78,-45.37 78.17,-25.91 84.62,-20.54"/>
</g>
<!-- 7&#45;&#45;8 -->
<g id="edge28" class="edge">
<title>7&#45;&#45;8</title>
<path fill="none" stroke="black" stroke-width="0.75" d="M14.24,-19C24.97,-19.02 72.9,-19.13 83.98,-19.15"/>
</g>
</g>
</svg>
