<?xml version="1.0" encoding="UTF-8" standalone="no"?>
<!DOCTYPE svg PUBLIC "-//W3C//DTD SVG 1.1//EN"
 "http://www.w3.org/Graphics/SVG/1.1/DTD/svg11.dtd">
<!-- Generated by graphviz version 12.0.0 (0)
 -->
<!-- Pages: 1 -->
<svg width="54pt" height="54pt"
 viewBox="0.00 0.00 53.90 54.00" xmlns="http://www.w3.org/2000/svg" xmlns:xlink="http://www.w3.org/1999/xlink">
<g id="graph0" class="graph" transform="scale(0.104924 0.104924) rotate(0) translate(4 510.66)">
<!-- 1 -->
<g id="node1" class="node">
<title>1</title>
<ellipse fill="black" stroke="black" cx="336.27" cy="-1.8" rx="1.8" ry="1.8"/>
</g>
<!-- 2 -->
<g id="node2" class="node">
<title>2</title>
<ellipse fill="black" stroke="black" cx="280.65" cy="-30.27" rx="1.8" ry="1.8"/>
</g>
<!-- 1&#45;&#45;2 -->
<g id="edge1" class="edge">
<title>1&#45;&#45;2</title>
<path fill="none" stroke="black" stroke-width="0.75" d="M334.42,-2.75C325.98,-7.07 291.14,-24.9 282.56,-29.29"/>
</g>
<!-- 8 -->
<g id="node3" class="node">
<title>8</title>
<ellipse fill="black" stroke="black" cx="364.74" cy="-58.18" rx="1.8" ry="1.8"/>
</g>
<!-- 1&#45;&#45;8 -->
<g id="edge2" class="edge">
<title>1&#45;&#45;8</title>
<path fill="none" stroke="black" stroke-width="0.75" d="M337.22,-3.68C341.54,-12.23 359.37,-47.54 363.76,-56.23"/>
</g>
<!-- 9 -->
<g id="node4" class="node">
<title>9</title>
<ellipse fill="black" stroke="black" cx="309.37" cy="-84.67" rx="1.8" ry="1.8"/>
</g>
<!-- 1&#45;&#45;9 -->
<g id="edge3" class="edge">
<title>1&#45;&#45;9</title>
<path fill="none" stroke="black" stroke-width="0.75" d="M335.61,-3.85C331.88,-15.31 313.67,-71.41 310.01,-82.69"/>
</g>
<!-- 2&#45;&#45;8 -->
<g id="edge5" class="edge">
<title>2&#45;&#45;8</title>
<path fill="none" stroke="black" stroke-width="0.75" d="M282.73,-30.96C294.36,-34.82 351.29,-53.71 362.74,-57.51"/>
</g>
<!-- 2&#45;&#45;9 -->
<g id="edge6" class="edge">
<title>2&#45;&#45;9</title>
<path fill="none" stroke="black" stroke-width="0.75" d="M281.6,-32.08C285.96,-40.34 303.95,-74.41 308.38,-82.79"/>
</g>
<!-- 3 -->
<g id="node5" class="node">
<title>3</title>
<ellipse fill="black" stroke="black" cx="224.99" cy="-58.24" rx="1.8" ry="1.8"/>
</g>
<!-- 2&#45;&#45;3 -->
<g id="edge4" class="edge">
<title>2&#45;&#45;3</title>
<path fill="none" stroke="black" stroke-width="0.75" d="M278.8,-31.2C270.35,-35.45 235.49,-52.97 226.91,-57.28"/>
</g>
<!-- 10 -->
<g id="node6" class="node">
<title>10</title>
<ellipse fill="black" stroke="black" cx="253.27" cy="-113.29" rx="1.8" ry="1.8"/>
</g>
<!-- 2&#45;&#45;10 -->
<g id="edge7" class="edge">
<title>2&#45;&#45;10</title>
<path fill="none" stroke="black" stroke-width="0.75" d="M279.97,-32.33C276.18,-43.81 257.65,-100.01 253.93,-111.31"/>
</g>
<!-- 8&#45;&#45;9 -->
<g id="edge26" class="edge">
<title>8&#45;&#45;9</title>
<path fill="none" stroke="black" stroke-width="0.75" d="M362.9,-59.06C354.49,-63.08 319.82,-79.67 311.28,-83.75"/>
</g>
<!-- 15 -->
<g id="node15" class="node">
<title>15</title>
<ellipse fill="black" stroke="black" cx="392.57" cy="-114.34" rx="1.8" ry="1.8"/>
</g>
<!-- 8&#45;&#45;15 -->
<g id="edge27" class="edge">
<title>8&#45;&#45;15</title>
<path fill="none" stroke="black" stroke-width="0.75" d="M365.67,-60.04C369.89,-68.57 387.32,-103.75 391.61,-112.41"/>
</g>
<!-- 16 -->
<g id="node16" class="node">
<title>16</title>
<ellipse fill="black" stroke="black" cx="337" cy="-141.3" rx="1.8" ry="1.8"/>
</g>
<!-- 8&#45;&#45;16 -->
<g id="edge28" class="edge">
<title>8&#45;&#45;16</title>
<path fill="none" stroke="black" stroke-width="0.75" d="M364.06,-60.23C360.22,-71.73 341.44,-128.01 337.66,-139.32"/>
</g>
<!-- 9&#45;&#45;10 -->
<g id="edge29" class="edge">
<title>9&#45;&#45;10</title>
<path fill="none" stroke="black" stroke-width="0.75" d="M307.5,-85.62C298.99,-89.96 263.85,-107.89 255.2,-112.3"/>
</g>
<!-- 9&#45;&#45;15 -->
<g id="edge30" class="edge">
<title>9&#45;&#45;15</title>
<path fill="none" stroke="black" stroke-width="0.75" d="M311.43,-85.4C322.94,-89.5 379.26,-109.59 390.58,-113.63"/>
</g>
<!-- 9&#45;&#45;16 -->
<g id="edge31" class="edge">
<title>9&#45;&#45;16</title>
<path fill="none" stroke="black" stroke-width="0.75" d="M310.29,-86.55C314.49,-95.15 331.79,-130.62 336.05,-139.35"/>
</g>
<!-- 17 -->
<g id="node17" class="node">
<title>17</title>
<ellipse fill="black" stroke="black" cx="281.08" cy="-169.15" rx="1.8" ry="1.8"/>
</g>
<!-- 9&#45;&#45;17 -->
<g id="edge32" class="edge">
<title>9&#45;&#45;17</title>
<path fill="none" stroke="black" stroke-width="0.75" d="M308.67,-86.75C304.76,-98.44 285.6,-155.63 281.75,-167.13"/>
</g>
<!-- 3&#45;&#45;9 -->
<g id="edge9" class="edge">
<title>3&#45;&#45;9</title>
<path fill="none" stroke="black" stroke-width="0.75" d="M227.08,-58.9C238.75,-62.55 295.88,-80.44 307.36,-84.04"/>
</g>
<!-- 3&#45;&#45;10 -->
<g id="edge10" class="edge">
<title>3&#45;&#45;10</title>
<path fill="none" stroke="black" stroke-width="0.75" d="M225.94,-60.08C230.23,-68.43 247.94,-102.91 252.3,-111.4"/>
</g>
<!-- 4 -->
<g id="node7" class="node">
<title>4</title>
<ellipse fill="black" stroke="black" cx="169.53" cy="-85.98" rx="1.8" ry="1.8"/>
</g>
<!-- 3&#45;&#45;4 -->
<g id="edge8" class="edge">
<title>3&#45;&#45;4</title>
<path fill="none" stroke="black" stroke-width="0.75" d="M223.15,-59.17C214.73,-63.38 179.99,-80.75 171.44,-85.02"/>
</g>
<!-- 11 -->
<g id="node8" class="node">
<title>11</title>
<ellipse fill="black" stroke="black" cx="197.01" cy="-141.53" rx="1.8" ry="1.8"/>
</g>
<!-- 3&#45;&#45;11 -->
<g id="edge11" class="edge">
<title>3&#45;&#45;11</title>
<path fill="none" stroke="black" stroke-width="0.75" d="M224.3,-60.3C220.43,-71.83 201.49,-128.21 197.68,-139.55"/>
</g>
<!-- 10&#45;&#45;11 -->
<g id="edge33" class="edge">
<title>10&#45;&#45;11</title>
<path fill="none" stroke="black" stroke-width="0.75" d="M251.4,-114.23C242.86,-118.52 207.63,-136.21 198.95,-140.56"/>
</g>
<!-- 10&#45;&#45;16 -->
<g id="edge34" class="edge">
<title>10&#45;&#45;16</title>
<path fill="none" stroke="black" stroke-width="0.75" d="M255.34,-113.98C266.93,-117.86 323.61,-136.82 335,-140.63"/>
</g>
<!-- 10&#45;&#45;17 -->
<g id="edge35" class="edge">
<title>10&#45;&#45;17</title>
<path fill="none" stroke="black" stroke-width="0.75" d="M254.2,-115.15C258.42,-123.63 275.83,-158.61 280.12,-167.22"/>
</g>
<!-- 18 -->
<g id="node18" class="node">
<title>18</title>
<ellipse fill="black" stroke="black" cx="224.69" cy="-197.47" rx="1.8" ry="1.8"/>
</g>
<!-- 10&#45;&#45;18 -->
<g id="edge36" class="edge">
<title>10&#45;&#45;18</title>
<path fill="none" stroke="black" stroke-width="0.75" d="M252.57,-115.37C248.61,-127.02 229.26,-184.01 225.37,-195.47"/>
</g>
<!-- 4&#45;&#45;10 -->
<g id="edge13" class="edge">
<title>4&#45;&#45;10</title>
<path fill="none" stroke="black" stroke-width="0.75" d="M171.6,-86.65C183.19,-90.43 239.88,-108.92 251.28,-112.64"/>
</g>
<!-- 4&#45;&#45;11 -->
<g id="edge14" class="edge">
<title>4&#45;&#45;11</title>
<path fill="none" stroke="black" stroke-width="0.75" d="M170.45,-87.83C174.62,-96.26 191.83,-131.06 196.07,-139.62"/>
</g>
<!-- 5 -->
<g id="node9" class="node">
<title>5</title>
<ellipse fill="black" stroke="black" cx="113.91" cy="-113.3" rx="1.8" ry="1.8"/>
</g>
<!-- 4&#45;&#45;5 -->
<g id="edge12" class="edge">
<title>4&#45;&#45;5</title>
<path fill="none" stroke="black" stroke-width="0.75" d="M167.68,-86.89C159.24,-91.04 124.4,-108.15 115.83,-112.36"/>
</g>
<!-- 12 -->
<g id="node10" class="node">
<title>12</title>
<ellipse fill="black" stroke="black" cx="140.48" cy="-169.24" rx="1.8" ry="1.8"/>
</g>
<!-- 4&#45;&#45;12 -->
<g id="edge15" class="edge">
<title>4&#45;&#45;12</title>
<path fill="none" stroke="black" stroke-width="0.75" d="M168.81,-88.04C164.79,-99.56 145.13,-155.92 141.17,-167.25"/>
</g>
<!-- 11&#45;&#45;12 -->
<g id="edge37" class="edge">
<title>11&#45;&#45;12</title>
<path fill="none" stroke="black" stroke-width="0.75" d="M195.13,-142.46C186.55,-146.66 151.14,-164.01 142.43,-168.29"/>
</g>
<!-- 11&#45;&#45;17 -->
<g id="edge38" class="edge">
<title>11&#45;&#45;17</title>
<path fill="none" stroke="black" stroke-width="0.75" d="M199.09,-142.22C210.72,-146.04 267.63,-164.73 279.07,-168.49"/>
</g>
<!-- 11&#45;&#45;18 -->
<g id="edge39" class="edge">
<title>11&#45;&#45;18</title>
<path fill="none" stroke="black" stroke-width="0.75" d="M197.94,-143.4C202.14,-151.89 219.47,-186.92 223.73,-195.55"/>
</g>
<!-- 19 -->
<g id="node19" class="node">
<title>19</title>
<ellipse fill="black" stroke="black" cx="167.97" cy="-225.2" rx="1.8" ry="1.8"/>
</g>
<!-- 11&#45;&#45;19 -->
<g id="edge40" class="edge">
<title>11&#45;&#45;19</title>
<path fill="none" stroke="black" stroke-width="0.75" d="M196.3,-143.6C192.28,-155.18 172.62,-211.82 168.66,-223.2"/>
</g>
<!-- 5&#45;&#45;11 -->
<g id="edge17" class="edge">
<title>5&#45;&#45;11</title>
<path fill="none" stroke="black" stroke-width="0.75" d="M115.97,-114C127.46,-117.91 183.72,-137.02 195.03,-140.86"/>
</g>
<!-- 5&#45;&#45;12 -->
<g id="edge18" class="edge">
<title>5&#45;&#45;12</title>
<path fill="none" stroke="black" stroke-width="0.75" d="M114.79,-115.16C118.83,-123.66 135.47,-158.69 139.57,-167.31"/>
</g>
<!-- 6 -->
<g id="node11" class="node">
<title>6</title>
<ellipse fill="black" stroke="black" cx="58.09" cy="-140.62" rx="1.8" ry="1.8"/>
</g>
<!-- 5&#45;&#45;6 -->
<g id="edge16" class="edge">
<title>5&#45;&#45;6</title>
<path fill="none" stroke="black" stroke-width="0.75" d="M112.05,-114.21C103.58,-118.36 68.62,-135.46 60.01,-139.68"/>
</g>
<!-- 13 -->
<g id="node12" class="node">
<title>13</title>
<ellipse fill="black" stroke="black" cx="83.66" cy="-196.51" rx="1.8" ry="1.8"/>
</g>
<!-- 5&#45;&#45;13 -->
<g id="edge19" class="edge">
<title>5&#45;&#45;13</title>
<path fill="none" stroke="black" stroke-width="0.75" d="M113.16,-115.36C108.98,-126.87 88.5,-183.2 84.38,-194.52"/>
</g>
<!-- 12&#45;&#45;13 -->
<g id="edge41" class="edge">
<title>12&#45;&#45;13</title>
<path fill="none" stroke="black" stroke-width="0.75" d="M138.59,-170.15C129.96,-174.29 94.38,-191.37 85.62,-195.57"/>
</g>
<!-- 12&#45;&#45;18 -->
<g id="edge42" class="edge">
<title>12&#45;&#45;18</title>
<path fill="none" stroke="black" stroke-width="0.75" d="M142.56,-169.94C154.21,-173.84 211.22,-192.96 222.68,-196.8"/>
</g>
<!-- 12&#45;&#45;19 -->
<g id="edge43" class="edge">
<title>12&#45;&#45;19</title>
<path fill="none" stroke="black" stroke-width="0.75" d="M141.4,-171.1C145.57,-179.6 162.79,-214.64 167.02,-223.27"/>
</g>
<!-- 20 -->
<g id="node20" class="node">
<title>20</title>
<ellipse fill="black" stroke="black" cx="111.87" cy="-252.81" rx="1.8" ry="1.8"/>
</g>
<!-- 12&#45;&#45;20 -->
<g id="edge44" class="edge">
<title>12&#45;&#45;20</title>
<path fill="none" stroke="black" stroke-width="0.75" d="M139.77,-171.3C135.82,-182.87 116.45,-239.44 112.55,-250.81"/>
</g>
<!-- 6&#45;&#45;12 -->
<g id="edge21" class="edge">
<title>6&#45;&#45;12</title>
<path fill="none" stroke="black" stroke-width="0.75" d="M60.13,-141.32C71.53,-145.28 127.3,-164.66 138.52,-168.56"/>
</g>
<!-- 6&#45;&#45;13 -->
<g id="edge22" class="edge">
<title>6&#45;&#45;13</title>
<path fill="none" stroke="black" stroke-width="0.75" d="M58.94,-142.48C62.82,-150.96 78.84,-185.97 82.78,-194.59"/>
</g>
<!-- 7 -->
<g id="node13" class="node">
<title>7</title>
<ellipse fill="black" stroke="black" cx="1.8" cy="-166.58" rx="1.8" ry="1.8"/>
</g>
<!-- 6&#45;&#45;7 -->
<g id="edge20" class="edge">
<title>6&#45;&#45;7</title>
<path fill="none" stroke="black" stroke-width="0.75" d="M56.22,-141.48C47.67,-145.42 12.42,-161.69 3.74,-165.69"/>
</g>
<!-- 14 -->
<g id="node14" class="node">
<title>14</title>
<ellipse fill="black" stroke="black" cx="28.88" cy="-224.19" rx="1.8" ry="1.8"/>
</g>
<!-- 6&#45;&#45;14 -->
<g id="edge23" class="edge">
<title>6&#45;&#45;14</title>
<path fill="none" stroke="black" stroke-width="0.75" d="M57.37,-142.68C53.33,-154.24 33.55,-210.82 29.58,-222.19"/>
</g>
<!-- 13&#45;&#45;14 -->
<g id="edge45" class="edge">
<title>13&#45;&#45;14</title>
<path fill="none" stroke="black" stroke-width="0.75" d="M81.84,-197.43C73.52,-201.63 39.21,-218.97 30.76,-223.24"/>
</g>
<!-- 13&#45;&#45;19 -->
<g id="edge46" class="edge">
<title>13&#45;&#45;19</title>
<path fill="none" stroke="black" stroke-width="0.75" d="M85.74,-197.22C97.41,-201.19 154.49,-220.61 165.96,-224.52"/>
</g>
<!-- 13&#45;&#45;20 -->
<g id="edge47" class="edge">
<title>13&#45;&#45;20</title>
<path fill="none" stroke="black" stroke-width="0.75" d="M84.6,-198.38C88.88,-206.93 106.55,-242.19 110.9,-250.87"/>
</g>
<!-- 21 -->
<g id="node21" class="node">
<title>21</title>
<ellipse fill="black" stroke="black" cx="56.73" cy="-280.56" rx="1.8" ry="1.8"/>
</g>
<!-- 13&#45;&#45;21 -->
<g id="edge48" class="edge">
<title>13&#45;&#45;21</title>
<path fill="none" stroke="black" stroke-width="0.75" d="M82.99,-198.59C79.27,-210.22 61.04,-267.12 57.37,-278.56"/>
</g>
<!-- 7&#45;&#45;13 -->
<g id="edge24" class="edge">
<title>7&#45;&#45;13</title>
<path fill="none" stroke="black" stroke-width="0.75" d="M3.82,-167.32C15.15,-171.46 70.57,-191.72 81.71,-195.8"/>
</g>
<!-- 7&#45;&#45;14 -->
<g id="edge25" class="edge">
<title>7&#45;&#45;14</title>
<path fill="none" stroke="black" stroke-width="0.75" d="M2.7,-168.5C6.81,-177.25 23.77,-213.32 27.95,-222.21"/>
</g>
<!-- 14&#45;&#45;20 -->
<g id="edge49" class="edge">
<title>14&#45;&#45;20</title>
<path fill="none" stroke="black" stroke-width="0.75" d="M30.93,-224.9C42.41,-228.85 98.6,-248.23 109.89,-252.12"/>
</g>
<!-- 14&#45;&#45;21 -->
<g id="edge50" class="edge">
<title>14&#45;&#45;21</title>
<path fill="none" stroke="black" stroke-width="0.75" d="M29.81,-226.06C34.03,-234.62 51.48,-269.93 55.77,-278.62"/>
</g>
<!-- 15&#45;&#45;16 -->
<g id="edge51" class="edge">
<title>15&#45;&#45;16</title>
<path fill="none" stroke="black" stroke-width="0.75" d="M390.72,-115.24C382.28,-119.33 347.48,-136.22 338.91,-140.37"/>
</g>
<!-- 22 -->
<g id="node22" class="node">
<title>22</title>
<ellipse fill="black" stroke="black" cx="420.15" cy="-170.21" rx="1.8" ry="1.8"/>
</g>
<!-- 15&#45;&#45;22 -->
<g id="edge52" class="edge">
<title>15&#45;&#45;22</title>
<path fill="none" stroke="black" stroke-width="0.75" d="M393.48,-116.2C397.67,-124.68 414.95,-159.68 419.2,-168.29"/>
</g>
<!-- 23 -->
<g id="node23" class="node">
<title>23</title>
<ellipse fill="black" stroke="black" cx="364.75" cy="-197.84" rx="1.8" ry="1.8"/>
</g>
<!-- 15&#45;&#45;23 -->
<g id="edge53" class="edge">
<title>15&#45;&#45;23</title>
<path fill="none" stroke="black" stroke-width="0.75" d="M391.88,-116.4C388.03,-127.96 369.2,-184.49 365.41,-195.85"/>
</g>
<!-- 16&#45;&#45;17 -->
<g id="edge54" class="edge">
<title>16&#45;&#45;17</title>
<path fill="none" stroke="black" stroke-width="0.75" d="M335.14,-142.23C326.65,-146.46 291.62,-163.89 283,-168.19"/>
</g>
<!-- 16&#45;&#45;22 -->
<g id="edge55" class="edge">
<title>16&#45;&#45;22</title>
<path fill="none" stroke="black" stroke-width="0.75" d="M339.05,-142.02C350.56,-146.02 406.85,-165.59 418.16,-169.52"/>
</g>
<!-- 16&#45;&#45;23 -->
<g id="edge56" class="edge">
<title>16&#45;&#45;23</title>
<path fill="none" stroke="black" stroke-width="0.75" d="M337.92,-143.18C342.14,-151.77 359.52,-187.18 363.79,-195.9"/>
</g>
<!-- 24 -->
<g id="node24" class="node">
<title>24</title>
<ellipse fill="black" stroke="black" cx="308.8" cy="-225.7" rx="1.8" ry="1.8"/>
</g>
<!-- 16&#45;&#45;24 -->
<g id="edge57" class="edge">
<title>16&#45;&#45;24</title>
<path fill="none" stroke="black" stroke-width="0.75" d="M336.3,-143.39C332.4,-155.06 313.31,-212.2 309.48,-223.69"/>
</g>
<!-- 17&#45;&#45;18 -->
<g id="edge58" class="edge">
<title>17&#45;&#45;18</title>
<path fill="none" stroke="black" stroke-width="0.75" d="M279.2,-170.09C270.64,-174.39 235.32,-192.13 226.63,-196.5"/>
</g>
<!-- 17&#45;&#45;23 -->
<g id="edge59" class="edge">
<title>17&#45;&#45;23</title>
<path fill="none" stroke="black" stroke-width="0.75" d="M283.15,-169.86C294.72,-173.83 351.37,-193.25 362.75,-197.16"/>
</g>
<!-- 17&#45;&#45;24 -->
<g id="edge60" class="edge">
<title>17&#45;&#45;24</title>
<path fill="none" stroke="black" stroke-width="0.75" d="M282,-171.03C286.21,-179.61 303.57,-215.03 307.85,-223.75"/>
</g>
<!-- 25 -->
<g id="node25" class="node">
<title>25</title>
<ellipse fill="black" stroke="black" cx="252.49" cy="-253.65" rx="1.8" ry="1.8"/>
</g>
<!-- 17&#45;&#45;25 -->
<g id="edge61" class="edge">
<title>17&#45;&#45;25</title>
<path fill="none" stroke="black" stroke-width="0.75" d="M280.37,-171.24C276.42,-182.93 257.06,-240.13 253.17,-251.63"/>
</g>
<!-- 18&#45;&#45;19 -->
<g id="edge62" class="edge">
<title>18&#45;&#45;19</title>
<path fill="none" stroke="black" stroke-width="0.75" d="M222.8,-198.4C214.19,-202.61 178.67,-219.97 169.92,-224.25"/>
</g>
<!-- 18&#45;&#45;24 -->
<g id="edge63" class="edge">
<title>18&#45;&#45;24</title>
<path fill="none" stroke="black" stroke-width="0.75" d="M226.77,-198.17C238.4,-202.08 295.35,-221.19 306.8,-225.03"/>
</g>
<!-- 18&#45;&#45;25 -->
<g id="edge64" class="edge">
<title>18&#45;&#45;25</title>
<path fill="none" stroke="black" stroke-width="0.75" d="M225.61,-199.34C229.83,-207.87 247.25,-243.05 251.54,-251.71"/>
</g>
<!-- 26 -->
<g id="node26" class="node">
<title>26</title>
<ellipse fill="black" stroke="black" cx="196.13" cy="-281.51" rx="1.8" ry="1.8"/>
</g>
<!-- 18&#45;&#45;26 -->
<g id="edge65" class="edge">
<title>18&#45;&#45;26</title>
<path fill="none" stroke="black" stroke-width="0.75" d="M223.98,-199.55C220.03,-211.18 200.7,-268.07 196.81,-279.51"/>
</g>
<!-- 19&#45;&#45;20 -->
<g id="edge66" class="edge">
<title>19&#45;&#45;20</title>
<path fill="none" stroke="black" stroke-width="0.75" d="M166.1,-226.12C157.59,-230.31 122.45,-247.6 113.8,-251.86"/>
</g>
<!-- 19&#45;&#45;25 -->
<g id="edge67" class="edge">
<title>19&#45;&#45;25</title>
<path fill="none" stroke="black" stroke-width="0.75" d="M170.06,-225.9C181.75,-229.84 238.97,-249.1 250.48,-252.97"/>
</g>
<!-- 19&#45;&#45;26 -->
<g id="edge68" class="edge">
<title>19&#45;&#45;26</title>
<path fill="none" stroke="black" stroke-width="0.75" d="M168.91,-227.07C173.18,-235.62 190.82,-270.89 195.16,-279.57"/>
</g>
<!-- 27 -->
<g id="node27" class="node">
<title>27</title>
<ellipse fill="black" stroke="black" cx="140.05" cy="-309.14" rx="1.8" ry="1.8"/>
</g>
<!-- 19&#45;&#45;27 -->
<g id="edge69" class="edge">
<title>19&#45;&#45;27</title>
<path fill="none" stroke="black" stroke-width="0.75" d="M167.28,-227.27C163.42,-238.89 144.52,-295.72 140.72,-307.14"/>
</g>
<!-- 20&#45;&#45;21 -->
<g id="edge70" class="edge">
<title>20&#45;&#45;21</title>
<path fill="none" stroke="black" stroke-width="0.75" d="M110.04,-253.73C101.67,-257.94 67.13,-275.33 58.63,-279.61"/>
</g>
<!-- 20&#45;&#45;26 -->
<g id="edge71" class="edge">
<title>20&#45;&#45;26</title>
<path fill="none" stroke="black" stroke-width="0.75" d="M113.95,-253.52C125.61,-257.49 182.65,-276.92 194.12,-280.83"/>
</g>
<!-- 20&#45;&#45;27 -->
<g id="edge72" class="edge">
<title>20&#45;&#45;27</title>
<path fill="none" stroke="black" stroke-width="0.75" d="M112.81,-254.68C117.09,-263.23 134.74,-298.52 139.08,-307.2"/>
</g>
<!-- 28 -->
<g id="node28" class="node">
<title>28</title>
<ellipse fill="black" stroke="black" cx="84.53" cy="-336.46" rx="1.8" ry="1.8"/>
</g>
<!-- 20&#45;&#45;28 -->
<g id="edge73" class="edge">
<title>20&#45;&#45;28</title>
<path fill="none" stroke="black" stroke-width="0.75" d="M111.2,-254.87C107.41,-266.45 88.91,-323.08 85.19,-334.46"/>
</g>
<!-- 21&#45;&#45;27 -->
<g id="edge74" class="edge">
<title>21&#45;&#45;27</title>
<path fill="none" stroke="black" stroke-width="0.75" d="M58.79,-281.27C70.32,-285.22 126.73,-304.57 138.07,-308.46"/>
</g>
<!-- 21&#45;&#45;28 -->
<g id="edge75" class="edge">
<title>21&#45;&#45;28</title>
<path fill="none" stroke="black" stroke-width="0.75" d="M57.66,-282.42C61.88,-290.91 79.29,-325.92 83.58,-334.53"/>
</g>
<!-- 22&#45;&#45;23 -->
<g id="edge76" class="edge">
<title>22&#45;&#45;23</title>
<path fill="none" stroke="black" stroke-width="0.75" d="M418.31,-171.13C409.89,-175.33 375.2,-192.63 366.66,-196.89"/>
</g>
<!-- 29 -->
<g id="node29" class="node">
<title>29</title>
<ellipse fill="black" stroke="black" cx="447.93" cy="-225.93" rx="1.8" ry="1.8"/>
</g>
<!-- 22&#45;&#45;29 -->
<g id="edge77" class="edge">
<title>22&#45;&#45;29</title>
<path fill="none" stroke="black" stroke-width="0.75" d="M421.07,-172.07C425.29,-180.53 442.69,-215.42 446.98,-224.01"/>
</g>
<!-- 30 -->
<g id="node30" class="node">
<title>30</title>
<ellipse fill="black" stroke="black" cx="392.93" cy="-254.16" rx="1.8" ry="1.8"/>
</g>
<!-- 22&#45;&#45;30 -->
<g id="edge78" class="edge">
<title>22&#45;&#45;30</title>
<path fill="none" stroke="black" stroke-width="0.75" d="M419.48,-172.29C415.71,-183.9 397.28,-240.73 393.58,-252.16"/>
</g>
<!-- 23&#45;&#45;24 -->
<g id="edge79" class="edge">
<title>23&#45;&#45;24</title>
<path fill="none" stroke="black" stroke-width="0.75" d="M362.89,-198.77C354.39,-203 319.36,-220.45 310.73,-224.74"/>
</g>
<!-- 23&#45;&#45;29 -->
<g id="edge80" class="edge">
<title>23&#45;&#45;29</title>
<path fill="none" stroke="black" stroke-width="0.75" d="M366.81,-198.54C378.31,-202.42 434.63,-221.43 445.95,-225.26"/>
</g>
<!-- 23&#45;&#45;30 -->
<g id="edge81" class="edge">
<title>23&#45;&#45;30</title>
<path fill="none" stroke="black" stroke-width="0.75" d="M365.69,-199.72C369.97,-208.27 387.61,-243.54 391.96,-252.22"/>
</g>
<!-- 31 -->
<g id="node31" class="node">
<title>31</title>
<ellipse fill="black" stroke="black" cx="337" cy="-282.02" rx="1.8" ry="1.8"/>
</g>
<!-- 23&#45;&#45;31 -->
<g id="edge82" class="edge">
<title>23&#45;&#45;31</title>
<path fill="none" stroke="black" stroke-width="0.75" d="M364.06,-199.92C360.22,-211.57 341.44,-268.56 337.66,-280.02"/>
</g>
<!-- 24&#45;&#45;25 -->
<g id="edge83" class="edge">
<title>24&#45;&#45;25</title>
<path fill="none" stroke="black" stroke-width="0.75" d="M306.93,-226.63C298.38,-230.87 263.11,-248.38 254.43,-252.68"/>
</g>
<!-- 24&#45;&#45;30 -->
<g id="edge84" class="edge">
<title>24&#45;&#45;30</title>
<path fill="none" stroke="black" stroke-width="0.75" d="M310.88,-226.4C322.52,-230.34 379.47,-249.61 390.92,-253.48"/>
</g>
<!-- 24&#45;&#45;31 -->
<g id="edge85" class="edge">
<title>24&#45;&#45;31</title>
<path fill="none" stroke="black" stroke-width="0.75" d="M309.74,-227.57C314.02,-236.13 331.68,-271.4 336.03,-280.08"/>
</g>
<!-- 32 -->
<g id="node32" class="node">
<title>32</title>
<ellipse fill="black" stroke="black" cx="280.33" cy="-309.83" rx="1.8" ry="1.8"/>
</g>
<!-- 24&#45;&#45;32 -->
<g id="edge86" class="edge">
<title>24&#45;&#45;32</title>
<path fill="none" stroke="black" stroke-width="0.75" d="M308.1,-227.78C304.16,-239.42 284.89,-296.37 281.01,-307.82"/>
</g>
<!-- 25&#45;&#45;26 -->
<g id="edge87" class="edge">
<title>25&#45;&#45;26</title>
<path fill="none" stroke="black" stroke-width="0.75" d="M250.62,-254.57C242.06,-258.8 206.76,-276.26 198.07,-280.55"/>
</g>
<!-- 25&#45;&#45;31 -->
<g id="edge88" class="edge">
<title>25&#45;&#45;31</title>
<path fill="none" stroke="black" stroke-width="0.75" d="M254.58,-254.35C266.27,-258.27 323.49,-277.48 334.99,-281.35"/>
</g>
<!-- 25&#45;&#45;32 -->
<g id="edge89" class="edge">
<title>25&#45;&#45;32</title>
<path fill="none" stroke="black" stroke-width="0.75" d="M253.42,-255.52C257.65,-264.05 275.08,-299.23 279.37,-307.89"/>
</g>
<!-- 33 -->
<g id="node33" class="node">
<title>33</title>
<ellipse fill="black" stroke="black" cx="223.88" cy="-338.06" rx="1.8" ry="1.8"/>
</g>
<!-- 25&#45;&#45;33 -->
<g id="edge90" class="edge">
<title>25&#45;&#45;33</title>
<path fill="none" stroke="black" stroke-width="0.75" d="M251.78,-255.73C247.83,-267.41 228.45,-324.56 224.56,-336.05"/>
</g>
<!-- 26&#45;&#45;27 -->
<g id="edge91" class="edge">
<title>26&#45;&#45;27</title>
<path fill="none" stroke="black" stroke-width="0.75" d="M194.26,-282.43C185.75,-286.63 150.63,-303.93 141.98,-308.19"/>
</g>
<!-- 26&#45;&#45;32 -->
<g id="edge92" class="edge">
<title>26&#45;&#45;32</title>
<path fill="none" stroke="black" stroke-width="0.75" d="M198.21,-282.21C209.86,-286.13 266.86,-305.3 278.32,-309.15"/>
</g>
<!-- 26&#45;&#45;33 -->
<g id="edge93" class="edge">
<title>26&#45;&#45;33</title>
<path fill="none" stroke="black" stroke-width="0.75" d="M197.05,-283.39C201.26,-291.98 218.64,-327.39 222.92,-336.11"/>
</g>
<!-- 34 -->
<g id="node34" class="node">
<title>34</title>
<ellipse fill="black" stroke="black" cx="167.84" cy="-365.68" rx="1.8" ry="1.8"/>
</g>
<!-- 26&#45;&#45;34 -->
<g id="edge94" class="edge">
<title>26&#45;&#45;34</title>
<path fill="none" stroke="black" stroke-width="0.75" d="M195.43,-283.59C191.51,-295.24 172.36,-352.22 168.51,-363.68"/>
</g>
<!-- 27&#45;&#45;28 -->
<g id="edge95" class="edge">
<title>27&#45;&#45;28</title>
<path fill="none" stroke="black" stroke-width="0.75" d="M138.21,-310.05C129.78,-314.2 95.01,-331.31 86.45,-335.52"/>
</g>
<!-- 27&#45;&#45;33 -->
<g id="edge96" class="edge">
<title>27&#45;&#45;33</title>
<path fill="none" stroke="black" stroke-width="0.75" d="M142.13,-309.86C153.72,-313.86 210.47,-333.44 221.88,-337.37"/>
</g>
<!-- 27&#45;&#45;34 -->
<g id="edge97" class="edge">
<title>27&#45;&#45;34</title>
<path fill="none" stroke="black" stroke-width="0.75" d="M140.98,-311.02C145.2,-319.61 162.6,-355.02 166.88,-363.74"/>
</g>
<!-- 35 -->
<g id="node35" class="node">
<title>35</title>
<ellipse fill="black" stroke="black" cx="112.1" cy="-392.37" rx="1.8" ry="1.8"/>
</g>
<!-- 27&#45;&#45;35 -->
<g id="edge98" class="edge">
<title>27&#45;&#45;35</title>
<path fill="none" stroke="black" stroke-width="0.75" d="M139.36,-311.2C135.5,-322.71 116.58,-379.06 112.77,-390.38"/>
</g>
<!-- 28&#45;&#45;34 -->
<g id="edge99" class="edge">
<title>28&#45;&#45;34</title>
<path fill="none" stroke="black" stroke-width="0.75" d="M86.59,-337.18C98.12,-341.22 154.52,-361.01 165.85,-364.99"/>
</g>
<!-- 28&#45;&#45;35 -->
<g id="edge100" class="edge">
<title>28&#45;&#45;35</title>
<path fill="none" stroke="black" stroke-width="0.75" d="M85.45,-338.32C89.64,-346.81 106.9,-381.82 111.16,-390.44"/>
</g>
<!-- 29&#45;&#45;30 -->
<g id="edge101" class="edge">
<title>29&#45;&#45;30</title>
<path fill="none" stroke="black" stroke-width="0.75" d="M446.1,-226.87C437.75,-231.15 403.3,-248.83 394.82,-253.19"/>
</g>
<!-- 36 -->
<g id="node36" class="node">
<title>36</title>
<ellipse fill="black" stroke="black" cx="475.85" cy="-281.84" rx="1.8" ry="1.8"/>
</g>
<!-- 29&#45;&#45;36 -->
<g id="edge102" class="edge">
<title>29&#45;&#45;36</title>
<path fill="none" stroke="black" stroke-width="0.75" d="M448.86,-227.79C453.1,-236.28 470.59,-271.29 474.89,-279.92"/>
</g>
<!-- 37 -->
<g id="node37" class="node">
<title>37</title>
<ellipse fill="black" stroke="black" cx="421.37" cy="-310.35" rx="1.8" ry="1.8"/>
</g>
<!-- 29&#45;&#45;37 -->
<g id="edge103" class="edge">
<title>29&#45;&#45;37</title>
<path fill="none" stroke="black" stroke-width="0.75" d="M447.28,-228.01C443.6,-239.69 425.62,-296.85 422.01,-308.34"/>
</g>
<!-- 30&#45;&#45;31 -->
<g id="edge104" class="edge">
<title>30&#45;&#45;31</title>
<path fill="none" stroke="black" stroke-width="0.75" d="M391.07,-255.09C382.58,-259.32 347.55,-276.77 338.93,-281.06"/>
</g>
<!-- 30&#45;&#45;36 -->
<g id="edge105" class="edge">
<title>30&#45;&#45;36</title>
<path fill="none" stroke="black" stroke-width="0.75" d="M394.98,-254.84C406.45,-258.67 462.59,-277.41 473.88,-281.18"/>
</g>
<!-- 30&#45;&#45;37 -->
<g id="edge106" class="edge">
<title>30&#45;&#45;37</title>
<path fill="none" stroke="black" stroke-width="0.75" d="M393.88,-256.03C398.19,-264.56 416.01,-299.75 420.39,-308.42"/>
</g>
<!-- 38 -->
<g id="node38" class="node">
<title>38</title>
<ellipse fill="black" stroke="black" cx="364.66" cy="-337.94" rx="1.8" ry="1.8"/>
</g>
<!-- 30&#45;&#45;38 -->
<g id="edge107" class="edge">
<title>30&#45;&#45;38</title>
<path fill="none" stroke="black" stroke-width="0.75" d="M392.23,-256.23C388.32,-267.82 369.18,-324.54 365.34,-335.95"/>
</g>
<!-- 31&#45;&#45;32 -->
<g id="edge108" class="edge">
<title>31&#45;&#45;32</title>
<path fill="none" stroke="black" stroke-width="0.75" d="M335.12,-282.95C326.51,-287.17 291.02,-304.58 282.28,-308.87"/>
</g>
<!-- 31&#45;&#45;37 -->
<g id="edge109" class="edge">
<title>31&#45;&#45;37</title>
<path fill="none" stroke="black" stroke-width="0.75" d="M339.09,-282.72C350.76,-286.64 407.88,-305.82 419.36,-309.68"/>
</g>
<!-- 31&#45;&#45;38 -->
<g id="edge110" class="edge">
<title>31&#45;&#45;38</title>
<path fill="none" stroke="black" stroke-width="0.75" d="M337.92,-283.88C342.12,-292.37 359.44,-327.4 363.71,-336.02"/>
</g>
<!-- 39 -->
<g id="node39" class="node">
<title>39</title>
<ellipse fill="black" stroke="black" cx="308.06" cy="-365.73" rx="1.8" ry="1.8"/>
</g>
<!-- 31&#45;&#45;39 -->
<g id="edge111" class="edge">
<title>31&#45;&#45;39</title>
<path fill="none" stroke="black" stroke-width="0.75" d="M336.29,-284.09C332.28,-295.67 312.69,-352.34 308.75,-363.73"/>
</g>
<!-- 32&#45;&#45;33 -->
<g id="edge112" class="edge">
<title>32&#45;&#45;33</title>
<path fill="none" stroke="black" stroke-width="0.75" d="M278.45,-310.77C269.88,-315.05 234.53,-332.74 225.82,-337.09"/>
</g>
<!-- 32&#45;&#45;38 -->
<g id="edge113" class="edge">
<title>32&#45;&#45;38</title>
<path fill="none" stroke="black" stroke-width="0.75" d="M282.42,-310.52C294.08,-314.41 351.17,-333.45 362.65,-337.27"/>
</g>
<!-- 32&#45;&#45;39 -->
<g id="edge114" class="edge">
<title>32&#45;&#45;39</title>
<path fill="none" stroke="black" stroke-width="0.75" d="M281.25,-311.69C285.46,-320.17 302.83,-355.18 307.11,-363.8"/>
</g>
<!-- 40 -->
<g id="node40" class="node">
<title>40</title>
<ellipse fill="black" stroke="black" cx="251.67" cy="-393.93" rx="1.8" ry="1.8"/>
</g>
<!-- 32&#45;&#45;40 -->
<g id="edge115" class="edge">
<title>32&#45;&#45;40</title>
<path fill="none" stroke="black" stroke-width="0.75" d="M279.62,-311.91C275.66,-323.54 256.26,-380.48 252.36,-391.92"/>
</g>
<!-- 33&#45;&#45;34 -->
<g id="edge116" class="edge">
<title>33&#45;&#45;34</title>
<path fill="none" stroke="black" stroke-width="0.75" d="M222.01,-338.98C213.51,-343.17 178.41,-360.47 169.77,-364.73"/>
</g>
<!-- 33&#45;&#45;39 -->
<g id="edge117" class="edge">
<title>33&#45;&#45;39</title>
<path fill="none" stroke="black" stroke-width="0.75" d="M225.96,-338.75C237.61,-342.57 294.6,-361.3 306.05,-365.07"/>
</g>
<!-- 33&#45;&#45;40 -->
<g id="edge118" class="edge">
<title>33&#45;&#45;40</title>
<path fill="none" stroke="black" stroke-width="0.75" d="M224.8,-339.92C229.02,-348.4 246.43,-383.39 250.72,-392.01"/>
</g>
<!-- 41 -->
<g id="node41" class="node">
<title>41</title>
<ellipse fill="black" stroke="black" cx="195.4" cy="-422.35" rx="1.8" ry="1.8"/>
</g>
<!-- 33&#45;&#45;41 -->
<g id="edge119" class="edge">
<title>33&#45;&#45;41</title>
<path fill="none" stroke="black" stroke-width="0.75" d="M223.17,-340.14C219.23,-351.81 199.95,-408.87 196.08,-420.34"/>
</g>
<!-- 34&#45;&#45;35 -->
<g id="edge120" class="edge">
<title>34&#45;&#45;35</title>
<path fill="none" stroke="black" stroke-width="0.75" d="M165.99,-366.57C157.52,-370.62 122.62,-387.34 114.02,-391.45"/>
</g>
<!-- 34&#45;&#45;40 -->
<g id="edge121" class="edge">
<title>34&#45;&#45;40</title>
<path fill="none" stroke="black" stroke-width="0.75" d="M169.91,-366.38C181.51,-370.29 238.27,-389.41 249.67,-393.26"/>
</g>
<!-- 34&#45;&#45;41 -->
<g id="edge122" class="edge">
<title>34&#45;&#45;41</title>
<path fill="none" stroke="black" stroke-width="0.75" d="M168.76,-367.57C172.94,-376.17 190.2,-411.67 194.45,-420.4"/>
</g>
<!-- 42 -->
<g id="node42" class="node">
<title>42</title>
<ellipse fill="black" stroke="black" cx="139.78" cy="-448.49" rx="1.8" ry="1.8"/>
</g>
<!-- 34&#45;&#45;42 -->
<g id="edge123" class="edge">
<title>34&#45;&#45;42</title>
<path fill="none" stroke="black" stroke-width="0.75" d="M167.15,-367.73C163.26,-379.19 144.26,-435.24 140.45,-446.51"/>
</g>
<!-- 35&#45;&#45;41 -->
<g id="edge124" class="edge">
<title>35&#45;&#45;41</title>
<path fill="none" stroke="black" stroke-width="0.75" d="M114.16,-393.11C125.69,-397.26 182.08,-417.56 193.41,-421.64"/>
</g>
<!-- 35&#45;&#45;42 -->
<g id="edge125" class="edge">
<title>35&#45;&#45;42</title>
<path fill="none" stroke="black" stroke-width="0.75" d="M113.03,-394.24C117.23,-402.76 134.56,-437.9 138.82,-446.56"/>
</g>
<!-- 36&#45;&#45;37 -->
<g id="edge126" class="edge">
<title>36&#45;&#45;37</title>
<path fill="none" stroke="black" stroke-width="0.75" d="M474.04,-282.79C465.77,-287.12 431.65,-304.97 423.25,-309.37"/>
</g>
<!-- 43 -->
<g id="node43" class="node">
<title>43</title>
<ellipse fill="black" stroke="black" cx="503.94" cy="-338" rx="1.8" ry="1.8"/>
</g>
<!-- 36&#45;&#45;43 -->
<g id="edge127" class="edge">
<title>36&#45;&#45;43</title>
<path fill="none" stroke="black" stroke-width="0.75" d="M476.79,-283.71C481.05,-292.24 498.64,-327.41 502.97,-336.07"/>
</g>
<!-- 44 -->
<g id="node44" class="node">
<title>44</title>
<ellipse fill="black" stroke="black" cx="447.56" cy="-365.9" rx="1.8" ry="1.8"/>
</g>
<!-- 36&#45;&#45;44 -->
<g id="edge128" class="edge">
<title>36&#45;&#45;44</title>
<path fill="none" stroke="black" stroke-width="0.75" d="M475.15,-283.92C471.24,-295.55 452.09,-352.46 448.24,-363.9"/>
</g>
<!-- 37&#45;&#45;38 -->
<g id="edge129" class="edge">
<title>37&#45;&#45;38</title>
<path fill="none" stroke="black" stroke-width="0.75" d="M419.49,-311.27C410.88,-315.46 375.36,-332.74 366.61,-336.99"/>
</g>
<!-- 37&#45;&#45;43 -->
<g id="edge130" class="edge">
<title>37&#45;&#45;43</title>
<path fill="none" stroke="black" stroke-width="0.75" d="M423.41,-311.04C434.84,-314.86 490.73,-333.58 501.97,-337.34"/>
</g>
<!-- 37&#45;&#45;44 -->
<g id="edge131" class="edge">
<title>37&#45;&#45;44</title>
<path fill="none" stroke="black" stroke-width="0.75" d="M422.24,-312.2C426.22,-320.63 442.62,-355.42 446.66,-363.99"/>
</g>
<!-- 45 -->
<g id="node45" class="node">
<title>45</title>
<ellipse fill="black" stroke="black" cx="391.44" cy="-393.6" rx="1.8" ry="1.8"/>
</g>
<!-- 37&#45;&#45;45 -->
<g id="edge132" class="edge">
<title>37&#45;&#45;45</title>
<path fill="none" stroke="black" stroke-width="0.75" d="M420.63,-312.41C416.49,-323.93 396.23,-380.28 392.15,-391.61"/>
</g>
<!-- 38&#45;&#45;39 -->
<g id="edge133" class="edge">
<title>38&#45;&#45;39</title>
<path fill="none" stroke="black" stroke-width="0.75" d="M362.78,-338.87C354.19,-343.09 318.74,-360.49 310.01,-364.77"/>
</g>
<!-- 38&#45;&#45;44 -->
<g id="edge134" class="edge">
<title>38&#45;&#45;44</title>
<path fill="none" stroke="black" stroke-width="0.75" d="M366.71,-338.64C378.18,-342.5 434.3,-361.43 445.58,-365.23"/>
</g>
<!-- 38&#45;&#45;45 -->
<g id="edge135" class="edge">
<title>38&#45;&#45;45</title>
<path fill="none" stroke="black" stroke-width="0.75" d="M365.55,-339.8C369.62,-348.25 386.39,-383.1 390.52,-391.68"/>
</g>
<!-- 46 -->
<g id="node46" class="node">
<title>46</title>
<ellipse fill="black" stroke="black" cx="335.57" cy="-421.15" rx="1.8" ry="1.8"/>
</g>
<!-- 38&#45;&#45;46 -->
<g id="edge136" class="edge">
<title>38&#45;&#45;46</title>
<path fill="none" stroke="black" stroke-width="0.75" d="M363.94,-340C359.92,-351.51 340.22,-407.84 336.26,-419.16"/>
</g>
<!-- 39&#45;&#45;40 -->
<g id="edge137" class="edge">
<title>39&#45;&#45;40</title>
<path fill="none" stroke="black" stroke-width="0.75" d="M306.19,-366.67C297.62,-370.95 262.31,-388.61 253.61,-392.96"/>
</g>
<!-- 39&#45;&#45;45 -->
<g id="edge138" class="edge">
<title>39&#45;&#45;45</title>
<path fill="none" stroke="black" stroke-width="0.75" d="M310.12,-366.42C321.66,-370.27 378.1,-389.14 389.45,-392.93"/>
</g>
<!-- 39&#45;&#45;46 -->
<g id="edge139" class="edge">
<title>39&#45;&#45;46</title>
<path fill="none" stroke="black" stroke-width="0.75" d="M308.98,-367.57C313.15,-375.99 330.38,-410.7 334.62,-419.24"/>
</g>
<!-- 47 -->
<g id="node47" class="node">
<title>47</title>
<ellipse fill="black" stroke="black" cx="279.82" cy="-448.93" rx="1.8" ry="1.8"/>
</g>
<!-- 39&#45;&#45;47 -->
<g id="edge140" class="edge">
<title>39&#45;&#45;47</title>
<path fill="none" stroke="black" stroke-width="0.75" d="M307.36,-367.79C303.46,-379.3 284.34,-435.62 280.49,-446.94"/>
</g>
<!-- 40&#45;&#45;41 -->
<g id="edge141" class="edge">
<title>40&#45;&#45;41</title>
<path fill="none" stroke="black" stroke-width="0.75" d="M249.8,-394.87C241.26,-399.19 206.01,-416.99 197.34,-421.38"/>
</g>
<!-- 40&#45;&#45;46 -->
<g id="edge142" class="edge">
<title>40&#45;&#45;46</title>
<path fill="none" stroke="black" stroke-width="0.75" d="M253.75,-394.6C265.35,-398.37 322.15,-416.8 333.57,-420.5"/>
</g>
<!-- 40&#45;&#45;47 -->
<g id="edge143" class="edge">
<title>40&#45;&#45;47</title>
<path fill="none" stroke="black" stroke-width="0.75" d="M252.61,-395.76C256.88,-404.11 274.51,-438.55 278.85,-447.03"/>
</g>
<!-- 48 -->
<g id="node48" class="node">
<title>48</title>
<ellipse fill="black" stroke="black" cx="223.84" cy="-476.83" rx="1.8" ry="1.8"/>
</g>
<!-- 40&#45;&#45;48 -->
<g id="edge144" class="edge">
<title>40&#45;&#45;48</title>
<path fill="none" stroke="black" stroke-width="0.75" d="M250.99,-395.98C247.13,-407.45 228.29,-463.57 224.5,-474.85"/>
</g>
<!-- 41&#45;&#45;42 -->
<g id="edge145" class="edge">
<title>41&#45;&#45;42</title>
<path fill="none" stroke="black" stroke-width="0.75" d="M193.55,-423.22C185.1,-427.19 150.27,-443.56 141.69,-447.59"/>
</g>
<!-- 41&#45;&#45;47 -->
<g id="edge146" class="edge">
<title>41&#45;&#45;47</title>
<path fill="none" stroke="black" stroke-width="0.75" d="M197.49,-423.01C209.17,-426.69 266.32,-444.68 277.81,-448.29"/>
</g>
<!-- 41&#45;&#45;48 -->
<g id="edge147" class="edge">
<title>41&#45;&#45;48</title>
<path fill="none" stroke="black" stroke-width="0.75" d="M196.35,-424.17C200.66,-432.44 218.48,-466.55 222.86,-474.95"/>
</g>
<!-- 49 -->
<g id="node49" class="node">
<title>49</title>
<ellipse fill="black" stroke="black" cx="167.59" cy="-504.86" rx="1.8" ry="1.8"/>
</g>
<!-- 41&#45;&#45;49 -->
<g id="edge148" class="edge">
<title>41&#45;&#45;49</title>
<path fill="none" stroke="black" stroke-width="0.75" d="M194.71,-424.39C190.87,-435.81 172.04,-491.66 168.26,-502.89"/>
</g>
<!-- 42&#45;&#45;48 -->
<g id="edge149" class="edge">
<title>42&#45;&#45;48</title>
<path fill="none" stroke="black" stroke-width="0.75" d="M141.85,-449.19C153.48,-453.11 210.4,-472.29 221.84,-476.15"/>
</g>
<!-- 42&#45;&#45;49 -->
<g id="edge150" class="edge">
<title>42&#45;&#45;49</title>
<path fill="none" stroke="black" stroke-width="0.75" d="M140.7,-450.36C144.93,-458.92 162.35,-494.22 166.64,-502.92"/>
</g>
<!-- 43&#45;&#45;44 -->
<g id="edge151" class="edge">
<title>43&#45;&#45;44</title>
<path fill="none" stroke="black" stroke-width="0.75" d="M502.06,-338.93C493.5,-343.17 458.19,-360.64 449.5,-364.94"/>
</g>
<!-- 44&#45;&#45;45 -->
<g id="edge152" class="edge">
<title>44&#45;&#45;45</title>
<path fill="none" stroke="black" stroke-width="0.75" d="M445.69,-366.82C437.17,-371.03 402.03,-388.37 393.37,-392.64"/>
</g>
<!-- 45&#45;&#45;46 -->
<g id="edge153" class="edge">
<title>45&#45;&#45;46</title>
<path fill="none" stroke="black" stroke-width="0.75" d="M389.58,-394.51C381.1,-398.7 346.11,-415.95 337.49,-420.2"/>
</g>
<!-- 46&#45;&#45;47 -->
<g id="edge154" class="edge">
<title>46&#45;&#45;47</title>
<path fill="none" stroke="black" stroke-width="0.75" d="M333.71,-422.07C325.25,-426.29 290.33,-443.69 281.74,-447.97"/>
</g>
<!-- 47&#45;&#45;48 -->
<g id="edge155" class="edge">
<title>47&#45;&#45;48</title>
<path fill="none" stroke="black" stroke-width="0.75" d="M277.96,-449.85C269.46,-454.09 234.4,-471.56 225.77,-475.87"/>
</g>
<!-- 48&#45;&#45;49 -->
<g id="edge156" class="edge">
<title>48&#45;&#45;49</title>
<path fill="none" stroke="black" stroke-width="0.75" d="M221.97,-477.76C213.43,-482.01 178.2,-499.57 169.53,-503.89"/>
</g>
</g>
</svg>
