<?xml version="1.0" encoding="UTF-8" standalone="no"?>
<!DOCTYPE svg PUBLIC "-//W3C//DTD SVG 1.1//EN"
 "http://www.w3.org/Graphics/SVG/1.1/DTD/svg11.dtd">
<!-- Generated by graphviz version 12.0.0 (0)
 -->
<!-- Pages: 1 -->
<svg width="55pt" height="54pt"
 viewBox="0.00 0.00 55.24 54.00" xmlns="http://www.w3.org/2000/svg" xmlns:xlink="http://www.w3.org/1999/xlink">
<g id="graph0" class="graph" transform="scale(0.0582541 0.0582541) rotate(0) translate(4 922.97)">
<!-- 0 -->
<g id="node1" class="node">
<title>0</title>
<ellipse fill="black" stroke="black" cx="307.43" cy="-320.43" rx="1.8" ry="1.8"/>
</g>
<!-- 2 -->
<g id="node2" class="node">
<title>2</title>
<ellipse fill="black" stroke="black" cx="366.82" cy="-373.58" rx="1.8" ry="1.8"/>
</g>
<!-- 0&#45;&gt;2 -->
<g id="edge1" class="edge">
<title>0&#45;&gt;2</title>
<path fill="none" stroke="black" stroke-width="0.75" d="M309.15,-321.96C316.74,-328.76 347.52,-356.31 360.74,-368.14"/>
<polygon fill="black" stroke="black" stroke-width="0.75" points="359.47,-369.35 364.36,-371.38 361.8,-366.75 359.47,-369.35"/>
</g>
<!-- 1 -->
<g id="node3" class="node">
<title>1</title>
<ellipse fill="black" stroke="black" cx="250.33" cy="-270.24" rx="1.8" ry="1.8"/>
</g>
<!-- 0&#45;&gt;1 -->
<g id="edge2" class="edge">
<title>0&#45;&gt;1</title>
<path fill="none" stroke="black" stroke-width="0.75" d="M306.02,-319.19C299.17,-313.17 269.18,-286.8 256.27,-275.46"/>
<polygon fill="black" stroke="black" stroke-width="0.75" points="257.67,-274.36 252.75,-272.37 255.35,-276.99 257.67,-274.36"/>
</g>
<!-- 6 -->
<g id="node5" class="node">
<title>6</title>
<ellipse fill="black" stroke="black" cx="375.26" cy="-456.6" rx="1.8" ry="1.8"/>
</g>
<!-- 2&#45;&gt;6 -->
<g id="edge4" class="edge">
<title>2&#45;&gt;6</title>
<path fill="none" stroke="black" stroke-width="0.75" d="M367.03,-375.63C368.05,-385.68 372.56,-429.98 374.44,-448.46"/>
<polygon fill="black" stroke="black" stroke-width="0.75" points="372.67,-448.39 374.92,-453.18 376.15,-448.03 372.67,-448.39"/>
</g>
<!-- 5 -->
<g id="node6" class="node">
<title>5</title>
<ellipse fill="black" stroke="black" cx="450.3" cy="-373.18" rx="1.8" ry="1.8"/>
</g>
<!-- 2&#45;&gt;5 -->
<g id="edge5" class="edge">
<title>2&#45;&gt;5</title>
<path fill="none" stroke="black" stroke-width="0.75" d="M368.88,-373.57C378.99,-373.52 423.53,-373.31 442.11,-373.22"/>
<polygon fill="black" stroke="black" stroke-width="0.75" points="441.87,-374.97 446.86,-373.2 441.86,-371.47 441.87,-374.97"/>
</g>
<!-- 3 -->
<g id="node4" class="node">
<title>3</title>
<ellipse fill="black" stroke="black" cx="193.85" cy="-221.59" rx="1.8" ry="1.8"/>
</g>
<!-- 1&#45;&gt;3 -->
<g id="edge3" class="edge">
<title>1&#45;&gt;3</title>
<path fill="none" stroke="black" stroke-width="0.75" d="M248.93,-269.04C242.16,-263.2 212.49,-237.64 199.73,-226.65"/>
<polygon fill="black" stroke="black" stroke-width="0.75" points="201.2,-225.61 196.27,-223.67 198.91,-228.26 201.2,-225.61"/>
</g>
<!-- 7 -->
<g id="node7" class="node">
<title>7</title>
<ellipse fill="black" stroke="black" cx="140.55" cy="-170.6" rx="1.8" ry="1.8"/>
</g>
<!-- 3&#45;&gt;7 -->
<g id="edge6" class="edge">
<title>3&#45;&gt;7</title>
<path fill="none" stroke="black" stroke-width="0.75" d="M192.54,-220.33C186.2,-214.26 158.64,-187.9 146.42,-176.21"/>
<polygon fill="black" stroke="black" stroke-width="0.75" points="147.66,-174.98 142.83,-172.78 145.24,-177.51 147.66,-174.98"/>
</g>
<!-- 13 -->
<g id="node12" class="node">
<title>13</title>
<ellipse fill="black" stroke="black" cx="461.26" cy="-458.47" rx="1.8" ry="1.8"/>
</g>
<!-- 6&#45;&gt;13 -->
<g id="edge13" class="edge">
<title>6&#45;&gt;13</title>
<path fill="none" stroke="black" stroke-width="0.75" d="M377.39,-456.65C387.89,-456.87 434.5,-457.88 453.33,-458.29"/>
<polygon fill="black" stroke="black" stroke-width="0.75" points="453.04,-460.04 458.08,-458.4 453.12,-456.54 453.04,-460.04"/>
</g>
<!-- 14 -->
<g id="node14" class="node">
<title>14</title>
<ellipse fill="black" stroke="black" cx="371.81" cy="-538.69" rx="1.8" ry="1.8"/>
</g>
<!-- 6&#45;&gt;14 -->
<g id="edge12" class="edge">
<title>6&#45;&gt;14</title>
<path fill="none" stroke="black" stroke-width="0.75" d="M375.18,-458.63C374.76,-468.57 372.92,-512.37 372.15,-530.64"/>
<polygon fill="black" stroke="black" stroke-width="0.75" points="370.42,-530.22 371.95,-535.29 373.91,-530.37 370.42,-530.22"/>
</g>
<!-- 5&#45;&gt;13 -->
<g id="edge10" class="edge">
<title>5&#45;&gt;13</title>
<path fill="none" stroke="black" stroke-width="0.75" d="M450.57,-375.29C451.91,-385.71 457.85,-431.92 460.25,-450.6"/>
<polygon fill="black" stroke="black" stroke-width="0.75" points="458.48,-450.57 460.86,-455.3 461.95,-450.12 458.48,-450.57"/>
</g>
<!-- 11 -->
<g id="node13" class="node">
<title>11</title>
<ellipse fill="black" stroke="black" cx="531.62" cy="-361.1" rx="1.8" ry="1.8"/>
</g>
<!-- 5&#45;&gt;11 -->
<g id="edge11" class="edge">
<title>5&#45;&gt;11</title>
<path fill="none" stroke="black" stroke-width="0.75" d="M452.31,-372.88C462.15,-371.42 505.55,-364.98 523.65,-362.29"/>
<polygon fill="black" stroke="black" stroke-width="0.75" points="523.57,-364.07 528.26,-361.6 523.06,-360.61 523.57,-364.07"/>
</g>
<!-- 15 -->
<g id="node15" class="node">
<title>15</title>
<ellipse fill="black" stroke="black" cx="92.94" cy="-114.86" rx="1.8" ry="1.8"/>
</g>
<!-- 7&#45;&gt;15 -->
<g id="edge14" class="edge">
<title>7&#45;&gt;15</title>
<path fill="none" stroke="black" stroke-width="0.75" d="M139.37,-169.22C133.71,-162.59 109.09,-133.78 98.18,-121"/>
<polygon fill="black" stroke="black" stroke-width="0.75" points="99.56,-119.93 94.98,-117.26 96.9,-122.2 99.56,-119.93"/>
</g>
<!-- 4 -->
<g id="node8" class="node">
<title>4</title>
<ellipse fill="black" stroke="black" cx="745.58" cy="-673.38" rx="1.8" ry="1.8"/>
</g>
<!-- 12 -->
<g id="node9" class="node">
<title>12</title>
<ellipse fill="black" stroke="black" cx="763.02" cy="-759.46" rx="1.8" ry="1.8"/>
</g>
<!-- 4&#45;&gt;12 -->
<g id="edge7" class="edge">
<title>4&#45;&gt;12</title>
<path fill="none" stroke="black" stroke-width="0.75" d="M746.01,-675.51C748.14,-686.02 757.59,-732.67 761.41,-751.52"/>
<polygon fill="black" stroke="black" stroke-width="0.75" points="759.67,-751.74 762.38,-756.3 763.1,-751.05 759.67,-751.74"/>
</g>
<!-- 10 -->
<g id="node10" class="node">
<title>10</title>
<ellipse fill="black" stroke="black" cx="815.73" cy="-630.01" rx="1.8" ry="1.8"/>
</g>
<!-- 4&#45;&gt;10 -->
<g id="edge8" class="edge">
<title>4&#45;&gt;10</title>
<path fill="none" stroke="black" stroke-width="0.75" d="M747.31,-672.31C755.8,-667.06 793.24,-643.92 808.85,-634.26"/>
<polygon fill="black" stroke="black" stroke-width="0.75" points="809.5,-635.92 812.83,-631.8 807.66,-632.95 809.5,-635.92"/>
</g>
<!-- 9 -->
<g id="node11" class="node">
<title>9</title>
<ellipse fill="black" stroke="black" cx="674.1" cy="-649.72" rx="1.8" ry="1.8"/>
</g>
<!-- 4&#45;&gt;9 -->
<g id="edge9" class="edge">
<title>4&#45;&gt;9</title>
<path fill="none" stroke="black" stroke-width="0.75" d="M743.51,-672.7C734.46,-669.7 697.99,-657.63 681.85,-652.29"/>
<polygon fill="black" stroke="black" stroke-width="0.75" points="682.41,-650.63 677.11,-650.72 681.31,-653.95 682.41,-650.63"/>
</g>
<!-- 25 -->
<g id="node21" class="node">
<title>25</title>
<ellipse fill="black" stroke="black" cx="682.03" cy="-736" rx="1.8" ry="1.8"/>
</g>
<!-- 12&#45;&gt;25 -->
<g id="edge29" class="edge">
<title>12&#45;&gt;25</title>
<path fill="none" stroke="black" stroke-width="0.75" d="M761.02,-758.88C751.13,-756.02 707.23,-743.3 689.5,-738.16"/>
<polygon fill="black" stroke="black" stroke-width="0.75" points="690.34,-736.59 685.05,-736.87 689.36,-739.95 690.34,-736.59"/>
</g>
<!-- 26 -->
<g id="node24" class="node">
<title>26</title>
<ellipse fill="black" stroke="black" cx="836.5" cy="-714.32" rx="1.8" ry="1.8"/>
</g>
<!-- 12&#45;&gt;26 -->
<g id="edge28" class="edge">
<title>12&#45;&gt;26</title>
<path fill="none" stroke="black" stroke-width="0.75" d="M764.84,-758.35C773.81,-752.83 813.63,-728.37 829.72,-718.49"/>
<polygon fill="black" stroke="black" stroke-width="0.75" points="830.44,-720.1 833.78,-715.99 828.6,-717.12 830.44,-720.1"/>
</g>
<!-- 28 -->
<g id="node28" class="node">
<title>28</title>
<ellipse fill="black" stroke="black" cx="774.76" cy="-838.89" rx="1.8" ry="1.8"/>
</g>
<!-- 12&#45;&gt;28 -->
<g id="edge27" class="edge">
<title>12&#45;&gt;28</title>
<path fill="none" stroke="black" stroke-width="0.75" d="M763.31,-761.43C764.73,-771.04 771,-813.42 773.61,-831.1"/>
<polygon fill="black" stroke="black" stroke-width="0.75" points="771.81,-830.89 774.27,-835.58 775.27,-830.38 771.81,-830.89"/>
</g>
<!-- 21 -->
<g id="node22" class="node">
<title>21</title>
<ellipse fill="black" stroke="black" cx="739.64" cy="-594" rx="1.8" ry="1.8"/>
</g>
<!-- 10&#45;&gt;21 -->
<g id="edge24" class="edge">
<title>10&#45;&gt;21</title>
<path fill="none" stroke="black" stroke-width="0.75" d="M813.84,-629.12C804.55,-624.73 763.32,-605.21 746.66,-597.33"/>
<polygon fill="black" stroke="black" stroke-width="0.75" points="747.75,-595.91 742.48,-595.35 746.25,-599.07 747.75,-595.91"/>
</g>
<!-- 10&#45;&gt;26 -->
<g id="edge22" class="edge">
<title>10&#45;&gt;26</title>
<path fill="none" stroke="black" stroke-width="0.75" d="M816.24,-632.1C818.78,-642.4 830.03,-688.08 834.58,-706.55"/>
<polygon fill="black" stroke="black" stroke-width="0.75" points="832.84,-706.77 835.73,-711.21 836.24,-705.94 832.84,-706.77"/>
</g>
<!-- 22 -->
<g id="node25" class="node">
<title>22</title>
<ellipse fill="black" stroke="black" cx="878.12" cy="-580.63" rx="1.8" ry="1.8"/>
</g>
<!-- 10&#45;&gt;22 -->
<g id="edge23" class="edge">
<title>10&#45;&gt;22</title>
<path fill="none" stroke="black" stroke-width="0.75" d="M817.53,-628.59C825.5,-622.28 857.84,-596.68 871.73,-585.68"/>
<polygon fill="black" stroke="black" stroke-width="0.75" points="872.7,-587.14 875.54,-582.67 870.53,-584.4 872.7,-587.14"/>
</g>
<!-- 9&#45;&gt;25 -->
<g id="edge19" class="edge">
<title>9&#45;&gt;25</title>
<path fill="none" stroke="black" stroke-width="0.75" d="M674.29,-651.85C675.26,-662.39 679.56,-709.15 681.3,-728.04"/>
<polygon fill="black" stroke="black" stroke-width="0.75" points="679.53,-727.99 681.73,-732.81 683.02,-727.67 679.53,-727.99"/>
</g>
<!-- 9&#45;&gt;21 -->
<g id="edge20" class="edge">
<title>9&#45;&gt;21</title>
<path fill="none" stroke="black" stroke-width="0.75" d="M675.72,-648.34C683.79,-641.48 719.86,-610.82 733.96,-598.83"/>
<polygon fill="black" stroke="black" stroke-width="0.75" points="734.76,-600.45 737.43,-595.88 732.49,-597.78 734.76,-600.45"/>
</g>
<!-- 19 -->
<g id="node23" class="node">
<title>19</title>
<ellipse fill="black" stroke="black" cx="601.36" cy="-620.33" rx="1.8" ry="1.8"/>
</g>
<!-- 9&#45;&gt;19 -->
<g id="edge21" class="edge">
<title>9&#45;&gt;19</title>
<path fill="none" stroke="black" stroke-width="0.75" d="M672,-648.87C662.7,-645.12 625,-629.88 608.81,-623.34"/>
<polygon fill="black" stroke="black" stroke-width="0.75" points="609.67,-621.8 604.38,-621.55 608.36,-625.05 609.67,-621.8"/>
</g>
<!-- 27 -->
<g id="node26" class="node">
<title>27</title>
<ellipse fill="black" stroke="black" cx="546.07" cy="-447.12" rx="1.8" ry="1.8"/>
</g>
<!-- 13&#45;&gt;27 -->
<g id="edge31" class="edge">
<title>13&#45;&gt;27</title>
<path fill="none" stroke="black" stroke-width="0.75" d="M463.36,-458.18C473.72,-456.8 519.68,-450.65 538.25,-448.16"/>
<polygon fill="black" stroke="black" stroke-width="0.75" points="538.2,-449.94 542.93,-447.54 537.74,-446.47 538.2,-449.94"/>
</g>
<!-- 29 -->
<g id="node29" class="node">
<title>29</title>
<ellipse fill="black" stroke="black" cx="458.93" cy="-543.96" rx="1.8" ry="1.8"/>
</g>
<!-- 13&#45;&gt;29 -->
<g id="edge30" class="edge">
<title>13&#45;&gt;29</title>
<path fill="none" stroke="black" stroke-width="0.75" d="M461.21,-460.58C460.92,-471.02 459.66,-517.35 459.15,-536.07"/>
<polygon fill="black" stroke="black" stroke-width="0.75" points="457.4,-535.74 459.02,-540.78 460.9,-535.83 457.4,-535.74"/>
</g>
<!-- 11&#45;&gt;27 -->
<g id="edge25" class="edge">
<title>11&#45;&gt;27</title>
<path fill="none" stroke="black" stroke-width="0.75" d="M531.98,-363.23C533.75,-373.74 541.58,-420.35 544.74,-439.18"/>
<polygon fill="black" stroke="black" stroke-width="0.75" points="542.99,-439.3 545.54,-443.94 546.44,-438.72 542.99,-439.3"/>
</g>
<!-- 23 -->
<g id="node27" class="node">
<title>23</title>
<ellipse fill="black" stroke="black" cx="608.34" cy="-335.16" rx="1.8" ry="1.8"/>
</g>
<!-- 11&#45;&gt;23 -->
<g id="edge26" class="edge">
<title>11&#45;&gt;23</title>
<path fill="none" stroke="black" stroke-width="0.75" d="M533.52,-360.46C542.81,-357.32 583.74,-343.48 600.81,-337.7"/>
<polygon fill="black" stroke="black" stroke-width="0.75" points="600.97,-339.5 605.15,-336.24 599.85,-336.18 600.97,-339.5"/>
</g>
<!-- 14&#45;&gt;29 -->
<g id="edge33" class="edge">
<title>14&#45;&gt;29</title>
<path fill="none" stroke="black" stroke-width="0.75" d="M373.96,-538.82C384.6,-539.46 431.82,-542.32 450.89,-543.47"/>
<polygon fill="black" stroke="black" stroke-width="0.75" points="450.62,-545.21 455.72,-543.76 450.83,-541.72 450.62,-545.21"/>
</g>
<!-- 30 -->
<g id="node30" class="node">
<title>30</title>
<ellipse fill="black" stroke="black" cx="354" cy="-617.62" rx="1.8" ry="1.8"/>
</g>
<!-- 14&#45;&gt;30 -->
<g id="edge32" class="edge">
<title>14&#45;&gt;30</title>
<path fill="none" stroke="black" stroke-width="0.75" d="M371.37,-540.64C369.21,-550.19 359.71,-592.31 355.75,-609.88"/>
<polygon fill="black" stroke="black" stroke-width="0.75" points="354.14,-609.08 354.74,-614.34 357.55,-609.85 354.14,-609.08"/>
</g>
<!-- 31 -->
<g id="node31" class="node">
<title>31</title>
<ellipse fill="black" stroke="black" cx="51.03" cy="-55.11" rx="1.8" ry="1.8"/>
</g>
<!-- 15&#45;&gt;31 -->
<g id="edge34" class="edge">
<title>15&#45;&gt;31</title>
<path fill="none" stroke="black" stroke-width="0.75" d="M91.73,-113.14C86.42,-105.57 65.03,-75.08 55.57,-61.59"/>
<polygon fill="black" stroke="black" stroke-width="0.75" points="57.12,-60.75 52.82,-57.66 54.25,-62.76 57.12,-60.75"/>
</g>
<!-- 8 -->
<g id="node16" class="node">
<title>8</title>
<ellipse fill="black" stroke="black" cx="782.84" cy="-381.57" rx="1.8" ry="1.8"/>
</g>
<!-- 24 -->
<g id="node17" class="node">
<title>24</title>
<ellipse fill="black" stroke="black" cx="813.73" cy="-455.74" rx="1.8" ry="1.8"/>
</g>
<!-- 8&#45;&gt;24 -->
<g id="edge15" class="edge">
<title>8&#45;&gt;24</title>
<path fill="none" stroke="black" stroke-width="0.75" d="M783.61,-383.4C787.35,-392.38 803.83,-431.96 810.7,-448.47"/>
<polygon fill="black" stroke="black" stroke-width="0.75" points="808.91,-448.71 812.44,-452.65 812.14,-447.36 808.91,-448.71"/>
</g>
<!-- 20 -->
<g id="node18" class="node">
<title>20</title>
<ellipse fill="black" stroke="black" cx="842.15" cy="-328.68" rx="1.8" ry="1.8"/>
</g>
<!-- 8&#45;&gt;20 -->
<g id="edge16" class="edge">
<title>8&#45;&gt;20</title>
<path fill="none" stroke="black" stroke-width="0.75" d="M784.56,-380.04C792.13,-373.29 822.88,-345.86 836.08,-334.09"/>
<polygon fill="black" stroke="black" stroke-width="0.75" points="837.13,-335.5 839.7,-330.86 834.8,-332.89 837.13,-335.5"/>
</g>
<!-- 18 -->
<g id="node19" class="node">
<title>18</title>
<ellipse fill="black" stroke="black" cx="697.77" cy="-417.83" rx="1.8" ry="1.8"/>
</g>
<!-- 8&#45;&gt;18 -->
<g id="edge17" class="edge">
<title>8&#45;&gt;18</title>
<path fill="none" stroke="black" stroke-width="0.75" d="M780.74,-382.47C770.26,-386.93 723.43,-406.89 705.13,-414.69"/>
<polygon fill="black" stroke="black" stroke-width="0.75" points="704.76,-412.95 700.85,-416.52 706.13,-416.17 704.76,-412.95"/>
</g>
<!-- 17 -->
<g id="node20" class="node">
<title>17</title>
<ellipse fill="black" stroke="black" cx="722.79" cy="-312.36" rx="1.8" ry="1.8"/>
</g>
<!-- 8&#45;&gt;17 -->
<g id="edge18" class="edge">
<title>8&#45;&gt;17</title>
<path fill="none" stroke="black" stroke-width="0.75" d="M781.36,-379.86C773.96,-371.33 740.91,-333.24 727.99,-318.35"/>
<polygon fill="black" stroke="black" stroke-width="0.75" points="729.36,-317.26 724.76,-314.63 726.72,-319.56 729.36,-317.26"/>
</g>
<!-- 49 -->
<g id="node38" class="node">
<title>49</title>
<ellipse fill="black" stroke="black" cx="747.22" cy="-403.51" rx="1.8" ry="1.8"/>
</g>
<!-- 24&#45;&gt;49 -->
<g id="edge66" class="edge">
<title>24&#45;&gt;49</title>
<path fill="none" stroke="black" stroke-width="0.75" d="M812.09,-454.45C803.96,-448.07 767.93,-419.78 753.36,-408.33"/>
<polygon fill="black" stroke="black" stroke-width="0.75" points="754.48,-406.99 749.47,-405.28 752.32,-409.74 754.48,-406.99"/>
</g>
<!-- 50 -->
<g id="node42" class="node">
<title>50</title>
<ellipse fill="black" stroke="black" cx="739.73" cy="-495.02" rx="1.8" ry="1.8"/>
</g>
<!-- 24&#45;&gt;50 -->
<g id="edge65" class="edge">
<title>24&#45;&gt;50</title>
<path fill="none" stroke="black" stroke-width="0.75" d="M811.9,-456.71C802.86,-461.51 762.76,-482.8 746.56,-491.4"/>
<polygon fill="black" stroke="black" stroke-width="0.75" points="746.09,-489.66 742.5,-493.55 747.74,-492.75 746.09,-489.66"/>
</g>
<!-- 52 -->
<g id="node48" class="node">
<title>52</title>
<ellipse fill="black" stroke="black" cx="882.51" cy="-404.45" rx="1.8" ry="1.8"/>
</g>
<!-- 24&#45;&gt;52 -->
<g id="edge64" class="edge">
<title>24&#45;&gt;52</title>
<path fill="none" stroke="black" stroke-width="0.75" d="M815.43,-454.47C823.9,-448.15 861.75,-419.93 876.55,-408.89"/>
<polygon fill="black" stroke="black" stroke-width="0.75" points="877.23,-410.57 880.19,-406.17 875.14,-407.76 877.23,-410.57"/>
</g>
<!-- 56 -->
<g id="node56" class="node">
<title>56</title>
<ellipse fill="black" stroke="black" cx="856.37" cy="-524.26" rx="1.8" ry="1.8"/>
</g>
<!-- 24&#45;&gt;56 -->
<g id="edge63" class="edge">
<title>24&#45;&gt;56</title>
<path fill="none" stroke="black" stroke-width="0.75" d="M814.78,-457.43C819.95,-465.73 842.7,-502.29 852.19,-517.54"/>
<polygon fill="black" stroke="black" stroke-width="0.75" points="850.47,-518.09 854.59,-521.41 853.44,-516.24 850.47,-518.09"/>
</g>
<!-- 41 -->
<g id="node39" class="node">
<title>41</title>
<ellipse fill="black" stroke="black" cx="793.9" cy="-261.08" rx="1.8" ry="1.8"/>
</g>
<!-- 20&#45;&gt;41 -->
<g id="edge54" class="edge">
<title>20&#45;&gt;41</title>
<path fill="none" stroke="black" stroke-width="0.75" d="M840.96,-327C835.11,-318.82 809.37,-282.75 798.63,-267.71"/>
<polygon fill="black" stroke="black" stroke-width="0.75" points="800.22,-266.92 795.89,-263.87 797.37,-268.95 800.22,-266.92"/>
</g>
<!-- 42 -->
<g id="node43" class="node">
<title>42</title>
<ellipse fill="black" stroke="black" cx="757.99" cy="-347.31" rx="1.8" ry="1.8"/>
</g>
<!-- 20&#45;&gt;42 -->
<g id="edge53" class="edge">
<title>20&#45;&gt;42</title>
<path fill="none" stroke="black" stroke-width="0.75" d="M840.07,-329.14C829.79,-331.41 784.18,-341.51 765.75,-345.59"/>
<polygon fill="black" stroke="black" stroke-width="0.75" points="765.61,-343.83 761.1,-346.62 766.36,-347.25 765.61,-343.83"/>
</g>
<!-- 20&#45;&gt;52 -->
<g id="edge51" class="edge">
<title>20&#45;&gt;52</title>
<path fill="none" stroke="black" stroke-width="0.75" d="M843.15,-330.55C848.07,-339.8 869.95,-380.87 878.78,-397.46"/>
<polygon fill="black" stroke="black" stroke-width="0.75" points="877.12,-398.05 881.01,-401.64 880.2,-396.4 877.12,-398.05"/>
</g>
<!-- 44 -->
<g id="node49" class="node">
<title>44</title>
<ellipse fill="black" stroke="black" cx="910.63" cy="-285.56" rx="1.8" ry="1.8"/>
</g>
<!-- 20&#45;&gt;44 -->
<g id="edge52" class="edge">
<title>20&#45;&gt;44</title>
<path fill="none" stroke="black" stroke-width="0.75" d="M843.84,-327.61C852.13,-322.39 888.67,-299.38 903.91,-289.79"/>
<polygon fill="black" stroke="black" stroke-width="0.75" points="904.48,-291.5 907.78,-287.35 902.62,-288.54 904.48,-291.5"/>
</g>
<!-- 37 -->
<g id="node40" class="node">
<title>37</title>
<ellipse fill="black" stroke="black" cx="648.48" cy="-350.45" rx="1.8" ry="1.8"/>
</g>
<!-- 18&#45;&gt;37 -->
<g id="edge47" class="edge">
<title>18&#45;&gt;37</title>
<path fill="none" stroke="black" stroke-width="0.75" d="M696.55,-416.16C690.58,-408 664.28,-372.05 653.31,-357.06"/>
<polygon fill="black" stroke="black" stroke-width="0.75" points="654.87,-356.23 650.5,-353.22 652.04,-358.29 654.87,-356.23"/>
</g>
<!-- 18&#45;&gt;50 -->
<g id="edge44" class="edge">
<title>18&#45;&gt;50</title>
<path fill="none" stroke="black" stroke-width="0.75" d="M698.81,-419.73C703.93,-429.16 726.67,-471 735.86,-487.9"/>
<polygon fill="black" stroke="black" stroke-width="0.75" points="734.26,-488.62 738.19,-492.18 737.34,-486.95 734.26,-488.62"/>
</g>
<!-- 18&#45;&gt;42 -->
<g id="edge45" class="edge">
<title>18&#45;&gt;42</title>
<path fill="none" stroke="black" stroke-width="0.75" d="M699.26,-416.08C706.68,-407.39 739.83,-368.58 752.78,-353.41"/>
<polygon fill="black" stroke="black" stroke-width="0.75" points="753.9,-354.79 755.81,-349.85 751.24,-352.52 753.9,-354.79"/>
</g>
<!-- 38 -->
<g id="node44" class="node">
<title>38</title>
<ellipse fill="black" stroke="black" cx="625.8" cy="-460.21" rx="1.8" ry="1.8"/>
</g>
<!-- 18&#45;&gt;38 -->
<g id="edge46" class="edge">
<title>18&#45;&gt;38</title>
<path fill="none" stroke="black" stroke-width="0.75" d="M695.99,-418.87C687.28,-424.01 648.87,-446.62 632.86,-456.05"/>
<polygon fill="black" stroke="black" stroke-width="0.75" points="632.18,-454.42 628.76,-458.47 633.96,-457.44 632.18,-454.42"/>
</g>
<!-- 17&#45;&gt;49 -->
<g id="edge40" class="edge">
<title>17&#45;&gt;49</title>
<path fill="none" stroke="black" stroke-width="0.75" d="M723.3,-314.26C726.11,-324.74 739.74,-375.59 745.07,-395.5"/>
<polygon fill="black" stroke="black" stroke-width="0.75" points="743.35,-395.82 746.33,-400.2 746.73,-394.92 743.35,-395.82"/>
</g>
<!-- 17&#45;&gt;41 -->
<g id="edge41" class="edge">
<title>17&#45;&gt;41</title>
<path fill="none" stroke="black" stroke-width="0.75" d="M724.55,-311.09C733.23,-304.83 771.77,-277.04 787.34,-265.81"/>
<polygon fill="black" stroke="black" stroke-width="0.75" points="788.25,-267.31 791.29,-262.97 786.21,-264.47 788.25,-267.31"/>
</g>
<!-- 17&#45;&gt;37 -->
<g id="edge42" class="edge">
<title>17&#45;&gt;37</title>
<path fill="none" stroke="black" stroke-width="0.75" d="M720.95,-313.3C711.96,-317.91 672.3,-338.24 655.76,-346.72"/>
<polygon fill="black" stroke="black" stroke-width="0.75" points="655.18,-345.05 651.53,-348.89 656.78,-348.16 655.18,-345.05"/>
</g>
<!-- 35 -->
<g id="node41" class="node">
<title>35</title>
<ellipse fill="black" stroke="black" cx="677.82" cy="-241.8" rx="1.8" ry="1.8"/>
</g>
<!-- 17&#45;&gt;35 -->
<g id="edge43" class="edge">
<title>17&#45;&gt;35</title>
<path fill="none" stroke="black" stroke-width="0.75" d="M721.68,-310.62C716.19,-302 691.82,-263.76 681.97,-248.31"/>
<polygon fill="black" stroke="black" stroke-width="0.75" points="683.67,-247.72 679.5,-244.44 680.71,-249.6 683.67,-247.72"/>
</g>
<!-- 51 -->
<g id="node45" class="node">
<title>51</title>
<ellipse fill="black" stroke="black" cx="600.45" cy="-708.82" rx="1.8" ry="1.8"/>
</g>
<!-- 25&#45;&gt;51 -->
<g id="edge69" class="edge">
<title>25&#45;&gt;51</title>
<path fill="none" stroke="black" stroke-width="0.75" d="M680.01,-735.33C670.05,-732.01 625.83,-717.28 607.97,-711.33"/>
<polygon fill="black" stroke="black" stroke-width="0.75" points="608.77,-709.75 603.47,-709.83 607.66,-713.07 608.77,-709.75"/>
</g>
<!-- 53 -->
<g id="node50" class="node">
<title>53</title>
<ellipse fill="black" stroke="black" cx="757.68" cy="-687.1" rx="1.8" ry="1.8"/>
</g>
<!-- 25&#45;&gt;53 -->
<g id="edge68" class="edge">
<title>25&#45;&gt;53</title>
<path fill="none" stroke="black" stroke-width="0.75" d="M683.9,-734.79C693.22,-728.77 734.86,-701.85 751.14,-691.33"/>
<polygon fill="black" stroke="black" stroke-width="0.75" points="751.67,-693.07 754.92,-688.89 749.77,-690.13 751.67,-693.07"/>
</g>
<!-- 57 -->
<g id="node57" class="node">
<title>57</title>
<ellipse fill="black" stroke="black" cx="688.84" cy="-821.22" rx="1.8" ry="1.8"/>
</g>
<!-- 25&#45;&gt;57 -->
<g id="edge67" class="edge">
<title>25&#45;&gt;57</title>
<path fill="none" stroke="black" stroke-width="0.75" d="M682.19,-738.11C683.03,-748.51 686.72,-794.7 688.21,-813.36"/>
<polygon fill="black" stroke="black" stroke-width="0.75" points="686.44,-813.21 688.58,-818.06 689.93,-812.93 686.44,-813.21"/>
</g>
<!-- 43 -->
<g id="node46" class="node">
<title>43</title>
<ellipse fill="black" stroke="black" cx="662.41" cy="-556.25" rx="1.8" ry="1.8"/>
</g>
<!-- 21&#45;&gt;43 -->
<g id="edge57" class="edge">
<title>21&#45;&gt;43</title>
<path fill="none" stroke="black" stroke-width="0.75" d="M737.73,-593.07C728.3,-588.46 686.45,-568 669.54,-559.73"/>
<polygon fill="black" stroke="black" stroke-width="0.75" points="670.54,-558.27 665.28,-557.65 669,-561.42 670.54,-558.27"/>
</g>
<!-- 21&#45;&gt;53 -->
<g id="edge55" class="edge">
<title>21&#45;&gt;53</title>
<path fill="none" stroke="black" stroke-width="0.75" d="M740.01,-595.95C742.1,-606.69 752.24,-659.03 756.14,-679.18"/>
<polygon fill="black" stroke="black" stroke-width="0.75" points="754.42,-679.48 757.09,-684.05 757.86,-678.81 754.42,-679.48"/>
</g>
<!-- 45 -->
<g id="node51" class="node">
<title>45</title>
<ellipse fill="black" stroke="black" cx="802.67" cy="-535.8" rx="1.8" ry="1.8"/>
</g>
<!-- 21&#45;&gt;45 -->
<g id="edge56" class="edge">
<title>21&#45;&gt;45</title>
<path fill="none" stroke="black" stroke-width="0.75" d="M741.19,-592.57C748.96,-585.4 783.65,-553.37 797.22,-540.85"/>
<polygon fill="black" stroke="black" stroke-width="0.75" points="798.07,-542.44 800.55,-537.76 795.69,-539.87 798.07,-542.44"/>
</g>
<!-- 19&#45;&gt;51 -->
<g id="edge48" class="edge">
<title>19&#45;&gt;51</title>
<path fill="none" stroke="black" stroke-width="0.75" d="M601.34,-622.52C601.23,-633.33 600.73,-681.28 600.53,-700.66"/>
<polygon fill="black" stroke="black" stroke-width="0.75" points="598.78,-700.56 600.48,-705.58 602.28,-700.59 598.78,-700.56"/>
</g>
<!-- 19&#45;&gt;43 -->
<g id="edge49" class="edge">
<title>19&#45;&gt;43</title>
<path fill="none" stroke="black" stroke-width="0.75" d="M602.87,-618.75C610.39,-610.85 643.99,-575.59 657.13,-561.8"/>
<polygon fill="black" stroke="black" stroke-width="0.75" points="658.2,-563.21 660.38,-558.38 655.67,-560.79 658.2,-563.21"/>
</g>
<!-- 39 -->
<g id="node47" class="node">
<title>39</title>
<ellipse fill="black" stroke="black" cx="529.8" cy="-587.7" rx="1.8" ry="1.8"/>
</g>
<!-- 19&#45;&gt;39 -->
<g id="edge50" class="edge">
<title>19&#45;&gt;39</title>
<path fill="none" stroke="black" stroke-width="0.75" d="M599.3,-619.39C590.15,-615.22 553.05,-598.31 537.13,-591.04"/>
<polygon fill="black" stroke="black" stroke-width="0.75" points="538.05,-589.54 532.77,-589.06 536.59,-592.73 538.05,-589.54"/>
</g>
<!-- 26&#45;&gt;53 -->
<g id="edge72" class="edge">
<title>26&#45;&gt;53</title>
<path fill="none" stroke="black" stroke-width="0.75" d="M834.55,-713.65C825.01,-710.35 782.95,-695.83 765.41,-689.77"/>
<polygon fill="black" stroke="black" stroke-width="0.75" points="766.22,-688.2 760.92,-688.22 765.08,-691.51 766.22,-688.2"/>
</g>
<!-- 54 -->
<g id="node52" class="node">
<title>54</title>
<ellipse fill="black" stroke="black" cx="905.88" cy="-664.47" rx="1.8" ry="1.8"/>
</g>
<!-- 26&#45;&gt;54 -->
<g id="edge71" class="edge">
<title>26&#45;&gt;54</title>
<path fill="none" stroke="black" stroke-width="0.75" d="M838.22,-713.09C846.76,-706.95 884.94,-679.51 899.87,-668.79"/>
<polygon fill="black" stroke="black" stroke-width="0.75" points="900.5,-670.49 903.54,-666.15 898.46,-667.65 900.5,-670.49"/>
</g>
<!-- 58 -->
<g id="node58" class="node">
<title>58</title>
<ellipse fill="black" stroke="black" cx="852.81" cy="-797.98" rx="1.8" ry="1.8"/>
</g>
<!-- 26&#45;&gt;58 -->
<g id="edge70" class="edge">
<title>26&#45;&gt;58</title>
<path fill="none" stroke="black" stroke-width="0.75" d="M836.9,-716.39C838.9,-726.61 847.73,-771.94 851.3,-790.26"/>
<polygon fill="black" stroke="black" stroke-width="0.75" points="849.53,-790.3 852.2,-794.87 852.96,-789.63 849.53,-790.3"/>
</g>
<!-- 22&#45;&gt;45 -->
<g id="edge60" class="edge">
<title>22&#45;&gt;45</title>
<path fill="none" stroke="black" stroke-width="0.75" d="M876.25,-579.52C867.04,-574.04 826.15,-549.75 809.63,-539.94"/>
<polygon fill="black" stroke="black" stroke-width="0.75" points="810.64,-538.5 805.45,-537.45 808.86,-541.51 810.64,-538.5"/>
</g>
<!-- 22&#45;&gt;54 -->
<g id="edge58" class="edge">
<title>22&#45;&gt;54</title>
<path fill="none" stroke="black" stroke-width="0.75" d="M878.8,-582.7C882.19,-592.94 897.24,-638.38 903.32,-656.73"/>
<polygon fill="black" stroke="black" stroke-width="0.75" points="901.63,-657.19 904.86,-661.39 904.95,-656.09 901.63,-657.19"/>
</g>
<!-- 46 -->
<g id="node53" class="node">
<title>46</title>
<ellipse fill="black" stroke="black" cx="938.44" cy="-529.8" rx="1.8" ry="1.8"/>
</g>
<!-- 22&#45;&gt;46 -->
<g id="edge59" class="edge">
<title>22&#45;&gt;46</title>
<path fill="none" stroke="black" stroke-width="0.75" d="M879.86,-579.16C887.56,-572.67 918.84,-546.32 932.27,-535"/>
<polygon fill="black" stroke="black" stroke-width="0.75" points="933.25,-536.47 935.94,-531.91 930.99,-533.79 933.25,-536.47"/>
</g>
<!-- 55 -->
<g id="node54" class="node">
<title>55</title>
<ellipse fill="black" stroke="black" cx="622.96" cy="-417.27" rx="1.8" ry="1.8"/>
</g>
<!-- 27&#45;&gt;55 -->
<g id="edge74" class="edge">
<title>27&#45;&gt;55</title>
<path fill="none" stroke="black" stroke-width="0.75" d="M547.98,-446.38C557.28,-442.76 598.31,-426.84 615.42,-420.2"/>
<polygon fill="black" stroke="black" stroke-width="0.75" points="615.76,-421.94 619.78,-418.5 614.49,-418.68 615.76,-421.94"/>
</g>
<!-- 59 -->
<g id="node59" class="node">
<title>59</title>
<ellipse fill="black" stroke="black" cx="542.53" cy="-531.52" rx="1.8" ry="1.8"/>
</g>
<!-- 27&#45;&gt;59 -->
<g id="edge73" class="edge">
<title>27&#45;&gt;59</title>
<path fill="none" stroke="black" stroke-width="0.75" d="M545.99,-449.2C545.55,-459.51 543.63,-505.25 542.86,-523.73"/>
<polygon fill="black" stroke="black" stroke-width="0.75" points="541.12,-523.3 542.66,-528.37 544.62,-523.45 541.12,-523.3"/>
</g>
<!-- 23&#45;&gt;55 -->
<g id="edge61" class="edge">
<title>23&#45;&gt;55</title>
<path fill="none" stroke="black" stroke-width="0.75" d="M608.7,-337.19C610.47,-347.13 618.27,-390.94 621.52,-409.22"/>
<polygon fill="black" stroke="black" stroke-width="0.75" points="619.76,-409.28 622.36,-413.89 623.2,-408.66 619.76,-409.28"/>
</g>
<!-- 47 -->
<g id="node55" class="node">
<title>47</title>
<ellipse fill="black" stroke="black" cx="665.03" cy="-282.57" rx="1.8" ry="1.8"/>
</g>
<!-- 23&#45;&gt;47 -->
<g id="edge62" class="edge">
<title>23&#45;&gt;47</title>
<path fill="none" stroke="black" stroke-width="0.75" d="M609.74,-333.86C616.54,-327.55 646.32,-299.92 659.13,-288.04"/>
<polygon fill="black" stroke="black" stroke-width="0.75" points="660.16,-289.47 662.64,-284.79 657.78,-286.91 660.16,-289.47"/>
</g>
<!-- 28&#45;&gt;57 -->
<g id="edge77" class="edge">
<title>28&#45;&gt;57</title>
<path fill="none" stroke="black" stroke-width="0.75" d="M772.64,-838.45C762.14,-836.29 715.58,-826.72 696.76,-822.85"/>
<polygon fill="black" stroke="black" stroke-width="0.75" points="697.25,-821.17 692,-821.87 696.54,-824.59 697.25,-821.17"/>
</g>
<!-- 28&#45;&gt;58 -->
<g id="edge76" class="edge">
<title>28&#45;&gt;58</title>
<path fill="none" stroke="black" stroke-width="0.75" d="M776.69,-837.88C786.22,-832.88 828.52,-810.71 845.61,-801.75"/>
<polygon fill="black" stroke="black" stroke-width="0.75" points="846.33,-803.35 849.94,-799.48 844.7,-800.25 846.33,-803.35"/>
</g>
<!-- 60 -->
<g id="node60" class="node">
<title>60</title>
<ellipse fill="black" stroke="black" cx="785.72" cy="-917.17" rx="1.8" ry="1.8"/>
</g>
<!-- 28&#45;&gt;60 -->
<g id="edge75" class="edge">
<title>28&#45;&gt;60</title>
<path fill="none" stroke="black" stroke-width="0.75" d="M775.08,-841.15C776.48,-851.15 782.16,-891.73 784.6,-909.16"/>
<polygon fill="black" stroke="black" stroke-width="0.75" points="782.84,-909.22 785.27,-913.93 786.31,-908.74 782.84,-909.22"/>
</g>
<!-- 29&#45;&gt;59 -->
<g id="edge79" class="edge">
<title>29&#45;&gt;59</title>
<path fill="none" stroke="black" stroke-width="0.75" d="M461,-543.65C471.21,-542.13 516.51,-535.39 534.82,-532.66"/>
<polygon fill="black" stroke="black" stroke-width="0.75" points="534.72,-534.45 539.41,-531.98 534.21,-530.99 534.72,-534.45"/>
</g>
<!-- 61 -->
<g id="node61" class="node">
<title>61</title>
<ellipse fill="black" stroke="black" cx="437.25" cy="-623.5" rx="1.8" ry="1.8"/>
</g>
<!-- 29&#45;&gt;61 -->
<g id="edge78" class="edge">
<title>29&#45;&gt;61</title>
<path fill="none" stroke="black" stroke-width="0.75" d="M458.39,-545.92C455.77,-555.55 444.2,-598 439.37,-615.7"/>
<polygon fill="black" stroke="black" stroke-width="0.75" points="437.77,-614.93 438.14,-620.21 441.15,-615.85 437.77,-614.93"/>
</g>
<!-- 30&#45;&gt;61 -->
<g id="edge81" class="edge">
<title>30&#45;&gt;61</title>
<path fill="none" stroke="black" stroke-width="0.75" d="M356.06,-617.77C366.14,-618.48 410.56,-621.61 429.09,-622.92"/>
<polygon fill="black" stroke="black" stroke-width="0.75" points="428.71,-624.65 433.82,-623.25 428.96,-621.16 428.71,-624.65"/>
</g>
<!-- 62 -->
<g id="node62" class="node">
<title>62</title>
<ellipse fill="black" stroke="black" cx="307.27" cy="-679.2" rx="1.8" ry="1.8"/>
</g>
<!-- 30&#45;&gt;62 -->
<g id="edge80" class="edge">
<title>30&#45;&gt;62</title>
<path fill="none" stroke="black" stroke-width="0.75" d="M352.66,-619.4C346.68,-627.27 322.46,-659.19 312.06,-672.9"/>
<polygon fill="black" stroke="black" stroke-width="0.75" points="310.85,-671.59 309.22,-676.63 313.64,-673.71 310.85,-671.59"/>
</g>
<!-- 63 -->
<g id="node63" class="node">
<title>63</title>
<ellipse fill="black" stroke="black" cx="1.8" cy="-1.8" rx="1.8" ry="1.8"/>
</g>
<!-- 31&#45;&gt;63 -->
<g id="edge82" class="edge">
<title>31&#45;&gt;63</title>
<path fill="none" stroke="black" stroke-width="0.75" d="M49.81,-53.8C43.96,-47.45 18.51,-19.89 7.22,-7.67"/>
<polygon fill="black" stroke="black" stroke-width="0.75" points="8.6,-6.59 3.93,-4.1 6.03,-8.96 8.6,-6.59"/>
</g>
<!-- 16 -->
<g id="node32" class="node">
<title>16</title>
<ellipse fill="black" stroke="black" cx="416.14" cy="-262.18" rx="1.8" ry="1.8"/>
</g>
<!-- 48 -->
<g id="node33" class="node">
<title>48</title>
<ellipse fill="black" stroke="black" cx="468" cy="-199.63" rx="1.8" ry="1.8"/>
</g>
<!-- 16&#45;&gt;48 -->
<g id="edge35" class="edge">
<title>16&#45;&gt;48</title>
<path fill="none" stroke="black" stroke-width="0.75" d="M417.42,-260.63C423.7,-253.06 451.37,-219.68 462.92,-205.76"/>
<polygon fill="black" stroke="black" stroke-width="0.75" points="464,-207.19 465.85,-202.23 461.31,-204.96 464,-207.19"/>
</g>
<!-- 40 -->
<g id="node34" class="node">
<title>40</title>
<ellipse fill="black" stroke="black" cx="372.38" cy="-193.8" rx="1.8" ry="1.8"/>
</g>
<!-- 16&#45;&gt;40 -->
<g id="edge36" class="edge">
<title>16&#45;&gt;40</title>
<path fill="none" stroke="black" stroke-width="0.75" d="M415.06,-260.49C409.76,-252.21 386.41,-215.72 376.67,-200.5"/>
<polygon fill="black" stroke="black" stroke-width="0.75" points="378.37,-199.91 374.2,-196.64 375.42,-201.79 378.37,-199.91"/>
</g>
<!-- 36 -->
<g id="node35" class="node">
<title>36</title>
<ellipse fill="black" stroke="black" cx="337.8" cy="-283.52" rx="1.8" ry="1.8"/>
</g>
<!-- 16&#45;&gt;36 -->
<g id="edge37" class="edge">
<title>16&#45;&gt;36</title>
<path fill="none" stroke="black" stroke-width="0.75" d="M414.2,-262.71C404.72,-265.29 362.92,-276.68 345.48,-281.43"/>
<polygon fill="black" stroke="black" stroke-width="0.75" points="345.42,-279.63 341.05,-282.64 346.34,-283.01 345.42,-279.63"/>
</g>
<!-- 34 -->
<g id="node36" class="node">
<title>34</title>
<ellipse fill="black" stroke="black" cx="491.93" cy="-291.64" rx="1.8" ry="1.8"/>
</g>
<!-- 16&#45;&gt;34 -->
<g id="edge38" class="edge">
<title>16&#45;&gt;34</title>
<path fill="none" stroke="black" stroke-width="0.75" d="M418.01,-262.91C427.19,-266.47 467.63,-282.19 484.5,-288.75"/>
<polygon fill="black" stroke="black" stroke-width="0.75" points="483.49,-290.23 488.78,-290.41 484.76,-286.97 483.49,-290.23"/>
</g>
<!-- 33 -->
<g id="node37" class="node">
<title>33</title>
<ellipse fill="black" stroke="black" cx="412.31" cy="-343.36" rx="1.8" ry="1.8"/>
</g>
<!-- 16&#45;&gt;33 -->
<g id="edge39" class="edge">
<title>16&#45;&gt;33</title>
<path fill="none" stroke="black" stroke-width="0.75" d="M416.04,-264.19C415.58,-274.02 413.54,-317.34 412.68,-335.41"/>
<polygon fill="black" stroke="black" stroke-width="0.75" points="410.96,-334.92 412.47,-340 414.45,-335.08 410.96,-334.92"/>
</g>
</g>
</svg>
