<svg xmlns="http://www.w3.org/2000/svg" width="161.8" height="100.0" viewBox="-3.6 -5.0 171.8 110.0">
<g fill="none" stroke="black" stroke-width="0.3150%" transform="translate(0, 100.0000) scale(1.5873, -1.5873)">


<line x1="2.7" y1="0.0" x2="2.7" y2="1.0" />

<line x1="4.4" y1="0.0" x2="4.4" y2="2.0" />
<line x1="5.3" y1="0.0" x2="5.3" y2="3.0" />
<line x1="6.2" y1="0.0" x2="6.2" y2="1.0" />

<line x1="8.0" y1="0.0" x2="8.0" y2="4.0" />
<line x1="8.9" y1="0.0" x2="8.9" y2="5.0" />
<line x1="9.8" y1="0.0" x2="9.8" y2="7.0" />
<line x1="10.6" y1="0.0" x2="10.6" y2="6.0" />
<line x1="11.5" y1="0.0" x2="11.5" y2="2.0" />
<line x1="12.4" y1="0.0" x2="12.4" y2="3.0" />
<line x1="13.3" y1="0.0" x2="13.3" y2="1.0" />

<line x1="15.1" y1="0.0" x2="15.1" y2="8.0" />
<line x1="16.0" y1="0.0" x2="16.0" y2="9.0" />
<line x1="16.8" y1="0.0" x2="16.8" y2="11.0" />
<line x1="17.7" y1="0.0" x2="17.7" y2="10.0" />
<line x1="18.6" y1="0.0" x2="18.6" y2="14.0" />
<line x1="19.5" y1="0.0" x2="19.5" y2="15.0" />
<line x1="20.4" y1="0.0" x2="20.4" y2="13.0" />
<line x1="21.3" y1="0.0" x2="21.3" y2="12.0" />
<line x1="22.2" y1="0.0" x2="22.2" y2="4.0" />
<line x1="23.0" y1="0.0" x2="23.0" y2="5.0" />
<line x1="23.9" y1="0.0" x2="23.9" y2="7.0" />
<line x1="24.8" y1="0.0" x2="24.8" y2="6.0" />
<line x1="25.7" y1="0.0" x2="25.7" y2="2.0" />
<line x1="26.6" y1="0.0" x2="26.6" y2="3.0" />
<line x1="27.5" y1="0.0" x2="27.5" y2="1.0" />

<line x1="29.3" y1="0.0" x2="29.3" y2="16.0" />
<line x1="30.1" y1="0.0" x2="30.1" y2="17.0" />
<line x1="31.0" y1="0.0" x2="31.0" y2="19.0" />
<line x1="31.9" y1="0.0" x2="31.9" y2="18.0" />
<line x1="32.8" y1="0.0" x2="32.8" y2="22.0" />
<line x1="33.7" y1="0.0" x2="33.7" y2="23.0" />
<line x1="34.6" y1="0.0" x2="34.6" y2="21.0" />
<line x1="35.5" y1="0.0" x2="35.5" y2="20.0" />
<line x1="36.3" y1="0.0" x2="36.3" y2="28.0" />
<line x1="37.2" y1="0.0" x2="37.2" y2="29.0" />
<line x1="38.1" y1="0.0" x2="38.1" y2="31.0" />
<line x1="39.0" y1="0.0" x2="39.0" y2="30.0" />
<line x1="39.9" y1="0.0" x2="39.9" y2="26.0" />
<line x1="40.8" y1="0.0" x2="40.8" y2="27.0" />
<line x1="41.7" y1="0.0" x2="41.7" y2="25.0" />
<line x1="42.5" y1="0.0" x2="42.5" y2="24.0" />
<line x1="43.4" y1="0.0" x2="43.4" y2="8.0" />
<line x1="44.3" y1="0.0" x2="44.3" y2="9.0" />
<line x1="45.2" y1="0.0" x2="45.2" y2="11.0" />
<line x1="46.1" y1="0.0" x2="46.1" y2="10.0" />
<line x1="47.0" y1="0.0" x2="47.0" y2="14.0" />
<line x1="47.9" y1="0.0" x2="47.9" y2="15.0" />
<line x1="48.8" y1="0.0" x2="48.8" y2="13.0" />
<line x1="49.6" y1="0.0" x2="49.6" y2="12.0" />
<line x1="50.5" y1="0.0" x2="50.5" y2="4.0" />
<line x1="51.4" y1="0.0" x2="51.4" y2="5.0" />
<line x1="52.3" y1="0.0" x2="52.3" y2="7.0" />
<line x1="53.2" y1="0.0" x2="53.2" y2="6.0" />
<line x1="54.1" y1="0.0" x2="54.1" y2="2.0" />
<line x1="55.0" y1="0.0" x2="55.0" y2="3.0" />
<line x1="55.8" y1="0.0" x2="55.8" y2="1.0" />

<line x1="57.6" y1="0.0" x2="57.6" y2="32.0" />
<line x1="58.5" y1="0.0" x2="58.5" y2="33.0" />
<line x1="59.4" y1="0.0" x2="59.4" y2="35.0" />
<line x1="60.3" y1="0.0" x2="60.3" y2="34.0" />
<line x1="61.2" y1="0.0" x2="61.2" y2="38.0" />
<line x1="62.0" y1="0.0" x2="62.0" y2="39.0" />
<line x1="62.9" y1="0.0" x2="62.9" y2="37.0" />
<line x1="63.8" y1="0.0" x2="63.8" y2="36.0" />
<line x1="64.7" y1="0.0" x2="64.7" y2="44.0" />
<line x1="65.6" y1="0.0" x2="65.6" y2="45.0" />
<line x1="66.5" y1="0.0" x2="66.5" y2="47.0" />
<line x1="67.4" y1="0.0" x2="67.4" y2="46.0" />
<line x1="68.3" y1="0.0" x2="68.3" y2="42.0" />
<line x1="69.1" y1="0.0" x2="69.1" y2="43.0" />
<line x1="70.0" y1="0.0" x2="70.0" y2="41.0" />
<line x1="70.9" y1="0.0" x2="70.9" y2="40.0" />
<line x1="71.8" y1="0.0" x2="71.8" y2="56.0" />
<line x1="72.7" y1="0.0" x2="72.7" y2="57.0" />
<line x1="73.6" y1="0.0" x2="73.6" y2="59.0" />
<line x1="74.5" y1="0.0" x2="74.5" y2="58.0" />
<line x1="75.3" y1="0.0" x2="75.3" y2="62.0" />
<line x1="76.2" y1="0.0" x2="76.2" y2="63.0" />
<line x1="77.1" y1="0.0" x2="77.1" y2="61.0" />
<line x1="78.0" y1="0.0" x2="78.0" y2="60.0" />
<line x1="78.9" y1="0.0" x2="78.9" y2="52.0" />
<line x1="79.8" y1="0.0" x2="79.8" y2="53.0" />
<line x1="80.7" y1="0.0" x2="80.7" y2="55.0" />
<line x1="81.5" y1="0.0" x2="81.5" y2="54.0" />
<line x1="82.4" y1="0.0" x2="82.4" y2="50.0" />
<line x1="83.3" y1="0.0" x2="83.3" y2="51.0" />
<line x1="84.2" y1="0.0" x2="84.2" y2="49.0" />
<line x1="85.1" y1="0.0" x2="85.1" y2="48.0" />
<line x1="86.0" y1="0.0" x2="86.0" y2="16.0" />
<line x1="86.9" y1="0.0" x2="86.9" y2="17.0" />
<line x1="87.8" y1="0.0" x2="87.8" y2="19.0" />
<line x1="88.6" y1="0.0" x2="88.6" y2="18.0" />
<line x1="89.5" y1="0.0" x2="89.5" y2="22.0" />
<line x1="90.4" y1="0.0" x2="90.4" y2="23.0" />
<line x1="91.3" y1="0.0" x2="91.3" y2="21.0" />
<line x1="92.2" y1="0.0" x2="92.2" y2="20.0" />
<line x1="93.1" y1="0.0" x2="93.1" y2="28.0" />
<line x1="94.0" y1="0.0" x2="94.0" y2="29.0" />
<line x1="94.8" y1="0.0" x2="94.8" y2="31.0" />
<line x1="95.7" y1="0.0" x2="95.7" y2="30.0" />
<line x1="96.6" y1="0.0" x2="96.6" y2="26.0" />
<line x1="97.5" y1="0.0" x2="97.5" y2="27.0" />
<line x1="98.4" y1="0.0" x2="98.4" y2="25.0" />
<line x1="99.3" y1="0.0" x2="99.3" y2="24.0" />
<line x1="100.2" y1="0.0" x2="100.2" y2="8.0" />
<line x1="101.0" y1="0.0" x2="101.0" y2="9.0" />
<line x1="101.9" y1="0.0" x2="101.9" y2="11.0" />
<line x1="102.8" y1="0.0" x2="102.8" y2="10.0" />
</g>
</svg>