<svg xmlns="http://www.w3.org/2000/svg" width="161.8" height="100.0" viewBox="-2.84 0.00 171.80 110.00">
<g fill="none" stroke="black" stroke-width="0.1000%" transform="translate(0, 110.0000) scale(5.0000, -5.0000)">
<polyline points="0.43,1.00 0.86,1.00 0.86,2.00 1.29,2.00 1.29,1.00 1.73,1.00 1.73,3.00 2.16,3.00 2.16,2.00 2.59,2.00 2.59,4.00 3.02,4.00 3.02,1.00 3.45,1.00 3.45,2.00 3.88,2.00 3.88,3.00 4.31,3.00 4.31,5.00 4.75,5.00 4.75,2.00 5.18,2.00 5.18,6.00 5.61,6.00 5.61,4.00 6.04,4.00 6.04,3.00 6.47,3.00 6.47,1.00 6.90,1.00 6.90,7.00 7.34,7.00 7.34,2.00 7.77,2.00 7.77,8.00 8.20,8.00 8.20,3.00 8.63,3.00 8.63,4.00 9.06,4.00 9.06,5.00 9.49,5.00 9.49,9.00 9.92,9.00 9.92,2.00 10.36,2.00 10.36,3.00 10.79,3.00 10.79,6.00 11.22,6.00 11.22,2.00 11.65,2.00 11.65,4.00 12.08,4.00 12.08,10.00 12.51,10.00 12.51,3.00 12.94,3.00 12.94,11.00 13.38,11.00 13.38,1.00 13.81,1.00 13.81,5.00 14.24,5.00 14.24,7.00 14.67,7.00 14.67,4.00 15.10,4.00 15.10,2.00 15.53,2.00 15.53,12.00 15.96,12.00 15.96,8.00 16.40,8.00 16.40,6.00 16.83,6.00 16.83,3.00 17.26,3.00 17.26,13.00 17.69,13.00 17.69,4.00 18.12,4.00 18.12,14.00 18.55,14.00 18.55,5.00 18.98,5.00 18.98,3.00 19.42,3.00 19.42,9.00 19.85,9.00 19.85,15.00 20.28,15.00 20.28,2.00 20.71,2.00 20.71,4.00 21.14,4.00 21.14,3.00 21.57,3.00 21.57,7.00 22.01,7.00 22.01,6.00 22.44,6.00 22.44,16.00 22.87,16.00 22.87,2.00 23.30,2.00 23.30,5.00 23.73,5.00 23.73,4.00 24.16,4.00 24.16,8.00 24.59,8.00 24.59,10.00 25.03,10.00 25.03,17.00 25.46,17.00 25.46,3.00 25.89,3.00 25.89,18.00 26.32,18.00 26.32,11.00 26.75,11.00 26.75,4.00 27.18,4.00 27.18,1.00 27.61,1.00 27.61,6.00 28.05,6.00 28.05,5.00 28.48,5.00 28.48,19.00 28.91,19.00 28.91,7.00 29.34,7.00 29.34,9.00 29.77,9.00 29.77,4.00 30.20,4.00 30.20,20.00 30.63,20.00 30.63,2.00 31.07,2.00 31.07,21.00 31.50,21.00 31.50,12.00 31.93,12.00 31.93,3.00 32.36,3.00 32.36,8.00 32.79,8.00" />
</g>
</svg>