<svg xmlns="http://www.w3.org/2000/svg" width="161.8" height="100.0" viewBox="-3.9 -4.2 171.8 110.0">
<g fill="none" stroke="black" stroke-width="0.4159%" transform="translate(0, 101.6667) scale(1.2022, -1.2022)">
<circle cx="0.9" cy="0.7" r="0.4" />
<circle cx="1.8" cy="1.1" r="0.4" />
<circle cx="2.7" cy="1.4" r="0.4" />
<circle cx="3.6" cy="1.6" r="0.4" />
<circle cx="4.5" cy="2.2" r="0.4" />
<circle cx="5.5" cy="1.9" r="0.4" />
<circle cx="6.4" cy="3.5" r="0.4" />
<circle cx="7.3" cy="3.3" r="0.4" />
<circle cx="8.2" cy="3.2" r="0.4" />
<circle cx="9.1" cy="2.4" r="0.4" />
<circle cx="10.0" cy="5.5" r="0.4" />
<circle cx="10.9" cy="2.6" r="0.4" />
<circle cx="11.8" cy="3.9" r="0.4" />
<circle cx="12.7" cy="4.8" r="0.4" />
<circle cx="13.6" cy="8.3" r="0.4" />
<circle cx="14.5" cy="2.8" r="0.4" />
<circle cx="15.5" cy="7.7" r="0.4" />
<circle cx="16.4" cy="2.9" r="0.4" />
<circle cx="17.3" cy="6.4" r="0.4" />
<circle cx="18.2" cy="5.8" r="0.4" />
<circle cx="19.1" cy="4.8" r="0.4" />
<circle cx="20.0" cy="3.1" r="0.4" />
<circle cx="20.9" cy="11.0" r="0.4" />
<circle cx="21.8" cy="8.0" r="0.4" />
<circle cx="22.7" cy="5.1" r="0.4" />
<circle cx="23.6" cy="12.1" r="0.4" />
<circle cx="24.6" cy="7.8" r="0.4" />
<circle cx="25.5" cy="3.4" r="0.4" />
<circle cx="26.4" cy="11.3" r="0.4" />
<circle cx="27.3" cy="3.4" r="0.4" />
<circle cx="28.2" cy="18.7" r="0.4" />
<circle cx="29.1" cy="7.2" r="0.4" />
<circle cx="30.0" cy="5.7" r="0.4" />
<circle cx="30.9" cy="9.7" r="0.4" />
<circle cx="31.8" cy="17.6" r="0.4" />
<circle cx="32.7" cy="3.6" r="0.4" />
<circle cx="33.6" cy="5.9" r="0.4" />
<circle cx="34.6" cy="7.7" r="0.4" />
<circle cx="35.5" cy="14.5" r="0.4" />
<circle cx="36.4" cy="3.7" r="0.4" />
<circle cx="37.3" cy="11.7" r="0.4" />
<circle cx="38.2" cy="3.8" r="0.4" />
<circle cx="39.1" cy="9.6" r="0.4" />
<circle cx="40.0" cy="16.1" r="0.4" />
<circle cx="40.9" cy="6.3" r="0.4" />
<circle cx="41.8" cy="3.9" r="0.4" />
<circle cx="42.7" cy="24.2" r="0.4" />
<circle cx="43.6" cy="13.6" r="0.4" />
<circle cx="44.6" cy="17.7" r="0.4" />
<circle cx="45.5" cy="8.5" r="0.4" />
<circle cx="46.4" cy="10.3" r="0.4" />
<circle cx="47.3" cy="4.0" r="0.4" />
<circle cx="48.2" cy="26.4" r="0.4" />
<circle cx="49.1" cy="12.0" r="0.4" />
<circle cx="50.0" cy="17.5" r="0.4" />
<circle cx="50.9" cy="8.8" r="0.4" />
<circle cx="51.8" cy="6.7" r="0.4" />
<circle cx="52.7" cy="4.1" r="0.4" />
<circle cx="53.7" cy="22.5" r="0.4" />
<circle cx="54.6" cy="4.1" r="0.4" />
<circle cx="55.5" cy="6.9" r="0.4" />
<circle cx="56.4" cy="19.5" r="0.4" />
<circle cx="57.3" cy="40.2" r="0.4" />
<circle cx="58.2" cy="12.8" r="0.4" />
<circle cx="59.1" cy="14.4" r="0.4" />
<circle cx="60.0" cy="4.2" r="0.4" />
<circle cx="60.9" cy="11.3" r="0.4" />
<circle cx="61.8" cy="9.4" r="0.4" />
<circle cx="62.7" cy="21.4" r="0.4" />
<circle cx="63.7" cy="4.3" r="0.4" />
<circle cx="64.6" cy="36.3" r="0.4" />
<circle cx="65.5" cy="4.3" r="0.4" />
<circle cx="66.4" cy="7.2" r="0.4" />
<circle cx="67.3" cy="27.4" r="0.4" />
<circle cx="68.2" cy="11.8" r="0.4" />
<circle cx="69.1" cy="16.8" r="0.4" />
<circle cx="70.0" cy="15.4" r="0.4" />
<circle cx="70.9" cy="4.4" r="0.4" />
<circle cx="71.8" cy="30.6" r="0.4" />
<circle cx="72.7" cy="40.6" r="0.4" />
<circle cx="73.7" cy="7.4" r="0.4" />
<circle cx="74.6" cy="4.4" r="0.4" />
<circle cx="75.5" cy="25.3" r="0.4" />
<circle cx="76.4" cy="14.2" r="0.4" />
<circle cx="77.3" cy="7.5" r="0.4" />
<circle cx="78.2" cy="10.1" r="0.4" />
<circle cx="79.1" cy="19.2" r="0.4" />
<circle cx="80.0" cy="4.5" r="0.4" />
<circle cx="80.9" cy="33.8" r="0.4" />
<circle cx="81.8" cy="18.0" r="0.4" />
<circle cx="82.8" cy="12.5" r="0.4" />
<circle cx="83.7" cy="10.3" r="0.4" />
<circle cx="84.6" cy="7.7" r="0.4" />
<circle cx="85.5" cy="14.7" r="0.4" />
<circle cx="86.4" cy="50.5" r="0.4" />
<circle cx="87.3" cy="4.6" r="0.4" />
<circle cx="88.2" cy="29.2" r="0.4" />
<circle cx="89.1" cy="21.6" r="0.4" />
<circle cx="90.0" cy="37.0" r="0.4" />
<circle cx="90.9" cy="4.6" r="0.4" />
<circle cx="91.8" cy="17.0" r="0.4" />
<circle cx="92.8" cy="4.6" r="0.4" />
<circle cx="93.7" cy="20.5" r="0.4" />
<circle cx="94.6" cy="33.1" r="0.4" />
<circle cx="95.5" cy="7.9" r="0.4" />
<circle cx="96.4" cy="4.7" r="0.4" />
<circle cx="97.3" cy="56.0" r="0.4" />
<circle cx="98.2" cy="4.7" r="0.4" />
<circle cx="99.1" cy="24.0" r="0.4" />
<circle cx="100.0" cy="10.8" r="0.4" />
<circle cx="100.9" cy="35.0" r="0.4" />
<circle cx="101.8" cy="4.7" r="0.4" />
<circle cx="102.8" cy="17.7" r="0.4" />
<circle cx="103.7" cy="15.7" r="0.4" />
<circle cx="104.6" cy="13.5" r="0.4" />
<circle cx="105.5" cy="23.1" r="0.4" />
<circle cx="106.4" cy="8.2" r="0.4" />
<circle cx="107.3" cy="19.8" r="0.4" />
<circle cx="108.2" cy="45.1" r="0.4" />
<circle cx="109.1" cy="26.4" r="0.4" />
<circle cx="110.0" cy="8.2" r="0.4" />
<circle cx="110.9" cy="11.1" r="0.4" />
<circle cx="111.9" cy="13.7" r="0.4" />
<circle cx="112.8" cy="46.7" r="0.4" />
<circle cx="113.7" cy="38.9" r="0.4" />
<circle cx="114.6" cy="4.8" r="0.4" />
<circle cx="115.5" cy="83.9" r="0.4" />
<circle cx="116.4" cy="11.3" r="0.4" />
<circle cx="117.3" cy="25.6" r="0.4" />
<circle cx="118.2" cy="4.9" r="0.4" />
<circle cx="119.1" cy="31.2" r="0.4" />
<circle cx="120.0" cy="20.6" r="0.4" />
<circle cx="120.9" cy="8.4" r="0.4" />
<circle cx="121.9" cy="53.1" r="0.4" />
<circle cx="122.8" cy="22.7" r="0.4" />
<circle cx="123.7" cy="4.9" r="0.4" />
<circle cx="124.6" cy="18.8" r="0.4" />
<circle cx="125.5" cy="4.9" r="0.4" />
<circle cx="126.4" cy="42.8" r="0.4" />
<circle cx="127.3" cy="11.6" r="0.4" />
<circle cx="128.2" cy="8.5" r="0.4" />
<circle cx="129.1" cy="28.2" r="0.4" />
<circle cx="130.0" cy="75.8" r="0.4" />
<circle cx="130.9" cy="16.8" r="0.4" />
<circle cx="131.9" cy="8.6" r="0.4" />
<circle cx="132.8" cy="44.8" r="0.4" />
<circle cx="133.7" cy="14.4" r="0.4" />
<circle cx="134.6" cy="5.0" r="0.4" />
<circle cx="135.5" cy="57.9" r="0.4" />
</g>
</svg>