<svg xmlns="http://www.w3.org/2000/svg" width="161.8" height="100.0" viewBox="-85.902 -55.000 171.803 110.000">
<g fill="none" stroke="black" stroke-width="0.0157%" transform="translate(0, 0.0000) scale(31.8328, -31.8328)">
<circle cx="-2.541" cy="0.000" r="0.016" />
<circle cx="0.000" cy="1.571" r="0.016" />
<polyline points="-2.541,-1.571 -2.491,-1.571 -2.440,-1.571 -2.389,-1.571 -2.338,-1.571 -2.287,-1.571 -2.236,-1.570 -2.186,-1.570 -2.135,-1.570 -2.084,-1.570 -2.033,-1.570 -1.982,-1.570 -1.932,-1.570 -1.881,-1.570 -1.830,-1.569 -1.779,-1.569 -1.728,-1.569 -1.677,-1.568 -1.627,-1.567 -1.576,-1.567 -1.525,-1.566 -1.474,-1.565 -1.423,-1.563 -1.372,-1.562 -1.322,-1.560 -1.271,-1.557 -1.220,-1.554 -1.169,-1.551 -1.118,-1.546 -1.067,-1.541 -1.017,-1.534 -0.966,-1.526 -0.915,-1.516 -0.864,-1.504 -0.813,-1.489 -0.762,-1.471 -0.712,-1.449 -0.661,-1.423 -0.610,-1.390 -0.559,-1.350 -0.508,-1.302 -0.457,-1.243 -0.407,-1.172 -0.356,-1.087 -0.305,-0.986 -0.254,-0.866 -0.203,-0.726 -0.152,-0.567 -0.102,-0.390 -0.051,-0.199 -0.000,-0.000 0.051,0.199 0.102,0.390 0.152,0.567 0.203,0.726 0.254,0.866 0.305,0.986 0.356,1.087 0.407,1.172 0.457,1.243 0.508,1.302 0.559,1.350 0.610,1.390 0.661,1.423 0.712,1.449 0.762,1.471 0.813,1.489 0.864,1.504 0.915,1.516 0.966,1.526 1.017,1.534 1.067,1.541 1.118,1.546 1.169,1.551 1.220,1.554 1.271,1.557 1.322,1.560 1.372,1.562 1.423,1.563 1.474,1.565 1.525,1.566 1.576,1.567 1.627,1.567 1.677,1.568 1.728,1.569 1.779,1.569 1.830,1.569 1.881,1.570 1.932,1.570 1.982,1.570 2.033,1.570 2.084,1.570 2.135,1.570 2.186,1.570 2.236,1.570 2.287,1.571 2.338,1.571 2.389,1.571 2.440,1.571 2.491,1.571 2.541,1.571" />
</g>
</svg>