<svg xmlns="http://www.w3.org/2000/svg" width="161.8" height="100.0" viewBox="-4.32 -1.55 171.80 110.00">
<g fill="none" stroke="black" stroke-width="0.1450%" transform="translate(0, 106.8966) scale(3.4483, -3.4483)">
<circle cx="0.20" cy="2.00" r="0.15" />
<circle cx="0.39" cy="1.00" r="0.15" />
<circle cx="0.59" cy="3.00" r="0.15" />
<circle cx="0.79" cy="2.00" r="0.15" />
<circle cx="0.98" cy="4.00" r="0.15" />
<circle cx="1.18" cy="1.00" r="0.15" />
<circle cx="1.37" cy="1.00" r="0.15" />
<circle cx="1.57" cy="3.00" r="0.15" />
<circle cx="1.77" cy="5.00" r="0.15" />
<circle cx="1.96" cy="2.00" r="0.15" />
<circle cx="2.16" cy="6.00" r="0.15" />
<circle cx="2.36" cy="4.00" r="0.15" />
<circle cx="2.55" cy="6.00" r="0.15" />
<circle cx="2.75" cy="1.00" r="0.15" />
<circle cx="2.94" cy="4.00" r="0.15" />
<circle cx="3.14" cy="3.00" r="0.15" />
<circle cx="3.34" cy="7.00" r="0.15" />
<circle cx="3.53" cy="5.00" r="0.15" />
<circle cx="3.73" cy="8.00" r="0.15" />
<circle cx="3.93" cy="2.00" r="0.15" />
<circle cx="4.12" cy="5.00" r="0.15" />
<circle cx="4.32" cy="6.00" r="0.15" />
<circle cx="4.52" cy="8.00" r="0.15" />
<circle cx="4.71" cy="1.00" r="0.15" />
<circle cx="4.91" cy="2.00" r="0.15" />
<circle cx="5.10" cy="4.00" r="0.15" />
<circle cx="5.30" cy="9.00" r="0.15" />
<circle cx="5.50" cy="3.00" r="0.15" />
<circle cx="5.69" cy="10.00" r="0.15" />
<circle cx="5.89" cy="7.00" r="0.15" />
<circle cx="6.09" cy="9.00" r="0.15" />
<circle cx="6.28" cy="5.00" r="0.15" />
<circle cx="6.48" cy="3.00" r="0.15" />
<circle cx="6.68" cy="6.00" r="0.15" />
<circle cx="6.87" cy="10.00" r="0.15" />
<circle cx="7.07" cy="8.00" r="0.15" />
<circle cx="7.26" cy="7.00" r="0.15" />
<circle cx="7.46" cy="1.00" r="0.15" />
<circle cx="7.66" cy="11.00" r="0.15" />
<circle cx="7.85" cy="2.00" r="0.15" />
<circle cx="8.05" cy="12.00" r="0.15" />
<circle cx="8.25" cy="4.00" r="0.15" />
<circle cx="8.44" cy="1.00" r="0.15" />
<circle cx="8.64" cy="9.00" r="0.15" />
<circle cx="8.83" cy="11.00" r="0.15" />
<circle cx="9.03" cy="5.00" r="0.15" />
<circle cx="9.23" cy="2.00" r="0.15" />
<circle cx="9.42" cy="3.00" r="0.15" />
<circle cx="9.62" cy="12.00" r="0.15" />
<circle cx="9.82" cy="6.00" r="0.15" />
<circle cx="10.01" cy="4.00" r="0.15" />
<circle cx="10.21" cy="10.00" r="0.15" />
<circle cx="10.41" cy="13.00" r="0.15" />
<circle cx="10.60" cy="8.00" r="0.15" />
<circle cx="10.80" cy="14.00" r="0.15" />
<circle cx="10.99" cy="7.00" r="0.15" />
<circle cx="11.19" cy="4.00" r="0.15" />
<circle cx="11.39" cy="1.00" r="0.15" />
<circle cx="11.58" cy="10.00" r="0.15" />
<circle cx="11.78" cy="9.00" r="0.15" />
<circle cx="11.98" cy="13.00" r="0.15" />
<circle cx="12.17" cy="11.00" r="0.15" />
<circle cx="12.37" cy="8.00" r="0.15" />
<circle cx="12.57" cy="5.00" r="0.15" />
<circle cx="12.76" cy="14.00" r="0.15" />
<circle cx="12.96" cy="2.00" r="0.15" />
<circle cx="13.15" cy="7.00" r="0.15" />
<circle cx="13.35" cy="3.00" r="0.15" />
<circle cx="13.55" cy="15.00" r="0.15" />
<circle cx="13.74" cy="12.00" r="0.15" />
<circle cx="13.94" cy="16.00" r="0.15" />
<circle cx="14.14" cy="6.00" r="0.15" />
<circle cx="14.33" cy="2.00" r="0.15" />
<circle cx="14.53" cy="4.00" r="0.15" />
<circle cx="14.72" cy="7.00" r="0.15" />
<circle cx="14.92" cy="1.00" r="0.15" />
<circle cx="15.12" cy="3.00" r="0.15" />
<circle cx="15.31" cy="10.00" r="0.15" />
<circle cx="15.51" cy="15.00" r="0.15" />
<circle cx="15.71" cy="9.00" r="0.15" />
<circle cx="15.90" cy="12.00" r="0.15" />
<circle cx="16.10" cy="13.00" r="0.15" />
<circle cx="16.30" cy="16.00" r="0.15" />
<circle cx="16.49" cy="11.00" r="0.15" />
<circle cx="16.69" cy="6.00" r="0.15" />
<circle cx="16.88" cy="8.00" r="0.15" />
<circle cx="17.08" cy="17.00" r="0.15" />
<circle cx="17.28" cy="5.00" r="0.15" />
<circle cx="17.47" cy="18.00" r="0.15" />
<circle cx="17.67" cy="14.00" r="0.15" />
<circle cx="17.87" cy="16.00" r="0.15" />
<circle cx="18.06" cy="2.00" r="0.15" />
<circle cx="18.26" cy="11.00" r="0.15" />
<circle cx="18.46" cy="4.00" r="0.15" />
<circle cx="18.65" cy="6.00" r="0.15" />
<circle cx="18.85" cy="7.00" r="0.15" />
<circle cx="19.04" cy="8.00" r="0.15" />
<circle cx="19.24" cy="1.00" r="0.15" />
<circle cx="19.44" cy="17.00" r="0.15" />
<circle cx="19.63" cy="3.00" r="0.15" />
<circle cx="19.83" cy="5.00" r="0.15" />
<circle cx="20.03" cy="10.00" r="0.15" />
<circle cx="20.22" cy="18.00" r="0.15" />
<circle cx="20.42" cy="15.00" r="0.15" />
<circle cx="20.61" cy="14.00" r="0.15" />
<circle cx="20.81" cy="9.00" r="0.15" />
<circle cx="21.01" cy="19.00" r="0.15" />
<circle cx="21.20" cy="12.00" r="0.15" />
<circle cx="21.40" cy="20.00" r="0.15" />
<circle cx="21.60" cy="13.00" r="0.15" />
<circle cx="21.79" cy="10.00" r="0.15" />
<circle cx="21.99" cy="16.00" r="0.15" />
<circle cx="22.19" cy="18.00" r="0.15" />
<circle cx="22.38" cy="2.00" r="0.15" />
<circle cx="22.58" cy="15.00" r="0.15" />
<circle cx="22.77" cy="11.00" r="0.15" />
<circle cx="22.97" cy="14.00" r="0.15" />
<circle cx="23.17" cy="4.00" r="0.15" />
<circle cx="23.36" cy="9.00" r="0.15" />
<circle cx="23.56" cy="6.00" r="0.15" />
<circle cx="23.76" cy="19.00" r="0.15" />
<circle cx="23.95" cy="7.00" r="0.15" />
<circle cx="24.15" cy="12.00" r="0.15" />
<circle cx="24.34" cy="8.00" r="0.15" />
<circle cx="24.54" cy="20.00" r="0.15" />
<circle cx="24.74" cy="1.00" r="0.15" />
<circle cx="24.93" cy="13.00" r="0.15" />
<circle cx="25.13" cy="17.00" r="0.15" />
<circle cx="25.33" cy="21.00" r="0.15" />
<circle cx="25.52" cy="3.00" r="0.15" />
<circle cx="25.72" cy="22.00" r="0.15" />
<circle cx="25.92" cy="5.00" r="0.15" />
<circle cx="26.11" cy="12.00" r="0.15" />
<circle cx="26.31" cy="10.00" r="0.15" />
<circle cx="26.50" cy="8.00" r="0.15" />
<circle cx="26.70" cy="16.00" r="0.15" />
<circle cx="26.90" cy="20.00" r="0.15" />
<circle cx="27.09" cy="18.00" r="0.15" />
<circle cx="27.29" cy="1.00" r="0.15" />
<circle cx="27.49" cy="2.00" r="0.15" />
<circle cx="27.68" cy="13.00" r="0.15" />
<circle cx="27.88" cy="15.00" r="0.15" />
<circle cx="28.08" cy="17.00" r="0.15" />
<circle cx="28.27" cy="11.00" r="0.15" />
<circle cx="28.47" cy="21.00" r="0.15" />
<circle cx="28.66" cy="14.00" r="0.15" />
<circle cx="28.86" cy="3.00" r="0.15" />
<circle cx="29.06" cy="4.00" r="0.15" />
<circle cx="29.25" cy="22.00" r="0.15" />
<circle cx="29.45" cy="9.00" r="0.15" />
<circle cx="29.65" cy="5.00" r="0.15" />
<circle cx="29.84" cy="6.00" r="0.15" />
<circle cx="30.04" cy="23.00" r="0.15" />
<circle cx="30.23" cy="19.00" r="0.15" />
<circle cx="30.43" cy="24.00" r="0.15" />
<circle cx="30.63" cy="7.00" r="0.15" />
<circle cx="30.82" cy="14.00" r="0.15" />
<circle cx="31.02" cy="12.00" r="0.15" />
<circle cx="31.22" cy="3.00" r="0.15" />
<circle cx="31.41" cy="10.00" r="0.15" />
<circle cx="31.61" cy="4.00" r="0.15" />
<circle cx="31.81" cy="8.00" r="0.15" />
<circle cx="32.00" cy="22.00" r="0.15" />
<circle cx="32.20" cy="16.00" r="0.15" />
<circle cx="32.39" cy="9.00" r="0.15" />
<circle cx="32.59" cy="20.00" r="0.15" />
<circle cx="32.79" cy="5.00" r="0.15" />
<circle cx="32.98" cy="18.00" r="0.15" />
<circle cx="33.18" cy="6.00" r="0.15" />
<circle cx="33.38" cy="1.00" r="0.15" />
<circle cx="33.57" cy="23.00" r="0.15" />
<circle cx="33.77" cy="2.00" r="0.15" />
<circle cx="33.97" cy="19.00" r="0.15" />
<circle cx="34.16" cy="13.00" r="0.15" />
<circle cx="34.36" cy="24.00" r="0.15" />
<circle cx="34.55" cy="15.00" r="0.15" />
<circle cx="34.75" cy="7.00" r="0.15" />
<circle cx="34.95" cy="17.00" r="0.15" />
<circle cx="35.14" cy="25.00" r="0.15" />
<circle cx="35.34" cy="11.00" r="0.15" />
<circle cx="35.54" cy="26.00" r="0.15" />
<circle cx="35.73" cy="21.00" r="0.15" />
<circle cx="35.93" cy="23.00" r="0.15" />
<circle cx="36.12" cy="14.00" r="0.15" />
<circle cx="36.32" cy="2.00" r="0.15" />
<circle cx="36.52" cy="12.00" r="0.15" />
<circle cx="36.71" cy="19.00" r="0.15" />
<circle cx="36.91" cy="3.00" r="0.15" />
<circle cx="37.11" cy="13.00" r="0.15" />
<circle cx="37.30" cy="10.00" r="0.15" />
<circle cx="37.50" cy="24.00" r="0.15" />
<circle cx="37.70" cy="4.00" r="0.15" />
<circle cx="37.89" cy="15.00" r="0.15" />
<circle cx="38.09" cy="8.00" r="0.15" />
<circle cx="38.28" cy="7.00" r="0.15" />
<circle cx="38.48" cy="22.00" r="0.15" />
<circle cx="38.68" cy="17.00" r="0.15" />
<circle cx="38.87" cy="16.00" r="0.15" />
<circle cx="39.07" cy="25.00" r="0.15" />
<circle cx="39.27" cy="9.00" r="0.15" />
<circle cx="39.46" cy="11.00" r="0.15" />
<circle cx="39.66" cy="20.00" r="0.15" />
<circle cx="39.86" cy="26.00" r="0.15" />
<circle cx="40.05" cy="5.00" r="0.15" />
<circle cx="40.25" cy="21.00" r="0.15" />
<circle cx="40.44" cy="18.00" r="0.15" />
<circle cx="40.64" cy="27.00" r="0.15" />
<circle cx="40.84" cy="6.00" r="0.15" />
<circle cx="41.03" cy="28.00" r="0.15" />
<circle cx="41.23" cy="1.00" r="0.15" />
<circle cx="41.43" cy="16.00" r="0.15" />
<circle cx="41.62" cy="23.00" r="0.15" />
<circle cx="41.82" cy="25.00" r="0.15" />
<circle cx="42.01" cy="14.00" r="0.15" />
<circle cx="42.21" cy="9.00" r="0.15" />
<circle cx="42.41" cy="2.00" r="0.15" />
<circle cx="42.60" cy="11.00" r="0.15" />
<circle cx="42.80" cy="12.00" r="0.15" />
<circle cx="43.00" cy="20.00" r="0.15" />
<circle cx="43.19" cy="19.00" r="0.15" />
<circle cx="43.39" cy="26.00" r="0.15" />
<circle cx="43.59" cy="3.00" r="0.15" />
<circle cx="43.78" cy="5.00" r="0.15" />
<circle cx="43.98" cy="13.00" r="0.15" />
<circle cx="44.17" cy="21.00" r="0.15" />
<circle cx="44.37" cy="10.00" r="0.15" />
<circle cx="44.57" cy="18.00" r="0.15" />
<circle cx="44.76" cy="24.00" r="0.15" />
<circle cx="44.96" cy="27.00" r="0.15" />
<circle cx="45.16" cy="4.00" r="0.15" />
<circle cx="45.35" cy="6.00" r="0.15" />
<circle cx="45.55" cy="15.00" r="0.15" />
<circle cx="45.75" cy="28.00" r="0.15" />
<circle cx="45.94" cy="8.00" r="0.15" />
<circle cx="46.14" cy="1.00" r="0.15" />
<circle cx="46.33" cy="7.00" r="0.15" />
<circle cx="46.53" cy="29.00" r="0.15" />
<circle cx="46.73" cy="22.00" r="0.15" />
<circle cx="46.92" cy="30.00" r="0.15" />
<circle cx="47.12" cy="17.00" r="0.15" />
</g>
</svg>