<svg xmlns="http://www.w3.org/2000/svg" width="161.8" height="100.0" viewBox="-2.472 -55.000 171.803 110.000">
<g fill="none" stroke="black" stroke-width="0.0100%" transform="translate(0, 0.0000) scale(50.0000, -50.0000)">
<line x1="0.051" y1="0.000" x2="0.051" y2="1.000" />
<line x1="0.101" y1="0.000" x2="0.101" y2="-1.000" />
<line x1="0.152" y1="0.000" x2="0.152" y2="1.000" />
<line x1="0.202" y1="0.000" x2="0.202" y2="1.000" />
<line x1="0.253" y1="0.000" x2="0.253" y2="-1.000" />
<line x1="0.303" y1="0.000" x2="0.303" y2="-1.000" />
<line x1="0.354" y1="0.000" x2="0.354" y2="1.000" />
<line x1="0.405" y1="0.000" x2="0.405" y2="-1.000" />
<line x1="0.455" y1="0.000" x2="0.455" y2="1.000" />
<line x1="0.506" y1="0.000" x2="0.506" y2="1.000" />
<line x1="0.556" y1="0.000" x2="0.556" y2="-1.000" />
<line x1="0.607" y1="0.000" x2="0.607" y2="1.000" />
<line x1="0.657" y1="0.000" x2="0.657" y2="-1.000" />
<line x1="0.708" y1="0.000" x2="0.708" y2="-1.000" />
<line x1="0.758" y1="0.000" x2="0.758" y2="1.000" />
<line x1="0.809" y1="0.000" x2="0.809" y2="1.000" />
<line x1="0.860" y1="0.000" x2="0.860" y2="-1.000" />
<line x1="0.910" y1="0.000" x2="0.910" y2="-1.000" />
<line x1="0.961" y1="0.000" x2="0.961" y2="1.000" />
<line x1="1.011" y1="0.000" x2="1.011" y2="-1.000" />
<line x1="1.062" y1="0.000" x2="1.062" y2="1.000" />
<line x1="1.112" y1="0.000" x2="1.112" y2="1.000" />
<line x1="1.163" y1="0.000" x2="1.163" y2="-1.000" />
<line x1="1.214" y1="0.000" x2="1.214" y2="-1.000" />
<line x1="1.264" y1="0.000" x2="1.264" y2="1.000" />
<line x1="1.315" y1="0.000" x2="1.315" y2="1.000" />
<line x1="1.365" y1="0.000" x2="1.365" y2="-1.000" />
<line x1="1.416" y1="0.000" x2="1.416" y2="1.000" />
<line x1="1.466" y1="0.000" x2="1.466" y2="-1.000" />
<line x1="1.517" y1="0.000" x2="1.517" y2="-1.000" />
<line x1="1.567" y1="0.000" x2="1.567" y2="1.000" />
<line x1="1.618" y1="0.000" x2="1.618" y2="-1.000" />
<line x1="1.669" y1="0.000" x2="1.669" y2="1.000" />
<line x1="1.719" y1="0.000" x2="1.719" y2="1.000" />
<line x1="1.770" y1="0.000" x2="1.770" y2="-1.000" />
<line x1="1.820" y1="0.000" x2="1.820" y2="1.000" />
<line x1="1.871" y1="0.000" x2="1.871" y2="-1.000" />
<line x1="1.921" y1="0.000" x2="1.921" y2="-1.000" />
<line x1="1.972" y1="0.000" x2="1.972" y2="1.000" />
<line x1="2.023" y1="0.000" x2="2.023" y2="1.000" />
<line x1="2.073" y1="0.000" x2="2.073" y2="-1.000" />
<line x1="2.124" y1="0.000" x2="2.124" y2="-1.000" />
<line x1="2.174" y1="0.000" x2="2.174" y2="1.000" />
<line x1="2.225" y1="0.000" x2="2.225" y2="-1.000" />
<line x1="2.275" y1="0.000" x2="2.275" y2="1.000" />
<line x1="2.326" y1="0.000" x2="2.326" y2="1.000" />
<line x1="2.376" y1="0.000" x2="2.376" y2="-1.000" />
<line x1="2.427" y1="0.000" x2="2.427" y2="1.000" />
<line x1="2.478" y1="0.000" x2="2.478" y2="-1.000" />
<line x1="2.528" y1="0.000" x2="2.528" y2="-1.000" />
<line x1="2.579" y1="0.000" x2="2.579" y2="1.000" />
<line x1="2.629" y1="0.000" x2="2.629" y2="-1.000" />
<line x1="2.680" y1="0.000" x2="2.680" y2="1.000" />
<line x1="2.730" y1="0.000" x2="2.730" y2="1.000" />
<line x1="2.781" y1="0.000" x2="2.781" y2="-1.000" />
<line x1="2.832" y1="0.000" x2="2.832" y2="-1.000" />
<line x1="2.882" y1="0.000" x2="2.882" y2="1.000" />
<line x1="2.933" y1="0.000" x2="2.933" y2="1.000" />
<line x1="2.983" y1="0.000" x2="2.983" y2="-1.000" />
<line x1="3.034" y1="0.000" x2="3.034" y2="1.000" />
<line x1="3.084" y1="0.000" x2="3.084" y2="-1.000" />
<line x1="3.135" y1="0.000" x2="3.135" y2="-1.000" />
<line x1="3.186" y1="0.000" x2="3.186" y2="1.000" />
<line x1="3.236" y1="0.000" x2="3.236" y2="1.000" />
<line x1="3.287" y1="0.000" x2="3.287" y2="-1.000" />
</g>
</svg>