<svg xmlns="http://www.w3.org/2000/svg" width="161.8" height="100.0" viewBox="-3.20 -5.00 171.80 110.00">
<g fill="none" stroke="black" stroke-width="0.0200%" transform="translate(0, 100.0000) scale(25.0000, -25.0000)">


<line x1="0.22" y1="0.00" x2="0.22" y2="1.00" />

<line x1="0.36" y1="0.00" x2="0.36" y2="1.00" />
<line x1="0.43" y1="0.00" x2="0.43" y2="2.00" />

<line x1="0.58" y1="0.00" x2="0.58" y2="1.00" />
<line x1="0.65" y1="0.00" x2="0.65" y2="2.00" />
<line x1="0.72" y1="0.00" x2="0.72" y2="1.00" />

<line x1="0.86" y1="0.00" x2="0.86" y2="1.00" />
<line x1="0.93" y1="0.00" x2="0.93" y2="2.00" />
<line x1="1.01" y1="0.00" x2="1.01" y2="3.00" />
<line x1="1.08" y1="0.00" x2="1.08" y2="2.00" />

<line x1="1.22" y1="0.00" x2="1.22" y2="1.00" />
<line x1="1.29" y1="0.00" x2="1.29" y2="2.00" />
<line x1="1.37" y1="0.00" x2="1.37" y2="3.00" />
<line x1="1.44" y1="0.00" x2="1.44" y2="2.00" />
<line x1="1.51" y1="0.00" x2="1.51" y2="3.00" />

<line x1="1.65" y1="0.00" x2="1.65" y2="1.00" />
<line x1="1.73" y1="0.00" x2="1.73" y2="2.00" />
<line x1="1.80" y1="0.00" x2="1.80" y2="1.00" />
<line x1="1.87" y1="0.00" x2="1.87" y2="2.00" />
<line x1="1.94" y1="0.00" x2="1.94" y2="1.00" />
<line x1="2.01" y1="0.00" x2="2.01" y2="2.00" />

<line x1="2.16" y1="0.00" x2="2.16" y2="1.00" />
<line x1="2.23" y1="0.00" x2="2.23" y2="2.00" />
<line x1="2.30" y1="0.00" x2="2.30" y2="3.00" />
<line x1="2.37" y1="0.00" x2="2.37" y2="2.00" />
<line x1="2.45" y1="0.00" x2="2.45" y2="3.00" />
<line x1="2.52" y1="0.00" x2="2.52" y2="2.00" />
<line x1="2.59" y1="0.00" x2="2.59" y2="1.00" />

<line x1="2.73" y1="0.00" x2="2.73" y2="1.00" />
<line x1="2.80" y1="0.00" x2="2.80" y2="2.00" />
<line x1="2.88" y1="0.00" x2="2.88" y2="1.00" />
<line x1="2.95" y1="0.00" x2="2.95" y2="2.00" />
<line x1="3.02" y1="0.00" x2="3.02" y2="3.00" />
<line x1="3.09" y1="0.00" x2="3.09" y2="4.00" />
<line x1="3.16" y1="0.00" x2="3.16" y2="3.00" />
<line x1="3.24" y1="0.00" x2="3.24" y2="2.00" />

<line x1="3.38" y1="0.00" x2="3.38" y2="1.00" />
<line x1="3.45" y1="0.00" x2="3.45" y2="2.00" />
<line x1="3.52" y1="0.00" x2="3.52" y2="1.00" />
<line x1="3.60" y1="0.00" x2="3.60" y2="2.00" />
<line x1="3.67" y1="0.00" x2="3.67" y2="3.00" />
<line x1="3.74" y1="0.00" x2="3.74" y2="4.00" />
<line x1="3.81" y1="0.00" x2="3.81" y2="3.00" />
<line x1="3.88" y1="0.00" x2="3.88" y2="2.00" />
<line x1="3.96" y1="0.00" x2="3.96" y2="3.00" />

<line x1="4.10" y1="0.00" x2="4.10" y2="1.00" />
<line x1="4.17" y1="0.00" x2="4.17" y2="2.00" />
<line x1="4.24" y1="0.00" x2="4.24" y2="3.00" />
<line x1="4.31" y1="0.00" x2="4.31" y2="2.00" />
<line x1="4.39" y1="0.00" x2="4.39" y2="3.00" />
<line x1="4.46" y1="0.00" x2="4.46" y2="4.00" />
<line x1="4.53" y1="0.00" x2="4.53" y2="3.00" />
<line x1="4.60" y1="0.00" x2="4.60" y2="2.00" />
<line x1="4.67" y1="0.00" x2="4.67" y2="3.00" />
<line x1="4.75" y1="0.00" x2="4.75" y2="4.00" />

<line x1="4.89" y1="0.00" x2="4.89" y2="1.00" />
<line x1="4.96" y1="0.00" x2="4.96" y2="2.00" />
<line x1="5.03" y1="0.00" x2="5.03" y2="3.00" />
<line x1="5.11" y1="0.00" x2="5.11" y2="2.00" />
<line x1="5.18" y1="0.00" x2="5.18" y2="3.00" />
<line x1="5.25" y1="0.00" x2="5.25" y2="4.00" />
<line x1="5.32" y1="0.00" x2="5.32" y2="3.00" />
<line x1="5.39" y1="0.00" x2="5.39" y2="2.00" />
<line x1="5.47" y1="0.00" x2="5.47" y2="1.00" />
<line x1="5.54" y1="0.00" x2="5.54" y2="4.00" />
<line x1="5.61" y1="0.00" x2="5.61" y2="3.00" />

<line x1="5.75" y1="0.00" x2="5.75" y2="1.00" />
<line x1="5.82" y1="0.00" x2="5.82" y2="2.00" />
<line x1="5.90" y1="0.00" x2="5.90" y2="1.00" />
<line x1="5.97" y1="0.00" x2="5.97" y2="2.00" />
<line x1="6.04" y1="0.00" x2="6.04" y2="1.00" />
<line x1="6.11" y1="0.00" x2="6.11" y2="2.00" />
<line x1="6.18" y1="0.00" x2="6.18" y2="3.00" />
<line x1="6.26" y1="0.00" x2="6.26" y2="2.00" />
<line x1="6.33" y1="0.00" x2="6.33" y2="3.00" />
<line x1="6.40" y1="0.00" x2="6.40" y2="2.00" />
<line x1="6.47" y1="0.00" x2="6.47" y2="3.00" />
<line x1="6.54" y1="0.00" x2="6.54" y2="2.00" />
</g>
</svg>