<svg xmlns="http://www.w3.org/2000/svg" width="161.8" height="100.0" viewBox="-4 -5 172 110">
<g fill="none" stroke="black" stroke-width="267.2000%" transform="translate(0, 100.0037) scale(0.0019, -0.0019)">
<polyline points="344,1 689,1 689,2 1033,2 1033,3 1378,3 1378,5 1722,5 1722,6 2067,6 2067,8 2411,8 2411,10 2756,10 2756,16 3100,16 3100,17 3445,17 3445,19 3789,19 3789,21 4134,21 4134,27 4478,27 4478,29 4823,29 4823,35 5167,35 5167,41 5512,41 5512,65 5856,65 5856,66 6201,66 6201,68 6545,68 6545,70 6890,70 6890,76 7234,76 7234,78 7579,78 7579,84 7923,84 7923,90 8268,90 8268,114 8612,114 8612,116 8957,116 8957,122 9301,122 9301,128 9646,128 9646,152 9990,152 9990,158 10335,158 10335,182 10679,182 10679,206 11024,206 11024,326 11368,326 11368,327 11713,327 11713,329 12057,329 12057,331 12402,331 12402,337 12746,337 12746,339 13091,339 13091,345 13435,345 13435,351 13780,351 13780,375 14124,375 14124,377 14469,377 14469,383 14813,383 14813,389 15158,389 15158,413 15502,413 15502,419 15847,419 15847,443 16191,443 16191,467 16536,467 16536,587 16880,587 16880,589 17225,589 17225,595 17569,595 17569,601 17914,601 17914,625 18258,625 18258,631 18603,631 18603,655 18947,655 18947,679 19292,679 19292,799 19636,799 19636,805 19981,805 19981,829 20325,829 20325,853 20670,853 20670,973 21014,973 21014,997 21359,997 21359,1117 21703,1117 21703,1237 22048,1237 22048,1957 22392,1957 22392,1958 22737,1958 22737,1960 23081,1960 23081,1962 23426,1962 23426,1968 23770,1968 23770,1970 24115,1970 24115,1976 24459,1976 24459,1982 24803,1982 24803,2006 25148,2006 25148,2008 25492,2008 25492,2014 25837,2014 25837,2020 26181,2020 26181,2044 26526,2044 26526,2050 26870,2050 26870,2074 27215,2074 27215,2098 27559,2098 27559,2218 27904,2218 27904,2220 28248,2220 28248,2226 28593,2226 28593,2232 28937,2232 28937,2256 29282,2256 29282,2262 29626,2262 29626,2286 29971,2286 29971,2310 30315,2310 30315,2430 30660,2430 30660,2436 31004,2436 31004,2460 31349,2460 31349,2484 31693,2484 31693,2604 32038,2604 32038,2628 32382,2628 32382,2748 32727,2748 32727,2868 33071,2868 33071,3588 33416,3588 33416,3590 33760,3590 33760,3596 34105,3596 34105,3602 34449,3602 34449,3626 34794,3626 34794,3632 35138,3632 35138,3656 35483,3656 35483,3680 35827,3680 35827,3800 36172,3800 36172,3806 36516,3806 36516,3830 36861,3830 36861,3854 37205,3854 37205,3974 37550,3974 37550,3998 37894,3998 37894,4118 38239,4118 38239,4238 38583,4238 38583,4958 38928,4958 38928,4964 39272,4964 39272,4988 39617,4988 39617,5012 39961,5012 39961,5132 40306,5132 40306,5156 40650,5156 40650,5276 40995,5276 40995,5396 41339,5396 41339,6116 41684,6116 41684,6140 42028,6140 42028,6260 42373,6260 42373,6380 42717,6380 42717,7100 43062,7100 43062,7220 43406,7220 43406,7940 43751,7940 43751,8660 44095,8660 44095,13700 44440,13700 44440,13701 44784,13701 44784,13703 45129,13703 45129,13705 45473,13705 45473,13711 45818,13711 45818,13713 46162,13713 46162,13719 46507,13719 46507,13725 46851,13725 46851,13749 47196,13749 47196,13751 47540,13751 47540,13757 47885,13757 47885,13763 48229,13763 48229,13787 48574,13787 48574,13793 48918,13793 48918,13817 49262,13817 49262,13841 49607,13841 49607,13961 49951,13961 49951,13963 50296,13963 50296,13969 50640,13969 50640,13975 50985,13975 50985,13999 51329,13999 51329,14005 51674,14005 51674,14029 52018,14029 52018,14053 52363,14053 52363,14173 52707,14173 52707,14179 53052,14179 53052,14203 53396,14203 53396,14227 53741,14227 53741,14347 54085,14347 54085,14371 54430,14371 54430,14491 54774,14491 54774,14611 55119,14611 55119,15331 55463,15331 55463,15333 55808,15333 55808,15339 56152,15339 56152,15345 56497,15345 56497,15369 56841,15369 56841,15375 57186,15375 57186,15399 57530,15399 57530,15423 57875,15423 57875,15543 58219,15543 58219,15549 58564,15549 58564,15573 58908,15573 58908,15597 59253,15597 59253,15717 59597,15717 59597,15741 59942,15741 59942,15861 60286,15861 60286,15981 60631,15981 60631,16701 60975,16701 60975,16707 61320,16707 61320,16731 61664,16731 61664,16755 62009,16755 62009,16875 62353,16875 62353,16899 62698,16899 62698,17019 63042,17019 63042,17139 63387,17139 63387,17859 63731,17859 63731,17883 64076,17883 64076,18003 64420,18003 64420,18123 64765,18123 64765,18843 65109,18843 65109,18963 65454,18963 65454,19683 65798,19683 65798,20403 66143,20403 66143,25443 66487,25443 66487,25445 66832,25445 66832,25451 67176,25451 67176,25457 67521,25457 67521,25481 67865,25481 67865,25487 68210,25487 68210,25511 68554,25511 68554,25535 68899,25535 68899,25655 69243,25655 69243,25661 69588,25661 69588,25685 69932,25685 69932,25709 70277,25709 70277,25829 70621,25829 70621,25853 70966,25853 70966,25973 71310,25973 71310,26093 71655,26093 71655,26813 71999,26813 71999,26819 72344,26819 72344,26843 72688,26843 72688,26867 73033,26867 73033,26987 73377,26987 73377,27011 73721,27011 73721,27131 74066,27131 74066,27251 74410,27251 74410,27971 74755,27971 74755,27995 75099,27995 75099,28115 75444,28115 75444,28235 75788,28235 75788,28955 76133,28955 76133,29075 76477,29075 76477,29795 76822,29795 76822,30515 77166,30515 77166,35555 77511,35555 77511,35561 77855,35561 77855,35585 78200,35585 78200,35609 78544,35609 78544,35729 78889,35729 78889,35753 79233,35753 79233,35873 79578,35873 79578,35993 79922,35993 79922,36713 80267,36713 80267,36737 80611,36737 80611,36857 80956,36857 80956,36977 81300,36977 81300,37697 81645,37697 81645,37817 81989,37817 81989,38537 82334,38537 82334,39257 82678,39257 82678,44297 83023,44297 83023,44321 83367,44321 83367,44441 83712,44441 83712,44561 84056,44561 84056,45281 84401,45281 84401,45401 84745,45401 84745,46121 85090,46121 85090,46841 85434,46841 85434,51881 85779,51881 85779,52001 86123,52001 86123,52721 86468,52721 86468,53441 86812,53441" />
</g>
</svg>