<?xml version="1.0" encoding="UTF-8" standalone="no"?>
<!DOCTYPE svg PUBLIC "-//W3C//DTD SVG 1.1//EN"
 "http://www.w3.org/Graphics/SVG/1.1/DTD/svg11.dtd">
<!-- Generated by graphviz version 12.0.0 (0)
 -->
<!-- Pages: 1 -->
<svg width="54pt" height="54pt"
 viewBox="0.00 0.00 54.06 54.00" xmlns="http://www.w3.org/2000/svg" xmlns:xlink="http://www.w3.org/1999/xlink">
<g id="graph0" class="graph" transform="scale(0.234226 0.234226) rotate(0) translate(4 226.55)">
<!-- 1 -->
<g id="node1" class="node">
<title>1</title>
<ellipse fill="black" stroke="black" cx="55.73" cy="-126.82" rx="1.8" ry="1.8"/>
</g>
<!-- 2 -->
<g id="node2" class="node">
<title>2</title>
<ellipse fill="black" stroke="black" cx="135.13" cy="-71.66" rx="1.8" ry="1.8"/>
</g>
<!-- 1&#45;&#45;2 -->
<g id="edge1" class="edge">
<title>1&#45;&#45;2</title>
<path fill="none" stroke="black" stroke-width="0.75" d="M57.39,-125.67C67.72,-118.49 123.18,-79.96 133.48,-72.8"/>
</g>
<!-- 3 -->
<g id="node3" class="node">
<title>3</title>
<ellipse fill="black" stroke="black" cx="13.42" cy="-52.58" rx="1.8" ry="1.8"/>
</g>
<!-- 1&#45;&#45;3 -->
<g id="edge2" class="edge">
<title>1&#45;&#45;3</title>
<path fill="none" stroke="black" stroke-width="0.75" d="M54.69,-124.98C48.83,-114.71 20.19,-64.46 14.43,-54.36"/>
</g>
<!-- 5 -->
<g id="node4" class="node">
<title>5</title>
<ellipse fill="black" stroke="black" cx="52.13" cy="-210.16" rx="1.8" ry="1.8"/>
</g>
<!-- 1&#45;&#45;5 -->
<g id="edge3" class="edge">
<title>1&#45;&#45;5</title>
<path fill="none" stroke="black" stroke-width="0.75" d="M55.64,-128.88C55.15,-140.31 52.75,-195.85 52.23,-207.87"/>
</g>
<!-- 9 -->
<g id="node5" class="node">
<title>9</title>
<ellipse fill="black" stroke="black" cx="154.16" cy="-136.9" rx="1.8" ry="1.8"/>
</g>
<!-- 1&#45;&#45;9 -->
<g id="edge4" class="edge">
<title>1&#45;&#45;9</title>
<path fill="none" stroke="black" stroke-width="0.75" d="M57.79,-127.03C70.6,-128.34 139.34,-135.38 152.12,-136.69"/>
</g>
<!-- 4 -->
<g id="node6" class="node">
<title>4</title>
<ellipse fill="black" stroke="black" cx="83.68" cy="-1.8" rx="1.8" ry="1.8"/>
</g>
<!-- 2&#45;&#45;4 -->
<g id="edge5" class="edge">
<title>2&#45;&#45;4</title>
<path fill="none" stroke="black" stroke-width="0.75" d="M133.86,-69.93C126.68,-60.18 91.3,-12.15 84.73,-3.23"/>
</g>
<!-- 6 -->
<g id="node7" class="node">
<title>6</title>
<ellipse fill="black" stroke="black" cx="123.94" cy="-167.69" rx="1.8" ry="1.8"/>
</g>
<!-- 2&#45;&#45;6 -->
<g id="edge6" class="edge">
<title>2&#45;&#45;6</title>
<path fill="none" stroke="black" stroke-width="0.75" d="M134.9,-73.66C133.44,-86.16 125.62,-153.23 124.17,-165.69"/>
</g>
<!-- 10 -->
<g id="node8" class="node">
<title>10</title>
<ellipse fill="black" stroke="black" cx="220.99" cy="-84.07" rx="1.8" ry="1.8"/>
</g>
<!-- 2&#45;&#45;10 -->
<g id="edge7" class="edge">
<title>2&#45;&#45;10</title>
<path fill="none" stroke="black" stroke-width="0.75" d="M137.25,-71.96C149.13,-73.68 207.26,-82.08 218.94,-83.77"/>
</g>
<!-- 3&#45;&#45;4 -->
<g id="edge8" class="edge">
<title>3&#45;&#45;4</title>
<path fill="none" stroke="black" stroke-width="0.75" d="M15.16,-51.33C24.97,-44.24 73.27,-9.32 82.24,-2.84"/>
</g>
<!-- 7 -->
<g id="node9" class="node">
<title>7</title>
<ellipse fill="black" stroke="black" cx="1.8" cy="-138.48" rx="1.8" ry="1.8"/>
</g>
<!-- 3&#45;&#45;7 -->
<g id="edge9" class="edge">
<title>3&#45;&#45;7</title>
<path fill="none" stroke="black" stroke-width="0.75" d="M13.14,-54.71C11.53,-66.59 3.66,-124.74 2.08,-136.43"/>
</g>
<!-- 11 -->
<g id="node10" class="node">
<title>11</title>
<ellipse fill="black" stroke="black" cx="98.85" cy="-54.85" rx="1.8" ry="1.8"/>
</g>
<!-- 3&#45;&#45;11 -->
<g id="edge10" class="edge">
<title>3&#45;&#45;11</title>
<path fill="none" stroke="black" stroke-width="0.75" d="M15.54,-52.64C27.35,-52.95 85.19,-54.49 96.81,-54.8"/>
</g>
<!-- 5&#45;&#45;6 -->
<g id="edge13" class="edge">
<title>5&#45;&#45;6</title>
<path fill="none" stroke="black" stroke-width="0.75" d="M53.9,-209.11C63.75,-203.29 111.61,-174.98 121.96,-168.85"/>
</g>
<!-- 5&#45;&#45;7 -->
<g id="edge14" class="edge">
<title>5&#45;&#45;7</title>
<path fill="none" stroke="black" stroke-width="0.75" d="M50.89,-208.39C43.92,-198.47 9.85,-149.94 3,-140.19"/>
</g>
<!-- 13 -->
<g id="node13" class="node">
<title>13</title>
<ellipse fill="black" stroke="black" cx="139.08" cy="-220.75" rx="1.8" ry="1.8"/>
</g>
<!-- 5&#45;&#45;13 -->
<g id="edge15" class="edge">
<title>5&#45;&#45;13</title>
<path fill="none" stroke="black" stroke-width="0.75" d="M54.28,-210.42C66.31,-211.89 125.17,-219.05 137,-220.49"/>
</g>
<!-- 9&#45;&#45;10 -->
<g id="edge21" class="edge">
<title>9&#45;&#45;10</title>
<path fill="none" stroke="black" stroke-width="0.75" d="M155.81,-135.59C165.14,-128.22 211.09,-91.89 219.63,-85.15"/>
</g>
<!-- 9&#45;&#45;11 -->
<g id="edge22" class="edge">
<title>9&#45;&#45;11</title>
<path fill="none" stroke="black" stroke-width="0.75" d="M153.01,-135.18C145.81,-124.51 107.18,-67.2 100,-56.55"/>
</g>
<!-- 9&#45;&#45;13 -->
<g id="edge23" class="edge">
<title>9&#45;&#45;13</title>
<path fill="none" stroke="black" stroke-width="0.75" d="M153.79,-138.97C151.7,-150.57 141.49,-207.34 139.44,-218.75"/>
</g>
<!-- 8 -->
<g id="node11" class="node">
<title>8</title>
<ellipse fill="black" stroke="black" cx="68.64" cy="-85.64" rx="1.8" ry="1.8"/>
</g>
<!-- 4&#45;&#45;8 -->
<g id="edge11" class="edge">
<title>4&#45;&#45;8</title>
<path fill="none" stroke="black" stroke-width="0.75" d="M83.3,-3.87C81.22,-15.47 71.04,-72.23 69,-83.64"/>
</g>
<!-- 12 -->
<g id="node12" class="node">
<title>12</title>
<ellipse fill="black" stroke="black" cx="170.64" cy="-12.37" rx="1.8" ry="1.8"/>
</g>
<!-- 4&#45;&#45;12 -->
<g id="edge12" class="edge">
<title>4&#45;&#45;12</title>
<path fill="none" stroke="black" stroke-width="0.75" d="M85.83,-2.06C97.86,-3.52 156.73,-10.68 168.57,-12.12"/>
</g>
<!-- 6&#45;&#45;8 -->
<g id="edge16" class="edge">
<title>6&#45;&#45;8</title>
<path fill="none" stroke="black" stroke-width="0.75" d="M122.78,-165.97C115.59,-155.3 76.97,-98 69.79,-87.35"/>
</g>
<!-- 14 -->
<g id="node14" class="node">
<title>14</title>
<ellipse fill="black" stroke="black" cx="209.35" cy="-169.98" rx="1.8" ry="1.8"/>
</g>
<!-- 6&#45;&#45;14 -->
<g id="edge17" class="edge">
<title>6&#45;&#45;14</title>
<path fill="none" stroke="black" stroke-width="0.75" d="M126.05,-167.74C137.87,-168.06 195.69,-169.61 207.31,-169.92"/>
</g>
<!-- 10&#45;&#45;12 -->
<g id="edge24" class="edge">
<title>10&#45;&#45;12</title>
<path fill="none" stroke="black" stroke-width="0.75" d="M219.75,-82.3C212.78,-72.38 178.7,-23.84 171.84,-14.08"/>
</g>
<!-- 10&#45;&#45;14 -->
<g id="edge25" class="edge">
<title>10&#45;&#45;14</title>
<path fill="none" stroke="black" stroke-width="0.75" d="M220.7,-86.19C219.09,-98.08 211.21,-156.24 209.63,-167.93"/>
</g>
<!-- 7&#45;&#45;8 -->
<g id="edge18" class="edge">
<title>7&#45;&#45;8</title>
<path fill="none" stroke="black" stroke-width="0.75" d="M3.45,-137.17C12.78,-129.8 58.74,-93.47 67.27,-86.72"/>
</g>
<!-- 15 -->
<g id="node15" class="node">
<title>15</title>
<ellipse fill="black" stroke="black" cx="87.67" cy="-150.86" rx="1.8" ry="1.8"/>
</g>
<!-- 7&#45;&#45;15 -->
<g id="edge19" class="edge">
<title>7&#45;&#45;15</title>
<path fill="none" stroke="black" stroke-width="0.75" d="M3.92,-138.78C15.8,-140.5 73.94,-148.88 85.62,-150.57"/>
</g>
<!-- 11&#45;&#45;12 -->
<g id="edge26" class="edge">
<title>11&#45;&#45;12</title>
<path fill="none" stroke="black" stroke-width="0.75" d="M100.62,-53.8C110.47,-47.97 158.32,-19.66 168.67,-13.54"/>
</g>
<!-- 11&#45;&#45;15 -->
<g id="edge27" class="edge">
<title>11&#45;&#45;15</title>
<path fill="none" stroke="black" stroke-width="0.75" d="M98.61,-56.85C97.16,-69.35 89.35,-136.41 87.9,-148.87"/>
</g>
<!-- 16 -->
<g id="node16" class="node">
<title>16</title>
<ellipse fill="black" stroke="black" cx="167.07" cy="-95.72" rx="1.8" ry="1.8"/>
</g>
<!-- 8&#45;&#45;16 -->
<g id="edge20" class="edge">
<title>8&#45;&#45;16</title>
<path fill="none" stroke="black" stroke-width="0.75" d="M70.7,-85.85C83.51,-87.17 152.25,-94.2 165.03,-95.51"/>
</g>
<!-- 12&#45;&#45;16 -->
<g id="edge28" class="edge">
<title>12&#45;&#45;16</title>
<path fill="none" stroke="black" stroke-width="0.75" d="M170.55,-14.43C170.06,-25.86 167.69,-81.41 167.17,-93.42"/>
</g>
<!-- 13&#45;&#45;14 -->
<g id="edge29" class="edge">
<title>13&#45;&#45;14</title>
<path fill="none" stroke="black" stroke-width="0.75" d="M140.81,-219.49C150.62,-212.41 198.94,-177.5 207.91,-171.01"/>
</g>
<!-- 13&#45;&#45;15 -->
<g id="edge30" class="edge">
<title>13&#45;&#45;15</title>
<path fill="none" stroke="black" stroke-width="0.75" d="M137.81,-219.02C130.63,-209.27 95.29,-161.21 88.72,-152.29"/>
</g>
<!-- 14&#45;&#45;16 -->
<g id="edge31" class="edge">
<title>14&#45;&#45;16</title>
<path fill="none" stroke="black" stroke-width="0.75" d="M208.3,-168.14C202.45,-157.87 173.83,-107.59 168.08,-97.49"/>
</g>
<!-- 15&#45;&#45;16 -->
<g id="edge32" class="edge">
<title>15&#45;&#45;16</title>
<path fill="none" stroke="black" stroke-width="0.75" d="M89.33,-149.71C99.66,-142.53 155.12,-104.02 165.42,-96.86"/>
</g>
</g>
</svg>
