<?xml version="1.0" encoding="UTF-8" standalone="no"?>
<!DOCTYPE svg PUBLIC "-//W3C//DTD SVG 1.1//EN"
 "http://www.w3.org/Graphics/SVG/1.1/DTD/svg11.dtd">
<!-- Generated by graphviz version 12.0.0 (0)
 -->
<!-- Pages: 1 -->
<svg width="56pt" height="54pt"
 viewBox="0.00 0.00 55.89 54.00" xmlns="http://www.w3.org/2000/svg" xmlns:xlink="http://www.w3.org/1999/xlink">
<g id="graph0" class="graph" transform="scale(0.225733 0.225733) rotate(0) translate(4 235.22)">
<!-- 1 -->
<g id="node1" class="node">
<title>1</title>
<ellipse fill="black" stroke="black" cx="91.85" cy="-1.8" rx="1.8" ry="1.8"/>
</g>
<!-- 2 -->
<g id="node2" class="node">
<title>2</title>
<ellipse fill="black" stroke="black" cx="143.43" cy="-42.8" rx="1.8" ry="1.8"/>
</g>
<!-- 1&#45;&#45;2 -->
<g id="edge1" class="edge">
<title>1&#45;&#45;2</title>
<path fill="none" stroke="black" stroke-width="0.75" d="M93.57,-3.16C101.4,-9.39 133.7,-35.06 141.66,-41.39"/>
</g>
<!-- 3 -->
<g id="node3" class="node">
<title>3</title>
<ellipse fill="black" stroke="black" cx="188.93" cy="-18.33" rx="1.8" ry="1.8"/>
</g>
<!-- 1&#45;&#45;3 -->
<g id="edge2" class="edge">
<title>1&#45;&#45;3</title>
<path fill="none" stroke="black" stroke-width="0.75" d="M93.88,-2.15C106.51,-4.3 174.32,-15.84 186.92,-17.98"/>
</g>
<!-- 4 -->
<g id="node4" class="node">
<title>4</title>
<ellipse fill="black" stroke="black" cx="28.78" cy="-67.93" rx="1.8" ry="1.8"/>
</g>
<!-- 1&#45;&#45;4 -->
<g id="edge3" class="edge">
<title>1&#45;&#45;4</title>
<path fill="none" stroke="black" stroke-width="0.75" d="M90.29,-3.43C81.49,-12.66 38.12,-58.13 30.07,-66.58"/>
</g>
<!-- 7 -->
<g id="node5" class="node">
<title>7</title>
<ellipse fill="black" stroke="black" cx="116.89" cy="-52.73" rx="1.8" ry="1.8"/>
</g>
<!-- 1&#45;&#45;7 -->
<g id="edge4" class="edge">
<title>1&#45;&#45;7</title>
<path fill="none" stroke="black" stroke-width="0.75" d="M92.69,-3.49C96.49,-11.23 112.17,-43.12 116.03,-50.97"/>
</g>
<!-- 10 -->
<g id="node6" class="node">
<title>10</title>
<ellipse fill="black" stroke="black" cx="105.89" cy="-84.26" rx="1.8" ry="1.8"/>
</g>
<!-- 1&#45;&#45;10 -->
<g id="edge5" class="edge">
<title>1&#45;&#45;10</title>
<path fill="none" stroke="black" stroke-width="0.75" d="M92.2,-3.84C94.14,-15.25 103.64,-71.07 105.55,-82.29"/>
</g>
<!-- 19 -->
<g id="node7" class="node">
<title>19</title>
<ellipse fill="black" stroke="black" cx="51.87" cy="-57.64" rx="1.8" ry="1.8"/>
</g>
<!-- 1&#45;&#45;19 -->
<g id="edge6" class="edge">
<title>1&#45;&#45;19</title>
<path fill="none" stroke="black" stroke-width="0.75" d="M90.52,-3.66C84.34,-12.29 58.51,-48.36 52.93,-56.15"/>
</g>
<!-- 2&#45;&#45;3 -->
<g id="edge7" class="edge">
<title>2&#45;&#45;3</title>
<path fill="none" stroke="black" stroke-width="0.75" d="M145.39,-41.75C152.87,-37.72 179.65,-23.32 187.04,-19.35"/>
</g>
<!-- 5 -->
<g id="node8" class="node">
<title>5</title>
<ellipse fill="black" stroke="black" cx="62.82" cy="-118.2" rx="1.8" ry="1.8"/>
</g>
<!-- 2&#45;&#45;5 -->
<g id="edge8" class="edge">
<title>2&#45;&#45;5</title>
<path fill="none" stroke="black" stroke-width="0.75" d="M142.03,-44.11C132.25,-53.26 74.17,-107.59 64.26,-116.86"/>
</g>
<!-- 8 -->
<g id="node9" class="node">
<title>8</title>
<ellipse fill="black" stroke="black" cx="176.32" cy="-118.71" rx="1.8" ry="1.8"/>
</g>
<!-- 2&#45;&#45;8 -->
<g id="edge9" class="edge">
<title>2&#45;&#45;8</title>
<path fill="none" stroke="black" stroke-width="0.75" d="M144.24,-44.67C148.76,-55.09 170.68,-105.68 175.42,-116.62"/>
</g>
<!-- 11 -->
<g id="node10" class="node">
<title>11</title>
<ellipse fill="black" stroke="black" cx="170.14" cy="-148.05" rx="1.8" ry="1.8"/>
</g>
<!-- 2&#45;&#45;11 -->
<g id="edge10" class="edge">
<title>2&#45;&#45;11</title>
<path fill="none" stroke="black" stroke-width="0.75" d="M143.99,-45C147.46,-58.69 166.12,-132.2 169.58,-145.86"/>
</g>
<!-- 20 -->
<g id="node11" class="node">
<title>20</title>
<ellipse fill="black" stroke="black" cx="97.67" cy="-124.56" rx="1.8" ry="1.8"/>
</g>
<!-- 2&#45;&#45;20 -->
<g id="edge11" class="edge">
<title>2&#45;&#45;20</title>
<path fill="none" stroke="black" stroke-width="0.75" d="M142.48,-44.5C136.57,-55.05 105.11,-111.27 98.78,-122.58"/>
</g>
<!-- 6 -->
<g id="node12" class="node">
<title>6</title>
<ellipse fill="black" stroke="black" cx="128.9" cy="-90.24" rx="1.8" ry="1.8"/>
</g>
<!-- 3&#45;&#45;6 -->
<g id="edge12" class="edge">
<title>3&#45;&#45;6</title>
<path fill="none" stroke="black" stroke-width="0.75" d="M187.68,-19.83C179.93,-29.11 138.66,-78.55 130.35,-88.5"/>
</g>
<!-- 9 -->
<g id="node13" class="node">
<title>9</title>
<ellipse fill="black" stroke="black" cx="220.34" cy="-76.36" rx="1.8" ry="1.8"/>
</g>
<!-- 3&#45;&#45;9 -->
<g id="edge13" class="edge">
<title>3&#45;&#45;9</title>
<path fill="none" stroke="black" stroke-width="0.75" d="M189.98,-20.26C194.75,-29.07 214.42,-65.42 219.26,-74.37"/>
</g>
<!-- 12 -->
<g id="node14" class="node">
<title>12</title>
<ellipse fill="black" stroke="black" cx="222.25" cy="-106.27" rx="1.8" ry="1.8"/>
</g>
<!-- 3&#45;&#45;12 -->
<g id="edge14" class="edge">
<title>3&#45;&#45;12</title>
<path fill="none" stroke="black" stroke-width="0.75" d="M189.63,-20.16C193.93,-31.51 216.84,-91.98 221.44,-104.14"/>
</g>
<!-- 21 -->
<g id="node15" class="node">
<title>21</title>
<ellipse fill="black" stroke="black" cx="163.3" cy="-79.12" rx="1.8" ry="1.8"/>
</g>
<!-- 3&#45;&#45;21 -->
<g id="edge15" class="edge">
<title>3&#45;&#45;21</title>
<path fill="none" stroke="black" stroke-width="0.75" d="M188.08,-20.35C184.19,-29.58 168.14,-67.65 164.18,-77.03"/>
</g>
<!-- 4&#45;&#45;7 -->
<g id="edge18" class="edge">
<title>4&#45;&#45;7</title>
<path fill="none" stroke="black" stroke-width="0.75" d="M30.96,-67.55C43.15,-65.45 102.8,-55.16 114.79,-53.09"/>
</g>
<!-- 4&#45;&#45;5 -->
<g id="edge16" class="edge">
<title>4&#45;&#45;5</title>
<path fill="none" stroke="black" stroke-width="0.75" d="M29.91,-69.6C35.08,-77.23 56.4,-108.72 61.65,-116.47"/>
</g>
<!-- 4&#45;&#45;6 -->
<g id="edge17" class="edge">
<title>4&#45;&#45;6</title>
<path fill="none" stroke="black" stroke-width="0.75" d="M30.87,-68.39C43.9,-71.3 113.82,-86.88 126.82,-89.78"/>
</g>
<!-- 13 -->
<g id="node16" class="node">
<title>13</title>
<ellipse fill="black" stroke="black" cx="47.93" cy="-171.1" rx="1.8" ry="1.8"/>
</g>
<!-- 4&#45;&#45;13 -->
<g id="edge19" class="edge">
<title>4&#45;&#45;13</title>
<path fill="none" stroke="black" stroke-width="0.75" d="M29.18,-70.08C31.67,-83.51 45.04,-155.57 47.53,-168.96"/>
</g>
<!-- 22 -->
<g id="node17" class="node">
<title>22</title>
<ellipse fill="black" stroke="black" cx="1.8" cy="-135.27" rx="1.8" ry="1.8"/>
</g>
<!-- 4&#45;&#45;22 -->
<g id="edge20" class="edge">
<title>4&#45;&#45;22</title>
<path fill="none" stroke="black" stroke-width="0.75" d="M28,-69.87C24.06,-79.7 6.36,-123.9 2.53,-133.45"/>
</g>
<!-- 7&#45;&#45;8 -->
<g id="edge28" class="edge">
<title>7&#45;&#45;8</title>
<path fill="none" stroke="black" stroke-width="0.75" d="M118.36,-54.36C126.66,-63.57 167.52,-108.94 175.11,-117.37"/>
</g>
<!-- 7&#45;&#45;9 -->
<g id="edge29" class="edge">
<title>7&#45;&#45;9</title>
<path fill="none" stroke="black" stroke-width="0.75" d="M119.05,-53.22C132.52,-56.3 204.76,-72.8 218.19,-75.87"/>
</g>
<!-- 16 -->
<g id="node22" class="node">
<title>16</title>
<ellipse fill="black" stroke="black" cx="131.92" cy="-159.98" rx="1.8" ry="1.8"/>
</g>
<!-- 7&#45;&#45;16 -->
<g id="edge30" class="edge">
<title>7&#45;&#45;16</title>
<path fill="none" stroke="black" stroke-width="0.75" d="M117.21,-54.97C119.16,-68.92 129.65,-143.83 131.6,-157.75"/>
</g>
<!-- 25 -->
<g id="node23" class="node">
<title>25</title>
<ellipse fill="black" stroke="black" cx="68.19" cy="-141.77" rx="1.8" ry="1.8"/>
</g>
<!-- 7&#45;&#45;25 -->
<g id="edge31" class="edge">
<title>7&#45;&#45;25</title>
<path fill="none" stroke="black" stroke-width="0.75" d="M115.88,-54.59C109.54,-66.17 75.53,-128.37 69.2,-139.92"/>
</g>
<!-- 10&#45;&#45;19 -->
<g id="edge41" class="edge">
<title>10&#45;&#45;19</title>
<path fill="none" stroke="black" stroke-width="0.75" d="M104.09,-83.37C95.89,-79.33 62.06,-62.66 53.73,-58.55"/>
</g>
<!-- 10&#45;&#45;11 -->
<g id="edge37" class="edge">
<title>10&#45;&#45;11</title>
<path fill="none" stroke="black" stroke-width="0.75" d="M107.48,-85.83C116.44,-94.73 160.62,-138.6 168.83,-146.74"/>
</g>
<!-- 10&#45;&#45;12 -->
<g id="edge38" class="edge">
<title>10&#45;&#45;12</title>
<path fill="none" stroke="black" stroke-width="0.75" d="M107.91,-84.64C122.03,-87.31 205.87,-103.17 220.18,-105.88"/>
</g>
<!-- 10&#45;&#45;13 -->
<g id="edge39" class="edge">
<title>10&#45;&#45;13</title>
<path fill="none" stroke="black" stroke-width="0.75" d="M104.68,-86.07C97.13,-97.37 56.65,-158.03 49.13,-169.3"/>
</g>
<!-- 10&#45;&#45;16 -->
<g id="edge40" class="edge">
<title>10&#45;&#45;16</title>
<path fill="none" stroke="black" stroke-width="0.75" d="M106.53,-86.13C110.1,-96.51 127.45,-146.98 131.2,-157.9"/>
</g>
<!-- 19&#45;&#45;20 -->
<g id="edge64" class="edge">
<title>19&#45;&#45;20</title>
<path fill="none" stroke="black" stroke-width="0.75" d="M53,-59.29C59.28,-68.47 89.81,-113.07 96.41,-122.72"/>
</g>
<!-- 19&#45;&#45;21 -->
<g id="edge65" class="edge">
<title>19&#45;&#45;21</title>
<path fill="none" stroke="black" stroke-width="0.75" d="M53.8,-58.01C67.33,-60.62 147.61,-76.09 161.31,-78.73"/>
</g>
<!-- 19&#45;&#45;22 -->
<g id="edge66" class="edge">
<title>19&#45;&#45;22</title>
<path fill="none" stroke="black" stroke-width="0.75" d="M50.63,-59.56C43.7,-70.3 9.81,-122.85 2.99,-133.42"/>
</g>
<!-- 19&#45;&#45;25 -->
<g id="edge67" class="edge">
<title>19&#45;&#45;25</title>
<path fill="none" stroke="black" stroke-width="0.75" d="M52.27,-59.72C54.53,-71.36 65.58,-128.32 67.8,-139.77"/>
</g>
<!-- 5&#45;&#45;8 -->
<g id="edge22" class="edge">
<title>5&#45;&#45;8</title>
<path fill="none" stroke="black" stroke-width="0.75" d="M64.79,-118.21C78.57,-118.28 160.35,-118.64 174.3,-118.7"/>
</g>
<!-- 5&#45;&#45;6 -->
<g id="edge21" class="edge">
<title>5&#45;&#45;6</title>
<path fill="none" stroke="black" stroke-width="0.75" d="M64.73,-117.4C74.38,-113.31 117.74,-94.96 127.11,-91"/>
</g>
<!-- 14 -->
<g id="node18" class="node">
<title>14</title>
<ellipse fill="black" stroke="black" cx="97.78" cy="-229.42" rx="1.8" ry="1.8"/>
</g>
<!-- 5&#45;&#45;14 -->
<g id="edge23" class="edge">
<title>5&#45;&#45;14</title>
<path fill="none" stroke="black" stroke-width="0.75" d="M63.43,-120.14C67.67,-133.63 92.86,-213.76 97.15,-227.44"/>
</g>
<!-- 23 -->
<g id="node19" class="node">
<title>23</title>
<ellipse fill="black" stroke="black" cx="39.72" cy="-204.38" rx="1.8" ry="1.8"/>
</g>
<!-- 5&#45;&#45;23 -->
<g id="edge24" class="edge">
<title>5&#45;&#45;23</title>
<path fill="none" stroke="black" stroke-width="0.75" d="M62.25,-120.34C59.05,-132.26 43.41,-190.6 40.27,-202.33"/>
</g>
<!-- 8&#45;&#45;9 -->
<g id="edge32" class="edge">
<title>8&#45;&#45;9</title>
<path fill="none" stroke="black" stroke-width="0.75" d="M177.79,-117.3C184.47,-110.87 212.04,-84.35 218.82,-77.82"/>
</g>
<!-- 17 -->
<g id="node24" class="node">
<title>17</title>
<ellipse fill="black" stroke="black" cx="187.98" cy="-221.66" rx="1.8" ry="1.8"/>
</g>
<!-- 8&#45;&#45;17 -->
<g id="edge33" class="edge">
<title>8&#45;&#45;17</title>
<path fill="none" stroke="black" stroke-width="0.75" d="M176.57,-120.86C178.08,-134.26 186.22,-206.16 187.74,-219.52"/>
</g>
<!-- 26 -->
<g id="node25" class="node">
<title>26</title>
<ellipse fill="black" stroke="black" cx="125.31" cy="-213.91" rx="1.8" ry="1.8"/>
</g>
<!-- 8&#45;&#45;26 -->
<g id="edge34" class="edge">
<title>8&#45;&#45;26</title>
<path fill="none" stroke="black" stroke-width="0.75" d="M175.26,-120.7C168.62,-133.09 132.99,-199.57 126.37,-211.93"/>
</g>
<!-- 11&#45;&#45;20 -->
<g id="edge45" class="edge">
<title>11&#45;&#45;20</title>
<path fill="none" stroke="black" stroke-width="0.75" d="M168.05,-147.37C157.47,-143.94 109.91,-128.53 99.63,-125.2"/>
</g>
<!-- 11&#45;&#45;12 -->
<g id="edge42" class="edge">
<title>11&#45;&#45;12</title>
<path fill="none" stroke="black" stroke-width="0.75" d="M171.87,-146.66C179.78,-140.32 212.42,-114.15 220.46,-107.71"/>
</g>
<!-- 11&#45;&#45;14 -->
<g id="edge43" class="edge">
<title>11&#45;&#45;14</title>
<path fill="none" stroke="black" stroke-width="0.75" d="M168.63,-149.75C159.21,-160.34 108.67,-217.17 99.28,-227.73"/>
</g>
<!-- 11&#45;&#45;17 -->
<g id="edge44" class="edge">
<title>11&#45;&#45;17</title>
<path fill="none" stroke="black" stroke-width="0.75" d="M170.65,-150.17C173.26,-160.92 184.97,-209.23 187.5,-219.67"/>
</g>
<!-- 20&#45;&#45;21 -->
<g id="edge68" class="edge">
<title>20&#45;&#45;21</title>
<path fill="none" stroke="black" stroke-width="0.75" d="M99.3,-123.44C108.3,-117.21 152.03,-86.92 161.49,-80.37"/>
</g>
<!-- 20&#45;&#45;23 -->
<g id="edge69" class="edge">
<title>20&#45;&#45;23</title>
<path fill="none" stroke="black" stroke-width="0.75" d="M96.46,-126.23C88.92,-136.62 48.44,-192.37 40.92,-202.73"/>
</g>
<!-- 20&#45;&#45;26 -->
<g id="edge70" class="edge">
<title>20&#45;&#45;26</title>
<path fill="none" stroke="black" stroke-width="0.75" d="M98.25,-126.43C101.82,-137.96 120.82,-199.38 124.64,-211.74"/>
</g>
<!-- 6&#45;&#45;9 -->
<g id="edge25" class="edge">
<title>6&#45;&#45;9</title>
<path fill="none" stroke="black" stroke-width="0.75" d="M131.16,-89.9C143.81,-87.98 205.71,-78.58 218.16,-76.69"/>
</g>
<!-- 15 -->
<g id="node20" class="node">
<title>15</title>
<ellipse fill="black" stroke="black" cx="159.31" cy="-196.97" rx="1.8" ry="1.8"/>
</g>
<!-- 6&#45;&#45;15 -->
<g id="edge26" class="edge">
<title>6&#45;&#45;15</title>
<path fill="none" stroke="black" stroke-width="0.75" d="M129.43,-92.09C133.12,-105.05 155.03,-181.94 158.77,-195.07"/>
</g>
<!-- 24 -->
<g id="node21" class="node">
<title>24</title>
<ellipse fill="black" stroke="black" cx="99.35" cy="-172.95" rx="1.8" ry="1.8"/>
</g>
<!-- 6&#45;&#45;24 -->
<g id="edge27" class="edge">
<title>6&#45;&#45;24</title>
<path fill="none" stroke="black" stroke-width="0.75" d="M128.17,-92.28C124.08,-103.73 104.08,-159.72 100.05,-170.97"/>
</g>
<!-- 18 -->
<g id="node26" class="node">
<title>18</title>
<ellipse fill="black" stroke="black" cx="237.79" cy="-170.69" rx="1.8" ry="1.8"/>
</g>
<!-- 9&#45;&#45;18 -->
<g id="edge35" class="edge">
<title>9&#45;&#45;18</title>
<path fill="none" stroke="black" stroke-width="0.75" d="M220.7,-78.33C222.97,-90.61 235.16,-156.49 237.43,-168.73"/>
</g>
<!-- 27 -->
<g id="node27" class="node">
<title>27</title>
<ellipse fill="black" stroke="black" cx="188.57" cy="-164.61" rx="1.8" ry="1.8"/>
</g>
<!-- 9&#45;&#45;27 -->
<g id="edge36" class="edge">
<title>9&#45;&#45;27</title>
<path fill="none" stroke="black" stroke-width="0.75" d="M219.68,-78.21C215.58,-89.59 193.74,-150.26 189.34,-162.47"/>
</g>
<!-- 12&#45;&#45;21 -->
<g id="edge48" class="edge">
<title>12&#45;&#45;21</title>
<path fill="none" stroke="black" stroke-width="0.75" d="M220.29,-105.37C211.34,-101.25 174.42,-84.24 165.33,-80.05"/>
</g>
<!-- 12&#45;&#45;15 -->
<g id="edge46" class="edge">
<title>12&#45;&#45;15</title>
<path fill="none" stroke="black" stroke-width="0.75" d="M221.16,-107.85C213.52,-118.86 168.17,-184.2 160.44,-195.35"/>
</g>
<!-- 12&#45;&#45;18 -->
<g id="edge47" class="edge">
<title>12&#45;&#45;18</title>
<path fill="none" stroke="black" stroke-width="0.75" d="M222.77,-108.42C225.13,-118.2 234.86,-158.54 237.25,-168.47"/>
</g>
<!-- 21&#45;&#45;24 -->
<g id="edge71" class="edge">
<title>21&#45;&#45;24</title>
<path fill="none" stroke="black" stroke-width="0.75" d="M162.19,-80.75C154.43,-92.14 108.35,-159.74 100.49,-171.27"/>
</g>
<!-- 21&#45;&#45;27 -->
<g id="edge72" class="edge">
<title>21&#45;&#45;27</title>
<path fill="none" stroke="black" stroke-width="0.75" d="M163.93,-81.23C167.42,-93.06 184.53,-150.94 187.97,-162.57"/>
</g>
<!-- 13&#45;&#45;22 -->
<g id="edge52" class="edge">
<title>13&#45;&#45;22</title>
<path fill="none" stroke="black" stroke-width="0.75" d="M46.39,-169.91C39.39,-164.47 10.5,-142.03 3.39,-136.5"/>
</g>
<!-- 13&#45;&#45;14 -->
<g id="edge49" class="edge">
<title>13&#45;&#45;14</title>
<path fill="none" stroke="black" stroke-width="0.75" d="M49.16,-172.54C55.99,-180.54 89.22,-219.41 96.4,-227.82"/>
</g>
<!-- 13&#45;&#45;15 -->
<g id="edge50" class="edge">
<title>13&#45;&#45;15</title>
<path fill="none" stroke="black" stroke-width="0.75" d="M49.86,-171.55C63.38,-174.69 143.63,-193.33 157.33,-196.51"/>
</g>
<!-- 13&#45;&#45;16 -->
<g id="edge51" class="edge">
<title>13&#45;&#45;16</title>
<path fill="none" stroke="black" stroke-width="0.75" d="M50,-170.83C61.62,-169.29 118.48,-161.76 129.91,-160.25"/>
</g>
<!-- 22&#45;&#45;23 -->
<g id="edge73" class="edge">
<title>22&#45;&#45;23</title>
<path fill="none" stroke="black" stroke-width="0.75" d="M2.89,-137.26C8.43,-147.36 33.31,-192.71 38.69,-202.51"/>
</g>
<!-- 22&#45;&#45;24 -->
<g id="edge74" class="edge">
<title>22&#45;&#45;24</title>
<path fill="none" stroke="black" stroke-width="0.75" d="M3.84,-136.06C16.53,-140.96 84.66,-167.27 97.32,-172.16"/>
</g>
<!-- 22&#45;&#45;25 -->
<g id="edge75" class="edge">
<title>22&#45;&#45;25</title>
<path fill="none" stroke="black" stroke-width="0.75" d="M4.01,-135.49C14.09,-136.47 55.67,-140.55 65.91,-141.55"/>
</g>
<!-- 14&#45;&#45;23 -->
<g id="edge55" class="edge">
<title>14&#45;&#45;23</title>
<path fill="none" stroke="black" stroke-width="0.75" d="M95.85,-228.59C87.03,-224.79 50.67,-209.11 41.72,-205.25"/>
</g>
<!-- 14&#45;&#45;15 -->
<g id="edge53" class="edge">
<title>14&#45;&#45;15</title>
<path fill="none" stroke="black" stroke-width="0.75" d="M99.55,-228.48C108.54,-223.75 148.92,-202.45 157.65,-197.85"/>
</g>
<!-- 14&#45;&#45;17 -->
<g id="edge54" class="edge">
<title>14&#45;&#45;17</title>
<path fill="none" stroke="black" stroke-width="0.75" d="M100.01,-229.23C112.49,-228.16 173.55,-222.9 185.83,-221.84"/>
</g>
<!-- 23&#45;&#45;24 -->
<g id="edge76" class="edge">
<title>23&#45;&#45;24</title>
<path fill="none" stroke="black" stroke-width="0.75" d="M41.7,-203.34C50.92,-198.48 89.44,-178.17 97.76,-173.78"/>
</g>
<!-- 23&#45;&#45;26 -->
<g id="edge77" class="edge">
<title>23&#45;&#45;26</title>
<path fill="none" stroke="black" stroke-width="0.75" d="M41.83,-204.62C53.67,-205.94 111.62,-212.38 123.27,-213.68"/>
</g>
<!-- 15&#45;&#45;24 -->
<g id="edge57" class="edge">
<title>15&#45;&#45;24</title>
<path fill="none" stroke="black" stroke-width="0.75" d="M157.32,-196.17C148.21,-192.52 110.66,-177.48 101.41,-173.77"/>
</g>
<!-- 15&#45;&#45;18 -->
<g id="edge56" class="edge">
<title>15&#45;&#45;18</title>
<path fill="none" stroke="black" stroke-width="0.75" d="M161.25,-196.32C172.02,-192.72 224.32,-175.2 235.63,-171.42"/>
</g>
<!-- 24&#45;&#45;27 -->
<g id="edge78" class="edge">
<title>24&#45;&#45;27</title>
<path fill="none" stroke="black" stroke-width="0.75" d="M101.55,-172.74C113.9,-171.59 174.3,-165.94 186.45,-164.81"/>
</g>
<!-- 16&#45;&#45;25 -->
<g id="edge60" class="edge">
<title>16&#45;&#45;25</title>
<path fill="none" stroke="black" stroke-width="0.75" d="M129.8,-159.37C120.12,-156.61 80.21,-145.21 70.39,-142.4"/>
</g>
<!-- 16&#45;&#45;17 -->
<g id="edge58" class="edge">
<title>16&#45;&#45;17</title>
<path fill="none" stroke="black" stroke-width="0.75" d="M133.3,-161.5C140.99,-169.96 178.35,-211.07 186.43,-219.96"/>
</g>
<!-- 16&#45;&#45;18 -->
<g id="edge59" class="edge">
<title>16&#45;&#45;18</title>
<path fill="none" stroke="black" stroke-width="0.75" d="M134.13,-160.2C147.91,-161.6 221.85,-169.08 235.59,-170.47"/>
</g>
<!-- 25&#45;&#45;26 -->
<g id="edge79" class="edge">
<title>25&#45;&#45;26</title>
<path fill="none" stroke="black" stroke-width="0.75" d="M69.6,-143.56C77.51,-153.54 116.17,-202.37 123.95,-212.19"/>
</g>
<!-- 25&#45;&#45;27 -->
<g id="edge80" class="edge">
<title>25&#45;&#45;27</title>
<path fill="none" stroke="black" stroke-width="0.75" d="M70.28,-142.17C84.89,-144.94 171.63,-161.4 186.43,-164.2"/>
</g>
<!-- 17&#45;&#45;26 -->
<g id="edge62" class="edge">
<title>17&#45;&#45;26</title>
<path fill="none" stroke="black" stroke-width="0.75" d="M185.89,-221.4C176.38,-220.22 137.13,-215.37 127.47,-214.17"/>
</g>
<!-- 17&#45;&#45;18 -->
<g id="edge61" class="edge">
<title>17&#45;&#45;18</title>
<path fill="none" stroke="black" stroke-width="0.75" d="M189.21,-220.4C196.04,-213.41 229.24,-179.44 236.42,-172.1"/>
</g>
<!-- 26&#45;&#45;27 -->
<g id="edge81" class="edge">
<title>26&#45;&#45;27</title>
<path fill="none" stroke="black" stroke-width="0.75" d="M126.87,-212.69C135.55,-205.93 177.71,-173.07 186.83,-165.97"/>
</g>
<!-- 18&#45;&#45;27 -->
<g id="edge63" class="edge">
<title>18&#45;&#45;27</title>
<path fill="none" stroke="black" stroke-width="0.75" d="M235.67,-170.43C227.58,-169.43 198.61,-165.85 190.63,-164.86"/>
</g>
</g>
</svg>
