<svg xmlns="http://www.w3.org/2000/svg" width="161.8" height="100.0" viewBox="-4 -5 172 110">
<g fill="none" stroke="black" stroke-width="8.6100%" transform="translate(0, 100.6969) scale(0.0581, -0.0581)">
<circle cx="11" cy="208" r="9" />
<circle cx="22" cy="1327" r="9" />
<circle cx="33" cy="464" r="9" />
<circle cx="45" cy="559" r="9" />
<circle cx="56" cy="976" r="9" />
<circle cx="67" cy="47" r="9" />
<circle cx="78" cy="1488" r="9" />
<circle cx="89" cy="303" r="9" />
<circle cx="100" cy="720" r="9" />
<circle cx="111" cy="1071" r="9" />
<circle cx="123" cy="848" r="9" />
<circle cx="134" cy="175" r="9" />
<circle cx="145" cy="1360" r="9" />
<circle cx="156" cy="623" r="9" />
<circle cx="167" cy="400" r="9" />
<circle cx="178" cy="1135" r="9" />
<circle cx="189" cy="656" r="9" />
<circle cx="201" cy="367" r="9" />
<circle cx="212" cy="1168" r="9" />
<circle cx="223" cy="751" r="9" />
<circle cx="234" cy="272" r="9" />
<circle cx="245" cy="1263" r="9" />
<circle cx="256" cy="528" r="9" />
<circle cx="267" cy="495" r="9" />
<circle cx="279" cy="1040" r="9" />
<circle cx="290" cy="879" r="9" />
<circle cx="301" cy="144" r="9" />
<circle cx="312" cy="1391" r="9" />
<circle cx="323" cy="624" r="9" />
<circle cx="334" cy="399" r="9" />
<circle cx="345" cy="1136" r="9" />
<circle cx="357" cy="655" r="9" />
<circle cx="368" cy="368" r="9" />
<circle cx="379" cy="1167" r="9" />
<circle cx="390" cy="752" r="9" />
<circle cx="401" cy="271" r="9" />
<circle cx="412" cy="1264" r="9" />
<circle cx="424" cy="527" r="9" />
<circle cx="435" cy="496" r="9" />
<circle cx="446" cy="1039" r="9" />
<circle cx="457" cy="880" r="9" />
<circle cx="468" cy="143" r="9" />
<circle cx="479" cy="1392" r="9" />
<circle cx="490" cy="591" r="9" />
<circle cx="502" cy="432" r="9" />
<circle cx="513" cy="1103" r="9" />
<circle cx="524" cy="688" r="9" />
<circle cx="535" cy="335" r="9" />
<circle cx="546" cy="1200" r="9" />
<circle cx="557" cy="719" r="9" />
<circle cx="568" cy="304" r="9" />
<circle cx="580" cy="1231" r="9" />
<circle cx="591" cy="560" r="9" />
<circle cx="602" cy="463" r="9" />
<circle cx="613" cy="1072" r="9" />
<circle cx="624" cy="847" r="9" />
<circle cx="635" cy="176" r="9" />
<circle cx="646" cy="1359" r="9" />
<circle cx="658" cy="672" r="9" />
<circle cx="669" cy="351" r="9" />
<circle cx="680" cy="1184" r="9" />
<circle cx="691" cy="607" r="9" />
<circle cx="702" cy="416" r="9" />
<circle cx="713" cy="1119" r="9" />
<circle cx="724" cy="800" r="9" />
<circle cx="736" cy="223" r="9" />
<circle cx="747" cy="1312" r="9" />
<circle cx="758" cy="479" r="9" />
<circle cx="769" cy="544" r="9" />
<circle cx="780" cy="991" r="9" />
<circle cx="791" cy="32" r="9" />
<circle cx="802" cy="1503" r="9" />
<circle cx="814" cy="288" r="9" />
<circle cx="825" cy="735" r="9" />
<circle cx="836" cy="1056" r="9" />
<circle cx="847" cy="863" r="9" />
<circle cx="858" cy="160" r="9" />
<circle cx="869" cy="1375" r="9" />
<circle cx="880" cy="608" r="9" />
<circle cx="892" cy="415" r="9" />
<circle cx="903" cy="1120" r="9" />
<circle cx="914" cy="671" r="9" />
<circle cx="925" cy="352" r="9" />
<circle cx="936" cy="1183" r="9" />
<circle cx="947" cy="736" r="9" />
<circle cx="958" cy="287" r="9" />
<circle cx="970" cy="1248" r="9" />
<circle cx="981" cy="543" r="9" />
<circle cx="992" cy="480" r="9" />
<circle cx="1003" cy="1055" r="9" />
<circle cx="1014" cy="864" r="9" />
<circle cx="1025" cy="159" r="9" />
<circle cx="1036" cy="1376" r="9" />
<circle cx="1048" cy="639" r="9" />
<circle cx="1059" cy="384" r="9" />
<circle cx="1070" cy="1151" r="9" />
<circle cx="1081" cy="640" r="9" />
<circle cx="1092" cy="383" r="9" />
<circle cx="1103" cy="1152" r="9" />
<circle cx="1115" cy="767" r="9" />
<circle cx="1126" cy="256" r="9" />
<circle cx="1137" cy="1279" r="9" />
<circle cx="1148" cy="512" r="9" />
<circle cx="1159" cy="511" r="9" />
<circle cx="1170" cy="1024" r="9" />
<circle cx="1181" cy="895" r="9" />
<circle cx="1193" cy="128" r="9" />
<circle cx="1204" cy="1407" r="9" />
<circle cx="1215" cy="576" r="9" />
<circle cx="1226" cy="447" r="9" />
<circle cx="1237" cy="1088" r="9" />
<circle cx="1248" cy="703" r="9" />
<circle cx="1259" cy="320" r="9" />
<circle cx="1271" cy="1215" r="9" />
<circle cx="1282" cy="704" r="9" />
<circle cx="1293" cy="319" r="9" />
<circle cx="1304" cy="1216" r="9" />
<circle cx="1315" cy="575" r="9" />
<circle cx="1326" cy="448" r="9" />
<circle cx="1337" cy="1087" r="9" />
<circle cx="1349" cy="832" r="9" />
<circle cx="1360" cy="191" r="9" />
<circle cx="1371" cy="1344" r="9" />
<circle cx="1382" cy="1471" r="9" />
<circle cx="1393" cy="64" r="9" />
<circle cx="1404" cy="959" r="9" />
<circle cx="1415" cy="960" r="9" />
<circle cx="1427" cy="63" r="9" />
<circle cx="1438" cy="1472" r="9" />
<circle cx="1449" cy="1343" r="9" />
<circle cx="1460" cy="192" r="9" />
<circle cx="1471" cy="831" r="9" />
<circle cx="1482" cy="1728" r="9" />
<circle cx="1493" cy="255" r="9" />
<circle cx="1505" cy="768" r="9" />
<circle cx="1516" cy="1023" r="9" />
<circle cx="1527" cy="896" r="9" />
<circle cx="1538" cy="127" r="9" />
<circle cx="1549" cy="1408" r="9" />
<circle cx="1560" cy="1535" r="9" />
<circle cx="1571" cy="1280" r="9" />
<circle cx="1583" cy="1663" r="9" />
<circle cx="1594" cy="1406" r="9" />
<circle cx="1605" cy="129" r="9" />
<circle cx="1616" cy="894" r="9" />
<circle cx="1627" cy="897" r="9" />
<circle cx="1638" cy="126" r="9" />
<circle cx="1649" cy="1409" r="9" />
<circle cx="1661" cy="1534" r="9" />
<circle cx="1672" cy="1529" r="9" />
<circle cx="1683" cy="6" r="9" />
<circle cx="1694" cy="1017" r="9" />
<circle cx="1705" cy="774" r="9" />
<circle cx="1716" cy="249" r="9" />
<circle cx="1727" cy="1286" r="9" />
<circle cx="1739" cy="1657" r="9" />
<circle cx="1750" cy="902" r="9" />
<circle cx="1761" cy="121" r="9" />
<circle cx="1772" cy="1414" r="9" />
<circle cx="1783" cy="1593" r="9" />
<circle cx="1794" cy="198" r="9" />
<circle cx="1805" cy="825" r="9" />
<circle cx="1817" cy="966" r="9" />
<circle cx="1828" cy="57" r="9" />
<circle cx="1839" cy="1478" r="9" />
<circle cx="1850" cy="1337" r="9" />
<circle cx="1861" cy="1606" r="9" />
<circle cx="1872" cy="953" r="9" />
<circle cx="1884" cy="70" r="9" />
<circle cx="1895" cy="1465" r="9" />
<circle cx="1906" cy="1542" r="9" />
<circle cx="1917" cy="1513" r="9" />
<circle cx="1928" cy="22" r="9" />
<circle cx="1939" cy="1001" r="9" />
<circle cx="1950" cy="790" r="9" />
<circle cx="1962" cy="233" r="9" />
<circle cx="1973" cy="1302" r="9" />
<circle cx="1984" cy="1641" r="9" />
<circle cx="1995" cy="918" r="9" />
<circle cx="2006" cy="105" r="9" />
<circle cx="2017" cy="1430" r="9" />
<circle cx="2028" cy="1577" r="9" />
<circle cx="2040" cy="1238" r="9" />
<circle cx="2051" cy="777" r="9" />
<circle cx="2062" cy="246" r="9" />
<circle cx="2073" cy="1289" r="9" />
<circle cx="2084" cy="1526" r="9" />
<circle cx="2095" cy="9" r="9" />
<circle cx="2106" cy="1014" r="9" />
<circle cx="2118" cy="905" r="9" />
<circle cx="2129" cy="118" r="9" />
<circle cx="2140" cy="1417" r="9" />
<circle cx="2151" cy="1590" r="9" />
<circle cx="2162" cy="201" r="9" />
<circle cx="2173" cy="822" r="9" />
<circle cx="2184" cy="969" r="9" />
<circle cx="2196" cy="54" r="9" />
<circle cx="2207" cy="1481" r="9" />
<circle cx="2218" cy="1334" r="9" />
<circle cx="2229" cy="1609" r="9" />
<circle cx="2240" cy="950" r="9" />
<circle cx="2251" cy="73" r="9" />
<circle cx="2262" cy="1462" r="9" />
<circle cx="2274" cy="1545" r="9" />
<circle cx="2285" cy="1510" r="9" />
<circle cx="2296" cy="25" r="9" />
<circle cx="2307" cy="998" r="9" />
<circle cx="2318" cy="793" r="9" />
<circle cx="2329" cy="230" r="9" />
<circle cx="2340" cy="1305" r="9" />
<circle cx="2352" cy="1638" r="9" />
<circle cx="2363" cy="921" r="9" />
<circle cx="2374" cy="102" r="9" />
<circle cx="2385" cy="1433" r="9" />
<circle cx="2396" cy="1574" r="9" />
<circle cx="2407" cy="1241" r="9" />
<circle cx="2418" cy="802" r="9" />
<circle cx="2430" cy="221" r="9" />
<circle cx="2441" cy="1314" r="9" />
<circle cx="2452" cy="1501" r="9" />
<circle cx="2463" cy="34" r="9" />
<circle cx="2474" cy="989" r="9" />
<circle cx="2485" cy="930" r="9" />
<circle cx="2496" cy="93" r="9" />
<circle cx="2508" cy="1442" r="9" />
<circle cx="2519" cy="1565" r="9" />
<circle cx="2530" cy="1250" r="9" />
<circle cx="2541" cy="781" r="9" />
<circle cx="2552" cy="242" r="9" />
<circle cx="2563" cy="1293" r="9" />
<circle cx="2574" cy="1522" r="9" />
<circle cx="2586" cy="13" r="9" />
<circle cx="2597" cy="1010" r="9" />
<circle cx="2608" cy="909" r="9" />
<circle cx="2619" cy="114" r="9" />
<circle cx="2630" cy="1421" r="9" />
<circle cx="2641" cy="1586" r="9" />
<circle cx="2653" cy="1229" r="9" />
<circle cx="2664" cy="786" r="9" />
<circle cx="2675" cy="237" r="9" />
<circle cx="2686" cy="1298" r="9" />
<circle cx="2697" cy="1517" r="9" />
<circle cx="2708" cy="18" r="9" />
<circle cx="2719" cy="1005" r="9" />
<circle cx="2731" cy="914" r="9" />
<circle cx="2742" cy="109" r="9" />
<circle cx="2753" cy="1426" r="9" />
<circle cx="2764" cy="1581" r="9" />
<circle cx="2775" cy="210" r="9" />
<circle cx="2786" cy="813" r="9" />
<circle cx="2797" cy="978" r="9" />
</g>
</svg>