<svg xmlns="http://www.w3.org/2000/svg" width="161.8" height="100.0" viewBox="-2.899 -5.000 171.803 110.000">
<g fill="none" stroke="black" stroke-width="0.0150%" transform="translate(0, 100.0000) scale(33.3333, -33.3333)">

<line x1="0.126" y1="0.000" x2="0.126" y2="1.000" />
<line x1="0.189" y1="0.000" x2="0.189" y2="1.000" />
<line x1="0.252" y1="0.000" x2="0.252" y2="1.000" />

<line x1="0.378" y1="0.000" x2="0.378" y2="1.000" />
<line x1="0.441" y1="0.000" x2="0.441" y2="2.000" />
<line x1="0.504" y1="0.000" x2="0.504" y2="2.000" />
<line x1="0.567" y1="0.000" x2="0.567" y2="2.000" />
<line x1="0.630" y1="0.000" x2="0.630" y2="2.000" />
<line x1="0.693" y1="0.000" x2="0.693" y2="1.000" />
<line x1="0.756" y1="0.000" x2="0.756" y2="1.000" />

<line x1="0.883" y1="0.000" x2="0.883" y2="1.000" />
<line x1="0.946" y1="0.000" x2="0.946" y2="1.000" />
<line x1="1.009" y1="0.000" x2="1.009" y2="2.000" />
<line x1="1.072" y1="0.000" x2="1.072" y2="2.000" />
<line x1="1.135" y1="0.000" x2="1.135" y2="1.000" />
<line x1="1.198" y1="0.000" x2="1.198" y2="1.000" />
<line x1="1.261" y1="0.000" x2="1.261" y2="2.000" />
<line x1="1.324" y1="0.000" x2="1.324" y2="2.000" />
<line x1="1.387" y1="0.000" x2="1.387" y2="2.000" />
<line x1="1.450" y1="0.000" x2="1.450" y2="1.000" />
<line x1="1.513" y1="0.000" x2="1.513" y2="2.000" />

<line x1="1.639" y1="0.000" x2="1.639" y2="2.000" />
<line x1="1.702" y1="0.000" x2="1.702" y2="1.000" />
<line x1="1.765" y1="0.000" x2="1.765" y2="2.000" />
<line x1="1.828" y1="0.000" x2="1.828" y2="3.000" />
<line x1="1.891" y1="0.000" x2="1.891" y2="3.000" />
<line x1="1.954" y1="0.000" x2="1.954" y2="3.000" />
<line x1="2.017" y1="0.000" x2="2.017" y2="3.000" />
<line x1="2.080" y1="0.000" x2="2.080" y2="3.000" />
<line x1="2.143" y1="0.000" x2="2.143" y2="3.000" />
<line x1="2.206" y1="0.000" x2="2.206" y2="3.000" />
<line x1="2.269" y1="0.000" x2="2.269" y2="3.000" />
<line x1="2.332" y1="0.000" x2="2.332" y2="1.000" />
<line x1="2.396" y1="0.000" x2="2.396" y2="2.000" />
<line x1="2.459" y1="0.000" x2="2.459" y2="1.000" />
<line x1="2.522" y1="0.000" x2="2.522" y2="2.000" />

<line x1="2.648" y1="0.000" x2="2.648" y2="2.000" />
<line x1="2.711" y1="0.000" x2="2.711" y2="1.000" />
<line x1="2.774" y1="0.000" x2="2.774" y2="2.000" />
<line x1="2.837" y1="0.000" x2="2.837" y2="1.000" />
<line x1="2.900" y1="0.000" x2="2.900" y2="2.000" />
<line x1="2.963" y1="0.000" x2="2.963" y2="2.000" />
<line x1="3.026" y1="0.000" x2="3.026" y2="2.000" />
<line x1="3.089" y1="0.000" x2="3.089" y2="2.000" />
<line x1="3.152" y1="0.000" x2="3.152" y2="1.000" />
<line x1="3.215" y1="0.000" x2="3.215" y2="1.000" />
<line x1="3.278" y1="0.000" x2="3.278" y2="2.000" />
<line x1="3.341" y1="0.000" x2="3.341" y2="2.000" />
<line x1="3.404" y1="0.000" x2="3.404" y2="2.000" />
<line x1="3.467" y1="0.000" x2="3.467" y2="2.000" />
<line x1="3.530" y1="0.000" x2="3.530" y2="2.000" />
<line x1="3.593" y1="0.000" x2="3.593" y2="1.000" />
<line x1="3.656" y1="0.000" x2="3.656" y2="2.000" />
<line x1="3.719" y1="0.000" x2="3.719" y2="1.000" />
<line x1="3.782" y1="0.000" x2="3.782" y2="1.000" />

<line x1="3.908" y1="0.000" x2="3.908" y2="1.000" />
<line x1="3.972" y1="0.000" x2="3.972" y2="1.000" />
<line x1="4.035" y1="0.000" x2="4.035" y2="2.000" />
<line x1="4.098" y1="0.000" x2="4.098" y2="1.000" />
<line x1="4.161" y1="0.000" x2="4.161" y2="2.000" />
<line x1="4.224" y1="0.000" x2="4.224" y2="3.000" />
<line x1="4.287" y1="0.000" x2="4.287" y2="3.000" />
<line x1="4.350" y1="0.000" x2="4.350" y2="3.000" />
<line x1="4.413" y1="0.000" x2="4.413" y2="3.000" />
<line x1="4.476" y1="0.000" x2="4.476" y2="2.000" />
<line x1="4.539" y1="0.000" x2="4.539" y2="2.000" />
<line x1="4.602" y1="0.000" x2="4.602" y2="2.000" />
<line x1="4.665" y1="0.000" x2="4.665" y2="2.000" />
<line x1="4.728" y1="0.000" x2="4.728" y2="3.000" />
<line x1="4.791" y1="0.000" x2="4.791" y2="3.000" />
<line x1="4.854" y1="0.000" x2="4.854" y2="3.000" />
<line x1="4.917" y1="0.000" x2="4.917" y2="3.000" />
</g>
</svg>