<svg xmlns="http://www.w3.org/2000/svg" width="98.6" height="100.0" viewBox="-4.211 -3.990 108.643 110.000">
<g fill="none" stroke="black" stroke-width="0.0050%" transform="translate(0, 102.0202) scale(101.0101, -101.0101)">
<circle cx="0.500" cy="0.010" r="0.005" />
<circle cx="0.250" cy="0.020" r="0.005" />
<circle cx="0.750" cy="0.030" r="0.005" />
<circle cx="0.125" cy="0.040" r="0.005" />
<circle cx="0.625" cy="0.050" r="0.005" />
<circle cx="0.375" cy="0.060" r="0.005" />
<circle cx="0.875" cy="0.070" r="0.005" />
<circle cx="0.063" cy="0.080" r="0.005" />
<circle cx="0.563" cy="0.090" r="0.005" />
<circle cx="0.313" cy="0.100" r="0.005" />
<circle cx="0.813" cy="0.110" r="0.005" />
<circle cx="0.188" cy="0.120" r="0.005" />
<circle cx="0.688" cy="0.130" r="0.005" />
<circle cx="0.438" cy="0.140" r="0.005" />
<circle cx="0.938" cy="0.150" r="0.005" />
<circle cx="0.031" cy="0.160" r="0.005" />
<circle cx="0.531" cy="0.170" r="0.005" />
<circle cx="0.281" cy="0.180" r="0.005" />
<circle cx="0.781" cy="0.190" r="0.005" />
<circle cx="0.156" cy="0.200" r="0.005" />
<circle cx="0.656" cy="0.210" r="0.005" />
<circle cx="0.406" cy="0.220" r="0.005" />
<circle cx="0.906" cy="0.230" r="0.005" />
<circle cx="0.094" cy="0.240" r="0.005" />
<circle cx="0.594" cy="0.250" r="0.005" />
<circle cx="0.344" cy="0.260" r="0.005" />
<circle cx="0.844" cy="0.270" r="0.005" />
<circle cx="0.219" cy="0.280" r="0.005" />
<circle cx="0.719" cy="0.290" r="0.005" />
<circle cx="0.469" cy="0.300" r="0.005" />
<circle cx="0.969" cy="0.310" r="0.005" />
<circle cx="0.016" cy="0.320" r="0.005" />
<circle cx="0.516" cy="0.330" r="0.005" />
<circle cx="0.266" cy="0.340" r="0.005" />
<circle cx="0.766" cy="0.350" r="0.005" />
<circle cx="0.141" cy="0.360" r="0.005" />
<circle cx="0.641" cy="0.370" r="0.005" />
<circle cx="0.391" cy="0.380" r="0.005" />
<circle cx="0.891" cy="0.390" r="0.005" />
<circle cx="0.078" cy="0.400" r="0.005" />
<circle cx="0.578" cy="0.410" r="0.005" />
<circle cx="0.328" cy="0.420" r="0.005" />
<circle cx="0.828" cy="0.430" r="0.005" />
<circle cx="0.203" cy="0.440" r="0.005" />
<circle cx="0.703" cy="0.450" r="0.005" />
<circle cx="0.453" cy="0.460" r="0.005" />
<circle cx="0.953" cy="0.470" r="0.005" />
<circle cx="0.047" cy="0.480" r="0.005" />
<circle cx="0.547" cy="0.490" r="0.005" />
<circle cx="0.297" cy="0.500" r="0.005" />
<circle cx="0.797" cy="0.510" r="0.005" />
<circle cx="0.172" cy="0.520" r="0.005" />
<circle cx="0.672" cy="0.530" r="0.005" />
<circle cx="0.422" cy="0.540" r="0.005" />
<circle cx="0.922" cy="0.550" r="0.005" />
<circle cx="0.109" cy="0.560" r="0.005" />
<circle cx="0.609" cy="0.570" r="0.005" />
<circle cx="0.359" cy="0.580" r="0.005" />
<circle cx="0.859" cy="0.590" r="0.005" />
<circle cx="0.234" cy="0.600" r="0.005" />
<circle cx="0.734" cy="0.610" r="0.005" />
<circle cx="0.484" cy="0.620" r="0.005" />
<circle cx="0.984" cy="0.630" r="0.005" />
<circle cx="0.008" cy="0.640" r="0.005" />
<circle cx="0.508" cy="0.650" r="0.005" />
<circle cx="0.258" cy="0.660" r="0.005" />
<circle cx="0.758" cy="0.670" r="0.005" />
<circle cx="0.133" cy="0.680" r="0.005" />
<circle cx="0.633" cy="0.690" r="0.005" />
<circle cx="0.383" cy="0.700" r="0.005" />
<circle cx="0.883" cy="0.710" r="0.005" />
<circle cx="0.070" cy="0.720" r="0.005" />
<circle cx="0.570" cy="0.730" r="0.005" />
<circle cx="0.320" cy="0.740" r="0.005" />
<circle cx="0.820" cy="0.750" r="0.005" />
<circle cx="0.195" cy="0.760" r="0.005" />
<circle cx="0.695" cy="0.770" r="0.005" />
<circle cx="0.445" cy="0.780" r="0.005" />
<circle cx="0.945" cy="0.790" r="0.005" />
<circle cx="0.039" cy="0.800" r="0.005" />
<circle cx="0.539" cy="0.810" r="0.005" />
<circle cx="0.289" cy="0.820" r="0.005" />
<circle cx="0.789" cy="0.830" r="0.005" />
<circle cx="0.164" cy="0.840" r="0.005" />
<circle cx="0.664" cy="0.850" r="0.005" />
<circle cx="0.414" cy="0.860" r="0.005" />
<circle cx="0.914" cy="0.870" r="0.005" />
<circle cx="0.102" cy="0.880" r="0.005" />
<circle cx="0.602" cy="0.890" r="0.005" />
<circle cx="0.352" cy="0.900" r="0.005" />
<circle cx="0.852" cy="0.910" r="0.005" />
<circle cx="0.227" cy="0.920" r="0.005" />
<circle cx="0.727" cy="0.930" r="0.005" />
<circle cx="0.477" cy="0.940" r="0.005" />
<circle cx="0.977" cy="0.950" r="0.005" />
<circle cx="0.023" cy="0.960" r="0.005" />
<circle cx="0.523" cy="0.970" r="0.005" />
<circle cx="0.273" cy="0.980" r="0.005" />
<circle cx="0.773" cy="0.990" r="0.005" />
<circle cx="0.148" cy="1.000" r="0.005" />
</g>
</svg>