<svg xmlns="http://www.w3.org/2000/svg" width="161.8" height="100.0" viewBox="-3 -5 172 110">
<g fill="none" stroke="black" stroke-width="8.3850%" transform="translate(0, 100.1193) scale(0.0596, -0.0596)">
<circle cx="33" cy="1" r="8" />
<circle cx="65" cy="2" r="8" />
<circle cx="98" cy="5" r="8" />
<circle cx="131" cy="6" r="8" />
<circle cx="163" cy="9" r="8" />
<circle cx="196" cy="12" r="8" />
<circle cx="229" cy="21" r="8" />
<circle cx="262" cy="22" r="8" />
<circle cx="294" cy="25" r="8" />
<circle cx="327" cy="28" r="8" />
<circle cx="360" cy="37" r="8" />
<circle cx="392" cy="40" r="8" />
<circle cx="425" cy="49" r="8" />
<circle cx="458" cy="58" r="8" />
<circle cx="490" cy="85" r="8" />
<circle cx="523" cy="86" r="8" />
<circle cx="556" cy="89" r="8" />
<circle cx="588" cy="92" r="8" />
<circle cx="621" cy="101" r="8" />
<circle cx="654" cy="104" r="8" />
<circle cx="687" cy="113" r="8" />
<circle cx="719" cy="122" r="8" />
<circle cx="752" cy="149" r="8" />
<circle cx="785" cy="152" r="8" />
<circle cx="817" cy="161" r="8" />
<circle cx="850" cy="170" r="8" />
<circle cx="883" cy="197" r="8" />
<circle cx="915" cy="206" r="8" />
<circle cx="948" cy="233" r="8" />
<circle cx="981" cy="260" r="8" />
<circle cx="1013" cy="341" r="8" />
<circle cx="1046" cy="342" r="8" />
<circle cx="1079" cy="345" r="8" />
<circle cx="1112" cy="348" r="8" />
<circle cx="1144" cy="357" r="8" />
<circle cx="1177" cy="360" r="8" />
<circle cx="1210" cy="369" r="8" />
<circle cx="1242" cy="378" r="8" />
<circle cx="1275" cy="405" r="8" />
<circle cx="1308" cy="408" r="8" />
<circle cx="1340" cy="417" r="8" />
<circle cx="1373" cy="426" r="8" />
<circle cx="1406" cy="453" r="8" />
<circle cx="1438" cy="462" r="8" />
<circle cx="1471" cy="489" r="8" />
<circle cx="1504" cy="516" r="8" />
<circle cx="1537" cy="597" r="8" />
<circle cx="1569" cy="600" r="8" />
<circle cx="1602" cy="609" r="8" />
<circle cx="1635" cy="618" r="8" />
<circle cx="1667" cy="645" r="8" />
<circle cx="1700" cy="654" r="8" />
<circle cx="1733" cy="681" r="8" />
<circle cx="1765" cy="708" r="8" />
<circle cx="1798" cy="789" r="8" />
<circle cx="1831" cy="798" r="8" />
<circle cx="1863" cy="825" r="8" />
<circle cx="1896" cy="852" r="8" />
<circle cx="1929" cy="933" r="8" />
<circle cx="1962" cy="960" r="8" />
<circle cx="1994" cy="1041" r="8" />
<circle cx="2027" cy="1122" r="8" />
<circle cx="2060" cy="1365" r="8" />
<circle cx="2092" cy="1366" r="8" />
<circle cx="2125" cy="1369" r="8" />
<circle cx="2158" cy="1372" r="8" />
<circle cx="2190" cy="1381" r="8" />
<circle cx="2223" cy="1384" r="8" />
<circle cx="2256" cy="1393" r="8" />
<circle cx="2288" cy="1402" r="8" />
<circle cx="2321" cy="1429" r="8" />
<circle cx="2354" cy="1432" r="8" />
<circle cx="2387" cy="1441" r="8" />
<circle cx="2419" cy="1450" r="8" />
<circle cx="2452" cy="1477" r="8" />
<circle cx="2485" cy="1486" r="8" />
<circle cx="2517" cy="1513" r="8" />
<circle cx="2550" cy="1540" r="8" />
<circle cx="2583" cy="1621" r="8" />
<circle cx="2615" cy="1624" r="8" />
<circle cx="2648" cy="1633" r="8" />
<circle cx="2681" cy="1642" r="8" />
<circle cx="2713" cy="1669" r="8" />
<circle cx="2746" cy="1678" r="8" />
</g>
</svg>