<svg xmlns="http://www.w3.org/2000/svg" width="161.803" height="100.000" viewBox="-85.902 -5.000 171.803 110.000">
<g fill="none" stroke="black" stroke-width="0.005%" transform="translate(0, 100.000) scale(100.000, -100.000)">
<circle cx="-0.809" cy="0.000" r="0.010" />
<circle cx="0.000" cy="1.000" r="0.010" />
<polyline points="-0.809,0.087 -0.793,0.088 -0.777,0.091 -0.760,0.095 -0.744,0.101 -0.728,0.109 -0.712,0.119 -0.696,0.130 -0.680,0.143 -0.663,0.158 -0.647,0.174 -0.631,0.192 -0.615,0.211 -0.599,0.231 -0.582,0.252 -0.566,0.275 -0.550,0.299 -0.534,0.324 -0.518,0.349 -0.502,0.375 -0.485,0.402 -0.469,0.430 -0.453,0.458 -0.437,0.486 -0.421,0.515 -0.405,0.543 -0.388,0.572 -0.372,0.601 -0.356,0.629 -0.340,0.657 -0.324,0.685 -0.307,0.712 -0.291,0.738 -0.275,0.763 -0.259,0.788 -0.243,0.812 -0.227,0.834 -0.210,0.856 -0.194,0.876 -0.178,0.895 -0.162,0.913 -0.146,0.929 -0.129,0.944 -0.113,0.957 -0.097,0.968 -0.081,0.978 -0.065,0.986 -0.049,0.992 -0.032,0.996 -0.016,0.999 0.000,1.000 0.016,0.999 0.032,0.996 0.049,0.992 0.065,0.986 0.081,0.978 0.097,0.968 0.113,0.957 0.129,0.944 0.146,0.929 0.162,0.913 0.178,0.895 0.194,0.876 0.210,0.856 0.227,0.834 0.243,0.812 0.259,0.788 0.275,0.763 0.291,0.738 0.307,0.712 0.324,0.685 0.340,0.657 0.356,0.629 0.372,0.601 0.388,0.572 0.405,0.543 0.421,0.515 0.437,0.486 0.453,0.458 0.469,0.430 0.485,0.402 0.502,0.375 0.518,0.349 0.534,0.324 0.550,0.299 0.566,0.275 0.582,0.252 0.599,0.231 0.615,0.211 0.631,0.192 0.647,0.174 0.663,0.158 0.680,0.143 0.696,0.130 0.712,0.119 0.728,0.109 0.744,0.101 0.760,0.095 0.777,0.091 0.793,0.088 0.809,0.000" />
</g>
</svg>