<?xml version="1.0" encoding="UTF-8" standalone="no"?>
<!DOCTYPE svg PUBLIC "-//W3C//DTD SVG 1.1//EN"
 "http://www.w3.org/Graphics/SVG/1.1/DTD/svg11.dtd">
<!-- Generated by graphviz version 12.0.0 (0)
 -->
<!-- Pages: 1 -->
<svg width="54pt" height="54pt"
 viewBox="0.00 0.00 53.85 54.00" xmlns="http://www.w3.org/2000/svg" xmlns:xlink="http://www.w3.org/1999/xlink">
<g id="graph0" class="graph" transform="scale(0.377698 0.377698) rotate(0) translate(4 138.97)">
<!-- 1 -->
<g id="node1" class="node">
<title>1</title>
<ellipse fill="black" stroke="black" cx="107.41" cy="-18" rx="1.8" ry="1.8"/>
</g>
<!-- 2 -->
<g id="node2" class="node">
<title>2</title>
<ellipse fill="black" stroke="black" cx="132.79" cy="-61.31" rx="1.8" ry="1.8"/>
</g>
<!-- 1&#45;&#45;2 -->
<g id="edge1" class="edge">
<title>1&#45;&#45;2</title>
<path fill="none" stroke="black" stroke-width="0.75" d="M108.5,-19.86C112.67,-26.99 127.61,-52.48 131.73,-59.51"/>
</g>
<!-- 3 -->
<g id="node3" class="node">
<title>3</title>
<ellipse fill="black" stroke="black" cx="117.25" cy="-109.89" rx="1.8" ry="1.8"/>
</g>
<!-- 1&#45;&#45;3 -->
<g id="edge2" class="edge">
<title>1&#45;&#45;3</title>
<path fill="none" stroke="black" stroke-width="0.75" d="M107.65,-20.27C109.01,-32.99 115.68,-95.19 117.02,-107.7"/>
</g>
<!-- 7 -->
<g id="node7" class="node">
<title>7</title>
<ellipse fill="black" stroke="black" cx="15.11" cy="-26.16" rx="1.8" ry="1.8"/>
</g>
<!-- 1&#45;&#45;7 -->
<g id="edge14" class="edge">
<title>1&#45;&#45;7</title>
<path fill="none" stroke="black" stroke-width="0.75" d="M105.12,-18.21C92.36,-19.33 29.87,-24.86 17.31,-25.97"/>
</g>
<!-- 8 -->
<g id="node8" class="node">
<title>8</title>
<ellipse fill="black" stroke="black" cx="60.12" cy="-1.8" rx="1.8" ry="1.8"/>
</g>
<!-- 1&#45;&#45;8 -->
<g id="edge15" class="edge">
<title>1&#45;&#45;8</title>
<path fill="none" stroke="black" stroke-width="0.75" d="M105.37,-17.31C97.6,-14.64 69.77,-5.11 62.1,-2.48"/>
</g>
<!-- 2&#45;&#45;3 -->
<g id="edge3" class="edge">
<title>2&#45;&#45;3</title>
<path fill="none" stroke="black" stroke-width="0.75" d="M132.12,-63.4C129.56,-71.39 120.42,-99.98 117.9,-107.86"/>
</g>
<!-- 4 -->
<g id="node4" class="node">
<title>4</title>
<ellipse fill="black" stroke="black" cx="73.13" cy="-133.17" rx="1.8" ry="1.8"/>
</g>
<!-- 2&#45;&#45;4 -->
<g id="edge4" class="edge">
<title>2&#45;&#45;4</title>
<path fill="none" stroke="black" stroke-width="0.75" d="M131.54,-62.81C123.84,-72.08 82.83,-121.49 74.58,-131.43"/>
</g>
<!-- 2&#45;&#45;8 -->
<g id="edge16" class="edge">
<title>2&#45;&#45;8</title>
<path fill="none" stroke="black" stroke-width="0.75" d="M131.27,-60.07C121.89,-52.39 71.94,-11.48 61.89,-3.24"/>
</g>
<!-- 3&#45;&#45;4 -->
<g id="edge5" class="edge">
<title>3&#45;&#45;4</title>
<path fill="none" stroke="black" stroke-width="0.75" d="M115.35,-110.89C108.1,-114.72 82.13,-128.42 74.97,-132.2"/>
</g>
<!-- 5 -->
<g id="node5" class="node">
<title>5</title>
<ellipse fill="black" stroke="black" cx="24.27" cy="-119.41" rx="1.8" ry="1.8"/>
</g>
<!-- 3&#45;&#45;5 -->
<g id="edge6" class="edge">
<title>3&#45;&#45;5</title>
<path fill="none" stroke="black" stroke-width="0.75" d="M115.31,-110.09C103.31,-111.31 39.39,-117.86 26.53,-119.18"/>
</g>
<!-- 4&#45;&#45;5 -->
<g id="edge7" class="edge">
<title>4&#45;&#45;5</title>
<path fill="none" stroke="black" stroke-width="0.75" d="M71.03,-132.58C63,-130.32 34.24,-122.22 26.31,-119.98"/>
</g>
<!-- 6 -->
<g id="node6" class="node">
<title>6</title>
<ellipse fill="black" stroke="black" cx="1.8" cy="-74.29" rx="1.8" ry="1.8"/>
</g>
<!-- 4&#45;&#45;6 -->
<g id="edge8" class="edge">
<title>4&#45;&#45;6</title>
<path fill="none" stroke="black" stroke-width="0.75" d="M71.37,-131.72C61.5,-123.57 13.21,-83.71 3.5,-75.69"/>
</g>
<!-- 5&#45;&#45;6 -->
<g id="edge9" class="edge">
<title>5&#45;&#45;6</title>
<path fill="none" stroke="black" stroke-width="0.75" d="M23.31,-117.47C19.61,-110.05 6.38,-83.49 2.74,-76.17"/>
</g>
<!-- 5&#45;&#45;7 -->
<g id="edge10" class="edge">
<title>5&#45;&#45;7</title>
<path fill="none" stroke="black" stroke-width="0.75" d="M24.08,-117.46C22.9,-105.43 16.6,-41.32 15.33,-28.42"/>
</g>
<!-- 6&#45;&#45;7 -->
<g id="edge11" class="edge">
<title>6&#45;&#45;7</title>
<path fill="none" stroke="black" stroke-width="0.75" d="M2.37,-72.22C4.56,-64.3 12.4,-35.98 14.56,-28.17"/>
</g>
<!-- 6&#45;&#45;8 -->
<g id="edge12" class="edge">
<title>6&#45;&#45;8</title>
<path fill="none" stroke="black" stroke-width="0.75" d="M3.24,-72.5C11.31,-62.47 50.8,-13.39 58.73,-3.53"/>
</g>
<!-- 7&#45;&#45;8 -->
<g id="edge13" class="edge">
<title>7&#45;&#45;8</title>
<path fill="none" stroke="black" stroke-width="0.75" d="M17.04,-25.11C24.45,-21.11 50.94,-6.77 58.25,-2.82"/>
</g>
</g>
</svg>
