<svg xmlns="http://www.w3.org/2000/svg" width="152.3" height="100.0" viewBox="4.518 -5.000 162.286 110.000">
<g fill="none" stroke="black" stroke-width="0.0050%" transform="translate(0, 100.0000) scale(100.0000, -100.0000)">
<line x1="0.095" y1="0.000" x2="0.095" y2="1.000" />
<line x1="0.190" y1="0.000" x2="0.190" y2="0.500" />
<line x1="0.286" y1="0.000" x2="0.286" y2="0.333" />
<line x1="0.381" y1="0.000" x2="0.381" y2="0.250" />
<line x1="0.476" y1="0.000" x2="0.476" y2="0.200" />
<line x1="0.571" y1="0.000" x2="0.571" y2="0.167" />
<line x1="0.666" y1="0.000" x2="0.666" y2="0.143" />
<line x1="0.761" y1="0.000" x2="0.761" y2="0.125" />
<line x1="0.857" y1="0.000" x2="0.857" y2="0.111" />
<line x1="0.952" y1="0.000" x2="0.952" y2="0.100" />
<line x1="1.047" y1="0.000" x2="1.047" y2="0.091" />
<line x1="1.142" y1="0.000" x2="1.142" y2="0.083" />
<line x1="1.237" y1="0.000" x2="1.237" y2="0.077" />
<line x1="1.332" y1="0.000" x2="1.332" y2="0.071" />
<line x1="1.428" y1="0.000" x2="1.428" y2="0.067" />
<line x1="1.523" y1="0.000" x2="1.523" y2="0.063" />
<line x1="1.618" y1="0.000" x2="1.618" y2="0.059" />
</g>
</svg>