<svg xmlns="http://www.w3.org/2000/svg" width="100.2" height="100.0" viewBox="-55.10 -55.00 110.20 110.00">
<g fill="none" stroke="black" stroke-width="0.0200%" transform="translate(0, 0.0000) scale(25.0494, -25.0494)">
<circle cx="-2.00" cy="0.00" r="0.02" />
<circle cx="0.00" cy="2.00" r="0.02" />
<polyline points="2.00,0.00 2.00,0.25 1.98,0.50 1.96,0.74 1.94,0.96 1.90,1.18 1.86,1.37 1.81,1.54 1.75,1.69 1.69,1.81 1.62,1.90 1.54,1.96 1.46,2.00 1.37,2.00 1.27,1.96 1.18,1.90 1.07,1.81 0.96,1.69 0.85,1.54 0.74,1.37 0.62,1.18 0.50,0.96 0.37,0.74 0.25,0.50 0.13,0.25 -0.00,-0.00 -0.13,-0.25 -0.25,-0.50 -0.37,-0.74 -0.50,-0.96 -0.62,-1.18 -0.74,-1.37 -0.85,-1.54 -0.96,-1.69 -1.07,-1.81 -1.18,-1.90 -1.27,-1.96 -1.37,-2.00 -1.46,-2.00 -1.54,-1.96 -1.62,-1.90 -1.69,-1.81 -1.75,-1.69 -1.81,-1.54 -1.86,-1.37 -1.90,-1.18 -1.94,-0.96 -1.96,-0.74 -1.98,-0.50 -2.00,-0.25 -2.00,0.00 -2.00,0.25 -1.98,0.50 -1.96,0.74 -1.94,0.96 -1.90,1.18 -1.86,1.37 -1.81,1.54 -1.75,1.69 -1.69,1.81 -1.62,1.90 -1.54,1.96 -1.46,2.00 -1.37,2.00 -1.27,1.96 -1.18,1.90 -1.07,1.81 -0.96,1.69 -0.85,1.54 -0.74,1.37 -0.62,1.18 -0.50,0.96 -0.37,0.74 -0.25,0.50 -0.13,0.25 -0.00,0.00 0.13,-0.25 0.25,-0.50 0.37,-0.74 0.50,-0.96 0.62,-1.18 0.74,-1.37 0.85,-1.54 0.96,-1.69 1.07,-1.81 1.18,-1.90 1.27,-1.96 1.37,-2.00 1.46,-2.00 1.54,-1.96 1.62,-1.90 1.69,-1.81 1.75,-1.69 1.81,-1.54 1.86,-1.37 1.90,-1.18 1.94,-0.96 1.96,-0.74 1.98,-0.50 2.00,-0.25" />
</g>
</svg>