<svg xmlns="http://www.w3.org/2000/svg" width="100.4" height="100.0" viewBox="-54.858 -54.796 110.352 110.000">
<g fill="none" stroke="black" stroke-width="0.0099%" transform="translate(0, 0.4084) scale(50.4935, -50.4935)">
<circle cx="-0.987" cy="0.000" r="0.010" />
<circle cx="0.000" cy="0.994" r="0.010" />
<polyline points="1.000,0.000 0.982,0.249 0.929,0.481 0.843,0.683 0.727,0.842 0.586,0.948 0.424,0.994 0.248,0.978 0.062,0.900 -0.125,0.766 -0.307,0.584 -0.478,0.366 -0.633,0.124 -0.764,-0.124 -0.869,-0.365 -0.942,-0.582 -0.982,-0.763 -0.987,-0.895 -0.958,-0.971 -0.894,-0.986 -0.799,-0.939 -0.676,-0.833 -0.528,-0.675 -0.363,-0.475 -0.185,-0.245 0.000,0.000 0.184,0.245 0.362,0.474 0.526,0.673 0.672,0.829 0.794,0.933 0.887,0.979 0.949,0.963 0.978,0.886 0.971,0.754 0.930,0.575 0.857,0.360 0.753,0.122 0.622,-0.122 0.470,-0.359 0.301,-0.573 0.122,-0.751 -0.061,-0.881 -0.242,-0.956 -0.414,-0.971 -0.571,-0.925 -0.708,-0.820 -0.820,-0.665 -0.902,-0.467 -0.953,-0.241 -0.969,0.000 -0.951,0.241 -0.900,0.466 -0.817,0.662 -0.705,0.816 -0.568,0.919 -0.411,0.964 -0.240,0.948 -0.061,0.872 0.121,0.742 0.298,0.566 0.464,0.354 0.613,0.121 0.741,-0.120 0.842,-0.354 0.913,-0.564 0.952,-0.739 0.957,-0.868 0.928,-0.941 0.866,-0.956 0.774,-0.910 0.655,-0.807 0.512,-0.654 0.352,-0.460 0.179,-0.237 0.000,-0.000 -0.179,0.237 -0.351,0.459 -0.510,0.652 -0.651,0.803 -0.769,0.904 -0.860,0.949 -0.920,0.933 -0.947,0.859 -0.941,0.731 -0.902,0.557 -0.830,0.349 -0.730,0.119 -0.603,-0.119 -0.456,-0.348 -0.292,-0.555 -0.118,-0.728 0.059,-0.854 0.235,-0.927 0.401,-0.941 0.554,-0.896 0.686,-0.795 0.794,-0.644 0.874,-0.453 0.923,-0.234 0.939,-0.000 0.922,0.233 0.872,0.452 0.791,0.642 0.683,0.791 0.550,0.890 0.398,0.934 0.233,0.918 0.059,0.845 -0.117,0.720 -0.288,0.549 -0.449,0.343 -0.594,0.117 -0.718,-0.117 -0.816,-0.343 -0.885,-0.547 -0.922,-0.716 -0.927,-0.841 -0.899,-0.912 -0.840,-0.926 -0.750,-0.882 -0.634,-0.783 -0.496,-0.634 -0.341,-0.446 -0.173,-0.230 -0.000,-0.000 0.173,0.230 0.340,0.445 0.494,0.632 0.631,0.779 0.746,0.876 0.833,0.919 0.891,0.904 0.918,0.832 0.912,0.708 0.874,0.540 0.805,0.338 0.707,0.115 0.584,-0.115 0.441,-0.337 0.283,-0.538 0.115,-0.705 -0.057,-0.828 -0.227,-0.898 -0.389,-0.912 -0.537,-0.868 -0.665,-0.770 -0.770,-0.624 -0.847,-0.439 -0.894,-0.226 -0.910,-0.000 -0.893,0.226 -0.845,0.438 -0.767,0.622 -0.662,0.766 -0.533,0.863 -0.386,0.905 -0.225,0.890 -0.057,0.819 0.113,0.697 0.279,0.532 0.435,0.333 0.576,0.113 0.696,-0.113 0.791,-0.332 0.857,-0.530 0.894,-0.694 0.899,-0.815 0.872,-0.884 0.814,-0.897 0.727,-0.855 0.615,-0.758 0.481,-0.614 0.330,-0.432 0.168,-0.223 0.000,-0.000 -0.168,0.223 -0.329,0.431 -0.479,0.612 -0.612,0.755 -0.723,0.849 -0.808,0.891 -0.864,0.876 -0.890,0.807 -0.884,0.686 -0.847,0.523 -0.780,0.328 -0.685,0.111 -0.566,-0.111 -0.428,-0.327 -0.274,-0.522 -0.111,-0.683 0.056,-0.802 0.220,-0.870 0.377,-0.883 0.520,-0.841 0.645,-0.746 0.746,-0.605 0.821,-0.425 0.867,-0.219 0.882,-0.000 0.866,0.219 0.819,0.424 0.743,0.603 0.641,0.743 0.517,0.836 0.374,0.877 0.218,0.862 0.055,0.794 -0.110,0.676 -0.271,0.515 -0.422,0.322 -0.558,0.110 -0.674,-0.110 -0.766,-0.322 -0.831,-0.514 -0.866,-0.673 -0.871,-0.789 -0.845,-0.857 -0.789,-0.870 -0.705,-0.828 -0.596,-0.735 -0.466,-0.595 -0.320,-0.419 -0.163,-0.216 -0.000,-0.000 0.163,0.216 0.319,0.418 0.464,0.593 0.593,0.731 0.700,0.823 0.783,0.863 0.837,0.849 0.862,0.782 0.856,0.665 0.821,0.507 0.756,0.317 0.664,0.108 0.549,-0.108 0.415,-0.317 0.266,-0.506 0.108,-0.662 -0.054,-0.777 -0.213,-0.843 -0.365,-0.856 -0.504,-0.815 -0.625,-0.723 -0.723,-0.586 -0.796,-0.412 -0.840,-0.213 -0.855,-0.000 -0.839,0.212 -0.794,0.411 -0.720,0.584 -0.621,0.720 -0.501,0.810 -0.363,0.850 -0.212,0.836 -0.053,0.769 0.107,0.655 0.262,0.499 0.409,0.312 0.541,0.106 0.653,-0.106 0.742,-0.312 0.805,-0.498 0.839,-0.652 0.844,-0.765 0.818,-0.830 0.764,-0.843 0.683,-0.803 0.577,-0.712 0.452,-0.577 0.310,-0.406 0.158,-0.209 0.000,-0.000 -0.158,0.209 -0.309,0.405 -0.450,0.575 -0.574,0.709 -0.679,0.798 -0.758,0.836 -0.811,0.823 -0.835,0.757 -0.830,0.645 -0.795,0.491 -0.732,0.308 -0.643,0.105 -0.532,-0.105 -0.402,-0.307 -0.258,-0.490 -0.104,-0.642 0.052,-0.753 0.207,-0.817 0.354,-0.830 0.488,-0.790 0.605,-0.701 0.701,-0.568 0.771,-0.399 0.814,-0.206 0.828,-0.000 0.813,0.206 0.769,0.398 0.698,0.566 0.602,0.698 0.485,0.785 0.351,0.823 0.205,0.810 0.052,0.746 -0.103,0.635 -0.254,0.484 -0.396,0.303 -0.524,0.103 -0.633,-0.103 -0.719,-0.302 -0.780,-0.482 -0.813,-0.632 -0.818,-0.741 -0.793,-0.804 -0.740,-0.817 -0.662,-0.778 -0.560,-0.690 -0.438,-0.559 -0.301,-0.393 -0.153,-0.203 -0.000,-0.000 0.153,0.203 0.300,0.392 0.436,0.557 0.557,0.687 0.658,0.773 0.735,0.811 0.786,0.797 0.810,0.734 0.804,0.625 0.771,0.476 0.710,0.298 0.623,0.101 0.515,-0.101 0.389,-0.298 0.250,-0.475 0.101,-0.622 -0.051,-0.730 -0.200,-0.792 -0.343,-0.804 -0.473,-0.766 -0.587,-0.679 -0.679,-0.550 -0.747,-0.387 -0.789,-0.200 -0.803,-0.000 -0.788,0.199 -0.745,0.386 -0.676,0.548 -0.584,0.676 -0.470,0.761 -0.340,0.798 -0.199,0.785 -0.050,0.723 0.100,0.615 0.246,0.469 0.384,0.293 0.508,0.100 0.613,-0.100 0.697,-0.293 0.756,-0.467 0.788,-0.612 0.792,-0.718 0.769,-0.780 0.718,-0.792 0.641,-0.754 0.542,-0.669 0.424,-0.542 0.291,-0.381 0.148,-0.197 0.000,-0.000 -0.148,0.196 -0.290,0.380 -0.423,0.540 -0.539,0.665 -0.637,0.749 -0.712,0.786 -0.762,0.773 -0.785,0.711 -0.779,0.605 -0.747,0.461 -0.688,0.289 -0.604,0.098 -0.500,-0.098 -0.377,-0.288 -0.242,-0.460 -0.098,-0.603 0.049,-0.707 0.194,-0.767 0.332,-0.779 0.459,-0.742 0.568,-0.658 0.658,-0.533 0.724,-0.375 0.764,-0.194" />
</g>
</svg>