<svg xmlns="http://www.w3.org/2000/svg" width="100.4" height="100.0" viewBox="-54.86 -54.80 110.35 110.00">
<g fill="none" stroke="black" stroke-width="0.0198%" transform="translate(0, 0.4084) scale(25.2467, -25.2467)">
<circle cx="-1.97" cy="0.00" r="0.02" />
<circle cx="0.00" cy="1.99" r="0.02" />
<polyline points="2.00,0.00 1.96,0.50 1.86,0.96 1.69,1.37 1.45,1.68 1.17,1.90 0.85,1.99 0.50,1.96 0.12,1.80 -0.25,1.53 -0.61,1.17 -0.96,0.73 -1.27,0.25 -1.53,-0.25 -1.74,-0.73 -1.88,-1.16 -1.96,-1.53 -1.97,-1.79 -1.92,-1.94 -1.79,-1.97 -1.60,-1.88 -1.35,-1.67 -1.06,-1.35 -0.73,-0.95 -0.37,-0.49 0.00,0.00 0.37,0.49 0.72,0.95 1.05,1.35 1.34,1.66 1.59,1.87 1.77,1.96 1.90,1.93 1.96,1.77 1.94,1.51 1.86,1.15 1.71,0.72 1.51,0.24 1.24,-0.24 0.94,-0.72 0.60,-1.15 0.24,-1.50 -0.12,-1.76 -0.48,-1.91 -0.83,-1.94 -1.14,-1.85 -1.42,-1.64 -1.64,-1.33 -1.80,-0.93 -1.91,-0.48 -1.94,0.00 -1.90,0.48 -1.80,0.93 -1.63,1.32 -1.41,1.63 -1.14,1.84 -0.82,1.93 -0.48,1.90 -0.12,1.74 0.24,1.48 0.60,1.13 0.93,0.71 1.23,0.24 1.48,-0.24 1.68,-0.71 1.83,-1.13 1.90,-1.48 1.91,-1.74 1.86,-1.88 1.73,-1.91 1.55,-1.82 1.31,-1.61 1.02,-1.31 0.70,-0.92 0.36,-0.47 0.00,-0.00 -0.36,0.47 -0.70,0.92 -1.02,1.30 -1.30,1.61 -1.54,1.81 -1.72,1.90 -1.84,1.87 -1.89,1.72 -1.88,1.46 -1.80,1.11 -1.66,0.70 -1.46,0.24 -1.21,-0.24 -0.91,-0.70 -0.58,-1.11 -0.24,-1.46 0.12,-1.71 0.47,-1.85 0.80,-1.88 1.11,-1.79 1.37,-1.59 1.59,-1.29 1.75,-0.91 1.85,-0.47 1.88,-0.00 1.84,0.47 1.74,0.90 1.58,1.28 1.37,1.58 1.10,1.78 0.80,1.87 0.47,1.84 0.12,1.69 -0.23,1.44 -0.58,1.10 -0.90,0.69 -1.19,0.23 -1.44,-0.23 -1.63,-0.69 -1.77,-1.09 -1.84,-1.43 -1.85,-1.68 -1.80,-1.82 -1.68,-1.85 -1.50,-1.76 -1.27,-1.57 -0.99,-1.27 -0.68,-0.89 -0.35,-0.46 -0.00,-0.00 0.35,0.46 0.68,0.89 0.99,1.26 1.26,1.56 1.49,1.75 1.67,1.84 1.78,1.81 1.84,1.66 1.82,1.42 1.75,1.08 1.61,0.68 1.41,0.23 1.17,-0.23 0.88,-0.67 0.57,-1.08 0.23,-1.41 -0.11,-1.66 -0.45,-1.80 -0.78,-1.82 -1.07,-1.74 -1.33,-1.54 -1.54,-1.25 -1.69,-0.88 -1.79,-0.45 -1.82,-0.00 -1.79,0.45 -1.69,0.88 -1.53,1.24 -1.32,1.53 -1.07,1.73 -0.77,1.81 -0.45,1.78 -0.11,1.64 0.23,1.39 0.56,1.06 0.87,0.67 1.15,0.23 1.39,-0.23 1.58,-0.66 1.71,-1.06 1.79,-1.39 1.80,-1.63 1.74,-1.77 1.63,-1.79 1.45,-1.71 1.23,-1.52 0.96,-1.23 0.66,-0.86 0.34,-0.45 0.00,-0.00 -0.34,0.45 -0.66,0.86 -0.96,1.22 -1.22,1.51 -1.45,1.70 -1.62,1.78 -1.73,1.75 -1.78,1.61 -1.77,1.37 -1.69,1.05 -1.56,0.66 -1.37,0.22 -1.13,-0.22 -0.86,-0.65 -0.55,-1.04 -0.22,-1.37 0.11,-1.60 0.44,-1.74 0.75,-1.77 1.04,-1.68 1.29,-1.49 1.49,-1.21 1.64,-0.85 1.73,-0.44 1.76,-0.00 1.73,0.44 1.64,0.85 1.49,1.21 1.28,1.49 1.03,1.67 0.75,1.75 0.44,1.72 0.11,1.59 -0.22,1.35 -0.54,1.03 -0.84,0.64 -1.12,0.22 -1.35,-0.22 -1.53,-0.64 -1.66,-1.03 -1.73,-1.35 -1.74,-1.58 -1.69,-1.71 -1.58,-1.74 -1.41,-1.66 -1.19,-1.47 -0.93,-1.19 -0.64,-0.84 -0.33,-0.43 -0.00,-0.00 0.33,0.43 0.64,0.84 0.93,1.19 1.19,1.46 1.40,1.65 1.57,1.73 1.67,1.70 1.72,1.56 1.71,1.33 1.64,1.01 1.51,0.63 1.33,0.22 1.10,-0.22 0.83,-0.63 0.53,-1.01 0.22,-1.32 -0.11,-1.55 -0.43,-1.69 -0.73,-1.71 -1.01,-1.63 -1.25,-1.45 -1.45,-1.17 -1.59,-0.82 -1.68,-0.43 -1.71,-0.00 -1.68,0.42 -1.59,0.82 -1.44,1.17 -1.24,1.44 -1.00,1.62 -0.73,1.70 -0.42,1.67 -0.11,1.54 0.21,1.31 0.52,1.00 0.82,0.62 1.08,0.21 1.31,-0.21 1.48,-0.62 1.61,-1.00 1.68,-1.30 1.69,-1.53 1.64,-1.66 1.53,-1.69 1.37,-1.61 1.15,-1.42 0.90,-1.15 0.62,-0.81 0.32,-0.42 0.00,-0.00 -0.32,0.42 -0.62,0.81 -0.90,1.15 -1.15,1.42 -1.36,1.60 -1.52,1.67 -1.62,1.65 -1.67,1.51 -1.66,1.29 -1.59,0.98 -1.46,0.62 -1.29,0.21 -1.06,-0.21 -0.80,-0.61 -0.52,-0.98 -0.21,-1.28 0.10,-1.51 0.41,-1.63 0.71,-1.66 0.98,-1.58 1.21,-1.40 1.40,-1.14 1.54,-0.80 1.63,-0.41 1.66,-0.00 1.63,0.41 1.54,0.80 1.40,1.13 1.20,1.40 0.97,1.57 0.70,1.65 0.41,1.62 0.10,1.49 -0.21,1.27 -0.51,0.97 -0.79,0.61 -1.05,0.21 -1.27,-0.21 -1.44,-0.60 -1.56,-0.96 -1.63,-1.26 -1.64,-1.48 -1.59,-1.61 -1.48,-1.63 -1.32,-1.56 -1.12,-1.38 -0.88,-1.12 -0.60,-0.79 -0.31,-0.41 -0.00,-0.00 0.31,0.41 0.60,0.78 0.87,1.11 1.11,1.37 1.32,1.55 1.47,1.62 1.57,1.59 1.62,1.47 1.61,1.25 1.54,0.95 1.42,0.60 1.25,0.20 1.03,-0.20 0.78,-0.60 0.50,-0.95 0.20,-1.24 -0.10,-1.46 -0.40,-1.58 -0.69,-1.61 -0.95,-1.53 -1.17,-1.36 -1.36,-1.10 -1.49,-0.77 -1.58,-0.40 -1.61,-0.00 -1.58,0.40 -1.49,0.77 -1.35,1.10 -1.17,1.35 -0.94,1.52 -0.68,1.60 -0.40,1.57 -0.10,1.45 0.20,1.23 0.49,0.94 0.77,0.59 1.02,0.20 1.23,-0.20 1.39,-0.59 1.51,-0.93 1.58,-1.22 1.58,-1.44 1.54,-1.56 1.44,-1.58 1.28,-1.51 1.08,-1.34 0.85,-1.08 0.58,-0.76 0.30,-0.39 0.00,-0.00 -0.30,0.39 -0.58,0.76 -0.85,1.08 -1.08,1.33 -1.27,1.50 -1.42,1.57 -1.52,1.55 -1.57,1.42 -1.56,1.21 -1.49,0.92 -1.38,0.58 -1.21,0.20 -1.00,-0.20 -0.75,-0.58 -0.48,-0.92 -0.20,-1.21 0.10,-1.41 0.39,-1.53 0.66,-1.56 0.92,-1.48 1.14,-1.32 1.32,-1.07 1.45,-0.75 1.53,-0.39" />
</g>
</svg>