<svg xmlns="http://www.w3.org/2000/svg" width="154.8" height="100.0" viewBox="2.035 -5.000 164.768 110.000">
<g fill="none" stroke="black" stroke-width="0.0050%" transform="translate(0, 100.0000) scale(100.0000, -100.0000)">
<line x1="0.070" y1="0.000" x2="0.070" y2="1.000" />
<line x1="0.141" y1="0.000" x2="0.141" y2="0.500" />
<line x1="0.211" y1="0.000" x2="0.211" y2="0.333" />
<line x1="0.281" y1="0.000" x2="0.281" y2="0.250" />
<line x1="0.352" y1="0.000" x2="0.352" y2="0.200" />
<line x1="0.422" y1="0.000" x2="0.422" y2="0.167" />
<line x1="0.492" y1="0.000" x2="0.492" y2="0.143" />
<line x1="0.563" y1="0.000" x2="0.563" y2="0.125" />
<line x1="0.633" y1="0.000" x2="0.633" y2="0.111" />
<line x1="0.703" y1="0.000" x2="0.703" y2="0.100" />
<line x1="0.774" y1="0.000" x2="0.774" y2="0.091" />
<line x1="0.844" y1="0.000" x2="0.844" y2="0.083" />
<line x1="0.915" y1="0.000" x2="0.915" y2="0.077" />
<line x1="0.985" y1="0.000" x2="0.985" y2="0.071" />
<line x1="1.055" y1="0.000" x2="1.055" y2="0.067" />
<line x1="1.126" y1="0.000" x2="1.126" y2="0.063" />
<line x1="1.196" y1="0.000" x2="1.196" y2="0.059" />
<line x1="1.266" y1="0.000" x2="1.266" y2="0.056" />
<line x1="1.337" y1="0.000" x2="1.337" y2="0.053" />
<line x1="1.407" y1="0.000" x2="1.407" y2="0.050" />
<line x1="1.477" y1="0.000" x2="1.477" y2="0.048" />
<line x1="1.548" y1="0.000" x2="1.548" y2="0.045" />
<line x1="1.618" y1="0.000" x2="1.618" y2="0.043" />
</g>
</svg>