<svg xmlns="http://www.w3.org/2000/svg" width="161.8" height="100.0" viewBox="-85.37 -53.22 171.80 110.00">
<g fill="none" stroke="black" stroke-width="0.0170%" transform="translate(0, 3.5518) scale(29.3499, -29.3499)">
<polyline points="0.00,0.00 0.59,0.62 1.15,1.16 1.66,1.55 2.10,1.74 2.43,1.73 2.66,1.53 2.77,1.19 2.76,0.76 2.62,0.34 2.37,-0.02 2.01,-0.27 1.56,-0.38 1.04,-0.36 0.48,-0.23 -0.11,-0.04 -0.69,0.14 -1.23,0.26 -1.72,0.27 -2.13,0.14 -2.45,-0.11 -2.65,-0.46 -2.74,-0.85 -2.70,-1.23 -2.54,-1.51 -2.27,-1.64 -1.90,-1.59 -1.44,-1.34 -0.92,-0.92 -0.36,-0.37 0.21,0.23 0.78,0.81 1.31,1.30 1.78,1.63 2.17,1.76 2.46,1.70 2.64,1.46 2.70,1.10 2.64,0.67 2.46,0.25 2.18,-0.10 1.79,-0.33 1.33,-0.44 0.81,-0.42 0.25,-0.30 -0.31,-0.13 -0.87,0.03 -1.38,0.12 -1.83,0.12 -2.19,-0.01 -2.46,-0.25 -2.62,-0.57 -2.66,-0.92 -2.58,-1.23 -2.38,-1.45 -2.08,-1.51 -1.69,-1.40 -1.22,-1.12 -0.70,-0.67 -0.15,-0.13 0.41,0.45 0.95,0.99 1.45,1.42 1.87,1.68 2.22,1.76 2.46,1.65 2.60,1.38 2.61,1.00 2.51,0.57 2.30,0.16 1.99,-0.18 1.58,-0.41 1.11,-0.51 0.59,-0.48 0.04,-0.37 -0.51,-0.22 -1.03,-0.08 -1.51,-0.00 -1.92,-0.02 -2.24,-0.14 -2.46,-0.37 -2.57,-0.65 -2.57,-0.95 -2.45,-1.20 -2.22,-1.35 -1.89,-1.36 -1.48,-1.20 -1.00,-0.88 -0.48,-0.43 0.06,0.10 0.60,0.65 1.11,1.14 1.57,1.51 1.96,1.72 2.26,1.74 2.45,1.59 2.54,1.28 2.52,0.88 2.38,0.45 2.13,0.04 1.79,-0.28 1.38,-0.50 0.90,-0.58 0.38,-0.56 -0.16,-0.45 -0.69,-0.31 -1.18,-0.18 -1.62,-0.12 -1.99,-0.14 -2.27,-0.25 -2.44,-0.45 -2.51,-0.70 -2.46,-0.95 -2.31,-1.14 -2.05,-1.24 -1.70,-1.19 -1.27,-0.99 -0.79,-0.65 -0.27,-0.19 0.25,0.32 0.77,0.83 1.25,1.27 1.67,1.58 2.02,1.73 2.28,1.70 2.43,1.50 2.48,1.17 2.41,0.75 2.24,0.32 1.96,-0.08 1.60,-0.39 1.17,-0.59 0.69,-0.67 0.17,-0.64 -0.35,-0.53 -0.85,-0.40 -1.31,-0.28 -1.72,-0.21 -2.05,-0.23 -2.28,-0.33 -2.42,-0.51 -2.44,-0.72 -2.35,-0.92 -2.16,-1.06 -1.88,-1.10 -1.51,-1.01 -1.07,-0.78 -0.59,-0.42 -0.08,0.03 0.44,0.52 0.93,0.99 1.38,1.37 1.76,1.62 2.07,1.71 2.28,1.63 2.40,1.39 2.40,1.03 2.30,0.61 2.09,0.18 1.79,-0.21 1.41,-0.51 0.97,-0.69 0.49,-0.75 -0.02,-0.71 -0.52,-0.61 -1.00,-0.47 -1.43,-0.36 -1.80,-0.29 -2.09,-0.30 -2.28,-0.39 -2.37,-0.53 -2.36,-0.70 -2.24,-0.86 -2.01,-0.95 -1.70,-0.94 -1.32,-0.81 -0.87,-0.56 -0.39,-0.19 0.11,0.24 0.61,0.70 1.07,1.12 1.49,1.45 1.84,1.64 2.11,1.67 2.28,1.54 2.35,1.26 2.31,0.89 2.17,0.45 1.94,0.03 1.62,-0.34 1.22,-0.62 0.77,-0.78 0.29,-0.83 -0.20,-0.78 -0.69,-0.67 -1.14,-0.54 -1.54,-0.42 -1.87,-0.35 -2.12,-0.35 -2.27,-0.42 -2.32,-0.53 -2.27,-0.66 -2.11,-0.77 -1.86,-0.82 -1.53,-0.77 -1.13,-0.61 -0.68,-0.34 -0.20,0.02 0.29,0.44 0.76,0.86 1.20,1.23 1.59,1.49 1.90,1.63 2.13,1.60 2.26,1.43 2.29,1.12 2.22,0.72 2.05,0.29 1.78,-0.13 1.44,-0.48 1.04,-0.74 0.58,-0.88 0.11,-0.91 -0.37,-0.85 -0.84,-0.73 -1.26,-0.59 -1.63,-0.46 -1.93,-0.39 -2.13,-0.37 -2.25,-0.42 -2.26,-0.50 -2.17,-0.60 -1.98,-0.67 -1.71,-0.68 -1.36,-0.60 -0.94,-0.42 -0.49,-0.14 -0.02,0.22 0.46,0.61 0.91,0.99 1.32,1.30 1.67,1.51 1.95,1.59 2.14,1.51 2.23,1.29 2.22,0.96 2.11,0.55 1.91,0.12 1.63,-0.29 1.27,-0.62 0.85,-0.85 0.40,-0.97 -0.07,-0.98 -0.54,-0.90 -0.98,-0.77 -1.37,-0.62 -1.71,-0.49 -1.97,-0.40 -2.14,-0.37 -2.21,-0.39 -2.18,-0.45 -2.06,-0.51 -1.85,-0.55 -1.55,-0.52 -1.18,-0.42 -0.76,-0.22 -0.31,0.06 0.16,0.40 0.61,0.76 1.04,1.09 1.42,1.35 1.74,1.50 1.98,1.52 2.13,1.40 2.19,1.14 2.14,0.79 2.00,0.37 1.78,-0.06 1.47,-0.44 1.09,-0.75 0.67,-0.96 0.22,-1.05 -0.24,-1.03 -0.69,-0.94 -1.11,-0.79 -1.47,-0.63 -1.77,-0.49 -1.99,-0.39 -2.13,-0.35 -2.16,-0.35 -2.10,-0.38 -1.95,-0.41 -1.71,-0.42 -1.39,-0.36 -1.01,-0.24 -0.58,-0.03 -0.14,0.24 0.32,0.56 0.76,0.88 1.16,1.16 1.52,1.37 1.80,1.47 2.00,1.43 2.12,1.26 2.13,0.98 2.06,0.60 1.89,0.18 1.63,-0.23 1.31,-0.60 0.92,-0.88 0.50,-1.05 0.05,-1.11 -0.40,-1.07 -0.83,-0.96 -1.22,-0.80 -1.56,-0.62 -1.83,-0.47 -2.01,-0.36 -2.10,-0.30 -2.10,-0.28 -2.01,-0.29 -1.83,-0.29 -1.56,-0.27 -1.23,-0.20 -0.84,-0.06 -0.41,0.14 0.03,0.40 0.48,0.69 0.90,0.97 1.27,1.21 1.60,1.36 1.85,1.40 2.01,1.32 2.09,1.11 2.07,0.80 1.96,0.41 1.77,-0.00 1.49,-0.40 1.15,-0.74 0.75,-0.99 0.33,-1.13 -0.11,-1.16 -0.55,-1.10 -0.96,-0.96 -1.33,-0.78 -1.63,-0.60 -1.86,-0.43 -2.01,-0.31 -2.07,-0.23 -2.04,-0.19 -1.91,-0.18 -1.70,-0.17 -1.42,-0.13 -1.07,-0.04 -0.67,0.10 -0.24,0.30 0.19,0.54 0.62,0.80 1.02,1.04 1.37,1.22 1.66,1.32 1.88,1.31 2.01,1.18 2.05,0.94 2.00,0.61 1.86,0.22 1.64,-0.19 1.34,-0.56 0.99,-0.88 0.59,-1.09 0.16,-1.20 -0.27,-1.20 -0.69,-1.10 -1.08,-0.94 -1.42,-0.75 -1.69,-0.55 -1.89,-0.37 -2.01,-0.24 -2.03,-0.14 -1.96,-0.09 -1.81,-0.06 -1.57,-0.03 -1.27,0.02 -0.91,0.11 -0.50,0.25 -0.08,0.44 0.35,0.65 0.76,0.88 1.13,1.07 1.46,1.21 1.72,1.26 1.90,1.20 2.00,1.03 2.00,0.76 1.92,0.41 1.75,0.02 1.51,-0.37 1.19,-0.72 0.83,-1.00 0.42,-1.18 -0.00,-1.25 -0.42,-1.21 -0.82,-1.09 -1.19,-0.90 -1.50,-0.69 -1.74,-0.48 -1.91,-0.29 -1.99,-0.15 -1.98,-0.04 -1.88,0.02 -1.70,0.06 -1.44,0.10 -1.12,0.16 -0.75,0.25 -0.34,0.39 0.08,0.55 0.49,0.74 0.89,0.93 1.24,1.08 1.54,1.16 1.76,1.16 1.91,1.06 1.97,0.86 1.95,0.57 1.83,0.22 1.64,-0.17 1.37,-0.54 1.04,-0.86 0.67,-1.10 0.26,-1.24 -0.15,-1.27 -0.56,-1.20 -0.95,-1.05 -1.29,-0.85 -1.57,-0.62 -1.78,-0.39 -1.91,-0.20 -1.96,-0.04 -1.92,0.07 -1.79,0.14 -1.58,0.19 -1.30,0.23 -0.97,0.29 -0.59,0.38 -0.18,0.50 0.23,0.65 0.63,0.80 1.00,0.95 1.33,1.05 1.60,1.09 1.80,1.05 1.91,0.91 1.94,0.68 1.88,0.38 1.74,0.02 1.52,-0.35 1.23,-0.69 0.89,-0.98 0.51,-1.18 0.11,-1.28 -0.30,-1.28 -0.70,-1.17 -1.06,-1.00 -1.37,-0.77 -1.63,-0.52 -1.81,-0.29 -1.91,-0.09 -1.92,0.07 -1.85,0.18 -1.69,0.26 -1.46,0.31 -1.16,0.36 -0.82,0.41 -0.43,0.49 -0.03,0.59 0.37,0.72 0.76,0.84 1.11,0.94 1.41,1.00 1.65,1.00 1.82,0.92 1.90,0.75 1.90,0.50 1.81,0.18 1.64,-0.17 1.40,-0.52 1.09,-0.84 0.74,-1.09 0.36,-1.25 -0.04,-1.30 -0.44,-1.26 -0.82,-1.12 -1.16,-0.92 -1.45,-0.67 -1.67,-0.41 -1.82,-0.17 -1.89,0.03 -1.87,0.19 -1.77,0.31 -1.59,0.38 -1.34,0.43 -1.02,0.47 -0.67,0.52 -0.28,0.58 0.12,0.66 0.51,0.76 0.88,0.84 1.21,0.91 1.49,0.93 1.69,0.89 1.83,0.77 1.88,0.57 1.84,0.31 1.73,-0.01 1.53,-0.35 1.27,-0.67 0.95,-0.96 0.59,-1.17 0.21,-1.29 -0.19,-1.30 -0.58,-1.22 -0.94,-1.05 -1.26,-0.82 -1.52,-0.56 -1.71,-0.29 -1.83,-0.05 -1.86,0.16 -1.81,0.32 -1.68,0.43 -1.48,0.50 -1.21,0.54 -0.88,0.57 -0.52,0.61 -0.13,0.65 0.26,0.71 0.64,0.77 0.99,0.82 1.30,0.85 1.55,0.83 1.73,0.75 1.83,0.61 1.85,0.39 1.78,0.12 1.64,-0.19 1.42,-0.51 1.14,-0.81 0.81,-1.06 0.44,-1.23 0.06,-1.30 -0.33,-1.28 -0.70,-1.16 -1.05,-0.96 -1.34,-0.71 -1.57,-0.43 -1.74,-0.16 -1.82,0.09 -1.83,0.29 -1.75,0.44 -1.59,0.54 -1.36,0.60 -1.08,0.64 -0.74,0.65 -0.37,0.67 0.01,0.70 0.40,0.73 0.76,0.76 1.10,0.78 1.38,0.77 1.60,0.71 1.75,0.61 1.82,0.44 1.80,0.21 1.71,-0.07 1.54,-0.37 1.31,-0.66 1.01,-0.93 0.67,-1.14 0.30,-1.26 -0.09,-1.29 -0.46,-1.22 -0.82,-1.07 -1.14,-0.84 -1.41,-0.58 -1.62,-0.29 -1.75,-0.01 -1.81,0.23 -1.78,0.42 -1.67,0.57 -1.49,0.65 -1.25,0.70 -0.94,0.72 -0.60,0.72 -0.23,0.72 0.16,0.72 0.53,0.72 0.88,0.72 1.19,0.71 1.45,0.66 1.64,0.58 1.76,0.45 1.80,0.26 1.75,0.03 1.64,-0.24 1.44,-0.53 1.19,-0.80 0.88,-1.03 0.53,-1.19 0.15,-1.27 -0.22,-1.26 -0.59,-1.15 -0.93,-0.96 -1.23,-0.72 -1.48,-0.43 -1.65,-0.14 -1.76,0.13 -1.78,0.37 -1.73,0.55 -1.59,0.68 -1.39,0.75 -1.12,0.78 -0.81,0.78 -0.46,0.76 -0.08,0.74 0.29,0.71 0.65,0.69 0.99,0.66 1.27,0.61 1.51,0.54 1.67,0.44 1.76,0.28 1.77,0.09 1.70,-0.15 1.55,-0.41 1.34,-0.67 1.06,-0.91 0.74,-1.10 0.39,-1.22 0.01,-1.25 -0.36,-1.20 -0.71,-1.05 -1.04,-0.84 -1.31,-0.57 -1.53,-0.28 -1.68,0.02 -1.75,0.28 -1.75,0.51 -1.66,0.67 -1.51,0.78 -1.28,0.84 -1.00,0.85 -0.67,0.82 -0.32,0.78 0.06,0.73 0.42,0.68 0.77,0.63 1.08,0.58 1.35,0.50 1.55,0.41 1.69,0.28 1.75,0.12 1.73,-0.09 1.63,-0.31 1.46,-0.56 1.23,-0.79 0.94,-0.99 0.60,-1.14 0.25,-1.21 -0.12,-1.21 -0.49,-1.11 -0.83,-0.94 -1.13,-0.70 -1.38,-0.42 -1.57,-0.12 -1.69,0.17 -1.74,0.43 -1.70,0.64 -1.59,0.79 -1.41,0.87 -1.17,0.90 -0.87,0.89 -0.54,0.84 -0.18,0.78 0.19,0.70 0.55,0.63 0.88,0.55 1.17,0.47 1.42,0.38 1.59,0.27 1.70,0.12 1.73,-0.05 1.68,-0.25 1.56,-0.46 1.36,-0.68 1.11,-0.89 0.81,-1.05 0.47,-1.16 0.11,-1.19 -0.26,-1.14 -0.61,-1.01 -0.93,-0.80 -1.22,-0.54 -1.44,-0.25 -1.61,0.05 -1.70,0.33 -1.71,0.57 -1.65,0.76 -1.52,0.88 -1.31,0.95 -1.05,0.95 -0.74,0.91 -0.40,0.84 -0.04,0.75 0.32,0.65 0.67,0.56 0.98,0.46 1.26,0.36 1.47,0.24 1.62,0.12 1.70,-0.03 1.70,-0.21 1.62,-0.40 1.48,-0.60 1.26,-0.79 0.99,-0.96 0.68,-1.08 0.33,-1.15 -0.03,-1.14 -0.38,-1.05 -0.72,-0.88 -1.03,-0.65 -1.29,-0.38 -1.50,-0.08 -1.63,0.21 -1.69,0.48 -1.68,0.70 -1.59,0.87 -1.43,0.96 -1.21,1.00 -0.93,0.98 -0.61,0.91 -0.27,0.81 0.09,0.70 0.45,0.58 0.78,0.46 1.08,0.35 1.33,0.23 1.52,0.10 1.64,-0.04 1.69,-0.19 1.66,-0.36 1.56,-0.53 1.39,-0.71 1.16,-0.87 0.87,-1.01 0.55,-1.09 0.20,-1.11 -0.16,-1.06 -0.51,-0.93 -0.83,-0.74 -1.12,-0.49 -1.36,-0.21 -1.54,0.09 -1.65,0.37 -1.68,0.62 -1.64,0.82 -1.53,0.96 -1.34,1.03 -1.10,1.03 -0.81,0.98 -0.48,0.89 -0.13,0.77 0.22,0.63 0.57,0.49 0.89,0.35 1.17,0.22 1.39,0.09 1.56,-0.05 1.65,-0.19 1.67,-0.34 1.62,-0.49 1.49,-0.65 1.30,-0.80 1.04,-0.93 0.75,-1.03 0.42,-1.07 0.07,-1.05 -0.29,-0.96 -0.63,-0.80 -0.94,-0.59 -1.21,-0.32 -1.42,-0.04 -1.57,0.25 -1.65,0.52 -1.66,0.75 -1.59,0.92 -1.45,1.03 -1.25,1.07 -0.99,1.04 -0.68,0.96 -0.35,0.84 -0.00,0.70" />
</g>
</svg>