<svg xmlns="http://www.w3.org/2000/svg" width="161.8" height="100.0" viewBox="-5.000 -5.000 171.803 110.000">
<g fill="none" stroke="black" stroke-width="0.0050%" transform="translate(0, 100.0000) scale(100.0000, -100.0000)">
<circle cx="0.000" cy="0.000" r="0.005" />
<circle cx="0.000" cy="1.000" r="0.005" />
<polyline points="0.000,0.000 0.016,0.006 0.032,0.024 0.049,0.054 0.065,0.095 0.081,0.146 0.097,0.206 0.113,0.273 0.129,0.345 0.146,0.422 0.162,0.500 0.178,0.578 0.194,0.655 0.210,0.727 0.227,0.794 0.243,0.854 0.259,0.905 0.275,0.946 0.291,0.976 0.307,0.994 0.324,1.000 0.340,0.994 0.356,0.976 0.372,0.946 0.388,0.905 0.405,0.854 0.421,0.794 0.437,0.727 0.453,0.655 0.469,0.578 0.485,0.500 0.502,0.422 0.518,0.345 0.534,0.273 0.550,0.206 0.566,0.146 0.582,0.095 0.599,0.054 0.615,0.024 0.631,0.006 0.647,0.000 0.663,0.006 0.680,0.024 0.696,0.054 0.712,0.095 0.728,0.146 0.744,0.206 0.760,0.273 0.777,0.345 0.793,0.422 0.809,0.500 0.825,0.578 0.841,0.655 0.858,0.727 0.874,0.794 0.890,0.854 0.906,0.905 0.922,0.946 0.938,0.976 0.955,0.994 0.971,1.000 0.987,0.994 1.003,0.976 1.019,0.946 1.036,0.905 1.052,0.854 1.068,0.794 1.084,0.727 1.100,0.655 1.116,0.578 1.133,0.500 1.149,0.422 1.165,0.345 1.181,0.273 1.197,0.206 1.214,0.146 1.230,0.095 1.246,0.054 1.262,0.024 1.278,0.006 1.294,0.000 1.311,0.006 1.327,0.024 1.343,0.054 1.359,0.095 1.375,0.146 1.392,0.206 1.408,0.273 1.424,0.345 1.440,0.422 1.456,0.500 1.472,0.578 1.489,0.655 1.505,0.727 1.521,0.794 1.537,0.854 1.553,0.905 1.569,0.946 1.586,0.976 1.602,0.994 1.618,1.000" />
</g>
</svg>