<svg xmlns="http://www.w3.org/2000/svg" width="161.8" height="100.0" viewBox="0.579 17.335 171.803 110.000">
<g fill="none" stroke="black" stroke-width="0.0046%" transform="translate(0, 144.6705) scale(109.4200, -109.4200)">
<polyline points="0.051,1.118 0.066,0.984 0.081,0.889 0.095,0.818 0.110,0.761 0.125,0.714 0.140,0.675 0.155,0.642 0.169,0.614 0.184,0.588 0.199,0.566 0.214,0.546 0.228,0.528 0.243,0.512 0.258,0.497 0.273,0.483 0.288,0.471 0.302,0.459 0.317,0.448 0.332,0.438 0.347,0.429 0.362,0.420 0.376,0.412 0.391,0.404 0.406,0.396 0.421,0.389 0.435,0.383 0.450,0.376 0.465,0.370 0.480,0.364 0.495,0.359 0.509,0.354 0.524,0.349 0.539,0.344 0.554,0.339 0.569,0.335 0.583,0.331 0.598,0.326 0.613,0.322 0.628,0.319 0.642,0.315 0.657,0.311 0.672,0.308 0.687,0.305 0.702,0.301 0.716,0.298 0.731,0.295 0.746,0.292 0.761,0.289 0.776,0.287 0.790,0.284 0.805,0.281 0.820,0.279 0.835,0.276 0.850,0.274 0.864,0.272 0.879,0.269 0.894,0.267 0.909,0.265 0.923,0.263 0.938,0.261 0.953,0.259 0.968,0.257 0.983,0.255 0.997,0.253 1.012,0.251 1.027,0.249 1.042,0.247 1.057,0.246 1.071,0.244 1.086,0.242 1.101,0.241 1.116,0.239 1.130,0.237 1.145,0.236 1.160,0.234 1.175,0.233 1.190,0.231 1.204,0.230 1.219,0.229 1.234,0.227 1.249,0.226 1.264,0.225 1.278,0.223 1.293,0.222 1.308,0.221 1.323,0.220 1.337,0.218 1.352,0.217 1.367,0.216 1.382,0.215 1.397,0.214 1.411,0.213 1.426,0.211 1.441,0.210 1.456,0.209 1.471,0.208 1.485,0.207 1.500,0.206 1.515,0.205 1.530,0.204" />
</g>
</svg>