<svg xmlns="http://www.w3.org/2000/svg" width="161.8" height="100.0" viewBox="-4.4 -55.0 171.8 110.0">
<g fill="none" stroke="black" stroke-width="0.2500%" transform="translate(0, 0.0000) scale(2.0000, -2.0000)">
<circle cx="0.3" cy="0.0" r="0.3" />
<circle cx="0.3" cy="21.0" r="0.3" />
<circle cx="0.6" cy="-19.0" r="0.3" />
<circle cx="0.9" cy="16.0" r="0.3" />
<circle cx="1.2" cy="25.0" r="0.3" />
<circle cx="1.5" cy="-25.0" r="0.3" />
<circle cx="1.8" cy="11.0" r="0.3" />
<circle cx="2.1" cy="16.0" r="0.3" />
<circle cx="2.5" cy="-19.0" r="0.3" />
<circle cx="2.8" cy="23.0" r="0.3" />
<circle cx="3.1" cy="0.0" r="0.3" />
<circle cx="3.4" cy="-3.0" r="0.3" />
<circle cx="3.7" cy="19.0" r="0.3" />
<circle cx="4.0" cy="24.0" r="0.3" />
<circle cx="4.3" cy="-10.0" r="0.3" />
<circle cx="4.6" cy="25.0" r="0.3" />
<circle cx="4.9" cy="13.0" r="0.3" />
<circle cx="5.2" cy="-16.0" r="0.3" />
<circle cx="5.5" cy="7.0" r="0.3" />
<circle cx="5.8" cy="24.0" r="0.3" />
<circle cx="6.1" cy="-23.0" r="0.3" />
<circle cx="6.4" cy="21.0" r="0.3" />
<circle cx="6.7" cy="23.0" r="0.3" />
<circle cx="7.0" cy="-19.0" r="0.3" />
<circle cx="7.4" cy="-7.0" r="0.3" />
<circle cx="7.7" cy="25.0" r="0.3" />
<circle cx="8.0" cy="10.0" r="0.3" />
<circle cx="8.3" cy="-13.0" r="0.3" />
<circle cx="8.6" cy="25.0" r="0.3" />
<circle cx="8.9" cy="16.0" r="0.3" />
<circle cx="9.2" cy="-24.0" r="0.3" />
<circle cx="9.5" cy="4.0" r="0.3" />
<circle cx="9.8" cy="23.0" r="0.3" />
<circle cx="10.1" cy="-1.0" r="0.3" />
<circle cx="10.4" cy="19.0" r="0.3" />
<circle cx="10.7" cy="24.0" r="0.3" />
<circle cx="11.0" cy="6.0" r="0.3" />
<circle cx="11.3" cy="-25.0" r="0.3" />
<circle cx="11.6" cy="14.0" r="0.3" />
<circle cx="12.0" cy="25.0" r="0.3" />
<circle cx="12.3" cy="-11.0" r="0.3" />
<circle cx="12.6" cy="8.0" r="0.3" />
<circle cx="12.9" cy="24.0" r="0.3" />
<circle cx="13.2" cy="-4.0" r="0.3" />
<circle cx="13.5" cy="1.0" r="0.3" />
<circle cx="13.8" cy="22.0" r="0.3" />
<circle cx="14.1" cy="3.0" r="0.3" />
<circle cx="14.4" cy="17.0" r="0.3" />
<circle cx="14.7" cy="25.0" r="0.3" />
<circle cx="15.0" cy="9.0" r="0.3" />
<circle cx="15.3" cy="-13.0" r="0.3" />
<circle cx="15.6" cy="24.0" r="0.3" />
<circle cx="15.9" cy="23.0" r="0.3" />
<circle cx="16.2" cy="13.0" r="0.3" />
<circle cx="16.5" cy="24.0" r="0.3" />
<circle cx="16.9" cy="19.0" r="0.3" />
<circle cx="17.2" cy="-1.0" r="0.3" />
<circle cx="17.5" cy="25.0" r="0.3" />
<circle cx="17.8" cy="-7.0" r="0.3" />
<circle cx="18.1" cy="-14.0" r="0.3" />
<circle cx="18.4" cy="-21.0" r="0.3" />
<circle cx="18.7" cy="-21.0" r="0.3" />
<circle cx="19.0" cy="-19.0" r="0.3" />
<circle cx="19.3" cy="-19.0" r="0.3" />
<circle cx="19.6" cy="-19.0" r="0.3" />
<circle cx="19.9" cy="-25.0" r="0.3" />
<circle cx="20.2" cy="-25.0" r="0.3" />
<circle cx="20.5" cy="-6.0" r="0.3" />
<circle cx="20.8" cy="-6.0" r="0.3" />
<circle cx="21.1" cy="-6.0" r="0.3" />
<circle cx="21.5" cy="-24.0" r="0.3" />
<circle cx="21.8" cy="-24.0" r="0.3" />
<circle cx="22.1" cy="-24.0" r="0.3" />
<circle cx="22.4" cy="-19.0" r="0.3" />
<circle cx="22.7" cy="-19.0" r="0.3" />
<circle cx="23.0" cy="-19.0" r="0.3" />
<circle cx="23.3" cy="0.0" r="0.3" />
<circle cx="23.6" cy="0.0" r="0.3" />
<circle cx="23.9" cy="0.0" r="0.3" />
<circle cx="24.2" cy="1.0" r="0.3" />
<circle cx="24.5" cy="1.0" r="0.3" />
<circle cx="24.8" cy="1.0" r="0.3" />
<circle cx="25.1" cy="-14.0" r="0.3" />
<circle cx="25.4" cy="-14.0" r="0.3" />
<circle cx="25.7" cy="-21.0" r="0.3" />
<circle cx="26.0" cy="-21.0" r="0.3" />
<circle cx="26.4" cy="-21.0" r="0.3" />
<circle cx="26.7" cy="22.0" r="0.3" />
<circle cx="27.0" cy="21.0" r="0.3" />
<circle cx="27.3" cy="21.0" r="0.3" />
<circle cx="27.6" cy="21.0" r="0.3" />
<circle cx="27.9" cy="-21.0" r="0.3" />
<circle cx="28.2" cy="21.0" r="0.3" />
<circle cx="28.5" cy="16.0" r="0.3" />
<circle cx="28.8" cy="4.0" r="0.3" />
<circle cx="29.1" cy="21.0" r="0.3" />
<circle cx="29.4" cy="3.0" r="0.3" />
<circle cx="29.7" cy="21.0" r="0.3" />
<circle cx="30.0" cy="3.0" r="0.3" />
<circle cx="30.3" cy="-4.0" r="0.3" />
<circle cx="30.6" cy="19.0" r="0.3" />
<circle cx="31.0" cy="16.0" r="0.3" />
<circle cx="31.3" cy="1.0" r="0.3" />
<circle cx="31.6" cy="16.0" r="0.3" />
<circle cx="31.9" cy="-7.0" r="0.3" />
<circle cx="32.2" cy="19.0" r="0.3" />
<circle cx="32.5" cy="3.0" r="0.3" />
<circle cx="32.8" cy="8.0" r="0.3" />
<circle cx="33.1" cy="18.0" r="0.3" />
<circle cx="33.4" cy="4.0" r="0.3" />
<circle cx="33.7" cy="19.0" r="0.3" />
<circle cx="34.0" cy="17.0" r="0.3" />
<circle cx="34.3" cy="-14.0" r="0.3" />
<circle cx="34.6" cy="10.0" r="0.3" />
<circle cx="34.9" cy="13.0" r="0.3" />
<circle cx="35.2" cy="-23.0" r="0.3" />
<circle cx="35.5" cy="16.0" r="0.3" />
<circle cx="35.9" cy="-13.0" r="0.3" />
<circle cx="36.2" cy="17.0" r="0.3" />
<circle cx="36.5" cy="11.0" r="0.3" />
<circle cx="36.8" cy="-19.0" r="0.3" />
<circle cx="37.1" cy="10.0" r="0.3" />
<circle cx="37.4" cy="13.0" r="0.3" />
<circle cx="37.7" cy="-24.0" r="0.3" />
<circle cx="38.0" cy="10.0" r="0.3" />
<circle cx="38.3" cy="13.0" r="0.3" />
<circle cx="38.6" cy="16.0" r="0.3" />
<circle cx="38.9" cy="11.0" r="0.3" />
<circle cx="39.2" cy="-8.0" r="0.3" />
<circle cx="39.5" cy="10.0" r="0.3" />
<circle cx="39.8" cy="1.0" r="0.3" />
<circle cx="40.1" cy="-1.0" r="0.3" />
<circle cx="40.5" cy="10.0" r="0.3" />
<circle cx="40.8" cy="4.0" r="0.3" />
<circle cx="41.1" cy="11.0" r="0.3" />
<circle cx="41.4" cy="7.0" r="0.3" />
<circle cx="41.7" cy="-17.0" r="0.3" />
<circle cx="42.0" cy="10.0" r="0.3" />
<circle cx="42.3" cy="4.0" r="0.3" />
<circle cx="42.6" cy="11.0" r="0.3" />
<circle cx="42.9" cy="0.0" r="0.3" />
<circle cx="43.2" cy="-13.0" r="0.3" />
<circle cx="43.5" cy="7.0" r="0.3" />
<circle cx="43.8" cy="-7.0" r="0.3" />
<circle cx="44.1" cy="10.0" r="0.3" />
<circle cx="44.4" cy="3.0" r="0.3" />
<circle cx="44.7" cy="-4.0" r="0.3" />
<circle cx="45.0" cy="7.0" r="0.3" />
<circle cx="45.4" cy="-7.0" r="0.3" />
<circle cx="45.7" cy="9.0" r="0.3" />
<circle cx="46.0" cy="0.0" r="0.3" />
<circle cx="46.3" cy="-11.0" r="0.3" />
<circle cx="46.6" cy="4.0" r="0.3" />
<circle cx="46.9" cy="4.0" r="0.3" />
<circle cx="47.2" cy="7.0" r="0.3" />
<circle cx="47.5" cy="4.0" r="0.3" />
<circle cx="47.8" cy="-3.0" r="0.3" />
<circle cx="48.1" cy="0.0" r="0.3" />
<circle cx="48.4" cy="-13.0" r="0.3" />
<circle cx="48.7" cy="3.0" r="0.3" />
<circle cx="49.0" cy="4.0" r="0.3" />
<circle cx="49.3" cy="-24.0" r="0.3" />
<circle cx="49.6" cy="4.0" r="0.3" />
<circle cx="50.0" cy="-3.0" r="0.3" />
<circle cx="50.3" cy="3.0" r="0.3" />
<circle cx="50.6" cy="3.0" r="0.3" />
<circle cx="50.9" cy="-14.0" r="0.3" />
<circle cx="51.2" cy="3.0" r="0.3" />
<circle cx="51.5" cy="-6.0" r="0.3" />
<circle cx="51.8" cy="3.0" r="0.3" />
<circle cx="52.1" cy="-16.0" r="0.3" />
<circle cx="52.4" cy="-19.0" r="0.3" />
<circle cx="52.7" cy="0.0" r="0.3" />
<circle cx="53.0" cy="-19.0" r="0.3" />
<circle cx="53.3" cy="0.0" r="0.3" />
<circle cx="53.6" cy="-3.0" r="0.3" />
<circle cx="53.9" cy="0.0" r="0.3" />
<circle cx="54.2" cy="-6.0" r="0.3" />
<circle cx="54.5" cy="-25.0" r="0.3" />
<circle cx="54.9" cy="-4.0" r="0.3" />
<circle cx="55.2" cy="-7.0" r="0.3" />
<circle cx="55.5" cy="0.0" r="0.3" />
<circle cx="55.8" cy="-10.0" r="0.3" />
<circle cx="56.1" cy="-23.0" r="0.3" />
<circle cx="56.4" cy="-23.0" r="0.3" />
<circle cx="56.7" cy="-23.0" r="0.3" />
<circle cx="57.0" cy="-24.0" r="0.3" />
<circle cx="57.3" cy="-24.0" r="0.3" />
<circle cx="57.6" cy="-24.0" r="0.3" />
<circle cx="57.9" cy="-16.0" r="0.3" />
<circle cx="58.2" cy="-16.0" r="0.3" />
<circle cx="58.5" cy="-21.0" r="0.3" />
<circle cx="58.8" cy="-21.0" r="0.3" />
<circle cx="59.1" cy="-23.0" r="0.3" />
<circle cx="59.5" cy="-23.0" r="0.3" />
<circle cx="59.8" cy="-23.0" r="0.3" />
<circle cx="60.1" cy="-25.0" r="0.3" />
<circle cx="60.4" cy="-25.0" r="0.3" />
<circle cx="60.7" cy="-21.0" r="0.3" />
<circle cx="61.0" cy="-21.0" r="0.3" />
<circle cx="61.3" cy="-21.0" r="0.3" />
<circle cx="61.6" cy="-25.0" r="0.3" />
<circle cx="61.9" cy="-25.0" r="0.3" />
<circle cx="62.2" cy="-22.0" r="0.3" />
<circle cx="62.5" cy="-22.0" r="0.3" />
<circle cx="62.8" cy="-25.0" r="0.3" />
<circle cx="63.1" cy="-25.0" r="0.3" />
<circle cx="63.4" cy="-24.0" r="0.3" />
<circle cx="63.7" cy="-24.0" r="0.3" />
<circle cx="64.0" cy="-24.0" r="0.3" />
<circle cx="64.4" cy="-24.0" r="0.3" />
<circle cx="64.7" cy="-25.0" r="0.3" />
<circle cx="65.0" cy="-25.0" r="0.3" />
<circle cx="65.3" cy="-25.0" r="0.3" />
<circle cx="65.6" cy="-25.0" r="0.3" />
<circle cx="65.9" cy="-24.0" r="0.3" />
<circle cx="66.2" cy="-24.0" r="0.3" />
<circle cx="66.5" cy="-25.0" r="0.3" />
<circle cx="66.8" cy="-25.0" r="0.3" />
<circle cx="67.1" cy="-24.0" r="0.3" />
<circle cx="67.4" cy="-24.0" r="0.3" />
<circle cx="67.7" cy="-25.0" r="0.3" />
<circle cx="68.0" cy="-25.0" r="0.3" />
<circle cx="68.3" cy="-25.0" r="0.3" />
<circle cx="68.6" cy="-25.0" r="0.3" />
<circle cx="69.0" cy="-25.0" r="0.3" />
<circle cx="69.3" cy="-25.0" r="0.3" />
<circle cx="69.6" cy="-25.0" r="0.3" />
<circle cx="69.9" cy="-25.0" r="0.3" />
<circle cx="70.2" cy="-25.0" r="0.3" />
<circle cx="70.5" cy="-18.0" r="0.3" />
<circle cx="70.8" cy="-21.0" r="0.3" />
<circle cx="71.1" cy="-18.0" r="0.3" />
<circle cx="71.4" cy="-21.0" r="0.3" />
<circle cx="71.7" cy="-18.0" r="0.3" />
<circle cx="72.0" cy="-24.0" r="0.3" />
<circle cx="72.3" cy="-19.0" r="0.3" />
<circle cx="72.6" cy="-21.0" r="0.3" />
<circle cx="72.9" cy="-19.0" r="0.3" />
<circle cx="73.2" cy="-25.0" r="0.3" />
<circle cx="73.5" cy="-19.0" r="0.3" />
<circle cx="73.9" cy="-22.0" r="0.3" />
<circle cx="74.2" cy="-21.0" r="0.3" />
<circle cx="74.5" cy="-21.0" r="0.3" />
<circle cx="74.8" cy="-21.0" r="0.3" />
<circle cx="75.1" cy="-21.0" r="0.3" />
<circle cx="75.4" cy="-21.0" r="0.3" />
<circle cx="75.7" cy="-25.0" r="0.3" />
<circle cx="76.0" cy="-21.0" r="0.3" />
<circle cx="76.3" cy="-24.0" r="0.3" />
<circle cx="76.6" cy="-24.0" r="0.3" />
<circle cx="76.9" cy="-23.0" r="0.3" />
<circle cx="77.2" cy="-25.0" r="0.3" />
<circle cx="77.5" cy="-25.0" r="0.3" />
<circle cx="77.8" cy="-23.0" r="0.3" />
<circle cx="78.1" cy="-24.0" r="0.3" />
<circle cx="78.5" cy="-25.0" r="0.3" />
<circle cx="78.8" cy="-24.0" r="0.3" />
<circle cx="79.1" cy="-25.0" r="0.3" />
<circle cx="79.4" cy="-24.0" r="0.3" />
<circle cx="79.7" cy="-24.0" r="0.3" />
<circle cx="80.0" cy="-25.0" r="0.3" />
<circle cx="80.3" cy="-25.0" r="0.3" />
<circle cx="80.6" cy="-25.0" r="0.3" />
<circle cx="80.9" cy="-25.0" r="0.3" />
<circle cx="81.2" cy="-25.0" r="0.3" />
</g>
</svg>