<svg xmlns="http://www.w3.org/2000/svg" width="98.3" height="100.0" viewBox="5.097 3.194 108.339 110.000">
<g fill="none" stroke="black" stroke-width="0.0045%" transform="translate(0, 116.3879) scale(110.3801, -110.3801)">
<circle cx="0.982" cy="0.264" r="0.005" />
<circle cx="0.892" cy="0.711" r="0.005" />
<circle cx="0.091" cy="0.354" r="0.005" />
<circle cx="0.819" cy="0.980" r="0.005" />
<circle cx="0.408" cy="0.751" r="0.005" />
<circle cx="0.842" cy="0.231" r="0.005" />
<circle cx="0.580" cy="0.074" r="0.005" />
<circle cx="0.773" cy="0.568" r="0.005" />
<circle cx="0.966" cy="0.158" r="0.005" />
<circle cx="0.323" cy="0.176" r="0.005" />
<circle cx="0.457" cy="0.845" r="0.005" />
<circle cx="0.783" cy="0.264" r="0.005" />
<circle cx="0.532" cy="0.512" r="0.005" />
<polyline points="0.982,0.264 0.966,0.158 0.842,0.231 0.783,0.264 0.580,0.074 0.323,0.176 0.091,0.354 0.532,0.512 0.408,0.751 0.457,0.845 0.819,0.980 0.892,0.711 0.773,0.568 0.982,0.264" />
</g>
</svg>