<svg xmlns="http://www.w3.org/2000/svg" width="143" height="104" viewBox="0 0 143 104">
<rect x="0" y="13" width="13" height="13" fill="rgb(158,158,158)"/>
<rect x="0" y="26" width="13" height="13" fill="rgb(62,62,62)"/>
<rect x="0" y="39" width="13" height="13" fill="rgb(223,223,223)"/>
<rect x="0" y="52" width="13" height="13" fill="rgb(126,126,126)"/>
<rect x="0" y="65" width="13" height="13" fill="rgb(29,29,29)"/>
<rect x="0" y="78" width="13" height="13" fill="rgb(191,191,191)"/>
<rect x="0" y="91" width="13" height="13" fill="rgb(94,94,94)"/>
<rect x="13" y="0" width="13" height="13" fill="rgb(91,91,91)"/>
<rect x="13" y="13" width="13" height="13" fill="rgb(252,252,252)"/>
<rect x="13" y="26" width="13" height="13" fill="rgb(155,155,155)"/>
<rect x="13" y="39" width="13" height="13" fill="rgb(59,59,59)"/>
<rect x="13" y="52" width="13" height="13" fill="rgb(220,220,220)"/>
<rect x="13" y="65" width="13" height="13" fill="rgb(123,123,123)"/>
<rect x="13" y="78" width="13" height="13" fill="rgb(26,26,26)"/>
<rect x="13" y="91" width="13" height="13" fill="rgb(188,188,188)"/>
<rect x="26" y="0" width="13" height="13" fill="rgb(185,185,185)"/>
<rect x="26" y="13" width="13" height="13" fill="rgb(88,88,88)"/>
<rect x="26" y="26" width="13" height="13" fill="rgb(249,249,249)"/>
<rect x="26" y="39" width="13" height="13" fill="rgb(152,152,152)"/>
<rect x="26" y="52" width="13" height="13" fill="rgb(56,56,56)"/>
<rect x="26" y="65" width="13" height="13" fill="rgb(217,217,217)"/>
<rect x="26" y="78" width="13" height="13" fill="rgb(120,120,120)"/>
<rect x="26" y="91" width="13" height="13" fill="rgb(23,23,23)"/>
<rect x="39" y="0" width="13" height="13" fill="rgb(21,21,21)"/>
<rect x="39" y="13" width="13" height="13" fill="rgb(182,182,182)"/>
<rect x="39" y="26" width="13" height="13" fill="rgb(85,85,85)"/>
<rect x="39" y="39" width="13" height="13" fill="rgb(246,246,246)"/>
<rect x="39" y="52" width="13" height="13" fill="rgb(149,149,149)"/>
<rect x="39" y="65" width="13" height="13" fill="rgb(53,53,53)"/>
<rect x="39" y="78" width="13" height="13" fill="rgb(214,214,214)"/>
<rect x="39" y="91" width="13" height="13" fill="rgb(117,117,117)"/>
<rect x="52" y="0" width="13" height="13" fill="rgb(114,114,114)"/>
<rect x="52" y="13" width="13" height="13" fill="rgb(18,18,18)"/>
<rect x="52" y="26" width="13" height="13" fill="rgb(179,179,179)"/>
<rect x="52" y="39" width="13" height="13" fill="rgb(82,82,82)"/>
<rect x="52" y="52" width="13" height="13" fill="rgb(243,243,243)"/>
<rect x="52" y="65" width="13" height="13" fill="rgb(147,147,147)"/>
<rect x="52" y="78" width="13" height="13" fill="rgb(50,50,50)"/>
<rect x="52" y="91" width="13" height="13" fill="rgb(211,211,211)"/>
<rect x="65" y="0" width="13" height="13" fill="rgb(208,208,208)"/>
<rect x="65" y="13" width="13" height="13" fill="rgb(111,111,111)"/>
<rect x="65" y="26" width="13" height="13" fill="rgb(15,15,15)"/>
<rect x="65" y="39" width="13" height="13" fill="rgb(176,176,176)"/>
<rect x="65" y="52" width="13" height="13" fill="rgb(79,79,79)"/>
<rect x="65" y="65" width="13" height="13" fill="rgb(240,240,240)"/>
<rect x="65" y="78" width="13" height="13" fill="rgb(144,144,144)"/>
<rect x="65" y="91" width="13" height="13" fill="rgb(47,47,47)"/>
<rect x="78" y="0" width="13" height="13" fill="rgb(44,44,44)"/>
<rect x="78" y="13" width="13" height="13" fill="rgb(205,205,205)"/>
<rect x="78" y="26" width="13" height="13" fill="rgb(108,108,108)"/>
<rect x="78" y="39" width="13" height="13" fill="rgb(12,12,12)"/>
<rect x="78" y="52" width="13" height="13" fill="rgb(173,173,173)"/>
<rect x="78" y="65" width="13" height="13" fill="rgb(76,76,76)"/>
<rect x="78" y="78" width="13" height="13" fill="rgb(237,237,237)"/>
<rect x="78" y="91" width="13" height="13" fill="rgb(141,141,141)"/>
<rect x="91" y="0" width="13" height="13" fill="rgb(138,138,138)"/>
<rect x="91" y="13" width="13" height="13" fill="rgb(41,41,41)"/>
<rect x="91" y="26" width="13" height="13" fill="rgb(202,202,202)"/>
<rect x="91" y="39" width="13" height="13" fill="rgb(106,106,106)"/>
<rect x="91" y="52" width="13" height="13" fill="rgb(9,9,9)"/>
<rect x="91" y="65" width="13" height="13" fill="rgb(170,170,170)"/>
<rect x="91" y="78" width="13" height="13" fill="rgb(73,73,73)"/>
<rect x="91" y="91" width="13" height="13" fill="rgb(234,234,234)"/>
<rect x="104" y="0" width="13" height="13" fill="rgb(232,232,232)"/>
<rect x="104" y="13" width="13" height="13" fill="rgb(135,135,135)"/>
<rect x="104" y="26" width="13" height="13" fill="rgb(38,38,38)"/>
<rect x="104" y="39" width="13" height="13" fill="rgb(199,199,199)"/>
<rect x="104" y="52" width="13" height="13" fill="rgb(103,103,103)"/>
<rect x="104" y="65" width="13" height="13" fill="rgb(6,6,6)"/>
<rect x="104" y="78" width="13" height="13" fill="rgb(167,167,167)"/>
<rect x="104" y="91" width="13" height="13" fill="rgb(70,70,70)"/>
<rect x="117" y="0" width="13" height="13" fill="rgb(67,67,67)"/>
<rect x="117" y="13" width="13" height="13" fill="rgb(229,229,229)"/>
<rect x="117" y="26" width="13" height="13" fill="rgb(132,132,132)"/>
<rect x="117" y="39" width="13" height="13" fill="rgb(35,35,35)"/>
<rect x="117" y="52" width="13" height="13" fill="rgb(196,196,196)"/>
<rect x="117" y="65" width="13" height="13" fill="rgb(100,100,100)"/>
<rect x="117" y="78" width="13" height="13" fill="rgb(3,3,3)"/>
<rect x="117" y="91" width="13" height="13" fill="rgb(164,164,164)"/>
<rect x="130" y="0" width="13" height="13" fill="rgb(161,161,161)"/>
<rect x="130" y="13" width="13" height="13" fill="rgb(64,64,64)"/>
<rect x="130" y="26" width="13" height="13" fill="rgb(226,226,226)"/>
<rect x="130" y="39" width="13" height="13" fill="rgb(129,129,129)"/>
<rect x="130" y="52" width="13" height="13" fill="rgb(32,32,32)"/>
<rect x="130" y="65" width="13" height="13" fill="rgb(193,193,193)"/>
<rect x="130" y="78" width="13" height="13" fill="rgb(97,97,97)"/>
<rect x="130" y="91" width="13" height="13" fill="rgb(0,0,0)"/>
</svg>