<svg xmlns="http://www.w3.org/2000/svg" width="34.7" height="100.0" viewBox="-22.34 -55.00 44.69 110.00">
<g fill="none" stroke="black" stroke-width="0.0314%" transform="translate(0, 0.0000) scale(15.9155, -15.9155)">
<polyline points="1.00,-3.14 0.87,-3.14 0.73,-3.14 0.60,-3.14 0.47,-3.14 0.33,-3.14 0.20,-3.14 0.07,-3.14 -0.07,-3.14 -0.20,-3.14 -0.33,-3.14 -0.47,-3.14 -0.60,-3.14 -0.73,-3.14 -0.87,-3.14 -1.00,-3.14" />
<polyline points="0.74,-2.82 0.64,-2.81 0.54,-2.80 0.44,-2.78 0.34,-2.77 0.25,-2.76 0.15,-2.74 0.05,-2.73 -0.05,-2.72 -0.15,-2.70 -0.25,-2.69 -0.34,-2.68 -0.44,-2.66 -0.54,-2.65 -0.64,-2.63 -0.74,-2.62" />
<polyline points="0.35,-2.49 0.30,-2.46 0.25,-2.44 0.21,-2.42 0.16,-2.39 0.12,-2.37 0.07,-2.34 0.02,-2.32 -0.02,-2.29 -0.07,-2.27 -0.12,-2.24 -0.16,-2.22 -0.21,-2.19 -0.25,-2.17 -0.30,-2.14 -0.35,-2.12" />
<polyline points="-0.10,-2.12 -0.09,-2.09 -0.08,-2.06 -0.06,-2.03 -0.05,-2.00 -0.03,-1.96 -0.02,-1.93 -0.01,-1.90 0.01,-1.87 0.02,-1.84 0.03,-1.81 0.05,-1.77 0.06,-1.74 0.08,-1.71 0.09,-1.68 0.10,-1.65" />
<polyline points="-0.54,-1.71 -0.46,-1.68 -0.39,-1.65 -0.32,-1.62 -0.25,-1.58 -0.18,-1.55 -0.11,-1.52 -0.04,-1.48 0.04,-1.45 0.11,-1.42 0.18,-1.38 0.25,-1.35 0.32,-1.32 0.39,-1.28 0.46,-1.25 0.54,-1.22" />
<polyline points="-0.88,-1.26 -0.76,-1.23 -0.64,-1.21 -0.53,-1.18 -0.41,-1.15 -0.29,-1.12 -0.18,-1.09 -0.06,-1.06 0.06,-1.03 0.17,-1.00 0.29,-0.98 0.41,-0.95 0.52,-0.92 0.64,-0.89 0.76,-0.86 0.88,-0.83" />
<polyline points="-1.06,-0.78 -0.92,-0.76 -0.78,-0.74 -0.64,-0.72 -0.50,-0.70 -0.35,-0.68 -0.21,-0.66 -0.07,-0.64 0.07,-0.62 0.21,-0.60 0.35,-0.58 0.50,-0.56 0.64,-0.54 0.78,-0.52 0.92,-0.50 1.06,-0.48" />
<polyline points="-1.07,-0.26 -0.93,-0.25 -0.78,-0.25 -0.64,-0.24 -0.50,-0.23 -0.36,-0.23 -0.21,-0.22 -0.07,-0.21 0.07,-0.21 0.21,-0.20 0.36,-0.19 0.50,-0.19 0.64,-0.18 0.78,-0.17 0.93,-0.16 1.07,-0.16" />
<polyline points="-0.89,0.26 -0.77,0.25 -0.65,0.25 -0.53,0.24 -0.41,0.23 -0.30,0.23 -0.18,0.22 -0.06,0.21 0.06,0.21 0.18,0.20 0.30,0.19 0.41,0.19 0.53,0.18 0.65,0.17 0.77,0.16 0.89,0.16" />
<polyline points="-0.55,0.78 -0.48,0.76 -0.41,0.74 -0.33,0.72 -0.26,0.70 -0.18,0.68 -0.11,0.66 -0.04,0.64 0.04,0.62 0.11,0.60 0.18,0.58 0.26,0.56 0.33,0.54 0.41,0.52 0.48,0.50 0.55,0.48" />
<polyline points="-0.13,1.26 -0.11,1.23 -0.09,1.21 -0.08,1.18 -0.06,1.15 -0.04,1.12 -0.02,1.09 -0.01,1.06 0.01,1.03 0.03,1.00 0.04,0.98 0.06,0.95 0.08,0.92 0.09,0.89 0.11,0.86 0.13,0.83" />
<polyline points="0.33,1.71 0.28,1.68 0.24,1.65 0.20,1.62 0.15,1.58 0.11,1.55 0.07,1.52 0.02,1.48 -0.02,1.45 -0.07,1.42 -0.11,1.38 -0.15,1.35 -0.20,1.32 -0.24,1.28 -0.28,1.25 -0.33,1.22" />
<polyline points="0.72,2.12 0.62,2.09 0.53,2.06 0.43,2.03 0.34,2.00 0.24,1.96 0.14,1.93 0.05,1.90 -0.05,1.87 -0.14,1.84 -0.24,1.81 -0.34,1.77 -0.43,1.74 -0.53,1.71 -0.62,1.68 -0.72,1.65" />
<polyline points="0.99,2.49 0.86,2.46 0.73,2.44 0.59,2.42 0.46,2.39 0.33,2.37 0.20,2.34 0.07,2.32 -0.07,2.29 -0.20,2.27 -0.33,2.24 -0.46,2.22 -0.59,2.19 -0.73,2.17 -0.86,2.14 -0.99,2.12" />
<polyline points="1.09,2.82 0.94,2.81 0.80,2.80 0.65,2.78 0.51,2.77 0.36,2.76 0.22,2.74 0.07,2.73 -0.07,2.72 -0.22,2.70 -0.36,2.69 -0.51,2.68 -0.65,2.66 -0.80,2.65 -0.94,2.63 -1.09,2.62" />
<polyline points="1.00,3.14 0.87,3.14 0.73,3.14 0.60,3.14 0.47,3.14 0.33,3.14 0.20,3.14 0.07,3.14 -0.07,3.14 -0.20,3.14 -0.33,3.14 -0.47,3.14 -0.60,3.14 -0.73,3.14 -0.87,3.14 -1.00,3.14" />
<polyline points="1.00,-3.14 0.74,-2.82 0.35,-2.49 -0.10,-2.12 -0.54,-1.71 -0.88,-1.26 -1.06,-0.78 -1.07,-0.26 -0.89,0.26 -0.55,0.78 -0.13,1.26 0.33,1.71 0.72,2.12 0.99,2.49 1.09,2.82 1.00,3.14" />
<polyline points="0.87,-3.14 0.64,-2.81 0.30,-2.46 -0.09,-2.09 -0.46,-1.68 -0.76,-1.23 -0.92,-0.76 -0.93,-0.25 -0.77,0.25 -0.48,0.76 -0.11,1.23 0.28,1.68 0.62,2.09 0.86,2.46 0.94,2.81 0.87,3.14" />
<polyline points="0.73,-3.14 0.54,-2.80 0.25,-2.44 -0.08,-2.06 -0.39,-1.65 -0.64,-1.21 -0.78,-0.74 -0.78,-0.25 -0.65,0.25 -0.41,0.74 -0.09,1.21 0.24,1.65 0.53,2.06 0.73,2.44 0.80,2.80 0.73,3.14" />
<polyline points="0.60,-3.14 0.44,-2.78 0.21,-2.42 -0.06,-2.03 -0.32,-1.62 -0.53,-1.18 -0.64,-0.72 -0.64,-0.24 -0.53,0.24 -0.33,0.72 -0.08,1.18 0.20,1.62 0.43,2.03 0.59,2.42 0.65,2.78 0.60,3.14" />
<polyline points="0.47,-3.14 0.34,-2.77 0.16,-2.39 -0.05,-2.00 -0.25,-1.58 -0.41,-1.15 -0.50,-0.70 -0.50,-0.23 -0.41,0.23 -0.26,0.70 -0.06,1.15 0.15,1.58 0.34,2.00 0.46,2.39 0.51,2.77 0.47,3.14" />
<polyline points="0.33,-3.14 0.25,-2.76 0.12,-2.37 -0.03,-1.96 -0.18,-1.55 -0.29,-1.12 -0.35,-0.68 -0.36,-0.23 -0.30,0.23 -0.18,0.68 -0.04,1.12 0.11,1.55 0.24,1.96 0.33,2.37 0.36,2.76 0.33,3.14" />
<polyline points="0.20,-3.14 0.15,-2.74 0.07,-2.34 -0.02,-1.93 -0.11,-1.52 -0.18,-1.09 -0.21,-0.66 -0.21,-0.22 -0.18,0.22 -0.11,0.66 -0.02,1.09 0.07,1.52 0.14,1.93 0.20,2.34 0.22,2.74 0.20,3.14" />
<polyline points="0.07,-3.14 0.05,-2.73 0.02,-2.32 -0.01,-1.90 -0.04,-1.48 -0.06,-1.06 -0.07,-0.64 -0.07,-0.21 -0.06,0.21 -0.04,0.64 -0.01,1.06 0.02,1.48 0.05,1.90 0.07,2.32 0.07,2.73 0.07,3.14" />
<polyline points="-0.07,-3.14 -0.05,-2.72 -0.02,-2.29 0.01,-1.87 0.04,-1.45 0.06,-1.03 0.07,-0.62 0.07,-0.21 0.06,0.21 0.04,0.62 0.01,1.03 -0.02,1.45 -0.05,1.87 -0.07,2.29 -0.07,2.72 -0.07,3.14" />
<polyline points="-0.20,-3.14 -0.15,-2.70 -0.07,-2.27 0.02,-1.84 0.11,-1.42 0.17,-1.00 0.21,-0.60 0.21,-0.20 0.18,0.20 0.11,0.60 0.03,1.00 -0.07,1.42 -0.14,1.84 -0.20,2.27 -0.22,2.70 -0.20,3.14" />
<polyline points="-0.33,-3.14 -0.25,-2.69 -0.12,-2.24 0.03,-1.81 0.18,-1.38 0.29,-0.98 0.35,-0.58 0.36,-0.19 0.30,0.19 0.18,0.58 0.04,0.98 -0.11,1.38 -0.24,1.81 -0.33,2.24 -0.36,2.69 -0.33,3.14" />
<polyline points="-0.47,-3.14 -0.34,-2.68 -0.16,-2.22 0.05,-1.77 0.25,-1.35 0.41,-0.95 0.50,-0.56 0.50,-0.19 0.41,0.19 0.26,0.56 0.06,0.95 -0.15,1.35 -0.34,1.77 -0.46,2.22 -0.51,2.68 -0.47,3.14" />
<polyline points="-0.60,-3.14 -0.44,-2.66 -0.21,-2.19 0.06,-1.74 0.32,-1.32 0.52,-0.92 0.64,-0.54 0.64,-0.18 0.53,0.18 0.33,0.54 0.08,0.92 -0.20,1.32 -0.43,1.74 -0.59,2.19 -0.65,2.66 -0.60,3.14" />
<polyline points="-0.73,-3.14 -0.54,-2.65 -0.25,-2.17 0.08,-1.71 0.39,-1.28 0.64,-0.89 0.78,-0.52 0.78,-0.17 0.65,0.17 0.41,0.52 0.09,0.89 -0.24,1.28 -0.53,1.71 -0.73,2.17 -0.80,2.65 -0.73,3.14" />
<polyline points="-0.87,-3.14 -0.64,-2.63 -0.30,-2.14 0.09,-1.68 0.46,-1.25 0.76,-0.86 0.92,-0.50 0.93,-0.16 0.77,0.16 0.48,0.50 0.11,0.86 -0.28,1.25 -0.62,1.68 -0.86,2.14 -0.94,2.63 -0.87,3.14" />
<polyline points="-1.00,-3.14 -0.74,-2.62 -0.35,-2.12 0.10,-1.65 0.54,-1.22 0.88,-0.83 1.06,-0.48 1.07,-0.16 0.89,0.16 0.55,0.48 0.13,0.83 -0.33,1.22 -0.72,1.65 -0.99,2.12 -1.09,2.62 -1.00,3.14" />
</g>
</svg>