<svg xmlns="http://www.w3.org/2000/svg" width="110" height="99" viewBox="0 0 110 99">
<rect x="0" y="11" width="11" height="11" fill="rgb(226,226,226)"/>
<rect x="0" y="22" width="11" height="11" fill="rgb(198,198,198)"/>
<rect x="0" y="33" width="11" height="11" fill="rgb(169,169,169)"/>
<rect x="0" y="44" width="11" height="11" fill="rgb(140,140,140)"/>
<rect x="0" y="55" width="11" height="11" fill="rgb(112,112,112)"/>
<rect x="0" y="66" width="11" height="11" fill="rgb(83,83,83)"/>
<rect x="0" y="77" width="11" height="11" fill="rgb(54,54,54)"/>
<rect x="0" y="88" width="11" height="11" fill="rgb(26,26,26)"/>
<rect x="11" y="0" width="11" height="11" fill="rgb(23,23,23)"/>
<rect x="11" y="11" width="11" height="11" fill="rgb(252,252,252)"/>
<rect x="11" y="22" width="11" height="11" fill="rgb(223,223,223)"/>
<rect x="11" y="33" width="11" height="11" fill="rgb(195,195,195)"/>
<rect x="11" y="44" width="11" height="11" fill="rgb(166,166,166)"/>
<rect x="11" y="55" width="11" height="11" fill="rgb(138,138,138)"/>
<rect x="11" y="66" width="11" height="11" fill="rgb(109,109,109)"/>
<rect x="11" y="77" width="11" height="11" fill="rgb(80,80,80)"/>
<rect x="11" y="88" width="11" height="11" fill="rgb(52,52,52)"/>
<rect x="22" y="0" width="11" height="11" fill="rgb(49,49,49)"/>
<rect x="22" y="11" width="11" height="11" fill="rgb(20,20,20)"/>
<rect x="22" y="22" width="11" height="11" fill="rgb(249,249,249)"/>
<rect x="22" y="33" width="11" height="11" fill="rgb(221,221,221)"/>
<rect x="22" y="44" width="11" height="11" fill="rgb(192,192,192)"/>
<rect x="22" y="55" width="11" height="11" fill="rgb(163,163,163)"/>
<rect x="22" y="66" width="11" height="11" fill="rgb(135,135,135)"/>
<rect x="22" y="77" width="11" height="11" fill="rgb(106,106,106)"/>
<rect x="22" y="88" width="11" height="11" fill="rgb(77,77,77)"/>
<rect x="33" y="0" width="11" height="11" fill="rgb(74,74,74)"/>
<rect x="33" y="11" width="11" height="11" fill="rgb(46,46,46)"/>
<rect x="33" y="22" width="11" height="11" fill="rgb(17,17,17)"/>
<rect x="33" y="33" width="11" height="11" fill="rgb(246,246,246)"/>
<rect x="33" y="44" width="11" height="11" fill="rgb(218,218,218)"/>
<rect x="33" y="55" width="11" height="11" fill="rgb(189,189,189)"/>
<rect x="33" y="66" width="11" height="11" fill="rgb(160,160,160)"/>
<rect x="33" y="77" width="11" height="11" fill="rgb(132,132,132)"/>
<rect x="33" y="88" width="11" height="11" fill="rgb(103,103,103)"/>
<rect x="44" y="0" width="11" height="11" fill="rgb(100,100,100)"/>
<rect x="44" y="11" width="11" height="11" fill="rgb(72,72,72)"/>
<rect x="44" y="22" width="11" height="11" fill="rgb(43,43,43)"/>
<rect x="44" y="33" width="11" height="11" fill="rgb(14,14,14)"/>
<rect x="44" y="44" width="11" height="11" fill="rgb(244,244,244)"/>
<rect x="44" y="55" width="11" height="11" fill="rgb(215,215,215)"/>
<rect x="44" y="66" width="11" height="11" fill="rgb(186,186,186)"/>
<rect x="44" y="77" width="11" height="11" fill="rgb(158,158,158)"/>
<rect x="44" y="88" width="11" height="11" fill="rgb(129,129,129)"/>
<rect x="55" y="0" width="11" height="11" fill="rgb(126,126,126)"/>
<rect x="55" y="11" width="11" height="11" fill="rgb(97,97,97)"/>
<rect x="55" y="22" width="11" height="11" fill="rgb(69,69,69)"/>
<rect x="55" y="33" width="11" height="11" fill="rgb(40,40,40)"/>
<rect x="55" y="44" width="11" height="11" fill="rgb(11,11,11)"/>
<rect x="55" y="55" width="11" height="11" fill="rgb(241,241,241)"/>
<rect x="55" y="66" width="11" height="11" fill="rgb(212,212,212)"/>
<rect x="55" y="77" width="11" height="11" fill="rgb(183,183,183)"/>
<rect x="55" y="88" width="11" height="11" fill="rgb(155,155,155)"/>
<rect x="66" y="0" width="11" height="11" fill="rgb(152,152,152)"/>
<rect x="66" y="11" width="11" height="11" fill="rgb(123,123,123)"/>
<rect x="66" y="22" width="11" height="11" fill="rgb(95,95,95)"/>
<rect x="66" y="33" width="11" height="11" fill="rgb(66,66,66)"/>
<rect x="66" y="44" width="11" height="11" fill="rgb(37,37,37)"/>
<rect x="66" y="55" width="11" height="11" fill="rgb(9,9,9)"/>
<rect x="66" y="66" width="11" height="11" fill="rgb(238,238,238)"/>
<rect x="66" y="77" width="11" height="11" fill="rgb(209,209,209)"/>
<rect x="66" y="88" width="11" height="11" fill="rgb(181,181,181)"/>
<rect x="77" y="0" width="11" height="11" fill="rgb(178,178,178)"/>
<rect x="77" y="11" width="11" height="11" fill="rgb(149,149,149)"/>
<rect x="77" y="22" width="11" height="11" fill="rgb(120,120,120)"/>
<rect x="77" y="33" width="11" height="11" fill="rgb(92,92,92)"/>
<rect x="77" y="44" width="11" height="11" fill="rgb(63,63,63)"/>
<rect x="77" y="55" width="11" height="11" fill="rgb(34,34,34)"/>
<rect x="77" y="66" width="11" height="11" fill="rgb(6,6,6)"/>
<rect x="77" y="77" width="11" height="11" fill="rgb(235,235,235)"/>
<rect x="77" y="88" width="11" height="11" fill="rgb(206,206,206)"/>
<rect x="88" y="0" width="11" height="11" fill="rgb(203,203,203)"/>
<rect x="88" y="11" width="11" height="11" fill="rgb(175,175,175)"/>
<rect x="88" y="22" width="11" height="11" fill="rgb(146,146,146)"/>
<rect x="88" y="33" width="11" height="11" fill="rgb(117,117,117)"/>
<rect x="88" y="44" width="11" height="11" fill="rgb(89,89,89)"/>
<rect x="88" y="55" width="11" height="11" fill="rgb(60,60,60)"/>
<rect x="88" y="66" width="11" height="11" fill="rgb(32,32,32)"/>
<rect x="88" y="77" width="11" height="11" fill="rgb(3,3,3)"/>
<rect x="88" y="88" width="11" height="11" fill="rgb(232,232,232)"/>
<rect x="99" y="0" width="11" height="11" fill="rgb(229,229,229)"/>
<rect x="99" y="11" width="11" height="11" fill="rgb(201,201,201)"/>
<rect x="99" y="22" width="11" height="11" fill="rgb(172,172,172)"/>
<rect x="99" y="33" width="11" height="11" fill="rgb(143,143,143)"/>
<rect x="99" y="44" width="11" height="11" fill="rgb(115,115,115)"/>
<rect x="99" y="55" width="11" height="11" fill="rgb(86,86,86)"/>
<rect x="99" y="66" width="11" height="11" fill="rgb(57,57,57)"/>
<rect x="99" y="77" width="11" height="11" fill="rgb(29,29,29)"/>
<rect x="99" y="88" width="11" height="11" fill="rgb(0,0,0)"/>
</svg>