<svg xmlns="http://www.w3.org/2000/svg" width="161.8" height="100.0" viewBox="-85.762 -54.914 171.803 110.000">
<g fill="none" stroke="black" stroke-width="0.0038%" transform="translate(0, 0.1724) scale(132.0580, -132.0580)">
<circle cx="-0.612" cy="0.000" r="0.004" />
<circle cx="0.000" cy="0.379" r="0.004" />
<circle cx="0.000" cy="0.000" r="0.004" />
<circle cx="0.485" cy="0.000" r="0.004" />
<circle cx="-0.194" cy="0.300" r="0.004" />
<circle cx="0.522" cy="-0.120" r="0.004" />
<circle cx="-0.360" cy="0.323" r="0.004" />
<circle cx="0.269" cy="-0.222" r="0.004" />
<circle cx="0.169" cy="0.166" r="0.004" />
<circle cx="0.484" cy="0.104" r="0.004" />
<circle cx="-0.140" cy="0.299" r="0.004" />
<circle cx="0.574" cy="-0.086" r="0.004" />
<circle cx="-0.508" cy="0.355" r="0.004" />
<circle cx="-0.086" cy="-0.314" r="0.004" />
<circle cx="0.312" cy="-0.053" r="0.004" />
<circle cx="0.179" cy="0.193" r="0.004" />
<circle cx="0.486" cy="0.111" r="0.004" />
<circle cx="-0.143" cy="0.300" r="0.004" />
<circle cx="0.573" cy="-0.088" r="0.004" />
<circle cx="-0.503" cy="0.354" r="0.004" />
<circle cx="-0.073" cy="-0.311" r="0.004" />
<circle cx="0.319" cy="-0.045" r="0.004" />
<circle cx="0.170" cy="0.197" r="0.004" />
<circle cx="0.498" cy="0.105" r="0.004" />
<circle cx="-0.179" cy="0.308" r="0.004" />
<circle cx="0.542" cy="-0.111" r="0.004" />
<circle cx="-0.416" cy="0.335" r="0.004" />
<circle cx="0.150" cy="-0.257" r="0.004" />
<circle cx="0.296" cy="0.093" r="0.004" />
<circle cx="0.278" cy="0.183" r="0.004" />
<circle cx="0.352" cy="0.172" r="0.004" />
<circle cx="0.211" cy="0.218" r="0.004" />
<circle cx="0.462" cy="0.131" r="0.004" />
<circle cx="-0.067" cy="0.286" r="0.004" />
<circle cx="0.611" cy="-0.042" r="0.004" />
<circle cx="-0.612" cy="0.378" r="0.004" />
<circle cx="-0.410" cy="-0.378" r="0.004" />
<circle cx="-0.183" cy="-0.253" r="0.004" />
<circle cx="0.266" cy="-0.113" r="0.004" />
<circle cx="0.227" cy="0.164" r="0.004" />
<circle cx="0.417" cy="0.140" r="0.004" />
<circle cx="0.051" cy="0.258" r="0.004" />
<circle cx="0.603" cy="0.032" r="0.004" />
<circle cx="-0.548" cy="0.373" r="0.004" />
<circle cx="-0.199" cy="-0.338" r="0.004" />
<circle cx="0.207" cy="-0.123" r="0.004" />
<circle cx="0.302" cy="0.128" r="0.004" />
<circle cx="0.285" cy="0.187" r="0.004" />
<circle cx="0.342" cy="0.176" r="0.004" />
<circle cx="0.233" cy="0.211" r="0.004" />
<circle cx="0.431" cy="0.144" r="0.004" />
<circle cx="0.019" cy="0.266" r="0.004" />
<circle cx="0.614" cy="0.012" r="0.004" />
<circle cx="-0.595" cy="0.379" r="0.004" />
<circle cx="-0.351" cy="-0.368" r="0.004" />
<circle cx="-0.049" cy="-0.217" r="0.004" />
<circle cx="0.373" cy="-0.031" r="0.004" />
<circle cx="0.069" cy="0.230" r="0.004" />
<circle cx="0.583" cy="0.043" r="0.004" />
<circle cx="-0.475" cy="0.361" r="0.004" />
<circle cx="0.009" cy="-0.294" r="0.004" />
<circle cx="0.343" cy="0.006" r="0.004" />
<circle cx="0.150" cy="0.212" r="0.004" />
<circle cx="0.524" cy="0.092" r="0.004" />
<circle cx="-0.261" cy="0.324" r="0.004" />
<circle cx="0.447" cy="-0.161" r="0.004" />
<circle cx="-0.168" cy="0.276" r="0.004" />
<circle cx="0.538" cy="-0.104" r="0.004" />
<circle cx="-0.400" cy="0.332" r="0.004" />
<circle cx="0.186" cy="-0.247" r="0.004" />
<circle cx="0.266" cy="0.115" r="0.004" />
<circle cx="0.338" cy="0.164" r="0.004" />
<circle cx="0.236" cy="0.209" r="0.004" />
<circle cx="0.426" cy="0.146" r="0.004" />
<circle cx="0.032" cy="0.263" r="0.004" />
<circle cx="0.610" cy="0.020" r="0.004" />
<circle cx="-0.579" cy="0.377" r="0.004" />
<circle cx="-0.298" cy="-0.358" r="0.004" />
<circle cx="0.055" cy="-0.184" r="0.004" />
<circle cx="0.387" cy="0.034" r="0.004" />
<circle cx="0.070" cy="0.239" r="0.004" />
<circle cx="0.588" cy="0.043" r="0.004" />
<circle cx="-0.490" cy="0.363" r="0.004" />
<circle cx="-0.030" cy="-0.303" r="0.004" />
<circle cx="0.336" cy="-0.018" r="0.004" />
<circle cx="0.151" cy="0.208" r="0.004" />
<circle cx="0.521" cy="0.093" r="0.004" />
<circle cx="-0.251" cy="0.322" r="0.004" />
<circle cx="0.460" cy="-0.155" r="0.004" />
<circle cx="-0.201" cy="0.284" r="0.004" />
<circle cx="0.507" cy="-0.124" r="0.004" />
<circle cx="-0.317" cy="0.314" r="0.004" />
<circle cx="0.347" cy="-0.196" r="0.004" />
<circle cx="0.043" cy="0.214" r="0.004" />
<circle cx="0.584" cy="0.026" r="0.004" />
<circle cx="-0.486" cy="0.361" r="0.004" />
<circle cx="-0.021" cy="-0.301" r="0.004" />
<circle cx="0.338" cy="-0.013" r="0.004" />
<circle cx="0.149" cy="0.209" r="0.004" />
<circle cx="0.523" cy="0.092" r="0.004" />
<circle cx="-0.258" cy="0.323" r="0.004" />
<circle cx="0.450" cy="-0.159" r="0.004" />
</g>
</svg>