<svg xmlns="http://www.w3.org/2000/svg" width="104.6" height="100.0" viewBox="-57.32 -55.00 114.64 110.00">
<g fill="none" stroke="black" stroke-width="0.0240%" transform="translate(0, 0.0000) scale(20.8333, -20.8333)">
<polygon points="1.73,0.90 0.95,0.45 0.95,-0.45 1.73,-0.90 2.51,-0.45 2.51,0.45" />
<polygon points="0.87,-0.60 0.09,-1.05 0.09,-1.95 0.87,-2.40 1.65,-1.95 1.65,-1.05" />
<polygon points="-0.87,-0.60 -1.65,-1.05 -1.65,-1.95 -0.87,-2.40 -0.09,-1.95 -0.09,-1.05" />
<polygon points="-1.73,0.90 -2.51,0.45 -2.51,-0.45 -1.73,-0.90 -0.95,-0.45 -0.95,0.45" />
<polygon points="-0.87,2.40 -1.65,1.95 -1.65,1.05 -0.87,0.60 -0.09,1.05 -0.09,1.95" />
<polygon points="0.87,2.40 0.09,1.95 0.09,1.05 0.87,0.60 1.65,1.05 1.65,1.95" />
</g>
</svg>