<svg xmlns="http://www.w3.org/2000/svg" width="161.8" height="100.0" viewBox="-3.92 -5.00 171.80 110.00">
<g fill="none" stroke="black" stroke-width="0.0750%" transform="translate(0, 100.0000) scale(6.6667, -6.6667)">
<polyline points="0.16,0.00 0.32,0.00 0.32,0.00 0.49,0.00 0.49,1.00 0.65,1.00 0.65,1.00 0.81,1.00 0.81,2.00 0.97,2.00 0.97,3.00 1.13,3.00 1.13,3.00 1.29,3.00 1.29,2.00 1.46,2.00 1.46,2.00 1.62,2.00 1.62,3.00 1.78,3.00 1.78,3.00 1.94,3.00 1.94,2.00 2.10,2.00 2.10,1.00 2.27,1.00 2.27,1.00 2.43,1.00 2.43,-0.00 2.59,-0.00 2.59,-0.00 2.75,-0.00 2.75,-0.00 2.91,-0.00 2.91,1.00 3.07,1.00 3.07,1.00 3.24,1.00 3.24,0.00 3.40,0.00 3.40,0.00 3.56,0.00 3.56,0.00 3.72,0.00 3.72,1.00 3.88,1.00 3.88,1.00 4.05,1.00 4.05,2.00 4.21,2.00 4.21,2.00 4.37,2.00 4.37,3.00 4.53,3.00 4.53,3.00 4.69,3.00 4.69,3.00 4.85,3.00 4.85,2.00 5.02,2.00 5.02,2.00 5.18,2.00 5.18,3.00 5.34,3.00 5.34,4.00 5.50,4.00 5.50,5.00 5.66,5.00 5.66,5.00 5.82,5.00 5.82,4.00 5.99,4.00 5.99,4.00 6.15,4.00 6.15,4.00 6.31,4.00 6.31,5.00 6.47,5.00 6.47,5.00 6.63,5.00 6.63,6.00 6.80,6.00 6.80,6.00 6.96,6.00 6.96,7.00 7.12,7.00 7.12,7.00 7.28,7.00 7.28,7.00 7.44,7.00 7.44,6.00 7.60,6.00 7.60,6.00 7.77,6.00 7.77,7.00 7.93,7.00 7.93,7.00 8.09,7.00 8.09,7.00 8.25,7.00 8.25,6.00 8.41,6.00 8.41,6.00 8.58,6.00 8.58,5.00 8.74,5.00 8.74,4.00 8.90,4.00 8.90,4.00 9.06,4.00 9.06,5.00 9.22,5.00 9.22,5.00 9.38,5.00 9.38,4.00 9.55,4.00 9.55,4.00 9.71,4.00 9.71,5.00 9.87,5.00 9.87,6.00 10.03,6.00 10.03,6.00 10.19,6.00 10.19,7.00 10.36,7.00 10.36,7.00 10.52,7.00 10.52,8.00 10.68,8.00 10.68,9.00 10.84,9.00 10.84,9.00 11.00,9.00 11.00,8.00 11.16,8.00 11.16,8.00 11.33,8.00 11.33,8.00 11.49,8.00 11.49,9.00 11.65,9.00 11.65,9.00 11.81,9.00 11.81,10.00 11.97,10.00 11.97,10.00 12.14,10.00 12.14,11.00 12.30,11.00 12.30,11.00 12.46,11.00 12.46,11.00 12.62,11.00 12.62,10.00 12.78,10.00 12.78,10.00 12.94,10.00 12.94,11.00 13.11,11.00 13.11,12.00 13.27,12.00 13.27,12.00 13.43,12.00 13.43,13.00 13.59,13.00 13.59,13.00 13.75,13.00 13.75,14.00 13.92,14.00 13.92,15.00 14.08,15.00 14.08,15.00 14.24,15.00 14.24,14.00 14.40,14.00 14.40,14.00 14.56,14.00 14.56,15.00 14.72,15.00 14.72,15.00 14.89,15.00 14.89,14.00 15.05,14.00 15.05,13.00 15.21,13.00 15.21,13.00 15.37,13.00 15.37,12.00 15.53,12.00 15.53,12.00 15.69,12.00 15.69,12.00 15.86,12.00 15.86,12.00 16.02,12.00 16.02,13.00 16.18,13.00 16.18,13.00 16.34,13.00 16.34,14.00 16.50,14.00 16.50,15.00 16.67,15.00 16.67,15.00 16.83,15.00 16.83,14.00 16.99,14.00 16.99,14.00 17.15,14.00 17.15,15.00 17.31,15.00 17.31,15.00 17.47,15.00 17.47,14.00 17.64,14.00 17.64,13.00 17.80,13.00 17.80,13.00 17.96,13.00 17.96,12.00 18.12,12.00 18.12,12.00 18.28,12.00 18.28,11.00 18.45,11.00 18.45,10.00 18.61,10.00 18.61,10.00 18.77,10.00 18.77,11.00 18.93,11.00 18.93,11.00 19.09,11.00 19.09,11.00 19.25,11.00 19.25,10.00 19.42,10.00 19.42,10.00 19.58,10.00 19.58,9.00 19.74,9.00 19.74,9.00 19.90,9.00 19.90,8.00 20.06,8.00 20.06,8.00 20.23,8.00 20.23,8.00 20.39,8.00 20.39,9.00 20.55,9.00 20.55,9.00 20.71,9.00 20.71,8.00 20.87,8.00 20.87,8.00 21.03,8.00 21.03,9.00 21.20,9.00 21.20,9.00 21.36,9.00 21.36,8.00 21.52,8.00 21.52,8.00 21.68,8.00 21.68,8.00 21.84,8.00 21.84,9.00 22.01,9.00 22.01,9.00 22.17,9.00 22.17,10.00 22.33,10.00 22.33,10.00 22.49,10.00 22.49,11.00 22.65,11.00 22.65,11.00 22.81,11.00 22.81,11.00 22.98,11.00 22.98,10.00 23.14,10.00 23.14,10.00 23.30,10.00 23.30,11.00 23.46,11.00 23.46,12.00 23.62,12.00 23.62,12.00 23.79,12.00 23.79,13.00 23.95,13.00 23.95,13.00 24.11,13.00 24.11,14.00 24.27,14.00 24.27,15.00 24.43,15.00" />
</g>
</svg>