<svg xmlns="http://www.w3.org/2000/svg" width="100.0" height="100.0" viewBox="-55.00 -55.00 110.00 110.00">
<g fill="none" stroke="black" stroke-width="0.0600%" transform="translate(0, 0.0000) scale(8.3333, -8.3333)">
<polyline points="-5.03,6.00 -5.24,5.84 -5.40,5.72 -5.55,5.55 -5.68,5.40 -5.80,5.20 -6.00,4.83" />
<polyline points="2.55,6.00 2.95,5.95 3.00,5.94 3.08,5.92 3.44,5.84 3.60,5.81 3.87,5.73 3.91,5.71 4.20,5.63 4.35,5.55 4.70,5.40 4.76,5.36 4.80,5.34 5.09,5.09 5.25,4.95 5.40,4.82 5.41,4.81 5.42,4.80 5.45,4.75 5.64,4.44 5.79,4.20 5.85,4.05 6.00,3.74" />
<polyline points="3.60,-3.63 3.63,-3.63 3.79,-3.60 4.11,-3.51 4.20,-3.48 4.41,-3.21 4.58,-3.00 4.63,-2.83 4.74,-2.46 4.76,-2.40 4.76,-2.36 4.76,-1.84 4.76,-1.80 4.75,-1.75 4.69,-1.31 4.67,-1.20 4.65,-1.05 4.60,-0.80 4.58,-0.60 4.54,-0.34 4.53,-0.27 4.49,-0.00 4.47,0.27 4.46,0.34 4.44,0.60 4.42,0.82 4.41,0.99 4.40,1.20 4.38,1.38 4.36,1.64 4.34,1.80 4.32,1.92 4.25,2.35 4.24,2.40 4.23,2.43 4.20,2.54 4.03,2.83 3.95,3.00 3.78,3.18 3.60,3.40 3.47,3.47 3.26,3.60 3.07,3.67 3.00,3.70 2.89,3.71 2.54,3.74 2.40,3.77 2.23,3.77 1.95,3.75 1.80,3.75 1.66,3.74 1.30,3.70 1.20,3.70 1.11,3.69 0.66,3.66 0.60,3.66 0.54,3.66 0.08,3.68 -0.00,3.68 -0.11,3.71 -0.43,3.77 -0.60,3.80 -0.89,3.91 -0.91,3.91 -1.20,4.02 -1.33,4.07 -1.60,4.20 -1.76,4.24 -1.80,4.25 -1.86,4.26 -2.27,4.33 -2.40,4.36 -2.57,4.37 -2.82,4.38 -3.00,4.39 -3.16,4.36 -3.52,4.28 -3.60,4.27 -3.64,4.24 -3.70,4.20 -3.91,3.91 -3.97,3.83 -4.13,3.60 -4.14,3.54 -4.20,3.13 -4.21,3.01 -4.21,3.00 -4.21,2.99 -4.20,2.90 -4.12,2.48 -4.10,2.40 -4.05,2.25 -3.97,2.03 -3.89,1.80 -3.81,1.59 -3.69,1.29 -3.66,1.20 -3.65,1.15 -3.60,0.99 -3.41,0.79 -3.19,0.60 -3.13,0.47 -3.00,0.26 -2.84,0.44 -2.63,0.60 -2.46,0.66 -2.40,0.68 -2.11,0.91 -2.04,0.96 -1.80,1.13 -1.76,1.16 -1.71,1.20 -1.39,1.39 -1.20,1.50 -0.99,1.59 -0.69,1.71 -0.60,1.74 -0.54,1.74 -0.03,1.77 -0.00,1.77 0.05,1.75 0.41,1.61 0.60,1.52 0.77,1.37 0.93,1.20 1.06,1.06 1.20,0.88 1.31,0.71 1.37,0.60 1.48,0.32 1.49,0.29 1.60,-0.00 1.63,-0.17 1.68,-0.48 1.70,-0.60 1.70,-0.70 1.71,-1.11 1.72,-1.20 1.72,-1.28 1.73,-1.73 1.73,-1.80 1.74,-1.86 1.80,-2.14 1.84,-2.36 1.85,-2.40 1.93,-2.53 2.06,-2.74 2.22,-3.00 2.33,-3.07 2.40,-3.13 2.70,-3.30 2.72,-3.32 3.00,-3.49 3.09,-3.51 3.40,-3.60 3.57,-3.63 3.60,-3.63" />
<polyline points="-2.40,2.82 -2.31,2.91 -2.23,3.00 -2.30,3.10 -2.40,3.28 -2.63,3.37 -2.86,3.46 -3.00,3.51 -3.14,3.14 -3.19,3.00 -3.12,2.88 -3.00,2.70 -2.75,2.75 -2.62,2.78 -2.40,2.82" />
<polyline points="3.00,0.99 3.14,1.06 3.25,1.20 3.36,1.44 3.36,1.56 3.42,1.80 3.28,2.08 3.27,2.13 3.19,2.40 3.08,2.48 3.00,2.58 2.84,2.56 2.43,2.43 2.40,2.42 2.39,2.41 2.38,2.40 2.39,2.39 2.40,2.32 2.56,1.96 2.57,1.80 2.75,1.55 2.82,1.38 2.91,1.20 2.94,1.14 3.00,0.99" />
<polyline points="3.00,1.77 3.01,1.79 3.02,1.80 3.01,1.81 3.00,1.89 2.98,1.82 2.98,1.80 2.99,1.79 3.00,1.77" />
<polyline points="-3.00,-4.22 -2.99,-4.21 -2.97,-4.20 -2.68,-3.92 -2.40,-3.68 -2.36,-3.64 -2.30,-3.60 -2.21,-3.41 -2.14,-3.26 -2.00,-3.00 -2.00,-2.80 -1.98,-2.58 -1.98,-2.40 -2.07,-2.13 -2.08,-2.08 -2.18,-1.80 -2.25,-1.65 -2.40,-1.37 -2.47,-1.27 -2.54,-1.20 -2.72,-0.92 -2.93,-0.67 -2.99,-0.60 -2.99,-0.59 -3.00,-0.56 -3.01,-0.59 -3.03,-0.60 -3.45,-0.75 -3.60,-0.78 -3.74,-1.06 -3.83,-1.20 -4.00,-1.40 -4.20,-1.59 -4.26,-1.74 -4.29,-1.80 -4.37,-1.97 -4.45,-2.15 -4.58,-2.40 -4.65,-2.55 -4.80,-2.84 -4.83,-2.97 -4.84,-3.00 -4.85,-3.05 -4.90,-3.50 -4.92,-3.60 -4.91,-3.71 -4.82,-4.18 -4.82,-4.20 -4.81,-4.21 -4.80,-4.23 -4.74,-4.26 -4.43,-4.43 -4.20,-4.53 -3.91,-4.49 -3.89,-4.49 -3.60,-4.45 -3.43,-4.37 -3.03,-4.23 -3.00,-4.22" />
<polyline points="3.60,-2.50 3.65,-2.45 3.72,-2.40 3.75,-2.25 3.81,-2.01 3.85,-1.80 3.80,-1.60 3.76,-1.36 3.72,-1.20 3.69,-1.11 3.60,-0.70 3.41,-1.01 3.33,-1.20 3.26,-1.46 3.25,-1.55 3.20,-1.80 3.32,-2.08 3.35,-2.15 3.45,-2.40 3.54,-2.46 3.60,-2.50" />
<polyline points="3.60,-1.81 3.60,-1.80 3.60,-1.80 3.60,-1.80 3.60,-1.79 3.60,-1.80 3.60,-1.80 3.60,-1.80 3.60,-1.81" />
<polyline points="3.60,-1.90 3.62,-1.82 3.62,-1.80 3.62,-1.78 3.60,-1.67 3.57,-1.77 3.56,-1.80 3.57,-1.83 3.60,-1.90" />
<polyline points="-3.60,-3.62 -3.59,-3.61 -3.57,-3.60 -3.55,-3.55 -3.48,-3.12 -3.43,-3.00 -3.50,-2.90 -3.60,-2.81 -3.70,-2.90 -3.86,-3.00 -3.87,-3.27 -3.82,-3.38 -3.86,-3.60 -3.62,-3.62 -3.60,-3.62" />
<polyline points="6.00,-5.02 5.80,-5.20 5.58,-5.40 5.47,-5.47 5.40,-5.51 5.22,-5.58 5.05,-5.65 4.80,-5.74 4.58,-5.78 4.39,-5.81 4.20,-5.85 4.06,-5.86 3.72,-5.88 3.60,-5.88 3.48,-5.88 3.13,-5.87 3.00,-5.87 2.86,-5.86 2.56,-5.84 2.40,-5.83 2.22,-5.82 2.00,-5.80 1.80,-5.79 1.58,-5.78 1.43,-5.77 1.20,-5.76 0.96,-5.76 0.84,-5.76 0.60,-5.76 0.37,-5.77 0.22,-5.78 -0.00,-5.79 -0.19,-5.81 -0.44,-5.84 -0.60,-5.86 -0.72,-5.88 -1.17,-5.97 -1.20,-5.97 -1.22,-5.98 -1.30,-6.00" />
</g>
</svg>