<svg xmlns="http://www.w3.org/2000/svg" width="161.8" height="100.0" viewBox="-85.90 -55.00 171.80 110.00">
<g fill="none" stroke="black" stroke-width="0.0200%" transform="translate(0, 0.0000) scale(25.0000, -25.0000)">
<polyline points="1.62,0.00 1.61,0.09 1.58,0.17 1.53,0.26 1.47,0.33 1.38,0.39 1.28,0.44 1.17,0.48 1.04,0.50 0.89,0.49 0.73,0.46 0.54,0.39 0.30,0.24 0.00,0.00 0.00,0.00 0.00,0.00 0.00,0.00 0.00,0.00 0.00,0.00 0.00,0.00 0.00,0.00 0.00,0.00 0.00,0.00 0.00,0.00 0.00,0.00 0.00,0.00 0.00,0.00 0.00,0.00 0.00,0.00 0.00,0.00 0.00,0.00 0.00,0.00 0.00,0.00 0.00,0.00 0.00,0.00 0.00,0.00 0.00,0.00 0.00,0.00 -0.30,0.24 -0.54,0.39 -0.73,0.46 -0.89,0.49 -1.04,0.50 -1.17,0.48 -1.28,0.44 -1.38,0.39 -1.47,0.33 -1.53,0.26 -1.58,0.17 -1.61,0.09 -1.62,-0.00 -1.61,-0.09 -1.58,-0.17 -1.53,-0.26 -1.47,-0.33 -1.38,-0.39 -1.28,-0.44 -1.17,-0.48 -1.04,-0.50 -0.89,-0.49 -0.73,-0.46 -0.54,-0.39 -0.30,-0.24 0.00,0.00 0.00,0.00 0.00,0.00 0.00,0.00 0.00,0.00 0.00,0.00 0.00,0.00 0.00,0.00 0.00,0.00 0.00,0.00 0.00,0.00 0.00,0.00 0.00,0.00 0.00,0.00 0.00,0.00 0.00,0.00 0.00,0.00 0.00,0.00 0.00,0.00 0.00,0.00 0.00,0.00 0.00,0.00 0.00,0.00 0.00,0.00 0.00,0.00 0.30,-0.24 0.54,-0.39 0.73,-0.46 0.89,-0.49 1.04,-0.50 1.17,-0.48 1.28,-0.44 1.38,-0.39 1.47,-0.33 1.53,-0.26 1.58,-0.17 1.61,-0.09" />
<polyline points="2.29,0.00 2.28,0.13 2.25,0.25 2.21,0.37 2.15,0.48 2.07,0.59 1.98,0.68 1.87,0.77 1.76,0.84 1.63,0.90 1.50,0.95 1.36,0.98 1.22,1.00 1.07,1.00 0.93,0.98 0.79,0.95 0.66,0.90 0.53,0.84 0.41,0.77 0.31,0.68 0.22,0.59 0.14,0.48 0.08,0.37 0.04,0.25 0.01,0.13 0.00,0.00 -0.01,0.13 -0.04,0.25 -0.08,0.37 -0.14,0.48 -0.22,0.59 -0.31,0.68 -0.41,0.77 -0.53,0.84 -0.66,0.90 -0.79,0.95 -0.93,0.98 -1.07,1.00 -1.22,1.00 -1.36,0.98 -1.50,0.95 -1.63,0.90 -1.76,0.84 -1.87,0.77 -1.98,0.68 -2.07,0.59 -2.15,0.48 -2.21,0.37 -2.25,0.25 -2.28,0.13 -2.29,-0.00 -2.28,-0.13 -2.25,-0.25 -2.21,-0.37 -2.15,-0.48 -2.07,-0.59 -1.98,-0.68 -1.87,-0.77 -1.76,-0.84 -1.63,-0.90 -1.50,-0.95 -1.36,-0.98 -1.22,-1.00 -1.07,-1.00 -0.93,-0.98 -0.79,-0.95 -0.66,-0.90 -0.53,-0.84 -0.41,-0.77 -0.31,-0.68 -0.22,-0.59 -0.14,-0.48 -0.08,-0.37 -0.04,-0.25 -0.01,-0.13 0.00,0.00 0.01,-0.13 0.04,-0.25 0.08,-0.37 0.14,-0.48 0.22,-0.59 0.31,-0.68 0.41,-0.77 0.53,-0.84 0.66,-0.90 0.79,-0.95 0.93,-0.98 1.07,-1.00 1.22,-1.00 1.36,-0.98 1.50,-0.95 1.63,-0.90 1.76,-0.84 1.87,-0.77 1.98,-0.68 2.07,-0.59 2.15,-0.48 2.21,-0.37 2.25,-0.25 2.28,-0.13" />
<polyline points="2.80,0.00 2.79,0.15 2.77,0.31 2.72,0.45 2.66,0.60 2.58,0.73 2.49,0.86 2.38,0.98 2.26,1.08 2.13,1.18 1.99,1.26 1.84,1.33 1.69,1.39 1.54,1.43 1.39,1.47 1.24,1.49 1.09,1.50 0.94,1.50 0.80,1.49 0.67,1.48 0.55,1.47 0.43,1.45 0.31,1.44 0.21,1.42 0.10,1.42 -0.00,1.41 -0.10,1.42 -0.21,1.42 -0.31,1.44 -0.43,1.45 -0.55,1.47 -0.67,1.48 -0.80,1.49 -0.94,1.50 -1.09,1.50 -1.24,1.49 -1.39,1.47 -1.54,1.43 -1.69,1.39 -1.84,1.33 -1.99,1.26 -2.13,1.18 -2.26,1.08 -2.38,0.98 -2.49,0.86 -2.58,0.73 -2.66,0.60 -2.72,0.45 -2.77,0.31 -2.79,0.15 -2.80,-0.00 -2.79,-0.15 -2.77,-0.31 -2.72,-0.45 -2.66,-0.60 -2.58,-0.73 -2.49,-0.86 -2.38,-0.98 -2.26,-1.08 -2.13,-1.18 -1.99,-1.26 -1.84,-1.33 -1.69,-1.39 -1.54,-1.43 -1.39,-1.47 -1.24,-1.49 -1.09,-1.50 -0.94,-1.50 -0.80,-1.49 -0.67,-1.48 -0.55,-1.47 -0.43,-1.45 -0.31,-1.44 -0.21,-1.42 -0.10,-1.42 -0.00,-1.41 0.10,-1.42 0.21,-1.42 0.31,-1.44 0.43,-1.45 0.55,-1.47 0.67,-1.48 0.80,-1.49 0.94,-1.50 1.09,-1.50 1.24,-1.49 1.39,-1.47 1.54,-1.43 1.69,-1.39 1.84,-1.33 1.99,-1.26 2.13,-1.18 2.26,-1.08 2.38,-0.98 2.49,-0.86 2.58,-0.73 2.66,-0.60 2.72,-0.45 2.77,-0.31 2.79,-0.15" />
<polyline points="3.24,0.00 3.23,0.18 3.20,0.35 3.15,0.53 3.09,0.69 3.00,0.85 2.91,1.01 2.79,1.15 2.67,1.28 2.53,1.40 2.38,1.51 2.23,1.61 2.06,1.69 1.90,1.77 1.73,1.83 1.56,1.88 1.39,1.92 1.22,1.95 1.06,1.97 0.90,1.98 0.74,1.99 0.59,2.00 0.44,2.00 0.29,2.00 0.14,2.00 -0.00,2.00 -0.14,2.00 -0.29,2.00 -0.44,2.00 -0.59,2.00 -0.74,1.99 -0.90,1.98 -1.06,1.97 -1.22,1.95 -1.39,1.92 -1.56,1.88 -1.73,1.83 -1.90,1.77 -2.06,1.69 -2.23,1.61 -2.38,1.51 -2.53,1.40 -2.67,1.28 -2.79,1.15 -2.91,1.01 -3.00,0.85 -3.09,0.69 -3.15,0.53 -3.20,0.35 -3.23,0.18 -3.24,-0.00 -3.23,-0.18 -3.20,-0.35 -3.15,-0.53 -3.09,-0.69 -3.00,-0.85 -2.91,-1.01 -2.79,-1.15 -2.67,-1.28 -2.53,-1.40 -2.38,-1.51 -2.23,-1.61 -2.06,-1.69 -1.90,-1.77 -1.73,-1.83 -1.56,-1.88 -1.39,-1.92 -1.22,-1.95 -1.06,-1.97 -0.90,-1.98 -0.74,-1.99 -0.59,-2.00 -0.44,-2.00 -0.29,-2.00 -0.14,-2.00 -0.00,-2.00 0.14,-2.00 0.29,-2.00 0.44,-2.00 0.59,-2.00 0.74,-1.99 0.90,-1.98 1.06,-1.97 1.22,-1.95 1.39,-1.92 1.56,-1.88 1.73,-1.83 1.90,-1.77 2.06,-1.69 2.23,-1.61 2.38,-1.51 2.53,-1.40 2.67,-1.28 2.79,-1.15 2.91,-1.01 3.00,-0.85 3.09,-0.69 3.15,-0.53 3.20,-0.35 3.23,-0.18" />
</g>
</svg>