<svg xmlns="http://www.w3.org/2000/svg" width="106.8" height="100.0" viewBox="-47 -5 117 110">
<g fill="none" stroke="black" stroke-width="2.2950%" transform="translate(0, 100.0000) scale(0.2179, -0.2179)">
<circle cx="-195" cy="0" r="2" />
<circle cx="0" cy="459" r="2" />




















<line x1="5" y1="0" x2="5" y2="459" />
<line x1="15" y1="0" x2="15" y2="280" />
<line x1="25" y1="0" x2="25" y2="259" />
<line x1="35" y1="0" x2="35" y2="231" />
<line x1="45" y1="0" x2="45" y2="216" />
<line x1="55" y1="0" x2="55" y2="213" />
<line x1="65" y1="0" x2="65" y2="177" />
<line x1="75" y1="0" x2="75" y2="130" />
<line x1="85" y1="0" x2="85" y2="101" />
<line x1="95" y1="0" x2="95" y2="80" />
<line x1="105" y1="0" x2="105" y2="72" />
<line x1="115" y1="0" x2="115" y2="45" />
<line x1="125" y1="0" x2="125" y2="33" />
<line x1="135" y1="0" x2="135" y2="29" />
<line x1="145" y1="0" x2="145" y2="24" />
<line x1="155" y1="0" x2="155" y2="18" />
<line x1="165" y1="0" x2="165" y2="9" />
<line x1="175" y1="0" x2="175" y2="6" />
<line x1="185" y1="0" x2="185" y2="3" />

<line x1="205" y1="0" x2="205" y2="2" />


<line x1="235" y1="0" x2="235" y2="1" />






</g>
</svg>