<svg xmlns="http://www.w3.org/2000/svg" width="161.8" height="100.0" viewBox="-85.9 -5.0 171.8 110.0">
<g fill="none" stroke="black" stroke-width="0.1850%" transform="translate(0, 100.0000) scale(2.7027, -2.7027)">






























<line x1="-7.2" y1="0.0" x2="-7.2" y2="3.0" />
<line x1="-6.4" y1="0.0" x2="-6.4" y2="24.0" />
<line x1="-5.7" y1="0.0" x2="-5.7" y2="27.0" />
<line x1="-4.9" y1="0.0" x2="-4.9" y2="30.0" />
<line x1="-4.2" y1="0.0" x2="-4.2" y2="23.0" />
<line x1="-3.4" y1="0.0" x2="-3.4" y2="23.0" />
<line x1="-2.7" y1="0.0" x2="-2.7" y2="31.0" />
<line x1="-1.9" y1="0.0" x2="-1.9" y2="29.0" />
<line x1="-1.1" y1="0.0" x2="-1.1" y2="25.0" />
<line x1="-0.4" y1="0.0" x2="-0.4" y2="32.0" />
<line x1="0.4" y1="0.0" x2="0.4" y2="20.0" />
<line x1="1.1" y1="0.0" x2="1.1" y2="21.0" />
<line x1="1.9" y1="0.0" x2="1.9" y2="33.0" />
<line x1="2.7" y1="0.0" x2="2.7" y2="31.0" />
<line x1="3.4" y1="0.0" x2="3.4" y2="25.0" />
<line x1="4.2" y1="0.0" x2="4.2" y2="25.0" />
<line x1="4.9" y1="0.0" x2="4.9" y2="37.0" />
<line x1="5.7" y1="0.0" x2="5.7" y2="32.0" />
<line x1="6.4" y1="0.0" x2="6.4" y2="27.0" />
<line x1="7.2" y1="0.0" x2="7.2" y2="2.0" />






























</g>
</svg>