<svg xmlns="http://www.w3.org/2000/svg" width="161.8" height="100.0" viewBox="2479.24 -5.00 171.80 110.00">
<g fill="none" stroke="black" stroke-width="0.0900%" transform="translate(0, 100.0000) scale(5.5556, -5.5556)">
<circle cx="447.16" cy="0.00" r="0.09" />























<line x1="458.71" y1="0.00" x2="458.71" y2="1.00" />
<line x1="459.21" y1="0.00" x2="459.21" y2="1.00" />
<line x1="459.72" y1="0.00" x2="459.72" y2="7.00" />
<line x1="460.22" y1="0.00" x2="460.22" y2="9.00" />
<line x1="460.72" y1="0.00" x2="460.72" y2="18.00" />
<line x1="461.22" y1="0.00" x2="461.22" y2="9.00" />
<line x1="461.73" y1="0.00" x2="461.73" y2="6.00" />
<line x1="462.23" y1="0.00" x2="462.23" y2="7.00" />
<line x1="462.73" y1="0.00" x2="462.73" y2="9.00" />
<line x1="463.23" y1="0.00" x2="463.23" y2="6.00" />
<line x1="463.73" y1="0.00" x2="463.73" y2="2.00" />
<line x1="464.24" y1="0.00" x2="464.24" y2="12.00" />
<line x1="464.74" y1="0.00" x2="464.74" y2="14.00" />
<line x1="465.24" y1="0.00" x2="465.24" y2="10.00" />
<line x1="465.74" y1="0.00" x2="465.74" y2="8.00" />
<line x1="466.24" y1="0.00" x2="466.24" y2="10.00" />
<line x1="466.75" y1="0.00" x2="466.75" y2="5.00" />
<line x1="467.25" y1="0.00" x2="467.25" y2="1.00" />
<line x1="467.75" y1="0.00" x2="467.75" y2="1.00" />

















</g>
</svg>