<svg xmlns="http://www.w3.org/2000/svg" width="155.1" height="100.0" viewBox="-109.89 -5.00 165.06 110.00">
<g fill="none" stroke="black" stroke-width="0.1200%" transform="translate(0, 100.0000) scale(4.1667, -4.1667)">
<circle cx="0.00" cy="24.00" r="0.12" />
<line x1="-25.17" y1="0.00" x2="-25.17" y2="23.00" />
<line x1="-22.99" y1="0.00" x2="-22.99" y2="17.00" />
<line x1="-20.80" y1="0.00" x2="-20.80" y2="10.00" />
<line x1="-18.61" y1="0.00" x2="-18.61" y2="12.00" />
<line x1="-16.42" y1="0.00" x2="-16.42" y2="10.00" />
<line x1="-14.23" y1="0.00" x2="-14.23" y2="6.00" />
<line x1="-12.04" y1="0.00" x2="-12.04" y2="7.00" />
<line x1="-9.85" y1="0.00" x2="-9.85" y2="10.00" />
<line x1="-7.66" y1="0.00" x2="-7.66" y2="6.00" />
<line x1="-5.47" y1="0.00" x2="-5.47" y2="10.00" />
<line x1="-3.28" y1="0.00" x2="-3.28" y2="7.00" />
<line x1="-1.09" y1="0.00" x2="-1.09" y2="13.00" />
<line x1="1.09" y1="0.00" x2="1.09" y2="9.00" />
<line x1="3.28" y1="0.00" x2="3.28" y2="12.00" />
<line x1="5.47" y1="0.00" x2="5.47" y2="14.00" />
<line x1="7.66" y1="0.00" x2="7.66" y2="24.00" />
<line x1="9.85" y1="0.00" x2="9.85" y2="9.00" />
<line x1="12.04" y1="0.00" x2="12.04" y2="1.00" />
</g>
</svg>