<svg xmlns="http://www.w3.org/2000/svg" width="161.8" height="100.0" viewBox="-4.2 -4.2 171.8 110.0">
<g fill="none" stroke="black" stroke-width="0.6350%" transform="translate(0, 101.5748) scale(0.7874, -0.7874)">
<circle cx="1.0" cy="1.0" r="0.6" />
<circle cx="2.1" cy="1.0" r="0.6" />
<circle cx="3.1" cy="2.0" r="0.6" />
<circle cx="4.1" cy="3.0" r="0.6" />
<circle cx="5.2" cy="3.0" r="0.6" />
<circle cx="6.2" cy="4.0" r="0.6" />
<circle cx="7.2" cy="5.0" r="0.6" />
<circle cx="8.3" cy="5.0" r="0.6" />
<circle cx="9.3" cy="6.0" r="0.6" />
<circle cx="10.3" cy="6.0" r="0.6" />
<circle cx="11.4" cy="6.0" r="0.6" />
<circle cx="12.4" cy="8.0" r="0.6" />
<circle cx="13.4" cy="8.0" r="0.6" />
<circle cx="14.5" cy="8.0" r="0.6" />
<circle cx="15.5" cy="10.0" r="0.6" />
<circle cx="16.5" cy="9.0" r="0.6" />
<circle cx="17.6" cy="10.0" r="0.6" />
<circle cx="18.6" cy="11.0" r="0.6" />
<circle cx="19.6" cy="11.0" r="0.6" />
<circle cx="20.7" cy="12.0" r="0.6" />
<circle cx="21.7" cy="12.0" r="0.6" />
<circle cx="22.7" cy="12.0" r="0.6" />
<circle cx="23.8" cy="12.0" r="0.6" />
<circle cx="24.8" cy="16.0" r="0.6" />
<circle cx="25.8" cy="14.0" r="0.6" />
<circle cx="26.8" cy="14.0" r="0.6" />
<circle cx="27.9" cy="16.0" r="0.6" />
<circle cx="28.9" cy="16.0" r="0.6" />
<circle cx="29.9" cy="16.0" r="0.6" />
<circle cx="31.0" cy="16.0" r="0.6" />
<circle cx="32.0" cy="20.0" r="0.6" />
<circle cx="33.0" cy="17.0" r="0.6" />
<circle cx="34.1" cy="17.0" r="0.6" />
<circle cx="35.1" cy="20.0" r="0.6" />
<circle cx="36.1" cy="21.0" r="0.6" />
<circle cx="37.2" cy="19.0" r="0.6" />
<circle cx="38.2" cy="20.0" r="0.6" />
<circle cx="39.2" cy="22.0" r="0.6" />
<circle cx="40.3" cy="21.0" r="0.6" />
<circle cx="41.3" cy="22.0" r="0.6" />
<circle cx="42.3" cy="23.0" r="0.6" />
<circle cx="43.4" cy="23.0" r="0.6" />
<circle cx="44.4" cy="24.0" r="0.6" />
<circle cx="45.4" cy="24.0" r="0.6" />
<circle cx="46.5" cy="24.0" r="0.6" />
<circle cx="47.5" cy="24.0" r="0.6" />
<circle cx="48.5" cy="24.0" r="0.6" />
<circle cx="49.6" cy="32.0" r="0.6" />
<circle cx="50.6" cy="24.0" r="0.6" />
<circle cx="51.6" cy="25.0" r="0.6" />
<circle cx="52.7" cy="30.0" r="0.6" />
<circle cx="53.7" cy="28.0" r="0.6" />
<circle cx="54.7" cy="26.0" r="0.6" />
<circle cx="55.8" cy="30.0" r="0.6" />
<circle cx="56.8" cy="30.0" r="0.6" />
<circle cx="57.8" cy="28.0" r="0.6" />
<circle cx="58.9" cy="32.0" r="0.6" />
<circle cx="59.9" cy="30.0" r="0.6" />
<circle cx="60.9" cy="32.0" r="0.6" />
<circle cx="62.0" cy="32.0" r="0.6" />
<circle cx="63.0" cy="32.0" r="0.6" />
<circle cx="64.0" cy="32.0" r="0.6" />
<circle cx="65.1" cy="40.0" r="0.6" />
<circle cx="66.1" cy="33.0" r="0.6" />
<circle cx="67.1" cy="31.0" r="0.6" />
<circle cx="68.2" cy="38.0" r="0.6" />
<circle cx="69.2" cy="35.0" r="0.6" />
<circle cx="70.2" cy="33.0" r="0.6" />
<circle cx="71.3" cy="39.0" r="0.6" />
<circle cx="72.3" cy="40.0" r="0.6" />
<circle cx="73.3" cy="37.0" r="0.6" />
<circle cx="74.3" cy="38.0" r="0.6" />
<circle cx="75.4" cy="40.0" r="0.6" />
<circle cx="76.4" cy="39.0" r="0.6" />
<circle cx="77.4" cy="40.0" r="0.6" />
<circle cx="78.5" cy="39.0" r="0.6" />
<circle cx="79.5" cy="42.0" r="0.6" />
<circle cx="80.5" cy="40.0" r="0.6" />
<circle cx="81.6" cy="41.0" r="0.6" />
<circle cx="82.6" cy="43.0" r="0.6" />
<circle cx="83.6" cy="44.0" r="0.6" />
<circle cx="84.7" cy="43.0" r="0.6" />
<circle cx="85.7" cy="43.0" r="0.6" />
<circle cx="86.7" cy="46.0" r="0.6" />
<circle cx="87.8" cy="44.0" r="0.6" />
<circle cx="88.8" cy="45.0" r="0.6" />
<circle cx="89.8" cy="47.0" r="0.6" />
<circle cx="90.9" cy="47.0" r="0.6" />
<circle cx="91.9" cy="46.0" r="0.6" />
<circle cx="92.9" cy="48.0" r="0.6" />
<circle cx="94.0" cy="48.0" r="0.6" />
<circle cx="95.0" cy="48.0" r="0.6" />
<circle cx="96.0" cy="48.0" r="0.6" />
<circle cx="97.1" cy="48.0" r="0.6" />
<circle cx="98.1" cy="48.0" r="0.6" />
<circle cx="99.1" cy="64.0" r="0.6" />
<circle cx="100.2" cy="41.0" r="0.6" />
<circle cx="101.2" cy="52.0" r="0.6" />
<circle cx="102.2" cy="54.0" r="0.6" />
<circle cx="103.3" cy="56.0" r="0.6" />
<circle cx="104.3" cy="48.0" r="0.6" />
<circle cx="105.3" cy="54.0" r="0.6" />
<circle cx="106.4" cy="54.0" r="0.6" />
<circle cx="107.4" cy="50.0" r="0.6" />
<circle cx="108.4" cy="60.0" r="0.6" />
<circle cx="109.5" cy="52.0" r="0.6" />
<circle cx="110.5" cy="54.0" r="0.6" />
<circle cx="111.5" cy="58.0" r="0.6" />
<circle cx="112.6" cy="60.0" r="0.6" />
<circle cx="113.6" cy="53.0" r="0.6" />
<circle cx="114.6" cy="60.0" r="0.6" />
<circle cx="115.7" cy="60.0" r="0.6" />
<circle cx="116.7" cy="52.0" r="0.6" />
<circle cx="117.7" cy="62.0" r="0.6" />
<circle cx="118.8" cy="66.0" r="0.6" />
<circle cx="119.8" cy="55.0" r="0.6" />
<circle cx="120.8" cy="62.0" r="0.6" />
<circle cx="121.8" cy="68.0" r="0.6" />
<circle cx="122.9" cy="62.0" r="0.6" />
<circle cx="123.9" cy="58.0" r="0.6" />
<circle cx="124.9" cy="72.0" r="0.6" />
<circle cx="126.0" cy="58.0" r="0.6" />
<circle cx="127.0" cy="61.0" r="0.6" />
<circle cx="128.0" cy="78.0" r="0.6" />
<circle cx="129.1" cy="57.0" r="0.6" />
<circle cx="130.1" cy="71.0" r="0.6" />
<circle cx="131.1" cy="68.0" r="0.6" />
<circle cx="132.2" cy="64.0" r="0.6" />
<circle cx="133.2" cy="63.0" r="0.6" />
<circle cx="134.2" cy="73.0" r="0.6" />
<circle cx="135.3" cy="63.0" r="0.6" />
<circle cx="136.3" cy="71.0" r="0.6" />
<circle cx="137.3" cy="72.0" r="0.6" />
<circle cx="138.4" cy="72.0" r="0.6" />
<circle cx="139.4" cy="80.0" r="0.6" />
<circle cx="140.4" cy="61.0" r="0.6" />
<circle cx="141.5" cy="71.0" r="0.6" />
<circle cx="142.5" cy="77.0" r="0.6" />
<circle cx="143.5" cy="65.0" r="0.6" />
<circle cx="144.6" cy="80.0" r="0.6" />
<circle cx="145.6" cy="71.0" r="0.6" />
<circle cx="146.6" cy="69.0" r="0.6" />
<circle cx="147.7" cy="77.0" r="0.6" />
<circle cx="148.7" cy="75.0" r="0.6" />
<circle cx="149.7" cy="73.0" r="0.6" />
<circle cx="150.8" cy="77.0" r="0.6" />
<circle cx="151.8" cy="79.0" r="0.6" />
<circle cx="152.8" cy="76.0" r="0.6" />
<circle cx="153.9" cy="80.0" r="0.6" />
<circle cx="154.9" cy="79.0" r="0.6" />
<circle cx="155.9" cy="75.0" r="0.6" />
<circle cx="157.0" cy="82.0" r="0.6" />
<circle cx="158.0" cy="77.0" r="0.6" />
<circle cx="159.0" cy="80.0" r="0.6" />
<circle cx="160.1" cy="80.0" r="0.6" />
<circle cx="161.1" cy="78.0" r="0.6" />
<circle cx="162.1" cy="83.0" r="0.6" />
<circle cx="163.2" cy="83.0" r="0.6" />
<circle cx="164.2" cy="78.0" r="0.6" />
<circle cx="165.2" cy="85.0" r="0.6" />
<circle cx="166.3" cy="82.0" r="0.6" />
<circle cx="167.3" cy="85.0" r="0.6" />
<circle cx="168.3" cy="84.0" r="0.6" />
<circle cx="169.3" cy="84.0" r="0.6" />
<circle cx="170.4" cy="88.0" r="0.6" />
<circle cx="171.4" cy="83.0" r="0.6" />
<circle cx="172.4" cy="87.0" r="0.6" />
<circle cx="173.5" cy="88.0" r="0.6" />
<circle cx="174.5" cy="87.0" r="0.6" />
<circle cx="175.5" cy="86.0" r="0.6" />
<circle cx="176.6" cy="90.0" r="0.6" />
<circle cx="177.6" cy="88.0" r="0.6" />
<circle cx="178.6" cy="87.0" r="0.6" />
<circle cx="179.7" cy="92.0" r="0.6" />
<circle cx="180.7" cy="90.0" r="0.6" />
<circle cx="181.7" cy="91.0" r="0.6" />
<circle cx="182.8" cy="92.0" r="0.6" />
<circle cx="183.8" cy="92.0" r="0.6" />
<circle cx="184.8" cy="94.0" r="0.6" />
<circle cx="185.9" cy="92.0" r="0.6" />
<circle cx="186.9" cy="93.0" r="0.6" />
<circle cx="187.9" cy="94.0" r="0.6" />
<circle cx="189.0" cy="94.0" r="0.6" />
<circle cx="190.0" cy="96.0" r="0.6" />
<circle cx="191.0" cy="94.0" r="0.6" />
<circle cx="192.1" cy="96.0" r="0.6" />
<circle cx="193.1" cy="96.0" r="0.6" />
<circle cx="194.1" cy="96.0" r="0.6" />
<circle cx="195.2" cy="96.0" r="0.6" />
<circle cx="196.2" cy="96.0" r="0.6" />
<circle cx="197.2" cy="96.0" r="0.6" />
<circle cx="198.3" cy="128.0" r="0.6" />
<circle cx="199.3" cy="72.0" r="0.6" />
<circle cx="200.3" cy="96.0" r="0.6" />
<circle cx="201.4" cy="115.0" r="0.6" />
<circle cx="202.4" cy="100.0" r="0.6" />
<circle cx="203.4" cy="84.0" r="0.6" />
<circle cx="204.5" cy="114.0" r="0.6" />
<circle cx="205.5" cy="110.0" r="0.6" />
<circle cx="206.5" cy="93.0" r="0.6" />
</g>
</svg>