<svg xmlns="http://www.w3.org/2000/svg" width="161.8" height="100.0" viewBox="-4 362 172 110">
<g fill="none" stroke="black" stroke-width="3.7100%" transform="translate(0, 834.2318) scale(0.1348, -0.1348)">
<circle cx="6" cy="3005" r="4" />
<circle cx="12" cy="3015" r="4" />
<circle cx="18" cy="3000" r="4" />
<circle cx="24" cy="3013" r="4" />
<circle cx="30" cy="3005" r="4" />
<circle cx="36" cy="3008" r="4" />
<circle cx="42" cy="2998" r="4" />
<circle cx="48" cy="3005" r="4" />
<circle cx="54" cy="3020" r="4" />
<circle cx="60" cy="2999" r="4" />
<circle cx="66" cy="3012" r="4" />
<circle cx="72" cy="3011" r="4" />
<circle cx="78" cy="3008" r="4" />
<circle cx="84" cy="3012" r="4" />
<circle cx="90" cy="3005" r="4" />
<circle cx="97" cy="3020" r="4" />
<circle cx="103" cy="3021" r="4" />
<circle cx="109" cy="3007" r="4" />
<circle cx="115" cy="3016" r="4" />
<circle cx="121" cy="3019" r="4" />
<circle cx="127" cy="3000" r="4" />
<circle cx="133" cy="3020" r="4" />
<circle cx="139" cy="3026" r="4" />
<circle cx="145" cy="3013" r="4" />
<circle cx="151" cy="3014" r="4" />
<circle cx="157" cy="3022" r="4" />
<circle cx="163" cy="3008" r="4" />
<circle cx="169" cy="3027" r="4" />
<circle cx="175" cy="3019" r="4" />
<circle cx="181" cy="3012" r="4" />
<circle cx="187" cy="3020" r="4" />
<circle cx="193" cy="3034" r="4" />
<circle cx="199" cy="3006" r="4" />
<circle cx="205" cy="3030" r="4" />
<circle cx="211" cy="3029" r="4" />
<circle cx="217" cy="3009" r="4" />
<circle cx="223" cy="3043" r="4" />
<circle cx="229" cy="3028" r="4" />
<circle cx="235" cy="3010" r="4" />
<circle cx="241" cy="3024" r="4" />
<circle cx="247" cy="3161" r="4" />
<circle cx="253" cy="2955" r="4" />
<circle cx="259" cy="3000" r="4" />
<circle cx="265" cy="3082" r="4" />
<circle cx="271" cy="2923" r="4" />
<circle cx="278" cy="3113" r="4" />
<circle cx="284" cy="3034" r="4" />
<circle cx="290" cy="2974" r="4" />
<circle cx="296" cy="3117" r="4" />
<circle cx="302" cy="2990" r="4" />
<circle cx="308" cy="3040" r="4" />
<circle cx="314" cy="3075" r="4" />
<circle cx="320" cy="3007" r="4" />
<circle cx="326" cy="3044" r="4" />
<circle cx="332" cy="2995" r="4" />
<circle cx="338" cy="3069" r="4" />
<circle cx="344" cy="3059" r="4" />
<circle cx="350" cy="3000" r="4" />
<circle cx="356" cy="3002" r="4" />
<circle cx="362" cy="3137" r="4" />
<circle cx="368" cy="2964" r="4" />
<circle cx="374" cy="3018" r="4" />
<circle cx="380" cy="2868" r="4" />
<circle cx="386" cy="3159" r="4" />
<circle cx="392" cy="3018" r="4" />
<circle cx="398" cy="2942" r="4" />
<circle cx="404" cy="3182" r="4" />
<circle cx="410" cy="2801" r="4" />
<circle cx="416" cy="3158" r="4" />
<circle cx="422" cy="3218" r="4" />
<circle cx="428" cy="2878" r="4" />
<circle cx="434" cy="3235" r="4" />
<circle cx="440" cy="3022" r="4" />
<circle cx="446" cy="3061" r="4" />
<circle cx="452" cy="2990" r="4" />
<circle cx="459" cy="3095" r="4" />
<circle cx="465" cy="3035" r="4" />
<circle cx="471" cy="3227" r="4" />
<circle cx="477" cy="2973" r="4" />
<circle cx="483" cy="3038" r="4" />
<circle cx="489" cy="3247" r="4" />
<circle cx="495" cy="2957" r="4" />
<circle cx="501" cy="2809" r="4" />
<circle cx="507" cy="3159" r="4" />
<circle cx="513" cy="3260" r="4" />
<circle cx="519" cy="2849" r="4" />
<circle cx="525" cy="3206" r="4" />
<circle cx="531" cy="2959" r="4" />
<circle cx="537" cy="3051" r="4" />
<circle cx="543" cy="3120" r="4" />
<circle cx="549" cy="3060" r="4" />
<circle cx="555" cy="2798" r="4" />
<circle cx="561" cy="3353" r="4" />
<circle cx="567" cy="2983" r="4" />
<circle cx="573" cy="2885" r="4" />
<circle cx="579" cy="3118" r="4" />
<circle cx="585" cy="2852" r="4" />
<circle cx="591" cy="3119" r="4" />
<circle cx="597" cy="3074" r="4" />
<circle cx="603" cy="3018" r="4" />
<circle cx="609" cy="3101" r="4" />
<circle cx="615" cy="3061" r="4" />
<circle cx="621" cy="2966" r="4" />
<circle cx="627" cy="3250" r="4" />
<circle cx="633" cy="2970" r="4" />
<circle cx="640" cy="2875" r="4" />
<circle cx="646" cy="3466" r="4" />
<circle cx="652" cy="2850" r="4" />
<circle cx="658" cy="2849" r="4" />
<circle cx="664" cy="3417" r="4" />
<circle cx="670" cy="2881" r="4" />
<circle cx="676" cy="2991" r="4" />
<circle cx="682" cy="3296" r="4" />
<circle cx="688" cy="3048" r="4" />
<circle cx="694" cy="2724" r="4" />
<circle cx="700" cy="3387" r="4" />
<circle cx="706" cy="3138" r="4" />
<circle cx="712" cy="2869" r="4" />
<circle cx="718" cy="3011" r="4" />
<circle cx="724" cy="3281" r="4" />
<circle cx="730" cy="2958" r="4" />
<circle cx="736" cy="3036" r="4" />
<circle cx="742" cy="3092" r="4" />
<circle cx="748" cy="2865" r="4" />
<circle cx="754" cy="3257" r="4" />
<circle cx="760" cy="3230" r="4" />
<circle cx="766" cy="2892" r="4" />
<circle cx="772" cy="3025" r="4" />
<circle cx="778" cy="2964" r="4" />
<circle cx="784" cy="3081" r="4" />
<circle cx="790" cy="3293" r="4" />
<circle cx="796" cy="2930" r="4" />
<circle cx="802" cy="2904" r="4" />
<circle cx="808" cy="3329" r="4" />
<circle cx="814" cy="3025" r="4" />
<circle cx="820" cy="3032" r="4" />
<circle cx="827" cy="3028" r="4" />
<circle cx="833" cy="3165" r="4" />
<circle cx="839" cy="3133" r="4" />
<circle cx="845" cy="2994" r="4" />
<circle cx="851" cy="3196" r="4" />
<circle cx="857" cy="3037" r="4" />
<circle cx="863" cy="3119" r="4" />
<circle cx="869" cy="3127" r="4" />
<circle cx="875" cy="3032" r="4" />
<circle cx="881" cy="3319" r="4" />
<circle cx="887" cy="2858" r="4" />
<circle cx="893" cy="2990" r="4" />
<circle cx="899" cy="3276" r="4" />
<circle cx="905" cy="3141" r="4" />
<circle cx="911" cy="2933" r="4" />
<circle cx="917" cy="3113" r="4" />
<circle cx="923" cy="3172" r="4" />
<circle cx="929" cy="3001" r="4" />
<circle cx="935" cy="3069" r="4" />
<circle cx="941" cy="3144" r="4" />
<circle cx="947" cy="3067" r="4" />
<circle cx="953" cy="3081" r="4" />
<circle cx="959" cy="3144" r="4" />
<circle cx="965" cy="2948" r="4" />
<circle cx="971" cy="3156" r="4" />
<circle cx="977" cy="3193" r="4" />
<circle cx="983" cy="2985" r="4" />
<circle cx="989" cy="3194" r="4" />
<circle cx="995" cy="3054" r="4" />
<circle cx="1001" cy="2994" r="4" />
<circle cx="1008" cy="3305" r="4" />
<circle cx="1014" cy="3118" r="4" />
<circle cx="1020" cy="2942" r="4" />
<circle cx="1026" cy="3232" r="4" />
<circle cx="1032" cy="3102" r="4" />
<circle cx="1038" cy="2937" r="4" />
<circle cx="1044" cy="3145" r="4" />
<circle cx="1050" cy="3007" r="4" />
<circle cx="1056" cy="2990" r="4" />
<circle cx="1062" cy="3169" r="4" />
<circle cx="1068" cy="3045" r="4" />
<circle cx="1074" cy="3057" r="4" />
<circle cx="1080" cy="3220" r="4" />
<circle cx="1086" cy="3119" r="4" />
<circle cx="1092" cy="3056" r="4" />
<circle cx="1098" cy="2896" r="4" />
<circle cx="1104" cy="3236" r="4" />
<circle cx="1110" cy="3287" r="4" />
<circle cx="1116" cy="2922" r="4" />
<circle cx="1122" cy="3160" r="4" />
<circle cx="1128" cy="3147" r="4" />
<circle cx="1134" cy="3024" r="4" />
<circle cx="1140" cy="3027" r="4" />
<circle cx="1146" cy="3104" r="4" />
<circle cx="1152" cy="3135" r="4" />
<circle cx="1158" cy="2961" r="4" />
<circle cx="1164" cy="3395" r="4" />
<circle cx="1170" cy="2959" r="4" />
<circle cx="1176" cy="2973" r="4" />
<circle cx="1182" cy="3108" r="4" />
<circle cx="1189" cy="3232" r="4" />
<circle cx="1195" cy="3072" r="4" />
<circle cx="1201" cy="3073" r="4" />
<circle cx="1207" cy="3162" r="4" />
</g>
</svg>