<svg xmlns="http://www.w3.org/2000/svg" width="161.8" height="100.0" viewBox="-2.5 -3.9 171.8 110.0">
<g fill="none" stroke="black" stroke-width="0.4450%" transform="translate(0, 102.2472) scale(1.1236, -1.1236)">
<polyline points="2.2,1.0 4.4,1.0 4.4,1.0 6.5,1.0 6.5,1.0 8.7,1.0 8.7,1.0 10.9,1.0 10.9,1.0 13.1,1.0 13.1,2.0 15.3,2.0 15.3,1.0 17.5,1.0 17.5,1.0 19.6,1.0 19.6,2.0 21.8,2.0 21.8,3.0 24.0,3.0 24.0,3.0 26.2,3.0 26.2,1.0 28.4,1.0 28.4,1.0 30.5,1.0 30.5,4.0 32.7,4.0 32.7,4.0 34.9,4.0 34.9,5.0 37.1,5.0 37.1,5.0 39.3,5.0 39.3,6.0 41.5,6.0 41.5,1.0 43.6,1.0 43.6,1.0 45.8,1.0 45.8,5.0 48.0,5.0 48.0,5.0 50.2,5.0 50.2,5.0 52.4,5.0 52.4,5.0 54.5,5.0 54.5,9.0 56.7,9.0 56.7,9.0 58.9,9.0 58.9,10.0 61.1,10.0 61.1,10.0 63.3,10.0 63.3,16.0 65.5,16.0 65.5,1.0 67.6,1.0 67.6,1.0 69.8,1.0 69.8,6.0 72.0,6.0 72.0,6.0 74.2,6.0 74.2,14.0 76.4,14.0 76.4,14.0 78.5,14.0 78.5,14.0 80.7,14.0 80.7,14.0 82.9,14.0 82.9,15.0 85.1,15.0 85.1,15.0 87.3,15.0 87.3,20.0 89.5,20.0 89.5,21.0 91.6,21.0 91.6,21.0 93.8,21.0 93.8,35.0 96.0,35.0 96.0,35.0 98.2,35.0 98.2,1.0 100.4,1.0 100.4,1.0 102.5,1.0 102.5,7.0 104.7,7.0 104.7,7.0 106.9,7.0 106.9,14.0 109.1,14.0 109.1,14.0 111.3,14.0 111.3,20.0 113.5,20.0 113.5,20.0 115.6,20.0 115.6,21.0 117.8,21.0 117.8,21.0 120.0,21.0 120.0,28.0 122.2,28.0 122.2,28.0 124.4,28.0 124.4,35.0 126.5,35.0 126.5,35.0 128.7,35.0 128.7,42.0 130.9,42.0 130.9,56.0 133.1,56.0 133.1,56.0 135.3,56.0 135.3,64.0 137.5,64.0 137.5,64.0 139.6,64.0 139.6,70.0 141.8,70.0 141.8,70.0 144.0,70.0 144.0,90.0 146.2,90.0" />
</g>
</svg>