<svg xmlns="http://www.w3.org/2000/svg" width="99" height="99" viewBox="0 0 99 99">
<g stroke="none" transform="translate(0, 0) scale(1, 1)">
<rect x="0" y="0" width="11" height="11" fill="rgb(115,38,38)"/>
<rect x="0" y="11" width="11" height="11" fill="rgb(115,96,38)"/>
<rect x="0" y="22" width="11" height="11" fill="rgb(77,115,38)"/>
<rect x="0" y="33" width="11" height="11" fill="rgb(38,115,57)"/>
<rect x="0" y="44" width="11" height="11" fill="rgb(38,115,115)"/>
<rect x="0" y="55" width="11" height="11" fill="rgb(38,57,115)"/>
<rect x="0" y="66" width="11" height="11" fill="rgb(77,38,115)"/>
<rect x="0" y="77" width="11" height="11" fill="rgb(115,38,96)"/>
<rect x="0" y="88" width="11" height="11" fill="rgb(115,38,38)"/>
<rect x="11" y="0" width="11" height="11" fill="rgb(139,46,46)"/>
<rect x="11" y="11" width="11" height="11" fill="rgb(139,116,46)"/>
<rect x="11" y="22" width="11" height="11" fill="rgb(92,139,46)"/>
<rect x="11" y="33" width="11" height="11" fill="rgb(46,139,69)"/>
<rect x="11" y="44" width="11" height="11" fill="rgb(46,139,139)"/>
<rect x="11" y="55" width="11" height="11" fill="rgb(46,69,139)"/>
<rect x="11" y="66" width="11" height="11" fill="rgb(92,46,139)"/>
<rect x="11" y="77" width="11" height="11" fill="rgb(139,46,116)"/>
<rect x="11" y="88" width="11" height="11" fill="rgb(139,46,46)"/>
<rect x="22" y="0" width="11" height="11" fill="rgb(163,54,54)"/>
<rect x="22" y="11" width="11" height="11" fill="rgb(163,135,54)"/>
<rect x="22" y="22" width="11" height="11" fill="rgb(108,163,54)"/>
<rect x="22" y="33" width="11" height="11" fill="rgb(54,163,81)"/>
<rect x="22" y="44" width="11" height="11" fill="rgb(54,163,163)"/>
<rect x="22" y="55" width="11" height="11" fill="rgb(54,81,163)"/>
<rect x="22" y="66" width="11" height="11" fill="rgb(108,54,163)"/>
<rect x="22" y="77" width="11" height="11" fill="rgb(163,54,135)"/>
<rect x="22" y="88" width="11" height="11" fill="rgb(163,54,54)"/>
<rect x="33" y="0" width="11" height="11" fill="rgb(186,62,62)"/>
<rect x="33" y="11" width="11" height="11" fill="rgb(186,155,62)"/>
<rect x="33" y="22" width="11" height="11" fill="rgb(124,186,62)"/>
<rect x="33" y="33" width="11" height="11" fill="rgb(62,186,93)"/>
<rect x="33" y="44" width="11" height="11" fill="rgb(62,186,186)"/>
<rect x="33" y="55" width="11" height="11" fill="rgb(62,93,186)"/>
<rect x="33" y="66" width="11" height="11" fill="rgb(124,62,186)"/>
<rect x="33" y="77" width="11" height="11" fill="rgb(186,62,155)"/>
<rect x="33" y="88" width="11" height="11" fill="rgb(186,62,62)"/>
<rect x="44" y="0" width="11" height="11" fill="rgb(198,83,83)"/>
<rect x="44" y="11" width="11" height="11" fill="rgb(198,169,83)"/>
<rect x="44" y="22" width="11" height="11" fill="rgb(140,198,83)"/>
<rect x="44" y="33" width="11" height="11" fill="rgb(83,198,112)"/>
<rect x="44" y="44" width="11" height="11" fill="rgb(83,198,198)"/>
<rect x="44" y="55" width="11" height="11" fill="rgb(83,112,198)"/>
<rect x="44" y="66" width="11" height="11" fill="rgb(140,83,198)"/>
<rect x="44" y="77" width="11" height="11" fill="rgb(198,83,169)"/>
<rect x="44" y="88" width="11" height="11" fill="rgb(198,83,83)"/>
<rect x="55" y="0" width="11" height="11" fill="rgb(206,107,107)"/>
<rect x="55" y="11" width="11" height="11" fill="rgb(206,181,107)"/>
<rect x="55" y="22" width="11" height="11" fill="rgb(156,206,107)"/>
<rect x="55" y="33" width="11" height="11" fill="rgb(107,206,131)"/>
<rect x="55" y="44" width="11" height="11" fill="rgb(107,206,206)"/>
<rect x="55" y="55" width="11" height="11" fill="rgb(107,131,206)"/>
<rect x="55" y="66" width="11" height="11" fill="rgb(156,107,206)"/>
<rect x="55" y="77" width="11" height="11" fill="rgb(206,107,181)"/>
<rect x="55" y="88" width="11" height="11" fill="rgb(206,107,107)"/>
<rect x="66" y="0" width="11" height="11" fill="rgb(214,131,131)"/>
<rect x="66" y="11" width="11" height="11" fill="rgb(214,193,131)"/>
<rect x="66" y="22" width="11" height="11" fill="rgb(172,214,131)"/>
<rect x="66" y="33" width="11" height="11" fill="rgb(131,214,151)"/>
<rect x="66" y="44" width="11" height="11" fill="rgb(131,214,214)"/>
<rect x="66" y="55" width="11" height="11" fill="rgb(131,151,214)"/>
<rect x="66" y="66" width="11" height="11" fill="rgb(172,131,214)"/>
<rect x="66" y="77" width="11" height="11" fill="rgb(214,131,193)"/>
<rect x="66" y="88" width="11" height="11" fill="rgb(214,131,131)"/>
<rect x="77" y="0" width="11" height="11" fill="rgb(222,155,155)"/>
<rect x="77" y="11" width="11" height="11" fill="rgb(222,205,155)"/>
<rect x="77" y="22" width="11" height="11" fill="rgb(188,222,155)"/>
<rect x="77" y="33" width="11" height="11" fill="rgb(155,222,171)"/>
<rect x="77" y="44" width="11" height="11" fill="rgb(155,222,222)"/>
<rect x="77" y="55" width="11" height="11" fill="rgb(155,171,222)"/>
<rect x="77" y="66" width="11" height="11" fill="rgb(188,155,222)"/>
<rect x="77" y="77" width="11" height="11" fill="rgb(222,155,205)"/>
<rect x="77" y="88" width="11" height="11" fill="rgb(222,155,155)"/>
<rect x="88" y="0" width="11" height="11" fill="rgb(230,179,179)"/>
<rect x="88" y="11" width="11" height="11" fill="rgb(230,217,179)"/>
<rect x="88" y="22" width="11" height="11" fill="rgb(204,230,179)"/>
<rect x="88" y="33" width="11" height="11" fill="rgb(179,230,191)"/>
<rect x="88" y="44" width="11" height="11" fill="rgb(179,230,230)"/>
<rect x="88" y="55" width="11" height="11" fill="rgb(179,191,230)"/>
<rect x="88" y="66" width="11" height="11" fill="rgb(204,179,230)"/>
<rect x="88" y="77" width="11" height="11" fill="rgb(230,179,217)"/>
<rect x="88" y="88" width="11" height="11" fill="rgb(230,179,179)"/>
</g>
</svg>