<svg xmlns="http://www.w3.org/2000/svg" width="100" height="100" viewBox="0 0 100 100">
<g stroke="none" transform="translate(0, 0) scale(1, 1)">
<rect x="0" y="0" width="20" height="20" fill="rgb(191,97,67)"/>
<rect x="0" y="20" width="20" height="20" fill="rgb(137,191,67)"/>
<rect x="0" y="40" width="20" height="20" fill="rgb(67,191,146)"/>
<rect x="0" y="60" width="20" height="20" fill="rgb(67,87,191)"/>
<rect x="0" y="80" width="20" height="20" fill="rgb(191,67,186)"/>
<rect x="20" y="0" width="20" height="20" fill="rgb(191,127,67)"/>
<rect x="20" y="20" width="20" height="20" fill="rgb(107,191,67)"/>
<rect x="20" y="40" width="20" height="20" fill="rgb(67,191,176)"/>
<rect x="20" y="60" width="20" height="20" fill="rgb(77,67,191)"/>
<rect x="20" y="80" width="20" height="20" fill="rgb(191,67,156)"/>
<rect x="40" y="0" width="20" height="20" fill="rgb(191,156,67)"/>
<rect x="40" y="20" width="20" height="20" fill="rgb(77,191,67)"/>
<rect x="40" y="40" width="20" height="20" fill="rgb(67,176,191)"/>
<rect x="40" y="60" width="20" height="20" fill="rgb(107,67,191)"/>
<rect x="40" y="80" width="20" height="20" fill="rgb(191,67,127)"/>
<rect x="60" y="0" width="20" height="20" fill="rgb(191,186,67)"/>
<rect x="60" y="20" width="20" height="20" fill="rgb(67,191,87)"/>
<rect x="60" y="40" width="20" height="20" fill="rgb(67,146,191)"/>
<rect x="60" y="60" width="20" height="20" fill="rgb(137,67,191)"/>
<rect x="60" y="80" width="20" height="20" fill="rgb(191,67,97)"/>
<rect x="80" y="0" width="20" height="20" fill="rgb(166,191,67)"/>
<rect x="80" y="20" width="20" height="20" fill="rgb(67,191,117)"/>
<rect x="80" y="40" width="20" height="20" fill="rgb(67,117,191)"/>
<rect x="80" y="60" width="20" height="20" fill="rgb(166,67,191)"/>
<rect x="80" y="80" width="20" height="20" fill="rgb(191,67,67)"/>
</g>
</svg>