<svg xmlns="http://www.w3.org/2000/svg" width="161.8" height="100.0" viewBox="-85.902 58.383 171.803 110.000">
<g fill="none" stroke="black" stroke-width="0.0061%" transform="translate(0, 226.7660) scale(81.6915, -81.6915)">
<polyline points="-0.990,0.776 -0.971,0.778 -0.951,0.781 -0.931,0.784 -0.911,0.788 -0.891,0.791 -0.871,0.794 -0.852,0.797 -0.832,0.800 -0.812,0.804 -0.792,0.807 -0.772,0.810 -0.753,0.814 -0.733,0.817 -0.713,0.821 -0.693,0.824 -0.673,0.828 -0.654,0.832 -0.634,0.836 -0.614,0.839 -0.594,0.843 -0.574,0.847 -0.555,0.851 -0.535,0.855 -0.515,0.859 -0.495,0.864 -0.475,0.868 -0.456,0.872 -0.436,0.877 -0.416,0.881 -0.396,0.886 -0.376,0.891 -0.357,0.895 -0.337,0.900 -0.317,0.905 -0.297,0.910 -0.277,0.915 -0.257,0.921 -0.238,0.926 -0.218,0.931 -0.198,0.937 -0.178,0.943 -0.158,0.948 -0.139,0.954 -0.119,0.960 -0.099,0.967 -0.079,0.973 -0.059,0.980 -0.040,0.986 -0.020,0.993 0.000,1.000 0.020,1.007 0.040,1.015 0.059,1.022 0.079,1.030 0.099,1.038 0.119,1.046 0.139,1.054 0.158,1.063 0.178,1.072 0.198,1.081 0.218,1.090 0.238,1.100 0.257,1.110 0.277,1.121 0.297,1.132 0.317,1.143 0.337,1.154 0.357,1.166 0.376,1.179 0.396,1.192 0.416,1.205 0.436,1.219 0.456,1.234 0.475,1.250 0.495,1.266 0.515,1.283 0.535,1.300 0.555,1.319 0.574,1.339 0.594,1.360 0.614,1.382 0.634,1.406 0.654,1.431 0.673,1.458 0.693,1.487 0.713,1.519 0.733,1.553 0.753,1.591 0.772,1.633 0.792,1.679 0.812,1.731 0.832,1.790 0.852,1.858 0.871,1.938 0.891,2.000 0.911,2.000 0.931,2.000 0.951,2.000 0.971,2.000 0.990,2.000" />
<polyline points="-0.990,0.808 -0.971,0.811 -0.951,0.813 -0.931,0.816 -0.911,0.819 -0.891,0.822 -0.871,0.824 -0.852,0.827 -0.832,0.830 -0.812,0.833 -0.792,0.836 -0.772,0.839 -0.753,0.842 -0.733,0.845 -0.713,0.848 -0.693,0.851 -0.673,0.855 -0.654,0.858 -0.634,0.861 -0.614,0.864 -0.594,0.868 -0.574,0.871 -0.555,0.875 -0.535,0.878 -0.515,0.882 -0.495,0.886 -0.475,0.889 -0.456,0.893 -0.436,0.897 -0.416,0.901 -0.396,0.905 -0.376,0.909 -0.357,0.913 -0.337,0.917 -0.317,0.921 -0.297,0.925 -0.277,0.930 -0.257,0.934 -0.238,0.939 -0.218,0.943 -0.198,0.948 -0.178,0.953 -0.158,0.957 -0.139,0.962 -0.119,0.967 -0.099,0.973 -0.079,0.978 -0.059,0.983 -0.040,0.989 -0.020,0.994 0.000,1.000 0.020,1.006 0.040,1.012 0.059,1.018 0.079,1.024 0.099,1.031 0.119,1.037 0.139,1.044 0.158,1.051 0.178,1.058 0.198,1.065 0.218,1.073 0.238,1.080 0.257,1.088 0.277,1.096 0.297,1.105 0.317,1.113 0.337,1.122 0.357,1.131 0.376,1.141 0.396,1.151 0.416,1.161 0.436,1.171 0.456,1.182 0.475,1.194 0.495,1.205 0.515,1.218 0.535,1.231 0.555,1.244 0.574,1.258 0.594,1.273 0.614,1.289 0.634,1.305 0.654,1.322 0.673,1.341 0.693,1.360 0.713,1.381 0.733,1.404 0.753,1.428 0.772,1.454 0.792,1.483 0.812,1.514 0.832,1.549 0.852,1.589 0.871,1.633 0.891,1.686 0.911,1.749 0.931,1.828 0.951,1.934 0.971,2.000 0.990,2.000" />
<polyline points="-0.990,0.843 -0.971,0.845 -0.951,0.847 -0.931,0.850 -0.911,0.852 -0.891,0.855 -0.871,0.857 -0.852,0.859 -0.832,0.862 -0.812,0.864 -0.792,0.867 -0.772,0.869 -0.753,0.872 -0.733,0.875 -0.713,0.877 -0.693,0.880 -0.673,0.883 -0.654,0.885 -0.634,0.888 -0.614,0.891 -0.594,0.894 -0.574,0.897 -0.555,0.899 -0.535,0.902 -0.515,0.905 -0.495,0.908 -0.475,0.911 -0.456,0.914 -0.436,0.918 -0.416,0.921 -0.396,0.924 -0.376,0.927 -0.357,0.931 -0.337,0.934 -0.317,0.937 -0.297,0.941 -0.277,0.944 -0.257,0.948 -0.238,0.952 -0.218,0.955 -0.198,0.959 -0.178,0.963 -0.158,0.967 -0.139,0.971 -0.119,0.975 -0.099,0.979 -0.079,0.983 -0.059,0.987 -0.040,0.991 -0.020,0.996 0.000,1.000 0.020,1.005 0.040,1.009 0.059,1.014 0.079,1.019 0.099,1.023 0.119,1.028 0.139,1.034 0.158,1.039 0.178,1.044 0.198,1.049 0.218,1.055 0.238,1.061 0.257,1.066 0.277,1.072 0.297,1.078 0.317,1.085 0.337,1.091 0.357,1.098 0.376,1.104 0.396,1.111 0.416,1.119 0.436,1.126 0.456,1.134 0.475,1.141 0.495,1.149 0.515,1.158 0.535,1.166 0.555,1.175 0.574,1.185 0.594,1.194 0.614,1.204 0.634,1.215 0.654,1.226 0.673,1.237 0.693,1.249 0.713,1.262 0.733,1.275 0.753,1.289 0.772,1.304 0.792,1.320 0.812,1.337 0.832,1.356 0.852,1.376 0.871,1.398 0.891,1.423 0.911,1.451 0.931,1.483 0.951,1.523 0.971,1.575 0.990,1.674" />
</g>
</svg>