<svg xmlns="http://www.w3.org/2000/svg" width="161.8" height="100.0" viewBox="-87.976 132.314 171.803 110.000">
<g fill="none" stroke="black" stroke-width="0.0032%" transform="translate(0, 374.6280) scale(154.7301, -154.7301)">
<circle cx="0.000" cy="1.534" r="0.003" />
<polyline points="-0.536,0.887 -0.526,0.889 -0.515,0.890 -0.505,0.892 -0.494,0.894 -0.484,0.895 -0.474,0.897 -0.463,0.899 -0.453,0.900 -0.442,0.902 -0.432,0.904 -0.421,0.905 -0.411,0.907 -0.400,0.909 -0.390,0.911 -0.379,0.913 -0.369,0.914 -0.358,0.916 -0.348,0.918 -0.338,0.920 -0.327,0.922 -0.317,0.924 -0.306,0.926 -0.296,0.928 -0.285,0.930 -0.275,0.932 -0.264,0.934 -0.254,0.936 -0.243,0.938 -0.233,0.941 -0.223,0.943 -0.212,0.945 -0.202,0.947 -0.191,0.950 -0.181,0.952 -0.170,0.954 -0.160,0.957 -0.149,0.959 -0.139,0.962 -0.128,0.964 -0.118,0.967 -0.108,0.970 -0.097,0.972 -0.087,0.975 -0.076,0.978 -0.066,0.981 -0.055,0.984 -0.045,0.987 -0.034,0.990 -0.024,0.993 -0.013,0.996 -0.003,0.999 0.008,1.002 0.018,1.006 0.028,1.009 0.039,1.013 0.049,1.016 0.060,1.020 0.070,1.024 0.081,1.027 0.091,1.031 0.102,1.035 0.112,1.039 0.123,1.044 0.133,1.048 0.143,1.052 0.154,1.057 0.164,1.062 0.175,1.067 0.185,1.072 0.196,1.077 0.206,1.082 0.217,1.088 0.227,1.093 0.238,1.099 0.248,1.105 0.258,1.112 0.269,1.119 0.279,1.125 0.290,1.133 0.300,1.140 0.311,1.148 0.321,1.156 0.332,1.165 0.342,1.174 0.353,1.184 0.363,1.195 0.374,1.206 0.384,1.217 0.394,1.230 0.405,1.244 0.415,1.259 0.426,1.275 0.436,1.293 0.447,1.313 0.457,1.335 0.468,1.361 0.478,1.391 0.489,1.427 0.499,1.473 0.509,1.534" />
</g>
</svg>