<svg xmlns="http://www.w3.org/2000/svg" width="161.8" height="100.0" viewBox="-2.90 -5.00 171.80 110.00">
<g fill="none" stroke="black" stroke-width="0.0739%" transform="translate(0, 100.0000) scale(6.7619, -6.7619)">



<line x1="1.24" y1="0.00" x2="1.24" y2="1.10" />
<line x1="1.55" y1="0.00" x2="1.55" y2="0.69" />

<line x1="2.18" y1="0.00" x2="2.18" y2="2.40" />
<line x1="2.49" y1="0.00" x2="2.49" y2="1.95" />
<line x1="2.80" y1="0.00" x2="2.80" y2="1.10" />

<line x1="3.42" y1="0.00" x2="3.42" y2="3.81" />
<line x1="3.73" y1="0.00" x2="3.73" y2="3.33" />
<line x1="4.04" y1="0.00" x2="4.04" y2="2.48" />
<line x1="4.35" y1="0.00" x2="4.35" y2="1.39" />

<line x1="4.97" y1="0.00" x2="4.97" y2="5.28" />
<line x1="5.28" y1="0.00" x2="5.28" y2="4.80" />
<line x1="5.59" y1="0.00" x2="5.59" y2="3.95" />
<line x1="5.90" y1="0.00" x2="5.90" y2="2.89" />
<line x1="6.22" y1="0.00" x2="6.22" y2="1.61" />

<line x1="6.84" y1="0.00" x2="6.84" y2="6.81" />
<line x1="7.15" y1="0.00" x2="7.15" y2="6.31" />
<line x1="7.46" y1="0.00" x2="7.46" y2="5.47" />
<line x1="7.77" y1="0.00" x2="7.77" y2="4.43" />
<line x1="8.08" y1="0.00" x2="8.08" y2="3.22" />
<line x1="8.39" y1="0.00" x2="8.39" y2="1.79" />

<line x1="9.01" y1="0.00" x2="9.01" y2="8.36" />
<line x1="9.32" y1="0.00" x2="9.32" y2="7.86" />
<line x1="9.63" y1="0.00" x2="9.63" y2="7.02" />
<line x1="9.94" y1="0.00" x2="9.94" y2="6.00" />
<line x1="10.26" y1="0.00" x2="10.26" y2="4.83" />
<line x1="10.57" y1="0.00" x2="10.57" y2="3.50" />
<line x1="10.88" y1="0.00" x2="10.88" y2="1.95" />

<line x1="11.50" y1="0.00" x2="11.50" y2="9.94" />
<line x1="11.81" y1="0.00" x2="11.81" y2="9.44" />
<line x1="12.12" y1="0.00" x2="12.12" y2="8.60" />
<line x1="12.43" y1="0.00" x2="12.43" y2="7.59" />
<line x1="12.74" y1="0.00" x2="12.74" y2="6.45" />
<line x1="13.05" y1="0.00" x2="13.05" y2="5.17" />
<line x1="13.36" y1="0.00" x2="13.36" y2="3.74" />
<line x1="13.67" y1="0.00" x2="13.67" y2="2.08" />

<line x1="14.30" y1="0.00" x2="14.30" y2="11.54" />
<line x1="14.61" y1="0.00" x2="14.61" y2="11.03" />
<line x1="14.92" y1="0.00" x2="14.92" y2="10.20" />
<line x1="15.23" y1="0.00" x2="15.23" y2="9.20" />
<line x1="15.54" y1="0.00" x2="15.54" y2="8.07" />
<line x1="15.85" y1="0.00" x2="15.85" y2="6.84" />
<line x1="16.16" y1="0.00" x2="16.16" y2="5.47" />
<line x1="16.47" y1="0.00" x2="16.47" y2="3.95" />
<line x1="16.78" y1="0.00" x2="16.78" y2="2.20" />

<line x1="17.40" y1="0.00" x2="17.40" y2="13.16" />
<line x1="17.71" y1="0.00" x2="17.71" y2="12.65" />
<line x1="18.02" y1="0.00" x2="18.02" y2="11.81" />
<line x1="18.34" y1="0.00" x2="18.34" y2="10.82" />
<line x1="18.65" y1="0.00" x2="18.65" y2="9.71" />
<line x1="18.96" y1="0.00" x2="18.96" y2="8.50" />
<line x1="19.27" y1="0.00" x2="19.27" y2="7.18" />
<line x1="19.58" y1="0.00" x2="19.58" y2="5.74" />
<line x1="19.89" y1="0.00" x2="19.89" y2="4.14" />
<line x1="20.20" y1="0.00" x2="20.20" y2="2.30" />

<line x1="20.82" y1="0.00" x2="20.82" y2="14.79" />
<line x1="21.13" y1="0.00" x2="21.13" y2="14.27" />
<line x1="21.44" y1="0.00" x2="21.44" y2="13.44" />
<line x1="21.75" y1="0.00" x2="21.75" y2="12.45" />
<line x1="22.06" y1="0.00" x2="22.06" y2="11.35" />
<line x1="22.38" y1="0.00" x2="22.38" y2="10.16" />
<line x1="22.69" y1="0.00" x2="22.69" y2="8.88" />
<line x1="23.00" y1="0.00" x2="23.00" y2="7.50" />
<line x1="23.31" y1="0.00" x2="23.31" y2="5.99" />
<line x1="23.62" y1="0.00" x2="23.62" y2="4.32" />
<line x1="23.93" y1="0.00" x2="23.93" y2="2.40" />

</g>
</svg>