<svg xmlns="http://www.w3.org/2000/svg" width="55.8" height="100.0" viewBox="-32.88 -55.00 65.76 110.00">
<g fill="none" stroke="black" stroke-width="0.0400%" transform="translate(0, 0.0000) scale(12.5000, -12.5000)">
<polyline points="-2.23,4.00 -2.19,3.89 -2.10,3.70 -2.09,3.68 -2.09,3.67 -2.08,3.65 -1.99,3.45 -1.95,3.36 -1.89,3.23 -1.85,3.13 -1.82,3.04 -1.80,3.00 -1.76,2.89 -1.71,2.77 -1.68,2.72 -1.63,2.59 -1.61,2.55 -1.55,2.40 -1.52,2.32 -1.44,2.08 -1.44,2.08 -1.44,2.08 -1.44,2.07 -1.35,1.85 -1.32,1.76 -1.27,1.61 -1.27,1.59 -1.22,1.44 -1.20,1.36 -1.15,1.15 -1.14,1.12 -1.14,1.10 -1.12,1.00 -1.08,0.84 -1.07,0.80 -1.06,0.74 -1.03,0.57 -1.02,0.48 -1.01,0.37 -1.00,0.28 -0.99,0.16 -0.99,0.03 -0.99,-0.03 -0.99,-0.16 -1.00,-0.28 -1.01,-0.37 -1.02,-0.48 -1.03,-0.57 -1.06,-0.74 -1.07,-0.80 -1.08,-0.84 -1.12,-1.00 -1.14,-1.10 -1.14,-1.12 -1.15,-1.15 -1.20,-1.36 -1.22,-1.44 -1.27,-1.59 -1.27,-1.61 -1.32,-1.76 -1.36,-1.85 -1.44,-2.07 -1.44,-2.08 -1.44,-2.08 -1.44,-2.08 -1.52,-2.32 -1.55,-2.40 -1.61,-2.55 -1.63,-2.59 -1.68,-2.72 -1.71,-2.77 -1.76,-2.89 -1.80,-3.00 -1.82,-3.04 -1.85,-3.13 -1.89,-3.23 -1.95,-3.36 -1.99,-3.45 -2.08,-3.65 -2.09,-3.67 -2.09,-3.68 -2.10,-3.70 -2.19,-3.89 -2.23,-4.00" />
<polyline points="2.23,-4.00 2.19,-3.89 2.10,-3.70 2.09,-3.68 2.09,-3.67 2.08,-3.65 1.99,-3.45 1.95,-3.36 1.89,-3.23 1.86,-3.14 1.82,-3.04 1.80,-3.00 1.76,-2.89 1.71,-2.77 1.68,-2.72 1.63,-2.59 1.61,-2.55 1.55,-2.40 1.52,-2.32 1.44,-2.08 1.44,-2.08 1.44,-2.08 1.44,-2.07 1.36,-1.85 1.32,-1.76 1.27,-1.61 1.27,-1.59 1.22,-1.44 1.20,-1.36 1.15,-1.15 1.14,-1.12 1.14,-1.10 1.12,-1.00 1.08,-0.84 1.07,-0.80 1.06,-0.74 1.03,-0.57 1.02,-0.48 1.01,-0.37 1.00,-0.28 0.99,-0.16 0.99,-0.03 0.99,0.03 0.99,0.16 1.00,0.28 1.01,0.37 1.02,0.48 1.03,0.57 1.06,0.74 1.07,0.80 1.08,0.84 1.12,1.00 1.14,1.10 1.14,1.12 1.15,1.15 1.20,1.36 1.22,1.44 1.27,1.59 1.27,1.61 1.32,1.76 1.35,1.84 1.44,2.07 1.44,2.08 1.44,2.08 1.44,2.08 1.52,2.32 1.55,2.40 1.61,2.55 1.63,2.59 1.68,2.72 1.71,2.77 1.76,2.89 1.80,3.00 1.82,3.04 1.85,3.13 1.89,3.23 1.95,3.36 1.99,3.45 2.08,3.65 2.09,3.67 2.09,3.68 2.10,3.70 2.19,3.89 2.23,4.00" />
</g>
</svg>