<svg xmlns="http://www.w3.org/2000/svg" width="52.7" height="100.0" viewBox="-31.333 -55.000 62.666 110.000">
<g fill="none" stroke="black" stroke-width="0.0094%" transform="translate(0, 0.0000) scale(52.9928, -52.9928)">
<polyline points="-0.062,-0.944 -0.057,-0.938 -0.051,-0.933 -0.043,-0.929 -0.035,-0.924 -0.026,-0.921 -0.016,-0.919 -0.005,-0.917 0.005,-0.917 0.016,-0.919 0.026,-0.921 0.035,-0.924 0.043,-0.929 0.051,-0.933 0.057,-0.938 0.062,-0.944" />
<polyline points="-0.032,-0.897 -0.029,-0.891 -0.026,-0.886 -0.022,-0.881 -0.018,-0.877 -0.013,-0.875 -0.008,-0.874 -0.003,-0.876 0.003,-0.878 0.008,-0.883 0.013,-0.889 0.018,-0.896 0.022,-0.905 0.026,-0.913 0.029,-0.922 0.032,-0.931" />
<polyline points="0.071,-0.836 0.065,-0.829 0.057,-0.823 0.049,-0.817 0.039,-0.814 0.029,-0.812 0.017,-0.813 0.006,-0.816 -0.006,-0.821 -0.017,-0.829 -0.029,-0.839 -0.039,-0.850 -0.049,-0.863 -0.057,-0.876 -0.065,-0.889 -0.071,-0.902" />
<polyline points="0.202,-0.773 0.182,-0.763 0.160,-0.753 0.136,-0.745 0.108,-0.739 0.079,-0.734 0.048,-0.733 0.016,-0.734 -0.016,-0.739 -0.048,-0.746 -0.079,-0.756 -0.108,-0.769 -0.136,-0.782 -0.160,-0.797 -0.182,-0.813 -0.202,-0.829" />
<polyline points="0.231,-0.714 0.207,-0.697 0.181,-0.680 0.153,-0.665 0.122,-0.652 0.088,-0.640 0.054,-0.632 0.018,-0.626 -0.018,-0.624 -0.054,-0.626 -0.088,-0.630 -0.122,-0.637 -0.153,-0.647 -0.181,-0.659 -0.207,-0.672 -0.231,-0.686" />
<polyline points="0.042,-0.629 0.038,-0.605 0.033,-0.582 0.027,-0.559 0.022,-0.537 0.016,-0.518 0.010,-0.501 0.003,-0.486 -0.003,-0.475 -0.010,-0.468 -0.016,-0.463 -0.022,-0.462 -0.027,-0.464 -0.033,-0.468 -0.038,-0.474 -0.042,-0.482" />
<polyline points="-0.296,-0.460 -0.263,-0.436 -0.227,-0.413 -0.189,-0.390 -0.149,-0.368 -0.108,-0.347 -0.065,-0.328 -0.022,-0.312 0.022,-0.297 0.065,-0.285 0.108,-0.276 0.149,-0.269 0.189,-0.265 0.227,-0.263 0.263,-0.263 0.296,-0.264" />
<polyline points="-0.497,-0.173 -0.439,-0.162 -0.378,-0.152 -0.314,-0.142 -0.247,-0.133 -0.178,-0.124 -0.107,-0.115 -0.036,-0.108 0.036,-0.101 0.107,-0.095 0.178,-0.091 0.247,-0.087 0.314,-0.084 0.378,-0.082 0.439,-0.081 0.497,-0.080" />
<polyline points="-0.336,0.173 -0.297,0.162 -0.256,0.152 -0.212,0.142 -0.167,0.133 -0.120,0.124 -0.073,0.115 -0.024,0.108 0.024,0.101 0.073,0.095 0.120,0.091 0.167,0.087 0.212,0.084 0.256,0.082 0.297,0.081 0.336,0.080" />
<polyline points="0.042,0.460 0.037,0.436 0.032,0.413 0.027,0.390 0.021,0.368 0.015,0.347 0.009,0.328 0.003,0.312 -0.003,0.297 -0.009,0.285 -0.015,0.276 -0.021,0.269 -0.027,0.265 -0.032,0.263 -0.037,0.263 -0.042,0.264" />
<polyline points="0.296,0.629 0.264,0.605 0.230,0.582 0.192,0.559 0.152,0.537 0.110,0.518 0.067,0.501 0.022,0.486 -0.022,0.475 -0.067,0.468 -0.110,0.463 -0.152,0.462 -0.192,0.464 -0.230,0.468 -0.264,0.474 -0.296,0.482" />
<polyline points="0.278,0.714 0.249,0.697 0.218,0.680 0.184,0.665 0.146,0.652 0.106,0.640 0.065,0.632 0.022,0.626 -0.022,0.624 -0.065,0.626 -0.106,0.630 -0.146,0.637 -0.184,0.647 -0.218,0.659 -0.249,0.672 -0.278,0.686" />
<polyline points="0.105,0.773 0.095,0.763 0.084,0.753 0.071,0.745 0.057,0.739 0.041,0.734 0.025,0.733 0.008,0.734 -0.008,0.739 -0.025,0.746 -0.041,0.756 -0.057,0.769 -0.071,0.782 -0.084,0.797 -0.095,0.813 -0.105,0.829" />
<polyline points="-0.044,0.836 -0.040,0.829 -0.035,0.823 -0.030,0.817 -0.024,0.814 -0.017,0.812 -0.011,0.813 -0.004,0.816 0.004,0.821 0.011,0.829 0.017,0.839 0.024,0.850 0.030,0.863 0.035,0.876 0.040,0.889 0.044,0.902" />
<polyline points="-0.091,0.897 -0.083,0.891 -0.074,0.886 -0.063,0.881 -0.051,0.877 -0.037,0.875 -0.023,0.874 -0.008,0.876 0.008,0.878 0.023,0.883 0.037,0.889 0.051,0.896 0.063,0.905 0.074,0.913 0.083,0.922 0.091,0.931" />
<polyline points="-0.062,0.944 -0.057,0.938 -0.051,0.933 -0.043,0.929 -0.035,0.924 -0.026,0.921 -0.016,0.919 -0.005,0.917 0.005,0.917 0.016,0.919 0.026,0.921 0.035,0.924 0.043,0.929 0.051,0.933 0.057,0.938 0.062,0.944" />
<polyline points="-0.062,-0.944 -0.032,-0.897 0.071,-0.836 0.202,-0.773 0.231,-0.714 0.042,-0.629 -0.296,-0.460 -0.497,-0.173 -0.336,0.173 0.042,0.460 0.296,0.629 0.278,0.714 0.105,0.773 -0.044,0.836 -0.091,0.897 -0.062,0.944" />
<polyline points="-0.057,-0.938 -0.029,-0.891 0.065,-0.829 0.182,-0.763 0.207,-0.697 0.038,-0.605 -0.263,-0.436 -0.439,-0.162 -0.297,0.162 0.037,0.436 0.264,0.605 0.249,0.697 0.095,0.763 -0.040,0.829 -0.083,0.891 -0.057,0.938" />
<polyline points="-0.051,-0.933 -0.026,-0.886 0.057,-0.823 0.160,-0.753 0.181,-0.680 0.033,-0.582 -0.227,-0.413 -0.378,-0.152 -0.256,0.152 0.032,0.413 0.230,0.582 0.218,0.680 0.084,0.753 -0.035,0.823 -0.074,0.886 -0.051,0.933" />
<polyline points="-0.043,-0.929 -0.022,-0.881 0.049,-0.817 0.136,-0.745 0.153,-0.665 0.027,-0.559 -0.189,-0.390 -0.314,-0.142 -0.212,0.142 0.027,0.390 0.192,0.559 0.184,0.665 0.071,0.745 -0.030,0.817 -0.063,0.881 -0.043,0.929" />
<polyline points="-0.035,-0.924 -0.018,-0.877 0.039,-0.814 0.108,-0.739 0.122,-0.652 0.022,-0.537 -0.149,-0.368 -0.247,-0.133 -0.167,0.133 0.021,0.368 0.152,0.537 0.146,0.652 0.057,0.739 -0.024,0.814 -0.051,0.877 -0.035,0.924" />
<polyline points="-0.026,-0.921 -0.013,-0.875 0.029,-0.812 0.079,-0.734 0.088,-0.640 0.016,-0.518 -0.108,-0.347 -0.178,-0.124 -0.120,0.124 0.015,0.347 0.110,0.518 0.106,0.640 0.041,0.734 -0.017,0.812 -0.037,0.875 -0.026,0.921" />
<polyline points="-0.016,-0.919 -0.008,-0.874 0.017,-0.813 0.048,-0.733 0.054,-0.632 0.010,-0.501 -0.065,-0.328 -0.107,-0.115 -0.073,0.115 0.009,0.328 0.067,0.501 0.065,0.632 0.025,0.733 -0.011,0.813 -0.023,0.874 -0.016,0.919" />
<polyline points="-0.005,-0.917 -0.003,-0.876 0.006,-0.816 0.016,-0.734 0.018,-0.626 0.003,-0.486 -0.022,-0.312 -0.036,-0.108 -0.024,0.108 0.003,0.312 0.022,0.486 0.022,0.626 0.008,0.734 -0.004,0.816 -0.008,0.876 -0.005,0.917" />
<polyline points="0.005,-0.917 0.003,-0.878 -0.006,-0.821 -0.016,-0.739 -0.018,-0.624 -0.003,-0.475 0.022,-0.297 0.036,-0.101 0.024,0.101 -0.003,0.297 -0.022,0.475 -0.022,0.624 -0.008,0.739 0.004,0.821 0.008,0.878 0.005,0.917" />
<polyline points="0.016,-0.919 0.008,-0.883 -0.017,-0.829 -0.048,-0.746 -0.054,-0.626 -0.010,-0.468 0.065,-0.285 0.107,-0.095 0.073,0.095 -0.009,0.285 -0.067,0.468 -0.065,0.626 -0.025,0.746 0.011,0.829 0.023,0.883 0.016,0.919" />
<polyline points="0.026,-0.921 0.013,-0.889 -0.029,-0.839 -0.079,-0.756 -0.088,-0.630 -0.016,-0.463 0.108,-0.276 0.178,-0.091 0.120,0.091 -0.015,0.276 -0.110,0.463 -0.106,0.630 -0.041,0.756 0.017,0.839 0.037,0.889 0.026,0.921" />
<polyline points="0.035,-0.924 0.018,-0.896 -0.039,-0.850 -0.108,-0.769 -0.122,-0.637 -0.022,-0.462 0.149,-0.269 0.247,-0.087 0.167,0.087 -0.021,0.269 -0.152,0.462 -0.146,0.637 -0.057,0.769 0.024,0.850 0.051,0.896 0.035,0.924" />
<polyline points="0.043,-0.929 0.022,-0.905 -0.049,-0.863 -0.136,-0.782 -0.153,-0.647 -0.027,-0.464 0.189,-0.265 0.314,-0.084 0.212,0.084 -0.027,0.265 -0.192,0.464 -0.184,0.647 -0.071,0.782 0.030,0.863 0.063,0.905 0.043,0.929" />
<polyline points="0.051,-0.933 0.026,-0.913 -0.057,-0.876 -0.160,-0.797 -0.181,-0.659 -0.033,-0.468 0.227,-0.263 0.378,-0.082 0.256,0.082 -0.032,0.263 -0.230,0.468 -0.218,0.659 -0.084,0.797 0.035,0.876 0.074,0.913 0.051,0.933" />
<polyline points="0.057,-0.938 0.029,-0.922 -0.065,-0.889 -0.182,-0.813 -0.207,-0.672 -0.038,-0.474 0.263,-0.263 0.439,-0.081 0.297,0.081 -0.037,0.263 -0.264,0.474 -0.249,0.672 -0.095,0.813 0.040,0.889 0.083,0.922 0.057,0.938" />
<polyline points="0.062,-0.944 0.032,-0.931 -0.071,-0.902 -0.202,-0.829 -0.231,-0.686 -0.042,-0.482 0.296,-0.264 0.497,-0.080 0.336,0.080 -0.042,0.264 -0.296,0.482 -0.278,0.686 -0.105,0.829 0.044,0.902 0.091,0.931 0.062,0.944" />
</g>
</svg>