<svg xmlns="http://www.w3.org/2000/svg" width="161.8" height="100.0" viewBox="-85.902 -55.000 171.803 110.000">
<g fill="none" stroke="black" stroke-width="0.0050%" transform="translate(0, 0.0000) scale(100.0000, -100.0000)">
<polyline points="0.809,0.000 0.807,0.031 0.803,0.063 0.795,0.094 0.784,0.124 0.769,0.155 0.752,0.184 0.732,0.213 0.709,0.241 0.683,0.268 0.655,0.294 0.623,0.319 0.590,0.342 0.554,0.364 0.516,0.385 0.476,0.405 0.433,0.422 0.390,0.438 0.344,0.452 0.298,0.465 0.250,0.476 0.201,0.484 0.152,0.491 0.101,0.496 0.051,0.499 -0.000,0.500 -0.051,0.499 -0.101,0.496 -0.152,0.491 -0.201,0.484 -0.250,0.476 -0.298,0.465 -0.344,0.452 -0.390,0.438 -0.433,0.422 -0.476,0.405 -0.516,0.385 -0.554,0.364 -0.590,0.342 -0.623,0.319 -0.655,0.294 -0.683,0.268 -0.709,0.241 -0.732,0.213 -0.752,0.184 -0.769,0.155 -0.784,0.124 -0.795,0.094 -0.803,0.063 -0.807,0.031 -0.809,-0.000 -0.807,-0.031 -0.803,-0.063 -0.795,-0.094 -0.784,-0.124 -0.769,-0.155 -0.752,-0.184 -0.732,-0.213 -0.709,-0.241 -0.683,-0.268 -0.655,-0.294 -0.623,-0.319 -0.590,-0.342 -0.554,-0.364 -0.516,-0.385 -0.476,-0.405 -0.433,-0.422 -0.390,-0.438 -0.344,-0.452 -0.298,-0.465 -0.250,-0.476 -0.201,-0.484 -0.152,-0.491 -0.101,-0.496 -0.051,-0.499 -0.000,-0.500 0.051,-0.499 0.101,-0.496 0.152,-0.491 0.201,-0.484 0.250,-0.476 0.298,-0.465 0.344,-0.452 0.390,-0.438 0.433,-0.422 0.476,-0.405 0.516,-0.385 0.554,-0.364 0.590,-0.342 0.623,-0.319 0.655,-0.294 0.683,-0.268 0.709,-0.241 0.732,-0.213 0.752,-0.184 0.769,-0.155 0.784,-0.124 0.795,-0.094 0.803,-0.063 0.807,-0.031" />
</g>
</svg>