<svg xmlns="http://www.w3.org/2000/svg" width="98.0" height="100.0" viewBox="-51.50 -55.00 107.99 110.00">
<g fill="none" stroke="black" stroke-width="0.0757%" transform="translate(0, -0.0000) scale(6.6012, -6.6012)">
<circle cx="-7.04" cy="0.00" r="0.08" />
<circle cx="0.00" cy="7.57" r="0.08" />
<polyline points="7.80,0.00 7.62,-0.24 7.11,-0.40 6.29,-0.42 5.25,-0.25 4.05,0.14 2.78,0.76 1.54,1.59 0.41,2.58 -0.53,3.66 -1.25,4.76 -1.73,5.78 -1.95,6.64 -1.96,7.26 -1.80,7.57 -1.55,7.56 -1.26,7.19 -1.03,6.49 -0.92,5.50 -0.98,4.29 -1.25,2.94 -1.72,1.54 -2.38,0.19 -3.20,-1.02 -4.10,-2.04 -5.00,-2.80 -5.83,-3.29 -6.49,-3.51 -6.91,-3.49 -7.04,-3.27 -6.85,-2.94 -6.31,-2.56 -5.45,-2.21 -4.32,-1.96 -2.99,-1.86 -1.55,-1.96 -0.07,-2.25 1.33,-2.72 2.58,-3.34 3.60,-4.05 4.35,-4.76 4.79,-5.39 4.94,-5.87 4.83,-6.12 4.51,-6.09 4.05,-5.74 3.52,-5.07 3.00,-4.11 2.58,-2.89 2.30,-1.49 2.20,0.00 2.30,1.49 2.58,2.89 3.00,4.11 3.52,5.07 4.05,5.74 4.51,6.09 4.83,6.12 4.94,5.87 4.79,5.39 4.35,4.76 3.60,4.05 2.58,3.34 1.33,2.72 -0.07,2.25 -1.55,1.96 -2.99,1.86 -4.32,1.96 -5.45,2.21 -6.31,2.56 -6.85,2.94 -7.04,3.27 -6.91,3.49 -6.49,3.51 -5.83,3.29 -5.00,2.80 -4.10,2.04 -3.20,1.02 -2.38,-0.19 -1.72,-1.54 -1.25,-2.94 -0.98,-4.29 -0.92,-5.50 -1.03,-6.49 -1.26,-7.19 -1.55,-7.56 -1.80,-7.57 -1.96,-7.26 -1.95,-6.64 -1.73,-5.78 -1.25,-4.76 -0.53,-3.66 0.41,-2.58 1.54,-1.59 2.78,-0.76 4.05,-0.14 5.25,0.25 6.29,0.42 7.11,0.40 7.62,0.24" />
</g>
</svg>