<svg xmlns="http://www.w3.org/2000/svg" width="161.8" height="100.0" viewBox="-4 -5 172 110">
<g fill="none" stroke="black" stroke-width="2.0950%" transform="translate(0, 100.4773) scale(0.2387, -0.2387)">
<circle cx="3" cy="1" r="2" />
<circle cx="5" cy="2" r="2" />
<circle cx="8" cy="4" r="2" />
<circle cx="11" cy="6" r="2" />
<circle cx="14" cy="3" r="2" />
<circle cx="16" cy="5" r="2" />
<circle cx="19" cy="10" r="2" />
<circle cx="22" cy="8" r="2" />
<circle cx="24" cy="12" r="2" />
<circle cx="27" cy="9" r="2" />
<circle cx="30" cy="15" r="2" />
<circle cx="33" cy="20" r="2" />
<circle cx="35" cy="16" r="2" />
<circle cx="38" cy="24" r="2" />
<circle cx="41" cy="18" r="2" />
<circle cx="43" cy="21" r="2" />
<circle cx="46" cy="7" r="2" />
<circle cx="49" cy="11" r="2" />
<circle cx="52" cy="22" r="2" />
<circle cx="54" cy="14" r="2" />
<circle cx="57" cy="28" r="2" />
<circle cx="60" cy="32" r="2" />
<circle cx="62" cy="40" r="2" />
<circle cx="65" cy="25" r="2" />
<circle cx="68" cy="30" r="2" />
<circle cx="71" cy="36" r="2" />
<circle cx="73" cy="42" r="2" />
<circle cx="76" cy="35" r="2" />
<circle cx="79" cy="45" r="2" />
<circle cx="81" cy="27" r="2" />
<circle cx="84" cy="33" r="2" />
<circle cx="87" cy="44" r="2" />
<circle cx="89" cy="48" r="2" />
<circle cx="92" cy="60" r="2" />
<circle cx="95" cy="50" r="2" />
<circle cx="98" cy="70" r="2" />
<circle cx="100" cy="49" r="2" />
<circle cx="103" cy="56" r="2" />
<circle cx="106" cy="64" r="2" />
<circle cx="108" cy="72" r="2" />
<circle cx="111" cy="54" r="2" />
<circle cx="114" cy="66" r="2" />
<circle cx="117" cy="55" r="2" />
<circle cx="119" cy="65" r="2" />
<circle cx="122" cy="13" r="2" />
<circle cx="125" cy="17" r="2" />
<circle cx="127" cy="34" r="2" />
<circle cx="130" cy="26" r="2" />
<circle cx="133" cy="39" r="2" />
<circle cx="136" cy="51" r="2" />
<circle cx="138" cy="68" r="2" />
<circle cx="141" cy="52" r="2" />
<circle cx="144" cy="78" r="2" />
<circle cx="146" cy="84" r="2" />
<circle cx="149" cy="98" r="2" />
<circle cx="152" cy="63" r="2" />
<circle cx="155" cy="81" r="2" />
<circle cx="157" cy="90" r="2" />
<circle cx="160" cy="80" r="2" />
<circle cx="163" cy="88" r="2" />
<circle cx="165" cy="77" r="2" />
<circle cx="168" cy="91" r="2" />
<circle cx="171" cy="104" r="2" />
<circle cx="174" cy="96" r="2" />
<circle cx="176" cy="108" r="2" />
<circle cx="179" cy="99" r="2" />
<circle cx="182" cy="110" r="2" />
<circle cx="184" cy="100" r="2" />
<circle cx="187" cy="120" r="2" />
<circle cx="190" cy="132" r="2" />
<circle cx="193" cy="121" r="2" />
<circle cx="195" cy="143" r="2" />
<circle cx="198" cy="117" r="2" />
<circle cx="201" cy="126" r="2" />
<circle cx="203" cy="112" r="2" />
<circle cx="206" cy="128" r="2" />
<circle cx="209" cy="144" r="2" />
<circle cx="212" cy="135" r="2" />
<circle cx="214" cy="75" r="2" />
<circle cx="217" cy="85" r="2" />
<circle cx="220" cy="102" r="2" />
<circle cx="222" cy="114" r="2" />
<circle cx="225" cy="19" r="2" />
<circle cx="228" cy="23" r="2" />
<circle cx="231" cy="46" r="2" />
<circle cx="233" cy="38" r="2" />
<circle cx="236" cy="57" r="2" />
<circle cx="239" cy="69" r="2" />
<circle cx="241" cy="92" r="2" />
<circle cx="244" cy="76" r="2" />
<circle cx="247" cy="95" r="2" />
<circle cx="249" cy="105" r="2" />
<circle cx="252" cy="147" r="2" />
<circle cx="255" cy="119" r="2" />
<circle cx="258" cy="136" r="2" />
<circle cx="260" cy="152" r="2" />
<circle cx="263" cy="133" r="2" />
<circle cx="266" cy="140" r="2" />
<circle cx="268" cy="160" r="2" />
<circle cx="271" cy="168" r="2" />
<circle cx="274" cy="189" r="2" />
<circle cx="277" cy="153" r="2" />
<circle cx="279" cy="170" r="2" />
<circle cx="282" cy="130" r="2" />
<circle cx="285" cy="156" r="2" />
<circle cx="287" cy="180" r="2" />
<circle cx="290" cy="150" r="2" />
<circle cx="293" cy="190" r="2" />
<circle cx="296" cy="171" r="2" />
<circle cx="298" cy="162" r="2" />
<circle cx="301" cy="198" r="2" />
<circle cx="304" cy="154" r="2" />
<circle cx="306" cy="182" r="2" />
<circle cx="309" cy="169" r="2" />
<circle cx="312" cy="195" r="2" />
<circle cx="315" cy="165" r="2" />
<circle cx="317" cy="176" r="2" />
<circle cx="320" cy="192" r="2" />
<circle cx="323" cy="204" r="2" />
<circle cx="325" cy="187" r="2" />
<circle cx="328" cy="209" r="2" />
<circle cx="331" cy="228" r="2" />
<circle cx="334" cy="216" r="2" />
<circle cx="336" cy="234" r="2" />
<circle cx="339" cy="208" r="2" />
<circle cx="342" cy="224" r="2" />
<circle cx="344" cy="196" r="2" />
<circle cx="347" cy="210" r="2" />
<circle cx="350" cy="225" r="2" />
<circle cx="353" cy="240" r="2" />
<circle cx="355" cy="256" r="2" />
<circle cx="358" cy="272" r="2" />
<circle cx="361" cy="221" r="2" />
<circle cx="363" cy="247" r="2" />
<circle cx="366" cy="266" r="2" />
<circle cx="369" cy="238" r="2" />
<circle cx="372" cy="255" r="2" />
<circle cx="374" cy="270" r="2" />
<circle cx="377" cy="252" r="2" />
<circle cx="380" cy="280" r="2" />
<circle cx="382" cy="200" r="2" />
<circle cx="385" cy="220" r="2" />
<circle cx="388" cy="242" r="2" />
<circle cx="391" cy="231" r="2" />
<circle cx="393" cy="273" r="2" />
<circle cx="396" cy="260" r="2" />
<circle cx="399" cy="300" r="2" />
<circle cx="401" cy="285" r="2" />
<circle cx="404" cy="304" r="2" />
<circle cx="407" cy="288" r="2" />
<circle cx="409" cy="306" r="2" />
<circle cx="412" cy="289" r="2" />
<circle cx="415" cy="323" r="2" />
<circle cx="418" cy="342" r="2" />
<circle cx="420" cy="324" r="2" />
<circle cx="423" cy="360" r="2" />
<circle cx="426" cy="320" r="2" />
<circle cx="428" cy="336" r="2" />
<circle cx="431" cy="294" r="2" />
<circle cx="434" cy="308" r="2" />
<circle cx="437" cy="264" r="2" />
<circle cx="439" cy="276" r="2" />
<circle cx="442" cy="115" r="2" />
<circle cx="445" cy="125" r="2" />
<circle cx="447" cy="175" r="2" />
<circle cx="450" cy="161" r="2" />
<circle cx="453" cy="138" r="2" />
<circle cx="456" cy="174" r="2" />
<circle cx="458" cy="29" r="2" />
<circle cx="461" cy="31" r="2" />
<circle cx="464" cy="62" r="2" />
<circle cx="466" cy="58" r="2" />
<circle cx="469" cy="87" r="2" />
<circle cx="472" cy="93" r="2" />
<circle cx="475" cy="124" r="2" />
<circle cx="477" cy="116" r="2" />
<circle cx="480" cy="145" r="2" />
<circle cx="483" cy="155" r="2" />
<circle cx="485" cy="186" r="2" />
<circle cx="488" cy="222" r="2" />
<circle cx="491" cy="37" r="2" />
<circle cx="494" cy="41" r="2" />
<circle cx="496" cy="82" r="2" />
<circle cx="499" cy="74" r="2" />
<circle cx="502" cy="111" r="2" />
<circle cx="504" cy="123" r="2" />
<circle cx="507" cy="164" r="2" />
<circle cx="510" cy="148" r="2" />
<circle cx="513" cy="185" r="2" />
<circle cx="515" cy="205" r="2" />
<circle cx="518" cy="246" r="2" />
<circle cx="521" cy="258" r="2" />
<circle cx="523" cy="43" r="2" />
<circle cx="526" cy="47" r="2" />
<circle cx="529" cy="94" r="2" />
<circle cx="532" cy="86" r="2" />
<circle cx="534" cy="129" r="2" />
<circle cx="537" cy="141" r="2" />
<circle cx="540" cy="188" r="2" />
<circle cx="542" cy="172" r="2" />
<circle cx="545" cy="215" r="2" />
<circle cx="548" cy="230" r="2" />
<circle cx="551" cy="184" r="2" />
<circle cx="553" cy="212" r="2" />
<circle cx="556" cy="53" r="2" />
<circle cx="559" cy="59" r="2" />
<circle cx="561" cy="118" r="2" />
<circle cx="564" cy="106" r="2" />
<circle cx="567" cy="159" r="2" />
<circle cx="569" cy="177" r="2" />
<circle cx="572" cy="236" r="2" />
<circle cx="575" cy="232" r="2" />
<circle cx="578" cy="290" r="2" />
<circle cx="580" cy="235" r="2" />
<circle cx="583" cy="282" r="2" />
<circle cx="586" cy="312" r="2" />
<circle cx="588" cy="364" r="2" />
<circle cx="591" cy="203" r="2" />
<circle cx="594" cy="261" r="2" />
<circle cx="597" cy="207" r="2" />
<circle cx="599" cy="253" r="2" />
<circle cx="602" cy="275" r="2" />
<circle cx="605" cy="250" r="2" />
<circle cx="607" cy="310" r="2" />
<circle cx="610" cy="217" r="2" />
<circle cx="613" cy="245" r="2" />
<circle cx="616" cy="315" r="2" />
<circle cx="618" cy="243" r="2" />
<circle cx="621" cy="297" r="2" />
<circle cx="624" cy="286" r="2" />
<circle cx="626" cy="338" r="2" />
<circle cx="629" cy="299" r="2" />
<circle cx="632" cy="322" r="2" />
<circle cx="635" cy="350" r="2" />
<circle cx="637" cy="325" r="2" />
<circle cx="640" cy="351" r="2" />
<circle cx="643" cy="378" r="2" />
<circle cx="645" cy="392" r="2" />
<circle cx="648" cy="420" r="2" />
<circle cx="651" cy="330" r="2" />
<circle cx="654" cy="352" r="2" />
<circle cx="656" cy="368" r="2" />
<circle cx="659" cy="345" r="2" />
<circle cx="662" cy="375" r="2" />
<circle cx="664" cy="400" r="2" />
<circle cx="667" cy="384" r="2" />
<circle cx="670" cy="408" r="2" />
<circle cx="673" cy="340" r="2" />
<circle cx="675" cy="380" r="2" />
<circle cx="678" cy="361" r="2" />
<circle cx="681" cy="399" r="2" />
</g>
</svg>