<svg xmlns="http://www.w3.org/2000/svg" width="153.7" height="100.0" viewBox="-3.97 -5.00 163.71 110.00">
<g fill="none" stroke="black" stroke-width="0.1000%" transform="translate(0, 100.0000) scale(5.0000, -5.0000)">
<line x1="0.21" y1="0.00" x2="0.21" y2="1.00" />
<line x1="0.41" y1="0.00" x2="0.41" y2="1.00" />
<line x1="0.62" y1="0.00" x2="0.62" y2="1.00" />
<line x1="0.83" y1="0.00" x2="0.83" y2="1.00" />
<line x1="1.03" y1="0.00" x2="1.03" y2="1.00" />
<line x1="1.24" y1="0.00" x2="1.24" y2="1.00" />
<line x1="1.44" y1="0.00" x2="1.44" y2="1.00" />
<line x1="1.65" y1="0.00" x2="1.65" y2="1.00" />
<line x1="1.86" y1="0.00" x2="1.86" y2="1.00" />
<line x1="2.06" y1="0.00" x2="2.06" y2="1.00" />
<line x1="2.27" y1="0.00" x2="2.27" y2="2.00" />
<line x1="2.48" y1="0.00" x2="2.48" y2="2.00" />
<line x1="2.68" y1="0.00" x2="2.68" y2="2.00" />
<line x1="2.89" y1="0.00" x2="2.89" y2="2.00" />
<line x1="3.09" y1="0.00" x2="3.09" y2="2.00" />
<line x1="3.30" y1="0.00" x2="3.30" y2="2.00" />
<line x1="3.51" y1="0.00" x2="3.51" y2="2.00" />
<line x1="3.71" y1="0.00" x2="3.71" y2="2.00" />
<line x1="3.92" y1="0.00" x2="3.92" y2="2.00" />
<line x1="4.13" y1="0.00" x2="4.13" y2="2.00" />
<line x1="4.33" y1="0.00" x2="4.33" y2="3.00" />
<line x1="4.54" y1="0.00" x2="4.54" y2="3.00" />
<line x1="4.75" y1="0.00" x2="4.75" y2="3.00" />
<line x1="4.95" y1="0.00" x2="4.95" y2="3.00" />
<line x1="5.16" y1="0.00" x2="5.16" y2="3.00" />
<line x1="5.36" y1="0.00" x2="5.36" y2="3.00" />
<line x1="5.57" y1="0.00" x2="5.57" y2="3.00" />
<line x1="5.78" y1="0.00" x2="5.78" y2="3.00" />
<line x1="5.98" y1="0.00" x2="5.98" y2="3.00" />
<line x1="6.19" y1="0.00" x2="6.19" y2="3.00" />
<line x1="6.40" y1="0.00" x2="6.40" y2="4.00" />
<line x1="6.60" y1="0.00" x2="6.60" y2="4.00" />
<line x1="6.81" y1="0.00" x2="6.81" y2="4.00" />
<line x1="7.02" y1="0.00" x2="7.02" y2="4.00" />
<line x1="7.22" y1="0.00" x2="7.22" y2="4.00" />
<line x1="7.43" y1="0.00" x2="7.43" y2="4.00" />
<line x1="7.63" y1="0.00" x2="7.63" y2="4.00" />
<line x1="7.84" y1="0.00" x2="7.84" y2="4.00" />
<line x1="8.05" y1="0.00" x2="8.05" y2="4.00" />
<line x1="8.25" y1="0.00" x2="8.25" y2="4.00" />
<line x1="8.46" y1="0.00" x2="8.46" y2="5.00" />
<line x1="8.67" y1="0.00" x2="8.67" y2="5.00" />
<line x1="8.87" y1="0.00" x2="8.87" y2="5.00" />
<line x1="9.08" y1="0.00" x2="9.08" y2="5.00" />
<line x1="9.28" y1="0.00" x2="9.28" y2="5.00" />
<line x1="9.49" y1="0.00" x2="9.49" y2="5.00" />
<line x1="9.70" y1="0.00" x2="9.70" y2="5.00" />
<line x1="9.90" y1="0.00" x2="9.90" y2="5.00" />
<line x1="10.11" y1="0.00" x2="10.11" y2="5.00" />
<line x1="10.32" y1="0.00" x2="10.32" y2="5.00" />
<line x1="10.52" y1="0.00" x2="10.52" y2="6.00" />
<line x1="10.73" y1="0.00" x2="10.73" y2="6.00" />
<line x1="10.94" y1="0.00" x2="10.94" y2="6.00" />
<line x1="11.14" y1="0.00" x2="11.14" y2="6.00" />
<line x1="11.35" y1="0.00" x2="11.35" y2="6.00" />
<line x1="11.55" y1="0.00" x2="11.55" y2="6.00" />
<line x1="11.76" y1="0.00" x2="11.76" y2="6.00" />
<line x1="11.97" y1="0.00" x2="11.97" y2="6.00" />
<line x1="12.17" y1="0.00" x2="12.17" y2="6.00" />
<line x1="12.38" y1="0.00" x2="12.38" y2="6.00" />
<line x1="12.59" y1="0.00" x2="12.59" y2="7.00" />
<line x1="12.79" y1="0.00" x2="12.79" y2="7.00" />
<line x1="13.00" y1="0.00" x2="13.00" y2="7.00" />
<line x1="13.20" y1="0.00" x2="13.20" y2="7.00" />
<line x1="13.41" y1="0.00" x2="13.41" y2="7.00" />
<line x1="13.62" y1="0.00" x2="13.62" y2="7.00" />
<line x1="13.82" y1="0.00" x2="13.82" y2="7.00" />
<line x1="14.03" y1="0.00" x2="14.03" y2="7.00" />
<line x1="14.24" y1="0.00" x2="14.24" y2="7.00" />
<line x1="14.44" y1="0.00" x2="14.44" y2="7.00" />
<line x1="14.65" y1="0.00" x2="14.65" y2="8.00" />
<line x1="14.86" y1="0.00" x2="14.86" y2="8.00" />
<line x1="15.06" y1="0.00" x2="15.06" y2="8.00" />
<line x1="15.27" y1="0.00" x2="15.27" y2="8.00" />
<line x1="15.47" y1="0.00" x2="15.47" y2="8.00" />
<line x1="15.68" y1="0.00" x2="15.68" y2="8.00" />
<line x1="15.89" y1="0.00" x2="15.89" y2="8.00" />
<line x1="16.09" y1="0.00" x2="16.09" y2="8.00" />
<line x1="16.30" y1="0.00" x2="16.30" y2="8.00" />
<line x1="16.51" y1="0.00" x2="16.51" y2="8.00" />
<line x1="16.71" y1="0.00" x2="16.71" y2="9.00" />
<line x1="16.92" y1="0.00" x2="16.92" y2="9.00" />
<line x1="17.13" y1="0.00" x2="17.13" y2="9.00" />
<line x1="17.33" y1="0.00" x2="17.33" y2="9.00" />
<line x1="17.54" y1="0.00" x2="17.54" y2="9.00" />
<line x1="17.74" y1="0.00" x2="17.74" y2="9.00" />
<line x1="17.95" y1="0.00" x2="17.95" y2="9.00" />
<line x1="18.16" y1="0.00" x2="18.16" y2="9.00" />
<line x1="18.36" y1="0.00" x2="18.36" y2="9.00" />
<line x1="18.57" y1="0.00" x2="18.57" y2="9.00" />
<line x1="18.78" y1="0.00" x2="18.78" y2="10.00" />
<line x1="18.98" y1="0.00" x2="18.98" y2="10.00" />
<line x1="19.19" y1="0.00" x2="19.19" y2="10.00" />
<line x1="19.39" y1="0.00" x2="19.39" y2="10.00" />
<line x1="19.60" y1="0.00" x2="19.60" y2="10.00" />
<line x1="19.81" y1="0.00" x2="19.81" y2="10.00" />
<line x1="20.01" y1="0.00" x2="20.01" y2="10.00" />
<line x1="20.22" y1="0.00" x2="20.22" y2="10.00" />
<line x1="20.43" y1="0.00" x2="20.43" y2="10.00" />
<line x1="20.63" y1="0.00" x2="20.63" y2="10.00" />
<line x1="20.84" y1="0.00" x2="20.84" y2="12.00" />
<line x1="21.05" y1="0.00" x2="21.05" y2="12.00" />
<line x1="21.25" y1="0.00" x2="21.25" y2="12.00" />
<line x1="21.46" y1="0.00" x2="21.46" y2="12.00" />
<line x1="21.66" y1="0.00" x2="21.66" y2="12.00" />
<line x1="21.87" y1="0.00" x2="21.87" y2="12.00" />
<line x1="22.08" y1="0.00" x2="22.08" y2="12.00" />
<line x1="22.28" y1="0.00" x2="22.28" y2="12.00" />
<line x1="22.49" y1="0.00" x2="22.49" y2="12.00" />
<line x1="22.70" y1="0.00" x2="22.70" y2="12.00" />
<line x1="22.90" y1="0.00" x2="22.90" y2="14.00" />
<line x1="23.11" y1="0.00" x2="23.11" y2="14.00" />
<line x1="23.31" y1="0.00" x2="23.31" y2="14.00" />
<line x1="23.52" y1="0.00" x2="23.52" y2="14.00" />
<line x1="23.73" y1="0.00" x2="23.73" y2="14.00" />
<line x1="23.93" y1="0.00" x2="23.93" y2="14.00" />
<line x1="24.14" y1="0.00" x2="24.14" y2="14.00" />
<line x1="24.35" y1="0.00" x2="24.35" y2="14.00" />
<line x1="24.55" y1="0.00" x2="24.55" y2="14.00" />
<line x1="24.76" y1="0.00" x2="24.76" y2="14.00" />
<line x1="24.97" y1="0.00" x2="24.97" y2="16.00" />
<line x1="25.17" y1="0.00" x2="25.17" y2="16.00" />
<line x1="25.38" y1="0.00" x2="25.38" y2="16.00" />
<line x1="25.58" y1="0.00" x2="25.58" y2="16.00" />
<line x1="25.79" y1="0.00" x2="25.79" y2="16.00" />
<line x1="26.00" y1="0.00" x2="26.00" y2="16.00" />
<line x1="26.20" y1="0.00" x2="26.20" y2="16.00" />
<line x1="26.41" y1="0.00" x2="26.41" y2="16.00" />
<line x1="26.62" y1="0.00" x2="26.62" y2="16.00" />
<line x1="26.82" y1="0.00" x2="26.82" y2="16.00" />
<line x1="27.03" y1="0.00" x2="27.03" y2="18.00" />
<line x1="27.24" y1="0.00" x2="27.24" y2="18.00" />
<line x1="27.44" y1="0.00" x2="27.44" y2="18.00" />
<line x1="27.65" y1="0.00" x2="27.65" y2="18.00" />
<line x1="27.85" y1="0.00" x2="27.85" y2="18.00" />
<line x1="28.06" y1="0.00" x2="28.06" y2="18.00" />
<line x1="28.27" y1="0.00" x2="28.27" y2="18.00" />
<line x1="28.47" y1="0.00" x2="28.47" y2="18.00" />
<line x1="28.68" y1="0.00" x2="28.68" y2="18.00" />
<line x1="28.89" y1="0.00" x2="28.89" y2="18.00" />
<line x1="29.09" y1="0.00" x2="29.09" y2="20.00" />
<line x1="29.30" y1="0.00" x2="29.30" y2="20.00" />
<line x1="29.50" y1="0.00" x2="29.50" y2="20.00" />
<line x1="29.71" y1="0.00" x2="29.71" y2="20.00" />
<line x1="29.92" y1="0.00" x2="29.92" y2="20.00" />
<line x1="30.12" y1="0.00" x2="30.12" y2="20.00" />
<line x1="30.33" y1="0.00" x2="30.33" y2="20.00" />
<line x1="30.54" y1="0.00" x2="30.54" y2="20.00" />
<line x1="30.74" y1="0.00" x2="30.74" y2="20.00" />
<line x1="30.95" y1="0.00" x2="30.95" y2="20.00" />
</g>
</svg>