<svg xmlns="http://www.w3.org/2000/svg" width="195.2" height="100.0" viewBox="-33.993 -73.406 205.187 110.000">
<g fill="none" stroke="black" stroke-width="0.0156%" transform="translate(0, -36.8125) scale(31.9870, -31.9870)">
<circle cx="0.899" cy="0.470" r="0.016" />
<circle cx="0.584" cy="-0.756" r="0.016" />
<circle cx="0.290" cy="0.395" r="0.016" />
<circle cx="0.610" cy="0.147" r="0.016" />
<circle cx="0.539" cy="0.268" r="0.016" />
<circle cx="0.528" cy="0.199" r="0.016" />
<circle cx="0.617" cy="0.290" r="0.016" />
<circle cx="0.424" cy="0.067" r="0.016" />
<circle cx="0.926" cy="0.358" r="0.016" />
<circle cx="0.468" cy="-0.655" r="0.016" />
<circle cx="0.659" cy="0.593" r="0.016" />
<circle cx="0.818" cy="0.585" r="0.016" />
<circle cx="0.674" cy="-0.790" r="0.016" />
<circle cx="0.137" cy="0.184" r="0.016" />
<circle cx="0.934" cy="0.184" r="0.016" />
<circle cx="0.327" cy="-0.449" r="0.016" />
<circle cx="1.190" cy="0.432" r="0.016" />
<circle cx="1.015" cy="-1.076" r="0.016" />
<circle cx="0.166" cy="-0.941" r="0.016" />
<circle cx="0.554" cy="0.679" r="0.016" />
<circle cx="0.620" cy="-0.640" r="0.016" />
<circle cx="0.377" cy="0.431" r="0.016" />
<circle cx="-0.096" cy="0.335" r="0.016" />
<circle cx="0.704" cy="-0.013" r="0.016" />
<circle cx="0.472" cy="0.281" r="0.016" />
<circle cx="0.597" cy="0.236" r="0.016" />
<circle cx="0.483" cy="0.176" r="0.016" />
<circle cx="0.712" cy="0.329" r="0.016" />
<circle cx="0.356" cy="-0.172" r="0.016" />
<circle cx="1.169" cy="0.290" r="0.016" />
<circle cx="0.763" cy="-0.996" r="0.016" />
<circle cx="-0.021" cy="-0.308" r="0.016" />
<circle cx="1.238" cy="-0.110" r="0.016" />
<circle cx="-0.030" cy="0.195" r="0.016" />
<circle cx="0.854" cy="0.082" r="0.016" />
<circle cx="0.283" cy="-0.131" r="0.016" />
<circle cx="1.188" cy="0.186" r="0.016" />
<circle cx="0.673" cy="-0.969" r="0.016" />
<circle cx="-0.000" cy="-0.068" r="0.016" />
<circle cx="1.038" cy="-0.044" r="0.016" />
<circle cx="0.278" cy="-0.508" r="0.016" />
<circle cx="1.215" cy="0.443" r="0.016" />
<circle cx="1.082" cy="-1.096" r="0.016" />
<circle cx="0.260" cy="-1.080" r="0.016" />
<circle cx="-0.285" cy="-0.234" r="0.016" />
<circle cx="1.155" cy="-0.272" r="0.016" />
<circle cx="0.311" cy="-0.737" r="0.016" />
<circle cx="0.811" cy="0.653" r="0.016" />
<circle cx="0.798" cy="-0.862" r="0.016" />
<circle cx="0.021" cy="-0.195" r="0.016" />
<circle cx="1.142" cy="-0.089" r="0.016" />
<circle cx="0.371" cy="-0.743" r="0.016" />
<circle cx="0.691" cy="0.635" r="0.016" />
<circle cx="0.634" cy="-0.708" r="0.016" />
<circle cx="0.273" cy="0.353" r="0.016" />
<circle cx="0.430" cy="-0.640" r="0.016" />
<circle cx="0.764" cy="0.611" r="0.016" />
<circle cx="0.660" cy="-0.759" r="0.016" />
<circle cx="0.182" cy="0.249" r="0.016" />
<circle cx="0.858" cy="0.220" r="0.016" />
<circle cx="0.316" cy="-0.314" r="0.016" />
<circle cx="1.237" cy="0.295" r="0.016" />
<circle cx="0.906" cy="-1.077" r="0.016" />
<circle cx="0.053" cy="-0.730" r="0.016" />
<circle cx="1.180" cy="0.595" r="0.016" />
<circle cx="1.282" cy="-1.087" r="0.016" />
<circle cx="0.781" cy="-0.408" r="0.016" />
<circle cx="0.288" cy="0.233" r="0.016" />
<circle cx="0.844" cy="0.274" r="0.016" />
<circle cx="0.337" cy="-0.360" r="0.016" />
<circle cx="1.212" cy="0.361" r="0.016" />
<circle cx="0.950" cy="-1.074" r="0.016" />
<circle cx="0.093" cy="-0.814" r="0.016" />
<circle cx="0.955" cy="0.695" r="0.016" />
<circle cx="1.094" cy="-0.999" r="0.016" />
<circle cx="0.241" cy="-1.006" r="0.016" />
<circle cx="0.324" cy="0.561" r="0.016" />
<circle cx="-0.737" cy="0.939" r="0.016" />
<circle cx="2.001" cy="0.163" r="0.016" />
<circle cx="2.293" cy="-1.114" r="0.016" />
<circle cx="2.427" cy="-1.631" r="0.016" />
<circle cx="2.696" cy="-1.817" r="0.016" />
<circle cx="3.092" cy="-1.805" r="0.016" />
<circle cx="3.575" cy="-1.623" r="0.016" />
<circle cx="4.084" cy="-1.274" r="0.016" />
<circle cx="4.554" cy="-0.769" r="0.016" />
<circle cx="4.923" cy="-0.141" r="0.016" />
<circle cx="5.149" cy="0.558" r="0.016" />
<circle cx="0.483" cy="0.509" r="0.016" />
<circle cx="0.436" cy="-0.194" r="0.016" />
<circle cx="1.077" cy="0.398" r="0.016" />
<circle cx="0.747" cy="-0.943" r="0.016" />
<circle cx="-0.004" cy="-0.193" r="0.016" />
<circle cx="1.126" cy="-0.105" r="0.016" />
<circle cx="0.341" cy="-0.701" r="0.016" />
<circle cx="0.828" cy="0.640" r="0.016" />
<circle cx="0.793" cy="-0.865" r="0.016" />
<circle cx="0.020" cy="-0.187" r="0.016" />
<circle cx="1.134" cy="-0.087" r="0.016" />
<circle cx="-0.026" cy="-0.548" r="0.016" />
<circle cx="1.419" cy="0.204" r="0.016" />
<circle cx="1.182" cy="-1.205" r="0.016" />
<circle cx="0.464" cy="-1.331" r="0.016" />
<circle cx="-0.146" cy="-0.350" r="0.016" />
<circle cx="1.279" cy="-0.162" r="0.016" />
<circle cx="0.564" cy="-1.005" r="0.016" />
<circle cx="0.025" cy="0.093" r="0.016" />
<circle cx="0.963" cy="0.072" r="0.016" />
<circle cx="0.284" cy="-0.401" r="0.016" />
<circle cx="1.261" cy="0.326" r="0.016" />
<circle cx="-0.116" cy="-0.894" r="0.016" />
<circle cx="0.923" cy="0.762" r="0.016" />
<circle cx="1.196" cy="-0.998" r="0.016" />
<circle cx="0.394" cy="-1.178" r="0.016" />
<circle cx="-0.053" cy="0.070" r="0.016" />
<circle cx="0.927" cy="0.014" r="0.016" />
<circle cx="0.254" cy="-0.255" r="0.016" />
<circle cx="1.255" cy="0.169" r="0.016" />
<circle cx="0.786" cy="-1.055" r="0.016" />
<circle cx="-0.024" cy="-0.451" r="0.016" />
<circle cx="1.382" cy="0.029" r="0.016" />
<circle cx="-0.576" cy="-0.772" r="0.016" />
<circle cx="1.172" cy="0.801" r="0.016" />
<circle cx="1.661" cy="-1.009" r="0.016" />
<circle cx="1.277" cy="-1.628" r="0.016" />
<circle cx="0.876" cy="-1.755" r="0.016" />
<circle cx="0.389" cy="-1.551" r="0.016" />
<circle cx="-0.173" cy="-0.688" r="0.016" />
<circle cx="1.387" cy="0.462" r="0.016" />
<circle cx="1.461" cy="-1.154" r="0.016" />
<circle cx="0.934" cy="-1.581" r="0.016" />
<circle cx="0.337" cy="-1.413" r="0.016" />
<circle cx="-0.460" cy="0.266" r="0.016" />
<circle cx="0.959" cy="-0.450" r="0.016" />
<circle cx="0.134" cy="-0.245" r="0.016" />
<circle cx="1.237" cy="0.011" r="0.016" />
<circle cx="0.598" cy="-0.971" r="0.016" />
<circle cx="0.034" cy="0.082" r="0.016" />
<circle cx="0.975" cy="0.071" r="0.016" />
<circle cx="0.290" cy="-0.432" r="0.016" />
<circle cx="1.246" cy="0.367" r="0.016" />
<circle cx="1.027" cy="-1.104" r="0.016" />
<circle cx="0.190" cy="-0.993" r="0.016" />
<circle cx="-0.589" cy="0.345" r="0.016" />
<circle cx="1.272" cy="-0.512" r="0.016" />
<circle cx="0.446" cy="-1.026" r="0.016" />
<circle cx="0.087" cy="0.266" r="0.016" />
<circle cx="0.829" cy="0.165" r="0.016" />
<circle cx="0.302" cy="-0.170" r="0.016" />
<circle cx="1.202" cy="0.214" r="0.016" />
<circle cx="0.731" cy="-1.003" r="0.016" />
<circle cx="-0.025" cy="-0.250" r="0.016" />
<circle cx="1.172" cy="-0.126" r="0.016" />
<circle cx="0.396" cy="-0.800" r="0.016" />
<circle cx="-0.676" cy="0.087" r="0.016" />
<circle cx="1.450" cy="-0.365" r="0.016" />
<circle cx="0.835" cy="-1.260" r="0.016" />
<circle cx="0.042" cy="-0.857" r="0.016" />
<circle cx="0.901" cy="0.723" r="0.016" />
<circle cx="1.075" cy="-0.979" r="0.016" />
<circle cx="0.208" cy="-0.949" r="0.016" />
<circle cx="0.487" cy="0.647" r="0.016" />
<circle cx="0.543" cy="-0.515" r="0.016" />
<circle cx="0.692" cy="0.556" r="0.016" />
<circle cx="0.510" cy="-0.574" r="0.016" />
<circle cx="-0.901" cy="0.399" r="0.016" />
<circle cx="1.835" cy="0.069" r="0.016" />
<circle cx="1.927" cy="-1.256" r="0.016" />
<circle cx="1.831" cy="-1.769" r="0.016" />
<circle cx="1.845" cy="-1.993" r="0.016" />
<circle cx="1.963" cy="-2.098" r="0.016" />
<circle cx="2.179" cy="-2.139" r="0.016" />
<circle cx="2.494" cy="-2.122" r="0.016" />
<circle cx="2.905" cy="-2.029" r="0.016" />
<circle cx="3.394" cy="-1.828" r="0.016" />
<circle cx="3.918" cy="-1.491" r="0.016" />
<circle cx="-0.906" cy="0.836" r="0.016" />
<circle cx="1.959" cy="0.424" r="0.016" />
<circle cx="2.422" cy="-0.938" r="0.016" />
<circle cx="2.624" cy="-1.495" r="0.016" />
<circle cx="2.945" cy="-1.675" r="0.016" />
<circle cx="3.381" cy="-1.621" r="0.016" />
<circle cx="3.876" cy="-1.374" r="0.016" />
<circle cx="4.363" cy="-0.951" r="0.016" />
<circle cx="4.776" cy="-0.383" r="0.016" />
<circle cx="5.063" cy="0.283" r="0.016" />
<circle cx="5.196" cy="0.988" r="0.016" />
<circle cx="-0.855" cy="0.082" r="0.016" />
<circle cx="1.730" cy="-0.005" r="0.016" />
<circle cx="1.659" cy="-1.314" r="0.016" />
<circle cx="1.368" cy="-1.761" r="0.016" />
<circle cx="1.106" cy="-1.893" r="0.016" />
<circle cx="0.806" cy="-1.853" r="0.016" />
<circle cx="0.379" cy="-1.602" r="0.016" />
<circle cx="-0.166" cy="-0.773" r="0.016" />
<circle cx="1.238" cy="0.629" r="0.016" />
<circle cx="1.450" cy="-1.091" r="0.016" />
<circle cx="0.889" cy="-1.538" r="0.016" />
<circle cx="0.139" cy="0.847" r="0.016" />
<circle cx="0.945" cy="-0.727" r="0.016" />
<circle cx="0.070" cy="-0.402" r="0.016" />
<circle cx="1.343" cy="0.048" r="0.016" />
<circle cx="0.851" cy="-1.133" r="0.016" />
<circle cx="0.020" cy="-0.700" r="0.016" />
<circle cx="1.262" cy="0.535" r="0.016" />
<circle cx="1.330" cy="-1.117" r="0.016" />
<circle cx="0.675" cy="-1.440" r="0.016" />
<circle cx="-0.026" cy="-0.880" r="0.016" />
<circle cx="0.903" cy="0.742" r="0.016" />
<circle cx="0.237" cy="-0.301" r="0.016" />
<circle cx="1.278" cy="0.169" r="0.016" />
<circle cx="0.835" cy="-1.083" r="0.016" />
<circle cx="0.001" cy="-0.596" r="0.016" />
<circle cx="1.392" cy="0.321" r="0.016" />
<circle cx="1.269" cy="-1.184" r="0.016" />
<circle cx="0.599" cy="-1.420" r="0.016" />
<circle cx="-0.087" cy="-0.730" r="0.016" />
<circle cx="1.284" cy="0.557" r="0.016" />
<circle cx="1.410" cy="-1.117" r="0.016" />
<circle cx="0.823" cy="-1.519" r="0.016" />
<circle cx="-0.306" cy="-0.635" r="0.016" />
<circle cx="1.475" cy="0.366" r="0.016" />
<circle cx="1.504" cy="-1.189" r="0.016" />
<circle cx="1.030" cy="-1.629" r="0.016" />
<circle cx="0.502" cy="-1.561" r="0.016" />
<circle cx="-0.105" cy="-0.849" r="0.016" />
<circle cx="1.034" cy="0.726" r="0.016" />
<circle cx="1.289" cy="-1.035" r="0.016" />
<circle cx="0.568" cy="-1.337" r="0.016" />
<circle cx="-0.116" cy="-0.529" r="0.016" />
<circle cx="1.445" cy="0.117" r="0.016" />
<circle cx="-0.076" cy="-0.314" r="0.016" />
<circle cx="1.232" cy="-0.146" r="0.016" />
<circle cx="0.486" cy="-0.921" r="0.016" />
<circle cx="0.193" cy="0.363" r="0.016" />
<circle cx="0.694" cy="0.170" r="0.016" />
<circle cx="0.403" cy="0.114" r="0.016" />
<circle cx="0.900" cy="0.342" r="0.016" />
<circle cx="0.425" cy="-0.583" r="0.016" />
<circle cx="0.864" cy="0.598" r="0.016" />
<circle cx="0.756" cy="-0.859" r="0.016" />
<circle cx="0.032" cy="-0.092" r="0.016" />
<circle cx="0.827" cy="-0.693" r="0.016" />
<circle cx="0.085" cy="-0.066" r="0.016" />
<circle cx="1.091" cy="0.009" r="0.016" />
<circle cx="0.361" cy="-0.672" r="0.016" />
<circle cx="0.845" cy="0.630" r="0.016" />
<circle cx="0.794" cy="-0.872" r="0.016" />
<circle cx="0.018" cy="-0.199" r="0.016" />
<circle cx="1.143" cy="-0.092" r="0.016" />
<circle cx="0.372" cy="-0.745" r="0.016" />
<circle cx="0.684" cy="0.634" r="0.016" />
<circle cx="0.627" cy="-0.699" r="0.016" />
<circle cx="0.359" cy="0.896" r="0.016" />
<circle cx="1.046" cy="-0.820" r="0.016" />
<circle cx="0.142" cy="-0.734" r="0.016" />
<circle cx="1.075" cy="0.631" r="0.016" />
<circle cx="1.160" cy="-1.047" r="0.016" />
<circle cx="0.355" cy="-1.161" r="0.016" />
<circle cx="-0.019" cy="0.163" r="0.016" />
<circle cx="0.886" cy="0.081" r="0.016" />
<circle cx="0.274" cy="-0.212" r="0.016" />
<circle cx="1.231" cy="0.182" r="0.016" />
<circle cx="0.752" cy="-1.028" r="0.016" />
<circle cx="0.160" cy="-0.622" r="0.016" />
<circle cx="1.239" cy="0.491" r="0.016" />
<circle cx="1.211" cy="-1.113" r="0.016" />
<circle cx="0.466" cy="-1.292" r="0.016" />
<circle cx="-0.135" cy="-0.276" r="0.016" />
<circle cx="1.177" cy="-0.192" r="0.016" />
<circle cx="0.372" cy="-0.796" r="0.016" />
<circle cx="0.583" cy="0.619" r="0.016" />
<circle cx="0.537" cy="-0.555" r="0.016" />
<circle cx="0.656" cy="0.559" r="0.016" />
<circle cx="0.492" cy="-0.528" r="0.016" />
</g>
</svg>