<svg xmlns="http://www.w3.org/2000/svg" width="104" height="104" viewBox="0 0 104 104">
<g stroke="none" transform="translate(0, 0) scale(1, 1)">
<rect x="0" y="0" width="8" height="8" fill="rgb(0,0,0)"/>
<rect x="0" y="8" width="8" height="8" fill="rgb(78,78,78)"/>
<rect x="0" y="16" width="8" height="8" fill="rgb(142,142,142)"/>
<rect x="0" y="24" width="8" height="8" fill="rgb(191,191,191)"/>
<rect x="0" y="32" width="8" height="8" fill="rgb(227,227,227)"/>
<rect x="0" y="40" width="8" height="8" fill="rgb(248,248,248)"/>
<rect x="0" y="48" width="8" height="8" fill="rgba(255,255,255,0)"/>
<rect x="0" y="56" width="8" height="8" fill="rgb(248,248,248)"/>
<rect x="0" y="64" width="8" height="8" fill="rgb(227,227,227)"/>
<rect x="0" y="72" width="8" height="8" fill="rgb(191,191,191)"/>
<rect x="0" y="80" width="8" height="8" fill="rgb(142,142,142)"/>
<rect x="0" y="88" width="8" height="8" fill="rgb(78,78,78)"/>
<rect x="0" y="96" width="8" height="8" fill="rgb(0,0,0)"/>
<rect x="8" y="0" width="8" height="8" fill="rgb(78,78,78)"/>
<rect x="8" y="8" width="8" height="8" fill="rgb(156,156,156)"/>
<rect x="8" y="16" width="8" height="8" fill="rgb(220,220,220)"/>
<rect x="8" y="24" width="8" height="8" fill="rgb(241,241,241)"/>
<rect x="8" y="32" width="8" height="8" fill="rgb(205,205,205)"/>
<rect x="8" y="40" width="8" height="8" fill="rgb(184,184,184)"/>
<rect x="8" y="48" width="8" height="8" fill="rgb(177,177,177)"/>
<rect x="8" y="56" width="8" height="8" fill="rgb(184,184,184)"/>
<rect x="8" y="64" width="8" height="8" fill="rgb(205,205,205)"/>
<rect x="8" y="72" width="8" height="8" fill="rgb(241,241,241)"/>
<rect x="8" y="80" width="8" height="8" fill="rgb(220,220,220)"/>
<rect x="8" y="88" width="8" height="8" fill="rgb(156,156,156)"/>
<rect x="8" y="96" width="8" height="8" fill="rgb(78,78,78)"/>
<rect x="16" y="0" width="8" height="8" fill="rgb(142,142,142)"/>
<rect x="16" y="8" width="8" height="8" fill="rgb(220,220,220)"/>
<rect x="16" y="16" width="8" height="8" fill="rgb(227,227,227)"/>
<rect x="16" y="24" width="8" height="8" fill="rgb(177,177,177)"/>
<rect x="16" y="32" width="8" height="8" fill="rgb(142,142,142)"/>
<rect x="16" y="40" width="8" height="8" fill="rgb(120,120,120)"/>
<rect x="16" y="48" width="8" height="8" fill="rgb(113,113,113)"/>
<rect x="16" y="56" width="8" height="8" fill="rgb(120,120,120)"/>
<rect x="16" y="64" width="8" height="8" fill="rgb(142,142,142)"/>
<rect x="16" y="72" width="8" height="8" fill="rgb(177,177,177)"/>
<rect x="16" y="80" width="8" height="8" fill="rgb(227,227,227)"/>
<rect x="16" y="88" width="8" height="8" fill="rgb(220,220,220)"/>
<rect x="16" y="96" width="8" height="8" fill="rgb(142,142,142)"/>
<rect x="24" y="0" width="8" height="8" fill="rgb(191,191,191)"/>
<rect x="24" y="8" width="8" height="8" fill="rgb(241,241,241)"/>
<rect x="24" y="16" width="8" height="8" fill="rgb(177,177,177)"/>
<rect x="24" y="24" width="8" height="8" fill="rgb(128,128,128)"/>
<rect x="24" y="32" width="8" height="8" fill="rgb(92,92,92)"/>
<rect x="24" y="40" width="8" height="8" fill="rgb(71,71,71)"/>
<rect x="24" y="48" width="8" height="8" fill="rgb(64,64,64)"/>
<rect x="24" y="56" width="8" height="8" fill="rgb(71,71,71)"/>
<rect x="24" y="64" width="8" height="8" fill="rgb(92,92,92)"/>
<rect x="24" y="72" width="8" height="8" fill="rgb(127,127,127)"/>
<rect x="24" y="80" width="8" height="8" fill="rgb(177,177,177)"/>
<rect x="24" y="88" width="8" height="8" fill="rgb(241,241,241)"/>
<rect x="24" y="96" width="8" height="8" fill="rgb(191,191,191)"/>
<rect x="32" y="0" width="8" height="8" fill="rgb(227,227,227)"/>
<rect x="32" y="8" width="8" height="8" fill="rgb(205,205,205)"/>
<rect x="32" y="16" width="8" height="8" fill="rgb(142,142,142)"/>
<rect x="32" y="24" width="8" height="8" fill="rgb(92,92,92)"/>
<rect x="32" y="32" width="8" height="8" fill="rgb(57,57,57)"/>
<rect x="32" y="40" width="8" height="8" fill="rgb(35,35,35)"/>
<rect x="32" y="48" width="8" height="8" fill="rgb(28,28,28)"/>
<rect x="32" y="56" width="8" height="8" fill="rgb(35,35,35)"/>
<rect x="32" y="64" width="8" height="8" fill="rgb(57,57,57)"/>
<rect x="32" y="72" width="8" height="8" fill="rgb(92,92,92)"/>
<rect x="32" y="80" width="8" height="8" fill="rgb(142,142,142)"/>
<rect x="32" y="88" width="8" height="8" fill="rgb(205,205,205)"/>
<rect x="32" y="96" width="8" height="8" fill="rgb(227,227,227)"/>
<rect x="40" y="0" width="8" height="8" fill="rgb(248,248,248)"/>
<rect x="40" y="8" width="8" height="8" fill="rgb(184,184,184)"/>
<rect x="40" y="16" width="8" height="8" fill="rgb(120,120,120)"/>
<rect x="40" y="24" width="8" height="8" fill="rgb(71,71,71)"/>
<rect x="40" y="32" width="8" height="8" fill="rgb(35,35,35)"/>
<rect x="40" y="40" width="8" height="8" fill="rgb(14,14,14)"/>
<rect x="40" y="48" width="8" height="8" fill="rgb(7,7,7)"/>
<rect x="40" y="56" width="8" height="8" fill="rgb(14,14,14)"/>
<rect x="40" y="64" width="8" height="8" fill="rgb(35,35,35)"/>
<rect x="40" y="72" width="8" height="8" fill="rgb(71,71,71)"/>
<rect x="40" y="80" width="8" height="8" fill="rgb(120,120,120)"/>
<rect x="40" y="88" width="8" height="8" fill="rgb(184,184,184)"/>
<rect x="40" y="96" width="8" height="8" fill="rgb(248,248,248)"/>
<rect x="48" y="0" width="8" height="8" fill="rgba(255,255,255,0)"/>
<rect x="48" y="8" width="8" height="8" fill="rgb(177,177,177)"/>
<rect x="48" y="16" width="8" height="8" fill="rgb(113,113,113)"/>
<rect x="48" y="24" width="8" height="8" fill="rgb(64,64,64)"/>
<rect x="48" y="32" width="8" height="8" fill="rgb(28,28,28)"/>
<rect x="48" y="40" width="8" height="8" fill="rgb(7,7,7)"/>
<rect x="48" y="48" width="8" height="8" fill="rgb(0,0,0)"/>
<rect x="48" y="56" width="8" height="8" fill="rgb(7,7,7)"/>
<rect x="48" y="64" width="8" height="8" fill="rgb(28,28,28)"/>
<rect x="48" y="72" width="8" height="8" fill="rgb(64,64,64)"/>
<rect x="48" y="80" width="8" height="8" fill="rgb(113,113,113)"/>
<rect x="48" y="88" width="8" height="8" fill="rgb(177,177,177)"/>
<rect x="48" y="96" width="8" height="8" fill="rgba(255,255,255,0)"/>
<rect x="56" y="0" width="8" height="8" fill="rgb(248,248,248)"/>
<rect x="56" y="8" width="8" height="8" fill="rgb(184,184,184)"/>
<rect x="56" y="16" width="8" height="8" fill="rgb(120,120,120)"/>
<rect x="56" y="24" width="8" height="8" fill="rgb(71,71,71)"/>
<rect x="56" y="32" width="8" height="8" fill="rgb(35,35,35)"/>
<rect x="56" y="40" width="8" height="8" fill="rgb(14,14,14)"/>
<rect x="56" y="48" width="8" height="8" fill="rgb(7,7,7)"/>
<rect x="56" y="56" width="8" height="8" fill="rgb(14,14,14)"/>
<rect x="56" y="64" width="8" height="8" fill="rgb(35,35,35)"/>
<rect x="56" y="72" width="8" height="8" fill="rgb(71,71,71)"/>
<rect x="56" y="80" width="8" height="8" fill="rgb(120,120,120)"/>
<rect x="56" y="88" width="8" height="8" fill="rgb(184,184,184)"/>
<rect x="56" y="96" width="8" height="8" fill="rgb(248,248,248)"/>
<rect x="64" y="0" width="8" height="8" fill="rgb(227,227,227)"/>
<rect x="64" y="8" width="8" height="8" fill="rgb(205,205,205)"/>
<rect x="64" y="16" width="8" height="8" fill="rgb(142,142,142)"/>
<rect x="64" y="24" width="8" height="8" fill="rgb(92,92,92)"/>
<rect x="64" y="32" width="8" height="8" fill="rgb(57,57,57)"/>
<rect x="64" y="40" width="8" height="8" fill="rgb(35,35,35)"/>
<rect x="64" y="48" width="8" height="8" fill="rgb(28,28,28)"/>
<rect x="64" y="56" width="8" height="8" fill="rgb(35,35,35)"/>
<rect x="64" y="64" width="8" height="8" fill="rgb(57,57,57)"/>
<rect x="64" y="72" width="8" height="8" fill="rgb(92,92,92)"/>
<rect x="64" y="80" width="8" height="8" fill="rgb(142,142,142)"/>
<rect x="64" y="88" width="8" height="8" fill="rgb(205,205,205)"/>
<rect x="64" y="96" width="8" height="8" fill="rgb(227,227,227)"/>
<rect x="72" y="0" width="8" height="8" fill="rgb(191,191,191)"/>
<rect x="72" y="8" width="8" height="8" fill="rgb(241,241,241)"/>
<rect x="72" y="16" width="8" height="8" fill="rgb(177,177,177)"/>
<rect x="72" y="24" width="8" height="8" fill="rgb(127,127,127)"/>
<rect x="72" y="32" width="8" height="8" fill="rgb(92,92,92)"/>
<rect x="72" y="40" width="8" height="8" fill="rgb(71,71,71)"/>
<rect x="72" y="48" width="8" height="8" fill="rgb(64,64,64)"/>
<rect x="72" y="56" width="8" height="8" fill="rgb(71,71,71)"/>
<rect x="72" y="64" width="8" height="8" fill="rgb(92,92,92)"/>
<rect x="72" y="72" width="8" height="8" fill="rgb(127,127,127)"/>
<rect x="72" y="80" width="8" height="8" fill="rgb(177,177,177)"/>
<rect x="72" y="88" width="8" height="8" fill="rgb(241,241,241)"/>
<rect x="72" y="96" width="8" height="8" fill="rgb(191,191,191)"/>
<rect x="80" y="0" width="8" height="8" fill="rgb(142,142,142)"/>
<rect x="80" y="8" width="8" height="8" fill="rgb(220,220,220)"/>
<rect x="80" y="16" width="8" height="8" fill="rgb(227,227,227)"/>
<rect x="80" y="24" width="8" height="8" fill="rgb(177,177,177)"/>
<rect x="80" y="32" width="8" height="8" fill="rgb(142,142,142)"/>
<rect x="80" y="40" width="8" height="8" fill="rgb(120,120,120)"/>
<rect x="80" y="48" width="8" height="8" fill="rgb(113,113,113)"/>
<rect x="80" y="56" width="8" height="8" fill="rgb(120,120,120)"/>
<rect x="80" y="64" width="8" height="8" fill="rgb(142,142,142)"/>
<rect x="80" y="72" width="8" height="8" fill="rgb(177,177,177)"/>
<rect x="80" y="80" width="8" height="8" fill="rgb(227,227,227)"/>
<rect x="80" y="88" width="8" height="8" fill="rgb(220,220,220)"/>
<rect x="80" y="96" width="8" height="8" fill="rgb(142,142,142)"/>
<rect x="88" y="0" width="8" height="8" fill="rgb(78,78,78)"/>
<rect x="88" y="8" width="8" height="8" fill="rgb(156,156,156)"/>
<rect x="88" y="16" width="8" height="8" fill="rgb(220,220,220)"/>
<rect x="88" y="24" width="8" height="8" fill="rgb(241,241,241)"/>
<rect x="88" y="32" width="8" height="8" fill="rgb(205,205,205)"/>
<rect x="88" y="40" width="8" height="8" fill="rgb(184,184,184)"/>
<rect x="88" y="48" width="8" height="8" fill="rgb(177,177,177)"/>
<rect x="88" y="56" width="8" height="8" fill="rgb(184,184,184)"/>
<rect x="88" y="64" width="8" height="8" fill="rgb(205,205,205)"/>
<rect x="88" y="72" width="8" height="8" fill="rgb(241,241,241)"/>
<rect x="88" y="80" width="8" height="8" fill="rgb(220,220,220)"/>
<rect x="88" y="88" width="8" height="8" fill="rgb(156,156,156)"/>
<rect x="88" y="96" width="8" height="8" fill="rgb(78,78,78)"/>
<rect x="96" y="0" width="8" height="8" fill="rgb(0,0,0)"/>
<rect x="96" y="8" width="8" height="8" fill="rgb(78,78,78)"/>
<rect x="96" y="16" width="8" height="8" fill="rgb(142,142,142)"/>
<rect x="96" y="24" width="8" height="8" fill="rgb(191,191,191)"/>
<rect x="96" y="32" width="8" height="8" fill="rgb(227,227,227)"/>
<rect x="96" y="40" width="8" height="8" fill="rgb(248,248,248)"/>
<rect x="96" y="48" width="8" height="8" fill="rgba(255,255,255,0)"/>
<rect x="96" y="56" width="8" height="8" fill="rgb(248,248,248)"/>
<rect x="96" y="64" width="8" height="8" fill="rgb(227,227,227)"/>
<rect x="96" y="72" width="8" height="8" fill="rgb(191,191,191)"/>
<rect x="96" y="80" width="8" height="8" fill="rgb(142,142,142)"/>
<rect x="96" y="88" width="8" height="8" fill="rgb(78,78,78)"/>
<rect x="96" y="96" width="8" height="8" fill="rgb(0,0,0)"/>
</g>
</svg>