<svg xmlns="http://www.w3.org/2000/svg" width="104" height="104" viewBox="0 0 104 104">
<rect x="0" y="0" width="8" height="8" fill="rgb(0,0,0)"/>
<rect x="0" y="8" width="8" height="8" fill="rgb(35,35,35)"/>
<rect x="0" y="16" width="8" height="8" fill="rgb(63,63,63)"/>
<rect x="0" y="24" width="8" height="8" fill="rgb(85,85,85)"/>
<rect x="0" y="32" width="8" height="8" fill="rgb(101,101,101)"/>
<rect x="0" y="40" width="8" height="8" fill="rgb(110,110,110)"/>
<rect x="0" y="48" width="8" height="8" fill="rgb(113,113,113)"/>
<rect x="0" y="56" width="8" height="8" fill="rgb(110,110,110)"/>
<rect x="0" y="64" width="8" height="8" fill="rgb(101,101,101)"/>
<rect x="0" y="72" width="8" height="8" fill="rgb(85,85,85)"/>
<rect x="0" y="80" width="8" height="8" fill="rgb(63,63,63)"/>
<rect x="0" y="88" width="8" height="8" fill="rgb(35,35,35)"/>
<rect x="0" y="96" width="8" height="8" fill="rgb(0,0,0)"/>
<rect x="8" y="0" width="8" height="8" fill="rgb(78,78,78)"/>
<rect x="8" y="8" width="8" height="8" fill="rgb(113,113,113)"/>
<rect x="8" y="16" width="8" height="8" fill="rgb(141,141,141)"/>
<rect x="8" y="24" width="8" height="8" fill="rgb(163,163,163)"/>
<rect x="8" y="32" width="8" height="8" fill="rgb(179,179,179)"/>
<rect x="8" y="40" width="8" height="8" fill="rgb(188,188,188)"/>
<rect x="8" y="48" width="8" height="8" fill="rgb(191,191,191)"/>
<rect x="8" y="56" width="8" height="8" fill="rgb(188,188,188)"/>
<rect x="8" y="64" width="8" height="8" fill="rgb(179,179,179)"/>
<rect x="8" y="72" width="8" height="8" fill="rgb(163,163,163)"/>
<rect x="8" y="80" width="8" height="8" fill="rgb(141,141,141)"/>
<rect x="8" y="88" width="8" height="8" fill="rgb(113,113,113)"/>
<rect x="8" y="96" width="8" height="8" fill="rgb(78,78,78)"/>
<rect x="16" y="0" width="8" height="8" fill="rgb(142,142,142)"/>
<rect x="16" y="8" width="8" height="8" fill="rgb(176,176,176)"/>
<rect x="16" y="16" width="8" height="8" fill="rgb(205,205,205)"/>
<rect x="16" y="24" width="8" height="8" fill="rgb(227,227,227)"/>
<rect x="16" y="32" width="8" height="8" fill="rgb(242,242,242)"/>
<rect x="16" y="40" width="8" height="8" fill="rgb(252,252,252)"/>
<rect x="16" y="56" width="8" height="8" fill="rgb(252,252,252)"/>
<rect x="16" y="64" width="8" height="8" fill="rgb(242,242,242)"/>
<rect x="16" y="72" width="8" height="8" fill="rgb(227,227,227)"/>
<rect x="16" y="80" width="8" height="8" fill="rgb(205,205,205)"/>
<rect x="16" y="88" width="8" height="8" fill="rgb(176,176,176)"/>
<rect x="16" y="96" width="8" height="8" fill="rgb(142,142,142)"/>
<rect x="24" y="0" width="8" height="8" fill="rgb(191,191,191)"/>
<rect x="24" y="8" width="8" height="8" fill="rgb(226,226,226)"/>
<rect x="24" y="16" width="8" height="8" fill="rgb(254,254,254)"/>
<rect x="24" y="24" width="8" height="8" fill="rgb(234,234,234)"/>
<rect x="24" y="32" width="8" height="8" fill="rgb(218,218,218)"/>
<rect x="24" y="40" width="8" height="8" fill="rgb(209,209,209)"/>
<rect x="24" y="48" width="8" height="8" fill="rgb(205,205,205)"/>
<rect x="24" y="56" width="8" height="8" fill="rgb(209,209,209)"/>
<rect x="24" y="64" width="8" height="8" fill="rgb(218,218,218)"/>
<rect x="24" y="72" width="8" height="8" fill="rgb(234,234,234)"/>
<rect x="24" y="80" width="8" height="8" fill="rgb(254,254,254)"/>
<rect x="24" y="88" width="8" height="8" fill="rgb(226,226,226)"/>
<rect x="24" y="96" width="8" height="8" fill="rgb(191,191,191)"/>
<rect x="32" y="0" width="8" height="8" fill="rgb(227,227,227)"/>
<rect x="32" y="8" width="8" height="8" fill="rgb(249,249,249)"/>
<rect x="32" y="16" width="8" height="8" fill="rgb(220,220,220)"/>
<rect x="32" y="24" width="8" height="8" fill="rgb(198,198,198)"/>
<rect x="32" y="32" width="8" height="8" fill="rgb(183,183,183)"/>
<rect x="32" y="40" width="8" height="8" fill="rgb(173,173,173)"/>
<rect x="32" y="48" width="8" height="8" fill="rgb(170,170,170)"/>
<rect x="32" y="56" width="8" height="8" fill="rgb(173,173,173)"/>
<rect x="32" y="64" width="8" height="8" fill="rgb(183,183,183)"/>
<rect x="32" y="72" width="8" height="8" fill="rgb(198,198,198)"/>
<rect x="32" y="80" width="8" height="8" fill="rgb(220,220,220)"/>
<rect x="32" y="88" width="8" height="8" fill="rgb(249,249,249)"/>
<rect x="32" y="96" width="8" height="8" fill="rgb(227,227,227)"/>
<rect x="40" y="0" width="8" height="8" fill="rgb(248,248,248)"/>
<rect x="40" y="8" width="8" height="8" fill="rgb(227,227,227)"/>
<rect x="40" y="16" width="8" height="8" fill="rgb(199,199,199)"/>
<rect x="40" y="24" width="8" height="8" fill="rgb(177,177,177)"/>
<rect x="40" y="32" width="8" height="8" fill="rgb(161,161,161)"/>
<rect x="40" y="40" width="8" height="8" fill="rgb(152,152,152)"/>
<rect x="40" y="48" width="8" height="8" fill="rgb(149,149,149)"/>
<rect x="40" y="56" width="8" height="8" fill="rgb(152,152,152)"/>
<rect x="40" y="64" width="8" height="8" fill="rgb(161,161,161)"/>
<rect x="40" y="72" width="8" height="8" fill="rgb(177,177,177)"/>
<rect x="40" y="80" width="8" height="8" fill="rgb(199,199,199)"/>
<rect x="40" y="88" width="8" height="8" fill="rgb(227,227,227)"/>
<rect x="40" y="96" width="8" height="8" fill="rgb(248,248,248)"/>
<rect x="48" y="8" width="8" height="8" fill="rgb(220,220,220)"/>
<rect x="48" y="16" width="8" height="8" fill="rgb(192,192,192)"/>
<rect x="48" y="24" width="8" height="8" fill="rgb(170,170,170)"/>
<rect x="48" y="32" width="8" height="8" fill="rgb(154,154,154)"/>
<rect x="48" y="40" width="8" height="8" fill="rgb(145,145,145)"/>
<rect x="48" y="48" width="8" height="8" fill="rgb(142,142,142)"/>
<rect x="48" y="56" width="8" height="8" fill="rgb(145,145,145)"/>
<rect x="48" y="64" width="8" height="8" fill="rgb(154,154,154)"/>
<rect x="48" y="72" width="8" height="8" fill="rgb(170,170,170)"/>
<rect x="48" y="80" width="8" height="8" fill="rgb(192,192,192)"/>
<rect x="48" y="88" width="8" height="8" fill="rgb(220,220,220)"/>
<rect x="56" y="0" width="8" height="8" fill="rgb(248,248,248)"/>
<rect x="56" y="8" width="8" height="8" fill="rgb(227,227,227)"/>
<rect x="56" y="16" width="8" height="8" fill="rgb(199,199,199)"/>
<rect x="56" y="24" width="8" height="8" fill="rgb(177,177,177)"/>
<rect x="56" y="32" width="8" height="8" fill="rgb(161,161,161)"/>
<rect x="56" y="40" width="8" height="8" fill="rgb(152,152,152)"/>
<rect x="56" y="48" width="8" height="8" fill="rgb(149,149,149)"/>
<rect x="56" y="56" width="8" height="8" fill="rgb(152,152,152)"/>
<rect x="56" y="64" width="8" height="8" fill="rgb(161,161,161)"/>
<rect x="56" y="72" width="8" height="8" fill="rgb(177,177,177)"/>
<rect x="56" y="80" width="8" height="8" fill="rgb(199,199,199)"/>
<rect x="56" y="88" width="8" height="8" fill="rgb(227,227,227)"/>
<rect x="56" y="96" width="8" height="8" fill="rgb(248,248,248)"/>
<rect x="64" y="0" width="8" height="8" fill="rgb(227,227,227)"/>
<rect x="64" y="8" width="8" height="8" fill="rgb(249,249,249)"/>
<rect x="64" y="16" width="8" height="8" fill="rgb(220,220,220)"/>
<rect x="64" y="24" width="8" height="8" fill="rgb(198,198,198)"/>
<rect x="64" y="32" width="8" height="8" fill="rgb(183,183,183)"/>
<rect x="64" y="40" width="8" height="8" fill="rgb(173,173,173)"/>
<rect x="64" y="48" width="8" height="8" fill="rgb(170,170,170)"/>
<rect x="64" y="56" width="8" height="8" fill="rgb(173,173,173)"/>
<rect x="64" y="64" width="8" height="8" fill="rgb(183,183,183)"/>
<rect x="64" y="72" width="8" height="8" fill="rgb(198,198,198)"/>
<rect x="64" y="80" width="8" height="8" fill="rgb(220,220,220)"/>
<rect x="64" y="88" width="8" height="8" fill="rgb(249,249,249)"/>
<rect x="64" y="96" width="8" height="8" fill="rgb(227,227,227)"/>
<rect x="72" y="0" width="8" height="8" fill="rgb(191,191,191)"/>
<rect x="72" y="8" width="8" height="8" fill="rgb(226,226,226)"/>
<rect x="72" y="16" width="8" height="8" fill="rgb(254,254,254)"/>
<rect x="72" y="24" width="8" height="8" fill="rgb(234,234,234)"/>
<rect x="72" y="32" width="8" height="8" fill="rgb(218,218,218)"/>
<rect x="72" y="40" width="8" height="8" fill="rgb(209,209,209)"/>
<rect x="72" y="48" width="8" height="8" fill="rgb(205,205,205)"/>
<rect x="72" y="56" width="8" height="8" fill="rgb(209,209,209)"/>
<rect x="72" y="64" width="8" height="8" fill="rgb(218,218,218)"/>
<rect x="72" y="72" width="8" height="8" fill="rgb(234,234,234)"/>
<rect x="72" y="80" width="8" height="8" fill="rgb(254,254,254)"/>
<rect x="72" y="88" width="8" height="8" fill="rgb(226,226,226)"/>
<rect x="72" y="96" width="8" height="8" fill="rgb(191,191,191)"/>
<rect x="80" y="0" width="8" height="8" fill="rgb(142,142,142)"/>
<rect x="80" y="8" width="8" height="8" fill="rgb(176,176,176)"/>
<rect x="80" y="16" width="8" height="8" fill="rgb(205,205,205)"/>
<rect x="80" y="24" width="8" height="8" fill="rgb(227,227,227)"/>
<rect x="80" y="32" width="8" height="8" fill="rgb(242,242,242)"/>
<rect x="80" y="40" width="8" height="8" fill="rgb(252,252,252)"/>
<rect x="80" y="56" width="8" height="8" fill="rgb(252,252,252)"/>
<rect x="80" y="64" width="8" height="8" fill="rgb(242,242,242)"/>
<rect x="80" y="72" width="8" height="8" fill="rgb(227,227,227)"/>
<rect x="80" y="80" width="8" height="8" fill="rgb(205,205,205)"/>
<rect x="80" y="88" width="8" height="8" fill="rgb(176,176,176)"/>
<rect x="80" y="96" width="8" height="8" fill="rgb(142,142,142)"/>
<rect x="88" y="0" width="8" height="8" fill="rgb(78,78,78)"/>
<rect x="88" y="8" width="8" height="8" fill="rgb(113,113,113)"/>
<rect x="88" y="16" width="8" height="8" fill="rgb(141,141,141)"/>
<rect x="88" y="24" width="8" height="8" fill="rgb(163,163,163)"/>
<rect x="88" y="32" width="8" height="8" fill="rgb(179,179,179)"/>
<rect x="88" y="40" width="8" height="8" fill="rgb(188,188,188)"/>
<rect x="88" y="48" width="8" height="8" fill="rgb(191,191,191)"/>
<rect x="88" y="56" width="8" height="8" fill="rgb(188,188,188)"/>
<rect x="88" y="64" width="8" height="8" fill="rgb(179,179,179)"/>
<rect x="88" y="72" width="8" height="8" fill="rgb(163,163,163)"/>
<rect x="88" y="80" width="8" height="8" fill="rgb(141,141,141)"/>
<rect x="88" y="88" width="8" height="8" fill="rgb(113,113,113)"/>
<rect x="88" y="96" width="8" height="8" fill="rgb(78,78,78)"/>
<rect x="96" y="0" width="8" height="8" fill="rgb(0,0,0)"/>
<rect x="96" y="8" width="8" height="8" fill="rgb(35,35,35)"/>
<rect x="96" y="16" width="8" height="8" fill="rgb(63,63,63)"/>
<rect x="96" y="24" width="8" height="8" fill="rgb(85,85,85)"/>
<rect x="96" y="32" width="8" height="8" fill="rgb(101,101,101)"/>
<rect x="96" y="40" width="8" height="8" fill="rgb(110,110,110)"/>
<rect x="96" y="48" width="8" height="8" fill="rgb(113,113,113)"/>
<rect x="96" y="56" width="8" height="8" fill="rgb(110,110,110)"/>
<rect x="96" y="64" width="8" height="8" fill="rgb(101,101,101)"/>
<rect x="96" y="72" width="8" height="8" fill="rgb(85,85,85)"/>
<rect x="96" y="80" width="8" height="8" fill="rgb(63,63,63)"/>
<rect x="96" y="88" width="8" height="8" fill="rgb(35,35,35)"/>
<rect x="96" y="96" width="8" height="8" fill="rgb(0,0,0)"/>
</svg>