<svg xmlns="http://www.w3.org/2000/svg" width="161.8" height="100.0" viewBox="-3.37 -5.00 171.80 110.00">
<g fill="none" stroke="black" stroke-width="0.1250%" transform="translate(0, 100.0000) scale(4.0000, -4.0000)">
<circle cx="0.41" cy="0.00" r="0.13" />


<line x1="1.23" y1="0.00" x2="1.23" y2="1.00" />
<line x1="1.63" y1="0.00" x2="1.63" y2="2.00" />

<line x1="2.45" y1="0.00" x2="2.45" y2="3.00" />

<line x1="3.27" y1="0.00" x2="3.27" y2="4.00" />



<line x1="4.90" y1="0.00" x2="4.90" y2="5.00" />

<line x1="5.72" y1="0.00" x2="5.72" y2="6.00" />



<line x1="7.35" y1="0.00" x2="7.35" y2="7.00" />

<line x1="8.17" y1="0.00" x2="8.17" y2="8.00" />



<line x1="9.81" y1="0.00" x2="9.81" y2="9.00" />





<line x1="12.26" y1="0.00" x2="12.26" y2="10.00" />

<line x1="13.08" y1="0.00" x2="13.08" y2="11.00" />





<line x1="15.53" y1="0.00" x2="15.53" y2="12.00" />



<line x1="17.16" y1="0.00" x2="17.16" y2="13.00" />

<line x1="17.98" y1="0.00" x2="17.98" y2="14.00" />



<line x1="19.61" y1="0.00" x2="19.61" y2="15.00" />





<line x1="22.06" y1="0.00" x2="22.06" y2="16.00" />





<line x1="24.52" y1="0.00" x2="24.52" y2="17.00" />

<line x1="25.33" y1="0.00" x2="25.33" y2="18.00" />





<line x1="27.78" y1="0.00" x2="27.78" y2="19.00" />



<line x1="29.42" y1="0.00" x2="29.42" y2="20.00" />

<line x1="30.24" y1="0.00" x2="30.24" y2="21.00" />





<line x1="32.69" y1="0.00" x2="32.69" y2="22.00" />



<line x1="34.32" y1="0.00" x2="34.32" y2="23.00" />





<line x1="36.77" y1="0.00" x2="36.77" y2="24.00" />







<line x1="40.04" y1="0.00" x2="40.04" y2="25.00" />


</g>
</svg>