<svg xmlns="http://www.w3.org/2000/svg" width="161.8" height="100.0" viewBox="-3.80 -5.00 171.80 110.00">
<g fill="none" stroke="black" stroke-width="0.0657%" transform="translate(0, 100.0000) scale(7.6085, -7.6085)">
<circle cx="0.16" cy="0.00" r="0.07" />
<circle cx="0.32" cy="0.69" r="0.07" />
<circle cx="0.47" cy="1.10" r="0.07" />
<circle cx="0.63" cy="1.79" r="0.07" />
<circle cx="0.79" cy="1.61" r="0.07" />
<circle cx="0.95" cy="2.30" r="0.07" />
<circle cx="1.10" cy="2.71" r="0.07" />
<circle cx="1.26" cy="3.40" r="0.07" />
<circle cx="1.42" cy="1.95" r="0.07" />
<circle cx="1.58" cy="2.64" r="0.07" />
<circle cx="1.73" cy="3.04" r="0.07" />
<circle cx="1.89" cy="3.74" r="0.07" />
<circle cx="2.05" cy="3.56" r="0.07" />
<circle cx="2.21" cy="4.25" r="0.07" />
<circle cx="2.36" cy="4.65" r="0.07" />
<circle cx="2.52" cy="5.35" r="0.07" />
<circle cx="2.68" cy="2.40" r="0.07" />
<circle cx="2.84" cy="3.09" r="0.07" />
<circle cx="2.99" cy="3.50" r="0.07" />
<circle cx="3.15" cy="4.19" r="0.07" />
<circle cx="3.31" cy="4.01" r="0.07" />
<circle cx="3.47" cy="4.70" r="0.07" />
<circle cx="3.62" cy="5.11" r="0.07" />
<circle cx="3.78" cy="5.80" r="0.07" />
<circle cx="3.94" cy="4.34" r="0.07" />
<circle cx="4.10" cy="5.04" r="0.07" />
<circle cx="4.25" cy="5.44" r="0.07" />
<circle cx="4.41" cy="6.14" r="0.07" />
<circle cx="4.57" cy="5.95" r="0.07" />
<circle cx="4.73" cy="6.65" r="0.07" />
<circle cx="4.88" cy="7.05" r="0.07" />
<circle cx="5.04" cy="7.75" r="0.07" />
<circle cx="5.20" cy="2.56" r="0.07" />
<circle cx="5.36" cy="3.26" r="0.07" />
<circle cx="5.51" cy="3.66" r="0.07" />
<circle cx="5.67" cy="4.36" r="0.07" />
<circle cx="5.83" cy="4.17" r="0.07" />
<circle cx="5.99" cy="4.87" r="0.07" />
<circle cx="6.14" cy="5.27" r="0.07" />
<circle cx="6.30" cy="5.97" r="0.07" />
<circle cx="6.46" cy="4.51" r="0.07" />
<circle cx="6.62" cy="5.20" r="0.07" />
<circle cx="6.77" cy="5.61" r="0.07" />
<circle cx="6.93" cy="6.30" r="0.07" />
<circle cx="7.09" cy="6.12" r="0.07" />
<circle cx="7.25" cy="6.81" r="0.07" />
<circle cx="7.40" cy="7.22" r="0.07" />
<circle cx="7.56" cy="7.91" r="0.07" />
<circle cx="7.72" cy="4.96" r="0.07" />
<circle cx="7.88" cy="5.66" r="0.07" />
<circle cx="8.03" cy="6.06" r="0.07" />
<circle cx="8.19" cy="6.75" r="0.07" />
<circle cx="8.35" cy="6.57" r="0.07" />
<circle cx="8.51" cy="7.27" r="0.07" />
<circle cx="8.66" cy="7.67" r="0.07" />
<circle cx="8.82" cy="8.36" r="0.07" />
<circle cx="8.98" cy="6.91" r="0.07" />
<circle cx="9.14" cy="7.60" r="0.07" />
<circle cx="9.29" cy="8.01" r="0.07" />
<circle cx="9.45" cy="8.70" r="0.07" />
<circle cx="9.61" cy="8.52" r="0.07" />
<circle cx="9.77" cy="9.21" r="0.07" />
<circle cx="9.92" cy="9.62" r="0.07" />
<circle cx="10.08" cy="10.31" r="0.07" />
<circle cx="10.24" cy="2.83" r="0.07" />
<circle cx="10.40" cy="3.53" r="0.07" />
<circle cx="10.55" cy="3.93" r="0.07" />
<circle cx="10.71" cy="4.62" r="0.07" />
<circle cx="10.87" cy="4.44" r="0.07" />
<circle cx="11.03" cy="5.14" r="0.07" />
<circle cx="11.18" cy="5.54" r="0.07" />
<circle cx="11.34" cy="6.23" r="0.07" />
<circle cx="11.50" cy="4.78" r="0.07" />
<circle cx="11.66" cy="5.47" r="0.07" />
<circle cx="11.81" cy="5.88" r="0.07" />
<circle cx="11.97" cy="6.57" r="0.07" />
<circle cx="12.13" cy="6.39" r="0.07" />
<circle cx="12.29" cy="7.08" r="0.07" />
<circle cx="12.44" cy="7.49" r="0.07" />
<circle cx="12.60" cy="8.18" r="0.07" />
<circle cx="12.76" cy="5.23" r="0.07" />
<circle cx="12.92" cy="5.92" r="0.07" />
<circle cx="13.07" cy="6.33" r="0.07" />
<circle cx="13.23" cy="7.02" r="0.07" />
<circle cx="13.39" cy="6.84" r="0.07" />
<circle cx="13.55" cy="7.53" r="0.07" />
<circle cx="13.70" cy="7.94" r="0.07" />
<circle cx="13.86" cy="8.63" r="0.07" />
<circle cx="14.02" cy="7.18" r="0.07" />
<circle cx="14.18" cy="7.87" r="0.07" />
<circle cx="14.33" cy="8.28" r="0.07" />
<circle cx="14.49" cy="8.97" r="0.07" />
<circle cx="14.65" cy="8.79" r="0.07" />
<circle cx="14.81" cy="9.48" r="0.07" />
<circle cx="14.97" cy="9.89" r="0.07" />
<circle cx="15.12" cy="10.58" r="0.07" />
<circle cx="15.28" cy="5.40" r="0.07" />
<circle cx="15.44" cy="6.09" r="0.07" />
<circle cx="15.60" cy="6.50" r="0.07" />
<circle cx="15.75" cy="7.19" r="0.07" />
<circle cx="15.91" cy="7.01" r="0.07" />
<circle cx="16.07" cy="7.70" r="0.07" />
<circle cx="16.23" cy="8.11" r="0.07" />
<circle cx="16.38" cy="8.80" r="0.07" />
<circle cx="16.54" cy="7.34" r="0.07" />
<circle cx="16.70" cy="8.04" r="0.07" />
<circle cx="16.86" cy="8.44" r="0.07" />
<circle cx="17.01" cy="9.14" r="0.07" />
<circle cx="17.17" cy="8.95" r="0.07" />
<circle cx="17.33" cy="9.65" r="0.07" />
<circle cx="17.49" cy="10.05" r="0.07" />
<circle cx="17.64" cy="10.75" r="0.07" />
<circle cx="17.80" cy="7.80" r="0.07" />
<circle cx="17.96" cy="8.49" r="0.07" />
<circle cx="18.12" cy="8.89" r="0.07" />
<circle cx="18.27" cy="9.59" r="0.07" />
<circle cx="18.43" cy="9.41" r="0.07" />
<circle cx="18.59" cy="10.10" r="0.07" />
<circle cx="18.75" cy="10.50" r="0.07" />
<circle cx="18.90" cy="11.20" r="0.07" />
<circle cx="19.06" cy="9.74" r="0.07" />
<circle cx="19.22" cy="10.44" r="0.07" />
<circle cx="19.38" cy="10.84" r="0.07" />
<circle cx="19.53" cy="11.53" r="0.07" />
<circle cx="19.69" cy="11.35" r="0.07" />
<circle cx="19.85" cy="12.04" r="0.07" />
<circle cx="20.01" cy="12.45" r="0.07" />
<circle cx="20.16" cy="13.14" r="0.07" />
<circle cx="20.32" cy="2.94" r="0.07" />
<circle cx="20.48" cy="3.64" r="0.07" />
<circle cx="20.64" cy="4.04" r="0.07" />
<circle cx="20.79" cy="4.74" r="0.07" />
<circle cx="20.95" cy="4.55" r="0.07" />
<circle cx="21.11" cy="5.25" r="0.07" />
<circle cx="21.27" cy="5.65" r="0.07" />
<circle cx="21.42" cy="6.35" r="0.07" />
</g>
</svg>