<svg xmlns="http://www.w3.org/2000/svg" width="160.9" height="100.0" viewBox="-3 -5 171 110">
<g fill="none" stroke="black" stroke-width="1.7650%" transform="translate(0, 100.0000) scale(0.2833, -0.2833)">
<line x1="8" y1="0" x2="8" y2="2" />
<line x1="16" y1="0" x2="16" y2="5" />
<line x1="24" y1="0" x2="24" y2="4" />
<line x1="32" y1="0" x2="32" y2="12" />
<line x1="40" y1="0" x2="40" y2="6" />
<line x1="48" y1="0" x2="48" y2="9" />
<line x1="56" y1="0" x2="56" y2="23" />
<line x1="64" y1="0" x2="64" y2="11" />
<line x1="72" y1="0" x2="72" y2="27" />
<line x1="80" y1="0" x2="80" y2="34" />
<line x1="88" y1="0" x2="88" y2="22" />
<line x1="96" y1="0" x2="96" y2="10" />
<line x1="104" y1="0" x2="104" y2="33" />
<line x1="112" y1="0" x2="112" y2="15" />
<line x1="120" y1="0" x2="120" y2="37" />
<line x1="128" y1="0" x2="128" y2="44" />
<line x1="136" y1="0" x2="136" y2="28" />
<line x1="144" y1="0" x2="144" y2="80" />
<line x1="152" y1="0" x2="152" y2="19" />
<line x1="160" y1="0" x2="160" y2="81" />
<line x1="168" y1="0" x2="168" y2="14" />
<line x1="176" y1="0" x2="176" y2="107" />
<line x1="184" y1="0" x2="184" y2="89" />
<line x1="192" y1="0" x2="192" y2="64" />
<line x1="200" y1="0" x2="200" y2="16" />
<line x1="208" y1="0" x2="208" y2="82" />
<line x1="216" y1="0" x2="216" y2="60" />
<line x1="224" y1="0" x2="224" y2="53" />
<line x1="232" y1="0" x2="232" y2="138" />
<line x1="240" y1="0" x2="240" y2="25" />
<line x1="248" y1="0" x2="248" y2="114" />
<line x1="256" y1="0" x2="256" y2="148" />
<line x1="264" y1="0" x2="264" y2="136" />
<line x1="272" y1="0" x2="272" y2="42" />
<line x1="280" y1="0" x2="280" y2="104" />
<line x1="288" y1="0" x2="288" y2="115" />
<line x1="296" y1="0" x2="296" y2="63" />
<line x1="304" y1="0" x2="304" y2="20" />
<line x1="312" y1="0" x2="312" y2="143" />
<line x1="320" y1="0" x2="320" y2="29" />
<line x1="328" y1="0" x2="328" y2="179" />
<line x1="336" y1="0" x2="336" y2="67" />
<line x1="344" y1="0" x2="344" y2="109" />
<line x1="352" y1="0" x2="352" y2="48" />
<line x1="360" y1="0" x2="360" y2="208" />
<line x1="368" y1="0" x2="368" y2="235" />
<line x1="376" y1="0" x2="376" y2="52" />
<line x1="384" y1="0" x2="384" y2="118" />
<line x1="392" y1="0" x2="392" y2="86" />
<line x1="400" y1="0" x2="400" y2="24" />
<line x1="408" y1="0" x2="408" y2="77" />
<line x1="416" y1="0" x2="416" y2="125" />
<line x1="424" y1="0" x2="424" y2="35" />
<line x1="432" y1="0" x2="432" y2="194" />
<line x1="440" y1="0" x2="440" y2="154" />
<line x1="448" y1="0" x2="448" y2="149" />
<line x1="456" y1="0" x2="456" y2="106" />
<line x1="464" y1="0" x2="464" y2="58" />
<line x1="472" y1="0" x2="472" y2="26" />
<line x1="480" y1="0" x2="480" y2="135" />
<line x1="488" y1="0" x2="488" y2="96" />
<line x1="496" y1="0" x2="496" y2="353" />
<line x1="504" y1="0" x2="504" y2="87" />
<line x1="512" y1="0" x2="512" y2="39" />
<line x1="520" y1="0" x2="520" y2="62" />
<line x1="528" y1="0" x2="528" y2="317" />
<line x1="536" y1="0" x2="536" y2="215" />
<line x1="544" y1="0" x2="544" y2="318" />
<line x1="552" y1="0" x2="552" y2="295" />
<line x1="560" y1="0" x2="560" y2="246" />
<line x1="568" y1="0" x2="568" y2="333" />
<line x1="576" y1="0" x2="576" y2="207" />
</g>
</svg>