<svg xmlns="http://www.w3.org/2000/svg" width="161.8" height="100.0" viewBox="-2 -5 172 110">
<g fill="none" stroke="black" stroke-width="16.6350%" transform="translate(0, 100.0000) scale(0.0301, -0.0301)">
<line x1="84" y1="0" x2="84" y2="1" />
<line x1="168" y1="0" x2="168" y2="3" />
<line x1="252" y1="0" x2="252" y2="7" />
<line x1="336" y1="0" x2="336" y2="13" />
<line x1="420" y1="0" x2="420" y2="19" />
<line x1="505" y1="0" x2="505" y2="27" />
<line x1="589" y1="0" x2="589" y2="39" />
<line x1="673" y1="0" x2="673" y2="49" />
<line x1="757" y1="0" x2="757" y2="63" />
<line x1="841" y1="0" x2="841" y2="79" />
<line x1="925" y1="0" x2="925" y2="91" />
<line x1="1009" y1="0" x2="1009" y2="109" />
<line x1="1093" y1="0" x2="1093" y2="133" />
<line x1="1177" y1="0" x2="1177" y2="147" />
<line x1="1261" y1="0" x2="1261" y2="181" />
<line x1="1345" y1="0" x2="1345" y2="207" />
<line x1="1429" y1="0" x2="1429" y2="223" />
<line x1="1514" y1="0" x2="1514" y2="253" />
<line x1="1598" y1="0" x2="1598" y2="289" />
<line x1="1682" y1="0" x2="1682" y2="307" />
<line x1="1766" y1="0" x2="1766" y2="349" />
<line x1="1850" y1="0" x2="1850" y2="387" />
<line x1="1934" y1="0" x2="1934" y2="399" />
<line x1="2018" y1="0" x2="2018" y2="459" />
<line x1="2102" y1="0" x2="2102" y2="481" />
<line x1="2186" y1="0" x2="2186" y2="529" />
<line x1="2270" y1="0" x2="2270" y2="567" />
<line x1="2354" y1="0" x2="2354" y2="613" />
<line x1="2439" y1="0" x2="2439" y2="649" />
<line x1="2523" y1="0" x2="2523" y2="709" />
<line x1="2607" y1="0" x2="2607" y2="763" />
<line x1="2691" y1="0" x2="2691" y2="807" />
<line x1="2775" y1="0" x2="2775" y2="843" />
<line x1="2859" y1="0" x2="2859" y2="927" />
<line x1="2943" y1="0" x2="2943" y2="949" />
<line x1="3027" y1="0" x2="3027" y2="1009" />
<line x1="3111" y1="0" x2="3111" y2="1093" />
<line x1="3195" y1="0" x2="3195" y2="1111" />
<line x1="3279" y1="0" x2="3279" y2="1189" />
<line x1="3363" y1="0" x2="3363" y2="1261" />
<line x1="3448" y1="0" x2="3448" y2="1321" />
<line x1="3532" y1="0" x2="3532" y2="1359" />
<line x1="3616" y1="0" x2="3616" y2="1471" />
<line x1="3700" y1="0" x2="3700" y2="1483" />
<line x1="3784" y1="0" x2="3784" y2="1579" />
<line x1="3868" y1="0" x2="3868" y2="1693" />
<line x1="3952" y1="0" x2="3952" y2="1719" />
<line x1="4036" y1="0" x2="4036" y2="1807" />
<line x1="4120" y1="0" x2="4120" y2="1899" />
<line x1="4204" y1="0" x2="4204" y2="1933" />
<line x1="4288" y1="0" x2="4288" y2="2023" />
<line x1="4373" y1="0" x2="4373" y2="2161" />
<line x1="4457" y1="0" x2="4457" y2="2187" />
<line x1="4541" y1="0" x2="4541" y2="2269" />
<line x1="4625" y1="0" x2="4625" y2="2367" />
<line x1="4709" y1="0" x2="4709" y2="2479" />
<line x1="4793" y1="0" x2="4793" y2="2533" />
<line x1="4877" y1="0" x2="4877" y2="2703" />
<line x1="4961" y1="0" x2="4961" y2="2739" />
<line x1="5045" y1="0" x2="5045" y2="2799" />
<line x1="5129" y1="0" x2="5129" y2="2967" />
<line x1="5213" y1="0" x2="5213" y2="3019" />
<line x1="5297" y1="0" x2="5297" y2="3147" />
<line x1="5382" y1="0" x2="5382" y2="3199" />
<line x1="5466" y1="0" x2="5466" y2="3327" />
</g>
</svg>