<svg xmlns="http://www.w3.org/2000/svg" width="161.7" height="100.0" viewBox="-2 -5 172 110">
<g fill="none" stroke="black" stroke-width="7.0050%" transform="translate(0, 100.0000) scale(0.0714, -0.0714)">
<line x1="35" y1="0" x2="35" y2="1" />
<line x1="71" y1="0" x2="71" y2="3" />
<line x1="106" y1="0" x2="106" y2="5" />
<line x1="142" y1="0" x2="142" y2="9" />
<line x1="177" y1="0" x2="177" y2="11" />
<line x1="212" y1="0" x2="212" y2="17" />
<line x1="248" y1="0" x2="248" y2="21" />
<line x1="283" y1="0" x2="283" y2="29" />
<line x1="319" y1="0" x2="319" y2="33" />
<line x1="354" y1="0" x2="354" y2="41" />
<line x1="389" y1="0" x2="389" y2="47" />
<line x1="425" y1="0" x2="425" y2="57" />
<line x1="460" y1="0" x2="460" y2="59" />
<line x1="496" y1="0" x2="496" y2="77" />
<line x1="531" y1="0" x2="531" y2="81" />
<line x1="566" y1="0" x2="566" y2="101" />
<line x1="602" y1="0" x2="602" y2="107" />
<line x1="637" y1="0" x2="637" y2="117" />
<line x1="672" y1="0" x2="672" y2="131" />
<line x1="708" y1="0" x2="708" y2="149" />
<line x1="743" y1="0" x2="743" y2="153" />
<line x1="779" y1="0" x2="779" y2="173" />
<line x1="814" y1="0" x2="814" y2="191" />
<line x1="849" y1="0" x2="849" y2="209" />
<line x1="885" y1="0" x2="885" y2="213" />
<line x1="920" y1="0" x2="920" y2="239" />
<line x1="956" y1="0" x2="956" y2="257" />
<line x1="991" y1="0" x2="991" y2="273" />
<line x1="1026" y1="0" x2="1026" y2="281" />
<line x1="1062" y1="0" x2="1062" y2="321" />
<line x1="1097" y1="0" x2="1097" y2="329" />
<line x1="1133" y1="0" x2="1133" y2="359" />
<line x1="1168" y1="0" x2="1168" y2="371" />
<line x1="1203" y1="0" x2="1203" y2="401" />
<line x1="1239" y1="0" x2="1239" y2="417" />
<line x1="1274" y1="0" x2="1274" y2="441" />
<line x1="1310" y1="0" x2="1310" y2="453" />
<line x1="1345" y1="0" x2="1345" y2="497" />
<line x1="1380" y1="0" x2="1380" y2="509" />
<line x1="1416" y1="0" x2="1416" y2="539" />
<line x1="1451" y1="0" x2="1451" y2="569" />
<line x1="1487" y1="0" x2="1487" y2="611" />
<line x1="1522" y1="0" x2="1522" y2="621" />
<line x1="1557" y1="0" x2="1557" y2="647" />
<line x1="1593" y1="0" x2="1593" y2="671" />
<line x1="1628" y1="0" x2="1628" y2="717" />
<line x1="1664" y1="0" x2="1664" y2="731" />
<line x1="1699" y1="0" x2="1699" y2="779" />
<line x1="1734" y1="0" x2="1734" y2="801" />
<line x1="1770" y1="0" x2="1770" y2="839" />
<line x1="1805" y1="0" x2="1805" y2="869" />
<line x1="1841" y1="0" x2="1841" y2="917" />
<line x1="1876" y1="0" x2="1876" y2="929" />
<line x1="1911" y1="0" x2="1911" y2="989" />
<line x1="1947" y1="0" x2="1947" y2="1001" />
<line x1="1982" y1="0" x2="1982" y2="1053" />
<line x1="2017" y1="0" x2="2017" y2="1067" />
<line x1="2053" y1="0" x2="2053" y2="1121" />
<line x1="2088" y1="0" x2="2088" y2="1173" />
<line x1="2124" y1="0" x2="2124" y2="1199" />
<line x1="2159" y1="0" x2="2159" y2="1211" />
<line x1="2194" y1="0" x2="2194" y2="1277" />
<line x1="2230" y1="0" x2="2230" y2="1331" />
<line x1="2265" y1="0" x2="2265" y2="1391" />
<line x1="2301" y1="0" x2="2301" y2="1401" />
</g>
</svg>