<svg xmlns="http://www.w3.org/2000/svg" width="161.80" height="100.00" viewBox="-1.70 -21.67 171.80 110.00">
<g fill="none" stroke="black" stroke-width="0.09%" transform="translate(0, 66.67) scale(5.56, -5.56)">
<circle cx="0.59" cy="0.00" r="0.09" />
<polyline points="0.59,0.00 1.19,-1.00 1.78,-2.00 2.38,-2.00 2.97,-2.00 3.57,-3.00 4.16,-3.00 4.76,-3.00 5.35,-3.00 5.94,-3.00 6.54,-3.00 7.13,-3.00 7.73,-3.00 8.32,-3.00 8.92,-2.00 9.51,-2.00 10.10,-2.00 10.70,-2.00 11.29,-1.00 11.89,-1.00 12.48,-1.00 13.08,0.00 13.67,0.00 14.27,0.00 14.86,1.00 15.45,1.00 16.05,2.00 16.64,2.00 17.24,2.00 17.83,3.00 18.43,3.00 19.02,4.00 19.61,4.00 20.21,5.00 20.80,6.00 21.40,6.00 21.99,7.00 22.59,7.00 23.18,8.00 23.78,8.00 24.37,9.00 24.96,10.00 25.56,10.00 26.15,11.00 26.75,12.00 27.34,12.00 27.94,13.00 28.53,14.00 29.12,14.00 29.72,15.00" />
</g>
</svg>