<svg xmlns="http://www.w3.org/2000/svg" width="161.8" height="100.0" viewBox="-4.187 -5.000 171.803 110.000">
<g fill="none" stroke="black" stroke-width="0.0100%" transform="translate(0, 100.0000) scale(50.0000, -50.0000)">









<line x1="0.163" y1="0.000" x2="0.163" y2="1.000" />









<line x1="0.325" y1="0.000" x2="0.325" y2="1.000" />









<line x1="0.488" y1="0.000" x2="0.488" y2="1.000" />









<line x1="0.650" y1="0.000" x2="0.650" y2="1.000" />









<line x1="0.813" y1="0.000" x2="0.813" y2="1.000" />









<line x1="0.976" y1="0.000" x2="0.976" y2="1.000" />









<line x1="1.138" y1="0.000" x2="1.138" y2="1.000" />









<line x1="1.301" y1="0.000" x2="1.301" y2="1.000" />









<line x1="1.464" y1="0.000" x2="1.464" y2="1.000" />









<line x1="1.626" y1="0.000" x2="1.626" y2="2.000" />









<line x1="1.789" y1="0.000" x2="1.789" y2="1.000" />









<line x1="1.951" y1="0.000" x2="1.951" y2="1.000" />









<line x1="2.114" y1="0.000" x2="2.114" y2="1.000" />









<line x1="2.277" y1="0.000" x2="2.277" y2="1.000" />









<line x1="2.439" y1="0.000" x2="2.439" y2="1.000" />









<line x1="2.602" y1="0.000" x2="2.602" y2="1.000" />









<line x1="2.764" y1="0.000" x2="2.764" y2="1.000" />









<line x1="2.927" y1="0.000" x2="2.927" y2="1.000" />









<line x1="3.090" y1="0.000" x2="3.090" y2="1.000" />









<line x1="3.252" y1="0.000" x2="3.252" y2="2.000" />
</g>
</svg>