<svg xmlns="http://www.w3.org/2000/svg" width="161.8" height="100.0" viewBox="-3 -4 172 110">
<g fill="none" stroke="black" stroke-width="2.7000%" transform="translate(0, 101.4815) scale(0.1852, -0.1852)">
<polyline points="9,4 18,4 18,6 26,6 26,9 35,9 35,12 44,12 44,15 53,15 53,18 62,18 62,21 71,21 71,26 79,26 79,30 88,30 88,34 97,34 97,39 106,39 106,42 115,42 115,45 124,45 124,50 132,50 132,56 141,56 141,60 150,60 150,64 159,64 159,69 168,69 168,72 177,72 177,76 185,76 185,81 194,81 194,86 203,86 203,93 212,93 212,99 221,99 221,102 229,102 229,105 238,105 238,108 247,108 247,111 256,111 256,120 265,120 265,129 274,129 274,134 282,134 282,138 291,138 291,144 300,144 300,150 309,150 309,154 318,154 318,160 327,160 327,165 335,165 335,170 344,170 344,176 353,176 353,180 362,180 362,186 371,186 371,192 380,192 380,195 388,195 388,198 397,198 397,205 406,205 406,217 415,217 415,225 424,225 424,228 432,228 432,231 441,231 441,236 450,236 450,240 459,240 459,246 468,246 468,254 477,254 477,260 485,260 485,266 494,266 494,270 503,270 503,274 512,274 512,279 521,279 521,282 530,282 530,288 538,288 538,300 547,300 547,309 556,309 556,312 565,312 565,315 574,315 574,324 582,324 582,334 591,334 591,342 600,342 600,348 609,348 609,351 618,351 618,356 627,356 627,363 635,363 635,370 644,370 644,376 653,376 653,381 662,381 662,386 671,386 671,393 680,393 680,399 688,399 688,405 697,405 697,414 706,414 706,420 715,420 715,426 724,426 724,432 733,432 733,436 741,436 741,441 750,441 750,446 759,446 759,453 768,453 768,459 777,459 777,462 785,462 785,465 794,465 794,473 803,473 803,483 812,483 812,489 821,489 821,495 830,495 830,501 838,501 838,506 847,506 847,515 856,515 856,522 865,522 865,532 874,532 874,544 883,544" />
</g>
</svg>