<svg xmlns="http://www.w3.org/2000/svg" width="161.8" height="100.0" viewBox="27.36 9.28 171.80 110.00">
<g fill="none" stroke="black" stroke-width="0.0350%" transform="translate(0, 128.5560) scale(14.2780, -14.2780)">
<polyline points="2.27,1.00 2.38,1.05 2.49,1.10 2.61,1.15 2.72,1.20 2.83,1.26 2.95,1.31 3.06,1.36 3.17,1.41 3.29,1.46 3.40,1.51 3.51,1.56 3.63,1.61 3.74,1.66 3.85,1.71 3.97,1.76 4.08,1.81 4.19,1.86 4.31,1.90 4.42,1.95 4.53,2.00 4.65,2.05 4.76,2.09 4.87,2.14 4.99,2.19 5.10,2.24 5.21,2.28 5.33,2.33 5.44,2.38 5.55,2.42 5.67,2.47 5.78,2.52 5.89,2.57 6.01,2.62 6.12,2.67 6.23,2.72 6.35,2.78 6.46,2.83 6.57,2.89 6.69,2.94 6.80,3.00 6.91,3.06 7.03,3.12 7.14,3.18 7.25,3.25 7.37,3.32 7.48,3.39 7.59,3.47 7.71,3.55 7.82,3.63 7.93,3.72 8.05,3.82 8.16,3.92 8.27,4.03 8.39,4.14 8.50,4.27 8.61,4.40 8.73,4.53 8.84,4.68 8.95,4.84 9.07,5.00 9.18,5.17 9.29,5.35 9.41,5.54 9.52,5.73 9.63,5.93 9.75,6.12 9.86,6.32 9.97,6.51 10.09,6.70 10.20,6.88 10.31,7.06 10.43,7.22 10.54,7.38 10.65,7.52 10.77,7.64 10.88,7.76 10.99,7.85 11.11,7.92 11.22,7.97 11.33,8.00 11.45,8.00 11.56,7.98 11.67,7.94 11.79,7.88 11.90,7.79 12.01,7.69 12.13,7.57 12.24,7.44 12.35,7.29 12.47,7.12 12.58,6.95 12.69,6.76 12.81,6.56 12.92,6.35 13.03,6.14 13.15,5.92 13.26,5.69 13.37,5.46 13.49,5.23 13.60,5.00" />
</g>
</svg>