<svg xmlns="http://www.w3.org/2000/svg" width="161.8" height="100.0" viewBox="-4.2 -5.0 171.8 110.0">
<g fill="none" stroke="black" stroke-width="0.8150%" transform="translate(0, 100.0000) scale(0.6135, -0.6135)">
<circle cx="1.3" cy="0.0" r="0.8" />
<circle cx="2.6" cy="1.0" r="0.8" />
<circle cx="4.0" cy="4.0" r="0.8" />
<circle cx="5.3" cy="9.0" r="0.8" />
<circle cx="6.6" cy="16.0" r="0.8" />
<circle cx="7.9" cy="25.0" r="0.8" />
<circle cx="9.2" cy="36.0" r="0.8" />
<circle cx="10.5" cy="49.0" r="0.8" />
<circle cx="11.9" cy="64.0" r="0.8" />
<circle cx="13.2" cy="81.0" r="0.8" />
<circle cx="14.5" cy="1.0" r="0.8" />
<circle cx="15.8" cy="2.0" r="0.8" />
<circle cx="17.1" cy="5.0" r="0.8" />
<circle cx="18.5" cy="10.0" r="0.8" />
<circle cx="19.8" cy="17.0" r="0.8" />
<circle cx="21.1" cy="26.0" r="0.8" />
<circle cx="22.4" cy="37.0" r="0.8" />
<circle cx="23.7" cy="50.0" r="0.8" />
<circle cx="25.1" cy="65.0" r="0.8" />
<circle cx="26.4" cy="82.0" r="0.8" />
<circle cx="27.7" cy="4.0" r="0.8" />
<circle cx="29.0" cy="5.0" r="0.8" />
<circle cx="30.3" cy="8.0" r="0.8" />
<circle cx="31.6" cy="13.0" r="0.8" />
<circle cx="33.0" cy="20.0" r="0.8" />
<circle cx="34.3" cy="29.0" r="0.8" />
<circle cx="35.6" cy="40.0" r="0.8" />
<circle cx="36.9" cy="53.0" r="0.8" />
<circle cx="38.2" cy="68.0" r="0.8" />
<circle cx="39.6" cy="85.0" r="0.8" />
<circle cx="40.9" cy="9.0" r="0.8" />
<circle cx="42.2" cy="10.0" r="0.8" />
<circle cx="43.5" cy="13.0" r="0.8" />
<circle cx="44.8" cy="18.0" r="0.8" />
<circle cx="46.2" cy="25.0" r="0.8" />
<circle cx="47.5" cy="34.0" r="0.8" />
<circle cx="48.8" cy="45.0" r="0.8" />
<circle cx="50.1" cy="58.0" r="0.8" />
<circle cx="51.4" cy="73.0" r="0.8" />
<circle cx="52.7" cy="90.0" r="0.8" />
<circle cx="54.1" cy="16.0" r="0.8" />
<circle cx="55.4" cy="17.0" r="0.8" />
<circle cx="56.7" cy="20.0" r="0.8" />
<circle cx="58.0" cy="25.0" r="0.8" />
<circle cx="59.3" cy="32.0" r="0.8" />
<circle cx="60.7" cy="41.0" r="0.8" />
<circle cx="62.0" cy="52.0" r="0.8" />
<circle cx="63.3" cy="65.0" r="0.8" />
<circle cx="64.6" cy="80.0" r="0.8" />
<circle cx="65.9" cy="97.0" r="0.8" />
<circle cx="67.3" cy="25.0" r="0.8" />
<circle cx="68.6" cy="26.0" r="0.8" />
<circle cx="69.9" cy="29.0" r="0.8" />
<circle cx="71.2" cy="34.0" r="0.8" />
<circle cx="72.5" cy="41.0" r="0.8" />
<circle cx="73.8" cy="50.0" r="0.8" />
<circle cx="75.2" cy="61.0" r="0.8" />
<circle cx="76.5" cy="74.0" r="0.8" />
<circle cx="77.8" cy="89.0" r="0.8" />
<circle cx="79.1" cy="106.0" r="0.8" />
<circle cx="80.4" cy="36.0" r="0.8" />
<circle cx="81.8" cy="37.0" r="0.8" />
<circle cx="83.1" cy="40.0" r="0.8" />
<circle cx="84.4" cy="45.0" r="0.8" />
<circle cx="85.7" cy="52.0" r="0.8" />
<circle cx="87.0" cy="61.0" r="0.8" />
<circle cx="88.4" cy="72.0" r="0.8" />
<circle cx="89.7" cy="85.0" r="0.8" />
<circle cx="91.0" cy="100.0" r="0.8" />
<circle cx="92.3" cy="117.0" r="0.8" />
<circle cx="93.6" cy="49.0" r="0.8" />
<circle cx="94.9" cy="50.0" r="0.8" />
<circle cx="96.3" cy="53.0" r="0.8" />
<circle cx="97.6" cy="58.0" r="0.8" />
<circle cx="98.9" cy="65.0" r="0.8" />
<circle cx="100.2" cy="74.0" r="0.8" />
<circle cx="101.5" cy="85.0" r="0.8" />
<circle cx="102.9" cy="98.0" r="0.8" />
<circle cx="104.2" cy="113.0" r="0.8" />
<circle cx="105.5" cy="130.0" r="0.8" />
<circle cx="106.8" cy="64.0" r="0.8" />
<circle cx="108.1" cy="65.0" r="0.8" />
<circle cx="109.5" cy="68.0" r="0.8" />
<circle cx="110.8" cy="73.0" r="0.8" />
<circle cx="112.1" cy="80.0" r="0.8" />
<circle cx="113.4" cy="89.0" r="0.8" />
<circle cx="114.7" cy="100.0" r="0.8" />
<circle cx="116.0" cy="113.0" r="0.8" />
<circle cx="117.4" cy="128.0" r="0.8" />
<circle cx="118.7" cy="145.0" r="0.8" />
<circle cx="120.0" cy="81.0" r="0.8" />
<circle cx="121.3" cy="82.0" r="0.8" />
<circle cx="122.6" cy="85.0" r="0.8" />
<circle cx="124.0" cy="90.0" r="0.8" />
<circle cx="125.3" cy="97.0" r="0.8" />
<circle cx="126.6" cy="106.0" r="0.8" />
<circle cx="127.9" cy="117.0" r="0.8" />
<circle cx="129.2" cy="130.0" r="0.8" />
<circle cx="130.6" cy="145.0" r="0.8" />
<circle cx="131.9" cy="162.0" r="0.8" />
<circle cx="133.2" cy="1.0" r="0.8" />
<circle cx="134.5" cy="2.0" r="0.8" />
<circle cx="135.8" cy="5.0" r="0.8" />
<circle cx="137.1" cy="10.0" r="0.8" />
<circle cx="138.5" cy="17.0" r="0.8" />
<circle cx="139.8" cy="26.0" r="0.8" />
<circle cx="141.1" cy="37.0" r="0.8" />
<circle cx="142.4" cy="50.0" r="0.8" />
<circle cx="143.7" cy="65.0" r="0.8" />
<circle cx="145.1" cy="82.0" r="0.8" />
<circle cx="146.4" cy="2.0" r="0.8" />
<circle cx="147.7" cy="3.0" r="0.8" />
<circle cx="149.0" cy="6.0" r="0.8" />
<circle cx="150.3" cy="11.0" r="0.8" />
<circle cx="151.7" cy="18.0" r="0.8" />
<circle cx="153.0" cy="27.0" r="0.8" />
<circle cx="154.3" cy="38.0" r="0.8" />
<circle cx="155.6" cy="51.0" r="0.8" />
<circle cx="156.9" cy="66.0" r="0.8" />
<circle cx="158.2" cy="83.0" r="0.8" />
<circle cx="159.6" cy="5.0" r="0.8" />
<circle cx="160.9" cy="6.0" r="0.8" />
<circle cx="162.2" cy="9.0" r="0.8" />
<circle cx="163.5" cy="14.0" r="0.8" />
<circle cx="164.8" cy="21.0" r="0.8" />
<circle cx="166.2" cy="30.0" r="0.8" />
<circle cx="167.5" cy="41.0" r="0.8" />
<circle cx="168.8" cy="54.0" r="0.8" />
<circle cx="170.1" cy="69.0" r="0.8" />
<circle cx="171.4" cy="86.0" r="0.8" />
<circle cx="172.7" cy="10.0" r="0.8" />
<circle cx="174.1" cy="11.0" r="0.8" />
<circle cx="175.4" cy="14.0" r="0.8" />
<circle cx="176.7" cy="19.0" r="0.8" />
<circle cx="178.0" cy="26.0" r="0.8" />
<circle cx="179.3" cy="35.0" r="0.8" />
<circle cx="180.7" cy="46.0" r="0.8" />
<circle cx="182.0" cy="59.0" r="0.8" />
<circle cx="183.3" cy="74.0" r="0.8" />
<circle cx="184.6" cy="91.0" r="0.8" />
<circle cx="185.9" cy="17.0" r="0.8" />
<circle cx="187.3" cy="18.0" r="0.8" />
<circle cx="188.6" cy="21.0" r="0.8" />
<circle cx="189.9" cy="26.0" r="0.8" />
<circle cx="191.2" cy="33.0" r="0.8" />
<circle cx="192.5" cy="42.0" r="0.8" />
<circle cx="193.8" cy="53.0" r="0.8" />
<circle cx="195.2" cy="66.0" r="0.8" />
<circle cx="196.5" cy="81.0" r="0.8" />
<circle cx="197.8" cy="98.0" r="0.8" />
<circle cx="199.1" cy="26.0" r="0.8" />
<circle cx="200.4" cy="27.0" r="0.8" />
<circle cx="201.8" cy="30.0" r="0.8" />
<circle cx="203.1" cy="35.0" r="0.8" />
<circle cx="204.4" cy="42.0" r="0.8" />
<circle cx="205.7" cy="51.0" r="0.8" />
<circle cx="207.0" cy="62.0" r="0.8" />
<circle cx="208.4" cy="75.0" r="0.8" />
<circle cx="209.7" cy="90.0" r="0.8" />
<circle cx="211.0" cy="107.0" r="0.8" />
<circle cx="212.3" cy="37.0" r="0.8" />
<circle cx="213.6" cy="38.0" r="0.8" />
<circle cx="214.9" cy="41.0" r="0.8" />
<circle cx="216.3" cy="46.0" r="0.8" />
<circle cx="217.6" cy="53.0" r="0.8" />
<circle cx="218.9" cy="62.0" r="0.8" />
<circle cx="220.2" cy="73.0" r="0.8" />
<circle cx="221.5" cy="86.0" r="0.8" />
<circle cx="222.9" cy="101.0" r="0.8" />
<circle cx="224.2" cy="118.0" r="0.8" />
<circle cx="225.5" cy="50.0" r="0.8" />
<circle cx="226.8" cy="51.0" r="0.8" />
<circle cx="228.1" cy="54.0" r="0.8" />
<circle cx="229.5" cy="59.0" r="0.8" />
<circle cx="230.8" cy="66.0" r="0.8" />
<circle cx="232.1" cy="75.0" r="0.8" />
<circle cx="233.4" cy="86.0" r="0.8" />
<circle cx="234.7" cy="99.0" r="0.8" />
<circle cx="236.0" cy="114.0" r="0.8" />
<circle cx="237.4" cy="131.0" r="0.8" />
<circle cx="238.7" cy="65.0" r="0.8" />
<circle cx="240.0" cy="66.0" r="0.8" />
<circle cx="241.3" cy="69.0" r="0.8" />
<circle cx="242.6" cy="74.0" r="0.8" />
<circle cx="244.0" cy="81.0" r="0.8" />
<circle cx="245.3" cy="90.0" r="0.8" />
<circle cx="246.6" cy="101.0" r="0.8" />
<circle cx="247.9" cy="114.0" r="0.8" />
<circle cx="249.2" cy="129.0" r="0.8" />
<circle cx="250.6" cy="146.0" r="0.8" />
<circle cx="251.9" cy="82.0" r="0.8" />
<circle cx="253.2" cy="83.0" r="0.8" />
<circle cx="254.5" cy="86.0" r="0.8" />
<circle cx="255.8" cy="91.0" r="0.8" />
<circle cx="257.1" cy="98.0" r="0.8" />
<circle cx="258.5" cy="107.0" r="0.8" />
<circle cx="259.8" cy="118.0" r="0.8" />
<circle cx="261.1" cy="131.0" r="0.8" />
<circle cx="262.4" cy="146.0" r="0.8" />
<circle cx="263.7" cy="163.0" r="0.8" />
<circle cx="265.1" cy="4.0" r="0.8" />
</g>
</svg>