<svg xmlns="http://www.w3.org/2000/svg" width="161.8" height="100.0" viewBox="-5.00 -11.56 171.80 110.00">
<g fill="none" stroke="black" stroke-width="0.0161%" transform="translate(0, 86.8837) scale(31.1473, -31.1473)">
<polyline points="0.00,0.00 0.05,0.06 0.10,0.13 0.16,0.19 0.21,0.24 0.26,0.30 0.31,0.35 0.36,0.40 0.42,0.44 0.47,0.48 0.52,0.52 0.57,0.55 0.62,0.58 0.68,0.60 0.73,0.62 0.78,0.64 0.83,0.65 0.88,0.66 0.94,0.66 0.99,0.67 1.04,0.66 1.09,0.66 1.14,0.65 1.19,0.64 1.25,0.62 1.30,0.60 1.35,0.58 1.40,0.55 1.45,0.52 1.51,0.49 1.56,0.46 1.61,0.42 1.66,0.38 1.71,0.34 1.77,0.30 1.82,0.26 1.87,0.22 1.92,0.18 1.97,0.14 2.03,0.10 2.08,0.06 2.13,0.03 2.18,-0.01 2.23,-0.04 2.29,-0.07 2.34,-0.10 2.39,-0.13 2.44,-0.15 2.49,-0.17 2.55,-0.19 2.60,-0.20 2.65,-0.21 2.70,-0.21 2.75,-0.21 2.81,-0.20 2.86,-0.19 2.91,-0.18 2.96,-0.16 3.01,-0.14 3.06,-0.12 3.12,-0.09 3.17,-0.06 3.22,-0.02 3.27,0.02 3.32,0.06 3.38,0.10 3.43,0.15 3.48,0.20 3.53,0.26 3.58,0.31 3.64,0.37 3.69,0.44 3.74,0.50 3.79,0.57 3.84,0.64 3.90,0.71 3.95,0.78 4.00,0.86 4.05,0.94 4.10,1.02 4.16,1.10 4.21,1.19 4.26,1.27 4.31,1.36 4.36,1.45 4.42,1.54 4.47,1.63 4.52,1.72 4.57,1.82 4.62,1.91 4.68,2.01 4.73,2.10 4.78,2.20 4.83,2.30 4.88,2.40 4.94,2.50 4.99,2.60 5.04,2.70 5.09,2.80 5.14,2.90 5.19,3.00" />
</g>
</svg>