<svg xmlns="http://www.w3.org/2000/svg" width="100.0" height="100.0" viewBox="-4.6 95.4 110.0 110.0">
<g fill="none" stroke="black" stroke-width="1.2750%" transform="translate(0, 300.7843) scale(0.3922, -0.3922)">
<circle cx="1.0" cy="340.0" r="1.3" />
<circle cx="2.0" cy="427.0" r="1.3" />
<circle cx="3.0" cy="468.0" r="1.3" />
<circle cx="4.0" cy="299.0" r="1.3" />
<circle cx="5.0" cy="276.0" r="1.3" />
<circle cx="6.0" cy="491.0" r="1.3" />
<circle cx="7.0" cy="404.0" r="1.3" />
<circle cx="8.0" cy="363.0" r="1.3" />
<circle cx="9.0" cy="372.0" r="1.3" />
<circle cx="10.0" cy="395.0" r="1.3" />
<circle cx="11.0" cy="500.0" r="1.3" />
<circle cx="12.0" cy="267.0" r="1.3" />
<circle cx="13.0" cy="308.0" r="1.3" />
<circle cx="14.0" cy="459.0" r="1.3" />
<circle cx="15.0" cy="436.0" r="1.3" />
<circle cx="16.0" cy="331.0" r="1.3" />
<circle cx="17.0" cy="324.0" r="1.3" />
<circle cx="18.0" cy="443.0" r="1.3" />
<circle cx="19.0" cy="452.0" r="1.3" />
<circle cx="20.0" cy="315.0" r="1.3" />
<circle cx="21.0" cy="260.0" r="1.3" />
<circle cx="22.0" cy="507.0" r="1.3" />
<circle cx="23.0" cy="388.0" r="1.3" />
<circle cx="24.0" cy="379.0" r="1.3" />
<circle cx="25.0" cy="356.0" r="1.3" />
<circle cx="26.0" cy="411.0" r="1.3" />
<circle cx="27.0" cy="484.0" r="1.3" />
<circle cx="28.0" cy="283.0" r="1.3" />
<circle cx="29.0" cy="292.0" r="1.3" />
<circle cx="30.0" cy="475.0" r="1.3" />
<circle cx="31.0" cy="420.0" r="1.3" />
<circle cx="32.0" cy="347.0" r="1.3" />
<circle cx="33.0" cy="348.0" r="1.3" />
<circle cx="34.0" cy="419.0" r="1.3" />
<circle cx="35.0" cy="476.0" r="1.3" />
<circle cx="36.0" cy="291.0" r="1.3" />
<circle cx="37.0" cy="284.0" r="1.3" />
<circle cx="38.0" cy="483.0" r="1.3" />
<circle cx="39.0" cy="412.0" r="1.3" />
<circle cx="40.0" cy="355.0" r="1.3" />
<circle cx="41.0" cy="380.0" r="1.3" />
<circle cx="42.0" cy="387.0" r="1.3" />
<circle cx="43.0" cy="508.0" r="1.3" />
<circle cx="44.0" cy="259.0" r="1.3" />
<circle cx="45.0" cy="316.0" r="1.3" />
<circle cx="46.0" cy="451.0" r="1.3" />
<circle cx="47.0" cy="444.0" r="1.3" />
<circle cx="48.0" cy="323.0" r="1.3" />
<circle cx="49.0" cy="332.0" r="1.3" />
<circle cx="50.0" cy="435.0" r="1.3" />
<circle cx="51.0" cy="460.0" r="1.3" />
<circle cx="52.0" cy="307.0" r="1.3" />
<circle cx="53.0" cy="268.0" r="1.3" />
<circle cx="54.0" cy="499.0" r="1.3" />
<circle cx="55.0" cy="396.0" r="1.3" />
<circle cx="56.0" cy="371.0" r="1.3" />
<circle cx="57.0" cy="364.0" r="1.3" />
<circle cx="58.0" cy="403.0" r="1.3" />
<circle cx="59.0" cy="492.0" r="1.3" />
<circle cx="60.0" cy="275.0" r="1.3" />
<circle cx="61.0" cy="300.0" r="1.3" />
<circle cx="62.0" cy="467.0" r="1.3" />
<circle cx="63.0" cy="428.0" r="1.3" />
<circle cx="64.0" cy="339.0" r="1.3" />
<circle cx="65.0" cy="336.0" r="1.3" />
<circle cx="66.0" cy="431.0" r="1.3" />
<circle cx="67.0" cy="464.0" r="1.3" />
<circle cx="68.0" cy="303.0" r="1.3" />
<circle cx="69.0" cy="272.0" r="1.3" />
<circle cx="70.0" cy="495.0" r="1.3" />
<circle cx="71.0" cy="400.0" r="1.3" />
<circle cx="72.0" cy="367.0" r="1.3" />
<circle cx="73.0" cy="368.0" r="1.3" />
<circle cx="74.0" cy="399.0" r="1.3" />
<circle cx="75.0" cy="496.0" r="1.3" />
<circle cx="76.0" cy="271.0" r="1.3" />
<circle cx="77.0" cy="304.0" r="1.3" />
<circle cx="78.0" cy="463.0" r="1.3" />
<circle cx="79.0" cy="432.0" r="1.3" />
<circle cx="80.0" cy="335.0" r="1.3" />
<circle cx="81.0" cy="320.0" r="1.3" />
<circle cx="82.0" cy="447.0" r="1.3" />
<circle cx="83.0" cy="448.0" r="1.3" />
<circle cx="84.0" cy="319.0" r="1.3" />
<circle cx="85.0" cy="256.0" r="1.3" />
<circle cx="86.0" cy="511.0" r="1.3" />
<circle cx="87.0" cy="384.0" r="1.3" />
<circle cx="88.0" cy="383.0" r="1.3" />
<circle cx="89.0" cy="352.0" r="1.3" />
<circle cx="90.0" cy="415.0" r="1.3" />
<circle cx="91.0" cy="480.0" r="1.3" />
<circle cx="92.0" cy="287.0" r="1.3" />
<circle cx="93.0" cy="288.0" r="1.3" />
<circle cx="94.0" cy="479.0" r="1.3" />
<circle cx="95.0" cy="416.0" r="1.3" />
<circle cx="96.0" cy="351.0" r="1.3" />
<circle cx="97.0" cy="344.0" r="1.3" />
<circle cx="98.0" cy="423.0" r="1.3" />
<circle cx="99.0" cy="472.0" r="1.3" />
<circle cx="100.0" cy="295.0" r="1.3" />
<circle cx="101.0" cy="280.0" r="1.3" />
<circle cx="102.0" cy="487.0" r="1.3" />
<circle cx="103.0" cy="408.0" r="1.3" />
<circle cx="104.0" cy="359.0" r="1.3" />
<circle cx="105.0" cy="376.0" r="1.3" />
<circle cx="106.0" cy="391.0" r="1.3" />
<circle cx="107.0" cy="504.0" r="1.3" />
<circle cx="108.0" cy="263.0" r="1.3" />
<circle cx="109.0" cy="312.0" r="1.3" />
<circle cx="110.0" cy="455.0" r="1.3" />
<circle cx="111.0" cy="440.0" r="1.3" />
<circle cx="112.0" cy="327.0" r="1.3" />
<circle cx="113.0" cy="328.0" r="1.3" />
<circle cx="114.0" cy="439.0" r="1.3" />
<circle cx="115.0" cy="456.0" r="1.3" />
<circle cx="116.0" cy="311.0" r="1.3" />
<circle cx="117.0" cy="264.0" r="1.3" />
<circle cx="118.0" cy="503.0" r="1.3" />
<circle cx="119.0" cy="392.0" r="1.3" />
<circle cx="120.0" cy="375.0" r="1.3" />
<circle cx="121.0" cy="360.0" r="1.3" />
<circle cx="122.0" cy="407.0" r="1.3" />
<circle cx="123.0" cy="488.0" r="1.3" />
<circle cx="124.0" cy="279.0" r="1.3" />
<circle cx="125.0" cy="296.0" r="1.3" />
<circle cx="126.0" cy="471.0" r="1.3" />
<circle cx="127.0" cy="424.0" r="1.3" />
<circle cx="128.0" cy="343.0" r="1.3" />
<circle cx="129.0" cy="342.0" r="1.3" />
<circle cx="130.0" cy="425.0" r="1.3" />
<circle cx="131.0" cy="470.0" r="1.3" />
<circle cx="132.0" cy="297.0" r="1.3" />
<circle cx="133.0" cy="278.0" r="1.3" />
<circle cx="134.0" cy="489.0" r="1.3" />
<circle cx="135.0" cy="406.0" r="1.3" />
<circle cx="136.0" cy="361.0" r="1.3" />
<circle cx="137.0" cy="374.0" r="1.3" />
<circle cx="138.0" cy="393.0" r="1.3" />
<circle cx="139.0" cy="502.0" r="1.3" />
<circle cx="140.0" cy="265.0" r="1.3" />
<circle cx="141.0" cy="310.0" r="1.3" />
<circle cx="142.0" cy="457.0" r="1.3" />
<circle cx="143.0" cy="438.0" r="1.3" />
<circle cx="144.0" cy="329.0" r="1.3" />
<circle cx="145.0" cy="326.0" r="1.3" />
<circle cx="146.0" cy="441.0" r="1.3" />
<circle cx="147.0" cy="454.0" r="1.3" />
<circle cx="148.0" cy="313.0" r="1.3" />
<circle cx="149.0" cy="262.0" r="1.3" />
<circle cx="150.0" cy="505.0" r="1.3" />
<circle cx="151.0" cy="390.0" r="1.3" />
<circle cx="152.0" cy="377.0" r="1.3" />
<circle cx="153.0" cy="358.0" r="1.3" />
<circle cx="154.0" cy="409.0" r="1.3" />
<circle cx="155.0" cy="486.0" r="1.3" />
<circle cx="156.0" cy="281.0" r="1.3" />
<circle cx="157.0" cy="294.0" r="1.3" />
<circle cx="158.0" cy="473.0" r="1.3" />
<circle cx="159.0" cy="422.0" r="1.3" />
<circle cx="160.0" cy="345.0" r="1.3" />
<circle cx="161.0" cy="350.0" r="1.3" />
<circle cx="162.0" cy="417.0" r="1.3" />
<circle cx="163.0" cy="478.0" r="1.3" />
<circle cx="164.0" cy="289.0" r="1.3" />
<circle cx="165.0" cy="286.0" r="1.3" />
<circle cx="166.0" cy="481.0" r="1.3" />
<circle cx="167.0" cy="414.0" r="1.3" />
<circle cx="168.0" cy="353.0" r="1.3" />
<circle cx="169.0" cy="382.0" r="1.3" />
<circle cx="170.0" cy="385.0" r="1.3" />
<circle cx="171.0" cy="510.0" r="1.3" />
<circle cx="172.0" cy="257.0" r="1.3" />
<circle cx="173.0" cy="318.0" r="1.3" />
<circle cx="174.0" cy="449.0" r="1.3" />
<circle cx="175.0" cy="446.0" r="1.3" />
<circle cx="176.0" cy="321.0" r="1.3" />
<circle cx="177.0" cy="334.0" r="1.3" />
<circle cx="178.0" cy="433.0" r="1.3" />
<circle cx="179.0" cy="462.0" r="1.3" />
<circle cx="180.0" cy="305.0" r="1.3" />
<circle cx="181.0" cy="270.0" r="1.3" />
<circle cx="182.0" cy="497.0" r="1.3" />
<circle cx="183.0" cy="398.0" r="1.3" />
<circle cx="184.0" cy="369.0" r="1.3" />
<circle cx="185.0" cy="366.0" r="1.3" />
<circle cx="186.0" cy="401.0" r="1.3" />
<circle cx="187.0" cy="494.0" r="1.3" />
<circle cx="188.0" cy="273.0" r="1.3" />
<circle cx="189.0" cy="302.0" r="1.3" />
<circle cx="190.0" cy="465.0" r="1.3" />
<circle cx="191.0" cy="430.0" r="1.3" />
<circle cx="192.0" cy="337.0" r="1.3" />
<circle cx="193.0" cy="338.0" r="1.3" />
<circle cx="194.0" cy="429.0" r="1.3" />
<circle cx="195.0" cy="466.0" r="1.3" />
<circle cx="196.0" cy="301.0" r="1.3" />
<circle cx="197.0" cy="274.0" r="1.3" />
<circle cx="198.0" cy="493.0" r="1.3" />
<circle cx="199.0" cy="402.0" r="1.3" />
<circle cx="200.0" cy="365.0" r="1.3" />
<circle cx="201.0" cy="370.0" r="1.3" />
<circle cx="202.0" cy="397.0" r="1.3" />
<circle cx="203.0" cy="498.0" r="1.3" />
<circle cx="204.0" cy="269.0" r="1.3" />
<circle cx="205.0" cy="306.0" r="1.3" />
<circle cx="206.0" cy="461.0" r="1.3" />
<circle cx="207.0" cy="434.0" r="1.3" />
<circle cx="208.0" cy="333.0" r="1.3" />
<circle cx="209.0" cy="322.0" r="1.3" />
<circle cx="210.0" cy="445.0" r="1.3" />
<circle cx="211.0" cy="450.0" r="1.3" />
<circle cx="212.0" cy="317.0" r="1.3" />
<circle cx="213.0" cy="258.0" r="1.3" />
<circle cx="214.0" cy="509.0" r="1.3" />
<circle cx="215.0" cy="386.0" r="1.3" />
<circle cx="216.0" cy="381.0" r="1.3" />
<circle cx="217.0" cy="354.0" r="1.3" />
<circle cx="218.0" cy="413.0" r="1.3" />
<circle cx="219.0" cy="482.0" r="1.3" />
<circle cx="220.0" cy="285.0" r="1.3" />
<circle cx="221.0" cy="290.0" r="1.3" />
<circle cx="222.0" cy="477.0" r="1.3" />
<circle cx="223.0" cy="418.0" r="1.3" />
<circle cx="224.0" cy="349.0" r="1.3" />
<circle cx="225.0" cy="346.0" r="1.3" />
<circle cx="226.0" cy="421.0" r="1.3" />
<circle cx="227.0" cy="474.0" r="1.3" />
<circle cx="228.0" cy="293.0" r="1.3" />
<circle cx="229.0" cy="282.0" r="1.3" />
<circle cx="230.0" cy="485.0" r="1.3" />
<circle cx="231.0" cy="410.0" r="1.3" />
<circle cx="232.0" cy="357.0" r="1.3" />
<circle cx="233.0" cy="378.0" r="1.3" />
<circle cx="234.0" cy="389.0" r="1.3" />
<circle cx="235.0" cy="506.0" r="1.3" />
<circle cx="236.0" cy="261.0" r="1.3" />
<circle cx="237.0" cy="314.0" r="1.3" />
<circle cx="238.0" cy="453.0" r="1.3" />
<circle cx="239.0" cy="442.0" r="1.3" />
<circle cx="240.0" cy="325.0" r="1.3" />
<circle cx="241.0" cy="330.0" r="1.3" />
<circle cx="242.0" cy="437.0" r="1.3" />
<circle cx="243.0" cy="458.0" r="1.3" />
<circle cx="244.0" cy="309.0" r="1.3" />
<circle cx="245.0" cy="266.0" r="1.3" />
<circle cx="246.0" cy="501.0" r="1.3" />
<circle cx="247.0" cy="394.0" r="1.3" />
<circle cx="248.0" cy="373.0" r="1.3" />
<circle cx="249.0" cy="362.0" r="1.3" />
<circle cx="250.0" cy="405.0" r="1.3" />
<circle cx="251.0" cy="490.0" r="1.3" />
<circle cx="252.0" cy="277.0" r="1.3" />
<circle cx="253.0" cy="298.0" r="1.3" />
<circle cx="254.0" cy="469.0" r="1.3" />
<circle cx="255.0" cy="426.0" r="1.3" />
<circle cx="256.0" cy="341.0" r="1.3" />
</g>
</svg>