<svg xmlns="http://www.w3.org/2000/svg" width="161.8" height="100.0" viewBox="-2.3 -73.2 171.8 110.0">
<g fill="none" stroke="black" stroke-width="1.5400%" transform="translate(0, -36.3636) scale(0.3247, -0.3247)">
<circle cx="8.4" cy="0.0" r="1.5" />
<circle cx="8.4" cy="1.0" r="1.5" />
<circle cx="16.9" cy="0.0" r="1.5" />
<circle cx="25.3" cy="0.0" r="1.5" />
<circle cx="33.8" cy="0.0" r="1.5" />
<circle cx="42.2" cy="-2.0" r="1.5" />
<circle cx="50.7" cy="2.0" r="1.5" />
<circle cx="59.1" cy="0.0" r="1.5" />
<circle cx="67.6" cy="-6.0" r="1.5" />
<circle cx="76.0" cy="-6.0" r="1.5" />
<circle cx="84.5" cy="6.0" r="1.5" />
<circle cx="92.9" cy="0.0" r="1.5" />
<circle cx="101.4" cy="-4.0" r="1.5" />
<circle cx="109.8" cy="4.0" r="1.5" />
<circle cx="118.3" cy="-10.0" r="1.5" />
<circle cx="126.7" cy="-14.0" r="1.5" />
<circle cx="135.1" cy="10.0" r="1.5" />
<circle cx="143.6" cy="4.0" r="1.5" />
<circle cx="152.0" cy="14.0" r="1.5" />
<circle cx="160.5" cy="-30.0" r="1.5" />
<circle cx="168.9" cy="-42.0" r="1.5" />
<circle cx="177.4" cy="0.0" r="1.5" />
<circle cx="185.8" cy="-42.0" r="1.5" />
<circle cx="194.3" cy="-18.0" r="1.5" />
<circle cx="202.7" cy="12.0" r="1.5" />
<circle cx="211.2" cy="30.0" r="1.5" />
<circle cx="219.6" cy="18.0" r="1.5" />
<circle cx="228.1" cy="-12.0" r="1.5" />
<circle cx="236.5" cy="0.0" r="1.5" />
<circle cx="245.0" cy="18.0" r="1.5" />
<circle cx="253.4" cy="42.0" r="1.5" />
<circle cx="261.8" cy="0.0" r="1.5" />
<circle cx="270.3" cy="-62.0" r="1.5" />
<circle cx="278.7" cy="-8.0" r="1.5" />
<circle cx="287.2" cy="-70.0" r="1.5" />
<circle cx="295.6" cy="-20.0" r="1.5" />
<circle cx="304.1" cy="-82.0" r="1.5" />
<circle cx="312.5" cy="-28.0" r="1.5" />
<circle cx="321.0" cy="-34.0" r="1.5" />
<circle cx="329.4" cy="-62.0" r="1.5" />
<circle cx="337.9" cy="-8.0" r="1.5" />
<circle cx="346.3" cy="-26.0" r="1.5" />
<circle cx="354.8" cy="8.0" r="1.5" />
<circle cx="363.2" cy="-62.0" r="1.5" />
<circle cx="371.7" cy="62.0" r="1.5" />
<circle cx="380.1" cy="34.0" r="1.5" />
<circle cx="388.5" cy="-28.0" r="1.5" />
<circle cx="397.0" cy="8.0" r="1.5" />
<circle cx="405.4" cy="-28.0" r="1.5" />
<circle cx="413.9" cy="28.0" r="1.5" />
<circle cx="422.3" cy="62.0" r="1.5" />
<circle cx="430.8" cy="82.0" r="1.5" />
<circle cx="439.2" cy="-8.0" r="1.5" />
<circle cx="447.7" cy="98.0" r="1.5" />
<circle cx="456.1" cy="28.0" r="1.5" />
<circle cx="464.6" cy="0.0" r="1.5" />
<circle cx="473.0" cy="-186.0" r="1.5" />
<circle cx="481.5" cy="-84.0" r="1.5" />
<circle cx="489.9" cy="-210.0" r="1.5" />
<circle cx="498.4" cy="-60.0" r="1.5" />
<circle cx="506.8" cy="-24.0" r="1.5" />
</g>
</svg>