<svg xmlns="http://www.w3.org/2000/svg" width="161.8" height="100.0" viewBox="-3.695 -5.000 171.803 110.000">
<g fill="none" stroke="black" stroke-width="0.0100%" transform="translate(0, 100.0000) scale(50.0000, -50.0000)">

<line x1="0.052" y1="0.000" x2="0.052" y2="1.000" />
<line x1="0.078" y1="0.000" x2="0.078" y2="2.000" />

<line x1="0.130" y1="0.000" x2="0.130" y2="1.000" />
<line x1="0.157" y1="0.000" x2="0.157" y2="1.000" />
<line x1="0.183" y1="0.000" x2="0.183" y2="1.000" />
<line x1="0.209" y1="0.000" x2="0.209" y2="2.000" />
<line x1="0.235" y1="0.000" x2="0.235" y2="1.000" />

<line x1="0.287" y1="0.000" x2="0.287" y2="2.000" />
<line x1="0.313" y1="0.000" x2="0.313" y2="1.000" />
<line x1="0.339" y1="0.000" x2="0.339" y2="2.000" />
<line x1="0.365" y1="0.000" x2="0.365" y2="2.000" />
<line x1="0.391" y1="0.000" x2="0.391" y2="2.000" />


<line x1="0.470" y1="0.000" x2="0.470" y2="1.000" />
<line x1="0.496" y1="0.000" x2="0.496" y2="1.000" />

<line x1="0.548" y1="0.000" x2="0.548" y2="1.000" />
<line x1="0.574" y1="0.000" x2="0.574" y2="2.000" />

<line x1="0.626" y1="0.000" x2="0.626" y2="1.000" />

<line x1="0.679" y1="0.000" x2="0.679" y2="1.000" />
<line x1="0.705" y1="0.000" x2="0.705" y2="1.000" />
<line x1="0.731" y1="0.000" x2="0.731" y2="1.000" />
<line x1="0.757" y1="0.000" x2="0.757" y2="1.000" />
<line x1="0.783" y1="0.000" x2="0.783" y2="1.000" />
<line x1="0.809" y1="0.000" x2="0.809" y2="2.000" />
<line x1="0.835" y1="0.000" x2="0.835" y2="1.000" />
<line x1="0.861" y1="0.000" x2="0.861" y2="1.000" />

<line x1="0.913" y1="0.000" x2="0.913" y2="2.000" />
<line x1="0.940" y1="0.000" x2="0.940" y2="1.000" />
<line x1="0.966" y1="0.000" x2="0.966" y2="1.000" />
<line x1="0.992" y1="0.000" x2="0.992" y2="2.000" />
<line x1="1.018" y1="0.000" x2="1.018" y2="1.000" />
<line x1="1.044" y1="0.000" x2="1.044" y2="2.000" />
<line x1="1.070" y1="0.000" x2="1.070" y2="2.000" />
<line x1="1.096" y1="0.000" x2="1.096" y2="1.000" />


<line x1="1.174" y1="0.000" x2="1.174" y2="2.000" />
<line x1="1.200" y1="0.000" x2="1.200" y2="1.000" />

<line x1="1.253" y1="0.000" x2="1.253" y2="2.000" />
<line x1="1.279" y1="0.000" x2="1.279" y2="2.000" />

<line x1="1.331" y1="0.000" x2="1.331" y2="2.000" />

<line x1="1.383" y1="0.000" x2="1.383" y2="1.000" />
<line x1="1.409" y1="0.000" x2="1.409" y2="2.000" />
<line x1="1.435" y1="0.000" x2="1.435" y2="1.000" />
<line x1="1.461" y1="0.000" x2="1.461" y2="1.000" />
<line x1="1.488" y1="0.000" x2="1.488" y2="2.000" />
<line x1="1.514" y1="0.000" x2="1.514" y2="2.000" />
<line x1="1.540" y1="0.000" x2="1.540" y2="1.000" />
<line x1="1.566" y1="0.000" x2="1.566" y2="2.000" />

<line x1="1.618" y1="0.000" x2="1.618" y2="2.000" />
<line x1="1.644" y1="0.000" x2="1.644" y2="2.000" />
<line x1="1.670" y1="0.000" x2="1.670" y2="1.000" />
<line x1="1.696" y1="0.000" x2="1.696" y2="2.000" />
<line x1="1.722" y1="0.000" x2="1.722" y2="2.000" />
<line x1="1.749" y1="0.000" x2="1.749" y2="2.000" />
<line x1="1.775" y1="0.000" x2="1.775" y2="2.000" />
<line x1="1.801" y1="0.000" x2="1.801" y2="2.000" />



<line x1="1.905" y1="0.000" x2="1.905" y2="1.000" />
<line x1="1.931" y1="0.000" x2="1.931" y2="1.000" />


<line x1="2.009" y1="0.000" x2="2.009" y2="1.000" />
<line x1="2.036" y1="0.000" x2="2.036" y2="2.000" />


<line x1="2.114" y1="0.000" x2="2.114" y2="1.000" />

<line x1="2.166" y1="0.000" x2="2.166" y2="1.000" />

<line x1="2.218" y1="0.000" x2="2.218" y2="1.000" />
<line x1="2.244" y1="0.000" x2="2.244" y2="1.000" />
<line x1="2.270" y1="0.000" x2="2.270" y2="1.000" />

<line x1="2.323" y1="0.000" x2="2.323" y2="1.000" />
<line x1="2.349" y1="0.000" x2="2.349" y2="2.000" />
<line x1="2.375" y1="0.000" x2="2.375" y2="1.000" />

<line x1="2.427" y1="0.000" x2="2.427" y2="1.000" />

<line x1="2.479" y1="0.000" x2="2.479" y2="2.000" />

<line x1="2.531" y1="0.000" x2="2.531" y2="1.000" />
<line x1="2.558" y1="0.000" x2="2.558" y2="1.000" />
<line x1="2.584" y1="0.000" x2="2.584" y2="2.000" />

<line x1="2.636" y1="0.000" x2="2.636" y2="1.000" />
<line x1="2.662" y1="0.000" x2="2.662" y2="2.000" />
<line x1="2.688" y1="0.000" x2="2.688" y2="2.000" />

<line x1="2.740" y1="0.000" x2="2.740" y2="1.000" />


<line x1="2.819" y1="0.000" x2="2.819" y2="1.000" />
<line x1="2.845" y1="0.000" x2="2.845" y2="1.000" />
<line x1="2.871" y1="0.000" x2="2.871" y2="1.000" />

<line x1="2.923" y1="0.000" x2="2.923" y2="1.000" />
<line x1="2.949" y1="0.000" x2="2.949" y2="1.000" />
<line x1="2.975" y1="0.000" x2="2.975" y2="2.000" />

<line x1="3.027" y1="0.000" x2="3.027" y2="1.000" />
<line x1="3.053" y1="0.000" x2="3.053" y2="1.000" />

<line x1="3.106" y1="0.000" x2="3.106" y2="1.000" />
<line x1="3.132" y1="0.000" x2="3.132" y2="1.000" />
<line x1="3.158" y1="0.000" x2="3.158" y2="1.000" />
<line x1="3.184" y1="0.000" x2="3.184" y2="1.000" />
<line x1="3.210" y1="0.000" x2="3.210" y2="1.000" />
<line x1="3.236" y1="0.000" x2="3.236" y2="1.000" />
<line x1="3.262" y1="0.000" x2="3.262" y2="1.000" />
</g>
</svg>