<svg xmlns="http://www.w3.org/2000/svg" width="160.3" height="100.0" viewBox="-2.7 -5.0 170.3 110.0">
<g fill="none" stroke="black" stroke-width="0.5250%" transform="translate(0, 100.0000) scale(0.9524, -0.9524)">
<line x1="2.4" y1="0.0" x2="2.4" y2="1.0" />
<line x1="4.9" y1="0.0" x2="4.9" y2="3.0" />
<line x1="7.3" y1="0.0" x2="7.3" y2="3.0" />
<line x1="9.8" y1="0.0" x2="9.8" y2="6.0" />
<line x1="12.2" y1="0.0" x2="12.2" y2="5.0" />
<line x1="14.6" y1="0.0" x2="14.6" y2="9.0" />
<line x1="17.1" y1="0.0" x2="17.1" y2="7.0" />
<line x1="19.5" y1="0.0" x2="19.5" y2="12.0" />
<line x1="21.9" y1="0.0" x2="21.9" y2="9.0" />
<line x1="24.4" y1="0.0" x2="24.4" y2="15.0" />
<line x1="26.8" y1="0.0" x2="26.8" y2="11.0" />
<line x1="29.3" y1="0.0" x2="29.3" y2="18.0" />
<line x1="31.7" y1="0.0" x2="31.7" y2="13.0" />
<line x1="34.1" y1="0.0" x2="34.1" y2="21.0" />
<line x1="36.6" y1="0.0" x2="36.6" y2="15.0" />
<line x1="39.0" y1="0.0" x2="39.0" y2="24.0" />
<line x1="41.5" y1="0.0" x2="41.5" y2="17.0" />
<line x1="43.9" y1="0.0" x2="43.9" y2="27.0" />
<line x1="46.3" y1="0.0" x2="46.3" y2="19.0" />
<line x1="48.8" y1="0.0" x2="48.8" y2="30.0" />
<line x1="51.2" y1="0.0" x2="51.2" y2="21.0" />
<line x1="53.7" y1="0.0" x2="53.7" y2="33.0" />
<line x1="56.1" y1="0.0" x2="56.1" y2="23.0" />
<line x1="58.5" y1="0.0" x2="58.5" y2="36.0" />
<line x1="61.0" y1="0.0" x2="61.0" y2="25.0" />
<line x1="63.4" y1="0.0" x2="63.4" y2="39.0" />
<line x1="65.8" y1="0.0" x2="65.8" y2="27.0" />
<line x1="68.3" y1="0.0" x2="68.3" y2="42.0" />
<line x1="70.7" y1="0.0" x2="70.7" y2="29.0" />
<line x1="73.2" y1="0.0" x2="73.2" y2="45.0" />
<line x1="75.6" y1="0.0" x2="75.6" y2="31.0" />
<line x1="78.0" y1="0.0" x2="78.0" y2="48.0" />
<line x1="80.5" y1="0.0" x2="80.5" y2="33.0" />
<line x1="82.9" y1="0.0" x2="82.9" y2="51.0" />
<line x1="85.4" y1="0.0" x2="85.4" y2="35.0" />
<line x1="87.8" y1="0.0" x2="87.8" y2="54.0" />
<line x1="90.2" y1="0.0" x2="90.2" y2="37.0" />
<line x1="92.7" y1="0.0" x2="92.7" y2="57.0" />
<line x1="95.1" y1="0.0" x2="95.1" y2="39.0" />
<line x1="97.6" y1="0.0" x2="97.6" y2="60.0" />
<line x1="100.0" y1="0.0" x2="100.0" y2="41.0" />
<line x1="102.4" y1="0.0" x2="102.4" y2="63.0" />
<line x1="104.9" y1="0.0" x2="104.9" y2="43.0" />
<line x1="107.3" y1="0.0" x2="107.3" y2="66.0" />
<line x1="109.7" y1="0.0" x2="109.7" y2="45.0" />
<line x1="112.2" y1="0.0" x2="112.2" y2="69.0" />
<line x1="114.6" y1="0.0" x2="114.6" y2="47.0" />
<line x1="117.1" y1="0.0" x2="117.1" y2="72.0" />
<line x1="119.5" y1="0.0" x2="119.5" y2="49.0" />
<line x1="121.9" y1="0.0" x2="121.9" y2="75.0" />
<line x1="124.4" y1="0.0" x2="124.4" y2="51.0" />
<line x1="126.8" y1="0.0" x2="126.8" y2="78.0" />
<line x1="129.3" y1="0.0" x2="129.3" y2="53.0" />
<line x1="131.7" y1="0.0" x2="131.7" y2="81.0" />
<line x1="134.1" y1="0.0" x2="134.1" y2="55.0" />
<line x1="136.6" y1="0.0" x2="136.6" y2="84.0" />
<line x1="139.0" y1="0.0" x2="139.0" y2="57.0" />
<line x1="141.4" y1="0.0" x2="141.4" y2="87.0" />
<line x1="143.9" y1="0.0" x2="143.9" y2="59.0" />
<line x1="146.3" y1="0.0" x2="146.3" y2="90.0" />
<line x1="148.8" y1="0.0" x2="148.8" y2="61.0" />
<line x1="151.2" y1="0.0" x2="151.2" y2="93.0" />
<line x1="153.6" y1="0.0" x2="153.6" y2="63.0" />
<line x1="156.1" y1="0.0" x2="156.1" y2="96.0" />
<line x1="158.5" y1="0.0" x2="158.5" y2="65.0" />
<line x1="161.0" y1="0.0" x2="161.0" y2="99.0" />
<line x1="163.4" y1="0.0" x2="163.4" y2="67.0" />
<line x1="165.8" y1="0.0" x2="165.8" y2="102.0" />
<line x1="168.3" y1="0.0" x2="168.3" y2="69.0" />
<line x1="170.7" y1="0.0" x2="170.7" y2="105.0" />
</g>
</svg>