<svg xmlns="http://www.w3.org/2000/svg" width="100.0" height="100.0" viewBox="-4.6 -5.0 110.0 110.0">
<g fill="none" stroke="black" stroke-width="1.2750%" transform="translate(0, 100.0000) scale(0.3922, -0.3922)">
<circle cx="1.0" cy="0.0" r="1.3" />
<circle cx="1.0" cy="0.0" r="1.3" />
<circle cx="2.0" cy="1.0" r="1.3" />
<circle cx="3.0" cy="3.0" r="1.3" />
<circle cx="4.0" cy="2.0" r="1.3" />
<circle cx="5.0" cy="4.0" r="1.3" />
<circle cx="6.0" cy="7.0" r="1.3" />
<circle cx="7.0" cy="6.0" r="1.3" />
<circle cx="8.0" cy="5.0" r="1.3" />
<circle cx="9.0" cy="11.0" r="1.3" />
<circle cx="10.0" cy="12.0" r="1.3" />
<circle cx="11.0" cy="15.0" r="1.3" />
<circle cx="12.0" cy="8.0" r="1.3" />
<circle cx="13.0" cy="9.0" r="1.3" />
<circle cx="14.0" cy="14.0" r="1.3" />
<circle cx="15.0" cy="13.0" r="1.3" />
<circle cx="16.0" cy="10.0" r="1.3" />
<circle cx="17.0" cy="20.0" r="1.3" />
<circle cx="18.0" cy="27.0" r="1.3" />
<circle cx="19.0" cy="28.0" r="1.3" />
<circle cx="20.0" cy="19.0" r="1.3" />
<circle cx="21.0" cy="16.0" r="1.3" />
<circle cx="22.0" cy="31.0" r="1.3" />
<circle cx="23.0" cy="24.0" r="1.3" />
<circle cx="24.0" cy="23.0" r="1.3" />
<circle cx="25.0" cy="22.0" r="1.3" />
<circle cx="26.0" cy="25.0" r="1.3" />
<circle cx="27.0" cy="30.0" r="1.3" />
<circle cx="28.0" cy="17.0" r="1.3" />
<circle cx="29.0" cy="18.0" r="1.3" />
<circle cx="30.0" cy="29.0" r="1.3" />
<circle cx="31.0" cy="26.0" r="1.3" />
<circle cx="32.0" cy="21.0" r="1.3" />
<circle cx="33.0" cy="43.0" r="1.3" />
<circle cx="34.0" cy="52.0" r="1.3" />
<circle cx="35.0" cy="59.0" r="1.3" />
<circle cx="36.0" cy="36.0" r="1.3" />
<circle cx="37.0" cy="35.0" r="1.3" />
<circle cx="38.0" cy="60.0" r="1.3" />
<circle cx="39.0" cy="51.0" r="1.3" />
<circle cx="40.0" cy="44.0" r="1.3" />
<circle cx="41.0" cy="47.0" r="1.3" />
<circle cx="42.0" cy="48.0" r="1.3" />
<circle cx="43.0" cy="63.0" r="1.3" />
<circle cx="44.0" cy="32.0" r="1.3" />
<circle cx="45.0" cy="39.0" r="1.3" />
<circle cx="46.0" cy="56.0" r="1.3" />
<circle cx="47.0" cy="55.0" r="1.3" />
<circle cx="48.0" cy="40.0" r="1.3" />
<circle cx="49.0" cy="41.0" r="1.3" />
<circle cx="50.0" cy="54.0" r="1.3" />
<circle cx="51.0" cy="57.0" r="1.3" />
<circle cx="52.0" cy="38.0" r="1.3" />
<circle cx="53.0" cy="33.0" r="1.3" />
<circle cx="54.0" cy="62.0" r="1.3" />
<circle cx="55.0" cy="49.0" r="1.3" />
<circle cx="56.0" cy="46.0" r="1.3" />
<circle cx="57.0" cy="45.0" r="1.3" />
<circle cx="58.0" cy="50.0" r="1.3" />
<circle cx="59.0" cy="61.0" r="1.3" />
<circle cx="60.0" cy="34.0" r="1.3" />
<circle cx="61.0" cy="37.0" r="1.3" />
<circle cx="62.0" cy="58.0" r="1.3" />
<circle cx="63.0" cy="53.0" r="1.3" />
<circle cx="64.0" cy="42.0" r="1.3" />
<circle cx="65.0" cy="84.0" r="1.3" />
<circle cx="66.0" cy="107.0" r="1.3" />
<circle cx="67.0" cy="116.0" r="1.3" />
<circle cx="68.0" cy="75.0" r="1.3" />
<circle cx="69.0" cy="68.0" r="1.3" />
<circle cx="70.0" cy="123.0" r="1.3" />
<circle cx="71.0" cy="100.0" r="1.3" />
<circle cx="72.0" cy="91.0" r="1.3" />
<circle cx="73.0" cy="92.0" r="1.3" />
<circle cx="74.0" cy="99.0" r="1.3" />
<circle cx="75.0" cy="124.0" r="1.3" />
<circle cx="76.0" cy="67.0" r="1.3" />
<circle cx="77.0" cy="76.0" r="1.3" />
<circle cx="78.0" cy="115.0" r="1.3" />
<circle cx="79.0" cy="108.0" r="1.3" />
<circle cx="80.0" cy="83.0" r="1.3" />
<circle cx="81.0" cy="80.0" r="1.3" />
<circle cx="82.0" cy="111.0" r="1.3" />
<circle cx="83.0" cy="112.0" r="1.3" />
<circle cx="84.0" cy="79.0" r="1.3" />
<circle cx="85.0" cy="64.0" r="1.3" />
<circle cx="86.0" cy="127.0" r="1.3" />
<circle cx="87.0" cy="96.0" r="1.3" />
<circle cx="88.0" cy="95.0" r="1.3" />
<circle cx="89.0" cy="88.0" r="1.3" />
<circle cx="90.0" cy="103.0" r="1.3" />
<circle cx="91.0" cy="120.0" r="1.3" />
<circle cx="92.0" cy="71.0" r="1.3" />
<circle cx="93.0" cy="72.0" r="1.3" />
<circle cx="94.0" cy="119.0" r="1.3" />
<circle cx="95.0" cy="104.0" r="1.3" />
<circle cx="96.0" cy="87.0" r="1.3" />
<circle cx="97.0" cy="86.0" r="1.3" />
<circle cx="98.0" cy="105.0" r="1.3" />
<circle cx="99.0" cy="118.0" r="1.3" />
<circle cx="100.0" cy="73.0" r="1.3" />
<circle cx="101.0" cy="70.0" r="1.3" />
<circle cx="102.0" cy="121.0" r="1.3" />
<circle cx="103.0" cy="102.0" r="1.3" />
<circle cx="104.0" cy="89.0" r="1.3" />
<circle cx="105.0" cy="94.0" r="1.3" />
<circle cx="106.0" cy="97.0" r="1.3" />
<circle cx="107.0" cy="126.0" r="1.3" />
<circle cx="108.0" cy="65.0" r="1.3" />
<circle cx="109.0" cy="78.0" r="1.3" />
<circle cx="110.0" cy="113.0" r="1.3" />
<circle cx="111.0" cy="110.0" r="1.3" />
<circle cx="112.0" cy="81.0" r="1.3" />
<circle cx="113.0" cy="82.0" r="1.3" />
<circle cx="114.0" cy="109.0" r="1.3" />
<circle cx="115.0" cy="114.0" r="1.3" />
<circle cx="116.0" cy="77.0" r="1.3" />
<circle cx="117.0" cy="66.0" r="1.3" />
<circle cx="118.0" cy="125.0" r="1.3" />
<circle cx="119.0" cy="98.0" r="1.3" />
<circle cx="120.0" cy="93.0" r="1.3" />
<circle cx="121.0" cy="90.0" r="1.3" />
<circle cx="122.0" cy="101.0" r="1.3" />
<circle cx="123.0" cy="122.0" r="1.3" />
<circle cx="124.0" cy="69.0" r="1.3" />
<circle cx="125.0" cy="74.0" r="1.3" />
<circle cx="126.0" cy="117.0" r="1.3" />
<circle cx="127.0" cy="106.0" r="1.3" />
<circle cx="128.0" cy="85.0" r="1.3" />
<circle cx="129.0" cy="171.0" r="1.3" />
<circle cx="130.0" cy="212.0" r="1.3" />
<circle cx="131.0" cy="235.0" r="1.3" />
<circle cx="132.0" cy="148.0" r="1.3" />
<circle cx="133.0" cy="139.0" r="1.3" />
<circle cx="134.0" cy="244.0" r="1.3" />
<circle cx="135.0" cy="203.0" r="1.3" />
<circle cx="136.0" cy="180.0" r="1.3" />
<circle cx="137.0" cy="187.0" r="1.3" />
<circle cx="138.0" cy="196.0" r="1.3" />
<circle cx="139.0" cy="251.0" r="1.3" />
<circle cx="140.0" cy="132.0" r="1.3" />
<circle cx="141.0" cy="155.0" r="1.3" />
<circle cx="142.0" cy="228.0" r="1.3" />
<circle cx="143.0" cy="219.0" r="1.3" />
<circle cx="144.0" cy="164.0" r="1.3" />
<circle cx="145.0" cy="163.0" r="1.3" />
<circle cx="146.0" cy="220.0" r="1.3" />
<circle cx="147.0" cy="227.0" r="1.3" />
<circle cx="148.0" cy="156.0" r="1.3" />
<circle cx="149.0" cy="131.0" r="1.3" />
<circle cx="150.0" cy="252.0" r="1.3" />
<circle cx="151.0" cy="195.0" r="1.3" />
<circle cx="152.0" cy="188.0" r="1.3" />
<circle cx="153.0" cy="179.0" r="1.3" />
<circle cx="154.0" cy="204.0" r="1.3" />
<circle cx="155.0" cy="243.0" r="1.3" />
<circle cx="156.0" cy="140.0" r="1.3" />
<circle cx="157.0" cy="147.0" r="1.3" />
<circle cx="158.0" cy="236.0" r="1.3" />
<circle cx="159.0" cy="211.0" r="1.3" />
<circle cx="160.0" cy="172.0" r="1.3" />
<circle cx="161.0" cy="175.0" r="1.3" />
<circle cx="162.0" cy="208.0" r="1.3" />
<circle cx="163.0" cy="239.0" r="1.3" />
<circle cx="164.0" cy="144.0" r="1.3" />
<circle cx="165.0" cy="143.0" r="1.3" />
<circle cx="166.0" cy="240.0" r="1.3" />
<circle cx="167.0" cy="207.0" r="1.3" />
<circle cx="168.0" cy="176.0" r="1.3" />
<circle cx="169.0" cy="191.0" r="1.3" />
<circle cx="170.0" cy="192.0" r="1.3" />
<circle cx="171.0" cy="255.0" r="1.3" />
<circle cx="172.0" cy="128.0" r="1.3" />
<circle cx="173.0" cy="159.0" r="1.3" />
<circle cx="174.0" cy="224.0" r="1.3" />
<circle cx="175.0" cy="223.0" r="1.3" />
<circle cx="176.0" cy="160.0" r="1.3" />
<circle cx="177.0" cy="167.0" r="1.3" />
<circle cx="178.0" cy="216.0" r="1.3" />
<circle cx="179.0" cy="231.0" r="1.3" />
<circle cx="180.0" cy="152.0" r="1.3" />
<circle cx="181.0" cy="135.0" r="1.3" />
<circle cx="182.0" cy="248.0" r="1.3" />
<circle cx="183.0" cy="199.0" r="1.3" />
<circle cx="184.0" cy="184.0" r="1.3" />
<circle cx="185.0" cy="183.0" r="1.3" />
<circle cx="186.0" cy="200.0" r="1.3" />
<circle cx="187.0" cy="247.0" r="1.3" />
<circle cx="188.0" cy="136.0" r="1.3" />
<circle cx="189.0" cy="151.0" r="1.3" />
<circle cx="190.0" cy="232.0" r="1.3" />
<circle cx="191.0" cy="215.0" r="1.3" />
<circle cx="192.0" cy="168.0" r="1.3" />
<circle cx="193.0" cy="169.0" r="1.3" />
<circle cx="194.0" cy="214.0" r="1.3" />
<circle cx="195.0" cy="233.0" r="1.3" />
<circle cx="196.0" cy="150.0" r="1.3" />
<circle cx="197.0" cy="137.0" r="1.3" />
<circle cx="198.0" cy="246.0" r="1.3" />
<circle cx="199.0" cy="201.0" r="1.3" />
<circle cx="200.0" cy="182.0" r="1.3" />
<circle cx="201.0" cy="185.0" r="1.3" />
<circle cx="202.0" cy="198.0" r="1.3" />
<circle cx="203.0" cy="249.0" r="1.3" />
<circle cx="204.0" cy="134.0" r="1.3" />
<circle cx="205.0" cy="153.0" r="1.3" />
<circle cx="206.0" cy="230.0" r="1.3" />
<circle cx="207.0" cy="217.0" r="1.3" />
<circle cx="208.0" cy="166.0" r="1.3" />
<circle cx="209.0" cy="161.0" r="1.3" />
<circle cx="210.0" cy="222.0" r="1.3" />
<circle cx="211.0" cy="225.0" r="1.3" />
<circle cx="212.0" cy="158.0" r="1.3" />
<circle cx="213.0" cy="129.0" r="1.3" />
<circle cx="214.0" cy="254.0" r="1.3" />
<circle cx="215.0" cy="193.0" r="1.3" />
<circle cx="216.0" cy="190.0" r="1.3" />
<circle cx="217.0" cy="177.0" r="1.3" />
<circle cx="218.0" cy="206.0" r="1.3" />
<circle cx="219.0" cy="241.0" r="1.3" />
<circle cx="220.0" cy="142.0" r="1.3" />
<circle cx="221.0" cy="145.0" r="1.3" />
<circle cx="222.0" cy="238.0" r="1.3" />
<circle cx="223.0" cy="209.0" r="1.3" />
<circle cx="224.0" cy="174.0" r="1.3" />
<circle cx="225.0" cy="173.0" r="1.3" />
<circle cx="226.0" cy="210.0" r="1.3" />
<circle cx="227.0" cy="237.0" r="1.3" />
<circle cx="228.0" cy="146.0" r="1.3" />
<circle cx="229.0" cy="141.0" r="1.3" />
<circle cx="230.0" cy="242.0" r="1.3" />
<circle cx="231.0" cy="205.0" r="1.3" />
<circle cx="232.0" cy="178.0" r="1.3" />
<circle cx="233.0" cy="189.0" r="1.3" />
<circle cx="234.0" cy="194.0" r="1.3" />
<circle cx="235.0" cy="253.0" r="1.3" />
<circle cx="236.0" cy="130.0" r="1.3" />
<circle cx="237.0" cy="157.0" r="1.3" />
<circle cx="238.0" cy="226.0" r="1.3" />
<circle cx="239.0" cy="221.0" r="1.3" />
<circle cx="240.0" cy="162.0" r="1.3" />
<circle cx="241.0" cy="165.0" r="1.3" />
<circle cx="242.0" cy="218.0" r="1.3" />
<circle cx="243.0" cy="229.0" r="1.3" />
<circle cx="244.0" cy="154.0" r="1.3" />
<circle cx="245.0" cy="133.0" r="1.3" />
<circle cx="246.0" cy="250.0" r="1.3" />
<circle cx="247.0" cy="197.0" r="1.3" />
<circle cx="248.0" cy="186.0" r="1.3" />
<circle cx="249.0" cy="181.0" r="1.3" />
<circle cx="250.0" cy="202.0" r="1.3" />
<circle cx="251.0" cy="245.0" r="1.3" />
<circle cx="252.0" cy="138.0" r="1.3" />
<circle cx="253.0" cy="149.0" r="1.3" />
<circle cx="254.0" cy="234.0" r="1.3" />
<circle cx="255.0" cy="213.0" r="1.3" />
<circle cx="256.0" cy="170.0" r="1.3" />
</g>
</svg>