<svg xmlns="http://www.w3.org/2000/svg" width="156.1" height="100.0" viewBox="-2.3 -5.0 166.1 110.0">
<g fill="none" stroke="black" stroke-width="0.4250%" transform="translate(0, 100.0000) scale(1.1765, -1.1765)">
<line x1="2.3" y1="0.0" x2="2.3" y2="3.0" />
<line x1="4.7" y1="0.0" x2="4.7" y2="5.0" />
<line x1="7.0" y1="0.0" x2="7.0" y2="7.0" />
<line x1="9.3" y1="0.0" x2="9.3" y2="9.0" />
<line x1="11.6" y1="0.0" x2="11.6" y2="11.0" />
<line x1="14.0" y1="0.0" x2="14.0" y2="13.0" />
<line x1="16.3" y1="0.0" x2="16.3" y2="14.0" />
<line x1="18.6" y1="0.0" x2="18.6" y2="15.0" />
<line x1="20.9" y1="0.0" x2="20.9" y2="17.0" />
<line x1="23.3" y1="0.0" x2="23.3" y2="19.0" />
<line x1="25.6" y1="0.0" x2="25.6" y2="21.0" />
<line x1="27.9" y1="0.0" x2="27.9" y2="22.0" />
<line x1="30.3" y1="0.0" x2="30.3" y2="23.0" />
<line x1="32.6" y1="0.0" x2="32.6" y2="25.0" />
<line x1="34.9" y1="0.0" x2="34.9" y2="26.0" />
<line x1="37.2" y1="0.0" x2="37.2" y2="27.0" />
<line x1="39.6" y1="0.0" x2="39.6" y2="29.0" />
<line x1="41.9" y1="0.0" x2="41.9" y2="30.0" />
<line x1="44.2" y1="0.0" x2="44.2" y2="31.0" />
<line x1="46.6" y1="0.0" x2="46.6" y2="33.0" />
<line x1="48.9" y1="0.0" x2="48.9" y2="35.0" />
<line x1="51.2" y1="0.0" x2="51.2" y2="37.0" />
<line x1="53.5" y1="0.0" x2="53.5" y2="38.0" />
<line x1="55.9" y1="0.0" x2="55.9" y2="39.0" />
<line x1="58.2" y1="0.0" x2="58.2" y2="41.0" />
<line x1="60.5" y1="0.0" x2="60.5" y2="42.0" />
<line x1="62.8" y1="0.0" x2="62.8" y2="43.0" />
<line x1="65.2" y1="0.0" x2="65.2" y2="45.0" />
<line x1="67.5" y1="0.0" x2="67.5" y2="46.0" />
<line x1="69.8" y1="0.0" x2="69.8" y2="47.0" />
<line x1="72.2" y1="0.0" x2="72.2" y2="49.0" />
<line x1="74.5" y1="0.0" x2="74.5" y2="50.0" />
<line x1="76.8" y1="0.0" x2="76.8" y2="51.0" />
<line x1="79.1" y1="0.0" x2="79.1" y2="53.0" />
<line x1="81.5" y1="0.0" x2="81.5" y2="54.0" />
<line x1="83.8" y1="0.0" x2="83.8" y2="55.0" />
<line x1="86.1" y1="0.0" x2="86.1" y2="57.0" />
<line x1="88.5" y1="0.0" x2="88.5" y2="58.0" />
<line x1="90.8" y1="0.0" x2="90.8" y2="59.0" />
<line x1="93.1" y1="0.0" x2="93.1" y2="60.0" />
<line x1="95.4" y1="0.0" x2="95.4" y2="61.0" />
<line x1="97.8" y1="0.0" x2="97.8" y2="62.0" />
<line x1="100.1" y1="0.0" x2="100.1" y2="63.0" />
<line x1="102.4" y1="0.0" x2="102.4" y2="65.0" />
<line x1="104.7" y1="0.0" x2="104.7" y2="67.0" />
<line x1="107.1" y1="0.0" x2="107.1" y2="69.0" />
<line x1="109.4" y1="0.0" x2="109.4" y2="70.0" />
<line x1="111.7" y1="0.0" x2="111.7" y2="71.0" />
<line x1="114.1" y1="0.0" x2="114.1" y2="73.0" />
<line x1="116.4" y1="0.0" x2="116.4" y2="74.0" />
<line x1="118.7" y1="0.0" x2="118.7" y2="75.0" />
<line x1="121.0" y1="0.0" x2="121.0" y2="77.0" />
<line x1="123.4" y1="0.0" x2="123.4" y2="78.0" />
<line x1="125.7" y1="0.0" x2="125.7" y2="79.0" />
<line x1="128.0" y1="0.0" x2="128.0" y2="81.0" />
<line x1="130.4" y1="0.0" x2="130.4" y2="82.0" />
<line x1="132.7" y1="0.0" x2="132.7" y2="83.0" />
<line x1="135.0" y1="0.0" x2="135.0" y2="85.0" />
</g>
</svg>