<svg xmlns="http://www.w3.org/2000/svg" width="161.8" height="100.0" viewBox="-3.9 -5.0 171.8 110.0">
<g fill="none" stroke="black" stroke-width="0.4050%" transform="translate(0, 100.0000) scale(1.2346, -1.2346)">
<circle cx="0.9" cy="1.0" r="0.4" />
<circle cx="1.8" cy="2.0" r="0.4" />
<circle cx="2.6" cy="3.0" r="0.4" />
<circle cx="3.5" cy="4.0" r="0.4" />
<circle cx="4.4" cy="5.0" r="0.4" />
<circle cx="5.3" cy="6.0" r="0.4" />
<circle cx="6.2" cy="7.0" r="0.4" />
<circle cx="7.0" cy="8.0" r="0.4" />
<circle cx="7.9" cy="9.0" r="0.4" />
<circle cx="8.8" cy="0.0" r="0.4" />
<circle cx="9.7" cy="1.0" r="0.4" />
<circle cx="10.6" cy="2.0" r="0.4" />
<circle cx="11.4" cy="3.0" r="0.4" />
<circle cx="12.3" cy="4.0" r="0.4" />
<circle cx="13.2" cy="5.0" r="0.4" />
<circle cx="14.1" cy="6.0" r="0.4" />
<circle cx="15.0" cy="7.0" r="0.4" />
<circle cx="15.8" cy="8.0" r="0.4" />
<circle cx="16.7" cy="9.0" r="0.4" />
<circle cx="17.6" cy="0.0" r="0.4" />
<circle cx="18.5" cy="2.0" r="0.4" />
<circle cx="19.4" cy="4.0" r="0.4" />
<circle cx="20.2" cy="6.0" r="0.4" />
<circle cx="21.1" cy="8.0" r="0.4" />
<circle cx="22.0" cy="10.0" r="0.4" />
<circle cx="22.9" cy="12.0" r="0.4" />
<circle cx="23.7" cy="14.0" r="0.4" />
<circle cx="24.6" cy="16.0" r="0.4" />
<circle cx="25.5" cy="18.0" r="0.4" />
<circle cx="26.4" cy="0.0" r="0.4" />
<circle cx="27.3" cy="3.0" r="0.4" />
<circle cx="28.1" cy="6.0" r="0.4" />
<circle cx="29.0" cy="9.0" r="0.4" />
<circle cx="29.9" cy="12.0" r="0.4" />
<circle cx="30.8" cy="15.0" r="0.4" />
<circle cx="31.7" cy="18.0" r="0.4" />
<circle cx="32.5" cy="21.0" r="0.4" />
<circle cx="33.4" cy="24.0" r="0.4" />
<circle cx="34.3" cy="27.0" r="0.4" />
<circle cx="35.2" cy="0.0" r="0.4" />
<circle cx="36.1" cy="4.0" r="0.4" />
<circle cx="36.9" cy="8.0" r="0.4" />
<circle cx="37.8" cy="12.0" r="0.4" />
<circle cx="38.7" cy="16.0" r="0.4" />
<circle cx="39.6" cy="20.0" r="0.4" />
<circle cx="40.5" cy="24.0" r="0.4" />
<circle cx="41.3" cy="28.0" r="0.4" />
<circle cx="42.2" cy="32.0" r="0.4" />
<circle cx="43.1" cy="36.0" r="0.4" />
<circle cx="44.0" cy="0.0" r="0.4" />
<circle cx="44.9" cy="5.0" r="0.4" />
<circle cx="45.7" cy="10.0" r="0.4" />
<circle cx="46.6" cy="15.0" r="0.4" />
<circle cx="47.5" cy="20.0" r="0.4" />
<circle cx="48.4" cy="25.0" r="0.4" />
<circle cx="49.3" cy="30.0" r="0.4" />
<circle cx="50.1" cy="35.0" r="0.4" />
<circle cx="51.0" cy="40.0" r="0.4" />
<circle cx="51.9" cy="45.0" r="0.4" />
<circle cx="52.8" cy="0.0" r="0.4" />
<circle cx="53.7" cy="6.0" r="0.4" />
<circle cx="54.5" cy="12.0" r="0.4" />
<circle cx="55.4" cy="18.0" r="0.4" />
<circle cx="56.3" cy="24.0" r="0.4" />
<circle cx="57.2" cy="30.0" r="0.4" />
<circle cx="58.1" cy="36.0" r="0.4" />
<circle cx="58.9" cy="42.0" r="0.4" />
<circle cx="59.8" cy="48.0" r="0.4" />
<circle cx="60.7" cy="54.0" r="0.4" />
<circle cx="61.6" cy="0.0" r="0.4" />
<circle cx="62.5" cy="7.0" r="0.4" />
<circle cx="63.3" cy="14.0" r="0.4" />
<circle cx="64.2" cy="21.0" r="0.4" />
<circle cx="65.1" cy="28.0" r="0.4" />
<circle cx="66.0" cy="35.0" r="0.4" />
<circle cx="66.8" cy="42.0" r="0.4" />
<circle cx="67.7" cy="49.0" r="0.4" />
<circle cx="68.6" cy="56.0" r="0.4" />
<circle cx="69.5" cy="63.0" r="0.4" />
<circle cx="70.4" cy="0.0" r="0.4" />
<circle cx="71.2" cy="8.0" r="0.4" />
<circle cx="72.1" cy="16.0" r="0.4" />
<circle cx="73.0" cy="24.0" r="0.4" />
<circle cx="73.9" cy="32.0" r="0.4" />
<circle cx="74.8" cy="40.0" r="0.4" />
<circle cx="75.6" cy="48.0" r="0.4" />
<circle cx="76.5" cy="56.0" r="0.4" />
<circle cx="77.4" cy="64.0" r="0.4" />
<circle cx="78.3" cy="72.0" r="0.4" />
<circle cx="79.2" cy="0.0" r="0.4" />
<circle cx="80.0" cy="9.0" r="0.4" />
<circle cx="80.9" cy="18.0" r="0.4" />
<circle cx="81.8" cy="27.0" r="0.4" />
<circle cx="82.7" cy="36.0" r="0.4" />
<circle cx="83.6" cy="45.0" r="0.4" />
<circle cx="84.4" cy="54.0" r="0.4" />
<circle cx="85.3" cy="63.0" r="0.4" />
<circle cx="86.2" cy="72.0" r="0.4" />
<circle cx="87.1" cy="81.0" r="0.4" />
<circle cx="88.0" cy="0.0" r="0.4" />
<circle cx="88.8" cy="0.0" r="0.4" />
<circle cx="89.7" cy="0.0" r="0.4" />
<circle cx="90.6" cy="0.0" r="0.4" />
<circle cx="91.5" cy="0.0" r="0.4" />
<circle cx="92.4" cy="0.0" r="0.4" />
<circle cx="93.2" cy="0.0" r="0.4" />
<circle cx="94.1" cy="0.0" r="0.4" />
<circle cx="95.0" cy="0.0" r="0.4" />
<circle cx="95.9" cy="0.0" r="0.4" />
<circle cx="96.8" cy="0.0" r="0.4" />
<circle cx="97.6" cy="1.0" r="0.4" />
<circle cx="98.5" cy="2.0" r="0.4" />
<circle cx="99.4" cy="3.0" r="0.4" />
<circle cx="100.3" cy="4.0" r="0.4" />
<circle cx="101.2" cy="5.0" r="0.4" />
<circle cx="102.0" cy="6.0" r="0.4" />
<circle cx="102.9" cy="7.0" r="0.4" />
<circle cx="103.8" cy="8.0" r="0.4" />
<circle cx="104.7" cy="9.0" r="0.4" />
<circle cx="105.6" cy="0.0" r="0.4" />
<circle cx="106.4" cy="2.0" r="0.4" />
<circle cx="107.3" cy="4.0" r="0.4" />
<circle cx="108.2" cy="6.0" r="0.4" />
<circle cx="109.1" cy="8.0" r="0.4" />
<circle cx="110.0" cy="10.0" r="0.4" />
<circle cx="110.8" cy="12.0" r="0.4" />
<circle cx="111.7" cy="14.0" r="0.4" />
<circle cx="112.6" cy="16.0" r="0.4" />
<circle cx="113.5" cy="18.0" r="0.4" />
<circle cx="114.3" cy="0.0" r="0.4" />
<circle cx="115.2" cy="3.0" r="0.4" />
<circle cx="116.1" cy="6.0" r="0.4" />
<circle cx="117.0" cy="9.0" r="0.4" />
<circle cx="117.9" cy="12.0" r="0.4" />
<circle cx="118.7" cy="15.0" r="0.4" />
<circle cx="119.6" cy="18.0" r="0.4" />
<circle cx="120.5" cy="21.0" r="0.4" />
<circle cx="121.4" cy="24.0" r="0.4" />
<circle cx="122.3" cy="27.0" r="0.4" />
<circle cx="123.1" cy="0.0" r="0.4" />
<circle cx="124.0" cy="4.0" r="0.4" />
<circle cx="124.9" cy="8.0" r="0.4" />
<circle cx="125.8" cy="12.0" r="0.4" />
<circle cx="126.7" cy="16.0" r="0.4" />
<circle cx="127.5" cy="20.0" r="0.4" />
<circle cx="128.4" cy="24.0" r="0.4" />
<circle cx="129.3" cy="28.0" r="0.4" />
<circle cx="130.2" cy="32.0" r="0.4" />
<circle cx="131.1" cy="36.0" r="0.4" />
<circle cx="131.9" cy="0.0" r="0.4" />
</g>
</svg>