<svg xmlns="http://www.w3.org/2000/svg" width="161.8" height="100.0" viewBox="-3.46 -5.00 171.80 110.00">
<g fill="none" stroke="black" stroke-width="0.0450%" transform="translate(0, 100.0000) scale(11.1111, -11.1111)">

<line x1="0.28" y1="0.00" x2="0.28" y2="7.00" />
<line x1="0.42" y1="0.00" x2="0.42" y2="1.00" />
<line x1="0.55" y1="0.00" x2="0.55" y2="7.00" />
<line x1="0.69" y1="0.00" x2="0.69" y2="4.00" />
<line x1="0.83" y1="0.00" x2="0.83" y2="2.00" />
<line x1="0.97" y1="0.00" x2="0.97" y2="8.00" />
<line x1="1.11" y1="0.00" x2="1.11" y2="1.00" />
<line x1="1.25" y1="0.00" x2="1.25" y2="1.00" />
<line x1="1.39" y1="0.00" x2="1.39" y2="3.00" />
<line x1="1.53" y1="0.00" x2="1.53" y2="1.00" />
<line x1="1.66" y1="0.00" x2="1.66" y2="2.00" />

<line x1="1.94" y1="0.00" x2="1.94" y2="2.00" />
<line x1="2.08" y1="0.00" x2="2.08" y2="3.00" />
<line x1="2.22" y1="0.00" x2="2.22" y2="1.00" />
<line x1="2.36" y1="0.00" x2="2.36" y2="3.00" />
<line x1="2.50" y1="0.00" x2="2.50" y2="4.00" />
<line x1="2.64" y1="0.00" x2="2.64" y2="6.00" />
<line x1="2.77" y1="0.00" x2="2.77" y2="5.00" />
<line x1="2.91" y1="0.00" x2="2.91" y2="5.00" />
<line x1="3.05" y1="0.00" x2="3.05" y2="5.00" />
<line x1="3.19" y1="0.00" x2="3.19" y2="7.00" />
<line x1="3.33" y1="0.00" x2="3.33" y2="7.00" />
<line x1="3.47" y1="0.00" x2="3.47" y2="8.00" />
<line x1="3.61" y1="0.00" x2="3.61" y2="8.00" />
<line x1="3.74" y1="0.00" x2="3.74" y2="9.00" />
<line x1="3.88" y1="0.00" x2="3.88" y2="6.00" />
<line x1="4.02" y1="0.00" x2="4.02" y2="8.00" />
<line x1="4.16" y1="0.00" x2="4.16" y2="1.00" />
<line x1="4.30" y1="0.00" x2="4.30" y2="1.00" />
<line x1="4.44" y1="0.00" x2="4.44" y2="1.00" />
<line x1="4.58" y1="0.00" x2="4.58" y2="2.00" />
<line x1="4.72" y1="0.00" x2="4.72" y2="3.00" />
<line x1="4.85" y1="0.00" x2="4.85" y2="1.00" />
<line x1="4.99" y1="0.00" x2="4.99" y2="8.00" />

<line x1="5.27" y1="0.00" x2="5.27" y2="6.00" />
<line x1="5.41" y1="0.00" x2="5.41" y2="1.00" />
<line x1="5.55" y1="0.00" x2="5.55" y2="7.00" />

<line x1="5.82" y1="0.00" x2="5.82" y2="9.00" />
<line x1="5.96" y1="0.00" x2="5.96" y2="2.00" />
<line x1="6.10" y1="0.00" x2="6.10" y2="8.00" />
<line x1="6.24" y1="0.00" x2="6.24" y2="4.00" />
<line x1="6.38" y1="0.00" x2="6.38" y2="3.00" />
<line x1="6.52" y1="0.00" x2="6.52" y2="2.00" />
<line x1="6.66" y1="0.00" x2="6.66" y2="1.00" />
<line x1="6.80" y1="0.00" x2="6.80" y2="1.00" />
<line x1="6.93" y1="0.00" x2="6.93" y2="7.00" />
<line x1="7.07" y1="0.00" x2="7.07" y2="2.00" />
<line x1="7.21" y1="0.00" x2="7.21" y2="6.00" />
<line x1="7.35" y1="0.00" x2="7.35" y2="2.00" />
<line x1="7.49" y1="0.00" x2="7.49" y2="1.00" />
<line x1="7.63" y1="0.00" x2="7.63" y2="3.00" />
<line x1="7.77" y1="0.00" x2="7.77" y2="3.00" />
<line x1="7.91" y1="0.00" x2="7.91" y2="5.00" />
<line x1="8.04" y1="0.00" x2="8.04" y2="5.00" />
<line x1="8.18" y1="0.00" x2="8.18" y2="3.00" />
<line x1="8.32" y1="0.00" x2="8.32" y2="2.00" />
<line x1="8.46" y1="0.00" x2="8.46" y2="2.00" />

<line x1="8.74" y1="0.00" x2="8.74" y2="4.00" />
<line x1="8.88" y1="0.00" x2="8.88" y2="3.00" />
<line x1="9.01" y1="0.00" x2="9.01" y2="2.00" />
<line x1="9.15" y1="0.00" x2="9.15" y2="5.00" />
<line x1="9.29" y1="0.00" x2="9.29" y2="4.00" />
<line x1="9.43" y1="0.00" x2="9.43" y2="6.00" />
<line x1="9.57" y1="0.00" x2="9.57" y2="5.00" />

<line x1="9.85" y1="0.00" x2="9.85" y2="5.00" />
<line x1="9.99" y1="0.00" x2="9.99" y2="1.00" />
<line x1="10.12" y1="0.00" x2="10.12" y2="1.00" />
<line x1="10.26" y1="0.00" x2="10.26" y2="6.00" />
<line x1="10.40" y1="0.00" x2="10.40" y2="5.00" />
<line x1="10.54" y1="0.00" x2="10.54" y2="8.00" />
<line x1="10.68" y1="0.00" x2="10.68" y2="1.00" />
<line x1="10.82" y1="0.00" x2="10.82" y2="2.00" />
<line x1="10.96" y1="0.00" x2="10.96" y2="6.00" />
<line x1="11.10" y1="0.00" x2="11.10" y2="7.00" />
<line x1="11.23" y1="0.00" x2="11.23" y2="3.00" />
<line x1="11.37" y1="0.00" x2="11.37" y2="8.00" />
<line x1="11.51" y1="0.00" x2="11.51" y2="7.00" />
<line x1="11.65" y1="0.00" x2="11.65" y2="8.00" />
<line x1="11.79" y1="0.00" x2="11.79" y2="9.00" />
<line x1="11.93" y1="0.00" x2="11.93" y2="5.00" />
<line x1="12.07" y1="0.00" x2="12.07" y2="7.00" />
<line x1="12.20" y1="0.00" x2="12.20" y2="1.00" />
<line x1="12.34" y1="0.00" x2="12.34" y2="8.00" />
<line x1="12.48" y1="0.00" x2="12.48" y2="2.00" />
<line x1="12.62" y1="0.00" x2="12.62" y2="8.00" />
<line x1="12.76" y1="0.00" x2="12.76" y2="6.00" />
<line x1="12.90" y1="0.00" x2="12.90" y2="1.00" />
<line x1="13.04" y1="0.00" x2="13.04" y2="9.00" />
<line x1="13.18" y1="0.00" x2="13.18" y2="9.00" />
<line x1="13.31" y1="0.00" x2="13.31" y2="3.00" />
<line x1="13.45" y1="0.00" x2="13.45" y2="6.00" />
<line x1="13.59" y1="0.00" x2="13.59" y2="7.00" />
<line x1="13.73" y1="0.00" x2="13.73" y2="9.00" />

<line x1="14.01" y1="0.00" x2="14.01" y2="1.00" />
<line x1="14.15" y1="0.00" x2="14.15" y2="4.00" />
<line x1="14.28" y1="0.00" x2="14.28" y2="6.00" />
<line x1="14.42" y1="0.00" x2="14.42" y2="1.00" />

<line x1="14.70" y1="0.00" x2="14.70" y2="1.00" />
</g>
</svg>