<svg xmlns="http://www.w3.org/2000/svg" width="161.8" height="100.0" viewBox="5 -5 172 110">
<g fill="none" stroke="black" stroke-width="21.7600%" transform="translate(0, 100.0000) scale(0.0230, -0.0230)">
<polyline points="440,0 880,0 880,2 1320,2 1320,4 1760,4 1760,20 2201,20 2201,40 2641,40 2641,200 3081,200 3081,202 3521,202 3521,400 3961,400 3961,1822 4401,1822 4401,1824 4841,1824 4841,1902 5281,1902 5281,2000 5721,2000 5721,2002 6161,2002 6161,2020 6602,2020 6602,4000 7042,4000 7042,4352 7482,4352" />
</g>
</svg>