<svg xmlns="http://www.w3.org/2000/svg" width="161.8" height="100.0" viewBox="-2.51 1.25 171.80 110.00">
<g fill="none" stroke="black" stroke-width="0.0800%" transform="translate(0, 112.5000) scale(6.2500, -6.2500)">
<polyline points="0.40,1.00 0.80,1.00 0.80,1.00 1.19,1.00 1.19,2.00 1.59,2.00 1.59,2.00 1.99,2.00 1.99,3.00 2.39,3.00 2.39,3.00 2.79,3.00 2.79,4.00 3.19,4.00 3.19,4.00 3.58,4.00 3.58,4.00 3.98,4.00 3.98,5.00 4.38,5.00 4.38,5.00 4.78,5.00 4.78,6.00 5.18,6.00 5.18,6.00 5.58,6.00 5.58,6.00 5.97,6.00 5.97,6.00 6.37,6.00 6.37,7.00 6.77,7.00 6.77,7.00 7.17,7.00 7.17,7.00 7.57,7.00 7.57,8.00 7.97,8.00 7.97,8.00 8.36,8.00 8.36,8.00 8.76,8.00 8.76,8.00 9.16,8.00 9.16,9.00 9.56,9.00 9.56,9.00 9.96,9.00 9.96,9.00 10.36,9.00 10.36,10.00 10.75,10.00 10.75,10.00 11.15,10.00 11.15,10.00 11.55,10.00 11.55,10.00 11.95,10.00 11.95,10.00 12.35,10.00 12.35,11.00 12.75,11.00 12.75,11.00 13.14,11.00 13.14,11.00 13.54,11.00 13.54,11.00 13.94,11.00 13.94,12.00 14.34,12.00 14.34,12.00 14.74,12.00 14.74,12.00 15.13,12.00 15.13,12.00 15.53,12.00 15.53,12.00 15.93,12.00 15.93,13.00 16.33,13.00 16.33,13.00 16.73,13.00 16.73,13.00 17.13,13.00 17.13,13.00 17.52,13.00 17.52,13.00 17.92,13.00 17.92,14.00 18.32,14.00 18.32,14.00 18.72,14.00 18.72,14.00 19.12,14.00 19.12,14.00 19.52,14.00 19.52,15.00 19.91,15.00 19.91,15.00 20.31,15.00 20.31,15.00 20.71,15.00 20.71,15.00 21.11,15.00 21.11,15.00 21.51,15.00 21.51,15.00 21.91,15.00 21.91,16.00 22.30,16.00 22.30,16.00 22.70,16.00 22.70,16.00 23.10,16.00 23.10,16.00 23.50,16.00 23.50,16.00 23.90,16.00 23.90,16.00 24.30,16.00 24.30,16.00 24.69,16.00 24.69,17.00 25.09,17.00 25.09,17.00 25.49,17.00 25.49,17.00 25.89,17.00 25.89,17.00 26.29,17.00" />
</g>
</svg>