<svg xmlns="http://www.w3.org/2000/svg" width="161.8" height="100.0" viewBox="-3.474 -5.000 171.803 110.000">
<g fill="none" stroke="black" stroke-width="0.0100%" transform="translate(0, 100.0000) scale(50.0000, -50.0000)">
<line x1="0.031" y1="0.000" x2="0.031" y2="1.000" />
<line x1="0.061" y1="0.000" x2="0.061" y2="1.000" />

<line x1="0.122" y1="0.000" x2="0.122" y2="1.000" />
<line x1="0.153" y1="0.000" x2="0.153" y2="1.000" />


<line x1="0.244" y1="0.000" x2="0.244" y2="1.000" />
<line x1="0.275" y1="0.000" x2="0.275" y2="1.000" />
<line x1="0.305" y1="0.000" x2="0.305" y2="1.000" />


<line x1="0.397" y1="0.000" x2="0.397" y2="1.000" />


<line x1="0.488" y1="0.000" x2="0.488" y2="1.000" />
<line x1="0.519" y1="0.000" x2="0.519" y2="1.000" />
<line x1="0.550" y1="0.000" x2="0.550" y2="1.000" />

<line x1="0.611" y1="0.000" x2="0.611" y2="1.000" />




<line x1="0.763" y1="0.000" x2="0.763" y2="2.000" />
<line x1="0.794" y1="0.000" x2="0.794" y2="1.000" />


<line x1="0.885" y1="0.000" x2="0.885" y2="1.000" />


<line x1="0.977" y1="0.000" x2="0.977" y2="1.000" />

<line x1="1.038" y1="0.000" x2="1.038" y2="1.000" />

<line x1="1.099" y1="0.000" x2="1.099" y2="1.000" />
<line x1="1.130" y1="0.000" x2="1.130" y2="1.000" />


<line x1="1.221" y1="0.000" x2="1.221" y2="1.000" />
<line x1="1.252" y1="0.000" x2="1.252" y2="1.000" />



<line x1="1.374" y1="0.000" x2="1.374" y2="1.000" />



<line x1="1.496" y1="0.000" x2="1.496" y2="1.000" />
<line x1="1.526" y1="0.000" x2="1.526" y2="2.000" />

<line x1="1.588" y1="0.000" x2="1.588" y2="1.000" />
<line x1="1.618" y1="0.000" x2="1.618" y2="1.000" />




<line x1="1.771" y1="0.000" x2="1.771" y2="1.000" />


<line x1="1.862" y1="0.000" x2="1.862" y2="1.000" />


<line x1="1.954" y1="0.000" x2="1.954" y2="1.000" />
<line x1="1.984" y1="0.000" x2="1.984" y2="2.000" />


<line x1="2.076" y1="0.000" x2="2.076" y2="1.000" />



<line x1="2.198" y1="0.000" x2="2.198" y2="1.000" />
<line x1="2.229" y1="0.000" x2="2.229" y2="1.000" />
<line x1="2.259" y1="0.000" x2="2.259" y2="1.000" />





<line x1="2.442" y1="0.000" x2="2.442" y2="1.000" />
<line x1="2.473" y1="0.000" x2="2.473" y2="1.000" />
<line x1="2.503" y1="0.000" x2="2.503" y2="1.000" />


<line x1="2.595" y1="0.000" x2="2.595" y2="2.000" />



<line x1="2.717" y1="0.000" x2="2.717" y2="1.000" />
<line x1="2.748" y1="0.000" x2="2.748" y2="1.000" />






<line x1="2.961" y1="0.000" x2="2.961" y2="1.000" />
<line x1="2.992" y1="0.000" x2="2.992" y2="1.000" />

<line x1="3.053" y1="0.000" x2="3.053" y2="2.000" />
<line x1="3.083" y1="0.000" x2="3.083" y2="1.000" />


<line x1="3.175" y1="0.000" x2="3.175" y2="1.000" />

<line x1="3.236" y1="0.000" x2="3.236" y2="1.000" />

</g>
</svg>