<svg xmlns="http://www.w3.org/2000/svg" width="161.8" height="100.0" viewBox="-3.91 -5.00 171.80 110.00">
<g fill="none" stroke="black" stroke-width="0.0200%" transform="translate(0, 100.0000) scale(25.0000, -25.0000)">


<line x1="0.13" y1="0.00" x2="0.13" y2="1.00" />


<line x1="0.26" y1="0.00" x2="0.26" y2="1.00" />


<line x1="0.39" y1="0.00" x2="0.39" y2="2.00" />


<line x1="0.52" y1="0.00" x2="0.52" y2="1.00" />


<line x1="0.65" y1="0.00" x2="0.65" y2="1.00" />


<line x1="0.78" y1="0.00" x2="0.78" y2="2.00" />


<line x1="0.91" y1="0.00" x2="0.91" y2="1.00" />


<line x1="1.04" y1="0.00" x2="1.04" y2="1.00" />


<line x1="1.17" y1="0.00" x2="1.17" y2="3.00" />


<line x1="1.30" y1="0.00" x2="1.30" y2="1.00" />


<line x1="1.43" y1="0.00" x2="1.43" y2="1.00" />


<line x1="1.56" y1="0.00" x2="1.56" y2="2.00" />


<line x1="1.69" y1="0.00" x2="1.69" y2="1.00" />


<line x1="1.82" y1="0.00" x2="1.82" y2="1.00" />


<line x1="1.95" y1="0.00" x2="1.95" y2="2.00" />


<line x1="2.08" y1="0.00" x2="2.08" y2="1.00" />


<line x1="2.22" y1="0.00" x2="2.22" y2="1.00" />


<line x1="2.35" y1="0.00" x2="2.35" y2="3.00" />


<line x1="2.48" y1="0.00" x2="2.48" y2="1.00" />


<line x1="2.61" y1="0.00" x2="2.61" y2="1.00" />


<line x1="2.74" y1="0.00" x2="2.74" y2="2.00" />


<line x1="2.87" y1="0.00" x2="2.87" y2="1.00" />


<line x1="3.00" y1="0.00" x2="3.00" y2="1.00" />


<line x1="3.13" y1="0.00" x2="3.13" y2="2.00" />


<line x1="3.26" y1="0.00" x2="3.26" y2="1.00" />


<line x1="3.39" y1="0.00" x2="3.39" y2="1.00" />


<line x1="3.52" y1="0.00" x2="3.52" y2="4.00" />


<line x1="3.65" y1="0.00" x2="3.65" y2="1.00" />


<line x1="3.78" y1="0.00" x2="3.78" y2="1.00" />


<line x1="3.91" y1="0.00" x2="3.91" y2="2.00" />


<line x1="4.04" y1="0.00" x2="4.04" y2="1.00" />


<line x1="4.17" y1="0.00" x2="4.17" y2="1.00" />


<line x1="4.30" y1="0.00" x2="4.30" y2="2.00" />


<line x1="4.43" y1="0.00" x2="4.43" y2="1.00" />


<line x1="4.56" y1="0.00" x2="4.56" y2="1.00" />


<line x1="4.69" y1="0.00" x2="4.69" y2="3.00" />


<line x1="4.82" y1="0.00" x2="4.82" y2="1.00" />


<line x1="4.95" y1="0.00" x2="4.95" y2="1.00" />


<line x1="5.08" y1="0.00" x2="5.08" y2="2.00" />


<line x1="5.21" y1="0.00" x2="5.21" y2="1.00" />


<line x1="5.34" y1="0.00" x2="5.34" y2="1.00" />


<line x1="5.47" y1="0.00" x2="5.47" y2="2.00" />


<line x1="5.60" y1="0.00" x2="5.60" y2="1.00" />


<line x1="5.73" y1="0.00" x2="5.73" y2="1.00" />


<line x1="5.86" y1="0.00" x2="5.86" y2="3.00" />


<line x1="5.99" y1="0.00" x2="5.99" y2="1.00" />


<line x1="6.12" y1="0.00" x2="6.12" y2="1.00" />


<line x1="6.25" y1="0.00" x2="6.25" y2="2.00" />


<line x1="6.39" y1="0.00" x2="6.39" y2="1.00" />


<line x1="6.52" y1="0.00" x2="6.52" y2="1.00" />
</g>
</svg>