<svg xmlns="http://www.w3.org/2000/svg" width="161.8" height="100.0" viewBox="-3.7 -29.8 171.8 110.0">
<g fill="none" stroke="black" stroke-width="0.8050%" transform="translate(0, 50.3106) scale(0.6211, -0.6211)">
<circle cx="2.1" cy="0.0" r="0.8" />
<circle cx="2.1" cy="0.0" r="0.8" />
<circle cx="4.2" cy="1.0" r="0.8" />
<circle cx="6.4" cy="-1.0" r="0.8" />
<circle cx="8.5" cy="3.0" r="0.8" />
<circle cx="10.6" cy="4.0" r="0.8" />
<circle cx="12.7" cy="2.0" r="0.8" />
<circle cx="14.8" cy="-3.0" r="0.8" />
<circle cx="16.9" cy="-2.0" r="0.8" />
<circle cx="19.1" cy="-4.0" r="0.8" />
<circle cx="21.2" cy="9.0" r="0.8" />
<circle cx="23.3" cy="10.0" r="0.8" />
<circle cx="25.4" cy="8.0" r="0.8" />
<circle cx="27.5" cy="12.0" r="0.8" />
<circle cx="29.7" cy="13.0" r="0.8" />
<circle cx="31.8" cy="11.0" r="0.8" />
<circle cx="33.9" cy="6.0" r="0.8" />
<circle cx="36.0" cy="7.0" r="0.8" />
<circle cx="38.1" cy="5.0" r="0.8" />
<circle cx="40.2" cy="-9.0" r="0.8" />
<circle cx="42.4" cy="-8.0" r="0.8" />
<circle cx="44.5" cy="-10.0" r="0.8" />
<circle cx="46.6" cy="-6.0" r="0.8" />
<circle cx="48.7" cy="-5.0" r="0.8" />
<circle cx="50.8" cy="-7.0" r="0.8" />
<circle cx="52.9" cy="-12.0" r="0.8" />
<circle cx="55.1" cy="-11.0" r="0.8" />
<circle cx="57.2" cy="-13.0" r="0.8" />
<circle cx="59.3" cy="27.0" r="0.8" />
<circle cx="61.4" cy="28.0" r="0.8" />
<circle cx="63.5" cy="26.0" r="0.8" />
<circle cx="65.7" cy="30.0" r="0.8" />
<circle cx="67.8" cy="31.0" r="0.8" />
<circle cx="69.9" cy="29.0" r="0.8" />
<circle cx="72.0" cy="24.0" r="0.8" />
<circle cx="74.1" cy="25.0" r="0.8" />
<circle cx="76.2" cy="23.0" r="0.8" />
<circle cx="78.4" cy="36.0" r="0.8" />
<circle cx="80.5" cy="37.0" r="0.8" />
<circle cx="82.6" cy="35.0" r="0.8" />
<circle cx="84.7" cy="39.0" r="0.8" />
<circle cx="86.8" cy="40.0" r="0.8" />
<circle cx="89.0" cy="38.0" r="0.8" />
<circle cx="91.1" cy="33.0" r="0.8" />
<circle cx="93.2" cy="34.0" r="0.8" />
<circle cx="95.3" cy="32.0" r="0.8" />
<circle cx="97.4" cy="18.0" r="0.8" />
<circle cx="99.5" cy="19.0" r="0.8" />
<circle cx="101.7" cy="17.0" r="0.8" />
<circle cx="103.8" cy="21.0" r="0.8" />
<circle cx="105.9" cy="22.0" r="0.8" />
<circle cx="108.0" cy="20.0" r="0.8" />
<circle cx="110.1" cy="15.0" r="0.8" />
<circle cx="112.2" cy="16.0" r="0.8" />
<circle cx="114.4" cy="14.0" r="0.8" />
<circle cx="116.5" cy="-27.0" r="0.8" />
<circle cx="118.6" cy="-26.0" r="0.8" />
<circle cx="120.7" cy="-28.0" r="0.8" />
<circle cx="122.8" cy="-24.0" r="0.8" />
<circle cx="125.0" cy="-23.0" r="0.8" />
<circle cx="127.1" cy="-25.0" r="0.8" />
<circle cx="129.2" cy="-30.0" r="0.8" />
<circle cx="131.3" cy="-29.0" r="0.8" />
<circle cx="133.4" cy="-31.0" r="0.8" />
<circle cx="135.5" cy="-18.0" r="0.8" />
<circle cx="137.7" cy="-17.0" r="0.8" />
<circle cx="139.8" cy="-19.0" r="0.8" />
<circle cx="141.9" cy="-15.0" r="0.8" />
<circle cx="144.0" cy="-14.0" r="0.8" />
<circle cx="146.1" cy="-16.0" r="0.8" />
<circle cx="148.3" cy="-21.0" r="0.8" />
<circle cx="150.4" cy="-20.0" r="0.8" />
<circle cx="152.5" cy="-22.0" r="0.8" />
<circle cx="154.6" cy="-36.0" r="0.8" />
<circle cx="156.7" cy="-35.0" r="0.8" />
<circle cx="158.8" cy="-37.0" r="0.8" />
<circle cx="161.0" cy="-33.0" r="0.8" />
<circle cx="163.1" cy="-32.0" r="0.8" />
<circle cx="165.2" cy="-34.0" r="0.8" />
<circle cx="167.3" cy="-39.0" r="0.8" />
<circle cx="169.4" cy="-38.0" r="0.8" />
<circle cx="171.6" cy="-40.0" r="0.8" />
<circle cx="173.7" cy="81.0" r="0.8" />
<circle cx="175.8" cy="82.0" r="0.8" />
<circle cx="177.9" cy="80.0" r="0.8" />
<circle cx="180.0" cy="84.0" r="0.8" />
<circle cx="182.1" cy="85.0" r="0.8" />
<circle cx="184.3" cy="83.0" r="0.8" />
<circle cx="186.4" cy="78.0" r="0.8" />
<circle cx="188.5" cy="79.0" r="0.8" />
<circle cx="190.6" cy="77.0" r="0.8" />
<circle cx="192.7" cy="90.0" r="0.8" />
<circle cx="194.8" cy="91.0" r="0.8" />
<circle cx="197.0" cy="89.0" r="0.8" />
<circle cx="199.1" cy="93.0" r="0.8" />
<circle cx="201.2" cy="94.0" r="0.8" />
<circle cx="203.3" cy="92.0" r="0.8" />
<circle cx="205.4" cy="87.0" r="0.8" />
<circle cx="207.6" cy="88.0" r="0.8" />
<circle cx="209.7" cy="86.0" r="0.8" />
<circle cx="211.8" cy="72.0" r="0.8" />
<circle cx="213.9" cy="73.0" r="0.8" />
<circle cx="216.0" cy="71.0" r="0.8" />
<circle cx="218.1" cy="75.0" r="0.8" />
<circle cx="220.3" cy="76.0" r="0.8" />
<circle cx="222.4" cy="74.0" r="0.8" />
<circle cx="224.5" cy="69.0" r="0.8" />
<circle cx="226.6" cy="70.0" r="0.8" />
<circle cx="228.7" cy="68.0" r="0.8" />
<circle cx="230.9" cy="108.0" r="0.8" />
<circle cx="233.0" cy="109.0" r="0.8" />
<circle cx="235.1" cy="107.0" r="0.8" />
<circle cx="237.2" cy="111.0" r="0.8" />
<circle cx="239.3" cy="112.0" r="0.8" />
<circle cx="241.4" cy="110.0" r="0.8" />
<circle cx="243.6" cy="105.0" r="0.8" />
<circle cx="245.7" cy="106.0" r="0.8" />
<circle cx="247.8" cy="104.0" r="0.8" />
<circle cx="249.9" cy="117.0" r="0.8" />
<circle cx="252.0" cy="118.0" r="0.8" />
<circle cx="254.1" cy="116.0" r="0.8" />
<circle cx="256.3" cy="120.0" r="0.8" />
<circle cx="258.4" cy="121.0" r="0.8" />
<circle cx="260.5" cy="119.0" r="0.8" />
<circle cx="262.6" cy="114.0" r="0.8" />
</g>
</svg>