<svg xmlns="http://www.w3.org/2000/svg" width="161.8" height="100.0" viewBox="-85.90 -5.00 171.80 110.00">
<g fill="none" stroke="black" stroke-width="0.0600%" transform="translate(0, 100.0000) scale(8.3333, -8.3333)">
<polyline points="-9.71,6.00 -9.51,5.00 -9.32,5.00 -9.13,5.00 -8.93,4.00 -8.74,4.00 -8.54,4.00 -8.35,4.00 -8.15,3.00 -7.96,3.00 -7.77,3.00 -7.57,3.00 -7.38,2.00 -7.18,2.00 -6.99,2.00 -6.80,2.00 -6.60,2.00 -6.41,1.00 -6.21,1.00 -6.02,1.00 -5.82,1.00 -5.63,1.00 -5.44,1.00 -5.24,1.00 -5.05,0.00 -4.85,0.00 -4.66,0.00 -4.47,0.00 -4.27,0.00 -4.08,0.00 -3.88,0.00 -3.69,0.00 -3.49,0.00 -3.30,0.00 -3.11,0.00 -2.91,0.00 -2.72,0.00 -2.52,0.00 -2.33,0.00 -2.14,0.00 -1.94,0.00 -1.75,0.00 -1.55,0.00 -1.36,0.00 -1.16,0.00 -0.97,0.00 -0.78,0.00 -0.58,0.00 -0.39,0.00 -0.19,0.00 0.00,0.00 0.19,0.00 0.39,0.00 0.58,0.00 0.78,0.00 0.97,0.00 1.16,0.00 1.36,0.00 1.55,0.00 1.75,0.00 1.94,0.00 2.14,1.00 2.33,1.00 2.52,1.00 2.72,1.00 2.91,1.00 3.11,1.00 3.30,2.00 3.49,2.00 3.69,2.00 3.88,2.00 4.08,2.00 4.27,3.00 4.47,3.00 4.66,3.00 4.85,3.00 5.05,3.00 5.24,4.00 5.44,4.00 5.63,4.00 5.82,5.00 6.02,5.00 6.21,5.00 6.41,5.00 6.60,6.00 6.80,6.00 6.99,6.00 7.18,7.00 7.38,7.00 7.57,7.00 7.77,8.00 7.96,8.00 8.15,8.00 8.35,9.00 8.54,9.00 8.74,9.00 8.93,10.00 9.13,10.00 9.32,11.00 9.51,11.00 9.71,12.00" />
</g>
</svg>