<svg xmlns="http://www.w3.org/2000/svg" width="161.8" height="100.0" viewBox="-2.5 -4.6 171.8 110.0">
<g fill="none" stroke="black" stroke-width="1.2750%" transform="translate(0, 100.7843) scale(0.3922, -0.3922)">
<circle cx="6.3" cy="1.0" r="1.3" />
<circle cx="12.5" cy="2.0" r="1.3" />
<circle cx="18.8" cy="3.0" r="1.3" />
<circle cx="25.0" cy="4.0" r="1.3" />
<circle cx="31.3" cy="5.0" r="1.3" />
<circle cx="37.5" cy="6.0" r="1.3" />
<circle cx="43.8" cy="8.0" r="1.3" />
<circle cx="50.0" cy="7.0" r="1.3" />
<circle cx="56.3" cy="9.0" r="1.3" />
<circle cx="62.5" cy="10.0" r="1.3" />
<circle cx="68.8" cy="12.0" r="1.3" />
<circle cx="75.0" cy="16.0" r="1.3" />
<circle cx="81.3" cy="11.0" r="1.3" />
<circle cx="87.5" cy="14.0" r="1.3" />
<circle cx="93.8" cy="15.0" r="1.3" />
<circle cx="100.0" cy="18.0" r="1.3" />
<circle cx="106.3" cy="20.0" r="1.3" />
<circle cx="112.5" cy="24.0" r="1.3" />
<circle cx="118.8" cy="32.0" r="1.3" />
<circle cx="125.0" cy="13.0" r="1.3" />
<circle cx="131.3" cy="21.0" r="1.3" />
<circle cx="137.5" cy="22.0" r="1.3" />
<circle cx="143.8" cy="25.0" r="1.3" />
<circle cx="150.0" cy="27.0" r="1.3" />
<circle cx="156.3" cy="28.0" r="1.3" />
<circle cx="162.5" cy="30.0" r="1.3" />
<circle cx="168.8" cy="36.0" r="1.3" />
<circle cx="175.0" cy="40.0" r="1.3" />
<circle cx="181.3" cy="48.0" r="1.3" />
<circle cx="187.5" cy="64.0" r="1.3" />
<circle cx="193.8" cy="17.0" r="1.3" />
<circle cx="200.0" cy="26.0" r="1.3" />
<circle cx="206.3" cy="33.0" r="1.3" />
<circle cx="212.6" cy="35.0" r="1.3" />
<circle cx="218.8" cy="42.0" r="1.3" />
<circle cx="225.1" cy="44.0" r="1.3" />
<circle cx="231.3" cy="45.0" r="1.3" />
<circle cx="237.6" cy="50.0" r="1.3" />
<circle cx="243.8" cy="54.0" r="1.3" />
<circle cx="250.1" cy="56.0" r="1.3" />
<circle cx="256.3" cy="60.0" r="1.3" />
<circle cx="262.6" cy="72.0" r="1.3" />
<circle cx="268.8" cy="80.0" r="1.3" />
<circle cx="275.1" cy="96.0" r="1.3" />
<circle cx="281.3" cy="128.0" r="1.3" />
<circle cx="287.6" cy="19.0" r="1.3" />
<circle cx="293.8" cy="34.0" r="1.3" />
<circle cx="300.1" cy="39.0" r="1.3" />
<circle cx="306.3" cy="49.0" r="1.3" />
<circle cx="312.6" cy="52.0" r="1.3" />
<circle cx="318.8" cy="55.0" r="1.3" />
<circle cx="325.1" cy="63.0" r="1.3" />
<circle cx="331.3" cy="66.0" r="1.3" />
<circle cx="337.6" cy="70.0" r="1.3" />
<circle cx="343.8" cy="75.0" r="1.3" />
<circle cx="350.1" cy="81.0" r="1.3" />
<circle cx="356.3" cy="84.0" r="1.3" />
<circle cx="362.6" cy="88.0" r="1.3" />
<circle cx="368.8" cy="90.0" r="1.3" />
<circle cx="375.1" cy="100.0" r="1.3" />
<circle cx="381.3" cy="108.0" r="1.3" />
<circle cx="387.6" cy="112.0" r="1.3" />
<circle cx="393.8" cy="120.0" r="1.3" />
<circle cx="400.1" cy="144.0" r="1.3" />
<circle cx="406.3" cy="160.0" r="1.3" />
<circle cx="412.6" cy="192.0" r="1.3" />
<circle cx="418.9" cy="256.0" r="1.3" />
</g>
</svg>