<svg xmlns="http://www.w3.org/2000/svg" width="161.8" height="100.0" viewBox="-2.161 95.000 171.803 110.000">
<g fill="none" stroke="black" stroke-width="0.0050%" transform="translate(0, 300.0000) scale(100.0000, -100.0000)">
<polyline points="0.028,2.000 0.057,2.000 0.057,2.000 0.085,2.000 0.085,2.000 0.114,2.000 0.114,2.000 0.142,2.000 0.142,2.000 0.170,2.000 0.170,1.000 0.199,1.000 0.199,1.000 0.227,1.000 0.227,2.000 0.255,2.000 0.255,2.000 0.284,2.000 0.284,2.000 0.312,2.000 0.312,1.000 0.341,1.000 0.341,1.000 0.369,1.000 0.369,2.000 0.397,2.000 0.397,1.000 0.426,1.000 0.426,1.000 0.454,1.000 0.454,2.000 0.483,2.000 0.483,1.000 0.511,1.000 0.511,1.000 0.539,1.000 0.539,2.000 0.568,2.000 0.568,2.000 0.596,2.000 0.596,2.000 0.625,2.000 0.625,1.000 0.653,1.000 0.653,1.000 0.681,1.000 0.681,2.000 0.710,2.000 0.710,1.000 0.738,1.000 0.738,1.000 0.766,1.000 0.766,2.000 0.795,2.000 0.795,1.000 0.823,1.000 0.823,1.000 0.852,1.000 0.852,2.000 0.880,2.000 0.880,1.000 0.908,1.000 0.908,1.000 0.937,1.000 0.937,2.000 0.965,2.000 0.965,1.000 0.994,1.000 0.994,1.000 1.022,1.000 1.022,2.000 1.050,2.000 1.050,1.000 1.079,1.000 1.079,1.000 1.107,1.000 1.107,1.000 1.135,1.000 1.135,1.000 1.164,1.000 1.164,1.000 1.192,1.000 1.192,1.000 1.221,1.000 1.221,2.000 1.249,2.000 1.249,2.000 1.277,2.000 1.277,2.000 1.306,2.000 1.306,1.000 1.334,1.000 1.334,1.000 1.363,1.000 1.363,2.000 1.391,2.000 1.391,1.000 1.419,1.000 1.419,1.000 1.448,1.000 1.448,2.000 1.476,2.000 1.476,1.000 1.504,1.000 1.504,1.000 1.533,1.000 1.533,2.000 1.561,2.000 1.561,1.000 1.590,1.000 1.590,1.000 1.618,1.000 1.618,2.000 1.646,2.000" />
</g>
</svg>