<svg xmlns="http://www.w3.org/2000/svg" width="161.8" height="100.0" viewBox="-3.64 3.33 171.80 110.00">
<g fill="none" stroke="black" stroke-width="0.0600%" transform="translate(0, 116.6667) scale(8.3333, -8.3333)">
<circle cx="0.16" cy="1.00" r="0.06" />
<circle cx="0.33" cy="3.00" r="0.06" />
<circle cx="0.49" cy="1.00" r="0.06" />
<circle cx="0.65" cy="5.00" r="0.06" />
<circle cx="0.82" cy="1.00" r="0.06" />
<circle cx="0.98" cy="3.00" r="0.06" />
<circle cx="1.14" cy="1.00" r="0.06" />
<circle cx="1.31" cy="7.00" r="0.06" />
<circle cx="1.47" cy="1.00" r="0.06" />
<circle cx="1.63" cy="3.00" r="0.06" />
<circle cx="1.79" cy="1.00" r="0.06" />
<circle cx="1.96" cy="5.00" r="0.06" />
<circle cx="2.12" cy="1.00" r="0.06" />
<circle cx="2.28" cy="3.00" r="0.06" />
<circle cx="2.45" cy="1.00" r="0.06" />
<circle cx="2.61" cy="9.00" r="0.06" />
<circle cx="2.77" cy="1.00" r="0.06" />
<circle cx="2.94" cy="3.00" r="0.06" />
<circle cx="3.10" cy="1.00" r="0.06" />
<circle cx="3.26" cy="5.00" r="0.06" />
<circle cx="3.43" cy="1.00" r="0.06" />
<circle cx="3.59" cy="3.00" r="0.06" />
<circle cx="3.75" cy="1.00" r="0.06" />
<circle cx="3.92" cy="7.00" r="0.06" />
<circle cx="4.08" cy="1.00" r="0.06" />
<circle cx="4.24" cy="3.00" r="0.06" />
<circle cx="4.41" cy="1.00" r="0.06" />
<circle cx="4.57" cy="5.00" r="0.06" />
<circle cx="4.73" cy="1.00" r="0.06" />
<circle cx="4.89" cy="3.00" r="0.06" />
<circle cx="5.06" cy="1.00" r="0.06" />
<circle cx="5.22" cy="11.00" r="0.06" />
<circle cx="5.38" cy="1.00" r="0.06" />
<circle cx="5.55" cy="3.00" r="0.06" />
<circle cx="5.71" cy="1.00" r="0.06" />
<circle cx="5.87" cy="5.00" r="0.06" />
<circle cx="6.04" cy="1.00" r="0.06" />
<circle cx="6.20" cy="3.00" r="0.06" />
<circle cx="6.36" cy="1.00" r="0.06" />
<circle cx="6.53" cy="7.00" r="0.06" />
<circle cx="6.69" cy="1.00" r="0.06" />
<circle cx="6.85" cy="3.00" r="0.06" />
<circle cx="7.02" cy="1.00" r="0.06" />
<circle cx="7.18" cy="5.00" r="0.06" />
<circle cx="7.34" cy="1.00" r="0.06" />
<circle cx="7.51" cy="3.00" r="0.06" />
<circle cx="7.67" cy="1.00" r="0.06" />
<circle cx="7.83" cy="9.00" r="0.06" />
<circle cx="7.99" cy="1.00" r="0.06" />
<circle cx="8.16" cy="3.00" r="0.06" />
<circle cx="8.32" cy="1.00" r="0.06" />
<circle cx="8.48" cy="5.00" r="0.06" />
<circle cx="8.65" cy="1.00" r="0.06" />
<circle cx="8.81" cy="3.00" r="0.06" />
<circle cx="8.97" cy="1.00" r="0.06" />
<circle cx="9.14" cy="7.00" r="0.06" />
<circle cx="9.30" cy="1.00" r="0.06" />
<circle cx="9.46" cy="3.00" r="0.06" />
<circle cx="9.63" cy="1.00" r="0.06" />
<circle cx="9.79" cy="5.00" r="0.06" />
<circle cx="9.95" cy="1.00" r="0.06" />
<circle cx="10.12" cy="3.00" r="0.06" />
<circle cx="10.28" cy="1.00" r="0.06" />
<circle cx="10.44" cy="13.00" r="0.06" />
<circle cx="10.61" cy="1.00" r="0.06" />
<circle cx="10.77" cy="3.00" r="0.06" />
<circle cx="10.93" cy="1.00" r="0.06" />
<circle cx="11.10" cy="5.00" r="0.06" />
<circle cx="11.26" cy="1.00" r="0.06" />
<circle cx="11.42" cy="3.00" r="0.06" />
<circle cx="11.58" cy="1.00" r="0.06" />
<circle cx="11.75" cy="7.00" r="0.06" />
<circle cx="11.91" cy="1.00" r="0.06" />
<circle cx="12.07" cy="3.00" r="0.06" />
<circle cx="12.24" cy="1.00" r="0.06" />
<circle cx="12.40" cy="5.00" r="0.06" />
<circle cx="12.56" cy="1.00" r="0.06" />
<circle cx="12.73" cy="3.00" r="0.06" />
<circle cx="12.89" cy="1.00" r="0.06" />
<circle cx="13.05" cy="9.00" r="0.06" />
<circle cx="13.22" cy="1.00" r="0.06" />
<circle cx="13.38" cy="3.00" r="0.06" />
<circle cx="13.54" cy="1.00" r="0.06" />
<circle cx="13.71" cy="5.00" r="0.06" />
<circle cx="13.87" cy="1.00" r="0.06" />
<circle cx="14.03" cy="3.00" r="0.06" />
<circle cx="14.20" cy="1.00" r="0.06" />
<circle cx="14.36" cy="7.00" r="0.06" />
<circle cx="14.52" cy="1.00" r="0.06" />
<circle cx="14.68" cy="3.00" r="0.06" />
<circle cx="14.85" cy="1.00" r="0.06" />
<circle cx="15.01" cy="5.00" r="0.06" />
<circle cx="15.17" cy="1.00" r="0.06" />
<circle cx="15.34" cy="3.00" r="0.06" />
<circle cx="15.50" cy="1.00" r="0.06" />
<circle cx="15.66" cy="11.00" r="0.06" />
<circle cx="15.83" cy="1.00" r="0.06" />
<circle cx="15.99" cy="3.00" r="0.06" />
<circle cx="16.15" cy="1.00" r="0.06" />
<circle cx="16.32" cy="5.00" r="0.06" />
<circle cx="16.48" cy="1.00" r="0.06" />
<circle cx="16.64" cy="3.00" r="0.06" />
<circle cx="16.81" cy="1.00" r="0.06" />
<circle cx="16.97" cy="7.00" r="0.06" />
<circle cx="17.13" cy="1.00" r="0.06" />
<circle cx="17.30" cy="3.00" r="0.06" />
<circle cx="17.46" cy="1.00" r="0.06" />
<circle cx="17.62" cy="5.00" r="0.06" />
<circle cx="17.78" cy="1.00" r="0.06" />
<circle cx="17.95" cy="3.00" r="0.06" />
<circle cx="18.11" cy="1.00" r="0.06" />
<circle cx="18.27" cy="9.00" r="0.06" />
<circle cx="18.44" cy="1.00" r="0.06" />
<circle cx="18.60" cy="3.00" r="0.06" />
<circle cx="18.76" cy="1.00" r="0.06" />
<circle cx="18.93" cy="5.00" r="0.06" />
<circle cx="19.09" cy="1.00" r="0.06" />
<circle cx="19.25" cy="3.00" r="0.06" />
<circle cx="19.42" cy="1.00" r="0.06" />
<circle cx="19.58" cy="7.00" r="0.06" />
</g>
</svg>