<svg xmlns="http://www.w3.org/2000/svg" width="155.3" height="100.0" viewBox="1.472 -55.000 165.328 110.000">
<g fill="none" stroke="black" stroke-width="0.0050%" transform="translate(0, 0.0000) scale(100.0000, -100.0000)">
<circle cx="0.065" cy="0.000" r="0.005" />
<line x1="0.065" y1="-0.500" x2="0.065" y2="0.500" />
<circle cx="0.129" cy="0.000" r="0.005" />
<line x1="0.129" y1="-0.450" x2="0.129" y2="0.450" />
<circle cx="0.194" cy="0.000" r="0.005" />
<line x1="0.194" y1="-0.405" x2="0.194" y2="0.405" />
<circle cx="0.259" cy="0.000" r="0.005" />
<line x1="0.259" y1="-0.364" x2="0.259" y2="0.364" />
<circle cx="0.324" cy="0.000" r="0.005" />
<line x1="0.324" y1="-0.328" x2="0.324" y2="0.328" />
<circle cx="0.388" cy="0.000" r="0.005" />
<line x1="0.388" y1="-0.295" x2="0.388" y2="0.295" />
<circle cx="0.453" cy="0.000" r="0.005" />
<line x1="0.453" y1="-0.266" x2="0.453" y2="0.266" />
<circle cx="0.518" cy="0.000" r="0.005" />
<line x1="0.518" y1="-0.239" x2="0.518" y2="0.239" />
<circle cx="0.582" cy="0.000" r="0.005" />
<line x1="0.582" y1="-0.215" x2="0.582" y2="0.215" />
<circle cx="0.647" cy="0.000" r="0.005" />
<line x1="0.647" y1="-0.194" x2="0.647" y2="0.194" />
<circle cx="0.712" cy="0.000" r="0.005" />
<line x1="0.712" y1="-0.174" x2="0.712" y2="0.174" />
<circle cx="0.777" cy="0.000" r="0.005" />
<line x1="0.777" y1="-0.157" x2="0.777" y2="0.157" />
<circle cx="0.841" cy="0.000" r="0.005" />
<line x1="0.841" y1="-0.141" x2="0.841" y2="0.141" />
<circle cx="0.906" cy="0.000" r="0.005" />
<line x1="0.906" y1="-0.127" x2="0.906" y2="0.127" />
<circle cx="0.971" cy="0.000" r="0.005" />
<line x1="0.971" y1="-0.114" x2="0.971" y2="0.114" />
<circle cx="1.036" cy="0.000" r="0.005" />
<line x1="1.036" y1="-0.103" x2="1.036" y2="0.103" />
<circle cx="1.100" cy="0.000" r="0.005" />
<line x1="1.100" y1="-0.093" x2="1.100" y2="0.093" />
<circle cx="1.165" cy="0.000" r="0.005" />
<line x1="1.165" y1="-0.083" x2="1.165" y2="0.083" />
<circle cx="1.230" cy="0.000" r="0.005" />
<line x1="1.230" y1="-0.075" x2="1.230" y2="0.075" />
<circle cx="1.294" cy="0.000" r="0.005" />
<line x1="1.294" y1="-0.068" x2="1.294" y2="0.068" />
<circle cx="1.359" cy="0.000" r="0.005" />
<line x1="1.359" y1="-0.061" x2="1.359" y2="0.061" />
<circle cx="1.424" cy="0.000" r="0.005" />
<line x1="1.424" y1="-0.055" x2="1.424" y2="0.055" />
<circle cx="1.489" cy="0.000" r="0.005" />
<line x1="1.489" y1="-0.049" x2="1.489" y2="0.049" />
<circle cx="1.553" cy="0.000" r="0.005" />
<line x1="1.553" y1="-0.044" x2="1.553" y2="0.044" />
<circle cx="1.618" cy="0.000" r="0.005" />
<line x1="1.618" y1="-0.040" x2="1.618" y2="0.040" />
</g>
</svg>