<svg xmlns="http://www.w3.org/2000/svg" width="161.8" height="100.0" viewBox="-4.187 -5.000 171.803 110.000">
<g fill="none" stroke="black" stroke-width="0.0145%" transform="translate(0, 100.0000) scale(34.5976, -34.5976)">
<circle cx="0.024" cy="0.000" r="0.014" />
<circle cx="0.024" cy="0.000" r="0.014" />
<circle cx="0.047" cy="0.000" r="0.014" />
<circle cx="0.071" cy="0.000" r="0.014" />
<circle cx="0.094" cy="0.000" r="0.014" />
<circle cx="0.118" cy="0.693" r="0.014" />
<circle cx="0.141" cy="0.693" r="0.014" />
<circle cx="0.165" cy="0.693" r="0.014" />
<circle cx="0.188" cy="0.000" r="0.014" />
<circle cx="0.212" cy="1.099" r="0.014" />
<circle cx="0.235" cy="0.693" r="0.014" />
<circle cx="0.259" cy="1.386" r="0.014" />
<circle cx="0.282" cy="0.000" r="0.014" />
<circle cx="0.306" cy="0.000" r="0.014" />
<circle cx="0.329" cy="0.000" r="0.014" />
<circle cx="0.353" cy="1.386" r="0.014" />
<circle cx="0.376" cy="1.386" r="0.014" />
<circle cx="0.400" cy="1.386" r="0.014" />
<circle cx="0.423" cy="0.000" r="0.014" />
<circle cx="0.447" cy="1.386" r="0.014" />
<circle cx="0.470" cy="0.000" r="0.014" />
<circle cx="0.494" cy="1.609" r="0.014" />
<circle cx="0.517" cy="1.609" r="0.014" />
<circle cx="0.541" cy="1.386" r="0.014" />
<circle cx="0.564" cy="0.000" r="0.014" />
<circle cx="0.588" cy="1.792" r="0.014" />
<circle cx="0.611" cy="0.693" r="0.014" />
<circle cx="0.635" cy="0.000" r="0.014" />
<circle cx="0.658" cy="0.000" r="0.014" />
<circle cx="0.682" cy="1.792" r="0.014" />
<circle cx="0.705" cy="1.946" r="0.014" />
<circle cx="0.729" cy="1.609" r="0.014" />
<circle cx="0.752" cy="0.000" r="0.014" />
<circle cx="0.776" cy="1.792" r="0.014" />
<circle cx="0.799" cy="1.099" r="0.014" />
<circle cx="0.823" cy="1.099" r="0.014" />
<circle cx="0.846" cy="0.000" r="0.014" />
<circle cx="0.870" cy="0.000" r="0.014" />
<circle cx="0.893" cy="1.946" r="0.014" />
<circle cx="0.917" cy="2.197" r="0.014" />
<circle cx="0.940" cy="1.609" r="0.014" />
<circle cx="0.964" cy="1.099" r="0.014" />
<circle cx="0.987" cy="1.792" r="0.014" />
<circle cx="1.011" cy="1.386" r="0.014" />
<circle cx="1.034" cy="1.386" r="0.014" />
<circle cx="1.058" cy="0.693" r="0.014" />
<circle cx="1.081" cy="0.000" r="0.014" />
<circle cx="1.105" cy="2.079" r="0.014" />
<circle cx="1.128" cy="2.197" r="0.014" />
<circle cx="1.152" cy="1.792" r="0.014" />
<circle cx="1.175" cy="1.386" r="0.014" />
<circle cx="1.199" cy="2.197" r="0.014" />
<circle cx="1.222" cy="1.386" r="0.014" />
<circle cx="1.246" cy="1.609" r="0.014" />
<circle cx="1.269" cy="0.693" r="0.014" />
<circle cx="1.293" cy="0.000" r="0.014" />
<circle cx="1.316" cy="1.099" r="0.014" />
<circle cx="1.340" cy="0.000" r="0.014" />
<circle cx="1.363" cy="2.197" r="0.014" />
<circle cx="1.387" cy="2.303" r="0.014" />
<circle cx="1.410" cy="1.946" r="0.014" />
<circle cx="1.434" cy="1.609" r="0.014" />
<circle cx="1.457" cy="2.303" r="0.014" />
<circle cx="1.481" cy="1.792" r="0.014" />
<circle cx="1.504" cy="1.792" r="0.014" />
<circle cx="1.528" cy="1.099" r="0.014" />
<circle cx="1.551" cy="0.000" r="0.014" />
<circle cx="1.575" cy="1.386" r="0.014" />
<circle cx="1.598" cy="0.693" r="0.014" />
<circle cx="1.622" cy="0.000" r="0.014" />
<circle cx="1.645" cy="2.303" r="0.014" />
<circle cx="1.669" cy="2.398" r="0.014" />
<circle cx="1.692" cy="2.079" r="0.014" />
<circle cx="1.716" cy="1.792" r="0.014" />
<circle cx="1.739" cy="2.398" r="0.014" />
<circle cx="1.763" cy="1.792" r="0.014" />
<circle cx="1.786" cy="2.197" r="0.014" />
<circle cx="1.810" cy="1.099" r="0.014" />
<circle cx="1.833" cy="0.693" r="0.014" />
<circle cx="1.857" cy="1.609" r="0.014" />
<circle cx="1.880" cy="1.099" r="0.014" />
<circle cx="1.904" cy="0.693" r="0.014" />
<circle cx="1.927" cy="0.000" r="0.014" />
<circle cx="1.951" cy="2.398" r="0.014" />
<circle cx="1.974" cy="2.398" r="0.014" />
<circle cx="1.998" cy="2.303" r="0.014" />
<circle cx="2.021" cy="2.079" r="0.014" />
<circle cx="2.045" cy="2.398" r="0.014" />
<circle cx="2.068" cy="1.946" r="0.014" />
<circle cx="2.092" cy="2.197" r="0.014" />
<circle cx="2.115" cy="1.386" r="0.014" />
<circle cx="2.139" cy="1.099" r="0.014" />
<circle cx="2.162" cy="1.792" r="0.014" />
<circle cx="2.186" cy="1.386" r="0.014" />
<circle cx="2.209" cy="1.609" r="0.014" />
<circle cx="2.233" cy="0.000" r="0.014" />
<circle cx="2.256" cy="2.485" r="0.014" />
<circle cx="2.280" cy="2.398" r="0.014" />
<circle cx="2.303" cy="2.303" r="0.014" />
<circle cx="2.327" cy="2.197" r="0.014" />
<circle cx="2.350" cy="2.565" r="0.014" />
<circle cx="2.374" cy="2.079" r="0.014" />
<circle cx="2.397" cy="2.303" r="0.014" />
<circle cx="2.421" cy="1.386" r="0.014" />
<circle cx="2.444" cy="1.386" r="0.014" />
<circle cx="2.468" cy="1.946" r="0.014" />
<circle cx="2.491" cy="1.792" r="0.014" />
<circle cx="2.515" cy="1.792" r="0.014" />
<circle cx="2.538" cy="0.000" r="0.014" />
<circle cx="2.562" cy="0.000" r="0.014" />
<circle cx="2.585" cy="0.000" r="0.014" />
<circle cx="2.609" cy="2.565" r="0.014" />
<circle cx="2.632" cy="2.565" r="0.014" />
<circle cx="2.656" cy="2.303" r="0.014" />
<circle cx="2.679" cy="2.197" r="0.014" />
<circle cx="2.703" cy="2.708" r="0.014" />
<circle cx="2.726" cy="2.079" r="0.014" />
<circle cx="2.750" cy="2.485" r="0.014" />
<circle cx="2.773" cy="1.609" r="0.014" />
<circle cx="2.797" cy="1.609" r="0.014" />
<circle cx="2.820" cy="2.079" r="0.014" />
<circle cx="2.844" cy="1.946" r="0.014" />
<circle cx="2.867" cy="1.792" r="0.014" />
<circle cx="2.891" cy="0.693" r="0.014" />
<circle cx="2.914" cy="1.099" r="0.014" />
<circle cx="2.938" cy="0.000" r="0.014" />
<circle cx="2.961" cy="2.639" r="0.014" />
<circle cx="2.985" cy="2.565" r="0.014" />
<circle cx="3.008" cy="2.398" r="0.014" />
<circle cx="3.032" cy="2.303" r="0.014" />
<circle cx="3.055" cy="2.708" r="0.014" />
<circle cx="3.079" cy="2.303" r="0.014" />
<circle cx="3.102" cy="2.565" r="0.014" />
<circle cx="3.126" cy="1.792" r="0.014" />
<circle cx="3.149" cy="1.792" r="0.014" />
<circle cx="3.173" cy="2.079" r="0.014" />
<circle cx="3.196" cy="2.197" r="0.014" />
<circle cx="3.220" cy="1.946" r="0.014" />
<circle cx="3.243" cy="0.693" r="0.014" />
<circle cx="3.267" cy="1.609" r="0.014" />
<circle cx="3.290" cy="0.000" r="0.014" />
<circle cx="3.314" cy="0.693" r="0.014" />
<circle cx="3.337" cy="0.000" r="0.014" />
<circle cx="3.361" cy="2.708" r="0.014" />
<circle cx="3.384" cy="2.639" r="0.014" />
<circle cx="3.408" cy="2.565" r="0.014" />
<circle cx="3.431" cy="2.303" r="0.014" />
<circle cx="3.455" cy="2.708" r="0.014" />
<circle cx="3.478" cy="2.398" r="0.014" />
<circle cx="3.502" cy="2.708" r="0.014" />
<circle cx="3.525" cy="1.946" r="0.014" />
<circle cx="3.549" cy="1.946" r="0.014" />
<circle cx="3.572" cy="2.197" r="0.014" />
<circle cx="3.596" cy="2.303" r="0.014" />
<circle cx="3.619" cy="2.079" r="0.014" />
<circle cx="3.643" cy="0.693" r="0.014" />
<circle cx="3.666" cy="1.792" r="0.014" />
<circle cx="3.690" cy="0.693" r="0.014" />
<circle cx="3.713" cy="1.609" r="0.014" />
<circle cx="3.737" cy="0.000" r="0.014" />
<circle cx="3.760" cy="2.773" r="0.014" />
<circle cx="3.784" cy="2.639" r="0.014" />
<circle cx="3.807" cy="2.708" r="0.014" />
<circle cx="3.831" cy="2.303" r="0.014" />
<circle cx="3.854" cy="2.708" r="0.014" />
<circle cx="3.878" cy="2.485" r="0.014" />
<circle cx="3.901" cy="2.773" r="0.014" />
<circle cx="3.925" cy="2.197" r="0.014" />
<circle cx="3.948" cy="2.079" r="0.014" />
<circle cx="3.972" cy="2.398" r="0.014" />
<circle cx="3.995" cy="2.485" r="0.014" />
<circle cx="4.019" cy="2.197" r="0.014" />
<circle cx="4.042" cy="1.386" r="0.014" />
<circle cx="4.066" cy="1.792" r="0.014" />
<circle cx="4.089" cy="1.099" r="0.014" />
<circle cx="4.113" cy="1.946" r="0.014" />
<circle cx="4.136" cy="0.693" r="0.014" />
<circle cx="4.160" cy="0.000" r="0.014" />
<circle cx="4.183" cy="2.833" r="0.014" />
<circle cx="4.207" cy="2.639" r="0.014" />
<circle cx="4.230" cy="2.773" r="0.014" />
<circle cx="4.254" cy="2.398" r="0.014" />
<circle cx="4.277" cy="2.773" r="0.014" />
<circle cx="4.301" cy="2.485" r="0.014" />
<circle cx="4.324" cy="2.833" r="0.014" />
<circle cx="4.348" cy="2.303" r="0.014" />
<circle cx="4.371" cy="2.197" r="0.014" />
<circle cx="4.395" cy="2.565" r="0.014" />
<circle cx="4.418" cy="2.565" r="0.014" />
<circle cx="4.442" cy="2.303" r="0.014" />
<circle cx="4.465" cy="1.609" r="0.014" />
<circle cx="4.489" cy="2.079" r="0.014" />
<circle cx="4.512" cy="1.386" r="0.014" />
<circle cx="4.536" cy="1.946" r="0.014" />
<circle cx="4.559" cy="1.386" r="0.014" />
<circle cx="4.583" cy="0.693" r="0.014" />
<circle cx="4.606" cy="0.000" r="0.014" />
<circle cx="4.630" cy="2.890" r="0.014" />
<circle cx="4.653" cy="2.639" r="0.014" />
<circle cx="4.677" cy="2.833" r="0.014" />
<circle cx="4.700" cy="2.398" r="0.014" />
</g>
</svg>