<svg xmlns="http://www.w3.org/2000/svg" width="161.8" height="100.0" viewBox="-4.35 -5.00 171.80 110.00">
<g fill="none" stroke="black" stroke-width="0.0399%" transform="translate(0, 100.0000) scale(12.5426, -12.5426)">
<circle cx="0.05" cy="0.00" r="0.04" />
<circle cx="0.10" cy="0.69" r="0.04" />
<circle cx="0.16" cy="1.10" r="0.04" />
<circle cx="0.21" cy="1.39" r="0.04" />
<circle cx="0.26" cy="1.61" r="0.04" />
<circle cx="0.31" cy="1.79" r="0.04" />
<circle cx="0.36" cy="1.95" r="0.04" />
<circle cx="0.41" cy="2.08" r="0.04" />
<circle cx="0.47" cy="2.20" r="0.04" />
<circle cx="0.52" cy="0.00" r="0.04" />
<circle cx="0.57" cy="2.40" r="0.04" />
<circle cx="0.62" cy="3.04" r="0.04" />
<circle cx="0.67" cy="2.56" r="0.04" />
<circle cx="0.73" cy="3.71" r="0.04" />
<circle cx="0.78" cy="3.93" r="0.04" />
<circle cx="0.83" cy="4.11" r="0.04" />
<circle cx="0.88" cy="2.83" r="0.04" />
<circle cx="0.93" cy="4.39" r="0.04" />
<circle cx="0.98" cy="2.94" r="0.04" />
<circle cx="1.04" cy="0.69" r="0.04" />
<circle cx="1.09" cy="2.48" r="0.04" />
<circle cx="1.14" cy="3.09" r="0.04" />
<circle cx="1.19" cy="3.14" r="0.04" />
<circle cx="1.24" cy="3.74" r="0.04" />
<circle cx="1.30" cy="3.95" r="0.04" />
<circle cx="1.35" cy="3.26" r="0.04" />
<circle cx="1.40" cy="4.28" r="0.04" />
<circle cx="1.45" cy="4.41" r="0.04" />
<circle cx="1.50" cy="3.37" r="0.04" />
<circle cx="1.55" cy="1.10" r="0.04" />
<circle cx="1.61" cy="3.43" r="0.04" />
<circle cx="1.66" cy="3.14" r="0.04" />
<circle cx="1.71" cy="3.50" r="0.04" />
<circle cx="1.76" cy="5.48" r="0.04" />
<circle cx="1.81" cy="3.97" r="0.04" />
<circle cx="1.87" cy="4.14" r="0.04" />
<circle cx="1.92" cy="3.61" r="0.04" />
<circle cx="1.97" cy="5.64" r="0.04" />
<circle cx="2.02" cy="3.66" r="0.04" />
<circle cx="2.07" cy="1.39" r="0.04" />
<circle cx="2.12" cy="3.71" r="0.04" />
<circle cx="2.18" cy="3.18" r="0.04" />
<circle cx="2.23" cy="3.76" r="0.04" />
<circle cx="2.28" cy="3.78" r="0.04" />
<circle cx="2.33" cy="3.99" r="0.04" />
<circle cx="2.38" cy="3.83" r="0.04" />
<circle cx="2.43" cy="3.85" r="0.04" />
<circle cx="2.49" cy="4.43" r="0.04" />
<circle cx="2.54" cy="4.54" r="0.04" />
<circle cx="2.59" cy="1.61" r="0.04" />
<circle cx="2.64" cy="5.74" r="0.04" />
<circle cx="2.69" cy="6.04" r="0.04" />
<circle cx="2.75" cy="3.97" r="0.04" />
<circle cx="2.80" cy="3.81" r="0.04" />
<circle cx="2.85" cy="4.01" r="0.04" />
<circle cx="2.90" cy="4.17" r="0.04" />
<circle cx="2.95" cy="5.92" r="0.04" />
<circle cx="3.00" cy="6.18" r="0.04" />
<circle cx="3.06" cy="4.08" r="0.04" />
<circle cx="3.11" cy="1.79" r="0.04" />
<circle cx="3.16" cy="4.11" r="0.04" />
<circle cx="3.21" cy="4.13" r="0.04" />
<circle cx="3.26" cy="3.58" r="0.04" />
<circle cx="3.32" cy="3.83" r="0.04" />
<circle cx="3.37" cy="6.31" r="0.04" />
<circle cx="3.42" cy="4.19" r="0.04" />
<circle cx="3.47" cy="4.20" r="0.04" />
<circle cx="3.52" cy="6.18" r="0.04" />
<circle cx="3.57" cy="4.23" r="0.04" />
<circle cx="3.63" cy="1.95" r="0.04" />
<circle cx="3.68" cy="4.26" r="0.04" />
<circle cx="3.73" cy="3.30" r="0.04" />
<circle cx="3.78" cy="4.29" r="0.04" />
<circle cx="3.83" cy="6.46" r="0.04" />
<circle cx="3.89" cy="4.04" r="0.04" />
<circle cx="3.94" cy="6.14" r="0.04" />
<circle cx="3.99" cy="4.34" r="0.04" />
<circle cx="4.04" cy="6.52" r="0.04" />
<circle cx="4.09" cy="4.37" r="0.04" />
<circle cx="4.14" cy="2.08" r="0.04" />
<circle cx="4.20" cy="2.89" r="0.04" />
<circle cx="4.25" cy="4.41" r="0.04" />
<circle cx="4.30" cy="4.42" r="0.04" />
<circle cx="4.35" cy="3.87" r="0.04" />
<circle cx="4.40" cy="6.32" r="0.04" />
<circle cx="4.46" cy="4.45" r="0.04" />
<circle cx="4.51" cy="6.51" r="0.04" />
<circle cx="4.56" cy="4.48" r="0.04" />
<circle cx="4.61" cy="4.49" r="0.04" />
<circle cx="4.66" cy="2.20" r="0.04" />
<circle cx="4.71" cy="6.57" r="0.04" />
<circle cx="4.77" cy="6.71" r="0.04" />
<circle cx="4.82" cy="4.53" r="0.04" />
<circle cx="4.87" cy="6.73" r="0.04" />
<circle cx="4.92" cy="6.32" r="0.04" />
<circle cx="4.97" cy="4.23" r="0.04" />
<circle cx="5.03" cy="4.57" r="0.04" />
<circle cx="5.08" cy="4.49" r="0.04" />
<circle cx="5.13" cy="4.60" r="0.04" />
<circle cx="5.18" cy="0.00" r="0.04" />
<circle cx="5.23" cy="4.62" r="0.04" />
<circle cx="5.28" cy="6.44" r="0.04" />
<circle cx="5.34" cy="4.63" r="0.04" />
<circle cx="5.39" cy="6.74" r="0.04" />
<circle cx="5.44" cy="6.22" r="0.04" />
<circle cx="5.49" cy="1.95" r="0.04" />
<circle cx="5.54" cy="4.67" r="0.04" />
<circle cx="5.60" cy="6.69" r="0.04" />
<circle cx="5.65" cy="4.69" r="0.04" />
<circle cx="5.70" cy="2.40" r="0.04" />
<circle cx="5.75" cy="6.82" r="0.04" />
<circle cx="5.80" cy="5.35" r="0.04" />
<circle cx="5.85" cy="4.73" r="0.04" />
<circle cx="5.91" cy="6.47" r="0.04" />
<circle cx="5.96" cy="4.11" r="0.04" />
<circle cx="6.01" cy="6.76" r="0.04" />
<circle cx="6.06" cy="6.88" r="0.04" />
<circle cx="6.11" cy="4.51" r="0.04" />
<circle cx="6.17" cy="6.68" r="0.04" />
<circle cx="6.22" cy="3.04" r="0.04" />
<circle cx="6.27" cy="4.80" r="0.04" />
<circle cx="6.32" cy="3.14" r="0.04" />
<circle cx="6.37" cy="3.18" r="0.04" />
<circle cx="6.42" cy="3.22" r="0.04" />
<circle cx="6.48" cy="6.26" r="0.04" />
<circle cx="6.53" cy="6.43" r="0.04" />
<circle cx="6.58" cy="4.84" r="0.04" />
<circle cx="6.63" cy="6.71" r="0.04" />
<circle cx="6.68" cy="5.30" r="0.04" />
<circle cx="6.74" cy="2.56" r="0.04" />
<circle cx="6.79" cy="4.88" r="0.04" />
<circle cx="6.84" cy="5.44" r="0.04" />
<circle cx="6.89" cy="6.60" r="0.04" />
<circle cx="6.94" cy="5.53" r="0.04" />
<circle cx="6.99" cy="6.27" r="0.04" />
<circle cx="7.05" cy="6.76" r="0.04" />
<circle cx="7.10" cy="4.92" r="0.04" />
<circle cx="7.15" cy="5.67" r="0.04" />
<circle cx="7.20" cy="4.93" r="0.04" />
<circle cx="7.25" cy="3.71" r="0.04" />
<circle cx="7.30" cy="5.40" r="0.04" />
<circle cx="7.36" cy="3.76" r="0.04" />
<circle cx="7.41" cy="4.96" r="0.04" />
<circle cx="7.46" cy="6.09" r="0.04" />
<circle cx="7.51" cy="4.16" r="0.04" />
<circle cx="7.56" cy="3.85" r="0.04" />
<circle cx="7.62" cy="6.61" r="0.04" />
<circle cx="7.67" cy="5.68" r="0.04" />
<circle cx="7.72" cy="5.00" r="0.04" />
<circle cx="7.77" cy="3.93" r="0.04" />
<circle cx="7.82" cy="5.02" r="0.04" />
<circle cx="7.87" cy="6.72" r="0.04" />
<circle cx="7.93" cy="6.84" r="0.04" />
<circle cx="7.98" cy="6.11" r="0.04" />
<circle cx="8.03" cy="4.03" r="0.04" />
<circle cx="8.08" cy="5.61" r="0.04" />
<circle cx="8.13" cy="5.06" r="0.04" />
<circle cx="8.19" cy="6.20" r="0.04" />
<circle cx="8.24" cy="6.22" r="0.04" />
<circle cx="8.29" cy="4.11" r="0.04" />
<circle cx="8.34" cy="6.05" r="0.04" />
<circle cx="8.39" cy="5.56" r="0.04" />
<circle cx="8.44" cy="5.09" r="0.04" />
<circle cx="8.50" cy="4.17" r="0.04" />
<circle cx="8.55" cy="6.33" r="0.04" />
<circle cx="8.60" cy="4.20" r="0.04" />
<circle cx="8.65" cy="5.12" r="0.04" />
<circle cx="8.70" cy="6.76" r="0.04" />
<circle cx="8.76" cy="5.13" r="0.04" />
<circle cx="8.81" cy="2.83" r="0.04" />
<circle cx="8.86" cy="6.82" r="0.04" />
<circle cx="8.91" cy="6.45" r="0.04" />
<circle cx="8.96" cy="5.15" r="0.04" />
<circle cx="9.01" cy="5.54" r="0.04" />
<circle cx="9.07" cy="6.35" r="0.04" />
<circle cx="9.12" cy="6.51" r="0.04" />
<circle cx="9.17" cy="6.37" r="0.04" />
<circle cx="9.22" cy="6.54" r="0.04" />
<circle cx="9.27" cy="5.19" r="0.04" />
<circle cx="9.33" cy="4.39" r="0.04" />
<circle cx="9.38" cy="5.20" r="0.04" />
<circle cx="9.43" cy="6.07" r="0.04" />
<circle cx="9.48" cy="4.43" r="0.04" />
<circle cx="9.53" cy="6.48" r="0.04" />
<circle cx="9.58" cy="6.33" r="0.04" />
<circle cx="9.64" cy="4.47" r="0.04" />
<circle cx="9.69" cy="5.23" r="0.04" />
<circle cx="9.74" cy="6.54" r="0.04" />
<circle cx="9.79" cy="6.89" r="0.04" />
<circle cx="9.84" cy="2.94" r="0.04" />
<circle cx="9.90" cy="5.25" r="0.04" />
<circle cx="9.95" cy="5.67" r="0.04" />
<circle cx="10.00" cy="5.26" r="0.04" />
<circle cx="10.05" cy="6.75" r="0.04" />
<circle cx="10.10" cy="6.34" r="0.04" />
<circle cx="10.15" cy="6.54" r="0.04" />
<circle cx="10.21" cy="5.28" r="0.04" />
<circle cx="10.26" cy="6.79" r="0.04" />
<circle cx="10.31" cy="5.29" r="0.04" />
<circle cx="10.36" cy="0.69" r="0.04" />
<circle cx="10.41" cy="6.71" r="0.04" />
<circle cx="10.47" cy="5.31" r="0.04" />
<circle cx="10.52" cy="6.10" r="0.04" />
<circle cx="10.57" cy="5.55" r="0.04" />
<circle cx="10.62" cy="1.95" r="0.04" />
<circle cx="10.67" cy="5.33" r="0.04" />
<circle cx="10.72" cy="6.78" r="0.04" />
<circle cx="10.78" cy="6.54" r="0.04" />
<circle cx="10.83" cy="6.91" r="0.04" />
<circle cx="10.88" cy="2.48" r="0.04" />
<circle cx="10.93" cy="5.35" r="0.04" />
<circle cx="10.98" cy="3.71" r="0.04" />
<circle cx="11.04" cy="2.71" r="0.04" />
<circle cx="11.09" cy="7.62" r="0.04" />
<circle cx="11.14" cy="4.26" r="0.04" />
<circle cx="11.19" cy="6.42" r="0.04" />
<circle cx="11.24" cy="2.94" r="0.04" />
<circle cx="11.29" cy="7.64" r="0.04" />
<circle cx="11.35" cy="4.71" r="0.04" />
<circle cx="11.40" cy="3.09" r="0.04" />
<circle cx="11.45" cy="6.93" r="0.04" />
<circle cx="11.50" cy="6.73" r="0.04" />
<circle cx="11.55" cy="5.41" r="0.04" />
<circle cx="11.61" cy="6.05" r="0.04" />
<circle cx="11.66" cy="6.26" r="0.04" />
<circle cx="11.71" cy="5.42" r="0.04" />
<circle cx="11.76" cy="5.42" r="0.04" />
<circle cx="11.81" cy="7.97" r="0.04" />
<circle cx="11.86" cy="5.43" r="0.04" />
<circle cx="11.92" cy="3.14" r="0.04" />
<circle cx="11.97" cy="4.88" r="0.04" />
<circle cx="12.02" cy="6.46" r="0.04" />
<circle cx="12.07" cy="5.45" r="0.04" />
<circle cx="12.12" cy="6.75" r="0.04" />
<circle cx="12.17" cy="4.29" r="0.04" />
<circle cx="12.23" cy="4.42" r="0.04" />
<circle cx="12.28" cy="5.26" r="0.04" />
<circle cx="12.33" cy="6.21" r="0.04" />
<circle cx="12.38" cy="5.48" r="0.04" />
<circle cx="12.43" cy="3.74" r="0.04" />
<circle cx="12.49" cy="5.48" r="0.04" />
<circle cx="12.54" cy="5.49" r="0.04" />
<circle cx="12.59" cy="5.83" r="0.04" />
<circle cx="12.64" cy="3.83" r="0.04" />
<circle cx="12.69" cy="6.30" r="0.04" />
<circle cx="12.74" cy="3.87" r="0.04" />
<circle cx="12.80" cy="7.16" r="0.04" />
<circle cx="12.85" cy="5.99" r="0.04" />
<circle cx="12.90" cy="6.02" r="0.04" />
<circle cx="12.95" cy="3.95" r="0.04" />
</g>
</svg>