<svg xmlns="http://www.w3.org/2000/svg" width="161.8" height="100.0" viewBox="6.67 9.20 171.80 110.00">
<g fill="none" stroke="black" stroke-width="0.0352%" transform="translate(0, 128.3938) scale(14.1969, -14.1969)">
<polyline points="0.82,1.00 0.94,1.32 1.05,1.68 1.17,1.94 1.28,1.99 1.40,1.87 1.51,1.78 1.63,1.94 1.74,2.53 1.86,3.30 1.97,3.89 2.09,3.94 2.20,3.35 2.32,2.55 2.43,2.03 2.55,2.21 2.66,2.92 2.78,3.68 2.89,4.00 3.01,3.63 3.12,2.88 3.24,2.18 3.35,1.94 3.47,2.26 3.59,3.00 3.70,4.00 3.82,5.08 3.93,5.94 4.05,6.23 4.16,5.61 4.28,4.23 4.39,2.79 4.51,2.01 4.62,2.48 4.74,3.81 4.85,5.28 4.97,6.15 5.08,6.07 5.20,5.33 5.31,4.30 5.43,3.31 5.54,2.55 5.66,2.09 5.77,2.02 5.89,2.35 6.00,2.97 6.12,3.69 6.23,4.38 6.35,4.97 6.46,5.50 6.58,6.00 6.69,6.45 6.81,6.67 6.92,6.43 7.04,5.51 7.15,4.06 7.27,2.68 7.38,2.00 7.50,2.51 7.61,3.83 7.73,5.27 7.84,6.16 7.96,6.12 8.07,5.41 8.19,4.33 8.31,3.19 8.42,2.25 8.54,1.80 8.65,2.10 8.77,3.21 8.88,4.63 9.00,5.75 9.11,6.03 9.23,5.48 9.34,4.63 9.46,4.00 9.57,4.00 9.69,4.55 9.80,5.43 9.92,6.43 10.03,7.35 10.15,7.96 10.26,8.04 10.38,7.44 10.49,6.31 10.61,4.95 10.72,3.65 10.84,2.65 10.95,2.05 11.07,1.93 11.18,2.36 11.30,3.11 11.41,3.78 11.53,3.99 11.64,3.53 11.76,2.76 11.87,2.12 11.99,2.03 12.10,2.52 12.22,3.27" />
</g>
</svg>