<svg xmlns="http://www.w3.org/2000/svg" width="148.3" height="100.0" viewBox="-2.91 -5.00 158.32 110.00">
<g fill="none" stroke="black" stroke-width="0.0600%" transform="translate(0, 100.0000) scale(8.3333, -8.3333)">
<line x1="0.25" y1="0.00" x2="0.25" y2="12.00" />
<line x1="0.50" y1="0.00" x2="0.50" y2="1.00" />
<line x1="0.75" y1="0.00" x2="0.75" y2="11.00" />
<line x1="1.00" y1="0.00" x2="1.00" y2="2.00" />
<line x1="1.25" y1="0.00" x2="1.25" y2="10.00" />
<line x1="1.50" y1="0.00" x2="1.50" y2="3.00" />
<line x1="1.75" y1="0.00" x2="1.75" y2="9.00" />
<line x1="2.01" y1="0.00" x2="2.01" y2="4.00" />
<line x1="2.26" y1="0.00" x2="2.26" y2="8.00" />
<line x1="2.51" y1="0.00" x2="2.51" y2="5.00" />
<line x1="2.76" y1="0.00" x2="2.76" y2="7.00" />
<line x1="3.01" y1="0.00" x2="3.01" y2="6.00" />
<line x1="3.26" y1="0.00" x2="3.26" y2="6.00" />
<line x1="3.51" y1="0.00" x2="3.51" y2="7.00" />
<line x1="3.76" y1="0.00" x2="3.76" y2="5.00" />
<line x1="4.01" y1="0.00" x2="4.01" y2="8.00" />
<line x1="4.26" y1="0.00" x2="4.26" y2="4.00" />
<line x1="4.51" y1="0.00" x2="4.51" y2="9.00" />
<line x1="4.76" y1="0.00" x2="4.76" y2="3.00" />
<line x1="5.01" y1="0.00" x2="5.01" y2="10.00" />
<line x1="5.26" y1="0.00" x2="5.26" y2="2.00" />
<line x1="5.51" y1="0.00" x2="5.51" y2="11.00" />
<line x1="5.77" y1="0.00" x2="5.77" y2="1.00" />
<line x1="6.02" y1="0.00" x2="6.02" y2="12.00" />
<line x1="6.27" y1="0.00" x2="6.27" y2="12.00" />
<line x1="6.52" y1="0.00" x2="6.52" y2="1.00" />
<line x1="6.77" y1="0.00" x2="6.77" y2="11.00" />
<line x1="7.02" y1="0.00" x2="7.02" y2="2.00" />
<line x1="7.27" y1="0.00" x2="7.27" y2="10.00" />
<line x1="7.52" y1="0.00" x2="7.52" y2="3.00" />
<line x1="7.77" y1="0.00" x2="7.77" y2="9.00" />
<line x1="8.02" y1="0.00" x2="8.02" y2="4.00" />
<line x1="8.27" y1="0.00" x2="8.27" y2="8.00" />
<line x1="8.52" y1="0.00" x2="8.52" y2="5.00" />
<line x1="8.77" y1="0.00" x2="8.77" y2="7.00" />
<line x1="9.02" y1="0.00" x2="9.02" y2="6.00" />
<line x1="9.28" y1="0.00" x2="9.28" y2="6.00" />
<line x1="9.53" y1="0.00" x2="9.53" y2="7.00" />
<line x1="9.78" y1="0.00" x2="9.78" y2="5.00" />
<line x1="10.03" y1="0.00" x2="10.03" y2="8.00" />
<line x1="10.28" y1="0.00" x2="10.28" y2="4.00" />
<line x1="10.53" y1="0.00" x2="10.53" y2="9.00" />
<line x1="10.78" y1="0.00" x2="10.78" y2="3.00" />
<line x1="11.03" y1="0.00" x2="11.03" y2="10.00" />
<line x1="11.28" y1="0.00" x2="11.28" y2="2.00" />
<line x1="11.53" y1="0.00" x2="11.53" y2="11.00" />
<line x1="11.78" y1="0.00" x2="11.78" y2="1.00" />
<line x1="12.03" y1="0.00" x2="12.03" y2="12.00" />
<line x1="12.28" y1="0.00" x2="12.28" y2="12.00" />
<line x1="12.53" y1="0.00" x2="12.53" y2="1.00" />
<line x1="12.78" y1="0.00" x2="12.78" y2="11.00" />
<line x1="13.04" y1="0.00" x2="13.04" y2="2.00" />
<line x1="13.29" y1="0.00" x2="13.29" y2="10.00" />
<line x1="13.54" y1="0.00" x2="13.54" y2="3.00" />
<line x1="13.79" y1="0.00" x2="13.79" y2="9.00" />
<line x1="14.04" y1="0.00" x2="14.04" y2="4.00" />
<line x1="14.29" y1="0.00" x2="14.29" y2="8.00" />
<line x1="14.54" y1="0.00" x2="14.54" y2="5.00" />
<line x1="14.79" y1="0.00" x2="14.79" y2="7.00" />
<line x1="15.04" y1="0.00" x2="15.04" y2="6.00" />
<line x1="15.29" y1="0.00" x2="15.29" y2="6.00" />
<line x1="15.54" y1="0.00" x2="15.54" y2="7.00" />
<line x1="15.79" y1="0.00" x2="15.79" y2="5.00" />
<line x1="16.04" y1="0.00" x2="16.04" y2="8.00" />
<line x1="16.29" y1="0.00" x2="16.29" y2="4.00" />
<line x1="16.54" y1="0.00" x2="16.54" y2="9.00" />
<line x1="16.80" y1="0.00" x2="16.80" y2="3.00" />
<line x1="17.05" y1="0.00" x2="17.05" y2="10.00" />
<line x1="17.30" y1="0.00" x2="17.30" y2="2.00" />
<line x1="17.55" y1="0.00" x2="17.55" y2="11.00" />
<line x1="17.80" y1="0.00" x2="17.80" y2="1.00" />
<line x1="18.05" y1="0.00" x2="18.05" y2="12.00" />
</g>
</svg>