<svg xmlns="http://www.w3.org/2000/svg" width="153.7" height="100.0" viewBox="3.090 -55.000 163.710 110.000">
<g fill="none" stroke="black" stroke-width="0.0050%" transform="translate(0, 0.0000) scale(100.0000, -100.0000)">
<circle cx="0.081" cy="0.000" r="0.005" />
<line x1="0.081" y1="-0.500" x2="0.081" y2="0.500" />
<circle cx="0.162" cy="0.000" r="0.005" />
<line x1="0.162" y1="-0.450" x2="0.162" y2="0.450" />
<circle cx="0.243" cy="0.000" r="0.005" />
<line x1="0.243" y1="-0.400" x2="0.243" y2="0.400" />
<circle cx="0.324" cy="0.000" r="0.005" />
<line x1="0.324" y1="-0.350" x2="0.324" y2="0.350" />
<circle cx="0.405" cy="0.000" r="0.005" />
<line x1="0.405" y1="-0.300" x2="0.405" y2="0.300" />
<circle cx="0.485" cy="0.000" r="0.005" />
<line x1="0.485" y1="-0.250" x2="0.485" y2="0.250" />
<circle cx="0.566" cy="0.000" r="0.005" />
<line x1="0.566" y1="-0.200" x2="0.566" y2="0.200" />
<circle cx="0.647" cy="0.000" r="0.005" />
<line x1="0.647" y1="-0.150" x2="0.647" y2="0.150" />
<circle cx="0.728" cy="0.000" r="0.005" />
<line x1="0.728" y1="-0.100" x2="0.728" y2="0.100" />
<circle cx="0.809" cy="0.000" r="0.005" />
<line x1="0.809" y1="-0.050" x2="0.809" y2="0.050" />
<circle cx="0.890" cy="0.000" r="0.005" />
<line x1="0.890" y1="-0.050" x2="0.890" y2="0.050" />
<circle cx="0.971" cy="0.000" r="0.005" />
<line x1="0.971" y1="-0.100" x2="0.971" y2="0.100" />
<circle cx="1.052" cy="0.000" r="0.005" />
<line x1="1.052" y1="-0.150" x2="1.052" y2="0.150" />
<circle cx="1.133" cy="0.000" r="0.005" />
<line x1="1.133" y1="-0.200" x2="1.133" y2="0.200" />
<circle cx="1.214" cy="0.000" r="0.005" />
<line x1="1.214" y1="-0.250" x2="1.214" y2="0.250" />
<circle cx="1.294" cy="0.000" r="0.005" />
<line x1="1.294" y1="-0.300" x2="1.294" y2="0.300" />
<circle cx="1.375" cy="0.000" r="0.005" />
<line x1="1.375" y1="-0.350" x2="1.375" y2="0.350" />
<circle cx="1.456" cy="0.000" r="0.005" />
<line x1="1.456" y1="-0.400" x2="1.456" y2="0.400" />
<circle cx="1.537" cy="0.000" r="0.005" />
<line x1="1.537" y1="-0.450" x2="1.537" y2="0.450" />
<circle cx="1.618" cy="0.000" r="0.005" />
<line x1="1.618" y1="-0.500" x2="1.618" y2="0.500" />
</g>
</svg>