<svg xmlns="http://www.w3.org/2000/svg" width="161.8" height="100.0" viewBox="-85.90 -55.00 171.80 110.00">
<g fill="none" stroke="black" stroke-width="0.0182%" transform="translate(0, -0.0000) scale(27.4516, -27.4516)">
<circle cx="-2.95" cy="0.00" r="0.02" />
<circle cx="0.00" cy="1.82" r="0.02" />
<polyline points="-2.95,-1.82 -2.89,-1.54 -2.83,-1.39 -2.77,-1.28 -2.71,-1.20 -2.65,-1.13 -2.59,-1.07 -2.53,-1.02 -2.48,-0.97 -2.42,-0.93 -2.36,-0.89 -2.30,-0.85 -2.24,-0.82 -2.18,-0.78 -2.12,-0.75 -2.06,-0.72 -2.00,-0.69 -1.95,-0.67 -1.89,-0.64 -1.83,-0.61 -1.77,-0.59 -1.71,-0.56 -1.65,-0.54 -1.59,-0.52 -1.53,-0.49 -1.47,-0.47 -1.41,-0.45 -1.36,-0.43 -1.30,-0.41 -1.24,-0.39 -1.18,-0.37 -1.12,-0.35 -1.06,-0.33 -1.00,-0.31 -0.94,-0.29 -0.88,-0.27 -0.83,-0.25 -0.77,-0.23 -0.71,-0.21 -0.65,-0.20 -0.59,-0.18 -0.53,-0.16 -0.47,-0.14 -0.41,-0.12 -0.35,-0.11 -0.29,-0.09 -0.24,-0.07 -0.18,-0.05 -0.12,-0.04 -0.06,-0.02 0.00,0.00 0.06,0.02 0.12,0.04 0.18,0.05 0.24,0.07 0.29,0.09 0.35,0.11 0.41,0.12 0.47,0.14 0.53,0.16 0.59,0.18 0.65,0.20 0.71,0.21 0.77,0.23 0.83,0.25 0.88,0.27 0.94,0.29 1.00,0.31 1.06,0.33 1.12,0.35 1.18,0.37 1.24,0.39 1.30,0.41 1.36,0.43 1.41,0.45 1.47,0.47 1.53,0.49 1.59,0.52 1.65,0.54 1.71,0.56 1.77,0.59 1.83,0.61 1.89,0.64 1.95,0.67 2.00,0.69 2.06,0.72 2.12,0.75 2.18,0.78 2.24,0.82 2.30,0.85 2.36,0.89 2.42,0.93 2.48,0.97 2.53,1.02 2.59,1.07 2.65,1.13 2.71,1.20 2.77,1.28 2.83,1.39 2.89,1.54 2.95,1.82" />
</g>
</svg>