<svg xmlns="http://www.w3.org/2000/svg" width="161.8" height="100.0" viewBox="-3.49 -55.00 171.80 110.00">
<g fill="none" stroke="black" stroke-width="0.0400%" transform="translate(0, 0.0000) scale(12.5000, -12.5000)">
<line x1="0.12" y1="0.00" x2="0.12" y2="1.00" />

<line x1="0.36" y1="0.00" x2="0.36" y2="-2.00" />
<line x1="0.48" y1="0.00" x2="0.48" y2="1.00" />


<line x1="0.85" y1="0.00" x2="0.85" y2="2.00" />

<line x1="1.09" y1="0.00" x2="1.09" y2="-2.00" />


<line x1="1.45" y1="0.00" x2="1.45" y2="-2.00" />
<line x1="1.57" y1="0.00" x2="1.57" y2="2.00" />


<line x1="1.94" y1="0.00" x2="1.94" y2="1.00" />


<line x1="2.30" y1="0.00" x2="2.30" y2="2.00" />

<line x1="2.54" y1="0.00" x2="2.54" y2="-4.00" />



<line x1="3.02" y1="0.00" x2="3.02" y2="1.00" />

<line x1="3.27" y1="0.00" x2="3.27" y2="-2.00" />
<line x1="3.39" y1="0.00" x2="3.39" y2="2.00" />


<line x1="3.75" y1="0.00" x2="3.75" y2="2.00" />




<line x1="4.36" y1="0.00" x2="4.36" y2="-2.00" />
<line x1="4.48" y1="0.00" x2="4.48" y2="2.00" />

<line x1="4.72" y1="0.00" x2="4.72" y2="-4.00" />



<line x1="5.20" y1="0.00" x2="5.20" y2="2.00" />




<line x1="5.81" y1="0.00" x2="5.81" y2="-2.00" />
<line x1="5.93" y1="0.00" x2="5.93" y2="3.00" />


<line x1="6.29" y1="0.00" x2="6.29" y2="2.00" />




<line x1="6.90" y1="0.00" x2="6.90" y2="-4.00" />



<line x1="7.38" y1="0.00" x2="7.38" y2="2.00" />

<line x1="7.62" y1="0.00" x2="7.62" y2="-4.00" />
<line x1="7.74" y1="0.00" x2="7.74" y2="1.00" />


<line x1="8.11" y1="0.00" x2="8.11" y2="2.00" />





<line x1="8.83" y1="0.00" x2="8.83" y2="2.00" />

<line x1="9.07" y1="0.00" x2="9.07" y2="-2.00" />
<line x1="9.19" y1="0.00" x2="9.19" y2="2.00" />


<line x1="9.56" y1="0.00" x2="9.56" y2="2.00" />

<line x1="9.80" y1="0.00" x2="9.80" y2="-2.00" />


<line x1="10.16" y1="0.00" x2="10.16" y2="-4.00" />






<line x1="11.01" y1="0.00" x2="11.01" y2="4.00" />

<line x1="11.25" y1="0.00" x2="11.25" y2="-4.00" />



<line x1="11.73" y1="0.00" x2="11.73" y2="2.00" />


<line x1="12.10" y1="0.00" x2="12.10" y2="1.00" />


<line x1="12.46" y1="0.00" x2="12.46" y2="2.00" />




<line x1="13.07" y1="0.00" x2="13.07" y2="-2.00" />
</g>
</svg>