<svg xmlns="http://www.w3.org/2000/svg" width="161.8" height="100.0" viewBox="-2.47 -54.60 171.80 110.00">
<g fill="none" stroke="black" stroke-width="0.1307%" transform="translate(0, 0.7995) scale(3.8243, -3.8243)">
<line x1="0.66" y1="0.00" x2="0.66" y2="0.52" />

<line x1="1.98" y1="0.00" x2="1.98" y2="0.52" />
<line x1="2.64" y1="0.00" x2="2.64" y2="-0.52" />
<line x1="3.31" y1="0.00" x2="3.31" y2="0.75" />
<line x1="3.97" y1="0.00" x2="3.97" y2="-0.90" />
<line x1="4.63" y1="0.00" x2="4.63" y2="1.10" />
<line x1="5.29" y1="0.00" x2="5.29" y2="-1.29" />
<line x1="5.95" y1="0.00" x2="5.95" y2="1.49" />
<line x1="6.61" y1="0.00" x2="6.61" y2="-1.69" />
<line x1="7.27" y1="0.00" x2="7.27" y2="1.90" />
<line x1="7.93" y1="0.00" x2="7.93" y2="-2.11" />
<line x1="8.59" y1="0.00" x2="8.59" y2="2.31" />
<line x1="9.26" y1="0.00" x2="9.26" y2="-2.52" />
<line x1="9.92" y1="0.00" x2="9.92" y2="2.73" />
<line x1="10.58" y1="0.00" x2="10.58" y2="-2.94" />
<line x1="11.24" y1="0.00" x2="11.24" y2="3.15" />
<line x1="11.90" y1="0.00" x2="11.90" y2="-3.36" />
<line x1="12.56" y1="0.00" x2="12.56" y2="3.57" />
<line x1="13.22" y1="0.00" x2="13.22" y2="-3.77" />
<line x1="13.88" y1="0.00" x2="13.88" y2="3.98" />
<line x1="14.54" y1="0.00" x2="14.54" y2="-4.19" />
<line x1="15.21" y1="0.00" x2="15.21" y2="4.40" />
<line x1="15.87" y1="0.00" x2="15.87" y2="-4.61" />
<line x1="16.53" y1="0.00" x2="16.53" y2="4.82" />
<line x1="17.19" y1="0.00" x2="17.19" y2="-5.03" />
<line x1="17.85" y1="0.00" x2="17.85" y2="5.24" />
<line x1="18.51" y1="0.00" x2="18.51" y2="-5.45" />
<line x1="19.17" y1="0.00" x2="19.17" y2="5.66" />
<line x1="19.83" y1="0.00" x2="19.83" y2="-5.86" />
<line x1="20.49" y1="0.00" x2="20.49" y2="6.07" />
<line x1="21.15" y1="0.00" x2="21.15" y2="-6.28" />
<line x1="21.82" y1="0.00" x2="21.82" y2="6.49" />
<line x1="22.48" y1="0.00" x2="22.48" y2="-6.70" />
<line x1="23.14" y1="0.00" x2="23.14" y2="6.91" />
<line x1="23.80" y1="0.00" x2="23.80" y2="-7.12" />
<line x1="24.46" y1="0.00" x2="24.46" y2="7.33" />
<line x1="25.12" y1="0.00" x2="25.12" y2="-7.54" />
<line x1="25.78" y1="0.00" x2="25.78" y2="7.75" />
<line x1="26.44" y1="0.00" x2="26.44" y2="-7.95" />
<line x1="27.10" y1="0.00" x2="27.10" y2="8.16" />
<line x1="27.77" y1="0.00" x2="27.77" y2="-8.37" />
<line x1="28.43" y1="0.00" x2="28.43" y2="8.58" />
<line x1="29.09" y1="0.00" x2="29.09" y2="-8.79" />
<line x1="29.75" y1="0.00" x2="29.75" y2="9.00" />
<line x1="30.41" y1="0.00" x2="30.41" y2="-9.21" />
<line x1="31.07" y1="0.00" x2="31.07" y2="9.42" />
<line x1="31.73" y1="0.00" x2="31.73" y2="-9.63" />
<line x1="32.39" y1="0.00" x2="32.39" y2="9.84" />
<line x1="33.05" y1="0.00" x2="33.05" y2="-10.04" />
<line x1="33.72" y1="0.00" x2="33.72" y2="10.25" />
<line x1="34.38" y1="0.00" x2="34.38" y2="-10.46" />
<line x1="35.04" y1="0.00" x2="35.04" y2="10.67" />
<line x1="35.70" y1="0.00" x2="35.70" y2="-10.88" />
<line x1="36.36" y1="0.00" x2="36.36" y2="11.09" />
<line x1="37.02" y1="0.00" x2="37.02" y2="-11.30" />
<line x1="37.68" y1="0.00" x2="37.68" y2="11.51" />
<line x1="38.34" y1="0.00" x2="38.34" y2="-11.72" />
<line x1="39.00" y1="0.00" x2="39.00" y2="11.93" />
<line x1="39.67" y1="0.00" x2="39.67" y2="-12.13" />
<line x1="40.33" y1="0.00" x2="40.33" y2="12.34" />
<line x1="40.99" y1="0.00" x2="40.99" y2="-12.55" />
<line x1="41.65" y1="0.00" x2="41.65" y2="12.76" />
<line x1="42.31" y1="0.00" x2="42.31" y2="-12.97" />
<line x1="42.97" y1="0.00" x2="42.97" y2="13.18" />
</g>
</svg>