<svg xmlns="http://www.w3.org/2000/svg" width="100.0" height="100.0" viewBox="-5.000 -5.000 110.000 110.000">
<g fill="none" stroke="black" stroke-width="0.0050%" transform="translate(0, 100.0000) scale(100.0000, -100.0000)">
<circle cx="0.000" cy="1.000" r="0.005" />
<polyline points="0.000,0.000 0.010,0.059 0.020,0.084 0.030,0.104 0.040,0.120 0.050,0.135 0.060,0.149 0.070,0.162 0.080,0.174 0.090,0.185 0.100,0.196 0.110,0.206 0.120,0.216 0.130,0.226 0.140,0.235 0.150,0.244 0.160,0.253 0.170,0.262 0.180,0.271 0.190,0.279 0.200,0.287 0.210,0.295 0.220,0.303 0.230,0.311 0.240,0.319 0.250,0.326 0.260,0.334 0.270,0.341 0.280,0.349 0.290,0.356 0.300,0.363 0.310,0.370 0.320,0.378 0.330,0.385 0.340,0.392 0.350,0.399 0.360,0.406 0.370,0.412 0.380,0.419 0.390,0.426 0.400,0.433 0.410,0.440 0.420,0.446 0.430,0.453 0.440,0.460 0.450,0.467 0.460,0.473 0.470,0.480 0.480,0.487 0.490,0.493 0.500,0.500 0.510,0.507 0.520,0.513 0.530,0.520 0.540,0.527 0.550,0.533 0.560,0.540 0.570,0.547 0.580,0.554 0.590,0.560 0.600,0.567 0.610,0.574 0.620,0.581 0.630,0.588 0.640,0.594 0.650,0.601 0.660,0.608 0.670,0.615 0.680,0.622 0.690,0.630 0.700,0.637 0.710,0.644 0.720,0.651 0.730,0.659 0.740,0.666 0.750,0.674 0.760,0.681 0.770,0.689 0.780,0.697 0.790,0.705 0.800,0.713 0.810,0.721 0.820,0.729 0.830,0.738 0.840,0.747 0.850,0.756 0.860,0.765 0.870,0.774 0.880,0.784 0.890,0.794 0.900,0.804 0.910,0.815 0.920,0.826 0.930,0.838 0.940,0.851 0.950,0.865 0.960,0.880 0.970,0.896 0.980,0.916 0.990,0.941 1.000,1.000" />
</g>
</svg>