<svg xmlns="http://www.w3.org/2000/svg" width="161.8" height="100.0" viewBox="-3.3 -5.0 171.8 110.0">
<g fill="none" stroke="black" stroke-width="0.2350%" transform="translate(0, 100.0000) scale(2.1277, -2.1277)">
<line x1="0.8" y1="0.0" x2="0.8" y2="1.0" />
<line x1="1.6" y1="0.0" x2="1.6" y2="3.0" />
<line x1="2.5" y1="0.0" x2="2.5" y2="5.0" />
<line x1="3.3" y1="0.0" x2="3.3" y2="1.0" />
<line x1="4.1" y1="0.0" x2="4.1" y2="7.0" />

<line x1="5.7" y1="0.0" x2="5.7" y2="9.0" />
<line x1="6.5" y1="0.0" x2="6.5" y2="3.0" />
<line x1="7.4" y1="0.0" x2="7.4" y2="11.0" />

<line x1="9.0" y1="0.0" x2="9.0" y2="1.0" />
<line x1="9.8" y1="0.0" x2="9.8" y2="13.0" />
<line x1="10.6" y1="0.0" x2="10.6" y2="5.0" />

<line x1="12.3" y1="0.0" x2="12.3" y2="15.0" />


<line x1="14.7" y1="0.0" x2="14.7" y2="17.0" />
<line x1="15.5" y1="0.0" x2="15.5" y2="7.0" />
<line x1="16.4" y1="0.0" x2="16.4" y2="3.0" />
<line x1="17.2" y1="0.0" x2="17.2" y2="19.0" />


<line x1="19.6" y1="0.0" x2="19.6" y2="1.0" />
<line x1="20.4" y1="0.0" x2="20.4" y2="21.0" />
<line x1="21.3" y1="0.0" x2="21.3" y2="9.0" />


<line x1="23.7" y1="0.0" x2="23.7" y2="23.0" />

<line x1="25.3" y1="0.0" x2="25.3" y2="5.0" />

<line x1="27.0" y1="0.0" x2="27.0" y2="25.0" />
<line x1="27.8" y1="0.0" x2="27.8" y2="11.0" />


<line x1="30.3" y1="0.0" x2="30.3" y2="27.0" />


<line x1="32.7" y1="0.0" x2="32.7" y2="3.0" />
<line x1="33.5" y1="0.0" x2="33.5" y2="29.0" />
<line x1="34.3" y1="0.0" x2="34.3" y2="13.0" />
<line x1="35.2" y1="0.0" x2="35.2" y2="7.0" />

<line x1="36.8" y1="0.0" x2="36.8" y2="1.0" />
<line x1="37.6" y1="0.0" x2="37.6" y2="31.0" />




<line x1="41.7" y1="0.0" x2="41.7" y2="33.0" />
<line x1="42.5" y1="0.0" x2="42.5" y2="15.0" />



<line x1="45.8" y1="0.0" x2="45.8" y2="35.0" />

<line x1="47.4" y1="0.0" x2="47.4" y2="9.0" />
<line x1="48.2" y1="0.0" x2="48.2" y2="5.0" />

<line x1="49.9" y1="0.0" x2="49.9" y2="37.0" />
<line x1="50.7" y1="0.0" x2="50.7" y2="17.0" />



<line x1="54.0" y1="0.0" x2="54.0" y2="39.0" />



<line x1="57.2" y1="0.0" x2="57.2" y2="3.0" />
<line x1="58.1" y1="0.0" x2="58.1" y2="41.0" />
<line x1="58.9" y1="0.0" x2="58.9" y2="19.0" />
<line x1="59.7" y1="0.0" x2="59.7" y2="11.0" />


<line x1="62.1" y1="0.0" x2="62.1" y2="1.0" />
<line x1="63.0" y1="0.0" x2="63.0" y2="43.0" />


<line x1="65.4" y1="0.0" x2="65.4" y2="7.0" />


<line x1="67.9" y1="0.0" x2="67.9" y2="45.0" />
<line x1="68.7" y1="0.0" x2="68.7" y2="21.0" />




<line x1="72.8" y1="0.0" x2="72.8" y2="47.0" />

<line x1="74.4" y1="0.0" x2="74.4" y2="13.0" />



</g>
</svg>