<svg xmlns="http://www.w3.org/2000/svg" width="161.8" height="100.0" viewBox="-30 -5 172 110">
<g fill="none" stroke="black" stroke-width="2.1300%" transform="translate(0, 100.0000) scale(0.2347, -0.2347)">
<circle cx="-108" cy="0" r="2" />
<circle cx="0" cy="426" r="2" />
<line x1="-108" y1="0" x2="-108" y2="1" />



<line x1="-76" y1="0" x2="-76" y2="1" />



<line x1="-44" y1="0" x2="-44" y2="1" />
<line x1="-36" y1="0" x2="-36" y2="3" />
<line x1="-28" y1="0" x2="-28" y2="2" />
<line x1="-20" y1="0" x2="-20" y2="2" />
<line x1="-12" y1="0" x2="-12" y2="1" />
<line x1="-4" y1="0" x2="-4" y2="3" />
<line x1="4" y1="0" x2="4" y2="6" />
<line x1="12" y1="0" x2="12" y2="9" />
<line x1="20" y1="0" x2="20" y2="9" />
<line x1="28" y1="0" x2="28" y2="18" />
<line x1="36" y1="0" x2="36" y2="22" />
<line x1="44" y1="0" x2="44" y2="19" />
<line x1="52" y1="0" x2="52" y2="30" />
<line x1="60" y1="0" x2="60" y2="37" />
<line x1="68" y1="0" x2="68" y2="38" />
<line x1="76" y1="0" x2="76" y2="49" />
<line x1="84" y1="0" x2="84" y2="50" />
<line x1="92" y1="0" x2="92" y2="73" />
<line x1="100" y1="0" x2="100" y2="90" />
<line x1="108" y1="0" x2="108" y2="111" />
<line x1="116" y1="0" x2="116" y2="125" />
<line x1="124" y1="0" x2="124" y2="137" />
<line x1="132" y1="0" x2="132" y2="175" />
<line x1="140" y1="0" x2="140" y2="165" />
<line x1="148" y1="0" x2="148" y2="208" />
<line x1="156" y1="0" x2="156" y2="219" />
<line x1="164" y1="0" x2="164" y2="249" />
<line x1="172" y1="0" x2="172" y2="276" />
<line x1="180" y1="0" x2="180" y2="309" />
<line x1="188" y1="0" x2="188" y2="312" />
<line x1="196" y1="0" x2="196" y2="340" />
<line x1="204" y1="0" x2="204" y2="340" />
<line x1="212" y1="0" x2="212" y2="395" />
<line x1="220" y1="0" x2="220" y2="394" />
<line x1="228" y1="0" x2="228" y2="397" />
<line x1="236" y1="0" x2="236" y2="417" />
<line x1="244" y1="0" x2="244" y2="426" />
<line x1="252" y1="0" x2="252" y2="400" />
<line x1="260" y1="0" x2="260" y2="391" />
<line x1="268" y1="0" x2="268" y2="371" />
<line x1="277" y1="0" x2="277" y2="339" />
<line x1="285" y1="0" x2="285" y2="350" />
<line x1="293" y1="0" x2="293" y2="321" />
<line x1="301" y1="0" x2="301" y2="288" />
<line x1="309" y1="0" x2="309" y2="277" />
<line x1="317" y1="0" x2="317" y2="260" />
<line x1="325" y1="0" x2="325" y2="225" />
<line x1="333" y1="0" x2="333" y2="199" />
<line x1="341" y1="0" x2="341" y2="172" />
<line x1="349" y1="0" x2="349" y2="173" />
<line x1="357" y1="0" x2="357" y2="124" />
<line x1="365" y1="0" x2="365" y2="118" />
<line x1="373" y1="0" x2="373" y2="88" />
<line x1="381" y1="0" x2="381" y2="88" />
<line x1="389" y1="0" x2="389" y2="74" />
<line x1="397" y1="0" x2="397" y2="63" />
<line x1="405" y1="0" x2="405" y2="47" />
<line x1="413" y1="0" x2="413" y2="24" />
<line x1="421" y1="0" x2="421" y2="37" />
<line x1="429" y1="0" x2="429" y2="28" />
<line x1="437" y1="0" x2="437" y2="25" />
<line x1="445" y1="0" x2="445" y2="15" />
<line x1="453" y1="0" x2="453" y2="18" />
<line x1="461" y1="0" x2="461" y2="3" />
<line x1="469" y1="0" x2="469" y2="9" />
<line x1="477" y1="0" x2="477" y2="3" />
<line x1="485" y1="0" x2="485" y2="3" />
<line x1="493" y1="0" x2="493" y2="1" />
<line x1="501" y1="0" x2="501" y2="2" />

<line x1="517" y1="0" x2="517" y2="1" />
<line x1="525" y1="0" x2="525" y2="1" />
<line x1="533" y1="0" x2="533" y2="1" />

<line x1="549" y1="0" x2="549" y2="1" />



<line x1="581" y1="0" x2="581" y2="1" />
</g>
</svg>