<svg xmlns="http://www.w3.org/2000/svg" width="161.8" height="100.0" viewBox="-3.366 -5.000 171.803 110.000">
<g fill="none" stroke="black" stroke-width="0.0050%" transform="translate(0, 100.0000) scale(100.0000, -100.0000)">



<line x1="0.065" y1="0.000" x2="0.065" y2="1.000" />

<line x1="0.098" y1="0.000" x2="0.098" y2="1.000" />

<line x1="0.131" y1="0.000" x2="0.131" y2="1.000" />
<line x1="0.147" y1="0.000" x2="0.147" y2="1.000" />
<line x1="0.163" y1="0.000" x2="0.163" y2="1.000" />

<line x1="0.196" y1="0.000" x2="0.196" y2="1.000" />

<line x1="0.229" y1="0.000" x2="0.229" y2="1.000" />
<line x1="0.245" y1="0.000" x2="0.245" y2="1.000" />
<line x1="0.262" y1="0.000" x2="0.262" y2="1.000" />

<line x1="0.294" y1="0.000" x2="0.294" y2="1.000" />

<line x1="0.327" y1="0.000" x2="0.327" y2="1.000" />
<line x1="0.343" y1="0.000" x2="0.343" y2="1.000" />
<line x1="0.360" y1="0.000" x2="0.360" y2="1.000" />

<line x1="0.392" y1="0.000" x2="0.392" y2="1.000" />
<line x1="0.409" y1="0.000" x2="0.409" y2="1.000" />
<line x1="0.425" y1="0.000" x2="0.425" y2="1.000" />
<line x1="0.441" y1="0.000" x2="0.441" y2="1.000" />
<line x1="0.458" y1="0.000" x2="0.458" y2="1.000" />

<line x1="0.490" y1="0.000" x2="0.490" y2="1.000" />

<line x1="0.523" y1="0.000" x2="0.523" y2="1.000" />
<line x1="0.539" y1="0.000" x2="0.539" y2="1.000" />
<line x1="0.556" y1="0.000" x2="0.556" y2="1.000" />
<line x1="0.572" y1="0.000" x2="0.572" y2="1.000" />
<line x1="0.588" y1="0.000" x2="0.588" y2="1.000" />

<line x1="0.621" y1="0.000" x2="0.621" y2="1.000" />
<line x1="0.637" y1="0.000" x2="0.637" y2="1.000" />
<line x1="0.654" y1="0.000" x2="0.654" y2="1.000" />

<line x1="0.686" y1="0.000" x2="0.686" y2="1.000" />

<line x1="0.719" y1="0.000" x2="0.719" y2="1.000" />
<line x1="0.735" y1="0.000" x2="0.735" y2="1.000" />
<line x1="0.752" y1="0.000" x2="0.752" y2="1.000" />

<line x1="0.785" y1="0.000" x2="0.785" y2="1.000" />
<line x1="0.801" y1="0.000" x2="0.801" y2="1.000" />
<line x1="0.817" y1="0.000" x2="0.817" y2="1.000" />
<line x1="0.834" y1="0.000" x2="0.834" y2="1.000" />
<line x1="0.850" y1="0.000" x2="0.850" y2="1.000" />

<line x1="0.883" y1="0.000" x2="0.883" y2="1.000" />
<line x1="0.899" y1="0.000" x2="0.899" y2="1.000" />
<line x1="0.915" y1="0.000" x2="0.915" y2="1.000" />
<line x1="0.932" y1="0.000" x2="0.932" y2="1.000" />
<line x1="0.948" y1="0.000" x2="0.948" y2="1.000" />

<line x1="0.981" y1="0.000" x2="0.981" y2="1.000" />

<line x1="1.013" y1="0.000" x2="1.013" y2="1.000" />
<line x1="1.030" y1="0.000" x2="1.030" y2="1.000" />
<line x1="1.046" y1="0.000" x2="1.046" y2="1.000" />
<line x1="1.062" y1="0.000" x2="1.062" y2="1.000" />
<line x1="1.079" y1="0.000" x2="1.079" y2="1.000" />

<line x1="1.111" y1="0.000" x2="1.111" y2="1.000" />
<line x1="1.128" y1="0.000" x2="1.128" y2="1.000" />
<line x1="1.144" y1="0.000" x2="1.144" y2="1.000" />

<line x1="1.177" y1="0.000" x2="1.177" y2="1.000" />

<line x1="1.209" y1="0.000" x2="1.209" y2="1.000" />
<line x1="1.226" y1="0.000" x2="1.226" y2="1.000" />
<line x1="1.242" y1="0.000" x2="1.242" y2="1.000" />
<line x1="1.258" y1="0.000" x2="1.258" y2="1.000" />
<line x1="1.275" y1="0.000" x2="1.275" y2="1.000" />

<line x1="1.308" y1="0.000" x2="1.308" y2="1.000" />
<line x1="1.324" y1="0.000" x2="1.324" y2="1.000" />
<line x1="1.340" y1="0.000" x2="1.340" y2="1.000" />

<line x1="1.373" y1="0.000" x2="1.373" y2="1.000" />
<line x1="1.389" y1="0.000" x2="1.389" y2="1.000" />
<line x1="1.406" y1="0.000" x2="1.406" y2="1.000" />
<line x1="1.422" y1="0.000" x2="1.422" y2="1.000" />
<line x1="1.438" y1="0.000" x2="1.438" y2="1.000" />

<line x1="1.471" y1="0.000" x2="1.471" y2="1.000" />
<line x1="1.487" y1="0.000" x2="1.487" y2="1.000" />
<line x1="1.504" y1="0.000" x2="1.504" y2="1.000" />
<line x1="1.520" y1="0.000" x2="1.520" y2="1.000" />
<line x1="1.536" y1="0.000" x2="1.536" y2="1.000" />
<line x1="1.553" y1="0.000" x2="1.553" y2="1.000" />
<line x1="1.569" y1="0.000" x2="1.569" y2="1.000" />

<line x1="1.602" y1="0.000" x2="1.602" y2="1.000" />
<line x1="1.618" y1="0.000" x2="1.618" y2="1.000" />
<line x1="1.634" y1="0.000" x2="1.634" y2="1.000" />
</g>
</svg>