<svg xmlns="http://www.w3.org/2000/svg" width="161.8" height="100.0" viewBox="-3.074 -5.000 171.803 110.000">
<g fill="none" stroke="black" stroke-width="0.0050%" transform="translate(0, 100.0000) scale(100.0000, -100.0000)">
<line x1="0.019" y1="0.000" x2="0.019" y2="1.000" />
<line x1="0.039" y1="0.000" x2="0.039" y2="1.000" />
<line x1="0.058" y1="0.000" x2="0.058" y2="1.000" />
<line x1="0.077" y1="0.000" x2="0.077" y2="1.000" />
<line x1="0.096" y1="0.000" x2="0.096" y2="1.000" />
<line x1="0.116" y1="0.000" x2="0.116" y2="1.000" />
<line x1="0.135" y1="0.000" x2="0.135" y2="1.000" />

<line x1="0.173" y1="0.000" x2="0.173" y2="1.000" />
<line x1="0.193" y1="0.000" x2="0.193" y2="1.000" />
<line x1="0.212" y1="0.000" x2="0.212" y2="1.000" />
<line x1="0.231" y1="0.000" x2="0.231" y2="1.000" />
<line x1="0.250" y1="0.000" x2="0.250" y2="1.000" />
<line x1="0.270" y1="0.000" x2="0.270" y2="1.000" />
<line x1="0.289" y1="0.000" x2="0.289" y2="1.000" />

<line x1="0.327" y1="0.000" x2="0.327" y2="1.000" />
<line x1="0.347" y1="0.000" x2="0.347" y2="1.000" />
<line x1="0.366" y1="0.000" x2="0.366" y2="1.000" />
<line x1="0.385" y1="0.000" x2="0.385" y2="1.000" />
<line x1="0.405" y1="0.000" x2="0.405" y2="1.000" />
<line x1="0.424" y1="0.000" x2="0.424" y2="1.000" />
<line x1="0.443" y1="0.000" x2="0.443" y2="1.000" />

<line x1="0.482" y1="0.000" x2="0.482" y2="1.000" />
<line x1="0.501" y1="0.000" x2="0.501" y2="1.000" />

<line x1="0.539" y1="0.000" x2="0.539" y2="1.000" />
<line x1="0.559" y1="0.000" x2="0.559" y2="1.000" />
<line x1="0.578" y1="0.000" x2="0.578" y2="1.000" />
<line x1="0.597" y1="0.000" x2="0.597" y2="1.000" />

<line x1="0.636" y1="0.000" x2="0.636" y2="1.000" />
<line x1="0.655" y1="0.000" x2="0.655" y2="1.000" />
<line x1="0.674" y1="0.000" x2="0.674" y2="1.000" />
<line x1="0.693" y1="0.000" x2="0.693" y2="1.000" />
<line x1="0.713" y1="0.000" x2="0.713" y2="1.000" />
<line x1="0.732" y1="0.000" x2="0.732" y2="1.000" />
<line x1="0.751" y1="0.000" x2="0.751" y2="1.000" />

<line x1="0.790" y1="0.000" x2="0.790" y2="1.000" />
<line x1="0.809" y1="0.000" x2="0.809" y2="1.000" />
<line x1="0.828" y1="0.000" x2="0.828" y2="1.000" />
<line x1="0.848" y1="0.000" x2="0.848" y2="1.000" />
<line x1="0.867" y1="0.000" x2="0.867" y2="1.000" />
<line x1="0.886" y1="0.000" x2="0.886" y2="1.000" />
<line x1="0.905" y1="0.000" x2="0.905" y2="1.000" />

<line x1="0.944" y1="0.000" x2="0.944" y2="1.000" />
<line x1="0.963" y1="0.000" x2="0.963" y2="1.000" />
<line x1="0.982" y1="0.000" x2="0.982" y2="1.000" />
<line x1="1.002" y1="0.000" x2="1.002" y2="1.000" />
<line x1="1.021" y1="0.000" x2="1.021" y2="1.000" />

<line x1="1.059" y1="0.000" x2="1.059" y2="1.000" />

<line x1="1.098" y1="0.000" x2="1.098" y2="1.000" />
<line x1="1.117" y1="0.000" x2="1.117" y2="1.000" />
<line x1="1.136" y1="0.000" x2="1.136" y2="1.000" />
<line x1="1.156" y1="0.000" x2="1.156" y2="1.000" />
<line x1="1.175" y1="0.000" x2="1.175" y2="1.000" />
<line x1="1.194" y1="0.000" x2="1.194" y2="1.000" />
<line x1="1.214" y1="0.000" x2="1.214" y2="1.000" />

<line x1="1.252" y1="0.000" x2="1.252" y2="1.000" />
<line x1="1.271" y1="0.000" x2="1.271" y2="1.000" />
<line x1="1.291" y1="0.000" x2="1.291" y2="1.000" />
<line x1="1.310" y1="0.000" x2="1.310" y2="1.000" />
<line x1="1.329" y1="0.000" x2="1.329" y2="1.000" />
<line x1="1.348" y1="0.000" x2="1.348" y2="1.000" />
<line x1="1.368" y1="0.000" x2="1.368" y2="1.000" />

<line x1="1.406" y1="0.000" x2="1.406" y2="1.000" />
<line x1="1.425" y1="0.000" x2="1.425" y2="1.000" />
<line x1="1.445" y1="0.000" x2="1.445" y2="1.000" />
<line x1="1.464" y1="0.000" x2="1.464" y2="1.000" />
<line x1="1.483" y1="0.000" x2="1.483" y2="1.000" />
<line x1="1.502" y1="0.000" x2="1.502" y2="1.000" />
<line x1="1.522" y1="0.000" x2="1.522" y2="1.000" />


<line x1="1.580" y1="0.000" x2="1.580" y2="1.000" />
<line x1="1.599" y1="0.000" x2="1.599" y2="1.000" />
<line x1="1.618" y1="0.000" x2="1.618" y2="1.000" />
<line x1="1.637" y1="0.000" x2="1.637" y2="1.000" />
</g>
</svg>