<svg xmlns="http://www.w3.org/2000/svg" width="161.8" height="100.0" viewBox="-85.90 -55.00 171.80 110.00">
<g fill="none" stroke="black" stroke-width="0.0953%" transform="translate(0, 0.0000) scale(5.2486, -5.2486)">
<circle cx="-5.30" cy="-9.53" r="0.10" />
<circle cx="-6.26" cy="-7.79" r="0.10" />
<circle cx="-6.74" cy="-6.93" r="0.10" />
<circle cx="-9.15" cy="-2.60" r="0.10" />
<circle cx="-9.63" cy="-1.73" r="0.10" />
<circle cx="-10.60" cy="0.00" r="0.10" />
<circle cx="-12.04" cy="2.60" r="0.10" />
<circle cx="-12.52" cy="3.46" r="0.10" />
<circle cx="-13.49" cy="5.20" r="0.10" />
<circle cx="-15.41" cy="8.66" r="0.10" />
<circle cx="-6.26" cy="-6.06" r="0.10" />
<circle cx="-8.19" cy="-2.60" r="0.10" />
<circle cx="-11.08" cy="2.60" r="0.10" />
<circle cx="-13.97" cy="7.79" r="0.10" />
<circle cx="-14.93" cy="9.53" r="0.10" />
<circle cx="-3.37" cy="-9.53" r="0.10" />
<circle cx="-4.82" cy="-6.93" r="0.10" />
<circle cx="-5.30" cy="-6.06" r="0.10" />
<circle cx="-6.26" cy="-4.33" r="0.10" />
<circle cx="-6.74" cy="-3.46" r="0.10" />
<circle cx="-7.71" cy="-1.73" r="0.10" />
<circle cx="-8.19" cy="-0.87" r="0.10" />
<circle cx="-9.63" cy="1.73" r="0.10" />
<circle cx="-11.08" cy="4.33" r="0.10" />
<circle cx="-12.04" cy="6.06" r="0.10" />
<circle cx="-13.49" cy="8.66" r="0.10" />
<circle cx="-2.41" cy="-9.53" r="0.10" />
<circle cx="-3.37" cy="-7.79" r="0.10" />
<circle cx="-8.19" cy="0.87" r="0.10" />
<circle cx="-9.15" cy="2.60" r="0.10" />
<circle cx="-1.93" cy="-8.66" r="0.10" />
<circle cx="-2.41" cy="-7.79" r="0.10" />
<circle cx="-3.85" cy="-5.20" r="0.10" />
<circle cx="-4.82" cy="-3.46" r="0.10" />
<circle cx="-5.30" cy="-2.60" r="0.10" />
<circle cx="-6.26" cy="-0.87" r="0.10" />
<circle cx="-7.71" cy="1.73" r="0.10" />
<circle cx="-8.19" cy="2.60" r="0.10" />
<circle cx="-9.15" cy="4.33" r="0.10" />
<circle cx="-9.63" cy="5.20" r="0.10" />
<circle cx="-11.08" cy="7.79" r="0.10" />
<circle cx="-2.41" cy="-6.06" r="0.10" />
<circle cx="-3.37" cy="-4.33" r="0.10" />
<circle cx="-5.30" cy="-0.87" r="0.10" />
<circle cx="-6.26" cy="0.87" r="0.10" />
<circle cx="-9.15" cy="6.06" r="0.10" />
<circle cx="-11.08" cy="9.53" r="0.10" />
<circle cx="-0.48" cy="-7.79" r="0.10" />
<circle cx="-1.93" cy="-5.20" r="0.10" />
<circle cx="-2.41" cy="-4.33" r="0.10" />
<circle cx="-3.37" cy="-2.60" r="0.10" />
<circle cx="-3.85" cy="-1.73" r="0.10" />
<circle cx="-4.82" cy="0.00" r="0.10" />
<circle cx="-5.30" cy="0.87" r="0.10" />
<circle cx="-6.74" cy="3.46" r="0.10" />
<circle cx="-8.19" cy="6.06" r="0.10" />
<circle cx="-9.15" cy="7.79" r="0.10" />
<circle cx="0.48" cy="-7.79" r="0.10" />
<circle cx="-0.48" cy="-6.06" r="0.10" />
<circle cx="-2.41" cy="-2.60" r="0.10" />
<circle cx="-3.37" cy="-0.87" r="0.10" />
<circle cx="-5.30" cy="2.60" r="0.10" />
<circle cx="-6.26" cy="4.33" r="0.10" />
<circle cx="-9.15" cy="9.53" r="0.10" />
<circle cx="2.41" cy="-9.53" r="0.10" />
<circle cx="1.93" cy="-8.66" r="0.10" />
<circle cx="0.48" cy="-6.06" r="0.10" />
<circle cx="-0.48" cy="-4.33" r="0.10" />
<circle cx="-0.96" cy="-3.46" r="0.10" />
<circle cx="-1.93" cy="-1.73" r="0.10" />
<circle cx="-2.41" cy="-0.87" r="0.10" />
<circle cx="-3.37" cy="0.87" r="0.10" />
<circle cx="-3.85" cy="1.73" r="0.10" />
<circle cx="-4.82" cy="3.46" r="0.10" />
<circle cx="-6.26" cy="6.06" r="0.10" />
<circle cx="-6.74" cy="6.93" r="0.10" />
<circle cx="-7.71" cy="8.66" r="0.10" />
<circle cx="-8.19" cy="9.53" r="0.10" />
<circle cx="3.37" cy="-9.53" r="0.10" />
<circle cx="2.41" cy="-7.79" r="0.10" />
<circle cx="0.48" cy="-4.33" r="0.10" />
<circle cx="-0.48" cy="-2.60" r="0.10" />
<circle cx="-0.96" cy="-1.73" r="0.10" />
<circle cx="-1.45" cy="-0.87" r="0.10" />
<circle cx="-1.93" cy="0.00" r="0.10" />
<circle cx="-2.41" cy="0.87" r="0.10" />
<circle cx="-3.37" cy="2.60" r="0.10" />
<circle cx="-5.30" cy="6.06" r="0.10" />
<circle cx="-6.26" cy="7.79" r="0.10" />
<circle cx="3.37" cy="-7.79" r="0.10" />
<circle cx="2.41" cy="-6.06" r="0.10" />
<circle cx="1.93" cy="-5.20" r="0.10" />
<circle cx="0.96" cy="-3.46" r="0.10" />
<circle cx="0.48" cy="-2.60" r="0.10" />
<circle cx="0.00" cy="-1.73" r="0.10" />
<circle cx="-1.45" cy="0.87" r="0.10" />
<circle cx="-1.93" cy="1.73" r="0.10" />
<circle cx="-2.41" cy="2.60" r="0.10" />
<circle cx="-3.37" cy="4.33" r="0.10" />
<circle cx="-3.85" cy="5.20" r="0.10" />
<circle cx="-4.82" cy="6.93" r="0.10" />
<circle cx="5.30" cy="-9.53" r="0.10" />
<circle cx="2.41" cy="-4.33" r="0.10" />
<circle cx="0.96" cy="-1.73" r="0.10" />
<circle cx="-0.96" cy="1.73" r="0.10" />
<circle cx="-2.41" cy="4.33" r="0.10" />
<circle cx="-5.30" cy="9.53" r="0.10" />
<circle cx="4.82" cy="-6.93" r="0.10" />
<circle cx="3.85" cy="-5.20" r="0.10" />
<circle cx="3.37" cy="-4.33" r="0.10" />
<circle cx="2.41" cy="-2.60" r="0.10" />
<circle cx="1.93" cy="-1.73" r="0.10" />
<circle cx="1.45" cy="-0.87" r="0.10" />
<circle cx="0.00" cy="1.73" r="0.10" />
<circle cx="-0.48" cy="2.60" r="0.10" />
<circle cx="-0.96" cy="3.46" r="0.10" />
<circle cx="-1.93" cy="5.20" r="0.10" />
<circle cx="-2.41" cy="6.06" r="0.10" />
<circle cx="-3.37" cy="7.79" r="0.10" />
<circle cx="6.26" cy="-7.79" r="0.10" />
<circle cx="5.30" cy="-6.06" r="0.10" />
<circle cx="3.37" cy="-2.60" r="0.10" />
<circle cx="2.41" cy="-0.87" r="0.10" />
<circle cx="1.93" cy="0.00" r="0.10" />
<circle cx="1.45" cy="0.87" r="0.10" />
<circle cx="0.96" cy="1.73" r="0.10" />
<circle cx="0.48" cy="2.60" r="0.10" />
<circle cx="-0.48" cy="4.33" r="0.10" />
<circle cx="-2.41" cy="7.79" r="0.10" />
<circle cx="-3.37" cy="9.53" r="0.10" />
<circle cx="8.19" cy="-9.53" r="0.10" />
<circle cx="7.71" cy="-8.66" r="0.10" />
<circle cx="6.74" cy="-6.93" r="0.10" />
<circle cx="6.26" cy="-6.06" r="0.10" />
<circle cx="4.82" cy="-3.46" r="0.10" />
<circle cx="3.85" cy="-1.73" r="0.10" />
<circle cx="3.37" cy="-0.87" r="0.10" />
<circle cx="2.41" cy="0.87" r="0.10" />
<circle cx="1.93" cy="1.73" r="0.10" />
<circle cx="0.96" cy="3.46" r="0.10" />
<circle cx="0.48" cy="4.33" r="0.10" />
<circle cx="-0.48" cy="6.06" r="0.10" />
<circle cx="-1.93" cy="8.66" r="0.10" />
<circle cx="-2.41" cy="9.53" r="0.10" />
<circle cx="9.15" cy="-9.53" r="0.10" />
<circle cx="6.26" cy="-4.33" r="0.10" />
<circle cx="5.30" cy="-2.60" r="0.10" />
<circle cx="3.37" cy="0.87" r="0.10" />
<circle cx="2.41" cy="2.60" r="0.10" />
<circle cx="0.48" cy="6.06" r="0.10" />
<circle cx="-0.48" cy="7.79" r="0.10" />
<circle cx="9.15" cy="-7.79" r="0.10" />
<circle cx="8.19" cy="-6.06" r="0.10" />
<circle cx="6.74" cy="-3.46" r="0.10" />
<circle cx="5.30" cy="-0.87" r="0.10" />
<circle cx="4.82" cy="0.00" r="0.10" />
<circle cx="3.85" cy="1.73" r="0.10" />
<circle cx="3.37" cy="2.60" r="0.10" />
<circle cx="2.41" cy="4.33" r="0.10" />
<circle cx="1.93" cy="5.20" r="0.10" />
<circle cx="0.48" cy="7.79" r="0.10" />
<circle cx="11.08" cy="-9.53" r="0.10" />
<circle cx="9.15" cy="-6.06" r="0.10" />
<circle cx="6.26" cy="-0.87" r="0.10" />
<circle cx="5.30" cy="0.87" r="0.10" />
<circle cx="3.37" cy="4.33" r="0.10" />
<circle cx="2.41" cy="6.06" r="0.10" />
<circle cx="11.08" cy="-7.79" r="0.10" />
<circle cx="9.63" cy="-5.20" r="0.10" />
<circle cx="9.15" cy="-4.33" r="0.10" />
<circle cx="8.19" cy="-2.60" r="0.10" />
<circle cx="7.71" cy="-1.73" r="0.10" />
<circle cx="6.26" cy="0.87" r="0.10" />
<circle cx="5.30" cy="2.60" r="0.10" />
<circle cx="4.82" cy="3.46" r="0.10" />
<circle cx="3.85" cy="5.20" r="0.10" />
<circle cx="2.41" cy="7.79" r="0.10" />
<circle cx="1.93" cy="8.66" r="0.10" />
<circle cx="9.15" cy="-2.60" r="0.10" />
<circle cx="8.19" cy="-0.87" r="0.10" />
<circle cx="3.37" cy="7.79" r="0.10" />
<circle cx="2.41" cy="9.53" r="0.10" />
<circle cx="13.49" cy="-8.66" r="0.10" />
<circle cx="12.04" cy="-6.06" r="0.10" />
<circle cx="11.08" cy="-4.33" r="0.10" />
<circle cx="9.63" cy="-1.73" r="0.10" />
<circle cx="8.19" cy="0.87" r="0.10" />
<circle cx="7.71" cy="1.73" r="0.10" />
<circle cx="6.74" cy="3.46" r="0.10" />
<circle cx="6.26" cy="4.33" r="0.10" />
<circle cx="5.30" cy="6.06" r="0.10" />
<circle cx="4.82" cy="6.93" r="0.10" />
<circle cx="3.37" cy="9.53" r="0.10" />
<circle cx="14.93" cy="-9.53" r="0.10" />
<circle cx="13.97" cy="-7.79" r="0.10" />
<circle cx="11.08" cy="-2.60" r="0.10" />
<circle cx="8.19" cy="2.60" r="0.10" />
<circle cx="6.26" cy="6.06" r="0.10" />
<circle cx="15.41" cy="-8.66" r="0.10" />
<circle cx="13.49" cy="-5.20" r="0.10" />
<circle cx="12.52" cy="-3.46" r="0.10" />
<circle cx="12.04" cy="-2.60" r="0.10" />
<circle cx="10.60" cy="0.00" r="0.10" />
<circle cx="9.63" cy="1.73" r="0.10" />
<circle cx="9.15" cy="2.60" r="0.10" />
<circle cx="6.74" cy="6.93" r="0.10" />
<circle cx="6.26" cy="7.79" r="0.10" />
<circle cx="5.30" cy="9.53" r="0.10" />
</g>
</svg>