<svg xmlns="http://www.w3.org/2000/svg" width="161.8" height="100.0" viewBox="-0.4 -5.0 171.8 110.0">
<g fill="none" stroke="black" stroke-width="0.8400%" transform="translate(0, 100.0000) scale(0.5952, -0.5952)">
<polyline points="7.8,0.0 15.5,0.0 15.5,0.0 23.3,0.0 23.3,1.0 31.1,1.0 31.1,3.0 38.8,3.0 38.8,3.0 46.6,3.0 46.6,7.0 54.4,7.0 54.4,6.0 62.1,6.0 62.1,12.0 69.9,12.0 69.9,10.0 77.7,10.0 77.7,18.0 85.4,18.0 85.4,15.0 93.2,15.0 93.2,25.0 101.0,25.0 101.0,21.0 108.7,21.0 108.7,33.0 116.5,33.0 116.5,28.0 124.3,28.0 124.3,42.0 132.0,42.0 132.0,36.0 139.8,36.0 139.8,52.0 147.6,52.0 147.6,45.0 155.3,45.0 155.3,63.0 163.1,63.0 163.1,55.0 170.9,55.0 170.9,75.0 178.6,75.0 178.6,66.0 186.4,66.0 186.4,88.0 194.2,88.0 194.2,78.0 201.9,78.0 201.9,102.0 209.7,102.0 209.7,91.0 217.5,91.0 217.5,117.0 225.2,117.0 225.2,105.0 233.0,105.0 233.0,133.0 240.8,133.0 240.8,120.0 248.5,120.0 248.5,150.0 256.3,150.0 256.3,136.0 264.1,136.0 264.1,168.0 271.8,168.0 271.8,153.0 279.6,153.0" />
</g>
</svg>