<svg xmlns="http://www.w3.org/2000/svg" width="161.8" height="100.0" viewBox="-3.59 -5.00 171.80 110.00">
<g fill="none" stroke="black" stroke-width="0.0350%" transform="translate(0, 100.0000) scale(14.2857, -14.2857)">



<line x1="0.39" y1="0.00" x2="0.39" y2="1.00" />
<line x1="0.49" y1="0.00" x2="0.49" y2="1.00" />
<line x1="0.59" y1="0.00" x2="0.59" y2="1.00" />
<line x1="0.69" y1="0.00" x2="0.69" y2="1.00" />

<line x1="0.89" y1="0.00" x2="0.89" y2="2.00" />

<line x1="1.08" y1="0.00" x2="1.08" y2="2.00" />
<line x1="1.18" y1="0.00" x2="1.18" y2="1.00" />
<line x1="1.28" y1="0.00" x2="1.28" y2="2.00" />
<line x1="1.38" y1="0.00" x2="1.38" y2="2.00" />
<line x1="1.48" y1="0.00" x2="1.48" y2="1.00" />
<line x1="1.58" y1="0.00" x2="1.58" y2="2.00" />

<line x1="1.77" y1="0.00" x2="1.77" y2="2.00" />

<line x1="1.97" y1="0.00" x2="1.97" y2="3.00" />
<line x1="2.07" y1="0.00" x2="2.07" y2="1.00" />
<line x1="2.17" y1="0.00" x2="2.17" y2="3.00" />
<line x1="2.27" y1="0.00" x2="2.27" y2="2.00" />
<line x1="2.36" y1="0.00" x2="2.36" y2="3.00" />
<line x1="2.46" y1="0.00" x2="2.46" y2="3.00" />
<line x1="2.56" y1="0.00" x2="2.56" y2="3.00" />
<line x1="2.66" y1="0.00" x2="2.66" y2="3.00" />
<line x1="2.76" y1="0.00" x2="2.76" y2="2.00" />
<line x1="2.86" y1="0.00" x2="2.86" y2="3.00" />
<line x1="2.95" y1="0.00" x2="2.95" y2="1.00" />
<line x1="3.05" y1="0.00" x2="3.05" y2="3.00" />

<line x1="3.25" y1="0.00" x2="3.25" y2="4.00" />

<line x1="3.45" y1="0.00" x2="3.45" y2="4.00" />
<line x1="3.55" y1="0.00" x2="3.55" y2="1.00" />
<line x1="3.64" y1="0.00" x2="3.64" y2="4.00" />
<line x1="3.74" y1="0.00" x2="3.74" y2="2.00" />
<line x1="3.84" y1="0.00" x2="3.84" y2="4.00" />
<line x1="3.94" y1="0.00" x2="3.94" y2="3.00" />
<line x1="4.04" y1="0.00" x2="4.04" y2="4.00" />
<line x1="4.14" y1="0.00" x2="4.14" y2="4.00" />
<line x1="4.24" y1="0.00" x2="4.24" y2="3.00" />
<line x1="4.33" y1="0.00" x2="4.33" y2="4.00" />
<line x1="4.43" y1="0.00" x2="4.43" y2="2.00" />
<line x1="4.53" y1="0.00" x2="4.53" y2="4.00" />
<line x1="4.63" y1="0.00" x2="4.63" y2="1.00" />
<line x1="4.73" y1="0.00" x2="4.73" y2="4.00" />

<line x1="4.92" y1="0.00" x2="4.92" y2="4.00" />

<line x1="5.12" y1="0.00" x2="5.12" y2="5.00" />
<line x1="5.22" y1="0.00" x2="5.22" y2="1.00" />
<line x1="5.32" y1="0.00" x2="5.32" y2="5.00" />
<line x1="5.42" y1="0.00" x2="5.42" y2="2.00" />
<line x1="5.52" y1="0.00" x2="5.52" y2="5.00" />
<line x1="5.61" y1="0.00" x2="5.61" y2="3.00" />
<line x1="5.71" y1="0.00" x2="5.71" y2="5.00" />
<line x1="5.81" y1="0.00" x2="5.81" y2="4.00" />
<line x1="5.91" y1="0.00" x2="5.91" y2="5.00" />
<line x1="6.01" y1="0.00" x2="6.01" y2="5.00" />
<line x1="6.11" y1="0.00" x2="6.11" y2="5.00" />
<line x1="6.20" y1="0.00" x2="6.20" y2="5.00" />
<line x1="6.30" y1="0.00" x2="6.30" y2="4.00" />
<line x1="6.40" y1="0.00" x2="6.40" y2="5.00" />
<line x1="6.50" y1="0.00" x2="6.50" y2="3.00" />
<line x1="6.60" y1="0.00" x2="6.60" y2="5.00" />
<line x1="6.70" y1="0.00" x2="6.70" y2="2.00" />
<line x1="6.80" y1="0.00" x2="6.80" y2="5.00" />
<line x1="6.89" y1="0.00" x2="6.89" y2="1.00" />
<line x1="6.99" y1="0.00" x2="6.99" y2="5.00" />

<line x1="7.19" y1="0.00" x2="7.19" y2="6.00" />

<line x1="7.39" y1="0.00" x2="7.39" y2="6.00" />
<line x1="7.49" y1="0.00" x2="7.49" y2="1.00" />
<line x1="7.58" y1="0.00" x2="7.58" y2="6.00" />
<line x1="7.68" y1="0.00" x2="7.68" y2="2.00" />
<line x1="7.78" y1="0.00" x2="7.78" y2="6.00" />
<line x1="7.88" y1="0.00" x2="7.88" y2="3.00" />
<line x1="7.98" y1="0.00" x2="7.98" y2="6.00" />
<line x1="8.08" y1="0.00" x2="8.08" y2="4.00" />
<line x1="8.17" y1="0.00" x2="8.17" y2="6.00" />
<line x1="8.27" y1="0.00" x2="8.27" y2="5.00" />
<line x1="8.37" y1="0.00" x2="8.37" y2="6.00" />
<line x1="8.47" y1="0.00" x2="8.47" y2="6.00" />
<line x1="8.57" y1="0.00" x2="8.57" y2="5.00" />
<line x1="8.67" y1="0.00" x2="8.67" y2="6.00" />
<line x1="8.77" y1="0.00" x2="8.77" y2="4.00" />
<line x1="8.86" y1="0.00" x2="8.86" y2="6.00" />
<line x1="8.96" y1="0.00" x2="8.96" y2="3.00" />
<line x1="9.06" y1="0.00" x2="9.06" y2="6.00" />
<line x1="9.16" y1="0.00" x2="9.16" y2="2.00" />
<line x1="9.26" y1="0.00" x2="9.26" y2="6.00" />
<line x1="9.36" y1="0.00" x2="9.36" y2="1.00" />
<line x1="9.45" y1="0.00" x2="9.45" y2="6.00" />

<line x1="9.65" y1="0.00" x2="9.65" y2="6.00" />

<line x1="9.85" y1="0.00" x2="9.85" y2="7.00" />
<line x1="9.95" y1="0.00" x2="9.95" y2="1.00" />
<line x1="10.05" y1="0.00" x2="10.05" y2="7.00" />
<line x1="10.14" y1="0.00" x2="10.14" y2="2.00" />
<line x1="10.24" y1="0.00" x2="10.24" y2="7.00" />
<line x1="10.34" y1="0.00" x2="10.34" y2="3.00" />
<line x1="10.44" y1="0.00" x2="10.44" y2="7.00" />
<line x1="10.54" y1="0.00" x2="10.54" y2="4.00" />
<line x1="10.64" y1="0.00" x2="10.64" y2="7.00" />
<line x1="10.74" y1="0.00" x2="10.74" y2="5.00" />
<line x1="10.83" y1="0.00" x2="10.83" y2="7.00" />
<line x1="10.93" y1="0.00" x2="10.93" y2="6.00" />
<line x1="11.03" y1="0.00" x2="11.03" y2="7.00" />
<line x1="11.13" y1="0.00" x2="11.13" y2="7.00" />
<line x1="11.23" y1="0.00" x2="11.23" y2="7.00" />
<line x1="11.33" y1="0.00" x2="11.33" y2="7.00" />
<line x1="11.42" y1="0.00" x2="11.42" y2="6.00" />
</g>
</svg>