<svg xmlns="http://www.w3.org/2000/svg" width="161.8" height="100.0" viewBox="-0.38 -5.00 171.80 110.00">
<g fill="none" stroke="black" stroke-width="0.1500%" transform="translate(0, 100.0000) scale(3.3333, -3.3333)">
<polyline points="1.39,0.00 2.77,0.00 2.77,0.00 4.16,0.00 4.16,1.00 5.55,1.00 5.55,0.00 6.93,0.00 6.93,1.00 8.32,1.00 8.32,1.00 9.71,1.00 9.71,2.00 11.10,2.00 11.10,1.00 12.48,1.00 12.48,3.00 13.87,3.00 13.87,2.00 15.26,2.00 15.26,4.00 16.64,4.00 16.64,3.00 18.03,3.00 18.03,5.00 19.42,5.00 19.42,4.00 20.80,4.00 20.80,7.00 22.19,7.00 22.19,5.00 23.58,5.00 23.58,8.00 24.96,8.00 24.96,7.00 26.35,7.00 26.35,10.00 27.74,10.00 27.74,8.00 29.12,8.00 29.12,12.00 30.51,12.00 30.51,10.00 31.90,10.00 31.90,14.00 33.29,14.00 33.29,12.00 34.67,12.00 34.67,16.00 36.06,16.00 36.06,14.00 37.45,14.00 37.45,19.00 38.83,19.00 38.83,16.00 40.22,16.00 40.22,21.00 41.61,21.00 41.61,19.00 42.99,19.00 42.99,24.00 44.38,24.00 44.38,21.00 45.77,21.00 45.77,27.00 47.15,27.00 47.15,24.00 48.54,24.00 48.54,30.00 49.93,30.00" />
</g>
</svg>