<svg xmlns="http://www.w3.org/2000/svg" width="159.4" height="100.0" viewBox="-2.4 -5.0 169.4 110.0">
<g fill="none" stroke="black" stroke-width="0.9950%" transform="translate(0, 100.0000) scale(0.5025, -0.5025)">
<line x1="5.2" y1="0.0" x2="5.2" y2="3.0" />
<line x1="10.4" y1="0.0" x2="10.4" y2="4.0" />
<line x1="15.6" y1="0.0" x2="15.6" y2="7.0" />
<line x1="20.8" y1="0.0" x2="20.8" y2="8.0" />
<line x1="26.0" y1="0.0" x2="26.0" y2="11.0" />
<line x1="31.2" y1="0.0" x2="31.2" y2="15.0" />
<line x1="36.4" y1="0.0" x2="36.4" y2="19.0" />
<line x1="41.6" y1="0.0" x2="41.6" y2="20.0" />
<line x1="46.8" y1="0.0" x2="46.8" y2="23.0" />
<line x1="52.0" y1="0.0" x2="52.0" y2="24.0" />
<line x1="57.2" y1="0.0" x2="57.2" y2="31.0" />
<line x1="62.4" y1="0.0" x2="62.4" y2="35.0" />
<line x1="67.6" y1="0.0" x2="67.6" y2="39.0" />
<line x1="72.8" y1="0.0" x2="72.8" y2="40.0" />
<line x1="78.0" y1="0.0" x2="78.0" y2="43.0" />
<line x1="83.2" y1="0.0" x2="83.2" y2="47.0" />
<line x1="88.4" y1="0.0" x2="88.4" y2="51.0" />
<line x1="93.6" y1="0.0" x2="93.6" y2="52.0" />
<line x1="98.8" y1="0.0" x2="98.8" y2="55.0" />
<line x1="104.0" y1="0.0" x2="104.0" y2="56.0" />
<line x1="109.2" y1="0.0" x2="109.2" y2="59.0" />
<line x1="114.4" y1="0.0" x2="114.4" y2="67.0" />
<line x1="119.6" y1="0.0" x2="119.6" y2="68.0" />
<line x1="124.8" y1="0.0" x2="124.8" y2="71.0" />
<line x1="130.0" y1="0.0" x2="130.0" y2="79.0" />
<line x1="135.2" y1="0.0" x2="135.2" y2="83.0" />
<line x1="140.4" y1="0.0" x2="140.4" y2="84.0" />
<line x1="145.6" y1="0.0" x2="145.6" y2="87.0" />
<line x1="150.8" y1="0.0" x2="150.8" y2="88.0" />
<line x1="156.0" y1="0.0" x2="156.0" y2="91.0" />
<line x1="161.2" y1="0.0" x2="161.2" y2="95.0" />
<line x1="166.4" y1="0.0" x2="166.4" y2="103.0" />
<line x1="171.6" y1="0.0" x2="171.6" y2="104.0" />
<line x1="176.8" y1="0.0" x2="176.8" y2="107.0" />
<line x1="182.0" y1="0.0" x2="182.0" y2="111.0" />
<line x1="187.2" y1="0.0" x2="187.2" y2="115.0" />
<line x1="192.4" y1="0.0" x2="192.4" y2="116.0" />
<line x1="197.6" y1="0.0" x2="197.6" y2="119.0" />
<line x1="202.8" y1="0.0" x2="202.8" y2="120.0" />
<line x1="208.0" y1="0.0" x2="208.0" y2="123.0" />
<line x1="213.2" y1="0.0" x2="213.2" y2="127.0" />
<line x1="218.4" y1="0.0" x2="218.4" y2="131.0" />
<line x1="223.6" y1="0.0" x2="223.6" y2="132.0" />
<line x1="228.8" y1="0.0" x2="228.8" y2="136.0" />
<line x1="234.0" y1="0.0" x2="234.0" y2="139.0" />
<line x1="239.2" y1="0.0" x2="239.2" y2="143.0" />
<line x1="244.3" y1="0.0" x2="244.3" y2="148.0" />
<line x1="249.5" y1="0.0" x2="249.5" y2="151.0" />
<line x1="254.7" y1="0.0" x2="254.7" y2="152.0" />
<line x1="259.9" y1="0.0" x2="259.9" y2="155.0" />
<line x1="265.1" y1="0.0" x2="265.1" y2="159.0" />
<line x1="270.3" y1="0.0" x2="270.3" y2="163.0" />
<line x1="275.5" y1="0.0" x2="275.5" y2="164.0" />
<line x1="280.7" y1="0.0" x2="280.7" y2="167.0" />
<line x1="285.9" y1="0.0" x2="285.9" y2="168.0" />
<line x1="291.1" y1="0.0" x2="291.1" y2="179.0" />
<line x1="296.3" y1="0.0" x2="296.3" y2="183.0" />
<line x1="301.5" y1="0.0" x2="301.5" y2="184.0" />
<line x1="306.7" y1="0.0" x2="306.7" y2="187.0" />
<line x1="311.9" y1="0.0" x2="311.9" y2="191.0" />
<line x1="317.1" y1="0.0" x2="317.1" y2="195.0" />
<line x1="322.3" y1="0.0" x2="322.3" y2="199.0" />
</g>
</svg>