<svg xmlns="http://www.w3.org/2000/svg" width="100.0" height="100.0" viewBox="-55.00 -55.00 110.00 110.00">
<g fill="none" stroke="black" stroke-width="0.1100%" transform="translate(0, 0.0000) scale(4.5455, -4.5455)">
<circle cx="-11.00" cy="0.00" r="0.11" />
<circle cx="0.00" cy="11.00" r="0.11" />
<circle cx="-11.00" cy="-6.00" r="0.11" />
<circle cx="-11.00" cy="-4.00" r="0.11" />
<circle cx="-11.00" cy="0.00" r="0.11" />
<circle cx="-11.00" cy="4.00" r="0.11" />
<circle cx="-11.00" cy="6.00" r="0.11" />
<circle cx="-10.00" cy="-9.00" r="0.11" />
<circle cx="-10.00" cy="-7.00" r="0.11" />
<circle cx="-10.00" cy="-3.00" r="0.11" />
<circle cx="-10.00" cy="-1.00" r="0.11" />
<circle cx="-10.00" cy="1.00" r="0.11" />
<circle cx="-10.00" cy="3.00" r="0.11" />
<circle cx="-10.00" cy="7.00" r="0.11" />
<circle cx="-10.00" cy="9.00" r="0.11" />
<circle cx="-9.00" cy="-10.00" r="0.11" />
<circle cx="-9.00" cy="-4.00" r="0.11" />
<circle cx="-9.00" cy="4.00" r="0.11" />
<circle cx="-9.00" cy="10.00" r="0.11" />
<circle cx="-8.00" cy="-7.00" r="0.11" />
<circle cx="-8.00" cy="-5.00" r="0.11" />
<circle cx="-8.00" cy="-3.00" r="0.11" />
<circle cx="-8.00" cy="3.00" r="0.11" />
<circle cx="-8.00" cy="5.00" r="0.11" />
<circle cx="-8.00" cy="7.00" r="0.11" />
<circle cx="-7.00" cy="-10.00" r="0.11" />
<circle cx="-7.00" cy="-8.00" r="0.11" />
<circle cx="-7.00" cy="-2.00" r="0.11" />
<circle cx="-7.00" cy="0.00" r="0.11" />
<circle cx="-7.00" cy="2.00" r="0.11" />
<circle cx="-7.00" cy="8.00" r="0.11" />
<circle cx="-7.00" cy="10.00" r="0.11" />
<circle cx="-6.00" cy="-11.00" r="0.11" />
<circle cx="-6.00" cy="-5.00" r="0.11" />
<circle cx="-6.00" cy="-1.00" r="0.11" />
<circle cx="-6.00" cy="1.00" r="0.11" />
<circle cx="-6.00" cy="5.00" r="0.11" />
<circle cx="-6.00" cy="11.00" r="0.11" />
<circle cx="-5.00" cy="-8.00" r="0.11" />
<circle cx="-5.00" cy="-6.00" r="0.11" />
<circle cx="-5.00" cy="-4.00" r="0.11" />
<circle cx="-5.00" cy="-2.00" r="0.11" />
<circle cx="-5.00" cy="2.00" r="0.11" />
<circle cx="-5.00" cy="4.00" r="0.11" />
<circle cx="-5.00" cy="6.00" r="0.11" />
<circle cx="-5.00" cy="8.00" r="0.11" />
<circle cx="-4.00" cy="-11.00" r="0.11" />
<circle cx="-4.00" cy="-9.00" r="0.11" />
<circle cx="-4.00" cy="-5.00" r="0.11" />
<circle cx="-4.00" cy="-1.00" r="0.11" />
<circle cx="-4.00" cy="1.00" r="0.11" />
<circle cx="-4.00" cy="5.00" r="0.11" />
<circle cx="-4.00" cy="9.00" r="0.11" />
<circle cx="-4.00" cy="11.00" r="0.11" />
<circle cx="-3.00" cy="-10.00" r="0.11" />
<circle cx="-3.00" cy="-8.00" r="0.11" />
<circle cx="-3.00" cy="-2.00" r="0.11" />
<circle cx="-3.00" cy="0.00" r="0.11" />
<circle cx="-3.00" cy="2.00" r="0.11" />
<circle cx="-3.00" cy="8.00" r="0.11" />
<circle cx="-3.00" cy="10.00" r="0.11" />
<circle cx="-2.00" cy="-7.00" r="0.11" />
<circle cx="-2.00" cy="-5.00" r="0.11" />
<circle cx="-2.00" cy="-3.00" r="0.11" />
<circle cx="-2.00" cy="-1.00" r="0.11" />
<circle cx="-2.00" cy="1.00" r="0.11" />
<circle cx="-2.00" cy="3.00" r="0.11" />
<circle cx="-2.00" cy="5.00" r="0.11" />
<circle cx="-2.00" cy="7.00" r="0.11" />
<circle cx="-1.00" cy="-10.00" r="0.11" />
<circle cx="-1.00" cy="-6.00" r="0.11" />
<circle cx="-1.00" cy="-4.00" r="0.11" />
<circle cx="-1.00" cy="-2.00" r="0.11" />
<circle cx="-1.00" cy="-1.00" r="0.11" />
<circle cx="-1.00" cy="1.00" r="0.11" />
<circle cx="-1.00" cy="2.00" r="0.11" />
<circle cx="-1.00" cy="4.00" r="0.11" />
<circle cx="-1.00" cy="6.00" r="0.11" />
<circle cx="-1.00" cy="10.00" r="0.11" />
<circle cx="0.00" cy="-11.00" r="0.11" />
<circle cx="0.00" cy="-7.00" r="0.11" />
<circle cx="0.00" cy="-3.00" r="0.11" />
<circle cx="0.00" cy="3.00" r="0.11" />
<circle cx="0.00" cy="7.00" r="0.11" />
<circle cx="0.00" cy="11.00" r="0.11" />
<circle cx="1.00" cy="-10.00" r="0.11" />
<circle cx="1.00" cy="-6.00" r="0.11" />
<circle cx="1.00" cy="-4.00" r="0.11" />
<circle cx="1.00" cy="-2.00" r="0.11" />
<circle cx="1.00" cy="-1.00" r="0.11" />
<circle cx="1.00" cy="1.00" r="0.11" />
<circle cx="1.00" cy="2.00" r="0.11" />
<circle cx="1.00" cy="4.00" r="0.11" />
<circle cx="1.00" cy="6.00" r="0.11" />
<circle cx="1.00" cy="10.00" r="0.11" />
<circle cx="2.00" cy="-7.00" r="0.11" />
<circle cx="2.00" cy="-5.00" r="0.11" />
<circle cx="2.00" cy="-3.00" r="0.11" />
<circle cx="2.00" cy="-1.00" r="0.11" />
<circle cx="2.00" cy="1.00" r="0.11" />
<circle cx="2.00" cy="3.00" r="0.11" />
<circle cx="2.00" cy="5.00" r="0.11" />
<circle cx="2.00" cy="7.00" r="0.11" />
<circle cx="3.00" cy="-10.00" r="0.11" />
<circle cx="3.00" cy="-8.00" r="0.11" />
<circle cx="3.00" cy="-2.00" r="0.11" />
<circle cx="3.00" cy="0.00" r="0.11" />
<circle cx="3.00" cy="2.00" r="0.11" />
<circle cx="3.00" cy="8.00" r="0.11" />
<circle cx="3.00" cy="10.00" r="0.11" />
<circle cx="4.00" cy="-11.00" r="0.11" />
<circle cx="4.00" cy="-9.00" r="0.11" />
<circle cx="4.00" cy="-5.00" r="0.11" />
<circle cx="4.00" cy="-1.00" r="0.11" />
<circle cx="4.00" cy="1.00" r="0.11" />
<circle cx="4.00" cy="5.00" r="0.11" />
<circle cx="4.00" cy="9.00" r="0.11" />
<circle cx="4.00" cy="11.00" r="0.11" />
<circle cx="5.00" cy="-8.00" r="0.11" />
<circle cx="5.00" cy="-6.00" r="0.11" />
<circle cx="5.00" cy="-4.00" r="0.11" />
<circle cx="5.00" cy="-2.00" r="0.11" />
<circle cx="5.00" cy="2.00" r="0.11" />
<circle cx="5.00" cy="4.00" r="0.11" />
<circle cx="5.00" cy="6.00" r="0.11" />
<circle cx="5.00" cy="8.00" r="0.11" />
<circle cx="6.00" cy="-11.00" r="0.11" />
<circle cx="6.00" cy="-5.00" r="0.11" />
<circle cx="6.00" cy="-1.00" r="0.11" />
<circle cx="6.00" cy="1.00" r="0.11" />
<circle cx="6.00" cy="5.00" r="0.11" />
<circle cx="6.00" cy="11.00" r="0.11" />
<circle cx="7.00" cy="-10.00" r="0.11" />
<circle cx="7.00" cy="-8.00" r="0.11" />
<circle cx="7.00" cy="-2.00" r="0.11" />
<circle cx="7.00" cy="0.00" r="0.11" />
<circle cx="7.00" cy="2.00" r="0.11" />
<circle cx="7.00" cy="8.00" r="0.11" />
<circle cx="7.00" cy="10.00" r="0.11" />
<circle cx="8.00" cy="-7.00" r="0.11" />
<circle cx="8.00" cy="-5.00" r="0.11" />
<circle cx="8.00" cy="-3.00" r="0.11" />
<circle cx="8.00" cy="3.00" r="0.11" />
<circle cx="8.00" cy="5.00" r="0.11" />
<circle cx="8.00" cy="7.00" r="0.11" />
<circle cx="9.00" cy="-10.00" r="0.11" />
<circle cx="9.00" cy="-4.00" r="0.11" />
<circle cx="9.00" cy="4.00" r="0.11" />
<circle cx="9.00" cy="10.00" r="0.11" />
<circle cx="10.00" cy="-9.00" r="0.11" />
<circle cx="10.00" cy="-7.00" r="0.11" />
<circle cx="10.00" cy="-3.00" r="0.11" />
<circle cx="10.00" cy="-1.00" r="0.11" />
<circle cx="10.00" cy="1.00" r="0.11" />
<circle cx="10.00" cy="3.00" r="0.11" />
<circle cx="10.00" cy="7.00" r="0.11" />
<circle cx="10.00" cy="9.00" r="0.11" />
<circle cx="11.00" cy="-6.00" r="0.11" />
<circle cx="11.00" cy="-4.00" r="0.11" />
<circle cx="11.00" cy="0.00" r="0.11" />
<circle cx="11.00" cy="4.00" r="0.11" />
<circle cx="11.00" cy="6.00" r="0.11" />
</g>
</svg>