<svg xmlns="http://www.w3.org/2000/svg" width="161.8" height="100.0" viewBox="-3.37 -5.00 171.80 110.00">
<g fill="none" stroke="black" stroke-width="0.0500%" transform="translate(0, 100.0000) scale(10.0000, -10.0000)">
<line x1="0.16" y1="0.00" x2="0.16" y2="1.00" />
<line x1="0.33" y1="0.00" x2="0.33" y2="1.00" />

<line x1="0.65" y1="0.00" x2="0.65" y2="2.00" />
<line x1="0.82" y1="0.00" x2="0.82" y2="2.00" />


<line x1="1.31" y1="0.00" x2="1.31" y2="2.00" />
<line x1="1.47" y1="0.00" x2="1.47" y2="3.00" />
<line x1="1.63" y1="0.00" x2="1.63" y2="3.00" />


<line x1="2.12" y1="0.00" x2="2.12" y2="3.00" />


<line x1="2.62" y1="0.00" x2="2.62" y2="4.00" />
<line x1="2.78" y1="0.00" x2="2.78" y2="4.00" />
<line x1="2.94" y1="0.00" x2="2.94" y2="3.00" />

<line x1="3.27" y1="0.00" x2="3.27" y2="4.00" />




<line x1="4.09" y1="0.00" x2="4.09" y2="5.00" />
<line x1="4.25" y1="0.00" x2="4.25" y2="5.00" />


<line x1="4.74" y1="0.00" x2="4.74" y2="5.00" />


<line x1="5.23" y1="0.00" x2="5.23" y2="4.00" />

<line x1="5.56" y1="0.00" x2="5.56" y2="5.00" />

<line x1="5.88" y1="0.00" x2="5.88" y2="6.00" />
<line x1="6.05" y1="0.00" x2="6.05" y2="6.00" />


<line x1="6.54" y1="0.00" x2="6.54" y2="6.00" />
<line x1="6.70" y1="0.00" x2="6.70" y2="5.00" />



<line x1="7.35" y1="0.00" x2="7.35" y2="6.00" />



<line x1="8.01" y1="0.00" x2="8.01" y2="7.00" />
<line x1="8.17" y1="0.00" x2="8.17" y2="7.00" />

<line x1="8.50" y1="0.00" x2="8.50" y2="6.00" />
<line x1="8.66" y1="0.00" x2="8.66" y2="7.00" />




<line x1="9.48" y1="0.00" x2="9.48" y2="7.00" />


<line x1="9.97" y1="0.00" x2="9.97" y2="6.00" />


<line x1="10.46" y1="0.00" x2="10.46" y2="8.00" />
<line x1="10.62" y1="0.00" x2="10.62" y2="8.00" />


<line x1="11.11" y1="0.00" x2="11.11" y2="8.00" />



<line x1="11.77" y1="0.00" x2="11.77" y2="6.00" />
<line x1="11.93" y1="0.00" x2="11.93" y2="8.00" />
<line x1="12.09" y1="0.00" x2="12.09" y2="7.00" />





<line x1="13.08" y1="0.00" x2="13.08" y2="8.00" />
<line x1="13.24" y1="0.00" x2="13.24" y2="9.00" />
<line x1="13.40" y1="0.00" x2="13.40" y2="9.00" />


<line x1="13.89" y1="0.00" x2="13.89" y2="9.00" />



<line x1="14.55" y1="0.00" x2="14.55" y2="8.00" />
<line x1="14.71" y1="0.00" x2="14.71" y2="9.00" />






<line x1="15.85" y1="0.00" x2="15.85" y2="9.00" />
<line x1="16.02" y1="0.00" x2="16.02" y2="7.00" />

<line x1="16.34" y1="0.00" x2="16.34" y2="10.00" />
</g>
</svg>