<svg xmlns="http://www.w3.org/2000/svg" width="156.4" height="100.0" viewBox="-3.14 -5.00 166.41 110.00">
<g fill="none" stroke="black" stroke-width="0.1500%" transform="translate(0, 100.0000) scale(3.3333, -3.3333)">
<line x1="0.56" y1="0.00" x2="0.56" y2="1.00" />
<line x1="1.12" y1="0.00" x2="1.12" y2="2.00" />
<line x1="1.68" y1="0.00" x2="1.68" y2="1.00" />
<line x1="2.23" y1="0.00" x2="2.23" y2="2.00" />
<line x1="2.79" y1="0.00" x2="2.79" y2="1.00" />
<line x1="3.35" y1="0.00" x2="3.35" y2="6.00" />
<line x1="3.91" y1="0.00" x2="3.91" y2="1.00" />
<line x1="4.47" y1="0.00" x2="4.47" y2="2.00" />
<line x1="5.03" y1="0.00" x2="5.03" y2="1.00" />
<line x1="5.59" y1="0.00" x2="5.59" y2="2.00" />
<line x1="6.14" y1="0.00" x2="6.14" y2="1.00" />
<line x1="6.70" y1="0.00" x2="6.70" y2="6.00" />
<line x1="7.26" y1="0.00" x2="7.26" y2="1.00" />
<line x1="7.82" y1="0.00" x2="7.82" y2="2.00" />
<line x1="8.38" y1="0.00" x2="8.38" y2="1.00" />
<line x1="8.94" y1="0.00" x2="8.94" y2="2.00" />
<line x1="9.50" y1="0.00" x2="9.50" y2="1.00" />
<line x1="10.05" y1="0.00" x2="10.05" y2="6.00" />
<line x1="10.61" y1="0.00" x2="10.61" y2="1.00" />
<line x1="11.17" y1="0.00" x2="11.17" y2="2.00" />
<line x1="11.73" y1="0.00" x2="11.73" y2="1.00" />
<line x1="12.29" y1="0.00" x2="12.29" y2="2.00" />
<line x1="12.85" y1="0.00" x2="12.85" y2="1.00" />
<line x1="13.41" y1="0.00" x2="13.41" y2="6.00" />
<line x1="13.97" y1="0.00" x2="13.97" y2="1.00" />
<line x1="14.52" y1="0.00" x2="14.52" y2="2.00" />
<line x1="15.08" y1="0.00" x2="15.08" y2="1.00" />
<line x1="15.64" y1="0.00" x2="15.64" y2="2.00" />
<line x1="16.20" y1="0.00" x2="16.20" y2="1.00" />
<line x1="16.76" y1="0.00" x2="16.76" y2="30.00" />
<line x1="17.32" y1="0.00" x2="17.32" y2="1.00" />
<line x1="17.88" y1="0.00" x2="17.88" y2="2.00" />
<line x1="18.43" y1="0.00" x2="18.43" y2="1.00" />
<line x1="18.99" y1="0.00" x2="18.99" y2="2.00" />
<line x1="19.55" y1="0.00" x2="19.55" y2="1.00" />
<line x1="20.11" y1="0.00" x2="20.11" y2="6.00" />
<line x1="20.67" y1="0.00" x2="20.67" y2="1.00" />
<line x1="21.23" y1="0.00" x2="21.23" y2="2.00" />
<line x1="21.79" y1="0.00" x2="21.79" y2="1.00" />
<line x1="22.34" y1="0.00" x2="22.34" y2="2.00" />
<line x1="22.90" y1="0.00" x2="22.90" y2="1.00" />
<line x1="23.46" y1="0.00" x2="23.46" y2="6.00" />
<line x1="24.02" y1="0.00" x2="24.02" y2="1.00" />
<line x1="24.58" y1="0.00" x2="24.58" y2="2.00" />
<line x1="25.14" y1="0.00" x2="25.14" y2="1.00" />
<line x1="25.70" y1="0.00" x2="25.70" y2="2.00" />
<line x1="26.25" y1="0.00" x2="26.25" y2="1.00" />
<line x1="26.81" y1="0.00" x2="26.81" y2="6.00" />
<line x1="27.37" y1="0.00" x2="27.37" y2="1.00" />
<line x1="27.93" y1="0.00" x2="27.93" y2="2.00" />
<line x1="28.49" y1="0.00" x2="28.49" y2="1.00" />
<line x1="29.05" y1="0.00" x2="29.05" y2="2.00" />
<line x1="29.61" y1="0.00" x2="29.61" y2="1.00" />
<line x1="30.16" y1="0.00" x2="30.16" y2="6.00" />
<line x1="30.72" y1="0.00" x2="30.72" y2="1.00" />
<line x1="31.28" y1="0.00" x2="31.28" y2="2.00" />
<line x1="31.84" y1="0.00" x2="31.84" y2="1.00" />
<line x1="32.40" y1="0.00" x2="32.40" y2="2.00" />
<line x1="32.96" y1="0.00" x2="32.96" y2="1.00" />
<line x1="33.52" y1="0.00" x2="33.52" y2="30.00" />
<line x1="34.08" y1="0.00" x2="34.08" y2="1.00" />
<line x1="34.63" y1="0.00" x2="34.63" y2="2.00" />
<line x1="35.19" y1="0.00" x2="35.19" y2="1.00" />
<line x1="35.75" y1="0.00" x2="35.75" y2="2.00" />
<line x1="36.31" y1="0.00" x2="36.31" y2="1.00" />
<line x1="36.87" y1="0.00" x2="36.87" y2="6.00" />
<line x1="37.43" y1="0.00" x2="37.43" y2="1.00" />
<line x1="37.99" y1="0.00" x2="37.99" y2="2.00" />
<line x1="38.54" y1="0.00" x2="38.54" y2="1.00" />
<line x1="39.10" y1="0.00" x2="39.10" y2="2.00" />
<line x1="39.66" y1="0.00" x2="39.66" y2="1.00" />
<line x1="40.22" y1="0.00" x2="40.22" y2="6.00" />
<line x1="40.78" y1="0.00" x2="40.78" y2="1.00" />
<line x1="41.34" y1="0.00" x2="41.34" y2="2.00" />
<line x1="41.90" y1="0.00" x2="41.90" y2="1.00" />
<line x1="42.45" y1="0.00" x2="42.45" y2="2.00" />
<line x1="43.01" y1="0.00" x2="43.01" y2="1.00" />
<line x1="43.57" y1="0.00" x2="43.57" y2="6.00" />
<line x1="44.13" y1="0.00" x2="44.13" y2="1.00" />
<line x1="44.69" y1="0.00" x2="44.69" y2="2.00" />
<line x1="45.25" y1="0.00" x2="45.25" y2="1.00" />
<line x1="45.81" y1="0.00" x2="45.81" y2="2.00" />
<line x1="46.36" y1="0.00" x2="46.36" y2="1.00" />
<line x1="46.92" y1="0.00" x2="46.92" y2="6.00" />
<line x1="47.48" y1="0.00" x2="47.48" y2="1.00" />
</g>
</svg>