<svg xmlns="http://www.w3.org/2000/svg" width="161.8" height="100.0" viewBox="-2 -5 172 110">
<g fill="none" stroke="black" stroke-width="8.0200%" transform="translate(0, 100.3741) scale(0.0623, -0.0623)">
<polyline points="52,3 104,5 156,11 208,17 260,29 311,41 363,59 415,71 467,101 519,107 571,137 623,149 675,179 727,191 779,197 831,227 882,239 934,269 986,281 1038,311 1090,347 1142,419 1194,431 1246,461 1298,521 1350,569 1401,599 1453,617 1505,641 1557,659 1609,809 1661,821 1713,827 1765,857 1817,881 1869,1019 1921,1031 1972,1049 2024,1061 2076,1091 2128,1151 2180,1229 2232,1277 2284,1289 2336,1301 2388,1319 2440,1427 2492,1451 2543,1481 2595,1487 2647,1607" />
</g>
</svg>