<svg xmlns="http://www.w3.org/2000/svg" width="161.8" height="100.0" viewBox="-2.721 45.000 171.803 110.000">
<g fill="none" stroke="black" stroke-width="0.0100%" transform="translate(0, 200.0000) scale(50.0000, -50.0000)">
<polyline points="0.046,3.000 0.091,3.000 0.091,1.000 0.137,1.000 0.137,3.000 0.182,3.000 0.182,3.000 0.228,3.000 0.228,1.000 0.273,1.000 0.273,1.000 0.319,1.000 0.319,3.000 0.365,3.000 0.365,1.000 0.410,1.000 0.410,3.000 0.456,3.000 0.456,1.000 0.501,1.000 0.501,3.000 0.547,3.000 0.547,3.000 0.593,3.000 0.593,1.000 0.638,1.000 0.638,3.000 0.684,3.000 0.684,1.000 0.729,1.000 0.729,1.000 0.775,1.000 0.775,3.000 0.820,3.000 0.820,3.000 0.866,3.000 0.866,1.000 0.912,1.000 0.912,1.000 0.957,1.000 0.957,3.000 1.003,3.000 1.003,1.000 1.048,1.000 1.048,3.000 1.094,3.000 1.094,3.000 1.139,3.000 1.139,1.000 1.185,1.000 1.185,3.000 1.231,3.000 1.231,1.000 1.276,1.000 1.276,1.000 1.322,1.000 1.322,3.000 1.367,3.000 1.367,3.000 1.413,3.000 1.413,1.000 1.459,1.000 1.459,3.000 1.504,3.000 1.504,1.000 1.550,1.000 1.550,1.000 1.595,1.000 1.595,3.000 1.641,3.000 1.641,1.000 1.686,1.000 1.686,3.000 1.732,3.000 1.732,3.000 1.778,3.000 1.778,1.000 1.823,1.000 1.823,3.000 1.869,3.000 1.869,1.000 1.914,1.000 1.914,3.000 1.960,3.000 1.960,1.000 2.005,1.000 2.005,3.000 2.051,3.000 2.051,1.000 2.097,1.000 2.097,1.000 2.142,1.000 2.142,3.000 2.188,3.000 2.188,1.000 2.233,1.000 2.233,3.000 2.279,3.000 2.279,1.000 2.324,1.000 2.324,3.000 2.370,3.000 2.370,3.000 2.416,3.000 2.416,1.000 2.461,1.000 2.461,1.000 2.507,1.000 2.507,3.000 2.552,3.000 2.552,1.000 2.598,1.000 2.598,3.000 2.644,3.000 2.644,3.000 2.689,3.000 2.689,1.000 2.735,1.000 2.735,1.000 2.780,1.000 2.780,3.000 2.826,3.000 2.826,1.000 2.871,1.000 2.871,3.000 2.917,3.000 2.917,3.000 2.963,3.000 2.963,1.000 3.008,1.000 3.008,1.000 3.054,1.000 3.054,3.000 3.099,3.000 3.099,1.000 3.145,1.000 3.145,3.000 3.190,3.000 3.190,3.000 3.236,3.000 3.236,1.000 3.282,1.000" />
</g>
</svg>