<svg xmlns="http://www.w3.org/2000/svg" width="161.8" height="100.0" viewBox="-3.9 -54.8 171.8 110.0">
<g fill="none" stroke="black" stroke-width="1.2750%" transform="translate(0, 0.3922) scale(0.3922, -0.3922)">
<circle cx="2.8" cy="0.0" r="1.3" />
<circle cx="5.5" cy="1.0" r="1.3" />
<circle cx="8.3" cy="2.0" r="1.3" />
<circle cx="11.0" cy="-1.0" r="1.3" />
<circle cx="13.8" cy="4.0" r="1.3" />
<circle cx="16.5" cy="-3.0" r="1.3" />
<circle cx="19.3" cy="-2.0" r="1.3" />
<circle cx="22.0" cy="3.0" r="1.3" />
<circle cx="24.8" cy="8.0" r="1.3" />
<circle cx="27.5" cy="-7.0" r="1.3" />
<circle cx="30.3" cy="-6.0" r="1.3" />
<circle cx="33.0" cy="7.0" r="1.3" />
<circle cx="35.8" cy="-4.0" r="1.3" />
<circle cx="38.5" cy="5.0" r="1.3" />
<circle cx="41.3" cy="6.0" r="1.3" />
<circle cx="44.0" cy="-5.0" r="1.3" />
<circle cx="46.8" cy="16.0" r="1.3" />
<circle cx="49.5" cy="-15.0" r="1.3" />
<circle cx="52.3" cy="-14.0" r="1.3" />
<circle cx="55.0" cy="15.0" r="1.3" />
<circle cx="57.8" cy="-12.0" r="1.3" />
<circle cx="60.5" cy="13.0" r="1.3" />
<circle cx="63.3" cy="14.0" r="1.3" />
<circle cx="66.0" cy="-13.0" r="1.3" />
<circle cx="68.8" cy="-8.0" r="1.3" />
<circle cx="71.5" cy="9.0" r="1.3" />
<circle cx="74.3" cy="10.0" r="1.3" />
<circle cx="77.0" cy="-9.0" r="1.3" />
<circle cx="79.8" cy="12.0" r="1.3" />
<circle cx="82.5" cy="-11.0" r="1.3" />
<circle cx="85.3" cy="-10.0" r="1.3" />
<circle cx="88.0" cy="11.0" r="1.3" />
<circle cx="90.8" cy="32.0" r="1.3" />
<circle cx="93.5" cy="-31.0" r="1.3" />
<circle cx="96.3" cy="-30.0" r="1.3" />
<circle cx="99.0" cy="31.0" r="1.3" />
<circle cx="101.8" cy="-28.0" r="1.3" />
<circle cx="104.5" cy="29.0" r="1.3" />
<circle cx="107.3" cy="30.0" r="1.3" />
<circle cx="110.0" cy="-29.0" r="1.3" />
<circle cx="112.8" cy="-24.0" r="1.3" />
<circle cx="115.5" cy="25.0" r="1.3" />
<circle cx="118.3" cy="26.0" r="1.3" />
<circle cx="121.0" cy="-25.0" r="1.3" />
<circle cx="123.8" cy="28.0" r="1.3" />
<circle cx="126.5" cy="-27.0" r="1.3" />
<circle cx="129.3" cy="-26.0" r="1.3" />
<circle cx="132.0" cy="27.0" r="1.3" />
<circle cx="134.8" cy="-16.0" r="1.3" />
<circle cx="137.5" cy="17.0" r="1.3" />
<circle cx="140.3" cy="18.0" r="1.3" />
<circle cx="143.0" cy="-17.0" r="1.3" />
<circle cx="145.8" cy="20.0" r="1.3" />
<circle cx="148.5" cy="-19.0" r="1.3" />
<circle cx="151.3" cy="-18.0" r="1.3" />
<circle cx="154.0" cy="19.0" r="1.3" />
<circle cx="156.8" cy="24.0" r="1.3" />
<circle cx="159.5" cy="-23.0" r="1.3" />
<circle cx="162.3" cy="-22.0" r="1.3" />
<circle cx="165.0" cy="23.0" r="1.3" />
<circle cx="167.8" cy="-20.0" r="1.3" />
<circle cx="170.5" cy="21.0" r="1.3" />
<circle cx="173.3" cy="22.0" r="1.3" />
<circle cx="176.0" cy="-21.0" r="1.3" />
<circle cx="178.8" cy="64.0" r="1.3" />
<circle cx="181.5" cy="-63.0" r="1.3" />
<circle cx="184.3" cy="-62.0" r="1.3" />
<circle cx="187.0" cy="63.0" r="1.3" />
<circle cx="189.8" cy="-60.0" r="1.3" />
<circle cx="192.5" cy="61.0" r="1.3" />
<circle cx="195.3" cy="62.0" r="1.3" />
<circle cx="198.0" cy="-61.0" r="1.3" />
<circle cx="200.8" cy="-56.0" r="1.3" />
<circle cx="203.5" cy="57.0" r="1.3" />
<circle cx="206.3" cy="58.0" r="1.3" />
<circle cx="209.0" cy="-57.0" r="1.3" />
<circle cx="211.8" cy="60.0" r="1.3" />
<circle cx="214.6" cy="-59.0" r="1.3" />
<circle cx="217.3" cy="-58.0" r="1.3" />
<circle cx="220.1" cy="59.0" r="1.3" />
<circle cx="222.8" cy="-48.0" r="1.3" />
<circle cx="225.6" cy="49.0" r="1.3" />
<circle cx="228.3" cy="50.0" r="1.3" />
<circle cx="231.1" cy="-49.0" r="1.3" />
<circle cx="233.8" cy="52.0" r="1.3" />
<circle cx="236.6" cy="-51.0" r="1.3" />
<circle cx="239.3" cy="-50.0" r="1.3" />
<circle cx="242.1" cy="51.0" r="1.3" />
<circle cx="244.8" cy="56.0" r="1.3" />
<circle cx="247.6" cy="-55.0" r="1.3" />
<circle cx="250.3" cy="-54.0" r="1.3" />
<circle cx="253.1" cy="55.0" r="1.3" />
<circle cx="255.8" cy="-52.0" r="1.3" />
<circle cx="258.6" cy="53.0" r="1.3" />
<circle cx="261.3" cy="54.0" r="1.3" />
<circle cx="264.1" cy="-53.0" r="1.3" />
<circle cx="266.8" cy="-32.0" r="1.3" />
<circle cx="269.6" cy="33.0" r="1.3" />
<circle cx="272.3" cy="34.0" r="1.3" />
<circle cx="275.1" cy="-33.0" r="1.3" />
<circle cx="277.8" cy="36.0" r="1.3" />
<circle cx="280.6" cy="-35.0" r="1.3" />
<circle cx="283.3" cy="-34.0" r="1.3" />
<circle cx="286.1" cy="35.0" r="1.3" />
<circle cx="288.8" cy="40.0" r="1.3" />
<circle cx="291.6" cy="-39.0" r="1.3" />
<circle cx="294.3" cy="-38.0" r="1.3" />
<circle cx="297.1" cy="39.0" r="1.3" />
<circle cx="299.8" cy="-36.0" r="1.3" />
<circle cx="302.6" cy="37.0" r="1.3" />
<circle cx="305.3" cy="38.0" r="1.3" />
<circle cx="308.1" cy="-37.0" r="1.3" />
<circle cx="310.8" cy="48.0" r="1.3" />
<circle cx="313.6" cy="-47.0" r="1.3" />
<circle cx="316.3" cy="-46.0" r="1.3" />
<circle cx="319.1" cy="47.0" r="1.3" />
<circle cx="321.8" cy="-44.0" r="1.3" />
<circle cx="324.6" cy="45.0" r="1.3" />
<circle cx="327.3" cy="46.0" r="1.3" />
<circle cx="330.1" cy="-45.0" r="1.3" />
<circle cx="332.8" cy="-40.0" r="1.3" />
<circle cx="335.6" cy="41.0" r="1.3" />
<circle cx="338.3" cy="42.0" r="1.3" />
<circle cx="341.1" cy="-41.0" r="1.3" />
<circle cx="343.8" cy="44.0" r="1.3" />
<circle cx="346.6" cy="-43.0" r="1.3" />
<circle cx="349.3" cy="-42.0" r="1.3" />
<circle cx="352.1" cy="43.0" r="1.3" />
<circle cx="354.8" cy="128.0" r="1.3" />
<circle cx="357.6" cy="-127.0" r="1.3" />
<circle cx="360.3" cy="-126.0" r="1.3" />
<circle cx="363.1" cy="127.0" r="1.3" />
<circle cx="365.8" cy="-124.0" r="1.3" />
<circle cx="368.6" cy="125.0" r="1.3" />
<circle cx="371.3" cy="126.0" r="1.3" />
<circle cx="374.1" cy="-125.0" r="1.3" />
<circle cx="376.8" cy="-120.0" r="1.3" />
<circle cx="379.6" cy="121.0" r="1.3" />
<circle cx="382.3" cy="122.0" r="1.3" />
<circle cx="385.1" cy="-121.0" r="1.3" />
<circle cx="387.8" cy="124.0" r="1.3" />
<circle cx="390.6" cy="-123.0" r="1.3" />
<circle cx="393.3" cy="-122.0" r="1.3" />
<circle cx="396.1" cy="123.0" r="1.3" />
<circle cx="398.8" cy="-112.0" r="1.3" />
<circle cx="401.6" cy="113.0" r="1.3" />
<circle cx="404.3" cy="114.0" r="1.3" />
<circle cx="407.1" cy="-113.0" r="1.3" />
<circle cx="409.8" cy="116.0" r="1.3" />
<circle cx="412.6" cy="-115.0" r="1.3" />
<circle cx="415.3" cy="-114.0" r="1.3" />
</g>
</svg>