<svg xmlns="http://www.w3.org/2000/svg" width="161.8" height="100.0" viewBox="-4.35 -5.00 171.80 110.00">
<g fill="none" stroke="black" stroke-width="0.0389%" transform="translate(0, 100.0000) scale(12.8599, -12.8599)">
<circle cx="0.05" cy="0.00" r="0.04" />
<circle cx="0.10" cy="0.00" r="0.04" />
<circle cx="0.15" cy="0.00" r="0.04" />
<circle cx="0.20" cy="0.00" r="0.04" />
<circle cx="0.25" cy="0.00" r="0.04" />
<circle cx="0.30" cy="1.10" r="0.04" />
<circle cx="0.35" cy="1.61" r="0.04" />
<circle cx="0.40" cy="0.00" r="0.04" />
<circle cx="0.45" cy="0.00" r="0.04" />
<circle cx="0.51" cy="3.30" r="0.04" />
<circle cx="0.56" cy="0.00" r="0.04" />
<circle cx="0.61" cy="4.49" r="0.04" />
<circle cx="0.66" cy="2.56" r="0.04" />
<circle cx="0.71" cy="0.00" r="0.04" />
<circle cx="0.76" cy="3.89" r="0.04" />
<circle cx="0.81" cy="0.00" r="0.04" />
<circle cx="0.86" cy="0.00" r="0.04" />
<circle cx="0.91" cy="2.56" r="0.04" />
<circle cx="0.96" cy="4.23" r="0.04" />
<circle cx="1.01" cy="1.61" r="0.04" />
<circle cx="1.06" cy="3.22" r="0.04" />
<circle cx="1.11" cy="1.10" r="0.04" />
<circle cx="1.16" cy="0.00" r="0.04" />
<circle cx="1.21" cy="4.63" r="0.04" />
<circle cx="1.26" cy="3.37" r="0.04" />
<circle cx="1.31" cy="0.00" r="0.04" />
<circle cx="1.36" cy="4.14" r="0.04" />
<circle cx="1.41" cy="1.10" r="0.04" />
<circle cx="1.47" cy="2.20" r="0.04" />
<circle cx="1.52" cy="4.63" r="0.04" />
<circle cx="1.57" cy="1.95" r="0.04" />
<circle cx="1.62" cy="0.00" r="0.04" />
<circle cx="1.67" cy="0.00" r="0.04" />
<circle cx="1.72" cy="2.94" r="0.04" />
<circle cx="1.77" cy="3.61" r="0.04" />
<circle cx="1.82" cy="4.99" r="0.04" />
<circle cx="1.87" cy="0.00" r="0.04" />
<circle cx="1.92" cy="2.56" r="0.04" />
<circle cx="1.97" cy="1.10" r="0.04" />
<circle cx="2.02" cy="2.94" r="0.04" />
<circle cx="2.07" cy="2.40" r="0.04" />
<circle cx="2.12" cy="3.81" r="0.04" />
<circle cx="2.17" cy="0.00" r="0.04" />
<circle cx="2.22" cy="3.61" r="0.04" />
<circle cx="2.27" cy="3.14" r="0.04" />
<circle cx="2.32" cy="1.10" r="0.04" />
<circle cx="2.37" cy="0.00" r="0.04" />
<circle cx="2.43" cy="3.30" r="0.04" />
<circle cx="2.48" cy="4.11" r="0.04" />
<circle cx="2.53" cy="0.00" r="0.04" />
<circle cx="2.58" cy="5.45" r="0.04" />
<circle cx="2.63" cy="3.85" r="0.04" />
<circle cx="2.68" cy="2.56" r="0.04" />
<circle cx="2.73" cy="0.00" r="0.04" />
<circle cx="2.78" cy="3.04" r="0.04" />
<circle cx="2.83" cy="3.14" r="0.04" />
<circle cx="2.88" cy="4.08" r="0.04" />
<circle cx="2.93" cy="6.26" r="0.04" />
<circle cx="2.98" cy="1.61" r="0.04" />
<circle cx="3.03" cy="0.00" r="0.04" />
<circle cx="3.08" cy="4.53" r="0.04" />
<circle cx="3.13" cy="3.14" r="0.04" />
<circle cx="3.18" cy="3.71" r="0.04" />
<circle cx="3.23" cy="0.00" r="0.04" />
<circle cx="3.28" cy="0.00" r="0.04" />
<circle cx="3.33" cy="3.89" r="0.04" />
<circle cx="3.39" cy="3.30" r="0.04" />
<circle cx="3.44" cy="2.56" r="0.04" />
<circle cx="3.49" cy="5.23" r="0.04" />
<circle cx="3.54" cy="4.47" r="0.04" />
<circle cx="3.59" cy="5.59" r="0.04" />
<circle cx="3.64" cy="2.71" r="0.04" />
<circle cx="3.69" cy="4.71" r="0.04" />
<circle cx="3.74" cy="2.56" r="0.04" />
<circle cx="3.79" cy="3.37" r="0.04" />
<circle cx="3.84" cy="1.95" r="0.04" />
<circle cx="3.89" cy="0.00" r="0.04" />
<circle cx="3.94" cy="2.56" r="0.04" />
<circle cx="3.99" cy="1.10" r="0.04" />
<circle cx="4.04" cy="3.04" r="0.04" />
<circle cx="4.09" cy="4.80" r="0.04" />
<circle cx="4.14" cy="3.81" r="0.04" />
<circle cx="4.19" cy="0.00" r="0.04" />
<circle cx="4.24" cy="4.93" r="0.04" />
<circle cx="4.30" cy="4.65" r="0.04" />
<circle cx="4.35" cy="1.10" r="0.04" />
<circle cx="4.40" cy="3.50" r="0.04" />
<circle cx="4.45" cy="3.71" r="0.04" />
<circle cx="4.50" cy="3.89" r="0.04" />
<circle cx="4.55" cy="4.14" r="0.04" />
<circle cx="4.60" cy="4.53" r="0.04" />
<circle cx="4.65" cy="4.39" r="0.04" />
<circle cx="4.70" cy="4.47" r="0.04" />
<circle cx="4.75" cy="1.10" r="0.04" />
<circle cx="4.80" cy="0.00" r="0.04" />
<circle cx="4.85" cy="5.03" r="0.04" />
<circle cx="4.90" cy="4.83" r="0.04" />
<circle cx="4.95" cy="0.00" r="0.04" />
<circle cx="5.00" cy="6.28" r="0.04" />
<circle cx="5.05" cy="5.84" r="0.04" />
<circle cx="5.10" cy="5.43" r="0.04" />
<circle cx="5.15" cy="1.95" r="0.04" />
<circle cx="5.20" cy="1.61" r="0.04" />
<circle cx="5.26" cy="5.31" r="0.04" />
<circle cx="5.31" cy="4.39" r="0.04" />
<circle cx="5.36" cy="1.10" r="0.04" />
<circle cx="5.41" cy="3.89" r="0.04" />
<circle cx="5.46" cy="1.10" r="0.04" />
<circle cx="5.51" cy="5.02" r="0.04" />
<circle cx="5.56" cy="0.00" r="0.04" />
<circle cx="5.61" cy="1.61" r="0.04" />
<circle cx="5.66" cy="5.47" r="0.04" />
<circle cx="5.71" cy="2.56" r="0.04" />
<circle cx="5.76" cy="4.23" r="0.04" />
<circle cx="5.81" cy="2.71" r="0.04" />
<circle cx="5.86" cy="0.00" r="0.04" />
<circle cx="5.91" cy="4.62" r="0.04" />
<circle cx="5.96" cy="6.89" r="0.04" />
<circle cx="6.01" cy="4.57" r="0.04" />
<circle cx="6.06" cy="1.10" r="0.04" />
<circle cx="6.11" cy="2.83" r="0.04" />
<circle cx="6.16" cy="2.94" r="0.04" />
<circle cx="6.22" cy="4.88" r="0.04" />
<circle cx="6.27" cy="3.37" r="0.04" />
<circle cx="6.32" cy="2.71" r="0.04" />
<circle cx="6.37" cy="6.11" r="0.04" />
<circle cx="6.42" cy="4.34" r="0.04" />
<circle cx="6.47" cy="0.00" r="0.04" />
<circle cx="6.52" cy="0.00" r="0.04" />
<circle cx="6.57" cy="3.37" r="0.04" />
<circle cx="6.62" cy="5.00" r="0.04" />
<circle cx="6.67" cy="4.69" r="0.04" />
<circle cx="6.72" cy="3.93" r="0.04" />
<circle cx="6.77" cy="3.14" r="0.04" />
<circle cx="6.82" cy="4.95" r="0.04" />
<circle cx="6.87" cy="5.24" r="0.04" />
<circle cx="6.92" cy="0.00" r="0.04" />
<circle cx="6.97" cy="3.66" r="0.04" />
<circle cx="7.02" cy="3.14" r="0.04" />
<circle cx="7.07" cy="2.40" r="0.04" />
<circle cx="7.12" cy="1.10" r="0.04" />
<circle cx="7.18" cy="6.50" r="0.04" />
<circle cx="7.23" cy="2.20" r="0.04" />
<circle cx="7.28" cy="3.22" r="0.04" />
<circle cx="7.33" cy="5.48" r="0.04" />
<circle cx="7.38" cy="4.37" r="0.04" />
<circle cx="7.43" cy="4.11" r="0.04" />
<circle cx="7.48" cy="7.23" r="0.04" />
<circle cx="7.53" cy="0.00" r="0.04" />
<circle cx="7.58" cy="4.49" r="0.04" />
<circle cx="7.63" cy="1.10" r="0.04" />
<circle cx="7.68" cy="6.42" r="0.04" />
<circle cx="7.73" cy="5.58" r="0.04" />
<circle cx="7.78" cy="4.37" r="0.04" />
<circle cx="7.83" cy="5.12" r="0.04" />
<circle cx="7.88" cy="4.57" r="0.04" />
<circle cx="7.93" cy="0.00" r="0.04" />
<circle cx="7.98" cy="2.56" r="0.04" />
<circle cx="8.03" cy="1.10" r="0.04" />
<circle cx="8.08" cy="4.71" r="0.04" />
<circle cx="8.14" cy="3.76" r="0.04" />
<circle cx="8.19" cy="3.30" r="0.04" />
<circle cx="8.24" cy="0.00" r="0.04" />
<circle cx="8.29" cy="1.95" r="0.04" />
<circle cx="8.34" cy="4.42" r="0.04" />
<circle cx="8.39" cy="4.60" r="0.04" />
<circle cx="8.44" cy="5.77" r="0.04" />
<circle cx="8.49" cy="1.61" r="0.04" />
<circle cx="8.54" cy="3.89" r="0.04" />
<circle cx="8.59" cy="4.67" r="0.04" />
<circle cx="8.64" cy="0.00" r="0.04" />
<circle cx="8.69" cy="5.29" r="0.04" />
<circle cx="8.74" cy="5.16" r="0.04" />
<circle cx="8.79" cy="4.08" r="0.04" />
<circle cx="8.84" cy="3.66" r="0.04" />
<circle cx="8.89" cy="1.61" r="0.04" />
<circle cx="8.94" cy="4.47" r="0.04" />
<circle cx="8.99" cy="5.03" r="0.04" />
<circle cx="9.04" cy="3.76" r="0.04" />
<circle cx="9.10" cy="7.04" r="0.04" />
<circle cx="9.15" cy="4.47" r="0.04" />
<circle cx="9.20" cy="3.43" r="0.04" />
<circle cx="9.25" cy="0.00" r="0.04" />
<circle cx="9.30" cy="3.85" r="0.04" />
<circle cx="9.35" cy="3.22" r="0.04" />
<circle cx="9.40" cy="2.20" r="0.04" />
<circle cx="9.45" cy="4.26" r="0.04" />
<circle cx="9.50" cy="3.71" r="0.04" />
<circle cx="9.55" cy="2.94" r="0.04" />
<circle cx="9.60" cy="1.10" r="0.04" />
<circle cx="9.65" cy="0.00" r="0.04" />
<circle cx="9.70" cy="6.73" r="0.04" />
<circle cx="9.75" cy="4.76" r="0.04" />
<circle cx="9.80" cy="0.00" r="0.04" />
<circle cx="9.85" cy="6.25" r="0.04" />
<circle cx="9.90" cy="4.81" r="0.04" />
<circle cx="9.95" cy="5.99" r="0.04" />
<circle cx="10.00" cy="5.31" r="0.04" />
<circle cx="10.06" cy="7.01" r="0.04" />
<circle cx="10.11" cy="2.20" r="0.04" />
<circle cx="10.16" cy="5.97" r="0.04" />
<circle cx="10.21" cy="0.00" r="0.04" />
<circle cx="10.26" cy="2.94" r="0.04" />
<circle cx="10.31" cy="4.47" r="0.04" />
<circle cx="10.36" cy="5.26" r="0.04" />
<circle cx="10.41" cy="4.80" r="0.04" />
<circle cx="10.46" cy="3.04" r="0.04" />
<circle cx="10.51" cy="2.20" r="0.04" />
<circle cx="10.56" cy="3.37" r="0.04" />
<circle cx="10.61" cy="4.71" r="0.04" />
<circle cx="10.66" cy="6.30" r="0.04" />
<circle cx="10.71" cy="5.59" r="0.04" />
<circle cx="10.76" cy="3.71" r="0.04" />
<circle cx="10.81" cy="0.00" r="0.04" />
<circle cx="10.86" cy="1.61" r="0.04" />
<circle cx="10.91" cy="4.11" r="0.04" />
<circle cx="10.97" cy="4.81" r="0.04" />
<circle cx="11.02" cy="3.61" r="0.04" />
<circle cx="11.07" cy="5.59" r="0.04" />
<circle cx="11.12" cy="1.10" r="0.04" />
<circle cx="11.17" cy="5.36" r="0.04" />
<circle cx="11.22" cy="0.00" r="0.04" />
<circle cx="11.27" cy="3.81" r="0.04" />
<circle cx="11.32" cy="4.47" r="0.04" />
<circle cx="11.37" cy="5.53" r="0.04" />
<circle cx="11.42" cy="4.32" r="0.04" />
<circle cx="11.47" cy="1.95" r="0.04" />
<circle cx="11.52" cy="0.00" r="0.04" />
<circle cx="11.57" cy="4.26" r="0.04" />
<circle cx="11.62" cy="2.40" r="0.04" />
<circle cx="11.67" cy="3.61" r="0.04" />
<circle cx="11.72" cy="7.55" r="0.04" />
<circle cx="11.77" cy="5.32" r="0.04" />
<circle cx="11.82" cy="4.23" r="0.04" />
<circle cx="11.87" cy="5.18" r="0.04" />
<circle cx="11.93" cy="0.00" r="0.04" />
<circle cx="11.98" cy="2.20" r="0.04" />
<circle cx="12.03" cy="5.86" r="0.04" />
<circle cx="12.08" cy="1.95" r="0.04" />
<circle cx="12.13" cy="7.78" r="0.04" />
<circle cx="12.18" cy="5.51" r="0.04" />
<circle cx="12.23" cy="4.47" r="0.04" />
<circle cx="12.28" cy="4.71" r="0.04" />
<circle cx="12.33" cy="7.08" r="0.04" />
<circle cx="12.38" cy="2.71" r="0.04" />
<circle cx="12.43" cy="7.19" r="0.04" />
<circle cx="12.48" cy="5.00" r="0.04" />
<circle cx="12.53" cy="0.00" r="0.04" />
<circle cx="12.58" cy="3.04" r="0.04" />
<circle cx="12.63" cy="4.47" r="0.04" />
</g>
</svg>