<svg xmlns="http://www.w3.org/2000/svg" width="161.5" height="100.0" viewBox="-2 -5 171 110">
<g fill="none" stroke="black" stroke-width="9.6800%" transform="translate(0, 100.0000) scale(0.0517, -0.0517)">
<line x1="58" y1="0" x2="58" y2="4" />
<line x1="116" y1="0" x2="116" y2="8" />
<line x1="174" y1="0" x2="174" y2="9" />
<line x1="232" y1="0" x2="232" y2="16" />
<line x1="289" y1="0" x2="289" y2="25" />
<line x1="347" y1="0" x2="347" y2="27" />
<line x1="405" y1="0" x2="405" y2="32" />
<line x1="463" y1="0" x2="463" y2="36" />
<line x1="521" y1="0" x2="521" y2="49" />
<line x1="579" y1="0" x2="579" y2="64" />
<line x1="637" y1="0" x2="637" y2="81" />
<line x1="695" y1="0" x2="695" y2="100" />
<line x1="753" y1="0" x2="753" y2="121" />
<line x1="810" y1="0" x2="810" y2="125" />
<line x1="868" y1="0" x2="868" y2="128" />
<line x1="926" y1="0" x2="926" y2="144" />
<line x1="984" y1="0" x2="984" y2="169" />
<line x1="1042" y1="0" x2="1042" y2="196" />
<line x1="1100" y1="0" x2="1100" y2="216" />
<line x1="1158" y1="0" x2="1158" y2="225" />
<line x1="1216" y1="0" x2="1216" y2="243" />
<line x1="1274" y1="0" x2="1274" y2="256" />
<line x1="1331" y1="0" x2="1331" y2="289" />
<line x1="1389" y1="0" x2="1389" y2="324" />
<line x1="1447" y1="0" x2="1447" y2="343" />
<line x1="1505" y1="0" x2="1505" y2="361" />
<line x1="1563" y1="0" x2="1563" y2="400" />
<line x1="1621" y1="0" x2="1621" y2="441" />
<line x1="1679" y1="0" x2="1679" y2="484" />
<line x1="1737" y1="0" x2="1737" y2="512" />
<line x1="1795" y1="0" x2="1795" y2="529" />
<line x1="1852" y1="0" x2="1852" y2="576" />
<line x1="1910" y1="0" x2="1910" y2="625" />
<line x1="1968" y1="0" x2="1968" y2="676" />
<line x1="2026" y1="0" x2="2026" y2="729" />
<line x1="2084" y1="0" x2="2084" y2="784" />
<line x1="2142" y1="0" x2="2142" y2="841" />
<line x1="2200" y1="0" x2="2200" y2="900" />
<line x1="2258" y1="0" x2="2258" y2="961" />
<line x1="2316" y1="0" x2="2316" y2="1000" />
<line x1="2373" y1="0" x2="2373" y2="1024" />
<line x1="2431" y1="0" x2="2431" y2="1089" />
<line x1="2489" y1="0" x2="2489" y2="1156" />
<line x1="2547" y1="0" x2="2547" y2="1225" />
<line x1="2605" y1="0" x2="2605" y2="1296" />
<line x1="2663" y1="0" x2="2663" y2="1331" />
<line x1="2721" y1="0" x2="2721" y2="1369" />
<line x1="2779" y1="0" x2="2779" y2="1444" />
<line x1="2837" y1="0" x2="2837" y2="1521" />
<line x1="2894" y1="0" x2="2894" y2="1600" />
<line x1="2952" y1="0" x2="2952" y2="1681" />
<line x1="3010" y1="0" x2="3010" y2="1728" />
<line x1="3068" y1="0" x2="3068" y2="1764" />
<line x1="3126" y1="0" x2="3126" y2="1849" />
<line x1="3184" y1="0" x2="3184" y2="1936" />
</g>
</svg>