<svg xmlns="http://www.w3.org/2000/svg" width="161.8" height="100.0" viewBox="-4.35 -5.00 171.80 110.00">
<g fill="none" stroke="black" stroke-width="0.0650%" transform="translate(0, 100.0000) scale(7.6923, -7.6923)">
<circle cx="0.08" cy="1.00" r="0.07" />
<circle cx="0.17" cy="0.00" r="0.07" />
<circle cx="0.25" cy="1.00" r="0.07" />
<circle cx="0.34" cy="1.00" r="0.07" />
<circle cx="0.42" cy="0.00" r="0.07" />
<circle cx="0.50" cy="1.00" r="0.07" />
<circle cx="0.59" cy="2.00" r="0.07" />
<circle cx="0.67" cy="1.00" r="0.07" />
<circle cx="0.76" cy="0.00" r="0.07" />
<circle cx="0.84" cy="0.00" r="0.07" />
<circle cx="0.93" cy="1.00" r="0.07" />
<circle cx="1.01" cy="2.00" r="0.07" />
<circle cx="1.09" cy="3.00" r="0.07" />
<circle cx="1.18" cy="3.00" r="0.07" />
<circle cx="1.26" cy="2.00" r="0.07" />
<circle cx="1.35" cy="1.00" r="0.07" />
<circle cx="1.43" cy="0.00" r="0.07" />
<circle cx="1.51" cy="1.00" r="0.07" />
<circle cx="1.60" cy="2.00" r="0.07" />
<circle cx="1.68" cy="3.00" r="0.07" />
<circle cx="1.77" cy="4.00" r="0.07" />
<circle cx="1.85" cy="4.00" r="0.07" />
<circle cx="1.94" cy="3.00" r="0.07" />
<circle cx="2.02" cy="2.00" r="0.07" />
<circle cx="2.10" cy="1.00" r="0.07" />
<circle cx="2.19" cy="0.00" r="0.07" />
<circle cx="2.27" cy="1.00" r="0.07" />
<circle cx="2.36" cy="0.00" r="0.07" />
<circle cx="2.44" cy="1.00" r="0.07" />
<circle cx="2.52" cy="2.00" r="0.07" />
<circle cx="2.61" cy="2.00" r="0.07" />
<circle cx="2.69" cy="1.00" r="0.07" />
<circle cx="2.78" cy="0.00" r="0.07" />
<circle cx="2.86" cy="1.00" r="0.07" />
<circle cx="2.94" cy="2.00" r="0.07" />
<circle cx="3.03" cy="1.00" r="0.07" />
<circle cx="3.11" cy="0.00" r="0.07" />
<circle cx="3.20" cy="1.00" r="0.07" />
<circle cx="3.28" cy="2.00" r="0.07" />
<circle cx="3.37" cy="3.00" r="0.07" />
<circle cx="3.45" cy="4.00" r="0.07" />
<circle cx="3.53" cy="5.00" r="0.07" />
<circle cx="3.62" cy="6.00" r="0.07" />
<circle cx="3.70" cy="6.00" r="0.07" />
<circle cx="3.79" cy="5.00" r="0.07" />
<circle cx="3.87" cy="4.00" r="0.07" />
<circle cx="3.95" cy="3.00" r="0.07" />
<circle cx="4.04" cy="2.00" r="0.07" />
<circle cx="4.12" cy="1.00" r="0.07" />
<circle cx="4.21" cy="0.00" r="0.07" />
<circle cx="4.29" cy="1.00" r="0.07" />
<circle cx="4.38" cy="2.00" r="0.07" />
<circle cx="4.46" cy="3.00" r="0.07" />
<circle cx="4.54" cy="4.00" r="0.07" />
<circle cx="4.63" cy="5.00" r="0.07" />
<circle cx="4.71" cy="6.00" r="0.07" />
<circle cx="4.80" cy="7.00" r="0.07" />
<circle cx="4.88" cy="7.00" r="0.07" />
<circle cx="4.96" cy="6.00" r="0.07" />
<circle cx="5.05" cy="5.00" r="0.07" />
<circle cx="5.13" cy="4.00" r="0.07" />
<circle cx="5.22" cy="3.00" r="0.07" />
<circle cx="5.30" cy="2.00" r="0.07" />
<circle cx="5.38" cy="1.00" r="0.07" />
<circle cx="5.47" cy="0.00" r="0.07" />
<circle cx="5.55" cy="1.00" r="0.07" />
<circle cx="5.64" cy="2.00" r="0.07" />
<circle cx="5.72" cy="3.00" r="0.07" />
<circle cx="5.81" cy="4.00" r="0.07" />
<circle cx="5.89" cy="5.00" r="0.07" />
<circle cx="5.97" cy="6.00" r="0.07" />
<circle cx="6.06" cy="7.00" r="0.07" />
<circle cx="6.14" cy="8.00" r="0.07" />
<circle cx="6.23" cy="8.00" r="0.07" />
<circle cx="6.31" cy="7.00" r="0.07" />
<circle cx="6.39" cy="6.00" r="0.07" />
<circle cx="6.48" cy="5.00" r="0.07" />
<circle cx="6.56" cy="4.00" r="0.07" />
<circle cx="6.65" cy="3.00" r="0.07" />
<circle cx="6.73" cy="2.00" r="0.07" />
<circle cx="6.82" cy="1.00" r="0.07" />
<circle cx="6.90" cy="0.00" r="0.07" />
<circle cx="6.98" cy="1.00" r="0.07" />
<circle cx="7.07" cy="2.00" r="0.07" />
<circle cx="7.15" cy="3.00" r="0.07" />
<circle cx="7.24" cy="4.00" r="0.07" />
<circle cx="7.32" cy="5.00" r="0.07" />
<circle cx="7.40" cy="6.00" r="0.07" />
<circle cx="7.49" cy="7.00" r="0.07" />
<circle cx="7.57" cy="8.00" r="0.07" />
<circle cx="7.66" cy="9.00" r="0.07" />
<circle cx="7.74" cy="9.00" r="0.07" />
<circle cx="7.82" cy="8.00" r="0.07" />
<circle cx="7.91" cy="7.00" r="0.07" />
<circle cx="7.99" cy="6.00" r="0.07" />
<circle cx="8.08" cy="5.00" r="0.07" />
<circle cx="8.16" cy="4.00" r="0.07" />
<circle cx="8.25" cy="3.00" r="0.07" />
<circle cx="8.33" cy="2.00" r="0.07" />
<circle cx="8.41" cy="1.00" r="0.07" />
<circle cx="8.50" cy="0.00" r="0.07" />
<circle cx="8.58" cy="1.00" r="0.07" />
<circle cx="8.67" cy="2.00" r="0.07" />
<circle cx="8.75" cy="3.00" r="0.07" />
<circle cx="8.83" cy="4.00" r="0.07" />
<circle cx="8.92" cy="5.00" r="0.07" />
<circle cx="9.00" cy="6.00" r="0.07" />
<circle cx="9.09" cy="7.00" r="0.07" />
<circle cx="9.17" cy="8.00" r="0.07" />
<circle cx="9.26" cy="9.00" r="0.07" />
<circle cx="9.34" cy="10.00" r="0.07" />
<circle cx="9.42" cy="10.00" r="0.07" />
<circle cx="9.51" cy="9.00" r="0.07" />
<circle cx="9.59" cy="8.00" r="0.07" />
<circle cx="9.68" cy="7.00" r="0.07" />
<circle cx="9.76" cy="6.00" r="0.07" />
<circle cx="9.84" cy="5.00" r="0.07" />
<circle cx="9.93" cy="4.00" r="0.07" />
<circle cx="10.01" cy="3.00" r="0.07" />
<circle cx="10.10" cy="2.00" r="0.07" />
<circle cx="10.18" cy="1.00" r="0.07" />
<circle cx="10.26" cy="0.00" r="0.07" />
<circle cx="10.35" cy="1.00" r="0.07" />
<circle cx="10.43" cy="2.00" r="0.07" />
<circle cx="10.52" cy="1.00" r="0.07" />
<circle cx="10.60" cy="0.00" r="0.07" />
<circle cx="10.69" cy="1.00" r="0.07" />
<circle cx="10.77" cy="1.00" r="0.07" />
<circle cx="10.85" cy="0.00" r="0.07" />
<circle cx="10.94" cy="1.00" r="0.07" />
<circle cx="11.02" cy="2.00" r="0.07" />
<circle cx="11.11" cy="3.00" r="0.07" />
<circle cx="11.19" cy="4.00" r="0.07" />
<circle cx="11.27" cy="5.00" r="0.07" />
<circle cx="11.36" cy="6.00" r="0.07" />
<circle cx="11.44" cy="7.00" r="0.07" />
<circle cx="11.53" cy="8.00" r="0.07" />
<circle cx="11.61" cy="7.00" r="0.07" />
<circle cx="11.70" cy="6.00" r="0.07" />
<circle cx="11.78" cy="5.00" r="0.07" />
<circle cx="11.86" cy="4.00" r="0.07" />
<circle cx="11.95" cy="3.00" r="0.07" />
<circle cx="12.03" cy="2.00" r="0.07" />
<circle cx="12.12" cy="1.00" r="0.07" />
<circle cx="12.20" cy="0.00" r="0.07" />
<circle cx="12.28" cy="1.00" r="0.07" />
<circle cx="12.37" cy="2.00" r="0.07" />
<circle cx="12.45" cy="3.00" r="0.07" />
<circle cx="12.54" cy="4.00" r="0.07" />
<circle cx="12.62" cy="5.00" r="0.07" />
<circle cx="12.70" cy="6.00" r="0.07" />
<circle cx="12.79" cy="7.00" r="0.07" />
<circle cx="12.87" cy="8.00" r="0.07" />
<circle cx="12.96" cy="9.00" r="0.07" />
<circle cx="13.04" cy="10.00" r="0.07" />
<circle cx="13.13" cy="11.00" r="0.07" />
<circle cx="13.21" cy="12.00" r="0.07" />
<circle cx="13.29" cy="12.00" r="0.07" />
<circle cx="13.38" cy="11.00" r="0.07" />
<circle cx="13.46" cy="10.00" r="0.07" />
<circle cx="13.55" cy="9.00" r="0.07" />
<circle cx="13.63" cy="8.00" r="0.07" />
<circle cx="13.71" cy="7.00" r="0.07" />
<circle cx="13.80" cy="6.00" r="0.07" />
<circle cx="13.88" cy="5.00" r="0.07" />
<circle cx="13.97" cy="4.00" r="0.07" />
<circle cx="14.05" cy="3.00" r="0.07" />
<circle cx="14.14" cy="2.00" r="0.07" />
<circle cx="14.22" cy="1.00" r="0.07" />
<circle cx="14.30" cy="0.00" r="0.07" />
<circle cx="14.39" cy="1.00" r="0.07" />
<circle cx="14.47" cy="2.00" r="0.07" />
<circle cx="14.56" cy="3.00" r="0.07" />
<circle cx="14.64" cy="4.00" r="0.07" />
<circle cx="14.72" cy="5.00" r="0.07" />
<circle cx="14.81" cy="6.00" r="0.07" />
<circle cx="14.89" cy="7.00" r="0.07" />
<circle cx="14.98" cy="8.00" r="0.07" />
<circle cx="15.06" cy="9.00" r="0.07" />
<circle cx="15.14" cy="10.00" r="0.07" />
<circle cx="15.23" cy="11.00" r="0.07" />
<circle cx="15.31" cy="12.00" r="0.07" />
<circle cx="15.40" cy="13.00" r="0.07" />
<circle cx="15.48" cy="13.00" r="0.07" />
<circle cx="15.57" cy="12.00" r="0.07" />
<circle cx="15.65" cy="11.00" r="0.07" />
<circle cx="15.73" cy="10.00" r="0.07" />
<circle cx="15.82" cy="9.00" r="0.07" />
<circle cx="15.90" cy="8.00" r="0.07" />
<circle cx="15.99" cy="7.00" r="0.07" />
<circle cx="16.07" cy="6.00" r="0.07" />
<circle cx="16.15" cy="5.00" r="0.07" />
<circle cx="16.24" cy="4.00" r="0.07" />
<circle cx="16.32" cy="3.00" r="0.07" />
<circle cx="16.41" cy="2.00" r="0.07" />
<circle cx="16.49" cy="1.00" r="0.07" />
<circle cx="16.58" cy="0.00" r="0.07" />
<circle cx="16.66" cy="1.00" r="0.07" />
<circle cx="16.74" cy="2.00" r="0.07" />
<circle cx="16.83" cy="3.00" r="0.07" />
<circle cx="16.91" cy="4.00" r="0.07" />
<circle cx="17.00" cy="5.00" r="0.07" />
<circle cx="17.08" cy="6.00" r="0.07" />
<circle cx="17.16" cy="7.00" r="0.07" />
<circle cx="17.25" cy="8.00" r="0.07" />
<circle cx="17.33" cy="9.00" r="0.07" />
<circle cx="17.42" cy="10.00" r="0.07" />
<circle cx="17.50" cy="9.00" r="0.07" />
<circle cx="17.58" cy="8.00" r="0.07" />
<circle cx="17.67" cy="7.00" r="0.07" />
<circle cx="17.75" cy="6.00" r="0.07" />
<circle cx="17.84" cy="5.00" r="0.07" />
<circle cx="17.92" cy="4.00" r="0.07" />
<circle cx="18.01" cy="3.00" r="0.07" />
<circle cx="18.09" cy="2.00" r="0.07" />
<circle cx="18.17" cy="1.00" r="0.07" />
<circle cx="18.26" cy="0.00" r="0.07" />
<circle cx="18.34" cy="1.00" r="0.07" />
<circle cx="18.43" cy="2.00" r="0.07" />
<circle cx="18.51" cy="3.00" r="0.07" />
<circle cx="18.59" cy="4.00" r="0.07" />
<circle cx="18.68" cy="4.00" r="0.07" />
<circle cx="18.76" cy="3.00" r="0.07" />
<circle cx="18.85" cy="2.00" r="0.07" />
<circle cx="18.93" cy="1.00" r="0.07" />
<circle cx="19.02" cy="0.00" r="0.07" />
<circle cx="19.10" cy="1.00" r="0.07" />
<circle cx="19.18" cy="2.00" r="0.07" />
<circle cx="19.27" cy="3.00" r="0.07" />
<circle cx="19.35" cy="4.00" r="0.07" />
<circle cx="19.44" cy="5.00" r="0.07" />
<circle cx="19.52" cy="6.00" r="0.07" />
<circle cx="19.60" cy="7.00" r="0.07" />
<circle cx="19.69" cy="8.00" r="0.07" />
<circle cx="19.77" cy="9.00" r="0.07" />
<circle cx="19.86" cy="8.00" r="0.07" />
<circle cx="19.94" cy="7.00" r="0.07" />
<circle cx="20.02" cy="6.00" r="0.07" />
<circle cx="20.11" cy="5.00" r="0.07" />
<circle cx="20.19" cy="4.00" r="0.07" />
<circle cx="20.28" cy="3.00" r="0.07" />
<circle cx="20.36" cy="2.00" r="0.07" />
<circle cx="20.45" cy="1.00" r="0.07" />
<circle cx="20.53" cy="0.00" r="0.07" />
<circle cx="20.61" cy="1.00" r="0.07" />
<circle cx="20.70" cy="2.00" r="0.07" />
<circle cx="20.78" cy="3.00" r="0.07" />
<circle cx="20.87" cy="4.00" r="0.07" />
<circle cx="20.95" cy="5.00" r="0.07" />
<circle cx="21.03" cy="6.00" r="0.07" />
<circle cx="21.12" cy="6.00" r="0.07" />
</g>
</svg>