<svg xmlns="http://www.w3.org/2000/svg" width="161.8" height="100.0" viewBox="-4.187 -5.000 171.803 110.000">
<g fill="none" stroke="black" stroke-width="0.0050%" transform="translate(0, 100.0000) scale(100.0000, -100.0000)">
<line x1="0.008" y1="0.000" x2="0.008" y2="1.000" />


<line x1="0.033" y1="0.000" x2="0.033" y2="1.000" />



<line x1="0.065" y1="0.000" x2="0.065" y2="1.000" />
<line x1="0.073" y1="0.000" x2="0.073" y2="1.000" />






<line x1="0.130" y1="0.000" x2="0.130" y2="1.000" />








<line x1="0.203" y1="0.000" x2="0.203" y2="1.000" />

<line x1="0.220" y1="0.000" x2="0.220" y2="1.000" />




<line x1="0.260" y1="0.000" x2="0.260" y2="1.000" />



<line x1="0.293" y1="0.000" x2="0.293" y2="1.000" />












<line x1="0.398" y1="0.000" x2="0.398" y2="1.000" />














<line x1="0.520" y1="0.000" x2="0.520" y2="1.000" />







<line x1="0.585" y1="0.000" x2="0.585" y2="1.000" />








<line x1="0.659" y1="0.000" x2="0.659" y2="1.000" />


















<line x1="0.813" y1="0.000" x2="0.813" y2="1.000" />







<line x1="0.878" y1="0.000" x2="0.878" y2="1.000" />












<line x1="0.984" y1="0.000" x2="0.984" y2="1.000" />



<line x1="1.016" y1="0.000" x2="1.016" y2="1.000" />


<line x1="1.041" y1="0.000" x2="1.041" y2="1.000" />















<line x1="1.171" y1="0.000" x2="1.171" y2="1.000" />
























<line x1="1.374" y1="0.000" x2="1.374" y2="1.000" />


























<line x1="1.594" y1="0.000" x2="1.594" y2="1.000" />



<line x1="1.626" y1="0.000" x2="1.626" y2="1.000" />
</g>
</svg>