<svg xmlns="http://www.w3.org/2000/svg" width="161.8" height="100.0" viewBox="-3.202 -5.000 171.803 110.000">
<g fill="none" stroke="black" stroke-width="0.0050%" transform="translate(0, 100.0000) scale(100.0000, -100.0000)">

<line x1="0.036" y1="0.000" x2="0.036" y2="1.000" />
<line x1="0.054" y1="0.000" x2="0.054" y2="1.000" />
<line x1="0.072" y1="0.000" x2="0.072" y2="1.000" />
<line x1="0.090" y1="0.000" x2="0.090" y2="1.000" />
<line x1="0.108" y1="0.000" x2="0.108" y2="1.000" />




<line x1="0.198" y1="0.000" x2="0.198" y2="1.000" />
<line x1="0.216" y1="0.000" x2="0.216" y2="1.000" />
<line x1="0.234" y1="0.000" x2="0.234" y2="1.000" />
<line x1="0.252" y1="0.000" x2="0.252" y2="1.000" />
<line x1="0.270" y1="0.000" x2="0.270" y2="1.000" />






<line x1="0.396" y1="0.000" x2="0.396" y2="1.000" />
<line x1="0.413" y1="0.000" x2="0.413" y2="1.000" />
<line x1="0.431" y1="0.000" x2="0.431" y2="1.000" />
<line x1="0.449" y1="0.000" x2="0.449" y2="1.000" />
<line x1="0.467" y1="0.000" x2="0.467" y2="1.000" />
<line x1="0.485" y1="0.000" x2="0.485" y2="1.000" />
<line x1="0.503" y1="0.000" x2="0.503" y2="1.000" />



























<line x1="1.007" y1="0.000" x2="1.007" y2="1.000" />
<line x1="1.025" y1="0.000" x2="1.025" y2="1.000" />
<line x1="1.043" y1="0.000" x2="1.043" y2="1.000" />
<line x1="1.061" y1="0.000" x2="1.061" y2="1.000" />
<line x1="1.079" y1="0.000" x2="1.079" y2="1.000" />
<line x1="1.097" y1="0.000" x2="1.097" y2="1.000" />
<line x1="1.115" y1="0.000" x2="1.115" y2="1.000" />
<line x1="1.133" y1="0.000" x2="1.133" y2="1.000" />
<line x1="1.151" y1="0.000" x2="1.151" y2="1.000" />
<line x1="1.169" y1="0.000" x2="1.169" y2="1.000" />
<line x1="1.187" y1="0.000" x2="1.187" y2="1.000" />












<line x1="1.420" y1="0.000" x2="1.420" y2="1.000" />
<line x1="1.438" y1="0.000" x2="1.438" y2="1.000" />
<line x1="1.456" y1="0.000" x2="1.456" y2="1.000" />
<line x1="1.474" y1="0.000" x2="1.474" y2="1.000" />
<line x1="1.492" y1="0.000" x2="1.492" y2="1.000" />
<line x1="1.510" y1="0.000" x2="1.510" y2="1.000" />
<line x1="1.528" y1="0.000" x2="1.528" y2="1.000" />
<line x1="1.546" y1="0.000" x2="1.546" y2="1.000" />
<line x1="1.564" y1="0.000" x2="1.564" y2="1.000" />
<line x1="1.582" y1="0.000" x2="1.582" y2="1.000" />
<line x1="1.600" y1="0.000" x2="1.600" y2="1.000" />
<line x1="1.618" y1="0.000" x2="1.618" y2="1.000" />
<line x1="1.636" y1="0.000" x2="1.636" y2="1.000" />
</g>
</svg>