<svg xmlns="http://www.w3.org/2000/svg" width="161.8" height="100.0" viewBox="-3.4 -5.0 171.8 110.0">
<g fill="none" stroke="black" stroke-width="0.3750%" transform="translate(0, 100.0000) scale(1.3333, -1.3333)">
<line x1="1.2" y1="0.0" x2="1.2" y2="1.0" />


<line x1="4.9" y1="0.0" x2="4.9" y2="2.0" />

<line x1="7.4" y1="0.0" x2="7.4" y2="3.0" />

<line x1="9.8" y1="0.0" x2="9.8" y2="4.0" />
<line x1="11.0" y1="0.0" x2="11.0" y2="5.0" />
<line x1="12.3" y1="0.0" x2="12.3" y2="6.0" />

<line x1="14.7" y1="0.0" x2="14.7" y2="7.0" />

<line x1="17.2" y1="0.0" x2="17.2" y2="8.0" />
<line x1="18.4" y1="0.0" x2="18.4" y2="9.0" />
<line x1="19.6" y1="0.0" x2="19.6" y2="10.0" />

<line x1="22.1" y1="0.0" x2="22.1" y2="11.0" />

<line x1="24.5" y1="0.0" x2="24.5" y2="12.0" />
<line x1="25.7" y1="0.0" x2="25.7" y2="13.0" />
<line x1="27.0" y1="0.0" x2="27.0" y2="14.0" />

<line x1="29.4" y1="0.0" x2="29.4" y2="15.0" />
<line x1="30.6" y1="0.0" x2="30.6" y2="16.0" />
<line x1="31.9" y1="0.0" x2="31.9" y2="17.0" />
<line x1="33.1" y1="0.0" x2="33.1" y2="18.0" />
<line x1="34.3" y1="0.0" x2="34.3" y2="19.0" />

<line x1="36.8" y1="0.0" x2="36.8" y2="20.0" />

<line x1="39.2" y1="0.0" x2="39.2" y2="21.0" />
<line x1="40.5" y1="0.0" x2="40.5" y2="22.0" />
<line x1="41.7" y1="0.0" x2="41.7" y2="23.0" />
<line x1="42.9" y1="0.0" x2="42.9" y2="24.0" />
<line x1="44.1" y1="0.0" x2="44.1" y2="25.0" />

<line x1="46.6" y1="0.0" x2="46.6" y2="26.0" />
<line x1="47.8" y1="0.0" x2="47.8" y2="27.0" />
<line x1="49.0" y1="0.0" x2="49.0" y2="28.0" />

<line x1="51.5" y1="0.0" x2="51.5" y2="29.0" />

<line x1="53.9" y1="0.0" x2="53.9" y2="30.0" />
<line x1="55.2" y1="0.0" x2="55.2" y2="31.0" />
<line x1="56.4" y1="0.0" x2="56.4" y2="32.0" />

<line x1="58.8" y1="0.0" x2="58.8" y2="33.0" />
<line x1="60.1" y1="0.0" x2="60.1" y2="34.0" />
<line x1="61.3" y1="0.0" x2="61.3" y2="35.0" />
<line x1="62.5" y1="0.0" x2="62.5" y2="36.0" />
<line x1="63.7" y1="0.0" x2="63.7" y2="37.0" />

<line x1="66.2" y1="0.0" x2="66.2" y2="38.0" />
<line x1="67.4" y1="0.0" x2="67.4" y2="39.0" />
<line x1="68.6" y1="0.0" x2="68.6" y2="40.0" />
<line x1="69.9" y1="0.0" x2="69.9" y2="41.0" />
<line x1="71.1" y1="0.0" x2="71.1" y2="42.0" />

<line x1="73.5" y1="0.0" x2="73.5" y2="43.0" />

<line x1="76.0" y1="0.0" x2="76.0" y2="44.0" />
<line x1="77.2" y1="0.0" x2="77.2" y2="45.0" />
<line x1="78.5" y1="0.0" x2="78.5" y2="46.0" />
<line x1="79.7" y1="0.0" x2="79.7" y2="47.0" />
<line x1="80.9" y1="0.0" x2="80.9" y2="48.0" />

<line x1="83.4" y1="0.0" x2="83.4" y2="49.0" />
<line x1="84.6" y1="0.0" x2="84.6" y2="50.0" />
<line x1="85.8" y1="0.0" x2="85.8" y2="51.0" />

<line x1="88.3" y1="0.0" x2="88.3" y2="52.0" />

<line x1="90.7" y1="0.0" x2="90.7" y2="53.0" />
<line x1="91.9" y1="0.0" x2="91.9" y2="54.0" />
<line x1="93.2" y1="0.0" x2="93.2" y2="55.0" />
<line x1="94.4" y1="0.0" x2="94.4" y2="56.0" />
<line x1="95.6" y1="0.0" x2="95.6" y2="57.0" />

<line x1="98.1" y1="0.0" x2="98.1" y2="58.0" />
<line x1="99.3" y1="0.0" x2="99.3" y2="59.0" />
<line x1="100.5" y1="0.0" x2="100.5" y2="60.0" />

<line x1="103.0" y1="0.0" x2="103.0" y2="61.0" />
<line x1="104.2" y1="0.0" x2="104.2" y2="62.0" />
<line x1="105.4" y1="0.0" x2="105.4" y2="63.0" />
<line x1="106.6" y1="0.0" x2="106.6" y2="64.0" />
<line x1="107.9" y1="0.0" x2="107.9" y2="65.0" />

<line x1="110.3" y1="0.0" x2="110.3" y2="66.0" />
<line x1="111.5" y1="0.0" x2="111.5" y2="67.0" />
<line x1="112.8" y1="0.0" x2="112.8" y2="68.0" />
<line x1="114.0" y1="0.0" x2="114.0" y2="69.0" />
<line x1="115.2" y1="0.0" x2="115.2" y2="70.0" />
<line x1="116.4" y1="0.0" x2="116.4" y2="71.0" />
<line x1="117.7" y1="0.0" x2="117.7" y2="72.0" />

<line x1="120.1" y1="0.0" x2="120.1" y2="73.0" />
<line x1="121.4" y1="0.0" x2="121.4" y2="74.0" />
<line x1="122.6" y1="0.0" x2="122.6" y2="75.0" />
</g>
</svg>