<svg xmlns="http://www.w3.org/2000/svg" width="161.8" height="100.0" viewBox="-4 -5 172 110">
<g fill="none" stroke="black" stroke-width="29.1500%" transform="translate(0, 100.0000) scale(0.0172, -0.0172)">
<polyline points="38,0 75,0 75,2 113,2 113,5 151,5 151,5 189,5 189,10 226,10 226,10 264,10 264,17 302,17 302,17 340,17 340,17 377,17 377,17 415,17 415,28 453,28 453,28 491,28 491,41 528,41 528,41 566,41 566,41 604,41 604,41 641,41 641,58 679,58 679,58 717,58 717,77 755,77 755,77 792,77 792,77 830,77 830,77 868,77 868,100 906,100 906,100 943,100 943,100 981,100 981,100 1019,100 1019,100 1057,100 1057,100 1094,100 1094,129 1132,129 1132,129 1170,129 1170,160 1207,160 1207,160 1245,160 1245,160 1283,160 1283,160 1321,160 1321,160 1358,160 1358,160 1396,160 1396,197 1434,197 1434,197 1472,197 1472,197 1509,197 1509,197 1547,197 1547,238 1585,238 1585,238 1622,238 1622,281 1660,281 1660,281 1698,281 1698,281 1736,281 1736,281 1773,281 1773,328 1811,328 1811,328 1849,328 1849,328 1887,328 1887,328 1924,328 1924,328 1962,328 1962,328 2000,328 2000,381 2038,381 2038,381 2075,381 2075,381 2113,381 2113,381 2151,381 2151,381 2188,381 2188,381 2226,381 2226,440 2264,440 2264,440 2302,440 2302,501 2339,501 2339,501 2377,501 2377,501 2415,501 2415,501 2453,501 2453,501 2490,501 2490,501 2528,501 2528,568 2566,568 2566,568 2604,568 2604,568 2641,568 2641,568 2679,568 2679,639 2717,639 2717,639 2754,639 2754,712 2792,712 2792,712 2830,712 2830,712 2868,712 2868,712 2905,712 2905,712 2943,712 2943,712 2981,712 2981,791 3019,791 3019,791 3056,791 3056,791 3094,791 3094,791 3132,791 3132,874 3170,874 3170,874 3207,874 3207,874 3245,874 3245,874 3283,874 3283,874 3320,874 3320,874 3358,874 3358,963 3396,963 3396,963 3434,963 3434,963 3471,963 3471,963 3509,963 3509,963 3547,963 3547,963 3585,963 3585,963 3622,963 3622,963 3660,963 3660,1060 3698,1060 3698,1060 3736,1060 3736,1060 3773,1060 3773,1060 3811,1060 3811,1161 3849,1161 3849,1161 3886,1161 3886,1264 3924,1264 3924,1264 3962,1264 3962,1264 4000,1264 4000,1264 4037,1264 4037,1371 4075,1371 4075,1371 4113,1371 4113,1480 4151,1480 4151,1480 4188,1480 4188,1480 4226,1480 4226,1480 4264,1480 4264,1593 4302,1593 4302,1593 4339,1593 4339,1593 4377,1593 4377,1593 4415,1593 4415,1593 4452,1593 4452,1593 4490,1593 4490,1593 4528,1593 4528,1593 4566,1593 4566,1593 4603,1593 4603,1593 4641,1593 4641,1593 4679,1593 4679,1593 4717,1593 4717,1593 4754,1593 4754,1593 4792,1593 4792,1720 4830,1720 4830,1720 4867,1720 4867,1720 4905,1720 4905,1720 4943,1720 4943,1851 4981,1851 4981,1851 5018,1851 5018,1851 5056,1851 5056,1851 5094,1851 5094,1851 5132,1851 5132,1851 5169,1851 5169,1988 5207,1988 5207,1988 5245,1988 5245,2127 5283,2127 5283,2127 5320,2127 5320,2127 5358,2127 5358,2127 5396,2127 5396,2127 5433,2127 5433,2127 5471,2127 5471,2127 5509,2127 5509,2127 5547,2127 5547,2127 5584,2127 5584,2127 5622,2127 5622,2276 5660,2276 5660,2276 5698,2276 5698,2427 5735,2427 5735,2427 5773,2427 5773,2427 5811,2427 5811,2427 5849,2427 5849,2427 5886,2427 5886,2427 5924,2427 5924,2584 5962,2584 5962,2584 5999,2584 5999,2584 6037,2584 6037,2584 6075,2584 6075,2584 6113,2584 6113,2584 6150,2584 6150,2747 6188,2747 6188,2747 6226,2747 6226,2747 6264,2747 6264,2747 6301,2747 6301,2914 6339,2914 6339,2914 6377,2914 6377,2914 6415,2914 6415,2914 6452,2914 6452,2914 6490,2914 6490,2914 6528,2914 6528,3087 6565,3087 6565,3087 6603,3087 6603,3087 6641,3087 6641,3087 6679,3087 6679,3087 6716,3087 6716,3087 6754,3087 6754,3266 6792,3266 6792,3266 6830,3266 6830,3447 6867,3447 6867,3447 6905,3447 6905,3447 6943,3447 6943,3447 6981,3447 6981,3447 7018,3447 7018,3447 7056,3447 7056,3447 7094,3447 7094,3447 7131,3447 7131,3447 7169,3447 7169,3447 7207,3447 7207,3638 7245,3638 7245,3638 7282,3638 7282,3831 7320,3831 7320,3831 7358,3831 7358,3831 7396,3831 7396,3831 7433,3831 7433,4028 7471,4028 7471,4028 7509,4028 7509,4227 7547,4227 7547,4227 7584,4227 7584,4227 7622,4227 7622,4227 7660,4227 7660,4227 7697,4227 7697,4227 7735,4227 7735,4227 7773,4227 7773,4227 7811,4227 7811,4227 7848,4227 7848,4227 7886,4227 7886,4227 7924,4227 7924,4227 7962,4227 7962,4438 7999,4438 7999,4438 8037,4438 8037,4438 8075,4438 8075,4438 8112,4438 8112,4438 8150,4438 8150,4438 8188,4438 8188,4438 8226,4438 8226,4438 8263,4438 8263,4438 8301,4438 8301,4438 8339,4438 8339,4438 8377,4438 8377,4438 8414,4438 8414,4661 8452,4661 8452,4661 8490,4661 8490,4661 8528,4661 8528,4661 8565,4661 8565,4888 8603,4888 8603,4888 8641,4888 8641,5117 8678,5117 8678,5117 8716,5117 8716,5117 8754,5117 8754,5117 8792,5117 8792,5350 8829,5350 8829,5350 8867,5350 8867,5350 8905,5350 8905,5350 8943,5350 8943,5350 8980,5350 8980,5350 9018,5350 9018,5589 9056,5589 9056,5589 9094,5589 9094,5830 9131,5830 9131,5830 9169,5830 9169,5830 9207,5830 9207,5830 9244,5830 9244,5830 9282,5830 9282,5830 9320,5830 9320,5830 9358,5830 9358,5830 9395,5830 9395,5830 9433,5830 9433,5830 9471,5830" />
</g>
</svg>