<svg xmlns="http://www.w3.org/2000/svg" width="161.8" height="100.0" viewBox="-3.444 -5.000 171.803 110.000">
<g fill="none" stroke="black" stroke-width="0.0050%" transform="translate(0, 100.0000) scale(100.0000, -100.0000)">


<line x1="0.047" y1="0.000" x2="0.047" y2="1.000" />


<line x1="0.093" y1="0.000" x2="0.093" y2="1.000" />

<line x1="0.124" y1="0.000" x2="0.124" y2="1.000" />






<line x1="0.233" y1="0.000" x2="0.233" y2="1.000" />

<line x1="0.264" y1="0.000" x2="0.264" y2="1.000" />
<line x1="0.280" y1="0.000" x2="0.280" y2="1.000" />
<line x1="0.296" y1="0.000" x2="0.296" y2="1.000" />








<line x1="0.436" y1="0.000" x2="0.436" y2="1.000" />

<line x1="0.467" y1="0.000" x2="0.467" y2="1.000" />



<line x1="0.529" y1="0.000" x2="0.529" y2="1.000" />




<line x1="0.607" y1="0.000" x2="0.607" y2="1.000" />


<line x1="0.653" y1="0.000" x2="0.653" y2="1.000" />




<line x1="0.731" y1="0.000" x2="0.731" y2="1.000" />

<line x1="0.762" y1="0.000" x2="0.762" y2="1.000" />
<line x1="0.778" y1="0.000" x2="0.778" y2="1.000" />
<line x1="0.793" y1="0.000" x2="0.793" y2="1.000" />

<line x1="0.825" y1="0.000" x2="0.825" y2="1.000" />












<line x1="1.027" y1="0.000" x2="1.027" y2="1.000" />

<line x1="1.058" y1="0.000" x2="1.058" y2="1.000" />
<line x1="1.074" y1="0.000" x2="1.074" y2="1.000" />





<line x1="1.167" y1="0.000" x2="1.167" y2="1.000" />
<line x1="1.182" y1="0.000" x2="1.182" y2="1.000" />














<line x1="1.416" y1="0.000" x2="1.416" y2="1.000" />

<line x1="1.447" y1="0.000" x2="1.447" y2="1.000" />

<line x1="1.478" y1="0.000" x2="1.478" y2="1.000" />

<line x1="1.509" y1="0.000" x2="1.509" y2="1.000" />
<line x1="1.525" y1="0.000" x2="1.525" y2="1.000" />
<line x1="1.540" y1="0.000" x2="1.540" y2="1.000" />

<line x1="1.571" y1="0.000" x2="1.571" y2="1.000" />

<line x1="1.602" y1="0.000" x2="1.602" y2="1.000" />


</g>
</svg>