<svg xmlns="http://www.w3.org/2000/svg" width="161.8" height="100.0" viewBox="-2.548 45.000 171.803 110.000">
<g fill="none" stroke="black" stroke-width="0.0100%" transform="translate(0, 200.0000) scale(50.0000, -50.0000)">
<polyline points="0.049,1.000 0.098,1.000 0.098,2.000 0.147,2.000 0.147,1.000 0.196,1.000 0.196,3.000 0.245,3.000 0.245,2.000 0.294,2.000 0.294,1.000 0.343,1.000 0.343,2.000 0.392,2.000 0.392,1.000 0.441,1.000 0.441,3.000 0.490,3.000 0.490,2.000 0.539,2.000 0.539,1.000 0.588,1.000 0.588,2.000 0.637,2.000 0.637,1.000 0.686,1.000 0.686,3.000 0.735,3.000 0.735,2.000 0.785,2.000 0.785,1.000 0.834,1.000 0.834,3.000 0.883,3.000 0.883,3.000 0.932,3.000 0.932,2.000 0.981,2.000 0.981,1.000 1.030,1.000 1.030,2.000 1.079,2.000 1.079,1.000 1.128,1.000 1.128,3.000 1.177,3.000 1.177,3.000 1.226,3.000 1.226,2.000 1.275,2.000 1.275,1.000 1.324,1.000 1.324,3.000 1.373,3.000 1.373,2.000 1.422,2.000 1.422,1.000 1.471,1.000 1.471,2.000 1.520,2.000 1.520,1.000 1.569,1.000 1.569,3.000 1.618,3.000 1.618,2.000 1.667,2.000 1.667,1.000 1.716,1.000 1.716,2.000 1.765,2.000 1.765,1.000 1.814,1.000 1.814,3.000 1.863,3.000 1.863,2.000 1.912,2.000 1.912,1.000 1.961,1.000 1.961,2.000 2.010,2.000 2.010,1.000 2.059,1.000 2.059,3.000 2.108,3.000 2.108,2.000 2.157,2.000 2.157,1.000 2.206,1.000 2.206,2.000 2.255,2.000 2.255,1.000 2.304,1.000 2.304,3.000 2.354,3.000 2.354,2.000 2.403,2.000 2.403,1.000 2.452,1.000 2.452,2.000 2.501,2.000 2.501,1.000 2.550,1.000 2.550,3.000 2.599,3.000 2.599,2.000 2.648,2.000 2.648,1.000 2.697,1.000 2.697,3.000 2.746,3.000 2.746,3.000 2.795,3.000 2.795,2.000 2.844,2.000 2.844,1.000 2.893,1.000 2.893,2.000 2.942,2.000 2.942,1.000 2.991,1.000 2.991,3.000 3.040,3.000 3.040,2.000 3.089,2.000 3.089,1.000 3.138,1.000 3.138,2.000 3.187,2.000 3.187,1.000 3.236,1.000 3.236,3.000 3.285,3.000" />
</g>
</svg>