<svg xmlns="http://www.w3.org/2000/svg" width="161.8" height="100.0" viewBox="-3.80 -53.28 171.80 110.00">
<g fill="none" stroke="black" stroke-width="0.1450%" transform="translate(0, 3.4483) scale(3.4483, -3.4483)">


<line x1="1.04" y1="0.00" x2="1.04" y2="1.00" />

<line x1="1.74" y1="0.00" x2="1.74" y2="1.00" />
<line x1="2.09" y1="0.00" x2="2.09" y2="2.00" />

<line x1="2.78" y1="0.00" x2="2.78" y2="1.00" />
<line x1="3.13" y1="0.00" x2="3.13" y2="-2.00" />
<line x1="3.48" y1="0.00" x2="3.48" y2="3.00" />

<line x1="4.17" y1="0.00" x2="4.17" y2="1.00" />
<line x1="4.52" y1="0.00" x2="4.52" y2="-2.00" />
<line x1="4.87" y1="0.00" x2="4.87" y2="-3.00" />
<line x1="5.21" y1="0.00" x2="5.21" y2="4.00" />

<line x1="5.91" y1="0.00" x2="5.91" y2="1.00" />
<line x1="6.26" y1="0.00" x2="6.26" y2="-2.00" />
<line x1="6.60" y1="0.00" x2="6.60" y2="-3.00" />
<line x1="6.95" y1="0.00" x2="6.95" y2="4.00" />
<line x1="7.30" y1="0.00" x2="7.30" y2="5.00" />

<line x1="7.99" y1="0.00" x2="7.99" y2="1.00" />
<line x1="8.34" y1="0.00" x2="8.34" y2="-2.00" />
<line x1="8.69" y1="0.00" x2="8.69" y2="3.00" />
<line x1="9.04" y1="0.00" x2="9.04" y2="4.00" />
<line x1="9.38" y1="0.00" x2="9.38" y2="-5.00" />
<line x1="9.73" y1="0.00" x2="9.73" y2="6.00" />

<line x1="10.43" y1="0.00" x2="10.43" y2="1.00" />
<line x1="10.77" y1="0.00" x2="10.77" y2="2.00" />
<line x1="11.12" y1="0.00" x2="11.12" y2="-3.00" />
<line x1="11.47" y1="0.00" x2="11.47" y2="4.00" />
<line x1="11.82" y1="0.00" x2="11.82" y2="-5.00" />
<line x1="12.17" y1="0.00" x2="12.17" y2="-6.00" />
<line x1="12.51" y1="0.00" x2="12.51" y2="7.00" />

<line x1="13.21" y1="0.00" x2="13.21" y2="1.00" />
<line x1="13.56" y1="0.00" x2="13.56" y2="-2.00" />
<line x1="13.90" y1="0.00" x2="13.90" y2="-3.00" />
<line x1="14.25" y1="0.00" x2="14.25" y2="4.00" />
<line x1="14.60" y1="0.00" x2="14.60" y2="-5.00" />
<line x1="14.95" y1="0.00" x2="14.95" y2="-6.00" />
<line x1="15.29" y1="0.00" x2="15.29" y2="-7.00" />
<line x1="15.64" y1="0.00" x2="15.64" y2="8.00" />

<line x1="16.34" y1="0.00" x2="16.34" y2="1.00" />
<line x1="16.68" y1="0.00" x2="16.68" y2="-2.00" />
<line x1="17.03" y1="0.00" x2="17.03" y2="-3.00" />
<line x1="17.38" y1="0.00" x2="17.38" y2="4.00" />
<line x1="17.73" y1="0.00" x2="17.73" y2="-5.00" />
<line x1="18.07" y1="0.00" x2="18.07" y2="-6.00" />
<line x1="18.42" y1="0.00" x2="18.42" y2="7.00" />
<line x1="18.77" y1="0.00" x2="18.77" y2="-8.00" />
<line x1="19.12" y1="0.00" x2="19.12" y2="9.00" />

<line x1="19.81" y1="0.00" x2="19.81" y2="1.00" />
<line x1="20.16" y1="0.00" x2="20.16" y2="-2.00" />
<line x1="20.51" y1="0.00" x2="20.51" y2="-3.00" />
<line x1="20.85" y1="0.00" x2="20.85" y2="4.00" />
<line x1="21.20" y1="0.00" x2="21.20" y2="5.00" />
<line x1="21.55" y1="0.00" x2="21.55" y2="6.00" />
<line x1="21.90" y1="0.00" x2="21.90" y2="-7.00" />
<line x1="22.24" y1="0.00" x2="22.24" y2="-8.00" />
<line x1="22.59" y1="0.00" x2="22.59" y2="9.00" />
<line x1="22.94" y1="0.00" x2="22.94" y2="10.00" />

<line x1="23.64" y1="0.00" x2="23.64" y2="1.00" />
<line x1="23.98" y1="0.00" x2="23.98" y2="-2.00" />
<line x1="24.33" y1="0.00" x2="24.33" y2="3.00" />
<line x1="24.68" y1="0.00" x2="24.68" y2="4.00" />
<line x1="25.03" y1="0.00" x2="25.03" y2="5.00" />
<line x1="25.37" y1="0.00" x2="25.37" y2="-6.00" />
<line x1="25.72" y1="0.00" x2="25.72" y2="-7.00" />
<line x1="26.07" y1="0.00" x2="26.07" y2="-8.00" />
<line x1="26.42" y1="0.00" x2="26.42" y2="9.00" />
<line x1="26.76" y1="0.00" x2="26.76" y2="-10.00" />
<line x1="27.11" y1="0.00" x2="27.11" y2="11.00" />

<line x1="27.81" y1="0.00" x2="27.81" y2="1.00" />
<line x1="28.15" y1="0.00" x2="28.15" y2="-2.00" />
<line x1="28.50" y1="0.00" x2="28.50" y2="-3.00" />
<line x1="28.85" y1="0.00" x2="28.85" y2="4.00" />
<line x1="29.20" y1="0.00" x2="29.20" y2="-5.00" />
<line x1="29.54" y1="0.00" x2="29.54" y2="-6.00" />
<line x1="29.89" y1="0.00" x2="29.89" y2="-7.00" />
<line x1="30.24" y1="0.00" x2="30.24" y2="-8.00" />
<line x1="30.59" y1="0.00" x2="30.59" y2="9.00" />
<line x1="30.93" y1="0.00" x2="30.93" y2="-10.00" />
<line x1="31.28" y1="0.00" x2="31.28" y2="-11.00" />
<line x1="31.63" y1="0.00" x2="31.63" y2="12.00" />

<line x1="32.32" y1="0.00" x2="32.32" y2="1.00" />
<line x1="32.67" y1="0.00" x2="32.67" y2="-2.00" />
<line x1="33.02" y1="0.00" x2="33.02" y2="3.00" />
<line x1="33.37" y1="0.00" x2="33.37" y2="4.00" />
<line x1="33.72" y1="0.00" x2="33.72" y2="-5.00" />
<line x1="34.06" y1="0.00" x2="34.06" y2="-6.00" />
<line x1="34.41" y1="0.00" x2="34.41" y2="-7.00" />
<line x1="34.76" y1="0.00" x2="34.76" y2="-8.00" />
<line x1="35.11" y1="0.00" x2="35.11" y2="9.00" />
<line x1="35.45" y1="0.00" x2="35.45" y2="10.00" />
<line x1="35.80" y1="0.00" x2="35.80" y2="-11.00" />
<line x1="36.15" y1="0.00" x2="36.15" y2="12.00" />
<line x1="36.50" y1="0.00" x2="36.50" y2="13.00" />

<line x1="37.19" y1="0.00" x2="37.19" y2="1.00" />
<line x1="37.54" y1="0.00" x2="37.54" y2="2.00" />
<line x1="37.89" y1="0.00" x2="37.89" y2="-3.00" />
<line x1="38.23" y1="0.00" x2="38.23" y2="4.00" />
<line x1="38.58" y1="0.00" x2="38.58" y2="-5.00" />
<line x1="38.93" y1="0.00" x2="38.93" y2="-6.00" />
<line x1="39.28" y1="0.00" x2="39.28" y2="7.00" />
<line x1="39.62" y1="0.00" x2="39.62" y2="8.00" />
<line x1="39.97" y1="0.00" x2="39.97" y2="9.00" />
<line x1="40.32" y1="0.00" x2="40.32" y2="-10.00" />
<line x1="40.67" y1="0.00" x2="40.67" y2="11.00" />
<line x1="41.01" y1="0.00" x2="41.01" y2="-12.00" />
<line x1="41.36" y1="0.00" x2="41.36" y2="-13.00" />
<line x1="41.71" y1="0.00" x2="41.71" y2="14.00" />

<line x1="42.40" y1="0.00" x2="42.40" y2="1.00" />
<line x1="42.75" y1="0.00" x2="42.75" y2="-2.00" />
<line x1="43.10" y1="0.00" x2="43.10" y2="-3.00" />
<line x1="43.45" y1="0.00" x2="43.45" y2="4.00" />
<line x1="43.79" y1="0.00" x2="43.79" y2="-5.00" />
<line x1="44.14" y1="0.00" x2="44.14" y2="6.00" />
<line x1="44.49" y1="0.00" x2="44.49" y2="-7.00" />
<line x1="44.84" y1="0.00" x2="44.84" y2="-8.00" />
<line x1="45.19" y1="0.00" x2="45.19" y2="9.00" />
<line x1="45.53" y1="0.00" x2="45.53" y2="10.00" />
<line x1="45.88" y1="0.00" x2="45.88" y2="-11.00" />
<line x1="46.23" y1="0.00" x2="46.23" y2="-12.00" />
<line x1="46.58" y1="0.00" x2="46.58" y2="-13.00" />
<line x1="46.92" y1="0.00" x2="46.92" y2="-14.00" />
<line x1="47.27" y1="0.00" x2="47.27" y2="15.00" />
</g>
</svg>