<svg xmlns="http://www.w3.org/2000/svg" width="161.8" height="100.0" viewBox="-3.41 11.67 171.80 110.00">
<g fill="none" stroke="black" stroke-width="0.0600%" transform="translate(0, 133.3333) scale(8.3333, -8.3333)">
<circle cx="0.19" cy="12.00" r="0.06" />
<circle cx="0.38" cy="4.00" r="0.06" />
<circle cx="0.57" cy="2.00" r="0.06" />
<circle cx="0.76" cy="4.00" r="0.06" />
<circle cx="0.95" cy="6.00" r="0.06" />
<circle cx="1.14" cy="2.00" r="0.06" />
<circle cx="1.33" cy="6.00" r="0.06" />
<circle cx="1.52" cy="4.00" r="0.06" />
<circle cx="1.71" cy="2.00" r="0.06" />
<circle cx="1.90" cy="4.00" r="0.06" />
<circle cx="2.09" cy="6.00" r="0.06" />
<circle cx="2.28" cy="6.00" r="0.06" />
<circle cx="2.47" cy="2.00" r="0.06" />
<circle cx="2.66" cy="6.00" r="0.06" />
<circle cx="2.86" cy="4.00" r="0.06" />
<circle cx="3.05" cy="2.00" r="0.06" />
<circle cx="3.24" cy="6.00" r="0.06" />
<circle cx="3.43" cy="4.00" r="0.06" />
<circle cx="3.62" cy="6.00" r="0.06" />
<circle cx="3.81" cy="8.00" r="0.06" />
<circle cx="4.00" cy="4.00" r="0.06" />
<circle cx="4.19" cy="2.00" r="0.06" />
<circle cx="4.38" cy="4.00" r="0.06" />
<circle cx="4.57" cy="2.00" r="0.06" />
<circle cx="4.76" cy="4.00" r="0.06" />
<circle cx="4.95" cy="14.00" r="0.06" />
<circle cx="5.14" cy="4.00" r="0.06" />
<circle cx="5.33" cy="6.00" r="0.06" />
<circle cx="5.52" cy="2.00" r="0.06" />
<circle cx="5.71" cy="10.00" r="0.06" />
<circle cx="5.90" cy="2.00" r="0.06" />
<circle cx="6.09" cy="6.00" r="0.06" />
<circle cx="6.28" cy="6.00" r="0.06" />
<circle cx="6.47" cy="4.00" r="0.06" />
<circle cx="6.66" cy="2.00" r="0.06" />
<circle cx="6.85" cy="4.00" r="0.06" />
<circle cx="7.04" cy="6.00" r="0.06" />
<circle cx="7.23" cy="2.00" r="0.06" />
<circle cx="7.42" cy="10.00" r="0.06" />
<circle cx="7.61" cy="2.00" r="0.06" />
<circle cx="7.80" cy="4.00" r="0.06" />
<circle cx="7.99" cy="2.00" r="0.06" />
<circle cx="8.19" cy="12.00" r="0.06" />
<circle cx="8.38" cy="10.00" r="0.06" />
<circle cx="8.57" cy="2.00" r="0.06" />
<circle cx="8.76" cy="4.00" r="0.06" />
<circle cx="8.95" cy="2.00" r="0.06" />
<circle cx="9.14" cy="4.00" r="0.06" />
<circle cx="9.33" cy="6.00" r="0.06" />
<circle cx="9.52" cy="2.00" r="0.06" />
<circle cx="9.71" cy="6.00" r="0.06" />
<circle cx="9.90" cy="4.00" r="0.06" />
<circle cx="10.09" cy="6.00" r="0.06" />
<circle cx="10.28" cy="6.00" r="0.06" />
<circle cx="10.47" cy="6.00" r="0.06" />
<circle cx="10.66" cy="2.00" r="0.06" />
<circle cx="10.85" cy="6.00" r="0.06" />
<circle cx="11.04" cy="4.00" r="0.06" />
<circle cx="11.23" cy="2.00" r="0.06" />
<circle cx="11.42" cy="6.00" r="0.06" />
<circle cx="11.61" cy="4.00" r="0.06" />
<circle cx="11.80" cy="6.00" r="0.06" />
<circle cx="11.99" cy="8.00" r="0.06" />
<circle cx="12.18" cy="4.00" r="0.06" />
<circle cx="12.37" cy="2.00" r="0.06" />
<circle cx="12.56" cy="4.00" r="0.06" />
<circle cx="12.75" cy="6.00" r="0.06" />
<circle cx="12.94" cy="8.00" r="0.06" />
<circle cx="13.13" cy="6.00" r="0.06" />
<circle cx="13.32" cy="10.00" r="0.06" />
<circle cx="13.52" cy="2.00" r="0.06" />
<circle cx="13.71" cy="4.00" r="0.06" />
<circle cx="13.90" cy="6.00" r="0.06" />
<circle cx="14.09" cy="2.00" r="0.06" />
<circle cx="14.28" cy="6.00" r="0.06" />
<circle cx="14.47" cy="6.00" r="0.06" />
<circle cx="14.66" cy="4.00" r="0.06" />
<circle cx="14.85" cy="2.00" r="0.06" />
<circle cx="15.04" cy="4.00" r="0.06" />
<circle cx="15.23" cy="6.00" r="0.06" />
<circle cx="15.42" cy="2.00" r="0.06" />
<circle cx="15.61" cy="6.00" r="0.06" />
<circle cx="15.80" cy="4.00" r="0.06" />
<circle cx="15.99" cy="2.00" r="0.06" />
<circle cx="16.18" cy="6.00" r="0.06" />
<circle cx="16.37" cy="10.00" r="0.06" />
<circle cx="16.56" cy="2.00" r="0.06" />
<circle cx="16.75" cy="10.00" r="0.06" />
<circle cx="16.94" cy="2.00" r="0.06" />
<circle cx="17.13" cy="4.00" r="0.06" />
<circle cx="17.32" cy="2.00" r="0.06" />
<circle cx="17.51" cy="4.00" r="0.06" />
<circle cx="17.70" cy="6.00" r="0.06" />
<circle cx="17.89" cy="8.00" r="0.06" />
<circle cx="18.08" cy="4.00" r="0.06" />
<circle cx="18.27" cy="2.00" r="0.06" />
<circle cx="18.46" cy="4.00" r="0.06" />
<circle cx="18.65" cy="12.00" r="0.06" />
<circle cx="18.85" cy="2.00" r="0.06" />
<circle cx="19.04" cy="6.00" r="0.06" />
<circle cx="19.23" cy="4.00" r="0.06" />
<circle cx="19.42" cy="2.00" r="0.06" />
<circle cx="19.61" cy="6.00" r="0.06" />
</g>
</svg>