<svg xmlns="http://www.w3.org/2000/svg" width="161.8" height="100.0" viewBox="1 -5 172 110">
<g fill="none" stroke="black" stroke-width="3.6400%" transform="translate(0, 100.2747) scale(0.1374, -0.1374)">
<circle cx="44" cy="1" r="4" />
<circle cx="87" cy="2" r="4" />
<circle cx="131" cy="5" r="4" />
<circle cx="175" cy="14" r="4" />
<circle cx="218" cy="41" r="4" />
<circle cx="262" cy="122" r="4" />
<circle cx="305" cy="365" r="4" />
<circle cx="349" cy="487" r="4" />
<circle cx="393" cy="488" r="4" />
<circle cx="436" cy="491" r="4" />
<circle cx="480" cy="500" r="4" />
<circle cx="524" cy="527" r="4" />
<circle cx="567" cy="608" r="4" />
<circle cx="611" cy="649" r="4" />
<circle cx="654" cy="650" r="4" />
<circle cx="698" cy="653" r="4" />
<circle cx="742" cy="662" r="4" />
<circle cx="785" cy="689" r="4" />
<circle cx="829" cy="703" r="4" />
<circle cx="873" cy="704" r="4" />
<circle cx="916" cy="707" r="4" />
<circle cx="960" cy="716" r="4" />
<circle cx="1003" cy="721" r="4" />
<circle cx="1047" cy="722" r="4" />
<circle cx="1091" cy="725" r="4" />
<circle cx="1134" cy="727" r="4" />
<circle cx="1178" cy="728" r="4" />
<circle cx="1222" cy="729" r="4" />
</g>
</svg>