<svg xmlns="http://www.w3.org/2000/svg" width="161.8" height="100.0" viewBox="-0.6 -0.8 171.8 110.0">
<g fill="none" stroke="black" stroke-width="0.4750%" transform="translate(0, 108.4211) scale(1.0526, -1.0526)">
<polyline points="4.2,4.0 8.3,8.0 12.5,9.0 16.6,12.0 20.8,16.0 24.9,18.0 29.1,20.0 33.2,24.0 37.4,25.0 41.5,27.0 45.7,28.0 49.9,32.0 54.0,36.0 58.2,40.0 62.3,44.0 66.5,45.0 70.6,48.0 74.8,49.0 78.9,50.0 83.1,52.0 87.2,54.0 91.4,56.0 95.6,60.0 99.7,63.0 103.9,64.0 108.0,68.0 112.2,72.0 116.3,75.0 120.5,76.0 124.6,80.0 128.8,81.0 132.9,84.0 137.1,88.0 141.2,90.0 145.4,92.0 149.6,96.0 153.7,98.0 157.9,99.0" />
</g>
</svg>