<svg xmlns="http://www.w3.org/2000/svg" width="161.8" height="100.0" viewBox="-2.06 -55.00 171.80 110.00">
<g fill="none" stroke="black" stroke-width="0.0300%" transform="translate(0, 0.0000) scale(16.6667, -16.6667)">
<line x1="0.18" y1="0.00" x2="0.18" y2="-3.00" />
<line x1="0.35" y1="0.00" x2="0.35" y2="2.00" />
<line x1="0.53" y1="0.00" x2="0.53" y2="1.00" />
<line x1="0.71" y1="0.00" x2="0.71" y2="-2.00" />

<line x1="1.06" y1="0.00" x2="1.06" y2="2.00" />
<line x1="1.24" y1="0.00" x2="1.24" y2="-3.00" />
<line x1="1.41" y1="0.00" x2="1.41" y2="1.00" />
<line x1="1.59" y1="0.00" x2="1.59" y2="-1.00" />
<line x1="1.77" y1="0.00" x2="1.77" y2="3.00" />



<line x1="2.47" y1="0.00" x2="2.47" y2="-3.00" />
<line x1="2.65" y1="0.00" x2="2.65" y2="2.00" />
<line x1="2.82" y1="0.00" x2="2.82" y2="-2.00" />

<line x1="3.18" y1="0.00" x2="3.18" y2="1.00" />


<line x1="3.71" y1="0.00" x2="3.71" y2="2.00" />
<line x1="3.88" y1="0.00" x2="3.88" y2="-1.00" />
<line x1="4.06" y1="0.00" x2="4.06" y2="-2.00" />
<line x1="4.24" y1="0.00" x2="4.24" y2="3.00" />

<line x1="4.59" y1="0.00" x2="4.59" y2="-1.00" />
<line x1="4.77" y1="0.00" x2="4.77" y2="-2.00" />
<line x1="4.94" y1="0.00" x2="4.94" y2="3.00" />
<line x1="5.12" y1="0.00" x2="5.12" y2="-3.00" />
<line x1="5.30" y1="0.00" x2="5.30" y2="2.00" />
<line x1="5.47" y1="0.00" x2="5.47" y2="1.00" />
<line x1="5.65" y1="0.00" x2="5.65" y2="-2.00" />

<line x1="6.00" y1="0.00" x2="6.00" y2="2.00" />
<line x1="6.18" y1="0.00" x2="6.18" y2="-2.00" />
<line x1="6.35" y1="0.00" x2="6.35" y2="-1.00" />

<line x1="6.71" y1="0.00" x2="6.71" y2="3.00" />



<line x1="7.41" y1="0.00" x2="7.41" y2="-3.00" />
<line x1="7.59" y1="0.00" x2="7.59" y2="2.00" />
<line x1="7.77" y1="0.00" x2="7.77" y2="-2.00" />
<line x1="7.94" y1="0.00" x2="7.94" y2="2.00" />
<line x1="8.12" y1="0.00" x2="8.12" y2="-2.00" />

<line x1="8.47" y1="0.00" x2="8.47" y2="1.00" />
<line x1="8.65" y1="0.00" x2="8.65" y2="2.00" />
<line x1="8.83" y1="0.00" x2="8.83" y2="-1.00" />
<line x1="9.00" y1="0.00" x2="9.00" y2="-2.00" />
<line x1="9.18" y1="0.00" x2="9.18" y2="3.00" />

<line x1="9.53" y1="0.00" x2="9.53" y2="-1.00" />
<line x1="9.71" y1="0.00" x2="9.71" y2="-2.00" />
<line x1="9.88" y1="0.00" x2="9.88" y2="1.00" />
</g>
</svg>