<svg xmlns="http://www.w3.org/2000/svg" width="161.8" height="100.0" viewBox="-3.77 15.00 171.80 110.00">
<g fill="none" stroke="black" stroke-width="0.0250%" transform="translate(0, 140.0000) scale(20.0000, -20.0000)">
<polyline points="0.06,1.00 0.12,1.00 0.12,2.00 0.18,2.00 0.18,1.00 0.25,1.00 0.25,2.00 0.31,2.00 0.31,3.00 0.37,3.00 0.37,1.00 0.43,1.00 0.43,2.00 0.49,2.00 0.49,1.00 0.55,1.00 0.55,2.00 0.61,2.00 0.61,3.00 0.67,3.00 0.67,1.00 0.74,1.00 0.74,2.00 0.80,2.00 0.80,3.00 0.86,3.00 0.86,4.00 0.92,4.00 0.92,1.00 0.98,1.00 0.98,2.00 1.04,2.00 1.04,1.00 1.10,1.00 1.10,2.00 1.16,2.00 1.16,3.00 1.23,3.00 1.23,1.00 1.29,1.00 1.29,2.00 1.35,2.00 1.35,1.00 1.41,1.00 1.41,2.00 1.47,2.00 1.47,3.00 1.53,3.00 1.53,1.00 1.59,1.00 1.59,2.00 1.65,2.00 1.65,3.00 1.72,3.00 1.72,4.00 1.78,4.00 1.78,1.00 1.84,1.00 1.84,2.00 1.90,2.00 1.90,1.00 1.96,1.00 1.96,2.00 2.02,2.00 2.02,3.00 2.08,3.00 2.08,1.00 2.15,1.00 2.15,2.00 2.21,2.00 2.21,3.00 2.27,3.00 2.27,4.00 2.33,4.00 2.33,1.00 2.39,1.00 2.39,2.00 2.45,2.00 2.45,3.00 2.51,3.00 2.51,4.00 2.57,4.00 2.57,5.00 2.64,5.00 2.64,1.00 2.70,1.00 2.70,2.00 2.76,2.00 2.76,1.00 2.82,1.00 2.82,2.00 2.88,2.00 2.88,3.00 2.94,3.00 2.94,1.00 3.00,1.00 3.00,2.00 3.06,2.00 3.06,1.00 3.13,1.00 3.13,2.00 3.19,2.00 3.19,3.00 3.25,3.00 3.25,1.00 3.31,1.00 3.31,2.00 3.37,2.00 3.37,3.00 3.43,3.00 3.43,4.00 3.49,4.00 3.49,1.00 3.55,1.00 3.55,2.00 3.62,2.00 3.62,1.00 3.68,1.00 3.68,2.00 3.74,2.00 3.74,3.00 3.80,3.00 3.80,1.00 3.86,1.00 3.86,2.00 3.92,2.00 3.92,1.00 3.98,1.00 3.98,2.00 4.05,2.00 4.05,3.00 4.11,3.00 4.11,1.00 4.17,1.00 4.17,2.00 4.23,2.00 4.23,3.00 4.29,3.00 4.29,4.00 4.35,4.00 4.35,1.00 4.41,1.00 4.41,2.00 4.47,2.00 4.47,1.00 4.54,1.00 4.54,2.00 4.60,2.00 4.60,3.00 4.66,3.00 4.66,1.00 4.72,1.00 4.72,2.00 4.78,2.00 4.78,3.00 4.84,3.00 4.84,4.00 4.90,4.00 4.90,1.00 4.96,1.00 4.96,2.00 5.03,2.00 5.03,3.00 5.09,3.00 5.09,4.00 5.15,4.00 5.15,5.00 5.21,5.00 5.21,1.00 5.27,1.00 5.27,2.00 5.33,2.00 5.33,1.00 5.39,1.00 5.39,2.00 5.45,2.00 5.45,3.00 5.52,3.00 5.52,1.00 5.58,1.00 5.58,2.00 5.64,2.00 5.64,1.00 5.70,1.00 5.70,2.00 5.76,2.00 5.76,3.00 5.82,3.00 5.82,1.00 5.88,1.00 5.88,2.00 5.95,2.00 5.95,3.00 6.01,3.00 6.01,4.00 6.07,4.00 6.07,1.00 6.13,1.00 6.13,2.00 6.19,2.00 6.19,1.00 6.25,1.00 6.25,2.00 6.31,2.00 6.31,3.00 6.37,3.00 6.37,1.00 6.44,1.00 6.44,2.00 6.50,2.00 6.50,3.00 6.56,3.00 6.56,4.00 6.62,4.00 6.62,1.00 6.68,1.00 6.68,2.00 6.74,2.00 6.74,3.00 6.80,3.00 6.80,4.00 6.86,4.00 6.86,5.00 6.93,5.00 6.93,1.00 6.99,1.00 6.99,2.00 7.05,2.00 7.05,1.00 7.11,1.00 7.11,2.00 7.17,2.00 7.17,3.00 7.23,3.00 7.23,1.00 7.29,1.00 7.29,2.00 7.35,2.00 7.35,3.00 7.42,3.00 7.42,4.00 7.48,4.00 7.48,1.00 7.54,1.00 7.54,2.00 7.60,2.00 7.60,3.00 7.66,3.00 7.66,4.00 7.72,4.00 7.72,5.00 7.78,5.00 7.78,1.00 7.85,1.00 7.85,2.00 7.91,2.00 7.91,3.00 7.97,3.00 7.97,4.00 8.03,4.00 8.03,5.00 8.09,5.00 8.09,6.00 8.15,6.00" />
</g>
</svg>