<svg xmlns="http://www.w3.org/2000/svg" width="161.8" height="100.0" viewBox="-2.472 -5.000 171.803 110.000">
<g fill="none" stroke="black" stroke-width="0.0050%" transform="translate(0, 100.0000) scale(100.0000, -100.0000)">
<circle cx="0.025" cy="0.000" r="0.005" />
<circle cx="0.051" cy="1.000" r="0.005" />
<circle cx="0.076" cy="0.000" r="0.005" />
<circle cx="0.101" cy="0.000" r="0.005" />
<circle cx="0.126" cy="1.000" r="0.005" />
<circle cx="0.152" cy="0.000" r="0.005" />
<circle cx="0.177" cy="1.000" r="0.005" />
<circle cx="0.202" cy="0.000" r="0.005" />
<circle cx="0.228" cy="0.000" r="0.005" />
<circle cx="0.253" cy="0.000" r="0.005" />
<circle cx="0.278" cy="1.000" r="0.005" />
<circle cx="0.303" cy="0.000" r="0.005" />
<circle cx="0.329" cy="0.000" r="0.005" />
<circle cx="0.354" cy="1.000" r="0.005" />
<circle cx="0.379" cy="0.000" r="0.005" />
<circle cx="0.405" cy="1.000" r="0.005" />
<circle cx="0.430" cy="0.000" r="0.005" />
<circle cx="0.455" cy="0.000" r="0.005" />
<circle cx="0.480" cy="1.000" r="0.005" />
<circle cx="0.506" cy="0.000" r="0.005" />
<circle cx="0.531" cy="0.000" r="0.005" />
<circle cx="0.556" cy="1.000" r="0.005" />
<circle cx="0.581" cy="0.000" r="0.005" />
<circle cx="0.607" cy="1.000" r="0.005" />
<circle cx="0.632" cy="0.000" r="0.005" />
<circle cx="0.657" cy="0.000" r="0.005" />
<circle cx="0.683" cy="0.000" r="0.005" />
<circle cx="0.708" cy="1.000" r="0.005" />
<circle cx="0.733" cy="0.000" r="0.005" />
<circle cx="0.758" cy="0.000" r="0.005" />
<circle cx="0.784" cy="1.000" r="0.005" />
<circle cx="0.809" cy="0.000" r="0.005" />
<circle cx="0.834" cy="1.000" r="0.005" />
<circle cx="0.860" cy="0.000" r="0.005" />
<circle cx="0.885" cy="1.000" r="0.005" />
<circle cx="0.910" cy="0.000" r="0.005" />
<circle cx="0.935" cy="0.000" r="0.005" />
<circle cx="0.961" cy="1.000" r="0.005" />
<circle cx="0.986" cy="0.000" r="0.005" />
<circle cx="1.011" cy="1.000" r="0.005" />
<circle cx="1.037" cy="0.000" r="0.005" />
<circle cx="1.062" cy="0.000" r="0.005" />
<circle cx="1.087" cy="0.000" r="0.005" />
<circle cx="1.112" cy="1.000" r="0.005" />
<circle cx="1.138" cy="0.000" r="0.005" />
<circle cx="1.163" cy="0.000" r="0.005" />
<circle cx="1.188" cy="1.000" r="0.005" />
<circle cx="1.214" cy="0.000" r="0.005" />
<circle cx="1.239" cy="1.000" r="0.005" />
<circle cx="1.264" cy="0.000" r="0.005" />
<circle cx="1.289" cy="0.000" r="0.005" />
<circle cx="1.315" cy="1.000" r="0.005" />
<circle cx="1.340" cy="0.000" r="0.005" />
<circle cx="1.365" cy="0.000" r="0.005" />
<circle cx="1.390" cy="1.000" r="0.005" />
<circle cx="1.416" cy="0.000" r="0.005" />
<circle cx="1.441" cy="1.000" r="0.005" />
<circle cx="1.466" cy="0.000" r="0.005" />
<circle cx="1.492" cy="0.000" r="0.005" />
<circle cx="1.517" cy="0.000" r="0.005" />
<circle cx="1.542" cy="1.000" r="0.005" />
<circle cx="1.567" cy="0.000" r="0.005" />
<circle cx="1.593" cy="0.000" r="0.005" />
<circle cx="1.618" cy="1.000" r="0.005" />
<circle cx="1.643" cy="0.000" r="0.005" />
</g>
</svg>