<svg xmlns="http://www.w3.org/2000/svg" width="161.8" height="100.0" viewBox="-5.000 -55.000 171.803 110.000">
<g fill="none" stroke="black" stroke-width="0.0100%" transform="translate(0, 0.0000) scale(50.0000, -50.0000)">
<polyline points="0.000,1.000 0.033,0.992 0.065,0.969 0.098,0.930 0.131,0.876 0.163,0.809 0.196,0.729 0.229,0.637 0.262,0.536 0.294,0.426 0.327,0.309 0.360,0.187 0.392,0.063 0.425,-0.063 0.458,-0.187 0.490,-0.309 0.523,-0.426 0.556,-0.536 0.588,-0.637 0.621,-0.729 0.654,-0.809 0.686,-0.876 0.719,-0.930 0.752,-0.969 0.785,-0.992 0.817,-1.000 0.850,-0.992 0.883,-0.969 0.915,-0.930 0.948,-0.876 0.981,-0.809 1.013,-0.729 1.046,-0.637 1.079,-0.536 1.111,-0.426 1.144,-0.309 1.177,-0.187 1.209,-0.063 1.242,0.063 1.275,0.187 1.308,0.309 1.340,0.426 1.373,0.536 1.406,0.637 1.438,0.729 1.471,0.809 1.504,0.876 1.536,0.930 1.569,0.969 1.602,0.992 1.634,1.000 1.667,0.992 1.700,0.969 1.732,0.930 1.765,0.876 1.798,0.809 1.831,0.729 1.863,0.637 1.896,0.536 1.929,0.426 1.961,0.309 1.994,0.187 2.027,0.063 2.059,-0.063 2.092,-0.187 2.125,-0.309 2.157,-0.426 2.190,-0.536 2.223,-0.637 2.255,-0.729 2.288,-0.809 2.321,-0.876 2.354,-0.930 2.386,-0.969 2.419,-0.992 2.452,-1.000 2.484,-0.992 2.517,-0.969 2.550,-0.930 2.582,-0.876 2.615,-0.809 2.648,-0.729 2.680,-0.637 2.713,-0.536 2.746,-0.426 2.778,-0.309 2.811,-0.187 2.844,-0.063 2.877,0.063 2.909,0.187 2.942,0.309 2.975,0.426 3.007,0.536 3.040,0.637 3.073,0.729 3.105,0.809 3.138,0.876 3.171,0.930 3.203,0.969 3.236,0.992" />
<polyline points="0.000,1.000 0.033,0.992 0.065,0.969 0.098,0.931 0.131,0.881 0.163,0.820 0.196,0.750 0.229,0.674 0.262,0.592 0.294,0.508 0.327,0.421 0.360,0.333 0.392,0.245 0.425,0.156 0.458,0.067 0.490,-0.022 0.523,-0.111 0.556,-0.200 0.588,-0.288 0.621,-0.377 0.654,-0.464 0.686,-0.550 0.719,-0.633 0.752,-0.712 0.785,-0.785 0.817,-0.851 0.850,-0.907 0.883,-0.952 0.915,-0.982 0.948,-0.998 0.981,-0.998 1.013,-0.983 1.046,-0.952 1.079,-0.908 1.111,-0.852 1.144,-0.787 1.177,-0.713 1.209,-0.634 1.242,-0.551 1.275,-0.465 1.308,-0.378 1.340,-0.290 1.373,-0.201 1.406,-0.112 1.438,-0.023 1.471,0.066 1.504,0.154 1.536,0.243 1.569,0.332 1.602,0.420 1.634,0.506 1.667,0.591 1.700,0.672 1.732,0.749 1.765,0.819 1.798,0.880 1.831,0.931 1.863,0.968 1.896,0.992 1.929,1.000 1.961,0.992 1.994,0.969 2.027,0.932 2.059,0.882 2.092,0.821 2.125,0.751 2.157,0.675 2.190,0.594 2.223,0.509 2.255,0.423 2.288,0.335 2.321,0.246 2.354,0.157 2.386,0.069 2.419,-0.020 2.452,-0.109 2.484,-0.198 2.517,-0.287 2.550,-0.375 2.582,-0.462 2.615,-0.548 2.648,-0.632 2.680,-0.711 2.713,-0.784 2.746,-0.850 2.778,-0.906 2.811,-0.951 2.844,-0.982 2.877,-0.998 2.909,-0.998 2.942,-0.983 2.975,-0.953 3.007,-0.909 3.040,-0.853 3.073,-0.788 3.105,-0.715 3.138,-0.636 3.171,-0.553 3.203,-0.467 3.236,-0.379" />
<polyline points="0.000,1.000 0.033,0.992 0.065,0.969 0.098,0.933 0.131,0.886 0.163,0.831 0.196,0.770 0.229,0.708 0.262,0.645 0.294,0.585 0.327,0.527 0.360,0.472 0.392,0.422 0.425,0.376 0.458,0.334 0.490,0.297 0.523,0.263 0.556,0.233 0.588,0.206 0.621,0.182 0.654,0.161 0.686,0.142 0.719,0.126 0.752,0.111 0.785,0.098 0.817,0.086 0.850,0.076 0.883,0.067 0.915,0.059 0.948,0.052 0.981,0.046 1.013,0.041 1.046,0.036 1.079,0.032 1.111,0.028 1.144,0.025 1.177,0.022 1.209,0.019 1.242,0.017 1.275,0.015 1.308,0.013 1.340,0.012 1.373,0.010 1.406,0.009 1.438,0.008 1.471,0.007 1.504,0.006 1.536,0.005 1.569,0.005 1.602,0.004 1.634,0.004 1.667,0.003 1.700,0.003 1.732,0.003 1.765,0.002 1.798,0.002 1.831,0.002 1.863,0.002 1.896,0.001 1.929,0.001 1.961,0.001 1.994,0.001 2.027,0.001 2.059,0.001 2.092,0.001 2.125,0.001 2.157,0.001 2.190,0.000 2.223,0.000 2.255,0.000 2.288,0.000 2.321,0.000 2.354,0.000 2.386,0.000 2.419,0.000 2.452,0.000 2.484,0.000 2.517,0.000 2.550,0.000 2.582,0.000 2.615,0.000 2.648,0.000 2.680,0.000 2.713,0.000 2.746,0.000 2.778,0.000 2.811,0.000 2.844,0.000 2.877,0.000 2.909,0.000 2.942,0.000 2.975,0.000 3.007,0.000 3.040,0.000 3.073,0.000 3.105,0.000 3.138,0.000 3.171,0.000 3.203,0.000 3.236,0.000" />
<polyline points="0.000,1.000 0.033,0.992 0.065,0.970 0.098,0.934 0.131,0.890 0.163,0.841 0.196,0.790 0.229,0.740 0.262,0.694 0.294,0.655 0.327,0.623 0.360,0.599 0.392,0.584 0.425,0.578 0.458,0.580 0.490,0.592 0.523,0.613 0.556,0.642 0.588,0.679 0.621,0.723 0.654,0.771 0.686,0.822 0.719,0.873 0.752,0.919 0.785,0.958 0.817,0.986 0.850,0.999 0.883,0.997 0.915,0.979 0.948,0.949 0.981,0.907 1.013,0.859 1.046,0.808 1.079,0.758 1.111,0.711 1.144,0.669 1.177,0.634 1.209,0.607 1.242,0.588 1.275,0.579 1.308,0.578 1.340,0.587 1.373,0.605 1.406,0.631 1.438,0.665 1.471,0.706 1.504,0.753 1.536,0.803 1.569,0.854 1.602,0.903 1.634,0.945 1.667,0.977 1.700,0.996 1.732,0.999 1.765,0.987 1.798,0.961 1.831,0.923 1.863,0.877 1.896,0.827 1.929,0.776 1.961,0.727 1.994,0.683 2.027,0.646 2.059,0.616 2.092,0.594 2.125,0.581 2.157,0.577 2.190,0.583 2.223,0.597 2.255,0.620 2.288,0.651 2.321,0.690 2.354,0.735 2.386,0.785 2.419,0.836 2.452,0.886 2.484,0.930 2.517,0.967 2.550,0.991 2.582,1.000 2.615,0.994 2.648,0.972 2.680,0.938 2.713,0.895 2.746,0.846 2.778,0.795 2.811,0.745 2.844,0.699 2.877,0.659 2.909,0.626 2.942,0.601 2.975,0.585 3.007,0.578 3.040,0.580 3.073,0.591 3.105,0.611 3.138,0.639 3.171,0.675 3.203,0.718 3.236,0.766" />
</g>
</svg>