<svg xmlns="http://www.w3.org/2000/svg" width="200.0" height="100.0" viewBox="-105.010 -105.010 210.020 110.000">
<g fill="none" stroke="black" stroke-width="0.0050%" transform="translate(0, -100.0200) scale(100.0100, -100.0100)">
<path id="P1" fill="none" stroke="black" stroke-opacity="0.175" d="M0.000,-1.000 L0.219,-0.976 0.422,-0.907 0.598,-0.802 0.739,-0.674 0.843,-0.537 0.915,-0.404 0.959,-0.282 0.984,-0.180 0.995,-0.099 0.999,-0.041 1.000,-0.009 1.000,-0.000 1.000,-0.017 0.998,-0.057 0.993,-0.122 0.978,-0.210 0.948,-0.320 0.895,-0.446 0.813,-0.582 0.697,-0.717 0.545,-0.839 0.359,-0.933 0.149,-0.989 -0.071,-0.997 -0.287,-0.958 -0.482,-0.876 -0.647,-0.762 -0.776,-0.630 -0.870,-0.494 -0.932,-0.363 -0.969,-0.247 -0.989,-0.151 -0.997,-0.078 -1.000,-0.028 -1.000,-0.003 -1.000,-0.003 -1.000,-0.027 -0.997,-0.075 -0.989,-0.148 -0.970,-0.243 -0.933,-0.359 -0.872,-0.489 -0.780,-0.626 -0.652,-0.758 -0.488,-0.873 -0.294,-0.956 -0.079,-0.997 0.142,-0.990 0.352,-0.936 0.539,-0.842 0.693,-0.721 0.810,-0.586 0.893,-0.451 0.946,-0.324 0.977,-0.214 0.992,-0.125 0.998,-0.059 1.000,-0.018 1.000,-0.000 1.000,-0.008 0.999,-0.040 0.995,-0.096 0.984,-0.176 0.960,-0.279 0.917,-0.399 0.846,-0.533 0.743,-0.669 0.603,-0.797 0.429,-0.903 0.226,-0.974 0.008,-1.000 -0.211,-0.977 -0.415,-0.910 -0.592,-0.806 -0.734,-0.679 -0.840,-0.542 -0.913,-0.408 -0.958,-0.286 -0.983,-0.183 -0.995,-0.101 -0.999,-0.043 -1.000,-0.009 -1.000,-0.000 -1.000,-0.016 -0.998,-0.055 -0.993,-0.119 -0.978,-0.207 -0.949,-0.316 -0.897,-0.441 -0.817,-0.577 -0.702,-0.712 -0.551,-0.835 -0.366,-0.930 -0.157,-0.988 0.063,-0.998 0.279,-0.960 0.476,-0.880 0.642,-0.767 0.772,-0.635 0.867,-0.498 0.930,-0.367 0.968,-0.251 0.988,-0.154 0.997,-0.080 1.000,-0.030 1.000,-0.004 1.000,-0.002 1.000,-0.026 0.997,-0.073 0.989,-0.145 0.971,-0.240 0.935,-0.354 0.875,-0.484 0.784,-0.621 0.657,-0.754 0.495,-0.869 0.301,-0.954 0.087,-0.996 -0.134,-0.991 -0.345,-0.939 -0.533,-0.846 -0.688,-0.726 -0.806,-0.591 -0.890,-0.455 -0.945,-0.328 -0.976,-0.217 -0.992,-0.128 -0.998,-0.061 -1.000,-0.019 -1.000,-0.001 -1.000,-0.007 -0.999,-0.038 -0.996,-0.094 -0.985,-0.173 -0.962,-0.275 -0.919,-0.395 -0.849,-0.528 -0.747,-0.665 -0.609,-0.793 -0.436,-0.900 -0.234,-0.972 -0.016,-1.000 0.204,-0.979 0.409,-0.913 0.586,-0.810 0.730,-0.684 0.837,-0.547 0.911,-0.413 0.957,-0.290 0.983,-0.186 0.995,-0.104 0.999,-0.045 1.000,-0.010 1.000,-0.000 1.000,-0.015 0.999,-0.054 0.993,-0.117 0.979,-0.203 0.950,-0.311 0.900,-0.437 0.820,-0.572 0.707,-0.707 0.557,-0.831 0.373,-0.928 0.165,-0.986 -0.056,-0.998 -0.272,-0.962 -0.469,-0.883 -0.637,-0.771 -0.768,-0.640 -0.864,-0.503 -0.928,-0.372 -0.967,-0.255 -0.988,-0.157 -0.997,-0.082 -1.000,-0.031 -1.000,-0.004 -1.000,-0.002 -1.000,-0.024 -0.997,-0.071 -0.990,-0.142 -0.972,-0.236 -0.937,-0.350 -0.878,-0.479 -0.788,-0.616 -0.662,-0.749 -0.501,-0.865 -0.308,-0.951 -0.094,-0.996 0.126,-0.992 0.338,-0.941 0.527,-0.850 0.683,-0.730 0.803,-0.596 0.888,-0.460 0.943,-0.332 0.975,-0.221 0.991,-0.130 0.998,-0.063 1.000,-0.020" />
<circle r="0.010" fill="none" stroke="black">
  <animateMotion dur="10.0000s" repeatCount="indefinite" calcMode="linear" keyTimes="0.0000;0.0050;0.0100;0.0150;0.0200;0.0250;0.0300;0.0350;0.0400;0.0450;0.0500;0.0550;0.0600;0.0650;0.0700;0.0750;0.0800;0.0850;0.0900;0.0950;0.1000;0.1050;0.1100;0.1150;0.1200;0.1250;0.1300;0.1350;0.1400;0.1450;0.1500;0.1550;0.1600;0.1650;0.1700;0.1750;0.1800;0.1850;0.1900;0.1950;0.2000;0.2050;0.2100;0.2150;0.2200;0.2250;0.2300;0.2350;0.2400;0.2450;0.2500;0.2550;0.2600;0.2650;0.2700;0.2750;0.2800;0.2850;0.2900;0.2950;0.3000;0.3050;0.3100;0.3150;0.3200;0.3250;0.3300;0.3350;0.3400;0.3450;0.3500;0.3550;0.3600;0.3650;0.3700;0.3750;0.3800;0.3850;0.3900;0.3950;0.4000;0.4050;0.4100;0.4150;0.4200;0.4250;0.4300;0.4350;0.4400;0.4450;0.4500;0.4550;0.4600;0.4650;0.4700;0.4750;0.4800;0.4850;0.4900;0.4950;0.5000;0.5050;0.5100;0.5150;0.5200;0.5250;0.5300;0.5350;0.5400;0.5450;0.5500;0.5550;0.5600;0.5650;0.5700;0.5750;0.5800;0.5850;0.5900;0.5950;0.6000;0.6050;0.6100;0.6150;0.6200;0.6250;0.6300;0.6350;0.6400;0.6450;0.6500;0.6550;0.6600;0.6650;0.6700;0.6750;0.6800;0.6850;0.6900;0.6950;0.7000;0.7050;0.7100;0.7150;0.7200;0.7250;0.7300;0.7350;0.7400;0.7450;0.7500;0.7550;0.7600;0.7650;0.7700;0.7750;0.7800;0.7850;0.7900;0.7950;0.8000;0.8050;0.8100;0.8150;0.8200;0.8250;0.8300;0.8350;0.8400;0.8450;0.8500;0.8550;0.8600;0.8650;0.8700;0.8750;0.8800;0.8850;0.8900;0.8950;0.9000;0.9050;0.9100;0.9150;0.9200;0.9250;0.9300;0.9350;0.9400;0.9450;0.9500;0.9550;0.9600;0.9650;0.9700;0.9750;0.9800;0.9850;0.9900;0.9950;1.0000" keyPoints="0.0000;0.0083;0.0163;0.0240;0.0312;0.0376;0.0433;0.0482;0.0521;0.0552;0.0573;0.0586;0.0589;0.0595;0.0610;0.0635;0.0668;0.0711;0.0762;0.0822;0.0889;0.0962;0.1040;0.1122;0.1205;0.1287;0.1366;0.1442;0.1511;0.1573;0.1627;0.1673;0.1710;0.1738;0.1756;0.1766;0.1766;0.1775;0.1793;0.1821;0.1857;0.1903;0.1957;0.2019;0.2088;0.2163;0.2242;0.2324;0.2407;0.2489;0.2567;0.2641;0.2708;0.2768;0.2819;0.2862;0.2896;0.2921;0.2936;0.2943;0.2946;0.2958;0.2979;0.3009;0.3049;0.3097;0.3153;0.3218;0.3289;0.3366;0.3446;0.3529;0.3611;0.3692;0.3769;0.3841;0.3906;0.3963;0.4012;0.4052;0.4083;0.4105;0.4117;0.4121;0.4126;0.4141;0.4166;0.4199;0.4241;0.4292;0.4351;0.4418;0.4491;0.4569;0.4651;0.4733;0.4816;0.4895;0.4971;0.5040;0.5103;0.5158;0.5204;0.5241;0.5269;0.5288;0.5297;0.5298;0.5307;0.5325;0.5352;0.5388;0.5433;0.5487;0.5548;0.5617;0.5692;0.5771;0.5853;0.5936;0.6018;0.6097;0.6170;0.6238;0.6298;0.6350;0.6393;0.6427;0.6452;0.6468;0.6475;0.6477;0.6489;0.6510;0.6540;0.6579;0.6627;0.6683;0.6747;0.6818;0.6895;0.6975;0.7058;0.7141;0.7221;0.7299;0.7370;0.7435;0.7493;0.7542;0.7582;0.7614;0.7636;0.7649;0.7653;0.7658;0.7673;0.7697;0.7730;0.7772;0.7822;0.7881;0.7948;0.8020;0.8098;0.8180;0.8263;0.8345;0.8425;0.8500;0.8570;0.8633;0.8688;0.8734;0.8772;0.8800;0.8819;0.8829;0.8830;0.8838;0.8856;0.8883;0.8919;0.8963;0.9017;0.9078;0.9147;0.9222;0.9301;0.9383;0.9466;0.9548;0.9626;0.9700;0.9768;0.9828;0.9880;0.9924;0.9958;0.9984;1.0000">
    <mpath href="#P1" />
  </animateMotion>
</circle>
</g>
</svg>