<svg xmlns="http://www.w3.org/2000/svg" width="161.8" height="100.0" viewBox="-5.000 -55.000 171.803 110.000">
<g fill="none" stroke="black" stroke-width="0.0100%" transform="translate(0, 0.0000) scale(50.0000, -50.0000)">
<polyline points="0.000,1.000 0.032,0.992 0.065,0.969 0.097,0.930 0.129,0.876 0.162,0.809 0.194,0.729 0.227,0.637 0.259,0.536 0.291,0.426 0.324,0.309 0.356,0.187 0.388,0.063 0.421,-0.063 0.453,-0.187 0.485,-0.309 0.518,-0.426 0.550,-0.536 0.582,-0.637 0.615,-0.729 0.647,-0.809 0.680,-0.876 0.712,-0.930 0.744,-0.969 0.777,-0.992 0.809,-1.000 0.841,-0.992 0.874,-0.969 0.906,-0.930 0.938,-0.876 0.971,-0.809 1.003,-0.729 1.036,-0.637 1.068,-0.536 1.100,-0.426 1.133,-0.309 1.165,-0.187 1.197,-0.063 1.230,0.063 1.262,0.187 1.294,0.309 1.327,0.426 1.359,0.536 1.392,0.637 1.424,0.729 1.456,0.809 1.489,0.876 1.521,0.930 1.553,0.969 1.586,0.992 1.618,1.000 1.650,0.992 1.683,0.969 1.715,0.930 1.747,0.876 1.780,0.809 1.812,0.729 1.845,0.637 1.877,0.536 1.909,0.426 1.942,0.309 1.974,0.187 2.006,0.063 2.039,-0.063 2.071,-0.187 2.103,-0.309 2.136,-0.426 2.168,-0.536 2.201,-0.637 2.233,-0.729 2.265,-0.809 2.298,-0.876 2.330,-0.930 2.362,-0.969 2.395,-0.992 2.427,-1.000 2.459,-0.992 2.492,-0.969 2.524,-0.930 2.556,-0.876 2.589,-0.809 2.621,-0.729 2.654,-0.637 2.686,-0.536 2.718,-0.426 2.751,-0.309 2.783,-0.187 2.815,-0.063 2.848,0.063 2.880,0.187 2.912,0.309 2.945,0.426 2.977,0.536 3.010,0.637 3.042,0.729 3.074,0.809 3.107,0.876 3.139,0.930 3.171,0.969 3.204,0.992 3.236,1.000" />
<polyline points="0.000,1.000 0.032,0.992 0.065,0.969 0.097,0.931 0.129,0.881 0.162,0.820 0.194,0.750 0.227,0.674 0.259,0.592 0.291,0.508 0.324,0.421 0.356,0.333 0.388,0.245 0.421,0.156 0.453,0.067 0.485,-0.022 0.518,-0.111 0.550,-0.200 0.582,-0.288 0.615,-0.377 0.647,-0.464 0.680,-0.550 0.712,-0.633 0.744,-0.712 0.777,-0.785 0.809,-0.851 0.841,-0.907 0.874,-0.952 0.906,-0.982 0.938,-0.998 0.971,-0.998 1.003,-0.983 1.036,-0.952 1.068,-0.908 1.100,-0.852 1.133,-0.787 1.165,-0.713 1.197,-0.634 1.230,-0.551 1.262,-0.465 1.294,-0.378 1.327,-0.290 1.359,-0.201 1.392,-0.112 1.424,-0.023 1.456,0.066 1.489,0.154 1.521,0.243 1.553,0.332 1.586,0.420 1.618,0.506 1.650,0.591 1.683,0.672 1.715,0.749 1.747,0.819 1.780,0.880 1.812,0.931 1.845,0.968 1.877,0.992 1.909,1.000 1.942,0.992 1.974,0.969 2.006,0.932 2.039,0.882 2.071,0.821 2.103,0.751 2.136,0.675 2.168,0.594 2.201,0.509 2.233,0.423 2.265,0.335 2.298,0.246 2.330,0.157 2.362,0.069 2.395,-0.020 2.427,-0.109 2.459,-0.198 2.492,-0.287 2.524,-0.375 2.556,-0.462 2.589,-0.548 2.621,-0.632 2.654,-0.711 2.686,-0.784 2.718,-0.850 2.751,-0.906 2.783,-0.951 2.815,-0.982 2.848,-0.998 2.880,-0.998 2.912,-0.983 2.945,-0.953 2.977,-0.909 3.010,-0.853 3.042,-0.788 3.074,-0.715 3.107,-0.636 3.139,-0.553 3.171,-0.467 3.204,-0.379 3.236,-0.291" />
<polyline points="0.000,1.000 0.032,0.992 0.065,0.969 0.097,0.933 0.129,0.886 0.162,0.831 0.194,0.770 0.227,0.708 0.259,0.645 0.291,0.585 0.324,0.527 0.356,0.472 0.388,0.422 0.421,0.376 0.453,0.334 0.485,0.297 0.518,0.263 0.550,0.233 0.582,0.206 0.615,0.182 0.647,0.161 0.680,0.142 0.712,0.126 0.744,0.111 0.777,0.098 0.809,0.086 0.841,0.076 0.874,0.067 0.906,0.059 0.938,0.052 0.971,0.046 1.003,0.041 1.036,0.036 1.068,0.032 1.100,0.028 1.133,0.025 1.165,0.022 1.197,0.019 1.230,0.017 1.262,0.015 1.294,0.013 1.327,0.012 1.359,0.010 1.392,0.009 1.424,0.008 1.456,0.007 1.489,0.006 1.521,0.005 1.553,0.005 1.586,0.004 1.618,0.004 1.650,0.003 1.683,0.003 1.715,0.003 1.747,0.002 1.780,0.002 1.812,0.002 1.845,0.002 1.877,0.001 1.909,0.001 1.942,0.001 1.974,0.001 2.006,0.001 2.039,0.001 2.071,0.001 2.103,0.001 2.136,0.001 2.168,0.000 2.201,0.000 2.233,0.000 2.265,0.000 2.298,0.000 2.330,0.000 2.362,0.000 2.395,0.000 2.427,0.000 2.459,0.000 2.492,0.000 2.524,0.000 2.556,0.000 2.589,0.000 2.621,0.000 2.654,0.000 2.686,0.000 2.718,0.000 2.751,0.000 2.783,0.000 2.815,0.000 2.848,0.000 2.880,0.000 2.912,0.000 2.945,0.000 2.977,0.000 3.010,0.000 3.042,0.000 3.074,0.000 3.107,0.000 3.139,0.000 3.171,0.000 3.204,0.000 3.236,0.000" />
<polyline points="0.000,1.000 0.032,0.992 0.065,0.970 0.097,0.934 0.129,0.890 0.162,0.841 0.194,0.790 0.227,0.740 0.259,0.694 0.291,0.655 0.324,0.623 0.356,0.599 0.388,0.584 0.421,0.578 0.453,0.580 0.485,0.592 0.518,0.613 0.550,0.642 0.582,0.679 0.615,0.723 0.647,0.771 0.680,0.822 0.712,0.873 0.744,0.919 0.777,0.958 0.809,0.986 0.841,0.999 0.874,0.997 0.906,0.979 0.938,0.949 0.971,0.907 1.003,0.859 1.036,0.808 1.068,0.758 1.100,0.711 1.133,0.669 1.165,0.634 1.197,0.607 1.230,0.588 1.262,0.579 1.294,0.578 1.327,0.587 1.359,0.605 1.392,0.631 1.424,0.665 1.456,0.706 1.489,0.753 1.521,0.803 1.553,0.854 1.586,0.903 1.618,0.945 1.650,0.977 1.683,0.996 1.715,0.999 1.747,0.987 1.780,0.961 1.812,0.923 1.845,0.877 1.877,0.827 1.909,0.776 1.942,0.727 1.974,0.683 2.006,0.646 2.039,0.616 2.071,0.594 2.103,0.581 2.136,0.577 2.168,0.583 2.201,0.597 2.233,0.620 2.265,0.651 2.298,0.690 2.330,0.735 2.362,0.785 2.395,0.836 2.427,0.886 2.459,0.930 2.492,0.967 2.524,0.991 2.556,1.000 2.589,0.994 2.621,0.972 2.654,0.938 2.686,0.895 2.718,0.846 2.751,0.795 2.783,0.745 2.815,0.699 2.848,0.659 2.880,0.626 2.912,0.601 2.945,0.585 2.977,0.578 3.010,0.580 3.042,0.591 3.074,0.611 3.107,0.639 3.139,0.675 3.171,0.718 3.204,0.766 3.236,0.817" />
</g>
</svg>