<svg xmlns="http://www.w3.org/2000/svg" width="161.8" height="100.0" viewBox="-5.000 -4.933 171.803 110.000">
<g fill="none" stroke="black" stroke-width="0.0050%" transform="translate(0, 100.1343) scale(100.0671, -100.0671)">
<circle cx="0.000" cy="1.000" r="0.005" />
<polyline points="0.000,1.000 0.016,0.999 0.032,0.996 0.049,0.992 0.065,0.985 0.081,0.977 0.097,0.968 0.113,0.958 0.129,0.947 0.146,0.935 0.162,0.923 0.178,0.911 0.194,0.900 0.210,0.888 0.226,0.878 0.243,0.868 0.259,0.859 0.275,0.852 0.291,0.846 0.307,0.841 0.323,0.838 0.340,0.837 0.356,0.837 0.372,0.839 0.388,0.842 0.404,0.847 0.420,0.853 0.437,0.861 0.453,0.869 0.469,0.879 0.485,0.890 0.501,0.901 0.517,0.913 0.534,0.925 0.550,0.937 0.566,0.949 0.582,0.960 0.598,0.970 0.614,0.979 0.631,0.986 0.647,0.992 0.663,0.997 0.679,0.999 0.695,1.000 0.711,0.999 0.728,0.996 0.744,0.991 0.760,0.984 0.776,0.976 0.792,0.967 0.808,0.956 0.825,0.945 0.841,0.933 0.857,0.921 0.873,0.909 0.889,0.898 0.905,0.887 0.922,0.876 0.938,0.867 0.954,0.858 0.970,0.851 0.986,0.845 1.003,0.841 1.019,0.838 1.035,0.837 1.051,0.837 1.067,0.839 1.083,0.843 1.100,0.848 1.116,0.854 1.132,0.862 1.148,0.871 1.164,0.881 1.180,0.892 1.197,0.903 1.213,0.915 1.229,0.927 1.245,0.939 1.261,0.950 1.277,0.961 1.294,0.971 1.310,0.980 1.326,0.987 1.342,0.993 1.358,0.997 1.374,1.000 1.391,1.000 1.407,0.998 1.423,0.995 1.439,0.990 1.455,0.983 1.471,0.975 1.488,0.965 1.504,0.955 1.520,0.943 1.536,0.932 1.552,0.920 1.568,0.908 1.585,0.896 1.601,0.885 1.617,0.875" />
<polyline points="0.000,1.000 0.016,0.998 0.032,0.992 0.049,0.983 0.065,0.970 0.081,0.955 0.097,0.937 0.113,0.916 0.129,0.894 0.146,0.871 0.162,0.847 0.178,0.823 0.194,0.800 0.210,0.776 0.226,0.754 0.243,0.733 0.259,0.714 0.275,0.696 0.291,0.681 0.307,0.667 0.323,0.655 0.340,0.646 0.356,0.639 0.372,0.635 0.388,0.633 0.404,0.633 0.420,0.636 0.437,0.641 0.453,0.648 0.469,0.658 0.485,0.670 0.501,0.684 0.517,0.701 0.534,0.719 0.550,0.739 0.566,0.760 0.582,0.782 0.598,0.806 0.614,0.830 0.631,0.854 0.647,0.877 0.663,0.900 0.679,0.922 0.695,0.942 0.711,0.959 0.728,0.974 0.744,0.986 0.760,0.994 0.776,0.999 0.792,1.000 0.808,0.997 0.825,0.990 0.841,0.980 0.857,0.967 0.873,0.950 0.889,0.931 0.905,0.911 0.922,0.888 0.938,0.865 0.954,0.841 0.970,0.817 0.986,0.793 1.003,0.771 1.019,0.749 1.035,0.728 1.051,0.709 1.067,0.692 1.083,0.677 1.100,0.664 1.116,0.653 1.132,0.644 1.148,0.638 1.164,0.634 1.180,0.632 1.197,0.633 1.213,0.637 1.229,0.643 1.245,0.651 1.261,0.661 1.277,0.674 1.294,0.689 1.310,0.705 1.326,0.724 1.342,0.744 1.358,0.766 1.374,0.788 1.391,0.812 1.407,0.836 1.423,0.860 1.439,0.883 1.455,0.906 1.471,0.927 1.488,0.946 1.504,0.963 1.520,0.977 1.536,0.988 1.552,0.996 1.568,1.000 1.585,0.999 1.601,0.996 1.617,0.988" />
<polyline points="0.000,1.000 0.016,0.997 0.032,0.987 0.049,0.972 0.065,0.951 0.081,0.925 0.097,0.895 0.113,0.861 0.129,0.825 0.146,0.787 0.162,0.748 0.178,0.708 0.194,0.668 0.210,0.628 0.226,0.590 0.243,0.552 0.259,0.516 0.275,0.482 0.291,0.449 0.307,0.417 0.323,0.388 0.340,0.360 0.356,0.334 0.372,0.310 0.388,0.287 0.404,0.266 0.420,0.246 0.437,0.228 0.453,0.211 0.469,0.195 0.485,0.180 0.501,0.166 0.517,0.154 0.534,0.142 0.550,0.131 0.566,0.121 0.582,0.112 0.598,0.103 0.614,0.095 0.631,0.088 0.647,0.081 0.663,0.075 0.679,0.069 0.695,0.064 0.711,0.059 0.728,0.055 0.744,0.050 0.760,0.047 0.776,0.043 0.792,0.040 0.808,0.037 0.825,0.034 0.841,0.031 0.857,0.029 0.873,0.027 0.889,0.025 0.905,0.023 0.922,0.021 0.938,0.019 0.954,0.018 0.970,0.016 0.986,0.015 1.003,0.014 1.019,0.013 1.035,0.012 1.051,0.011 1.067,0.010 1.083,0.009 1.100,0.009 1.116,0.008 1.132,0.007 1.148,0.007 1.164,0.006 1.180,0.006 1.197,0.005 1.213,0.005 1.229,0.005 1.245,0.004 1.261,0.004 1.277,0.004 1.294,0.003 1.310,0.003 1.326,0.003 1.342,0.003 1.358,0.002 1.374,0.002 1.391,0.002 1.407,0.002 1.423,0.002 1.439,0.002 1.455,0.001 1.471,0.001 1.488,0.001 1.504,0.001 1.520,0.001 1.536,0.001 1.552,0.001 1.568,0.001 1.585,0.001 1.601,0.001 1.617,0.001" />
</g>
</svg>