<svg xmlns="http://www.w3.org/2000/svg" width="161.8" height="100.0" viewBox="-4 -5 172 110">
<g fill="none" stroke="black" stroke-width="110.9950%" transform="translate(0, 100.0090) scale(0.0045, -0.0045)">
<circle cx="241" cy="1" r="111" />
<circle cx="482" cy="3" r="111" />
<circle cx="723" cy="8" r="111" />
<circle cx="964" cy="12" r="111" />
<circle cx="1205" cy="24" r="111" />
<circle cx="1446" cy="24" r="111" />
<circle cx="1687" cy="48" r="111" />
<circle cx="1929" cy="48" r="111" />
<circle cx="2170" cy="72" r="111" />
<circle cx="2411" cy="72" r="111" />
<circle cx="2652" cy="120" r="111" />
<circle cx="2893" cy="96" r="111" />
<circle cx="3134" cy="168" r="111" />
<circle cx="3375" cy="144" r="111" />
<circle cx="3616" cy="192" r="111" />
<circle cx="3857" cy="192" r="111" />
<circle cx="4098" cy="288" r="111" />
<circle cx="4339" cy="216" r="111" />
<circle cx="4580" cy="360" r="111" />
<circle cx="4821" cy="288" r="111" />
<circle cx="5062" cy="384" r="111" />
<circle cx="5303" cy="360" r="111" />
<circle cx="5545" cy="528" r="111" />
<circle cx="5786" cy="384" r="111" />
<circle cx="6027" cy="600" r="111" />
<circle cx="6268" cy="504" r="111" />
<circle cx="6509" cy="648" r="111" />
<circle cx="6750" cy="576" r="111" />
<circle cx="6991" cy="840" r="111" />
<circle cx="7232" cy="576" r="111" />
<circle cx="7473" cy="960" r="111" />
<circle cx="7714" cy="768" r="111" />
<circle cx="7955" cy="960" r="111" />
<circle cx="8196" cy="864" r="111" />
<circle cx="8437" cy="1152" r="111" />
<circle cx="8678" cy="864" r="111" />
<circle cx="8919" cy="1368" r="111" />
<circle cx="9160" cy="1080" r="111" />
<circle cx="9402" cy="1344" r="111" />
<circle cx="9643" cy="1152" r="111" />
<circle cx="9884" cy="1680" r="111" />
<circle cx="10125" cy="1152" r="111" />
<circle cx="10366" cy="1848" r="111" />
<circle cx="10607" cy="1440" r="111" />
<circle cx="10848" cy="1728" r="111" />
<circle cx="11089" cy="1584" r="111" />
<circle cx="11330" cy="2208" r="111" />
<circle cx="11571" cy="1536" r="111" />
<circle cx="11812" cy="2352" r="111" />
<circle cx="12053" cy="1800" r="111" />
<circle cx="12294" cy="2304" r="111" />
<circle cx="12535" cy="2016" r="111" />
<circle cx="12776" cy="2808" r="111" />
<circle cx="13018" cy="1944" r="111" />
<circle cx="13259" cy="2880" r="111" />
<circle cx="13500" cy="2304" r="111" />
<circle cx="13741" cy="2880" r="111" />
<circle cx="13982" cy="2520" r="111" />
<circle cx="14223" cy="3480" r="111" />
<circle cx="14464" cy="2304" r="111" />
<circle cx="14705" cy="3720" r="111" />
<circle cx="14946" cy="2880" r="111" />
<circle cx="15187" cy="3456" r="111" />
<circle cx="15428" cy="3072" r="111" />
<circle cx="15669" cy="4032" r="111" />
<circle cx="15910" cy="2880" r="111" />
<circle cx="16151" cy="4488" r="111" />
<circle cx="16392" cy="3456" r="111" />
<circle cx="16634" cy="4224" r="111" />
<circle cx="16875" cy="3456" r="111" />
<circle cx="17116" cy="5040" r="111" />
<circle cx="17357" cy="3456" r="111" />
<circle cx="17598" cy="5328" r="111" />
<circle cx="17839" cy="4104" r="111" />
<circle cx="18080" cy="4800" r="111" />
<circle cx="18321" cy="4320" r="111" />
<circle cx="18562" cy="5760" r="111" />
<circle cx="18803" cy="4032" r="111" />
<circle cx="19044" cy="6240" r="111" />
<circle cx="19285" cy="4608" r="111" />
<circle cx="19526" cy="5832" r="111" />
<circle cx="19767" cy="5040" r="111" />
<circle cx="20008" cy="6888" r="111" />
<circle cx="20249" cy="4608" r="111" />
<circle cx="20491" cy="6912" r="111" />
<circle cx="20732" cy="5544" r="111" />
<circle cx="20973" cy="6720" r="111" />
<circle cx="21214" cy="5760" r="111" />
<circle cx="21455" cy="7920" r="111" />
<circle cx="21696" cy="5184" r="111" />
<circle cx="21937" cy="8064" r="111" />
<circle cx="22178" cy="6336" r="111" />
<circle cx="22419" cy="7680" r="111" />
<circle cx="22660" cy="6624" r="111" />
<circle cx="22901" cy="8640" r="111" />
<circle cx="23142" cy="6144" r="111" />
<circle cx="23383" cy="9408" r="111" />
<circle cx="23624" cy="7056" r="111" />
<circle cx="23865" cy="8640" r="111" />
<circle cx="24107" cy="7200" r="111" />
<circle cx="24348" cy="10200" r="111" />
<circle cx="24589" cy="6912" r="111" />
<circle cx="24830" cy="10608" r="111" />
<circle cx="25071" cy="8064" r="111" />
<circle cx="25312" cy="9216" r="111" />
<circle cx="25553" cy="8424" r="111" />
<circle cx="25794" cy="11448" r="111" />
<circle cx="26035" cy="7776" r="111" />
<circle cx="26276" cy="11880" r="111" />
<circle cx="26517" cy="8640" r="111" />
<circle cx="26758" cy="10944" r="111" />
<circle cx="26999" cy="9216" r="111" />
<circle cx="27240" cy="12768" r="111" />
<circle cx="27481" cy="8640" r="111" />
<circle cx="27723" cy="12672" r="111" />
<circle cx="27964" cy="10080" r="111" />
<circle cx="28205" cy="12096" r="111" />
<circle cx="28446" cy="10440" r="111" />
<circle cx="28687" cy="13824" r="111" />
<circle cx="28928" cy="9216" r="111" />
<circle cx="29169" cy="14520" r="111" />
<circle cx="29410" cy="11160" r="111" />
<circle cx="29651" cy="13440" r="111" />
<circle cx="29892" cy="11520" r="111" />
<circle cx="30133" cy="15000" r="111" />
<circle cx="30374" cy="10368" r="111" />
<circle cx="30615" cy="16128" r="111" />
<circle cx="30856" cy="12288" r="111" />
<circle cx="31097" cy="14784" r="111" />
<circle cx="31338" cy="12096" r="111" />
<circle cx="31580" cy="17160" r="111" />
<circle cx="31821" cy="11520" r="111" />
<circle cx="32062" cy="17280" r="111" />
<circle cx="32303" cy="13464" r="111" />
<circle cx="32544" cy="15552" r="111" />
<circle cx="32785" cy="13824" r="111" />
<circle cx="33026" cy="18768" r="111" />
<circle cx="33267" cy="12672" r="111" />
<circle cx="33508" cy="19320" r="111" />
<circle cx="33749" cy="13824" r="111" />
<circle cx="33990" cy="17664" r="111" />
<circle cx="34231" cy="15120" r="111" />
<circle cx="34472" cy="20160" r="111" />
<circle cx="34713" cy="13824" r="111" />
<circle cx="34954" cy="20160" r="111" />
<circle cx="35196" cy="15984" r="111" />
<circle cx="35437" cy="18816" r="111" />
<circle cx="35678" cy="16416" r="111" />
<circle cx="35919" cy="22200" r="111" />
<circle cx="36160" cy="14400" r="111" />
</g>
</svg>