<svg xmlns="http://www.w3.org/2000/svg" width="159.4" height="100.0" viewBox="-3.1 -5.0 169.4 110.0">
<g fill="none" stroke="black" stroke-width="0.3400%" transform="translate(0, 100.0000) scale(1.4706, -1.4706)">
<line x1="1.3" y1="0.0" x2="1.3" y2="1.0" />
<line x1="2.6" y1="0.0" x2="2.6" y2="2.0" />
<line x1="3.9" y1="0.0" x2="3.9" y2="2.0" />
<line x1="5.2" y1="0.0" x2="5.2" y2="1.0" />
<line x1="6.5" y1="0.0" x2="6.5" y2="4.0" />
<line x1="7.7" y1="0.0" x2="7.7" y2="1.0" />
<line x1="9.0" y1="0.0" x2="9.0" y2="4.0" />
<line x1="10.3" y1="0.0" x2="10.3" y2="7.0" />
<line x1="11.6" y1="0.0" x2="11.6" y2="1.0" />
<line x1="12.9" y1="0.0" x2="12.9" y2="4.0" />
<line x1="14.2" y1="0.0" x2="14.2" y2="7.0" />
<line x1="15.5" y1="0.0" x2="15.5" y2="10.0" />
<line x1="16.8" y1="0.0" x2="16.8" y2="13.0" />
<line x1="18.1" y1="0.0" x2="18.1" y2="2.0" />
<line x1="19.4" y1="0.0" x2="19.4" y2="5.0" />
<line x1="20.6" y1="0.0" x2="20.6" y2="8.0" />
<line x1="21.9" y1="0.0" x2="21.9" y2="11.0" />
<line x1="23.2" y1="0.0" x2="23.2" y2="14.0" />
<line x1="24.5" y1="0.0" x2="24.5" y2="17.0" />
<line x1="25.8" y1="0.0" x2="25.8" y2="20.0" />
<line x1="27.1" y1="0.0" x2="27.1" y2="2.0" />
<line x1="28.4" y1="0.0" x2="28.4" y2="5.0" />
<line x1="29.7" y1="0.0" x2="29.7" y2="8.0" />
<line x1="31.0" y1="0.0" x2="31.0" y2="11.0" />
<line x1="32.3" y1="0.0" x2="32.3" y2="14.0" />
<line x1="33.6" y1="0.0" x2="33.6" y2="17.0" />
<line x1="34.8" y1="0.0" x2="34.8" y2="20.0" />
<line x1="36.1" y1="0.0" x2="36.1" y2="23.0" />
<line x1="37.4" y1="0.0" x2="37.4" y2="26.0" />
<line x1="38.7" y1="0.0" x2="38.7" y2="29.0" />
<line x1="40.0" y1="0.0" x2="40.0" y2="1.0" />
<line x1="41.3" y1="0.0" x2="41.3" y2="4.0" />
<line x1="42.6" y1="0.0" x2="42.6" y2="7.0" />
<line x1="43.9" y1="0.0" x2="43.9" y2="10.0" />
<line x1="45.2" y1="0.0" x2="45.2" y2="13.0" />
<line x1="46.5" y1="0.0" x2="46.5" y2="16.0" />
<line x1="47.8" y1="0.0" x2="47.8" y2="19.0" />
<line x1="49.0" y1="0.0" x2="49.0" y2="22.0" />
<line x1="50.3" y1="0.0" x2="50.3" y2="25.0" />
<line x1="51.6" y1="0.0" x2="51.6" y2="28.0" />
<line x1="52.9" y1="0.0" x2="52.9" y2="31.0" />
<line x1="54.2" y1="0.0" x2="54.2" y2="34.0" />
<line x1="55.5" y1="0.0" x2="55.5" y2="37.0" />
<line x1="56.8" y1="0.0" x2="56.8" y2="40.0" />
<line x1="58.1" y1="0.0" x2="58.1" y2="43.0" />
<line x1="59.4" y1="0.0" x2="59.4" y2="46.0" />
<line x1="60.7" y1="0.0" x2="60.7" y2="2.0" />
<line x1="61.9" y1="0.0" x2="61.9" y2="5.0" />
<line x1="63.2" y1="0.0" x2="63.2" y2="8.0" />
<line x1="64.5" y1="0.0" x2="64.5" y2="11.0" />
<line x1="65.8" y1="0.0" x2="65.8" y2="14.0" />
<line x1="67.1" y1="0.0" x2="67.1" y2="17.0" />
<line x1="68.4" y1="0.0" x2="68.4" y2="20.0" />
<line x1="69.7" y1="0.0" x2="69.7" y2="23.0" />
<line x1="71.0" y1="0.0" x2="71.0" y2="26.0" />
<line x1="72.3" y1="0.0" x2="72.3" y2="29.0" />
<line x1="73.6" y1="0.0" x2="73.6" y2="32.0" />
<line x1="74.9" y1="0.0" x2="74.9" y2="35.0" />
<line x1="76.1" y1="0.0" x2="76.1" y2="38.0" />
<line x1="77.4" y1="0.0" x2="77.4" y2="41.0" />
<line x1="78.7" y1="0.0" x2="78.7" y2="44.0" />
<line x1="80.0" y1="0.0" x2="80.0" y2="47.0" />
<line x1="81.3" y1="0.0" x2="81.3" y2="50.0" />
<line x1="82.6" y1="0.0" x2="82.6" y2="53.0" />
<line x1="83.9" y1="0.0" x2="83.9" y2="56.0" />
<line x1="85.2" y1="0.0" x2="85.2" y2="59.0" />
<line x1="86.5" y1="0.0" x2="86.5" y2="62.0" />
<line x1="87.8" y1="0.0" x2="87.8" y2="65.0" />
<line x1="89.0" y1="0.0" x2="89.0" y2="68.0" />
<line x1="90.3" y1="0.0" x2="90.3" y2="1.0" />
<line x1="91.6" y1="0.0" x2="91.6" y2="4.0" />
<line x1="92.9" y1="0.0" x2="92.9" y2="7.0" />
<line x1="94.2" y1="0.0" x2="94.2" y2="10.0" />
<line x1="95.5" y1="0.0" x2="95.5" y2="13.0" />
<line x1="96.8" y1="0.0" x2="96.8" y2="16.0" />
<line x1="98.1" y1="0.0" x2="98.1" y2="19.0" />
<line x1="99.4" y1="0.0" x2="99.4" y2="22.0" />
<line x1="100.7" y1="0.0" x2="100.7" y2="25.0" />
<line x1="102.0" y1="0.0" x2="102.0" y2="28.0" />
<line x1="103.2" y1="0.0" x2="103.2" y2="31.0" />
<line x1="104.5" y1="0.0" x2="104.5" y2="34.0" />
<line x1="105.8" y1="0.0" x2="105.8" y2="37.0" />
<line x1="107.1" y1="0.0" x2="107.1" y2="40.0" />
<line x1="108.4" y1="0.0" x2="108.4" y2="43.0" />
<line x1="109.7" y1="0.0" x2="109.7" y2="46.0" />
</g>
</svg>