<svg xmlns="http://www.w3.org/2000/svg" width="128.7" height="100.0" viewBox="4.189 -5.000 138.652 110.000">
<g fill="none" stroke="black" stroke-width="0.0050%" transform="translate(0, 100.0000) scale(100.0000, -100.0000)">
<line x1="0.092" y1="0.000" x2="0.092" y2="0.205" />
<line x1="0.184" y1="0.000" x2="0.184" y2="0.347" />
<line x1="0.276" y1="0.000" x2="0.276" y2="0.501" />
<line x1="0.368" y1="0.000" x2="0.368" y2="0.655" />
<line x1="0.459" y1="0.000" x2="0.459" y2="0.794" />
<line x1="0.551" y1="0.000" x2="0.551" y2="0.904" />
<line x1="0.643" y1="0.000" x2="0.643" y2="0.975" />
<line x1="0.735" y1="0.000" x2="0.735" y2="1.000" />
<line x1="0.827" y1="0.000" x2="0.827" y2="0.975" />
<line x1="0.919" y1="0.000" x2="0.919" y2="0.904" />
<line x1="1.011" y1="0.000" x2="1.011" y2="0.794" />
<line x1="1.103" y1="0.000" x2="1.103" y2="0.655" />
<line x1="1.195" y1="0.000" x2="1.195" y2="0.501" />
<line x1="1.287" y1="0.000" x2="1.287" y2="0.347" />
<line x1="1.378" y1="0.000" x2="1.378" y2="0.205" />
</g>
</svg>