<svg xmlns="http://www.w3.org/2000/svg" width="103.6" height="100.0" viewBox="-33.57 -24.28 113.59 110.00">
<g fill="none" stroke="black" stroke-width="0.1037%" transform="translate(0, 61.4458) scale(4.8193, -4.8193)">
<polyline points="0.57,-0.25 0.13,-0.50 -0.30,-0.75 -0.73,-1.00 -1.17,-1.25 -1.60,-1.50 -2.03,-1.75 -2.46,-2.00 -2.90,-2.25 -3.33,-2.50 -3.76,-2.75 -4.20,-3.00 -4.63,-3.25 -5.06,-3.50 -5.50,-3.75 -5.93,-4.00" />
<polyline points="1.57,-0.25 1.13,-0.50 0.70,-0.75 0.27,-1.00 -0.17,-1.25 -0.60,-1.50 -1.03,-1.75 -1.46,-2.00 -1.90,-2.25 -2.33,-2.50 -2.76,-2.75 -3.20,-3.00 -3.63,-3.25 -4.06,-3.50 -4.50,-3.75 -4.93,-4.00" />
<polyline points="2.57,-0.25 2.13,-0.50 1.70,-0.75 1.27,-1.00 0.83,-1.25 0.40,-1.50 -0.03,-1.75 -0.46,-2.00 -0.90,-2.25 -1.33,-2.50 -1.76,-2.75 -2.20,-3.00 -2.63,-3.25 -3.06,-3.50 -3.50,-3.75 -3.93,-4.00" />
<polyline points="3.57,-0.25 3.13,-0.50 2.70,-0.75 2.27,-1.00 1.83,-1.25 1.40,-1.50 0.97,-1.75 0.54,-2.00 0.10,-2.25 -0.33,-2.50 -0.76,-2.75 -1.20,-3.00 -1.63,-3.25 -2.06,-3.50 -2.50,-3.75 -2.93,-4.00" />
<polyline points="4.57,16.75 4.13,16.10 3.70,14.73 3.27,12.86 2.83,10.77 2.40,8.67 1.97,6.70 1.54,4.94 1.10,3.39 0.67,2.07 0.24,0.94 -0.20,-0.03 -0.63,-0.86 -1.06,-1.58 -1.50,-2.21 -1.93,-2.76" />
<polyline points="5.57,16.75 5.13,16.29 4.70,15.46 4.27,14.36 3.83,13.09 3.40,11.77 2.97,10.46 2.54,9.20 2.10,8.02 1.67,6.90 1.24,5.86 0.80,4.89 0.37,3.98 -0.06,3.13 -0.50,2.33 -0.93,1.58" />
<polyline points="6.57,16.75 6.13,16.43 5.70,15.96 5.27,15.40 4.83,14.77 4.40,14.10 3.97,13.42 3.54,12.74 3.10,12.07 2.67,11.41 2.24,10.77 1.80,10.14 1.37,9.52 0.94,8.91 0.50,8.32 0.07,7.73" />
<polyline points="7.57,16.75 7.13,16.49 6.70,16.22 6.27,15.93 5.83,15.64 5.40,15.34 4.97,15.04 4.54,14.74 4.10,14.44 3.67,14.14 3.24,13.83 2.80,13.53 2.37,13.23 1.94,12.93 1.50,12.63 1.07,12.34" />
<polyline points="8.57,16.75 8.13,16.49 7.70,16.22 7.27,15.93 6.83,15.64 6.40,15.34 5.97,15.04 5.54,14.74 5.10,14.44 4.67,14.14 4.24,13.83 3.80,13.53 3.37,13.23 2.94,12.93 2.50,12.63 2.07,12.34" />
<polyline points="9.57,16.75 9.13,16.43 8.70,15.96 8.27,15.40 7.83,14.77 7.40,14.10 6.97,13.42 6.54,12.74 6.10,12.07 5.67,11.41 5.24,10.77 4.80,10.14 4.37,9.52 3.94,8.91 3.50,8.32 3.07,7.73" />
<polyline points="10.57,16.75 10.13,16.29 9.70,15.46 9.27,14.36 8.83,13.09 8.40,11.77 7.97,10.46 7.54,9.20 7.10,8.02 6.67,6.90 6.24,5.86 5.80,4.89 5.37,3.98 4.94,3.13 4.50,2.33 4.07,1.58" />
<polyline points="11.57,16.75 11.13,16.10 10.70,14.73 10.27,12.86 9.83,10.77 9.40,8.67 8.97,6.70 8.54,4.94 8.10,3.39 7.67,2.07 7.24,0.94 6.80,-0.03 6.37,-0.86 5.94,-1.58 5.50,-2.21 5.07,-2.76" />
<polyline points="12.57,-0.25 12.13,-0.50 11.70,-0.75 11.27,-1.00 10.83,-1.25 10.40,-1.50 9.97,-1.75 9.54,-2.00 9.10,-2.25 8.67,-2.50 8.24,-2.75 7.80,-3.00 7.37,-3.25 6.94,-3.50 6.50,-3.75 6.07,-4.00" />
<polyline points="13.57,-0.25 13.13,-0.50 12.70,-0.75 12.27,-1.00 11.83,-1.25 11.40,-1.50 10.97,-1.75 10.54,-2.00 10.10,-2.25 9.67,-2.50 9.24,-2.75 8.80,-3.00 8.37,-3.25 7.94,-3.50 7.50,-3.75 7.07,-4.00" />
<polyline points="14.57,-0.25 14.13,-0.50 13.70,-0.75 13.27,-1.00 12.83,-1.25 12.40,-1.50 11.97,-1.75 11.54,-2.00 11.10,-2.25 10.67,-2.50 10.24,-2.75 9.80,-3.00 9.37,-3.25 8.94,-3.50 8.50,-3.75 8.07,-4.00" />
<polyline points="15.57,-0.25 15.13,-0.50 14.70,-0.75 14.27,-1.00 13.83,-1.25 13.40,-1.50 12.97,-1.75 12.54,-2.00 12.10,-2.25 11.67,-2.50 11.24,-2.75 10.80,-3.00 10.37,-3.25 9.94,-3.50 9.50,-3.75 9.07,-4.00" />
<polyline points="0.57,-0.25 1.57,-0.25 2.57,-0.25 3.57,-0.25 4.57,16.75 5.57,16.75 6.57,16.75 7.57,16.75 8.57,16.75 9.57,16.75 10.57,16.75 11.57,16.75 12.57,-0.25 13.57,-0.25 14.57,-0.25 15.57,-0.25" />
<polyline points="0.13,-0.50 1.13,-0.50 2.13,-0.50 3.13,-0.50 4.13,16.10 5.13,16.29 6.13,16.43 7.13,16.49 8.13,16.49 9.13,16.43 10.13,16.29 11.13,16.10 12.13,-0.50 13.13,-0.50 14.13,-0.50 15.13,-0.50" />
<polyline points="-0.30,-0.75 0.70,-0.75 1.70,-0.75 2.70,-0.75 3.70,14.73 4.70,15.46 5.70,15.96 6.70,16.22 7.70,16.22 8.70,15.96 9.70,15.46 10.70,14.73 11.70,-0.75 12.70,-0.75 13.70,-0.75 14.70,-0.75" />
<polyline points="-0.73,-1.00 0.27,-1.00 1.27,-1.00 2.27,-1.00 3.27,12.86 4.27,14.36 5.27,15.40 6.27,15.93 7.27,15.93 8.27,15.40 9.27,14.36 10.27,12.86 11.27,-1.00 12.27,-1.00 13.27,-1.00 14.27,-1.00" />
<polyline points="-1.17,-1.25 -0.17,-1.25 0.83,-1.25 1.83,-1.25 2.83,10.77 3.83,13.09 4.83,14.77 5.83,15.64 6.83,15.64 7.83,14.77 8.83,13.09 9.83,10.77 10.83,-1.25 11.83,-1.25 12.83,-1.25 13.83,-1.25" />
<polyline points="-1.60,-1.50 -0.60,-1.50 0.40,-1.50 1.40,-1.50 2.40,8.67 3.40,11.77 4.40,14.10 5.40,15.34 6.40,15.34 7.40,14.10 8.40,11.77 9.40,8.67 10.40,-1.50 11.40,-1.50 12.40,-1.50 13.40,-1.50" />
<polyline points="-2.03,-1.75 -1.03,-1.75 -0.03,-1.75 0.97,-1.75 1.97,6.70 2.97,10.46 3.97,13.42 4.97,15.04 5.97,15.04 6.97,13.42 7.97,10.46 8.97,6.70 9.97,-1.75 10.97,-1.75 11.97,-1.75 12.97,-1.75" />
<polyline points="-2.46,-2.00 -1.46,-2.00 -0.46,-2.00 0.54,-2.00 1.54,4.94 2.54,9.20 3.54,12.74 4.54,14.74 5.54,14.74 6.54,12.74 7.54,9.20 8.54,4.94 9.54,-2.00 10.54,-2.00 11.54,-2.00 12.54,-2.00" />
<polyline points="-2.90,-2.25 -1.90,-2.25 -0.90,-2.25 0.10,-2.25 1.10,3.39 2.10,8.02 3.10,12.07 4.10,14.44 5.10,14.44 6.10,12.07 7.10,8.02 8.10,3.39 9.10,-2.25 10.10,-2.25 11.10,-2.25 12.10,-2.25" />
<polyline points="-3.33,-2.50 -2.33,-2.50 -1.33,-2.50 -0.33,-2.50 0.67,2.07 1.67,6.90 2.67,11.41 3.67,14.14 4.67,14.14 5.67,11.41 6.67,6.90 7.67,2.07 8.67,-2.50 9.67,-2.50 10.67,-2.50 11.67,-2.50" />
<polyline points="-3.76,-2.75 -2.76,-2.75 -1.76,-2.75 -0.76,-2.75 0.24,0.94 1.24,5.86 2.24,10.77 3.24,13.83 4.24,13.83 5.24,10.77 6.24,5.86 7.24,0.94 8.24,-2.75 9.24,-2.75 10.24,-2.75 11.24,-2.75" />
<polyline points="-4.20,-3.00 -3.20,-3.00 -2.20,-3.00 -1.20,-3.00 -0.20,-0.03 0.80,4.89 1.80,10.14 2.80,13.53 3.80,13.53 4.80,10.14 5.80,4.89 6.80,-0.03 7.80,-3.00 8.80,-3.00 9.80,-3.00 10.80,-3.00" />
<polyline points="-4.63,-3.25 -3.63,-3.25 -2.63,-3.25 -1.63,-3.25 -0.63,-0.86 0.37,3.98 1.37,9.52 2.37,13.23 3.37,13.23 4.37,9.52 5.37,3.98 6.37,-0.86 7.37,-3.25 8.37,-3.25 9.37,-3.25 10.37,-3.25" />
<polyline points="-5.06,-3.50 -4.06,-3.50 -3.06,-3.50 -2.06,-3.50 -1.06,-1.58 -0.06,3.13 0.94,8.91 1.94,12.93 2.94,12.93 3.94,8.91 4.94,3.13 5.94,-1.58 6.94,-3.50 7.94,-3.50 8.94,-3.50 9.94,-3.50" />
<polyline points="-5.50,-3.75 -4.50,-3.75 -3.50,-3.75 -2.50,-3.75 -1.50,-2.21 -0.50,2.33 0.50,8.32 1.50,12.63 2.50,12.63 3.50,8.32 4.50,2.33 5.50,-2.21 6.50,-3.75 7.50,-3.75 8.50,-3.75 9.50,-3.75" />
<polyline points="-5.93,-4.00 -4.93,-4.00 -3.93,-4.00 -2.93,-4.00 -1.93,-2.76 -0.93,1.58 0.07,7.73 1.07,12.34 2.07,12.34 3.07,7.73 4.07,1.58 5.07,-2.76 6.07,-4.00 7.07,-4.00 8.07,-4.00 9.07,-4.00" />
</g>
</svg>