<svg xmlns="http://www.w3.org/2000/svg" width="239.7" height="100.0" viewBox="-73.31 -48.64 249.70 110.00">
<g fill="none" stroke="black" stroke-width="0.0688%" transform="translate(0, 12.7273) scale(7.2727, -7.2727)">
<polyline points="0.57,-0.25 0.13,-0.50 -0.30,-0.75 -0.73,-1.00 -1.17,-1.25 -1.60,-1.50 -2.03,-1.75 -2.46,-2.00 -2.90,-2.25 -3.33,-2.50 -3.76,-2.75 -4.20,-3.00 -4.63,-3.25 -5.06,-3.50 -5.50,-3.75 -5.93,-4.00 -6.36,-4.25 -6.79,-4.50 -7.23,-4.75 -7.66,-5.00 -8.09,-5.25 -8.53,-5.50 -8.96,-5.75 -9.39,-6.00" />
<polyline points="1.57,-0.25 1.13,-0.50 0.70,-0.75 0.27,-1.00 -0.17,-1.25 -0.60,-1.50 -1.03,-1.75 -1.46,-2.00 -1.90,-2.25 -2.33,-2.50 -2.76,-2.75 -3.20,-3.00 -3.63,-3.25 -4.06,-3.50 -4.50,-3.75 -4.93,-4.00 -5.36,-4.25 -5.79,-4.50 -6.23,-4.75 -6.66,-5.00 -7.09,-5.25 -7.53,-5.50 -7.96,-5.75 -8.39,-6.00" />
<polyline points="2.57,-0.25 2.13,-0.50 1.70,-0.75 1.27,-1.00 0.83,-1.25 0.40,-1.50 -0.03,-1.75 -0.46,-2.00 -0.90,-2.25 -1.33,-2.50 -1.76,-2.75 -2.20,-3.00 -2.63,-3.25 -3.06,-3.50 -3.50,-3.75 -3.93,-4.00 -4.36,-4.25 -4.79,-4.50 -5.23,-4.75 -5.66,-5.00 -6.09,-5.25 -6.53,-5.50 -6.96,-5.75 -7.39,-6.00" />
<polyline points="3.57,-0.25 3.13,-0.50 2.70,-0.75 2.27,-1.00 1.83,-1.25 1.40,-1.50 0.97,-1.75 0.54,-2.00 0.10,-2.25 -0.33,-2.50 -0.76,-2.75 -1.20,-3.00 -1.63,-3.25 -2.06,-3.50 -2.50,-3.75 -2.93,-4.00 -3.36,-4.25 -3.79,-4.50 -4.23,-4.75 -4.66,-5.00 -5.09,-5.25 -5.53,-5.50 -5.96,-5.75 -6.39,-6.00" />
<polyline points="4.57,-0.25 4.13,-0.50 3.70,-0.75 3.27,-1.00 2.83,-1.25 2.40,-1.50 1.97,-1.75 1.54,-2.00 1.10,-2.25 0.67,-2.50 0.24,-2.75 -0.20,-3.00 -0.63,-3.25 -1.06,-3.50 -1.50,-3.75 -1.93,-4.00 -2.36,-4.25 -2.79,-4.50 -3.23,-4.75 -3.66,-5.00 -4.09,-5.25 -4.53,-5.50 -4.96,-5.75 -5.39,-6.00" />
<polyline points="5.57,-0.25 5.13,-0.50 4.70,-0.75 4.27,-1.00 3.83,-1.25 3.40,-1.50 2.97,-1.75 2.54,-2.00 2.10,-2.25 1.67,-2.50 1.24,-2.75 0.80,-3.00 0.37,-3.25 -0.06,-3.50 -0.50,-3.75 -0.93,-4.00 -1.36,-4.25 -1.79,-4.50 -2.23,-4.75 -2.66,-5.00 -3.09,-5.25 -3.53,-5.50 -3.96,-5.75 -4.39,-6.00" />
<polyline points="6.57,7.75 6.13,7.41 5.70,6.92 5.27,6.28 4.83,5.53 4.40,4.72 3.97,3.88 3.54,3.03 3.10,2.21 2.67,1.42 2.24,0.67 1.80,-0.03 1.37,-0.68 0.94,-1.28 0.50,-1.84 0.07,-2.36 -0.36,-2.84 -0.79,-3.29 -1.23,-3.72 -1.66,-4.12 -2.09,-4.49 -2.53,-4.85 -2.96,-5.20 -3.39,-5.53" />
<polyline points="7.57,7.75 7.13,7.44 6.70,7.03 6.27,6.51 5.83,5.93 5.40,5.29 4.97,4.61 4.54,3.93 4.10,3.25 3.67,2.59 3.24,1.94 2.80,1.32 2.37,0.72 1.94,0.15 1.50,-0.40 1.07,-0.92 0.64,-1.42 0.21,-1.90 -0.23,-2.36 -0.66,-2.80 -1.09,-3.23 -1.53,-3.64 -1.96,-4.04 -2.39,-4.43" />
<polyline points="8.57,7.75 8.13,7.47 7.70,7.11 7.27,6.70 6.83,6.25 6.40,5.75 5.97,5.24 5.54,4.71 5.10,4.18 4.67,3.65 4.24,3.12 3.80,2.61 3.37,2.10 2.94,1.61 2.50,1.13 2.07,0.66 1.64,0.20 1.21,-0.25 0.77,-0.70 0.34,-1.13 -0.09,-1.55 -0.53,-1.97 -0.96,-2.37 -1.39,-2.77" />
<polyline points="9.57,7.75 9.13,7.48 8.70,7.18 8.27,6.85 7.83,6.49 7.40,6.11 6.97,5.72 6.54,5.33 6.10,4.92 5.67,4.52 5.24,4.11 4.80,3.71 4.37,3.31 3.94,2.92 3.50,2.53 3.07,2.14 2.64,1.75 2.21,1.37 1.77,0.99 1.34,0.62 0.91,0.25 0.47,-0.12 0.04,-0.49 -0.39,-0.85" />
<polyline points="10.57,7.75 10.13,7.49 9.70,7.22 9.27,6.95 8.83,6.66 8.40,6.36 7.97,6.06 7.54,5.75 7.10,5.45 6.67,5.14 6.24,4.83 5.80,4.52 5.37,4.21 4.94,3.90 4.50,3.60 4.07,3.29 3.64,2.98 3.21,2.68 2.77,2.37 2.34,2.07 1.91,1.76 1.47,1.46 1.04,1.16 0.61,0.86" />
<polyline points="11.57,7.75 11.13,7.50 10.70,7.25 10.27,6.99 9.83,6.74 9.40,6.48 8.97,6.23 8.54,5.97 8.10,5.72 7.67,5.46 7.24,5.20 6.80,4.95 6.37,4.69 5.94,4.43 5.50,4.18 5.07,3.92 4.64,3.66 4.21,3.41 3.77,3.15 3.34,2.89 2.91,2.64 2.47,2.38 2.04,2.12 1.61,1.87" />
<polyline points="12.57,7.75 12.13,7.50 11.70,7.25 11.27,6.99 10.83,6.74 10.40,6.48 9.97,6.23 9.54,5.97 9.10,5.72 8.67,5.46 8.24,5.20 7.80,4.95 7.37,4.69 6.94,4.43 6.50,4.18 6.07,3.92 5.64,3.66 5.21,3.41 4.77,3.15 4.34,2.89 3.91,2.64 3.47,2.38 3.04,2.12 2.61,1.87" />
<polyline points="13.57,7.75 13.13,7.49 12.70,7.22 12.27,6.95 11.83,6.66 11.40,6.36 10.97,6.06 10.54,5.75 10.10,5.45 9.67,5.14 9.24,4.83 8.80,4.52 8.37,4.21 7.94,3.90 7.50,3.60 7.07,3.29 6.64,2.98 6.21,2.68 5.77,2.37 5.34,2.07 4.91,1.76 4.47,1.46 4.04,1.16 3.61,0.86" />
<polyline points="14.57,7.75 14.13,7.48 13.70,7.18 13.27,6.85 12.83,6.49 12.40,6.11 11.97,5.72 11.54,5.33 11.10,4.92 10.67,4.52 10.24,4.11 9.80,3.71 9.37,3.31 8.94,2.92 8.50,2.53 8.07,2.14 7.64,1.75 7.21,1.37 6.77,0.99 6.34,0.62 5.91,0.25 5.47,-0.12 5.04,-0.49 4.61,-0.85" />
<polyline points="15.57,7.75 15.13,7.47 14.70,7.11 14.27,6.70 13.83,6.25 13.40,5.75 12.97,5.24 12.54,4.71 12.10,4.18 11.67,3.65 11.24,3.12 10.80,2.61 10.37,2.10 9.94,1.61 9.50,1.13 9.07,0.66 8.64,0.20 8.21,-0.25 7.77,-0.70 7.34,-1.13 6.91,-1.55 6.47,-1.97 6.04,-2.37 5.61,-2.77" />
<polyline points="16.57,7.75 16.13,7.44 15.70,7.03 15.27,6.51 14.83,5.93 14.40,5.29 13.97,4.61 13.54,3.93 13.10,3.25 12.67,2.59 12.24,1.94 11.80,1.32 11.37,0.72 10.94,0.15 10.50,-0.40 10.07,-0.92 9.64,-1.42 9.21,-1.90 8.77,-2.36 8.34,-2.80 7.91,-3.23 7.47,-3.64 7.04,-4.04 6.61,-4.43" />
<polyline points="17.57,7.75 17.13,7.41 16.70,6.92 16.27,6.28 15.83,5.53 15.40,4.72 14.97,3.88 14.54,3.03 14.10,2.21 13.67,1.42 13.24,0.67 12.80,-0.03 12.37,-0.68 11.94,-1.28 11.50,-1.84 11.07,-2.36 10.64,-2.84 10.21,-3.29 9.77,-3.72 9.34,-4.12 8.91,-4.49 8.47,-4.85 8.04,-5.20 7.61,-5.53" />
<polyline points="18.57,-0.25 18.13,-0.50 17.70,-0.75 17.27,-1.00 16.83,-1.25 16.40,-1.50 15.97,-1.75 15.54,-2.00 15.10,-2.25 14.67,-2.50 14.24,-2.75 13.80,-3.00 13.37,-3.25 12.94,-3.50 12.50,-3.75 12.07,-4.00 11.64,-4.25 11.21,-4.50 10.77,-4.75 10.34,-5.00 9.91,-5.25 9.47,-5.50 9.04,-5.75 8.61,-6.00" />
<polyline points="19.57,-0.25 19.13,-0.50 18.70,-0.75 18.27,-1.00 17.83,-1.25 17.40,-1.50 16.97,-1.75 16.54,-2.00 16.10,-2.25 15.67,-2.50 15.24,-2.75 14.80,-3.00 14.37,-3.25 13.94,-3.50 13.50,-3.75 13.07,-4.00 12.64,-4.25 12.21,-4.50 11.77,-4.75 11.34,-5.00 10.91,-5.25 10.47,-5.50 10.04,-5.75 9.61,-6.00" />
<polyline points="20.57,-0.25 20.13,-0.50 19.70,-0.75 19.27,-1.00 18.83,-1.25 18.40,-1.50 17.97,-1.75 17.54,-2.00 17.10,-2.25 16.67,-2.50 16.24,-2.75 15.80,-3.00 15.37,-3.25 14.94,-3.50 14.50,-3.75 14.07,-4.00 13.64,-4.25 13.21,-4.50 12.77,-4.75 12.34,-5.00 11.91,-5.25 11.47,-5.50 11.04,-5.75 10.61,-6.00" />
<polyline points="21.57,-0.25 21.13,-0.50 20.70,-0.75 20.27,-1.00 19.83,-1.25 19.40,-1.50 18.97,-1.75 18.54,-2.00 18.10,-2.25 17.67,-2.50 17.24,-2.75 16.80,-3.00 16.37,-3.25 15.94,-3.50 15.50,-3.75 15.07,-4.00 14.64,-4.25 14.21,-4.50 13.77,-4.75 13.34,-5.00 12.91,-5.25 12.47,-5.50 12.04,-5.75 11.61,-6.00" />
<polyline points="22.57,-0.25 22.13,-0.50 21.70,-0.75 21.27,-1.00 20.83,-1.25 20.40,-1.50 19.97,-1.75 19.54,-2.00 19.10,-2.25 18.67,-2.50 18.24,-2.75 17.80,-3.00 17.37,-3.25 16.94,-3.50 16.50,-3.75 16.07,-4.00 15.64,-4.25 15.21,-4.50 14.77,-4.75 14.34,-5.00 13.91,-5.25 13.47,-5.50 13.04,-5.75 12.61,-6.00" />
<polyline points="23.57,-0.25 23.13,-0.50 22.70,-0.75 22.27,-1.00 21.83,-1.25 21.40,-1.50 20.97,-1.75 20.54,-2.00 20.10,-2.25 19.67,-2.50 19.24,-2.75 18.80,-3.00 18.37,-3.25 17.94,-3.50 17.50,-3.75 17.07,-4.00 16.64,-4.25 16.21,-4.50 15.77,-4.75 15.34,-5.00 14.91,-5.25 14.47,-5.50 14.04,-5.75 13.61,-6.00" />
<polyline points="0.57,-0.25 1.57,-0.25 2.57,-0.25 3.57,-0.25 4.57,-0.25 5.57,-0.25 6.57,7.75 7.57,7.75 8.57,7.75 9.57,7.75 10.57,7.75 11.57,7.75 12.57,7.75 13.57,7.75 14.57,7.75 15.57,7.75 16.57,7.75 17.57,7.75 18.57,-0.25 19.57,-0.25 20.57,-0.25 21.57,-0.25 22.57,-0.25 23.57,-0.25" />
<polyline points="0.13,-0.50 1.13,-0.50 2.13,-0.50 3.13,-0.50 4.13,-0.50 5.13,-0.50 6.13,7.41 7.13,7.44 8.13,7.47 9.13,7.48 10.13,7.49 11.13,7.50 12.13,7.50 13.13,7.49 14.13,7.48 15.13,7.47 16.13,7.44 17.13,7.41 18.13,-0.50 19.13,-0.50 20.13,-0.50 21.13,-0.50 22.13,-0.50 23.13,-0.50" />
<polyline points="-0.30,-0.75 0.70,-0.75 1.70,-0.75 2.70,-0.75 3.70,-0.75 4.70,-0.75 5.70,6.92 6.70,7.03 7.70,7.11 8.70,7.18 9.70,7.22 10.70,7.25 11.70,7.25 12.70,7.22 13.70,7.18 14.70,7.11 15.70,7.03 16.70,6.92 17.70,-0.75 18.70,-0.75 19.70,-0.75 20.70,-0.75 21.70,-0.75 22.70,-0.75" />
<polyline points="-0.73,-1.00 0.27,-1.00 1.27,-1.00 2.27,-1.00 3.27,-1.00 4.27,-1.00 5.27,6.28 6.27,6.51 7.27,6.70 8.27,6.85 9.27,6.95 10.27,6.99 11.27,6.99 12.27,6.95 13.27,6.85 14.27,6.70 15.27,6.51 16.27,6.28 17.27,-1.00 18.27,-1.00 19.27,-1.00 20.27,-1.00 21.27,-1.00 22.27,-1.00" />
<polyline points="-1.17,-1.25 -0.17,-1.25 0.83,-1.25 1.83,-1.25 2.83,-1.25 3.83,-1.25 4.83,5.53 5.83,5.93 6.83,6.25 7.83,6.49 8.83,6.66 9.83,6.74 10.83,6.74 11.83,6.66 12.83,6.49 13.83,6.25 14.83,5.93 15.83,5.53 16.83,-1.25 17.83,-1.25 18.83,-1.25 19.83,-1.25 20.83,-1.25 21.83,-1.25" />
<polyline points="-1.60,-1.50 -0.60,-1.50 0.40,-1.50 1.40,-1.50 2.40,-1.50 3.40,-1.50 4.40,4.72 5.40,5.29 6.40,5.75 7.40,6.11 8.40,6.36 9.40,6.48 10.40,6.48 11.40,6.36 12.40,6.11 13.40,5.75 14.40,5.29 15.40,4.72 16.40,-1.50 17.40,-1.50 18.40,-1.50 19.40,-1.50 20.40,-1.50 21.40,-1.50" />
<polyline points="-2.03,-1.75 -1.03,-1.75 -0.03,-1.75 0.97,-1.75 1.97,-1.75 2.97,-1.75 3.97,3.88 4.97,4.61 5.97,5.24 6.97,5.72 7.97,6.06 8.97,6.23 9.97,6.23 10.97,6.06 11.97,5.72 12.97,5.24 13.97,4.61 14.97,3.88 15.97,-1.75 16.97,-1.75 17.97,-1.75 18.97,-1.75 19.97,-1.75 20.97,-1.75" />
<polyline points="-2.46,-2.00 -1.46,-2.00 -0.46,-2.00 0.54,-2.00 1.54,-2.00 2.54,-2.00 3.54,3.03 4.54,3.93 5.54,4.71 6.54,5.33 7.54,5.75 8.54,5.97 9.54,5.97 10.54,5.75 11.54,5.33 12.54,4.71 13.54,3.93 14.54,3.03 15.54,-2.00 16.54,-2.00 17.54,-2.00 18.54,-2.00 19.54,-2.00 20.54,-2.00" />
<polyline points="-2.90,-2.25 -1.90,-2.25 -0.90,-2.25 0.10,-2.25 1.10,-2.25 2.10,-2.25 3.10,2.21 4.10,3.25 5.10,4.18 6.10,4.92 7.10,5.45 8.10,5.72 9.10,5.72 10.10,5.45 11.10,4.92 12.10,4.18 13.10,3.25 14.10,2.21 15.10,-2.25 16.10,-2.25 17.10,-2.25 18.10,-2.25 19.10,-2.25 20.10,-2.25" />
<polyline points="-3.33,-2.50 -2.33,-2.50 -1.33,-2.50 -0.33,-2.50 0.67,-2.50 1.67,-2.50 2.67,1.42 3.67,2.59 4.67,3.65 5.67,4.52 6.67,5.14 7.67,5.46 8.67,5.46 9.67,5.14 10.67,4.52 11.67,3.65 12.67,2.59 13.67,1.42 14.67,-2.50 15.67,-2.50 16.67,-2.50 17.67,-2.50 18.67,-2.50 19.67,-2.50" />
<polyline points="-3.76,-2.75 -2.76,-2.75 -1.76,-2.75 -0.76,-2.75 0.24,-2.75 1.24,-2.75 2.24,0.67 3.24,1.94 4.24,3.12 5.24,4.11 6.24,4.83 7.24,5.20 8.24,5.20 9.24,4.83 10.24,4.11 11.24,3.12 12.24,1.94 13.24,0.67 14.24,-2.75 15.24,-2.75 16.24,-2.75 17.24,-2.75 18.24,-2.75 19.24,-2.75" />
<polyline points="-4.20,-3.00 -3.20,-3.00 -2.20,-3.00 -1.20,-3.00 -0.20,-3.00 0.80,-3.00 1.80,-0.03 2.80,1.32 3.80,2.61 4.80,3.71 5.80,4.52 6.80,4.95 7.80,4.95 8.80,4.52 9.80,3.71 10.80,2.61 11.80,1.32 12.80,-0.03 13.80,-3.00 14.80,-3.00 15.80,-3.00 16.80,-3.00 17.80,-3.00 18.80,-3.00" />
<polyline points="-4.63,-3.25 -3.63,-3.25 -2.63,-3.25 -1.63,-3.25 -0.63,-3.25 0.37,-3.25 1.37,-0.68 2.37,0.72 3.37,2.10 4.37,3.31 5.37,4.21 6.37,4.69 7.37,4.69 8.37,4.21 9.37,3.31 10.37,2.10 11.37,0.72 12.37,-0.68 13.37,-3.25 14.37,-3.25 15.37,-3.25 16.37,-3.25 17.37,-3.25 18.37,-3.25" />
<polyline points="-5.06,-3.50 -4.06,-3.50 -3.06,-3.50 -2.06,-3.50 -1.06,-3.50 -0.06,-3.50 0.94,-1.28 1.94,0.15 2.94,1.61 3.94,2.92 4.94,3.90 5.94,4.43 6.94,4.43 7.94,3.90 8.94,2.92 9.94,1.61 10.94,0.15 11.94,-1.28 12.94,-3.50 13.94,-3.50 14.94,-3.50 15.94,-3.50 16.94,-3.50 17.94,-3.50" />
<polyline points="-5.50,-3.75 -4.50,-3.75 -3.50,-3.75 -2.50,-3.75 -1.50,-3.75 -0.50,-3.75 0.50,-1.84 1.50,-0.40 2.50,1.13 3.50,2.53 4.50,3.60 5.50,4.18 6.50,4.18 7.50,3.60 8.50,2.53 9.50,1.13 10.50,-0.40 11.50,-1.84 12.50,-3.75 13.50,-3.75 14.50,-3.75 15.50,-3.75 16.50,-3.75 17.50,-3.75" />
<polyline points="-5.93,-4.00 -4.93,-4.00 -3.93,-4.00 -2.93,-4.00 -1.93,-4.00 -0.93,-4.00 0.07,-2.36 1.07,-0.92 2.07,0.66 3.07,2.14 4.07,3.29 5.07,3.92 6.07,3.92 7.07,3.29 8.07,2.14 9.07,0.66 10.07,-0.92 11.07,-2.36 12.07,-4.00 13.07,-4.00 14.07,-4.00 15.07,-4.00 16.07,-4.00 17.07,-4.00" />
<polyline points="-6.36,-4.25 -5.36,-4.25 -4.36,-4.25 -3.36,-4.25 -2.36,-4.25 -1.36,-4.25 -0.36,-2.84 0.64,-1.42 1.64,0.20 2.64,1.75 3.64,2.98 4.64,3.66 5.64,3.66 6.64,2.98 7.64,1.75 8.64,0.20 9.64,-1.42 10.64,-2.84 11.64,-4.25 12.64,-4.25 13.64,-4.25 14.64,-4.25 15.64,-4.25 16.64,-4.25" />
<polyline points="-6.79,-4.50 -5.79,-4.50 -4.79,-4.50 -3.79,-4.50 -2.79,-4.50 -1.79,-4.50 -0.79,-3.29 0.21,-1.90 1.21,-0.25 2.21,1.37 3.21,2.68 4.21,3.41 5.21,3.41 6.21,2.68 7.21,1.37 8.21,-0.25 9.21,-1.90 10.21,-3.29 11.21,-4.50 12.21,-4.50 13.21,-4.50 14.21,-4.50 15.21,-4.50 16.21,-4.50" />
<polyline points="-7.23,-4.75 -6.23,-4.75 -5.23,-4.75 -4.23,-4.75 -3.23,-4.75 -2.23,-4.75 -1.23,-3.72 -0.23,-2.36 0.77,-0.70 1.77,0.99 2.77,2.37 3.77,3.15 4.77,3.15 5.77,2.37 6.77,0.99 7.77,-0.70 8.77,-2.36 9.77,-3.72 10.77,-4.75 11.77,-4.75 12.77,-4.75 13.77,-4.75 14.77,-4.75 15.77,-4.75" />
<polyline points="-7.66,-5.00 -6.66,-5.00 -5.66,-5.00 -4.66,-5.00 -3.66,-5.00 -2.66,-5.00 -1.66,-4.12 -0.66,-2.80 0.34,-1.13 1.34,0.62 2.34,2.07 3.34,2.89 4.34,2.89 5.34,2.07 6.34,0.62 7.34,-1.13 8.34,-2.80 9.34,-4.12 10.34,-5.00 11.34,-5.00 12.34,-5.00 13.34,-5.00 14.34,-5.00 15.34,-5.00" />
<polyline points="-8.09,-5.25 -7.09,-5.25 -6.09,-5.25 -5.09,-5.25 -4.09,-5.25 -3.09,-5.25 -2.09,-4.49 -1.09,-3.23 -0.09,-1.55 0.91,0.25 1.91,1.76 2.91,2.64 3.91,2.64 4.91,1.76 5.91,0.25 6.91,-1.55 7.91,-3.23 8.91,-4.49 9.91,-5.25 10.91,-5.25 11.91,-5.25 12.91,-5.25 13.91,-5.25 14.91,-5.25" />
<polyline points="-8.53,-5.50 -7.53,-5.50 -6.53,-5.50 -5.53,-5.50 -4.53,-5.50 -3.53,-5.50 -2.53,-4.85 -1.53,-3.64 -0.53,-1.97 0.47,-0.12 1.47,1.46 2.47,2.38 3.47,2.38 4.47,1.46 5.47,-0.12 6.47,-1.97 7.47,-3.64 8.47,-4.85 9.47,-5.50 10.47,-5.50 11.47,-5.50 12.47,-5.50 13.47,-5.50 14.47,-5.50" />
<polyline points="-8.96,-5.75 -7.96,-5.75 -6.96,-5.75 -5.96,-5.75 -4.96,-5.75 -3.96,-5.75 -2.96,-5.20 -1.96,-4.04 -0.96,-2.37 0.04,-0.49 1.04,1.16 2.04,2.12 3.04,2.12 4.04,1.16 5.04,-0.49 6.04,-2.37 7.04,-4.04 8.04,-5.20 9.04,-5.75 10.04,-5.75 11.04,-5.75 12.04,-5.75 13.04,-5.75 14.04,-5.75" />
<polyline points="-9.39,-6.00 -8.39,-6.00 -7.39,-6.00 -6.39,-6.00 -5.39,-6.00 -4.39,-6.00 -3.39,-5.53 -2.39,-4.43 -1.39,-2.77 -0.39,-0.85 0.61,0.86 1.61,1.87 2.61,1.87 3.61,0.86 4.61,-0.85 5.61,-2.77 6.61,-4.43 7.61,-5.53 8.61,-6.00 9.61,-6.00 10.61,-6.00 11.61,-6.00 12.61,-6.00 13.61,-6.00" />
</g>
</svg>