<?xml version="1.0" encoding="UTF-8" standalone="no"?>
<!DOCTYPE svg PUBLIC "-//W3C//DTD SVG 1.1//EN"
 "http://www.w3.org/Graphics/SVG/1.1/DTD/svg11.dtd">
<!-- Generated by graphviz version 12.0.0 (0)
 -->
<!-- Pages: 1 -->
<svg width="59pt" height="54pt"
 viewBox="0.00 0.00 59.23 54.00" xmlns="http://www.w3.org/2000/svg" xmlns:xlink="http://www.w3.org/1999/xlink">
<g id="graph0" class="graph" transform="scale(0.594714 0.594714) rotate(0) translate(4 86.8)">
<!-- 1 -->
<g id="node1" class="node">
<title>1</title>
<ellipse fill="black" stroke="black" cx="56.8" cy="-81" rx="1.8" ry="1.8"/>
</g>
<!-- 2 -->
<g id="node2" class="node">
<title>2</title>
<ellipse fill="black" stroke="black" cx="23.8" cy="-41.4" rx="1.8" ry="1.8"/>
</g>
<!-- 1&#45;&gt;2 -->
<g id="edge1" class="edge">
<title>1&#45;&gt;2</title>
<path fill="none" stroke="black" stroke-width="0.75" d="M55.98,-79.07C52.17,-74.73 35.95,-56.25 28.1,-47.3"/>
<polygon fill="black" stroke="black" stroke-width="0.75" points="29.84,-46.62 25.22,-44.02 27.21,-48.93 29.84,-46.62"/>
</g>
<!-- 6 -->
<g id="node6" class="node">
<title>6</title>
<ellipse fill="black" stroke="black" cx="45.8" cy="-41.4" rx="1.8" ry="1.8"/>
</g>
<!-- 1&#45;&gt;6 -->
<g id="edge2" class="edge">
<title>1&#45;&gt;6</title>
<path fill="none" stroke="black" stroke-width="0.75" d="M56.43,-78.75C55.1,-74.18 50.41,-58.16 47.73,-48.98"/>
<polygon fill="black" stroke="black" stroke-width="0.75" points="49.42,-48.54 46.34,-44.23 46.06,-49.52 49.42,-48.54"/>
</g>
<!-- 7 -->
<g id="node7" class="node">
<title>7</title>
<ellipse fill="black" stroke="black" cx="67.8" cy="-41.4" rx="1.8" ry="1.8"/>
</g>
<!-- 1&#45;&gt;7 -->
<g id="edge3" class="edge">
<title>1&#45;&gt;7</title>
<path fill="none" stroke="black" stroke-width="0.75" d="M57.17,-78.75C58.5,-74.18 63.19,-58.16 65.87,-48.98"/>
<polygon fill="black" stroke="black" stroke-width="0.75" points="67.54,-49.52 67.26,-44.23 64.18,-48.54 67.54,-49.52"/>
</g>
<!-- 8 -->
<g id="node8" class="node">
<title>8</title>
<ellipse fill="black" stroke="black" cx="89.8" cy="-41.4" rx="1.8" ry="1.8"/>
</g>
<!-- 1&#45;&gt;8 -->
<g id="edge4" class="edge">
<title>1&#45;&gt;8</title>
<path fill="none" stroke="black" stroke-width="0.75" d="M57.62,-79.07C61.43,-74.73 77.65,-56.25 85.5,-47.3"/>
<polygon fill="black" stroke="black" stroke-width="0.75" points="86.39,-48.93 88.38,-44.02 83.76,-46.62 86.39,-48.93"/>
</g>
<!-- 3 -->
<g id="node3" class="node">
<title>3</title>
<ellipse fill="black" stroke="black" cx="1.8" cy="-1.8" rx="1.8" ry="1.8"/>
</g>
<!-- 2&#45;&gt;3 -->
<g id="edge5" class="edge">
<title>2&#45;&gt;3</title>
<path fill="none" stroke="black" stroke-width="0.75" d="M23.26,-39.47C20.81,-35.29 10.71,-18.02 5.28,-8.75"/>
<polygon fill="black" stroke="black" stroke-width="0.75" points="6.86,-7.98 2.82,-4.55 3.84,-9.75 6.86,-7.98"/>
</g>
<!-- 4 -->
<g id="node4" class="node">
<title>4</title>
<ellipse fill="black" stroke="black" cx="23.8" cy="-1.8" rx="1.8" ry="1.8"/>
</g>
<!-- 2&#45;&gt;4 -->
<g id="edge6" class="edge">
<title>2&#45;&gt;4</title>
<path fill="none" stroke="black" stroke-width="0.75" d="M23.8,-39.15C23.8,-34.69 23.8,-19.34 23.8,-10.07"/>
<polygon fill="black" stroke="black" stroke-width="0.75" points="25.55,-10.23 23.8,-5.23 22.05,-10.23 25.55,-10.23"/>
</g>
<!-- 5 -->
<g id="node5" class="node">
<title>5</title>
<ellipse fill="black" stroke="black" cx="45.8" cy="-1.8" rx="1.8" ry="1.8"/>
</g>
<!-- 2&#45;&gt;5 -->
<g id="edge7" class="edge">
<title>2&#45;&gt;5</title>
<path fill="none" stroke="black" stroke-width="0.75" d="M24.34,-39.47C26.79,-35.29 36.89,-18.02 42.32,-8.75"/>
<polygon fill="black" stroke="black" stroke-width="0.75" points="43.76,-9.75 44.78,-4.55 40.74,-7.98 43.76,-9.75"/>
</g>
</g>
</svg>
