<?xml version="1.0" encoding="UTF-8" standalone="no"?>
<!DOCTYPE svg PUBLIC "-//W3C//DTD SVG 1.1//EN"
 "http://www.w3.org/Graphics/SVG/1.1/DTD/svg11.dtd">
<!-- Generated by graphviz version 12.0.0 (0)
 -->
<!-- Pages: 1 -->
<svg width="82pt" height="54pt"
 viewBox="0.00 0.00 82.24 54.00" xmlns="http://www.w3.org/2000/svg" xmlns:xlink="http://www.w3.org/1999/xlink">
<g id="graph0" class="graph" transform="scale(0.41411 0.41411) rotate(0) translate(4 126.4)">
<!-- 1 -->
<g id="node1" class="node">
<title>1</title>
<ellipse fill="black" stroke="black" cx="100.8" cy="-120.6" rx="1.8" ry="1.8"/>
</g>
<!-- 2 -->
<g id="node2" class="node">
<title>2</title>
<ellipse fill="black" stroke="black" cx="45.8" cy="-81" rx="1.8" ry="1.8"/>
</g>
<!-- 1&#45;&gt;2 -->
<g id="edge1" class="edge">
<title>1&#45;&gt;2</title>
<path fill="none" stroke="black" stroke-width="0.75" d="M99.85,-118.95C94.16,-115.06 64.55,-94.82 51.73,-86.05"/>
<polygon fill="black" stroke="black" stroke-width="0.75" points="53.01,-84.81 47.9,-83.43 51.04,-87.7 53.01,-84.81"/>
</g>
<!-- 8 -->
<g id="node8" class="node">
<title>8</title>
<ellipse fill="black" stroke="black" cx="100.8" cy="-81" rx="1.8" ry="1.8"/>
</g>
<!-- 1&#45;&gt;8 -->
<g id="edge2" class="edge">
<title>1&#45;&gt;8</title>
<path fill="none" stroke="black" stroke-width="0.75" d="M100.8,-118.35C100.8,-113.89 100.8,-98.54 100.8,-89.27"/>
<polygon fill="black" stroke="black" stroke-width="0.75" points="102.55,-89.43 100.8,-84.43 99.05,-89.43 102.55,-89.43"/>
</g>
<!-- 12 -->
<g id="node12" class="node">
<title>12</title>
<ellipse fill="black" stroke="black" cx="155.8" cy="-81" rx="1.8" ry="1.8"/>
</g>
<!-- 1&#45;&gt;12 -->
<g id="edge3" class="edge">
<title>1&#45;&gt;12</title>
<path fill="none" stroke="black" stroke-width="0.75" d="M101.75,-118.95C107.44,-115.06 137.05,-94.82 149.87,-86.05"/>
<polygon fill="black" stroke="black" stroke-width="0.75" points="150.56,-87.7 153.7,-83.43 148.59,-84.81 150.56,-87.7"/>
</g>
<!-- 3 -->
<g id="node3" class="node">
<title>3</title>
<ellipse fill="black" stroke="black" cx="12.8" cy="-41.4" rx="1.8" ry="1.8"/>
</g>
<!-- 2&#45;&gt;3 -->
<g id="edge4" class="edge">
<title>2&#45;&gt;3</title>
<path fill="none" stroke="black" stroke-width="0.75" d="M44.98,-79.07C41.17,-74.73 24.95,-56.25 17.1,-47.3"/>
<polygon fill="black" stroke="black" stroke-width="0.75" points="18.84,-46.62 14.22,-44.02 16.21,-48.93 18.84,-46.62"/>
</g>
<!-- 6 -->
<g id="node6" class="node">
<title>6</title>
<ellipse fill="black" stroke="black" cx="34.8" cy="-41.4" rx="1.8" ry="1.8"/>
</g>
<!-- 2&#45;&gt;6 -->
<g id="edge5" class="edge">
<title>2&#45;&gt;6</title>
<path fill="none" stroke="black" stroke-width="0.75" d="M45.43,-78.75C44.1,-74.18 39.41,-58.16 36.73,-48.98"/>
<polygon fill="black" stroke="black" stroke-width="0.75" points="38.42,-48.54 35.34,-44.23 35.06,-49.52 38.42,-48.54"/>
</g>
<!-- 7 -->
<g id="node7" class="node">
<title>7</title>
<ellipse fill="black" stroke="black" cx="56.8" cy="-41.4" rx="1.8" ry="1.8"/>
</g>
<!-- 2&#45;&gt;7 -->
<g id="edge6" class="edge">
<title>2&#45;&gt;7</title>
<path fill="none" stroke="black" stroke-width="0.75" d="M46.17,-78.75C47.5,-74.18 52.19,-58.16 54.87,-48.98"/>
<polygon fill="black" stroke="black" stroke-width="0.75" points="56.54,-49.52 56.26,-44.23 53.18,-48.54 56.54,-49.52"/>
</g>
<!-- 4 -->
<g id="node4" class="node">
<title>4</title>
<ellipse fill="black" stroke="black" cx="1.8" cy="-1.8" rx="1.8" ry="1.8"/>
</g>
<!-- 3&#45;&gt;4 -->
<g id="edge7" class="edge">
<title>3&#45;&gt;4</title>
<path fill="none" stroke="black" stroke-width="0.75" d="M12.43,-39.15C11.1,-34.58 6.41,-18.56 3.73,-9.38"/>
<polygon fill="black" stroke="black" stroke-width="0.75" points="5.42,-8.94 2.34,-4.63 2.06,-9.92 5.42,-8.94"/>
</g>
<!-- 5 -->
<g id="node5" class="node">
<title>5</title>
<ellipse fill="black" stroke="black" cx="23.8" cy="-1.8" rx="1.8" ry="1.8"/>
</g>
<!-- 3&#45;&gt;5 -->
<g id="edge8" class="edge">
<title>3&#45;&gt;5</title>
<path fill="none" stroke="black" stroke-width="0.75" d="M13.17,-39.15C14.5,-34.58 19.19,-18.56 21.87,-9.38"/>
<polygon fill="black" stroke="black" stroke-width="0.75" points="23.54,-9.92 23.26,-4.63 20.18,-8.94 23.54,-9.92"/>
</g>
<!-- 9 -->
<g id="node9" class="node">
<title>9</title>
<ellipse fill="black" stroke="black" cx="78.8" cy="-41.4" rx="1.8" ry="1.8"/>
</g>
<!-- 8&#45;&gt;9 -->
<g id="edge9" class="edge">
<title>8&#45;&gt;9</title>
<path fill="none" stroke="black" stroke-width="0.75" d="M100.26,-79.07C97.81,-74.89 87.71,-57.62 82.28,-48.35"/>
<polygon fill="black" stroke="black" stroke-width="0.75" points="83.86,-47.58 79.82,-44.15 80.84,-49.35 83.86,-47.58"/>
</g>
<!-- 10 -->
<g id="node10" class="node">
<title>10</title>
<ellipse fill="black" stroke="black" cx="100.8" cy="-41.4" rx="1.8" ry="1.8"/>
</g>
<!-- 8&#45;&gt;10 -->
<g id="edge10" class="edge">
<title>8&#45;&gt;10</title>
<path fill="none" stroke="black" stroke-width="0.75" d="M100.8,-78.75C100.8,-74.29 100.8,-58.94 100.8,-49.67"/>
<polygon fill="black" stroke="black" stroke-width="0.75" points="102.55,-49.83 100.8,-44.83 99.05,-49.83 102.55,-49.83"/>
</g>
<!-- 11 -->
<g id="node11" class="node">
<title>11</title>
<ellipse fill="black" stroke="black" cx="122.8" cy="-41.4" rx="1.8" ry="1.8"/>
</g>
<!-- 8&#45;&gt;11 -->
<g id="edge11" class="edge">
<title>8&#45;&gt;11</title>
<path fill="none" stroke="black" stroke-width="0.75" d="M101.34,-79.07C103.79,-74.89 113.89,-57.62 119.32,-48.35"/>
<polygon fill="black" stroke="black" stroke-width="0.75" points="120.76,-49.35 121.78,-44.15 117.74,-47.58 120.76,-49.35"/>
</g>
<!-- 13 -->
<g id="node13" class="node">
<title>13</title>
<ellipse fill="black" stroke="black" cx="144.8" cy="-41.4" rx="1.8" ry="1.8"/>
</g>
<!-- 12&#45;&gt;13 -->
<g id="edge12" class="edge">
<title>12&#45;&gt;13</title>
<path fill="none" stroke="black" stroke-width="0.75" d="M155.43,-78.75C154.1,-74.18 149.41,-58.16 146.73,-48.98"/>
<polygon fill="black" stroke="black" stroke-width="0.75" points="148.42,-48.54 145.34,-44.23 145.06,-49.52 148.42,-48.54"/>
</g>
<!-- 14 -->
<g id="node14" class="node">
<title>14</title>
<ellipse fill="black" stroke="black" cx="166.8" cy="-41.4" rx="1.8" ry="1.8"/>
</g>
<!-- 12&#45;&gt;14 -->
<g id="edge13" class="edge">
<title>12&#45;&gt;14</title>
<path fill="none" stroke="black" stroke-width="0.75" d="M156.17,-78.75C157.5,-74.18 162.19,-58.16 164.87,-48.98"/>
<polygon fill="black" stroke="black" stroke-width="0.75" points="166.54,-49.52 166.26,-44.23 163.18,-48.54 166.54,-49.52"/>
</g>
<!-- 15 -->
<g id="node15" class="node">
<title>15</title>
<ellipse fill="black" stroke="black" cx="188.8" cy="-41.4" rx="1.8" ry="1.8"/>
</g>
<!-- 12&#45;&gt;15 -->
<g id="edge14" class="edge">
<title>12&#45;&gt;15</title>
<path fill="none" stroke="black" stroke-width="0.75" d="M156.62,-79.07C160.43,-74.73 176.65,-56.25 184.5,-47.3"/>
<polygon fill="black" stroke="black" stroke-width="0.75" points="185.39,-48.93 187.38,-44.02 182.76,-46.62 185.39,-48.93"/>
</g>
</g>
</svg>
