<svg xmlns="http://www.w3.org/2000/svg" width="161.8" height="100.0" viewBox="-3.921 -5.000 171.803 110.000">
<g fill="none" stroke="black" stroke-width="0.0050%" transform="translate(0, 100.0000) scale(100.0000, -100.0000)">
<circle cx="0.011" cy="0.667" r="0.005" />
<circle cx="0.022" cy="0.969" r="0.005" />
<circle cx="0.032" cy="0.198" r="0.005" />
<circle cx="0.043" cy="0.600" r="0.005" />
<circle cx="0.054" cy="0.997" r="0.005" />
<circle cx="0.065" cy="0.021" r="0.005" />
<circle cx="0.076" cy="0.080" r="0.005" />
<circle cx="0.086" cy="0.287" r="0.005" />
<circle cx="0.097" cy="0.771" r="0.005" />
<circle cx="0.108" cy="0.851" r="0.005" />
<circle cx="0.119" cy="0.678" r="0.005" />
<circle cx="0.129" cy="0.961" r="0.005" />
<circle cx="0.140" cy="0.244" r="0.005" />
<circle cx="0.151" cy="0.696" r="0.005" />
<circle cx="0.162" cy="0.946" r="0.005" />
<circle cx="0.173" cy="0.321" r="0.005" />
<circle cx="0.183" cy="0.823" r="0.005" />
<circle cx="0.194" cy="0.748" r="0.005" />
<circle cx="0.205" cy="0.886" r="0.005" />
<circle cx="0.216" cy="0.570" r="0.005" />
<circle cx="0.227" cy="1.000" r="0.005" />
<circle cx="0.237" cy="0.000" r="0.005" />
<circle cx="0.248" cy="0.000" r="0.005" />
<circle cx="0.259" cy="0.000" r="0.005" />
<circle cx="0.270" cy="0.000" r="0.005" />
<circle cx="0.280" cy="0.000" r="0.005" />
<circle cx="0.291" cy="0.000" r="0.005" />
<circle cx="0.302" cy="0.000" r="0.005" />
<circle cx="0.313" cy="0.001" r="0.005" />
<circle cx="0.324" cy="0.002" r="0.005" />
<circle cx="0.334" cy="0.009" r="0.005" />
<circle cx="0.345" cy="0.037" r="0.005" />
<circle cx="0.356" cy="0.141" r="0.005" />
<circle cx="0.367" cy="0.464" r="0.005" />
<circle cx="0.378" cy="0.967" r="0.005" />
<circle cx="0.388" cy="0.206" r="0.005" />
<circle cx="0.399" cy="0.620" r="0.005" />
<circle cx="0.410" cy="0.992" r="0.005" />
<circle cx="0.421" cy="0.055" r="0.005" />
<circle cx="0.431" cy="0.203" r="0.005" />
<circle cx="0.442" cy="0.612" r="0.005" />
<circle cx="0.453" cy="0.994" r="0.005" />
<circle cx="0.464" cy="0.040" r="0.005" />
<circle cx="0.475" cy="0.151" r="0.005" />
<circle cx="0.485" cy="0.488" r="0.005" />
<circle cx="0.496" cy="0.980" r="0.005" />
<circle cx="0.507" cy="0.129" r="0.005" />
<circle cx="0.518" cy="0.432" r="0.005" />
<circle cx="0.529" cy="0.945" r="0.005" />
<circle cx="0.539" cy="0.326" r="0.005" />
<circle cx="0.550" cy="0.830" r="0.005" />
<circle cx="0.561" cy="0.732" r="0.005" />
<circle cx="0.572" cy="0.908" r="0.005" />
<circle cx="0.582" cy="0.489" r="0.005" />
<circle cx="0.593" cy="0.981" r="0.005" />
<circle cx="0.604" cy="0.126" r="0.005" />
<circle cx="0.615" cy="0.424" r="0.005" />
<circle cx="0.626" cy="0.938" r="0.005" />
<circle cx="0.636" cy="0.357" r="0.005" />
<circle cx="0.647" cy="0.871" r="0.005" />
<circle cx="0.658" cy="0.619" r="0.005" />
<circle cx="0.669" cy="0.992" r="0.005" />
<circle cx="0.680" cy="0.054" r="0.005" />
<circle cx="0.690" cy="0.200" r="0.005" />
<circle cx="0.701" cy="0.606" r="0.005" />
<circle cx="0.712" cy="0.996" r="0.005" />
<circle cx="0.723" cy="0.029" r="0.005" />
<circle cx="0.734" cy="0.111" r="0.005" />
<circle cx="0.744" cy="0.379" r="0.005" />
<circle cx="0.755" cy="0.895" r="0.005" />
<circle cx="0.766" cy="0.536" r="0.005" />
<circle cx="0.777" cy="0.997" r="0.005" />
<circle cx="0.787" cy="0.024" r="0.005" />
<circle cx="0.798" cy="0.092" r="0.005" />
<circle cx="0.809" cy="0.322" r="0.005" />
<circle cx="0.820" cy="0.825" r="0.005" />
<circle cx="0.831" cy="0.745" r="0.005" />
<circle cx="0.841" cy="0.891" r="0.005" />
<circle cx="0.852" cy="0.551" r="0.005" />
<circle cx="0.863" cy="0.999" r="0.005" />
<circle cx="0.874" cy="0.007" r="0.005" />
<circle cx="0.885" cy="0.029" r="0.005" />
<circle cx="0.895" cy="0.113" r="0.005" />
<circle cx="0.906" cy="0.385" r="0.005" />
<circle cx="0.917" cy="0.901" r="0.005" />
<circle cx="0.928" cy="0.513" r="0.005" />
<circle cx="0.938" cy="0.991" r="0.005" />
<circle cx="0.949" cy="0.064" r="0.005" />
<circle cx="0.960" cy="0.233" r="0.005" />
<circle cx="0.971" cy="0.675" r="0.005" />
<circle cx="0.982" cy="0.963" r="0.005" />
<circle cx="0.992" cy="0.232" r="0.005" />
<circle cx="1.003" cy="0.673" r="0.005" />
<circle cx="1.014" cy="0.965" r="0.005" />
<circle cx="1.025" cy="0.221" r="0.005" />
<circle cx="1.036" cy="0.649" r="0.005" />
<circle cx="1.046" cy="0.979" r="0.005" />
<circle cx="1.057" cy="0.136" r="0.005" />
<circle cx="1.068" cy="0.450" r="0.005" />
<circle cx="1.079" cy="0.958" r="0.005" />
<circle cx="1.089" cy="0.258" r="0.005" />
<circle cx="1.100" cy="0.721" r="0.005" />
<circle cx="1.111" cy="0.921" r="0.005" />
<circle cx="1.122" cy="0.437" r="0.005" />
<circle cx="1.133" cy="0.949" r="0.005" />
<circle cx="1.143" cy="0.307" r="0.005" />
<circle cx="1.154" cy="0.802" r="0.005" />
<circle cx="1.165" cy="0.795" r="0.005" />
<circle cx="1.176" cy="0.809" r="0.005" />
<circle cx="1.187" cy="0.781" r="0.005" />
<circle cx="1.197" cy="0.835" r="0.005" />
<circle cx="1.208" cy="0.719" r="0.005" />
<circle cx="1.219" cy="0.923" r="0.005" />
<circle cx="1.230" cy="0.428" r="0.005" />
<circle cx="1.240" cy="0.942" r="0.005" />
<circle cx="1.251" cy="0.339" r="0.005" />
<circle cx="1.262" cy="0.848" r="0.005" />
<circle cx="1.273" cy="0.685" r="0.005" />
<circle cx="1.284" cy="0.955" r="0.005" />
<circle cx="1.294" cy="0.274" r="0.005" />
<circle cx="1.305" cy="0.749" r="0.005" />
<circle cx="1.316" cy="0.885" r="0.005" />
<circle cx="1.327" cy="0.573" r="0.005" />
<circle cx="1.338" cy="1.000" r="0.005" />
<circle cx="1.348" cy="0.000" r="0.005" />
<circle cx="1.359" cy="0.001" r="0.005" />
<circle cx="1.370" cy="0.004" r="0.005" />
<circle cx="1.381" cy="0.018" r="0.005" />
<circle cx="1.392" cy="0.069" r="0.005" />
<circle cx="1.402" cy="0.251" r="0.005" />
<circle cx="1.413" cy="0.709" r="0.005" />
<circle cx="1.424" cy="0.934" r="0.005" />
<circle cx="1.435" cy="0.378" r="0.005" />
<circle cx="1.445" cy="0.894" r="0.005" />
<circle cx="1.456" cy="0.539" r="0.005" />
<circle cx="1.467" cy="0.997" r="0.005" />
<circle cx="1.478" cy="0.019" r="0.005" />
<circle cx="1.489" cy="0.075" r="0.005" />
<circle cx="1.499" cy="0.271" r="0.005" />
<circle cx="1.510" cy="0.745" r="0.005" />
<circle cx="1.521" cy="0.891" r="0.005" />
<circle cx="1.532" cy="0.553" r="0.005" />
<circle cx="1.543" cy="0.999" r="0.005" />
<circle cx="1.553" cy="0.006" r="0.005" />
<circle cx="1.564" cy="0.024" r="0.005" />
<circle cx="1.575" cy="0.094" r="0.005" />
<circle cx="1.586" cy="0.329" r="0.005" />
<circle cx="1.596" cy="0.835" r="0.005" />
<circle cx="1.607" cy="0.721" r="0.005" />
<circle cx="1.618" cy="0.921" r="0.005" />
<circle cx="1.629" cy="0.437" r="0.005" />
</g>
</svg>