<?xml version="1.0" encoding="UTF-8" standalone="no"?>
<!DOCTYPE svg PUBLIC "-//W3C//DTD SVG 1.1//EN"
 "http://www.w3.org/Graphics/SVG/1.1/DTD/svg11.dtd">
<!-- Generated by graphviz version 12.0.0 (0)
 -->
<!-- Pages: 1 -->
<svg width="54pt" height="54pt"
 viewBox="0.00 0.00 54.03 54.00" xmlns="http://www.w3.org/2000/svg" xmlns:xlink="http://www.w3.org/1999/xlink">
<g id="graph0" class="graph" transform="scale(0.154731 0.154731) rotate(0) translate(4 344.99)">
<!-- 1 -->
<g id="node1" class="node">
<title>1</title>
<ellipse fill="black" stroke="black" cx="117.65" cy="-1.8" rx="1.8" ry="1.8"/>
</g>
<!-- 2 -->
<g id="node2" class="node">
<title>2</title>
<ellipse fill="black" stroke="black" cx="173.37" cy="-31.33" rx="1.8" ry="1.8"/>
</g>
<!-- 1&#45;&#45;2 -->
<g id="edge1" class="edge">
<title>1&#45;&#45;2</title>
<path fill="none" stroke="black" stroke-width="0.75" d="M119.51,-2.78C127.97,-7.27 162.86,-25.76 171.46,-30.31"/>
</g>
<!-- 6 -->
<g id="node3" class="node">
<title>6</title>
<ellipse fill="black" stroke="black" cx="90.22" cy="-57.58" rx="1.8" ry="1.8"/>
</g>
<!-- 1&#45;&#45;6 -->
<g id="edge2" class="edge">
<title>1&#45;&#45;6</title>
<path fill="none" stroke="black" stroke-width="0.75" d="M116.74,-3.66C112.57,-12.12 95.39,-47.06 91.16,-55.66"/>
</g>
<!-- 7 -->
<g id="node4" class="node">
<title>7</title>
<ellipse fill="black" stroke="black" cx="144.69" cy="-85.39" rx="1.8" ry="1.8"/>
</g>
<!-- 1&#45;&#45;7 -->
<g id="edge3" class="edge">
<title>1&#45;&#45;7</title>
<path fill="none" stroke="black" stroke-width="0.75" d="M118.32,-3.87C122.06,-15.43 140.36,-72.02 144.04,-83.4"/>
</g>
<!-- 2&#45;&#45;6 -->
<g id="edge5" class="edge">
<title>2&#45;&#45;6</title>
<path fill="none" stroke="black" stroke-width="0.75" d="M171.32,-31.98C159.81,-35.61 103.52,-53.38 92.2,-56.95"/>
</g>
<!-- 2&#45;&#45;7 -->
<g id="edge6" class="edge">
<title>2&#45;&#45;7</title>
<path fill="none" stroke="black" stroke-width="0.75" d="M172.42,-33.13C168.06,-41.34 150.1,-75.2 145.68,-83.53"/>
</g>
<!-- 3 -->
<g id="node5" class="node">
<title>3</title>
<ellipse fill="black" stroke="black" cx="228.44" cy="-60.69" rx="1.8" ry="1.8"/>
</g>
<!-- 2&#45;&#45;3 -->
<g id="edge4" class="edge">
<title>2&#45;&#45;3</title>
<path fill="none" stroke="black" stroke-width="0.75" d="M175.21,-32.31C183.57,-36.77 218.06,-55.15 226.55,-59.68"/>
</g>
<!-- 8 -->
<g id="node6" class="node">
<title>8</title>
<ellipse fill="black" stroke="black" cx="199.92" cy="-115.17" rx="1.8" ry="1.8"/>
</g>
<!-- 2&#45;&#45;8 -->
<g id="edge7" class="edge">
<title>2&#45;&#45;8</title>
<path fill="none" stroke="black" stroke-width="0.75" d="M174.03,-33.4C177.7,-45 195.68,-101.76 199.29,-113.17"/>
</g>
<!-- 6&#45;&#45;7 -->
<g id="edge18" class="edge">
<title>6&#45;&#45;7</title>
<path fill="none" stroke="black" stroke-width="0.75" d="M92.03,-58.5C100.3,-62.73 134.41,-80.15 142.81,-84.43"/>
</g>
<!-- 11 -->
<g id="node11" class="node">
<title>11</title>
<ellipse fill="black" stroke="black" cx="61.45" cy="-112.5" rx="1.8" ry="1.8"/>
</g>
<!-- 6&#45;&#45;11 -->
<g id="edge19" class="edge">
<title>6&#45;&#45;11</title>
<path fill="none" stroke="black" stroke-width="0.75" d="M89.26,-59.4C84.89,-67.74 66.88,-102.14 62.44,-110.61"/>
</g>
<!-- 12 -->
<g id="node12" class="node">
<title>12</title>
<ellipse fill="black" stroke="black" cx="115.9" cy="-141.28" rx="1.8" ry="1.8"/>
</g>
<!-- 6&#45;&#45;12 -->
<g id="edge20" class="edge">
<title>6&#45;&#45;12</title>
<path fill="none" stroke="black" stroke-width="0.75" d="M90.85,-59.65C94.41,-71.23 111.79,-127.89 115.28,-139.28"/>
</g>
<!-- 7&#45;&#45;8 -->
<g id="edge21" class="edge">
<title>7&#45;&#45;8</title>
<path fill="none" stroke="black" stroke-width="0.75" d="M146.53,-86.38C154.91,-90.9 189.5,-109.56 198.02,-114.15"/>
</g>
<!-- 7&#45;&#45;11 -->
<g id="edge22" class="edge">
<title>7&#45;&#45;11</title>
<path fill="none" stroke="black" stroke-width="0.75" d="M142.63,-86.06C131.11,-89.81 74.76,-108.16 63.44,-111.85"/>
</g>
<!-- 7&#45;&#45;12 -->
<g id="edge23" class="edge">
<title>7&#45;&#45;12</title>
<path fill="none" stroke="black" stroke-width="0.75" d="M143.73,-87.25C139.36,-95.74 121.33,-130.74 116.89,-139.35"/>
</g>
<!-- 13 -->
<g id="node13" class="node">
<title>13</title>
<ellipse fill="black" stroke="black" cx="170.89" cy="-170.32" rx="1.8" ry="1.8"/>
</g>
<!-- 7&#45;&#45;13 -->
<g id="edge24" class="edge">
<title>7&#45;&#45;13</title>
<path fill="none" stroke="black" stroke-width="0.75" d="M145.34,-87.49C148.96,-99.24 166.7,-156.73 170.27,-168.29"/>
</g>
<!-- 3&#45;&#45;7 -->
<g id="edge9" class="edge">
<title>3&#45;&#45;7</title>
<path fill="none" stroke="black" stroke-width="0.75" d="M226.37,-61.3C214.79,-64.72 158.08,-81.44 146.69,-84.8"/>
</g>
<!-- 3&#45;&#45;8 -->
<g id="edge10" class="edge">
<title>3&#45;&#45;8</title>
<path fill="none" stroke="black" stroke-width="0.75" d="M227.5,-62.5C223.16,-70.77 205.3,-104.9 200.9,-113.3"/>
</g>
<!-- 4 -->
<g id="node7" class="node">
<title>4</title>
<ellipse fill="black" stroke="black" cx="283.63" cy="-89.55" rx="1.8" ry="1.8"/>
</g>
<!-- 3&#45;&#45;4 -->
<g id="edge8" class="edge">
<title>3&#45;&#45;4</title>
<path fill="none" stroke="black" stroke-width="0.75" d="M230.28,-61.65C238.66,-66.03 273.22,-84.11 281.73,-88.56"/>
</g>
<!-- 9 -->
<g id="node8" class="node">
<title>9</title>
<ellipse fill="black" stroke="black" cx="255.7" cy="-144.04" rx="1.8" ry="1.8"/>
</g>
<!-- 3&#45;&#45;9 -->
<g id="edge11" class="edge">
<title>3&#45;&#45;9</title>
<path fill="none" stroke="black" stroke-width="0.75" d="M229.12,-62.75C232.89,-74.28 251.34,-130.71 255.05,-142.06"/>
</g>
<!-- 8&#45;&#45;9 -->
<g id="edge25" class="edge">
<title>8&#45;&#45;9</title>
<path fill="none" stroke="black" stroke-width="0.75" d="M201.78,-116.13C210.25,-120.52 245.18,-138.6 253.78,-143.05"/>
</g>
<!-- 8&#45;&#45;12 -->
<g id="edge26" class="edge">
<title>8&#45;&#45;12</title>
<path fill="none" stroke="black" stroke-width="0.75" d="M197.84,-115.82C186.22,-119.43 129.34,-137.1 117.9,-140.66"/>
</g>
<!-- 8&#45;&#45;13 -->
<g id="edge27" class="edge">
<title>8&#45;&#45;13</title>
<path fill="none" stroke="black" stroke-width="0.75" d="M198.96,-117.01C194.55,-125.38 176.37,-159.91 171.89,-168.42"/>
</g>
<!-- 14 -->
<g id="node14" class="node">
<title>14</title>
<ellipse fill="black" stroke="black" cx="225.9" cy="-199.4" rx="1.8" ry="1.8"/>
</g>
<!-- 8&#45;&#45;14 -->
<g id="edge28" class="edge">
<title>8&#45;&#45;14</title>
<path fill="none" stroke="black" stroke-width="0.75" d="M200.56,-117.25C204.16,-128.91 221.75,-185.93 225.28,-197.39"/>
</g>
<!-- 4&#45;&#45;8 -->
<g id="edge13" class="edge">
<title>4&#45;&#45;8</title>
<path fill="none" stroke="black" stroke-width="0.75" d="M281.56,-90.19C269.98,-93.73 213.31,-111.07 201.92,-114.56"/>
</g>
<!-- 4&#45;&#45;9 -->
<g id="edge14" class="edge">
<title>4&#45;&#45;9</title>
<path fill="none" stroke="black" stroke-width="0.75" d="M282.7,-91.37C278.46,-99.64 260.97,-133.77 256.66,-142.17"/>
</g>
<!-- 5 -->
<g id="node9" class="node">
<title>5</title>
<ellipse fill="black" stroke="black" cx="339.42" cy="-117.84" rx="1.8" ry="1.8"/>
</g>
<!-- 4&#45;&#45;5 -->
<g id="edge12" class="edge">
<title>4&#45;&#45;5</title>
<path fill="none" stroke="black" stroke-width="0.75" d="M285.48,-90.49C293.95,-94.79 328.89,-112.5 337.5,-116.87"/>
</g>
<!-- 10 -->
<g id="node10" class="node">
<title>10</title>
<ellipse fill="black" stroke="black" cx="309.54" cy="-173.05" rx="1.8" ry="1.8"/>
</g>
<!-- 4&#45;&#45;10 -->
<g id="edge15" class="edge">
<title>4&#45;&#45;10</title>
<path fill="none" stroke="black" stroke-width="0.75" d="M284.27,-91.62C287.85,-103.17 305.4,-159.69 308.92,-171.06"/>
</g>
<!-- 9&#45;&#45;10 -->
<g id="edge29" class="edge">
<title>9&#45;&#45;10</title>
<path fill="none" stroke="black" stroke-width="0.75" d="M257.49,-145.01C265.66,-149.41 299.39,-167.58 307.69,-172.05"/>
</g>
<!-- 9&#45;&#45;13 -->
<g id="edge30" class="edge">
<title>9&#45;&#45;13</title>
<path fill="none" stroke="black" stroke-width="0.75" d="M253.6,-144.69C241.87,-148.33 184.46,-166.11 172.91,-169.69"/>
</g>
<!-- 9&#45;&#45;14 -->
<g id="edge31" class="edge">
<title>9&#45;&#45;14</title>
<path fill="none" stroke="black" stroke-width="0.75" d="M254.71,-145.89C250.18,-154.29 231.52,-188.96 226.93,-197.49"/>
</g>
<!-- 15 -->
<g id="node15" class="node">
<title>15</title>
<ellipse fill="black" stroke="black" cx="280.22" cy="-228.13" rx="1.8" ry="1.8"/>
</g>
<!-- 9&#45;&#45;15 -->
<g id="edge32" class="edge">
<title>9&#45;&#45;15</title>
<path fill="none" stroke="black" stroke-width="0.75" d="M256.3,-146.12C259.7,-157.76 276.3,-214.69 279.63,-226.13"/>
</g>
<!-- 5&#45;&#45;9 -->
<g id="edge16" class="edge">
<title>5&#45;&#45;9</title>
<path fill="none" stroke="black" stroke-width="0.75" d="M337.35,-118.49C325.76,-122.11 269.09,-139.85 257.69,-143.42"/>
</g>
<!-- 5&#45;&#45;10 -->
<g id="edge17" class="edge">
<title>5&#45;&#45;10</title>
<path fill="none" stroke="black" stroke-width="0.75" d="M338.42,-119.68C333.89,-128.06 315.18,-162.63 310.57,-171.15"/>
</g>
<!-- 10&#45;&#45;14 -->
<g id="edge33" class="edge">
<title>10&#45;&#45;14</title>
<path fill="none" stroke="black" stroke-width="0.75" d="M307.47,-173.7C295.9,-177.34 239.28,-195.18 227.9,-198.77"/>
</g>
<!-- 10&#45;&#45;15 -->
<g id="edge34" class="edge">
<title>10&#45;&#45;15</title>
<path fill="none" stroke="black" stroke-width="0.75" d="M308.57,-174.88C304.11,-183.24 285.75,-217.74 281.23,-226.24"/>
</g>
<!-- 11&#45;&#45;12 -->
<g id="edge35" class="edge">
<title>11&#45;&#45;12</title>
<path fill="none" stroke="black" stroke-width="0.75" d="M63.26,-113.45C71.53,-117.82 105.63,-135.85 114.02,-140.29"/>
</g>
<!-- 16 -->
<g id="node16" class="node">
<title>16</title>
<ellipse fill="black" stroke="black" cx="32.14" cy="-167.19" rx="1.8" ry="1.8"/>
</g>
<!-- 11&#45;&#45;16 -->
<g id="edge36" class="edge">
<title>11&#45;&#45;16</title>
<path fill="none" stroke="black" stroke-width="0.75" d="M60.48,-114.32C56.03,-122.62 37.67,-156.87 33.15,-165.31"/>
</g>
<!-- 17 -->
<g id="node17" class="node">
<title>17</title>
<ellipse fill="black" stroke="black" cx="85.92" cy="-196.47" rx="1.8" ry="1.8"/>
</g>
<!-- 11&#45;&#45;17 -->
<g id="edge37" class="edge">
<title>11&#45;&#45;17</title>
<path fill="none" stroke="black" stroke-width="0.75" d="M62.06,-114.57C65.44,-126.19 82.01,-183.04 85.34,-194.46"/>
</g>
<!-- 12&#45;&#45;13 -->
<g id="edge38" class="edge">
<title>12&#45;&#45;13</title>
<path fill="none" stroke="black" stroke-width="0.75" d="M117.73,-142.24C126.08,-146.65 160.52,-164.84 169,-169.32"/>
</g>
<!-- 12&#45;&#45;16 -->
<g id="edge39" class="edge">
<title>12&#45;&#45;16</title>
<path fill="none" stroke="black" stroke-width="0.75" d="M113.83,-141.92C102.24,-145.5 45.54,-163.04 34.14,-166.57"/>
</g>
<!-- 12&#45;&#45;17 -->
<g id="edge40" class="edge">
<title>12&#45;&#45;17</title>
<path fill="none" stroke="black" stroke-width="0.75" d="M114.9,-143.11C110.35,-151.49 91.57,-186.06 86.95,-194.57"/>
</g>
<!-- 18 -->
<g id="node18" class="node">
<title>18</title>
<ellipse fill="black" stroke="black" cx="141.69" cy="-225.34" rx="1.8" ry="1.8"/>
</g>
<!-- 12&#45;&#45;18 -->
<g id="edge41" class="edge">
<title>12&#45;&#45;18</title>
<path fill="none" stroke="black" stroke-width="0.75" d="M116.53,-143.36C120.1,-154.99 137.57,-211.9 141.08,-223.34"/>
</g>
<!-- 13&#45;&#45;14 -->
<g id="edge42" class="edge">
<title>13&#45;&#45;14</title>
<path fill="none" stroke="black" stroke-width="0.75" d="M172.72,-171.28C181.07,-175.7 215.53,-193.91 224.01,-198.4"/>
</g>
<!-- 13&#45;&#45;17 -->
<g id="edge43" class="edge">
<title>13&#45;&#45;17</title>
<path fill="none" stroke="black" stroke-width="0.75" d="M168.79,-170.96C157.04,-174.58 99.51,-192.28 87.95,-195.84"/>
</g>
<!-- 13&#45;&#45;18 -->
<g id="edge44" class="edge">
<title>13&#45;&#45;18</title>
<path fill="none" stroke="black" stroke-width="0.75" d="M169.92,-172.15C165.49,-180.5 147.2,-214.96 142.7,-223.45"/>
</g>
<!-- 19 -->
<g id="node19" class="node">
<title>19</title>
<ellipse fill="black" stroke="black" cx="196.95" cy="-255.19" rx="1.8" ry="1.8"/>
</g>
<!-- 13&#45;&#45;19 -->
<g id="edge45" class="edge">
<title>13&#45;&#45;19</title>
<path fill="none" stroke="black" stroke-width="0.75" d="M171.54,-172.41C175.14,-184.16 192.78,-241.62 196.33,-253.17"/>
</g>
<!-- 14&#45;&#45;15 -->
<g id="edge46" class="edge">
<title>14&#45;&#45;15</title>
<path fill="none" stroke="black" stroke-width="0.75" d="M227.71,-200.36C235.96,-204.72 269.97,-222.71 278.35,-227.15"/>
</g>
<!-- 14&#45;&#45;18 -->
<g id="edge47" class="edge">
<title>14&#45;&#45;18</title>
<path fill="none" stroke="black" stroke-width="0.75" d="M223.82,-200.04C212.17,-203.63 155.16,-221.19 143.7,-224.72"/>
</g>
<!-- 14&#45;&#45;19 -->
<g id="edge48" class="edge">
<title>14&#45;&#45;19</title>
<path fill="none" stroke="black" stroke-width="0.75" d="M224.94,-201.26C220.54,-209.73 202.41,-244.67 197.94,-253.27"/>
</g>
<!-- 20 -->
<g id="node20" class="node">
<title>20</title>
<ellipse fill="black" stroke="black" cx="251.21" cy="-283.41" rx="1.8" ry="1.8"/>
</g>
<!-- 14&#45;&#45;20 -->
<g id="edge49" class="edge">
<title>14&#45;&#45;20</title>
<path fill="none" stroke="black" stroke-width="0.75" d="M226.53,-201.48C230.03,-213.1 247.16,-269.97 250.61,-281.4"/>
</g>
<!-- 15&#45;&#45;19 -->
<g id="edge50" class="edge">
<title>15&#45;&#45;19</title>
<path fill="none" stroke="black" stroke-width="0.75" d="M278.16,-228.8C266.64,-232.55 210.27,-250.86 198.93,-254.55"/>
</g>
<!-- 15&#45;&#45;20 -->
<g id="edge51" class="edge">
<title>15&#45;&#45;20</title>
<path fill="none" stroke="black" stroke-width="0.75" d="M279.25,-229.97C274.85,-238.37 256.68,-272.98 252.21,-281.5"/>
</g>
<!-- 16&#45;&#45;17 -->
<g id="edge52" class="edge">
<title>16&#45;&#45;17</title>
<path fill="none" stroke="black" stroke-width="0.75" d="M33.93,-168.16C42.1,-172.61 75.78,-190.94 84.07,-195.46"/>
</g>
<!-- 21 -->
<g id="node21" class="node">
<title>21</title>
<ellipse fill="black" stroke="black" cx="1.8" cy="-221.73" rx="1.8" ry="1.8"/>
</g>
<!-- 16&#45;&#45;21 -->
<g id="edge53" class="edge">
<title>16&#45;&#45;21</title>
<path fill="none" stroke="black" stroke-width="0.75" d="M31.13,-169C26.53,-177.28 7.52,-211.44 2.84,-219.85"/>
</g>
<!-- 22 -->
<g id="node22" class="node">
<title>22</title>
<ellipse fill="black" stroke="black" cx="57.56" cy="-250.64" rx="1.8" ry="1.8"/>
</g>
<!-- 16&#45;&#45;22 -->
<g id="edge54" class="edge">
<title>16&#45;&#45;22</title>
<path fill="none" stroke="black" stroke-width="0.75" d="M32.77,-169.25C36.29,-180.8 53.49,-237.3 56.95,-248.65"/>
</g>
<!-- 17&#45;&#45;18 -->
<g id="edge55" class="edge">
<title>17&#45;&#45;18</title>
<path fill="none" stroke="black" stroke-width="0.75" d="M87.78,-197.43C96.24,-201.81 131.17,-219.9 139.77,-224.35"/>
</g>
<!-- 17&#45;&#45;21 -->
<g id="edge56" class="edge">
<title>17&#45;&#45;21</title>
<path fill="none" stroke="black" stroke-width="0.75" d="M83.84,-197.09C72.2,-200.59 15.25,-217.69 3.81,-221.12"/>
</g>
<!-- 17&#45;&#45;22 -->
<g id="edge57" class="edge">
<title>17&#45;&#45;22</title>
<path fill="none" stroke="black" stroke-width="0.75" d="M84.98,-198.27C80.67,-206.49 62.91,-240.43 58.54,-248.78"/>
</g>
<!-- 23 -->
<g id="node23" class="node">
<title>23</title>
<ellipse fill="black" stroke="black" cx="112.74" cy="-279.62" rx="1.8" ry="1.8"/>
</g>
<!-- 17&#45;&#45;23 -->
<g id="edge58" class="edge">
<title>17&#45;&#45;23</title>
<path fill="none" stroke="black" stroke-width="0.75" d="M86.58,-198.52C90.29,-210.03 108.45,-266.32 112.1,-277.63"/>
</g>
<!-- 18&#45;&#45;19 -->
<g id="edge59" class="edge">
<title>18&#45;&#45;19</title>
<path fill="none" stroke="black" stroke-width="0.75" d="M143.53,-226.33C151.92,-230.87 186.53,-249.56 195.05,-254.16"/>
</g>
<!-- 18&#45;&#45;22 -->
<g id="edge60" class="edge">
<title>18&#45;&#45;22</title>
<path fill="none" stroke="black" stroke-width="0.75" d="M139.61,-225.97C127.97,-229.47 71.02,-246.6 59.57,-250.04"/>
</g>
<!-- 18&#45;&#45;23 -->
<g id="edge61" class="edge">
<title>18&#45;&#45;23</title>
<path fill="none" stroke="black" stroke-width="0.75" d="M140.73,-227.15C136.33,-235.39 118.2,-269.38 113.74,-277.75"/>
</g>
<!-- 24 -->
<g id="node24" class="node">
<title>24</title>
<ellipse fill="black" stroke="black" cx="167.62" cy="-308.95" rx="1.8" ry="1.8"/>
</g>
<!-- 18&#45;&#45;24 -->
<g id="edge62" class="edge">
<title>18&#45;&#45;24</title>
<path fill="none" stroke="black" stroke-width="0.75" d="M142.33,-227.41C145.92,-238.98 163.47,-295.57 167,-306.95"/>
</g>
<!-- 19&#45;&#45;20 -->
<g id="edge63" class="edge">
<title>19&#45;&#45;20</title>
<path fill="none" stroke="black" stroke-width="0.75" d="M198.75,-256.13C206.99,-260.41 240.97,-278.08 249.34,-282.44"/>
</g>
<!-- 19&#45;&#45;23 -->
<g id="edge64" class="edge">
<title>19&#45;&#45;23</title>
<path fill="none" stroke="black" stroke-width="0.75" d="M194.87,-255.8C183.22,-259.17 126.21,-275.71 114.75,-279.03"/>
</g>
<!-- 19&#45;&#45;24 -->
<g id="edge65" class="edge">
<title>19&#45;&#45;24</title>
<path fill="none" stroke="black" stroke-width="0.75" d="M195.97,-256.98C191.52,-265.14 173.15,-298.81 168.63,-307.1"/>
</g>
<!-- 25 -->
<g id="node25" class="node">
<title>25</title>
<ellipse fill="black" stroke="black" cx="222.28" cy="-339.19" rx="1.8" ry="1.8"/>
</g>
<!-- 19&#45;&#45;25 -->
<g id="edge66" class="edge">
<title>19&#45;&#45;25</title>
<path fill="none" stroke="black" stroke-width="0.75" d="M197.57,-257.27C201.08,-268.89 218.23,-325.76 221.68,-337.19"/>
</g>
<!-- 20&#45;&#45;24 -->
<g id="edge67" class="edge">
<title>20&#45;&#45;24</title>
<path fill="none" stroke="black" stroke-width="0.75" d="M249.14,-284.04C237.58,-287.57 180.99,-304.86 169.61,-308.34"/>
</g>
<!-- 20&#45;&#45;25 -->
<g id="edge68" class="edge">
<title>20&#45;&#45;25</title>
<path fill="none" stroke="black" stroke-width="0.75" d="M250.25,-285.26C245.85,-293.73 227.74,-328.67 223.28,-337.27"/>
</g>
<!-- 21&#45;&#45;22 -->
<g id="edge69" class="edge">
<title>21&#45;&#45;22</title>
<path fill="none" stroke="black" stroke-width="0.75" d="M3.66,-222.69C12.12,-227.08 47.04,-245.19 55.64,-249.65"/>
</g>
<!-- 22&#45;&#45;23 -->
<g id="edge70" class="edge">
<title>22&#45;&#45;23</title>
<path fill="none" stroke="black" stroke-width="0.75" d="M59.4,-251.61C67.77,-256.01 102.33,-274.15 110.84,-278.62"/>
</g>
<!-- 23&#45;&#45;24 -->
<g id="edge71" class="edge">
<title>23&#45;&#45;24</title>
<path fill="none" stroke="black" stroke-width="0.75" d="M114.56,-280.59C122.9,-285.05 157.27,-303.41 165.73,-307.94"/>
</g>
<!-- 24&#45;&#45;25 -->
<g id="edge72" class="edge">
<title>24&#45;&#45;25</title>
<path fill="none" stroke="black" stroke-width="0.75" d="M169.44,-309.95C177.74,-314.54 211.97,-333.49 220.4,-338.15"/>
</g>
</g>
</svg>
