<?xml version="1.0" encoding="UTF-8" standalone="no"?>
<!DOCTYPE svg PUBLIC "-//W3C//DTD SVG 1.1//EN"
 "http://www.w3.org/Graphics/SVG/1.1/DTD/svg11.dtd">
<!-- Generated by graphviz version 12.0.0 (0)
 -->
<!-- Pages: 1 -->
<svg width="54pt" height="54pt"
 viewBox="0.00 0.00 54.04 54.00" xmlns="http://www.w3.org/2000/svg" xmlns:xlink="http://www.w3.org/1999/xlink">
<g id="graph0" class="graph" transform="scale(0.200081 0.200081) rotate(0) translate(4 265.89)">
<!-- 1 -->
<g id="node1" class="node">
<title>1</title>
<ellipse fill="black" stroke="black" cx="102.12" cy="-1.8" rx="1.8" ry="1.8"/>
</g>
<!-- 2 -->
<g id="node2" class="node">
<title>2</title>
<ellipse fill="black" stroke="black" cx="70.13" cy="-55.16" rx="1.8" ry="1.8"/>
</g>
<!-- 1&#45;&#45;2 -->
<g id="edge1" class="edge">
<title>1&#45;&#45;2</title>
<path fill="none" stroke="black" stroke-width="0.75" d="M101.06,-3.58C96.2,-11.68 76.16,-45.1 71.23,-53.33"/>
</g>
<!-- 5 -->
<g id="node3" class="node">
<title>5</title>
<ellipse fill="black" stroke="black" cx="154.46" cy="-36.24" rx="1.8" ry="1.8"/>
</g>
<!-- 1&#45;&#45;5 -->
<g id="edge2" class="edge">
<title>1&#45;&#45;5</title>
<path fill="none" stroke="black" stroke-width="0.75" d="M103.87,-2.95C111.81,-8.17 144.59,-29.74 152.66,-35.05"/>
</g>
<!-- 6 -->
<g id="node4" class="node">
<title>6</title>
<ellipse fill="black" stroke="black" cx="121.75" cy="-87.77" rx="1.8" ry="1.8"/>
</g>
<!-- 1&#45;&#45;6 -->
<g id="edge3" class="edge">
<title>1&#45;&#45;6</title>
<path fill="none" stroke="black" stroke-width="0.75" d="M102.61,-3.93C105.32,-15.82 118.61,-74.02 121.28,-85.72"/>
</g>
<!-- 2&#45;&#45;5 -->
<g id="edge5" class="edge">
<title>2&#45;&#45;5</title>
<path fill="none" stroke="black" stroke-width="0.75" d="M72.21,-54.7C83.88,-52.08 140.97,-39.26 152.45,-36.69"/>
</g>
<!-- 2&#45;&#45;6 -->
<g id="edge6" class="edge">
<title>2&#45;&#45;6</title>
<path fill="none" stroke="black" stroke-width="0.75" d="M71.85,-56.25C79.68,-61.2 112.01,-81.62 119.97,-86.65"/>
</g>
<!-- 3 -->
<g id="node5" class="node">
<title>3</title>
<ellipse fill="black" stroke="black" cx="36.87" cy="-107.43" rx="1.8" ry="1.8"/>
</g>
<!-- 2&#45;&#45;3 -->
<g id="edge4" class="edge">
<title>2&#45;&#45;3</title>
<path fill="none" stroke="black" stroke-width="0.75" d="M69.02,-56.9C63.97,-64.84 43.15,-97.57 38.02,-105.63"/>
</g>
<!-- 7 -->
<g id="node6" class="node">
<title>7</title>
<ellipse fill="black" stroke="black" cx="88.11" cy="-140.53" rx="1.8" ry="1.8"/>
</g>
<!-- 2&#45;&#45;7 -->
<g id="edge7" class="edge">
<title>2&#45;&#45;7</title>
<path fill="none" stroke="black" stroke-width="0.75" d="M70.57,-57.27C73.06,-69.08 85.23,-126.87 87.68,-138.49"/>
</g>
<!-- 5&#45;&#45;6 -->
<g id="edge14" class="edge">
<title>5&#45;&#45;6</title>
<path fill="none" stroke="black" stroke-width="0.75" d="M153.37,-37.95C148.4,-45.78 127.92,-78.05 122.88,-86"/>
</g>
<!-- 9 -->
<g id="node9" class="node">
<title>9</title>
<ellipse fill="black" stroke="black" cx="206.94" cy="-69.69" rx="1.8" ry="1.8"/>
</g>
<!-- 5&#45;&#45;9 -->
<g id="edge15" class="edge">
<title>5&#45;&#45;9</title>
<path fill="none" stroke="black" stroke-width="0.75" d="M156.2,-37.35C164.17,-42.43 197.04,-63.38 205.14,-68.54"/>
</g>
<!-- 10 -->
<g id="node10" class="node">
<title>10</title>
<ellipse fill="black" stroke="black" cx="174.34" cy="-121.34" rx="1.8" ry="1.8"/>
</g>
<!-- 5&#45;&#45;10 -->
<g id="edge16" class="edge">
<title>5&#45;&#45;10</title>
<path fill="none" stroke="black" stroke-width="0.75" d="M154.95,-38.34C157.7,-50.11 171.16,-107.73 173.86,-119.31"/>
</g>
<!-- 6&#45;&#45;7 -->
<g id="edge17" class="edge">
<title>6&#45;&#45;7</title>
<path fill="none" stroke="black" stroke-width="0.75" d="M120.63,-89.53C115.52,-97.54 94.46,-130.58 89.27,-138.71"/>
</g>
<!-- 6&#45;&#45;9 -->
<g id="edge18" class="edge">
<title>6&#45;&#45;9</title>
<path fill="none" stroke="black" stroke-width="0.75" d="M123.86,-87.33C135.64,-84.82 193.32,-72.58 204.91,-70.12"/>
</g>
<!-- 6&#45;&#45;10 -->
<g id="edge19" class="edge">
<title>6&#45;&#45;10</title>
<path fill="none" stroke="black" stroke-width="0.75" d="M123.5,-88.89C131.48,-93.99 164.42,-115.01 172.53,-120.19"/>
</g>
<!-- 11 -->
<g id="node11" class="node">
<title>11</title>
<ellipse fill="black" stroke="black" cx="140.67" cy="-174.09" rx="1.8" ry="1.8"/>
</g>
<!-- 6&#45;&#45;11 -->
<g id="edge20" class="edge">
<title>6&#45;&#45;11</title>
<path fill="none" stroke="black" stroke-width="0.75" d="M122.22,-89.91C124.84,-101.85 137.64,-160.28 140.22,-172.03"/>
</g>
<!-- 3&#45;&#45;6 -->
<g id="edge9" class="edge">
<title>3&#45;&#45;6</title>
<path fill="none" stroke="black" stroke-width="0.75" d="M38.97,-106.94C50.72,-104.22 108.18,-90.92 119.73,-88.24"/>
</g>
<!-- 3&#45;&#45;7 -->
<g id="edge10" class="edge">
<title>3&#45;&#45;7</title>
<path fill="none" stroke="black" stroke-width="0.75" d="M38.58,-108.53C46.36,-113.55 78.45,-134.28 86.35,-139.39"/>
</g>
<!-- 4 -->
<g id="node7" class="node">
<title>4</title>
<ellipse fill="black" stroke="black" cx="1.8" cy="-158.7" rx="1.8" ry="1.8"/>
</g>
<!-- 3&#45;&#45;4 -->
<g id="edge8" class="edge">
<title>3&#45;&#45;4</title>
<path fill="none" stroke="black" stroke-width="0.75" d="M35.71,-109.13C30.38,-116.92 8.42,-149.03 3.01,-156.94"/>
</g>
<!-- 8 -->
<g id="node8" class="node">
<title>8</title>
<ellipse fill="black" stroke="black" cx="55.05" cy="-191.9" rx="1.8" ry="1.8"/>
</g>
<!-- 3&#45;&#45;8 -->
<g id="edge11" class="edge">
<title>3&#45;&#45;8</title>
<path fill="none" stroke="black" stroke-width="0.75" d="M37.32,-109.52C39.84,-121.2 52.14,-178.39 54.62,-189.88"/>
</g>
<!-- 7&#45;&#45;8 -->
<g id="edge21" class="edge">
<title>7&#45;&#45;8</title>
<path fill="none" stroke="black" stroke-width="0.75" d="M87.01,-142.23C81.99,-150.03 61.29,-182.21 56.19,-190.13"/>
</g>
<!-- 7&#45;&#45;10 -->
<g id="edge22" class="edge">
<title>7&#45;&#45;10</title>
<path fill="none" stroke="black" stroke-width="0.75" d="M90.24,-140.05C102.17,-137.4 160.55,-124.41 172.28,-121.8"/>
</g>
<!-- 7&#45;&#45;11 -->
<g id="edge23" class="edge">
<title>7&#45;&#45;11</title>
<path fill="none" stroke="black" stroke-width="0.75" d="M89.86,-141.64C97.84,-146.74 130.75,-167.76 138.86,-172.93"/>
</g>
<!-- 12 -->
<g id="node12" class="node">
<title>12</title>
<ellipse fill="black" stroke="black" cx="107.55" cy="-225.41" rx="1.8" ry="1.8"/>
</g>
<!-- 7&#45;&#45;12 -->
<g id="edge24" class="edge">
<title>7&#45;&#45;12</title>
<path fill="none" stroke="black" stroke-width="0.75" d="M88.59,-142.62C91.28,-154.37 104.44,-211.83 107.08,-223.38"/>
</g>
<!-- 4&#45;&#45;7 -->
<g id="edge12" class="edge">
<title>4&#45;&#45;7</title>
<path fill="none" stroke="black" stroke-width="0.75" d="M3.93,-158.25C15.87,-155.74 74.31,-143.43 86.05,-140.96"/>
</g>
<!-- 4&#45;&#45;8 -->
<g id="edge13" class="edge">
<title>4&#45;&#45;8</title>
<path fill="none" stroke="black" stroke-width="0.75" d="M3.57,-159.81C11.66,-164.85 45.01,-185.63 53.22,-190.75"/>
</g>
<!-- 8&#45;&#45;11 -->
<g id="edge25" class="edge">
<title>8&#45;&#45;11</title>
<path fill="none" stroke="black" stroke-width="0.75" d="M57.17,-191.45C69.01,-188.99 126.97,-176.94 138.62,-174.51"/>
</g>
<!-- 8&#45;&#45;12 -->
<g id="edge26" class="edge">
<title>8&#45;&#45;12</title>
<path fill="none" stroke="black" stroke-width="0.75" d="M56.8,-193.01C64.77,-198.1 97.65,-219.09 105.74,-224.26"/>
</g>
<!-- 9&#45;&#45;10 -->
<g id="edge27" class="edge">
<title>9&#45;&#45;10</title>
<path fill="none" stroke="black" stroke-width="0.75" d="M205.86,-71.41C200.91,-79.25 180.49,-111.6 175.46,-119.57"/>
</g>
<!-- 13 -->
<g id="node13" class="node">
<title>13</title>
<ellipse fill="black" stroke="black" cx="260.28" cy="-102.15" rx="1.8" ry="1.8"/>
</g>
<!-- 9&#45;&#45;13 -->
<g id="edge28" class="edge">
<title>9&#45;&#45;13</title>
<path fill="none" stroke="black" stroke-width="0.75" d="M208.72,-70.77C216.82,-75.7 250.22,-96.03 258.44,-101.03"/>
</g>
<!-- 14 -->
<g id="node14" class="node">
<title>14</title>
<ellipse fill="black" stroke="black" cx="225.68" cy="-154.27" rx="1.8" ry="1.8"/>
</g>
<!-- 9&#45;&#45;14 -->
<g id="edge29" class="edge">
<title>9&#45;&#45;14</title>
<path fill="none" stroke="black" stroke-width="0.75" d="M207.41,-71.78C210,-83.48 222.68,-140.74 225.23,-152.25"/>
</g>
<!-- 10&#45;&#45;11 -->
<g id="edge30" class="edge">
<title>10&#45;&#45;11</title>
<path fill="none" stroke="black" stroke-width="0.75" d="M173.22,-123.1C168.11,-131.11 147.02,-164.14 141.83,-172.27"/>
</g>
<!-- 10&#45;&#45;13 -->
<g id="edge31" class="edge">
<title>10&#45;&#45;13</title>
<path fill="none" stroke="black" stroke-width="0.75" d="M176.46,-120.87C188.35,-118.21 246.53,-105.22 258.23,-102.61"/>
</g>
<!-- 10&#45;&#45;14 -->
<g id="edge32" class="edge">
<title>10&#45;&#45;14</title>
<path fill="none" stroke="black" stroke-width="0.75" d="M176.05,-122.44C183.84,-127.44 215.99,-148.06 223.91,-153.13"/>
</g>
<!-- 15 -->
<g id="node15" class="node">
<title>15</title>
<ellipse fill="black" stroke="black" cx="192.17" cy="-206.76" rx="1.8" ry="1.8"/>
</g>
<!-- 10&#45;&#45;15 -->
<g id="edge33" class="edge">
<title>10&#45;&#45;15</title>
<path fill="none" stroke="black" stroke-width="0.75" d="M174.78,-123.46C177.24,-135.27 189.31,-193.1 191.74,-204.72"/>
</g>
<!-- 11&#45;&#45;12 -->
<g id="edge34" class="edge">
<title>11&#45;&#45;12</title>
<path fill="none" stroke="black" stroke-width="0.75" d="M139.56,-175.79C134.54,-183.59 113.8,-215.73 108.69,-223.64"/>
</g>
<!-- 11&#45;&#45;14 -->
<g id="edge35" class="edge">
<title>11&#45;&#45;14</title>
<path fill="none" stroke="black" stroke-width="0.75" d="M142.77,-173.6C154.53,-170.86 212.08,-157.44 223.65,-154.74"/>
</g>
<!-- 11&#45;&#45;15 -->
<g id="edge36" class="edge">
<title>11&#45;&#45;15</title>
<path fill="none" stroke="black" stroke-width="0.75" d="M142.38,-175.17C150.2,-180.13 182.45,-200.6 190.39,-205.63"/>
</g>
<!-- 16 -->
<g id="node16" class="node">
<title>16</title>
<ellipse fill="black" stroke="black" cx="159.51" cy="-260.09" rx="1.8" ry="1.8"/>
</g>
<!-- 11&#45;&#45;16 -->
<g id="edge37" class="edge">
<title>11&#45;&#45;16</title>
<path fill="none" stroke="black" stroke-width="0.75" d="M141.13,-176.21C143.74,-188.11 156.5,-246.34 159.06,-258.04"/>
</g>
<!-- 12&#45;&#45;15 -->
<g id="edge38" class="edge">
<title>12&#45;&#45;15</title>
<path fill="none" stroke="black" stroke-width="0.75" d="M109.64,-224.95C121.35,-222.37 178.63,-209.74 190.15,-207.2"/>
</g>
<!-- 12&#45;&#45;16 -->
<g id="edge39" class="edge">
<title>12&#45;&#45;16</title>
<path fill="none" stroke="black" stroke-width="0.75" d="M109.28,-226.56C117.17,-231.83 149.71,-253.55 157.72,-258.9"/>
</g>
<!-- 13&#45;&#45;14 -->
<g id="edge40" class="edge">
<title>13&#45;&#45;14</title>
<path fill="none" stroke="black" stroke-width="0.75" d="M259.13,-103.88C253.87,-111.8 232.2,-144.44 226.87,-152.47"/>
</g>
<!-- 14&#45;&#45;15 -->
<g id="edge41" class="edge">
<title>14&#45;&#45;15</title>
<path fill="none" stroke="black" stroke-width="0.75" d="M224.56,-156.01C219.47,-163.98 198.49,-196.86 193.32,-204.95"/>
</g>
<!-- 15&#45;&#45;16 -->
<g id="edge42" class="edge">
<title>15&#45;&#45;16</title>
<path fill="none" stroke="black" stroke-width="0.75" d="M191.08,-208.53C186.12,-216.63 165.67,-250.03 160.64,-258.25"/>
</g>
</g>
</svg>
