<svg xmlns="http://www.w3.org/2000/svg" width="75.0" height="100.0" viewBox="7.50 7.50 85.00 110.00">
<g fill="none" stroke="black" stroke-width="0.0400%" transform="translate(0, 125.0000) scale(12.5000, -12.5000)">
<circle cx="1.00" cy="1.00" r="0.04" />
<circle cx="1.00" cy="2.00" r="0.04" />
<circle cx="1.00" cy="3.00" r="0.04" />
<circle cx="1.00" cy="4.00" r="0.04" />
<circle cx="1.00" cy="5.00" r="0.04" />
<circle cx="1.00" cy="6.00" r="0.04" />
<circle cx="1.00" cy="7.00" r="0.04" />
<circle cx="1.00" cy="8.00" r="0.04" />
<circle cx="1.00" cy="9.00" r="0.04" />
<circle cx="2.00" cy="1.00" r="0.04" />
<circle cx="2.00" cy="2.00" r="0.04" />
<circle cx="2.00" cy="3.00" r="0.04" />
<circle cx="2.00" cy="4.00" r="0.04" />
<circle cx="2.00" cy="5.00" r="0.04" />
<circle cx="2.00" cy="6.00" r="0.04" />
<circle cx="2.00" cy="7.00" r="0.04" />
<circle cx="2.00" cy="8.00" r="0.04" />
<circle cx="2.00" cy="9.00" r="0.04" />
<circle cx="3.00" cy="1.00" r="0.04" />
<circle cx="3.00" cy="2.00" r="0.04" />
<circle cx="3.00" cy="3.00" r="0.04" />
<circle cx="3.00" cy="4.00" r="0.04" />
<circle cx="3.00" cy="5.00" r="0.04" />
<circle cx="3.00" cy="6.00" r="0.04" />
<circle cx="3.00" cy="7.00" r="0.04" />
<circle cx="3.00" cy="8.00" r="0.04" />
<circle cx="3.00" cy="9.00" r="0.04" />
<circle cx="4.00" cy="1.00" r="0.04" />
<circle cx="4.00" cy="2.00" r="0.04" />
<circle cx="4.00" cy="3.00" r="0.04" />
<circle cx="4.00" cy="4.00" r="0.04" />
<circle cx="4.00" cy="5.00" r="0.04" />
<circle cx="4.00" cy="6.00" r="0.04" />
<circle cx="4.00" cy="7.00" r="0.04" />
<circle cx="4.00" cy="8.00" r="0.04" />
<circle cx="4.00" cy="9.00" r="0.04" />
<circle cx="5.00" cy="1.00" r="0.04" />
<circle cx="5.00" cy="2.00" r="0.04" />
<circle cx="5.00" cy="3.00" r="0.04" />
<circle cx="5.00" cy="4.00" r="0.04" />
<circle cx="5.00" cy="5.00" r="0.04" />
<circle cx="5.00" cy="6.00" r="0.04" />
<circle cx="5.00" cy="7.00" r="0.04" />
<circle cx="5.00" cy="8.00" r="0.04" />
<circle cx="5.00" cy="9.00" r="0.04" />
<circle cx="6.00" cy="1.00" r="0.04" />
<circle cx="6.00" cy="2.00" r="0.04" />
<circle cx="6.00" cy="3.00" r="0.04" />
<circle cx="6.00" cy="4.00" r="0.04" />
<circle cx="6.00" cy="5.00" r="0.04" />
<circle cx="6.00" cy="6.00" r="0.04" />
<circle cx="6.00" cy="7.00" r="0.04" />
<circle cx="6.00" cy="8.00" r="0.04" />
<circle cx="6.00" cy="9.00" r="0.04" />
<circle cx="7.00" cy="1.00" r="0.04" />
<circle cx="7.00" cy="2.00" r="0.04" />
<circle cx="7.00" cy="3.00" r="0.04" />
<circle cx="7.00" cy="4.00" r="0.04" />
<circle cx="7.00" cy="5.00" r="0.04" />
<circle cx="7.00" cy="6.00" r="0.04" />
<circle cx="7.00" cy="7.00" r="0.04" />
<circle cx="7.00" cy="8.00" r="0.04" />
<circle cx="7.00" cy="9.00" r="0.04" />
<line x1="1.00" y1="1.00" x2="2.00" y2="3.00" />
<line x1="1.00" y1="1.00" x2="3.00" y2="2.00" />
<line x1="1.00" y1="2.00" x2="2.00" y2="4.00" />
<line x1="1.00" y1="2.00" x2="3.00" y2="1.00" />
<line x1="1.00" y1="2.00" x2="3.00" y2="3.00" />
<line x1="1.00" y1="3.00" x2="2.00" y2="1.00" />
<line x1="1.00" y1="3.00" x2="2.00" y2="5.00" />
<line x1="1.00" y1="3.00" x2="3.00" y2="2.00" />
<line x1="1.00" y1="3.00" x2="3.00" y2="4.00" />
<line x1="1.00" y1="4.00" x2="2.00" y2="2.00" />
<line x1="1.00" y1="4.00" x2="2.00" y2="6.00" />
<line x1="1.00" y1="4.00" x2="3.00" y2="3.00" />
<line x1="1.00" y1="4.00" x2="3.00" y2="5.00" />
<line x1="1.00" y1="5.00" x2="2.00" y2="3.00" />
<line x1="1.00" y1="5.00" x2="2.00" y2="7.00" />
<line x1="1.00" y1="5.00" x2="3.00" y2="4.00" />
<line x1="1.00" y1="5.00" x2="3.00" y2="6.00" />
<line x1="1.00" y1="6.00" x2="2.00" y2="4.00" />
<line x1="1.00" y1="6.00" x2="2.00" y2="8.00" />
<line x1="1.00" y1="6.00" x2="3.00" y2="5.00" />
<line x1="1.00" y1="6.00" x2="3.00" y2="7.00" />
<line x1="1.00" y1="7.00" x2="2.00" y2="5.00" />
<line x1="1.00" y1="7.00" x2="2.00" y2="9.00" />
<line x1="1.00" y1="7.00" x2="3.00" y2="6.00" />
<line x1="1.00" y1="7.00" x2="3.00" y2="8.00" />
<line x1="1.00" y1="8.00" x2="2.00" y2="6.00" />
<line x1="1.00" y1="8.00" x2="3.00" y2="7.00" />
<line x1="1.00" y1="8.00" x2="3.00" y2="9.00" />
<line x1="1.00" y1="9.00" x2="2.00" y2="7.00" />
<line x1="1.00" y1="9.00" x2="3.00" y2="8.00" />
<line x1="2.00" y1="1.00" x2="3.00" y2="3.00" />
<line x1="2.00" y1="1.00" x2="4.00" y2="2.00" />
<line x1="2.00" y1="2.00" x2="3.00" y2="4.00" />
<line x1="2.00" y1="2.00" x2="4.00" y2="1.00" />
<line x1="2.00" y1="2.00" x2="4.00" y2="3.00" />
<line x1="2.00" y1="3.00" x2="3.00" y2="1.00" />
<line x1="2.00" y1="3.00" x2="3.00" y2="5.00" />
<line x1="2.00" y1="3.00" x2="4.00" y2="2.00" />
<line x1="2.00" y1="3.00" x2="4.00" y2="4.00" />
<line x1="2.00" y1="4.00" x2="3.00" y2="2.00" />
<line x1="2.00" y1="4.00" x2="3.00" y2="6.00" />
<line x1="2.00" y1="4.00" x2="4.00" y2="3.00" />
<line x1="2.00" y1="4.00" x2="4.00" y2="5.00" />
<line x1="2.00" y1="5.00" x2="3.00" y2="3.00" />
<line x1="2.00" y1="5.00" x2="3.00" y2="7.00" />
<line x1="2.00" y1="5.00" x2="4.00" y2="4.00" />
<line x1="2.00" y1="5.00" x2="4.00" y2="6.00" />
<line x1="2.00" y1="6.00" x2="3.00" y2="4.00" />
<line x1="2.00" y1="6.00" x2="3.00" y2="8.00" />
<line x1="2.00" y1="6.00" x2="4.00" y2="5.00" />
<line x1="2.00" y1="6.00" x2="4.00" y2="7.00" />
<line x1="2.00" y1="7.00" x2="3.00" y2="5.00" />
<line x1="2.00" y1="7.00" x2="3.00" y2="9.00" />
<line x1="2.00" y1="7.00" x2="4.00" y2="6.00" />
<line x1="2.00" y1="7.00" x2="4.00" y2="8.00" />
<line x1="2.00" y1="8.00" x2="3.00" y2="6.00" />
<line x1="2.00" y1="8.00" x2="4.00" y2="7.00" />
<line x1="2.00" y1="8.00" x2="4.00" y2="9.00" />
<line x1="2.00" y1="9.00" x2="3.00" y2="7.00" />
<line x1="2.00" y1="9.00" x2="4.00" y2="8.00" />
<line x1="3.00" y1="1.00" x2="4.00" y2="3.00" />
<line x1="3.00" y1="1.00" x2="5.00" y2="2.00" />
<line x1="3.00" y1="2.00" x2="4.00" y2="4.00" />
<line x1="3.00" y1="2.00" x2="5.00" y2="1.00" />
<line x1="3.00" y1="2.00" x2="5.00" y2="3.00" />
<line x1="3.00" y1="3.00" x2="4.00" y2="1.00" />
<line x1="3.00" y1="3.00" x2="4.00" y2="5.00" />
<line x1="3.00" y1="3.00" x2="5.00" y2="2.00" />
<line x1="3.00" y1="3.00" x2="5.00" y2="4.00" />
<line x1="3.00" y1="4.00" x2="4.00" y2="2.00" />
<line x1="3.00" y1="4.00" x2="4.00" y2="6.00" />
<line x1="3.00" y1="4.00" x2="5.00" y2="3.00" />
<line x1="3.00" y1="4.00" x2="5.00" y2="5.00" />
<line x1="3.00" y1="5.00" x2="4.00" y2="3.00" />
<line x1="3.00" y1="5.00" x2="4.00" y2="7.00" />
<line x1="3.00" y1="5.00" x2="5.00" y2="4.00" />
<line x1="3.00" y1="5.00" x2="5.00" y2="6.00" />
<line x1="3.00" y1="6.00" x2="4.00" y2="4.00" />
<line x1="3.00" y1="6.00" x2="4.00" y2="8.00" />
<line x1="3.00" y1="6.00" x2="5.00" y2="5.00" />
<line x1="3.00" y1="6.00" x2="5.00" y2="7.00" />
<line x1="3.00" y1="7.00" x2="4.00" y2="5.00" />
<line x1="3.00" y1="7.00" x2="4.00" y2="9.00" />
<line x1="3.00" y1="7.00" x2="5.00" y2="6.00" />
<line x1="3.00" y1="7.00" x2="5.00" y2="8.00" />
<line x1="3.00" y1="8.00" x2="4.00" y2="6.00" />
<line x1="3.00" y1="8.00" x2="5.00" y2="7.00" />
<line x1="3.00" y1="8.00" x2="5.00" y2="9.00" />
<line x1="3.00" y1="9.00" x2="4.00" y2="7.00" />
<line x1="3.00" y1="9.00" x2="5.00" y2="8.00" />
<line x1="4.00" y1="1.00" x2="5.00" y2="3.00" />
<line x1="4.00" y1="1.00" x2="6.00" y2="2.00" />
<line x1="4.00" y1="2.00" x2="5.00" y2="4.00" />
<line x1="4.00" y1="2.00" x2="6.00" y2="1.00" />
<line x1="4.00" y1="2.00" x2="6.00" y2="3.00" />
<line x1="4.00" y1="3.00" x2="5.00" y2="1.00" />
<line x1="4.00" y1="3.00" x2="5.00" y2="5.00" />
<line x1="4.00" y1="3.00" x2="6.00" y2="2.00" />
<line x1="4.00" y1="3.00" x2="6.00" y2="4.00" />
<line x1="4.00" y1="4.00" x2="5.00" y2="2.00" />
<line x1="4.00" y1="4.00" x2="5.00" y2="6.00" />
<line x1="4.00" y1="4.00" x2="6.00" y2="3.00" />
<line x1="4.00" y1="4.00" x2="6.00" y2="5.00" />
<line x1="4.00" y1="5.00" x2="5.00" y2="3.00" />
<line x1="4.00" y1="5.00" x2="5.00" y2="7.00" />
<line x1="4.00" y1="5.00" x2="6.00" y2="4.00" />
<line x1="4.00" y1="5.00" x2="6.00" y2="6.00" />
<line x1="4.00" y1="6.00" x2="5.00" y2="4.00" />
<line x1="4.00" y1="6.00" x2="5.00" y2="8.00" />
<line x1="4.00" y1="6.00" x2="6.00" y2="5.00" />
<line x1="4.00" y1="6.00" x2="6.00" y2="7.00" />
<line x1="4.00" y1="7.00" x2="5.00" y2="5.00" />
<line x1="4.00" y1="7.00" x2="5.00" y2="9.00" />
<line x1="4.00" y1="7.00" x2="6.00" y2="6.00" />
<line x1="4.00" y1="7.00" x2="6.00" y2="8.00" />
<line x1="4.00" y1="8.00" x2="5.00" y2="6.00" />
<line x1="4.00" y1="8.00" x2="6.00" y2="7.00" />
<line x1="4.00" y1="8.00" x2="6.00" y2="9.00" />
<line x1="4.00" y1="9.00" x2="5.00" y2="7.00" />
<line x1="4.00" y1="9.00" x2="6.00" y2="8.00" />
<line x1="5.00" y1="1.00" x2="6.00" y2="3.00" />
<line x1="5.00" y1="1.00" x2="7.00" y2="2.00" />
<line x1="5.00" y1="2.00" x2="6.00" y2="4.00" />
<line x1="5.00" y1="2.00" x2="7.00" y2="1.00" />
<line x1="5.00" y1="2.00" x2="7.00" y2="3.00" />
<line x1="5.00" y1="3.00" x2="6.00" y2="1.00" />
<line x1="5.00" y1="3.00" x2="6.00" y2="5.00" />
<line x1="5.00" y1="3.00" x2="7.00" y2="2.00" />
<line x1="5.00" y1="3.00" x2="7.00" y2="4.00" />
<line x1="5.00" y1="4.00" x2="6.00" y2="2.00" />
<line x1="5.00" y1="4.00" x2="6.00" y2="6.00" />
<line x1="5.00" y1="4.00" x2="7.00" y2="3.00" />
<line x1="5.00" y1="4.00" x2="7.00" y2="5.00" />
<line x1="5.00" y1="5.00" x2="6.00" y2="3.00" />
<line x1="5.00" y1="5.00" x2="6.00" y2="7.00" />
<line x1="5.00" y1="5.00" x2="7.00" y2="4.00" />
<line x1="5.00" y1="5.00" x2="7.00" y2="6.00" />
<line x1="5.00" y1="6.00" x2="6.00" y2="4.00" />
<line x1="5.00" y1="6.00" x2="6.00" y2="8.00" />
<line x1="5.00" y1="6.00" x2="7.00" y2="5.00" />
<line x1="5.00" y1="6.00" x2="7.00" y2="7.00" />
<line x1="5.00" y1="7.00" x2="6.00" y2="5.00" />
<line x1="5.00" y1="7.00" x2="6.00" y2="9.00" />
<line x1="5.00" y1="7.00" x2="7.00" y2="6.00" />
<line x1="5.00" y1="7.00" x2="7.00" y2="8.00" />
<line x1="5.00" y1="8.00" x2="6.00" y2="6.00" />
<line x1="5.00" y1="8.00" x2="7.00" y2="7.00" />
<line x1="5.00" y1="8.00" x2="7.00" y2="9.00" />
<line x1="5.00" y1="9.00" x2="6.00" y2="7.00" />
<line x1="5.00" y1="9.00" x2="7.00" y2="8.00" />
<line x1="6.00" y1="1.00" x2="7.00" y2="3.00" />
<line x1="6.00" y1="2.00" x2="7.00" y2="4.00" />
<line x1="6.00" y1="3.00" x2="7.00" y2="1.00" />
<line x1="6.00" y1="3.00" x2="7.00" y2="5.00" />
<line x1="6.00" y1="4.00" x2="7.00" y2="2.00" />
<line x1="6.00" y1="4.00" x2="7.00" y2="6.00" />
<line x1="6.00" y1="5.00" x2="7.00" y2="3.00" />
<line x1="6.00" y1="5.00" x2="7.00" y2="7.00" />
<line x1="6.00" y1="6.00" x2="7.00" y2="4.00" />
<line x1="6.00" y1="6.00" x2="7.00" y2="8.00" />
<line x1="6.00" y1="7.00" x2="7.00" y2="5.00" />
<line x1="6.00" y1="7.00" x2="7.00" y2="9.00" />
<line x1="6.00" y1="8.00" x2="7.00" y2="6.00" />
<line x1="6.00" y1="9.00" x2="7.00" y2="7.00" />
</g>
</svg>