<svg xmlns="http://www.w3.org/2000/svg" width="100.0" height="100.0" viewBox="-5.0 -2.2 110.0 110.0">
<g fill="none" stroke="black" stroke-width="0.5400%" transform="translate(0, 105.5556) scale(0.9259, -0.9259)">
<g stroke="none" stroke-width="0" >
<g fill="rgb(0,0,0)" ><rect x="0.0" y="84.0" width="3.0" height="3.0" /></g>
<g fill="rgb(0,0,0)" ><rect x="0.0" y="69.0" width="3.0" height="3.0" /></g>
<g fill="rgb(0,0,0)" ><rect x="3.0" y="81.0" width="3.0" height="3.0" /></g>
<g fill="rgb(0,0,0)" ><rect x="3.0" y="72.0" width="3.0" height="3.0" /></g>
<g fill="rgb(0,0,0)" ><rect x="3.0" y="66.0" width="3.0" height="3.0" /></g>
<g fill="rgb(0,0,0)" ><rect x="6.0" y="90.0" width="3.0" height="3.0" /></g>
<g fill="rgb(0,0,0)" ><rect x="6.0" y="78.0" width="3.0" height="3.0" /></g>
<g fill="rgb(0,0,0)" ><rect x="6.0" y="69.0" width="3.0" height="3.0" /></g>
<g fill="rgb(0,0,0)" ><rect x="6.0" y="63.0" width="3.0" height="3.0" /></g>
<g fill="rgb(0,0,0)" ><rect x="9.0" y="87.0" width="3.0" height="3.0" /></g>
<g fill="rgb(0,0,0)" ><rect x="9.0" y="75.0" width="3.0" height="3.0" /></g>
<g fill="rgb(0,0,0)" ><rect x="9.0" y="66.0" width="3.0" height="3.0" /></g>
<g fill="rgb(0,0,0)" ><rect x="9.0" y="60.0" width="3.0" height="3.0" /></g>
<g fill="rgb(0,0,0)" ><rect x="12.0" y="84.0" width="3.0" height="3.0" /></g>
<g fill="rgb(0,0,0)" ><rect x="12.0" y="63.0" width="3.0" height="3.0" /></g>
<g fill="rgb(0,0,0)" ><rect x="12.0" y="57.0" width="3.0" height="3.0" /></g>
<g fill="rgb(0,0,0)" ><rect x="15.0" y="81.0" width="3.0" height="3.0" /></g>
<g fill="rgb(0,0,0)" ><rect x="15.0" y="60.0" width="3.0" height="3.0" /></g>
<g fill="rgb(0,0,0)" ><rect x="18.0" y="102.0" width="3.0" height="3.0" /></g>
<g fill="rgb(0,0,0)" ><rect x="18.0" y="66.0" width="3.0" height="3.0" /></g>
<g fill="rgb(0,0,0)" ><rect x="18.0" y="51.0" width="3.0" height="3.0" /></g>
<g fill="rgb(0,0,0)" ><rect x="21.0" y="99.0" width="3.0" height="3.0" /></g>
<g fill="rgb(0,0,0)" ><rect x="21.0" y="63.0" width="3.0" height="3.0" /></g>
<g fill="rgb(0,0,0)" ><rect x="21.0" y="54.0" width="3.0" height="3.0" /></g>
<g fill="rgb(0,0,0)" ><rect x="21.0" y="48.0" width="3.0" height="3.0" /></g>
<g fill="rgb(0,0,0)" ><rect x="24.0" y="108.0" width="3.0" height="3.0" /></g>
<g fill="rgb(0,0,0)" ><rect x="24.0" y="96.0" width="3.0" height="3.0" /></g>
<g fill="rgb(0,0,0)" ><rect x="24.0" y="72.0" width="3.0" height="3.0" /></g>
<g fill="rgb(0,0,0)" ><rect x="24.0" y="60.0" width="3.0" height="3.0" /></g>
<g fill="rgb(0,0,0)" ><rect x="24.0" y="51.0" width="3.0" height="3.0" /></g>
<g fill="rgb(0,0,0)" ><rect x="24.0" y="45.0" width="3.0" height="3.0" /></g>
<g fill="rgb(0,0,0)" ><rect x="27.0" y="105.0" width="3.0" height="3.0" /></g>
<g fill="rgb(0,0,0)" ><rect x="27.0" y="93.0" width="3.0" height="3.0" /></g>
<g fill="rgb(0,0,0)" ><rect x="27.0" y="69.0" width="3.0" height="3.0" /></g>
<g fill="rgb(0,0,0)" ><rect x="27.0" y="57.0" width="3.0" height="3.0" /></g>
<g fill="rgb(0,0,0)" ><rect x="27.0" y="48.0" width="3.0" height="3.0" /></g>
<g fill="rgb(0,0,0)" ><rect x="27.0" y="42.0" width="3.0" height="3.0" /></g>
<g fill="rgb(0,0,0)" ><rect x="30.0" y="102.0" width="3.0" height="3.0" /></g>
<g fill="rgb(0,0,0)" ><rect x="30.0" y="66.0" width="3.0" height="3.0" /></g>
<g fill="rgb(0,0,0)" ><rect x="30.0" y="45.0" width="3.0" height="3.0" /></g>
<g fill="rgb(0,0,0)" ><rect x="30.0" y="39.0" width="3.0" height="3.0" /></g>
<g fill="rgb(0,0,0)" ><rect x="33.0" y="99.0" width="3.0" height="3.0" /></g>
<g fill="rgb(0,0,0)" ><rect x="33.0" y="63.0" width="3.0" height="3.0" /></g>
<g fill="rgb(0,0,0)" ><rect x="33.0" y="42.0" width="3.0" height="3.0" /></g>
<g fill="rgb(0,0,0)" ><rect x="36.0" y="105.0" width="3.0" height="3.0" /></g>
<g fill="rgb(0,0,0)" ><rect x="36.0" y="84.0" width="3.0" height="3.0" /></g>
<g fill="rgb(0,0,0)" ><rect x="36.0" y="48.0" width="3.0" height="3.0" /></g>
<g fill="rgb(0,0,0)" ><rect x="36.0" y="33.0" width="3.0" height="3.0" /></g>
<g fill="rgb(0,0,0)" ><rect x="39.0" y="108.0" width="3.0" height="3.0" /></g>
<g fill="rgb(0,0,0)" ><rect x="39.0" y="102.0" width="3.0" height="3.0" /></g>
<g fill="rgb(0,0,0)" ><rect x="39.0" y="81.0" width="3.0" height="3.0" /></g>
<g fill="rgb(0,0,0)" ><rect x="39.0" y="45.0" width="3.0" height="3.0" /></g>
<g fill="rgb(0,0,0)" ><rect x="39.0" y="36.0" width="3.0" height="3.0" /></g>
<g fill="rgb(0,0,0)" ><rect x="39.0" y="30.0" width="3.0" height="3.0" /></g>
<g fill="rgb(0,0,0)" ><rect x="42.0" y="105.0" width="3.0" height="3.0" /></g>
<g fill="rgb(0,0,0)" ><rect x="42.0" y="99.0" width="3.0" height="3.0" /></g>
<g fill="rgb(0,0,0)" ><rect x="42.0" y="90.0" width="3.0" height="3.0" /></g>
<g fill="rgb(0,0,0)" ><rect x="42.0" y="78.0" width="3.0" height="3.0" /></g>
<g fill="rgb(0,0,0)" ><rect x="42.0" y="54.0" width="3.0" height="3.0" /></g>
<g fill="rgb(0,0,0)" ><rect x="42.0" y="42.0" width="3.0" height="3.0" /></g>
<g fill="rgb(0,0,0)" ><rect x="42.0" y="33.0" width="3.0" height="3.0" /></g>
<g fill="rgb(0,0,0)" ><rect x="42.0" y="27.0" width="3.0" height="3.0" /></g>
<g fill="rgb(0,0,0)" ><rect x="45.0" y="102.0" width="3.0" height="3.0" /></g>
<g fill="rgb(0,0,0)" ><rect x="45.0" y="96.0" width="3.0" height="3.0" /></g>
<g fill="rgb(0,0,0)" ><rect x="45.0" y="87.0" width="3.0" height="3.0" /></g>
<g fill="rgb(0,0,0)" ><rect x="45.0" y="75.0" width="3.0" height="3.0" /></g>
<g fill="rgb(0,0,0)" ><rect x="45.0" y="51.0" width="3.0" height="3.0" /></g>
<g fill="rgb(0,0,0)" ><rect x="45.0" y="39.0" width="3.0" height="3.0" /></g>
<g fill="rgb(0,0,0)" ><rect x="45.0" y="30.0" width="3.0" height="3.0" /></g>
<g fill="rgb(0,0,0)" ><rect x="45.0" y="24.0" width="3.0" height="3.0" /></g>
<g fill="rgb(0,0,0)" ><rect x="48.0" y="99.0" width="3.0" height="3.0" /></g>
<g fill="rgb(0,0,0)" ><rect x="48.0" y="93.0" width="3.0" height="3.0" /></g>
<g fill="rgb(0,0,0)" ><rect x="48.0" y="84.0" width="3.0" height="3.0" /></g>
<g fill="rgb(0,0,0)" ><rect x="48.0" y="48.0" width="3.0" height="3.0" /></g>
<g fill="rgb(0,0,0)" ><rect x="48.0" y="27.0" width="3.0" height="3.0" /></g>
<g fill="rgb(0,0,0)" ><rect x="48.0" y="21.0" width="3.0" height="3.0" /></g>
<g fill="rgb(0,0,0)" ><rect x="51.0" y="96.0" width="3.0" height="3.0" /></g>
<g fill="rgb(0,0,0)" ><rect x="51.0" y="81.0" width="3.0" height="3.0" /></g>
<g fill="rgb(0,0,0)" ><rect x="51.0" y="45.0" width="3.0" height="3.0" /></g>
<g fill="rgb(0,0,0)" ><rect x="51.0" y="24.0" width="3.0" height="3.0" /></g>
<g fill="rgb(0,0,0)" ><rect x="54.0" y="87.0" width="3.0" height="3.0" /></g>
<g fill="rgb(0,0,0)" ><rect x="54.0" y="66.0" width="3.0" height="3.0" /></g>
<g fill="rgb(0,0,0)" ><rect x="54.0" y="30.0" width="3.0" height="3.0" /></g>
<g fill="rgb(0,0,0)" ><rect x="54.0" y="15.0" width="3.0" height="3.0" /></g>
<g fill="rgb(0,0,0)" ><rect x="57.0" y="90.0" width="3.0" height="3.0" /></g>
<g fill="rgb(0,0,0)" ><rect x="57.0" y="84.0" width="3.0" height="3.0" /></g>
<g fill="rgb(0,0,0)" ><rect x="57.0" y="63.0" width="3.0" height="3.0" /></g>
<g fill="rgb(0,0,0)" ><rect x="57.0" y="27.0" width="3.0" height="3.0" /></g>
<g fill="rgb(0,0,0)" ><rect x="57.0" y="18.0" width="3.0" height="3.0" /></g>
<g fill="rgb(0,0,0)" ><rect x="57.0" y="12.0" width="3.0" height="3.0" /></g>
<g fill="rgb(0,0,0)" ><rect x="60.0" y="87.0" width="3.0" height="3.0" /></g>
<g fill="rgb(0,0,0)" ><rect x="60.0" y="81.0" width="3.0" height="3.0" /></g>
<g fill="rgb(0,0,0)" ><rect x="60.0" y="72.0" width="3.0" height="3.0" /></g>
<g fill="rgb(0,0,0)" ><rect x="60.0" y="60.0" width="3.0" height="3.0" /></g>
<g fill="rgb(0,0,0)" ><rect x="60.0" y="36.0" width="3.0" height="3.0" /></g>
<g fill="rgb(0,0,0)" ><rect x="60.0" y="24.0" width="3.0" height="3.0" /></g>
<g fill="rgb(0,0,0)" ><rect x="60.0" y="15.0" width="3.0" height="3.0" /></g>
<g fill="rgb(0,0,0)" ><rect x="60.0" y="9.0" width="3.0" height="3.0" /></g>
<g fill="rgb(0,0,0)" ><rect x="63.0" y="84.0" width="3.0" height="3.0" /></g>
<g fill="rgb(0,0,0)" ><rect x="63.0" y="78.0" width="3.0" height="3.0" /></g>
<g fill="rgb(0,0,0)" ><rect x="63.0" y="69.0" width="3.0" height="3.0" /></g>
<g fill="rgb(0,0,0)" ><rect x="63.0" y="57.0" width="3.0" height="3.0" /></g>
<g fill="rgb(0,0,0)" ><rect x="63.0" y="33.0" width="3.0" height="3.0" /></g>
<g fill="rgb(0,0,0)" ><rect x="63.0" y="21.0" width="3.0" height="3.0" /></g>
<g fill="rgb(0,0,0)" ><rect x="63.0" y="12.0" width="3.0" height="3.0" /></g>
<g fill="rgb(0,0,0)" ><rect x="63.0" y="6.0" width="3.0" height="3.0" /></g>
<g fill="rgb(0,0,0)" ><rect x="66.0" y="81.0" width="3.0" height="3.0" /></g>
<g fill="rgb(0,0,0)" ><rect x="66.0" y="75.0" width="3.0" height="3.0" /></g>
<g fill="rgb(0,0,0)" ><rect x="66.0" y="66.0" width="3.0" height="3.0" /></g>
<g fill="rgb(0,0,0)" ><rect x="66.0" y="30.0" width="3.0" height="3.0" /></g>
<g fill="rgb(0,0,0)" ><rect x="66.0" y="9.0" width="3.0" height="3.0" /></g>
<g fill="rgb(0,0,0)" ><rect x="66.0" y="3.0" width="3.0" height="3.0" /></g>
<g fill="rgb(0,0,0)" ><rect x="69.0" y="78.0" width="3.0" height="3.0" /></g>
<g fill="rgb(0,0,0)" ><rect x="69.0" y="63.0" width="3.0" height="3.0" /></g>
<g fill="rgb(0,0,0)" ><rect x="69.0" y="27.0" width="3.0" height="3.0" /></g>
<g fill="rgb(0,0,0)" ><rect x="69.0" y="6.0" width="3.0" height="3.0" /></g>
<g fill="rgb(0,0,0)" ><rect x="72.0" y="69.0" width="3.0" height="3.0" /></g>
<g fill="rgb(0,0,0)" ><rect x="72.0" y="48.0" width="3.0" height="3.0" /></g>
<g fill="rgb(0,0,0)" ><rect x="72.0" y="12.0" width="3.0" height="3.0" /></g>
<g fill="rgb(0,0,0)" ><rect x="75.0" y="72.0" width="3.0" height="3.0" /></g>
<g fill="rgb(0,0,0)" ><rect x="75.0" y="66.0" width="3.0" height="3.0" /></g>
<g fill="rgb(0,0,0)" ><rect x="75.0" y="45.0" width="3.0" height="3.0" /></g>
<g fill="rgb(0,0,0)" ><rect x="75.0" y="9.0" width="3.0" height="3.0" /></g>
<g fill="rgb(0,0,0)" ><rect x="78.0" y="69.0" width="3.0" height="3.0" /></g>
<g fill="rgb(0,0,0)" ><rect x="78.0" y="63.0" width="3.0" height="3.0" /></g>
<g fill="rgb(0,0,0)" ><rect x="78.0" y="54.0" width="3.0" height="3.0" /></g>
<g fill="rgb(0,0,0)" ><rect x="78.0" y="42.0" width="3.0" height="3.0" /></g>
<g fill="rgb(0,0,0)" ><rect x="78.0" y="18.0" width="3.0" height="3.0" /></g>
<g fill="rgb(0,0,0)" ><rect x="78.0" y="6.0" width="3.0" height="3.0" /></g>
<g fill="rgb(0,0,0)" ><rect x="81.0" y="66.0" width="3.0" height="3.0" /></g>
<g fill="rgb(0,0,0)" ><rect x="81.0" y="60.0" width="3.0" height="3.0" /></g>
<g fill="rgb(0,0,0)" ><rect x="81.0" y="51.0" width="3.0" height="3.0" /></g>
<g fill="rgb(0,0,0)" ><rect x="81.0" y="39.0" width="3.0" height="3.0" /></g>
<g fill="rgb(0,0,0)" ><rect x="81.0" y="15.0" width="3.0" height="3.0" /></g>
<g fill="rgb(0,0,0)" ><rect x="81.0" y="3.0" width="3.0" height="3.0" /></g>
<g fill="rgb(0,0,0)" ><rect x="84.0" y="63.0" width="3.0" height="3.0" /></g>
<g fill="rgb(0,0,0)" ><rect x="84.0" y="57.0" width="3.0" height="3.0" /></g>
<g fill="rgb(0,0,0)" ><rect x="84.0" y="48.0" width="3.0" height="3.0" /></g>
<g fill="rgb(0,0,0)" ><rect x="84.0" y="12.0" width="3.0" height="3.0" /></g>
<g fill="rgb(0,0,0)" ><rect x="87.0" y="60.0" width="3.0" height="3.0" /></g>
<g fill="rgb(0,0,0)" ><rect x="87.0" y="45.0" width="3.0" height="3.0" /></g>
<g fill="rgb(0,0,0)" ><rect x="87.0" y="9.0" width="3.0" height="3.0" /></g>
<g fill="rgb(0,0,0)" ><rect x="90.0" y="51.0" width="3.0" height="3.0" /></g>
<g fill="rgb(0,0,0)" ><rect x="90.0" y="30.0" width="3.0" height="3.0" /></g>
<g fill="rgb(0,0,0)" ><rect x="93.0" y="54.0" width="3.0" height="3.0" /></g>
<g fill="rgb(0,0,0)" ><rect x="93.0" y="48.0" width="3.0" height="3.0" /></g>
<g fill="rgb(0,0,0)" ><rect x="93.0" y="27.0" width="3.0" height="3.0" /></g>
<g fill="rgb(0,0,0)" ><rect x="96.0" y="51.0" width="3.0" height="3.0" /></g>
<g fill="rgb(0,0,0)" ><rect x="96.0" y="45.0" width="3.0" height="3.0" /></g>
<g fill="rgb(0,0,0)" ><rect x="96.0" y="36.0" width="3.0" height="3.0" /></g>
<g fill="rgb(0,0,0)" ><rect x="96.0" y="24.0" width="3.0" height="3.0" /></g>
<g fill="rgb(0,0,0)" ><rect x="99.0" y="48.0" width="3.0" height="3.0" /></g>
<g fill="rgb(0,0,0)" ><rect x="99.0" y="42.0" width="3.0" height="3.0" /></g>
<g fill="rgb(0,0,0)" ><rect x="99.0" y="33.0" width="3.0" height="3.0" /></g>
<g fill="rgb(0,0,0)" ><rect x="99.0" y="21.0" width="3.0" height="3.0" /></g>
<g fill="rgb(0,0,0)" ><rect x="102.0" y="45.0" width="3.0" height="3.0" /></g>
<g fill="rgb(0,0,0)" ><rect x="102.0" y="39.0" width="3.0" height="3.0" /></g>
<g fill="rgb(0,0,0)" ><rect x="102.0" y="30.0" width="3.0" height="3.0" /></g>
<g fill="rgb(0,0,0)" ><rect x="105.0" y="42.0" width="3.0" height="3.0" /></g>
<g fill="rgb(0,0,0)" ><rect x="105.0" y="27.0" width="3.0" height="3.0" /></g>
</g>
</g>
</svg>