<svg xmlns="http://www.w3.org/2000/svg" width="100.0" height="100.0" viewBox="20.00 20.00 110.00 110.00">
<g fill="none" stroke="black" stroke-width="0.0200%" transform="translate(0, 150.0000) scale(25.0000, -25.0000)">
<circle cx="1.00" cy="1.00" r="0.02" />
<circle cx="1.00" cy="2.00" r="0.02" />
<circle cx="1.00" cy="3.00" r="0.02" />
<circle cx="1.00" cy="4.00" r="0.02" />
<circle cx="1.00" cy="5.00" r="0.02" />
<circle cx="2.00" cy="1.00" r="0.02" />
<circle cx="2.00" cy="2.00" r="0.02" />
<circle cx="2.00" cy="3.00" r="0.02" />
<circle cx="2.00" cy="4.00" r="0.02" />
<circle cx="2.00" cy="5.00" r="0.02" />
<circle cx="3.00" cy="1.00" r="0.02" />
<circle cx="3.00" cy="2.00" r="0.02" />
<circle cx="3.00" cy="3.00" r="0.02" />
<circle cx="3.00" cy="4.00" r="0.02" />
<circle cx="3.00" cy="5.00" r="0.02" />
<circle cx="4.00" cy="1.00" r="0.02" />
<circle cx="4.00" cy="2.00" r="0.02" />
<circle cx="4.00" cy="3.00" r="0.02" />
<circle cx="4.00" cy="4.00" r="0.02" />
<circle cx="4.00" cy="5.00" r="0.02" />
<circle cx="5.00" cy="1.00" r="0.02" />
<circle cx="5.00" cy="2.00" r="0.02" />
<circle cx="5.00" cy="3.00" r="0.02" />
<circle cx="5.00" cy="4.00" r="0.02" />
<circle cx="5.00" cy="5.00" r="0.02" />
<line x1="1.00" y1="1.00" x2="2.00" y2="3.00" />
<line x1="1.00" y1="1.00" x2="3.00" y2="2.00" />
<line x1="1.00" y1="2.00" x2="2.00" y2="4.00" />
<line x1="1.00" y1="2.00" x2="3.00" y2="1.00" />
<line x1="1.00" y1="2.00" x2="3.00" y2="3.00" />
<line x1="1.00" y1="3.00" x2="2.00" y2="1.00" />
<line x1="1.00" y1="3.00" x2="2.00" y2="5.00" />
<line x1="1.00" y1="3.00" x2="3.00" y2="2.00" />
<line x1="1.00" y1="3.00" x2="3.00" y2="4.00" />
<line x1="1.00" y1="4.00" x2="2.00" y2="2.00" />
<line x1="1.00" y1="4.00" x2="3.00" y2="3.00" />
<line x1="1.00" y1="4.00" x2="3.00" y2="5.00" />
<line x1="1.00" y1="5.00" x2="2.00" y2="3.00" />
<line x1="1.00" y1="5.00" x2="3.00" y2="4.00" />
<line x1="2.00" y1="1.00" x2="3.00" y2="3.00" />
<line x1="2.00" y1="1.00" x2="4.00" y2="2.00" />
<line x1="2.00" y1="2.00" x2="3.00" y2="4.00" />
<line x1="2.00" y1="2.00" x2="4.00" y2="1.00" />
<line x1="2.00" y1="2.00" x2="4.00" y2="3.00" />
<line x1="2.00" y1="3.00" x2="3.00" y2="1.00" />
<line x1="2.00" y1="3.00" x2="3.00" y2="5.00" />
<line x1="2.00" y1="3.00" x2="4.00" y2="2.00" />
<line x1="2.00" y1="3.00" x2="4.00" y2="4.00" />
<line x1="2.00" y1="4.00" x2="3.00" y2="2.00" />
<line x1="2.00" y1="4.00" x2="4.00" y2="3.00" />
<line x1="2.00" y1="4.00" x2="4.00" y2="5.00" />
<line x1="2.00" y1="5.00" x2="3.00" y2="3.00" />
<line x1="2.00" y1="5.00" x2="4.00" y2="4.00" />
<line x1="3.00" y1="1.00" x2="4.00" y2="3.00" />
<line x1="3.00" y1="1.00" x2="5.00" y2="2.00" />
<line x1="3.00" y1="2.00" x2="4.00" y2="4.00" />
<line x1="3.00" y1="2.00" x2="5.00" y2="1.00" />
<line x1="3.00" y1="2.00" x2="5.00" y2="3.00" />
<line x1="3.00" y1="3.00" x2="4.00" y2="1.00" />
<line x1="3.00" y1="3.00" x2="4.00" y2="5.00" />
<line x1="3.00" y1="3.00" x2="5.00" y2="2.00" />
<line x1="3.00" y1="3.00" x2="5.00" y2="4.00" />
<line x1="3.00" y1="4.00" x2="4.00" y2="2.00" />
<line x1="3.00" y1="4.00" x2="5.00" y2="3.00" />
<line x1="3.00" y1="4.00" x2="5.00" y2="5.00" />
<line x1="3.00" y1="5.00" x2="4.00" y2="3.00" />
<line x1="3.00" y1="5.00" x2="5.00" y2="4.00" />
<line x1="4.00" y1="1.00" x2="5.00" y2="3.00" />
<line x1="4.00" y1="2.00" x2="5.00" y2="4.00" />
<line x1="4.00" y1="3.00" x2="5.00" y2="1.00" />
<line x1="4.00" y1="3.00" x2="5.00" y2="5.00" />
<line x1="4.00" y1="4.00" x2="5.00" y2="2.00" />
<line x1="4.00" y1="5.00" x2="5.00" y2="3.00" />
</g>
</svg>