<?xml version="1.0" encoding="UTF-8" standalone="no"?>
<!DOCTYPE svg PUBLIC "-//W3C//DTD SVG 1.1//EN"
 "http://www.w3.org/Graphics/SVG/1.1/DTD/svg11.dtd">
<!-- Generated by graphviz version 12.0.0 (0)
 -->
<!-- Pages: 1 -->
<svg width="54pt" height="54pt"
 viewBox="0.00 0.00 53.82 54.00" xmlns="http://www.w3.org/2000/svg" xmlns:xlink="http://www.w3.org/1999/xlink">
<g id="graph0" class="graph" transform="scale(0.245179 0.245179) rotate(0) translate(4 216.25)">
<!-- 1 -->
<g id="node1" class="node">
<title>1</title>
<ellipse fill="black" stroke="black" cx="192.48" cy="-46.11" rx="1.8" ry="1.8"/>
</g>
<!-- 6 -->
<g id="node2" class="node">
<title>6</title>
<ellipse fill="black" stroke="black" cx="209.72" cy="-125.26" rx="1.8" ry="1.8"/>
</g>
<!-- 1&#45;&#45;6 -->
<g id="edge1" class="edge">
<title>1&#45;&#45;6</title>
<path fill="none" stroke="black" stroke-width="0.75" d="M192.91,-48.07C195.27,-58.92 206.76,-111.67 209.25,-123.08"/>
</g>
<!-- 8 -->
<g id="node3" class="node">
<title>8</title>
<ellipse fill="black" stroke="black" cx="124.65" cy="-1.8" rx="1.8" ry="1.8"/>
</g>
<!-- 1&#45;&#45;8 -->
<g id="edge2" class="edge">
<title>1&#45;&#45;8</title>
<path fill="none" stroke="black" stroke-width="0.75" d="M190.81,-45.02C181.5,-38.94 136.3,-9.41 126.52,-3.02"/>
</g>
<!-- 7 -->
<g id="node5" class="node">
<title>7</title>
<ellipse fill="black" stroke="black" cx="165.86" cy="-193.4" rx="1.8" ry="1.8"/>
</g>
<!-- 6&#45;&#45;7 -->
<g id="edge8" class="edge">
<title>6&#45;&#45;7</title>
<path fill="none" stroke="black" stroke-width="0.75" d="M208.64,-126.94C202.62,-136.29 173.39,-181.71 167.07,-191.53"/>
</g>
<!-- 2 -->
<g id="node4" class="node">
<title>2</title>
<ellipse fill="black" stroke="black" cx="86.63" cy="-210.45" rx="1.8" ry="1.8"/>
</g>
<!-- 2&#45;&#45;7 -->
<g id="edge3" class="edge">
<title>2&#45;&#45;7</title>
<path fill="none" stroke="black" stroke-width="0.75" d="M88.59,-210.03C99.45,-207.69 152.26,-196.33 163.68,-193.87"/>
</g>
<!-- 9 -->
<g id="node6" class="node">
<title>9</title>
<ellipse fill="black" stroke="black" cx="18.65" cy="-166.33" rx="1.8" ry="1.8"/>
</g>
<!-- 2&#45;&#45;9 -->
<g id="edge4" class="edge">
<title>2&#45;&#45;9</title>
<path fill="none" stroke="black" stroke-width="0.75" d="M84.95,-209.36C75.62,-203.31 30.32,-173.9 20.52,-167.54"/>
</g>
<!-- 3 -->
<g id="node7" class="node">
<title>3</title>
<ellipse fill="black" stroke="black" cx="45.4" cy="-18.81" rx="1.8" ry="1.8"/>
</g>
<!-- 3&#45;&#45;8 -->
<g id="edge6" class="edge">
<title>3&#45;&#45;8</title>
<path fill="none" stroke="black" stroke-width="0.75" d="M47.35,-18.39C58.22,-16.06 111.05,-4.72 122.47,-2.27"/>
</g>
<!-- 4 -->
<g id="node8" class="node">
<title>4</title>
<ellipse fill="black" stroke="black" cx="1.8" cy="-87.1" rx="1.8" ry="1.8"/>
</g>
<!-- 3&#45;&#45;4 -->
<g id="edge5" class="edge">
<title>3&#45;&#45;4</title>
<path fill="none" stroke="black" stroke-width="0.75" d="M44.32,-20.5C38.34,-29.87 9.28,-75.38 3,-85.22"/>
</g>
<!-- 4&#45;&#45;9 -->
<g id="edge7" class="edge">
<title>4&#45;&#45;9</title>
<path fill="none" stroke="black" stroke-width="0.75" d="M2.22,-89.06C4.53,-99.93 15.75,-152.73 18.18,-164.15"/>
</g>
</g>
</svg>
