<svg xmlns="http://www.w3.org/2000/svg" width="100.0" height="100.0" viewBox="28.333 28.333 110.000 110.000">
<g fill="none" stroke="black" stroke-width="0.0150%" transform="translate(0, 166.6667) scale(33.3333, -33.3333)">
<circle cx="1.000" cy="1.000" r="0.015" />
<circle cx="1.000" cy="2.000" r="0.015" />
<circle cx="1.000" cy="3.000" r="0.015" />
<circle cx="1.000" cy="4.000" r="0.015" />
<circle cx="2.000" cy="1.000" r="0.015" />
<circle cx="2.000" cy="2.000" r="0.015" />
<circle cx="2.000" cy="3.000" r="0.015" />
<circle cx="2.000" cy="4.000" r="0.015" />
<circle cx="3.000" cy="1.000" r="0.015" />
<circle cx="3.000" cy="2.000" r="0.015" />
<circle cx="3.000" cy="3.000" r="0.015" />
<circle cx="3.000" cy="4.000" r="0.015" />
<circle cx="4.000" cy="1.000" r="0.015" />
<circle cx="4.000" cy="2.000" r="0.015" />
<circle cx="4.000" cy="3.000" r="0.015" />
<circle cx="4.000" cy="4.000" r="0.015" />
<line x1="1.000" y1="1.000" x2="2.000" y2="3.000" />
<line x1="1.000" y1="1.000" x2="3.000" y2="2.000" />
<line x1="1.000" y1="2.000" x2="2.000" y2="4.000" />
<line x1="1.000" y1="2.000" x2="3.000" y2="1.000" />
<line x1="1.000" y1="2.000" x2="3.000" y2="3.000" />
<line x1="1.000" y1="3.000" x2="2.000" y2="1.000" />
<line x1="1.000" y1="3.000" x2="3.000" y2="2.000" />
<line x1="1.000" y1="3.000" x2="3.000" y2="4.000" />
<line x1="1.000" y1="4.000" x2="2.000" y2="2.000" />
<line x1="1.000" y1="4.000" x2="3.000" y2="3.000" />
<line x1="2.000" y1="1.000" x2="3.000" y2="3.000" />
<line x1="2.000" y1="1.000" x2="4.000" y2="2.000" />
<line x1="2.000" y1="2.000" x2="3.000" y2="4.000" />
<line x1="2.000" y1="2.000" x2="4.000" y2="1.000" />
<line x1="2.000" y1="2.000" x2="4.000" y2="3.000" />
<line x1="2.000" y1="3.000" x2="3.000" y2="1.000" />
<line x1="2.000" y1="3.000" x2="4.000" y2="2.000" />
<line x1="2.000" y1="3.000" x2="4.000" y2="4.000" />
<line x1="2.000" y1="4.000" x2="3.000" y2="2.000" />
<line x1="2.000" y1="4.000" x2="4.000" y2="3.000" />
<line x1="3.000" y1="1.000" x2="4.000" y2="3.000" />
<line x1="3.000" y1="2.000" x2="4.000" y2="4.000" />
<line x1="3.000" y1="3.000" x2="4.000" y2="1.000" />
<line x1="3.000" y1="4.000" x2="4.000" y2="2.000" />
</g>
</svg>