<svg xmlns="http://www.w3.org/2000/svg" width="203.4" height="100.0" viewBox="-5.00 -5.00 213.45 110.00">
<g fill="none" stroke="black" stroke-width="0.1575%" transform="translate(0, 100.0000) scale(3.1746, -3.1746)">
<polyline points="0.00,0.00 1.73,0.00 2.60,1.50 3.46,0.00 5.20,0.00 6.06,1.50 5.20,3.00 6.93,3.00 7.79,4.50 8.66,3.00 10.39,3.00 9.53,1.50 10.39,0.00 12.12,0.00 12.99,1.50 13.86,0.00 15.59,0.00 16.45,1.50 15.59,3.00 17.32,3.00 18.19,4.50 17.32,6.00 15.59,6.00 16.45,7.50 15.59,9.00 17.32,9.00 18.19,10.50 19.05,9.00 20.78,9.00 21.65,10.50 20.78,12.00 22.52,12.00 23.38,13.50 24.25,12.00 25.98,12.00 25.11,10.50 25.98,9.00 27.71,9.00 28.58,10.50 29.44,9.00 31.18,9.00 30.31,7.50 31.18,6.00 29.44,6.00 28.58,4.50 29.44,3.00 31.18,3.00 30.31,1.50 31.18,0.00 32.91,0.00 33.77,1.50 34.64,0.00 36.37,0.00 37.24,1.50 36.37,3.00 38.11,3.00 38.97,4.50 39.84,3.00 41.57,3.00 40.70,1.50 41.57,0.00 43.30,0.00 44.17,1.50 45.03,0.00 46.77,0.00 47.63,1.50 46.77,3.00 48.50,3.00 49.36,4.50 48.50,6.00 46.77,6.00 47.63,7.50 46.77,9.00 48.50,9.00 49.36,10.50 50.23,9.00 51.96,9.00 52.83,10.50 51.96,12.00 53.69,12.00 54.56,13.50 53.69,15.00 51.96,15.00 52.83,16.50 51.96,18.00 50.23,18.00 49.36,16.50 48.50,18.00 46.77,18.00 47.63,19.50 46.77,21.00 48.50,21.00 49.36,22.50 48.50,24.00 46.77,24.00 47.63,25.50 46.77,27.00 48.50,27.00 49.36,28.50 50.23,27.00 51.96,27.00 52.83,28.50 51.96,30.00 53.69,30.00 54.56,31.50 55.43,30.00 57.16,30.00 56.29,28.50 57.16,27.00 58.89,27.00 59.76,28.50 60.62,27.00 62.35,27.00 63.22,28.50 62.35,30.00 64.09,30.00" />
</g>
</svg>