<svg xmlns="http://www.w3.org/2000/svg" width="161.8" height="100.0" viewBox="-3.59 -5.00 171.80 110.00">
<g fill="none" stroke="black" stroke-width="0.1350%" transform="translate(0, 100.0000) scale(3.7037, -3.7037)">

<line x1="0.76" y1="0.00" x2="0.76" y2="1.00" />
<line x1="1.14" y1="0.00" x2="1.14" y2="1.00" />
<line x1="1.52" y1="0.00" x2="1.52" y2="2.00" />
<line x1="1.90" y1="0.00" x2="1.90" y2="3.00" />
<line x1="2.28" y1="0.00" x2="2.28" y2="3.00" />
<line x1="2.66" y1="0.00" x2="2.66" y2="2.00" />
<line x1="3.04" y1="0.00" x2="3.04" y2="3.00" />
<line x1="3.42" y1="0.00" x2="3.42" y2="3.00" />
<line x1="3.80" y1="0.00" x2="3.80" y2="4.00" />
<line x1="4.18" y1="0.00" x2="4.18" y2="5.00" />
<line x1="4.56" y1="0.00" x2="4.56" y2="5.00" />
<line x1="4.94" y1="0.00" x2="4.94" y2="6.00" />
<line x1="5.32" y1="0.00" x2="5.32" y2="7.00" />
<line x1="5.70" y1="0.00" x2="5.70" y2="7.00" />
<line x1="6.08" y1="0.00" x2="6.08" y2="8.00" />
<line x1="6.46" y1="0.00" x2="6.46" y2="9.00" />
<line x1="6.84" y1="0.00" x2="6.84" y2="9.00" />
<line x1="7.22" y1="0.00" x2="7.22" y2="8.00" />
<line x1="7.60" y1="0.00" x2="7.60" y2="9.00" />
<line x1="7.98" y1="0.00" x2="7.98" y2="9.00" />
<line x1="8.36" y1="0.00" x2="8.36" y2="8.00" />
<line x1="8.74" y1="0.00" x2="8.74" y2="7.00" />
<line x1="9.12" y1="0.00" x2="9.12" y2="7.00" />
<line x1="9.50" y1="0.00" x2="9.50" y2="6.00" />
<line x1="9.88" y1="0.00" x2="9.88" y2="7.00" />
<line x1="10.26" y1="0.00" x2="10.26" y2="7.00" />
<line x1="10.64" y1="0.00" x2="10.64" y2="8.00" />
<line x1="11.02" y1="0.00" x2="11.02" y2="9.00" />
<line x1="11.40" y1="0.00" x2="11.40" y2="9.00" />
<line x1="11.78" y1="0.00" x2="11.78" y2="8.00" />
<line x1="12.16" y1="0.00" x2="12.16" y2="9.00" />
<line x1="12.54" y1="0.00" x2="12.54" y2="9.00" />
<line x1="12.92" y1="0.00" x2="12.92" y2="10.00" />
<line x1="13.30" y1="0.00" x2="13.30" y2="11.00" />
<line x1="13.68" y1="0.00" x2="13.68" y2="11.00" />
<line x1="14.06" y1="0.00" x2="14.06" y2="12.00" />
<line x1="14.44" y1="0.00" x2="14.44" y2="13.00" />
<line x1="14.82" y1="0.00" x2="14.82" y2="13.00" />
<line x1="15.20" y1="0.00" x2="15.20" y2="14.00" />
<line x1="15.58" y1="0.00" x2="15.58" y2="15.00" />
<line x1="15.96" y1="0.00" x2="15.96" y2="15.00" />
<line x1="16.34" y1="0.00" x2="16.34" y2="16.00" />
<line x1="16.71" y1="0.00" x2="16.71" y2="15.00" />
<line x1="17.09" y1="0.00" x2="17.09" y2="15.00" />
<line x1="17.47" y1="0.00" x2="17.47" y2="16.00" />
<line x1="17.85" y1="0.00" x2="17.85" y2="17.00" />
<line x1="18.23" y1="0.00" x2="18.23" y2="17.00" />
<line x1="18.61" y1="0.00" x2="18.61" y2="18.00" />
<line x1="18.99" y1="0.00" x2="18.99" y2="19.00" />
<line x1="19.37" y1="0.00" x2="19.37" y2="19.00" />
<line x1="19.75" y1="0.00" x2="19.75" y2="20.00" />
<line x1="20.13" y1="0.00" x2="20.13" y2="21.00" />
<line x1="20.51" y1="0.00" x2="20.51" y2="21.00" />
<line x1="20.89" y1="0.00" x2="20.89" y2="20.00" />
<line x1="21.27" y1="0.00" x2="21.27" y2="21.00" />
<line x1="21.65" y1="0.00" x2="21.65" y2="21.00" />
<line x1="22.03" y1="0.00" x2="22.03" y2="22.00" />
<line x1="22.41" y1="0.00" x2="22.41" y2="23.00" />
<line x1="22.79" y1="0.00" x2="22.79" y2="23.00" />
<line x1="23.17" y1="0.00" x2="23.17" y2="24.00" />
<line x1="23.55" y1="0.00" x2="23.55" y2="25.00" />
<line x1="23.93" y1="0.00" x2="23.93" y2="25.00" />
<line x1="24.31" y1="0.00" x2="24.31" y2="26.00" />
<line x1="24.69" y1="0.00" x2="24.69" y2="27.00" />
<line x1="25.07" y1="0.00" x2="25.07" y2="27.00" />
<line x1="25.45" y1="0.00" x2="25.45" y2="26.00" />
<line x1="25.83" y1="0.00" x2="25.83" y2="27.00" />
<line x1="26.21" y1="0.00" x2="26.21" y2="27.00" />
<line x1="26.59" y1="0.00" x2="26.59" y2="26.00" />
<line x1="26.97" y1="0.00" x2="26.97" y2="25.00" />
<line x1="27.35" y1="0.00" x2="27.35" y2="25.00" />
<line x1="27.73" y1="0.00" x2="27.73" y2="24.00" />
<line x1="28.11" y1="0.00" x2="28.11" y2="25.00" />
<line x1="28.49" y1="0.00" x2="28.49" y2="25.00" />
<line x1="28.87" y1="0.00" x2="28.87" y2="26.00" />
<line x1="29.25" y1="0.00" x2="29.25" y2="27.00" />
<line x1="29.63" y1="0.00" x2="29.63" y2="27.00" />
<line x1="30.01" y1="0.00" x2="30.01" y2="26.00" />
<line x1="30.39" y1="0.00" x2="30.39" y2="27.00" />
<line x1="30.77" y1="0.00" x2="30.77" y2="27.00" />
<line x1="31.15" y1="0.00" x2="31.15" y2="26.00" />
<line x1="31.53" y1="0.00" x2="31.53" y2="25.00" />
<line x1="31.91" y1="0.00" x2="31.91" y2="25.00" />
<line x1="32.29" y1="0.00" x2="32.29" y2="24.00" />
<line x1="32.67" y1="0.00" x2="32.67" y2="23.00" />
<line x1="33.05" y1="0.00" x2="33.05" y2="23.00" />
<line x1="33.43" y1="0.00" x2="33.43" y2="22.00" />
<line x1="33.81" y1="0.00" x2="33.81" y2="21.00" />
<line x1="34.19" y1="0.00" x2="34.19" y2="21.00" />
<line x1="34.57" y1="0.00" x2="34.57" y2="20.00" />
<line x1="34.95" y1="0.00" x2="34.95" y2="21.00" />
<line x1="35.33" y1="0.00" x2="35.33" y2="21.00" />
<line x1="35.71" y1="0.00" x2="35.71" y2="20.00" />
<line x1="36.09" y1="0.00" x2="36.09" y2="19.00" />
<line x1="36.47" y1="0.00" x2="36.47" y2="19.00" />
<line x1="36.85" y1="0.00" x2="36.85" y2="18.00" />
<line x1="37.23" y1="0.00" x2="37.23" y2="19.00" />
<line x1="37.61" y1="0.00" x2="37.61" y2="19.00" />
<line x1="37.99" y1="0.00" x2="37.99" y2="20.00" />
<line x1="38.37" y1="0.00" x2="38.37" y2="21.00" />
<line x1="38.75" y1="0.00" x2="38.75" y2="21.00" />
<line x1="39.13" y1="0.00" x2="39.13" y2="20.00" />
<line x1="39.51" y1="0.00" x2="39.51" y2="21.00" />
<line x1="39.89" y1="0.00" x2="39.89" y2="21.00" />
<line x1="40.27" y1="0.00" x2="40.27" y2="22.00" />
<line x1="40.65" y1="0.00" x2="40.65" y2="23.00" />
<line x1="41.03" y1="0.00" x2="41.03" y2="23.00" />
<line x1="41.41" y1="0.00" x2="41.41" y2="24.00" />
<line x1="41.79" y1="0.00" x2="41.79" y2="25.00" />
<line x1="42.17" y1="0.00" x2="42.17" y2="25.00" />
<line x1="42.55" y1="0.00" x2="42.55" y2="26.00" />
<line x1="42.93" y1="0.00" x2="42.93" y2="27.00" />
<line x1="43.31" y1="0.00" x2="43.31" y2="27.00" />
<line x1="43.69" y1="0.00" x2="43.69" y2="26.00" />
<line x1="44.07" y1="0.00" x2="44.07" y2="27.00" />
</g>
</svg>