<svg xmlns="http://www.w3.org/2000/svg" width="161.8" height="100.0" viewBox="-3.074 -55.000 171.803 110.000">
<g fill="none" stroke="black" stroke-width="0.0100%" transform="translate(0, 0.0000) scale(50.0000, -50.0000)">
<line x1="0.039" y1="0.000" x2="0.039" y2="-1.000" />
<line x1="0.077" y1="0.000" x2="0.077" y2="1.000" />
<line x1="0.116" y1="0.000" x2="0.116" y2="1.000" />
<line x1="0.154" y1="0.000" x2="0.154" y2="1.000" />
<line x1="0.193" y1="0.000" x2="0.193" y2="-1.000" />
<line x1="0.231" y1="0.000" x2="0.231" y2="-1.000" />
<line x1="0.270" y1="0.000" x2="0.270" y2="-1.000" />
<line x1="0.308" y1="0.000" x2="0.308" y2="1.000" />
<line x1="0.347" y1="0.000" x2="0.347" y2="1.000" />
<line x1="0.385" y1="0.000" x2="0.385" y2="1.000" />
<line x1="0.424" y1="0.000" x2="0.424" y2="-1.000" />
<line x1="0.462" y1="0.000" x2="0.462" y2="1.000" />
<line x1="0.501" y1="0.000" x2="0.501" y2="-1.000" />
<line x1="0.539" y1="0.000" x2="0.539" y2="1.000" />
<line x1="0.578" y1="0.000" x2="0.578" y2="1.000" />
<line x1="0.616" y1="0.000" x2="0.616" y2="1.000" />
<line x1="0.655" y1="0.000" x2="0.655" y2="-1.000" />
<line x1="0.693" y1="0.000" x2="0.693" y2="-1.000" />
<line x1="0.732" y1="0.000" x2="0.732" y2="-1.000" />
<line x1="0.770" y1="0.000" x2="0.770" y2="1.000" />
<line x1="0.809" y1="0.000" x2="0.809" y2="1.000" />
<line x1="0.848" y1="0.000" x2="0.848" y2="1.000" />
<line x1="0.886" y1="0.000" x2="0.886" y2="-1.000" />
<line x1="0.925" y1="0.000" x2="0.925" y2="1.000" />
<line x1="0.963" y1="0.000" x2="0.963" y2="1.000" />
<line x1="1.002" y1="0.000" x2="1.002" y2="1.000" />
<line x1="1.040" y1="0.000" x2="1.040" y2="-1.000" />
<line x1="1.079" y1="0.000" x2="1.079" y2="1.000" />
<line x1="1.117" y1="0.000" x2="1.117" y2="1.000" />
<line x1="1.156" y1="0.000" x2="1.156" y2="1.000" />
<line x1="1.194" y1="0.000" x2="1.194" y2="-1.000" />
<line x1="1.233" y1="0.000" x2="1.233" y2="-1.000" />
<line x1="1.271" y1="0.000" x2="1.271" y2="-1.000" />
<line x1="1.310" y1="0.000" x2="1.310" y2="1.000" />
<line x1="1.348" y1="0.000" x2="1.348" y2="1.000" />
<line x1="1.387" y1="0.000" x2="1.387" y2="1.000" />
<line x1="1.425" y1="0.000" x2="1.425" y2="-1.000" />
<line x1="1.464" y1="0.000" x2="1.464" y2="1.000" />
<line x1="1.502" y1="0.000" x2="1.502" y2="-1.000" />
<line x1="1.541" y1="0.000" x2="1.541" y2="1.000" />
<line x1="1.580" y1="0.000" x2="1.580" y2="1.000" />
<line x1="1.618" y1="0.000" x2="1.618" y2="1.000" />
<line x1="1.657" y1="0.000" x2="1.657" y2="-1.000" />
<line x1="1.695" y1="0.000" x2="1.695" y2="-1.000" />
<line x1="1.734" y1="0.000" x2="1.734" y2="-1.000" />
<line x1="1.772" y1="0.000" x2="1.772" y2="1.000" />
<line x1="1.811" y1="0.000" x2="1.811" y2="1.000" />
<line x1="1.849" y1="0.000" x2="1.849" y2="1.000" />
<line x1="1.888" y1="0.000" x2="1.888" y2="-1.000" />
<line x1="1.926" y1="0.000" x2="1.926" y2="1.000" />
<line x1="1.965" y1="0.000" x2="1.965" y2="1.000" />
<line x1="2.003" y1="0.000" x2="2.003" y2="1.000" />
<line x1="2.042" y1="0.000" x2="2.042" y2="-1.000" />
<line x1="2.080" y1="0.000" x2="2.080" y2="-1.000" />
<line x1="2.119" y1="0.000" x2="2.119" y2="-1.000" />
<line x1="2.157" y1="0.000" x2="2.157" y2="1.000" />
<line x1="2.196" y1="0.000" x2="2.196" y2="1.000" />
<line x1="2.234" y1="0.000" x2="2.234" y2="1.000" />
<line x1="2.273" y1="0.000" x2="2.273" y2="-1.000" />
<line x1="2.311" y1="0.000" x2="2.311" y2="1.000" />
<line x1="2.350" y1="0.000" x2="2.350" y2="1.000" />
<line x1="2.389" y1="0.000" x2="2.389" y2="1.000" />
<line x1="2.427" y1="0.000" x2="2.427" y2="-1.000" />
<line x1="2.466" y1="0.000" x2="2.466" y2="-1.000" />
<line x1="2.504" y1="0.000" x2="2.504" y2="-1.000" />
<line x1="2.543" y1="0.000" x2="2.543" y2="1.000" />
<line x1="2.581" y1="0.000" x2="2.581" y2="1.000" />
<line x1="2.620" y1="0.000" x2="2.620" y2="1.000" />
<line x1="2.658" y1="0.000" x2="2.658" y2="-1.000" />
<line x1="2.697" y1="0.000" x2="2.697" y2="1.000" />
<line x1="2.735" y1="0.000" x2="2.735" y2="-1.000" />
<line x1="2.774" y1="0.000" x2="2.774" y2="1.000" />
<line x1="2.812" y1="0.000" x2="2.812" y2="1.000" />
<line x1="2.851" y1="0.000" x2="2.851" y2="1.000" />
<line x1="2.889" y1="0.000" x2="2.889" y2="-1.000" />
<line x1="2.928" y1="0.000" x2="2.928" y2="-1.000" />
<line x1="2.966" y1="0.000" x2="2.966" y2="-1.000" />
<line x1="3.005" y1="0.000" x2="3.005" y2="1.000" />
<line x1="3.043" y1="0.000" x2="3.043" y2="1.000" />
<line x1="3.082" y1="0.000" x2="3.082" y2="1.000" />
<line x1="3.120" y1="0.000" x2="3.120" y2="-1.000" />
<line x1="3.159" y1="0.000" x2="3.159" y2="1.000" />
<line x1="3.198" y1="0.000" x2="3.198" y2="1.000" />
<line x1="3.236" y1="0.000" x2="3.236" y2="1.000" />
<line x1="3.275" y1="0.000" x2="3.275" y2="-1.000" />
</g>
</svg>