<svg xmlns="http://www.w3.org/2000/svg" width="161.8" height="100.0" viewBox="-2.51 -1.77 171.80 110.00">
<g fill="none" stroke="black" stroke-width="0.1550%" transform="translate(0, 106.4516) scale(3.2258, -3.2258)">
<polyline points="0.77,1.00 1.54,1.00 1.54,1.00 2.32,1.00 2.32,1.00 3.09,1.00 3.09,2.00 3.86,2.00 3.86,3.00 4.63,3.00 4.63,3.00 5.40,3.00 5.40,4.00 6.17,4.00 6.17,4.00 6.95,4.00 6.95,4.00 7.72,4.00 7.72,5.00 8.49,5.00 8.49,5.00 9.26,5.00 9.26,5.00 10.03,5.00 10.03,6.00 10.80,6.00 10.80,7.00 11.58,7.00 11.58,7.00 12.35,7.00 12.35,8.00 13.12,8.00 13.12,9.00 13.89,9.00 13.89,9.00 14.66,9.00 14.66,9.00 15.43,9.00 15.43,10.00 16.21,10.00 16.21,10.00 16.98,10.00 16.98,11.00 17.75,11.00 17.75,12.00 18.52,12.00 18.52,12.00 19.29,12.00 19.29,13.00 20.06,13.00 20.06,13.00 20.84,13.00 20.84,13.00 21.61,13.00 21.61,14.00 22.38,14.00 22.38,15.00 23.15,15.00 23.15,15.00 23.92,15.00 23.92,16.00 24.69,16.00 24.69,17.00 25.47,17.00 25.47,17.00 26.24,17.00 26.24,18.00 27.01,18.00 27.01,18.00 27.78,18.00 27.78,18.00 28.55,18.00 28.55,19.00 29.32,19.00 29.32,19.00 30.10,19.00 30.10,19.00 30.87,19.00 30.87,20.00 31.64,20.00 31.64,21.00 32.41,21.00 32.41,21.00 33.18,21.00 33.18,22.00 33.95,22.00 33.95,22.00 34.73,22.00 34.73,22.00 35.50,22.00 35.50,23.00 36.27,23.00 36.27,23.00 37.04,23.00 37.04,24.00 37.81,24.00 37.81,25.00 38.58,25.00 38.58,25.00 39.36,25.00 39.36,26.00 40.13,26.00 40.13,27.00 40.90,27.00 40.90,27.00 41.67,27.00 41.67,27.00 42.44,27.00 42.44,28.00 43.21,28.00 43.21,28.00 43.99,28.00 43.99,28.00 44.76,28.00 44.76,29.00 45.53,29.00 45.53,30.00 46.30,30.00 46.30,30.00 47.07,30.00 47.07,31.00 47.84,31.00 47.84,31.00 48.62,31.00 48.62,31.00 49.39,31.00 49.39,32.00 50.16,32.00 50.16,32.00 50.93,32.00" />
</g>
</svg>