<svg xmlns="http://www.w3.org/2000/svg" width="161.8" height="100.0" viewBox="-3.074 -5.000 171.803 110.000">
<g fill="none" stroke="black" stroke-width="0.0050%" transform="translate(0, 100.0000) scale(100.0000, -100.0000)">

<line x1="0.039" y1="0.000" x2="0.039" y2="1.000" />
<line x1="0.058" y1="0.000" x2="0.058" y2="1.000" />


<line x1="0.116" y1="0.000" x2="0.116" y2="1.000" />

<line x1="0.154" y1="0.000" x2="0.154" y2="1.000" />
<line x1="0.173" y1="0.000" x2="0.173" y2="1.000" />

<line x1="0.212" y1="0.000" x2="0.212" y2="1.000" />
<line x1="0.231" y1="0.000" x2="0.231" y2="1.000" />


<line x1="0.289" y1="0.000" x2="0.289" y2="1.000" />


<line x1="0.347" y1="0.000" x2="0.347" y2="1.000" />
<line x1="0.366" y1="0.000" x2="0.366" y2="1.000" />

<line x1="0.405" y1="0.000" x2="0.405" y2="1.000" />


<line x1="0.462" y1="0.000" x2="0.462" y2="1.000" />

<line x1="0.501" y1="0.000" x2="0.501" y2="1.000" />
<line x1="0.520" y1="0.000" x2="0.520" y2="1.000" />


<line x1="0.578" y1="0.000" x2="0.578" y2="1.000" />


<line x1="0.636" y1="0.000" x2="0.636" y2="1.000" />

<line x1="0.674" y1="0.000" x2="0.674" y2="1.000" />
<line x1="0.693" y1="0.000" x2="0.693" y2="1.000" />

<line x1="0.732" y1="0.000" x2="0.732" y2="1.000" />
<line x1="0.751" y1="0.000" x2="0.751" y2="1.000" />


<line x1="0.809" y1="0.000" x2="0.809" y2="1.000" />

<line x1="0.848" y1="0.000" x2="0.848" y2="1.000" />
<line x1="0.867" y1="0.000" x2="0.867" y2="1.000" />

<line x1="0.905" y1="0.000" x2="0.905" y2="1.000" />


<line x1="0.963" y1="0.000" x2="0.963" y2="1.000" />


<line x1="1.021" y1="0.000" x2="1.021" y2="1.000" />
<line x1="1.040" y1="0.000" x2="1.040" y2="1.000" />

<line x1="1.079" y1="0.000" x2="1.079" y2="1.000" />
<line x1="1.098" y1="0.000" x2="1.098" y2="1.000" />


<line x1="1.156" y1="0.000" x2="1.156" y2="1.000" />

<line x1="1.194" y1="0.000" x2="1.194" y2="1.000" />
<line x1="1.214" y1="0.000" x2="1.214" y2="1.000" />

<line x1="1.252" y1="0.000" x2="1.252" y2="1.000" />
<line x1="1.271" y1="0.000" x2="1.271" y2="1.000" />


<line x1="1.329" y1="0.000" x2="1.329" y2="1.000" />


<line x1="1.387" y1="0.000" x2="1.387" y2="1.000" />

<line x1="1.425" y1="0.000" x2="1.425" y2="1.000" />
<line x1="1.445" y1="0.000" x2="1.445" y2="1.000" />

<line x1="1.483" y1="0.000" x2="1.483" y2="1.000" />


<line x1="1.541" y1="0.000" x2="1.541" y2="1.000" />
<line x1="1.560" y1="0.000" x2="1.560" y2="1.000" />

<line x1="1.599" y1="0.000" x2="1.599" y2="1.000" />
<line x1="1.618" y1="0.000" x2="1.618" y2="1.000" />

</g>
</svg>