<svg xmlns="http://www.w3.org/2000/svg" width="161.8" height="100.0" viewBox="-3.640 -55.000 171.803 110.000">
<g fill="none" stroke="black" stroke-width="0.0100%" transform="translate(0, 0.0000) scale(50.0000, -50.0000)">

<line x1="0.054" y1="0.000" x2="0.054" y2="1.000" />

<line x1="0.109" y1="0.000" x2="0.109" y2="1.000" />
<line x1="0.136" y1="0.000" x2="0.136" y2="1.000" />

<line x1="0.190" y1="0.000" x2="0.190" y2="1.000" />
<line x1="0.218" y1="0.000" x2="0.218" y2="-1.000" />
<line x1="0.245" y1="0.000" x2="0.245" y2="1.000" />

<line x1="0.299" y1="0.000" x2="0.299" y2="1.000" />
<line x1="0.326" y1="0.000" x2="0.326" y2="-1.000" />
<line x1="0.354" y1="0.000" x2="0.354" y2="1.000" />
<line x1="0.381" y1="0.000" x2="0.381" y2="-1.000" />

<line x1="0.435" y1="0.000" x2="0.435" y2="1.000" />
<line x1="0.462" y1="0.000" x2="0.462" y2="1.000" />
<line x1="0.489" y1="0.000" x2="0.489" y2="1.000" />
<line x1="0.517" y1="0.000" x2="0.517" y2="1.000" />
<line x1="0.544" y1="0.000" x2="0.544" y2="1.000" />

<line x1="0.598" y1="0.000" x2="0.598" y2="1.000" />
<line x1="0.625" y1="0.000" x2="0.625" y2="1.000" />
<line x1="0.653" y1="0.000" x2="0.653" y2="1.000" />
<line x1="0.680" y1="0.000" x2="0.680" y2="1.000" />
<line x1="0.707" y1="0.000" x2="0.707" y2="1.000" />
<line x1="0.734" y1="0.000" x2="0.734" y2="1.000" />

<line x1="0.789" y1="0.000" x2="0.789" y2="1.000" />
<line x1="0.816" y1="0.000" x2="0.816" y2="-1.000" />
<line x1="0.843" y1="0.000" x2="0.843" y2="1.000" />
<line x1="0.870" y1="0.000" x2="0.870" y2="-1.000" />
<line x1="0.897" y1="0.000" x2="0.897" y2="-1.000" />
<line x1="0.925" y1="0.000" x2="0.925" y2="1.000" />
<line x1="0.952" y1="0.000" x2="0.952" y2="1.000" />

<line x1="1.006" y1="0.000" x2="1.006" y2="1.000" />
<line x1="1.033" y1="0.000" x2="1.033" y2="-1.000" />
<line x1="1.061" y1="0.000" x2="1.061" y2="1.000" />
<line x1="1.088" y1="0.000" x2="1.088" y2="-1.000" />
<line x1="1.115" y1="0.000" x2="1.115" y2="-1.000" />
<line x1="1.142" y1="0.000" x2="1.142" y2="1.000" />
<line x1="1.169" y1="0.000" x2="1.169" y2="1.000" />
<line x1="1.197" y1="0.000" x2="1.197" y2="-1.000" />

<line x1="1.251" y1="0.000" x2="1.251" y2="1.000" />
<line x1="1.278" y1="0.000" x2="1.278" y2="1.000" />
<line x1="1.305" y1="0.000" x2="1.305" y2="1.000" />
<line x1="1.332" y1="0.000" x2="1.332" y2="1.000" />
<line x1="1.360" y1="0.000" x2="1.360" y2="1.000" />
<line x1="1.387" y1="0.000" x2="1.387" y2="1.000" />
<line x1="1.414" y1="0.000" x2="1.414" y2="1.000" />
<line x1="1.441" y1="0.000" x2="1.441" y2="1.000" />
<line x1="1.468" y1="0.000" x2="1.468" y2="1.000" />

<line x1="1.523" y1="0.000" x2="1.523" y2="1.000" />
<line x1="1.550" y1="0.000" x2="1.550" y2="-1.000" />
<line x1="1.577" y1="0.000" x2="1.577" y2="1.000" />
<line x1="1.604" y1="0.000" x2="1.604" y2="-1.000" />
<line x1="1.632" y1="0.000" x2="1.632" y2="-1.000" />
<line x1="1.659" y1="0.000" x2="1.659" y2="1.000" />
<line x1="1.686" y1="0.000" x2="1.686" y2="1.000" />
<line x1="1.713" y1="0.000" x2="1.713" y2="-1.000" />
<line x1="1.740" y1="0.000" x2="1.740" y2="-1.000" />
<line x1="1.768" y1="0.000" x2="1.768" y2="1.000" />

<line x1="1.822" y1="0.000" x2="1.822" y2="1.000" />
<line x1="1.849" y1="0.000" x2="1.849" y2="1.000" />
<line x1="1.876" y1="0.000" x2="1.876" y2="1.000" />
<line x1="1.904" y1="0.000" x2="1.904" y2="1.000" />
<line x1="1.931" y1="0.000" x2="1.931" y2="1.000" />
<line x1="1.958" y1="0.000" x2="1.958" y2="1.000" />
<line x1="1.985" y1="0.000" x2="1.985" y2="1.000" />
<line x1="2.012" y1="0.000" x2="2.012" y2="1.000" />
<line x1="2.040" y1="0.000" x2="2.040" y2="1.000" />
<line x1="2.067" y1="0.000" x2="2.067" y2="1.000" />
<line x1="2.094" y1="0.000" x2="2.094" y2="1.000" />

<line x1="2.148" y1="0.000" x2="2.148" y2="1.000" />
<line x1="2.176" y1="0.000" x2="2.176" y2="1.000" />
<line x1="2.203" y1="0.000" x2="2.203" y2="1.000" />
<line x1="2.230" y1="0.000" x2="2.230" y2="1.000" />
<line x1="2.257" y1="0.000" x2="2.257" y2="1.000" />
<line x1="2.284" y1="0.000" x2="2.284" y2="1.000" />
<line x1="2.311" y1="0.000" x2="2.311" y2="1.000" />
<line x1="2.339" y1="0.000" x2="2.339" y2="1.000" />
<line x1="2.366" y1="0.000" x2="2.366" y2="1.000" />
<line x1="2.393" y1="0.000" x2="2.393" y2="1.000" />
<line x1="2.420" y1="0.000" x2="2.420" y2="1.000" />
<line x1="2.447" y1="0.000" x2="2.447" y2="1.000" />

<line x1="2.502" y1="0.000" x2="2.502" y2="1.000" />
<line x1="2.529" y1="0.000" x2="2.529" y2="-1.000" />
<line x1="2.556" y1="0.000" x2="2.556" y2="1.000" />
<line x1="2.583" y1="0.000" x2="2.583" y2="-1.000" />
<line x1="2.611" y1="0.000" x2="2.611" y2="-1.000" />
<line x1="2.638" y1="0.000" x2="2.638" y2="1.000" />
<line x1="2.665" y1="0.000" x2="2.665" y2="1.000" />
<line x1="2.692" y1="0.000" x2="2.692" y2="-1.000" />
<line x1="2.719" y1="0.000" x2="2.719" y2="-1.000" />
<line x1="2.747" y1="0.000" x2="2.747" y2="1.000" />
<line x1="2.774" y1="0.000" x2="2.774" y2="-1.000" />
<line x1="2.801" y1="0.000" x2="2.801" y2="1.000" />
<line x1="2.828" y1="0.000" x2="2.828" y2="1.000" />

<line x1="2.883" y1="0.000" x2="2.883" y2="1.000" />
<line x1="2.910" y1="0.000" x2="2.910" y2="-1.000" />
<line x1="2.937" y1="0.000" x2="2.937" y2="1.000" />
<line x1="2.964" y1="0.000" x2="2.964" y2="-1.000" />
<line x1="2.991" y1="0.000" x2="2.991" y2="-1.000" />
<line x1="3.019" y1="0.000" x2="3.019" y2="1.000" />
<line x1="3.046" y1="0.000" x2="3.046" y2="1.000" />
<line x1="3.073" y1="0.000" x2="3.073" y2="-1.000" />
<line x1="3.100" y1="0.000" x2="3.100" y2="-1.000" />
<line x1="3.127" y1="0.000" x2="3.127" y2="1.000" />
<line x1="3.154" y1="0.000" x2="3.154" y2="-1.000" />
<line x1="3.182" y1="0.000" x2="3.182" y2="1.000" />
<line x1="3.209" y1="0.000" x2="3.209" y2="1.000" />
<line x1="3.236" y1="0.000" x2="3.236" y2="-1.000" />

</g>
</svg>