<svg xmlns="http://www.w3.org/2000/svg" width="161.8" height="100.0" viewBox="-3.366 -55.000 171.803 110.000">
<g fill="none" stroke="black" stroke-width="0.0100%" transform="translate(0, 0.0000) scale(50.0000, -50.0000)">

<line x1="0.065" y1="0.000" x2="0.065" y2="1.000" />

<line x1="0.131" y1="0.000" x2="0.131" y2="-1.000" />

<line x1="0.196" y1="0.000" x2="0.196" y2="-1.000" />

<line x1="0.262" y1="0.000" x2="0.262" y2="1.000" />

<line x1="0.327" y1="0.000" x2="0.327" y2="1.000" />

<line x1="0.392" y1="0.000" x2="0.392" y2="-1.000" />

<line x1="0.458" y1="0.000" x2="0.458" y2="-1.000" />

<line x1="0.523" y1="0.000" x2="0.523" y2="1.000" />

<line x1="0.588" y1="0.000" x2="0.588" y2="1.000" />

<line x1="0.654" y1="0.000" x2="0.654" y2="-1.000" />

<line x1="0.719" y1="0.000" x2="0.719" y2="-1.000" />

<line x1="0.785" y1="0.000" x2="0.785" y2="1.000" />

<line x1="0.850" y1="0.000" x2="0.850" y2="1.000" />

<line x1="0.915" y1="0.000" x2="0.915" y2="-1.000" />

<line x1="0.981" y1="0.000" x2="0.981" y2="-1.000" />

<line x1="1.046" y1="0.000" x2="1.046" y2="1.000" />

<line x1="1.111" y1="0.000" x2="1.111" y2="1.000" />

<line x1="1.177" y1="0.000" x2="1.177" y2="-1.000" />

<line x1="1.242" y1="0.000" x2="1.242" y2="-1.000" />

<line x1="1.308" y1="0.000" x2="1.308" y2="1.000" />

<line x1="1.373" y1="0.000" x2="1.373" y2="1.000" />

<line x1="1.438" y1="0.000" x2="1.438" y2="-1.000" />

<line x1="1.504" y1="0.000" x2="1.504" y2="-1.000" />

<line x1="1.569" y1="0.000" x2="1.569" y2="1.000" />

<line x1="1.634" y1="0.000" x2="1.634" y2="1.000" />

<line x1="1.700" y1="0.000" x2="1.700" y2="-1.000" />

<line x1="1.765" y1="0.000" x2="1.765" y2="-1.000" />

<line x1="1.831" y1="0.000" x2="1.831" y2="1.000" />

<line x1="1.896" y1="0.000" x2="1.896" y2="1.000" />

<line x1="1.961" y1="0.000" x2="1.961" y2="-1.000" />

<line x1="2.027" y1="0.000" x2="2.027" y2="-1.000" />

<line x1="2.092" y1="0.000" x2="2.092" y2="1.000" />

<line x1="2.157" y1="0.000" x2="2.157" y2="1.000" />

<line x1="2.223" y1="0.000" x2="2.223" y2="-1.000" />

<line x1="2.288" y1="0.000" x2="2.288" y2="-1.000" />

<line x1="2.354" y1="0.000" x2="2.354" y2="1.000" />

<line x1="2.419" y1="0.000" x2="2.419" y2="1.000" />

<line x1="2.484" y1="0.000" x2="2.484" y2="-1.000" />

<line x1="2.550" y1="0.000" x2="2.550" y2="-1.000" />

<line x1="2.615" y1="0.000" x2="2.615" y2="1.000" />

<line x1="2.680" y1="0.000" x2="2.680" y2="1.000" />

<line x1="2.746" y1="0.000" x2="2.746" y2="-1.000" />

<line x1="2.811" y1="0.000" x2="2.811" y2="-1.000" />

<line x1="2.877" y1="0.000" x2="2.877" y2="1.000" />

<line x1="2.942" y1="0.000" x2="2.942" y2="1.000" />

<line x1="3.007" y1="0.000" x2="3.007" y2="-1.000" />

<line x1="3.073" y1="0.000" x2="3.073" y2="-1.000" />

<line x1="3.138" y1="0.000" x2="3.138" y2="1.000" />

<line x1="3.203" y1="0.000" x2="3.203" y2="1.000" />

<line x1="3.269" y1="0.000" x2="3.269" y2="-1.000" />
</g>
</svg>