<svg xmlns="http://www.w3.org/2000/svg" width="161.8" height="100.0" viewBox="-2.78 -5.00 171.80 110.00">
<g fill="none" stroke="black" stroke-width="0.0900%" transform="translate(0, 100.0000) scale(5.5556, -5.5556)">
<polyline points="0.40,1.00 0.80,1.00 0.80,0.00 1.20,0.00 1.20,6.00 1.60,6.00 1.60,6.00 1.99,6.00 1.99,0.00 2.39,0.00 2.39,0.00 2.79,0.00 2.79,12.00 3.19,12.00 3.19,0.00 3.59,0.00 3.59,6.00 3.99,6.00 3.99,0.00 4.39,0.00 4.39,0.00 4.79,0.00 4.79,6.00 5.19,6.00 5.19,12.00 5.59,12.00 5.59,0.00 5.98,0.00 5.98,0.00 6.38,0.00 6.38,6.00 6.78,6.00 6.78,0.00 7.18,0.00 7.18,0.00 7.58,0.00 7.58,12.00 7.98,12.00 7.98,0.00 8.38,0.00 8.38,12.00 8.78,12.00 8.78,0.00 9.18,0.00 9.18,0.00 9.58,0.00 9.58,0.00 9.97,0.00 9.97,6.00 10.37,6.00 10.37,0.00 10.77,0.00 10.77,6.00 11.17,6.00 11.17,12.00 11.57,12.00 11.57,0.00 11.97,0.00 11.97,0.00 12.37,0.00 12.37,12.00 12.77,12.00 12.77,0.00 13.17,0.00 13.17,0.00 13.56,0.00 13.56,0.00 13.96,0.00 13.96,0.00 14.36,0.00 14.36,6.00 14.76,6.00 14.76,12.00 15.16,12.00 15.16,0.00 15.56,0.00 15.56,12.00 15.96,12.00 15.96,0.00 16.36,0.00 16.36,0.00 16.76,0.00 16.76,0.00 17.16,0.00 17.16,12.00 17.55,12.00 17.55,0.00 17.95,0.00 17.95,0.00 18.35,0.00 18.35,0.00 18.75,0.00 18.75,0.00 19.15,0.00 19.15,6.00 19.55,6.00 19.55,18.00 19.95,18.00 19.95,0.00 20.35,0.00 20.35,0.00 20.75,0.00 20.75,12.00 21.15,12.00 21.15,0.00 21.54,0.00 21.54,0.00 21.94,0.00 21.94,0.00 22.34,0.00 22.34,0.00 22.74,0.00 22.74,12.00 23.14,12.00 23.14,0.00 23.54,0.00 23.54,0.00 23.94,0.00 23.94,0.00 24.34,0.00 24.34,12.00 24.74,12.00 24.74,0.00 25.13,0.00 25.13,12.00 25.53,12.00 25.53,6.00 25.93,6.00 25.93,0.00 26.33,0.00 26.33,0.00 26.73,0.00 26.73,12.00 27.13,12.00 27.13,0.00 27.53,0.00 27.53,0.00 27.93,0.00 27.93,0.00 28.33,0.00 28.33,0.00 28.73,0.00 28.73,0.00 29.12,0.00 29.12,12.00 29.52,12.00" />
</g>
</svg>