<svg xmlns="http://www.w3.org/2000/svg" width="161.8" height="100.0" viewBox="-3.43 -5.00 171.80 110.00">
<g fill="none" stroke="black" stroke-width="0.0600%" transform="translate(0, 100.0000) scale(8.3333, -8.3333)">
<line x1="0.19" y1="0.00" x2="0.19" y2="1.00" />
<line x1="0.38" y1="0.00" x2="0.38" y2="2.00" />
<line x1="0.57" y1="0.00" x2="0.57" y2="2.00" />
<line x1="0.75" y1="0.00" x2="0.75" y2="4.00" />
<line x1="0.94" y1="0.00" x2="0.94" y2="2.00" />

<line x1="1.32" y1="0.00" x2="1.32" y2="4.00" />

<line x1="1.70" y1="0.00" x2="1.70" y2="2.00" />
<line x1="1.89" y1="0.00" x2="1.89" y2="6.00" />

<line x1="2.26" y1="0.00" x2="2.26" y2="4.00" />
<line x1="2.45" y1="0.00" x2="2.45" y2="4.00" />



<line x1="3.20" y1="0.00" x2="3.20" y2="2.00" />
<line x1="3.39" y1="0.00" x2="3.39" y2="4.00" />
<line x1="3.58" y1="0.00" x2="3.58" y2="6.00" />
<line x1="3.77" y1="0.00" x2="3.77" y2="4.00" />


<line x1="4.34" y1="0.00" x2="4.34" y2="4.00" />

<line x1="4.71" y1="0.00" x2="4.71" y2="4.00" />
<line x1="4.90" y1="0.00" x2="4.90" y2="2.00" />

<line x1="5.28" y1="0.00" x2="5.28" y2="8.00" />




<line x1="6.22" y1="0.00" x2="6.22" y2="2.00" />
<line x1="6.41" y1="0.00" x2="6.41" y2="8.00" />
<line x1="6.60" y1="0.00" x2="6.60" y2="4.00" />

<line x1="6.97" y1="0.00" x2="6.97" y2="6.00" />

<line x1="7.35" y1="0.00" x2="7.35" y2="4.00" />


<line x1="7.92" y1="0.00" x2="7.92" y2="4.00" />

<line x1="8.29" y1="0.00" x2="8.29" y2="4.00" />
<line x1="8.48" y1="0.00" x2="8.48" y2="4.00" />



<line x1="9.24" y1="0.00" x2="9.24" y2="4.00" />
<line x1="9.43" y1="0.00" x2="9.43" y2="2.00" />
<line x1="9.61" y1="0.00" x2="9.61" y2="2.00" />
<line x1="9.80" y1="0.00" x2="9.80" y2="8.00" />


<line x1="10.37" y1="0.00" x2="10.37" y2="8.00" />


<line x1="10.93" y1="0.00" x2="10.93" y2="8.00" />

<line x1="11.31" y1="0.00" x2="11.31" y2="4.00" />




<line x1="12.25" y1="0.00" x2="12.25" y2="2.00" />

<line x1="12.63" y1="0.00" x2="12.63" y2="8.00" />
<line x1="12.82" y1="0.00" x2="12.82" y2="4.00" />
<line x1="13.01" y1="0.00" x2="13.01" y2="4.00" />



<line x1="13.76" y1="0.00" x2="13.76" y2="6.00" />
<line x1="13.95" y1="0.00" x2="13.95" y2="4.00" />

<line x1="14.33" y1="0.00" x2="14.33" y2="4.00" />
<line x1="14.52" y1="0.00" x2="14.52" y2="4.00" />




<line x1="15.46" y1="0.00" x2="15.46" y2="10.00" />
<line x1="15.65" y1="0.00" x2="15.65" y2="4.00" />
<line x1="15.83" y1="0.00" x2="15.83" y2="4.00" />


<line x1="16.40" y1="0.00" x2="16.40" y2="4.00" />

<line x1="16.78" y1="0.00" x2="16.78" y2="4.00" />
<line x1="16.97" y1="0.00" x2="16.97" y2="4.00" />






<line x1="18.29" y1="0.00" x2="18.29" y2="4.00" />
<line x1="18.47" y1="0.00" x2="18.47" y2="4.00" />
<line x1="18.66" y1="0.00" x2="18.66" y2="2.00" />
<line x1="18.85" y1="0.00" x2="18.85" y2="12.00" />
<line x1="19.04" y1="0.00" x2="19.04" y2="2.00" />

<line x1="19.42" y1="0.00" x2="19.42" y2="8.00" />

</g>
</svg>