<svg xmlns="http://www.w3.org/2000/svg" width="100.2" height="100.0" viewBox="-5.000 -5.000 110.239 110.000">
<g fill="none" stroke="black" stroke-width="0.0050%" transform="translate(0, 100.0000) scale(100.4877, -100.4877)">
<circle cx="0.000" cy="0.000" r="0.005" />
<circle cx="0.755" cy="0.570" r="0.005" />
<circle cx="0.510" cy="0.140" r="0.005" />
<circle cx="0.265" cy="0.710" r="0.005" />
<circle cx="0.020" cy="0.279" r="0.005" />
<circle cx="0.774" cy="0.849" r="0.005" />
<circle cx="0.529" cy="0.419" r="0.005" />
<circle cx="0.284" cy="0.989" r="0.005" />
<circle cx="0.039" cy="0.559" r="0.005" />
<circle cx="0.794" cy="0.129" r="0.005" />
<circle cx="0.549" cy="0.698" r="0.005" />
<circle cx="0.304" cy="0.268" r="0.005" />
<circle cx="0.059" cy="0.838" r="0.005" />
<circle cx="0.813" cy="0.408" r="0.005" />
<circle cx="0.568" cy="0.978" r="0.005" />
<circle cx="0.323" cy="0.548" r="0.005" />
<circle cx="0.078" cy="0.117" r="0.005" />
<circle cx="0.833" cy="0.687" r="0.005" />
<circle cx="0.588" cy="0.257" r="0.005" />
<circle cx="0.343" cy="0.827" r="0.005" />
<circle cx="0.098" cy="0.397" r="0.005" />
<circle cx="0.852" cy="0.967" r="0.005" />
<circle cx="0.607" cy="0.536" r="0.005" />
<circle cx="0.362" cy="0.106" r="0.005" />
<circle cx="0.117" cy="0.676" r="0.005" />
<circle cx="0.872" cy="0.246" r="0.005" />
<circle cx="0.627" cy="0.816" r="0.005" />
<circle cx="0.382" cy="0.386" r="0.005" />
<circle cx="0.137" cy="0.956" r="0.005" />
<circle cx="0.891" cy="0.525" r="0.005" />
<circle cx="0.646" cy="0.095" r="0.005" />
<circle cx="0.401" cy="0.665" r="0.005" />
<circle cx="0.156" cy="0.235" r="0.005" />
<circle cx="0.911" cy="0.805" r="0.005" />
<circle cx="0.666" cy="0.375" r="0.005" />
<circle cx="0.421" cy="0.944" r="0.005" />
<circle cx="0.176" cy="0.514" r="0.005" />
<circle cx="0.930" cy="0.084" r="0.005" />
<circle cx="0.685" cy="0.654" r="0.005" />
<circle cx="0.440" cy="0.224" r="0.005" />
<circle cx="0.195" cy="0.794" r="0.005" />
<circle cx="0.950" cy="0.363" r="0.005" />
<circle cx="0.705" cy="0.933" r="0.005" />
<circle cx="0.460" cy="0.503" r="0.005" />
<circle cx="0.215" cy="0.073" r="0.005" />
<circle cx="0.969" cy="0.643" r="0.005" />
<circle cx="0.724" cy="0.213" r="0.005" />
<circle cx="0.479" cy="0.782" r="0.005" />
<circle cx="0.234" cy="0.352" r="0.005" />
<circle cx="0.989" cy="0.922" r="0.005" />
<circle cx="0.744" cy="0.492" r="0.005" />
<circle cx="0.499" cy="0.062" r="0.005" />
<circle cx="0.254" cy="0.632" r="0.005" />
<circle cx="0.009" cy="0.202" r="0.005" />
<circle cx="0.763" cy="0.771" r="0.005" />
<circle cx="0.518" cy="0.341" r="0.005" />
<circle cx="0.273" cy="0.911" r="0.005" />
<circle cx="0.028" cy="0.481" r="0.005" />
<circle cx="0.783" cy="0.051" r="0.005" />
<circle cx="0.538" cy="0.621" r="0.005" />
<circle cx="0.293" cy="0.190" r="0.005" />
<circle cx="0.048" cy="0.760" r="0.005" />
<circle cx="0.802" cy="0.330" r="0.005" />
<circle cx="0.557" cy="0.900" r="0.005" />
<circle cx="0.312" cy="0.470" r="0.005" />
<circle cx="0.067" cy="0.040" r="0.005" />
<circle cx="0.822" cy="0.609" r="0.005" />
<circle cx="0.577" cy="0.179" r="0.005" />
<circle cx="0.332" cy="0.749" r="0.005" />
<circle cx="0.087" cy="0.319" r="0.005" />
<circle cx="0.841" cy="0.889" r="0.005" />
<circle cx="0.596" cy="0.459" r="0.005" />
<circle cx="0.351" cy="0.029" r="0.005" />
<circle cx="0.106" cy="0.598" r="0.005" />
<circle cx="0.861" cy="0.168" r="0.005" />
<circle cx="0.616" cy="0.738" r="0.005" />
<circle cx="0.371" cy="0.308" r="0.005" />
<circle cx="0.126" cy="0.878" r="0.005" />
<circle cx="0.880" cy="0.448" r="0.005" />
<circle cx="0.635" cy="0.017" r="0.005" />
<circle cx="0.390" cy="0.587" r="0.005" />
<circle cx="0.145" cy="0.157" r="0.005" />
<circle cx="0.900" cy="0.727" r="0.005" />
<circle cx="0.655" cy="0.297" r="0.005" />
<circle cx="0.410" cy="0.867" r="0.005" />
<circle cx="0.165" cy="0.436" r="0.005" />
<circle cx="0.919" cy="0.006" r="0.005" />
<circle cx="0.674" cy="0.576" r="0.005" />
<circle cx="0.429" cy="0.146" r="0.005" />
<circle cx="0.184" cy="0.716" r="0.005" />
<circle cx="0.939" cy="0.286" r="0.005" />
<circle cx="0.694" cy="0.855" r="0.005" />
<circle cx="0.449" cy="0.425" r="0.005" />
<circle cx="0.204" cy="0.995" r="0.005" />
<circle cx="0.959" cy="0.565" r="0.005" />
<circle cx="0.713" cy="0.135" r="0.005" />
<circle cx="0.468" cy="0.705" r="0.005" />
<circle cx="0.223" cy="0.275" r="0.005" />
<circle cx="0.978" cy="0.844" r="0.005" />
<circle cx="0.733" cy="0.414" r="0.005" />
<circle cx="0.488" cy="0.984" r="0.005" />
<circle cx="0.243" cy="0.554" r="0.005" />
<circle cx="0.998" cy="0.124" r="0.005" />
<circle cx="0.752" cy="0.694" r="0.005" />
<circle cx="0.507" cy="0.263" r="0.005" />
<circle cx="0.262" cy="0.833" r="0.005" />
<circle cx="0.017" cy="0.403" r="0.005" />
<circle cx="0.772" cy="0.973" r="0.005" />
<circle cx="0.527" cy="0.543" r="0.005" />
<circle cx="0.282" cy="0.113" r="0.005" />
<circle cx="0.037" cy="0.682" r="0.005" />
<circle cx="0.791" cy="0.252" r="0.005" />
<circle cx="0.546" cy="0.822" r="0.005" />
<circle cx="0.301" cy="0.392" r="0.005" />
<circle cx="0.056" cy="0.962" r="0.005" />
<circle cx="0.811" cy="0.532" r="0.005" />
<circle cx="0.566" cy="0.101" r="0.005" />
<circle cx="0.321" cy="0.671" r="0.005" />
<circle cx="0.076" cy="0.241" r="0.005" />
<circle cx="0.830" cy="0.811" r="0.005" />
<circle cx="0.585" cy="0.381" r="0.005" />
<circle cx="0.340" cy="0.951" r="0.005" />
<circle cx="0.095" cy="0.521" r="0.005" />
<circle cx="0.850" cy="0.090" r="0.005" />
<circle cx="0.605" cy="0.660" r="0.005" />
<circle cx="0.360" cy="0.230" r="0.005" />
<circle cx="0.115" cy="0.800" r="0.005" />
<circle cx="0.869" cy="0.370" r="0.005" />
<circle cx="0.624" cy="0.940" r="0.005" />
<circle cx="0.379" cy="0.509" r="0.005" />
<circle cx="0.134" cy="0.079" r="0.005" />
<circle cx="0.889" cy="0.649" r="0.005" />
<circle cx="0.644" cy="0.219" r="0.005" />
<circle cx="0.399" cy="0.789" r="0.005" />
<circle cx="0.154" cy="0.359" r="0.005" />
<circle cx="0.908" cy="0.928" r="0.005" />
<circle cx="0.663" cy="0.498" r="0.005" />
<circle cx="0.418" cy="0.068" r="0.005" />
<circle cx="0.173" cy="0.638" r="0.005" />
<circle cx="0.928" cy="0.208" r="0.005" />
<circle cx="0.683" cy="0.778" r="0.005" />
<circle cx="0.438" cy="0.347" r="0.005" />
<circle cx="0.193" cy="0.917" r="0.005" />
<circle cx="0.948" cy="0.487" r="0.005" />
<circle cx="0.702" cy="0.057" r="0.005" />
<circle cx="0.457" cy="0.627" r="0.005" />
<circle cx="0.212" cy="0.197" r="0.005" />
<circle cx="0.967" cy="0.767" r="0.005" />
<circle cx="0.722" cy="0.336" r="0.005" />
<circle cx="0.477" cy="0.906" r="0.005" />
<circle cx="0.232" cy="0.476" r="0.005" />
<circle cx="0.987" cy="0.046" r="0.005" />
<circle cx="0.741" cy="0.616" r="0.005" />
<circle cx="0.496" cy="0.186" r="0.005" />
<circle cx="0.251" cy="0.755" r="0.005" />
<circle cx="0.006" cy="0.325" r="0.005" />
<circle cx="0.761" cy="0.895" r="0.005" />
<circle cx="0.516" cy="0.465" r="0.005" />
<circle cx="0.271" cy="0.035" r="0.005" />
<circle cx="0.026" cy="0.605" r="0.005" />
<circle cx="0.780" cy="0.174" r="0.005" />
<circle cx="0.535" cy="0.744" r="0.005" />
<circle cx="0.290" cy="0.314" r="0.005" />
<circle cx="0.045" cy="0.884" r="0.005" />
<circle cx="0.800" cy="0.454" r="0.005" />
<circle cx="0.555" cy="0.024" r="0.005" />
<circle cx="0.310" cy="0.593" r="0.005" />
<circle cx="0.065" cy="0.163" r="0.005" />
<circle cx="0.819" cy="0.733" r="0.005" />
<circle cx="0.574" cy="0.303" r="0.005" />
<circle cx="0.329" cy="0.873" r="0.005" />
<circle cx="0.084" cy="0.443" r="0.005" />
<circle cx="0.839" cy="0.013" r="0.005" />
<circle cx="0.594" cy="0.582" r="0.005" />
<circle cx="0.349" cy="0.152" r="0.005" />
<circle cx="0.104" cy="0.722" r="0.005" />
<circle cx="0.858" cy="0.292" r="0.005" />
<circle cx="0.613" cy="0.862" r="0.005" />
<circle cx="0.368" cy="0.432" r="0.005" />
<circle cx="0.123" cy="0.001" r="0.005" />
<circle cx="0.878" cy="0.571" r="0.005" />
<circle cx="0.633" cy="0.141" r="0.005" />
<circle cx="0.388" cy="0.711" r="0.005" />
<circle cx="0.143" cy="0.281" r="0.005" />
<circle cx="0.897" cy="0.851" r="0.005" />
<circle cx="0.652" cy="0.420" r="0.005" />
<circle cx="0.407" cy="0.990" r="0.005" />
<circle cx="0.162" cy="0.560" r="0.005" />
<circle cx="0.917" cy="0.130" r="0.005" />
<circle cx="0.672" cy="0.700" r="0.005" />
<circle cx="0.427" cy="0.270" r="0.005" />
<circle cx="0.182" cy="0.839" r="0.005" />
<circle cx="0.937" cy="0.409" r="0.005" />
<circle cx="0.691" cy="0.979" r="0.005" />
<circle cx="0.446" cy="0.549" r="0.005" />
<circle cx="0.201" cy="0.119" r="0.005" />
<circle cx="0.956" cy="0.689" r="0.005" />
<circle cx="0.711" cy="0.259" r="0.005" />
<circle cx="0.466" cy="0.828" r="0.005" />
<circle cx="0.221" cy="0.398" r="0.005" />
<circle cx="0.976" cy="0.968" r="0.005" />
<circle cx="0.730" cy="0.538" r="0.005" />
<circle cx="0.485" cy="0.108" r="0.005" />
<circle cx="0.240" cy="0.678" r="0.005" />
<circle cx="0.995" cy="0.247" r="0.005" />
<circle cx="0.750" cy="0.817" r="0.005" />
<circle cx="0.505" cy="0.387" r="0.005" />
<circle cx="0.260" cy="0.957" r="0.005" />
<circle cx="0.015" cy="0.527" r="0.005" />
<circle cx="0.769" cy="0.097" r="0.005" />
<circle cx="0.524" cy="0.666" r="0.005" />
<circle cx="0.279" cy="0.236" r="0.005" />
<circle cx="0.034" cy="0.806" r="0.005" />
<circle cx="0.789" cy="0.376" r="0.005" />
<circle cx="0.544" cy="0.946" r="0.005" />
<circle cx="0.299" cy="0.516" r="0.005" />
<circle cx="0.054" cy="0.086" r="0.005" />
<circle cx="0.808" cy="0.655" r="0.005" />
<circle cx="0.563" cy="0.225" r="0.005" />
<circle cx="0.318" cy="0.795" r="0.005" />
<circle cx="0.073" cy="0.365" r="0.005" />
<circle cx="0.828" cy="0.935" r="0.005" />
<circle cx="0.583" cy="0.505" r="0.005" />
<circle cx="0.338" cy="0.074" r="0.005" />
<circle cx="0.093" cy="0.644" r="0.005" />
<circle cx="0.847" cy="0.214" r="0.005" />
<circle cx="0.602" cy="0.784" r="0.005" />
<circle cx="0.357" cy="0.354" r="0.005" />
<circle cx="0.112" cy="0.924" r="0.005" />
<circle cx="0.867" cy="0.493" r="0.005" />
<circle cx="0.622" cy="0.063" r="0.005" />
<circle cx="0.377" cy="0.633" r="0.005" />
<circle cx="0.132" cy="0.203" r="0.005" />
<circle cx="0.886" cy="0.773" r="0.005" />
<circle cx="0.641" cy="0.343" r="0.005" />
<circle cx="0.396" cy="0.912" r="0.005" />
<circle cx="0.151" cy="0.482" r="0.005" />
<circle cx="0.906" cy="0.052" r="0.005" />
<circle cx="0.661" cy="0.622" r="0.005" />
<circle cx="0.416" cy="0.192" r="0.005" />
<circle cx="0.171" cy="0.762" r="0.005" />
<circle cx="0.926" cy="0.332" r="0.005" />
<circle cx="0.680" cy="0.901" r="0.005" />
<circle cx="0.435" cy="0.471" r="0.005" />
<circle cx="0.190" cy="0.041" r="0.005" />
<circle cx="0.945" cy="0.611" r="0.005" />
<circle cx="0.700" cy="0.181" r="0.005" />
<circle cx="0.455" cy="0.751" r="0.005" />
<circle cx="0.210" cy="0.320" r="0.005" />
<circle cx="0.965" cy="0.890" r="0.005" />
</g>
</svg>