<svg xmlns="http://www.w3.org/2000/svg" width="80.8" height="100.0" viewBox="-5.00 30.29 90.78 110.00">
<g fill="none" stroke="black" stroke-width="0.0212%" transform="translate(0, 170.5882) scale(23.5294, -23.5294)">
<polygon points="3.00,1.50 3.00,2.50 3.43,2.75" />
<polygon points="3.00,2.50 3.00,1.50 2.00,1.50" />
<polygon points="3.43,2.75 2.00,1.50 3.00,1.50" />
<polygon points="2.00,1.50 3.43,2.75 3.00,2.50" />
<polygon points="1.00,1.50 1.43,1.75 1.43,2.75" />
<polygon points="1.43,1.75 1.00,1.50 0.00,1.50" />
<polygon points="1.43,2.75 0.00,1.50 1.00,1.50" />
<polygon points="0.00,1.50 1.43,2.75 1.43,1.75" />
<polygon points="2.00,4.00 3.00,4.00 3.43,4.25" />
<polygon points="3.00,4.00 2.00,4.00 2.00,3.00" />
<polygon points="3.43,4.25 2.00,3.00 2.00,4.00" />
<polygon points="2.00,3.00 3.43,4.25 3.00,4.00" />
<polygon points="0.00,4.00 0.43,4.25 1.43,4.25" />
<polygon points="0.43,4.25 0.00,4.00 0.00,3.00" />
<polygon points="1.43,4.25 0.00,3.00 0.00,4.00" />
<polygon points="0.00,3.00 1.43,4.25 0.43,4.25" />
<polygon points="2.43,4.75 2.43,5.75 3.43,5.75" />
<polygon points="2.43,5.75 2.43,4.75 2.00,4.50" />
<polygon points="3.43,5.75 2.00,4.50 2.43,4.75" />
<polygon points="2.00,4.50 3.43,5.75 2.43,5.75" />
<polygon points="0.43,4.75 1.43,4.75 1.43,5.75" />
<polygon points="1.43,4.75 0.43,4.75 0.00,4.50" />
<polygon points="1.43,5.75 0.00,4.50 0.43,4.75" />
<polygon points="0.00,4.50 1.43,5.75 1.43,4.75" />
</g>
</svg>