<svg xmlns="http://www.w3.org/2000/svg" width="31.6" height="100.0" viewBox="-5.0 -5.0 41.6 110.0">
<g fill="none" stroke="black" stroke-width="0.4750%" transform="translate(0, 100.0000) scale(1.0526, -1.0526)">
<line x1="10.0" y1="2.0" x2="20.0" y2="2.0" />
<line x1="10.0" y1="5.0" x2="20.0" y2="5.0" />
<line x1="10.0" y1="9.0" x2="20.0" y2="9.0" />
<line x1="10.0" y1="12.0" x2="20.0" y2="12.0" />
<line x1="10.0" y1="16.0" x2="20.0" y2="16.0" />
<line x1="0.0" y1="19.0" x2="30.0" y2="19.0" />
<line x1="0.0" y1="23.0" x2="30.0" y2="23.0" />
<line x1="0.0" y1="26.0" x2="30.0" y2="26.0" />
<line x1="0.0" y1="29.0" x2="30.0" y2="29.0" />
<line x1="0.0" y1="33.0" x2="30.0" y2="33.0" />
<line x1="10.0" y1="36.0" x2="20.0" y2="36.0" />
<line x1="0.0" y1="40.0" x2="30.0" y2="40.0" />
<line x1="0.0" y1="43.0" x2="30.0" y2="43.0" />
<line x1="0.0" y1="47.0" x2="30.0" y2="47.0" />
<line x1="0.0" y1="50.0" x2="30.0" y2="50.0" />
<line x1="0.0" y1="53.0" x2="30.0" y2="53.0" />
<line x1="10.0" y1="57.0" x2="20.0" y2="57.0" />
<line x1="10.0" y1="60.0" x2="20.0" y2="60.0" />
<line x1="10.0" y1="64.0" x2="20.0" y2="64.0" />
<line x1="10.0" y1="67.0" x2="20.0" y2="67.0" />
<line x1="10.0" y1="71.0" x2="20.0" y2="71.0" />
<line x1="10.0" y1="74.0" x2="20.0" y2="74.0" />
<line x1="10.0" y1="77.0" x2="20.0" y2="77.0" />
<line x1="10.0" y1="81.0" x2="20.0" y2="81.0" />
<line x1="10.0" y1="84.0" x2="20.0" y2="84.0" />
<line x1="10.0" y1="88.0" x2="20.0" y2="88.0" />
<line x1="10.0" y1="91.0" x2="20.0" y2="91.0" />
<line x1="10.0" y1="95.0" x2="20.0" y2="95.0" />
<circle cx="15.0" cy="0.0" r="0.5" />
<circle cx="15.0" cy="12.0" r="0.5" />
<circle cx="15.0" cy="19.0" r="0.5" />
<circle cx="15.0" cy="24.0" r="0.5" />
<circle cx="15.0" cy="27.9" r="0.5" />
<circle cx="15.0" cy="31.0" r="0.5" />
<circle cx="15.0" cy="39.9" r="0.5" />
<circle cx="15.0" cy="43.0" r="0.5" />
<circle cx="15.0" cy="46.9" r="0.5" />
<circle cx="15.0" cy="51.9" r="0.5" />
<circle cx="15.0" cy="58.9" r="0.5" />
<circle cx="15.0" cy="70.9" r="0.5" />
</g>
</svg>