<svg xmlns="http://www.w3.org/2000/svg" width="99" height="99" viewBox="0 0 99 99">
<rect x="0" y="0" width="11" height="11" fill="rgb(0,147,203)"/>
<rect x="0" y="11" width="11" height="11" fill="rgb(0,143,203)"/>
<rect x="0" y="22" width="11" height="11" fill="rgb(0,138,204)"/>
<rect x="0" y="33" width="11" height="11" fill="rgb(0,131,204)"/>
<rect x="0" y="44" width="11" height="11" fill="rgb(0,124,204)"/>
<rect x="0" y="55" width="11" height="11" fill="rgb(84,115,204)"/>
<rect x="0" y="66" width="11" height="11" fill="rgb(125,103,205)"/>
<rect x="0" y="77" width="11" height="11" fill="rgb(156,88,205)"/>
<rect x="0" y="88" width="11" height="11" fill="rgb(182,67,205)"/>
<rect x="11" y="0" width="11" height="11" fill="rgb(0,146,182)"/>
<rect x="11" y="11" width="11" height="11" fill="rgb(0,142,182)"/>
<rect x="11" y="22" width="11" height="11" fill="rgb(0,136,182)"/>
<rect x="11" y="33" width="11" height="11" fill="rgb(0,130,182)"/>
<rect x="11" y="44" width="11" height="11" fill="rgb(63,122,182)"/>
<rect x="11" y="55" width="11" height="11" fill="rgb(109,113,183)"/>
<rect x="11" y="66" width="11" height="11" fill="rgb(141,101,183)"/>
<rect x="11" y="77" width="11" height="11" fill="rgb(168,86,183)"/>
<rect x="11" y="88" width="11" height="11" fill="rgb(193,64,184)"/>
<rect x="22" y="0" width="11" height="11" fill="rgb(0,145,160)"/>
<rect x="22" y="11" width="11" height="11" fill="rgb(0,140,160)"/>
<rect x="22" y="22" width="11" height="11" fill="rgb(0,135,160)"/>
<rect x="22" y="33" width="11" height="11" fill="rgb(27,129,161)"/>
<rect x="22" y="44" width="11" height="11" fill="rgb(90,121,161)"/>
<rect x="22" y="55" width="11" height="11" fill="rgb(125,111,161)"/>
<rect x="22" y="66" width="11" height="11" fill="rgb(153,99,162)"/>
<rect x="22" y="77" width="11" height="11" fill="rgb(178,84,162)"/>
<rect x="22" y="88" width="11" height="11" fill="rgb(201,61,163)"/>
<rect x="33" y="0" width="11" height="11" fill="rgb(0,144,139)"/>
<rect x="33" y="11" width="11" height="11" fill="rgb(0,140,139)"/>
<rect x="33" y="22" width="11" height="11" fill="rgb(0,134,139)"/>
<rect x="33" y="33" width="11" height="11" fill="rgb(67,128,140)"/>
<rect x="33" y="44" width="11" height="11" fill="rgb(107,120,140)"/>
<rect x="33" y="55" width="11" height="11" fill="rgb(137,110,140)"/>
<rect x="33" y="66" width="11" height="11" fill="rgb(163,98,141)"/>
<rect x="33" y="77" width="11" height="11" fill="rgb(186,82,141)"/>
<rect x="33" y="88" width="11" height="11" fill="rgb(208,58,142)"/>
<rect x="44" y="0" width="11" height="11" fill="rgb(0,143,117)"/>
<rect x="44" y="11" width="11" height="11" fill="rgb(0,139,118)"/>
<rect x="44" y="22" width="11" height="11" fill="rgb(27,133,118)"/>
<rect x="44" y="33" width="11" height="11" fill="rgb(86,127,118)"/>
<rect x="44" y="44" width="11" height="11" fill="rgb(119,119,119)"/>
<rect x="44" y="55" width="11" height="11" fill="rgb(146,109,119)"/>
<rect x="44" y="66" width="11" height="11" fill="rgb(170,97,120)"/>
<rect x="44" y="77" width="11" height="11" fill="rgb(192,80,121)"/>
<rect x="44" y="88" width="11" height="11" fill="rgb(213,56,121)"/>
<rect x="55" y="0" width="11" height="11" fill="rgb(0,143,96)"/>
<rect x="55" y="11" width="11" height="11" fill="rgb(0,138,96)"/>
<rect x="55" y="22" width="11" height="11" fill="rgb(57,133,97)"/>
<rect x="55" y="33" width="11" height="11" fill="rgb(98,126,97)"/>
<rect x="55" y="44" width="11" height="11" fill="rgb(127,118,98)"/>
<rect x="55" y="55" width="11" height="11" fill="rgb(153,108,99)"/>
<rect x="55" y="66" width="11" height="11" fill="rgb(175,96,99)"/>
<rect x="55" y="77" width="11" height="11" fill="rgb(197,79,100)"/>
<rect x="55" y="88" width="11" height="11" fill="rgb(218,54,101)"/>
<rect x="66" y="0" width="11" height="11" fill="rgb(0,142,74)"/>
<rect x="66" y="11" width="11" height="11" fill="rgb(0,138,74)"/>
<rect x="66" y="22" width="11" height="11" fill="rgb(71,132,75)"/>
<rect x="66" y="33" width="11" height="11" fill="rgb(106,126,75)"/>
<rect x="66" y="44" width="11" height="11" fill="rgb(134,118,76)"/>
<rect x="66" y="55" width="11" height="11" fill="rgb(158,108,77)"/>
<rect x="66" y="66" width="11" height="11" fill="rgb(180,95,78)"/>
<rect x="66" y="77" width="11" height="11" fill="rgb(201,78,79)"/>
<rect x="66" y="88" width="11" height="11" fill="rgb(221,52,80)"/>
<rect x="77" y="0" width="11" height="11" fill="rgb(0,142,49)"/>
<rect x="77" y="11" width="11" height="11" fill="rgb(25,137,50)"/>
<rect x="77" y="22" width="11" height="11" fill="rgb(80,132,51)"/>
<rect x="77" y="33" width="11" height="11" fill="rgb(112,125,52)"/>
<rect x="77" y="44" width="11" height="11" fill="rgb(138,117,53)"/>
<rect x="77" y="55" width="11" height="11" fill="rgb(161,107,55)"/>
<rect x="77" y="66" width="11" height="11" fill="rgb(183,95,56)"/>
<rect x="77" y="77" width="11" height="11" fill="rgb(203,78,58)"/>
<rect x="77" y="88" width="11" height="11" fill="rgb(223,51,59)"/>
<rect x="88" y="0" width="11" height="11" fill="rgb(0,142,14)"/>
<rect x="88" y="11" width="11" height="11" fill="rgb(41,137,16)"/>
<rect x="88" y="22" width="11" height="11" fill="rgb(86,132,19)"/>
<rect x="88" y="33" width="11" height="11" fill="rgb(116,125,22)"/>
<rect x="88" y="44" width="11" height="11" fill="rgb(141,117,25)"/>
<rect x="88" y="55" width="11" height="11" fill="rgb(164,107,28)"/>
<rect x="88" y="66" width="11" height="11" fill="rgb(185,94,30)"/>
<rect x="88" y="77" width="11" height="11" fill="rgb(205,77,33)"/>
<rect x="88" y="88" width="11" height="11" fill="rgb(225,50,36)"/>
</svg>