<svg xmlns="http://www.w3.org/2000/svg" width="100.0" height="100.0" viewBox="-23.10 -23.10 110.00 110.00">
<g fill="none" stroke="black" stroke-width="0.0453%" transform="translate(0, 63.8069) scale(11.0453, -11.0453)">
<circle cx="-1.64" cy="0.00" r="0.05" />
<circle cx="0.00" cy="7.42" r="0.05" />
<circle cx="-0.65" cy="-0.40" r="0.05" />
<circle cx="-0.63" cy="-0.65" r="0.05" />
<circle cx="-0.26" cy="-0.63" r="0.05" />
<circle cx="-0.41" cy="-0.26" r="0.05" />
<circle cx="-0.10" cy="-0.41" r="0.05" />
<circle cx="0.31" cy="-0.10" r="0.05" />
<circle cx="0.11" cy="0.31" r="0.05" />
<circle cx="-0.02" cy="0.11" r="0.05" />
<circle cx="-0.04" cy="-0.02" r="0.05" />
<circle cx="0.36" cy="-0.04" r="0.05" />
<circle cx="0.82" cy="0.36" r="0.05" />
<circle cx="0.84" cy="0.82" r="0.05" />
<circle cx="0.55" cy="0.84" r="0.05" />
<circle cx="0.09" cy="0.55" r="0.05" />
<circle cx="0.41" cy="0.09" r="0.05" />
<circle cx="-0.00" cy="0.41" r="0.05" />
<circle cx="0.39" cy="-0.00" r="0.05" />
<circle cx="0.54" cy="0.39" r="0.05" />
<circle cx="0.07" cy="0.54" r="0.05" />
<circle cx="0.47" cy="0.07" r="0.05" />
<circle cx="0.13" cy="0.47" r="0.05" />
<circle cx="0.11" cy="0.13" r="0.05" />
<circle cx="-0.31" cy="0.11" r="0.05" />
<circle cx="0.18" cy="-0.31" r="0.05" />
<circle cx="-0.07" cy="0.18" r="0.05" />
<circle cx="-0.19" cy="-0.07" r="0.05" />
<circle cx="-0.54" cy="-0.19" r="0.05" />
<circle cx="-0.91" cy="-0.54" r="0.05" />
<circle cx="-0.52" cy="-0.91" r="0.05" />
<circle cx="-0.58" cy="-0.52" r="0.05" />
<circle cx="-0.64" cy="-0.58" r="0.05" />
<circle cx="-1.01" cy="-0.64" r="0.05" />
<circle cx="-0.52" cy="-1.01" r="0.05" />
<circle cx="-0.86" cy="-0.52" r="0.05" />
<circle cx="-0.88" cy="-0.86" r="0.05" />
<circle cx="-1.15" cy="-0.88" r="0.05" />
<circle cx="-0.66" cy="-1.15" r="0.05" />
<circle cx="-0.47" cy="-0.66" r="0.05" />
<circle cx="-0.80" cy="-0.47" r="0.05" />
<circle cx="-0.64" cy="-0.80" r="0.05" />
<circle cx="-0.67" cy="-0.64" r="0.05" />
<circle cx="-1.09" cy="-0.67" r="0.05" />
<circle cx="-1.09" cy="-1.09" r="0.05" />
<circle cx="-0.85" cy="-1.09" r="0.05" />
<circle cx="-0.70" cy="-0.85" r="0.05" />
<circle cx="-0.21" cy="-0.70" r="0.05" />
<circle cx="-0.51" cy="-0.21" r="0.05" />
<circle cx="-0.70" cy="-0.51" r="0.05" />
<circle cx="-1.12" cy="-0.70" r="0.05" />
<circle cx="-1.04" cy="-1.12" r="0.05" />
<circle cx="-1.48" cy="-1.04" r="0.05" />
<circle cx="-1.64" cy="-1.48" r="0.05" />
<circle cx="-1.27" cy="-1.64" r="0.05" />
<circle cx="-1.03" cy="-1.27" r="0.05" />
<circle cx="-1.12" cy="-1.03" r="0.05" />
<circle cx="-0.77" cy="-1.12" r="0.05" />
<circle cx="-0.51" cy="-0.77" r="0.05" />
<circle cx="-0.96" cy="-0.51" r="0.05" />
<circle cx="-0.53" cy="-0.96" r="0.05" />
<circle cx="-0.46" cy="-0.53" r="0.05" />
<circle cx="-0.23" cy="-0.46" r="0.05" />
<circle cx="-0.20" cy="-0.23" r="0.05" />
<circle cx="-0.08" cy="-0.20" r="0.05" />
<circle cx="0.06" cy="-0.08" r="0.05" />
<circle cx="-0.23" cy="0.06" r="0.05" />
<circle cx="-0.40" cy="-0.23" r="0.05" />
<circle cx="-0.41" cy="-0.40" r="0.05" />
<circle cx="-0.56" cy="-0.41" r="0.05" />
<circle cx="-0.77" cy="-0.56" r="0.05" />
<circle cx="-0.40" cy="-0.77" r="0.05" />
<circle cx="-0.41" cy="-0.40" r="0.05" />
<circle cx="-0.17" cy="-0.41" r="0.05" />
<circle cx="-0.10" cy="-0.17" r="0.05" />
<circle cx="-0.07" cy="-0.10" r="0.05" />
<circle cx="0.22" cy="-0.07" r="0.05" />
<circle cx="0.55" cy="0.22" r="0.05" />
<circle cx="0.66" cy="0.55" r="0.05" />
<circle cx="0.19" cy="0.66" r="0.05" />
<circle cx="-0.03" cy="0.19" r="0.05" />
<circle cx="0.45" cy="-0.03" r="0.05" />
<circle cx="0.73" cy="0.45" r="0.05" />
<circle cx="1.14" cy="0.73" r="0.05" />
<circle cx="0.71" cy="1.14" r="0.05" />
<circle cx="1.15" cy="0.71" r="0.05" />
<circle cx="1.26" cy="1.15" r="0.05" />
<circle cx="1.10" cy="1.26" r="0.05" />
<circle cx="1.10" cy="1.10" r="0.05" />
<circle cx="0.72" cy="1.10" r="0.05" />
<circle cx="0.76" cy="0.72" r="0.05" />
<circle cx="1.07" cy="0.76" r="0.05" />
<circle cx="0.90" cy="1.07" r="0.05" />
<circle cx="0.97" cy="0.90" r="0.05" />
<circle cx="0.76" cy="0.97" r="0.05" />
<circle cx="0.68" cy="0.76" r="0.05" />
<circle cx="0.96" cy="0.68" r="0.05" />
<circle cx="1.29" cy="0.96" r="0.05" />
<circle cx="1.75" cy="1.29" r="0.05" />
<circle cx="1.54" cy="1.75" r="0.05" />
<circle cx="1.87" cy="1.54" r="0.05" />
<circle cx="2.04" cy="1.87" r="0.05" />
<circle cx="1.73" cy="2.04" r="0.05" />
<circle cx="1.29" cy="1.73" r="0.05" />
<circle cx="1.50" cy="1.29" r="0.05" />
<circle cx="1.89" cy="1.50" r="0.05" />
<circle cx="1.41" cy="1.89" r="0.05" />
<circle cx="1.42" cy="1.41" r="0.05" />
<circle cx="0.93" cy="1.42" r="0.05" />
<circle cx="1.10" cy="0.93" r="0.05" />
<circle cx="1.50" cy="1.10" r="0.05" />
<circle cx="1.65" cy="1.50" r="0.05" />
<circle cx="1.76" cy="1.65" r="0.05" />
<circle cx="2.26" cy="1.76" r="0.05" />
<circle cx="2.49" cy="2.26" r="0.05" />
<circle cx="2.51" cy="2.49" r="0.05" />
<circle cx="2.71" cy="2.51" r="0.05" />
<circle cx="2.82" cy="2.71" r="0.05" />
<circle cx="3.25" cy="2.82" r="0.05" />
<circle cx="2.89" cy="3.25" r="0.05" />
<circle cx="2.87" cy="2.89" r="0.05" />
<circle cx="3.02" cy="2.87" r="0.05" />
<circle cx="3.29" cy="3.02" r="0.05" />
<circle cx="3.26" cy="3.29" r="0.05" />
<circle cx="3.27" cy="3.26" r="0.05" />
<circle cx="3.54" cy="3.27" r="0.05" />
<circle cx="3.77" cy="3.54" r="0.05" />
<circle cx="3.99" cy="3.77" r="0.05" />
<circle cx="3.71" cy="3.99" r="0.05" />
<circle cx="4.01" cy="3.71" r="0.05" />
<circle cx="4.07" cy="4.01" r="0.05" />
<circle cx="4.30" cy="4.07" r="0.05" />
<circle cx="3.96" cy="4.30" r="0.05" />
<circle cx="4.28" cy="3.96" r="0.05" />
<circle cx="3.99" cy="4.28" r="0.05" />
<circle cx="4.32" cy="3.99" r="0.05" />
<circle cx="4.20" cy="4.32" r="0.05" />
<circle cx="4.44" cy="4.20" r="0.05" />
<circle cx="4.93" cy="4.44" r="0.05" />
<circle cx="4.83" cy="4.93" r="0.05" />
<circle cx="4.47" cy="4.83" r="0.05" />
<circle cx="4.57" cy="4.47" r="0.05" />
<circle cx="4.53" cy="4.57" r="0.05" />
<circle cx="4.45" cy="4.53" r="0.05" />
<circle cx="4.24" cy="4.45" r="0.05" />
<circle cx="4.44" cy="4.24" r="0.05" />
<circle cx="4.62" cy="4.44" r="0.05" />
<circle cx="4.37" cy="4.62" r="0.05" />
<circle cx="4.35" cy="4.37" r="0.05" />
<circle cx="4.54" cy="4.35" r="0.05" />
<circle cx="4.81" cy="4.54" r="0.05" />
<circle cx="4.71" cy="4.81" r="0.05" />
<circle cx="4.61" cy="4.71" r="0.05" />
<circle cx="4.21" cy="4.61" r="0.05" />
<circle cx="3.76" cy="4.21" r="0.05" />
<circle cx="3.48" cy="3.76" r="0.05" />
<circle cx="3.13" cy="3.48" r="0.05" />
<circle cx="3.38" cy="3.13" r="0.05" />
<circle cx="3.85" cy="3.38" r="0.05" />
<circle cx="4.23" cy="3.85" r="0.05" />
<circle cx="4.11" cy="4.23" r="0.05" />
<circle cx="4.53" cy="4.11" r="0.05" />
<circle cx="4.48" cy="4.53" r="0.05" />
<circle cx="4.46" cy="4.48" r="0.05" />
<circle cx="4.82" cy="4.46" r="0.05" />
<circle cx="4.61" cy="4.82" r="0.05" />
<circle cx="5.05" cy="4.61" r="0.05" />
<circle cx="5.55" cy="5.05" r="0.05" />
<circle cx="5.13" cy="5.55" r="0.05" />
<circle cx="5.44" cy="5.13" r="0.05" />
<circle cx="5.40" cy="5.44" r="0.05" />
<circle cx="5.84" cy="5.40" r="0.05" />
<circle cx="5.93" cy="5.84" r="0.05" />
<circle cx="6.16" cy="5.93" r="0.05" />
<circle cx="6.19" cy="6.16" r="0.05" />
<circle cx="6.02" cy="6.19" r="0.05" />
<circle cx="5.58" cy="6.02" r="0.05" />
<circle cx="5.52" cy="5.58" r="0.05" />
<circle cx="5.21" cy="5.52" r="0.05" />
<circle cx="4.87" cy="5.21" r="0.05" />
<circle cx="4.91" cy="4.87" r="0.05" />
<circle cx="5.34" cy="4.91" r="0.05" />
<circle cx="5.42" cy="5.34" r="0.05" />
<circle cx="5.00" cy="5.42" r="0.05" />
<circle cx="4.73" cy="5.00" r="0.05" />
<circle cx="4.35" cy="4.73" r="0.05" />
<circle cx="4.23" cy="4.35" r="0.05" />
<circle cx="3.83" cy="4.23" r="0.05" />
<circle cx="3.73" cy="3.83" r="0.05" />
<circle cx="3.30" cy="3.73" r="0.05" />
<circle cx="3.77" cy="3.30" r="0.05" />
<circle cx="4.21" cy="3.77" r="0.05" />
<circle cx="4.42" cy="4.21" r="0.05" />
<circle cx="4.55" cy="4.42" r="0.05" />
<circle cx="4.99" cy="4.55" r="0.05" />
<circle cx="4.99" cy="4.99" r="0.05" />
<circle cx="5.34" cy="4.99" r="0.05" />
<circle cx="5.79" cy="5.34" r="0.05" />
<circle cx="5.73" cy="5.79" r="0.05" />
<circle cx="5.93" cy="5.73" r="0.05" />
<circle cx="5.64" cy="5.93" r="0.05" />
<circle cx="5.75" cy="5.64" r="0.05" />
<circle cx="5.30" cy="5.75" r="0.05" />
<circle cx="5.26" cy="5.30" r="0.05" />
<circle cx="5.50" cy="5.26" r="0.05" />
<circle cx="5.43" cy="5.50" r="0.05" />
<circle cx="5.59" cy="5.43" r="0.05" />
<circle cx="6.05" cy="5.59" r="0.05" />
<circle cx="6.13" cy="6.05" r="0.05" />
<circle cx="5.79" cy="6.13" r="0.05" />
<circle cx="5.81" cy="5.79" r="0.05" />
<circle cx="5.58" cy="5.81" r="0.05" />
<circle cx="5.62" cy="5.58" r="0.05" />
<circle cx="5.90" cy="5.62" r="0.05" />
<circle cx="6.23" cy="5.90" r="0.05" />
<circle cx="5.74" cy="6.23" r="0.05" />
<circle cx="5.45" cy="5.74" r="0.05" />
<circle cx="5.90" cy="5.45" r="0.05" />
<circle cx="6.25" cy="5.90" r="0.05" />
<circle cx="6.65" cy="6.25" r="0.05" />
<circle cx="7.03" cy="6.65" r="0.05" />
<circle cx="6.77" cy="7.03" r="0.05" />
<circle cx="7.18" cy="6.77" r="0.05" />
<circle cx="6.94" cy="7.18" r="0.05" />
<circle cx="7.37" cy="6.94" r="0.05" />
<circle cx="7.29" cy="7.37" r="0.05" />
<circle cx="7.42" cy="7.29" r="0.05" />
<circle cx="7.26" cy="7.42" r="0.05" />
<circle cx="6.97" cy="7.26" r="0.05" />
<circle cx="7.32" cy="6.97" r="0.05" />
<circle cx="6.85" cy="7.32" r="0.05" />
<circle cx="6.56" cy="6.85" r="0.05" />
<circle cx="6.76" cy="6.56" r="0.05" />
<circle cx="6.49" cy="6.76" r="0.05" />
<circle cx="6.82" cy="6.49" r="0.05" />
<circle cx="6.53" cy="6.82" r="0.05" />
<circle cx="6.41" cy="6.53" r="0.05" />
<circle cx="6.50" cy="6.41" r="0.05" />
<circle cx="6.26" cy="6.50" r="0.05" />
<circle cx="6.73" cy="6.26" r="0.05" />
<circle cx="6.75" cy="6.73" r="0.05" />
<circle cx="6.30" cy="6.75" r="0.05" />
<circle cx="6.05" cy="6.30" r="0.05" />
<circle cx="5.79" cy="6.05" r="0.05" />
<circle cx="5.54" cy="5.79" r="0.05" />
<circle cx="5.29" cy="5.54" r="0.05" />
<circle cx="5.41" cy="5.29" r="0.05" />
<circle cx="5.84" cy="5.41" r="0.05" />
<circle cx="5.68" cy="5.84" r="0.05" />
<circle cx="5.19" cy="5.68" r="0.05" />
<circle cx="5.45" cy="5.19" r="0.05" />
<circle cx="5.00" cy="5.45" r="0.05" />
<circle cx="5.10" cy="5.00" r="0.05" />
<circle cx="5.57" cy="5.10" r="0.05" />
<circle cx="5.61" cy="5.57" r="0.05" />
<circle cx="5.35" cy="5.61" r="0.05" />
<circle cx="5.14" cy="5.35" r="0.05" />
<circle cx="5.00" cy="5.14" r="0.05" />
<circle cx="5.03" cy="5.00" r="0.05" />
<circle cx="5.43" cy="5.03" r="0.05" />
<circle cx="5.47" cy="5.43" r="0.05" />
<circle cx="5.11" cy="5.47" r="0.05" />
<circle cx="5.39" cy="5.11" r="0.05" />
<circle cx="4.89" cy="5.39" r="0.05" />
<circle cx="4.49" cy="4.89" r="0.05" />
<circle cx="4.59" cy="4.49" r="0.05" />
<circle cx="4.93" cy="4.59" r="0.05" />
<circle cx="4.86" cy="4.93" r="0.05" />
<circle cx="4.79" cy="4.86" r="0.05" />
<circle cx="5.24" cy="4.79" r="0.05" />
<circle cx="4.87" cy="5.24" r="0.05" />
<circle cx="4.86" cy="4.87" r="0.05" />
<circle cx="4.92" cy="4.86" r="0.05" />
<circle cx="4.88" cy="4.92" r="0.05" />
<circle cx="4.90" cy="4.88" r="0.05" />
<circle cx="4.80" cy="4.90" r="0.05" />
<circle cx="5.16" cy="4.80" r="0.05" />
<circle cx="4.81" cy="5.16" r="0.05" />
<circle cx="5.25" cy="4.81" r="0.05" />
<circle cx="5.11" cy="5.25" r="0.05" />
<circle cx="5.23" cy="5.11" r="0.05" />
<circle cx="5.05" cy="5.23" r="0.05" />
<circle cx="4.61" cy="5.05" r="0.05" />
<circle cx="4.49" cy="4.61" r="0.05" />
<circle cx="4.40" cy="4.49" r="0.05" />
<circle cx="4.61" cy="4.40" r="0.05" />
<circle cx="4.97" cy="4.61" r="0.05" />
<circle cx="5.19" cy="4.97" r="0.05" />
<circle cx="5.08" cy="5.19" r="0.05" />
<circle cx="5.28" cy="5.08" r="0.05" />
<circle cx="4.92" cy="5.28" r="0.05" />
<circle cx="4.53" cy="4.92" r="0.05" />
<circle cx="4.08" cy="4.53" r="0.05" />
<circle cx="4.24" cy="4.08" r="0.05" />
<circle cx="3.92" cy="4.24" r="0.05" />
<circle cx="3.67" cy="3.92" r="0.05" />
<circle cx="3.28" cy="3.67" r="0.05" />
<circle cx="2.98" cy="3.28" r="0.05" />
<circle cx="2.62" cy="2.98" r="0.05" />
<circle cx="2.88" cy="2.62" r="0.05" />
<circle cx="3.18" cy="2.88" r="0.05" />
<circle cx="3.60" cy="3.18" r="0.05" />
<circle cx="3.76" cy="3.60" r="0.05" />
<circle cx="3.95" cy="3.76" r="0.05" />
<circle cx="4.41" cy="3.95" r="0.05" />
<circle cx="4.36" cy="4.41" r="0.05" />
<circle cx="4.35" cy="4.36" r="0.05" />
<circle cx="4.33" cy="4.35" r="0.05" />
<circle cx="4.29" cy="4.33" r="0.05" />
<circle cx="4.59" cy="4.29" r="0.05" />
<circle cx="4.68" cy="4.59" r="0.05" />
<circle cx="4.18" cy="4.68" r="0.05" />
<circle cx="4.51" cy="4.18" r="0.05" />
<circle cx="4.96" cy="4.51" r="0.05" />
<circle cx="4.66" cy="4.96" r="0.05" />
<circle cx="4.33" cy="4.66" r="0.05" />
<circle cx="4.34" cy="4.33" r="0.05" />
<circle cx="4.72" cy="4.34" r="0.05" />
<circle cx="4.24" cy="4.72" r="0.05" />
<circle cx="4.28" cy="4.24" r="0.05" />
<circle cx="3.80" cy="4.28" r="0.05" />
<circle cx="4.28" cy="3.80" r="0.05" />
<circle cx="4.26" cy="4.28" r="0.05" />
<circle cx="4.00" cy="4.26" r="0.05" />
<circle cx="3.54" cy="4.00" r="0.05" />
<circle cx="3.95" cy="3.54" r="0.05" />
<circle cx="3.84" cy="3.95" r="0.05" />
<circle cx="3.68" cy="3.84" r="0.05" />
<circle cx="3.63" cy="3.68" r="0.05" />
<circle cx="3.46" cy="3.63" r="0.05" />
<circle cx="3.58" cy="3.46" r="0.05" />
<circle cx="4.02" cy="3.58" r="0.05" />
<circle cx="4.02" cy="4.02" r="0.05" />
<circle cx="4.07" cy="4.02" r="0.05" />
<circle cx="4.46" cy="4.07" r="0.05" />
<circle cx="4.16" cy="4.46" r="0.05" />
<circle cx="4.21" cy="4.16" r="0.05" />
<circle cx="4.51" cy="4.21" r="0.05" />
<circle cx="4.06" cy="4.51" r="0.05" />
<circle cx="3.94" cy="4.06" r="0.05" />
<circle cx="4.18" cy="3.94" r="0.05" />
<circle cx="3.80" cy="4.18" r="0.05" />
<circle cx="3.55" cy="3.80" r="0.05" />
<circle cx="3.58" cy="3.55" r="0.05" />
<circle cx="3.71" cy="3.58" r="0.05" />
<circle cx="4.01" cy="3.71" r="0.05" />
<circle cx="4.42" cy="4.01" r="0.05" />
<circle cx="4.88" cy="4.42" r="0.05" />
<circle cx="5.35" cy="4.88" r="0.05" />
<circle cx="4.95" cy="5.35" r="0.05" />
<circle cx="5.20" cy="4.95" r="0.05" />
<circle cx="4.75" cy="5.20" r="0.05" />
<circle cx="4.64" cy="4.75" r="0.05" />
<circle cx="4.33" cy="4.64" r="0.05" />
<circle cx="4.08" cy="4.33" r="0.05" />
<circle cx="3.73" cy="4.08" r="0.05" />
<circle cx="3.94" cy="3.73" r="0.05" />
<circle cx="3.46" cy="3.94" r="0.05" />
<circle cx="3.02" cy="3.46" r="0.05" />
<circle cx="2.66" cy="3.02" r="0.05" />
<circle cx="3.10" cy="2.66" r="0.05" />
<circle cx="3.34" cy="3.10" r="0.05" />
<circle cx="3.23" cy="3.34" r="0.05" />
<circle cx="3.29" cy="3.23" r="0.05" />
<circle cx="3.50" cy="3.29" r="0.05" />
<circle cx="3.01" cy="3.50" r="0.05" />
<circle cx="3.04" cy="3.01" r="0.05" />
<circle cx="3.34" cy="3.04" r="0.05" />
<circle cx="3.66" cy="3.34" r="0.05" />
<circle cx="3.70" cy="3.66" r="0.05" />
<circle cx="3.76" cy="3.70" r="0.05" />
<circle cx="4.25" cy="3.76" r="0.05" />
<circle cx="4.18" cy="4.25" r="0.05" />
<circle cx="4.20" cy="4.18" r="0.05" />
<circle cx="4.26" cy="4.20" r="0.05" />
<circle cx="4.68" cy="4.26" r="0.05" />
<circle cx="4.22" cy="4.68" r="0.05" />
<circle cx="3.84" cy="4.22" r="0.05" />
<circle cx="4.33" cy="3.84" r="0.05" />
<circle cx="3.91" cy="4.33" r="0.05" />
<circle cx="3.69" cy="3.91" r="0.05" />
<circle cx="3.36" cy="3.69" r="0.05" />
<circle cx="2.96" cy="3.36" r="0.05" />
<circle cx="2.80" cy="2.96" r="0.05" />
<circle cx="2.76" cy="2.80" r="0.05" />
<circle cx="2.74" cy="2.76" r="0.05" />
<circle cx="3.04" cy="2.74" r="0.05" />
<circle cx="2.79" cy="3.04" r="0.05" />
<circle cx="2.39" cy="2.79" r="0.05" />
<circle cx="2.42" cy="2.39" r="0.05" />
<circle cx="2.25" cy="2.42" r="0.05" />
<circle cx="2.50" cy="2.25" r="0.05" />
<circle cx="2.02" cy="2.50" r="0.05" />
<circle cx="2.21" cy="2.02" r="0.05" />
<circle cx="2.13" cy="2.21" r="0.05" />
<circle cx="2.26" cy="2.13" r="0.05" />
<circle cx="2.53" cy="2.26" r="0.05" />
<circle cx="2.43" cy="2.53" r="0.05" />
<circle cx="2.04" cy="2.43" r="0.05" />
<circle cx="1.70" cy="2.04" r="0.05" />
<circle cx="2.05" cy="1.70" r="0.05" />
<circle cx="1.64" cy="2.05" r="0.05" />
<circle cx="1.15" cy="1.64" r="0.05" />
<circle cx="1.48" cy="1.15" r="0.05" />
<circle cx="1.25" cy="1.48" r="0.05" />
<circle cx="0.83" cy="1.25" r="0.05" />
<circle cx="1.17" cy="0.83" r="0.05" />
<circle cx="1.40" cy="1.17" r="0.05" />
<circle cx="1.18" cy="1.40" r="0.05" />
<circle cx="1.58" cy="1.18" r="0.05" />
<circle cx="1.63" cy="1.58" r="0.05" />
<circle cx="2.11" cy="1.63" r="0.05" />
<circle cx="2.16" cy="2.11" r="0.05" />
<circle cx="2.55" cy="2.16" r="0.05" />
<circle cx="2.96" cy="2.55" r="0.05" />
<circle cx="3.08" cy="2.96" r="0.05" />
<circle cx="3.06" cy="3.08" r="0.05" />
<circle cx="3.29" cy="3.06" r="0.05" />
<circle cx="2.81" cy="3.29" r="0.05" />
<circle cx="2.99" cy="2.81" r="0.05" />
<circle cx="3.18" cy="2.99" r="0.05" />
<circle cx="2.75" cy="3.18" r="0.05" />
<circle cx="2.52" cy="2.75" r="0.05" />
<circle cx="2.72" cy="2.52" r="0.05" />
<circle cx="2.58" cy="2.72" r="0.05" />
<circle cx="2.84" cy="2.58" r="0.05" />
<circle cx="2.99" cy="2.84" r="0.05" />
<circle cx="3.46" cy="2.99" r="0.05" />
<circle cx="3.46" cy="3.46" r="0.05" />
<circle cx="3.87" cy="3.46" r="0.05" />
<circle cx="4.32" cy="3.87" r="0.05" />
<circle cx="4.41" cy="4.32" r="0.05" />
<circle cx="4.74" cy="4.41" r="0.05" />
<circle cx="4.78" cy="4.74" r="0.05" />
<circle cx="4.68" cy="4.78" r="0.05" />
<circle cx="4.46" cy="4.68" r="0.05" />
<circle cx="3.99" cy="4.46" r="0.05" />
<circle cx="3.72" cy="3.99" r="0.05" />
<circle cx="3.43" cy="3.72" r="0.05" />
<circle cx="3.26" cy="3.43" r="0.05" />
<circle cx="3.46" cy="3.26" r="0.05" />
<circle cx="3.05" cy="3.46" r="0.05" />
<circle cx="3.54" cy="3.05" r="0.05" />
<circle cx="3.58" cy="3.54" r="0.05" />
<circle cx="3.93" cy="3.58" r="0.05" />
<circle cx="3.59" cy="3.93" r="0.05" />
<circle cx="3.14" cy="3.59" r="0.05" />
<circle cx="3.39" cy="3.14" r="0.05" />
<circle cx="3.11" cy="3.39" r="0.05" />
<circle cx="2.90" cy="3.11" r="0.05" />
<circle cx="2.72" cy="2.90" r="0.05" />
<circle cx="2.56" cy="2.72" r="0.05" />
<circle cx="2.97" cy="2.56" r="0.05" />
<circle cx="2.48" cy="2.97" r="0.05" />
<circle cx="2.31" cy="2.48" r="0.05" />
<circle cx="1.85" cy="2.31" r="0.05" />
<circle cx="1.47" cy="1.85" r="0.05" />
<circle cx="1.51" cy="1.47" r="0.05" />
<circle cx="1.63" cy="1.51" r="0.05" />
<circle cx="1.73" cy="1.63" r="0.05" />
<circle cx="1.51" cy="1.73" r="0.05" />
<circle cx="1.60" cy="1.51" r="0.05" />
<circle cx="1.39" cy="1.60" r="0.05" />
<circle cx="1.77" cy="1.39" r="0.05" />
<circle cx="2.03" cy="1.77" r="0.05" />
<circle cx="2.45" cy="2.03" r="0.05" />
<circle cx="2.32" cy="2.45" r="0.05" />
<circle cx="2.44" cy="2.32" r="0.05" />
<circle cx="2.63" cy="2.44" r="0.05" />
<circle cx="2.52" cy="2.63" r="0.05" />
<circle cx="2.58" cy="2.52" r="0.05" />
<circle cx="2.73" cy="2.58" r="0.05" />
<circle cx="2.71" cy="2.73" r="0.05" />
<circle cx="3.11" cy="2.71" r="0.05" />
<circle cx="2.88" cy="3.11" r="0.05" />
<circle cx="2.77" cy="2.88" r="0.05" />
<circle cx="3.19" cy="2.77" r="0.05" />
<circle cx="3.40" cy="3.19" r="0.05" />
<circle cx="3.39" cy="3.40" r="0.05" />
<circle cx="3.12" cy="3.39" r="0.05" />
<circle cx="3.16" cy="3.12" r="0.05" />
<circle cx="3.44" cy="3.16" r="0.05" />
<circle cx="3.32" cy="3.44" r="0.05" />
<circle cx="3.69" cy="3.32" r="0.05" />
<circle cx="3.20" cy="3.69" r="0.05" />
<circle cx="3.19" cy="3.20" r="0.05" />
<circle cx="3.20" cy="3.19" r="0.05" />
<circle cx="3.10" cy="3.20" r="0.05" />
<circle cx="3.50" cy="3.10" r="0.05" />
<circle cx="3.19" cy="3.50" r="0.05" />
<circle cx="3.41" cy="3.19" r="0.05" />
<circle cx="3.89" cy="3.41" r="0.05" />
<circle cx="4.27" cy="3.89" r="0.05" />
<circle cx="3.80" cy="4.27" r="0.05" />
<circle cx="4.05" cy="3.80" r="0.05" />
<circle cx="4.07" cy="4.05" r="0.05" />
<circle cx="3.92" cy="4.07" r="0.05" />
<circle cx="3.63" cy="3.92" r="0.05" />
<circle cx="4.07" cy="3.63" r="0.05" />
<circle cx="3.84" cy="4.07" r="0.05" />
<circle cx="3.92" cy="3.84" r="0.05" />
</g>
</svg>