<svg xmlns="http://www.w3.org/2000/svg" width="100.0" height="100.0" viewBox="87.9 87.9 110.0 110.0">
<g fill="none" stroke="black" stroke-width="0.7000%" transform="translate(0, 285.7143) scale(0.7143, -0.7143)">
<circle cx="170.0" cy="180.0" r="0.7" />
<circle cx="180.0" cy="170.0" r="0.7" />
<circle cx="190.0" cy="180.0" r="0.7" />
<circle cx="180.0" cy="190.0" r="0.7" />
<circle cx="170.0" cy="180.0" r="0.7" />
<circle cx="150.0" cy="170.0" r="0.7" />
<circle cx="140.0" cy="150.0" r="0.7" />
<circle cx="150.0" cy="140.0" r="0.7" />
<circle cx="150.0" cy="150.0" r="0.7" />
<circle cx="170.0" cy="150.0" r="0.7" />
<circle cx="180.0" cy="170.0" r="0.7" />
<circle cx="180.0" cy="180.0" r="0.7" />
<circle cx="190.0" cy="180.0" r="0.7" />
<circle cx="190.0" cy="190.0" r="0.7" />
<circle cx="210.0" cy="190.0" r="0.7" />
<circle cx="200.0" cy="210.0" r="0.7" />
<circle cx="160.0" cy="200.0" r="0.7" />
<circle cx="140.0" cy="160.0" r="0.7" />
<circle cx="130.0" cy="140.0" r="0.7" />
<circle cx="130.0" cy="130.0" r="0.7" />
<circle cx="150.0" cy="130.0" r="0.7" />
<circle cx="150.0" cy="150.0" r="0.7" />
<circle cx="160.0" cy="150.0" r="0.7" />
<circle cx="150.0" cy="160.0" r="0.7" />
<circle cx="140.0" cy="150.0" r="0.7" />
<circle cx="130.0" cy="140.0" r="0.7" />
<circle cx="140.0" cy="130.0" r="0.7" />
<circle cx="150.0" cy="140.0" r="0.7" />
<circle cx="140.0" cy="150.0" r="0.7" />
<circle cx="150.0" cy="140.0" r="0.7" />
<circle cx="160.0" cy="150.0" r="0.7" />
<circle cx="150.0" cy="160.0" r="0.7" />
<circle cx="160.0" cy="150.0" r="0.7" />
<circle cx="190.0" cy="160.0" r="0.7" />
<circle cx="200.0" cy="190.0" r="0.7" />
<circle cx="200.0" cy="200.0" r="0.7" />
<circle cx="210.0" cy="200.0" r="0.7" />
<circle cx="220.0" cy="210.0" r="0.7" />
<circle cx="230.0" cy="220.0" r="0.7" />
<circle cx="240.0" cy="230.0" r="0.7" />
<circle cx="250.0" cy="240.0" r="0.7" />
<circle cx="270.0" cy="250.0" r="0.7" />
<circle cx="260.0" cy="270.0" r="0.7" />
<circle cx="260.0" cy="260.0" r="0.7" />
<circle cx="260.0" cy="260.0" r="0.7" />
<circle cx="270.0" cy="260.0" r="0.7" />
<circle cx="260.0" cy="270.0" r="0.7" />
<circle cx="250.0" cy="260.0" r="0.7" />
<circle cx="240.0" cy="250.0" r="0.7" />
</g>
</svg>