<svg xmlns="http://www.w3.org/2000/svg" width="161.8" height="100.0" viewBox="-85.902 -11.906 171.803 110.000">
<g fill="none" stroke="black" stroke-width="0.0054%" transform="translate(0, 86.1874) scale(93.0937, -93.0937)">
<polyline points="-0.869,-0.000 -0.852,0.378 -0.834,0.554 -0.817,0.596 -0.800,0.553 -0.782,0.463 -0.765,0.355 -0.747,0.245 -0.730,0.145 -0.713,0.063 -0.695,-0.000 -0.678,-0.042 -0.660,-0.066 -0.643,-0.074 -0.626,-0.070 -0.608,-0.056 -0.591,-0.037 -0.574,-0.014 -0.556,0.009 -0.539,0.031 -0.521,0.050 -0.504,0.066 -0.487,0.079 -0.469,0.089 -0.452,0.096 -0.435,0.102 -0.417,0.107 -0.400,0.114 -0.382,0.122 -0.365,0.134 -0.348,0.150 -0.330,0.171 -0.313,0.198 -0.295,0.230 -0.278,0.269 -0.261,0.314 -0.243,0.364 -0.226,0.418 -0.209,0.477 -0.191,0.538 -0.174,0.600 -0.156,0.662 -0.139,0.723 -0.122,0.781 -0.104,0.834 -0.087,0.882 -0.070,0.923 -0.052,0.956 -0.035,0.980 -0.017,0.995 -0.000,1.000 0.017,0.995 0.035,0.980 0.052,0.956 0.070,0.923 0.087,0.882 0.104,0.834 0.122,0.781 0.139,0.723 0.156,0.662 0.174,0.600 0.191,0.538 0.209,0.477 0.226,0.418 0.243,0.364 0.261,0.314 0.278,0.269 0.295,0.230 0.313,0.198 0.330,0.171 0.348,0.150 0.365,0.134 0.382,0.122 0.400,0.114 0.417,0.107 0.435,0.102 0.452,0.096 0.469,0.089 0.487,0.079 0.504,0.066 0.521,0.050 0.539,0.031 0.556,0.009 0.574,-0.014 0.591,-0.037 0.608,-0.056 0.626,-0.070 0.643,-0.074 0.660,-0.066 0.678,-0.042 0.695,-0.000 0.713,0.063 0.730,0.145 0.747,0.245 0.765,0.355 0.782,0.463 0.800,0.553 0.817,0.596 0.834,0.554 0.852,0.378 0.869,-0.000" />
</g>
</svg>