<svg xmlns="http://www.w3.org/2000/svg" width="161.8" height="100.0" viewBox="-2.90 -54.50 171.80 110.00">
<g fill="none" stroke="black" stroke-width="0.0875%" transform="translate(0, 1.0062) scale(5.7140, -5.7140)">
<line x1="0.37" y1="0.00" x2="0.37" y2="0.52" />

<line x1="1.10" y1="0.00" x2="1.10" y2="0.52" />

<line x1="1.84" y1="0.00" x2="1.84" y2="-0.75" />
<line x1="2.21" y1="0.00" x2="2.21" y2="0.52" />

<line x1="2.94" y1="0.00" x2="2.94" y2="1.17" />
<line x1="3.31" y1="0.00" x2="3.31" y2="-1.17" />
<line x1="3.68" y1="0.00" x2="3.68" y2="0.52" />

<line x1="4.41" y1="0.00" x2="4.41" y2="-1.75" />
<line x1="4.78" y1="0.00" x2="4.78" y2="1.92" />
<line x1="5.15" y1="0.00" x2="5.15" y2="-1.46" />
<line x1="5.52" y1="0.00" x2="5.52" y2="0.52" />

<line x1="6.25" y1="0.00" x2="6.25" y2="2.44" />
<line x1="6.62" y1="0.00" x2="6.62" y2="-2.74" />
<line x1="6.99" y1="0.00" x2="6.99" y2="2.44" />
<line x1="7.36" y1="0.00" x2="7.36" y2="-1.67" />
<line x1="7.72" y1="0.00" x2="7.72" y2="0.52" />

<line x1="8.46" y1="0.00" x2="8.46" y2="-3.22" />
<line x1="8.83" y1="0.00" x2="8.83" y2="3.62" />
<line x1="9.19" y1="0.00" x2="9.19" y2="-3.44" />
<line x1="9.56" y1="0.00" x2="9.56" y2="2.84" />
<line x1="9.93" y1="0.00" x2="9.93" y2="-1.85" />
<line x1="10.30" y1="0.00" x2="10.30" y2="0.52" />

<line x1="11.03" y1="0.00" x2="11.03" y2="4.06" />
<line x1="11.40" y1="0.00" x2="11.40" y2="-4.54" />
<line x1="11.77" y1="0.00" x2="11.77" y2="4.46" />
<line x1="12.14" y1="0.00" x2="12.14" y2="-3.99" />
<line x1="12.50" y1="0.00" x2="12.50" y2="3.16" />
<line x1="12.87" y1="0.00" x2="12.87" y2="-1.99" />
<line x1="13.24" y1="0.00" x2="13.24" y2="0.52" />

<line x1="13.97" y1="0.00" x2="13.97" y2="-4.97" />
<line x1="14.34" y1="0.00" x2="14.34" y2="5.51" />
<line x1="14.71" y1="0.00" x2="14.71" y2="-5.51" />
<line x1="15.08" y1="0.00" x2="15.08" y2="5.13" />
<line x1="15.45" y1="0.00" x2="15.45" y2="-4.43" />
<line x1="15.81" y1="0.00" x2="15.81" y2="3.43" />
<line x1="16.18" y1="0.00" x2="16.18" y2="-2.11" />
<line x1="16.55" y1="0.00" x2="16.55" y2="0.52" />

<line x1="17.28" y1="0.00" x2="17.28" y2="5.92" />
<line x1="17.65" y1="0.00" x2="17.65" y2="-6.52" />
<line x1="18.02" y1="0.00" x2="18.02" y2="6.59" />
<line x1="18.39" y1="0.00" x2="18.39" y2="-6.29" />
<line x1="18.76" y1="0.00" x2="18.76" y2="5.69" />
<line x1="19.12" y1="0.00" x2="19.12" y2="-4.81" />
<line x1="19.49" y1="0.00" x2="19.49" y2="3.67" />
<line x1="19.86" y1="0.00" x2="19.86" y2="-2.22" />
<line x1="20.23" y1="0.00" x2="20.23" y2="0.52" />

<line x1="20.96" y1="0.00" x2="20.96" y2="-6.92" />
<line x1="21.33" y1="0.00" x2="21.33" y2="7.58" />
<line x1="21.70" y1="0.00" x2="21.70" y2="-7.70" />
<line x1="22.07" y1="0.00" x2="22.07" y2="7.47" />
<line x1="22.43" y1="0.00" x2="22.43" y2="-6.94" />
<line x1="22.80" y1="0.00" x2="22.80" y2="6.17" />
<line x1="23.17" y1="0.00" x2="23.17" y2="-5.14" />
<line x1="23.54" y1="0.00" x2="23.54" y2="3.87" />
<line x1="23.90" y1="0.00" x2="23.90" y2="-2.32" />
<line x1="24.27" y1="0.00" x2="24.27" y2="0.52" />

<line x1="25.01" y1="0.00" x2="25.01" y2="7.96" />
<line x1="25.37" y1="0.00" x2="25.37" y2="-8.66" />
<line x1="25.74" y1="0.00" x2="25.74" y2="8.84" />
<line x1="26.11" y1="0.00" x2="26.11" y2="-8.66" />
<line x1="26.48" y1="0.00" x2="26.48" y2="8.21" />
<line x1="26.85" y1="0.00" x2="26.85" y2="-7.51" />
<line x1="27.21" y1="0.00" x2="27.21" y2="6.58" />
<line x1="27.58" y1="0.00" x2="27.58" y2="-5.44" />
<line x1="27.95" y1="0.00" x2="27.95" y2="4.06" />
<line x1="28.32" y1="0.00" x2="28.32" y2="-2.41" />
<line x1="28.68" y1="0.00" x2="28.68" y2="0.52" />
</g>
</svg>