<svg xmlns="http://www.w3.org/2000/svg" width="96" height="96" viewBox="0 0 96 96">
<rect x="0" y="0" width="6" height="6" fill="rgb(219,33,33)"/>
<rect x="0" y="6" width="6" height="6" fill="rgb(219,33,33)"/>
<rect x="0" y="12" width="6" height="6" fill="rgb(196,186,69)"/>
<rect x="0" y="18" width="6" height="6" fill="rgb(219,33,33)"/>
<rect x="0" y="24" width="6" height="6" fill="rgb(99,172,154)"/>
<rect x="0" y="30" width="6" height="6" fill="rgb(196,186,69)"/>
<rect x="0" y="36" width="6" height="6" fill="rgb(231,124,50)"/>
<rect x="0" y="42" width="6" height="6" fill="rgb(219,33,33)"/>
<rect x="0" y="48" width="6" height="6" fill="rgb(65,109,207)"/>
<rect x="0" y="54" width="6" height="6" fill="rgb(99,172,154)"/>
<rect x="0" y="60" width="6" height="6" fill="rgb(147,189,98)"/>
<rect x="0" y="66" width="6" height="6" fill="rgb(196,186,69)"/>
<rect x="0" y="72" width="6" height="6" fill="rgb(224,164,58)"/>
<rect x="0" y="78" width="6" height="6" fill="rgb(231,124,50)"/>
<rect x="0" y="84" width="6" height="6" fill="rgb(224,75,41)"/>
<rect x="0" y="90" width="6" height="6" fill="rgb(219,33,33)"/>
<rect x="6" y="0" width="6" height="6" fill="rgb(219,33,33)"/>
<rect x="6" y="6" width="6" height="6" fill="rgb(219,33,33)"/>
<rect x="6" y="12" width="6" height="6" fill="rgb(196,186,69)"/>
<rect x="6" y="18" width="6" height="6" fill="rgb(219,33,33)"/>
<rect x="6" y="24" width="6" height="6" fill="rgb(99,172,154)"/>
<rect x="6" y="30" width="6" height="6" fill="rgb(196,186,69)"/>
<rect x="6" y="36" width="6" height="6" fill="rgb(231,124,50)"/>
<rect x="6" y="42" width="6" height="6" fill="rgb(219,33,33)"/>
<rect x="6" y="48" width="6" height="6" fill="rgb(65,109,207)"/>
<rect x="6" y="54" width="6" height="6" fill="rgb(99,172,154)"/>
<rect x="6" y="60" width="6" height="6" fill="rgb(147,189,98)"/>
<rect x="6" y="66" width="6" height="6" fill="rgb(196,186,69)"/>
<rect x="6" y="72" width="6" height="6" fill="rgb(224,164,58)"/>
<rect x="6" y="78" width="6" height="6" fill="rgb(231,124,50)"/>
<rect x="6" y="84" width="6" height="6" fill="rgb(224,75,41)"/>
<rect x="6" y="90" width="6" height="6" fill="rgb(219,33,33)"/>
<rect x="12" y="0" width="6" height="6" fill="rgb(131,186,112)"/>
<rect x="12" y="6" width="6" height="6" fill="rgb(131,186,112)"/>
<rect x="12" y="12" width="6" height="6" fill="rgb(219,33,33)"/>
<rect x="12" y="18" width="6" height="6" fill="rgb(131,186,112)"/>
<rect x="12" y="24" width="6" height="6" fill="rgb(228,153,56)"/>
<rect x="12" y="30" width="6" height="6" fill="rgb(219,33,33)"/>
<rect x="12" y="36" width="6" height="6" fill="rgb(73,136,197)"/>
<rect x="12" y="42" width="6" height="6" fill="rgb(131,186,112)"/>
<rect x="12" y="48" width="6" height="6" fill="rgb(196,186,69)"/>
<rect x="12" y="54" width="6" height="6" fill="rgb(228,153,56)"/>
<rect x="12" y="60" width="6" height="6" fill="rgb(227,93,44)"/>
<rect x="12" y="66" width="6" height="6" fill="rgb(219,33,33)"/>
<rect x="12" y="72" width="6" height="6" fill="rgb(63,71,201)"/>
<rect x="12" y="78" width="6" height="6" fill="rgb(73,136,197)"/>
<rect x="12" y="84" width="6" height="6" fill="rgb(99,172,154)"/>
<rect x="12" y="90" width="6" height="6" fill="rgb(131,186,112)"/>
<rect x="18" y="0" width="6" height="6" fill="rgb(219,33,33)"/>
<rect x="18" y="6" width="6" height="6" fill="rgb(219,33,33)"/>
<rect x="18" y="12" width="6" height="6" fill="rgb(196,186,69)"/>
<rect x="18" y="18" width="6" height="6" fill="rgb(219,33,33)"/>
<rect x="18" y="24" width="6" height="6" fill="rgb(99,172,154)"/>
<rect x="18" y="30" width="6" height="6" fill="rgb(196,186,69)"/>
<rect x="18" y="36" width="6" height="6" fill="rgb(231,124,50)"/>
<rect x="18" y="42" width="6" height="6" fill="rgb(219,33,33)"/>
<rect x="18" y="48" width="6" height="6" fill="rgb(65,109,207)"/>
<rect x="18" y="54" width="6" height="6" fill="rgb(99,172,154)"/>
<rect x="18" y="60" width="6" height="6" fill="rgb(147,189,98)"/>
<rect x="18" y="66" width="6" height="6" fill="rgb(196,186,69)"/>
<rect x="18" y="72" width="6" height="6" fill="rgb(224,164,58)"/>
<rect x="18" y="78" width="6" height="6" fill="rgb(231,124,50)"/>
<rect x="18" y="84" width="6" height="6" fill="rgb(224,75,41)"/>
<rect x="18" y="90" width="6" height="6" fill="rgb(219,33,33)"/>
<rect x="24" y="0" width="6" height="6" fill="rgb(221,171,60)"/>
<rect x="24" y="6" width="6" height="6" fill="rgb(221,171,60)"/>
<rect x="24" y="12" width="6" height="6" fill="rgb(82,154,182)"/>
<rect x="24" y="18" width="6" height="6" fill="rgb(221,171,60)"/>
<rect x="24" y="24" width="6" height="6" fill="rgb(219,33,33)"/>
<rect x="24" y="30" width="6" height="6" fill="rgb(82,154,182)"/>
<rect x="24" y="36" width="6" height="6" fill="rgb(158,190,89)"/>
<rect x="24" y="42" width="6" height="6" fill="rgb(221,171,60)"/>
<rect x="24" y="48" width="6" height="6" fill="rgb(229,106,47)"/>
<rect x="24" y="54" width="6" height="6" fill="rgb(219,33,33)"/>
<rect x="24" y="60" width="6" height="6" fill="rgb(62,88,207)"/>
<rect x="24" y="66" width="6" height="6" fill="rgb(82,154,182)"/>
<rect x="24" y="72" width="6" height="6" fill="rgb(117,182,129)"/>
<rect x="24" y="78" width="6" height="6" fill="rgb(158,190,89)"/>
<rect x="24" y="84" width="6" height="6" fill="rgb(196,186,69)"/>
<rect x="24" y="90" width="6" height="6" fill="rgb(221,171,60)"/>
<rect x="30" y="0" width="6" height="6" fill="rgb(131,186,112)"/>
<rect x="30" y="6" width="6" height="6" fill="rgb(131,186,112)"/>
<rect x="30" y="12" width="6" height="6" fill="rgb(219,33,33)"/>
<rect x="30" y="18" width="6" height="6" fill="rgb(131,186,112)"/>
<rect x="30" y="24" width="6" height="6" fill="rgb(228,153,56)"/>
<rect x="30" y="30" width="6" height="6" fill="rgb(219,33,33)"/>
<rect x="30" y="36" width="6" height="6" fill="rgb(73,136,197)"/>
<rect x="30" y="42" width="6" height="6" fill="rgb(131,186,112)"/>
<rect x="30" y="48" width="6" height="6" fill="rgb(196,186,69)"/>
<rect x="30" y="54" width="6" height="6" fill="rgb(228,153,56)"/>
<rect x="30" y="60" width="6" height="6" fill="rgb(227,93,44)"/>
<rect x="30" y="66" width="6" height="6" fill="rgb(219,33,33)"/>
<rect x="30" y="72" width="6" height="6" fill="rgb(63,71,201)"/>
<rect x="30" y="78" width="6" height="6" fill="rgb(73,136,197)"/>
<rect x="30" y="84" width="6" height="6" fill="rgb(99,172,154)"/>
<rect x="30" y="90" width="6" height="6" fill="rgb(131,186,112)"/>
<rect x="36" y="0" width="6" height="6" fill="rgb(68,124,205)"/>
<rect x="36" y="6" width="6" height="6" fill="rgb(68,124,205)"/>
<rect x="36" y="12" width="6" height="6" fill="rgb(230,135,52)"/>
<rect x="36" y="18" width="6" height="6" fill="rgb(68,124,205)"/>
<rect x="36" y="24" width="6" height="6" fill="rgb(170,190,82)"/>
<rect x="36" y="30" width="6" height="6" fill="rgb(230,135,52)"/>
<rect x="36" y="36" width="6" height="6" fill="rgb(219,33,33)"/>
<rect x="36" y="42" width="6" height="6" fill="rgb(68,124,205)"/>
<rect x="36" y="48" width="6" height="6" fill="rgb(110,179,137)"/>
<rect x="36" y="54" width="6" height="6" fill="rgb(170,190,82)"/>
<rect x="36" y="60" width="6" height="6" fill="rgb(215,175,62)"/>
<rect x="36" y="66" width="6" height="6" fill="rgb(230,135,52)"/>
<rect x="36" y="72" width="6" height="6" fill="rgb(225,79,42)"/>
<rect x="36" y="78" width="6" height="6" fill="rgb(219,33,33)"/>
<rect x="36" y="84" width="6" height="6" fill="rgb(64,60,197)"/>
<rect x="36" y="90" width="6" height="6" fill="rgb(68,124,205)"/>
<rect x="42" y="0" width="6" height="6" fill="rgb(219,33,33)"/>
<rect x="42" y="6" width="6" height="6" fill="rgb(219,33,33)"/>
<rect x="42" y="12" width="6" height="6" fill="rgb(196,186,69)"/>
<rect x="42" y="18" width="6" height="6" fill="rgb(219,33,33)"/>
<rect x="42" y="24" width="6" height="6" fill="rgb(99,172,154)"/>
<rect x="42" y="30" width="6" height="6" fill="rgb(196,186,69)"/>
<rect x="42" y="36" width="6" height="6" fill="rgb(231,124,50)"/>
<rect x="42" y="42" width="6" height="6" fill="rgb(219,33,33)"/>
<rect x="42" y="48" width="6" height="6" fill="rgb(65,109,207)"/>
<rect x="42" y="54" width="6" height="6" fill="rgb(99,172,154)"/>
<rect x="42" y="60" width="6" height="6" fill="rgb(147,189,98)"/>
<rect x="42" y="66" width="6" height="6" fill="rgb(196,186,69)"/>
<rect x="42" y="72" width="6" height="6" fill="rgb(224,164,58)"/>
<rect x="42" y="78" width="6" height="6" fill="rgb(231,124,50)"/>
<rect x="42" y="84" width="6" height="6" fill="rgb(224,75,41)"/>
<rect x="42" y="90" width="6" height="6" fill="rgb(219,33,33)"/>
<rect x="48" y="0" width="6" height="6" fill="rgb(230,114,48)"/>
<rect x="48" y="6" width="6" height="6" fill="rgb(230,114,48)"/>
<rect x="48" y="12" width="6" height="6" fill="rgb(131,186,112)"/>
<rect x="48" y="18" width="6" height="6" fill="rgb(230,114,48)"/>
<rect x="48" y="24" width="6" height="6" fill="rgb(63,98,208)"/>
<rect x="48" y="30" width="6" height="6" fill="rgb(131,186,112)"/>
<rect x="48" y="36" width="6" height="6" fill="rgb(212,177,63)"/>
<rect x="48" y="42" width="6" height="6" fill="rgb(230,114,48)"/>
<rect x="48" y="48" width="6" height="6" fill="rgb(219,33,33)"/>
<rect x="48" y="54" width="6" height="6" fill="rgb(63,98,208)"/>
<rect x="48" y="60" width="6" height="6" fill="rgb(89,164,170)"/>
<rect x="48" y="66" width="6" height="6" fill="rgb(131,186,112)"/>
<rect x="48" y="72" width="6" height="6" fill="rgb(176,190,79)"/>
<rect x="48" y="78" width="6" height="6" fill="rgb(212,177,63)"/>
<rect x="48" y="84" width="6" height="6" fill="rgb(228,153,56)"/>
<rect x="48" y="90" width="6" height="6" fill="rgb(230,114,48)"/>
<rect x="54" y="0" width="6" height="6" fill="rgb(221,171,60)"/>
<rect x="54" y="6" width="6" height="6" fill="rgb(221,171,60)"/>
<rect x="54" y="12" width="6" height="6" fill="rgb(82,154,182)"/>
<rect x="54" y="18" width="6" height="6" fill="rgb(221,171,60)"/>
<rect x="54" y="24" width="6" height="6" fill="rgb(219,33,33)"/>
<rect x="54" y="30" width="6" height="6" fill="rgb(82,154,182)"/>
<rect x="54" y="36" width="6" height="6" fill="rgb(158,190,89)"/>
<rect x="54" y="42" width="6" height="6" fill="rgb(221,171,60)"/>
<rect x="54" y="48" width="6" height="6" fill="rgb(229,106,47)"/>
<rect x="54" y="54" width="6" height="6" fill="rgb(219,33,33)"/>
<rect x="54" y="60" width="6" height="6" fill="rgb(62,88,207)"/>
<rect x="54" y="66" width="6" height="6" fill="rgb(82,154,182)"/>
<rect x="54" y="72" width="6" height="6" fill="rgb(117,182,129)"/>
<rect x="54" y="78" width="6" height="6" fill="rgb(158,190,89)"/>
<rect x="54" y="84" width="6" height="6" fill="rgb(196,186,69)"/>
<rect x="54" y="90" width="6" height="6" fill="rgb(221,171,60)"/>
<rect x="60" y="0" width="6" height="6" fill="rgb(182,189,75)"/>
<rect x="60" y="6" width="6" height="6" fill="rgb(182,189,75)"/>
<rect x="60" y="12" width="6" height="6" fill="rgb(63,78,203)"/>
<rect x="60" y="18" width="6" height="6" fill="rgb(182,189,75)"/>
<rect x="60" y="24" width="6" height="6" fill="rgb(228,98,45)"/>
<rect x="60" y="30" width="6" height="6" fill="rgb(63,78,203)"/>
<rect x="60" y="36" width="6" height="6" fill="rgb(107,178,141)"/>
<rect x="60" y="42" width="6" height="6" fill="rgb(182,189,75)"/>
<rect x="60" y="48" width="6" height="6" fill="rgb(225,160,58)"/>
<rect x="60" y="54" width="6" height="6" fill="rgb(228,98,45)"/>
<rect x="60" y="60" width="6" height="6" fill="rgb(219,33,33)"/>
<rect x="60" y="66" width="6" height="6" fill="rgb(63,78,203)"/>
<rect x="60" y="72" width="6" height="6" fill="rgb(77,147,190)"/>
<rect x="60" y="78" width="6" height="6" fill="rgb(107,178,141)"/>
<rect x="60" y="84" width="6" height="6" fill="rgb(143,188,102)"/>
<rect x="60" y="90" width="6" height="6" fill="rgb(182,189,75)"/>
<rect x="66" y="0" width="6" height="6" fill="rgb(131,186,112)"/>
<rect x="66" y="6" width="6" height="6" fill="rgb(131,186,112)"/>
<rect x="66" y="12" width="6" height="6" fill="rgb(219,33,33)"/>
<rect x="66" y="18" width="6" height="6" fill="rgb(131,186,112)"/>
<rect x="66" y="24" width="6" height="6" fill="rgb(228,153,56)"/>
<rect x="66" y="30" width="6" height="6" fill="rgb(219,33,33)"/>
<rect x="66" y="36" width="6" height="6" fill="rgb(73,136,197)"/>
<rect x="66" y="42" width="6" height="6" fill="rgb(131,186,112)"/>
<rect x="66" y="48" width="6" height="6" fill="rgb(196,186,69)"/>
<rect x="66" y="54" width="6" height="6" fill="rgb(228,153,56)"/>
<rect x="66" y="60" width="6" height="6" fill="rgb(227,93,44)"/>
<rect x="66" y="66" width="6" height="6" fill="rgb(219,33,33)"/>
<rect x="66" y="72" width="6" height="6" fill="rgb(63,71,201)"/>
<rect x="66" y="78" width="6" height="6" fill="rgb(73,136,197)"/>
<rect x="66" y="84" width="6" height="6" fill="rgb(99,172,154)"/>
<rect x="66" y="90" width="6" height="6" fill="rgb(131,186,112)"/>
<rect x="72" y="0" width="6" height="6" fill="rgb(91,166,167)"/>
<rect x="72" y="6" width="6" height="6" fill="rgb(91,166,167)"/>
<rect x="72" y="12" width="6" height="6" fill="rgb(226,86,43)"/>
<rect x="72" y="18" width="6" height="6" fill="rgb(91,166,167)"/>
<rect x="72" y="24" width="6" height="6" fill="rgb(206,182,65)"/>
<rect x="72" y="30" width="6" height="6" fill="rgb(226,86,43)"/>
<rect x="72" y="36" width="6" height="6" fill="rgb(63,66,199)"/>
<rect x="72" y="42" width="6" height="6" fill="rgb(91,166,167)"/>
<rect x="72" y="48" width="6" height="6" fill="rgb(154,190,92)"/>
<rect x="72" y="54" width="6" height="6" fill="rgb(206,182,65)"/>
<rect x="72" y="60" width="6" height="6" fill="rgb(230,145,54)"/>
<rect x="72" y="66" width="6" height="6" fill="rgb(226,86,43)"/>
<rect x="72" y="72" width="6" height="6" fill="rgb(219,33,33)"/>
<rect x="72" y="78" width="6" height="6" fill="rgb(63,66,199)"/>
<rect x="72" y="84" width="6" height="6" fill="rgb(69,128,202)"/>
<rect x="72" y="90" width="6" height="6" fill="rgb(91,166,167)"/>
<rect x="78" y="0" width="6" height="6" fill="rgb(68,124,205)"/>
<rect x="78" y="6" width="6" height="6" fill="rgb(68,124,205)"/>
<rect x="78" y="12" width="6" height="6" fill="rgb(230,135,52)"/>
<rect x="78" y="18" width="6" height="6" fill="rgb(68,124,205)"/>
<rect x="78" y="24" width="6" height="6" fill="rgb(170,190,82)"/>
<rect x="78" y="30" width="6" height="6" fill="rgb(230,135,52)"/>
<rect x="78" y="36" width="6" height="6" fill="rgb(219,33,33)"/>
<rect x="78" y="42" width="6" height="6" fill="rgb(68,124,205)"/>
<rect x="78" y="48" width="6" height="6" fill="rgb(110,179,137)"/>
<rect x="78" y="54" width="6" height="6" fill="rgb(170,190,82)"/>
<rect x="78" y="60" width="6" height="6" fill="rgb(215,175,62)"/>
<rect x="78" y="66" width="6" height="6" fill="rgb(230,135,52)"/>
<rect x="78" y="72" width="6" height="6" fill="rgb(225,79,42)"/>
<rect x="78" y="78" width="6" height="6" fill="rgb(219,33,33)"/>
<rect x="78" y="84" width="6" height="6" fill="rgb(64,60,197)"/>
<rect x="78" y="90" width="6" height="6" fill="rgb(68,124,205)"/>
<rect x="84" y="0" width="6" height="6" fill="rgb(65,57,195)"/>
<rect x="84" y="6" width="6" height="6" fill="rgb(65,57,195)"/>
<rect x="84" y="12" width="6" height="6" fill="rgb(221,171,60)"/>
<rect x="84" y="18" width="6" height="6" fill="rgb(65,57,195)"/>
<rect x="84" y="24" width="6" height="6" fill="rgb(131,186,112)"/>
<rect x="84" y="30" width="6" height="6" fill="rgb(221,171,60)"/>
<rect x="84" y="36" width="6" height="6" fill="rgb(225,79,42)"/>
<rect x="84" y="42" width="6" height="6" fill="rgb(65,57,195)"/>
<rect x="84" y="48" width="6" height="6" fill="rgb(82,154,182)"/>
<rect x="84" y="54" width="6" height="6" fill="rgb(131,186,112)"/>
<rect x="84" y="60" width="6" height="6" fill="rgb(184,188,74)"/>
<rect x="84" y="66" width="6" height="6" fill="rgb(221,171,60)"/>
<rect x="84" y="72" width="6" height="6" fill="rgb(230,129,51)"/>
<rect x="84" y="78" width="6" height="6" fill="rgb(225,79,42)"/>
<rect x="84" y="84" width="6" height="6" fill="rgb(219,33,33)"/>
<rect x="84" y="90" width="6" height="6" fill="rgb(65,57,195)"/>
<rect x="90" y="0" width="6" height="6" fill="rgb(219,33,33)"/>
<rect x="90" y="6" width="6" height="6" fill="rgb(219,33,33)"/>
<rect x="90" y="12" width="6" height="6" fill="rgb(196,186,69)"/>
<rect x="90" y="18" width="6" height="6" fill="rgb(219,33,33)"/>
<rect x="90" y="24" width="6" height="6" fill="rgb(99,172,154)"/>
<rect x="90" y="30" width="6" height="6" fill="rgb(196,186,69)"/>
<rect x="90" y="36" width="6" height="6" fill="rgb(231,124,50)"/>
<rect x="90" y="42" width="6" height="6" fill="rgb(219,33,33)"/>
<rect x="90" y="48" width="6" height="6" fill="rgb(65,109,207)"/>
<rect x="90" y="54" width="6" height="6" fill="rgb(99,172,154)"/>
<rect x="90" y="60" width="6" height="6" fill="rgb(147,189,98)"/>
<rect x="90" y="66" width="6" height="6" fill="rgb(196,186,69)"/>
<rect x="90" y="72" width="6" height="6" fill="rgb(224,164,58)"/>
<rect x="90" y="78" width="6" height="6" fill="rgb(231,124,50)"/>
<rect x="90" y="84" width="6" height="6" fill="rgb(224,75,41)"/>
<rect x="90" y="90" width="6" height="6" fill="rgb(219,33,33)"/>
</svg>