<svg xmlns="http://www.w3.org/2000/svg" width="103.1" height="100.0" viewBox="-54.93 -56.63 113.06 110.00">
<g fill="none" stroke="black" stroke-width="0.0204%" transform="translate(0, -3.2622) scale(24.5463, -24.5463)">
<circle cx="-2.03" cy="0.00" r="0.02" />
<circle cx="0.00" cy="1.97" r="0.02" />
<polyline points="0.00,0.00 0.16,0.03 0.26,0.10 0.32,0.21 0.34,0.32 0.32,0.44 0.26,0.55 0.17,0.65 0.05,0.73 -0.10,0.77 -0.26,0.79 -0.42,0.76 -0.58,0.70 -0.73,0.60 -0.86,0.47 -0.97,0.32 -1.04,0.13 -1.08,-0.07 -1.08,-0.28 -1.03,-0.49 -0.95,-0.69 -0.82,-0.87 -0.65,-1.03 -0.46,-1.16 -0.24,-1.25 -0.00,-1.29 0.25,-1.29 0.49,-1.24 0.73,-1.15 0.94,-1.00 1.13,-0.82 1.28,-0.60 1.39,-0.36 1.45,-0.09 1.46,0.18 1.42,0.46 1.32,0.73 1.17,0.97 0.98,1.19 0.75,1.36 0.48,1.49 0.20,1.57 -0.10,1.60 -0.40,1.56 -0.69,1.47 -0.97,1.33 -1.21,1.13 -1.41,0.89 -1.56,0.62 -1.67,0.32 -1.71,0.00 -1.69,-0.32 -1.61,-0.64 -1.47,-0.93 -1.28,-1.20 -1.04,-1.43 -0.76,-1.61 -0.45,-1.74 -0.11,-1.80 0.23,-1.80 0.56,-1.74 0.88,-1.61 1.18,-1.42 1.43,-1.18 1.64,-0.90 1.78,-0.58 1.87,-0.24 1.89,0.12 1.85,0.47 1.73,0.82 1.56,1.13 1.32,1.41 1.04,1.64 0.72,1.82 0.37,1.93 -0.00,1.97 -0.37,1.94 -0.73,1.85 -1.07,1.69 -1.37,1.46 -1.63,1.18 -1.83,0.86 -1.97,0.50 -2.03,0.13 -2.03,-0.26 -1.95,-0.63 -1.81,-0.99 -1.59,-1.32 -1.32,-1.60 -1.00,-1.83 -0.65,-1.99 -0.26,-2.08 0.13,-2.10 0.53,-2.05 0.90,-1.92 1.25,-1.72 1.56,-1.46 1.81,-1.15 2.00,-0.79 2.12,-0.40 2.16,-0.00" />
</g>
</svg>