<svg xmlns="http://www.w3.org/2000/svg" width="161.8" height="100.0" viewBox="-86.719 -17.831 171.803 110.000">
<g fill="none" stroke="black" stroke-width="0.0057%" transform="translate(0, 74.3370) scale(87.1685, -87.1685)">
<circle cx="-0.937" cy="0.000" r="0.006" />
<circle cx="0.000" cy="1.000" r="0.006" />
<polyline points="-0.937,0.000 -0.919,0.000 -0.900,0.000 -0.881,0.000 -0.862,0.000 -0.844,0.000 -0.825,0.000 -0.806,0.000 -0.787,0.000 -0.769,0.000 -0.750,0.000 -0.731,0.000 -0.712,0.000 -0.694,0.000 -0.675,0.000 -0.656,0.000 -0.637,0.000 -0.619,0.000 -0.600,0.000 -0.581,0.000 -0.562,0.000 -0.544,0.000 -0.525,0.000 -0.506,0.000 -0.487,0.000 -0.469,0.000 -0.450,0.000 -0.431,0.000 -0.412,0.000 -0.394,0.000 -0.375,0.000 -0.356,0.000 -0.337,0.000 -0.319,0.000 -0.300,0.000 -0.281,0.004 -0.262,0.018 -0.244,0.045 -0.225,0.087 -0.206,0.144 -0.187,0.217 -0.169,0.304 -0.150,0.401 -0.131,0.505 -0.112,0.612 -0.094,0.715 -0.075,0.809 -0.056,0.888 -0.037,0.949 -0.019,0.987 0.000,1.000 0.019,0.987 0.037,0.949 0.056,0.888 0.075,0.809 0.094,0.715 0.112,0.612 0.131,0.505 0.150,0.401 0.169,0.304 0.187,0.217 0.206,0.144 0.225,0.087 0.244,0.045 0.262,0.018 0.281,0.004 0.300,0.000 0.319,0.000 0.337,0.000 0.356,0.000 0.375,0.000 0.394,0.000 0.412,0.000 0.431,0.000 0.450,0.000 0.469,0.000 0.487,0.000 0.506,0.000 0.525,0.000 0.544,0.000 0.562,0.000 0.581,0.000 0.600,0.000 0.619,0.000 0.637,0.000 0.656,0.000 0.675,0.000 0.694,0.000 0.712,0.000 0.731,0.000 0.750,0.000 0.769,0.000 0.787,0.000 0.806,0.000 0.825,0.000 0.844,0.000 0.862,0.000 0.881,0.000 0.900,0.000 0.919,0.000" />
<polyline points="-0.937,0.000 -0.919,0.000 -0.900,0.000 -0.881,0.000 -0.862,0.000 -0.844,0.000 -0.825,0.000 -0.806,0.000 -0.787,0.000 -0.769,0.000 -0.750,0.000 -0.731,0.000 -0.712,0.000 -0.694,0.000 -0.675,0.000 -0.656,0.000 -0.637,0.000 -0.619,0.000 -0.600,0.000 -0.581,-0.001 -0.562,-0.004 -0.544,-0.009 -0.525,-0.017 -0.506,-0.026 -0.487,-0.038 -0.469,-0.050 -0.450,-0.062 -0.431,-0.073 -0.412,-0.082 -0.394,-0.086 -0.375,-0.085 -0.356,-0.078 -0.337,-0.062 -0.319,-0.038 -0.300,-0.003 -0.281,0.041 -0.262,0.095 -0.244,0.159 -0.225,0.231 -0.206,0.310 -0.187,0.394 -0.169,0.481 -0.150,0.569 -0.131,0.656 -0.112,0.737 -0.094,0.811 -0.075,0.876 -0.056,0.929 -0.037,0.968 -0.019,0.992 0.000,1.000 0.019,0.992 0.037,0.968 0.056,0.929 0.075,0.876 0.094,0.811 0.112,0.737 0.131,0.656 0.150,0.569 0.169,0.481 0.187,0.394 0.206,0.310 0.225,0.231 0.244,0.159 0.262,0.095 0.281,0.041 0.300,-0.003 0.319,-0.038 0.337,-0.062 0.356,-0.078 0.375,-0.085 0.394,-0.086 0.412,-0.082 0.431,-0.073 0.450,-0.062 0.469,-0.050 0.487,-0.038 0.506,-0.026 0.525,-0.017 0.544,-0.009 0.562,-0.004 0.581,-0.001 0.600,0.000 0.619,0.000 0.637,0.000 0.656,0.000 0.675,0.000 0.694,0.000 0.712,0.000 0.731,0.000 0.750,0.000 0.769,0.000 0.787,0.000 0.806,0.000 0.825,0.000 0.844,0.000 0.862,0.000 0.881,0.000 0.900,0.000 0.919,0.000" />
<polyline points="-0.937,0.000 -0.919,0.000 -0.900,0.000 -0.881,0.000 -0.862,0.001 -0.844,0.004 -0.825,0.007 -0.806,0.010 -0.787,0.015 -0.769,0.019 -0.750,0.023 -0.731,0.027 -0.712,0.030 -0.694,0.031 -0.675,0.030 -0.656,0.027 -0.637,0.022 -0.619,0.013 -0.600,0.002 -0.581,-0.012 -0.562,-0.028 -0.544,-0.046 -0.525,-0.065 -0.506,-0.084 -0.487,-0.103 -0.469,-0.120 -0.450,-0.134 -0.431,-0.143 -0.412,-0.147 -0.394,-0.145 -0.375,-0.134 -0.356,-0.116 -0.337,-0.088 -0.319,-0.051 -0.300,-0.004 -0.281,0.051 -0.262,0.115 -0.244,0.187 -0.225,0.265 -0.206,0.348 -0.187,0.433 -0.169,0.519 -0.150,0.604 -0.131,0.686 -0.112,0.762 -0.094,0.830 -0.075,0.889 -0.056,0.936 -0.037,0.971 -0.019,0.993 0.000,1.000 0.019,0.993 0.037,0.971 0.056,0.936 0.075,0.889 0.094,0.830 0.112,0.762 0.131,0.686 0.150,0.604 0.169,0.519 0.187,0.433 0.206,0.348 0.225,0.265 0.244,0.187 0.262,0.115 0.281,0.051 0.300,-0.004 0.319,-0.051 0.337,-0.088 0.356,-0.116 0.375,-0.134 0.394,-0.145 0.412,-0.147 0.431,-0.143 0.450,-0.134 0.469,-0.120 0.487,-0.103 0.506,-0.084 0.525,-0.065 0.544,-0.046 0.562,-0.028 0.581,-0.012 0.600,0.002 0.619,0.013 0.637,0.022 0.656,0.027 0.675,0.030 0.694,0.031 0.712,0.030 0.731,0.027 0.750,0.023 0.769,0.019 0.787,0.015 0.806,0.010 0.825,0.007 0.844,0.004 0.862,0.001 0.881,0.000 0.900,0.000 0.919,0.000" />
</g>
</svg>