<svg xmlns="http://www.w3.org/2000/svg" width="161.8" height="100.0" viewBox="-45.451 -5.000 171.803 110.000">
<g fill="none" stroke="black" stroke-width="0.0050%" transform="translate(0, 100.0000) scale(100.0000, -100.0000)">
<polyline points="-0.405,0.000 -0.388,0.000 -0.372,0.000 -0.356,0.000 -0.340,0.000 -0.324,0.000 -0.307,0.000 -0.291,0.000 -0.275,0.000 -0.259,0.000 -0.243,0.000 -0.227,0.000 -0.210,0.000 -0.194,0.000 -0.178,0.000 -0.162,0.000 -0.146,0.000 -0.129,0.000 -0.113,0.000 -0.097,0.000 -0.081,0.000 -0.065,0.000 -0.049,0.000 -0.032,0.000 -0.016,0.000 0.000,0.000 0.016,0.042 0.032,0.086 0.049,0.133 0.065,0.183 0.081,0.234 0.097,0.287 0.113,0.341 0.129,0.395 0.146,0.450 0.162,0.505 0.178,0.558 0.194,0.611 0.210,0.662 0.227,0.711 0.243,0.757 0.259,0.800 0.275,0.840 0.291,0.876 0.307,0.908 0.324,0.935 0.340,0.958 0.356,0.976 0.372,0.990 0.388,0.997 0.405,1.000 0.421,0.997 0.437,0.990 0.453,0.976 0.469,0.958 0.485,0.935 0.502,0.908 0.518,0.876 0.534,0.840 0.550,0.800 0.566,0.757 0.582,0.711 0.599,0.662 0.615,0.611 0.631,0.558 0.647,0.505 0.663,0.450 0.680,0.395 0.696,0.341 0.712,0.287 0.728,0.234 0.744,0.183 0.760,0.133 0.777,0.086 0.793,0.042 0.809,0.000 0.825,0.000 0.841,0.000 0.858,0.000 0.874,0.000 0.890,0.000 0.906,0.000 0.922,0.000 0.938,0.000 0.955,0.000 0.971,0.000 0.987,0.000 1.003,0.000 1.019,0.000 1.036,0.000 1.052,0.000 1.068,0.000 1.084,0.000 1.100,0.000 1.116,0.000 1.133,0.000 1.149,0.000 1.165,0.000 1.181,0.000 1.197,0.000 1.214,0.000" />
</g>
</svg>