<svg xmlns="http://www.w3.org/2000/svg" width="161.8" height="100.0" viewBox="-5.000 -4.075 171.803 110.000">
<g fill="none" stroke="black" stroke-width="0.0049%" transform="translate(0, 101.8508) scale(101.0506, -101.0506)">
<circle cx="0.000" cy="0.999" r="0.005" />
<polyline points="0.000,0.009 0.016,0.010 0.032,0.011 0.048,0.012 0.064,0.014 0.080,0.015 0.096,0.017 0.112,0.018 0.128,0.020 0.144,0.023 0.160,0.025 0.176,0.028 0.192,0.030 0.208,0.034 0.224,0.037 0.240,0.041 0.256,0.045 0.272,0.050 0.288,0.055 0.304,0.061 0.320,0.068 0.336,0.075 0.352,0.083 0.368,0.091 0.384,0.101 0.400,0.112 0.416,0.123 0.432,0.136 0.448,0.151 0.464,0.166 0.480,0.184 0.496,0.203 0.512,0.225 0.528,0.248 0.544,0.274 0.560,0.303 0.576,0.335 0.592,0.370 0.608,0.409 0.624,0.452 0.640,0.500 0.656,0.548 0.673,0.591 0.689,0.630 0.705,0.665 0.721,0.697 0.737,0.726 0.753,0.752 0.769,0.775 0.785,0.797 0.801,0.816 0.817,0.834 0.833,0.849 0.849,0.864 0.865,0.877 0.881,0.888 0.897,0.899 0.913,0.909 0.929,0.917 0.945,0.925 0.961,0.932 0.977,0.939 0.993,0.945 1.009,0.950 1.025,0.955 1.041,0.959 1.057,0.963 1.073,0.966 1.089,0.970 1.105,0.972 1.121,0.975 1.137,0.977 1.153,0.980 1.169,0.982 1.185,0.983 1.201,0.985 1.217,0.986 1.233,0.988 1.249,0.989 1.265,0.990 1.281,0.991 1.297,0.992 1.313,0.993 1.329,0.993 1.345,0.994 1.361,0.994 1.377,0.995 1.393,0.995 1.409,0.996 1.425,0.996 1.441,0.997 1.457,0.997 1.473,0.997 1.489,0.998 1.505,0.998 1.521,0.998 1.537,0.998 1.553,0.998 1.569,0.998 1.585,0.999 1.601,0.999" />
<polyline points="0.000,0.068 0.016,0.071 0.032,0.075 0.048,0.079 0.064,0.083 0.080,0.087 0.096,0.091 0.112,0.096 0.128,0.101 0.144,0.106 0.160,0.112 0.176,0.117 0.192,0.123 0.208,0.130 0.224,0.136 0.240,0.143 0.256,0.151 0.272,0.158 0.288,0.166 0.304,0.175 0.320,0.184 0.336,0.193 0.352,0.203 0.368,0.214 0.384,0.225 0.400,0.236 0.416,0.248 0.432,0.261 0.448,0.274 0.464,0.288 0.480,0.303 0.496,0.319 0.512,0.335 0.528,0.352 0.544,0.370 0.560,0.389 0.576,0.409 0.592,0.430 0.608,0.452 0.624,0.476 0.640,0.500 0.656,0.524 0.673,0.548 0.689,0.570 0.705,0.591 0.721,0.611 0.737,0.630 0.753,0.648 0.769,0.665 0.785,0.681 0.801,0.697 0.817,0.712 0.833,0.726 0.849,0.739 0.865,0.752 0.881,0.764 0.897,0.775 0.913,0.786 0.929,0.797 0.945,0.807 0.961,0.816 0.977,0.825 0.993,0.834 1.009,0.842 1.025,0.849 1.041,0.857 1.057,0.864 1.073,0.870 1.089,0.877 1.105,0.883 1.121,0.888 1.137,0.894 1.153,0.899 1.169,0.904 1.185,0.909 1.201,0.913 1.217,0.917 1.233,0.921 1.249,0.925 1.265,0.929 1.281,0.932 1.297,0.936 1.313,0.939 1.329,0.942 1.345,0.945 1.361,0.947 1.377,0.950 1.393,0.952 1.409,0.955 1.425,0.957 1.441,0.959 1.457,0.961 1.473,0.963 1.489,0.965 1.505,0.966 1.521,0.968 1.537,0.970 1.553,0.971 1.569,0.972 1.585,0.974 1.601,0.975" />
<polyline points="0.000,0.184 0.016,0.189 0.032,0.193 0.048,0.198 0.064,0.203 0.080,0.208 0.096,0.214 0.112,0.219 0.128,0.225 0.144,0.230 0.160,0.236 0.176,0.242 0.192,0.248 0.208,0.255 0.224,0.261 0.240,0.268 0.256,0.274 0.272,0.281 0.288,0.288 0.304,0.296 0.320,0.303 0.336,0.311 0.352,0.319 0.368,0.327 0.384,0.335 0.400,0.344 0.416,0.352 0.432,0.361 0.448,0.370 0.464,0.380 0.480,0.389 0.496,0.399 0.512,0.409 0.528,0.420 0.544,0.430 0.560,0.441 0.576,0.452 0.592,0.464 0.608,0.476 0.624,0.488 0.640,0.500 0.656,0.512 0.673,0.524 0.689,0.536 0.705,0.548 0.721,0.559 0.737,0.570 0.753,0.580 0.769,0.591 0.785,0.601 0.801,0.611 0.817,0.620 0.833,0.630 0.849,0.639 0.865,0.648 0.881,0.656 0.897,0.665 0.913,0.673 0.929,0.681 0.945,0.689 0.961,0.697 0.977,0.704 0.993,0.712 1.009,0.719 1.025,0.726 1.041,0.732 1.057,0.739 1.073,0.745 1.089,0.752 1.105,0.758 1.121,0.764 1.137,0.770 1.153,0.775 1.169,0.781 1.185,0.786 1.201,0.792 1.217,0.797 1.233,0.802 1.249,0.807 1.265,0.811 1.281,0.816 1.297,0.821 1.313,0.825 1.329,0.829 1.345,0.834 1.361,0.838 1.377,0.842 1.393,0.846 1.409,0.849 1.425,0.853 1.441,0.857 1.457,0.860 1.473,0.864 1.489,0.867 1.505,0.870 1.521,0.874 1.537,0.877 1.553,0.880 1.569,0.883 1.585,0.886 1.601,0.888" />
</g>
</svg>