<svg xmlns="http://www.w3.org/2000/svg" width="99.6" height="100.0" viewBox="-54.513 -54.706 109.596 110.000">
<g fill="none" stroke="black" stroke-width="0.0099%" transform="translate(0, 0.5888) scale(50.4474, -50.4474)">
<polyline points="0.000,0.841 0.248,0.951 0.481,0.997 0.683,0.976 0.841,0.889 0.947,0.742 0.993,0.546 0.976,0.313 0.898,0.060 0.764,-0.197 0.583,-0.440 0.365,-0.653 0.124,-0.822 -0.124,-0.935 -0.364,-0.985 -0.580,-0.969 -0.760,-0.888 -0.891,-0.747 -0.967,-0.557 -0.981,-0.329 -0.934,-0.079 -0.829,0.175 -0.671,0.417 -0.472,0.631 -0.243,0.802 0.000,0.919 0.243,0.973 0.470,0.963 0.668,0.887 0.823,0.752 0.926,0.567 0.971,0.344 0.955,0.098 0.879,-0.154 0.748,-0.395 0.570,-0.609 0.357,-0.782 0.121,-0.902 -0.121,-0.961 -0.356,-0.956 -0.567,-0.886 -0.743,-0.756 -0.872,-0.576 -0.946,-0.358 -0.960,-0.116 -0.914,0.133 -0.811,0.373 -0.657,0.588 -0.462,0.762 -0.238,0.885 0.000,0.949 0.238,0.948 0.460,0.884 0.653,0.760 0.805,0.586 0.906,0.372 0.950,0.134 0.934,-0.113 0.860,-0.352 0.732,-0.566 0.558,-0.743 0.349,-0.869 0.119,-0.936 -0.119,-0.940 -0.348,-0.882 -0.555,-0.764 -0.727,-0.594 -0.853,-0.386 -0.925,-0.151 -0.939,0.093 -0.894,0.330 -0.793,0.545 -0.643,0.723 -0.452,0.852 -0.233,0.923 -0.000,0.932 0.233,0.879 0.450,0.766 0.639,0.603 0.788,0.398 0.886,0.168 0.929,-0.073 0.914,-0.309 0.841,-0.524 0.716,-0.703 0.545,-0.835 0.341,-0.910 0.116,-0.924 -0.116,-0.876 -0.340,-0.769 -0.543,-0.610 -0.711,-0.411 -0.834,-0.184 -0.905,0.054 -0.919,0.289 -0.875,0.503 -0.776,0.684 -0.629,0.818 -0.442,0.897 -0.228,0.916 -0.000,0.872 0.228,0.771 0.440,0.618 0.625,0.423 0.771,0.200 0.867,-0.035 0.909,-0.268 0.894,-0.483 0.823,-0.664 0.700,-0.801 0.534,-0.884 0.334,-0.907 0.114,-0.869 -0.113,-0.772 -0.333,-0.624 -0.531,-0.435 -0.696,-0.216 -0.816,0.017 -0.885,0.248 -0.899,0.462 -0.856,0.645 -0.759,0.784 -0.615,0.870 -0.432,0.897 -0.223,0.865 -0.000,0.774 0.223,0.631 0.431,0.446 0.612,0.231 0.754,0.001 0.848,-0.228 0.889,-0.442 0.875,-0.625 0.805,-0.767 0.685,-0.856 0.522,-0.888 0.327,-0.860 0.111,-0.774 -0.111,-0.637 -0.326,-0.456 -0.520,-0.246 -0.681,-0.019 -0.799,0.208 -0.866,0.422 -0.879,0.606 -0.837,0.750 -0.743,0.842 -0.602,0.878 -0.423,0.855 -0.218,0.775 -0.000,0.642 0.218,0.467 0.421,0.260 0.598,0.036 0.737,-0.189 0.830,-0.402 0.870,-0.587 0.856,-0.732 0.787,-0.828 0.670,-0.868 0.511,-0.850 0.320,-0.774 0.109,-0.647 -0.109,-0.476 -0.319,-0.274 -0.508,-0.053 -0.666,0.170 -0.781,0.382 -0.847,0.568 -0.860,0.715 -0.819,0.814 -0.726,0.858 -0.588,0.844 -0.414,0.774 -0.213,0.652 -0.000,0.486 0.213,0.287 0.412,0.070 0.585,-0.152 0.721,-0.363 0.812,-0.549 0.851,-0.698 0.837,-0.800 0.770,-0.848 0.655,-0.839 0.500,-0.773 0.313,-0.656 0.106,-0.495 -0.106,-0.300 -0.312,-0.086 -0.497,0.133 -0.651,0.343 -0.764,0.530 -0.829,0.681 -0.841,0.785 -0.801,0.837 -0.711,0.832 -0.576,0.772 -0.405,0.659 -0.209,0.503 -0.000,0.313 0.208,0.102 0.403,-0.115 0.573,-0.324 0.706,-0.511 0.794,-0.663 0.833,-0.771 0.819,-0.826 0.754,-0.826 0.641,-0.770 0.489,-0.663 0.306,-0.511 0.104,-0.325 -0.104,-0.118 -0.305,0.097 -0.487,0.305 -0.637,0.493 -0.748,0.646 -0.811,0.756 -0.823,0.815 -0.784,0.819 -0.695,0.768 -0.563,0.666 -0.396,0.518 -0.204,0.337 -0.000,0.133 0.204,-0.080 0.395,-0.287 0.560,-0.474 0.690,-0.629 0.777,-0.742 0.815,-0.804 0.801,-0.812 0.737,-0.766 0.627,-0.668 0.478,-0.526 0.299,-0.348 0.102,-0.147 -0.102,0.063 -0.298,0.269 -0.476,0.456 -0.623,0.612 -0.731,0.727 -0.793,0.793 -0.805,0.805 -0.767,0.763 -0.680,0.670 -0.551,0.532 -0.387,0.359 -0.200,0.162 -0.000,-0.046 0.199,-0.250 0.386,-0.438 0.548,-0.595 0.675,-0.712 0.760,-0.781 0.797,-0.797 0.784,-0.760 0.721,-0.672 0.614,-0.539 0.468,-0.369 0.293,-0.176 0.100,0.030 -0.099,0.233 -0.292,0.420 -0.466,0.578 -0.610,0.697 -0.715,0.769 -0.776,0.790 -0.788,0.757 -0.750,0.673 -0.665,0.545 -0.539,0.379 -0.379,0.189 -0.195,-0.014 -0.000,-0.215 0.195,-0.402 0.378,-0.561 0.536,-0.682 0.661,-0.757 0.743,-0.782 0.779,-0.753 0.766,-0.674 0.705,-0.550 0.600,-0.389 0.457,-0.202 0.286,-0.002 0.097,0.198 -0.097,0.384 -0.285,0.544 -0.455,0.667 -0.597,0.745 -0.700,0.773 -0.759,0.749 -0.771,0.675 -0.734,0.555 -0.651,0.398 -0.527,0.215 -0.371,0.018 -0.191,-0.181 -0.000,-0.366 0.191,-0.527 0.369,-0.652 0.524,-0.733 0.646,-0.765 0.727,-0.745 0.763,-0.675 0.750,-0.560 0.690,-0.407 0.587,-0.227 0.447,-0.033 0.280,0.164 0.095,0.349 -0.095,0.511 -0.279,0.637 -0.446,0.721 -0.584,0.756 -0.685,0.740 -0.743,0.675 -0.754,0.564 -0.718,0.416 -0.637,0.239 -0.516,0.048 -0.363,-0.147 -0.187,-0.332 -0.000,-0.494 0.187,-0.622 0.361,-0.709 0.513,-0.747 0.632,-0.736 0.711,-0.675 0.746,-0.568 0.734,-0.424 0.675,-0.251 0.574,-0.062 0.438,0.131 0.274,0.315 0.093,0.477 -0.093,0.607 -0.273,0.696 -0.436,0.738 -0.571,0.731 -0.670,0.674 -0.726,0.572 -0.737,0.431 -0.702,0.262 -0.623,0.076 -0.504,-0.115 -0.355,-0.298 -0.183,-0.461 -0.000,-0.592 0.183,-0.684 0.353,-0.729 0.502,-0.725 0.618,-0.673 0.696,-0.575 0.730,-0.439 0.718,-0.273 0.660,-0.090 0.562,0.099 0.428,0.282 0.268,0.445 0.091,0.577 -0.091,0.671 -0.267,0.720 -0.426,0.720 -0.558,0.671 -0.655,0.578 -0.711,0.446 -0.721,0.284 -0.687,0.103 -0.609,-0.084 -0.494,-0.265 -0.347,-0.428 -0.179,-0.562 -0.000,-0.658 0.179,-0.710 0.346,-0.714 0.491,-0.669 0.605,-0.580 0.681,-0.452 0.714,-0.294 0.702,-0.116 0.646,0.069 0.550,0.249 0.419,0.412 0.262,0.547 0.089,0.646 -0.089,0.700 -0.261,0.708 -0.417,0.667 -0.546,0.582 -0.641,0.458 -0.695,0.304 -0.706,0.129 -0.672,-0.054 -0.596,-0.233 -0.483,-0.396 -0.339,-0.532 -0.175,-0.633 -0.000,-0.690 0.175,-0.701 0.338,-0.665 0.480,-0.584 0.592,-0.464 0.666,-0.313 0.698,-0.142 0.687,0.039 0.632,0.217 0.538,0.380 0.410,0.518 0.256,0.620 0.087,0.680 -0.087,0.695 -0.256,0.662 -0.408,0.586 -0.534,0.470 -0.627,0.322 -0.680,0.154 -0.690,-0.025 -0.657,-0.202 -0.583,-0.365 -0.472,-0.503 -0.332,-0.607 -0.171,-0.670 -0.000,-0.688 0.171,-0.660 0.331,-0.587 0.470,-0.475 0.579,-0.331 0.652,-0.166 0.683,0.011 0.672,0.186 0.618,0.349 0.526,0.488 0.401,0.594 0.251,0.660 0.085,0.681 -0.085,0.656 -0.250,0.588 -0.399,0.480 -0.523,0.340 -0.613,0.177 -0.665,0.003 -0.675,-0.171 -0.643,-0.334 -0.570,-0.473 -0.462,-0.581 -0.325,-0.649 -0.168,-0.674 -0.000,-0.653 0.167,-0.588 0.324,-0.484 0.460,-0.348 0.566,-0.188 0.637,-0.016 0.668,0.157 0.657,0.318 0.605,0.459 0.515,0.568 0.392,0.639 0.245,0.666 0.083,0.649 -0.083,0.588 -0.245,0.488 -0.390,0.355 -0.511,0.199 -0.600,0.029 -0.651,-0.142 -0.661,-0.303 -0.629,-0.444 -0.558,-0.555 -0.452,-0.628 -0.318,-0.659 -0.164,-0.645 -0.000,-0.588 0.164,-0.492 0.317,-0.363 0.450,-0.209 0.554,-0.042 0.623,0.128 0.654,0.288 0.643,0.430 0.592,0.542 0.503,0.617 0.384,0.651 0.240,0.641 0.082,0.588 -0.082,0.495 -0.239,0.370 -0.382,0.220 -0.500,0.055 -0.587,-0.113 -0.637,-0.274 -0.646,-0.415 -0.615,-0.529 -0.546,-0.606 -0.442,-0.643 -0.311,-0.636 -0.160,-0.587 -0.000,-0.498 0.160,-0.376 0.310,-0.229 0.440,-0.067 0.542,0.099 0.610,0.259 0.639,0.401 0.629,0.515 0.579,0.595 0.492,0.635 0.375,0.632 0.235,0.586 0.080,0.501 -0.080,0.383 -0.234,0.239 -0.374,0.079 -0.489,-0.086 -0.574,-0.245 -0.623,-0.387 -0.632,-0.502 -0.602,-0.584 -0.534,-0.627 -0.432,-0.627 -0.304,-0.585 -0.157,-0.504 -0.000,-0.389 0.157,-0.248 0.303,-0.091 0.430,0.072 0.530,0.230 0.597,0.372 0.626,0.489 0.615,0.573 0.566,0.618 0.482,0.622 0.367,0.583 0.230,0.506 0.078,0.395 -0.078,0.257 -0.229,0.102 -0.366,-0.059 -0.479,-0.216 -0.562,-0.358 -0.609,-0.476 -0.618,-0.562 -0.589,-0.610 -0.522,-0.616 -0.423,-0.582 -0.297,-0.508 -0.153,-0.400 -0.000,-0.265 0.153,-0.113 0.296,0.046 0.421,0.202 0.519,0.344 0.584,0.463 0.612,0.551 0.602,0.601 0.554,0.611 0.471,0.580 0.359,0.509 0.225,0.405 0.076,0.274 -0.076,0.124 -0.224,-0.033 -0.358,-0.189 -0.468,-0.331 -0.549,-0.450 -0.596,-0.539 -0.605,-0.592 -0.576,-0.605 -0.511,-0.577 -0.414,-0.511 -0.291,-0.410 -0.150,-0.282 0.000,-0.135 0.150,0.021 0.290,0.175 0.412,0.317 0.507,0.437 0.571,0.528 0.599,0.583 0.589,0.599 0.542,0.575 0.461,0.512 0.351,0.414 0.220,0.289 0.075,0.145 -0.075,-0.009 -0.219,-0.162 -0.350,-0.303 -0.458,-0.425 -0.538,-0.517 -0.583,-0.574 -0.592,-0.593 -0.564,-0.572 -0.500,-0.512 -0.405,-0.418 -0.285,-0.296 -0.147,-0.155 0.000,-0.003 0.147,0.149 0.284,0.290 0.403,0.412 0.496,0.506 0.559,0.565 0.586,0.587 0.576,0.569 0.530,0.513 0.451,0.422 0.344,0.303 0.215,0.165 0.073,0.015 -0.073,-0.136 -0.215,-0.277 -0.342,-0.399 -0.448,-0.494 -0.526,-0.556 -0.570,-0.580 -0.579,-0.566 -0.551,-0.513 -0.489,-0.426 -0.396,-0.310 -0.278,-0.174 -0.144,-0.026 0.000,0.123 0.143,0.264 0.278,0.386 0.394,0.483 0.486,0.547 0.546,0.574 0.573,0.562 0.563,0.513 0.518,0.429 0.441,0.317 0.336,0.183 0.210,0.037 0.072,-0.110 -0.072,-0.251 -0.210,-0.374 -0.335,-0.471 -0.438,-0.537 -0.514,-0.567 -0.558,-0.558 -0.566,-0.512 -0.539,-0.432 -0.478,-0.323 -0.387,-0.192 -0.272,-0.048 -0.141,0.098 0.000,0.238 0.140,0.361 0.271,0.460 0.385,0.528 0.475,0.560 0.535,0.554 0.560,0.512 0.551,0.435 0.507,0.328 0.432,0.200 0.329,0.059 0.206,-0.086 0.070,-0.225 -0.070,-0.349 -0.205,-0.449 -0.327,-0.518 -0.429,-0.553 -0.503,-0.550 -0.546,-0.511 -0.554,-0.437 -0.528,-0.334 -0.468,-0.209 -0.379,-0.070 -0.267,0.074 -0.137,0.212 0.000,0.336 0.137,0.437 0.266,0.509 0.377,0.546 0.465,0.546 0.523,0.510 0.548,0.439 0.539,0.339 0.496,0.217 0.422,0.080 0.322,-0.062 0.201,-0.200 0.068,-0.324 -0.068,-0.426 -0.201,-0.499 -0.320,-0.538 -0.420,-0.542 -0.492,-0.508 -0.534,-0.441 -0.542,-0.344 -0.516,-0.224 -0.458,-0.090 -0.371,0.051 -0.261,0.188 -0.134,0.312 0.000,0.414 0.134,0.489 0.260,0.531 0.369,0.537 0.455,0.507 0.512,0.443 0.536,0.349 0.527,0.232 0.485,0.099 0.413,-0.040 0.315,-0.176 0.197,-0.299 0.067,-0.403 -0.067,-0.479 -0.196,-0.523 -0.313,-0.532 -0.410,-0.505 -0.482,-0.444 -0.522,-0.353 -0.530,-0.239 -0.505,-0.109 -0.448,0.028 -0.363,0.164 -0.255,0.287 -0.132,0.392 0.000,0.470 0.131,0.516 0.254,0.527 0.361,0.503 0.445,0.445 0.500,0.357 0.525,0.246 0.516,0.118 0.475,-0.018 0.404,-0.152 0.308,-0.276 0.193,-0.381 0.066,-0.460 -0.065,-0.508 -0.192,-0.522 -0.307,-0.501 -0.402,-0.446 -0.471,-0.361 -0.511,-0.252 -0.519,-0.127 -0.494,0.007 -0.438,0.140 -0.355,0.264 -0.249,0.369 -0.129,0.450 0.000,0.500 0.128,0.517 0.249,0.498 0.353,0.447 0.435,0.365 0.490,0.259 0.513,0.136 0.505,0.003 0.465,-0.129 0.395,-0.252 0.301,-0.358 0.188,-0.440 0.064,-0.492 -0.064,-0.511 -0.188,-0.496 -0.300,-0.447 -0.393,-0.368 -0.461,-0.265 -0.500,-0.144 -0.507,-0.014 -0.483,0.118 -0.429,0.240 -0.347,0.347 -0.244,0.430 -0.126,0.484 0.000,0.505 0.126,0.493 0.243,0.447 0.345,0.371 0.426,0.271 0.479,0.152 0.502,0.024 0.494,-0.106 0.454,-0.229 0.387,-0.336 0.295,-0.420 0.184,-0.476 0.063,-0.500 -0.063,-0.490 -0.184,-0.447 -0.293,-0.374 -0.384,-0.276 -0.451,-0.160 -0.489,-0.033 -0.496,0.096 -0.473,0.218 -0.419,0.325 -0.340,0.410 -0.239,0.468 -0.123,0.494" />
</g>
</svg>