<svg xmlns="http://www.w3.org/2000/svg" width="73.1" height="100.0" viewBox="-38.74 -5.00 83.11 110.00">
<g fill="none" stroke="black" stroke-width="0.0204%" transform="translate(0, 100.0000) scale(24.4499, -24.4499)">
<circle cx="0.00" cy="0.00" r="0.02" />
<circle cx="-0.69" cy="0.69" r="0.02" />
<circle cx="0.00" cy="1.10" r="0.02" />
<circle cx="-1.38" cy="1.38" r="0.02" />
<circle cx="1.61" cy="1.61" r="0.02" />
<circle cx="-0.69" cy="1.79" r="0.02" />
<circle cx="0.92" cy="2.30" r="0.02" />
<circle cx="-1.38" cy="2.48" r="0.02" />
<circle cx="1.61" cy="2.71" r="0.02" />
<circle cx="0.23" cy="2.99" r="0.02" />
<circle cx="0.92" cy="3.40" r="0.02" />
<circle cx="0.23" cy="4.09" r="0.02" />
<line x1="0.00" y1="0.00" x2="-0.69" y2="0.69" />
<line x1="0.00" y1="0.00" x2="0.00" y2="1.10" />
<line x1="0.00" y1="0.00" x2="1.61" y2="1.61" />
<line x1="-0.69" y1="0.69" x2="-1.38" y2="1.38" />
<line x1="-0.69" y1="0.69" x2="-0.69" y2="1.79" />
<line x1="-0.69" y1="0.69" x2="0.92" y2="2.30" />
<line x1="0.00" y1="1.10" x2="-0.69" y2="1.79" />
<line x1="0.00" y1="1.10" x2="1.61" y2="2.71" />
<line x1="-1.38" y1="1.38" x2="-1.38" y2="2.48" />
<line x1="-1.38" y1="1.38" x2="0.23" y2="2.99" />
<line x1="1.61" y1="1.61" x2="0.92" y2="2.30" />
<line x1="1.61" y1="1.61" x2="1.61" y2="2.71" />
<line x1="-0.69" y1="1.79" x2="-1.38" y2="2.48" />
<line x1="-0.69" y1="1.79" x2="0.92" y2="3.40" />
<line x1="0.92" y1="2.30" x2="0.23" y2="2.99" />
<line x1="0.92" y1="2.30" x2="0.92" y2="3.40" />
<line x1="-1.38" y1="2.48" x2="0.23" y2="4.09" />
<line x1="1.61" y1="2.71" x2="0.92" y2="3.40" />
<line x1="0.23" y1="2.99" x2="0.23" y2="4.09" />
<line x1="0.92" y1="3.40" x2="0.23" y2="4.09" />
</g>
</svg>