<svg xmlns="http://www.w3.org/2000/svg" width="161.8" height="100.0" viewBox="-4.4 -2.4 171.8 110.0">
<g fill="none" stroke="black" stroke-width="0.1900%" transform="translate(0, 105.2632) scale(2.6316, -2.6316)">
<circle cx="0.2" cy="1.0" r="0.2" />
<circle cx="0.5" cy="1.0" r="0.2" />
<circle cx="0.7" cy="1.0" r="0.2" />
<circle cx="1.0" cy="1.0" r="0.2" />
<circle cx="1.2" cy="1.0" r="0.2" />
<circle cx="1.4" cy="1.0" r="0.2" />
<circle cx="1.7" cy="1.0" r="0.2" />
<circle cx="1.9" cy="1.0" r="0.2" />
<circle cx="2.2" cy="1.0" r="0.2" />
<circle cx="2.4" cy="1.0" r="0.2" />
<circle cx="2.7" cy="1.0" r="0.2" />
<circle cx="2.9" cy="2.0" r="0.2" />
<circle cx="3.1" cy="1.0" r="0.2" />
<circle cx="3.4" cy="2.0" r="0.2" />
<circle cx="3.6" cy="1.0" r="0.2" />
<circle cx="3.9" cy="2.0" r="0.2" />
<circle cx="4.1" cy="1.0" r="0.2" />
<circle cx="4.3" cy="3.0" r="0.2" />
<circle cx="4.6" cy="2.0" r="0.2" />
<circle cx="4.8" cy="3.0" r="0.2" />
<circle cx="5.1" cy="1.0" r="0.2" />
<circle cx="5.3" cy="3.0" r="0.2" />
<circle cx="5.5" cy="2.0" r="0.2" />
<circle cx="5.8" cy="3.0" r="0.2" />
<circle cx="6.0" cy="1.0" r="0.2" />
<circle cx="6.3" cy="4.0" r="0.2" />
<circle cx="6.5" cy="3.0" r="0.2" />
<circle cx="6.8" cy="2.0" r="0.2" />
<circle cx="7.0" cy="3.0" r="0.2" />
<circle cx="7.2" cy="4.0" r="0.2" />
<circle cx="7.5" cy="1.0" r="0.2" />
<circle cx="7.7" cy="5.0" r="0.2" />
<circle cx="8.0" cy="4.0" r="0.2" />
<circle cx="8.2" cy="3.0" r="0.2" />
<circle cx="8.4" cy="5.0" r="0.2" />
<circle cx="8.7" cy="2.0" r="0.2" />
<circle cx="8.9" cy="5.0" r="0.2" />
<circle cx="9.2" cy="3.0" r="0.2" />
<circle cx="9.4" cy="4.0" r="0.2" />
<circle cx="9.6" cy="5.0" r="0.2" />
<circle cx="9.9" cy="6.0" r="0.2" />
<circle cx="10.1" cy="1.0" r="0.2" />
<circle cx="10.4" cy="7.0" r="0.2" />
<circle cx="10.6" cy="6.0" r="0.2" />
<circle cx="10.9" cy="5.0" r="0.2" />
<circle cx="11.1" cy="4.0" r="0.2" />
<circle cx="11.3" cy="7.0" r="0.2" />
<circle cx="11.6" cy="3.0" r="0.2" />
<circle cx="11.8" cy="5.0" r="0.2" />
<circle cx="12.1" cy="7.0" r="0.2" />
<circle cx="12.3" cy="2.0" r="0.2" />
<circle cx="12.5" cy="7.0" r="0.2" />
<circle cx="12.8" cy="5.0" r="0.2" />
<circle cx="13.0" cy="8.0" r="0.2" />
<circle cx="13.3" cy="3.0" r="0.2" />
<circle cx="13.5" cy="7.0" r="0.2" />
<circle cx="13.7" cy="4.0" r="0.2" />
<circle cx="14.0" cy="9.0" r="0.2" />
<circle cx="14.2" cy="5.0" r="0.2" />
<circle cx="14.5" cy="6.0" r="0.2" />
<circle cx="14.7" cy="7.0" r="0.2" />
<circle cx="14.9" cy="8.0" r="0.2" />
<circle cx="15.2" cy="9.0" r="0.2" />
<circle cx="15.4" cy="1.0" r="0.2" />
<circle cx="15.7" cy="10.0" r="0.2" />
<circle cx="15.9" cy="9.0" r="0.2" />
<circle cx="16.2" cy="8.0" r="0.2" />
<circle cx="16.4" cy="7.0" r="0.2" />
<circle cx="16.6" cy="6.0" r="0.2" />
<circle cx="16.9" cy="11.0" r="0.2" />
<circle cx="17.1" cy="5.0" r="0.2" />
<circle cx="17.4" cy="9.0" r="0.2" />
<circle cx="17.6" cy="4.0" r="0.2" />
<circle cx="17.8" cy="11.0" r="0.2" />
<circle cx="18.1" cy="7.0" r="0.2" />
<circle cx="18.3" cy="10.0" r="0.2" />
<circle cx="18.6" cy="3.0" r="0.2" />
<circle cx="18.8" cy="11.0" r="0.2" />
<circle cx="19.0" cy="8.0" r="0.2" />
<circle cx="19.3" cy="5.0" r="0.2" />
<circle cx="19.5" cy="12.0" r="0.2" />
<circle cx="19.8" cy="7.0" r="0.2" />
<circle cx="20.0" cy="9.0" r="0.2" />
<circle cx="20.3" cy="11.0" r="0.2" />
<circle cx="20.5" cy="13.0" r="0.2" />
<circle cx="20.7" cy="2.0" r="0.2" />
<circle cx="21.0" cy="13.0" r="0.2" />
<circle cx="21.2" cy="11.0" r="0.2" />
<circle cx="21.5" cy="9.0" r="0.2" />
<circle cx="21.7" cy="7.0" r="0.2" />
<circle cx="21.9" cy="12.0" r="0.2" />
<circle cx="22.2" cy="5.0" r="0.2" />
<circle cx="22.4" cy="13.0" r="0.2" />
<circle cx="22.7" cy="8.0" r="0.2" />
<circle cx="22.9" cy="11.0" r="0.2" />
<circle cx="23.1" cy="14.0" r="0.2" />
<circle cx="23.4" cy="3.0" r="0.2" />
<circle cx="23.6" cy="13.0" r="0.2" />
<circle cx="23.9" cy="10.0" r="0.2" />
<circle cx="24.1" cy="7.0" r="0.2" />
<circle cx="24.4" cy="11.0" r="0.2" />
<circle cx="24.6" cy="15.0" r="0.2" />
<circle cx="24.8" cy="4.0" r="0.2" />
<circle cx="25.1" cy="13.0" r="0.2" />
<circle cx="25.3" cy="9.0" r="0.2" />
<circle cx="25.6" cy="14.0" r="0.2" />
<circle cx="25.8" cy="5.0" r="0.2" />
<circle cx="26.0" cy="16.0" r="0.2" />
<circle cx="26.3" cy="11.0" r="0.2" />
<circle cx="26.5" cy="17.0" r="0.2" />
<circle cx="26.8" cy="6.0" r="0.2" />
<circle cx="27.0" cy="13.0" r="0.2" />
<circle cx="27.2" cy="7.0" r="0.2" />
<circle cx="27.5" cy="15.0" r="0.2" />
<circle cx="27.7" cy="8.0" r="0.2" />
<circle cx="28.0" cy="17.0" r="0.2" />
<circle cx="28.2" cy="9.0" r="0.2" />
<circle cx="28.5" cy="10.0" r="0.2" />
<circle cx="28.7" cy="11.0" r="0.2" />
<circle cx="28.9" cy="12.0" r="0.2" />
<circle cx="29.2" cy="13.0" r="0.2" />
<circle cx="29.4" cy="14.0" r="0.2" />
<circle cx="29.7" cy="15.0" r="0.2" />
<circle cx="29.9" cy="16.0" r="0.2" />
<circle cx="30.1" cy="17.0" r="0.2" />
<circle cx="30.4" cy="18.0" r="0.2" />
<circle cx="30.6" cy="19.0" r="0.2" />
<circle cx="30.9" cy="1.0" r="0.2" />
<circle cx="31.1" cy="21.0" r="0.2" />
<circle cx="31.3" cy="20.0" r="0.2" />
<circle cx="31.6" cy="19.0" r="0.2" />
<circle cx="31.8" cy="18.0" r="0.2" />
<circle cx="32.1" cy="17.0" r="0.2" />
<circle cx="32.3" cy="16.0" r="0.2" />
<circle cx="32.6" cy="15.0" r="0.2" />
<circle cx="32.8" cy="14.0" r="0.2" />
<circle cx="33.0" cy="13.0" r="0.2" />
<circle cx="33.3" cy="12.0" r="0.2" />
<circle cx="33.5" cy="11.0" r="0.2" />
<circle cx="33.8" cy="21.0" r="0.2" />
<circle cx="34.0" cy="10.0" r="0.2" />
<circle cx="34.2" cy="19.0" r="0.2" />
<circle cx="34.5" cy="9.0" r="0.2" />
<circle cx="34.7" cy="17.0" r="0.2" />
<circle cx="35.0" cy="8.0" r="0.2" />
<circle cx="35.2" cy="23.0" r="0.2" />
<circle cx="35.4" cy="15.0" r="0.2" />
<circle cx="35.7" cy="22.0" r="0.2" />
<circle cx="35.9" cy="7.0" r="0.2" />
<circle cx="36.2" cy="20.0" r="0.2" />
<circle cx="36.4" cy="13.0" r="0.2" />
<circle cx="36.7" cy="19.0" r="0.2" />
<circle cx="36.9" cy="6.0" r="0.2" />
<circle cx="37.1" cy="23.0" r="0.2" />
<circle cx="37.4" cy="17.0" r="0.2" />
<circle cx="37.6" cy="11.0" r="0.2" />
<circle cx="37.9" cy="16.0" r="0.2" />
<circle cx="38.1" cy="21.0" r="0.2" />
<circle cx="38.3" cy="5.0" r="0.2" />
<circle cx="38.6" cy="24.0" r="0.2" />
<circle cx="38.8" cy="19.0" r="0.2" />
<circle cx="39.1" cy="14.0" r="0.2" />
<circle cx="39.3" cy="23.0" r="0.2" />
<circle cx="39.5" cy="9.0" r="0.2" />
<circle cx="39.8" cy="22.0" r="0.2" />
<circle cx="40.0" cy="13.0" r="0.2" />
<circle cx="40.3" cy="17.0" r="0.2" />
<circle cx="40.5" cy="21.0" r="0.2" />
<circle cx="40.7" cy="25.0" r="0.2" />
<circle cx="41.0" cy="4.0" r="0.2" />
<circle cx="41.2" cy="27.0" r="0.2" />
<circle cx="41.5" cy="23.0" r="0.2" />
<circle cx="41.7" cy="19.0" r="0.2" />
<circle cx="42.0" cy="15.0" r="0.2" />
<circle cx="42.2" cy="26.0" r="0.2" />
<circle cx="42.4" cy="11.0" r="0.2" />
<circle cx="42.7" cy="18.0" r="0.2" />
<circle cx="42.9" cy="25.0" r="0.2" />
<circle cx="43.2" cy="7.0" r="0.2" />
<circle cx="43.4" cy="24.0" r="0.2" />
<circle cx="43.6" cy="17.0" r="0.2" />
<circle cx="43.9" cy="27.0" r="0.2" />
<circle cx="44.1" cy="10.0" r="0.2" />
<circle cx="44.4" cy="23.0" r="0.2" />
<circle cx="44.6" cy="13.0" r="0.2" />
<circle cx="44.8" cy="29.0" r="0.2" />
<circle cx="45.1" cy="16.0" r="0.2" />
<circle cx="45.3" cy="19.0" r="0.2" />
<circle cx="45.6" cy="22.0" r="0.2" />
<circle cx="45.8" cy="25.0" r="0.2" />
<circle cx="46.1" cy="28.0" r="0.2" />
<circle cx="46.3" cy="3.0" r="0.2" />
<circle cx="46.5" cy="29.0" r="0.2" />
<circle cx="46.8" cy="26.0" r="0.2" />
<circle cx="47.0" cy="23.0" r="0.2" />
<circle cx="47.3" cy="20.0" r="0.2" />
<circle cx="47.5" cy="17.0" r="0.2" />
<circle cx="47.7" cy="31.0" r="0.2" />
<circle cx="48.0" cy="14.0" r="0.2" />
<circle cx="48.2" cy="25.0" r="0.2" />
<circle cx="48.5" cy="11.0" r="0.2" />
<circle cx="48.7" cy="30.0" r="0.2" />
<circle cx="48.9" cy="19.0" r="0.2" />
<circle cx="49.2" cy="27.0" r="0.2" />
<circle cx="49.4" cy="8.0" r="0.2" />
<circle cx="49.7" cy="29.0" r="0.2" />
<circle cx="49.9" cy="21.0" r="0.2" />
<circle cx="50.2" cy="13.0" r="0.2" />
<circle cx="50.4" cy="31.0" r="0.2" />
<circle cx="50.6" cy="18.0" r="0.2" />
<circle cx="50.9" cy="23.0" r="0.2" />
<circle cx="51.1" cy="28.0" r="0.2" />
<circle cx="51.4" cy="33.0" r="0.2" />
<circle cx="51.6" cy="5.0" r="0.2" />
<circle cx="51.8" cy="32.0" r="0.2" />
<circle cx="52.1" cy="27.0" r="0.2" />
<circle cx="52.3" cy="22.0" r="0.2" />
<circle cx="52.6" cy="17.0" r="0.2" />
<circle cx="52.8" cy="29.0" r="0.2" />
<circle cx="53.0" cy="12.0" r="0.2" />
<circle cx="53.3" cy="31.0" r="0.2" />
<circle cx="53.5" cy="19.0" r="0.2" />
<circle cx="53.8" cy="26.0" r="0.2" />
<circle cx="54.0" cy="33.0" r="0.2" />
<circle cx="54.3" cy="7.0" r="0.2" />
<circle cx="54.5" cy="30.0" r="0.2" />
<circle cx="54.7" cy="23.0" r="0.2" />
<circle cx="55.0" cy="16.0" r="0.2" />
<circle cx="55.2" cy="25.0" r="0.2" />
<circle cx="55.5" cy="34.0" r="0.2" />
<circle cx="55.7" cy="9.0" r="0.2" />
<circle cx="55.9" cy="29.0" r="0.2" />
<circle cx="56.2" cy="20.0" r="0.2" />
<circle cx="56.4" cy="31.0" r="0.2" />
<circle cx="56.7" cy="11.0" r="0.2" />
<circle cx="56.9" cy="35.0" r="0.2" />
<circle cx="57.1" cy="24.0" r="0.2" />
<circle cx="57.4" cy="37.0" r="0.2" />
<circle cx="57.6" cy="13.0" r="0.2" />
<circle cx="57.9" cy="28.0" r="0.2" />
<circle cx="58.1" cy="15.0" r="0.2" />
<circle cx="58.4" cy="32.0" r="0.2" />
<circle cx="58.6" cy="17.0" r="0.2" />
<circle cx="58.8" cy="36.0" r="0.2" />
<circle cx="59.1" cy="19.0" r="0.2" />
<circle cx="59.3" cy="21.0" r="0.2" />
<circle cx="59.6" cy="23.0" r="0.2" />
<circle cx="59.8" cy="25.0" r="0.2" />
<circle cx="60.0" cy="27.0" r="0.2" />
<circle cx="60.3" cy="29.0" r="0.2" />
<circle cx="60.5" cy="31.0" r="0.2" />
<circle cx="60.8" cy="33.0" r="0.2" />
<circle cx="61.0" cy="35.0" r="0.2" />
<circle cx="61.2" cy="37.0" r="0.2" />
<circle cx="61.5" cy="39.0" r="0.2" />
<circle cx="61.7" cy="2.0" r="0.2" />
</g>
</svg>