<svg xmlns="http://www.w3.org/2000/svg" width="161.8" height="100.0" viewBox="-3.07 -5.00 171.80 110.00">
<g fill="none" stroke="black" stroke-width="0.1150%" transform="translate(0, 100.0000) scale(4.3478, -4.3478)">

<line x1="0.89" y1="0.00" x2="0.89" y2="1.00" />
<line x1="1.33" y1="0.00" x2="1.33" y2="2.00" />
<line x1="1.77" y1="0.00" x2="1.77" y2="1.00" />
<line x1="2.22" y1="0.00" x2="2.22" y2="3.00" />
<line x1="2.66" y1="0.00" x2="2.66" y2="1.00" />
<line x1="3.10" y1="0.00" x2="3.10" y2="4.00" />
<line x1="3.54" y1="0.00" x2="3.54" y2="1.00" />
<line x1="3.99" y1="0.00" x2="3.99" y2="2.00" />
<line x1="4.43" y1="0.00" x2="4.43" y2="1.00" />
<line x1="4.87" y1="0.00" x2="4.87" y2="5.00" />
<line x1="5.32" y1="0.00" x2="5.32" y2="1.00" />
<line x1="5.76" y1="0.00" x2="5.76" y2="6.00" />
<line x1="6.20" y1="0.00" x2="6.20" y2="1.00" />
<line x1="6.65" y1="0.00" x2="6.65" y2="2.00" />
<line x1="7.09" y1="0.00" x2="7.09" y2="1.00" />
<line x1="7.53" y1="0.00" x2="7.53" y2="7.00" />
<line x1="7.97" y1="0.00" x2="7.97" y2="1.00" />
<line x1="8.42" y1="0.00" x2="8.42" y2="8.00" />
<line x1="8.86" y1="0.00" x2="8.86" y2="1.00" />
<line x1="9.30" y1="0.00" x2="9.30" y2="2.00" />
<line x1="9.75" y1="0.00" x2="9.75" y2="1.00" />
<line x1="10.19" y1="0.00" x2="10.19" y2="9.00" />
<line x1="10.63" y1="0.00" x2="10.63" y2="1.00" />
<line x1="11.08" y1="0.00" x2="11.08" y2="3.00" />
<line x1="11.52" y1="0.00" x2="11.52" y2="1.00" />
<line x1="11.96" y1="0.00" x2="11.96" y2="2.00" />
<line x1="12.40" y1="0.00" x2="12.40" y2="1.00" />
<line x1="12.85" y1="0.00" x2="12.85" y2="10.00" />
<line x1="13.29" y1="0.00" x2="13.29" y2="1.00" />
<line x1="13.73" y1="0.00" x2="13.73" y2="11.00" />
<line x1="14.18" y1="0.00" x2="14.18" y2="1.00" />
<line x1="14.62" y1="0.00" x2="14.62" y2="2.00" />
<line x1="15.06" y1="0.00" x2="15.06" y2="1.00" />
<line x1="15.51" y1="0.00" x2="15.51" y2="3.00" />
<line x1="15.95" y1="0.00" x2="15.95" y2="1.00" />
<line x1="16.39" y1="0.00" x2="16.39" y2="12.00" />
<line x1="16.84" y1="0.00" x2="16.84" y2="1.00" />
<line x1="17.28" y1="0.00" x2="17.28" y2="2.00" />
<line x1="17.72" y1="0.00" x2="17.72" y2="1.00" />
<line x1="18.16" y1="0.00" x2="18.16" y2="13.00" />
<line x1="18.61" y1="0.00" x2="18.61" y2="1.00" />
<line x1="19.05" y1="0.00" x2="19.05" y2="14.00" />
<line x1="19.49" y1="0.00" x2="19.49" y2="1.00" />
<line x1="19.94" y1="0.00" x2="19.94" y2="2.00" />
<line x1="20.38" y1="0.00" x2="20.38" y2="1.00" />
<line x1="20.82" y1="0.00" x2="20.82" y2="15.00" />
<line x1="21.27" y1="0.00" x2="21.27" y2="1.00" />
<line x1="21.71" y1="0.00" x2="21.71" y2="4.00" />
<line x1="22.15" y1="0.00" x2="22.15" y2="1.00" />
<line x1="22.59" y1="0.00" x2="22.59" y2="2.00" />
<line x1="23.04" y1="0.00" x2="23.04" y2="1.00" />
<line x1="23.48" y1="0.00" x2="23.48" y2="16.00" />
<line x1="23.92" y1="0.00" x2="23.92" y2="1.00" />
<line x1="24.37" y1="0.00" x2="24.37" y2="3.00" />
<line x1="24.81" y1="0.00" x2="24.81" y2="1.00" />
<line x1="25.25" y1="0.00" x2="25.25" y2="2.00" />
<line x1="25.70" y1="0.00" x2="25.70" y2="1.00" />
<line x1="26.14" y1="0.00" x2="26.14" y2="17.00" />
<line x1="26.58" y1="0.00" x2="26.58" y2="1.00" />
<line x1="27.03" y1="0.00" x2="27.03" y2="18.00" />
<line x1="27.47" y1="0.00" x2="27.47" y2="1.00" />
<line x1="27.91" y1="0.00" x2="27.91" y2="2.00" />
<line x1="28.35" y1="0.00" x2="28.35" y2="1.00" />
<line x1="28.80" y1="0.00" x2="28.80" y2="3.00" />
<line x1="29.24" y1="0.00" x2="29.24" y2="1.00" />
<line x1="29.68" y1="0.00" x2="29.68" y2="19.00" />
<line x1="30.13" y1="0.00" x2="30.13" y2="1.00" />
<line x1="30.57" y1="0.00" x2="30.57" y2="2.00" />
<line x1="31.01" y1="0.00" x2="31.01" y2="1.00" />
<line x1="31.46" y1="0.00" x2="31.46" y2="20.00" />
<line x1="31.90" y1="0.00" x2="31.90" y2="1.00" />
<line x1="32.34" y1="0.00" x2="32.34" y2="21.00" />
<line x1="32.78" y1="0.00" x2="32.78" y2="1.00" />
<line x1="33.23" y1="0.00" x2="33.23" y2="2.00" />
<line x1="33.67" y1="0.00" x2="33.67" y2="1.00" />
<line x1="34.11" y1="0.00" x2="34.11" y2="4.00" />
<line x1="34.56" y1="0.00" x2="34.56" y2="1.00" />
<line x1="35.00" y1="0.00" x2="35.00" y2="22.00" />
<line x1="35.44" y1="0.00" x2="35.44" y2="1.00" />
<line x1="35.89" y1="0.00" x2="35.89" y2="2.00" />
<line x1="36.33" y1="0.00" x2="36.33" y2="1.00" />
<line x1="36.77" y1="0.00" x2="36.77" y2="23.00" />
<line x1="37.21" y1="0.00" x2="37.21" y2="1.00" />
<line x1="37.66" y1="0.00" x2="37.66" y2="3.00" />
</g>
</svg>