<svg xmlns="http://www.w3.org/2000/svg" width="161.1" height="100.0" viewBox="-3.6 -5.0 171.1 110.0">
<g fill="none" stroke="black" stroke-width="1.1600%" transform="translate(0, 100.0000) scale(0.4310, -0.4310)">
<line x1="3.3" y1="0.0" x2="3.3" y2="1.0" />
<line x1="6.6" y1="0.0" x2="6.6" y2="2.0" />
<line x1="9.8" y1="0.0" x2="9.8" y2="4.0" />
<line x1="13.1" y1="0.0" x2="13.1" y2="5.0" />
<line x1="16.4" y1="0.0" x2="16.4" y2="8.0" />
<line x1="19.7" y1="0.0" x2="19.7" y2="9.0" />
<line x1="23.0" y1="0.0" x2="23.0" y2="16.0" />
<line x1="26.2" y1="0.0" x2="26.2" y2="10.0" />
<line x1="29.5" y1="0.0" x2="29.5" y2="13.0" />
<line x1="32.8" y1="0.0" x2="32.8" y2="20.0" />
<line x1="36.1" y1="0.0" x2="36.1" y2="17.0" />
<line x1="39.3" y1="0.0" x2="39.3" y2="32.0" />
<line x1="42.6" y1="0.0" x2="42.6" y2="18.0" />
<line x1="45.9" y1="0.0" x2="45.9" y2="29.0" />
<line x1="49.2" y1="0.0" x2="49.2" y2="36.0" />
<line x1="52.5" y1="0.0" x2="52.5" y2="33.0" />
<line x1="55.7" y1="0.0" x2="55.7" y2="40.0" />
<line x1="59.0" y1="0.0" x2="59.0" y2="26.0" />
<line x1="62.3" y1="0.0" x2="62.3" y2="21.0" />
<line x1="65.6" y1="0.0" x2="65.6" y2="49.0" />
<line x1="68.9" y1="0.0" x2="68.9" y2="42.0" />
<line x1="72.1" y1="0.0" x2="72.1" y2="52.0" />
<line x1="75.4" y1="0.0" x2="75.4" y2="25.0" />
<line x1="78.7" y1="0.0" x2="78.7" y2="41.0" />
<line x1="82.0" y1="0.0" x2="82.0" y2="50.0" />
<line x1="85.2" y1="0.0" x2="85.2" y2="82.0" />
<line x1="88.5" y1="0.0" x2="88.5" y2="57.0" />
<line x1="91.8" y1="0.0" x2="91.8" y2="45.0" />
<line x1="95.1" y1="0.0" x2="95.1" y2="53.0" />
<line x1="98.4" y1="0.0" x2="98.4" y2="80.0" />
<line x1="101.6" y1="0.0" x2="101.6" y2="34.0" />
<line x1="104.9" y1="0.0" x2="104.9" y2="64.0" />
<line x1="108.2" y1="0.0" x2="108.2" y2="37.0" />
<line x1="111.5" y1="0.0" x2="111.5" y2="113.0" />
<line x1="114.8" y1="0.0" x2="114.8" y2="74.0" />
<line x1="118.0" y1="0.0" x2="118.0" y2="125.0" />
<line x1="121.3" y1="0.0" x2="121.3" y2="84.0" />
<line x1="124.6" y1="0.0" x2="124.6" y2="61.0" />
<line x1="127.9" y1="0.0" x2="127.9" y2="72.0" />
<line x1="131.1" y1="0.0" x2="131.1" y2="58.0" />
<line x1="134.4" y1="0.0" x2="134.4" y2="73.0" />
<line x1="137.7" y1="0.0" x2="137.7" y2="65.0" />
<line x1="141.0" y1="0.0" x2="141.0" y2="68.0" />
<line x1="144.3" y1="0.0" x2="144.3" y2="69.0" />
<line x1="147.5" y1="0.0" x2="147.5" y2="128.0" />
<line x1="150.8" y1="0.0" x2="150.8" y2="66.0" />
<line x1="154.1" y1="0.0" x2="154.1" y2="129.0" />
<line x1="157.4" y1="0.0" x2="157.4" y2="132.0" />
<line x1="160.7" y1="0.0" x2="160.7" y2="133.0" />
<line x1="163.9" y1="0.0" x2="163.9" y2="77.0" />
<line x1="167.2" y1="0.0" x2="167.2" y2="114.0" />
<line x1="170.5" y1="0.0" x2="170.5" y2="81.0" />
<line x1="173.8" y1="0.0" x2="173.8" y2="117.0" />
<line x1="177.0" y1="0.0" x2="177.0" y2="90.0" />
<line x1="180.3" y1="0.0" x2="180.3" y2="104.0" />
<line x1="183.6" y1="0.0" x2="183.6" y2="85.0" />
<line x1="186.9" y1="0.0" x2="186.9" y2="98.0" />
<line x1="190.2" y1="0.0" x2="190.2" y2="89.0" />
<line x1="193.4" y1="0.0" x2="193.4" y2="93.0" />
<line x1="196.7" y1="0.0" x2="196.7" y2="100.0" />
<line x1="200.0" y1="0.0" x2="200.0" y2="105.0" />
<line x1="203.3" y1="0.0" x2="203.3" y2="161.0" />
<line x1="206.6" y1="0.0" x2="206.6" y2="106.0" />
<line x1="209.8" y1="0.0" x2="209.8" y2="97.0" />
<line x1="213.1" y1="0.0" x2="213.1" y2="169.0" />
<line x1="216.4" y1="0.0" x2="216.4" y2="122.0" />
<line x1="219.7" y1="0.0" x2="219.7" y2="137.0" />
<line x1="222.9" y1="0.0" x2="222.9" y2="157.0" />
<line x1="226.2" y1="0.0" x2="226.2" y2="138.0" />
<line x1="229.5" y1="0.0" x2="229.5" y2="136.0" />
<line x1="232.8" y1="0.0" x2="232.8" y2="121.0" />
<line x1="236.1" y1="0.0" x2="236.1" y2="141.0" />
<line x1="239.3" y1="0.0" x2="239.3" y2="149.0" />
<line x1="242.6" y1="0.0" x2="242.6" y2="221.0" />
<line x1="245.9" y1="0.0" x2="245.9" y2="153.0" />
<line x1="249.2" y1="0.0" x2="249.2" y2="109.0" />
<line x1="252.5" y1="0.0" x2="252.5" y2="160.0" />
<line x1="255.7" y1="0.0" x2="255.7" y2="116.0" />
<line x1="259.0" y1="0.0" x2="259.0" y2="144.0" />
<line x1="262.3" y1="0.0" x2="262.3" y2="130.0" />
<line x1="265.6" y1="0.0" x2="265.6" y2="146.0" />
<line x1="268.8" y1="0.0" x2="268.8" y2="225.0" />
<line x1="272.1" y1="0.0" x2="272.1" y2="148.0" />
<line x1="275.4" y1="0.0" x2="275.4" y2="226.0" />
<line x1="278.7" y1="0.0" x2="278.7" y2="145.0" />
<line x1="282.0" y1="0.0" x2="282.0" y2="228.0" />
<line x1="285.2" y1="0.0" x2="285.2" y2="154.0" />
<line x1="288.5" y1="0.0" x2="288.5" y2="213.0" />
<line x1="291.8" y1="0.0" x2="291.8" y2="101.0" />
<line x1="295.1" y1="0.0" x2="295.1" y2="168.0" />
<line x1="298.4" y1="0.0" x2="298.4" y2="196.0" />
<line x1="301.6" y1="0.0" x2="301.6" y2="170.0" />
<line x1="304.9" y1="0.0" x2="304.9" y2="193.0" />
<line x1="308.2" y1="0.0" x2="308.2" y2="194.0" />
<line x1="311.5" y1="0.0" x2="311.5" y2="181.0" />
<line x1="314.8" y1="0.0" x2="314.8" y2="232.0" />
<line x1="318.0" y1="0.0" x2="318.0" y2="164.0" />
<line x1="321.3" y1="0.0" x2="321.3" y2="200.0" />
<line x1="324.6" y1="0.0" x2="324.6" y2="177.0" />
<line x1="327.9" y1="0.0" x2="327.9" y2="209.0" />
<line x1="331.1" y1="0.0" x2="331.1" y2="162.0" />
<line x1="334.4" y1="0.0" x2="334.4" y2="217.0" />
<line x1="337.7" y1="0.0" x2="337.7" y2="173.0" />
<line x1="341.0" y1="0.0" x2="341.0" y2="197.0" />
<line x1="344.3" y1="0.0" x2="344.3" y2="180.0" />
<line x1="347.5" y1="0.0" x2="347.5" y2="185.0" />
<line x1="350.8" y1="0.0" x2="350.8" y2="178.0" />
<line x1="354.1" y1="0.0" x2="354.1" y2="186.0" />
<line x1="357.4" y1="0.0" x2="357.4" y2="189.0" />
<line x1="360.7" y1="0.0" x2="360.7" y2="202.0" />
<line x1="363.9" y1="0.0" x2="363.9" y2="208.0" />
<line x1="367.2" y1="0.0" x2="367.2" y2="210.0" />
<line x1="370.5" y1="0.0" x2="370.5" y2="205.0" />
<line x1="373.8" y1="0.0" x2="373.8" y2="165.0" />
<line x1="377.0" y1="0.0" x2="377.0" y2="212.0" />
</g>
</svg>