<svg xmlns="http://www.w3.org/2000/svg" width="161.8" height="100.0" viewBox="-3.9 -4.5 171.8 110.0">
<g fill="none" stroke="black" stroke-width="0.9100%" transform="translate(0, 101.0989) scale(0.5495, -0.5495)">
<circle cx="2.0" cy="1.0" r="0.9" />
<circle cx="4.0" cy="3.0" r="0.9" />
<circle cx="5.9" cy="2.0" r="0.9" />
<circle cx="7.9" cy="6.0" r="0.9" />
<circle cx="9.9" cy="4.0" r="0.9" />
<circle cx="11.9" cy="7.0" r="0.9" />
<circle cx="13.8" cy="8.0" r="0.9" />
<circle cx="15.8" cy="12.0" r="0.9" />
<circle cx="17.8" cy="5.0" r="0.9" />
<circle cx="19.8" cy="11.0" r="0.9" />
<circle cx="21.7" cy="9.0" r="0.9" />
<circle cx="23.7" cy="14.0" r="0.9" />
<circle cx="25.7" cy="16.0" r="0.9" />
<circle cx="27.7" cy="15.0" r="0.9" />
<circle cx="29.6" cy="13.0" r="0.9" />
<circle cx="31.6" cy="19.0" r="0.9" />
<circle cx="33.6" cy="21.0" r="0.9" />
<circle cx="35.6" cy="22.0" r="0.9" />
<circle cx="37.6" cy="10.0" r="0.9" />
<circle cx="39.5" cy="23.0" r="0.9" />
<circle cx="41.5" cy="17.0" r="0.9" />
<circle cx="43.5" cy="24.0" r="0.9" />
<circle cx="45.5" cy="18.0" r="0.9" />
<circle cx="47.4" cy="27.0" r="0.9" />
<circle cx="49.4" cy="29.0" r="0.9" />
<circle cx="51.4" cy="30.0" r="0.9" />
<circle cx="53.4" cy="26.0" r="0.9" />
<circle cx="55.3" cy="35.0" r="0.9" />
<circle cx="57.3" cy="52.0" r="0.9" />
<circle cx="59.3" cy="38.0" r="0.9" />
<circle cx="61.3" cy="25.0" r="0.9" />
<circle cx="63.2" cy="31.0" r="0.9" />
<circle cx="65.2" cy="32.0" r="0.9" />
<circle cx="67.2" cy="28.0" r="0.9" />
<circle cx="69.2" cy="33.0" r="0.9" />
<circle cx="71.2" cy="47.0" r="0.9" />
<circle cx="73.1" cy="34.0" r="0.9" />
<circle cx="75.1" cy="46.0" r="0.9" />
<circle cx="77.1" cy="20.0" r="0.9" />
<circle cx="79.1" cy="39.0" r="0.9" />
<circle cx="81.0" cy="40.0" r="0.9" />
<circle cx="83.0" cy="44.0" r="0.9" />
<circle cx="85.0" cy="36.0" r="0.9" />
<circle cx="87.0" cy="43.0" r="0.9" />
<circle cx="88.9" cy="37.0" r="0.9" />
<circle cx="90.9" cy="48.0" r="0.9" />
<circle cx="92.9" cy="41.0" r="0.9" />
<circle cx="94.9" cy="75.0" r="0.9" />
<circle cx="96.8" cy="53.0" r="0.9" />
<circle cx="98.8" cy="59.0" r="0.9" />
<circle cx="100.8" cy="61.0" r="0.9" />
<circle cx="102.8" cy="54.0" r="0.9" />
<circle cx="104.7" cy="57.0" r="0.9" />
<circle cx="106.7" cy="55.0" r="0.9" />
<circle cx="108.7" cy="58.0" r="0.9" />
<circle cx="110.7" cy="60.0" r="0.9" />
<circle cx="112.7" cy="64.0" r="0.9" />
<circle cx="114.6" cy="51.0" r="0.9" />
<circle cx="116.6" cy="65.0" r="0.9" />
<circle cx="118.6" cy="56.0" r="0.9" />
<circle cx="120.6" cy="66.0" r="0.9" />
<circle cx="122.5" cy="62.0" r="0.9" />
<circle cx="124.5" cy="50.0" r="0.9" />
<circle cx="126.5" cy="71.0" r="0.9" />
<circle cx="128.5" cy="45.0" r="0.9" />
<circle cx="130.4" cy="78.0" r="0.9" />
<circle cx="132.4" cy="42.0" r="0.9" />
<circle cx="134.4" cy="76.0" r="0.9" />
<circle cx="136.4" cy="81.0" r="0.9" />
<circle cx="138.3" cy="79.0" r="0.9" />
<circle cx="140.3" cy="49.0" r="0.9" />
<circle cx="142.3" cy="63.0" r="0.9" />
<circle cx="144.3" cy="98.0" r="0.9" />
<circle cx="146.3" cy="83.0" r="0.9" />
<circle cx="148.2" cy="77.0" r="0.9" />
<circle cx="150.2" cy="86.0" r="0.9" />
<circle cx="152.2" cy="72.0" r="0.9" />
<circle cx="154.2" cy="87.0" r="0.9" />
<circle cx="156.1" cy="73.0" r="0.9" />
<circle cx="158.1" cy="91.0" r="0.9" />
<circle cx="160.1" cy="80.0" r="0.9" />
<circle cx="162.1" cy="88.0" r="0.9" />
<circle cx="164.0" cy="82.0" r="0.9" />
<circle cx="166.0" cy="94.0" r="0.9" />
<circle cx="168.0" cy="68.0" r="0.9" />
<circle cx="170.0" cy="92.0" r="0.9" />
<circle cx="171.9" cy="69.0" r="0.9" />
<circle cx="173.9" cy="95.0" r="0.9" />
<circle cx="175.9" cy="74.0" r="0.9" />
<circle cx="177.9" cy="96.0" r="0.9" />
<circle cx="179.9" cy="84.0" r="0.9" />
<circle cx="181.8" cy="147.0" r="0.9" />
<circle cx="183.8" cy="85.0" r="0.9" />
<circle cx="185.8" cy="150.0" r="0.9" />
<circle cx="187.8" cy="93.0" r="0.9" />
<circle cx="189.7" cy="143.0" r="0.9" />
<circle cx="191.7" cy="89.0" r="0.9" />
<circle cx="193.7" cy="156.0" r="0.9" />
<circle cx="195.7" cy="90.0" r="0.9" />
<circle cx="197.6" cy="139.0" r="0.9" />
<circle cx="199.6" cy="104.0" r="0.9" />
<circle cx="201.6" cy="67.0" r="0.9" />
<circle cx="203.6" cy="105.0" r="0.9" />
<circle cx="205.5" cy="118.0" r="0.9" />
<circle cx="207.5" cy="106.0" r="0.9" />
<circle cx="209.5" cy="70.0" r="0.9" />
<circle cx="211.5" cy="101.0" r="0.9" />
<circle cx="213.5" cy="124.0" r="0.9" />
<circle cx="215.4" cy="100.0" r="0.9" />
<circle cx="217.4" cy="123.0" r="0.9" />
<circle cx="219.4" cy="114.0" r="0.9" />
<circle cx="221.4" cy="108.0" r="0.9" />
<circle cx="223.3" cy="116.0" r="0.9" />
<circle cx="225.3" cy="107.0" r="0.9" />
<circle cx="227.3" cy="117.0" r="0.9" />
<circle cx="229.3" cy="112.0" r="0.9" />
<circle cx="231.2" cy="128.0" r="0.9" />
<circle cx="233.2" cy="99.0" r="0.9" />
<circle cx="235.2" cy="129.0" r="0.9" />
<circle cx="237.2" cy="102.0" r="0.9" />
<circle cx="239.1" cy="121.0" r="0.9" />
<circle cx="241.1" cy="110.0" r="0.9" />
<circle cx="243.1" cy="130.0" r="0.9" />
<circle cx="245.1" cy="119.0" r="0.9" />
<circle cx="247.0" cy="136.0" r="0.9" />
<circle cx="249.0" cy="120.0" r="0.9" />
<circle cx="251.0" cy="109.0" r="0.9" />
<circle cx="253.0" cy="115.0" r="0.9" />
<circle cx="255.0" cy="122.0" r="0.9" />
<circle cx="256.9" cy="126.0" r="0.9" />
<circle cx="258.9" cy="113.0" r="0.9" />
<circle cx="260.9" cy="111.0" r="0.9" />
<circle cx="262.9" cy="125.0" r="0.9" />
<circle cx="264.8" cy="127.0" r="0.9" />
<circle cx="266.8" cy="97.0" r="0.9" />
<circle cx="268.8" cy="152.0" r="0.9" />
<circle cx="270.8" cy="162.0" r="0.9" />
<circle cx="272.7" cy="158.0" r="0.9" />
<circle cx="274.7" cy="157.0" r="0.9" />
<circle cx="276.7" cy="159.0" r="0.9" />
<circle cx="278.7" cy="160.0" r="0.9" />
<circle cx="280.6" cy="155.0" r="0.9" />
<circle cx="282.6" cy="165.0" r="0.9" />
<circle cx="284.6" cy="171.0" r="0.9" />
<circle cx="286.6" cy="144.0" r="0.9" />
<circle cx="288.6" cy="103.0" r="0.9" />
<circle cx="290.5" cy="137.0" r="0.9" />
<circle cx="292.5" cy="183.0" r="0.9" />
<circle cx="294.5" cy="168.0" r="0.9" />
<circle cx="296.5" cy="151.0" r="0.9" />
</g>
</svg>