<svg xmlns="http://www.w3.org/2000/svg" width="161.8" height="100.0" viewBox="-4.1 -4.6 171.8 110.0">
<g fill="none" stroke="black" stroke-width="1.4150%" transform="translate(0, 100.7067) scale(0.3534, -0.3534)">
<circle cx="2.5" cy="1.0" r="1.4" />
<circle cx="5.0" cy="2.0" r="1.4" />
<circle cx="7.5" cy="3.0" r="1.4" />
<circle cx="10.0" cy="6.0" r="1.4" />
<circle cx="12.4" cy="9.0" r="1.4" />
<circle cx="14.9" cy="12.0" r="1.4" />
<circle cx="17.4" cy="4.0" r="1.4" />
<circle cx="19.9" cy="8.0" r="1.4" />
<circle cx="22.4" cy="16.0" r="1.4" />
<circle cx="24.9" cy="20.0" r="1.4" />
<circle cx="27.4" cy="5.0" r="1.4" />
<circle cx="29.9" cy="10.0" r="1.4" />
<circle cx="32.4" cy="15.0" r="1.4" />
<circle cx="34.8" cy="18.0" r="1.4" />
<circle cx="37.3" cy="21.0" r="1.4" />
<circle cx="39.8" cy="7.0" r="1.4" />
<circle cx="42.3" cy="14.0" r="1.4" />
<circle cx="44.8" cy="28.0" r="1.4" />
<circle cx="47.3" cy="24.0" r="1.4" />
<circle cx="49.8" cy="27.0" r="1.4" />
<circle cx="52.3" cy="30.0" r="1.4" />
<circle cx="54.7" cy="25.0" r="1.4" />
<circle cx="57.2" cy="35.0" r="1.4" />
<circle cx="59.7" cy="40.0" r="1.4" />
<circle cx="62.2" cy="32.0" r="1.4" />
<circle cx="64.7" cy="36.0" r="1.4" />
<circle cx="67.2" cy="33.0" r="1.4" />
<circle cx="69.7" cy="11.0" r="1.4" />
<circle cx="72.2" cy="22.0" r="1.4" />
<circle cx="74.7" cy="44.0" r="1.4" />
<circle cx="77.1" cy="48.0" r="1.4" />
<circle cx="79.6" cy="39.0" r="1.4" />
<circle cx="82.1" cy="13.0" r="1.4" />
<circle cx="84.6" cy="26.0" r="1.4" />
<circle cx="87.1" cy="52.0" r="1.4" />
<circle cx="89.6" cy="56.0" r="1.4" />
<circle cx="92.1" cy="42.0" r="1.4" />
<circle cx="94.6" cy="45.0" r="1.4" />
<circle cx="97.1" cy="50.0" r="1.4" />
<circle cx="99.5" cy="55.0" r="1.4" />
<circle cx="102.0" cy="60.0" r="1.4" />
<circle cx="104.5" cy="51.0" r="1.4" />
<circle cx="107.0" cy="17.0" r="1.4" />
<circle cx="109.5" cy="34.0" r="1.4" />
<circle cx="112.0" cy="68.0" r="1.4" />
<circle cx="114.5" cy="64.0" r="1.4" />
<circle cx="117.0" cy="72.0" r="1.4" />
<circle cx="119.5" cy="54.0" r="1.4" />
<circle cx="121.9" cy="57.0" r="1.4" />
<circle cx="124.4" cy="19.0" r="1.4" />
<circle cx="126.9" cy="38.0" r="1.4" />
<circle cx="129.4" cy="76.0" r="1.4" />
<circle cx="131.9" cy="80.0" r="1.4" />
<circle cx="134.4" cy="65.0" r="1.4" />
<circle cx="136.9" cy="70.0" r="1.4" />
<circle cx="139.4" cy="49.0" r="1.4" />
<circle cx="141.9" cy="63.0" r="1.4" />
<circle cx="144.3" cy="66.0" r="1.4" />
<circle cx="146.8" cy="69.0" r="1.4" />
<circle cx="149.3" cy="23.0" r="1.4" />
<circle cx="151.8" cy="46.0" r="1.4" />
<circle cx="154.3" cy="92.0" r="1.4" />
<circle cx="156.8" cy="84.0" r="1.4" />
<circle cx="159.3" cy="75.0" r="1.4" />
<circle cx="161.8" cy="78.0" r="1.4" />
<circle cx="164.2" cy="81.0" r="1.4" />
<circle cx="166.7" cy="87.0" r="1.4" />
<circle cx="169.2" cy="29.0" r="1.4" />
<circle cx="171.7" cy="58.0" r="1.4" />
<circle cx="174.2" cy="116.0" r="1.4" />
<circle cx="176.7" cy="88.0" r="1.4" />
<circle cx="179.2" cy="77.0" r="1.4" />
<circle cx="181.7" cy="91.0" r="1.4" />
<circle cx="184.2" cy="98.0" r="1.4" />
<circle cx="186.6" cy="105.0" r="1.4" />
<circle cx="189.1" cy="85.0" r="1.4" />
<circle cx="191.6" cy="90.0" r="1.4" />
<circle cx="194.1" cy="93.0" r="1.4" />
<circle cx="196.6" cy="31.0" r="1.4" />
<circle cx="199.1" cy="62.0" r="1.4" />
<circle cx="201.6" cy="124.0" r="1.4" />
<circle cx="204.1" cy="96.0" r="1.4" />
<circle cx="206.6" cy="99.0" r="1.4" />
<circle cx="209.0" cy="102.0" r="1.4" />
<circle cx="211.5" cy="108.0" r="1.4" />
<circle cx="214.0" cy="100.0" r="1.4" />
<circle cx="216.5" cy="95.0" r="1.4" />
<circle cx="219.0" cy="110.0" r="1.4" />
<circle cx="221.5" cy="115.0" r="1.4" />
<circle cx="224.0" cy="120.0" r="1.4" />
<circle cx="226.5" cy="104.0" r="1.4" />
<circle cx="229.0" cy="112.0" r="1.4" />
<circle cx="231.4" cy="119.0" r="1.4" />
<circle cx="233.9" cy="126.0" r="1.4" />
<circle cx="236.4" cy="111.0" r="1.4" />
<circle cx="238.9" cy="37.0" r="1.4" />
<circle cx="241.4" cy="74.0" r="1.4" />
<circle cx="243.9" cy="148.0" r="1.4" />
<circle cx="246.4" cy="128.0" r="1.4" />
<circle cx="248.9" cy="132.0" r="1.4" />
<circle cx="251.3" cy="114.0" r="1.4" />
<circle cx="253.8" cy="117.0" r="1.4" />
<circle cx="256.3" cy="123.0" r="1.4" />
<circle cx="258.8" cy="41.0" r="1.4" />
<circle cx="261.3" cy="82.0" r="1.4" />
<circle cx="263.8" cy="164.0" r="1.4" />
<circle cx="266.3" cy="136.0" r="1.4" />
<circle cx="268.8" cy="140.0" r="1.4" />
<circle cx="271.3" cy="125.0" r="1.4" />
<circle cx="273.7" cy="130.0" r="1.4" />
<circle cx="276.2" cy="135.0" r="1.4" />
<circle cx="278.7" cy="129.0" r="1.4" />
<circle cx="281.2" cy="43.0" r="1.4" />
<circle cx="283.7" cy="86.0" r="1.4" />
<circle cx="286.2" cy="172.0" r="1.4" />
<circle cx="288.7" cy="144.0" r="1.4" />
<circle cx="291.2" cy="138.0" r="1.4" />
<circle cx="293.7" cy="141.0" r="1.4" />
<circle cx="296.1" cy="47.0" r="1.4" />
<circle cx="298.6" cy="94.0" r="1.4" />
<circle cx="301.1" cy="188.0" r="1.4" />
<circle cx="303.6" cy="152.0" r="1.4" />
<circle cx="306.1" cy="133.0" r="1.4" />
<circle cx="308.6" cy="147.0" r="1.4" />
<circle cx="311.1" cy="150.0" r="1.4" />
<circle cx="313.6" cy="145.0" r="1.4" />
<circle cx="316.1" cy="155.0" r="1.4" />
<circle cx="318.5" cy="160.0" r="1.4" />
<circle cx="321.0" cy="156.0" r="1.4" />
<circle cx="323.5" cy="143.0" r="1.4" />
<circle cx="326.0" cy="121.0" r="1.4" />
<circle cx="328.5" cy="154.0" r="1.4" />
<circle cx="331.0" cy="161.0" r="1.4" />
<circle cx="333.5" cy="168.0" r="1.4" />
<circle cx="336.0" cy="153.0" r="1.4" />
<circle cx="338.5" cy="159.0" r="1.4" />
<circle cx="340.9" cy="53.0" r="1.4" />
<circle cx="343.4" cy="106.0" r="1.4" />
<circle cx="345.9" cy="212.0" r="1.4" />
<circle cx="348.4" cy="176.0" r="1.4" />
<circle cx="350.9" cy="165.0" r="1.4" />
<circle cx="353.4" cy="162.0" r="1.4" />
<circle cx="355.9" cy="171.0" r="1.4" />
<circle cx="358.4" cy="174.0" r="1.4" />
<circle cx="360.8" cy="177.0" r="1.4" />
<circle cx="363.3" cy="59.0" r="1.4" />
<circle cx="365.8" cy="118.0" r="1.4" />
<circle cx="368.3" cy="236.0" r="1.4" />
<circle cx="370.8" cy="180.0" r="1.4" />
<circle cx="373.3" cy="170.0" r="1.4" />
<circle cx="375.8" cy="175.0" r="1.4" />
<circle cx="378.3" cy="182.0" r="1.4" />
<circle cx="380.8" cy="169.0" r="1.4" />
<circle cx="383.2" cy="195.0" r="1.4" />
<circle cx="385.7" cy="183.0" r="1.4" />
<circle cx="388.2" cy="61.0" r="1.4" />
<circle cx="390.7" cy="122.0" r="1.4" />
<circle cx="393.2" cy="244.0" r="1.4" />
<circle cx="395.7" cy="184.0" r="1.4" />
<circle cx="398.2" cy="192.0" r="1.4" />
<circle cx="400.7" cy="186.0" r="1.4" />
<circle cx="403.2" cy="189.0" r="1.4" />
<circle cx="405.6" cy="196.0" r="1.4" />
<circle cx="408.1" cy="200.0" r="1.4" />
<circle cx="410.6" cy="185.0" r="1.4" />
<circle cx="413.1" cy="190.0" r="1.4" />
<circle cx="415.6" cy="205.0" r="1.4" />
<circle cx="418.1" cy="210.0" r="1.4" />
<circle cx="420.6" cy="198.0" r="1.4" />
<circle cx="423.1" cy="187.0" r="1.4" />
<circle cx="425.6" cy="204.0" r="1.4" />
<circle cx="428.0" cy="201.0" r="1.4" />
<circle cx="430.5" cy="67.0" r="1.4" />
<circle cx="433.0" cy="134.0" r="1.4" />
<circle cx="435.5" cy="268.0" r="1.4" />
<circle cx="438.0" cy="208.0" r="1.4" />
<circle cx="440.5" cy="216.0" r="1.4" />
<circle cx="443.0" cy="207.0" r="1.4" />
<circle cx="445.5" cy="213.0" r="1.4" />
<circle cx="447.9" cy="71.0" r="1.4" />
<circle cx="450.4" cy="142.0" r="1.4" />
<circle cx="452.9" cy="284.0" r="1.4" />
<circle cx="455.4" cy="220.0" r="1.4" />
<circle cx="457.9" cy="209.0" r="1.4" />
<circle cx="460.4" cy="228.0" r="1.4" />
</g>
</svg>