<svg xmlns="http://www.w3.org/2000/svg" width="161.5" height="100.0" viewBox="-3 -5 171 110">
<g fill="none" stroke="black" stroke-width="4.8050%" transform="translate(0, 100.0000) scale(0.1041, -0.1041)">
<line x1="20" y1="0" x2="20" y2="2" />
<line x1="40" y1="0" x2="40" y2="4" />
<line x1="60" y1="0" x2="60" y2="3" />
<line x1="81" y1="0" x2="81" y2="6" />
<line x1="101" y1="0" x2="101" y2="9" />
<line x1="121" y1="0" x2="121" y2="5" />
<line x1="141" y1="0" x2="141" y2="8" />
<line x1="161" y1="0" x2="161" y2="15" />
<line x1="181" y1="0" x2="181" y2="25" />
<line x1="202" y1="0" x2="202" y2="7" />
<line x1="222" y1="0" x2="222" y2="10" />
<line x1="242" y1="0" x2="242" y2="21" />
<line x1="262" y1="0" x2="262" y2="35" />
<line x1="282" y1="0" x2="282" y2="49" />
<line x1="302" y1="0" x2="302" y2="11" />
<line x1="322" y1="0" x2="322" y2="12" />
<line x1="343" y1="0" x2="343" y2="27" />
<line x1="363" y1="0" x2="363" y2="55" />
<line x1="383" y1="0" x2="383" y2="77" />
<line x1="403" y1="0" x2="403" y2="121" />
<line x1="423" y1="0" x2="423" y2="13" />
<line x1="443" y1="0" x2="443" y2="14" />
<line x1="463" y1="0" x2="463" y2="33" />
<line x1="484" y1="0" x2="484" y2="65" />
<line x1="504" y1="0" x2="504" y2="91" />
<line x1="524" y1="0" x2="524" y2="143" />
<line x1="544" y1="0" x2="544" y2="169" />
<line x1="564" y1="0" x2="564" y2="17" />
<line x1="584" y1="0" x2="584" y2="16" />
<line x1="605" y1="0" x2="605" y2="39" />
<line x1="625" y1="0" x2="625" y2="85" />
<line x1="645" y1="0" x2="645" y2="119" />
<line x1="665" y1="0" x2="665" y2="187" />
<line x1="685" y1="0" x2="685" y2="221" />
<line x1="705" y1="0" x2="705" y2="289" />
<line x1="725" y1="0" x2="725" y2="19" />
<line x1="746" y1="0" x2="746" y2="18" />
<line x1="766" y1="0" x2="766" y2="45" />
<line x1="786" y1="0" x2="786" y2="95" />
<line x1="806" y1="0" x2="806" y2="133" />
<line x1="826" y1="0" x2="826" y2="209" />
<line x1="846" y1="0" x2="846" y2="247" />
<line x1="867" y1="0" x2="867" y2="323" />
<line x1="887" y1="0" x2="887" y2="361" />
<line x1="907" y1="0" x2="907" y2="23" />
<line x1="927" y1="0" x2="927" y2="20" />
<line x1="947" y1="0" x2="947" y2="51" />
<line x1="967" y1="0" x2="967" y2="115" />
<line x1="987" y1="0" x2="987" y2="161" />
<line x1="1008" y1="0" x2="1008" y2="253" />
<line x1="1028" y1="0" x2="1028" y2="299" />
<line x1="1048" y1="0" x2="1048" y2="391" />
<line x1="1068" y1="0" x2="1068" y2="437" />
<line x1="1088" y1="0" x2="1088" y2="529" />
<line x1="1108" y1="0" x2="1108" y2="29" />
<line x1="1129" y1="0" x2="1129" y2="22" />
<line x1="1149" y1="0" x2="1149" y2="57" />
<line x1="1169" y1="0" x2="1169" y2="125" />
<line x1="1189" y1="0" x2="1189" y2="203" />
<line x1="1209" y1="0" x2="1209" y2="319" />
<line x1="1229" y1="0" x2="1229" y2="377" />
<line x1="1249" y1="0" x2="1249" y2="493" />
<line x1="1270" y1="0" x2="1270" y2="551" />
<line x1="1290" y1="0" x2="1290" y2="667" />
<line x1="1310" y1="0" x2="1310" y2="841" />
<line x1="1330" y1="0" x2="1330" y2="31" />
<line x1="1350" y1="0" x2="1350" y2="24" />
<line x1="1370" y1="0" x2="1370" y2="63" />
<line x1="1390" y1="0" x2="1390" y2="145" />
<line x1="1411" y1="0" x2="1411" y2="217" />
<line x1="1431" y1="0" x2="1431" y2="341" />
<line x1="1451" y1="0" x2="1451" y2="403" />
<line x1="1471" y1="0" x2="1471" y2="527" />
<line x1="1491" y1="0" x2="1491" y2="589" />
<line x1="1511" y1="0" x2="1511" y2="713" />
<line x1="1532" y1="0" x2="1532" y2="899" />
<line x1="1552" y1="0" x2="1552" y2="961" />
<line x1="1572" y1="0" x2="1572" y2="37" />
</g>
</svg>