<svg xmlns="http://www.w3.org/2000/svg" width="161.8" height="100.0" viewBox="-4.23 -105.00 171.80 110.00">
<g fill="none" stroke="black" stroke-width="0.0721%" transform="translate(0, -100.0000) scale(6.9303, -6.9303)">
<circle cx="0.11" cy="0.00" r="0.07" />
<circle cx="0.11" cy="0.00" r="0.07" />
<circle cx="0.22" cy="-0.69" r="0.07" />
<circle cx="0.34" cy="-0.69" r="0.07" />
<circle cx="0.45" cy="-1.10" r="0.07" />
<circle cx="0.56" cy="-1.79" r="0.07" />
<circle cx="0.67" cy="-1.10" r="0.07" />
<circle cx="0.78" cy="-1.39" r="0.07" />
<circle cx="0.89" cy="-2.48" r="0.07" />
<circle cx="1.01" cy="-2.48" r="0.07" />
<circle cx="1.12" cy="-1.39" r="0.07" />
<circle cx="1.23" cy="-1.61" r="0.07" />
<circle cx="1.34" cy="-3.00" r="0.07" />
<circle cx="1.45" cy="-3.40" r="0.07" />
<circle cx="1.56" cy="-3.00" r="0.07" />
<circle cx="1.68" cy="-1.61" r="0.07" />
<circle cx="1.79" cy="-1.79" r="0.07" />
<circle cx="1.90" cy="-3.40" r="0.07" />
<circle cx="2.01" cy="-4.09" r="0.07" />
<circle cx="2.12" cy="-4.09" r="0.07" />
<circle cx="2.23" cy="-3.40" r="0.07" />
<circle cx="2.35" cy="-1.79" r="0.07" />
<circle cx="2.46" cy="-1.95" r="0.07" />
<circle cx="2.57" cy="-3.74" r="0.07" />
<circle cx="2.68" cy="-4.65" r="0.07" />
<circle cx="2.79" cy="-4.94" r="0.07" />
<circle cx="2.90" cy="-4.65" r="0.07" />
<circle cx="3.02" cy="-3.74" r="0.07" />
<circle cx="3.13" cy="-1.95" r="0.07" />
<circle cx="3.24" cy="-2.08" r="0.07" />
<circle cx="3.35" cy="-4.03" r="0.07" />
<circle cx="3.46" cy="-5.12" r="0.07" />
<circle cx="3.57" cy="-5.63" r="0.07" />
<circle cx="3.69" cy="-5.63" r="0.07" />
<circle cx="3.80" cy="-5.12" r="0.07" />
<circle cx="3.91" cy="-4.03" r="0.07" />
<circle cx="4.02" cy="-2.08" r="0.07" />
<circle cx="4.13" cy="-2.20" r="0.07" />
<circle cx="4.24" cy="-4.28" r="0.07" />
<circle cx="4.36" cy="-5.53" r="0.07" />
<circle cx="4.47" cy="-6.22" r="0.07" />
<circle cx="4.58" cy="-6.45" r="0.07" />
<circle cx="4.69" cy="-6.22" r="0.07" />
<circle cx="4.80" cy="-5.53" r="0.07" />
<circle cx="4.92" cy="-4.28" r="0.07" />
<circle cx="5.03" cy="-2.20" r="0.07" />
<circle cx="5.14" cy="-2.30" r="0.07" />
<circle cx="5.25" cy="-4.50" r="0.07" />
<circle cx="5.36" cy="-5.89" r="0.07" />
<circle cx="5.47" cy="-6.73" r="0.07" />
<circle cx="5.59" cy="-7.14" r="0.07" />
<circle cx="5.70" cy="-7.14" r="0.07" />
<circle cx="5.81" cy="-6.73" r="0.07" />
<circle cx="5.92" cy="-5.89" r="0.07" />
<circle cx="6.03" cy="-4.50" r="0.07" />
<circle cx="6.14" cy="-2.30" r="0.07" />
<circle cx="6.26" cy="-2.40" r="0.07" />
<circle cx="6.37" cy="-4.70" r="0.07" />
<circle cx="6.48" cy="-6.20" r="0.07" />
<circle cx="6.59" cy="-7.19" r="0.07" />
<circle cx="6.70" cy="-7.75" r="0.07" />
<circle cx="6.81" cy="-7.93" r="0.07" />
<circle cx="6.93" cy="-7.75" r="0.07" />
<circle cx="7.04" cy="-7.19" r="0.07" />
<circle cx="7.15" cy="-6.20" r="0.07" />
<circle cx="7.26" cy="-4.70" r="0.07" />
<circle cx="7.37" cy="-2.40" r="0.07" />
<circle cx="7.48" cy="-2.48" r="0.07" />
<circle cx="7.60" cy="-4.88" r="0.07" />
<circle cx="7.71" cy="-6.49" r="0.07" />
<circle cx="7.82" cy="-7.59" r="0.07" />
<circle cx="7.93" cy="-8.28" r="0.07" />
<circle cx="8.04" cy="-8.62" r="0.07" />
<circle cx="8.15" cy="-8.62" r="0.07" />
<circle cx="8.27" cy="-8.28" r="0.07" />
<circle cx="8.38" cy="-7.59" r="0.07" />
<circle cx="8.49" cy="-6.49" r="0.07" />
<circle cx="8.60" cy="-4.88" r="0.07" />
<circle cx="8.71" cy="-2.48" r="0.07" />
<circle cx="8.83" cy="-2.56" r="0.07" />
<circle cx="8.94" cy="-5.05" r="0.07" />
<circle cx="9.05" cy="-6.75" r="0.07" />
<circle cx="9.16" cy="-7.96" r="0.07" />
<circle cx="9.27" cy="-8.77" r="0.07" />
<circle cx="9.38" cy="-9.24" r="0.07" />
<circle cx="9.50" cy="-9.39" r="0.07" />
<circle cx="9.61" cy="-9.24" r="0.07" />
<circle cx="9.72" cy="-8.77" r="0.07" />
<circle cx="9.83" cy="-7.96" r="0.07" />
<circle cx="9.94" cy="-6.75" r="0.07" />
<circle cx="10.05" cy="-5.05" r="0.07" />
<circle cx="10.17" cy="-2.56" r="0.07" />
<circle cx="10.28" cy="-2.64" r="0.07" />
<circle cx="10.39" cy="-5.20" r="0.07" />
<circle cx="10.50" cy="-7.00" r="0.07" />
<circle cx="10.61" cy="-8.30" r="0.07" />
<circle cx="10.72" cy="-9.21" r="0.07" />
<circle cx="10.84" cy="-9.80" r="0.07" />
<circle cx="10.95" cy="-10.09" r="0.07" />
<circle cx="11.06" cy="-10.09" r="0.07" />
<circle cx="11.17" cy="-9.80" r="0.07" />
<circle cx="11.28" cy="-9.21" r="0.07" />
<circle cx="11.39" cy="-8.30" r="0.07" />
<circle cx="11.51" cy="-7.00" r="0.07" />
<circle cx="11.62" cy="-5.20" r="0.07" />
<circle cx="11.73" cy="-2.64" r="0.07" />
<circle cx="11.84" cy="-2.71" r="0.07" />
<circle cx="11.95" cy="-5.35" r="0.07" />
<circle cx="12.06" cy="-7.22" r="0.07" />
<circle cx="12.18" cy="-8.61" r="0.07" />
<circle cx="12.29" cy="-9.62" r="0.07" />
<circle cx="12.40" cy="-10.31" r="0.07" />
<circle cx="12.51" cy="-10.72" r="0.07" />
<circle cx="12.62" cy="-10.85" r="0.07" />
<circle cx="12.73" cy="-10.72" r="0.07" />
<circle cx="12.85" cy="-10.31" r="0.07" />
<circle cx="12.96" cy="-9.62" r="0.07" />
<circle cx="13.07" cy="-8.61" r="0.07" />
<circle cx="13.18" cy="-7.22" r="0.07" />
<circle cx="13.29" cy="-5.35" r="0.07" />
<circle cx="13.41" cy="-2.71" r="0.07" />
<circle cx="13.52" cy="-2.77" r="0.07" />
<circle cx="13.63" cy="-5.48" r="0.07" />
<circle cx="13.74" cy="-7.43" r="0.07" />
<circle cx="13.85" cy="-8.89" r="0.07" />
<circle cx="13.96" cy="-9.99" r="0.07" />
<circle cx="14.08" cy="-10.78" r="0.07" />
<circle cx="14.19" cy="-11.29" r="0.07" />
<circle cx="14.30" cy="-11.54" r="0.07" />
<circle cx="14.41" cy="-11.54" r="0.07" />
<circle cx="14.52" cy="-11.29" r="0.07" />
<circle cx="14.63" cy="-10.78" r="0.07" />
<circle cx="14.75" cy="-9.99" r="0.07" />
<circle cx="14.86" cy="-8.89" r="0.07" />
<circle cx="14.97" cy="-7.43" r="0.07" />
<circle cx="15.08" cy="-5.48" r="0.07" />
<circle cx="15.19" cy="-2.77" r="0.07" />
<circle cx="15.30" cy="-2.83" r="0.07" />
<circle cx="15.42" cy="-5.61" r="0.07" />
<circle cx="15.53" cy="-7.62" r="0.07" />
<circle cx="15.64" cy="-9.16" r="0.07" />
<circle cx="15.75" cy="-10.34" r="0.07" />
<circle cx="15.86" cy="-11.22" r="0.07" />
<circle cx="15.97" cy="-11.82" r="0.07" />
<circle cx="16.09" cy="-12.18" r="0.07" />
<circle cx="16.20" cy="-12.30" r="0.07" />
<circle cx="16.31" cy="-12.18" r="0.07" />
<circle cx="16.42" cy="-11.82" r="0.07" />
<circle cx="16.53" cy="-11.22" r="0.07" />
<circle cx="16.64" cy="-10.34" r="0.07" />
<circle cx="16.76" cy="-9.16" r="0.07" />
<circle cx="16.87" cy="-7.62" r="0.07" />
<circle cx="16.98" cy="-5.61" r="0.07" />
<circle cx="17.09" cy="-2.83" r="0.07" />
<circle cx="17.20" cy="-2.89" r="0.07" />
<circle cx="17.31" cy="-5.72" r="0.07" />
<circle cx="17.43" cy="-7.80" r="0.07" />
<circle cx="17.54" cy="-9.41" r="0.07" />
<circle cx="17.65" cy="-10.67" r="0.07" />
<circle cx="17.76" cy="-11.62" r="0.07" />
<circle cx="17.87" cy="-12.31" r="0.07" />
<circle cx="17.99" cy="-12.77" r="0.07" />
<circle cx="18.10" cy="-12.99" r="0.07" />
<circle cx="18.21" cy="-12.99" r="0.07" />
<circle cx="18.32" cy="-12.77" r="0.07" />
<circle cx="18.43" cy="-12.31" r="0.07" />
<circle cx="18.54" cy="-11.62" r="0.07" />
<circle cx="18.66" cy="-10.67" r="0.07" />
<circle cx="18.77" cy="-9.41" r="0.07" />
<circle cx="18.88" cy="-7.80" r="0.07" />
<circle cx="18.99" cy="-5.72" r="0.07" />
<circle cx="19.10" cy="-2.89" r="0.07" />
<circle cx="19.21" cy="-2.94" r="0.07" />
<circle cx="19.33" cy="-5.83" r="0.07" />
<circle cx="19.44" cy="-7.97" r="0.07" />
<circle cx="19.55" cy="-9.65" r="0.07" />
<circle cx="19.66" cy="-10.97" r="0.07" />
<circle cx="19.77" cy="-12.00" r="0.07" />
<circle cx="19.88" cy="-12.77" r="0.07" />
<circle cx="20.00" cy="-13.31" r="0.07" />
<circle cx="20.11" cy="-13.63" r="0.07" />
<circle cx="20.22" cy="-13.74" r="0.07" />
<circle cx="20.33" cy="-13.63" r="0.07" />
<circle cx="20.44" cy="-13.31" r="0.07" />
<circle cx="20.55" cy="-12.77" r="0.07" />
<circle cx="20.67" cy="-12.00" r="0.07" />
<circle cx="20.78" cy="-10.97" r="0.07" />
<circle cx="20.89" cy="-9.65" r="0.07" />
<circle cx="21.00" cy="-7.97" r="0.07" />
<circle cx="21.11" cy="-5.83" r="0.07" />
<circle cx="21.22" cy="-2.94" r="0.07" />
<circle cx="21.34" cy="-3.00" r="0.07" />
<circle cx="21.45" cy="-5.94" r="0.07" />
<circle cx="21.56" cy="-8.14" r="0.07" />
<circle cx="21.67" cy="-9.87" r="0.07" />
<circle cx="21.78" cy="-11.26" r="0.07" />
<circle cx="21.90" cy="-12.36" r="0.07" />
<circle cx="22.01" cy="-13.20" r="0.07" />
<circle cx="22.12" cy="-13.82" r="0.07" />
<circle cx="22.23" cy="-14.23" r="0.07" />
<circle cx="22.34" cy="-14.43" r="0.07" />
<circle cx="22.45" cy="-14.43" r="0.07" />
<circle cx="22.57" cy="-14.23" r="0.07" />
<circle cx="22.68" cy="-13.82" r="0.07" />
<circle cx="22.79" cy="-13.20" r="0.07" />
<circle cx="22.90" cy="-12.36" r="0.07" />
<circle cx="23.01" cy="-11.26" r="0.07" />
<circle cx="23.12" cy="-9.87" r="0.07" />
<circle cx="23.24" cy="-8.14" r="0.07" />
<circle cx="23.35" cy="-5.94" r="0.07" />
<circle cx="23.46" cy="-3.00" r="0.07" />
</g>
</svg>