<svg xmlns="http://www.w3.org/2000/svg" width="163.2" height="100.0" viewBox="-44.47 -23.42 173.16 110.00">
<g fill="none" stroke="black" stroke-width="0.1344%" transform="translate(0, 63.1579) scale(3.7216, -3.7216)">
<polyline points="0.00,0.00 0.71,0.71 1.41,-0.00 2.12,-0.71 1.41,-1.41 2.12,-2.12 1.41,-2.83 0.71,-3.54 -0.00,-2.83 0.71,-3.54 -0.00,-4.24 -0.71,-4.95 -1.41,-4.24 -2.12,-4.95 -2.83,-4.24 -3.54,-3.54 -2.83,-2.83 -2.12,-3.54 -2.83,-4.24 -3.54,-4.95 -4.24,-4.24 -4.95,-4.95 -5.66,-4.24 -6.36,-3.54 -5.66,-2.83 -6.36,-3.54 -7.07,-2.83 -7.78,-2.12 -7.07,-1.41 -7.78,-0.71 -7.07,-0.00 -6.36,0.71 -5.66,-0.00 -4.95,-0.71 -5.66,-1.41 -6.36,-2.12 -7.07,-1.41 -7.78,-2.12 -8.49,-1.41 -9.19,-0.71 -8.49,-0.00 -9.19,-0.71 -9.90,-0.00 -10.61,0.71 -9.90,1.41 -10.61,2.12 -9.90,2.83 -9.19,3.54 -8.49,2.83 -9.19,2.12 -9.90,2.83 -10.61,3.54 -9.90,4.24 -10.61,4.95 -9.90,5.66 -9.19,6.36 -8.49,5.66 -9.19,6.36 -8.49,7.07 -7.78,7.78 -7.07,7.07 -6.36,7.78 -5.66,7.07 -4.95,6.36 -5.66,5.66 -4.95,4.95 -5.66,4.24 -6.36,3.54 -7.07,4.24 -7.78,3.54 -8.49,4.24 -9.19,4.95 -8.49,5.66 -9.19,4.95 -9.90,5.66 -10.61,6.36 -9.90,7.07 -10.61,7.78 -9.90,8.49 -9.19,9.19 -8.49,8.49 -9.19,7.78 -9.90,8.49 -10.61,9.19 -9.90,9.90 -10.61,10.61 -9.90,11.31 -9.19,12.02 -8.49,11.31 -9.19,12.02 -8.49,12.73 -7.78,13.44 -7.07,12.73 -6.36,13.44 -5.66,12.73 -4.95,12.02 -5.66,11.31 -6.36,10.61 -7.07,11.31 -7.78,12.02 -7.07,12.73 -7.78,13.44 -7.07,14.14 -6.36,14.85 -5.66,14.14 -6.36,14.85 -5.66,15.56 -4.95,16.26 -4.24,15.56 -3.54,16.26 -2.83,15.56 -2.12,14.85 -2.83,14.14 -3.54,14.85 -2.83,15.56 -2.12,16.26 -1.41,15.56 -0.71,16.26 -0.00,15.56 0.71,14.85 -0.00,14.14 0.71,14.85 1.41,14.14 2.12,13.44 1.41,12.73 2.12,12.02 1.41,11.31 0.71,10.61 -0.00,11.31 0.71,10.61 -0.00,9.90 -0.71,9.19 -1.41,9.90 -2.12,9.19 -2.83,9.90 -3.54,10.61 -2.83,11.31 -3.54,10.61 -4.24,11.31 -4.95,12.02 -4.24,12.73 -4.95,13.44 -4.24,14.14 -3.54,14.85 -2.83,14.14 -3.54,13.44 -4.24,14.14 -4.95,14.85 -4.24,15.56 -4.95,16.26 -4.24,16.97 -3.54,17.68 -2.83,16.97 -3.54,17.68 -2.83,18.38 -2.12,19.09 -1.41,18.38 -0.71,19.09 -0.00,18.38 0.71,17.68 -0.00,16.97 -0.71,16.26 -1.41,16.97 -2.12,17.68 -1.41,18.38 -2.12,19.09 -1.41,19.80 -0.71,20.51 -0.00,19.80 -0.71,20.51 -0.00,21.21 0.71,21.92 1.41,21.21 2.12,21.92 2.83,21.21 3.54,20.51 2.83,19.80 2.12,20.51 2.83,21.21 3.54,21.92 4.24,21.21 4.95,21.92 5.66,21.21 6.36,20.51 5.66,19.80 6.36,20.51 7.07,19.80 7.78,19.09 7.07,18.38 7.78,17.68 7.07,16.97 6.36,16.26 5.66,16.97 4.95,16.26 4.24,16.97 3.54,17.68 4.24,18.38 3.54,19.09 4.24,19.80 4.95,20.51 5.66,19.80 4.95,20.51 5.66,21.21 6.36,21.92 7.07,21.21 7.78,21.92 8.49,21.21 9.19,20.51 8.49,19.80 7.78,20.51 8.49,21.21 9.19,21.92 9.90,21.21 10.61,21.92 11.31,21.21 12.02,20.51 11.31,19.80 12.02,20.51 12.73,19.80 13.44,19.09 12.73,18.38 13.44,17.68 12.73,16.97 12.02,16.26 11.31,16.97 10.61,17.68 11.31,18.38 12.02,19.09 12.73,18.38 13.44,19.09 14.14,18.38 14.85,17.68 14.14,16.97 14.85,17.68 15.56,16.97 16.26,16.26 15.56,15.56 16.26,14.85 15.56,14.14 14.85,13.44 14.14,14.14 14.85,14.85 15.56,14.14 16.26,13.44 15.56,12.73 16.26,12.02 15.56,11.31 14.85,10.61 14.14,11.31 14.85,10.61 14.14,9.90 13.44,9.19 12.73,9.90 12.02,9.19 11.31,9.90 10.61,10.61 11.31,11.31 12.02,10.61 11.31,9.90 10.61,9.19 9.90,9.90 9.19,9.19 8.49,9.90 7.78,10.61 8.49,11.31 7.78,10.61 7.07,11.31 6.36,12.02 7.07,12.73 6.36,13.44 7.07,14.14 7.78,14.85 8.49,14.14 7.78,13.44 7.07,14.14 6.36,14.85 7.07,15.56 6.36,16.26 7.07,16.97 7.78,17.68 8.49,16.97 7.78,17.68 8.49,18.38 9.19,19.09 9.90,18.38 10.61,19.09 11.31,18.38 12.02,17.68 11.31,16.97 10.61,16.26 9.90,16.97 9.19,17.68 9.90,18.38 9.19,19.09 9.90,19.80 10.61,20.51 11.31,19.80 10.61,20.51 11.31,21.21 12.02,21.92 12.73,21.21 13.44,21.92 14.14,21.21 14.85,20.51 14.14,19.80 13.44,20.51 14.14,21.21 14.85,21.92 15.56,21.21 16.26,21.92 16.97,21.21 17.68,20.51 16.97,19.80 17.68,20.51 18.38,19.80 19.09,19.09 18.38,18.38 19.09,17.68 18.38,16.97 17.68,16.26 16.97,16.97 16.26,16.26 15.56,16.97 14.85,17.68 15.56,18.38 14.85,19.09 15.56,19.80 16.26,20.51 16.97,19.80 16.26,20.51 16.97,21.21 17.68,21.92 18.38,21.21 19.09,21.92 19.80,21.21 20.51,20.51 19.80,19.80 19.09,20.51 19.80,21.21 20.51,21.92 21.21,21.21 21.92,21.92 22.63,21.21 23.33,20.51 22.63,19.80 23.33,20.51 24.04,19.80 24.75,19.09 24.04,18.38 24.75,17.68 24.04,16.97 23.33,16.26 22.63,16.97 21.92,17.68 22.63,18.38 23.33,19.09 24.04,18.38 24.75,19.09 25.46,18.38 26.16,17.68 25.46,16.97 26.16,17.68 26.87,16.97 27.58,16.26 26.87,15.56 27.58,14.85 26.87,14.14 26.16,13.44 25.46,14.14 26.16,14.85 26.87,14.14 27.58,13.44 26.87,12.73 27.58,12.02 26.87,11.31 26.16,10.61 25.46,11.31 26.16,10.61 25.46,9.90 24.75,9.19 24.04,9.90 23.33,9.19 22.63,9.90 21.92,10.61 22.63,11.31 21.92,10.61 21.21,11.31 20.51,12.02 21.21,12.73 20.51,13.44 21.21,14.14 21.92,14.85 22.63,14.14 21.92,14.85 22.63,15.56 23.33,16.26 24.04,15.56 24.75,16.26 25.46,15.56 26.16,14.85 25.46,14.14 24.75,14.85 25.46,15.56 26.16,16.26 26.87,15.56 27.58,16.26 28.28,15.56 28.99,14.85 28.28,14.14 28.99,14.85 29.70,14.14 30.41,13.44 29.70,12.73 30.41,12.02 29.70,11.31 28.99,10.61 28.28,11.31 27.58,12.02 28.28,12.73 28.99,13.44 29.70,12.73 30.41,13.44 31.11,12.73 31.82,12.02 31.11,11.31 31.82,12.02 32.53,11.31 33.23,10.61 32.53,9.90 33.23,9.19 32.53,8.49 31.82,7.78 31.11,8.49 31.82,9.19 32.53,8.49 33.23,7.78 32.53,7.07 33.23,6.36 32.53,5.66 31.82,4.95 31.11,5.66 31.82,4.95 31.11,4.24 30.41,3.54 29.70,4.24 28.99,3.54 28.28,4.24 27.58,4.95 28.28,5.66 27.58,6.36 28.28,7.07 28.99,7.78 29.70,7.07 30.41,7.78 31.11,7.07 31.82,6.36 31.11,5.66 31.82,6.36 32.53,5.66 33.23,4.95 32.53,4.24 33.23,3.54 32.53,2.83 31.82,2.12 31.11,2.83 31.82,3.54 32.53,2.83 33.23,2.12 32.53,1.41 33.23,0.71 32.53,-0.00 31.82,-0.71 31.11,-0.00 31.82,-0.71 31.11,-1.41 30.41,-2.12 29.70,-1.41 28.99,-2.12 28.28,-1.41 27.58,-0.71 28.28,-0.00 28.99,0.71 29.70,-0.00 30.41,-0.71 29.70,-1.41 30.41,-2.12 29.70,-2.83 28.99,-3.54 28.28,-2.83 28.99,-3.54 28.28,-4.24 27.58,-4.95 26.87,-4.24 26.16,-4.95 25.46,-4.24 24.75,-3.54 25.46,-2.83 26.16,-3.54 25.46,-4.24 24.75,-4.95 24.04,-4.24 23.33,-4.95 22.63,-4.24 21.92,-3.54 22.63,-2.83 21.92,-3.54 21.21,-2.83 20.51,-2.12 21.21,-1.41 20.51,-0.71 21.21,-0.00 21.92,0.71 22.63,-0.00" />
</g>
</svg>