<svg xmlns="http://www.w3.org/2000/svg" width="175.0" height="100.0" viewBox="-42.50 -17.50 185.00 110.00">
<g fill="none" stroke="black" stroke-width="0.0400%" transform="translate(0, 75.0000) scale(12.5000, -12.5000)">
<polyline points="0.00,0.00 -0.00,-1.00 -1.00,-1.00 -2.00,-1.00 -2.00,0.00 -3.00,0.00 -3.00,1.00 -3.00,2.00 -2.00,2.00 -3.00,2.00 -3.00,3.00 -3.00,4.00 -2.00,4.00 -2.00,5.00 -1.00,5.00 0.00,5.00 0.00,4.00 -1.00,4.00 -1.00,5.00 -1.00,6.00 0.00,6.00 0.00,7.00 1.00,7.00 2.00,7.00 2.00,6.00 2.00,7.00 3.00,7.00 4.00,7.00 4.00,6.00 5.00,6.00 5.00,5.00 5.00,4.00 4.00,4.00 3.00,4.00 3.00,5.00 3.00,6.00 4.00,6.00 4.00,7.00 5.00,7.00 6.00,7.00 6.00,6.00 6.00,7.00 7.00,7.00 8.00,7.00 8.00,6.00 9.00,6.00 9.00,5.00 9.00,4.00 8.00,4.00 8.00,5.00 9.00,5.00 10.00,5.00 10.00,4.00 11.00,4.00 11.00,3.00 11.00,2.00 10.00,2.00 11.00,2.00 11.00,1.00 11.00,-0.00 10.00,-0.00 10.00,-1.00 9.00,-1.00 8.00,-1.00 8.00,-0.00" />
</g>
</svg>