<svg xmlns="http://www.w3.org/2000/svg" width="68.5" height="100.0" viewBox="-39.26 -109.44 78.52 110.00">
<g fill="none" stroke="black" stroke-width="0.0282%" transform="translate(0, -108.8731) scale(17.7460, -17.7460)">
<polyline points="-1.93,-5.89 -1.79,-5.69 -1.65,-5.50 -1.53,-5.31 -1.41,-5.14 -1.30,-4.97 -1.19,-4.81 -1.09,-4.66 -1.00,-4.51 -0.91,-4.37 -0.83,-4.24 -0.76,-4.11 -0.68,-3.99 -0.62,-3.87 -0.55,-3.75 -0.49,-3.64 -0.44,-3.54 -0.38,-3.43 -0.33,-3.34 -0.29,-3.24 -0.24,-3.15 -0.20,-3.07 -0.16,-2.98 -0.12,-2.90 -0.09,-2.82 -0.05,-2.75 -0.02,-2.68 0.01,-2.61 0.03,-2.54 0.06,-2.47 0.08,-2.41 0.11,-2.35 0.13,-2.29 0.15,-2.23 0.17,-2.18 0.18,-2.13 0.20,-2.08 0.22,-2.03 0.23,-1.98 0.24,-1.93 0.26,-1.89 0.27,-1.84 0.28,-1.80 0.29,-1.76 0.30,-1.72 0.31,-1.68 0.32,-1.65 0.33,-1.61 0.33,-1.58 0.34,-1.54 0.35,-1.51 0.35,-1.48 0.36,-1.45 0.36,-1.42 0.37,-1.39 0.37,-1.36 0.38,-1.33 0.38,-1.31 0.38,-1.28 0.39,-1.26 0.39,-1.23 0.39,-1.21 0.39,-1.19 0.39,-1.16 0.40,-1.14 0.40,-1.12 0.40,-1.10 0.40,-1.08 0.40,-1.06 0.40,-1.04 0.40,-1.02 0.40,-1.01 0.40,-0.99 0.40,-0.97 0.40,-0.95 0.40,-0.94 0.40,-0.92 0.40,-0.91 0.40,-0.89 0.40,-0.88 0.39,-0.86 0.39,-0.85 0.39,-0.84 0.39,-0.82 0.39,-0.81 0.39,-0.80 0.39,-0.78 0.39,-0.77 0.38,-0.76 0.38,-0.75 0.38,-0.74 0.38,-0.73 0.38,-0.72 0.37,-0.71 0.37,-0.70 0.37,-0.69 0.37,-0.68 0.37,-0.67 0.36,-0.66 0.36,-0.65 0.36,-0.64 0.36,-0.63 0.35,-0.62 0.35,-0.61 0.35,-0.61 0.35,-0.60 0.35,-0.59 0.34,-0.58 0.34,-0.58 0.34,-0.57 0.34,-0.56 0.33,-0.55 0.33,-0.55 0.33,-0.54 0.33,-0.53 0.32,-0.53 0.32,-0.52 0.32,-0.52 0.32,-0.51 0.31,-0.50 0.31,-0.50 0.31,-0.49 0.30,-0.49 0.30,-0.48 0.30,-0.48 0.30,-0.47 0.29,-0.47 0.29,-0.46 0.29,-0.46 0.29,-0.45 0.28,-0.45 0.28,-0.44 0.28,-0.44 0.28,-0.43 0.27,-0.43 0.27,-0.43 0.27,-0.42 0.27,-0.42 0.26,-0.41 0.26,-0.41 0.26,-0.41 0.26,-0.40 0.25,-0.40 0.25,-0.40 0.25,-0.39 0.25,-0.39 0.24,-0.38 0.24,-0.38 0.24,-0.38 0.23,-0.38 0.23,-0.37 0.23,-0.37 0.23,-0.37 0.22,-0.36 0.22,-0.36 0.22,-0.36 0.22,-0.35 0.21,-0.35 0.21,-0.35 0.21,-0.35 0.21,-0.34 0.20,-0.34 0.20,-0.34 0.20,-0.34 0.20,-0.33 0.19,-0.33 0.19,-0.33 0.19,-0.33 0.19,-0.33 0.18,-0.32 0.18,-0.32 0.18,-0.32 0.18,-0.32 0.17,-0.32 0.17,-0.31 0.17,-0.31 0.17,-0.31 0.17,-0.31 0.16,-0.31 0.16,-0.30 0.16,-0.30 0.16,-0.30 0.15,-0.30 0.15,-0.30 0.15,-0.30 0.15,-0.29 0.14,-0.29 0.14,-0.29 0.14,-0.29 0.14,-0.29 0.13,-0.29 0.13,-0.29 0.13,-0.28 0.13,-0.28 0.12,-0.28 0.12,-0.28 0.12,-0.28 0.12,-0.28 0.12,-0.28 0.11,-0.28 0.11,-0.28 0.11,-0.27 0.11,-0.27 0.10,-0.27 0.10,-0.27 0.10,-0.27 0.10,-0.27 0.09,-0.27 0.09,-0.27 0.09,-0.27 0.09,-0.27 0.09,-0.26 0.08,-0.26 0.08,-0.26 0.08,-0.26 0.08,-0.26 0.07,-0.26 0.07,-0.26 0.07,-0.26 0.07,-0.26 0.07,-0.26 0.06,-0.26 0.06,-0.26 0.06,-0.26 0.06,-0.26 0.05,-0.26 0.05,-0.26 0.05,-0.25 0.05,-0.25 0.05,-0.25 0.04,-0.25 0.04,-0.25 0.04,-0.25 0.04,-0.25 0.03,-0.25 0.03,-0.25 0.03,-0.25 0.03,-0.25 0.03,-0.25 0.02,-0.25 0.02,-0.25 0.02,-0.25 0.02,-0.25 0.01,-0.25 0.01,-0.25 0.01,-0.25 0.01,-0.25 0.01,-0.25 0.00,-0.25 0.00,-0.25 -0.00,-0.25 -0.00,-0.25 -0.01,-0.25 -0.01,-0.25 -0.01,-0.25 -0.01,-0.25 -0.01,-0.25 -0.02,-0.25 -0.02,-0.25 -0.02,-0.25 -0.02,-0.25 -0.03,-0.25 -0.03,-0.25 -0.03,-0.25 -0.03,-0.25 -0.03,-0.25 -0.04,-0.25 -0.04,-0.25 -0.04,-0.25 -0.04,-0.25 -0.05,-0.25 -0.05,-0.25 -0.05,-0.25 -0.05,-0.26 -0.05,-0.26 -0.06,-0.26 -0.06,-0.26 -0.06,-0.26 -0.06,-0.26 -0.07,-0.26 -0.07,-0.26 -0.07,-0.26 -0.07,-0.26 -0.07,-0.26 -0.08,-0.26 -0.08,-0.26 -0.08,-0.26 -0.08,-0.26 -0.09,-0.26 -0.09,-0.27 -0.09,-0.27 -0.09,-0.27 -0.09,-0.27 -0.10,-0.27 -0.10,-0.27 -0.10,-0.27 -0.10,-0.27 -0.11,-0.27 -0.11,-0.27 -0.11,-0.28 -0.11,-0.28 -0.12,-0.28 -0.12,-0.28 -0.12,-0.28 -0.12,-0.28 -0.12,-0.28 -0.13,-0.28 -0.13,-0.28 -0.13,-0.29 -0.13,-0.29 -0.14,-0.29 -0.14,-0.29 -0.14,-0.29 -0.14,-0.29 -0.15,-0.29 -0.15,-0.30 -0.15,-0.30 -0.15,-0.30 -0.16,-0.30 -0.16,-0.30 -0.16,-0.30 -0.16,-0.31 -0.17,-0.31 -0.17,-0.31 -0.17,-0.31 -0.17,-0.31 -0.17,-0.32 -0.18,-0.32 -0.18,-0.32 -0.18,-0.32 -0.18,-0.32 -0.19,-0.33 -0.19,-0.33 -0.19,-0.33 -0.19,-0.33 -0.20,-0.33 -0.20,-0.34 -0.20,-0.34 -0.20,-0.34 -0.21,-0.34 -0.21,-0.35 -0.21,-0.35 -0.21,-0.35 -0.22,-0.35 -0.22,-0.36 -0.22,-0.36 -0.22,-0.36 -0.23,-0.37 -0.23,-0.37 -0.23,-0.37 -0.23,-0.38 -0.24,-0.38 -0.24,-0.38 -0.24,-0.38 -0.25,-0.39 -0.25,-0.39 -0.25,-0.40 -0.25,-0.40 -0.26,-0.40 -0.26,-0.41 -0.26,-0.41 -0.26,-0.41 -0.27,-0.42 -0.27,-0.42 -0.27,-0.43 -0.27,-0.43 -0.28,-0.43 -0.28,-0.44 -0.28,-0.44 -0.28,-0.45 -0.29,-0.45 -0.29,-0.46 -0.29,-0.46 -0.29,-0.47 -0.30,-0.47 -0.30,-0.48 -0.30,-0.48 -0.30,-0.49 -0.31,-0.49 -0.31,-0.50 -0.31,-0.50 -0.32,-0.51 -0.32,-0.52 -0.32,-0.52 -0.32,-0.53 -0.33,-0.53 -0.33,-0.54 -0.33,-0.55 -0.33,-0.55 -0.34,-0.56 -0.34,-0.57 -0.34,-0.58 -0.34,-0.58 -0.35,-0.59 -0.35,-0.60 -0.35,-0.61 -0.35,-0.61 -0.35,-0.62 -0.36,-0.63 -0.36,-0.64 -0.36,-0.65 -0.36,-0.66 -0.37,-0.67 -0.37,-0.68 -0.37,-0.69 -0.37,-0.70 -0.37,-0.71 -0.38,-0.72 -0.38,-0.73 -0.38,-0.74 -0.38,-0.75 -0.38,-0.76 -0.39,-0.77 -0.39,-0.78 -0.39,-0.80 -0.39,-0.81 -0.39,-0.82 -0.39,-0.84 -0.39,-0.85 -0.39,-0.86 -0.40,-0.88 -0.40,-0.89 -0.40,-0.91 -0.40,-0.92 -0.40,-0.94 -0.40,-0.95 -0.40,-0.97 -0.40,-0.99 -0.40,-1.01 -0.40,-1.02 -0.40,-1.04 -0.40,-1.06 -0.40,-1.08 -0.40,-1.10 -0.40,-1.12 -0.40,-1.14 -0.39,-1.16 -0.39,-1.19 -0.39,-1.21 -0.39,-1.23 -0.39,-1.26 -0.38,-1.28 -0.38,-1.31 -0.38,-1.33 -0.37,-1.36 -0.37,-1.39 -0.36,-1.42 -0.36,-1.45 -0.35,-1.48 -0.35,-1.51 -0.34,-1.54 -0.33,-1.58 -0.33,-1.61 -0.32,-1.65 -0.31,-1.68 -0.30,-1.72 -0.29,-1.76 -0.28,-1.80 -0.27,-1.84 -0.26,-1.89 -0.24,-1.93 -0.23,-1.98 -0.22,-2.03 -0.20,-2.08 -0.18,-2.13 -0.17,-2.18 -0.15,-2.23 -0.13,-2.29 -0.11,-2.35 -0.08,-2.41 -0.06,-2.47 -0.03,-2.54 -0.01,-2.61 0.02,-2.68 0.05,-2.75 0.09,-2.82 0.12,-2.90 0.16,-2.98 0.20,-3.07 0.24,-3.15 0.29,-3.24 0.33,-3.34 0.38,-3.43 0.44,-3.54 0.49,-3.64 0.55,-3.75 0.62,-3.87 0.68,-3.99 0.76,-4.11 0.83,-4.24 0.91,-4.37 1.00,-4.51 1.09,-4.66 1.19,-4.81 1.30,-4.97 1.41,-5.14 1.53,-5.31 1.65,-5.50 1.79,-5.69 1.93,-5.89" />
</g>
</svg>