<svg xmlns="http://www.w3.org/2000/svg" width="93.6" height="100.0" viewBox="-33.07 -55.00 103.58 110.00">
<g fill="none" stroke="black" stroke-width="0.0267%" transform="translate(0, 0.0000) scale(18.7158, -18.7158)">
<polyline points="1.50,0.00 1.50,0.09 1.48,0.19 1.46,0.28 1.42,0.37 1.38,0.45 1.33,0.53 1.27,0.60 1.21,0.66 1.14,0.72 1.06,0.77 0.98,0.81 0.90,0.84 0.81,0.86 0.73,0.88 0.64,0.88 0.56,0.87 0.47,0.86 0.39,0.84 0.32,0.81 0.25,0.77 0.19,0.73 0.13,0.68 0.08,0.62 0.04,0.56 -0.00,0.50 -0.03,0.44 -0.05,0.37 -0.06,0.31 -0.06,0.24 -0.06,0.18 -0.05,0.12 -0.03,0.07 -0.01,0.02 0.02,-0.03 0.05,-0.07 0.09,-0.11 0.13,-0.13 0.17,-0.16 0.21,-0.17 0.25,-0.18 0.29,-0.18 0.33,-0.18 0.37,-0.17 0.40,-0.16 0.43,-0.14 0.45,-0.12 0.47,-0.09 0.49,-0.06 0.50,-0.03 0.50,0.00 0.50,0.03 0.49,0.06 0.47,0.09 0.45,0.12 0.43,0.14 0.40,0.16 0.37,0.17 0.33,0.18 0.29,0.18 0.25,0.18 0.21,0.17 0.17,0.16 0.13,0.13 0.09,0.11 0.05,0.07 0.02,0.03 -0.01,-0.02 -0.03,-0.07 -0.05,-0.12 -0.06,-0.18 -0.06,-0.24 -0.06,-0.31 -0.05,-0.37 -0.03,-0.44 -0.00,-0.50 0.04,-0.56 0.08,-0.62 0.13,-0.68 0.19,-0.73 0.25,-0.77 0.32,-0.81 0.39,-0.84 0.47,-0.86 0.56,-0.87 0.64,-0.88 0.73,-0.88 0.81,-0.86 0.90,-0.84 0.98,-0.81 1.06,-0.77 1.14,-0.72 1.21,-0.66 1.27,-0.60 1.33,-0.53 1.38,-0.45 1.42,-0.37 1.46,-0.28 1.48,-0.19 1.50,-0.09" />
<polyline points="2.50,0.00 2.49,0.16 2.47,0.31 2.44,0.47 2.39,0.61 2.33,0.76 2.26,0.89 2.18,1.02 2.08,1.14 1.98,1.26 1.87,1.36 1.75,1.45 1.62,1.53 1.50,1.59 1.36,1.65 1.23,1.69 1.09,1.72 0.95,1.74 0.82,1.74 0.69,1.74 0.56,1.72 0.43,1.69 0.32,1.66 0.20,1.61 0.10,1.56 -0.00,1.50 -0.09,1.43 -0.17,1.36 -0.25,1.29 -0.31,1.21 -0.37,1.13 -0.42,1.05 -0.46,0.97 -0.49,0.89 -0.52,0.81 -0.54,0.74 -0.55,0.66 -0.56,0.59 -0.56,0.53 -0.56,0.46 -0.56,0.41 -0.55,0.35 -0.55,0.30 -0.54,0.25 -0.53,0.21 -0.52,0.17 -0.51,0.13 -0.51,0.10 -0.50,0.06 -0.50,0.03 -0.50,-0.00 -0.50,-0.03 -0.50,-0.06 -0.51,-0.10 -0.51,-0.13 -0.52,-0.17 -0.53,-0.21 -0.54,-0.25 -0.55,-0.30 -0.55,-0.35 -0.56,-0.41 -0.56,-0.46 -0.56,-0.53 -0.56,-0.59 -0.55,-0.66 -0.54,-0.74 -0.52,-0.81 -0.49,-0.89 -0.46,-0.97 -0.42,-1.05 -0.37,-1.13 -0.31,-1.21 -0.25,-1.29 -0.17,-1.36 -0.09,-1.43 -0.00,-1.50 0.10,-1.56 0.20,-1.61 0.32,-1.66 0.43,-1.69 0.56,-1.72 0.69,-1.74 0.82,-1.74 0.95,-1.74 1.09,-1.72 1.23,-1.69 1.36,-1.65 1.50,-1.59 1.62,-1.53 1.75,-1.45 1.87,-1.36 1.98,-1.26 2.08,-1.14 2.18,-1.02 2.26,-0.89 2.33,-0.76 2.39,-0.61 2.44,-0.47 2.47,-0.31 2.49,-0.16" />
<polyline points="3.50,0.00 3.49,0.22 3.46,0.44 3.42,0.65 3.36,0.86 3.28,1.07 3.19,1.26 3.08,1.45 2.96,1.63 2.82,1.79 2.68,1.94 2.52,2.08 2.35,2.21 2.18,2.32 2.00,2.42 1.81,2.50 1.63,2.56 1.44,2.61 1.25,2.65 1.06,2.67 0.87,2.67 0.68,2.66 0.50,2.64 0.33,2.60 0.16,2.56 -0.00,2.50 -0.15,2.43 -0.30,2.36 -0.43,2.27 -0.56,2.18 -0.68,2.08 -0.78,1.98 -0.88,1.88 -0.97,1.77 -1.05,1.66 -1.12,1.55 -1.19,1.44 -1.24,1.32 -1.29,1.21 -1.33,1.10 -1.37,0.99 -1.40,0.89 -1.42,0.78 -1.44,0.68 -1.46,0.58 -1.47,0.48 -1.48,0.38 -1.49,0.28 -1.50,0.19 -1.50,0.09 -1.50,-0.00 -1.50,-0.09 -1.50,-0.19 -1.49,-0.28 -1.48,-0.38 -1.47,-0.48 -1.46,-0.58 -1.44,-0.68 -1.42,-0.78 -1.40,-0.89 -1.37,-0.99 -1.33,-1.10 -1.29,-1.21 -1.24,-1.32 -1.19,-1.44 -1.12,-1.55 -1.05,-1.66 -0.97,-1.77 -0.88,-1.88 -0.78,-1.98 -0.68,-2.08 -0.56,-2.18 -0.43,-2.27 -0.30,-2.36 -0.15,-2.43 -0.00,-2.50 0.16,-2.56 0.33,-2.60 0.50,-2.64 0.68,-2.66 0.87,-2.67 1.06,-2.67 1.25,-2.65 1.44,-2.61 1.63,-2.56 1.81,-2.50 2.00,-2.42 2.18,-2.32 2.35,-2.21 2.52,-2.08 2.68,-1.94 2.82,-1.79 2.96,-1.63 3.08,-1.45 3.19,-1.26 3.28,-1.07 3.36,-0.86 3.42,-0.65 3.46,-0.44 3.49,-0.22" />
</g>
</svg>