<svg xmlns="http://www.w3.org/2000/svg" width="161.8" height="100.0" viewBox="-3.349 -3.877 171.803 110.000">
<g fill="none" stroke="black" stroke-width="0.0049%" transform="translate(0, 102.2464) scale(101.3629, -101.3629)">
<polyline points="0.016,0.922 0.033,0.351 0.049,0.765 0.065,0.686 0.081,0.355 0.098,0.135 0.114,0.031 0.130,0.985 0.147,0.622 0.163,0.093 0.179,0.713 0.195,0.031 0.212,0.013 0.228,0.012 0.244,0.167 0.261,0.929 0.277,0.352 0.293,0.837 0.309,0.980 0.326,0.208 0.342,0.845 0.358,0.305 0.375,0.050 0.391,0.998 0.407,0.043 0.424,0.351 0.440,0.100 0.456,0.332 0.472,0.584 0.489,0.958 0.505,0.312 0.521,0.220 0.538,0.377 0.554,0.122 0.570,0.732 0.586,0.162 0.603,0.900 0.619,0.592 0.635,0.120 0.652,0.785 0.668,0.272 0.684,0.055 0.700,0.916 0.717,0.244 0.733,0.773 0.749,0.432 0.766,0.982 0.782,0.080 0.798,0.473 0.814,0.956 0.831,0.781 0.847,0.176 0.863,0.639 0.880,0.682 0.896,0.680 0.912,0.504 0.928,0.589 0.945,0.126 0.961,0.022 0.977,0.306 0.994,0.651 1.010,0.666 1.026,0.640 1.042,0.394 1.059,0.907 1.075,0.396 1.091,0.494 1.108,0.220 1.124,0.380 1.140,0.091 1.156,0.074 1.173,0.396 1.189,0.322 1.205,0.943 1.222,0.252 1.238,0.328 1.254,0.299 1.271,0.752 1.287,0.246 1.303,0.615 1.319,0.702 1.336,0.216 1.352,0.361 1.368,0.907 1.385,0.377 1.401,0.011 1.417,0.173 1.433,0.867 1.450,0.037 1.466,0.305 1.482,0.825 1.499,0.911 1.515,0.110 1.531,0.391 1.547,0.105 1.564,0.392 1.580,0.703 1.596,0.091 1.613,0.958" />
</g>
</svg>