<svg xmlns="http://www.w3.org/2000/svg" width="161.8" height="100.0" viewBox="-3.5 -55.5 171.8 110.0">
<g fill="none" stroke="black" stroke-width="0.1647%" transform="translate(0, -0.9140) scale(3.0363, -3.0363)">

<line x1="1.0" y1="0.0" x2="1.0" y2="0.5" />
<line x1="1.5" y1="0.0" x2="1.5" y2="0.7" />
<line x1="2.0" y1="0.0" x2="2.0" y2="0.7" />

<line x1="2.9" y1="0.0" x2="2.9" y2="-1.0" />
<line x1="3.4" y1="0.0" x2="3.4" y2="-1.3" />
<line x1="3.9" y1="0.0" x2="3.9" y2="-1.3" />

<line x1="4.9" y1="0.0" x2="4.9" y2="1.6" />
<line x1="5.4" y1="0.0" x2="5.4" y2="1.9" />
<line x1="5.9" y1="0.0" x2="5.9" y2="1.9" />

<line x1="6.8" y1="0.0" x2="6.8" y2="-2.2" />
<line x1="7.3" y1="0.0" x2="7.3" y2="-2.5" />
<line x1="7.8" y1="0.0" x2="7.8" y2="-2.5" />

<line x1="8.8" y1="0.0" x2="8.8" y2="2.8" />
<line x1="9.3" y1="0.0" x2="9.3" y2="3.1" />
<line x1="9.8" y1="0.0" x2="9.8" y2="3.1" />

<line x1="10.8" y1="0.0" x2="10.8" y2="-3.4" />
<line x1="11.2" y1="0.0" x2="11.2" y2="-3.7" />
<line x1="11.7" y1="0.0" x2="11.7" y2="-3.7" />

<line x1="12.7" y1="0.0" x2="12.7" y2="4.0" />
<line x1="13.2" y1="0.0" x2="13.2" y2="4.3" />
<line x1="13.7" y1="0.0" x2="13.7" y2="4.3" />

<line x1="14.7" y1="0.0" x2="14.7" y2="-4.6" />
<line x1="15.2" y1="0.0" x2="15.2" y2="-4.9" />
<line x1="15.6" y1="0.0" x2="15.6" y2="-4.9" />

<line x1="16.6" y1="0.0" x2="16.6" y2="5.2" />
<line x1="17.1" y1="0.0" x2="17.1" y2="5.5" />
<line x1="17.6" y1="0.0" x2="17.6" y2="5.5" />

<line x1="18.6" y1="0.0" x2="18.6" y2="-5.8" />
<line x1="19.1" y1="0.0" x2="19.1" y2="-6.1" />
<line x1="19.6" y1="0.0" x2="19.6" y2="-6.1" />

<line x1="20.5" y1="0.0" x2="20.5" y2="6.4" />
<line x1="21.0" y1="0.0" x2="21.0" y2="6.7" />
<line x1="21.5" y1="0.0" x2="21.5" y2="6.7" />

<line x1="22.5" y1="0.0" x2="22.5" y2="-7.0" />
<line x1="23.0" y1="0.0" x2="23.0" y2="-7.3" />
<line x1="23.5" y1="0.0" x2="23.5" y2="-7.3" />

<line x1="24.4" y1="0.0" x2="24.4" y2="7.6" />
<line x1="24.9" y1="0.0" x2="24.9" y2="7.9" />
<line x1="25.4" y1="0.0" x2="25.4" y2="7.9" />

<line x1="26.4" y1="0.0" x2="26.4" y2="-8.2" />
<line x1="26.9" y1="0.0" x2="26.9" y2="-8.5" />
<line x1="27.4" y1="0.0" x2="27.4" y2="-8.5" />

<line x1="28.4" y1="0.0" x2="28.4" y2="8.8" />
<line x1="28.8" y1="0.0" x2="28.8" y2="9.1" />
<line x1="29.3" y1="0.0" x2="29.3" y2="9.1" />

<line x1="30.3" y1="0.0" x2="30.3" y2="-9.4" />
<line x1="30.8" y1="0.0" x2="30.8" y2="-9.7" />
<line x1="31.3" y1="0.0" x2="31.3" y2="-9.7" />

<line x1="32.3" y1="0.0" x2="32.3" y2="10.0" />
<line x1="32.8" y1="0.0" x2="32.8" y2="10.3" />
<line x1="33.2" y1="0.0" x2="33.2" y2="10.3" />

<line x1="34.2" y1="0.0" x2="34.2" y2="-10.6" />
<line x1="34.7" y1="0.0" x2="34.7" y2="-10.9" />
<line x1="35.2" y1="0.0" x2="35.2" y2="-10.9" />

<line x1="36.2" y1="0.0" x2="36.2" y2="11.2" />
<line x1="36.7" y1="0.0" x2="36.7" y2="11.5" />
<line x1="37.2" y1="0.0" x2="37.2" y2="11.5" />

<line x1="38.1" y1="0.0" x2="38.1" y2="-11.8" />
<line x1="38.6" y1="0.0" x2="38.6" y2="-12.1" />
<line x1="39.1" y1="0.0" x2="39.1" y2="-12.1" />

<line x1="40.1" y1="0.0" x2="40.1" y2="12.4" />
<line x1="40.6" y1="0.0" x2="40.6" y2="12.7" />
<line x1="41.1" y1="0.0" x2="41.1" y2="12.7" />

<line x1="42.0" y1="0.0" x2="42.0" y2="-13.0" />
<line x1="42.5" y1="0.0" x2="42.5" y2="-13.3" />
<line x1="43.0" y1="0.0" x2="43.0" y2="-13.3" />

<line x1="44.0" y1="0.0" x2="44.0" y2="13.6" />
<line x1="44.5" y1="0.0" x2="44.5" y2="13.9" />
<line x1="45.0" y1="0.0" x2="45.0" y2="13.9" />

<line x1="46.0" y1="0.0" x2="46.0" y2="-14.2" />
<line x1="46.4" y1="0.0" x2="46.4" y2="-14.5" />
<line x1="46.9" y1="0.0" x2="46.9" y2="-14.5" />

<line x1="47.9" y1="0.0" x2="47.9" y2="14.8" />
<line x1="48.4" y1="0.0" x2="48.4" y2="15.1" />
<line x1="48.9" y1="0.0" x2="48.9" y2="15.1" />

<line x1="49.9" y1="0.0" x2="49.9" y2="-15.4" />
<line x1="50.4" y1="0.0" x2="50.4" y2="-15.7" />
<line x1="50.8" y1="0.0" x2="50.8" y2="-15.7" />

<line x1="51.8" y1="0.0" x2="51.8" y2="16.0" />
<line x1="52.3" y1="0.0" x2="52.3" y2="16.3" />
<line x1="52.8" y1="0.0" x2="52.8" y2="16.3" />

<line x1="53.8" y1="0.0" x2="53.8" y2="-16.6" />
</g>
</svg>