<svg xmlns="http://www.w3.org/2000/svg" width="100.0" height="100.0" viewBox="-5.000 -5.000 110.000 110.000">
<g fill="none" stroke="black" stroke-width="0.0050%" transform="translate(0, 100.0000) scale(100.0000, -100.0000)">
<line x1="0.000" y1="0.000" x2="1.000" y2="1.000" />
<line x1="0.000" y1="0.000" x2="1.000" y2="1.000" />
<line x1="0.020" y1="0.000" x2="0.980" y2="1.000" />
<line x1="0.000" y1="0.020" x2="1.000" y2="0.980" />
<line x1="0.040" y1="0.000" x2="0.960" y2="1.000" />
<line x1="0.000" y1="0.040" x2="1.000" y2="0.960" />
<line x1="0.060" y1="0.000" x2="0.940" y2="1.000" />
<line x1="0.000" y1="0.060" x2="1.000" y2="0.940" />
<line x1="0.080" y1="0.000" x2="0.920" y2="1.000" />
<line x1="0.000" y1="0.080" x2="1.000" y2="0.920" />
<line x1="0.100" y1="0.000" x2="0.900" y2="1.000" />
<line x1="0.000" y1="0.100" x2="1.000" y2="0.900" />
<line x1="0.120" y1="0.000" x2="0.880" y2="1.000" />
<line x1="0.000" y1="0.120" x2="1.000" y2="0.880" />
<line x1="0.140" y1="0.000" x2="0.860" y2="1.000" />
<line x1="0.000" y1="0.140" x2="1.000" y2="0.860" />
<line x1="0.160" y1="0.000" x2="0.840" y2="1.000" />
<line x1="0.000" y1="0.160" x2="1.000" y2="0.840" />
<line x1="0.180" y1="0.000" x2="0.820" y2="1.000" />
<line x1="0.000" y1="0.180" x2="1.000" y2="0.820" />
<line x1="0.200" y1="0.000" x2="0.800" y2="1.000" />
<line x1="0.000" y1="0.200" x2="1.000" y2="0.800" />
<line x1="0.220" y1="0.000" x2="0.780" y2="1.000" />
<line x1="0.000" y1="0.220" x2="1.000" y2="0.780" />
<line x1="0.240" y1="0.000" x2="0.760" y2="1.000" />
<line x1="0.000" y1="0.240" x2="1.000" y2="0.760" />
<line x1="0.260" y1="0.000" x2="0.740" y2="1.000" />
<line x1="0.000" y1="0.260" x2="1.000" y2="0.740" />
<line x1="0.280" y1="0.000" x2="0.720" y2="1.000" />
<line x1="0.000" y1="0.280" x2="1.000" y2="0.720" />
<line x1="0.300" y1="0.000" x2="0.700" y2="1.000" />
<line x1="0.000" y1="0.300" x2="1.000" y2="0.700" />
<line x1="0.320" y1="0.000" x2="0.680" y2="1.000" />
<line x1="0.000" y1="0.320" x2="1.000" y2="0.680" />
<line x1="0.340" y1="0.000" x2="0.660" y2="1.000" />
<line x1="0.000" y1="0.340" x2="1.000" y2="0.660" />
<line x1="0.360" y1="0.000" x2="0.640" y2="1.000" />
<line x1="0.000" y1="0.360" x2="1.000" y2="0.640" />
<line x1="0.380" y1="0.000" x2="0.620" y2="1.000" />
<line x1="0.000" y1="0.380" x2="1.000" y2="0.620" />
<line x1="0.400" y1="0.000" x2="0.600" y2="1.000" />
<line x1="0.000" y1="0.400" x2="1.000" y2="0.600" />
<line x1="0.420" y1="0.000" x2="0.580" y2="1.000" />
<line x1="0.000" y1="0.420" x2="1.000" y2="0.580" />
<line x1="0.440" y1="0.000" x2="0.560" y2="1.000" />
<line x1="0.000" y1="0.440" x2="1.000" y2="0.560" />
<line x1="0.460" y1="0.000" x2="0.540" y2="1.000" />
<line x1="0.000" y1="0.460" x2="1.000" y2="0.540" />
<line x1="0.480" y1="0.000" x2="0.520" y2="1.000" />
<line x1="0.000" y1="0.480" x2="1.000" y2="0.520" />
<line x1="0.500" y1="0.000" x2="0.500" y2="1.000" />
<line x1="0.000" y1="0.500" x2="1.000" y2="0.500" />
<line x1="0.520" y1="0.000" x2="0.480" y2="1.000" />
<line x1="0.000" y1="0.520" x2="1.000" y2="0.480" />
<line x1="0.540" y1="0.000" x2="0.460" y2="1.000" />
<line x1="0.000" y1="0.540" x2="1.000" y2="0.460" />
<line x1="0.560" y1="0.000" x2="0.440" y2="1.000" />
<line x1="0.000" y1="0.560" x2="1.000" y2="0.440" />
<line x1="0.580" y1="0.000" x2="0.420" y2="1.000" />
<line x1="0.000" y1="0.580" x2="1.000" y2="0.420" />
<line x1="0.600" y1="0.000" x2="0.400" y2="1.000" />
<line x1="0.000" y1="0.600" x2="1.000" y2="0.400" />
<line x1="0.620" y1="0.000" x2="0.380" y2="1.000" />
<line x1="0.000" y1="0.620" x2="1.000" y2="0.380" />
<line x1="0.640" y1="0.000" x2="0.360" y2="1.000" />
<line x1="0.000" y1="0.640" x2="1.000" y2="0.360" />
<line x1="0.660" y1="0.000" x2="0.340" y2="1.000" />
<line x1="0.000" y1="0.660" x2="1.000" y2="0.340" />
<line x1="0.680" y1="0.000" x2="0.320" y2="1.000" />
<line x1="0.000" y1="0.680" x2="1.000" y2="0.320" />
<line x1="0.700" y1="0.000" x2="0.300" y2="1.000" />
<line x1="0.000" y1="0.700" x2="1.000" y2="0.300" />
<line x1="0.720" y1="0.000" x2="0.280" y2="1.000" />
<line x1="0.000" y1="0.720" x2="1.000" y2="0.280" />
<line x1="0.740" y1="0.000" x2="0.260" y2="1.000" />
<line x1="0.000" y1="0.740" x2="1.000" y2="0.260" />
<line x1="0.760" y1="0.000" x2="0.240" y2="1.000" />
<line x1="0.000" y1="0.760" x2="1.000" y2="0.240" />
<line x1="0.780" y1="0.000" x2="0.220" y2="1.000" />
<line x1="0.000" y1="0.780" x2="1.000" y2="0.220" />
<line x1="0.800" y1="0.000" x2="0.200" y2="1.000" />
<line x1="0.000" y1="0.800" x2="1.000" y2="0.200" />
<line x1="0.820" y1="0.000" x2="0.180" y2="1.000" />
<line x1="0.000" y1="0.820" x2="1.000" y2="0.180" />
<line x1="0.840" y1="0.000" x2="0.160" y2="1.000" />
<line x1="0.000" y1="0.840" x2="1.000" y2="0.160" />
<line x1="0.860" y1="0.000" x2="0.140" y2="1.000" />
<line x1="0.000" y1="0.860" x2="1.000" y2="0.140" />
<line x1="0.880" y1="0.000" x2="0.120" y2="1.000" />
<line x1="0.000" y1="0.880" x2="1.000" y2="0.120" />
<line x1="0.900" y1="0.000" x2="0.100" y2="1.000" />
<line x1="0.000" y1="0.900" x2="1.000" y2="0.100" />
<line x1="0.920" y1="0.000" x2="0.080" y2="1.000" />
<line x1="0.000" y1="0.920" x2="1.000" y2="0.080" />
<line x1="0.940" y1="0.000" x2="0.060" y2="1.000" />
<line x1="0.000" y1="0.940" x2="1.000" y2="0.060" />
<line x1="0.960" y1="0.000" x2="0.040" y2="1.000" />
<line x1="0.000" y1="0.960" x2="1.000" y2="0.040" />
<line x1="0.980" y1="0.000" x2="0.020" y2="1.000" />
<line x1="0.000" y1="0.980" x2="1.000" y2="0.020" />
<line x1="1.000" y1="0.000" x2="0.000" y2="1.000" />
<line x1="0.000" y1="1.000" x2="1.000" y2="0.000" />
</g>
</svg>