<svg xmlns="http://www.w3.org/2000/svg" width="161.8" height="100.0" viewBox="-3.37 -56.95 171.80 110.00">
<g fill="none" stroke="black" stroke-width="0.0426%" transform="translate(0, -3.8909) scale(11.7413, -11.7413)">
<line x1="0.14" y1="0.00" x2="0.14" y2="0.52" />
<line x1="0.28" y1="0.00" x2="0.28" y2="0.52" />
<line x1="0.42" y1="0.00" x2="0.42" y2="0.52" />
<line x1="0.56" y1="0.00" x2="0.56" y2="0.52" />
<line x1="0.70" y1="0.00" x2="0.70" y2="0.52" />
<line x1="0.84" y1="0.00" x2="0.84" y2="0.52" />

<line x1="1.11" y1="0.00" x2="1.11" y2="0.52" />
<line x1="1.25" y1="0.00" x2="1.25" y2="0.52" />
<line x1="1.39" y1="0.00" x2="1.39" y2="0.52" />
<line x1="1.53" y1="0.00" x2="1.53" y2="0.52" />
<line x1="1.67" y1="0.00" x2="1.67" y2="0.52" />
<line x1="1.81" y1="0.00" x2="1.81" y2="0.52" />

<line x1="2.09" y1="0.00" x2="2.09" y2="-0.52" />
<line x1="2.23" y1="0.00" x2="2.23" y2="0.52" />
<line x1="2.37" y1="0.00" x2="2.37" y2="0.52" />
<line x1="2.51" y1="0.00" x2="2.51" y2="0.52" />
<line x1="2.64" y1="0.00" x2="2.64" y2="0.52" />
<line x1="2.78" y1="0.00" x2="2.78" y2="0.52" />
<line x1="2.92" y1="0.00" x2="2.92" y2="0.75" />
<line x1="3.06" y1="0.00" x2="3.06" y2="-0.52" />
<line x1="3.20" y1="0.00" x2="3.20" y2="-0.90" />
<line x1="3.34" y1="0.00" x2="3.34" y2="0.52" />
<line x1="3.48" y1="0.00" x2="3.48" y2="0.52" />
<line x1="3.62" y1="0.00" x2="3.62" y2="0.52" />
<line x1="3.76" y1="0.00" x2="3.76" y2="0.52" />
<line x1="3.90" y1="0.00" x2="3.90" y2="0.75" />
<line x1="4.04" y1="0.00" x2="4.04" y2="1.10" />
<line x1="4.18" y1="0.00" x2="4.18" y2="-0.90" />
<line x1="4.32" y1="0.00" x2="4.32" y2="-1.23" />
<line x1="4.45" y1="0.00" x2="4.45" y2="0.52" />
<line x1="4.59" y1="0.00" x2="4.59" y2="0.52" />
<line x1="4.73" y1="0.00" x2="4.73" y2="0.52" />

<line x1="5.01" y1="0.00" x2="5.01" y2="1.10" />
<line x1="5.15" y1="0.00" x2="5.15" y2="1.49" />
<line x1="5.29" y1="0.00" x2="5.29" y2="-1.23" />
<line x1="5.43" y1="0.00" x2="5.43" y2="-1.55" />
<line x1="5.57" y1="0.00" x2="5.57" y2="0.52" />
<line x1="5.71" y1="0.00" x2="5.71" y2="0.52" />

<line x1="5.99" y1="0.00" x2="5.99" y2="-1.10" />
<line x1="6.12" y1="0.00" x2="6.12" y2="1.49" />
<line x1="6.26" y1="0.00" x2="6.26" y2="1.89" />
<line x1="6.40" y1="0.00" x2="6.40" y2="-1.55" />
<line x1="6.54" y1="0.00" x2="6.54" y2="-1.86" />
<line x1="6.68" y1="0.00" x2="6.68" y2="0.52" />
<line x1="6.82" y1="0.00" x2="6.82" y2="0.75" />
<line x1="6.96" y1="0.00" x2="6.96" y2="-1.10" />
<line x1="7.10" y1="0.00" x2="7.10" y2="-1.73" />
<line x1="7.24" y1="0.00" x2="7.24" y2="1.89" />
<line x1="7.38" y1="0.00" x2="7.38" y2="2.27" />
<line x1="7.52" y1="0.00" x2="7.52" y2="-1.86" />
<line x1="7.66" y1="0.00" x2="7.66" y2="-2.16" />
<line x1="7.80" y1="0.00" x2="7.80" y2="0.75" />
<line x1="7.93" y1="0.00" x2="7.93" y2="1.34" />
<line x1="8.07" y1="0.00" x2="8.07" y2="-1.73" />
<line x1="8.21" y1="0.00" x2="8.21" y2="-2.26" />
<line x1="8.35" y1="0.00" x2="8.35" y2="2.27" />
<line x1="8.49" y1="0.00" x2="8.49" y2="2.65" />
<line x1="8.63" y1="0.00" x2="8.63" y2="-2.16" />
<line x1="8.77" y1="0.00" x2="8.77" y2="-2.47" />
<line x1="8.91" y1="0.00" x2="8.91" y2="1.34" />
<line x1="9.05" y1="0.00" x2="9.05" y2="1.98" />
<line x1="9.19" y1="0.00" x2="9.19" y2="-2.26" />
<line x1="9.33" y1="0.00" x2="9.33" y2="-2.74" />
<line x1="9.47" y1="0.00" x2="9.47" y2="2.65" />
<line x1="9.60" y1="0.00" x2="9.60" y2="3.01" />
<line x1="9.74" y1="0.00" x2="9.74" y2="-2.47" />
<line x1="9.88" y1="0.00" x2="9.88" y2="-2.79" />
<line x1="10.02" y1="0.00" x2="10.02" y2="1.98" />
<line x1="10.16" y1="0.00" x2="10.16" y2="2.57" />
<line x1="10.30" y1="0.00" x2="10.30" y2="-2.74" />
<line x1="10.44" y1="0.00" x2="10.44" y2="-3.19" />
<line x1="10.58" y1="0.00" x2="10.58" y2="3.01" />
<line x1="10.72" y1="0.00" x2="10.72" y2="3.37" />
<line x1="10.86" y1="0.00" x2="10.86" y2="-2.79" />
<line x1="11.00" y1="0.00" x2="11.00" y2="-3.12" />
<line x1="11.14" y1="0.00" x2="11.14" y2="2.57" />
<line x1="11.28" y1="0.00" x2="11.28" y2="3.11" />
<line x1="11.41" y1="0.00" x2="11.41" y2="-3.19" />
<line x1="11.55" y1="0.00" x2="11.55" y2="-3.62" />
<line x1="11.69" y1="0.00" x2="11.69" y2="3.37" />
<line x1="11.83" y1="0.00" x2="11.83" y2="3.73" />
<line x1="11.97" y1="0.00" x2="11.97" y2="-3.12" />
<line x1="12.11" y1="0.00" x2="12.11" y2="-3.48" />
<line x1="12.25" y1="0.00" x2="12.25" y2="3.11" />
<line x1="12.39" y1="0.00" x2="12.39" y2="3.62" />
<line x1="12.53" y1="0.00" x2="12.53" y2="-3.62" />
<line x1="12.67" y1="0.00" x2="12.67" y2="-4.03" />
<line x1="12.81" y1="0.00" x2="12.81" y2="3.73" />
<line x1="12.95" y1="0.00" x2="12.95" y2="4.08" />
<line x1="13.08" y1="0.00" x2="13.08" y2="-3.48" />
<line x1="13.22" y1="0.00" x2="13.22" y2="-3.86" />
<line x1="13.36" y1="0.00" x2="13.36" y2="3.62" />
<line x1="13.50" y1="0.00" x2="13.50" y2="4.09" />
<line x1="13.64" y1="0.00" x2="13.64" y2="-4.03" />
<line x1="13.78" y1="0.00" x2="13.78" y2="-4.42" />
<line x1="13.92" y1="0.00" x2="13.92" y2="4.08" />
</g>
</svg>