<svg xmlns="http://www.w3.org/2000/svg" width="98.5" height="100.0" viewBox="-52.709 -55.000 108.481 110.000">
<g fill="none" stroke="black" stroke-width="0.0098%" transform="translate(0, 0.0000) scale(50.7713, -50.7713)">
<line x1="1.000" y1="0.000" x2="1.000" y2="0.000" />
<line x1="1.000" y1="0.000" x2="0.766" y2="0.643" />
<line x1="1.000" y1="0.000" x2="0.174" y2="0.985" />
<line x1="1.000" y1="0.000" x2="-0.500" y2="0.866" />
<line x1="1.000" y1="0.000" x2="-0.940" y2="0.342" />
<line x1="1.000" y1="0.000" x2="-0.940" y2="-0.342" />
<line x1="1.000" y1="0.000" x2="-0.500" y2="-0.866" />
<line x1="1.000" y1="0.000" x2="0.174" y2="-0.985" />
<line x1="1.000" y1="0.000" x2="0.766" y2="-0.643" />
<line x1="0.766" y1="0.643" x2="1.000" y2="0.000" />
<line x1="0.766" y1="0.643" x2="0.766" y2="0.643" />
<line x1="0.766" y1="0.643" x2="0.174" y2="0.985" />
<line x1="0.766" y1="0.643" x2="-0.500" y2="0.866" />
<line x1="0.766" y1="0.643" x2="-0.940" y2="0.342" />
<line x1="0.766" y1="0.643" x2="-0.940" y2="-0.342" />
<line x1="0.766" y1="0.643" x2="-0.500" y2="-0.866" />
<line x1="0.766" y1="0.643" x2="0.174" y2="-0.985" />
<line x1="0.766" y1="0.643" x2="0.766" y2="-0.643" />
<line x1="0.174" y1="0.985" x2="1.000" y2="0.000" />
<line x1="0.174" y1="0.985" x2="0.766" y2="0.643" />
<line x1="0.174" y1="0.985" x2="0.174" y2="0.985" />
<line x1="0.174" y1="0.985" x2="-0.500" y2="0.866" />
<line x1="0.174" y1="0.985" x2="-0.940" y2="0.342" />
<line x1="0.174" y1="0.985" x2="-0.940" y2="-0.342" />
<line x1="0.174" y1="0.985" x2="-0.500" y2="-0.866" />
<line x1="0.174" y1="0.985" x2="0.174" y2="-0.985" />
<line x1="0.174" y1="0.985" x2="0.766" y2="-0.643" />
<line x1="-0.500" y1="0.866" x2="1.000" y2="0.000" />
<line x1="-0.500" y1="0.866" x2="0.766" y2="0.643" />
<line x1="-0.500" y1="0.866" x2="0.174" y2="0.985" />
<line x1="-0.500" y1="0.866" x2="-0.500" y2="0.866" />
<line x1="-0.500" y1="0.866" x2="-0.940" y2="0.342" />
<line x1="-0.500" y1="0.866" x2="-0.940" y2="-0.342" />
<line x1="-0.500" y1="0.866" x2="-0.500" y2="-0.866" />
<line x1="-0.500" y1="0.866" x2="0.174" y2="-0.985" />
<line x1="-0.500" y1="0.866" x2="0.766" y2="-0.643" />
<line x1="-0.940" y1="0.342" x2="1.000" y2="0.000" />
<line x1="-0.940" y1="0.342" x2="0.766" y2="0.643" />
<line x1="-0.940" y1="0.342" x2="0.174" y2="0.985" />
<line x1="-0.940" y1="0.342" x2="-0.500" y2="0.866" />
<line x1="-0.940" y1="0.342" x2="-0.940" y2="0.342" />
<line x1="-0.940" y1="0.342" x2="-0.940" y2="-0.342" />
<line x1="-0.940" y1="0.342" x2="-0.500" y2="-0.866" />
<line x1="-0.940" y1="0.342" x2="0.174" y2="-0.985" />
<line x1="-0.940" y1="0.342" x2="0.766" y2="-0.643" />
<line x1="-0.940" y1="-0.342" x2="1.000" y2="0.000" />
<line x1="-0.940" y1="-0.342" x2="0.766" y2="0.643" />
<line x1="-0.940" y1="-0.342" x2="0.174" y2="0.985" />
<line x1="-0.940" y1="-0.342" x2="-0.500" y2="0.866" />
<line x1="-0.940" y1="-0.342" x2="-0.940" y2="0.342" />
<line x1="-0.940" y1="-0.342" x2="-0.940" y2="-0.342" />
<line x1="-0.940" y1="-0.342" x2="-0.500" y2="-0.866" />
<line x1="-0.940" y1="-0.342" x2="0.174" y2="-0.985" />
<line x1="-0.940" y1="-0.342" x2="0.766" y2="-0.643" />
<line x1="-0.500" y1="-0.866" x2="1.000" y2="0.000" />
<line x1="-0.500" y1="-0.866" x2="0.766" y2="0.643" />
<line x1="-0.500" y1="-0.866" x2="0.174" y2="0.985" />
<line x1="-0.500" y1="-0.866" x2="-0.500" y2="0.866" />
<line x1="-0.500" y1="-0.866" x2="-0.940" y2="0.342" />
<line x1="-0.500" y1="-0.866" x2="-0.940" y2="-0.342" />
<line x1="-0.500" y1="-0.866" x2="-0.500" y2="-0.866" />
<line x1="-0.500" y1="-0.866" x2="0.174" y2="-0.985" />
<line x1="-0.500" y1="-0.866" x2="0.766" y2="-0.643" />
<line x1="0.174" y1="-0.985" x2="1.000" y2="0.000" />
<line x1="0.174" y1="-0.985" x2="0.766" y2="0.643" />
<line x1="0.174" y1="-0.985" x2="0.174" y2="0.985" />
<line x1="0.174" y1="-0.985" x2="-0.500" y2="0.866" />
<line x1="0.174" y1="-0.985" x2="-0.940" y2="0.342" />
<line x1="0.174" y1="-0.985" x2="-0.940" y2="-0.342" />
<line x1="0.174" y1="-0.985" x2="-0.500" y2="-0.866" />
<line x1="0.174" y1="-0.985" x2="0.174" y2="-0.985" />
<line x1="0.174" y1="-0.985" x2="0.766" y2="-0.643" />
<line x1="0.766" y1="-0.643" x2="1.000" y2="0.000" />
<line x1="0.766" y1="-0.643" x2="0.766" y2="0.643" />
<line x1="0.766" y1="-0.643" x2="0.174" y2="0.985" />
<line x1="0.766" y1="-0.643" x2="-0.500" y2="0.866" />
<line x1="0.766" y1="-0.643" x2="-0.940" y2="0.342" />
<line x1="0.766" y1="-0.643" x2="-0.940" y2="-0.342" />
<line x1="0.766" y1="-0.643" x2="-0.500" y2="-0.866" />
<line x1="0.766" y1="-0.643" x2="0.174" y2="-0.985" />
<line x1="0.766" y1="-0.643" x2="0.766" y2="-0.643" />
</g>
</svg>