<svg xmlns="http://www.w3.org/2000/svg" width="100.00" height="100.00" viewBox="-13.33 -13.33 110.00 110.00">
<g fill="none" stroke="black" stroke-width="0.06%" transform="translate(0, 83.33) scale(8.33, -8.33)">
<line x1="0.00" y1="0.00" x2="-1.00" y2="-1.00" />
<line x1="0.00" y1="1.00" x2="-0.80" y2="0.00" />
<line x1="0.00" y1="2.00" x2="-0.60" y2="1.00" />
<line x1="0.00" y1="3.00" x2="-0.40" y2="2.00" />
<line x1="0.00" y1="4.00" x2="-0.20" y2="3.00" />
<line x1="0.00" y1="5.00" x2="0.00" y2="4.00" />
<line x1="0.00" y1="6.00" x2="0.20" y2="5.00" />
<line x1="0.00" y1="7.00" x2="0.40" y2="6.00" />
<line x1="0.00" y1="8.00" x2="0.60" y2="7.00" />
<line x1="0.00" y1="9.00" x2="0.80" y2="8.00" />
<line x1="0.00" y1="10.00" x2="1.00" y2="9.00" />
<line x1="1.00" y1="0.00" x2="0.00" y2="-0.80" />
<line x1="1.00" y1="1.00" x2="0.20" y2="0.20" />
<line x1="1.00" y1="2.00" x2="0.40" y2="1.20" />
<line x1="1.00" y1="3.00" x2="0.60" y2="2.20" />
<line x1="1.00" y1="4.00" x2="0.80" y2="3.20" />
<line x1="1.00" y1="5.00" x2="1.00" y2="4.20" />
<line x1="1.00" y1="6.00" x2="1.20" y2="5.20" />
<line x1="1.00" y1="7.00" x2="1.40" y2="6.20" />
<line x1="1.00" y1="8.00" x2="1.60" y2="7.20" />
<line x1="1.00" y1="9.00" x2="1.80" y2="8.20" />
<line x1="1.00" y1="10.00" x2="2.00" y2="9.20" />
<line x1="2.00" y1="0.00" x2="1.00" y2="-0.60" />
<line x1="2.00" y1="1.00" x2="1.20" y2="0.40" />
<line x1="2.00" y1="2.00" x2="1.40" y2="1.40" />
<line x1="2.00" y1="3.00" x2="1.60" y2="2.40" />
<line x1="2.00" y1="4.00" x2="1.80" y2="3.40" />
<line x1="2.00" y1="5.00" x2="2.00" y2="4.40" />
<line x1="2.00" y1="6.00" x2="2.20" y2="5.40" />
<line x1="2.00" y1="7.00" x2="2.40" y2="6.40" />
<line x1="2.00" y1="8.00" x2="2.60" y2="7.40" />
<line x1="2.00" y1="9.00" x2="2.80" y2="8.40" />
<line x1="2.00" y1="10.00" x2="3.00" y2="9.40" />
<line x1="3.00" y1="0.00" x2="2.00" y2="-0.40" />
<line x1="3.00" y1="1.00" x2="2.20" y2="0.60" />
<line x1="3.00" y1="2.00" x2="2.40" y2="1.60" />
<line x1="3.00" y1="3.00" x2="2.60" y2="2.60" />
<line x1="3.00" y1="4.00" x2="2.80" y2="3.60" />
<line x1="3.00" y1="5.00" x2="3.00" y2="4.60" />
<line x1="3.00" y1="6.00" x2="3.20" y2="5.60" />
<line x1="3.00" y1="7.00" x2="3.40" y2="6.60" />
<line x1="3.00" y1="8.00" x2="3.60" y2="7.60" />
<line x1="3.00" y1="9.00" x2="3.80" y2="8.60" />
<line x1="3.00" y1="10.00" x2="4.00" y2="9.60" />
<line x1="4.00" y1="0.00" x2="3.00" y2="-0.20" />
<line x1="4.00" y1="1.00" x2="3.20" y2="0.80" />
<line x1="4.00" y1="2.00" x2="3.40" y2="1.80" />
<line x1="4.00" y1="3.00" x2="3.60" y2="2.80" />
<line x1="4.00" y1="4.00" x2="3.80" y2="3.80" />
<line x1="4.00" y1="5.00" x2="4.00" y2="4.80" />
<line x1="4.00" y1="6.00" x2="4.20" y2="5.80" />
<line x1="4.00" y1="7.00" x2="4.40" y2="6.80" />
<line x1="4.00" y1="8.00" x2="4.60" y2="7.80" />
<line x1="4.00" y1="9.00" x2="4.80" y2="8.80" />
<line x1="4.00" y1="10.00" x2="5.00" y2="9.80" />
<line x1="5.00" y1="0.00" x2="4.00" y2="0.00" />
<line x1="5.00" y1="1.00" x2="4.20" y2="1.00" />
<line x1="5.00" y1="2.00" x2="4.40" y2="2.00" />
<line x1="5.00" y1="3.00" x2="4.60" y2="3.00" />
<line x1="5.00" y1="4.00" x2="4.80" y2="4.00" />
<line x1="5.00" y1="5.00" x2="5.00" y2="5.00" />
<line x1="5.00" y1="6.00" x2="5.20" y2="6.00" />
<line x1="5.00" y1="7.00" x2="5.40" y2="7.00" />
<line x1="5.00" y1="8.00" x2="5.60" y2="8.00" />
<line x1="5.00" y1="9.00" x2="5.80" y2="9.00" />
<line x1="5.00" y1="10.00" x2="6.00" y2="10.00" />
<line x1="6.00" y1="0.00" x2="5.00" y2="0.20" />
<line x1="6.00" y1="1.00" x2="5.20" y2="1.20" />
<line x1="6.00" y1="2.00" x2="5.40" y2="2.20" />
<line x1="6.00" y1="3.00" x2="5.60" y2="3.20" />
<line x1="6.00" y1="4.00" x2="5.80" y2="4.20" />
<line x1="6.00" y1="5.00" x2="6.00" y2="5.20" />
<line x1="6.00" y1="6.00" x2="6.20" y2="6.20" />
<line x1="6.00" y1="7.00" x2="6.40" y2="7.20" />
<line x1="6.00" y1="8.00" x2="6.60" y2="8.20" />
<line x1="6.00" y1="9.00" x2="6.80" y2="9.20" />
<line x1="6.00" y1="10.00" x2="7.00" y2="10.20" />
<line x1="7.00" y1="0.00" x2="6.00" y2="0.40" />
<line x1="7.00" y1="1.00" x2="6.20" y2="1.40" />
<line x1="7.00" y1="2.00" x2="6.40" y2="2.40" />
<line x1="7.00" y1="3.00" x2="6.60" y2="3.40" />
<line x1="7.00" y1="4.00" x2="6.80" y2="4.40" />
<line x1="7.00" y1="5.00" x2="7.00" y2="5.40" />
<line x1="7.00" y1="6.00" x2="7.20" y2="6.40" />
<line x1="7.00" y1="7.00" x2="7.40" y2="7.40" />
<line x1="7.00" y1="8.00" x2="7.60" y2="8.40" />
<line x1="7.00" y1="9.00" x2="7.80" y2="9.40" />
<line x1="7.00" y1="10.00" x2="8.00" y2="10.40" />
<line x1="8.00" y1="0.00" x2="7.00" y2="0.60" />
<line x1="8.00" y1="1.00" x2="7.20" y2="1.60" />
<line x1="8.00" y1="2.00" x2="7.40" y2="2.60" />
<line x1="8.00" y1="3.00" x2="7.60" y2="3.60" />
<line x1="8.00" y1="4.00" x2="7.80" y2="4.60" />
<line x1="8.00" y1="5.00" x2="8.00" y2="5.60" />
<line x1="8.00" y1="6.00" x2="8.20" y2="6.60" />
<line x1="8.00" y1="7.00" x2="8.40" y2="7.60" />
<line x1="8.00" y1="8.00" x2="8.60" y2="8.60" />
<line x1="8.00" y1="9.00" x2="8.80" y2="9.60" />
<line x1="8.00" y1="10.00" x2="9.00" y2="10.60" />
<line x1="9.00" y1="0.00" x2="8.00" y2="0.80" />
<line x1="9.00" y1="1.00" x2="8.20" y2="1.80" />
<line x1="9.00" y1="2.00" x2="8.40" y2="2.80" />
<line x1="9.00" y1="3.00" x2="8.60" y2="3.80" />
<line x1="9.00" y1="4.00" x2="8.80" y2="4.80" />
<line x1="9.00" y1="5.00" x2="9.00" y2="5.80" />
<line x1="9.00" y1="6.00" x2="9.20" y2="6.80" />
<line x1="9.00" y1="7.00" x2="9.40" y2="7.80" />
<line x1="9.00" y1="8.00" x2="9.60" y2="8.80" />
<line x1="9.00" y1="9.00" x2="9.80" y2="9.80" />
<line x1="9.00" y1="10.00" x2="10.00" y2="10.80" />
<line x1="10.00" y1="0.00" x2="9.00" y2="1.00" />
<line x1="10.00" y1="1.00" x2="9.20" y2="2.00" />
<line x1="10.00" y1="2.00" x2="9.40" y2="3.00" />
<line x1="10.00" y1="3.00" x2="9.60" y2="4.00" />
<line x1="10.00" y1="4.00" x2="9.80" y2="5.00" />
<line x1="10.00" y1="5.00" x2="10.00" y2="6.00" />
<line x1="10.00" y1="6.00" x2="10.20" y2="7.00" />
<line x1="10.00" y1="7.00" x2="10.40" y2="8.00" />
<line x1="10.00" y1="8.00" x2="10.60" y2="9.00" />
<line x1="10.00" y1="9.00" x2="10.80" y2="10.00" />
<line x1="10.00" y1="10.00" x2="11.00" y2="11.00" />
</g>
</svg>
