<svg xmlns="http://www.w3.org/2000/svg" width="161.8" height="100.0" viewBox="-2.390 -55.143 171.803 110.000">
<g fill="none" stroke="black" stroke-width="0.0099%" transform="translate(0, -0.2850) scale(50.3036, -50.3036)">
<circle cx="0.052" cy="0.000" r="0.010" />
<line x1="0.052" y1="0.000" x2="0.052" y2="0.000" />
<line x1="0.104" y1="0.000" x2="0.104" y2="0.099" />
<line x1="0.156" y1="0.000" x2="0.156" y2="0.198" />
<line x1="0.208" y1="0.000" x2="0.208" y2="0.294" />
<line x1="0.259" y1="0.000" x2="0.259" y2="0.388" />
<line x1="0.311" y1="0.000" x2="0.311" y2="0.477" />
<line x1="0.363" y1="0.000" x2="0.363" y2="0.560" />
<line x1="0.415" y1="0.000" x2="0.415" y2="0.642" />
<line x1="0.467" y1="0.000" x2="0.467" y2="0.713" />
<line x1="0.519" y1="0.000" x2="0.519" y2="0.780" />
<line x1="0.571" y1="0.000" x2="0.571" y2="0.837" />
<line x1="0.623" y1="0.000" x2="0.623" y2="0.890" />
<line x1="0.674" y1="0.000" x2="0.674" y2="0.931" />
<line x1="0.726" y1="0.000" x2="0.726" y2="0.961" />
<line x1="0.778" y1="0.000" x2="0.778" y2="0.985" />
<line x1="0.830" y1="0.000" x2="0.830" y2="0.987" />
<line x1="0.882" y1="0.000" x2="0.882" y2="0.989" />
<line x1="0.934" y1="0.000" x2="0.934" y2="0.991" />
<line x1="0.986" y1="0.000" x2="0.986" y2="0.975" />
<line x1="1.038" y1="0.000" x2="1.038" y2="0.947" />
<line x1="1.089" y1="0.000" x2="1.089" y2="0.904" />
<line x1="1.141" y1="0.000" x2="1.141" y2="0.856" />
<line x1="1.193" y1="0.000" x2="1.193" y2="0.808" />
<line x1="1.245" y1="0.000" x2="1.245" y2="0.747" />
<line x1="1.297" y1="0.000" x2="1.297" y2="0.679" />
<line x1="1.349" y1="0.000" x2="1.349" y2="0.603" />
<line x1="1.401" y1="0.000" x2="1.401" y2="0.521" />
<line x1="1.453" y1="0.000" x2="1.453" y2="0.431" />
<line x1="1.505" y1="0.000" x2="1.505" y2="0.339" />
<line x1="1.556" y1="0.000" x2="1.556" y2="0.247" />
<line x1="1.608" y1="0.000" x2="1.608" y2="0.149" />
<line x1="1.660" y1="0.000" x2="1.660" y2="0.050" />
<line x1="1.712" y1="0.000" x2="1.712" y2="-0.050" />
<line x1="1.764" y1="0.000" x2="1.764" y2="-0.149" />
<line x1="1.816" y1="0.000" x2="1.816" y2="-0.247" />
<line x1="1.868" y1="0.000" x2="1.868" y2="-0.340" />
<line x1="1.920" y1="0.000" x2="1.920" y2="-0.433" />
<line x1="1.971" y1="0.000" x2="1.971" y2="-0.516" />
<line x1="2.023" y1="0.000" x2="2.023" y2="-0.597" />
<line x1="2.075" y1="0.000" x2="2.075" y2="-0.677" />
<line x1="2.127" y1="0.000" x2="2.127" y2="-0.750" />
<line x1="2.179" y1="0.000" x2="2.179" y2="-0.811" />
<line x1="2.231" y1="0.000" x2="2.231" y2="-0.862" />
<line x1="2.283" y1="0.000" x2="2.283" y2="-0.907" />
<line x1="2.335" y1="0.000" x2="2.335" y2="-0.946" />
<line x1="2.386" y1="0.000" x2="2.386" y2="-0.974" />
<line x1="2.438" y1="0.000" x2="2.438" y2="-0.991" />
<line x1="2.490" y1="0.000" x2="2.490" y2="-0.997" />
<line x1="2.542" y1="0.000" x2="2.542" y2="-0.997" />
<line x1="2.594" y1="0.000" x2="2.594" y2="-0.984" />
<line x1="2.646" y1="0.000" x2="2.646" y2="-0.957" />
<line x1="2.698" y1="0.000" x2="2.698" y2="-0.931" />
<line x1="2.750" y1="0.000" x2="2.750" y2="-0.890" />
<line x1="2.801" y1="0.000" x2="2.801" y2="-0.836" />
<line x1="2.853" y1="0.000" x2="2.853" y2="-0.782" />
<line x1="2.905" y1="0.000" x2="2.905" y2="-0.716" />
<line x1="2.957" y1="0.000" x2="2.957" y2="-0.643" />
<line x1="3.009" y1="0.000" x2="3.009" y2="-0.563" />
<line x1="3.061" y1="0.000" x2="3.061" y2="-0.477" />
<line x1="3.113" y1="0.000" x2="3.113" y2="-0.388" />
<line x1="3.165" y1="0.000" x2="3.165" y2="-0.294" />
<line x1="3.217" y1="0.000" x2="3.217" y2="-0.198" />
<line x1="3.268" y1="0.000" x2="3.268" y2="-0.100" />
</g>
</svg>