<svg xmlns="http://www.w3.org/2000/svg" width="161.8" height="100.0" viewBox="-3.382 7.513 171.803 110.000">
<g fill="none" stroke="black" stroke-width="0.0044%" transform="translate(0, 125.0262) scale(112.6180, -112.6180)">
<polyline points="0.014,0.113 0.029,0.115 0.043,0.118 0.057,0.122 0.072,0.127 0.086,0.133 0.101,0.140 0.115,0.149 0.129,0.159 0.144,0.172 0.158,0.187 0.172,0.205 0.187,0.228 0.201,0.255 0.216,0.288 0.230,0.329 0.244,0.379 0.259,0.441 0.273,0.516 0.287,0.606 0.302,0.708 0.316,0.815 0.330,0.913 0.345,0.981 0.359,0.999 0.374,0.962 0.388,0.880 0.402,0.777 0.417,0.670 0.431,0.572 0.445,0.488 0.460,0.418 0.474,0.360 0.488,0.313 0.503,0.275 0.517,0.244 0.532,0.219 0.546,0.198 0.560,0.181 0.575,0.167 0.589,0.155 0.603,0.145 0.618,0.137 0.632,0.130 0.647,0.125 0.661,0.120 0.675,0.117 0.690,0.114 0.704,0.113 0.718,0.111 0.733,0.111 0.747,0.111 0.761,0.113 0.776,0.114 0.790,0.117 0.805,0.120 0.819,0.125 0.833,0.130 0.848,0.137 0.862,0.145 0.876,0.155 0.891,0.167 0.905,0.181 0.920,0.198 0.934,0.219 0.948,0.244 0.963,0.275 0.977,0.313 0.991,0.360 1.006,0.418 1.020,0.488 1.034,0.572 1.049,0.670 1.063,0.777 1.078,0.880 1.092,0.962 1.106,0.999 1.121,0.981 1.135,0.913 1.149,0.815 1.164,0.708 1.178,0.606 1.192,0.516 1.207,0.441 1.221,0.379 1.236,0.329 1.250,0.288 1.264,0.255 1.279,0.228 1.293,0.205 1.307,0.187 1.322,0.172 1.336,0.159 1.351,0.149 1.365,0.140 1.379,0.133 1.394,0.127 1.408,0.122 1.422,0.118 1.437,0.115 1.451,0.113" />
</g>
</svg>