<svg xmlns="http://www.w3.org/2000/svg" width="98.98" height="100.00" viewBox="-53.47 -55.00 108.98 110.00">
<g fill="none" stroke="black" stroke-width="0.005%" transform="translate(0, 0.00) scale(50.51, -50.51)">
<line x1="1.00" y1="0.00" x2="1.00" y2="0.00" />
<line x1="1.00" y1="0.00" x2="0.84" y2="0.54" />
<line x1="1.00" y1="0.00" x2="0.42" y2="0.91" />
<line x1="1.00" y1="0.00" x2="-0.14" y2="0.99" />
<line x1="1.00" y1="0.00" x2="-0.65" y2="0.76" />
<line x1="1.00" y1="0.00" x2="-0.96" y2="0.28" />
<line x1="1.00" y1="0.00" x2="-0.96" y2="-0.28" />
<line x1="1.00" y1="0.00" x2="-0.65" y2="-0.76" />
<line x1="1.00" y1="0.00" x2="-0.14" y2="-0.99" />
<line x1="1.00" y1="0.00" x2="0.42" y2="-0.91" />
<line x1="1.00" y1="0.00" x2="0.84" y2="-0.54" />
<line x1="1.00" y1="0.00" x2="1.00" y2="-0.00" />
<line x1="0.84" y1="0.54" x2="1.00" y2="0.00" />
<line x1="0.84" y1="0.54" x2="0.84" y2="0.54" />
<line x1="0.84" y1="0.54" x2="0.42" y2="0.91" />
<line x1="0.84" y1="0.54" x2="-0.14" y2="0.99" />
<line x1="0.84" y1="0.54" x2="-0.65" y2="0.76" />
<line x1="0.84" y1="0.54" x2="-0.96" y2="0.28" />
<line x1="0.84" y1="0.54" x2="-0.96" y2="-0.28" />
<line x1="0.84" y1="0.54" x2="-0.65" y2="-0.76" />
<line x1="0.84" y1="0.54" x2="-0.14" y2="-0.99" />
<line x1="0.84" y1="0.54" x2="0.42" y2="-0.91" />
<line x1="0.84" y1="0.54" x2="0.84" y2="-0.54" />
<line x1="0.84" y1="0.54" x2="1.00" y2="-0.00" />
<line x1="0.42" y1="0.91" x2="1.00" y2="0.00" />
<line x1="0.42" y1="0.91" x2="0.84" y2="0.54" />
<line x1="0.42" y1="0.91" x2="0.42" y2="0.91" />
<line x1="0.42" y1="0.91" x2="-0.14" y2="0.99" />
<line x1="0.42" y1="0.91" x2="-0.65" y2="0.76" />
<line x1="0.42" y1="0.91" x2="-0.96" y2="0.28" />
<line x1="0.42" y1="0.91" x2="-0.96" y2="-0.28" />
<line x1="0.42" y1="0.91" x2="-0.65" y2="-0.76" />
<line x1="0.42" y1="0.91" x2="-0.14" y2="-0.99" />
<line x1="0.42" y1="0.91" x2="0.42" y2="-0.91" />
<line x1="0.42" y1="0.91" x2="0.84" y2="-0.54" />
<line x1="0.42" y1="0.91" x2="1.00" y2="-0.00" />
<line x1="-0.14" y1="0.99" x2="1.00" y2="0.00" />
<line x1="-0.14" y1="0.99" x2="0.84" y2="0.54" />
<line x1="-0.14" y1="0.99" x2="0.42" y2="0.91" />
<line x1="-0.14" y1="0.99" x2="-0.14" y2="0.99" />
<line x1="-0.14" y1="0.99" x2="-0.65" y2="0.76" />
<line x1="-0.14" y1="0.99" x2="-0.96" y2="0.28" />
<line x1="-0.14" y1="0.99" x2="-0.96" y2="-0.28" />
<line x1="-0.14" y1="0.99" x2="-0.65" y2="-0.76" />
<line x1="-0.14" y1="0.99" x2="-0.14" y2="-0.99" />
<line x1="-0.14" y1="0.99" x2="0.42" y2="-0.91" />
<line x1="-0.14" y1="0.99" x2="0.84" y2="-0.54" />
<line x1="-0.14" y1="0.99" x2="1.00" y2="-0.00" />
<line x1="-0.65" y1="0.76" x2="1.00" y2="0.00" />
<line x1="-0.65" y1="0.76" x2="0.84" y2="0.54" />
<line x1="-0.65" y1="0.76" x2="0.42" y2="0.91" />
<line x1="-0.65" y1="0.76" x2="-0.14" y2="0.99" />
<line x1="-0.65" y1="0.76" x2="-0.65" y2="0.76" />
<line x1="-0.65" y1="0.76" x2="-0.96" y2="0.28" />
<line x1="-0.65" y1="0.76" x2="-0.96" y2="-0.28" />
<line x1="-0.65" y1="0.76" x2="-0.65" y2="-0.76" />
<line x1="-0.65" y1="0.76" x2="-0.14" y2="-0.99" />
<line x1="-0.65" y1="0.76" x2="0.42" y2="-0.91" />
<line x1="-0.65" y1="0.76" x2="0.84" y2="-0.54" />
<line x1="-0.65" y1="0.76" x2="1.00" y2="-0.00" />
<line x1="-0.96" y1="0.28" x2="1.00" y2="0.00" />
<line x1="-0.96" y1="0.28" x2="0.84" y2="0.54" />
<line x1="-0.96" y1="0.28" x2="0.42" y2="0.91" />
<line x1="-0.96" y1="0.28" x2="-0.14" y2="0.99" />
<line x1="-0.96" y1="0.28" x2="-0.65" y2="0.76" />
<line x1="-0.96" y1="0.28" x2="-0.96" y2="0.28" />
<line x1="-0.96" y1="0.28" x2="-0.96" y2="-0.28" />
<line x1="-0.96" y1="0.28" x2="-0.65" y2="-0.76" />
<line x1="-0.96" y1="0.28" x2="-0.14" y2="-0.99" />
<line x1="-0.96" y1="0.28" x2="0.42" y2="-0.91" />
<line x1="-0.96" y1="0.28" x2="0.84" y2="-0.54" />
<line x1="-0.96" y1="0.28" x2="1.00" y2="-0.00" />
<line x1="-0.96" y1="-0.28" x2="1.00" y2="0.00" />
<line x1="-0.96" y1="-0.28" x2="0.84" y2="0.54" />
<line x1="-0.96" y1="-0.28" x2="0.42" y2="0.91" />
<line x1="-0.96" y1="-0.28" x2="-0.14" y2="0.99" />
<line x1="-0.96" y1="-0.28" x2="-0.65" y2="0.76" />
<line x1="-0.96" y1="-0.28" x2="-0.96" y2="0.28" />
<line x1="-0.96" y1="-0.28" x2="-0.96" y2="-0.28" />
<line x1="-0.96" y1="-0.28" x2="-0.65" y2="-0.76" />
<line x1="-0.96" y1="-0.28" x2="-0.14" y2="-0.99" />
<line x1="-0.96" y1="-0.28" x2="0.42" y2="-0.91" />
<line x1="-0.96" y1="-0.28" x2="0.84" y2="-0.54" />
<line x1="-0.96" y1="-0.28" x2="1.00" y2="-0.00" />
<line x1="-0.65" y1="-0.76" x2="1.00" y2="0.00" />
<line x1="-0.65" y1="-0.76" x2="0.84" y2="0.54" />
<line x1="-0.65" y1="-0.76" x2="0.42" y2="0.91" />
<line x1="-0.65" y1="-0.76" x2="-0.14" y2="0.99" />
<line x1="-0.65" y1="-0.76" x2="-0.65" y2="0.76" />
<line x1="-0.65" y1="-0.76" x2="-0.96" y2="0.28" />
<line x1="-0.65" y1="-0.76" x2="-0.96" y2="-0.28" />
<line x1="-0.65" y1="-0.76" x2="-0.65" y2="-0.76" />
<line x1="-0.65" y1="-0.76" x2="-0.14" y2="-0.99" />
<line x1="-0.65" y1="-0.76" x2="0.42" y2="-0.91" />
<line x1="-0.65" y1="-0.76" x2="0.84" y2="-0.54" />
<line x1="-0.65" y1="-0.76" x2="1.00" y2="-0.00" />
<line x1="-0.14" y1="-0.99" x2="1.00" y2="0.00" />
<line x1="-0.14" y1="-0.99" x2="0.84" y2="0.54" />
<line x1="-0.14" y1="-0.99" x2="0.42" y2="0.91" />
<line x1="-0.14" y1="-0.99" x2="-0.14" y2="0.99" />
<line x1="-0.14" y1="-0.99" x2="-0.65" y2="0.76" />
<line x1="-0.14" y1="-0.99" x2="-0.96" y2="0.28" />
<line x1="-0.14" y1="-0.99" x2="-0.96" y2="-0.28" />
<line x1="-0.14" y1="-0.99" x2="-0.65" y2="-0.76" />
<line x1="-0.14" y1="-0.99" x2="-0.14" y2="-0.99" />
<line x1="-0.14" y1="-0.99" x2="0.42" y2="-0.91" />
<line x1="-0.14" y1="-0.99" x2="0.84" y2="-0.54" />
<line x1="-0.14" y1="-0.99" x2="1.00" y2="-0.00" />
<line x1="0.42" y1="-0.91" x2="1.00" y2="0.00" />
<line x1="0.42" y1="-0.91" x2="0.84" y2="0.54" />
<line x1="0.42" y1="-0.91" x2="0.42" y2="0.91" />
<line x1="0.42" y1="-0.91" x2="-0.14" y2="0.99" />
<line x1="0.42" y1="-0.91" x2="-0.65" y2="0.76" />
<line x1="0.42" y1="-0.91" x2="-0.96" y2="0.28" />
<line x1="0.42" y1="-0.91" x2="-0.96" y2="-0.28" />
<line x1="0.42" y1="-0.91" x2="-0.65" y2="-0.76" />
<line x1="0.42" y1="-0.91" x2="-0.14" y2="-0.99" />
<line x1="0.42" y1="-0.91" x2="0.42" y2="-0.91" />
<line x1="0.42" y1="-0.91" x2="0.84" y2="-0.54" />
<line x1="0.42" y1="-0.91" x2="1.00" y2="-0.00" />
<line x1="0.84" y1="-0.54" x2="1.00" y2="0.00" />
<line x1="0.84" y1="-0.54" x2="0.84" y2="0.54" />
<line x1="0.84" y1="-0.54" x2="0.42" y2="0.91" />
<line x1="0.84" y1="-0.54" x2="-0.14" y2="0.99" />
<line x1="0.84" y1="-0.54" x2="-0.65" y2="0.76" />
<line x1="0.84" y1="-0.54" x2="-0.96" y2="0.28" />
<line x1="0.84" y1="-0.54" x2="-0.96" y2="-0.28" />
<line x1="0.84" y1="-0.54" x2="-0.65" y2="-0.76" />
<line x1="0.84" y1="-0.54" x2="-0.14" y2="-0.99" />
<line x1="0.84" y1="-0.54" x2="0.42" y2="-0.91" />
<line x1="0.84" y1="-0.54" x2="0.84" y2="-0.54" />
<line x1="0.84" y1="-0.54" x2="1.00" y2="-0.00" />
<line x1="1.00" y1="-0.00" x2="1.00" y2="0.00" />
<line x1="1.00" y1="-0.00" x2="0.84" y2="0.54" />
<line x1="1.00" y1="-0.00" x2="0.42" y2="0.91" />
<line x1="1.00" y1="-0.00" x2="-0.14" y2="0.99" />
<line x1="1.00" y1="-0.00" x2="-0.65" y2="0.76" />
<line x1="1.00" y1="-0.00" x2="-0.96" y2="0.28" />
<line x1="1.00" y1="-0.00" x2="-0.96" y2="-0.28" />
<line x1="1.00" y1="-0.00" x2="-0.65" y2="-0.76" />
<line x1="1.00" y1="-0.00" x2="-0.14" y2="-0.99" />
<line x1="1.00" y1="-0.00" x2="0.42" y2="-0.91" />
<line x1="1.00" y1="-0.00" x2="0.84" y2="-0.54" />
<line x1="1.00" y1="-0.00" x2="1.00" y2="-0.00" />
</g>
</svg>
