<svg xmlns="http://www.w3.org/2000/svg" width="161.8" height="100.0" viewBox="-55.46 -33.80 171.80 110.00">
<g fill="none" stroke="black" stroke-width="0.0410%" transform="translate(0, 42.4099) scale(12.2074, -12.2074)">
<polyline points="0.39,-0.55 1.35,-0.70 1.99,0.03 1.64,0.33 1.63,-0.50 2.86,-1.13 2.38,-1.95 1.95,-2.14 2.63,-1.52 3.74,-1.70 4.68,-2.16 5.33,-1.50 5.47,-1.91 4.44,-1.75 3.15,-2.19 4.55,-2.36 4.82,-1.71 5.17,-0.85 5.93,-0.83 6.56,-0.09 6.80,-0.04 6.57,0.10 6.96,-0.13 7.93,0.36 8.15,0.38 7.66,0.98 9.04,1.84 9.08,1.09 8.75,1.99 9.12,1.10 8.14,0.65 7.33,1.14 8.20,1.84 7.41,2.76 8.36,2.12 7.77,2.26 7.83,3.25 8.75,2.65 8.95,2.51 7.86,2.94 6.85,2.40 5.66,3.27 6.77,3.97 6.05,4.77 6.80,4.95 6.61,5.83 7.84,4.85 7.61,4.04 7.96,3.43 8.16,3.34 7.82,2.82 7.09,3.41 6.12,3.36 7.24,2.37 6.43,1.43 5.75,0.49 6.15,-0.13 4.82,0.70 5.66,0.97 4.50,1.78 3.93,1.71 5.02,2.01 4.42,1.83 5.47,1.82 4.52,1.68 4.60,1.78 5.02,1.49 5.02,2.48 3.85,2.17 3.42,2.74 2.53,2.95 1.27,2.60 2.31,3.35 1.17,3.08 1.26,2.30 1.95,2.62 0.64,2.31 1.03,2.77 -0.28,3.03 -1.62,2.85 -1.70,3.50 -1.46,3.47 -1.10,3.37 -0.73,4.14 -0.12,3.22 -1.21,3.02 -1.77,2.72 -2.75,3.31 -1.50,3.53 -1.92,3.84 -1.30,4.14 -2.10,3.73 -2.82,4.68 -3.91,5.07 -2.92,5.02 -3.84,5.60 -3.70,4.75 -4.13,5.52 -3.54,5.71" />
</g>
</svg>