<svg xmlns="http://www.w3.org/2000/svg" width="92.50" height="100.00" viewBox="-82.50 -92.50 102.50 110.00">
<g fill="none" stroke="black" stroke-width="0.20%" transform="translate(0, -75.00) scale(2.50, -2.50)">
<polyline points="1.00,0.00 1.00,-1.00 1.00,-2.00 1.00,-3.00 2.00,-3.00 2.00,-2.00 2.00,-3.00 2.00,-2.00 2.00,-1.00 2.00,-2.00 2.00,-3.00 3.00,-3.00 3.00,-2.00 4.00,-2.00 3.00,-2.00 2.00,-2.00 3.00,-2.00 3.00,-1.00 4.00,-1.00 4.00,-2.00 3.00,-2.00 3.00,-3.00 4.00,-3.00 5.00,-3.00 5.00,-2.00 5.00,-3.00 5.00,-4.00 4.00,-4.00 4.00,-5.00 4.00,-4.00 4.00,-3.00 3.00,-3.00 2.00,-3.00 1.00,-3.00 0.00,-3.00 -1.00,-3.00 -2.00,-3.00 -2.00,-4.00 -3.00,-4.00 -3.00,-3.00 -4.00,-3.00 -5.00,-3.00 -6.00,-3.00 -6.00,-2.00 -6.00,-3.00 -6.00,-4.00 -5.00,-4.00 -5.00,-3.00 -6.00,-3.00 -5.00,-3.00 -5.00,-4.00 -5.00,-3.00 -5.00,-2.00 -5.00,-1.00 -5.00,-2.00 -5.00,-1.00 -5.00,-2.00 -6.00,-2.00 -6.00,-1.00 -7.00,-1.00 -7.00,0.00 -8.00,0.00 -8.00,1.00 -7.00,1.00 -6.00,1.00 -5.00,1.00 -6.00,1.00 -6.00,0.00 -6.00,1.00 -7.00,1.00 -7.00,2.00 -7.00,3.00 -8.00,3.00 -9.00,3.00 -8.00,3.00 -9.00,3.00 -9.00,2.00 -9.00,3.00 -9.00,2.00 -10.00,2.00 -11.00,2.00 -11.00,1.00 -11.00,0.00 -12.00,0.00 -12.00,1.00 -11.00,1.00 -11.00,2.00 -10.00,2.00 -10.00,3.00 -11.00,3.00 -10.00,3.00 -11.00,3.00 -12.00,3.00 -12.00,4.00 -13.00,4.00 -13.00,3.00 -13.00,4.00 -13.00,3.00 -13.00,2.00 -12.00,2.00 -13.00,2.00 -14.00,2.00 -14.00,3.00 -14.00,2.00 -14.00,3.00 -15.00,3.00 -15.00,4.00 -15.00,3.00 -15.00,4.00 -14.00,4.00 -14.00,5.00 -13.00,5.00 -13.00,4.00 -12.00,4.00 -11.00,4.00 -10.00,4.00 -11.00,4.00 -11.00,3.00 -12.00,3.00 -12.00,2.00 -12.00,1.00 -13.00,1.00 -13.00,2.00 -13.00,3.00 -13.00,2.00 -12.00,2.00 -11.00,2.00 -11.00,1.00 -11.00,0.00 -12.00,0.00 -11.00,0.00 -11.00,-1.00 -10.00,-1.00 -10.00,0.00 -10.00,1.00 -9.00,1.00 -10.00,1.00 -10.00,2.00 -10.00,1.00 -9.00,1.00 -9.00,0.00 -9.00,-1.00 -9.00,0.00 -10.00,0.00 -10.00,-1.00 -10.00,0.00 -10.00,-1.00 -9.00,-1.00 -9.00,-2.00 -9.00,-3.00 -10.00,-3.00 -10.00,-4.00 -10.00,-5.00 -10.00,-6.00 -11.00,-6.00 -11.00,-5.00 -10.00,-5.00 -10.00,-4.00 -10.00,-5.00 -10.00,-6.00 -11.00,-6.00 -10.00,-6.00 -10.00,-7.00 -10.00,-8.00 -10.00,-9.00 -10.00,-10.00 -10.00,-11.00 -9.00,-11.00 -8.00,-11.00 -7.00,-11.00 -7.00,-12.00 -7.00,-13.00 -6.00,-13.00 -6.00,-14.00 -7.00,-14.00 -8.00,-14.00 -9.00,-14.00 -10.00,-14.00 -11.00,-14.00 -11.00,-15.00 -11.00,-16.00 -12.00,-16.00 -12.00,-17.00 -12.00,-18.00 -12.00,-19.00 -12.00,-18.00 -12.00,-17.00 -11.00,-17.00 -10.00,-17.00 -9.00,-17.00 -9.00,-18.00 -9.00,-19.00 -10.00,-19.00 -9.00,-19.00 -9.00,-18.00 -9.00,-19.00 -9.00,-20.00 -8.00,-20.00 -9.00,-20.00 -9.00,-21.00 -10.00,-21.00 -10.00,-20.00 -11.00,-20.00 -11.00,-19.00 -10.00,-19.00 -9.00,-19.00 -10.00,-19.00 -10.00,-18.00 -10.00,-17.00 -10.00,-16.00 -11.00,-16.00 -12.00,-16.00 -11.00,-16.00 -12.00,-16.00 -12.00,-17.00 -11.00,-17.00 -10.00,-17.00 -10.00,-18.00 -10.00,-17.00 -11.00,-17.00 -12.00,-17.00 -12.00,-16.00 -11.00,-16.00 -11.00,-17.00 -11.00,-18.00 -12.00,-18.00 -12.00,-17.00 -13.00,-17.00 -14.00,-17.00 -13.00,-17.00 -13.00,-18.00 -14.00,-18.00 -15.00,-18.00 -16.00,-18.00 -16.00,-19.00 -15.00,-19.00 -16.00,-19.00 -16.00,-18.00 -16.00,-19.00 -15.00,-19.00 -15.00,-18.00 -15.00,-19.00 -15.00,-18.00 -16.00,-18.00 -15.00,-18.00 -15.00,-19.00 -14.00,-19.00 -13.00,-19.00 -14.00,-19.00 -15.00,-19.00 -15.00,-20.00 -14.00,-20.00 -14.00,-19.00 -15.00,-19.00 -15.00,-18.00 -14.00,-18.00 -13.00,-18.00 -13.00,-17.00 -13.00,-16.00 -13.00,-15.00 -13.00,-14.00 -14.00,-14.00 -14.00,-15.00 -14.00,-16.00 -13.00,-16.00 -12.00,-16.00 -12.00,-17.00 -13.00,-17.00 -13.00,-16.00 -12.00,-16.00 -12.00,-17.00 -13.00,-17.00 -12.00,-17.00 -11.00,-17.00 -11.00,-18.00 -11.00,-19.00 -12.00,-19.00 -12.00,-20.00 -11.00,-20.00 -10.00,-20.00 -11.00,-20.00 -11.00,-19.00 -11.00,-20.00 -11.00,-21.00 -10.00,-21.00 -11.00,-21.00 -11.00,-20.00 -11.00,-19.00 -12.00,-19.00 -12.00,-20.00 -12.00,-19.00 -12.00,-20.00 -13.00,-20.00 -12.00,-20.00 -13.00,-20.00 -14.00,-20.00 -15.00,-20.00 -15.00,-19.00 -14.00,-19.00 -15.00,-19.00 -16.00,-19.00 -17.00,-19.00 -17.00,-20.00 -17.00,-21.00 -17.00,-22.00 -18.00,-22.00 -17.00,-22.00 -17.00,-23.00 -17.00,-24.00 -18.00,-24.00 -19.00,-24.00 -20.00,-24.00 -21.00,-24.00 -20.00,-24.00 -20.00,-23.00 -20.00,-24.00 -20.00,-23.00 -21.00,-23.00 -21.00,-24.00 -21.00,-25.00 -21.00,-24.00 -20.00,-24.00 -20.00,-23.00 -19.00,-23.00 -19.00,-22.00 -19.00,-23.00 -19.00,-22.00 -19.00,-21.00 -19.00,-22.00 -19.00,-23.00 -20.00,-23.00 -19.00,-23.00 -19.00,-24.00 -19.00,-25.00 -19.00,-24.00 -20.00,-24.00 -21.00,-24.00 -20.00,-24.00 -20.00,-23.00 -20.00,-22.00 -19.00,-22.00 -18.00,-22.00 -18.00,-23.00 -18.00,-24.00 -19.00,-24.00 -20.00,-24.00 -20.00,-25.00 -20.00,-26.00 -21.00,-26.00 -21.00,-27.00 -21.00,-26.00 -20.00,-26.00 -20.00,-27.00 -20.00,-28.00 -20.00,-29.00 -19.00,-29.00 -18.00,-29.00 -18.00,-28.00 -18.00,-29.00 -17.00,-29.00 -17.00,-28.00 -17.00,-27.00 -18.00,-27.00 -18.00,-26.00 -18.00,-27.00 -18.00,-28.00 -19.00,-28.00 -19.00,-29.00 -18.00,-29.00 -17.00,-29.00 -17.00,-28.00 -17.00,-29.00 -17.00,-30.00 -18.00,-30.00 -19.00,-30.00 -20.00,-30.00 -21.00,-30.00 -22.00,-30.00 -22.00,-31.00 -21.00,-31.00 -21.00,-32.00 -21.00,-31.00 -22.00,-31.00 -22.00,-30.00 -23.00,-30.00 -22.00,-30.00 -22.00,-29.00 -21.00,-29.00 -21.00,-28.00 -21.00,-29.00 -21.00,-28.00 -21.00,-27.00 -20.00,-27.00 -21.00,-27.00 -20.00,-27.00 -20.00,-28.00 -20.00,-27.00 -20.00,-26.00 -20.00,-27.00 -19.00,-27.00 -20.00,-27.00 -20.00,-28.00 -19.00,-28.00 -19.00,-29.00 -18.00,-29.00 -18.00,-30.00 -18.00,-29.00 -18.00,-28.00 -19.00,-28.00 -19.00,-29.00 -20.00,-29.00 -19.00,-29.00 -18.00,-29.00 -18.00,-28.00 -18.00,-27.00 -18.00,-28.00 -19.00,-28.00 -19.00,-29.00 -19.00,-28.00 -20.00,-28.00 -19.00,-28.00 -18.00,-28.00 -19.00,-28.00 -20.00,-28.00 -20.00,-27.00 -20.00,-26.00 -19.00,-26.00 -19.00,-25.00 -19.00,-24.00 -18.00,-24.00 -18.00,-23.00 -18.00,-22.00 -18.00,-23.00 -19.00,-23.00 -20.00,-23.00 -20.00,-22.00 -19.00,-22.00 -19.00,-23.00 -20.00,-23.00 -20.00,-22.00 -20.00,-21.00 -19.00,-21.00 -20.00,-21.00 -20.00,-22.00 -21.00,-22.00 -21.00,-23.00 -22.00,-23.00 -21.00,-23.00 -21.00,-22.00 -22.00,-22.00 -21.00,-22.00 -21.00,-21.00 -20.00,-21.00 -21.00,-21.00 -21.00,-22.00 -21.00,-21.00 -21.00,-20.00 -21.00,-21.00 -21.00,-22.00 -22.00,-22.00 -22.00,-21.00 -23.00,-21.00 -22.00,-21.00 -22.00,-22.00 -22.00,-21.00 -22.00,-20.00 -21.00,-20.00 -21.00,-19.00 -20.00,-19.00 -20.00,-20.00 -20.00,-21.00 -20.00,-20.00 -19.00,-20.00 -19.00,-21.00 -19.00,-20.00 -19.00,-19.00 -20.00,-19.00 -20.00,-20.00 -20.00,-19.00 -20.00,-18.00 -21.00,-18.00 -21.00,-17.00 -21.00,-18.00 -21.00,-19.00 -21.00,-20.00 -21.00,-21.00 -21.00,-22.00 -21.00,-21.00 -21.00,-20.00 -20.00,-20.00 -19.00,-20.00 -20.00,-20.00 -20.00,-19.00 -20.00,-20.00 -20.00,-19.00 -21.00,-19.00 -20.00,-19.00 -20.00,-18.00 -20.00,-17.00 -21.00,-17.00 -21.00,-16.00 -21.00,-17.00 -22.00,-17.00 -23.00,-17.00 -23.00,-18.00 -22.00,-18.00 -22.00,-17.00 -23.00,-17.00 -24.00,-17.00 -24.00,-16.00 -24.00,-17.00 -23.00,-17.00 -24.00,-17.00 -24.00,-18.00 -24.00,-17.00 -24.00,-18.00 -25.00,-18.00 -25.00,-17.00 -24.00,-17.00 -23.00,-17.00 -23.00,-16.00 -22.00,-16.00 -23.00,-16.00 -23.00,-17.00 -23.00,-16.00 -23.00,-15.00 -22.00,-15.00 -21.00,-15.00 -22.00,-15.00 -22.00,-16.00 -22.00,-17.00 -23.00,-17.00 -24.00,-17.00 -24.00,-16.00 -24.00,-15.00 -24.00,-16.00 -24.00,-15.00 -24.00,-14.00 -23.00,-14.00 -24.00,-14.00 -25.00,-14.00 -26.00,-14.00 -25.00,-14.00 -26.00,-14.00 -25.00,-14.00 -26.00,-14.00 -25.00,-14.00 -25.00,-13.00 -25.00,-14.00 -26.00,-14.00 -26.00,-15.00 -25.00,-15.00 -26.00,-15.00 -25.00,-15.00 -25.00,-14.00 -26.00,-14.00 -25.00,-14.00 -25.00,-15.00 -25.00,-16.00 -25.00,-15.00 -26.00,-15.00 -26.00,-14.00 -26.00,-15.00 -26.00,-16.00 -25.00,-16.00 -26.00,-16.00 -26.00,-15.00 -26.00,-14.00 -25.00,-14.00 -25.00,-13.00 -26.00,-13.00 -27.00,-13.00 -27.00,-14.00 -28.00,-14.00 -28.00,-15.00 -28.00,-14.00 -28.00,-13.00 -28.00,-12.00 -29.00,-12.00 -28.00,-12.00 -27.00,-12.00 -27.00,-13.00 -27.00,-12.00 -27.00,-13.00 -27.00,-12.00 -26.00,-12.00 -27.00,-12.00 -28.00,-12.00 -28.00,-13.00 -28.00,-12.00 -28.00,-13.00 -28.00,-14.00 -29.00,-14.00 -30.00,-14.00 -30.00,-13.00 -29.00,-13.00 -29.00,-14.00 -28.00,-14.00 -29.00,-14.00 -29.00,-15.00 -30.00,-15.00 -30.00,-14.00 -29.00,-14.00 -29.00,-13.00 -28.00,-13.00 -29.00,-13.00 -28.00,-13.00 -28.00,-14.00 -29.00,-14.00 -30.00,-14.00 -29.00,-14.00 -28.00,-14.00 -28.00,-15.00 -28.00,-16.00 -28.00,-15.00 -28.00,-14.00 -29.00,-14.00 -29.00,-15.00 -29.00,-14.00 -29.00,-15.00 -28.00,-15.00 -27.00,-15.00 -28.00,-15.00 -29.00,-15.00 -29.00,-16.00 -30.00,-16.00 -31.00,-16.00 -30.00,-16.00 -31.00,-16.00 -31.00,-15.00 -31.00,-14.00 -30.00,-14.00 -30.00,-15.00 -31.00,-15.00 -31.00,-14.00 -31.00,-13.00 -30.00,-13.00 -31.00,-13.00 -30.00,-13.00 -30.00,-14.00 -30.00,-15.00 -30.00,-16.00 -30.00,-15.00 -29.00,-15.00 -28.00,-15.00 -27.00,-15.00 -28.00,-15.00 -28.00,-14.00 -27.00,-14.00 -27.00,-13.00 -27.00,-12.00 -27.00,-13.00 -27.00,-14.00 -26.00,-14.00 -25.00,-14.00 -25.00,-13.00 -25.00,-12.00 -24.00,-12.00 -25.00,-12.00 -26.00,-12.00 -27.00,-12.00 -26.00,-12.00 -25.00,-12.00 -24.00,-12.00 -24.00,-13.00 -24.00,-12.00 -23.00,-12.00 -23.00,-11.00 -22.00,-11.00 -22.00,-12.00 -21.00,-12.00 -22.00,-12.00 -22.00,-11.00 -22.00,-10.00 -22.00,-11.00 -22.00,-12.00 -21.00,-12.00 -21.00,-13.00 -21.00,-12.00 -21.00,-13.00 -21.00,-12.00 -22.00,-12.00 -22.00,-13.00 -21.00,-13.00 -21.00,-14.00 -21.00,-13.00 -21.00,-14.00 -21.00,-13.00 -21.00,-12.00 -21.00,-13.00 -20.00,-13.00 -19.00,-13.00 -20.00,-13.00 -20.00,-14.00 -20.00,-13.00 -19.00,-13.00 -19.00,-12.00 -19.00,-13.00 -19.00,-12.00 -19.00,-11.00 -19.00,-10.00 -19.00,-11.00 -20.00,-11.00 -20.00,-10.00 -19.00,-10.00 -19.00,-9.00 -20.00,-9.00 -20.00,-10.00 -20.00,-11.00 -19.00,-11.00 -18.00,-11.00 -17.00,-11.00 -18.00,-11.00 -17.00,-11.00 -18.00,-11.00 -19.00,-11.00 -19.00,-12.00 -18.00,-12.00 -18.00,-13.00 -19.00,-13.00 -19.00,-12.00 -19.00,-11.00 -19.00,-10.00 -19.00,-9.00 -19.00,-10.00 -18.00,-10.00 -18.00,-11.00 -18.00,-12.00 -19.00,-12.00 -20.00,-12.00 -19.00,-12.00 -19.00,-13.00 -19.00,-14.00 -20.00,-14.00 -20.00,-15.00 -21.00,-15.00 -22.00,-15.00 -22.00,-14.00 -21.00,-14.00 -21.00,-15.00 -21.00,-16.00 -20.00,-16.00 -19.00,-16.00 -18.00,-16.00 -19.00,-16.00 -20.00,-16.00 -19.00,-16.00 -18.00,-16.00 -19.00,-16.00 -19.00,-17.00 -19.00,-18.00 -18.00,-18.00 -19.00,-18.00 -19.00,-17.00 -18.00,-17.00 -18.00,-16.00 -17.00,-16.00 -17.00,-15.00 -16.00,-15.00 -15.00,-15.00 -14.00,-15.00 -13.00,-15.00 -13.00,-16.00 -14.00,-16.00 -13.00,-16.00 -13.00,-15.00 -14.00,-15.00 -13.00,-15.00 -13.00,-14.00 -13.00,-15.00 -13.00,-14.00 -12.00,-14.00 -11.00,-14.00 -12.00,-14.00 -12.00,-15.00 -13.00,-15.00 -12.00,-15.00 -12.00,-14.00 -13.00,-14.00 -13.00,-13.00 -14.00,-13.00 -14.00,-14.00 -13.00,-14.00 -14.00,-14.00 -14.00,-15.00 -13.00,-15.00 -13.00,-16.00 -13.00,-15.00 -13.00,-14.00 -12.00,-14.00 -12.00,-15.00 -12.00,-14.00 -11.00,-14.00 -11.00,-13.00 -10.00,-13.00 -9.00,-13.00 -8.00,-13.00 -8.00,-14.00 -7.00,-14.00 -7.00,-13.00 -7.00,-12.00 -6.00,-12.00 -7.00,-12.00 -6.00,-12.00 -5.00,-12.00 -4.00,-12.00 -5.00,-12.00 -4.00,-12.00 -3.00,-12.00 -4.00,-12.00 -4.00,-11.00 -4.00,-12.00 -5.00,-12.00 -5.00,-13.00 -4.00,-13.00 -4.00,-12.00 -4.00,-11.00 -3.00,-11.00 -3.00,-12.00 -3.00,-13.00 -3.00,-12.00 -3.00,-13.00 -3.00,-14.00 -2.00,-14.00 -3.00,-14.00 -3.00,-15.00 -3.00,-14.00 -2.00,-14.00 -2.00,-15.00 -2.00,-16.00 -2.00,-15.00 -2.00,-16.00 -3.00,-16.00 -3.00,-15.00 -2.00,-15.00 -2.00,-14.00 -3.00,-14.00 -3.00,-15.00 -4.00,-15.00 -4.00,-14.00 -5.00,-14.00 -5.00,-15.00 -6.00,-15.00 -5.00,-15.00 -4.00,-15.00 -3.00,-15.00 -3.00,-14.00 -4.00,-14.00 -4.00,-15.00 -4.00,-16.00 -4.00,-15.00 -4.00,-16.00 -5.00,-16.00 -5.00,-17.00 -5.00,-16.00 -5.00,-17.00 -5.00,-18.00 -5.00,-17.00 -4.00,-17.00 -3.00,-17.00 -2.00,-17.00 -3.00,-17.00 -2.00,-17.00 -1.00,-17.00 -1.00,-18.00 -2.00,-18.00 -3.00,-18.00 -3.00,-19.00 -4.00,-19.00 -5.00,-19.00 -6.00,-19.00 -6.00,-18.00 -5.00,-18.00 -4.00,-18.00 -3.00,-18.00 -2.00,-18.00 -1.00,-18.00 -1.00,-17.00 -1.00,-16.00 0.00,-16.00 0.00,-15.00 0.00,-16.00 0.00,-17.00 1.00,-17.00 2.00,-17.00 1.00,-17.00 1.00,-18.00 1.00,-19.00 0.00,-19.00 1.00,-19.00 1.00,-20.00 2.00,-20.00 1.00,-20.00 0.00,-20.00 -1.00,-20.00 -1.00,-21.00 -1.00,-22.00 -1.00,-23.00 0.00,-23.00 0.00,-22.00 0.00,-21.00 0.00,-22.00 0.00,-21.00 0.00,-22.00 1.00,-22.00 2.00,-22.00 1.00,-22.00 1.00,-23.00 0.00,-23.00 -1.00,-23.00 -1.00,-24.00 -1.00,-25.00 -1.00,-24.00 -1.00,-25.00 -1.00,-24.00 -1.00,-25.00 -1.00,-24.00 0.00,-24.00 0.00,-23.00 0.00,-24.00 0.00,-25.00 1.00,-25.00 1.00,-26.00 2.00,-26.00 3.00,-26.00 2.00,-26.00 1.00,-26.00 1.00,-25.00 1.00,-26.00 2.00,-26.00 3.00,-26.00 3.00,-25.00 3.00,-26.00 3.00,-27.00 3.00,-26.00 3.00,-25.00 3.00,-26.00 3.00,-25.00 3.00,-26.00 2.00,-26.00 1.00,-26.00 2.00,-26.00 1.00,-26.00 1.00,-27.00 0.00,-27.00 -1.00,-27.00 -2.00,-27.00 -2.00,-26.00 -1.00,-26.00 0.00,-26.00 0.00,-25.00 0.00,-26.00 0.00,-27.00 0.00,-28.00 0.00,-27.00 1.00,-27.00 0.00,-27.00 1.00,-27.00 2.00,-27.00 2.00,-28.00 3.00,-28.00 3.00,-27.00 3.00,-28.00 2.00,-28.00 2.00,-29.00 2.00,-30.00 2.00,-31.00 3.00,-31.00 4.00,-31.00 4.00,-32.00 4.00,-31.00 3.00,-31.00 3.00,-30.00 3.00,-31.00 3.00,-32.00 4.00,-32.00 4.00,-33.00 5.00,-33.00 5.00,-32.00 5.00,-33.00 5.00,-34.00 5.00,-33.00 4.00,-33.00 4.00,-34.00 5.00,-34.00 6.00,-34.00 5.00,-34.00 4.00,-34.00 3.00,-34.00 3.00,-33.00 3.00,-32.00 3.00,-33.00 4.00,-33.00 4.00,-34.00 3.00,-34.00 3.00,-35.00 3.00,-34.00 3.00,-35.00 2.00,-35.00 2.00,-34.00" />
</g>
</svg>
