<svg xmlns="http://www.w3.org/2000/svg" width="161.8" height="100.0" viewBox="-3.58 -53.68 171.80 110.00">
<g fill="none" stroke="black" stroke-width="0.0674%" transform="translate(0, 2.6344) scale(7.4228, -7.4228)">
<line x1="0.19" y1="0.00" x2="0.19" y2="0.52" />
<line x1="0.38" y1="0.00" x2="0.38" y2="0.52" />
<line x1="0.57" y1="0.00" x2="0.57" y2="0.52" />
<line x1="0.76" y1="0.00" x2="0.76" y2="0.52" />

<line x1="1.15" y1="0.00" x2="1.15" y2="0.52" />
<line x1="1.34" y1="0.00" x2="1.34" y2="0.52" />
<line x1="1.53" y1="0.00" x2="1.53" y2="0.52" />
<line x1="1.72" y1="0.00" x2="1.72" y2="0.52" />

<line x1="2.10" y1="0.00" x2="2.10" y2="-0.52" />
<line x1="2.29" y1="0.00" x2="2.29" y2="0.52" />
<line x1="2.49" y1="0.00" x2="2.49" y2="0.52" />
<line x1="2.68" y1="0.00" x2="2.68" y2="0.52" />
<line x1="2.87" y1="0.00" x2="2.87" y2="0.75" />
<line x1="3.06" y1="0.00" x2="3.06" y2="-0.52" />
<line x1="3.25" y1="0.00" x2="3.25" y2="-0.90" />
<line x1="3.44" y1="0.00" x2="3.44" y2="0.52" />
<line x1="3.63" y1="0.00" x2="3.63" y2="0.52" />
<line x1="3.82" y1="0.00" x2="3.82" y2="0.75" />
<line x1="4.02" y1="0.00" x2="4.02" y2="1.10" />
<line x1="4.21" y1="0.00" x2="4.21" y2="-0.90" />
<line x1="4.40" y1="0.00" x2="4.40" y2="-1.23" />
<line x1="4.59" y1="0.00" x2="4.59" y2="0.52" />

<line x1="4.97" y1="0.00" x2="4.97" y2="1.10" />
<line x1="5.16" y1="0.00" x2="5.16" y2="1.49" />
<line x1="5.35" y1="0.00" x2="5.35" y2="-1.23" />
<line x1="5.55" y1="0.00" x2="5.55" y2="-1.55" />

<line x1="5.93" y1="0.00" x2="5.93" y2="-1.10" />
<line x1="6.12" y1="0.00" x2="6.12" y2="1.49" />
<line x1="6.31" y1="0.00" x2="6.31" y2="1.89" />
<line x1="6.50" y1="0.00" x2="6.50" y2="-1.55" />
<line x1="6.69" y1="0.00" x2="6.69" y2="-1.85" />
<line x1="6.88" y1="0.00" x2="6.88" y2="-1.10" />
<line x1="7.07" y1="0.00" x2="7.07" y2="-1.73" />
<line x1="7.27" y1="0.00" x2="7.27" y2="1.89" />
<line x1="7.46" y1="0.00" x2="7.46" y2="2.27" />
<line x1="7.65" y1="0.00" x2="7.65" y2="-1.85" />
<line x1="7.84" y1="0.00" x2="7.84" y2="-2.11" />
<line x1="8.03" y1="0.00" x2="8.03" y2="-1.73" />
<line x1="8.22" y1="0.00" x2="8.22" y2="-2.26" />
<line x1="8.41" y1="0.00" x2="8.41" y2="2.27" />
<line x1="8.60" y1="0.00" x2="8.60" y2="2.65" />
<line x1="8.80" y1="0.00" x2="8.80" y2="-2.11" />
<line x1="8.99" y1="0.00" x2="8.99" y2="-2.30" />
<line x1="9.18" y1="0.00" x2="9.18" y2="-2.26" />
<line x1="9.37" y1="0.00" x2="9.37" y2="-2.74" />
<line x1="9.56" y1="0.00" x2="9.56" y2="2.65" />
<line x1="9.75" y1="0.00" x2="9.75" y2="3.01" />
<line x1="9.94" y1="0.00" x2="9.94" y2="-2.30" />
<line x1="10.13" y1="0.00" x2="10.13" y2="-2.34" />
<line x1="10.33" y1="0.00" x2="10.33" y2="-2.74" />
<line x1="10.52" y1="0.00" x2="10.52" y2="-3.19" />
<line x1="10.71" y1="0.00" x2="10.71" y2="3.01" />
<line x1="10.90" y1="0.00" x2="10.90" y2="3.35" />
<line x1="11.09" y1="0.00" x2="11.09" y2="-2.34" />
<line x1="11.28" y1="0.00" x2="11.28" y2="2.06" />
<line x1="11.47" y1="0.00" x2="11.47" y2="-3.19" />
<line x1="11.66" y1="0.00" x2="11.66" y2="-3.61" />
<line x1="11.86" y1="0.00" x2="11.86" y2="3.35" />
<line x1="12.05" y1="0.00" x2="12.05" y2="3.67" />
<line x1="12.24" y1="0.00" x2="12.24" y2="2.06" />
<line x1="12.43" y1="0.00" x2="12.43" y2="3.25" />
<line x1="12.62" y1="0.00" x2="12.62" y2="-3.61" />
<line x1="12.81" y1="0.00" x2="12.81" y2="-4.02" />
<line x1="13.00" y1="0.00" x2="13.00" y2="3.67" />
<line x1="13.19" y1="0.00" x2="13.19" y2="3.96" />
<line x1="13.38" y1="0.00" x2="13.38" y2="3.25" />
<line x1="13.58" y1="0.00" x2="13.58" y2="3.88" />
<line x1="13.77" y1="0.00" x2="13.77" y2="-4.02" />
<line x1="13.96" y1="0.00" x2="13.96" y2="-4.41" />
<line x1="14.15" y1="0.00" x2="14.15" y2="3.96" />
<line x1="14.34" y1="0.00" x2="14.34" y2="4.22" />
<line x1="14.53" y1="0.00" x2="14.53" y2="3.88" />
<line x1="14.72" y1="0.00" x2="14.72" y2="4.41" />
<line x1="14.91" y1="0.00" x2="14.91" y2="-4.41" />
<line x1="15.11" y1="0.00" x2="15.11" y2="-4.78" />
<line x1="15.30" y1="0.00" x2="15.30" y2="4.22" />
<line x1="15.49" y1="0.00" x2="15.49" y2="4.41" />
<line x1="15.68" y1="0.00" x2="15.68" y2="4.41" />
<line x1="15.87" y1="0.00" x2="15.87" y2="4.89" />
<line x1="16.06" y1="0.00" x2="16.06" y2="-4.78" />
<line x1="16.25" y1="0.00" x2="16.25" y2="-5.14" />
<line x1="16.44" y1="0.00" x2="16.44" y2="4.41" />
<line x1="16.64" y1="0.00" x2="16.64" y2="4.41" />
<line x1="16.83" y1="0.00" x2="16.83" y2="4.89" />
<line x1="17.02" y1="0.00" x2="17.02" y2="5.33" />
<line x1="17.21" y1="0.00" x2="17.21" y2="-5.14" />
<line x1="17.40" y1="0.00" x2="17.40" y2="-5.48" />
<line x1="17.59" y1="0.00" x2="17.59" y2="4.41" />
<line x1="17.78" y1="0.00" x2="17.78" y2="-4.41" />
<line x1="17.97" y1="0.00" x2="17.97" y2="5.33" />
<line x1="18.17" y1="0.00" x2="18.17" y2="5.75" />
<line x1="18.36" y1="0.00" x2="18.36" y2="-5.48" />
<line x1="18.55" y1="0.00" x2="18.55" y2="-5.80" />
<line x1="18.74" y1="0.00" x2="18.74" y2="-4.41" />
<line x1="18.93" y1="0.00" x2="18.93" y2="-5.42" />
<line x1="19.12" y1="0.00" x2="19.12" y2="5.75" />
<line x1="19.31" y1="0.00" x2="19.31" y2="6.16" />
<line x1="19.50" y1="0.00" x2="19.50" y2="-5.80" />
<line x1="19.69" y1="0.00" x2="19.69" y2="-6.09" />
<line x1="19.89" y1="0.00" x2="19.89" y2="-5.42" />
<line x1="20.08" y1="0.00" x2="20.08" y2="-6.04" />
<line x1="20.27" y1="0.00" x2="20.27" y2="6.16" />
<line x1="20.46" y1="0.00" x2="20.46" y2="6.54" />
<line x1="20.65" y1="0.00" x2="20.65" y2="-6.09" />
<line x1="20.84" y1="0.00" x2="20.84" y2="-6.34" />
<line x1="21.03" y1="0.00" x2="21.03" y2="-6.04" />
<line x1="21.22" y1="0.00" x2="21.22" y2="-6.56" />
<line x1="21.42" y1="0.00" x2="21.42" y2="6.54" />
<line x1="21.61" y1="0.00" x2="21.61" y2="6.91" />
<line x1="21.80" y1="0.00" x2="21.80" y2="-6.34" />
<line x1="21.99" y1="0.00" x2="21.99" y2="-6.52" />
</g>
</svg>