<svg xmlns="http://www.w3.org/2000/svg" width="100.0" height="100.0" viewBox="-71.67 -49.44 110.00 110.00">
<g fill="none" stroke="black" stroke-width="0.0450%" transform="translate(0, 11.1111) scale(11.1111, -11.1111)">
<polyline points="-1.00,0.00 0.00,0.00 1.00,0.00 1.00,1.00 1.00,0.00 2.00,0.00 1.00,0.00 2.00,0.00 2.00,-1.00 3.00,-1.00 3.00,0.00 3.00,1.00 2.00,1.00 2.00,2.00 2.00,1.00 2.00,2.00 2.00,3.00 3.00,3.00 2.00,3.00 3.00,3.00 3.00,4.00 2.00,4.00 2.00,3.00 2.00,4.00 2.00,5.00 1.00,5.00 1.00,4.00 1.00,5.00 0.00,5.00 1.00,5.00 1.00,4.00 1.00,5.00 0.00,5.00 -1.00,5.00 0.00,5.00 0.00,4.00 0.00,3.00 1.00,3.00 0.00,3.00 0.00,2.00 0.00,3.00 0.00,4.00 -1.00,4.00 0.00,4.00 0.00,3.00 1.00,3.00 1.00,2.00 1.00,3.00 1.00,2.00 0.00,2.00 0.00,3.00 0.00,2.00 -1.00,2.00 -1.00,1.00 -1.00,0.00 -1.00,-1.00 -1.00,-2.00 -1.00,-1.00 -2.00,-1.00 -2.00,-2.00 -2.00,-1.00 -1.00,-1.00 -1.00,0.00 -1.00,-1.00 0.00,-1.00 1.00,-1.00 1.00,-2.00 0.00,-2.00 0.00,-3.00 0.00,-4.00 0.00,-3.00 -1.00,-3.00 -2.00,-3.00 -2.00,-2.00 -1.00,-2.00 -1.00,-1.00 -1.00,0.00 -2.00,0.00 -2.00,-1.00 -1.00,-1.00 -1.00,0.00 -2.00,0.00 -3.00,0.00 -3.00,1.00 -2.00,1.00 -2.00,2.00 -2.00,3.00 -2.00,4.00 -3.00,4.00 -3.00,3.00 -3.00,2.00 -4.00,2.00 -4.00,3.00 -5.00,3.00 -6.00,3.00 -6.00,4.00 -6.00,3.00 -5.00,3.00 -4.00,3.00" />
</g>
</svg>