<svg xmlns="http://www.w3.org/2000/svg" width="161.8" height="100.0" viewBox="-2.5 -54.2 171.8 110.0">
<g fill="none" stroke="black" stroke-width="0.6400%" transform="translate(0, 1.5625) scale(0.7813, -0.7813)">
<line x1="3.2" y1="0.0" x2="3.2" y2="1.0" />
<line x1="6.5" y1="0.0" x2="6.5" y2="-1.0" />
<line x1="9.7" y1="0.0" x2="9.7" y2="3.0" />
<line x1="12.9" y1="0.0" x2="12.9" y2="-3.0" />
<line x1="16.2" y1="0.0" x2="16.2" y2="5.0" />
<line x1="19.4" y1="0.0" x2="19.4" y2="-5.0" />
<line x1="22.7" y1="0.0" x2="22.7" y2="7.0" />
<line x1="25.9" y1="0.0" x2="25.9" y2="-7.0" />
<line x1="29.1" y1="0.0" x2="29.1" y2="9.0" />
<line x1="32.4" y1="0.0" x2="32.4" y2="-9.0" />
<line x1="35.6" y1="0.0" x2="35.6" y2="11.0" />
<line x1="38.8" y1="0.0" x2="38.8" y2="-11.0" />
<line x1="42.1" y1="0.0" x2="42.1" y2="13.0" />
<line x1="45.3" y1="0.0" x2="45.3" y2="-13.0" />
<line x1="48.5" y1="0.0" x2="48.5" y2="15.0" />
<line x1="51.8" y1="0.0" x2="51.8" y2="-15.0" />
<line x1="55.0" y1="0.0" x2="55.0" y2="17.0" />
<line x1="58.2" y1="0.0" x2="58.2" y2="-17.0" />
<line x1="61.5" y1="0.0" x2="61.5" y2="19.0" />
<line x1="64.7" y1="0.0" x2="64.7" y2="-19.0" />
<line x1="68.0" y1="0.0" x2="68.0" y2="21.0" />
<line x1="71.2" y1="0.0" x2="71.2" y2="-21.0" />
<line x1="74.4" y1="0.0" x2="74.4" y2="23.0" />
<line x1="77.7" y1="0.0" x2="77.7" y2="-23.0" />
<line x1="80.9" y1="0.0" x2="80.9" y2="25.0" />
<line x1="84.1" y1="0.0" x2="84.1" y2="-25.0" />
<line x1="87.4" y1="0.0" x2="87.4" y2="27.0" />
<line x1="90.6" y1="0.0" x2="90.6" y2="-27.0" />
<line x1="93.8" y1="0.0" x2="93.8" y2="29.0" />
<line x1="97.1" y1="0.0" x2="97.1" y2="-29.0" />
<line x1="100.3" y1="0.0" x2="100.3" y2="31.0" />
<line x1="103.6" y1="0.0" x2="103.6" y2="-31.0" />
<line x1="106.8" y1="0.0" x2="106.8" y2="33.0" />
<line x1="110.0" y1="0.0" x2="110.0" y2="-33.0" />
<line x1="113.3" y1="0.0" x2="113.3" y2="35.0" />
<line x1="116.5" y1="0.0" x2="116.5" y2="-35.0" />
<line x1="119.7" y1="0.0" x2="119.7" y2="37.0" />
<line x1="123.0" y1="0.0" x2="123.0" y2="-37.0" />
<line x1="126.2" y1="0.0" x2="126.2" y2="39.0" />
<line x1="129.4" y1="0.0" x2="129.4" y2="-39.0" />
<line x1="132.7" y1="0.0" x2="132.7" y2="41.0" />
<line x1="135.9" y1="0.0" x2="135.9" y2="-41.0" />
<line x1="139.2" y1="0.0" x2="139.2" y2="43.0" />
<line x1="142.4" y1="0.0" x2="142.4" y2="-43.0" />
<line x1="145.6" y1="0.0" x2="145.6" y2="45.0" />
<line x1="148.9" y1="0.0" x2="148.9" y2="-45.0" />
<line x1="152.1" y1="0.0" x2="152.1" y2="47.0" />
<line x1="155.3" y1="0.0" x2="155.3" y2="-47.0" />
<line x1="158.6" y1="0.0" x2="158.6" y2="49.0" />
<line x1="161.8" y1="0.0" x2="161.8" y2="-49.0" />
<line x1="165.0" y1="0.0" x2="165.0" y2="51.0" />
<line x1="168.3" y1="0.0" x2="168.3" y2="-51.0" />
<line x1="171.5" y1="0.0" x2="171.5" y2="53.0" />
<line x1="174.7" y1="0.0" x2="174.7" y2="-53.0" />
<line x1="178.0" y1="0.0" x2="178.0" y2="55.0" />
<line x1="181.2" y1="0.0" x2="181.2" y2="-55.0" />
<line x1="184.5" y1="0.0" x2="184.5" y2="57.0" />
<line x1="187.7" y1="0.0" x2="187.7" y2="-57.0" />
<line x1="190.9" y1="0.0" x2="190.9" y2="59.0" />
<line x1="194.2" y1="0.0" x2="194.2" y2="-59.0" />
<line x1="197.4" y1="0.0" x2="197.4" y2="61.0" />
<line x1="200.6" y1="0.0" x2="200.6" y2="-61.0" />
<line x1="203.9" y1="0.0" x2="203.9" y2="63.0" />
<line x1="207.1" y1="0.0" x2="207.1" y2="-63.0" />
<line x1="210.3" y1="0.0" x2="210.3" y2="65.0" />
</g>
</svg>