<svg xmlns="http://www.w3.org/2000/svg" width="161.8" height="100.0" viewBox="-3.35 -38.24 171.80 110.00">
<g fill="none" stroke="black" stroke-width="0.0483%" transform="translate(0, 33.5208) scale(10.3420, -10.3420)">
<polyline points="0.16,0.33 0.32,0.57 0.48,0.41 0.64,0.28 0.80,0.26 0.96,-0.12 1.12,-0.66 1.28,-1.17 1.44,-1.22 1.60,-1.93 1.76,-0.95 1.92,-1.65 2.08,-0.67 2.24,-0.35 2.39,-0.93 2.55,-0.15 2.71,-0.20 2.87,0.42 3.03,0.92 3.19,0.47 3.35,0.70 3.51,0.61 3.67,-0.29 3.83,-0.06 3.99,-0.84 4.15,-0.60 4.31,-0.83 4.47,-0.68 4.63,-0.18 4.79,-1.14 4.95,-0.17 5.11,-1.17 5.27,-1.49 5.43,-2.15 5.59,-2.42 5.75,-2.62 5.91,-2.62 6.07,-3.21 6.23,-2.84 6.39,-1.90 6.55,-1.46 6.71,-0.71 6.86,0.17 7.02,0.27 7.18,1.20 7.34,1.98 7.50,1.93 7.66,1.55 7.82,1.29 7.98,1.45 8.14,1.80 8.30,1.55 8.46,2.17 8.62,1.58 8.78,1.39 8.94,2.28 9.10,2.66 9.26,2.28 9.42,1.98 9.58,2.81 9.74,3.16 9.90,4.14 10.06,3.83 10.22,4.13 10.38,3.76 10.54,3.92 10.70,3.57 10.86,3.63 11.02,4.01 11.18,4.00 11.33,4.23 11.49,3.63 11.65,4.61 11.81,5.12 11.97,5.60 12.13,5.52 12.29,5.03 12.45,4.33 12.61,5.16 12.77,5.53 12.93,4.99 13.09,5.21 13.25,5.85 13.41,6.20 13.57,6.06 13.73,5.29 13.89,4.96 14.05,4.54 14.21,5.50 14.37,6.46 14.53,6.24 14.69,6.02 14.85,5.41 15.01,5.22 15.17,5.41 15.33,4.70 15.49,3.80 15.65,3.96 15.80,3.63" />
</g>
</svg>