<svg xmlns="http://www.w3.org/2000/svg" width="183.3" height="100.0" viewBox="11.67 -5.00 193.33 110.00">
<g fill="none" stroke="black" stroke-width="0.0300%" transform="translate(0, 100.0000) scale(16.6667, -16.6667)">
<line x1="1.00" y1="0.00" x2="12.00" y2="0.00" />
<circle cx="1.00" cy="0.00" r="0.03" />
<circle cx="2.00" cy="0.00" r="0.03" />
<circle cx="3.00" cy="0.00" r="0.03" />
<circle cx="4.00" cy="0.00" r="0.03" />
<circle cx="5.00" cy="0.00" r="0.03" />
<circle cx="6.00" cy="0.00" r="0.03" />
<circle cx="7.00" cy="0.00" r="0.03" />
<circle cx="8.00" cy="0.00" r="0.03" />
<circle cx="9.00" cy="0.00" r="0.03" />
<circle cx="10.00" cy="0.00" r="0.03" />
<circle cx="11.00" cy="0.00" r="0.03" />
<circle cx="12.00" cy="0.00" r="0.03" />
<circle cx="1.00" cy="6.00" r="0.03" />
<polyline points="1.00,0.00 6.00,5.00 11.00,0.00" />
<polyline points="3.00,0.00 6.00,3.00 9.00,0.00" />
<polyline points="5.00,0.00 6.00,1.00 7.00,0.00" />
<polyline points="2.00,0.00 7.00,5.00 12.00,0.00" />
<polyline points="4.00,0.00 7.00,3.00 10.00,0.00" />
<polyline points="6.00,0.00 7.00,1.00 8.00,0.00" />
</g>
</svg>