<svg xmlns="http://www.w3.org/2000/svg" width="161.8" height="100.0" viewBox="-4.02 -88.33 171.80 110.00">
<g fill="none" stroke="black" stroke-width="0.0600%" transform="translate(0, -66.6667) scale(8.3333, -8.3333)">
<circle cx="0.12" cy="1.00" r="0.06" />
<circle cx="0.24" cy="2.00" r="0.06" />
<circle cx="0.35" cy="1.00" r="0.06" />
<circle cx="0.47" cy="0.00" r="0.06" />
<circle cx="0.59" cy="1.00" r="0.06" />
<circle cx="0.71" cy="0.00" r="0.06" />
<circle cx="0.82" cy="1.00" r="0.06" />
<circle cx="0.94" cy="0.00" r="0.06" />
<circle cx="1.06" cy="-1.00" r="0.06" />
<circle cx="1.18" cy="0.00" r="0.06" />
<circle cx="1.29" cy="1.00" r="0.06" />
<circle cx="1.41" cy="0.00" r="0.06" />
<circle cx="1.53" cy="-1.00" r="0.06" />
<circle cx="1.65" cy="-2.00" r="0.06" />
<circle cx="1.77" cy="-1.00" r="0.06" />
<circle cx="1.88" cy="0.00" r="0.06" />
<circle cx="2.00" cy="1.00" r="0.06" />
<circle cx="2.12" cy="0.00" r="0.06" />
<circle cx="2.24" cy="-1.00" r="0.06" />
<circle cx="2.35" cy="-2.00" r="0.06" />
<circle cx="2.47" cy="-3.00" r="0.06" />
<circle cx="2.59" cy="-2.00" r="0.06" />
<circle cx="2.71" cy="-1.00" r="0.06" />
<circle cx="2.82" cy="-2.00" r="0.06" />
<circle cx="2.94" cy="-1.00" r="0.06" />
<circle cx="3.06" cy="0.00" r="0.06" />
<circle cx="3.18" cy="1.00" r="0.06" />
<circle cx="3.29" cy="0.00" r="0.06" />
<circle cx="3.41" cy="-1.00" r="0.06" />
<circle cx="3.53" cy="-2.00" r="0.06" />
<circle cx="3.65" cy="-3.00" r="0.06" />
<circle cx="3.77" cy="-4.00" r="0.06" />
<circle cx="3.88" cy="-5.00" r="0.06" />
<circle cx="4.00" cy="-4.00" r="0.06" />
<circle cx="4.12" cy="-3.00" r="0.06" />
<circle cx="4.24" cy="-2.00" r="0.06" />
<circle cx="4.35" cy="-1.00" r="0.06" />
<circle cx="4.47" cy="-2.00" r="0.06" />
<circle cx="4.59" cy="-1.00" r="0.06" />
<circle cx="4.71" cy="0.00" r="0.06" />
<circle cx="4.82" cy="1.00" r="0.06" />
<circle cx="4.94" cy="0.00" r="0.06" />
<circle cx="5.06" cy="-1.00" r="0.06" />
<circle cx="5.18" cy="-2.00" r="0.06" />
<circle cx="5.30" cy="-3.00" r="0.06" />
<circle cx="5.41" cy="-4.00" r="0.06" />
<circle cx="5.53" cy="-3.00" r="0.06" />
<circle cx="5.65" cy="-4.00" r="0.06" />
<circle cx="5.77" cy="-5.00" r="0.06" />
<circle cx="5.88" cy="-4.00" r="0.06" />
<circle cx="6.00" cy="-5.00" r="0.06" />
<circle cx="6.12" cy="-4.00" r="0.06" />
<circle cx="6.24" cy="-5.00" r="0.06" />
<circle cx="6.35" cy="-6.00" r="0.06" />
<circle cx="6.47" cy="-5.00" r="0.06" />
<circle cx="6.59" cy="-4.00" r="0.06" />
<circle cx="6.71" cy="-3.00" r="0.06" />
<circle cx="6.83" cy="-2.00" r="0.06" />
<circle cx="6.94" cy="-1.00" r="0.06" />
<circle cx="7.06" cy="-2.00" r="0.06" />
<circle cx="7.18" cy="-1.00" r="0.06" />
<circle cx="7.30" cy="-2.00" r="0.06" />
<circle cx="7.41" cy="-1.00" r="0.06" />
<circle cx="7.53" cy="-2.00" r="0.06" />
<circle cx="7.65" cy="-1.00" r="0.06" />
<circle cx="7.77" cy="0.00" r="0.06" />
<circle cx="7.88" cy="-1.00" r="0.06" />
<circle cx="8.00" cy="-2.00" r="0.06" />
<circle cx="8.12" cy="-3.00" r="0.06" />
<circle cx="8.24" cy="-2.00" r="0.06" />
<circle cx="8.35" cy="-3.00" r="0.06" />
<circle cx="8.47" cy="-4.00" r="0.06" />
<circle cx="8.59" cy="-5.00" r="0.06" />
<circle cx="8.71" cy="-6.00" r="0.06" />
<circle cx="8.83" cy="-5.00" r="0.06" />
<circle cx="8.94" cy="-6.00" r="0.06" />
<circle cx="9.06" cy="-7.00" r="0.06" />
<circle cx="9.18" cy="-6.00" r="0.06" />
<circle cx="9.30" cy="-7.00" r="0.06" />
<circle cx="9.41" cy="-8.00" r="0.06" />
<circle cx="9.53" cy="-9.00" r="0.06" />
<circle cx="9.65" cy="-8.00" r="0.06" />
<circle cx="9.77" cy="-7.00" r="0.06" />
<circle cx="9.88" cy="-8.00" r="0.06" />
<circle cx="10.00" cy="-7.00" r="0.06" />
<circle cx="10.12" cy="-6.00" r="0.06" />
<circle cx="10.24" cy="-5.00" r="0.06" />
<circle cx="10.36" cy="-4.00" r="0.06" />
<circle cx="10.47" cy="-3.00" r="0.06" />
<circle cx="10.59" cy="-4.00" r="0.06" />
<circle cx="10.71" cy="-3.00" r="0.06" />
<circle cx="10.83" cy="-2.00" r="0.06" />
<circle cx="10.94" cy="-3.00" r="0.06" />
<circle cx="11.06" cy="-2.00" r="0.06" />
<circle cx="11.18" cy="-1.00" r="0.06" />
<circle cx="11.30" cy="0.00" r="0.06" />
<circle cx="11.41" cy="1.00" r="0.06" />
<circle cx="11.53" cy="0.00" r="0.06" />
<circle cx="11.65" cy="-1.00" r="0.06" />
<circle cx="11.77" cy="-2.00" r="0.06" />
<circle cx="11.89" cy="-1.00" r="0.06" />
<circle cx="12.00" cy="-2.00" r="0.06" />
<circle cx="12.12" cy="-3.00" r="0.06" />
<circle cx="12.24" cy="-4.00" r="0.06" />
<circle cx="12.36" cy="-3.00" r="0.06" />
<circle cx="12.47" cy="-4.00" r="0.06" />
<circle cx="12.59" cy="-3.00" r="0.06" />
<circle cx="12.71" cy="-4.00" r="0.06" />
<circle cx="12.83" cy="-5.00" r="0.06" />
<circle cx="12.94" cy="-6.00" r="0.06" />
<circle cx="13.06" cy="-7.00" r="0.06" />
<circle cx="13.18" cy="-6.00" r="0.06" />
<circle cx="13.30" cy="-7.00" r="0.06" />
<circle cx="13.41" cy="-8.00" r="0.06" />
<circle cx="13.53" cy="-9.00" r="0.06" />
<circle cx="13.65" cy="-8.00" r="0.06" />
<circle cx="13.77" cy="-9.00" r="0.06" />
<circle cx="13.89" cy="-10.00" r="0.06" />
<circle cx="14.00" cy="-9.00" r="0.06" />
<circle cx="14.12" cy="-8.00" r="0.06" />
<circle cx="14.24" cy="-9.00" r="0.06" />
<circle cx="14.36" cy="-8.00" r="0.06" />
<circle cx="14.47" cy="-7.00" r="0.06" />
<circle cx="14.59" cy="-6.00" r="0.06" />
<circle cx="14.71" cy="-7.00" r="0.06" />
<circle cx="14.83" cy="-8.00" r="0.06" />
<circle cx="14.94" cy="-7.00" r="0.06" />
<circle cx="15.06" cy="-8.00" r="0.06" />
<circle cx="15.18" cy="-9.00" r="0.06" />
<circle cx="15.30" cy="-8.00" r="0.06" />
<circle cx="15.42" cy="-9.00" r="0.06" />
<circle cx="15.53" cy="-10.00" r="0.06" />
<circle cx="15.65" cy="-9.00" r="0.06" />
<circle cx="15.77" cy="-8.00" r="0.06" />
<circle cx="15.89" cy="-7.00" r="0.06" />
<circle cx="16.00" cy="-6.00" r="0.06" />
<circle cx="16.12" cy="-5.00" r="0.06" />
<circle cx="16.24" cy="-6.00" r="0.06" />
<circle cx="16.36" cy="-7.00" r="0.06" />
<circle cx="16.47" cy="-8.00" r="0.06" />
<circle cx="16.59" cy="-7.00" r="0.06" />
<circle cx="16.71" cy="-6.00" r="0.06" />
<circle cx="16.83" cy="-5.00" r="0.06" />
<circle cx="16.95" cy="-4.00" r="0.06" />
<circle cx="17.06" cy="-3.00" r="0.06" />
<circle cx="17.18" cy="-2.00" r="0.06" />
<circle cx="17.30" cy="-1.00" r="0.06" />
<circle cx="17.42" cy="-2.00" r="0.06" />
<circle cx="17.53" cy="-3.00" r="0.06" />
<circle cx="17.65" cy="-4.00" r="0.06" />
<circle cx="17.77" cy="-3.00" r="0.06" />
<circle cx="17.89" cy="-4.00" r="0.06" />
<circle cx="18.00" cy="-3.00" r="0.06" />
<circle cx="18.12" cy="-4.00" r="0.06" />
<circle cx="18.24" cy="-5.00" r="0.06" />
<circle cx="18.36" cy="-4.00" r="0.06" />
<circle cx="18.48" cy="-3.00" r="0.06" />
<circle cx="18.59" cy="-4.00" r="0.06" />
<circle cx="18.71" cy="-3.00" r="0.06" />
<circle cx="18.83" cy="-2.00" r="0.06" />
<circle cx="18.95" cy="-1.00" r="0.06" />
<circle cx="19.06" cy="0.00" r="0.06" />
<circle cx="19.18" cy="-1.00" r="0.06" />
<circle cx="19.30" cy="-2.00" r="0.06" />
<circle cx="19.42" cy="-3.00" r="0.06" />
<circle cx="19.53" cy="-4.00" r="0.06" />
</g>
</svg>