<svg xmlns="http://www.w3.org/2000/svg" width="161.8" height="100.0" viewBox="-4.01 -96.67 171.80 110.00">
<g fill="none" stroke="black" stroke-width="0.0600%" transform="translate(0, -83.3333) scale(8.3333, -8.3333)">
<circle cx="0.12" cy="1.00" r="0.06" />
<circle cx="0.24" cy="0.00" r="0.06" />
<circle cx="0.36" cy="-1.00" r="0.06" />
<circle cx="0.47" cy="0.00" r="0.06" />
<circle cx="0.59" cy="-1.00" r="0.06" />
<circle cx="0.71" cy="0.00" r="0.06" />
<circle cx="0.83" cy="-1.00" r="0.06" />
<circle cx="0.95" cy="-2.00" r="0.06" />
<circle cx="1.07" cy="-1.00" r="0.06" />
<circle cx="1.18" cy="0.00" r="0.06" />
<circle cx="1.30" cy="-1.00" r="0.06" />
<circle cx="1.42" cy="-2.00" r="0.06" />
<circle cx="1.54" cy="-3.00" r="0.06" />
<circle cx="1.66" cy="-2.00" r="0.06" />
<circle cx="1.78" cy="-1.00" r="0.06" />
<circle cx="1.89" cy="0.00" r="0.06" />
<circle cx="2.01" cy="-1.00" r="0.06" />
<circle cx="2.13" cy="-2.00" r="0.06" />
<circle cx="2.25" cy="-3.00" r="0.06" />
<circle cx="2.37" cy="-4.00" r="0.06" />
<circle cx="2.49" cy="-3.00" r="0.06" />
<circle cx="2.60" cy="-2.00" r="0.06" />
<circle cx="2.72" cy="-3.00" r="0.06" />
<circle cx="2.84" cy="-2.00" r="0.06" />
<circle cx="2.96" cy="-1.00" r="0.06" />
<circle cx="3.08" cy="0.00" r="0.06" />
<circle cx="3.20" cy="-1.00" r="0.06" />
<circle cx="3.31" cy="-2.00" r="0.06" />
<circle cx="3.43" cy="-3.00" r="0.06" />
<circle cx="3.55" cy="-4.00" r="0.06" />
<circle cx="3.67" cy="-5.00" r="0.06" />
<circle cx="3.79" cy="-6.00" r="0.06" />
<circle cx="3.91" cy="-5.00" r="0.06" />
<circle cx="4.03" cy="-4.00" r="0.06" />
<circle cx="4.14" cy="-3.00" r="0.06" />
<circle cx="4.26" cy="-2.00" r="0.06" />
<circle cx="4.38" cy="-3.00" r="0.06" />
<circle cx="4.50" cy="-2.00" r="0.06" />
<circle cx="4.62" cy="-1.00" r="0.06" />
<circle cx="4.74" cy="0.00" r="0.06" />
<circle cx="4.85" cy="-1.00" r="0.06" />
<circle cx="4.97" cy="-2.00" r="0.06" />
<circle cx="5.09" cy="-3.00" r="0.06" />
<circle cx="5.21" cy="-4.00" r="0.06" />
<circle cx="5.33" cy="-5.00" r="0.06" />
<circle cx="5.45" cy="-4.00" r="0.06" />
<circle cx="5.56" cy="-5.00" r="0.06" />
<circle cx="5.68" cy="-6.00" r="0.06" />
<circle cx="5.80" cy="-5.00" r="0.06" />
<circle cx="5.92" cy="-6.00" r="0.06" />
<circle cx="6.04" cy="-5.00" r="0.06" />
<circle cx="6.16" cy="-6.00" r="0.06" />
<circle cx="6.27" cy="-7.00" r="0.06" />
<circle cx="6.39" cy="-6.00" r="0.06" />
<circle cx="6.51" cy="-5.00" r="0.06" />
<circle cx="6.63" cy="-4.00" r="0.06" />
<circle cx="6.75" cy="-3.00" r="0.06" />
<circle cx="6.87" cy="-2.00" r="0.06" />
<circle cx="6.99" cy="-3.00" r="0.06" />
<circle cx="7.10" cy="-2.00" r="0.06" />
<circle cx="7.22" cy="-3.00" r="0.06" />
<circle cx="7.34" cy="-2.00" r="0.06" />
<circle cx="7.46" cy="-3.00" r="0.06" />
<circle cx="7.58" cy="-2.00" r="0.06" />
<circle cx="7.70" cy="-1.00" r="0.06" />
<circle cx="7.81" cy="-2.00" r="0.06" />
<circle cx="7.93" cy="-3.00" r="0.06" />
<circle cx="8.05" cy="-4.00" r="0.06" />
<circle cx="8.17" cy="-3.00" r="0.06" />
<circle cx="8.29" cy="-4.00" r="0.06" />
<circle cx="8.41" cy="-5.00" r="0.06" />
<circle cx="8.52" cy="-6.00" r="0.06" />
<circle cx="8.64" cy="-7.00" r="0.06" />
<circle cx="8.76" cy="-6.00" r="0.06" />
<circle cx="8.88" cy="-7.00" r="0.06" />
<circle cx="9.00" cy="-8.00" r="0.06" />
<circle cx="9.12" cy="-7.00" r="0.06" />
<circle cx="9.23" cy="-8.00" r="0.06" />
<circle cx="9.35" cy="-9.00" r="0.06" />
<circle cx="9.47" cy="-10.00" r="0.06" />
<circle cx="9.59" cy="-9.00" r="0.06" />
<circle cx="9.71" cy="-8.00" r="0.06" />
<circle cx="9.83" cy="-9.00" r="0.06" />
<circle cx="9.94" cy="-8.00" r="0.06" />
<circle cx="10.06" cy="-7.00" r="0.06" />
<circle cx="10.18" cy="-6.00" r="0.06" />
<circle cx="10.30" cy="-5.00" r="0.06" />
<circle cx="10.42" cy="-4.00" r="0.06" />
<circle cx="10.54" cy="-5.00" r="0.06" />
<circle cx="10.66" cy="-4.00" r="0.06" />
<circle cx="10.77" cy="-3.00" r="0.06" />
<circle cx="10.89" cy="-4.00" r="0.06" />
<circle cx="11.01" cy="-3.00" r="0.06" />
<circle cx="11.13" cy="-2.00" r="0.06" />
<circle cx="11.25" cy="-1.00" r="0.06" />
<circle cx="11.37" cy="0.00" r="0.06" />
<circle cx="11.48" cy="-1.00" r="0.06" />
<circle cx="11.60" cy="-2.00" r="0.06" />
<circle cx="11.72" cy="-3.00" r="0.06" />
<circle cx="11.84" cy="-2.00" r="0.06" />
<circle cx="11.96" cy="-3.00" r="0.06" />
<circle cx="12.08" cy="-4.00" r="0.06" />
<circle cx="12.19" cy="-5.00" r="0.06" />
<circle cx="12.31" cy="-4.00" r="0.06" />
<circle cx="12.43" cy="-5.00" r="0.06" />
<circle cx="12.55" cy="-4.00" r="0.06" />
<circle cx="12.67" cy="-5.00" r="0.06" />
<circle cx="12.79" cy="-6.00" r="0.06" />
<circle cx="12.90" cy="-7.00" r="0.06" />
<circle cx="13.02" cy="-8.00" r="0.06" />
<circle cx="13.14" cy="-7.00" r="0.06" />
<circle cx="13.26" cy="-8.00" r="0.06" />
<circle cx="13.38" cy="-9.00" r="0.06" />
<circle cx="13.50" cy="-10.00" r="0.06" />
<circle cx="13.62" cy="-9.00" r="0.06" />
<circle cx="13.73" cy="-10.00" r="0.06" />
<circle cx="13.85" cy="-11.00" r="0.06" />
<circle cx="13.97" cy="-10.00" r="0.06" />
<circle cx="14.09" cy="-9.00" r="0.06" />
<circle cx="14.21" cy="-10.00" r="0.06" />
<circle cx="14.33" cy="-9.00" r="0.06" />
<circle cx="14.44" cy="-8.00" r="0.06" />
<circle cx="14.56" cy="-7.00" r="0.06" />
<circle cx="14.68" cy="-8.00" r="0.06" />
<circle cx="14.80" cy="-9.00" r="0.06" />
<circle cx="14.92" cy="-8.00" r="0.06" />
<circle cx="15.04" cy="-9.00" r="0.06" />
<circle cx="15.15" cy="-10.00" r="0.06" />
<circle cx="15.27" cy="-9.00" r="0.06" />
<circle cx="15.39" cy="-10.00" r="0.06" />
<circle cx="15.51" cy="-11.00" r="0.06" />
<circle cx="15.63" cy="-10.00" r="0.06" />
<circle cx="15.75" cy="-9.00" r="0.06" />
<circle cx="15.86" cy="-8.00" r="0.06" />
<circle cx="15.98" cy="-7.00" r="0.06" />
<circle cx="16.10" cy="-6.00" r="0.06" />
<circle cx="16.22" cy="-7.00" r="0.06" />
<circle cx="16.34" cy="-8.00" r="0.06" />
<circle cx="16.46" cy="-9.00" r="0.06" />
<circle cx="16.57" cy="-8.00" r="0.06" />
<circle cx="16.69" cy="-7.00" r="0.06" />
<circle cx="16.81" cy="-6.00" r="0.06" />
<circle cx="16.93" cy="-5.00" r="0.06" />
<circle cx="17.05" cy="-4.00" r="0.06" />
<circle cx="17.17" cy="-3.00" r="0.06" />
<circle cx="17.29" cy="-2.00" r="0.06" />
<circle cx="17.40" cy="-3.00" r="0.06" />
<circle cx="17.52" cy="-4.00" r="0.06" />
<circle cx="17.64" cy="-5.00" r="0.06" />
<circle cx="17.76" cy="-4.00" r="0.06" />
<circle cx="17.88" cy="-5.00" r="0.06" />
<circle cx="18.00" cy="-4.00" r="0.06" />
<circle cx="18.11" cy="-5.00" r="0.06" />
<circle cx="18.23" cy="-6.00" r="0.06" />
<circle cx="18.35" cy="-5.00" r="0.06" />
<circle cx="18.47" cy="-4.00" r="0.06" />
<circle cx="18.59" cy="-5.00" r="0.06" />
<circle cx="18.71" cy="-4.00" r="0.06" />
<circle cx="18.82" cy="-3.00" r="0.06" />
<circle cx="18.94" cy="-2.00" r="0.06" />
<circle cx="19.06" cy="-1.00" r="0.06" />
<circle cx="19.18" cy="-2.00" r="0.06" />
<circle cx="19.30" cy="-3.00" r="0.06" />
<circle cx="19.42" cy="-4.00" r="0.06" />
<circle cx="19.53" cy="-5.00" r="0.06" />
</g>
</svg>