<svg xmlns="http://www.w3.org/2000/svg" width="161.8" height="100.0" viewBox="-3 -5 172 110">
<g fill="none" stroke="black" stroke-width="14.0050%" transform="translate(0, 100.2856) scale(0.0357, -0.0357)">
<circle cx="70" cy="4" r="14" />
<circle cx="139" cy="9" r="14" />
<circle cx="209" cy="14" r="14" />
<circle cx="279" cy="21" r="14" />
<circle cx="349" cy="32" r="14" />
<circle cx="418" cy="33" r="14" />
<circle cx="488" cy="54" r="14" />
<circle cx="558" cy="77" r="14" />
<circle cx="628" cy="80" r="14" />
<circle cx="697" cy="81" r="14" />
<circle cx="767" cy="118" r="14" />
<circle cx="837" cy="177" r="14" />
<circle cx="906" cy="182" r="14" />
<circle cx="976" cy="183" r="14" />
<circle cx="1046" cy="194" r="14" />
<circle cx="1116" cy="201" r="14" />
<circle cx="1185" cy="284" r="14" />
<circle cx="1255" cy="285" r="14" />
<circle cx="1325" cy="286" r="14" />
<circle cx="1394" cy="287" r="14" />
<circle cx="1464" cy="294" r="14" />
<circle cx="1534" cy="441" r="14" />
<circle cx="1604" cy="444" r="14" />
<circle cx="1673" cy="469" r="14" />
<circle cx="1743" cy="662" r="14" />
<circle cx="1813" cy="679" r="14" />
<circle cx="1883" cy="684" r="14" />
<circle cx="1952" cy="685" r="14" />
<circle cx="2022" cy="1076" r="14" />
<circle cx="2092" cy="1077" r="14" />
<circle cx="2161" cy="1088" r="14" />
<circle cx="2231" cy="1089" r="14" />
<circle cx="2301" cy="1092" r="14" />
<circle cx="2371" cy="1093" r="14" />
<circle cx="2440" cy="1094" r="14" />
<circle cx="2510" cy="1107" r="14" />
<circle cx="2580" cy="1110" r="14" />
<circle cx="2650" cy="1129" r="14" />
<circle cx="2719" cy="1130" r="14" />
<circle cx="2789" cy="1131" r="14" />
<circle cx="2859" cy="1132" r="14" />
<circle cx="2928" cy="1133" r="14" />
<circle cx="2998" cy="1638" r="14" />
<circle cx="3068" cy="1639" r="14" />
<circle cx="3138" cy="1754" r="14" />
<circle cx="3207" cy="1757" r="14" />
<circle cx="3277" cy="1760" r="14" />
<circle cx="3347" cy="1761" r="14" />
<circle cx="3417" cy="2700" r="14" />
<circle cx="3486" cy="2701" r="14" />
<circle cx="3556" cy="2704" r="14" />
<circle cx="3626" cy="2713" r="14" />
<circle cx="3695" cy="2714" r="14" />
<circle cx="3765" cy="2715" r="14" />
<circle cx="3835" cy="2716" r="14" />
<circle cx="3905" cy="2721" r="14" />
<circle cx="3974" cy="2732" r="14" />
<circle cx="4044" cy="2733" r="14" />
<circle cx="4114" cy="2740" r="14" />
<circle cx="4183" cy="2743" r="14" />
<circle cx="4253" cy="2770" r="14" />
<circle cx="4323" cy="2771" r="14" />
<circle cx="4393" cy="2802" r="14" />
<circle cx="4462" cy="2803" r="14" />
<circle cx="4532" cy="2804" r="14" />
<circle cx="4602" cy="2805" r="14" />
</g>
</svg>