<svg xmlns="http://www.w3.org/2000/svg" width="161.8" height="100.0" viewBox="-2.472 -5.000 171.803 110.000">
<g fill="none" stroke="black" stroke-width="0.0050%" transform="translate(0, 100.0000) scale(100.0000, -100.0000)">

<line x1="0.051" y1="0.000" x2="0.051" y2="1.000" />
<line x1="0.076" y1="0.000" x2="0.076" y2="1.000" />

<line x1="0.126" y1="0.000" x2="0.126" y2="1.000" />

<line x1="0.177" y1="0.000" x2="0.177" y2="1.000" />
<line x1="0.202" y1="0.000" x2="0.202" y2="1.000" />


<line x1="0.278" y1="0.000" x2="0.278" y2="1.000" />
<line x1="0.303" y1="0.000" x2="0.303" y2="1.000" />
<line x1="0.329" y1="0.000" x2="0.329" y2="1.000" />



<line x1="0.430" y1="0.000" x2="0.430" y2="1.000" />
<line x1="0.455" y1="0.000" x2="0.455" y2="1.000" />
<line x1="0.480" y1="0.000" x2="0.480" y2="1.000" />
<line x1="0.506" y1="0.000" x2="0.506" y2="1.000" />


<line x1="0.581" y1="0.000" x2="0.581" y2="1.000" />



<line x1="0.683" y1="0.000" x2="0.683" y2="1.000" />
<line x1="0.708" y1="0.000" x2="0.708" y2="1.000" />
<line x1="0.733" y1="0.000" x2="0.733" y2="1.000" />
<line x1="0.758" y1="0.000" x2="0.758" y2="1.000" />
<line x1="0.784" y1="0.000" x2="0.784" y2="1.000" />
<line x1="0.809" y1="0.000" x2="0.809" y2="1.000" />




<line x1="0.935" y1="0.000" x2="0.935" y2="1.000" />



<line x1="1.037" y1="0.000" x2="1.037" y2="1.000" />
<line x1="1.062" y1="0.000" x2="1.062" y2="1.000" />
<line x1="1.087" y1="0.000" x2="1.087" y2="1.000" />
<line x1="1.112" y1="0.000" x2="1.112" y2="1.000" />
<line x1="1.138" y1="0.000" x2="1.138" y2="1.000" />

<line x1="1.188" y1="0.000" x2="1.188" y2="1.000" />
<line x1="1.214" y1="0.000" x2="1.214" y2="1.000" />

<line x1="1.264" y1="0.000" x2="1.264" y2="1.000" />

<line x1="1.315" y1="0.000" x2="1.315" y2="1.000" />
<line x1="1.340" y1="0.000" x2="1.340" y2="1.000" />





<line x1="1.492" y1="0.000" x2="1.492" y2="1.000" />

<line x1="1.542" y1="0.000" x2="1.542" y2="1.000" />

<line x1="1.593" y1="0.000" x2="1.593" y2="1.000" />


</g>
</svg>