<svg xmlns="http://www.w3.org/2000/svg" width="161.8" height="100.0" viewBox="-3.581 -55.000 171.803 110.000">
<g fill="none" stroke="black" stroke-width="0.0100%" transform="translate(0, 0.0000) scale(50.0000, -50.0000)">
<line x1="0.028" y1="0.000" x2="0.028" y2="1.000" />
<line x1="0.057" y1="0.000" x2="0.057" y2="-1.000" />
<line x1="0.085" y1="0.000" x2="0.085" y2="-1.000" />
<line x1="0.114" y1="0.000" x2="0.114" y2="1.000" />
<line x1="0.142" y1="0.000" x2="0.142" y2="-1.000" />
<line x1="0.170" y1="0.000" x2="0.170" y2="1.000" />
<line x1="0.199" y1="0.000" x2="0.199" y2="-1.000" />
<line x1="0.227" y1="0.000" x2="0.227" y2="-1.000" />
<line x1="0.255" y1="0.000" x2="0.255" y2="1.000" />
<line x1="0.284" y1="0.000" x2="0.284" y2="1.000" />
<line x1="0.312" y1="0.000" x2="0.312" y2="-1.000" />
<line x1="0.341" y1="0.000" x2="0.341" y2="-1.000" />
<line x1="0.369" y1="0.000" x2="0.369" y2="-1.000" />
<line x1="0.397" y1="0.000" x2="0.397" y2="1.000" />
<line x1="0.426" y1="0.000" x2="0.426" y2="1.000" />
<line x1="0.454" y1="0.000" x2="0.454" y2="1.000" />
<line x1="0.483" y1="0.000" x2="0.483" y2="-1.000" />
<line x1="0.511" y1="0.000" x2="0.511" y2="-1.000" />
<line x1="0.539" y1="0.000" x2="0.539" y2="-1.000" />
<line x1="0.568" y1="0.000" x2="0.568" y2="-1.000" />
<line x1="0.596" y1="0.000" x2="0.596" y2="1.000" />
<line x1="0.625" y1="0.000" x2="0.625" y2="1.000" />
<line x1="0.653" y1="0.000" x2="0.653" y2="-1.000" />
<line x1="0.681" y1="0.000" x2="0.681" y2="1.000" />
<line x1="0.710" y1="0.000" x2="0.710" y2="1.000" />
<line x1="0.738" y1="0.000" x2="0.738" y2="1.000" />
<line x1="0.766" y1="0.000" x2="0.766" y2="-1.000" />
<line x1="0.795" y1="0.000" x2="0.795" y2="-1.000" />
<line x1="0.823" y1="0.000" x2="0.823" y2="-1.000" />
<line x1="0.852" y1="0.000" x2="0.852" y2="-1.000" />
<line x1="0.880" y1="0.000" x2="0.880" y2="-1.000" />
<line x1="0.908" y1="0.000" x2="0.908" y2="-1.000" />
<line x1="0.937" y1="0.000" x2="0.937" y2="1.000" />
<line x1="0.965" y1="0.000" x2="0.965" y2="1.000" />
<line x1="0.994" y1="0.000" x2="0.994" y2="1.000" />
<line x1="1.022" y1="0.000" x2="1.022" y2="1.000" />
<line x1="1.050" y1="0.000" x2="1.050" y2="-1.000" />
<line x1="1.079" y1="0.000" x2="1.079" y2="1.000" />
<line x1="1.107" y1="0.000" x2="1.107" y2="1.000" />
<line x1="1.135" y1="0.000" x2="1.135" y2="1.000" />
<line x1="1.164" y1="0.000" x2="1.164" y2="-1.000" />
<line x1="1.192" y1="0.000" x2="1.192" y2="-1.000" />
<line x1="1.221" y1="0.000" x2="1.221" y2="-1.000" />
<line x1="1.249" y1="0.000" x2="1.249" y2="-1.000" />
<line x1="1.277" y1="0.000" x2="1.277" y2="-1.000" />
<line x1="1.306" y1="0.000" x2="1.306" y2="1.000" />
<line x1="1.334" y1="0.000" x2="1.334" y2="-1.000" />
<line x1="1.363" y1="0.000" x2="1.363" y2="-1.000" />
<line x1="1.391" y1="0.000" x2="1.391" y2="1.000" />
<line x1="1.419" y1="0.000" x2="1.419" y2="-1.000" />
<line x1="1.448" y1="0.000" x2="1.448" y2="1.000" />
<line x1="1.476" y1="0.000" x2="1.476" y2="-1.000" />
<line x1="1.504" y1="0.000" x2="1.504" y2="-1.000" />
<line x1="1.533" y1="0.000" x2="1.533" y2="1.000" />
<line x1="1.561" y1="0.000" x2="1.561" y2="1.000" />
<line x1="1.590" y1="0.000" x2="1.590" y2="1.000" />
<line x1="1.618" y1="0.000" x2="1.618" y2="1.000" />
<line x1="1.646" y1="0.000" x2="1.646" y2="1.000" />
<line x1="1.675" y1="0.000" x2="1.675" y2="-1.000" />
<line x1="1.703" y1="0.000" x2="1.703" y2="1.000" />
<line x1="1.732" y1="0.000" x2="1.732" y2="-1.000" />
<line x1="1.760" y1="0.000" x2="1.760" y2="1.000" />
<line x1="1.788" y1="0.000" x2="1.788" y2="-1.000" />
<line x1="1.817" y1="0.000" x2="1.817" y2="1.000" />
<line x1="1.845" y1="0.000" x2="1.845" y2="1.000" />
<line x1="1.874" y1="0.000" x2="1.874" y2="-1.000" />
<line x1="1.902" y1="0.000" x2="1.902" y2="-1.000" />
<line x1="1.930" y1="0.000" x2="1.930" y2="-1.000" />
<line x1="1.959" y1="0.000" x2="1.959" y2="1.000" />
<line x1="1.987" y1="0.000" x2="1.987" y2="-1.000" />
<line x1="2.015" y1="0.000" x2="2.015" y2="-1.000" />
<line x1="2.044" y1="0.000" x2="2.044" y2="-1.000" />
<line x1="2.072" y1="0.000" x2="2.072" y2="-1.000" />
<line x1="2.101" y1="0.000" x2="2.101" y2="1.000" />
<line x1="2.129" y1="0.000" x2="2.129" y2="-1.000" />
<line x1="2.157" y1="0.000" x2="2.157" y2="-1.000" />
<line x1="2.186" y1="0.000" x2="2.186" y2="1.000" />
<line x1="2.214" y1="0.000" x2="2.214" y2="-1.000" />
<line x1="2.243" y1="0.000" x2="2.243" y2="-1.000" />
<line x1="2.271" y1="0.000" x2="2.271" y2="-1.000" />
<line x1="2.299" y1="0.000" x2="2.299" y2="1.000" />
<line x1="2.328" y1="0.000" x2="2.328" y2="1.000" />
<line x1="2.356" y1="0.000" x2="2.356" y2="-1.000" />
<line x1="2.384" y1="0.000" x2="2.384" y2="1.000" />
<line x1="2.413" y1="0.000" x2="2.413" y2="1.000" />
<line x1="2.441" y1="0.000" x2="2.441" y2="1.000" />
<line x1="2.470" y1="0.000" x2="2.470" y2="1.000" />
<line x1="2.498" y1="0.000" x2="2.498" y2="1.000" />
<line x1="2.526" y1="0.000" x2="2.526" y2="-1.000" />
<line x1="2.555" y1="0.000" x2="2.555" y2="1.000" />
<line x1="2.583" y1="0.000" x2="2.583" y2="1.000" />
<line x1="2.612" y1="0.000" x2="2.612" y2="-1.000" />
<line x1="2.640" y1="0.000" x2="2.640" y2="1.000" />
<line x1="2.668" y1="0.000" x2="2.668" y2="1.000" />
<line x1="2.697" y1="0.000" x2="2.697" y2="1.000" />
<line x1="2.725" y1="0.000" x2="2.725" y2="1.000" />
<line x1="2.753" y1="0.000" x2="2.753" y2="-1.000" />
<line x1="2.782" y1="0.000" x2="2.782" y2="-1.000" />
<line x1="2.810" y1="0.000" x2="2.810" y2="-1.000" />
<line x1="2.839" y1="0.000" x2="2.839" y2="1.000" />
<line x1="2.867" y1="0.000" x2="2.867" y2="-1.000" />
<line x1="2.895" y1="0.000" x2="2.895" y2="-1.000" />
<line x1="2.924" y1="0.000" x2="2.924" y2="-1.000" />
<line x1="2.952" y1="0.000" x2="2.952" y2="1.000" />
<line x1="2.981" y1="0.000" x2="2.981" y2="-1.000" />
<line x1="3.009" y1="0.000" x2="3.009" y2="1.000" />
<line x1="3.037" y1="0.000" x2="3.037" y2="-1.000" />
<line x1="3.066" y1="0.000" x2="3.066" y2="-1.000" />
<line x1="3.094" y1="0.000" x2="3.094" y2="-1.000" />
<line x1="3.123" y1="0.000" x2="3.123" y2="-1.000" />
<line x1="3.151" y1="0.000" x2="3.151" y2="1.000" />
<line x1="3.179" y1="0.000" x2="3.179" y2="-1.000" />
<line x1="3.208" y1="0.000" x2="3.208" y2="-1.000" />
<line x1="3.236" y1="0.000" x2="3.236" y2="-1.000" />
<line x1="3.264" y1="0.000" x2="3.264" y2="1.000" />
</g>
</svg>