<svg xmlns="http://www.w3.org/2000/svg" width="100.2" height="100.0" viewBox="-55.099 -55.000 110.198 110.000">
<g fill="none" stroke="black" stroke-width="0.0100%" transform="translate(0, 0.0000) scale(50.0989, -50.0989)">
<polyline points="1.000,0.000 0.982,0.125 0.930,0.249 0.844,0.368 0.729,0.482 0.588,0.588 0.426,0.685 0.249,0.771 0.063,0.844 -0.125,0.905 -0.309,0.951 -0.482,0.982 -0.637,0.998 -0.771,0.998 -0.876,0.982 -0.951,0.951 -0.992,0.905 -0.998,0.844 -0.969,0.771 -0.905,0.685 -0.809,0.588 -0.685,0.482 -0.536,0.368 -0.368,0.249 -0.187,0.125 0.000,-0.000 0.187,-0.125 0.368,-0.249 0.536,-0.368 0.685,-0.482 0.809,-0.588 0.905,-0.685 0.969,-0.771 0.998,-0.844 0.992,-0.905 0.951,-0.951 0.876,-0.982 0.771,-0.998 0.637,-0.998 0.482,-0.982 0.309,-0.951 0.125,-0.905 -0.063,-0.844 -0.249,-0.771 -0.426,-0.685 -0.588,-0.588 -0.729,-0.482 -0.844,-0.368 -0.930,-0.249 -0.982,-0.125 -1.000,0.000 -0.982,0.125 -0.930,0.249 -0.844,0.368 -0.729,0.482 -0.588,0.588 -0.426,0.685 -0.249,0.771 -0.063,0.844 0.125,0.905 0.309,0.951 0.482,0.982 0.637,0.998 0.771,0.998 0.876,0.982 0.951,0.951 0.992,0.905 0.998,0.844 0.969,0.771 0.905,0.685 0.809,0.588 0.685,0.482 0.536,0.368 0.368,0.249 0.187,0.125 0.000,0.000 -0.187,-0.125 -0.368,-0.249 -0.536,-0.368 -0.685,-0.482 -0.809,-0.588 -0.905,-0.685 -0.969,-0.771 -0.998,-0.844 -0.992,-0.905 -0.951,-0.951 -0.876,-0.982 -0.771,-0.998 -0.637,-0.998 -0.482,-0.982 -0.309,-0.951 -0.125,-0.905 0.063,-0.844 0.249,-0.771 0.426,-0.685 0.588,-0.588 0.729,-0.482 0.844,-0.368 0.930,-0.249 0.982,-0.125" />
</g>
</svg>