<svg xmlns="http://www.w3.org/2000/svg" width="161.8" height="100.0" viewBox="18.35 -5.32 171.80 110.00">
<g fill="none" stroke="black" stroke-width="0.0188%" transform="translate(0, 99.3664) scale(26.5434, -26.5434)">
<polyline points="0.88,3.50 0.94,3.42 1.00,3.30 1.06,3.17 1.13,3.02 1.19,2.86 1.25,2.69 1.31,2.51 1.37,2.33 1.43,2.16 1.50,2.00 1.56,1.85 1.62,1.71 1.68,1.60 1.74,1.52 1.80,1.46 1.86,1.43 1.93,1.42 1.99,1.42 2.05,1.44 2.11,1.47 2.17,1.51 2.23,1.56 2.30,1.60 2.36,1.65 2.42,1.69 2.48,1.72 2.54,1.74 2.60,1.75 2.67,1.74 2.73,1.72 2.79,1.67 2.85,1.62 2.91,1.55 2.97,1.48 3.03,1.41 3.10,1.34 3.16,1.28 3.22,1.23 3.28,1.19 3.34,1.17 3.40,1.17 3.47,1.20 3.53,1.26 3.59,1.37 3.65,1.52 3.71,1.72 3.77,1.94 3.84,2.19 3.90,2.44 3.96,2.70 4.02,2.95 4.08,3.19 4.14,3.39 4.20,3.56 4.27,3.68 4.33,3.75 4.39,3.76 4.45,3.68 4.51,3.52 4.57,3.30 4.64,3.02 4.70,2.70 4.76,2.35 4.82,1.98 4.88,1.61 4.94,1.25 5.01,0.91 5.07,0.60 5.13,0.35 5.19,0.15 5.25,0.03 5.31,-0.01 5.37,0.03 5.44,0.13 5.50,0.29 5.56,0.49 5.62,0.72 5.68,0.97 5.74,1.24 5.81,1.51 5.87,1.76 5.93,2.00 5.99,2.20 6.05,2.36 6.11,2.46 6.17,2.51 6.24,2.49 6.30,2.44 6.36,2.35 6.42,2.23 6.48,2.09 6.54,1.93 6.61,1.76 6.67,1.58 6.73,1.40 6.79,1.23 6.85,1.08 6.91,0.94 6.98,0.83" />
</g>
</svg>