<svg xmlns="http://www.w3.org/2000/svg" width="161.8" height="100.0" viewBox="41.70 -5.93 171.80 110.00">
<g fill="none" stroke="black" stroke-width="0.0192%" transform="translate(0, 98.1467) scale(26.0652, -26.0652)">
<circle cx="1.79" cy="0.00" r="0.02" />
<polyline points="1.79,3.50 1.85,3.36 1.92,3.22 1.98,3.07 2.04,2.93 2.11,2.78 2.17,2.63 2.23,2.49 2.29,2.35 2.36,2.20 2.42,2.06 2.48,1.93 2.54,1.79 2.61,1.66 2.67,1.54 2.73,1.42 2.79,1.35 2.86,1.31 2.92,1.31 2.98,1.32 3.05,1.36 3.11,1.41 3.17,1.47 3.23,1.54 3.30,1.60 3.36,1.66 3.42,1.71 3.48,1.74 3.55,1.76 3.61,1.74 3.67,1.70 3.74,1.63 3.80,1.56 3.86,1.47 3.92,1.37 3.99,1.28 4.05,1.20 4.11,1.12 4.17,1.07 4.24,1.04 4.30,1.04 4.36,1.07 4.43,1.15 4.49,1.27 4.55,1.44 4.61,1.64 4.68,1.87 4.74,2.13 4.80,2.39 4.86,2.65 4.93,2.91 4.99,3.15 5.05,3.36 5.11,3.54 5.18,3.68 5.24,3.77 5.30,3.80 5.37,3.76 5.43,3.65 5.49,3.47 5.55,3.24 5.62,2.96 5.68,2.65 5.74,2.32 5.80,1.97 5.87,1.63 5.93,1.28 5.99,0.96 6.06,0.66 6.12,0.40 6.18,0.19 6.24,0.04 6.31,-0.04 6.37,-0.03 6.43,0.04 6.49,0.18 6.56,0.37 6.62,0.59 6.68,0.85 6.75,1.12 6.81,1.39 6.87,1.66 6.93,1.91 7.00,2.13 7.06,2.32 7.12,2.45 7.18,2.51 7.25,2.53 7.31,2.50 7.37,2.44 7.43,2.34 7.50,2.22 7.56,2.07 7.62,1.91 7.69,1.74 7.75,1.56 7.81,1.38 7.87,1.20 7.94,1.04 8.00,0.88" />
</g>
</svg>