<svg xmlns="http://www.w3.org/2000/svg" width="158.2" height="100.0" viewBox="-2 -5 168 110">
<g fill="none" stroke="black" stroke-width="284.0450%" transform="translate(0, 100.0000) scale(0.0018, -0.0018)">
<line x1="1523" y1="0" x2="1523" y2="1259" />
<line x1="3047" y1="0" x2="3047" y2="1361" />
<line x1="4570" y1="0" x2="4570" y2="2027" />
<line x1="6094" y1="0" x2="6094" y2="2267" />
<line x1="7617" y1="0" x2="7617" y2="2633" />
<line x1="9141" y1="0" x2="9141" y2="3137" />
<line x1="10664" y1="0" x2="10664" y2="3389" />
<line x1="12187" y1="0" x2="12187" y2="4057" />
<line x1="13711" y1="0" x2="13711" y2="5153" />
<line x1="15234" y1="0" x2="15234" y2="6257" />
<line x1="16758" y1="0" x2="16758" y2="6553" />
<line x1="18281" y1="0" x2="18281" y2="7013" />
<line x1="19804" y1="0" x2="19804" y2="7451" />
<line x1="21328" y1="0" x2="21328" y2="7901" />
<line x1="22851" y1="0" x2="22851" y2="9907" />
<line x1="24375" y1="0" x2="24375" y2="10499" />
<line x1="25898" y1="0" x2="25898" y2="10799" />
<line x1="27422" y1="0" x2="27422" y2="10949" />
<line x1="28945" y1="0" x2="28945" y2="11579" />
<line x1="30468" y1="0" x2="30468" y2="12401" />
<line x1="31992" y1="0" x2="31992" y2="14369" />
<line x1="33515" y1="0" x2="33515" y2="15013" />
<line x1="35039" y1="0" x2="35039" y2="15329" />
<line x1="36562" y1="0" x2="36562" y2="17377" />
<line x1="38086" y1="0" x2="38086" y2="17903" />
<line x1="39609" y1="0" x2="39609" y2="18251" />
<line x1="41132" y1="0" x2="41132" y2="18427" />
<line x1="42656" y1="0" x2="42656" y2="19309" />
<line x1="44179" y1="0" x2="44179" y2="22441" />
<line x1="45703" y1="0" x2="45703" y2="24023" />
<line x1="47226" y1="0" x2="47226" y2="25057" />
<line x1="48749" y1="0" x2="48749" y2="25229" />
<line x1="50273" y1="0" x2="50273" y2="26041" />
<line x1="51796" y1="0" x2="51796" y2="26699" />
<line x1="53320" y1="0" x2="53320" y2="28111" />
<line x1="54843" y1="0" x2="54843" y2="29017" />
<line x1="56367" y1="0" x2="56367" y2="29207" />
<line x1="57890" y1="0" x2="57890" y2="30707" />
<line x1="59413" y1="0" x2="59413" y2="32939" />
<line x1="60937" y1="0" x2="60937" y2="35051" />
<line x1="62460" y1="0" x2="62460" y2="36583" />
<line x1="63984" y1="0" x2="63984" y2="40841" />
<line x1="65507" y1="0" x2="65507" y2="41203" />
<line x1="67030" y1="0" x2="67030" y2="43517" />
<line x1="68554" y1="0" x2="68554" y2="43951" />
<line x1="70077" y1="0" x2="70077" y2="44159" />
<line x1="71601" y1="0" x2="71601" y2="45751" />
<line x1="73124" y1="0" x2="73124" y2="48239" />
<line x1="74648" y1="0" x2="74648" y2="49369" />
<line x1="76171" y1="0" x2="76171" y2="51631" />
<line x1="77694" y1="0" x2="77694" y2="51797" />
<line x1="79218" y1="0" x2="79218" y2="52147" />
<line x1="80741" y1="0" x2="80741" y2="52757" />
<line x1="82265" y1="0" x2="82265" y2="53171" />
<line x1="83788" y1="0" x2="83788" y2="53381" />
<line x1="85312" y1="0" x2="85312" y2="53783" />
<line x1="86835" y1="0" x2="86835" y2="53987" />
<line x1="88358" y1="0" x2="88358" y2="54577" />
<line x1="89882" y1="0" x2="89882" y2="55987" />
<line x1="91405" y1="0" x2="91405" y2="56809" />
</g>
</svg>