<svg xmlns="http://www.w3.org/2000/svg" width="161.8" height="100.0" viewBox="18.35 -5.00 171.80 110.00">
<g fill="none" stroke="black" stroke-width="0.0187%" transform="translate(0, 100.0000) scale(26.6667, -26.6667)">
<circle cx="0.88" cy="0.00" r="0.02" />
<polyline points="0.88,3.50 0.94,3.50 1.00,3.50 1.06,3.50 1.12,3.50 1.18,3.50 1.24,3.50 1.30,3.50 1.37,1.50 1.43,1.50 1.49,1.50 1.55,1.50 1.61,1.50 1.67,1.50 1.73,1.50 1.79,1.50 1.86,1.50 1.92,1.50 1.98,1.50 2.04,1.50 2.10,1.50 2.16,1.50 2.22,1.75 2.29,1.75 2.35,1.75 2.41,1.75 2.47,1.75 2.53,1.75 2.59,1.75 2.65,1.75 2.71,1.75 2.78,1.75 2.84,1.75 2.90,1.75 2.96,1.75 3.02,1.75 3.08,1.25 3.14,1.25 3.20,1.25 3.27,1.25 3.33,1.25 3.39,1.25 3.45,1.25 3.51,1.25 3.57,1.25 3.63,1.25 3.69,1.25 3.76,1.25 3.82,1.25 3.88,1.25 3.94,1.25 4.00,3.75 4.06,3.75 4.12,3.75 4.19,3.75 4.25,3.75 4.31,3.75 4.37,3.75 4.43,3.75 4.49,3.75 4.55,3.75 4.61,3.75 4.68,3.75 4.74,3.75 4.80,3.75 4.86,0.00 4.92,0.00 4.98,0.00 5.04,0.00 5.10,0.00 5.17,0.00 5.23,0.00 5.29,0.00 5.35,0.00 5.41,0.00 5.47,0.00 5.53,0.00 5.59,0.00 5.66,0.00 5.72,2.50 5.78,2.50 5.84,2.50 5.90,2.50 5.96,2.50 6.02,2.50 6.09,2.50 6.15,2.50 6.21,2.50 6.27,2.50 6.33,2.50 6.39,2.50 6.45,2.50 6.51,2.50 6.58,0.75 6.64,0.75 6.70,0.75 6.76,0.75 6.82,0.75 6.88,0.75 6.94,0.75" />
</g>
</svg>