<svg xmlns="http://www.w3.org/2000/svg" width="161.8" height="100.0" viewBox="18.11 -5.00 171.80 110.00">
<g fill="none" stroke="black" stroke-width="0.0187%" transform="translate(0, 100.0000) scale(26.6667, -26.6667)">
<polyline points="0.87,1.50 0.93,1.50 0.99,1.50 1.05,1.50 1.11,1.50 1.17,1.50 1.23,1.50 1.29,1.50 1.35,1.50 1.41,1.50 1.47,1.50 1.53,1.50 1.59,1.50 1.66,1.50 1.72,1.50 1.78,1.75 1.84,1.75 1.90,1.75 1.96,1.75 2.02,1.75 2.08,1.75 2.14,1.75 2.20,1.75 2.26,1.75 2.32,1.75 2.38,1.75 2.44,1.75 2.51,1.75 2.57,1.75 2.63,1.25 2.69,1.25 2.75,1.25 2.81,1.25 2.87,1.25 2.93,1.25 2.99,1.25 3.05,1.25 3.11,1.25 3.17,1.25 3.23,1.25 3.29,1.25 3.35,1.25 3.42,1.25 3.48,3.75 3.54,3.75 3.60,3.75 3.66,3.75 3.72,3.75 3.78,3.75 3.84,3.75 3.90,3.75 3.96,3.75 4.02,3.75 4.08,3.75 4.14,3.75 4.20,3.75 4.26,3.75 4.33,3.75 4.39,0.00 4.45,0.00 4.51,0.00 4.57,0.00 4.63,0.00 4.69,0.00 4.75,0.00 4.81,0.00 4.87,0.00 4.93,0.00 4.99,0.00 5.05,0.00 5.11,0.00 5.17,0.00 5.24,2.50 5.30,2.50 5.36,2.50 5.42,2.50 5.48,2.50 5.54,2.50 5.60,2.50 5.66,2.50 5.72,2.50 5.78,2.50 5.84,2.50 5.90,2.50 5.96,2.50 6.02,2.50 6.08,0.75 6.15,0.75 6.21,0.75 6.27,0.75 6.33,0.75 6.39,0.75 6.45,0.75 6.51,0.75 6.57,0.75 6.63,0.75 6.69,0.75 6.75,0.75 6.81,0.75 6.87,0.75 6.93,0.75" />
</g>
</svg>