<svg xmlns="http://www.w3.org/2000/svg" width="161.8" height="100.0" viewBox="18.35 -5.00 171.80 110.00">
<g fill="none" stroke="black" stroke-width="0.0187%" transform="translate(0, 100.0000) scale(26.6667, -26.6667)">
<polyline points="0.88,1.50 0.94,1.50 1.00,1.50 1.06,1.50 1.12,1.50 1.18,1.50 1.24,1.50 1.30,1.50 1.37,1.50 1.43,1.50 1.49,1.50 1.55,1.50 1.61,1.50 1.67,1.50 1.73,1.50 1.79,1.75 1.86,1.75 1.92,1.75 1.98,1.75 2.04,1.75 2.10,1.75 2.16,1.75 2.22,1.75 2.29,1.75 2.35,1.75 2.41,1.75 2.47,1.75 2.53,1.75 2.59,1.75 2.65,1.25 2.71,1.25 2.78,1.25 2.84,1.25 2.90,1.25 2.96,1.25 3.02,1.25 3.08,1.25 3.14,1.25 3.20,1.25 3.27,1.25 3.33,1.25 3.39,1.25 3.45,1.25 3.51,3.75 3.57,3.75 3.63,3.75 3.69,3.75 3.76,3.75 3.82,3.75 3.88,3.75 3.94,3.75 4.00,3.75 4.06,3.75 4.12,3.75 4.19,3.75 4.25,3.75 4.31,3.75 4.37,3.75 4.43,0.00 4.49,0.00 4.55,0.00 4.61,0.00 4.68,0.00 4.74,0.00 4.80,0.00 4.86,0.00 4.92,0.00 4.98,0.00 5.04,0.00 5.10,0.00 5.17,0.00 5.23,0.00 5.29,2.50 5.35,2.50 5.41,2.50 5.47,2.50 5.53,2.50 5.59,2.50 5.66,2.50 5.72,2.50 5.78,2.50 5.84,2.50 5.90,2.50 5.96,2.50 6.02,2.50 6.09,2.50 6.15,0.75 6.21,0.75 6.27,0.75 6.33,0.75 6.39,0.75 6.45,0.75 6.51,0.75 6.58,0.75 6.64,0.75 6.70,0.75 6.76,0.75 6.82,0.75 6.88,0.75 6.94,0.75" />
</g>
</svg>