<svg xmlns="http://www.w3.org/2000/svg" width="161.8" height="100.0" viewBox="18.11 -5.00 171.80 110.00">
<g fill="none" stroke="black" stroke-width="0.0187%" transform="translate(0, 100.0000) scale(26.6667, -26.6667)">
<polyline points="0.87,3.50 0.93,3.50 0.99,3.50 1.05,3.50 1.11,3.50 1.17,3.50 1.23,3.50 1.29,3.50 1.35,3.50 1.41,3.50 1.47,3.50 1.53,3.50 1.59,3.50 1.66,3.50 1.72,3.50 1.78,1.50 1.84,1.50 1.90,1.50 1.96,1.50 2.02,1.50 2.08,1.50 2.14,1.50 2.20,1.50 2.26,1.50 2.32,1.50 2.38,1.50 2.44,1.50 2.51,1.50 2.57,1.50 2.63,1.75 2.69,1.75 2.75,1.75 2.81,1.75 2.87,1.75 2.93,1.75 2.99,1.75 3.05,1.75 3.11,1.75 3.17,1.75 3.23,1.75 3.29,1.75 3.35,1.75 3.42,1.75 3.48,1.25 3.54,1.25 3.60,1.25 3.66,1.25 3.72,1.25 3.78,1.25 3.84,1.25 3.90,1.25 3.96,1.25 4.02,1.25 4.08,1.25 4.14,1.25 4.20,1.25 4.26,1.25 4.33,1.25 4.39,3.75 4.45,3.75 4.51,3.75 4.57,3.75 4.63,3.75 4.69,3.75 4.75,3.75 4.81,3.75 4.87,3.75 4.93,3.75 4.99,3.75 5.05,3.75 5.11,3.75 5.17,3.75 5.24,0.00 5.30,0.00 5.36,0.00 5.42,0.00 5.48,0.00 5.54,0.00 5.60,0.00 5.66,0.00 5.72,0.00 5.78,0.00 5.84,0.00 5.90,0.00 5.96,0.00 6.02,0.00 6.08,2.50 6.15,2.50 6.21,2.50 6.27,2.50 6.33,2.50 6.39,2.50 6.45,2.50 6.51,2.50 6.57,2.50 6.63,2.50 6.69,2.50 6.75,2.50 6.81,2.50 6.87,2.50 6.93,0.75" />
</g>
</svg>