<svg xmlns="http://www.w3.org/2000/svg" width="161.8" height="100.0" viewBox="-1 -5 172 110">
<g fill="none" stroke="black" stroke-width="988.9550%" transform="translate(0, 100.0000) scale(0.0005, -0.0005)">
<line x1="7273" y1="0" x2="7273" y2="4" />
<line x1="14547" y1="0" x2="14547" y2="12" />
<line x1="21820" y1="0" x2="21820" y2="29" />
<line x1="29093" y1="0" x2="29093" y2="58" />
<line x1="36367" y1="0" x2="36367" y2="111" />
<line x1="43640" y1="0" x2="43640" y2="188" />
<line x1="50913" y1="0" x2="50913" y2="305" />
<line x1="58187" y1="0" x2="58187" y2="462" />
<line x1="65460" y1="0" x2="65460" y2="679" />
<line x1="72733" y1="0" x2="72733" y2="968" />
<line x1="80007" y1="0" x2="80007" y2="1337" />
<line x1="87280" y1="0" x2="87280" y2="1806" />
<line x1="94553" y1="0" x2="94553" y2="2391" />
<line x1="101826" y1="0" x2="101826" y2="3104" />
<line x1="109100" y1="0" x2="109100" y2="3953" />
<line x1="116373" y1="0" x2="116373" y2="4978" />
<line x1="123646" y1="0" x2="123646" y2="6175" />
<line x1="130920" y1="0" x2="130920" y2="7568" />
<line x1="138193" y1="0" x2="138193" y2="9185" />
<line x1="145466" y1="0" x2="145466" y2="11030" />
<line x1="152740" y1="0" x2="152740" y2="13143" />
<line x1="160013" y1="0" x2="160013" y2="15516" />
<line x1="167286" y1="0" x2="167286" y2="18177" />
<line x1="174560" y1="0" x2="174560" y2="21150" />
<line x1="181833" y1="0" x2="181833" y2="24471" />
<line x1="189106" y1="0" x2="189106" y2="28152" />
<line x1="196380" y1="0" x2="196380" y2="32197" />
<line x1="203653" y1="0" x2="203653" y2="36678" />
<line x1="210926" y1="0" x2="210926" y2="41543" />
<line x1="218200" y1="0" x2="218200" y2="46828" />
<line x1="225473" y1="0" x2="225473" y2="52621" />
<line x1="232746" y1="0" x2="232746" y2="58874" />
<line x1="240020" y1="0" x2="240020" y2="65659" />
<line x1="247293" y1="0" x2="247293" y2="73000" />
<line x1="254566" y1="0" x2="254566" y2="80949" />
<line x1="261840" y1="0" x2="261840" y2="89462" />
<line x1="269113" y1="0" x2="269113" y2="98631" />
<line x1="276386" y1="0" x2="276386" y2="108396" />
<line x1="283659" y1="0" x2="283659" y2="118869" />
<line x1="290933" y1="0" x2="290933" y2="130102" />
<line x1="298206" y1="0" x2="298206" y2="142071" />
<line x1="305479" y1="0" x2="305479" y2="154804" />
<line x1="312753" y1="0" x2="312753" y2="168345" />
<line x1="320026" y1="0" x2="320026" y2="182682" />
<line x1="327299" y1="0" x2="327299" y2="197791" />
</g>
</svg>