<svg xmlns="http://www.w3.org/2000/svg" width="161.8" height="100.0" viewBox="18.11 -4.78 171.80 110.00">
<g fill="none" stroke="black" stroke-width="0.0187%" transform="translate(0, 100.4449) scale(26.7304, -26.7304)">
<polyline points="0.86,3.50 0.93,3.48 0.99,3.40 1.05,3.29 1.11,3.14 1.17,2.95 1.23,2.75 1.29,2.53 1.35,2.31 1.41,2.10 1.47,1.91 1.53,1.75 1.59,1.62 1.65,1.54 1.71,1.50 1.77,1.50 1.83,1.51 1.89,1.52 1.95,1.54 2.01,1.56 2.08,1.59 2.14,1.61 2.20,1.64 2.26,1.67 2.32,1.69 2.38,1.71 2.44,1.73 2.50,1.74 2.56,1.75 2.62,1.75 2.68,1.74 2.74,1.72 2.80,1.68 2.86,1.64 2.92,1.59 2.98,1.54 3.04,1.48 3.10,1.43 3.16,1.38 3.23,1.33 3.29,1.30 3.35,1.27 3.41,1.25 3.47,1.25 3.53,1.29 3.59,1.39 3.65,1.54 3.71,1.73 3.77,1.97 3.83,2.23 3.89,2.50 3.95,2.77 4.01,3.03 4.07,3.27 4.13,3.46 4.19,3.61 4.25,3.71 4.32,3.75 4.38,3.72 4.44,3.60 4.50,3.39 4.56,3.11 4.62,2.78 4.68,2.40 4.74,1.99 4.80,1.58 4.86,1.18 4.92,0.82 4.98,0.51 5.04,0.26 5.10,0.09 5.16,0.01 5.22,0.01 5.28,0.07 5.34,0.19 5.40,0.37 5.47,0.58 5.53,0.83 5.59,1.09 5.65,1.37 5.71,1.64 5.77,1.89 5.83,2.11 5.89,2.28 5.95,2.41 6.01,2.48 6.07,2.50 6.13,2.47 6.19,2.39 6.25,2.28 6.31,2.14 6.37,1.97 6.43,1.79 6.49,1.60 6.55,1.41 6.62,1.23 6.68,1.07 6.74,0.93 6.80,0.83 6.86,0.77 6.92,0.75" />
</g>
</svg>