<svg xmlns="http://www.w3.org/2000/svg" width="161.8" height="100.0" viewBox="-3.94 -5.00 171.80 110.00">
<g fill="none" stroke="black" stroke-width="0.1550%" transform="translate(0, 100.0000) scale(3.2258, -3.2258)">
<circle cx="0.33" cy="1.00" r="0.15" />
<circle cx="0.66" cy="1.00" r="0.15" />
<circle cx="0.99" cy="3.00" r="0.15" />
<circle cx="1.32" cy="1.00" r="0.15" />
<circle cx="1.65" cy="0.00" r="0.15" />
<circle cx="1.98" cy="3.00" r="0.15" />
<circle cx="2.31" cy="1.00" r="0.15" />
<circle cx="2.64" cy="3.00" r="0.15" />
<circle cx="2.97" cy="5.00" r="0.15" />
<circle cx="3.30" cy="7.00" r="0.15" />
<circle cx="3.63" cy="1.00" r="0.15" />
<circle cx="3.96" cy="0.00" r="0.15" />
<circle cx="4.29" cy="2.00" r="0.15" />
<circle cx="4.62" cy="4.00" r="0.15" />
<circle cx="4.95" cy="3.00" r="0.15" />
<circle cx="5.28" cy="1.00" r="0.15" />
<circle cx="5.61" cy="3.00" r="0.15" />
<circle cx="5.94" cy="0.00" r="0.15" />
<circle cx="6.27" cy="2.00" r="0.15" />
<circle cx="6.60" cy="5.00" r="0.15" />
<circle cx="6.93" cy="7.00" r="0.15" />
<circle cx="7.26" cy="1.00" r="0.15" />
<circle cx="7.59" cy="0.00" r="0.15" />
<circle cx="7.92" cy="3.00" r="0.15" />
<circle cx="8.25" cy="2.00" r="0.15" />
<circle cx="8.58" cy="5.00" r="0.15" />
<circle cx="8.91" cy="4.00" r="0.15" />
<circle cx="9.24" cy="7.00" r="0.15" />
<circle cx="9.57" cy="1.00" r="0.15" />
<circle cx="9.90" cy="3.00" r="0.15" />
<circle cx="10.23" cy="5.00" r="0.15" />
<circle cx="10.56" cy="7.00" r="0.15" />
<circle cx="10.89" cy="9.00" r="0.15" />
<circle cx="11.22" cy="11.00" r="0.15" />
<circle cx="11.55" cy="13.00" r="0.15" />
<circle cx="11.88" cy="15.00" r="0.15" />
<circle cx="12.21" cy="1.00" r="0.15" />
<circle cx="12.54" cy="0.00" r="0.15" />
<circle cx="12.87" cy="2.00" r="0.15" />
<circle cx="13.20" cy="4.00" r="0.15" />
<circle cx="13.53" cy="6.00" r="0.15" />
<circle cx="13.86" cy="8.00" r="0.15" />
<circle cx="14.19" cy="10.00" r="0.15" />
<circle cx="14.52" cy="12.00" r="0.15" />
<circle cx="14.85" cy="3.00" r="0.15" />
<circle cx="15.18" cy="1.00" r="0.15" />
<circle cx="15.51" cy="3.00" r="0.15" />
<circle cx="15.84" cy="0.00" r="0.15" />
<circle cx="16.17" cy="2.00" r="0.15" />
<circle cx="16.50" cy="4.00" r="0.15" />
<circle cx="16.83" cy="6.00" r="0.15" />
<circle cx="17.16" cy="8.00" r="0.15" />
<circle cx="17.49" cy="10.00" r="0.15" />
<circle cx="17.82" cy="5.00" r="0.15" />
<circle cx="18.15" cy="7.00" r="0.15" />
<circle cx="18.48" cy="1.00" r="0.15" />
<circle cx="18.81" cy="0.00" r="0.15" />
<circle cx="19.14" cy="3.00" r="0.15" />
<circle cx="19.47" cy="2.00" r="0.15" />
<circle cx="19.80" cy="4.00" r="0.15" />
<circle cx="20.13" cy="6.00" r="0.15" />
<circle cx="20.46" cy="8.00" r="0.15" />
<circle cx="20.79" cy="10.00" r="0.15" />
<circle cx="21.12" cy="5.00" r="0.15" />
<circle cx="21.45" cy="12.00" r="0.15" />
<circle cx="21.78" cy="7.00" r="0.15" />
<circle cx="22.11" cy="1.00" r="0.15" />
<circle cx="22.44" cy="3.00" r="0.15" />
<circle cx="22.77" cy="5.00" r="0.15" />
<circle cx="23.10" cy="7.00" r="0.15" />
<circle cx="23.43" cy="0.00" r="0.15" />
<circle cx="23.76" cy="2.00" r="0.15" />
<circle cx="24.09" cy="4.00" r="0.15" />
<circle cx="24.42" cy="6.00" r="0.15" />
<circle cx="24.75" cy="9.00" r="0.15" />
<circle cx="25.08" cy="11.00" r="0.15" />
<circle cx="25.41" cy="13.00" r="0.15" />
<circle cx="25.74" cy="15.00" r="0.15" />
<circle cx="26.07" cy="1.00" r="0.15" />
<circle cx="26.40" cy="0.00" r="0.15" />
<circle cx="26.73" cy="2.00" r="0.15" />
<circle cx="27.06" cy="4.00" r="0.15" />
<circle cx="27.39" cy="3.00" r="0.15" />
<circle cx="27.72" cy="6.00" r="0.15" />
<circle cx="28.05" cy="8.00" r="0.15" />
<circle cx="28.38" cy="10.00" r="0.15" />
<circle cx="28.71" cy="5.00" r="0.15" />
<circle cx="29.04" cy="12.00" r="0.15" />
<circle cx="29.37" cy="14.00" r="0.15" />
<circle cx="29.70" cy="16.00" r="0.15" />
<circle cx="30.03" cy="7.00" r="0.15" />
<circle cx="30.36" cy="1.00" r="0.15" />
<circle cx="30.69" cy="3.00" r="0.15" />
<circle cx="31.02" cy="0.00" r="0.15" />
<circle cx="31.35" cy="2.00" r="0.15" />
<circle cx="31.68" cy="5.00" r="0.15" />
<circle cx="32.01" cy="7.00" r="0.15" />
<circle cx="32.34" cy="4.00" r="0.15" />
<circle cx="32.67" cy="6.00" r="0.15" />
<circle cx="33.00" cy="9.00" r="0.15" />
<circle cx="33.33" cy="11.00" r="0.15" />
<circle cx="33.66" cy="8.00" r="0.15" />
<circle cx="33.99" cy="10.00" r="0.15" />
<circle cx="34.32" cy="13.00" r="0.15" />
<circle cx="34.65" cy="15.00" r="0.15" />
<circle cx="34.98" cy="1.00" r="0.15" />
<circle cx="35.31" cy="0.00" r="0.15" />
<circle cx="35.64" cy="3.00" r="0.15" />
<circle cx="35.97" cy="2.00" r="0.15" />
<circle cx="36.30" cy="5.00" r="0.15" />
<circle cx="36.63" cy="4.00" r="0.15" />
<circle cx="36.96" cy="7.00" r="0.15" />
<circle cx="37.29" cy="6.00" r="0.15" />
<circle cx="37.62" cy="9.00" r="0.15" />
<circle cx="37.95" cy="8.00" r="0.15" />
<circle cx="38.28" cy="11.00" r="0.15" />
<circle cx="38.61" cy="10.00" r="0.15" />
<circle cx="38.94" cy="13.00" r="0.15" />
<circle cx="39.27" cy="12.00" r="0.15" />
<circle cx="39.60" cy="15.00" r="0.15" />
<circle cx="39.93" cy="1.00" r="0.15" />
<circle cx="40.26" cy="3.00" r="0.15" />
<circle cx="40.59" cy="5.00" r="0.15" />
<circle cx="40.92" cy="7.00" r="0.15" />
<circle cx="41.25" cy="9.00" r="0.15" />
<circle cx="41.58" cy="11.00" r="0.15" />
<circle cx="41.91" cy="13.00" r="0.15" />
<circle cx="42.24" cy="15.00" r="0.15" />
<circle cx="42.57" cy="17.00" r="0.15" />
<circle cx="42.90" cy="19.00" r="0.15" />
<circle cx="43.23" cy="21.00" r="0.15" />
<circle cx="43.56" cy="23.00" r="0.15" />
<circle cx="43.89" cy="25.00" r="0.15" />
<circle cx="44.22" cy="27.00" r="0.15" />
<circle cx="44.55" cy="29.00" r="0.15" />
<circle cx="44.88" cy="31.00" r="0.15" />
<circle cx="45.21" cy="1.00" r="0.15" />
<circle cx="45.54" cy="0.00" r="0.15" />
<circle cx="45.87" cy="2.00" r="0.15" />
<circle cx="46.20" cy="4.00" r="0.15" />
<circle cx="46.53" cy="6.00" r="0.15" />
<circle cx="46.86" cy="8.00" r="0.15" />
<circle cx="47.19" cy="10.00" r="0.15" />
<circle cx="47.52" cy="12.00" r="0.15" />
<circle cx="47.85" cy="14.00" r="0.15" />
<circle cx="48.18" cy="16.00" r="0.15" />
<circle cx="48.51" cy="18.00" r="0.15" />
<circle cx="48.84" cy="20.00" r="0.15" />
<circle cx="49.17" cy="22.00" r="0.15" />
<circle cx="49.50" cy="24.00" r="0.15" />
<circle cx="49.83" cy="26.00" r="0.15" />
<circle cx="50.16" cy="28.00" r="0.15" />
<circle cx="50.49" cy="3.00" r="0.15" />
</g>
</svg>