<svg xmlns="http://www.w3.org/2000/svg" width="161.8" height="100.0" viewBox="-3.3656 7514.6790 171.8034 110.0000">
<g fill="none" stroke="black" stroke-width="0.0013%" transform="translate(0, 15139.3579) scale(397.9079, -397.9079)">
<polyline points="0.0041,19.1494 0.0082,19.1153 0.0123,19.0949 0.0164,19.0801 0.0205,19.0685 0.0246,19.0589 0.0288,19.0507 0.0329,19.0436 0.0370,19.0373 0.0411,19.0316 0.0452,19.0264 0.0493,19.0216 0.0534,19.0172 0.0575,19.0131 0.0616,19.0093 0.0657,19.0057 0.0698,19.0023 0.0739,18.9991 0.0780,18.9961 0.0821,18.9932 0.0863,18.9905 0.0904,18.9878 0.0945,18.9853 0.0986,18.9829 0.1027,18.9805 0.1068,18.9783 0.1109,18.9761 0.1150,18.9741 0.1191,18.9720 0.1232,18.9701 0.1273,18.9682 0.1314,18.9663 0.1355,18.9646 0.1397,18.9628 0.1438,18.9611 0.1479,18.9595 0.1520,18.9579 0.1561,18.9563 0.1602,18.9548 0.1643,18.9533 0.1684,18.9519 0.1725,18.9505 0.1766,18.9491 0.1807,18.9477 0.1848,18.9464 0.1889,18.9451 0.1930,18.9438 0.1972,18.9426 0.2013,18.9413 0.2054,18.9401 0.2095,18.9390 0.2136,18.9378 0.2177,18.9367 0.2218,18.9356 0.2259,18.9345 0.2300,18.9334 0.2341,18.9323 0.2382,18.9313 0.2423,18.9302 0.2464,18.9292 0.2506,18.9282 0.2547,18.9273 0.2588,18.9263 0.2629,18.9254 0.2670,18.9244 0.2711,18.9235 0.2752,18.9226 0.2793,18.9217 0.2834,18.9208 0.2875,18.9199 0.2916,18.9191 0.2957,18.9182 0.2998,18.9174 0.3039,18.9165 0.3081,18.9157 0.3122,18.9149 0.3163,18.9141 0.3204,18.9133 0.3245,18.9126 0.3286,18.9118 0.3327,18.9110 0.3368,18.9103 0.3409,18.9095 0.3450,18.9088 0.3491,18.9081 0.3532,18.9074 0.3573,18.9066 0.3615,18.9059 0.3656,18.9052 0.3697,18.9046 0.3738,18.9039 0.3779,18.9032 0.3820,18.9025 0.3861,18.9019 0.3902,18.9012 0.3943,18.9006 0.3984,18.8999 0.4025,18.8993 0.4066,18.8987 0.4107,18.8980" />
</g>
</svg>