<svg xmlns="http://www.w3.org/2000/svg" width="161.803" height="100.000" viewBox="-4.676 -79.102 171.803 110.000">
<g fill="none" stroke="black" stroke-width="0.013%" transform="translate(0, -48.205) scale(37.051, -37.051)">
<circle cx="0.010" cy="0.000" r="0.027" />
<polyline points="0.009,-2.000 0.052,-1.223 0.096,-0.959 0.140,-0.797 0.183,-0.679 0.227,-0.586 0.271,-0.509 0.314,-0.445 0.358,-0.388 0.402,-0.338 0.445,-0.293 0.489,-0.253 0.533,-0.216 0.576,-0.181 0.620,-0.150 0.664,-0.120 0.707,-0.092 0.751,-0.066 0.795,-0.042 0.838,-0.019 0.882,0.003 0.926,0.024 0.969,0.044 1.013,0.064 1.057,0.082 1.101,0.100 1.144,0.116 1.188,0.133 1.232,0.148 1.275,0.163 1.319,0.178 1.363,0.192 1.406,0.206 1.450,0.219 1.494,0.232 1.537,0.245 1.581,0.257 1.625,0.269 1.668,0.280 1.712,0.291 1.756,0.302 1.799,0.313 1.843,0.323 1.887,0.334 1.930,0.344 1.974,0.353 2.018,0.363 2.061,0.372 2.105,0.381 2.149,0.390 2.192,0.399 2.236,0.407 2.280,0.416 2.323,0.424 2.367,0.432 2.411,0.440 2.454,0.448 2.498,0.455 2.542,0.463 2.585,0.470 2.629,0.478 2.673,0.485 2.716,0.492 2.760,0.499 2.804,0.506 2.847,0.512 2.891,0.519 2.935,0.525 2.978,0.532 3.022,0.538 3.066,0.544 3.109,0.551 3.153,0.557 3.197,0.563 3.240,0.569 3.284,0.574 3.328,0.580 3.371,0.586 3.415,0.591 3.459,0.597 3.502,0.602 3.546,0.608 3.590,0.613 3.633,0.618 3.677,0.623 3.721,0.629 3.764,0.634 3.808,0.639 3.852,0.644 3.895,0.648 3.939,0.653 3.983,0.658 4.026,0.663 4.070,0.668 4.114,0.672 4.157,0.677 4.201,0.681 4.245,0.686 4.288,0.690 4.332,0.695 4.376,0.699" />
</g>
</svg>