<svg xmlns="http://www.w3.org/2000/svg" width="161.8" height="100.0" viewBox="0.06 -5.00 171.80 110.00">
<g fill="none" stroke="black" stroke-width="0.0350%" transform="translate(0, 100.0000) scale(14.2857, -14.2857)">
<circle cx="0.35" cy="0.00" r="0.03" />
<circle cx="0.53" cy="1.00" r="0.03" />
<circle cx="0.71" cy="2.00" r="0.03" />
<circle cx="0.88" cy="2.00" r="0.03" />
<circle cx="1.06" cy="3.00" r="0.03" />
<circle cx="1.24" cy="3.00" r="0.03" />
<circle cx="1.42" cy="3.00" r="0.03" />
<circle cx="1.59" cy="3.00" r="0.03" />
<circle cx="1.77" cy="4.00" r="0.03" />
<circle cx="1.95" cy="4.00" r="0.03" />
<circle cx="2.12" cy="4.00" r="0.03" />
<circle cx="2.30" cy="4.00" r="0.03" />
<circle cx="2.48" cy="4.00" r="0.03" />
<circle cx="2.65" cy="4.00" r="0.03" />
<circle cx="2.83" cy="4.00" r="0.03" />
<circle cx="3.01" cy="4.00" r="0.03" />
<circle cx="3.19" cy="5.00" r="0.03" />
<circle cx="3.36" cy="5.00" r="0.03" />
<circle cx="3.54" cy="5.00" r="0.03" />
<circle cx="3.72" cy="5.00" r="0.03" />
<circle cx="3.89" cy="5.00" r="0.03" />
<circle cx="4.07" cy="5.00" r="0.03" />
<circle cx="4.25" cy="5.00" r="0.03" />
<circle cx="4.42" cy="5.00" r="0.03" />
<circle cx="4.60" cy="5.00" r="0.03" />
<circle cx="4.78" cy="5.00" r="0.03" />
<circle cx="4.96" cy="5.00" r="0.03" />
<circle cx="5.13" cy="5.00" r="0.03" />
<circle cx="5.31" cy="5.00" r="0.03" />
<circle cx="5.49" cy="5.00" r="0.03" />
<circle cx="5.66" cy="5.00" r="0.03" />
<circle cx="5.84" cy="5.00" r="0.03" />
<circle cx="6.02" cy="6.00" r="0.03" />
<circle cx="6.19" cy="6.00" r="0.03" />
<circle cx="6.37" cy="6.00" r="0.03" />
<circle cx="6.55" cy="6.00" r="0.03" />
<circle cx="6.72" cy="6.00" r="0.03" />
<circle cx="6.90" cy="6.00" r="0.03" />
<circle cx="7.08" cy="6.00" r="0.03" />
<circle cx="7.26" cy="6.00" r="0.03" />
<circle cx="7.43" cy="6.00" r="0.03" />
<circle cx="7.61" cy="6.00" r="0.03" />
<circle cx="7.79" cy="6.00" r="0.03" />
<circle cx="7.96" cy="6.00" r="0.03" />
<circle cx="8.14" cy="6.00" r="0.03" />
<circle cx="8.32" cy="6.00" r="0.03" />
<circle cx="8.49" cy="6.00" r="0.03" />
<circle cx="8.67" cy="6.00" r="0.03" />
<circle cx="8.85" cy="6.00" r="0.03" />
<circle cx="9.03" cy="6.00" r="0.03" />
<circle cx="9.20" cy="6.00" r="0.03" />
<circle cx="9.38" cy="6.00" r="0.03" />
<circle cx="9.56" cy="6.00" r="0.03" />
<circle cx="9.73" cy="6.00" r="0.03" />
<circle cx="9.91" cy="6.00" r="0.03" />
<circle cx="10.09" cy="6.00" r="0.03" />
<circle cx="10.26" cy="6.00" r="0.03" />
<circle cx="10.44" cy="6.00" r="0.03" />
<circle cx="10.62" cy="6.00" r="0.03" />
<circle cx="10.80" cy="6.00" r="0.03" />
<circle cx="10.97" cy="6.00" r="0.03" />
<circle cx="11.15" cy="6.00" r="0.03" />
<circle cx="11.33" cy="6.00" r="0.03" />
<circle cx="11.50" cy="6.00" r="0.03" />
<circle cx="11.68" cy="7.00" r="0.03" />
</g>
</svg>