<svg xmlns="http://www.w3.org/2000/svg" width="162.016" height="100.000" viewBox="-4.888 -79.102 172.016 110.000">
<g fill="none" stroke="black" stroke-width="0.045%" transform="translate(0, -48.205) scale(11.154, -11.154)">
<circle cx="0.010" cy="0.000" r="0.090" />
<polyline points="0.029,-6.644 0.174,-4.061 0.319,-3.187 0.464,-2.647 0.609,-2.254 0.754,-1.946 0.899,-1.692 1.045,-1.477 1.190,-1.289 1.335,-1.123 1.480,-0.974 1.625,-0.839 1.770,-0.716 1.915,-0.602 2.060,-0.497 2.205,-0.399 2.350,-0.307 2.495,-0.220 2.640,-0.139 2.785,-0.062 2.930,0.011 3.076,0.081 3.221,0.148 3.366,0.211 3.511,0.272 3.656,0.331 3.801,0.387 3.946,0.441 4.091,0.493 4.236,0.543 4.381,0.592 4.526,0.639 4.671,0.684 4.816,0.728 4.961,0.771 5.107,0.813 5.252,0.853 5.397,0.892 5.542,0.931 5.687,0.968 5.832,1.004 5.977,1.040 6.122,1.074 6.267,1.108 6.412,1.141 6.557,1.173 6.702,1.205 6.847,1.236 6.992,1.266 7.137,1.296 7.283,1.325 7.428,1.353 7.573,1.381 7.718,1.409 7.863,1.435 8.008,1.462 8.153,1.488 8.298,1.513 8.443,1.538 8.588,1.563 8.733,1.587 8.878,1.611 9.023,1.634 9.168,1.657 9.314,1.680 9.459,1.702 9.604,1.724 9.749,1.746 9.894,1.767 10.039,1.788 10.184,1.809 10.329,1.829 10.474,1.849 10.619,1.869 10.764,1.889 10.909,1.908 11.054,1.927 11.199,1.946 11.344,1.964 11.490,1.983 11.635,2.001 11.780,2.019 11.925,2.036 12.070,2.054 12.215,2.071 12.360,2.088 12.505,2.105 12.650,2.121 12.795,2.138 12.940,2.154 13.085,2.170 13.230,2.186 13.375,2.202 13.521,2.217 13.666,2.233 13.811,2.248 13.956,2.263 14.101,2.278 14.246,2.293 14.391,2.307 14.536,2.322" />
</g>
</svg>