<svg xmlns="http://www.w3.org/2000/svg" width="161.8" height="100.0" viewBox="-4.2 -5.0 171.8 110.0">
<g fill="none" stroke="black" stroke-width="0.9150%" transform="translate(0, 100.0000) scale(0.5464, -0.5464)">
<circle cx="1.5" cy="0.0" r="0.9" />
<circle cx="3.0" cy="0.0" r="0.9" />
<circle cx="4.5" cy="1.0" r="0.9" />
<circle cx="6.0" cy="0.0" r="0.9" />
<circle cx="7.4" cy="2.0" r="0.9" />
<circle cx="8.9" cy="2.0" r="0.9" />
<circle cx="10.4" cy="4.0" r="0.9" />
<circle cx="11.9" cy="0.0" r="0.9" />
<circle cx="13.4" cy="3.0" r="0.9" />
<circle cx="14.9" cy="4.0" r="0.9" />
<circle cx="16.4" cy="7.0" r="0.9" />
<circle cx="17.9" cy="4.0" r="0.9" />
<circle cx="19.3" cy="7.0" r="0.9" />
<circle cx="20.8" cy="8.0" r="0.9" />
<circle cx="22.3" cy="11.0" r="0.9" />
<circle cx="23.8" cy="0.0" r="0.9" />
<circle cx="25.3" cy="4.0" r="0.9" />
<circle cx="26.8" cy="6.0" r="0.9" />
<circle cx="28.3" cy="10.0" r="0.9" />
<circle cx="29.8" cy="8.0" r="0.9" />
<circle cx="31.2" cy="12.0" r="0.9" />
<circle cx="32.7" cy="14.0" r="0.9" />
<circle cx="34.2" cy="18.0" r="0.9" />
<circle cx="35.7" cy="8.0" r="0.9" />
<circle cx="37.2" cy="12.0" r="0.9" />
<circle cx="38.7" cy="14.0" r="0.9" />
<circle cx="40.2" cy="18.0" r="0.9" />
<circle cx="41.7" cy="16.0" r="0.9" />
<circle cx="43.2" cy="20.0" r="0.9" />
<circle cx="44.6" cy="22.0" r="0.9" />
<circle cx="46.1" cy="26.0" r="0.9" />
<circle cx="47.6" cy="0.0" r="0.9" />
<circle cx="49.1" cy="5.0" r="0.9" />
<circle cx="50.6" cy="8.0" r="0.9" />
<circle cx="52.1" cy="13.0" r="0.9" />
<circle cx="53.6" cy="12.0" r="0.9" />
<circle cx="55.1" cy="17.0" r="0.9" />
<circle cx="56.5" cy="20.0" r="0.9" />
<circle cx="58.0" cy="25.0" r="0.9" />
<circle cx="59.5" cy="16.0" r="0.9" />
<circle cx="61.0" cy="21.0" r="0.9" />
<circle cx="62.5" cy="24.0" r="0.9" />
<circle cx="64.0" cy="29.0" r="0.9" />
<circle cx="65.5" cy="28.0" r="0.9" />
<circle cx="67.0" cy="33.0" r="0.9" />
<circle cx="68.4" cy="36.0" r="0.9" />
<circle cx="69.9" cy="41.0" r="0.9" />
<circle cx="71.4" cy="16.0" r="0.9" />
<circle cx="72.9" cy="21.0" r="0.9" />
<circle cx="74.4" cy="24.0" r="0.9" />
<circle cx="75.9" cy="29.0" r="0.9" />
<circle cx="77.4" cy="28.0" r="0.9" />
<circle cx="78.9" cy="33.0" r="0.9" />
<circle cx="80.3" cy="36.0" r="0.9" />
<circle cx="81.8" cy="41.0" r="0.9" />
<circle cx="83.3" cy="32.0" r="0.9" />
<circle cx="84.8" cy="37.0" r="0.9" />
<circle cx="86.3" cy="40.0" r="0.9" />
<circle cx="87.8" cy="45.0" r="0.9" />
<circle cx="89.3" cy="44.0" r="0.9" />
<circle cx="90.8" cy="49.0" r="0.9" />
<circle cx="92.3" cy="52.0" r="0.9" />
<circle cx="93.7" cy="57.0" r="0.9" />
<circle cx="95.2" cy="0.0" r="0.9" />
<circle cx="96.7" cy="6.0" r="0.9" />
<circle cx="98.2" cy="10.0" r="0.9" />
<circle cx="99.7" cy="16.0" r="0.9" />
<circle cx="101.2" cy="16.0" r="0.9" />
<circle cx="102.7" cy="22.0" r="0.9" />
<circle cx="104.2" cy="26.0" r="0.9" />
<circle cx="105.6" cy="32.0" r="0.9" />
<circle cx="107.1" cy="24.0" r="0.9" />
<circle cx="108.6" cy="30.0" r="0.9" />
<circle cx="110.1" cy="34.0" r="0.9" />
<circle cx="111.6" cy="40.0" r="0.9" />
<circle cx="113.1" cy="40.0" r="0.9" />
<circle cx="114.6" cy="46.0" r="0.9" />
<circle cx="116.1" cy="50.0" r="0.9" />
<circle cx="117.5" cy="56.0" r="0.9" />
<circle cx="119.0" cy="32.0" r="0.9" />
<circle cx="120.5" cy="38.0" r="0.9" />
<circle cx="122.0" cy="42.0" r="0.9" />
<circle cx="123.5" cy="48.0" r="0.9" />
<circle cx="125.0" cy="48.0" r="0.9" />
<circle cx="126.5" cy="54.0" r="0.9" />
<circle cx="128.0" cy="58.0" r="0.9" />
<circle cx="129.5" cy="64.0" r="0.9" />
<circle cx="130.9" cy="56.0" r="0.9" />
<circle cx="132.4" cy="62.0" r="0.9" />
<circle cx="133.9" cy="66.0" r="0.9" />
<circle cx="135.4" cy="72.0" r="0.9" />
<circle cx="136.9" cy="72.0" r="0.9" />
<circle cx="138.4" cy="78.0" r="0.9" />
<circle cx="139.9" cy="82.0" r="0.9" />
<circle cx="141.4" cy="88.0" r="0.9" />
<circle cx="142.8" cy="32.0" r="0.9" />
<circle cx="144.3" cy="38.0" r="0.9" />
<circle cx="145.8" cy="42.0" r="0.9" />
<circle cx="147.3" cy="48.0" r="0.9" />
<circle cx="148.8" cy="48.0" r="0.9" />
<circle cx="150.3" cy="54.0" r="0.9" />
<circle cx="151.8" cy="58.0" r="0.9" />
<circle cx="153.3" cy="64.0" r="0.9" />
<circle cx="154.7" cy="56.0" r="0.9" />
<circle cx="156.2" cy="62.0" r="0.9" />
<circle cx="157.7" cy="66.0" r="0.9" />
<circle cx="159.2" cy="72.0" r="0.9" />
<circle cx="160.7" cy="72.0" r="0.9" />
<circle cx="162.2" cy="78.0" r="0.9" />
<circle cx="163.7" cy="82.0" r="0.9" />
<circle cx="165.2" cy="88.0" r="0.9" />
<circle cx="166.6" cy="64.0" r="0.9" />
<circle cx="168.1" cy="70.0" r="0.9" />
<circle cx="169.6" cy="74.0" r="0.9" />
<circle cx="171.1" cy="80.0" r="0.9" />
<circle cx="172.6" cy="80.0" r="0.9" />
<circle cx="174.1" cy="86.0" r="0.9" />
<circle cx="175.6" cy="90.0" r="0.9" />
<circle cx="177.1" cy="96.0" r="0.9" />
<circle cx="178.6" cy="88.0" r="0.9" />
<circle cx="180.0" cy="94.0" r="0.9" />
<circle cx="181.5" cy="98.0" r="0.9" />
<circle cx="183.0" cy="104.0" r="0.9" />
<circle cx="184.5" cy="104.0" r="0.9" />
<circle cx="186.0" cy="110.0" r="0.9" />
<circle cx="187.5" cy="114.0" r="0.9" />
<circle cx="189.0" cy="120.0" r="0.9" />
<circle cx="190.5" cy="0.0" r="0.9" />
<circle cx="191.9" cy="7.0" r="0.9" />
<circle cx="193.4" cy="12.0" r="0.9" />
<circle cx="194.9" cy="19.0" r="0.9" />
<circle cx="196.4" cy="20.0" r="0.9" />
<circle cx="197.9" cy="27.0" r="0.9" />
<circle cx="199.4" cy="32.0" r="0.9" />
<circle cx="200.9" cy="39.0" r="0.9" />
<circle cx="202.4" cy="32.0" r="0.9" />
<circle cx="203.8" cy="39.0" r="0.9" />
<circle cx="205.3" cy="44.0" r="0.9" />
<circle cx="206.8" cy="51.0" r="0.9" />
<circle cx="208.3" cy="52.0" r="0.9" />
<circle cx="209.8" cy="59.0" r="0.9" />
<circle cx="211.3" cy="64.0" r="0.9" />
<circle cx="212.8" cy="71.0" r="0.9" />
<circle cx="214.3" cy="48.0" r="0.9" />
<circle cx="215.8" cy="55.0" r="0.9" />
<circle cx="217.2" cy="60.0" r="0.9" />
<circle cx="218.7" cy="67.0" r="0.9" />
<circle cx="220.2" cy="68.0" r="0.9" />
<circle cx="221.7" cy="75.0" r="0.9" />
<circle cx="223.2" cy="80.0" r="0.9" />
<circle cx="224.7" cy="87.0" r="0.9" />
<circle cx="226.2" cy="80.0" r="0.9" />
<circle cx="227.7" cy="87.0" r="0.9" />
<circle cx="229.1" cy="92.0" r="0.9" />
<circle cx="230.6" cy="99.0" r="0.9" />
<circle cx="232.1" cy="100.0" r="0.9" />
<circle cx="233.6" cy="107.0" r="0.9" />
<circle cx="235.1" cy="112.0" r="0.9" />
<circle cx="236.6" cy="119.0" r="0.9" />
<circle cx="238.1" cy="64.0" r="0.9" />
<circle cx="239.6" cy="71.0" r="0.9" />
<circle cx="241.0" cy="76.0" r="0.9" />
<circle cx="242.5" cy="83.0" r="0.9" />
<circle cx="244.0" cy="84.0" r="0.9" />
<circle cx="245.5" cy="91.0" r="0.9" />
<circle cx="247.0" cy="96.0" r="0.9" />
<circle cx="248.5" cy="103.0" r="0.9" />
<circle cx="250.0" cy="96.0" r="0.9" />
<circle cx="251.5" cy="103.0" r="0.9" />
<circle cx="252.9" cy="108.0" r="0.9" />
<circle cx="254.4" cy="115.0" r="0.9" />
<circle cx="255.9" cy="116.0" r="0.9" />
<circle cx="257.4" cy="123.0" r="0.9" />
<circle cx="258.9" cy="128.0" r="0.9" />
<circle cx="260.4" cy="135.0" r="0.9" />
<circle cx="261.9" cy="112.0" r="0.9" />
<circle cx="263.4" cy="119.0" r="0.9" />
<circle cx="264.9" cy="124.0" r="0.9" />
<circle cx="266.3" cy="131.0" r="0.9" />
<circle cx="267.8" cy="132.0" r="0.9" />
<circle cx="269.3" cy="139.0" r="0.9" />
<circle cx="270.8" cy="144.0" r="0.9" />
<circle cx="272.3" cy="151.0" r="0.9" />
<circle cx="273.8" cy="144.0" r="0.9" />
<circle cx="275.3" cy="151.0" r="0.9" />
<circle cx="276.8" cy="156.0" r="0.9" />
<circle cx="278.2" cy="163.0" r="0.9" />
<circle cx="279.7" cy="164.0" r="0.9" />
<circle cx="281.2" cy="171.0" r="0.9" />
<circle cx="282.7" cy="176.0" r="0.9" />
<circle cx="284.2" cy="183.0" r="0.9" />
<circle cx="285.7" cy="64.0" r="0.9" />
<circle cx="287.2" cy="71.0" r="0.9" />
<circle cx="288.7" cy="76.0" r="0.9" />
<circle cx="290.1" cy="83.0" r="0.9" />
<circle cx="291.6" cy="84.0" r="0.9" />
<circle cx="293.1" cy="91.0" r="0.9" />
<circle cx="294.6" cy="96.0" r="0.9" />
<circle cx="296.1" cy="103.0" r="0.9" />
<circle cx="297.6" cy="96.0" r="0.9" />
</g>
</svg>