<svg xmlns="http://www.w3.org/2000/svg" width="161.8" height="100.0" viewBox="-85.902 -4.849 171.803 110.000">
<g fill="none" stroke="black" stroke-width="0.0050%" transform="translate(0, 100.3014) scale(100.3990, -100.3990)">
<circle cx="0.000" cy="0.998" r="0.005" />
<polyline points="-0.806,0.018 -0.790,0.020 -0.774,0.022 -0.757,0.024 -0.741,0.027 -0.725,0.029 -0.709,0.032 -0.693,0.036 -0.677,0.039 -0.661,0.043 -0.645,0.047 -0.629,0.052 -0.612,0.057 -0.596,0.063 -0.580,0.069 -0.564,0.076 -0.548,0.083 -0.532,0.091 -0.516,0.100 -0.500,0.109 -0.483,0.119 -0.467,0.130 -0.451,0.142 -0.435,0.154 -0.419,0.168 -0.403,0.182 -0.387,0.198 -0.371,0.214 -0.355,0.231 -0.338,0.250 -0.322,0.269 -0.306,0.289 -0.290,0.310 -0.274,0.332 -0.258,0.354 -0.242,0.378 -0.226,0.401 -0.210,0.426 -0.193,0.450 -0.177,0.475 -0.161,0.500 -0.145,0.525 -0.129,0.550 -0.113,0.574 -0.097,0.599 -0.081,0.622 -0.064,0.646 -0.048,0.668 -0.032,0.690 -0.016,0.711 -0.000,0.731 0.016,0.750 0.032,0.769 0.048,0.786 0.064,0.802 0.081,0.818 0.097,0.832 0.113,0.846 0.129,0.858 0.145,0.870 0.161,0.881 0.177,0.891 0.193,0.900 0.210,0.909 0.226,0.917 0.242,0.924 0.258,0.931 0.274,0.937 0.290,0.943 0.306,0.948 0.322,0.953 0.338,0.957 0.355,0.961 0.371,0.964 0.387,0.968 0.403,0.971 0.419,0.973 0.435,0.976 0.451,0.978 0.467,0.980 0.483,0.982 0.500,0.984 0.516,0.985 0.532,0.987 0.548,0.988 0.564,0.989 0.580,0.990 0.596,0.991 0.612,0.992 0.629,0.993 0.645,0.993 0.661,0.994 0.677,0.995 0.693,0.995 0.709,0.996 0.725,0.996 0.741,0.996 0.757,0.997 0.774,0.997 0.790,0.997 0.806,0.998" />
<polyline points="-0.806,0.007 -0.790,0.007 -0.774,0.008 -0.757,0.009 -0.741,0.010 -0.725,0.011 -0.709,0.012 -0.693,0.013 -0.677,0.015 -0.661,0.016 -0.645,0.018 -0.629,0.020 -0.612,0.022 -0.596,0.024 -0.580,0.027 -0.564,0.029 -0.548,0.032 -0.532,0.036 -0.516,0.039 -0.500,0.043 -0.483,0.047 -0.467,0.052 -0.451,0.057 -0.435,0.063 -0.419,0.069 -0.403,0.076 -0.387,0.083 -0.371,0.091 -0.355,0.100 -0.338,0.109 -0.322,0.119 -0.306,0.130 -0.290,0.142 -0.274,0.154 -0.258,0.168 -0.242,0.182 -0.226,0.198 -0.210,0.214 -0.193,0.231 -0.177,0.250 -0.161,0.269 -0.145,0.289 -0.129,0.310 -0.113,0.332 -0.097,0.354 -0.081,0.378 -0.064,0.401 -0.048,0.426 -0.032,0.450 -0.016,0.475 -0.000,0.500 0.016,0.525 0.032,0.550 0.048,0.574 0.064,0.599 0.081,0.622 0.097,0.646 0.113,0.668 0.129,0.690 0.145,0.711 0.161,0.731 0.177,0.750 0.193,0.769 0.210,0.786 0.226,0.802 0.242,0.818 0.258,0.832 0.274,0.846 0.290,0.858 0.306,0.870 0.322,0.881 0.338,0.891 0.355,0.900 0.371,0.909 0.387,0.917 0.403,0.924 0.419,0.931 0.435,0.937 0.451,0.943 0.467,0.948 0.483,0.953 0.500,0.957 0.516,0.961 0.532,0.964 0.548,0.968 0.564,0.971 0.580,0.973 0.596,0.976 0.612,0.978 0.629,0.980 0.645,0.982 0.661,0.984 0.677,0.985 0.693,0.987 0.709,0.988 0.725,0.989 0.741,0.990 0.757,0.991 0.774,0.992 0.790,0.993 0.806,0.993" />
<polyline points="-0.806,0.002 -0.790,0.002 -0.774,0.002 -0.757,0.002 -0.741,0.002 -0.725,0.002 -0.709,0.003 -0.693,0.003 -0.677,0.003 -0.661,0.004 -0.645,0.004 -0.629,0.004 -0.612,0.005 -0.596,0.005 -0.580,0.006 -0.564,0.007 -0.548,0.007 -0.532,0.008 -0.516,0.009 -0.500,0.010 -0.483,0.011 -0.467,0.012 -0.451,0.013 -0.435,0.015 -0.419,0.016 -0.403,0.018 -0.387,0.020 -0.371,0.022 -0.355,0.024 -0.338,0.027 -0.322,0.029 -0.306,0.032 -0.290,0.036 -0.274,0.039 -0.258,0.043 -0.242,0.047 -0.226,0.052 -0.210,0.057 -0.193,0.063 -0.177,0.069 -0.161,0.076 -0.145,0.083 -0.129,0.091 -0.113,0.100 -0.097,0.109 -0.081,0.119 -0.064,0.130 -0.048,0.142 -0.032,0.154 -0.016,0.168 -0.000,0.182 0.016,0.198 0.032,0.214 0.048,0.231 0.064,0.250 0.081,0.269 0.097,0.289 0.113,0.310 0.129,0.332 0.145,0.354 0.161,0.378 0.177,0.401 0.193,0.426 0.210,0.450 0.226,0.475 0.242,0.500 0.258,0.525 0.274,0.550 0.290,0.574 0.306,0.599 0.322,0.622 0.338,0.646 0.355,0.668 0.371,0.690 0.387,0.711 0.403,0.731 0.419,0.750 0.435,0.769 0.451,0.786 0.467,0.802 0.483,0.818 0.500,0.832 0.516,0.846 0.532,0.858 0.548,0.870 0.564,0.881 0.580,0.891 0.596,0.900 0.612,0.909 0.629,0.917 0.645,0.924 0.661,0.931 0.677,0.937 0.693,0.943 0.709,0.948 0.725,0.953 0.741,0.957 0.757,0.961 0.774,0.964 0.790,0.968 0.806,0.971" />
</g>
</svg>