<svg xmlns="http://www.w3.org/2000/svg" width="161.8" height="100.0" viewBox="-3.366 33.408 171.803 110.000">
<g fill="none" stroke="black" stroke-width="0.0033%" transform="translate(0, 176.8166) scale(149.6306, -149.6306)">
<circle cx="0.011" cy="0.500" r="0.003" />
<circle cx="0.022" cy="0.925" r="0.003" />
<circle cx="0.033" cy="0.257" r="0.003" />
<circle cx="0.044" cy="0.706" r="0.003" />
<circle cx="0.055" cy="0.768" r="0.003" />
<circle cx="0.066" cy="0.659" r="0.003" />
<circle cx="0.076" cy="0.831" r="0.003" />
<circle cx="0.087" cy="0.519" r="0.003" />
<circle cx="0.098" cy="0.924" r="0.003" />
<circle cx="0.109" cy="0.261" r="0.003" />
<circle cx="0.120" cy="0.713" r="0.003" />
<circle cx="0.131" cy="0.757" r="0.003" />
<circle cx="0.142" cy="0.681" r="0.003" />
<circle cx="0.153" cy="0.803" r="0.003" />
<circle cx="0.164" cy="0.585" r="0.003" />
<circle cx="0.175" cy="0.898" r="0.003" />
<circle cx="0.186" cy="0.338" r="0.003" />
<circle cx="0.197" cy="0.828" r="0.003" />
<circle cx="0.208" cy="0.527" r="0.003" />
<circle cx="0.218" cy="0.922" r="0.003" />
<circle cx="0.229" cy="0.265" r="0.003" />
<circle cx="0.240" cy="0.721" r="0.003" />
<circle cx="0.251" cy="0.745" r="0.003" />
<circle cx="0.262" cy="0.703" r="0.003" />
<circle cx="0.273" cy="0.773" r="0.003" />
<circle cx="0.284" cy="0.650" r="0.003" />
<circle cx="0.295" cy="0.842" r="0.003" />
<circle cx="0.306" cy="0.492" r="0.003" />
<circle cx="0.317" cy="0.925" r="0.003" />
<circle cx="0.328" cy="0.257" r="0.003" />
<circle cx="0.339" cy="0.707" r="0.003" />
<circle cx="0.350" cy="0.766" r="0.003" />
<circle cx="0.360" cy="0.663" r="0.003" />
<circle cx="0.371" cy="0.826" r="0.003" />
<circle cx="0.382" cy="0.531" r="0.003" />
<circle cx="0.393" cy="0.921" r="0.003" />
<circle cx="0.404" cy="0.268" r="0.003" />
<circle cx="0.415" cy="0.725" r="0.003" />
<circle cx="0.426" cy="0.737" r="0.003" />
<circle cx="0.437" cy="0.717" r="0.003" />
<circle cx="0.448" cy="0.750" r="0.003" />
<circle cx="0.459" cy="0.693" r="0.003" />
<circle cx="0.470" cy="0.787" r="0.003" />
<circle cx="0.481" cy="0.621" r="0.003" />
<circle cx="0.492" cy="0.871" r="0.003" />
<circle cx="0.502" cy="0.416" r="0.003" />
<circle cx="0.513" cy="0.899" r="0.003" />
<circle cx="0.524" cy="0.336" r="0.003" />
<circle cx="0.535" cy="0.826" r="0.003" />
<circle cx="0.546" cy="0.533" r="0.003" />
<circle cx="0.557" cy="0.921" r="0.003" />
<circle cx="0.568" cy="0.269" r="0.003" />
<circle cx="0.579" cy="0.728" r="0.003" />
<circle cx="0.590" cy="0.733" r="0.003" />
<circle cx="0.601" cy="0.723" r="0.003" />
<circle cx="0.612" cy="0.740" r="0.003" />
<circle cx="0.623" cy="0.711" r="0.003" />
<circle cx="0.634" cy="0.760" r="0.003" />
<circle cx="0.644" cy="0.675" r="0.003" />
<circle cx="0.655" cy="0.812" r="0.003" />
<circle cx="0.666" cy="0.565" r="0.003" />
<circle cx="0.677" cy="0.909" r="0.003" />
<circle cx="0.688" cy="0.305" r="0.003" />
<circle cx="0.699" cy="0.784" r="0.003" />
<circle cx="0.710" cy="0.626" r="0.003" />
<circle cx="0.721" cy="0.866" r="0.003" />
<circle cx="0.732" cy="0.430" r="0.003" />
<circle cx="0.743" cy="0.907" r="0.003" />
<circle cx="0.754" cy="0.313" r="0.003" />
<circle cx="0.765" cy="0.795" r="0.003" />
<circle cx="0.776" cy="0.602" r="0.003" />
<circle cx="0.786" cy="0.886" r="0.003" />
<circle cx="0.797" cy="0.373" r="0.003" />
<circle cx="0.808" cy="0.865" r="0.003" />
<circle cx="0.819" cy="0.432" r="0.003" />
<circle cx="0.830" cy="0.908" r="0.003" />
<circle cx="0.841" cy="0.309" r="0.003" />
<circle cx="0.852" cy="0.790" r="0.003" />
<circle cx="0.863" cy="0.615" r="0.003" />
<circle cx="0.874" cy="0.876" r="0.003" />
<circle cx="0.885" cy="0.401" r="0.003" />
<circle cx="0.896" cy="0.889" r="0.003" />
<circle cx="0.907" cy="0.366" r="0.003" />
<circle cx="0.918" cy="0.859" r="0.003" />
<circle cx="0.928" cy="0.448" r="0.003" />
<circle cx="0.939" cy="0.915" r="0.003" />
<circle cx="0.950" cy="0.288" r="0.003" />
<circle cx="0.961" cy="0.758" r="0.003" />
<circle cx="0.972" cy="0.678" r="0.003" />
<circle cx="0.983" cy="0.807" r="0.003" />
<circle cx="0.994" cy="0.576" r="0.003" />
<circle cx="1.005" cy="0.904" r="0.003" />
<circle cx="1.016" cy="0.321" r="0.003" />
<circle cx="1.027" cy="0.807" r="0.003" />
<circle cx="1.038" cy="0.576" r="0.003" />
<circle cx="1.049" cy="0.903" r="0.003" />
<circle cx="1.060" cy="0.323" r="0.003" />
<circle cx="1.070" cy="0.809" r="0.003" />
<circle cx="1.081" cy="0.572" r="0.003" />
<circle cx="1.092" cy="0.906" r="0.003" />
</g>
</svg>