<svg xmlns="http://www.w3.org/2000/svg" width="161.8" height="100.0" viewBox="-3.366 5.803 171.803 110.000">
<g fill="none" stroke="black" stroke-width="0.0044%" transform="translate(0, 121.6066) scale(113.6444, -113.6444)">
<circle cx="0.014" cy="0.500" r="0.004" />
<circle cx="0.029" cy="0.975" r="0.004" />
<circle cx="0.043" cy="0.095" r="0.004" />
<circle cx="0.058" cy="0.335" r="0.004" />
<circle cx="0.072" cy="0.869" r="0.004" />
<circle cx="0.086" cy="0.443" r="0.004" />
<circle cx="0.101" cy="0.962" r="0.004" />
<circle cx="0.115" cy="0.142" r="0.004" />
<circle cx="0.129" cy="0.475" r="0.004" />
<circle cx="0.144" cy="0.973" r="0.004" />
<circle cx="0.158" cy="0.104" r="0.004" />
<circle cx="0.173" cy="0.363" r="0.004" />
<circle cx="0.187" cy="0.902" r="0.004" />
<circle cx="0.201" cy="0.344" r="0.004" />
<circle cx="0.216" cy="0.880" r="0.004" />
<circle cx="0.230" cy="0.412" r="0.004" />
<circle cx="0.244" cy="0.945" r="0.004" />
<circle cx="0.259" cy="0.203" r="0.004" />
<circle cx="0.273" cy="0.632" r="0.004" />
<circle cx="0.288" cy="0.907" r="0.004" />
<circle cx="0.302" cy="0.328" r="0.004" />
<circle cx="0.316" cy="0.859" r="0.004" />
<circle cx="0.331" cy="0.471" r="0.004" />
<circle cx="0.345" cy="0.972" r="0.004" />
<circle cx="0.360" cy="0.107" r="0.004" />
<circle cx="0.374" cy="0.373" r="0.004" />
<circle cx="0.388" cy="0.912" r="0.004" />
<circle cx="0.403" cy="0.314" r="0.004" />
<circle cx="0.417" cy="0.840" r="0.004" />
<circle cx="0.431" cy="0.524" r="0.004" />
<circle cx="0.446" cy="0.973" r="0.004" />
<circle cx="0.460" cy="0.103" r="0.004" />
<circle cx="0.475" cy="0.360" r="0.004" />
<circle cx="0.489" cy="0.899" r="0.004" />
<circle cx="0.503" cy="0.354" r="0.004" />
<circle cx="0.518" cy="0.892" r="0.004" />
<circle cx="0.532" cy="0.376" r="0.004" />
<circle cx="0.546" cy="0.915" r="0.004" />
<circle cx="0.561" cy="0.303" r="0.004" />
<circle cx="0.575" cy="0.824" r="0.004" />
<circle cx="0.590" cy="0.566" r="0.004" />
<circle cx="0.604" cy="0.958" r="0.004" />
<circle cx="0.618" cy="0.157" r="0.004" />
<circle cx="0.633" cy="0.517" r="0.004" />
<circle cx="0.647" cy="0.974" r="0.004" />
<circle cx="0.662" cy="0.099" r="0.004" />
<circle cx="0.676" cy="0.348" r="0.004" />
<circle cx="0.690" cy="0.885" r="0.004" />
<circle cx="0.705" cy="0.397" r="0.004" />
<circle cx="0.719" cy="0.934" r="0.004" />
<circle cx="0.733" cy="0.241" r="0.004" />
<circle cx="0.748" cy="0.714" r="0.004" />
<circle cx="0.762" cy="0.796" r="0.004" />
<circle cx="0.777" cy="0.633" r="0.004" />
<circle cx="0.791" cy="0.906" r="0.004" />
<circle cx="0.805" cy="0.331" r="0.004" />
<circle cx="0.820" cy="0.864" r="0.004" />
<circle cx="0.834" cy="0.458" r="0.004" />
<circle cx="0.849" cy="0.968" r="0.004" />
<circle cx="0.863" cy="0.120" r="0.004" />
<circle cx="0.877" cy="0.413" r="0.004" />
<circle cx="0.892" cy="0.945" r="0.004" />
<circle cx="0.906" cy="0.202" r="0.004" />
<circle cx="0.920" cy="0.628" r="0.004" />
<circle cx="0.935" cy="0.911" r="0.004" />
<circle cx="0.949" cy="0.315" r="0.004" />
<circle cx="0.964" cy="0.841" r="0.004" />
<circle cx="0.978" cy="0.522" r="0.004" />
<circle cx="0.992" cy="0.973" r="0.004" />
<circle cx="1.007" cy="0.102" r="0.004" />
<circle cx="1.021" cy="0.356" r="0.004" />
<circle cx="1.035" cy="0.895" r="0.004" />
<circle cx="1.050" cy="0.368" r="0.004" />
<circle cx="1.064" cy="0.907" r="0.004" />
<circle cx="1.079" cy="0.330" r="0.004" />
<circle cx="1.093" cy="0.862" r="0.004" />
<circle cx="1.107" cy="0.463" r="0.004" />
<circle cx="1.122" cy="0.970" r="0.004" />
<circle cx="1.136" cy="0.114" r="0.004" />
<circle cx="1.151" cy="0.395" r="0.004" />
<circle cx="1.165" cy="0.932" r="0.004" />
<circle cx="1.179" cy="0.247" r="0.004" />
<circle cx="1.194" cy="0.726" r="0.004" />
<circle cx="1.208" cy="0.776" r="0.004" />
<circle cx="1.222" cy="0.679" r="0.004" />
<circle cx="1.237" cy="0.851" r="0.004" />
<circle cx="1.251" cy="0.496" r="0.004" />
<circle cx="1.266" cy="0.975" r="0.004" />
<circle cx="1.280" cy="0.095" r="0.004" />
<circle cx="1.294" cy="0.336" r="0.004" />
<circle cx="1.309" cy="0.871" r="0.004" />
<circle cx="1.323" cy="0.439" r="0.004" />
<circle cx="1.337" cy="0.961" r="0.004" />
<circle cx="1.352" cy="0.148" r="0.004" />
<circle cx="1.366" cy="0.491" r="0.004" />
<circle cx="1.381" cy="0.975" r="0.004" />
<circle cx="1.395" cy="0.096" r="0.004" />
<circle cx="1.409" cy="0.340" r="0.004" />
<circle cx="1.424" cy="0.875" r="0.004" />
<circle cx="1.438" cy="0.428" r="0.004" />
</g>
</svg>