<svg xmlns="http://www.w3.org/2000/svg" width="161.8" height="100.0" viewBox="-5.00 -55.00 171.80 110.00">
<g fill="none" stroke="black" stroke-width="0.0600%" transform="translate(0, 0.0000) scale(8.3333, -8.3333)">
<polyline points="0.00,-6.00 0.19,-4.60 0.39,-3.89 0.58,-3.48 0.78,-3.18 0.97,-2.94 1.16,-2.75 1.36,-2.59 1.55,-2.44 1.75,-2.31 1.94,-2.20 2.14,-2.09 2.33,-1.99 2.52,-1.90 2.72,-1.82 2.91,-1.73 3.11,-1.66 3.30,-1.59 3.49,-1.52 3.69,-1.45 3.88,-1.39 4.08,-1.32 4.27,-1.27 4.47,-1.21 4.66,-1.15 4.85,-1.10 5.05,-1.05 5.24,-0.99 5.44,-0.94 5.63,-0.90 5.82,-0.85 6.02,-0.80 6.21,-0.75 6.41,-0.71 6.60,-0.66 6.80,-0.62 6.99,-0.58 7.18,-0.53 7.38,-0.49 7.57,-0.45 7.77,-0.41 7.96,-0.36 8.15,-0.32 8.35,-0.28 8.54,-0.24 8.74,-0.20 8.93,-0.16 9.13,-0.12 9.32,-0.08 9.51,-0.04 9.71,0.00 9.90,0.04 10.10,0.08 10.29,0.12 10.48,0.16 10.68,0.20 10.87,0.24 11.07,0.28 11.26,0.32 11.46,0.36 11.65,0.41 11.84,0.45 12.04,0.49 12.23,0.53 12.43,0.58 12.62,0.62 12.81,0.66 13.01,0.71 13.20,0.75 13.40,0.80 13.59,0.85 13.79,0.90 13.98,0.94 14.17,0.99 14.37,1.05 14.56,1.10 14.76,1.15 14.95,1.21 15.14,1.27 15.34,1.32 15.53,1.39 15.73,1.45 15.92,1.52 16.12,1.59 16.31,1.66 16.50,1.73 16.70,1.82 16.89,1.90 17.09,1.99 17.28,2.09 17.47,2.20 17.67,2.31 17.86,2.44 18.06,2.59 18.25,2.75 18.45,2.94 18.64,3.18 18.83,3.48 19.03,3.89 19.22,4.60 19.42,6.00" />
</g>
</svg>