<svg xmlns="http://www.w3.org/2000/svg" width="161.8" height="100.0" viewBox="-1.764 -30.012 171.803 110.000">
<g fill="none" stroke="black" stroke-width="0.0100%" transform="translate(0, 49.9768) scale(50.1162, -50.1162)">
<circle cx="0.065" cy="0.000" r="0.010" />
<polyline points="0.065,0.310 0.129,-0.428 0.194,1.222 0.258,0.541 0.323,-0.497 0.387,1.486 0.452,1.445 0.517,1.288 0.581,0.740 0.646,-0.384 0.710,1.064 0.775,0.137 0.839,-0.236 0.904,0.584 0.969,-0.486 1.033,1.445 1.098,1.284 1.162,0.731 1.227,-0.394 1.291,1.097 1.356,0.214 1.421,-0.336 1.485,0.898 1.550,-0.184 1.614,0.436 1.679,-0.492 1.743,1.467 1.808,1.370 1.873,1.014 1.937,0.027 2.002,-0.053 2.066,0.112 2.131,-0.199 2.195,0.478 2.260,-0.499 2.325,1.496 2.389,1.485 2.454,1.441 2.518,1.272 2.583,0.691 2.647,-0.427 2.712,1.218 2.777,0.532 2.841,-0.498 2.906,1.492 2.970,1.467 3.035,1.369 3.099,1.012 3.164,0.024 3.229,-0.047 3.293,0.098" />
</g>
</svg>