<svg xmlns="http://www.w3.org/2000/svg" width="161.8" height="100.0" viewBox="-3.37 -55.00 171.80 110.00">
<g fill="none" stroke="black" stroke-width="0.0230%" transform="translate(0, 0.0000) scale(21.7147, -21.7147)">
<circle cx="0.08" cy="0.00" r="0.02" />
<polyline points="0.08,-2.30 0.15,-2.26 0.23,-2.21 0.30,-2.16 0.38,-2.12 0.45,-2.07 0.53,-2.02 0.60,-1.98 0.68,-1.93 0.75,-1.88 0.83,-1.84 0.90,-1.79 0.98,-1.74 1.05,-1.70 1.13,-1.65 1.20,-1.60 1.28,-1.56 1.35,-1.51 1.43,-1.47 1.51,-1.42 1.58,-1.37 1.66,-1.33 1.73,-1.28 1.81,-1.23 1.88,-1.19 1.96,-1.14 2.03,-1.09 2.11,-1.05 2.18,-1.00 2.26,-0.95 2.33,-0.91 2.41,-0.86 2.48,-0.81 2.56,-0.77 2.63,-0.72 2.71,-0.67 2.78,-0.63 2.86,-0.58 2.94,-0.53 3.01,-0.49 3.09,-0.44 3.16,-0.40 3.24,-0.35 3.31,-0.30 3.39,-0.26 3.46,-0.21 3.54,-0.16 3.61,-0.12 3.69,-0.07 3.76,-0.02 3.84,0.02 3.91,0.07 3.99,0.12 4.06,0.16 4.14,0.21 4.21,0.26 4.29,0.30 4.37,0.35 4.44,0.40 4.52,0.44 4.59,0.49 4.67,0.53 4.74,0.58 4.82,0.63 4.89,0.67 4.97,0.72 5.04,0.77 5.12,0.81 5.19,0.86 5.27,0.91 5.34,0.95 5.42,1.00 5.49,1.05 5.57,1.09 5.64,1.14 5.72,1.19 5.80,1.23 5.87,1.28 5.95,1.33 6.02,1.37 6.10,1.42 6.17,1.47 6.25,1.51 6.32,1.56 6.40,1.60 6.47,1.65 6.55,1.70 6.62,1.74 6.70,1.79 6.77,1.84 6.85,1.88 6.92,1.93 7.00,1.98 7.07,2.02 7.15,2.07 7.23,2.12 7.30,2.16 7.38,2.21 7.45,2.26 7.53,2.30" />
</g>
</svg>