<svg xmlns="http://www.w3.org/2000/svg" width="161.8" height="100.0" viewBox="-5.000 -5.000 171.803 110.000">
<g fill="none" stroke="black" stroke-width="0.0017%" transform="translate(0, 100.0000) scale(300.6556, -300.6556)">
<circle cx="0.000" cy="0.000" r="0.002" />
<circle cx="0.000" cy="0.333" r="0.002" />
<polyline points="0.000,0.000 0.005,0.000 0.011,0.000 0.016,0.000 0.022,0.000 0.027,0.000 0.032,0.000 0.038,0.000 0.043,0.000 0.048,0.001 0.054,0.001 0.059,0.002 0.065,0.004 0.070,0.006 0.075,0.010 0.081,0.014 0.086,0.019 0.091,0.025 0.097,0.032 0.102,0.041 0.108,0.050 0.113,0.060 0.118,0.071 0.124,0.083 0.129,0.095 0.135,0.108 0.140,0.121 0.145,0.134 0.151,0.148 0.156,0.161 0.161,0.175 0.167,0.188 0.172,0.200 0.178,0.213 0.183,0.225 0.188,0.236 0.194,0.247 0.199,0.257 0.205,0.267 0.210,0.276 0.215,0.284 0.221,0.292 0.226,0.299 0.231,0.305 0.237,0.311 0.242,0.316 0.248,0.320 0.253,0.323 0.258,0.326 0.264,0.329 0.269,0.330 0.274,0.332 0.280,0.332 0.285,0.333 0.291,0.332 0.296,0.332 0.301,0.330 0.307,0.329 0.312,0.327 0.318,0.325 0.323,0.322 0.328,0.319 0.334,0.316 0.339,0.313 0.344,0.309 0.350,0.306 0.355,0.302 0.361,0.298 0.366,0.293 0.371,0.289 0.377,0.284 0.382,0.280 0.387,0.275 0.393,0.270 0.398,0.266 0.404,0.261 0.409,0.256 0.414,0.251 0.420,0.246 0.425,0.241 0.431,0.236 0.436,0.232 0.441,0.227 0.447,0.222 0.452,0.217 0.457,0.212 0.463,0.208 0.468,0.203 0.474,0.198 0.479,0.194 0.484,0.189 0.490,0.185 0.495,0.180 0.500,0.176 0.506,0.172 0.511,0.168 0.517,0.164 0.522,0.160 0.527,0.156 0.533,0.152 0.538,0.148" />
<polyline points="0.000,0.000 0.005,0.000 0.011,0.000 0.016,0.001 0.022,0.003 0.027,0.006 0.032,0.012 0.038,0.019 0.043,0.028 0.048,0.039 0.054,0.051 0.059,0.063 0.065,0.077 0.070,0.090 0.075,0.103 0.081,0.117 0.086,0.129 0.091,0.142 0.097,0.154 0.102,0.165 0.108,0.176 0.113,0.186 0.118,0.195 0.124,0.204 0.129,0.212 0.135,0.219 0.140,0.225 0.145,0.231 0.151,0.236 0.156,0.241 0.161,0.245 0.167,0.248 0.172,0.251 0.178,0.253 0.183,0.255 0.188,0.257 0.194,0.258 0.199,0.259 0.205,0.259 0.210,0.259 0.215,0.259 0.221,0.258 0.226,0.258 0.231,0.257 0.237,0.256 0.242,0.254 0.248,0.252 0.253,0.251 0.258,0.249 0.264,0.247 0.269,0.245 0.274,0.242 0.280,0.240 0.285,0.237 0.291,0.235 0.296,0.232 0.301,0.230 0.307,0.227 0.312,0.224 0.318,0.221 0.323,0.219 0.328,0.216 0.334,0.213 0.339,0.210 0.344,0.207 0.350,0.204 0.355,0.201 0.361,0.198 0.366,0.196 0.371,0.193 0.377,0.190 0.382,0.187 0.387,0.184 0.393,0.181 0.398,0.179 0.404,0.176 0.409,0.173 0.414,0.170 0.420,0.168 0.425,0.165 0.431,0.162 0.436,0.160 0.441,0.157 0.447,0.155 0.452,0.152 0.457,0.150 0.463,0.147 0.468,0.145 0.474,0.142 0.479,0.140 0.484,0.138 0.490,0.135 0.495,0.133 0.500,0.131 0.506,0.129 0.511,0.127 0.517,0.125 0.522,0.123 0.527,0.120 0.533,0.118 0.538,0.116" />
<polyline points="0.000,0.000 0.005,0.127 0.011,0.210 0.016,0.255 0.022,0.279 0.027,0.293 0.032,0.299 0.038,0.301 0.043,0.301 0.048,0.298 0.054,0.294 0.059,0.289 0.065,0.284 0.070,0.278 0.075,0.273 0.081,0.267 0.086,0.261 0.091,0.255 0.097,0.250 0.102,0.244 0.108,0.238 0.113,0.233 0.118,0.228 0.124,0.223 0.129,0.218 0.135,0.213 0.140,0.208 0.145,0.204 0.151,0.199 0.156,0.195 0.161,0.191 0.167,0.187 0.172,0.183 0.178,0.179 0.183,0.176 0.188,0.172 0.194,0.169 0.199,0.166 0.205,0.162 0.210,0.159 0.215,0.156 0.221,0.153 0.226,0.150 0.231,0.148 0.237,0.145 0.242,0.142 0.248,0.140 0.253,0.137 0.258,0.135 0.264,0.133 0.269,0.130 0.274,0.128 0.280,0.126 0.285,0.124 0.291,0.122 0.296,0.120 0.301,0.118 0.307,0.116 0.312,0.114 0.318,0.112 0.323,0.110 0.328,0.109 0.334,0.107 0.339,0.105 0.344,0.104 0.350,0.102 0.355,0.101 0.361,0.099 0.366,0.098 0.371,0.096 0.377,0.095 0.382,0.094 0.387,0.092 0.393,0.091 0.398,0.090 0.404,0.088 0.409,0.087 0.414,0.086 0.420,0.085 0.425,0.084 0.431,0.083 0.436,0.082 0.441,0.080 0.447,0.079 0.452,0.078 0.457,0.077 0.463,0.076 0.468,0.075 0.474,0.074 0.479,0.074 0.484,0.073 0.490,0.072 0.495,0.071 0.500,0.070 0.506,0.069 0.511,0.068 0.517,0.067 0.522,0.067 0.527,0.066 0.533,0.065 0.538,0.064" />
</g>
</svg>