<svg xmlns="http://www.w3.org/2000/svg" width="161.8" height="100.0" viewBox="-120.57 -41.99 171.80 110.00">
<g fill="none" stroke="black" stroke-width="0.0398%" transform="translate(0, 26.0188) scale(12.5751, -12.5751)">
<polyline points="-9.19,5.01 -9.15,-0.99 -9.10,-1.64 -9.06,-2.00 -9.02,-2.24 -8.98,-2.42 -8.93,-2.55 -8.89,-2.66 -8.85,-2.74 -8.80,-2.80 -8.76,-2.85 -8.72,-2.88 -8.68,-2.91 -8.63,-2.93 -8.59,-2.94 -8.55,-2.94 -8.50,-2.94 -8.46,-2.93 -8.42,-2.91 -8.38,-2.89 -8.33,-2.86 -8.29,-2.83 -8.25,-2.79 -8.20,-2.75 -8.16,-2.70 -8.12,-2.64 -8.08,-2.59 -8.03,-2.52 -7.99,-2.45 -7.95,-2.37 -7.90,-2.28 -7.86,-2.19 -7.82,-2.09 -7.78,-1.97 -7.73,-1.85 -7.69,-1.71 -7.65,-1.55 -7.60,-1.36 -7.56,-1.15 -7.52,-0.89 -7.48,-0.56 -7.43,-0.10 -7.39,0.70 -7.35,2.53 -7.30,0.49 -7.26,-0.10 -7.22,-0.45 -7.17,-0.68 -7.13,-0.85 -7.09,-0.99 -7.05,-1.09 -7.00,-1.18 -6.96,-1.24 -6.92,-1.29 -6.87,-1.33 -6.83,-1.36 -6.79,-1.39 -6.75,-1.40 -6.70,-1.41 -6.66,-1.41 -6.62,-1.40 -6.57,-1.39 -6.53,-1.37 -6.49,-1.35 -6.45,-1.32 -6.40,-1.28 -6.36,-1.25 -6.32,-1.20 -6.27,-1.15 -6.23,-1.10 -6.19,-1.04 -6.15,-0.97 -6.10,-0.89 -6.06,-0.81 -6.02,-0.72 -5.97,-0.62 -5.93,-0.51 -5.89,-0.39 -5.85,-0.25 -5.80,-0.10 -5.76,0.08 -5.72,0.30 -5.67,0.56 -5.63,0.89 -5.59,1.38 -5.55,2.28 -5.50,3.23 -5.46,1.75 -5.42,1.21 -5.37,0.88 -5.33,0.65 -5.29,0.48 -5.24,0.34 -5.20,0.24 -5.16,0.15 -5.12,0.08 -5.07,0.03 -5.03,-0.02 -4.99,-0.06 -4.94,-0.08 -4.90,-0.10 -4.86,-0.11 -4.82,-0.12 -4.77,-0.12 -4.73,-0.11 -4.69,-0.10 -4.64,-0.08 -4.60,-0.06 -4.56,-0.03 -4.52,0.00 -4.47,0.04 -4.43,0.08 -4.39,0.13 -4.34,0.19 -4.30,0.25 -4.26,0.32 -4.22,0.39 -4.17,0.48 -4.13,0.57 -4.09,0.67 -4.04,0.79 -4.00,0.92 -3.96,1.07 -3.92,1.25 -3.87,1.46 -3.83,1.72 -3.79,2.07 -3.74,2.58 -3.70,3.61 -3.66,3.92 -3.61,2.74 -3.57,2.23 -3.53,1.92 -3.49,1.69 -3.44,1.51 -3.40,1.38 -3.36,1.26 -3.31,1.17 -3.27,1.10 -3.23,1.03 -3.19,0.98 -3.14,0.94 -3.10,0.90 -3.06,0.88 -3.01,0.86 -2.97,0.84 -2.93,0.84 -2.89,0.83 -2.84,0.84 -2.80,0.85 -2.76,0.86 -2.71,0.88 -2.67,0.90 -2.63,0.93 -2.59,0.97 -2.54,1.01 -2.50,1.05 -2.46,1.11 -2.41,1.17 -2.37,1.23 -2.33,1.31 -2.29,1.39 -2.24,1.49 -2.20,1.60 -2.16,1.72 -2.11,1.86 -2.07,2.03 -2.03,2.24 -1.99,2.50 -1.94,2.85 -1.90,3.39 -1.86,4.60 -1.81,4.32 -1.77,3.32 -1.73,2.84 -1.68,2.53 -1.64,2.30 -1.60,2.12 -1.56,1.97 -1.51,1.85 -1.47,1.75 -1.43,1.66 -1.38,1.59 -1.34,1.52 -1.30,1.47 -1.26,1.42 -1.21,1.38 -1.17,1.35 -1.13,1.32 -1.08,1.30 -1.04,1.28 -1.00,1.27 -0.96,1.27 -0.91,1.27 -0.87,1.27 -0.83,1.28 -0.78,1.29 -0.74,1.31 -0.70,1.34 -0.66,1.37 -0.61,1.40 -0.57,1.44 -0.53,1.49 -0.48,1.55 -0.44,1.62 -0.40,1.70 -0.36,1.79 -0.31,1.90 -0.27,2.02 -0.23,2.18 -0.18,2.37 -0.14,2.62 -0.10,2.96 -0.06,3.52 -0.01,5.01 0.03,4.08 0.07,3.20 0.12,2.73 0.16,2.40 0.20,2.15 0.25,1.95 0.29,1.78 0.33,1.64 0.37,1.51 0.42,1.39 0.46,1.29 0.50,1.19 0.55,1.11 0.59,1.03 0.63,0.95 0.67,0.89 0.72,0.82 0.76,0.76 0.80,0.71 0.85,0.66 0.89,0.61 0.93,0.56 0.97,0.52 1.02,0.47 1.06,0.44 1.10,0.40 1.15,0.36 1.19,0.33 1.23,0.30 1.27,0.27 1.32,0.24 1.36,0.21 1.40,0.19 1.45,0.17 1.49,0.14 1.53,0.12 1.57,0.10 1.62,0.08 1.66,0.06 1.70,0.05 1.75,0.03 1.79,0.02 1.83,0.00 1.87,-0.01 1.92,-0.02 1.96,-0.03 2.00,-0.05 2.05,-0.06 2.09,-0.06 2.13,-0.07 2.18,-0.08 2.22,-0.09 2.26,-0.09 2.30,-0.10 2.35,-0.10 2.39,-0.11 2.43,-0.11 2.48,-0.11 2.52,-0.12 2.56,-0.12 2.60,-0.12 2.65,-0.12 2.69,-0.12 2.73,-0.12 2.78,-0.12 2.82,-0.12 2.86,-0.12 2.90,-0.11 2.95,-0.11 2.99,-0.11 3.03,-0.11 3.08,-0.10 3.12,-0.10 3.16,-0.09 3.20,-0.09 3.25,-0.08 3.29,-0.07 3.33,-0.07 3.38,-0.06 3.42,-0.05 3.46,-0.04 3.50,-0.04 3.55,-0.03 3.59,-0.02 3.63,-0.01 3.68,0.00" />
</g>
</svg>