<svg xmlns="http://www.w3.org/2000/svg" width="161.8" height="100.0" viewBox="-2.5 -55.0 171.8 110.0">
<g fill="none" stroke="black" stroke-width="0.7599%" transform="translate(0, 0.0000) scale(0.6580, -0.6580)">
<circle cx="3.7" cy="0.0" r="0.8" />
<line x1="3.7" y1="0.0" x2="3.7" y2="-76.0" />
<line x1="7.5" y1="0.0" x2="7.5" y2="-73.7" />
<line x1="11.2" y1="0.0" x2="11.2" y2="-71.4" />
<line x1="14.9" y1="0.0" x2="14.9" y2="-69.1" />
<line x1="18.6" y1="0.0" x2="18.6" y2="-66.8" />
<line x1="22.4" y1="0.0" x2="22.4" y2="-64.5" />
<line x1="26.1" y1="0.0" x2="26.1" y2="-62.2" />
<line x1="29.8" y1="0.0" x2="29.8" y2="-59.9" />
<line x1="33.5" y1="0.0" x2="33.5" y2="-57.6" />
<line x1="37.3" y1="0.0" x2="37.3" y2="-55.3" />
<line x1="41.0" y1="0.0" x2="41.0" y2="-53.0" />
<line x1="44.7" y1="0.0" x2="44.7" y2="-50.7" />
<line x1="48.4" y1="0.0" x2="48.4" y2="-48.4" />
<line x1="52.2" y1="0.0" x2="52.2" y2="-46.1" />
<line x1="55.9" y1="0.0" x2="55.9" y2="-43.7" />
<line x1="59.6" y1="0.0" x2="59.6" y2="-41.4" />
<line x1="63.3" y1="0.0" x2="63.3" y2="-39.1" />
<line x1="67.1" y1="0.0" x2="67.1" y2="-36.8" />
<line x1="70.8" y1="0.0" x2="70.8" y2="-34.5" />
<line x1="74.5" y1="0.0" x2="74.5" y2="-32.2" />
<line x1="78.2" y1="0.0" x2="78.2" y2="-29.9" />
<line x1="82.0" y1="0.0" x2="82.0" y2="-27.6" />
<line x1="85.7" y1="0.0" x2="85.7" y2="-25.3" />
<line x1="89.4" y1="0.0" x2="89.4" y2="-23.0" />
<line x1="93.1" y1="0.0" x2="93.1" y2="-20.7" />
<line x1="96.9" y1="0.0" x2="96.9" y2="-18.4" />
<line x1="100.6" y1="0.0" x2="100.6" y2="-16.1" />
<line x1="104.3" y1="0.0" x2="104.3" y2="-13.8" />
<line x1="108.0" y1="0.0" x2="108.0" y2="-11.5" />
<line x1="111.8" y1="0.0" x2="111.8" y2="-9.2" />
<line x1="115.5" y1="0.0" x2="115.5" y2="-6.9" />
<line x1="119.2" y1="0.0" x2="119.2" y2="-4.6" />
<line x1="122.9" y1="0.0" x2="122.9" y2="-2.3" />
<line x1="126.7" y1="0.0" x2="126.7" y2="0.0" />
<line x1="130.4" y1="0.0" x2="130.4" y2="2.3" />
<line x1="134.1" y1="0.0" x2="134.1" y2="4.6" />
<line x1="137.8" y1="0.0" x2="137.8" y2="6.9" />
<line x1="141.6" y1="0.0" x2="141.6" y2="9.2" />
<line x1="145.3" y1="0.0" x2="145.3" y2="11.5" />
<line x1="149.0" y1="0.0" x2="149.0" y2="13.8" />
<line x1="152.8" y1="0.0" x2="152.8" y2="16.1" />
<line x1="156.5" y1="0.0" x2="156.5" y2="18.4" />
<line x1="160.2" y1="0.0" x2="160.2" y2="20.7" />
<line x1="163.9" y1="0.0" x2="163.9" y2="23.0" />
<line x1="167.7" y1="0.0" x2="167.7" y2="25.3" />
<line x1="171.4" y1="0.0" x2="171.4" y2="27.6" />
<line x1="175.1" y1="0.0" x2="175.1" y2="29.9" />
<line x1="178.8" y1="0.0" x2="178.8" y2="32.2" />
<line x1="182.6" y1="0.0" x2="182.6" y2="34.5" />
<line x1="186.3" y1="0.0" x2="186.3" y2="36.8" />
<line x1="190.0" y1="0.0" x2="190.0" y2="39.1" />
<line x1="193.7" y1="0.0" x2="193.7" y2="41.4" />
<line x1="197.5" y1="0.0" x2="197.5" y2="43.7" />
<line x1="201.2" y1="0.0" x2="201.2" y2="46.1" />
<line x1="204.9" y1="0.0" x2="204.9" y2="48.4" />
<line x1="208.6" y1="0.0" x2="208.6" y2="50.7" />
<line x1="212.4" y1="0.0" x2="212.4" y2="53.0" />
<line x1="216.1" y1="0.0" x2="216.1" y2="55.3" />
<line x1="219.8" y1="0.0" x2="219.8" y2="57.6" />
<line x1="223.5" y1="0.0" x2="223.5" y2="59.9" />
<line x1="227.3" y1="0.0" x2="227.3" y2="62.2" />
<line x1="231.0" y1="0.0" x2="231.0" y2="64.5" />
<line x1="234.7" y1="0.0" x2="234.7" y2="66.8" />
<line x1="238.4" y1="0.0" x2="238.4" y2="69.1" />
<line x1="242.2" y1="0.0" x2="242.2" y2="71.4" />
<line x1="245.9" y1="0.0" x2="245.9" y2="73.7" />
<line x1="249.6" y1="0.0" x2="249.6" y2="76.0" />
</g>
</svg>