<svg xmlns="http://www.w3.org/2000/svg" width="161.8" height="100.0" viewBox="-86.7 -56.4 171.8 110.0">
<g fill="none" stroke="black" stroke-width="0.2186%" transform="translate(0, -2.8860) scale(2.2875, -2.2875)">
<circle cx="-35.7" cy="0.0" r="0.2" />
<circle cx="0.0" cy="21.2" r="0.2" />
<circle cx="20.9" cy="10.0" r="0.2" />
<circle cx="21.1" cy="11.7" r="0.2" />
<circle cx="21.5" cy="13.2" r="0.2" />
<circle cx="22.3" cy="14.7" r="0.2" />
<circle cx="23.2" cy="16.2" r="0.2" />
<circle cx="24.4" cy="17.5" r="0.2" />
<circle cx="25.6" cy="18.6" r="0.2" />
<circle cx="27.0" cy="19.7" r="0.2" />
<circle cx="28.4" cy="20.5" r="0.2" />
<circle cx="29.9" cy="21.0" r="0.2" />
<circle cx="31.2" cy="21.2" r="0.2" />
<circle cx="32.5" cy="21.1" r="0.2" />
<circle cx="33.5" cy="20.6" r="0.2" />
<circle cx="34.3" cy="19.6" r="0.2" />
<circle cx="34.9" cy="18.3" r="0.2" />
<circle cx="35.0" cy="16.7" r="0.2" />
<circle cx="34.8" cy="14.7" r="0.2" />
<circle cx="34.2" cy="12.6" r="0.2" />
<circle cx="33.2" cy="10.4" r="0.2" />
<circle cx="31.9" cy="8.2" r="0.2" />
<circle cx="30.3" cy="6.1" r="0.2" />
<circle cx="28.4" cy="4.1" r="0.2" />
<circle cx="26.4" cy="2.4" r="0.2" />
<circle cx="24.2" cy="0.9" r="0.2" />
<circle cx="21.9" cy="-0.3" r="0.2" />
<circle cx="19.7" cy="-1.3" r="0.2" />
<circle cx="17.4" cy="-2.1" r="0.2" />
<circle cx="15.3" cy="-2.7" r="0.2" />
<circle cx="13.2" cy="-3.2" r="0.2" />
<circle cx="11.3" cy="-3.5" r="0.2" />
<circle cx="9.5" cy="-3.7" r="0.2" />
<circle cx="7.9" cy="-3.8" r="0.2" />
<circle cx="6.4" cy="-3.8" r="0.2" />
<circle cx="5.0" cy="-3.8" r="0.2" />
<circle cx="3.8" cy="-3.8" r="0.2" />
<circle cx="2.7" cy="-3.8" r="0.2" />
<circle cx="1.7" cy="-3.7" r="0.2" />
<circle cx="0.8" cy="-3.7" r="0.2" />
<circle cx="-0.0" cy="-3.6" r="0.2" />
<circle cx="-0.7" cy="-3.6" r="0.2" />
<circle cx="-1.4" cy="-3.6" r="0.2" />
<circle cx="-2.0" cy="-3.6" r="0.2" />
<circle cx="-2.5" cy="-3.6" r="0.2" />
<circle cx="-3.0" cy="-3.6" r="0.2" />
<circle cx="-3.4" cy="-3.7" r="0.2" />
<circle cx="-3.8" cy="-3.8" r="0.2" />
<circle cx="-4.2" cy="-3.9" r="0.2" />
<circle cx="-4.6" cy="-4.0" r="0.2" />
<circle cx="-5.0" cy="-4.1" r="0.2" />
<circle cx="-5.3" cy="-4.3" r="0.2" />
<circle cx="-5.7" cy="-4.5" r="0.2" />
<circle cx="-6.1" cy="-4.7" r="0.2" />
<circle cx="-6.4" cy="-4.9" r="0.2" />
<circle cx="-6.8" cy="-5.2" r="0.2" />
<circle cx="-7.2" cy="-5.5" r="0.2" />
<circle cx="-7.7" cy="-5.8" r="0.2" />
<circle cx="-8.1" cy="-6.1" r="0.2" />
<circle cx="-8.6" cy="-6.5" r="0.2" />
<circle cx="-9.1" cy="-6.9" r="0.2" />
<circle cx="-9.6" cy="-7.3" r="0.2" />
<circle cx="-10.2" cy="-7.8" r="0.2" />
<circle cx="-10.9" cy="-8.3" r="0.2" />
<circle cx="-11.5" cy="-8.8" r="0.2" />
<circle cx="-12.2" cy="-9.4" r="0.2" />
<circle cx="-13.0" cy="-9.9" r="0.2" />
<circle cx="-13.8" cy="-10.5" r="0.2" />
<circle cx="-14.6" cy="-11.2" r="0.2" />
<circle cx="-15.5" cy="-11.8" r="0.2" />
<circle cx="-16.5" cy="-12.5" r="0.2" />
<circle cx="-17.4" cy="-13.1" r="0.2" />
<circle cx="-18.5" cy="-13.8" r="0.2" />
<circle cx="-19.5" cy="-14.4" r="0.2" />
<circle cx="-20.6" cy="-14.9" r="0.2" />
<circle cx="-21.6" cy="-15.5" r="0.2" />
<circle cx="-22.7" cy="-15.9" r="0.2" />
<circle cx="-23.7" cy="-16.2" r="0.2" />
<circle cx="-24.7" cy="-16.4" r="0.2" />
<circle cx="-25.6" cy="-16.5" r="0.2" />
<circle cx="-26.5" cy="-16.4" r="0.2" />
<circle cx="-27.2" cy="-16.2" r="0.2" />
<circle cx="-27.8" cy="-15.8" r="0.2" />
<circle cx="-28.2" cy="-15.2" r="0.2" />
<circle cx="-28.5" cy="-14.4" r="0.2" />
<circle cx="-28.6" cy="-13.5" r="0.2" />
<circle cx="-28.4" cy="-12.5" r="0.2" />
<circle cx="-28.1" cy="-11.4" r="0.2" />
<circle cx="-27.6" cy="-10.3" r="0.2" />
<circle cx="-26.9" cy="-9.1" r="0.2" />
<circle cx="-26.0" cy="-7.9" r="0.2" />
<circle cx="-25.0" cy="-6.8" r="0.2" />
<circle cx="-23.9" cy="-5.8" r="0.2" />
<circle cx="-22.7" cy="-4.9" r="0.2" />
<circle cx="-21.4" cy="-4.0" r="0.2" />
<circle cx="-20.1" cy="-3.3" r="0.2" />
<circle cx="-18.8" cy="-2.7" r="0.2" />
<circle cx="-17.4" cy="-2.1" r="0.2" />
<circle cx="-16.2" cy="-1.7" r="0.2" />
<circle cx="-14.9" cy="-1.4" r="0.2" />
<circle cx="-13.8" cy="-1.1" r="0.2" />
<circle cx="-12.6" cy="-0.9" r="0.2" />
<circle cx="-11.6" cy="-0.8" r="0.2" />
<circle cx="-10.7" cy="-0.7" r="0.2" />
<circle cx="-9.8" cy="-0.7" r="0.2" />
<circle cx="-9.0" cy="-0.7" r="0.2" />
<circle cx="-8.3" cy="-0.7" r="0.2" />
<circle cx="-7.6" cy="-0.8" r="0.2" />
<circle cx="-7.1" cy="-0.8" r="0.2" />
<circle cx="-6.6" cy="-0.9" r="0.2" />
<circle cx="-6.1" cy="-1.0" r="0.2" />
<circle cx="-5.8" cy="-1.1" r="0.2" />
<circle cx="-5.4" cy="-1.2" r="0.2" />
<circle cx="-5.2" cy="-1.4" r="0.2" />
<circle cx="-5.0" cy="-1.5" r="0.2" />
<circle cx="-4.8" cy="-1.6" r="0.2" />
<circle cx="-4.7" cy="-1.8" r="0.2" />
<circle cx="-4.6" cy="-1.9" r="0.2" />
<circle cx="-4.6" cy="-2.1" r="0.2" />
<circle cx="-4.6" cy="-2.2" r="0.2" />
<circle cx="-4.6" cy="-2.4" r="0.2" />
<circle cx="-4.6" cy="-2.6" r="0.2" />
<circle cx="-4.7" cy="-2.8" r="0.2" />
<circle cx="-4.8" cy="-3.0" r="0.2" />
<circle cx="-5.0" cy="-3.2" r="0.2" />
<circle cx="-5.2" cy="-3.4" r="0.2" />
<circle cx="-5.4" cy="-3.7" r="0.2" />
<circle cx="-5.6" cy="-3.9" r="0.2" />
<circle cx="-5.9" cy="-4.2" r="0.2" />
<circle cx="-6.2" cy="-4.6" r="0.2" />
<circle cx="-6.6" cy="-4.9" r="0.2" />
<circle cx="-7.0" cy="-5.3" r="0.2" />
<circle cx="-7.4" cy="-5.6" r="0.2" />
<circle cx="-7.8" cy="-6.1" r="0.2" />
<circle cx="-8.3" cy="-6.5" r="0.2" />
<circle cx="-8.9" cy="-7.0" r="0.2" />
<circle cx="-9.5" cy="-7.5" r="0.2" />
<circle cx="-10.2" cy="-8.1" r="0.2" />
<circle cx="-10.9" cy="-8.7" r="0.2" />
<circle cx="-11.6" cy="-9.4" r="0.2" />
<circle cx="-12.4" cy="-10.0" r="0.2" />
<circle cx="-13.3" cy="-10.7" r="0.2" />
<circle cx="-14.3" cy="-11.5" r="0.2" />
<circle cx="-15.3" cy="-12.3" r="0.2" />
<circle cx="-16.3" cy="-13.1" r="0.2" />
<circle cx="-17.5" cy="-13.8" r="0.2" />
<circle cx="-18.6" cy="-14.6" r="0.2" />
<circle cx="-19.9" cy="-15.4" r="0.2" />
<circle cx="-21.1" cy="-16.1" r="0.2" />
<circle cx="-22.4" cy="-16.8" r="0.2" />
<circle cx="-23.6" cy="-17.3" r="0.2" />
<circle cx="-24.9" cy="-17.8" r="0.2" />
<circle cx="-26.1" cy="-18.1" r="0.2" />
<circle cx="-27.2" cy="-18.2" r="0.2" />
<circle cx="-28.2" cy="-18.0" r="0.2" />
<circle cx="-29.1" cy="-17.7" r="0.2" />
<circle cx="-29.8" cy="-17.1" r="0.2" />
<circle cx="-30.3" cy="-16.3" r="0.2" />
<circle cx="-30.6" cy="-15.3" r="0.2" />
<circle cx="-30.6" cy="-14.1" r="0.2" />
<circle cx="-30.3" cy="-12.8" r="0.2" />
<circle cx="-29.9" cy="-11.3" r="0.2" />
<circle cx="-29.1" cy="-9.9" r="0.2" />
<circle cx="-28.2" cy="-8.4" r="0.2" />
<circle cx="-27.0" cy="-6.9" r="0.2" />
<circle cx="-25.7" cy="-5.6" r="0.2" />
<circle cx="-24.2" cy="-4.4" r="0.2" />
<circle cx="-22.7" cy="-3.3" r="0.2" />
<circle cx="-21.1" cy="-2.3" r="0.2" />
<circle cx="-19.4" cy="-1.6" r="0.2" />
<circle cx="-17.8" cy="-0.9" r="0.2" />
<circle cx="-16.3" cy="-0.4" r="0.2" />
<circle cx="-14.7" cy="0.0" r="0.2" />
<circle cx="-13.3" cy="0.3" r="0.2" />
<circle cx="-12.0" cy="0.5" r="0.2" />
<circle cx="-10.7" cy="0.7" r="0.2" />
<circle cx="-9.5" cy="0.8" r="0.2" />
<circle cx="-8.5" cy="0.8" r="0.2" />
<circle cx="-7.5" cy="0.8" r="0.2" />
<circle cx="-6.6" cy="0.8" r="0.2" />
<circle cx="-5.8" cy="0.8" r="0.2" />
<circle cx="-5.1" cy="0.7" r="0.2" />
<circle cx="-4.5" cy="0.6" r="0.2" />
<circle cx="-4.0" cy="0.6" r="0.2" />
<circle cx="-3.5" cy="0.5" r="0.2" />
<circle cx="-3.0" cy="0.4" r="0.2" />
<circle cx="-2.7" cy="0.3" r="0.2" />
<circle cx="-2.4" cy="0.3" r="0.2" />
<circle cx="-2.1" cy="0.2" r="0.2" />
<circle cx="-1.9" cy="0.1" r="0.2" />
<circle cx="-1.7" cy="0.1" r="0.2" />
<circle cx="-1.5" cy="0.0" r="0.2" />
<circle cx="-1.4" cy="-0.0" r="0.2" />
<circle cx="-1.2" cy="-0.1" r="0.2" />
<circle cx="-1.2" cy="-0.2" r="0.2" />
<circle cx="-1.1" cy="-0.2" r="0.2" />
<circle cx="-1.0" cy="-0.3" r="0.2" />
<circle cx="-1.0" cy="-0.3" r="0.2" />
<circle cx="-1.0" cy="-0.4" r="0.2" />
<circle cx="-0.9" cy="-0.4" r="0.2" />
<circle cx="-0.9" cy="-0.5" r="0.2" />
<circle cx="-0.9" cy="-0.5" r="0.2" />
<circle cx="-1.0" cy="-0.6" r="0.2" />
<circle cx="-1.0" cy="-0.6" r="0.2" />
<circle cx="-1.0" cy="-0.7" r="0.2" />
<circle cx="-1.1" cy="-0.8" r="0.2" />
<circle cx="-1.1" cy="-0.8" r="0.2" />
<circle cx="-1.2" cy="-0.9" r="0.2" />
<circle cx="-1.3" cy="-1.0" r="0.2" />
<circle cx="-1.3" cy="-1.1" r="0.2" />
<circle cx="-1.4" cy="-1.2" r="0.2" />
<circle cx="-1.5" cy="-1.3" r="0.2" />
<circle cx="-1.7" cy="-1.4" r="0.2" />
<circle cx="-1.8" cy="-1.5" r="0.2" />
<circle cx="-1.9" cy="-1.6" r="0.2" />
<circle cx="-2.1" cy="-1.8" r="0.2" />
<circle cx="-2.3" cy="-2.0" r="0.2" />
<circle cx="-2.5" cy="-2.1" r="0.2" />
<circle cx="-2.7" cy="-2.3" r="0.2" />
<circle cx="-2.9" cy="-2.6" r="0.2" />
<circle cx="-3.2" cy="-2.8" r="0.2" />
<circle cx="-3.4" cy="-3.1" r="0.2" />
<circle cx="-3.7" cy="-3.4" r="0.2" />
<circle cx="-4.1" cy="-3.7" r="0.2" />
<circle cx="-4.5" cy="-4.0" r="0.2" />
<circle cx="-4.9" cy="-4.4" r="0.2" />
<circle cx="-5.3" cy="-4.9" r="0.2" />
<circle cx="-5.9" cy="-5.3" r="0.2" />
<circle cx="-6.4" cy="-5.9" r="0.2" />
<circle cx="-7.0" cy="-6.4" r="0.2" />
<circle cx="-7.7" cy="-7.1" r="0.2" />
<circle cx="-8.4" cy="-7.8" r="0.2" />
<circle cx="-9.3" cy="-8.5" r="0.2" />
<circle cx="-10.1" cy="-9.3" r="0.2" />
<circle cx="-11.1" cy="-10.2" r="0.2" />
<circle cx="-12.2" cy="-11.2" r="0.2" />
<circle cx="-13.3" cy="-12.2" r="0.2" />
<circle cx="-14.6" cy="-13.3" r="0.2" />
<circle cx="-16.0" cy="-14.4" r="0.2" />
<circle cx="-17.4" cy="-15.6" r="0.2" />
<circle cx="-19.0" cy="-16.8" r="0.2" />
<circle cx="-20.6" cy="-18.0" r="0.2" />
<circle cx="-22.4" cy="-19.1" r="0.2" />
<circle cx="-24.1" cy="-20.2" r="0.2" />
<circle cx="-26.0" cy="-21.1" r="0.2" />
<circle cx="-27.8" cy="-21.9" r="0.2" />
<circle cx="-29.5" cy="-22.3" r="0.2" />
<circle cx="-31.2" cy="-22.5" r="0.2" />
<circle cx="-32.7" cy="-22.3" r="0.2" />
<circle cx="-33.9" cy="-21.6" r="0.2" />
<circle cx="-34.9" cy="-20.5" r="0.2" />
<circle cx="-35.5" cy="-19.0" r="0.2" />
<circle cx="-35.7" cy="-17.1" r="0.2" />
<circle cx="-35.5" cy="-14.9" r="0.2" />
<circle cx="-34.8" cy="-12.5" r="0.2" />
<circle cx="-33.8" cy="-10.0" r="0.2" />
<circle cx="-32.3" cy="-7.6" r="0.2" />
<circle cx="-30.5" cy="-5.3" r="0.2" />
<circle cx="-28.4" cy="-3.2" r="0.2" />
<circle cx="-26.2" cy="-1.4" r="0.2" />
<circle cx="-23.8" cy="0.2" r="0.2" />
<circle cx="-21.4" cy="1.4" r="0.2" />
<circle cx="-18.9" cy="2.5" r="0.2" />
<circle cx="-16.6" cy="3.2" r="0.2" />
<circle cx="-14.3" cy="3.8" r="0.2" />
<circle cx="-12.1" cy="4.2" r="0.2" />
<circle cx="-10.1" cy="4.5" r="0.2" />
<circle cx="-8.3" cy="4.6" r="0.2" />
<circle cx="-6.5" cy="4.7" r="0.2" />
<circle cx="-5.0" cy="4.7" r="0.2" />
<circle cx="-3.6" cy="4.7" r="0.2" />
<circle cx="-2.3" cy="4.7" r="0.2" />
<circle cx="-1.1" cy="4.6" r="0.2" />
<circle cx="-0.1" cy="4.6" r="0.2" />
<circle cx="0.8" cy="4.5" r="0.2" />
<circle cx="1.6" cy="4.5" r="0.2" />
<circle cx="2.4" cy="4.5" r="0.2" />
<circle cx="3.0" cy="4.5" r="0.2" />
<circle cx="3.6" cy="4.5" r="0.2" />
<circle cx="4.2" cy="4.5" r="0.2" />
<circle cx="4.7" cy="4.6" r="0.2" />
<circle cx="5.2" cy="4.7" r="0.2" />
<circle cx="5.6" cy="4.8" r="0.2" />
<circle cx="6.1" cy="4.9" r="0.2" />
<circle cx="6.5" cy="5.1" r="0.2" />
<circle cx="6.9" cy="5.3" r="0.2" />
<circle cx="7.3" cy="5.5" r="0.2" />
<circle cx="7.7" cy="5.7" r="0.2" />
<circle cx="8.1" cy="6.0" r="0.2" />
<circle cx="8.6" cy="6.2" r="0.2" />
<circle cx="9.0" cy="6.6" r="0.2" />
<circle cx="9.5" cy="6.9" r="0.2" />
<circle cx="10.0" cy="7.3" r="0.2" />
<circle cx="10.6" cy="7.6" r="0.2" />
<circle cx="11.1" cy="8.1" r="0.2" />
<circle cx="11.7" cy="8.5" r="0.2" />
<circle cx="12.3" cy="9.0" r="0.2" />
<circle cx="13.0" cy="9.5" r="0.2" />
<circle cx="13.7" cy="10.0" r="0.2" />
<circle cx="14.4" cy="10.5" r="0.2" />
<circle cx="15.2" cy="11.0" r="0.2" />
<circle cx="16.0" cy="11.6" r="0.2" />
<circle cx="16.8" cy="12.1" r="0.2" />
<circle cx="17.7" cy="12.6" r="0.2" />
<circle cx="18.6" cy="13.2" r="0.2" />
<circle cx="19.5" cy="13.6" r="0.2" />
<circle cx="20.4" cy="14.1" r="0.2" />
<circle cx="21.3" cy="14.5" r="0.2" />
<circle cx="22.2" cy="14.8" r="0.2" />
<circle cx="23.0" cy="15.0" r="0.2" />
<circle cx="23.8" cy="15.2" r="0.2" />
<circle cx="24.6" cy="15.2" r="0.2" />
<circle cx="25.3" cy="15.1" r="0.2" />
<circle cx="25.8" cy="14.9" r="0.2" />
<circle cx="26.3" cy="14.5" r="0.2" />
<circle cx="26.7" cy="14.0" r="0.2" />
<circle cx="26.9" cy="13.4" r="0.2" />
<circle cx="26.9" cy="12.7" r="0.2" />
<circle cx="26.8" cy="11.9" r="0.2" />
<circle cx="26.5" cy="11.1" r="0.2" />
<circle cx="26.1" cy="10.2" r="0.2" />
<circle cx="25.6" cy="9.2" r="0.2" />
<circle cx="24.9" cy="8.3" r="0.2" />
<circle cx="24.1" cy="7.4" r="0.2" />
<circle cx="23.1" cy="6.5" r="0.2" />
<circle cx="22.2" cy="5.8" r="0.2" />
<circle cx="21.1" cy="5.0" r="0.2" />
<circle cx="20.1" cy="4.4" r="0.2" />
<circle cx="19.0" cy="3.8" r="0.2" />
<circle cx="17.9" cy="3.4" r="0.2" />
<circle cx="16.8" cy="3.0" r="0.2" />
<circle cx="15.8" cy="2.6" r="0.2" />
<circle cx="14.8" cy="2.4" r="0.2" />
<circle cx="13.8" cy="2.2" r="0.2" />
<circle cx="12.9" cy="2.1" r="0.2" />
<circle cx="12.1" cy="2.0" r="0.2" />
<circle cx="11.3" cy="1.9" r="0.2" />
<circle cx="10.6" cy="1.9" r="0.2" />
<circle cx="10.0" cy="1.9" r="0.2" />
<circle cx="9.4" cy="2.0" r="0.2" />
<circle cx="8.9" cy="2.0" r="0.2" />
<circle cx="8.5" cy="2.1" r="0.2" />
<circle cx="8.1" cy="2.2" r="0.2" />
<circle cx="7.8" cy="2.3" r="0.2" />
<circle cx="7.5" cy="2.5" r="0.2" />
<circle cx="7.3" cy="2.6" r="0.2" />
<circle cx="7.2" cy="2.8" r="0.2" />
<circle cx="7.1" cy="3.0" r="0.2" />
<circle cx="7.0" cy="3.1" r="0.2" />
<circle cx="7.0" cy="3.3" r="0.2" />
<circle cx="7.0" cy="3.5" r="0.2" />
<circle cx="7.1" cy="3.8" r="0.2" />
<circle cx="7.2" cy="4.0" r="0.2" />
<circle cx="7.3" cy="4.3" r="0.2" />
<circle cx="7.5" cy="4.5" r="0.2" />
<circle cx="7.7" cy="4.8" r="0.2" />
<circle cx="7.9" cy="5.1" r="0.2" />
<circle cx="8.2" cy="5.4" r="0.2" />
<circle cx="8.6" cy="5.8" r="0.2" />
<circle cx="8.9" cy="6.2" r="0.2" />
<circle cx="9.4" cy="6.6" r="0.2" />
<circle cx="9.8" cy="7.0" r="0.2" />
<circle cx="10.3" cy="7.4" r="0.2" />
<circle cx="10.9" cy="7.9" r="0.2" />
<circle cx="11.5" cy="8.4" r="0.2" />
<circle cx="12.1" cy="8.9" r="0.2" />
<circle cx="12.8" cy="9.5" r="0.2" />
<circle cx="13.5" cy="10.1" r="0.2" />
<circle cx="14.3" cy="10.7" r="0.2" />
<circle cx="15.1" cy="11.3" r="0.2" />
<circle cx="16.0" cy="11.9" r="0.2" />
<circle cx="16.9" cy="12.5" r="0.2" />
<circle cx="17.8" cy="13.2" r="0.2" />
<circle cx="18.8" cy="13.8" r="0.2" />
<circle cx="19.8" cy="14.3" r="0.2" />
<circle cx="20.8" cy="14.9" r="0.2" />
<circle cx="21.9" cy="15.3" r="0.2" />
<circle cx="22.9" cy="15.7" r="0.2" />
<circle cx="23.8" cy="16.0" r="0.2" />
<circle cx="24.8" cy="16.1" r="0.2" />
<circle cx="25.6" cy="16.2" r="0.2" />
<circle cx="26.4" cy="16.0" r="0.2" />
<circle cx="27.0" cy="15.7" r="0.2" />
<circle cx="27.5" cy="15.3" r="0.2" />
<circle cx="27.9" cy="14.7" r="0.2" />
<circle cx="28.1" cy="13.9" r="0.2" />
<circle cx="28.1" cy="13.1" r="0.2" />
<circle cx="27.9" cy="12.1" r="0.2" />
<circle cx="27.6" cy="11.0" r="0.2" />
<circle cx="27.0" cy="9.9" r="0.2" />
<circle cx="26.3" cy="8.8" r="0.2" />
<circle cx="25.5" cy="7.7" r="0.2" />
<circle cx="24.5" cy="6.7" r="0.2" />
<circle cx="23.4" cy="5.7" r="0.2" />
<circle cx="22.2" cy="4.9" r="0.2" />
<circle cx="21.0" cy="4.1" r="0.2" />
<circle cx="19.7" cy="3.4" r="0.2" />
<circle cx="18.5" cy="2.8" r="0.2" />
<circle cx="17.2" cy="2.3" r="0.2" />
<circle cx="16.0" cy="1.9" r="0.2" />
<circle cx="14.8" cy="1.6" r="0.2" />
<circle cx="13.7" cy="1.4" r="0.2" />
<circle cx="12.7" cy="1.2" r="0.2" />
<circle cx="11.7" cy="1.1" r="0.2" />
<circle cx="10.8" cy="1.0" r="0.2" />
<circle cx="10.0" cy="1.0" r="0.2" />
<circle cx="9.2" cy="1.0" r="0.2" />
<circle cx="8.6" cy="1.1" r="0.2" />
<circle cx="8.0" cy="1.1" r="0.2" />
<circle cx="7.4" cy="1.2" r="0.2" />
<circle cx="7.0" cy="1.3" r="0.2" />
<circle cx="6.6" cy="1.4" r="0.2" />
<circle cx="6.2" cy="1.5" r="0.2" />
<circle cx="5.9" cy="1.6" r="0.2" />
<circle cx="5.7" cy="1.7" r="0.2" />
<circle cx="5.5" cy="1.9" r="0.2" />
<circle cx="5.4" cy="2.0" r="0.2" />
<circle cx="5.3" cy="2.2" r="0.2" />
<circle cx="5.2" cy="2.4" r="0.2" />
<circle cx="5.2" cy="2.5" r="0.2" />
<circle cx="5.3" cy="2.7" r="0.2" />
<circle cx="5.3" cy="2.9" r="0.2" />
<circle cx="5.4" cy="3.1" r="0.2" />
<circle cx="5.5" cy="3.3" r="0.2" />
<circle cx="5.7" cy="3.6" r="0.2" />
<circle cx="5.9" cy="3.8" r="0.2" />
<circle cx="6.1" cy="4.1" r="0.2" />
<circle cx="6.4" cy="4.4" r="0.2" />
<circle cx="6.7" cy="4.7" r="0.2" />
<circle cx="7.0" cy="5.0" r="0.2" />
<circle cx="7.4" cy="5.4" r="0.2" />
<circle cx="7.8" cy="5.8" r="0.2" />
<circle cx="8.2" cy="6.2" r="0.2" />
<circle cx="8.7" cy="6.6" r="0.2" />
<circle cx="9.3" cy="7.1" r="0.2" />
<circle cx="9.9" cy="7.6" r="0.2" />
<circle cx="10.5" cy="8.2" r="0.2" />
<circle cx="11.2" cy="8.8" r="0.2" />
<circle cx="11.9" cy="9.4" r="0.2" />
<circle cx="12.7" cy="10.0" r="0.2" />
<circle cx="13.6" cy="10.7" r="0.2" />
<circle cx="14.5" cy="11.4" r="0.2" />
<circle cx="15.4" cy="12.1" r="0.2" />
<circle cx="16.5" cy="12.9" r="0.2" />
<circle cx="17.5" cy="13.6" r="0.2" />
<circle cx="18.7" cy="14.4" r="0.2" />
<circle cx="19.8" cy="15.1" r="0.2" />
<circle cx="21.0" cy="15.7" r="0.2" />
<circle cx="22.2" cy="16.3" r="0.2" />
<circle cx="23.4" cy="16.9" r="0.2" />
<circle cx="24.5" cy="17.2" r="0.2" />
<circle cx="25.7" cy="17.5" r="0.2" />
<circle cx="26.7" cy="17.6" r="0.2" />
<circle cx="27.7" cy="17.5" r="0.2" />
<circle cx="28.5" cy="17.1" r="0.2" />
<circle cx="29.1" cy="16.6" r="0.2" />
<circle cx="29.6" cy="15.9" r="0.2" />
<circle cx="29.8" cy="15.0" r="0.2" />
<circle cx="29.9" cy="13.9" r="0.2" />
<circle cx="29.7" cy="12.6" r="0.2" />
<circle cx="29.2" cy="11.3" r="0.2" />
<circle cx="28.5" cy="9.9" r="0.2" />
<circle cx="27.7" cy="8.6" r="0.2" />
<circle cx="26.6" cy="7.2" r="0.2" />
<circle cx="25.4" cy="6.0" r="0.2" />
<circle cx="24.0" cy="4.8" r="0.2" />
<circle cx="22.6" cy="3.8" r="0.2" />
<circle cx="21.1" cy="2.9" r="0.2" />
<circle cx="19.6" cy="2.1" r="0.2" />
<circle cx="18.1" cy="1.5" r="0.2" />
<circle cx="16.6" cy="1.0" r="0.2" />
<circle cx="15.2" cy="0.6" r="0.2" />
<circle cx="13.8" cy="0.3" r="0.2" />
<circle cx="12.5" cy="0.0" r="0.2" />
<circle cx="11.3" cy="-0.1" r="0.2" />
<circle cx="10.2" cy="-0.2" r="0.2" />
<circle cx="9.2" cy="-0.3" r="0.2" />
<circle cx="8.3" cy="-0.3" r="0.2" />
<circle cx="7.4" cy="-0.3" r="0.2" />
<circle cx="6.7" cy="-0.2" r="0.2" />
<circle cx="6.0" cy="-0.2" r="0.2" />
<circle cx="5.4" cy="-0.1" r="0.2" />
<circle cx="4.9" cy="-0.0" r="0.2" />
<circle cx="4.4" cy="0.1" r="0.2" />
<circle cx="4.0" cy="0.1" r="0.2" />
<circle cx="3.7" cy="0.2" r="0.2" />
<circle cx="3.4" cy="0.3" r="0.2" />
<circle cx="3.1" cy="0.4" r="0.2" />
<circle cx="2.9" cy="0.5" r="0.2" />
<circle cx="2.8" cy="0.6" r="0.2" />
<circle cx="2.6" cy="0.7" r="0.2" />
<circle cx="2.5" cy="0.8" r="0.2" />
<circle cx="2.5" cy="0.9" r="0.2" />
<circle cx="2.4" cy="1.0" r="0.2" />
<circle cx="2.4" cy="1.1" r="0.2" />
<circle cx="2.4" cy="1.2" r="0.2" />
<circle cx="2.4" cy="1.3" r="0.2" />
<circle cx="2.5" cy="1.4" r="0.2" />
<circle cx="2.5" cy="1.6" r="0.2" />
<circle cx="2.6" cy="1.7" r="0.2" />
<circle cx="2.7" cy="1.8" r="0.2" />
<circle cx="2.8" cy="2.0" r="0.2" />
<circle cx="3.0" cy="2.2" r="0.2" />
<circle cx="3.1" cy="2.3" r="0.2" />
</g>
</svg>