<svg xmlns="http://www.w3.org/2000/svg" width="176.5" height="100.0" viewBox="-5.00 -5.00 186.47 110.00">
<g fill="none" stroke="black" stroke-width="0.0850%" transform="translate(0, 100.0000) scale(5.8824, -5.8824)">
<polyline points="0.00,0.00 1.00,0.00 2.00,0.00 2.00,1.00 3.00,1.00 4.00,1.00 4.00,2.00 5.00,2.00 6.00,2.00 6.00,3.00 7.00,3.00 7.00,4.00 8.00,4.00 9.00,4.00 9.00,5.00 10.00,5.00 11.00,5.00 11.00,6.00 12.00,6.00 13.00,6.00 13.00,7.00 14.00,7.00 14.00,8.00 15.00,8.00 16.00,8.00 16.00,9.00 17.00,9.00 18.00,9.00 18.00,10.00 19.00,10.00 20.00,10.00 20.00,11.00 21.00,11.00 21.00,12.00 22.00,12.00 23.00,12.00 23.00,13.00 24.00,13.00 25.00,13.00 25.00,14.00 26.00,14.00 27.00,14.00 27.00,15.00 28.00,15.00 28.00,16.00 29.00,16.00 30.00,16.00 30.00,17.00" />
</g>
</svg>