<svg xmlns="http://www.w3.org/2000/svg" width="161.8" height="100.0" viewBox="-3.349 78.975 171.803 110.000">
<g fill="none" stroke="black" stroke-width="0.0027%" transform="translate(0, 267.9504) scale(183.9752, -183.9752)">
<polyline points="0.009,0.993 0.018,0.594 0.027,1.000 0.036,0.955 0.045,0.958 0.054,0.881 0.063,1.000 0.072,0.850 0.081,0.632 0.090,0.975 0.099,0.995 0.108,0.718 0.117,0.999 0.126,0.822 0.135,0.961 0.144,0.991 0.153,0.977 0.162,1.000 0.171,0.985 0.179,0.789 0.188,0.997 0.197,1.000 0.206,1.000 0.215,0.896 0.224,1.000 0.233,0.998 0.242,0.978 0.251,0.998 0.260,0.705 0.269,0.931 0.278,0.456 0.287,0.973 0.296,0.973 0.305,0.944 0.314,1.000 0.323,0.982 0.332,0.495 0.341,0.998 0.350,1.000 0.359,0.929 0.368,0.639 0.377,0.957 0.386,0.936 0.395,0.994 0.404,0.902 0.413,0.560 0.422,0.903 0.431,0.904 0.440,0.985 0.449,1.000 0.458,0.984 0.467,0.958 0.476,1.000 0.485,1.000 0.494,0.994 0.503,1.000 0.512,1.000 0.521,0.626 0.529,1.000 0.538,0.700 0.547,0.548 0.556,0.963 0.565,0.999 0.574,1.000 0.583,0.811 0.592,0.741 0.601,0.828 0.610,0.607 0.619,0.887 0.628,0.996 0.637,0.999 0.646,0.905 0.655,0.806 0.664,0.686 0.673,0.823 0.682,0.947 0.691,0.949 0.700,1.000 0.709,1.000 0.718,0.912 0.727,0.998 0.736,0.900 0.745,0.980 0.754,0.766 0.763,0.618 0.772,0.986 0.781,0.940 0.790,0.855 0.799,0.977 0.808,1.000 0.817,0.626 0.826,1.000 0.835,0.801 0.844,0.998 0.853,0.999 0.862,0.997 0.871,0.998 0.879,0.810 0.888,0.950" />
</g>
</svg>