<svg xmlns="http://www.w3.org/2000/svg" width="161.8" height="100.0" viewBox="-3.349 -5.000 171.803 110.000">
<g fill="none" stroke="black" stroke-width="0.0026%" transform="translate(0, 100.0004) scale(194.9275, -194.9275)">
<polyline points="0.008,0.216 0.017,0.100 0.025,0.000 0.034,0.053 0.042,0.253 0.051,0.000 0.059,0.007 0.068,0.005 0.076,0.009 0.085,0.035 0.093,0.004 0.102,0.083 0.110,0.000 0.119,0.010 0.127,0.082 0.136,0.107 0.144,0.000 0.152,0.166 0.161,0.002 0.169,0.004 0.178,0.083 0.186,0.022 0.195,0.002 0.203,0.011 0.212,0.324 0.220,0.147 0.229,0.000 0.237,0.009 0.246,0.091 0.254,0.278 0.263,0.156 0.271,0.005 0.280,0.006 0.288,0.136 0.296,0.143 0.305,0.311 0.313,0.513 0.322,0.000 0.330,0.008 0.339,0.202 0.347,0.002 0.356,0.001 0.364,0.003 0.373,0.037 0.381,0.002 0.390,0.110 0.398,0.127 0.407,0.001 0.415,0.493 0.424,0.366 0.432,0.002 0.440,0.356 0.449,0.000 0.457,0.029 0.466,0.016 0.474,0.000 0.483,0.360 0.491,0.160 0.500,0.380 0.508,0.008 0.517,0.001 0.525,0.006 0.534,0.040 0.542,0.083 0.551,0.100 0.559,0.202 0.567,0.134 0.576,0.049 0.584,0.126 0.593,0.029 0.601,0.022 0.610,0.010 0.618,0.208 0.627,0.004 0.635,0.087 0.644,0.060 0.652,0.015 0.661,0.181 0.669,0.000 0.678,0.001 0.686,0.479 0.695,0.007 0.703,0.038 0.711,0.012 0.720,0.000 0.728,0.094 0.737,0.237 0.745,0.076 0.754,0.068 0.762,0.230 0.771,0.039 0.779,0.054 0.788,0.003 0.796,0.072 0.805,0.153 0.813,0.025 0.822,0.151 0.830,0.003 0.839,0.071" />
</g>
</svg>