<svg xmlns="http://www.w3.org/2000/svg" width="161.8" height="100.0" viewBox="-3.349 -5.000 171.803 110.000">
<g fill="none" stroke="black" stroke-width="0.0035%" transform="translate(0, 100.0002) scale(142.4761, -142.4761)">
<polyline points="0.012,0.159 0.023,0.007 0.035,0.357 0.046,0.075 0.058,0.010 0.070,0.239 0.081,0.286 0.093,0.000 0.104,0.000 0.116,0.494 0.127,0.397 0.139,0.063 0.151,0.136 0.162,0.048 0.174,0.223 0.185,0.002 0.197,0.010 0.209,0.416 0.220,0.044 0.232,0.000 0.243,0.036 0.255,0.051 0.267,0.064 0.278,0.030 0.290,0.197 0.301,0.702 0.313,0.000 0.324,0.007 0.336,0.451 0.348,0.397 0.359,0.011 0.371,0.020 0.382,0.038 0.394,0.014 0.406,0.331 0.417,0.002 0.429,0.208 0.440,0.235 0.452,0.152 0.464,0.025 0.475,0.000 0.487,0.000 0.498,0.112 0.510,0.001 0.521,0.003 0.533,0.165 0.545,0.576 0.556,0.085 0.568,0.002 0.579,0.003 0.591,0.310 0.603,0.000 0.614,0.140 0.626,0.109 0.637,0.082 0.649,0.002 0.661,0.001 0.672,0.066 0.684,0.026 0.695,0.081 0.707,0.015 0.718,0.152 0.730,0.029 0.742,0.186 0.753,0.452 0.765,0.392 0.776,0.069 0.788,0.012 0.800,0.001 0.811,0.239 0.823,0.266 0.834,0.109 0.846,0.178 0.858,0.075 0.869,0.000 0.881,0.432 0.892,0.001 0.904,0.042 0.915,0.003 0.927,0.071 0.939,0.295 0.950,0.001 0.962,0.000 0.973,0.003 0.985,0.000 0.997,0.002 1.008,0.022 1.020,0.110 1.031,0.028 1.043,0.105 1.055,0.014 1.066,0.000 1.078,0.395 1.089,0.003 1.101,0.000 1.112,0.307 1.124,0.035 1.136,0.001 1.147,0.000" />
</g>
</svg>