<svg xmlns="http://www.w3.org/2000/svg" width="161.8" height="100.0" viewBox="-3.3489 971.7985 171.8034 110.0000">
<g fill="none" stroke="black" stroke-width="0.0005%" transform="translate(0, 2053.5970) scale(1077.2860, -1077.2860)">
<polyline points="0.0015,0.9527 0.0031,0.9548 0.0046,0.9530 0.0061,0.9579 0.0077,0.9565 0.0092,0.9630 0.0107,0.9698 0.0123,0.9666 0.0138,0.9752 0.0153,0.9682 0.0169,0.9612 0.0184,0.9706 0.0199,0.9666 0.0215,0.9713 0.0230,0.9722 0.0245,0.9735 0.0261,0.9742 0.0276,0.9832 0.0291,0.9881 0.0307,0.9950 0.0322,0.9955 0.0337,0.9962 0.0352,0.9992 0.0368,0.9995 0.0383,0.9936 0.0398,0.9940 0.0414,0.9978 0.0429,0.9935 0.0444,0.9948 0.0460,0.9881 0.0475,0.9879 0.0490,0.9796 0.0506,0.9777 0.0521,0.9791 0.0536,0.9853 0.0552,0.9882 0.0567,0.9872 0.0582,0.9781 0.0598,0.9736 0.0613,0.9688 0.0628,0.9709 0.0644,0.9771 0.0659,0.9759 0.0674,0.9764 0.0690,0.9740 0.0705,0.9644 0.0720,0.9636 0.0736,0.9671 0.0751,0.9714 0.0766,0.9680 0.0782,0.9758 0.0797,0.9755 0.0812,0.9707 0.0828,0.9788 0.0843,0.9796 0.0858,0.9860 0.0874,0.9816 0.0889,0.9739 0.0904,0.9813 0.0920,0.9737 0.0935,0.9739 0.0950,0.9728 0.0966,0.9715 0.0981,0.9734 0.0996,0.9812 0.1012,0.9834 0.1027,0.9844 0.1042,0.9747 0.1057,0.9784 0.1073,0.9785 0.1088,0.9752 0.1103,0.9740 0.1119,0.9719 0.1134,0.9673 0.1149,0.9597 0.1165,0.9591 0.1180,0.9612 0.1195,0.9514 0.1211,0.9522 0.1226,0.9463 0.1241,0.9427 0.1257,0.9359 0.1272,0.9325 0.1287,0.9269 0.1303,0.9268 0.1318,0.9357 0.1333,0.9290 0.1349,0.9254 0.1364,0.9157 0.1379,0.9254 0.1395,0.9267 0.1410,0.9191 0.1425,0.9156 0.1441,0.9091 0.1456,0.9067 0.1471,0.9147 0.1487,0.9099 0.1502,0.9186 0.1517,0.9134" />
</g>
</svg>