<svg xmlns="http://www.w3.org/2000/svg" width="161.8" height="100.0" viewBox="-3.3489 -667.3025 171.8034 110.0000">
<g fill="none" stroke="black" stroke-width="0.0004%" transform="translate(0, -1224.6050) scale(1134.9379, -1134.9379)">
<polyline points="0.0015,-0.5798 0.0029,-0.5836 0.0044,-0.5775 0.0058,-0.5789 0.0073,-0.5832 0.0087,-0.5779 0.0102,-0.5818 0.0116,-0.5782 0.0131,-0.5684 0.0145,-0.5701 0.0160,-0.5719 0.0175,-0.5697 0.0189,-0.5610 0.0204,-0.5627 0.0218,-0.5602 0.0233,-0.5683 0.0247,-0.5645 0.0262,-0.5645 0.0276,-0.5726 0.0291,-0.5667 0.0305,-0.5744 0.0320,-0.5698 0.0335,-0.5634 0.0349,-0.5627 0.0364,-0.5696 0.0378,-0.5677 0.0393,-0.5720 0.0407,-0.5726 0.0422,-0.5640 0.0436,-0.5634 0.0451,-0.5620 0.0466,-0.5620 0.0480,-0.5666 0.0495,-0.5710 0.0509,-0.5613 0.0524,-0.5540 0.0538,-0.5453 0.0553,-0.5499 0.0567,-0.5435 0.0582,-0.5384 0.0596,-0.5381 0.0611,-0.5392 0.0626,-0.5358 0.0640,-0.5260 0.0655,-0.5217 0.0669,-0.5245 0.0684,-0.5187 0.0698,-0.5121 0.0713,-0.5098 0.0727,-0.5083 0.0742,-0.5014 0.0756,-0.4969 0.0771,-0.5018 0.0786,-0.5036 0.0800,-0.4956 0.0815,-0.5041 0.0829,-0.4977 0.0844,-0.4954 0.0858,-0.5048 0.0873,-0.5145 0.0887,-0.5144 0.0902,-0.5223 0.0916,-0.5232 0.0931,-0.5251 0.0946,-0.5329 0.0960,-0.5416 0.0975,-0.5414 0.0989,-0.5460 0.1004,-0.5420 0.1018,-0.5467 0.1033,-0.5403 0.1047,-0.5426 0.1062,-0.5427 0.1077,-0.5501 0.1091,-0.5403 0.1106,-0.5458 0.1120,-0.5370 0.1135,-0.5289 0.1149,-0.5323 0.1164,-0.5239 0.1178,-0.5276 0.1193,-0.5198 0.1207,-0.5271 0.1222,-0.5361 0.1237,-0.5324 0.1251,-0.5368 0.1266,-0.5370 0.1280,-0.5460 0.1295,-0.5475 0.1309,-0.5571 0.1324,-0.5594 0.1338,-0.5691 0.1353,-0.5680 0.1367,-0.5685 0.1382,-0.5630 0.1397,-0.5696 0.1411,-0.5617 0.1426,-0.5536 0.1440,-0.5454" />
</g>
</svg>