<svg xmlns="http://www.w3.org/2000/svg" width="161.80" height="100.00" viewBox="-3.35 -96.12 171.80 110.00">
<g fill="none" stroke="black" stroke-width="0.07%" transform="translate(0, -82.23) scale(7.51, -7.51)">
<circle cx="0.22" cy="0.00" r="0.07" />
<polyline points="0.22,-0.03 0.44,-0.09 0.66,0.10 0.88,-0.13 1.10,0.84 1.32,-0.03 1.54,-1.09 1.76,0.79 1.98,-0.00 2.20,-0.35 2.42,-0.07 2.64,0.30 2.86,0.21 3.08,0.00 3.30,-0.15 3.52,-0.17 3.74,-0.09 3.96,-0.06 4.17,0.03 4.39,-0.00 4.61,0.14 4.83,0.01 5.05,0.05 5.27,0.36 5.49,0.02 5.71,0.15 5.93,-0.11 6.15,-0.63 6.37,-0.09 6.59,-0.49 6.81,0.18 7.03,-1.20 7.25,0.06 7.47,-0.42 7.69,-0.29 7.91,-0.17 8.13,-0.07 8.35,0.18 8.57,-0.39 8.79,-0.38 9.01,-12.13 9.23,0.01 9.45,-0.11 9.67,0.13 9.89,-0.01 10.11,0.12 10.33,0.00 10.55,-0.00 10.77,0.11 10.99,-0.14 11.21,-0.11 11.43,-0.08 11.65,-0.06 11.87,0.08 12.08,-0.12 12.30,0.06 12.52,-0.03 12.74,-0.11 12.96,-0.11 13.18,0.03 13.40,-0.48 13.62,-0.02 13.84,-0.08 14.06,-0.01 14.28,0.09 14.50,0.08 14.72,0.08 14.94,-0.72 15.16,0.22 15.38,0.02 15.60,-0.05 15.82,0.03 16.04,-0.87 16.26,0.12 16.48,0.86 16.70,-0.12 16.92,0.26 17.14,-0.20 17.36,-0.09 17.58,0.12 17.80,1.18 18.02,-0.16 18.24,0.69 18.46,-0.45 18.68,-0.07 18.90,0.22 19.12,-0.51 19.34,-0.10 19.56,-0.74 19.78,0.12 20.00,0.11 20.21,0.01 20.43,-0.21 20.65,0.11 20.87,-0.03 21.09,-0.12 21.31,0.04 21.53,-0.00 21.75,-0.01" />
</g>
</svg>