<svg xmlns="http://www.w3.org/2000/svg" width="161.8" height="100.0" viewBox="-3.35 -30.66 171.80 110.00">
<g fill="none" stroke="black" stroke-width="0.0572%" transform="translate(0, 48.6739) scale(8.7431, -8.7431)">
<circle cx="0.19" cy="0.00" r="0.06" />
<polyline points="0.19,-0.17 0.38,0.12 0.57,0.06 0.76,-0.38 0.94,-0.10 1.13,-0.45 1.32,0.59 1.51,-0.16 1.70,-0.35 1.89,-0.12 2.08,-0.02 2.27,-0.04 2.45,-0.15 2.64,-0.09 2.83,-0.31 3.02,0.08 3.21,2.83 3.40,0.14 3.59,-0.42 3.78,-0.22 3.97,0.02 4.15,-0.07 4.34,0.07 4.53,-0.09 4.72,-0.09 4.91,1.10 5.10,0.00 5.29,0.24 5.48,0.22 5.67,0.08 5.85,-0.01 6.04,0.27 6.23,0.07 6.42,-0.14 6.61,0.05 6.80,0.07 6.99,1.38 7.18,0.80 7.36,-0.80 7.55,0.05 7.74,-0.24 7.93,0.01 8.12,0.31 8.31,-0.12 8.50,0.10 8.69,0.00 8.88,0.01 9.06,0.29 9.25,-0.18 9.44,0.04 9.63,-0.04 9.82,0.49 10.01,-0.04 10.20,-0.41 10.39,8.50 10.58,1.69 10.76,-0.06 10.95,0.01 11.14,-0.03 11.33,-0.17 11.52,-0.01 11.71,-0.53 11.90,1.49 12.09,0.10 12.27,0.12 12.46,-0.11 12.65,0.03 12.84,0.12 13.03,-0.53 13.22,0.24 13.41,1.30 13.60,-0.10 13.79,0.26 13.97,0.18 14.16,0.00 14.35,0.37 14.54,0.08 14.73,0.92 14.92,0.14 15.11,-0.13 15.30,6.48 15.49,0.06 15.67,-0.02 15.86,0.03 16.05,0.06 16.24,0.29 16.43,0.05 16.62,-2.94 16.81,-0.02 17.00,0.09 17.18,-0.30 17.37,0.38 17.56,0.20 17.75,-0.02 17.94,-0.01 18.13,-0.00 18.32,0.75 18.51,0.00 18.70,-1.47" />
</g>
</svg>