<svg xmlns="http://www.w3.org/2000/svg" width="161.8" height="100.0" viewBox="-1.56 7.50 171.80 110.00">
<g fill="none" stroke="black" stroke-width="0.0400%" transform="translate(0, 125.0000) scale(12.5000, -12.5000)">
<polyline points="0.28,1.00 0.55,1.00 0.55,7.00 0.83,7.00 0.83,1.00 1.10,1.00 1.10,9.00 1.38,9.00 1.38,9.00 1.65,9.00 1.65,9.00 1.93,9.00 1.93,1.00 2.20,1.00 2.20,3.00 2.48,3.00 2.48,3.00 2.75,3.00 2.75,1.00 3.03,1.00 3.03,7.00 3.30,7.00 3.30,5.00 3.58,5.00 3.58,9.00 3.86,9.00 3.86,3.00 4.13,3.00 4.13,5.00 4.41,5.00 4.41,9.00 4.68,9.00 4.68,5.00 4.96,5.00 4.96,7.00 5.23,7.00 5.23,3.00 5.51,3.00 5.51,1.00 5.78,1.00 5.78,3.00 6.06,3.00 6.06,3.00 6.33,3.00 6.33,1.00 6.61,1.00 6.61,1.00 6.89,1.00 6.89,9.00 7.16,9.00 7.16,9.00 7.44,9.00 7.44,3.00 7.71,3.00 7.71,3.00 7.99,3.00 7.99,3.00 8.26,3.00 8.26,9.00 8.54,9.00 8.54,9.00 8.81,9.00 8.81,1.00 9.09,1.00 9.09,5.00 9.36,5.00 9.36,1.00 9.64,1.00 9.64,9.00 9.91,9.00 9.91,7.00 10.19,7.00 10.19,1.00 10.47,1.00 10.47,3.00 10.74,3.00 10.74,1.00 11.02,1.00 11.02,7.00 11.29,7.00 11.29,5.00 11.57,5.00 11.57,5.00 11.84,5.00 11.84,1.00 12.12,1.00 12.12,9.00 12.39,9.00 12.39,3.00 12.67,3.00 12.67,3.00 12.94,3.00 12.94,5.00 13.22,5.00" />
</g>
</svg>