<svg xmlns="http://www.w3.org/2000/svg" width="161.803" height="100.000" viewBox="-3.349 -54.893 171.803 110.000">
<g fill="none" stroke="black" stroke-width="0.010%" transform="translate(0, 0.214) scale(51.838, -51.838)">
<circle cx="0.032" cy="0.000" r="0.010" />
<polyline points="0.032,0.275 0.064,-0.450 0.096,-0.711 0.127,0.634 0.159,-0.195 0.191,-0.085 0.223,-0.150 0.255,0.174 0.287,0.967 0.319,0.004 0.350,0.053 0.382,0.759 0.414,0.317 0.446,0.661 0.478,-0.540 0.510,0.809 0.541,0.625 0.573,0.944 0.605,-0.839 0.637,0.925 0.669,-0.570 0.701,-0.937 0.733,0.356 0.764,0.668 0.796,-0.633 0.828,-0.286 0.860,-0.893 0.892,0.737 0.924,-0.115 0.956,-0.116 0.987,-0.003 1.019,-0.281 1.051,0.427 1.083,-0.008 1.115,-0.935 1.147,-0.575 1.178,-0.020 1.210,-0.179 1.242,0.793 1.274,0.881 1.306,0.521 1.338,0.616 1.370,-0.962 1.401,0.368 1.433,-0.183 1.465,-0.404 1.497,0.082 1.529,0.504 1.561,-0.162 1.593,-0.051 1.624,-0.862 1.656,0.670 1.688,-0.208 1.720,-0.210 1.752,0.220 1.784,0.730 1.815,-0.612 1.847,0.894 1.879,0.910 1.911,-0.591 1.943,-0.212 1.975,0.546 2.007,0.156 2.038,-0.881 2.070,-0.014 2.102,-0.028 2.134,-0.010 2.166,0.513 2.198,0.631 2.230,-0.779 2.261,-0.376 2.293,-0.046 2.325,0.676 2.357,-0.761 2.389,0.520 2.421,-0.109 2.452,-0.752 2.484,0.058 2.516,-0.928 2.548,0.527 2.580,-0.425 2.612,0.536 2.644,-0.709 2.675,-0.781 2.707,-0.502 2.739,0.160 2.771,-0.440 2.803,0.434 2.835,-0.798 2.867,0.212 2.898,0.258 2.930,0.469 2.962,0.558 2.994,0.892 3.026,0.404 3.058,-0.566 3.089,-0.384 3.121,0.515 3.153,0.603" />
</g>
</svg>