<svg xmlns="http://www.w3.org/2000/svg" width="161.8" height="100.0" viewBox="-3.3 -56.4 171.8 110.0">
<g fill="none" stroke="black" stroke-width="0.7518%" transform="translate(0, -2.7860) scale(0.6650, -0.6650)">
<circle cx="2.5" cy="0.0" r="0.8" />
<polyline points="2.5,0.0 5.0,-1.0 7.4,2.0 9.9,1.9 12.4,3.5 14.9,3.3 17.4,-5.1 19.9,-5.1 22.3,-4.1 24.8,0.0 27.3,-2.3 29.8,-9.1 32.3,-3.0 34.8,-6.2 37.2,-1.3 39.7,-5.4 42.2,-7.6 44.7,10.0 47.2,-4.9 49.7,-13.2 52.1,-7.9 54.6,0.4 57.1,-18.4 59.6,13.8 62.1,18.9 64.5,4.5 67.0,20.7 69.5,-20.8 72.0,23.4 74.5,-1.3 77.0,-24.1 79.4,7.7 81.9,0.5 84.4,-6.5 86.9,-29.9 89.4,-24.5 91.9,24.1 94.3,25.3 96.8,24.4 99.3,-8.7 101.8,-8.1 104.3,10.1 106.8,-7.8 109.2,-42.1 111.7,-32.7 114.2,42.4 116.7,-13.4 119.2,-44.5 121.7,-35.6 124.1,45.7 126.6,7.3 129.1,-47.5 131.6,-50.9 134.1,-2.2 136.5,19.0 139.0,-22.5 141.5,-20.2 144.0,0.3 146.5,1.9 149.0,-52.2 151.4,58.3 153.9,-5.9 156.4,-16.5 158.9,22.8 161.4,10.1 163.9,19.6 166.3,15.5 168.8,-2.7 171.3,61.8 173.8,51.5 176.3,-19.7 178.8,8.0 181.2,22.2 183.7,-15.1 186.2,18.0 188.7,10.1 191.2,-32.2 193.6,-31.1 196.1,9.1 198.6,-7.3 201.1,-1.1 203.6,-33.7 206.1,-44.7 208.5,-43.5 211.0,-65.0 213.5,-27.9 216.0,26.8 218.5,2.4 221.0,71.2 223.4,26.8 225.9,-65.3 228.4,46.2 230.9,-27.5 233.4,-3.0 235.9,73.1 238.3,4.5 240.8,-77.3 243.3,39.0 245.8,-61.9" />
</g>
</svg>