<svg xmlns="http://www.w3.org/2000/svg" width="161.8" height="100.0" viewBox="-0.63 7.50 171.80 110.00">
<g fill="none" stroke="black" stroke-width="0.0400%" transform="translate(0, 125.0000) scale(12.5000, -12.5000)">
<polyline points="0.35,5.00 0.70,5.00 0.70,1.00 1.05,1.00 1.05,5.00 1.40,5.00 1.40,9.00 1.75,9.00 1.75,3.00 2.10,3.00 2.10,5.00 2.45,5.00 2.45,3.00 2.80,3.00 2.80,9.00 3.15,9.00 3.15,3.00 3.50,3.00 3.50,7.00 3.85,7.00 3.85,3.00 4.20,3.00 4.20,1.00 4.55,1.00 4.55,7.00 4.90,7.00 4.90,1.00 5.25,1.00 5.25,3.00 5.60,3.00 5.60,9.00 5.95,9.00 5.95,3.00 6.30,3.00 6.30,5.00 6.65,5.00 6.65,3.00 7.00,3.00 7.00,7.00 7.35,7.00 7.35,3.00 7.70,3.00 7.70,9.00 8.05,9.00 8.05,5.00 8.40,5.00 8.40,9.00 8.75,9.00 8.75,3.00 9.10,3.00 9.10,7.00 9.45,7.00 9.45,3.00 9.80,3.00 9.80,5.00 10.15,5.00 10.15,7.00 10.50,7.00 10.50,5.00 10.85,5.00 10.85,1.00 11.20,1.00 11.20,5.00 11.54,5.00 11.54,9.00 11.89,9.00 11.89,7.00 12.24,7.00 12.24,1.00 12.59,1.00 12.59,9.00 12.94,9.00 12.94,1.00 13.29,1.00" />
</g>
</svg>