<svg xmlns="http://www.w3.org/2000/svg" width="161.8" height="100.0" viewBox="-4.05 -5.00 171.80 110.00">
<g fill="none" stroke="black" stroke-width="0.0351%" transform="translate(0, 100.0000) scale(14.2392, -14.2392)">
<circle cx="0.07" cy="0.69" r="0.04" />
<circle cx="0.20" cy="0.00" r="0.04" />
<circle cx="0.27" cy="0.69" r="0.04" />
<circle cx="0.40" cy="0.00" r="0.04" />
<circle cx="0.53" cy="1.10" r="0.04" />
<circle cx="0.67" cy="0.00" r="0.04" />
<circle cx="0.74" cy="0.69" r="0.04" />
<circle cx="0.87" cy="1.39" r="0.04" />
<circle cx="1.00" cy="0.00" r="0.04" />
<circle cx="1.14" cy="1.61" r="0.04" />
<circle cx="1.27" cy="1.61" r="0.04" />
<circle cx="1.40" cy="0.00" r="0.04" />
<circle cx="1.47" cy="0.69" r="0.04" />
<circle cx="1.60" cy="2.20" r="0.04" />
<circle cx="1.74" cy="1.79" r="0.04" />
<circle cx="1.87" cy="0.00" r="0.04" />
<circle cx="2.01" cy="1.95" r="0.04" />
<circle cx="2.14" cy="2.64" r="0.04" />
<circle cx="2.27" cy="1.95" r="0.04" />
<circle cx="2.41" cy="0.00" r="0.04" />
<circle cx="2.47" cy="0.69" r="0.04" />
<circle cx="2.61" cy="2.77" r="0.04" />
<circle cx="2.74" cy="3.00" r="0.04" />
<circle cx="2.87" cy="2.08" r="0.04" />
<circle cx="3.01" cy="0.00" r="0.04" />
<circle cx="3.14" cy="2.20" r="0.04" />
<circle cx="3.28" cy="3.40" r="0.04" />
<circle cx="3.41" cy="3.30" r="0.04" />
<circle cx="3.54" cy="2.20" r="0.04" />
<circle cx="3.68" cy="0.00" r="0.04" />
<circle cx="3.74" cy="0.69" r="0.04" />
<circle cx="3.88" cy="3.22" r="0.04" />
<circle cx="4.01" cy="3.91" r="0.04" />
<circle cx="4.14" cy="3.56" r="0.04" />
<circle cx="4.28" cy="2.30" r="0.04" />
<circle cx="4.41" cy="0.00" r="0.04" />
<circle cx="4.55" cy="2.40" r="0.04" />
<circle cx="4.68" cy="4.01" r="0.04" />
<circle cx="4.81" cy="4.34" r="0.04" />
<circle cx="4.95" cy="3.78" r="0.04" />
<circle cx="5.08" cy="2.40" r="0.04" />
<circle cx="5.21" cy="0.00" r="0.04" />
<circle cx="5.28" cy="0.69" r="0.04" />
<circle cx="5.41" cy="3.58" r="0.04" />
<circle cx="5.55" cy="4.65" r="0.04" />
<circle cx="5.68" cy="4.72" r="0.04" />
<circle cx="5.82" cy="3.99" r="0.04" />
<circle cx="5.95" cy="2.48" r="0.04" />
<circle cx="6.08" cy="0.00" r="0.04" />
<circle cx="6.22" cy="2.56" r="0.04" />
<circle cx="6.35" cy="4.51" r="0.04" />
<circle cx="6.48" cy="5.20" r="0.04" />
<circle cx="6.62" cy="5.05" r="0.04" />
<circle cx="6.75" cy="4.17" r="0.04" />
<circle cx="6.88" cy="2.56" r="0.04" />
<circle cx="7.02" cy="0.00" r="0.04" />
<circle cx="7.09" cy="0.69" r="0.04" />
<circle cx="7.22" cy="3.89" r="0.04" />
<circle cx="7.35" cy="5.28" r="0.04" />
<circle cx="7.49" cy="5.68" r="0.04" />
<circle cx="7.62" cy="5.35" r="0.04" />
<circle cx="7.75" cy="4.34" r="0.04" />
<circle cx="7.89" cy="2.64" r="0.04" />
<circle cx="8.02" cy="0.00" r="0.04" />
<circle cx="8.15" cy="2.71" r="0.04" />
<circle cx="8.29" cy="4.94" r="0.04" />
<circle cx="8.42" cy="5.93" r="0.04" />
<circle cx="8.56" cy="6.11" r="0.04" />
<circle cx="8.69" cy="5.62" r="0.04" />
<circle cx="8.82" cy="4.50" r="0.04" />
<circle cx="8.96" cy="2.71" r="0.04" />
<circle cx="9.09" cy="0.00" r="0.04" />
<circle cx="9.16" cy="0.69" r="0.04" />
<circle cx="9.29" cy="4.16" r="0.04" />
<circle cx="9.42" cy="5.82" r="0.04" />
<circle cx="9.56" cy="6.51" r="0.04" />
<circle cx="9.69" cy="6.49" r="0.04" />
<circle cx="9.83" cy="5.86" r="0.04" />
<circle cx="9.96" cy="4.64" r="0.04" />
<circle cx="10.09" cy="2.77" r="0.04" />
<circle cx="10.23" cy="0.00" r="0.04" />
<circle cx="10.36" cy="2.83" r="0.04" />
<circle cx="10.49" cy="5.32" r="0.04" />
<circle cx="10.63" cy="6.57" r="0.04" />
<circle cx="10.76" cy="7.02" r="0.04" />
<circle cx="10.90" cy="6.84" r="0.04" />
<circle cx="11.03" cy="6.09" r="0.04" />
<circle cx="11.16" cy="4.78" r="0.04" />
<circle cx="11.30" cy="2.83" r="0.04" />
<circle cx="11.43" cy="0.00" r="0.04" />
</g>
</svg>