<svg xmlns="http://www.w3.org/2000/svg" width="161.8" height="100.0" viewBox="-85.90 -55.00 171.80 110.00">
<g fill="none" stroke="black" stroke-width="0.1100%" transform="translate(0, -0.0000) scale(4.5455, -4.5455)">
<circle cx="-17.80" cy="0.00" r="0.11" />
<circle cx="0.00" cy="11.00" r="0.11" />
<polyline points="-17.80,-11.00 -17.44,-9.96 -17.09,-8.05 -16.73,-5.54 -16.37,-2.72 -16.02,0.11 -15.66,2.69 -15.31,4.78 -14.95,6.24 -14.59,6.98 -14.24,7.00 -13.88,6.37 -13.53,5.20 -13.17,3.66 -12.81,1.92 -12.46,0.19 -12.10,-1.39 -11.75,-2.67 -11.39,-3.56 -11.03,-4.00 -10.68,-4.00 -10.32,-3.59 -9.97,-2.85 -9.61,-1.88 -9.26,-0.79 -8.90,0.30 -8.54,1.30 -8.19,2.11 -7.83,2.68 -7.48,2.98 -7.12,3.00 -6.76,2.77 -6.41,2.34 -6.05,1.77 -5.70,1.13 -5.34,0.49 -4.98,-0.10 -4.63,-0.56 -4.27,-0.88 -3.92,-1.03 -3.56,-1.00 -3.20,-0.82 -2.85,-0.51 -2.49,-0.11 -2.14,0.34 -1.78,0.79 -1.42,1.20 -1.07,1.54 -0.71,1.80 -0.36,1.95 -0.00,2.00 0.36,1.96 0.71,1.84 1.07,1.66 1.42,1.47 1.78,1.27 2.14,1.10 2.49,0.98 2.85,0.92 3.20,0.93 3.56,1.00 3.92,1.14 4.27,1.33 4.63,1.55 4.98,1.80 5.34,2.06 5.70,2.30 6.05,2.53 6.41,2.72 6.76,2.88 7.12,3.00 7.48,3.09 7.83,3.16 8.19,3.22 8.54,3.27 8.90,3.33 9.26,3.41 9.61,3.51 9.97,3.64 10.32,3.80 10.68,4.00 11.03,4.23 11.39,4.49 11.75,4.77 12.10,5.08 12.46,5.39 12.81,5.71 13.17,6.03 13.53,6.36 13.88,6.68 14.24,7.00 14.59,7.32 14.95,7.65 15.31,7.99 15.66,8.35 16.02,8.72 16.37,9.11 16.73,9.54 17.09,9.99 17.44,10.48 17.80,11.00" />
</g>
</svg>