<svg xmlns="http://www.w3.org/2000/svg" width="161.8" height="100.0" viewBox="-3.94 4.09 171.80 110.00">
<g fill="none" stroke="black" stroke-width="0.1100%" transform="translate(0, 118.1818) scale(4.5455, -4.5455)">
<polyline points="0.23,2.00 0.47,2.00 0.47,4.00 0.70,4.00 0.70,2.00 0.94,2.00 0.94,4.00 1.17,4.00 1.17,2.00 1.41,2.00 1.41,6.00 1.64,6.00 1.64,4.00 1.87,4.00 1.87,6.00 2.11,6.00 2.11,2.00 2.34,2.00 2.34,4.00 2.58,4.00 2.58,6.00 2.81,6.00 2.81,6.00 3.04,6.00 3.04,2.00 3.28,2.00 3.28,12.00 3.51,12.00 3.51,4.00 3.75,4.00 3.75,2.00 3.98,2.00 3.98,4.00 4.22,4.00 4.22,2.00 4.45,2.00 4.45,4.00 4.68,4.00 4.68,8.00 4.92,8.00 4.92,6.00 5.15,6.00 5.15,6.00 5.39,6.00 5.39,6.00 5.62,6.00 5.62,6.00 5.85,6.00 5.85,4.00 6.09,4.00 6.09,12.00 6.32,12.00 6.32,2.00 6.56,2.00 6.56,4.00 6.79,4.00 6.79,2.00 7.03,2.00 7.03,6.00 7.26,6.00 7.26,10.00 7.49,10.00 7.49,8.00 7.73,8.00 7.73,4.00 7.96,4.00 7.96,6.00 8.20,6.00 8.20,2.00 8.43,2.00 8.43,18.00 8.66,18.00 8.66,4.00 8.90,4.00 8.90,2.00 9.13,2.00 9.13,6.00 9.37,6.00 9.37,4.00 9.60,4.00 9.60,6.00 9.84,6.00 9.84,8.00 10.07,8.00 10.07,4.00 10.30,4.00 10.30,8.00 10.54,8.00 10.54,4.00 10.77,4.00 10.77,2.00 11.01,2.00 11.01,4.00 11.24,4.00 11.24,18.00 11.48,18.00 11.48,2.00 11.71,2.00 11.71,6.00 11.94,6.00 11.94,6.00 12.18,6.00 12.18,10.00 12.41,10.00 12.41,2.00 12.65,2.00 12.65,4.00 12.88,4.00 12.88,8.00 13.11,8.00 13.11,6.00 13.35,6.00 13.35,4.00 13.58,4.00 13.58,12.00 13.82,12.00 13.82,2.00 14.05,2.00 14.05,6.00 14.29,6.00 14.29,4.00 14.52,4.00 14.52,8.00 14.75,8.00 14.75,10.00 14.99,10.00 14.99,8.00 15.22,8.00 15.22,4.00 15.46,4.00 15.46,6.00 15.69,6.00 15.69,18.00 15.92,18.00 15.92,6.00 16.16,6.00 16.16,2.00 16.39,2.00 16.39,6.00 16.63,6.00 16.63,10.00 16.86,10.00 16.86,6.00 17.10,6.00 17.10,6.00 17.33,6.00 17.33,6.00 17.56,6.00 17.56,2.00 17.80,2.00 17.80,4.00 18.03,4.00 18.03,18.00 18.27,18.00 18.27,12.00 18.50,12.00 18.50,12.00 18.74,12.00 18.74,2.00 18.97,2.00 18.97,6.00 19.20,6.00 19.20,4.00 19.44,4.00 19.44,2.00 19.67,2.00 19.67,6.00 19.91,6.00 19.91,16.00 20.14,16.00 20.14,6.00 20.37,6.00 20.37,2.00 20.61,2.00 20.61,10.00 20.84,10.00 20.84,6.00 21.08,6.00 21.08,2.00 21.31,2.00 21.31,4.00 21.55,4.00 21.55,12.00 21.78,12.00 21.78,6.00 22.01,6.00 22.01,18.00 22.25,18.00 22.25,2.00 22.48,2.00 22.48,4.00 22.72,4.00 22.72,8.00 22.95,8.00 22.95,10.00 23.18,10.00 23.18,12.00 23.42,12.00 23.42,2.00 23.65,2.00 23.65,4.00 23.89,4.00 23.89,2.00 24.12,2.00 24.12,10.00 24.36,10.00 24.36,8.00 24.59,8.00 24.59,4.00 24.82,4.00 24.82,2.00 25.06,2.00 25.06,6.00 25.29,6.00 25.29,4.00 25.53,4.00 25.53,18.00 25.76,18.00 25.76,6.00 25.99,6.00 25.99,6.00 26.23,6.00 26.23,8.00 26.46,8.00 26.46,6.00 26.70,6.00 26.70,18.00 26.93,18.00 26.93,6.00 27.17,6.00 27.17,4.00 27.40,4.00 27.40,2.00 27.63,2.00 27.63,6.00 27.87,6.00 27.87,4.00 28.10,4.00 28.10,2.00 28.34,2.00 28.34,4.00 28.57,4.00 28.57,24.00 28.81,24.00 28.81,8.00 29.04,8.00 29.04,4.00 29.27,4.00 29.27,6.00 29.51,6.00 29.51,14.00 29.74,14.00 29.74,4.00 29.98,4.00 29.98,14.00 30.21,14.00 30.21,4.00 30.44,4.00 30.44,8.00 30.68,8.00 30.68,10.00 30.91,10.00 30.91,14.00 31.15,14.00 31.15,12.00 31.38,12.00 31.38,6.00 31.62,6.00 31.62,10.00 31.85,10.00 31.85,2.00 32.08,2.00 32.08,10.00 32.32,10.00 32.32,2.00 32.55,2.00 32.55,6.00 32.79,6.00 32.79,22.00 33.02,22.00 33.02,2.00 33.25,2.00 33.25,4.00 33.49,4.00 33.49,2.00 33.72,2.00 33.72,4.00 33.96,4.00 33.96,20.00 34.19,20.00 34.19,4.00 34.43,4.00 34.43,14.00 34.66,14.00 34.66,4.00 34.89,4.00 34.89,2.00 35.13,2.00 35.13,10.00 35.36,10.00 35.36,2.00 35.60,2.00 35.60,4.00 35.83,4.00" />
</g>
</svg>