<svg xmlns="http://www.w3.org/2000/svg" width="161.3" height="100.0" viewBox="-2 -5 171 110">
<g fill="none" stroke="black" stroke-width="3.2350%" transform="translate(0, 100.0000) scale(0.1546, -0.1546)">
<line x1="17" y1="0" x2="17" y2="2" />
<line x1="34" y1="0" x2="34" y2="3" />
<line x1="51" y1="0" x2="51" y2="5" />
<line x1="68" y1="0" x2="68" y2="7" />
<line x1="86" y1="0" x2="86" y2="11" />
<line x1="103" y1="0" x2="103" y2="13" />
<line x1="120" y1="0" x2="120" y2="17" />
<line x1="137" y1="0" x2="137" y2="23" />
<line x1="154" y1="0" x2="154" y2="29" />
<line x1="171" y1="0" x2="171" y2="37" />
<line x1="188" y1="0" x2="188" y2="41" />
<line x1="205" y1="0" x2="205" y2="43" />
<line x1="222" y1="0" x2="222" y2="47" />
<line x1="240" y1="0" x2="240" y2="53" />
<line x1="257" y1="0" x2="257" y2="61" />
<line x1="274" y1="0" x2="274" y2="67" />
<line x1="291" y1="0" x2="291" y2="71" />
<line x1="308" y1="0" x2="308" y2="83" />
<line x1="325" y1="0" x2="325" y2="89" />
<line x1="342" y1="0" x2="342" y2="97" />
<line x1="359" y1="0" x2="359" y2="107" />
<line x1="376" y1="0" x2="376" y2="127" />
<line x1="394" y1="0" x2="394" y2="131" />
<line x1="411" y1="0" x2="411" y2="149" />
<line x1="428" y1="0" x2="428" y2="157" />
<line x1="445" y1="0" x2="445" y2="173" />
<line x1="462" y1="0" x2="462" y2="179" />
<line x1="479" y1="0" x2="479" y2="181" />
<line x1="496" y1="0" x2="496" y2="193" />
<line x1="513" y1="0" x2="513" y2="211" />
<line x1="530" y1="0" x2="530" y2="223" />
<line x1="547" y1="0" x2="547" y2="227" />
<line x1="565" y1="0" x2="565" y2="233" />
<line x1="582" y1="0" x2="582" y2="239" />
<line x1="599" y1="0" x2="599" y2="257" />
<line x1="616" y1="0" x2="616" y2="277" />
<line x1="633" y1="0" x2="633" y2="283" />
<line x1="650" y1="0" x2="650" y2="307" />
<line x1="667" y1="0" x2="667" y2="313" />
<line x1="684" y1="0" x2="684" y2="331" />
<line x1="701" y1="0" x2="701" y2="337" />
<line x1="719" y1="0" x2="719" y2="353" />
<line x1="736" y1="0" x2="736" y2="359" />
<line x1="753" y1="0" x2="753" y2="383" />
<line x1="770" y1="0" x2="770" y2="389" />
<line x1="787" y1="0" x2="787" y2="397" />
<line x1="804" y1="0" x2="804" y2="419" />
<line x1="821" y1="0" x2="821" y2="421" />
<line x1="838" y1="0" x2="838" y2="431" />
<line x1="855" y1="0" x2="855" y2="433" />
<line x1="873" y1="0" x2="873" y2="463" />
<line x1="890" y1="0" x2="890" y2="467" />
<line x1="907" y1="0" x2="907" y2="503" />
<line x1="924" y1="0" x2="924" y2="509" />
<line x1="941" y1="0" x2="941" y2="541" />
<line x1="958" y1="0" x2="958" y2="577" />
<line x1="975" y1="0" x2="975" y2="593" />
<line x1="992" y1="0" x2="992" y2="607" />
<line x1="1009" y1="0" x2="1009" y2="613" />
<line x1="1027" y1="0" x2="1027" y2="617" />
<line x1="1044" y1="0" x2="1044" y2="643" />
<line x1="1061" y1="0" x2="1061" y2="647" />
</g>
</svg>