<svg xmlns="http://www.w3.org/2000/svg" width="161.3" height="100.0" viewBox="-2 -5 171 110">
<g fill="none" stroke="black" stroke-width="1.7050%" transform="translate(0, 100.0000) scale(0.2933, -0.2933)">
<line x1="9" y1="0" x2="9" y2="1" />
<line x1="19" y1="0" x2="19" y2="2" />
<line x1="28" y1="0" x2="28" y2="3" />
<line x1="37" y1="0" x2="37" y2="5" />
<line x1="47" y1="0" x2="47" y2="7" />
<line x1="56" y1="0" x2="56" y2="11" />
<line x1="65" y1="0" x2="65" y2="13" />
<line x1="75" y1="0" x2="75" y2="17" />
<line x1="84" y1="0" x2="84" y2="23" />
<line x1="93" y1="0" x2="93" y2="25" />
<line x1="103" y1="0" x2="103" y2="29" />
<line x1="112" y1="0" x2="112" y2="37" />
<line x1="121" y1="0" x2="121" y2="41" />
<line x1="131" y1="0" x2="131" y2="43" />
<line x1="140" y1="0" x2="140" y2="47" />
<line x1="149" y1="0" x2="149" y2="53" />
<line x1="159" y1="0" x2="159" y2="61" />
<line x1="168" y1="0" x2="168" y2="67" />
<line x1="177" y1="0" x2="177" y2="71" />
<line x1="186" y1="0" x2="186" y2="77" />
<line x1="196" y1="0" x2="196" y2="83" />
<line x1="205" y1="0" x2="205" y2="89" />
<line x1="214" y1="0" x2="214" y2="91" />
<line x1="224" y1="0" x2="224" y2="97" />
<line x1="233" y1="0" x2="233" y2="107" />
<line x1="242" y1="0" x2="242" y2="115" />
<line x1="252" y1="0" x2="252" y2="119" />
<line x1="261" y1="0" x2="261" y2="121" />
<line x1="270" y1="0" x2="270" y2="127" />
<line x1="280" y1="0" x2="280" y2="131" />
<line x1="289" y1="0" x2="289" y2="143" />
<line x1="298" y1="0" x2="298" y2="149" />
<line x1="308" y1="0" x2="308" y2="157" />
<line x1="317" y1="0" x2="317" y2="161" />
<line x1="326" y1="0" x2="326" y2="173" />
<line x1="336" y1="0" x2="336" y2="175" />
<line x1="345" y1="0" x2="345" y2="179" />
<line x1="354" y1="0" x2="354" y2="181" />
<line x1="364" y1="0" x2="364" y2="193" />
<line x1="373" y1="0" x2="373" y2="209" />
<line x1="382" y1="0" x2="382" y2="211" />
<line x1="392" y1="0" x2="392" y2="221" />
<line x1="401" y1="0" x2="401" y2="223" />
<line x1="410" y1="0" x2="410" y2="227" />
<line x1="420" y1="0" x2="420" y2="233" />
<line x1="429" y1="0" x2="429" y2="235" />
<line x1="438" y1="0" x2="438" y2="239" />
<line x1="448" y1="0" x2="448" y2="247" />
<line x1="457" y1="0" x2="457" y2="257" />
<line x1="466" y1="0" x2="466" y2="265" />
<line x1="476" y1="0" x2="476" y2="277" />
<line x1="485" y1="0" x2="485" y2="283" />
<line x1="494" y1="0" x2="494" y2="287" />
<line x1="504" y1="0" x2="504" y2="301" />
<line x1="513" y1="0" x2="513" y2="307" />
<line x1="522" y1="0" x2="522" y2="313" />
<line x1="531" y1="0" x2="531" y2="329" />
<line x1="541" y1="0" x2="541" y2="331" />
<line x1="550" y1="0" x2="550" y2="337" />
<line x1="559" y1="0" x2="559" y2="341" />
</g>
</svg>