<svg xmlns="http://www.w3.org/2000/svg" width="151.7" height="100.0" viewBox="-2.38 -5.00 161.69 110.00">
<g fill="none" stroke="black" stroke-width="0.0800%" transform="translate(0, 100.0000) scale(6.2500, -6.2500)">
<line x1="0.42" y1="0.00" x2="0.42" y2="1.00" />
<line x1="0.84" y1="0.00" x2="0.84" y2="1.00" />
<line x1="1.26" y1="0.00" x2="1.26" y2="2.00" />
<line x1="1.67" y1="0.00" x2="1.67" y2="2.00" />
<line x1="2.09" y1="0.00" x2="2.09" y2="4.00" />
<line x1="2.51" y1="0.00" x2="2.51" y2="2.00" />
<line x1="2.93" y1="0.00" x2="2.93" y2="4.00" />
<line x1="3.35" y1="0.00" x2="3.35" y2="6.00" />
<line x1="3.77" y1="0.00" x2="3.77" y2="2.00" />
<line x1="4.18" y1="0.00" x2="4.18" y2="4.00" />
<line x1="4.60" y1="0.00" x2="4.60" y2="8.00" />
<line x1="5.02" y1="0.00" x2="5.02" y2="4.00" />
<line x1="5.44" y1="0.00" x2="5.44" y2="2.00" />
<line x1="5.86" y1="0.00" x2="5.86" y2="4.00" />
<line x1="6.28" y1="0.00" x2="6.28" y2="6.00" />
<line x1="6.70" y1="0.00" x2="6.70" y2="8.00" />
<line x1="7.11" y1="0.00" x2="7.11" y2="6.00" />
<line x1="7.53" y1="0.00" x2="7.53" y2="4.00" />
<line x1="7.95" y1="0.00" x2="7.95" y2="6.00" />
<line x1="8.37" y1="0.00" x2="8.37" y2="6.00" />
<line x1="8.79" y1="0.00" x2="8.79" y2="6.00" />
<line x1="9.21" y1="0.00" x2="9.21" y2="2.00" />
<line x1="9.62" y1="0.00" x2="9.62" y2="6.00" />
<line x1="10.04" y1="0.00" x2="10.04" y2="10.00" />
<line x1="10.46" y1="0.00" x2="10.46" y2="8.00" />
<line x1="10.88" y1="0.00" x2="10.88" y2="4.00" />
<line x1="11.30" y1="0.00" x2="11.30" y2="2.00" />
<line x1="11.72" y1="0.00" x2="11.72" y2="6.00" />
<line x1="12.14" y1="0.00" x2="12.14" y2="4.00" />
<line x1="12.55" y1="0.00" x2="12.55" y2="12.00" />
<line x1="12.97" y1="0.00" x2="12.97" y2="6.00" />
<line x1="13.39" y1="0.00" x2="13.39" y2="8.00" />
<line x1="13.81" y1="0.00" x2="13.81" y2="4.00" />
<line x1="14.23" y1="0.00" x2="14.23" y2="12.00" />
<line x1="14.65" y1="0.00" x2="14.65" y2="2.00" />
<line x1="15.06" y1="0.00" x2="15.06" y2="4.00" />
<line x1="15.48" y1="0.00" x2="15.48" y2="2.00" />
<line x1="15.90" y1="0.00" x2="15.90" y2="12.00" />
<line x1="16.32" y1="0.00" x2="16.32" y2="16.00" />
<line x1="16.74" y1="0.00" x2="16.74" y2="2.00" />
<line x1="17.16" y1="0.00" x2="17.16" y2="10.00" />
<line x1="17.58" y1="0.00" x2="17.58" y2="2.00" />
<line x1="17.99" y1="0.00" x2="17.99" y2="4.00" />
<line x1="18.41" y1="0.00" x2="18.41" y2="6.00" />
<line x1="18.83" y1="0.00" x2="18.83" y2="2.00" />
<line x1="19.25" y1="0.00" x2="19.25" y2="4.00" />
<line x1="19.67" y1="0.00" x2="19.67" y2="8.00" />
<line x1="20.09" y1="0.00" x2="20.09" y2="10.00" />
<line x1="20.50" y1="0.00" x2="20.50" y2="8.00" />
<line x1="20.92" y1="0.00" x2="20.92" y2="12.00" />
<line x1="21.34" y1="0.00" x2="21.34" y2="6.00" />
<line x1="21.76" y1="0.00" x2="21.76" y2="4.00" />
<line x1="22.18" y1="0.00" x2="22.18" y2="14.00" />
<line x1="22.60" y1="0.00" x2="22.60" y2="6.00" />
<line x1="23.02" y1="0.00" x2="23.02" y2="6.00" />
<line x1="23.43" y1="0.00" x2="23.43" y2="16.00" />
<line x1="23.85" y1="0.00" x2="23.85" y2="2.00" />
<line x1="24.27" y1="0.00" x2="24.27" y2="6.00" />
<line x1="24.69" y1="0.00" x2="24.69" y2="4.00" />
</g>
</svg>