<svg xmlns="http://www.w3.org/2000/svg" width="161.6" height="100.0" viewBox="-2 -5 172 110">
<g fill="none" stroke="black" stroke-width="5.2250%" transform="translate(0, 100.0000) scale(0.0957, -0.0957)">
<line x1="28" y1="0" x2="28" y2="1" />
<line x1="55" y1="0" x2="55" y2="25" />
<line x1="83" y1="0" x2="83" y2="77" />
<line x1="111" y1="0" x2="111" y2="91" />
<line x1="138" y1="0" x2="138" y2="115" />
<line x1="166" y1="0" x2="166" y2="119" />
<line x1="194" y1="0" x2="194" y2="121" />
<line x1="222" y1="0" x2="222" y2="143" />
<line x1="249" y1="0" x2="249" y2="161" />
<line x1="277" y1="0" x2="277" y2="175" />
<line x1="305" y1="0" x2="305" y2="209" />
<line x1="332" y1="0" x2="332" y2="221" />
<line x1="360" y1="0" x2="360" y2="235" />
<line x1="388" y1="0" x2="388" y2="247" />
<line x1="415" y1="0" x2="415" y2="265" />
<line x1="443" y1="0" x2="443" y2="287" />
<line x1="471" y1="0" x2="471" y2="301" />
<line x1="498" y1="0" x2="498" y2="329" />
<line x1="526" y1="0" x2="526" y2="341" />
<line x1="554" y1="0" x2="554" y2="361" />
<line x1="582" y1="0" x2="582" y2="377" />
<line x1="609" y1="0" x2="609" y2="407" />
<line x1="637" y1="0" x2="637" y2="415" />
<line x1="665" y1="0" x2="665" y2="437" />
<line x1="692" y1="0" x2="692" y2="445" />
<line x1="720" y1="0" x2="720" y2="475" />
<line x1="748" y1="0" x2="748" y2="481" />
<line x1="775" y1="0" x2="775" y2="493" />
<line x1="803" y1="0" x2="803" y2="497" />
<line x1="831" y1="0" x2="831" y2="517" />
<line x1="858" y1="0" x2="858" y2="527" />
<line x1="886" y1="0" x2="886" y2="535" />
<line x1="914" y1="0" x2="914" y2="553" />
<line x1="942" y1="0" x2="942" y2="565" />
<line x1="969" y1="0" x2="969" y2="581" />
<line x1="997" y1="0" x2="997" y2="595" />
<line x1="1025" y1="0" x2="1025" y2="625" />
<line x1="1052" y1="0" x2="1052" y2="667" />
<line x1="1080" y1="0" x2="1080" y2="685" />
<line x1="1108" y1="0" x2="1108" y2="697" />
<line x1="1135" y1="0" x2="1135" y2="703" />
<line x1="1163" y1="0" x2="1163" y2="707" />
<line x1="1191" y1="0" x2="1191" y2="749" />
<line x1="1218" y1="0" x2="1218" y2="775" />
<line x1="1246" y1="0" x2="1246" y2="791" />
<line x1="1274" y1="0" x2="1274" y2="803" />
<line x1="1302" y1="0" x2="1302" y2="805" />
<line x1="1329" y1="0" x2="1329" y2="835" />
<line x1="1357" y1="0" x2="1357" y2="841" />
<line x1="1385" y1="0" x2="1385" y2="851" />
<line x1="1412" y1="0" x2="1412" y2="865" />
<line x1="1440" y1="0" x2="1440" y2="893" />
<line x1="1468" y1="0" x2="1468" y2="913" />
<line x1="1495" y1="0" x2="1495" y2="931" />
<line x1="1523" y1="0" x2="1523" y2="943" />
<line x1="1551" y1="0" x2="1551" y2="959" />
<line x1="1578" y1="0" x2="1578" y2="961" />
<line x1="1606" y1="0" x2="1606" y2="973" />
<line x1="1634" y1="0" x2="1634" y2="1007" />
<line x1="1662" y1="0" x2="1662" y2="1015" />
<line x1="1689" y1="0" x2="1689" y2="1043" />
<line x1="1717" y1="0" x2="1717" y2="1045" />
</g>
</svg>