<?xml version="1.0" encoding="UTF-8" standalone="no"?>
<!DOCTYPE svg PUBLIC "-//W3C//DTD SVG 1.1//EN"
 "http://www.w3.org/Graphics/SVG/1.1/DTD/svg11.dtd">
<!-- Generated by graphviz version 12.0.0 (0)
 -->
<!-- Pages: 1 -->
<svg width="74pt" height="54pt"
 viewBox="0.00 0.00 74.31 54.00" xmlns="http://www.w3.org/2000/svg" xmlns:xlink="http://www.w3.org/1999/xlink">
<g id="graph0" class="graph" transform="scale(0.195652 0.195652) rotate(0) translate(4 272)">
<!-- 1 -->
<g id="node1" class="node">
<title>1</title>
<polygon fill="none" stroke="black" points="212.32,-268 152,-268 152,-243.2 212.32,-243.2 212.32,-268"/>
<text text-anchor="middle" x="182.16" y="-251.4" font-family="Times,serif" font-size="14.00">[1, 1, 1]</text>
</g>
<!-- 2 -->
<g id="node2" class="node">
<title>2</title>
<polygon fill="none" stroke="black" points="212.32,-207.2 152,-207.2 152,-182.4 212.32,-182.4 212.32,-207.2"/>
<text text-anchor="middle" x="182.16" y="-190.6" font-family="Times,serif" font-size="14.00">[1, 1, 2]</text>
</g>
<!-- 1&#45;&gt;2 -->
<g id="edge1" class="edge">
<title>1&#45;&gt;2</title>
<path fill="none" stroke="black" stroke-width="0.75" d="M182.16,-242.7C182.16,-234.33 182.16,-222.99 182.16,-213.56"/>
<polygon fill="black" stroke="black" stroke-width="0.75" points="183.91,-213.82 182.16,-208.82 180.41,-213.82 183.91,-213.82"/>
</g>
<!-- 3 -->
<g id="node3" class="node">
<title>3</title>
<polygon fill="none" stroke="black" points="212.32,-146.4 152,-146.4 152,-121.6 212.32,-121.6 212.32,-146.4"/>
<text text-anchor="middle" x="182.16" y="-129.8" font-family="Times,serif" font-size="14.00">[1, 2, 5]</text>
</g>
<!-- 2&#45;&gt;3 -->
<g id="edge2" class="edge">
<title>2&#45;&gt;3</title>
<path fill="none" stroke="black" stroke-width="0.75" d="M182.16,-181.9C182.16,-173.53 182.16,-162.19 182.16,-152.76"/>
<polygon fill="black" stroke="black" stroke-width="0.75" points="183.91,-153.02 182.16,-148.02 180.41,-153.02 183.91,-153.02"/>
</g>
<!-- 4 -->
<g id="node4" class="node">
<title>4</title>
<polygon fill="none" stroke="black" points="166.82,-85.6 99.5,-85.6 99.5,-60.8 166.82,-60.8 166.82,-85.6"/>
<text text-anchor="middle" x="133.16" y="-69" font-family="Times,serif" font-size="14.00">[1, 5, 13]</text>
</g>
<!-- 3&#45;&gt;4 -->
<g id="edge3" class="edge">
<title>3&#45;&gt;4</title>
<path fill="none" stroke="black" stroke-width="0.75" d="M172.25,-121.1C164.94,-112.33 154.91,-100.3 146.85,-90.62"/>
<polygon fill="black" stroke="black" stroke-width="0.75" points="148.34,-89.67 143.79,-86.95 145.65,-91.91 148.34,-89.67"/>
</g>
<!-- 7 -->
<g id="node7" class="node">
<title>7</title>
<polygon fill="none" stroke="black" points="265.82,-85.6 198.5,-85.6 198.5,-60.8 265.82,-60.8 265.82,-85.6"/>
<text text-anchor="middle" x="232.16" y="-69" font-family="Times,serif" font-size="14.00">[2, 5, 29]</text>
</g>
<!-- 3&#45;&gt;7 -->
<g id="edge4" class="edge">
<title>3&#45;&gt;7</title>
<path fill="none" stroke="black" stroke-width="0.75" d="M192.28,-121.1C199.74,-112.33 209.97,-100.3 218.2,-90.62"/>
<polygon fill="black" stroke="black" stroke-width="0.75" points="219.42,-91.89 221.32,-86.95 216.75,-89.62 219.42,-91.89"/>
</g>
<!-- 5 -->
<g id="node5" class="node">
<title>5</title>
<polygon fill="none" stroke="black" points="74.32,-24.8 0,-24.8 0,0 74.32,0 74.32,-24.8"/>
<text text-anchor="middle" x="37.16" y="-8.2" font-family="Times,serif" font-size="14.00">[1, 13, 34]</text>
</g>
<!-- 4&#45;&gt;5 -->
<g id="edge5" class="edge">
<title>4&#45;&gt;5</title>
<path fill="none" stroke="black" stroke-width="0.75" d="M113.74,-60.3C98.64,-51.06 77.62,-38.18 61.42,-28.26"/>
<polygon fill="black" stroke="black" stroke-width="0.75" points="62.71,-26.99 57.53,-25.87 60.88,-29.98 62.71,-26.99"/>
</g>
<!-- 6 -->
<g id="node6" class="node">
<title>6</title>
<polygon fill="none" stroke="black" points="173.82,-24.8 92.5,-24.8 92.5,0 173.82,0 173.82,-24.8"/>
<text text-anchor="middle" x="133.16" y="-8.2" font-family="Times,serif" font-size="14.00">[5, 13, 194]</text>
</g>
<!-- 4&#45;&gt;6 -->
<g id="edge6" class="edge">
<title>4&#45;&gt;6</title>
<path fill="none" stroke="black" stroke-width="0.75" d="M133.16,-60.3C133.16,-51.93 133.16,-40.59 133.16,-31.16"/>
<polygon fill="black" stroke="black" stroke-width="0.75" points="134.91,-31.42 133.16,-26.42 131.41,-31.42 134.91,-31.42"/>
</g>
<!-- 8 -->
<g id="node8" class="node">
<title>8</title>
<polygon fill="none" stroke="black" points="272.82,-24.8 191.5,-24.8 191.5,0 272.82,0 272.82,-24.8"/>
<text text-anchor="middle" x="232.16" y="-8.2" font-family="Times,serif" font-size="14.00">[2, 29, 169]</text>
</g>
<!-- 7&#45;&gt;8 -->
<g id="edge7" class="edge">
<title>7&#45;&gt;8</title>
<path fill="none" stroke="black" stroke-width="0.75" d="M232.16,-60.3C232.16,-51.93 232.16,-40.59 232.16,-31.16"/>
<polygon fill="black" stroke="black" stroke-width="0.75" points="233.91,-31.42 232.16,-26.42 230.41,-31.42 233.91,-31.42"/>
</g>
<!-- 9 -->
<g id="node9" class="node">
<title>9</title>
<polygon fill="none" stroke="black" points="371.82,-24.8 290.5,-24.8 290.5,0 371.82,0 371.82,-24.8"/>
<text text-anchor="middle" x="331.16" y="-8.2" font-family="Times,serif" font-size="14.00">[5, 29, 433]</text>
</g>
<!-- 7&#45;&gt;9 -->
<g id="edge8" class="edge">
<title>7&#45;&gt;9</title>
<path fill="none" stroke="black" stroke-width="0.75" d="M252.2,-60.3C267.76,-51.06 289.44,-38.18 306.15,-28.26"/>
<polygon fill="black" stroke="black" stroke-width="0.75" points="306.78,-29.92 310.18,-25.86 304.99,-26.91 306.78,-29.92"/>
</g>
</g>
</svg>
