<svg xmlns="http://www.w3.org/2000/svg" width="100.0" height="100.0" viewBox="-78.779 -100.331 110.000 110.000">
<g fill="none" stroke="black" stroke-width="0.0145%" transform="translate(0, -90.6625) scale(34.5550, -34.5550)">
<circle cx="0.000" cy="0.000" r="0.014" />
<circle cx="0.000" cy="-2.000" r="0.014" />
<circle cx="-2.000" cy="-2.000" r="0.014" />
<circle cx="-1.194" cy="0.000" r="0.014" />
<circle cx="0.620" cy="-0.806" r="0.014" />
<circle cx="-1.269" cy="-2.620" r="0.014" />
<circle cx="-1.980" cy="-0.731" r="0.014" />
<circle cx="0.072" cy="-0.020" r="0.014" />
<circle cx="-0.203" cy="-2.072" r="0.014" />
<circle cx="-1.833" cy="-1.797" r="0.014" />
<circle cx="-1.026" cy="-0.167" r="0.014" />
<circle cx="0.406" cy="-0.974" r="0.014" />
<circle cx="-1.354" cy="-2.406" r="0.014" />
<circle cx="-1.745" cy="-0.646" r="0.014" />
<circle cx="0.106" cy="-0.255" r="0.014" />
<circle cx="-0.467" cy="-2.106" r="0.014" />
<circle cx="-1.726" cy="-1.533" r="0.014" />
<circle cx="-0.785" cy="-0.274" r="0.014" />
<circle cx="0.225" cy="-1.215" r="0.014" />
<circle cx="-1.506" cy="-2.225" r="0.014" />
<circle cx="-1.528" cy="-0.494" r="0.014" />
<circle cx="0.209" cy="-0.472" r="0.014" />
<circle cx="-0.753" cy="-2.209" r="0.014" />
<circle cx="-1.720" cy="-1.247" r="0.014" />
<circle cx="-0.500" cy="-0.280" r="0.014" />
<circle cx="0.114" cy="-1.500" r="0.014" />
<circle cx="-1.718" cy="-2.114" r="0.014" />
<circle cx="-1.368" cy="-0.282" r="0.014" />
<circle cx="0.382" cy="-0.632" r="0.014" />
<circle cx="-1.001" cy="-2.382" r="0.014" />
<circle cx="-1.816" cy="-0.999" r="0.014" />
<circle cx="-0.231" cy="-0.184" r="0.014" />
<circle cx="0.073" cy="-1.769" r="0.014" />
<circle cx="-1.954" cy="-2.073" r="0.014" />
<circle cx="-1.277" cy="-0.046" r="0.014" />
<circle cx="0.596" cy="-0.723" r="0.014" />
<circle cx="-1.178" cy="-2.596" r="0.014" />
<circle cx="-1.980" cy="-0.822" r="0.014" />
<circle cx="-0.020" cy="-0.020" r="0.014" />
<circle cx="0.038" cy="-1.980" r="0.014" />
<circle cx="-2.130" cy="-2.038" r="0.014" />
<circle cx="-1.206" cy="0.130" r="0.014" />
<circle cx="0.753" cy="-0.794" r="0.014" />
<circle cx="-1.303" cy="-2.753" r="0.014" />
<circle cx="-2.105" cy="-0.697" r="0.014" />
<circle cx="0.130" cy="0.105" r="0.014" />
<circle cx="-0.125" cy="-2.130" r="0.014" />
<circle cx="-1.953" cy="-1.875" r="0.014" />
<circle cx="-1.078" cy="-0.047" r="0.014" />
<circle cx="0.542" cy="-0.922" r="0.014" />
<circle cx="-1.356" cy="-2.542" r="0.014" />
<circle cx="-1.880" cy="-0.644" r="0.014" />
<circle cx="0.137" cy="-0.120" r="0.014" />
<circle cx="-0.355" cy="-2.137" r="0.014" />
<circle cx="-1.810" cy="-1.645" r="0.014" />
<circle cx="-0.879" cy="-0.190" r="0.014" />
<circle cx="0.339" cy="-1.121" r="0.014" />
<circle cx="-1.470" cy="-2.339" r="0.014" />
<circle cx="-1.650" cy="-0.530" r="0.014" />
<circle cx="0.201" cy="-0.350" r="0.014" />
<circle cx="-0.627" cy="-2.201" r="0.014" />
<circle cx="-1.758" cy="-1.373" r="0.014" />
<circle cx="-0.618" cy="-0.242" r="0.014" />
<circle cx="0.198" cy="-1.382" r="0.014" />
<circle cx="-1.657" cy="-2.198" r="0.014" />
<circle cx="-1.466" cy="-0.343" r="0.014" />
<circle cx="0.345" cy="-0.534" r="0.014" />
<circle cx="-0.886" cy="-2.345" r="0.014" />
<circle cx="-1.813" cy="-1.114" r="0.014" />
<circle cx="-0.347" cy="-0.187" r="0.014" />
<circle cx="0.136" cy="-1.653" r="0.014" />
<circle cx="-1.888" cy="-2.136" r="0.014" />
<circle cx="-1.354" cy="-0.112" r="0.014" />
<circle cx="0.549" cy="-0.646" r="0.014" />
<circle cx="-1.084" cy="-2.549" r="0.014" />
<circle cx="-1.959" cy="-0.916" r="0.014" />
<circle cx="-0.119" cy="-0.041" r="0.014" />
<circle cx="0.130" cy="-1.881" r="0.014" />
<circle cx="-2.111" cy="-2.130" r="0.014" />
<circle cx="-1.301" cy="0.111" r="0.014" />
<circle cx="0.759" cy="-0.699" r="0.014" />
<circle cx="-1.209" cy="-2.759" r="0.014" />
<circle cx="-2.135" cy="-0.791" r="0.014" />
<circle cx="0.043" cy="0.135" r="0.014" />
<circle cx="-0.020" cy="-2.043" r="0.014" />
<circle cx="-1.984" cy="-1.980" r="0.014" />
<circle cx="-1.177" cy="-0.016" r="0.014" />
<circle cx="0.599" cy="-0.823" r="0.014" />
<circle cx="-1.279" cy="-2.599" r="0.014" />
<circle cx="-1.957" cy="-0.721" r="0.014" />
<circle cx="0.076" cy="-0.043" r="0.014" />
<circle cx="-0.230" cy="-2.076" r="0.014" />
<circle cx="-1.820" cy="-1.770" r="0.014" />
<circle cx="-1.002" cy="-0.180" r="0.014" />
<circle cx="0.386" cy="-0.998" r="0.014" />
<circle cx="-1.369" cy="-2.386" r="0.014" />
<circle cx="-1.721" cy="-0.631" r="0.014" />
<circle cx="0.116" cy="-0.279" r="0.014" />
<circle cx="-0.499" cy="-2.116" r="0.014" />
</g>
</svg>