<svg xmlns="http://www.w3.org/2000/svg" width="100" height="100" viewBox="0 0 100 100">
<rect x="0" y="0" width="20" height="20" fill="rgb(191,67,67)"/>
<rect x="0" y="20" width="20" height="20" fill="rgb(129,67,191)"/>
<rect x="0" y="40" width="20" height="20" fill="rgb(67,191,191)"/>
<rect x="0" y="60" width="20" height="20" fill="rgb(129,191,67)"/>
<rect x="0" y="80" width="20" height="20" fill="rgb(191,67,67)"/>
<rect x="20" y="0" width="20" height="20" fill="rgb(191,67,160)"/>
<rect x="20" y="20" width="20" height="20" fill="rgb(106,67,191)"/>
<rect x="20" y="40" width="20" height="20" fill="rgb(67,145,191)"/>
<rect x="20" y="60" width="20" height="20" fill="rgb(67,191,121)"/>
<rect x="20" y="80" width="20" height="20" fill="rgb(129,191,67)"/>
<rect x="40" y="0" width="20" height="20" fill="rgb(129,67,191)"/>
<rect x="40" y="20" width="20" height="20" fill="rgb(82,67,191)"/>
<rect x="40" y="40" width="20" height="20" fill="rgb(67,98,191)"/>
<rect x="40" y="60" width="20" height="20" fill="rgb(67,145,191)"/>
<rect x="40" y="80" width="20" height="20" fill="rgb(67,191,191)"/>
<rect x="60" y="0" width="20" height="20" fill="rgb(67,98,191)"/>
<rect x="60" y="20" width="20" height="20" fill="rgb(67,75,191)"/>
<rect x="60" y="40" width="20" height="20" fill="rgb(82,67,191)"/>
<rect x="60" y="60" width="20" height="20" fill="rgb(106,67,191)"/>
<rect x="60" y="80" width="20" height="20" fill="rgb(129,67,191)"/>
<rect x="80" y="0" width="20" height="20" fill="rgb(67,191,191)"/>
<rect x="80" y="20" width="20" height="20" fill="rgb(67,98,191)"/>
<rect x="80" y="40" width="20" height="20" fill="rgb(129,67,191)"/>
<rect x="80" y="60" width="20" height="20" fill="rgb(191,67,160)"/>
<rect x="80" y="80" width="20" height="20" fill="rgb(191,67,67)"/>
</svg>