<svg xmlns="http://www.w3.org/2000/svg" width="100" height="100" viewBox="0 0 100 100">
<g stroke="none" transform="translate(0, 0) scale(1, 1)">
<rect x="0" y="0" width="10" height="10" fill="rgb(170,170,170)"/>
<rect x="0" y="10" width="10" height="10" fill="rgb(178.5,178.5,178.5)"/>
<rect x="0" y="20" width="10" height="10" fill="rgb(187,187,187)"/>
<rect x="0" y="30" width="10" height="10" fill="rgb(195.49999999999997,195.49999999999997,195.49999999999997)"/>
<rect x="0" y="40" width="10" height="10" fill="rgb(204,204,204)"/>
<rect x="0" y="50" width="10" height="10" fill="rgb(212.5,212.5,212.5)"/>
<rect x="0" y="60" width="10" height="10" fill="rgb(220.99999999999997,220.99999999999997,220.99999999999997)"/>
<rect x="0" y="70" width="10" height="10" fill="rgb(229.49999999999997,229.49999999999997,229.49999999999997)"/>
<rect x="0" y="80" width="10" height="10" fill="rgb(238,238,238)"/>
<rect x="0" y="90" width="10" height="10" fill="rgb(246.5,246.5,246.5)"/>
<rect x="10" y="0" width="10" height="10" fill="rgb(178.5,178.5,178.5)"/>
<rect x="10" y="10" width="10" height="10" fill="rgb(102.00000000000001,102.00000000000001,102.00000000000001)"/>
<rect x="10" y="20" width="10" height="10" fill="rgb(119.00000000000004,119.00000000000004,119.00000000000004)"/>
<rect x="10" y="30" width="10" height="10" fill="rgb(135.99999999999997,135.99999999999997,135.99999999999997)"/>
<rect x="10" y="40" width="10" height="10" fill="rgb(153,153,153)"/>
<rect x="10" y="50" width="10" height="10" fill="rgb(170,170,170)"/>
<rect x="10" y="60" width="10" height="10" fill="rgb(186.99999999999997,186.99999999999997,186.99999999999997)"/>
<rect x="10" y="70" width="10" height="10" fill="rgb(204,204,204)"/>
<rect x="10" y="80" width="10" height="10" fill="rgb(220.99999999999997,220.99999999999997,220.99999999999997)"/>
<rect x="10" y="90" width="10" height="10" fill="rgb(238,238,238)"/>
<rect x="20" y="0" width="10" height="10" fill="rgb(187,187,187)"/>
<rect x="20" y="10" width="10" height="10" fill="rgb(119.00000000000004,119.00000000000004,119.00000000000004)"/>
<rect x="20" y="20" width="10" height="10" fill="rgb(51.00000000000003,51.00000000000003,51.00000000000003)"/>
<rect x="20" y="30" width="10" height="10" fill="rgb(76.5,76.5,76.5)"/>
<rect x="20" y="40" width="10" height="10" fill="rgb(101.99999999999997,101.99999999999997,101.99999999999997)"/>
<rect x="20" y="50" width="10" height="10" fill="rgb(127.50000000000001,127.50000000000001,127.50000000000001)"/>
<rect x="20" y="60" width="10" height="10" fill="rgb(153,153,153)"/>
<rect x="20" y="70" width="10" height="10" fill="rgb(178.5,178.5,178.5)"/>
<rect x="20" y="80" width="10" height="10" fill="rgb(204,204,204)"/>
<rect x="20" y="90" width="10" height="10" fill="rgb(229.5,229.5,229.5)"/>
<rect x="30" y="0" width="10" height="10" fill="rgb(195.49999999999997,195.49999999999997,195.49999999999997)"/>
<rect x="30" y="10" width="10" height="10" fill="rgb(135.99999999999997,135.99999999999997,135.99999999999997)"/>
<rect x="30" y="20" width="10" height="10" fill="rgb(76.49999999999999,76.49999999999999,76.49999999999999)"/>
<rect x="30" y="30" width="10" height="10" fill="rgb(16.99999999999994,16.99999999999994,16.99999999999994)"/>
<rect x="30" y="40" width="10" height="10" fill="rgb(50.99999999999995,50.99999999999995,50.99999999999995)"/>
<rect x="30" y="50" width="10" height="10" fill="rgb(84.99999999999996,84.99999999999996,84.99999999999996)"/>
<rect x="30" y="60" width="10" height="10" fill="rgb(118.99999999999996,118.99999999999996,118.99999999999996)"/>
<rect x="30" y="70" width="10" height="10" fill="rgb(152.99999999999997,152.99999999999997,152.99999999999997)"/>
<rect x="30" y="80" width="10" height="10" fill="rgb(186.99999999999997,186.99999999999997,186.99999999999997)"/>
<rect x="30" y="90" width="10" height="10" fill="rgb(220.99999999999997,220.99999999999997,220.99999999999997)"/>
<rect x="40" y="0" width="10" height="10" fill="rgb(204,204,204)"/>
<rect x="40" y="10" width="10" height="10" fill="rgb(153,153,153)"/>
<rect x="40" y="20" width="10" height="10" fill="rgb(101.99999999999997,101.99999999999997,101.99999999999997)"/>
<rect x="40" y="30" width="10" height="10" fill="rgb(50.999999999999986,50.999999999999986,50.999999999999986)"/>
<rect x="40" y="40" width="10" height="10" fill="rgb(0,0,0)"/>
<rect x="40" y="50" width="10" height="10" fill="rgb(42.49999999999996,42.49999999999996,42.49999999999996)"/>
<rect x="40" y="60" width="10" height="10" fill="rgb(84.99999999999997,84.99999999999997,84.99999999999997)"/>
<rect x="40" y="70" width="10" height="10" fill="rgb(127.49999999999999,127.49999999999999,127.49999999999999)"/>
<rect x="40" y="80" width="10" height="10" fill="rgb(170,170,170)"/>
<rect x="40" y="90" width="10" height="10" fill="rgb(212.5,212.5,212.5)"/>
<rect x="50" y="0" width="10" height="10" fill="rgb(212.5,212.5,212.5)"/>
<rect x="50" y="10" width="10" height="10" fill="rgb(170,170,170)"/>
<rect x="50" y="20" width="10" height="10" fill="rgb(127.50000000000001,127.50000000000001,127.50000000000001)"/>
<rect x="50" y="30" width="10" height="10" fill="rgb(84.99999999999996,84.99999999999996,84.99999999999996)"/>
<rect x="50" y="40" width="10" height="10" fill="rgb(42.49999999999996,42.49999999999996,42.49999999999996)"/>
<rect x="50" y="50" width="10" height="10" fill="rgb(4.152234112098085e-14,4.152234112098085e-14,4.152234112098085e-14)"/>
<rect x="50" y="60" width="10" height="10" fill="rgb(50.999999999999986,50.999999999999986,50.999999999999986)"/>
<rect x="50" y="70" width="10" height="10" fill="rgb(102,102,102)"/>
<rect x="50" y="80" width="10" height="10" fill="rgb(153,153,153)"/>
<rect x="50" y="90" width="10" height="10" fill="rgb(204,204,204)"/>
<rect x="60" y="0" width="10" height="10" fill="rgb(220.99999999999997,220.99999999999997,220.99999999999997)"/>
<rect x="60" y="10" width="10" height="10" fill="rgb(187,187,187)"/>
<rect x="60" y="20" width="10" height="10" fill="rgb(153,153,153)"/>
<rect x="60" y="30" width="10" height="10" fill="rgb(119,119,119)"/>
<rect x="60" y="40" width="10" height="10" fill="rgb(85,85,85)"/>
<rect x="60" y="50" width="10" height="10" fill="rgb(51.00000000000003,51.00000000000003,51.00000000000003)"/>
<rect x="60" y="60" width="10" height="10" fill="rgb(17.000000000000064,17.000000000000064,17.000000000000064)"/>
<rect x="60" y="70" width="10" height="10" fill="rgb(76.50000000000004,76.50000000000004,76.50000000000004)"/>
<rect x="60" y="80" width="10" height="10" fill="rgb(136.00000000000003,136.00000000000003,136.00000000000003)"/>
<rect x="60" y="90" width="10" height="10" fill="rgb(195.5,195.5,195.5)"/>
<rect x="70" y="0" width="10" height="10" fill="rgb(229.5,229.5,229.5)"/>
<rect x="70" y="10" width="10" height="10" fill="rgb(204,204,204)"/>
<rect x="70" y="20" width="10" height="10" fill="rgb(178.50000000000003,178.50000000000003,178.50000000000003)"/>
<rect x="70" y="30" width="10" height="10" fill="rgb(153,153,153)"/>
<rect x="70" y="40" width="10" height="10" fill="rgb(127.50000000000001,127.50000000000001,127.50000000000001)"/>
<rect x="70" y="50" width="10" height="10" fill="rgb(102.00000000000004,102.00000000000004,102.00000000000004)"/>
<rect x="70" y="60" width="10" height="10" fill="rgb(76.50000000000004,76.50000000000004,76.50000000000004)"/>
<rect x="70" y="70" width="10" height="10" fill="rgb(51.00000000000003,51.00000000000003,51.00000000000003)"/>
<rect x="70" y="80" width="10" height="10" fill="rgb(119.00000000000003,119.00000000000003,119.00000000000003)"/>
<rect x="70" y="90" width="10" height="10" fill="rgb(187,187,187)"/>
<rect x="80" y="0" width="10" height="10" fill="rgb(238,238,238)"/>
<rect x="80" y="10" width="10" height="10" fill="rgb(221.00000000000003,221.00000000000003,221.00000000000003)"/>
<rect x="80" y="20" width="10" height="10" fill="rgb(204,204,204)"/>
<rect x="80" y="30" width="10" height="10" fill="rgb(186.99999999999997,186.99999999999997,186.99999999999997)"/>
<rect x="80" y="40" width="10" height="10" fill="rgb(170,170,170)"/>
<rect x="80" y="50" width="10" height="10" fill="rgb(153.00000000000003,153.00000000000003,153.00000000000003)"/>
<rect x="80" y="60" width="10" height="10" fill="rgb(136.00000000000003,136.00000000000003,136.00000000000003)"/>
<rect x="80" y="70" width="10" height="10" fill="rgb(119.00000000000004,119.00000000000004,119.00000000000004)"/>
<rect x="80" y="80" width="10" height="10" fill="rgb(102.00000000000004,102.00000000000004,102.00000000000004)"/>
<rect x="80" y="90" width="10" height="10" fill="rgb(178.50000000000003,178.50000000000003,178.50000000000003)"/>
<rect x="90" y="0" width="10" height="10" fill="rgb(246.5,246.5,246.5)"/>
<rect x="90" y="10" width="10" height="10" fill="rgb(238,238,238)"/>
<rect x="90" y="20" width="10" height="10" fill="rgb(229.5,229.5,229.5)"/>
<rect x="90" y="30" width="10" height="10" fill="rgb(220.99999999999997,220.99999999999997,220.99999999999997)"/>
<rect x="90" y="40" width="10" height="10" fill="rgb(212.5,212.5,212.5)"/>
<rect x="90" y="50" width="10" height="10" fill="rgb(204,204,204)"/>
<rect x="90" y="60" width="10" height="10" fill="rgb(195.5,195.5,195.5)"/>
<rect x="90" y="70" width="10" height="10" fill="rgb(187,187,187)"/>
<rect x="90" y="80" width="10" height="10" fill="rgb(178.5,178.5,178.5)"/>
<rect x="90" y="90" width="10" height="10" fill="rgb(170,170,170)"/>
</g>
</svg>