<?xml version="1.0" encoding="UTF-8" standalone="no"?>
<!DOCTYPE svg PUBLIC "-//W3C//DTD SVG 1.1//EN"
 "http://www.w3.org/Graphics/SVG/1.1/DTD/svg11.dtd">
<!-- Generated by graphviz version 12.0.0 (0)
 -->
<!-- Pages: 1 -->
<svg width="87pt" height="52pt"
 viewBox="0.00 0.00 87.00 51.95" xmlns="http://www.w3.org/2000/svg" xmlns:xlink="http://www.w3.org/1999/xlink">
<g id="graph0" class="graph" transform="scale(0.154255 0.154255) rotate(0) translate(4 332.8)">
<!-- 1 -->
<g id="node1" class="node">
<title>1</title>
<polygon fill="none" stroke="black" points="133,-328.8 54,-328.8 54,-304 133,-304 133,-328.8"/>
<text text-anchor="middle" x="93.5" y="-312.2" font-family="Times,serif" font-size="14.00">987654321</text>
</g>
<!-- 2 -->
<g id="node2" class="node">
<title>2</title>
<polygon fill="none" stroke="black" points="23,-268 0,-268 0,-243.2 23,-243.2 23,-268"/>
<text text-anchor="middle" x="11.5" y="-251.4" font-family="Times,serif" font-size="14.00">2</text>
</g>
<!-- 1&#45;&gt;2 -->
<g id="edge1" class="edge">
<title>1&#45;&gt;2</title>
<path fill="none" stroke="black" stroke-width="0.75" d="M76.91,-303.5C62.74,-293.34 42.45,-278.79 28.24,-268.6"/>
<polygon fill="black" stroke="black" stroke-width="0.75" points="29.3,-267.21 24.22,-265.72 27.26,-270.06 29.3,-267.21"/>
</g>
<!-- 4 -->
<g id="node4" class="node">
<title>4</title>
<polygon fill="none" stroke="black" points="64,-268 41,-268 41,-243.2 64,-243.2 64,-268"/>
<text text-anchor="middle" x="52.5" y="-251.4" font-family="Times,serif" font-size="14.00">2</text>
</g>
<!-- 1&#45;&gt;4 -->
<g id="edge2" class="edge">
<title>1&#45;&gt;4</title>
<path fill="none" stroke="black" stroke-width="0.75" d="M85.2,-303.5C79.15,-294.81 70.85,-282.92 64.13,-273.29"/>
<polygon fill="black" stroke="black" stroke-width="0.75" points="65.73,-272.51 61.43,-269.41 62.86,-274.51 65.73,-272.51"/>
</g>
<!-- 6 -->
<g id="node6" class="node">
<title>6</title>
<polygon fill="none" stroke="black" points="105,-268 82,-268 82,-243.2 105,-243.2 105,-268"/>
<text text-anchor="middle" x="93.5" y="-251.4" font-family="Times,serif" font-size="14.00">7</text>
</g>
<!-- 1&#45;&gt;6 -->
<g id="edge3" class="edge">
<title>1&#45;&gt;6</title>
<path fill="none" stroke="black" stroke-width="0.75" d="M93.5,-303.5C93.5,-295.13 93.5,-283.79 93.5,-274.36"/>
<polygon fill="black" stroke="black" stroke-width="0.75" points="95.25,-274.62 93.5,-269.62 91.75,-274.62 95.25,-274.62"/>
</g>
<!-- 10 -->
<g id="node10" class="node">
<title>10</title>
<polygon fill="none" stroke="black" points="146,-268 123,-268 123,-243.2 146,-243.2 146,-268"/>
<text text-anchor="middle" x="134.5" y="-251.4" font-family="Times,serif" font-size="14.00">7</text>
</g>
<!-- 1&#45;&gt;10 -->
<g id="edge4" class="edge">
<title>1&#45;&gt;10</title>
<path fill="none" stroke="black" stroke-width="0.75" d="M101.8,-303.5C107.85,-294.81 116.15,-282.92 122.87,-273.29"/>
<polygon fill="black" stroke="black" stroke-width="0.75" points="124.14,-274.51 125.57,-269.41 121.27,-272.51 124.14,-274.51"/>
</g>
<!-- 14 -->
<g id="node14" class="node">
<title>14</title>
<polygon fill="none" stroke="black" points="310,-268 259,-268 259,-243.2 310,-243.2 310,-268"/>
<text text-anchor="middle" x="284.5" y="-251.4" font-family="Times,serif" font-size="14.00">32277</text>
</g>
<!-- 1&#45;&gt;14 -->
<g id="edge5" class="edge">
<title>1&#45;&gt;14</title>
<path fill="none" stroke="black" stroke-width="0.75" d="M132.15,-303.5C167.8,-292.52 220.08,-276.43 253.19,-266.24"/>
<polygon fill="black" stroke="black" stroke-width="0.75" points="253.39,-268.01 257.65,-264.87 252.36,-264.66 253.39,-268.01"/>
</g>
<!-- 3 -->
<g id="node3" class="node">
<title>3</title>
<polygon fill="none" stroke="black" points="23,-207.2 0,-207.2 0,-182.4 23,-182.4 23,-207.2"/>
<text text-anchor="middle" x="11.5" y="-190.6" font-family="Times,serif" font-size="14.00">1</text>
</g>
<!-- 2&#45;&gt;3 -->
<g id="edge6" class="edge">
<title>2&#45;&gt;3</title>
<path fill="none" stroke="black" stroke-width="0.75" d="M11.5,-242.7C11.5,-234.33 11.5,-222.99 11.5,-213.56"/>
<polygon fill="black" stroke="black" stroke-width="0.75" points="13.25,-213.82 11.5,-208.82 9.75,-213.82 13.25,-213.82"/>
</g>
<!-- 5 -->
<g id="node5" class="node">
<title>5</title>
<polygon fill="none" stroke="black" points="64,-207.2 41,-207.2 41,-182.4 64,-182.4 64,-207.2"/>
<text text-anchor="middle" x="52.5" y="-190.6" font-family="Times,serif" font-size="14.00">1</text>
</g>
<!-- 4&#45;&gt;5 -->
<g id="edge7" class="edge">
<title>4&#45;&gt;5</title>
<path fill="none" stroke="black" stroke-width="0.75" d="M52.5,-242.7C52.5,-234.33 52.5,-222.99 52.5,-213.56"/>
<polygon fill="black" stroke="black" stroke-width="0.75" points="54.25,-213.82 52.5,-208.82 50.75,-213.82 54.25,-213.82"/>
</g>
<!-- 7 -->
<g id="node7" class="node">
<title>7</title>
<polygon fill="none" stroke="black" points="105,-207.2 82,-207.2 82,-182.4 105,-182.4 105,-207.2"/>
<text text-anchor="middle" x="93.5" y="-190.6" font-family="Times,serif" font-size="14.00">4</text>
</g>
<!-- 6&#45;&gt;7 -->
<g id="edge8" class="edge">
<title>6&#45;&gt;7</title>
<path fill="none" stroke="black" stroke-width="0.75" d="M93.5,-242.7C93.5,-234.33 93.5,-222.99 93.5,-213.56"/>
<polygon fill="black" stroke="black" stroke-width="0.75" points="95.25,-213.82 93.5,-208.82 91.75,-213.82 95.25,-213.82"/>
</g>
<!-- 8 -->
<g id="node8" class="node">
<title>8</title>
<polygon fill="none" stroke="black" points="64,-146.4 41,-146.4 41,-121.6 64,-121.6 64,-146.4"/>
<text text-anchor="middle" x="52.5" y="-129.8" font-family="Times,serif" font-size="14.00">1</text>
</g>
<!-- 7&#45;&gt;8 -->
<g id="edge9" class="edge">
<title>7&#45;&gt;8</title>
<path fill="none" stroke="black" stroke-width="0.75" d="M85.2,-181.9C79.15,-173.21 70.85,-161.32 64.13,-151.69"/>
<polygon fill="black" stroke="black" stroke-width="0.75" points="65.73,-150.91 61.43,-147.81 62.86,-152.91 65.73,-150.91"/>
</g>
<!-- 9 -->
<g id="node9" class="node">
<title>9</title>
<polygon fill="none" stroke="black" points="105,-146.4 82,-146.4 82,-121.6 105,-121.6 105,-146.4"/>
<text text-anchor="middle" x="93.5" y="-129.8" font-family="Times,serif" font-size="14.00">1</text>
</g>
<!-- 7&#45;&gt;9 -->
<g id="edge10" class="edge">
<title>7&#45;&gt;9</title>
<path fill="none" stroke="black" stroke-width="0.75" d="M93.5,-181.9C93.5,-173.53 93.5,-162.19 93.5,-152.76"/>
<polygon fill="black" stroke="black" stroke-width="0.75" points="95.25,-153.02 93.5,-148.02 91.75,-153.02 95.25,-153.02"/>
</g>
<!-- 11 -->
<g id="node11" class="node">
<title>11</title>
<polygon fill="none" stroke="black" points="146,-207.2 123,-207.2 123,-182.4 146,-182.4 146,-207.2"/>
<text text-anchor="middle" x="134.5" y="-190.6" font-family="Times,serif" font-size="14.00">4</text>
</g>
<!-- 10&#45;&gt;11 -->
<g id="edge11" class="edge">
<title>10&#45;&gt;11</title>
<path fill="none" stroke="black" stroke-width="0.75" d="M134.5,-242.7C134.5,-234.33 134.5,-222.99 134.5,-213.56"/>
<polygon fill="black" stroke="black" stroke-width="0.75" points="136.25,-213.82 134.5,-208.82 132.75,-213.82 136.25,-213.82"/>
</g>
<!-- 12 -->
<g id="node12" class="node">
<title>12</title>
<polygon fill="none" stroke="black" points="146,-146.4 123,-146.4 123,-121.6 146,-121.6 146,-146.4"/>
<text text-anchor="middle" x="134.5" y="-129.8" font-family="Times,serif" font-size="14.00">1</text>
</g>
<!-- 11&#45;&gt;12 -->
<g id="edge12" class="edge">
<title>11&#45;&gt;12</title>
<path fill="none" stroke="black" stroke-width="0.75" d="M134.5,-181.9C134.5,-173.53 134.5,-162.19 134.5,-152.76"/>
<polygon fill="black" stroke="black" stroke-width="0.75" points="136.25,-153.02 134.5,-148.02 132.75,-153.02 136.25,-153.02"/>
</g>
<!-- 13 -->
<g id="node13" class="node">
<title>13</title>
<polygon fill="none" stroke="black" points="187,-146.4 164,-146.4 164,-121.6 187,-121.6 187,-146.4"/>
<text text-anchor="middle" x="175.5" y="-129.8" font-family="Times,serif" font-size="14.00">1</text>
</g>
<!-- 11&#45;&gt;13 -->
<g id="edge13" class="edge">
<title>11&#45;&gt;13</title>
<path fill="none" stroke="black" stroke-width="0.75" d="M142.8,-181.9C148.85,-173.21 157.15,-161.32 163.87,-151.69"/>
<polygon fill="black" stroke="black" stroke-width="0.75" points="165.14,-152.91 166.57,-147.81 162.27,-150.91 165.14,-152.91"/>
</g>
<!-- 15 -->
<g id="node15" class="node">
<title>15</title>
<polygon fill="none" stroke="black" points="237,-207.2 214,-207.2 214,-182.4 237,-182.4 237,-207.2"/>
<text text-anchor="middle" x="225.5" y="-190.6" font-family="Times,serif" font-size="14.00">2</text>
</g>
<!-- 14&#45;&gt;15 -->
<g id="edge14" class="edge">
<title>14&#45;&gt;15</title>
<path fill="none" stroke="black" stroke-width="0.75" d="M272.56,-242.7C263.68,-233.85 251.47,-221.68 241.71,-211.96"/>
<polygon fill="black" stroke="black" stroke-width="0.75" points="243,-210.77 238.23,-208.48 240.53,-213.25 243,-210.77"/>
</g>
<!-- 17 -->
<g id="node17" class="node">
<title>17</title>
<polygon fill="none" stroke="black" points="296,-207.2 273,-207.2 273,-182.4 296,-182.4 296,-207.2"/>
<text text-anchor="middle" x="284.5" y="-190.6" font-family="Times,serif" font-size="14.00">4</text>
</g>
<!-- 14&#45;&gt;17 -->
<g id="edge15" class="edge">
<title>14&#45;&gt;17</title>
<path fill="none" stroke="black" stroke-width="0.75" d="M284.5,-242.7C284.5,-234.33 284.5,-222.99 284.5,-213.56"/>
<polygon fill="black" stroke="black" stroke-width="0.75" points="286.25,-213.82 284.5,-208.82 282.75,-213.82 286.25,-213.82"/>
</g>
<!-- 20 -->
<g id="node20" class="node">
<title>20</title>
<polygon fill="none" stroke="black" points="354.5,-207.2 324.5,-207.2 324.5,-182.4 354.5,-182.4 354.5,-207.2"/>
<text text-anchor="middle" x="339.5" y="-190.6" font-family="Times,serif" font-size="14.00">10</text>
</g>
<!-- 14&#45;&gt;20 -->
<g id="edge16" class="edge">
<title>14&#45;&gt;20</title>
<path fill="none" stroke="black" stroke-width="0.75" d="M295.63,-242.7C303.9,-233.85 315.29,-221.68 324.39,-211.96"/>
<polygon fill="black" stroke="black" stroke-width="0.75" points="325.47,-213.36 327.61,-208.51 322.92,-210.97 325.47,-213.36"/>
</g>
<!-- 25 -->
<g id="node25" class="node">
<title>25</title>
<polygon fill="none" stroke="black" points="477.5,-207.2 447.5,-207.2 447.5,-182.4 477.5,-182.4 477.5,-207.2"/>
<text text-anchor="middle" x="462.5" y="-190.6" font-family="Times,serif" font-size="14.00">16</text>
</g>
<!-- 14&#45;&gt;25 -->
<g id="edge17" class="edge">
<title>14&#45;&gt;25</title>
<path fill="none" stroke="black" stroke-width="0.75" d="M310.38,-246.05C345.78,-234.36 408.63,-213.59 441.36,-202.78"/>
<polygon fill="black" stroke="black" stroke-width="0.75" points="441.83,-204.47 446.03,-201.24 440.74,-201.15 441.83,-204.47"/>
</g>
<!-- 16 -->
<g id="node16" class="node">
<title>16</title>
<polygon fill="none" stroke="black" points="228,-146.4 205,-146.4 205,-121.6 228,-121.6 228,-146.4"/>
<text text-anchor="middle" x="216.5" y="-129.8" font-family="Times,serif" font-size="14.00">1</text>
</g>
<!-- 15&#45;&gt;16 -->
<g id="edge18" class="edge">
<title>15&#45;&gt;16</title>
<path fill="none" stroke="black" stroke-width="0.75" d="M223.68,-181.9C222.4,-173.53 220.66,-162.19 219.22,-152.76"/>
<polygon fill="black" stroke="black" stroke-width="0.75" points="220.98,-152.68 218.49,-148 217.52,-153.21 220.98,-152.68"/>
</g>
<!-- 18 -->
<g id="node18" class="node">
<title>18</title>
<polygon fill="none" stroke="black" points="269,-146.4 246,-146.4 246,-121.6 269,-121.6 269,-146.4"/>
<text text-anchor="middle" x="257.5" y="-129.8" font-family="Times,serif" font-size="14.00">1</text>
</g>
<!-- 17&#45;&gt;18 -->
<g id="edge19" class="edge">
<title>17&#45;&gt;18</title>
<path fill="none" stroke="black" stroke-width="0.75" d="M279.04,-181.9C275.12,-173.37 269.79,-161.76 265.41,-152.22"/>
<polygon fill="black" stroke="black" stroke-width="0.75" points="267.11,-151.73 263.43,-147.91 263.93,-153.19 267.11,-151.73"/>
</g>
<!-- 19 -->
<g id="node19" class="node">
<title>19</title>
<polygon fill="none" stroke="black" points="310,-146.4 287,-146.4 287,-121.6 310,-121.6 310,-146.4"/>
<text text-anchor="middle" x="298.5" y="-129.8" font-family="Times,serif" font-size="14.00">1</text>
</g>
<!-- 17&#45;&gt;19 -->
<g id="edge20" class="edge">
<title>17&#45;&gt;19</title>
<path fill="none" stroke="black" stroke-width="0.75" d="M287.33,-181.9C289.33,-173.53 292.03,-162.19 294.27,-152.76"/>
<polygon fill="black" stroke="black" stroke-width="0.75" points="295.95,-153.26 295.41,-147.99 292.55,-152.44 295.95,-153.26"/>
</g>
<!-- 21 -->
<g id="node21" class="node">
<title>21</title>
<polygon fill="none" stroke="black" points="351,-146.4 328,-146.4 328,-121.6 351,-121.6 351,-146.4"/>
<text text-anchor="middle" x="339.5" y="-129.8" font-family="Times,serif" font-size="14.00">1</text>
</g>
<!-- 20&#45;&gt;21 -->
<g id="edge21" class="edge">
<title>20&#45;&gt;21</title>
<path fill="none" stroke="black" stroke-width="0.75" d="M339.5,-181.9C339.5,-173.53 339.5,-162.19 339.5,-152.76"/>
<polygon fill="black" stroke="black" stroke-width="0.75" points="341.25,-153.02 339.5,-148.02 337.75,-153.02 341.25,-153.02"/>
</g>
<!-- 22 -->
<g id="node22" class="node">
<title>22</title>
<polygon fill="none" stroke="black" points="392,-146.4 369,-146.4 369,-121.6 392,-121.6 392,-146.4"/>
<text text-anchor="middle" x="380.5" y="-129.8" font-family="Times,serif" font-size="14.00">3</text>
</g>
<!-- 20&#45;&gt;22 -->
<g id="edge22" class="edge">
<title>20&#45;&gt;22</title>
<path fill="none" stroke="black" stroke-width="0.75" d="M347.8,-181.9C353.85,-173.21 362.15,-161.32 368.87,-151.69"/>
<polygon fill="black" stroke="black" stroke-width="0.75" points="370.14,-152.91 371.57,-147.81 367.27,-150.91 370.14,-152.91"/>
</g>
<!-- 23 -->
<g id="node23" class="node">
<title>23</title>
<polygon fill="none" stroke="black" points="392,-85.6 369,-85.6 369,-60.8 392,-60.8 392,-85.6"/>
<text text-anchor="middle" x="380.5" y="-69" font-family="Times,serif" font-size="14.00">2</text>
</g>
<!-- 22&#45;&gt;23 -->
<g id="edge23" class="edge">
<title>22&#45;&gt;23</title>
<path fill="none" stroke="black" stroke-width="0.75" d="M380.5,-121.1C380.5,-112.73 380.5,-101.39 380.5,-91.96"/>
<polygon fill="black" stroke="black" stroke-width="0.75" points="382.25,-92.22 380.5,-87.22 378.75,-92.22 382.25,-92.22"/>
</g>
<!-- 24 -->
<g id="node24" class="node">
<title>24</title>
<polygon fill="none" stroke="black" points="392,-24.8 369,-24.8 369,0 392,0 392,-24.8"/>
<text text-anchor="middle" x="380.5" y="-8.2" font-family="Times,serif" font-size="14.00">1</text>
</g>
<!-- 23&#45;&gt;24 -->
<g id="edge24" class="edge">
<title>23&#45;&gt;24</title>
<path fill="none" stroke="black" stroke-width="0.75" d="M380.5,-60.3C380.5,-51.93 380.5,-40.59 380.5,-31.16"/>
<polygon fill="black" stroke="black" stroke-width="0.75" points="382.25,-31.42 380.5,-26.42 378.75,-31.42 382.25,-31.42"/>
</g>
<!-- 26 -->
<g id="node26" class="node">
<title>26</title>
<polygon fill="none" stroke="black" points="433,-146.4 410,-146.4 410,-121.6 433,-121.6 433,-146.4"/>
<text text-anchor="middle" x="421.5" y="-129.8" font-family="Times,serif" font-size="14.00">1</text>
</g>
<!-- 25&#45;&gt;26 -->
<g id="edge25" class="edge">
<title>25&#45;&gt;26</title>
<path fill="none" stroke="black" stroke-width="0.75" d="M454.2,-181.9C448.15,-173.21 439.85,-161.32 433.13,-151.69"/>
<polygon fill="black" stroke="black" stroke-width="0.75" points="434.73,-150.91 430.43,-147.81 431.86,-152.91 434.73,-150.91"/>
</g>
<!-- 27 -->
<g id="node27" class="node">
<title>27</title>
<polygon fill="none" stroke="black" points="474,-146.4 451,-146.4 451,-121.6 474,-121.6 474,-146.4"/>
<text text-anchor="middle" x="462.5" y="-129.8" font-family="Times,serif" font-size="14.00">1</text>
</g>
<!-- 25&#45;&gt;27 -->
<g id="edge26" class="edge">
<title>25&#45;&gt;27</title>
<path fill="none" stroke="black" stroke-width="0.75" d="M462.5,-181.9C462.5,-173.53 462.5,-162.19 462.5,-152.76"/>
<polygon fill="black" stroke="black" stroke-width="0.75" points="464.25,-153.02 462.5,-148.02 460.75,-153.02 464.25,-153.02"/>
</g>
<!-- 28 -->
<g id="node28" class="node">
<title>28</title>
<polygon fill="none" stroke="black" points="515,-146.4 492,-146.4 492,-121.6 515,-121.6 515,-146.4"/>
<text text-anchor="middle" x="503.5" y="-129.8" font-family="Times,serif" font-size="14.00">1</text>
</g>
<!-- 25&#45;&gt;28 -->
<g id="edge27" class="edge">
<title>25&#45;&gt;28</title>
<path fill="none" stroke="black" stroke-width="0.75" d="M470.8,-181.9C476.85,-173.21 485.15,-161.32 491.87,-151.69"/>
<polygon fill="black" stroke="black" stroke-width="0.75" points="493.14,-152.91 494.57,-147.81 490.27,-150.91 493.14,-152.91"/>
</g>
<!-- 29 -->
<g id="node29" class="node">
<title>29</title>
<polygon fill="none" stroke="black" points="556,-146.4 533,-146.4 533,-121.6 556,-121.6 556,-146.4"/>
<text text-anchor="middle" x="544.5" y="-129.8" font-family="Times,serif" font-size="14.00">1</text>
</g>
<!-- 25&#45;&gt;29 -->
<g id="edge28" class="edge">
<title>25&#45;&gt;29</title>
<path fill="none" stroke="black" stroke-width="0.75" d="M477.92,-182.74C492.18,-172.52 513.3,-157.37 527.92,-146.89"/>
<polygon fill="black" stroke="black" stroke-width="0.75" points="528.64,-148.53 531.68,-144.19 526.6,-145.68 528.64,-148.53"/>
</g>
</g>
</svg>
