<svg xmlns="http://www.w3.org/2000/svg" width="161.8" height="100.0" viewBox="-2.90 -5.00 171.80 110.00">
<g fill="none" stroke="black" stroke-width="0.0300%" transform="translate(0, 100.0000) scale(16.6667, -16.6667)">

<line x1="0.25" y1="0.00" x2="0.25" y2="1.00" />
<line x1="0.38" y1="0.00" x2="0.38" y2="1.00" />
<line x1="0.50" y1="0.00" x2="0.50" y2="1.00" />

<line x1="0.76" y1="0.00" x2="0.76" y2="1.00" />
<line x1="0.88" y1="0.00" x2="0.88" y2="1.00" />
<line x1="1.01" y1="0.00" x2="1.01" y2="2.00" />
<line x1="1.13" y1="0.00" x2="1.13" y2="2.00" />
<line x1="1.26" y1="0.00" x2="1.26" y2="1.00" />
<line x1="1.39" y1="0.00" x2="1.39" y2="1.00" />
<line x1="1.51" y1="0.00" x2="1.51" y2="2.00" />

<line x1="1.77" y1="0.00" x2="1.77" y2="2.00" />
<line x1="1.89" y1="0.00" x2="1.89" y2="1.00" />
<line x1="2.02" y1="0.00" x2="2.02" y2="1.00" />
<line x1="2.14" y1="0.00" x2="2.14" y2="2.00" />
<line x1="2.27" y1="0.00" x2="2.27" y2="3.00" />
<line x1="2.40" y1="0.00" x2="2.40" y2="3.00" />
<line x1="2.52" y1="0.00" x2="2.52" y2="2.00" />
<line x1="2.65" y1="0.00" x2="2.65" y2="1.00" />
<line x1="2.77" y1="0.00" x2="2.77" y2="1.00" />
<line x1="2.90" y1="0.00" x2="2.90" y2="2.00" />
<line x1="3.03" y1="0.00" x2="3.03" y2="3.00" />

<line x1="3.28" y1="0.00" x2="3.28" y2="3.00" />
<line x1="3.40" y1="0.00" x2="3.40" y2="2.00" />
<line x1="3.53" y1="0.00" x2="3.53" y2="1.00" />
<line x1="3.66" y1="0.00" x2="3.66" y2="1.00" />
<line x1="3.78" y1="0.00" x2="3.78" y2="2.00" />
<line x1="3.91" y1="0.00" x2="3.91" y2="3.00" />
<line x1="4.03" y1="0.00" x2="4.03" y2="4.00" />
<line x1="4.16" y1="0.00" x2="4.16" y2="4.00" />
<line x1="4.29" y1="0.00" x2="4.29" y2="3.00" />
<line x1="4.41" y1="0.00" x2="4.41" y2="2.00" />
<line x1="4.54" y1="0.00" x2="4.54" y2="1.00" />
<line x1="4.66" y1="0.00" x2="4.66" y2="1.00" />
<line x1="4.79" y1="0.00" x2="4.79" y2="2.00" />
<line x1="4.92" y1="0.00" x2="4.92" y2="3.00" />
<line x1="5.04" y1="0.00" x2="5.04" y2="4.00" />

<line x1="5.30" y1="0.00" x2="5.30" y2="4.00" />
<line x1="5.42" y1="0.00" x2="5.42" y2="3.00" />
<line x1="5.55" y1="0.00" x2="5.55" y2="2.00" />
<line x1="5.67" y1="0.00" x2="5.67" y2="1.00" />
<line x1="5.80" y1="0.00" x2="5.80" y2="1.00" />
<line x1="5.93" y1="0.00" x2="5.93" y2="2.00" />
<line x1="6.05" y1="0.00" x2="6.05" y2="3.00" />
<line x1="6.18" y1="0.00" x2="6.18" y2="4.00" />
<line x1="6.30" y1="0.00" x2="6.30" y2="5.00" />
<line x1="6.43" y1="0.00" x2="6.43" y2="5.00" />
<line x1="6.56" y1="0.00" x2="6.56" y2="4.00" />
<line x1="6.68" y1="0.00" x2="6.68" y2="3.00" />
<line x1="6.81" y1="0.00" x2="6.81" y2="2.00" />
<line x1="6.93" y1="0.00" x2="6.93" y2="1.00" />
<line x1="7.06" y1="0.00" x2="7.06" y2="1.00" />
<line x1="7.19" y1="0.00" x2="7.19" y2="2.00" />
<line x1="7.31" y1="0.00" x2="7.31" y2="3.00" />
<line x1="7.44" y1="0.00" x2="7.44" y2="4.00" />
<line x1="7.56" y1="0.00" x2="7.56" y2="5.00" />

<line x1="7.82" y1="0.00" x2="7.82" y2="5.00" />
<line x1="7.94" y1="0.00" x2="7.94" y2="4.00" />
<line x1="8.07" y1="0.00" x2="8.07" y2="3.00" />
<line x1="8.20" y1="0.00" x2="8.20" y2="2.00" />
<line x1="8.32" y1="0.00" x2="8.32" y2="1.00" />
<line x1="8.45" y1="0.00" x2="8.45" y2="1.00" />
<line x1="8.57" y1="0.00" x2="8.57" y2="2.00" />
<line x1="8.70" y1="0.00" x2="8.70" y2="3.00" />
<line x1="8.83" y1="0.00" x2="8.83" y2="4.00" />
<line x1="8.95" y1="0.00" x2="8.95" y2="5.00" />
<line x1="9.08" y1="0.00" x2="9.08" y2="6.00" />
<line x1="9.20" y1="0.00" x2="9.20" y2="6.00" />
<line x1="9.33" y1="0.00" x2="9.33" y2="5.00" />
<line x1="9.46" y1="0.00" x2="9.46" y2="4.00" />
<line x1="9.58" y1="0.00" x2="9.58" y2="3.00" />
<line x1="9.71" y1="0.00" x2="9.71" y2="2.00" />
<line x1="9.83" y1="0.00" x2="9.83" y2="1.00" />
</g>
</svg>