<svg xmlns="http://www.w3.org/2000/svg" width="161.8" height="100.0" viewBox="-3.91 13.18 171.80 110.00">
<g fill="none" stroke="black" stroke-width="0.0550%" transform="translate(0, 136.3636) scale(9.0909, -9.0909)">
<polyline points="0.12,2.00 0.24,2.00 0.24,2.00 0.36,2.00 0.36,2.00 0.48,2.00 0.48,2.00 0.60,2.00 0.60,3.00 0.72,3.00 0.72,2.00 0.84,2.00 0.84,3.00 0.96,3.00 0.96,3.00 1.08,3.00 1.08,3.00 1.20,3.00 1.20,3.00 1.32,3.00 1.32,3.00 1.44,3.00 1.44,3.00 1.56,3.00 1.56,3.00 1.68,3.00 1.68,3.00 1.80,3.00 1.80,3.00 1.92,3.00 1.92,3.00 2.04,3.00 2.04,3.00 2.16,3.00 2.16,3.00 2.28,3.00 2.28,5.00 2.41,5.00 2.41,5.00 2.53,5.00 2.53,5.00 2.65,5.00 2.65,5.00 2.77,5.00 2.77,5.00 2.89,5.00 2.89,5.00 3.01,5.00 3.01,5.00 3.13,5.00 3.13,5.00 3.25,5.00 3.25,5.00 3.37,5.00 3.37,5.00 3.49,5.00 3.49,5.00 3.61,5.00 3.61,5.00 3.73,5.00 3.73,5.00 3.85,5.00 3.85,5.00 3.97,5.00 3.97,5.00 4.09,5.00 4.09,5.00 4.21,5.00 4.21,5.00 4.33,5.00 4.33,5.00 4.45,5.00 4.45,5.00 4.57,5.00 4.57,5.00 4.69,5.00 4.69,5.00 4.81,5.00 4.81,5.00 4.93,5.00 4.93,7.00 5.05,7.00 5.05,7.00 5.17,7.00 5.17,7.00 5.29,7.00 5.29,7.00 5.41,7.00 5.41,7.00 5.53,7.00 5.53,7.00 5.65,7.00 5.65,7.00 5.77,7.00 5.77,7.00 5.89,7.00 5.89,7.00 6.01,7.00 6.01,7.00 6.13,7.00 6.13,7.00 6.25,7.00 6.25,7.00 6.37,7.00 6.37,7.00 6.49,7.00 6.49,7.00 6.61,7.00 6.61,7.00 6.73,7.00 6.73,7.00 6.85,7.00 6.85,7.00 6.98,7.00 6.98,7.00 7.10,7.00 7.10,7.00 7.22,7.00 7.22,7.00 7.34,7.00 7.34,7.00 7.46,7.00 7.46,7.00 7.58,7.00 7.58,7.00 7.70,7.00 7.70,7.00 7.82,7.00 7.82,7.00 7.94,7.00 7.94,7.00 8.06,7.00 8.06,7.00 8.18,7.00 8.18,7.00 8.30,7.00 8.30,7.00 8.42,7.00 8.42,7.00 8.54,7.00 8.54,7.00 8.66,7.00 8.66,7.00 8.78,7.00 8.78,7.00 8.90,7.00 8.90,7.00 9.02,7.00 9.02,7.00 9.14,7.00 9.14,7.00 9.26,7.00 9.26,11.00 9.38,11.00 9.38,7.00 9.50,7.00 9.50,7.00 9.62,7.00 9.62,7.00 9.74,7.00 9.74,11.00 9.86,11.00 9.86,7.00 9.98,7.00 9.98,11.00 10.10,11.00 10.10,11.00 10.22,11.00 10.22,11.00 10.34,11.00 10.34,11.00 10.46,11.00 10.46,11.00 10.58,11.00 10.58,11.00 10.70,11.00 10.70,11.00 10.82,11.00 10.82,11.00 10.94,11.00 10.94,11.00 11.06,11.00 11.06,11.00 11.18,11.00 11.18,11.00 11.30,11.00 11.30,11.00 11.42,11.00 11.42,11.00 11.54,11.00 11.54,11.00 11.67,11.00 11.67,11.00 11.79,11.00 11.79,11.00 11.91,11.00 11.91,11.00 12.03,11.00 12.03,11.00 12.15,11.00 12.15,11.00 12.27,11.00 12.27,11.00 12.39,11.00 12.39,11.00 12.51,11.00 12.51,11.00 12.63,11.00 12.63,11.00 12.75,11.00 12.75,11.00 12.87,11.00 12.87,11.00 12.99,11.00 12.99,11.00 13.11,11.00 13.11,11.00 13.23,11.00 13.23,11.00 13.35,11.00 13.35,11.00 13.47,11.00 13.47,11.00 13.59,11.00 13.59,11.00 13.71,11.00 13.71,11.00 13.83,11.00 13.83,11.00 13.95,11.00 13.95,11.00 14.07,11.00 14.07,13.00 14.19,13.00 14.19,11.00 14.31,11.00 14.31,11.00 14.43,11.00 14.43,11.00 14.55,11.00 14.55,13.00 14.67,13.00 14.67,13.00 14.79,13.00 14.79,13.00 14.91,13.00 14.91,11.00 15.03,11.00 15.03,13.00 15.15,13.00 15.15,11.00 15.27,11.00 15.27,13.00 15.39,13.00 15.39,13.00 15.51,13.00 15.51,13.00 15.63,13.00 15.63,13.00 15.75,13.00 15.75,13.00 15.87,13.00 15.87,13.00 15.99,13.00 15.99,13.00 16.11,13.00 16.11,13.00 16.24,13.00 16.24,13.00 16.36,13.00 16.36,13.00 16.48,13.00 16.48,13.00 16.60,13.00 16.60,13.00 16.72,13.00 16.72,13.00 16.84,13.00 16.84,13.00 16.96,13.00 16.96,13.00 17.08,13.00 17.08,13.00 17.20,13.00 17.20,13.00 17.32,13.00 17.32,13.00 17.44,13.00 17.44,13.00 17.56,13.00 17.56,13.00 17.68,13.00 17.68,13.00 17.80,13.00 17.80,13.00 17.92,13.00" />
</g>
</svg>