<svg xmlns="http://www.w3.org/2000/svg" width="50.2" height="100.0" viewBox="-30.08 -55.00 60.16 110.00">
<g fill="none" stroke="black" stroke-width="0.0313%" transform="translate(0, 0.0000) scale(15.9678, -15.9678)">
<circle cx="-1.57" cy="-3.13" r="0.03" />
<circle cx="-1.37" cy="-3.13" r="0.03" />
<circle cx="-1.18" cy="-3.13" r="0.03" />
<circle cx="-0.98" cy="-3.13" r="0.03" />
<circle cx="-0.79" cy="-3.13" r="0.03" />
<circle cx="-0.59" cy="-3.13" r="0.03" />
<circle cx="-0.39" cy="-3.13" r="0.03" />
<circle cx="-0.20" cy="-3.13" r="0.03" />
<circle cx="0.00" cy="-3.13" r="0.03" />
<circle cx="0.20" cy="-3.13" r="0.03" />
<circle cx="0.39" cy="-3.13" r="0.03" />
<circle cx="0.59" cy="-3.13" r="0.03" />
<circle cx="0.79" cy="-3.13" r="0.03" />
<circle cx="0.98" cy="-3.13" r="0.03" />
<circle cx="1.18" cy="-3.13" r="0.03" />
<circle cx="1.37" cy="-3.13" r="0.03" />
<circle cx="1.57" cy="-3.13" r="0.03" />
<circle cx="-1.57" cy="-1.46" r="0.03" />
<circle cx="-1.37" cy="-1.46" r="0.03" />
<circle cx="-1.18" cy="-1.46" r="0.03" />
<circle cx="-0.98" cy="-1.46" r="0.03" />
<circle cx="-0.79" cy="-1.46" r="0.03" />
<circle cx="-0.59" cy="-1.46" r="0.03" />
<circle cx="-0.39" cy="-1.46" r="0.03" />
<circle cx="-0.20" cy="-1.46" r="0.03" />
<circle cx="0.00" cy="-1.46" r="0.03" />
<circle cx="0.20" cy="-1.46" r="0.03" />
<circle cx="0.39" cy="-1.46" r="0.03" />
<circle cx="0.59" cy="-1.46" r="0.03" />
<circle cx="0.79" cy="-1.46" r="0.03" />
<circle cx="0.98" cy="-1.46" r="0.03" />
<circle cx="1.18" cy="-1.46" r="0.03" />
<circle cx="1.37" cy="-1.46" r="0.03" />
<circle cx="1.57" cy="-1.46" r="0.03" />
<circle cx="-1.57" cy="-0.82" r="0.03" />
<circle cx="-1.37" cy="-0.82" r="0.03" />
<circle cx="-1.18" cy="-0.82" r="0.03" />
<circle cx="-0.98" cy="-0.82" r="0.03" />
<circle cx="-0.79" cy="-0.82" r="0.03" />
<circle cx="-0.59" cy="-0.82" r="0.03" />
<circle cx="-0.39" cy="-0.82" r="0.03" />
<circle cx="-0.20" cy="-0.82" r="0.03" />
<circle cx="0.00" cy="-0.82" r="0.03" />
<circle cx="0.20" cy="-0.82" r="0.03" />
<circle cx="0.39" cy="-0.82" r="0.03" />
<circle cx="0.59" cy="-0.82" r="0.03" />
<circle cx="0.79" cy="-0.82" r="0.03" />
<circle cx="0.98" cy="-0.82" r="0.03" />
<circle cx="1.18" cy="-0.82" r="0.03" />
<circle cx="1.37" cy="-0.82" r="0.03" />
<circle cx="1.57" cy="-0.82" r="0.03" />
<circle cx="-1.57" cy="-0.38" r="0.03" />
<circle cx="-1.37" cy="-0.38" r="0.03" />
<circle cx="-1.18" cy="-0.38" r="0.03" />
<circle cx="-0.98" cy="-0.38" r="0.03" />
<circle cx="-0.79" cy="-0.38" r="0.03" />
<circle cx="-0.59" cy="-0.38" r="0.03" />
<circle cx="-0.39" cy="-0.38" r="0.03" />
<circle cx="-0.20" cy="-0.38" r="0.03" />
<circle cx="0.00" cy="-0.38" r="0.03" />
<circle cx="0.20" cy="-0.38" r="0.03" />
<circle cx="0.39" cy="-0.38" r="0.03" />
<circle cx="0.59" cy="-0.38" r="0.03" />
<circle cx="0.79" cy="-0.38" r="0.03" />
<circle cx="0.98" cy="-0.38" r="0.03" />
<circle cx="1.18" cy="-0.38" r="0.03" />
<circle cx="1.37" cy="-0.38" r="0.03" />
<circle cx="1.57" cy="-0.38" r="0.03" />
<circle cx="-1.57" cy="0.00" r="0.03" />
<circle cx="-1.37" cy="0.00" r="0.03" />
<circle cx="-1.18" cy="0.00" r="0.03" />
<circle cx="-0.98" cy="0.00" r="0.03" />
<circle cx="-0.79" cy="0.00" r="0.03" />
<circle cx="-0.59" cy="0.00" r="0.03" />
<circle cx="-0.39" cy="0.00" r="0.03" />
<circle cx="-0.20" cy="0.00" r="0.03" />
<circle cx="0.00" cy="0.00" r="0.03" />
<circle cx="0.20" cy="0.00" r="0.03" />
<circle cx="0.39" cy="0.00" r="0.03" />
<circle cx="0.59" cy="0.00" r="0.03" />
<circle cx="0.79" cy="0.00" r="0.03" />
<circle cx="0.98" cy="0.00" r="0.03" />
<circle cx="1.18" cy="0.00" r="0.03" />
<circle cx="1.37" cy="0.00" r="0.03" />
<circle cx="1.57" cy="0.00" r="0.03" />
<circle cx="-1.57" cy="0.38" r="0.03" />
<circle cx="-1.37" cy="0.38" r="0.03" />
<circle cx="-1.18" cy="0.38" r="0.03" />
<circle cx="-0.98" cy="0.38" r="0.03" />
<circle cx="-0.79" cy="0.38" r="0.03" />
<circle cx="-0.59" cy="0.38" r="0.03" />
<circle cx="-0.39" cy="0.38" r="0.03" />
<circle cx="-0.20" cy="0.38" r="0.03" />
<circle cx="0.00" cy="0.38" r="0.03" />
<circle cx="0.20" cy="0.38" r="0.03" />
<circle cx="0.39" cy="0.38" r="0.03" />
<circle cx="0.59" cy="0.38" r="0.03" />
<circle cx="0.79" cy="0.38" r="0.03" />
<circle cx="0.98" cy="0.38" r="0.03" />
<circle cx="1.18" cy="0.38" r="0.03" />
<circle cx="1.37" cy="0.38" r="0.03" />
<circle cx="1.57" cy="0.38" r="0.03" />
<circle cx="-1.57" cy="0.82" r="0.03" />
<circle cx="-1.37" cy="0.82" r="0.03" />
<circle cx="-1.18" cy="0.82" r="0.03" />
<circle cx="-0.98" cy="0.82" r="0.03" />
<circle cx="-0.79" cy="0.82" r="0.03" />
<circle cx="-0.59" cy="0.82" r="0.03" />
<circle cx="-0.39" cy="0.82" r="0.03" />
<circle cx="-0.20" cy="0.82" r="0.03" />
<circle cx="0.00" cy="0.82" r="0.03" />
<circle cx="0.20" cy="0.82" r="0.03" />
<circle cx="0.39" cy="0.82" r="0.03" />
<circle cx="0.59" cy="0.82" r="0.03" />
<circle cx="0.79" cy="0.82" r="0.03" />
<circle cx="0.98" cy="0.82" r="0.03" />
<circle cx="1.18" cy="0.82" r="0.03" />
<circle cx="1.37" cy="0.82" r="0.03" />
<circle cx="1.57" cy="0.82" r="0.03" />
<circle cx="-1.57" cy="1.46" r="0.03" />
<circle cx="-1.37" cy="1.46" r="0.03" />
<circle cx="-1.18" cy="1.46" r="0.03" />
<circle cx="-0.98" cy="1.46" r="0.03" />
<circle cx="-0.79" cy="1.46" r="0.03" />
<circle cx="-0.59" cy="1.46" r="0.03" />
<circle cx="-0.39" cy="1.46" r="0.03" />
<circle cx="-0.20" cy="1.46" r="0.03" />
<circle cx="0.00" cy="1.46" r="0.03" />
<circle cx="0.20" cy="1.46" r="0.03" />
<circle cx="0.39" cy="1.46" r="0.03" />
<circle cx="0.59" cy="1.46" r="0.03" />
<circle cx="0.79" cy="1.46" r="0.03" />
<circle cx="0.98" cy="1.46" r="0.03" />
<circle cx="1.18" cy="1.46" r="0.03" />
<circle cx="1.37" cy="1.46" r="0.03" />
<circle cx="1.57" cy="1.46" r="0.03" />
<circle cx="-1.57" cy="3.13" r="0.03" />
<circle cx="-1.37" cy="3.13" r="0.03" />
<circle cx="-1.18" cy="3.13" r="0.03" />
<circle cx="-0.98" cy="3.13" r="0.03" />
<circle cx="-0.79" cy="3.13" r="0.03" />
<circle cx="-0.59" cy="3.13" r="0.03" />
<circle cx="-0.39" cy="3.13" r="0.03" />
<circle cx="-0.20" cy="3.13" r="0.03" />
<circle cx="0.00" cy="3.13" r="0.03" />
<circle cx="0.20" cy="3.13" r="0.03" />
<circle cx="0.39" cy="3.13" r="0.03" />
<circle cx="0.59" cy="3.13" r="0.03" />
<circle cx="0.79" cy="3.13" r="0.03" />
<circle cx="0.98" cy="3.13" r="0.03" />
<circle cx="1.18" cy="3.13" r="0.03" />
<circle cx="1.37" cy="3.13" r="0.03" />
<circle cx="1.57" cy="3.13" r="0.03" />
</g>
</svg>