<svg xmlns="http://www.w3.org/2000/svg" width="161.8" height="100.0" viewBox="-5.000 164.849 171.803 110.000">
<g fill="none" stroke="black" stroke-width="0.0051%" transform="translate(0, 439.6976) scale(97.6925, -97.6925)">
<circle cx="0.000" cy="2.762" r="0.005" />
<polyline points="0.000,2.000 0.017,2.047 0.033,2.115 0.050,2.113 0.066,2.095 0.083,2.083 0.099,2.049 0.116,1.908 0.133,1.892 0.149,1.923 0.166,1.943 0.182,1.860 0.199,1.820 0.215,1.820 0.232,1.924 0.248,2.024 0.265,2.066 0.282,1.939 0.298,1.982 0.315,2.044 0.331,2.035 0.348,2.054 0.364,2.140 0.381,2.174 0.398,2.101 0.414,2.151 0.431,2.180 0.447,2.100 0.464,2.111 0.480,2.190 0.497,2.348 0.513,2.473 0.530,2.531 0.547,2.496 0.563,2.365 0.580,2.382 0.596,2.212 0.613,2.245 0.629,2.262 0.646,2.199 0.663,2.262 0.679,2.245 0.696,2.300 0.712,2.324 0.729,2.317 0.745,2.278 0.762,2.239 0.778,2.203 0.795,2.238 0.812,2.320 0.828,2.345 0.845,2.386 0.861,2.343 0.878,2.583 0.894,2.623 0.911,2.584 0.928,2.512 0.944,2.555 0.961,2.473 0.977,2.497 0.994,2.483 1.010,2.529 1.027,2.530 1.043,2.626 1.060,2.762 1.077,2.754 1.093,2.730 1.110,2.728 1.126,2.686 1.143,2.587 1.159,2.570 1.176,2.516 1.193,2.442 1.209,2.447 1.226,2.298 1.242,2.355 1.259,2.442 1.275,2.442 1.292,2.325 1.308,2.456 1.325,2.385 1.342,2.332 1.358,2.217 1.375,2.140 1.391,2.119 1.408,2.058 1.424,1.930 1.441,1.904 1.458,1.834 1.474,1.741 1.491,1.739 1.507,1.763 1.524,1.892 1.540,2.006 1.557,2.019 1.573,1.967 1.590,1.960 1.607,1.898 1.623,1.936 1.640,1.968 1.656,1.863" />
</g>
</svg>