<svg xmlns="http://www.w3.org/2000/svg" width="99.5" height="100.0" viewBox="-54.75 -54.75 109.50 110.00">
<g fill="none" stroke="black" stroke-width="0.0201%" transform="translate(0, 0.5008) scale(24.8748, -24.8748)">
<circle cx="-2.00" cy="0.00" r="0.02" />
<circle cx="0.00" cy="2.02" r="0.02" />
<polyline points="-2.00,-2.00 -1.96,-1.82 -1.92,-1.78 -1.88,-1.76 -1.84,-1.73 -1.80,-1.71 -1.76,-1.69 -1.72,-1.64 -1.68,-1.62 -1.64,-1.61 -1.60,-1.59 -1.56,-1.57 -1.52,-1.55 -1.48,-1.45 -1.44,-1.43 -1.40,-1.41 -1.36,-1.39 -1.32,-1.38 -1.28,-1.36 -1.24,-1.31 -1.20,-1.29 -1.16,-1.27 -1.12,-1.24 -1.08,-1.22 -1.04,-1.18 -1.00,-0.98 -0.96,-0.82 -0.92,-0.78 -0.88,-0.76 -0.84,-0.73 -0.80,-0.71 -0.76,-0.69 -0.72,-0.64 -0.68,-0.62 -0.64,-0.61 -0.60,-0.59 -0.56,-0.57 -0.52,-0.55 -0.48,-0.45 -0.44,-0.43 -0.40,-0.41 -0.36,-0.39 -0.32,-0.38 -0.28,-0.36 -0.24,-0.31 -0.20,-0.29 -0.16,-0.27 -0.12,-0.24 -0.08,-0.22 -0.04,-0.18 0.00,0.02 0.04,0.18 0.08,0.22 0.12,0.24 0.16,0.27 0.20,0.29 0.24,0.31 0.28,0.36 0.32,0.38 0.36,0.39 0.40,0.41 0.44,0.43 0.48,0.45 0.52,0.55 0.56,0.57 0.60,0.59 0.64,0.61 0.68,0.62 0.72,0.64 0.76,0.69 0.80,0.71 0.84,0.73 0.88,0.76 0.92,0.78 0.96,0.82 1.00,1.02 1.04,1.18 1.08,1.22 1.12,1.24 1.16,1.27 1.20,1.29 1.24,1.31 1.28,1.36 1.32,1.38 1.36,1.39 1.40,1.41 1.44,1.43 1.48,1.45 1.52,1.55 1.56,1.57 1.60,1.59 1.64,1.61 1.68,1.62 1.72,1.64 1.76,1.69 1.80,1.71 1.84,1.73 1.88,1.76 1.92,1.78 1.96,1.82 2.00,2.02" />
</g>
</svg>