<svg xmlns="http://www.w3.org/2000/svg" width="142.3" height="100.0" viewBox="-5.00 -24.23 152.31 110.00">
<g fill="none" stroke="black" stroke-width="0.1300%" transform="translate(0, 61.5385) scale(3.8462, -3.8462)">
<polyline points="0.00,0.00 1.00,0.00 1.00,1.00 2.00,1.00 2.00,0.00 2.00,-1.00 3.00,-1.00 3.00,0.00 4.00,0.00 4.00,1.00 3.00,1.00 3.00,2.00 4.00,2.00 5.00,2.00 5.00,3.00 4.00,3.00 4.00,4.00 5.00,4.00 5.00,5.00 6.00,5.00 6.00,4.00 6.00,3.00 7.00,3.00 7.00,4.00 8.00,4.00 8.00,3.00 9.00,3.00 9.00,2.00 8.00,2.00 7.00,2.00 7.00,1.00 8.00,1.00 8.00,0.00 8.00,-1.00 9.00,-1.00 9.00,-2.00 8.00,-2.00 7.00,-2.00 7.00,-3.00 8.00,-3.00 8.00,-4.00 9.00,-4.00 9.00,-3.00 10.00,-3.00 10.00,-4.00 10.00,-5.00 11.00,-5.00 11.00,-4.00 12.00,-4.00 12.00,-3.00 11.00,-3.00 11.00,-2.00 12.00,-2.00 13.00,-2.00 13.00,-1.00 12.00,-1.00 12.00,0.00 13.00,0.00 13.00,1.00 14.00,1.00 14.00,0.00 14.00,-1.00 15.00,-1.00 15.00,0.00 16.00,0.00 16.00,1.00 15.00,1.00 15.00,2.00 16.00,2.00 17.00,2.00 17.00,3.00 16.00,3.00 16.00,4.00 15.00,4.00 15.00,3.00 14.00,3.00 14.00,4.00 14.00,5.00 13.00,5.00 13.00,4.00 12.00,4.00 12.00,5.00 11.00,5.00 11.00,6.00 12.00,6.00 13.00,6.00 13.00,7.00 12.00,7.00 12.00,8.00 13.00,8.00 13.00,9.00 14.00,9.00 14.00,8.00 14.00,7.00 15.00,7.00 15.00,8.00 16.00,8.00 17.00,8.00 17.00,9.00 18.00,9.00 18.00,8.00 18.00,7.00 19.00,7.00 19.00,8.00 20.00,8.00 20.00,9.00 19.00,9.00 19.00,10.00 20.00,10.00 21.00,10.00 21.00,11.00 20.00,11.00 20.00,12.00 19.00,12.00 19.00,11.00 18.00,11.00 18.00,12.00 18.00,13.00 17.00,13.00 17.00,12.00 16.00,12.00 16.00,13.00 15.00,13.00 15.00,14.00 16.00,14.00 17.00,14.00 17.00,15.00 16.00,15.00 16.00,16.00 17.00,16.00 17.00,17.00 18.00,17.00 18.00,16.00 18.00,15.00 19.00,15.00 19.00,16.00 20.00,16.00 20.00,17.00 19.00,17.00 19.00,18.00 20.00,18.00 21.00,18.00 21.00,19.00 20.00,19.00 20.00,20.00 21.00,20.00 21.00,21.00 22.00,21.00 22.00,20.00 22.00,19.00 23.00,19.00 23.00,20.00 24.00,20.00 24.00,19.00 25.00,19.00 25.00,18.00 24.00,18.00 23.00,18.00 23.00,17.00 24.00,17.00 24.00,16.00 24.00,15.00 25.00,15.00 25.00,14.00 24.00,14.00 23.00,14.00 23.00,13.00 24.00,13.00 24.00,12.00 25.00,12.00 25.00,13.00 26.00,13.00 26.00,12.00 26.00,11.00 27.00,11.00 27.00,12.00 28.00,12.00 28.00,13.00 27.00,13.00 27.00,14.00 28.00,14.00 29.00,14.00 29.00,15.00 28.00,15.00 28.00,16.00 29.00,16.00 29.00,17.00 30.00,17.00 30.00,16.00 30.00,15.00 31.00,15.00 31.00,16.00 32.00,16.00 32.00,15.00 33.00,15.00 33.00,14.00 32.00,14.00 31.00,14.00 31.00,13.00 32.00,13.00 32.00,12.00 33.00,12.00 33.00,13.00 34.00,13.00 34.00,12.00 34.00,11.00 35.00,11.00 35.00,12.00 36.00,12.00 36.00,11.00 37.00,11.00 37.00,10.00 36.00,10.00 35.00,10.00 35.00,9.00 36.00,9.00 36.00,8.00 35.00,8.00 35.00,7.00 34.00,7.00 34.00,8.00 34.00,9.00 33.00,9.00 33.00,8.00 32.00,8.00 31.00,8.00 31.00,7.00 30.00,7.00 30.00,8.00 30.00,9.00 29.00,9.00 29.00,8.00 28.00,8.00 28.00,7.00 29.00,7.00 29.00,6.00 28.00,6.00 27.00,6.00 27.00,5.00 28.00,5.00 28.00,4.00 29.00,4.00 29.00,5.00 30.00,5.00 30.00,4.00 30.00,3.00 31.00,3.00 31.00,4.00 32.00,4.00 32.00,3.00" />
</g>
</svg>