<svg xmlns="http://www.w3.org/2000/svg" width="161.8" height="100.0" viewBox="-3.07 -5.00 171.80 110.00">
<g fill="none" stroke="black" stroke-width="0.0850%" transform="translate(0, 100.0000) scale(5.8824, -5.8824)">

<line x1="0.65" y1="0.00" x2="0.65" y2="1.00" />
<line x1="0.98" y1="0.00" x2="0.98" y2="1.00" />
<line x1="1.31" y1="0.00" x2="1.31" y2="2.00" />
<line x1="1.64" y1="0.00" x2="1.64" y2="2.00" />
<line x1="1.96" y1="0.00" x2="1.96" y2="2.00" />
<line x1="2.29" y1="0.00" x2="2.29" y2="3.00" />
<line x1="2.62" y1="0.00" x2="2.62" y2="3.00" />
<line x1="2.95" y1="0.00" x2="2.95" y2="4.00" />
<line x1="3.27" y1="0.00" x2="3.27" y2="4.00" />
<line x1="3.60" y1="0.00" x2="3.60" y2="3.00" />
<line x1="3.93" y1="0.00" x2="3.93" y2="3.00" />
<line x1="4.26" y1="0.00" x2="4.26" y2="4.00" />
<line x1="4.58" y1="0.00" x2="4.58" y2="5.00" />
<line x1="4.91" y1="0.00" x2="4.91" y2="5.00" />
<line x1="5.24" y1="0.00" x2="5.24" y2="4.00" />
<line x1="5.57" y1="0.00" x2="5.57" y2="4.00" />
<line x1="5.89" y1="0.00" x2="5.89" y2="5.00" />
<line x1="6.22" y1="0.00" x2="6.22" y2="5.00" />
<line x1="6.55" y1="0.00" x2="6.55" y2="6.00" />
<line x1="6.88" y1="0.00" x2="6.88" y2="6.00" />
<line x1="7.20" y1="0.00" x2="7.20" y2="6.00" />
<line x1="7.53" y1="0.00" x2="7.53" y2="7.00" />
<line x1="7.86" y1="0.00" x2="7.86" y2="7.00" />
<line x1="8.19" y1="0.00" x2="8.19" y2="8.00" />
<line x1="8.51" y1="0.00" x2="8.51" y2="8.00" />
<line x1="8.84" y1="0.00" x2="8.84" y2="9.00" />
<line x1="9.17" y1="0.00" x2="9.17" y2="9.00" />
<line x1="9.50" y1="0.00" x2="9.50" y2="8.00" />
<line x1="9.82" y1="0.00" x2="9.82" y2="7.00" />
<line x1="10.15" y1="0.00" x2="10.15" y2="7.00" />
<line x1="10.48" y1="0.00" x2="10.48" y2="8.00" />
<line x1="10.81" y1="0.00" x2="10.81" y2="8.00" />
<line x1="11.13" y1="0.00" x2="11.13" y2="8.00" />
<line x1="11.46" y1="0.00" x2="11.46" y2="9.00" />
<line x1="11.79" y1="0.00" x2="11.79" y2="9.00" />
<line x1="12.12" y1="0.00" x2="12.12" y2="8.00" />
<line x1="12.44" y1="0.00" x2="12.44" y2="7.00" />
<line x1="12.77" y1="0.00" x2="12.77" y2="7.00" />
<line x1="13.10" y1="0.00" x2="13.10" y2="8.00" />
<line x1="13.43" y1="0.00" x2="13.43" y2="8.00" />
<line x1="13.75" y1="0.00" x2="13.75" y2="9.00" />
<line x1="14.08" y1="0.00" x2="14.08" y2="9.00" />
<line x1="14.41" y1="0.00" x2="14.41" y2="10.00" />
<line x1="14.74" y1="0.00" x2="14.74" y2="10.00" />
<line x1="15.06" y1="0.00" x2="15.06" y2="10.00" />
<line x1="15.39" y1="0.00" x2="15.39" y2="11.00" />
<line x1="15.72" y1="0.00" x2="15.72" y2="11.00" />
<line x1="16.05" y1="0.00" x2="16.05" y2="12.00" />
<line x1="16.37" y1="0.00" x2="16.37" y2="12.00" />
<line x1="16.70" y1="0.00" x2="16.70" y2="11.00" />
<line x1="17.03" y1="0.00" x2="17.03" y2="11.00" />
<line x1="17.36" y1="0.00" x2="17.36" y2="12.00" />
<line x1="17.68" y1="0.00" x2="17.68" y2="13.00" />
<line x1="18.01" y1="0.00" x2="18.01" y2="13.00" />
<line x1="18.34" y1="0.00" x2="18.34" y2="12.00" />
<line x1="18.67" y1="0.00" x2="18.67" y2="12.00" />
<line x1="18.99" y1="0.00" x2="18.99" y2="13.00" />
<line x1="19.32" y1="0.00" x2="19.32" y2="13.00" />
<line x1="19.65" y1="0.00" x2="19.65" y2="14.00" />
<line x1="19.98" y1="0.00" x2="19.98" y2="14.00" />
<line x1="20.30" y1="0.00" x2="20.30" y2="14.00" />
<line x1="20.63" y1="0.00" x2="20.63" y2="15.00" />
<line x1="20.96" y1="0.00" x2="20.96" y2="15.00" />
<line x1="21.28" y1="0.00" x2="21.28" y2="16.00" />
<line x1="21.61" y1="0.00" x2="21.61" y2="16.00" />
<line x1="21.94" y1="0.00" x2="21.94" y2="15.00" />
<line x1="22.27" y1="0.00" x2="22.27" y2="15.00" />
<line x1="22.59" y1="0.00" x2="22.59" y2="16.00" />
<line x1="22.92" y1="0.00" x2="22.92" y2="17.00" />
<line x1="23.25" y1="0.00" x2="23.25" y2="17.00" />
<line x1="23.58" y1="0.00" x2="23.58" y2="16.00" />
<line x1="23.90" y1="0.00" x2="23.90" y2="16.00" />
<line x1="24.23" y1="0.00" x2="24.23" y2="15.00" />
<line x1="24.56" y1="0.00" x2="24.56" y2="15.00" />
<line x1="24.89" y1="0.00" x2="24.89" y2="14.00" />
<line x1="25.21" y1="0.00" x2="25.21" y2="14.00" />
<line x1="25.54" y1="0.00" x2="25.54" y2="14.00" />
<line x1="25.87" y1="0.00" x2="25.87" y2="13.00" />
<line x1="26.20" y1="0.00" x2="26.20" y2="13.00" />
<line x1="26.52" y1="0.00" x2="26.52" y2="12.00" />
<line x1="26.85" y1="0.00" x2="26.85" y2="12.00" />
<line x1="27.18" y1="0.00" x2="27.18" y2="11.00" />
<line x1="27.51" y1="0.00" x2="27.51" y2="11.00" />
<line x1="27.83" y1="0.00" x2="27.83" y2="12.00" />
</g>
</svg>