<svg xmlns="http://www.w3.org/2000/svg" width="98.1" height="100.0" viewBox="-5.000 -5.000 108.095 110.000">
<g fill="none" stroke="black" stroke-width="0.0051%" transform="translate(0, 100.0000) scale(98.0952, -98.0952)">
<circle cx="0.000" cy="0.000" r="0.005" />
<circle cx="0.000" cy="1.019" r="0.005" />
<polyline points="0.000,0.000 0.010,0.131 0.020,0.151 0.030,0.161 0.040,0.177 0.050,0.185 0.060,0.192 0.070,0.210 0.080,0.216 0.090,0.219 0.100,0.227 0.110,0.232 0.120,0.237 0.130,0.262 0.140,0.266 0.150,0.270 0.160,0.275 0.170,0.277 0.180,0.280 0.190,0.290 0.200,0.293 0.210,0.296 0.220,0.302 0.230,0.305 0.240,0.311 0.250,0.333 0.260,0.354 0.270,0.359 0.280,0.362 0.290,0.367 0.300,0.369 0.310,0.372 0.320,0.379 0.330,0.382 0.340,0.383 0.350,0.387 0.360,0.390 0.370,0.392 0.380,0.408 0.390,0.411 0.400,0.414 0.410,0.418 0.420,0.420 0.430,0.423 0.440,0.433 0.450,0.436 0.460,0.440 0.470,0.447 0.480,0.451 0.490,0.459 0.500,0.505 0.510,0.541 0.520,0.549 0.530,0.553 0.540,0.560 0.550,0.564 0.560,0.567 0.570,0.577 0.580,0.580 0.590,0.582 0.600,0.586 0.610,0.589 0.620,0.592 0.630,0.608 0.640,0.610 0.650,0.613 0.660,0.617 0.670,0.618 0.680,0.621 0.690,0.628 0.700,0.631 0.710,0.633 0.720,0.638 0.730,0.641 0.740,0.646 0.750,0.669 0.760,0.689 0.770,0.695 0.780,0.698 0.790,0.704 0.800,0.707 0.810,0.710 0.820,0.720 0.830,0.723 0.840,0.725 0.850,0.730 0.860,0.734 0.870,0.738 0.880,0.763 0.890,0.768 0.900,0.773 0.910,0.781 0.920,0.784 0.930,0.790 0.940,0.808 0.950,0.815 0.960,0.823 0.970,0.839 0.980,0.849 0.990,0.869 1.000,1.019" />
</g>
</svg>