<svg xmlns="http://www.w3.org/2000/svg" width="100.0" height="100.0" viewBox="-5.000 -5.000 110.000 110.000">
<g fill="none" stroke="black" stroke-width="0.0050%" transform="translate(0, 100.0000) scale(100.0000, -100.0000)">
<polyline points="0.000,0.000 0.010,0.000 0.020,0.000 0.030,0.000 0.040,0.000 0.050,0.000 0.060,0.000 0.070,0.000 0.080,0.000 0.090,0.001 0.100,0.002 0.110,0.004 0.120,0.007 0.130,0.010 0.140,0.016 0.150,0.020 0.160,0.029 0.170,0.031 0.180,0.046 0.190,0.058 0.200,0.063 0.210,0.070 0.220,0.093 0.230,0.109 0.240,0.123 0.250,0.125 0.260,0.128 0.270,0.151 0.280,0.180 0.290,0.191 0.300,0.219 0.310,0.238 0.320,0.249 0.330,0.250 0.340,0.250 0.350,0.254 0.360,0.273 0.370,0.304 0.380,0.324 0.390,0.362 0.400,0.375 0.410,0.386 0.420,0.418 0.430,0.438 0.440,0.461 0.450,0.477 0.460,0.491 0.470,0.498 0.480,0.500 0.490,0.500 0.500,0.500 0.510,0.500 0.520,0.500 0.530,0.502 0.540,0.509 0.550,0.523 0.560,0.539 0.570,0.562 0.580,0.582 0.590,0.614 0.600,0.625 0.610,0.638 0.620,0.676 0.630,0.696 0.640,0.727 0.650,0.746 0.660,0.750 0.670,0.750 0.680,0.751 0.690,0.762 0.700,0.781 0.710,0.809 0.720,0.820 0.730,0.849 0.740,0.872 0.750,0.875 0.760,0.877 0.770,0.891 0.780,0.907 0.790,0.930 0.800,0.938 0.810,0.942 0.820,0.954 0.830,0.969 0.840,0.971 0.850,0.980 0.860,0.984 0.870,0.990 0.880,0.993 0.890,0.996 0.900,0.998 0.910,0.999 0.920,1.000 0.930,1.000 0.940,1.000 0.950,1.000 0.960,1.000 0.970,1.000 0.980,1.000 0.990,1.000 1.000,1.000" />
</g>
</svg>