<svg xmlns="http://www.w3.org/2000/svg" width="161.803" height="100.000" viewBox="-85.902 -54.750 171.803 110.000">
<g fill="none" stroke="black" stroke-width="0.020%" transform="translate(0, 0.501) scale(24.875, -24.875)">
<circle cx="-3.252" cy="0.000" r="0.040" />
<circle cx="0.000" cy="2.020" r="0.040" />
<polyline points="-3.252,-2.000 -3.187,-1.823 -3.122,-1.784 -3.057,-1.763 -2.992,-1.725 -2.927,-1.707 -2.862,-1.689 -2.797,-1.638 -2.732,-1.621 -2.667,-1.610 -2.602,-1.586 -2.537,-1.567 -2.472,-1.549 -2.407,-1.451 -2.342,-1.433 -2.277,-1.414 -2.212,-1.390 -2.147,-1.379 -2.082,-1.362 -2.016,-1.311 -1.951,-1.293 -1.886,-1.275 -1.821,-1.237 -1.756,-1.216 -1.691,-1.177 -1.626,-0.980 -1.561,-0.823 -1.496,-0.784 -1.431,-0.763 -1.366,-0.725 -1.301,-0.707 -1.236,-0.689 -1.171,-0.638 -1.106,-0.621 -1.041,-0.610 -0.976,-0.586 -0.911,-0.567 -0.846,-0.549 -0.781,-0.451 -0.716,-0.433 -0.650,-0.414 -0.585,-0.390 -0.520,-0.379 -0.455,-0.362 -0.390,-0.311 -0.325,-0.293 -0.260,-0.275 -0.195,-0.237 -0.130,-0.216 -0.065,-0.177 0.000,0.020 0.065,0.177 0.130,0.216 0.195,0.237 0.260,0.275 0.325,0.293 0.390,0.311 0.455,0.362 0.520,0.379 0.585,0.390 0.650,0.414 0.716,0.433 0.781,0.451 0.846,0.549 0.911,0.567 0.976,0.586 1.041,0.610 1.106,0.621 1.171,0.638 1.236,0.689 1.301,0.707 1.366,0.725 1.431,0.763 1.496,0.784 1.561,0.823 1.626,1.020 1.691,1.177 1.756,1.216 1.821,1.237 1.886,1.275 1.951,1.293 2.016,1.311 2.082,1.362 2.147,1.379 2.212,1.390 2.277,1.414 2.342,1.433 2.407,1.451 2.472,1.549 2.537,1.567 2.602,1.586 2.667,1.610 2.732,1.621 2.797,1.638 2.862,1.689 2.927,1.707 2.992,1.725 3.057,1.763 3.122,1.784 3.187,1.823 3.252,2.020" />
</g>
</svg>