<svg xmlns="http://www.w3.org/2000/svg" width="161.8" height="100.0" viewBox="-4.10 3.33 171.80 110.00">
<g fill="none" stroke="black" stroke-width="0.0600%" transform="translate(0, 116.6667) scale(8.3333, -8.3333)">
<polyline points="0.11,1.00 0.22,1.00 0.32,2.00 0.43,1.00 0.54,2.00 0.65,3.00 0.76,1.00 0.86,2.00 0.97,3.00 1.08,4.00 1.19,1.00 1.29,2.00 1.40,3.00 1.51,4.00 1.62,5.00 1.73,1.00 1.83,2.00 1.94,3.00 2.05,4.00 2.16,5.00 2.27,6.00 2.37,1.00 2.48,2.00 2.59,3.00 2.70,4.00 2.80,5.00 2.91,6.00 3.02,7.00 3.13,1.00 3.24,2.00 3.34,3.00 3.45,4.00 3.56,5.00 3.67,6.00 3.78,7.00 3.88,8.00 3.99,1.00 4.10,2.00 4.21,3.00 4.31,4.00 4.42,5.00 4.53,6.00 4.64,7.00 4.75,8.00 4.85,9.00 4.96,1.00 5.07,2.00 5.18,3.00 5.29,4.00 5.39,5.00 5.50,6.00 5.61,7.00 5.72,8.00 5.82,9.00 5.93,10.00 6.04,1.00 6.15,2.00 6.26,3.00 6.36,4.00 6.47,5.00 6.58,6.00 6.69,7.00 6.80,8.00 6.90,9.00 7.01,10.00 7.12,11.00 7.23,1.00 7.34,2.00 7.44,3.00 7.55,4.00 7.66,5.00 7.77,6.00 7.87,7.00 7.98,8.00 8.09,9.00 8.20,10.00 8.31,11.00 8.41,12.00 8.52,1.00 8.63,2.00 8.74,3.00 8.85,4.00 8.95,5.00 9.06,6.00 9.17,7.00 9.28,8.00 9.38,9.00 9.49,10.00 9.60,11.00 9.71,12.00 9.82,13.00 9.92,12.00 10.03,11.00 10.14,10.00 10.25,9.00 10.36,8.00 10.46,7.00 10.57,6.00 10.68,5.00 10.79,4.00 10.89,3.00 11.00,2.00 11.11,1.00 11.22,12.00 11.33,11.00 11.43,10.00 11.54,9.00 11.65,8.00 11.76,7.00 11.87,6.00 11.97,5.00 12.08,4.00 12.19,3.00 12.30,2.00 12.40,1.00 12.51,11.00 12.62,10.00 12.73,9.00 12.84,8.00 12.94,7.00 13.05,6.00 13.16,5.00 13.27,4.00 13.38,3.00 13.48,2.00 13.59,1.00 13.70,10.00 13.81,9.00 13.92,8.00 14.02,7.00 14.13,6.00 14.24,5.00 14.35,4.00 14.45,3.00 14.56,2.00 14.67,1.00 14.78,9.00 14.89,8.00 14.99,7.00 15.10,6.00 15.21,5.00 15.32,4.00 15.43,3.00 15.53,2.00 15.64,1.00 15.75,8.00 15.86,7.00 15.96,6.00 16.07,5.00 16.18,4.00 16.29,3.00 16.40,2.00 16.50,1.00 16.61,7.00 16.72,6.00 16.83,5.00 16.94,4.00 17.04,3.00 17.15,2.00 17.26,1.00 17.37,6.00 17.47,5.00 17.58,4.00 17.69,3.00 17.80,2.00 17.91,1.00 18.01,5.00 18.12,4.00 18.23,3.00 18.34,2.00 18.45,1.00 18.55,4.00 18.66,3.00 18.77,2.00 18.88,1.00 18.98,3.00 19.09,2.00 19.20,1.00 19.31,2.00 19.42,1.00 19.52,1.00" />
</g>
</svg>