<svg xmlns="http://www.w3.org/2000/svg" width="168" height="21" viewBox="0 0 168 21">
<g stroke="none" transform="translate(0, 0) scale(1, 1)">
<rect x="7" y="0" width="7" height="7" fill="rgb(170,170,170)"/>
<rect x="14" y="0" width="7" height="7" fill="rgb(170,170,170)"/>
<rect x="14" y="7" width="7" height="7" fill="rgb(85,85,85)"/>
<rect x="21" y="7" width="7" height="7" fill="rgb(85,85,85)"/>
<rect x="28" y="7" width="7" height="7" fill="rgb(170,170,170)"/>
<rect x="35" y="0" width="7" height="7" fill="rgb(170,170,170)"/>
<rect x="35" y="7" width="7" height="7" fill="rgb(170,170,170)"/>
<rect x="42" y="0" width="7" height="7" fill="rgb(170,170,170)"/>
<rect x="42" y="7" width="7" height="7" fill="rgb(170,170,170)"/>
<rect x="42" y="14" width="7" height="7" fill="rgb(0,0,0)"/>
<rect x="49" y="7" width="7" height="7" fill="rgb(170,170,170)"/>
<rect x="49" y="14" width="7" height="7" fill="rgb(0,0,0)"/>
<rect x="56" y="7" width="7" height="7" fill="rgb(85,85,85)"/>
<rect x="56" y="14" width="7" height="7" fill="rgb(0,0,0)"/>
<rect x="63" y="0" width="7" height="7" fill="rgb(170,170,170)"/>
<rect x="63" y="7" width="7" height="7" fill="rgb(85,85,85)"/>
<rect x="63" y="14" width="7" height="7" fill="rgb(0,0,0)"/>
<rect x="70" y="0" width="7" height="7" fill="rgb(170,170,170)"/>
<rect x="70" y="14" width="7" height="7" fill="rgb(0,0,0)"/>
<rect x="77" y="14" width="7" height="7" fill="rgb(0,0,0)"/>
<rect x="84" y="14" width="7" height="7" fill="rgb(85,85,85)"/>
<rect x="91" y="0" width="7" height="7" fill="rgb(170,170,170)"/>
<rect x="91" y="14" width="7" height="7" fill="rgb(85,85,85)"/>
<rect x="98" y="0" width="7" height="7" fill="rgb(170,170,170)"/>
<rect x="98" y="7" width="7" height="7" fill="rgb(85,85,85)"/>
<rect x="98" y="14" width="7" height="7" fill="rgb(85,85,85)"/>
<rect x="105" y="7" width="7" height="7" fill="rgb(85,85,85)"/>
<rect x="105" y="14" width="7" height="7" fill="rgb(85,85,85)"/>
<rect x="112" y="7" width="7" height="7" fill="rgb(170,170,170)"/>
<rect x="112" y="14" width="7" height="7" fill="rgb(85,85,85)"/>
<rect x="119" y="0" width="7" height="7" fill="rgb(170,170,170)"/>
<rect x="119" y="7" width="7" height="7" fill="rgb(170,170,170)"/>
<rect x="119" y="14" width="7" height="7" fill="rgb(85,85,85)"/>
<rect x="126" y="0" width="7" height="7" fill="rgb(170,170,170)"/>
<rect x="126" y="7" width="7" height="7" fill="rgb(170,170,170)"/>
<rect x="126" y="14" width="7" height="7" fill="rgb(170,170,170)"/>
<rect x="133" y="7" width="7" height="7" fill="rgb(170,170,170)"/>
<rect x="133" y="14" width="7" height="7" fill="rgb(170,170,170)"/>
<rect x="140" y="7" width="7" height="7" fill="rgb(85,85,85)"/>
<rect x="140" y="14" width="7" height="7" fill="rgb(170,170,170)"/>
<rect x="147" y="0" width="7" height="7" fill="rgb(170,170,170)"/>
<rect x="147" y="7" width="7" height="7" fill="rgb(85,85,85)"/>
<rect x="147" y="14" width="7" height="7" fill="rgb(170,170,170)"/>
<rect x="154" y="0" width="7" height="7" fill="rgb(170,170,170)"/>
<rect x="154" y="14" width="7" height="7" fill="rgb(170,170,170)"/>
<rect x="161" y="14" width="7" height="7" fill="rgb(170,170,170)"/>
</g>
</svg>