<svg xmlns="http://www.w3.org/2000/svg" width="161.8" height="100.0" viewBox="-1.7 -5.0 171.8 110.0">
<g fill="none" stroke="black" stroke-width="0.1600%" transform="translate(0, 100.0000) scale(3.1250, -3.1250)">
<polyline points="1.1,0.0 2.1,0.0 3.2,1.0 4.2,0.0 5.3,0.0 6.3,4.0 7.4,2.0 8.5,4.0 9.5,1.0 10.6,0.0 11.6,1.0 12.7,4.0 13.7,9.0 14.8,2.0 15.9,10.0 16.9,4.0 18.0,15.0 19.0,10.0 20.1,5.0 21.1,0.0 22.2,16.0 23.2,12.0 24.3,8.0 25.4,4.0 26.4,0.0 27.5,22.0 28.5,19.0 29.6,16.0 30.6,13.0 31.7,10.0 32.8,7.0 33.8,4.0 34.9,1.0 35.9,32.0 37.0,30.0 38.0,28.0 39.1,26.0 40.2,24.0 41.2,22.0 42.3,20.0 43.3,18.0 44.4,16.0 45.4,14.0 46.5,12.0 47.6,10.0 48.6,8.0 49.7,6.0 50.7,4.0 51.8,2.0 52.8,0.0" />
</g>
</svg>