<svg xmlns="http://www.w3.org/2000/svg" width="161.8" height="100.0" viewBox="-3.33 37.86 171.80 110.00">
<g fill="none" stroke="black" stroke-width="0.0350%" transform="translate(0, 185.7143) scale(14.2857, -14.2857)">
<circle cx="0.12" cy="3.00" r="0.03" />
<circle cx="0.23" cy="4.00" r="0.03" />
<circle cx="0.35" cy="5.00" r="0.03" />
<circle cx="0.47" cy="6.00" r="0.03" />
<circle cx="0.58" cy="3.00" r="0.03" />
<circle cx="0.70" cy="4.00" r="0.03" />
<circle cx="0.82" cy="4.00" r="0.03" />
<circle cx="0.93" cy="5.00" r="0.03" />
<circle cx="1.05" cy="3.00" r="0.03" />
<circle cx="1.17" cy="6.00" r="0.03" />
<circle cx="1.28" cy="4.00" r="0.03" />
<circle cx="1.40" cy="4.00" r="0.03" />
<circle cx="1.52" cy="3.00" r="0.03" />
<circle cx="1.63" cy="5.00" r="0.03" />
<circle cx="1.75" cy="5.00" r="0.03" />
<circle cx="1.87" cy="4.00" r="0.03" />
<circle cx="1.99" cy="3.00" r="0.03" />
<circle cx="2.10" cy="6.00" r="0.03" />
<circle cx="2.22" cy="5.00" r="0.03" />
<circle cx="2.34" cy="5.00" r="0.03" />
<circle cx="2.45" cy="3.00" r="0.03" />
<circle cx="2.57" cy="4.00" r="0.03" />
<circle cx="2.69" cy="6.00" r="0.03" />
<circle cx="2.80" cy="6.00" r="0.03" />
<circle cx="2.92" cy="3.00" r="0.03" />
<circle cx="3.04" cy="4.00" r="0.03" />
<circle cx="3.15" cy="4.00" r="0.03" />
<circle cx="3.27" cy="7.00" r="0.03" />
<circle cx="3.39" cy="3.00" r="0.03" />
<circle cx="3.50" cy="6.00" r="0.03" />
<circle cx="3.62" cy="4.00" r="0.03" />
<circle cx="3.74" cy="4.00" r="0.03" />
<circle cx="3.85" cy="3.00" r="0.03" />
<circle cx="3.97" cy="7.00" r="0.03" />
<circle cx="4.09" cy="7.00" r="0.03" />
<circle cx="4.20" cy="4.00" r="0.03" />
<circle cx="4.32" cy="3.00" r="0.03" />
<circle cx="4.44" cy="5.00" r="0.03" />
<circle cx="4.55" cy="5.00" r="0.03" />
<circle cx="4.67" cy="8.00" r="0.03" />
<circle cx="4.79" cy="3.00" r="0.03" />
<circle cx="4.90" cy="4.00" r="0.03" />
<circle cx="5.02" cy="5.00" r="0.03" />
<circle cx="5.14" cy="5.00" r="0.03" />
<circle cx="5.25" cy="3.00" r="0.03" />
<circle cx="5.37" cy="4.00" r="0.03" />
<circle cx="5.49" cy="4.00" r="0.03" />
<circle cx="5.60" cy="8.00" r="0.03" />
<circle cx="5.72" cy="3.00" r="0.03" />
<circle cx="5.84" cy="5.00" r="0.03" />
<circle cx="5.96" cy="4.00" r="0.03" />
<circle cx="6.07" cy="4.00" r="0.03" />
<circle cx="6.19" cy="3.00" r="0.03" />
<circle cx="6.31" cy="9.00" r="0.03" />
<circle cx="6.42" cy="5.00" r="0.03" />
<circle cx="6.54" cy="4.00" r="0.03" />
<circle cx="6.66" cy="3.00" r="0.03" />
<circle cx="6.77" cy="6.00" r="0.03" />
<circle cx="6.89" cy="6.00" r="0.03" />
<circle cx="7.01" cy="6.00" r="0.03" />
<circle cx="7.12" cy="3.00" r="0.03" />
<circle cx="7.24" cy="4.00" r="0.03" />
<circle cx="7.36" cy="5.00" r="0.03" />
<circle cx="7.47" cy="6.00" r="0.03" />
<circle cx="7.59" cy="3.00" r="0.03" />
<circle cx="7.71" cy="4.00" r="0.03" />
<circle cx="7.82" cy="4.00" r="0.03" />
<circle cx="7.94" cy="5.00" r="0.03" />
<circle cx="8.06" cy="3.00" r="0.03" />
<circle cx="8.17" cy="10.00" r="0.03" />
<circle cx="8.29" cy="4.00" r="0.03" />
<circle cx="8.41" cy="4.00" r="0.03" />
<circle cx="8.52" cy="3.00" r="0.03" />
<circle cx="8.64" cy="5.00" r="0.03" />
<circle cx="8.76" cy="5.00" r="0.03" />
<circle cx="8.87" cy="4.00" r="0.03" />
<circle cx="8.99" cy="3.00" r="0.03" />
<circle cx="9.11" cy="6.00" r="0.03" />
<circle cx="9.22" cy="5.00" r="0.03" />
<circle cx="9.34" cy="5.00" r="0.03" />
<circle cx="9.46" cy="3.00" r="0.03" />
<circle cx="9.57" cy="4.00" r="0.03" />
<circle cx="9.69" cy="7.00" r="0.03" />
<circle cx="9.81" cy="7.00" r="0.03" />
<circle cx="9.93" cy="3.00" r="0.03" />
<circle cx="10.04" cy="4.00" r="0.03" />
<circle cx="10.16" cy="4.00" r="0.03" />
<circle cx="10.28" cy="6.00" r="0.03" />
<circle cx="10.39" cy="3.00" r="0.03" />
<circle cx="10.51" cy="7.00" r="0.03" />
<circle cx="10.63" cy="4.00" r="0.03" />
<circle cx="10.74" cy="4.00" r="0.03" />
<circle cx="10.86" cy="3.00" r="0.03" />
<circle cx="10.98" cy="6.00" r="0.03" />
<circle cx="11.09" cy="6.00" r="0.03" />
<circle cx="11.21" cy="4.00" r="0.03" />
<circle cx="11.33" cy="3.00" r="0.03" />
<circle cx="11.44" cy="5.00" r="0.03" />
</g>
</svg>