<svg xmlns="http://www.w3.org/2000/svg" width="161.8" height="100.0" viewBox="-4 -5 172 110">
<g fill="none" stroke="black" stroke-width="1.9700%" transform="translate(0, 100.0000) scale(0.2538, -0.2538)">
<circle cx="3" cy="0" r="2" />
<circle cx="6" cy="3" r="2" />
<circle cx="10" cy="6" r="2" />
<circle cx="13" cy="2" r="2" />
<circle cx="16" cy="12" r="2" />
<circle cx="19" cy="7" r="2" />
<circle cx="22" cy="4" r="2" />
<circle cx="26" cy="10" r="2" />
<circle cx="29" cy="24" r="2" />
<circle cx="32" cy="11" r="2" />
<circle cx="35" cy="14" r="2" />
<circle cx="38" cy="18" r="2" />
<circle cx="41" cy="8" r="2" />
<circle cx="45" cy="15" r="2" />
<circle cx="48" cy="20" r="2" />
<circle cx="51" cy="26" r="2" />
<circle cx="54" cy="48" r="2" />
<circle cx="57" cy="19" r="2" />
<circle cx="61" cy="22" r="2" />
<circle cx="64" cy="34" r="2" />
<circle cx="67" cy="28" r="2" />
<circle cx="70" cy="23" r="2" />
<circle cx="73" cy="36" r="2" />
<circle cx="77" cy="42" r="2" />
<circle cx="80" cy="16" r="2" />
<circle cx="83" cy="27" r="2" />
<circle cx="86" cy="30" r="2" />
<circle cx="89" cy="50" r="2" />
<circle cx="92" cy="40" r="2" />
<circle cx="96" cy="31" r="2" />
<circle cx="99" cy="52" r="2" />
<circle cx="102" cy="58" r="2" />
<circle cx="105" cy="96" r="2" />
<circle cx="108" cy="35" r="2" />
<circle cx="112" cy="38" r="2" />
<circle cx="115" cy="66" r="2" />
<circle cx="118" cy="44" r="2" />
<circle cx="121" cy="39" r="2" />
<circle cx="124" cy="68" r="2" />
<circle cx="128" cy="74" r="2" />
<circle cx="131" cy="56" r="2" />
<circle cx="134" cy="43" r="2" />
<circle cx="137" cy="46" r="2" />
<circle cx="140" cy="82" r="2" />
<circle cx="143" cy="72" r="2" />
<circle cx="147" cy="47" r="2" />
<circle cx="150" cy="84" r="2" />
<circle cx="153" cy="90" r="2" />
<circle cx="156" cy="32" r="2" />
<circle cx="159" cy="51" r="2" />
<circle cx="163" cy="54" r="2" />
<circle cx="166" cy="98" r="2" />
<circle cx="169" cy="60" r="2" />
<circle cx="172" cy="55" r="2" />
<circle cx="175" cy="100" r="2" />
<circle cx="179" cy="106" r="2" />
<circle cx="182" cy="80" r="2" />
<circle cx="185" cy="59" r="2" />
<circle cx="188" cy="62" r="2" />
<circle cx="191" cy="114" r="2" />
<circle cx="194" cy="104" r="2" />
<circle cx="198" cy="63" r="2" />
<circle cx="201" cy="116" r="2" />
<circle cx="204" cy="122" r="2" />
<circle cx="207" cy="192" r="2" />
<circle cx="210" cy="67" r="2" />
<circle cx="214" cy="70" r="2" />
<circle cx="217" cy="130" r="2" />
<circle cx="220" cy="76" r="2" />
<circle cx="223" cy="71" r="2" />
<circle cx="226" cy="132" r="2" />
<circle cx="230" cy="138" r="2" />
<circle cx="233" cy="88" r="2" />
<circle cx="236" cy="75" r="2" />
<circle cx="239" cy="78" r="2" />
<circle cx="242" cy="146" r="2" />
<circle cx="245" cy="136" r="2" />
<circle cx="249" cy="79" r="2" />
<circle cx="252" cy="148" r="2" />
<circle cx="255" cy="154" r="2" />
<circle cx="258" cy="112" r="2" />
<circle cx="261" cy="83" r="2" />
<circle cx="265" cy="86" r="2" />
<circle cx="268" cy="162" r="2" />
<circle cx="271" cy="92" r="2" />
<circle cx="274" cy="87" r="2" />
<circle cx="277" cy="164" r="2" />
<circle cx="281" cy="170" r="2" />
<circle cx="284" cy="144" r="2" />
<circle cx="287" cy="91" r="2" />
<circle cx="290" cy="94" r="2" />
<circle cx="293" cy="178" r="2" />
<circle cx="296" cy="168" r="2" />
<circle cx="300" cy="95" r="2" />
<circle cx="303" cy="180" r="2" />
<circle cx="306" cy="186" r="2" />
<circle cx="309" cy="64" r="2" />
<circle cx="312" cy="99" r="2" />
<circle cx="316" cy="102" r="2" />
<circle cx="319" cy="194" r="2" />
<circle cx="322" cy="108" r="2" />
<circle cx="325" cy="103" r="2" />
<circle cx="328" cy="196" r="2" />
<circle cx="332" cy="202" r="2" />
<circle cx="335" cy="120" r="2" />
<circle cx="338" cy="107" r="2" />
<circle cx="341" cy="110" r="2" />
<circle cx="344" cy="210" r="2" />
<circle cx="347" cy="200" r="2" />
<circle cx="351" cy="111" r="2" />
<circle cx="354" cy="212" r="2" />
<circle cx="357" cy="218" r="2" />
<circle cx="360" cy="160" r="2" />
<circle cx="363" cy="115" r="2" />
<circle cx="367" cy="118" r="2" />
<circle cx="370" cy="226" r="2" />
<circle cx="373" cy="124" r="2" />
<circle cx="376" cy="119" r="2" />
<circle cx="379" cy="228" r="2" />
<circle cx="383" cy="234" r="2" />
<circle cx="386" cy="208" r="2" />
<circle cx="389" cy="123" r="2" />
<circle cx="392" cy="126" r="2" />
<circle cx="395" cy="242" r="2" />
<circle cx="398" cy="232" r="2" />
<circle cx="402" cy="127" r="2" />
<circle cx="405" cy="244" r="2" />
<circle cx="408" cy="250" r="2" />
<circle cx="411" cy="384" r="2" />
<circle cx="414" cy="131" r="2" />
<circle cx="418" cy="134" r="2" />
<circle cx="421" cy="258" r="2" />
<circle cx="424" cy="140" r="2" />
<circle cx="427" cy="135" r="2" />
<circle cx="430" cy="260" r="2" />
<circle cx="434" cy="266" r="2" />
<circle cx="437" cy="152" r="2" />
<circle cx="440" cy="139" r="2" />
<circle cx="443" cy="142" r="2" />
<circle cx="446" cy="274" r="2" />
<circle cx="449" cy="264" r="2" />
<circle cx="453" cy="143" r="2" />
<circle cx="456" cy="276" r="2" />
<circle cx="459" cy="282" r="2" />
<circle cx="462" cy="176" r="2" />
<circle cx="465" cy="147" r="2" />
<circle cx="469" cy="150" r="2" />
<circle cx="472" cy="290" r="2" />
<circle cx="475" cy="156" r="2" />
<circle cx="478" cy="151" r="2" />
<circle cx="481" cy="292" r="2" />
<circle cx="485" cy="298" r="2" />
<circle cx="488" cy="272" r="2" />
<circle cx="491" cy="155" r="2" />
<circle cx="494" cy="158" r="2" />
<circle cx="497" cy="306" r="2" />
<circle cx="500" cy="296" r="2" />
<circle cx="504" cy="159" r="2" />
<circle cx="507" cy="308" r="2" />
<circle cx="510" cy="314" r="2" />
<circle cx="513" cy="224" r="2" />
<circle cx="516" cy="163" r="2" />
<circle cx="520" cy="166" r="2" />
<circle cx="523" cy="322" r="2" />
<circle cx="526" cy="172" r="2" />
<circle cx="529" cy="167" r="2" />
<circle cx="532" cy="324" r="2" />
<circle cx="536" cy="330" r="2" />
<circle cx="539" cy="184" r="2" />
<circle cx="542" cy="171" r="2" />
<circle cx="545" cy="174" r="2" />
<circle cx="548" cy="338" r="2" />
<circle cx="551" cy="328" r="2" />
<circle cx="555" cy="175" r="2" />
<circle cx="558" cy="340" r="2" />
<circle cx="561" cy="346" r="2" />
<circle cx="564" cy="288" r="2" />
<circle cx="567" cy="179" r="2" />
<circle cx="571" cy="182" r="2" />
<circle cx="574" cy="354" r="2" />
<circle cx="577" cy="188" r="2" />
<circle cx="580" cy="183" r="2" />
<circle cx="583" cy="356" r="2" />
<circle cx="587" cy="362" r="2" />
<circle cx="590" cy="336" r="2" />
<circle cx="593" cy="187" r="2" />
<circle cx="596" cy="190" r="2" />
<circle cx="599" cy="370" r="2" />
<circle cx="602" cy="360" r="2" />
<circle cx="606" cy="191" r="2" />
<circle cx="609" cy="372" r="2" />
<circle cx="612" cy="378" r="2" />
<circle cx="615" cy="128" r="2" />
<circle cx="618" cy="195" r="2" />
<circle cx="622" cy="198" r="2" />
<circle cx="625" cy="386" r="2" />
<circle cx="628" cy="204" r="2" />
<circle cx="631" cy="199" r="2" />
<circle cx="634" cy="388" r="2" />
<circle cx="638" cy="394" r="2" />
<circle cx="641" cy="216" r="2" />
</g>
</svg>