<svg xmlns="http://www.w3.org/2000/svg" width="161.8" height="100.0" viewBox="-4.350 -5.000 171.803 110.000">
<g fill="none" stroke="black" stroke-width="0.0050%" transform="translate(0, 100.0000) scale(100.0000, -100.0000)">
<circle cx="0.006" cy="0.000" r="0.005" />
<circle cx="0.006" cy="0.365" r="0.005" />
<circle cx="0.013" cy="0.684" r="0.005" />
<circle cx="0.019" cy="0.252" r="0.005" />
<circle cx="0.026" cy="0.842" r="0.005" />
<circle cx="0.032" cy="0.351" r="0.005" />
<circle cx="0.039" cy="0.891" r="0.005" />
<circle cx="0.045" cy="0.067" r="0.005" />
<circle cx="0.052" cy="0.150" r="0.005" />
<circle cx="0.058" cy="0.888" r="0.005" />
<circle cx="0.065" cy="0.966" r="0.005" />
<circle cx="0.071" cy="0.056" r="0.005" />
<circle cx="0.078" cy="0.581" r="0.005" />
<circle cx="0.084" cy="0.298" r="0.005" />
<circle cx="0.091" cy="0.664" r="0.005" />
<circle cx="0.097" cy="0.919" r="0.005" />
<circle cx="0.104" cy="0.978" r="0.005" />
<circle cx="0.110" cy="0.484" r="0.005" />
<circle cx="0.117" cy="0.619" r="0.005" />
<circle cx="0.123" cy="0.135" r="0.005" />
<circle cx="0.130" cy="0.849" r="0.005" />
<circle cx="0.136" cy="0.801" r="0.005" />
<circle cx="0.143" cy="0.090" r="0.005" />
<circle cx="0.149" cy="0.894" r="0.005" />
<circle cx="0.156" cy="0.707" r="0.005" />
<circle cx="0.162" cy="0.100" r="0.005" />
<circle cx="0.169" cy="0.862" r="0.005" />
<circle cx="0.175" cy="0.063" r="0.005" />
<circle cx="0.182" cy="0.501" r="0.005" />
<circle cx="0.188" cy="0.993" r="0.005" />
<circle cx="0.195" cy="0.873" r="0.005" />
<circle cx="0.201" cy="0.942" r="0.005" />
<circle cx="0.208" cy="0.363" r="0.005" />
<circle cx="0.214" cy="0.388" r="0.005" />
<circle cx="0.221" cy="0.449" r="0.005" />
<circle cx="0.227" cy="0.648" r="0.005" />
<circle cx="0.234" cy="0.705" r="0.005" />
<circle cx="0.240" cy="0.854" r="0.005" />
<circle cx="0.247" cy="0.720" r="0.005" />
<circle cx="0.253" cy="0.023" r="0.005" />
<circle cx="0.260" cy="0.523" r="0.005" />
<circle cx="0.266" cy="0.558" r="0.005" />
<circle cx="0.273" cy="0.228" r="0.005" />
<circle cx="0.279" cy="0.368" r="0.005" />
<circle cx="0.286" cy="0.998" r="0.005" />
<circle cx="0.292" cy="0.746" r="0.005" />
<circle cx="0.299" cy="0.400" r="0.005" />
<circle cx="0.305" cy="0.797" r="0.005" />
<circle cx="0.312" cy="0.712" r="0.005" />
<circle cx="0.318" cy="0.750" r="0.005" />
<circle cx="0.325" cy="0.126" r="0.005" />
<circle cx="0.331" cy="0.541" r="0.005" />
<circle cx="0.338" cy="0.653" r="0.005" />
<circle cx="0.344" cy="0.340" r="0.005" />
<circle cx="0.351" cy="0.697" r="0.005" />
<circle cx="0.357" cy="0.704" r="0.005" />
<circle cx="0.364" cy="0.578" r="0.005" />
<circle cx="0.370" cy="0.000" r="0.005" />
<circle cx="0.377" cy="0.141" r="0.005" />
<circle cx="0.383" cy="0.282" r="0.005" />
<circle cx="0.390" cy="0.707" r="0.005" />
<circle cx="0.396" cy="0.578" r="0.005" />
<circle cx="0.403" cy="0.487" r="0.005" />
<circle cx="0.409" cy="0.382" r="0.005" />
<circle cx="0.416" cy="0.464" r="0.005" />
<circle cx="0.422" cy="0.170" r="0.005" />
<circle cx="0.429" cy="0.362" r="0.005" />
<circle cx="0.435" cy="0.800" r="0.005" />
<circle cx="0.442" cy="0.733" r="0.005" />
<circle cx="0.448" cy="0.350" r="0.005" />
<circle cx="0.455" cy="0.917" r="0.005" />
<circle cx="0.461" cy="0.050" r="0.005" />
<circle cx="0.468" cy="0.859" r="0.005" />
<circle cx="0.474" cy="0.931" r="0.005" />
<circle cx="0.481" cy="0.192" r="0.005" />
<circle cx="0.487" cy="0.840" r="0.005" />
<circle cx="0.494" cy="0.994" r="0.005" />
<circle cx="0.500" cy="0.805" r="0.005" />
<circle cx="0.507" cy="0.054" r="0.005" />
<circle cx="0.513" cy="0.411" r="0.005" />
<circle cx="0.520" cy="0.026" r="0.005" />
<circle cx="0.526" cy="0.069" r="0.005" />
<circle cx="0.533" cy="0.540" r="0.005" />
<circle cx="0.539" cy="0.044" r="0.005" />
<circle cx="0.546" cy="0.438" r="0.005" />
<circle cx="0.552" cy="0.304" r="0.005" />
<circle cx="0.559" cy="0.665" r="0.005" />
<circle cx="0.565" cy="0.306" r="0.005" />
<circle cx="0.572" cy="0.247" r="0.005" />
<circle cx="0.578" cy="0.373" r="0.005" />
<circle cx="0.585" cy="0.767" r="0.005" />
<circle cx="0.591" cy="0.025" r="0.005" />
<circle cx="0.598" cy="0.669" r="0.005" />
<circle cx="0.604" cy="0.453" r="0.005" />
<circle cx="0.611" cy="0.523" r="0.005" />
<circle cx="0.617" cy="0.426" r="0.005" />
<circle cx="0.624" cy="0.579" r="0.005" />
<circle cx="0.630" cy="0.987" r="0.005" />
<circle cx="0.637" cy="0.228" r="0.005" />
<circle cx="0.643" cy="0.029" r="0.005" />
<circle cx="0.650" cy="0.136" r="0.005" />
<circle cx="0.656" cy="0.719" r="0.005" />
<circle cx="0.663" cy="0.587" r="0.005" />
<circle cx="0.669" cy="0.707" r="0.005" />
<circle cx="0.676" cy="0.226" r="0.005" />
<circle cx="0.682" cy="0.324" r="0.005" />
<circle cx="0.689" cy="0.446" r="0.005" />
<circle cx="0.695" cy="0.918" r="0.005" />
<circle cx="0.702" cy="0.462" r="0.005" />
<circle cx="0.708" cy="0.881" r="0.005" />
<circle cx="0.715" cy="0.457" r="0.005" />
<circle cx="0.721" cy="0.878" r="0.005" />
<circle cx="0.728" cy="0.812" r="0.005" />
<circle cx="0.734" cy="0.286" r="0.005" />
<circle cx="0.741" cy="0.071" r="0.005" />
<circle cx="0.747" cy="0.722" r="0.005" />
<circle cx="0.754" cy="0.397" r="0.005" />
<circle cx="0.760" cy="0.382" r="0.005" />
<circle cx="0.767" cy="0.269" r="0.005" />
<circle cx="0.773" cy="0.683" r="0.005" />
<circle cx="0.780" cy="0.423" r="0.005" />
<circle cx="0.786" cy="0.422" r="0.005" />
<circle cx="0.793" cy="0.518" r="0.005" />
<circle cx="0.799" cy="0.069" r="0.005" />
<circle cx="0.806" cy="0.013" r="0.005" />
<circle cx="0.812" cy="0.917" r="0.005" />
<circle cx="0.819" cy="0.649" r="0.005" />
<circle cx="0.825" cy="0.061" r="0.005" />
<circle cx="0.832" cy="0.421" r="0.005" />
<circle cx="0.838" cy="0.432" r="0.005" />
<circle cx="0.845" cy="0.491" r="0.005" />
<circle cx="0.851" cy="0.038" r="0.005" />
<circle cx="0.858" cy="0.638" r="0.005" />
<circle cx="0.864" cy="0.217" r="0.005" />
<circle cx="0.871" cy="0.683" r="0.005" />
<circle cx="0.877" cy="0.260" r="0.005" />
<circle cx="0.884" cy="0.117" r="0.005" />
<circle cx="0.890" cy="0.009" r="0.005" />
<circle cx="0.897" cy="0.996" r="0.005" />
<circle cx="0.903" cy="0.620" r="0.005" />
<circle cx="0.910" cy="0.897" r="0.005" />
<circle cx="0.916" cy="0.296" r="0.005" />
<circle cx="0.923" cy="0.180" r="0.005" />
<circle cx="0.929" cy="0.857" r="0.005" />
<circle cx="0.936" cy="0.002" r="0.005" />
<circle cx="0.942" cy="0.343" r="0.005" />
<circle cx="0.949" cy="0.661" r="0.005" />
<circle cx="0.955" cy="0.704" r="0.005" />
<circle cx="0.962" cy="0.869" r="0.005" />
<circle cx="0.968" cy="0.696" r="0.005" />
<circle cx="0.975" cy="0.117" r="0.005" />
<circle cx="0.981" cy="0.918" r="0.005" />
<circle cx="0.988" cy="0.834" r="0.005" />
<circle cx="0.994" cy="0.771" r="0.005" />
<circle cx="1.001" cy="0.190" r="0.005" />
<circle cx="1.007" cy="0.174" r="0.005" />
<circle cx="1.014" cy="0.743" r="0.005" />
<circle cx="1.020" cy="0.852" r="0.005" />
<circle cx="1.027" cy="0.384" r="0.005" />
<circle cx="1.033" cy="0.808" r="0.005" />
<circle cx="1.040" cy="0.302" r="0.005" />
<circle cx="1.046" cy="0.176" r="0.005" />
<circle cx="1.053" cy="0.844" r="0.005" />
<circle cx="1.059" cy="0.902" r="0.005" />
<circle cx="1.066" cy="0.871" r="0.005" />
<circle cx="1.072" cy="0.745" r="0.005" />
<circle cx="1.079" cy="0.973" r="0.005" />
<circle cx="1.085" cy="0.022" r="0.005" />
<circle cx="1.092" cy="0.227" r="0.005" />
<circle cx="1.098" cy="0.732" r="0.005" />
<circle cx="1.105" cy="0.478" r="0.005" />
<circle cx="1.111" cy="0.396" r="0.005" />
<circle cx="1.118" cy="0.663" r="0.005" />
<circle cx="1.124" cy="0.505" r="0.005" />
<circle cx="1.131" cy="0.579" r="0.005" />
<circle cx="1.137" cy="0.897" r="0.005" />
<circle cx="1.144" cy="0.802" r="0.005" />
<circle cx="1.150" cy="0.545" r="0.005" />
<circle cx="1.157" cy="0.540" r="0.005" />
<circle cx="1.163" cy="0.912" r="0.005" />
<circle cx="1.170" cy="0.624" r="0.005" />
<circle cx="1.176" cy="0.751" r="0.005" />
<circle cx="1.183" cy="0.905" r="0.005" />
<circle cx="1.189" cy="0.173" r="0.005" />
<circle cx="1.196" cy="0.306" r="0.005" />
<circle cx="1.202" cy="0.434" r="0.005" />
<circle cx="1.209" cy="0.753" r="0.005" />
<circle cx="1.215" cy="1.000" r="0.005" />
<circle cx="1.222" cy="0.415" r="0.005" />
<circle cx="1.228" cy="0.948" r="0.005" />
<circle cx="1.235" cy="0.647" r="0.005" />
<circle cx="1.241" cy="0.858" r="0.005" />
<circle cx="1.248" cy="0.235" r="0.005" />
<circle cx="1.254" cy="0.740" r="0.005" />
<circle cx="1.261" cy="0.799" r="0.005" />
<circle cx="1.267" cy="0.827" r="0.005" />
<circle cx="1.274" cy="0.186" r="0.005" />
<circle cx="1.280" cy="0.679" r="0.005" />
<circle cx="1.287" cy="0.419" r="0.005" />
<circle cx="1.293" cy="0.842" r="0.005" />
<circle cx="1.300" cy="0.544" r="0.005" />
<circle cx="1.306" cy="0.487" r="0.005" />
<circle cx="1.313" cy="0.113" r="0.005" />
<circle cx="1.319" cy="0.273" r="0.005" />
<circle cx="1.326" cy="0.627" r="0.005" />
<circle cx="1.332" cy="0.198" r="0.005" />
<circle cx="1.339" cy="0.476" r="0.005" />
<circle cx="1.345" cy="0.922" r="0.005" />
<circle cx="1.352" cy="0.125" r="0.005" />
<circle cx="1.358" cy="0.331" r="0.005" />
<circle cx="1.365" cy="0.367" r="0.005" />
<circle cx="1.371" cy="0.034" r="0.005" />
<circle cx="1.378" cy="0.595" r="0.005" />
<circle cx="1.384" cy="0.417" r="0.005" />
<circle cx="1.391" cy="0.977" r="0.005" />
<circle cx="1.397" cy="0.350" r="0.005" />
<circle cx="1.404" cy="0.295" r="0.005" />
<circle cx="1.410" cy="0.883" r="0.005" />
<circle cx="1.417" cy="0.933" r="0.005" />
<circle cx="1.423" cy="0.451" r="0.005" />
<circle cx="1.430" cy="0.432" r="0.005" />
<circle cx="1.436" cy="0.155" r="0.005" />
<circle cx="1.443" cy="0.244" r="0.005" />
<circle cx="1.449" cy="0.705" r="0.005" />
<circle cx="1.456" cy="0.929" r="0.005" />
<circle cx="1.462" cy="0.898" r="0.005" />
<circle cx="1.469" cy="0.864" r="0.005" />
<circle cx="1.475" cy="0.470" r="0.005" />
<circle cx="1.482" cy="0.614" r="0.005" />
<circle cx="1.488" cy="0.255" r="0.005" />
<circle cx="1.495" cy="0.813" r="0.005" />
<circle cx="1.501" cy="0.606" r="0.005" />
<circle cx="1.508" cy="0.284" r="0.005" />
<circle cx="1.514" cy="0.681" r="0.005" />
<circle cx="1.521" cy="0.006" r="0.005" />
<circle cx="1.527" cy="0.214" r="0.005" />
<circle cx="1.534" cy="0.006" r="0.005" />
<circle cx="1.540" cy="0.032" r="0.005" />
<circle cx="1.547" cy="0.505" r="0.005" />
<circle cx="1.553" cy="0.697" r="0.005" />
<circle cx="1.560" cy="0.915" r="0.005" />
<circle cx="1.566" cy="0.031" r="0.005" />
<circle cx="1.573" cy="0.357" r="0.005" />
<circle cx="1.579" cy="0.555" r="0.005" />
<circle cx="1.586" cy="0.552" r="0.005" />
<circle cx="1.592" cy="0.505" r="0.005" />
<circle cx="1.599" cy="0.628" r="0.005" />
<circle cx="1.605" cy="0.674" r="0.005" />
<circle cx="1.612" cy="0.358" r="0.005" />
<circle cx="1.618" cy="0.989" r="0.005" />
<circle cx="1.625" cy="0.707" r="0.005" />
</g>
</svg>