<svg xmlns="http://www.w3.org/2000/svg" width="161.8" height="100.0" viewBox="-4.36 -5.00 171.80 110.00">
<g fill="none" stroke="black" stroke-width="0.1100%" transform="translate(0, 100.0000) scale(4.5455, -4.5455)">
<circle cx="0.14" cy="1.00" r="0.11" />
<circle cx="0.28" cy="1.00" r="0.11" />
<circle cx="0.42" cy="2.00" r="0.11" />
<circle cx="0.57" cy="1.00" r="0.11" />
<circle cx="0.71" cy="0.00" r="0.11" />
<circle cx="0.85" cy="3.00" r="0.11" />
<circle cx="0.99" cy="1.00" r="0.11" />
<circle cx="1.13" cy="3.00" r="0.11" />
<circle cx="1.27" cy="2.00" r="0.11" />
<circle cx="1.41" cy="4.00" r="0.11" />
<circle cx="1.55" cy="1.00" r="0.11" />
<circle cx="1.70" cy="0.00" r="0.11" />
<circle cx="1.84" cy="0.00" r="0.11" />
<circle cx="1.98" cy="0.00" r="0.11" />
<circle cx="2.12" cy="5.00" r="0.11" />
<circle cx="2.26" cy="1.00" r="0.11" />
<circle cx="2.40" cy="4.00" r="0.11" />
<circle cx="2.54" cy="5.00" r="0.11" />
<circle cx="2.68" cy="2.00" r="0.11" />
<circle cx="2.83" cy="3.00" r="0.11" />
<circle cx="2.97" cy="6.00" r="0.11" />
<circle cx="3.11" cy="1.00" r="0.11" />
<circle cx="3.25" cy="0.00" r="0.11" />
<circle cx="3.39" cy="3.00" r="0.11" />
<circle cx="3.53" cy="0.00" r="0.11" />
<circle cx="3.67" cy="5.00" r="0.11" />
<circle cx="3.81" cy="0.00" r="0.11" />
<circle cx="3.96" cy="7.00" r="0.11" />
<circle cx="4.10" cy="1.00" r="0.11" />
<circle cx="4.24" cy="5.00" r="0.11" />
<circle cx="4.38" cy="0.00" r="0.11" />
<circle cx="4.52" cy="7.00" r="0.11" />
<circle cx="4.66" cy="2.00" r="0.11" />
<circle cx="4.80" cy="0.00" r="0.11" />
<circle cx="4.94" cy="4.00" r="0.11" />
<circle cx="5.09" cy="8.00" r="0.11" />
<circle cx="5.23" cy="1.00" r="0.11" />
<circle cx="5.37" cy="0.00" r="0.11" />
<circle cx="5.51" cy="7.00" r="0.11" />
<circle cx="5.65" cy="0.00" r="0.11" />
<circle cx="5.79" cy="0.00" r="0.11" />
<circle cx="5.93" cy="0.00" r="0.11" />
<circle cx="6.07" cy="3.00" r="0.11" />
<circle cx="6.22" cy="0.00" r="0.11" />
<circle cx="6.36" cy="9.00" r="0.11" />
<circle cx="6.50" cy="1.00" r="0.11" />
<circle cx="6.64" cy="6.00" r="0.11" />
<circle cx="6.78" cy="4.00" r="0.11" />
<circle cx="6.92" cy="3.00" r="0.11" />
<circle cx="7.06" cy="9.00" r="0.11" />
<circle cx="7.20" cy="2.00" r="0.11" />
<circle cx="7.35" cy="8.00" r="0.11" />
<circle cx="7.49" cy="7.00" r="0.11" />
<circle cx="7.63" cy="5.00" r="0.11" />
<circle cx="7.77" cy="10.00" r="0.11" />
<circle cx="7.91" cy="1.00" r="0.11" />
<circle cx="8.05" cy="0.00" r="0.11" />
<circle cx="8.19" cy="0.00" r="0.11" />
<circle cx="8.33" cy="0.00" r="0.11" />
<circle cx="8.48" cy="5.00" r="0.11" />
<circle cx="8.62" cy="0.00" r="0.11" />
<circle cx="8.76" cy="7.00" r="0.11" />
<circle cx="8.90" cy="0.00" r="0.11" />
<circle cx="9.04" cy="0.00" r="0.11" />
<circle cx="9.18" cy="0.00" r="0.11" />
<circle cx="9.32" cy="11.00" r="0.11" />
<circle cx="9.46" cy="1.00" r="0.11" />
<circle cx="9.61" cy="7.00" r="0.11" />
<circle cx="9.75" cy="9.00" r="0.11" />
<circle cx="9.89" cy="10.00" r="0.11" />
<circle cx="10.03" cy="8.00" r="0.11" />
<circle cx="10.17" cy="11.00" r="0.11" />
<circle cx="10.31" cy="2.00" r="0.11" />
<circle cx="10.45" cy="5.00" r="0.11" />
<circle cx="10.59" cy="3.00" r="0.11" />
<circle cx="10.74" cy="4.00" r="0.11" />
<circle cx="10.88" cy="6.00" r="0.11" />
<circle cx="11.02" cy="12.00" r="0.11" />
<circle cx="11.16" cy="1.00" r="0.11" />
<circle cx="11.30" cy="0.00" r="0.11" />
<circle cx="11.44" cy="5.00" r="0.11" />
<circle cx="11.58" cy="0.00" r="0.11" />
<circle cx="11.72" cy="3.00" r="0.11" />
<circle cx="11.87" cy="0.00" r="0.11" />
<circle cx="12.01" cy="0.00" r="0.11" />
<circle cx="12.15" cy="0.00" r="0.11" />
<circle cx="12.29" cy="11.00" r="0.11" />
<circle cx="12.43" cy="0.00" r="0.11" />
<circle cx="12.57" cy="9.00" r="0.11" />
<circle cx="12.71" cy="0.00" r="0.11" />
<circle cx="12.85" cy="13.00" r="0.11" />
<circle cx="13.00" cy="1.00" r="0.11" />
<circle cx="13.14" cy="8.00" r="0.11" />
<circle cx="13.28" cy="0.00" r="0.11" />
<circle cx="13.42" cy="4.00" r="0.11" />
<circle cx="13.56" cy="0.00" r="0.11" />
<circle cx="13.70" cy="0.00" r="0.11" />
<circle cx="13.84" cy="13.00" r="0.11" />
<circle cx="13.98" cy="2.00" r="0.11" />
<circle cx="14.13" cy="0.00" r="0.11" />
<circle cx="14.27" cy="0.00" r="0.11" />
<circle cx="14.41" cy="11.00" r="0.11" />
<circle cx="14.55" cy="0.00" r="0.11" />
<circle cx="14.69" cy="7.00" r="0.11" />
<circle cx="14.83" cy="14.00" r="0.11" />
<circle cx="14.97" cy="1.00" r="0.11" />
<circle cx="15.11" cy="0.00" r="0.11" />
<circle cx="15.26" cy="11.00" r="0.11" />
<circle cx="15.40" cy="0.00" r="0.11" />
<circle cx="15.54" cy="13.00" r="0.11" />
<circle cx="15.68" cy="0.00" r="0.11" />
<circle cx="15.82" cy="7.00" r="0.11" />
<circle cx="15.96" cy="0.00" r="0.11" />
<circle cx="16.10" cy="9.00" r="0.11" />
<circle cx="16.24" cy="0.00" r="0.11" />
<circle cx="16.39" cy="3.00" r="0.11" />
<circle cx="16.53" cy="0.00" r="0.11" />
<circle cx="16.67" cy="5.00" r="0.11" />
<circle cx="16.81" cy="0.00" r="0.11" />
<circle cx="16.95" cy="15.00" r="0.11" />
<circle cx="17.09" cy="1.00" r="0.11" />
<circle cx="17.23" cy="9.00" r="0.11" />
<circle cx="17.37" cy="6.00" r="0.11" />
<circle cx="17.52" cy="13.00" r="0.11" />
<circle cx="17.66" cy="7.00" r="0.11" />
<circle cx="17.80" cy="3.00" r="0.11" />
<circle cx="17.94" cy="5.00" r="0.11" />
<circle cx="18.08" cy="15.00" r="0.11" />
<circle cx="18.22" cy="2.00" r="0.11" />
<circle cx="18.36" cy="12.00" r="0.11" />
<circle cx="18.50" cy="14.00" r="0.11" />
<circle cx="18.65" cy="10.00" r="0.11" />
<circle cx="18.79" cy="4.00" r="0.11" />
<circle cx="18.93" cy="11.00" r="0.11" />
<circle cx="19.07" cy="8.00" r="0.11" />
<circle cx="19.21" cy="16.00" r="0.11" />
<circle cx="19.35" cy="1.00" r="0.11" />
<circle cx="19.49" cy="0.00" r="0.11" />
<circle cx="19.63" cy="0.00" r="0.11" />
<circle cx="19.78" cy="0.00" r="0.11" />
<circle cx="19.92" cy="11.00" r="0.11" />
<circle cx="20.06" cy="0.00" r="0.11" />
<circle cx="20.20" cy="13.00" r="0.11" />
<circle cx="20.34" cy="0.00" r="0.11" />
<circle cx="20.48" cy="0.00" r="0.11" />
<circle cx="20.62" cy="0.00" r="0.11" />
<circle cx="20.76" cy="5.00" r="0.11" />
<circle cx="20.91" cy="0.00" r="0.11" />
<circle cx="21.05" cy="7.00" r="0.11" />
<circle cx="21.19" cy="0.00" r="0.11" />
<circle cx="21.33" cy="0.00" r="0.11" />
<circle cx="21.47" cy="0.00" r="0.11" />
<circle cx="21.61" cy="17.00" r="0.11" />
<circle cx="21.75" cy="1.00" r="0.11" />
<circle cx="21.89" cy="10.00" r="0.11" />
<circle cx="22.04" cy="13.00" r="0.11" />
<circle cx="22.18" cy="5.00" r="0.11" />
<circle cx="22.32" cy="4.00" r="0.11" />
<circle cx="22.46" cy="16.00" r="0.11" />
<circle cx="22.60" cy="11.00" r="0.11" />
<circle cx="22.74" cy="12.00" r="0.11" />
<circle cx="22.88" cy="17.00" r="0.11" />
<circle cx="23.02" cy="2.00" r="0.11" />
<circle cx="23.17" cy="7.00" r="0.11" />
<circle cx="23.31" cy="8.00" r="0.11" />
<circle cx="23.45" cy="3.00" r="0.11" />
<circle cx="23.59" cy="15.00" r="0.11" />
<circle cx="23.73" cy="14.00" r="0.11" />
<circle cx="23.87" cy="6.00" r="0.11" />
<circle cx="24.01" cy="9.00" r="0.11" />
<circle cx="24.15" cy="18.00" r="0.11" />
<circle cx="24.30" cy="1.00" r="0.11" />
<circle cx="24.44" cy="0.00" r="0.11" />
<circle cx="24.58" cy="7.00" r="0.11" />
<circle cx="24.72" cy="0.00" r="0.11" />
<circle cx="24.86" cy="0.00" r="0.11" />
<circle cx="25.00" cy="0.00" r="0.11" />
<circle cx="25.14" cy="3.00" r="0.11" />
<circle cx="25.28" cy="0.00" r="0.11" />
<circle cx="25.43" cy="9.00" r="0.11" />
<circle cx="25.57" cy="0.00" r="0.11" />
<circle cx="25.71" cy="11.00" r="0.11" />
<circle cx="25.85" cy="0.00" r="0.11" />
<circle cx="25.99" cy="17.00" r="0.11" />
<circle cx="26.13" cy="0.00" r="0.11" />
<circle cx="26.27" cy="0.00" r="0.11" />
<circle cx="26.42" cy="0.00" r="0.11" />
<circle cx="26.56" cy="13.00" r="0.11" />
<circle cx="26.70" cy="0.00" r="0.11" />
<circle cx="26.84" cy="19.00" r="0.11" />
<circle cx="26.98" cy="1.00" r="0.11" />
<circle cx="27.12" cy="11.00" r="0.11" />
<circle cx="27.26" cy="0.00" r="0.11" />
<circle cx="27.40" cy="16.00" r="0.11" />
<circle cx="27.55" cy="17.00" r="0.11" />
<circle cx="27.69" cy="0.00" r="0.11" />
<circle cx="27.83" cy="0.00" r="0.11" />
<circle cx="27.97" cy="8.00" r="0.11" />
<circle cx="28.11" cy="0.00" r="0.11" />
<circle cx="28.25" cy="19.00" r="0.11" />
<circle cx="28.39" cy="2.00" r="0.11" />
<circle cx="28.53" cy="0.00" r="0.11" />
<circle cx="28.68" cy="13.00" r="0.11" />
<circle cx="28.82" cy="0.00" r="0.11" />
<circle cx="28.96" cy="0.00" r="0.11" />
<circle cx="29.10" cy="4.00" r="0.11" />
<circle cx="29.24" cy="5.00" r="0.11" />
<circle cx="29.38" cy="0.00" r="0.11" />
<circle cx="29.52" cy="10.00" r="0.11" />
<circle cx="29.66" cy="20.00" r="0.11" />
<circle cx="29.81" cy="1.00" r="0.11" />
<circle cx="29.95" cy="0.00" r="0.11" />
<circle cx="30.09" cy="15.00" r="0.11" />
<circle cx="30.23" cy="0.00" r="0.11" />
<circle cx="30.37" cy="9.00" r="0.11" />
<circle cx="30.51" cy="0.00" r="0.11" />
<circle cx="30.65" cy="19.00" r="0.11" />
<circle cx="30.79" cy="0.00" r="0.11" />
<circle cx="30.94" cy="5.00" r="0.11" />
<circle cx="31.08" cy="0.00" r="0.11" />
<circle cx="31.22" cy="0.00" r="0.11" />
<circle cx="31.36" cy="0.00" r="0.11" />
<circle cx="31.50" cy="17.00" r="0.11" />
<circle cx="31.64" cy="0.00" r="0.11" />
<circle cx="31.78" cy="3.00" r="0.11" />
<circle cx="31.92" cy="0.00" r="0.11" />
<circle cx="32.07" cy="13.00" r="0.11" />
<circle cx="32.21" cy="0.00" r="0.11" />
<circle cx="32.35" cy="7.00" r="0.11" />
<circle cx="32.49" cy="0.00" r="0.11" />
<circle cx="32.63" cy="21.00" r="0.11" />
<circle cx="32.77" cy="1.00" r="0.11" />
<circle cx="32.91" cy="12.00" r="0.11" />
<circle cx="33.05" cy="8.00" r="0.11" />
<circle cx="33.20" cy="6.00" r="0.11" />
<circle cx="33.34" cy="14.00" r="0.11" />
<circle cx="33.48" cy="4.00" r="0.11" />
<circle cx="33.62" cy="10.00" r="0.11" />
<circle cx="33.76" cy="3.00" r="0.11" />
<circle cx="33.90" cy="18.00" r="0.11" />
<circle cx="34.04" cy="7.00" r="0.11" />
<circle cx="34.18" cy="21.00" r="0.11" />
<circle cx="34.33" cy="2.00" r="0.11" />
<circle cx="34.47" cy="16.00" r="0.11" />
<circle cx="34.61" cy="5.00" r="0.11" />
<circle cx="34.75" cy="20.00" r="0.11" />
<circle cx="34.89" cy="13.00" r="0.11" />
<circle cx="35.03" cy="19.00" r="0.11" />
<circle cx="35.17" cy="9.00" r="0.11" />
<circle cx="35.31" cy="17.00" r="0.11" />
<circle cx="35.46" cy="15.00" r="0.11" />
<circle cx="35.60" cy="11.00" r="0.11" />
<circle cx="35.74" cy="22.00" r="0.11" />
</g>
</svg>