<svg xmlns="http://www.w3.org/2000/svg" width="93.8" height="100.0" viewBox="1.25 -5.00 103.75 110.00">
<g fill="none" stroke="black" stroke-width="0.0800%" transform="translate(0, 100.0000) scale(6.2500, -6.2500)">
<line x1="1.00" y1="0.00" x2="1.00" y2="1.00" />
<line x1="2.00" y1="0.00" x2="2.00" y2="9.00" />
<line x1="3.00" y1="0.00" x2="3.00" y2="6.00" />
<line x1="4.00" y1="0.00" x2="4.00" y2="13.00" />
<line x1="5.00" y1="0.00" x2="5.00" y2="7.00" />
<line x1="6.00" y1="0.00" x2="6.00" y2="3.00" />
<line x1="7.00" y1="0.00" x2="7.00" y2="5.00" />
<line x1="8.00" y1="0.00" x2="8.00" y2="15.00" />
<line x1="9.00" y1="0.00" x2="9.00" y2="2.00" />
<line x1="10.00" y1="0.00" x2="10.00" y2="12.00" />
<line x1="11.00" y1="0.00" x2="11.00" y2="14.00" />
<line x1="12.00" y1="0.00" x2="12.00" y2="10.00" />
<line x1="13.00" y1="0.00" x2="13.00" y2="4.00" />
<line x1="14.00" y1="0.00" x2="14.00" y2="11.00" />
<line x1="15.00" y1="0.00" x2="15.00" y2="8.00" />
<line x1="16.00" y1="0.00" x2="16.00" y2="16.00" />
</g>
</svg>