<svg xmlns="http://www.w3.org/2000/svg" width="161.8" height="100.0" viewBox="-2.39 -55.00 171.80 110.00">
<g fill="none" stroke="black" stroke-width="0.0200%" transform="translate(0, 0.0000) scale(25.0000, -25.0000)">
<line x1="0.10" y1="0.00" x2="0.10" y2="1.00" />
<line x1="0.21" y1="0.00" x2="0.21" y2="1.00" />
<line x1="0.31" y1="0.00" x2="0.31" y2="-1.00" />
<line x1="0.42" y1="0.00" x2="0.42" y2="-2.00" />
<line x1="0.52" y1="0.00" x2="0.52" y2="-1.00" />
<line x1="0.63" y1="0.00" x2="0.63" y2="-1.00" />
<line x1="0.73" y1="0.00" x2="0.73" y2="-1.00" />


<line x1="1.04" y1="0.00" x2="1.04" y2="-1.00" />
<line x1="1.15" y1="0.00" x2="1.15" y2="-1.00" />
<line x1="1.25" y1="0.00" x2="1.25" y2="2.00" />
<line x1="1.36" y1="0.00" x2="1.36" y2="-1.00" />
<line x1="1.46" y1="0.00" x2="1.46" y2="-1.00" />
<line x1="1.57" y1="0.00" x2="1.57" y2="1.00" />

<line x1="1.77" y1="0.00" x2="1.77" y2="-1.00" />

<line x1="1.98" y1="0.00" x2="1.98" y2="-1.00" />
<line x1="2.09" y1="0.00" x2="2.09" y2="2.00" />
<line x1="2.19" y1="0.00" x2="2.19" y2="1.00" />
<line x1="2.30" y1="0.00" x2="2.30" y2="-1.00" />
<line x1="2.40" y1="0.00" x2="2.40" y2="-1.00" />


<line x1="2.71" y1="0.00" x2="2.71" y2="-1.00" />

<line x1="2.92" y1="0.00" x2="2.92" y2="2.00" />
<line x1="3.03" y1="0.00" x2="3.03" y2="-1.00" />
<line x1="3.13" y1="0.00" x2="3.13" y2="1.00" />
<line x1="3.24" y1="0.00" x2="3.24" y2="-1.00" />

<line x1="3.44" y1="0.00" x2="3.44" y2="1.00" />
<line x1="3.55" y1="0.00" x2="3.55" y2="-1.00" />
<line x1="3.65" y1="0.00" x2="3.65" y2="1.00" />

<line x1="3.86" y1="0.00" x2="3.86" y2="-1.00" />
<line x1="3.97" y1="0.00" x2="3.97" y2="-1.00" />
<line x1="4.07" y1="0.00" x2="4.07" y2="1.00" />

<line x1="4.28" y1="0.00" x2="4.28" y2="-1.00" />
<line x1="4.38" y1="0.00" x2="4.38" y2="1.00" />
<line x1="4.49" y1="0.00" x2="4.49" y2="-1.00" />
<line x1="4.59" y1="0.00" x2="4.59" y2="2.00" />

<line x1="4.80" y1="0.00" x2="4.80" y2="-1.00" />
<line x1="4.91" y1="0.00" x2="4.91" y2="-1.00" />



<line x1="5.32" y1="0.00" x2="5.32" y2="1.00" />
<line x1="5.43" y1="0.00" x2="5.43" y2="2.00" />
<line x1="5.53" y1="0.00" x2="5.53" y2="-1.00" />

<line x1="5.74" y1="0.00" x2="5.74" y2="1.00" />

<line x1="5.95" y1="0.00" x2="5.95" y2="1.00" />
<line x1="6.05" y1="0.00" x2="6.05" y2="-1.00" />
<line x1="6.16" y1="0.00" x2="6.16" y2="-1.00" />
<line x1="6.26" y1="0.00" x2="6.26" y2="-2.00" />
<line x1="6.37" y1="0.00" x2="6.37" y2="-1.00" />
<line x1="6.47" y1="0.00" x2="6.47" y2="-1.00" />

</g>
</svg>