<svg xmlns="http://www.w3.org/2000/svg" width="104.9" height="100.0" viewBox="-3.4 -5.0 114.9 110.0">
<g fill="none" stroke="black" stroke-width="0.3050%" transform="translate(0, 100.0000) scale(1.6393, -1.6393)">

<line x1="2.0" y1="0.0" x2="2.0" y2="2.0" />
<line x1="3.0" y1="0.0" x2="3.0" y2="3.0" />
<line x1="4.0" y1="0.0" x2="4.0" y2="2.0" />
<line x1="5.0" y1="0.0" x2="5.0" y2="5.0" />

<line x1="7.0" y1="0.0" x2="7.0" y2="7.0" />
<line x1="8.0" y1="0.0" x2="8.0" y2="2.0" />
<line x1="9.0" y1="0.0" x2="9.0" y2="3.0" />

<line x1="11.0" y1="0.0" x2="11.0" y2="11.0" />

<line x1="13.0" y1="0.0" x2="13.0" y2="13.0" />


<line x1="16.0" y1="0.0" x2="16.0" y2="2.0" />
<line x1="17.0" y1="0.0" x2="17.0" y2="17.0" />

<line x1="19.0" y1="0.0" x2="19.0" y2="19.0" />



<line x1="23.0" y1="0.0" x2="23.0" y2="23.0" />

<line x1="25.0" y1="0.0" x2="25.0" y2="5.0" />

<line x1="27.0" y1="0.0" x2="27.0" y2="3.0" />

<line x1="29.0" y1="0.0" x2="29.0" y2="29.0" />

<line x1="31.0" y1="0.0" x2="31.0" y2="31.0" />
<line x1="32.0" y1="0.0" x2="32.0" y2="2.0" />




<line x1="37.0" y1="0.0" x2="37.0" y2="37.0" />



<line x1="41.0" y1="0.0" x2="41.0" y2="41.0" />

<line x1="43.0" y1="0.0" x2="43.0" y2="43.0" />



<line x1="47.0" y1="0.0" x2="47.0" y2="47.0" />

<line x1="49.0" y1="0.0" x2="49.0" y2="7.0" />



<line x1="53.0" y1="0.0" x2="53.0" y2="53.0" />





<line x1="59.0" y1="0.0" x2="59.0" y2="59.0" />

<line x1="61.0" y1="0.0" x2="61.0" y2="61.0" />


<line x1="64.0" y1="0.0" x2="64.0" y2="2.0" />

</g>
</svg>