<svg xmlns="http://www.w3.org/2000/svg" width="161.8" height="100.0" viewBox="-3.40 3.33 171.80 110.00">
<g fill="none" stroke="black" stroke-width="0.0600%" transform="translate(0, 116.6667) scale(8.3333, -8.3333)">
<circle cx="0.19" cy="1.00" r="0.06" />
<circle cx="0.38" cy="3.00" r="0.06" />
<circle cx="0.58" cy="1.00" r="0.06" />
<circle cx="0.77" cy="5.00" r="0.06" />
<circle cx="0.96" cy="1.00" r="0.06" />
<circle cx="1.15" cy="3.00" r="0.06" />
<circle cx="1.35" cy="1.00" r="0.06" />
<circle cx="1.54" cy="7.00" r="0.06" />
<circle cx="1.73" cy="1.00" r="0.06" />
<circle cx="1.92" cy="3.00" r="0.06" />
<circle cx="2.11" cy="1.00" r="0.06" />
<circle cx="2.31" cy="5.00" r="0.06" />
<circle cx="2.50" cy="1.00" r="0.06" />
<circle cx="2.69" cy="3.00" r="0.06" />
<circle cx="2.88" cy="1.00" r="0.06" />
<circle cx="3.08" cy="9.00" r="0.06" />
<circle cx="3.27" cy="1.00" r="0.06" />
<circle cx="3.46" cy="3.00" r="0.06" />
<circle cx="3.65" cy="1.00" r="0.06" />
<circle cx="3.84" cy="5.00" r="0.06" />
<circle cx="4.04" cy="1.00" r="0.06" />
<circle cx="4.23" cy="3.00" r="0.06" />
<circle cx="4.42" cy="1.00" r="0.06" />
<circle cx="4.61" cy="7.00" r="0.06" />
<circle cx="4.81" cy="1.00" r="0.06" />
<circle cx="5.00" cy="3.00" r="0.06" />
<circle cx="5.19" cy="1.00" r="0.06" />
<circle cx="5.38" cy="5.00" r="0.06" />
<circle cx="5.58" cy="1.00" r="0.06" />
<circle cx="5.77" cy="3.00" r="0.06" />
<circle cx="5.96" cy="1.00" r="0.06" />
<circle cx="6.15" cy="11.00" r="0.06" />
<circle cx="6.34" cy="1.00" r="0.06" />
<circle cx="6.54" cy="3.00" r="0.06" />
<circle cx="6.73" cy="1.00" r="0.06" />
<circle cx="6.92" cy="5.00" r="0.06" />
<circle cx="7.11" cy="1.00" r="0.06" />
<circle cx="7.31" cy="3.00" r="0.06" />
<circle cx="7.50" cy="1.00" r="0.06" />
<circle cx="7.69" cy="7.00" r="0.06" />
<circle cx="7.88" cy="1.00" r="0.06" />
<circle cx="8.07" cy="3.00" r="0.06" />
<circle cx="8.27" cy="1.00" r="0.06" />
<circle cx="8.46" cy="5.00" r="0.06" />
<circle cx="8.65" cy="1.00" r="0.06" />
<circle cx="8.84" cy="3.00" r="0.06" />
<circle cx="9.04" cy="1.00" r="0.06" />
<circle cx="9.23" cy="9.00" r="0.06" />
<circle cx="9.42" cy="1.00" r="0.06" />
<circle cx="9.61" cy="3.00" r="0.06" />
<circle cx="9.80" cy="1.00" r="0.06" />
<circle cx="10.00" cy="5.00" r="0.06" />
<circle cx="10.19" cy="1.00" r="0.06" />
<circle cx="10.38" cy="3.00" r="0.06" />
<circle cx="10.57" cy="1.00" r="0.06" />
<circle cx="10.77" cy="7.00" r="0.06" />
<circle cx="10.96" cy="1.00" r="0.06" />
<circle cx="11.15" cy="3.00" r="0.06" />
<circle cx="11.34" cy="1.00" r="0.06" />
<circle cx="11.53" cy="5.00" r="0.06" />
<circle cx="11.73" cy="1.00" r="0.06" />
<circle cx="11.92" cy="3.00" r="0.06" />
<circle cx="12.11" cy="1.00" r="0.06" />
<circle cx="12.30" cy="13.00" r="0.06" />
<circle cx="12.50" cy="1.00" r="0.06" />
<circle cx="12.69" cy="3.00" r="0.06" />
<circle cx="12.88" cy="1.00" r="0.06" />
<circle cx="13.07" cy="5.00" r="0.06" />
<circle cx="13.26" cy="1.00" r="0.06" />
<circle cx="13.46" cy="3.00" r="0.06" />
<circle cx="13.65" cy="1.00" r="0.06" />
<circle cx="13.84" cy="7.00" r="0.06" />
<circle cx="14.03" cy="1.00" r="0.06" />
<circle cx="14.23" cy="3.00" r="0.06" />
<circle cx="14.42" cy="1.00" r="0.06" />
<circle cx="14.61" cy="5.00" r="0.06" />
<circle cx="14.80" cy="1.00" r="0.06" />
<circle cx="14.99" cy="3.00" r="0.06" />
<circle cx="15.19" cy="1.00" r="0.06" />
<circle cx="15.38" cy="9.00" r="0.06" />
<circle cx="15.57" cy="1.00" r="0.06" />
<circle cx="15.76" cy="3.00" r="0.06" />
<circle cx="15.96" cy="1.00" r="0.06" />
<circle cx="16.15" cy="5.00" r="0.06" />
<circle cx="16.34" cy="1.00" r="0.06" />
<circle cx="16.53" cy="3.00" r="0.06" />
<circle cx="16.73" cy="1.00" r="0.06" />
<circle cx="16.92" cy="7.00" r="0.06" />
<circle cx="17.11" cy="1.00" r="0.06" />
<circle cx="17.30" cy="3.00" r="0.06" />
<circle cx="17.49" cy="1.00" r="0.06" />
<circle cx="17.69" cy="5.00" r="0.06" />
<circle cx="17.88" cy="1.00" r="0.06" />
<circle cx="18.07" cy="3.00" r="0.06" />
<circle cx="18.26" cy="1.00" r="0.06" />
<circle cx="18.46" cy="11.00" r="0.06" />
<circle cx="18.65" cy="1.00" r="0.06" />
<circle cx="18.84" cy="3.00" r="0.06" />
<circle cx="19.03" cy="1.00" r="0.06" />
<circle cx="19.22" cy="5.00" r="0.06" />
<circle cx="19.42" cy="1.00" r="0.06" />
<circle cx="19.61" cy="3.00" r="0.06" />
</g>
</svg>