<svg xmlns="http://www.w3.org/2000/svg" width="161.8" height="100.0" viewBox="-3.936 -55.000 171.803 110.000">
<g fill="none" stroke="black" stroke-width="0.0100%" transform="translate(0, 0.0000) scale(50.0000, -50.0000)">
<line x1="0.021" y1="0.000" x2="0.021" y2="1.000" />
<line x1="0.043" y1="0.000" x2="0.043" y2="-1.000" />
<line x1="0.064" y1="0.000" x2="0.064" y2="1.000" />
<line x1="0.085" y1="0.000" x2="0.085" y2="-1.000" />

<line x1="0.128" y1="0.000" x2="0.128" y2="1.000" />

<line x1="0.170" y1="0.000" x2="0.170" y2="-1.000" />

<line x1="0.213" y1="0.000" x2="0.213" y2="1.000" />
<line x1="0.234" y1="0.000" x2="0.234" y2="-1.000" />



<line x1="0.319" y1="0.000" x2="0.319" y2="1.000" />
<line x1="0.341" y1="0.000" x2="0.341" y2="1.000" />
<line x1="0.362" y1="0.000" x2="0.362" y2="-1.000" />
<line x1="0.383" y1="0.000" x2="0.383" y2="-1.000" />


<line x1="0.447" y1="0.000" x2="0.447" y2="1.000" />
<line x1="0.468" y1="0.000" x2="0.468" y2="-1.000" />





<line x1="0.596" y1="0.000" x2="0.596" y2="1.000" />



<line x1="0.681" y1="0.000" x2="0.681" y2="-1.000" />



<line x1="0.766" y1="0.000" x2="0.766" y2="1.000" />


<line x1="0.830" y1="0.000" x2="0.830" y2="-1.000" />





<line x1="0.958" y1="0.000" x2="0.958" y2="1.000" />
<line x1="0.979" y1="0.000" x2="0.979" y2="1.000" />
<line x1="1.001" y1="0.000" x2="1.001" y2="-1.000" />


<line x1="1.064" y1="0.000" x2="1.064" y2="-1.000" />




<line x1="1.171" y1="0.000" x2="1.171" y2="1.000" />
<line x1="1.192" y1="0.000" x2="1.192" y2="-1.000" />









<line x1="1.405" y1="0.000" x2="1.405" y2="1.000" />

<line x1="1.448" y1="0.000" x2="1.448" y2="1.000" />

<line x1="1.490" y1="0.000" x2="1.490" y2="-1.000" />

<line x1="1.533" y1="0.000" x2="1.533" y2="-1.000" />





<line x1="1.661" y1="0.000" x2="1.661" y2="1.000" />
<line x1="1.682" y1="0.000" x2="1.682" y2="-1.000" />











<line x1="1.937" y1="0.000" x2="1.937" y2="1.000" />
<line x1="1.959" y1="0.000" x2="1.959" y2="1.000" />
<line x1="1.980" y1="0.000" x2="1.980" y2="-1.000" />




<line x1="2.086" y1="0.000" x2="2.086" y2="-1.000" />






<line x1="2.235" y1="0.000" x2="2.235" y2="1.000" />
<line x1="2.257" y1="0.000" x2="2.257" y2="1.000" />

<line x1="2.299" y1="0.000" x2="2.299" y2="-1.000" />

<line x1="2.342" y1="0.000" x2="2.342" y2="-1.000" />









<line x1="2.555" y1="0.000" x2="2.555" y2="1.000" />







<line x1="2.725" y1="0.000" x2="2.725" y2="-1.000" />







<line x1="2.895" y1="0.000" x2="2.895" y2="1.000" />
<line x1="2.917" y1="0.000" x2="2.917" y2="-1.000" />















<line x1="3.257" y1="0.000" x2="3.257" y2="1.000" />
</g>
</svg>