<svg xmlns="http://www.w3.org/2000/svg" width="161.8" height="100.0" viewBox="-4 -5 172 110">
<g fill="none" stroke="black" stroke-width="32.1950%" transform="translate(0, 100.0311) scale(0.0155, -0.0155)">
<circle cx="91" cy="1" r="32" />
<circle cx="183" cy="2" r="32" />
<circle cx="274" cy="5" r="32" />
<circle cx="366" cy="7" r="32" />
<circle cx="457" cy="14" r="32" />
<circle cx="548" cy="13" r="32" />
<circle cx="640" cy="27" r="32" />
<circle cx="731" cy="26" r="32" />
<circle cx="823" cy="39" r="32" />
<circle cx="914" cy="38" r="32" />
<circle cx="1005" cy="65" r="32" />
<circle cx="1097" cy="50" r="32" />
<circle cx="1188" cy="90" r="32" />
<circle cx="1279" cy="75" r="32" />
<circle cx="1371" cy="100" r="32" />
<circle cx="1462" cy="100" r="32" />
<circle cx="1554" cy="152" r="32" />
<circle cx="1645" cy="111" r="32" />
<circle cx="1736" cy="189" r="32" />
<circle cx="1828" cy="148" r="32" />
<circle cx="1919" cy="198" r="32" />
<circle cx="2011" cy="185" r="32" />
<circle cx="2102" cy="275" r="32" />
<circle cx="2193" cy="196" r="32" />
<circle cx="2285" cy="310" r="32" />
<circle cx="2376" cy="258" r="32" />
<circle cx="2468" cy="333" r="32" />
<circle cx="2559" cy="294" r="32" />
<circle cx="2650" cy="434" r="32" />
<circle cx="2742" cy="292" r="32" />
<circle cx="2833" cy="495" r="32" />
<circle cx="2924" cy="392" r="32" />
<circle cx="3016" cy="490" r="32" />
<circle cx="3107" cy="440" r="32" />
<circle cx="3199" cy="588" r="32" />
<circle cx="3290" cy="438" r="32" />
<circle cx="3381" cy="702" r="32" />
<circle cx="3473" cy="549" r="32" />
<circle cx="3564" cy="684" r="32" />
<circle cx="3656" cy="584" r="32" />
<circle cx="3747" cy="860" r="32" />
<circle cx="3838" cy="582" r="32" />
<circle cx="3930" cy="945" r="32" />
<circle cx="4021" cy="730" r="32" />
<circle cx="4113" cy="876" r="32" />
<circle cx="4204" cy="803" r="32" />
<circle cx="4295" cy="1127" r="32" />
<circle cx="4387" cy="776" r="32" />
<circle cx="4478" cy="1197" r="32" />
<circle cx="4570" cy="910" r="32" />
<circle cx="4661" cy="1168" r="32" />
<circle cx="4752" cy="1020" r="32" />
<circle cx="4844" cy="1430" r="32" />
<circle cx="4935" cy="981" r="32" />
<circle cx="5026" cy="1460" r="32" />
<circle cx="5118" cy="1164" r="32" />
<circle cx="5209" cy="1458" r="32" />
<circle cx="5301" cy="1274" r="32" />
<circle cx="5392" cy="1769" r="32" />
<circle cx="5483" cy="1160" r="32" />
<circle cx="5575" cy="1890" r="32" />
<circle cx="5666" cy="1455" r="32" />
<circle cx="5758" cy="1746" r="32" />
<circle cx="5849" cy="1552" r="32" />
<circle cx="5940" cy="2040" r="32" />
<circle cx="6032" cy="1450" r="32" />
<circle cx="6123" cy="2277" r="32" />
<circle cx="6215" cy="1744" r="32" />
<circle cx="6306" cy="2134" r="32" />
<circle cx="6397" cy="1740" r="32" />
<circle cx="6489" cy="2555" r="32" />
<circle cx="6580" cy="1740" r="32" />
<circle cx="6672" cy="2700" r="32" />
<circle cx="6763" cy="2070" r="32" />
<circle cx="6854" cy="2420" r="32" />
<circle cx="6946" cy="2178" r="32" />
<circle cx="7037" cy="2910" r="32" />
<circle cx="7128" cy="2028" r="32" />
<circle cx="7220" cy="3159" r="32" />
<circle cx="7311" cy="2320" r="32" />
<circle cx="7403" cy="2943" r="32" />
<circle cx="7494" cy="2540" r="32" />
<circle cx="7585" cy="3485" r="32" />
<circle cx="7677" cy="2316" r="32" />
<circle cx="7768" cy="3488" r="32" />
<circle cx="7860" cy="2793" r="32" />
<circle cx="7951" cy="3388" r="32" />
<circle cx="8042" cy="2900" r="32" />
<circle cx="8134" cy="4004" r="32" />
<circle cx="8225" cy="2604" r="32" />
<circle cx="8317" cy="4068" r="32" />
<circle cx="8408" cy="3190" r="32" />
<circle cx="8499" cy="3870" r="32" />
<circle cx="8591" cy="3335" r="32" />
<circle cx="8682" cy="4356" r="32" />
<circle cx="8773" cy="3088" r="32" />
<circle cx="8865" cy="4752" r="32" />
<circle cx="8956" cy="3549" r="32" />
<circle cx="9048" cy="4350" r="32" />
<circle cx="9139" cy="3620" r="32" />
<circle cx="9230" cy="5150" r="32" />
<circle cx="9322" cy="3472" r="32" />
<circle cx="9413" cy="5355" r="32" />
<circle cx="9505" cy="4056" r="32" />
<circle cx="9596" cy="4632" r="32" />
<circle cx="9687" cy="4238" r="32" />
<circle cx="9779" cy="5777" r="32" />
<circle cx="9870" cy="3906" r="32" />
<circle cx="9962" cy="5994" r="32" />
<circle cx="10053" cy="4340" r="32" />
<circle cx="10144" cy="5508" r="32" />
<circle cx="10236" cy="4632" r="32" />
<circle cx="10327" cy="6440" r="32" />
<circle cx="10419" cy="4338" r="32" />
<circle cx="10510" cy="6380" r="32" />
</g>
</svg>