<svg xmlns="http://www.w3.org/2000/svg" width="161.8" height="100.0" viewBox="-3.6 -36.3 171.8 110.0">
<g fill="none" stroke="black" stroke-width="0.8000%" transform="translate(0, 37.5000) scale(0.6250, -0.6250)">
<line x1="2.3" y1="0.0" x2="2.3" y2="1.0" />
<line x1="4.5" y1="0.0" x2="4.5" y2="-1.0" />

<line x1="9.1" y1="0.0" x2="9.1" y2="1.0" />
<line x1="11.4" y1="0.0" x2="11.4" y2="2.0" />

<line x1="15.9" y1="0.0" x2="15.9" y2="4.0" />
<line x1="18.2" y1="0.0" x2="18.2" y2="1.0" />
<line x1="20.4" y1="0.0" x2="20.4" y2="3.0" />
<line x1="22.7" y1="0.0" x2="22.7" y2="-2.0" />
<line x1="25.0" y1="0.0" x2="25.0" y2="8.0" />

<line x1="29.5" y1="0.0" x2="29.5" y2="10.0" />
<line x1="31.8" y1="0.0" x2="31.8" y2="-4.0" />

<line x1="36.3" y1="0.0" x2="36.3" y2="2.0" />
<line x1="38.6" y1="0.0" x2="38.6" y2="14.0" />
<line x1="40.9" y1="0.0" x2="40.9" y2="-3.0" />
<line x1="43.1" y1="0.0" x2="43.1" y2="16.0" />
<line x1="45.4" y1="0.0" x2="45.4" y2="2.0" />

<line x1="50.0" y1="0.0" x2="50.0" y2="-8.0" />
<line x1="52.2" y1="0.0" x2="52.2" y2="20.0" />

<line x1="56.8" y1="0.0" x2="56.8" y2="13.0" />
<line x1="59.0" y1="0.0" x2="59.0" y2="-10.0" />
<line x1="61.3" y1="0.0" x2="61.3" y2="8.0" />
<line x1="63.6" y1="0.0" x2="63.6" y2="4.0" />
<line x1="65.9" y1="0.0" x2="65.9" y2="26.0" />

<line x1="70.4" y1="0.0" x2="70.4" y2="28.0" />
<line x1="72.7" y1="0.0" x2="72.7" y2="4.0" />

<line x1="77.2" y1="0.0" x2="77.2" y2="-14.0" />
<line x1="79.5" y1="0.0" x2="79.5" y2="8.0" />
<line x1="81.8" y1="0.0" x2="81.8" y2="3.0" />
<line x1="84.0" y1="0.0" x2="84.0" y2="34.0" />
<line x1="86.3" y1="0.0" x2="86.3" y2="-16.0" />

<line x1="90.8" y1="0.0" x2="90.8" y2="2.0" />
<line x1="93.1" y1="0.0" x2="93.1" y2="38.0" />

<line x1="97.6" y1="0.0" x2="97.6" y2="40.0" />
<line x1="99.9" y1="0.0" x2="99.9" y2="8.0" />
<line x1="102.2" y1="0.0" x2="102.2" y2="6.0" />
<line x1="104.5" y1="0.0" x2="104.5" y2="-20.0" />
<line x1="106.7" y1="0.0" x2="106.7" y2="44.0" />

<line x1="111.3" y1="0.0" x2="111.3" y2="31.0" />
<line x1="113.5" y1="0.0" x2="113.5" y2="-13.0" />

<line x1="118.1" y1="0.0" x2="118.1" y2="10.0" />
<line x1="120.4" y1="0.0" x2="120.4" y2="50.0" />
<line x1="122.6" y1="0.0" x2="122.6" y2="-8.0" />
<line x1="124.9" y1="0.0" x2="124.9" y2="16.0" />
<line x1="127.2" y1="0.0" x2="127.2" y2="4.0" />

<line x1="131.7" y1="0.0" x2="131.7" y2="-26.0" />
<line x1="134.0" y1="0.0" x2="134.0" y2="56.0" />

<line x1="138.5" y1="0.0" x2="138.5" y2="58.0" />
<line x1="140.8" y1="0.0" x2="140.8" y2="-28.0" />
<line x1="143.1" y1="0.0" x2="143.1" y2="12.0" />
<line x1="145.3" y1="0.0" x2="145.3" y2="8.0" />
<line x1="147.6" y1="0.0" x2="147.6" y2="20.0" />

<line x1="152.2" y1="0.0" x2="152.2" y2="64.0" />
<line x1="154.4" y1="0.0" x2="154.4" y2="14.0" />

<line x1="159.0" y1="0.0" x2="159.0" y2="-8.0" />
<line x1="161.2" y1="0.0" x2="161.2" y2="68.0" />
<line x1="163.5" y1="0.0" x2="163.5" y2="3.0" />
<line x1="165.8" y1="0.0" x2="165.8" y2="70.0" />
<line x1="168.0" y1="0.0" x2="168.0" y2="-34.0" />

<line x1="172.6" y1="0.0" x2="172.6" y2="16.0" />
<line x1="174.9" y1="0.0" x2="174.9" y2="32.0" />

<line x1="179.4" y1="0.0" x2="179.4" y2="76.0" />
<line x1="181.7" y1="0.0" x2="181.7" y2="4.0" />
<line x1="183.9" y1="0.0" x2="183.9" y2="24.0" />
<line x1="186.2" y1="0.0" x2="186.2" y2="-38.0" />
<line x1="188.5" y1="0.0" x2="188.5" y2="80.0" />

<line x1="193.0" y1="0.0" x2="193.0" y2="28.0" />
<line x1="195.3" y1="0.0" x2="195.3" y2="-40.0" />

<line x1="199.8" y1="0.0" x2="199.8" y2="8.0" />
<line x1="202.1" y1="0.0" x2="202.1" y2="86.0" />
<line x1="204.4" y1="0.0" x2="204.4" y2="-6.0" />
<line x1="206.7" y1="0.0" x2="206.7" y2="40.0" />
<line x1="208.9" y1="0.0" x2="208.9" y2="20.0" />

<line x1="213.5" y1="0.0" x2="213.5" y2="-44.0" />
<line x1="215.7" y1="0.0" x2="215.7" y2="32.0" />

<line x1="220.3" y1="0.0" x2="220.3" y2="94.0" />
<line x1="222.6" y1="0.0" x2="222.6" y2="-31.0" />
<line x1="224.8" y1="0.0" x2="224.8" y2="24.0" />
<line x1="227.1" y1="0.0" x2="227.1" y2="13.0" />
<line x1="229.4" y1="0.0" x2="229.4" y2="98.0" />

<line x1="233.9" y1="0.0" x2="233.9" y2="100.0" />
<line x1="236.2" y1="0.0" x2="236.2" y2="10.0" />

<line x1="240.7" y1="0.0" x2="240.7" y2="-50.0" />
<line x1="243.0" y1="0.0" x2="243.0" y2="104.0" />
<line x1="245.3" y1="0.0" x2="245.3" y2="8.0" />
<line x1="247.5" y1="0.0" x2="247.5" y2="106.0" />
<line x1="249.8" y1="0.0" x2="249.8" y2="-16.0" />

<line x1="254.3" y1="0.0" x2="254.3" y2="8.0" />
<line x1="256.6" y1="0.0" x2="256.6" y2="110.0" />

<line x1="261.2" y1="0.0" x2="261.2" y2="40.0" />
</g>
</svg>