<svg xmlns="http://www.w3.org/2000/svg" width="161.8" height="100.0" viewBox="-2.4 -55.0 171.8 110.0">
<g fill="none" stroke="black" stroke-width="0.2700%" transform="translate(0, 0.0000) scale(1.8519, -1.8519)">
<line x1="1.4" y1="0.0" x2="1.4" y2="1.0" />
<line x1="2.8" y1="0.0" x2="2.8" y2="-3.0" />
<line x1="4.2" y1="0.0" x2="4.2" y2="-3.0" />
<line x1="5.5" y1="0.0" x2="5.5" y2="3.0" />
<line x1="6.9" y1="0.0" x2="6.9" y2="-3.0" />
<line x1="8.3" y1="0.0" x2="8.3" y2="9.0" />
<line x1="9.7" y1="0.0" x2="9.7" y2="-3.0" />
<line x1="11.1" y1="0.0" x2="11.1" y2="-1.0" />
<line x1="12.5" y1="0.0" x2="12.5" y2="3.0" />
<line x1="13.9" y1="0.0" x2="13.9" y2="9.0" />
<line x1="15.3" y1="0.0" x2="15.3" y2="-3.0" />
<line x1="16.6" y1="0.0" x2="16.6" y2="-9.0" />
<line x1="18.0" y1="0.0" x2="18.0" y2="-3.0" />
<line x1="19.4" y1="0.0" x2="19.4" y2="9.0" />
<line x1="20.8" y1="0.0" x2="20.8" y2="9.0" />

<line x1="23.6" y1="0.0" x2="23.6" y2="-3.0" />
<line x1="25.0" y1="0.0" x2="25.0" y2="-9.0" />
<line x1="26.4" y1="0.0" x2="26.4" y2="-3.0" />
<line x1="27.7" y1="0.0" x2="27.7" y2="-9.0" />
<line x1="29.1" y1="0.0" x2="29.1" y2="9.0" />
<line x1="30.5" y1="0.0" x2="30.5" y2="9.0" />
<line x1="31.9" y1="0.0" x2="31.9" y2="-3.0" />
<line x1="33.3" y1="0.0" x2="33.3" y2="3.0" />
<line x1="34.7" y1="0.0" x2="34.7" y2="3.0" />
<line x1="36.1" y1="0.0" x2="36.1" y2="9.0" />
<line x1="37.4" y1="0.0" x2="37.4" y2="-1.0" />
<line x1="38.8" y1="0.0" x2="38.8" y2="-9.0" />
<line x1="40.2" y1="0.0" x2="40.2" y2="-3.0" />
<line x1="41.6" y1="0.0" x2="41.6" y2="-27.0" />
<line x1="43.0" y1="0.0" x2="43.0" y2="-3.0" />

<line x1="45.8" y1="0.0" x2="45.8" y2="9.0" />
<line x1="47.2" y1="0.0" x2="47.2" y2="9.0" />
<line x1="48.5" y1="0.0" x2="48.5" y2="9.0" />
<line x1="49.9" y1="0.0" x2="49.9" y2="9.0" />
<line x1="51.3" y1="0.0" x2="51.3" y2="-3.0" />
<line x1="52.7" y1="0.0" x2="52.7" y2="9.0" />
<line x1="54.1" y1="0.0" x2="54.1" y2="9.0" />
<line x1="55.5" y1="0.0" x2="55.5" y2="3.0" />
<line x1="56.9" y1="0.0" x2="56.9" y2="-3.0" />
<line x1="58.2" y1="0.0" x2="58.2" y2="-27.0" />
<line x1="59.6" y1="0.0" x2="59.6" y2="-3.0" />
<line x1="61.0" y1="0.0" x2="61.0" y2="-9.0" />
<line x1="62.4" y1="0.0" x2="62.4" y2="-9.0" />
<line x1="63.8" y1="0.0" x2="63.8" y2="9.0" />
<line x1="65.2" y1="0.0" x2="65.2" y2="-3.0" />

<line x1="68.0" y1="0.0" x2="68.0" y2="3.0" />
<line x1="69.3" y1="0.0" x2="69.3" y2="-9.0" />
<line x1="70.7" y1="0.0" x2="70.7" y2="9.0" />
<line x1="72.1" y1="0.0" x2="72.1" y2="-9.0" />
<line x1="73.5" y1="0.0" x2="73.5" y2="-3.0" />
<line x1="74.9" y1="0.0" x2="74.9" y2="3.0" />
<line x1="76.3" y1="0.0" x2="76.3" y2="9.0" />
<line x1="77.7" y1="0.0" x2="77.7" y2="3.0" />
<line x1="79.1" y1="0.0" x2="79.1" y2="9.0" />
<line x1="80.4" y1="0.0" x2="80.4" y2="9.0" />
<line x1="81.8" y1="0.0" x2="81.8" y2="-3.0" />
<line x1="83.2" y1="0.0" x2="83.2" y2="27.0" />
<line x1="84.6" y1="0.0" x2="84.6" y2="-3.0" />
<line x1="86.0" y1="0.0" x2="86.0" y2="9.0" />
<line x1="87.4" y1="0.0" x2="87.4" y2="-9.0" />

</g>
</svg>