<svg xmlns="http://www.w3.org/2000/svg" width="323.6" height="100.0" viewBox="-5.0 -5.0 333.6 110.0">
<g fill="none" stroke="black" stroke-width="0.2000%" transform="translate(0, 100.0000) scale(2.5000, -2.5000)">
<line x1="0.0" y1="0.0" x2="129.4" y2="0.0" />
<line x1="0.0" y1="10.0" x2="129.4" y2="10.0" />
<line x1="0.0" y1="20.0" x2="129.4" y2="20.0" />
<line x1="0.0" y1="30.0" x2="129.4" y2="30.0" />
<line x1="0.0" y1="40.0" x2="129.4" y2="40.0" />
<line x1="0.0" y1="0.0" x2="0.0" y2="40.0" />
<line x1="75.5" y1="30.0" x2="75.5" y2="40.0" />
<line x1="129.4" y1="30.0" x2="129.4" y2="40.0" />
<line x1="21.6" y1="20.0" x2="21.6" y2="30.0" />
<line x1="75.5" y1="20.0" x2="75.5" y2="30.0" />
<line x1="129.4" y1="20.0" x2="129.4" y2="30.0" />
<line x1="21.6" y1="10.0" x2="21.6" y2="20.0" />
<line x1="43.1" y1="10.0" x2="43.1" y2="20.0" />
<line x1="75.5" y1="10.0" x2="75.5" y2="20.0" />
<line x1="97.1" y1="10.0" x2="97.1" y2="20.0" />
<line x1="129.4" y1="10.0" x2="129.4" y2="20.0" />
<line x1="21.6" y1="0.0" x2="21.6" y2="10.0" />
<line x1="43.1" y1="0.0" x2="43.1" y2="10.0" />
<line x1="64.7" y1="0.0" x2="64.7" y2="10.0" />
<line x1="75.5" y1="0.0" x2="75.5" y2="10.0" />
<line x1="97.1" y1="0.0" x2="97.1" y2="10.0" />
<line x1="118.7" y1="0.0" x2="118.7" y2="10.0" />
<line x1="129.4" y1="0.0" x2="129.4" y2="10.0" />
</g>
</svg>