<svg xmlns="http://www.w3.org/2000/svg" width="100.0" height="100.0" viewBox="-55.00 -55.00 110.00 110.00">
<g fill="none" stroke="black" stroke-width="0.0600%" transform="translate(0, 0.0000) scale(8.3333, -8.3333)">
<circle cx="0.00" cy="0.00" r="1.00" />
<circle cx="0.00" cy="0.00" r="2.00" />
<circle cx="0.00" cy="0.00" r="3.00" />
<circle cx="0.00" cy="0.00" r="4.00" />
<circle cx="0.00" cy="0.00" r="5.00" />
<circle cx="0.00" cy="0.00" r="6.00" />
<line x1="0.00" y1="0.00" x2="0.00" y2="1.00" />
<line x1="-0.50" y1="-0.87" x2="-1.00" y2="-1.73" />
<line x1="0.00" y1="1.00" x2="0.00" y2="2.00" />
<line x1="1.73" y1="1.00" x2="2.60" y2="1.50" />
<line x1="-1.00" y1="-1.73" x2="-1.50" y2="-2.60" />
<line x1="0.00" y1="2.00" x2="0.00" y2="3.00" />
<line x1="2.60" y1="1.50" x2="3.46" y2="2.00" />
<line x1="2.60" y1="-1.50" x2="3.46" y2="-2.00" />
<line x1="-1.50" y1="-2.60" x2="-2.00" y2="-3.46" />
<line x1="-3.00" y1="0.00" x2="-4.00" y2="0.00" />
<line x1="0.00" y1="3.00" x2="0.00" y2="4.00" />
<line x1="3.46" y1="2.00" x2="4.33" y2="2.50" />
<line x1="3.46" y1="-2.00" x2="4.33" y2="-2.50" />
<line x1="-0.00" y1="-4.00" x2="-0.00" y2="-5.00" />
<line x1="-2.00" y1="-3.46" x2="-2.50" y2="-4.33" />
<line x1="-4.00" y1="0.00" x2="-5.00" y2="0.00" />
<line x1="-2.00" y1="3.46" x2="-2.50" y2="4.33" />
<line x1="0.00" y1="4.00" x2="0.00" y2="5.00" />
<line x1="2.50" y1="4.33" x2="3.00" y2="5.20" />
<line x1="4.33" y1="2.50" x2="5.20" y2="3.00" />
<line x1="5.00" y1="0.00" x2="6.00" y2="0.00" />
<line x1="4.33" y1="-2.50" x2="5.20" y2="-3.00" />
<line x1="2.50" y1="-4.33" x2="3.00" y2="-5.20" />
<line x1="-0.00" y1="-5.00" x2="-0.00" y2="-6.00" />
<line x1="-2.50" y1="-4.33" x2="-3.00" y2="-5.20" />
<line x1="-4.33" y1="-2.50" x2="-5.20" y2="-3.00" />
<line x1="-5.00" y1="0.00" x2="-6.00" y2="0.00" />
<line x1="-4.33" y1="2.50" x2="-5.20" y2="3.00" />
<line x1="-2.50" y1="4.33" x2="-3.00" y2="5.20" />
<line x1="0.00" y1="5.00" x2="0.00" y2="6.00" />
</g>
</svg>