<svg xmlns="http://www.w3.org/2000/svg" width="100.0" height="100.0" viewBox="-5.00 -51.67 110.00 110.00">
<g fill="none" stroke="black" stroke-width="0.0750%" transform="translate(0, 6.6667) scale(6.6667, -6.6667)">
<polyline points="0.00,0.00 0.00,-1.00 1.00,-1.00 1.00,0.00 2.00,0.00 3.00,0.00 3.00,-1.00 2.00,-1.00 2.00,-2.00 3.00,-2.00 3.00,-3.00 2.00,-3.00 1.00,-3.00 1.00,-2.00 -0.00,-2.00 -0.00,-3.00 -0.00,-4.00 1.00,-4.00 1.00,-5.00 0.00,-5.00 0.00,-6.00 0.00,-7.00 1.00,-7.00 1.00,-6.00 2.00,-6.00 2.00,-7.00 3.00,-7.00 3.00,-6.00 3.00,-5.00 2.00,-5.00 2.00,-4.00 3.00,-4.00 4.00,-4.00 5.00,-4.00 5.00,-5.00 4.00,-5.00 4.00,-6.00 4.00,-7.00 5.00,-7.00 5.00,-6.00 6.00,-6.00 6.00,-7.00 7.00,-7.00 7.00,-6.00 7.00,-5.00 6.00,-5.00 6.00,-4.00 7.00,-4.00 7.00,-3.00 7.00,-2.00 6.00,-2.00 6.00,-3.00 5.00,-3.00 4.00,-3.00 4.00,-2.00 5.00,-2.00 5.00,-1.00 4.00,-1.00 4.00,0.00 5.00,0.00 6.00,0.00 6.00,-1.00 7.00,-1.00 7.00,0.00 8.00,0.00 8.00,-1.00 9.00,-1.00 9.00,0.00 10.00,0.00 11.00,0.00 11.00,-1.00 10.00,-1.00 10.00,-2.00 11.00,-2.00 11.00,-3.00 10.00,-3.00 9.00,-3.00 9.00,-2.00 8.00,-2.00 8.00,-3.00 8.00,-4.00 9.00,-4.00 9.00,-5.00 8.00,-5.00 8.00,-6.00 8.00,-7.00 9.00,-7.00 9.00,-6.00 10.00,-6.00 10.00,-7.00 11.00,-7.00 11.00,-6.00 11.00,-5.00 10.00,-5.00 10.00,-4.00 11.00,-4.00 12.00,-4.00 13.00,-4.00 13.00,-5.00 12.00,-5.00 12.00,-6.00 12.00,-7.00 13.00,-7.00 13.00,-6.00 14.00,-6.00 14.00,-7.00 15.00,-7.00 15.00,-6.00 15.00,-5.00 14.00,-5.00 14.00,-4.00 15.00,-4.00 15.00,-3.00 15.00,-2.00 14.00,-2.00 14.00,-3.00 13.00,-3.00 12.00,-3.00 12.00,-2.00 13.00,-2.00 13.00,-1.00 12.00,-1.00 12.00,0.00 13.00,0.00 14.00,0.00 14.00,-1.00 15.00,-1.00 15.00,0.00 15.00,1.00 15.00,2.00 14.00,2.00 14.00,1.00 13.00,1.00 12.00,1.00 12.00,2.00 13.00,2.00 13.00,3.00 12.00,3.00 12.00,4.00 13.00,4.00 14.00,4.00 14.00,3.00 15.00,3.00 15.00,4.00 15.00,5.00 14.00,5.00 14.00,6.00 15.00,6.00 15.00,7.00 15.00,8.00 14.00,8.00 14.00,7.00 13.00,7.00 13.00,8.00 12.00,8.00 12.00,7.00 12.00,6.00 13.00,6.00 13.00,5.00 12.00,5.00 11.00,5.00 10.00,5.00 10.00,6.00 11.00,6.00 11.00,7.00 11.00,8.00 10.00,8.00 10.00,7.00 9.00,7.00 9.00,8.00 8.00,8.00 8.00,7.00 8.00,6.00 9.00,6.00 9.00,5.00 8.00,5.00 8.00,4.00 8.00,3.00 9.00,3.00 9.00,4.00 10.00,4.00 11.00,4.00 11.00,3.00 10.00,3.00 10.00,2.00 11.00,2.00 11.00,1.00 10.00,1.00 9.00,1.00 9.00,2.00 8.00,2.00 8.00,1.00 7.00,1.00 7.00,2.00 6.00,2.00 6.00,1.00 5.00,1.00 4.00,1.00 4.00,2.00 5.00,2.00 5.00,3.00 4.00,3.00 4.00,4.00 5.00,4.00 6.00,4.00 6.00,3.00 7.00,3.00 7.00,4.00 7.00,5.00 6.00,5.00 6.00,6.00 7.00,6.00 7.00,7.00 7.00,8.00 6.00,8.00 6.00,7.00 5.00,7.00 5.00,8.00 4.00,8.00 4.00,7.00 4.00,6.00 5.00,6.00 5.00,5.00 4.00,5.00 3.00,5.00 2.00,5.00 2.00,6.00 3.00,6.00 3.00,7.00 3.00,8.00 2.00,8.00 2.00,7.00 1.00,7.00 1.00,8.00 -0.00,8.00 -0.00,7.00 -0.00,6.00 1.00,6.00 1.00,5.00 -0.00,5.00 -0.00,4.00 -0.00,3.00 1.00,3.00 1.00,4.00 2.00,4.00 3.00,4.00 3.00,3.00 2.00,3.00 2.00,2.00 3.00,2.00 3.00,1.00 2.00,1.00 1.00,1.00 1.00,2.00 -0.00,2.00 -0.00,1.00" />
</g>
</svg>