<svg xmlns="http://www.w3.org/2000/svg" width="161.8" height="100.0" viewBox="-2 -5 172 110">
<g fill="none" stroke="black" stroke-width="6.8200%" transform="translate(0, 100.0000) scale(0.0733, -0.0733)">
<circle cx="36" cy="0" r="7" />
<circle cx="36" cy="0" r="7" />
<circle cx="71" cy="1" r="7" />
<circle cx="107" cy="4" r="7" />
<circle cx="142" cy="5" r="7" />
<circle cx="178" cy="16" r="7" />
<circle cx="214" cy="17" r="7" />
<circle cx="249" cy="20" r="7" />
<circle cx="285" cy="21" r="7" />
<circle cx="320" cy="64" r="7" />
<circle cx="356" cy="65" r="7" />
<circle cx="392" cy="68" r="7" />
<circle cx="427" cy="69" r="7" />
<circle cx="463" cy="80" r="7" />
<circle cx="498" cy="81" r="7" />
<circle cx="534" cy="84" r="7" />
<circle cx="570" cy="85" r="7" />
<circle cx="605" cy="256" r="7" />
<circle cx="641" cy="257" r="7" />
<circle cx="676" cy="260" r="7" />
<circle cx="712" cy="261" r="7" />
<circle cx="748" cy="272" r="7" />
<circle cx="783" cy="273" r="7" />
<circle cx="819" cy="276" r="7" />
<circle cx="854" cy="277" r="7" />
<circle cx="890" cy="320" r="7" />
<circle cx="926" cy="321" r="7" />
<circle cx="961" cy="324" r="7" />
<circle cx="997" cy="325" r="7" />
<circle cx="1032" cy="336" r="7" />
<circle cx="1068" cy="337" r="7" />
<circle cx="1103" cy="340" r="7" />
<circle cx="1139" cy="341" r="7" />
<circle cx="1175" cy="1024" r="7" />
<circle cx="1210" cy="1025" r="7" />
<circle cx="1246" cy="1028" r="7" />
<circle cx="1281" cy="1029" r="7" />
<circle cx="1317" cy="1040" r="7" />
<circle cx="1353" cy="1041" r="7" />
<circle cx="1388" cy="1044" r="7" />
<circle cx="1424" cy="1045" r="7" />
<circle cx="1459" cy="1088" r="7" />
<circle cx="1495" cy="1089" r="7" />
<circle cx="1531" cy="1092" r="7" />
<circle cx="1566" cy="1093" r="7" />
<circle cx="1602" cy="1104" r="7" />
<circle cx="1637" cy="1105" r="7" />
<circle cx="1673" cy="1108" r="7" />
<circle cx="1709" cy="1109" r="7" />
<circle cx="1744" cy="1280" r="7" />
<circle cx="1780" cy="1281" r="7" />
<circle cx="1815" cy="1284" r="7" />
<circle cx="1851" cy="1285" r="7" />
<circle cx="1887" cy="1296" r="7" />
<circle cx="1922" cy="1297" r="7" />
<circle cx="1958" cy="1300" r="7" />
<circle cx="1993" cy="1301" r="7" />
<circle cx="2029" cy="1344" r="7" />
<circle cx="2065" cy="1345" r="7" />
<circle cx="2100" cy="1348" r="7" />
<circle cx="2136" cy="1349" r="7" />
<circle cx="2171" cy="1360" r="7" />
<circle cx="2207" cy="1361" r="7" />
<circle cx="2243" cy="1364" r="7" />
</g>
</svg>