<svg xmlns="http://www.w3.org/2000/svg" width="105.0" height="100.0" viewBox="-1.9 -5.0 115.0 110.0">
<g fill="none" stroke="black" stroke-width="0.1619%" transform="translate(0, 100.0000) scale(3.0887, -3.0887)">


<line x1="3.0" y1="0.0" x2="3.0" y2="0.7" />
<line x1="4.0" y1="0.0" x2="4.0" y2="1.4" />
<line x1="5.0" y1="0.0" x2="5.0" y2="2.2" />
<line x1="6.0" y1="0.0" x2="6.0" y2="3.0" />
<line x1="7.0" y1="0.0" x2="7.0" y2="3.9" />
<line x1="8.0" y1="0.0" x2="8.0" y2="4.8" />
<line x1="9.0" y1="0.0" x2="9.0" y2="5.8" />
<line x1="10.0" y1="0.0" x2="10.0" y2="6.7" />
<line x1="11.0" y1="0.0" x2="11.0" y2="7.7" />
<line x1="12.0" y1="0.0" x2="12.0" y2="8.7" />
<line x1="13.0" y1="0.0" x2="13.0" y2="9.6" />
<line x1="14.0" y1="0.0" x2="14.0" y2="10.6" />
<line x1="15.0" y1="0.0" x2="15.0" y2="11.6" />
<line x1="16.0" y1="0.0" x2="16.0" y2="12.6" />
<line x1="17.0" y1="0.0" x2="17.0" y2="13.7" />
<line x1="18.0" y1="0.0" x2="18.0" y2="14.7" />
<line x1="19.0" y1="0.0" x2="19.0" y2="15.7" />
<line x1="20.0" y1="0.0" x2="20.0" y2="16.7" />
<line x1="21.0" y1="0.0" x2="21.0" y2="17.7" />
<line x1="22.0" y1="0.0" x2="22.0" y2="18.8" />
<line x1="23.0" y1="0.0" x2="23.0" y2="19.8" />
<line x1="24.0" y1="0.0" x2="24.0" y2="20.8" />
<line x1="25.0" y1="0.0" x2="25.0" y2="21.9" />
<line x1="26.0" y1="0.0" x2="26.0" y2="22.9" />
<line x1="27.0" y1="0.0" x2="27.0" y2="24.0" />
<line x1="28.0" y1="0.0" x2="28.0" y2="25.0" />
<line x1="29.0" y1="0.0" x2="29.0" y2="26.1" />
<line x1="30.0" y1="0.0" x2="30.0" y2="27.1" />
<line x1="31.0" y1="0.0" x2="31.0" y2="28.2" />
<line x1="32.0" y1="0.0" x2="32.0" y2="29.2" />
<line x1="33.0" y1="0.0" x2="33.0" y2="30.3" />
<line x1="34.0" y1="0.0" x2="34.0" y2="31.3" />
<line x1="35.0" y1="0.0" x2="35.0" y2="32.4" />
</g>
</svg>