<svg xmlns="http://www.w3.org/2000/svg" width="93.5" height="100.0" viewBox="-0.08 -6.62 103.46 110.00">
<g fill="none" stroke="black" stroke-width="0.1016%" transform="translate(0, 96.7639) scale(4.9191, -4.9191)">
<circle cx="1.00" cy="0.00" r="0.10" />
<polyline points="1.00,1.00 2.00,2.00 3.00,3.00 4.00,4.00 5.00,5.00 6.00,6.00 7.00,7.00 8.00,8.00 9.00,9.00 10.00,10.00 11.00,11.00 12.00,12.00 13.00,13.00 14.00,14.00 15.00,15.00 16.00,16.00 17.00,17.00 18.00,18.00 19.00,19.00 20.00,20.00" />
<polyline points="1.00,-0.33 2.00,1.62 3.00,2.78 4.00,4.55 5.00,6.70 6.00,5.00 7.00,7.34 8.00,6.25 9.00,7.07 10.00,9.05 11.00,11.87 12.00,12.42 13.00,14.24 14.00,15.93 15.00,16.55 16.00,17.32 17.00,15.51 18.00,17.14 19.00,19.97 20.00,19.49" />
<polyline points="1.00,1.36 2.00,2.98 3.00,4.68 4.00,5.41 5.00,6.34 6.00,6.20 7.00,6.89 8.00,7.46 9.00,9.33 10.00,11.11 11.00,12.84 12.00,14.19 13.00,15.57 14.00,16.60 15.00,16.46 16.00,16.66 17.00,17.54 18.00,18.87" />
</g>
</svg>