<svg xmlns="http://www.w3.org/2000/svg" width="161.8" height="100.0" viewBox="-3.37 -5.00 171.80 110.00">
<g fill="none" stroke="black" stroke-width="0.0200%" transform="translate(0, 100.0000) scale(25.0000, -25.0000)">
<circle cx="0.07" cy="0.00" r="0.02" />
<circle cx="0.13" cy="0.00" r="0.02" />
<circle cx="0.20" cy="0.00" r="0.02" />
<circle cx="0.26" cy="0.00" r="0.02" />
<circle cx="0.33" cy="0.00" r="0.02" />
<circle cx="0.39" cy="0.00" r="0.02" />
<circle cx="0.46" cy="0.00" r="0.02" />
<circle cx="0.52" cy="0.00" r="0.02" />
<circle cx="0.59" cy="0.00" r="0.02" />
<circle cx="0.65" cy="1.00" r="0.02" />
<circle cx="0.72" cy="1.00" r="0.02" />
<circle cx="0.78" cy="1.00" r="0.02" />
<circle cx="0.85" cy="1.00" r="0.02" />
<circle cx="0.92" cy="1.00" r="0.02" />
<circle cx="0.98" cy="1.00" r="0.02" />
<circle cx="1.05" cy="1.00" r="0.02" />
<circle cx="1.11" cy="1.00" r="0.02" />
<circle cx="1.18" cy="1.00" r="0.02" />
<circle cx="1.24" cy="1.00" r="0.02" />
<circle cx="1.31" cy="1.00" r="0.02" />
<circle cx="1.37" cy="1.00" r="0.02" />
<circle cx="1.44" cy="1.00" r="0.02" />
<circle cx="1.50" cy="1.00" r="0.02" />
<circle cx="1.57" cy="1.00" r="0.02" />
<circle cx="1.63" cy="2.00" r="0.02" />
<circle cx="1.70" cy="2.00" r="0.02" />
<circle cx="1.77" cy="2.00" r="0.02" />
<circle cx="1.83" cy="2.00" r="0.02" />
<circle cx="1.90" cy="2.00" r="0.02" />
<circle cx="1.96" cy="1.00" r="0.02" />
<circle cx="2.03" cy="1.00" r="0.02" />
<circle cx="2.09" cy="1.00" r="0.02" />
<circle cx="2.16" cy="1.00" r="0.02" />
<circle cx="2.22" cy="2.00" r="0.02" />
<circle cx="2.29" cy="2.00" r="0.02" />
<circle cx="2.35" cy="2.00" r="0.02" />
<circle cx="2.42" cy="2.00" r="0.02" />
<circle cx="2.48" cy="2.00" r="0.02" />
<circle cx="2.55" cy="3.00" r="0.02" />
<circle cx="2.62" cy="1.00" r="0.02" />
<circle cx="2.68" cy="1.00" r="0.02" />
<circle cx="2.75" cy="1.00" r="0.02" />
<circle cx="2.81" cy="2.00" r="0.02" />
<circle cx="2.88" cy="2.00" r="0.02" />
<circle cx="2.94" cy="2.00" r="0.02" />
<circle cx="3.01" cy="2.00" r="0.02" />
<circle cx="3.07" cy="3.00" r="0.02" />
<circle cx="3.14" cy="2.00" r="0.02" />
<circle cx="3.20" cy="3.00" r="0.02" />
<circle cx="3.27" cy="1.00" r="0.02" />
<circle cx="3.33" cy="1.00" r="0.02" />
<circle cx="3.40" cy="2.00" r="0.02" />
<circle cx="3.46" cy="2.00" r="0.02" />
<circle cx="3.53" cy="2.00" r="0.02" />
<circle cx="3.60" cy="3.00" r="0.02" />
<circle cx="3.66" cy="2.00" r="0.02" />
<circle cx="3.73" cy="3.00" r="0.02" />
<circle cx="3.79" cy="2.00" r="0.02" />
<circle cx="3.86" cy="3.00" r="0.02" />
<circle cx="3.92" cy="1.00" r="0.02" />
<circle cx="3.99" cy="1.00" r="0.02" />
<circle cx="4.05" cy="2.00" r="0.02" />
<circle cx="4.12" cy="2.00" r="0.02" />
<circle cx="4.18" cy="2.00" r="0.02" />
<circle cx="4.25" cy="2.00" r="0.02" />
<circle cx="4.31" cy="3.00" r="0.02" />
<circle cx="4.38" cy="2.00" r="0.02" />
<circle cx="4.45" cy="3.00" r="0.02" />
<circle cx="4.51" cy="3.00" r="0.02" />
<circle cx="4.58" cy="1.00" r="0.02" />
<circle cx="4.64" cy="1.00" r="0.02" />
<circle cx="4.71" cy="2.00" r="0.02" />
<circle cx="4.77" cy="2.00" r="0.02" />
<circle cx="4.84" cy="3.00" r="0.02" />
<circle cx="4.90" cy="3.00" r="0.02" />
<circle cx="4.97" cy="2.00" r="0.02" />
<circle cx="5.03" cy="4.00" r="0.02" />
<circle cx="5.10" cy="3.00" r="0.02" />
<circle cx="5.16" cy="3.00" r="0.02" />
<circle cx="5.23" cy="1.00" r="0.02" />
<circle cx="5.30" cy="1.00" r="0.02" />
<circle cx="5.36" cy="2.00" r="0.02" />
<circle cx="5.43" cy="2.00" r="0.02" />
<circle cx="5.49" cy="2.00" r="0.02" />
<circle cx="5.56" cy="2.00" r="0.02" />
<circle cx="5.62" cy="3.00" r="0.02" />
<circle cx="5.69" cy="3.00" r="0.02" />
<circle cx="5.75" cy="3.00" r="0.02" />
<circle cx="5.82" cy="3.00" r="0.02" />
<circle cx="5.88" cy="1.00" r="0.02" />
<circle cx="5.95" cy="1.00" r="0.02" />
<circle cx="6.01" cy="2.00" r="0.02" />
<circle cx="6.08" cy="3.00" r="0.02" />
<circle cx="6.15" cy="3.00" r="0.02" />
<circle cx="6.21" cy="3.00" r="0.02" />
<circle cx="6.28" cy="3.00" r="0.02" />
<circle cx="6.34" cy="3.00" r="0.02" />
<circle cx="6.41" cy="3.00" r="0.02" />
<circle cx="6.47" cy="2.00" r="0.02" />
<circle cx="6.54" cy="1.00" r="0.02" />
</g>
</svg>