<svg xmlns="http://www.w3.org/2000/svg" width="160.9" height="100.0" viewBox="-2 -5 171 110">
<g fill="none" stroke="black" stroke-width="1.8900%" transform="translate(0, 100.0000) scale(0.2646, -0.2646)">
<line x1="11" y1="0" x2="11" y2="2" />
<line x1="23" y1="0" x2="23" y2="3" />
<line x1="34" y1="0" x2="34" y2="6" />
<line x1="45" y1="0" x2="45" y2="11" />
<line x1="56" y1="0" x2="56" y2="14" />
<line x1="68" y1="0" x2="68" y2="18" />
<line x1="79" y1="0" x2="79" y2="23" />
<line x1="90" y1="0" x2="90" y2="26" />
<line x1="101" y1="0" x2="101" y2="30" />
<line x1="113" y1="0" x2="113" y2="35" />
<line x1="124" y1="0" x2="124" y2="39" />
<line x1="135" y1="0" x2="135" y2="50" />
<line x1="146" y1="0" x2="146" y2="51" />
<line x1="158" y1="0" x2="158" y2="74" />
<line x1="169" y1="0" x2="169" y2="83" />
<line x1="180" y1="0" x2="180" y2="86" />
<line x1="192" y1="0" x2="192" y2="90" />
<line x1="203" y1="0" x2="203" y2="95" />
<line x1="214" y1="0" x2="214" y2="98" />
<line x1="225" y1="0" x2="225" y2="99" />
<line x1="237" y1="0" x2="237" y2="119" />
<line x1="248" y1="0" x2="248" y2="131" />
<line x1="259" y1="0" x2="259" y2="134" />
<line x1="270" y1="0" x2="270" y2="135" />
<line x1="282" y1="0" x2="282" y2="146" />
<line x1="293" y1="0" x2="293" y2="155" />
<line x1="304" y1="0" x2="304" y2="158" />
<line x1="315" y1="0" x2="315" y2="174" />
<line x1="327" y1="0" x2="327" y2="179" />
<line x1="338" y1="0" x2="338" y2="183" />
<line x1="349" y1="0" x2="349" y2="186" />
<line x1="361" y1="0" x2="361" y2="191" />
<line x1="372" y1="0" x2="372" y2="194" />
<line x1="383" y1="0" x2="383" y2="210" />
<line x1="394" y1="0" x2="394" y2="230" />
<line x1="406" y1="0" x2="406" y2="231" />
<line x1="417" y1="0" x2="417" y2="239" />
<line x1="428" y1="0" x2="428" y2="243" />
<line x1="439" y1="0" x2="439" y2="251" />
<line x1="451" y1="0" x2="451" y2="254" />
<line x1="462" y1="0" x2="462" y2="270" />
<line x1="473" y1="0" x2="473" y2="278" />
<line x1="484" y1="0" x2="484" y2="299" />
<line x1="496" y1="0" x2="496" y2="303" />
<line x1="507" y1="0" x2="507" y2="306" />
<line x1="518" y1="0" x2="518" y2="323" />
<line x1="530" y1="0" x2="530" y2="326" />
<line x1="541" y1="0" x2="541" y2="330" />
<line x1="552" y1="0" x2="552" y2="338" />
<line x1="563" y1="0" x2="563" y2="350" />
<line x1="575" y1="0" x2="575" y2="354" />
<line x1="586" y1="0" x2="586" y2="359" />
<line x1="597" y1="0" x2="597" y2="371" />
<line x1="608" y1="0" x2="608" y2="375" />
<line x1="620" y1="0" x2="620" y2="378" />
</g>
</svg>