<svg xmlns="http://www.w3.org/2000/svg" width="96" height="96" viewBox="0 0 96 96">
<g stroke="none" transform="translate(0, 0) scale(1, 1)">
<rect x="0" y="0" width="8" height="8" fill="rgba(255,255,255,0)"/>
<rect x="0" y="8" width="8" height="8" fill="rgb(243,243,243)"/>
<rect x="0" y="16" width="8" height="8" fill="rgb(220,220,220)"/>
<rect x="0" y="24" width="8" height="8" fill="rgb(209,209,209)"/>
<rect x="0" y="32" width="8" height="8" fill="rgb(232,232,232)"/>
<rect x="0" y="40" width="8" height="8" fill="rgb(197,197,197)"/>
<rect x="0" y="48" width="8" height="8" fill="rgb(232,232,232)"/>
<rect x="0" y="56" width="8" height="8" fill="rgba(255,255,255,0)"/>
<rect x="0" y="64" width="8" height="8" fill="rgba(255,255,255,0)"/>
<rect x="0" y="72" width="8" height="8" fill="rgba(255,255,255,0)"/>
<rect x="0" y="80" width="8" height="8" fill="rgba(255,255,255,0)"/>
<rect x="0" y="88" width="8" height="8" fill="rgba(255,255,255,0)"/>
<rect x="8" y="0" width="8" height="8" fill="rgba(255,255,255,0)"/>
<rect x="8" y="8" width="8" height="8" fill="rgb(243,243,243)"/>
<rect x="8" y="16" width="8" height="8" fill="rgb(243,243,243)"/>
<rect x="8" y="24" width="8" height="8" fill="rgb(232,232,232)"/>
<rect x="8" y="32" width="8" height="8" fill="rgb(209,209,209)"/>
<rect x="8" y="40" width="8" height="8" fill="rgb(209,209,209)"/>
<rect x="8" y="48" width="8" height="8" fill="rgb(209,209,209)"/>
<rect x="8" y="56" width="8" height="8" fill="rgb(232,232,232)"/>
<rect x="8" y="64" width="8" height="8" fill="rgba(255,255,255,0)"/>
<rect x="8" y="72" width="8" height="8" fill="rgb(243,243,243)"/>
<rect x="8" y="80" width="8" height="8" fill="rgba(255,255,255,0)"/>
<rect x="8" y="88" width="8" height="8" fill="rgba(255,255,255,0)"/>
<rect x="16" y="0" width="8" height="8" fill="rgb(243,243,243)"/>
<rect x="16" y="8" width="8" height="8" fill="rgba(255,255,255,0)"/>
<rect x="16" y="16" width="8" height="8" fill="rgba(255,255,255,0)"/>
<rect x="16" y="24" width="8" height="8" fill="rgba(255,255,255,0)"/>
<rect x="16" y="32" width="8" height="8" fill="rgb(162,162,162)"/>
<rect x="16" y="40" width="8" height="8" fill="rgb(185,185,185)"/>
<rect x="16" y="48" width="8" height="8" fill="rgb(232,232,232)"/>
<rect x="16" y="56" width="8" height="8" fill="rgba(255,255,255,0)"/>
<rect x="16" y="64" width="8" height="8" fill="rgb(243,243,243)"/>
<rect x="16" y="72" width="8" height="8" fill="rgb(243,243,243)"/>
<rect x="16" y="80" width="8" height="8" fill="rgba(255,255,255,0)"/>
<rect x="16" y="88" width="8" height="8" fill="rgba(255,255,255,0)"/>
<rect x="24" y="0" width="8" height="8" fill="rgba(255,255,255,0)"/>
<rect x="24" y="8" width="8" height="8" fill="rgb(220,220,220)"/>
<rect x="24" y="16" width="8" height="8" fill="rgb(220,220,220)"/>
<rect x="24" y="24" width="8" height="8" fill="rgb(209,209,209)"/>
<rect x="24" y="32" width="8" height="8" fill="rgb(174,174,174)"/>
<rect x="24" y="40" width="8" height="8" fill="rgb(139,139,139)"/>
<rect x="24" y="48" width="8" height="8" fill="rgb(139,139,139)"/>
<rect x="24" y="56" width="8" height="8" fill="rgb(185,185,185)"/>
<rect x="24" y="64" width="8" height="8" fill="rgb(197,197,197)"/>
<rect x="24" y="72" width="8" height="8" fill="rgb(243,243,243)"/>
<rect x="24" y="80" width="8" height="8" fill="rgba(255,255,255,0)"/>
<rect x="24" y="88" width="8" height="8" fill="rgba(255,255,255,0)"/>
<rect x="32" y="0" width="8" height="8" fill="rgb(243,243,243)"/>
<rect x="32" y="8" width="8" height="8" fill="rgba(255,255,255,0)"/>
<rect x="32" y="16" width="8" height="8" fill="rgb(243,243,243)"/>
<rect x="32" y="24" width="8" height="8" fill="rgb(197,197,197)"/>
<rect x="32" y="32" width="8" height="8" fill="rgb(128,128,128)"/>
<rect x="32" y="40" width="8" height="8" fill="rgb(46,46,46)"/>
<rect x="32" y="48" width="8" height="8" fill="rgb(139,139,139)"/>
<rect x="32" y="56" width="8" height="8" fill="rgb(162,162,162)"/>
<rect x="32" y="64" width="8" height="8" fill="rgb(232,232,232)"/>
<rect x="32" y="72" width="8" height="8" fill="rgb(232,232,232)"/>
<rect x="32" y="80" width="8" height="8" fill="rgba(255,255,255,0)"/>
<rect x="32" y="88" width="8" height="8" fill="rgba(255,255,255,0)"/>
<rect x="40" y="0" width="8" height="8" fill="rgba(255,255,255,0)"/>
<rect x="40" y="8" width="8" height="8" fill="rgba(255,255,255,0)"/>
<rect x="40" y="16" width="8" height="8" fill="rgba(255,255,255,0)"/>
<rect x="40" y="24" width="8" height="8" fill="rgb(220,220,220)"/>
<rect x="40" y="32" width="8" height="8" fill="rgb(174,174,174)"/>
<rect x="40" y="40" width="8" height="8" fill="rgb(35,35,35)"/>
<rect x="40" y="48" width="8" height="8" fill="rgb(128,128,128)"/>
<rect x="40" y="56" width="8" height="8" fill="rgb(151,151,151)"/>
<rect x="40" y="64" width="8" height="8" fill="rgb(151,151,151)"/>
<rect x="40" y="72" width="8" height="8" fill="rgba(255,255,255,0)"/>
<rect x="40" y="80" width="8" height="8" fill="rgba(255,255,255,0)"/>
<rect x="40" y="88" width="8" height="8" fill="rgba(255,255,255,0)"/>
<rect x="48" y="0" width="8" height="8" fill="rgba(255,255,255,0)"/>
<rect x="48" y="8" width="8" height="8" fill="rgba(255,255,255,0)"/>
<rect x="48" y="16" width="8" height="8" fill="rgb(232,232,232)"/>
<rect x="48" y="24" width="8" height="8" fill="rgb(209,209,209)"/>
<rect x="48" y="32" width="8" height="8" fill="rgb(174,174,174)"/>
<rect x="48" y="40" width="8" height="8" fill="rgb(104,104,104)"/>
<rect x="48" y="48" width="8" height="8" fill="rgb(58,58,58)"/>
<rect x="48" y="56" width="8" height="8" fill="rgb(139,139,139)"/>
<rect x="48" y="64" width="8" height="8" fill="rgb(174,174,174)"/>
<rect x="48" y="72" width="8" height="8" fill="rgba(255,255,255,0)"/>
<rect x="48" y="80" width="8" height="8" fill="rgb(243,243,243)"/>
<rect x="48" y="88" width="8" height="8" fill="rgba(255,255,255,0)"/>
<rect x="56" y="0" width="8" height="8" fill="rgba(255,255,255,0)"/>
<rect x="56" y="8" width="8" height="8" fill="rgba(255,255,255,0)"/>
<rect x="56" y="16" width="8" height="8" fill="rgba(255,255,255,0)"/>
<rect x="56" y="24" width="8" height="8" fill="rgb(232,232,232)"/>
<rect x="56" y="32" width="8" height="8" fill="rgb(174,174,174)"/>
<rect x="56" y="40" width="8" height="8" fill="rgb(0,0,0)"/>
<rect x="56" y="48" width="8" height="8" fill="rgb(46,46,46)"/>
<rect x="56" y="56" width="8" height="8" fill="rgb(128,128,128)"/>
<rect x="56" y="64" width="8" height="8" fill="rgb(209,209,209)"/>
<rect x="56" y="72" width="8" height="8" fill="rgb(232,232,232)"/>
<rect x="56" y="80" width="8" height="8" fill="rgba(255,255,255,0)"/>
<rect x="56" y="88" width="8" height="8" fill="rgba(255,255,255,0)"/>
<rect x="64" y="0" width="8" height="8" fill="rgba(255,255,255,0)"/>
<rect x="64" y="8" width="8" height="8" fill="rgba(255,255,255,0)"/>
<rect x="64" y="16" width="8" height="8" fill="rgb(243,243,243)"/>
<rect x="64" y="24" width="8" height="8" fill="rgb(220,220,220)"/>
<rect x="64" y="32" width="8" height="8" fill="rgb(220,220,220)"/>
<rect x="64" y="40" width="8" height="8" fill="rgb(174,174,174)"/>
<rect x="64" y="48" width="8" height="8" fill="rgb(162,162,162)"/>
<rect x="64" y="56" width="8" height="8" fill="rgb(197,197,197)"/>
<rect x="64" y="64" width="8" height="8" fill="rgb(197,197,197)"/>
<rect x="64" y="72" width="8" height="8" fill="rgb(220,220,220)"/>
<rect x="64" y="80" width="8" height="8" fill="rgba(255,255,255,0)"/>
<rect x="64" y="88" width="8" height="8" fill="rgba(255,255,255,0)"/>
<rect x="72" y="0" width="8" height="8" fill="rgba(255,255,255,0)"/>
<rect x="72" y="8" width="8" height="8" fill="rgba(255,255,255,0)"/>
<rect x="72" y="16" width="8" height="8" fill="rgba(255,255,255,0)"/>
<rect x="72" y="24" width="8" height="8" fill="rgb(220,220,220)"/>
<rect x="72" y="32" width="8" height="8" fill="rgb(185,185,185)"/>
<rect x="72" y="40" width="8" height="8" fill="rgb(151,151,151)"/>
<rect x="72" y="48" width="8" height="8" fill="rgb(151,151,151)"/>
<rect x="72" y="56" width="8" height="8" fill="rgb(197,197,197)"/>
<rect x="72" y="64" width="8" height="8" fill="rgb(197,197,197)"/>
<rect x="72" y="72" width="8" height="8" fill="rgba(255,255,255,0)"/>
<rect x="72" y="80" width="8" height="8" fill="rgb(243,243,243)"/>
<rect x="72" y="88" width="8" height="8" fill="rgb(243,243,243)"/>
<rect x="80" y="0" width="8" height="8" fill="rgba(255,255,255,0)"/>
<rect x="80" y="8" width="8" height="8" fill="rgba(255,255,255,0)"/>
<rect x="80" y="16" width="8" height="8" fill="rgb(243,243,243)"/>
<rect x="80" y="24" width="8" height="8" fill="rgb(243,243,243)"/>
<rect x="80" y="32" width="8" height="8" fill="rgb(232,232,232)"/>
<rect x="80" y="40" width="8" height="8" fill="rgb(209,209,209)"/>
<rect x="80" y="48" width="8" height="8" fill="rgb(243,243,243)"/>
<rect x="80" y="56" width="8" height="8" fill="rgb(209,209,209)"/>
<rect x="80" y="64" width="8" height="8" fill="rgb(232,232,232)"/>
<rect x="80" y="72" width="8" height="8" fill="rgba(255,255,255,0)"/>
<rect x="80" y="80" width="8" height="8" fill="rgb(243,243,243)"/>
<rect x="80" y="88" width="8" height="8" fill="rgba(255,255,255,0)"/>
<rect x="88" y="0" width="8" height="8" fill="rgba(255,255,255,0)"/>
<rect x="88" y="8" width="8" height="8" fill="rgba(255,255,255,0)"/>
<rect x="88" y="16" width="8" height="8" fill="rgba(255,255,255,0)"/>
<rect x="88" y="24" width="8" height="8" fill="rgba(255,255,255,0)"/>
<rect x="88" y="32" width="8" height="8" fill="rgb(243,243,243)"/>
<rect x="88" y="40" width="8" height="8" fill="rgb(197,197,197)"/>
<rect x="88" y="48" width="8" height="8" fill="rgba(255,255,255,0)"/>
<rect x="88" y="56" width="8" height="8" fill="rgb(220,220,220)"/>
<rect x="88" y="64" width="8" height="8" fill="rgb(243,243,243)"/>
<rect x="88" y="72" width="8" height="8" fill="rgba(255,255,255,0)"/>
<rect x="88" y="80" width="8" height="8" fill="rgb(232,232,232)"/>
<rect x="88" y="88" width="8" height="8" fill="rgb(243,243,243)"/>
</g>
</svg>