<svg xmlns="http://www.w3.org/2000/svg" width="161.8" height="100.0" viewBox="-4 -5 172 110">
<g fill="none" stroke="black" stroke-width="4.2800%" transform="translate(0, 100.4673) scale(0.1168, -0.1168)">
<circle cx="9" cy="2" r="4" />
<circle cx="19" cy="4" r="4" />
<circle cx="28" cy="3" r="4" />
<circle cx="37" cy="10" r="4" />
<circle cx="47" cy="12" r="4" />
<circle cx="56" cy="8" r="4" />
<circle cx="66" cy="18" r="4" />
<circle cx="75" cy="11" r="4" />
<circle cx="84" cy="28" r="4" />
<circle cx="94" cy="5" r="4" />
<circle cx="103" cy="36" r="4" />
<circle cx="112" cy="20" r="4" />
<circle cx="122" cy="14" r="4" />
<circle cx="131" cy="23" r="4" />
<circle cx="140" cy="52" r="4" />
<circle cx="150" cy="58" r="4" />
<circle cx="159" cy="60" r="4" />
<circle cx="168" cy="66" r="4" />
<circle cx="178" cy="35" r="4" />
<circle cx="187" cy="9" r="4" />
<circle cx="197" cy="39" r="4" />
<circle cx="206" cy="82" r="4" />
<circle cx="215" cy="11" r="4" />
<circle cx="225" cy="48" r="4" />
<circle cx="234" cy="100" r="4" />
<circle cx="243" cy="51" r="4" />
<circle cx="253" cy="106" r="4" />
<circle cx="262" cy="36" r="4" />
<circle cx="271" cy="28" r="4" />
<circle cx="281" cy="7" r="4" />
<circle cx="290" cy="130" r="4" />
<circle cx="299" cy="68" r="4" />
<circle cx="309" cy="138" r="4" />
<circle cx="318" cy="148" r="4" />
<circle cx="328" cy="15" r="4" />
<circle cx="337" cy="52" r="4" />
<circle cx="346" cy="162" r="4" />
<circle cx="356" cy="83" r="4" />
<circle cx="365" cy="172" r="4" />
<circle cx="374" cy="178" r="4" />
<circle cx="384" cy="180" r="4" />
<circle cx="393" cy="95" r="4" />
<circle cx="402" cy="96" r="4" />
<circle cx="412" cy="196" r="4" />
<circle cx="421" cy="99" r="4" />
<circle cx="430" cy="210" r="4" />
<circle cx="440" cy="37" r="4" />
<circle cx="449" cy="226" r="4" />
<circle cx="459" cy="76" r="4" />
<circle cx="468" cy="29" r="4" />
<circle cx="477" cy="119" r="4" />
<circle cx="487" cy="24" r="4" />
<circle cx="496" cy="50" r="4" />
<circle cx="505" cy="16" r="4" />
<circle cx="515" cy="131" r="4" />
<circle cx="524" cy="268" r="4" />
<circle cx="533" cy="135" r="4" />
<circle cx="543" cy="92" r="4" />
<circle cx="552" cy="70" r="4" />
<circle cx="562" cy="94" r="4" />
<circle cx="571" cy="292" r="4" />
<circle cx="580" cy="102" r="4" />
<circle cx="590" cy="155" r="4" />
<circle cx="599" cy="156" r="4" />
<circle cx="608" cy="316" r="4" />
<circle cx="618" cy="30" r="4" />
<circle cx="627" cy="21" r="4" />
<circle cx="636" cy="346" r="4" />
<circle cx="646" cy="348" r="4" />
<circle cx="655" cy="88" r="4" />
<circle cx="664" cy="179" r="4" />
<circle cx="674" cy="183" r="4" />
<circle cx="683" cy="372" r="4" />
<circle cx="693" cy="378" r="4" />
<circle cx="702" cy="191" r="4" />
<circle cx="711" cy="388" r="4" />
<circle cx="721" cy="44" r="4" />
<circle cx="730" cy="200" r="4" />
<circle cx="739" cy="204" r="4" />
<circle cx="749" cy="418" r="4" />
<circle cx="758" cy="420" r="4" />
<circle cx="767" cy="43" r="4" />
<circle cx="777" cy="72" r="4" />
<circle cx="786" cy="73" r="4" />
<circle cx="795" cy="442" r="4" />
<circle cx="805" cy="224" r="4" />
<circle cx="814" cy="76" r="4" />
<circle cx="824" cy="460" r="4" />
<circle cx="833" cy="231" r="4" />
<circle cx="842" cy="466" r="4" />
<circle cx="852" cy="239" r="4" />
<circle cx="861" cy="243" r="4" />
<circle cx="870" cy="490" r="4" />
<circle cx="880" cy="166" r="4" />
<circle cx="889" cy="251" r="4" />
<circle cx="898" cy="508" r="4" />
<circle cx="908" cy="260" r="4" />
<circle cx="917" cy="522" r="4" />
<circle cx="926" cy="540" r="4" />
<circle cx="936" cy="546" r="4" />
<circle cx="945" cy="556" r="4" />
<circle cx="955" cy="562" r="4" />
<circle cx="964" cy="284" r="4" />
<circle cx="973" cy="114" r="4" />
<circle cx="983" cy="144" r="4" />
<circle cx="992" cy="586" r="4" />
<circle cx="1001" cy="148" r="4" />
<circle cx="1011" cy="299" r="4" />
<circle cx="1020" cy="25" r="4" />
<circle cx="1029" cy="303" r="4" />
<circle cx="1039" cy="612" r="4" />
<circle cx="1048" cy="154" r="4" />
<circle cx="1057" cy="618" r="4" />
<circle cx="1067" cy="45" r="4" />
<circle cx="1076" cy="64" r="4" />
<circle cx="1086" cy="214" r="4" />
<circle cx="1095" cy="323" r="4" />
<circle cx="1104" cy="652" r="4" />
<circle cx="1114" cy="658" r="4" />
<circle cx="1123" cy="660" r="4" />
<circle cx="1132" cy="48" r="4" />
<circle cx="1142" cy="676" r="4" />
<circle cx="1151" cy="22" r="4" />
<circle cx="1160" cy="230" r="4" />
<circle cx="1170" cy="700" r="4" />
<circle cx="1179" cy="708" r="4" />
<circle cx="1189" cy="359" r="4" />
<circle cx="1198" cy="121" r="4" />
<circle cx="1207" cy="244" r="4" />
<circle cx="1217" cy="246" r="4" />
<circle cx="1226" cy="371" r="4" />
<circle cx="1235" cy="375" r="4" />
<circle cx="1245" cy="756" r="4" />
<circle cx="1254" cy="380" r="4" />
<circle cx="1263" cy="384" r="4" />
<circle cx="1273" cy="772" r="4" />
<circle cx="1282" cy="786" r="4" />
<circle cx="1291" cy="796" r="4" />
<circle cx="1301" cy="404" r="4" />
<circle cx="1310" cy="270" r="4" />
<circle cx="1320" cy="820" r="4" />
<circle cx="1329" cy="411" r="4" />
<circle cx="1338" cy="826" r="4" />
<circle cx="1348" cy="828" r="4" />
<circle cx="1357" cy="419" r="4" />
<circle cx="1366" cy="852" r="4" />
<circle cx="1376" cy="428" r="4" />
<circle cx="1385" cy="858" r="4" />
<circle cx="1394" cy="431" r="4" />
</g>
</svg>