<svg xmlns="http://www.w3.org/2000/svg" width="161.8" height="100.0" viewBox="-4.2 -5.0 171.8 110.0">
<g fill="none" stroke="black" stroke-width="0.4900%" transform="translate(0, 100.0000) scale(1.0204, -1.0204)">
<circle cx="0.8" cy="0.0" r="0.5" />
<circle cx="1.6" cy="0.0" r="0.5" />
<circle cx="2.4" cy="1.0" r="0.5" />
<circle cx="3.2" cy="1.0" r="0.5" />
<circle cx="4.0" cy="1.0" r="0.5" />
<circle cx="4.8" cy="0.0" r="0.5" />
<circle cx="5.5" cy="1.0" r="0.5" />
<circle cx="6.3" cy="3.0" r="0.5" />
<circle cx="7.1" cy="2.0" r="0.5" />
<circle cx="7.9" cy="3.0" r="0.5" />
<circle cx="8.7" cy="0.0" r="0.5" />
<circle cx="9.5" cy="5.0" r="0.5" />
<circle cx="10.3" cy="2.0" r="0.5" />
<circle cx="11.1" cy="2.0" r="0.5" />
<circle cx="11.9" cy="3.0" r="0.5" />
<circle cx="12.7" cy="0.0" r="0.5" />
<circle cx="13.5" cy="4.0" r="0.5" />
<circle cx="14.3" cy="8.0" r="0.5" />
<circle cx="15.1" cy="3.0" r="0.5" />
<circle cx="15.9" cy="9.0" r="0.5" />
<circle cx="16.6" cy="0.0" r="0.5" />
<circle cx="17.4" cy="3.0" r="0.5" />
<circle cx="18.2" cy="5.0" r="0.5" />
<circle cx="19.0" cy="11.0" r="0.5" />
<circle cx="19.8" cy="2.0" r="0.5" />
<circle cx="20.6" cy="0.0" r="0.5" />
<circle cx="21.4" cy="2.0" r="0.5" />
<circle cx="22.2" cy="9.0" r="0.5" />
<circle cx="23.0" cy="6.0" r="0.5" />
<circle cx="23.8" cy="7.0" r="0.5" />
<circle cx="24.6" cy="0.0" r="0.5" />
<circle cx="25.4" cy="3.0" r="0.5" />
<circle cx="26.2" cy="8.0" r="0.5" />
<circle cx="27.0" cy="10.0" r="0.5" />
<circle cx="27.7" cy="8.0" r="0.5" />
<circle cx="28.5" cy="0.0" r="0.5" />
<circle cx="29.3" cy="6.0" r="0.5" />
<circle cx="30.1" cy="18.0" r="0.5" />
<circle cx="30.9" cy="9.0" r="0.5" />
<circle cx="31.7" cy="4.0" r="0.5" />
<circle cx="32.5" cy="0.0" r="0.5" />
<circle cx="33.3" cy="10.0" r="0.5" />
<circle cx="34.1" cy="3.0" r="0.5" />
<circle cx="34.9" cy="21.0" r="0.5" />
<circle cx="35.7" cy="5.0" r="0.5" />
<circle cx="36.5" cy="0.0" r="0.5" />
<circle cx="37.3" cy="11.0" r="0.5" />
<circle cx="38.1" cy="23.0" r="0.5" />
<circle cx="38.8" cy="4.0" r="0.5" />
<circle cx="39.6" cy="21.0" r="0.5" />
<circle cx="40.4" cy="0.0" r="0.5" />
<circle cx="41.2" cy="16.0" r="0.5" />
<circle cx="42.0" cy="4.0" r="0.5" />
<circle cx="42.8" cy="26.0" r="0.5" />
<circle cx="43.6" cy="9.0" r="0.5" />
<circle cx="44.4" cy="0.0" r="0.5" />
<circle cx="45.2" cy="6.0" r="0.5" />
<circle cx="46.0" cy="18.0" r="0.5" />
<circle cx="46.8" cy="7.0" r="0.5" />
<circle cx="47.6" cy="29.0" r="0.5" />
<circle cx="48.4" cy="0.0" r="0.5" />
<circle cx="49.2" cy="15.0" r="0.5" />
<circle cx="49.9" cy="3.0" r="0.5" />
<circle cx="50.7" cy="3.0" r="0.5" />
<circle cx="51.5" cy="16.0" r="0.5" />
<circle cx="52.3" cy="0.0" r="0.5" />
<circle cx="53.1" cy="10.0" r="0.5" />
<circle cx="53.9" cy="11.0" r="0.5" />
<circle cx="54.7" cy="16.0" r="0.5" />
<circle cx="55.5" cy="11.0" r="0.5" />
<circle cx="56.3" cy="0.0" r="0.5" />
<circle cx="57.1" cy="5.0" r="0.5" />
<circle cx="57.9" cy="6.0" r="0.5" />
<circle cx="58.7" cy="36.0" r="0.5" />
<circle cx="59.5" cy="18.0" r="0.5" />
<circle cx="60.3" cy="0.0" r="0.5" />
<circle cx="61.0" cy="9.0" r="0.5" />
<circle cx="61.8" cy="30.0" r="0.5" />
<circle cx="62.6" cy="4.0" r="0.5" />
<circle cx="63.4" cy="39.0" r="0.5" />
<circle cx="64.2" cy="0.0" r="0.5" />
<circle cx="65.0" cy="27.0" r="0.5" />
<circle cx="65.8" cy="10.0" r="0.5" />
<circle cx="66.6" cy="41.0" r="0.5" />
<circle cx="67.4" cy="6.0" r="0.5" />
<circle cx="68.2" cy="0.0" r="0.5" />
<circle cx="69.0" cy="21.0" r="0.5" />
<circle cx="69.8" cy="7.0" r="0.5" />
<circle cx="70.6" cy="10.0" r="0.5" />
<circle cx="71.4" cy="22.0" r="0.5" />
<circle cx="72.1" cy="0.0" r="0.5" />
<circle cx="72.9" cy="12.0" r="0.5" />
<circle cx="73.7" cy="22.0" r="0.5" />
<circle cx="74.5" cy="6.0" r="0.5" />
<circle cx="75.3" cy="23.0" r="0.5" />
<circle cx="76.1" cy="0.0" r="0.5" />
<circle cx="76.9" cy="8.0" r="0.5" />
<circle cx="77.7" cy="48.0" r="0.5" />
<circle cx="78.5" cy="21.0" r="0.5" />
<circle cx="79.3" cy="30.0" r="0.5" />
<circle cx="80.1" cy="0.0" r="0.5" />
<circle cx="80.9" cy="25.0" r="0.5" />
<circle cx="81.7" cy="16.0" r="0.5" />
<circle cx="82.5" cy="51.0" r="0.5" />
<circle cx="83.2" cy="4.0" r="0.5" />
<circle cx="84.0" cy="0.0" r="0.5" />
<circle cx="84.8" cy="26.0" r="0.5" />
<circle cx="85.6" cy="53.0" r="0.5" />
<circle cx="86.4" cy="18.0" r="0.5" />
<circle cx="87.2" cy="27.0" r="0.5" />
<circle cx="88.0" cy="0.0" r="0.5" />
<circle cx="88.8" cy="36.0" r="0.5" />
<circle cx="89.6" cy="12.0" r="0.5" />
<circle cx="90.4" cy="56.0" r="0.5" />
<circle cx="91.2" cy="18.0" r="0.5" />
<circle cx="92.0" cy="0.0" r="0.5" />
<circle cx="92.8" cy="14.0" r="0.5" />
<circle cx="93.6" cy="12.0" r="0.5" />
<circle cx="94.3" cy="29.0" r="0.5" />
<circle cx="95.1" cy="48.0" r="0.5" />
<circle cx="95.9" cy="0.0" r="0.5" />
<circle cx="96.7" cy="55.0" r="0.5" />
<circle cx="97.5" cy="15.0" r="0.5" />
<circle cx="98.3" cy="20.0" r="0.5" />
<circle cx="99.1" cy="3.0" r="0.5" />
<circle cx="99.9" cy="0.0" r="0.5" />
<circle cx="100.7" cy="3.0" r="0.5" />
<circle cx="101.5" cy="21.0" r="0.5" />
<circle cx="102.3" cy="32.0" r="0.5" />
<circle cx="103.1" cy="21.0" r="0.5" />
<circle cx="103.9" cy="0.0" r="0.5" />
<circle cx="104.7" cy="65.0" r="0.5" />
<circle cx="105.4" cy="10.0" r="0.5" />
<circle cx="106.2" cy="18.0" r="0.5" />
<circle cx="107.0" cy="11.0" r="0.5" />
<circle cx="107.8" cy="0.0" r="0.5" />
<circle cx="108.6" cy="16.0" r="0.5" />
<circle cx="109.4" cy="68.0" r="0.5" />
<circle cx="110.2" cy="11.0" r="0.5" />
<circle cx="111.0" cy="69.0" r="0.5" />
<circle cx="111.8" cy="0.0" r="0.5" />
<circle cx="112.6" cy="23.0" r="0.5" />
<circle cx="113.4" cy="5.0" r="0.5" />
<circle cx="114.2" cy="20.0" r="0.5" />
<circle cx="115.0" cy="12.0" r="0.5" />
<circle cx="115.8" cy="0.0" r="0.5" />
<circle cx="116.5" cy="36.0" r="0.5" />
<circle cx="117.3" cy="21.0" r="0.5" />
<circle cx="118.1" cy="36.0" r="0.5" />
<circle cx="118.9" cy="37.0" r="0.5" />
<circle cx="119.7" cy="0.0" r="0.5" />
<circle cx="120.5" cy="75.0" r="0.5" />
<circle cx="121.3" cy="18.0" r="0.5" />
<circle cx="122.1" cy="48.0" r="0.5" />
<circle cx="122.9" cy="30.0" r="0.5" />
<circle cx="123.7" cy="0.0" r="0.5" />
<circle cx="124.5" cy="4.0" r="0.5" />
<circle cx="125.3" cy="78.0" r="0.5" />
<circle cx="126.1" cy="39.0" r="0.5" />
<circle cx="126.9" cy="52.0" r="0.5" />
<circle cx="127.6" cy="0.0" r="0.5" />
<circle cx="128.4" cy="33.0" r="0.5" />
<circle cx="129.2" cy="27.0" r="0.5" />
<circle cx="130.0" cy="27.0" r="0.5" />
<circle cx="130.8" cy="20.0" r="0.5" />
<circle cx="131.6" cy="0.0" r="0.5" />
<circle cx="132.4" cy="41.0" r="0.5" />
<circle cx="133.2" cy="83.0" r="0.5" />
<circle cx="134.0" cy="6.0" r="0.5" />
<circle cx="134.8" cy="26.0" r="0.5" />
<circle cx="135.6" cy="0.0" r="0.5" />
<circle cx="136.4" cy="18.0" r="0.5" />
<circle cx="137.2" cy="42.0" r="0.5" />
<circle cx="138.0" cy="86.0" r="0.5" />
<circle cx="138.7" cy="7.0" r="0.5" />
<circle cx="139.5" cy="0.0" r="0.5" />
<circle cx="140.3" cy="20.0" r="0.5" />
<circle cx="141.1" cy="58.0" r="0.5" />
<circle cx="141.9" cy="22.0" r="0.5" />
<circle cx="142.7" cy="89.0" r="0.5" />
<circle cx="143.5" cy="0.0" r="0.5" />
<circle cx="144.3" cy="15.0" r="0.5" />
<circle cx="145.1" cy="12.0" r="0.5" />
<circle cx="145.9" cy="15.0" r="0.5" />
<circle cx="146.7" cy="22.0" r="0.5" />
<circle cx="147.5" cy="0.0" r="0.5" />
<circle cx="148.3" cy="6.0" r="0.5" />
<circle cx="149.1" cy="80.0" r="0.5" />
<circle cx="149.8" cy="46.0" r="0.5" />
<circle cx="150.6" cy="9.0" r="0.5" />
<circle cx="151.4" cy="0.0" r="0.5" />
<circle cx="152.2" cy="19.0" r="0.5" />
<circle cx="153.0" cy="16.0" r="0.5" />
<circle cx="153.8" cy="96.0" r="0.5" />
<circle cx="154.6" cy="48.0" r="0.5" />
<circle cx="155.4" cy="0.0" r="0.5" />
<circle cx="156.2" cy="42.0" r="0.5" />
<circle cx="157.0" cy="98.0" r="0.5" />
<circle cx="157.8" cy="30.0" r="0.5" />
<circle cx="158.6" cy="33.0" r="0.5" />
<circle cx="159.4" cy="0.0" r="0.5" />
</g>
</svg>