<svg xmlns="http://www.w3.org/2000/svg" width="161.8" height="100.0" viewBox="-4.2 -4.0 171.8 110.0">
<g fill="none" stroke="black" stroke-width="0.4900%" transform="translate(0, 102.0408) scale(1.0204, -1.0204)">
<circle cx="0.8" cy="1.0" r="0.5" />
<circle cx="1.6" cy="1.0" r="0.5" />
<circle cx="2.4" cy="1.0" r="0.5" />
<circle cx="3.2" cy="1.0" r="0.5" />
<circle cx="4.0" cy="2.0" r="0.5" />
<circle cx="4.8" cy="1.0" r="0.5" />
<circle cx="5.6" cy="3.0" r="0.5" />
<circle cx="6.4" cy="1.0" r="0.5" />
<circle cx="7.2" cy="3.0" r="0.5" />
<circle cx="8.0" cy="2.0" r="0.5" />
<circle cx="8.8" cy="5.0" r="0.5" />
<circle cx="9.6" cy="1.0" r="0.5" />
<circle cx="10.4" cy="6.0" r="0.5" />
<circle cx="11.2" cy="3.0" r="0.5" />
<circle cx="12.0" cy="2.0" r="0.5" />
<circle cx="12.7" cy="1.0" r="0.5" />
<circle cx="13.5" cy="4.0" r="0.5" />
<circle cx="14.3" cy="3.0" r="0.5" />
<circle cx="15.1" cy="9.0" r="0.5" />
<circle cx="15.9" cy="2.0" r="0.5" />
<circle cx="16.7" cy="3.0" r="0.5" />
<circle cx="17.5" cy="5.0" r="0.5" />
<circle cx="18.3" cy="11.0" r="0.5" />
<circle cx="19.1" cy="1.0" r="0.5" />
<circle cx="19.9" cy="10.0" r="0.5" />
<circle cx="20.7" cy="6.0" r="0.5" />
<circle cx="21.5" cy="9.0" r="0.5" />
<circle cx="22.3" cy="3.0" r="0.5" />
<circle cx="23.1" cy="14.0" r="0.5" />
<circle cx="23.9" cy="2.0" r="0.5" />
<circle cx="24.7" cy="5.0" r="0.5" />
<circle cx="25.5" cy="1.0" r="0.5" />
<circle cx="26.3" cy="5.0" r="0.5" />
<circle cx="27.1" cy="4.0" r="0.5" />
<circle cx="27.9" cy="6.0" r="0.5" />
<circle cx="28.7" cy="3.0" r="0.5" />
<circle cx="29.5" cy="18.0" r="0.5" />
<circle cx="30.3" cy="9.0" r="0.5" />
<circle cx="31.1" cy="6.0" r="0.5" />
<circle cx="31.9" cy="2.0" r="0.5" />
<circle cx="32.7" cy="10.0" r="0.5" />
<circle cx="33.5" cy="3.0" r="0.5" />
<circle cx="34.3" cy="7.0" r="0.5" />
<circle cx="35.1" cy="5.0" r="0.5" />
<circle cx="35.9" cy="6.0" r="0.5" />
<circle cx="36.7" cy="11.0" r="0.5" />
<circle cx="37.5" cy="23.0" r="0.5" />
<circle cx="38.2" cy="1.0" r="0.5" />
<circle cx="39.0" cy="21.0" r="0.5" />
<circle cx="39.8" cy="10.0" r="0.5" />
<circle cx="40.6" cy="4.0" r="0.5" />
<circle cx="41.4" cy="6.0" r="0.5" />
<circle cx="42.2" cy="26.0" r="0.5" />
<circle cx="43.0" cy="9.0" r="0.5" />
<circle cx="43.8" cy="10.0" r="0.5" />
<circle cx="44.6" cy="3.0" r="0.5" />
<circle cx="45.4" cy="9.0" r="0.5" />
<circle cx="46.2" cy="14.0" r="0.5" />
<circle cx="47.0" cy="29.0" r="0.5" />
<circle cx="47.8" cy="2.0" r="0.5" />
<circle cx="48.6" cy="30.0" r="0.5" />
<circle cx="49.4" cy="5.0" r="0.5" />
<circle cx="50.2" cy="3.0" r="0.5" />
<circle cx="51.0" cy="1.0" r="0.5" />
<circle cx="51.8" cy="6.0" r="0.5" />
<circle cx="52.6" cy="5.0" r="0.5" />
<circle cx="53.4" cy="33.0" r="0.5" />
<circle cx="54.2" cy="4.0" r="0.5" />
<circle cx="55.0" cy="11.0" r="0.5" />
<circle cx="55.8" cy="6.0" r="0.5" />
<circle cx="56.6" cy="35.0" r="0.5" />
<circle cx="57.4" cy="3.0" r="0.5" />
<circle cx="58.2" cy="9.0" r="0.5" />
<circle cx="59.0" cy="18.0" r="0.5" />
<circle cx="59.8" cy="10.0" r="0.5" />
<circle cx="60.6" cy="9.0" r="0.5" />
<circle cx="61.4" cy="15.0" r="0.5" />
<circle cx="62.2" cy="6.0" r="0.5" />
<circle cx="62.9" cy="39.0" r="0.5" />
<circle cx="63.7" cy="2.0" r="0.5" />
<circle cx="64.5" cy="27.0" r="0.5" />
<circle cx="65.3" cy="10.0" r="0.5" />
<circle cx="66.1" cy="41.0" r="0.5" />
<circle cx="66.9" cy="3.0" r="0.5" />
<circle cx="67.7" cy="4.0" r="0.5" />
<circle cx="68.5" cy="7.0" r="0.5" />
<circle cx="69.3" cy="14.0" r="0.5" />
<circle cx="70.1" cy="5.0" r="0.5" />
<circle cx="70.9" cy="11.0" r="0.5" />
<circle cx="71.7" cy="6.0" r="0.5" />
<circle cx="72.5" cy="6.0" r="0.5" />
<circle cx="73.3" cy="11.0" r="0.5" />
<circle cx="74.1" cy="5.0" r="0.5" />
<circle cx="74.9" cy="23.0" r="0.5" />
<circle cx="75.7" cy="18.0" r="0.5" />
<circle cx="76.5" cy="1.0" r="0.5" />
<circle cx="77.3" cy="24.0" r="0.5" />
<circle cx="78.1" cy="21.0" r="0.5" />
<circle cx="78.9" cy="15.0" r="0.5" />
<circle cx="79.7" cy="10.0" r="0.5" />
<circle cx="80.5" cy="50.0" r="0.5" />
<circle cx="81.3" cy="4.0" r="0.5" />
<circle cx="82.1" cy="51.0" r="0.5" />
<circle cx="82.9" cy="6.0" r="0.5" />
<circle cx="83.7" cy="6.0" r="0.5" />
<circle cx="84.5" cy="26.0" r="0.5" />
<circle cx="85.3" cy="53.0" r="0.5" />
<circle cx="86.1" cy="9.0" r="0.5" />
<circle cx="86.9" cy="18.0" r="0.5" />
<circle cx="87.7" cy="10.0" r="0.5" />
<circle cx="88.4" cy="18.0" r="0.5" />
<circle cx="89.2" cy="3.0" r="0.5" />
<circle cx="90.0" cy="14.0" r="0.5" />
<circle cx="90.8" cy="9.0" r="0.5" />
<circle cx="91.6" cy="22.0" r="0.5" />
<circle cx="92.4" cy="14.0" r="0.5" />
<circle cx="93.2" cy="6.0" r="0.5" />
<circle cx="94.0" cy="29.0" r="0.5" />
<circle cx="94.8" cy="12.0" r="0.5" />
<circle cx="95.6" cy="2.0" r="0.5" />
<circle cx="96.4" cy="55.0" r="0.5" />
<circle cx="97.2" cy="30.0" r="0.5" />
<circle cx="98.0" cy="10.0" r="0.5" />
<circle cx="98.8" cy="5.0" r="0.5" />
<circle cx="99.6" cy="50.0" r="0.5" />
<circle cx="100.4" cy="3.0" r="0.5" />
<circle cx="101.2" cy="7.0" r="0.5" />
<circle cx="102.0" cy="1.0" r="0.5" />
<circle cx="102.8" cy="7.0" r="0.5" />
<circle cx="103.6" cy="6.0" r="0.5" />
<circle cx="104.4" cy="65.0" r="0.5" />
<circle cx="105.2" cy="5.0" r="0.5" />
<circle cx="106.0" cy="9.0" r="0.5" />
<circle cx="106.8" cy="33.0" r="0.5" />
<circle cx="107.6" cy="18.0" r="0.5" />
<circle cx="108.4" cy="4.0" r="0.5" />
<circle cx="109.2" cy="34.0" r="0.5" />
<circle cx="110.0" cy="11.0" r="0.5" />
<circle cx="110.8" cy="69.0" r="0.5" />
<circle cx="111.6" cy="6.0" r="0.5" />
<circle cx="112.4" cy="23.0" r="0.5" />
<circle cx="113.1" cy="35.0" r="0.5" />
<circle cx="113.9" cy="30.0" r="0.5" />
<circle cx="114.7" cy="3.0" r="0.5" />
<circle cx="115.5" cy="14.0" r="0.5" />
<circle cx="116.3" cy="9.0" r="0.5" />
<circle cx="117.1" cy="21.0" r="0.5" />
<circle cx="117.9" cy="18.0" r="0.5" />
<circle cx="118.7" cy="74.0" r="0.5" />
<circle cx="119.5" cy="10.0" r="0.5" />
<circle cx="120.3" cy="15.0" r="0.5" />
<circle cx="121.1" cy="9.0" r="0.5" />
<circle cx="121.9" cy="12.0" r="0.5" />
<circle cx="122.7" cy="15.0" r="0.5" />
<circle cx="123.5" cy="10.0" r="0.5" />
<circle cx="124.3" cy="6.0" r="0.5" />
<circle cx="125.1" cy="26.0" r="0.5" />
<circle cx="125.9" cy="39.0" r="0.5" />
<circle cx="126.7" cy="26.0" r="0.5" />
<circle cx="127.5" cy="2.0" r="0.5" />
<circle cx="128.3" cy="33.0" r="0.5" />
<circle cx="129.1" cy="27.0" r="0.5" />
<circle cx="129.9" cy="81.0" r="0.5" />
<circle cx="130.7" cy="10.0" r="0.5" />
<circle cx="131.5" cy="10.0" r="0.5" />
<circle cx="132.3" cy="41.0" r="0.5" />
<circle cx="133.1" cy="83.0" r="0.5" />
<circle cx="133.9" cy="3.0" r="0.5" />
<circle cx="134.7" cy="78.0" r="0.5" />
<circle cx="135.5" cy="4.0" r="0.5" />
<circle cx="136.3" cy="9.0" r="0.5" />
<circle cx="137.1" cy="7.0" r="0.5" />
<circle cx="137.8" cy="86.0" r="0.5" />
<circle cx="138.6" cy="14.0" r="0.5" />
<circle cx="139.4" cy="30.0" r="0.5" />
<circle cx="140.2" cy="5.0" r="0.5" />
<circle cx="141.0" cy="29.0" r="0.5" />
<circle cx="141.8" cy="11.0" r="0.5" />
<circle cx="142.6" cy="89.0" r="0.5" />
<circle cx="143.4" cy="6.0" r="0.5" />
<circle cx="144.2" cy="90.0" r="0.5" />
<circle cx="145.0" cy="6.0" r="0.5" />
<circle cx="145.8" cy="30.0" r="0.5" />
<circle cx="146.6" cy="11.0" r="0.5" />
<circle cx="147.4" cy="18.0" r="0.5" />
<circle cx="148.2" cy="5.0" r="0.5" />
<circle cx="149.0" cy="20.0" r="0.5" />
<circle cx="149.8" cy="23.0" r="0.5" />
<circle cx="150.6" cy="9.0" r="0.5" />
<circle cx="151.4" cy="18.0" r="0.5" />
<circle cx="152.2" cy="95.0" r="0.5" />
<circle cx="153.0" cy="1.0" r="0.5" />
<circle cx="153.8" cy="48.0" r="0.5" />
<circle cx="154.6" cy="24.0" r="0.5" />
<circle cx="155.4" cy="6.0" r="0.5" />
<circle cx="156.2" cy="21.0" r="0.5" />
<circle cx="157.0" cy="98.0" r="0.5" />
<circle cx="157.8" cy="15.0" r="0.5" />
<circle cx="158.6" cy="99.0" r="0.5" />
<circle cx="159.4" cy="10.0" r="0.5" />
</g>
</svg>