<svg xmlns="http://www.w3.org/2000/svg" width="161.8" height="100.0" viewBox="-58.9 -5.1 171.8 110.0">
<g fill="none" stroke="black" stroke-width="0.6%" transform="translate(0, 99.8) scale(0.9, -0.9)">
<circle cx="-59.4" cy="0.0" r="0.6" />
<circle cx="0.0" cy="110.0" r="0.6" />
<polyline points="-59.4,-0.0 -57.6,-0.0 -55.8,-0.0 -54.0,-0.0 -52.2,-0.1 -50.5,-0.1 -48.7,-0.1 -46.9,-0.1 -45.1,-0.1 -43.3,-0.1 -41.6,-0.1 -39.8,-0.1 -38.0,-0.1 -36.2,-0.1 -34.4,-0.1 -32.7,-0.1 -30.9,-0.0 -29.1,0.0 -27.3,0.1 -25.5,0.1 -23.7,0.2 -22.0,0.2 -20.2,0.3 -18.4,0.4 -16.6,0.5 -14.8,0.6 -13.1,0.8 -11.3,0.9 -9.5,1.1 -7.7,1.2 -5.9,1.4 -4.2,1.6 -2.4,1.9 -0.6,2.1 1.2,2.4 3.0,2.6 4.7,2.9 6.5,3.3 8.3,3.6 10.1,4.0 11.9,4.4 13.7,4.8 15.4,5.2 17.2,5.7 19.0,6.2 20.8,6.7 22.6,7.3 24.3,7.9 26.1,8.5 27.9,9.2 29.7,9.8 31.5,10.6 33.2,11.3 35.0,12.1 36.8,12.9 38.6,13.8 40.4,14.7 42.2,15.7 43.9,16.6 45.7,17.7 47.5,18.7 49.3,19.9 51.1,21.0 52.8,22.2 54.6,23.5 56.4,24.8 58.2,26.1 60.0,27.5 61.7,29.0 63.5,30.5 65.3,32.1 67.1,33.7 68.9,35.4 70.7,37.1 72.4,38.9 74.2,40.7 76.0,42.7 77.8,44.6 79.6,46.7 81.3,48.8 83.1,50.9 84.9,53.2 86.7,55.5 88.5,57.8 90.2,60.3 92.0,62.8 93.8,65.4 95.6,68.1 97.4,70.8 99.2,73.6 100.9,76.5 102.7,79.5 104.5,82.5 106.3,85.6 108.1,88.9 109.8,92.2 111.6,95.5 113.4,99.0 115.2,102.6 117.0,106.2 118.7,110.0" />
</g>
</svg>