<svg xmlns="http://www.w3.org/2000/svg" width="92" height="92" viewBox="0 0 92 92">
<rect x="0" y="20" width="2" height="2" fill="rgb(0,0,0)"/>
<rect x="0" y="22" width="2" height="2" fill="rgb(0,0,0)"/>
<rect x="0" y="24" width="2" height="2" fill="rgb(0,0,0)"/>
<rect x="2" y="4" width="2" height="2" fill="rgb(0,0,0)"/>
<rect x="2" y="14" width="2" height="2" fill="rgb(0,0,0)"/>
<rect x="2" y="38" width="2" height="2" fill="rgb(0,0,0)"/>
<rect x="4" y="2" width="2" height="2" fill="rgb(0,0,0)"/>
<rect x="4" y="6" width="2" height="2" fill="rgb(0,0,0)"/>
<rect x="4" y="82" width="2" height="2" fill="rgb(0,0,0)"/>
<rect x="6" y="4" width="2" height="2" fill="rgb(0,0,0)"/>
<rect x="6" y="8" width="2" height="2" fill="rgb(0,0,0)"/>
<rect x="6" y="54" width="2" height="2" fill="rgb(0,0,0)"/>
<rect x="8" y="6" width="2" height="2" fill="rgb(0,0,0)"/>
<rect x="8" y="10" width="2" height="2" fill="rgb(0,0,0)"/>
<rect x="8" y="66" width="2" height="2" fill="rgb(0,0,0)"/>
<rect x="10" y="8" width="2" height="2" fill="rgb(0,0,0)"/>
<rect x="10" y="12" width="2" height="2" fill="rgb(0,0,0)"/>
<rect x="10" y="90" width="2" height="2" fill="rgb(0,0,0)"/>
<rect x="12" y="10" width="2" height="2" fill="rgb(0,0,0)"/>
<rect x="12" y="18" width="2" height="2" fill="rgb(0,0,0)"/>
<rect x="12" y="58" width="2" height="2" fill="rgb(0,0,0)"/>
<rect x="14" y="2" width="2" height="2" fill="rgb(0,0,0)"/>
<rect x="14" y="16" width="2" height="2" fill="rgb(0,0,0)"/>
<rect x="14" y="42" width="2" height="2" fill="rgb(0,0,0)"/>
<rect x="16" y="14" width="2" height="2" fill="rgb(0,0,0)"/>
<rect x="16" y="18" width="2" height="2" fill="rgb(0,0,0)"/>
<rect x="16" y="44" width="2" height="2" fill="rgb(0,0,0)"/>
<rect x="18" y="12" width="2" height="2" fill="rgb(0,0,0)"/>
<rect x="18" y="16" width="2" height="2" fill="rgb(0,0,0)"/>
<rect x="18" y="48" width="2" height="2" fill="rgb(0,0,0)"/>
<rect x="20" y="0" width="2" height="2" fill="rgb(0,0,0)"/>
<rect x="20" y="26" width="2" height="2" fill="rgb(0,0,0)"/>
<rect x="20" y="28" width="2" height="2" fill="rgb(0,0,0)"/>
<rect x="22" y="0" width="2" height="2" fill="rgb(0,0,0)"/>
<rect x="22" y="52" width="2" height="2" fill="rgb(0,0,0)"/>
<rect x="22" y="56" width="2" height="2" fill="rgb(0,0,0)"/>
<rect x="24" y="0" width="2" height="2" fill="rgb(0,0,0)"/>
<rect x="24" y="60" width="2" height="2" fill="rgb(0,0,0)"/>
<rect x="24" y="62" width="2" height="2" fill="rgb(0,0,0)"/>
<rect x="26" y="20" width="2" height="2" fill="rgb(0,0,0)"/>
<rect x="26" y="30" width="2" height="2" fill="rgb(0,0,0)"/>
<rect x="26" y="42" width="2" height="2" fill="rgb(0,0,0)"/>
<rect x="28" y="20" width="2" height="2" fill="rgb(0,0,0)"/>
<rect x="28" y="30" width="2" height="2" fill="rgb(0,0,0)"/>
<rect x="28" y="36" width="2" height="2" fill="rgb(0,0,0)"/>
<rect x="30" y="26" width="2" height="2" fill="rgb(0,0,0)"/>
<rect x="30" y="28" width="2" height="2" fill="rgb(0,0,0)"/>
<rect x="30" y="32" width="2" height="2" fill="rgb(0,0,0)"/>
<rect x="32" y="30" width="2" height="2" fill="rgb(0,0,0)"/>
<rect x="32" y="34" width="2" height="2" fill="rgb(0,0,0)"/>
<rect x="32" y="40" width="2" height="2" fill="rgb(0,0,0)"/>
<rect x="34" y="32" width="2" height="2" fill="rgb(0,0,0)"/>
<rect x="34" y="36" width="2" height="2" fill="rgb(0,0,0)"/>
<rect x="34" y="46" width="2" height="2" fill="rgb(0,0,0)"/>
<rect x="36" y="28" width="2" height="2" fill="rgb(0,0,0)"/>
<rect x="36" y="34" width="2" height="2" fill="rgb(0,0,0)"/>
<rect x="36" y="48" width="2" height="2" fill="rgb(0,0,0)"/>
<rect x="38" y="2" width="2" height="2" fill="rgb(0,0,0)"/>
<rect x="38" y="50" width="2" height="2" fill="rgb(0,0,0)"/>
<rect x="38" y="80" width="2" height="2" fill="rgb(0,0,0)"/>
<rect x="40" y="32" width="2" height="2" fill="rgb(0,0,0)"/>
<rect x="40" y="42" width="2" height="2" fill="rgb(0,0,0)"/>
<rect x="40" y="44" width="2" height="2" fill="rgb(0,0,0)"/>
<rect x="42" y="14" width="2" height="2" fill="rgb(0,0,0)"/>
<rect x="42" y="26" width="2" height="2" fill="rgb(0,0,0)"/>
<rect x="42" y="40" width="2" height="2" fill="rgb(0,0,0)"/>
<rect x="44" y="16" width="2" height="2" fill="rgb(0,0,0)"/>
<rect x="44" y="40" width="2" height="2" fill="rgb(0,0,0)"/>
<rect x="44" y="46" width="2" height="2" fill="rgb(0,0,0)"/>
<rect x="46" y="34" width="2" height="2" fill="rgb(0,0,0)"/>
<rect x="46" y="44" width="2" height="2" fill="rgb(0,0,0)"/>
<rect x="46" y="48" width="2" height="2" fill="rgb(0,0,0)"/>
<rect x="48" y="18" width="2" height="2" fill="rgb(0,0,0)"/>
<rect x="48" y="36" width="2" height="2" fill="rgb(0,0,0)"/>
<rect x="48" y="46" width="2" height="2" fill="rgb(0,0,0)"/>
<rect x="50" y="38" width="2" height="2" fill="rgb(0,0,0)"/>
<rect x="50" y="52" width="2" height="2" fill="rgb(0,0,0)"/>
<rect x="50" y="76" width="2" height="2" fill="rgb(0,0,0)"/>
<rect x="52" y="22" width="2" height="2" fill="rgb(0,0,0)"/>
<rect x="52" y="50" width="2" height="2" fill="rgb(0,0,0)"/>
<rect x="52" y="68" width="2" height="2" fill="rgb(0,0,0)"/>
<rect x="54" y="6" width="2" height="2" fill="rgb(0,0,0)"/>
<rect x="54" y="56" width="2" height="2" fill="rgb(0,0,0)"/>
<rect x="54" y="78" width="2" height="2" fill="rgb(0,0,0)"/>
<rect x="56" y="22" width="2" height="2" fill="rgb(0,0,0)"/>
<rect x="56" y="54" width="2" height="2" fill="rgb(0,0,0)"/>
<rect x="56" y="68" width="2" height="2" fill="rgb(0,0,0)"/>
<rect x="58" y="12" width="2" height="2" fill="rgb(0,0,0)"/>
<rect x="58" y="60" width="2" height="2" fill="rgb(0,0,0)"/>
<rect x="58" y="88" width="2" height="2" fill="rgb(0,0,0)"/>
<rect x="60" y="24" width="2" height="2" fill="rgb(0,0,0)"/>
<rect x="60" y="58" width="2" height="2" fill="rgb(0,0,0)"/>
<rect x="60" y="70" width="2" height="2" fill="rgb(0,0,0)"/>
<rect x="62" y="24" width="2" height="2" fill="rgb(0,0,0)"/>
<rect x="62" y="64" width="2" height="2" fill="rgb(0,0,0)"/>
<rect x="62" y="70" width="2" height="2" fill="rgb(0,0,0)"/>
<rect x="64" y="62" width="2" height="2" fill="rgb(0,0,0)"/>
<rect x="64" y="66" width="2" height="2" fill="rgb(0,0,0)"/>
<rect x="64" y="84" width="2" height="2" fill="rgb(0,0,0)"/>
<rect x="66" y="8" width="2" height="2" fill="rgb(0,0,0)"/>
<rect x="66" y="64" width="2" height="2" fill="rgb(0,0,0)"/>
<rect x="66" y="86" width="2" height="2" fill="rgb(0,0,0)"/>
<rect x="68" y="52" width="2" height="2" fill="rgb(0,0,0)"/>
<rect x="68" y="56" width="2" height="2" fill="rgb(0,0,0)"/>
<rect x="68" y="72" width="2" height="2" fill="rgb(0,0,0)"/>
<rect x="70" y="60" width="2" height="2" fill="rgb(0,0,0)"/>
<rect x="70" y="62" width="2" height="2" fill="rgb(0,0,0)"/>
<rect x="70" y="74" width="2" height="2" fill="rgb(0,0,0)"/>
<rect x="72" y="68" width="2" height="2" fill="rgb(0,0,0)"/>
<rect x="72" y="76" width="2" height="2" fill="rgb(0,0,0)"/>
<rect x="72" y="78" width="2" height="2" fill="rgb(0,0,0)"/>
<rect x="74" y="70" width="2" height="2" fill="rgb(0,0,0)"/>
<rect x="74" y="84" width="2" height="2" fill="rgb(0,0,0)"/>
<rect x="74" y="88" width="2" height="2" fill="rgb(0,0,0)"/>
<rect x="76" y="50" width="2" height="2" fill="rgb(0,0,0)"/>
<rect x="76" y="72" width="2" height="2" fill="rgb(0,0,0)"/>
<rect x="76" y="80" width="2" height="2" fill="rgb(0,0,0)"/>
<rect x="78" y="54" width="2" height="2" fill="rgb(0,0,0)"/>
<rect x="78" y="72" width="2" height="2" fill="rgb(0,0,0)"/>
<rect x="78" y="82" width="2" height="2" fill="rgb(0,0,0)"/>
<rect x="80" y="38" width="2" height="2" fill="rgb(0,0,0)"/>
<rect x="80" y="76" width="2" height="2" fill="rgb(0,0,0)"/>
<rect x="80" y="82" width="2" height="2" fill="rgb(0,0,0)"/>
<rect x="82" y="4" width="2" height="2" fill="rgb(0,0,0)"/>
<rect x="82" y="78" width="2" height="2" fill="rgb(0,0,0)"/>
<rect x="82" y="80" width="2" height="2" fill="rgb(0,0,0)"/>
<rect x="84" y="64" width="2" height="2" fill="rgb(0,0,0)"/>
<rect x="84" y="74" width="2" height="2" fill="rgb(0,0,0)"/>
<rect x="84" y="86" width="2" height="2" fill="rgb(0,0,0)"/>
<rect x="86" y="66" width="2" height="2" fill="rgb(0,0,0)"/>
<rect x="86" y="84" width="2" height="2" fill="rgb(0,0,0)"/>
<rect x="86" y="90" width="2" height="2" fill="rgb(0,0,0)"/>
<rect x="88" y="58" width="2" height="2" fill="rgb(0,0,0)"/>
<rect x="88" y="74" width="2" height="2" fill="rgb(0,0,0)"/>
<rect x="88" y="90" width="2" height="2" fill="rgb(0,0,0)"/>
<rect x="90" y="10" width="2" height="2" fill="rgb(0,0,0)"/>
<rect x="90" y="86" width="2" height="2" fill="rgb(0,0,0)"/>
<rect x="90" y="88" width="2" height="2" fill="rgb(0,0,0)"/>
</svg>