<svg xmlns="http://www.w3.org/2000/svg" width="161.8" height="100.0" viewBox="-2.51 -5.00 171.80 110.00">
<g fill="none" stroke="black" stroke-width="0.0494%" transform="translate(0, 100.0000) scale(10.1284, -10.1284)">




<line x1="1.23" y1="0.00" x2="1.23" y2="1.10" />


<line x1="1.97" y1="0.00" x2="1.97" y2="1.79" />
<line x1="2.21" y1="0.00" x2="2.21" y2="1.79" />


<line x1="2.95" y1="0.00" x2="2.95" y2="2.30" />
<line x1="3.20" y1="0.00" x2="3.20" y2="3.00" />
<line x1="3.44" y1="0.00" x2="3.44" y2="2.30" />


<line x1="4.18" y1="0.00" x2="4.18" y2="2.71" />
<line x1="4.42" y1="0.00" x2="4.42" y2="3.91" />
<line x1="4.67" y1="0.00" x2="4.67" y2="3.91" />
<line x1="4.92" y1="0.00" x2="4.92" y2="2.71" />


<line x1="5.65" y1="0.00" x2="5.65" y2="3.04" />
<line x1="5.90" y1="0.00" x2="5.90" y2="4.65" />
<line x1="6.14" y1="0.00" x2="6.14" y2="5.16" />
<line x1="6.39" y1="0.00" x2="6.39" y2="4.65" />
<line x1="6.64" y1="0.00" x2="6.64" y2="3.04" />


<line x1="7.37" y1="0.00" x2="7.37" y2="3.33" />
<line x1="7.62" y1="0.00" x2="7.62" y2="5.28" />
<line x1="7.86" y1="0.00" x2="7.86" y2="6.19" />
<line x1="8.11" y1="0.00" x2="8.11" y2="6.19" />
<line x1="8.36" y1="0.00" x2="8.36" y2="5.28" />
<line x1="8.60" y1="0.00" x2="8.60" y2="3.33" />


<line x1="9.34" y1="0.00" x2="9.34" y2="3.58" />
<line x1="9.59" y1="0.00" x2="9.59" y2="5.82" />
<line x1="9.83" y1="0.00" x2="9.83" y2="7.07" />
<line x1="10.08" y1="0.00" x2="10.08" y2="7.48" />
<line x1="10.32" y1="0.00" x2="10.32" y2="7.07" />
<line x1="10.57" y1="0.00" x2="10.57" y2="5.82" />
<line x1="10.81" y1="0.00" x2="10.81" y2="3.58" />


<line x1="11.55" y1="0.00" x2="11.55" y2="3.81" />
<line x1="11.80" y1="0.00" x2="11.80" y2="6.29" />
<line x1="12.04" y1="0.00" x2="12.04" y2="7.83" />
<line x1="12.29" y1="0.00" x2="12.29" y2="8.57" />
<line x1="12.53" y1="0.00" x2="12.53" y2="8.57" />
<line x1="12.78" y1="0.00" x2="12.78" y2="7.83" />
<line x1="13.03" y1="0.00" x2="13.03" y2="6.29" />
<line x1="13.27" y1="0.00" x2="13.27" y2="3.81" />


<line x1="14.01" y1="0.00" x2="14.01" y2="4.01" />
<line x1="14.25" y1="0.00" x2="14.25" y2="6.72" />
<line x1="14.50" y1="0.00" x2="14.50" y2="8.51" />
<line x1="14.75" y1="0.00" x2="14.75" y2="9.54" />
<line x1="14.99" y1="0.00" x2="14.99" y2="9.87" />
<line x1="15.24" y1="0.00" x2="15.24" y2="9.54" />
<line x1="15.48" y1="0.00" x2="15.48" y2="8.51" />
<line x1="15.73" y1="0.00" x2="15.73" y2="6.72" />
<line x1="15.98" y1="0.00" x2="15.98" y2="4.01" />

</g>
</svg>