<svg xmlns="http://www.w3.org/2000/svg" width="161.8" height="100.0" viewBox="-1.8 -0.6 171.8 110.0">
<g fill="none" stroke="black" stroke-width="0.2250%" transform="translate(0, 108.8889) scale(2.2222, -2.2222)">
<circle cx="1.5" cy="2.0" r="0.2" />
<circle cx="2.9" cy="2.0" r="0.2" />
<circle cx="4.4" cy="2.0" r="0.2" />
<circle cx="5.8" cy="2.0" r="0.2" />
<circle cx="7.3" cy="3.0" r="0.2" />
<circle cx="8.7" cy="3.0" r="0.2" />
<circle cx="10.2" cy="5.0" r="0.2" />
<circle cx="11.6" cy="5.0" r="0.2" />
<circle cx="13.1" cy="7.0" r="0.2" />
<circle cx="14.6" cy="7.0" r="0.2" />
<circle cx="16.0" cy="11.0" r="0.2" />
<circle cx="17.5" cy="13.0" r="0.2" />
<circle cx="18.9" cy="11.0" r="0.2" />
<circle cx="20.4" cy="11.0" r="0.2" />
<circle cx="21.8" cy="13.0" r="0.2" />
<circle cx="23.3" cy="13.0" r="0.2" />
<circle cx="24.8" cy="17.0" r="0.2" />
<circle cx="26.2" cy="19.0" r="0.2" />
<circle cx="27.7" cy="17.0" r="0.2" />
<circle cx="29.1" cy="17.0" r="0.2" />
<circle cx="30.6" cy="19.0" r="0.2" />
<circle cx="32.0" cy="19.0" r="0.2" />
<circle cx="33.5" cy="23.0" r="0.2" />
<circle cx="34.9" cy="19.0" r="0.2" />
<circle cx="36.4" cy="23.0" r="0.2" />
<circle cx="37.9" cy="23.0" r="0.2" />
<circle cx="39.3" cy="23.0" r="0.2" />
<circle cx="40.8" cy="29.0" r="0.2" />
<circle cx="42.2" cy="29.0" r="0.2" />
<circle cx="43.7" cy="31.0" r="0.2" />
<circle cx="45.1" cy="29.0" r="0.2" />
<circle cx="46.6" cy="29.0" r="0.2" />
<circle cx="48.1" cy="31.0" r="0.2" />
<circle cx="49.5" cy="31.0" r="0.2" />
<circle cx="51.0" cy="31.0" r="0.2" />
<circle cx="52.4" cy="37.0" r="0.2" />
<circle cx="53.9" cy="37.0" r="0.2" />
<circle cx="55.3" cy="41.0" r="0.2" />
<circle cx="56.8" cy="37.0" r="0.2" />
<circle cx="58.2" cy="37.0" r="0.2" />
<circle cx="59.7" cy="41.0" r="0.2" />
<circle cx="61.2" cy="43.0" r="0.2" />
<circle cx="62.6" cy="41.0" r="0.2" />
<circle cx="64.1" cy="41.0" r="0.2" />
<circle cx="65.5" cy="43.0" r="0.2" />
<circle cx="67.0" cy="43.0" r="0.2" />
<circle cx="68.4" cy="47.0" r="0.2" />
<circle cx="69.9" cy="43.0" r="0.2" />
<circle cx="71.4" cy="47.0" r="0.2" />
<circle cx="72.8" cy="47.0" r="0.2" />
<circle cx="74.3" cy="47.0" r="0.2" />
</g>
</svg>