<svg xmlns="http://www.w3.org/2000/svg" width="161.8" height="100.0" viewBox="35.451 -5.000 171.803 110.000">
<g fill="none" stroke="black" stroke-width="0.0050%" transform="translate(0, 100.0000) scale(100.0000, -100.0000)">
<polyline points="0.405,0.000 0.421,0.000 0.437,0.000 0.453,0.000 0.469,0.000 0.485,0.000 0.502,0.000 0.518,0.000 0.534,0.000 0.550,0.000 0.566,0.000 0.582,0.000 0.599,0.000 0.615,0.000 0.631,0.000 0.647,0.000 0.663,0.000 0.680,0.000 0.696,0.000 0.712,0.000 0.728,0.000 0.744,0.000 0.760,0.000 0.777,0.000 0.793,0.000 0.809,0.000 0.825,0.000 0.841,0.000 0.858,0.000 0.874,0.000 0.890,0.000 0.906,0.000 0.922,0.000 0.938,0.000 0.955,0.000 0.971,0.000 0.987,0.000 1.003,0.000 1.019,1.000 1.036,1.000 1.052,1.000 1.068,1.000 1.084,1.000 1.100,1.000 1.116,1.000 1.133,1.000 1.149,1.000 1.165,1.000 1.181,1.000 1.197,1.000 1.214,1.000 1.230,1.000 1.246,1.000 1.262,1.000 1.278,1.000 1.294,1.000 1.311,1.000 1.327,1.000 1.343,1.000 1.359,1.000 1.375,1.000 1.392,1.000 1.408,1.000 1.424,0.000 1.440,0.000 1.456,0.000 1.472,0.000 1.489,0.000 1.505,0.000 1.521,0.000 1.537,0.000 1.553,0.000 1.569,0.000 1.586,0.000 1.602,0.000 1.618,0.000 1.634,0.000 1.650,0.000 1.667,0.000 1.683,0.000 1.699,0.000 1.715,0.000 1.731,0.000 1.747,0.000 1.764,0.000 1.780,0.000 1.796,0.000 1.812,0.000 1.828,0.000 1.845,0.000 1.861,0.000 1.877,0.000 1.893,0.000 1.909,0.000 1.925,0.000 1.942,0.000 1.958,0.000 1.974,0.000 1.990,0.000 2.006,0.000 2.023,0.000" />
</g>
</svg>