<svg xmlns="http://www.w3.org/2000/svg" width="144" height="32" viewBox="0 0 144 32">
<rect x="4" y="28" width="4" height="4" fill="rgb(0,0,0)"/>
<rect x="8" y="24" width="4" height="4" fill="rgb(0,0,0)"/>
<rect x="8" y="28" width="4" height="4" fill="rgb(0,0,0)"/>
<rect x="12" y="20" width="4" height="4" fill="rgb(0,0,0)"/>
<rect x="12" y="28" width="4" height="4" fill="rgb(0,0,0)"/>
<rect x="16" y="20" width="4" height="4" fill="rgb(0,0,0)"/>
<rect x="16" y="24" width="4" height="4" fill="rgb(0,0,0)"/>
<rect x="16" y="28" width="4" height="4" fill="rgb(0,0,0)"/>
<rect x="20" y="16" width="4" height="4" fill="rgb(0,0,0)"/>
<rect x="20" y="28" width="4" height="4" fill="rgb(0,0,0)"/>
<rect x="24" y="16" width="4" height="4" fill="rgb(0,0,0)"/>
<rect x="24" y="24" width="4" height="4" fill="rgb(0,0,0)"/>
<rect x="24" y="28" width="4" height="4" fill="rgb(0,0,0)"/>
<rect x="28" y="16" width="4" height="4" fill="rgb(0,0,0)"/>
<rect x="28" y="20" width="4" height="4" fill="rgb(0,0,0)"/>
<rect x="28" y="28" width="4" height="4" fill="rgb(0,0,0)"/>
<rect x="32" y="16" width="4" height="4" fill="rgb(0,0,0)"/>
<rect x="32" y="20" width="4" height="4" fill="rgb(0,0,0)"/>
<rect x="32" y="24" width="4" height="4" fill="rgb(0,0,0)"/>
<rect x="32" y="28" width="4" height="4" fill="rgb(0,0,0)"/>
<rect x="36" y="12" width="4" height="4" fill="rgb(0,0,0)"/>
<rect x="36" y="28" width="4" height="4" fill="rgb(0,0,0)"/>
<rect x="40" y="12" width="4" height="4" fill="rgb(0,0,0)"/>
<rect x="40" y="24" width="4" height="4" fill="rgb(0,0,0)"/>
<rect x="40" y="28" width="4" height="4" fill="rgb(0,0,0)"/>
<rect x="44" y="12" width="4" height="4" fill="rgb(0,0,0)"/>
<rect x="44" y="20" width="4" height="4" fill="rgb(0,0,0)"/>
<rect x="44" y="28" width="4" height="4" fill="rgb(0,0,0)"/>
<rect x="48" y="12" width="4" height="4" fill="rgb(0,0,0)"/>
<rect x="48" y="20" width="4" height="4" fill="rgb(0,0,0)"/>
<rect x="48" y="24" width="4" height="4" fill="rgb(0,0,0)"/>
<rect x="48" y="28" width="4" height="4" fill="rgb(0,0,0)"/>
<rect x="52" y="12" width="4" height="4" fill="rgb(0,0,0)"/>
<rect x="52" y="16" width="4" height="4" fill="rgb(0,0,0)"/>
<rect x="52" y="28" width="4" height="4" fill="rgb(0,0,0)"/>
<rect x="56" y="12" width="4" height="4" fill="rgb(0,0,0)"/>
<rect x="56" y="16" width="4" height="4" fill="rgb(0,0,0)"/>
<rect x="56" y="24" width="4" height="4" fill="rgb(0,0,0)"/>
<rect x="56" y="28" width="4" height="4" fill="rgb(0,0,0)"/>
<rect x="60" y="12" width="4" height="4" fill="rgb(0,0,0)"/>
<rect x="60" y="16" width="4" height="4" fill="rgb(0,0,0)"/>
<rect x="60" y="20" width="4" height="4" fill="rgb(0,0,0)"/>
<rect x="60" y="28" width="4" height="4" fill="rgb(0,0,0)"/>
<rect x="64" y="12" width="4" height="4" fill="rgb(0,0,0)"/>
<rect x="64" y="16" width="4" height="4" fill="rgb(0,0,0)"/>
<rect x="64" y="20" width="4" height="4" fill="rgb(0,0,0)"/>
<rect x="64" y="24" width="4" height="4" fill="rgb(0,0,0)"/>
<rect x="64" y="28" width="4" height="4" fill="rgb(0,0,0)"/>
<rect x="68" y="8" width="4" height="4" fill="rgb(0,0,0)"/>
<rect x="68" y="20" width="4" height="4" fill="rgb(0,0,0)"/>
<rect x="68" y="28" width="4" height="4" fill="rgb(0,0,0)"/>
<rect x="72" y="8" width="4" height="4" fill="rgb(0,0,0)"/>
<rect x="72" y="20" width="4" height="4" fill="rgb(0,0,0)"/>
<rect x="72" y="24" width="4" height="4" fill="rgb(0,0,0)"/>
<rect x="72" y="28" width="4" height="4" fill="rgb(0,0,0)"/>
<rect x="76" y="8" width="4" height="4" fill="rgb(0,0,0)"/>
<rect x="76" y="16" width="4" height="4" fill="rgb(0,0,0)"/>
<rect x="76" y="24" width="4" height="4" fill="rgb(0,0,0)"/>
<rect x="76" y="28" width="4" height="4" fill="rgb(0,0,0)"/>
<rect x="80" y="8" width="4" height="4" fill="rgb(0,0,0)"/>
<rect x="80" y="16" width="4" height="4" fill="rgb(0,0,0)"/>
<rect x="80" y="20" width="4" height="4" fill="rgb(0,0,0)"/>
<rect x="80" y="28" width="4" height="4" fill="rgb(0,0,0)"/>
<rect x="84" y="8" width="4" height="4" fill="rgb(0,0,0)"/>
<rect x="84" y="16" width="4" height="4" fill="rgb(0,0,0)"/>
<rect x="84" y="20" width="4" height="4" fill="rgb(0,0,0)"/>
<rect x="84" y="24" width="4" height="4" fill="rgb(0,0,0)"/>
<rect x="84" y="28" width="4" height="4" fill="rgb(0,0,0)"/>
<rect x="88" y="8" width="4" height="4" fill="rgb(0,0,0)"/>
<rect x="88" y="12" width="4" height="4" fill="rgb(0,0,0)"/>
<rect x="88" y="24" width="4" height="4" fill="rgb(0,0,0)"/>
<rect x="88" y="28" width="4" height="4" fill="rgb(0,0,0)"/>
<rect x="92" y="8" width="4" height="4" fill="rgb(0,0,0)"/>
<rect x="92" y="12" width="4" height="4" fill="rgb(0,0,0)"/>
<rect x="92" y="20" width="4" height="4" fill="rgb(0,0,0)"/>
<rect x="92" y="28" width="4" height="4" fill="rgb(0,0,0)"/>
<rect x="96" y="8" width="4" height="4" fill="rgb(0,0,0)"/>
<rect x="96" y="12" width="4" height="4" fill="rgb(0,0,0)"/>
<rect x="96" y="20" width="4" height="4" fill="rgb(0,0,0)"/>
<rect x="96" y="24" width="4" height="4" fill="rgb(0,0,0)"/>
<rect x="96" y="28" width="4" height="4" fill="rgb(0,0,0)"/>
<rect x="100" y="8" width="4" height="4" fill="rgb(0,0,0)"/>
<rect x="100" y="12" width="4" height="4" fill="rgb(0,0,0)"/>
<rect x="100" y="16" width="4" height="4" fill="rgb(0,0,0)"/>
<rect x="100" y="24" width="4" height="4" fill="rgb(0,0,0)"/>
<rect x="100" y="28" width="4" height="4" fill="rgb(0,0,0)"/>
<rect x="104" y="8" width="4" height="4" fill="rgb(0,0,0)"/>
<rect x="104" y="12" width="4" height="4" fill="rgb(0,0,0)"/>
<rect x="104" y="16" width="4" height="4" fill="rgb(0,0,0)"/>
<rect x="104" y="20" width="4" height="4" fill="rgb(0,0,0)"/>
<rect x="104" y="28" width="4" height="4" fill="rgb(0,0,0)"/>
<rect x="108" y="8" width="4" height="4" fill="rgb(0,0,0)"/>
<rect x="108" y="12" width="4" height="4" fill="rgb(0,0,0)"/>
<rect x="108" y="16" width="4" height="4" fill="rgb(0,0,0)"/>
<rect x="108" y="20" width="4" height="4" fill="rgb(0,0,0)"/>
<rect x="108" y="24" width="4" height="4" fill="rgb(0,0,0)"/>
<rect x="108" y="28" width="4" height="4" fill="rgb(0,0,0)"/>
<rect x="112" y="4" width="4" height="4" fill="rgb(0,0,0)"/>
<rect x="112" y="12" width="4" height="4" fill="rgb(0,0,0)"/>
<rect x="112" y="20" width="4" height="4" fill="rgb(0,0,0)"/>
<rect x="112" y="28" width="4" height="4" fill="rgb(0,0,0)"/>
<rect x="116" y="4" width="4" height="4" fill="rgb(0,0,0)"/>
<rect x="116" y="12" width="4" height="4" fill="rgb(0,0,0)"/>
<rect x="116" y="20" width="4" height="4" fill="rgb(0,0,0)"/>
<rect x="116" y="24" width="4" height="4" fill="rgb(0,0,0)"/>
<rect x="116" y="28" width="4" height="4" fill="rgb(0,0,0)"/>
<rect x="120" y="4" width="4" height="4" fill="rgb(0,0,0)"/>
<rect x="120" y="12" width="4" height="4" fill="rgb(0,0,0)"/>
<rect x="120" y="16" width="4" height="4" fill="rgb(0,0,0)"/>
<rect x="120" y="24" width="4" height="4" fill="rgb(0,0,0)"/>
<rect x="120" y="28" width="4" height="4" fill="rgb(0,0,0)"/>
<rect x="124" y="4" width="4" height="4" fill="rgb(0,0,0)"/>
<rect x="124" y="12" width="4" height="4" fill="rgb(0,0,0)"/>
<rect x="124" y="16" width="4" height="4" fill="rgb(0,0,0)"/>
<rect x="124" y="20" width="4" height="4" fill="rgb(0,0,0)"/>
<rect x="124" y="24" width="4" height="4" fill="rgb(0,0,0)"/>
<rect x="124" y="28" width="4" height="4" fill="rgb(0,0,0)"/>
<rect x="128" y="4" width="4" height="4" fill="rgb(0,0,0)"/>
<rect x="128" y="8" width="4" height="4" fill="rgb(0,0,0)"/>
<rect x="128" y="16" width="4" height="4" fill="rgb(0,0,0)"/>
<rect x="128" y="20" width="4" height="4" fill="rgb(0,0,0)"/>
<rect x="128" y="24" width="4" height="4" fill="rgb(0,0,0)"/>
<rect x="128" y="28" width="4" height="4" fill="rgb(0,0,0)"/>
<rect x="132" y="4" width="4" height="4" fill="rgb(0,0,0)"/>
<rect x="132" y="8" width="4" height="4" fill="rgb(0,0,0)"/>
<rect x="132" y="12" width="4" height="4" fill="rgb(0,0,0)"/>
<rect x="132" y="20" width="4" height="4" fill="rgb(0,0,0)"/>
<rect x="132" y="24" width="4" height="4" fill="rgb(0,0,0)"/>
<rect x="132" y="28" width="4" height="4" fill="rgb(0,0,0)"/>
<rect x="136" y="4" width="4" height="4" fill="rgb(0,0,0)"/>
<rect x="136" y="8" width="4" height="4" fill="rgb(0,0,0)"/>
<rect x="136" y="12" width="4" height="4" fill="rgb(0,0,0)"/>
<rect x="136" y="16" width="4" height="4" fill="rgb(0,0,0)"/>
<rect x="136" y="20" width="4" height="4" fill="rgb(0,0,0)"/>
<rect x="136" y="24" width="4" height="4" fill="rgb(0,0,0)"/>
<rect x="136" y="28" width="4" height="4" fill="rgb(0,0,0)"/>
<rect x="140" y="0" width="4" height="4" fill="rgb(0,0,0)"/>
<rect x="140" y="4" width="4" height="4" fill="rgb(0,0,0)"/>
<rect x="140" y="8" width="4" height="4" fill="rgb(0,0,0)"/>
<rect x="140" y="12" width="4" height="4" fill="rgb(0,0,0)"/>
<rect x="140" y="16" width="4" height="4" fill="rgb(0,0,0)"/>
<rect x="140" y="20" width="4" height="4" fill="rgb(0,0,0)"/>
<rect x="140" y="24" width="4" height="4" fill="rgb(0,0,0)"/>
<rect x="140" y="28" width="4" height="4" fill="rgb(0,0,0)"/>
</svg>