<svg xmlns="http://www.w3.org/2000/svg" width="161.8" height="100.0" viewBox="-1.764 -5.000 171.803 110.000">
<g fill="none" stroke="black" stroke-width="0.0047%" transform="translate(0, 100.0000) scale(106.4373, -106.4373)">
<circle cx="0.030" cy="0.000" r="0.005" />
<polyline points="0.030,0.111 0.061,0.222 0.091,0.444 0.122,0.889 0.152,0.778 0.182,0.556 0.213,0.111 0.243,0.222 0.274,0.444 0.304,0.888 0.334,0.777 0.365,0.553 0.395,0.107 0.426,0.213 0.456,0.426 0.486,0.852 0.517,0.705 0.547,0.410 0.578,0.820 0.608,0.640 0.638,0.279 0.669,0.559 0.699,0.117 0.730,0.235 0.760,0.470 0.790,0.940 0.821,0.879 0.851,0.758 0.882,0.516 0.912,0.032 0.943,0.065 0.973,0.129 1.003,0.259 1.034,0.517 1.064,0.034 1.095,0.068 1.125,0.137 1.155,0.274 1.186,0.548 1.216,0.096 1.247,0.191 1.277,0.383 1.307,0.766 1.338,0.531 1.368,0.063 1.399,0.125 1.429,0.250 1.459,0.500 1.490,0.000 1.520,0.000 1.551,0.000" />
</g>
</svg>