<svg xmlns="http://www.w3.org/2000/svg" width="161.8" height="100.0" viewBox="-2.51 -5.00 171.80 110.00">
<g fill="none" stroke="black" stroke-width="0.0350%" transform="translate(0, 100.0000) scale(14.2857, -14.2857)">
<polyline points="0.17,0.00 0.35,0.00 0.35,7.00 0.52,7.00 0.52,6.00 0.70,6.00 0.70,6.00 0.87,6.00 0.87,3.00 1.05,3.00 1.05,5.00 1.22,5.00 1.22,5.00 1.39,5.00 1.39,4.00 1.57,4.00 1.57,5.00 1.74,5.00 1.74,1.00 1.92,1.00 1.92,1.00 2.09,1.00 2.09,7.00 2.27,7.00 2.27,6.00 2.44,6.00 2.44,6.00 2.61,6.00 2.61,3.00 2.79,3.00 2.79,5.00 2.96,5.00 2.96,5.00 3.14,5.00 3.14,4.00 3.31,4.00 3.31,5.00 3.48,5.00 3.48,1.00 3.66,1.00 3.66,7.00 3.83,7.00 3.83,6.00 4.01,6.00 4.01,5.00 4.18,5.00 4.18,4.00 4.36,4.00 4.36,2.00 4.53,2.00 4.53,4.00 4.70,4.00 4.70,5.00 4.88,5.00 4.88,3.00 5.05,3.00 5.05,4.00 5.23,4.00 5.23,1.00 5.40,1.00 5.40,6.00 5.58,6.00 5.58,5.00 5.75,5.00 5.75,5.00 5.92,5.00 5.92,4.00 6.10,4.00 6.10,3.00 6.27,3.00 6.27,4.00 6.45,4.00 6.45,4.00 6.62,4.00 6.62,3.00 6.80,3.00 6.80,4.00 6.97,4.00 6.97,1.00 7.14,1.00 7.14,6.00 7.32,6.00 7.32,4.00 7.49,4.00 7.49,4.00 7.67,4.00 7.67,3.00 7.84,3.00 7.84,2.00 8.02,2.00 8.02,3.00 8.19,3.00 8.19,3.00 8.36,3.00 8.36,2.00 8.54,2.00 8.54,4.00 8.71,4.00 8.71,1.00 8.89,1.00 8.89,3.00 9.06,3.00 9.06,2.00 9.24,2.00 9.24,3.00 9.41,3.00 9.41,2.00 9.58,2.00 9.58,3.00 9.76,3.00 9.76,2.00 9.93,2.00 9.93,3.00 10.11,3.00 10.11,2.00 10.28,2.00 10.28,2.00 10.45,2.00 10.45,1.00 10.63,1.00 10.63,5.00 10.80,5.00 10.80,4.00 10.98,4.00 10.98,4.00 11.15,4.00 11.15,3.00 11.33,3.00 11.33,2.00 11.50,2.00" />
</g>
</svg>