<svg xmlns="http://www.w3.org/2000/svg" width="161.8" height="100.0" viewBox="-2.81 2.69 171.80 110.00">
<g fill="none" stroke="black" stroke-width="0.0650%" transform="translate(0, 115.3846) scale(7.6923, -7.6923)">
<polyline points="0.28,1.00 0.57,1.00 0.57,1.00 0.85,1.00 0.85,1.00 1.14,1.00 1.14,2.00 1.42,2.00 1.42,1.00 1.71,1.00 1.71,1.00 1.99,1.00 1.99,2.00 2.27,2.00 2.27,1.00 2.56,1.00 2.56,1.00 2.84,1.00 2.84,2.00 3.13,2.00 3.13,3.00 3.41,3.00 3.41,1.00 3.70,1.00 3.70,1.00 3.98,1.00 3.98,1.00 4.26,1.00 4.26,2.00 4.55,2.00 4.55,2.00 4.83,2.00 4.83,3.00 5.12,3.00 5.12,4.00 5.40,4.00 5.40,1.00 5.68,1.00 5.68,1.00 5.97,1.00 5.97,1.00 6.25,1.00 6.25,1.00 6.54,1.00 6.54,2.00 6.82,2.00 6.82,2.00 7.11,2.00 7.11,2.00 7.39,2.00 7.39,3.00 7.67,3.00 7.67,3.00 7.96,3.00 7.96,4.00 8.24,4.00 8.24,4.00 8.53,4.00 8.53,5.00 8.81,5.00 8.81,6.00 9.10,6.00 9.10,7.00 9.38,7.00 9.38,1.00 9.66,1.00 9.66,1.00 9.95,1.00 9.95,1.00 10.23,1.00 10.23,1.00 10.52,1.00 10.52,1.00 10.80,1.00 10.80,1.00 11.09,1.00 11.09,1.00 11.37,1.00 11.37,2.00 11.65,2.00 11.65,2.00 11.94,2.00 11.94,2.00 12.22,2.00 12.22,2.00 12.51,2.00 12.51,2.00 12.79,2.00 12.79,2.00 13.08,2.00 13.08,3.00 13.36,3.00 13.36,3.00 13.64,3.00 13.64,3.00 13.93,3.00 13.93,3.00 14.21,3.00 14.21,3.00 14.50,3.00 14.50,4.00 14.78,4.00 14.78,4.00 15.07,4.00 15.07,4.00 15.35,4.00 15.35,4.00 15.63,4.00 15.63,5.00 15.92,5.00 15.92,5.00 16.20,5.00 16.20,5.00 16.49,5.00 16.49,5.00 16.77,5.00 16.77,6.00 17.05,6.00 17.05,6.00 17.34,6.00 17.34,6.00 17.62,6.00 17.62,7.00 17.91,7.00 17.91,7.00 18.19,7.00 18.19,7.00 18.48,7.00 18.48,8.00 18.76,8.00 18.76,8.00 19.04,8.00 19.04,9.00 19.33,9.00 19.33,9.00 19.61,9.00 19.61,10.00 19.90,10.00 19.90,10.00 20.18,10.00 20.18,11.00 20.47,11.00 20.47,12.00 20.75,12.00 20.75,13.00 21.03,13.00 21.03,14.00 21.32,14.00" />
</g>
</svg>