<svg xmlns="http://www.w3.org/2000/svg" width="161.2" height="100.0" viewBox="-3.6 -5.0 171.2 110.0">
<g fill="none" stroke="black" stroke-width="1.3000%" transform="translate(0, 100.0000) scale(0.3846, -0.3846)">
<line x1="3.6" y1="0.0" x2="3.6" y2="1.0" />
<line x1="7.3" y1="0.0" x2="7.3" y2="3.0" />
<line x1="10.9" y1="0.0" x2="10.9" y2="6.0" />
<line x1="14.6" y1="0.0" x2="14.6" y2="3.0" />
<line x1="18.2" y1="0.0" x2="18.2" y2="8.0" />
<line x1="21.9" y1="0.0" x2="21.9" y2="4.0" />
<line x1="25.5" y1="0.0" x2="25.5" y2="2.0" />
<line x1="29.2" y1="0.0" x2="29.2" y2="1.0" />
<line x1="32.8" y1="0.0" x2="32.8" y2="8.0" />
<line x1="36.4" y1="0.0" x2="36.4" y2="4.0" />
<line x1="40.1" y1="0.0" x2="40.1" y2="2.0" />
<line x1="43.7" y1="0.0" x2="43.7" y2="1.0" />
<line x1="47.4" y1="0.0" x2="47.4" y2="12.0" />
<line x1="51.0" y1="0.0" x2="51.0" y2="6.0" />
<line x1="54.7" y1="0.0" x2="54.7" y2="3.0" />
<line x1="58.3" y1="0.0" x2="58.3" y2="16.0" />
<line x1="61.9" y1="0.0" x2="61.9" y2="8.0" />
<line x1="65.6" y1="0.0" x2="65.6" y2="4.0" />
<line x1="69.2" y1="0.0" x2="69.2" y2="2.0" />
<line x1="72.9" y1="0.0" x2="72.9" y2="1.0" />
<line x1="76.5" y1="0.0" x2="76.5" y2="18.0" />
<line x1="80.2" y1="0.0" x2="80.2" y2="9.0" />
<line x1="83.8" y1="0.0" x2="83.8" y2="28.0" />
<line x1="87.5" y1="0.0" x2="87.5" y2="14.0" />
<line x1="91.1" y1="0.0" x2="91.1" y2="7.0" />
<line x1="94.7" y1="0.0" x2="94.7" y2="30.0" />
<line x1="98.4" y1="0.0" x2="98.4" y2="15.0" />
<line x1="102.0" y1="0.0" x2="102.0" y2="44.0" />
<line x1="105.7" y1="0.0" x2="105.7" y2="22.0" />
<line x1="109.3" y1="0.0" x2="109.3" y2="11.0" />
<line x1="113.0" y1="0.0" x2="113.0" y2="42.0" />
<line x1="116.6" y1="0.0" x2="116.6" y2="21.0" />
<line x1="120.3" y1="0.0" x2="120.3" y2="58.0" />
<line x1="123.9" y1="0.0" x2="123.9" y2="29.0" />
<line x1="127.5" y1="0.0" x2="127.5" y2="70.0" />
<line x1="131.2" y1="0.0" x2="131.2" y2="35.0" />
<line x1="134.8" y1="0.0" x2="134.8" y2="78.0" />
<line x1="138.5" y1="0.0" x2="138.5" y2="39.0" />
<line x1="142.1" y1="0.0" x2="142.1" y2="86.0" />
<line x1="145.8" y1="0.0" x2="145.8" y2="43.0" />
<line x1="149.4" y1="0.0" x2="149.4" y2="96.0" />
<line x1="153.1" y1="0.0" x2="153.1" y2="48.0" />
<line x1="156.7" y1="0.0" x2="156.7" y2="24.0" />
<line x1="160.3" y1="0.0" x2="160.3" y2="12.0" />
<line x1="164.0" y1="0.0" x2="164.0" y2="6.0" />
<line x1="167.6" y1="0.0" x2="167.6" y2="3.0" />
<line x1="171.3" y1="0.0" x2="171.3" y2="62.0" />
<line x1="174.9" y1="0.0" x2="174.9" y2="31.0" />
<line x1="178.6" y1="0.0" x2="178.6" y2="92.0" />
<line x1="182.2" y1="0.0" x2="182.2" y2="46.0" />
<line x1="185.8" y1="0.0" x2="185.8" y2="23.0" />
<line x1="189.5" y1="0.0" x2="189.5" y2="90.0" />
<line x1="193.1" y1="0.0" x2="193.1" y2="45.0" />
<line x1="196.8" y1="0.0" x2="196.8" y2="116.0" />
<line x1="200.4" y1="0.0" x2="200.4" y2="58.0" />
<line x1="204.1" y1="0.0" x2="204.1" y2="29.0" />
<line x1="207.7" y1="0.0" x2="207.7" y2="102.0" />
<line x1="211.4" y1="0.0" x2="211.4" y2="51.0" />
<line x1="215.0" y1="0.0" x2="215.0" y2="130.0" />
<line x1="218.6" y1="0.0" x2="218.6" y2="65.0" />
<line x1="222.3" y1="0.0" x2="222.3" y2="148.0" />
<line x1="225.9" y1="0.0" x2="225.9" y2="74.0" />
<line x1="229.6" y1="0.0" x2="229.6" y2="37.0" />
<line x1="233.2" y1="0.0" x2="233.2" y2="126.0" />
<line x1="236.9" y1="0.0" x2="236.9" y2="63.0" />
<line x1="240.5" y1="0.0" x2="240.5" y2="160.0" />
<line x1="244.2" y1="0.0" x2="244.2" y2="80.0" />
<line x1="247.8" y1="0.0" x2="247.8" y2="40.0" />
<line x1="251.4" y1="0.0" x2="251.4" y2="20.0" />
<line x1="255.1" y1="0.0" x2="255.1" y2="10.0" />
<line x1="258.7" y1="0.0" x2="258.7" y2="5.0" />
<line x1="262.4" y1="0.0" x2="262.4" y2="106.0" />
<line x1="266.0" y1="0.0" x2="266.0" y2="53.0" />
<line x1="269.7" y1="0.0" x2="269.7" y2="156.0" />
<line x1="273.3" y1="0.0" x2="273.3" y2="78.0" />
<line x1="277.0" y1="0.0" x2="277.0" y2="39.0" />
<line x1="280.6" y1="0.0" x2="280.6" y2="146.0" />
<line x1="284.2" y1="0.0" x2="284.2" y2="73.0" />
<line x1="287.9" y1="0.0" x2="287.9" y2="182.0" />
<line x1="291.5" y1="0.0" x2="291.5" y2="91.0" />
<line x1="295.2" y1="0.0" x2="295.2" y2="204.0" />
<line x1="298.8" y1="0.0" x2="298.8" y2="102.0" />
<line x1="302.5" y1="0.0" x2="302.5" y2="51.0" />
<line x1="306.1" y1="0.0" x2="306.1" y2="178.0" />
<line x1="309.7" y1="0.0" x2="309.7" y2="89.0" />
<line x1="313.4" y1="0.0" x2="313.4" y2="220.0" />
<line x1="317.0" y1="0.0" x2="317.0" y2="110.0" />
<line x1="320.7" y1="0.0" x2="320.7" y2="55.0" />
<line x1="324.3" y1="0.0" x2="324.3" y2="192.0" />
<line x1="328.0" y1="0.0" x2="328.0" y2="96.0" />
<line x1="331.6" y1="0.0" x2="331.6" y2="48.0" />
<line x1="335.3" y1="0.0" x2="335.3" y2="24.0" />
<line x1="338.9" y1="0.0" x2="338.9" y2="12.0" />
<line x1="342.5" y1="0.0" x2="342.5" y2="6.0" />
<line x1="346.2" y1="0.0" x2="346.2" y2="3.0" />
<line x1="349.8" y1="0.0" x2="349.8" y2="142.0" />
<line x1="353.5" y1="0.0" x2="353.5" y2="71.0" />
<line x1="357.1" y1="0.0" x2="357.1" y2="220.0" />
<line x1="360.8" y1="0.0" x2="360.8" y2="110.0" />
<line x1="364.4" y1="0.0" x2="364.4" y2="55.0" />
<line x1="368.1" y1="0.0" x2="368.1" y2="206.0" />
<line x1="371.7" y1="0.0" x2="371.7" y2="103.0" />
<line x1="375.3" y1="0.0" x2="375.3" y2="260.0" />
<line x1="379.0" y1="0.0" x2="379.0" y2="130.0" />
<line x1="382.6" y1="0.0" x2="382.6" y2="65.0" />
<line x1="386.3" y1="0.0" x2="386.3" y2="228.0" />
<line x1="389.9" y1="0.0" x2="389.9" y2="114.0" />
<line x1="393.6" y1="0.0" x2="393.6" y2="57.0" />
<line x1="397.2" y1="0.0" x2="397.2" y2="224.0" />
<line x1="400.9" y1="0.0" x2="400.9" y2="112.0" />
<line x1="404.5" y1="0.0" x2="404.5" y2="56.0" />
<line x1="408.1" y1="0.0" x2="408.1" y2="28.0" />
<line x1="411.8" y1="0.0" x2="411.8" y2="14.0" />
<line x1="415.4" y1="0.0" x2="415.4" y2="7.0" />
<line x1="419.1" y1="0.0" x2="419.1" y2="180.0" />
<line x1="422.7" y1="0.0" x2="422.7" y2="90.0" />
</g>
</svg>