<svg xmlns="http://www.w3.org/2000/svg" width="161.8" height="100.0" viewBox="-4.10 -5.00 171.80 110.00">
<g fill="none" stroke="black" stroke-width="0.0953%" transform="translate(0, 100.0000) scale(5.2472, -5.2472)">
<circle cx="0.17" cy="0.00" r="0.10" />
<circle cx="0.34" cy="0.69" r="0.10" />
<circle cx="0.52" cy="1.10" r="0.10" />
<circle cx="0.69" cy="1.79" r="0.10" />
<circle cx="0.86" cy="2.20" r="0.10" />
<circle cx="1.03" cy="2.89" r="0.10" />
<circle cx="1.21" cy="1.61" r="0.10" />
<circle cx="1.38" cy="2.30" r="0.10" />
<circle cx="1.55" cy="2.71" r="0.10" />
<circle cx="1.72" cy="3.40" r="0.10" />
<circle cx="1.89" cy="3.81" r="0.10" />
<circle cx="2.07" cy="4.50" r="0.10" />
<circle cx="2.24" cy="3.22" r="0.10" />
<circle cx="2.41" cy="3.91" r="0.10" />
<circle cx="2.58" cy="4.32" r="0.10" />
<circle cx="2.76" cy="5.01" r="0.10" />
<circle cx="2.93" cy="5.42" r="0.10" />
<circle cx="3.10" cy="6.11" r="0.10" />
<circle cx="3.27" cy="4.83" r="0.10" />
<circle cx="3.45" cy="5.52" r="0.10" />
<circle cx="3.62" cy="5.93" r="0.10" />
<circle cx="3.79" cy="6.62" r="0.10" />
<circle cx="3.96" cy="7.03" r="0.10" />
<circle cx="4.13" cy="7.72" r="0.10" />
<circle cx="4.31" cy="6.44" r="0.10" />
<circle cx="4.48" cy="7.13" r="0.10" />
<circle cx="4.65" cy="7.54" r="0.10" />
<circle cx="4.82" cy="8.23" r="0.10" />
<circle cx="5.00" cy="8.63" r="0.10" />
<circle cx="5.17" cy="9.33" r="0.10" />
<circle cx="5.34" cy="1.95" r="0.10" />
<circle cx="5.51" cy="2.64" r="0.10" />
<circle cx="5.68" cy="3.04" r="0.10" />
<circle cx="5.86" cy="3.74" r="0.10" />
<circle cx="6.03" cy="4.14" r="0.10" />
<circle cx="6.20" cy="4.84" r="0.10" />
<circle cx="6.37" cy="3.56" r="0.10" />
<circle cx="6.55" cy="4.25" r="0.10" />
<circle cx="6.72" cy="4.65" r="0.10" />
<circle cx="6.89" cy="5.35" r="0.10" />
<circle cx="7.06" cy="5.75" r="0.10" />
<circle cx="7.24" cy="6.45" r="0.10" />
<circle cx="7.41" cy="5.16" r="0.10" />
<circle cx="7.58" cy="5.86" r="0.10" />
<circle cx="7.75" cy="6.26" r="0.10" />
<circle cx="7.92" cy="6.96" r="0.10" />
<circle cx="8.10" cy="7.36" r="0.10" />
<circle cx="8.27" cy="8.06" r="0.10" />
<circle cx="8.44" cy="6.77" r="0.10" />
<circle cx="8.61" cy="7.47" r="0.10" />
<circle cx="8.79" cy="7.87" r="0.10" />
<circle cx="8.96" cy="8.57" r="0.10" />
<circle cx="9.13" cy="8.97" r="0.10" />
<circle cx="9.30" cy="9.66" r="0.10" />
<circle cx="9.47" cy="8.38" r="0.10" />
<circle cx="9.65" cy="9.08" r="0.10" />
<circle cx="9.82" cy="9.48" r="0.10" />
<circle cx="9.99" cy="10.18" r="0.10" />
<circle cx="10.16" cy="10.58" r="0.10" />
<circle cx="10.34" cy="11.27" r="0.10" />
<circle cx="10.51" cy="3.89" r="0.10" />
<circle cx="10.68" cy="4.58" r="0.10" />
<circle cx="10.85" cy="4.99" r="0.10" />
<circle cx="11.03" cy="5.68" r="0.10" />
<circle cx="11.20" cy="6.09" r="0.10" />
<circle cx="11.37" cy="6.78" r="0.10" />
<circle cx="11.54" cy="5.50" r="0.10" />
<circle cx="11.71" cy="6.19" r="0.10" />
<circle cx="11.89" cy="6.60" r="0.10" />
<circle cx="12.06" cy="7.29" r="0.10" />
<circle cx="12.23" cy="7.70" r="0.10" />
<circle cx="12.40" cy="8.39" r="0.10" />
<circle cx="12.58" cy="7.11" r="0.10" />
<circle cx="12.75" cy="7.80" r="0.10" />
<circle cx="12.92" cy="8.21" r="0.10" />
<circle cx="13.09" cy="8.90" r="0.10" />
<circle cx="13.26" cy="9.31" r="0.10" />
<circle cx="13.44" cy="10.00" r="0.10" />
<circle cx="13.61" cy="8.72" r="0.10" />
<circle cx="13.78" cy="9.41" r="0.10" />
<circle cx="13.95" cy="9.82" r="0.10" />
<circle cx="14.13" cy="10.51" r="0.10" />
<circle cx="14.30" cy="10.92" r="0.10" />
<circle cx="14.47" cy="11.61" r="0.10" />
<circle cx="14.64" cy="10.33" r="0.10" />
<circle cx="14.82" cy="11.02" r="0.10" />
<circle cx="14.99" cy="11.43" r="0.10" />
<circle cx="15.16" cy="12.12" r="0.10" />
<circle cx="15.33" cy="12.53" r="0.10" />
<circle cx="15.50" cy="13.22" r="0.10" />
<circle cx="15.68" cy="5.84" r="0.10" />
<circle cx="15.85" cy="6.53" r="0.10" />
<circle cx="16.02" cy="6.94" r="0.10" />
<circle cx="16.19" cy="7.63" r="0.10" />
<circle cx="16.37" cy="8.03" r="0.10" />
<circle cx="16.54" cy="8.73" r="0.10" />
<circle cx="16.71" cy="7.45" r="0.10" />
<circle cx="16.88" cy="8.14" r="0.10" />
<circle cx="17.05" cy="8.55" r="0.10" />
<circle cx="17.23" cy="9.24" r="0.10" />
<circle cx="17.40" cy="9.64" r="0.10" />
<circle cx="17.57" cy="10.34" r="0.10" />
<circle cx="17.74" cy="9.06" r="0.10" />
<circle cx="17.92" cy="9.75" r="0.10" />
<circle cx="18.09" cy="10.16" r="0.10" />
<circle cx="18.26" cy="10.85" r="0.10" />
<circle cx="18.43" cy="11.25" r="0.10" />
<circle cx="18.60" cy="11.95" r="0.10" />
<circle cx="18.78" cy="10.67" r="0.10" />
<circle cx="18.95" cy="11.36" r="0.10" />
<circle cx="19.12" cy="11.76" r="0.10" />
<circle cx="19.29" cy="12.46" r="0.10" />
<circle cx="19.47" cy="12.86" r="0.10" />
<circle cx="19.64" cy="13.56" r="0.10" />
<circle cx="19.81" cy="12.28" r="0.10" />
<circle cx="19.98" cy="12.97" r="0.10" />
<circle cx="20.16" cy="13.37" r="0.10" />
<circle cx="20.33" cy="14.07" r="0.10" />
<circle cx="20.50" cy="14.47" r="0.10" />
<circle cx="20.67" cy="15.17" r="0.10" />
<circle cx="20.84" cy="7.78" r="0.10" />
<circle cx="21.02" cy="8.48" r="0.10" />
<circle cx="21.19" cy="8.88" r="0.10" />
<circle cx="21.36" cy="9.58" r="0.10" />
<circle cx="21.53" cy="9.98" r="0.10" />
<circle cx="21.71" cy="10.67" r="0.10" />
<circle cx="21.88" cy="9.39" r="0.10" />
<circle cx="22.05" cy="10.09" r="0.10" />
<circle cx="22.22" cy="10.49" r="0.10" />
<circle cx="22.39" cy="11.18" r="0.10" />
<circle cx="22.57" cy="11.59" r="0.10" />
<circle cx="22.74" cy="12.28" r="0.10" />
<circle cx="22.91" cy="11.00" r="0.10" />
<circle cx="23.08" cy="11.70" r="0.10" />
<circle cx="23.26" cy="12.10" r="0.10" />
<circle cx="23.43" cy="12.79" r="0.10" />
<circle cx="23.60" cy="13.20" r="0.10" />
<circle cx="23.77" cy="13.89" r="0.10" />
<circle cx="23.95" cy="12.61" r="0.10" />
<circle cx="24.12" cy="13.31" r="0.10" />
<circle cx="24.29" cy="13.71" r="0.10" />
<circle cx="24.46" cy="14.40" r="0.10" />
<circle cx="24.63" cy="14.81" r="0.10" />
<circle cx="24.81" cy="15.50" r="0.10" />
<circle cx="24.98" cy="14.22" r="0.10" />
<circle cx="25.15" cy="14.91" r="0.10" />
<circle cx="25.32" cy="15.32" r="0.10" />
<circle cx="25.50" cy="16.01" r="0.10" />
<circle cx="25.67" cy="16.42" r="0.10" />
<circle cx="25.84" cy="17.11" r="0.10" />
<circle cx="26.01" cy="9.73" r="0.10" />
<circle cx="26.18" cy="10.42" r="0.10" />
<circle cx="26.36" cy="10.83" r="0.10" />
<circle cx="26.53" cy="11.52" r="0.10" />
<circle cx="26.70" cy="11.93" r="0.10" />
<circle cx="26.87" cy="12.62" r="0.10" />
<circle cx="27.05" cy="11.34" r="0.10" />
<circle cx="27.22" cy="12.03" r="0.10" />
<circle cx="27.39" cy="12.44" r="0.10" />
<circle cx="27.56" cy="13.13" r="0.10" />
<circle cx="27.74" cy="13.54" r="0.10" />
<circle cx="27.91" cy="14.23" r="0.10" />
<circle cx="28.08" cy="12.95" r="0.10" />
<circle cx="28.25" cy="13.64" r="0.10" />
<circle cx="28.42" cy="14.05" r="0.10" />
<circle cx="28.60" cy="14.74" r="0.10" />
<circle cx="28.77" cy="15.15" r="0.10" />
<circle cx="28.94" cy="15.84" r="0.10" />
<circle cx="29.11" cy="14.56" r="0.10" />
<circle cx="29.29" cy="15.25" r="0.10" />
<circle cx="29.46" cy="15.66" r="0.10" />
<circle cx="29.63" cy="16.35" r="0.10" />
<circle cx="29.80" cy="16.76" r="0.10" />
<circle cx="29.97" cy="17.45" r="0.10" />
<circle cx="30.15" cy="16.17" r="0.10" />
<circle cx="30.32" cy="16.86" r="0.10" />
<circle cx="30.49" cy="17.27" r="0.10" />
<circle cx="30.66" cy="17.96" r="0.10" />
<circle cx="30.84" cy="18.36" r="0.10" />
<circle cx="31.01" cy="19.06" r="0.10" />
</g>
</svg>