<svg xmlns="http://www.w3.org/2000/svg" width="161.8" height="100.0" viewBox="-3.35 -20.67 171.80 110.00">
<g fill="none" stroke="black" stroke-width="0.0424%" transform="translate(0, 68.6589) scale(11.7882, -11.7882)">
<circle cx="0.14" cy="0.00" r="0.04" />
<polyline points="0.14,-0.54 0.28,-0.73 0.42,0.01 0.56,0.14 0.70,-0.06 0.84,0.89 0.98,-0.23 1.12,0.00 1.26,0.63 1.40,-0.02 1.54,-0.10 1.68,0.00 1.82,-0.11 1.96,0.28 2.10,0.29 2.24,-0.55 2.38,0.05 2.52,0.08 2.66,0.04 2.80,0.08 2.94,0.04 3.08,-0.51 3.22,0.04 3.36,-0.06 3.50,-0.14 3.64,0.02 3.78,0.34 3.92,-0.00 4.06,-0.03 4.20,0.03 4.34,-0.04 4.48,-0.12 4.62,-0.02 4.76,-0.35 4.90,0.06 5.04,0.49 5.18,0.05 5.32,0.02 5.46,-0.14 5.60,0.61 5.74,-0.28 5.88,0.66 6.02,-0.10 6.16,-0.11 6.30,-0.27 6.44,0.19 6.58,-0.02 6.72,-0.03 6.86,-1.33 7.00,-0.16 7.14,-0.01 7.28,0.03 7.42,0.04 7.56,0.14 7.70,0.06 7.84,0.45 7.98,0.27 8.12,-0.11 8.26,-0.02 8.40,0.07 8.54,-0.04 8.68,-0.03 8.82,0.04 8.96,0.61 9.10,0.09 9.24,-0.29 9.38,-0.07 9.52,-0.03 9.66,-0.09 9.80,0.44 9.94,0.01 10.08,-0.18 10.22,0.02 10.36,-0.05 10.50,-0.30 10.64,0.01 10.78,7.15 10.92,0.10 11.06,-0.08 11.20,-0.80 11.34,0.05 11.48,0.11 11.62,-0.12 11.76,0.73 11.91,-0.00 12.05,0.21 12.19,0.05 12.33,-0.06 12.47,0.05 12.61,-0.20 12.75,0.03 12.89,-0.01 13.03,0.89 13.17,-0.01 13.31,-0.15 13.45,-0.07 13.59,0.68 13.73,-0.02 13.87,-0.26" />
</g>
</svg>