<svg xmlns="http://www.w3.org/2000/svg" width="161.8" height="100.0" viewBox="-4.30 2.76 171.80 110.00">
<g fill="none" stroke="black" stroke-width="0.0708%" transform="translate(0, 115.5274) scale(7.0668, -7.0668)">
<circle cx="0.10" cy="1.10" r="0.07" />
<circle cx="0.20" cy="2.08" r="0.07" />
<circle cx="0.30" cy="2.08" r="0.07" />
<circle cx="0.40" cy="2.48" r="0.07" />
<circle cx="0.50" cy="1.79" r="0.07" />
<circle cx="0.60" cy="2.48" r="0.07" />
<circle cx="0.70" cy="3.47" r="0.07" />
<circle cx="0.80" cy="2.40" r="0.07" />
<circle cx="0.90" cy="2.40" r="0.07" />
<circle cx="1.00" cy="3.47" r="0.07" />
<circle cx="1.10" cy="3.87" r="0.07" />
<circle cx="1.19" cy="4.16" r="0.07" />
<circle cx="1.29" cy="2.56" r="0.07" />
<circle cx="1.39" cy="4.16" r="0.07" />
<circle cx="1.49" cy="3.87" r="0.07" />
<circle cx="1.59" cy="4.85" r="0.07" />
<circle cx="1.69" cy="4.85" r="0.07" />
<circle cx="1.79" cy="4.85" r="0.07" />
<circle cx="1.89" cy="4.85" r="0.07" />
<circle cx="1.99" cy="4.85" r="0.07" />
<circle cx="2.09" cy="4.85" r="0.07" />
<circle cx="2.19" cy="5.26" r="0.07" />
<circle cx="2.29" cy="4.56" r="0.07" />
<circle cx="2.39" cy="5.26" r="0.07" />
<circle cx="2.49" cy="3.18" r="0.07" />
<circle cx="2.59" cy="5.26" r="0.07" />
<circle cx="2.69" cy="4.56" r="0.07" />
<circle cx="2.79" cy="5.26" r="0.07" />
<circle cx="2.89" cy="6.24" r="0.07" />
<circle cx="2.99" cy="5.17" r="0.07" />
<circle cx="3.09" cy="5.17" r="0.07" />
<circle cx="3.19" cy="3.78" r="0.07" />
<circle cx="3.29" cy="3.78" r="0.07" />
<circle cx="3.38" cy="5.17" r="0.07" />
<circle cx="3.48" cy="5.17" r="0.07" />
<circle cx="3.58" cy="6.24" r="0.07" />
<circle cx="3.68" cy="6.64" r="0.07" />
<circle cx="3.78" cy="6.93" r="0.07" />
<circle cx="3.88" cy="5.34" r="0.07" />
<circle cx="3.98" cy="4.32" r="0.07" />
<circle cx="4.08" cy="3.95" r="0.07" />
<circle cx="4.18" cy="4.32" r="0.07" />
<circle cx="4.28" cy="5.34" r="0.07" />
<circle cx="4.38" cy="6.93" r="0.07" />
<circle cx="4.48" cy="6.64" r="0.07" />
<circle cx="4.58" cy="7.62" r="0.07" />
<circle cx="4.68" cy="7.62" r="0.07" />
<circle cx="4.78" cy="7.62" r="0.07" />
<circle cx="4.88" cy="4.95" r="0.07" />
<circle cx="4.98" cy="4.95" r="0.07" />
<circle cx="5.08" cy="4.95" r="0.07" />
<circle cx="5.18" cy="4.95" r="0.07" />
<circle cx="5.28" cy="7.62" r="0.07" />
<circle cx="5.38" cy="7.62" r="0.07" />
<circle cx="5.48" cy="7.62" r="0.07" />
<circle cx="5.57" cy="8.03" r="0.07" />
<circle cx="5.67" cy="7.34" r="0.07" />
<circle cx="5.77" cy="8.03" r="0.07" />
<circle cx="5.87" cy="8.32" r="0.07" />
<circle cx="5.97" cy="5.29" r="0.07" />
<circle cx="6.07" cy="4.63" r="0.07" />
<circle cx="6.17" cy="5.29" r="0.07" />
<circle cx="6.27" cy="8.32" r="0.07" />
<circle cx="6.37" cy="8.03" r="0.07" />
<circle cx="6.47" cy="7.34" r="0.07" />
<circle cx="6.57" cy="8.03" r="0.07" />
<circle cx="6.67" cy="9.01" r="0.07" />
<circle cx="6.77" cy="7.94" r="0.07" />
<circle cx="6.87" cy="7.94" r="0.07" />
<circle cx="6.97" cy="9.01" r="0.07" />
<circle cx="7.07" cy="9.01" r="0.07" />
<circle cx="7.17" cy="5.22" r="0.07" />
<circle cx="7.27" cy="5.22" r="0.07" />
<circle cx="7.37" cy="9.01" r="0.07" />
<circle cx="7.47" cy="9.01" r="0.07" />
<circle cx="7.57" cy="7.94" r="0.07" />
<circle cx="7.67" cy="7.94" r="0.07" />
<circle cx="7.76" cy="9.01" r="0.07" />
<circle cx="7.86" cy="9.42" r="0.07" />
<circle cx="7.96" cy="9.70" r="0.07" />
<circle cx="8.06" cy="8.11" r="0.07" />
<circle cx="8.16" cy="9.70" r="0.07" />
<circle cx="8.26" cy="9.42" r="0.07" />
<circle cx="8.36" cy="9.70" r="0.07" />
<circle cx="8.46" cy="5.40" r="0.07" />
<circle cx="8.56" cy="9.70" r="0.07" />
<circle cx="8.66" cy="9.42" r="0.07" />
<circle cx="8.76" cy="9.70" r="0.07" />
<circle cx="8.86" cy="8.11" r="0.07" />
<circle cx="8.96" cy="9.70" r="0.07" />
<circle cx="9.06" cy="9.42" r="0.07" />
<circle cx="9.16" cy="10.40" r="0.07" />
<circle cx="9.26" cy="10.40" r="0.07" />
<circle cx="9.36" cy="10.40" r="0.07" />
<circle cx="9.46" cy="10.40" r="0.07" />
<circle cx="9.56" cy="10.40" r="0.07" />
<circle cx="9.66" cy="10.40" r="0.07" />
<circle cx="9.76" cy="10.40" r="0.07" />
<circle cx="9.86" cy="10.40" r="0.07" />
<circle cx="9.95" cy="10.40" r="0.07" />
<circle cx="10.05" cy="10.40" r="0.07" />
<circle cx="10.15" cy="10.40" r="0.07" />
<circle cx="10.25" cy="10.40" r="0.07" />
<circle cx="10.35" cy="10.40" r="0.07" />
<circle cx="10.45" cy="10.40" r="0.07" />
<circle cx="10.55" cy="10.80" r="0.07" />
<circle cx="10.65" cy="10.11" r="0.07" />
<circle cx="10.75" cy="10.80" r="0.07" />
<circle cx="10.85" cy="8.72" r="0.07" />
<circle cx="10.95" cy="10.80" r="0.07" />
<circle cx="11.05" cy="10.11" r="0.07" />
<circle cx="11.15" cy="10.80" r="0.07" />
<circle cx="11.25" cy="5.95" r="0.07" />
<circle cx="11.35" cy="10.80" r="0.07" />
<circle cx="11.45" cy="10.11" r="0.07" />
<circle cx="11.55" cy="10.80" r="0.07" />
<circle cx="11.65" cy="8.72" r="0.07" />
<circle cx="11.75" cy="10.80" r="0.07" />
<circle cx="11.85" cy="10.11" r="0.07" />
<circle cx="11.95" cy="10.80" r="0.07" />
<circle cx="12.05" cy="11.78" r="0.07" />
<circle cx="12.14" cy="10.72" r="0.07" />
<circle cx="12.24" cy="10.72" r="0.07" />
<circle cx="12.34" cy="9.33" r="0.07" />
<circle cx="12.44" cy="9.33" r="0.07" />
<circle cx="12.54" cy="10.72" r="0.07" />
<circle cx="12.64" cy="10.72" r="0.07" />
<circle cx="12.74" cy="6.56" r="0.07" />
<circle cx="12.84" cy="6.56" r="0.07" />
<circle cx="12.94" cy="10.72" r="0.07" />
<circle cx="13.04" cy="10.72" r="0.07" />
<circle cx="13.14" cy="9.33" r="0.07" />
<circle cx="13.24" cy="9.33" r="0.07" />
<circle cx="13.34" cy="10.72" r="0.07" />
<circle cx="13.44" cy="10.72" r="0.07" />
<circle cx="13.54" cy="11.78" r="0.07" />
<circle cx="13.64" cy="12.19" r="0.07" />
<circle cx="13.74" cy="12.48" r="0.07" />
<circle cx="13.84" cy="10.88" r="0.07" />
<circle cx="13.94" cy="9.86" r="0.07" />
<circle cx="14.04" cy="9.50" r="0.07" />
<circle cx="14.14" cy="9.86" r="0.07" />
<circle cx="14.24" cy="10.88" r="0.07" />
<circle cx="14.34" cy="7.09" r="0.07" />
<circle cx="14.43" cy="6.72" r="0.07" />
<circle cx="14.53" cy="7.09" r="0.07" />
<circle cx="14.63" cy="10.88" r="0.07" />
<circle cx="14.73" cy="9.86" r="0.07" />
<circle cx="14.83" cy="9.50" r="0.07" />
<circle cx="14.93" cy="9.86" r="0.07" />
<circle cx="15.03" cy="10.88" r="0.07" />
<circle cx="15.13" cy="12.48" r="0.07" />
<circle cx="15.23" cy="12.19" r="0.07" />
<circle cx="15.33" cy="13.17" r="0.07" />
<circle cx="15.43" cy="13.17" r="0.07" />
<circle cx="15.53" cy="13.17" r="0.07" />
<circle cx="15.63" cy="10.49" r="0.07" />
<circle cx="15.73" cy="10.49" r="0.07" />
<circle cx="15.83" cy="10.49" r="0.07" />
<circle cx="15.93" cy="10.49" r="0.07" />
<circle cx="16.03" cy="7.72" r="0.07" />
<circle cx="16.13" cy="7.72" r="0.07" />
<circle cx="16.23" cy="7.72" r="0.07" />
<circle cx="16.33" cy="7.72" r="0.07" />
<circle cx="16.43" cy="10.49" r="0.07" />
<circle cx="16.53" cy="10.49" r="0.07" />
<circle cx="16.62" cy="10.49" r="0.07" />
<circle cx="16.72" cy="10.49" r="0.07" />
<circle cx="16.82" cy="13.17" r="0.07" />
<circle cx="16.92" cy="13.17" r="0.07" />
<circle cx="17.02" cy="13.17" r="0.07" />
<circle cx="17.12" cy="13.58" r="0.07" />
<circle cx="17.22" cy="12.88" r="0.07" />
<circle cx="17.32" cy="13.58" r="0.07" />
<circle cx="17.42" cy="13.86" r="0.07" />
<circle cx="17.52" cy="10.83" r="0.07" />
<circle cx="17.62" cy="10.18" r="0.07" />
<circle cx="17.72" cy="10.83" r="0.07" />
<circle cx="17.82" cy="8.35" r="0.07" />
<circle cx="17.92" cy="8.06" r="0.07" />
<circle cx="18.02" cy="7.41" r="0.07" />
<circle cx="18.12" cy="8.06" r="0.07" />
<circle cx="18.22" cy="8.35" r="0.07" />
<circle cx="18.32" cy="10.83" r="0.07" />
<circle cx="18.42" cy="10.18" r="0.07" />
<circle cx="18.52" cy="10.83" r="0.07" />
<circle cx="18.62" cy="13.86" r="0.07" />
<circle cx="18.72" cy="13.58" r="0.07" />
<circle cx="18.81" cy="12.88" r="0.07" />
<circle cx="18.91" cy="13.58" r="0.07" />
<circle cx="19.01" cy="14.56" r="0.07" />
<circle cx="19.11" cy="13.49" r="0.07" />
<circle cx="19.21" cy="13.49" r="0.07" />
<circle cx="19.31" cy="14.56" r="0.07" />
<circle cx="19.41" cy="14.56" r="0.07" />
<circle cx="19.51" cy="10.77" r="0.07" />
<circle cx="19.61" cy="10.77" r="0.07" />
<circle cx="19.71" cy="9.03" r="0.07" />
<circle cx="19.81" cy="9.03" r="0.07" />
<circle cx="19.91" cy="7.99" r="0.07" />
<circle cx="20.01" cy="7.99" r="0.07" />
<circle cx="20.11" cy="9.03" r="0.07" />
<circle cx="20.21" cy="9.03" r="0.07" />
<circle cx="20.31" cy="10.77" r="0.07" />
<circle cx="20.41" cy="10.77" r="0.07" />
<circle cx="20.51" cy="14.56" r="0.07" />
<circle cx="20.61" cy="14.56" r="0.07" />
<circle cx="20.71" cy="13.49" r="0.07" />
<circle cx="20.81" cy="13.49" r="0.07" />
<circle cx="20.91" cy="14.56" r="0.07" />
<circle cx="21.00" cy="14.96" r="0.07" />
<circle cx="21.10" cy="15.25" r="0.07" />
<circle cx="21.20" cy="13.66" r="0.07" />
<circle cx="21.30" cy="15.25" r="0.07" />
<circle cx="21.40" cy="14.96" r="0.07" />
<circle cx="21.50" cy="15.25" r="0.07" />
<circle cx="21.60" cy="10.95" r="0.07" />
<circle cx="21.70" cy="9.72" r="0.07" />
<circle cx="21.80" cy="9.42" r="0.07" />
<circle cx="21.90" cy="9.72" r="0.07" />
<circle cx="22.00" cy="8.18" r="0.07" />
<circle cx="22.10" cy="9.72" r="0.07" />
<circle cx="22.20" cy="9.42" r="0.07" />
<circle cx="22.30" cy="9.72" r="0.07" />
<circle cx="22.40" cy="10.95" r="0.07" />
<circle cx="22.50" cy="15.25" r="0.07" />
<circle cx="22.60" cy="14.96" r="0.07" />
<circle cx="22.70" cy="15.25" r="0.07" />
<circle cx="22.80" cy="13.66" r="0.07" />
<circle cx="22.90" cy="15.25" r="0.07" />
<circle cx="23.00" cy="14.96" r="0.07" />
</g>
</svg>