<svg xmlns="http://www.w3.org/2000/svg" width="161.8" height="100.0" viewBox="-4.05 -5.00 171.80 110.00">
<g fill="none" stroke="black" stroke-width="0.0800%" transform="translate(0, 100.0000) scale(6.2500, -6.2500)">
<circle cx="0.15" cy="1.00" r="0.08" />
<circle cx="0.30" cy="1.00" r="0.08" />
<circle cx="0.46" cy="0.00" r="0.08" />
<circle cx="0.61" cy="1.00" r="0.08" />
<circle cx="0.76" cy="1.00" r="0.08" />
<circle cx="0.91" cy="0.00" r="0.08" />
<circle cx="1.07" cy="1.00" r="0.08" />
<circle cx="1.22" cy="2.00" r="0.08" />
<circle cx="1.37" cy="1.00" r="0.08" />
<circle cx="1.52" cy="0.00" r="0.08" />
<circle cx="1.68" cy="1.00" r="0.08" />
<circle cx="1.83" cy="3.00" r="0.08" />
<circle cx="1.98" cy="3.00" r="0.08" />
<circle cx="2.13" cy="1.00" r="0.08" />
<circle cx="2.28" cy="0.00" r="0.08" />
<circle cx="2.44" cy="1.00" r="0.08" />
<circle cx="2.59" cy="4.00" r="0.08" />
<circle cx="2.74" cy="2.00" r="0.08" />
<circle cx="2.89" cy="1.00" r="0.08" />
<circle cx="3.05" cy="1.00" r="0.08" />
<circle cx="3.20" cy="0.00" r="0.08" />
<circle cx="3.35" cy="1.00" r="0.08" />
<circle cx="3.50" cy="5.00" r="0.08" />
<circle cx="3.65" cy="6.00" r="0.08" />
<circle cx="3.81" cy="1.00" r="0.08" />
<circle cx="3.96" cy="2.00" r="0.08" />
<circle cx="4.11" cy="1.00" r="0.08" />
<circle cx="4.26" cy="0.00" r="0.08" />
<circle cx="4.42" cy="1.00" r="0.08" />
<circle cx="4.57" cy="6.00" r="0.08" />
<circle cx="4.72" cy="7.00" r="0.08" />
<circle cx="4.87" cy="14.00" r="0.08" />
<circle cx="5.03" cy="3.00" r="0.08" />
<circle cx="5.18" cy="3.00" r="0.08" />
<circle cx="5.33" cy="1.00" r="0.08" />
<circle cx="5.48" cy="0.00" r="0.08" />
<circle cx="5.63" cy="1.00" r="0.08" />
<circle cx="5.79" cy="7.00" r="0.08" />
<circle cx="5.94" cy="5.00" r="0.08" />
<circle cx="6.09" cy="13.00" r="0.08" />
<circle cx="6.24" cy="5.00" r="0.08" />
<circle cx="6.40" cy="2.00" r="0.08" />
<circle cx="6.55" cy="1.00" r="0.08" />
<circle cx="6.70" cy="1.00" r="0.08" />
<circle cx="6.85" cy="0.00" r="0.08" />
<circle cx="7.01" cy="1.00" r="0.08" />
<circle cx="7.16" cy="8.00" r="0.08" />
<circle cx="7.31" cy="4.00" r="0.08" />
<circle cx="7.46" cy="8.00" r="0.08" />
<circle cx="7.61" cy="4.00" r="0.08" />
<circle cx="7.77" cy="2.00" r="0.08" />
<circle cx="7.92" cy="1.00" r="0.08" />
<circle cx="8.07" cy="2.00" r="0.08" />
<circle cx="8.22" cy="1.00" r="0.08" />
<circle cx="8.38" cy="0.00" r="0.08" />
<circle cx="8.53" cy="1.00" r="0.08" />
<circle cx="8.68" cy="9.00" r="0.08" />
<circle cx="8.83" cy="13.00" r="0.08" />
<circle cx="8.98" cy="10.00" r="0.08" />
<circle cx="9.14" cy="7.00" r="0.08" />
<circle cx="9.29" cy="2.00" r="0.08" />
<circle cx="9.44" cy="8.00" r="0.08" />
<circle cx="9.59" cy="3.00" r="0.08" />
<circle cx="9.75" cy="3.00" r="0.08" />
<circle cx="9.90" cy="1.00" r="0.08" />
<circle cx="10.05" cy="0.00" r="0.08" />
<circle cx="10.20" cy="1.00" r="0.08" />
<circle cx="10.36" cy="10.00" r="0.08" />
<circle cx="10.51" cy="12.00" r="0.08" />
<circle cx="10.66" cy="14.00" r="0.08" />
<circle cx="10.81" cy="6.00" r="0.08" />
<circle cx="10.96" cy="3.00" r="0.08" />
<circle cx="11.12" cy="10.00" r="0.08" />
<circle cx="11.27" cy="11.00" r="0.08" />
<circle cx="11.42" cy="2.00" r="0.08" />
<circle cx="11.57" cy="1.00" r="0.08" />
<circle cx="11.73" cy="1.00" r="0.08" />
<circle cx="11.88" cy="0.00" r="0.08" />
<circle cx="12.03" cy="1.00" r="0.08" />
<circle cx="12.18" cy="11.00" r="0.08" />
<circle cx="12.34" cy="14.00" r="0.08" />
<circle cx="12.49" cy="10.00" r="0.08" />
<circle cx="12.64" cy="10.00" r="0.08" />
<circle cx="12.79" cy="3.00" r="0.08" />
<circle cx="12.94" cy="13.00" r="0.08" />
<circle cx="13.10" cy="9.00" r="0.08" />
<circle cx="13.25" cy="7.00" r="0.08" />
<circle cx="13.40" cy="1.00" r="0.08" />
<circle cx="13.55" cy="2.00" r="0.08" />
<circle cx="13.71" cy="1.00" r="0.08" />
<circle cx="13.86" cy="0.00" r="0.08" />
<circle cx="14.01" cy="1.00" r="0.08" />
<circle cx="14.16" cy="12.00" r="0.08" />
<circle cx="14.31" cy="15.00" r="0.08" />
<circle cx="14.47" cy="13.00" r="0.08" />
<circle cx="14.62" cy="11.00" r="0.08" />
<circle cx="14.77" cy="1.00" r="0.08" />
<circle cx="14.92" cy="14.00" r="0.08" />
<circle cx="15.08" cy="15.00" r="0.08" />
<circle cx="15.23" cy="6.00" r="0.08" />
<circle cx="15.38" cy="10.00" r="0.08" />
<circle cx="15.53" cy="3.00" r="0.08" />
<circle cx="15.69" cy="3.00" r="0.08" />
<circle cx="15.84" cy="1.00" r="0.08" />
<circle cx="15.99" cy="0.00" r="0.08" />
<circle cx="16.14" cy="1.00" r="0.08" />
<circle cx="16.29" cy="13.00" r="0.08" />
<circle cx="16.45" cy="11.00" r="0.08" />
<circle cx="16.60" cy="8.00" r="0.08" />
<circle cx="16.75" cy="8.00" r="0.08" />
<circle cx="16.90" cy="2.00" r="0.08" />
<circle cx="17.06" cy="8.00" r="0.08" />
<circle cx="17.21" cy="12.00" r="0.08" />
<circle cx="17.36" cy="4.00" r="0.08" />
<circle cx="17.51" cy="8.00" r="0.08" />
<circle cx="17.67" cy="3.00" r="0.08" />
<circle cx="17.82" cy="2.00" r="0.08" />
<circle cx="17.97" cy="1.00" r="0.08" />
<circle cx="18.12" cy="1.00" r="0.08" />
<circle cx="18.27" cy="0.00" r="0.08" />
<circle cx="18.43" cy="1.00" r="0.08" />
<circle cx="18.58" cy="14.00" r="0.08" />
<circle cx="18.73" cy="10.00" r="0.08" />
<circle cx="18.88" cy="14.00" r="0.08" />
<circle cx="19.04" cy="9.00" r="0.08" />
<circle cx="19.19" cy="1.00" r="0.08" />
<circle cx="19.34" cy="14.00" r="0.08" />
<circle cx="19.49" cy="13.00" r="0.08" />
<circle cx="19.64" cy="5.00" r="0.08" />
<circle cx="19.80" cy="14.00" r="0.08" />
<circle cx="19.95" cy="3.00" r="0.08" />
<circle cx="20.10" cy="12.00" r="0.08" />
<circle cx="20.25" cy="1.00" r="0.08" />
<circle cx="20.41" cy="2.00" r="0.08" />
<circle cx="20.56" cy="1.00" r="0.08" />
<circle cx="20.71" cy="0.00" r="0.08" />
<circle cx="20.86" cy="1.00" r="0.08" />
<circle cx="21.02" cy="15.00" r="0.08" />
<circle cx="21.17" cy="8.00" r="0.08" />
<circle cx="21.32" cy="8.00" r="0.08" />
<circle cx="21.47" cy="15.00" r="0.08" />
<circle cx="21.62" cy="2.00" r="0.08" />
<circle cx="21.78" cy="10.00" r="0.08" />
<circle cx="21.93" cy="4.00" r="0.08" />
<circle cx="22.08" cy="14.00" r="0.08" />
<circle cx="22.23" cy="13.00" r="0.08" />
<circle cx="22.39" cy="2.00" r="0.08" />
<circle cx="22.54" cy="15.00" r="0.08" />
<circle cx="22.69" cy="13.00" r="0.08" />
<circle cx="22.84" cy="3.00" r="0.08" />
<circle cx="23.00" cy="3.00" r="0.08" />
<circle cx="23.15" cy="1.00" r="0.08" />
<circle cx="23.30" cy="0.00" r="0.08" />
<circle cx="23.45" cy="1.00" r="0.08" />
<circle cx="23.60" cy="16.00" r="0.08" />
<circle cx="23.76" cy="9.00" r="0.08" />
<circle cx="23.91" cy="10.00" r="0.08" />
<circle cx="24.06" cy="14.00" r="0.08" />
<circle cx="24.21" cy="3.00" r="0.08" />
<circle cx="24.37" cy="13.00" r="0.08" />
<circle cx="24.52" cy="14.00" r="0.08" />
<circle cx="24.67" cy="15.00" r="0.08" />
<circle cx="24.82" cy="10.00" r="0.08" />
<circle cx="24.97" cy="2.00" r="0.08" />
<circle cx="25.13" cy="11.00" r="0.08" />
<circle cx="25.28" cy="14.00" r="0.08" />
<circle cx="25.43" cy="9.00" r="0.08" />
<circle cx="25.58" cy="2.00" r="0.08" />
<circle cx="25.74" cy="1.00" r="0.08" />
<circle cx="25.89" cy="1.00" r="0.08" />
<circle cx="26.04" cy="0.00" r="0.08" />
</g>
</svg>