<svg xmlns="http://www.w3.org/2000/svg" width="97.0" height="100.0" viewBox="0.4 1.3 107.0 110.0">
<g fill="none" stroke="black" stroke-width="0.4000%" transform="translate(0, 112.5000) scale(1.2500, -1.2500)">
<circle cx="20.2" cy="18.0" r="0.4" />
<circle cx="56.0" cy="38.0" r="0.4" />
<circle cx="12.5" cy="15.0" r="0.4" />
<circle cx="21.2" cy="20.0" r="0.4" />
<circle cx="15.5" cy="18.0" r="0.4" />
<circle cx="39.0" cy="36.0" r="0.4" />
<circle cx="21.0" cy="20.0" r="0.4" />
<circle cx="38.2" cy="43.0" r="0.4" />
<circle cx="55.6" cy="45.0" r="0.4" />
<circle cx="81.9" cy="65.0" r="0.4" />
<circle cx="39.5" cy="43.0" r="0.4" />
<circle cx="56.4" cy="38.0" r="0.4" />
<circle cx="40.5" cy="33.0" r="0.4" />
<circle cx="14.3" cy="10.0" r="0.4" />
<circle cx="81.5" cy="50.0" r="0.4" />
<circle cx="13.7" cy="10.0" r="0.4" />
<circle cx="81.5" cy="50.0" r="0.4" />
<circle cx="20.5" cy="15.0" r="0.4" />
<circle cx="56.0" cy="53.0" r="0.4" />
<circle cx="80.7" cy="60.0" r="0.4" />
<circle cx="20.0" cy="18.0" r="0.4" />
<circle cx="56.5" cy="38.0" r="0.4" />
<circle cx="12.1" cy="15.0" r="0.4" />
<circle cx="19.6" cy="20.0" r="0.4" />
<circle cx="15.5" cy="18.0" r="0.4" />
<circle cx="38.8" cy="36.0" r="0.4" />
<circle cx="19.5" cy="20.0" r="0.4" />
<circle cx="38.0" cy="43.0" r="0.4" />
<circle cx="55.0" cy="45.0" r="0.4" />
<circle cx="80.0" cy="65.0" r="0.4" />
<circle cx="38.5" cy="43.0" r="0.4" />
<circle cx="55.8" cy="38.0" r="0.4" />
<circle cx="38.8" cy="33.0" r="0.4" />
<circle cx="12.5" cy="10.0" r="0.4" />
<circle cx="80.4" cy="50.0" r="0.4" />
<circle cx="12.7" cy="10.0" r="0.4" />
<circle cx="80.9" cy="50.0" r="0.4" />
<circle cx="20.5" cy="15.0" r="0.4" />
<circle cx="55.0" cy="53.0" r="0.4" />
<circle cx="19.0" cy="15.0" r="0.4" />
<circle cx="55.5" cy="37.0" r="0.4" />
<circle cx="12.3" cy="15.0" r="0.4" />
<circle cx="18.4" cy="18.0" r="0.4" />
<circle cx="11.5" cy="11.0" r="0.4" />
<circle cx="38.0" cy="35.0" r="0.4" />
<circle cx="18.5" cy="20.0" r="0.4" />
<circle cx="38.0" cy="40.0" r="0.4" />
<circle cx="55.3" cy="50.0" r="0.4" />
<circle cx="38.7" cy="36.0" r="0.4" />
<circle cx="54.5" cy="50.0" r="0.4" />
<circle cx="38.0" cy="38.0" r="0.4" />
<circle cx="12.0" cy="10.0" r="0.4" />
<circle cx="81.7" cy="75.0" r="0.4" />
<circle cx="11.5" cy="10.0" r="0.4" />
<circle cx="80.0" cy="85.0" r="0.4" />
<circle cx="18.3" cy="13.0" r="0.4" />
<circle cx="55.3" cy="50.0" r="0.4" />
<circle cx="80.2" cy="58.0" r="0.4" />
<circle cx="80.7" cy="58.0" r="0.4" />
<circle cx="55.8" cy="48.0" r="0.4" />
<circle cx="15.0" cy="12.0" r="0.4" />
<circle cx="81.0" cy="63.0" r="0.4" />
<circle cx="12.0" cy="10.0" r="0.4" />
<circle cx="81.4" cy="63.0" r="0.4" />
<circle cx="12.5" cy="13.0" r="0.4" />
<circle cx="38.2" cy="28.0" r="0.4" />
<circle cx="54.2" cy="35.0" r="0.4" />
<circle cx="79.3" cy="63.0" r="0.4" />
<circle cx="18.2" cy="13.0" r="0.4" />
<circle cx="55.5" cy="45.0" r="0.4" />
<circle cx="11.4" cy="9.0" r="0.4" />
<circle cx="19.5" cy="20.0" r="0.4" />
<circle cx="15.5" cy="18.0" r="0.4" />
<circle cx="37.5" cy="35.0" r="0.4" />
<circle cx="19.5" cy="20.0" r="0.4" />
<circle cx="37.5" cy="38.0" r="0.4" />
<circle cx="55.5" cy="50.0" r="0.4" />
<circle cx="80.0" cy="70.0" r="0.4" />
<circle cx="37.5" cy="40.0" r="0.4" />
<circle cx="15.5" cy="21.0" r="0.4" />
<circle cx="23.7" cy="19.0" r="0.4" />
<circle cx="9.8" cy="10.0" r="0.4" />
<circle cx="40.8" cy="33.0" r="0.4" />
<circle cx="17.5" cy="16.0" r="0.4" />
<circle cx="4.3" cy="5.0" r="0.4" />
<circle cx="36.5" cy="32.0" r="0.4" />
<circle cx="26.3" cy="23.0" r="0.4" />
<circle cx="30.4" cy="30.0" r="0.4" />
<circle cx="50.2" cy="45.0" r="0.4" />
<circle cx="30.1" cy="33.0" r="0.4" />
<circle cx="25.5" cy="25.0" r="0.4" />
<circle cx="13.8" cy="12.0" r="0.4" />
<circle cx="58.9" cy="53.0" r="0.4" />
<circle cx="40.0" cy="36.0" r="0.4" />
<circle cx="6.0" cy="5.0" r="0.4" />
<circle cx="72.5" cy="63.0" r="0.4" />
<circle cx="38.8" cy="43.0" r="0.4" />
<circle cx="19.4" cy="25.0" r="0.4" />
<circle cx="81.5" cy="73.0" r="0.4" />
<circle cx="77.4" cy="45.0" r="0.4" />
<circle cx="54.6" cy="52.0" r="0.4" />
<circle cx="6.8" cy="9.0" r="0.4" />
<circle cx="32.6" cy="30.0" r="0.4" />
<circle cx="19.8" cy="22.0" r="0.4" />
<circle cx="58.8" cy="56.0" r="0.4" />
<circle cx="12.9" cy="15.0" r="0.4" />
<circle cx="49.0" cy="45.0" r="0.4" />
</g>
</svg>