<svg xmlns="http://www.w3.org/2000/svg" width="161.8" height="100.0" viewBox="-4.51 -51.67 171.80 110.00">
<g fill="none" stroke="black" stroke-width="0.0750%" transform="translate(0, 6.6667) scale(6.6667, -6.6667)">
<circle cx="0.07" cy="0.00" r="0.07" />
<circle cx="0.07" cy="0.00" r="0.07" />
<circle cx="0.15" cy="1.00" r="0.07" />
<circle cx="0.22" cy="-1.00" r="0.07" />
<circle cx="0.29" cy="2.00" r="0.07" />
<circle cx="0.37" cy="1.00" r="0.07" />
<circle cx="0.44" cy="0.00" r="0.07" />
<circle cx="0.51" cy="-2.00" r="0.07" />
<circle cx="0.58" cy="3.00" r="0.07" />
<circle cx="0.66" cy="-1.00" r="0.07" />
<circle cx="0.73" cy="2.00" r="0.07" />
<circle cx="0.80" cy="0.00" r="0.07" />
<circle cx="0.88" cy="1.00" r="0.07" />
<circle cx="0.95" cy="2.00" r="0.07" />
<circle cx="1.02" cy="-1.00" r="0.07" />
<circle cx="1.10" cy="-3.00" r="0.07" />
<circle cx="1.17" cy="4.00" r="0.07" />
<circle cx="1.24" cy="1.00" r="0.07" />
<circle cx="1.32" cy="0.00" r="0.07" />
<circle cx="1.39" cy="-2.00" r="0.07" />
<circle cx="1.46" cy="3.00" r="0.07" />
<circle cx="1.54" cy="0.00" r="0.07" />
<circle cx="1.61" cy="1.00" r="0.07" />
<circle cx="1.68" cy="-1.00" r="0.07" />
<circle cx="1.75" cy="2.00" r="0.07" />
<circle cx="1.83" cy="-2.00" r="0.07" />
<circle cx="1.90" cy="3.00" r="0.07" />
<circle cx="1.97" cy="1.00" r="0.07" />
<circle cx="2.05" cy="0.00" r="0.07" />
<circle cx="2.12" cy="3.00" r="0.07" />
<circle cx="2.19" cy="-2.00" r="0.07" />
<circle cx="2.27" cy="-4.00" r="0.07" />
<circle cx="2.34" cy="5.00" r="0.07" />
<circle cx="2.41" cy="-1.00" r="0.07" />
<circle cx="2.49" cy="2.00" r="0.07" />
<circle cx="2.56" cy="0.00" r="0.07" />
<circle cx="2.63" cy="1.00" r="0.07" />
<circle cx="2.70" cy="2.00" r="0.07" />
<circle cx="2.78" cy="-1.00" r="0.07" />
<circle cx="2.85" cy="-3.00" r="0.07" />
<circle cx="2.92" cy="4.00" r="0.07" />
<circle cx="3.00" cy="0.00" r="0.07" />
<circle cx="3.07" cy="1.00" r="0.07" />
<circle cx="3.14" cy="-1.00" r="0.07" />
<circle cx="3.22" cy="2.00" r="0.07" />
<circle cx="3.29" cy="1.00" r="0.07" />
<circle cx="3.36" cy="0.00" r="0.07" />
<circle cx="3.44" cy="-2.00" r="0.07" />
<circle cx="3.51" cy="3.00" r="0.07" />
<circle cx="3.58" cy="2.00" r="0.07" />
<circle cx="3.66" cy="-1.00" r="0.07" />
<circle cx="3.73" cy="-3.00" r="0.07" />
<circle cx="3.80" cy="4.00" r="0.07" />
<circle cx="3.87" cy="-1.00" r="0.07" />
<circle cx="3.95" cy="2.00" r="0.07" />
<circle cx="4.02" cy="0.00" r="0.07" />
<circle cx="4.09" cy="1.00" r="0.07" />
<circle cx="4.17" cy="-3.00" r="0.07" />
<circle cx="4.24" cy="4.00" r="0.07" />
<circle cx="4.31" cy="2.00" r="0.07" />
<circle cx="4.39" cy="-1.00" r="0.07" />
<circle cx="4.46" cy="4.00" r="0.07" />
<circle cx="4.53" cy="-3.00" r="0.07" />
<circle cx="4.61" cy="-5.00" r="0.07" />
<circle cx="4.68" cy="6.00" r="0.07" />
<circle cx="4.75" cy="1.00" r="0.07" />
<circle cx="4.82" cy="0.00" r="0.07" />
<circle cx="4.90" cy="-2.00" r="0.07" />
<circle cx="4.97" cy="3.00" r="0.07" />
<circle cx="5.04" cy="0.00" r="0.07" />
<circle cx="5.12" cy="1.00" r="0.07" />
<circle cx="5.19" cy="-1.00" r="0.07" />
<circle cx="5.26" cy="2.00" r="0.07" />
<circle cx="5.34" cy="-2.00" r="0.07" />
<circle cx="5.41" cy="3.00" r="0.07" />
<circle cx="5.48" cy="1.00" r="0.07" />
<circle cx="5.56" cy="0.00" r="0.07" />
<circle cx="5.63" cy="3.00" r="0.07" />
<circle cx="5.70" cy="-2.00" r="0.07" />
<circle cx="5.78" cy="-4.00" r="0.07" />
<circle cx="5.85" cy="5.00" r="0.07" />
<circle cx="5.92" cy="0.00" r="0.07" />
<circle cx="5.99" cy="1.00" r="0.07" />
<circle cx="6.07" cy="-1.00" r="0.07" />
<circle cx="6.14" cy="2.00" r="0.07" />
<circle cx="6.21" cy="1.00" r="0.07" />
<circle cx="6.29" cy="0.00" r="0.07" />
<circle cx="6.36" cy="-2.00" r="0.07" />
<circle cx="6.43" cy="3.00" r="0.07" />
<circle cx="6.51" cy="-1.00" r="0.07" />
<circle cx="6.58" cy="2.00" r="0.07" />
<circle cx="6.65" cy="0.00" r="0.07" />
<circle cx="6.73" cy="1.00" r="0.07" />
<circle cx="6.80" cy="2.00" r="0.07" />
<circle cx="6.87" cy="-1.00" r="0.07" />
<circle cx="6.94" cy="-3.00" r="0.07" />
<circle cx="7.02" cy="4.00" r="0.07" />
<circle cx="7.09" cy="-2.00" r="0.07" />
<circle cx="7.16" cy="3.00" r="0.07" />
<circle cx="7.24" cy="1.00" r="0.07" />
<circle cx="7.31" cy="0.00" r="0.07" />
<circle cx="7.38" cy="3.00" r="0.07" />
<circle cx="7.46" cy="-2.00" r="0.07" />
<circle cx="7.53" cy="-4.00" r="0.07" />
<circle cx="7.60" cy="5.00" r="0.07" />
<circle cx="7.68" cy="1.00" r="0.07" />
<circle cx="7.75" cy="0.00" r="0.07" />
<circle cx="7.82" cy="-2.00" r="0.07" />
<circle cx="7.90" cy="3.00" r="0.07" />
<circle cx="7.97" cy="0.00" r="0.07" />
<circle cx="8.04" cy="1.00" r="0.07" />
<circle cx="8.11" cy="-1.00" r="0.07" />
<circle cx="8.19" cy="2.00" r="0.07" />
<circle cx="8.26" cy="3.00" r="0.07" />
<circle cx="8.33" cy="-2.00" r="0.07" />
<circle cx="8.41" cy="-4.00" r="0.07" />
<circle cx="8.48" cy="5.00" r="0.07" />
<circle cx="8.55" cy="-2.00" r="0.07" />
<circle cx="8.63" cy="3.00" r="0.07" />
<circle cx="8.70" cy="1.00" r="0.07" />
<circle cx="8.77" cy="0.00" r="0.07" />
<circle cx="8.85" cy="-4.00" r="0.07" />
<circle cx="8.92" cy="5.00" r="0.07" />
<circle cx="8.99" cy="3.00" r="0.07" />
<circle cx="9.06" cy="-2.00" r="0.07" />
<circle cx="9.14" cy="5.00" r="0.07" />
<circle cx="9.21" cy="-4.00" r="0.07" />
<circle cx="9.28" cy="-6.00" r="0.07" />
<circle cx="9.36" cy="7.00" r="0.07" />
<circle cx="9.43" cy="-1.00" r="0.07" />
<circle cx="9.50" cy="2.00" r="0.07" />
<circle cx="9.58" cy="0.00" r="0.07" />
<circle cx="9.65" cy="1.00" r="0.07" />
<circle cx="9.72" cy="2.00" r="0.07" />
<circle cx="9.80" cy="-1.00" r="0.07" />
<circle cx="9.87" cy="-3.00" r="0.07" />
<circle cx="9.94" cy="4.00" r="0.07" />
<circle cx="10.02" cy="0.00" r="0.07" />
<circle cx="10.09" cy="1.00" r="0.07" />
<circle cx="10.16" cy="-1.00" r="0.07" />
<circle cx="10.23" cy="2.00" r="0.07" />
<circle cx="10.31" cy="1.00" r="0.07" />
<circle cx="10.38" cy="0.00" r="0.07" />
<circle cx="10.45" cy="-2.00" r="0.07" />
<circle cx="10.53" cy="3.00" r="0.07" />
<circle cx="10.60" cy="2.00" r="0.07" />
<circle cx="10.67" cy="-1.00" r="0.07" />
<circle cx="10.75" cy="-3.00" r="0.07" />
<circle cx="10.82" cy="4.00" r="0.07" />
<circle cx="10.89" cy="-1.00" r="0.07" />
<circle cx="10.97" cy="2.00" r="0.07" />
<circle cx="11.04" cy="0.00" r="0.07" />
<circle cx="11.11" cy="1.00" r="0.07" />
<circle cx="11.18" cy="-3.00" r="0.07" />
<circle cx="11.26" cy="4.00" r="0.07" />
<circle cx="11.33" cy="2.00" r="0.07" />
<circle cx="11.40" cy="-1.00" r="0.07" />
<circle cx="11.48" cy="4.00" r="0.07" />
<circle cx="11.55" cy="-3.00" r="0.07" />
<circle cx="11.62" cy="-5.00" r="0.07" />
<circle cx="11.70" cy="6.00" r="0.07" />
<circle cx="11.77" cy="0.00" r="0.07" />
<circle cx="11.84" cy="1.00" r="0.07" />
<circle cx="11.92" cy="-1.00" r="0.07" />
<circle cx="11.99" cy="2.00" r="0.07" />
<circle cx="12.06" cy="1.00" r="0.07" />
<circle cx="12.14" cy="0.00" r="0.07" />
<circle cx="12.21" cy="-2.00" r="0.07" />
<circle cx="12.28" cy="3.00" r="0.07" />
<circle cx="12.35" cy="-1.00" r="0.07" />
<circle cx="12.43" cy="2.00" r="0.07" />
<circle cx="12.50" cy="0.00" r="0.07" />
<circle cx="12.57" cy="1.00" r="0.07" />
<circle cx="12.65" cy="2.00" r="0.07" />
<circle cx="12.72" cy="-1.00" r="0.07" />
<circle cx="12.79" cy="-3.00" r="0.07" />
<circle cx="12.87" cy="4.00" r="0.07" />
<circle cx="12.94" cy="1.00" r="0.07" />
<circle cx="13.01" cy="0.00" r="0.07" />
<circle cx="13.09" cy="-2.00" r="0.07" />
<circle cx="13.16" cy="3.00" r="0.07" />
<circle cx="13.23" cy="0.00" r="0.07" />
<circle cx="13.30" cy="1.00" r="0.07" />
<circle cx="13.38" cy="-1.00" r="0.07" />
<circle cx="13.45" cy="2.00" r="0.07" />
<circle cx="13.52" cy="-2.00" r="0.07" />
<circle cx="13.60" cy="3.00" r="0.07" />
<circle cx="13.67" cy="1.00" r="0.07" />
<circle cx="13.74" cy="0.00" r="0.07" />
<circle cx="13.82" cy="3.00" r="0.07" />
<circle cx="13.89" cy="-2.00" r="0.07" />
<circle cx="13.96" cy="-4.00" r="0.07" />
<circle cx="14.04" cy="5.00" r="0.07" />
<circle cx="14.11" cy="2.00" r="0.07" />
<circle cx="14.18" cy="-1.00" r="0.07" />
<circle cx="14.26" cy="-3.00" r="0.07" />
<circle cx="14.33" cy="4.00" r="0.07" />
<circle cx="14.40" cy="-1.00" r="0.07" />
<circle cx="14.47" cy="2.00" r="0.07" />
<circle cx="14.55" cy="0.00" r="0.07" />
<circle cx="14.62" cy="1.00" r="0.07" />
<circle cx="14.69" cy="-3.00" r="0.07" />
<circle cx="14.77" cy="4.00" r="0.07" />
<circle cx="14.84" cy="2.00" r="0.07" />
<circle cx="14.91" cy="-1.00" r="0.07" />
<circle cx="14.99" cy="4.00" r="0.07" />
<circle cx="15.06" cy="-3.00" r="0.07" />
<circle cx="15.13" cy="-5.00" r="0.07" />
<circle cx="15.21" cy="6.00" r="0.07" />
<circle cx="15.28" cy="-1.00" r="0.07" />
<circle cx="15.35" cy="2.00" r="0.07" />
<circle cx="15.42" cy="0.00" r="0.07" />
<circle cx="15.50" cy="1.00" r="0.07" />
<circle cx="15.57" cy="2.00" r="0.07" />
<circle cx="15.64" cy="-1.00" r="0.07" />
<circle cx="15.72" cy="-3.00" r="0.07" />
<circle cx="15.79" cy="4.00" r="0.07" />
<circle cx="15.86" cy="0.00" r="0.07" />
<circle cx="15.94" cy="1.00" r="0.07" />
<circle cx="16.01" cy="-1.00" r="0.07" />
<circle cx="16.08" cy="2.00" r="0.07" />
<circle cx="16.16" cy="1.00" r="0.07" />
<circle cx="16.23" cy="0.00" r="0.07" />
<circle cx="16.30" cy="-2.00" r="0.07" />
<circle cx="16.38" cy="3.00" r="0.07" />
<circle cx="16.45" cy="-3.00" r="0.07" />
<circle cx="16.52" cy="4.00" r="0.07" />
<circle cx="16.59" cy="2.00" r="0.07" />
<circle cx="16.67" cy="-1.00" r="0.07" />
<circle cx="16.74" cy="4.00" r="0.07" />
<circle cx="16.81" cy="-3.00" r="0.07" />
<circle cx="16.89" cy="-5.00" r="0.07" />
<circle cx="16.96" cy="6.00" r="0.07" />
<circle cx="17.03" cy="2.00" r="0.07" />
<circle cx="17.11" cy="-1.00" r="0.07" />
<circle cx="17.18" cy="-3.00" r="0.07" />
<circle cx="17.25" cy="4.00" r="0.07" />
<circle cx="17.33" cy="-1.00" r="0.07" />
<circle cx="17.40" cy="2.00" r="0.07" />
<circle cx="17.47" cy="0.00" r="0.07" />
<circle cx="17.54" cy="1.00" r="0.07" />
<circle cx="17.62" cy="4.00" r="0.07" />
<circle cx="17.69" cy="-3.00" r="0.07" />
<circle cx="17.76" cy="-5.00" r="0.07" />
<circle cx="17.84" cy="6.00" r="0.07" />
<circle cx="17.91" cy="-3.00" r="0.07" />
<circle cx="17.98" cy="4.00" r="0.07" />
<circle cx="18.06" cy="2.00" r="0.07" />
<circle cx="18.13" cy="-1.00" r="0.07" />
<circle cx="18.20" cy="-5.00" r="0.07" />
<circle cx="18.28" cy="6.00" r="0.07" />
<circle cx="18.35" cy="4.00" r="0.07" />
<circle cx="18.42" cy="-3.00" r="0.07" />
<circle cx="18.50" cy="6.00" r="0.07" />
<circle cx="18.57" cy="-5.00" r="0.07" />
<circle cx="18.64" cy="-7.00" r="0.07" />
<circle cx="18.71" cy="8.00" r="0.07" />
<circle cx="18.79" cy="1.00" r="0.07" />
<circle cx="18.86" cy="0.00" r="0.07" />
<circle cx="18.93" cy="-2.00" r="0.07" />
<circle cx="19.01" cy="3.00" r="0.07" />
<circle cx="19.08" cy="0.00" r="0.07" />
<circle cx="19.15" cy="1.00" r="0.07" />
<circle cx="19.23" cy="-1.00" r="0.07" />
<circle cx="19.30" cy="2.00" r="0.07" />
<circle cx="19.37" cy="-2.00" r="0.07" />
<circle cx="19.45" cy="3.00" r="0.07" />
<circle cx="19.52" cy="1.00" r="0.07" />
<circle cx="19.59" cy="0.00" r="0.07" />
<circle cx="19.66" cy="3.00" r="0.07" />
<circle cx="19.74" cy="-2.00" r="0.07" />
<circle cx="19.81" cy="-4.00" r="0.07" />
<circle cx="19.88" cy="5.00" r="0.07" />
<circle cx="19.96" cy="0.00" r="0.07" />
<circle cx="20.03" cy="1.00" r="0.07" />
<circle cx="20.10" cy="-1.00" r="0.07" />
<circle cx="20.18" cy="2.00" r="0.07" />
<circle cx="20.25" cy="1.00" r="0.07" />
<circle cx="20.32" cy="0.00" r="0.07" />
<circle cx="20.40" cy="-2.00" r="0.07" />
<circle cx="20.47" cy="3.00" r="0.07" />
<circle cx="20.54" cy="-1.00" r="0.07" />
<circle cx="20.62" cy="2.00" r="0.07" />
<circle cx="20.69" cy="0.00" r="0.07" />
<circle cx="20.76" cy="1.00" r="0.07" />
<circle cx="20.83" cy="2.00" r="0.07" />
<circle cx="20.91" cy="-1.00" r="0.07" />
<circle cx="20.98" cy="-3.00" r="0.07" />
<circle cx="21.05" cy="4.00" r="0.07" />
<circle cx="21.13" cy="-2.00" r="0.07" />
<circle cx="21.20" cy="3.00" r="0.07" />
<circle cx="21.27" cy="1.00" r="0.07" />
<circle cx="21.35" cy="0.00" r="0.07" />
<circle cx="21.42" cy="3.00" r="0.07" />
<circle cx="21.49" cy="-2.00" r="0.07" />
<circle cx="21.57" cy="-4.00" r="0.07" />
<circle cx="21.64" cy="5.00" r="0.07" />
<circle cx="21.71" cy="1.00" r="0.07" />
<circle cx="21.78" cy="0.00" r="0.07" />
<circle cx="21.86" cy="-2.00" r="0.07" />
<circle cx="21.93" cy="3.00" r="0.07" />
<circle cx="22.00" cy="0.00" r="0.07" />
<circle cx="22.08" cy="1.00" r="0.07" />
<circle cx="22.15" cy="-1.00" r="0.07" />
<circle cx="22.22" cy="2.00" r="0.07" />
<circle cx="22.30" cy="3.00" r="0.07" />
<circle cx="22.37" cy="-2.00" r="0.07" />
<circle cx="22.44" cy="-4.00" r="0.07" />
<circle cx="22.52" cy="5.00" r="0.07" />
<circle cx="22.59" cy="-2.00" r="0.07" />
<circle cx="22.66" cy="3.00" r="0.07" />
<circle cx="22.74" cy="1.00" r="0.07" />
<circle cx="22.81" cy="0.00" r="0.07" />
<circle cx="22.88" cy="-4.00" r="0.07" />
<circle cx="22.95" cy="5.00" r="0.07" />
<circle cx="23.03" cy="3.00" r="0.07" />
<circle cx="23.10" cy="-2.00" r="0.07" />
<circle cx="23.17" cy="5.00" r="0.07" />
<circle cx="23.25" cy="-4.00" r="0.07" />
<circle cx="23.32" cy="-6.00" r="0.07" />
<circle cx="23.39" cy="7.00" r="0.07" />
<circle cx="23.47" cy="0.00" r="0.07" />
<circle cx="23.54" cy="1.00" r="0.07" />
<circle cx="23.61" cy="-1.00" r="0.07" />
<circle cx="23.69" cy="2.00" r="0.07" />
<circle cx="23.76" cy="1.00" r="0.07" />
<circle cx="23.83" cy="0.00" r="0.07" />
<circle cx="23.90" cy="-2.00" r="0.07" />
<circle cx="23.98" cy="3.00" r="0.07" />
<circle cx="24.05" cy="-1.00" r="0.07" />
<circle cx="24.12" cy="2.00" r="0.07" />
<circle cx="24.20" cy="0.00" r="0.07" />
<circle cx="24.27" cy="1.00" r="0.07" />
<circle cx="24.34" cy="2.00" r="0.07" />
</g>
</svg>