<svg xmlns="http://www.w3.org/2000/svg" width="161.8" height="100.0" viewBox="-4.187 -5.000 171.803 110.000">
<g fill="none" stroke="black" stroke-width="0.0050%" transform="translate(0, 100.0000) scale(100.0000, -100.0000)">
<line x1="0.008" y1="0.000" x2="0.008" y2="1.000" />




<line x1="0.049" y1="0.000" x2="0.049" y2="1.000" />




<line x1="0.089" y1="0.000" x2="0.089" y2="1.000" />






<line x1="0.146" y1="0.000" x2="0.146" y2="1.000" />


<line x1="0.171" y1="0.000" x2="0.171" y2="1.000" />






<line x1="0.228" y1="0.000" x2="0.228" y2="1.000" />






<line x1="0.285" y1="0.000" x2="0.285" y2="1.000" />





<line x1="0.333" y1="0.000" x2="0.333" y2="1.000" />




<line x1="0.374" y1="0.000" x2="0.374" y2="1.000" />








<line x1="0.447" y1="0.000" x2="0.447" y2="1.000" />










<line x1="0.537" y1="0.000" x2="0.537" y2="1.000" />


<line x1="0.561" y1="0.000" x2="0.561" y2="1.000" />






<line x1="0.618" y1="0.000" x2="0.618" y2="1.000" />




<line x1="0.659" y1="0.000" x2="0.659" y2="1.000" />




<line x1="0.699" y1="0.000" x2="0.699" y2="1.000" />




<line x1="0.740" y1="0.000" x2="0.740" y2="1.000" />








<line x1="0.813" y1="0.000" x2="0.813" y2="1.000" />





<line x1="0.862" y1="0.000" x2="0.862" y2="1.000" />


<line x1="0.886" y1="0.000" x2="0.886" y2="1.000" />










<line x1="0.976" y1="0.000" x2="0.976" y2="1.000" />










<line x1="1.065" y1="0.000" x2="1.065" y2="1.000" />





<line x1="1.114" y1="0.000" x2="1.114" y2="1.000" />




<line x1="1.155" y1="0.000" x2="1.155" y2="1.000" />








<line x1="1.228" y1="0.000" x2="1.228" y2="1.000" />









<line x1="1.309" y1="0.000" x2="1.309" y2="1.000" />




<line x1="1.350" y1="0.000" x2="1.350" y2="1.000" />




<line x1="1.390" y1="0.000" x2="1.390" y2="1.000" />






<line x1="1.447" y1="0.000" x2="1.447" y2="1.000" />


<line x1="1.472" y1="0.000" x2="1.472" y2="1.000" />






<line x1="1.529" y1="0.000" x2="1.529" y2="1.000" />










<line x1="1.618" y1="0.000" x2="1.618" y2="1.000" />

</g>
</svg>