<svg xmlns="http://www.w3.org/2000/svg" width="161.8" height="100.0" viewBox="-4.35 -60.56 171.80 110.00">
<g fill="none" stroke="black" stroke-width="0.0900%" transform="translate(0, -11.1111) scale(5.5556, -5.5556)">
<circle cx="0.12" cy="0.00" r="0.09" />
<circle cx="0.12" cy="0.00" r="0.09" />
<circle cx="0.23" cy="-2.00" r="0.09" />
<circle cx="0.35" cy="-1.00" r="0.09" />
<circle cx="0.47" cy="2.00" r="0.09" />
<circle cx="0.58" cy="-4.00" r="0.09" />
<circle cx="0.70" cy="-3.00" r="0.09" />
<circle cx="0.82" cy="1.00" r="0.09" />
<circle cx="0.94" cy="-3.00" r="0.09" />
<circle cx="1.05" cy="-2.00" r="0.09" />
<circle cx="1.17" cy="-2.00" r="0.09" />
<circle cx="1.29" cy="0.00" r="0.09" />
<circle cx="1.40" cy="1.00" r="0.09" />
<circle cx="1.52" cy="4.00" r="0.09" />
<circle cx="1.64" cy="-6.00" r="0.09" />
<circle cx="1.75" cy="-5.00" r="0.09" />
<circle cx="1.87" cy="3.00" r="0.09" />
<circle cx="1.99" cy="-5.00" r="0.09" />
<circle cx="2.11" cy="-4.00" r="0.09" />
<circle cx="2.22" cy="-1.00" r="0.09" />
<circle cx="2.34" cy="-1.00" r="0.09" />
<circle cx="2.46" cy="0.00" r="0.09" />
<circle cx="2.57" cy="3.00" r="0.09" />
<circle cx="2.69" cy="-5.00" r="0.09" />
<circle cx="2.81" cy="-4.00" r="0.09" />
<circle cx="2.92" cy="2.00" r="0.09" />
<circle cx="3.04" cy="-4.00" r="0.09" />
<circle cx="3.16" cy="-3.00" r="0.09" />
<circle cx="3.28" cy="2.00" r="0.09" />
<circle cx="3.39" cy="-4.00" r="0.09" />
<circle cx="3.51" cy="-3.00" r="0.09" />
<circle cx="3.63" cy="0.00" r="0.09" />
<circle cx="3.74" cy="-2.00" r="0.09" />
<circle cx="3.86" cy="-1.00" r="0.09" />
<circle cx="3.98" cy="-1.00" r="0.09" />
<circle cx="4.09" cy="-1.00" r="0.09" />
<circle cx="4.21" cy="0.00" r="0.09" />
<circle cx="4.33" cy="-4.00" r="0.09" />
<circle cx="4.44" cy="2.00" r="0.09" />
<circle cx="4.56" cy="3.00" r="0.09" />
<circle cx="4.68" cy="6.00" r="0.09" />
<circle cx="4.80" cy="-8.00" r="0.09" />
<circle cx="4.91" cy="-7.00" r="0.09" />
<circle cx="5.03" cy="5.00" r="0.09" />
<circle cx="5.15" cy="-7.00" r="0.09" />
<circle cx="5.26" cy="-6.00" r="0.09" />
<circle cx="5.38" cy="-3.00" r="0.09" />
<circle cx="5.50" cy="1.00" r="0.09" />
<circle cx="5.61" cy="2.00" r="0.09" />
<circle cx="5.73" cy="5.00" r="0.09" />
<circle cx="5.85" cy="-7.00" r="0.09" />
<circle cx="5.97" cy="-6.00" r="0.09" />
<circle cx="6.08" cy="4.00" r="0.09" />
<circle cx="6.20" cy="-6.00" r="0.09" />
<circle cx="6.32" cy="-5.00" r="0.09" />
<circle cx="6.43" cy="1.00" r="0.09" />
<circle cx="6.55" cy="-3.00" r="0.09" />
<circle cx="6.67" cy="-2.00" r="0.09" />
<circle cx="6.78" cy="1.00" r="0.09" />
<circle cx="6.90" cy="-3.00" r="0.09" />
<circle cx="7.02" cy="-2.00" r="0.09" />
<circle cx="7.13" cy="0.00" r="0.09" />
<circle cx="7.25" cy="-2.00" r="0.09" />
<circle cx="7.37" cy="-1.00" r="0.09" />
<circle cx="7.49" cy="-3.00" r="0.09" />
<circle cx="7.60" cy="1.00" r="0.09" />
<circle cx="7.72" cy="2.00" r="0.09" />
<circle cx="7.84" cy="5.00" r="0.09" />
<circle cx="7.95" cy="-7.00" r="0.09" />
<circle cx="8.07" cy="-6.00" r="0.09" />
<circle cx="8.19" cy="4.00" r="0.09" />
<circle cx="8.30" cy="-6.00" r="0.09" />
<circle cx="8.42" cy="-5.00" r="0.09" />
<circle cx="8.54" cy="-2.00" r="0.09" />
<circle cx="8.66" cy="0.00" r="0.09" />
<circle cx="8.77" cy="1.00" r="0.09" />
<circle cx="8.89" cy="4.00" r="0.09" />
<circle cx="9.01" cy="-6.00" r="0.09" />
<circle cx="9.12" cy="-5.00" r="0.09" />
<circle cx="9.24" cy="3.00" r="0.09" />
<circle cx="9.36" cy="-5.00" r="0.09" />
<circle cx="9.47" cy="-4.00" r="0.09" />
<circle cx="9.59" cy="-2.00" r="0.09" />
<circle cx="9.71" cy="0.00" r="0.09" />
<circle cx="9.83" cy="1.00" r="0.09" />
<circle cx="9.94" cy="4.00" r="0.09" />
<circle cx="10.06" cy="-6.00" r="0.09" />
<circle cx="10.18" cy="-5.00" r="0.09" />
<circle cx="10.29" cy="3.00" r="0.09" />
<circle cx="10.41" cy="-5.00" r="0.09" />
<circle cx="10.53" cy="-4.00" r="0.09" />
<circle cx="10.64" cy="0.00" r="0.09" />
<circle cx="10.76" cy="-2.00" r="0.09" />
<circle cx="10.88" cy="-1.00" r="0.09" />
<circle cx="10.99" cy="2.00" r="0.09" />
<circle cx="11.11" cy="-4.00" r="0.09" />
<circle cx="11.23" cy="-3.00" r="0.09" />
<circle cx="11.35" cy="1.00" r="0.09" />
<circle cx="11.46" cy="-3.00" r="0.09" />
<circle cx="11.58" cy="-2.00" r="0.09" />
<circle cx="11.70" cy="1.00" r="0.09" />
<circle cx="11.81" cy="-3.00" r="0.09" />
<circle cx="11.93" cy="-2.00" r="0.09" />
<circle cx="12.05" cy="1.00" r="0.09" />
<circle cx="12.16" cy="-3.00" r="0.09" />
<circle cx="12.28" cy="-2.00" r="0.09" />
<circle cx="12.40" cy="0.00" r="0.09" />
<circle cx="12.52" cy="-2.00" r="0.09" />
<circle cx="12.63" cy="-1.00" r="0.09" />
<circle cx="12.75" cy="4.00" r="0.09" />
<circle cx="12.87" cy="-6.00" r="0.09" />
<circle cx="12.98" cy="-5.00" r="0.09" />
<circle cx="13.10" cy="-2.00" r="0.09" />
<circle cx="13.22" cy="0.00" r="0.09" />
<circle cx="13.33" cy="1.00" r="0.09" />
<circle cx="13.45" cy="-3.00" r="0.09" />
<circle cx="13.57" cy="1.00" r="0.09" />
<circle cx="13.69" cy="2.00" r="0.09" />
<circle cx="13.80" cy="-6.00" r="0.09" />
<circle cx="13.92" cy="4.00" r="0.09" />
<circle cx="14.04" cy="5.00" r="0.09" />
<circle cx="14.15" cy="8.00" r="0.09" />
<circle cx="14.27" cy="-10.00" r="0.09" />
<circle cx="14.39" cy="-9.00" r="0.09" />
<circle cx="14.50" cy="7.00" r="0.09" />
<circle cx="14.62" cy="-9.00" r="0.09" />
<circle cx="14.74" cy="-8.00" r="0.09" />
<circle cx="14.85" cy="-5.00" r="0.09" />
<circle cx="14.97" cy="3.00" r="0.09" />
<circle cx="15.09" cy="4.00" r="0.09" />
<circle cx="15.21" cy="7.00" r="0.09" />
<circle cx="15.32" cy="-9.00" r="0.09" />
<circle cx="15.44" cy="-8.00" r="0.09" />
<circle cx="15.56" cy="6.00" r="0.09" />
<circle cx="15.67" cy="-8.00" r="0.09" />
<circle cx="15.79" cy="-7.00" r="0.09" />
<circle cx="15.91" cy="3.00" r="0.09" />
<circle cx="16.02" cy="-5.00" r="0.09" />
<circle cx="16.14" cy="-4.00" r="0.09" />
<circle cx="16.26" cy="-1.00" r="0.09" />
<circle cx="16.38" cy="-1.00" r="0.09" />
<circle cx="16.49" cy="0.00" r="0.09" />
<circle cx="16.61" cy="-2.00" r="0.09" />
<circle cx="16.73" cy="0.00" r="0.09" />
<circle cx="16.84" cy="1.00" r="0.09" />
<circle cx="16.96" cy="-5.00" r="0.09" />
<circle cx="17.08" cy="3.00" r="0.09" />
<circle cx="17.19" cy="4.00" r="0.09" />
<circle cx="17.31" cy="7.00" r="0.09" />
<circle cx="17.43" cy="-9.00" r="0.09" />
<circle cx="17.54" cy="-8.00" r="0.09" />
<circle cx="17.66" cy="6.00" r="0.09" />
<circle cx="17.78" cy="-8.00" r="0.09" />
<circle cx="17.90" cy="-7.00" r="0.09" />
<circle cx="18.01" cy="-4.00" r="0.09" />
<circle cx="18.13" cy="2.00" r="0.09" />
<circle cx="18.25" cy="3.00" r="0.09" />
<circle cx="18.36" cy="6.00" r="0.09" />
<circle cx="18.48" cy="-8.00" r="0.09" />
<circle cx="18.60" cy="-7.00" r="0.09" />
<circle cx="18.71" cy="5.00" r="0.09" />
<circle cx="18.83" cy="-7.00" r="0.09" />
<circle cx="18.95" cy="-6.00" r="0.09" />
<circle cx="19.07" cy="-1.00" r="0.09" />
<circle cx="19.18" cy="-1.00" r="0.09" />
<circle cx="19.30" cy="0.00" r="0.09" />
<circle cx="19.42" cy="3.00" r="0.09" />
<circle cx="19.53" cy="-5.00" r="0.09" />
<circle cx="19.65" cy="-4.00" r="0.09" />
<circle cx="19.77" cy="2.00" r="0.09" />
<circle cx="19.88" cy="-4.00" r="0.09" />
<circle cx="20.00" cy="-3.00" r="0.09" />
<circle cx="20.12" cy="-1.00" r="0.09" />
<circle cx="20.24" cy="-1.00" r="0.09" />
<circle cx="20.35" cy="0.00" r="0.09" />
<circle cx="20.47" cy="3.00" r="0.09" />
<circle cx="20.59" cy="-5.00" r="0.09" />
<circle cx="20.70" cy="-4.00" r="0.09" />
<circle cx="20.82" cy="2.00" r="0.09" />
<circle cx="20.94" cy="-4.00" r="0.09" />
<circle cx="21.05" cy="-3.00" r="0.09" />
<circle cx="21.17" cy="0.00" r="0.09" />
<circle cx="21.29" cy="-2.00" r="0.09" />
<circle cx="21.40" cy="-1.00" r="0.09" />
<circle cx="21.52" cy="2.00" r="0.09" />
<circle cx="21.64" cy="-4.00" r="0.09" />
<circle cx="21.76" cy="-3.00" r="0.09" />
<circle cx="21.87" cy="1.00" r="0.09" />
<circle cx="21.99" cy="-3.00" r="0.09" />
<circle cx="22.11" cy="-2.00" r="0.09" />
<circle cx="22.22" cy="3.00" r="0.09" />
<circle cx="22.34" cy="-5.00" r="0.09" />
<circle cx="22.46" cy="-4.00" r="0.09" />
<circle cx="22.57" cy="-1.00" r="0.09" />
<circle cx="22.69" cy="-1.00" r="0.09" />
<circle cx="22.81" cy="0.00" r="0.09" />
<circle cx="22.93" cy="-2.00" r="0.09" />
<circle cx="23.04" cy="0.00" r="0.09" />
<circle cx="23.16" cy="1.00" r="0.09" />
<circle cx="23.28" cy="-5.00" r="0.09" />
<circle cx="23.39" cy="3.00" r="0.09" />
<circle cx="23.51" cy="4.00" r="0.09" />
<circle cx="23.63" cy="7.00" r="0.09" />
<circle cx="23.74" cy="-9.00" r="0.09" />
<circle cx="23.86" cy="-8.00" r="0.09" />
<circle cx="23.98" cy="6.00" r="0.09" />
<circle cx="24.10" cy="-8.00" r="0.09" />
<circle cx="24.21" cy="-7.00" r="0.09" />
<circle cx="24.33" cy="-4.00" r="0.09" />
<circle cx="24.45" cy="2.00" r="0.09" />
<circle cx="24.56" cy="3.00" r="0.09" />
<circle cx="24.68" cy="6.00" r="0.09" />
<circle cx="24.80" cy="-8.00" r="0.09" />
<circle cx="24.91" cy="-7.00" r="0.09" />
<circle cx="25.03" cy="5.00" r="0.09" />
<circle cx="25.15" cy="-7.00" r="0.09" />
<circle cx="25.26" cy="-6.00" r="0.09" />
<circle cx="25.38" cy="2.00" r="0.09" />
<circle cx="25.50" cy="-4.00" r="0.09" />
<circle cx="25.62" cy="-3.00" r="0.09" />
<circle cx="25.73" cy="0.00" r="0.09" />
<circle cx="25.85" cy="-2.00" r="0.09" />
<circle cx="25.97" cy="-1.00" r="0.09" />
<circle cx="26.08" cy="-1.00" r="0.09" />
<circle cx="26.20" cy="-1.00" r="0.09" />
<circle cx="26.32" cy="0.00" r="0.09" />
<circle cx="26.43" cy="-4.00" r="0.09" />
<circle cx="26.55" cy="2.00" r="0.09" />
<circle cx="26.67" cy="3.00" r="0.09" />
<circle cx="26.79" cy="6.00" r="0.09" />
<circle cx="26.90" cy="-8.00" r="0.09" />
<circle cx="27.02" cy="-7.00" r="0.09" />
<circle cx="27.14" cy="5.00" r="0.09" />
<circle cx="27.25" cy="-7.00" r="0.09" />
<circle cx="27.37" cy="-6.00" r="0.09" />
<circle cx="27.49" cy="-3.00" r="0.09" />
<circle cx="27.60" cy="1.00" r="0.09" />
<circle cx="27.72" cy="2.00" r="0.09" />
<circle cx="27.84" cy="5.00" r="0.09" />
<circle cx="27.95" cy="-7.00" r="0.09" />
<circle cx="28.07" cy="-6.00" r="0.09" />
<circle cx="28.19" cy="4.00" r="0.09" />
<circle cx="28.31" cy="-6.00" r="0.09" />
<circle cx="28.42" cy="-5.00" r="0.09" />
<circle cx="28.54" cy="2.00" r="0.09" />
<circle cx="28.66" cy="-4.00" r="0.09" />
<circle cx="28.77" cy="-3.00" r="0.09" />
<circle cx="28.89" cy="0.00" r="0.09" />
<circle cx="29.01" cy="-2.00" r="0.09" />
<circle cx="29.12" cy="-1.00" r="0.09" />
<circle cx="29.24" cy="-1.00" r="0.09" />
</g>
</svg>