<svg xmlns="http://www.w3.org/2000/svg" width="161.8" height="100.0" viewBox="70 -5 172 110">
<g fill="none" stroke="black" stroke-width="1.8400%" transform="translate(0, 100.0000) scale(0.2717, -0.2717)">
<circle cx="275" cy="0" r="2" />
<line x1="275" y1="0" x2="275" y2="1" />
<line x1="281" y1="0" x2="281" y2="0" />
<line x1="288" y1="0" x2="288" y2="0" />
<line x1="294" y1="0" x2="294" y2="0" />
<line x1="301" y1="0" x2="301" y2="0" />
<line x1="308" y1="0" x2="308" y2="0" />
<line x1="314" y1="0" x2="314" y2="0" />
<line x1="321" y1="0" x2="321" y2="0" />
<line x1="327" y1="0" x2="327" y2="0" />
<line x1="334" y1="0" x2="334" y2="0" />
<line x1="341" y1="0" x2="341" y2="0" />
<line x1="347" y1="0" x2="347" y2="4" />
<line x1="354" y1="0" x2="354" y2="0" />
<line x1="361" y1="0" x2="361" y2="0" />
<line x1="367" y1="0" x2="367" y2="2" />
<line x1="374" y1="0" x2="374" y2="1" />
<line x1="380" y1="0" x2="380" y2="0" />
<line x1="387" y1="0" x2="387" y2="0" />
<line x1="394" y1="0" x2="394" y2="1" />
<line x1="400" y1="0" x2="400" y2="1" />
<line x1="407" y1="0" x2="407" y2="2" />
<line x1="413" y1="0" x2="413" y2="7" />
<line x1="420" y1="0" x2="420" y2="2" />
<line x1="427" y1="0" x2="427" y2="4" />
<line x1="433" y1="0" x2="433" y2="5" />
<line x1="440" y1="0" x2="440" y2="5" />
<line x1="447" y1="0" x2="447" y2="5" />
<line x1="453" y1="0" x2="453" y2="11" />
<line x1="460" y1="0" x2="460" y2="13" />
<line x1="466" y1="0" x2="466" y2="9" />
<line x1="473" y1="0" x2="473" y2="6" />
<line x1="480" y1="0" x2="480" y2="9" />
<line x1="486" y1="0" x2="486" y2="9" />
<line x1="493" y1="0" x2="493" y2="10" />
<line x1="500" y1="0" x2="500" y2="14" />
<line x1="506" y1="0" x2="506" y2="16" />
<line x1="513" y1="0" x2="513" y2="17" />
<line x1="519" y1="0" x2="519" y2="16" />
<line x1="526" y1="0" x2="526" y2="17" />
<line x1="533" y1="0" x2="533" y2="30" />
<line x1="539" y1="0" x2="539" y2="25" />
<line x1="546" y1="0" x2="546" y2="31" />
<line x1="552" y1="0" x2="552" y2="29" />
<line x1="559" y1="0" x2="559" y2="48" />
<line x1="566" y1="0" x2="566" y2="47" />
<line x1="572" y1="0" x2="572" y2="43" />
<line x1="579" y1="0" x2="579" y2="55" />
<line x1="586" y1="0" x2="586" y2="56" />
<line x1="592" y1="0" x2="592" y2="60" />
<line x1="599" y1="0" x2="599" y2="78" />
<line x1="605" y1="0" x2="605" y2="91" />
<line x1="612" y1="0" x2="612" y2="81" />
<line x1="619" y1="0" x2="619" y2="84" />
<line x1="625" y1="0" x2="625" y2="99" />
<line x1="632" y1="0" x2="632" y2="104" />
<line x1="638" y1="0" x2="638" y2="121" />
<line x1="645" y1="0" x2="645" y2="134" />
<line x1="652" y1="0" x2="652" y2="163" />
<line x1="658" y1="0" x2="658" y2="162" />
<line x1="665" y1="0" x2="665" y2="176" />
<line x1="672" y1="0" x2="672" y2="171" />
<line x1="678" y1="0" x2="678" y2="187" />
<line x1="685" y1="0" x2="685" y2="207" />
<line x1="691" y1="0" x2="691" y2="234" />
<line x1="698" y1="0" x2="698" y2="215" />
<line x1="705" y1="0" x2="705" y2="239" />
<line x1="711" y1="0" x2="711" y2="265" />
<line x1="718" y1="0" x2="718" y2="279" />
<line x1="724" y1="0" x2="724" y2="307" />
<line x1="731" y1="0" x2="731" y2="290" />
<line x1="738" y1="0" x2="738" y2="296" />
<line x1="744" y1="0" x2="744" y2="336" />
<line x1="751" y1="0" x2="751" y2="321" />
<line x1="758" y1="0" x2="758" y2="331" />
<line x1="764" y1="0" x2="764" y2="343" />
<line x1="771" y1="0" x2="771" y2="356" />
<line x1="777" y1="0" x2="777" y2="360" />
<line x1="784" y1="0" x2="784" y2="355" />
<line x1="791" y1="0" x2="791" y2="368" />
<line x1="797" y1="0" x2="797" y2="361" />
<line x1="804" y1="0" x2="804" y2="340" />
<line x1="810" y1="0" x2="810" y2="337" />
<line x1="817" y1="0" x2="817" y2="344" />
<line x1="824" y1="0" x2="824" y2="297" />
<line x1="830" y1="0" x2="830" y2="249" />
<line x1="837" y1="0" x2="837" y2="241" />
<line x1="844" y1="0" x2="844" y2="195" />
<line x1="850" y1="0" x2="850" y2="134" />
<line x1="857" y1="0" x2="857" y2="91" />
<line x1="863" y1="0" x2="863" y2="41" />
<line x1="870" y1="0" x2="870" y2="6" />
</g>
</svg>