<svg xmlns="http://www.w3.org/2000/svg" width="161.8" height="100.0" viewBox="-3.35 -44.92 171.80 110.00">
<g fill="none" stroke="black" stroke-width="0.0223%" transform="translate(0, 20.1668) scale(22.4323, -22.4323)">
<circle cx="0.07" cy="0.00" r="0.02" />
<polyline points="0.07,0.53 0.15,1.72 0.22,0.45 0.29,0.85 0.37,0.14 0.44,-1.34 0.52,-0.33 0.59,-0.28 0.66,1.33 0.74,1.04 0.81,2.68 0.88,-0.10 0.96,1.31 1.03,-0.72 1.10,-0.55 1.18,-0.68 1.25,-0.47 1.32,-0.00 1.40,-0.07 1.47,0.04 1.55,0.69 1.62,0.69 1.69,-1.18 1.77,-0.51 1.84,-0.56 1.91,-1.31 1.99,-0.58 2.06,0.65 2.13,0.49 2.21,0.35 2.28,0.34 2.36,0.57 2.43,0.75 2.50,-0.70 2.58,1.14 2.65,1.34 2.72,-0.90 2.80,1.05 2.87,0.18 2.94,0.28 3.02,0.31 3.09,-0.75 3.16,1.32 3.24,-0.62 3.31,-0.09 3.39,0.61 3.46,0.92 3.53,1.24 3.61,0.39 3.68,1.43 3.75,-1.66 3.83,0.91 3.90,-0.36 3.97,0.78 4.05,-1.63 4.12,-0.84 4.20,0.69 4.27,1.30 4.34,1.09 4.42,-1.12 4.49,0.22 4.56,-0.61 4.64,-0.47 4.71,-0.71 4.78,-1.00 4.86,0.92 4.93,-1.17 5.00,2.25 5.08,-0.33 5.15,0.32 5.23,-0.05 5.30,-0.77 5.37,1.27 5.45,0.81 5.52,-0.72 5.59,1.22 5.67,1.02 5.74,-0.16 5.81,-1.56 5.89,-1.28 5.96,0.05 6.04,1.42 6.11,0.33 6.18,-0.91 6.26,-0.24 6.33,1.68 6.40,0.22 6.48,0.23 6.55,1.02 6.62,-0.59 6.70,-0.18 6.77,-0.35 6.84,-1.28 6.92,0.50 6.99,1.10 7.07,-1.78 7.14,-0.62 7.21,1.97 7.29,-0.34" />
</g>
</svg>