<svg xmlns="http://www.w3.org/2000/svg" width="161.8" height="100.0" viewBox="-4.68 -49.47 171.80 110.00">
<g fill="none" stroke="black" stroke-width="0.0327%" transform="translate(0, 11.0674) scale(15.2916, -15.2916)">
<circle cx="0.02" cy="0.00" r="0.03" />
<polyline points="0.02,-2.91 0.04,-2.43 0.06,-2.36 0.08,-2.34 0.11,-2.30 0.13,-2.22 0.15,-2.17 0.17,-2.09 0.19,-2.03 0.21,-1.98 0.23,-1.98 0.25,-1.96 0.28,-1.95 0.30,-1.95 0.32,-1.91 0.34,-1.85 0.36,-1.85 0.38,-1.76 0.40,-1.75 0.42,-1.71 0.45,-1.70 0.47,-1.69 0.49,-1.67 0.51,-1.62 0.53,-1.60 0.55,-1.57 0.57,-1.49 0.59,-1.48 0.61,-1.48 0.64,-1.45 0.66,-1.41 0.68,-1.40 0.70,-1.39 0.72,-1.38 0.74,-1.38 0.76,-1.38 0.78,-1.36 0.81,-1.36 0.83,-1.35 0.85,-1.35 0.87,-1.35 0.89,-1.33 0.91,-1.30 0.93,-1.30 0.95,-1.29 0.98,-1.28 1.00,-1.28 1.02,-1.27 1.04,-1.27 1.06,-1.23 1.08,-1.22 1.10,-1.20 1.12,-1.20 1.15,-1.20 1.17,-1.19 1.19,-1.19 1.21,-1.18 1.23,-1.18 1.25,-1.18 1.27,-1.18 1.29,-1.17 1.31,-1.17 1.34,-1.17 1.36,-1.17 1.38,-1.16 1.40,-1.15 1.42,-1.09 1.44,-1.09 1.46,-1.08 1.48,-1.06 1.51,-1.06 1.53,-1.05 1.55,-1.03 1.57,-1.02 1.59,-1.02 1.61,-1.01 1.63,-0.98 1.65,-0.96 1.68,-0.96 1.70,-0.95 1.72,-0.94 1.74,-0.94 1.76,-0.94 1.78,-0.93 1.80,-0.92 1.82,-0.91 1.84,-0.90 1.87,-0.88 1.89,-0.88 1.91,-0.88 1.93,-0.88 1.95,-0.87 1.97,-0.87 1.99,-0.86 2.01,-0.84 2.04,-0.84 2.06,-0.83 2.08,-0.83 2.10,-0.81 2.12,-0.78 2.14,-0.78 2.16,-0.78 2.18,-0.77 2.21,-0.77 2.23,-0.76 2.25,-0.76 2.27,-0.75 2.29,-0.75 2.31,-0.74 2.33,-0.74 2.35,-0.74 2.37,-0.74 2.40,-0.74 2.42,-0.73 2.44,-0.72 2.46,-0.72 2.48,-0.71 2.50,-0.69 2.52,-0.68 2.54,-0.67 2.57,-0.67 2.59,-0.66 2.61,-0.66 2.63,-0.65 2.65,-0.65 2.67,-0.63 2.69,-0.63 2.71,-0.63 2.74,-0.62 2.76,-0.62 2.78,-0.62 2.80,-0.60 2.82,-0.60 2.84,-0.59 2.86,-0.59 2.88,-0.58 2.91,-0.58 2.93,-0.57 2.95,-0.57 2.97,-0.57 2.99,-0.56 3.01,-0.56 3.03,-0.56 3.05,-0.55 3.07,-0.55 3.10,-0.54 3.12,-0.54 3.14,-0.54 3.16,-0.52 3.18,-0.52 3.20,-0.51 3.22,-0.51 3.24,-0.50 3.27,-0.50 3.29,-0.49 3.31,-0.49 3.33,-0.49 3.35,-0.49 3.37,-0.49 3.39,-0.48 3.41,-0.48 3.44,-0.48 3.46,-0.47 3.48,-0.47 3.50,-0.46 3.52,-0.46 3.54,-0.45 3.56,-0.45 3.58,-0.43 3.60,-0.42 3.63,-0.41 3.65,-0.40 3.67,-0.40 3.69,-0.38 3.71,-0.38 3.73,-0.38 3.75,-0.37 3.77,-0.37 3.80,-0.36 3.82,-0.36 3.84,-0.35 3.86,-0.35 3.88,-0.32 3.90,-0.32 3.92,-0.32 3.94,-0.31 3.97,-0.30 3.99,-0.30 4.01,-0.30 4.03,-0.29 4.05,-0.29 4.07,-0.29 4.09,-0.29 4.11,-0.29 4.13,-0.29 4.16,-0.28 4.18,-0.28 4.20,-0.25 4.22,-0.24 4.24,-0.24 4.26,-0.23 4.28,-0.22 4.30,-0.21 4.33,-0.21 4.35,-0.20 4.37,-0.20 4.39,-0.20 4.41,-0.20 4.43,-0.20 4.45,-0.20 4.47,-0.19 4.50,-0.19 4.52,-0.19 4.54,-0.18 4.56,-0.17 4.58,-0.17 4.60,-0.17 4.62,-0.17 4.64,-0.17 4.67,-0.17 4.69,-0.15 4.71,-0.15 4.73,-0.15 4.75,-0.15 4.77,-0.15 4.79,-0.15 4.81,-0.14 4.83,-0.14 4.86,-0.14 4.88,-0.13 4.90,-0.12 4.92,-0.11 4.94,-0.11 4.96,-0.11 4.98,-0.10 5.00,-0.10 5.03,-0.10 5.05,-0.10 5.07,-0.10 5.09,-0.09 5.11,-0.08 5.13,-0.08 5.15,-0.07 5.17,-0.06 5.20,-0.06 5.22,-0.05 5.24,-0.05 5.26,-0.05 5.28,-0.04 5.30,-0.04 5.32,-0.04 5.34,-0.03 5.36,-0.03 5.39,-0.02 5.41,-0.02 5.43,-0.02 5.45,-0.01 5.47,-0.01 5.49,-0.01 5.51,0.00 5.53,0.00 5.56,0.00 5.58,0.01 5.60,0.01 5.62,0.02 5.64,0.02 5.66,0.02 5.68,0.02 5.70,0.02 5.73,0.03 5.75,0.03 5.77,0.03 5.79,0.04 5.81,0.05 5.83,0.05 5.85,0.06 5.87,0.07 5.89,0.09 5.92,0.09 5.94,0.10 5.96,0.11 5.98,0.11 6.00,0.11 6.02,0.11 6.04,0.12 6.06,0.13 6.09,0.13 6.11,0.13 6.13,0.14 6.15,0.14 6.17,0.14 6.19,0.14 6.21,0.15 6.23,0.16 6.26,0.16 6.28,0.16 6.30,0.17 6.32,0.18 6.34,0.19 6.36,0.20 6.38,0.22 6.40,0.22 6.43,0.23 6.45,0.23 6.47,0.25 6.49,0.26 6.51,0.26 6.53,0.26 6.55,0.28 6.57,0.29 6.59,0.29 6.62,0.29 6.64,0.29 6.66,0.29 6.68,0.30 6.70,0.31 6.72,0.32 6.74,0.32 6.76,0.35 6.79,0.35 6.81,0.36 6.83,0.36 6.85,0.36 6.87,0.37 6.89,0.38 6.91,0.38 6.93,0.39 6.96,0.40 6.98,0.41 7.00,0.41 7.02,0.42 7.04,0.43 7.06,0.43 7.08,0.43 7.10,0.43 7.12,0.44 7.15,0.44 7.17,0.44 7.19,0.45 7.21,0.46 7.23,0.49 7.25,0.50 7.27,0.50 7.29,0.50 7.32,0.50 7.34,0.51 7.36,0.51 7.38,0.51 7.40,0.51 7.42,0.52 7.44,0.52 7.46,0.52 7.49,0.53 7.51,0.54 7.53,0.54 7.55,0.55 7.57,0.55 7.59,0.56 7.61,0.57 7.63,0.58 7.65,0.58 7.68,0.58 7.70,0.59 7.72,0.59 7.74,0.60 7.76,0.60 7.78,0.60 7.80,0.61 7.82,0.62 7.85,0.63 7.87,0.63 7.89,0.64 7.91,0.64 7.93,0.65 7.95,0.66 7.97,0.66 7.99,0.66 8.02,0.68 8.04,0.68 8.06,0.69 8.08,0.69 8.10,0.70 8.12,0.70 8.14,0.70 8.16,0.72 8.19,0.72 8.21,0.72 8.23,0.73 8.25,0.74 8.27,0.74 8.29,0.74 8.31,0.75 8.33,0.75 8.35,0.77 8.38,0.78 8.40,0.78 8.42,0.79 8.44,0.80 8.46,0.81 8.48,0.81 8.50,0.82 8.52,0.84 8.55,0.84 8.57,0.85 8.59,0.85 8.61,0.85 8.63,0.86 8.65,0.86 8.67,0.87 8.69,0.87 8.72,0.88 8.74,0.88 8.76,0.90 8.78,0.94 8.80,0.94 8.82,0.96 8.84,0.98 8.86,0.99 8.88,0.99 8.91,0.99 8.93,1.01 8.95,1.04 8.97,1.04 8.99,1.06 9.01,1.07 9.03,1.09 9.05,1.10 9.08,1.10 9.10,1.11 9.12,1.13 9.14,1.13 9.16,1.14 9.18,1.15 9.20,1.16 9.22,1.16 9.25,1.17 9.27,1.17 9.29,1.17 9.31,1.17 9.33,1.18 9.35,1.19 9.37,1.20 9.39,1.24 9.41,1.25 9.44,1.26 9.46,1.26 9.48,1.29 9.50,1.29 9.52,1.30 9.54,1.32 9.56,1.33 9.58,1.34 9.61,1.35 9.63,1.36 9.65,1.38 9.67,1.38 9.69,1.43 9.71,1.46 9.73,1.47 9.75,1.50 9.78,1.50 9.80,1.51 9.82,1.53 9.84,1.53 9.86,1.54 9.88,1.57 9.90,1.57 9.92,1.59 9.95,1.61 9.97,1.66 9.99,1.66 10.01,1.72 10.03,1.73 10.05,1.78 10.07,1.81 10.09,1.83 10.11,1.85 10.14,1.87 10.16,1.88 10.18,1.91 10.20,1.93 10.22,1.94 10.24,1.97 10.26,2.06 10.28,2.11 10.31,2.13 10.33,2.17 10.35,2.26 10.37,2.33 10.39,2.35 10.41,2.42 10.43,2.43 10.45,2.55 10.48,2.63 10.50,2.65 10.52,2.72 10.54,2.74 10.56,2.76 10.58,3.31 10.60,3.63" />
</g>
</svg>