<svg xmlns="http://www.w3.org/2000/svg" width="161.8" height="100.0" viewBox="-3.35 0.88 171.80 110.00">
<g fill="none" stroke="black" stroke-width="0.0850%" transform="translate(0, 111.7647) scale(5.8824, -5.8824)">
<polyline points="0.28,1.00 0.56,2.00 0.84,2.00 1.12,4.00 1.40,2.00 1.68,4.00 1.96,2.00 2.25,4.00 2.53,6.00 2.81,2.00 3.09,6.00 3.37,4.00 3.65,2.00 3.93,4.00 4.21,6.00 4.49,6.00 4.77,2.00 5.05,6.00 5.33,4.00 5.61,2.00 5.89,6.00 6.17,4.00 6.46,6.00 6.74,8.00 7.02,4.00 7.30,2.00 7.58,4.00 7.86,2.00 8.14,4.00 8.42,14.00 8.70,4.00 8.98,6.00 9.26,2.00 9.54,10.00 9.82,2.00 10.10,6.00 10.39,6.00 10.67,4.00 10.95,6.00 11.23,6.00 11.51,2.00 11.79,10.00 12.07,2.00 12.35,4.00 12.63,2.00 12.91,12.00 13.19,12.00 13.47,4.00 13.75,2.00 14.03,4.00 14.31,6.00 14.60,2.00 14.88,10.00 15.16,6.00 15.44,6.00 15.72,6.00 16.00,2.00 16.28,6.00 16.56,4.00 16.84,2.00 17.12,10.00 17.40,14.00 17.68,4.00 17.96,2.00 18.24,4.00 18.52,14.00 18.81,6.00 19.09,10.00 19.37,2.00 19.65,4.00 19.93,6.00 20.21,8.00 20.49,6.00 20.77,6.00 21.05,4.00 21.33,6.00 21.61,8.00 21.89,4.00 22.17,8.00 22.45,10.00 22.74,2.00 23.02,10.00 23.30,2.00 23.58,6.00 23.86,4.00 24.14,6.00 24.42,8.00 24.70,4.00 24.98,2.00 25.26,4.00 25.54,12.00 25.82,8.00 26.10,4.00 26.38,8.00 26.66,4.00 26.95,6.00 27.23,12.00 27.51,2.00 27.79,18.00" />
</g>
</svg>