<svg xmlns="http://www.w3.org/2000/svg" width="161.803" height="100.000" viewBox="-85.902 -55.000 171.803 110.000">
<g fill="none" stroke="black" stroke-width="0.010%" transform="translate(0, 0.000) scale(50.000, -50.000)">
<circle cx="-1.000" cy="0.000" r="0.020" />
<circle cx="0.000" cy="-1.000" r="0.020" />
<polyline points="-1.618,-1.000 -1.586,-0.993 -1.553,-0.986 -1.521,-0.980 -1.489,-0.973 -1.456,-0.965 -1.424,-0.958 -1.392,-0.951 -1.359,-0.944 -1.327,-0.936 -1.294,-0.928 -1.262,-0.921 -1.230,-0.913 -1.197,-0.905 -1.165,-0.896 -1.133,-0.888 -1.100,-0.879 -1.068,-0.871 -1.036,-0.862 -1.003,-0.853 -0.971,-0.843 -0.938,-0.834 -0.906,-0.824 -0.874,-0.814 -0.841,-0.804 -0.809,-0.794 -0.777,-0.783 -0.744,-0.772 -0.712,-0.761 -0.680,-0.749 -0.647,-0.737 -0.615,-0.724 -0.582,-0.711 -0.550,-0.698 -0.518,-0.684 -0.485,-0.669 -0.453,-0.654 -0.421,-0.638 -0.388,-0.621 -0.356,-0.604 -0.324,-0.585 -0.291,-0.565 -0.259,-0.543 -0.227,-0.519 -0.194,-0.493 -0.162,-0.464 -0.129,-0.431 -0.097,-0.391 -0.065,-0.342 -0.032,-0.271 0.000,0.000 0.032,0.271 0.065,0.342 0.097,0.391 0.129,0.431 0.162,0.464 0.194,0.493 0.227,0.519 0.259,0.543 0.291,0.565 0.324,0.585 0.356,0.604 0.388,0.621 0.421,0.638 0.453,0.654 0.485,0.669 0.518,0.684 0.550,0.698 0.582,0.711 0.615,0.724 0.647,0.737 0.680,0.749 0.712,0.761 0.744,0.772 0.777,0.783 0.809,0.794 0.841,0.804 0.874,0.814 0.906,0.824 0.938,0.834 0.971,0.843 1.003,0.853 1.036,0.862 1.068,0.871 1.100,0.879 1.133,0.888 1.165,0.896 1.197,0.905 1.230,0.913 1.262,0.921 1.294,0.928 1.327,0.936 1.359,0.944 1.392,0.951 1.424,0.958 1.456,0.965 1.489,0.973 1.521,0.980 1.553,0.986 1.586,0.993 1.618,1.000" />
</g>
</svg>