<svg xmlns="http://www.w3.org/2000/svg" width="161.8" height="100.0" viewBox="-4 5 172 110">
<g fill="none" stroke="black" stroke-width="2.2950%" transform="translate(0, 120.4793) scale(0.2179, -0.2179)">
<circle cx="3" cy="119" r="2" />
<circle cx="6" cy="136" r="2" />
<circle cx="9" cy="128" r="2" />
<circle cx="12" cy="144" r="2" />
<circle cx="15" cy="153" r="2" />
<circle cx="18" cy="170" r="2" />
<circle cx="21" cy="150" r="2" />
<circle cx="24" cy="165" r="2" />
<circle cx="27" cy="121" r="2" />
<circle cx="30" cy="132" r="2" />
<circle cx="33" cy="156" r="2" />
<circle cx="36" cy="143" r="2" />
<circle cx="39" cy="154" r="2" />
<circle cx="42" cy="168" r="2" />
<circle cx="45" cy="180" r="2" />
<circle cx="48" cy="195" r="2" />
<circle cx="51" cy="169" r="2" />
<circle cx="53" cy="182" r="2" />
<circle cx="56" cy="196" r="2" />
<circle cx="59" cy="210" r="2" />
<circle cx="62" cy="225" r="2" />
<circle cx="65" cy="240" r="2" />
<circle cx="68" cy="160" r="2" />
<circle cx="71" cy="94" r="2" />
<circle cx="74" cy="47" r="2" />
<circle cx="77" cy="53" r="2" />
<circle cx="80" cy="106" r="2" />
<circle cx="83" cy="116" r="2" />
<circle cx="86" cy="174" r="2" />
<circle cx="89" cy="87" r="2" />
<circle cx="92" cy="59" r="2" />
<circle cx="95" cy="118" r="2" />
<circle cx="98" cy="122" r="2" />
<circle cx="101" cy="61" r="2" />
<circle cx="104" cy="67" r="2" />
<circle cx="107" cy="134" r="2" />
<circle cx="110" cy="124" r="2" />
<circle cx="113" cy="186" r="2" />
<circle cx="116" cy="93" r="2" />
<circle cx="119" cy="71" r="2" />
<circle cx="122" cy="142" r="2" />
<circle cx="125" cy="138" r="2" />
<circle cx="128" cy="207" r="2" />
<circle cx="131" cy="111" r="2" />
<circle cx="134" cy="148" r="2" />
<circle cx="137" cy="152" r="2" />
<circle cx="140" cy="190" r="2" />
<circle cx="143" cy="115" r="2" />
<circle cx="146" cy="161" r="2" />
<circle cx="149" cy="147" r="2" />
<circle cx="152" cy="189" r="2" />
<circle cx="154" cy="162" r="2" />
<circle cx="157" cy="192" r="2" />
<circle cx="160" cy="224" r="2" />
<circle cx="163" cy="175" r="2" />
<circle cx="166" cy="125" r="2" />
<circle cx="169" cy="145" r="2" />
<circle cx="172" cy="203" r="2" />
<circle cx="175" cy="217" r="2" />
<circle cx="178" cy="155" r="2" />
<circle cx="181" cy="185" r="2" />
<circle cx="184" cy="222" r="2" />
<circle cx="187" cy="198" r="2" />
<circle cx="190" cy="231" r="2" />
<circle cx="193" cy="238" r="2" />
<circle cx="196" cy="204" r="2" />
<circle cx="199" cy="216" r="2" />
<circle cx="202" cy="234" r="2" />
<circle cx="205" cy="208" r="2" />
<circle cx="208" cy="176" r="2" />
<circle cx="211" cy="187" r="2" />
<circle cx="214" cy="221" r="2" />
<circle cx="217" cy="247" r="2" />
<circle cx="220" cy="171" r="2" />
<circle cx="223" cy="243" r="2" />
<circle cx="226" cy="270" r="2" />
<circle cx="229" cy="200" r="2" />
<circle cx="232" cy="220" r="2" />
<circle cx="235" cy="209" r="2" />
<circle cx="238" cy="228" r="2" />
<circle cx="241" cy="252" r="2" />
<circle cx="244" cy="273" r="2" />
<circle cx="247" cy="260" r="2" />
<circle cx="250" cy="280" r="2" />
<circle cx="253" cy="266" r="2" />
<circle cx="255" cy="285" r="2" />
<circle cx="258" cy="255" r="2" />
<circle cx="261" cy="272" r="2" />
<circle cx="264" cy="256" r="2" />
<circle cx="267" cy="288" r="2" />
<circle cx="270" cy="261" r="2" />
<circle cx="273" cy="232" r="2" />
<circle cx="276" cy="184" r="2" />
<circle cx="279" cy="230" r="2" />
<circle cx="282" cy="205" r="2" />
<circle cx="285" cy="123" r="2" />
<circle cx="288" cy="129" r="2" />
<circle cx="291" cy="172" r="2" />
<circle cx="294" cy="164" r="2" />
<circle cx="297" cy="246" r="2" />
<circle cx="300" cy="141" r="2" />
<circle cx="303" cy="188" r="2" />
<circle cx="306" cy="212" r="2" />
<circle cx="309" cy="159" r="2" />
<circle cx="312" cy="177" r="2" />
<circle cx="315" cy="236" r="2" />
<circle cx="318" cy="244" r="2" />
<circle cx="321" cy="183" r="2" />
<circle cx="324" cy="201" r="2" />
<circle cx="327" cy="268" r="2" />
<circle cx="330" cy="248" r="2" />
<circle cx="333" cy="310" r="2" />
<circle cx="336" cy="215" r="2" />
<circle cx="339" cy="258" r="2" />
<circle cx="342" cy="264" r="2" />
<circle cx="345" cy="308" r="2" />
<circle cx="348" cy="245" r="2" />
<circle cx="351" cy="315" r="2" />
<circle cx="354" cy="279" r="2" />
<circle cx="356" cy="341" r="2" />
<circle cx="359" cy="242" r="2" />
<circle cx="362" cy="286" r="2" />
<circle cx="365" cy="299" r="2" />
<circle cx="368" cy="253" r="2" />
<circle cx="371" cy="275" r="2" />
<circle cx="374" cy="250" r="2" />
<circle cx="377" cy="290" r="2" />
<circle cx="380" cy="319" r="2" />
<circle cx="383" cy="297" r="2" />
<circle cx="386" cy="324" r="2" />
<circle cx="389" cy="276" r="2" />
<circle cx="392" cy="322" r="2" />
<circle cx="395" cy="259" r="2" />
<circle cx="398" cy="296" r="2" />
<circle cx="401" cy="304" r="2" />
<circle cx="404" cy="342" r="2" />
<circle cx="407" cy="306" r="2" />
<circle cx="410" cy="289" r="2" />
<circle cx="413" cy="323" r="2" />
<circle cx="416" cy="361" r="2" />
<circle cx="419" cy="380" r="2" />
<circle cx="422" cy="300" r="2" />
<circle cx="425" cy="330" r="2" />
<circle cx="428" cy="352" r="2" />
<circle cx="431" cy="320" r="2" />
<circle cx="434" cy="340" r="2" />
<circle cx="437" cy="357" r="2" />
<circle cx="440" cy="294" r="2" />
<circle cx="443" cy="336" r="2" />
<circle cx="446" cy="312" r="2" />
<circle cx="449" cy="325" r="2" />
<circle cx="452" cy="350" r="2" />
<circle cx="455" cy="364" r="2" />
<circle cx="457" cy="338" r="2" />
<circle cx="460" cy="351" r="2" />
<circle cx="463" cy="378" r="2" />
<circle cx="466" cy="392" r="2" />
<circle cx="469" cy="420" r="2" />
<circle cx="472" cy="345" r="2" />
<circle cx="475" cy="368" r="2" />
<circle cx="478" cy="384" r="2" />
<circle cx="481" cy="360" r="2" />
<circle cx="484" cy="375" r="2" />
<circle cx="487" cy="400" r="2" />
<circle cx="490" cy="416" r="2" />
<circle cx="493" cy="390" r="2" />
<circle cx="496" cy="405" r="2" />
<circle cx="499" cy="432" r="2" />
<circle cx="502" cy="448" r="2" />
<circle cx="505" cy="476" r="2" />
<circle cx="508" cy="374" r="2" />
<circle cx="511" cy="363" r="2" />
<circle cx="514" cy="396" r="2" />
<circle cx="517" cy="348" r="2" />
<circle cx="520" cy="377" r="2" />
<circle cx="523" cy="403" r="2" />
<circle cx="526" cy="372" r="2" />
<circle cx="529" cy="408" r="2" />
<circle cx="532" cy="442" r="2" />
<circle cx="535" cy="429" r="2" />
<circle cx="538" cy="462" r="2" />
<circle cx="541" cy="406" r="2" />
<circle cx="544" cy="435" r="2" />
<circle cx="547" cy="450" r="2" />
<circle cx="550" cy="480" r="2" />
<circle cx="553" cy="464" r="2" />
<circle cx="556" cy="493" r="2" />
<circle cx="558" cy="391" r="2" />
<circle cx="561" cy="414" r="2" />
<circle cx="564" cy="468" r="2" />
<circle cx="567" cy="494" r="2" />
<circle cx="570" cy="399" r="2" />
<circle cx="573" cy="441" r="2" />
<circle cx="576" cy="483" r="2" />
<circle cx="579" cy="437" r="2" />
<circle cx="582" cy="418" r="2" />
<circle cx="585" cy="440" r="2" />
<circle cx="588" cy="460" r="2" />
<circle cx="591" cy="506" r="2" />
<circle cx="594" cy="385" r="2" />
<circle cx="597" cy="455" r="2" />
<circle cx="600" cy="481" r="2" />
<circle cx="603" cy="333" r="2" />
<circle cx="606" cy="369" r="2" />
<circle cx="609" cy="287" r="2" />
<circle cx="612" cy="301" r="2" />
<circle cx="615" cy="344" r="2" />
<circle cx="618" cy="328" r="2" />
<circle cx="621" cy="410" r="2" />
<circle cx="624" cy="235" r="2" />
<circle cx="627" cy="282" r="2" />
<circle cx="630" cy="318" r="2" />
<circle cx="633" cy="265" r="2" />
<circle cx="636" cy="295" r="2" />
<circle cx="639" cy="354" r="2" />
<circle cx="642" cy="366" r="2" />
<circle cx="645" cy="305" r="2" />
<circle cx="648" cy="335" r="2" />
<circle cx="651" cy="402" r="2" />
<circle cx="654" cy="426" r="2" />
<circle cx="657" cy="213" r="2" />
<circle cx="659" cy="73" r="2" />
<circle cx="662" cy="146" r="2" />
<circle cx="665" cy="158" r="2" />
<circle cx="668" cy="79" r="2" />
<circle cx="671" cy="83" r="2" />
<circle cx="674" cy="166" r="2" />
<circle cx="677" cy="178" r="2" />
<circle cx="680" cy="89" r="2" />
<circle cx="683" cy="97" r="2" />
<circle cx="686" cy="194" r="2" />
<circle cx="689" cy="202" r="2" />
<circle cx="692" cy="101" r="2" />
<circle cx="695" cy="103" r="2" />
<circle cx="698" cy="206" r="2" />
<circle cx="701" cy="214" r="2" />
<circle cx="704" cy="107" r="2" />
<circle cx="707" cy="109" r="2" />
<circle cx="710" cy="218" r="2" />
<circle cx="713" cy="226" r="2" />
<circle cx="716" cy="113" r="2" />
<circle cx="719" cy="127" r="2" />
<circle cx="722" cy="254" r="2" />
<circle cx="725" cy="262" r="2" />
<circle cx="728" cy="131" r="2" />
<circle cx="731" cy="137" r="2" />
<circle cx="734" cy="274" r="2" />
<circle cx="737" cy="278" r="2" />
<circle cx="740" cy="139" r="2" />
<circle cx="743" cy="149" r="2" />
<circle cx="746" cy="298" r="2" />
</g>
</svg>