<svg xmlns="http://www.w3.org/2000/svg" width="161.8" height="100.0" viewBox="6.557 -5.000 171.803 110.000">
<g fill="none" stroke="black" stroke-width="0.0050%" transform="translate(0, 100.0000) scale(100.0000, -100.0000)">
<circle cx="0.116" cy="0.000" r="0.005" />
<line x1="0.116" y1="0.000" x2="0.116" y2="-0.000" />
<line x1="0.231" y1="0.000" x2="0.231" y2="0.004" />
<line x1="0.347" y1="0.000" x2="0.347" y2="0.031" />
<line x1="0.462" y1="0.000" x2="0.462" y2="0.125" />
<line x1="0.578" y1="0.000" x2="0.578" y2="0.326" />
<line x1="0.693" y1="0.000" x2="0.693" y2="0.616" />
<line x1="0.809" y1="0.000" x2="0.809" y2="0.888" />
<line x1="0.925" y1="0.000" x2="0.925" y2="1.000" />
<line x1="1.040" y1="0.000" x2="1.040" y2="0.888" />
<line x1="1.156" y1="0.000" x2="1.156" y2="0.616" />
<line x1="1.271" y1="0.000" x2="1.271" y2="0.326" />
<line x1="1.387" y1="0.000" x2="1.387" y2="0.125" />
<line x1="1.502" y1="0.000" x2="1.502" y2="0.031" />
<line x1="1.618" y1="0.000" x2="1.618" y2="0.004" />
<line x1="1.734" y1="0.000" x2="1.734" y2="-0.000" />
</g>
</svg>