<svg xmlns="http://www.w3.org/2000/svg" width="161.8" height="100.0" viewBox="-4 -5 172 110">
<g fill="none" stroke="black" stroke-width="5.9850%" transform="translate(0, 100.0000) scale(0.0835, -0.0835)">

<line x1="28" y1="0" x2="28" y2="112" />
<line x1="42" y1="0" x2="42" y2="121" />
<line x1="55" y1="0" x2="55" y2="123" />
<line x1="69" y1="0" x2="69" y2="132" />
<line x1="83" y1="0" x2="83" y2="134" />
<line x1="97" y1="0" x2="97" y2="143" />
<line x1="111" y1="0" x2="111" y2="145" />
<line x1="125" y1="0" x2="125" y2="154" />
<line x1="138" y1="0" x2="138" y2="156" />
<line x1="152" y1="0" x2="152" y2="165" />
<line x1="166" y1="0" x2="166" y2="167" />
<line x1="180" y1="0" x2="180" y2="176" />
<line x1="194" y1="0" x2="194" y2="178" />
<line x1="208" y1="0" x2="208" y2="187" />
<line x1="221" y1="0" x2="221" y2="189" />
<line x1="235" y1="0" x2="235" y2="198" />
<line x1="249" y1="0" x2="249" y2="211" />
<line x1="263" y1="0" x2="263" y2="213" />
<line x1="277" y1="0" x2="277" y2="224" />
<line x1="291" y1="0" x2="291" y2="231" />
<line x1="304" y1="0" x2="304" y2="235" />
<line x1="318" y1="0" x2="318" y2="242" />
<line x1="332" y1="0" x2="332" y2="246" />
<line x1="346" y1="0" x2="346" y2="253" />
<line x1="360" y1="0" x2="360" y2="257" />
<line x1="374" y1="0" x2="374" y2="264" />
<line x1="387" y1="0" x2="387" y2="268" />
<line x1="401" y1="0" x2="401" y2="275" />
<line x1="415" y1="0" x2="415" y2="279" />
<line x1="429" y1="0" x2="429" y2="286" />
<line x1="443" y1="0" x2="443" y2="297" />
<line x1="457" y1="0" x2="457" y2="312" />
<line x1="470" y1="0" x2="470" y2="314" />
<line x1="484" y1="0" x2="484" y2="321" />
<line x1="498" y1="0" x2="498" y2="325" />
<line x1="512" y1="0" x2="512" y2="336" />
<line x1="526" y1="0" x2="526" y2="341" />
<line x1="540" y1="0" x2="540" y2="347" />
<line x1="553" y1="0" x2="553" y2="352" />
<line x1="567" y1="0" x2="567" y2="358" />
<line x1="581" y1="0" x2="581" y2="363" />
<line x1="595" y1="0" x2="595" y2="369" />
<line x1="609" y1="0" x2="609" y2="374" />
<line x1="623" y1="0" x2="623" y2="385" />
<line x1="636" y1="0" x2="636" y2="396" />
<line x1="650" y1="0" x2="650" y2="413" />
<line x1="664" y1="0" x2="664" y2="415" />
<line x1="678" y1="0" x2="678" y2="422" />
<line x1="692" y1="0" x2="692" y2="426" />
<line x1="706" y1="0" x2="706" y2="431" />
<line x1="719" y1="0" x2="719" y2="437" />
<line x1="733" y1="0" x2="733" y2="448" />
<line x1="747" y1="0" x2="747" y2="451" />
<line x1="761" y1="0" x2="761" y2="459" />
<line x1="775" y1="0" x2="775" y2="462" />
<line x1="789" y1="0" x2="789" y2="473" />
<line x1="802" y1="0" x2="802" y2="484" />
<line x1="816" y1="0" x2="816" y2="495" />
<line x1="830" y1="0" x2="830" y2="514" />
<line x1="844" y1="0" x2="844" y2="516" />
<line x1="858" y1="0" x2="858" y2="523" />
<line x1="872" y1="0" x2="872" y2="527" />
<line x1="885" y1="0" x2="885" y2="532" />
<line x1="899" y1="0" x2="899" y2="538" />
<line x1="913" y1="0" x2="913" y2="541" />
<line x1="927" y1="0" x2="927" y2="549" />
<line x1="941" y1="0" x2="941" y2="561" />
<line x1="955" y1="0" x2="955" y2="572" />
<line x1="968" y1="0" x2="968" y2="583" />
<line x1="982" y1="0" x2="982" y2="594" />
<line x1="996" y1="0" x2="996" y2="615" />
<line x1="1010" y1="0" x2="1010" y2="617" />
<line x1="1024" y1="0" x2="1024" y2="624" />
<line x1="1038" y1="0" x2="1038" y2="628" />
<line x1="1051" y1="0" x2="1051" y2="633" />
<line x1="1065" y1="0" x2="1065" y2="639" />
<line x1="1079" y1="0" x2="1079" y2="642" />
<line x1="1093" y1="0" x2="1093" y2="651" />
<line x1="1107" y1="0" x2="1107" y2="671" />
<line x1="1121" y1="0" x2="1121" y2="682" />
<line x1="1134" y1="0" x2="1134" y2="693" />
<line x1="1148" y1="0" x2="1148" y2="716" />
<line x1="1162" y1="0" x2="1162" y2="718" />
<line x1="1176" y1="0" x2="1176" y2="725" />
<line x1="1190" y1="0" x2="1190" y2="729" />
<line x1="1204" y1="0" x2="1204" y2="734" />
<line x1="1217" y1="0" x2="1217" y2="743" />
<line x1="1231" y1="0" x2="1231" y2="752" />
<line x1="1245" y1="0" x2="1245" y2="761" />
<line x1="1259" y1="0" x2="1259" y2="781" />
<line x1="1273" y1="0" x2="1273" y2="792" />
<line x1="1287" y1="0" x2="1287" y2="817" />
<line x1="1300" y1="0" x2="1300" y2="819" />
<line x1="1314" y1="0" x2="1314" y2="826" />
<line x1="1328" y1="0" x2="1328" y2="835" />
<line x1="1342" y1="0" x2="1342" y2="844" />
<line x1="1356" y1="0" x2="1356" y2="853" />
<line x1="1370" y1="0" x2="1370" y2="862" />
<line x1="1383" y1="0" x2="1383" y2="871" />
<line x1="1397" y1="0" x2="1397" y2="891" />
<line x1="1411" y1="0" x2="1411" y2="918" />
<line x1="1425" y1="0" x2="1425" y2="927" />
<line x1="1439" y1="0" x2="1439" y2="936" />
<line x1="1453" y1="0" x2="1453" y2="945" />
<line x1="1466" y1="0" x2="1466" y2="954" />
<line x1="1480" y1="0" x2="1480" y2="963" />
<line x1="1494" y1="0" x2="1494" y2="972" />
<line x1="1508" y1="0" x2="1508" y2="981" />
<line x1="1522" y1="0" x2="1522" y2="1012" />
<line x1="1536" y1="0" x2="1536" y2="1021" />
<line x1="1549" y1="0" x2="1549" y2="1023" />
<line x1="1563" y1="0" x2="1563" y2="1032" />
<line x1="1577" y1="0" x2="1577" y2="1034" />
<line x1="1591" y1="0" x2="1591" y2="1043" />
<line x1="1605" y1="0" x2="1605" y2="1045" />
<line x1="1619" y1="0" x2="1619" y2="1054" />
<line x1="1632" y1="0" x2="1632" y2="1056" />
<line x1="1646" y1="0" x2="1646" y2="1065" />
<line x1="1660" y1="0" x2="1660" y2="1067" />
<line x1="1674" y1="0" x2="1674" y2="1076" />
<line x1="1688" y1="0" x2="1688" y2="1078" />
<line x1="1702" y1="0" x2="1702" y2="1087" />
<line x1="1715" y1="0" x2="1715" y2="1089" />
<line x1="1729" y1="0" x2="1729" y2="1098" />
<line x1="1743" y1="0" x2="1743" y2="1102" />
<line x1="1757" y1="0" x2="1757" y2="1113" />
<line x1="1771" y1="0" x2="1771" y2="1120" />
<line x1="1785" y1="0" x2="1785" y2="1124" />
<line x1="1798" y1="0" x2="1798" y2="1131" />
<line x1="1812" y1="0" x2="1812" y2="1135" />
<line x1="1826" y1="0" x2="1826" y2="1142" />
<line x1="1840" y1="0" x2="1840" y2="1146" />
<line x1="1854" y1="0" x2="1854" y2="1153" />
<line x1="1868" y1="0" x2="1868" y2="1157" />
<line x1="1881" y1="0" x2="1881" y2="1164" />
<line x1="1895" y1="0" x2="1895" y2="1168" />
<line x1="1909" y1="0" x2="1909" y2="1175" />
<line x1="1923" y1="0" x2="1923" y2="1179" />
<line x1="1937" y1="0" x2="1937" y2="1186" />
<line x1="1951" y1="0" x2="1951" y2="1197" />
</g>
</svg>