<svg xmlns="http://www.w3.org/2000/svg" width="161.8" height="100.0" viewBox="-3.35 17.19 171.80 110.00">
<g fill="none" stroke="black" stroke-width="0.0290%" transform="translate(0, 144.3801) scale(17.2671, -17.2671)">
<circle cx="0.10" cy="6.55" r="0.03" />
<circle cx="0.19" cy="5.32" r="0.03" />
<circle cx="0.29" cy="6.81" r="0.03" />
<circle cx="0.38" cy="6.01" r="0.03" />
<circle cx="0.48" cy="7.01" r="0.03" />
<circle cx="0.57" cy="6.42" r="0.03" />
<circle cx="0.67" cy="4.73" r="0.03" />
<circle cx="0.76" cy="6.70" r="0.03" />
<circle cx="0.86" cy="5.76" r="0.03" />
<circle cx="0.96" cy="6.93" r="0.03" />
<circle cx="1.05" cy="6.26" r="0.03" />
<circle cx="1.15" cy="3.16" r="0.03" />
<circle cx="1.24" cy="6.59" r="0.03" />
<circle cx="1.34" cy="5.43" r="0.03" />
<circle cx="1.43" cy="6.83" r="0.03" />
<circle cx="1.53" cy="6.07" r="0.03" />
<circle cx="1.63" cy="7.03" r="0.03" />
<circle cx="1.72" cy="6.45" r="0.03" />
<circle cx="1.82" cy="4.92" r="0.03" />
<circle cx="1.91" cy="6.73" r="0.03" />
<circle cx="2.01" cy="5.83" r="0.03" />
<circle cx="2.10" cy="6.95" r="0.03" />
<circle cx="2.20" cy="6.30" r="0.03" />
<circle cx="2.29" cy="3.85" r="0.03" />
<circle cx="2.39" cy="6.62" r="0.03" />
<circle cx="2.49" cy="5.52" r="0.03" />
<circle cx="2.58" cy="6.86" r="0.03" />
<circle cx="2.68" cy="6.12" r="0.03" />
<circle cx="2.77" cy="7.05" r="0.03" />
<circle cx="2.87" cy="6.49" r="0.03" />
<circle cx="2.96" cy="5.08" r="0.03" />
<circle cx="3.06" cy="6.76" r="0.03" />
<circle cx="3.16" cy="5.90" r="0.03" />
<circle cx="3.25" cy="6.97" r="0.03" />
<circle cx="3.35" cy="6.34" r="0.03" />
<circle cx="3.44" cy="4.25" r="0.03" />
<circle cx="3.54" cy="6.65" r="0.03" />
<circle cx="3.63" cy="5.61" r="0.03" />
<circle cx="3.73" cy="6.88" r="0.03" />
<circle cx="3.82" cy="6.17" r="0.03" />
<circle cx="3.92" cy="7.07" r="0.03" />
<circle cx="4.02" cy="6.53" r="0.03" />
<circle cx="4.11" cy="5.22" r="0.03" />
<circle cx="4.21" cy="6.79" r="0.03" />
<circle cx="4.30" cy="5.96" r="0.03" />
<circle cx="4.40" cy="6.99" r="0.03" />
<circle cx="4.49" cy="6.38" r="0.03" />
<circle cx="4.59" cy="4.54" r="0.03" />
<circle cx="4.69" cy="6.68" r="0.03" />
<circle cx="4.78" cy="5.70" r="0.03" />
<circle cx="4.88" cy="6.91" r="0.03" />
<circle cx="4.97" cy="6.22" r="0.03" />
<circle cx="5.07" cy="1.29" r="0.03" />
<circle cx="5.16" cy="6.56" r="0.03" />
<circle cx="5.26" cy="5.34" r="0.03" />
<circle cx="5.35" cy="6.81" r="0.03" />
<circle cx="5.45" cy="6.02" r="0.03" />
<circle cx="5.55" cy="7.02" r="0.03" />
<circle cx="5.64" cy="6.42" r="0.03" />
<circle cx="5.74" cy="4.76" r="0.03" />
<circle cx="5.83" cy="6.71" r="0.03" />
<circle cx="5.93" cy="5.77" r="0.03" />
<circle cx="6.02" cy="6.93" r="0.03" />
<circle cx="6.12" cy="6.26" r="0.03" />
<circle cx="6.22" cy="3.30" r="0.03" />
<circle cx="6.31" cy="6.59" r="0.03" />
<circle cx="6.41" cy="5.44" r="0.03" />
<circle cx="6.50" cy="6.84" r="0.03" />
<circle cx="6.60" cy="6.08" r="0.03" />
<circle cx="6.69" cy="7.04" r="0.03" />
<circle cx="6.79" cy="6.46" r="0.03" />
<circle cx="6.88" cy="4.95" r="0.03" />
<circle cx="6.98" cy="6.74" r="0.03" />
<circle cx="7.08" cy="5.84" r="0.03" />
<circle cx="7.17" cy="6.95" r="0.03" />
<circle cx="7.27" cy="6.31" r="0.03" />
<circle cx="7.36" cy="3.92" r="0.03" />
<circle cx="7.46" cy="6.62" r="0.03" />
<circle cx="7.55" cy="5.54" r="0.03" />
<circle cx="7.65" cy="6.86" r="0.03" />
<circle cx="7.75" cy="6.13" r="0.03" />
<circle cx="7.84" cy="7.06" r="0.03" />
<circle cx="7.94" cy="6.50" r="0.03" />
<circle cx="8.03" cy="5.10" r="0.03" />
<circle cx="8.13" cy="6.76" r="0.03" />
<circle cx="8.22" cy="5.91" r="0.03" />
<circle cx="8.32" cy="6.98" r="0.03" />
<circle cx="8.41" cy="6.35" r="0.03" />
<circle cx="8.51" cy="4.30" r="0.03" />
<circle cx="8.61" cy="6.65" r="0.03" />
<circle cx="8.70" cy="5.63" r="0.03" />
<circle cx="8.80" cy="6.89" r="0.03" />
<circle cx="8.89" cy="6.18" r="0.03" />
<circle cx="8.99" cy="7.08" r="0.03" />
<circle cx="9.08" cy="6.53" r="0.03" />
<circle cx="9.18" cy="5.23" r="0.03" />
<circle cx="9.27" cy="6.79" r="0.03" />
<circle cx="9.37" cy="5.97" r="0.03" />
<circle cx="9.47" cy="7.00" r="0.03" />
</g>
</svg>