<svg xmlns="http://www.w3.org/2000/svg" width="161.8" height="100.0" viewBox="-3.349 97.333 171.803 110.000">
<g fill="none" stroke="black" stroke-width="0.0049%" transform="translate(0, 304.6653) scale(102.1192, -102.1192)">
<circle cx="0.016" cy="1.500" r="0.005" />
<circle cx="0.032" cy="1.125" r="0.005" />
<circle cx="0.049" cy="1.688" r="0.005" />
<circle cx="0.065" cy="1.266" r="0.005" />
<circle cx="0.081" cy="1.898" r="0.005" />
<circle cx="0.097" cy="1.424" r="0.005" />
<circle cx="0.113" cy="1.068" r="0.005" />
<circle cx="0.129" cy="1.602" r="0.005" />
<circle cx="0.146" cy="1.201" r="0.005" />
<circle cx="0.162" cy="1.802" r="0.005" />
<circle cx="0.178" cy="1.352" r="0.005" />
<circle cx="0.194" cy="1.014" r="0.005" />
<circle cx="0.210" cy="1.520" r="0.005" />
<circle cx="0.226" cy="1.140" r="0.005" />
<circle cx="0.243" cy="1.711" r="0.005" />
<circle cx="0.259" cy="1.283" r="0.005" />
<circle cx="0.275" cy="1.924" r="0.005" />
<circle cx="0.291" cy="1.443" r="0.005" />
<circle cx="0.307" cy="1.082" r="0.005" />
<circle cx="0.323" cy="1.624" r="0.005" />
<circle cx="0.340" cy="1.218" r="0.005" />
<circle cx="0.356" cy="1.827" r="0.005" />
<circle cx="0.372" cy="1.370" r="0.005" />
<circle cx="0.388" cy="1.027" r="0.005" />
<circle cx="0.404" cy="1.541" r="0.005" />
<circle cx="0.420" cy="1.156" r="0.005" />
<circle cx="0.437" cy="1.734" r="0.005" />
<circle cx="0.453" cy="1.300" r="0.005" />
<circle cx="0.469" cy="1.951" r="0.005" />
<circle cx="0.485" cy="1.463" r="0.005" />
<circle cx="0.501" cy="1.097" r="0.005" />
<circle cx="0.517" cy="1.646" r="0.005" />
<circle cx="0.534" cy="1.234" r="0.005" />
<circle cx="0.550" cy="1.852" r="0.005" />
<circle cx="0.566" cy="1.389" r="0.005" />
<circle cx="0.582" cy="1.041" r="0.005" />
<circle cx="0.598" cy="1.562" r="0.005" />
<circle cx="0.614" cy="1.172" r="0.005" />
<circle cx="0.631" cy="1.758" r="0.005" />
<circle cx="0.647" cy="1.318" r="0.005" />
<circle cx="0.663" cy="1.977" r="0.005" />
<circle cx="0.679" cy="1.483" r="0.005" />
<circle cx="0.695" cy="1.112" r="0.005" />
<circle cx="0.711" cy="1.668" r="0.005" />
<circle cx="0.728" cy="1.251" r="0.005" />
<circle cx="0.744" cy="1.877" r="0.005" />
<circle cx="0.760" cy="1.408" r="0.005" />
<circle cx="0.776" cy="1.056" r="0.005" />
<circle cx="0.792" cy="1.584" r="0.005" />
<circle cx="0.808" cy="1.188" r="0.005" />
<circle cx="0.825" cy="1.781" r="0.005" />
<circle cx="0.841" cy="1.336" r="0.005" />
<circle cx="0.857" cy="1.002" r="0.005" />
<circle cx="0.873" cy="1.503" r="0.005" />
<circle cx="0.889" cy="1.127" r="0.005" />
<circle cx="0.905" cy="1.691" r="0.005" />
<circle cx="0.922" cy="1.268" r="0.005" />
<circle cx="0.938" cy="1.902" r="0.005" />
<circle cx="0.954" cy="1.427" r="0.005" />
<circle cx="0.970" cy="1.070" r="0.005" />
<circle cx="0.986" cy="1.605" r="0.005" />
<circle cx="1.002" cy="1.204" r="0.005" />
<circle cx="1.019" cy="1.806" r="0.005" />
<circle cx="1.035" cy="1.354" r="0.005" />
<circle cx="1.051" cy="1.016" r="0.005" />
<circle cx="1.067" cy="1.524" r="0.005" />
<circle cx="1.083" cy="1.143" r="0.005" />
<circle cx="1.099" cy="1.714" r="0.005" />
<circle cx="1.116" cy="1.286" r="0.005" />
<circle cx="1.132" cy="1.928" r="0.005" />
<circle cx="1.148" cy="1.446" r="0.005" />
<circle cx="1.164" cy="1.085" r="0.005" />
<circle cx="1.180" cy="1.627" r="0.005" />
<circle cx="1.196" cy="1.220" r="0.005" />
<circle cx="1.213" cy="1.830" r="0.005" />
<circle cx="1.229" cy="1.373" r="0.005" />
<circle cx="1.245" cy="1.030" r="0.005" />
<circle cx="1.261" cy="1.544" r="0.005" />
<circle cx="1.277" cy="1.158" r="0.005" />
<circle cx="1.293" cy="1.737" r="0.005" />
<circle cx="1.310" cy="1.303" r="0.005" />
<circle cx="1.326" cy="1.955" r="0.005" />
<circle cx="1.342" cy="1.466" r="0.005" />
<circle cx="1.358" cy="1.100" r="0.005" />
<circle cx="1.374" cy="1.649" r="0.005" />
<circle cx="1.390" cy="1.237" r="0.005" />
<circle cx="1.407" cy="1.855" r="0.005" />
<circle cx="1.423" cy="1.392" r="0.005" />
<circle cx="1.439" cy="1.044" r="0.005" />
<circle cx="1.455" cy="1.566" r="0.005" />
<circle cx="1.471" cy="1.174" r="0.005" />
<circle cx="1.487" cy="1.761" r="0.005" />
<circle cx="1.504" cy="1.321" r="0.005" />
<circle cx="1.520" cy="1.981" r="0.005" />
<circle cx="1.536" cy="1.486" r="0.005" />
<circle cx="1.552" cy="1.115" r="0.005" />
<circle cx="1.568" cy="1.672" r="0.005" />
<circle cx="1.584" cy="1.254" r="0.005" />
<circle cx="1.601" cy="1.881" r="0.005" />
</g>
</svg>