<svg xmlns="http://www.w3.org/2000/svg" width="161.8" height="100.0" viewBox="-4.2 -4.1 171.8 110.0">
<g fill="none" stroke="black" stroke-width="0.5550%" transform="translate(0, 101.8018) scale(0.9009, -0.9009)">
<circle cx="0.9" cy="1.0" r="0.6" />
<circle cx="1.8" cy="1.0" r="0.6" />
<circle cx="2.7" cy="2.0" r="0.6" />
<circle cx="3.6" cy="1.0" r="0.6" />
<circle cx="4.5" cy="3.0" r="0.6" />
<circle cx="5.4" cy="4.0" r="0.6" />
<circle cx="6.3" cy="2.0" r="0.6" />
<circle cx="7.2" cy="1.0" r="0.6" />
<circle cx="8.1" cy="5.0" r="0.6" />
<circle cx="9.0" cy="6.0" r="0.6" />
<circle cx="9.9" cy="7.0" r="0.6" />
<circle cx="10.8" cy="3.0" r="0.6" />
<circle cx="11.7" cy="8.0" r="0.6" />
<circle cx="12.6" cy="4.0" r="0.6" />
<circle cx="13.5" cy="2.0" r="0.6" />
<circle cx="14.4" cy="1.0" r="0.6" />
<circle cx="15.3" cy="9.0" r="0.6" />
<circle cx="16.2" cy="10.0" r="0.6" />
<circle cx="17.1" cy="11.0" r="0.6" />
<circle cx="18.1" cy="12.0" r="0.6" />
<circle cx="19.0" cy="5.0" r="0.6" />
<circle cx="19.9" cy="13.0" r="0.6" />
<circle cx="20.8" cy="14.0" r="0.6" />
<circle cx="21.7" cy="6.0" r="0.6" />
<circle cx="22.6" cy="15.0" r="0.6" />
<circle cx="23.5" cy="7.0" r="0.6" />
<circle cx="24.4" cy="3.0" r="0.6" />
<circle cx="25.3" cy="16.0" r="0.6" />
<circle cx="26.2" cy="8.0" r="0.6" />
<circle cx="27.1" cy="4.0" r="0.6" />
<circle cx="28.0" cy="2.0" r="0.6" />
<circle cx="28.9" cy="1.0" r="0.6" />
<circle cx="29.8" cy="17.0" r="0.6" />
<circle cx="30.7" cy="18.0" r="0.6" />
<circle cx="31.6" cy="19.0" r="0.6" />
<circle cx="32.5" cy="20.0" r="0.6" />
<circle cx="33.4" cy="21.0" r="0.6" />
<circle cx="34.3" cy="9.0" r="0.6" />
<circle cx="35.2" cy="22.0" r="0.6" />
<circle cx="36.1" cy="23.0" r="0.6" />
<circle cx="37.0" cy="24.0" r="0.6" />
<circle cx="37.9" cy="10.0" r="0.6" />
<circle cx="38.8" cy="25.0" r="0.6" />
<circle cx="39.7" cy="26.0" r="0.6" />
<circle cx="40.6" cy="11.0" r="0.6" />
<circle cx="41.5" cy="27.0" r="0.6" />
<circle cx="42.4" cy="12.0" r="0.6" />
<circle cx="43.3" cy="5.0" r="0.6" />
<circle cx="44.2" cy="28.0" r="0.6" />
<circle cx="45.1" cy="29.0" r="0.6" />
<circle cx="46.0" cy="13.0" r="0.6" />
<circle cx="46.9" cy="30.0" r="0.6" />
<circle cx="47.8" cy="14.0" r="0.6" />
<circle cx="48.7" cy="6.0" r="0.6" />
<circle cx="49.6" cy="31.0" r="0.6" />
<circle cx="50.5" cy="15.0" r="0.6" />
<circle cx="51.4" cy="7.0" r="0.6" />
<circle cx="52.3" cy="3.0" r="0.6" />
<circle cx="53.2" cy="32.0" r="0.6" />
<circle cx="54.2" cy="16.0" r="0.6" />
<circle cx="55.1" cy="8.0" r="0.6" />
<circle cx="56.0" cy="4.0" r="0.6" />
<circle cx="56.9" cy="2.0" r="0.6" />
<circle cx="57.8" cy="1.0" r="0.6" />
<circle cx="58.7" cy="33.0" r="0.6" />
<circle cx="59.6" cy="34.0" r="0.6" />
<circle cx="60.5" cy="35.0" r="0.6" />
<circle cx="61.4" cy="36.0" r="0.6" />
<circle cx="62.3" cy="37.0" r="0.6" />
<circle cx="63.2" cy="38.0" r="0.6" />
<circle cx="64.1" cy="17.0" r="0.6" />
<circle cx="65.0" cy="39.0" r="0.6" />
<circle cx="65.9" cy="40.0" r="0.6" />
<circle cx="66.8" cy="41.0" r="0.6" />
<circle cx="67.7" cy="42.0" r="0.6" />
<circle cx="68.6" cy="18.0" r="0.6" />
<circle cx="69.5" cy="43.0" r="0.6" />
<circle cx="70.4" cy="44.0" r="0.6" />
<circle cx="71.3" cy="45.0" r="0.6" />
<circle cx="72.2" cy="19.0" r="0.6" />
<circle cx="73.1" cy="46.0" r="0.6" />
<circle cx="74.0" cy="47.0" r="0.6" />
<circle cx="74.9" cy="20.0" r="0.6" />
<circle cx="75.8" cy="48.0" r="0.6" />
<circle cx="76.7" cy="21.0" r="0.6" />
<circle cx="77.6" cy="9.0" r="0.6" />
<circle cx="78.5" cy="49.0" r="0.6" />
<circle cx="79.4" cy="50.0" r="0.6" />
<circle cx="80.3" cy="51.0" r="0.6" />
<circle cx="81.2" cy="22.0" r="0.6" />
<circle cx="82.1" cy="52.0" r="0.6" />
<circle cx="83.0" cy="53.0" r="0.6" />
<circle cx="83.9" cy="23.0" r="0.6" />
<circle cx="84.8" cy="54.0" r="0.6" />
<circle cx="85.7" cy="24.0" r="0.6" />
<circle cx="86.6" cy="10.0" r="0.6" />
<circle cx="87.5" cy="55.0" r="0.6" />
<circle cx="88.4" cy="56.0" r="0.6" />
<circle cx="89.3" cy="25.0" r="0.6" />
<circle cx="90.3" cy="57.0" r="0.6" />
<circle cx="91.2" cy="26.0" r="0.6" />
<circle cx="92.1" cy="11.0" r="0.6" />
<circle cx="93.0" cy="58.0" r="0.6" />
<circle cx="93.9" cy="27.0" r="0.6" />
<circle cx="94.8" cy="12.0" r="0.6" />
<circle cx="95.7" cy="5.0" r="0.6" />
<circle cx="96.6" cy="59.0" r="0.6" />
<circle cx="97.5" cy="60.0" r="0.6" />
<circle cx="98.4" cy="28.0" r="0.6" />
<circle cx="99.3" cy="61.0" r="0.6" />
<circle cx="100.2" cy="29.0" r="0.6" />
<circle cx="101.1" cy="13.0" r="0.6" />
<circle cx="102.0" cy="62.0" r="0.6" />
<circle cx="102.9" cy="30.0" r="0.6" />
<circle cx="103.8" cy="14.0" r="0.6" />
<circle cx="104.7" cy="6.0" r="0.6" />
<circle cx="105.6" cy="63.0" r="0.6" />
<circle cx="106.5" cy="31.0" r="0.6" />
<circle cx="107.4" cy="15.0" r="0.6" />
<circle cx="108.3" cy="7.0" r="0.6" />
<circle cx="109.2" cy="3.0" r="0.6" />
<circle cx="110.1" cy="64.0" r="0.6" />
<circle cx="111.0" cy="32.0" r="0.6" />
<circle cx="111.9" cy="16.0" r="0.6" />
<circle cx="112.8" cy="8.0" r="0.6" />
<circle cx="113.7" cy="4.0" r="0.6" />
<circle cx="114.6" cy="2.0" r="0.6" />
<circle cx="115.5" cy="1.0" r="0.6" />
<circle cx="116.4" cy="65.0" r="0.6" />
<circle cx="117.3" cy="66.0" r="0.6" />
<circle cx="118.2" cy="67.0" r="0.6" />
<circle cx="119.1" cy="68.0" r="0.6" />
<circle cx="120.0" cy="69.0" r="0.6" />
<circle cx="120.9" cy="70.0" r="0.6" />
<circle cx="121.8" cy="71.0" r="0.6" />
<circle cx="122.7" cy="33.0" r="0.6" />
<circle cx="123.6" cy="72.0" r="0.6" />
<circle cx="124.5" cy="73.0" r="0.6" />
<circle cx="125.5" cy="74.0" r="0.6" />
<circle cx="126.4" cy="75.0" r="0.6" />
<circle cx="127.3" cy="76.0" r="0.6" />
<circle cx="128.2" cy="34.0" r="0.6" />
<circle cx="129.1" cy="77.0" r="0.6" />
<circle cx="130.0" cy="78.0" r="0.6" />
<circle cx="130.9" cy="79.0" r="0.6" />
<circle cx="131.8" cy="80.0" r="0.6" />
<circle cx="132.7" cy="35.0" r="0.6" />
<circle cx="133.6" cy="81.0" r="0.6" />
<circle cx="134.5" cy="82.0" r="0.6" />
<circle cx="135.4" cy="83.0" r="0.6" />
<circle cx="136.3" cy="36.0" r="0.6" />
<circle cx="137.2" cy="84.0" r="0.6" />
<circle cx="138.1" cy="85.0" r="0.6" />
<circle cx="139.0" cy="37.0" r="0.6" />
<circle cx="139.9" cy="86.0" r="0.6" />
<circle cx="140.8" cy="38.0" r="0.6" />
<circle cx="141.7" cy="17.0" r="0.6" />
<circle cx="142.6" cy="87.0" r="0.6" />
<circle cx="143.5" cy="88.0" r="0.6" />
<circle cx="144.4" cy="89.0" r="0.6" />
<circle cx="145.3" cy="90.0" r="0.6" />
<circle cx="146.2" cy="39.0" r="0.6" />
<circle cx="147.1" cy="91.0" r="0.6" />
<circle cx="148.0" cy="92.0" r="0.6" />
<circle cx="148.9" cy="93.0" r="0.6" />
<circle cx="149.8" cy="40.0" r="0.6" />
<circle cx="150.7" cy="94.0" r="0.6" />
<circle cx="151.6" cy="95.0" r="0.6" />
<circle cx="152.5" cy="41.0" r="0.6" />
<circle cx="153.4" cy="96.0" r="0.6" />
<circle cx="154.3" cy="42.0" r="0.6" />
<circle cx="155.2" cy="18.0" r="0.6" />
<circle cx="156.1" cy="97.0" r="0.6" />
<circle cx="157.0" cy="98.0" r="0.6" />
<circle cx="157.9" cy="99.0" r="0.6" />
<circle cx="158.8" cy="43.0" r="0.6" />
<circle cx="159.7" cy="100.0" r="0.6" />
<circle cx="160.6" cy="101.0" r="0.6" />
<circle cx="161.6" cy="44.0" r="0.6" />
<circle cx="162.5" cy="102.0" r="0.6" />
<circle cx="163.4" cy="45.0" r="0.6" />
<circle cx="164.3" cy="19.0" r="0.6" />
<circle cx="165.2" cy="103.0" r="0.6" />
<circle cx="166.1" cy="104.0" r="0.6" />
<circle cx="167.0" cy="46.0" r="0.6" />
<circle cx="167.9" cy="105.0" r="0.6" />
<circle cx="168.8" cy="47.0" r="0.6" />
<circle cx="169.7" cy="20.0" r="0.6" />
<circle cx="170.6" cy="106.0" r="0.6" />
<circle cx="171.5" cy="48.0" r="0.6" />
<circle cx="172.4" cy="21.0" r="0.6" />
<circle cx="173.3" cy="9.0" r="0.6" />
<circle cx="174.2" cy="107.0" r="0.6" />
<circle cx="175.1" cy="108.0" r="0.6" />
<circle cx="176.0" cy="109.0" r="0.6" />
<circle cx="176.9" cy="49.0" r="0.6" />
<circle cx="177.8" cy="110.0" r="0.6" />
<circle cx="178.7" cy="111.0" r="0.6" />
<circle cx="179.6" cy="50.0" r="0.6" />
<circle cx="180.5" cy="112.0" r="0.6" />
</g>
</svg>