<svg xmlns="http://www.w3.org/2000/svg" width="161.8" height="100.0" viewBox="-3 -16 172 110">
<g fill="none" stroke="black" stroke-width="3.3900%" transform="translate(0, 77.2861) scale(0.1475, -0.1475)">
<line x1="13" y1="0" x2="13" y2="-1" />
<line x1="26" y1="0" x2="26" y2="-1" />
<line x1="39" y1="0" x2="39" y2="-1" />
<line x1="52" y1="0" x2="52" y2="1" />
<line x1="65" y1="0" x2="65" y2="-3" />
<line x1="78" y1="0" x2="78" y2="3" />
<line x1="91" y1="0" x2="91" y2="-3" />
<line x1="104" y1="0" x2="104" y2="11" />
<line x1="118" y1="0" x2="118" y2="7" />
<line x1="131" y1="0" x2="131" y2="1" />
<line x1="144" y1="0" x2="144" y2="-9" />
<line x1="157" y1="0" x2="157" y2="21" />
<line x1="170" y1="0" x2="170" y2="-9" />
<line x1="183" y1="0" x2="183" y2="5" />
<line x1="196" y1="0" x2="196" y2="5" />
<line x1="209" y1="0" x2="209" y2="49" />
<line x1="222" y1="0" x2="222" y2="-15" />
<line x1="235" y1="0" x2="235" y2="39" />
<line x1="248" y1="0" x2="248" y2="-15" />
<line x1="261" y1="0" x2="261" y2="23" />
<line x1="274" y1="0" x2="274" y2="13" />
<line x1="287" y1="0" x2="287" y2="-5" />
<line x1="300" y1="0" x2="300" y2="-17" />
<line x1="313" y1="0" x2="313" y2="87" />
<line x1="326" y1="0" x2="326" y2="-1" />
<line x1="340" y1="0" x2="340" y2="-1" />
<line x1="353" y1="0" x2="353" y2="71" />
<line x1="366" y1="0" x2="366" y2="43" />
<line x1="379" y1="0" x2="379" y2="-27" />
<line x1="392" y1="0" x2="392" y2="45" />
<line x1="405" y1="0" x2="405" y2="-25" />
<line x1="418" y1="0" x2="418" y2="179" />
<line x1="431" y1="0" x2="431" y2="-1" />
<line x1="444" y1="0" x2="444" y2="-11" />
<line x1="457" y1="0" x2="457" y2="7" />
<line x1="470" y1="0" x2="470" y2="153" />
<line x1="483" y1="0" x2="483" y2="-33" />
<line x1="496" y1="0" x2="496" y2="-7" />
<line x1="509" y1="0" x2="509" y2="7" />
<line x1="522" y1="0" x2="522" y2="109" />
<line x1="535" y1="0" x2="535" y2="-39" />
<line x1="549" y1="0" x2="549" y2="81" />
<line x1="562" y1="0" x2="562" y2="-39" />
<line x1="575" y1="0" x2="575" y2="29" />
<line x1="588" y1="0" x2="588" y2="85" />
<line x1="601" y1="0" x2="601" y2="-5" />
<line x1="614" y1="0" x2="614" y2="-41" />
<line x1="627" y1="0" x2="627" y2="309" />
<line x1="640" y1="0" x2="640" y2="23" />
<line x1="653" y1="0" x2="653" y2="47" />
<line x1="666" y1="0" x2="666" y2="-7" />
<line x1="679" y1="0" x2="679" y2="49" />
<line x1="692" y1="0" x2="692" y2="-47" />
<line x1="705" y1="0" x2="705" y2="267" />
<line x1="718" y1="0" x2="718" y2="-19" />
<line x1="731" y1="0" x2="731" y2="185" />
<line x1="744" y1="0" x2="744" y2="1" />
<line x1="757" y1="0" x2="757" y2="-23" />
<line x1="771" y1="0" x2="771" y2="-57" />
<line x1="784" y1="0" x2="784" y2="195" />
<line x1="797" y1="0" x2="797" y2="-55" />
<line x1="810" y1="0" x2="810" y2="-13" />
<line x1="823" y1="0" x2="823" y2="149" />
<line x1="836" y1="0" x2="836" y2="601" />
<line x1="849" y1="0" x2="849" y2="-11" />
<line x1="862" y1="0" x2="862" y2="63" />
<line x1="875" y1="0" x2="875" y2="-63" />
<line x1="888" y1="0" x2="888" y2="35" />
<line x1="901" y1="0" x2="901" y2="7" />
<line x1="914" y1="0" x2="914" y2="91" />
<line x1="927" y1="0" x2="927" y2="-69" />
<line x1="940" y1="0" x2="940" y2="531" />
<line x1="953" y1="0" x2="953" y2="-67" />
<line x1="966" y1="0" x2="966" y2="-25" />
<line x1="979" y1="0" x2="979" y2="95" />
<line x1="993" y1="0" x2="993" y2="55" />
<line x1="1006" y1="0" x2="1006" y2="-11" />
<line x1="1019" y1="0" x2="1019" y2="99" />
<line x1="1032" y1="0" x2="1032" y2="-75" />
<line x1="1045" y1="0" x2="1045" y2="407" />
<line x1="1058" y1="0" x2="1058" y2="463" />
<line x1="1071" y1="0" x2="1071" y2="-35" />
<line x1="1084" y1="0" x2="1084" y2="-77" />
<line x1="1097" y1="0" x2="1097" y2="327" />
<line x1="1110" y1="0" x2="1110" y2="-37" />
</g>
</svg>