<svg xmlns="http://www.w3.org/2000/svg" width="161.8" height="100.0" viewBox="-2.00 -1.43 171.80 110.00">
<g fill="none" stroke="black" stroke-width="0.1400%" transform="translate(0, 107.1429) scale(3.5714, -3.5714)">
<circle cx="0.84" cy="1.00" r="0.14" />
<circle cx="1.68" cy="2.00" r="0.14" />
<circle cx="2.52" cy="3.00" r="0.14" />
<circle cx="3.36" cy="2.00" r="0.14" />
<circle cx="4.19" cy="4.00" r="0.14" />
<circle cx="5.03" cy="5.00" r="0.14" />
<circle cx="5.87" cy="4.00" r="0.14" />
<circle cx="6.71" cy="6.00" r="0.14" />
<circle cx="7.55" cy="8.00" r="0.14" />
<circle cx="8.39" cy="9.00" r="0.14" />
<circle cx="9.23" cy="2.00" r="0.14" />
<circle cx="10.07" cy="6.00" r="0.14" />
<circle cx="10.91" cy="8.00" r="0.14" />
<circle cx="11.75" cy="10.00" r="0.14" />
<circle cx="12.58" cy="11.00" r="0.14" />
<circle cx="13.42" cy="4.00" r="0.14" />
<circle cx="14.26" cy="6.00" r="0.14" />
<circle cx="15.10" cy="10.00" r="0.14" />
<circle cx="15.94" cy="12.00" r="0.14" />
<circle cx="16.78" cy="14.00" r="0.14" />
<circle cx="17.62" cy="15.00" r="0.14" />
<circle cx="18.46" cy="2.00" r="0.14" />
<circle cx="19.30" cy="6.00" r="0.14" />
<circle cx="20.14" cy="8.00" r="0.14" />
<circle cx="20.97" cy="12.00" r="0.14" />
<circle cx="21.81" cy="14.00" r="0.14" />
<circle cx="22.65" cy="16.00" r="0.14" />
<circle cx="23.49" cy="17.00" r="0.14" />
<circle cx="24.33" cy="4.00" r="0.14" />
<circle cx="25.17" cy="6.00" r="0.14" />
<circle cx="26.01" cy="10.00" r="0.14" />
<circle cx="26.85" cy="12.00" r="0.14" />
<circle cx="27.69" cy="16.00" r="0.14" />
<circle cx="28.53" cy="18.00" r="0.14" />
<circle cx="29.36" cy="20.00" r="0.14" />
<circle cx="30.20" cy="21.00" r="0.14" />
<circle cx="31.04" cy="6.00" r="0.14" />
<circle cx="31.88" cy="10.00" r="0.14" />
<circle cx="32.72" cy="12.00" r="0.14" />
<circle cx="33.56" cy="16.00" r="0.14" />
<circle cx="34.40" cy="18.00" r="0.14" />
<circle cx="35.24" cy="22.00" r="0.14" />
<circle cx="36.08" cy="24.00" r="0.14" />
<circle cx="36.92" cy="26.00" r="0.14" />
<circle cx="37.75" cy="27.00" r="0.14" />
<circle cx="38.59" cy="2.00" r="0.14" />
<circle cx="39.43" cy="8.00" r="0.14" />
<circle cx="40.27" cy="12.00" r="0.14" />
<circle cx="41.11" cy="14.00" r="0.14" />
<circle cx="41.95" cy="18.00" r="0.14" />
<circle cx="42.79" cy="20.00" r="0.14" />
<circle cx="43.63" cy="24.00" r="0.14" />
<circle cx="44.47" cy="26.00" r="0.14" />
<circle cx="45.30" cy="28.00" r="0.14" />
<circle cx="46.14" cy="29.00" r="0.14" />
</g>
</svg>