<svg xmlns="http://www.w3.org/2000/svg" width="161.8" height="100.0" viewBox="-3.4 -2.2 171.8 110.0">
<g fill="none" stroke="black" stroke-width="0.1800%" transform="translate(0, 105.5556) scale(2.7778, -2.7778)">
<circle cx="0.6" cy="1.0" r="0.2" />
<circle cx="1.1" cy="1.0" r="0.2" />
<circle cx="1.7" cy="1.0" r="0.2" />
<circle cx="2.2" cy="2.0" r="0.2" />
<circle cx="2.8" cy="1.0" r="0.2" />
<circle cx="3.4" cy="3.0" r="0.2" />
<circle cx="3.9" cy="2.0" r="0.2" />
<circle cx="4.5" cy="3.0" r="0.2" />
<circle cx="5.0" cy="4.0" r="0.2" />
<circle cx="5.6" cy="5.0" r="0.2" />
<circle cx="6.2" cy="1.0" r="0.2" />
<circle cx="6.7" cy="6.0" r="0.2" />
<circle cx="7.3" cy="2.0" r="0.2" />
<circle cx="7.8" cy="7.0" r="0.2" />
<circle cx="8.4" cy="3.0" r="0.2" />
<circle cx="9.0" cy="4.0" r="0.2" />
<circle cx="9.5" cy="1.0" r="0.2" />
<circle cx="10.1" cy="8.0" r="0.2" />
<circle cx="10.6" cy="5.0" r="0.2" />
<circle cx="11.2" cy="6.0" r="0.2" />
<circle cx="11.8" cy="7.0" r="0.2" />
<circle cx="12.3" cy="8.0" r="0.2" />
<circle cx="12.9" cy="2.0" r="0.2" />
<circle cx="13.4" cy="9.0" r="0.2" />
<circle cx="14.0" cy="3.0" r="0.2" />
<circle cx="14.6" cy="10.0" r="0.2" />
<circle cx="15.1" cy="11.0" r="0.2" />
<circle cx="15.7" cy="12.0" r="0.2" />
<circle cx="16.2" cy="4.0" r="0.2" />
<circle cx="16.8" cy="13.0" r="0.2" />
<circle cx="17.4" cy="5.0" r="0.2" />
<circle cx="17.9" cy="6.0" r="0.2" />
<circle cx="18.5" cy="7.0" r="0.2" />
<circle cx="19.0" cy="8.0" r="0.2" />
<circle cx="19.6" cy="9.0" r="0.2" />
<circle cx="20.2" cy="14.0" r="0.2" />
<circle cx="20.7" cy="10.0" r="0.2" />
<circle cx="21.3" cy="15.0" r="0.2" />
<circle cx="21.8" cy="11.0" r="0.2" />
<circle cx="22.4" cy="12.0" r="0.2" />
<circle cx="23.0" cy="1.0" r="0.2" />
<circle cx="23.5" cy="16.0" r="0.2" />
<circle cx="24.1" cy="13.0" r="0.2" />
<circle cx="24.6" cy="14.0" r="0.2" />
<circle cx="25.2" cy="15.0" r="0.2" />
<circle cx="25.8" cy="16.0" r="0.2" />
<circle cx="26.3" cy="2.0" r="0.2" />
<circle cx="26.9" cy="17.0" r="0.2" />
<circle cx="27.4" cy="18.0" r="0.2" />
<circle cx="28.0" cy="19.0" r="0.2" />
<circle cx="28.6" cy="3.0" r="0.2" />
<circle cx="29.1" cy="20.0" r="0.2" />
<circle cx="29.7" cy="4.0" r="0.2" />
<circle cx="30.2" cy="17.0" r="0.2" />
<circle cx="30.8" cy="5.0" r="0.2" />
<circle cx="31.4" cy="21.0" r="0.2" />
<circle cx="31.9" cy="22.0" r="0.2" />
<circle cx="32.5" cy="23.0" r="0.2" />
<circle cx="33.0" cy="6.0" r="0.2" />
<circle cx="33.6" cy="24.0" r="0.2" />
<circle cx="34.2" cy="7.0" r="0.2" />
<circle cx="34.7" cy="25.0" r="0.2" />
<circle cx="35.3" cy="26.0" r="0.2" />
<circle cx="35.8" cy="8.0" r="0.2" />
<circle cx="36.4" cy="9.0" r="0.2" />
<circle cx="37.0" cy="27.0" r="0.2" />
<circle cx="37.5" cy="10.0" r="0.2" />
<circle cx="38.1" cy="11.0" r="0.2" />
<circle cx="38.6" cy="12.0" r="0.2" />
<circle cx="39.2" cy="28.0" r="0.2" />
<circle cx="39.8" cy="13.0" r="0.2" />
<circle cx="40.3" cy="29.0" r="0.2" />
<circle cx="40.9" cy="14.0" r="0.2" />
<circle cx="41.4" cy="30.0" r="0.2" />
<circle cx="42.0" cy="15.0" r="0.2" />
<circle cx="42.6" cy="31.0" r="0.2" />
<circle cx="43.1" cy="16.0" r="0.2" />
<circle cx="43.7" cy="32.0" r="0.2" />
<circle cx="44.2" cy="17.0" r="0.2" />
<circle cx="44.8" cy="18.0" r="0.2" />
<circle cx="45.4" cy="33.0" r="0.2" />
<circle cx="45.9" cy="19.0" r="0.2" />
<circle cx="46.5" cy="1.0" r="0.2" />
<circle cx="47.0" cy="34.0" r="0.2" />
<circle cx="47.6" cy="2.0" r="0.2" />
<circle cx="48.2" cy="35.0" r="0.2" />
<circle cx="48.7" cy="20.0" r="0.2" />
<circle cx="49.3" cy="21.0" r="0.2" />
<circle cx="49.8" cy="3.0" r="0.2" />
<circle cx="50.4" cy="36.0" r="0.2" />
<circle cx="51.0" cy="22.0" r="0.2" />
<circle cx="51.5" cy="23.0" r="0.2" />
<circle cx="52.1" cy="24.0" r="0.2" />
<circle cx="52.6" cy="25.0" r="0.2" />
<circle cx="53.2" cy="26.0" r="0.2" />
<circle cx="53.8" cy="27.0" r="0.2" />
<circle cx="54.3" cy="4.0" r="0.2" />
<circle cx="54.9" cy="37.0" r="0.2" />
<circle cx="55.4" cy="28.0" r="0.2" />
<circle cx="56.0" cy="29.0" r="0.2" />
<circle cx="56.6" cy="5.0" r="0.2" />
<circle cx="57.1" cy="30.0" r="0.2" />
<circle cx="57.7" cy="6.0" r="0.2" />
<circle cx="58.2" cy="31.0" r="0.2" />
<circle cx="58.8" cy="32.0" r="0.2" />
</g>
</svg>