<svg xmlns="http://www.w3.org/2000/svg" width="156.6" height="100.0" viewBox="-3.14 -5.00 166.58 110.00">
<g fill="none" stroke="black" stroke-width="0.1550%" transform="translate(0, 100.0000) scale(3.2258, -3.2258)">
<line x1="0.58" y1="0.00" x2="0.58" y2="1.00" />
<line x1="1.16" y1="0.00" x2="1.16" y2="1.00" />
<line x1="1.73" y1="0.00" x2="1.73" y2="2.00" />
<line x1="2.31" y1="0.00" x2="2.31" y2="2.00" />
<line x1="2.89" y1="0.00" x2="2.89" y2="3.00" />
<line x1="3.47" y1="0.00" x2="3.47" y2="1.00" />
<line x1="4.05" y1="0.00" x2="4.05" y2="4.00" />
<line x1="4.62" y1="0.00" x2="4.62" y2="3.00" />
<line x1="5.20" y1="0.00" x2="5.20" y2="4.00" />
<line x1="5.78" y1="0.00" x2="5.78" y2="2.00" />
<line x1="6.36" y1="0.00" x2="6.36" y2="5.00" />
<line x1="6.93" y1="0.00" x2="6.93" y2="1.00" />
<line x1="7.51" y1="0.00" x2="7.51" y2="6.00" />
<line x1="8.09" y1="0.00" x2="8.09" y2="3.00" />
<line x1="8.67" y1="0.00" x2="8.67" y2="7.00" />
<line x1="9.25" y1="0.00" x2="9.25" y2="5.00" />
<line x1="9.82" y1="0.00" x2="9.82" y2="8.00" />
<line x1="10.40" y1="0.00" x2="10.40" y2="2.00" />
<line x1="10.98" y1="0.00" x2="10.98" y2="9.00" />
<line x1="11.56" y1="0.00" x2="11.56" y2="4.00" />
<line x1="12.14" y1="0.00" x2="12.14" y2="6.00" />
<line x1="12.71" y1="0.00" x2="12.71" y2="7.00" />
<line x1="13.29" y1="0.00" x2="13.29" y2="10.00" />
<line x1="13.87" y1="0.00" x2="13.87" y2="3.00" />
<line x1="14.45" y1="0.00" x2="14.45" y2="11.00" />
<line x1="15.02" y1="0.00" x2="15.02" y2="5.00" />
<line x1="15.60" y1="0.00" x2="15.60" y2="8.00" />
<line x1="16.18" y1="0.00" x2="16.18" y2="4.00" />
<line x1="16.76" y1="0.00" x2="16.76" y2="12.00" />
<line x1="17.34" y1="0.00" x2="17.34" y2="1.00" />
<line x1="17.91" y1="0.00" x2="17.91" y2="13.00" />
<line x1="18.49" y1="0.00" x2="18.49" y2="9.00" />
<line x1="19.07" y1="0.00" x2="19.07" y2="10.00" />
<line x1="19.65" y1="0.00" x2="19.65" y2="6.00" />
<line x1="20.23" y1="0.00" x2="20.23" y2="14.00" />
<line x1="20.80" y1="0.00" x2="20.80" y2="2.00" />
<line x1="21.38" y1="0.00" x2="21.38" y2="15.00" />
<line x1="21.96" y1="0.00" x2="21.96" y2="7.00" />
<line x1="22.54" y1="0.00" x2="22.54" y2="11.00" />
<line x1="23.11" y1="0.00" x2="23.11" y2="5.00" />
<line x1="23.69" y1="0.00" x2="23.69" y2="16.00" />
<line x1="24.27" y1="0.00" x2="24.27" y2="1.00" />
<line x1="24.85" y1="0.00" x2="24.85" y2="17.00" />
<line x1="25.43" y1="0.00" x2="25.43" y2="8.00" />
<line x1="26.00" y1="0.00" x2="26.00" y2="9.00" />
<line x1="26.58" y1="0.00" x2="26.58" y2="12.00" />
<line x1="27.16" y1="0.00" x2="27.16" y2="18.00" />
<line x1="27.74" y1="0.00" x2="27.74" y2="3.00" />
<line x1="28.32" y1="0.00" x2="28.32" y2="13.00" />
<line x1="28.89" y1="0.00" x2="28.89" y2="6.00" />
<line x1="29.47" y1="0.00" x2="29.47" y2="19.00" />
<line x1="30.05" y1="0.00" x2="30.05" y2="7.00" />
<line x1="30.63" y1="0.00" x2="30.63" y2="20.00" />
<line x1="31.20" y1="0.00" x2="31.20" y2="8.00" />
<line x1="31.78" y1="0.00" x2="31.78" y2="14.00" />
<line x1="32.36" y1="0.00" x2="32.36" y2="4.00" />
<line x1="32.94" y1="0.00" x2="32.94" y2="15.00" />
<line x1="33.52" y1="0.00" x2="33.52" y2="16.00" />
<line x1="34.09" y1="0.00" x2="34.09" y2="21.00" />
<line x1="34.67" y1="0.00" x2="34.67" y2="2.00" />
<line x1="35.25" y1="0.00" x2="35.25" y2="22.00" />
<line x1="35.83" y1="0.00" x2="35.83" y2="17.00" />
<line x1="36.41" y1="0.00" x2="36.41" y2="10.00" />
<line x1="36.98" y1="0.00" x2="36.98" y2="18.00" />
<line x1="37.56" y1="0.00" x2="37.56" y2="23.00" />
<line x1="38.14" y1="0.00" x2="38.14" y2="5.00" />
<line x1="38.72" y1="0.00" x2="38.72" y2="24.00" />
<line x1="39.30" y1="0.00" x2="39.30" y2="11.00" />
<line x1="39.87" y1="0.00" x2="39.87" y2="25.00" />
<line x1="40.45" y1="0.00" x2="40.45" y2="3.00" />
<line x1="41.03" y1="0.00" x2="41.03" y2="26.00" />
<line x1="41.61" y1="0.00" x2="41.61" y2="1.00" />
<line x1="42.18" y1="0.00" x2="42.18" y2="27.00" />
<line x1="42.76" y1="0.00" x2="42.76" y2="9.00" />
<line x1="43.34" y1="0.00" x2="43.34" y2="12.00" />
<line x1="43.92" y1="0.00" x2="43.92" y2="6.00" />
<line x1="44.50" y1="0.00" x2="44.50" y2="19.00" />
<line x1="45.07" y1="0.00" x2="45.07" y2="1.00" />
<line x1="45.65" y1="0.00" x2="45.65" y2="28.00" />
<line x1="46.23" y1="0.00" x2="46.23" y2="10.00" />
<line x1="46.81" y1="0.00" x2="46.81" y2="29.00" />
<line x1="47.39" y1="0.00" x2="47.39" y2="11.00" />
<line x1="47.96" y1="0.00" x2="47.96" y2="30.00" />
<line x1="48.54" y1="0.00" x2="48.54" y2="1.00" />
<line x1="49.12" y1="0.00" x2="49.12" y2="31.00" />
</g>
</svg>