<svg xmlns="http://www.w3.org/2000/svg" width="161.8" height="100.0" viewBox="-4.2 -3.5 171.8 110.0">
<g fill="none" stroke="black" stroke-width="0.3300%" transform="translate(0, 103.0303) scale(1.5152, -1.5152)">
<circle cx="0.5" cy="1.0" r="0.3" />
<circle cx="1.1" cy="1.0" r="0.3" />
<circle cx="1.6" cy="1.0" r="0.3" />
<circle cx="2.1" cy="2.0" r="0.3" />
<circle cx="2.7" cy="1.0" r="0.3" />
<circle cx="3.2" cy="3.0" r="0.3" />
<circle cx="3.8" cy="1.0" r="0.3" />
<circle cx="4.3" cy="2.0" r="0.3" />
<circle cx="4.8" cy="1.0" r="0.3" />
<circle cx="5.4" cy="4.0" r="0.3" />
<circle cx="5.9" cy="1.0" r="0.3" />
<circle cx="6.4" cy="5.0" r="0.3" />
<circle cx="7.0" cy="1.0" r="0.3" />
<circle cx="7.5" cy="3.0" r="0.3" />
<circle cx="8.0" cy="2.0" r="0.3" />
<circle cx="8.6" cy="6.0" r="0.3" />
<circle cx="9.1" cy="1.0" r="0.3" />
<circle cx="9.7" cy="7.0" r="0.3" />
<circle cx="10.2" cy="1.0" r="0.3" />
<circle cx="10.7" cy="4.0" r="0.3" />
<circle cx="11.3" cy="2.0" r="0.3" />
<circle cx="11.8" cy="8.0" r="0.3" />
<circle cx="12.3" cy="1.0" r="0.3" />
<circle cx="12.9" cy="9.0" r="0.3" />
<circle cx="13.4" cy="3.0" r="0.3" />
<circle cx="14.0" cy="5.0" r="0.3" />
<circle cx="14.5" cy="2.0" r="0.3" />
<circle cx="15.0" cy="10.0" r="0.3" />
<circle cx="15.6" cy="1.0" r="0.3" />
<circle cx="16.1" cy="11.0" r="0.3" />
<circle cx="16.6" cy="1.0" r="0.3" />
<circle cx="17.2" cy="6.0" r="0.3" />
<circle cx="17.7" cy="4.0" r="0.3" />
<circle cx="18.2" cy="12.0" r="0.3" />
<circle cx="18.8" cy="2.0" r="0.3" />
<circle cx="19.3" cy="13.0" r="0.3" />
<circle cx="19.9" cy="1.0" r="0.3" />
<circle cx="20.4" cy="7.0" r="0.3" />
<circle cx="20.9" cy="3.0" r="0.3" />
<circle cx="21.5" cy="14.0" r="0.3" />
<circle cx="22.0" cy="1.0" r="0.3" />
<circle cx="22.5" cy="15.0" r="0.3" />
<circle cx="23.1" cy="1.0" r="0.3" />
<circle cx="23.6" cy="8.0" r="0.3" />
<circle cx="24.1" cy="5.0" r="0.3" />
<circle cx="24.7" cy="16.0" r="0.3" />
<circle cx="25.2" cy="1.0" r="0.3" />
<circle cx="25.8" cy="17.0" r="0.3" />
<circle cx="26.3" cy="6.0" r="0.3" />
<circle cx="26.8" cy="9.0" r="0.3" />
<circle cx="27.4" cy="3.0" r="0.3" />
<circle cx="27.9" cy="18.0" r="0.3" />
<circle cx="28.4" cy="1.0" r="0.3" />
<circle cx="29.0" cy="19.0" r="0.3" />
<circle cx="29.5" cy="4.0" r="0.3" />
<circle cx="30.1" cy="10.0" r="0.3" />
<circle cx="30.6" cy="7.0" r="0.3" />
<circle cx="31.1" cy="20.0" r="0.3" />
<circle cx="31.7" cy="1.0" r="0.3" />
<circle cx="32.2" cy="21.0" r="0.3" />
<circle cx="32.7" cy="1.0" r="0.3" />
<circle cx="33.3" cy="11.0" r="0.3" />
<circle cx="33.8" cy="5.0" r="0.3" />
<circle cx="34.3" cy="22.0" r="0.3" />
<circle cx="34.9" cy="2.0" r="0.3" />
<circle cx="35.4" cy="23.0" r="0.3" />
<circle cx="36.0" cy="1.0" r="0.3" />
<circle cx="36.5" cy="12.0" r="0.3" />
<circle cx="37.0" cy="8.0" r="0.3" />
<circle cx="37.6" cy="24.0" r="0.3" />
<circle cx="38.1" cy="1.0" r="0.3" />
<circle cx="38.6" cy="25.0" r="0.3" />
<circle cx="39.2" cy="1.0" r="0.3" />
<circle cx="39.7" cy="13.0" r="0.3" />
<circle cx="40.2" cy="4.0" r="0.3" />
<circle cx="40.8" cy="26.0" r="0.3" />
<circle cx="41.3" cy="3.0" r="0.3" />
<circle cx="41.9" cy="27.0" r="0.3" />
<circle cx="42.4" cy="1.0" r="0.3" />
<circle cx="42.9" cy="14.0" r="0.3" />
<circle cx="43.5" cy="9.0" r="0.3" />
<circle cx="44.0" cy="28.0" r="0.3" />
<circle cx="44.5" cy="1.0" r="0.3" />
<circle cx="45.1" cy="29.0" r="0.3" />
<circle cx="45.6" cy="10.0" r="0.3" />
<circle cx="46.2" cy="15.0" r="0.3" />
<circle cx="46.7" cy="6.0" r="0.3" />
<circle cx="47.2" cy="30.0" r="0.3" />
<circle cx="47.8" cy="1.0" r="0.3" />
<circle cx="48.3" cy="31.0" r="0.3" />
<circle cx="48.8" cy="5.0" r="0.3" />
<circle cx="49.4" cy="16.0" r="0.3" />
<circle cx="49.9" cy="11.0" r="0.3" />
<circle cx="50.4" cy="32.0" r="0.3" />
<circle cx="51.0" cy="2.0" r="0.3" />
<circle cx="51.5" cy="33.0" r="0.3" />
<circle cx="52.1" cy="1.0" r="0.3" />
<circle cx="52.6" cy="17.0" r="0.3" />
<circle cx="53.1" cy="6.0" r="0.3" />
<circle cx="53.7" cy="34.0" r="0.3" />
<circle cx="54.2" cy="1.0" r="0.3" />
<circle cx="54.7" cy="35.0" r="0.3" />
<circle cx="55.3" cy="1.0" r="0.3" />
<circle cx="55.8" cy="18.0" r="0.3" />
<circle cx="56.3" cy="12.0" r="0.3" />
<circle cx="56.9" cy="36.0" r="0.3" />
<circle cx="57.4" cy="1.0" r="0.3" />
<circle cx="58.0" cy="37.0" r="0.3" />
<circle cx="58.5" cy="1.0" r="0.3" />
<circle cx="59.0" cy="19.0" r="0.3" />
<circle cx="59.6" cy="7.0" r="0.3" />
<circle cx="60.1" cy="38.0" r="0.3" />
<circle cx="60.6" cy="1.0" r="0.3" />
<circle cx="61.2" cy="39.0" r="0.3" />
<circle cx="61.7" cy="7.0" r="0.3" />
<circle cx="62.2" cy="20.0" r="0.3" />
<circle cx="62.8" cy="13.0" r="0.3" />
<circle cx="63.3" cy="40.0" r="0.3" />
<circle cx="63.9" cy="3.0" r="0.3" />
<circle cx="64.4" cy="41.0" r="0.3" />
<circle cx="64.9" cy="14.0" r="0.3" />
<circle cx="65.5" cy="21.0" r="0.3" />
<circle cx="66.0" cy="8.0" r="0.3" />
<circle cx="66.5" cy="42.0" r="0.3" />
<circle cx="67.1" cy="4.0" r="0.3" />
<circle cx="67.6" cy="43.0" r="0.3" />
<circle cx="68.2" cy="1.0" r="0.3" />
<circle cx="68.7" cy="22.0" r="0.3" />
<circle cx="69.2" cy="15.0" r="0.3" />
<circle cx="69.8" cy="44.0" r="0.3" />
<circle cx="70.3" cy="1.0" r="0.3" />
<circle cx="70.8" cy="45.0" r="0.3" />
<circle cx="71.4" cy="16.0" r="0.3" />
<circle cx="71.9" cy="23.0" r="0.3" />
<circle cx="72.4" cy="8.0" r="0.3" />
<circle cx="73.0" cy="46.0" r="0.3" />
<circle cx="73.5" cy="1.0" r="0.3" />
<circle cx="74.1" cy="47.0" r="0.3" />
<circle cx="74.6" cy="1.0" r="0.3" />
<circle cx="75.1" cy="24.0" r="0.3" />
<circle cx="75.7" cy="17.0" r="0.3" />
<circle cx="76.2" cy="48.0" r="0.3" />
<circle cx="76.7" cy="4.0" r="0.3" />
<circle cx="77.3" cy="49.0" r="0.3" />
<circle cx="77.8" cy="18.0" r="0.3" />
<circle cx="78.3" cy="25.0" r="0.3" />
<circle cx="78.9" cy="9.0" r="0.3" />
<circle cx="79.4" cy="50.0" r="0.3" />
<circle cx="80.0" cy="1.0" r="0.3" />
<circle cx="80.5" cy="51.0" r="0.3" />
<circle cx="81.0" cy="1.0" r="0.3" />
<circle cx="81.6" cy="26.0" r="0.3" />
<circle cx="82.1" cy="19.0" r="0.3" />
<circle cx="82.6" cy="52.0" r="0.3" />
<circle cx="83.2" cy="3.0" r="0.3" />
<circle cx="83.7" cy="53.0" r="0.3" />
<circle cx="84.3" cy="1.0" r="0.3" />
<circle cx="84.8" cy="27.0" r="0.3" />
<circle cx="85.3" cy="9.0" r="0.3" />
<circle cx="85.9" cy="54.0" r="0.3" />
<circle cx="86.4" cy="5.0" r="0.3" />
<circle cx="86.9" cy="55.0" r="0.3" />
<circle cx="87.5" cy="1.0" r="0.3" />
<circle cx="88.0" cy="28.0" r="0.3" />
<circle cx="88.5" cy="20.0" r="0.3" />
<circle cx="89.1" cy="56.0" r="0.3" />
<circle cx="89.6" cy="1.0" r="0.3" />
<circle cx="90.2" cy="57.0" r="0.3" />
<circle cx="90.7" cy="21.0" r="0.3" />
<circle cx="91.2" cy="29.0" r="0.3" />
<circle cx="91.8" cy="10.0" r="0.3" />
<circle cx="92.3" cy="58.0" r="0.3" />
<circle cx="92.8" cy="1.0" r="0.3" />
<circle cx="93.4" cy="59.0" r="0.3" />
<circle cx="93.9" cy="10.0" r="0.3" />
<circle cx="94.4" cy="30.0" r="0.3" />
<circle cx="95.0" cy="22.0" r="0.3" />
<circle cx="95.5" cy="60.0" r="0.3" />
<circle cx="96.1" cy="1.0" r="0.3" />
<circle cx="96.6" cy="61.0" r="0.3" />
<circle cx="97.1" cy="1.0" r="0.3" />
<circle cx="97.7" cy="31.0" r="0.3" />
<circle cx="98.2" cy="11.0" r="0.3" />
<circle cx="98.7" cy="62.0" r="0.3" />
<circle cx="99.3" cy="6.0" r="0.3" />
<circle cx="99.8" cy="63.0" r="0.3" />
<circle cx="100.4" cy="11.0" r="0.3" />
<circle cx="100.9" cy="32.0" r="0.3" />
<circle cx="101.4" cy="23.0" r="0.3" />
<circle cx="102.0" cy="64.0" r="0.3" />
<circle cx="102.5" cy="1.0" r="0.3" />
<circle cx="103.0" cy="65.0" r="0.3" />
<circle cx="103.6" cy="1.0" r="0.3" />
<circle cx="104.1" cy="33.0" r="0.3" />
<circle cx="104.6" cy="12.0" r="0.3" />
<circle cx="105.2" cy="66.0" r="0.3" />
<circle cx="105.7" cy="1.0" r="0.3" />
<circle cx="106.3" cy="67.0" r="0.3" />
<circle cx="106.8" cy="1.0" r="0.3" />
<circle cx="107.3" cy="34.0" r="0.3" />
</g>
</svg>