<svg xmlns="http://www.w3.org/2000/svg" width="160.3" height="100.0" viewBox="-3.6 -5.0 170.3 110.0">
<g fill="none" stroke="black" stroke-width="0.5300%" transform="translate(0, 100.0000) scale(0.9434, -0.9434)">
<line x1="1.5" y1="0.0" x2="1.5" y2="1.0" />
<line x1="3.0" y1="0.0" x2="3.0" y2="3.0" />
<line x1="4.5" y1="0.0" x2="4.5" y2="2.0" />
<line x1="6.0" y1="0.0" x2="6.0" y2="6.0" />
<line x1="7.5" y1="0.0" x2="7.5" y2="6.0" />
<line x1="8.9" y1="0.0" x2="8.9" y2="5.0" />
<line x1="10.4" y1="0.0" x2="10.4" y2="5.0" />
<line x1="11.9" y1="0.0" x2="11.9" y2="13.0" />
<line x1="13.4" y1="0.0" x2="13.4" y2="12.0" />
<line x1="14.9" y1="0.0" x2="14.9" y2="12.0" />
<line x1="16.4" y1="0.0" x2="16.4" y2="13.0" />
<line x1="17.9" y1="0.0" x2="17.9" y2="10.0" />
<line x1="19.4" y1="0.0" x2="19.4" y2="11.0" />
<line x1="20.9" y1="0.0" x2="20.9" y2="11.0" />
<line x1="22.4" y1="0.0" x2="22.4" y2="10.0" />
<line x1="23.8" y1="0.0" x2="23.8" y2="26.0" />
<line x1="25.3" y1="0.0" x2="25.3" y2="26.0" />
<line x1="26.8" y1="0.0" x2="26.8" y2="25.0" />
<line x1="28.3" y1="0.0" x2="28.3" y2="25.0" />
<line x1="29.8" y1="0.0" x2="29.8" y2="25.0" />
<line x1="31.3" y1="0.0" x2="31.3" y2="25.0" />
<line x1="32.8" y1="0.0" x2="32.8" y2="26.0" />
<line x1="34.3" y1="0.0" x2="34.3" y2="26.0" />
<line x1="35.8" y1="0.0" x2="35.8" y2="21.0" />
<line x1="37.3" y1="0.0" x2="37.3" y2="21.0" />
<line x1="38.7" y1="0.0" x2="38.7" y2="22.0" />
<line x1="40.2" y1="0.0" x2="40.2" y2="22.0" />
<line x1="41.7" y1="0.0" x2="41.7" y2="22.0" />
<line x1="43.2" y1="0.0" x2="43.2" y2="22.0" />
<line x1="44.7" y1="0.0" x2="44.7" y2="21.0" />
<line x1="46.2" y1="0.0" x2="46.2" y2="21.0" />
<line x1="47.7" y1="0.0" x2="47.7" y2="53.0" />
<line x1="49.2" y1="0.0" x2="49.2" y2="52.0" />
<line x1="50.7" y1="0.0" x2="50.7" y2="52.0" />
<line x1="52.2" y1="0.0" x2="52.2" y2="53.0" />
<line x1="53.7" y1="0.0" x2="53.7" y2="50.0" />
<line x1="55.1" y1="0.0" x2="55.1" y2="51.0" />
<line x1="56.6" y1="0.0" x2="56.6" y2="51.0" />
<line x1="58.1" y1="0.0" x2="58.1" y2="50.0" />
<line x1="59.6" y1="0.0" x2="59.6" y2="50.0" />
<line x1="61.1" y1="0.0" x2="61.1" y2="51.0" />
<line x1="62.6" y1="0.0" x2="62.6" y2="51.0" />
<line x1="64.1" y1="0.0" x2="64.1" y2="50.0" />
<line x1="65.6" y1="0.0" x2="65.6" y2="53.0" />
<line x1="67.1" y1="0.0" x2="67.1" y2="52.0" />
<line x1="68.6" y1="0.0" x2="68.6" y2="52.0" />
<line x1="70.0" y1="0.0" x2="70.0" y2="53.0" />
<line x1="71.5" y1="0.0" x2="71.5" y2="42.0" />
<line x1="73.0" y1="0.0" x2="73.0" y2="43.0" />
<line x1="74.5" y1="0.0" x2="74.5" y2="43.0" />
<line x1="76.0" y1="0.0" x2="76.0" y2="42.0" />
<line x1="77.5" y1="0.0" x2="77.5" y2="45.0" />
<line x1="79.0" y1="0.0" x2="79.0" y2="44.0" />
<line x1="80.5" y1="0.0" x2="80.5" y2="44.0" />
<line x1="82.0" y1="0.0" x2="82.0" y2="45.0" />
<line x1="83.5" y1="0.0" x2="83.5" y2="45.0" />
<line x1="84.9" y1="0.0" x2="84.9" y2="44.0" />
<line x1="86.4" y1="0.0" x2="86.4" y2="44.0" />
<line x1="87.9" y1="0.0" x2="87.9" y2="45.0" />
<line x1="89.4" y1="0.0" x2="89.4" y2="42.0" />
<line x1="90.9" y1="0.0" x2="90.9" y2="43.0" />
<line x1="92.4" y1="0.0" x2="92.4" y2="43.0" />
<line x1="93.9" y1="0.0" x2="93.9" y2="42.0" />
<line x1="95.4" y1="0.0" x2="95.4" y2="106.0" />
<line x1="96.9" y1="0.0" x2="96.9" y2="106.0" />
<line x1="98.4" y1="0.0" x2="98.4" y2="105.0" />
<line x1="99.8" y1="0.0" x2="99.8" y2="105.0" />
<line x1="101.3" y1="0.0" x2="101.3" y2="105.0" />
<line x1="102.8" y1="0.0" x2="102.8" y2="105.0" />
<line x1="104.3" y1="0.0" x2="104.3" y2="106.0" />
<line x1="105.8" y1="0.0" x2="105.8" y2="106.0" />
<line x1="107.3" y1="0.0" x2="107.3" y2="101.0" />
<line x1="108.8" y1="0.0" x2="108.8" y2="101.0" />
<line x1="110.3" y1="0.0" x2="110.3" y2="102.0" />
<line x1="111.8" y1="0.0" x2="111.8" y2="102.0" />
<line x1="113.3" y1="0.0" x2="113.3" y2="102.0" />
<line x1="114.8" y1="0.0" x2="114.8" y2="102.0" />
<line x1="116.2" y1="0.0" x2="116.2" y2="101.0" />
<line x1="117.7" y1="0.0" x2="117.7" y2="101.0" />
<line x1="119.2" y1="0.0" x2="119.2" y2="101.0" />
<line x1="120.7" y1="0.0" x2="120.7" y2="101.0" />
<line x1="122.2" y1="0.0" x2="122.2" y2="102.0" />
<line x1="123.7" y1="0.0" x2="123.7" y2="102.0" />
<line x1="125.2" y1="0.0" x2="125.2" y2="102.0" />
<line x1="126.7" y1="0.0" x2="126.7" y2="102.0" />
<line x1="128.2" y1="0.0" x2="128.2" y2="101.0" />
<line x1="129.7" y1="0.0" x2="129.7" y2="101.0" />
<line x1="131.1" y1="0.0" x2="131.1" y2="106.0" />
<line x1="132.6" y1="0.0" x2="132.6" y2="106.0" />
<line x1="134.1" y1="0.0" x2="134.1" y2="105.0" />
<line x1="135.6" y1="0.0" x2="135.6" y2="105.0" />
<line x1="137.1" y1="0.0" x2="137.1" y2="105.0" />
<line x1="138.6" y1="0.0" x2="138.6" y2="105.0" />
<line x1="140.1" y1="0.0" x2="140.1" y2="106.0" />
<line x1="141.6" y1="0.0" x2="141.6" y2="106.0" />
<line x1="143.1" y1="0.0" x2="143.1" y2="85.0" />
<line x1="144.6" y1="0.0" x2="144.6" y2="85.0" />
<line x1="146.0" y1="0.0" x2="146.0" y2="86.0" />
<line x1="147.5" y1="0.0" x2="147.5" y2="86.0" />
<line x1="149.0" y1="0.0" x2="149.0" y2="86.0" />
<line x1="150.5" y1="0.0" x2="150.5" y2="86.0" />
<line x1="152.0" y1="0.0" x2="152.0" y2="85.0" />
<line x1="153.5" y1="0.0" x2="153.5" y2="85.0" />
<line x1="155.0" y1="0.0" x2="155.0" y2="90.0" />
<line x1="156.5" y1="0.0" x2="156.5" y2="90.0" />
<line x1="158.0" y1="0.0" x2="158.0" y2="89.0" />
<line x1="159.5" y1="0.0" x2="159.5" y2="89.0" />
<line x1="161.0" y1="0.0" x2="161.0" y2="89.0" />
<line x1="162.4" y1="0.0" x2="162.4" y2="89.0" />
<line x1="163.9" y1="0.0" x2="163.9" y2="90.0" />
<line x1="165.4" y1="0.0" x2="165.4" y2="90.0" />
<line x1="166.9" y1="0.0" x2="166.9" y2="90.0" />
<line x1="168.4" y1="0.0" x2="168.4" y2="90.0" />
<line x1="169.9" y1="0.0" x2="169.9" y2="89.0" />
<line x1="171.4" y1="0.0" x2="171.4" y2="89.0" />
</g>
</svg>