<svg xmlns="http://www.w3.org/2000/svg" width="157.8" height="100.0" viewBox="-3.6 -5.0 167.8 110.0">
<g fill="none" stroke="black" stroke-width="0.2000%" transform="translate(0, 100.0000) scale(2.5000, -2.5000)">
<line x1="0.5" y1="0.0" x2="0.5" y2="1.0" />
<line x1="1.1" y1="0.0" x2="1.1" y2="2.0" />
<line x1="1.6" y1="0.0" x2="1.6" y2="1.0" />
<line x1="2.2" y1="0.0" x2="2.2" y2="1.0" />
<line x1="2.7" y1="0.0" x2="2.7" y2="2.0" />
<line x1="3.3" y1="0.0" x2="3.3" y2="3.0" />
<line x1="3.8" y1="0.0" x2="3.8" y2="1.0" />
<line x1="4.4" y1="0.0" x2="4.4" y2="1.0" />
<line x1="4.9" y1="0.0" x2="4.9" y2="1.0" />
<line x1="5.5" y1="0.0" x2="5.5" y2="1.0" />
<line x1="6.0" y1="0.0" x2="6.0" y2="2.0" />
<line x1="6.6" y1="0.0" x2="6.6" y2="3.0" />
<line x1="7.1" y1="0.0" x2="7.1" y2="2.0" />
<line x1="7.7" y1="0.0" x2="7.7" y2="2.0" />
<line x1="8.2" y1="0.0" x2="8.2" y2="1.0" />
<line x1="8.8" y1="0.0" x2="8.8" y2="4.0" />
<line x1="9.3" y1="0.0" x2="9.3" y2="3.0" />
<line x1="9.9" y1="0.0" x2="9.9" y2="4.0" />
<line x1="10.4" y1="0.0" x2="10.4" y2="3.0" />
<line x1="11.0" y1="0.0" x2="11.0" y2="5.0" />
<line x1="11.5" y1="0.0" x2="11.5" y2="4.0" />
<line x1="12.1" y1="0.0" x2="12.1" y2="2.0" />
<line x1="12.6" y1="0.0" x2="12.6" y2="6.0" />
<line x1="13.2" y1="0.0" x2="13.2" y2="5.0" />
<line x1="13.7" y1="0.0" x2="13.7" y2="4.0" />
<line x1="14.3" y1="0.0" x2="14.3" y2="7.0" />
<line x1="14.8" y1="0.0" x2="14.8" y2="3.0" />
<line x1="15.4" y1="0.0" x2="15.4" y2="8.0" />
<line x1="15.9" y1="0.0" x2="15.9" y2="5.0" />
<line x1="16.5" y1="0.0" x2="16.5" y2="2.0" />
<line x1="17.0" y1="0.0" x2="17.0" y2="6.0" />
<line x1="17.6" y1="0.0" x2="17.6" y2="3.0" />
<line x1="18.1" y1="0.0" x2="18.1" y2="7.0" />
<line x1="18.7" y1="0.0" x2="18.7" y2="4.0" />
<line x1="19.2" y1="0.0" x2="19.2" y2="8.0" />
<line x1="19.8" y1="0.0" x2="19.8" y2="9.0" />
<line x1="20.3" y1="0.0" x2="20.3" y2="6.0" />
<line x1="20.9" y1="0.0" x2="20.9" y2="10.0" />
<line x1="21.4" y1="0.0" x2="21.4" y2="3.0" />
<line x1="21.9" y1="0.0" x2="21.9" y2="9.0" />
<line x1="22.5" y1="0.0" x2="22.5" y2="5.0" />
<line x1="23.0" y1="0.0" x2="23.0" y2="7.0" />
<line x1="23.6" y1="0.0" x2="23.6" y2="11.0" />
<line x1="24.1" y1="0.0" x2="24.1" y2="5.0" />
<line x1="24.7" y1="0.0" x2="24.7" y2="10.0" />
<line x1="25.2" y1="0.0" x2="25.2" y2="12.0" />
<line x1="25.8" y1="0.0" x2="25.8" y2="4.0" />
<line x1="26.3" y1="0.0" x2="26.3" y2="11.0" />
<line x1="26.9" y1="0.0" x2="26.9" y2="13.0" />
<line x1="27.4" y1="0.0" x2="27.4" y2="6.0" />
<line x1="28.0" y1="0.0" x2="28.0" y2="8.0" />
<line x1="28.5" y1="0.0" x2="28.5" y2="14.0" />
<line x1="29.1" y1="0.0" x2="29.1" y2="6.0" />
<line x1="29.6" y1="0.0" x2="29.6" y2="4.0" />
<line x1="30.2" y1="0.0" x2="30.2" y2="12.0" />
<line x1="30.7" y1="0.0" x2="30.7" y2="15.0" />
<line x1="31.3" y1="0.0" x2="31.3" y2="2.0" />
<line x1="31.8" y1="0.0" x2="31.8" y2="5.0" />
<line x1="32.4" y1="0.0" x2="32.4" y2="13.0" />
<line x1="32.9" y1="0.0" x2="32.9" y2="16.0" />
<line x1="33.5" y1="0.0" x2="33.5" y2="7.0" />
<line x1="34.0" y1="0.0" x2="34.0" y2="5.0" />
<line x1="34.6" y1="0.0" x2="34.6" y2="9.0" />
<line x1="35.1" y1="0.0" x2="35.1" y2="17.0" />
<line x1="35.7" y1="0.0" x2="35.7" y2="18.0" />
<line x1="36.2" y1="0.0" x2="36.2" y2="8.0" />
<line x1="36.8" y1="0.0" x2="36.8" y2="6.0" />
<line x1="37.3" y1="0.0" x2="37.3" y2="10.0" />
<line x1="37.9" y1="0.0" x2="37.9" y2="14.0" />
<line x1="38.4" y1="0.0" x2="38.4" y2="19.0" />
<line x1="39.0" y1="0.0" x2="39.0" y2="20.0" />
<line x1="39.5" y1="0.0" x2="39.5" y2="9.0" />
<line x1="40.1" y1="0.0" x2="40.1" y2="7.0" />
<line x1="40.6" y1="0.0" x2="40.6" y2="6.0" />
<line x1="41.2" y1="0.0" x2="41.2" y2="11.0" />
<line x1="41.7" y1="0.0" x2="41.7" y2="15.0" />
<line x1="42.3" y1="0.0" x2="42.3" y2="21.0" />
<line x1="42.8" y1="0.0" x2="42.8" y2="22.0" />
<line x1="43.3" y1="0.0" x2="43.3" y2="23.0" />
<line x1="43.9" y1="0.0" x2="43.9" y2="10.0" />
<line x1="44.4" y1="0.0" x2="44.4" y2="3.0" />
<line x1="45.0" y1="0.0" x2="45.0" y2="7.0" />
<line x1="45.5" y1="0.0" x2="45.5" y2="7.0" />
<line x1="46.1" y1="0.0" x2="46.1" y2="12.0" />
<line x1="46.6" y1="0.0" x2="46.6" y2="13.0" />
<line x1="47.2" y1="0.0" x2="47.2" y2="16.0" />
<line x1="47.7" y1="0.0" x2="47.7" y2="17.0" />
<line x1="48.3" y1="0.0" x2="48.3" y2="18.0" />
<line x1="48.8" y1="0.0" x2="48.8" y2="24.0" />
<line x1="49.4" y1="0.0" x2="49.4" y2="25.0" />
<line x1="49.9" y1="0.0" x2="49.9" y2="26.0" />
<line x1="50.5" y1="0.0" x2="50.5" y2="27.0" />
<line x1="51.0" y1="0.0" x2="51.0" y2="28.0" />
<line x1="51.6" y1="0.0" x2="51.6" y2="29.0" />
<line x1="52.1" y1="0.0" x2="52.1" y2="30.0" />
<line x1="52.7" y1="0.0" x2="52.7" y2="31.0" />
<line x1="53.2" y1="0.0" x2="53.2" y2="1.0" />
<line x1="53.8" y1="0.0" x2="53.8" y2="2.0" />
<line x1="54.3" y1="0.0" x2="54.3" y2="3.0" />
<line x1="54.9" y1="0.0" x2="54.9" y2="4.0" />
<line x1="55.4" y1="0.0" x2="55.4" y2="5.0" />
<line x1="56.0" y1="0.0" x2="56.0" y2="6.0" />
<line x1="56.5" y1="0.0" x2="56.5" y2="7.0" />
<line x1="57.1" y1="0.0" x2="57.1" y2="8.0" />
<line x1="57.6" y1="0.0" x2="57.6" y2="32.0" />
<line x1="58.2" y1="0.0" x2="58.2" y2="33.0" />
<line x1="58.7" y1="0.0" x2="58.7" y2="34.0" />
<line x1="59.3" y1="0.0" x2="59.3" y2="35.0" />
<line x1="59.8" y1="0.0" x2="59.8" y2="36.0" />
<line x1="60.4" y1="0.0" x2="60.4" y2="37.0" />
<line x1="60.9" y1="0.0" x2="60.9" y2="38.0" />
<line x1="61.5" y1="0.0" x2="61.5" y2="39.0" />
<line x1="62.0" y1="0.0" x2="62.0" y2="40.0" />
<line x1="62.6" y1="0.0" x2="62.6" y2="19.0" />
<line x1="63.1" y1="0.0" x2="63.1" y2="20.0" />
<line x1="63.7" y1="0.0" x2="63.7" y2="21.0" />
</g>
</svg>