<svg xmlns="http://www.w3.org/2000/svg" width="154.8" height="100.0" viewBox="-3.18 -5.00 164.77 110.00">
<g fill="none" stroke="black" stroke-width="0.1150%" transform="translate(0, 100.0000) scale(4.3478, -4.3478)">
<line x1="0.42" y1="0.00" x2="0.42" y2="1.00" />
<line x1="0.84" y1="0.00" x2="0.84" y2="2.00" />
<line x1="1.26" y1="0.00" x2="1.26" y2="1.00" />
<line x1="1.68" y1="0.00" x2="1.68" y2="2.00" />
<line x1="2.09" y1="0.00" x2="2.09" y2="1.00" />
<line x1="2.51" y1="0.00" x2="2.51" y2="3.00" />
<line x1="2.93" y1="0.00" x2="2.93" y2="1.00" />
<line x1="3.35" y1="0.00" x2="3.35" y2="4.00" />
<line x1="3.77" y1="0.00" x2="3.77" y2="1.00" />
<line x1="4.19" y1="0.00" x2="4.19" y2="1.00" />
<line x1="4.61" y1="0.00" x2="4.61" y2="1.00" />
<line x1="5.03" y1="0.00" x2="5.03" y2="5.00" />
<line x1="5.44" y1="0.00" x2="5.44" y2="1.00" />
<line x1="5.86" y1="0.00" x2="5.86" y2="6.00" />
<line x1="6.28" y1="0.00" x2="6.28" y2="1.00" />
<line x1="6.70" y1="0.00" x2="6.70" y2="1.00" />
<line x1="7.12" y1="0.00" x2="7.12" y2="1.00" />
<line x1="7.54" y1="0.00" x2="7.54" y2="7.00" />
<line x1="7.96" y1="0.00" x2="7.96" y2="1.00" />
<line x1="8.38" y1="0.00" x2="8.38" y2="8.00" />
<line x1="8.79" y1="0.00" x2="8.79" y2="1.00" />
<line x1="9.21" y1="0.00" x2="9.21" y2="1.00" />
<line x1="9.63" y1="0.00" x2="9.63" y2="1.00" />
<line x1="10.05" y1="0.00" x2="10.05" y2="9.00" />
<line x1="10.47" y1="0.00" x2="10.47" y2="1.00" />
<line x1="10.89" y1="0.00" x2="10.89" y2="2.00" />
<line x1="11.31" y1="0.00" x2="11.31" y2="1.00" />
<line x1="11.73" y1="0.00" x2="11.73" y2="1.00" />
<line x1="12.14" y1="0.00" x2="12.14" y2="2.00" />
<line x1="12.56" y1="0.00" x2="12.56" y2="10.00" />
<line x1="12.98" y1="0.00" x2="12.98" y2="1.00" />
<line x1="13.40" y1="0.00" x2="13.40" y2="11.00" />
<line x1="13.82" y1="0.00" x2="13.82" y2="1.00" />
<line x1="14.24" y1="0.00" x2="14.24" y2="1.00" />
<line x1="14.66" y1="0.00" x2="14.66" y2="1.00" />
<line x1="15.08" y1="0.00" x2="15.08" y2="2.00" />
<line x1="15.50" y1="0.00" x2="15.50" y2="1.00" />
<line x1="15.91" y1="0.00" x2="15.91" y2="12.00" />
<line x1="16.33" y1="0.00" x2="16.33" y2="2.00" />
<line x1="16.75" y1="0.00" x2="16.75" y2="2.00" />
<line x1="17.17" y1="0.00" x2="17.17" y2="1.00" />
<line x1="17.59" y1="0.00" x2="17.59" y2="13.00" />
<line x1="18.01" y1="0.00" x2="18.01" y2="1.00" />
<line x1="18.43" y1="0.00" x2="18.43" y2="14.00" />
<line x1="18.85" y1="0.00" x2="18.85" y2="1.00" />
<line x1="19.26" y1="0.00" x2="19.26" y2="1.00" />
<line x1="19.68" y1="0.00" x2="19.68" y2="1.00" />
<line x1="20.10" y1="0.00" x2="20.10" y2="15.00" />
<line x1="20.52" y1="0.00" x2="20.52" y2="1.00" />
<line x1="20.94" y1="0.00" x2="20.94" y2="2.00" />
<line x1="21.36" y1="0.00" x2="21.36" y2="1.00" />
<line x1="21.78" y1="0.00" x2="21.78" y2="1.00" />
<line x1="22.20" y1="0.00" x2="22.20" y2="1.00" />
<line x1="22.61" y1="0.00" x2="22.61" y2="16.00" />
<line x1="23.03" y1="0.00" x2="23.03" y2="1.00" />
<line x1="23.45" y1="0.00" x2="23.45" y2="3.00" />
<line x1="23.87" y1="0.00" x2="23.87" y2="1.00" />
<line x1="24.29" y1="0.00" x2="24.29" y2="1.00" />
<line x1="24.71" y1="0.00" x2="24.71" y2="2.00" />
<line x1="25.13" y1="0.00" x2="25.13" y2="17.00" />
<line x1="25.55" y1="0.00" x2="25.55" y2="2.00" />
<line x1="25.96" y1="0.00" x2="25.96" y2="18.00" />
<line x1="26.38" y1="0.00" x2="26.38" y2="1.00" />
<line x1="26.80" y1="0.00" x2="26.80" y2="1.00" />
<line x1="27.22" y1="0.00" x2="27.22" y2="1.00" />
<line x1="27.64" y1="0.00" x2="27.64" y2="1.00" />
<line x1="28.06" y1="0.00" x2="28.06" y2="1.00" />
<line x1="28.48" y1="0.00" x2="28.48" y2="19.00" />
<line x1="28.90" y1="0.00" x2="28.90" y2="1.00" />
<line x1="29.31" y1="0.00" x2="29.31" y2="1.00" />
<line x1="29.73" y1="0.00" x2="29.73" y2="1.00" />
<line x1="30.15" y1="0.00" x2="30.15" y2="20.00" />
<line x1="30.57" y1="0.00" x2="30.57" y2="1.00" />
<line x1="30.99" y1="0.00" x2="30.99" y2="21.00" />
<line x1="31.41" y1="0.00" x2="31.41" y2="2.00" />
<line x1="31.83" y1="0.00" x2="31.83" y2="1.00" />
<line x1="32.25" y1="0.00" x2="32.25" y2="2.00" />
<line x1="32.67" y1="0.00" x2="32.67" y2="2.00" />
<line x1="33.08" y1="0.00" x2="33.08" y2="1.00" />
<line x1="33.50" y1="0.00" x2="33.50" y2="22.00" />
<line x1="33.92" y1="0.00" x2="33.92" y2="1.00" />
<line x1="34.34" y1="0.00" x2="34.34" y2="1.00" />
<line x1="34.76" y1="0.00" x2="34.76" y2="1.00" />
<line x1="35.18" y1="0.00" x2="35.18" y2="23.00" />
<line x1="35.60" y1="0.00" x2="35.60" y2="1.00" />
<line x1="36.02" y1="0.00" x2="36.02" y2="2.00" />
</g>
</svg>