<svg xmlns="http://www.w3.org/2000/svg" width="161.8" height="100.0" viewBox="-5.000 -17.597 171.803 110.000">
<g fill="none" stroke="black" stroke-width="0.0057%" transform="translate(0, 74.8069) scale(87.4035, -87.4035)">
<circle cx="0.000" cy="0.000" r="0.006" />
<circle cx="0.000" cy="1.000" r="0.006" />
<polyline points="0.000,1.000 0.009,0.980 0.019,0.968 0.028,0.968 0.037,0.943 0.046,0.910 0.056,0.893 0.065,0.889 0.074,0.876 0.083,0.852 0.093,0.881 0.102,0.896 0.111,0.817 0.120,0.836 0.130,0.834 0.139,0.828 0.148,0.789 0.157,0.785 0.167,0.755 0.176,0.728 0.185,0.714 0.194,0.713 0.204,0.682 0.213,0.672 0.222,0.625 0.231,0.602 0.241,0.577 0.250,0.528 0.259,0.541 0.268,0.553 0.278,0.476 0.287,0.459 0.296,0.370 0.305,0.378 0.315,0.399 0.324,0.384 0.333,0.339 0.342,0.319 0.352,0.288 0.361,0.253 0.370,0.283 0.380,0.294 0.389,0.227 0.398,0.174 0.407,0.187 0.417,0.158 0.426,0.205 0.435,0.211 0.444,0.176 0.454,0.182 0.463,0.155 0.472,0.219 0.481,0.219 0.491,0.203 0.500,0.197 0.509,0.201 0.518,0.209 0.528,0.192 0.537,0.181 0.546,0.177 0.555,0.161 0.565,0.203 0.574,0.243 0.583,0.232 0.592,0.219 0.602,0.187 0.611,0.164 0.620,0.179 0.629,0.209 0.639,0.215 0.648,0.263 0.657,0.222 0.666,0.226 0.676,0.234 0.685,0.152 0.694,0.161 0.703,0.129 0.713,0.137 0.722,0.176 0.731,0.171 0.740,0.122 0.750,0.123 0.759,0.137 0.768,0.188 0.778,0.195 0.787,0.125 0.796,0.130 0.805,0.095 0.815,0.118 0.824,0.128 0.833,0.187 0.842,0.184 0.852,0.198 0.861,0.214 0.870,0.184 0.879,0.176 0.889,0.204 0.898,0.192 0.907,0.178 0.916,0.188 0.926,0.171 0.935,0.161 0.944,0.148 0.953,0.133 0.963,0.073 0.972,0.043 0.981,0.072 0.990,0.075 1.000,0.060 1.009,0.020 1.018,0.048 1.027,0.072 1.037,0.084 1.046,0.110 1.055,0.122 1.064,0.106 1.074,0.175 1.083,0.115 1.092,0.085 1.101,0.100 1.111,0.137 1.120,0.155 1.129,0.196 1.139,0.186 1.148,0.221 1.157,0.211 1.166,0.211 1.176,0.176 1.185,0.201 1.194,0.193 1.203,0.146 1.213,0.178 1.222,0.177 1.231,0.164 1.240,0.150 1.250,0.168 1.259,0.198 1.268,0.171 1.277,0.163 1.287,0.182 1.296,0.128 1.305,0.146 1.314,0.146 1.324,0.161 1.333,0.154 1.342,0.138 1.351,0.145 1.361,0.138 1.370,0.177 1.379,0.191 1.388,0.183 1.398,0.175 1.407,0.173 1.416,0.185 1.425,0.170 1.435,0.125 1.444,0.139 1.453,0.153 1.462,0.180 1.472,0.165 1.481,0.156 1.490,0.136 1.499,0.061 1.509,0.094 1.518,0.112 1.527,0.132 1.537,0.104 1.546,0.068 1.555,0.057 1.564,0.026 1.574,0.041 1.583,0.028 1.592,-0.008 1.601,0.010 1.611,-0.001 1.620,-0.053 1.629,-0.065 1.638,-0.089 1.648,-0.137 1.657,-0.090 1.666,-0.075 1.675,-0.100 1.685,-0.114 1.694,-0.126 1.703,-0.127 1.712,-0.144 1.722,-0.128 1.731,-0.121 1.740,-0.094 1.749,-0.073 1.759,-0.086 1.768,-0.071 1.777,-0.111 1.786,-0.057 1.796,-0.037 1.805,0.034 1.814,-0.026 1.823,-0.000 1.833,-0.031 1.842,-0.048 1.851,-0.070" />
</g>
</svg>