<svg xmlns="http://www.w3.org/2000/svg" width="161.8" height="100.0" viewBox="-3.80 -5.00 171.80 110.00">
<g fill="none" stroke="black" stroke-width="0.0750%" transform="translate(0, 100.0000) scale(6.6667, -6.6667)">

<line x1="0.36" y1="0.00" x2="0.36" y2="1.00" />


<line x1="0.90" y1="0.00" x2="0.90" y2="2.00" />



<line x1="1.62" y1="0.00" x2="1.62" y2="3.00" />




<line x1="2.52" y1="0.00" x2="2.52" y2="4.00" />





<line x1="3.60" y1="0.00" x2="3.60" y2="5.00" />






<line x1="4.85" y1="0.00" x2="4.85" y2="6.00" />







<line x1="6.29" y1="0.00" x2="6.29" y2="7.00" />








<line x1="7.91" y1="0.00" x2="7.91" y2="8.00" />









<line x1="9.71" y1="0.00" x2="9.71" y2="9.00" />










<line x1="11.69" y1="0.00" x2="11.69" y2="10.00" />











<line x1="13.84" y1="0.00" x2="13.84" y2="11.00" />












<line x1="16.18" y1="0.00" x2="16.18" y2="12.00" />













<line x1="18.70" y1="0.00" x2="18.70" y2="13.00" />














<line x1="21.39" y1="0.00" x2="21.39" y2="14.00" />















<line x1="24.27" y1="0.00" x2="24.27" y2="15.00" />

</g>
</svg>