<svg xmlns="http://www.w3.org/2000/svg" width="161.8" height="100.0" viewBox="-3.202 -5.000 171.803 110.000">
<g fill="none" stroke="black" stroke-width="0.0050%" transform="translate(0, 100.0000) scale(100.0000, -100.0000)">
<line x1="0.018" y1="0.000" x2="0.018" y2="1.000" />
<line x1="0.036" y1="0.000" x2="0.036" y2="1.000" />
<line x1="0.054" y1="0.000" x2="0.054" y2="1.000" />

<line x1="0.090" y1="0.000" x2="0.090" y2="1.000" />
<line x1="0.108" y1="0.000" x2="0.108" y2="1.000" />


<line x1="0.162" y1="0.000" x2="0.162" y2="1.000" />
<line x1="0.180" y1="0.000" x2="0.180" y2="1.000" />



<line x1="0.252" y1="0.000" x2="0.252" y2="1.000" />
<line x1="0.270" y1="0.000" x2="0.270" y2="1.000" />




<line x1="0.360" y1="0.000" x2="0.360" y2="1.000" />
<line x1="0.378" y1="0.000" x2="0.378" y2="1.000" />





<line x1="0.485" y1="0.000" x2="0.485" y2="1.000" />
<line x1="0.503" y1="0.000" x2="0.503" y2="1.000" />






<line x1="0.629" y1="0.000" x2="0.629" y2="1.000" />
<line x1="0.647" y1="0.000" x2="0.647" y2="1.000" />







<line x1="0.791" y1="0.000" x2="0.791" y2="1.000" />
<line x1="0.809" y1="0.000" x2="0.809" y2="1.000" />








<line x1="0.971" y1="0.000" x2="0.971" y2="1.000" />
<line x1="0.989" y1="0.000" x2="0.989" y2="1.000" />









<line x1="1.169" y1="0.000" x2="1.169" y2="1.000" />
<line x1="1.187" y1="0.000" x2="1.187" y2="1.000" />










<line x1="1.384" y1="0.000" x2="1.384" y2="1.000" />
<line x1="1.402" y1="0.000" x2="1.402" y2="1.000" />











<line x1="1.618" y1="0.000" x2="1.618" y2="1.000" />
<line x1="1.636" y1="0.000" x2="1.636" y2="1.000" />
</g>
</svg>