<svg xmlns="http://www.w3.org/2000/svg" width="161.8" height="100.0" viewBox="-3.8 -5.0 171.8 110.0">
<g fill="none" stroke="black" stroke-width="1.0500%" transform="translate(0, 100.0000) scale(0.4762, -0.4762)">




<line x1="12.6" y1="0.0" x2="12.6" y2="2.0" />



<line x1="22.7" y1="0.0" x2="22.7" y2="6.0" />




<line x1="35.2" y1="0.0" x2="35.2" y2="12.0" />





<line x1="50.3" y1="0.0" x2="50.3" y2="20.0" />






<line x1="68.0" y1="0.0" x2="68.0" y2="30.0" />







<line x1="88.1" y1="0.0" x2="88.1" y2="42.0" />








<line x1="110.7" y1="0.0" x2="110.7" y2="56.0" />









<line x1="135.9" y1="0.0" x2="135.9" y2="72.0" />










<line x1="163.6" y1="0.0" x2="163.6" y2="90.0" />











<line x1="193.8" y1="0.0" x2="193.8" y2="110.0" />












<line x1="226.5" y1="0.0" x2="226.5" y2="132.0" />













<line x1="261.8" y1="0.0" x2="261.8" y2="156.0" />














<line x1="299.5" y1="0.0" x2="299.5" y2="182.0" />















<line x1="339.8" y1="0.0" x2="339.8" y2="210.0" />

</g>
</svg>