<svg xmlns="http://www.w3.org/2000/svg" width="161.8" height="100.0" viewBox="-0 -5 172 110">
<g fill="none" stroke="black" stroke-width="12.5650%" transform="translate(0, 100.0000) scale(0.0398, -0.0398)">
<line x1="120" y1="0" x2="120" y2="1" />


<line x1="478" y1="0" x2="478" y2="1" />

<line x1="718" y1="0" x2="718" y2="1" />
<line x1="837" y1="0" x2="837" y2="1" />
<line x1="957" y1="0" x2="957" y2="1" />
<line x1="1076" y1="0" x2="1076" y2="2" />
<line x1="1196" y1="0" x2="1196" y2="2" />
<line x1="1316" y1="0" x2="1316" y2="3" />
<line x1="1435" y1="0" x2="1435" y2="4" />
<line x1="1555" y1="0" x2="1555" y2="5" />
<line x1="1674" y1="0" x2="1674" y2="7" />
<line x1="1794" y1="0" x2="1794" y2="9" />
<line x1="1913" y1="0" x2="1913" y2="12" />
<line x1="2033" y1="0" x2="2033" y2="16" />
<line x1="2153" y1="0" x2="2153" y2="21" />
<line x1="2272" y1="0" x2="2272" y2="28" />
<line x1="2392" y1="0" x2="2392" y2="37" />
<line x1="2511" y1="0" x2="2511" y2="49" />
<line x1="2631" y1="0" x2="2631" y2="65" />
<line x1="2751" y1="0" x2="2751" y2="86" />
<line x1="2870" y1="0" x2="2870" y2="114" />
<line x1="2990" y1="0" x2="2990" y2="151" />
<line x1="3109" y1="0" x2="3109" y2="200" />
<line x1="3229" y1="0" x2="3229" y2="265" />
<line x1="3349" y1="0" x2="3349" y2="351" />
<line x1="3468" y1="0" x2="3468" y2="465" />
<line x1="3588" y1="0" x2="3588" y2="616" />
<line x1="3707" y1="0" x2="3707" y2="816" />
<line x1="3827" y1="0" x2="3827" y2="1081" />
<line x1="3947" y1="0" x2="3947" y2="1432" />
<line x1="4066" y1="0" x2="4066" y2="1897" />
<line x1="4186" y1="0" x2="4186" y2="2513" />
</g>
</svg>