<svg xmlns="http://www.w3.org/2000/svg" width="99.8" height="100.0" viewBox="-54.704 -55.000 109.803 110.000">
<g fill="none" stroke="black" stroke-width="0.0100%" transform="translate(0, 0.0000) scale(50.0989, -50.0989)">
<circle cx="1.000" cy="0.000" r="0.010" />
<circle cx="0.969" cy="0.249" r="0.010" />
<circle cx="0.876" cy="0.482" r="0.010" />
<circle cx="0.729" cy="0.685" r="0.010" />
<circle cx="0.536" cy="0.844" r="0.010" />
<circle cx="0.309" cy="0.951" r="0.010" />
<circle cx="0.063" cy="0.998" r="0.010" />
<circle cx="-0.187" cy="0.982" r="0.010" />
<circle cx="-0.426" cy="0.905" r="0.010" />
<circle cx="-0.637" cy="0.771" r="0.010" />
<circle cx="-0.809" cy="0.588" r="0.010" />
<circle cx="-0.930" cy="0.368" r="0.010" />
<circle cx="-0.992" cy="0.125" r="0.010" />
<circle cx="-0.992" cy="-0.125" r="0.010" />
<circle cx="-0.930" cy="-0.368" r="0.010" />
<circle cx="-0.809" cy="-0.588" r="0.010" />
<circle cx="-0.637" cy="-0.771" r="0.010" />
<circle cx="-0.426" cy="-0.905" r="0.010" />
<circle cx="-0.187" cy="-0.982" r="0.010" />
<circle cx="0.063" cy="-0.998" r="0.010" />
<circle cx="0.309" cy="-0.951" r="0.010" />
<circle cx="0.536" cy="-0.844" r="0.010" />
<circle cx="0.729" cy="-0.685" r="0.010" />
<circle cx="0.876" cy="-0.482" r="0.010" />
<circle cx="0.969" cy="-0.249" r="0.010" />
<line x1="1.000" y1="0.000" x2="0.969" y2="0.249" />
<line x1="1.000" y1="0.000" x2="0.536" y2="0.844" />
<line x1="1.000" y1="0.000" x2="0.063" y2="0.998" />
<line x1="1.000" y1="0.000" x2="-0.637" y2="0.771" />
<line x1="1.000" y1="0.000" x2="-0.930" y2="0.368" />
<line x1="1.000" y1="0.000" x2="-0.930" y2="-0.368" />
<line x1="1.000" y1="0.000" x2="-0.637" y2="-0.771" />
<line x1="1.000" y1="0.000" x2="0.063" y2="-0.998" />
<line x1="1.000" y1="0.000" x2="0.536" y2="-0.844" />
<line x1="1.000" y1="0.000" x2="0.969" y2="-0.249" />
<line x1="0.969" y1="0.249" x2="0.876" y2="0.482" />
<line x1="0.969" y1="0.249" x2="0.309" y2="0.951" />
<line x1="0.969" y1="0.249" x2="-0.187" y2="0.982" />
<line x1="0.969" y1="0.249" x2="-0.809" y2="0.588" />
<line x1="0.969" y1="0.249" x2="-0.992" y2="0.125" />
<line x1="0.969" y1="0.249" x2="-0.809" y2="-0.588" />
<line x1="0.969" y1="0.249" x2="-0.426" y2="-0.905" />
<line x1="0.969" y1="0.249" x2="0.309" y2="-0.951" />
<line x1="0.969" y1="0.249" x2="0.729" y2="-0.685" />
<line x1="0.876" y1="0.482" x2="0.729" y2="0.685" />
<line x1="0.876" y1="0.482" x2="0.063" y2="0.998" />
<line x1="0.876" y1="0.482" x2="-0.426" y2="0.905" />
<line x1="0.876" y1="0.482" x2="-0.930" y2="0.368" />
<line x1="0.876" y1="0.482" x2="-0.992" y2="-0.125" />
<line x1="0.876" y1="0.482" x2="-0.637" y2="-0.771" />
<line x1="0.876" y1="0.482" x2="-0.187" y2="-0.982" />
<line x1="0.876" y1="0.482" x2="0.536" y2="-0.844" />
<line x1="0.876" y1="0.482" x2="0.876" y2="-0.482" />
<line x1="0.729" y1="0.685" x2="0.536" y2="0.844" />
<line x1="0.729" y1="0.685" x2="-0.187" y2="0.982" />
<line x1="0.729" y1="0.685" x2="-0.637" y2="0.771" />
<line x1="0.729" y1="0.685" x2="-0.992" y2="0.125" />
<line x1="0.729" y1="0.685" x2="-0.930" y2="-0.368" />
<line x1="0.729" y1="0.685" x2="-0.426" y2="-0.905" />
<line x1="0.729" y1="0.685" x2="0.063" y2="-0.998" />
<line x1="0.729" y1="0.685" x2="0.729" y2="-0.685" />
<line x1="0.729" y1="0.685" x2="0.969" y2="-0.249" />
<line x1="0.536" y1="0.844" x2="0.309" y2="0.951" />
<line x1="0.536" y1="0.844" x2="-0.426" y2="0.905" />
<line x1="0.536" y1="0.844" x2="-0.809" y2="0.588" />
<line x1="0.536" y1="0.844" x2="-0.992" y2="-0.125" />
<line x1="0.536" y1="0.844" x2="-0.809" y2="-0.588" />
<line x1="0.536" y1="0.844" x2="-0.187" y2="-0.982" />
<line x1="0.536" y1="0.844" x2="0.309" y2="-0.951" />
<line x1="0.536" y1="0.844" x2="0.876" y2="-0.482" />
<line x1="0.309" y1="0.951" x2="0.063" y2="0.998" />
<line x1="0.309" y1="0.951" x2="-0.637" y2="0.771" />
<line x1="0.309" y1="0.951" x2="-0.930" y2="0.368" />
<line x1="0.309" y1="0.951" x2="-0.930" y2="-0.368" />
<line x1="0.309" y1="0.951" x2="-0.637" y2="-0.771" />
<line x1="0.309" y1="0.951" x2="0.063" y2="-0.998" />
<line x1="0.309" y1="0.951" x2="0.536" y2="-0.844" />
<line x1="0.309" y1="0.951" x2="0.969" y2="-0.249" />
<line x1="0.063" y1="0.998" x2="-0.187" y2="0.982" />
<line x1="0.063" y1="0.998" x2="-0.809" y2="0.588" />
<line x1="0.063" y1="0.998" x2="-0.992" y2="0.125" />
<line x1="0.063" y1="0.998" x2="-0.809" y2="-0.588" />
<line x1="0.063" y1="0.998" x2="-0.426" y2="-0.905" />
<line x1="0.063" y1="0.998" x2="0.309" y2="-0.951" />
<line x1="0.063" y1="0.998" x2="0.729" y2="-0.685" />
<line x1="-0.187" y1="0.982" x2="-0.426" y2="0.905" />
<line x1="-0.187" y1="0.982" x2="-0.930" y2="0.368" />
<line x1="-0.187" y1="0.982" x2="-0.992" y2="-0.125" />
<line x1="-0.187" y1="0.982" x2="-0.637" y2="-0.771" />
<line x1="-0.187" y1="0.982" x2="-0.187" y2="-0.982" />
<line x1="-0.187" y1="0.982" x2="0.536" y2="-0.844" />
<line x1="-0.187" y1="0.982" x2="0.876" y2="-0.482" />
<line x1="-0.426" y1="0.905" x2="-0.637" y2="0.771" />
<line x1="-0.426" y1="0.905" x2="-0.992" y2="0.125" />
<line x1="-0.426" y1="0.905" x2="-0.930" y2="-0.368" />
<line x1="-0.426" y1="0.905" x2="-0.426" y2="-0.905" />
<line x1="-0.426" y1="0.905" x2="0.063" y2="-0.998" />
<line x1="-0.426" y1="0.905" x2="0.729" y2="-0.685" />
<line x1="-0.426" y1="0.905" x2="0.969" y2="-0.249" />
<line x1="-0.637" y1="0.771" x2="-0.809" y2="0.588" />
<line x1="-0.637" y1="0.771" x2="-0.992" y2="-0.125" />
<line x1="-0.637" y1="0.771" x2="-0.809" y2="-0.588" />
<line x1="-0.637" y1="0.771" x2="-0.187" y2="-0.982" />
<line x1="-0.637" y1="0.771" x2="0.309" y2="-0.951" />
<line x1="-0.637" y1="0.771" x2="0.876" y2="-0.482" />
<line x1="-0.809" y1="0.588" x2="-0.930" y2="0.368" />
<line x1="-0.809" y1="0.588" x2="-0.930" y2="-0.368" />
<line x1="-0.809" y1="0.588" x2="-0.637" y2="-0.771" />
<line x1="-0.809" y1="0.588" x2="0.063" y2="-0.998" />
<line x1="-0.809" y1="0.588" x2="0.536" y2="-0.844" />
<line x1="-0.809" y1="0.588" x2="0.969" y2="-0.249" />
<line x1="-0.930" y1="0.368" x2="-0.992" y2="0.125" />
<line x1="-0.930" y1="0.368" x2="-0.809" y2="-0.588" />
<line x1="-0.930" y1="0.368" x2="-0.426" y2="-0.905" />
<line x1="-0.930" y1="0.368" x2="0.309" y2="-0.951" />
<line x1="-0.930" y1="0.368" x2="0.729" y2="-0.685" />
<line x1="-0.992" y1="0.125" x2="-0.992" y2="-0.125" />
<line x1="-0.992" y1="0.125" x2="-0.637" y2="-0.771" />
<line x1="-0.992" y1="0.125" x2="-0.187" y2="-0.982" />
<line x1="-0.992" y1="0.125" x2="0.536" y2="-0.844" />
<line x1="-0.992" y1="0.125" x2="0.876" y2="-0.482" />
<line x1="-0.992" y1="-0.125" x2="-0.930" y2="-0.368" />
<line x1="-0.992" y1="-0.125" x2="-0.426" y2="-0.905" />
<line x1="-0.992" y1="-0.125" x2="0.063" y2="-0.998" />
<line x1="-0.992" y1="-0.125" x2="0.729" y2="-0.685" />
<line x1="-0.992" y1="-0.125" x2="0.969" y2="-0.249" />
<line x1="-0.930" y1="-0.368" x2="-0.809" y2="-0.588" />
<line x1="-0.930" y1="-0.368" x2="-0.187" y2="-0.982" />
<line x1="-0.930" y1="-0.368" x2="0.309" y2="-0.951" />
<line x1="-0.930" y1="-0.368" x2="0.876" y2="-0.482" />
<line x1="-0.809" y1="-0.588" x2="-0.637" y2="-0.771" />
<line x1="-0.809" y1="-0.588" x2="0.063" y2="-0.998" />
<line x1="-0.809" y1="-0.588" x2="0.536" y2="-0.844" />
<line x1="-0.809" y1="-0.588" x2="0.969" y2="-0.249" />
<line x1="-0.637" y1="-0.771" x2="-0.426" y2="-0.905" />
<line x1="-0.637" y1="-0.771" x2="0.309" y2="-0.951" />
<line x1="-0.637" y1="-0.771" x2="0.729" y2="-0.685" />
<line x1="-0.426" y1="-0.905" x2="-0.187" y2="-0.982" />
<line x1="-0.426" y1="-0.905" x2="0.536" y2="-0.844" />
<line x1="-0.426" y1="-0.905" x2="0.876" y2="-0.482" />
<line x1="-0.187" y1="-0.982" x2="0.063" y2="-0.998" />
<line x1="-0.187" y1="-0.982" x2="0.729" y2="-0.685" />
<line x1="-0.187" y1="-0.982" x2="0.969" y2="-0.249" />
<line x1="0.063" y1="-0.998" x2="0.309" y2="-0.951" />
<line x1="0.063" y1="-0.998" x2="0.876" y2="-0.482" />
<line x1="0.309" y1="-0.951" x2="0.536" y2="-0.844" />
<line x1="0.309" y1="-0.951" x2="0.969" y2="-0.249" />
<line x1="0.536" y1="-0.844" x2="0.729" y2="-0.685" />
<line x1="0.729" y1="-0.685" x2="0.876" y2="-0.482" />
<line x1="0.876" y1="-0.482" x2="0.969" y2="-0.249" />
</g>
</svg>