<svg xmlns="http://www.w3.org/2000/svg" width="99.7" height="100.0" viewBox="-54.43 -55.00 109.71 110.00">
<g fill="none" stroke="black" stroke-width="0.1268%" transform="translate(0, 0.0000) scale(3.9440, -3.9440)">
<polyline points="6.75,0.00 6.79,0.00 6.92,0.03 7.12,0.10 7.39,0.24 7.71,0.45 8.05,0.77 8.40,1.18 8.73,1.70 9.02,2.33 9.25,3.06 9.39,3.87 9.42,4.76 9.33,5.70 9.10,6.68 8.72,7.65 8.20,8.61 7.54,9.52 6.73,10.35 5.81,11.08 4.78,11.70 3.66,12.18 2.48,12.51 1.27,12.67 0.05,12.68 -1.15,12.52 -2.30,12.21 -3.38,11.76 -4.36,11.18 -5.23,10.50 -5.98,9.74 -6.59,8.92 -7.06,8.08 -7.39,7.22 -7.59,6.39 -7.68,5.61 -7.66,4.88 -7.56,4.24 -7.39,3.69 -7.18,3.23 -6.96,2.88 -6.75,2.62 -6.56,2.45 -6.42,2.35 -6.35,2.31 -6.36,2.31 -6.45,2.33 -6.62,2.34 -6.88,2.33 -7.22,2.26 -7.63,2.12 -8.08,1.90 -8.57,1.57 -9.06,1.13 -9.54,0.57 -9.97,-0.10 -10.34,-0.87 -10.62,-1.75 -10.79,-2.71 -10.84,-3.74 -10.74,-4.80 -10.49,-5.89 -10.09,-6.96 -9.54,-7.99 -8.84,-8.96 -8.01,-9.84 -7.06,-10.60 -6.02,-11.24 -4.90,-11.73 -3.73,-12.06 -2.54,-12.24 -1.36,-12.25 -0.22,-12.11 0.87,-11.83 1.87,-11.42 2.77,-10.90 3.56,-10.29 4.22,-9.63 4.75,-8.92 5.16,-8.21 5.44,-7.51 5.61,-6.85 5.68,-6.24 5.67,-5.71 5.60,-5.26 5.50,-4.90 5.38,-4.63 5.27,-4.46 5.20,-4.36 5.17,-4.34 5.21,-4.37 5.34,-4.43 5.55,-4.51 5.85,-4.57 6.24,-4.61 6.71,-4.58 7.26,-4.48 7.85,-4.28 8.48,-3.98 9.12,-3.55 9.75,-3.00 10.34,-2.33 10.86,-1.53 11.30,-0.63 11.63,0.37 11.83,1.45 11.89,2.57 11.79,3.73 11.54,4.89 11.13,6.02 10.56,7.09 9.85,8.09 9.02,8.99 8.08,9.76 7.05,10.39 5.97,10.88 4.85,11.21 3.73,11.38 2.62,11.40 1.57,11.28 0.59,11.04 -0.31,10.68 -1.10,10.23 -1.78,9.72 -2.33,9.17 -2.77,8.60 -3.09,8.04 -3.31,7.52 -3.43,7.04 -3.49,6.64 -3.48,6.31 -3.45,6.07 -3.41,5.92 -3.38,5.85 -3.39,5.86 -3.45,5.94 -3.59,6.07 -3.81,6.23 -4.12,6.39 -4.53,6.54 -5.03,6.66 -5.63,6.71 -6.29,6.68 -7.02,6.55 -7.79,6.30 -8.57,5.93 -9.35,5.42 -10.09,4.78 -10.78,4.01 -11.38,3.12 -11.87,2.12 -12.24,1.03 -12.46,-0.12 -12.53,-1.31 -12.44,-2.52 -12.19,-3.71 -11.78,-4.87 -11.22,-5.95 -10.53,-6.95 -9.72,-7.83 -8.81,-8.58 -7.84,-9.20 -6.83,-9.66 -5.79,-9.97 -4.77,-10.14 -3.78,-10.17 -2.85,-10.07 -2.00,-9.86 -1.25,-9.57 -0.59,-9.21 -0.05,-8.80 0.38,-8.38 0.71,-7.97 0.93,-7.59 1.07,-7.25 1.15,-6.98 1.17,-6.78 1.17,-6.67 1.17,-6.65 1.19,-6.71 1.25,-6.85 1.37,-7.05 1.57,-7.29 1.86,-7.57 2.25,-7.86 2.74,-8.12 3.33,-8.35 4.02,-8.51 4.80,-8.59 5.64,-8.56 6.53,-8.40 7.44,-8.12 8.36,-7.69 9.24,-7.12 10.08,-6.41 10.84,-5.57 11.50,-4.61 12.03,-3.55 12.43,-2.41 12.67,-1.22 12.75,-0.00 12.67,1.22 12.43,2.41 12.03,3.55 11.50,4.61 10.84,5.57 10.08,6.41 9.24,7.12 8.36,7.69 7.44,8.12 6.53,8.40 5.64,8.56 4.80,8.59 4.02,8.51 3.33,8.35 2.74,8.12 2.25,7.86 1.86,7.57 1.57,7.29 1.37,7.05 1.25,6.85 1.19,6.71 1.17,6.65 1.17,6.67 1.17,6.78 1.15,6.98 1.07,7.25 0.93,7.59 0.71,7.97 0.38,8.38 -0.05,8.80 -0.59,9.21 -1.25,9.57 -2.00,9.86 -2.85,10.07 -3.78,10.17 -4.77,10.14 -5.79,9.97 -6.83,9.66 -7.84,9.20 -8.81,8.58 -9.72,7.83 -10.53,6.95 -11.22,5.95 -11.78,4.87 -12.19,3.71 -12.44,2.52 -12.53,1.31 -12.46,0.12 -12.24,-1.03 -11.87,-2.12 -11.38,-3.12 -10.78,-4.01 -10.09,-4.78 -9.35,-5.42 -8.57,-5.93 -7.79,-6.30 -7.02,-6.55 -6.29,-6.68 -5.63,-6.71 -5.03,-6.66 -4.53,-6.54 -4.12,-6.39 -3.81,-6.23 -3.59,-6.07 -3.45,-5.94 -3.39,-5.86 -3.38,-5.85 -3.41,-5.92 -3.45,-6.07 -3.48,-6.31 -3.49,-6.64 -3.43,-7.04 -3.31,-7.52 -3.09,-8.04 -2.77,-8.60 -2.33,-9.17 -1.78,-9.72 -1.10,-10.23 -0.31,-10.68 0.59,-11.04 1.57,-11.28 2.62,-11.40 3.73,-11.38 4.85,-11.21 5.97,-10.88 7.05,-10.39 8.08,-9.76 9.02,-8.99 9.85,-8.09 10.56,-7.09 11.13,-6.02 11.54,-4.89 11.79,-3.73 11.89,-2.57 11.83,-1.45 11.63,-0.37 11.30,0.63 10.86,1.53 10.34,2.33 9.75,3.00 9.12,3.55 8.48,3.98 7.85,4.28 7.26,4.48 6.71,4.58 6.24,4.61 5.85,4.57 5.55,4.51 5.34,4.43 5.21,4.37 5.17,4.34 5.20,4.36 5.27,4.46 5.38,4.63 5.50,4.90 5.60,5.26 5.67,5.71 5.68,6.24 5.61,6.85 5.44,7.51 5.16,8.21 4.75,8.92 4.22,9.63 3.56,10.29 2.77,10.90 1.87,11.42 0.87,11.83 -0.22,12.11 -1.36,12.25 -2.54,12.24 -3.73,12.06 -4.90,11.73 -6.02,11.24 -7.06,10.60 -8.01,9.84 -8.84,8.96 -9.54,7.99 -10.09,6.96 -10.49,5.89 -10.74,4.80 -10.84,3.74 -10.79,2.71 -10.62,1.75 -10.34,0.87 -9.97,0.10 -9.54,-0.57 -9.06,-1.13 -8.57,-1.57 -8.08,-1.90 -7.63,-2.12 -7.22,-2.26 -6.88,-2.33 -6.62,-2.34 -6.45,-2.33 -6.36,-2.31 -6.35,-2.31 -6.42,-2.35 -6.56,-2.45 -6.75,-2.62 -6.96,-2.88 -7.18,-3.23 -7.39,-3.69 -7.56,-4.24 -7.66,-4.88 -7.68,-5.61 -7.59,-6.39 -7.39,-7.22 -7.06,-8.08 -6.59,-8.92 -5.98,-9.74 -5.23,-10.50 -4.36,-11.18 -3.38,-11.76 -2.30,-12.21 -1.15,-12.52 0.05,-12.68 1.27,-12.67 2.48,-12.51 3.66,-12.18 4.78,-11.70 5.81,-11.08 6.73,-10.35 7.54,-9.52 8.20,-8.61 8.72,-7.65 9.10,-6.68 9.33,-5.70 9.42,-4.76 9.39,-3.87 9.25,-3.06 9.02,-2.33 8.73,-1.70 8.40,-1.18 8.05,-0.77 7.71,-0.45 7.39,-0.24 7.12,-0.10 6.92,-0.03 6.79,-0.00" />
</g>
</svg>