<svg xmlns="http://www.w3.org/2000/svg" width="161.8" height="100.0" viewBox="-5.000 -5.000 171.803 110.000">
<g fill="none" stroke="black" stroke-width="0.0050%" transform="translate(0, 100.0000) scale(100.0000, -100.0000)">
<g stroke="rgb(166,166,166)" >
<line x1="0.000" y1="0.000" x2="0.000" y2="1.000" />
<line x1="0.270" y1="0.000" x2="0.270" y2="1.000" />
<line x1="0.539" y1="0.000" x2="0.539" y2="1.000" />
<line x1="0.809" y1="0.000" x2="0.809" y2="1.000" />
<line x1="1.079" y1="0.000" x2="1.079" y2="1.000" />
<line x1="1.348" y1="0.000" x2="1.348" y2="1.000" />
<line x1="1.618" y1="0.000" x2="1.618" y2="1.000" />
</g>
<polyline points="0.000,0.131 0.270,0.000 0.539,1.000 0.809,0.000 1.079,0.000 1.348,0.000 1.618,1.000" />
<polyline points="0.000,0.118 0.270,0.024 0.539,0.976 0.809,0.024 1.079,0.024 1.348,0.000 1.618,0.445" />
<polyline points="0.000,0.503 0.270,0.039 0.539,0.961 0.809,0.039 1.079,0.039 1.348,0.000 1.618,0.322" />
<polyline points="0.000,0.789 0.270,0.041 0.539,0.959 0.809,0.041 1.079,0.041 1.348,0.000 1.618,0.312" />
<polyline points="0.000,0.406 0.270,0.064 0.539,0.936 0.809,0.064 1.079,0.064 1.348,0.000 1.618,0.221" />
<polyline points="0.000,0.461 0.270,0.118 0.539,0.882 0.809,0.118 1.079,0.118 1.348,0.000 1.618,0.127" />
<polyline points="0.000,0.024 0.270,0.131 0.539,0.869 0.809,0.131 1.079,0.131 1.348,0.000 1.618,0.115" />
<polyline points="0.000,0.312 0.270,0.153 0.539,0.847 0.809,0.153 1.079,0.153 1.348,0.000 1.618,0.097" />
<polyline points="0.000,1.000 0.270,0.239 0.539,0.761 0.809,0.239 1.079,0.239 1.348,0.000 1.618,0.058" />
<polyline points="0.000,0.242 0.270,0.242 0.539,0.758 0.809,0.242 1.079,0.242 1.348,0.000 1.618,0.057" />
<polyline points="0.000,0.883 0.270,0.312 0.539,0.688 0.809,0.312 1.079,0.312 1.348,0.000 1.618,0.041" />
<polyline points="0.000,0.041 0.270,0.316 0.539,0.684 0.809,0.316 1.079,0.316 1.348,0.000 1.618,0.040" />
<polyline points="0.000,0.316 0.270,0.398 0.539,0.602 0.809,0.398 1.079,0.398 1.348,0.000 1.618,0.029" />
<polyline points="0.000,0.398 0.270,0.406 0.539,0.594 0.809,0.406 1.079,0.406 1.348,0.000 1.618,0.028" />
<polyline points="0.000,0.630 0.270,0.429 0.539,0.571 0.809,0.429 1.079,0.429 1.348,0.000 1.618,0.025" />
<polyline points="0.000,0.529 0.270,0.461 0.539,0.539 0.809,0.461 1.079,0.461 1.348,0.000 1.618,0.022" />
<polyline points="0.000,0.064 0.270,0.503 0.539,0.497 0.809,0.503 1.079,0.503 1.348,0.000 1.618,0.019" />
<polyline points="0.000,0.429 0.270,0.529 0.539,0.471 0.809,0.529 1.079,0.529 1.348,0.000 1.618,0.017" />
<polyline points="0.000,0.153 0.270,0.630 0.539,0.370 0.809,0.630 1.079,0.630 1.348,0.001 1.618,0.011" />
<polyline points="0.000,0.995 0.270,0.738 0.539,0.262 0.809,0.738 1.079,0.738 1.348,0.007 1.618,0.007" />
<polyline points="0.000,0.039 0.270,0.789 0.539,0.211 0.809,0.789 1.079,0.789 1.348,0.018 1.618,0.005" />
<polyline points="0.000,0.000 0.270,0.883 0.539,0.117 0.809,0.883 1.079,0.883 1.348,0.109 1.618,0.003" />
<polyline points="0.000,0.970 0.270,0.970 0.539,0.030 0.809,0.970 1.079,0.970 1.348,0.561 1.618,0.001" />
<polyline points="0.000,0.738 0.270,0.995 0.539,0.005 0.809,0.995 1.079,0.995 1.348,0.903 1.618,0.000" />
<polyline points="0.000,0.239 0.270,1.000 0.539,0.000 0.809,1.000 1.079,1.000 1.348,1.000 1.618,0.000" />
</g>
</svg>