<svg xmlns="http://www.w3.org/2000/svg" width="100.2" height="100.0" viewBox="-55.099 -55.000 110.198 110.000">
<g fill="none" stroke="black" stroke-width="0.0100%" transform="translate(0, 0.0000) scale(50.0989, -50.0989)">
<circle cx="-1.000" cy="0.000" r="0.010" />
<circle cx="0.000" cy="0.998" r="0.010" />
<polyline points="0.000,0.000 0.063,0.125 0.125,0.249 0.187,0.368 0.249,0.482 0.309,0.588 0.368,0.685 0.426,0.771 0.482,0.844 0.536,0.905 0.588,0.951 0.637,0.982 0.685,0.998 0.729,0.998 0.771,0.982 0.809,0.951 0.844,0.905 0.876,0.844 0.905,0.771 0.930,0.685 0.951,0.588 0.969,0.482 0.982,0.368 0.992,0.249 0.998,0.125 1.000,-0.000 0.998,-0.125 0.992,-0.249 0.982,-0.368 0.969,-0.482 0.951,-0.588 0.930,-0.685 0.905,-0.771 0.876,-0.844 0.844,-0.905 0.809,-0.951 0.771,-0.982 0.729,-0.998 0.685,-0.998 0.637,-0.982 0.588,-0.951 0.536,-0.905 0.482,-0.844 0.426,-0.771 0.368,-0.685 0.309,-0.588 0.249,-0.482 0.187,-0.368 0.125,-0.249 0.063,-0.125 -0.000,0.000 -0.063,0.125 -0.125,0.249 -0.187,0.368 -0.249,0.482 -0.309,0.588 -0.368,0.685 -0.426,0.771 -0.482,0.844 -0.536,0.905 -0.588,0.951 -0.637,0.982 -0.685,0.998 -0.729,0.998 -0.771,0.982 -0.809,0.951 -0.844,0.905 -0.876,0.844 -0.905,0.771 -0.930,0.685 -0.951,0.588 -0.969,0.482 -0.982,0.368 -0.992,0.249 -0.998,0.125 -1.000,0.000 -0.998,-0.125 -0.992,-0.249 -0.982,-0.368 -0.969,-0.482 -0.951,-0.588 -0.930,-0.685 -0.905,-0.771 -0.876,-0.844 -0.844,-0.905 -0.809,-0.951 -0.771,-0.982 -0.729,-0.998 -0.685,-0.998 -0.637,-0.982 -0.588,-0.951 -0.536,-0.905 -0.482,-0.844 -0.426,-0.771 -0.368,-0.685 -0.309,-0.588 -0.249,-0.482 -0.187,-0.368 -0.125,-0.249 -0.063,-0.125" />
</g>
</svg>