<svg xmlns="http://www.w3.org/2000/svg" width="100.0" height="100.0" viewBox="-55.000 -55.000 110.000 110.000">
<g fill="none" stroke="black" stroke-width="0.0100%" transform="translate(0, 0.0000) scale(50.0000, -50.0000)">
<circle cx="-1.000" cy="0.000" r="0.010" />
<circle cx="0.000" cy="1.000" r="0.010" />
<polyline points="1.000,0.000 0.998,0.063 0.992,0.125 0.982,0.187 0.969,0.249 0.951,0.309 0.930,0.368 0.905,0.426 0.876,0.482 0.844,0.536 0.809,0.588 0.771,0.637 0.729,0.685 0.685,0.729 0.637,0.771 0.588,0.809 0.536,0.844 0.482,0.876 0.426,0.905 0.368,0.930 0.309,0.951 0.249,0.969 0.187,0.982 0.125,0.992 0.063,0.998 -0.000,1.000 -0.063,0.998 -0.125,0.992 -0.187,0.982 -0.249,0.969 -0.309,0.951 -0.368,0.930 -0.426,0.905 -0.482,0.876 -0.536,0.844 -0.588,0.809 -0.637,0.771 -0.685,0.729 -0.729,0.685 -0.771,0.637 -0.809,0.588 -0.844,0.536 -0.876,0.482 -0.905,0.426 -0.930,0.368 -0.951,0.309 -0.969,0.249 -0.982,0.187 -0.992,0.125 -0.998,0.063 -1.000,-0.000 -0.998,-0.063 -0.992,-0.125 -0.982,-0.187 -0.969,-0.249 -0.951,-0.309 -0.930,-0.368 -0.905,-0.426 -0.876,-0.482 -0.844,-0.536 -0.809,-0.588 -0.771,-0.637 -0.729,-0.685 -0.685,-0.729 -0.637,-0.771 -0.588,-0.809 -0.536,-0.844 -0.482,-0.876 -0.426,-0.905 -0.368,-0.930 -0.309,-0.951 -0.249,-0.969 -0.187,-0.982 -0.125,-0.992 -0.063,-0.998 -0.000,-1.000 0.063,-0.998 0.125,-0.992 0.187,-0.982 0.249,-0.969 0.309,-0.951 0.368,-0.930 0.426,-0.905 0.482,-0.876 0.536,-0.844 0.588,-0.809 0.637,-0.771 0.685,-0.729 0.729,-0.685 0.771,-0.637 0.809,-0.588 0.844,-0.536 0.876,-0.482 0.905,-0.426 0.930,-0.368 0.951,-0.309 0.969,-0.249 0.982,-0.187 0.992,-0.125 0.998,-0.063" />
</g>
</svg>