<svg xmlns="http://www.w3.org/2000/svg" width="100.0" height="100.0" viewBox="15.00 15.00 110.00 110.00">
<g fill="none" stroke="black" stroke-width="0.1000%" transform="translate(0, 140.0000) scale(5.0000, -5.0000)">
<polygon points="4.00,4.00 7.00,4.00 8.00,8.00 5.00,8.00" />
<polygon points="5.00,8.00 8.00,8.00 9.00,12.00 6.00,12.00" />
<polygon points="6.00,12.00 9.00,12.00 10.00,16.00 7.00,16.00" />
<polygon points="7.00,16.00 10.00,16.00 11.00,20.00 8.00,20.00" />
<polygon points="8.00,20.00 11.00,20.00 12.00,24.00 9.00,24.00" />
<polygon points="7.00,4.00 10.00,4.00 11.00,8.00 8.00,8.00" />
<polygon points="8.00,8.00 11.00,8.00 12.00,12.00 9.00,12.00" />
<polygon points="9.00,12.00 12.00,12.00 13.00,16.00 10.00,16.00" />
<polygon points="10.00,16.00 13.00,16.00 14.00,20.00 11.00,20.00" />
<polygon points="11.00,20.00 14.00,20.00 15.00,24.00 12.00,24.00" />
<polygon points="10.00,4.00 13.00,4.00 14.00,8.00 11.00,8.00" />
<polygon points="11.00,8.00 14.00,8.00 15.00,12.00 12.00,12.00" />
<polygon points="12.00,12.00 15.00,12.00 16.00,16.00 13.00,16.00" />
<polygon points="13.00,16.00 16.00,16.00 17.00,20.00 14.00,20.00" />
<polygon points="14.00,20.00 17.00,20.00 18.00,24.00 15.00,24.00" />
<polygon points="13.00,4.00 16.00,4.00 17.00,8.00 14.00,8.00" />
<polygon points="14.00,8.00 17.00,8.00 18.00,12.00 15.00,12.00" />
<polygon points="15.00,12.00 18.00,12.00 19.00,16.00 16.00,16.00" />
<polygon points="16.00,16.00 19.00,16.00 20.00,20.00 17.00,20.00" />
<polygon points="17.00,20.00 20.00,20.00 21.00,24.00 18.00,24.00" />
<polygon points="16.00,4.00 19.00,4.00 20.00,8.00 17.00,8.00" />
<polygon points="17.00,8.00 20.00,8.00 21.00,12.00 18.00,12.00" />
<polygon points="18.00,12.00 21.00,12.00 22.00,16.00 19.00,16.00" />
<polygon points="19.00,16.00 22.00,16.00 23.00,20.00 20.00,20.00" />
<polygon points="20.00,20.00 23.00,20.00 24.00,24.00 21.00,24.00" />
</g>
</svg>