<svg xmlns="http://www.w3.org/2000/svg" width="161.8" height="100.0" viewBox="-5.000 -5.000 171.803 110.000">
<g fill="none" stroke="black" stroke-width="0.0050%" transform="translate(0, 100.0000) scale(100.0000, -100.0000)">
<g stroke="rgb(166,166,166)" >
<line x1="0.000" y1="0.000" x2="0.000" y2="1.000" />
<line x1="0.270" y1="0.000" x2="0.270" y2="1.000" />
<line x1="0.539" y1="0.000" x2="0.539" y2="1.000" />
<line x1="0.809" y1="0.000" x2="0.809" y2="1.000" />
<line x1="1.079" y1="0.000" x2="1.079" y2="1.000" />
<line x1="1.348" y1="0.000" x2="1.348" y2="1.000" />
<line x1="1.618" y1="0.000" x2="1.618" y2="1.000" />
</g>
<polyline points="0.000,0.000 0.270,0.000 0.539,0.000 0.809,0.000 1.079,0.000 1.348,0.000 1.618,0.000" />
<polyline points="0.000,0.050 0.270,0.050 0.539,0.100 0.809,0.050 1.079,0.150 1.348,0.090 1.618,0.160" />
<polyline points="0.000,0.150 0.270,0.300 0.539,0.200 0.809,0.200 1.079,0.200 1.348,0.220 1.618,0.340" />
<polyline points="0.000,0.250 0.270,0.380 0.539,0.250 0.809,0.350 1.079,0.250 1.348,0.250 1.618,0.360" />
<polyline points="0.000,0.550 0.270,0.470 0.539,0.400 0.809,0.500 1.079,0.430 1.348,0.450 1.618,0.620" />
<polyline points="0.000,0.750 0.270,0.550 0.539,0.500 0.809,0.650 1.079,0.480 1.348,0.500 1.618,0.650" />
<polyline points="0.000,0.800 0.270,0.680 0.539,0.600 0.809,0.750 1.079,0.650 1.348,0.700 1.618,0.760" />
<polyline points="0.000,0.900 0.270,0.900 0.539,0.800 0.809,0.900 1.079,0.820 1.348,0.890 1.618,0.880" />
<polyline points="0.000,1.000 0.270,1.000 0.539,1.000 0.809,1.000 1.079,1.000 1.348,1.000 1.618,1.000" />
</g>
</svg>