<svg xmlns="http://www.w3.org/2000/svg" width="200.0" height="100.0" viewBox="35.00 15.00 210.00 110.00">
<g fill="none" stroke="black" stroke-width="0.0250%" transform="translate(0, 140.0000) scale(20.0000, -20.0000)">
<polygon points="2.00,1.00 3.00,1.00 4.00,2.00 3.00,2.00" />
<polygon points="3.00,2.00 4.00,2.00 5.00,3.00 4.00,3.00" />
<polygon points="4.00,3.00 5.00,3.00 6.00,4.00 5.00,4.00" />
<polygon points="5.00,4.00 6.00,4.00 7.00,5.00 6.00,5.00" />
<polygon points="6.00,5.00 7.00,5.00 8.00,6.00 7.00,6.00" />
<polygon points="3.00,1.00 4.00,1.00 5.00,2.00 4.00,2.00" />
<polygon points="4.00,2.00 5.00,2.00 6.00,3.00 5.00,3.00" />
<polygon points="5.00,3.00 6.00,3.00 7.00,4.00 6.00,4.00" />
<polygon points="6.00,4.00 7.00,4.00 8.00,5.00 7.00,5.00" />
<polygon points="7.00,5.00 8.00,5.00 9.00,6.00 8.00,6.00" />
<polygon points="4.00,1.00 5.00,1.00 6.00,2.00 5.00,2.00" />
<polygon points="5.00,2.00 6.00,2.00 7.00,3.00 6.00,3.00" />
<polygon points="6.00,3.00 7.00,3.00 8.00,4.00 7.00,4.00" />
<polygon points="7.00,4.00 8.00,4.00 9.00,5.00 8.00,5.00" />
<polygon points="8.00,5.00 9.00,5.00 10.00,6.00 9.00,6.00" />
<polygon points="5.00,1.00 6.00,1.00 7.00,2.00 6.00,2.00" />
<polygon points="6.00,2.00 7.00,2.00 8.00,3.00 7.00,3.00" />
<polygon points="7.00,3.00 8.00,3.00 9.00,4.00 8.00,4.00" />
<polygon points="8.00,4.00 9.00,4.00 10.00,5.00 9.00,5.00" />
<polygon points="9.00,5.00 10.00,5.00 11.00,6.00 10.00,6.00" />
<polygon points="6.00,1.00 7.00,1.00 8.00,2.00 7.00,2.00" />
<polygon points="7.00,2.00 8.00,2.00 9.00,3.00 8.00,3.00" />
<polygon points="8.00,3.00 9.00,3.00 10.00,4.00 9.00,4.00" />
<polygon points="9.00,4.00 10.00,4.00 11.00,5.00 10.00,5.00" />
<polygon points="10.00,5.00 11.00,5.00 12.00,6.00 11.00,6.00" />
</g>
</svg>