<svg xmlns="http://www.w3.org/2000/svg" width="106.5" height="100.0" viewBox="-59.5 -54.8 116.5 110.0">
<g fill="none" stroke="black" stroke-width="0.9081%" transform="translate(0, 0.3533) scale(0.5506, -0.5506)">
<circle cx="-98.9" cy="0.0" r="0.9" />
<circle cx="0.0" cy="91.1" r="0.9" />
<polyline points="0.0,0.0 0.8,0.5 1.8,-0.8 0.4,-3.0 -3.0,-2.6 -4.8,1.4 -1.7,5.8 4.6,5.3 7.9,-1.2 3.7,-8.2 -5.4,-8.4 -11.0,0.0 -6.4,10.1 5.5,11.8 13.9,1.9 9.8,-11.4 -4.6,-15.3 -16.3,-4.7 -13.5,11.9 2.8,18.8 18.3,8.2 17.6,-11.5 -0.2,-22.0 -19.5,-12.3 -21.7,10.2 -3.3,24.8 19.8,16.8 25.8,-7.9 7.6,-27.0 -19.2,-21.7 -29.6,4.6 -12.5,28.4 17.6,26.7 33.0,-0.4 18.0,-28.9 -15.0,-31.6 -35.7,-4.6 -23.8,28.3 11.3,36.3 37.6,10.4 29.8,-26.7 -6.5,-40.5 -38.5,-16.8 -35.8,23.9 0.8,44.0 38.3,23.6 41.5,-19.9 5.8,-46.6 -36.9,-30.7 -46.7,14.7 -13.1,48.2 34.2,37.8 51.3,-8.5 21.0,-48.7 -30.2,-44.8 -55.0,1.2 -29.2,47.8 24.9,51.3 57.6,6.9 37.6,-45.5 -18.3,-57.1 -58.9,-15.7 -45.8,41.8 10.5,62.1 58.9,25.1 53.7,-36.6 -1.8,-66.0 -57.3,-34.7 -61.1,29.9 -7.9,68.5 54.2,44.3 67.5,-21.9 18.3,-69.6 -49.4,-53.7 -72.9,12.7 -29.1,69.1 43.0,62.6 77.0,-2.4 40.1,-66.9 -35.1,-70.8 -79.5,-8.8 -51.0,62.9 25.7,77.9 80.4,20.7 61.6,-57.1 -15.0,-83.7 -79.4,-33.0 -71.5,49.6 3.1,87.9 76.5,45.4 80.5,-40.3 9.6,-90.5 -71.7,-57.6 -88.2,29.5 -23.1,91.1 64.9,69.4 94.4,-17.3 36.8,-89.7 -56.2,-80.3 -98.9,3.9 -50.6,86.2" />
</g>
</svg>