<svg xmlns="http://www.w3.org/2000/svg" width="127.2" height="100.0" viewBox="-127.5 -60.4 137.2 110.0">
<g fill="none" stroke="black" stroke-width="0.8600%" transform="translate(0, -10.7022) scale(0.5814, -0.5814)">
<polyline points="0.0,0.0 -2.1,-0.9 -4.7,1.2 -12.7,2.9 -11.7,3.0 -13.6,3.0 -12.0,2.4 2.4,23.8 1.8,24.8 -7.3,52.6 -6.1,52.7 -5.4,53.4 -2.6,53.8 -2.9,52.5 -4.6,58.2 -3.6,58.3 -3.6,56.0 -3.8,54.8 -5.1,55.4 -6.0,56.5 -6.3,54.3 -5.7,57.1 -6.4,56.3 -6.6,55.3 -9.7,55.2 -12.9,58.0 -12.3,59.1 -13.1,60.0 -10.5,61.1 -12.2,61.5 -10.3,61.8 -7.9,61.4 -7.9,60.3 -5.6,60.9 -5.8,76.8 6.3,64.0 6.3,62.3 7.0,61.4 8.0,61.6 -41.9,47.5 -37.8,45.6 -40.3,44.7 -39.9,43.5 -39.5,40.6 -38.6,43.5 -40.0,42.5 -44.5,33.8 -43.5,33.5 -44.1,32.5 -44.9,30.8 -43.4,32.9 -46.0,34.0 -47.7,30.9 -48.6,30.4 -50.4,28.8 -48.8,24.6 -47.4,23.3 -45.9,22.1 -45.9,23.9 -45.0,22.5 -43.0,23.5 -42.4,22.6 -44.7,23.7 -44.2,25.1 -44.4,23.9 -50.1,21.7 -51.1,22.9 -52.2,25.3 -51.6,24.4 -52.7,25.7 -55.1,29.2 -53.5,30.4 -49.0,30.1 -50.3,30.2 -49.3,30.5 -50.3,31.1 -51.4,30.8 -52.4,31.1 -51.7,30.3 -50.0,31.6 -50.9,32.2 -51.8,31.6 -53.0,32.2 -53.5,31.3 -53.9,33.0 -53.3,31.3 -52.4,32.3 -53.0,34.5 -53.0,33.2 -51.6,33.2 -53.5,34.3 -52.3,33.7 -51.2,34.5 -49.5,34.8 -50.6,33.9 -53.8,32.6 -54.4,34.0 -53.3,34.3 -49.2,33.8 -48.0,34.6 -46.1,34.4 -47.3,34.6 -47.2,33.3 -50.7,33.8 -51.7,33.7 -51.3,32.3 -49.6,32.2 -48.7,38.1 -50.2,38.4 -49.6,40.1 -50.0,42.1 -49.4,42.9 -48.0,42.7 -50.4,45.7 -52.1,45.4 -53.2,45.9 -54.3,46.0 -53.7,46.9 -56.0,43.9 -54.6,45.1 -53.5,43.7 -55.7,43.8 -57.3,43.0 -56.5,41.8 -57.0,39.9 -55.2,39.1 -57.4,35.7 -56.4,34.7 -53.6,33.4 -54.1,34.8 -51.8,30.3 -49.7,30.3 -50.4,31.4 -49.5,29.5 -50.1,31.5 -49.2,38.8 -50.7,38.4 -54.9,41.1 -55.6,39.8 -54.5,39.6 -53.7,38.9 -53.2,37.5 -54.5,38.0 -60.1,39.7 -60.2,40.8 -61.0,41.8 -61.4,40.4 -59.0,41.2 -55.8,38.9 -54.9,38.5 -62.6,35.1 -68.2,35.5 -69.7,35.4 -70.6,34.5 -71.5,38.1 -72.6,38.1 -75.9,32.8 -74.8,32.6 -74.0,33.5 -71.2,36.3 -72.1,35.3 -76.1,35.3 -74.8,33.8 -76.7,33.3 -74.8,31.1 -74.7,32.2 -77.8,44.8 -78.5,45.6 -82.3,46.9 -91.2,38.8 -91.9,39.7 -85.9,38.5 -85.3,39.4 -86.7,39.3 -86.5,37.8 -84.1,33.5 -85.4,33.1 -84.3,33.4 -84.1,30.2 -81.1,26.3 -81.1,27.4 -80.3,26.4 -81.4,26.2 -80.4,26.1 -80.1,27.1 -79.0,29.2 -78.0,30.0 -78.6,30.8 -78.4,32.4 -75.5,33.0 -75.5,31.9 -74.4,31.5 -76.5,32.6 -78.1,31.6 -77.0,31.9 -76.4,30.2 -76.2,29.0 -75.4,29.7 -77.1,29.5 -76.0,31.0 -76.6,29.8 -75.1,31.6 -76.6,31.4 -77.3,29.9 -78.3,29.4 -79.7,22.9 -78.5,23.3 -79.3,22.6 -78.0,23.1 -73.5,25.5 -74.4,24.5 -73.8,23.2 -74.4,24.1 -70.1,26.1 -68.7,26.2 -64.5,25.8 -66.2,20.2 -66.8,21.0 -68.1,20.9 -67.3,19.2 -66.5,20.8 -65.6,22.1 -64.6,21.0 -65.0,22.4 -63.6,20.1 -97.5,2.7 -100.5,8.6 -99.7,9.2 -102.2,1.7 -100.8,2.4 -101.9,3.0 -103.0,4.3 -103.2,3.2 -103.6,5.7 -101.0,7.4 -101.7,6.5 -101.4,8.1 -100.2,8.5 -101.4,9.2 -102.3,8.2 -98.3,8.6 -97.7,4.3 -103.9,-9.7 -104.4,-8.5 -104.3,-9.6 -103.2,-8.9 -102.8,-6.6 -103.4,-5.2 -104.4,-4.9 -103.7,-4.0 -102.9,-3.3 -103.4,-4.7 -103.2,-6.0 -106.8,-5.5 -107.6,-4.9 -106.5,-6.3 -106.3,-9.3 -107.4,-10.1 -107.8,-11.5 -106.0,-13.9 -106.7,-15.1 -104.0,-13.8 -103.3,-15.3 -98.4,-15.7 -99.6,-15.9 -98.9,-14.7 -100.5,-15.2 -101.6,-15.3 -100.2,-15.6 -101.6,-15.5 -101.8,-16.9 -101.1,-17.7 -100.8,-18.9 -101.0,-20.0 -99.2,-21.2 -99.1,-22.2 -100.2,-23.3 -101.8,-27.9 -100.4,-27.4 -96.7,-27.0 -95.2,-27.6 -96.5,-24.0 -94.1,-27.5 -98.2,-23.9 -98.0,-22.3 -93.9,-22.8 -90.2,-32.9 -90.9,-32.0 -89.6,-32.9 -88.6,-33.4 -89.1,-34.4 -89.6,-32.8 -84.5,-39.9 -86.9,-37.3 -90.0,-43.3 -89.0,-43.6 -88.9,-45.1 -90.4,-44.7 -91.5,-44.3 -91.0,-45.6 -90.7,-44.7 -89.4,-44.7 -126.0,-63.0 -126.7,-62.2 -126.8,-64.3 -127.2,-63.1 -128.4,-62.6 -131.1,-61.2 -130.6,-62.3 -128.7,-61.4 -128.9,-62.9 -127.6,-63.8 -127.5,-65.0 -126.5,-64.6 -127.7,-63.6 -127.7,-64.8 -123.0,-63.2 -122.8,-64.3 -123.3,-63.1 -122.7,-62.2 -118.1,-61.4 -117.0,-61.2 -117.8,-60.0 -117.6,-61.7 -116.0,-60.1 -114.7,-59.8 -114.8,-57.7 -124.7,-52.8 -125.3,-53.9 -125.7,-54.8 -126.2,-53.8 -126.4,-55.7 -125.4,-56.9 -126.7,-57.2 -127.3,-55.9 -126.2,-55.8 -125.6,-56.7 -124.4,-56.8 -125.1,-56.0 -116.5,-50.3 -115.5,-49.8 -115.2,-50.8 -116.5,-50.3 -115.4,-51.4 -116.8,-51.5 -119.2,-52.2 -118.2,-53.2 -118.4,-52.1 -118.2,-53.5 -118.4,-51.5 -117.6,-50.6 -118.5,-49.9 -117.7,-50.7 -119.1,-50.4 -118.6,-51.4 -119.3,-53.2 -118.2,-55.4 -116.5,-57.3 -117.3,-58.0 -111.3,-54.0 -111.6,-55.0 -111.7,-56.1 -118.5,-56.3 -119.5,-55.8 -122.7,-53.0 -122.5,-55.2 -121.8,-57.0 -120.7,-57.2 -119.2,-60.1 -120.4,-57.7 -124.4,-59.5 -123.9,-58.5 -123.5,-59.4 -124.2,-58.0 -123.1,-58.7 -122.2,-59.8 -123.0,-61.0 -124.2,-62.0 -125.5,-61.9 -127.4,-62.8 -126.4,-62.9 -125.3,-62.5 -124.5,-63.7 -125.6,-64.8 -125.8,-65.8 -126.5,-66.8 -126.9,-68.1 -126.2,-69.5 -125.9,-68.5 -128.0,-67.5 -129.0,-67.9 -129.7,-66.7 -129.8,-65.7 -131.8,-65.6 -132.2,-66.6 -137.7,-93.6 -137.7,-92.5 -136.6,-92.6 -135.6,-93.3 -135.2,-92.0 -134.6,-94.2 -135.5,-93.0 -136.9,-93.5 -134.7,-93.5 -133.6,-92.6 -136.1,-91.8 -135.5,-92.9 -133.9,-94.5 -132.8,-94.9 -133.2,-93.9 -133.2,-95.2 -133.4,-94.1 -141.3,-92.9 -142.3,-93.7 -144.0,-88.4 -142.6,-90.1 -141.9,-88.8 -140.9,-89.1 -139.7,-84.9 -138.4,-84.0 -138.4,-82.6 -140.3,-83.0 -141.2,-83.9 -139.9,-84.8 -140.8,-84.1 -140.8,-83.1 -139.5,-82.9 -140.9,-83.2 -140.7,-82.0 -140.1,-80.8 -141.7,-80.1 -142.1,-78.6 -144.3,-78.3 -141.5,-77.7 -140.9,-76.3 -140.4,-77.1 -141.9,-78.6 -142.4,-77.7 -141.3,-77.5 -140.2,-77.1 -141.3,-75.8 -139.1,-79.7 -139.9,-79.1 -141.1,-79.3 -140.5,-81.3 -142.0,-81.3 -143.5,-78.6 -144.4,-79.0 -144.5,-83.2 -144.7,-81.4 -144.1,-80.3 -142.0,-76.2 -141.3,-78.3 -141.1,-79.8 -138.9,-80.2 -140.3,-80.7 -139.5,-81.6 -139.6,-80.6 -139.9,-79.4 -123.4,-2.1 -122.5,-1.4 -120.2,-0.6 -119.2,-2.1 -117.0,-1.4 -118.0,-1.5 -119.0,4.4 -117.0,5.3 -118.2,4.3 -121.5,3.5 -120.4,3.5 -117.9,8.7 -114.7,5.2 -115.6,5.8 -114.4,9.2 -117.2,7.1 -118.0,6.2 -117.8,5.0 -120.3,2.2 -116.7,1.3 -119.8,0.6 -119.0,1.3 -119.4,2.3 -118.6,3.5 -119.7,2.9 -119.9,3.9 -119.0,4.7 -117.8,-0.1 -114.6,-6.7 -114.3,-7.7 -114.3,-4.5 -115.0,-2.0 -118.5,-2.7 -117.7,-3.5 -113.8,-3.3 -113.6,-1.8 -108.8,-6.2 -109.9,-8.6 -115.4,-13.4 -113.4,-14.6 -113.6,-13.2 -115.6,-8.7 -116.6,-10.3 -117.5,-9.1 -119.5,-9.5 -118.5,-9.9 -119.9,-9.4 -119.0,-11.1 -122.2,-11.3 -127.1,-16.4 -127.3,-15.4 -124.2,-13.4 -132.8,-20.3 -134.4,-20.0 -136.0,-20.0 -135.2,-19.2 -134.4,-14.2 -135.4,-13.5 -135.6,-12.5 -137.8,-12.8 -138.8,-12.8 -139.3,-11.7 -139.8,-12.8 -140.4,-11.8 -139.4,-10.4 -138.2,-10.1 -136.4,-28.9 -131.4,-23.0 -132.8,-23.4 -132.6,-21.6 -132.6,-23.4 -132.0,-24.7 -131.2,-25.5 -133.0,-25.7 -136.7,-23.2 -136.2,-22.0 -135.9,-23.3 -133.2,-22.9 -134.1,-23.5 -132.9,-23.9 -135.0,-22.5 -138.6,-20.1 -137.9,-18.9 -138.3,-21.0 -139.5,-21.2 -141.1,-21.3 -141.6,-27.1 -143.0,-23.8 -141.3,-23.0 -148.4,-27.0 -149.7,-26.9 -152.8,-26.6 -153.6,-27.6 -154.6,-28.0 -153.7,-26.9 -152.6,-27.0 -154.1,-27.1 -150.3,-43.1 -149.7,-42.0 -150.6,-41.6 -151.3,-43.4 -142.5,-57.4 -143.7,-56.9 -144.3,-55.2 -142.8,-55.6 -142.2,-57.2 -140.7,-56.6 -141.3,-60.4 -137.6,-61.2 -138.4,-60.2 -137.8,-62.7 -136.9,-63.7 -135.9,-63.9 -134.6,-63.7 -135.4,-63.0 -133.6,-56.9 -132.9,-57.9 -133.4,-57.1 -131.1,-58.0 -130.7,-56.6 -126.2,-56.0 -126.7,-55.1 -127.9,-55.0 -129.8,-54.0 -129.2,-53.0 -132.2,-52.5 -133.1,-52.0 -130.4,-51.5 -131.4,-49.8 -127.5,-50.7 -124.9,-47.4 -125.2,-46.2 -126.0,-47.1 -124.0,-47.6 -125.0,-49.6 -126.1,-49.7 -124.9,-50.1 -126.0,-51.9 -125.2,-52.7 -126.9,-54.7 -125.9,-53.7 -127.2,-51.8 -126.7,-50.4 -127.9,-50.6 -127.2,-49.5 -128.2,-49.7 -133.0,-53.2 -134.9,-52.5 -134.2,-50.7 -132.4,-51.5 -133.6,-51.2 -133.1,-52.5 -132.0,-52.4 -128.2,-49.1 -127.1,-49.1 -122.0,-46.4 -126.6,-48.1 -127.3,-49.2 -127.9,-46.8 -129.3,-47.4 -133.7,-48.2 -132.6,-48.3 -131.6,-49.1 -130.9,-50.3 -132.4,-49.8 -132.7,-52.9 -133.2,-54.0 -133.6,-52.9 -136.5,-52.3 -137.7,-52.5 -137.5,-51.3 -139.3,-54.1 -140.2,-52.8 -140.6,-51.2 -141.4,-51.9 -171.7,-62.0 -171.4,-63.3 -172.2,-64.0 -171.8,-68.7 -171.6,-67.2 -170.9,-69.5 -171.6,-72.6 -171.1,-73.5 -169.5,-71.7 -168.3,-71.5 -167.0,-70.9 -165.8,-74.9 -164.9,-81.3 -165.7,-78.7 -166.4,-79.7 -165.6,-79.1 -165.6,-77.0 -168.4,-77.9 -169.2,-80.2 -167.7,-82.1 -166.8,-82.7 -163.5,-82.1 -163.6,-80.9 -163.1,-79.6 -164.0,-78.8 -163.1,-79.5 -162.7,-77.6 -161.9,-78.7 -163.3,-77.6 -165.3,-77.4 -175.4,-70.7 -172.4,-69.3 -168.5,-70.4 -169.3,-71.0 -167.3,-71.4 -166.4,-72.0 -164.3,-73.4 -165.2,-72.5 -166.1,-71.5 -167.0,-72.5 -168.2,-72.6 -169.1,-73.0 -169.8,-72.2 -168.3,-76.0 -169.3,-76.9 -172.1,-77.0 -172.5,-75.7 -173.0,-74.5 -172.7,-76.2 -174.2,-73.7 -173.2,-72.3 -173.8,-70.4 -173.6,-72.0 -174.6,-71.5 -173.2,-70.1 -173.2,-69.1 -171.9,-71.0 -172.8,-70.5 -172.2,-71.6 -173.7,-72.2 -176.1,-72.9 -175.3,-74.0 -173.1,-71.5 -173.4,-73.1 -176.4,-74.2 -177.6,-70.1 -178.3,-71.8 -182.7,-70.4 -183.1,-69.4 -183.9,-68.1 -185.6,-67.6 -185.3,-70.1 -183.4,-72.1 -187.2,-76.5 -188.9,-77.8 -186.4,-80.6 -185.2,-79.8 -184.3,-80.9 -184.8,-79.9 -183.7,-79.9 -185.1,-80.9 -184.5,-82.1 -186.6,-81.3 -187.7,-79.3 -187.7,-78.1 -188.0,-79.6 -189.0,-79.0 -190.0,-78.8 -191.0,-75.5 -193.2,-76.4 -193.1,-77.6 -188.8,-77.4 -189.4,-73.7 -188.9,-72.3 -193.0,-70.2 -192.7,-71.8 -186.7,-72.5 -186.6,-71.4 -184.7,-69.3 -184.9,-66.3 -184.3,-65.2 -183.4,-67.6 -183.3,-66.0 -183.3,-64.7 -181.2,-65.0 -181.7,-61.9 -183.1,-62.4 -180.5,-66.1 -181.7,-66.2 -183.0,-65.9 -181.4,-66.1 -179.5,-64.6 -178.8,-65.4 -178.3,-63.3 -180.3,-64.7 -179.3,-65.2 -180.2,-66.2 -179.4,-65.5 -178.8,-66.3 -181.0,-62.4 -181.9,-64.0 -182.3,-62.5 -182.5,-61.2 -181.2,-61.8 -179.6,-62.3 -181.8,-61.8 -180.7,-61.1 -180.6,-62.5 -183.4,-61.4 -182.3,-61.1 -183.3,-60.6 -183.1,-59.4 -184.0,-56.5 -184.5,-59.1 -184.3,-60.1 -184.1,-56.8 -182.6,-56.6 -182.3,-59.3 -182.8,-60.2 -184.8,-60.4 -185.5,-59.1 -184.0,-60.0 -184.9,-59.4 -183.1,-58.7 -184.6,-57.9 -186.3,-57.1 -185.4,-58.3 -185.6,-57.4 -184.6,-59.0 -183.1,-59.6 -184.3,-59.1 -185.3,-59.4 -184.7,-58.5 -198.4,-57.5 -197.6,-56.8 -195.2,-55.6 -195.2,-57.0 -200.8,-60.1 -202.5,-58.4 -201.4,-57.0 -201.3,-58.0 -200.0,-59.5 -198.2,-58.2 -198.4,-59.8 -199.1,-58.7 -199.9,-58.1 -200.9,-58.7 -199.8,-57.1 -201.1,-55.7 -201.2,-54.5 -201.8,-55.4 -202.7,-54.6 -201.1,-54.0 -201.7,-57.1 -202.4,-58.0 -201.0,-53.9 -198.7,-55.2 -197.4,-55.5 -196.0,-54.6 -194.1,-53.1 -194.8,-52.3 -195.3,-50.7 -196.0,-51.8 -195.0,-51.3 -195.7,-52.1 -199.8,-51.6 -196.9,-54.0 -196.7,-52.6 -197.7,-53.4 -194.1,-61.3 -194.0,-62.6 -193.5,-63.6 -191.6,-64.6 -191.3,-66.1 -191.9,-67.5 -192.8,-68.2 -191.8,-69.2 -193.9,-68.8 -195.1,-69.1 -197.3,-69.4 -196.1,-70.8 -196.8,-71.6 -195.9,-73.2 -194.5,-75.2 -193.6,-74.4 -194.7,-74.6 -196.7,-71.9 -188.9,-75.1 -188.0,-74.0 -186.2,-73.1 -184.6,-74.2 -186.3,-72.0 -187.7,-73.0 -186.1,-71.1 -186.2,-72.7 -187.3,-73.8 -185.9,-73.9 -183.7,-75.7 -186.0,-82.6 -188.4,-81.0 -188.9,-81.8 -188.8,-83.0 -187.2,-84.2 -189.3,-79.0 -187.7,-83.7 -187.9,-85.0 -191.0,-82.5 -188.6,-79.5 -188.8,-78.5 -190.5,-79.3 -188.1,-79.2 -188.1,-78.0 -186.2,-74.8 -185.1,-75.0 -185.2,-73.5 -186.1,-73.1 -188.2,-72.2 -188.1,-71.1 -189.3,-71.5 -188.5,-70.1 -188.9,-68.0 -187.9,-69.0 -186.6,-70.3 -187.2,-69.0 -206.8,-73.9 -208.0,-74.2 -209.2,-73.3 -207.5,-73.4 -206.8,-74.1 -205.9,-73.3 -206.7,-72.5 -207.9,-71.9 -208.6,-70.8 -209.6,-71.4 -208.4,-71.5 -209.5,-71.3 -210.6,-73.0 -209.6,-73.4 -208.9,-72.2 -206.2,-70.0 -206.3,-71.2 -204.0,-68.9 -204.6,-68.1 -205.6,-67.6 -206.5,-66.4 -204.6,-67.0 -203.5,-66.0 -204.4,-66.6 -205.0,-65.8 -203.6,-65.9 -203.6,-64.6 -202.4,-62.9 -202.0,-64.5 -203.1,-63.0 -202.2,-61.1 -202.5,-60.0 -203.1,-58.9 -203.9,-58.1 -205.2,-57.9 -206.0,-57.0 -205.0,-57.3 -203.9,-57.0 -206.1,-56.7 -208.1,-54.0 -208.4,-55.0 -209.5,-56.0 -208.2,-56.9 -207.2,-57.1 -203.9,-54.8 -205.3,-54.3 -205.7,-51.3 -205.9,-50.1 -205.9,-52.2 -205.0,-53.2 -203.9,-53.2 -204.9,-53.5 -205.2,-45.5 -206.1,-45.9 -206.2,-47.7 -206.2,-46.7 -210.7,-48.2 -209.7,-49.8 -208.5,-48.8 -209.4,-49.9 -209.9,-48.9 -207.3,-45.4 -207.4,-44.3 -209.3,-44.2 -206.2,-43.3 -208.6,-43.4 -207.5,-43.4 -204.6,-42.0 -203.3,-42.1 -201.1,-42.1 -200.3,-42.8 -201.4,-43.4 -205.3,-45.9 -205.1,-47.0 -206.4,-46.7 -207.2,-47.4 -207.9,-46.3 -206.7,-46.1 -206.3,-47.4 -205.6,-46.0 -206.8,-46.4 -206.0,-48.2 -206.6,-49.9 -207.0,-52.1 -206.0,-51.8 -209.8,-42.9 -206.3,-39.1 -204.2,-39.7 -204.5,-45.7 -203.9,-47.0 -203.1,-47.7 -202.0,-48.1 -200.1,-47.5 -199.6,-48.4 -202.1,-47.3 -189.6,-51.9 -188.4,-50.9 -189.7,-48.7 -189.4,-49.6 -190.7,-49.9 -189.4,-48.9 -189.0,-47.8 -187.6,-46.5 -186.6,-47.5 -187.6,-48.6 -187.8,-51.6 -184.1,-54.4 -184.1,-55.4 -184.1,-56.5 -185.1,-56.2 -184.4,-45.7 -182.1,-45.9 -182.2,-47.1 -183.3,-48.8 -183.2,-50.5 -178.4,-57.4 -177.9,-58.7 -179.0,-57.6 -180.6,-56.3 -179.9,-57.3 -178.9,-57.8 -176.4,-60.4 -178.1,-60.2" />
</g>
</svg>