<svg xmlns="http://www.w3.org/2000/svg" width="161.8" height="100.0" viewBox="-174.583 -75.075 171.803 110.000">
<g fill="none" stroke="black" stroke-width="0.0136%" transform="translate(0, -40.1492) scale(36.8404, -36.8404)">
<circle cx="-4.603" cy="0.000" r="0.014" />
<polyline points="-0.211,-0.951 -0.764,-0.363 -0.211,0.225 -0.895,0.225 -0.342,-0.363 -0.553,-1.314 -1.236,-1.314 -1.789,-0.727 -1.106,-0.727 -1.659,-0.139 -1.447,0.812 -0.895,0.225 -1.106,-0.727 -1.789,-0.727 -1.578,0.225 -1.789,-0.727 -1.236,-1.314 -1.920,-1.314 -1.236,-1.314 -0.683,-1.902 -1.236,-1.314 -1.789,-0.727 -2.472,-0.727 -3.156,-0.727 -3.709,-1.314 -3.497,-0.363 -2.814,-0.363 -3.367,-0.951 -4.050,-0.951 -3.839,-1.902 -4.392,-1.314 -4.603,-0.363 -4.050,0.225 -3.367,0.225 -2.814,0.812 -2.261,0.225 -1.708,-0.363" />
</g>
</svg>