<svg xmlns="http://www.w3.org/2000/svg" width="161.8" height="100.0" viewBox="-3.593 -5.000 171.803 110.000">
<g fill="none" stroke="black" stroke-width="0.0050%" transform="translate(0, 100.0000) scale(100.0000, -100.0000)">
<line x1="0.014" y1="0.000" x2="0.014" y2="1.000" />
<line x1="0.028" y1="0.000" x2="0.028" y2="1.000" />

<line x1="0.056" y1="0.000" x2="0.056" y2="1.000" />
<line x1="0.070" y1="0.000" x2="0.070" y2="1.000" />
<line x1="0.084" y1="0.000" x2="0.084" y2="1.000" />
<line x1="0.098" y1="0.000" x2="0.098" y2="1.000" />
<line x1="0.113" y1="0.000" x2="0.113" y2="1.000" />




<line x1="0.183" y1="0.000" x2="0.183" y2="1.000" />
<line x1="0.197" y1="0.000" x2="0.197" y2="1.000" />
<line x1="0.211" y1="0.000" x2="0.211" y2="1.000" />

<line x1="0.239" y1="0.000" x2="0.239" y2="1.000" />
<line x1="0.253" y1="0.000" x2="0.253" y2="1.000" />
<line x1="0.267" y1="0.000" x2="0.267" y2="1.000" />

<line x1="0.295" y1="0.000" x2="0.295" y2="1.000" />


<line x1="0.338" y1="0.000" x2="0.338" y2="1.000" />
<line x1="0.352" y1="0.000" x2="0.352" y2="1.000" />




<line x1="0.422" y1="0.000" x2="0.422" y2="1.000" />


<line x1="0.464" y1="0.000" x2="0.464" y2="1.000" />
<line x1="0.478" y1="0.000" x2="0.478" y2="1.000" />

<line x1="0.507" y1="0.000" x2="0.507" y2="1.000" />
<line x1="0.521" y1="0.000" x2="0.521" y2="1.000" />
<line x1="0.535" y1="0.000" x2="0.535" y2="1.000" />
<line x1="0.549" y1="0.000" x2="0.549" y2="1.000" />
<line x1="0.563" y1="0.000" x2="0.563" y2="1.000" />

<line x1="0.591" y1="0.000" x2="0.591" y2="1.000" />

<line x1="0.619" y1="0.000" x2="0.619" y2="1.000" />
<line x1="0.633" y1="0.000" x2="0.633" y2="1.000" />



<line x1="0.689" y1="0.000" x2="0.689" y2="1.000" />
<line x1="0.703" y1="0.000" x2="0.703" y2="1.000" />

<line x1="0.732" y1="0.000" x2="0.732" y2="1.000" />
<line x1="0.746" y1="0.000" x2="0.746" y2="1.000" />
<line x1="0.760" y1="0.000" x2="0.760" y2="1.000" />
<line x1="0.774" y1="0.000" x2="0.774" y2="1.000" />

<line x1="0.802" y1="0.000" x2="0.802" y2="1.000" />



<line x1="0.858" y1="0.000" x2="0.858" y2="1.000" />
<line x1="0.872" y1="0.000" x2="0.872" y2="1.000" />

<line x1="0.900" y1="0.000" x2="0.900" y2="1.000" />



<line x1="0.957" y1="0.000" x2="0.957" y2="1.000" />
<line x1="0.971" y1="0.000" x2="0.971" y2="1.000" />
<line x1="0.985" y1="0.000" x2="0.985" y2="1.000" />

<line x1="1.013" y1="0.000" x2="1.013" y2="1.000" />
<line x1="1.027" y1="0.000" x2="1.027" y2="1.000" />
<line x1="1.041" y1="0.000" x2="1.041" y2="1.000" />


<line x1="1.083" y1="0.000" x2="1.083" y2="1.000" />
<line x1="1.097" y1="0.000" x2="1.097" y2="1.000" />



<line x1="1.154" y1="0.000" x2="1.154" y2="1.000" />
<line x1="1.168" y1="0.000" x2="1.168" y2="1.000" />
<line x1="1.182" y1="0.000" x2="1.182" y2="1.000" />

<line x1="1.210" y1="0.000" x2="1.210" y2="1.000" />

<line x1="1.238" y1="0.000" x2="1.238" y2="1.000" />
<line x1="1.252" y1="0.000" x2="1.252" y2="1.000" />
<line x1="1.266" y1="0.000" x2="1.266" y2="1.000" />
<line x1="1.280" y1="0.000" x2="1.280" y2="1.000" />
<line x1="1.294" y1="0.000" x2="1.294" y2="1.000" />
<line x1="1.308" y1="0.000" x2="1.308" y2="1.000" />
<line x1="1.323" y1="0.000" x2="1.323" y2="1.000" />

<line x1="1.351" y1="0.000" x2="1.351" y2="1.000" />



<line x1="1.407" y1="0.000" x2="1.407" y2="1.000" />


<line x1="1.449" y1="0.000" x2="1.449" y2="1.000" />

<line x1="1.477" y1="0.000" x2="1.477" y2="1.000" />
<line x1="1.491" y1="0.000" x2="1.491" y2="1.000" />

<line x1="1.520" y1="0.000" x2="1.520" y2="1.000" />



<line x1="1.576" y1="0.000" x2="1.576" y2="1.000" />


<line x1="1.618" y1="0.000" x2="1.618" y2="1.000" />
<line x1="1.632" y1="0.000" x2="1.632" y2="1.000" />
</g>
</svg>