<svg xmlns="http://www.w3.org/2000/svg" width="161.8" height="100.0" viewBox="-4.2 -5.0 171.8 110.0">
<g fill="none" stroke="black" stroke-width="0.4000%" transform="translate(0, 100.0000) scale(1.2500, -1.2500)">
<circle cx="0.6" cy="0.0" r="0.4" />
<circle cx="1.3" cy="0.0" r="0.4" />
<circle cx="1.9" cy="0.0" r="0.4" />
<circle cx="2.6" cy="1.0" r="0.4" />
<circle cx="3.2" cy="2.0" r="0.4" />
<circle cx="3.9" cy="0.0" r="0.4" />
<circle cx="4.5" cy="2.0" r="0.4" />
<circle cx="5.2" cy="0.0" r="0.4" />
<circle cx="5.8" cy="1.0" r="0.4" />
<circle cx="6.5" cy="3.0" r="0.4" />
<circle cx="7.1" cy="4.0" r="0.4" />
<circle cx="7.8" cy="5.0" r="0.4" />
<circle cx="8.4" cy="7.0" r="0.4" />
<circle cx="9.1" cy="8.0" r="0.4" />
<circle cx="9.7" cy="6.0" r="0.4" />
<circle cx="10.4" cy="2.0" r="0.4" />
<circle cx="11.0" cy="0.0" r="0.4" />
<circle cx="11.6" cy="1.0" r="0.4" />
<circle cx="12.3" cy="6.0" r="0.4" />
<circle cx="12.9" cy="7.0" r="0.4" />
<circle cx="13.6" cy="8.0" r="0.4" />
<circle cx="14.2" cy="1.0" r="0.4" />
<circle cx="14.9" cy="2.0" r="0.4" />
<circle cx="15.5" cy="0.0" r="0.4" />
<circle cx="16.2" cy="5.0" r="0.4" />
<circle cx="16.8" cy="3.0" r="0.4" />
<circle cx="17.5" cy="4.0" r="0.4" />
<circle cx="18.1" cy="9.0" r="0.4" />
<circle cx="18.8" cy="10.0" r="0.4" />
<circle cx="19.4" cy="11.0" r="0.4" />
<circle cx="20.1" cy="13.0" r="0.4" />
<circle cx="20.7" cy="14.0" r="0.4" />
<circle cx="21.4" cy="12.0" r="0.4" />
<circle cx="22.0" cy="17.0" r="0.4" />
<circle cx="22.7" cy="15.0" r="0.4" />
<circle cx="23.3" cy="16.0" r="0.4" />
<circle cx="23.9" cy="21.0" r="0.4" />
<circle cx="24.6" cy="22.0" r="0.4" />
<circle cx="25.2" cy="23.0" r="0.4" />
<circle cx="25.9" cy="25.0" r="0.4" />
<circle cx="26.5" cy="26.0" r="0.4" />
<circle cx="27.2" cy="24.0" r="0.4" />
<circle cx="27.8" cy="20.0" r="0.4" />
<circle cx="28.5" cy="18.0" r="0.4" />
<circle cx="29.1" cy="19.0" r="0.4" />
<circle cx="29.8" cy="6.0" r="0.4" />
<circle cx="30.4" cy="7.0" r="0.4" />
<circle cx="31.1" cy="8.0" r="0.4" />
<circle cx="31.7" cy="1.0" r="0.4" />
<circle cx="32.4" cy="2.0" r="0.4" />
<circle cx="33.0" cy="0.0" r="0.4" />
<circle cx="33.7" cy="5.0" r="0.4" />
<circle cx="34.3" cy="3.0" r="0.4" />
<circle cx="34.9" cy="4.0" r="0.4" />
<circle cx="35.6" cy="18.0" r="0.4" />
<circle cx="36.2" cy="19.0" r="0.4" />
<circle cx="36.9" cy="20.0" r="0.4" />
<circle cx="37.5" cy="22.0" r="0.4" />
<circle cx="38.2" cy="23.0" r="0.4" />
<circle cx="38.8" cy="21.0" r="0.4" />
<circle cx="39.5" cy="26.0" r="0.4" />
<circle cx="40.1" cy="24.0" r="0.4" />
<circle cx="40.8" cy="25.0" r="0.4" />
<circle cx="41.4" cy="3.0" r="0.4" />
<circle cx="42.1" cy="4.0" r="0.4" />
<circle cx="42.7" cy="5.0" r="0.4" />
<circle cx="43.4" cy="7.0" r="0.4" />
<circle cx="44.0" cy="8.0" r="0.4" />
<circle cx="44.7" cy="6.0" r="0.4" />
<circle cx="45.3" cy="2.0" r="0.4" />
<circle cx="46.0" cy="0.0" r="0.4" />
<circle cx="46.6" cy="1.0" r="0.4" />
<circle cx="47.2" cy="15.0" r="0.4" />
<circle cx="47.9" cy="16.0" r="0.4" />
<circle cx="48.5" cy="17.0" r="0.4" />
<circle cx="49.2" cy="10.0" r="0.4" />
<circle cx="49.8" cy="11.0" r="0.4" />
<circle cx="50.5" cy="9.0" r="0.4" />
<circle cx="51.1" cy="14.0" r="0.4" />
<circle cx="51.8" cy="12.0" r="0.4" />
<circle cx="52.4" cy="13.0" r="0.4" />
<circle cx="53.1" cy="27.0" r="0.4" />
<circle cx="53.7" cy="28.0" r="0.4" />
<circle cx="54.4" cy="29.0" r="0.4" />
<circle cx="55.0" cy="31.0" r="0.4" />
<circle cx="55.7" cy="32.0" r="0.4" />
<circle cx="56.3" cy="30.0" r="0.4" />
<circle cx="57.0" cy="35.0" r="0.4" />
<circle cx="57.6" cy="33.0" r="0.4" />
<circle cx="58.2" cy="34.0" r="0.4" />
<circle cx="58.9" cy="39.0" r="0.4" />
<circle cx="59.5" cy="40.0" r="0.4" />
<circle cx="60.2" cy="41.0" r="0.4" />
<circle cx="60.8" cy="43.0" r="0.4" />
<circle cx="61.5" cy="44.0" r="0.4" />
<circle cx="62.1" cy="42.0" r="0.4" />
<circle cx="62.8" cy="38.0" r="0.4" />
<circle cx="63.4" cy="36.0" r="0.4" />
<circle cx="64.1" cy="37.0" r="0.4" />
<circle cx="64.7" cy="51.0" r="0.4" />
<circle cx="65.4" cy="52.0" r="0.4" />
<circle cx="66.0" cy="53.0" r="0.4" />
<circle cx="66.7" cy="46.0" r="0.4" />
<circle cx="67.3" cy="47.0" r="0.4" />
<circle cx="68.0" cy="45.0" r="0.4" />
<circle cx="68.6" cy="50.0" r="0.4" />
<circle cx="69.3" cy="48.0" r="0.4" />
<circle cx="69.9" cy="49.0" r="0.4" />
<circle cx="70.5" cy="63.0" r="0.4" />
<circle cx="71.2" cy="64.0" r="0.4" />
<circle cx="71.8" cy="65.0" r="0.4" />
<circle cx="72.5" cy="67.0" r="0.4" />
<circle cx="73.1" cy="68.0" r="0.4" />
<circle cx="73.8" cy="66.0" r="0.4" />
<circle cx="74.4" cy="71.0" r="0.4" />
<circle cx="75.1" cy="69.0" r="0.4" />
<circle cx="75.7" cy="70.0" r="0.4" />
<circle cx="76.4" cy="75.0" r="0.4" />
<circle cx="77.0" cy="76.0" r="0.4" />
<circle cx="77.7" cy="77.0" r="0.4" />
<circle cx="78.3" cy="79.0" r="0.4" />
<circle cx="79.0" cy="80.0" r="0.4" />
<circle cx="79.6" cy="78.0" r="0.4" />
<circle cx="80.3" cy="74.0" r="0.4" />
<circle cx="80.9" cy="72.0" r="0.4" />
<circle cx="81.5" cy="73.0" r="0.4" />
<circle cx="82.2" cy="60.0" r="0.4" />
<circle cx="82.8" cy="61.0" r="0.4" />
<circle cx="83.5" cy="62.0" r="0.4" />
<circle cx="84.1" cy="55.0" r="0.4" />
<circle cx="84.8" cy="56.0" r="0.4" />
<circle cx="85.4" cy="54.0" r="0.4" />
<circle cx="86.1" cy="59.0" r="0.4" />
<circle cx="86.7" cy="57.0" r="0.4" />
<circle cx="87.4" cy="58.0" r="0.4" />
<circle cx="88.0" cy="18.0" r="0.4" />
<circle cx="88.7" cy="19.0" r="0.4" />
<circle cx="89.3" cy="20.0" r="0.4" />
<circle cx="90.0" cy="22.0" r="0.4" />
<circle cx="90.6" cy="23.0" r="0.4" />
<circle cx="91.3" cy="21.0" r="0.4" />
<circle cx="91.9" cy="26.0" r="0.4" />
<circle cx="92.6" cy="24.0" r="0.4" />
<circle cx="93.2" cy="25.0" r="0.4" />
<circle cx="93.8" cy="3.0" r="0.4" />
<circle cx="94.5" cy="4.0" r="0.4" />
<circle cx="95.1" cy="5.0" r="0.4" />
<circle cx="95.8" cy="7.0" r="0.4" />
<circle cx="96.4" cy="8.0" r="0.4" />
<circle cx="97.1" cy="6.0" r="0.4" />
<circle cx="97.7" cy="2.0" r="0.4" />
<circle cx="98.4" cy="0.0" r="0.4" />
<circle cx="99.0" cy="1.0" r="0.4" />
<circle cx="99.7" cy="15.0" r="0.4" />
<circle cx="100.3" cy="16.0" r="0.4" />
<circle cx="101.0" cy="17.0" r="0.4" />
<circle cx="101.6" cy="10.0" r="0.4" />
<circle cx="102.3" cy="11.0" r="0.4" />
<circle cx="102.9" cy="9.0" r="0.4" />
<circle cx="103.6" cy="14.0" r="0.4" />
<circle cx="104.2" cy="12.0" r="0.4" />
<circle cx="104.8" cy="13.0" r="0.4" />
<circle cx="105.5" cy="54.0" r="0.4" />
<circle cx="106.1" cy="55.0" r="0.4" />
<circle cx="106.8" cy="56.0" r="0.4" />
<circle cx="107.4" cy="58.0" r="0.4" />
<circle cx="108.1" cy="59.0" r="0.4" />
<circle cx="108.7" cy="57.0" r="0.4" />
<circle cx="109.4" cy="62.0" r="0.4" />
<circle cx="110.0" cy="60.0" r="0.4" />
<circle cx="110.7" cy="61.0" r="0.4" />
<circle cx="111.3" cy="66.0" r="0.4" />
<circle cx="112.0" cy="67.0" r="0.4" />
<circle cx="112.6" cy="68.0" r="0.4" />
<circle cx="113.3" cy="70.0" r="0.4" />
<circle cx="113.9" cy="71.0" r="0.4" />
<circle cx="114.6" cy="69.0" r="0.4" />
<circle cx="115.2" cy="65.0" r="0.4" />
<circle cx="115.9" cy="63.0" r="0.4" />
<circle cx="116.5" cy="64.0" r="0.4" />
<circle cx="117.1" cy="78.0" r="0.4" />
<circle cx="117.8" cy="79.0" r="0.4" />
<circle cx="118.4" cy="80.0" r="0.4" />
<circle cx="119.1" cy="73.0" r="0.4" />
<circle cx="119.7" cy="74.0" r="0.4" />
<circle cx="120.4" cy="72.0" r="0.4" />
<circle cx="121.0" cy="77.0" r="0.4" />
<circle cx="121.7" cy="75.0" r="0.4" />
<circle cx="122.3" cy="76.0" r="0.4" />
<circle cx="123.0" cy="9.0" r="0.4" />
<circle cx="123.6" cy="10.0" r="0.4" />
<circle cx="124.3" cy="11.0" r="0.4" />
<circle cx="124.9" cy="13.0" r="0.4" />
<circle cx="125.6" cy="14.0" r="0.4" />
<circle cx="126.2" cy="12.0" r="0.4" />
<circle cx="126.9" cy="17.0" r="0.4" />
<circle cx="127.5" cy="15.0" r="0.4" />
<circle cx="128.1" cy="16.0" r="0.4" />
<circle cx="128.8" cy="21.0" r="0.4" />
<circle cx="129.4" cy="22.0" r="0.4" />
<circle cx="130.1" cy="23.0" r="0.4" />
</g>
</svg>