<svg xmlns="http://www.w3.org/2000/svg" width="161.8" height="100.0" viewBox="-2.0 -2.6 171.8 110.0">
<g fill="none" stroke="black" stroke-width="0.2050%" transform="translate(0, 104.8780) scale(2.4390, -2.4390)">
<circle cx="1.2" cy="1.0" r="0.2" />
<circle cx="2.5" cy="1.0" r="0.2" />
<circle cx="3.7" cy="2.0" r="0.2" />
<circle cx="4.9" cy="1.0" r="0.2" />
<circle cx="6.1" cy="2.0" r="0.2" />
<circle cx="7.4" cy="3.0" r="0.2" />
<circle cx="8.6" cy="1.0" r="0.2" />
<circle cx="9.8" cy="3.0" r="0.2" />
<circle cx="11.1" cy="4.0" r="0.2" />
<circle cx="12.3" cy="5.0" r="0.2" />
<circle cx="13.5" cy="1.0" r="0.2" />
<circle cx="14.7" cy="3.0" r="0.2" />
<circle cx="16.0" cy="5.0" r="0.2" />
<circle cx="17.2" cy="6.0" r="0.2" />
<circle cx="18.4" cy="7.0" r="0.2" />
<circle cx="19.7" cy="1.0" r="0.2" />
<circle cx="20.9" cy="4.0" r="0.2" />
<circle cx="22.1" cy="7.0" r="0.2" />
<circle cx="23.3" cy="9.0" r="0.2" />
<circle cx="24.6" cy="10.0" r="0.2" />
<circle cx="25.8" cy="11.0" r="0.2" />
<circle cx="27.0" cy="1.0" r="0.2" />
<circle cx="28.3" cy="4.0" r="0.2" />
<circle cx="29.5" cy="8.0" r="0.2" />
<circle cx="30.7" cy="11.0" r="0.2" />
<circle cx="31.9" cy="13.0" r="0.2" />
<circle cx="33.2" cy="14.0" r="0.2" />
<circle cx="34.4" cy="15.0" r="0.2" />
<circle cx="35.6" cy="1.0" r="0.2" />
<circle cx="36.9" cy="5.0" r="0.2" />
<circle cx="38.1" cy="10.0" r="0.2" />
<circle cx="39.3" cy="15.0" r="0.2" />
<circle cx="40.5" cy="18.0" r="0.2" />
<circle cx="41.8" cy="20.0" r="0.2" />
<circle cx="43.0" cy="21.0" r="0.2" />
<circle cx="44.2" cy="22.0" r="0.2" />
<circle cx="45.5" cy="1.0" r="0.2" />
<circle cx="46.7" cy="5.0" r="0.2" />
<circle cx="47.9" cy="12.0" r="0.2" />
<circle cx="49.1" cy="18.0" r="0.2" />
<circle cx="50.4" cy="23.0" r="0.2" />
<circle cx="51.6" cy="26.0" r="0.2" />
<circle cx="52.8" cy="28.0" r="0.2" />
<circle cx="54.1" cy="29.0" r="0.2" />
<circle cx="55.3" cy="30.0" r="0.2" />
<circle cx="56.5" cy="1.0" r="0.2" />
<circle cx="57.7" cy="6.0" r="0.2" />
<circle cx="59.0" cy="14.0" r="0.2" />
<circle cx="60.2" cy="23.0" r="0.2" />
<circle cx="61.4" cy="30.0" r="0.2" />
<circle cx="62.7" cy="35.0" r="0.2" />
<circle cx="63.9" cy="38.0" r="0.2" />
<circle cx="65.1" cy="40.0" r="0.2" />
<circle cx="66.3" cy="41.0" r="0.2" />
<circle cx="67.6" cy="42.0" r="0.2" />
</g>
</svg>