<svg xmlns="http://www.w3.org/2000/svg" width="161.8" height="100.0" viewBox="-5.00 -5.00 171.80 110.00">
<g fill="none" stroke="black" stroke-width="0.0266%" transform="translate(0, 100.0000) scale(18.8320, -18.8320)">
<polyline points="0.00,0.00 0.17,0.00 0.34,0.30 0.52,0.48 0.69,0.70 0.86,0.85 1.03,1.04 1.20,1.18 1.37,1.34 1.55,1.48 1.72,1.62 1.89,1.75 2.06,1.89 2.23,2.00 2.41,2.13 2.58,2.25 2.75,2.36 2.92,2.47 3.09,2.59 3.26,2.69 3.44,2.80 3.61,2.90 3.78,3.00 3.95,3.10 4.12,3.20 4.30,3.29 4.47,3.39 4.64,3.48 4.81,3.57 4.98,3.66 5.16,3.75 5.33,3.84 5.50,3.92 5.67,4.01 5.84,4.09 6.01,4.17 6.19,4.25 6.36,4.34 6.53,4.42 6.70,4.49 6.87,4.57 7.05,4.65 7.22,4.73 7.39,4.80 7.56,4.88 7.73,4.95 7.90,5.02 8.08,5.10 8.25,5.17 8.42,5.24 8.59,5.31" />
</g>
</svg>