<svg xmlns="http://www.w3.org/2000/svg" width="155.8" height="100.0" viewBox="-2.92 -5.00 165.81 110.00">
<g fill="none" stroke="black" stroke-width="0.1350%" transform="translate(0, 100.0000) scale(3.7037, -3.7037)">
<line x1="0.56" y1="0.00" x2="0.56" y2="1.00" />
<line x1="1.12" y1="0.00" x2="1.12" y2="1.00" />
<line x1="1.68" y1="0.00" x2="1.68" y2="1.00" />
<line x1="2.24" y1="0.00" x2="2.24" y2="1.00" />
<line x1="2.80" y1="0.00" x2="2.80" y2="1.00" />
<line x1="3.37" y1="0.00" x2="3.37" y2="1.00" />
<line x1="3.93" y1="0.00" x2="3.93" y2="1.00" />
<line x1="4.49" y1="0.00" x2="4.49" y2="2.00" />
<line x1="5.05" y1="0.00" x2="5.05" y2="1.00" />
<line x1="5.61" y1="0.00" x2="5.61" y2="2.00" />
<line x1="6.17" y1="0.00" x2="6.17" y2="1.00" />
<line x1="6.73" y1="0.00" x2="6.73" y2="1.00" />
<line x1="7.29" y1="0.00" x2="7.29" y2="3.00" />
<line x1="7.85" y1="0.00" x2="7.85" y2="1.00" />
<line x1="8.41" y1="0.00" x2="8.41" y2="1.00" />
<line x1="8.97" y1="0.00" x2="8.97" y2="3.00" />
<line x1="9.54" y1="0.00" x2="9.54" y2="2.00" />
<line x1="10.10" y1="0.00" x2="10.10" y2="1.00" />
<line x1="10.66" y1="0.00" x2="10.66" y2="4.00" />
<line x1="11.22" y1="0.00" x2="11.22" y2="3.00" />
<line x1="11.78" y1="0.00" x2="11.78" y2="1.00" />
<line x1="12.34" y1="0.00" x2="12.34" y2="4.00" />
<line x1="12.90" y1="0.00" x2="12.90" y2="4.00" />
<line x1="13.46" y1="0.00" x2="13.46" y2="1.00" />
<line x1="14.02" y1="0.00" x2="14.02" y2="1.00" />
<line x1="14.58" y1="0.00" x2="14.58" y2="5.00" />
<line x1="15.14" y1="0.00" x2="15.14" y2="5.00" />
<line x1="15.71" y1="0.00" x2="15.71" y2="1.00" />
<line x1="16.27" y1="0.00" x2="16.27" y2="1.00" />
<line x1="16.83" y1="0.00" x2="16.83" y2="5.00" />
<line x1="17.39" y1="0.00" x2="17.39" y2="7.00" />
<line x1="17.95" y1="0.00" x2="17.95" y2="2.00" />
<line x1="18.51" y1="0.00" x2="18.51" y2="1.00" />
<line x1="19.07" y1="0.00" x2="19.07" y2="6.00" />
<line x1="19.63" y1="0.00" x2="19.63" y2="8.00" />
<line x1="20.19" y1="0.00" x2="20.19" y2="3.00" />
<line x1="20.75" y1="0.00" x2="20.75" y2="1.00" />
<line x1="21.31" y1="0.00" x2="21.31" y2="6.00" />
<line x1="21.88" y1="0.00" x2="21.88" y2="10.00" />
<line x1="22.44" y1="0.00" x2="22.44" y2="5.00" />
<line x1="23.00" y1="0.00" x2="23.00" y2="1.00" />
<line x1="23.56" y1="0.00" x2="23.56" y2="7.00" />
<line x1="24.12" y1="0.00" x2="24.12" y2="12.00" />
<line x1="24.68" y1="0.00" x2="24.68" y2="6.00" />
<line x1="25.24" y1="0.00" x2="25.24" y2="1.00" />
<line x1="25.80" y1="0.00" x2="25.80" y2="1.00" />
<line x1="26.36" y1="0.00" x2="26.36" y2="7.00" />
<line x1="26.92" y1="0.00" x2="26.92" y2="14.00" />
<line x1="27.49" y1="0.00" x2="27.49" y2="9.00" />
<line x1="28.05" y1="0.00" x2="28.05" y2="1.00" />
<line x1="28.61" y1="0.00" x2="28.61" y2="1.00" />
<line x1="29.17" y1="0.00" x2="29.17" y2="8.00" />
<line x1="29.73" y1="0.00" x2="29.73" y2="16.00" />
<line x1="30.29" y1="0.00" x2="30.29" y2="11.00" />
<line x1="30.85" y1="0.00" x2="30.85" y2="2.00" />
<line x1="31.41" y1="0.00" x2="31.41" y2="1.00" />
<line x1="31.97" y1="0.00" x2="31.97" y2="8.00" />
<line x1="32.53" y1="0.00" x2="32.53" y2="19.00" />
<line x1="33.09" y1="0.00" x2="33.09" y2="15.00" />
<line x1="33.66" y1="0.00" x2="33.66" y2="3.00" />
<line x1="34.22" y1="0.00" x2="34.22" y2="1.00" />
<line x1="34.78" y1="0.00" x2="34.78" y2="9.00" />
<line x1="35.34" y1="0.00" x2="35.34" y2="21.00" />
<line x1="35.90" y1="0.00" x2="35.90" y2="18.00" />
<line x1="36.46" y1="0.00" x2="36.46" y2="5.00" />
<line x1="37.02" y1="0.00" x2="37.02" y2="1.00" />
<line x1="37.58" y1="0.00" x2="37.58" y2="9.00" />
<line x1="38.14" y1="0.00" x2="38.14" y2="24.00" />
<line x1="38.70" y1="0.00" x2="38.70" y2="23.00" />
<line x1="39.26" y1="0.00" x2="39.26" y2="7.00" />
<line x1="39.83" y1="0.00" x2="39.83" y2="1.00" />
<line x1="40.39" y1="0.00" x2="40.39" y2="10.00" />
<line x1="40.95" y1="0.00" x2="40.95" y2="27.00" />
<line x1="41.51" y1="0.00" x2="41.51" y2="27.00" />
<line x1="42.07" y1="0.00" x2="42.07" y2="10.00" />
<line x1="42.63" y1="0.00" x2="42.63" y2="1.00" />
</g>
</svg>