<svg xmlns="http://www.w3.org/2000/svg" width="93" height="96" viewBox="0 0 93 96">
<rect x="0" y="0" width="3" height="3" fill="rgb(0,0,0)"/>
<rect x="0" y="3" width="3" height="3" fill="rgb(0,0,0)"/>
<rect x="0" y="9" width="3" height="3" fill="rgb(0,0,0)"/>
<rect x="0" y="15" width="3" height="3" fill="rgb(0,0,0)"/>
<rect x="0" y="24" width="3" height="3" fill="rgb(0,0,0)"/>
<rect x="0" y="27" width="3" height="3" fill="rgb(0,0,0)"/>
<rect x="0" y="36" width="3" height="3" fill="rgb(0,0,0)"/>
<rect x="0" y="39" width="3" height="3" fill="rgb(0,0,0)"/>
<rect x="0" y="42" width="3" height="3" fill="rgb(0,0,0)"/>
<rect x="0" y="51" width="3" height="3" fill="rgb(0,0,0)"/>
<rect x="0" y="54" width="3" height="3" fill="rgb(0,0,0)"/>
<rect x="0" y="60" width="3" height="3" fill="rgb(0,0,0)"/>
<rect x="0" y="63" width="3" height="3" fill="rgb(0,0,0)"/>
<rect x="0" y="69" width="3" height="3" fill="rgb(0,0,0)"/>
<rect x="0" y="75" width="3" height="3" fill="rgb(0,0,0)"/>
<rect x="0" y="78" width="3" height="3" fill="rgb(0,0,0)"/>
<rect x="0" y="81" width="3" height="3" fill="rgb(0,0,0)"/>
<rect x="0" y="84" width="3" height="3" fill="rgb(0,0,0)"/>
<rect x="3" y="3" width="3" height="3" fill="rgb(0,0,0)"/>
<rect x="3" y="6" width="3" height="3" fill="rgb(0,0,0)"/>
<rect x="3" y="9" width="3" height="3" fill="rgb(0,0,0)"/>
<rect x="3" y="12" width="3" height="3" fill="rgb(0,0,0)"/>
<rect x="3" y="15" width="3" height="3" fill="rgb(0,0,0)"/>
<rect x="3" y="21" width="3" height="3" fill="rgb(0,0,0)"/>
<rect x="3" y="27" width="3" height="3" fill="rgb(0,0,0)"/>
<rect x="3" y="33" width="3" height="3" fill="rgb(0,0,0)"/>
<rect x="3" y="42" width="3" height="3" fill="rgb(0,0,0)"/>
<rect x="3" y="48" width="3" height="3" fill="rgb(0,0,0)"/>
<rect x="3" y="54" width="3" height="3" fill="rgb(0,0,0)"/>
<rect x="3" y="57" width="3" height="3" fill="rgb(0,0,0)"/>
<rect x="3" y="63" width="3" height="3" fill="rgb(0,0,0)"/>
<rect x="3" y="66" width="3" height="3" fill="rgb(0,0,0)"/>
<rect x="3" y="69" width="3" height="3" fill="rgb(0,0,0)"/>
<rect x="3" y="72" width="3" height="3" fill="rgb(0,0,0)"/>
<rect x="3" y="84" width="3" height="3" fill="rgb(0,0,0)"/>
<rect x="3" y="93" width="3" height="3" fill="rgb(0,0,0)"/>
<rect x="6" y="0" width="3" height="3" fill="rgb(0,0,0)"/>
<rect x="6" y="15" width="3" height="3" fill="rgb(0,0,0)"/>
<rect x="6" y="18" width="3" height="3" fill="rgb(0,0,0)"/>
<rect x="6" y="21" width="3" height="3" fill="rgb(0,0,0)"/>
<rect x="6" y="24" width="3" height="3" fill="rgb(0,0,0)"/>
<rect x="6" y="27" width="3" height="3" fill="rgb(0,0,0)"/>
<rect x="6" y="30" width="3" height="3" fill="rgb(0,0,0)"/>
<rect x="6" y="33" width="3" height="3" fill="rgb(0,0,0)"/>
<rect x="6" y="39" width="3" height="3" fill="rgb(0,0,0)"/>
<rect x="6" y="42" width="3" height="3" fill="rgb(0,0,0)"/>
<rect x="6" y="45" width="3" height="3" fill="rgb(0,0,0)"/>
<rect x="6" y="48" width="3" height="3" fill="rgb(0,0,0)"/>
<rect x="6" y="51" width="3" height="3" fill="rgb(0,0,0)"/>
<rect x="6" y="57" width="3" height="3" fill="rgb(0,0,0)"/>
<rect x="6" y="60" width="3" height="3" fill="rgb(0,0,0)"/>
<rect x="6" y="72" width="3" height="3" fill="rgb(0,0,0)"/>
<rect x="6" y="81" width="3" height="3" fill="rgb(0,0,0)"/>
<rect x="6" y="84" width="3" height="3" fill="rgb(0,0,0)"/>
<rect x="6" y="90" width="3" height="3" fill="rgb(0,0,0)"/>
<rect x="6" y="93" width="3" height="3" fill="rgb(0,0,0)"/>
<rect x="9" y="0" width="3" height="3" fill="rgb(0,0,0)"/>
<rect x="9" y="12" width="3" height="3" fill="rgb(0,0,0)"/>
<rect x="9" y="33" width="3" height="3" fill="rgb(0,0,0)"/>
<rect x="9" y="36" width="3" height="3" fill="rgb(0,0,0)"/>
<rect x="9" y="51" width="3" height="3" fill="rgb(0,0,0)"/>
<rect x="9" y="54" width="3" height="3" fill="rgb(0,0,0)"/>
<rect x="9" y="60" width="3" height="3" fill="rgb(0,0,0)"/>
<rect x="9" y="69" width="3" height="3" fill="rgb(0,0,0)"/>
<rect x="9" y="72" width="3" height="3" fill="rgb(0,0,0)"/>
<rect x="9" y="78" width="3" height="3" fill="rgb(0,0,0)"/>
<rect x="9" y="84" width="3" height="3" fill="rgb(0,0,0)"/>
<rect x="9" y="87" width="3" height="3" fill="rgb(0,0,0)"/>
<rect x="12" y="0" width="3" height="3" fill="rgb(0,0,0)"/>
<rect x="12" y="9" width="3" height="3" fill="rgb(0,0,0)"/>
<rect x="12" y="12" width="3" height="3" fill="rgb(0,0,0)"/>
<rect x="12" y="30" width="3" height="3" fill="rgb(0,0,0)"/>
<rect x="12" y="36" width="3" height="3" fill="rgb(0,0,0)"/>
<rect x="12" y="48" width="3" height="3" fill="rgb(0,0,0)"/>
<rect x="12" y="54" width="3" height="3" fill="rgb(0,0,0)"/>
<rect x="12" y="57" width="3" height="3" fill="rgb(0,0,0)"/>
<rect x="12" y="60" width="3" height="3" fill="rgb(0,0,0)"/>
<rect x="12" y="66" width="3" height="3" fill="rgb(0,0,0)"/>
<rect x="12" y="72" width="3" height="3" fill="rgb(0,0,0)"/>
<rect x="12" y="75" width="3" height="3" fill="rgb(0,0,0)"/>
<rect x="12" y="78" width="3" height="3" fill="rgb(0,0,0)"/>
<rect x="12" y="81" width="3" height="3" fill="rgb(0,0,0)"/>
<rect x="12" y="87" width="3" height="3" fill="rgb(0,0,0)"/>
<rect x="12" y="93" width="3" height="3" fill="rgb(0,0,0)"/>
<rect x="15" y="0" width="3" height="3" fill="rgb(0,0,0)"/>
<rect x="15" y="6" width="3" height="3" fill="rgb(0,0,0)"/>
<rect x="15" y="12" width="3" height="3" fill="rgb(0,0,0)"/>
<rect x="15" y="27" width="3" height="3" fill="rgb(0,0,0)"/>
<rect x="15" y="30" width="3" height="3" fill="rgb(0,0,0)"/>
<rect x="15" y="33" width="3" height="3" fill="rgb(0,0,0)"/>
<rect x="15" y="36" width="3" height="3" fill="rgb(0,0,0)"/>
<rect x="15" y="45" width="3" height="3" fill="rgb(0,0,0)"/>
<rect x="15" y="48" width="3" height="3" fill="rgb(0,0,0)"/>
<rect x="15" y="51" width="3" height="3" fill="rgb(0,0,0)"/>
<rect x="15" y="60" width="3" height="3" fill="rgb(0,0,0)"/>
<rect x="15" y="63" width="3" height="3" fill="rgb(0,0,0)"/>
<rect x="15" y="66" width="3" height="3" fill="rgb(0,0,0)"/>
<rect x="15" y="69" width="3" height="3" fill="rgb(0,0,0)"/>
<rect x="15" y="81" width="3" height="3" fill="rgb(0,0,0)"/>
<rect x="15" y="84" width="3" height="3" fill="rgb(0,0,0)"/>
<rect x="15" y="87" width="3" height="3" fill="rgb(0,0,0)"/>
<rect x="15" y="90" width="3" height="3" fill="rgb(0,0,0)"/>
<rect x="18" y="0" width="3" height="3" fill="rgb(0,0,0)"/>
<rect x="18" y="3" width="3" height="3" fill="rgb(0,0,0)"/>
<rect x="18" y="6" width="3" height="3" fill="rgb(0,0,0)"/>
<rect x="18" y="9" width="3" height="3" fill="rgb(0,0,0)"/>
<rect x="18" y="12" width="3" height="3" fill="rgb(0,0,0)"/>
<rect x="18" y="24" width="3" height="3" fill="rgb(0,0,0)"/>
<rect x="18" y="36" width="3" height="3" fill="rgb(0,0,0)"/>
<rect x="18" y="42" width="3" height="3" fill="rgb(0,0,0)"/>
<rect x="18" y="51" width="3" height="3" fill="rgb(0,0,0)"/>
<rect x="18" y="57" width="3" height="3" fill="rgb(0,0,0)"/>
<rect x="18" y="69" width="3" height="3" fill="rgb(0,0,0)"/>
<rect x="18" y="78" width="3" height="3" fill="rgb(0,0,0)"/>
<rect x="18" y="90" width="3" height="3" fill="rgb(0,0,0)"/>
<rect x="18" y="93" width="3" height="3" fill="rgb(0,0,0)"/>
<rect x="21" y="12" width="3" height="3" fill="rgb(0,0,0)"/>
<rect x="21" y="21" width="3" height="3" fill="rgb(0,0,0)"/>
<rect x="21" y="24" width="3" height="3" fill="rgb(0,0,0)"/>
<rect x="21" y="33" width="3" height="3" fill="rgb(0,0,0)"/>
<rect x="21" y="36" width="3" height="3" fill="rgb(0,0,0)"/>
<rect x="21" y="39" width="3" height="3" fill="rgb(0,0,0)"/>
<rect x="21" y="42" width="3" height="3" fill="rgb(0,0,0)"/>
<rect x="21" y="48" width="3" height="3" fill="rgb(0,0,0)"/>
<rect x="21" y="51" width="3" height="3" fill="rgb(0,0,0)"/>
<rect x="21" y="54" width="3" height="3" fill="rgb(0,0,0)"/>
<rect x="21" y="57" width="3" height="3" fill="rgb(0,0,0)"/>
<rect x="21" y="66" width="3" height="3" fill="rgb(0,0,0)"/>
<rect x="21" y="69" width="3" height="3" fill="rgb(0,0,0)"/>
<rect x="21" y="75" width="3" height="3" fill="rgb(0,0,0)"/>
<rect x="21" y="78" width="3" height="3" fill="rgb(0,0,0)"/>
<rect x="21" y="87" width="3" height="3" fill="rgb(0,0,0)"/>
<rect x="24" y="9" width="3" height="3" fill="rgb(0,0,0)"/>
<rect x="24" y="12" width="3" height="3" fill="rgb(0,0,0)"/>
<rect x="24" y="18" width="3" height="3" fill="rgb(0,0,0)"/>
<rect x="24" y="24" width="3" height="3" fill="rgb(0,0,0)"/>
<rect x="24" y="30" width="3" height="3" fill="rgb(0,0,0)"/>
<rect x="24" y="42" width="3" height="3" fill="rgb(0,0,0)"/>
<rect x="24" y="45" width="3" height="3" fill="rgb(0,0,0)"/>
<rect x="24" y="57" width="3" height="3" fill="rgb(0,0,0)"/>
<rect x="24" y="63" width="3" height="3" fill="rgb(0,0,0)"/>
<rect x="24" y="69" width="3" height="3" fill="rgb(0,0,0)"/>
<rect x="24" y="72" width="3" height="3" fill="rgb(0,0,0)"/>
<rect x="24" y="78" width="3" height="3" fill="rgb(0,0,0)"/>
<rect x="24" y="84" width="3" height="3" fill="rgb(0,0,0)"/>
<rect x="24" y="87" width="3" height="3" fill="rgb(0,0,0)"/>
<rect x="27" y="6" width="3" height="3" fill="rgb(0,0,0)"/>
<rect x="27" y="12" width="3" height="3" fill="rgb(0,0,0)"/>
<rect x="27" y="15" width="3" height="3" fill="rgb(0,0,0)"/>
<rect x="27" y="18" width="3" height="3" fill="rgb(0,0,0)"/>
<rect x="27" y="21" width="3" height="3" fill="rgb(0,0,0)"/>
<rect x="27" y="24" width="3" height="3" fill="rgb(0,0,0)"/>
<rect x="27" y="27" width="3" height="3" fill="rgb(0,0,0)"/>
<rect x="27" y="30" width="3" height="3" fill="rgb(0,0,0)"/>
<rect x="27" y="39" width="3" height="3" fill="rgb(0,0,0)"/>
<rect x="27" y="45" width="3" height="3" fill="rgb(0,0,0)"/>
<rect x="27" y="54" width="3" height="3" fill="rgb(0,0,0)"/>
<rect x="27" y="57" width="3" height="3" fill="rgb(0,0,0)"/>
<rect x="27" y="60" width="3" height="3" fill="rgb(0,0,0)"/>
<rect x="27" y="63" width="3" height="3" fill="rgb(0,0,0)"/>
<rect x="27" y="66" width="3" height="3" fill="rgb(0,0,0)"/>
<rect x="27" y="72" width="3" height="3" fill="rgb(0,0,0)"/>
<rect x="27" y="75" width="3" height="3" fill="rgb(0,0,0)"/>
<rect x="27" y="78" width="3" height="3" fill="rgb(0,0,0)"/>
<rect x="27" y="81" width="3" height="3" fill="rgb(0,0,0)"/>
<rect x="27" y="87" width="3" height="3" fill="rgb(0,0,0)"/>
<rect x="30" y="3" width="3" height="3" fill="rgb(0,0,0)"/>
<rect x="30" y="6" width="3" height="3" fill="rgb(0,0,0)"/>
<rect x="30" y="9" width="3" height="3" fill="rgb(0,0,0)"/>
<rect x="30" y="30" width="3" height="3" fill="rgb(0,0,0)"/>
<rect x="30" y="36" width="3" height="3" fill="rgb(0,0,0)"/>
<rect x="30" y="39" width="3" height="3" fill="rgb(0,0,0)"/>
<rect x="30" y="42" width="3" height="3" fill="rgb(0,0,0)"/>
<rect x="30" y="45" width="3" height="3" fill="rgb(0,0,0)"/>
<rect x="30" y="51" width="3" height="3" fill="rgb(0,0,0)"/>
<rect x="30" y="66" width="3" height="3" fill="rgb(0,0,0)"/>
<rect x="30" y="69" width="3" height="3" fill="rgb(0,0,0)"/>
<rect x="30" y="81" width="3" height="3" fill="rgb(0,0,0)"/>
<rect x="30" y="84" width="3" height="3" fill="rgb(0,0,0)"/>
<rect x="30" y="87" width="3" height="3" fill="rgb(0,0,0)"/>
<rect x="33" y="0" width="3" height="3" fill="rgb(0,0,0)"/>
<rect x="33" y="9" width="3" height="3" fill="rgb(0,0,0)"/>
<rect x="33" y="27" width="3" height="3" fill="rgb(0,0,0)"/>
<rect x="33" y="30" width="3" height="3" fill="rgb(0,0,0)"/>
<rect x="33" y="33" width="3" height="3" fill="rgb(0,0,0)"/>
<rect x="33" y="45" width="3" height="3" fill="rgb(0,0,0)"/>
<rect x="33" y="48" width="3" height="3" fill="rgb(0,0,0)"/>
<rect x="33" y="51" width="3" height="3" fill="rgb(0,0,0)"/>
<rect x="33" y="63" width="3" height="3" fill="rgb(0,0,0)"/>
<rect x="33" y="69" width="3" height="3" fill="rgb(0,0,0)"/>
<rect x="33" y="78" width="3" height="3" fill="rgb(0,0,0)"/>
<rect x="33" y="87" width="3" height="3" fill="rgb(0,0,0)"/>
<rect x="36" y="0" width="3" height="3" fill="rgb(0,0,0)"/>
<rect x="36" y="6" width="3" height="3" fill="rgb(0,0,0)"/>
<rect x="36" y="9" width="3" height="3" fill="rgb(0,0,0)"/>
<rect x="36" y="24" width="3" height="3" fill="rgb(0,0,0)"/>
<rect x="36" y="33" width="3" height="3" fill="rgb(0,0,0)"/>
<rect x="36" y="42" width="3" height="3" fill="rgb(0,0,0)"/>
<rect x="36" y="51" width="3" height="3" fill="rgb(0,0,0)"/>
<rect x="36" y="60" width="3" height="3" fill="rgb(0,0,0)"/>
<rect x="36" y="63" width="3" height="3" fill="rgb(0,0,0)"/>
<rect x="36" y="66" width="3" height="3" fill="rgb(0,0,0)"/>
<rect x="36" y="69" width="3" height="3" fill="rgb(0,0,0)"/>
<rect x="36" y="75" width="3" height="3" fill="rgb(0,0,0)"/>
<rect x="36" y="78" width="3" height="3" fill="rgb(0,0,0)"/>
<rect x="36" y="84" width="3" height="3" fill="rgb(0,0,0)"/>
<rect x="36" y="87" width="3" height="3" fill="rgb(0,0,0)"/>
<rect x="36" y="93" width="3" height="3" fill="rgb(0,0,0)"/>
<rect x="39" y="0" width="3" height="3" fill="rgb(0,0,0)"/>
<rect x="39" y="3" width="3" height="3" fill="rgb(0,0,0)"/>
<rect x="39" y="9" width="3" height="3" fill="rgb(0,0,0)"/>
<rect x="39" y="21" width="3" height="3" fill="rgb(0,0,0)"/>
<rect x="39" y="24" width="3" height="3" fill="rgb(0,0,0)"/>
<rect x="39" y="30" width="3" height="3" fill="rgb(0,0,0)"/>
<rect x="39" y="33" width="3" height="3" fill="rgb(0,0,0)"/>
<rect x="39" y="39" width="3" height="3" fill="rgb(0,0,0)"/>
<rect x="39" y="42" width="3" height="3" fill="rgb(0,0,0)"/>
<rect x="39" y="48" width="3" height="3" fill="rgb(0,0,0)"/>
<rect x="39" y="51" width="3" height="3" fill="rgb(0,0,0)"/>
<rect x="39" y="57" width="3" height="3" fill="rgb(0,0,0)"/>
<rect x="39" y="69" width="3" height="3" fill="rgb(0,0,0)"/>
<rect x="39" y="72" width="3" height="3" fill="rgb(0,0,0)"/>
<rect x="39" y="78" width="3" height="3" fill="rgb(0,0,0)"/>
<rect x="39" y="81" width="3" height="3" fill="rgb(0,0,0)"/>
<rect x="39" y="87" width="3" height="3" fill="rgb(0,0,0)"/>
<rect x="39" y="90" width="3" height="3" fill="rgb(0,0,0)"/>
<rect x="42" y="3" width="3" height="3" fill="rgb(0,0,0)"/>
<rect x="42" y="6" width="3" height="3" fill="rgb(0,0,0)"/>
<rect x="42" y="9" width="3" height="3" fill="rgb(0,0,0)"/>
<rect x="42" y="18" width="3" height="3" fill="rgb(0,0,0)"/>
<rect x="42" y="24" width="3" height="3" fill="rgb(0,0,0)"/>
<rect x="42" y="27" width="3" height="3" fill="rgb(0,0,0)"/>
<rect x="42" y="33" width="3" height="3" fill="rgb(0,0,0)"/>
<rect x="42" y="36" width="3" height="3" fill="rgb(0,0,0)"/>
<rect x="42" y="42" width="3" height="3" fill="rgb(0,0,0)"/>
<rect x="42" y="45" width="3" height="3" fill="rgb(0,0,0)"/>
<rect x="42" y="51" width="3" height="3" fill="rgb(0,0,0)"/>
<rect x="42" y="54" width="3" height="3" fill="rgb(0,0,0)"/>
<rect x="42" y="57" width="3" height="3" fill="rgb(0,0,0)"/>
<rect x="42" y="66" width="3" height="3" fill="rgb(0,0,0)"/>
<rect x="42" y="72" width="3" height="3" fill="rgb(0,0,0)"/>
<rect x="42" y="75" width="3" height="3" fill="rgb(0,0,0)"/>
<rect x="42" y="81" width="3" height="3" fill="rgb(0,0,0)"/>
<rect x="42" y="84" width="3" height="3" fill="rgb(0,0,0)"/>
<rect x="42" y="90" width="3" height="3" fill="rgb(0,0,0)"/>
<rect x="42" y="93" width="3" height="3" fill="rgb(0,0,0)"/>
<rect x="45" y="0" width="3" height="3" fill="rgb(0,0,0)"/>
<rect x="45" y="9" width="3" height="3" fill="rgb(0,0,0)"/>
<rect x="45" y="15" width="3" height="3" fill="rgb(0,0,0)"/>
<rect x="45" y="18" width="3" height="3" fill="rgb(0,0,0)"/>
<rect x="45" y="21" width="3" height="3" fill="rgb(0,0,0)"/>
<rect x="45" y="27" width="3" height="3" fill="rgb(0,0,0)"/>
<rect x="45" y="30" width="3" height="3" fill="rgb(0,0,0)"/>
<rect x="45" y="36" width="3" height="3" fill="rgb(0,0,0)"/>
<rect x="45" y="39" width="3" height="3" fill="rgb(0,0,0)"/>
<rect x="45" y="45" width="3" height="3" fill="rgb(0,0,0)"/>
<rect x="45" y="48" width="3" height="3" fill="rgb(0,0,0)"/>
<rect x="45" y="57" width="3" height="3" fill="rgb(0,0,0)"/>
<rect x="45" y="63" width="3" height="3" fill="rgb(0,0,0)"/>
<rect x="45" y="66" width="3" height="3" fill="rgb(0,0,0)"/>
<rect x="45" y="69" width="3" height="3" fill="rgb(0,0,0)"/>
<rect x="45" y="75" width="3" height="3" fill="rgb(0,0,0)"/>
<rect x="45" y="78" width="3" height="3" fill="rgb(0,0,0)"/>
<rect x="45" y="84" width="3" height="3" fill="rgb(0,0,0)"/>
<rect x="45" y="87" width="3" height="3" fill="rgb(0,0,0)"/>
<rect x="45" y="93" width="3" height="3" fill="rgb(0,0,0)"/>
<rect x="48" y="0" width="3" height="3" fill="rgb(0,0,0)"/>
<rect x="48" y="6" width="3" height="3" fill="rgb(0,0,0)"/>
<rect x="48" y="9" width="3" height="3" fill="rgb(0,0,0)"/>
<rect x="48" y="12" width="3" height="3" fill="rgb(0,0,0)"/>
<rect x="48" y="21" width="3" height="3" fill="rgb(0,0,0)"/>
<rect x="48" y="24" width="3" height="3" fill="rgb(0,0,0)"/>
<rect x="48" y="30" width="3" height="3" fill="rgb(0,0,0)"/>
<rect x="48" y="33" width="3" height="3" fill="rgb(0,0,0)"/>
<rect x="48" y="39" width="3" height="3" fill="rgb(0,0,0)"/>
<rect x="48" y="42" width="3" height="3" fill="rgb(0,0,0)"/>
<rect x="48" y="48" width="3" height="3" fill="rgb(0,0,0)"/>
<rect x="48" y="54" width="3" height="3" fill="rgb(0,0,0)"/>
<rect x="48" y="57" width="3" height="3" fill="rgb(0,0,0)"/>
<rect x="48" y="60" width="3" height="3" fill="rgb(0,0,0)"/>
<rect x="48" y="69" width="3" height="3" fill="rgb(0,0,0)"/>
<rect x="48" y="72" width="3" height="3" fill="rgb(0,0,0)"/>
<rect x="48" y="78" width="3" height="3" fill="rgb(0,0,0)"/>
<rect x="48" y="81" width="3" height="3" fill="rgb(0,0,0)"/>
<rect x="48" y="87" width="3" height="3" fill="rgb(0,0,0)"/>
<rect x="48" y="90" width="3" height="3" fill="rgb(0,0,0)"/>
<rect x="51" y="0" width="3" height="3" fill="rgb(0,0,0)"/>
<rect x="51" y="3" width="3" height="3" fill="rgb(0,0,0)"/>
<rect x="51" y="12" width="3" height="3" fill="rgb(0,0,0)"/>
<rect x="51" y="18" width="3" height="3" fill="rgb(0,0,0)"/>
<rect x="51" y="24" width="3" height="3" fill="rgb(0,0,0)"/>
<rect x="51" y="27" width="3" height="3" fill="rgb(0,0,0)"/>
<rect x="51" y="33" width="3" height="3" fill="rgb(0,0,0)"/>
<rect x="51" y="36" width="3" height="3" fill="rgb(0,0,0)"/>
<rect x="51" y="42" width="3" height="3" fill="rgb(0,0,0)"/>
<rect x="51" y="45" width="3" height="3" fill="rgb(0,0,0)"/>
<rect x="51" y="48" width="3" height="3" fill="rgb(0,0,0)"/>
<rect x="51" y="51" width="3" height="3" fill="rgb(0,0,0)"/>
<rect x="51" y="60" width="3" height="3" fill="rgb(0,0,0)"/>
<rect x="51" y="66" width="3" height="3" fill="rgb(0,0,0)"/>
<rect x="51" y="72" width="3" height="3" fill="rgb(0,0,0)"/>
<rect x="51" y="75" width="3" height="3" fill="rgb(0,0,0)"/>
<rect x="51" y="81" width="3" height="3" fill="rgb(0,0,0)"/>
<rect x="51" y="84" width="3" height="3" fill="rgb(0,0,0)"/>
<rect x="51" y="90" width="3" height="3" fill="rgb(0,0,0)"/>
<rect x="51" y="93" width="3" height="3" fill="rgb(0,0,0)"/>
<rect x="54" y="3" width="3" height="3" fill="rgb(0,0,0)"/>
<rect x="54" y="9" width="3" height="3" fill="rgb(0,0,0)"/>
<rect x="54" y="12" width="3" height="3" fill="rgb(0,0,0)"/>
<rect x="54" y="15" width="3" height="3" fill="rgb(0,0,0)"/>
<rect x="54" y="18" width="3" height="3" fill="rgb(0,0,0)"/>
<rect x="54" y="21" width="3" height="3" fill="rgb(0,0,0)"/>
<rect x="54" y="27" width="3" height="3" fill="rgb(0,0,0)"/>
<rect x="54" y="30" width="3" height="3" fill="rgb(0,0,0)"/>
<rect x="54" y="36" width="3" height="3" fill="rgb(0,0,0)"/>
<rect x="54" y="39" width="3" height="3" fill="rgb(0,0,0)"/>
<rect x="54" y="51" width="3" height="3" fill="rgb(0,0,0)"/>
<rect x="54" y="57" width="3" height="3" fill="rgb(0,0,0)"/>
<rect x="54" y="60" width="3" height="3" fill="rgb(0,0,0)"/>
<rect x="54" y="63" width="3" height="3" fill="rgb(0,0,0)"/>
<rect x="54" y="66" width="3" height="3" fill="rgb(0,0,0)"/>
<rect x="54" y="69" width="3" height="3" fill="rgb(0,0,0)"/>
<rect x="54" y="75" width="3" height="3" fill="rgb(0,0,0)"/>
<rect x="54" y="78" width="3" height="3" fill="rgb(0,0,0)"/>
<rect x="54" y="84" width="3" height="3" fill="rgb(0,0,0)"/>
<rect x="54" y="87" width="3" height="3" fill="rgb(0,0,0)"/>
<rect x="57" y="0" width="3" height="3" fill="rgb(0,0,0)"/>
<rect x="57" y="3" width="3" height="3" fill="rgb(0,0,0)"/>
<rect x="57" y="6" width="3" height="3" fill="rgb(0,0,0)"/>
<rect x="57" y="21" width="3" height="3" fill="rgb(0,0,0)"/>
<rect x="57" y="24" width="3" height="3" fill="rgb(0,0,0)"/>
<rect x="57" y="30" width="3" height="3" fill="rgb(0,0,0)"/>
<rect x="57" y="33" width="3" height="3" fill="rgb(0,0,0)"/>
<rect x="57" y="39" width="3" height="3" fill="rgb(0,0,0)"/>
<rect x="57" y="48" width="3" height="3" fill="rgb(0,0,0)"/>
<rect x="57" y="51" width="3" height="3" fill="rgb(0,0,0)"/>
<rect x="57" y="54" width="3" height="3" fill="rgb(0,0,0)"/>
<rect x="57" y="69" width="3" height="3" fill="rgb(0,0,0)"/>
<rect x="57" y="72" width="3" height="3" fill="rgb(0,0,0)"/>
<rect x="57" y="78" width="3" height="3" fill="rgb(0,0,0)"/>
<rect x="57" y="81" width="3" height="3" fill="rgb(0,0,0)"/>
<rect x="57" y="87" width="3" height="3" fill="rgb(0,0,0)"/>
<rect x="60" y="6" width="3" height="3" fill="rgb(0,0,0)"/>
<rect x="60" y="18" width="3" height="3" fill="rgb(0,0,0)"/>
<rect x="60" y="24" width="3" height="3" fill="rgb(0,0,0)"/>
<rect x="60" y="27" width="3" height="3" fill="rgb(0,0,0)"/>
<rect x="60" y="33" width="3" height="3" fill="rgb(0,0,0)"/>
<rect x="60" y="36" width="3" height="3" fill="rgb(0,0,0)"/>
<rect x="60" y="39" width="3" height="3" fill="rgb(0,0,0)"/>
<rect x="60" y="45" width="3" height="3" fill="rgb(0,0,0)"/>
<rect x="60" y="54" width="3" height="3" fill="rgb(0,0,0)"/>
<rect x="60" y="66" width="3" height="3" fill="rgb(0,0,0)"/>
<rect x="60" y="72" width="3" height="3" fill="rgb(0,0,0)"/>
<rect x="60" y="75" width="3" height="3" fill="rgb(0,0,0)"/>
<rect x="60" y="81" width="3" height="3" fill="rgb(0,0,0)"/>
<rect x="60" y="84" width="3" height="3" fill="rgb(0,0,0)"/>
<rect x="60" y="87" width="3" height="3" fill="rgb(0,0,0)"/>
<rect x="60" y="93" width="3" height="3" fill="rgb(0,0,0)"/>
<rect x="63" y="3" width="3" height="3" fill="rgb(0,0,0)"/>
<rect x="63" y="6" width="3" height="3" fill="rgb(0,0,0)"/>
<rect x="63" y="15" width="3" height="3" fill="rgb(0,0,0)"/>
<rect x="63" y="18" width="3" height="3" fill="rgb(0,0,0)"/>
<rect x="63" y="21" width="3" height="3" fill="rgb(0,0,0)"/>
<rect x="63" y="27" width="3" height="3" fill="rgb(0,0,0)"/>
<rect x="63" y="30" width="3" height="3" fill="rgb(0,0,0)"/>
<rect x="63" y="39" width="3" height="3" fill="rgb(0,0,0)"/>
<rect x="63" y="42" width="3" height="3" fill="rgb(0,0,0)"/>
<rect x="63" y="45" width="3" height="3" fill="rgb(0,0,0)"/>
<rect x="63" y="51" width="3" height="3" fill="rgb(0,0,0)"/>
<rect x="63" y="54" width="3" height="3" fill="rgb(0,0,0)"/>
<rect x="63" y="63" width="3" height="3" fill="rgb(0,0,0)"/>
<rect x="63" y="66" width="3" height="3" fill="rgb(0,0,0)"/>
<rect x="63" y="69" width="3" height="3" fill="rgb(0,0,0)"/>
<rect x="63" y="75" width="3" height="3" fill="rgb(0,0,0)"/>
<rect x="63" y="78" width="3" height="3" fill="rgb(0,0,0)"/>
<rect x="63" y="87" width="3" height="3" fill="rgb(0,0,0)"/>
<rect x="63" y="90" width="3" height="3" fill="rgb(0,0,0)"/>
<rect x="63" y="93" width="3" height="3" fill="rgb(0,0,0)"/>
<rect x="66" y="0" width="3" height="3" fill="rgb(0,0,0)"/>
<rect x="66" y="6" width="3" height="3" fill="rgb(0,0,0)"/>
<rect x="66" y="12" width="3" height="3" fill="rgb(0,0,0)"/>
<rect x="66" y="21" width="3" height="3" fill="rgb(0,0,0)"/>
<rect x="66" y="24" width="3" height="3" fill="rgb(0,0,0)"/>
<rect x="66" y="30" width="3" height="3" fill="rgb(0,0,0)"/>
<rect x="66" y="36" width="3" height="3" fill="rgb(0,0,0)"/>
<rect x="66" y="45" width="3" height="3" fill="rgb(0,0,0)"/>
<rect x="66" y="48" width="3" height="3" fill="rgb(0,0,0)"/>
<rect x="66" y="54" width="3" height="3" fill="rgb(0,0,0)"/>
<rect x="66" y="60" width="3" height="3" fill="rgb(0,0,0)"/>
<rect x="66" y="69" width="3" height="3" fill="rgb(0,0,0)"/>
<rect x="66" y="72" width="3" height="3" fill="rgb(0,0,0)"/>
<rect x="66" y="78" width="3" height="3" fill="rgb(0,0,0)"/>
<rect x="66" y="84" width="3" height="3" fill="rgb(0,0,0)"/>
<rect x="66" y="93" width="3" height="3" fill="rgb(0,0,0)"/>
<rect x="69" y="0" width="3" height="3" fill="rgb(0,0,0)"/>
<rect x="69" y="3" width="3" height="3" fill="rgb(0,0,0)"/>
<rect x="69" y="6" width="3" height="3" fill="rgb(0,0,0)"/>
<rect x="69" y="9" width="3" height="3" fill="rgb(0,0,0)"/>
<rect x="69" y="12" width="3" height="3" fill="rgb(0,0,0)"/>
<rect x="69" y="18" width="3" height="3" fill="rgb(0,0,0)"/>
<rect x="69" y="24" width="3" height="3" fill="rgb(0,0,0)"/>
<rect x="69" y="27" width="3" height="3" fill="rgb(0,0,0)"/>
<rect x="69" y="30" width="3" height="3" fill="rgb(0,0,0)"/>
<rect x="69" y="33" width="3" height="3" fill="rgb(0,0,0)"/>
<rect x="69" y="36" width="3" height="3" fill="rgb(0,0,0)"/>
<rect x="69" y="42" width="3" height="3" fill="rgb(0,0,0)"/>
<rect x="69" y="48" width="3" height="3" fill="rgb(0,0,0)"/>
<rect x="69" y="51" width="3" height="3" fill="rgb(0,0,0)"/>
<rect x="69" y="54" width="3" height="3" fill="rgb(0,0,0)"/>
<rect x="69" y="57" width="3" height="3" fill="rgb(0,0,0)"/>
<rect x="69" y="60" width="3" height="3" fill="rgb(0,0,0)"/>
<rect x="69" y="66" width="3" height="3" fill="rgb(0,0,0)"/>
<rect x="69" y="72" width="3" height="3" fill="rgb(0,0,0)"/>
<rect x="69" y="75" width="3" height="3" fill="rgb(0,0,0)"/>
<rect x="69" y="78" width="3" height="3" fill="rgb(0,0,0)"/>
<rect x="69" y="81" width="3" height="3" fill="rgb(0,0,0)"/>
<rect x="69" y="84" width="3" height="3" fill="rgb(0,0,0)"/>
<rect x="69" y="90" width="3" height="3" fill="rgb(0,0,0)"/>
<rect x="72" y="12" width="3" height="3" fill="rgb(0,0,0)"/>
<rect x="72" y="15" width="3" height="3" fill="rgb(0,0,0)"/>
<rect x="72" y="18" width="3" height="3" fill="rgb(0,0,0)"/>
<rect x="72" y="21" width="3" height="3" fill="rgb(0,0,0)"/>
<rect x="72" y="36" width="3" height="3" fill="rgb(0,0,0)"/>
<rect x="72" y="39" width="3" height="3" fill="rgb(0,0,0)"/>
<rect x="72" y="42" width="3" height="3" fill="rgb(0,0,0)"/>
<rect x="72" y="45" width="3" height="3" fill="rgb(0,0,0)"/>
<rect x="72" y="60" width="3" height="3" fill="rgb(0,0,0)"/>
<rect x="72" y="63" width="3" height="3" fill="rgb(0,0,0)"/>
<rect x="72" y="66" width="3" height="3" fill="rgb(0,0,0)"/>
<rect x="72" y="69" width="3" height="3" fill="rgb(0,0,0)"/>
<rect x="72" y="84" width="3" height="3" fill="rgb(0,0,0)"/>
<rect x="72" y="87" width="3" height="3" fill="rgb(0,0,0)"/>
<rect x="72" y="90" width="3" height="3" fill="rgb(0,0,0)"/>
<rect x="72" y="93" width="3" height="3" fill="rgb(0,0,0)"/>
<rect x="75" y="9" width="3" height="3" fill="rgb(0,0,0)"/>
<rect x="75" y="21" width="3" height="3" fill="rgb(0,0,0)"/>
<rect x="75" y="33" width="3" height="3" fill="rgb(0,0,0)"/>
<rect x="75" y="45" width="3" height="3" fill="rgb(0,0,0)"/>
<rect x="75" y="57" width="3" height="3" fill="rgb(0,0,0)"/>
<rect x="75" y="69" width="3" height="3" fill="rgb(0,0,0)"/>
<rect x="75" y="81" width="3" height="3" fill="rgb(0,0,0)"/>
<rect x="75" y="93" width="3" height="3" fill="rgb(0,0,0)"/>
<rect x="78" y="6" width="3" height="3" fill="rgb(0,0,0)"/>
<rect x="78" y="9" width="3" height="3" fill="rgb(0,0,0)"/>
<rect x="78" y="18" width="3" height="3" fill="rgb(0,0,0)"/>
<rect x="78" y="21" width="3" height="3" fill="rgb(0,0,0)"/>
<rect x="78" y="30" width="3" height="3" fill="rgb(0,0,0)"/>
<rect x="78" y="33" width="3" height="3" fill="rgb(0,0,0)"/>
<rect x="78" y="42" width="3" height="3" fill="rgb(0,0,0)"/>
<rect x="78" y="45" width="3" height="3" fill="rgb(0,0,0)"/>
<rect x="78" y="54" width="3" height="3" fill="rgb(0,0,0)"/>
<rect x="78" y="57" width="3" height="3" fill="rgb(0,0,0)"/>
<rect x="78" y="66" width="3" height="3" fill="rgb(0,0,0)"/>
<rect x="78" y="69" width="3" height="3" fill="rgb(0,0,0)"/>
<rect x="78" y="78" width="3" height="3" fill="rgb(0,0,0)"/>
<rect x="78" y="81" width="3" height="3" fill="rgb(0,0,0)"/>
<rect x="78" y="90" width="3" height="3" fill="rgb(0,0,0)"/>
<rect x="78" y="93" width="3" height="3" fill="rgb(0,0,0)"/>
<rect x="81" y="3" width="3" height="3" fill="rgb(0,0,0)"/>
<rect x="81" y="9" width="3" height="3" fill="rgb(0,0,0)"/>
<rect x="81" y="15" width="3" height="3" fill="rgb(0,0,0)"/>
<rect x="81" y="21" width="3" height="3" fill="rgb(0,0,0)"/>
<rect x="81" y="27" width="3" height="3" fill="rgb(0,0,0)"/>
<rect x="81" y="33" width="3" height="3" fill="rgb(0,0,0)"/>
<rect x="81" y="39" width="3" height="3" fill="rgb(0,0,0)"/>
<rect x="81" y="45" width="3" height="3" fill="rgb(0,0,0)"/>
<rect x="81" y="51" width="3" height="3" fill="rgb(0,0,0)"/>
<rect x="81" y="57" width="3" height="3" fill="rgb(0,0,0)"/>
<rect x="81" y="63" width="3" height="3" fill="rgb(0,0,0)"/>
<rect x="81" y="69" width="3" height="3" fill="rgb(0,0,0)"/>
<rect x="81" y="75" width="3" height="3" fill="rgb(0,0,0)"/>
<rect x="81" y="81" width="3" height="3" fill="rgb(0,0,0)"/>
<rect x="81" y="87" width="3" height="3" fill="rgb(0,0,0)"/>
<rect x="81" y="93" width="3" height="3" fill="rgb(0,0,0)"/>
<rect x="84" y="0" width="3" height="3" fill="rgb(0,0,0)"/>
<rect x="84" y="3" width="3" height="3" fill="rgb(0,0,0)"/>
<rect x="84" y="6" width="3" height="3" fill="rgb(0,0,0)"/>
<rect x="84" y="9" width="3" height="3" fill="rgb(0,0,0)"/>
<rect x="84" y="12" width="3" height="3" fill="rgb(0,0,0)"/>
<rect x="84" y="15" width="3" height="3" fill="rgb(0,0,0)"/>
<rect x="84" y="18" width="3" height="3" fill="rgb(0,0,0)"/>
<rect x="84" y="21" width="3" height="3" fill="rgb(0,0,0)"/>
<rect x="84" y="24" width="3" height="3" fill="rgb(0,0,0)"/>
<rect x="84" y="27" width="3" height="3" fill="rgb(0,0,0)"/>
<rect x="84" y="30" width="3" height="3" fill="rgb(0,0,0)"/>
<rect x="84" y="33" width="3" height="3" fill="rgb(0,0,0)"/>
<rect x="84" y="36" width="3" height="3" fill="rgb(0,0,0)"/>
<rect x="84" y="39" width="3" height="3" fill="rgb(0,0,0)"/>
<rect x="84" y="42" width="3" height="3" fill="rgb(0,0,0)"/>
<rect x="84" y="45" width="3" height="3" fill="rgb(0,0,0)"/>
<rect x="84" y="48" width="3" height="3" fill="rgb(0,0,0)"/>
<rect x="84" y="51" width="3" height="3" fill="rgb(0,0,0)"/>
<rect x="84" y="54" width="3" height="3" fill="rgb(0,0,0)"/>
<rect x="84" y="57" width="3" height="3" fill="rgb(0,0,0)"/>
<rect x="84" y="60" width="3" height="3" fill="rgb(0,0,0)"/>
<rect x="84" y="63" width="3" height="3" fill="rgb(0,0,0)"/>
<rect x="84" y="66" width="3" height="3" fill="rgb(0,0,0)"/>
<rect x="84" y="69" width="3" height="3" fill="rgb(0,0,0)"/>
<rect x="84" y="72" width="3" height="3" fill="rgb(0,0,0)"/>
<rect x="84" y="75" width="3" height="3" fill="rgb(0,0,0)"/>
<rect x="84" y="78" width="3" height="3" fill="rgb(0,0,0)"/>
<rect x="84" y="81" width="3" height="3" fill="rgb(0,0,0)"/>
<rect x="84" y="84" width="3" height="3" fill="rgb(0,0,0)"/>
<rect x="84" y="87" width="3" height="3" fill="rgb(0,0,0)"/>
<rect x="84" y="90" width="3" height="3" fill="rgb(0,0,0)"/>
<rect x="84" y="93" width="3" height="3" fill="rgb(0,0,0)"/>
</svg>