<svg xmlns="http://www.w3.org/2000/svg" width="161.8" height="100.0" viewBox="-4.30 -5.00 171.80 110.00">
<g fill="none" stroke="black" stroke-width="0.0606%" transform="translate(0, 100.0000) scale(8.2462, -8.2462)">
<circle cx="0.09" cy="0.00" r="0.06" />
<circle cx="0.17" cy="0.00" r="0.06" />
<circle cx="0.26" cy="0.00" r="0.06" />
<circle cx="0.34" cy="0.00" r="0.06" />
<circle cx="0.43" cy="0.69" r="0.06" />
<circle cx="0.51" cy="0.00" r="0.06" />
<circle cx="0.60" cy="0.00" r="0.06" />
<circle cx="0.68" cy="1.10" r="0.06" />
<circle cx="0.77" cy="1.10" r="0.06" />
<circle cx="0.85" cy="0.00" r="0.06" />
<circle cx="0.94" cy="0.00" r="0.06" />
<circle cx="1.02" cy="1.39" r="0.06" />
<circle cx="1.11" cy="1.79" r="0.06" />
<circle cx="1.19" cy="1.39" r="0.06" />
<circle cx="1.28" cy="0.00" r="0.06" />
<circle cx="1.36" cy="0.00" r="0.06" />
<circle cx="1.45" cy="1.61" r="0.06" />
<circle cx="1.54" cy="2.30" r="0.06" />
<circle cx="1.62" cy="2.30" r="0.06" />
<circle cx="1.71" cy="1.61" r="0.06" />
<circle cx="1.79" cy="0.00" r="0.06" />
<circle cx="1.88" cy="0.00" r="0.06" />
<circle cx="1.96" cy="1.79" r="0.06" />
<circle cx="2.05" cy="2.71" r="0.06" />
<circle cx="2.13" cy="3.00" r="0.06" />
<circle cx="2.22" cy="2.71" r="0.06" />
<circle cx="2.30" cy="1.79" r="0.06" />
<circle cx="2.39" cy="0.00" r="0.06" />
<circle cx="2.47" cy="0.00" r="0.06" />
<circle cx="2.56" cy="1.95" r="0.06" />
<circle cx="2.64" cy="3.04" r="0.06" />
<circle cx="2.73" cy="3.56" r="0.06" />
<circle cx="2.82" cy="3.56" r="0.06" />
<circle cx="2.90" cy="3.04" r="0.06" />
<circle cx="2.99" cy="1.95" r="0.06" />
<circle cx="3.07" cy="0.00" r="0.06" />
<circle cx="3.16" cy="0.00" r="0.06" />
<circle cx="3.24" cy="2.08" r="0.06" />
<circle cx="3.33" cy="3.33" r="0.06" />
<circle cx="3.41" cy="4.03" r="0.06" />
<circle cx="3.50" cy="4.25" r="0.06" />
<circle cx="3.58" cy="4.03" r="0.06" />
<circle cx="3.67" cy="3.33" r="0.06" />
<circle cx="3.75" cy="2.08" r="0.06" />
<circle cx="3.84" cy="0.00" r="0.06" />
<circle cx="3.92" cy="0.00" r="0.06" />
<circle cx="4.01" cy="2.20" r="0.06" />
<circle cx="4.09" cy="3.58" r="0.06" />
<circle cx="4.18" cy="4.43" r="0.06" />
<circle cx="4.27" cy="4.84" r="0.06" />
<circle cx="4.35" cy="4.84" r="0.06" />
<circle cx="4.44" cy="4.43" r="0.06" />
<circle cx="4.52" cy="3.58" r="0.06" />
<circle cx="4.61" cy="2.20" r="0.06" />
<circle cx="4.69" cy="0.00" r="0.06" />
<circle cx="4.78" cy="0.00" r="0.06" />
<circle cx="4.86" cy="2.30" r="0.06" />
<circle cx="4.95" cy="3.81" r="0.06" />
<circle cx="5.03" cy="4.79" r="0.06" />
<circle cx="5.12" cy="5.35" r="0.06" />
<circle cx="5.20" cy="5.53" r="0.06" />
<circle cx="5.29" cy="5.35" r="0.06" />
<circle cx="5.37" cy="4.79" r="0.06" />
<circle cx="5.46" cy="3.81" r="0.06" />
<circle cx="5.55" cy="2.30" r="0.06" />
<circle cx="5.63" cy="0.00" r="0.06" />
<circle cx="5.72" cy="0.00" r="0.06" />
<circle cx="5.80" cy="2.40" r="0.06" />
<circle cx="5.89" cy="4.01" r="0.06" />
<circle cx="5.97" cy="5.11" r="0.06" />
<circle cx="6.06" cy="5.80" r="0.06" />
<circle cx="6.14" cy="6.14" r="0.06" />
<circle cx="6.23" cy="6.14" r="0.06" />
<circle cx="6.31" cy="5.80" r="0.06" />
<circle cx="6.40" cy="5.11" r="0.06" />
<circle cx="6.48" cy="4.01" r="0.06" />
<circle cx="6.57" cy="2.40" r="0.06" />
<circle cx="6.65" cy="0.00" r="0.06" />
<circle cx="6.74" cy="0.00" r="0.06" />
<circle cx="6.82" cy="2.48" r="0.06" />
<circle cx="6.91" cy="4.19" r="0.06" />
<circle cx="7.00" cy="5.39" r="0.06" />
<circle cx="7.08" cy="6.20" r="0.06" />
<circle cx="7.17" cy="6.67" r="0.06" />
<circle cx="7.25" cy="6.83" r="0.06" />
<circle cx="7.34" cy="6.67" r="0.06" />
<circle cx="7.42" cy="6.20" r="0.06" />
<circle cx="7.51" cy="5.39" r="0.06" />
<circle cx="7.59" cy="4.19" r="0.06" />
<circle cx="7.68" cy="2.48" r="0.06" />
<circle cx="7.76" cy="0.00" r="0.06" />
<circle cx="7.85" cy="0.00" r="0.06" />
<circle cx="7.93" cy="2.56" r="0.06" />
<circle cx="8.02" cy="4.36" r="0.06" />
<circle cx="8.10" cy="5.66" r="0.06" />
<circle cx="8.19" cy="6.57" r="0.06" />
<circle cx="8.28" cy="7.16" r="0.06" />
<circle cx="8.36" cy="7.45" r="0.06" />
<circle cx="8.45" cy="7.45" r="0.06" />
<circle cx="8.53" cy="7.16" r="0.06" />
<circle cx="8.62" cy="6.57" r="0.06" />
<circle cx="8.70" cy="5.66" r="0.06" />
<circle cx="8.79" cy="4.36" r="0.06" />
<circle cx="8.87" cy="2.56" r="0.06" />
<circle cx="8.96" cy="0.00" r="0.06" />
<circle cx="9.04" cy="0.00" r="0.06" />
<circle cx="9.13" cy="2.64" r="0.06" />
<circle cx="9.21" cy="4.51" r="0.06" />
<circle cx="9.30" cy="5.90" r="0.06" />
<circle cx="9.38" cy="6.91" r="0.06" />
<circle cx="9.47" cy="7.60" r="0.06" />
<circle cx="9.55" cy="8.01" r="0.06" />
<circle cx="9.64" cy="8.14" r="0.06" />
<circle cx="9.73" cy="8.01" r="0.06" />
<circle cx="9.81" cy="7.60" r="0.06" />
<circle cx="9.90" cy="6.91" r="0.06" />
<circle cx="9.98" cy="5.90" r="0.06" />
<circle cx="10.07" cy="4.51" r="0.06" />
<circle cx="10.15" cy="2.64" r="0.06" />
<circle cx="10.24" cy="0.00" r="0.06" />
<circle cx="10.32" cy="0.00" r="0.06" />
<circle cx="10.41" cy="2.71" r="0.06" />
<circle cx="10.49" cy="4.65" r="0.06" />
<circle cx="10.58" cy="6.12" r="0.06" />
<circle cx="10.66" cy="7.22" r="0.06" />
<circle cx="10.75" cy="8.01" r="0.06" />
<circle cx="10.83" cy="8.52" r="0.06" />
<circle cx="10.92" cy="8.77" r="0.06" />
<circle cx="11.01" cy="8.77" r="0.06" />
<circle cx="11.09" cy="8.52" r="0.06" />
<circle cx="11.18" cy="8.01" r="0.06" />
<circle cx="11.26" cy="7.22" r="0.06" />
<circle cx="11.35" cy="6.12" r="0.06" />
<circle cx="11.43" cy="4.65" r="0.06" />
<circle cx="11.52" cy="2.71" r="0.06" />
<circle cx="11.60" cy="0.00" r="0.06" />
<circle cx="11.69" cy="0.00" r="0.06" />
<circle cx="11.77" cy="2.77" r="0.06" />
<circle cx="11.86" cy="4.79" r="0.06" />
<circle cx="11.94" cy="6.33" r="0.06" />
<circle cx="12.03" cy="7.51" r="0.06" />
<circle cx="12.11" cy="8.38" r="0.06" />
<circle cx="12.20" cy="8.99" r="0.06" />
<circle cx="12.28" cy="9.34" r="0.06" />
<circle cx="12.37" cy="9.46" r="0.06" />
<circle cx="12.46" cy="9.34" r="0.06" />
<circle cx="12.54" cy="8.99" r="0.06" />
<circle cx="12.63" cy="8.38" r="0.06" />
<circle cx="12.71" cy="7.51" r="0.06" />
<circle cx="12.80" cy="6.33" r="0.06" />
<circle cx="12.88" cy="4.79" r="0.06" />
<circle cx="12.97" cy="2.77" r="0.06" />
<circle cx="13.05" cy="0.00" r="0.06" />
<circle cx="13.14" cy="0.00" r="0.06" />
<circle cx="13.22" cy="2.83" r="0.06" />
<circle cx="13.31" cy="4.91" r="0.06" />
<circle cx="13.39" cy="6.52" r="0.06" />
<circle cx="13.48" cy="7.77" r="0.06" />
<circle cx="13.56" cy="8.73" r="0.06" />
<circle cx="13.65" cy="9.42" r="0.06" />
<circle cx="13.74" cy="9.88" r="0.06" />
<circle cx="13.82" cy="10.10" r="0.06" />
<circle cx="13.91" cy="10.10" r="0.06" />
<circle cx="13.99" cy="9.88" r="0.06" />
<circle cx="14.08" cy="9.42" r="0.06" />
<circle cx="14.16" cy="8.73" r="0.06" />
<circle cx="14.25" cy="7.77" r="0.06" />
<circle cx="14.33" cy="6.52" r="0.06" />
<circle cx="14.42" cy="4.91" r="0.06" />
<circle cx="14.50" cy="2.83" r="0.06" />
<circle cx="14.59" cy="0.00" r="0.06" />
<circle cx="14.67" cy="0.00" r="0.06" />
<circle cx="14.76" cy="2.89" r="0.06" />
<circle cx="14.84" cy="5.03" r="0.06" />
<circle cx="14.93" cy="6.70" r="0.06" />
<circle cx="15.01" cy="8.03" r="0.06" />
<circle cx="15.10" cy="9.06" r="0.06" />
<circle cx="15.19" cy="9.83" r="0.06" />
<circle cx="15.27" cy="10.37" r="0.06" />
<circle cx="15.36" cy="10.69" r="0.06" />
<circle cx="15.44" cy="10.79" r="0.06" />
<circle cx="15.53" cy="10.69" r="0.06" />
<circle cx="15.61" cy="10.37" r="0.06" />
<circle cx="15.70" cy="9.83" r="0.06" />
<circle cx="15.78" cy="9.06" r="0.06" />
<circle cx="15.87" cy="8.03" r="0.06" />
<circle cx="15.95" cy="6.70" r="0.06" />
<circle cx="16.04" cy="5.03" r="0.06" />
<circle cx="16.12" cy="2.89" r="0.06" />
<circle cx="16.21" cy="0.00" r="0.06" />
<circle cx="16.29" cy="0.00" r="0.06" />
<circle cx="16.38" cy="2.94" r="0.06" />
<circle cx="16.47" cy="5.14" r="0.06" />
<circle cx="16.55" cy="6.88" r="0.06" />
<circle cx="16.64" cy="8.26" r="0.06" />
<circle cx="16.72" cy="9.36" r="0.06" />
<circle cx="16.81" cy="10.21" r="0.06" />
<circle cx="16.89" cy="10.83" r="0.06" />
<circle cx="16.98" cy="11.23" r="0.06" />
<circle cx="17.06" cy="11.43" r="0.06" />
<circle cx="17.15" cy="11.43" r="0.06" />
<circle cx="17.23" cy="11.23" r="0.06" />
<circle cx="17.32" cy="10.83" r="0.06" />
<circle cx="17.40" cy="10.21" r="0.06" />
<circle cx="17.49" cy="9.36" r="0.06" />
<circle cx="17.57" cy="8.26" r="0.06" />
<circle cx="17.66" cy="6.88" r="0.06" />
<circle cx="17.74" cy="5.14" r="0.06" />
<circle cx="17.83" cy="2.94" r="0.06" />
<circle cx="17.92" cy="0.00" r="0.06" />
<circle cx="18.00" cy="0.00" r="0.06" />
<circle cx="18.09" cy="3.00" r="0.06" />
<circle cx="18.17" cy="5.25" r="0.06" />
<circle cx="18.26" cy="7.04" r="0.06" />
<circle cx="18.34" cy="8.49" r="0.06" />
<circle cx="18.43" cy="9.65" r="0.06" />
<circle cx="18.51" cy="10.57" r="0.06" />
<circle cx="18.60" cy="11.26" r="0.06" />
<circle cx="18.68" cy="11.74" r="0.06" />
<circle cx="18.77" cy="12.03" r="0.06" />
<circle cx="18.85" cy="12.13" r="0.06" />
<circle cx="18.94" cy="12.03" r="0.06" />
<circle cx="19.02" cy="11.74" r="0.06" />
<circle cx="19.11" cy="11.26" r="0.06" />
<circle cx="19.20" cy="10.57" r="0.06" />
<circle cx="19.28" cy="9.65" r="0.06" />
<circle cx="19.37" cy="8.49" r="0.06" />
<circle cx="19.45" cy="7.04" r="0.06" />
<circle cx="19.54" cy="5.25" r="0.06" />
<circle cx="19.62" cy="3.00" r="0.06" />
<circle cx="19.71" cy="0.00" r="0.06" />
</g>
</svg>