<svg xmlns="http://www.w3.org/2000/svg" width="96" height="96" viewBox="0 0 96 96">
<rect x="0" y="0" width="4" height="4" fill="rgb(0,0,0)"/>
<rect x="0" y="4" width="4" height="4" fill="rgb(0,0,0)"/>
<rect x="0" y="8" width="4" height="4" fill="rgb(0,0,0)"/>
<rect x="0" y="12" width="4" height="4" fill="rgb(0,0,0)"/>
<rect x="0" y="16" width="4" height="4" fill="rgb(0,0,0)"/>
<rect x="0" y="20" width="4" height="4" fill="rgb(0,0,0)"/>
<rect x="0" y="24" width="4" height="4" fill="rgb(0,0,0)"/>
<rect x="0" y="28" width="4" height="4" fill="rgb(0,0,0)"/>
<rect x="0" y="32" width="4" height="4" fill="rgb(0,0,0)"/>
<rect x="0" y="36" width="4" height="4" fill="rgb(0,0,0)"/>
<rect x="0" y="40" width="4" height="4" fill="rgb(0,0,0)"/>
<rect x="0" y="44" width="4" height="4" fill="rgb(0,0,0)"/>
<rect x="0" y="48" width="4" height="4" fill="rgb(0,0,0)"/>
<rect x="0" y="52" width="4" height="4" fill="rgb(0,0,0)"/>
<rect x="0" y="56" width="4" height="4" fill="rgb(0,0,0)"/>
<rect x="0" y="60" width="4" height="4" fill="rgb(0,0,0)"/>
<rect x="0" y="64" width="4" height="4" fill="rgb(0,0,0)"/>
<rect x="0" y="68" width="4" height="4" fill="rgb(0,0,0)"/>
<rect x="0" y="72" width="4" height="4" fill="rgb(0,0,0)"/>
<rect x="0" y="76" width="4" height="4" fill="rgb(0,0,0)"/>
<rect x="0" y="80" width="4" height="4" fill="rgb(0,0,0)"/>
<rect x="0" y="84" width="4" height="4" fill="rgb(0,0,0)"/>
<rect x="0" y="88" width="4" height="4" fill="rgb(0,0,0)"/>
<rect x="0" y="92" width="4" height="4" fill="rgb(0,0,0)"/>
<rect x="4" y="4" width="4" height="4" fill="rgb(0,0,0)"/>
<rect x="4" y="12" width="4" height="4" fill="rgb(0,0,0)"/>
<rect x="4" y="20" width="4" height="4" fill="rgb(0,0,0)"/>
<rect x="4" y="28" width="4" height="4" fill="rgb(0,0,0)"/>
<rect x="4" y="36" width="4" height="4" fill="rgb(0,0,0)"/>
<rect x="4" y="44" width="4" height="4" fill="rgb(0,0,0)"/>
<rect x="4" y="52" width="4" height="4" fill="rgb(0,0,0)"/>
<rect x="4" y="60" width="4" height="4" fill="rgb(0,0,0)"/>
<rect x="4" y="68" width="4" height="4" fill="rgb(0,0,0)"/>
<rect x="4" y="76" width="4" height="4" fill="rgb(0,0,0)"/>
<rect x="4" y="84" width="4" height="4" fill="rgb(0,0,0)"/>
<rect x="4" y="92" width="4" height="4" fill="rgb(0,0,0)"/>
<rect x="8" y="8" width="4" height="4" fill="rgb(0,0,0)"/>
<rect x="8" y="12" width="4" height="4" fill="rgb(0,0,0)"/>
<rect x="8" y="24" width="4" height="4" fill="rgb(0,0,0)"/>
<rect x="8" y="28" width="4" height="4" fill="rgb(0,0,0)"/>
<rect x="8" y="40" width="4" height="4" fill="rgb(0,0,0)"/>
<rect x="8" y="44" width="4" height="4" fill="rgb(0,0,0)"/>
<rect x="8" y="56" width="4" height="4" fill="rgb(0,0,0)"/>
<rect x="8" y="60" width="4" height="4" fill="rgb(0,0,0)"/>
<rect x="8" y="72" width="4" height="4" fill="rgb(0,0,0)"/>
<rect x="8" y="76" width="4" height="4" fill="rgb(0,0,0)"/>
<rect x="8" y="88" width="4" height="4" fill="rgb(0,0,0)"/>
<rect x="8" y="92" width="4" height="4" fill="rgb(0,0,0)"/>
<rect x="12" y="12" width="4" height="4" fill="rgb(0,0,0)"/>
<rect x="12" y="28" width="4" height="4" fill="rgb(0,0,0)"/>
<rect x="12" y="44" width="4" height="4" fill="rgb(0,0,0)"/>
<rect x="12" y="60" width="4" height="4" fill="rgb(0,0,0)"/>
<rect x="12" y="76" width="4" height="4" fill="rgb(0,0,0)"/>
<rect x="12" y="92" width="4" height="4" fill="rgb(0,0,0)"/>
<rect x="16" y="16" width="4" height="4" fill="rgb(0,0,0)"/>
<rect x="16" y="20" width="4" height="4" fill="rgb(0,0,0)"/>
<rect x="16" y="24" width="4" height="4" fill="rgb(0,0,0)"/>
<rect x="16" y="28" width="4" height="4" fill="rgb(0,0,0)"/>
<rect x="16" y="48" width="4" height="4" fill="rgb(0,0,0)"/>
<rect x="16" y="52" width="4" height="4" fill="rgb(0,0,0)"/>
<rect x="16" y="56" width="4" height="4" fill="rgb(0,0,0)"/>
<rect x="16" y="60" width="4" height="4" fill="rgb(0,0,0)"/>
<rect x="16" y="80" width="4" height="4" fill="rgb(0,0,0)"/>
<rect x="16" y="84" width="4" height="4" fill="rgb(0,0,0)"/>
<rect x="16" y="88" width="4" height="4" fill="rgb(0,0,0)"/>
<rect x="16" y="92" width="4" height="4" fill="rgb(0,0,0)"/>
<rect x="20" y="20" width="4" height="4" fill="rgb(0,0,0)"/>
<rect x="20" y="28" width="4" height="4" fill="rgb(0,0,0)"/>
<rect x="20" y="52" width="4" height="4" fill="rgb(0,0,0)"/>
<rect x="20" y="60" width="4" height="4" fill="rgb(0,0,0)"/>
<rect x="20" y="84" width="4" height="4" fill="rgb(0,0,0)"/>
<rect x="20" y="92" width="4" height="4" fill="rgb(0,0,0)"/>
<rect x="24" y="24" width="4" height="4" fill="rgb(0,0,0)"/>
<rect x="24" y="28" width="4" height="4" fill="rgb(0,0,0)"/>
<rect x="24" y="56" width="4" height="4" fill="rgb(0,0,0)"/>
<rect x="24" y="60" width="4" height="4" fill="rgb(0,0,0)"/>
<rect x="24" y="88" width="4" height="4" fill="rgb(0,0,0)"/>
<rect x="24" y="92" width="4" height="4" fill="rgb(0,0,0)"/>
<rect x="28" y="28" width="4" height="4" fill="rgb(0,0,0)"/>
<rect x="28" y="60" width="4" height="4" fill="rgb(0,0,0)"/>
<rect x="28" y="92" width="4" height="4" fill="rgb(0,0,0)"/>
<rect x="32" y="32" width="4" height="4" fill="rgb(0,0,0)"/>
<rect x="32" y="36" width="4" height="4" fill="rgb(0,0,0)"/>
<rect x="32" y="40" width="4" height="4" fill="rgb(0,0,0)"/>
<rect x="32" y="44" width="4" height="4" fill="rgb(0,0,0)"/>
<rect x="32" y="48" width="4" height="4" fill="rgb(0,0,0)"/>
<rect x="32" y="52" width="4" height="4" fill="rgb(0,0,0)"/>
<rect x="32" y="56" width="4" height="4" fill="rgb(0,0,0)"/>
<rect x="32" y="60" width="4" height="4" fill="rgb(0,0,0)"/>
<rect x="36" y="36" width="4" height="4" fill="rgb(0,0,0)"/>
<rect x="36" y="44" width="4" height="4" fill="rgb(0,0,0)"/>
<rect x="36" y="52" width="4" height="4" fill="rgb(0,0,0)"/>
<rect x="36" y="60" width="4" height="4" fill="rgb(0,0,0)"/>
<rect x="40" y="40" width="4" height="4" fill="rgb(0,0,0)"/>
<rect x="40" y="44" width="4" height="4" fill="rgb(0,0,0)"/>
<rect x="40" y="56" width="4" height="4" fill="rgb(0,0,0)"/>
<rect x="40" y="60" width="4" height="4" fill="rgb(0,0,0)"/>
<rect x="44" y="44" width="4" height="4" fill="rgb(0,0,0)"/>
<rect x="44" y="60" width="4" height="4" fill="rgb(0,0,0)"/>
<rect x="48" y="48" width="4" height="4" fill="rgb(0,0,0)"/>
<rect x="48" y="52" width="4" height="4" fill="rgb(0,0,0)"/>
<rect x="48" y="56" width="4" height="4" fill="rgb(0,0,0)"/>
<rect x="48" y="60" width="4" height="4" fill="rgb(0,0,0)"/>
<rect x="52" y="52" width="4" height="4" fill="rgb(0,0,0)"/>
<rect x="52" y="60" width="4" height="4" fill="rgb(0,0,0)"/>
<rect x="56" y="56" width="4" height="4" fill="rgb(0,0,0)"/>
<rect x="56" y="60" width="4" height="4" fill="rgb(0,0,0)"/>
<rect x="60" y="60" width="4" height="4" fill="rgb(0,0,0)"/>
<rect x="64" y="64" width="4" height="4" fill="rgb(0,0,0)"/>
<rect x="64" y="68" width="4" height="4" fill="rgb(0,0,0)"/>
<rect x="64" y="72" width="4" height="4" fill="rgb(0,0,0)"/>
<rect x="64" y="76" width="4" height="4" fill="rgb(0,0,0)"/>
<rect x="64" y="80" width="4" height="4" fill="rgb(0,0,0)"/>
<rect x="64" y="84" width="4" height="4" fill="rgb(0,0,0)"/>
<rect x="64" y="88" width="4" height="4" fill="rgb(0,0,0)"/>
<rect x="64" y="92" width="4" height="4" fill="rgb(0,0,0)"/>
<rect x="68" y="68" width="4" height="4" fill="rgb(0,0,0)"/>
<rect x="68" y="76" width="4" height="4" fill="rgb(0,0,0)"/>
<rect x="68" y="84" width="4" height="4" fill="rgb(0,0,0)"/>
<rect x="68" y="92" width="4" height="4" fill="rgb(0,0,0)"/>
<rect x="72" y="72" width="4" height="4" fill="rgb(0,0,0)"/>
<rect x="72" y="76" width="4" height="4" fill="rgb(0,0,0)"/>
<rect x="72" y="88" width="4" height="4" fill="rgb(0,0,0)"/>
<rect x="72" y="92" width="4" height="4" fill="rgb(0,0,0)"/>
<rect x="76" y="76" width="4" height="4" fill="rgb(0,0,0)"/>
<rect x="76" y="92" width="4" height="4" fill="rgb(0,0,0)"/>
<rect x="80" y="80" width="4" height="4" fill="rgb(0,0,0)"/>
<rect x="80" y="84" width="4" height="4" fill="rgb(0,0,0)"/>
<rect x="80" y="88" width="4" height="4" fill="rgb(0,0,0)"/>
<rect x="80" y="92" width="4" height="4" fill="rgb(0,0,0)"/>
<rect x="84" y="84" width="4" height="4" fill="rgb(0,0,0)"/>
<rect x="84" y="92" width="4" height="4" fill="rgb(0,0,0)"/>
<rect x="88" y="88" width="4" height="4" fill="rgb(0,0,0)"/>
<rect x="88" y="92" width="4" height="4" fill="rgb(0,0,0)"/>
<rect x="92" y="92" width="4" height="4" fill="rgb(0,0,0)"/>
</svg>