<svg xmlns="http://www.w3.org/2000/svg" width="161.8" height="100.0" viewBox="-2.511 -5.000 171.803 110.000">
<g fill="none" stroke="black" stroke-width="0.0050%" transform="translate(0, 100.0000) scale(100.0000, -100.0000)">
<line x1="0.025" y1="0.000" x2="0.025" y2="1.000" />
<line x1="0.050" y1="0.000" x2="0.050" y2="1.000" />
<line x1="0.075" y1="0.000" x2="0.075" y2="1.000" />
<line x1="0.100" y1="0.000" x2="0.100" y2="1.000" />

<line x1="0.149" y1="0.000" x2="0.149" y2="1.000" />
<line x1="0.174" y1="0.000" x2="0.174" y2="1.000" />
<line x1="0.199" y1="0.000" x2="0.199" y2="1.000" />
<line x1="0.224" y1="0.000" x2="0.224" y2="1.000" />
<line x1="0.249" y1="0.000" x2="0.249" y2="1.000" />
<line x1="0.274" y1="0.000" x2="0.274" y2="1.000" />



<line x1="0.373" y1="0.000" x2="0.373" y2="1.000" />
<line x1="0.398" y1="0.000" x2="0.398" y2="1.000" />
<line x1="0.423" y1="0.000" x2="0.423" y2="1.000" />


<line x1="0.498" y1="0.000" x2="0.498" y2="1.000" />
<line x1="0.523" y1="0.000" x2="0.523" y2="1.000" />
<line x1="0.548" y1="0.000" x2="0.548" y2="1.000" />

<line x1="0.597" y1="0.000" x2="0.597" y2="1.000" />

<line x1="0.647" y1="0.000" x2="0.647" y2="1.000" />

<line x1="0.697" y1="0.000" x2="0.697" y2="1.000" />
<line x1="0.722" y1="0.000" x2="0.722" y2="1.000" />
<line x1="0.747" y1="0.000" x2="0.747" y2="1.000" />
<line x1="0.772" y1="0.000" x2="0.772" y2="1.000" />
<line x1="0.797" y1="0.000" x2="0.797" y2="1.000" />
<line x1="0.821" y1="0.000" x2="0.821" y2="1.000" />
<line x1="0.846" y1="0.000" x2="0.846" y2="1.000" />
<line x1="0.871" y1="0.000" x2="0.871" y2="1.000" />
<line x1="0.896" y1="0.000" x2="0.896" y2="1.000" />
<line x1="0.921" y1="0.000" x2="0.921" y2="1.000" />







<line x1="1.120" y1="0.000" x2="1.120" y2="1.000" />
<line x1="1.145" y1="0.000" x2="1.145" y2="1.000" />
<line x1="1.170" y1="0.000" x2="1.170" y2="1.000" />






<line x1="1.344" y1="0.000" x2="1.344" y2="1.000" />
<line x1="1.369" y1="0.000" x2="1.369" y2="1.000" />
<line x1="1.394" y1="0.000" x2="1.394" y2="1.000" />

<line x1="1.444" y1="0.000" x2="1.444" y2="1.000" />





<line x1="1.593" y1="0.000" x2="1.593" y2="1.000" />

<line x1="1.643" y1="0.000" x2="1.643" y2="1.000" />
</g>
</svg>