<svg xmlns="http://www.w3.org/2000/svg" width="161.2" height="100.0" viewBox="-2.5 -5.0 171.2 110.0">
<g fill="none" stroke="black" stroke-width="1.2600%" transform="translate(0, 100.0000) scale(0.3968, -0.3968)">
<line x1="6.2" y1="0.0" x2="6.2" y2="1.0" />
<line x1="12.5" y1="0.0" x2="12.5" y2="1.0" />
<line x1="18.7" y1="0.0" x2="18.7" y2="1.0" />
<line x1="25.0" y1="0.0" x2="25.0" y2="1.0" />
<line x1="31.2" y1="0.0" x2="31.2" y2="2.0" />
<line x1="37.5" y1="0.0" x2="37.5" y2="1.0" />
<line x1="43.7" y1="0.0" x2="43.7" y2="1.0" />
<line x1="50.0" y1="0.0" x2="50.0" y2="3.0" />
<line x1="56.2" y1="0.0" x2="56.2" y2="3.0" />
<line x1="62.5" y1="0.0" x2="62.5" y2="1.0" />
<line x1="68.7" y1="0.0" x2="68.7" y2="1.0" />
<line x1="75.0" y1="0.0" x2="75.0" y2="4.0" />
<line x1="81.2" y1="0.0" x2="81.2" y2="6.0" />
<line x1="87.5" y1="0.0" x2="87.5" y2="4.0" />
<line x1="93.7" y1="0.0" x2="93.7" y2="1.0" />
<line x1="100.0" y1="0.0" x2="100.0" y2="1.0" />
<line x1="106.2" y1="0.0" x2="106.2" y2="5.0" />
<line x1="112.5" y1="0.0" x2="112.5" y2="10.0" />
<line x1="118.7" y1="0.0" x2="118.7" y2="10.0" />
<line x1="125.0" y1="0.0" x2="125.0" y2="5.0" />
<line x1="131.2" y1="0.0" x2="131.2" y2="1.0" />
<line x1="137.5" y1="0.0" x2="137.5" y2="1.0" />
<line x1="143.7" y1="0.0" x2="143.7" y2="6.0" />
<line x1="150.0" y1="0.0" x2="150.0" y2="15.0" />
<line x1="156.2" y1="0.0" x2="156.2" y2="20.0" />
<line x1="162.5" y1="0.0" x2="162.5" y2="15.0" />
<line x1="168.7" y1="0.0" x2="168.7" y2="6.0" />
<line x1="174.9" y1="0.0" x2="174.9" y2="1.0" />
<line x1="181.2" y1="0.0" x2="181.2" y2="1.0" />
<line x1="187.4" y1="0.0" x2="187.4" y2="7.0" />
<line x1="193.7" y1="0.0" x2="193.7" y2="21.0" />
<line x1="199.9" y1="0.0" x2="199.9" y2="35.0" />
<line x1="206.2" y1="0.0" x2="206.2" y2="35.0" />
<line x1="212.4" y1="0.0" x2="212.4" y2="21.0" />
<line x1="218.7" y1="0.0" x2="218.7" y2="7.0" />
<line x1="224.9" y1="0.0" x2="224.9" y2="1.0" />
<line x1="231.2" y1="0.0" x2="231.2" y2="1.0" />
<line x1="237.4" y1="0.0" x2="237.4" y2="8.0" />
<line x1="243.7" y1="0.0" x2="243.7" y2="28.0" />
<line x1="249.9" y1="0.0" x2="249.9" y2="56.0" />
<line x1="256.2" y1="0.0" x2="256.2" y2="70.0" />
<line x1="262.4" y1="0.0" x2="262.4" y2="56.0" />
<line x1="268.7" y1="0.0" x2="268.7" y2="28.0" />
<line x1="274.9" y1="0.0" x2="274.9" y2="8.0" />
<line x1="281.2" y1="0.0" x2="281.2" y2="1.0" />
<line x1="287.4" y1="0.0" x2="287.4" y2="1.0" />
<line x1="293.7" y1="0.0" x2="293.7" y2="9.0" />
<line x1="299.9" y1="0.0" x2="299.9" y2="36.0" />
<line x1="306.2" y1="0.0" x2="306.2" y2="84.0" />
<line x1="312.4" y1="0.0" x2="312.4" y2="126.0" />
<line x1="318.7" y1="0.0" x2="318.7" y2="126.0" />
<line x1="324.9" y1="0.0" x2="324.9" y2="84.0" />
<line x1="331.1" y1="0.0" x2="331.1" y2="36.0" />
<line x1="337.4" y1="0.0" x2="337.4" y2="9.0" />
<line x1="343.6" y1="0.0" x2="343.6" y2="1.0" />
<line x1="349.9" y1="0.0" x2="349.9" y2="1.0" />
<line x1="356.1" y1="0.0" x2="356.1" y2="10.0" />
<line x1="362.4" y1="0.0" x2="362.4" y2="45.0" />
<line x1="368.6" y1="0.0" x2="368.6" y2="120.0" />
<line x1="374.9" y1="0.0" x2="374.9" y2="210.0" />
<line x1="381.1" y1="0.0" x2="381.1" y2="252.0" />
<line x1="387.4" y1="0.0" x2="387.4" y2="210.0" />
<line x1="393.6" y1="0.0" x2="393.6" y2="120.0" />
<line x1="399.9" y1="0.0" x2="399.9" y2="45.0" />
<line x1="406.1" y1="0.0" x2="406.1" y2="10.0" />
<line x1="412.4" y1="0.0" x2="412.4" y2="1.0" />
</g>
</svg>