<svg xmlns="http://www.w3.org/2000/svg" width="161.8" height="100.0" viewBox="-3.46 -5.00 171.80 110.00">
<g fill="none" stroke="black" stroke-width="0.0250%" transform="translate(0, 100.0000) scale(20.0000, -20.0000)">
<polyline points="0.08,1.00 0.15,1.00 0.15,1.00 0.23,1.00 0.23,1.00 0.31,1.00 0.31,1.00 0.39,1.00 0.39,2.00 0.46,2.00 0.46,1.00 0.54,1.00 0.54,1.00 0.62,1.00 0.62,3.00 0.69,3.00 0.69,3.00 0.77,3.00 0.77,1.00 0.85,1.00 0.85,1.00 0.92,1.00 0.92,4.00 1.00,4.00 1.00,0.00 1.08,0.00 1.08,4.00 1.16,4.00 1.16,1.00 1.23,1.00 1.23,1.00 1.31,1.00 1.31,5.00 1.39,5.00 1.39,4.00 1.46,4.00 1.46,4.00 1.54,4.00 1.54,5.00 1.62,5.00 1.62,1.00 1.70,1.00 1.70,1.00 1.77,1.00 1.77,0.00 1.85,0.00 1.85,3.00 1.93,3.00 1.93,2.00 2.00,2.00 2.00,3.00 2.08,3.00 2.08,0.00 2.16,0.00 2.16,1.00 2.23,1.00 2.23,1.00 2.31,1.00 2.31,1.00 2.39,1.00 2.39,3.00 2.47,3.00 2.47,5.00 2.54,5.00 2.54,5.00 2.62,5.00 2.62,3.00 2.70,3.00 2.70,1.00 2.77,1.00 2.77,1.00 2.85,1.00 2.85,1.00 2.93,1.00 2.93,2.00 3.00,2.00 3.00,4.00 3.08,4.00 3.08,2.00 3.16,2.00 3.16,4.00 3.24,4.00 3.24,2.00 3.31,2.00 3.31,4.00 3.39,4.00 3.39,2.00 3.47,2.00 3.47,1.00 3.54,1.00 3.54,1.00 3.62,1.00 3.62,3.00 3.70,3.00 3.70,0.00 3.78,0.00 3.78,0.00 3.85,0.00 3.85,0.00 3.93,0.00 3.93,0.00 4.01,0.00 4.01,0.00 4.08,0.00 4.08,0.00 4.16,0.00 4.16,3.00 4.24,3.00 4.24,1.00 4.31,1.00 4.31,1.00 4.39,1.00 4.39,4.00 4.47,4.00 4.47,3.00 4.55,3.00 4.55,0.00 4.62,0.00 4.62,0.00 4.70,0.00 4.70,0.00 4.78,0.00 4.78,0.00 4.85,0.00 4.85,0.00 4.93,0.00 4.93,3.00 5.01,3.00 5.01,4.00 5.09,4.00 5.09,1.00 5.16,1.00 5.16,1.00 5.24,1.00 5.24,5.00 5.32,5.00 5.32,1.00 5.39,1.00 5.39,3.00 5.47,3.00 5.47,0.00 5.55,0.00 5.55,0.00 5.62,0.00 5.62,0.00 5.70,0.00 5.70,0.00 5.78,0.00 5.78,3.00 5.86,3.00 5.86,1.00 5.93,1.00 5.93,5.00 6.01,5.00 6.01,1.00 6.09,1.00 6.09,1.00 6.16,1.00 6.16,0.00 6.24,0.00 6.24,0.00 6.32,0.00 6.32,4.00 6.40,4.00 6.40,3.00 6.47,3.00 6.47,0.00 6.55,0.00 6.55,0.00 6.63,0.00 6.63,0.00 6.70,0.00 6.70,3.00 6.78,3.00 6.78,4.00 6.86,4.00 6.86,0.00 6.93,0.00 6.93,0.00 7.01,0.00 7.01,1.00 7.09,1.00 7.09,1.00 7.17,1.00 7.17,1.00 7.24,1.00 7.24,0.00 7.32,0.00 7.32,4.00 7.40,4.00 7.40,1.00 7.47,1.00 7.47,3.00 7.55,3.00 7.55,0.00 7.63,0.00 7.63,0.00 7.70,0.00 7.70,3.00 7.78,3.00 7.78,1.00 7.86,1.00 7.86,4.00 7.94,4.00 7.94,0.00 8.01,0.00 8.01,1.00 8.09,1.00 8.09,1.00 8.17,1.00" />
</g>
</svg>