<svg xmlns="http://www.w3.org/2000/svg" width="92" height="92" viewBox="0 0 92 92">
<rect x="0" y="4" width="4" height="4" fill="rgb(0,0,0)"/>
<rect x="4" y="0" width="4" height="4" fill="rgb(0,0,0)"/>
<rect x="4" y="8" width="4" height="4" fill="rgb(0,0,0)"/>
<rect x="8" y="4" width="4" height="4" fill="rgb(0,0,0)"/>
<rect x="8" y="12" width="4" height="4" fill="rgb(0,0,0)"/>
<rect x="12" y="8" width="4" height="4" fill="rgb(0,0,0)"/>
<rect x="12" y="16" width="4" height="4" fill="rgb(0,0,0)"/>
<rect x="16" y="12" width="4" height="4" fill="rgb(0,0,0)"/>
<rect x="16" y="20" width="4" height="4" fill="rgb(0,0,0)"/>
<rect x="20" y="16" width="4" height="4" fill="rgb(0,0,0)"/>
<rect x="20" y="24" width="4" height="4" fill="rgb(0,0,0)"/>
<rect x="24" y="20" width="4" height="4" fill="rgb(0,0,0)"/>
<rect x="24" y="28" width="4" height="4" fill="rgb(0,0,0)"/>
<rect x="28" y="24" width="4" height="4" fill="rgb(0,0,0)"/>
<rect x="28" y="32" width="4" height="4" fill="rgb(0,0,0)"/>
<rect x="32" y="28" width="4" height="4" fill="rgb(0,0,0)"/>
<rect x="32" y="36" width="4" height="4" fill="rgb(0,0,0)"/>
<rect x="36" y="32" width="4" height="4" fill="rgb(0,0,0)"/>
<rect x="36" y="40" width="4" height="4" fill="rgb(0,0,0)"/>
<rect x="40" y="36" width="4" height="4" fill="rgb(0,0,0)"/>
<rect x="40" y="44" width="4" height="4" fill="rgb(0,0,0)"/>
<rect x="44" y="40" width="4" height="4" fill="rgb(0,0,0)"/>
<rect x="44" y="48" width="4" height="4" fill="rgb(0,0,0)"/>
<rect x="48" y="44" width="4" height="4" fill="rgb(0,0,0)"/>
<rect x="48" y="52" width="4" height="4" fill="rgb(0,0,0)"/>
<rect x="52" y="48" width="4" height="4" fill="rgb(0,0,0)"/>
<rect x="52" y="56" width="4" height="4" fill="rgb(0,0,0)"/>
<rect x="56" y="52" width="4" height="4" fill="rgb(0,0,0)"/>
<rect x="56" y="60" width="4" height="4" fill="rgb(0,0,0)"/>
<rect x="60" y="56" width="4" height="4" fill="rgb(0,0,0)"/>
<rect x="60" y="64" width="4" height="4" fill="rgb(0,0,0)"/>
<rect x="64" y="60" width="4" height="4" fill="rgb(0,0,0)"/>
<rect x="64" y="68" width="4" height="4" fill="rgb(0,0,0)"/>
<rect x="68" y="64" width="4" height="4" fill="rgb(0,0,0)"/>
<rect x="68" y="72" width="4" height="4" fill="rgb(0,0,0)"/>
<rect x="72" y="68" width="4" height="4" fill="rgb(0,0,0)"/>
<rect x="72" y="76" width="4" height="4" fill="rgb(0,0,0)"/>
<rect x="76" y="72" width="4" height="4" fill="rgb(0,0,0)"/>
<rect x="76" y="80" width="4" height="4" fill="rgb(0,0,0)"/>
<rect x="80" y="76" width="4" height="4" fill="rgb(0,0,0)"/>
<rect x="80" y="84" width="4" height="4" fill="rgb(0,0,0)"/>
<rect x="84" y="80" width="4" height="4" fill="rgb(0,0,0)"/>
<rect x="84" y="88" width="4" height="4" fill="rgb(0,0,0)"/>
<rect x="88" y="84" width="4" height="4" fill="rgb(0,0,0)"/>
</svg>