<svg xmlns="http://www.w3.org/2000/svg" width="161.8" height="100.0" viewBox="-85.902 -5.000 171.803 110.000">
<g fill="none" stroke="black" stroke-width="0.0020%" transform="translate(0, 100.0007) scale(250.6638, -250.6638)">
<polyline points="-0.323,0.000 -0.316,0.000 -0.310,0.000 -0.303,0.000 -0.297,0.000 -0.290,0.000 -0.284,0.000 -0.278,0.000 -0.271,0.000 -0.265,0.000 -0.258,0.000 -0.252,0.000 -0.245,0.000 -0.239,0.000 -0.232,0.001 -0.226,0.001 -0.219,0.001 -0.213,0.002 -0.207,0.002 -0.200,0.003 -0.194,0.004 -0.187,0.006 -0.181,0.008 -0.174,0.010 -0.168,0.014 -0.161,0.018 -0.155,0.022 -0.148,0.028 -0.142,0.035 -0.136,0.044 -0.129,0.054 -0.123,0.066 -0.116,0.079 -0.110,0.094 -0.103,0.111 -0.097,0.130 -0.090,0.150 -0.084,0.171 -0.077,0.194 -0.071,0.218 -0.065,0.242 -0.058,0.266 -0.052,0.290 -0.045,0.312 -0.039,0.333 -0.032,0.352 -0.026,0.368 -0.019,0.381 -0.013,0.391 -0.006,0.397 -0.000,0.399 0.006,0.397 0.013,0.391 0.019,0.381 0.026,0.368 0.032,0.352 0.039,0.333 0.045,0.312 0.052,0.290 0.058,0.266 0.065,0.242 0.071,0.218 0.077,0.194 0.084,0.171 0.090,0.150 0.097,0.130 0.103,0.111 0.110,0.094 0.116,0.079 0.123,0.066 0.129,0.054 0.136,0.044 0.142,0.035 0.148,0.028 0.155,0.022 0.161,0.018 0.168,0.014 0.174,0.010 0.181,0.008 0.187,0.006 0.194,0.004 0.200,0.003 0.207,0.002 0.213,0.002 0.219,0.001 0.226,0.001 0.232,0.001 0.239,0.000 0.245,0.000 0.252,0.000 0.258,0.000 0.265,0.000 0.271,0.000 0.278,0.000 0.284,0.000 0.290,0.000 0.297,0.000 0.303,0.000 0.310,0.000 0.316,0.000 0.323,0.000" />
</g>
</svg>