<svg xmlns="http://www.w3.org/2000/svg" width="161.8" height="100.0" viewBox="-2 -5 172 110">
<g fill="none" stroke="black" stroke-width="4.9250%" transform="translate(0, 100.0000) scale(0.1015, -0.1015)">

<line x1="59" y1="0" x2="59" y2="1" />
<line x1="89" y1="0" x2="89" y2="1" />

<line x1="148" y1="0" x2="148" y2="1" />
<line x1="177" y1="0" x2="177" y2="2" />
<line x1="207" y1="0" x2="207" y2="2" />
<line x1="236" y1="0" x2="236" y2="2" />
<line x1="266" y1="0" x2="266" y2="3" />
<line x1="295" y1="0" x2="295" y2="5" />

<line x1="354" y1="0" x2="354" y2="2" />
<line x1="384" y1="0" x2="384" y2="4" />
<line x1="413" y1="0" x2="413" y2="7" />
<line x1="443" y1="0" x2="443" y2="12" />
<line x1="472" y1="0" x2="472" y2="4" />
<line x1="502" y1="0" x2="502" y2="4" />
<line x1="531" y1="0" x2="531" y2="6" />
<line x1="561" y1="0" x2="561" y2="10" />
<line x1="590" y1="0" x2="590" y2="17" />
<line x1="620" y1="0" x2="620" y2="29" />

<line x1="679" y1="0" x2="679" y2="4" />
<line x1="708" y1="0" x2="708" y2="8" />
<line x1="738" y1="0" x2="738" y2="14" />
<line x1="767" y1="0" x2="767" y2="24" />
<line x1="797" y1="0" x2="797" y2="41" />
<line x1="826" y1="0" x2="826" y2="70" />
<line x1="856" y1="0" x2="856" y2="8" />
<line x1="885" y1="0" x2="885" y2="8" />
<line x1="915" y1="0" x2="915" y2="12" />
<line x1="944" y1="0" x2="944" y2="20" />
<line x1="974" y1="0" x2="974" y2="34" />
<line x1="1003" y1="0" x2="1003" y2="58" />
<line x1="1033" y1="0" x2="1033" y2="99" />
<line x1="1063" y1="0" x2="1063" y2="169" />

<line x1="1122" y1="0" x2="1122" y2="8" />
<line x1="1151" y1="0" x2="1151" y2="16" />
<line x1="1181" y1="0" x2="1181" y2="28" />
<line x1="1210" y1="0" x2="1210" y2="48" />
<line x1="1240" y1="0" x2="1240" y2="82" />
<line x1="1269" y1="0" x2="1269" y2="140" />
<line x1="1299" y1="0" x2="1299" y2="239" />
<line x1="1328" y1="0" x2="1328" y2="408" />
<line x1="1358" y1="0" x2="1358" y2="16" />
<line x1="1387" y1="0" x2="1387" y2="16" />
<line x1="1417" y1="0" x2="1417" y2="24" />
<line x1="1446" y1="0" x2="1446" y2="40" />
<line x1="1476" y1="0" x2="1476" y2="68" />
<line x1="1505" y1="0" x2="1505" y2="116" />
<line x1="1535" y1="0" x2="1535" y2="198" />
<line x1="1564" y1="0" x2="1564" y2="338" />
<line x1="1594" y1="0" x2="1594" y2="577" />
<line x1="1623" y1="0" x2="1623" y2="985" />
</g>
</svg>