<svg xmlns="http://www.w3.org/2000/svg" width="161.8" height="100.0" viewBox="-3.09 -5.00 171.80 110.00">
<g fill="none" stroke="black" stroke-width="0.0697%" transform="translate(0, 100.0000) scale(7.1717, -7.1717)">
<circle cx="0.27" cy="0.00" r="0.07" />
<circle cx="0.40" cy="0.00" r="0.07" />
<circle cx="0.67" cy="0.00" r="0.07" />
<circle cx="0.80" cy="0.69" r="0.07" />
<circle cx="0.93" cy="0.69" r="0.07" />
<circle cx="1.07" cy="0.69" r="0.07" />
<circle cx="1.20" cy="1.10" r="0.07" />
<circle cx="1.33" cy="1.61" r="0.07" />
<circle cx="1.60" cy="0.69" r="0.07" />
<circle cx="1.74" cy="1.39" r="0.07" />
<circle cx="1.87" cy="1.95" r="0.07" />
<circle cx="2.00" cy="2.48" r="0.07" />
<circle cx="2.14" cy="1.39" r="0.07" />
<circle cx="2.27" cy="1.39" r="0.07" />
<circle cx="2.40" cy="1.79" r="0.07" />
<circle cx="2.54" cy="2.30" r="0.07" />
<circle cx="2.67" cy="2.83" r="0.07" />
<circle cx="2.80" cy="3.37" r="0.07" />
<circle cx="3.07" cy="1.39" r="0.07" />
<circle cx="3.20" cy="2.08" r="0.07" />
<circle cx="3.34" cy="2.64" r="0.07" />
<circle cx="3.47" cy="3.18" r="0.07" />
<circle cx="3.60" cy="3.71" r="0.07" />
<circle cx="3.74" cy="4.25" r="0.07" />
<circle cx="3.87" cy="2.08" r="0.07" />
<circle cx="4.00" cy="2.08" r="0.07" />
<circle cx="4.14" cy="2.48" r="0.07" />
<circle cx="4.27" cy="3.00" r="0.07" />
<circle cx="4.41" cy="3.53" r="0.07" />
<circle cx="4.54" cy="4.06" r="0.07" />
<circle cx="4.67" cy="4.60" r="0.07" />
<circle cx="4.81" cy="5.13" r="0.07" />
<circle cx="5.07" cy="2.08" r="0.07" />
<circle cx="5.21" cy="2.77" r="0.07" />
<circle cx="5.34" cy="3.33" r="0.07" />
<circle cx="5.47" cy="3.87" r="0.07" />
<circle cx="5.61" cy="4.41" r="0.07" />
<circle cx="5.74" cy="4.94" r="0.07" />
<circle cx="5.87" cy="5.48" r="0.07" />
<circle cx="6.01" cy="6.01" r="0.07" />
<circle cx="6.14" cy="2.77" r="0.07" />
<circle cx="6.27" cy="2.77" r="0.07" />
<circle cx="6.41" cy="3.18" r="0.07" />
<circle cx="6.54" cy="3.69" r="0.07" />
<circle cx="6.67" cy="4.22" r="0.07" />
<circle cx="6.81" cy="4.75" r="0.07" />
<circle cx="6.94" cy="5.29" r="0.07" />
<circle cx="7.08" cy="5.82" r="0.07" />
<circle cx="7.21" cy="6.36" r="0.07" />
<circle cx="7.34" cy="6.89" r="0.07" />
<circle cx="7.61" cy="2.77" r="0.07" />
<circle cx="7.74" cy="3.47" r="0.07" />
<circle cx="7.88" cy="4.03" r="0.07" />
<circle cx="8.01" cy="4.56" r="0.07" />
<circle cx="8.14" cy="5.10" r="0.07" />
<circle cx="8.28" cy="5.63" r="0.07" />
<circle cx="8.41" cy="6.17" r="0.07" />
<circle cx="8.54" cy="6.70" r="0.07" />
<circle cx="8.68" cy="7.24" r="0.07" />
<circle cx="8.81" cy="7.77" r="0.07" />
<circle cx="8.94" cy="3.47" r="0.07" />
<circle cx="9.08" cy="3.47" r="0.07" />
<circle cx="9.21" cy="3.87" r="0.07" />
<circle cx="9.34" cy="4.38" r="0.07" />
<circle cx="9.48" cy="4.91" r="0.07" />
<circle cx="9.61" cy="5.45" r="0.07" />
<circle cx="9.75" cy="5.98" r="0.07" />
<circle cx="9.88" cy="6.52" r="0.07" />
<circle cx="10.01" cy="7.05" r="0.07" />
<circle cx="10.15" cy="7.59" r="0.07" />
<circle cx="10.28" cy="8.12" r="0.07" />
<circle cx="10.41" cy="8.66" r="0.07" />
<circle cx="10.68" cy="3.47" r="0.07" />
<circle cx="10.81" cy="4.16" r="0.07" />
<circle cx="10.95" cy="4.72" r="0.07" />
<circle cx="11.08" cy="5.26" r="0.07" />
<circle cx="11.21" cy="5.79" r="0.07" />
<circle cx="11.35" cy="6.33" r="0.07" />
<circle cx="11.48" cy="6.86" r="0.07" />
<circle cx="11.61" cy="7.40" r="0.07" />
<circle cx="11.75" cy="7.93" r="0.07" />
<circle cx="11.88" cy="8.47" r="0.07" />
<circle cx="12.01" cy="9.00" r="0.07" />
<circle cx="12.15" cy="9.54" r="0.07" />
<circle cx="12.28" cy="4.16" r="0.07" />
<circle cx="12.42" cy="4.16" r="0.07" />
<circle cx="12.55" cy="4.56" r="0.07" />
<circle cx="12.68" cy="5.08" r="0.07" />
<circle cx="12.82" cy="5.61" r="0.07" />
<circle cx="12.95" cy="6.14" r="0.07" />
<circle cx="13.08" cy="6.67" r="0.07" />
<circle cx="13.22" cy="7.21" r="0.07" />
<circle cx="13.35" cy="7.74" r="0.07" />
<circle cx="13.48" cy="8.28" r="0.07" />
<circle cx="13.62" cy="8.81" r="0.07" />
<circle cx="13.75" cy="9.35" r="0.07" />
<circle cx="13.88" cy="9.88" r="0.07" />
<circle cx="14.02" cy="10.42" r="0.07" />
<circle cx="14.28" cy="4.16" r="0.07" />
<circle cx="14.42" cy="4.85" r="0.07" />
<circle cx="14.55" cy="5.41" r="0.07" />
<circle cx="14.68" cy="5.95" r="0.07" />
<circle cx="14.82" cy="6.49" r="0.07" />
<circle cx="14.95" cy="7.02" r="0.07" />
<circle cx="15.09" cy="7.56" r="0.07" />
<circle cx="15.22" cy="8.09" r="0.07" />
<circle cx="15.35" cy="8.63" r="0.07" />
<circle cx="15.49" cy="9.16" r="0.07" />
<circle cx="15.62" cy="9.70" r="0.07" />
<circle cx="15.75" cy="10.23" r="0.07" />
<circle cx="15.89" cy="10.76" r="0.07" />
<circle cx="16.02" cy="11.30" r="0.07" />
<circle cx="16.15" cy="4.85" r="0.07" />
<circle cx="16.29" cy="4.85" r="0.07" />
<circle cx="16.42" cy="5.26" r="0.07" />
<circle cx="16.55" cy="5.77" r="0.07" />
<circle cx="16.69" cy="6.30" r="0.07" />
<circle cx="16.82" cy="6.83" r="0.07" />
<circle cx="16.95" cy="7.37" r="0.07" />
<circle cx="17.09" cy="7.90" r="0.07" />
<circle cx="17.22" cy="8.44" r="0.07" />
<circle cx="17.35" cy="8.97" r="0.07" />
<circle cx="17.49" cy="9.51" r="0.07" />
<circle cx="17.62" cy="10.04" r="0.07" />
<circle cx="17.76" cy="10.58" r="0.07" />
<circle cx="17.89" cy="11.11" r="0.07" />
<circle cx="18.02" cy="11.65" r="0.07" />
<circle cx="18.16" cy="12.18" r="0.07" />
<circle cx="18.42" cy="4.85" r="0.07" />
<circle cx="18.56" cy="5.55" r="0.07" />
<circle cx="18.69" cy="6.10" r="0.07" />
<circle cx="18.82" cy="6.64" r="0.07" />
<circle cx="18.96" cy="7.18" r="0.07" />
<circle cx="19.09" cy="7.71" r="0.07" />
<circle cx="19.22" cy="8.25" r="0.07" />
<circle cx="19.36" cy="8.78" r="0.07" />
<circle cx="19.49" cy="9.32" r="0.07" />
<circle cx="19.62" cy="9.85" r="0.07" />
<circle cx="19.76" cy="10.39" r="0.07" />
<circle cx="19.89" cy="10.92" r="0.07" />
<circle cx="20.02" cy="11.46" r="0.07" />
<circle cx="20.16" cy="11.99" r="0.07" />
<circle cx="20.29" cy="12.53" r="0.07" />
<circle cx="20.43" cy="13.06" r="0.07" />
<circle cx="20.56" cy="5.55" r="0.07" />
<circle cx="20.69" cy="5.55" r="0.07" />
<circle cx="20.83" cy="5.95" r="0.07" />
<circle cx="20.96" cy="6.46" r="0.07" />
<circle cx="21.09" cy="6.99" r="0.07" />
<circle cx="21.23" cy="7.53" r="0.07" />
<circle cx="21.36" cy="8.06" r="0.07" />
<circle cx="21.49" cy="8.60" r="0.07" />
<circle cx="21.63" cy="9.13" r="0.07" />
<circle cx="21.76" cy="9.67" r="0.07" />
<circle cx="21.89" cy="10.20" r="0.07" />
<circle cx="22.03" cy="10.73" r="0.07" />
<circle cx="22.16" cy="11.27" r="0.07" />
<circle cx="22.29" cy="11.80" r="0.07" />
<circle cx="22.43" cy="12.34" r="0.07" />
<circle cx="22.56" cy="12.87" r="0.07" />
<circle cx="22.69" cy="13.41" r="0.07" />
<circle cx="22.83" cy="13.94" r="0.07" />
</g>
</svg>