<svg xmlns="http://www.w3.org/2000/svg" width="133.3" height="100.0" viewBox="-71.635 -71.667 143.301 110.000">
<g fill="none" stroke="black" stroke-width="0.0075%" transform="translate(0, -33.3333) scale(66.6667, -66.6667)">
<path id="P1" fill="none" stroke="black" stroke-opacity="0.175" d="M0.866,0.500 L0.867,0.499 0.868,0.496 0.871,0.492 0.874,0.485 0.879,0.477 0.885,0.466 0.891,0.454 0.898,0.439 0.906,0.423 0.915,0.405 0.923,0.384 0.933,0.361 0.942,0.336 0.951,0.308 0.960,0.279 0.969,0.246 0.977,0.212 0.985,0.175 0.991,0.135 0.996,0.093 0.999,0.049 1.000,0.002 0.999,-0.047 0.995,-0.098 0.989,-0.150 0.979,-0.205 0.965,-0.261 0.948,-0.318 0.927,-0.375 0.901,-0.433 0.871,-0.491 0.836,-0.548 0.797,-0.604 0.752,-0.659 0.703,-0.711 0.649,-0.760 0.591,-0.806 0.529,-0.849 0.463,-0.886 0.394,-0.919 0.322,-0.947 0.248,-0.969 0.172,-0.985 0.095,-0.995 0.018,-1.000 -0.059,-0.998 -0.135,-0.991 -0.210,-0.978 -0.282,-0.960 -0.351,-0.936 -0.418,-0.909 -0.481,-0.877 -0.540,-0.842 -0.595,-0.804 -0.646,-0.763 -0.693,-0.721 -0.736,-0.677 -0.774,-0.633 -0.809,-0.588 -0.839,-0.544 -0.866,-0.499 -0.890,-0.456 -0.910,-0.414 -0.928,-0.373 -0.942,-0.335 -0.955,-0.298 -0.965,-0.263 -0.973,-0.230 -0.980,-0.200 -0.985,-0.172 -0.989,-0.146 -0.992,-0.123 -0.995,-0.103 -0.996,-0.085 -0.998,-0.070 -0.998,-0.057 -0.999,-0.047 -0.999,-0.039 -0.999,-0.034 -1.000,-0.031 -1.000,-0.031 -0.999,-0.033 -0.999,-0.038 -0.999,-0.046 -0.998,-0.055 -0.998,-0.067 -0.997,-0.082 -0.995,-0.099 -0.993,-0.118 -0.990,-0.140 -0.987,-0.164 -0.982,-0.190 -0.976,-0.218 -0.969,-0.248 -0.960,-0.280 -0.950,-0.313 -0.937,-0.349 -0.923,-0.385 -0.906,-0.423 -0.887,-0.463 -0.865,-0.502 -0.840,-0.543 -0.812,-0.583 -0.781,-0.624 -0.747,-0.664 -0.710,-0.704 -0.670,-0.742 -0.627,-0.779 -0.581,-0.814 -0.532,-0.847 -0.480,-0.877 -0.426,-0.905 -0.369,-0.929 -0.311,-0.951 -0.251,-0.968 -0.189,-0.982 -0.127,-0.992 -0.065,-0.998 -0.002,-1.000 0.060,-0.998 0.121,-0.993 0.181,-0.983 0.240,-0.971 0.297,-0.955 0.352,-0.936 0.404,-0.915 0.454,-0.891 0.502,-0.865 0.546,-0.838 0.588,-0.809 0.627,-0.779 0.663,-0.749 0.696,-0.718 0.726,-0.688 0.754,-0.657 0.779,-0.627 0.801,-0.598 0.821,-0.571 0.839,-0.544 0.855,-0.518 0.869,-0.495 0.881,-0.473 0.892,-0.452 0.901,-0.434 0.909,-0.418 0.915,-0.403 0.920,-0.391 0.925,-0.381 0.928,-0.373 0.930,-0.367 0.932,-0.363 0.932,-0.362 0.932,-0.362 0.931,-0.365 0.929,-0.370 0.926,-0.377 0.922,-0.387 0.917,-0.398 0.912,-0.411 0.905,-0.426 0.897,-0.443 0.887,-0.461 0.876,-0.482 0.864,-0.503 0.850,-0.526 0.835,-0.551 0.817,-0.576 0.798,-0.603 0.777,-0.630 0.754,-0.657 0.728,-0.685 0.701,-0.713 0.671,-0.741 0.639,-0.769 0.605,-0.796 0.569,-0.823 0.530,-0.848 0.490,-0.872 0.447,-0.894 0.403,-0.915 0.357,-0.934 0.310,-0.951 0.262,-0.965 0.213,-0.977 0.162,-0.987 0.112,-0.994 0.061,-0.998 0.010,-1.000 -0.041,-0.999 -0.091,-0.996 -0.140,-0.990 -0.189,-0.982 -0.236,-0.972 -0.281,-0.960 -0.326,-0.945 -0.368,-0.930 -0.409,-0.913 -0.447,-0.894 -0.484,-0.875 -0.519,-0.855 -0.551,-0.834 -0.581,-0.814 -0.610,-0.793 -0.636,-0.772 -0.660,-0.752 -0.682,-0.732 -0.702,-0.712 -0.720,-0.694 -0.737,-0.676 -0.751,-0.660 -0.764,-0.645 -0.776,-0.631 -0.786,-0.619 -0.794,-0.608 -0.801,-0.598 -0.807,-0.590 -0.812,-0.584 -0.815,-0.580 -0.817,-0.577 -0.818,-0.576 -0.817,-0.576 -0.816,-0.578 -0.813,-0.582 -0.809,-0.588 -0.804,-0.594 -0.798,-0.603 -0.790,-0.613 -0.781,-0.624 -0.771,-0.637 -0.759,-0.651 -0.746,-0.666 -0.732,-0.681 -0.716,-0.698 -0.698,-0.716 -0.679,-0.734 -0.658,-0.753 -0.636,-0.772 -0.612,-0.791 -0.586,-0.810 -0.558,-0.830 -0.529,-0.848 -0.499,-0.867 -0.466,-0.885 -0.433,-0.902 -0.398,-0.918 -0.361,-0.932 -0.324,-0.946 -0.285,-0.958 -0.246,-0.969 -0.205,-0.979 -0.165,-0.986 -0.123,-0.992 -0.082,-0.997 -0.040,-0.999 0.002,-1.000 0.043,-0.999 0.084,-0.996 0.124,-0.992 0.163,-0.987 0.202,-0.979 0.240,-0.971 0.276,-0.961 0.311,-0.950 0.345,-0.939 0.377,-0.926 0.408,-0.913 0.437,-0.899 0.465,-0.885 0.491,-0.871 0.515,-0.857 0.538,-0.843 0.559,-0.829 0.579,-0.816 0.597,-0.803 0.613,-0.790 0.628,-0.778 0.641,-0.768 0.653,-0.758 0.663,-0.749 0.672,-0.741 0.680,-0.734 0.686,-0.728 0.691,-0.723 0.694,-0.720 0.697,-0.717 0.698,-0.716 0.697,-0.717 0.696,-0.718 0.693,-0.721 0.689,-0.724 0.684,-0.729 0.678,-0.735 0.670,-0.742 0.661,-0.750 0.651,-0.759 0.639,-0.769 0.626,-0.780 0.612,-0.791 0.596,-0.803 0.580,-0.815 0.561,-0.828 0.542,-0.841 0.521,-0.854 0.499,-0.867 0.475,-0.880 0.450,-0.893 0.425,-0.905 0.397,-0.918 0.369,-0.929 0.340,-0.940 0.310,-0.951 0.279,-0.960 0.247,-0.969 0.214,-0.977 0.181,-0.983 0.148,-0.989 0.114,-0.993 0.080,-0.997 0.046,-0.999 0.012,-1.000 -0.022,-1.000 -0.056,-0.998 -0.089,-0.996 -0.121,-0.993 -0.153,-0.988 -0.185,-0.983 -0.215,-0.977 -0.245,-0.970 -0.273,-0.962 -0.301,-0.954 -0.327,-0.945 -0.352,-0.936 -0.376,-0.926 -0.399,-0.917 -0.421,-0.907 -0.441,-0.898 -0.459,-0.888 -0.477,-0.879 -0.493,-0.870 -0.508,-0.861 -0.521,-0.853 -0.534,-0.846 -0.545,-0.839 -0.554,-0.832 -0.563,-0.827 -0.570,-0.822 -0.575,-0.818 -0.580,-0.815 -0.583,-0.812 -0.586,-0.811 -0.587,-0.810 -0.586,-0.810 -0.585,-0.811 -0.582,-0.813 -0.579,-0.816 -0.574,-0.819 -0.568,-0.823 -0.560,-0.828 -0.552,-0.834 -0.542,-0.840 -0.532,-0.847 -0.520,-0.854 -0.507,-0.862 -0.493,-0.870 -0.477,-0.879 -0.461,-0.887 -0.444,-0.896 -0.425,-0.905 -0.406,-0.914 -0.385,-0.923 -0.363,-0.932 -0.341,-0.940 -0.318,-0.948 -0.294,-0.956 -0.269,-0.963 -0.243,-0.970 -0.217,-0.976 -0.191,-0.982 -0.164,-0.987 -0.136,-0.991 -0.109,-0.994 -0.081,-0.997 -0.053,-0.999 -0.025,-1.000 0.003,-1.000 0.031,-1.000 0.058,-0.998 0.085,-0.996 0.112,-0.994 0.138,-0.990 0.163,-0.987 0.188,-0.982 0.212,-0.977 0.236,-0.972 0.258,-0.966 0.280,-0.960 0.300,-0.954 0.320,-0.947 0.338,-0.941 0.356,-0.934" />
<circle r="0.015" fill="none" stroke="black">
  <animateMotion dur="20.0000s" repeatCount="indefinite" calcMode="linear" keyTimes="0.0000;0.0025;0.0050;0.0075;0.0100;0.0125;0.0150;0.0175;0.0200;0.0225;0.0250;0.0275;0.0300;0.0325;0.0350;0.0375;0.0400;0.0425;0.0450;0.0475;0.0500;0.0525;0.0550;0.0575;0.0600;0.0625;0.0650;0.0675;0.0700;0.0725;0.0750;0.0775;0.0800;0.0825;0.0850;0.0875;0.0900;0.0925;0.0950;0.0975;0.1000;0.1025;0.1050;0.1075;0.1100;0.1125;0.1150;0.1175;0.1200;0.1225;0.1250;0.1275;0.1300;0.1325;0.1350;0.1375;0.1400;0.1425;0.1450;0.1475;0.1500;0.1525;0.1550;0.1575;0.1600;0.1625;0.1650;0.1675;0.1700;0.1725;0.1750;0.1775;0.1800;0.1825;0.1850;0.1875;0.1900;0.1925;0.1950;0.1975;0.2000;0.2025;0.2050;0.2075;0.2100;0.2125;0.2150;0.2175;0.2200;0.2225;0.2250;0.2275;0.2300;0.2325;0.2350;0.2375;0.2400;0.2425;0.2450;0.2475;0.2500;0.2525;0.2550;0.2575;0.2600;0.2625;0.2650;0.2675;0.2700;0.2725;0.2750;0.2775;0.2800;0.2825;0.2850;0.2875;0.2900;0.2925;0.2950;0.2975;0.3000;0.3025;0.3050;0.3075;0.3100;0.3125;0.3150;0.3175;0.3200;0.3225;0.3250;0.3275;0.3300;0.3325;0.3350;0.3375;0.3400;0.3425;0.3450;0.3475;0.3500;0.3525;0.3550;0.3575;0.3600;0.3625;0.3650;0.3675;0.3700;0.3725;0.3750;0.3775;0.3800;0.3825;0.3850;0.3875;0.3900;0.3925;0.3950;0.3975;0.4000;0.4025;0.4050;0.4075;0.4100;0.4125;0.4150;0.4175;0.4200;0.4225;0.4250;0.4275;0.4300;0.4325;0.4350;0.4375;0.4400;0.4425;0.4450;0.4475;0.4500;0.4525;0.4550;0.4575;0.4600;0.4625;0.4650;0.4675;0.4700;0.4725;0.4750;0.4775;0.4800;0.4825;0.4850;0.4875;0.4900;0.4925;0.4950;0.4975;0.5000;0.5025;0.5050;0.5075;0.5100;0.5125;0.5150;0.5175;0.5200;0.5225;0.5250;0.5275;0.5300;0.5325;0.5350;0.5375;0.5400;0.5425;0.5450;0.5475;0.5500;0.5525;0.5550;0.5575;0.5600;0.5625;0.5650;0.5675;0.5700;0.5725;0.5750;0.5775;0.5800;0.5825;0.5850;0.5875;0.5900;0.5925;0.5950;0.5975;0.6000;0.6025;0.6050;0.6075;0.6100;0.6125;0.6150;0.6175;0.6200;0.6225;0.6250;0.6275;0.6300;0.6325;0.6350;0.6375;0.6400;0.6425;0.6450;0.6475;0.6500;0.6525;0.6550;0.6575;0.6600;0.6625;0.6650;0.6675;0.6700;0.6725;0.6750;0.6775;0.6800;0.6825;0.6850;0.6875;0.6900;0.6925;0.6950;0.6975;0.7000;0.7025;0.7050;0.7075;0.7100;0.7125;0.7150;0.7175;0.7200;0.7225;0.7250;0.7275;0.7300;0.7325;0.7350;0.7375;0.7400;0.7425;0.7450;0.7475;0.7500;0.7525;0.7550;0.7575;0.7600;0.7625;0.7650;0.7675;0.7700;0.7725;0.7750;0.7775;0.7800;0.7825;0.7850;0.7875;0.7900;0.7925;0.7950;0.7975;0.8000;0.8025;0.8050;0.8075;0.8100;0.8125;0.8150;0.8175;0.8200;0.8225;0.8250;0.8275;0.8300;0.8325;0.8350;0.8375;0.8400;0.8425;0.8450;0.8475;0.8500;0.8525;0.8550;0.8575;0.8600;0.8625;0.8650;0.8675;0.8700;0.8725;0.8750;0.8775;0.8800;0.8825;0.8850;0.8875;0.8900;0.8925;0.8950;0.8975;0.9000;0.9025;0.9050;0.9075;0.9100;0.9125;0.9150;0.9175;0.9200;0.9225;0.9250;0.9275;0.9300;0.9325;0.9350;0.9375;0.9400;0.9425;0.9450;0.9475;0.9500;0.9525;0.9550;0.9575;0.9600;0.9625;0.9650;0.9675;0.9700;0.9725;0.9750;0.9775;0.9800;0.9825;0.9850;0.9875;0.9900;0.9925;0.9950;0.9975;1.0000" keyPoints="0.0000;0.0001;0.0003;0.0008;0.0014;0.0021;0.0031;0.0042;0.0054;0.0069;0.0085;0.0102;0.0122;0.0143;0.0166;0.0191;0.0217;0.0245;0.0275;0.0307;0.0340;0.0375;0.0412;0.0451;0.0491;0.0533;0.0577;0.0622;0.0669;0.0718;0.0768;0.0820;0.0873;0.0927;0.0982;0.1039;0.1097;0.1155;0.1215;0.1275;0.1335;0.1396;0.1458;0.1519;0.1580;0.1641;0.1702;0.1762;0.1822;0.1881;0.1939;0.1996;0.2051;0.2106;0.2159;0.2210;0.2260;0.2309;0.2355;0.2400;0.2443;0.2483;0.2522;0.2559;0.2594;0.2627;0.2658;0.2687;0.2713;0.2738;0.2760;0.2781;0.2799;0.2815;0.2830;0.2842;0.2852;0.2860;0.2866;0.2870;0.2872;0.2872;0.2874;0.2878;0.2884;0.2892;0.2901;0.2913;0.2926;0.2941;0.2959;0.2978;0.2998;0.3021;0.3046;0.3072;0.3100;0.3129;0.3160;0.3193;0.3228;0.3264;0.3301;0.3340;0.3380;0.3422;0.3465;0.3509;0.3554;0.3599;0.3646;0.3694;0.3742;0.3791;0.3840;0.3889;0.3939;0.3988;0.4038;0.4087;0.4136;0.4185;0.4233;0.4281;0.4328;0.4373;0.4418;0.4462;0.4505;0.4546;0.4586;0.4625;0.4662;0.4698;0.4732;0.4764;0.4795;0.4824;0.4851;0.4876;0.4900;0.4922;0.4942;0.4960;0.4976;0.4990;0.5003;0.5013;0.5022;0.5029;0.5034;0.5037;0.5038;0.5039;0.5041;0.5046;0.5052;0.5060;0.5069;0.5080;0.5094;0.5108;0.5125;0.5143;0.5163;0.5184;0.5207;0.5231;0.5257;0.5284;0.5313;0.5343;0.5374;0.5406;0.5439;0.5474;0.5509;0.5546;0.5583;0.5621;0.5659;0.5698;0.5738;0.5778;0.5818;0.5858;0.5899;0.5939;0.5980;0.6020;0.6059;0.6099;0.6137;0.6175;0.6213;0.6250;0.6285;0.6320;0.6354;0.6387;0.6418;0.6449;0.6478;0.6505;0.6532;0.6557;0.6580;0.6602;0.6623;0.6642;0.6659;0.6675;0.6689;0.6702;0.6713;0.6722;0.6730;0.6736;0.6740;0.6743;0.6744;0.6745;0.6747;0.6750;0.6756;0.6762;0.6771;0.6781;0.6792;0.6805;0.6819;0.6835;0.6852;0.6870;0.6890;0.6911;0.6933;0.6956;0.6981;0.7006;0.7033;0.7060;0.7088;0.7117;0.7147;0.7178;0.7209;0.7240;0.7272;0.7305;0.7337;0.7370;0.7403;0.7436;0.7469;0.7502;0.7535;0.7567;0.7599;0.7630;0.7662;0.7692;0.7722;0.7751;0.7779;0.7806;0.7833;0.7858;0.7883;0.7906;0.7929;0.7950;0.7970;0.7989;0.8006;0.8022;0.8037;0.8051;0.8063;0.8074;0.8083;0.8091;0.8098;0.8103;0.8107;0.8110;0.8111;0.8111;0.8113;0.8116;0.8120;0.8126;0.8133;0.8141;0.8150;0.8161;0.8173;0.8186;0.8201;0.8216;0.8233;0.8250;0.8269;0.8288;0.8309;0.8330;0.8352;0.8375;0.8398;0.8422;0.8447;0.8472;0.8498;0.8524;0.8550;0.8577;0.8604;0.8631;0.8658;0.8685;0.8712;0.8739;0.8765;0.8792;0.8817;0.8843;0.8868;0.8893;0.8917;0.8940;0.8963;0.8985;0.9006;0.9026;0.9046;0.9064;0.9082;0.9099;0.9114;0.9129;0.9142;0.9155;0.9166;0.9176;0.9186;0.9194;0.9200;0.9206;0.9210;0.9214;0.9216;0.9217;0.9217;0.9218;0.9221;0.9224;0.9229;0.9235;0.9242;0.9250;0.9259;0.9269;0.9280;0.9292;0.9305;0.9319;0.9333;0.9349;0.9365;0.9382;0.9400;0.9418;0.9437;0.9457;0.9477;0.9497;0.9518;0.9539;0.9561;0.9582;0.9604;0.9626;0.9648;0.9671;0.9693;0.9715;0.9737;0.9758;0.9780;0.9801;0.9822;0.9842;0.9862;0.9881;0.9900;0.9918;0.9936;0.9953;0.9970;0.9985;1.0000">
    <mpath href="#P1" />
  </animateMotion>
</circle>
</g>
</svg>