<svg xmlns="http://www.w3.org/2000/svg" width="161.8" height="100.0" viewBox="-4.461 -47.585 171.803 110.000">
<g fill="none" stroke="black" stroke-width="0.0137%" transform="translate(0, 14.8297) scale(36.5514, -36.5514)">
<circle cx="0.015" cy="0.000" r="0.014" />
<polyline points="0.015,1.571 0.030,1.566 0.044,1.551 0.059,1.526 0.074,1.492 0.089,1.449 0.103,1.396 0.118,1.335 0.133,1.264 0.148,1.185 0.162,1.099 0.177,1.004 0.192,0.903 0.207,0.795 0.221,0.682 0.236,0.565 0.251,0.444 0.266,0.320 0.280,0.195 0.295,0.070 0.310,-0.054 0.325,-0.175 0.339,-0.293 0.354,-0.406 0.369,-0.514 0.384,-0.615 0.398,-0.709 0.413,-0.795 0.428,-0.873 0.443,-0.942 0.457,-1.002 0.472,-1.052 0.487,-1.094 0.502,-1.126 0.516,-1.148 0.531,-1.161 0.546,-1.165 0.561,-1.160 0.575,-1.145 0.590,-1.122 0.605,-1.090 0.620,-1.050 0.634,-1.002 0.649,-0.946 0.664,-0.883 0.679,-0.813 0.694,-0.738 0.708,-0.656 0.723,-0.570 0.738,-0.480 0.753,-0.386 0.767,-0.290 0.782,-0.193 0.797,-0.095 0.812,0.002 0.826,0.098 0.841,0.191 0.856,0.281 0.871,0.367 0.885,0.449 0.900,0.524 0.915,0.594 0.930,0.657 0.944,0.713 0.959,0.761 0.974,0.803 0.989,0.836 1.003,0.861 1.018,0.879 1.033,0.889 1.048,0.891 1.062,0.885 1.077,0.871 1.092,0.850 1.107,0.822 1.121,0.787 1.136,0.746 1.151,0.699 1.166,0.645 1.180,0.587 1.195,0.524 1.210,0.457 1.225,0.387 1.239,0.314 1.254,0.239 1.269,0.163 1.284,0.086 1.299,0.009 1.313,-0.066 1.328,-0.140 1.343,-0.211 1.358,-0.279 1.372,-0.343 1.387,-0.403 1.402,-0.458 1.417,-0.508 1.431,-0.553 1.446,-0.591 1.461,-0.624 1.476,-0.650 1.490,-0.669 1.505,-0.683 1.520,-0.690 1.535,-0.690 1.549,-0.684 1.564,-0.672 1.579,-0.654 1.594,-0.630 1.608,-0.601 1.623,-0.567 1.638,-0.527 1.653,-0.484 1.667,-0.436 1.682,-0.385 1.697,-0.331 1.712,-0.274 1.726,-0.216 1.741,-0.156 1.756,-0.096 1.771,-0.036 1.785,0.024 1.800,0.083 1.815,0.140 1.830,0.194 1.844,0.246 1.859,0.295 1.874,0.340 1.889,0.382 1.903,0.418 1.918,0.451 1.933,0.478 1.948,0.501 1.963,0.518 1.977,0.531 1.992,0.538 2.007,0.540 2.022,0.536 2.036,0.528 2.051,0.515 2.066,0.497 2.081,0.475 2.095,0.448 2.110,0.418 2.125,0.384 2.140,0.347 2.154,0.307 2.169,0.264 2.184,0.220 2.199,0.174 2.213,0.127 2.228,0.080 2.243,0.032 2.258,-0.015 2.272,-0.061 2.287,-0.106 2.302,-0.149 2.317,-0.191 2.331,-0.229 2.346,-0.265 2.361,-0.298 2.376,-0.327 2.390,-0.353 2.405,-0.375 2.420,-0.393 2.435,-0.406 2.449,-0.416 2.464,-0.422 2.479,-0.423 2.494,-0.421 2.508,-0.414 2.523,-0.403 2.538,-0.389 2.553,-0.371 2.568,-0.350 2.582,-0.326 2.597,-0.299 2.612,-0.269 2.627,-0.237 2.641,-0.204 2.656,-0.169 2.671,-0.132 2.686,-0.095 2.700,-0.058 2.715,-0.020 2.730,0.017 2.745,0.053 2.759,0.088 2.774,0.122 2.789,0.155 2.804,0.185 2.818,0.213 2.833,0.238 2.848,0.261 2.863,0.281 2.877,0.297 2.892,0.311 2.907,0.321 2.922,0.328 2.936,0.332 2.951,0.333 2.966,0.330 2.981,0.324 2.995,0.315 3.010,0.303 3.025,0.288 3.040,0.271 3.054,0.251 3.069,0.229 3.084,0.206 3.099,0.180 3.113,0.153 3.128,0.125 3.143,0.096 3.158,0.067 3.172,0.037 3.187,0.008 3.202,-0.021 3.217,-0.050 3.232,-0.077 3.246,-0.104 3.261,-0.129 3.276,-0.152 3.291,-0.173 3.305,-0.193 3.320,-0.210 3.335,-0.225 3.350,-0.238 3.364,-0.248 3.379,-0.255 3.394,-0.260 3.409,-0.262 3.423,-0.262 3.438,-0.259 3.453,-0.253 3.468,-0.245 3.482,-0.235 3.497,-0.223 3.512,-0.208 3.527,-0.192 3.541,-0.174 3.556,-0.155 3.571,-0.135 3.586,-0.113 3.600,-0.091 3.615,-0.068 3.630,-0.045 3.645,-0.021 3.659,0.002 3.674,0.025 3.689,0.047 3.704,0.069 3.718,0.089 3.733,0.108 3.748,0.126 3.763,0.143 3.777,0.157 3.792,0.170 3.807,0.181 3.822,0.191 3.837,0.198 3.851,0.203 3.866,0.206 3.881,0.207 3.896,0.206 3.910,0.202 3.925,0.197 3.940,0.190 3.955,0.182 3.969,0.171 3.984,0.159 3.999,0.146 4.014,0.132 4.028,0.116 4.043,0.099 4.058,0.082 4.073,0.064 4.087,0.046 4.102,0.028 4.117,0.009 4.132,-0.009 4.146,-0.027 4.161,-0.044 4.176,-0.061 4.191,-0.077 4.205,-0.091 4.220,-0.105 4.235,-0.118 4.250,-0.129 4.264,-0.138 4.279,-0.146 4.294,-0.153 4.309,-0.158 4.323,-0.161 4.338,-0.163 4.353,-0.163 4.368,-0.161 4.382,-0.158 4.397,-0.154 4.412,-0.147 4.427,-0.140 4.441,-0.131" />
</g>
</svg>