<svg xmlns="http://www.w3.org/2000/svg" width="161.8" height="100.0" viewBox="-3 -5 172 110">
<g fill="none" stroke="black" stroke-width="53.9750%" transform="translate(0, 100.0000) scale(0.0093, -0.0093)">
<line x1="208" y1="0" x2="208" y2="1" />
<line x1="416" y1="0" x2="416" y2="5" />
<line x1="624" y1="0" x2="624" y2="12" />
<line x1="832" y1="0" x2="832" y2="22" />
<line x1="1040" y1="0" x2="1040" y2="35" />
<line x1="1248" y1="0" x2="1248" y2="51" />
<line x1="1455" y1="0" x2="1455" y2="70" />
<line x1="1663" y1="0" x2="1663" y2="92" />
<line x1="1871" y1="0" x2="1871" y2="117" />
<line x1="2079" y1="0" x2="2079" y2="145" />
<line x1="2287" y1="0" x2="2287" y2="176" />
<line x1="2495" y1="0" x2="2495" y2="210" />
<line x1="2703" y1="0" x2="2703" y2="247" />
<line x1="2911" y1="0" x2="2911" y2="287" />
<line x1="3119" y1="0" x2="3119" y2="330" />
<line x1="3327" y1="0" x2="3327" y2="376" />
<line x1="3535" y1="0" x2="3535" y2="425" />
<line x1="3743" y1="0" x2="3743" y2="477" />
<line x1="3950" y1="0" x2="3950" y2="532" />
<line x1="4158" y1="0" x2="4158" y2="590" />
<line x1="4366" y1="0" x2="4366" y2="651" />
<line x1="4574" y1="0" x2="4574" y2="715" />
<line x1="4782" y1="0" x2="4782" y2="782" />
<line x1="4990" y1="0" x2="4990" y2="852" />
<line x1="5198" y1="0" x2="5198" y2="925" />
<line x1="5406" y1="0" x2="5406" y2="1001" />
<line x1="5614" y1="0" x2="5614" y2="1080" />
<line x1="5822" y1="0" x2="5822" y2="1162" />
<line x1="6030" y1="0" x2="6030" y2="1247" />
<line x1="6238" y1="0" x2="6238" y2="1335" />
<line x1="6445" y1="0" x2="6445" y2="1426" />
<line x1="6653" y1="0" x2="6653" y2="1520" />
<line x1="6861" y1="0" x2="6861" y2="1617" />
<line x1="7069" y1="0" x2="7069" y2="1717" />
<line x1="7277" y1="0" x2="7277" y2="1820" />
<line x1="7485" y1="0" x2="7485" y2="1926" />
<line x1="7693" y1="0" x2="7693" y2="2035" />
<line x1="7901" y1="0" x2="7901" y2="2147" />
<line x1="8109" y1="0" x2="8109" y2="2262" />
<line x1="8317" y1="0" x2="8317" y2="2380" />
<line x1="8525" y1="0" x2="8525" y2="2501" />
<line x1="8733" y1="0" x2="8733" y2="2625" />
<line x1="8940" y1="0" x2="8940" y2="2752" />
<line x1="9148" y1="0" x2="9148" y2="2882" />
<line x1="9356" y1="0" x2="9356" y2="3015" />
<line x1="9564" y1="0" x2="9564" y2="3151" />
<line x1="9772" y1="0" x2="9772" y2="3290" />
<line x1="9980" y1="0" x2="9980" y2="3432" />
<line x1="10188" y1="0" x2="10188" y2="3577" />
<line x1="10396" y1="0" x2="10396" y2="3725" />
<line x1="10604" y1="0" x2="10604" y2="3876" />
<line x1="10812" y1="0" x2="10812" y2="4030" />
<line x1="11020" y1="0" x2="11020" y2="4187" />
<line x1="11228" y1="0" x2="11228" y2="4347" />
<line x1="11435" y1="0" x2="11435" y2="4510" />
<line x1="11643" y1="0" x2="11643" y2="4676" />
<line x1="11851" y1="0" x2="11851" y2="4845" />
<line x1="12059" y1="0" x2="12059" y2="5017" />
<line x1="12267" y1="0" x2="12267" y2="5192" />
<line x1="12475" y1="0" x2="12475" y2="5370" />
<line x1="12683" y1="0" x2="12683" y2="5551" />
<line x1="12891" y1="0" x2="12891" y2="5735" />
<line x1="13099" y1="0" x2="13099" y2="5922" />
<line x1="13307" y1="0" x2="13307" y2="6112" />
<line x1="13515" y1="0" x2="13515" y2="6305" />
<line x1="13723" y1="0" x2="13723" y2="6501" />
<line x1="13930" y1="0" x2="13930" y2="6700" />
<line x1="14138" y1="0" x2="14138" y2="6902" />
<line x1="14346" y1="0" x2="14346" y2="7107" />
<line x1="14554" y1="0" x2="14554" y2="7315" />
<line x1="14762" y1="0" x2="14762" y2="7526" />
<line x1="14970" y1="0" x2="14970" y2="7740" />
<line x1="15178" y1="0" x2="15178" y2="7957" />
<line x1="15386" y1="0" x2="15386" y2="8177" />
<line x1="15594" y1="0" x2="15594" y2="8400" />
<line x1="15802" y1="0" x2="15802" y2="8626" />
<line x1="16010" y1="0" x2="16010" y2="8855" />
<line x1="16218" y1="0" x2="16218" y2="9087" />
<line x1="16425" y1="0" x2="16425" y2="9322" />
<line x1="16633" y1="0" x2="16633" y2="9560" />
<line x1="16841" y1="0" x2="16841" y2="9801" />
<line x1="17049" y1="0" x2="17049" y2="10045" />
<line x1="17257" y1="0" x2="17257" y2="10292" />
<line x1="17465" y1="0" x2="17465" y2="10542" />
<line x1="17673" y1="0" x2="17673" y2="10795" />
</g>
</svg>