<svg xmlns="http://www.w3.org/2000/svg" width="161.80" height="100.00" viewBox="-1.70 -5.00 171.80 110.00">
<g fill="none" stroke="black" stroke-width="0.16%" transform="translate(0, 100.00) scale(3.13, -3.13)">
<circle cx="1.06" cy="0.00" r="0.16" />
<polyline points="1.06,0.00 2.11,0.00 3.17,1.00 4.23,0.00 5.28,0.00 6.34,4.00 7.40,2.00 8.45,4.00 9.51,1.00 10.57,0.00 11.62,1.00 12.68,4.00 13.74,9.00 14.79,2.00 15.85,10.00 16.91,4.00 17.96,15.00 19.02,10.00 20.08,5.00 21.13,0.00 22.19,16.00 23.25,12.00 24.30,8.00 25.36,4.00 26.42,0.00 27.47,22.00 28.53,19.00 29.59,16.00 30.64,13.00 31.70,10.00 32.76,7.00 33.81,4.00 34.87,1.00 35.93,32.00 36.98,30.00 38.04,28.00 39.10,26.00 40.15,24.00 41.21,22.00 42.27,20.00 43.32,18.00 44.38,16.00 45.44,14.00 46.49,12.00 47.55,10.00 48.61,8.00 49.66,6.00 50.72,4.00 51.78,2.00 52.83,0.00" />
</g>
</svg>