<svg xmlns="http://www.w3.org/2000/svg" width="161.8" height="100.0" viewBox="-4.19 -5.00 171.80 110.00">
<g fill="none" stroke="black" stroke-width="0.1550%" transform="translate(0, 100.0000) scale(3.2258, -3.2258)">
<circle cx="0.25" cy="0.00" r="0.15" />
<circle cx="0.25" cy="0.00" r="0.15" />
<circle cx="0.50" cy="1.00" r="0.15" />
<circle cx="0.75" cy="2.00" r="0.15" />
<circle cx="1.00" cy="3.00" r="0.15" />
<circle cx="1.25" cy="4.00" r="0.15" />
<circle cx="1.50" cy="5.00" r="0.15" />
<circle cx="1.76" cy="6.00" r="0.15" />
<circle cx="2.01" cy="7.00" r="0.15" />
<circle cx="2.26" cy="8.00" r="0.15" />
<circle cx="2.51" cy="9.00" r="0.15" />
<circle cx="2.76" cy="2.00" r="0.15" />
<circle cx="3.01" cy="3.00" r="0.15" />
<circle cx="3.26" cy="4.00" r="0.15" />
<circle cx="3.51" cy="5.00" r="0.15" />
<circle cx="3.76" cy="6.00" r="0.15" />
<circle cx="4.01" cy="7.00" r="0.15" />
<circle cx="4.26" cy="8.00" r="0.15" />
<circle cx="4.51" cy="9.00" r="0.15" />
<circle cx="4.77" cy="10.00" r="0.15" />
<circle cx="5.02" cy="11.00" r="0.15" />
<circle cx="5.27" cy="4.00" r="0.15" />
<circle cx="5.52" cy="5.00" r="0.15" />
<circle cx="5.77" cy="6.00" r="0.15" />
<circle cx="6.02" cy="7.00" r="0.15" />
<circle cx="6.27" cy="8.00" r="0.15" />
<circle cx="6.52" cy="9.00" r="0.15" />
<circle cx="6.77" cy="10.00" r="0.15" />
<circle cx="7.02" cy="11.00" r="0.15" />
<circle cx="7.27" cy="12.00" r="0.15" />
<circle cx="7.52" cy="13.00" r="0.15" />
<circle cx="7.77" cy="6.00" r="0.15" />
<circle cx="8.03" cy="7.00" r="0.15" />
<circle cx="8.28" cy="8.00" r="0.15" />
<circle cx="8.53" cy="9.00" r="0.15" />
<circle cx="8.78" cy="10.00" r="0.15" />
<circle cx="9.03" cy="11.00" r="0.15" />
<circle cx="9.28" cy="12.00" r="0.15" />
<circle cx="9.53" cy="13.00" r="0.15" />
<circle cx="9.78" cy="14.00" r="0.15" />
<circle cx="10.03" cy="15.00" r="0.15" />
<circle cx="10.28" cy="8.00" r="0.15" />
<circle cx="10.53" cy="9.00" r="0.15" />
<circle cx="10.78" cy="10.00" r="0.15" />
<circle cx="11.03" cy="11.00" r="0.15" />
<circle cx="11.29" cy="12.00" r="0.15" />
<circle cx="11.54" cy="13.00" r="0.15" />
<circle cx="11.79" cy="14.00" r="0.15" />
<circle cx="12.04" cy="15.00" r="0.15" />
<circle cx="12.29" cy="16.00" r="0.15" />
<circle cx="12.54" cy="17.00" r="0.15" />
<circle cx="12.79" cy="10.00" r="0.15" />
<circle cx="13.04" cy="11.00" r="0.15" />
<circle cx="13.29" cy="12.00" r="0.15" />
<circle cx="13.54" cy="13.00" r="0.15" />
<circle cx="13.79" cy="14.00" r="0.15" />
<circle cx="14.04" cy="15.00" r="0.15" />
<circle cx="14.30" cy="16.00" r="0.15" />
<circle cx="14.55" cy="17.00" r="0.15" />
<circle cx="14.80" cy="18.00" r="0.15" />
<circle cx="15.05" cy="19.00" r="0.15" />
<circle cx="15.30" cy="12.00" r="0.15" />
<circle cx="15.55" cy="13.00" r="0.15" />
<circle cx="15.80" cy="14.00" r="0.15" />
<circle cx="16.05" cy="15.00" r="0.15" />
<circle cx="16.30" cy="16.00" r="0.15" />
<circle cx="16.55" cy="17.00" r="0.15" />
<circle cx="16.80" cy="18.00" r="0.15" />
<circle cx="17.05" cy="19.00" r="0.15" />
<circle cx="17.30" cy="20.00" r="0.15" />
<circle cx="17.56" cy="21.00" r="0.15" />
<circle cx="17.81" cy="14.00" r="0.15" />
<circle cx="18.06" cy="15.00" r="0.15" />
<circle cx="18.31" cy="16.00" r="0.15" />
<circle cx="18.56" cy="17.00" r="0.15" />
<circle cx="18.81" cy="18.00" r="0.15" />
<circle cx="19.06" cy="19.00" r="0.15" />
<circle cx="19.31" cy="20.00" r="0.15" />
<circle cx="19.56" cy="21.00" r="0.15" />
<circle cx="19.81" cy="22.00" r="0.15" />
<circle cx="20.06" cy="23.00" r="0.15" />
<circle cx="20.31" cy="16.00" r="0.15" />
<circle cx="20.57" cy="17.00" r="0.15" />
<circle cx="20.82" cy="18.00" r="0.15" />
<circle cx="21.07" cy="19.00" r="0.15" />
<circle cx="21.32" cy="20.00" r="0.15" />
<circle cx="21.57" cy="21.00" r="0.15" />
<circle cx="21.82" cy="22.00" r="0.15" />
<circle cx="22.07" cy="23.00" r="0.15" />
<circle cx="22.32" cy="24.00" r="0.15" />
<circle cx="22.57" cy="25.00" r="0.15" />
<circle cx="22.82" cy="18.00" r="0.15" />
<circle cx="23.07" cy="19.00" r="0.15" />
<circle cx="23.32" cy="20.00" r="0.15" />
<circle cx="23.57" cy="21.00" r="0.15" />
<circle cx="23.83" cy="22.00" r="0.15" />
<circle cx="24.08" cy="23.00" r="0.15" />
<circle cx="24.33" cy="24.00" r="0.15" />
<circle cx="24.58" cy="25.00" r="0.15" />
<circle cx="24.83" cy="26.00" r="0.15" />
<circle cx="25.08" cy="27.00" r="0.15" />
<circle cx="25.33" cy="4.00" r="0.15" />
<circle cx="25.58" cy="5.00" r="0.15" />
<circle cx="25.83" cy="6.00" r="0.15" />
<circle cx="26.08" cy="7.00" r="0.15" />
<circle cx="26.33" cy="8.00" r="0.15" />
<circle cx="26.58" cy="9.00" r="0.15" />
<circle cx="26.84" cy="10.00" r="0.15" />
<circle cx="27.09" cy="11.00" r="0.15" />
<circle cx="27.34" cy="12.00" r="0.15" />
<circle cx="27.59" cy="13.00" r="0.15" />
<circle cx="27.84" cy="6.00" r="0.15" />
<circle cx="28.09" cy="7.00" r="0.15" />
<circle cx="28.34" cy="8.00" r="0.15" />
<circle cx="28.59" cy="9.00" r="0.15" />
<circle cx="28.84" cy="10.00" r="0.15" />
<circle cx="29.09" cy="11.00" r="0.15" />
<circle cx="29.34" cy="12.00" r="0.15" />
<circle cx="29.59" cy="13.00" r="0.15" />
<circle cx="29.84" cy="14.00" r="0.15" />
<circle cx="30.10" cy="15.00" r="0.15" />
<circle cx="30.35" cy="8.00" r="0.15" />
<circle cx="30.60" cy="9.00" r="0.15" />
<circle cx="30.85" cy="10.00" r="0.15" />
<circle cx="31.10" cy="11.00" r="0.15" />
<circle cx="31.35" cy="12.00" r="0.15" />
<circle cx="31.60" cy="13.00" r="0.15" />
<circle cx="31.85" cy="14.00" r="0.15" />
<circle cx="32.10" cy="15.00" r="0.15" />
<circle cx="32.35" cy="16.00" r="0.15" />
<circle cx="32.60" cy="17.00" r="0.15" />
<circle cx="32.85" cy="10.00" r="0.15" />
<circle cx="33.10" cy="11.00" r="0.15" />
<circle cx="33.36" cy="12.00" r="0.15" />
<circle cx="33.61" cy="13.00" r="0.15" />
<circle cx="33.86" cy="14.00" r="0.15" />
<circle cx="34.11" cy="15.00" r="0.15" />
<circle cx="34.36" cy="16.00" r="0.15" />
<circle cx="34.61" cy="17.00" r="0.15" />
<circle cx="34.86" cy="18.00" r="0.15" />
<circle cx="35.11" cy="19.00" r="0.15" />
<circle cx="35.36" cy="12.00" r="0.15" />
<circle cx="35.61" cy="13.00" r="0.15" />
<circle cx="35.86" cy="14.00" r="0.15" />
<circle cx="36.11" cy="15.00" r="0.15" />
<circle cx="36.37" cy="16.00" r="0.15" />
<circle cx="36.62" cy="17.00" r="0.15" />
<circle cx="36.87" cy="18.00" r="0.15" />
<circle cx="37.12" cy="19.00" r="0.15" />
<circle cx="37.37" cy="20.00" r="0.15" />
<circle cx="37.62" cy="21.00" r="0.15" />
<circle cx="37.87" cy="14.00" r="0.15" />
<circle cx="38.12" cy="15.00" r="0.15" />
<circle cx="38.37" cy="16.00" r="0.15" />
<circle cx="38.62" cy="17.00" r="0.15" />
<circle cx="38.87" cy="18.00" r="0.15" />
<circle cx="39.12" cy="19.00" r="0.15" />
<circle cx="39.37" cy="20.00" r="0.15" />
<circle cx="39.63" cy="21.00" r="0.15" />
<circle cx="39.88" cy="22.00" r="0.15" />
<circle cx="40.13" cy="23.00" r="0.15" />
<circle cx="40.38" cy="16.00" r="0.15" />
<circle cx="40.63" cy="17.00" r="0.15" />
<circle cx="40.88" cy="18.00" r="0.15" />
<circle cx="41.13" cy="19.00" r="0.15" />
<circle cx="41.38" cy="20.00" r="0.15" />
<circle cx="41.63" cy="21.00" r="0.15" />
<circle cx="41.88" cy="22.00" r="0.15" />
<circle cx="42.13" cy="23.00" r="0.15" />
<circle cx="42.38" cy="24.00" r="0.15" />
<circle cx="42.64" cy="25.00" r="0.15" />
<circle cx="42.89" cy="18.00" r="0.15" />
<circle cx="43.14" cy="19.00" r="0.15" />
<circle cx="43.39" cy="20.00" r="0.15" />
<circle cx="43.64" cy="21.00" r="0.15" />
<circle cx="43.89" cy="22.00" r="0.15" />
<circle cx="44.14" cy="23.00" r="0.15" />
<circle cx="44.39" cy="24.00" r="0.15" />
<circle cx="44.64" cy="25.00" r="0.15" />
<circle cx="44.89" cy="26.00" r="0.15" />
<circle cx="45.14" cy="27.00" r="0.15" />
<circle cx="45.39" cy="20.00" r="0.15" />
<circle cx="45.64" cy="21.00" r="0.15" />
<circle cx="45.90" cy="22.00" r="0.15" />
<circle cx="46.15" cy="23.00" r="0.15" />
<circle cx="46.40" cy="24.00" r="0.15" />
<circle cx="46.65" cy="25.00" r="0.15" />
<circle cx="46.90" cy="26.00" r="0.15" />
<circle cx="47.15" cy="27.00" r="0.15" />
<circle cx="47.40" cy="28.00" r="0.15" />
<circle cx="47.65" cy="29.00" r="0.15" />
<circle cx="47.90" cy="22.00" r="0.15" />
<circle cx="48.15" cy="23.00" r="0.15" />
<circle cx="48.40" cy="24.00" r="0.15" />
<circle cx="48.65" cy="25.00" r="0.15" />
<circle cx="48.91" cy="26.00" r="0.15" />
<circle cx="49.16" cy="27.00" r="0.15" />
<circle cx="49.41" cy="28.00" r="0.15" />
<circle cx="49.66" cy="29.00" r="0.15" />
<circle cx="49.91" cy="30.00" r="0.15" />
<circle cx="50.16" cy="31.00" r="0.15" />
<circle cx="50.41" cy="8.00" r="0.15" />
</g>
</svg>