<svg xmlns="http://www.w3.org/2000/svg" width="161.8" height="100.0" viewBox="-3.91 0.88 171.80 110.00">
<g fill="none" stroke="black" stroke-width="0.0850%" transform="translate(0, 111.7647) scale(5.8824, -5.8824)">
<circle cx="0.18" cy="1.00" r="0.08" />
<circle cx="0.37" cy="9.00" r="0.08" />
<circle cx="0.55" cy="13.00" r="0.08" />
<circle cx="0.74" cy="8.00" r="0.08" />
<circle cx="0.92" cy="12.00" r="0.08" />
<circle cx="1.11" cy="17.00" r="0.08" />
<circle cx="1.29" cy="6.00" r="0.08" />
<circle cx="1.48" cy="13.00" r="0.08" />
<circle cx="1.66" cy="12.00" r="0.08" />
<circle cx="1.85" cy="2.00" r="0.08" />
<circle cx="2.03" cy="10.00" r="0.08" />
<circle cx="2.22" cy="13.00" r="0.08" />
<circle cx="2.40" cy="3.00" r="0.08" />
<circle cx="2.58" cy="14.00" r="0.08" />
<circle cx="2.77" cy="11.00" r="0.08" />
<circle cx="2.95" cy="8.00" r="0.08" />
<circle cx="3.14" cy="13.00" r="0.08" />
<circle cx="3.32" cy="11.00" r="0.08" />
<circle cx="3.51" cy="5.00" r="0.08" />
<circle cx="3.69" cy="8.00" r="0.08" />
<circle cx="3.88" cy="13.00" r="0.08" />
<circle cx="4.06" cy="14.00" r="0.08" />
<circle cx="4.25" cy="4.00" r="0.08" />
<circle cx="4.43" cy="9.00" r="0.08" />
<circle cx="4.62" cy="11.00" r="0.08" />
<circle cx="4.80" cy="10.00" r="0.08" />
<circle cx="4.98" cy="14.00" r="0.08" />
<circle cx="5.17" cy="4.00" r="0.08" />
<circle cx="5.35" cy="10.00" r="0.08" />
<circle cx="5.54" cy="13.00" r="0.08" />
<circle cx="5.72" cy="3.00" r="0.08" />
<circle cx="5.91" cy="4.00" r="0.08" />
<circle cx="6.09" cy="12.00" r="0.08" />
<circle cx="6.28" cy="12.00" r="0.08" />
<circle cx="6.46" cy="13.00" r="0.08" />
<circle cx="6.65" cy="16.00" r="0.08" />
<circle cx="6.83" cy="8.00" r="0.08" />
<circle cx="7.02" cy="10.00" r="0.08" />
<circle cx="7.20" cy="13.00" r="0.08" />
<circle cx="7.38" cy="9.00" r="0.08" />
<circle cx="7.57" cy="14.00" r="0.08" />
<circle cx="7.75" cy="8.00" r="0.08" />
<circle cx="7.94" cy="12.00" r="0.08" />
<circle cx="8.12" cy="5.00" r="0.08" />
<circle cx="8.31" cy="15.00" r="0.08" />
<circle cx="8.49" cy="12.00" r="0.08" />
<circle cx="8.68" cy="11.00" r="0.08" />
<circle cx="8.86" cy="14.00" r="0.08" />
<circle cx="9.05" cy="5.00" r="0.08" />
<circle cx="9.23" cy="12.00" r="0.08" />
<circle cx="9.42" cy="11.00" r="0.08" />
<circle cx="9.60" cy="11.00" r="0.08" />
<circle cx="9.78" cy="13.00" r="0.08" />
<circle cx="9.97" cy="15.00" r="0.08" />
<circle cx="10.15" cy="13.00" r="0.08" />
<circle cx="10.34" cy="10.00" r="0.08" />
<circle cx="10.52" cy="12.00" r="0.08" />
<circle cx="10.71" cy="8.00" r="0.08" />
<circle cx="10.89" cy="10.00" r="0.08" />
<circle cx="11.08" cy="17.00" r="0.08" />
<circle cx="11.26" cy="9.00" r="0.08" />
<circle cx="11.45" cy="10.00" r="0.08" />
<circle cx="11.63" cy="16.00" r="0.08" />
<circle cx="11.81" cy="12.00" r="0.08" />
<circle cx="12.00" cy="10.00" r="0.08" />
<circle cx="12.18" cy="15.00" r="0.08" />
<circle cx="12.37" cy="10.00" r="0.08" />
<circle cx="12.55" cy="3.00" r="0.08" />
<circle cx="12.74" cy="13.00" r="0.08" />
<circle cx="12.92" cy="6.00" r="0.08" />
<circle cx="13.11" cy="13.00" r="0.08" />
<circle cx="13.29" cy="14.00" r="0.08" />
<circle cx="13.48" cy="9.00" r="0.08" />
<circle cx="13.66" cy="11.00" r="0.08" />
<circle cx="13.85" cy="12.00" r="0.08" />
<circle cx="14.03" cy="10.00" r="0.08" />
<circle cx="14.21" cy="10.00" r="0.08" />
<circle cx="14.40" cy="12.00" r="0.08" />
<circle cx="14.58" cy="4.00" r="0.08" />
<circle cx="14.77" cy="13.00" r="0.08" />
<circle cx="14.95" cy="11.00" r="0.08" />
<circle cx="15.14" cy="4.00" r="0.08" />
<circle cx="15.32" cy="10.00" r="0.08" />
<circle cx="15.51" cy="14.00" r="0.08" />
<circle cx="15.69" cy="9.00" r="0.08" />
<circle cx="15.88" cy="3.00" r="0.08" />
<circle cx="16.06" cy="12.00" r="0.08" />
<circle cx="16.25" cy="15.00" r="0.08" />
<circle cx="16.43" cy="8.00" r="0.08" />
<circle cx="16.61" cy="12.00" r="0.08" />
<circle cx="16.80" cy="5.00" r="0.08" />
<circle cx="16.98" cy="10.00" r="0.08" />
<circle cx="17.17" cy="13.00" r="0.08" />
<circle cx="17.35" cy="5.00" r="0.08" />
<circle cx="17.54" cy="10.00" r="0.08" />
<circle cx="17.72" cy="13.00" r="0.08" />
<circle cx="17.91" cy="4.00" r="0.08" />
<circle cx="18.09" cy="9.00" r="0.08" />
<circle cx="18.28" cy="16.00" r="0.08" />
<circle cx="18.46" cy="2.00" r="0.08" />
<circle cx="18.65" cy="10.00" r="0.08" />
<circle cx="18.83" cy="13.00" r="0.08" />
<circle cx="19.01" cy="3.00" r="0.08" />
<circle cx="19.20" cy="14.00" r="0.08" />
<circle cx="19.38" cy="11.00" r="0.08" />
<circle cx="19.57" cy="9.00" r="0.08" />
<circle cx="19.75" cy="13.00" r="0.08" />
<circle cx="19.94" cy="11.00" r="0.08" />
<circle cx="20.12" cy="5.00" r="0.08" />
<circle cx="20.31" cy="10.00" r="0.08" />
<circle cx="20.49" cy="14.00" r="0.08" />
<circle cx="20.68" cy="18.00" r="0.08" />
<circle cx="20.86" cy="11.00" r="0.08" />
<circle cx="21.05" cy="12.00" r="0.08" />
<circle cx="21.23" cy="15.00" r="0.08" />
<circle cx="21.41" cy="11.00" r="0.08" />
<circle cx="21.60" cy="12.00" r="0.08" />
<circle cx="21.78" cy="16.00" r="0.08" />
<circle cx="21.97" cy="11.00" r="0.08" />
<circle cx="22.15" cy="13.00" r="0.08" />
<circle cx="22.34" cy="18.00" r="0.08" />
<circle cx="22.52" cy="13.00" r="0.08" />
<circle cx="22.71" cy="15.00" r="0.08" />
<circle cx="22.89" cy="14.00" r="0.08" />
<circle cx="23.08" cy="14.00" r="0.08" />
<circle cx="23.26" cy="15.00" r="0.08" />
<circle cx="23.45" cy="16.00" r="0.08" />
<circle cx="23.63" cy="14.00" r="0.08" />
<circle cx="23.81" cy="4.00" r="0.08" />
<circle cx="24.00" cy="3.00" r="0.08" />
<circle cx="24.18" cy="11.00" r="0.08" />
<circle cx="24.37" cy="15.00" r="0.08" />
<circle cx="24.55" cy="6.00" r="0.08" />
<circle cx="24.74" cy="11.00" r="0.08" />
<circle cx="24.92" cy="14.00" r="0.08" />
<circle cx="25.11" cy="13.00" r="0.08" />
<circle cx="25.29" cy="11.00" r="0.08" />
<circle cx="25.48" cy="12.00" r="0.08" />
<circle cx="25.66" cy="6.00" r="0.08" />
<circle cx="25.85" cy="14.00" r="0.08" />
<circle cx="26.03" cy="12.00" r="0.08" />
<circle cx="26.21" cy="14.00" r="0.08" />
<circle cx="26.40" cy="11.00" r="0.08" />
<circle cx="26.58" cy="13.00" r="0.08" />
<circle cx="26.77" cy="8.00" r="0.08" />
<circle cx="26.95" cy="14.00" r="0.08" />
<circle cx="27.14" cy="16.00" r="0.08" />
<circle cx="27.32" cy="12.00" r="0.08" />
<circle cx="27.51" cy="10.00" r="0.08" />
<circle cx="27.69" cy="11.00" r="0.08" />
</g>
</svg>