<?xml version="1.0" encoding="UTF-8" standalone="no"?>
<!DOCTYPE svg PUBLIC "-//W3C//DTD SVG 1.1//EN"
 "http://www.w3.org/Graphics/SVG/1.1/DTD/svg11.dtd">
<!-- Generated by graphviz version 12.0.0 (0)
 -->
<!-- Pages: 1 -->
<svg width="55pt" height="54pt"
 viewBox="0.00 0.00 54.73 54.00" xmlns="http://www.w3.org/2000/svg" xmlns:xlink="http://www.w3.org/1999/xlink">
<g id="graph0" class="graph" transform="scale(0.29048 0.29048) rotate(0) translate(4 181.9)">
<!-- 1 -->
<g id="node1" class="node">
<title>1</title>
<ellipse fill="black" stroke="black" cx="7.6" cy="-74.84" rx="1.8" ry="1.8"/>
</g>
<!-- 3 -->
<g id="node2" class="node">
<title>3</title>
<ellipse fill="black" stroke="black" cx="27.71" cy="-13.82" rx="1.8" ry="1.8"/>
</g>
<!-- 1&#45;&#45;3 -->
<g id="edge1" class="edge">
<title>1&#45;&#45;3</title>
<path fill="none" stroke="black" stroke-width="0.75" d="M8.27,-72.81C11.32,-63.55 23.92,-25.33 27.02,-15.92"/>
</g>
<!-- 13 -->
<g id="node3" class="node">
<title>13</title>
<ellipse fill="black" stroke="black" cx="73.93" cy="-19.07" rx="1.8" ry="1.8"/>
</g>
<!-- 1&#45;&#45;13 -->
<g id="edge2" class="edge">
<title>1&#45;&#45;13</title>
<path fill="none" stroke="black" stroke-width="0.75" d="M9.24,-73.46C18.5,-65.68 64.11,-27.33 72.58,-20.21"/>
</g>
<!-- 15 -->
<g id="node4" class="node">
<title>15</title>
<ellipse fill="black" stroke="black" cx="79.86" cy="-129.43" rx="1.8" ry="1.8"/>
</g>
<!-- 1&#45;&#45;15 -->
<g id="edge3" class="edge">
<title>1&#45;&#45;15</title>
<path fill="none" stroke="black" stroke-width="0.75" d="M9.39,-76.19C19.39,-83.74 68.3,-120.7 78.14,-128.13"/>
</g>
<!-- 20 -->
<g id="node5" class="node">
<title>20</title>
<ellipse fill="black" stroke="black" cx="112.87" cy="-85.53" rx="1.8" ry="1.8"/>
</g>
<!-- 1&#45;&#45;20 -->
<g id="edge4" class="edge">
<title>1&#45;&#45;20</title>
<path fill="none" stroke="black" stroke-width="0.75" d="M9.8,-75.07C23.5,-76.46 97.01,-83.92 110.68,-85.31"/>
</g>
<!-- 21 -->
<g id="node6" class="node">
<title>21</title>
<ellipse fill="black" stroke="black" cx="25.72" cy="-151.33" rx="1.8" ry="1.8"/>
</g>
<!-- 1&#45;&#45;21 -->
<g id="edge5" class="edge">
<title>1&#45;&#45;21</title>
<path fill="none" stroke="black" stroke-width="0.75" d="M8.12,-77.05C10.77,-88.22 22.66,-138.41 25.23,-149.26"/>
</g>
<!-- 3&#45;&#45;13 -->
<g id="edge11" class="edge">
<title>3&#45;&#45;13</title>
<path fill="none" stroke="black" stroke-width="0.75" d="M29.94,-14.08C37.88,-14.98 64.66,-18.02 72.04,-18.85"/>
</g>
<!-- 19 -->
<g id="node10" class="node">
<title>19</title>
<ellipse fill="black" stroke="black" cx="48.38" cy="-75.19" rx="1.8" ry="1.8"/>
</g>
<!-- 3&#45;&#45;19 -->
<g id="edge13" class="edge">
<title>3&#45;&#45;19</title>
<path fill="none" stroke="black" stroke-width="0.75" d="M28.4,-15.87C31.54,-25.18 44.48,-63.61 47.67,-73.07"/>
</g>
<!-- 11 -->
<g id="node11" class="node">
<title>11</title>
<ellipse fill="black" stroke="black" cx="129.99" cy="-33.82" rx="1.8" ry="1.8"/>
</g>
<!-- 3&#45;&#45;11 -->
<g id="edge10" class="edge">
<title>3&#45;&#45;11</title>
<path fill="none" stroke="black" stroke-width="0.75" d="M29.85,-14.24C43.16,-16.84 114.59,-30.81 127.87,-33.4"/>
</g>
<!-- 18 -->
<g id="node12" class="node">
<title>18</title>
<ellipse fill="black" stroke="black" cx="43.15" cy="-119.18" rx="1.8" ry="1.8"/>
</g>
<!-- 3&#45;&#45;18 -->
<g id="edge12" class="edge">
<title>3&#45;&#45;18</title>
<path fill="none" stroke="black" stroke-width="0.75" d="M28.04,-16.02C30.05,-29.74 40.82,-103.32 42.83,-116.99"/>
</g>
<!-- 15&#45;&#45;20 -->
<g id="edge45" class="edge">
<title>15&#45;&#45;20</title>
<path fill="none" stroke="black" stroke-width="0.75" d="M80.96,-127.97C85.97,-121.31 106.64,-93.81 111.73,-87.04"/>
</g>
<!-- 2 -->
<g id="node7" class="node">
<title>2</title>
<ellipse fill="black" stroke="black" cx="105.55" cy="-1.8" rx="1.8" ry="1.8"/>
</g>
<!-- 2&#45;&#45;20 -->
<g id="edge9" class="edge">
<title>2&#45;&#45;20</title>
<path fill="none" stroke="black" stroke-width="0.75" d="M105.73,-3.87C106.74,-15.45 111.69,-72.14 112.69,-83.54"/>
</g>
<!-- 12 -->
<g id="node8" class="node">
<title>12</title>
<ellipse fill="black" stroke="black" cx="167.76" cy="-72.89" rx="1.8" ry="1.8"/>
</g>
<!-- 2&#45;&#45;12 -->
<g id="edge6" class="edge">
<title>2&#45;&#45;12</title>
<path fill="none" stroke="black" stroke-width="0.75" d="M106.85,-3.28C114.87,-12.46 157.64,-61.33 166.25,-71.16"/>
</g>
<!-- 14 -->
<g id="node9" class="node">
<title>14</title>
<ellipse fill="black" stroke="black" cx="27.26" cy="-42.26" rx="1.8" ry="1.8"/>
</g>
<!-- 2&#45;&#45;14 -->
<g id="edge7" class="edge">
<title>2&#45;&#45;14</title>
<path fill="none" stroke="black" stroke-width="0.75" d="M103.61,-2.8C92.78,-8.4 39.78,-35.79 29.13,-41.3"/>
</g>
<!-- 2&#45;&#45;19 -->
<g id="edge8" class="edge">
<title>2&#45;&#45;19</title>
<path fill="none" stroke="black" stroke-width="0.75" d="M104.13,-3.61C96.22,-13.77 57.52,-63.45 49.74,-73.44"/>
</g>
<!-- 12&#45;&#45;13 -->
<g id="edge43" class="edge">
<title>12&#45;&#45;13</title>
<path fill="none" stroke="black" stroke-width="0.75" d="M165.8,-71.76C153.59,-64.76 88.06,-27.17 75.88,-20.19"/>
</g>
<!-- 14&#45;&#45;21 -->
<g id="edge44" class="edge">
<title>14&#45;&#45;21</title>
<path fill="none" stroke="black" stroke-width="0.75" d="M27.23,-44.54C27.03,-58.74 25.95,-134.91 25.75,-149.06"/>
</g>
<!-- 11&#45;&#45;14 -->
<g id="edge42" class="edge">
<title>11&#45;&#45;14</title>
<path fill="none" stroke="black" stroke-width="0.75" d="M127.85,-34C114.48,-35.1 42.73,-40.99 29.39,-42.09"/>
</g>
<!-- 18&#45;&#45;19 -->
<g id="edge50" class="edge">
<title>18&#45;&#45;19</title>
<path fill="none" stroke="black" stroke-width="0.75" d="M43.4,-117.06C44.28,-109.64 47.22,-84.93 48.12,-77.39"/>
</g>
<!-- 4 -->
<g id="node13" class="node">
<title>4</title>
<ellipse fill="black" stroke="black" cx="126.65" cy="-176.1" rx="1.8" ry="1.8"/>
</g>
<!-- 4&#45;&#45;21 -->
<g id="edge18" class="edge">
<title>4&#45;&#45;21</title>
<path fill="none" stroke="black" stroke-width="0.75" d="M124.54,-175.58C111.41,-172.36 40.92,-155.06 27.82,-151.84"/>
</g>
<!-- 4&#45;&#45;12 -->
<g id="edge15" class="edge">
<title>4&#45;&#45;12</title>
<path fill="none" stroke="black" stroke-width="0.75" d="M127.36,-174.31C132.35,-161.78 161.97,-87.42 167.02,-74.73"/>
</g>
<!-- 4&#45;&#45;18 -->
<g id="edge17" class="edge">
<title>4&#45;&#45;18</title>
<path fill="none" stroke="black" stroke-width="0.75" d="M124.91,-174.91C114.04,-167.5 55.72,-127.75 44.88,-120.36"/>
</g>
<!-- 10 -->
<g id="node14" class="node">
<title>10</title>
<ellipse fill="black" stroke="black" cx="159.34" cy="-140.07" rx="1.8" ry="1.8"/>
</g>
<!-- 4&#45;&#45;10 -->
<g id="edge14" class="edge">
<title>4&#45;&#45;10</title>
<path fill="none" stroke="black" stroke-width="0.75" d="M128.05,-174.55C133.43,-168.62 152.68,-147.42 157.98,-141.57"/>
</g>
<!-- 17 -->
<g id="node15" class="node">
<title>17</title>
<ellipse fill="black" stroke="black" cx="90.48" cy="-170.45" rx="1.8" ry="1.8"/>
</g>
<!-- 4&#45;&#45;17 -->
<g id="edge16" class="edge">
<title>4&#45;&#45;17</title>
<path fill="none" stroke="black" stroke-width="0.75" d="M124.71,-175.79C118.48,-174.82 99.1,-171.79 92.62,-170.78"/>
</g>
<!-- 10&#45;&#45;15 -->
<g id="edge41" class="edge">
<title>10&#45;&#45;15</title>
<path fill="none" stroke="black" stroke-width="0.75" d="M157.38,-139.81C146.48,-138.35 93.51,-131.26 82.05,-129.72"/>
</g>
<!-- 10&#45;&#45;12 -->
<g id="edge40" class="edge">
<title>10&#45;&#45;12</title>
<path fill="none" stroke="black" stroke-width="0.75" d="M159.62,-137.83C160.92,-127.45 166.36,-84.05 167.53,-74.68"/>
</g>
<!-- 10&#45;&#45;11 -->
<g id="edge39" class="edge">
<title>10&#45;&#45;11</title>
<path fill="none" stroke="black" stroke-width="0.75" d="M158.84,-138.23C155.27,-125.33 134.13,-48.78 130.52,-35.71"/>
</g>
<!-- 17&#45;&#45;20 -->
<g id="edge49" class="edge">
<title>17&#45;&#45;20</title>
<path fill="none" stroke="black" stroke-width="0.75" d="M91.04,-168.35C94.13,-156.6 109.29,-99.11 112.33,-87.56"/>
</g>
<!-- 17&#45;&#45;18 -->
<g id="edge48" class="edge">
<title>17&#45;&#45;18</title>
<path fill="none" stroke="black" stroke-width="0.75" d="M89.31,-169.18C82.82,-162.15 51.27,-127.98 44.45,-120.59"/>
</g>
<!-- 5 -->
<g id="node16" class="node">
<title>5</title>
<ellipse fill="black" stroke="black" cx="178.62" cy="-105.47" rx="1.8" ry="1.8"/>
</g>
<!-- 5&#45;&#45;20 -->
<g id="edge23" class="edge">
<title>5&#45;&#45;20</title>
<path fill="none" stroke="black" stroke-width="0.75" d="M176.43,-104.8C166.27,-101.72 123.79,-88.84 114.62,-86.06"/>
</g>
<!-- 5&#45;&#45;11 -->
<g id="edge20" class="edge">
<title>5&#45;&#45;11</title>
<path fill="none" stroke="black" stroke-width="0.75" d="M177.42,-103.7C170.69,-93.78 137.77,-45.28 131.15,-35.53"/>
</g>
<!-- 5&#45;&#45;17 -->
<g id="edge22" class="edge">
<title>5&#45;&#45;17</title>
<path fill="none" stroke="black" stroke-width="0.75" d="M176.78,-106.83C165.31,-115.28 103.75,-160.66 92.31,-169.1"/>
</g>
<!-- 9 -->
<g id="node17" class="node">
<title>9</title>
<ellipse fill="black" stroke="black" cx="164.87" cy="-33.99" rx="1.8" ry="1.8"/>
</g>
<!-- 5&#45;&#45;9 -->
<g id="edge19" class="edge">
<title>5&#45;&#45;9</title>
<path fill="none" stroke="black" stroke-width="0.75" d="M178.22,-103.41C176.22,-92.97 167.19,-46.06 165.24,-35.92"/>
</g>
<!-- 16 -->
<g id="node18" class="node">
<title>16</title>
<ellipse fill="black" stroke="black" cx="120.92" cy="-129.33" rx="1.8" ry="1.8"/>
</g>
<!-- 5&#45;&#45;16 -->
<g id="edge21" class="edge">
<title>5&#45;&#45;16</title>
<path fill="none" stroke="black" stroke-width="0.75" d="M176.7,-106.26C167.94,-109.88 131.8,-124.83 122.91,-128.51"/>
</g>
<!-- 9&#45;&#45;13 -->
<g id="edge37" class="edge">
<title>9&#45;&#45;13</title>
<path fill="none" stroke="black" stroke-width="0.75" d="M162.62,-33.62C150.04,-31.55 88.48,-21.45 76.1,-19.42"/>
</g>
<!-- 9&#45;&#45;12 -->
<g id="edge36" class="edge">
<title>9&#45;&#45;12</title>
<path fill="none" stroke="black" stroke-width="0.75" d="M165.02,-36.08C165.53,-42.9 167.13,-64.41 167.62,-70.97"/>
</g>
<!-- 9&#45;&#45;16 -->
<g id="edge38" class="edge">
<title>9&#45;&#45;16</title>
<path fill="none" stroke="black" stroke-width="0.75" d="M163.95,-35.98C158.23,-48.39 127.54,-114.97 121.83,-127.35"/>
</g>
<!-- 16&#45;&#45;21 -->
<g id="edge47" class="edge">
<title>16&#45;&#45;21</title>
<path fill="none" stroke="black" stroke-width="0.75" d="M118.93,-129.79C106.54,-132.65 40.06,-148.02 27.7,-150.87"/>
</g>
<!-- 16&#45;&#45;19 -->
<g id="edge46" class="edge">
<title>16&#45;&#45;19</title>
<path fill="none" stroke="black" stroke-width="0.75" d="M119.13,-127.99C109.09,-120.5 59.98,-83.85 50.11,-76.48"/>
</g>
<!-- 6 -->
<g id="node19" class="node">
<title>6</title>
<ellipse fill="black" stroke="black" cx="59.89" cy="-175.97" rx="1.8" ry="1.8"/>
</g>
<!-- 6&#45;&#45;15 -->
<g id="edge26" class="edge">
<title>6&#45;&#45;15</title>
<path fill="none" stroke="black" stroke-width="0.75" d="M60.75,-173.97C64.04,-166.32 75.79,-138.92 79.03,-131.37"/>
</g>
<!-- 6&#45;&#45;19 -->
<g id="edge28" class="edge">
<title>6&#45;&#45;19</title>
<path fill="none" stroke="black" stroke-width="0.75" d="M59.65,-173.87C58.16,-160.75 50.11,-90.36 48.62,-77.28"/>
</g>
<!-- 6&#45;&#45;10 -->
<g id="edge25" class="edge">
<title>6&#45;&#45;10</title>
<path fill="none" stroke="black" stroke-width="0.75" d="M61.97,-175.22C74.91,-170.55 144.37,-145.48 157.28,-140.82"/>
</g>
<!-- 6&#45;&#45;16 -->
<g id="edge27" class="edge">
<title>6&#45;&#45;16</title>
<path fill="none" stroke="black" stroke-width="0.75" d="M61.66,-174.63C70.57,-167.81 110.61,-137.2 119.27,-130.59"/>
</g>
<!-- 8 -->
<g id="node20" class="node">
<title>8</title>
<ellipse fill="black" stroke="black" cx="1.8" cy="-115.83" rx="1.8" ry="1.8"/>
</g>
<!-- 6&#45;&#45;8 -->
<g id="edge24" class="edge">
<title>6&#45;&#45;8</title>
<path fill="none" stroke="black" stroke-width="0.75" d="M58.46,-174.48C50.35,-166.09 10.41,-124.74 2.99,-117.06"/>
</g>
<!-- 8&#45;&#45;13 -->
<g id="edge33" class="edge">
<title>8&#45;&#45;13</title>
<path fill="none" stroke="black" stroke-width="0.75" d="M3.05,-114.15C11.81,-102.41 63.78,-32.69 72.65,-20.79"/>
</g>
<!-- 8&#45;&#45;14 -->
<g id="edge34" class="edge">
<title>8&#45;&#45;14</title>
<path fill="none" stroke="black" stroke-width="0.75" d="M2.53,-113.71C6.25,-102.97 22.96,-54.69 26.57,-44.26"/>
</g>
<!-- 8&#45;&#45;17 -->
<g id="edge35" class="edge">
<title>8&#45;&#45;17</title>
<path fill="none" stroke="black" stroke-width="0.75" d="M3.65,-116.97C15.19,-124.08 77.13,-162.22 88.64,-169.31"/>
</g>
<!-- 7 -->
<g id="node21" class="node">
<title>7</title>
<ellipse fill="black" stroke="black" cx="90.25" cy="-47.14" rx="1.8" ry="1.8"/>
</g>
<!-- 7&#45;&#45;15 -->
<g id="edge31" class="edge">
<title>7&#45;&#45;15</title>
<path fill="none" stroke="black" stroke-width="0.75" d="M89.99,-49.17C88.57,-60.46 81.65,-115.3 80.15,-127.17"/>
</g>
<!-- 7&#45;&#45;14 -->
<g id="edge30" class="edge">
<title>7&#45;&#45;14</title>
<path fill="none" stroke="black" stroke-width="0.75" d="M88.15,-46.97C78.59,-46.23 39.14,-43.18 29.43,-42.43"/>
</g>
<!-- 7&#45;&#45;18 -->
<g id="edge32" class="edge">
<title>7&#45;&#45;18</title>
<path fill="none" stroke="black" stroke-width="0.75" d="M89.09,-48.92C82.57,-58.88 50.68,-107.66 44.27,-117.46"/>
</g>
<!-- 7&#45;&#45;9 -->
<g id="edge29" class="edge">
<title>7&#45;&#45;9</title>
<path fill="none" stroke="black" stroke-width="0.75" d="M92.4,-46.76C103.3,-44.84 152.27,-36.21 162.85,-34.34"/>
</g>
</g>
</svg>
