<?xml version="1.0" encoding="UTF-8" standalone="no"?>
<!DOCTYPE svg PUBLIC "-//W3C//DTD SVG 1.1//EN"
 "http://www.w3.org/Graphics/SVG/1.1/DTD/svg11.dtd">
<!-- Generated by graphviz version 12.0.0 (0)
 -->
<!-- Pages: 1 -->
<svg width="53pt" height="54pt"
 viewBox="0.00 0.00 52.69 54.00" xmlns="http://www.w3.org/2000/svg" xmlns:xlink="http://www.w3.org/1999/xlink">
<g id="graph0" class="graph" transform="scale(0.289058 0.289058) rotate(0) translate(4 182.81)">
<!-- 1 -->
<g id="node1" class="node">
<title>1</title>
<ellipse fill="black" stroke="black" cx="15.77" cy="-152.35" rx="1.8" ry="1.8"/>
</g>
<!-- 3 -->
<g id="node2" class="node">
<title>3</title>
<ellipse fill="black" stroke="black" cx="110.51" cy="-162.94" rx="1.8" ry="1.8"/>
</g>
<!-- 1&#45;&#45;3 -->
<g id="edge1" class="edge">
<title>1&#45;&#45;3</title>
<path fill="none" stroke="black" stroke-width="0.75" d="M17.75,-152.57C30.08,-153.95 96.24,-161.35 108.54,-162.72"/>
</g>
<!-- 5 -->
<g id="node3" class="node">
<title>5</title>
<ellipse fill="black" stroke="black" cx="50.68" cy="-75.65" rx="1.8" ry="1.8"/>
</g>
<!-- 1&#45;&#45;5 -->
<g id="edge2" class="edge">
<title>1&#45;&#45;5</title>
<path fill="none" stroke="black" stroke-width="0.75" d="M16.64,-150.46C21.47,-139.84 45.1,-87.92 49.85,-77.48"/>
</g>
<!-- 12 -->
<g id="node4" class="node">
<title>12</title>
<ellipse fill="black" stroke="black" cx="63.88" cy="-177.01" rx="1.8" ry="1.8"/>
</g>
<!-- 1&#45;&#45;12 -->
<g id="edge3" class="edge">
<title>1&#45;&#45;12</title>
<path fill="none" stroke="black" stroke-width="0.75" d="M17.38,-153.17C24.68,-156.92 54.81,-172.36 62.23,-176.16"/>
</g>
<!-- 13 -->
<g id="node5" class="node">
<title>13</title>
<ellipse fill="black" stroke="black" cx="1.8" cy="-90.03" rx="1.8" ry="1.8"/>
</g>
<!-- 1&#45;&#45;13 -->
<g id="edge4" class="edge">
<title>1&#45;&#45;13</title>
<path fill="none" stroke="black" stroke-width="0.75" d="M15.31,-150.28C13.19,-140.82 4.44,-101.79 2.28,-92.18"/>
</g>
<!-- 11 -->
<g id="node8" class="node">
<title>11</title>
<ellipse fill="black" stroke="black" cx="172.48" cy="-103.71" rx="1.8" ry="1.8"/>
</g>
<!-- 3&#45;&#45;11 -->
<g id="edge9" class="edge">
<title>3&#45;&#45;11</title>
<path fill="none" stroke="black" stroke-width="0.75" d="M112.04,-161.48C120.69,-153.21 163.3,-112.49 171.21,-104.92"/>
</g>
<!-- 10 -->
<g id="node9" class="node">
<title>10</title>
<ellipse fill="black" stroke="black" cx="116.75" cy="-66.8" rx="1.8" ry="1.8"/>
</g>
<!-- 3&#45;&#45;10 -->
<g id="edge8" class="edge">
<title>3&#45;&#45;10</title>
<path fill="none" stroke="black" stroke-width="0.75" d="M110.64,-160.94C111.45,-148.42 115.81,-81.27 116.62,-68.79"/>
</g>
<!-- 5&#45;&#45;12 -->
<g id="edge15" class="edge">
<title>5&#45;&#45;12</title>
<path fill="none" stroke="black" stroke-width="0.75" d="M50.96,-77.77C52.68,-90.96 61.89,-161.75 63.61,-174.91"/>
</g>
<!-- 9 -->
<g id="node10" class="node">
<title>9</title>
<ellipse fill="black" stroke="black" cx="85.55" cy="-1.8" rx="1.8" ry="1.8"/>
</g>
<!-- 5&#45;&#45;9 -->
<g id="edge14" class="edge">
<title>5&#45;&#45;9</title>
<path fill="none" stroke="black" stroke-width="0.75" d="M51.55,-73.82C56.33,-63.7 79.57,-14.48 84.59,-3.83"/>
</g>
<!-- 8 -->
<g id="node11" class="node">
<title>8</title>
<ellipse fill="black" stroke="black" cx="143.24" cy="-31.37" rx="1.8" ry="1.8"/>
</g>
<!-- 5&#45;&#45;8 -->
<g id="edge13" class="edge">
<title>5&#45;&#45;8</title>
<path fill="none" stroke="black" stroke-width="0.75" d="M52.62,-74.73C64.66,-68.96 129.31,-38.04 141.32,-32.29"/>
</g>
<!-- 2 -->
<g id="node6" class="node">
<title>2</title>
<ellipse fill="black" stroke="black" cx="73.2" cy="-114.28" rx="1.8" ry="1.8"/>
</g>
<!-- 2&#45;&#45;12 -->
<g id="edge7" class="edge">
<title>2&#45;&#45;12</title>
<path fill="none" stroke="black" stroke-width="0.75" d="M72.89,-116.37C71.48,-125.89 65.64,-165.18 64.2,-174.85"/>
</g>
<!-- 4 -->
<g id="node7" class="node">
<title>4</title>
<ellipse fill="black" stroke="black" cx="34.78" cy="-32.37" rx="1.8" ry="1.8"/>
</g>
<!-- 2&#45;&#45;4 -->
<g id="edge5" class="edge">
<title>2&#45;&#45;4</title>
<path fill="none" stroke="black" stroke-width="0.75" d="M72.25,-112.26C66.94,-100.92 40.93,-45.47 35.7,-34.33"/>
</g>
<!-- 2&#45;&#45;11 -->
<g id="edge6" class="edge">
<title>2&#45;&#45;11</title>
<path fill="none" stroke="black" stroke-width="0.75" d="M75.27,-114.06C88.19,-112.69 157.53,-105.3 170.42,-103.93"/>
</g>
<!-- 4&#45;&#45;13 -->
<g id="edge12" class="edge">
<title>4&#45;&#45;13</title>
<path fill="none" stroke="black" stroke-width="0.75" d="M33.69,-34.29C28.68,-43.04 8.02,-79.16 2.94,-88.05"/>
</g>
<!-- 4&#45;&#45;10 -->
<g id="edge11" class="edge">
<title>4&#45;&#45;10</title>
<path fill="none" stroke="black" stroke-width="0.75" d="M36.81,-33.22C48.15,-37.99 103.64,-61.29 114.8,-65.97"/>
</g>
<!-- 4&#45;&#45;9 -->
<g id="edge10" class="edge">
<title>4&#45;&#45;9</title>
<path fill="none" stroke="black" stroke-width="0.75" d="M36.47,-31.35C44.18,-26.71 75.98,-7.57 83.81,-2.85"/>
</g>
<!-- 9&#45;&#45;10 -->
<g id="edge24" class="edge">
<title>9&#45;&#45;10</title>
<path fill="none" stroke="black" stroke-width="0.75" d="M86.45,-3.68C91.01,-13.17 111.48,-55.82 115.91,-65.04"/>
</g>
<!-- 8&#45;&#45;11 -->
<g id="edge23" class="edge">
<title>8&#45;&#45;11</title>
<path fill="none" stroke="black" stroke-width="0.75" d="M144.09,-33.46C148.36,-44.02 167.54,-91.5 171.69,-101.76"/>
</g>
<!-- 8&#45;&#45;9 -->
<g id="edge22" class="edge">
<title>8&#45;&#45;9</title>
<path fill="none" stroke="black" stroke-width="0.75" d="M141.32,-30.39C132.57,-25.9 96.43,-7.38 87.54,-2.82"/>
</g>
<!-- 6 -->
<g id="node12" class="node">
<title>6</title>
<ellipse fill="black" stroke="black" cx="121.42" cy="-99.46" rx="1.8" ry="1.8"/>
</g>
<!-- 6&#45;&#45;13 -->
<g id="edge19" class="edge">
<title>6&#45;&#45;13</title>
<path fill="none" stroke="black" stroke-width="0.75" d="M119.35,-99.3C104.83,-98.15 18.64,-91.36 3.93,-90.2"/>
</g>
<!-- 6&#45;&#45;11 -->
<g id="edge18" class="edge">
<title>6&#45;&#45;11</title>
<path fill="none" stroke="black" stroke-width="0.75" d="M123.62,-99.64C132.01,-100.34 162.06,-102.85 170.35,-103.54"/>
</g>
<!-- 6&#45;&#45;8 -->
<g id="edge17" class="edge">
<title>6&#45;&#45;8</title>
<path fill="none" stroke="black" stroke-width="0.75" d="M122.05,-97.5C125.24,-87.55 139.56,-42.87 142.65,-33.22"/>
</g>
<!-- 7 -->
<g id="node13" class="node">
<title>7</title>
<ellipse fill="black" stroke="black" cx="150.24" cy="-160" rx="1.8" ry="1.8"/>
</g>
<!-- 6&#45;&#45;7 -->
<g id="edge16" class="edge">
<title>6&#45;&#45;7</title>
<path fill="none" stroke="black" stroke-width="0.75" d="M122.38,-101.48C126.84,-110.83 145.46,-149.95 149.48,-158.39"/>
</g>
<!-- 7&#45;&#45;12 -->
<g id="edge21" class="edge">
<title>7&#45;&#45;12</title>
<path fill="none" stroke="black" stroke-width="0.75" d="M148.11,-160.42C136.16,-162.78 77.7,-174.29 65.94,-176.61"/>
</g>
<!-- 7&#45;&#45;10 -->
<g id="edge20" class="edge">
<title>7&#45;&#45;10</title>
<path fill="none" stroke="black" stroke-width="0.75" d="M149.54,-158.06C145.19,-145.93 121.8,-80.83 117.45,-68.73"/>
</g>
</g>
</svg>
