<svg xmlns="http://www.w3.org/2000/svg" width="161.8" height="100.0" viewBox="-3.444 -5.000 171.803 110.000">
<g fill="none" stroke="black" stroke-width="0.0050%" transform="translate(0, 100.0000) scale(100.0000, -100.0000)">
<line x1="0.016" y1="0.000" x2="0.016" y2="1.000" />

<line x1="0.047" y1="0.000" x2="0.047" y2="1.000" />
<line x1="0.062" y1="0.000" x2="0.062" y2="1.000" />
<line x1="0.078" y1="0.000" x2="0.078" y2="1.000" />

<line x1="0.109" y1="0.000" x2="0.109" y2="1.000" />

<line x1="0.140" y1="0.000" x2="0.140" y2="1.000" />

<line x1="0.171" y1="0.000" x2="0.171" y2="1.000" />
<line x1="0.187" y1="0.000" x2="0.187" y2="1.000" />
<line x1="0.202" y1="0.000" x2="0.202" y2="1.000" />

<line x1="0.233" y1="0.000" x2="0.233" y2="1.000" />
<line x1="0.249" y1="0.000" x2="0.249" y2="1.000" />
<line x1="0.264" y1="0.000" x2="0.264" y2="1.000" />

<line x1="0.296" y1="0.000" x2="0.296" y2="1.000" />
<line x1="0.311" y1="0.000" x2="0.311" y2="1.000" />
<line x1="0.327" y1="0.000" x2="0.327" y2="1.000" />

<line x1="0.358" y1="0.000" x2="0.358" y2="1.000" />

<line x1="0.389" y1="0.000" x2="0.389" y2="1.000" />

<line x1="0.420" y1="0.000" x2="0.420" y2="1.000" />
<line x1="0.436" y1="0.000" x2="0.436" y2="1.000" />
<line x1="0.451" y1="0.000" x2="0.451" y2="1.000" />

<line x1="0.482" y1="0.000" x2="0.482" y2="1.000" />

<line x1="0.513" y1="0.000" x2="0.513" y2="1.000" />

<line x1="0.545" y1="0.000" x2="0.545" y2="1.000" />
<line x1="0.560" y1="0.000" x2="0.560" y2="1.000" />
<line x1="0.576" y1="0.000" x2="0.576" y2="1.000" />

<line x1="0.607" y1="0.000" x2="0.607" y2="1.000" />

<line x1="0.638" y1="0.000" x2="0.638" y2="1.000" />

<line x1="0.669" y1="0.000" x2="0.669" y2="1.000" />
<line x1="0.685" y1="0.000" x2="0.685" y2="1.000" />
<line x1="0.700" y1="0.000" x2="0.700" y2="1.000" />

<line x1="0.731" y1="0.000" x2="0.731" y2="1.000" />
<line x1="0.747" y1="0.000" x2="0.747" y2="1.000" />
<line x1="0.762" y1="0.000" x2="0.762" y2="1.000" />

<line x1="0.793" y1="0.000" x2="0.793" y2="1.000" />
<line x1="0.809" y1="0.000" x2="0.809" y2="1.000" />
<line x1="0.825" y1="0.000" x2="0.825" y2="1.000" />

<line x1="0.856" y1="0.000" x2="0.856" y2="1.000" />

<line x1="0.887" y1="0.000" x2="0.887" y2="1.000" />

<line x1="0.918" y1="0.000" x2="0.918" y2="1.000" />
<line x1="0.933" y1="0.000" x2="0.933" y2="1.000" />
<line x1="0.949" y1="0.000" x2="0.949" y2="1.000" />

<line x1="0.980" y1="0.000" x2="0.980" y2="1.000" />
<line x1="0.996" y1="0.000" x2="0.996" y2="1.000" />
<line x1="1.011" y1="0.000" x2="1.011" y2="1.000" />

<line x1="1.042" y1="0.000" x2="1.042" y2="1.000" />
<line x1="1.058" y1="0.000" x2="1.058" y2="1.000" />
<line x1="1.074" y1="0.000" x2="1.074" y2="1.000" />

<line x1="1.105" y1="0.000" x2="1.105" y2="1.000" />

<line x1="1.136" y1="0.000" x2="1.136" y2="1.000" />

<line x1="1.167" y1="0.000" x2="1.167" y2="1.000" />
<line x1="1.182" y1="0.000" x2="1.182" y2="1.000" />
<line x1="1.198" y1="0.000" x2="1.198" y2="1.000" />

<line x1="1.229" y1="0.000" x2="1.229" y2="1.000" />
<line x1="1.245" y1="0.000" x2="1.245" y2="1.000" />
<line x1="1.260" y1="0.000" x2="1.260" y2="1.000" />

<line x1="1.291" y1="0.000" x2="1.291" y2="1.000" />
<line x1="1.307" y1="0.000" x2="1.307" y2="1.000" />
<line x1="1.322" y1="0.000" x2="1.322" y2="1.000" />

<line x1="1.354" y1="0.000" x2="1.354" y2="1.000" />

<line x1="1.385" y1="0.000" x2="1.385" y2="1.000" />

<line x1="1.416" y1="0.000" x2="1.416" y2="1.000" />
<line x1="1.431" y1="0.000" x2="1.431" y2="1.000" />
<line x1="1.447" y1="0.000" x2="1.447" y2="1.000" />

<line x1="1.478" y1="0.000" x2="1.478" y2="1.000" />

<line x1="1.509" y1="0.000" x2="1.509" y2="1.000" />

<line x1="1.540" y1="0.000" x2="1.540" y2="1.000" />
<line x1="1.556" y1="0.000" x2="1.556" y2="1.000" />
<line x1="1.571" y1="0.000" x2="1.571" y2="1.000" />

<line x1="1.602" y1="0.000" x2="1.602" y2="1.000" />

<line x1="1.634" y1="0.000" x2="1.634" y2="1.000" />
</g>
</svg>