<svg xmlns="http://www.w3.org/2000/svg" width="161.80" height="100.00" viewBox="-85.90 -34.17 171.80 110.00">
<g fill="none" stroke="black" stroke-width="0.12%" transform="translate(0, 41.67) scale(4.17, -4.17)">
<circle cx="-19.42" cy="0.00" r="0.24" />
<circle cx="0.00" cy="17.00" r="0.24" />
<polyline points="-19.42,6.00 -19.03,2.62 -18.64,-1.16 -18.25,-4.45 -17.86,-6.53 -17.47,-7.00 -17.09,-5.83 -16.70,-3.38 -16.31,-0.27 -15.92,2.75 -15.53,5.00 -15.14,6.02 -14.76,5.64 -14.37,4.03 -13.98,1.62 -13.59,-1.00 -13.20,-3.21 -12.81,-4.54 -12.43,-4.73 -12.04,-3.79 -11.65,-2.00 -11.26,0.19 -10.87,2.26 -10.48,3.75 -10.10,4.36 -9.71,4.00 -9.32,2.81 -8.93,1.10 -8.54,-0.70 -8.15,-2.17 -7.77,-3.00 -7.38,-3.02 -6.99,-2.28 -6.60,-0.97 -6.21,0.57 -5.82,2.00 -5.44,2.99 -5.05,3.36 -4.66,3.05 -4.27,2.19 -3.88,1.00 -3.49,-0.22 -3.11,-1.18 -2.72,-1.67 -2.33,-1.60 -1.94,-1.00 -1.55,-0.03 -1.16,1.08 -0.78,2.08 -0.39,2.76 -0.00,3.00 0.39,2.78 0.78,2.18 1.16,1.38 1.55,0.59 1.94,0.00 2.33,-0.25 2.72,-0.10 3.11,0.41 3.49,1.16 3.88,2.00 4.27,2.75 4.66,3.26 5.05,3.46 5.44,3.35 5.82,3.00 6.21,2.53 6.60,2.08 6.99,1.79 7.38,1.75 7.77,2.00 8.15,2.50 8.54,3.16 8.93,3.87 9.32,4.52 9.71,5.00 10.10,5.27 10.48,5.34 10.87,5.25 11.26,5.11 11.65,5.00 12.04,5.02 12.43,5.24 12.81,5.66 13.20,6.27 13.59,7.00 13.98,7.77 14.37,8.50 14.76,9.13 15.14,9.62 15.53,10.00 15.92,10.30 16.31,10.58 16.70,10.92 17.09,11.38 17.47,12.00 17.86,12.79 18.25,13.74 18.64,14.79 19.03,15.90 19.42,17.00" />
</g>
</svg>