<svg xmlns="http://www.w3.org/2000/svg" width="98" height="98" viewBox="0 0 98 98">
<g stroke="none" transform="translate(0, 0) scale(1, 1)">
<rect x="0" y="0" width="7" height="7" fill="rgba(255,255,255,0)"/>
<rect x="0" y="7" width="7" height="7" fill="rgb(0,0,0)"/>
<rect x="0" y="14" width="7" height="7" fill="rgba(255,255,255,0)"/>
<rect x="0" y="21" width="7" height="7" fill="rgba(255,255,255,0)"/>
<rect x="0" y="28" width="7" height="7" fill="rgba(255,255,255,0)"/>
<rect x="0" y="35" width="7" height="7" fill="rgba(255,255,255,0)"/>
<rect x="0" y="42" width="7" height="7" fill="rgb(0,0,0)"/>
<rect x="0" y="49" width="7" height="7" fill="rgb(0,0,0)"/>
<rect x="0" y="56" width="7" height="7" fill="rgba(255,255,255,0)"/>
<rect x="0" y="63" width="7" height="7" fill="rgba(255,255,255,0)"/>
<rect x="0" y="70" width="7" height="7" fill="rgba(255,255,255,0)"/>
<rect x="0" y="77" width="7" height="7" fill="rgba(255,255,255,0)"/>
<rect x="0" y="84" width="7" height="7" fill="rgba(255,255,255,0)"/>
<rect x="0" y="91" width="7" height="7" fill="rgba(255,255,255,0)"/>
<rect x="7" y="0" width="7" height="7" fill="rgb(0,0,0)"/>
<rect x="7" y="7" width="7" height="7" fill="rgba(255,255,255,0)"/>
<rect x="7" y="14" width="7" height="7" fill="rgb(0,0,0)"/>
<rect x="7" y="21" width="7" height="7" fill="rgba(255,255,255,0)"/>
<rect x="7" y="28" width="7" height="7" fill="rgba(255,255,255,0)"/>
<rect x="7" y="35" width="7" height="7" fill="rgba(255,255,255,0)"/>
<rect x="7" y="42" width="7" height="7" fill="rgba(255,255,255,0)"/>
<rect x="7" y="49" width="7" height="7" fill="rgba(255,255,255,0)"/>
<rect x="7" y="56" width="7" height="7" fill="rgb(0,0,0)"/>
<rect x="7" y="63" width="7" height="7" fill="rgba(255,255,255,0)"/>
<rect x="7" y="70" width="7" height="7" fill="rgba(255,255,255,0)"/>
<rect x="7" y="77" width="7" height="7" fill="rgba(255,255,255,0)"/>
<rect x="7" y="84" width="7" height="7" fill="rgba(255,255,255,0)"/>
<rect x="7" y="91" width="7" height="7" fill="rgba(255,255,255,0)"/>
<rect x="14" y="0" width="7" height="7" fill="rgba(255,255,255,0)"/>
<rect x="14" y="7" width="7" height="7" fill="rgb(0,0,0)"/>
<rect x="14" y="14" width="7" height="7" fill="rgba(255,255,255,0)"/>
<rect x="14" y="21" width="7" height="7" fill="rgb(0,0,0)"/>
<rect x="14" y="28" width="7" height="7" fill="rgba(255,255,255,0)"/>
<rect x="14" y="35" width="7" height="7" fill="rgba(255,255,255,0)"/>
<rect x="14" y="42" width="7" height="7" fill="rgba(255,255,255,0)"/>
<rect x="14" y="49" width="7" height="7" fill="rgba(255,255,255,0)"/>
<rect x="14" y="56" width="7" height="7" fill="rgba(255,255,255,0)"/>
<rect x="14" y="63" width="7" height="7" fill="rgb(0,0,0)"/>
<rect x="14" y="70" width="7" height="7" fill="rgba(255,255,255,0)"/>
<rect x="14" y="77" width="7" height="7" fill="rgba(255,255,255,0)"/>
<rect x="14" y="84" width="7" height="7" fill="rgba(255,255,255,0)"/>
<rect x="14" y="91" width="7" height="7" fill="rgba(255,255,255,0)"/>
<rect x="21" y="0" width="7" height="7" fill="rgba(255,255,255,0)"/>
<rect x="21" y="7" width="7" height="7" fill="rgba(255,255,255,0)"/>
<rect x="21" y="14" width="7" height="7" fill="rgb(0,0,0)"/>
<rect x="21" y="21" width="7" height="7" fill="rgba(255,255,255,0)"/>
<rect x="21" y="28" width="7" height="7" fill="rgb(0,0,0)"/>
<rect x="21" y="35" width="7" height="7" fill="rgba(255,255,255,0)"/>
<rect x="21" y="42" width="7" height="7" fill="rgba(255,255,255,0)"/>
<rect x="21" y="49" width="7" height="7" fill="rgba(255,255,255,0)"/>
<rect x="21" y="56" width="7" height="7" fill="rgba(255,255,255,0)"/>
<rect x="21" y="63" width="7" height="7" fill="rgba(255,255,255,0)"/>
<rect x="21" y="70" width="7" height="7" fill="rgb(0,0,0)"/>
<rect x="21" y="77" width="7" height="7" fill="rgba(255,255,255,0)"/>
<rect x="21" y="84" width="7" height="7" fill="rgba(255,255,255,0)"/>
<rect x="21" y="91" width="7" height="7" fill="rgba(255,255,255,0)"/>
<rect x="28" y="0" width="7" height="7" fill="rgba(255,255,255,0)"/>
<rect x="28" y="7" width="7" height="7" fill="rgba(255,255,255,0)"/>
<rect x="28" y="14" width="7" height="7" fill="rgba(255,255,255,0)"/>
<rect x="28" y="21" width="7" height="7" fill="rgb(0,0,0)"/>
<rect x="28" y="28" width="7" height="7" fill="rgba(255,255,255,0)"/>
<rect x="28" y="35" width="7" height="7" fill="rgb(0,0,0)"/>
<rect x="28" y="42" width="7" height="7" fill="rgba(255,255,255,0)"/>
<rect x="28" y="49" width="7" height="7" fill="rgba(255,255,255,0)"/>
<rect x="28" y="56" width="7" height="7" fill="rgba(255,255,255,0)"/>
<rect x="28" y="63" width="7" height="7" fill="rgba(255,255,255,0)"/>
<rect x="28" y="70" width="7" height="7" fill="rgba(255,255,255,0)"/>
<rect x="28" y="77" width="7" height="7" fill="rgb(0,0,0)"/>
<rect x="28" y="84" width="7" height="7" fill="rgba(255,255,255,0)"/>
<rect x="28" y="91" width="7" height="7" fill="rgba(255,255,255,0)"/>
<rect x="35" y="0" width="7" height="7" fill="rgba(255,255,255,0)"/>
<rect x="35" y="7" width="7" height="7" fill="rgba(255,255,255,0)"/>
<rect x="35" y="14" width="7" height="7" fill="rgba(255,255,255,0)"/>
<rect x="35" y="21" width="7" height="7" fill="rgba(255,255,255,0)"/>
<rect x="35" y="28" width="7" height="7" fill="rgb(0,0,0)"/>
<rect x="35" y="35" width="7" height="7" fill="rgba(255,255,255,0)"/>
<rect x="35" y="42" width="7" height="7" fill="rgb(0,0,0)"/>
<rect x="35" y="49" width="7" height="7" fill="rgba(255,255,255,0)"/>
<rect x="35" y="56" width="7" height="7" fill="rgba(255,255,255,0)"/>
<rect x="35" y="63" width="7" height="7" fill="rgba(255,255,255,0)"/>
<rect x="35" y="70" width="7" height="7" fill="rgba(255,255,255,0)"/>
<rect x="35" y="77" width="7" height="7" fill="rgba(255,255,255,0)"/>
<rect x="35" y="84" width="7" height="7" fill="rgb(0,0,0)"/>
<rect x="35" y="91" width="7" height="7" fill="rgba(255,255,255,0)"/>
<rect x="42" y="0" width="7" height="7" fill="rgb(0,0,0)"/>
<rect x="42" y="7" width="7" height="7" fill="rgba(255,255,255,0)"/>
<rect x="42" y="14" width="7" height="7" fill="rgba(255,255,255,0)"/>
<rect x="42" y="21" width="7" height="7" fill="rgba(255,255,255,0)"/>
<rect x="42" y="28" width="7" height="7" fill="rgba(255,255,255,0)"/>
<rect x="42" y="35" width="7" height="7" fill="rgb(0,0,0)"/>
<rect x="42" y="42" width="7" height="7" fill="rgba(255,255,255,0)"/>
<rect x="42" y="49" width="7" height="7" fill="rgba(255,255,255,0)"/>
<rect x="42" y="56" width="7" height="7" fill="rgba(255,255,255,0)"/>
<rect x="42" y="63" width="7" height="7" fill="rgba(255,255,255,0)"/>
<rect x="42" y="70" width="7" height="7" fill="rgba(255,255,255,0)"/>
<rect x="42" y="77" width="7" height="7" fill="rgba(255,255,255,0)"/>
<rect x="42" y="84" width="7" height="7" fill="rgba(255,255,255,0)"/>
<rect x="42" y="91" width="7" height="7" fill="rgb(0,0,0)"/>
<rect x="49" y="0" width="7" height="7" fill="rgb(0,0,0)"/>
<rect x="49" y="7" width="7" height="7" fill="rgba(255,255,255,0)"/>
<rect x="49" y="14" width="7" height="7" fill="rgba(255,255,255,0)"/>
<rect x="49" y="21" width="7" height="7" fill="rgba(255,255,255,0)"/>
<rect x="49" y="28" width="7" height="7" fill="rgba(255,255,255,0)"/>
<rect x="49" y="35" width="7" height="7" fill="rgba(255,255,255,0)"/>
<rect x="49" y="42" width="7" height="7" fill="rgba(255,255,255,0)"/>
<rect x="49" y="49" width="7" height="7" fill="rgba(255,255,255,0)"/>
<rect x="49" y="56" width="7" height="7" fill="rgba(255,255,255,0)"/>
<rect x="49" y="63" width="7" height="7" fill="rgb(0,0,0)"/>
<rect x="49" y="70" width="7" height="7" fill="rgba(255,255,255,0)"/>
<rect x="49" y="77" width="7" height="7" fill="rgba(255,255,255,0)"/>
<rect x="49" y="84" width="7" height="7" fill="rgb(0,0,0)"/>
<rect x="49" y="91" width="7" height="7" fill="rgba(255,255,255,0)"/>
<rect x="56" y="0" width="7" height="7" fill="rgba(255,255,255,0)"/>
<rect x="56" y="7" width="7" height="7" fill="rgb(0,0,0)"/>
<rect x="56" y="14" width="7" height="7" fill="rgba(255,255,255,0)"/>
<rect x="56" y="21" width="7" height="7" fill="rgba(255,255,255,0)"/>
<rect x="56" y="28" width="7" height="7" fill="rgba(255,255,255,0)"/>
<rect x="56" y="35" width="7" height="7" fill="rgba(255,255,255,0)"/>
<rect x="56" y="42" width="7" height="7" fill="rgba(255,255,255,0)"/>
<rect x="56" y="49" width="7" height="7" fill="rgba(255,255,255,0)"/>
<rect x="56" y="56" width="7" height="7" fill="rgba(255,255,255,0)"/>
<rect x="56" y="63" width="7" height="7" fill="rgba(255,255,255,0)"/>
<rect x="56" y="70" width="7" height="7" fill="rgb(0,0,0)"/>
<rect x="56" y="77" width="7" height="7" fill="rgba(255,255,255,0)"/>
<rect x="56" y="84" width="7" height="7" fill="rgba(255,255,255,0)"/>
<rect x="56" y="91" width="7" height="7" fill="rgb(0,0,0)"/>
<rect x="63" y="0" width="7" height="7" fill="rgba(255,255,255,0)"/>
<rect x="63" y="7" width="7" height="7" fill="rgba(255,255,255,0)"/>
<rect x="63" y="14" width="7" height="7" fill="rgb(0,0,0)"/>
<rect x="63" y="21" width="7" height="7" fill="rgba(255,255,255,0)"/>
<rect x="63" y="28" width="7" height="7" fill="rgba(255,255,255,0)"/>
<rect x="63" y="35" width="7" height="7" fill="rgba(255,255,255,0)"/>
<rect x="63" y="42" width="7" height="7" fill="rgba(255,255,255,0)"/>
<rect x="63" y="49" width="7" height="7" fill="rgb(0,0,0)"/>
<rect x="63" y="56" width="7" height="7" fill="rgba(255,255,255,0)"/>
<rect x="63" y="63" width="7" height="7" fill="rgba(255,255,255,0)"/>
<rect x="63" y="70" width="7" height="7" fill="rgba(255,255,255,0)"/>
<rect x="63" y="77" width="7" height="7" fill="rgb(0,0,0)"/>
<rect x="63" y="84" width="7" height="7" fill="rgba(255,255,255,0)"/>
<rect x="63" y="91" width="7" height="7" fill="rgba(255,255,255,0)"/>
<rect x="70" y="0" width="7" height="7" fill="rgba(255,255,255,0)"/>
<rect x="70" y="7" width="7" height="7" fill="rgba(255,255,255,0)"/>
<rect x="70" y="14" width="7" height="7" fill="rgba(255,255,255,0)"/>
<rect x="70" y="21" width="7" height="7" fill="rgb(0,0,0)"/>
<rect x="70" y="28" width="7" height="7" fill="rgba(255,255,255,0)"/>
<rect x="70" y="35" width="7" height="7" fill="rgba(255,255,255,0)"/>
<rect x="70" y="42" width="7" height="7" fill="rgba(255,255,255,0)"/>
<rect x="70" y="49" width="7" height="7" fill="rgba(255,255,255,0)"/>
<rect x="70" y="56" width="7" height="7" fill="rgb(0,0,0)"/>
<rect x="70" y="63" width="7" height="7" fill="rgba(255,255,255,0)"/>
<rect x="70" y="70" width="7" height="7" fill="rgba(255,255,255,0)"/>
<rect x="70" y="77" width="7" height="7" fill="rgba(255,255,255,0)"/>
<rect x="70" y="84" width="7" height="7" fill="rgb(0,0,0)"/>
<rect x="70" y="91" width="7" height="7" fill="rgba(255,255,255,0)"/>
<rect x="77" y="0" width="7" height="7" fill="rgba(255,255,255,0)"/>
<rect x="77" y="7" width="7" height="7" fill="rgba(255,255,255,0)"/>
<rect x="77" y="14" width="7" height="7" fill="rgba(255,255,255,0)"/>
<rect x="77" y="21" width="7" height="7" fill="rgba(255,255,255,0)"/>
<rect x="77" y="28" width="7" height="7" fill="rgb(0,0,0)"/>
<rect x="77" y="35" width="7" height="7" fill="rgba(255,255,255,0)"/>
<rect x="77" y="42" width="7" height="7" fill="rgba(255,255,255,0)"/>
<rect x="77" y="49" width="7" height="7" fill="rgba(255,255,255,0)"/>
<rect x="77" y="56" width="7" height="7" fill="rgba(255,255,255,0)"/>
<rect x="77" y="63" width="7" height="7" fill="rgb(0,0,0)"/>
<rect x="77" y="70" width="7" height="7" fill="rgba(255,255,255,0)"/>
<rect x="77" y="77" width="7" height="7" fill="rgba(255,255,255,0)"/>
<rect x="77" y="84" width="7" height="7" fill="rgba(255,255,255,0)"/>
<rect x="77" y="91" width="7" height="7" fill="rgb(0,0,0)"/>
<rect x="84" y="0" width="7" height="7" fill="rgba(255,255,255,0)"/>
<rect x="84" y="7" width="7" height="7" fill="rgba(255,255,255,0)"/>
<rect x="84" y="14" width="7" height="7" fill="rgba(255,255,255,0)"/>
<rect x="84" y="21" width="7" height="7" fill="rgba(255,255,255,0)"/>
<rect x="84" y="28" width="7" height="7" fill="rgba(255,255,255,0)"/>
<rect x="84" y="35" width="7" height="7" fill="rgb(0,0,0)"/>
<rect x="84" y="42" width="7" height="7" fill="rgba(255,255,255,0)"/>
<rect x="84" y="49" width="7" height="7" fill="rgb(0,0,0)"/>
<rect x="84" y="56" width="7" height="7" fill="rgba(255,255,255,0)"/>
<rect x="84" y="63" width="7" height="7" fill="rgba(255,255,255,0)"/>
<rect x="84" y="70" width="7" height="7" fill="rgb(0,0,0)"/>
<rect x="84" y="77" width="7" height="7" fill="rgba(255,255,255,0)"/>
<rect x="84" y="84" width="7" height="7" fill="rgba(255,255,255,0)"/>
<rect x="84" y="91" width="7" height="7" fill="rgba(255,255,255,0)"/>
<rect x="91" y="0" width="7" height="7" fill="rgba(255,255,255,0)"/>
<rect x="91" y="7" width="7" height="7" fill="rgba(255,255,255,0)"/>
<rect x="91" y="14" width="7" height="7" fill="rgba(255,255,255,0)"/>
<rect x="91" y="21" width="7" height="7" fill="rgba(255,255,255,0)"/>
<rect x="91" y="28" width="7" height="7" fill="rgba(255,255,255,0)"/>
<rect x="91" y="35" width="7" height="7" fill="rgba(255,255,255,0)"/>
<rect x="91" y="42" width="7" height="7" fill="rgb(0,0,0)"/>
<rect x="91" y="49" width="7" height="7" fill="rgba(255,255,255,0)"/>
<rect x="91" y="56" width="7" height="7" fill="rgb(0,0,0)"/>
<rect x="91" y="63" width="7" height="7" fill="rgba(255,255,255,0)"/>
<rect x="91" y="70" width="7" height="7" fill="rgba(255,255,255,0)"/>
<rect x="91" y="77" width="7" height="7" fill="rgb(0,0,0)"/>
<rect x="91" y="84" width="7" height="7" fill="rgba(255,255,255,0)"/>
<rect x="91" y="91" width="7" height="7" fill="rgba(255,255,255,0)"/>
</g>
</svg>