<?xml version="1.0" encoding="UTF-8" standalone="no"?>
<!DOCTYPE svg PUBLIC "-//W3C//DTD SVG 1.1//EN"
 "http://www.w3.org/Graphics/SVG/1.1/DTD/svg11.dtd">
<!-- Generated by graphviz version 12.0.0 (0)
 -->
<!-- Pages: 1 -->
<svg width="56pt" height="54pt"
 viewBox="0.00 0.00 55.64 54.00" xmlns="http://www.w3.org/2000/svg" xmlns:xlink="http://www.w3.org/1999/xlink">
<g id="graph0" class="graph" transform="scale(0.126814 0.126814) rotate(0) translate(4 421.82)">
<!-- 1 -->
<g id="node1" class="node">
<title>1</title>
<ellipse fill="black" stroke="black" cx="274.16" cy="-63" rx="1.8" ry="1.8"/>
</g>
<!-- 2 -->
<g id="node2" class="node">
<title>2</title>
<ellipse fill="black" stroke="black" cx="183.36" cy="-7.54" rx="1.8" ry="1.8"/>
</g>
<!-- 1&#45;&#45;2 -->
<g id="edge1" class="edge">
<title>1&#45;&#45;2</title>
<path fill="none" stroke="black" stroke-width="0.75" d="M272.26,-61.84C260.44,-54.63 197.03,-15.89 185.25,-8.69"/>
</g>
<!-- 25 -->
<g id="node3" class="node">
<title>25</title>
<ellipse fill="black" stroke="black" cx="294.96" cy="-178.96" rx="1.8" ry="1.8"/>
</g>
<!-- 1&#45;&#45;25 -->
<g id="edge2" class="edge">
<title>1&#45;&#45;25</title>
<path fill="none" stroke="black" stroke-width="0.75" d="M274.52,-65.01C277.04,-79.09 292.03,-162.64 294.59,-176.89"/>
</g>
<!-- 24 -->
<g id="node48" class="node">
<title>24</title>
<ellipse fill="black" stroke="black" cx="325.01" cy="-118.39" rx="1.8" ry="1.8"/>
</g>
<!-- 1&#45;&#45;24 -->
<g id="edge70" class="edge">
<title>1&#45;&#45;24</title>
<path fill="none" stroke="black" stroke-width="0.75" d="M275.41,-64.37C282.39,-71.97 316.28,-108.88 323.61,-116.86"/>
</g>
<!-- 3 -->
<g id="node5" class="node">
<title>3</title>
<ellipse fill="black" stroke="black" cx="240.04" cy="-1.8" rx="1.8" ry="1.8"/>
</g>
<!-- 2&#45;&#45;3 -->
<g id="edge4" class="edge">
<title>2&#45;&#45;3</title>
<path fill="none" stroke="black" stroke-width="0.75" d="M185.24,-7.35C193.77,-6.49 228.71,-2.95 237.84,-2.02"/>
</g>
<!-- 26 -->
<g id="node6" class="node">
<title>26</title>
<ellipse fill="black" stroke="black" cx="81.68" cy="-51.47" rx="1.8" ry="1.8"/>
</g>
<!-- 2&#45;&#45;26 -->
<g id="edge5" class="edge">
<title>2&#45;&#45;26</title>
<path fill="none" stroke="black" stroke-width="0.75" d="M181.59,-8.3C169.25,-13.64 95.99,-45.29 83.49,-50.69"/>
</g>
<!-- 30 -->
<g id="node4" class="node">
<title>30</title>
<ellipse fill="black" stroke="black" cx="238.81" cy="-153.78" rx="1.8" ry="1.8"/>
</g>
<!-- 25&#45;&#45;30 -->
<g id="edge3" class="edge">
<title>25&#45;&#45;30</title>
<path fill="none" stroke="black" stroke-width="0.75" d="M293.09,-178.12C284.56,-174.3 249.4,-158.53 240.74,-154.65"/>
</g>
<!-- 44 -->
<g id="node36" class="node">
<title>44</title>
<ellipse fill="black" stroke="black" cx="264.61" cy="-282.32" rx="1.8" ry="1.8"/>
</g>
<!-- 25&#45;&#45;44 -->
<g id="edge60" class="edge">
<title>25&#45;&#45;44</title>
<path fill="none" stroke="black" stroke-width="0.75" d="M294.32,-181.12C290.37,-194.57 269.18,-266.75 265.24,-280.17"/>
</g>
<!-- 35 -->
<g id="node18" class="node">
<title>35</title>
<ellipse fill="black" stroke="black" cx="169.93" cy="-224.07" rx="1.8" ry="1.8"/>
</g>
<!-- 30&#45;&#45;35 -->
<g id="edge18" class="edge">
<title>30&#45;&#45;35</title>
<path fill="none" stroke="black" stroke-width="0.75" d="M237.37,-155.25C228.41,-164.4 180.3,-213.49 171.36,-222.61"/>
</g>
<!-- 4 -->
<g id="node8" class="node">
<title>4</title>
<ellipse fill="black" stroke="black" cx="349.8" cy="-50.09" rx="1.8" ry="1.8"/>
</g>
<!-- 3&#45;&#45;4 -->
<g id="edge7" class="edge">
<title>3&#45;&#45;4</title>
<path fill="none" stroke="black" stroke-width="0.75" d="M241.94,-2.64C255.26,-8.5 334.35,-43.29 347.85,-49.23"/>
</g>
<!-- 27 -->
<g id="node9" class="node">
<title>27</title>
<ellipse fill="black" stroke="black" cx="135.17" cy="-46.41" rx="1.8" ry="1.8"/>
</g>
<!-- 3&#45;&#45;27 -->
<g id="edge8" class="edge">
<title>3&#45;&#45;27</title>
<path fill="none" stroke="black" stroke-width="0.75" d="M238.22,-2.57C225.49,-7.99 149.93,-40.13 137.04,-45.61"/>
</g>
<!-- 31 -->
<g id="node7" class="node">
<title>31</title>
<ellipse fill="black" stroke="black" cx="106.8" cy="-92.13" rx="1.8" ry="1.8"/>
</g>
<!-- 26&#45;&#45;31 -->
<g id="edge6" class="edge">
<title>26&#45;&#45;31</title>
<path fill="none" stroke="black" stroke-width="0.75" d="M82.75,-53.22C86.89,-59.91 101.68,-83.84 105.75,-90.43"/>
</g>
<!-- 45 -->
<g id="node38" class="node">
<title>45</title>
<ellipse fill="black" stroke="black" cx="38.3" cy="-159.78" rx="1.8" ry="1.8"/>
</g>
<!-- 26&#45;&#45;45 -->
<g id="edge63" class="edge">
<title>26&#45;&#45;45</title>
<path fill="none" stroke="black" stroke-width="0.75" d="M80.92,-53.35C75.66,-66.5 44.4,-144.53 39.07,-157.85"/>
</g>
<!-- 36 -->
<g id="node20" class="node">
<title>36</title>
<ellipse fill="black" stroke="black" cx="54.54" cy="-197.12" rx="1.8" ry="1.8"/>
</g>
<!-- 31&#45;&#45;36 -->
<g id="edge21" class="edge">
<title>31&#45;&#45;36</title>
<path fill="none" stroke="black" stroke-width="0.75" d="M105.89,-93.95C99.55,-106.69 61.9,-182.34 55.47,-195.24"/>
</g>
<!-- 5 -->
<g id="node11" class="node">
<title>5</title>
<ellipse fill="black" stroke="black" cx="398.91" cy="-99.9" rx="1.8" ry="1.8"/>
</g>
<!-- 4&#45;&#45;5 -->
<g id="edge10" class="edge">
<title>4&#45;&#45;5</title>
<path fill="none" stroke="black" stroke-width="0.75" d="M351.02,-51.32C357.75,-58.16 390.48,-91.35 397.56,-98.53"/>
</g>
<!-- 28 -->
<g id="node12" class="node">
<title>28</title>
<ellipse fill="black" stroke="black" cx="366.96" cy="-156.41" rx="1.8" ry="1.8"/>
</g>
<!-- 4&#45;&#45;28 -->
<g id="edge11" class="edge">
<title>4&#45;&#45;28</title>
<path fill="none" stroke="black" stroke-width="0.75" d="M350.16,-52.31C352.39,-66.15 364.38,-140.4 366.61,-154.2"/>
</g>
<!-- 32 -->
<g id="node10" class="node">
<title>32</title>
<ellipse fill="black" stroke="black" cx="166.86" cy="-135.28" rx="1.8" ry="1.8"/>
</g>
<!-- 27&#45;&#45;32 -->
<g id="edge9" class="edge">
<title>27&#45;&#45;32</title>
<path fill="none" stroke="black" stroke-width="0.75" d="M135.83,-48.26C139.92,-59.73 161.71,-120.83 166.09,-133.12"/>
</g>
<!-- 46 -->
<g id="node40" class="node">
<title>46</title>
<ellipse fill="black" stroke="black" cx="44.7" cy="-105.1" rx="1.8" ry="1.8"/>
</g>
<!-- 27&#45;&#45;46 -->
<g id="edge66" class="edge">
<title>27&#45;&#45;46</title>
<path fill="none" stroke="black" stroke-width="0.75" d="M133.28,-47.63C121.51,-55.27 58.33,-96.26 46.58,-103.88"/>
</g>
<!-- 37 -->
<g id="node22" class="node">
<title>37</title>
<ellipse fill="black" stroke="black" cx="136.96" cy="-238.5" rx="1.8" ry="1.8"/>
</g>
<!-- 32&#45;&#45;37 -->
<g id="edge24" class="edge">
<title>32&#45;&#45;37</title>
<path fill="none" stroke="black" stroke-width="0.75" d="M166.24,-137.43C162.34,-150.87 141.46,-222.96 137.58,-236.36"/>
</g>
<!-- 6 -->
<g id="node14" class="node">
<title>6</title>
<ellipse fill="black" stroke="black" cx="305.91" cy="-68" rx="1.8" ry="1.8"/>
</g>
<!-- 5&#45;&#45;6 -->
<g id="edge13" class="edge">
<title>5&#45;&#45;6</title>
<path fill="none" stroke="black" stroke-width="0.75" d="M396.97,-99.24C384.86,-95.08 319.92,-72.8 307.85,-68.66"/>
</g>
<!-- 29 -->
<g id="node15" class="node">
<title>29</title>
<ellipse fill="black" stroke="black" cx="428.97" cy="-205.96" rx="1.8" ry="1.8"/>
</g>
<!-- 5&#45;&#45;29 -->
<g id="edge14" class="edge">
<title>5&#45;&#45;29</title>
<path fill="none" stroke="black" stroke-width="0.75" d="M399.43,-101.74C403.08,-114.62 424.73,-191.03 428.43,-204.07"/>
</g>
<!-- 33 -->
<g id="node13" class="node">
<title>33</title>
<ellipse fill="black" stroke="black" cx="394.43" cy="-256.93" rx="1.8" ry="1.8"/>
</g>
<!-- 28&#45;&#45;33 -->
<g id="edge12" class="edge">
<title>28&#45;&#45;33</title>
<path fill="none" stroke="black" stroke-width="0.75" d="M367.54,-158.51C371.11,-171.59 390.3,-241.8 393.86,-254.85"/>
</g>
<!-- 47 -->
<g id="node42" class="node">
<title>47</title>
<ellipse fill="black" stroke="black" cx="262.15" cy="-193.88" rx="1.8" ry="1.8"/>
</g>
<!-- 28&#45;&#45;47 -->
<g id="edge69" class="edge">
<title>28&#45;&#45;47</title>
<path fill="none" stroke="black" stroke-width="0.75" d="M365.14,-157.06C352.42,-161.61 276.91,-188.61 264.02,-193.22"/>
</g>
<!-- 38 -->
<g id="node24" class="node">
<title>38</title>
<ellipse fill="black" stroke="black" cx="351.64" cy="-364.63" rx="1.8" ry="1.8"/>
</g>
<!-- 33&#45;&#45;38 -->
<g id="edge27" class="edge">
<title>33&#45;&#45;38</title>
<path fill="none" stroke="black" stroke-width="0.75" d="M393.69,-258.8C388.5,-271.88 357.67,-349.47 352.41,-362.71"/>
</g>
<!-- 6&#45;&#45;30 -->
<g id="edge17" class="edge">
<title>6&#45;&#45;30</title>
<path fill="none" stroke="black" stroke-width="0.75" d="M304.51,-69.79C295.78,-80.95 248.92,-140.87 240.2,-152"/>
</g>
<!-- 7 -->
<g id="node17" class="node">
<title>7</title>
<ellipse fill="black" stroke="black" cx="214.18" cy="-54.87" rx="1.8" ry="1.8"/>
</g>
<!-- 6&#45;&#45;7 -->
<g id="edge16" class="edge">
<title>6&#45;&#45;7</title>
<path fill="none" stroke="black" stroke-width="0.75" d="M303.65,-67.67C290.96,-65.86 228.85,-56.97 216.37,-55.18"/>
</g>
<!-- 34 -->
<g id="node16" class="node">
<title>34</title>
<ellipse fill="black" stroke="black" cx="386.74" cy="-312.55" rx="1.8" ry="1.8"/>
</g>
<!-- 29&#45;&#45;34 -->
<g id="edge15" class="edge">
<title>29&#45;&#45;34</title>
<path fill="none" stroke="black" stroke-width="0.75" d="M428.23,-207.81C423.11,-220.75 392.68,-297.54 387.49,-310.65"/>
</g>
<!-- 48 -->
<g id="node44" class="node">
<title>48</title>
<ellipse fill="black" stroke="black" cx="375.22" cy="-222.2" rx="1.8" ry="1.8"/>
</g>
<!-- 29&#45;&#45;48 -->
<g id="edge72" class="edge">
<title>29&#45;&#45;48</title>
<path fill="none" stroke="black" stroke-width="0.75" d="M427.18,-206.5C419.09,-208.94 385.95,-218.95 377.29,-221.57"/>
</g>
<!-- 39 -->
<g id="node26" class="node">
<title>39</title>
<ellipse fill="black" stroke="black" cx="296.82" cy="-371.43" rx="1.8" ry="1.8"/>
</g>
<!-- 34&#45;&#45;39 -->
<g id="edge30" class="edge">
<title>34&#45;&#45;39</title>
<path fill="none" stroke="black" stroke-width="0.75" d="M384.86,-313.78C373.16,-321.44 310.36,-362.56 298.69,-370.21"/>
</g>
<!-- 7&#45;&#45;31 -->
<g id="edge20" class="edge">
<title>7&#45;&#45;31</title>
<path fill="none" stroke="black" stroke-width="0.75" d="M212.32,-55.52C199.28,-60.04 121.92,-86.88 108.72,-91.46"/>
</g>
<!-- 8 -->
<g id="node19" class="node">
<title>8</title>
<ellipse fill="black" stroke="black" cx="263.46" cy="-121.51" rx="1.8" ry="1.8"/>
</g>
<!-- 7&#45;&#45;8 -->
<g id="edge19" class="edge">
<title>7&#45;&#45;8</title>
<path fill="none" stroke="black" stroke-width="0.75" d="M215.4,-56.52C222.16,-65.66 255,-110.07 262.1,-119.67"/>
</g>
<!-- 40 -->
<g id="node28" class="node">
<title>40</title>
<ellipse fill="black" stroke="black" cx="65.43" cy="-260.91" rx="1.8" ry="1.8"/>
</g>
<!-- 35&#45;&#45;40 -->
<g id="edge33" class="edge">
<title>35&#45;&#45;40</title>
<path fill="none" stroke="black" stroke-width="0.75" d="M168.12,-224.71C155.43,-229.18 80.14,-255.73 67.29,-260.25"/>
</g>
<!-- 8&#45;&#45;32 -->
<g id="edge23" class="edge">
<title>8&#45;&#45;32</title>
<path fill="none" stroke="black" stroke-width="0.75" d="M261.44,-121.79C248.87,-123.59 181.41,-133.2 168.87,-134.99"/>
</g>
<!-- 9 -->
<g id="node21" class="node">
<title>9</title>
<ellipse fill="black" stroke="black" cx="339.39" cy="-207.81" rx="1.8" ry="1.8"/>
</g>
<!-- 8&#45;&#45;9 -->
<g id="edge22" class="edge">
<title>8&#45;&#45;9</title>
<path fill="none" stroke="black" stroke-width="0.75" d="M264.78,-123C273.99,-133.48 328.7,-195.66 338.03,-206.27"/>
</g>
<!-- 41 -->
<g id="node30" class="node">
<title>41</title>
<ellipse fill="black" stroke="black" cx="1.8" cy="-211.85" rx="1.8" ry="1.8"/>
</g>
<!-- 36&#45;&#45;41 -->
<g id="edge36" class="edge">
<title>36&#45;&#45;41</title>
<path fill="none" stroke="black" stroke-width="0.75" d="M52.79,-197.61C44.85,-199.82 12.34,-208.91 3.84,-211.28"/>
</g>
<!-- 9&#45;&#45;33 -->
<g id="edge26" class="edge">
<title>9&#45;&#45;33</title>
<path fill="none" stroke="black" stroke-width="0.75" d="M340.75,-209.02C348.3,-215.76 384.98,-248.5 392.92,-255.58"/>
</g>
<!-- 10 -->
<g id="node23" class="node">
<title>10</title>
<ellipse fill="black" stroke="black" cx="317.57" cy="-290.65" rx="1.8" ry="1.8"/>
</g>
<!-- 9&#45;&#45;10 -->
<g id="edge25" class="edge">
<title>9&#45;&#45;10</title>
<path fill="none" stroke="black" stroke-width="0.75" d="M338.85,-209.85C335.83,-221.32 321.06,-277.4 318.09,-288.67"/>
</g>
<!-- 42 -->
<g id="node32" class="node">
<title>42</title>
<ellipse fill="black" stroke="black" cx="192.85" cy="-264.14" rx="1.8" ry="1.8"/>
</g>
<!-- 37&#45;&#45;42 -->
<g id="edge39" class="edge">
<title>37&#45;&#45;42</title>
<path fill="none" stroke="black" stroke-width="0.75" d="M138.82,-239.35C147.3,-243.25 182.31,-259.3 190.92,-263.26"/>
</g>
<!-- 10&#45;&#45;34 -->
<g id="edge29" class="edge">
<title>10&#45;&#45;34</title>
<path fill="none" stroke="black" stroke-width="0.75" d="M319.57,-291.28C329.67,-294.48 375.06,-308.85 384.86,-311.96"/>
</g>
<!-- 11 -->
<g id="node25" class="node">
<title>11</title>
<ellipse fill="black" stroke="black" cx="212.67" cy="-302.02" rx="1.8" ry="1.8"/>
</g>
<!-- 10&#45;&#45;11 -->
<g id="edge28" class="edge">
<title>10&#45;&#45;11</title>
<path fill="none" stroke="black" stroke-width="0.75" d="M315.38,-290.89C301.73,-292.37 228.47,-300.31 214.85,-301.79"/>
</g>
<!-- 43 -->
<g id="node34" class="node">
<title>43</title>
<ellipse fill="black" stroke="black" cx="321.85" cy="-327.09" rx="1.8" ry="1.8"/>
</g>
<!-- 38&#45;&#45;43 -->
<g id="edge42" class="edge">
<title>38&#45;&#45;43</title>
<path fill="none" stroke="black" stroke-width="0.75" d="M350.36,-363.02C345.46,-356.84 327.93,-334.75 323.09,-328.65"/>
</g>
<!-- 11&#45;&#45;35 -->
<g id="edge32" class="edge">
<title>11&#45;&#45;35</title>
<path fill="none" stroke="black" stroke-width="0.75" d="M211.62,-300.1C205.7,-289.31 176.77,-236.54 170.95,-225.93"/>
</g>
<!-- 12 -->
<g id="node27" class="node">
<title>12</title>
<ellipse fill="black" stroke="black" cx="106" cy="-299.96" rx="1.8" ry="1.8"/>
</g>
<!-- 11&#45;&#45;12 -->
<g id="edge31" class="edge">
<title>11&#45;&#45;12</title>
<path fill="none" stroke="black" stroke-width="0.75" d="M210.45,-301.98C196.56,-301.71 122.06,-300.27 108.21,-300"/>
</g>
<!-- 39&#45;&#45;44 -->
<g id="edge45" class="edge">
<title>39&#45;&#45;44</title>
<path fill="none" stroke="black" stroke-width="0.75" d="M296.15,-369.57C291.99,-358.07 269.85,-296.8 265.4,-284.48"/>
</g>
<!-- 12&#45;&#45;36 -->
<g id="edge35" class="edge">
<title>12&#45;&#45;36</title>
<path fill="none" stroke="black" stroke-width="0.75" d="M105.1,-298.18C98.86,-285.69 61.78,-211.59 55.46,-198.95"/>
</g>
<!-- 13 -->
<g id="node29" class="node">
<title>13</title>
<ellipse fill="black" stroke="black" cx="157.65" cy="-354.62" rx="1.8" ry="1.8"/>
</g>
<!-- 12&#45;&#45;13 -->
<g id="edge34" class="edge">
<title>12&#45;&#45;13</title>
<path fill="none" stroke="black" stroke-width="0.75" d="M107.27,-301.31C114.36,-308.81 148.78,-345.24 156.23,-353.12"/>
</g>
<!-- 40&#45;&#45;45 -->
<g id="edge48" class="edge">
<title>40&#45;&#45;45</title>
<path fill="none" stroke="black" stroke-width="0.75" d="M64.86,-258.8C61.33,-245.64 42.38,-175.01 38.86,-161.88"/>
</g>
<!-- 13&#45;&#45;37 -->
<g id="edge38" class="edge">
<title>13&#45;&#45;37</title>
<path fill="none" stroke="black" stroke-width="0.75" d="M157.29,-352.61C154.78,-338.51 139.87,-254.85 137.33,-240.57"/>
</g>
<!-- 14 -->
<g id="node31" class="node">
<title>14</title>
<ellipse fill="black" stroke="black" cx="249.22" cy="-409.61" rx="1.8" ry="1.8"/>
</g>
<!-- 13&#45;&#45;14 -->
<g id="edge37" class="edge">
<title>13&#45;&#45;14</title>
<path fill="none" stroke="black" stroke-width="0.75" d="M159.56,-355.77C171.48,-362.93 235.43,-401.33 247.32,-408.47"/>
</g>
<!-- 41&#45;&#45;46 -->
<g id="edge51" class="edge">
<title>41&#45;&#45;46</title>
<path fill="none" stroke="black" stroke-width="0.75" d="M2.54,-210C7.75,-197.04 38.66,-120.12 43.94,-107"/>
</g>
<!-- 14&#45;&#45;38 -->
<g id="edge41" class="edge">
<title>14&#45;&#45;38</title>
<path fill="none" stroke="black" stroke-width="0.75" d="M251,-408.83C263.43,-403.37 337.23,-370.97 349.82,-365.44"/>
</g>
<!-- 15 -->
<g id="node33" class="node">
<title>15</title>
<ellipse fill="black" stroke="black" cx="192.29" cy="-416.02" rx="1.8" ry="1.8"/>
</g>
<!-- 14&#45;&#45;15 -->
<g id="edge40" class="edge">
<title>14&#45;&#45;15</title>
<path fill="none" stroke="black" stroke-width="0.75" d="M247.32,-409.82C238.76,-410.79 203.66,-414.74 194.49,-415.77"/>
</g>
<!-- 42&#45;&#45;47 -->
<g id="edge54" class="edge">
<title>42&#45;&#45;47</title>
<path fill="none" stroke="black" stroke-width="0.75" d="M194.3,-262.67C203.32,-253.53 251.72,-204.46 260.71,-195.34"/>
</g>
<!-- 15&#45;&#45;39 -->
<g id="edge44" class="edge">
<title>15&#45;&#45;39</title>
<path fill="none" stroke="black" stroke-width="0.75" d="M194.1,-415.25C206.79,-409.83 282.11,-377.71 294.96,-372.22"/>
</g>
<!-- 16 -->
<g id="node35" class="node">
<title>16</title>
<ellipse fill="black" stroke="black" cx="82.09" cy="-367.65" rx="1.8" ry="1.8"/>
</g>
<!-- 15&#45;&#45;16 -->
<g id="edge43" class="edge">
<title>15&#45;&#45;16</title>
<path fill="none" stroke="black" stroke-width="0.75" d="M190.38,-415.18C177,-409.31 97.6,-374.46 84.06,-368.51"/>
</g>
<!-- 43&#45;&#45;48 -->
<g id="edge57" class="edge">
<title>43&#45;&#45;48</title>
<path fill="none" stroke="black" stroke-width="0.75" d="M322.78,-325.27C329.26,-312.53 367.7,-236.96 374.26,-224.07"/>
</g>
<!-- 16&#45;&#45;40 -->
<g id="edge47" class="edge">
<title>16&#45;&#45;40</title>
<path fill="none" stroke="black" stroke-width="0.75" d="M81.74,-365.42C79.58,-351.53 67.94,-276.98 65.78,-263.13"/>
</g>
<!-- 17 -->
<g id="node37" class="node">
<title>17</title>
<ellipse fill="black" stroke="black" cx="32.19" cy="-317.87" rx="1.8" ry="1.8"/>
</g>
<!-- 16&#45;&#45;17 -->
<g id="edge46" class="edge">
<title>16&#45;&#45;17</title>
<path fill="none" stroke="black" stroke-width="0.75" d="M80.86,-366.42C74.02,-359.59 40.76,-326.42 33.57,-319.24"/>
</g>
<!-- 17&#45;&#45;41 -->
<g id="edge50" class="edge">
<title>17&#45;&#45;41</title>
<path fill="none" stroke="black" stroke-width="0.75" d="M31.67,-316.03C27.98,-303.16 6.08,-226.77 2.34,-213.74"/>
</g>
<!-- 18 -->
<g id="node39" class="node">
<title>18</title>
<ellipse fill="black" stroke="black" cx="124.76" cy="-349.56" rx="1.8" ry="1.8"/>
</g>
<!-- 17&#45;&#45;18 -->
<g id="edge49" class="edge">
<title>17&#45;&#45;18</title>
<path fill="none" stroke="black" stroke-width="0.75" d="M34.13,-318.53C46.17,-322.66 110.82,-344.79 122.83,-348.9"/>
</g>
<!-- 18&#45;&#45;42 -->
<g id="edge53" class="edge">
<title>18&#45;&#45;42</title>
<path fill="none" stroke="black" stroke-width="0.75" d="M126.18,-347.78C135.04,-336.66 182.6,-277 191.43,-265.91"/>
</g>
<!-- 19 -->
<g id="node41" class="node">
<title>19</title>
<ellipse fill="black" stroke="black" cx="215.47" cy="-363.75" rx="1.8" ry="1.8"/>
</g>
<!-- 18&#45;&#45;19 -->
<g id="edge52" class="edge">
<title>18&#45;&#45;19</title>
<path fill="none" stroke="black" stroke-width="0.75" d="M127,-349.91C139.55,-351.88 200.96,-361.48 213.31,-363.42"/>
</g>
<!-- 19&#45;&#45;43 -->
<g id="edge56" class="edge">
<title>19&#45;&#45;43</title>
<path fill="none" stroke="black" stroke-width="0.75" d="M217.32,-363.12C230.23,-358.67 306.88,-332.25 319.95,-327.74"/>
</g>
<!-- 20 -->
<g id="node43" class="node">
<title>20</title>
<ellipse fill="black" stroke="black" cx="167.59" cy="-295.97" rx="1.8" ry="1.8"/>
</g>
<!-- 19&#45;&#45;20 -->
<g id="edge55" class="edge">
<title>19&#45;&#45;20</title>
<path fill="none" stroke="black" stroke-width="0.75" d="M214.29,-362.08C207.72,-352.78 175.81,-307.61 168.91,-297.84"/>
</g>
<!-- 20&#45;&#45;44 -->
<g id="edge59" class="edge">
<title>20&#45;&#45;44</title>
<path fill="none" stroke="black" stroke-width="0.75" d="M169.62,-295.69C182.24,-293.91 250.01,-284.37 262.6,-282.6"/>
</g>
<!-- 21 -->
<g id="node45" class="node">
<title>21</title>
<ellipse fill="black" stroke="black" cx="92.21" cy="-209.34" rx="1.8" ry="1.8"/>
</g>
<!-- 20&#45;&#45;21 -->
<g id="edge58" class="edge">
<title>20&#45;&#45;21</title>
<path fill="none" stroke="black" stroke-width="0.75" d="M166.28,-294.47C157.13,-283.95 102.82,-221.54 93.55,-210.89"/>
</g>
<!-- 21&#45;&#45;45 -->
<g id="edge62" class="edge">
<title>21&#45;&#45;45</title>
<path fill="none" stroke="black" stroke-width="0.75" d="M90.88,-208.12C83.48,-201.32 47.55,-168.29 39.78,-161.14"/>
</g>
<!-- 22 -->
<g id="node46" class="node">
<title>22</title>
<ellipse fill="black" stroke="black" cx="114.21" cy="-127.06" rx="1.8" ry="1.8"/>
</g>
<!-- 21&#45;&#45;22 -->
<g id="edge61" class="edge">
<title>21&#45;&#45;22</title>
<path fill="none" stroke="black" stroke-width="0.75" d="M92.75,-207.31C95.8,-195.93 110.69,-140.22 113.68,-129.02"/>
</g>
<!-- 22&#45;&#45;46 -->
<g id="edge65" class="edge">
<title>22&#45;&#45;46</title>
<path fill="none" stroke="black" stroke-width="0.75" d="M112.2,-126.43C102.05,-123.22 56.44,-108.8 46.59,-105.69"/>
</g>
<!-- 23 -->
<g id="node47" class="node">
<title>23</title>
<ellipse fill="black" stroke="black" cx="218.75" cy="-116.16" rx="1.8" ry="1.8"/>
</g>
<!-- 22&#45;&#45;23 -->
<g id="edge64" class="edge">
<title>22&#45;&#45;23</title>
<path fill="none" stroke="black" stroke-width="0.75" d="M116.39,-126.83C130,-125.41 203.01,-117.8 216.58,-116.38"/>
</g>
<!-- 23&#45;&#45;47 -->
<g id="edge68" class="edge">
<title>23&#45;&#45;47</title>
<path fill="none" stroke="black" stroke-width="0.75" d="M219.83,-118.08C225.83,-128.83 255.21,-181.45 261.12,-192.03"/>
</g>
<!-- 23&#45;&#45;24 -->
<g id="edge67" class="edge">
<title>23&#45;&#45;24</title>
<path fill="none" stroke="black" stroke-width="0.75" d="M220.97,-116.2C234.8,-116.49 309.01,-118.05 322.81,-118.34"/>
</g>
<!-- 24&#45;&#45;48 -->
<g id="edge71" class="edge">
<title>24&#45;&#45;48</title>
<path fill="none" stroke="black" stroke-width="0.75" d="M325.89,-120.19C331.98,-132.79 368.15,-207.58 374.32,-220.35"/>
</g>
</g>
</svg>
