<?xml version="1.0" encoding="UTF-8" standalone="no"?>
<!DOCTYPE svg PUBLIC "-//W3C//DTD SVG 1.1//EN"
 "http://www.w3.org/Graphics/SVG/1.1/DTD/svg11.dtd">
<!-- Generated by graphviz version 12.0.0 (0)
 -->
<!-- Pages: 1 -->
<svg width="52pt" height="54pt"
 viewBox="0.00 0.00 52.12 54.00" xmlns="http://www.w3.org/2000/svg" xmlns:xlink="http://www.w3.org/1999/xlink">
<g id="graph0" class="graph" transform="scale(0.216337 0.216337) rotate(0) translate(4 245.61)">
<!-- 1 -->
<g id="node1" class="node">
<title>1</title>
<ellipse fill="black" stroke="black" cx="35.72" cy="-94.44" rx="1.8" ry="1.8"/>
</g>
<!-- 2 -->
<g id="node2" class="node">
<title>2</title>
<ellipse fill="black" stroke="black" cx="129.11" cy="-112.3" rx="1.8" ry="1.8"/>
</g>
<!-- 1&#45;&#45;2 -->
<g id="edge1" class="edge">
<title>1&#45;&#45;2</title>
<path fill="none" stroke="black" stroke-width="0.75" d="M37.67,-94.82C49.83,-97.14 115.05,-109.61 127.17,-111.93"/>
</g>
<!-- 7 -->
<g id="node3" class="node">
<title>7</title>
<ellipse fill="black" stroke="black" cx="1.8" cy="-173.09" rx="1.8" ry="1.8"/>
</g>
<!-- 1&#45;&#45;7 -->
<g id="edge2" class="edge">
<title>1&#45;&#45;7</title>
<path fill="none" stroke="black" stroke-width="0.75" d="M34.88,-96.39C30.19,-107.27 7.23,-160.51 2.61,-171.22"/>
</g>
<!-- 6 -->
<g id="node12" class="node">
<title>6</title>
<ellipse fill="black" stroke="black" cx="81.25" cy="-40.74" rx="1.8" ry="1.8"/>
</g>
<!-- 1&#45;&#45;6 -->
<g id="edge16" class="edge">
<title>1&#45;&#45;6</title>
<path fill="none" stroke="black" stroke-width="0.75" d="M36.85,-93.12C43.09,-85.75 73.43,-49.96 79.99,-42.22"/>
</g>
<!-- 3 -->
<g id="node5" class="node">
<title>3</title>
<ellipse fill="black" stroke="black" cx="151.67" cy="-200.87" rx="1.8" ry="1.8"/>
</g>
<!-- 2&#45;&#45;3 -->
<g id="edge4" class="edge">
<title>2&#45;&#45;3</title>
<path fill="none" stroke="black" stroke-width="0.75" d="M129.67,-114.49C132.79,-126.74 148.06,-186.7 151.13,-198.75"/>
</g>
<!-- 8 -->
<g id="node6" class="node">
<title>8</title>
<ellipse fill="black" stroke="black" cx="183" cy="-48.31" rx="1.8" ry="1.8"/>
</g>
<!-- 2&#45;&#45;8 -->
<g id="edge5" class="edge">
<title>2&#45;&#45;8</title>
<path fill="none" stroke="black" stroke-width="0.75" d="M130.45,-110.72C137.97,-101.79 175.02,-57.79 181.9,-49.61"/>
</g>
<!-- 9 -->
<g id="node4" class="node">
<title>9</title>
<ellipse fill="black" stroke="black" cx="75.55" cy="-239.81" rx="1.8" ry="1.8"/>
</g>
<!-- 7&#45;&#45;9 -->
<g id="edge3" class="edge">
<title>7&#45;&#45;9</title>
<path fill="none" stroke="black" stroke-width="0.75" d="M3.34,-174.49C12.94,-183.17 64.45,-229.76 74.02,-238.42"/>
</g>
<!-- 11 -->
<g id="node9" class="node">
<title>11</title>
<ellipse fill="black" stroke="black" cx="49.92" cy="-193.3" rx="1.8" ry="1.8"/>
</g>
<!-- 7&#45;&#45;11 -->
<g id="edge15" class="edge">
<title>7&#45;&#45;11</title>
<path fill="none" stroke="black" stroke-width="0.75" d="M3.87,-173.96C11.78,-177.28 40.11,-189.18 47.91,-192.46"/>
</g>
<!-- 9&#45;&#45;11 -->
<g id="edge9" class="edge">
<title>9&#45;&#45;11</title>
<path fill="none" stroke="black" stroke-width="0.75" d="M74.45,-237.81C70.24,-230.16 55.15,-202.79 50.99,-195.24"/>
</g>
<!-- 3&#45;&#45;9 -->
<g id="edge8" class="edge">
<title>3&#45;&#45;9</title>
<path fill="none" stroke="black" stroke-width="0.75" d="M149.79,-201.83C139.26,-207.22 87.73,-233.58 77.37,-238.88"/>
</g>
<!-- 4 -->
<g id="node8" class="node">
<title>4</title>
<ellipse fill="black" stroke="black" cx="197.2" cy="-147.17" rx="1.8" ry="1.8"/>
</g>
<!-- 3&#45;&#45;4 -->
<g id="edge7" class="edge">
<title>3&#45;&#45;4</title>
<path fill="none" stroke="black" stroke-width="0.75" d="M152.8,-199.54C159.04,-192.17 189.38,-156.38 195.95,-148.64"/>
</g>
<!-- 10 -->
<g id="node7" class="node">
<title>10</title>
<ellipse fill="black" stroke="black" cx="231.12" cy="-68.52" rx="1.8" ry="1.8"/>
</g>
<!-- 8&#45;&#45;10 -->
<g id="edge6" class="edge">
<title>8&#45;&#45;10</title>
<path fill="none" stroke="black" stroke-width="0.75" d="M185.07,-49.18C192.98,-52.5 221.3,-64.4 229.11,-67.68"/>
</g>
<!-- 12 -->
<g id="node11" class="node">
<title>12</title>
<ellipse fill="black" stroke="black" cx="157.37" cy="-1.8" rx="1.8" ry="1.8"/>
</g>
<!-- 8&#45;&#45;12 -->
<g id="edge18" class="edge">
<title>8&#45;&#45;12</title>
<path fill="none" stroke="black" stroke-width="0.75" d="M181.9,-46.31C177.68,-38.66 162.6,-11.29 158.44,-3.74"/>
</g>
<!-- 10&#45;&#45;12 -->
<g id="edge12" class="edge">
<title>10&#45;&#45;12</title>
<path fill="none" stroke="black" stroke-width="0.75" d="M229.58,-67.13C219.98,-58.44 168.47,-11.85 158.9,-3.19"/>
</g>
<!-- 4&#45;&#45;10 -->
<g id="edge11" class="edge">
<title>4&#45;&#45;10</title>
<path fill="none" stroke="black" stroke-width="0.75" d="M198.04,-145.22C202.73,-134.34 225.69,-81.1 230.31,-70.4"/>
</g>
<!-- 5 -->
<g id="node10" class="node">
<title>5</title>
<ellipse fill="black" stroke="black" cx="103.81" cy="-129.31" rx="1.8" ry="1.8"/>
</g>
<!-- 4&#45;&#45;5 -->
<g id="edge10" class="edge">
<title>4&#45;&#45;5</title>
<path fill="none" stroke="black" stroke-width="0.75" d="M195.25,-146.79C183.09,-144.47 117.87,-132 105.75,-129.68"/>
</g>
<!-- 5&#45;&#45;11 -->
<g id="edge14" class="edge">
<title>5&#45;&#45;11</title>
<path fill="none" stroke="black" stroke-width="0.75" d="M102.47,-130.89C94.95,-139.82 57.9,-183.82 51.02,-191.99"/>
</g>
<!-- 5&#45;&#45;6 -->
<g id="edge13" class="edge">
<title>5&#45;&#45;6</title>
<path fill="none" stroke="black" stroke-width="0.75" d="M103.25,-127.12C100.13,-114.87 84.86,-54.91 81.79,-42.86"/>
</g>
<!-- 6&#45;&#45;12 -->
<g id="edge17" class="edge">
<title>6&#45;&#45;12</title>
<path fill="none" stroke="black" stroke-width="0.75" d="M83.13,-39.78C93.66,-34.39 145.19,-8.03 155.55,-2.73"/>
</g>
</g>
</svg>
