<svg xmlns="http://www.w3.org/2000/svg" width="161.8" height="100.0" viewBox="-3.43 -5.00 171.80 110.00">
<g fill="none" stroke="black" stroke-width="0.0450%" transform="translate(0, 100.0000) scale(11.1111, -11.1111)">
<circle cx="0.14" cy="7.00" r="0.04" />
<circle cx="0.28" cy="8.00" r="0.04" />
<circle cx="0.42" cy="5.00" r="0.04" />
<circle cx="0.57" cy="3.00" r="0.04" />
<circle cx="0.71" cy="9.00" r="0.04" />
<circle cx="0.85" cy="8.00" r="0.04" />
<circle cx="0.99" cy="1.00" r="0.04" />
<circle cx="1.13" cy="6.00" r="0.04" />
<circle cx="1.27" cy="3.00" r="0.04" />
<circle cx="1.41" cy="3.00" r="0.04" />
<circle cx="1.56" cy="9.00" r="0.04" />
<circle cx="1.70" cy="7.00" r="0.04" />
<circle cx="1.84" cy="4.00" r="0.04" />
<circle cx="1.98" cy="4.00" r="0.04" />
<circle cx="2.12" cy="8.00" r="0.04" />
<circle cx="2.26" cy="3.00" r="0.04" />
<circle cx="2.40" cy="0.00" r="0.04" />
<circle cx="2.54" cy="9.00" r="0.04" />
<circle cx="2.69" cy="6.00" r="0.04" />
<circle cx="2.83" cy="1.00" r="0.04" />
<circle cx="2.97" cy="5.00" r="0.04" />
<circle cx="3.11" cy="6.00" r="0.04" />
<circle cx="3.25" cy="6.00" r="0.04" />
<circle cx="3.39" cy="0.00" r="0.04" />
<circle cx="3.53" cy="8.00" r="0.04" />
<circle cx="3.68" cy="4.00" r="0.04" />
<circle cx="3.82" cy="5.00" r="0.04" />
<circle cx="3.96" cy="8.00" r="0.04" />
<circle cx="4.10" cy="1.00" r="0.04" />
<circle cx="4.24" cy="9.00" r="0.04" />
<circle cx="4.38" cy="8.00" r="0.04" />
<circle cx="4.52" cy="7.00" r="0.04" />
<circle cx="4.67" cy="5.00" r="0.04" />
<circle cx="4.81" cy="7.00" r="0.04" />
<circle cx="4.95" cy="2.00" r="0.04" />
<circle cx="5.09" cy="1.00" r="0.04" />
<circle cx="5.23" cy="0.00" r="0.04" />
<circle cx="5.37" cy="4.00" r="0.04" />
<circle cx="5.51" cy="9.00" r="0.04" />
<circle cx="5.66" cy="2.00" r="0.04" />
<circle cx="5.80" cy="9.00" r="0.04" />
<circle cx="5.94" cy="2.00" r="0.04" />
<circle cx="6.08" cy="3.00" r="0.04" />
<circle cx="6.22" cy="4.00" r="0.04" />
<circle cx="6.36" cy="9.00" r="0.04" />
<circle cx="6.50" cy="8.00" r="0.04" />
<circle cx="6.64" cy="4.00" r="0.04" />
<circle cx="6.79" cy="3.00" r="0.04" />
<circle cx="6.93" cy="7.00" r="0.04" />
<circle cx="7.07" cy="7.00" r="0.04" />
<circle cx="7.21" cy="6.00" r="0.04" />
<circle cx="7.35" cy="4.00" r="0.04" />
<circle cx="7.49" cy="5.00" r="0.04" />
<circle cx="7.63" cy="5.00" r="0.04" />
<circle cx="7.78" cy="2.00" r="0.04" />
<circle cx="7.92" cy="4.00" r="0.04" />
<circle cx="8.06" cy="3.00" r="0.04" />
<circle cx="8.20" cy="7.00" r="0.04" />
<circle cx="8.34" cy="3.00" r="0.04" />
<circle cx="8.48" cy="6.00" r="0.04" />
<circle cx="8.62" cy="1.00" r="0.04" />
<circle cx="8.77" cy="4.00" r="0.04" />
<circle cx="8.91" cy="8.00" r="0.04" />
<circle cx="9.05" cy="0.00" r="0.04" />
<circle cx="9.19" cy="7.00" r="0.04" />
<circle cx="9.33" cy="6.00" r="0.04" />
<circle cx="9.47" cy="9.00" r="0.04" />
<circle cx="9.61" cy="5.00" r="0.04" />
<circle cx="9.76" cy="4.00" r="0.04" />
<circle cx="9.90" cy="1.00" r="0.04" />
<circle cx="10.04" cy="0.00" r="0.04" />
<circle cx="10.18" cy="1.00" r="0.04" />
<circle cx="10.32" cy="5.00" r="0.04" />
<circle cx="10.46" cy="7.00" r="0.04" />
<circle cx="10.60" cy="1.00" r="0.04" />
<circle cx="10.75" cy="5.00" r="0.04" />
<circle cx="10.89" cy="5.00" r="0.04" />
<circle cx="11.03" cy="2.00" r="0.04" />
<circle cx="11.17" cy="2.00" r="0.04" />
<circle cx="11.31" cy="4.00" r="0.04" />
<circle cx="11.45" cy="9.00" r="0.04" />
<circle cx="11.59" cy="6.00" r="0.04" />
<circle cx="11.73" cy="5.00" r="0.04" />
<circle cx="11.88" cy="7.00" r="0.04" />
<circle cx="12.02" cy="0.00" r="0.04" />
<circle cx="12.16" cy="0.00" r="0.04" />
<circle cx="12.30" cy="8.00" r="0.04" />
<circle cx="12.44" cy="7.00" r="0.04" />
<circle cx="12.58" cy="0.00" r="0.04" />
<circle cx="12.72" cy="6.00" r="0.04" />
<circle cx="12.87" cy="3.00" r="0.04" />
<circle cx="13.01" cy="3.00" r="0.04" />
<circle cx="13.15" cy="5.00" r="0.04" />
<circle cx="13.29" cy="5.00" r="0.04" />
<circle cx="13.43" cy="2.00" r="0.04" />
<circle cx="13.57" cy="9.00" r="0.04" />
<circle cx="13.71" cy="2.00" r="0.04" />
<circle cx="13.86" cy="6.00" r="0.04" />
<circle cx="14.00" cy="6.00" r="0.04" />
<circle cx="14.14" cy="9.00" r="0.04" />
<circle cx="14.28" cy="9.00" r="0.04" />
<circle cx="14.42" cy="5.00" r="0.04" />
<circle cx="14.56" cy="5.00" r="0.04" />
<circle cx="14.70" cy="3.00" r="0.04" />
</g>
</svg>