<svg xmlns="http://www.w3.org/2000/svg" width="100.0" height="100.0" viewBox="-55.0 -55.0 110.0 110.0">
<g fill="none" stroke="black" stroke-width="1.0000%" transform="translate(0, 0.0013) scale(0.5000, -0.5000)">
<g fill="rgb(120,27,134)" ><path d="M 0.0,0.0 A 0.0 0.0 0.0 0 1 0.0,0.0 L 37.0,-92.9 A 100.0 100.0 0.0 0 0 -100.0,0.0 Z" /></g>
<g fill="rgb(68,124,205)" ><path d="M 0.0,0.0 A 0.0 0.0 0.0 0 1 0.0,0.0 L 94.8,-31.9 A 100.0 100.0 0.0 0 0 37.0,-92.9 Z" /></g>
<g fill="rgb(131,186,112)" ><path d="M 0.0,0.0 A 0.0 0.0 0.0 0 1 0.0,0.0 L 72.6,68.8 A 100.0 100.0 0.0 0 0 94.8,-31.9 Z" /></g>
<g fill="rgb(221,171,60)" ><path d="M 0.0,0.0 A 0.0 0.0 0.0 0 1 0.0,0.0 L 16.2,98.7 A 100.0 100.0 0.0 0 0 72.6,68.8 Z" /></g>
<g fill="rgb(219,33,33)" ><path d="M 0.0,0.0 A 0.0 0.0 0.0 0 1 0.0,0.0 L -100.0,0.0 A 100.0 100.0 0.0 0 0 16.2,98.7 Z" /></g>
</g>
</svg>