<svg xmlns="http://www.w3.org/2000/svg" width="100.0" height="100.0" viewBox="-55.00 -5.00 110.00 110.00">
<g fill="none" stroke="black" stroke-width="0.0200%" transform="translate(0, 100.0000) scale(25.0000, -25.0000)">
<circle cx="0.00" cy="4.00" r="0.02" />
<polyline points="-2.00,4.00 -1.96,3.84 -1.92,3.69 -1.88,3.53 -1.84,3.39 -1.80,3.24 -1.76,3.10 -1.72,2.96 -1.68,2.82 -1.64,2.69 -1.60,2.56 -1.56,2.43 -1.52,2.31 -1.48,2.19 -1.44,2.07 -1.40,1.96 -1.36,1.85 -1.32,1.74 -1.28,1.64 -1.24,1.54 -1.20,1.44 -1.16,1.35 -1.12,1.25 -1.08,1.17 -1.04,1.08 -1.00,1.00 -0.96,0.92 -0.92,0.85 -0.88,0.77 -0.84,0.71 -0.80,0.64 -0.76,0.58 -0.72,0.52 -0.68,0.46 -0.64,0.41 -0.60,0.36 -0.56,0.31 -0.52,0.27 -0.48,0.23 -0.44,0.19 -0.40,0.16 -0.36,0.13 -0.32,0.10 -0.28,0.08 -0.24,0.06 -0.20,0.04 -0.16,0.03 -0.12,0.01 -0.08,0.01 -0.04,0.00 0.00,0.00 0.04,0.04 0.08,0.08 0.12,0.12 0.16,0.16 0.20,0.20 0.24,0.24 0.28,0.28 0.32,0.32 0.36,0.36 0.40,0.40 0.44,0.44 0.48,0.48 0.52,0.52 0.56,0.56 0.60,0.60 0.64,0.64 0.68,0.68 0.72,0.72 0.76,0.76 0.80,0.80 0.84,0.84 0.88,0.88 0.92,0.92 0.96,0.96 1.00,1.00 1.04,1.04 1.08,1.08 1.12,1.12 1.16,1.16 1.20,1.20 1.24,1.24 1.28,1.28 1.32,1.32 1.36,1.36 1.40,1.40 1.44,1.44 1.48,1.48 1.52,1.52 1.56,1.56 1.60,1.60 1.64,1.64 1.68,1.68 1.72,1.72 1.76,1.76 1.80,1.80 1.84,1.84 1.88,1.88 1.92,1.92 1.96,1.96 2.00,2.00" />
</g>
</svg>