<svg xmlns="http://www.w3.org/2000/svg" width="100.0" height="100.0" viewBox="-55.0 -55.0 110.0 110.0">
<g fill="none" stroke="black" stroke-width="1.0000%" transform="translate(0, 0.0011) scale(0.5000, -0.5000)">
<g fill="rgb(120,27,134)" ><path d="M 0.0,0.0 A 0.0 0.0 0.0 0 1 0.0,0.0 L 50.0,-86.6 A 100.0 100.0 0.0 0 0 -100.0,0.0 Z" /></g>
<g fill="rgb(68,124,205)" ><path d="M 0.0,0.0 A 0.0 0.0 0.0 0 1 0.0,0.0 L 80.9,58.8 A 100.0 100.0 0.0 0 0 50.0,-86.6 Z" /></g>
<g fill="rgb(131,186,112)" ><path d="M 0.0,0.0 A 0.0 0.0 0.0 0 1 0.0,0.0 L -30.9,95.1 A 100.0 100.0 0.0 0 0 80.9,58.8 Z" /></g>
<g fill="rgb(221,171,60)" ><path d="M 0.0,0.0 A 0.0 0.0 0.0 0 1 0.0,0.0 L -91.4,40.7 A 100.0 100.0 0.0 0 0 -30.9,95.1 Z" /></g>
<g fill="rgb(219,33,33)" ><path d="M 0.0,0.0 A 0.0 0.0 0.0 0 1 0.0,0.0 L -100.0,0.0 A 100.0 100.0 0.0 0 0 -91.4,40.7 Z" /></g>
</g>
</svg>