<svg xmlns="http://www.w3.org/2000/svg" width="100.0" height="100.0" viewBox="-55.0 -55.0 110.0 110.0">
<g fill="none" stroke="black" stroke-width="1.0000%" transform="translate(0, -0.0009) scale(0.5000, -0.5000)">
<g fill="rgb(120,27,134)" ><path d="M 0.0,0.0 A 0.0 0.0 0.0 0 1 0.0,0.0 L -26.1,-96.5 A 100.0 100.0 0.0 0 0 -100.0,0.0 Z" /></g>
<g fill="rgb(63,98,208)" ><path d="M 0.0,0.0 A 0.0 0.0 0.0 0 1 0.0,0.0 L 49.8,-86.7 A 100.0 100.0 0.0 0 0 -26.1,-96.5 Z" /></g>
<g fill="rgb(99,172,154)" ><path d="M 0.0,0.0 A 0.0 0.0 0.0 0 1 0.0,0.0 L 96.0,-27.9 A 100.0 100.0 0.0 0 0 49.8,-86.7 Z" /></g>
<g fill="rgb(170,190,82)" ><path d="M 0.0,0.0 A 0.0 0.0 0.0 0 1 0.0,0.0 L 97.0,-24.3 A 100.0 100.0 0.0 0 0 96.0,-27.9 Z" /></g>
<g fill="rgb(228,153,56)" ><path d="M 0.0,0.0 A 0.0 0.0 0.0 0 1 0.0,0.0 L 0.6,100.0 A 100.0 100.0 0.0 0 0 97.0,-24.3 Z" /></g>
<g fill="rgb(219,33,33)" ><path d="M 0.0,0.0 A 0.0 0.0 0.0 0 1 0.0,0.0 L -100.0,0.0 A 100.0 100.0 0.0 0 0 0.6,100.0 Z" /></g>
</g>
</svg>