<svg xmlns="http://www.w3.org/2000/svg" width="161.8" height="100.0" viewBox="-4.31 -5.00 171.80 110.00">
<g fill="none" stroke="black" stroke-width="0.0600%" transform="translate(0, 100.0000) scale(8.3333, -8.3333)">
<circle cx="0.08" cy="0.00" r="0.06" />
<circle cx="0.17" cy="0.00" r="0.06" />
<circle cx="0.25" cy="1.00" r="0.06" />
<circle cx="0.33" cy="1.00" r="0.06" />
<circle cx="0.41" cy="0.00" r="0.06" />
<circle cx="0.50" cy="1.00" r="0.06" />
<circle cx="0.58" cy="1.00" r="0.06" />
<circle cx="0.66" cy="2.00" r="0.06" />
<circle cx="0.74" cy="0.00" r="0.06" />
<circle cx="0.83" cy="2.00" r="0.06" />
<circle cx="0.91" cy="2.00" r="0.06" />
<circle cx="0.99" cy="1.00" r="0.06" />
<circle cx="1.07" cy="0.00" r="0.06" />
<circle cx="1.16" cy="1.00" r="0.06" />
<circle cx="1.24" cy="1.00" r="0.06" />
<circle cx="1.32" cy="2.00" r="0.06" />
<circle cx="1.40" cy="3.00" r="0.06" />
<circle cx="1.49" cy="1.00" r="0.06" />
<circle cx="1.57" cy="0.00" r="0.06" />
<circle cx="1.65" cy="1.00" r="0.06" />
<circle cx="1.74" cy="1.00" r="0.06" />
<circle cx="1.82" cy="2.00" r="0.06" />
<circle cx="1.90" cy="3.00" r="0.06" />
<circle cx="1.98" cy="0.00" r="0.06" />
<circle cx="2.07" cy="3.00" r="0.06" />
<circle cx="2.15" cy="3.00" r="0.06" />
<circle cx="2.23" cy="1.00" r="0.06" />
<circle cx="2.31" cy="4.00" r="0.06" />
<circle cx="2.40" cy="0.00" r="0.06" />
<circle cx="2.48" cy="4.00" r="0.06" />
<circle cx="2.56" cy="4.00" r="0.06" />
<circle cx="2.64" cy="3.00" r="0.06" />
<circle cx="2.73" cy="2.00" r="0.06" />
<circle cx="2.81" cy="0.00" r="0.06" />
<circle cx="2.89" cy="2.00" r="0.06" />
<circle cx="2.97" cy="2.00" r="0.06" />
<circle cx="3.06" cy="4.00" r="0.06" />
<circle cx="3.14" cy="1.00" r="0.06" />
<circle cx="3.22" cy="0.00" r="0.06" />
<circle cx="3.30" cy="1.00" r="0.06" />
<circle cx="3.39" cy="1.00" r="0.06" />
<circle cx="3.47" cy="2.00" r="0.06" />
<circle cx="3.55" cy="3.00" r="0.06" />
<circle cx="3.64" cy="5.00" r="0.06" />
<circle cx="3.72" cy="2.00" r="0.06" />
<circle cx="3.80" cy="1.00" r="0.06" />
<circle cx="3.88" cy="3.00" r="0.06" />
<circle cx="3.97" cy="4.00" r="0.06" />
<circle cx="4.05" cy="1.00" r="0.06" />
<circle cx="4.13" cy="5.00" r="0.06" />
<circle cx="4.21" cy="0.00" r="0.06" />
<circle cx="4.30" cy="5.00" r="0.06" />
<circle cx="4.38" cy="5.00" r="0.06" />
<circle cx="4.46" cy="4.00" r="0.06" />
<circle cx="4.54" cy="3.00" r="0.06" />
<circle cx="4.63" cy="1.00" r="0.06" />
<circle cx="4.71" cy="4.00" r="0.06" />
<circle cx="4.79" cy="5.00" r="0.06" />
<circle cx="4.87" cy="3.00" r="0.06" />
<circle cx="4.96" cy="2.00" r="0.06" />
<circle cx="5.04" cy="5.00" r="0.06" />
<circle cx="5.12" cy="1.00" r="0.06" />
<circle cx="5.21" cy="0.00" r="0.06" />
<circle cx="5.29" cy="1.00" r="0.06" />
<circle cx="5.37" cy="1.00" r="0.06" />
<circle cx="5.45" cy="2.00" r="0.06" />
<circle cx="5.54" cy="3.00" r="0.06" />
<circle cx="5.62" cy="5.00" r="0.06" />
<circle cx="5.70" cy="1.00" r="0.06" />
<circle cx="5.78" cy="6.00" r="0.06" />
<circle cx="5.87" cy="0.00" r="0.06" />
<circle cx="5.95" cy="6.00" r="0.06" />
<circle cx="6.03" cy="6.00" r="0.06" />
<circle cx="6.11" cy="5.00" r="0.06" />
<circle cx="6.20" cy="4.00" r="0.06" />
<circle cx="6.28" cy="2.00" r="0.06" />
<circle cx="6.36" cy="6.00" r="0.06" />
<circle cx="6.44" cy="1.00" r="0.06" />
<circle cx="6.53" cy="0.00" r="0.06" />
<circle cx="6.61" cy="1.00" r="0.06" />
<circle cx="6.69" cy="1.00" r="0.06" />
<circle cx="6.78" cy="2.00" r="0.06" />
<circle cx="6.86" cy="3.00" r="0.06" />
<circle cx="6.94" cy="5.00" r="0.06" />
<circle cx="7.02" cy="0.00" r="0.06" />
<circle cx="7.11" cy="5.00" r="0.06" />
<circle cx="7.19" cy="5.00" r="0.06" />
<circle cx="7.27" cy="2.00" r="0.06" />
<circle cx="7.35" cy="7.00" r="0.06" />
<circle cx="7.44" cy="1.00" r="0.06" />
<circle cx="7.52" cy="0.00" r="0.06" />
<circle cx="7.60" cy="1.00" r="0.06" />
<circle cx="7.68" cy="1.00" r="0.06" />
<circle cx="7.77" cy="2.00" r="0.06" />
<circle cx="7.85" cy="3.00" r="0.06" />
<circle cx="7.93" cy="5.00" r="0.06" />
<circle cx="8.01" cy="8.00" r="0.06" />
<circle cx="8.10" cy="4.00" r="0.06" />
<circle cx="8.18" cy="3.00" r="0.06" />
<circle cx="8.26" cy="7.00" r="0.06" />
<circle cx="8.34" cy="1.00" r="0.06" />
<circle cx="8.43" cy="8.00" r="0.06" />
<circle cx="8.51" cy="0.00" r="0.06" />
<circle cx="8.59" cy="8.00" r="0.06" />
<circle cx="8.68" cy="8.00" r="0.06" />
<circle cx="8.76" cy="7.00" r="0.06" />
<circle cx="8.84" cy="6.00" r="0.06" />
<circle cx="8.92" cy="4.00" r="0.06" />
<circle cx="9.01" cy="1.00" r="0.06" />
<circle cx="9.09" cy="5.00" r="0.06" />
<circle cx="9.17" cy="6.00" r="0.06" />
<circle cx="9.25" cy="2.00" r="0.06" />
<circle cx="9.34" cy="8.00" r="0.06" />
<circle cx="9.42" cy="1.00" r="0.06" />
<circle cx="9.50" cy="0.00" r="0.06" />
<circle cx="9.58" cy="1.00" r="0.06" />
<circle cx="9.67" cy="1.00" r="0.06" />
<circle cx="9.75" cy="2.00" r="0.06" />
<circle cx="9.83" cy="3.00" r="0.06" />
<circle cx="9.91" cy="5.00" r="0.06" />
<circle cx="10.00" cy="8.00" r="0.06" />
<circle cx="10.08" cy="3.00" r="0.06" />
<circle cx="10.16" cy="1.00" r="0.06" />
<circle cx="10.25" cy="4.00" r="0.06" />
<circle cx="10.33" cy="5.00" r="0.06" />
<circle cx="10.41" cy="9.00" r="0.06" />
<circle cx="10.49" cy="4.00" r="0.06" />
<circle cx="10.58" cy="3.00" r="0.06" />
<circle cx="10.66" cy="7.00" r="0.06" />
<circle cx="10.74" cy="0.00" r="0.06" />
<circle cx="10.82" cy="7.00" r="0.06" />
<circle cx="10.91" cy="7.00" r="0.06" />
<circle cx="10.99" cy="4.00" r="0.06" />
<circle cx="11.07" cy="1.00" r="0.06" />
<circle cx="11.15" cy="5.00" r="0.06" />
<circle cx="11.24" cy="6.00" r="0.06" />
<circle cx="11.32" cy="1.00" r="0.06" />
<circle cx="11.40" cy="7.00" r="0.06" />
<circle cx="11.48" cy="8.00" r="0.06" />
<circle cx="11.57" cy="5.00" r="0.06" />
<circle cx="11.65" cy="3.00" r="0.06" />
<circle cx="11.73" cy="8.00" r="0.06" />
<circle cx="11.82" cy="1.00" r="0.06" />
<circle cx="11.90" cy="9.00" r="0.06" />
<circle cx="11.98" cy="0.00" r="0.06" />
<circle cx="12.06" cy="9.00" r="0.06" />
<circle cx="12.15" cy="9.00" r="0.06" />
<circle cx="12.23" cy="8.00" r="0.06" />
<circle cx="12.31" cy="7.00" r="0.06" />
<circle cx="12.39" cy="5.00" r="0.06" />
<circle cx="12.48" cy="2.00" r="0.06" />
<circle cx="12.56" cy="7.00" r="0.06" />
<circle cx="12.64" cy="9.00" r="0.06" />
<circle cx="12.72" cy="6.00" r="0.06" />
<circle cx="12.81" cy="5.00" r="0.06" />
<circle cx="12.89" cy="1.00" r="0.06" />
<circle cx="12.97" cy="6.00" r="0.06" />
<circle cx="13.05" cy="7.00" r="0.06" />
<circle cx="13.14" cy="3.00" r="0.06" />
<circle cx="13.22" cy="0.00" r="0.06" />
<circle cx="13.30" cy="3.00" r="0.06" />
<circle cx="13.38" cy="3.00" r="0.06" />
<circle cx="13.47" cy="6.00" r="0.06" />
<circle cx="13.55" cy="9.00" r="0.06" />
<circle cx="13.63" cy="5.00" r="0.06" />
<circle cx="13.72" cy="4.00" r="0.06" />
<circle cx="13.80" cy="9.00" r="0.06" />
<circle cx="13.88" cy="3.00" r="0.06" />
<circle cx="13.96" cy="2.00" r="0.06" />
<circle cx="14.05" cy="5.00" r="0.06" />
<circle cx="14.13" cy="7.00" r="0.06" />
<circle cx="14.21" cy="2.00" r="0.06" />
<circle cx="14.29" cy="9.00" r="0.06" />
<circle cx="14.38" cy="1.00" r="0.06" />
<circle cx="14.46" cy="0.00" r="0.06" />
<circle cx="14.54" cy="1.00" r="0.06" />
<circle cx="14.62" cy="1.00" r="0.06" />
<circle cx="14.71" cy="2.00" r="0.06" />
<circle cx="14.79" cy="3.00" r="0.06" />
<circle cx="14.87" cy="5.00" r="0.06" />
<circle cx="14.95" cy="8.00" r="0.06" />
<circle cx="15.04" cy="2.00" r="0.06" />
<circle cx="15.12" cy="10.00" r="0.06" />
<circle cx="15.20" cy="1.00" r="0.06" />
<circle cx="15.29" cy="0.00" r="0.06" />
<circle cx="15.37" cy="1.00" r="0.06" />
<circle cx="15.45" cy="1.00" r="0.06" />
<circle cx="15.53" cy="2.00" r="0.06" />
<circle cx="15.62" cy="3.00" r="0.06" />
<circle cx="15.70" cy="5.00" r="0.06" />
<circle cx="15.78" cy="8.00" r="0.06" />
<circle cx="15.86" cy="1.00" r="0.06" />
<circle cx="15.95" cy="9.00" r="0.06" />
<circle cx="16.03" cy="10.00" r="0.06" />
<circle cx="16.11" cy="7.00" r="0.06" />
<circle cx="16.19" cy="5.00" r="0.06" />
<circle cx="16.28" cy="0.00" r="0.06" />
<circle cx="16.36" cy="5.00" r="0.06" />
<circle cx="16.44" cy="5.00" r="0.06" />
<circle cx="16.52" cy="10.00" r="0.06" />
<circle cx="16.61" cy="3.00" r="0.06" />
<circle cx="16.69" cy="1.00" r="0.06" />
<circle cx="16.77" cy="4.00" r="0.06" />
<circle cx="16.86" cy="5.00" r="0.06" />
<circle cx="16.94" cy="9.00" r="0.06" />
<circle cx="17.02" cy="2.00" r="0.06" />
<circle cx="17.10" cy="11.00" r="0.06" />
<circle cx="17.19" cy="1.00" r="0.06" />
<circle cx="17.27" cy="0.00" r="0.06" />
<circle cx="17.35" cy="1.00" r="0.06" />
<circle cx="17.43" cy="1.00" r="0.06" />
<circle cx="17.52" cy="2.00" r="0.06" />
<circle cx="17.60" cy="3.00" r="0.06" />
<circle cx="17.68" cy="5.00" r="0.06" />
<circle cx="17.76" cy="8.00" r="0.06" />
<circle cx="17.85" cy="0.00" r="0.06" />
<circle cx="17.93" cy="8.00" r="0.06" />
<circle cx="18.01" cy="8.00" r="0.06" />
<circle cx="18.09" cy="3.00" r="0.06" />
<circle cx="18.18" cy="11.00" r="0.06" />
<circle cx="18.26" cy="1.00" r="0.06" />
<circle cx="18.34" cy="12.00" r="0.06" />
<circle cx="18.42" cy="0.00" r="0.06" />
<circle cx="18.51" cy="12.00" r="0.06" />
<circle cx="18.59" cy="12.00" r="0.06" />
<circle cx="18.67" cy="11.00" r="0.06" />
<circle cx="18.76" cy="10.00" r="0.06" />
<circle cx="18.84" cy="8.00" r="0.06" />
<circle cx="18.92" cy="5.00" r="0.06" />
<circle cx="19.00" cy="0.00" r="0.06" />
<circle cx="19.09" cy="5.00" r="0.06" />
<circle cx="19.17" cy="5.00" r="0.06" />
<circle cx="19.25" cy="10.00" r="0.06" />
<circle cx="19.33" cy="2.00" r="0.06" />
<circle cx="19.42" cy="12.00" r="0.06" />
<circle cx="19.50" cy="1.00" r="0.06" />
</g>
</svg>