<svg xmlns="http://www.w3.org/2000/svg" width="161.8" height="100.0" viewBox="-3.9 -5.0 171.8 110.0">
<g fill="none" stroke="black" stroke-width="0.5950%" transform="translate(0, 100.0000) scale(0.8403, -0.8403)">


<line x1="3.8" y1="0.0" x2="3.8" y2="1.0" />

<line x1="6.3" y1="0.0" x2="6.3" y2="2.0" />
<line x1="7.6" y1="0.0" x2="7.6" y2="3.0" />
<line x1="8.9" y1="0.0" x2="8.9" y2="5.0" />
<line x1="10.1" y1="0.0" x2="10.1" y2="4.0" />
<line x1="11.4" y1="0.0" x2="11.4" y2="1.0" />

<line x1="13.9" y1="0.0" x2="13.9" y2="6.0" />
<line x1="15.2" y1="0.0" x2="15.2" y2="8.0" />
<line x1="16.5" y1="0.0" x2="16.5" y2="9.0" />
<line x1="17.7" y1="0.0" x2="17.7" y2="15.0" />
<line x1="19.0" y1="0.0" x2="19.0" y2="14.0" />
<line x1="20.3" y1="0.0" x2="20.3" y2="12.0" />
<line x1="21.5" y1="0.0" x2="21.5" y2="2.0" />
<line x1="22.8" y1="0.0" x2="22.8" y2="3.0" />
<line x1="24.1" y1="0.0" x2="24.1" y2="13.0" />
<line x1="25.3" y1="0.0" x2="25.3" y2="16.0" />
<line x1="26.6" y1="0.0" x2="26.6" y2="17.0" />
<line x1="27.9" y1="0.0" x2="27.9" y2="23.0" />
<line x1="29.1" y1="0.0" x2="29.1" y2="22.0" />
<line x1="30.4" y1="0.0" x2="30.4" y2="19.0" />
<line x1="31.7" y1="0.0" x2="31.7" y2="5.0" />
<line x1="32.9" y1="0.0" x2="32.9" y2="4.0" />
<line x1="34.2" y1="0.0" x2="34.2" y2="18.0" />
<line x1="35.5" y1="0.0" x2="35.5" y2="20.0" />
<line x1="36.7" y1="0.0" x2="36.7" y2="21.0" />
<line x1="38.0" y1="0.0" x2="38.0" y2="11.0" />
<line x1="39.3" y1="0.0" x2="39.3" y2="10.0" />
<line x1="40.5" y1="0.0" x2="40.5" y2="7.0" />
<line x1="41.8" y1="0.0" x2="41.8" y2="1.0" />

<line x1="44.3" y1="0.0" x2="44.3" y2="24.0" />
<line x1="45.6" y1="0.0" x2="45.6" y2="30.0" />
<line x1="46.9" y1="0.0" x2="46.9" y2="32.0" />
<line x1="48.1" y1="0.0" x2="48.1" y2="33.0" />
<line x1="49.4" y1="0.0" x2="49.4" y2="57.0" />
<line x1="50.7" y1="0.0" x2="50.7" y2="56.0" />
<line x1="51.9" y1="0.0" x2="51.9" y2="54.0" />
<line x1="53.2" y1="0.0" x2="53.2" y2="48.0" />
<line x1="54.5" y1="0.0" x2="54.5" y2="6.0" />
<line x1="55.7" y1="0.0" x2="55.7" y2="8.0" />
<line x1="57.0" y1="0.0" x2="57.0" y2="50.0" />
<line x1="58.3" y1="0.0" x2="58.3" y2="60.0" />
<line x1="59.5" y1="0.0" x2="59.5" y2="62.0" />
<line x1="60.8" y1="0.0" x2="60.8" y2="63.0" />
<line x1="62.1" y1="0.0" x2="62.1" y2="65.0" />
<line x1="63.3" y1="0.0" x2="63.3" y2="64.0" />
<line x1="64.6" y1="0.0" x2="64.6" y2="61.0" />
<line x1="65.9" y1="0.0" x2="65.9" y2="51.0" />
<line x1="67.1" y1="0.0" x2="67.1" y2="9.0" />
<line x1="68.4" y1="0.0" x2="68.4" y2="15.0" />
<line x1="69.7" y1="0.0" x2="69.7" y2="75.0" />
<line x1="70.9" y1="0.0" x2="70.9" y2="85.0" />
<line x1="72.2" y1="0.0" x2="72.2" y2="88.0" />
<line x1="73.5" y1="0.0" x2="73.5" y2="89.0" />
<line x1="74.7" y1="0.0" x2="74.7" y2="87.0" />
<line x1="76.0" y1="0.0" x2="76.0" y2="86.0" />
<line x1="77.3" y1="0.0" x2="77.3" y2="84.0" />
<line x1="78.5" y1="0.0" x2="78.5" y2="74.0" />
<line x1="79.8" y1="0.0" x2="79.8" y2="14.0" />
<line x1="81.1" y1="0.0" x2="81.1" y2="12.0" />
<line x1="82.3" y1="0.0" x2="82.3" y2="72.0" />
<line x1="83.6" y1="0.0" x2="83.6" y2="78.0" />
<line x1="84.9" y1="0.0" x2="84.9" y2="80.0" />
<line x1="86.1" y1="0.0" x2="86.1" y2="81.0" />
<line x1="87.4" y1="0.0" x2="87.4" y2="39.0" />
<line x1="88.7" y1="0.0" x2="88.7" y2="38.0" />
<line x1="89.9" y1="0.0" x2="89.9" y2="36.0" />
<line x1="91.2" y1="0.0" x2="91.2" y2="26.0" />
<line x1="92.5" y1="0.0" x2="92.5" y2="2.0" />
<line x1="93.7" y1="0.0" x2="93.7" y2="3.0" />
<line x1="95.0" y1="0.0" x2="95.0" y2="27.0" />
<line x1="96.3" y1="0.0" x2="96.3" y2="37.0" />
<line x1="97.5" y1="0.0" x2="97.5" y2="40.0" />
<line x1="98.8" y1="0.0" x2="98.8" y2="41.0" />
<line x1="100.1" y1="0.0" x2="100.1" y2="83.0" />
<line x1="101.3" y1="0.0" x2="101.3" y2="82.0" />
<line x1="102.6" y1="0.0" x2="102.6" y2="79.0" />
<line x1="103.9" y1="0.0" x2="103.9" y2="73.0" />
<line x1="105.1" y1="0.0" x2="105.1" y2="13.0" />
<line x1="106.4" y1="0.0" x2="106.4" y2="16.0" />
<line x1="107.7" y1="0.0" x2="107.7" y2="76.0" />
<line x1="108.9" y1="0.0" x2="108.9" y2="90.0" />
<line x1="110.2" y1="0.0" x2="110.2" y2="92.0" />
<line x1="111.5" y1="0.0" x2="111.5" y2="93.0" />
<line x1="112.7" y1="0.0" x2="112.7" y2="95.0" />
<line x1="114.0" y1="0.0" x2="114.0" y2="94.0" />
<line x1="115.3" y1="0.0" x2="115.3" y2="91.0" />
<line x1="116.5" y1="0.0" x2="116.5" y2="77.0" />
<line x1="117.8" y1="0.0" x2="117.8" y2="17.0" />
<line x1="119.1" y1="0.0" x2="119.1" y2="23.0" />
<line x1="120.3" y1="0.0" x2="120.3" y2="101.0" />
<line x1="121.6" y1="0.0" x2="121.6" y2="115.0" />
<line x1="122.9" y1="0.0" x2="122.9" y2="118.0" />
<line x1="124.1" y1="0.0" x2="124.1" y2="119.0" />
<line x1="125.4" y1="0.0" x2="125.4" y2="117.0" />
<line x1="126.7" y1="0.0" x2="126.7" y2="116.0" />
<line x1="127.9" y1="0.0" x2="127.9" y2="114.0" />
<line x1="129.2" y1="0.0" x2="129.2" y2="100.0" />
<line x1="130.5" y1="0.0" x2="130.5" y2="22.0" />
<line x1="131.7" y1="0.0" x2="131.7" y2="19.0" />
<line x1="133.0" y1="0.0" x2="133.0" y2="97.0" />
<line x1="134.3" y1="0.0" x2="134.3" y2="103.0" />
<line x1="135.5" y1="0.0" x2="135.5" y2="106.0" />
<line x1="136.8" y1="0.0" x2="136.8" y2="107.0" />
<line x1="138.1" y1="0.0" x2="138.1" y2="47.0" />
<line x1="139.3" y1="0.0" x2="139.3" y2="46.0" />
<line x1="140.6" y1="0.0" x2="140.6" y2="43.0" />
<line x1="141.9" y1="0.0" x2="141.9" y2="29.0" />
<line x1="143.1" y1="0.0" x2="143.1" y2="5.0" />
<line x1="144.4" y1="0.0" x2="144.4" y2="4.0" />
<line x1="145.7" y1="0.0" x2="145.7" y2="28.0" />
<line x1="146.9" y1="0.0" x2="146.9" y2="42.0" />
<line x1="148.2" y1="0.0" x2="148.2" y2="44.0" />
<line x1="149.5" y1="0.0" x2="149.5" y2="45.0" />
<line x1="150.7" y1="0.0" x2="150.7" y2="105.0" />
<line x1="152.0" y1="0.0" x2="152.0" y2="104.0" />
<line x1="153.3" y1="0.0" x2="153.3" y2="102.0" />
<line x1="154.5" y1="0.0" x2="154.5" y2="96.0" />
<line x1="155.8" y1="0.0" x2="155.8" y2="18.0" />
<line x1="157.1" y1="0.0" x2="157.1" y2="20.0" />
<line x1="158.3" y1="0.0" x2="158.3" y2="98.0" />
<line x1="159.6" y1="0.0" x2="159.6" y2="108.0" />
<line x1="160.9" y1="0.0" x2="160.9" y2="110.0" />
<line x1="162.1" y1="0.0" x2="162.1" y2="111.0" />
<line x1="163.4" y1="0.0" x2="163.4" y2="113.0" />
<line x1="164.7" y1="0.0" x2="164.7" y2="112.0" />
<line x1="165.9" y1="0.0" x2="165.9" y2="109.0" />
<line x1="167.2" y1="0.0" x2="167.2" y2="99.0" />
<line x1="168.5" y1="0.0" x2="168.5" y2="21.0" />
<line x1="169.7" y1="0.0" x2="169.7" y2="11.0" />
<line x1="171.0" y1="0.0" x2="171.0" y2="53.0" />
<line x1="172.3" y1="0.0" x2="172.3" y2="67.0" />
<line x1="173.5" y1="0.0" x2="173.5" y2="70.0" />
<line x1="174.8" y1="0.0" x2="174.8" y2="71.0" />
<line x1="176.1" y1="0.0" x2="176.1" y2="69.0" />
<line x1="177.3" y1="0.0" x2="177.3" y2="68.0" />
<line x1="178.6" y1="0.0" x2="178.6" y2="66.0" />
<line x1="179.9" y1="0.0" x2="179.9" y2="52.0" />
<line x1="181.1" y1="0.0" x2="181.1" y2="10.0" />
<line x1="182.4" y1="0.0" x2="182.4" y2="7.0" />
<line x1="183.7" y1="0.0" x2="183.7" y2="49.0" />
<line x1="184.9" y1="0.0" x2="184.9" y2="55.0" />
<line x1="186.2" y1="0.0" x2="186.2" y2="58.0" />
<line x1="187.5" y1="0.0" x2="187.5" y2="59.0" />
<line x1="188.7" y1="0.0" x2="188.7" y2="35.0" />
<line x1="190.0" y1="0.0" x2="190.0" y2="34.0" />
<line x1="191.3" y1="0.0" x2="191.3" y2="31.0" />
<line x1="192.5" y1="0.0" x2="192.5" y2="25.0" />
<line x1="193.8" y1="0.0" x2="193.8" y2="1.0" />
</g>
</svg>