<svg xmlns="http://www.w3.org/2000/svg" width="161.8" height="100.0" viewBox="-5.00 -5.00 171.80 110.00">
<g fill="none" stroke="black" stroke-width="0.0163%" transform="translate(0, 100.0000) scale(30.6333, -30.6333)">
<circle cx="0.00" cy="0.00" r="0.02" />
<circle cx="0.00" cy="3.26" r="0.02" />
<polyline points="0.00,0.00 0.05,0.00 0.11,0.00 0.16,0.01 0.21,0.18 0.26,0.70 0.32,1.49 0.37,2.27 0.42,2.84 0.48,3.16 0.53,3.26 0.58,3.21 0.63,3.05 0.69,2.83 0.74,2.59 0.79,2.34 0.85,2.11 0.90,1.89 0.95,1.69 1.00,1.51 1.06,1.34 1.11,1.20 1.16,1.07 1.21,0.96 1.27,0.86 1.32,0.77 1.37,0.69 1.43,0.62 1.48,0.56 1.53,0.51 1.58,0.46 1.64,0.42 1.69,0.38 1.74,0.35 1.80,0.32 1.85,0.29 1.90,0.26 1.95,0.24 2.01,0.22 2.06,0.20 2.11,0.19 2.17,0.17 2.22,0.16 2.27,0.15 2.32,0.14 2.38,0.13 2.43,0.12 2.48,0.11 2.54,0.10 2.59,0.10 2.64,0.09 2.69,0.08 2.75,0.08 2.80,0.07 2.85,0.07 2.91,0.06 2.96,0.06 3.01,0.06 3.06,0.05 3.12,0.05 3.17,0.05 3.22,0.04 3.27,0.04 3.33,0.04 3.38,0.04 3.43,0.04 3.49,0.03 3.54,0.03 3.59,0.03 3.64,0.03 3.70,0.03 3.75,0.03 3.80,0.02 3.86,0.02 3.91,0.02 3.96,0.02 4.01,0.02 4.07,0.02 4.12,0.02 4.17,0.02 4.23,0.02 4.28,0.02 4.33,0.02 4.38,0.01 4.44,0.01 4.49,0.01 4.54,0.01 4.60,0.01 4.65,0.01 4.70,0.01 4.75,0.01 4.81,0.01 4.86,0.01 4.91,0.01 4.97,0.01 5.02,0.01 5.07,0.01 5.12,0.01 5.18,0.01 5.23,0.01 5.28,0.01" />
</g>
</svg>