<svg xmlns="http://www.w3.org/2000/svg" width="95.1" height="100.0" viewBox="-47.530 -55.000 105.100 110.000">
<g fill="none" stroke="black" stroke-width="0.0095%" transform="translate(0, 0.0000) scale(52.5707, -52.5707)">
<polygon points="0.488,0.267 1.000,0.000 0.532,-0.006" />
<polygon points="1.000,0.000 0.488,0.267 0.309,0.951" />
<polygon points="0.488,0.267 0.532,-0.006 0.365,0.094" />
<polygon points="0.488,0.267 0.365,0.094 0.260,0.298" />
<polygon points="0.488,0.267 0.260,0.298 0.309,0.951" />
<polygon points="1.000,0.000 0.309,0.951 -0.809,0.588 -0.809,-0.588 0.309,-0.951" />
<polygon points="1.000,0.000 0.309,-0.951 0.481,-0.283" />
<polygon points="1.000,0.000 0.481,-0.283 0.532,-0.006" />
<polygon points="0.532,-0.006 0.481,-0.283 0.359,-0.106" />
<polygon points="0.532,-0.006 0.359,-0.106 0.365,0.094" />
<polygon points="0.365,0.094 0.359,-0.106 0.225,0.018" />
<polygon points="0.365,0.094 0.225,0.018 0.260,0.298" />
<polygon points="0.260,0.298 0.225,0.018 -0.062,0.163" />
<polygon points="0.260,0.298 -0.062,0.163 -0.256,0.417 0.309,0.951" />
<polygon points="0.309,0.951 -0.256,0.417 -0.809,0.588" />
<polygon points="0.309,-0.951 -0.809,-0.588 -0.194,-0.434" />
<polygon points="0.309,-0.951 -0.194,-0.434 0.231,-0.352" />
<polygon points="0.309,-0.951 0.231,-0.352 0.481,-0.283" />
<polygon points="0.481,-0.283 0.231,-0.352 0.359,-0.106" />
<polygon points="0.359,-0.106 0.231,-0.352 0.225,0.018" />
<polygon points="0.225,0.018 0.231,-0.352 -0.194,-0.434 -0.269,-0.063 -0.062,0.163" />
<polygon points="-0.062,0.163 -0.269,-0.063 -0.281,0.154" />
<polygon points="-0.062,0.163 -0.281,0.154 -0.256,0.417" />
<polygon points="-0.256,0.417 -0.281,0.154 -0.458,0.237" />
<polygon points="-0.256,0.417 -0.458,0.237 -0.809,0.588" />
<polygon points="-0.809,0.588 -0.458,0.237 -0.578,0.009" />
<polygon points="-0.809,0.588 -0.578,0.009 -0.809,-0.588" />
<polygon points="-0.809,-0.588 -0.578,0.009 -0.444,-0.212" />
<polygon points="-0.809,-0.588 -0.444,-0.212 -0.194,-0.434" />
<polygon points="-0.194,-0.434 -0.444,-0.212 -0.269,-0.063" />
<polygon points="-0.269,-0.063 -0.444,-0.212 -0.398,0.023" />
<polygon points="-0.269,-0.063 -0.398,0.023 -0.281,0.154" />
<polygon points="-0.281,0.154 -0.398,0.023 -0.458,0.237" />
<polygon points="-0.458,0.237 -0.398,0.023 -0.578,0.009" />
<polygon points="-0.578,0.009 -0.398,0.023 -0.444,-0.212" />
</g>
</svg>