<svg xmlns="http://www.w3.org/2000/svg" width="95.1" height="100.0" viewBox="-47.530 -55.000 105.100 110.000">
<g fill="none" stroke="black" stroke-width="0.0095%" transform="translate(0, 0.0000) scale(52.5707, -52.5707)">
<polygon points="0.202,0.045 1.000,0.000 0.309,-0.951" />
<polygon points="1.000,0.000 0.202,0.045 0.504,0.332" />
<polygon points="0.202,0.045 0.309,-0.951 -0.809,-0.588" />
<polygon points="0.202,0.045 -0.809,-0.588 -0.809,0.588 -0.099,0.528" />
<polygon points="0.202,0.045 -0.099,0.528 0.309,0.951" />
<polygon points="0.202,0.045 0.309,0.951 0.504,0.332" />
<polygon points="1.000,0.000 0.504,0.332 0.309,0.951" />
<polygon points="1.000,0.000 0.309,0.951 -0.809,0.588 -0.809,-0.588 0.309,-0.951" />
<polygon points="-0.099,0.528 -0.809,0.588 0.309,0.951" />
</g>
</svg>