<svg xmlns="http://www.w3.org/2000/svg" width="85.3" height="100.0" viewBox="-20.76 -55.00 95.31 110.00">
<g fill="none" stroke="black" stroke-width="0.0646%" transform="translate(0, 0.0000) scale(7.7344, -7.7344)">
<polyline points="1.00,0.00 0.99,0.13 0.96,0.25 0.91,0.37 0.84,0.48 0.76,0.58 0.66,0.66 0.55,0.73 0.42,0.79 0.29,0.82 0.15,0.84 0.01,0.84 -0.14,0.82 -0.28,0.77 -0.42,0.71 -0.55,0.63 -0.67,0.53 -0.78,0.41 -0.87,0.28 -0.95,0.14 -1.01,-0.02 -1.04,-0.18 -1.06,-0.35 -1.06,-0.51 -1.04,-0.68 -0.99,-0.85 -0.93,-1.01 -0.84,-1.16 -0.74,-1.29 -0.62,-1.42 -0.49,-1.52 -0.34,-1.61 -0.19,-1.68 -0.03,-1.73 0.14,-1.75 0.30,-1.75 0.46,-1.73 0.62,-1.69 0.77,-1.62 0.90,-1.54 1.02,-1.43 1.12,-1.31 1.21,-1.18 1.27,-1.03 1.30,-0.87 1.31,-0.71 1.29,-0.55 1.25,-0.40 1.18,-0.24 1.09,-0.10 0.97,0.03 0.82,0.14 0.66,0.24 0.47,0.31 0.27,0.35 0.06,0.37 -0.16,0.35 -0.39,0.30 -0.62,0.22 -0.85,0.10 -1.06,-0.05 -1.27,-0.23 -1.46,-0.45 -1.63,-0.70 -1.78,-0.98 -1.90,-1.29 -1.98,-1.62 -2.03,-1.97 -2.04,-2.33 -2.01,-2.71 -1.93,-3.10 -1.81,-3.49 -1.65,-3.87 -1.44,-4.25 -1.18,-4.61 -0.88,-4.96 -0.54,-5.28 -0.16,-5.57 0.26,-5.82 0.71,-6.04 1.20,-6.22 1.70,-6.35 2.23,-6.43 2.78,-6.46 3.33,-6.44 3.89,-6.36 4.45,-6.23 4.99,-6.04 5.53,-5.80 6.04,-5.50 6.53,-5.15 6.99,-4.75 7.41,-4.31 7.79,-3.82 8.12,-3.30 8.41,-2.75 8.64,-2.17 8.81,-1.56 8.93,-0.94 8.99,-0.32 8.99,0.32 8.93,0.94 8.81,1.56 8.64,2.17 8.41,2.75 8.12,3.30 7.79,3.82 7.41,4.31 6.99,4.75 6.53,5.15 6.04,5.50 5.53,5.80 4.99,6.04 4.45,6.23 3.89,6.36 3.33,6.44 2.78,6.46 2.23,6.43 1.70,6.35 1.20,6.22 0.71,6.04 0.26,5.82 -0.16,5.57 -0.54,5.28 -0.88,4.96 -1.18,4.61 -1.44,4.25 -1.65,3.87 -1.81,3.49 -1.93,3.10 -2.01,2.71 -2.04,2.33 -2.03,1.97 -1.98,1.62 -1.90,1.29 -1.78,0.98 -1.63,0.70 -1.46,0.45 -1.27,0.23 -1.06,0.05 -0.85,-0.10 -0.62,-0.22 -0.39,-0.30 -0.16,-0.35 0.06,-0.37 0.27,-0.35 0.47,-0.31 0.66,-0.24 0.82,-0.14 0.97,-0.03 1.09,0.10 1.18,0.24 1.25,0.40 1.29,0.55 1.31,0.71 1.30,0.87 1.27,1.03 1.21,1.18 1.12,1.31 1.02,1.43 0.90,1.54 0.77,1.62 0.62,1.69 0.46,1.73 0.30,1.75 0.14,1.75 -0.03,1.73 -0.19,1.68 -0.34,1.61 -0.49,1.52 -0.62,1.42 -0.74,1.29 -0.84,1.16 -0.93,1.01 -0.99,0.85 -1.04,0.68 -1.06,0.51 -1.06,0.35 -1.04,0.18 -1.01,0.02 -0.95,-0.14 -0.87,-0.28 -0.78,-0.41 -0.67,-0.53 -0.55,-0.63 -0.42,-0.71 -0.28,-0.77 -0.14,-0.82 0.01,-0.84 0.15,-0.84 0.29,-0.82 0.42,-0.79 0.55,-0.73 0.66,-0.66 0.76,-0.58 0.84,-0.48 0.91,-0.37 0.96,-0.25 0.99,-0.13 1.00,-0.00" />
</g>
</svg>