<svg xmlns="http://www.w3.org/2000/svg" width="88.8" height="100.0" viewBox="-22.75 -55.00 98.75 110.00">
<g fill="none" stroke="black" stroke-width="0.0352%" transform="translate(0, 0.0000) scale(14.2035, -14.2035)">
<polyline points="1.00,0.00 1.00,0.06 0.99,0.13 0.97,0.19 0.95,0.25 0.93,0.31 0.89,0.36 0.86,0.42 0.81,0.47 0.77,0.52 0.71,0.56 0.66,0.60 0.59,0.63 0.53,0.67 0.46,0.69 0.39,0.71 0.31,0.73 0.24,0.74 0.16,0.74 0.07,0.73 -0.01,0.73 -0.09,0.71 -0.18,0.69 -0.26,0.66 -0.34,0.62 -0.42,0.58 -0.51,0.53 -0.58,0.48 -0.66,0.41 -0.73,0.35 -0.80,0.27 -0.87,0.19 -0.93,0.11 -0.99,0.02 -1.04,-0.08 -1.09,-0.18 -1.13,-0.29 -1.17,-0.40 -1.20,-0.51 -1.22,-0.63 -1.24,-0.75 -1.25,-0.87 -1.25,-1.00 -1.24,-1.13 -1.23,-1.26 -1.21,-1.39 -1.18,-1.52 -1.14,-1.65 -1.10,-1.78 -1.05,-1.90 -0.98,-2.03 -0.91,-2.16 -0.84,-2.28 -0.75,-2.40 -0.66,-2.51 -0.56,-2.62 -0.45,-2.73 -0.34,-2.83 -0.22,-2.93 -0.09,-3.02 0.04,-3.10 0.18,-3.18 0.32,-3.25 0.47,-3.31 0.63,-3.37 0.78,-3.41 0.95,-3.45 1.11,-3.48 1.28,-3.50 1.45,-3.52 1.62,-3.52 1.79,-3.51 1.96,-3.50 2.13,-3.47 2.31,-3.44 2.48,-3.40 2.65,-3.34 2.82,-3.28 2.98,-3.21 3.14,-3.13 3.30,-3.04 3.45,-2.94 3.60,-2.84 3.74,-2.72 3.88,-2.60 4.01,-2.47 4.14,-2.33 4.25,-2.19 4.37,-2.04 4.47,-1.88 4.56,-1.72 4.65,-1.55 4.72,-1.38 4.79,-1.21 4.85,-1.03 4.90,-0.84 4.94,-0.66 4.97,-0.47 4.99,-0.28 5.00,-0.09 5.00,0.09 4.99,0.28 4.97,0.47 4.94,0.66 4.90,0.84 4.85,1.03 4.79,1.21 4.72,1.38 4.65,1.55 4.56,1.72 4.47,1.88 4.37,2.04 4.25,2.19 4.14,2.33 4.01,2.47 3.88,2.60 3.74,2.72 3.60,2.84 3.45,2.94 3.30,3.04 3.14,3.13 2.98,3.21 2.82,3.28 2.65,3.34 2.48,3.40 2.31,3.44 2.13,3.47 1.96,3.50 1.79,3.51 1.62,3.52 1.45,3.52 1.28,3.50 1.11,3.48 0.95,3.45 0.78,3.41 0.63,3.37 0.47,3.31 0.32,3.25 0.18,3.18 0.04,3.10 -0.09,3.02 -0.22,2.93 -0.34,2.83 -0.45,2.73 -0.56,2.62 -0.66,2.51 -0.75,2.40 -0.84,2.28 -0.91,2.16 -0.98,2.03 -1.05,1.90 -1.10,1.78 -1.14,1.65 -1.18,1.52 -1.21,1.39 -1.23,1.26 -1.24,1.13 -1.25,1.00 -1.25,0.87 -1.24,0.75 -1.22,0.63 -1.20,0.51 -1.17,0.40 -1.13,0.29 -1.09,0.18 -1.04,0.08 -0.99,-0.02 -0.93,-0.11 -0.87,-0.19 -0.80,-0.27 -0.73,-0.35 -0.66,-0.41 -0.58,-0.48 -0.51,-0.53 -0.42,-0.58 -0.34,-0.62 -0.26,-0.66 -0.18,-0.69 -0.09,-0.71 -0.01,-0.73 0.07,-0.73 0.16,-0.74 0.24,-0.74 0.31,-0.73 0.39,-0.71 0.46,-0.69 0.53,-0.67 0.59,-0.63 0.66,-0.60 0.71,-0.56 0.77,-0.52 0.81,-0.47 0.86,-0.42 0.89,-0.36 0.93,-0.31 0.95,-0.25 0.97,-0.19 0.99,-0.13 1.00,-0.06 1.00,-0.00" />
</g>
</svg>