<svg xmlns="http://www.w3.org/2000/svg" width="161.8" height="100.0" viewBox="-3.652 -5.000 171.803 110.000">
<g fill="none" stroke="black" stroke-width="0.0045%" transform="translate(0, 100.0000) scale(111.2656, -111.2656)">
<circle cx="0.012" cy="0.000" r="0.004" />
<polyline points="0.012,0.000 0.024,0.087 0.036,0.168 0.048,0.244 0.061,0.314 0.073,0.378 0.085,0.438 0.097,0.493 0.109,0.544 0.121,0.591 0.133,0.633 0.145,0.671 0.158,0.706 0.170,0.737 0.182,0.765 0.194,0.790 0.206,0.812 0.218,0.831 0.230,0.847 0.242,0.861 0.254,0.872 0.267,0.882 0.279,0.889 0.291,0.894 0.303,0.897 0.315,0.899 0.327,0.899 0.339,0.897 0.351,0.894 0.364,0.890 0.376,0.884 0.388,0.877 0.400,0.870 0.412,0.861 0.424,0.851 0.436,0.841 0.448,0.830 0.460,0.818 0.473,0.806 0.485,0.793 0.497,0.780 0.509,0.766 0.521,0.752 0.533,0.737 0.545,0.723 0.557,0.708 0.570,0.693 0.582,0.677 0.594,0.662 0.606,0.646 0.618,0.631 0.630,0.615 0.642,0.600 0.654,0.584 0.667,0.569 0.679,0.554 0.691,0.538 0.703,0.523 0.715,0.508 0.727,0.494 0.739,0.479 0.751,0.465 0.763,0.450 0.776,0.436 0.788,0.423 0.800,0.409 0.812,0.396 0.824,0.383 0.836,0.370 0.848,0.358 0.860,0.345 0.873,0.333 0.885,0.322 0.897,0.310 0.909,0.299 0.921,0.288 0.933,0.278 0.945,0.267 0.957,0.257 0.969,0.247 0.982,0.238 0.994,0.229 1.006,0.220 1.018,0.211 1.030,0.203 1.042,0.194 1.054,0.187 1.066,0.179 1.079,0.171 1.091,0.164 1.103,0.157 1.115,0.151 1.127,0.144 1.139,0.138 1.151,0.132 1.163,0.126 1.175,0.120 1.188,0.115 1.200,0.110 1.212,0.105 1.224,0.100 1.236,0.095 1.248,0.091 1.260,0.087 1.272,0.083 1.285,0.079 1.297,0.075 1.309,0.071 1.321,0.068 1.333,0.064 1.345,0.061 1.357,0.058 1.369,0.055 1.381,0.052 1.394,0.050 1.406,0.047 1.418,0.045 1.430,0.042 1.442,0.040 1.454,0.038 1.466,0.036" />
<polyline points="0.012,0.000 0.024,0.151 0.036,0.283 0.048,0.398 0.061,0.498 0.073,0.583 0.085,0.655 0.097,0.716 0.109,0.766 0.121,0.807 0.133,0.839 0.145,0.863 0.158,0.881 0.170,0.892 0.182,0.898 0.194,0.899 0.206,0.895 0.218,0.888 0.230,0.878 0.242,0.865 0.254,0.849 0.267,0.831 0.279,0.812 0.291,0.791 0.303,0.769 0.315,0.746 0.327,0.723 0.339,0.699 0.351,0.674 0.364,0.649 0.376,0.625 0.388,0.600 0.400,0.576 0.412,0.552 0.424,0.528 0.436,0.505 0.448,0.482 0.460,0.459 0.473,0.438 0.485,0.416 0.497,0.396 0.509,0.376 0.521,0.357 0.533,0.338 0.545,0.320 0.557,0.303 0.570,0.287 0.582,0.271 0.594,0.256 0.606,0.241 0.618,0.227 0.630,0.214 0.642,0.202 0.654,0.190 0.667,0.178 0.679,0.168 0.691,0.157 0.703,0.147 0.715,0.138 0.727,0.130 0.739,0.121 0.751,0.113 0.763,0.106 0.776,0.099 0.788,0.093 0.800,0.086 0.812,0.081 0.824,0.075 0.836,0.070 0.848,0.065 0.860,0.061 0.873,0.056 0.885,0.052 0.897,0.049 0.909,0.045 0.921,0.042 0.933,0.039 0.945,0.036 0.957,0.033 0.969,0.031 0.982,0.029 0.994,0.026 1.006,0.024 1.018,0.023 1.030,0.021 1.042,0.019 1.054,0.018 1.066,0.016 1.079,0.015 1.091,0.014 1.103,0.013 1.115,0.012 1.127,0.011 1.139,0.010 1.151,0.009 1.163,0.008 1.175,0.008 1.188,0.007 1.200,0.006 1.212,0.006 1.224,0.005 1.236,0.005 1.248,0.004 1.260,0.004 1.272,0.004 1.285,0.003 1.297,0.003 1.309,0.003 1.321,0.003 1.333,0.002 1.345,0.002 1.357,0.002 1.369,0.002 1.381,0.002 1.394,0.001 1.406,0.001 1.418,0.001 1.430,0.001 1.442,0.001 1.454,0.001 1.466,0.001" />
<polyline points="0.012,0.000 0.024,0.238 0.036,0.428 0.048,0.576 0.061,0.689 0.073,0.773 0.085,0.832 0.097,0.871 0.109,0.892 0.121,0.899 0.133,0.894 0.145,0.881 0.158,0.860 0.170,0.833 0.182,0.802 0.194,0.768 0.206,0.732 0.218,0.694 0.230,0.656 0.242,0.618 0.254,0.581 0.267,0.543 0.279,0.507 0.291,0.473 0.303,0.439 0.315,0.407 0.327,0.377 0.339,0.348 0.351,0.321 0.364,0.295 0.376,0.272 0.388,0.249 0.400,0.228 0.412,0.209 0.424,0.191 0.436,0.174 0.448,0.159 0.460,0.145 0.473,0.131 0.485,0.119 0.497,0.108 0.509,0.098 0.521,0.089 0.533,0.080 0.545,0.073 0.557,0.066 0.570,0.059 0.582,0.053 0.594,0.048 0.606,0.043 0.618,0.039 0.630,0.035 0.642,0.031 0.654,0.028 0.667,0.025 0.679,0.022 0.691,0.020 0.703,0.018 0.715,0.016 0.727,0.014 0.739,0.013 0.751,0.011 0.763,0.010 0.776,0.009 0.788,0.008 0.800,0.007 0.812,0.006 0.824,0.006 0.836,0.005 0.848,0.004 0.860,0.004 0.873,0.003 0.885,0.003 0.897,0.003 0.909,0.002 0.921,0.002 0.933,0.002 0.945,0.002 0.957,0.001 0.969,0.001 0.982,0.001 0.994,0.001 1.006,0.001 1.018,0.001 1.030,0.001 1.042,0.001 1.054,0.000 1.066,0.000 1.079,0.000 1.091,0.000 1.103,0.000 1.115,0.000 1.127,0.000 1.139,0.000 1.151,0.000 1.163,0.000 1.175,0.000 1.188,0.000 1.200,0.000 1.212,0.000 1.224,0.000 1.236,0.000 1.248,0.000 1.260,0.000 1.272,0.000 1.285,0.000 1.297,0.000 1.309,0.000 1.321,0.000 1.333,0.000 1.345,0.000 1.357,0.000 1.369,0.000 1.381,0.000 1.394,0.000 1.406,0.000 1.418,0.000 1.430,0.000 1.442,0.000 1.454,0.000 1.466,0.000" />
<polyline points="0.012,0.000 0.024,0.334 0.036,0.569 0.048,0.728 0.061,0.826 0.073,0.880 0.085,0.898 0.097,0.892 0.109,0.867 0.121,0.829 0.133,0.782 0.145,0.731 0.158,0.677 0.170,0.623 0.182,0.569 0.194,0.517 0.206,0.467 0.218,0.421 0.230,0.377 0.242,0.337 0.254,0.300 0.267,0.267 0.279,0.236 0.291,0.209 0.303,0.184 0.315,0.162 0.327,0.142 0.339,0.125 0.351,0.109 0.364,0.095 0.376,0.083 0.388,0.072 0.400,0.063 0.412,0.054 0.424,0.047 0.436,0.041 0.448,0.035 0.460,0.030 0.473,0.026 0.485,0.023 0.497,0.019 0.509,0.017 0.521,0.014 0.533,0.012 0.545,0.010 0.557,0.009 0.570,0.008 0.582,0.007 0.594,0.006 0.606,0.005 0.618,0.004 0.630,0.003 0.642,0.003 0.654,0.002 0.667,0.002 0.679,0.002 0.691,0.001 0.703,0.001 0.715,0.001 0.727,0.001 0.739,0.001 0.751,0.001 0.763,0.001 0.776,0.000 0.788,0.000 0.800,0.000 0.812,0.000 0.824,0.000 0.836,0.000 0.848,0.000 0.860,0.000 0.873,0.000 0.885,0.000 0.897,0.000 0.909,0.000 0.921,0.000 0.933,0.000 0.945,0.000 0.957,0.000 0.969,0.000 0.982,0.000 0.994,0.000 1.006,0.000 1.018,0.000 1.030,0.000 1.042,0.000 1.054,0.000 1.066,0.000 1.079,0.000 1.091,0.000 1.103,0.000 1.115,0.000 1.127,0.000 1.139,0.000 1.151,0.000 1.163,0.000 1.175,0.000 1.188,0.000 1.200,0.000 1.212,0.000 1.224,0.000 1.236,0.000 1.248,0.000 1.260,0.000 1.272,0.000 1.285,0.000 1.297,0.000 1.309,0.000 1.321,0.000 1.333,0.000 1.345,0.000 1.357,0.000 1.369,0.000 1.381,0.000 1.394,0.000 1.406,0.000 1.418,0.000 1.430,0.000 1.442,0.000 1.454,0.000 1.466,0.000" />
<polyline points="0.012,0.000 0.024,0.417 0.036,0.676 0.048,0.821 0.061,0.887 0.073,0.897 0.085,0.872 0.097,0.823 0.109,0.760 0.121,0.692 0.133,0.621 0.145,0.552 0.158,0.487 0.170,0.426 0.182,0.370 0.194,0.320 0.206,0.275 0.218,0.236 0.230,0.201 0.242,0.171 0.254,0.145 0.267,0.123 0.279,0.104 0.291,0.087 0.303,0.073 0.315,0.061 0.327,0.051 0.339,0.043 0.351,0.036 0.364,0.030 0.376,0.025 0.388,0.020 0.400,0.017 0.412,0.014 0.424,0.011 0.436,0.009 0.448,0.008 0.460,0.006 0.473,0.005 0.485,0.004 0.497,0.003 0.509,0.003 0.521,0.002 0.533,0.002 0.545,0.002 0.557,0.001 0.570,0.001 0.582,0.001 0.594,0.001 0.606,0.001 0.618,0.000 0.630,0.000 0.642,0.000 0.654,0.000 0.667,0.000 0.679,0.000 0.691,0.000 0.703,0.000 0.715,0.000 0.727,0.000 0.739,0.000 0.751,0.000 0.763,0.000 0.776,0.000 0.788,0.000 0.800,0.000 0.812,0.000 0.824,0.000 0.836,0.000 0.848,0.000 0.860,0.000 0.873,0.000 0.885,0.000 0.897,0.000 0.909,0.000 0.921,0.000 0.933,0.000 0.945,0.000 0.957,0.000 0.969,0.000 0.982,0.000 0.994,0.000 1.006,0.000 1.018,0.000 1.030,0.000 1.042,0.000 1.054,0.000 1.066,0.000 1.079,0.000 1.091,0.000 1.103,0.000 1.115,0.000 1.127,0.000 1.139,0.000 1.151,0.000 1.163,0.000 1.175,0.000 1.188,0.000 1.200,0.000 1.212,0.000 1.224,0.000 1.236,0.000 1.248,0.000 1.260,0.000 1.272,0.000 1.285,0.000 1.297,0.000 1.309,0.000 1.321,0.000 1.333,0.000 1.345,0.000 1.357,0.000 1.369,0.000 1.381,0.000 1.394,0.000 1.406,0.000 1.418,0.000 1.430,0.000 1.442,0.000 1.454,0.000 1.466,0.000" />
</g>
</svg>