<svg xmlns="http://www.w3.org/2000/svg" width="161.8" height="100.0" viewBox="-4.35 -1.77 171.80 110.00">
<g fill="none" stroke="black" stroke-width="0.1550%" transform="translate(0, 106.4516) scale(3.2258, -3.2258)">
<circle cx="0.20" cy="1.00" r="0.15" />
<circle cx="0.40" cy="2.00" r="0.15" />
<circle cx="0.60" cy="2.00" r="0.15" />
<circle cx="0.81" cy="3.00" r="0.15" />
<circle cx="1.01" cy="3.00" r="0.15" />
<circle cx="1.21" cy="3.00" r="0.15" />
<circle cx="1.41" cy="5.00" r="0.15" />
<circle cx="1.61" cy="4.00" r="0.15" />
<circle cx="1.81" cy="2.00" r="0.15" />
<circle cx="2.01" cy="4.00" r="0.15" />
<circle cx="2.22" cy="5.00" r="0.15" />
<circle cx="2.42" cy="4.00" r="0.15" />
<circle cx="2.62" cy="5.00" r="0.15" />
<circle cx="2.82" cy="6.00" r="0.15" />
<circle cx="3.02" cy="4.00" r="0.15" />
<circle cx="3.22" cy="5.00" r="0.15" />
<circle cx="3.42" cy="8.00" r="0.15" />
<circle cx="3.63" cy="5.00" r="0.15" />
<circle cx="3.83" cy="6.00" r="0.15" />
<circle cx="4.03" cy="7.00" r="0.15" />
<circle cx="4.23" cy="3.00" r="0.15" />
<circle cx="4.43" cy="5.00" r="0.15" />
<circle cx="4.63" cy="10.00" r="0.15" />
<circle cx="4.83" cy="7.00" r="0.15" />
<circle cx="5.04" cy="3.00" r="0.15" />
<circle cx="5.24" cy="7.00" r="0.15" />
<circle cx="5.44" cy="8.00" r="0.15" />
<circle cx="5.64" cy="5.00" r="0.15" />
<circle cx="5.84" cy="9.00" r="0.15" />
<circle cx="6.04" cy="8.00" r="0.15" />
<circle cx="6.24" cy="4.00" r="0.15" />
<circle cx="6.45" cy="8.00" r="0.15" />
<circle cx="6.65" cy="9.00" r="0.15" />
<circle cx="6.85" cy="6.00" r="0.15" />
<circle cx="7.05" cy="5.00" r="0.15" />
<circle cx="7.25" cy="11.00" r="0.15" />
<circle cx="7.45" cy="9.00" r="0.15" />
<circle cx="7.65" cy="4.00" r="0.15" />
<circle cx="7.86" cy="9.00" r="0.15" />
<circle cx="8.06" cy="10.00" r="0.15" />
<circle cx="8.26" cy="6.00" r="0.15" />
<circle cx="8.46" cy="6.00" r="0.15" />
<circle cx="8.66" cy="9.00" r="0.15" />
<circle cx="8.86" cy="10.00" r="0.15" />
<circle cx="9.06" cy="8.00" r="0.15" />
<circle cx="9.27" cy="8.00" r="0.15" />
<circle cx="9.47" cy="11.00" r="0.15" />
<circle cx="9.67" cy="8.00" r="0.15" />
<circle cx="9.87" cy="9.00" r="0.15" />
<circle cx="10.07" cy="13.00" r="0.15" />
<circle cx="10.27" cy="7.00" r="0.15" />
<circle cx="10.47" cy="5.00" r="0.15" />
<circle cx="10.68" cy="13.00" r="0.15" />
<circle cx="10.88" cy="11.00" r="0.15" />
<circle cx="11.08" cy="5.00" r="0.15" />
<circle cx="11.28" cy="13.00" r="0.15" />
<circle cx="11.48" cy="13.00" r="0.15" />
<circle cx="11.68" cy="7.00" r="0.15" />
<circle cx="11.89" cy="9.00" r="0.15" />
<circle cx="12.09" cy="12.00" r="0.15" />
<circle cx="12.29" cy="8.00" r="0.15" />
<circle cx="12.49" cy="9.00" r="0.15" />
<circle cx="12.69" cy="16.00" r="0.15" />
<circle cx="12.89" cy="9.00" r="0.15" />
<circle cx="13.09" cy="10.00" r="0.15" />
<circle cx="13.30" cy="13.00" r="0.15" />
<circle cx="13.50" cy="9.00" r="0.15" />
<circle cx="13.70" cy="15.00" r="0.15" />
<circle cx="13.90" cy="11.00" r="0.15" />
<circle cx="14.10" cy="5.00" r="0.15" />
<circle cx="14.30" cy="15.00" r="0.15" />
<circle cx="14.50" cy="13.00" r="0.15" />
<circle cx="14.71" cy="8.00" r="0.15" />
<circle cx="14.91" cy="15.00" r="0.15" />
<circle cx="15.11" cy="12.00" r="0.15" />
<circle cx="15.31" cy="5.00" r="0.15" />
<circle cx="15.51" cy="14.00" r="0.15" />
<circle cx="15.71" cy="13.00" r="0.15" />
<circle cx="15.91" cy="8.00" r="0.15" />
<circle cx="16.12" cy="17.00" r="0.15" />
<circle cx="16.32" cy="11.00" r="0.15" />
<circle cx="16.52" cy="6.00" r="0.15" />
<circle cx="16.72" cy="11.00" r="0.15" />
<circle cx="16.92" cy="12.00" r="0.15" />
<circle cx="17.12" cy="9.00" r="0.15" />
<circle cx="17.32" cy="14.00" r="0.15" />
<circle cx="17.53" cy="13.00" r="0.15" />
<circle cx="17.73" cy="10.00" r="0.15" />
<circle cx="17.93" cy="13.00" r="0.15" />
<circle cx="18.13" cy="14.00" r="0.15" />
<circle cx="18.33" cy="12.00" r="0.15" />
<circle cx="18.53" cy="7.00" r="0.15" />
<circle cx="18.73" cy="10.00" r="0.15" />
<circle cx="18.94" cy="12.00" r="0.15" />
<circle cx="19.14" cy="11.00" r="0.15" />
<circle cx="19.34" cy="12.00" r="0.15" />
<circle cx="19.54" cy="13.00" r="0.15" />
<circle cx="19.74" cy="16.00" r="0.15" />
<circle cx="19.94" cy="12.00" r="0.15" />
<circle cx="20.14" cy="9.00" r="0.15" />
<circle cx="20.35" cy="19.00" r="0.15" />
<circle cx="20.55" cy="13.00" r="0.15" />
<circle cx="20.75" cy="12.00" r="0.15" />
<circle cx="20.95" cy="19.00" r="0.15" />
<circle cx="21.15" cy="10.00" r="0.15" />
<circle cx="21.35" cy="9.00" r="0.15" />
<circle cx="21.55" cy="20.00" r="0.15" />
<circle cx="21.76" cy="14.00" r="0.15" />
<circle cx="21.96" cy="5.00" r="0.15" />
<circle cx="22.16" cy="17.00" r="0.15" />
<circle cx="22.36" cy="15.00" r="0.15" />
<circle cx="22.56" cy="6.00" r="0.15" />
<circle cx="22.76" cy="11.00" r="0.15" />
<circle cx="22.96" cy="15.00" r="0.15" />
<circle cx="23.17" cy="13.00" r="0.15" />
<circle cx="23.37" cy="17.00" r="0.15" />
<circle cx="23.57" cy="15.00" r="0.15" />
<circle cx="23.77" cy="9.00" r="0.15" />
<circle cx="23.97" cy="20.00" r="0.15" />
<circle cx="24.17" cy="16.00" r="0.15" />
<circle cx="24.37" cy="5.00" r="0.15" />
<circle cx="24.58" cy="17.00" r="0.15" />
<circle cx="24.78" cy="18.00" r="0.15" />
<circle cx="24.98" cy="5.00" r="0.15" />
<circle cx="25.18" cy="16.00" r="0.15" />
<circle cx="25.38" cy="19.00" r="0.15" />
<circle cx="25.58" cy="7.00" r="0.15" />
<circle cx="25.78" cy="10.00" r="0.15" />
<circle cx="25.99" cy="15.00" r="0.15" />
<circle cx="26.19" cy="15.00" r="0.15" />
<circle cx="26.39" cy="15.00" r="0.15" />
<circle cx="26.59" cy="17.00" r="0.15" />
<circle cx="26.79" cy="14.00" r="0.15" />
<circle cx="26.99" cy="10.00" r="0.15" />
<circle cx="27.19" cy="14.00" r="0.15" />
<circle cx="27.40" cy="15.00" r="0.15" />
<circle cx="27.60" cy="16.00" r="0.15" />
<circle cx="27.80" cy="15.00" r="0.15" />
<circle cx="28.00" cy="16.00" r="0.15" />
<circle cx="28.20" cy="17.00" r="0.15" />
<circle cx="28.40" cy="12.00" r="0.15" />
<circle cx="28.60" cy="15.00" r="0.15" />
<circle cx="28.81" cy="21.00" r="0.15" />
<circle cx="29.01" cy="13.00" r="0.15" />
<circle cx="29.21" cy="14.00" r="0.15" />
<circle cx="29.41" cy="20.00" r="0.15" />
<circle cx="29.61" cy="10.00" r="0.15" />
<circle cx="29.81" cy="13.00" r="0.15" />
<circle cx="30.01" cy="24.00" r="0.15" />
<circle cx="30.22" cy="15.00" r="0.15" />
<circle cx="30.42" cy="14.00" r="0.15" />
<circle cx="30.62" cy="21.00" r="0.15" />
<circle cx="30.82" cy="10.00" r="0.15" />
<circle cx="31.02" cy="13.00" r="0.15" />
<circle cx="31.22" cy="26.00" r="0.15" />
<circle cx="31.42" cy="16.00" r="0.15" />
<circle cx="31.63" cy="8.00" r="0.15" />
<circle cx="31.83" cy="18.00" r="0.15" />
<circle cx="32.03" cy="13.00" r="0.15" />
<circle cx="32.23" cy="18.00" r="0.15" />
<circle cx="32.43" cy="19.00" r="0.15" />
<circle cx="32.63" cy="7.00" r="0.15" />
<circle cx="32.84" cy="12.00" r="0.15" />
<circle cx="33.04" cy="18.00" r="0.15" />
<circle cx="33.24" cy="14.00" r="0.15" />
<circle cx="33.44" cy="13.00" r="0.15" />
<circle cx="33.64" cy="26.00" r="0.15" />
<circle cx="33.84" cy="19.00" r="0.15" />
<circle cx="34.04" cy="7.00" r="0.15" />
<circle cx="34.25" cy="14.00" r="0.15" />
<circle cx="34.45" cy="19.00" r="0.15" />
<circle cx="34.65" cy="16.00" r="0.15" />
<circle cx="34.85" cy="14.00" r="0.15" />
<circle cx="35.05" cy="19.00" r="0.15" />
<circle cx="35.25" cy="18.00" r="0.15" />
<circle cx="35.45" cy="12.00" r="0.15" />
<circle cx="35.66" cy="16.00" r="0.15" />
<circle cx="35.86" cy="20.00" r="0.15" />
<circle cx="36.06" cy="13.00" r="0.15" />
<circle cx="36.26" cy="22.00" r="0.15" />
<circle cx="36.46" cy="19.00" r="0.15" />
<circle cx="36.66" cy="9.00" r="0.15" />
<circle cx="36.86" cy="23.00" r="0.15" />
<circle cx="37.07" cy="16.00" r="0.15" />
<circle cx="37.27" cy="11.00" r="0.15" />
<circle cx="37.47" cy="19.00" r="0.15" />
<circle cx="37.67" cy="18.00" r="0.15" />
<circle cx="37.87" cy="15.00" r="0.15" />
<circle cx="38.07" cy="20.00" r="0.15" />
<circle cx="38.27" cy="19.00" r="0.15" />
<circle cx="38.48" cy="15.00" r="0.15" />
<circle cx="38.68" cy="25.00" r="0.15" />
<circle cx="38.88" cy="16.00" r="0.15" />
<circle cx="39.08" cy="12.00" r="0.15" />
<circle cx="39.28" cy="23.00" r="0.15" />
<circle cx="39.48" cy="14.00" r="0.15" />
<circle cx="39.68" cy="14.00" r="0.15" />
<circle cx="39.89" cy="25.00" r="0.15" />
<circle cx="40.09" cy="15.00" r="0.15" />
<circle cx="40.29" cy="18.00" r="0.15" />
<circle cx="40.49" cy="23.00" r="0.15" />
<circle cx="40.69" cy="10.00" r="0.15" />
<circle cx="40.89" cy="15.00" r="0.15" />
<circle cx="41.09" cy="29.00" r="0.15" />
<circle cx="41.30" cy="18.00" r="0.15" />
<circle cx="41.50" cy="9.00" r="0.15" />
<circle cx="41.70" cy="24.00" r="0.15" />
<circle cx="41.90" cy="18.00" r="0.15" />
<circle cx="42.10" cy="11.00" r="0.15" />
<circle cx="42.30" cy="19.00" r="0.15" />
<circle cx="42.50" cy="21.00" r="0.15" />
<circle cx="42.71" cy="14.00" r="0.15" />
<circle cx="42.91" cy="17.00" r="0.15" />
<circle cx="43.11" cy="21.00" r="0.15" />
<circle cx="43.31" cy="11.00" r="0.15" />
<circle cx="43.51" cy="15.00" r="0.15" />
<circle cx="43.71" cy="29.00" r="0.15" />
<circle cx="43.91" cy="20.00" r="0.15" />
<circle cx="44.12" cy="8.00" r="0.15" />
<circle cx="44.32" cy="18.00" r="0.15" />
<circle cx="44.52" cy="22.00" r="0.15" />
<circle cx="44.72" cy="12.00" r="0.15" />
<circle cx="44.92" cy="15.00" r="0.15" />
<circle cx="45.12" cy="32.00" r="0.15" />
<circle cx="45.32" cy="20.00" r="0.15" />
<circle cx="45.53" cy="8.00" r="0.15" />
<circle cx="45.73" cy="20.00" r="0.15" />
<circle cx="45.93" cy="21.00" r="0.15" />
<circle cx="46.13" cy="13.00" r="0.15" />
<circle cx="46.33" cy="24.00" r="0.15" />
<circle cx="46.53" cy="22.00" r="0.15" />
<circle cx="46.73" cy="6.00" r="0.15" />
<circle cx="46.94" cy="11.00" r="0.15" />
<circle cx="47.14" cy="20.00" r="0.15" />
<circle cx="47.34" cy="21.00" r="0.15" />
<circle cx="47.54" cy="15.00" r="0.15" />
<circle cx="47.74" cy="26.00" r="0.15" />
<circle cx="47.94" cy="23.00" r="0.15" />
<circle cx="48.14" cy="7.00" r="0.15" />
<circle cx="48.35" cy="14.00" r="0.15" />
<circle cx="48.55" cy="25.00" r="0.15" />
<circle cx="48.75" cy="18.00" r="0.15" />
<circle cx="48.95" cy="14.00" r="0.15" />
<circle cx="49.15" cy="27.00" r="0.15" />
<circle cx="49.35" cy="17.00" r="0.15" />
<circle cx="49.55" cy="9.00" r="0.15" />
<circle cx="49.76" cy="25.00" r="0.15" />
<circle cx="49.96" cy="21.00" r="0.15" />
<circle cx="50.16" cy="11.00" r="0.15" />
<circle cx="50.36" cy="20.00" r="0.15" />
</g>
</svg>