<svg xmlns="http://www.w3.org/2000/svg" width="107.0" height="100.0" viewBox="-55.376 -55.700 116.968 110.000">
<g fill="none" stroke="black" stroke-width="0.0149%" transform="translate(0, -1.3990) scale(33.5513, -33.5513)">
<circle cx="-1.500" cy="-1.500" r="0.015" />
<circle cx="-1.500" cy="-1.400" r="0.015" />
<circle cx="-1.500" cy="-1.300" r="0.015" />
<circle cx="-1.500" cy="-1.200" r="0.015" />
<circle cx="-1.500" cy="-1.100" r="0.015" />
<circle cx="-1.500" cy="-1.000" r="0.015" />
<circle cx="-1.501" cy="-0.900" r="0.015" />
<circle cx="-1.501" cy="-0.800" r="0.015" />
<circle cx="-1.501" cy="-0.700" r="0.015" />
<circle cx="-1.501" cy="-0.600" r="0.015" />
<circle cx="-1.501" cy="-0.500" r="0.015" />
<circle cx="-1.501" cy="-0.400" r="0.015" />
<circle cx="-1.501" cy="-0.300" r="0.015" />
<circle cx="-1.501" cy="-0.200" r="0.015" />
<circle cx="-1.501" cy="-0.100" r="0.015" />
<circle cx="-1.501" cy="-0.000" r="0.015" />
<circle cx="-1.501" cy="0.100" r="0.015" />
<circle cx="-1.501" cy="0.200" r="0.015" />
<circle cx="-1.501" cy="0.300" r="0.015" />
<circle cx="-1.501" cy="0.400" r="0.015" />
<circle cx="-1.501" cy="0.500" r="0.015" />
<circle cx="-1.501" cy="0.600" r="0.015" />
<circle cx="-1.501" cy="0.700" r="0.015" />
<circle cx="-1.501" cy="0.800" r="0.015" />
<circle cx="-1.501" cy="0.900" r="0.015" />
<circle cx="-1.501" cy="1.000" r="0.015" />
<circle cx="-1.501" cy="1.100" r="0.015" />
<circle cx="-1.501" cy="1.200" r="0.015" />
<circle cx="-1.501" cy="1.300" r="0.015" />
<circle cx="-1.501" cy="1.400" r="0.015" />
<circle cx="-1.400" cy="-1.500" r="0.015" />
<circle cx="-1.400" cy="-1.400" r="0.015" />
<circle cx="-1.400" cy="-1.300" r="0.015" />
<circle cx="-1.400" cy="-1.200" r="0.015" />
<circle cx="-1.401" cy="-1.100" r="0.015" />
<circle cx="-1.401" cy="-1.000" r="0.015" />
<circle cx="-1.401" cy="-0.900" r="0.015" />
<circle cx="-1.401" cy="-0.800" r="0.015" />
<circle cx="-1.401" cy="-0.700" r="0.015" />
<circle cx="-1.401" cy="-0.600" r="0.015" />
<circle cx="-1.401" cy="-0.500" r="0.015" />
<circle cx="-1.401" cy="-0.400" r="0.015" />
<circle cx="-1.402" cy="-0.300" r="0.015" />
<circle cx="-1.402" cy="-0.200" r="0.015" />
<circle cx="-1.402" cy="-0.100" r="0.015" />
<circle cx="-1.402" cy="-0.000" r="0.015" />
<circle cx="-1.402" cy="0.100" r="0.015" />
<circle cx="-1.402" cy="0.200" r="0.015" />
<circle cx="-1.402" cy="0.300" r="0.015" />
<circle cx="-1.402" cy="0.400" r="0.015" />
<circle cx="-1.402" cy="0.500" r="0.015" />
<circle cx="-1.402" cy="0.600" r="0.015" />
<circle cx="-1.402" cy="0.700" r="0.015" />
<circle cx="-1.402" cy="0.800" r="0.015" />
<circle cx="-1.402" cy="0.900" r="0.015" />
<circle cx="-1.401" cy="1.000" r="0.015" />
<circle cx="-1.401" cy="1.100" r="0.015" />
<circle cx="-1.401" cy="1.200" r="0.015" />
<circle cx="-1.401" cy="1.300" r="0.015" />
<circle cx="-1.401" cy="1.400" r="0.015" />
<circle cx="-1.300" cy="-1.500" r="0.015" />
<circle cx="-1.300" cy="-1.400" r="0.015" />
<circle cx="-1.300" cy="-1.300" r="0.015" />
<circle cx="-1.301" cy="-1.200" r="0.015" />
<circle cx="-1.301" cy="-1.100" r="0.015" />
<circle cx="-1.301" cy="-1.000" r="0.015" />
<circle cx="-1.301" cy="-0.901" r="0.015" />
<circle cx="-1.301" cy="-0.801" r="0.015" />
<circle cx="-1.301" cy="-0.701" r="0.015" />
<circle cx="-1.302" cy="-0.601" r="0.015" />
<circle cx="-1.302" cy="-0.501" r="0.015" />
<circle cx="-1.302" cy="-0.401" r="0.015" />
<circle cx="-1.302" cy="-0.301" r="0.015" />
<circle cx="-1.302" cy="-0.200" r="0.015" />
<circle cx="-1.302" cy="-0.100" r="0.015" />
<circle cx="-1.303" cy="-0.000" r="0.015" />
<circle cx="-1.303" cy="0.100" r="0.015" />
<circle cx="-1.303" cy="0.200" r="0.015" />
<circle cx="-1.303" cy="0.300" r="0.015" />
<circle cx="-1.303" cy="0.400" r="0.015" />
<circle cx="-1.303" cy="0.500" r="0.015" />
<circle cx="-1.302" cy="0.600" r="0.015" />
<circle cx="-1.302" cy="0.700" r="0.015" />
<circle cx="-1.302" cy="0.801" r="0.015" />
<circle cx="-1.302" cy="0.901" r="0.015" />
<circle cx="-1.302" cy="1.001" r="0.015" />
<circle cx="-1.302" cy="1.101" r="0.015" />
<circle cx="-1.301" cy="1.201" r="0.015" />
<circle cx="-1.301" cy="1.301" r="0.015" />
<circle cx="-1.301" cy="1.401" r="0.015" />
<circle cx="-1.200" cy="-1.500" r="0.015" />
<circle cx="-1.200" cy="-1.400" r="0.015" />
<circle cx="-1.201" cy="-1.300" r="0.015" />
<circle cx="-1.201" cy="-1.201" r="0.015" />
<circle cx="-1.201" cy="-1.101" r="0.015" />
<circle cx="-1.201" cy="-1.001" r="0.015" />
<circle cx="-1.201" cy="-0.901" r="0.015" />
<circle cx="-1.202" cy="-0.801" r="0.015" />
<circle cx="-1.202" cy="-0.701" r="0.015" />
<circle cx="-1.202" cy="-0.601" r="0.015" />
<circle cx="-1.202" cy="-0.501" r="0.015" />
<circle cx="-1.203" cy="-0.401" r="0.015" />
<circle cx="-1.203" cy="-0.301" r="0.015" />
<circle cx="-1.203" cy="-0.201" r="0.015" />
<circle cx="-1.203" cy="-0.101" r="0.015" />
<circle cx="-1.203" cy="-0.000" r="0.015" />
<circle cx="-1.204" cy="0.100" r="0.015" />
<circle cx="-1.204" cy="0.200" r="0.015" />
<circle cx="-1.204" cy="0.300" r="0.015" />
<circle cx="-1.204" cy="0.400" r="0.015" />
<circle cx="-1.204" cy="0.500" r="0.015" />
<circle cx="-1.203" cy="0.600" r="0.015" />
<circle cx="-1.203" cy="0.701" r="0.015" />
<circle cx="-1.203" cy="0.801" r="0.015" />
<circle cx="-1.203" cy="0.901" r="0.015" />
<circle cx="-1.202" cy="1.001" r="0.015" />
<circle cx="-1.202" cy="1.101" r="0.015" />
<circle cx="-1.202" cy="1.201" r="0.015" />
<circle cx="-1.202" cy="1.301" r="0.015" />
<circle cx="-1.201" cy="1.401" r="0.015" />
<circle cx="-1.100" cy="-1.500" r="0.015" />
<circle cx="-1.101" cy="-1.401" r="0.015" />
<circle cx="-1.101" cy="-1.301" r="0.015" />
<circle cx="-1.101" cy="-1.201" r="0.015" />
<circle cx="-1.101" cy="-1.101" r="0.015" />
<circle cx="-1.101" cy="-1.001" r="0.015" />
<circle cx="-1.102" cy="-0.901" r="0.015" />
<circle cx="-1.102" cy="-0.801" r="0.015" />
<circle cx="-1.102" cy="-0.701" r="0.015" />
<circle cx="-1.103" cy="-0.601" r="0.015" />
<circle cx="-1.103" cy="-0.501" r="0.015" />
<circle cx="-1.103" cy="-0.401" r="0.015" />
<circle cx="-1.104" cy="-0.301" r="0.015" />
<circle cx="-1.104" cy="-0.201" r="0.015" />
<circle cx="-1.104" cy="-0.101" r="0.015" />
<circle cx="-1.105" cy="-0.001" r="0.015" />
<circle cx="-1.105" cy="0.100" r="0.015" />
<circle cx="-1.105" cy="0.200" r="0.015" />
<circle cx="-1.105" cy="0.300" r="0.015" />
<circle cx="-1.105" cy="0.400" r="0.015" />
<circle cx="-1.105" cy="0.500" r="0.015" />
<circle cx="-1.105" cy="0.601" r="0.015" />
<circle cx="-1.104" cy="0.701" r="0.015" />
<circle cx="-1.104" cy="0.801" r="0.015" />
<circle cx="-1.104" cy="0.901" r="0.015" />
<circle cx="-1.103" cy="1.001" r="0.015" />
<circle cx="-1.103" cy="1.101" r="0.015" />
<circle cx="-1.102" cy="1.201" r="0.015" />
<circle cx="-1.102" cy="1.301" r="0.015" />
<circle cx="-1.102" cy="1.401" r="0.015" />
<circle cx="-1.001" cy="-1.501" r="0.015" />
<circle cx="-1.001" cy="-1.401" r="0.015" />
<circle cx="-1.001" cy="-1.301" r="0.015" />
<circle cx="-1.001" cy="-1.201" r="0.015" />
<circle cx="-1.001" cy="-1.101" r="0.015" />
<circle cx="-1.002" cy="-1.001" r="0.015" />
<circle cx="-1.002" cy="-0.901" r="0.015" />
<circle cx="-1.003" cy="-0.801" r="0.015" />
<circle cx="-1.003" cy="-0.701" r="0.015" />
<circle cx="-1.003" cy="-0.602" r="0.015" />
<circle cx="-1.004" cy="-0.502" r="0.015" />
<circle cx="-1.004" cy="-0.402" r="0.015" />
<circle cx="-1.005" cy="-0.301" r="0.015" />
<circle cx="-1.005" cy="-0.201" r="0.015" />
<circle cx="-1.006" cy="-0.101" r="0.015" />
<circle cx="-1.006" cy="-0.001" r="0.015" />
<circle cx="-1.006" cy="0.099" r="0.015" />
<circle cx="-1.007" cy="0.200" r="0.015" />
<circle cx="-1.007" cy="0.300" r="0.015" />
<circle cx="-1.007" cy="0.400" r="0.015" />
<circle cx="-1.006" cy="0.501" r="0.015" />
<circle cx="-1.006" cy="0.601" r="0.015" />
<circle cx="-1.006" cy="0.701" r="0.015" />
<circle cx="-1.005" cy="0.801" r="0.015" />
<circle cx="-1.005" cy="0.901" r="0.015" />
<circle cx="-1.004" cy="1.002" r="0.015" />
<circle cx="-1.004" cy="1.102" r="0.015" />
<circle cx="-1.003" cy="1.202" r="0.015" />
<circle cx="-1.003" cy="1.301" r="0.015" />
<circle cx="-1.002" cy="1.401" r="0.015" />
<circle cx="-0.901" cy="-1.501" r="0.015" />
<circle cx="-0.901" cy="-1.401" r="0.015" />
<circle cx="-0.901" cy="-1.301" r="0.015" />
<circle cx="-0.901" cy="-1.201" r="0.015" />
<circle cx="-0.902" cy="-1.101" r="0.015" />
<circle cx="-0.902" cy="-1.002" r="0.015" />
<circle cx="-0.903" cy="-0.902" r="0.015" />
<circle cx="-0.903" cy="-0.802" r="0.015" />
<circle cx="-0.904" cy="-0.702" r="0.015" />
<circle cx="-0.904" cy="-0.602" r="0.015" />
<circle cx="-0.905" cy="-0.502" r="0.015" />
<circle cx="-0.906" cy="-0.402" r="0.015" />
<circle cx="-0.907" cy="-0.302" r="0.015" />
<circle cx="-0.907" cy="-0.202" r="0.015" />
<circle cx="-0.908" cy="-0.102" r="0.015" />
<circle cx="-0.908" cy="-0.001" r="0.015" />
<circle cx="-0.909" cy="0.099" r="0.015" />
<circle cx="-0.909" cy="0.200" r="0.015" />
<circle cx="-0.909" cy="0.300" r="0.015" />
<circle cx="-0.909" cy="0.401" r="0.015" />
<circle cx="-0.908" cy="0.501" r="0.015" />
<circle cx="-0.908" cy="0.601" r="0.015" />
<circle cx="-0.908" cy="0.702" r="0.015" />
<circle cx="-0.907" cy="0.802" r="0.015" />
<circle cx="-0.906" cy="0.902" r="0.015" />
<circle cx="-0.906" cy="1.002" r="0.015" />
<circle cx="-0.905" cy="1.102" r="0.015" />
<circle cx="-0.904" cy="1.202" r="0.015" />
<circle cx="-0.904" cy="1.302" r="0.015" />
<circle cx="-0.903" cy="1.402" r="0.015" />
<circle cx="-0.801" cy="-1.501" r="0.015" />
<circle cx="-0.801" cy="-1.401" r="0.015" />
<circle cx="-0.801" cy="-1.301" r="0.015" />
<circle cx="-0.802" cy="-1.202" r="0.015" />
<circle cx="-0.802" cy="-1.102" r="0.015" />
<circle cx="-0.803" cy="-1.002" r="0.015" />
<circle cx="-0.803" cy="-0.902" r="0.015" />
<circle cx="-0.804" cy="-0.803" r="0.015" />
<circle cx="-0.805" cy="-0.703" r="0.015" />
<circle cx="-0.806" cy="-0.603" r="0.015" />
<circle cx="-0.807" cy="-0.503" r="0.015" />
<circle cx="-0.808" cy="-0.403" r="0.015" />
<circle cx="-0.809" cy="-0.303" r="0.015" />
<circle cx="-0.809" cy="-0.203" r="0.015" />
<circle cx="-0.810" cy="-0.102" r="0.015" />
<circle cx="-0.811" cy="-0.002" r="0.015" />
<circle cx="-0.811" cy="0.099" r="0.015" />
<circle cx="-0.812" cy="0.199" r="0.015" />
<circle cx="-0.812" cy="0.300" r="0.015" />
<circle cx="-0.812" cy="0.401" r="0.015" />
<circle cx="-0.811" cy="0.501" r="0.015" />
<circle cx="-0.811" cy="0.602" r="0.015" />
<circle cx="-0.810" cy="0.702" r="0.015" />
<circle cx="-0.809" cy="0.803" r="0.015" />
<circle cx="-0.808" cy="0.903" r="0.015" />
<circle cx="-0.807" cy="1.003" r="0.015" />
<circle cx="-0.806" cy="1.103" r="0.015" />
<circle cx="-0.805" cy="1.203" r="0.015" />
<circle cx="-0.805" cy="1.303" r="0.015" />
<circle cx="-0.804" cy="1.402" r="0.015" />
<circle cx="-0.701" cy="-1.501" r="0.015" />
<circle cx="-0.701" cy="-1.401" r="0.015" />
<circle cx="-0.702" cy="-1.302" r="0.015" />
<circle cx="-0.702" cy="-1.202" r="0.015" />
<circle cx="-0.703" cy="-1.102" r="0.015" />
<circle cx="-0.703" cy="-1.003" r="0.015" />
<circle cx="-0.704" cy="-0.903" r="0.015" />
<circle cx="-0.705" cy="-0.803" r="0.015" />
<circle cx="-0.706" cy="-0.704" r="0.015" />
<circle cx="-0.707" cy="-0.604" r="0.015" />
<circle cx="-0.709" cy="-0.504" r="0.015" />
<circle cx="-0.710" cy="-0.404" r="0.015" />
<circle cx="-0.711" cy="-0.304" r="0.015" />
<circle cx="-0.712" cy="-0.204" r="0.015" />
<circle cx="-0.714" cy="-0.103" r="0.015" />
<circle cx="-0.715" cy="-0.002" r="0.015" />
<circle cx="-0.715" cy="0.098" r="0.015" />
<circle cx="-0.716" cy="0.199" r="0.015" />
<circle cx="-0.716" cy="0.300" r="0.015" />
<circle cx="-0.716" cy="0.401" r="0.015" />
<circle cx="-0.715" cy="0.502" r="0.015" />
<circle cx="-0.714" cy="0.603" r="0.015" />
<circle cx="-0.713" cy="0.703" r="0.015" />
<circle cx="-0.712" cy="0.804" r="0.015" />
<circle cx="-0.711" cy="0.904" r="0.015" />
<circle cx="-0.709" cy="1.004" r="0.015" />
<circle cx="-0.708" cy="1.104" r="0.015" />
<circle cx="-0.707" cy="1.204" r="0.015" />
<circle cx="-0.706" cy="1.304" r="0.015" />
<circle cx="-0.705" cy="1.403" r="0.015" />
<circle cx="-0.601" cy="-1.501" r="0.015" />
<circle cx="-0.602" cy="-1.402" r="0.015" />
<circle cx="-0.602" cy="-1.302" r="0.015" />
<circle cx="-0.603" cy="-1.203" r="0.015" />
<circle cx="-0.603" cy="-1.103" r="0.015" />
<circle cx="-0.604" cy="-1.004" r="0.015" />
<circle cx="-0.605" cy="-0.904" r="0.015" />
<circle cx="-0.607" cy="-0.805" r="0.015" />
<circle cx="-0.608" cy="-0.705" r="0.015" />
<circle cx="-0.609" cy="-0.605" r="0.015" />
<circle cx="-0.611" cy="-0.506" r="0.015" />
<circle cx="-0.613" cy="-0.406" r="0.015" />
<circle cx="-0.615" cy="-0.305" r="0.015" />
<circle cx="-0.616" cy="-0.205" r="0.015" />
<circle cx="-0.618" cy="-0.104" r="0.015" />
<circle cx="-0.619" cy="-0.003" r="0.015" />
<circle cx="-0.620" cy="0.098" r="0.015" />
<circle cx="-0.621" cy="0.199" r="0.015" />
<circle cx="-0.621" cy="0.300" r="0.015" />
<circle cx="-0.621" cy="0.402" r="0.015" />
<circle cx="-0.620" cy="0.503" r="0.015" />
<circle cx="-0.619" cy="0.604" r="0.015" />
<circle cx="-0.617" cy="0.705" r="0.015" />
<circle cx="-0.616" cy="0.805" r="0.015" />
<circle cx="-0.614" cy="0.906" r="0.015" />
<circle cx="-0.612" cy="1.006" r="0.015" />
<circle cx="-0.610" cy="1.105" r="0.015" />
<circle cx="-0.609" cy="1.205" r="0.015" />
<circle cx="-0.607" cy="1.305" r="0.015" />
<circle cx="-0.606" cy="1.404" r="0.015" />
<circle cx="-0.501" cy="-1.502" r="0.015" />
<circle cx="-0.502" cy="-1.402" r="0.015" />
<circle cx="-0.503" cy="-1.303" r="0.015" />
<circle cx="-0.503" cy="-1.203" r="0.015" />
<circle cx="-0.504" cy="-1.104" r="0.015" />
<circle cx="-0.505" cy="-1.005" r="0.015" />
<circle cx="-0.507" cy="-0.905" r="0.015" />
<circle cx="-0.508" cy="-0.806" r="0.015" />
<circle cx="-0.510" cy="-0.707" r="0.015" />
<circle cx="-0.512" cy="-0.607" r="0.015" />
<circle cx="-0.514" cy="-0.508" r="0.015" />
<circle cx="-0.516" cy="-0.408" r="0.015" />
<circle cx="-0.519" cy="-0.308" r="0.015" />
<circle cx="-0.521" cy="-0.207" r="0.015" />
<circle cx="-0.523" cy="-0.106" r="0.015" />
<circle cx="-0.525" cy="-0.005" r="0.015" />
<circle cx="-0.527" cy="0.097" r="0.015" />
<circle cx="-0.528" cy="0.198" r="0.015" />
<circle cx="-0.528" cy="0.300" r="0.015" />
<circle cx="-0.527" cy="0.402" r="0.015" />
<circle cx="-0.526" cy="0.504" r="0.015" />
<circle cx="-0.525" cy="0.605" r="0.015" />
<circle cx="-0.523" cy="0.707" r="0.015" />
<circle cx="-0.520" cy="0.807" r="0.015" />
<circle cx="-0.518" cy="0.908" r="0.015" />
<circle cx="-0.516" cy="1.008" r="0.015" />
<circle cx="-0.513" cy="1.107" r="0.015" />
<circle cx="-0.511" cy="1.207" r="0.015" />
<circle cx="-0.509" cy="1.306" r="0.015" />
<circle cx="-0.507" cy="1.406" r="0.015" />
<circle cx="-0.402" cy="-1.502" r="0.015" />
<circle cx="-0.402" cy="-1.403" r="0.015" />
<circle cx="-0.403" cy="-1.303" r="0.015" />
<circle cx="-0.404" cy="-1.204" r="0.015" />
<circle cx="-0.405" cy="-1.105" r="0.015" />
<circle cx="-0.406" cy="-1.006" r="0.015" />
<circle cx="-0.408" cy="-0.907" r="0.015" />
<circle cx="-0.410" cy="-0.808" r="0.015" />
<circle cx="-0.412" cy="-0.709" r="0.015" />
<circle cx="-0.415" cy="-0.610" r="0.015" />
<circle cx="-0.418" cy="-0.510" r="0.015" />
<circle cx="-0.421" cy="-0.411" r="0.015" />
<circle cx="-0.424" cy="-0.310" r="0.015" />
<circle cx="-0.428" cy="-0.210" r="0.015" />
<circle cx="-0.431" cy="-0.109" r="0.015" />
<circle cx="-0.433" cy="-0.007" r="0.015" />
<circle cx="-0.435" cy="0.095" r="0.015" />
<circle cx="-0.436" cy="0.198" r="0.015" />
<circle cx="-0.437" cy="0.300" r="0.015" />
<circle cx="-0.436" cy="0.403" r="0.015" />
<circle cx="-0.435" cy="0.506" r="0.015" />
<circle cx="-0.432" cy="0.608" r="0.015" />
<circle cx="-0.429" cy="0.709" r="0.015" />
<circle cx="-0.426" cy="0.810" r="0.015" />
<circle cx="-0.423" cy="0.910" r="0.015" />
<circle cx="-0.420" cy="1.010" r="0.015" />
<circle cx="-0.417" cy="1.110" r="0.015" />
<circle cx="-0.414" cy="1.209" r="0.015" />
<circle cx="-0.411" cy="1.308" r="0.015" />
<circle cx="-0.409" cy="1.408" r="0.015" />
<circle cx="-0.302" cy="-1.503" r="0.015" />
<circle cx="-0.303" cy="-1.403" r="0.015" />
<circle cx="-0.303" cy="-1.304" r="0.015" />
<circle cx="-0.304" cy="-1.205" r="0.015" />
<circle cx="-0.306" cy="-1.106" r="0.015" />
<circle cx="-0.307" cy="-1.008" r="0.015" />
<circle cx="-0.310" cy="-0.909" r="0.015" />
<circle cx="-0.312" cy="-0.810" r="0.015" />
<circle cx="-0.315" cy="-0.712" r="0.015" />
<circle cx="-0.318" cy="-0.613" r="0.015" />
<circle cx="-0.322" cy="-0.514" r="0.015" />
<circle cx="-0.326" cy="-0.414" r="0.015" />
<circle cx="-0.331" cy="-0.314" r="0.015" />
<circle cx="-0.335" cy="-0.213" r="0.015" />
<circle cx="-0.339" cy="-0.112" r="0.015" />
<circle cx="-0.343" cy="-0.010" r="0.015" />
<circle cx="-0.346" cy="0.093" r="0.015" />
<circle cx="-0.348" cy="0.197" r="0.015" />
<circle cx="-0.348" cy="0.301" r="0.015" />
<circle cx="-0.347" cy="0.404" r="0.015" />
<circle cx="-0.345" cy="0.508" r="0.015" />
<circle cx="-0.342" cy="0.611" r="0.015" />
<circle cx="-0.338" cy="0.713" r="0.015" />
<circle cx="-0.334" cy="0.814" r="0.015" />
<circle cx="-0.329" cy="0.914" r="0.015" />
<circle cx="-0.325" cy="1.014" r="0.015" />
<circle cx="-0.321" cy="1.113" r="0.015" />
<circle cx="-0.317" cy="1.212" r="0.015" />
<circle cx="-0.314" cy="1.311" r="0.015" />
<circle cx="-0.311" cy="1.410" r="0.015" />
<circle cx="-0.202" cy="-1.503" r="0.015" />
<circle cx="-0.203" cy="-1.404" r="0.015" />
<circle cx="-0.204" cy="-1.305" r="0.015" />
<circle cx="-0.205" cy="-1.207" r="0.015" />
<circle cx="-0.207" cy="-1.108" r="0.015" />
<circle cx="-0.209" cy="-1.010" r="0.015" />
<circle cx="-0.211" cy="-0.911" r="0.015" />
<circle cx="-0.214" cy="-0.813" r="0.015" />
<circle cx="-0.218" cy="-0.715" r="0.015" />
<circle cx="-0.222" cy="-0.617" r="0.015" />
<circle cx="-0.227" cy="-0.518" r="0.015" />
<circle cx="-0.233" cy="-0.419" r="0.015" />
<circle cx="-0.239" cy="-0.319" r="0.015" />
<circle cx="-0.245" cy="-0.219" r="0.015" />
<circle cx="-0.251" cy="-0.117" r="0.015" />
<circle cx="-0.256" cy="-0.014" r="0.015" />
<circle cx="-0.260" cy="0.091" r="0.015" />
<circle cx="-0.262" cy="0.196" r="0.015" />
<circle cx="-0.263" cy="0.301" r="0.015" />
<circle cx="-0.261" cy="0.406" r="0.015" />
<circle cx="-0.258" cy="0.511" r="0.015" />
<circle cx="-0.254" cy="0.615" r="0.015" />
<circle cx="-0.249" cy="0.718" r="0.015" />
<circle cx="-0.243" cy="0.819" r="0.015" />
<circle cx="-0.237" cy="0.920" r="0.015" />
<circle cx="-0.231" cy="1.019" r="0.015" />
<circle cx="-0.225" cy="1.118" r="0.015" />
<circle cx="-0.221" cy="1.216" r="0.015" />
<circle cx="-0.217" cy="1.315" r="0.015" />
<circle cx="-0.213" cy="1.413" r="0.015" />
<circle cx="-0.102" cy="-1.504" r="0.015" />
<circle cx="-0.103" cy="-1.405" r="0.015" />
<circle cx="-0.104" cy="-1.306" r="0.015" />
<circle cx="-0.106" cy="-1.208" r="0.015" />
<circle cx="-0.108" cy="-1.110" r="0.015" />
<circle cx="-0.110" cy="-1.012" r="0.015" />
<circle cx="-0.113" cy="-0.914" r="0.015" />
<circle cx="-0.117" cy="-0.817" r="0.015" />
<circle cx="-0.121" cy="-0.720" r="0.015" />
<circle cx="-0.127" cy="-0.622" r="0.015" />
<circle cx="-0.133" cy="-0.524" r="0.015" />
<circle cx="-0.140" cy="-0.426" r="0.015" />
<circle cx="-0.148" cy="-0.326" r="0.015" />
<circle cx="-0.156" cy="-0.226" r="0.015" />
<circle cx="-0.164" cy="-0.123" r="0.015" />
<circle cx="-0.171" cy="-0.019" r="0.015" />
<circle cx="-0.177" cy="0.087" r="0.015" />
<circle cx="-0.180" cy="0.194" r="0.015" />
<circle cx="-0.181" cy="0.301" r="0.015" />
<circle cx="-0.179" cy="0.409" r="0.015" />
<circle cx="-0.175" cy="0.515" r="0.015" />
<circle cx="-0.169" cy="0.621" r="0.015" />
<circle cx="-0.161" cy="0.724" r="0.015" />
<circle cx="-0.153" cy="0.826" r="0.015" />
<circle cx="-0.145" cy="0.926" r="0.015" />
<circle cx="-0.138" cy="1.026" r="0.015" />
<circle cx="-0.131" cy="1.124" r="0.015" />
<circle cx="-0.125" cy="1.221" r="0.015" />
<circle cx="-0.120" cy="1.319" r="0.015" />
<circle cx="-0.115" cy="1.416" r="0.015" />
<circle cx="-0.003" cy="-1.505" r="0.015" />
<circle cx="-0.004" cy="-1.406" r="0.015" />
<circle cx="-0.005" cy="-1.308" r="0.015" />
<circle cx="-0.006" cy="-1.210" r="0.015" />
<circle cx="-0.008" cy="-1.112" r="0.015" />
<circle cx="-0.011" cy="-1.015" r="0.015" />
<circle cx="-0.015" cy="-0.918" r="0.015" />
<circle cx="-0.019" cy="-0.822" r="0.015" />
<circle cx="-0.025" cy="-0.725" r="0.015" />
<circle cx="-0.031" cy="-0.629" r="0.015" />
<circle cx="-0.039" cy="-0.532" r="0.015" />
<circle cx="-0.049" cy="-0.435" r="0.015" />
<circle cx="-0.059" cy="-0.336" r="0.015" />
<circle cx="-0.070" cy="-0.235" r="0.015" />
<circle cx="-0.080" cy="-0.132" r="0.015" />
<circle cx="-0.090" cy="-0.026" r="0.015" />
<circle cx="-0.098" cy="0.082" r="0.015" />
<circle cx="-0.102" cy="0.191" r="0.015" />
<circle cx="-0.103" cy="0.302" r="0.015" />
<circle cx="-0.101" cy="0.412" r="0.015" />
<circle cx="-0.095" cy="0.522" r="0.015" />
<circle cx="-0.087" cy="0.629" r="0.015" />
<circle cx="-0.077" cy="0.733" r="0.015" />
<circle cx="-0.066" cy="0.836" r="0.015" />
<circle cx="-0.055" cy="0.936" r="0.015" />
<circle cx="-0.045" cy="1.034" r="0.015" />
<circle cx="-0.036" cy="1.131" r="0.015" />
<circle cx="-0.029" cy="1.228" r="0.015" />
<circle cx="-0.023" cy="1.324" r="0.015" />
<circle cx="-0.017" cy="1.420" r="0.015" />
<circle cx="0.097" cy="-1.506" r="0.015" />
<circle cx="0.096" cy="-1.407" r="0.015" />
<circle cx="0.095" cy="-1.309" r="0.015" />
<circle cx="0.093" cy="-1.212" r="0.015" />
<circle cx="0.091" cy="-1.115" r="0.015" />
<circle cx="0.088" cy="-1.018" r="0.015" />
<circle cx="0.084" cy="-0.922" r="0.015" />
<circle cx="0.079" cy="-0.827" r="0.015" />
<circle cx="0.072" cy="-0.732" r="0.015" />
<circle cx="0.064" cy="-0.637" r="0.015" />
<circle cx="0.054" cy="-0.542" r="0.015" />
<circle cx="0.042" cy="-0.446" r="0.015" />
<circle cx="0.029" cy="-0.348" r="0.015" />
<circle cx="0.015" cy="-0.248" r="0.015" />
<circle cx="0.001" cy="-0.144" r="0.015" />
<circle cx="-0.012" cy="-0.037" r="0.015" />
<circle cx="-0.023" cy="0.074" r="0.015" />
<circle cx="-0.029" cy="0.188" r="0.015" />
<circle cx="-0.031" cy="0.303" r="0.015" />
<circle cx="-0.027" cy="0.418" r="0.015" />
<circle cx="-0.019" cy="0.530" r="0.015" />
<circle cx="-0.008" cy="0.640" r="0.015" />
<circle cx="0.006" cy="0.746" r="0.015" />
<circle cx="0.020" cy="0.848" r="0.015" />
<circle cx="0.034" cy="0.947" r="0.015" />
<circle cx="0.047" cy="1.044" r="0.015" />
<circle cx="0.058" cy="1.140" r="0.015" />
<circle cx="0.067" cy="1.235" r="0.015" />
<circle cx="0.075" cy="1.330" r="0.015" />
<circle cx="0.081" cy="1.425" r="0.015" />
<circle cx="0.197" cy="-1.506" r="0.015" />
<circle cx="0.196" cy="-1.408" r="0.015" />
<circle cx="0.195" cy="-1.311" r="0.015" />
<circle cx="0.193" cy="-1.214" r="0.015" />
<circle cx="0.190" cy="-1.118" r="0.015" />
<circle cx="0.187" cy="-1.022" r="0.015" />
<circle cx="0.182" cy="-0.927" r="0.015" />
<circle cx="0.177" cy="-0.833" r="0.015" />
<circle cx="0.169" cy="-0.740" r="0.015" />
<circle cx="0.160" cy="-0.647" r="0.015" />
<circle cx="0.148" cy="-0.554" r="0.015" />
<circle cx="0.134" cy="-0.460" r="0.015" />
<circle cx="0.117" cy="-0.363" r="0.015" />
<circle cx="0.099" cy="-0.264" r="0.015" />
<circle cx="0.080" cy="-0.160" r="0.015" />
<circle cx="0.062" cy="-0.051" r="0.015" />
<circle cx="0.048" cy="0.064" r="0.015" />
<circle cx="0.039" cy="0.183" r="0.015" />
<circle cx="0.036" cy="0.304" r="0.015" />
<circle cx="0.041" cy="0.425" r="0.015" />
<circle cx="0.053" cy="0.542" r="0.015" />
<circle cx="0.069" cy="0.655" r="0.015" />
<circle cx="0.087" cy="0.762" r="0.015" />
<circle cx="0.106" cy="0.864" r="0.015" />
<circle cx="0.124" cy="0.962" r="0.015" />
<circle cx="0.139" cy="1.058" r="0.015" />
<circle cx="0.152" cy="1.151" r="0.015" />
<circle cx="0.163" cy="1.244" r="0.015" />
<circle cx="0.172" cy="1.337" r="0.015" />
<circle cx="0.179" cy="1.431" r="0.015" />
<circle cx="0.297" cy="-1.507" r="0.015" />
<circle cx="0.296" cy="-1.410" r="0.015" />
<circle cx="0.295" cy="-1.312" r="0.015" />
<circle cx="0.293" cy="-1.216" r="0.015" />
<circle cx="0.290" cy="-1.121" r="0.015" />
<circle cx="0.287" cy="-1.026" r="0.015" />
<circle cx="0.282" cy="-0.933" r="0.015" />
<circle cx="0.275" cy="-0.840" r="0.015" />
<circle cx="0.267" cy="-0.749" r="0.015" />
<circle cx="0.256" cy="-0.658" r="0.015" />
<circle cx="0.243" cy="-0.568" r="0.015" />
<circle cx="0.226" cy="-0.476" r="0.015" />
<circle cx="0.206" cy="-0.383" r="0.015" />
<circle cx="0.183" cy="-0.285" r="0.015" />
<circle cx="0.159" cy="-0.182" r="0.015" />
<circle cx="0.135" cy="-0.070" r="0.015" />
<circle cx="0.115" cy="0.049" r="0.015" />
<circle cx="0.102" cy="0.175" r="0.015" />
<circle cx="0.099" cy="0.306" r="0.015" />
<circle cx="0.106" cy="0.435" r="0.015" />
<circle cx="0.122" cy="0.559" r="0.015" />
<circle cx="0.144" cy="0.675" r="0.015" />
<circle cx="0.168" cy="0.784" r="0.015" />
<circle cx="0.192" cy="0.885" r="0.015" />
<circle cx="0.214" cy="0.981" r="0.015" />
<circle cx="0.233" cy="1.073" r="0.015" />
<circle cx="0.248" cy="1.164" r="0.015" />
<circle cx="0.261" cy="1.255" r="0.015" />
<circle cx="0.270" cy="1.346" r="0.015" />
<circle cx="0.278" cy="1.437" r="0.015" />
<circle cx="0.397" cy="-1.508" r="0.015" />
<circle cx="0.396" cy="-1.411" r="0.015" />
<circle cx="0.395" cy="-1.314" r="0.015" />
<circle cx="0.393" cy="-1.218" r="0.015" />
<circle cx="0.390" cy="-1.124" r="0.015" />
<circle cx="0.387" cy="-1.030" r="0.015" />
<circle cx="0.382" cy="-0.938" r="0.015" />
<circle cx="0.375" cy="-0.848" r="0.015" />
<circle cx="0.367" cy="-0.759" r="0.015" />
<circle cx="0.355" cy="-0.671" r="0.015" />
<circle cx="0.340" cy="-0.584" r="0.015" />
<circle cx="0.321" cy="-0.496" r="0.015" />
<circle cx="0.298" cy="-0.406" r="0.015" />
<circle cx="0.270" cy="-0.312" r="0.015" />
<circle cx="0.240" cy="-0.210" r="0.015" />
<circle cx="0.209" cy="-0.096" r="0.015" />
<circle cx="0.181" cy="0.029" r="0.015" />
<circle cx="0.163" cy="0.165" r="0.015" />
<circle cx="0.159" cy="0.308" r="0.015" />
<circle cx="0.169" cy="0.449" r="0.015" />
<circle cx="0.191" cy="0.582" r="0.015" />
<circle cx="0.220" cy="0.703" r="0.015" />
<circle cx="0.251" cy="0.811" r="0.015" />
<circle cx="0.281" cy="0.911" r="0.015" />
<circle cx="0.307" cy="1.003" r="0.015" />
<circle cx="0.328" cy="1.092" r="0.015" />
<circle cx="0.346" cy="1.179" r="0.015" />
<circle cx="0.360" cy="1.266" r="0.015" />
<circle cx="0.370" cy="1.354" r="0.015" />
<circle cx="0.378" cy="1.444" r="0.015" />
<circle cx="0.498" cy="-1.509" r="0.015" />
<circle cx="0.497" cy="-1.412" r="0.015" />
<circle cx="0.495" cy="-1.316" r="0.015" />
<circle cx="0.494" cy="-1.221" r="0.015" />
<circle cx="0.491" cy="-1.127" r="0.015" />
<circle cx="0.488" cy="-1.034" r="0.015" />
<circle cx="0.483" cy="-0.944" r="0.015" />
<circle cx="0.477" cy="-0.855" r="0.015" />
<circle cx="0.468" cy="-0.769" r="0.015" />
<circle cx="0.456" cy="-0.684" r="0.015" />
<circle cx="0.440" cy="-0.601" r="0.015" />
<circle cx="0.420" cy="-0.518" r="0.015" />
<circle cx="0.394" cy="-0.434" r="0.015" />
<circle cx="0.363" cy="-0.344" r="0.015" />
<circle cx="0.326" cy="-0.244" r="0.015" />
<circle cx="0.287" cy="-0.131" r="0.015" />
<circle cx="0.251" cy="0.002" r="0.015" />
<circle cx="0.227" cy="0.151" r="0.015" />
<circle cx="0.220" cy="0.311" r="0.015" />
<circle cx="0.234" cy="0.469" r="0.015" />
<circle cx="0.264" cy="0.612" r="0.015" />
<circle cx="0.301" cy="0.738" r="0.015" />
<circle cx="0.340" cy="0.846" r="0.015" />
<circle cx="0.375" cy="0.941" r="0.015" />
<circle cx="0.405" cy="1.028" r="0.015" />
<circle cx="0.428" cy="1.112" r="0.015" />
<circle cx="0.447" cy="1.195" r="0.015" />
<circle cx="0.461" cy="1.278" r="0.015" />
<circle cx="0.471" cy="1.364" r="0.015" />
<circle cx="0.479" cy="1.451" r="0.015" />
<circle cx="0.598" cy="-1.510" r="0.015" />
<circle cx="0.597" cy="-1.413" r="0.015" />
<circle cx="0.596" cy="-1.317" r="0.015" />
<circle cx="0.595" cy="-1.223" r="0.015" />
<circle cx="0.592" cy="-1.129" r="0.015" />
<circle cx="0.589" cy="-1.038" r="0.015" />
<circle cx="0.585" cy="-0.949" r="0.015" />
<circle cx="0.579" cy="-0.862" r="0.015" />
<circle cx="0.571" cy="-0.779" r="0.015" />
<circle cx="0.560" cy="-0.698" r="0.015" />
<circle cx="0.545" cy="-0.619" r="0.015" />
<circle cx="0.525" cy="-0.541" r="0.015" />
<circle cx="0.499" cy="-0.463" r="0.015" />
<circle cx="0.466" cy="-0.380" r="0.015" />
<circle cx="0.425" cy="-0.286" r="0.015" />
<circle cx="0.379" cy="-0.174" r="0.015" />
<circle cx="0.333" cy="-0.035" r="0.015" />
<circle cx="0.299" cy="0.132" r="0.015" />
<circle cx="0.290" cy="0.316" r="0.015" />
<circle cx="0.309" cy="0.496" r="0.015" />
<circle cx="0.349" cy="0.652" r="0.015" />
<circle cx="0.396" cy="0.781" r="0.015" />
<circle cx="0.441" cy="0.886" r="0.015" />
<circle cx="0.479" cy="0.975" r="0.015" />
<circle cx="0.510" cy="1.056" r="0.015" />
<circle cx="0.533" cy="1.133" r="0.015" />
<circle cx="0.551" cy="1.211" r="0.015" />
<circle cx="0.565" cy="1.290" r="0.015" />
<circle cx="0.574" cy="1.372" r="0.015" />
<circle cx="0.582" cy="1.457" r="0.015" />
<circle cx="0.698" cy="-1.510" r="0.015" />
<circle cx="0.698" cy="-1.414" r="0.015" />
<circle cx="0.697" cy="-1.318" r="0.015" />
<circle cx="0.696" cy="-1.224" r="0.015" />
<circle cx="0.694" cy="-1.132" r="0.015" />
<circle cx="0.692" cy="-1.041" r="0.015" />
<circle cx="0.688" cy="-0.954" r="0.015" />
<circle cx="0.684" cy="-0.869" r="0.015" />
<circle cx="0.677" cy="-0.787" r="0.015" />
<circle cx="0.668" cy="-0.709" r="0.015" />
<circle cx="0.655" cy="-0.635" r="0.015" />
<circle cx="0.638" cy="-0.563" r="0.015" />
<circle cx="0.614" cy="-0.492" r="0.015" />
<circle cx="0.583" cy="-0.417" r="0.015" />
<circle cx="0.543" cy="-0.331" r="0.015" />
<circle cx="0.494" cy="-0.224" r="0.015" />
<circle cx="0.440" cy="-0.082" r="0.015" />
<circle cx="0.397" cy="0.104" r="0.015" />
<circle cx="0.384" cy="0.322" r="0.015" />
<circle cx="0.410" cy="0.532" r="0.015" />
<circle cx="0.460" cy="0.702" r="0.015" />
<circle cx="0.512" cy="0.830" r="0.015" />
<circle cx="0.559" cy="0.928" r="0.015" />
<circle cx="0.596" cy="1.009" r="0.015" />
<circle cx="0.624" cy="1.082" r="0.015" />
<circle cx="0.645" cy="1.153" r="0.015" />
<circle cx="0.660" cy="1.225" r="0.015" />
<circle cx="0.671" cy="1.301" r="0.015" />
<circle cx="0.680" cy="1.380" r="0.015" />
<circle cx="0.685" cy="1.463" r="0.015" />
<circle cx="0.799" cy="-1.511" r="0.015" />
<circle cx="0.799" cy="-1.414" r="0.015" />
<circle cx="0.798" cy="-1.319" r="0.015" />
<circle cx="0.797" cy="-1.225" r="0.015" />
<circle cx="0.796" cy="-1.133" r="0.015" />
<circle cx="0.795" cy="-1.044" r="0.015" />
<circle cx="0.792" cy="-0.957" r="0.015" />
<circle cx="0.789" cy="-0.873" r="0.015" />
<circle cx="0.785" cy="-0.794" r="0.015" />
<circle cx="0.779" cy="-0.719" r="0.015" />
<circle cx="0.770" cy="-0.648" r="0.015" />
<circle cx="0.758" cy="-0.581" r="0.015" />
<circle cx="0.741" cy="-0.516" r="0.015" />
<circle cx="0.718" cy="-0.449" r="0.015" />
<circle cx="0.686" cy="-0.373" r="0.015" />
<circle cx="0.644" cy="-0.275" r="0.015" />
<circle cx="0.593" cy="-0.136" r="0.015" />
<circle cx="0.543" cy="0.068" r="0.015" />
<circle cx="0.526" cy="0.331" r="0.015" />
<circle cx="0.560" cy="0.578" r="0.015" />
<circle cx="0.613" cy="0.757" r="0.015" />
<circle cx="0.661" cy="0.878" r="0.015" />
<circle cx="0.699" cy="0.966" r="0.015" />
<circle cx="0.727" cy="1.037" r="0.015" />
<circle cx="0.748" cy="1.103" r="0.015" />
<circle cx="0.763" cy="1.168" r="0.015" />
<circle cx="0.773" cy="1.237" r="0.015" />
<circle cx="0.781" cy="1.309" r="0.015" />
<circle cx="0.787" cy="1.386" r="0.015" />
<circle cx="0.790" cy="1.467" r="0.015" />
<circle cx="0.900" cy="-1.511" r="0.015" />
<circle cx="0.899" cy="-1.415" r="0.015" />
<circle cx="0.899" cy="-1.320" r="0.015" />
<circle cx="0.899" cy="-1.226" r="0.015" />
<circle cx="0.899" cy="-1.134" r="0.015" />
<circle cx="0.898" cy="-1.045" r="0.015" />
<circle cx="0.897" cy="-0.959" r="0.015" />
<circle cx="0.896" cy="-0.876" r="0.015" />
<circle cx="0.894" cy="-0.797" r="0.015" />
<circle cx="0.892" cy="-0.724" r="0.015" />
<circle cx="0.888" cy="-0.655" r="0.015" />
<circle cx="0.883" cy="-0.591" r="0.015" />
<circle cx="0.876" cy="-0.530" r="0.015" />
<circle cx="0.867" cy="-0.469" r="0.015" />
<circle cx="0.853" cy="-0.400" r="0.015" />
<circle cx="0.834" cy="-0.312" r="0.015" />
<circle cx="0.808" cy="-0.181" r="0.015" />
<circle cx="0.774" cy="0.027" r="0.015" />
<circle cx="0.756" cy="0.344" r="0.015" />
<circle cx="0.787" cy="0.624" r="0.015" />
<circle cx="0.819" cy="0.799" r="0.015" />
<circle cx="0.842" cy="0.911" r="0.015" />
<circle cx="0.859" cy="0.990" r="0.015" />
<circle cx="0.871" cy="1.055" r="0.015" />
<circle cx="0.879" cy="1.115" r="0.015" />
<circle cx="0.885" cy="1.177" r="0.015" />
<circle cx="0.890" cy="1.243" r="0.015" />
<circle cx="0.893" cy="1.314" r="0.015" />
<circle cx="0.895" cy="1.389" r="0.015" />
<circle cx="0.896" cy="1.469" r="0.015" />
<circle cx="1.000" cy="-1.511" r="0.015" />
<circle cx="1.000" cy="-1.415" r="0.015" />
<circle cx="1.001" cy="-1.320" r="0.015" />
<circle cx="1.001" cy="-1.226" r="0.015" />
<circle cx="1.001" cy="-1.134" r="0.015" />
<circle cx="1.001" cy="-1.045" r="0.015" />
<circle cx="1.002" cy="-0.959" r="0.015" />
<circle cx="1.003" cy="-0.876" r="0.015" />
<circle cx="1.004" cy="-0.798" r="0.015" />
<circle cx="1.006" cy="-0.724" r="0.015" />
<circle cx="1.008" cy="-0.656" r="0.015" />
<circle cx="1.011" cy="-0.592" r="0.015" />
<circle cx="1.016" cy="-0.531" r="0.015" />
<circle cx="1.023" cy="-0.471" r="0.015" />
<circle cx="1.032" cy="-0.403" r="0.015" />
<circle cx="1.045" cy="-0.315" r="0.015" />
<circle cx="1.064" cy="-0.186" r="0.015" />
<circle cx="1.089" cy="0.021" r="0.015" />
<circle cx="1.104" cy="0.347" r="0.015" />
<circle cx="1.079" cy="0.630" r="0.015" />
<circle cx="1.056" cy="0.803" r="0.015" />
<circle cx="1.040" cy="0.914" r="0.015" />
<circle cx="1.028" cy="0.992" r="0.015" />
<circle cx="1.020" cy="1.057" r="0.015" />
<circle cx="1.014" cy="1.117" r="0.015" />
<circle cx="1.010" cy="1.178" r="0.015" />
<circle cx="1.007" cy="1.244" r="0.015" />
<circle cx="1.005" cy="1.314" r="0.015" />
<circle cx="1.004" cy="1.389" r="0.015" />
<circle cx="1.003" cy="1.469" r="0.015" />
<circle cx="1.101" cy="-1.511" r="0.015" />
<circle cx="1.101" cy="-1.415" r="0.015" />
<circle cx="1.102" cy="-1.319" r="0.015" />
<circle cx="1.102" cy="-1.226" r="0.015" />
<circle cx="1.103" cy="-1.134" r="0.015" />
<circle cx="1.105" cy="-1.044" r="0.015" />
<circle cx="1.107" cy="-0.957" r="0.015" />
<circle cx="1.110" cy="-0.874" r="0.015" />
<circle cx="1.114" cy="-0.795" r="0.015" />
<circle cx="1.119" cy="-0.720" r="0.015" />
<circle cx="1.127" cy="-0.650" r="0.015" />
<circle cx="1.138" cy="-0.583" r="0.015" />
<circle cx="1.153" cy="-0.519" r="0.015" />
<circle cx="1.174" cy="-0.454" r="0.015" />
<circle cx="1.203" cy="-0.380" r="0.015" />
<circle cx="1.242" cy="-0.284" r="0.015" />
<circle cx="1.290" cy="-0.146" r="0.015" />
<circle cx="1.340" cy="0.060" r="0.015" />
<circle cx="1.358" cy="0.334" r="0.015" />
<circle cx="1.323" cy="0.588" r="0.015" />
<circle cx="1.271" cy="0.766" r="0.015" />
<circle cx="1.226" cy="0.886" r="0.015" />
<circle cx="1.191" cy="0.972" r="0.015" />
<circle cx="1.166" cy="1.042" r="0.015" />
<circle cx="1.147" cy="1.106" r="0.015" />
<circle cx="1.133" cy="1.171" r="0.015" />
<circle cx="1.124" cy="1.238" r="0.015" />
<circle cx="1.117" cy="1.310" r="0.015" />
<circle cx="1.112" cy="1.387" r="0.015" />
<circle cx="1.108" cy="1.467" r="0.015" />
<circle cx="1.201" cy="-1.511" r="0.015" />
<circle cx="1.202" cy="-1.414" r="0.015" />
<circle cx="1.203" cy="-1.319" r="0.015" />
<circle cx="1.204" cy="-1.224" r="0.015" />
<circle cx="1.206" cy="-1.132" r="0.015" />
<circle cx="1.208" cy="-1.042" r="0.015" />
<circle cx="1.211" cy="-0.954" r="0.015" />
<circle cx="1.215" cy="-0.870" r="0.015" />
<circle cx="1.222" cy="-0.789" r="0.015" />
<circle cx="1.230" cy="-0.711" r="0.015" />
<circle cx="1.242" cy="-0.638" r="0.015" />
<circle cx="1.259" cy="-0.567" r="0.015" />
<circle cx="1.281" cy="-0.497" r="0.015" />
<circle cx="1.312" cy="-0.424" r="0.015" />
<circle cx="1.351" cy="-0.340" r="0.015" />
<circle cx="1.400" cy="-0.234" r="0.015" />
<circle cx="1.454" cy="-0.092" r="0.015" />
<circle cx="1.499" cy="0.098" r="0.015" />
<circle cx="1.513" cy="0.324" r="0.015" />
<circle cx="1.485" cy="0.540" r="0.015" />
<circle cx="1.434" cy="0.712" r="0.015" />
<circle cx="1.381" cy="0.840" r="0.015" />
<circle cx="1.336" cy="0.936" r="0.015" />
<circle cx="1.300" cy="1.015" r="0.015" />
<circle cx="1.272" cy="1.086" r="0.015" />
<circle cx="1.252" cy="1.156" r="0.015" />
<circle cx="1.238" cy="1.228" r="0.015" />
<circle cx="1.227" cy="1.303" r="0.015" />
<circle cx="1.219" cy="1.381" r="0.015" />
<circle cx="1.214" cy="1.464" r="0.015" />
<circle cx="1.302" cy="-1.510" r="0.015" />
<circle cx="1.303" cy="-1.413" r="0.015" />
<circle cx="1.304" cy="-1.317" r="0.015" />
<circle cx="1.305" cy="-1.223" r="0.015" />
<circle cx="1.307" cy="-1.130" r="0.015" />
<circle cx="1.310" cy="-1.039" r="0.015" />
<circle cx="1.314" cy="-0.950" r="0.015" />
<circle cx="1.320" cy="-0.864" r="0.015" />
<circle cx="1.328" cy="-0.780" r="0.015" />
<circle cx="1.339" cy="-0.700" r="0.015" />
<circle cx="1.353" cy="-0.622" r="0.015" />
<circle cx="1.373" cy="-0.546" r="0.015" />
<circle cx="1.399" cy="-0.469" r="0.015" />
<circle cx="1.432" cy="-0.387" r="0.015" />
<circle cx="1.474" cy="-0.295" r="0.015" />
<circle cx="1.521" cy="-0.183" r="0.015" />
<circle cx="1.568" cy="-0.043" r="0.015" />
<circle cx="1.604" cy="0.127" r="0.015" />
<circle cx="1.613" cy="0.317" r="0.015" />
<circle cx="1.593" cy="0.502" r="0.015" />
<circle cx="1.551" cy="0.661" r="0.015" />
<circle cx="1.503" cy="0.790" r="0.015" />
<circle cx="1.458" cy="0.894" r="0.015" />
<circle cx="1.419" cy="0.981" r="0.015" />
<circle cx="1.388" cy="1.061" r="0.015" />
<circle cx="1.365" cy="1.137" r="0.015" />
<circle cx="1.347" cy="1.214" r="0.015" />
<circle cx="1.334" cy="1.292" r="0.015" />
<circle cx="1.325" cy="1.374" r="0.015" />
<circle cx="1.318" cy="1.458" r="0.015" />
<circle cx="1.402" cy="-1.509" r="0.015" />
<circle cx="1.403" cy="-1.412" r="0.015" />
<circle cx="1.404" cy="-1.316" r="0.015" />
<circle cx="1.406" cy="-1.221" r="0.015" />
<circle cx="1.409" cy="-1.127" r="0.015" />
<circle cx="1.412" cy="-1.035" r="0.015" />
<circle cx="1.417" cy="-0.945" r="0.015" />
<circle cx="1.423" cy="-0.857" r="0.015" />
<circle cx="1.432" cy="-0.771" r="0.015" />
<circle cx="1.443" cy="-0.687" r="0.015" />
<circle cx="1.459" cy="-0.605" r="0.015" />
<circle cx="1.479" cy="-0.523" r="0.015" />
<circle cx="1.505" cy="-0.439" r="0.015" />
<circle cx="1.538" cy="-0.350" r="0.015" />
<circle cx="1.575" cy="-0.252" r="0.015" />
<circle cx="1.616" cy="-0.138" r="0.015" />
<circle cx="1.653" cy="-0.005" r="0.015" />
<circle cx="1.680" cy="0.148" r="0.015" />
<circle cx="1.687" cy="0.312" r="0.015" />
<circle cx="1.672" cy="0.473" r="0.015" />
<circle cx="1.641" cy="0.619" r="0.015" />
<circle cx="1.601" cy="0.745" r="0.015" />
<circle cx="1.561" cy="0.853" r="0.015" />
<circle cx="1.525" cy="0.947" r="0.015" />
<circle cx="1.495" cy="1.034" r="0.015" />
<circle cx="1.471" cy="1.116" r="0.015" />
<circle cx="1.453" cy="1.198" r="0.015" />
<circle cx="1.439" cy="1.281" r="0.015" />
<circle cx="1.428" cy="1.365" r="0.015" />
<circle cx="1.421" cy="1.452" r="0.015" />
</g>
</svg>