<svg xmlns="http://www.w3.org/2000/svg" width="161.8" height="100.0" viewBox="-5.0 -5.0 171.8 110.0">
<g fill="none" stroke="black" stroke-width="0.2950%" transform="translate(0, 100.0000) scale(1.6949, -1.6949)">
<circle cx="0.0" cy="0.0" r="0.3" />
<circle cx="0.0" cy="59.0" r="0.3" />
<polyline points="0.0,0.0 0.0,0.0 0.0,1.0 4.4,1.0 4.4,2.0 5.1,2.0 5.1,3.0 24.2,3.0 24.2,4.0 37.7,4.0 37.7,5.0 47.0,5.0 47.0,6.0 55.6,6.0 55.6,7.0 55.9,7.0 55.9,8.0 55.9,8.0 55.9,9.0 61.5,9.0 61.5,10.0 75.8,10.0 75.8,11.0 83.0,11.0 83.0,12.0 85.3,12.0" />
<polyline points="0.0,0.0 0.0,0.0 0.0,1.0 2.6,1.0 2.6,2.0 3.1,2.0 3.1,3.0 14.5,3.0 14.5,4.0 22.6,4.0 22.6,5.0 28.2,5.0 28.2,6.0 33.4,6.0 33.4,7.0 33.5,7.0 33.5,8.0 33.6,8.0 33.6,9.0 36.9,9.0 36.9,10.0 45.5,10.0 45.5,11.0 49.8,11.0 49.8,12.0 51.2,12.0 51.2,13.0 72.8,13.0 72.8,14.0 83.7,14.0 83.7,15.0 89.5,15.0 89.5,16.0 91.0,16.0" />
<polyline points="0.0,0.0 0.0,0.0 0.0,1.0 0.8,1.0 0.8,2.0 0.9,2.0 0.9,3.0 4.1,3.0 4.1,4.0 6.5,4.0 6.5,5.0 8.1,5.0 8.1,6.0 9.5,6.0 9.5,7.0 9.6,7.0 9.6,8.0 9.6,8.0 9.6,9.0 10.5,9.0 10.5,10.0 13.0,10.0 13.0,11.0 14.2,11.0 14.2,12.0 14.6,12.0 14.6,13.0 20.8,13.0 20.8,14.0 23.9,14.0 23.9,15.0 25.6,15.0 25.6,16.0 26.0,16.0 26.0,17.0 28.3,17.0 28.3,18.0 28.7,18.0 28.7,19.0 30.2,19.0 30.2,20.0 31.7,20.0 31.7,21.0 31.7,21.0 31.7,22.0 33.1,22.0 33.1,23.0 34.1,23.0 34.1,24.0 35.9,24.0 35.9,25.0 36.4,25.0 36.4,26.0 36.6,26.0 36.6,27.0 37.2,27.0 37.2,28.0 38.3,28.0 38.3,29.0 39.9,29.0 39.9,30.0 44.9,30.0 44.9,31.0 46.6,31.0 46.6,32.0 48.4,32.0 48.4,33.0 48.8,33.0 48.8,34.0 55.1,34.0 55.1,35.0 56.1,35.0 56.1,36.0 57.8,36.0 57.8,37.0 58.4,37.0 58.4,38.0 60.0,38.0 60.0,39.0 60.2,39.0 60.2,40.0 63.5,40.0 63.5,41.0 63.6,41.0 63.6,42.0 68.7,42.0 68.7,43.0 68.8,43.0 68.8,44.0 69.3,44.0 69.3,45.0 69.8,45.0 69.8,46.0 71.5,46.0 71.5,47.0 73.6,47.0 73.6,48.0 74.8,48.0 74.8,49.0 75.5,49.0 75.5,50.0 78.6,50.0 78.6,51.0 81.2,51.0 81.2,52.0 81.7,52.0 81.7,53.0 84.7,53.0 84.7,54.0 86.3,54.0 86.3,55.0 86.9,55.0 86.9,56.0 91.8,56.0 91.8,57.0 93.9,57.0 93.9,58.0 95.2,58.0 95.2,59.0 95.5,59.0" />
</g>
</svg>