<svg xmlns="http://www.w3.org/2000/svg" width="161.8" height="100.0" viewBox="-5.00 -5.00 171.80 110.00">
<g fill="none" stroke="black" stroke-width="0.0950%" transform="translate(0, 100.0000) scale(5.2632, -5.2632)">
<polyline points="0.00,0.00 0.00,0.00 0.00,1.00 1.14,1.00 1.14,2.00 2.02,2.00 2.02,3.00 4.35,3.00 4.35,4.00 5.78,4.00 5.78,5.00 7.56,5.00 7.56,6.00 8.45,6.00 8.45,7.00 13.11,7.00 13.11,8.00 13.20,8.00 13.20,9.00 13.50,9.00 13.50,10.00 14.29,10.00 14.29,11.00 15.67,11.00 15.67,12.00 16.06,12.00 16.06,13.00 17.30,13.00 17.30,14.00 21.19,14.00 21.19,15.00 25.66,15.00 25.66,16.00 27.42,16.00 27.42,17.00 29.31,17.00 29.31,18.00 29.56,18.00 29.56,19.00 30.74,19.00" />
</g>
</svg>