<svg xmlns="http://www.w3.org/2000/svg" width="236.7" height="100.0" viewBox="-9.528 -9.503 246.735 110.000">
<g fill="none" stroke="black" stroke-width="0.0110%" transform="translate(0, 90.9933) scale(45.5708, -45.5708)">
<circle cx="2.992" cy="1.962" r="0.100" />
<circle cx="2.963" cy="1.765" r="0.100" />
<circle cx="2.774" cy="1.699" r="0.100" />
<circle cx="3.164" cy="1.861" r="0.100" />
<circle cx="2.792" cy="1.972" r="0.100" />
<circle cx="2.592" cy="1.981" r="0.100" />
<circle cx="2.396" cy="1.942" r="0.100" />
<circle cx="2.565" cy="1.783" r="0.100" />
<circle cx="2.612" cy="1.582" r="0.100" />
<circle cx="2.946" cy="1.565" r="0.100" />
<circle cx="2.795" cy="1.434" r="0.100" />
<circle cx="3.325" cy="1.742" r="0.100" />
<circle cx="2.599" cy="1.382" r="0.100" />
<circle cx="2.440" cy="1.261" r="0.100" />
<circle cx="3.021" cy="1.380" r="0.100" />
<circle cx="2.416" cy="1.625" r="0.100" />
<circle cx="2.220" cy="1.848" r="0.100" />
<circle cx="2.327" cy="1.426" r="0.100" />
<circle cx="2.243" cy="1.226" r="0.100" />
<circle cx="3.503" cy="1.652" r="0.100" />
<circle cx="2.216" cy="1.631" r="0.100" />
<circle cx="2.782" cy="1.234" r="0.100" />
<circle cx="3.486" cy="1.860" r="0.100" />
<circle cx="3.160" cy="1.628" r="0.100" />
<circle cx="3.682" cy="1.902" r="0.100" />
<circle cx="3.223" cy="1.438" r="0.100" />
<circle cx="3.654" cy="1.520" r="0.100" />
<circle cx="2.128" cy="1.390" r="0.100" />
<circle cx="3.192" cy="1.241" r="0.100" />
<circle cx="3.789" cy="1.667" r="0.100" />
<circle cx="3.099" cy="1.063" r="0.100" />
<circle cx="2.033" cy="1.711" r="0.100" />
<circle cx="2.398" cy="1.065" r="0.100" />
<circle cx="2.262" cy="0.918" r="0.100" />
<circle cx="3.465" cy="1.453" r="0.100" />
<circle cx="3.233" cy="0.915" r="0.100" />
<circle cx="3.981" cy="1.724" r="0.100" />
<circle cx="2.073" cy="1.983" r="0.100" />
<circle cx="3.312" cy="1.995" r="0.100" />
<circle cx="1.873" cy="1.976" r="0.100" />
<circle cx="3.130" cy="0.744" r="0.100" />
<circle cx="3.341" cy="1.108" r="0.100" />
<circle cx="1.837" cy="1.751" r="0.100" />
<circle cx="3.643" cy="1.320" r="0.100" />
<circle cx="2.049" cy="1.177" r="0.100" />
<circle cx="3.957" cy="1.525" r="0.100" />
<circle cx="1.927" cy="1.336" r="0.100" />
<circle cx="3.882" cy="1.908" r="0.100" />
<circle cx="1.819" cy="1.504" r="0.100" />
<circle cx="4.105" cy="1.390" r="0.100" />
<circle cx="4.141" cy="1.604" r="0.100" />
<circle cx="2.622" cy="1.114" r="0.100" />
<circle cx="2.817" cy="1.037" r="0.100" />
<circle cx="4.308" cy="1.494" r="0.100" />
<circle cx="1.731" cy="1.294" r="0.100" />
<circle cx="2.196" cy="0.729" r="0.100" />
<circle cx="2.487" cy="0.886" r="0.100" />
<circle cx="1.688" cy="1.884" r="0.100" />
<circle cx="3.544" cy="1.147" r="0.100" />
<circle cx="2.072" cy="0.979" r="0.100" />
<circle cx="3.960" cy="1.253" r="0.100" />
<circle cx="1.617" cy="1.459" r="0.100" />
<circle cx="4.186" cy="1.208" r="0.100" />
<circle cx="4.162" cy="1.810" r="0.100" />
<circle cx="2.930" cy="0.728" r="0.100" />
<circle cx="3.460" cy="0.947" r="0.100" />
<circle cx="2.745" cy="0.654" r="0.100" />
<circle cx="3.467" cy="0.747" r="0.100" />
<circle cx="3.658" cy="0.982" r="0.100" />
<circle cx="4.338" cy="1.715" r="0.100" />
<circle cx="4.503" cy="1.603" r="0.100" />
<circle cx="1.522" cy="1.996" r="0.100" />
<circle cx="1.517" cy="1.780" r="0.100" />
<circle cx="4.138" cy="1.013" r="0.100" />
<circle cx="4.366" cy="1.303" r="0.100" />
<circle cx="4.375" cy="1.103" r="0.100" />
<circle cx="4.323" cy="1.928" r="0.100" />
<circle cx="1.886" cy="1.053" r="0.100" />
<circle cx="2.711" cy="0.868" r="0.100" />
<circle cx="2.411" cy="0.701" r="0.100" />
<circle cx="4.570" cy="1.415" r="0.100" />
<circle cx="4.563" cy="1.215" r="0.100" />
<circle cx="4.504" cy="1.826" r="0.100" />
<circle cx="1.453" cy="1.572" r="0.100" />
<circle cx="1.322" cy="1.737" r="0.100" />
<circle cx="3.788" cy="1.150" r="0.100" />
<circle cx="2.917" cy="0.528" r="0.100" />
<circle cx="4.312" cy="0.913" r="0.100" />
<circle cx="4.066" cy="1.986" r="0.100" />
<circle cx="4.757" cy="1.344" r="0.100" />
<circle cx="4.701" cy="1.574" r="0.100" />
<circle cx="3.887" cy="0.976" r="0.100" />
<circle cx="3.137" cy="0.544" r="0.100" />
<circle cx="1.687" cy="1.073" r="0.100" />
<circle cx="3.640" cy="0.646" r="0.100" />
<circle cx="3.037" cy="0.368" r="0.100" />
<circle cx="4.768" cy="1.145" r="0.100" />
<circle cx="4.702" cy="1.794" r="0.100" />
<circle cx="4.894" cy="1.519" r="0.100" />
<circle cx="3.265" cy="0.391" r="0.100" />
<circle cx="3.356" cy="0.581" r="0.100" />
<circle cx="3.791" cy="0.801" r="0.100" />
<circle cx="1.931" cy="0.837" r="0.100" />
<circle cx="3.694" cy="0.453" r="0.100" />
<circle cx="3.864" cy="0.615" r="0.100" />
<circle cx="3.990" cy="0.776" r="0.100" />
<circle cx="1.261" cy="1.516" r="0.100" />
<circle cx="3.015" cy="0.169" r="0.100" />
<circle cx="4.519" cy="0.964" r="0.100" />
<circle cx="2.734" cy="0.448" r="0.100" />
<circle cx="4.178" cy="0.709" r="0.100" />
<circle cx="3.479" cy="0.423" r="0.100" />
<circle cx="2.559" cy="0.544" r="0.100" />
<circle cx="4.972" cy="1.335" r="0.100" />
<circle cx="1.415" cy="1.376" r="0.100" />
<circle cx="4.613" cy="1.994" r="0.100" />
<circle cx="3.252" cy="0.191" r="0.100" />
<circle cx="4.813" cy="1.980" r="0.100" />
<circle cx="4.932" cy="1.820" r="0.100" />
<circle cx="2.014" cy="0.645" r="0.100" />
<circle cx="1.503" cy="0.995" r="0.100" />
<circle cx="1.698" cy="0.874" r="0.100" />
<circle cx="2.578" cy="0.323" r="0.100" />
<circle cx="3.448" cy="0.153" r="0.100" />
<circle cx="1.095" cy="1.404" r="0.100" />
<circle cx="4.722" cy="0.950" r="0.100" />
<circle cx="1.376" cy="1.149" r="0.100" />
<circle cx="3.145" cy="0.017" r="0.100" />
<circle cx="3.692" cy="0.254" r="0.100" />
<circle cx="2.191" cy="0.529" r="0.100" />
<circle cx="4.074" cy="0.538" r="0.100" />
<circle cx="3.646" cy="0.059" r="0.100" />
<circle cx="1.121" cy="1.659" r="0.100" />
<circle cx="4.996" cy="1.136" r="0.100" />
<circle cx="3.904" cy="0.419" r="0.100" />
<circle cx="1.191" cy="1.226" r="0.100" />
<circle cx="3.903" cy="0.219" r="0.100" />
<circle cx="2.850" cy="0.282" r="0.100" />
<circle cx="3.844" cy="0.027" r="0.100" />
<circle cx="1.939" cy="0.460" r="0.100" />
<circle cx="1.233" cy="1.009" r="0.100" />
<circle cx="2.387" cy="0.443" r="0.100" />
<circle cx="0.938" cy="1.529" r="0.100" />
<circle cx="1.798" cy="0.602" r="0.100" />
<circle cx="4.958" cy="0.940" r="0.100" />
<circle cx="1.749" cy="0.397" r="0.100" />
<circle cx="1.168" cy="0.820" r="0.100" />
<circle cx="4.308" cy="0.557" r="0.100" />
<circle cx="4.043" cy="0.019" r="0.100" />
<circle cx="4.615" cy="0.781" r="0.100" />
<circle cx="4.094" cy="0.339" r="0.100" />
<circle cx="1.042" cy="1.068" r="0.100" />
<circle cx="0.924" cy="1.300" r="0.100" />
<circle cx="4.243" cy="0.032" r="0.100" />
<circle cx="2.108" cy="0.348" r="0.100" />
<circle cx="1.610" cy="0.671" r="0.100" />
<circle cx="1.042" cy="0.665" r="0.100" />
<circle cx="1.551" cy="0.480" r="0.100" />
<circle cx="1.271" cy="0.649" r="0.100" />
<circle cx="0.910" cy="1.727" r="0.100" />
<circle cx="0.972" cy="0.859" r="0.100" />
<circle cx="2.308" cy="0.259" r="0.100" />
<circle cx="1.926" cy="0.260" r="0.100" />
<circle cx="2.153" cy="0.132" r="0.100" />
<circle cx="1.295" cy="1.935" r="0.100" />
<circle cx="4.406" cy="0.737" r="0.100" />
<circle cx="1.376" cy="0.840" r="0.100" />
<circle cx="0.759" cy="1.414" r="0.100" />
<circle cx="4.536" cy="0.585" r="0.100" />
<circle cx="0.842" cy="1.076" r="0.100" />
<circle cx="4.281" cy="0.267" r="0.100" />
<circle cx="1.014" cy="0.467" r="0.100" />
<circle cx="0.786" cy="1.884" r="0.100" />
<circle cx="0.697" cy="1.214" r="0.100" />
<circle cx="4.987" cy="0.742" r="0.100" />
<circle cx="1.779" cy="0.125" r="0.100" />
<circle cx="0.719" cy="1.669" r="0.100" />
<circle cx="1.598" cy="0.266" r="0.100" />
<circle cx="0.773" cy="0.883" r="0.100" />
<circle cx="1.971" cy="0.049" r="0.100" />
<circle cx="1.428" cy="0.161" r="0.100" />
<circle cx="0.574" cy="0.899" r="0.100" />
<circle cx="1.612" cy="0.015" r="0.100" />
<circle cx="4.443" cy="0.022" r="0.100" />
<circle cx="2.493" cy="0.142" r="0.100" />
<circle cx="4.477" cy="0.232" r="0.100" />
<circle cx="1.219" cy="0.455" r="0.100" />
<circle cx="4.615" cy="0.377" r="0.100" />
<circle cx="4.752" cy="0.636" r="0.100" />
<circle cx="0.688" cy="0.702" r="0.100" />
<circle cx="4.963" cy="0.543" r="0.100" />
<circle cx="2.308" cy="0.005" r="0.100" />
<circle cx="0.561" cy="1.361" r="0.100" />
<circle cx="0.449" cy="1.527" r="0.100" />
<circle cx="0.503" cy="0.626" r="0.100" />
<circle cx="1.129" cy="0.277" r="0.100" />
<circle cx="0.587" cy="1.864" r="0.100" />
<circle cx="4.648" cy="0.127" r="0.100" />
<circle cx="4.820" cy="0.404" r="0.100" />
<circle cx="0.317" cy="0.702" r="0.100" />
<circle cx="0.355" cy="0.491" r="0.100" />
<circle cx="0.364" cy="1.325" r="0.100" />
<circle cx="0.875" cy="0.324" r="0.100" />
<circle cx="0.848" cy="0.579" r="0.100" />
<circle cx="0.576" cy="0.440" r="0.100" />
<circle cx="0.695" cy="0.236" r="0.100" />
<circle cx="4.822" cy="0.029" r="0.100" />
<circle cx="1.097" cy="1.966" r="0.100" />
<circle cx="0.515" cy="1.132" r="0.100" />
<circle cx="0.454" cy="0.282" r="0.100" />
<circle cx="0.254" cy="0.290" r="0.100" />
<circle cx="0.863" cy="0.124" r="0.100" />
<circle cx="0.378" cy="0.936" r="0.100" />
<circle cx="2.839" cy="0.074" r="0.100" />
<circle cx="1.238" cy="0.098" r="0.100" />
<circle cx="0.168" cy="0.834" r="0.100" />
<circle cx="0.599" cy="0.061" r="0.100" />
<circle cx="0.414" cy="1.724" r="0.100" />
<circle cx="0.057" cy="0.259" r="0.100" />
<circle cx="0.291" cy="1.116" r="0.100" />
<circle cx="0.425" cy="1.980" r="0.100" />
<circle cx="0.253" cy="1.842" r="0.100" />
<circle cx="4.985" cy="0.291" r="0.100" />
<circle cx="0.377" cy="0.097" r="0.100" />
<circle cx="0.252" cy="1.558" r="0.100" />
<circle cx="0.159" cy="0.530" r="0.100" />
<circle cx="0.021" cy="0.698" r="0.100" />
<circle cx="2.648" cy="0.016" r="0.100" />
<circle cx="0.165" cy="1.342" r="0.100" />
<circle cx="1.021" cy="0.001" r="0.100" />
<circle cx="0.001" cy="0.067" r="0.100" />
<circle cx="0.195" cy="0.014" r="0.100" />
<circle cx="0.077" cy="1.937" r="0.100" />
<circle cx="0.105" cy="1.707" r="0.100" />
<circle cx="0.021" cy="1.526" r="0.100" />
<circle cx="0.093" cy="1.143" r="0.100" />
<circle cx="0.010" cy="0.957" r="0.100" />
</g>
</svg>