<svg xmlns="http://www.w3.org/2000/svg" width="161.8" height="100.0" viewBox="-5.0 -5.0 171.8 110.0">
<g fill="none" stroke="black" stroke-width="0.2100%" transform="translate(0, 100.0000) scale(2.3810, -2.3810)">
<circle cx="0.0" cy="0.0" r="0.2" />
<circle cx="0.0" cy="42.0" r="0.2" />
<polyline points="0.0,0.0 0.0,0.0 0.0,1.0 1.0,1.0 1.0,2.0 1.7,2.0 1.7,3.0 2.4,3.0 2.4,4.0 3.1,4.0 3.1,5.0 4.3,5.0 4.3,6.0 8.0,6.0 8.0,7.0 8.1,7.0 8.1,8.0 8.5,8.0 8.5,9.0 12.3,9.0 12.3,10.0 12.8,10.0 12.8,11.0 18.3,11.0 18.3,12.0 19.9,12.0 19.9,13.0 26.1,13.0 26.1,14.0 26.9,14.0 26.9,15.0 28.6,15.0 28.6,16.0 30.1,16.0 30.1,17.0 35.3,17.0 35.3,18.0 35.6,18.0 35.6,19.0 36.5,19.0 36.5,20.0 37.5,20.0 37.5,21.0 39.0,21.0 39.0,22.0 41.0,22.0 41.0,23.0 43.1,23.0 43.1,24.0 43.8,24.0 43.8,25.0 45.5,25.0 45.5,26.0 46.2,26.0 46.2,27.0 46.4,27.0 46.4,28.0 49.0,28.0 49.0,29.0 50.7,29.0 50.7,30.0 52.5,30.0 52.5,31.0 53.4,31.0 53.4,32.0 54.2,32.0 54.2,33.0 54.3,33.0 54.3,34.0 55.6,34.0 55.6,35.0 56.3,35.0 56.3,36.0 56.4,36.0 56.4,37.0 57.1,37.0 57.1,38.0 60.3,38.0 60.3,39.0 60.7,39.0 60.7,40.0 62.1,40.0 62.1,41.0 64.2,41.0" />
<polyline points="0.0,0.0 0.0,0.0 0.0,1.0 0.5,1.0 0.5,2.0 1.5,2.0 1.5,3.0 4.2,3.0 4.2,4.0 8.7,4.0 8.7,5.0 9.7,5.0 9.7,6.0 13.1,6.0 13.1,7.0 13.4,7.0 13.4,8.0 17.2,8.0 17.2,9.0 17.7,9.0 17.7,10.0 18.1,10.0 18.1,11.0 18.6,11.0 18.6,12.0 19.1,12.0 19.1,13.0 19.3,13.0 19.3,14.0 23.6,14.0 23.6,15.0 24.2,15.0 24.2,16.0 24.5,16.0 24.5,17.0 26.5,17.0 26.5,18.0 31.7,18.0 31.7,19.0 31.9,19.0 31.9,20.0 32.2,20.0 32.2,21.0 46.5,21.0 46.5,22.0 49.2,22.0 49.2,23.0 49.6,23.0 49.6,24.0 53.6,24.0 53.6,25.0 53.8,25.0 53.8,26.0 54.4,26.0 54.4,27.0 54.9,27.0 54.9,28.0 55.8,28.0 55.8,29.0 57.2,29.0 57.2,30.0 57.3,30.0 57.3,31.0 59.3,31.0 59.3,32.0 62.5,32.0 62.5,33.0 62.8,33.0 62.8,34.0 62.9,34.0 62.9,35.0 63.1,35.0 63.1,36.0 63.7,36.0 63.7,37.0 64.4,37.0 64.4,38.0 68.0,38.0" />
<polyline points="0.0,0.0 0.0,0.0 0.0,1.0 1.2,1.0 1.2,2.0 3.7,2.0 3.7,3.0 4.1,3.0 4.1,4.0 4.8,4.0 4.8,5.0 5.5,5.0 5.5,6.0 6.1,6.0 6.1,7.0 10.1,7.0 10.1,8.0 10.1,8.0 10.1,9.0 14.7,9.0 14.7,10.0 22.9,10.0 22.9,11.0 25.9,11.0 25.9,12.0 29.6,12.0 29.6,13.0 29.9,13.0 29.9,14.0 30.4,14.0 30.4,15.0 30.6,15.0 30.6,16.0 31.8,16.0 31.8,17.0 34.2,17.0 34.2,18.0 37.1,18.0 37.1,19.0 37.2,19.0 37.2,20.0 37.4,20.0 37.4,21.0 41.3,21.0 41.3,22.0 41.4,22.0 41.4,23.0 42.6,23.0 42.6,24.0 44.8,24.0 44.8,25.0 46.4,25.0 46.4,26.0 47.5,26.0 47.5,27.0 49.0,27.0 49.0,28.0 49.0,28.0 49.0,29.0 52.4,29.0 52.4,30.0 52.9,30.0 52.9,31.0 53.3,31.0 53.3,32.0 54.1,32.0 54.1,33.0 58.4,33.0 58.4,34.0 60.2,34.0 60.2,35.0 61.5,35.0 61.5,36.0 62.3,36.0" />
<polyline points="0.0,0.0 0.0,0.0 0.0,1.0 1.3,1.0 1.3,2.0 3.6,2.0 3.6,3.0 4.7,3.0 4.7,4.0 5.1,4.0 5.1,5.0 5.6,5.0 5.6,6.0 7.2,6.0 7.2,7.0 7.7,7.0 7.7,8.0 11.8,8.0 11.8,9.0 12.6,9.0 12.6,10.0 13.4,10.0 13.4,11.0 15.0,11.0 15.0,12.0 16.0,12.0 16.0,13.0 17.1,13.0 17.1,14.0 18.0,14.0 18.0,15.0 19.3,15.0 19.3,16.0 23.4,16.0 23.4,17.0 25.1,17.0 25.1,18.0 26.9,18.0 26.9,19.0 28.9,19.0 28.9,20.0 30.2,20.0 30.2,21.0 32.6,21.0 32.6,22.0 33.1,22.0 33.1,23.0 33.6,23.0 33.6,24.0 35.9,24.0 35.9,25.0 38.4,25.0 38.4,26.0 38.5,26.0 38.5,27.0 38.9,27.0 38.9,28.0 39.6,28.0 39.6,29.0 40.4,29.0 40.4,30.0 41.0,30.0 41.0,31.0 42.5,31.0 42.5,32.0 45.1,32.0 45.1,33.0 45.8,33.0 45.8,34.0 47.5,34.0 47.5,35.0 50.3,35.0 50.3,36.0 53.3,36.0 53.3,37.0 56.9,37.0 56.9,38.0 60.6,38.0 60.6,39.0 61.0,39.0 61.0,40.0 66.3,40.0 66.3,41.0 66.8,41.0 66.8,42.0 67.7,42.0" />
</g>
</svg>