<svg xmlns="http://www.w3.org/2000/svg" width="161.8" height="100.0" viewBox="-4 -5 172 110">
<g fill="none" stroke="black" stroke-width="11.3250%" transform="translate(0, 100.0000) scale(0.0442, -0.0442)">
<circle cx="19" cy="0" r="11" />
<line x1="19" y1="0" x2="19" y2="555" />
<line x1="56" y1="0" x2="56" y2="0" />
<line x1="93" y1="0" x2="93" y2="0" />
<line x1="130" y1="0" x2="130" y2="0" />
<line x1="167" y1="0" x2="167" y2="0" />
<line x1="204" y1="0" x2="204" y2="0" />
<line x1="241" y1="0" x2="241" y2="0" />
<line x1="278" y1="0" x2="278" y2="0" />
<line x1="315" y1="0" x2="315" y2="0" />
<line x1="352" y1="0" x2="352" y2="0" />
<line x1="389" y1="0" x2="389" y2="1452" />
<line x1="426" y1="0" x2="426" y2="0" />
<line x1="463" y1="0" x2="463" y2="0" />
<line x1="500" y1="0" x2="500" y2="0" />
<line x1="537" y1="0" x2="537" y2="0" />
<line x1="574" y1="0" x2="574" y2="0" />
<line x1="611" y1="0" x2="611" y2="0" />
<line x1="648" y1="0" x2="648" y2="0" />
<line x1="685" y1="0" x2="685" y2="0" />
<line x1="722" y1="0" x2="722" y2="2217" />
<line x1="759" y1="0" x2="759" y2="0" />
<line x1="796" y1="0" x2="796" y2="0" />
<line x1="833" y1="0" x2="833" y2="0" />
<line x1="870" y1="0" x2="870" y2="0" />
<line x1="907" y1="0" x2="907" y2="0" />
<line x1="944" y1="0" x2="944" y2="0" />
<line x1="981" y1="0" x2="981" y2="0" />
<line x1="1018" y1="0" x2="1018" y2="0" />
<line x1="1055" y1="0" x2="1055" y2="0" />
<line x1="1092" y1="0" x2="1092" y2="2265" />
<line x1="1129" y1="0" x2="1129" y2="0" />
<line x1="1166" y1="0" x2="1166" y2="0" />
<line x1="1203" y1="0" x2="1203" y2="0" />
<line x1="1240" y1="0" x2="1240" y2="0" />
<line x1="1277" y1="0" x2="1277" y2="0" />
<line x1="1314" y1="0" x2="1314" y2="0" />
<line x1="1351" y1="0" x2="1351" y2="0" />
<line x1="1388" y1="0" x2="1388" y2="0" />
<line x1="1425" y1="0" x2="1425" y2="0" />
<line x1="1462" y1="0" x2="1462" y2="1658" />
<line x1="1499" y1="0" x2="1499" y2="0" />
<line x1="1536" y1="0" x2="1536" y2="0" />
<line x1="1573" y1="0" x2="1573" y2="0" />
<line x1="1610" y1="0" x2="1610" y2="0" />
<line x1="1647" y1="0" x2="1647" y2="0" />
<line x1="1684" y1="0" x2="1684" y2="0" />
<line x1="1721" y1="0" x2="1721" y2="0" />
<line x1="1758" y1="0" x2="1758" y2="0" />
<line x1="1795" y1="0" x2="1795" y2="0" />
<line x1="1832" y1="0" x2="1832" y2="0" />
<line x1="1869" y1="0" x2="1869" y2="1006" />
<line x1="1906" y1="0" x2="1906" y2="0" />
<line x1="1943" y1="0" x2="1943" y2="0" />
<line x1="1980" y1="0" x2="1980" y2="0" />
<line x1="2018" y1="0" x2="2018" y2="0" />
<line x1="2055" y1="0" x2="2055" y2="0" />
<line x1="2092" y1="0" x2="2092" y2="0" />
<line x1="2129" y1="0" x2="2129" y2="0" />
<line x1="2166" y1="0" x2="2166" y2="0" />
<line x1="2203" y1="0" x2="2203" y2="0" />
<line x1="2240" y1="0" x2="2240" y2="507" />
<line x1="2277" y1="0" x2="2277" y2="0" />
<line x1="2314" y1="0" x2="2314" y2="0" />
<line x1="2351" y1="0" x2="2351" y2="0" />
<line x1="2388" y1="0" x2="2388" y2="0" />
<line x1="2425" y1="0" x2="2425" y2="0" />
<line x1="2462" y1="0" x2="2462" y2="0" />
<line x1="2499" y1="0" x2="2499" y2="0" />
<line x1="2536" y1="0" x2="2536" y2="0" />
<line x1="2573" y1="0" x2="2573" y2="0" />
<line x1="2610" y1="0" x2="2610" y2="224" />
<line x1="2647" y1="0" x2="2647" y2="0" />
<line x1="2684" y1="0" x2="2684" y2="0" />
<line x1="2721" y1="0" x2="2721" y2="0" />
<line x1="2758" y1="0" x2="2758" y2="0" />
<line x1="2795" y1="0" x2="2795" y2="0" />
<line x1="2832" y1="0" x2="2832" y2="0" />
<line x1="2869" y1="0" x2="2869" y2="0" />
<line x1="2906" y1="0" x2="2906" y2="0" />
<line x1="2943" y1="0" x2="2943" y2="0" />
<line x1="2980" y1="0" x2="2980" y2="82" />
<line x1="3017" y1="0" x2="3017" y2="0" />
<line x1="3054" y1="0" x2="3054" y2="0" />
<line x1="3091" y1="0" x2="3091" y2="0" />
<line x1="3128" y1="0" x2="3128" y2="0" />
<line x1="3165" y1="0" x2="3165" y2="0" />
<line x1="3202" y1="0" x2="3202" y2="0" />
<line x1="3239" y1="0" x2="3239" y2="0" />
<line x1="3276" y1="0" x2="3276" y2="0" />
<line x1="3313" y1="0" x2="3313" y2="0" />
<line x1="3350" y1="0" x2="3350" y2="27" />
<line x1="3387" y1="0" x2="3387" y2="0" />
<line x1="3424" y1="0" x2="3424" y2="0" />
<line x1="3461" y1="0" x2="3461" y2="0" />
<line x1="3498" y1="0" x2="3498" y2="0" />
<line x1="3535" y1="0" x2="3535" y2="0" />
<line x1="3572" y1="0" x2="3572" y2="0" />
<line x1="3609" y1="0" x2="3609" y2="0" />
<line x1="3646" y1="0" x2="3646" y2="0" />
<line x1="3683" y1="0" x2="3683" y2="7" />
</g>
</svg>