<svg xmlns="http://www.w3.org/2000/svg" width="161.8" height="100.0" viewBox="-3.37 12.65 171.80 110.00">
<g fill="none" stroke="black" stroke-width="0.0850%" transform="translate(0, 135.2941) scale(5.8824, -5.8824)">
<polyline points="0.28,6.00 0.56,6.00 0.56,10.00 0.83,10.00 0.83,8.00 1.11,8.00 1.11,5.00 1.39,5.00 1.39,10.00 1.67,10.00 1.67,12.00 1.94,12.00 1.94,5.00 2.22,5.00 2.22,9.00 2.50,9.00 2.50,11.00 2.78,11.00 2.78,12.00 3.06,12.00 3.06,6.00 3.33,6.00 3.33,7.00 3.61,7.00 3.61,10.00 3.89,10.00 3.89,7.00 4.17,7.00 4.17,12.00 4.45,12.00 4.45,9.00 4.72,9.00 4.72,10.00 5.00,10.00 5.00,11.00 5.28,11.00 5.28,8.00 5.56,8.00 5.56,8.00 5.83,8.00 5.83,3.00 6.11,3.00 6.11,5.00 6.39,5.00 6.39,7.00 6.67,7.00 6.67,6.00 6.95,6.00 6.95,7.00 7.22,7.00 7.22,10.00 7.50,10.00 7.50,16.00 7.78,16.00 7.78,8.00 8.06,8.00 8.06,7.00 8.34,7.00 8.34,20.00 8.61,20.00 8.61,15.00 8.89,15.00 8.89,5.00 9.17,5.00 9.17,8.00 9.45,8.00 9.45,9.00 9.72,9.00 9.72,10.00 10.00,10.00 10.00,10.00 10.28,10.00 10.28,10.00 10.56,10.00 10.56,8.00 10.84,8.00 10.84,5.00 11.11,5.00 11.11,7.00 11.39,7.00 11.39,8.00 11.67,8.00 11.67,13.00 11.95,13.00 11.95,8.00 12.23,8.00 12.23,13.00 12.50,13.00 12.50,4.00 12.78,4.00 12.78,12.00 13.06,12.00 13.06,12.00 13.34,12.00 13.34,11.00 13.61,11.00 13.61,7.00 13.89,7.00 13.89,8.00 14.17,8.00 14.17,14.00 14.45,14.00 14.45,8.00 14.73,8.00 14.73,4.00 15.00,4.00 15.00,9.00 15.28,9.00 15.28,10.00 15.56,10.00 15.56,6.00 15.84,6.00 15.84,10.00 16.11,10.00 16.11,14.00 16.39,14.00 16.39,8.00 16.67,8.00 16.67,9.00 16.95,9.00 16.95,11.00 17.23,11.00 17.23,11.00 17.50,11.00 17.50,11.00 17.78,11.00 17.78,15.00 18.06,15.00 18.06,9.00 18.34,9.00 18.34,11.00 18.62,11.00 18.62,11.00 18.89,11.00 18.89,8.00 19.17,8.00 19.17,6.00 19.45,6.00 19.45,11.00 19.73,11.00 19.73,12.00 20.00,12.00 20.00,10.00 20.28,10.00 20.28,7.00 20.56,7.00 20.56,9.00 20.84,9.00 20.84,11.00 21.12,11.00 21.12,8.00 21.39,8.00 21.39,7.00 21.67,7.00 21.67,10.00 21.95,10.00 21.95,3.00 22.23,3.00 22.23,10.00 22.51,10.00 22.51,11.00 22.78,11.00 22.78,11.00 23.06,11.00 23.06,8.00 23.34,8.00 23.34,13.00 23.62,13.00 23.62,5.00 23.89,5.00 23.89,9.00 24.17,9.00 24.17,9.00 24.45,9.00 24.45,9.00 24.73,9.00 24.73,6.00 25.01,6.00 25.01,7.00 25.28,7.00 25.28,8.00 25.56,8.00 25.56,8.00 25.84,8.00 25.84,4.00 26.12,4.00 26.12,11.00 26.40,11.00 26.40,13.00 26.67,13.00 26.67,16.00 26.95,16.00 26.95,10.00 27.23,10.00 27.23,8.00 27.51,8.00 27.51,10.00 27.78,10.00" />
</g>
</svg>