<svg xmlns="http://www.w3.org/2000/svg" width="161.8" height="100.0" viewBox="0.3934 -5.0000 171.8032 110.0000">
<g fill="none" stroke="black" stroke-width="0.0006%" transform="translate(0, 100.0000) scale(799.2964, -799.2964)">
<line x1="0.0067" y1="0.0000" x2="0.0067" y2="0.0000" />
<line x1="0.0135" y1="0.0000" x2="0.0135" y2="0.0005" />
<line x1="0.0202" y1="0.0000" x2="0.0202" y2="0.0023" />
<line x1="0.0270" y1="0.0000" x2="0.0270" y2="0.0076" />
<line x1="0.0337" y1="0.0000" x2="0.0337" y2="0.0189" />
<line x1="0.0405" y1="0.0000" x2="0.0405" y2="0.0378" />
<line x1="0.0472" y1="0.0000" x2="0.0472" y2="0.0631" />
<line x1="0.0540" y1="0.0000" x2="0.0540" y2="0.0901" />
<line x1="0.0607" y1="0.0000" x2="0.0607" y2="0.1126" />
<line x1="0.0675" y1="0.0000" x2="0.0675" y2="0.1251" />
<line x1="0.0742" y1="0.0000" x2="0.0742" y2="0.1251" />
<line x1="0.0810" y1="0.0000" x2="0.0810" y2="0.1137" />
<line x1="0.0877" y1="0.0000" x2="0.0877" y2="0.0948" />
<line x1="0.0945" y1="0.0000" x2="0.0945" y2="0.0729" />
<line x1="0.1012" y1="0.0000" x2="0.1012" y2="0.0521" />
<line x1="0.1080" y1="0.0000" x2="0.1080" y2="0.0347" />
<line x1="0.1147" y1="0.0000" x2="0.1147" y2="0.0217" />
<line x1="0.1215" y1="0.0000" x2="0.1215" y2="0.0128" />
<line x1="0.1282" y1="0.0000" x2="0.1282" y2="0.0071" />
<line x1="0.1350" y1="0.0000" x2="0.1350" y2="0.0037" />
<line x1="0.1417" y1="0.0000" x2="0.1417" y2="0.0019" />
<line x1="0.1485" y1="0.0000" x2="0.1485" y2="0.0009" />
<line x1="0.1552" y1="0.0000" x2="0.1552" y2="0.0004" />
<line x1="0.1619" y1="0.0000" x2="0.1619" y2="0.0002" />
<line x1="0.1687" y1="0.0000" x2="0.1687" y2="0.0001" />
<line x1="0.1754" y1="0.0000" x2="0.1754" y2="0.0000" />
<line x1="0.1822" y1="0.0000" x2="0.1822" y2="0.0000" />
<line x1="0.1889" y1="0.0000" x2="0.1889" y2="0.0000" />
<line x1="0.1957" y1="0.0000" x2="0.1957" y2="0.0000" />
<line x1="0.2024" y1="0.0000" x2="0.2024" y2="0.0000" />
<line x1="0.2092" y1="0.0000" x2="0.2092" y2="0.0000" />
</g>
</svg>