<svg xmlns="http://www.w3.org/2000/svg" width="100.0" height="100.0" viewBox="-55.00 -55.00 110.00 110.00">
<g fill="none" stroke="black" stroke-width="0.0300%" transform="translate(0, 0.0000) scale(16.6667, -16.6667)">
<polyline points="1.00,0.00 1.00,0.06 0.99,0.13 0.98,0.19 0.97,0.25 0.95,0.31 0.93,0.37 0.90,0.43 0.88,0.48 0.84,0.54 0.81,0.59 0.77,0.64 0.73,0.68 0.68,0.73 0.64,0.77 0.59,0.81 0.54,0.84 0.48,0.88 0.43,0.90 0.37,0.93 0.31,0.95 0.25,0.97 0.19,0.98 0.13,0.99 0.06,1.00 -0.00,1.00 -0.06,1.00 -0.13,0.99 -0.19,0.98 -0.25,0.97 -0.31,0.95 -0.37,0.93 -0.43,0.90 -0.48,0.88 -0.54,0.84 -0.59,0.81 -0.64,0.77 -0.68,0.73 -0.73,0.68 -0.77,0.64 -0.81,0.59 -0.84,0.54 -0.88,0.48 -0.90,0.43 -0.93,0.37 -0.95,0.31 -0.97,0.25 -0.98,0.19 -0.99,0.13 -1.00,0.06 -1.00,-0.00 -1.00,-0.06 -0.99,-0.13 -0.98,-0.19 -0.97,-0.25 -0.95,-0.31 -0.93,-0.37 -0.90,-0.43 -0.88,-0.48 -0.84,-0.54 -0.81,-0.59 -0.77,-0.64 -0.73,-0.68 -0.68,-0.73 -0.64,-0.77 -0.59,-0.81 -0.54,-0.84 -0.48,-0.88 -0.43,-0.90 -0.37,-0.93 -0.31,-0.95 -0.25,-0.97 -0.19,-0.98 -0.13,-0.99 -0.06,-1.00 -0.00,-1.00 0.06,-1.00 0.13,-0.99 0.19,-0.98 0.25,-0.97 0.31,-0.95 0.37,-0.93 0.43,-0.90 0.48,-0.88 0.54,-0.84 0.59,-0.81 0.64,-0.77 0.68,-0.73 0.73,-0.68 0.77,-0.64 0.81,-0.59 0.84,-0.54 0.88,-0.48 0.90,-0.43 0.93,-0.37 0.95,-0.31 0.97,-0.25 0.98,-0.19 0.99,-0.13 1.00,-0.06" />
<polyline points="2.00,0.00 2.00,0.13 1.98,0.25 1.96,0.37 1.94,0.50 1.90,0.62 1.86,0.74 1.81,0.85 1.75,0.96 1.69,1.07 1.62,1.18 1.54,1.27 1.46,1.37 1.37,1.46 1.27,1.54 1.18,1.62 1.07,1.69 0.96,1.75 0.85,1.81 0.74,1.86 0.62,1.90 0.50,1.94 0.37,1.96 0.25,1.98 0.13,2.00 -0.00,2.00 -0.13,2.00 -0.25,1.98 -0.37,1.96 -0.50,1.94 -0.62,1.90 -0.74,1.86 -0.85,1.81 -0.96,1.75 -1.07,1.69 -1.18,1.62 -1.27,1.54 -1.37,1.46 -1.46,1.37 -1.54,1.27 -1.62,1.18 -1.69,1.07 -1.75,0.96 -1.81,0.85 -1.86,0.74 -1.90,0.62 -1.94,0.50 -1.96,0.37 -1.98,0.25 -2.00,0.13 -2.00,-0.00 -2.00,-0.13 -1.98,-0.25 -1.96,-0.37 -1.94,-0.50 -1.90,-0.62 -1.86,-0.74 -1.81,-0.85 -1.75,-0.96 -1.69,-1.07 -1.62,-1.18 -1.54,-1.27 -1.46,-1.37 -1.37,-1.46 -1.27,-1.54 -1.18,-1.62 -1.07,-1.69 -0.96,-1.75 -0.85,-1.81 -0.74,-1.86 -0.62,-1.90 -0.50,-1.94 -0.37,-1.96 -0.25,-1.98 -0.13,-2.00 -0.00,-2.00 0.13,-2.00 0.25,-1.98 0.37,-1.96 0.50,-1.94 0.62,-1.90 0.74,-1.86 0.85,-1.81 0.96,-1.75 1.07,-1.69 1.18,-1.62 1.27,-1.54 1.37,-1.46 1.46,-1.37 1.54,-1.27 1.62,-1.18 1.69,-1.07 1.75,-0.96 1.81,-0.85 1.86,-0.74 1.90,-0.62 1.94,-0.50 1.96,-0.37 1.98,-0.25 2.00,-0.13" />
<polyline points="3.00,0.00 2.99,0.19 2.98,0.38 2.95,0.56 2.91,0.75 2.85,0.93 2.79,1.10 2.71,1.28 2.63,1.45 2.53,1.61 2.43,1.76 2.31,1.91 2.19,2.05 2.05,2.19 1.91,2.31 1.76,2.43 1.61,2.53 1.45,2.63 1.28,2.71 1.10,2.79 0.93,2.85 0.75,2.91 0.56,2.95 0.38,2.98 0.19,2.99 -0.00,3.00 -0.19,2.99 -0.38,2.98 -0.56,2.95 -0.75,2.91 -0.93,2.85 -1.10,2.79 -1.28,2.71 -1.45,2.63 -1.61,2.53 -1.76,2.43 -1.91,2.31 -2.05,2.19 -2.19,2.05 -2.31,1.91 -2.43,1.76 -2.53,1.61 -2.63,1.45 -2.71,1.28 -2.79,1.10 -2.85,0.93 -2.91,0.75 -2.95,0.56 -2.98,0.38 -2.99,0.19 -3.00,-0.00 -2.99,-0.19 -2.98,-0.38 -2.95,-0.56 -2.91,-0.75 -2.85,-0.93 -2.79,-1.10 -2.71,-1.28 -2.63,-1.45 -2.53,-1.61 -2.43,-1.76 -2.31,-1.91 -2.19,-2.05 -2.05,-2.19 -1.91,-2.31 -1.76,-2.43 -1.61,-2.53 -1.45,-2.63 -1.28,-2.71 -1.10,-2.79 -0.93,-2.85 -0.75,-2.91 -0.56,-2.95 -0.38,-2.98 -0.19,-2.99 -0.00,-3.00 0.19,-2.99 0.38,-2.98 0.56,-2.95 0.75,-2.91 0.93,-2.85 1.10,-2.79 1.28,-2.71 1.45,-2.63 1.61,-2.53 1.76,-2.43 1.91,-2.31 2.05,-2.19 2.19,-2.05 2.31,-1.91 2.43,-1.76 2.53,-1.61 2.63,-1.45 2.71,-1.28 2.79,-1.10 2.85,-0.93 2.91,-0.75 2.95,-0.56 2.98,-0.38 2.99,-0.19" />
</g>
</svg>