<svg xmlns="http://www.w3.org/2000/svg" width="100.2" height="100.0" viewBox="-55.108 -55.166 110.216 110.000">
<g fill="none" stroke="black" stroke-width="0.0046%" transform="translate(0, -0.3325) scale(108.0713, -108.0713)">
<polyline points="0.000,0.000 0.125,0.008 0.241,0.031 0.339,0.065 0.411,0.107 0.454,0.149 0.464,0.186 0.442,0.210 0.391,0.218 0.318,0.204 0.228,0.168 0.131,0.110 0.034,0.033 -0.054,-0.058 -0.126,-0.156 -0.179,-0.252 -0.210,-0.338 -0.218,-0.407 -0.206,-0.450 -0.177,-0.464 -0.139,-0.446 -0.096,-0.396 -0.056,-0.317 -0.024,-0.214 -0.005,-0.095 -0.001,0.032 -0.012,0.156 -0.038,0.268 -0.075,0.360 -0.117,0.425 -0.159,0.459 -0.193,0.461 -0.214,0.432 -0.217,0.375 -0.197,0.297 -0.156,0.204 -0.092,0.106 -0.011,0.011 0.082,-0.073 0.180,-0.142 0.275,-0.189 0.357,-0.214 0.420,-0.217 0.457,-0.200 0.463,-0.168 0.436,-0.128 0.379,-0.085 0.293,-0.047 0.185,-0.018 0.063,-0.002 -0.063,-0.002 -0.185,-0.018 -0.293,-0.047 -0.379,-0.085 -0.436,-0.128 -0.463,-0.168 -0.457,-0.200 -0.420,-0.217 -0.357,-0.214 -0.275,-0.189 -0.180,-0.142 -0.082,-0.073 0.011,0.011 0.092,0.106 0.156,0.204 0.197,0.297 0.217,0.375 0.214,0.432 0.193,0.461 0.159,0.459 0.117,0.425 0.075,0.360 0.038,0.268 0.012,0.156 0.001,0.032 0.005,-0.095 0.024,-0.214 0.056,-0.317 0.096,-0.396 0.139,-0.446 0.177,-0.464 0.206,-0.450 0.218,-0.407 0.210,-0.338 0.179,-0.252 0.126,-0.156 0.054,-0.058 -0.034,0.033 -0.131,0.110 -0.228,0.168 -0.318,0.204 -0.391,0.218 -0.442,0.210 -0.464,0.186 -0.454,0.149 -0.411,0.107 -0.339,0.065 -0.241,0.031 -0.125,0.008 -0.000,0.000" />
</g>
</svg>