<svg xmlns="http://www.w3.org/2000/svg" width="100.0" height="100.0" viewBox="-47.273 -55.000 110.019 110.000">
<g fill="none" stroke="black" stroke-width="0.0087%" transform="translate(0, 0.0000) scale(57.7461, -57.7461)">
<polyline points="1.000,0.000 0.963,0.061 0.926,0.117 0.888,0.169 0.851,0.218 0.813,0.264 0.775,0.307 0.737,0.347 0.699,0.384 0.661,0.419 0.623,0.453 0.585,0.484 0.547,0.514 0.509,0.542 0.470,0.569 0.432,0.594 0.392,0.618 0.353,0.642 0.312,0.664 0.271,0.685 0.229,0.705 0.186,0.724 0.142,0.743 0.096,0.760 0.049,0.777 -0.000,0.792 -0.051,0.807 -0.104,0.820 -0.159,0.832 -0.216,0.843 -0.277,0.852 -0.340,0.859 -0.406,0.863 -0.476,0.866 -0.523,0.824 -0.555,0.763 -0.582,0.704 -0.607,0.646 -0.628,0.590 -0.647,0.535 -0.664,0.482 -0.678,0.430 -0.690,0.379 -0.700,0.330 -0.709,0.281 -0.716,0.233 -0.722,0.185 -0.726,0.139 -0.730,0.092 -0.731,0.046 -0.732,-0.000 -0.731,-0.046 -0.730,-0.092 -0.726,-0.139 -0.722,-0.185 -0.716,-0.233 -0.709,-0.281 -0.700,-0.330 -0.690,-0.379 -0.678,-0.430 -0.664,-0.482 -0.647,-0.535 -0.628,-0.590 -0.607,-0.646 -0.582,-0.704 -0.555,-0.763 -0.523,-0.824 -0.476,-0.866 -0.406,-0.863 -0.340,-0.859 -0.277,-0.852 -0.216,-0.843 -0.159,-0.832 -0.104,-0.820 -0.051,-0.807 -0.000,-0.792 0.049,-0.777 0.096,-0.760 0.142,-0.743 0.186,-0.724 0.229,-0.705 0.271,-0.685 0.312,-0.664 0.353,-0.642 0.392,-0.618 0.432,-0.594 0.470,-0.569 0.509,-0.542 0.547,-0.514 0.585,-0.484 0.623,-0.453 0.661,-0.419 0.699,-0.384 0.737,-0.347 0.775,-0.307 0.813,-0.264 0.851,-0.218 0.888,-0.169 0.926,-0.117 0.963,-0.061" />
</g>
</svg>