<svg xmlns="http://www.w3.org/2000/svg" width="100.0" height="100.0" viewBox="-55.000 -5.000 110.000 110.000">
<g fill="none" stroke="black" stroke-width="0.0050%" transform="translate(0, 100.0000) scale(100.0000, -100.0000)">
<circle cx="-0.500" cy="0.000" r="0.005" />
<circle cx="0.000" cy="1.000" r="0.005" />
<polyline points="0.000,0.000 0.031,0.001 0.063,0.004 0.094,0.009 0.124,0.016 0.155,0.024 0.184,0.035 0.213,0.048 0.241,0.062 0.268,0.078 0.294,0.095 0.319,0.115 0.342,0.136 0.364,0.158 0.385,0.181 0.405,0.206 0.422,0.232 0.438,0.259 0.452,0.287 0.465,0.316 0.476,0.345 0.484,0.376 0.491,0.406 0.496,0.437 0.499,0.469 0.500,0.500 0.499,0.531 0.496,0.563 0.491,0.594 0.484,0.624 0.476,0.655 0.465,0.684 0.452,0.713 0.438,0.741 0.422,0.768 0.405,0.794 0.385,0.819 0.364,0.842 0.342,0.864 0.319,0.885 0.294,0.905 0.268,0.922 0.241,0.938 0.213,0.952 0.184,0.965 0.155,0.976 0.124,0.984 0.094,0.991 0.063,0.996 0.031,0.999 -0.000,1.000 -0.031,0.999 -0.063,0.996 -0.094,0.991 -0.124,0.984 -0.155,0.976 -0.184,0.965 -0.213,0.952 -0.241,0.938 -0.268,0.922 -0.294,0.905 -0.319,0.885 -0.342,0.864 -0.364,0.842 -0.385,0.819 -0.405,0.794 -0.422,0.768 -0.438,0.741 -0.452,0.713 -0.465,0.684 -0.476,0.655 -0.484,0.624 -0.491,0.594 -0.496,0.563 -0.499,0.531 -0.500,0.500 -0.499,0.469 -0.496,0.437 -0.491,0.406 -0.484,0.376 -0.476,0.345 -0.465,0.316 -0.452,0.287 -0.438,0.259 -0.422,0.232 -0.405,0.206 -0.385,0.181 -0.364,0.158 -0.342,0.136 -0.319,0.115 -0.294,0.095 -0.268,0.078 -0.241,0.062 -0.213,0.048 -0.184,0.035 -0.155,0.024 -0.124,0.016 -0.094,0.009 -0.063,0.004 -0.031,0.001" />
</g>
</svg>