<svg xmlns="http://www.w3.org/2000/svg" width="100.1" height="100.0" viewBox="-55.026 -55.000 110.051 110.000">
<g fill="none" stroke="black" stroke-width="0.0100%" transform="translate(0, -0.0000) scale(50.0257, -50.0257)">
<polyline points="1.000,0.000 0.998,0.064 0.992,0.128 0.982,0.191 0.967,0.254 0.949,0.315 0.927,0.375 0.901,0.434 0.871,0.491 0.838,0.546 0.801,0.598 0.761,0.648 0.718,0.696 0.672,0.740 0.623,0.782 0.572,0.820 0.518,0.855 0.463,0.887 0.405,0.914 0.345,0.938 0.285,0.959 0.223,0.975 0.160,0.987 0.096,0.995 0.032,0.999 -0.032,0.999 -0.096,0.995 -0.160,0.987 -0.223,0.975 -0.285,0.959 -0.345,0.938 -0.405,0.914 -0.463,0.887 -0.518,0.855 -0.572,0.820 -0.623,0.782 -0.672,0.740 -0.718,0.696 -0.761,0.648 -0.801,0.598 -0.838,0.546 -0.871,0.491 -0.901,0.434 -0.927,0.375 -0.949,0.315 -0.967,0.254 -0.982,0.191 -0.992,0.128 -0.998,0.064 -1.000,-0.000 -0.998,-0.064 -0.992,-0.128 -0.982,-0.191 -0.967,-0.254 -0.949,-0.315 -0.927,-0.375 -0.901,-0.434 -0.871,-0.491 -0.838,-0.546 -0.801,-0.598 -0.761,-0.648 -0.718,-0.696 -0.672,-0.740 -0.623,-0.782 -0.572,-0.820 -0.518,-0.855 -0.463,-0.887 -0.405,-0.914 -0.345,-0.938 -0.285,-0.959 -0.223,-0.975 -0.160,-0.987 -0.096,-0.995 -0.032,-0.999 0.032,-0.999 0.096,-0.995 0.160,-0.987 0.223,-0.975 0.285,-0.959 0.345,-0.938 0.405,-0.914 0.463,-0.887 0.518,-0.855 0.572,-0.820 0.623,-0.782 0.672,-0.740 0.718,-0.696 0.761,-0.648 0.801,-0.598 0.838,-0.546 0.871,-0.491 0.901,-0.434 0.927,-0.375 0.949,-0.315 0.967,-0.254 0.982,-0.191 0.992,-0.128 0.998,-0.064 1.000,-0.000" />
</g>
</svg>