<svg xmlns="http://www.w3.org/2000/svg" width="162.7" height="100.0" viewBox="15.99 -5.00 172.71 110.00">
<g fill="none" stroke="black" stroke-width="0.0476%" transform="translate(0, 100.0000) scale(10.4973, -10.4973)">
<polygon points="3.50,1.73 2.50,1.73 2.00,0.87 2.50,0.00 3.50,0.00 4.00,0.87" />
<polygon points="5.00,2.60 4.00,2.60 3.50,1.73 4.00,0.87 5.00,0.87 5.50,1.73" />
<polygon points="3.50,3.46 2.50,3.46 2.00,2.60 2.50,1.73 3.50,1.73 4.00,2.60" />
<polygon points="5.00,4.33 4.00,4.33 3.50,3.46 4.00,2.60 5.00,2.60 5.50,3.46" />
<polygon points="3.50,5.20 2.50,5.20 2.00,4.33 2.50,3.46 3.50,3.46 4.00,4.33" />
<polygon points="5.00,6.06 4.00,6.06 3.50,5.20 4.00,4.33 5.00,4.33 5.50,5.20" />
<polygon points="3.50,6.93 2.50,6.93 2.00,6.06 2.50,5.20 3.50,5.20 4.00,6.06" />
<polygon points="5.00,7.79 4.00,7.79 3.50,6.93 4.00,6.06 5.00,6.06 5.50,6.93" />
<polygon points="3.50,8.66 2.50,8.66 2.00,7.79 2.50,6.93 3.50,6.93 4.00,7.79" />
<polygon points="5.00,9.53 4.00,9.53 3.50,8.66 4.00,7.79 5.00,7.79 5.50,8.66" />
<polygon points="6.50,1.73 5.50,1.73 5.00,0.87 5.50,0.00 6.50,0.00 7.00,0.87" />
<polygon points="8.00,2.60 7.00,2.60 6.50,1.73 7.00,0.87 8.00,0.87 8.50,1.73" />
<polygon points="6.50,3.46 5.50,3.46 5.00,2.60 5.50,1.73 6.50,1.73 7.00,2.60" />
<polygon points="8.00,4.33 7.00,4.33 6.50,3.46 7.00,2.60 8.00,2.60 8.50,3.46" />
<polygon points="6.50,5.20 5.50,5.20 5.00,4.33 5.50,3.46 6.50,3.46 7.00,4.33" />
<polygon points="8.00,6.06 7.00,6.06 6.50,5.20 7.00,4.33 8.00,4.33 8.50,5.20" />
<polygon points="6.50,6.93 5.50,6.93 5.00,6.06 5.50,5.20 6.50,5.20 7.00,6.06" />
<polygon points="8.00,7.79 7.00,7.79 6.50,6.93 7.00,6.06 8.00,6.06 8.50,6.93" />
<polygon points="6.50,8.66 5.50,8.66 5.00,7.79 5.50,6.93 6.50,6.93 7.00,7.79" />
<polygon points="8.00,9.53 7.00,9.53 6.50,8.66 7.00,7.79 8.00,7.79 8.50,8.66" />
<polygon points="9.50,1.73 8.50,1.73 8.00,0.87 8.50,0.00 9.50,0.00 10.00,0.87" />
<polygon points="11.00,2.60 10.00,2.60 9.50,1.73 10.00,0.87 11.00,0.87 11.50,1.73" />
<polygon points="9.50,3.46 8.50,3.46 8.00,2.60 8.50,1.73 9.50,1.73 10.00,2.60" />
<polygon points="11.00,4.33 10.00,4.33 9.50,3.46 10.00,2.60 11.00,2.60 11.50,3.46" />
<polygon points="9.50,5.20 8.50,5.20 8.00,4.33 8.50,3.46 9.50,3.46 10.00,4.33" />
<polygon points="11.00,6.06 10.00,6.06 9.50,5.20 10.00,4.33 11.00,4.33 11.50,5.20" />
<polygon points="9.50,6.93 8.50,6.93 8.00,6.06 8.50,5.20 9.50,5.20 10.00,6.06" />
<polygon points="11.00,7.79 10.00,7.79 9.50,6.93 10.00,6.06 11.00,6.06 11.50,6.93" />
<polygon points="9.50,8.66 8.50,8.66 8.00,7.79 8.50,6.93 9.50,6.93 10.00,7.79" />
<polygon points="11.00,9.53 10.00,9.53 9.50,8.66 10.00,7.79 11.00,7.79 11.50,8.66" />
<polygon points="12.50,1.73 11.50,1.73 11.00,0.87 11.50,0.00 12.50,0.00 13.00,0.87" />
<polygon points="14.00,2.60 13.00,2.60 12.50,1.73 13.00,0.87 14.00,0.87 14.50,1.73" />
<polygon points="12.50,3.46 11.50,3.46 11.00,2.60 11.50,1.73 12.50,1.73 13.00,2.60" />
<polygon points="14.00,4.33 13.00,4.33 12.50,3.46 13.00,2.60 14.00,2.60 14.50,3.46" />
<polygon points="12.50,5.20 11.50,5.20 11.00,4.33 11.50,3.46 12.50,3.46 13.00,4.33" />
<polygon points="14.00,6.06 13.00,6.06 12.50,5.20 13.00,4.33 14.00,4.33 14.50,5.20" />
<polygon points="12.50,6.93 11.50,6.93 11.00,6.06 11.50,5.20 12.50,5.20 13.00,6.06" />
<polygon points="14.00,7.79 13.00,7.79 12.50,6.93 13.00,6.06 14.00,6.06 14.50,6.93" />
<polygon points="12.50,8.66 11.50,8.66 11.00,7.79 11.50,6.93 12.50,6.93 13.00,7.79" />
<polygon points="14.00,9.53 13.00,9.53 12.50,8.66 13.00,7.79 14.00,7.79 14.50,8.66" />
<polygon points="15.50,1.73 14.50,1.73 14.00,0.87 14.50,0.00 15.50,0.00 16.00,0.87" />
<polygon points="17.00,2.60 16.00,2.60 15.50,1.73 16.00,0.87 17.00,0.87 17.50,1.73" />
<polygon points="15.50,3.46 14.50,3.46 14.00,2.60 14.50,1.73 15.50,1.73 16.00,2.60" />
<polygon points="17.00,4.33 16.00,4.33 15.50,3.46 16.00,2.60 17.00,2.60 17.50,3.46" />
<polygon points="15.50,5.20 14.50,5.20 14.00,4.33 14.50,3.46 15.50,3.46 16.00,4.33" />
<polygon points="17.00,6.06 16.00,6.06 15.50,5.20 16.00,4.33 17.00,4.33 17.50,5.20" />
<polygon points="15.50,6.93 14.50,6.93 14.00,6.06 14.50,5.20 15.50,5.20 16.00,6.06" />
<polygon points="17.00,7.79 16.00,7.79 15.50,6.93 16.00,6.06 17.00,6.06 17.50,6.93" />
<polygon points="15.50,8.66 14.50,8.66 14.00,7.79 14.50,6.93 15.50,6.93 16.00,7.79" />
<polygon points="17.00,9.53 16.00,9.53 15.50,8.66 16.00,7.79 17.00,7.79 17.50,8.66" />
</g>
</svg>