<svg xmlns="http://www.w3.org/2000/svg" width="161.8" height="100.0" viewBox="-4 -5 172 110">
<g fill="none" stroke="black" stroke-width="1.7050%" transform="translate(0, 100.5865) scale(0.2933, -0.2933)">
<circle cx="4" cy="1" r="2" />
<circle cx="7" cy="2" r="2" />
<circle cx="11" cy="1" r="2" />
<circle cx="15" cy="3" r="2" />
<circle cx="18" cy="3" r="2" />
<circle cx="22" cy="1" r="2" />
<circle cx="25" cy="4" r="2" />
<circle cx="29" cy="6" r="2" />
<circle cx="33" cy="4" r="2" />
<circle cx="36" cy="1" r="2" />
<circle cx="40" cy="5" r="2" />
<circle cx="44" cy="10" r="2" />
<circle cx="47" cy="9" r="2" />
<circle cx="51" cy="5" r="2" />
<circle cx="54" cy="1" r="2" />
<circle cx="58" cy="6" r="2" />
<circle cx="62" cy="15" r="2" />
<circle cx="65" cy="16" r="2" />
<circle cx="69" cy="12" r="2" />
<circle cx="73" cy="6" r="2" />
<circle cx="76" cy="1" r="2" />
<circle cx="80" cy="7" r="2" />
<circle cx="83" cy="21" r="2" />
<circle cx="87" cy="25" r="2" />
<circle cx="91" cy="22" r="2" />
<circle cx="94" cy="15" r="2" />
<circle cx="98" cy="7" r="2" />
<circle cx="102" cy="1" r="2" />
<circle cx="105" cy="8" r="2" />
<circle cx="109" cy="28" r="2" />
<circle cx="113" cy="36" r="2" />
<circle cx="116" cy="35" r="2" />
<circle cx="120" cy="28" r="2" />
<circle cx="123" cy="18" r="2" />
<circle cx="127" cy="8" r="2" />
<circle cx="131" cy="1" r="2" />
<circle cx="134" cy="9" r="2" />
<circle cx="138" cy="36" r="2" />
<circle cx="142" cy="49" r="2" />
<circle cx="145" cy="51" r="2" />
<circle cx="149" cy="45" r="2" />
<circle cx="152" cy="34" r="2" />
<circle cx="156" cy="21" r="2" />
<circle cx="160" cy="9" r="2" />
<circle cx="163" cy="1" r="2" />
<circle cx="167" cy="10" r="2" />
<circle cx="171" cy="45" r="2" />
<circle cx="174" cy="64" r="2" />
<circle cx="178" cy="70" r="2" />
<circle cx="181" cy="66" r="2" />
<circle cx="185" cy="55" r="2" />
<circle cx="189" cy="40" r="2" />
<circle cx="192" cy="24" r="2" />
<circle cx="196" cy="10" r="2" />
<circle cx="200" cy="1" r="2" />
<circle cx="203" cy="11" r="2" />
<circle cx="207" cy="55" r="2" />
<circle cx="211" cy="81" r="2" />
<circle cx="214" cy="92" r="2" />
<circle cx="218" cy="91" r="2" />
<circle cx="221" cy="81" r="2" />
<circle cx="225" cy="65" r="2" />
<circle cx="229" cy="46" r="2" />
<circle cx="232" cy="27" r="2" />
<circle cx="236" cy="11" r="2" />
<circle cx="240" cy="1" r="2" />
<circle cx="243" cy="12" r="2" />
<circle cx="247" cy="66" r="2" />
<circle cx="250" cy="100" r="2" />
<circle cx="254" cy="117" r="2" />
<circle cx="258" cy="120" r="2" />
<circle cx="261" cy="112" r="2" />
<circle cx="265" cy="96" r="2" />
<circle cx="269" cy="75" r="2" />
<circle cx="272" cy="52" r="2" />
<circle cx="276" cy="30" r="2" />
<circle cx="280" cy="12" r="2" />
<circle cx="283" cy="1" r="2" />
<circle cx="287" cy="13" r="2" />
<circle cx="290" cy="78" r="2" />
<circle cx="294" cy="121" r="2" />
<circle cx="298" cy="145" r="2" />
<circle cx="301" cy="153" r="2" />
<circle cx="305" cy="148" r="2" />
<circle cx="309" cy="133" r="2" />
<circle cx="312" cy="111" r="2" />
<circle cx="316" cy="85" r="2" />
<circle cx="319" cy="58" r="2" />
<circle cx="323" cy="33" r="2" />
<circle cx="327" cy="13" r="2" />
<circle cx="330" cy="1" r="2" />
<circle cx="334" cy="14" r="2" />
<circle cx="338" cy="91" r="2" />
<circle cx="341" cy="144" r="2" />
<circle cx="345" cy="176" r="2" />
<circle cx="348" cy="190" r="2" />
<circle cx="352" cy="189" r="2" />
<circle cx="356" cy="176" r="2" />
<circle cx="359" cy="154" r="2" />
<circle cx="363" cy="126" r="2" />
<circle cx="367" cy="95" r="2" />
<circle cx="370" cy="64" r="2" />
<circle cx="374" cy="36" r="2" />
<circle cx="378" cy="14" r="2" />
<circle cx="381" cy="1" r="2" />
<circle cx="385" cy="15" r="2" />
<circle cx="388" cy="105" r="2" />
<circle cx="392" cy="169" r="2" />
<circle cx="396" cy="210" r="2" />
<circle cx="399" cy="231" r="2" />
<circle cx="403" cy="235" r="2" />
<circle cx="407" cy="225" r="2" />
<circle cx="410" cy="204" r="2" />
<circle cx="414" cy="175" r="2" />
<circle cx="417" cy="141" r="2" />
<circle cx="421" cy="105" r="2" />
<circle cx="425" cy="70" r="2" />
<circle cx="428" cy="39" r="2" />
<circle cx="432" cy="15" r="2" />
<circle cx="436" cy="1" r="2" />
<circle cx="439" cy="16" r="2" />
<circle cx="443" cy="120" r="2" />
<circle cx="446" cy="196" r="2" />
<circle cx="450" cy="247" r="2" />
<circle cx="454" cy="276" r="2" />
<circle cx="457" cy="286" r="2" />
<circle cx="461" cy="280" r="2" />
<circle cx="465" cy="261" r="2" />
<circle cx="468" cy="232" r="2" />
<circle cx="472" cy="196" r="2" />
<circle cx="476" cy="156" r="2" />
<circle cx="479" cy="115" r="2" />
<circle cx="483" cy="76" r="2" />
<circle cx="486" cy="42" r="2" />
<circle cx="490" cy="16" r="2" />
<circle cx="494" cy="1" r="2" />
<circle cx="497" cy="17" r="2" />
<circle cx="501" cy="136" r="2" />
<circle cx="505" cy="225" r="2" />
<circle cx="508" cy="287" r="2" />
<circle cx="512" cy="325" r="2" />
<circle cx="515" cy="342" r="2" />
<circle cx="519" cy="341" r="2" />
<circle cx="523" cy="325" r="2" />
<circle cx="526" cy="297" r="2" />
<circle cx="530" cy="260" r="2" />
<circle cx="534" cy="217" r="2" />
<circle cx="537" cy="171" r="2" />
<circle cx="541" cy="125" r="2" />
<circle cx="544" cy="82" r="2" />
<circle cx="548" cy="45" r="2" />
<circle cx="552" cy="17" r="2" />
<circle cx="555" cy="1" r="2" />
</g>
</svg>