<svg xmlns="http://www.w3.org/2000/svg" width="98.6" height="100.0" viewBox="-0.1 -3.4 108.6 110.0">
<g fill="none" stroke="black" stroke-width="0.4828%" transform="translate(0, 103.2197) scale(1.0356, -1.0356)">
<polygon points="10.7,71.1 50.4,91.1 92.9,44.9" />
<polygon points="88.9,75.8 99.9,88.9 4.7,81.5" />
<polygon points="13.8,77.6 99.6,65.0 33.3,23.7" />
<polygon points="75.7,98.1 43.3,61.5 6.6,58.1" />
<polygon points="94.3,41.4 59.2,46.5 65.2,1.6" />
<polygon points="60.6,58.9 74.8,37.5 34.8,66.4" />
<polygon points="60.6,5.4 10.5,38.7 39.1,45.6" />
<polygon points="88.7,84.7 68.5,86.3 52.3,80.7" />
<polygon points="66.2,61.8 17.5,16.9 36.0,25.0" />
<polygon points="12.9,80.4 8.3,91.6 61.5,76.9" />
<polygon points="89.0,74.5 83.2,78.4 77.0,96.4" />
<polygon points="27.4,4.8 24.2,94.0 57.5,74.4" />
</g>
</svg>