<svg xmlns="http://www.w3.org/2000/svg" width="143.8" height="100.0" viewBox="-3.31 -5.00 153.83 110.00">
<g fill="none" stroke="black" stroke-width="0.0450%" transform="translate(0, 100.0000) scale(11.1111, -11.1111)">
<line x1="0.15" y1="0.00" x2="0.15" y2="1.00" />
<line x1="0.30" y1="0.00" x2="0.30" y2="2.00" />
<line x1="0.46" y1="0.00" x2="0.46" y2="4.00" />
<line x1="0.61" y1="0.00" x2="0.61" y2="8.00" />
<line x1="0.76" y1="0.00" x2="0.76" y2="1.00" />
<line x1="0.91" y1="0.00" x2="0.91" y2="3.00" />
<line x1="1.07" y1="0.00" x2="1.07" y2="6.00" />
<line x1="1.22" y1="0.00" x2="1.22" y2="1.00" />
<line x1="1.37" y1="0.00" x2="1.37" y2="2.00" />
<line x1="1.52" y1="0.00" x2="1.52" y2="5.00" />
<line x1="1.68" y1="0.00" x2="1.68" y2="1.00" />
<line x1="1.83" y1="0.00" x2="1.83" y2="2.00" />
<line x1="1.98" y1="0.00" x2="1.98" y2="4.00" />
<line x1="2.13" y1="0.00" x2="2.13" y2="8.00" />
<line x1="2.28" y1="0.00" x2="2.28" y2="1.00" />
<line x1="2.44" y1="0.00" x2="2.44" y2="3.00" />
<line x1="2.59" y1="0.00" x2="2.59" y2="6.00" />
<line x1="2.74" y1="0.00" x2="2.74" y2="1.00" />
<line x1="2.89" y1="0.00" x2="2.89" y2="2.00" />
<line x1="3.05" y1="0.00" x2="3.05" y2="5.00" />
<line x1="3.20" y1="0.00" x2="3.20" y2="1.00" />
<line x1="3.35" y1="0.00" x2="3.35" y2="2.00" />
<line x1="3.50" y1="0.00" x2="3.50" y2="4.00" />
<line x1="3.65" y1="0.00" x2="3.65" y2="8.00" />
<line x1="3.81" y1="0.00" x2="3.81" y2="1.00" />
<line x1="3.96" y1="0.00" x2="3.96" y2="3.00" />
<line x1="4.11" y1="0.00" x2="4.11" y2="6.00" />
<line x1="4.26" y1="0.00" x2="4.26" y2="1.00" />
<line x1="4.42" y1="0.00" x2="4.42" y2="2.00" />
<line x1="4.57" y1="0.00" x2="4.57" y2="5.00" />
<line x1="4.72" y1="0.00" x2="4.72" y2="1.00" />
<line x1="4.87" y1="0.00" x2="4.87" y2="2.00" />
<line x1="5.03" y1="0.00" x2="5.03" y2="4.00" />
<line x1="5.18" y1="0.00" x2="5.18" y2="8.00" />
<line x1="5.33" y1="0.00" x2="5.33" y2="1.00" />
<line x1="5.48" y1="0.00" x2="5.48" y2="3.00" />
<line x1="5.63" y1="0.00" x2="5.63" y2="6.00" />
<line x1="5.79" y1="0.00" x2="5.79" y2="1.00" />
<line x1="5.94" y1="0.00" x2="5.94" y2="2.00" />
<line x1="6.09" y1="0.00" x2="6.09" y2="5.00" />
<line x1="6.24" y1="0.00" x2="6.24" y2="1.00" />
<line x1="6.40" y1="0.00" x2="6.40" y2="2.00" />
<line x1="6.55" y1="0.00" x2="6.55" y2="4.00" />
<line x1="6.70" y1="0.00" x2="6.70" y2="8.00" />
<line x1="6.85" y1="0.00" x2="6.85" y2="1.00" />
<line x1="7.01" y1="0.00" x2="7.01" y2="3.00" />
<line x1="7.16" y1="0.00" x2="7.16" y2="7.00" />
<line x1="7.31" y1="0.00" x2="7.31" y2="1.00" />
<line x1="7.46" y1="0.00" x2="7.46" y2="2.00" />
<line x1="7.61" y1="0.00" x2="7.61" y2="5.00" />
<line x1="7.77" y1="0.00" x2="7.77" y2="1.00" />
<line x1="7.92" y1="0.00" x2="7.92" y2="2.00" />
<line x1="8.07" y1="0.00" x2="8.07" y2="4.00" />
<line x1="8.22" y1="0.00" x2="8.22" y2="9.00" />
<line x1="8.38" y1="0.00" x2="8.38" y2="1.00" />
<line x1="8.53" y1="0.00" x2="8.53" y2="3.00" />
<line x1="8.68" y1="0.00" x2="8.68" y2="7.00" />
<line x1="8.83" y1="0.00" x2="8.83" y2="1.00" />
<line x1="8.98" y1="0.00" x2="8.98" y2="2.00" />
<line x1="9.14" y1="0.00" x2="9.14" y2="5.00" />
<line x1="9.29" y1="0.00" x2="9.29" y2="1.00" />
<line x1="9.44" y1="0.00" x2="9.44" y2="2.00" />
<line x1="9.59" y1="0.00" x2="9.59" y2="4.00" />
<line x1="9.75" y1="0.00" x2="9.75" y2="9.00" />
<line x1="9.90" y1="0.00" x2="9.90" y2="1.00" />
<line x1="10.05" y1="0.00" x2="10.05" y2="3.00" />
<line x1="10.20" y1="0.00" x2="10.20" y2="7.00" />
<line x1="10.36" y1="0.00" x2="10.36" y2="1.00" />
<line x1="10.51" y1="0.00" x2="10.51" y2="2.00" />
<line x1="10.66" y1="0.00" x2="10.66" y2="5.00" />
<line x1="10.81" y1="0.00" x2="10.81" y2="1.00" />
<line x1="10.96" y1="0.00" x2="10.96" y2="2.00" />
<line x1="11.12" y1="0.00" x2="11.12" y2="4.00" />
<line x1="11.27" y1="0.00" x2="11.27" y2="9.00" />
<line x1="11.42" y1="0.00" x2="11.42" y2="1.00" />
<line x1="11.57" y1="0.00" x2="11.57" y2="3.00" />
<line x1="11.73" y1="0.00" x2="11.73" y2="7.00" />
<line x1="11.88" y1="0.00" x2="11.88" y2="1.00" />
<line x1="12.03" y1="0.00" x2="12.03" y2="3.00" />
<line x1="12.18" y1="0.00" x2="12.18" y2="6.00" />
<line x1="12.34" y1="0.00" x2="12.34" y2="1.00" />
<line x1="12.49" y1="0.00" x2="12.49" y2="2.00" />
<line x1="12.64" y1="0.00" x2="12.64" y2="4.00" />
<line x1="12.79" y1="0.00" x2="12.79" y2="9.00" />
<line x1="12.94" y1="0.00" x2="12.94" y2="1.00" />
<line x1="13.10" y1="0.00" x2="13.10" y2="3.00" />
</g>
</svg>