<svg xmlns="http://www.w3.org/2000/svg" width="161.8" height="100.0" viewBox="-3.91 4.09 171.80 110.00">
<g fill="none" stroke="black" stroke-width="0.0550%" transform="translate(0, 118.1818) scale(9.0909, -9.0909)">
<circle cx="0.12" cy="1.00" r="0.05" />
<circle cx="0.24" cy="1.00" r="0.05" />
<circle cx="0.36" cy="1.00" r="0.05" />
<circle cx="0.48" cy="2.00" r="0.05" />
<circle cx="0.60" cy="1.00" r="0.05" />
<circle cx="0.72" cy="1.00" r="0.05" />
<circle cx="0.84" cy="1.00" r="0.05" />
<circle cx="0.96" cy="2.00" r="0.05" />
<circle cx="1.08" cy="3.00" r="0.05" />
<circle cx="1.19" cy="1.00" r="0.05" />
<circle cx="1.31" cy="1.00" r="0.05" />
<circle cx="1.43" cy="2.00" r="0.05" />
<circle cx="1.55" cy="1.00" r="0.05" />
<circle cx="1.67" cy="1.00" r="0.05" />
<circle cx="1.79" cy="1.00" r="0.05" />
<circle cx="1.91" cy="4.00" r="0.05" />
<circle cx="2.03" cy="1.00" r="0.05" />
<circle cx="2.15" cy="3.00" r="0.05" />
<circle cx="2.27" cy="1.00" r="0.05" />
<circle cx="2.39" cy="2.00" r="0.05" />
<circle cx="2.51" cy="1.00" r="0.05" />
<circle cx="2.63" cy="1.00" r="0.05" />
<circle cx="2.75" cy="1.00" r="0.05" />
<circle cx="2.87" cy="2.00" r="0.05" />
<circle cx="2.99" cy="5.00" r="0.05" />
<circle cx="3.11" cy="1.00" r="0.05" />
<circle cx="3.23" cy="3.00" r="0.05" />
<circle cx="3.34" cy="2.00" r="0.05" />
<circle cx="3.46" cy="1.00" r="0.05" />
<circle cx="3.58" cy="1.00" r="0.05" />
<circle cx="3.70" cy="1.00" r="0.05" />
<circle cx="3.82" cy="4.00" r="0.05" />
<circle cx="3.94" cy="1.00" r="0.05" />
<circle cx="4.06" cy="1.00" r="0.05" />
<circle cx="4.18" cy="1.00" r="0.05" />
<circle cx="4.30" cy="6.00" r="0.05" />
<circle cx="4.42" cy="1.00" r="0.05" />
<circle cx="4.54" cy="1.00" r="0.05" />
<circle cx="4.66" cy="1.00" r="0.05" />
<circle cx="4.78" cy="2.00" r="0.05" />
<circle cx="4.90" cy="1.00" r="0.05" />
<circle cx="5.02" cy="1.00" r="0.05" />
<circle cx="5.14" cy="1.00" r="0.05" />
<circle cx="5.26" cy="2.00" r="0.05" />
<circle cx="5.38" cy="3.00" r="0.05" />
<circle cx="5.49" cy="1.00" r="0.05" />
<circle cx="5.61" cy="1.00" r="0.05" />
<circle cx="5.73" cy="4.00" r="0.05" />
<circle cx="5.85" cy="7.00" r="0.05" />
<circle cx="5.97" cy="5.00" r="0.05" />
<circle cx="6.09" cy="1.00" r="0.05" />
<circle cx="6.21" cy="2.00" r="0.05" />
<circle cx="6.33" cy="1.00" r="0.05" />
<circle cx="6.45" cy="3.00" r="0.05" />
<circle cx="6.57" cy="1.00" r="0.05" />
<circle cx="6.69" cy="2.00" r="0.05" />
<circle cx="6.81" cy="1.00" r="0.05" />
<circle cx="6.93" cy="1.00" r="0.05" />
<circle cx="7.05" cy="1.00" r="0.05" />
<circle cx="7.17" cy="2.00" r="0.05" />
<circle cx="7.29" cy="1.00" r="0.05" />
<circle cx="7.41" cy="1.00" r="0.05" />
<circle cx="7.53" cy="3.00" r="0.05" />
<circle cx="7.64" cy="8.00" r="0.05" />
<circle cx="7.76" cy="1.00" r="0.05" />
<circle cx="7.88" cy="1.00" r="0.05" />
<circle cx="8.00" cy="1.00" r="0.05" />
<circle cx="8.12" cy="2.00" r="0.05" />
<circle cx="8.24" cy="1.00" r="0.05" />
<circle cx="8.36" cy="1.00" r="0.05" />
<circle cx="8.48" cy="1.00" r="0.05" />
<circle cx="8.60" cy="6.00" r="0.05" />
<circle cx="8.72" cy="1.00" r="0.05" />
<circle cx="8.84" cy="1.00" r="0.05" />
<circle cx="8.96" cy="5.00" r="0.05" />
<circle cx="9.08" cy="2.00" r="0.05" />
<circle cx="9.20" cy="1.00" r="0.05" />
<circle cx="9.32" cy="1.00" r="0.05" />
<circle cx="9.44" cy="1.00" r="0.05" />
<circle cx="9.56" cy="4.00" r="0.05" />
<circle cx="9.68" cy="9.00" r="0.05" />
<circle cx="9.80" cy="1.00" r="0.05" />
<circle cx="9.91" cy="1.00" r="0.05" />
<circle cx="10.03" cy="2.00" r="0.05" />
<circle cx="10.15" cy="1.00" r="0.05" />
<circle cx="10.27" cy="1.00" r="0.05" />
<circle cx="10.39" cy="1.00" r="0.05" />
<circle cx="10.51" cy="2.00" r="0.05" />
<circle cx="10.63" cy="1.00" r="0.05" />
<circle cx="10.75" cy="3.00" r="0.05" />
<circle cx="10.87" cy="1.00" r="0.05" />
<circle cx="10.99" cy="2.00" r="0.05" />
<circle cx="11.11" cy="1.00" r="0.05" />
<circle cx="11.23" cy="1.00" r="0.05" />
<circle cx="11.35" cy="1.00" r="0.05" />
<circle cx="11.47" cy="4.00" r="0.05" />
<circle cx="11.59" cy="1.00" r="0.05" />
<circle cx="11.71" cy="7.00" r="0.05" />
<circle cx="11.83" cy="3.00" r="0.05" />
<circle cx="11.95" cy="10.00" r="0.05" />
<circle cx="12.06" cy="1.00" r="0.05" />
<circle cx="12.18" cy="1.00" r="0.05" />
<circle cx="12.30" cy="1.00" r="0.05" />
<circle cx="12.42" cy="2.00" r="0.05" />
<circle cx="12.54" cy="1.00" r="0.05" />
<circle cx="12.66" cy="1.00" r="0.05" />
<circle cx="12.78" cy="1.00" r="0.05" />
<circle cx="12.90" cy="6.00" r="0.05" />
<circle cx="13.02" cy="1.00" r="0.05" />
<circle cx="13.14" cy="1.00" r="0.05" />
<circle cx="13.26" cy="1.00" r="0.05" />
<circle cx="13.38" cy="4.00" r="0.05" />
<circle cx="13.50" cy="1.00" r="0.05" />
<circle cx="13.62" cy="1.00" r="0.05" />
<circle cx="13.74" cy="1.00" r="0.05" />
<circle cx="13.86" cy="2.00" r="0.05" />
<circle cx="13.98" cy="3.00" r="0.05" />
<circle cx="14.10" cy="1.00" r="0.05" />
<circle cx="14.21" cy="1.00" r="0.05" />
<circle cx="14.33" cy="2.00" r="0.05" />
<circle cx="14.45" cy="11.00" r="0.05" />
<circle cx="14.57" cy="1.00" r="0.05" />
<circle cx="14.69" cy="1.00" r="0.05" />
<circle cx="14.81" cy="2.00" r="0.05" />
<circle cx="14.93" cy="5.00" r="0.05" />
<circle cx="15.05" cy="3.00" r="0.05" />
<circle cx="15.17" cy="1.00" r="0.05" />
<circle cx="15.29" cy="8.00" r="0.05" />
<circle cx="15.41" cy="1.00" r="0.05" />
<circle cx="15.53" cy="1.00" r="0.05" />
<circle cx="15.65" cy="1.00" r="0.05" />
<circle cx="15.77" cy="2.00" r="0.05" />
<circle cx="15.89" cy="1.00" r="0.05" />
<circle cx="16.01" cy="1.00" r="0.05" />
<circle cx="16.13" cy="3.00" r="0.05" />
<circle cx="16.25" cy="2.00" r="0.05" />
<circle cx="16.36" cy="1.00" r="0.05" />
<circle cx="16.48" cy="1.00" r="0.05" />
<circle cx="16.60" cy="1.00" r="0.05" />
<circle cx="16.72" cy="2.00" r="0.05" />
<circle cx="16.84" cy="1.00" r="0.05" />
<circle cx="16.96" cy="1.00" r="0.05" />
<circle cx="17.08" cy="1.00" r="0.05" />
<circle cx="17.20" cy="12.00" r="0.05" />
<circle cx="17.32" cy="1.00" r="0.05" />
<circle cx="17.44" cy="1.00" r="0.05" />
<circle cx="17.56" cy="7.00" r="0.05" />
<circle cx="17.68" cy="2.00" r="0.05" />
<circle cx="17.80" cy="1.00" r="0.05" />
<circle cx="17.92" cy="5.00" r="0.05" />
</g>
</svg>