<svg xmlns="http://www.w3.org/2000/svg" width="161.8" height="100.0" viewBox="-4.22 -5.00 171.80 110.00">
<g fill="none" stroke="black" stroke-width="0.1400%" transform="translate(0, 100.0000) scale(3.5714, -3.5714)">
<circle cx="0.22" cy="0.00" r="0.14" />
<circle cx="0.22" cy="0.00" r="0.14" />
<circle cx="0.44" cy="0.00" r="0.14" />
<circle cx="0.66" cy="1.00" r="0.14" />
<circle cx="0.88" cy="0.00" r="0.14" />
<circle cx="1.09" cy="1.00" r="0.14" />
<circle cx="1.31" cy="0.00" r="0.14" />
<circle cx="1.53" cy="1.00" r="0.14" />
<circle cx="1.75" cy="0.00" r="0.14" />
<circle cx="1.97" cy="1.00" r="0.14" />
<circle cx="2.19" cy="4.00" r="0.14" />
<circle cx="2.41" cy="0.00" r="0.14" />
<circle cx="2.63" cy="1.00" r="0.14" />
<circle cx="2.85" cy="3.00" r="0.14" />
<circle cx="3.06" cy="4.00" r="0.14" />
<circle cx="3.28" cy="0.00" r="0.14" />
<circle cx="3.50" cy="1.00" r="0.14" />
<circle cx="3.72" cy="2.00" r="0.14" />
<circle cx="3.94" cy="4.00" r="0.14" />
<circle cx="4.16" cy="0.00" r="0.14" />
<circle cx="4.38" cy="1.00" r="0.14" />
<circle cx="4.60" cy="4.00" r="0.14" />
<circle cx="4.82" cy="0.00" r="0.14" />
<circle cx="5.03" cy="1.00" r="0.14" />
<circle cx="5.25" cy="4.00" r="0.14" />
<circle cx="5.47" cy="7.00" r="0.14" />
<circle cx="5.69" cy="0.00" r="0.14" />
<circle cx="5.91" cy="1.00" r="0.14" />
<circle cx="6.13" cy="4.00" r="0.14" />
<circle cx="6.35" cy="5.00" r="0.14" />
<circle cx="6.57" cy="6.00" r="0.14" />
<circle cx="6.78" cy="9.00" r="0.14" />
<circle cx="7.00" cy="0.00" r="0.14" />
<circle cx="7.22" cy="1.00" r="0.14" />
<circle cx="7.44" cy="3.00" r="0.14" />
<circle cx="7.66" cy="4.00" r="0.14" />
<circle cx="7.88" cy="5.00" r="0.14" />
<circle cx="8.10" cy="9.00" r="0.14" />
<circle cx="8.32" cy="0.00" r="0.14" />
<circle cx="8.54" cy="1.00" r="0.14" />
<circle cx="8.75" cy="4.00" r="0.14" />
<circle cx="8.97" cy="9.00" r="0.14" />
<circle cx="9.19" cy="0.00" r="0.14" />
<circle cx="9.41" cy="1.00" r="0.14" />
<circle cx="9.63" cy="3.00" r="0.14" />
<circle cx="9.85" cy="4.00" r="0.14" />
<circle cx="10.07" cy="9.00" r="0.14" />
<circle cx="10.29" cy="10.00" r="0.14" />
<circle cx="10.51" cy="12.00" r="0.14" />
<circle cx="10.72" cy="0.00" r="0.14" />
<circle cx="10.94" cy="1.00" r="0.14" />
<circle cx="11.16" cy="2.00" r="0.14" />
<circle cx="11.38" cy="4.00" r="0.14" />
<circle cx="11.60" cy="7.00" r="0.14" />
<circle cx="11.82" cy="8.00" r="0.14" />
<circle cx="12.04" cy="9.00" r="0.14" />
<circle cx="12.26" cy="11.00" r="0.14" />
<circle cx="12.48" cy="0.00" r="0.14" />
<circle cx="12.69" cy="1.00" r="0.14" />
<circle cx="12.91" cy="4.00" r="0.14" />
<circle cx="13.13" cy="6.00" r="0.14" />
<circle cx="13.35" cy="9.00" r="0.14" />
<circle cx="13.57" cy="10.00" r="0.14" />
<circle cx="13.79" cy="0.00" r="0.14" />
<circle cx="14.01" cy="1.00" r="0.14" />
<circle cx="14.23" cy="4.00" r="0.14" />
<circle cx="14.45" cy="9.00" r="0.14" />
<circle cx="14.66" cy="0.00" r="0.14" />
<circle cx="14.88" cy="1.00" r="0.14" />
<circle cx="15.10" cy="2.00" r="0.14" />
<circle cx="15.32" cy="4.00" r="0.14" />
<circle cx="15.54" cy="8.00" r="0.14" />
<circle cx="15.76" cy="9.00" r="0.14" />
<circle cx="15.98" cy="13.00" r="0.14" />
<circle cx="16.20" cy="15.00" r="0.14" />
<circle cx="16.41" cy="16.00" r="0.14" />
<circle cx="16.63" cy="0.00" r="0.14" />
<circle cx="16.85" cy="1.00" r="0.14" />
<circle cx="17.07" cy="4.00" r="0.14" />
<circle cx="17.29" cy="7.00" r="0.14" />
<circle cx="17.51" cy="9.00" r="0.14" />
<circle cx="17.73" cy="10.00" r="0.14" />
<circle cx="17.95" cy="13.00" r="0.14" />
<circle cx="18.17" cy="16.00" r="0.14" />
<circle cx="18.38" cy="0.00" r="0.14" />
<circle cx="18.60" cy="1.00" r="0.14" />
<circle cx="18.82" cy="4.00" r="0.14" />
<circle cx="19.04" cy="5.00" r="0.14" />
<circle cx="19.26" cy="6.00" r="0.14" />
<circle cx="19.48" cy="7.00" r="0.14" />
<circle cx="19.70" cy="9.00" r="0.14" />
<circle cx="19.92" cy="11.00" r="0.14" />
<circle cx="20.14" cy="16.00" r="0.14" />
<circle cx="20.35" cy="17.00" r="0.14" />
<circle cx="20.57" cy="0.00" r="0.14" />
<circle cx="20.79" cy="1.00" r="0.14" />
<circle cx="21.01" cy="4.00" r="0.14" />
<circle cx="21.23" cy="5.00" r="0.14" />
<circle cx="21.45" cy="9.00" r="0.14" />
<circle cx="21.67" cy="16.00" r="0.14" />
<circle cx="21.89" cy="0.00" r="0.14" />
<circle cx="22.11" cy="1.00" r="0.14" />
<circle cx="22.32" cy="4.00" r="0.14" />
<circle cx="22.54" cy="7.00" r="0.14" />
<circle cx="22.76" cy="9.00" r="0.14" />
<circle cx="22.98" cy="15.00" r="0.14" />
<circle cx="23.20" cy="16.00" r="0.14" />
<circle cx="23.42" cy="18.00" r="0.14" />
<circle cx="23.64" cy="0.00" r="0.14" />
<circle cx="23.86" cy="1.00" r="0.14" />
<circle cx="24.08" cy="3.00" r="0.14" />
<circle cx="24.29" cy="4.00" r="0.14" />
<circle cx="24.51" cy="5.00" r="0.14" />
<circle cx="24.73" cy="9.00" r="0.14" />
<circle cx="24.95" cy="11.00" r="0.14" />
<circle cx="25.17" cy="12.00" r="0.14" />
<circle cx="25.39" cy="14.00" r="0.14" />
<circle cx="25.61" cy="15.00" r="0.14" />
<circle cx="25.83" cy="16.00" r="0.14" />
<circle cx="26.04" cy="20.00" r="0.14" />
<circle cx="26.26" cy="0.00" r="0.14" />
<circle cx="26.48" cy="1.00" r="0.14" />
<circle cx="26.70" cy="2.00" r="0.14" />
<circle cx="26.92" cy="3.00" r="0.14" />
<circle cx="27.14" cy="4.00" r="0.14" />
<circle cx="27.36" cy="6.00" r="0.14" />
<circle cx="27.58" cy="8.00" r="0.14" />
<circle cx="27.80" cy="9.00" r="0.14" />
<circle cx="28.01" cy="12.00" r="0.14" />
<circle cx="28.23" cy="13.00" r="0.14" />
<circle cx="28.45" cy="16.00" r="0.14" />
<circle cx="28.67" cy="18.00" r="0.14" />
<circle cx="28.89" cy="0.00" r="0.14" />
<circle cx="29.11" cy="1.00" r="0.14" />
<circle cx="29.33" cy="4.00" r="0.14" />
<circle cx="29.55" cy="9.00" r="0.14" />
<circle cx="29.77" cy="12.00" r="0.14" />
<circle cx="29.98" cy="16.00" r="0.14" />
<circle cx="30.20" cy="0.00" r="0.14" />
<circle cx="30.42" cy="1.00" r="0.14" />
<circle cx="30.64" cy="4.00" r="0.14" />
<circle cx="30.86" cy="6.00" r="0.14" />
<circle cx="31.08" cy="9.00" r="0.14" />
<circle cx="31.30" cy="11.00" r="0.14" />
<circle cx="31.52" cy="14.00" r="0.14" />
<circle cx="31.74" cy="16.00" r="0.14" />
<circle cx="31.95" cy="19.00" r="0.14" />
<circle cx="32.17" cy="21.00" r="0.14" />
<circle cx="32.39" cy="24.00" r="0.14" />
<circle cx="32.61" cy="0.00" r="0.14" />
<circle cx="32.83" cy="1.00" r="0.14" />
<circle cx="33.05" cy="3.00" r="0.14" />
<circle cx="33.27" cy="4.00" r="0.14" />
<circle cx="33.49" cy="9.00" r="0.14" />
<circle cx="33.71" cy="10.00" r="0.14" />
<circle cx="33.92" cy="12.00" r="0.14" />
<circle cx="34.14" cy="13.00" r="0.14" />
<circle cx="34.36" cy="14.00" r="0.14" />
<circle cx="34.58" cy="16.00" r="0.14" />
<circle cx="34.80" cy="17.00" r="0.14" />
<circle cx="35.02" cy="22.00" r="0.14" />
<circle cx="35.24" cy="23.00" r="0.14" />
<circle cx="35.46" cy="25.00" r="0.14" />
<circle cx="35.67" cy="0.00" r="0.14" />
<circle cx="35.89" cy="1.00" r="0.14" />
<circle cx="36.11" cy="4.00" r="0.14" />
<circle cx="36.33" cy="7.00" r="0.14" />
<circle cx="36.55" cy="9.00" r="0.14" />
<circle cx="36.77" cy="10.00" r="0.14" />
<circle cx="36.99" cy="13.00" r="0.14" />
<circle cx="37.21" cy="16.00" r="0.14" />
<circle cx="37.43" cy="19.00" r="0.14" />
<circle cx="37.64" cy="22.00" r="0.14" />
<circle cx="37.86" cy="25.00" r="0.14" />
<circle cx="38.08" cy="0.00" r="0.14" />
<circle cx="38.30" cy="1.00" r="0.14" />
<circle cx="38.52" cy="4.00" r="0.14" />
<circle cx="38.74" cy="8.00" r="0.14" />
<circle cx="38.96" cy="9.00" r="0.14" />
<circle cx="39.18" cy="16.00" r="0.14" />
<circle cx="39.40" cy="21.00" r="0.14" />
<circle cx="39.61" cy="25.00" r="0.14" />
<circle cx="39.83" cy="0.00" r="0.14" />
<circle cx="40.05" cy="1.00" r="0.14" />
<circle cx="40.27" cy="4.00" r="0.14" />
<circle cx="40.49" cy="5.00" r="0.14" />
<circle cx="40.71" cy="6.00" r="0.14" />
<circle cx="40.93" cy="7.00" r="0.14" />
<circle cx="41.15" cy="9.00" r="0.14" />
<circle cx="41.37" cy="13.00" r="0.14" />
<circle cx="41.58" cy="16.00" r="0.14" />
<circle cx="41.80" cy="20.00" r="0.14" />
<circle cx="42.02" cy="22.00" r="0.14" />
<circle cx="42.24" cy="23.00" r="0.14" />
<circle cx="42.46" cy="24.00" r="0.14" />
<circle cx="42.68" cy="25.00" r="0.14" />
<circle cx="42.90" cy="28.00" r="0.14" />
<circle cx="43.12" cy="0.00" r="0.14" />
<circle cx="43.34" cy="1.00" r="0.14" />
<circle cx="43.55" cy="4.00" r="0.14" />
<circle cx="43.77" cy="6.00" r="0.14" />
<circle cx="43.99" cy="9.00" r="0.14" />
<circle cx="44.21" cy="10.00" r="0.14" />
<circle cx="44.43" cy="15.00" r="0.14" />
<circle cx="44.65" cy="16.00" r="0.14" />
<circle cx="44.87" cy="19.00" r="0.14" />
<circle cx="45.09" cy="21.00" r="0.14" />
<circle cx="45.30" cy="24.00" r="0.14" />
<circle cx="45.52" cy="25.00" r="0.14" />
</g>
</svg>