<svg xmlns="http://www.w3.org/2000/svg" width="161.8" height="100.0" viewBox="-2.5 -55.4 171.8 110.0">
<g fill="none" stroke="black" stroke-width="0.6250%" transform="translate(0, -0.8000) scale(0.8000, -0.8000)">
<line x1="3.2" y1="0.0" x2="3.2" y2="1.0" />

<line x1="9.5" y1="0.0" x2="9.5" y2="-1.0" />
<line x1="12.6" y1="0.0" x2="12.6" y2="2.0" />
<line x1="15.8" y1="0.0" x2="15.8" y2="-3.0" />
<line x1="19.0" y1="0.0" x2="19.0" y2="4.0" />
<line x1="22.1" y1="0.0" x2="22.1" y2="-5.0" />
<line x1="25.3" y1="0.0" x2="25.3" y2="6.0" />
<line x1="28.4" y1="0.0" x2="28.4" y2="-7.0" />
<line x1="31.6" y1="0.0" x2="31.6" y2="8.0" />
<line x1="34.8" y1="0.0" x2="34.8" y2="-9.0" />
<line x1="37.9" y1="0.0" x2="37.9" y2="10.0" />
<line x1="41.1" y1="0.0" x2="41.1" y2="-11.0" />
<line x1="44.2" y1="0.0" x2="44.2" y2="12.0" />
<line x1="47.4" y1="0.0" x2="47.4" y2="-13.0" />
<line x1="50.6" y1="0.0" x2="50.6" y2="14.0" />
<line x1="53.7" y1="0.0" x2="53.7" y2="-15.0" />
<line x1="56.9" y1="0.0" x2="56.9" y2="16.0" />
<line x1="60.0" y1="0.0" x2="60.0" y2="-17.0" />
<line x1="63.2" y1="0.0" x2="63.2" y2="18.0" />
<line x1="66.4" y1="0.0" x2="66.4" y2="-19.0" />
<line x1="69.5" y1="0.0" x2="69.5" y2="20.0" />
<line x1="72.7" y1="0.0" x2="72.7" y2="-21.0" />
<line x1="75.8" y1="0.0" x2="75.8" y2="22.0" />
<line x1="79.0" y1="0.0" x2="79.0" y2="-23.0" />
<line x1="82.2" y1="0.0" x2="82.2" y2="24.0" />
<line x1="85.3" y1="0.0" x2="85.3" y2="-25.0" />
<line x1="88.5" y1="0.0" x2="88.5" y2="26.0" />
<line x1="91.6" y1="0.0" x2="91.6" y2="-27.0" />
<line x1="94.8" y1="0.0" x2="94.8" y2="28.0" />
<line x1="98.0" y1="0.0" x2="98.0" y2="-29.0" />
<line x1="101.1" y1="0.0" x2="101.1" y2="30.0" />
<line x1="104.3" y1="0.0" x2="104.3" y2="-31.0" />
<line x1="107.4" y1="0.0" x2="107.4" y2="32.0" />
<line x1="110.6" y1="0.0" x2="110.6" y2="-33.0" />
<line x1="113.8" y1="0.0" x2="113.8" y2="34.0" />
<line x1="116.9" y1="0.0" x2="116.9" y2="-35.0" />
<line x1="120.1" y1="0.0" x2="120.1" y2="36.0" />
<line x1="123.2" y1="0.0" x2="123.2" y2="-37.0" />
<line x1="126.4" y1="0.0" x2="126.4" y2="38.0" />
<line x1="129.6" y1="0.0" x2="129.6" y2="-39.0" />
<line x1="132.7" y1="0.0" x2="132.7" y2="40.0" />
<line x1="135.9" y1="0.0" x2="135.9" y2="-41.0" />
<line x1="139.0" y1="0.0" x2="139.0" y2="42.0" />
<line x1="142.2" y1="0.0" x2="142.2" y2="-43.0" />
<line x1="145.4" y1="0.0" x2="145.4" y2="44.0" />
<line x1="148.5" y1="0.0" x2="148.5" y2="-45.0" />
<line x1="151.7" y1="0.0" x2="151.7" y2="46.0" />
<line x1="154.9" y1="0.0" x2="154.9" y2="-47.0" />
<line x1="158.0" y1="0.0" x2="158.0" y2="48.0" />
<line x1="161.2" y1="0.0" x2="161.2" y2="-49.0" />
<line x1="164.3" y1="0.0" x2="164.3" y2="50.0" />
<line x1="167.5" y1="0.0" x2="167.5" y2="-51.0" />
<line x1="170.7" y1="0.0" x2="170.7" y2="52.0" />
<line x1="173.8" y1="0.0" x2="173.8" y2="-53.0" />
<line x1="177.0" y1="0.0" x2="177.0" y2="54.0" />
<line x1="180.1" y1="0.0" x2="180.1" y2="-55.0" />
<line x1="183.3" y1="0.0" x2="183.3" y2="56.0" />
<line x1="186.5" y1="0.0" x2="186.5" y2="-57.0" />
<line x1="189.6" y1="0.0" x2="189.6" y2="58.0" />
<line x1="192.8" y1="0.0" x2="192.8" y2="-59.0" />
<line x1="195.9" y1="0.0" x2="195.9" y2="60.0" />
<line x1="199.1" y1="0.0" x2="199.1" y2="-61.0" />
<line x1="202.3" y1="0.0" x2="202.3" y2="62.0" />
<line x1="205.4" y1="0.0" x2="205.4" y2="-63.0" />
</g>
</svg>