<svg xmlns="http://www.w3.org/2000/svg" width="161.8" height="100.0" viewBox="-3.64 -5.00 171.80 110.00">
<g fill="none" stroke="black" stroke-width="0.0326%" transform="translate(0, 100.0000) scale(15.3222, -15.3222)">


<line x1="0.27" y1="0.00" x2="0.27" y2="1.10" />


<line x1="0.53" y1="0.00" x2="0.53" y2="1.10" />

<line x1="0.71" y1="0.00" x2="0.71" y2="2.40" />

<line x1="0.89" y1="0.00" x2="0.89" y2="1.10" />


<line x1="1.15" y1="0.00" x2="1.15" y2="1.10" />

<line x1="1.33" y1="0.00" x2="1.33" y2="2.40" />

<line x1="1.51" y1="0.00" x2="1.51" y2="1.10" />

<line x1="1.69" y1="0.00" x2="1.69" y2="3.76" />

<line x1="1.86" y1="0.00" x2="1.86" y2="1.10" />

<line x1="2.04" y1="0.00" x2="2.04" y2="2.40" />

<line x1="2.22" y1="0.00" x2="2.22" y2="1.10" />


<line x1="2.48" y1="0.00" x2="2.48" y2="1.10" />

<line x1="2.66" y1="0.00" x2="2.66" y2="2.40" />

<line x1="2.84" y1="0.00" x2="2.84" y2="1.10" />

<line x1="3.02" y1="0.00" x2="3.02" y2="3.76" />

<line x1="3.19" y1="0.00" x2="3.19" y2="1.10" />

<line x1="3.37" y1="0.00" x2="3.37" y2="2.40" />

<line x1="3.55" y1="0.00" x2="3.55" y2="1.10" />

<line x1="3.73" y1="0.00" x2="3.73" y2="5.14" />

<line x1="3.90" y1="0.00" x2="3.90" y2="1.10" />

<line x1="4.08" y1="0.00" x2="4.08" y2="2.40" />

<line x1="4.26" y1="0.00" x2="4.26" y2="1.10" />

<line x1="4.44" y1="0.00" x2="4.44" y2="3.76" />

<line x1="4.61" y1="0.00" x2="4.61" y2="1.10" />

<line x1="4.79" y1="0.00" x2="4.79" y2="2.40" />

<line x1="4.97" y1="0.00" x2="4.97" y2="1.10" />


<line x1="5.24" y1="0.00" x2="5.24" y2="1.10" />

<line x1="5.41" y1="0.00" x2="5.41" y2="2.40" />

<line x1="5.59" y1="0.00" x2="5.59" y2="1.10" />

<line x1="5.77" y1="0.00" x2="5.77" y2="3.76" />

<line x1="5.95" y1="0.00" x2="5.95" y2="1.10" />

<line x1="6.12" y1="0.00" x2="6.12" y2="2.40" />

<line x1="6.30" y1="0.00" x2="6.30" y2="1.10" />

<line x1="6.48" y1="0.00" x2="6.48" y2="5.14" />

<line x1="6.66" y1="0.00" x2="6.66" y2="1.10" />

<line x1="6.83" y1="0.00" x2="6.83" y2="2.40" />

<line x1="7.01" y1="0.00" x2="7.01" y2="1.10" />

<line x1="7.19" y1="0.00" x2="7.19" y2="3.76" />

<line x1="7.37" y1="0.00" x2="7.37" y2="1.10" />

<line x1="7.54" y1="0.00" x2="7.54" y2="2.40" />

<line x1="7.72" y1="0.00" x2="7.72" y2="1.10" />

<line x1="7.90" y1="0.00" x2="7.90" y2="6.53" />

<line x1="8.08" y1="0.00" x2="8.08" y2="1.10" />

<line x1="8.25" y1="0.00" x2="8.25" y2="2.40" />

<line x1="8.43" y1="0.00" x2="8.43" y2="1.10" />

<line x1="8.61" y1="0.00" x2="8.61" y2="3.76" />

<line x1="8.79" y1="0.00" x2="8.79" y2="1.10" />

<line x1="8.96" y1="0.00" x2="8.96" y2="2.40" />

<line x1="9.14" y1="0.00" x2="9.14" y2="1.10" />

<line x1="9.32" y1="0.00" x2="9.32" y2="5.14" />

<line x1="9.50" y1="0.00" x2="9.50" y2="1.10" />

<line x1="9.67" y1="0.00" x2="9.67" y2="2.40" />

<line x1="9.85" y1="0.00" x2="9.85" y2="1.10" />

<line x1="10.03" y1="0.00" x2="10.03" y2="3.76" />

<line x1="10.21" y1="0.00" x2="10.21" y2="1.10" />

<line x1="10.38" y1="0.00" x2="10.38" y2="2.40" />

<line x1="10.56" y1="0.00" x2="10.56" y2="1.10" />

</g>
</svg>