<svg xmlns="http://www.w3.org/2000/svg" width="161.8" height="100.0" viewBox="-5.0000 -85.6444 171.8034 110.0000">
<g fill="none" stroke="black" stroke-width="0.0014%" transform="translate(0, -61.2887) scale(350.0688, -350.0688)">
<polyline points="0.0000,0.0000 0.0046,-0.1529 0.0092,-0.2085 0.0139,-0.2290 0.0185,-0.2304 0.0231,-0.2206 0.0277,-0.2043 0.0324,-0.1842 0.0370,-0.1623 0.0416,-0.1399 0.0462,-0.1176 0.0508,-0.0960 0.0555,-0.0756 0.0601,-0.0566 0.0647,-0.0390 0.0693,-0.0230 0.0740,-0.0087 0.0786,0.0041 0.0832,0.0152 0.0878,0.0248 0.0924,0.0330 0.0971,0.0397 0.1017,0.0451 0.1063,0.0492 0.1109,0.0522 0.1156,0.0542 0.1202,0.0552 0.1248,0.0553 0.1294,0.0547 0.1340,0.0534 0.1387,0.0516 0.1433,0.0492 0.1479,0.0465 0.1525,0.0435 0.1571,0.0403 0.1618,0.0369 0.1664,0.0335 0.1710,0.0300 0.1756,0.0265 0.1803,0.0231 0.1849,0.0199 0.1895,0.0168 0.1941,0.0139 0.1987,0.0111 0.2034,0.0086 0.2080,0.0064 0.2126,0.0044 0.2172,0.0026 0.2219,0.0010 0.2265,-0.0003 0.2311,-0.0014 0.2357,-0.0023 0.2403,-0.0030 0.2450,-0.0035 0.2496,-0.0038 0.2542,-0.0040 0.2588,-0.0041 0.2635,-0.0041 0.2681,-0.0039 0.2727,-0.0037 0.2773,-0.0035 0.2819,-0.0032 0.2866,-0.0029 0.2912,-0.0025 0.2958,-0.0022 0.3004,-0.0018 0.3051,-0.0015 0.3097,-0.0012 0.3143,-0.0009 0.3189,-0.0006 0.3235,-0.0003 0.3282,-0.0001 0.3328,0.0000 0.3374,0.0002 0.3420,0.0003 0.3467,0.0004 0.3513,0.0005 0.3559,0.0005 0.3605,0.0005 0.3651,0.0005 0.3698,0.0005 0.3744,0.0005 0.3790,0.0004 0.3836,0.0004 0.3883,0.0003 0.3929,0.0003 0.3975,0.0002 0.4021,0.0002 0.4067,0.0001 0.4114,0.0001 0.4160,0.0001 0.4206,0.0000 0.4252,-0.0000 0.4299,-0.0000 0.4345,-0.0000 0.4391,-0.0001 0.4437,-0.0001 0.4483,-0.0001 0.4530,-0.0001 0.4576,-0.0001 0.4622,-0.0001" />
</g>
</svg>