<svg xmlns="http://www.w3.org/2000/svg" width="161.8" height="100.0" viewBox="-5.000 -55.000 171.803 110.000">
<g fill="none" stroke="black" stroke-width="0.0100%" transform="translate(0, 0.0000) scale(50.0000, -50.0000)">
<polyline points="0.000,0.000 0.032,0.063 0.065,0.125 0.097,0.187 0.129,0.249 0.162,0.309 0.194,0.368 0.227,0.426 0.259,0.482 0.291,0.536 0.324,0.588 0.356,0.637 0.388,0.685 0.421,0.729 0.453,0.771 0.485,0.809 0.518,0.844 0.550,0.876 0.582,0.905 0.615,0.930 0.647,0.951 0.680,0.969 0.712,0.982 0.744,0.992 0.777,0.998 0.809,1.000 0.841,0.998 0.874,0.992 0.906,0.982 0.938,0.969 0.971,0.951 1.003,0.930 1.036,0.905 1.068,0.876 1.100,0.844 1.133,0.809 1.165,0.771 1.197,0.729 1.230,0.685 1.262,0.637 1.294,0.588 1.327,0.536 1.359,0.482 1.392,0.426 1.424,0.368 1.456,0.309 1.489,0.249 1.521,0.187 1.553,0.125 1.586,0.063 1.618,-0.000 1.650,-0.063 1.683,-0.125 1.715,-0.187 1.747,-0.249 1.780,-0.309 1.812,-0.368 1.845,-0.426 1.877,-0.482 1.909,-0.536 1.942,-0.588 1.974,-0.637 2.006,-0.685 2.039,-0.729 2.071,-0.771 2.103,-0.809 2.136,-0.844 2.168,-0.876 2.201,-0.905 2.233,-0.930 2.265,-0.951 2.298,-0.969 2.330,-0.982 2.362,-0.992 2.395,-0.998 2.427,-1.000 2.459,-0.998 2.492,-0.992 2.524,-0.982 2.556,-0.969 2.589,-0.951 2.621,-0.930 2.654,-0.905 2.686,-0.876 2.718,-0.844 2.751,-0.809 2.783,-0.771 2.815,-0.729 2.848,-0.685 2.880,-0.637 2.912,-0.588 2.945,-0.536 2.977,-0.482 3.010,-0.426 3.042,-0.368 3.074,-0.309 3.107,-0.249 3.139,-0.187 3.171,-0.125 3.204,-0.063 3.236,0.000" />
<polyline points="0.000,0.000 0.032,0.004 0.065,0.016 0.097,0.035 0.129,0.062 0.162,0.095 0.194,0.136 0.227,0.181 0.259,0.232 0.291,0.287 0.324,0.345 0.356,0.406 0.388,0.469 0.421,0.531 0.453,0.594 0.485,0.655 0.518,0.713 0.550,0.768 0.582,0.819 0.615,0.864 0.647,0.905 0.680,0.938 0.712,0.965 0.744,0.984 0.777,0.996 0.809,1.000 0.841,0.996 0.874,0.984 0.906,0.965 0.938,0.938 0.971,0.905 1.003,0.864 1.036,0.819 1.068,0.768 1.100,0.713 1.133,0.655 1.165,0.594 1.197,0.531 1.230,0.469 1.262,0.406 1.294,0.345 1.327,0.287 1.359,0.232 1.392,0.181 1.424,0.136 1.456,0.095 1.489,0.062 1.521,0.035 1.553,0.016 1.586,0.004 1.618,0.000 1.650,0.004 1.683,0.016 1.715,0.035 1.747,0.062 1.780,0.095 1.812,0.136 1.845,0.181 1.877,0.232 1.909,0.287 1.942,0.345 1.974,0.406 2.006,0.469 2.039,0.531 2.071,0.594 2.103,0.655 2.136,0.713 2.168,0.768 2.201,0.819 2.233,0.864 2.265,0.905 2.298,0.938 2.330,0.965 2.362,0.984 2.395,0.996 2.427,1.000 2.459,0.996 2.492,0.984 2.524,0.965 2.556,0.938 2.589,0.905 2.621,0.864 2.654,0.819 2.686,0.768 2.718,0.713 2.751,0.655 2.783,0.594 2.815,0.531 2.848,0.469 2.880,0.406 2.912,0.345 2.945,0.287 2.977,0.232 3.010,0.181 3.042,0.136 3.074,0.095 3.107,0.062 3.139,0.035 3.171,0.016 3.204,0.004 3.236,0.000" />
<polyline points="0.000,0.000 0.032,0.000 0.065,0.002 0.097,0.007 0.129,0.015 0.162,0.030 0.194,0.050 0.227,0.077 0.259,0.112 0.291,0.154 0.324,0.203 0.356,0.259 0.388,0.321 0.421,0.387 0.453,0.457 0.485,0.530 0.518,0.602 0.550,0.673 0.582,0.741 0.615,0.804 0.647,0.860 0.680,0.909 0.712,0.948 0.744,0.977 0.777,0.994 0.809,1.000 0.841,0.994 0.874,0.977 0.906,0.948 0.938,0.909 0.971,0.860 1.003,0.804 1.036,0.741 1.068,0.673 1.100,0.602 1.133,0.530 1.165,0.457 1.197,0.387 1.230,0.321 1.262,0.259 1.294,0.203 1.327,0.154 1.359,0.112 1.392,0.077 1.424,0.050 1.456,0.030 1.489,0.015 1.521,0.007 1.553,0.002 1.586,0.000 1.618,-0.000 1.650,-0.000 1.683,-0.002 1.715,-0.007 1.747,-0.015 1.780,-0.030 1.812,-0.050 1.845,-0.077 1.877,-0.112 1.909,-0.154 1.942,-0.203 1.974,-0.259 2.006,-0.321 2.039,-0.387 2.071,-0.457 2.103,-0.530 2.136,-0.602 2.168,-0.673 2.201,-0.741 2.233,-0.804 2.265,-0.860 2.298,-0.909 2.330,-0.948 2.362,-0.977 2.395,-0.994 2.427,-1.000 2.459,-0.994 2.492,-0.977 2.524,-0.948 2.556,-0.909 2.589,-0.860 2.621,-0.804 2.654,-0.741 2.686,-0.673 2.718,-0.602 2.751,-0.530 2.783,-0.457 2.815,-0.387 2.848,-0.321 2.880,-0.259 2.912,-0.203 2.945,-0.154 2.977,-0.112 3.010,-0.077 3.042,-0.050 3.074,-0.030 3.107,-0.015 3.139,-0.007 3.171,-0.002 3.204,-0.000 3.236,0.000" />
</g>
</svg>