<svg xmlns="http://www.w3.org/2000/svg" width="161.8" height="100.0" viewBox="-3.074 -55.000 171.803 110.000">
<g fill="none" stroke="black" stroke-width="0.0100%" transform="translate(0, 0.0000) scale(50.0000, -50.0000)">
<line x1="0.039" y1="0.000" x2="0.039" y2="1.000" />

<line x1="0.116" y1="0.000" x2="0.116" y2="-1.000" />
<line x1="0.154" y1="0.000" x2="0.154" y2="-1.000" />
<line x1="0.193" y1="0.000" x2="0.193" y2="-1.000" />

<line x1="0.270" y1="0.000" x2="0.270" y2="1.000" />

<line x1="0.347" y1="0.000" x2="0.347" y2="-1.000" />

<line x1="0.424" y1="0.000" x2="0.424" y2="1.000" />
<line x1="0.462" y1="0.000" x2="0.462" y2="1.000" />
<line x1="0.501" y1="0.000" x2="0.501" y2="1.000" />

<line x1="0.578" y1="0.000" x2="0.578" y2="-1.000" />
<line x1="0.616" y1="0.000" x2="0.616" y2="-1.000" />
<line x1="0.655" y1="0.000" x2="0.655" y2="-1.000" />

<line x1="0.732" y1="0.000" x2="0.732" y2="1.000" />
<line x1="0.770" y1="0.000" x2="0.770" y2="1.000" />
<line x1="0.809" y1="0.000" x2="0.809" y2="1.000" />

<line x1="0.886" y1="0.000" x2="0.886" y2="-1.000" />

<line x1="0.963" y1="0.000" x2="0.963" y2="1.000" />

<line x1="1.040" y1="0.000" x2="1.040" y2="-1.000" />
<line x1="1.079" y1="0.000" x2="1.079" y2="-1.000" />
<line x1="1.117" y1="0.000" x2="1.117" y2="-1.000" />

<line x1="1.194" y1="0.000" x2="1.194" y2="1.000" />

<line x1="1.271" y1="0.000" x2="1.271" y2="-1.000" />

<line x1="1.348" y1="0.000" x2="1.348" y2="1.000" />
<line x1="1.387" y1="0.000" x2="1.387" y2="1.000" />
<line x1="1.425" y1="0.000" x2="1.425" y2="1.000" />

<line x1="1.502" y1="0.000" x2="1.502" y2="-1.000" />

<line x1="1.580" y1="0.000" x2="1.580" y2="1.000" />

<line x1="1.657" y1="0.000" x2="1.657" y2="-1.000" />
<line x1="1.695" y1="0.000" x2="1.695" y2="-1.000" />
<line x1="1.734" y1="0.000" x2="1.734" y2="-1.000" />

<line x1="1.811" y1="0.000" x2="1.811" y2="1.000" />
<line x1="1.849" y1="0.000" x2="1.849" y2="1.000" />
<line x1="1.888" y1="0.000" x2="1.888" y2="1.000" />

<line x1="1.965" y1="0.000" x2="1.965" y2="-1.000" />
<line x1="2.003" y1="0.000" x2="2.003" y2="-1.000" />
<line x1="2.042" y1="0.000" x2="2.042" y2="-1.000" />

<line x1="2.119" y1="0.000" x2="2.119" y2="1.000" />

<line x1="2.196" y1="0.000" x2="2.196" y2="-1.000" />

<line x1="2.273" y1="0.000" x2="2.273" y2="1.000" />
<line x1="2.311" y1="0.000" x2="2.311" y2="1.000" />
<line x1="2.350" y1="0.000" x2="2.350" y2="1.000" />

<line x1="2.427" y1="0.000" x2="2.427" y2="-1.000" />
<line x1="2.466" y1="0.000" x2="2.466" y2="-1.000" />
<line x1="2.504" y1="0.000" x2="2.504" y2="-1.000" />

<line x1="2.581" y1="0.000" x2="2.581" y2="1.000" />
<line x1="2.620" y1="0.000" x2="2.620" y2="1.000" />
<line x1="2.658" y1="0.000" x2="2.658" y2="1.000" />

<line x1="2.735" y1="0.000" x2="2.735" y2="-1.000" />

<line x1="2.812" y1="0.000" x2="2.812" y2="1.000" />

<line x1="2.889" y1="0.000" x2="2.889" y2="-1.000" />
<line x1="2.928" y1="0.000" x2="2.928" y2="-1.000" />
<line x1="2.966" y1="0.000" x2="2.966" y2="-1.000" />

<line x1="3.043" y1="0.000" x2="3.043" y2="1.000" />
<line x1="3.082" y1="0.000" x2="3.082" y2="1.000" />
<line x1="3.120" y1="0.000" x2="3.120" y2="1.000" />

<line x1="3.198" y1="0.000" x2="3.198" y2="-1.000" />
<line x1="3.236" y1="0.000" x2="3.236" y2="-1.000" />
<line x1="3.275" y1="0.000" x2="3.275" y2="-1.000" />
</g>
</svg>