<svg xmlns="http://www.w3.org/2000/svg" width="161.8" height="100.0" viewBox="-2.16 1.59 171.80 110.00">
<g fill="none" stroke="black" stroke-width="0.0526%" transform="translate(0, 113.1804) scale(9.5076, -9.5076)">
<circle cx="0.30" cy="0.69" r="0.05" />
<circle cx="0.60" cy="1.10" r="0.05" />
<circle cx="0.90" cy="1.61" r="0.05" />
<circle cx="1.19" cy="1.95" r="0.05" />
<circle cx="1.49" cy="3.14" r="0.05" />
<circle cx="1.79" cy="3.37" r="0.05" />
<circle cx="2.09" cy="3.43" r="0.05" />
<circle cx="2.39" cy="3.61" r="0.05" />
<circle cx="2.69" cy="3.97" r="0.05" />
<circle cx="2.99" cy="4.08" r="0.05" />
<circle cx="3.28" cy="4.26" r="0.05" />
<circle cx="3.58" cy="4.29" r="0.05" />
<circle cx="3.88" cy="4.37" r="0.05" />
<circle cx="4.18" cy="5.45" r="0.05" />
<circle cx="4.48" cy="5.48" r="0.05" />
<circle cx="4.78" cy="5.68" r="0.05" />
<circle cx="5.08" cy="5.74" r="0.05" />
<circle cx="5.37" cy="5.75" r="0.05" />
<circle cx="5.67" cy="5.76" r="0.05" />
<circle cx="5.97" cy="5.92" r="0.05" />
<circle cx="6.27" cy="5.94" r="0.05" />
<circle cx="6.57" cy="6.39" r="0.05" />
<circle cx="6.87" cy="6.40" r="0.05" />
<circle cx="7.17" cy="6.58" r="0.05" />
<circle cx="7.46" cy="6.60" r="0.05" />
<circle cx="7.76" cy="6.61" r="0.05" />
<circle cx="8.06" cy="6.68" r="0.05" />
<circle cx="8.36" cy="7.75" r="0.05" />
<circle cx="8.66" cy="7.76" r="0.05" />
<circle cx="8.96" cy="7.78" r="0.05" />
<circle cx="9.26" cy="7.78" r="0.05" />
<circle cx="9.55" cy="7.99" r="0.05" />
<circle cx="9.85" cy="8.05" r="0.05" />
<circle cx="10.15" cy="8.05" r="0.05" />
<circle cx="10.45" cy="8.22" r="0.05" />
<circle cx="10.75" cy="8.23" r="0.05" />
<circle cx="11.05" cy="8.24" r="0.05" />
<circle cx="11.35" cy="8.24" r="0.05" />
<circle cx="11.64" cy="8.69" r="0.05" />
<circle cx="11.94" cy="8.88" r="0.05" />
<circle cx="12.24" cy="8.90" r="0.05" />
<circle cx="12.54" cy="8.90" r="0.05" />
<circle cx="12.84" cy="8.91" r="0.05" />
<circle cx="13.14" cy="10.06" r="0.05" />
<circle cx="13.44" cy="10.06" r="0.05" />
<circle cx="13.73" cy="10.06" r="0.05" />
<circle cx="14.03" cy="10.09" r="0.05" />
<circle cx="14.33" cy="10.29" r="0.05" />
<circle cx="14.63" cy="10.35" r="0.05" />
<circle cx="14.93" cy="10.35" r="0.05" />
<circle cx="15.23" cy="10.53" r="0.05" />
<circle cx="15.53" cy="10.53" r="0.05" />
<circle cx="15.82" cy="10.53" r="0.05" />
<circle cx="16.12" cy="10.99" r="0.05" />
<circle cx="16.42" cy="10.99" r="0.05" />
<circle cx="16.72" cy="11.18" r="0.05" />
<circle cx="17.02" cy="11.20" r="0.05" />
<circle cx="17.32" cy="11.21" r="0.05" />
</g>
</svg>