<svg xmlns="http://www.w3.org/2000/svg" width="161.8" height="100.0" viewBox="-4.3 -5.0 171.8 110.0">
<g fill="none" stroke="black" stroke-width="0.3150%" transform="translate(0, 100.0000) scale(1.5873, -1.5873)">
<circle cx="0.4" cy="0.0" r="0.3" />
<circle cx="0.9" cy="1.0" r="0.3" />
<circle cx="1.3" cy="3.0" r="0.3" />
<circle cx="1.8" cy="6.0" r="0.3" />
<circle cx="2.2" cy="10.0" r="0.3" />
<circle cx="2.7" cy="15.0" r="0.3" />
<circle cx="3.1" cy="21.0" r="0.3" />
<circle cx="3.6" cy="28.0" r="0.3" />
<circle cx="4.0" cy="36.0" r="0.3" />
<circle cx="4.5" cy="45.0" r="0.3" />
<circle cx="4.9" cy="55.0" r="0.3" />
<circle cx="5.4" cy="3.0" r="0.3" />
<circle cx="5.8" cy="15.0" r="0.3" />
<circle cx="6.3" cy="28.0" r="0.3" />
<circle cx="6.7" cy="42.0" r="0.3" />
<circle cx="7.2" cy="57.0" r="0.3" />
<circle cx="7.6" cy="10.0" r="0.3" />
<circle cx="8.0" cy="27.0" r="0.3" />
<circle cx="8.5" cy="45.0" r="0.3" />
<circle cx="8.9" cy="1.0" r="0.3" />
<circle cx="9.4" cy="21.0" r="0.3" />
<circle cx="9.8" cy="42.0" r="0.3" />
<circle cx="10.3" cy="1.0" r="0.3" />
<circle cx="10.7" cy="24.0" r="0.3" />
<circle cx="11.2" cy="48.0" r="0.3" />
<circle cx="11.6" cy="10.0" r="0.3" />
<circle cx="12.1" cy="36.0" r="0.3" />
<circle cx="12.5" cy="0.0" r="0.3" />
<circle cx="13.0" cy="28.0" r="0.3" />
<circle cx="13.4" cy="57.0" r="0.3" />
<circle cx="13.9" cy="24.0" r="0.3" />
<circle cx="14.3" cy="55.0" r="0.3" />
<circle cx="14.8" cy="24.0" r="0.3" />
<circle cx="15.2" cy="57.0" r="0.3" />
<circle cx="15.6" cy="28.0" r="0.3" />
<circle cx="16.1" cy="0.0" r="0.3" />
<circle cx="16.5" cy="36.0" r="0.3" />
<circle cx="17.0" cy="10.0" r="0.3" />
<circle cx="17.4" cy="48.0" r="0.3" />
<circle cx="17.9" cy="24.0" r="0.3" />
<circle cx="18.3" cy="1.0" r="0.3" />
<circle cx="18.8" cy="42.0" r="0.3" />
<circle cx="19.2" cy="21.0" r="0.3" />
<circle cx="19.7" cy="1.0" r="0.3" />
<circle cx="20.1" cy="45.0" r="0.3" />
<circle cx="20.6" cy="27.0" r="0.3" />
<circle cx="21.0" cy="10.0" r="0.3" />
<circle cx="21.5" cy="57.0" r="0.3" />
<circle cx="21.9" cy="42.0" r="0.3" />
<circle cx="22.4" cy="28.0" r="0.3" />
<circle cx="22.8" cy="15.0" r="0.3" />
<circle cx="23.2" cy="3.0" r="0.3" />
<circle cx="23.7" cy="55.0" r="0.3" />
<circle cx="24.1" cy="45.0" r="0.3" />
<circle cx="24.6" cy="36.0" r="0.3" />
<circle cx="25.0" cy="28.0" r="0.3" />
<circle cx="25.5" cy="21.0" r="0.3" />
<circle cx="25.9" cy="15.0" r="0.3" />
<circle cx="26.4" cy="10.0" r="0.3" />
<circle cx="26.8" cy="6.0" r="0.3" />
<circle cx="27.3" cy="3.0" r="0.3" />
<circle cx="27.7" cy="1.0" r="0.3" />
<circle cx="28.2" cy="0.0" r="0.3" />
<circle cx="28.6" cy="0.0" r="0.3" />
<circle cx="29.1" cy="1.0" r="0.3" />
<circle cx="29.5" cy="3.0" r="0.3" />
<circle cx="30.0" cy="6.0" r="0.3" />
<circle cx="30.4" cy="10.0" r="0.3" />
<circle cx="30.8" cy="15.0" r="0.3" />
<circle cx="31.3" cy="21.0" r="0.3" />
<circle cx="31.7" cy="28.0" r="0.3" />
<circle cx="32.2" cy="36.0" r="0.3" />
<circle cx="32.6" cy="45.0" r="0.3" />
<circle cx="33.1" cy="55.0" r="0.3" />
<circle cx="33.5" cy="2.0" r="0.3" />
<circle cx="34.0" cy="14.0" r="0.3" />
<circle cx="34.4" cy="27.0" r="0.3" />
<circle cx="34.9" cy="41.0" r="0.3" />
<circle cx="35.3" cy="56.0" r="0.3" />
<circle cx="35.8" cy="8.0" r="0.3" />
<circle cx="36.2" cy="25.0" r="0.3" />
<circle cx="36.7" cy="43.0" r="0.3" />
<circle cx="37.1" cy="62.0" r="0.3" />
<circle cx="37.6" cy="18.0" r="0.3" />
<circle cx="38.0" cy="39.0" r="0.3" />
<circle cx="38.4" cy="61.0" r="0.3" />
<circle cx="38.9" cy="20.0" r="0.3" />
<circle cx="39.3" cy="44.0" r="0.3" />
<circle cx="39.8" cy="5.0" r="0.3" />
<circle cx="40.2" cy="31.0" r="0.3" />
<circle cx="40.7" cy="58.0" r="0.3" />
<circle cx="41.1" cy="22.0" r="0.3" />
<circle cx="41.6" cy="51.0" r="0.3" />
<circle cx="42.0" cy="17.0" r="0.3" />
<circle cx="42.5" cy="48.0" r="0.3" />
<circle cx="42.9" cy="16.0" r="0.3" />
<circle cx="43.4" cy="49.0" r="0.3" />
<circle cx="43.8" cy="19.0" r="0.3" />
<circle cx="44.3" cy="54.0" r="0.3" />
<circle cx="44.7" cy="26.0" r="0.3" />
<circle cx="45.2" cy="63.0" r="0.3" />
<circle cx="45.6" cy="37.0" r="0.3" />
<circle cx="46.1" cy="12.0" r="0.3" />
<circle cx="46.5" cy="52.0" r="0.3" />
<circle cx="46.9" cy="29.0" r="0.3" />
<circle cx="47.4" cy="7.0" r="0.3" />
<circle cx="47.8" cy="50.0" r="0.3" />
<circle cx="48.3" cy="30.0" r="0.3" />
<circle cx="48.7" cy="11.0" r="0.3" />
<circle cx="49.2" cy="57.0" r="0.3" />
<circle cx="49.6" cy="40.0" r="0.3" />
<circle cx="50.1" cy="24.0" r="0.3" />
<circle cx="50.5" cy="9.0" r="0.3" />
<circle cx="51.0" cy="59.0" r="0.3" />
<circle cx="51.4" cy="46.0" r="0.3" />
<circle cx="51.9" cy="34.0" r="0.3" />
<circle cx="52.3" cy="23.0" r="0.3" />
<circle cx="52.8" cy="13.0" r="0.3" />
<circle cx="53.2" cy="4.0" r="0.3" />
<circle cx="53.7" cy="60.0" r="0.3" />
<circle cx="54.1" cy="53.0" r="0.3" />
<circle cx="54.5" cy="47.0" r="0.3" />
<circle cx="55.0" cy="42.0" r="0.3" />
<circle cx="55.4" cy="38.0" r="0.3" />
<circle cx="55.9" cy="35.0" r="0.3" />
<circle cx="56.3" cy="33.0" r="0.3" />
<circle cx="56.8" cy="32.0" r="0.3" />
<circle cx="57.2" cy="32.0" r="0.3" />
<circle cx="57.7" cy="33.0" r="0.3" />
<circle cx="58.1" cy="35.0" r="0.3" />
<circle cx="58.6" cy="38.0" r="0.3" />
<circle cx="59.0" cy="42.0" r="0.3" />
<circle cx="59.5" cy="47.0" r="0.3" />
<circle cx="59.9" cy="53.0" r="0.3" />
<circle cx="60.4" cy="60.0" r="0.3" />
<circle cx="60.8" cy="4.0" r="0.3" />
<circle cx="61.3" cy="13.0" r="0.3" />
<circle cx="61.7" cy="23.0" r="0.3" />
<circle cx="62.1" cy="34.0" r="0.3" />
<circle cx="62.6" cy="46.0" r="0.3" />
<circle cx="63.0" cy="59.0" r="0.3" />
<circle cx="63.5" cy="9.0" r="0.3" />
<circle cx="63.9" cy="24.0" r="0.3" />
<circle cx="64.4" cy="40.0" r="0.3" />
<circle cx="64.8" cy="57.0" r="0.3" />
<circle cx="65.3" cy="11.0" r="0.3" />
<circle cx="65.7" cy="30.0" r="0.3" />
<circle cx="66.2" cy="50.0" r="0.3" />
<circle cx="66.6" cy="7.0" r="0.3" />
<circle cx="67.1" cy="29.0" r="0.3" />
<circle cx="67.5" cy="52.0" r="0.3" />
<circle cx="68.0" cy="12.0" r="0.3" />
<circle cx="68.4" cy="37.0" r="0.3" />
<circle cx="68.9" cy="63.0" r="0.3" />
<circle cx="69.3" cy="26.0" r="0.3" />
<circle cx="69.7" cy="54.0" r="0.3" />
<circle cx="70.2" cy="19.0" r="0.3" />
<circle cx="70.6" cy="49.0" r="0.3" />
<circle cx="71.1" cy="16.0" r="0.3" />
<circle cx="71.5" cy="48.0" r="0.3" />
<circle cx="72.0" cy="17.0" r="0.3" />
<circle cx="72.4" cy="51.0" r="0.3" />
<circle cx="72.9" cy="22.0" r="0.3" />
<circle cx="73.3" cy="58.0" r="0.3" />
<circle cx="73.8" cy="0.0" r="0.3" />
<circle cx="74.2" cy="1.0" r="0.3" />
<circle cx="74.7" cy="3.0" r="0.3" />
<circle cx="75.1" cy="6.0" r="0.3" />
<circle cx="75.6" cy="10.0" r="0.3" />
<circle cx="76.0" cy="15.0" r="0.3" />
<circle cx="76.5" cy="21.0" r="0.3" />
<circle cx="76.9" cy="28.0" r="0.3" />
<circle cx="77.3" cy="36.0" r="0.3" />
<circle cx="77.8" cy="45.0" r="0.3" />
<circle cx="78.2" cy="55.0" r="0.3" />
<circle cx="78.7" cy="1.0" r="0.3" />
<circle cx="79.1" cy="13.0" r="0.3" />
<circle cx="79.6" cy="26.0" r="0.3" />
<circle cx="80.0" cy="40.0" r="0.3" />
<circle cx="80.5" cy="55.0" r="0.3" />
<circle cx="80.9" cy="6.0" r="0.3" />
<circle cx="81.4" cy="23.0" r="0.3" />
<circle cx="81.8" cy="41.0" r="0.3" />
<circle cx="82.3" cy="60.0" r="0.3" />
<circle cx="82.7" cy="15.0" r="0.3" />
<circle cx="83.2" cy="36.0" r="0.3" />
<circle cx="83.6" cy="58.0" r="0.3" />
<circle cx="84.1" cy="16.0" r="0.3" />
<circle cx="84.5" cy="40.0" r="0.3" />
<circle cx="84.9" cy="0.0" r="0.3" />
<circle cx="85.4" cy="26.0" r="0.3" />
<circle cx="85.8" cy="53.0" r="0.3" />
<circle cx="86.3" cy="16.0" r="0.3" />
<circle cx="86.7" cy="45.0" r="0.3" />
<circle cx="87.2" cy="10.0" r="0.3" />
<circle cx="87.6" cy="41.0" r="0.3" />
<circle cx="88.1" cy="8.0" r="0.3" />
<circle cx="88.5" cy="41.0" r="0.3" />
<circle cx="89.0" cy="10.0" r="0.3" />
<circle cx="89.4" cy="45.0" r="0.3" />
<circle cx="89.9" cy="16.0" r="0.3" />
<circle cx="90.3" cy="53.0" r="0.3" />
<circle cx="90.8" cy="26.0" r="0.3" />
<circle cx="91.2" cy="0.0" r="0.3" />
<circle cx="91.7" cy="40.0" r="0.3" />
<circle cx="92.1" cy="16.0" r="0.3" />
<circle cx="92.5" cy="58.0" r="0.3" />
<circle cx="93.0" cy="36.0" r="0.3" />
<circle cx="93.4" cy="15.0" r="0.3" />
<circle cx="93.9" cy="60.0" r="0.3" />
<circle cx="94.3" cy="41.0" r="0.3" />
<circle cx="94.8" cy="23.0" r="0.3" />
<circle cx="95.2" cy="6.0" r="0.3" />
<circle cx="95.7" cy="55.0" r="0.3" />
<circle cx="96.1" cy="40.0" r="0.3" />
<circle cx="96.6" cy="26.0" r="0.3" />
<circle cx="97.0" cy="13.0" r="0.3" />
<circle cx="97.5" cy="1.0" r="0.3" />
<circle cx="97.9" cy="55.0" r="0.3" />
<circle cx="98.4" cy="45.0" r="0.3" />
<circle cx="98.8" cy="36.0" r="0.3" />
<circle cx="99.3" cy="28.0" r="0.3" />
<circle cx="99.7" cy="21.0" r="0.3" />
<circle cx="100.1" cy="15.0" r="0.3" />
<circle cx="100.6" cy="10.0" r="0.3" />
<circle cx="101.0" cy="6.0" r="0.3" />
<circle cx="101.5" cy="3.0" r="0.3" />
<circle cx="101.9" cy="1.0" r="0.3" />
<circle cx="102.4" cy="0.0" r="0.3" />
</g>
</svg>