<svg xmlns="http://www.w3.org/2000/svg" width="157.2" height="100.0" viewBox="-3.3 -5.0 167.2 110.0">
<g fill="none" stroke="black" stroke-width="0.1750%" transform="translate(0, 100.0000) scale(2.8571, -2.8571)">
<line x1="0.6" y1="0.0" x2="0.6" y2="1.0" />
<line x1="1.2" y1="0.0" x2="1.2" y2="2.0" />
<line x1="1.8" y1="0.0" x2="1.8" y2="1.0" />
<line x1="2.4" y1="0.0" x2="2.4" y2="1.0" />
<line x1="3.0" y1="0.0" x2="3.0" y2="2.0" />
<line x1="3.6" y1="0.0" x2="3.6" y2="3.0" />
<line x1="4.2" y1="0.0" x2="4.2" y2="1.0" />
<line x1="4.8" y1="0.0" x2="4.8" y2="2.0" />
<line x1="5.4" y1="0.0" x2="5.4" y2="4.0" />
<line x1="6.0" y1="0.0" x2="6.0" y2="1.0" />
<line x1="6.6" y1="0.0" x2="6.6" y2="1.0" />
<line x1="7.3" y1="0.0" x2="7.3" y2="2.0" />
<line x1="7.9" y1="0.0" x2="7.9" y2="3.0" />
<line x1="8.5" y1="0.0" x2="8.5" y2="4.0" />
<line x1="9.1" y1="0.0" x2="9.1" y2="6.0" />
<line x1="9.7" y1="0.0" x2="9.7" y2="1.0" />
<line x1="10.3" y1="0.0" x2="10.3" y2="2.0" />
<line x1="10.9" y1="0.0" x2="10.9" y2="7.0" />
<line x1="11.5" y1="0.0" x2="11.5" y2="1.0" />
<line x1="12.1" y1="0.0" x2="12.1" y2="2.0" />
<line x1="12.7" y1="0.0" x2="12.7" y2="3.0" />
<line x1="13.3" y1="0.0" x2="13.3" y2="6.0" />
<line x1="13.9" y1="0.0" x2="13.9" y2="9.0" />
<line x1="14.5" y1="0.0" x2="14.5" y2="1.0" />
<line x1="15.1" y1="0.0" x2="15.1" y2="1.0" />
<line x1="15.7" y1="0.0" x2="15.7" y2="2.0" />
<line x1="16.3" y1="0.0" x2="16.3" y2="4.0" />
<line x1="16.9" y1="0.0" x2="16.9" y2="5.0" />
<line x1="17.5" y1="0.0" x2="17.5" y2="10.0" />
<line x1="18.1" y1="0.0" x2="18.1" y2="1.0" />
<line x1="18.7" y1="0.0" x2="18.7" y2="2.0" />
<line x1="19.3" y1="0.0" x2="19.3" y2="11.0" />
<line x1="19.9" y1="0.0" x2="19.9" y2="1.0" />
<line x1="20.6" y1="0.0" x2="20.6" y2="5.0" />
<line x1="21.2" y1="0.0" x2="21.2" y2="1.0" />
<line x1="21.8" y1="0.0" x2="21.8" y2="1.0" />
<line x1="22.4" y1="0.0" x2="22.4" y2="5.0" />
<line x1="23.0" y1="0.0" x2="23.0" y2="7.0" />
<line x1="23.6" y1="0.0" x2="23.6" y2="1.0" />
<line x1="24.2" y1="0.0" x2="24.2" y2="2.0" />
<line x1="24.8" y1="0.0" x2="24.8" y2="3.0" />
<line x1="25.4" y1="0.0" x2="25.4" y2="4.0" />
<line x1="26.0" y1="0.0" x2="26.0" y2="6.0" />
<line x1="26.6" y1="0.0" x2="26.6" y2="9.0" />
<line x1="27.2" y1="0.0" x2="27.2" y2="12.0" />
<line x1="27.8" y1="0.0" x2="27.8" y2="18.0" />
<line x1="28.4" y1="0.0" x2="28.4" y2="1.0" />
<line x1="29.0" y1="0.0" x2="29.0" y2="2.0" />
<line x1="29.6" y1="0.0" x2="29.6" y2="19.0" />
<line x1="30.2" y1="0.0" x2="30.2" y2="1.0" />
<line x1="30.8" y1="0.0" x2="30.8" y2="3.0" />
<line x1="31.4" y1="0.0" x2="31.4" y2="5.0" />
<line x1="32.0" y1="0.0" x2="32.0" y2="9.0" />
<line x1="32.6" y1="0.0" x2="32.6" y2="15.0" />
<line x1="33.2" y1="0.0" x2="33.2" y2="1.0" />
<line x1="33.9" y1="0.0" x2="33.9" y2="2.0" />
<line x1="34.5" y1="0.0" x2="34.5" y2="23.0" />
<line x1="35.1" y1="0.0" x2="35.1" y2="1.0" />
<line x1="35.7" y1="0.0" x2="35.7" y2="2.0" />
<line x1="36.3" y1="0.0" x2="36.3" y2="3.0" />
<line x1="36.9" y1="0.0" x2="36.9" y2="4.0" />
<line x1="37.5" y1="0.0" x2="37.5" y2="6.0" />
<line x1="38.1" y1="0.0" x2="38.1" y2="8.0" />
<line x1="38.7" y1="0.0" x2="38.7" y2="12.0" />
<line x1="39.3" y1="0.0" x2="39.3" y2="16.0" />
<line x1="39.9" y1="0.0" x2="39.9" y2="24.0" />
<line x1="40.5" y1="0.0" x2="40.5" y2="1.0" />
<line x1="41.1" y1="0.0" x2="41.1" y2="3.0" />
<line x1="41.7" y1="0.0" x2="41.7" y2="17.0" />
<line x1="42.3" y1="0.0" x2="42.3" y2="1.0" />
<line x1="42.9" y1="0.0" x2="42.9" y2="3.0" />
<line x1="43.5" y1="0.0" x2="43.5" y2="19.0" />
<line x1="44.1" y1="0.0" x2="44.1" y2="1.0" />
<line x1="44.7" y1="0.0" x2="44.7" y2="2.0" />
<line x1="45.3" y1="0.0" x2="45.3" y2="3.0" />
<line x1="45.9" y1="0.0" x2="45.9" y2="6.0" />
<line x1="46.5" y1="0.0" x2="46.5" y2="11.0" />
<line x1="47.2" y1="0.0" x2="47.2" y2="22.0" />
<line x1="47.8" y1="0.0" x2="47.8" y2="33.0" />
<line x1="48.4" y1="0.0" x2="48.4" y2="1.0" />
<line x1="49.0" y1="0.0" x2="49.0" y2="1.0" />
<line x1="49.6" y1="0.0" x2="49.6" y2="2.0" />
<line x1="50.2" y1="0.0" x2="50.2" y2="4.0" />
<line x1="50.8" y1="0.0" x2="50.8" y2="17.0" />
<line x1="51.4" y1="0.0" x2="51.4" y2="34.0" />
<line x1="52.0" y1="0.0" x2="52.0" y2="1.0" />
<line x1="52.6" y1="0.0" x2="52.6" y2="2.0" />
<line x1="53.2" y1="0.0" x2="53.2" y2="5.0" />
<line x1="53.8" y1="0.0" x2="53.8" y2="7.0" />
<line x1="54.4" y1="0.0" x2="54.4" y2="10.0" />
<line x1="55.0" y1="0.0" x2="55.0" y2="14.0" />
<line x1="55.6" y1="0.0" x2="55.6" y2="35.0" />
</g>
</svg>