<svg xmlns="http://www.w3.org/2000/svg" width="161.8" height="100.0" viewBox="-3.37 -5.00 171.80 110.00">
<g fill="none" stroke="black" stroke-width="0.1150%" transform="translate(0, 100.0000) scale(4.3478, -4.3478)">
<circle cx="0.38" cy="0.00" r="0.12" />
<circle cx="0.75" cy="2.00" r="0.12" />
<circle cx="1.13" cy="2.00" r="0.12" />
<circle cx="1.50" cy="2.00" r="0.12" />
<circle cx="1.88" cy="3.00" r="0.12" />
<circle cx="2.26" cy="2.00" r="0.12" />
<circle cx="2.63" cy="4.00" r="0.12" />
<circle cx="3.01" cy="3.00" r="0.12" />
<circle cx="3.38" cy="4.00" r="0.12" />
<circle cx="3.76" cy="3.00" r="0.12" />
<circle cx="4.13" cy="5.00" r="0.12" />
<circle cx="4.51" cy="4.00" r="0.12" />
<circle cx="4.89" cy="5.00" r="0.12" />
<circle cx="5.26" cy="5.00" r="0.12" />
<circle cx="5.64" cy="4.00" r="0.12" />
<circle cx="6.01" cy="6.00" r="0.12" />
<circle cx="6.39" cy="7.00" r="0.12" />
<circle cx="6.77" cy="5.00" r="0.12" />
<circle cx="7.14" cy="6.00" r="0.12" />
<circle cx="7.52" cy="6.00" r="0.12" />
<circle cx="7.89" cy="7.00" r="0.12" />
<circle cx="8.27" cy="7.00" r="0.12" />
<circle cx="8.65" cy="7.00" r="0.12" />
<circle cx="9.02" cy="6.00" r="0.12" />
<circle cx="9.40" cy="9.00" r="0.12" />
<circle cx="9.77" cy="8.00" r="0.12" />
<circle cx="10.15" cy="7.00" r="0.12" />
<circle cx="10.53" cy="8.00" r="0.12" />
<circle cx="10.90" cy="9.00" r="0.12" />
<circle cx="11.28" cy="8.00" r="0.12" />
<circle cx="11.65" cy="8.00" r="0.12" />
<circle cx="12.03" cy="10.00" r="0.12" />
<circle cx="12.40" cy="9.00" r="0.12" />
<circle cx="12.78" cy="10.00" r="0.12" />
<circle cx="13.16" cy="9.00" r="0.12" />
<circle cx="13.53" cy="10.00" r="0.12" />
<circle cx="13.91" cy="9.00" r="0.12" />
<circle cx="14.28" cy="9.00" r="0.12" />
<circle cx="14.66" cy="12.00" r="0.12" />
<circle cx="15.04" cy="11.00" r="0.12" />
<circle cx="15.41" cy="12.00" r="0.12" />
<circle cx="15.79" cy="11.00" r="0.12" />
<circle cx="16.16" cy="9.00" r="0.12" />
<circle cx="16.54" cy="12.00" r="0.12" />
<circle cx="16.92" cy="11.00" r="0.12" />
<circle cx="17.29" cy="13.00" r="0.12" />
<circle cx="17.67" cy="10.00" r="0.12" />
<circle cx="18.04" cy="13.00" r="0.12" />
<circle cx="18.42" cy="15.00" r="0.12" />
<circle cx="18.80" cy="10.00" r="0.12" />
<circle cx="19.17" cy="11.00" r="0.12" />
<circle cx="19.55" cy="15.00" r="0.12" />
<circle cx="19.92" cy="16.00" r="0.12" />
<circle cx="20.30" cy="12.00" r="0.12" />
<circle cx="20.67" cy="13.00" r="0.12" />
<circle cx="21.05" cy="11.00" r="0.12" />
<circle cx="21.43" cy="12.00" r="0.12" />
<circle cx="21.80" cy="17.00" r="0.12" />
<circle cx="22.18" cy="13.00" r="0.12" />
<circle cx="22.55" cy="16.00" r="0.12" />
<circle cx="22.93" cy="16.00" r="0.12" />
<circle cx="23.31" cy="13.00" r="0.12" />
<circle cx="23.68" cy="17.00" r="0.12" />
<circle cx="24.06" cy="15.00" r="0.12" />
<circle cx="24.43" cy="14.00" r="0.12" />
<circle cx="24.81" cy="16.00" r="0.12" />
<circle cx="25.19" cy="15.00" r="0.12" />
<circle cx="25.56" cy="15.00" r="0.12" />
<circle cx="25.94" cy="17.00" r="0.12" />
<circle cx="26.31" cy="13.00" r="0.12" />
<circle cx="26.69" cy="21.00" r="0.12" />
<circle cx="27.07" cy="15.00" r="0.12" />
<circle cx="27.44" cy="15.00" r="0.12" />
<circle cx="27.82" cy="17.00" r="0.12" />
<circle cx="28.19" cy="17.00" r="0.12" />
<circle cx="28.57" cy="18.00" r="0.12" />
<circle cx="28.94" cy="22.00" r="0.12" />
<circle cx="29.32" cy="14.00" r="0.12" />
<circle cx="29.70" cy="18.00" r="0.12" />
<circle cx="30.07" cy="23.00" r="0.12" />
<circle cx="30.45" cy="13.00" r="0.12" />
<circle cx="30.82" cy="20.00" r="0.12" />
<circle cx="31.20" cy="19.00" r="0.12" />
<circle cx="31.58" cy="20.00" r="0.12" />
<circle cx="31.95" cy="17.00" r="0.12" />
<circle cx="32.33" cy="16.00" r="0.12" />
<circle cx="32.70" cy="21.00" r="0.12" />
<circle cx="33.08" cy="22.00" r="0.12" />
<circle cx="33.46" cy="18.00" r="0.12" />
<circle cx="33.83" cy="18.00" r="0.12" />
<circle cx="34.21" cy="20.00" r="0.12" />
<circle cx="34.58" cy="20.00" r="0.12" />
<circle cx="34.96" cy="19.00" r="0.12" />
<circle cx="35.34" cy="23.00" r="0.12" />
<circle cx="35.71" cy="21.00" r="0.12" />
<circle cx="36.09" cy="21.00" r="0.12" />
<circle cx="36.46" cy="21.00" r="0.12" />
<circle cx="36.84" cy="22.00" r="0.12" />
<circle cx="37.21" cy="23.00" r="0.12" />
<circle cx="37.59" cy="21.00" r="0.12" />
</g>
</svg>