<svg xmlns="http://www.w3.org/2000/svg" width="161.8" height="100.0" viewBox="-3.10 9.29 171.80 110.00">
<g fill="none" stroke="black" stroke-width="0.0350%" transform="translate(0, 128.5714) scale(14.2857, -14.2857)">
<polyline points="0.13,1.00 0.27,1.00 0.27,2.00 0.40,2.00 0.40,2.00 0.53,2.00 0.53,2.00 0.67,2.00 0.67,2.00 0.80,2.00 0.80,4.00 0.93,4.00 0.93,2.00 1.07,2.00 1.07,4.00 1.20,4.00 1.20,2.00 1.33,2.00 1.33,4.00 1.47,4.00 1.47,2.00 1.60,2.00 1.60,4.00 1.73,4.00 1.73,2.00 1.87,2.00 1.87,4.00 2.00,4.00 2.00,4.00 2.13,4.00 2.13,2.00 2.27,2.00 2.27,2.00 2.40,2.00 2.40,4.00 2.53,4.00 2.53,2.00 2.66,2.00 2.66,4.00 2.80,4.00 2.80,4.00 2.93,4.00 2.93,4.00 3.06,4.00 3.06,2.00 3.20,2.00 3.20,8.00 3.33,8.00 3.33,2.00 3.46,2.00 3.46,4.00 3.60,4.00 3.60,4.00 3.73,4.00 3.73,4.00 3.86,4.00 3.86,2.00 4.00,2.00 4.00,8.00 4.13,8.00 4.13,2.00 4.26,2.00 4.26,4.00 4.40,4.00 4.40,4.00 4.53,4.00 4.53,4.00 4.66,4.00 4.66,4.00 4.80,4.00 4.80,4.00 4.93,4.00 4.93,2.00 5.06,2.00 5.06,4.00 5.20,4.00 5.20,4.00 5.33,4.00 5.33,8.00 5.46,8.00 5.46,2.00 5.60,2.00 5.60,8.00 5.73,8.00 5.73,2.00 5.86,2.00 5.86,4.00 6.00,4.00 6.00,4.00 6.13,4.00 6.13,4.00 6.26,4.00 6.26,2.00 6.40,2.00 6.40,4.00 6.53,4.00 6.53,2.00 6.66,2.00 6.66,4.00 6.80,4.00 6.80,4.00 6.93,4.00 6.93,4.00 7.06,4.00 7.06,2.00 7.20,2.00 7.20,8.00 7.33,8.00 7.33,4.00 7.46,4.00 7.46,8.00 7.60,8.00 7.60,4.00 7.73,4.00 7.73,4.00 7.86,4.00 7.86,2.00 7.99,2.00 7.99,8.00 8.13,8.00 8.13,2.00 8.26,2.00 8.26,4.00 8.39,4.00 8.39,4.00 8.53,4.00 8.53,4.00 8.66,4.00 8.66,4.00 8.79,4.00 8.79,8.00 8.93,8.00 8.93,2.00 9.06,2.00 9.06,4.00 9.19,4.00 9.19,4.00 9.33,4.00 9.33,8.00 9.46,8.00 9.46,2.00 9.59,2.00 9.59,8.00 9.73,8.00 9.73,2.00 9.86,2.00 9.86,4.00 9.99,4.00 9.99,4.00 10.13,4.00 10.13,4.00 10.26,4.00 10.26,4.00 10.39,4.00 10.39,8.00 10.53,8.00 10.53,2.00 10.66,2.00 10.66,4.00 10.79,4.00 10.79,2.00 10.93,2.00 10.93,4.00 11.06,4.00 11.06,2.00 11.19,2.00 11.19,8.00 11.33,8.00 11.33,4.00 11.46,4.00" />
</g>
</svg>