<svg xmlns="http://www.w3.org/2000/svg" width="161.8" height="100.0" viewBox="-3.8 0.4 171.8 110.0">
<g fill="none" stroke="black" stroke-width="0.2800%" transform="translate(0, 110.7143) scale(1.7857, -1.7857)">
<circle cx="0.7" cy="3.0" r="0.3" />
<circle cx="1.3" cy="4.0" r="0.3" />
<circle cx="2.0" cy="5.0" r="0.3" />
<circle cx="2.7" cy="5.0" r="0.3" />
<circle cx="3.4" cy="6.0" r="0.3" />
<circle cx="4.0" cy="7.0" r="0.3" />
<circle cx="4.7" cy="7.0" r="0.3" />
<circle cx="5.4" cy="8.0" r="0.3" />
<circle cx="6.0" cy="9.0" r="0.3" />
<circle cx="6.7" cy="11.0" r="0.3" />
<circle cx="7.4" cy="8.0" r="0.3" />
<circle cx="8.1" cy="9.0" r="0.3" />
<circle cx="8.7" cy="10.0" r="0.3" />
<circle cx="9.4" cy="12.0" r="0.3" />
<circle cx="10.1" cy="13.0" r="0.3" />
<circle cx="10.7" cy="10.0" r="0.3" />
<circle cx="11.4" cy="11.0" r="0.3" />
<circle cx="12.1" cy="12.0" r="0.3" />
<circle cx="12.8" cy="14.0" r="0.3" />
<circle cx="13.4" cy="15.0" r="0.3" />
<circle cx="14.1" cy="17.0" r="0.3" />
<circle cx="14.8" cy="11.0" r="0.3" />
<circle cx="15.4" cy="12.0" r="0.3" />
<circle cx="16.1" cy="13.0" r="0.3" />
<circle cx="16.8" cy="15.0" r="0.3" />
<circle cx="17.5" cy="16.0" r="0.3" />
<circle cx="18.1" cy="18.0" r="0.3" />
<circle cx="18.8" cy="19.0" r="0.3" />
<circle cx="19.5" cy="13.0" r="0.3" />
<circle cx="20.1" cy="14.0" r="0.3" />
<circle cx="20.8" cy="15.0" r="0.3" />
<circle cx="21.5" cy="17.0" r="0.3" />
<circle cx="22.1" cy="18.0" r="0.3" />
<circle cx="22.8" cy="20.0" r="0.3" />
<circle cx="23.5" cy="21.0" r="0.3" />
<circle cx="24.2" cy="23.0" r="0.3" />
<circle cx="24.8" cy="16.0" r="0.3" />
<circle cx="25.5" cy="17.0" r="0.3" />
<circle cx="26.2" cy="18.0" r="0.3" />
<circle cx="26.8" cy="20.0" r="0.3" />
<circle cx="27.5" cy="21.0" r="0.3" />
<circle cx="28.2" cy="23.0" r="0.3" />
<circle cx="28.9" cy="24.0" r="0.3" />
<circle cx="29.5" cy="26.0" r="0.3" />
<circle cx="30.2" cy="29.0" r="0.3" />
<circle cx="30.9" cy="17.0" r="0.3" />
<circle cx="31.5" cy="18.0" r="0.3" />
<circle cx="32.2" cy="19.0" r="0.3" />
<circle cx="32.9" cy="21.0" r="0.3" />
<circle cx="33.6" cy="22.0" r="0.3" />
<circle cx="34.2" cy="24.0" r="0.3" />
<circle cx="34.9" cy="25.0" r="0.3" />
<circle cx="35.6" cy="27.0" r="0.3" />
<circle cx="36.2" cy="30.0" r="0.3" />
<circle cx="36.9" cy="31.0" r="0.3" />
<circle cx="37.6" cy="20.0" r="0.3" />
<circle cx="38.3" cy="21.0" r="0.3" />
<circle cx="38.9" cy="22.0" r="0.3" />
<circle cx="39.6" cy="24.0" r="0.3" />
<circle cx="40.3" cy="25.0" r="0.3" />
<circle cx="40.9" cy="27.0" r="0.3" />
<circle cx="41.6" cy="28.0" r="0.3" />
<circle cx="42.3" cy="30.0" r="0.3" />
<circle cx="43.0" cy="33.0" r="0.3" />
<circle cx="43.6" cy="34.0" r="0.3" />
<circle cx="44.3" cy="37.0" r="0.3" />
<circle cx="45.0" cy="22.0" r="0.3" />
<circle cx="45.6" cy="23.0" r="0.3" />
<circle cx="46.3" cy="24.0" r="0.3" />
<circle cx="47.0" cy="26.0" r="0.3" />
<circle cx="47.7" cy="27.0" r="0.3" />
<circle cx="48.3" cy="29.0" r="0.3" />
<circle cx="49.0" cy="30.0" r="0.3" />
<circle cx="49.7" cy="32.0" r="0.3" />
<circle cx="50.3" cy="35.0" r="0.3" />
<circle cx="51.0" cy="36.0" r="0.3" />
<circle cx="51.7" cy="39.0" r="0.3" />
<circle cx="52.4" cy="41.0" r="0.3" />
<circle cx="53.0" cy="23.0" r="0.3" />
<circle cx="53.7" cy="24.0" r="0.3" />
<circle cx="54.4" cy="25.0" r="0.3" />
<circle cx="55.0" cy="27.0" r="0.3" />
<circle cx="55.7" cy="28.0" r="0.3" />
<circle cx="56.4" cy="30.0" r="0.3" />
<circle cx="57.1" cy="31.0" r="0.3" />
<circle cx="57.7" cy="33.0" r="0.3" />
<circle cx="58.4" cy="36.0" r="0.3" />
<circle cx="59.1" cy="37.0" r="0.3" />
<circle cx="59.7" cy="40.0" r="0.3" />
<circle cx="60.4" cy="42.0" r="0.3" />
<circle cx="61.1" cy="43.0" r="0.3" />
<circle cx="61.7" cy="25.0" r="0.3" />
<circle cx="62.4" cy="26.0" r="0.3" />
<circle cx="63.1" cy="27.0" r="0.3" />
<circle cx="63.8" cy="29.0" r="0.3" />
<circle cx="64.4" cy="30.0" r="0.3" />
<circle cx="65.1" cy="32.0" r="0.3" />
<circle cx="65.8" cy="33.0" r="0.3" />
<circle cx="66.4" cy="35.0" r="0.3" />
<circle cx="67.1" cy="38.0" r="0.3" />
<circle cx="67.8" cy="39.0" r="0.3" />
<circle cx="68.5" cy="42.0" r="0.3" />
<circle cx="69.1" cy="44.0" r="0.3" />
<circle cx="69.8" cy="45.0" r="0.3" />
<circle cx="70.5" cy="47.0" r="0.3" />
<circle cx="71.1" cy="28.0" r="0.3" />
<circle cx="71.8" cy="29.0" r="0.3" />
<circle cx="72.5" cy="30.0" r="0.3" />
<circle cx="73.2" cy="32.0" r="0.3" />
<circle cx="73.8" cy="33.0" r="0.3" />
<circle cx="74.5" cy="35.0" r="0.3" />
<circle cx="75.2" cy="36.0" r="0.3" />
<circle cx="75.8" cy="38.0" r="0.3" />
<circle cx="76.5" cy="41.0" r="0.3" />
<circle cx="77.2" cy="42.0" r="0.3" />
<circle cx="77.9" cy="45.0" r="0.3" />
<circle cx="78.5" cy="47.0" r="0.3" />
<circle cx="79.2" cy="48.0" r="0.3" />
<circle cx="79.9" cy="50.0" r="0.3" />
<circle cx="80.5" cy="53.0" r="0.3" />
<circle cx="81.2" cy="31.0" r="0.3" />
<circle cx="81.9" cy="32.0" r="0.3" />
<circle cx="82.6" cy="33.0" r="0.3" />
<circle cx="83.2" cy="35.0" r="0.3" />
<circle cx="83.9" cy="36.0" r="0.3" />
<circle cx="84.6" cy="38.0" r="0.3" />
<circle cx="85.2" cy="39.0" r="0.3" />
<circle cx="85.9" cy="41.0" r="0.3" />
<circle cx="86.6" cy="44.0" r="0.3" />
<circle cx="87.3" cy="45.0" r="0.3" />
<circle cx="87.9" cy="48.0" r="0.3" />
<circle cx="88.6" cy="50.0" r="0.3" />
<circle cx="89.3" cy="51.0" r="0.3" />
<circle cx="89.9" cy="53.0" r="0.3" />
<circle cx="90.6" cy="56.0" r="0.3" />
<circle cx="91.3" cy="59.0" r="0.3" />
</g>
</svg>