<svg xmlns="http://www.w3.org/2000/svg" width="161.8" height="100.0" viewBox="-3.44 5.00 171.80 110.00">
<g fill="none" stroke="black" stroke-width="0.0500%" transform="translate(0, 120.0000) scale(10.0000, -10.0000)">
<circle cx="0.16" cy="1.00" r="0.05" />
<circle cx="0.31" cy="2.00" r="0.05" />
<circle cx="0.47" cy="2.00" r="0.05" />
<circle cx="0.62" cy="3.00" r="0.05" />
<circle cx="0.78" cy="2.00" r="0.05" />
<circle cx="0.93" cy="3.00" r="0.05" />
<circle cx="1.09" cy="2.00" r="0.05" />
<circle cx="1.24" cy="4.00" r="0.05" />
<circle cx="1.40" cy="3.00" r="0.05" />
<circle cx="1.56" cy="3.00" r="0.05" />
<circle cx="1.71" cy="2.00" r="0.05" />
<circle cx="1.87" cy="5.00" r="0.05" />
<circle cx="2.02" cy="2.00" r="0.05" />
<circle cx="2.18" cy="3.00" r="0.05" />
<circle cx="2.33" cy="3.00" r="0.05" />
<circle cx="2.49" cy="5.00" r="0.05" />
<circle cx="2.64" cy="2.00" r="0.05" />
<circle cx="2.80" cy="5.00" r="0.05" />
<circle cx="2.96" cy="2.00" r="0.05" />
<circle cx="3.11" cy="5.00" r="0.05" />
<circle cx="3.27" cy="3.00" r="0.05" />
<circle cx="3.42" cy="3.00" r="0.05" />
<circle cx="3.58" cy="2.00" r="0.05" />
<circle cx="3.73" cy="7.00" r="0.05" />
<circle cx="3.89" cy="3.00" r="0.05" />
<circle cx="4.05" cy="3.00" r="0.05" />
<circle cx="4.20" cy="4.00" r="0.05" />
<circle cx="4.36" cy="5.00" r="0.05" />
<circle cx="4.51" cy="2.00" r="0.05" />
<circle cx="4.67" cy="4.00" r="0.05" />
<circle cx="4.82" cy="2.00" r="0.05" />
<circle cx="4.98" cy="6.00" r="0.05" />
<circle cx="5.13" cy="3.00" r="0.05" />
<circle cx="5.29" cy="3.00" r="0.05" />
<circle cx="5.45" cy="3.00" r="0.05" />
<circle cx="5.60" cy="7.00" r="0.05" />
<circle cx="5.76" cy="2.00" r="0.05" />
<circle cx="5.91" cy="3.00" r="0.05" />
<circle cx="6.07" cy="3.00" r="0.05" />
<circle cx="6.22" cy="7.00" r="0.05" />
<circle cx="6.38" cy="2.00" r="0.05" />
<circle cx="6.53" cy="4.00" r="0.05" />
<circle cx="6.69" cy="2.00" r="0.05" />
<circle cx="6.85" cy="5.00" r="0.05" />
<circle cx="7.00" cy="5.00" r="0.05" />
<circle cx="7.16" cy="3.00" r="0.05" />
<circle cx="7.31" cy="2.00" r="0.05" />
<circle cx="7.47" cy="9.00" r="0.05" />
<circle cx="7.62" cy="3.00" r="0.05" />
<circle cx="7.78" cy="5.00" r="0.05" />
<circle cx="7.93" cy="3.00" r="0.05" />
<circle cx="8.09" cy="5.00" r="0.05" />
<circle cx="8.25" cy="2.00" r="0.05" />
<circle cx="8.40" cy="7.00" r="0.05" />
<circle cx="8.56" cy="3.00" r="0.05" />
<circle cx="8.71" cy="7.00" r="0.05" />
<circle cx="8.87" cy="3.00" r="0.05" />
<circle cx="9.02" cy="3.00" r="0.05" />
<circle cx="9.18" cy="2.00" r="0.05" />
<circle cx="9.33" cy="7.00" r="0.05" />
<circle cx="9.49" cy="2.00" r="0.05" />
<circle cx="9.65" cy="3.00" r="0.05" />
<circle cx="9.80" cy="5.00" r="0.05" />
<circle cx="9.96" cy="7.00" r="0.05" />
<circle cx="10.11" cy="3.00" r="0.05" />
<circle cx="10.27" cy="4.00" r="0.05" />
<circle cx="10.42" cy="2.00" r="0.05" />
<circle cx="10.58" cy="5.00" r="0.05" />
<circle cx="10.74" cy="3.00" r="0.05" />
<circle cx="10.89" cy="4.00" r="0.05" />
<circle cx="11.05" cy="2.00" r="0.05" />
<circle cx="11.20" cy="10.00" r="0.05" />
<circle cx="11.36" cy="2.00" r="0.05" />
<circle cx="11.51" cy="3.00" r="0.05" />
<circle cx="11.67" cy="5.00" r="0.05" />
<circle cx="11.82" cy="5.00" r="0.05" />
<circle cx="11.98" cy="3.00" r="0.05" />
<circle cx="12.14" cy="4.00" r="0.05" />
<circle cx="12.29" cy="2.00" r="0.05" />
<circle cx="12.45" cy="9.00" r="0.05" />
<circle cx="12.60" cy="5.00" r="0.05" />
<circle cx="12.76" cy="3.00" r="0.05" />
<circle cx="12.91" cy="2.00" r="0.05" />
<circle cx="13.07" cy="7.00" r="0.05" />
<circle cx="13.22" cy="3.00" r="0.05" />
<circle cx="13.38" cy="3.00" r="0.05" />
<circle cx="13.54" cy="3.00" r="0.05" />
<circle cx="13.69" cy="7.00" r="0.05" />
<circle cx="13.85" cy="2.00" r="0.05" />
<circle cx="14.00" cy="7.00" r="0.05" />
<circle cx="14.16" cy="3.00" r="0.05" />
<circle cx="14.31" cy="5.00" r="0.05" />
<circle cx="14.47" cy="3.00" r="0.05" />
<circle cx="14.62" cy="3.00" r="0.05" />
<circle cx="14.78" cy="3.00" r="0.05" />
<circle cx="14.94" cy="11.00" r="0.05" />
<circle cx="15.09" cy="2.00" r="0.05" />
<circle cx="15.25" cy="5.00" r="0.05" />
<circle cx="15.40" cy="5.00" r="0.05" />
<circle cx="15.56" cy="7.00" r="0.05" />
<circle cx="15.71" cy="2.00" r="0.05" />
<circle cx="15.87" cy="4.00" r="0.05" />
<circle cx="16.02" cy="2.00" r="0.05" />
<circle cx="16.18" cy="7.00" r="0.05" />
<circle cx="16.34" cy="4.00" r="0.05" />
</g>
</svg>