<svg xmlns="http://www.w3.org/2000/svg" width="161.8" height="100.0" viewBox="-3.92 -5.00 171.80 110.00">
<g fill="none" stroke="black" stroke-width="0.0350%" transform="translate(0, 100.0000) scale(14.2857, -14.2857)">
<circle cx="0.08" cy="0.00" r="0.03" />
<circle cx="0.08" cy="2.00" r="0.03" />
<circle cx="0.15" cy="1.00" r="0.03" />
<circle cx="0.23" cy="0.00" r="0.03" />
<circle cx="0.30" cy="0.00" r="0.03" />
<circle cx="0.38" cy="1.00" r="0.03" />
<circle cx="0.45" cy="0.00" r="0.03" />
<circle cx="0.53" cy="1.00" r="0.03" />
<circle cx="0.60" cy="0.00" r="0.03" />
<circle cx="0.68" cy="1.00" r="0.03" />
<circle cx="0.76" cy="2.00" r="0.03" />
<circle cx="0.83" cy="1.00" r="0.03" />
<circle cx="0.91" cy="0.00" r="0.03" />
<circle cx="0.98" cy="1.00" r="0.03" />
<circle cx="1.06" cy="0.00" r="0.03" />
<circle cx="1.13" cy="1.00" r="0.03" />
<circle cx="1.21" cy="2.00" r="0.03" />
<circle cx="1.28" cy="1.00" r="0.03" />
<circle cx="1.36" cy="0.00" r="0.03" />
<circle cx="1.43" cy="1.00" r="0.03" />
<circle cx="1.51" cy="0.00" r="0.03" />
<circle cx="1.59" cy="1.00" r="0.03" />
<circle cx="1.66" cy="2.00" r="0.03" />
<circle cx="1.74" cy="1.00" r="0.03" />
<circle cx="1.81" cy="0.00" r="0.03" />
<circle cx="1.89" cy="1.00" r="0.03" />
<circle cx="1.96" cy="2.00" r="0.03" />
<circle cx="2.04" cy="3.00" r="0.03" />
<circle cx="2.11" cy="2.00" r="0.03" />
<circle cx="2.19" cy="1.00" r="0.03" />
<circle cx="2.27" cy="0.00" r="0.03" />
<circle cx="2.34" cy="1.00" r="0.03" />
<circle cx="2.42" cy="0.00" r="0.03" />
<circle cx="2.49" cy="1.00" r="0.03" />
<circle cx="2.57" cy="2.00" r="0.03" />
<circle cx="2.64" cy="3.00" r="0.03" />
<circle cx="2.72" cy="2.00" r="0.03" />
<circle cx="2.79" cy="1.00" r="0.03" />
<circle cx="2.87" cy="0.00" r="0.03" />
<circle cx="2.94" cy="1.00" r="0.03" />
<circle cx="3.02" cy="2.00" r="0.03" />
<circle cx="3.10" cy="1.00" r="0.03" />
<circle cx="3.17" cy="0.00" r="0.03" />
<circle cx="3.25" cy="1.00" r="0.03" />
<circle cx="3.32" cy="0.00" r="0.03" />
<circle cx="3.40" cy="1.00" r="0.03" />
<circle cx="3.47" cy="2.00" r="0.03" />
<circle cx="3.55" cy="1.00" r="0.03" />
<circle cx="3.62" cy="0.00" r="0.03" />
<circle cx="3.70" cy="1.00" r="0.03" />
<circle cx="3.78" cy="2.00" r="0.03" />
<circle cx="3.85" cy="3.00" r="0.03" />
<circle cx="3.93" cy="2.00" r="0.03" />
<circle cx="4.00" cy="1.00" r="0.03" />
<circle cx="4.08" cy="0.00" r="0.03" />
<circle cx="4.15" cy="1.00" r="0.03" />
<circle cx="4.23" cy="2.00" r="0.03" />
<circle cx="4.30" cy="3.00" r="0.03" />
<circle cx="4.38" cy="2.00" r="0.03" />
<circle cx="4.45" cy="1.00" r="0.03" />
<circle cx="4.53" cy="0.00" r="0.03" />
<circle cx="4.61" cy="1.00" r="0.03" />
<circle cx="4.68" cy="0.00" r="0.03" />
<circle cx="4.76" cy="1.00" r="0.03" />
<circle cx="4.83" cy="2.00" r="0.03" />
<circle cx="4.91" cy="3.00" r="0.03" />
<circle cx="4.98" cy="2.00" r="0.03" />
<circle cx="5.06" cy="1.00" r="0.03" />
<circle cx="5.13" cy="0.00" r="0.03" />
<circle cx="5.21" cy="1.00" r="0.03" />
<circle cx="5.29" cy="2.00" r="0.03" />
<circle cx="5.36" cy="1.00" r="0.03" />
<circle cx="5.44" cy="0.00" r="0.03" />
<circle cx="5.51" cy="1.00" r="0.03" />
<circle cx="5.59" cy="0.00" r="0.03" />
<circle cx="5.66" cy="1.00" r="0.03" />
<circle cx="5.74" cy="2.00" r="0.03" />
<circle cx="5.81" cy="3.00" r="0.03" />
<circle cx="5.89" cy="2.00" r="0.03" />
<circle cx="5.97" cy="1.00" r="0.03" />
<circle cx="6.04" cy="0.00" r="0.03" />
<circle cx="6.12" cy="1.00" r="0.03" />
<circle cx="6.19" cy="2.00" r="0.03" />
<circle cx="6.27" cy="1.00" r="0.03" />
<circle cx="6.34" cy="0.00" r="0.03" />
<circle cx="6.42" cy="1.00" r="0.03" />
<circle cx="6.49" cy="2.00" r="0.03" />
<circle cx="6.57" cy="3.00" r="0.03" />
<circle cx="6.64" cy="2.00" r="0.03" />
<circle cx="6.72" cy="1.00" r="0.03" />
<circle cx="6.80" cy="0.00" r="0.03" />
<circle cx="6.87" cy="1.00" r="0.03" />
<circle cx="6.95" cy="2.00" r="0.03" />
<circle cx="7.02" cy="3.00" r="0.03" />
<circle cx="7.10" cy="4.00" r="0.03" />
<circle cx="7.17" cy="3.00" r="0.03" />
<circle cx="7.25" cy="2.00" r="0.03" />
<circle cx="7.32" cy="1.00" r="0.03" />
<circle cx="7.40" cy="0.00" r="0.03" />
<circle cx="7.48" cy="1.00" r="0.03" />
<circle cx="7.55" cy="2.00" r="0.03" />
<circle cx="7.63" cy="1.00" r="0.03" />
<circle cx="7.70" cy="0.00" r="0.03" />
<circle cx="7.78" cy="1.00" r="0.03" />
<circle cx="7.85" cy="0.00" r="0.03" />
<circle cx="7.93" cy="1.00" r="0.03" />
<circle cx="8.00" cy="2.00" r="0.03" />
<circle cx="8.08" cy="1.00" r="0.03" />
<circle cx="8.15" cy="0.00" r="0.03" />
<circle cx="8.23" cy="1.00" r="0.03" />
<circle cx="8.31" cy="0.00" r="0.03" />
<circle cx="8.38" cy="1.00" r="0.03" />
<circle cx="8.46" cy="2.00" r="0.03" />
<circle cx="8.53" cy="1.00" r="0.03" />
<circle cx="8.61" cy="0.00" r="0.03" />
<circle cx="8.68" cy="1.00" r="0.03" />
<circle cx="8.76" cy="2.00" r="0.03" />
<circle cx="8.83" cy="3.00" r="0.03" />
<circle cx="8.91" cy="4.00" r="0.03" />
<circle cx="8.99" cy="5.00" r="0.03" />
<circle cx="9.06" cy="6.00" r="0.03" />
<circle cx="9.14" cy="7.00" r="0.03" />
<circle cx="9.21" cy="6.00" r="0.03" />
<circle cx="9.29" cy="5.00" r="0.03" />
<circle cx="9.36" cy="4.00" r="0.03" />
<circle cx="9.44" cy="3.00" r="0.03" />
<circle cx="9.51" cy="2.00" r="0.03" />
<circle cx="9.59" cy="1.00" r="0.03" />
<circle cx="9.67" cy="0.00" r="0.03" />
<circle cx="9.74" cy="1.00" r="0.03" />
<circle cx="9.82" cy="2.00" r="0.03" />
<circle cx="9.89" cy="1.00" r="0.03" />
<circle cx="9.97" cy="0.00" r="0.03" />
<circle cx="10.04" cy="1.00" r="0.03" />
<circle cx="10.12" cy="2.00" r="0.03" />
<circle cx="10.19" cy="3.00" r="0.03" />
<circle cx="10.27" cy="2.00" r="0.03" />
<circle cx="10.34" cy="1.00" r="0.03" />
<circle cx="10.42" cy="0.00" r="0.03" />
<circle cx="10.50" cy="1.00" r="0.03" />
<circle cx="10.57" cy="0.00" r="0.03" />
<circle cx="10.65" cy="1.00" r="0.03" />
<circle cx="10.72" cy="2.00" r="0.03" />
<circle cx="10.80" cy="3.00" r="0.03" />
<circle cx="10.87" cy="4.00" r="0.03" />
<circle cx="10.95" cy="5.00" r="0.03" />
<circle cx="11.02" cy="4.00" r="0.03" />
<circle cx="11.10" cy="3.00" r="0.03" />
<circle cx="11.18" cy="2.00" r="0.03" />
<circle cx="11.25" cy="1.00" r="0.03" />
<circle cx="11.33" cy="0.00" r="0.03" />
<circle cx="11.40" cy="1.00" r="0.03" />
</g>
</svg>