<svg xmlns="http://www.w3.org/2000/svg" width="161.8" height="100.0" viewBox="-3.58 4.09 171.80 110.00">
<g fill="none" stroke="black" stroke-width="0.0550%" transform="translate(0, 118.1818) scale(9.0909, -9.0909)">
<circle cx="0.16" cy="1.00" r="0.05" />
<circle cx="0.31" cy="2.00" r="0.05" />
<circle cx="0.47" cy="2.00" r="0.05" />
<circle cx="0.62" cy="3.00" r="0.05" />
<circle cx="0.78" cy="2.00" r="0.05" />
<circle cx="0.94" cy="4.00" r="0.05" />
<circle cx="1.09" cy="2.00" r="0.05" />
<circle cx="1.25" cy="3.00" r="0.05" />
<circle cx="1.41" cy="3.00" r="0.05" />
<circle cx="1.56" cy="4.00" r="0.05" />
<circle cx="1.72" cy="2.00" r="0.05" />
<circle cx="1.87" cy="6.00" r="0.05" />
<circle cx="2.03" cy="2.00" r="0.05" />
<circle cx="2.19" cy="4.00" r="0.05" />
<circle cx="2.34" cy="4.00" r="0.05" />
<circle cx="2.50" cy="4.00" r="0.05" />
<circle cx="2.65" cy="2.00" r="0.05" />
<circle cx="2.81" cy="6.00" r="0.05" />
<circle cx="2.97" cy="2.00" r="0.05" />
<circle cx="3.12" cy="6.00" r="0.05" />
<circle cx="3.28" cy="4.00" r="0.05" />
<circle cx="3.43" cy="4.00" r="0.05" />
<circle cx="3.59" cy="2.00" r="0.05" />
<circle cx="3.75" cy="6.00" r="0.05" />
<circle cx="3.90" cy="3.00" r="0.05" />
<circle cx="4.06" cy="4.00" r="0.05" />
<circle cx="4.22" cy="3.00" r="0.05" />
<circle cx="4.37" cy="6.00" r="0.05" />
<circle cx="4.53" cy="2.00" r="0.05" />
<circle cx="4.68" cy="8.00" r="0.05" />
<circle cx="4.84" cy="2.00" r="0.05" />
<circle cx="5.00" cy="3.00" r="0.05" />
<circle cx="5.15" cy="4.00" r="0.05" />
<circle cx="5.31" cy="4.00" r="0.05" />
<circle cx="5.46" cy="4.00" r="0.05" />
<circle cx="5.62" cy="9.00" r="0.05" />
<circle cx="5.78" cy="2.00" r="0.05" />
<circle cx="5.93" cy="4.00" r="0.05" />
<circle cx="6.09" cy="4.00" r="0.05" />
<circle cx="6.25" cy="6.00" r="0.05" />
<circle cx="6.40" cy="2.00" r="0.05" />
<circle cx="6.56" cy="8.00" r="0.05" />
<circle cx="6.71" cy="2.00" r="0.05" />
<circle cx="6.87" cy="6.00" r="0.05" />
<circle cx="7.03" cy="6.00" r="0.05" />
<circle cx="7.18" cy="4.00" r="0.05" />
<circle cx="7.34" cy="2.00" r="0.05" />
<circle cx="7.49" cy="8.00" r="0.05" />
<circle cx="7.65" cy="3.00" r="0.05" />
<circle cx="7.81" cy="6.00" r="0.05" />
<circle cx="7.96" cy="4.00" r="0.05" />
<circle cx="8.12" cy="6.00" r="0.05" />
<circle cx="8.27" cy="2.00" r="0.05" />
<circle cx="8.43" cy="6.00" r="0.05" />
<circle cx="8.59" cy="4.00" r="0.05" />
<circle cx="8.74" cy="6.00" r="0.05" />
<circle cx="8.90" cy="4.00" r="0.05" />
<circle cx="9.06" cy="4.00" r="0.05" />
<circle cx="9.21" cy="2.00" r="0.05" />
<circle cx="9.37" cy="12.00" r="0.05" />
<circle cx="9.52" cy="2.00" r="0.05" />
<circle cx="9.68" cy="4.00" r="0.05" />
<circle cx="9.84" cy="6.00" r="0.05" />
<circle cx="9.99" cy="5.00" r="0.05" />
<circle cx="10.15" cy="4.00" r="0.05" />
<circle cx="10.30" cy="8.00" r="0.05" />
<circle cx="10.46" cy="2.00" r="0.05" />
<circle cx="10.62" cy="6.00" r="0.05" />
<circle cx="10.77" cy="4.00" r="0.05" />
<circle cx="10.93" cy="8.00" r="0.05" />
<circle cx="11.08" cy="2.00" r="0.05" />
<circle cx="11.24" cy="9.00" r="0.05" />
<circle cx="11.40" cy="2.00" r="0.05" />
<circle cx="11.55" cy="4.00" r="0.05" />
<circle cx="11.71" cy="6.00" r="0.05" />
<circle cx="11.87" cy="6.00" r="0.05" />
<circle cx="12.02" cy="4.00" r="0.05" />
<circle cx="12.18" cy="8.00" r="0.05" />
<circle cx="12.33" cy="2.00" r="0.05" />
<circle cx="12.49" cy="8.00" r="0.05" />
<circle cx="12.65" cy="4.00" r="0.05" />
<circle cx="12.80" cy="4.00" r="0.05" />
<circle cx="12.96" cy="2.00" r="0.05" />
<circle cx="13.11" cy="12.00" r="0.05" />
<circle cx="13.27" cy="4.00" r="0.05" />
<circle cx="13.43" cy="4.00" r="0.05" />
<circle cx="13.58" cy="4.00" r="0.05" />
<circle cx="13.74" cy="6.00" r="0.05" />
<circle cx="13.90" cy="2.00" r="0.05" />
<circle cx="14.05" cy="12.00" r="0.05" />
<circle cx="14.21" cy="4.00" r="0.05" />
<circle cx="14.36" cy="6.00" r="0.05" />
<circle cx="14.52" cy="4.00" r="0.05" />
<circle cx="14.68" cy="4.00" r="0.05" />
<circle cx="14.83" cy="4.00" r="0.05" />
<circle cx="14.99" cy="6.00" r="0.05" />
<circle cx="15.14" cy="2.00" r="0.05" />
<circle cx="15.30" cy="6.00" r="0.05" />
<circle cx="15.46" cy="6.00" r="0.05" />
<circle cx="15.61" cy="9.00" r="0.05" />
<circle cx="15.77" cy="2.00" r="0.05" />
<circle cx="15.92" cy="8.00" r="0.05" />
<circle cx="16.08" cy="2.00" r="0.05" />
<circle cx="16.24" cy="6.00" r="0.05" />
<circle cx="16.39" cy="8.00" r="0.05" />
<circle cx="16.55" cy="4.00" r="0.05" />
<circle cx="16.71" cy="2.00" r="0.05" />
<circle cx="16.86" cy="9.00" r="0.05" />
<circle cx="17.02" cy="2.00" r="0.05" />
<circle cx="17.17" cy="8.00" r="0.05" />
<circle cx="17.33" cy="4.00" r="0.05" />
<circle cx="17.49" cy="8.00" r="0.05" />
<circle cx="17.64" cy="2.00" r="0.05" />
<circle cx="17.80" cy="8.00" r="0.05" />
<circle cx="17.95" cy="4.00" r="0.05" />
</g>
</svg>