<svg xmlns="http://www.w3.org/2000/svg" width="161.8" height="100.0" viewBox="-3 -5 172 110">
<g fill="none" stroke="black" stroke-width="219.2750%" transform="translate(0, 100.0046) scale(0.0023, -0.0023)">
<circle cx="797" cy="1" r="219" />
<circle cx="1595" cy="2" r="219" />
<circle cx="2392" cy="5" r="219" />
<circle cx="3189" cy="8" r="219" />
<circle cx="3986" cy="23" r="219" />
<circle cx="4784" cy="26" r="219" />
<circle cx="5581" cy="68" r="219" />
<circle cx="6378" cy="57" r="219" />
<circle cx="7176" cy="139" r="219" />
<circle cx="7973" cy="174" r="219" />
<circle cx="8770" cy="123" r="219" />
<circle cx="9567" cy="222" r="219" />
<circle cx="10365" cy="328" r="219" />
<circle cx="11162" cy="257" r="219" />
<circle cx="11959" cy="612" r="219" />
<circle cx="12757" cy="636" r="219" />
<circle cx="13554" cy="886" r="219" />
<circle cx="14351" cy="488" r="219" />
<circle cx="15149" cy="669" r="219" />
<circle cx="15946" cy="1064" r="219" />
<circle cx="16743" cy="876" r="219" />
<circle cx="17540" cy="1105" r="219" />
<circle cx="18338" cy="1744" r="219" />
<circle cx="19135" cy="1780" r="219" />
<circle cx="19932" cy="1552" r="219" />
<circle cx="20730" cy="2020" r="219" />
<circle cx="21527" cy="1853" r="219" />
<circle cx="22324" cy="2890" r="219" />
<circle cx="23121" cy="1962" r="219" />
<circle cx="23919" cy="2712" r="219" />
<circle cx="24716" cy="2413" r="219" />
<circle cx="25513" cy="3536" r="219" />
<circle cx="26311" cy="4384" r="219" />
<circle cx="27108" cy="3335" r="219" />
<circle cx="27905" cy="5364" r="219" />
<circle cx="28702" cy="3322" r="219" />
<circle cx="29500" cy="3768" r="219" />
<circle cx="30297" cy="4564" r="219" />
<circle cx="31094" cy="7683" r="219" />
<circle cx="31892" cy="7266" r="219" />
<circle cx="32689" cy="8235" r="219" />
<circle cx="33486" cy="4344" r="219" />
<circle cx="34284" cy="8021" r="219" />
<circle cx="35081" cy="6176" r="219" />
<circle cx="35878" cy="8274" r="219" />
<circle cx="36675" cy="6965" r="219" />
<circle cx="37473" cy="5698" r="219" />
<circle cx="38270" cy="7581" r="219" />
<circle cx="39067" cy="13167" r="219" />
<circle cx="39865" cy="8244" r="219" />
<circle cx="40662" cy="13048" r="219" />
<circle cx="41459" cy="12666" r="219" />
<circle cx="42256" cy="7712" r="219" />
<circle cx="43054" cy="13052" r="219" />
<circle cx="43851" cy="16448" r="219" />
<circle cx="44648" cy="18674" r="219" />
<circle cx="45446" cy="17754" r="219" />
<circle cx="46243" cy="10569" r="219" />
<circle cx="47040" cy="12188" r="219" />
<circle cx="47837" cy="13488" r="219" />
<circle cx="48635" cy="13583" r="219" />
<circle cx="49432" cy="21096" r="219" />
<circle cx="50229" cy="14736" r="219" />
<circle cx="51027" cy="20525" r="219" />
<circle cx="51824" cy="15024" r="219" />
<circle cx="52621" cy="24726" r="219" />
<circle cx="53418" cy="14565" r="219" />
<circle cx="54216" cy="16176" r="219" />
<circle cx="55013" cy="30537" r="219" />
<circle cx="55810" cy="19544" r="219" />
<circle cx="56608" cy="28240" r="219" />
<circle cx="57405" cy="35183" r="219" />
<circle cx="58202" cy="22753" r="219" />
<circle cx="59000" cy="22380" r="219" />
<circle cx="59797" cy="19329" r="219" />
<circle cx="60594" cy="39450" r="219" />
<circle cx="61391" cy="37344" r="219" />
<circle cx="62189" cy="23820" r="219" />
<circle cx="62986" cy="32080" r="219" />
<circle cx="63783" cy="26176" r="219" />
<circle cx="64581" cy="38547" r="219" />
<circle cx="65378" cy="20208" r="219" />
<circle cx="66175" cy="37065" r="219" />
<circle cx="66972" cy="31176" r="219" />
<circle cx="67770" cy="32485" r="219" />
<circle cx="68567" cy="43856" r="219" />
<circle cx="69364" cy="43104" r="219" />
<circle cx="70162" cy="32904" r="219" />
<circle cx="70959" cy="40568" r="219" />
<circle cx="71756" cy="28707" r="219" />
</g>
</svg>