<svg xmlns="http://www.w3.org/2000/svg" width="161.8" height="100.0" viewBox="-4.2 -3.4 171.8 110.0">
<g fill="none" stroke="black" stroke-width="0.3050%" transform="translate(0, 103.2787) scale(1.6393, -1.6393)">
<circle cx="0.5" cy="1.0" r="0.3" />
<circle cx="1.0" cy="1.0" r="0.3" />
<circle cx="1.5" cy="2.0" r="0.3" />
<circle cx="2.0" cy="1.0" r="0.3" />
<circle cx="2.5" cy="3.0" r="0.3" />
<circle cx="3.0" cy="2.0" r="0.3" />
<circle cx="3.5" cy="4.0" r="0.3" />
<circle cx="4.0" cy="1.0" r="0.3" />
<circle cx="4.5" cy="3.0" r="0.3" />
<circle cx="5.0" cy="4.0" r="0.3" />
<circle cx="5.5" cy="5.0" r="0.3" />
<circle cx="6.0" cy="2.0" r="0.3" />
<circle cx="6.4" cy="6.0" r="0.3" />
<circle cx="6.9" cy="5.0" r="0.3" />
<circle cx="7.4" cy="6.0" r="0.3" />
<circle cx="7.9" cy="1.0" r="0.3" />
<circle cx="8.4" cy="7.0" r="0.3" />
<circle cx="8.9" cy="3.0" r="0.3" />
<circle cx="9.4" cy="8.0" r="0.3" />
<circle cx="9.9" cy="4.0" r="0.3" />
<circle cx="10.4" cy="7.0" r="0.3" />
<circle cx="10.9" cy="8.0" r="0.3" />
<circle cx="11.4" cy="9.0" r="0.3" />
<circle cx="11.9" cy="2.0" r="0.3" />
<circle cx="12.4" cy="9.0" r="0.3" />
<circle cx="12.9" cy="10.0" r="0.3" />
<circle cx="13.4" cy="5.0" r="0.3" />
<circle cx="13.9" cy="6.0" r="0.3" />
<circle cx="14.4" cy="10.0" r="0.3" />
<circle cx="14.9" cy="7.0" r="0.3" />
<circle cx="15.4" cy="11.0" r="0.3" />
<circle cx="15.9" cy="1.0" r="0.3" />
<circle cx="16.4" cy="11.0" r="0.3" />
<circle cx="16.9" cy="12.0" r="0.3" />
<circle cx="17.4" cy="13.0" r="0.3" />
<circle cx="17.9" cy="3.0" r="0.3" />
<circle cx="18.4" cy="12.0" r="0.3" />
<circle cx="18.8" cy="14.0" r="0.3" />
<circle cx="19.3" cy="15.0" r="0.3" />
<circle cx="19.8" cy="4.0" r="0.3" />
<circle cx="20.3" cy="13.0" r="0.3" />
<circle cx="20.8" cy="8.0" r="0.3" />
<circle cx="21.3" cy="14.0" r="0.3" />
<circle cx="21.8" cy="9.0" r="0.3" />
<circle cx="22.3" cy="10.0" r="0.3" />
<circle cx="22.8" cy="16.0" r="0.3" />
<circle cx="23.3" cy="15.0" r="0.3" />
<circle cx="23.8" cy="2.0" r="0.3" />
<circle cx="24.3" cy="17.0" r="0.3" />
<circle cx="24.8" cy="11.0" r="0.3" />
<circle cx="25.3" cy="18.0" r="0.3" />
<circle cx="25.8" cy="12.0" r="0.3" />
<circle cx="26.3" cy="16.0" r="0.3" />
<circle cx="26.8" cy="5.0" r="0.3" />
<circle cx="27.3" cy="19.0" r="0.3" />
<circle cx="27.8" cy="6.0" r="0.3" />
<circle cx="28.3" cy="20.0" r="0.3" />
<circle cx="28.8" cy="21.0" r="0.3" />
<circle cx="29.3" cy="17.0" r="0.3" />
<circle cx="29.8" cy="7.0" r="0.3" />
<circle cx="30.3" cy="18.0" r="0.3" />
<circle cx="30.8" cy="22.0" r="0.3" />
<circle cx="31.2" cy="13.0" r="0.3" />
<circle cx="31.7" cy="1.0" r="0.3" />
<circle cx="32.2" cy="23.0" r="0.3" />
<circle cx="32.7" cy="14.0" r="0.3" />
<circle cx="33.2" cy="19.0" r="0.3" />
<circle cx="33.7" cy="15.0" r="0.3" />
<circle cx="34.2" cy="24.0" r="0.3" />
<circle cx="34.7" cy="16.0" r="0.3" />
<circle cx="35.2" cy="20.0" r="0.3" />
<circle cx="35.7" cy="3.0" r="0.3" />
<circle cx="36.2" cy="21.0" r="0.3" />
<circle cx="36.7" cy="25.0" r="0.3" />
<circle cx="37.2" cy="17.0" r="0.3" />
<circle cx="37.7" cy="18.0" r="0.3" />
<circle cx="38.2" cy="26.0" r="0.3" />
<circle cx="38.7" cy="19.0" r="0.3" />
<circle cx="39.2" cy="22.0" r="0.3" />
<circle cx="39.7" cy="4.0" r="0.3" />
<circle cx="40.2" cy="8.0" r="0.3" />
<circle cx="40.7" cy="27.0" r="0.3" />
<circle cx="41.2" cy="23.0" r="0.3" />
<circle cx="41.7" cy="9.0" r="0.3" />
<circle cx="42.2" cy="28.0" r="0.3" />
<circle cx="42.7" cy="29.0" r="0.3" />
<circle cx="43.2" cy="30.0" r="0.3" />
<circle cx="43.6" cy="10.0" r="0.3" />
<circle cx="44.1" cy="24.0" r="0.3" />
<circle cx="44.6" cy="11.0" r="0.3" />
<circle cx="45.1" cy="31.0" r="0.3" />
<circle cx="45.6" cy="20.0" r="0.3" />
<circle cx="46.1" cy="32.0" r="0.3" />
<circle cx="46.6" cy="33.0" r="0.3" />
<circle cx="47.1" cy="34.0" r="0.3" />
<circle cx="47.6" cy="2.0" r="0.3" />
<circle cx="48.1" cy="25.0" r="0.3" />
<circle cx="48.6" cy="21.0" r="0.3" />
<circle cx="49.1" cy="22.0" r="0.3" />
<circle cx="49.6" cy="12.0" r="0.3" />
<circle cx="50.1" cy="26.0" r="0.3" />
<circle cx="50.6" cy="23.0" r="0.3" />
<circle cx="51.1" cy="27.0" r="0.3" />
<circle cx="51.6" cy="13.0" r="0.3" />
<circle cx="52.1" cy="24.0" r="0.3" />
<circle cx="52.6" cy="35.0" r="0.3" />
<circle cx="53.1" cy="28.0" r="0.3" />
<circle cx="53.6" cy="5.0" r="0.3" />
<circle cx="54.1" cy="29.0" r="0.3" />
<circle cx="54.6" cy="25.0" r="0.3" />
<circle cx="55.1" cy="36.0" r="0.3" />
<circle cx="55.5" cy="6.0" r="0.3" />
<circle cx="56.0" cy="30.0" r="0.3" />
<circle cx="56.5" cy="26.0" r="0.3" />
<circle cx="57.0" cy="37.0" r="0.3" />
<circle cx="57.5" cy="27.0" r="0.3" />
<circle cx="58.0" cy="28.0" r="0.3" />
<circle cx="58.5" cy="38.0" r="0.3" />
<circle cx="59.0" cy="39.0" r="0.3" />
<circle cx="59.5" cy="7.0" r="0.3" />
<circle cx="60.0" cy="40.0" r="0.3" />
<circle cx="60.5" cy="41.0" r="0.3" />
<circle cx="61.0" cy="42.0" r="0.3" />
<circle cx="61.5" cy="29.0" r="0.3" />
<circle cx="62.0" cy="30.0" r="0.3" />
<circle cx="62.5" cy="14.0" r="0.3" />
<circle cx="63.0" cy="31.0" r="0.3" />
<circle cx="63.5" cy="1.0" r="0.3" />
<circle cx="64.0" cy="43.0" r="0.3" />
<circle cx="64.5" cy="31.0" r="0.3" />
<circle cx="65.0" cy="32.0" r="0.3" />
<circle cx="65.5" cy="15.0" r="0.3" />
<circle cx="66.0" cy="44.0" r="0.3" />
<circle cx="66.5" cy="45.0" r="0.3" />
<circle cx="67.0" cy="16.0" r="0.3" />
<circle cx="67.5" cy="17.0" r="0.3" />
<circle cx="67.9" cy="33.0" r="0.3" />
<circle cx="68.4" cy="32.0" r="0.3" />
<circle cx="68.9" cy="34.0" r="0.3" />
<circle cx="69.4" cy="18.0" r="0.3" />
<circle cx="69.9" cy="46.0" r="0.3" />
<circle cx="70.4" cy="47.0" r="0.3" />
<circle cx="70.9" cy="48.0" r="0.3" />
<circle cx="71.4" cy="3.0" r="0.3" />
<circle cx="71.9" cy="49.0" r="0.3" />
<circle cx="72.4" cy="50.0" r="0.3" />
<circle cx="72.9" cy="33.0" r="0.3" />
<circle cx="73.4" cy="34.0" r="0.3" />
<circle cx="73.9" cy="35.0" r="0.3" />
<circle cx="74.4" cy="19.0" r="0.3" />
<circle cx="74.9" cy="36.0" r="0.3" />
<circle cx="75.4" cy="20.0" r="0.3" />
<circle cx="75.9" cy="35.0" r="0.3" />
<circle cx="76.4" cy="36.0" r="0.3" />
<circle cx="76.9" cy="51.0" r="0.3" />
<circle cx="77.4" cy="21.0" r="0.3" />
<circle cx="77.9" cy="37.0" r="0.3" />
<circle cx="78.4" cy="52.0" r="0.3" />
<circle cx="78.9" cy="53.0" r="0.3" />
<circle cx="79.4" cy="4.0" r="0.3" />
<circle cx="79.9" cy="54.0" r="0.3" />
<circle cx="80.3" cy="8.0" r="0.3" />
<circle cx="80.8" cy="38.0" r="0.3" />
<circle cx="81.3" cy="37.0" r="0.3" />
<circle cx="81.8" cy="38.0" r="0.3" />
<circle cx="82.3" cy="55.0" r="0.3" />
<circle cx="82.8" cy="39.0" r="0.3" />
<circle cx="83.3" cy="9.0" r="0.3" />
<circle cx="83.8" cy="56.0" r="0.3" />
<circle cx="84.3" cy="39.0" r="0.3" />
<circle cx="84.8" cy="40.0" r="0.3" />
<circle cx="85.3" cy="41.0" r="0.3" />
<circle cx="85.8" cy="40.0" r="0.3" />
<circle cx="86.3" cy="42.0" r="0.3" />
<circle cx="86.8" cy="43.0" r="0.3" />
<circle cx="87.3" cy="10.0" r="0.3" />
<circle cx="87.8" cy="57.0" r="0.3" />
<circle cx="88.3" cy="58.0" r="0.3" />
<circle cx="88.8" cy="41.0" r="0.3" />
<circle cx="89.3" cy="11.0" r="0.3" />
<circle cx="89.8" cy="42.0" r="0.3" />
<circle cx="90.3" cy="44.0" r="0.3" />
<circle cx="90.8" cy="59.0" r="0.3" />
<circle cx="91.3" cy="22.0" r="0.3" />
<circle cx="91.8" cy="60.0" r="0.3" />
<circle cx="92.3" cy="45.0" r="0.3" />
<circle cx="92.7" cy="61.0" r="0.3" />
<circle cx="93.2" cy="46.0" r="0.3" />
<circle cx="93.7" cy="23.0" r="0.3" />
<circle cx="94.2" cy="47.0" r="0.3" />
<circle cx="94.7" cy="43.0" r="0.3" />
<circle cx="95.2" cy="2.0" r="0.3" />
<circle cx="95.7" cy="44.0" r="0.3" />
<circle cx="96.2" cy="62.0" r="0.3" />
<circle cx="96.7" cy="48.0" r="0.3" />
<circle cx="97.2" cy="24.0" r="0.3" />
<circle cx="97.7" cy="45.0" r="0.3" />
<circle cx="98.2" cy="25.0" r="0.3" />
<circle cx="98.7" cy="46.0" r="0.3" />
<circle cx="99.2" cy="12.0" r="0.3" />
</g>
</svg>