<svg xmlns="http://www.w3.org/2000/svg" width="150.2" height="100.0" viewBox="-3.40 -5.00 160.25 110.00">
<g fill="none" stroke="black" stroke-width="0.0700%" transform="translate(0, 100.0000) scale(7.1429, -7.1429)">
<line x1="0.22" y1="0.00" x2="0.22" y2="1.00" />
<line x1="0.45" y1="0.00" x2="0.45" y2="2.00" />
<line x1="0.67" y1="0.00" x2="0.67" y2="1.00" />
<line x1="0.90" y1="0.00" x2="0.90" y2="2.00" />
<line x1="1.12" y1="0.00" x2="1.12" y2="3.00" />
<line x1="1.34" y1="0.00" x2="1.34" y2="1.00" />
<line x1="1.57" y1="0.00" x2="1.57" y2="3.00" />
<line x1="1.79" y1="0.00" x2="1.79" y2="4.00" />
<line x1="2.01" y1="0.00" x2="2.01" y2="1.00" />
<line x1="2.24" y1="0.00" x2="2.24" y2="2.00" />
<line x1="2.46" y1="0.00" x2="2.46" y2="3.00" />
<line x1="2.69" y1="0.00" x2="2.69" y2="2.00" />
<line x1="2.91" y1="0.00" x2="2.91" y2="3.00" />
<line x1="3.13" y1="0.00" x2="3.13" y2="1.00" />
<line x1="3.36" y1="0.00" x2="3.36" y2="4.00" />
<line x1="3.58" y1="0.00" x2="3.58" y2="5.00" />
<line x1="3.80" y1="0.00" x2="3.80" y2="1.00" />
<line x1="4.03" y1="0.00" x2="4.03" y2="2.00" />
<line x1="4.25" y1="0.00" x2="4.25" y2="4.00" />
<line x1="4.48" y1="0.00" x2="4.48" y2="6.00" />
<line x1="4.70" y1="0.00" x2="4.70" y2="1.00" />
<line x1="4.92" y1="0.00" x2="4.92" y2="5.00" />
<line x1="5.15" y1="0.00" x2="5.15" y2="2.00" />
<line x1="5.37" y1="0.00" x2="5.37" y2="4.00" />
<line x1="5.59" y1="0.00" x2="5.59" y2="1.00" />
<line x1="5.82" y1="0.00" x2="5.82" y2="2.00" />
<line x1="6.04" y1="0.00" x2="6.04" y2="3.00" />
<line x1="6.27" y1="0.00" x2="6.27" y2="4.00" />
<line x1="6.49" y1="0.00" x2="6.49" y2="7.00" />
<line x1="6.71" y1="0.00" x2="6.71" y2="1.00" />
<line x1="6.94" y1="0.00" x2="6.94" y2="3.00" />
<line x1="7.16" y1="0.00" x2="7.16" y2="4.00" />
<line x1="7.38" y1="0.00" x2="7.38" y2="8.00" />
<line x1="7.61" y1="0.00" x2="7.61" y2="1.00" />
<line x1="7.83" y1="0.00" x2="7.83" y2="2.00" />
<line x1="8.06" y1="0.00" x2="8.06" y2="5.00" />
<line x1="8.28" y1="0.00" x2="8.28" y2="2.00" />
<line x1="8.50" y1="0.00" x2="8.50" y2="5.00" />
<line x1="8.73" y1="0.00" x2="8.73" y2="1.00" />
<line x1="8.95" y1="0.00" x2="8.95" y2="6.00" />
<line x1="9.17" y1="0.00" x2="9.17" y2="9.00" />
<line x1="9.40" y1="0.00" x2="9.40" y2="1.00" />
<line x1="9.62" y1="0.00" x2="9.62" y2="2.00" />
<line x1="9.85" y1="0.00" x2="9.85" y2="3.00" />
<line x1="10.07" y1="0.00" x2="10.07" y2="5.00" />
<line x1="10.29" y1="0.00" x2="10.29" y2="3.00" />
<line x1="10.52" y1="0.00" x2="10.52" y2="4.00" />
<line x1="10.74" y1="0.00" x2="10.74" y2="1.00" />
<line x1="10.96" y1="0.00" x2="10.96" y2="7.00" />
<line x1="11.19" y1="0.00" x2="11.19" y2="2.00" />
<line x1="11.41" y1="0.00" x2="11.41" y2="3.00" />
<line x1="11.64" y1="0.00" x2="11.64" y2="4.00" />
<line x1="11.86" y1="0.00" x2="11.86" y2="1.00" />
<line x1="12.08" y1="0.00" x2="12.08" y2="2.00" />
<line x1="12.31" y1="0.00" x2="12.31" y2="6.00" />
<line x1="12.53" y1="0.00" x2="12.53" y2="10.00" />
<line x1="12.75" y1="0.00" x2="12.75" y2="1.00" />
<line x1="12.98" y1="0.00" x2="12.98" y2="3.00" />
<line x1="13.20" y1="0.00" x2="13.20" y2="5.00" />
<line x1="13.43" y1="0.00" x2="13.43" y2="11.00" />
<line x1="13.65" y1="0.00" x2="13.65" y2="1.00" />
<line x1="13.87" y1="0.00" x2="13.87" y2="2.00" />
<line x1="14.10" y1="0.00" x2="14.10" y2="3.00" />
<line x1="14.32" y1="0.00" x2="14.32" y2="4.00" />
<line x1="14.55" y1="0.00" x2="14.55" y2="5.00" />
<line x1="14.77" y1="0.00" x2="14.77" y2="2.00" />
<line x1="14.99" y1="0.00" x2="14.99" y2="6.00" />
<line x1="15.22" y1="0.00" x2="15.22" y2="1.00" />
<line x1="15.44" y1="0.00" x2="15.44" y2="8.00" />
<line x1="15.66" y1="0.00" x2="15.66" y2="3.00" />
<line x1="15.89" y1="0.00" x2="15.89" y2="5.00" />
<line x1="16.11" y1="0.00" x2="16.11" y2="1.00" />
<line x1="16.34" y1="0.00" x2="16.34" y2="2.00" />
<line x1="16.56" y1="0.00" x2="16.56" y2="4.00" />
<line x1="16.78" y1="0.00" x2="16.78" y2="5.00" />
<line x1="17.01" y1="0.00" x2="17.01" y2="12.00" />
<line x1="17.23" y1="0.00" x2="17.23" y2="1.00" />
<line x1="17.45" y1="0.00" x2="17.45" y2="9.00" />
<line x1="17.68" y1="0.00" x2="17.68" y2="2.00" />
<line x1="17.90" y1="0.00" x2="17.90" y2="7.00" />
<line x1="18.13" y1="0.00" x2="18.13" y2="1.00" />
<line x1="18.35" y1="0.00" x2="18.35" y2="2.00" />
<line x1="18.57" y1="0.00" x2="18.57" y2="3.00" />
<line x1="18.80" y1="0.00" x2="18.80" y2="6.00" />
<line x1="19.02" y1="0.00" x2="19.02" y2="13.00" />
<line x1="19.24" y1="0.00" x2="19.24" y2="1.00" />
<line x1="19.47" y1="0.00" x2="19.47" y2="3.00" />
<line x1="19.69" y1="0.00" x2="19.69" y2="6.00" />
<line x1="19.92" y1="0.00" x2="19.92" y2="14.00" />
<line x1="20.14" y1="0.00" x2="20.14" y2="1.00" />
<line x1="20.36" y1="0.00" x2="20.36" y2="2.00" />
<line x1="20.59" y1="0.00" x2="20.59" y2="7.00" />
<line x1="20.81" y1="0.00" x2="20.81" y2="2.00" />
<line x1="21.03" y1="0.00" x2="21.03" y2="3.00" />
<line x1="21.26" y1="0.00" x2="21.26" y2="5.00" />
</g>
</svg>