<svg xmlns="http://www.w3.org/2000/svg" width="161.8" height="100.0" viewBox="-3.096 -5.000 171.803 110.000">
<g fill="none" stroke="black" stroke-width="0.0100%" transform="translate(0, 100.0000) scale(50.0000, -50.0000)">
<polyline points="0.038,0.000 0.076,0.000 0.076,1.000 0.114,1.000 0.114,1.000 0.152,1.000 0.152,1.000 0.190,1.000 0.190,1.000 0.228,1.000 0.228,1.000 0.266,1.000 0.266,1.000 0.305,1.000 0.305,1.000 0.343,1.000 0.343,1.000 0.381,1.000 0.381,1.000 0.419,1.000 0.419,1.000 0.457,1.000 0.457,2.000 0.495,2.000 0.495,1.000 0.533,1.000 0.533,1.000 0.571,1.000 0.571,1.000 0.609,1.000 0.609,1.000 0.647,1.000 0.647,1.000 0.685,1.000 0.685,2.000 0.723,2.000 0.723,1.000 0.761,1.000 0.761,2.000 0.799,2.000 0.799,1.000 0.838,1.000 0.838,1.000 0.876,1.000 0.876,1.000 0.914,1.000 0.914,2.000 0.952,2.000 0.952,1.000 0.990,1.000 0.990,1.000 1.028,1.000 1.028,1.000 1.066,1.000 1.066,2.000 1.104,2.000 1.104,1.000 1.142,1.000 1.142,1.000 1.180,1.000 1.180,1.000 1.218,1.000 1.218,1.000 1.256,1.000 1.256,1.000 1.294,1.000 1.294,1.000 1.332,1.000 1.332,1.000 1.371,1.000 1.371,1.000 1.409,1.000 1.409,1.000 1.447,1.000 1.447,1.000 1.485,1.000 1.485,1.000 1.523,1.000 1.523,2.000 1.561,2.000 1.561,1.000 1.599,1.000 1.599,1.000 1.637,1.000 1.637,1.000 1.675,1.000 1.675,2.000 1.713,2.000 1.713,2.000 1.751,2.000 1.751,1.000 1.789,1.000 1.789,1.000 1.827,1.000 1.827,2.000 1.865,2.000 1.865,1.000 1.904,1.000 1.904,2.000 1.942,2.000 1.942,1.000 1.980,1.000 1.980,2.000 2.018,2.000 2.018,1.000 2.056,1.000 2.056,2.000 2.094,2.000 2.094,1.000 2.132,1.000 2.132,2.000 2.170,2.000 2.170,1.000 2.208,1.000 2.208,1.000 2.246,1.000 2.246,1.000 2.284,1.000 2.284,2.000 2.322,2.000 2.322,1.000 2.360,1.000 2.360,1.000 2.398,1.000 2.398,2.000 2.437,2.000 2.437,1.000 2.475,1.000 2.475,1.000 2.513,1.000 2.513,1.000 2.551,1.000 2.551,1.000 2.589,1.000 2.589,2.000 2.627,2.000 2.627,1.000 2.665,1.000 2.665,1.000 2.703,1.000 2.703,1.000 2.741,1.000 2.741,2.000 2.779,2.000 2.779,1.000 2.817,1.000 2.817,1.000 2.855,1.000 2.855,2.000 2.893,2.000 2.893,2.000 2.931,2.000 2.931,1.000 2.970,1.000 2.970,1.000 3.008,1.000 3.008,1.000 3.046,1.000 3.046,2.000 3.084,2.000 3.084,1.000 3.122,1.000 3.122,1.000 3.160,1.000 3.160,1.000 3.198,1.000 3.198,2.000 3.236,2.000 3.236,1.000 3.274,1.000" />
</g>
</svg>