<svg xmlns="http://www.w3.org/2000/svg" width="161.8" height="100.0" viewBox="-3.22 -30.00 171.80 110.00">
<g fill="none" stroke="black" stroke-width="0.0200%" transform="translate(0, 50.0000) scale(25.0000, -25.0000)">
<polyline points="0.07,-1.00 0.14,-1.00 0.14,-1.00 0.21,-1.00 0.21,0.00 0.28,0.00 0.28,0.00 0.36,0.00 0.36,0.00 0.43,0.00 0.43,1.00 0.50,1.00 0.50,-1.00 0.57,-1.00 0.57,0.00 0.64,0.00 0.64,0.00 0.71,0.00 0.71,0.00 0.78,0.00 0.78,0.00 0.85,0.00 0.85,0.00 0.92,0.00 0.92,1.00 1.00,1.00 1.00,1.00 1.07,1.00 1.07,2.00 1.14,2.00 1.14,-1.00 1.21,-1.00 1.21,0.00 1.28,0.00 1.28,1.00 1.35,1.00 1.35,1.00 1.42,1.00 1.42,1.00 1.49,1.00 1.49,1.00 1.56,1.00 1.56,0.00 1.64,0.00 1.64,1.00 1.71,1.00 1.71,2.00 1.78,2.00 1.78,1.00 1.85,1.00 1.85,2.00 1.92,2.00 1.92,1.00 1.99,1.00 1.99,2.00 2.06,2.00 2.06,0.00 2.13,0.00 2.13,1.00 2.20,1.00 2.20,1.00 2.28,1.00 2.28,1.00 2.35,1.00 2.35,1.00 2.42,1.00 2.42,1.00 2.49,1.00 2.49,2.00 2.56,2.00 2.56,2.00 2.63,2.00 2.63,0.00 2.70,0.00 2.70,0.00 2.77,0.00 2.77,1.00 2.84,1.00 2.84,0.00 2.92,0.00 2.92,1.00 2.99,1.00 2.99,1.00 3.06,1.00 3.06,2.00 3.13,2.00 3.13,1.00 3.20,1.00 3.20,1.00 3.27,1.00 3.27,-1.00 3.34,-1.00 3.34,0.00 3.41,0.00 3.41,0.00 3.48,0.00 3.48,0.00 3.56,0.00 3.56,1.00 3.63,1.00 3.63,1.00 3.70,1.00 3.70,1.00 3.77,1.00 3.77,1.00 3.84,1.00 3.84,0.00 3.91,0.00 3.91,0.00 3.98,0.00 3.98,0.00 4.05,0.00 4.05,0.00 4.13,0.00 4.13,1.00 4.20,1.00 4.20,1.00 4.27,1.00 4.27,2.00 4.34,2.00 4.34,1.00 4.41,1.00 4.41,2.00 4.48,2.00 4.48,1.00 4.55,1.00 4.55,1.00 4.62,1.00 4.62,1.00 4.69,1.00 4.69,2.00 4.77,2.00 4.77,-1.00 4.84,-1.00 4.84,0.00 4.91,0.00 4.91,1.00 4.98,1.00 4.98,1.00 5.05,1.00 5.05,1.00 5.12,1.00 5.12,1.00 5.19,1.00 5.19,1.00 5.26,1.00 5.26,1.00 5.33,1.00 5.33,1.00 5.41,1.00 5.41,1.00 5.48,1.00 5.48,1.00 5.55,1.00 5.55,1.00 5.62,1.00 5.62,0.00 5.69,0.00 5.69,1.00 5.76,1.00 5.76,2.00 5.83,2.00 5.83,1.00 5.90,1.00 5.90,2.00 5.97,2.00 5.97,1.00 6.05,1.00 6.05,2.00 6.12,2.00 6.12,2.00 6.19,2.00 6.19,2.00 6.26,2.00 6.26,1.00 6.33,1.00 6.33,2.00 6.40,2.00 6.40,2.00 6.47,2.00 6.47,3.00 6.54,3.00" />
</g>
</svg>