<svg xmlns="http://www.w3.org/2000/svg" width="161.8" height="100.0" viewBox="-2.899 -5.000 171.803 110.000">
<g fill="none" stroke="black" stroke-width="0.0100%" transform="translate(0, 100.0000) scale(50.0000, -50.0000)">




<line x1="0.210" y1="0.000" x2="0.210" y2="1.000" />






<line x1="0.504" y1="0.000" x2="0.504" y2="1.000" />

<line x1="0.588" y1="0.000" x2="0.588" y2="1.000" />

<line x1="0.672" y1="0.000" x2="0.672" y2="1.000" />
<line x1="0.714" y1="0.000" x2="0.714" y2="1.000" />
<line x1="0.756" y1="0.000" x2="0.756" y2="1.000" />
<line x1="0.799" y1="0.000" x2="0.799" y2="1.000" />
<line x1="0.841" y1="0.000" x2="0.841" y2="1.000" />
<line x1="0.883" y1="0.000" x2="0.883" y2="1.000" />
<line x1="0.925" y1="0.000" x2="0.925" y2="1.000" />
<line x1="0.967" y1="0.000" x2="0.967" y2="2.000" />
<line x1="1.009" y1="0.000" x2="1.009" y2="1.000" />
<line x1="1.051" y1="0.000" x2="1.051" y2="2.000" />
<line x1="1.093" y1="0.000" x2="1.093" y2="1.000" />
<line x1="1.135" y1="0.000" x2="1.135" y2="2.000" />
<line x1="1.177" y1="0.000" x2="1.177" y2="1.000" />

<line x1="1.261" y1="0.000" x2="1.261" y2="1.000" />
<line x1="1.303" y1="0.000" x2="1.303" y2="1.000" />
<line x1="1.345" y1="0.000" x2="1.345" y2="1.000" />
<line x1="1.387" y1="0.000" x2="1.387" y2="1.000" />
<line x1="1.429" y1="0.000" x2="1.429" y2="1.000" />
<line x1="1.471" y1="0.000" x2="1.471" y2="1.000" />


<line x1="1.597" y1="0.000" x2="1.597" y2="1.000" />
<line x1="1.639" y1="0.000" x2="1.639" y2="1.000" />
<line x1="1.681" y1="0.000" x2="1.681" y2="2.000" />
<line x1="1.723" y1="0.000" x2="1.723" y2="1.000" />
<line x1="1.765" y1="0.000" x2="1.765" y2="2.000" />
<line x1="1.807" y1="0.000" x2="1.807" y2="1.000" />
<line x1="1.849" y1="0.000" x2="1.849" y2="1.000" />




<line x1="2.059" y1="0.000" x2="2.059" y2="1.000" />
<line x1="2.101" y1="0.000" x2="2.101" y2="1.000" />
<line x1="2.143" y1="0.000" x2="2.143" y2="1.000" />
<line x1="2.185" y1="0.000" x2="2.185" y2="1.000" />




<line x1="2.396" y1="0.000" x2="2.396" y2="1.000" />

<line x1="2.480" y1="0.000" x2="2.480" y2="1.000" />
<line x1="2.522" y1="0.000" x2="2.522" y2="1.000" />
<line x1="2.564" y1="0.000" x2="2.564" y2="2.000" />
<line x1="2.606" y1="0.000" x2="2.606" y2="1.000" />
<line x1="2.648" y1="0.000" x2="2.648" y2="1.000" />

<line x1="2.732" y1="0.000" x2="2.732" y2="1.000" />

<line x1="2.816" y1="0.000" x2="2.816" y2="1.000" />
<line x1="2.858" y1="0.000" x2="2.858" y2="1.000" />
<line x1="2.900" y1="0.000" x2="2.900" y2="1.000" />
<line x1="2.942" y1="0.000" x2="2.942" y2="1.000" />
<line x1="2.984" y1="0.000" x2="2.984" y2="1.000" />
<line x1="3.026" y1="0.000" x2="3.026" y2="2.000" />
<line x1="3.068" y1="0.000" x2="3.068" y2="2.000" />
<line x1="3.110" y1="0.000" x2="3.110" y2="1.000" />
<line x1="3.152" y1="0.000" x2="3.152" y2="1.000" />
<line x1="3.194" y1="0.000" x2="3.194" y2="1.000" />
<line x1="3.236" y1="0.000" x2="3.236" y2="1.000" />
<line x1="3.278" y1="0.000" x2="3.278" y2="1.000" />
</g>
</svg>