<svg xmlns="http://www.w3.org/2000/svg" width="161.8" height="100.0" viewBox="-3.07 15.00 171.80 110.00">
<g fill="none" stroke="black" stroke-width="0.0250%" transform="translate(0, 140.0000) scale(20.0000, -20.0000)">
<polyline points="0.10,1.00 0.19,1.00 0.19,1.00 0.29,1.00 0.29,2.00 0.39,2.00 0.39,1.00 0.48,1.00 0.48,1.00 0.58,1.00 0.58,1.00 0.67,1.00 0.67,3.00 0.77,3.00 0.77,2.00 0.87,2.00 0.87,1.00 0.96,1.00 0.96,1.00 1.06,1.00 1.06,2.00 1.16,2.00 1.16,1.00 1.25,1.00 1.25,1.00 1.35,1.00 1.35,1.00 1.44,1.00 1.44,4.00 1.54,4.00 1.54,1.00 1.64,1.00 1.64,2.00 1.73,2.00 1.73,1.00 1.83,1.00 1.83,2.00 1.93,2.00 1.93,1.00 2.02,1.00 2.02,1.00 2.12,1.00 2.12,1.00 2.22,1.00 2.22,3.00 2.31,3.00 2.31,2.00 2.41,2.00 2.41,1.00 2.50,1.00 2.50,3.00 2.60,3.00 2.60,2.00 2.70,2.00 2.70,1.00 2.79,1.00 2.79,1.00 2.89,1.00 2.89,1.00 2.99,1.00 2.99,5.00 3.08,5.00 3.08,1.00 3.18,1.00 3.18,1.00 3.27,1.00 3.27,1.00 3.37,1.00 3.37,2.00 3.47,2.00 3.47,1.00 3.56,1.00 3.56,1.00 3.66,1.00 3.66,1.00 3.76,1.00 3.76,3.00 3.85,3.00 3.85,1.00 3.95,1.00 3.95,1.00 4.05,1.00 4.05,1.00 4.14,1.00 4.14,2.00 4.24,2.00 4.24,2.00 4.33,2.00 4.33,1.00 4.43,1.00 4.43,1.00 4.53,1.00 4.53,4.00 4.62,4.00 4.62,2.00 4.72,2.00 4.72,2.00 4.82,2.00 4.82,1.00 4.91,1.00 4.91,2.00 5.01,2.00 5.01,1.00 5.10,1.00 5.10,3.00 5.20,3.00 5.20,1.00 5.30,1.00 5.30,3.00 5.39,3.00 5.39,1.00 5.49,1.00 5.49,1.00 5.59,1.00 5.59,1.00 5.68,1.00 5.68,2.00 5.78,2.00 5.78,1.00 5.88,1.00 5.88,1.00 5.97,1.00 5.97,2.00 6.07,2.00 6.07,6.00 6.16,6.00 6.16,1.00 6.26,1.00 6.26,1.00 6.36,1.00 6.36,1.00 6.45,1.00 6.45,2.00 6.55,2.00 6.55,1.00 6.65,1.00 6.65,1.00 6.74,1.00 6.74,1.00 6.84,1.00 6.84,3.00 6.93,3.00 6.93,1.00 7.03,1.00 7.03,1.00 7.13,1.00 7.13,2.00 7.22,2.00 7.22,2.00 7.32,2.00 7.32,1.00 7.42,1.00 7.42,1.00 7.51,1.00 7.51,1.00 7.61,1.00 7.61,4.00 7.70,4.00 7.70,4.00 7.80,4.00 7.80,1.00 7.90,1.00 7.90,1.00 7.99,1.00 7.99,2.00 8.09,2.00 8.09,1.00 8.19,1.00" />
</g>
</svg>