<svg xmlns="http://www.w3.org/2000/svg" width="161.8" height="100.0" viewBox="-2.84 -5.00 171.80 110.00">
<g fill="none" stroke="black" stroke-width="0.0350%" transform="translate(0, 100.0000) scale(14.2857, -14.2857)">
<polyline points="0.15,0.00 0.30,0.00 0.30,1.00 0.45,1.00 0.45,2.00 0.60,2.00 0.60,2.00 0.76,2.00 0.76,3.00 0.91,3.00 0.91,3.00 1.06,3.00 1.06,3.00 1.21,3.00 1.21,3.00 1.36,3.00 1.36,3.00 1.51,3.00 1.51,4.00 1.66,4.00 1.66,4.00 1.81,4.00 1.81,4.00 1.96,4.00 1.96,4.00 2.11,4.00 2.11,4.00 2.27,4.00 2.27,5.00 2.42,5.00 2.42,3.00 2.57,3.00 2.57,4.00 2.72,4.00 2.72,4.00 2.87,4.00 2.87,4.00 3.02,4.00 3.02,5.00 3.17,5.00 3.17,5.00 3.32,5.00 3.32,5.00 3.47,5.00 3.47,4.00 3.62,4.00 3.62,5.00 3.78,5.00 3.78,4.00 3.93,4.00 3.93,5.00 4.08,5.00 4.08,4.00 4.23,4.00 4.23,5.00 4.38,5.00 4.38,5.00 4.53,5.00 4.53,6.00 4.68,6.00 4.68,5.00 4.83,5.00 4.83,4.00 4.98,4.00 4.98,6.00 5.13,6.00 5.13,5.00 5.29,5.00 5.29,6.00 5.44,6.00 5.44,5.00 5.59,5.00 5.59,5.00 5.74,5.00 5.74,5.00 5.89,5.00 5.89,6.00 6.04,6.00 6.04,6.00 6.19,6.00 6.19,5.00 6.34,5.00 6.34,6.00 6.49,6.00 6.49,5.00 6.64,5.00 6.64,6.00 6.80,6.00 6.80,6.00 6.95,6.00 6.95,5.00 7.10,5.00 7.10,6.00 7.25,6.00 7.25,5.00 7.40,5.00 7.40,4.00 7.55,4.00 7.55,5.00 7.70,5.00 7.70,6.00 7.85,6.00 7.85,6.00 8.00,6.00 8.00,4.00 8.15,4.00 8.15,5.00 8.31,5.00 8.31,7.00 8.46,7.00 8.46,6.00 8.61,6.00 8.61,6.00 8.76,6.00 8.76,6.00 8.91,6.00 8.91,5.00 9.06,5.00 9.06,7.00 9.21,7.00 9.21,5.00 9.36,5.00 9.36,6.00 9.51,6.00 9.51,6.00 9.67,6.00 9.67,4.00 9.82,4.00 9.82,7.00 9.97,7.00 9.97,7.00 10.12,7.00 10.12,5.00 10.27,5.00 10.27,6.00 10.42,6.00 10.42,6.00 10.57,6.00 10.57,7.00 10.72,7.00 10.72,6.00 10.87,6.00 10.87,6.00 11.02,6.00 11.02,6.00 11.18,6.00 11.18,6.00 11.33,6.00 11.33,6.00 11.48,6.00" />
</g>
</svg>