<svg xmlns="http://www.w3.org/2000/svg" width="161.8" height="100.0" viewBox="-3.8 -5.0 171.8 110.0">
<g fill="none" stroke="black" stroke-width="0.4100%" transform="translate(0, 100.0000) scale(1.2195, -1.2195)">
<circle cx="1.0" cy="0.0" r="0.4" />
<circle cx="2.0" cy="0.0" r="0.4" />
<circle cx="3.0" cy="1.0" r="0.4" />
<circle cx="4.0" cy="2.0" r="0.4" />
<circle cx="5.0" cy="5.0" r="0.4" />
<circle cx="5.9" cy="6.0" r="0.4" />
<circle cx="6.9" cy="1.0" r="0.4" />
<circle cx="7.9" cy="1.0" r="0.4" />
<circle cx="8.9" cy="3.0" r="0.4" />
<circle cx="9.9" cy="7.0" r="0.4" />
<circle cx="10.9" cy="7.0" r="0.4" />
<circle cx="11.9" cy="11.0" r="0.4" />
<circle cx="12.9" cy="13.0" r="0.4" />
<circle cx="13.9" cy="13.0" r="0.4" />
<circle cx="14.9" cy="15.0" r="0.4" />
<circle cx="15.8" cy="2.0" r="0.4" />
<circle cx="16.8" cy="5.0" r="0.4" />
<circle cx="17.8" cy="4.0" r="0.4" />
<circle cx="18.8" cy="7.0" r="0.4" />
<circle cx="19.8" cy="8.0" r="0.4" />
<circle cx="20.8" cy="7.0" r="0.4" />
<circle cx="21.8" cy="10.0" r="0.4" />
<circle cx="22.8" cy="11.0" r="0.4" />
<circle cx="23.8" cy="14.0" r="0.4" />
<circle cx="24.8" cy="19.0" r="0.4" />
<circle cx="25.7" cy="20.0" r="0.4" />
<circle cx="26.7" cy="19.0" r="0.4" />
<circle cx="27.7" cy="20.0" r="0.4" />
<circle cx="28.7" cy="19.0" r="0.4" />
<circle cx="29.7" cy="20.0" r="0.4" />
<circle cx="30.7" cy="31.0" r="0.4" />
<circle cx="31.7" cy="32.0" r="0.4" />
<circle cx="32.7" cy="1.0" r="0.4" />
<circle cx="33.7" cy="34.0" r="0.4" />
<circle cx="34.7" cy="5.0" r="0.4" />
<circle cx="35.6" cy="3.0" r="0.4" />
<circle cx="36.6" cy="5.0" r="0.4" />
<circle cx="37.6" cy="7.0" r="0.4" />
<circle cx="38.6" cy="7.0" r="0.4" />
<circle cx="39.6" cy="9.0" r="0.4" />
<circle cx="40.6" cy="11.0" r="0.4" />
<circle cx="41.6" cy="9.0" r="0.4" />
<circle cx="42.6" cy="15.0" r="0.4" />
<circle cx="43.6" cy="13.0" r="0.4" />
<circle cx="44.6" cy="13.0" r="0.4" />
<circle cx="45.5" cy="11.0" r="0.4" />
<circle cx="46.5" cy="19.0" r="0.4" />
<circle cx="47.5" cy="27.0" r="0.4" />
<circle cx="48.5" cy="27.0" r="0.4" />
<circle cx="49.5" cy="25.0" r="0.4" />
<circle cx="50.5" cy="25.0" r="0.4" />
<circle cx="51.5" cy="27.0" r="0.4" />
<circle cx="52.5" cy="25.0" r="0.4" />
<circle cx="53.5" cy="31.0" r="0.4" />
<circle cx="54.5" cy="33.0" r="0.4" />
<circle cx="55.4" cy="35.0" r="0.4" />
<circle cx="56.4" cy="37.0" r="0.4" />
<circle cx="57.4" cy="35.0" r="0.4" />
<circle cx="58.4" cy="37.0" r="0.4" />
<circle cx="59.4" cy="37.0" r="0.4" />
<circle cx="60.4" cy="35.0" r="0.4" />
<circle cx="61.4" cy="41.0" r="0.4" />
<circle cx="62.4" cy="51.0" r="0.4" />
<circle cx="63.4" cy="51.0" r="0.4" />
<circle cx="64.4" cy="49.0" r="0.4" />
<circle cx="65.3" cy="49.0" r="0.4" />
<circle cx="66.3" cy="59.0" r="0.4" />
<circle cx="67.3" cy="61.0" r="0.4" />
<circle cx="68.3" cy="67.0" r="0.4" />
<circle cx="69.3" cy="65.0" r="0.4" />
<circle cx="70.3" cy="65.0" r="0.4" />
<circle cx="71.3" cy="67.0" r="0.4" />
<circle cx="72.3" cy="71.0" r="0.4" />
<circle cx="73.3" cy="73.0" r="0.4" />
<circle cx="74.3" cy="75.0" r="0.4" />
<circle cx="75.3" cy="75.0" r="0.4" />
<circle cx="76.2" cy="77.0" r="0.4" />
<circle cx="77.2" cy="2.0" r="0.4" />
<circle cx="78.2" cy="1.0" r="0.4" />
<circle cx="79.2" cy="4.0" r="0.4" />
<circle cx="80.2" cy="9.0" r="0.4" />
<circle cx="81.2" cy="6.0" r="0.4" />
<circle cx="82.2" cy="11.0" r="0.4" />
<circle cx="83.2" cy="8.0" r="0.4" />
<circle cx="84.2" cy="9.0" r="0.4" />
<circle cx="85.2" cy="8.0" r="0.4" />
<circle cx="86.1" cy="9.0" r="0.4" />
<circle cx="87.1" cy="12.0" r="0.4" />
<circle cx="88.1" cy="11.0" r="0.4" />
<circle cx="89.1" cy="8.0" r="0.4" />
<circle cx="90.1" cy="7.0" r="0.4" />
<circle cx="91.1" cy="14.0" r="0.4" />
<circle cx="92.1" cy="17.0" r="0.4" />
<circle cx="93.1" cy="16.0" r="0.4" />
<circle cx="94.1" cy="19.0" r="0.4" />
<circle cx="95.1" cy="18.0" r="0.4" />
<circle cx="96.0" cy="19.0" r="0.4" />
<circle cx="97.0" cy="26.0" r="0.4" />
<circle cx="98.0" cy="23.0" r="0.4" />
<circle cx="99.0" cy="36.0" r="0.4" />
<circle cx="100.0" cy="37.0" r="0.4" />
<circle cx="101.0" cy="42.0" r="0.4" />
<circle cx="102.0" cy="43.0" r="0.4" />
<circle cx="103.0" cy="44.0" r="0.4" />
<circle cx="104.0" cy="41.0" r="0.4" />
<circle cx="105.0" cy="42.0" r="0.4" />
<circle cx="105.9" cy="47.0" r="0.4" />
<circle cx="106.9" cy="48.0" r="0.4" />
<circle cx="107.9" cy="49.0" r="0.4" />
<circle cx="108.9" cy="46.0" r="0.4" />
<circle cx="109.9" cy="47.0" r="0.4" />
<circle cx="110.9" cy="48.0" r="0.4" />
<circle cx="111.9" cy="47.0" r="0.4" />
<circle cx="112.9" cy="44.0" r="0.4" />
<circle cx="113.9" cy="51.0" r="0.4" />
<circle cx="114.9" cy="56.0" r="0.4" />
<circle cx="115.8" cy="53.0" r="0.4" />
<circle cx="116.8" cy="52.0" r="0.4" />
<circle cx="117.8" cy="53.0" r="0.4" />
<circle cx="118.8" cy="54.0" r="0.4" />
<circle cx="119.8" cy="51.0" r="0.4" />
<circle cx="120.8" cy="58.0" r="0.4" />
<circle cx="121.8" cy="57.0" r="0.4" />
<circle cx="122.8" cy="58.0" r="0.4" />
<circle cx="123.8" cy="61.0" r="0.4" />
<circle cx="124.8" cy="66.0" r="0.4" />
<circle cx="125.7" cy="69.0" r="0.4" />
<circle cx="126.7" cy="74.0" r="0.4" />
<circle cx="127.7" cy="77.0" r="0.4" />
<circle cx="128.7" cy="78.0" r="0.4" />
<circle cx="129.7" cy="79.0" r="0.4" />
<circle cx="130.7" cy="78.0" r="0.4" />
<circle cx="131.7" cy="81.0" r="0.4" />
<circle cx="132.7" cy="82.0" r="0.4" />
<circle cx="133.7" cy="81.0" r="0.4" />
</g>
</svg>