<svg xmlns="http://www.w3.org/2000/svg" width="161.8" height="100.0" viewBox="-1.24 5.94 171.80 110.00">
<g fill="none" stroke="black" stroke-width="0.0317%" transform="translate(0, 121.8799) scale(15.7830, -15.7830)">
<circle cx="0.24" cy="7.03" r="0.03" />
<circle cx="0.48" cy="4.73" r="0.03" />
<circle cx="0.72" cy="4.93" r="0.03" />
<circle cx="0.95" cy="4.93" r="0.03" />
<circle cx="1.19" cy="3.14" r="0.03" />
<circle cx="1.43" cy="3.85" r="0.03" />
<circle cx="1.67" cy="1.95" r="0.03" />
<circle cx="1.91" cy="1.95" r="0.03" />
<circle cx="2.15" cy="3.61" r="0.03" />
<circle cx="2.38" cy="4.20" r="0.03" />
<circle cx="2.62" cy="4.20" r="0.03" />
<circle cx="2.86" cy="3.61" r="0.03" />
<circle cx="3.10" cy="4.84" r="0.03" />
<circle cx="3.34" cy="1.10" r="0.03" />
<circle cx="3.58" cy="1.10" r="0.03" />
<circle cx="3.81" cy="1.61" r="0.03" />
<circle cx="4.05" cy="3.71" r="0.03" />
<circle cx="4.29" cy="2.40" r="0.03" />
<circle cx="4.53" cy="2.83" r="0.03" />
<circle cx="4.77" cy="1.61" r="0.03" />
<circle cx="5.01" cy="1.61" r="0.03" />
<circle cx="5.25" cy="1.61" r="0.03" />
<circle cx="5.48" cy="3.37" r="0.03" />
<circle cx="5.72" cy="4.26" r="0.03" />
<circle cx="5.96" cy="2.40" r="0.03" />
<circle cx="6.20" cy="4.62" r="0.03" />
<circle cx="6.44" cy="0.69" r="0.03" />
<circle cx="6.68" cy="0.69" r="0.03" />
<circle cx="6.91" cy="0.69" r="0.03" />
<circle cx="7.15" cy="4.62" r="0.03" />
<circle cx="7.39" cy="4.67" r="0.03" />
<circle cx="7.63" cy="0.69" r="0.03" />
<circle cx="7.87" cy="0.69" r="0.03" />
<circle cx="8.11" cy="4.26" r="0.03" />
<circle cx="8.34" cy="4.26" r="0.03" />
<circle cx="8.58" cy="5.25" r="0.03" />
<circle cx="8.82" cy="5.25" r="0.03" />
<circle cx="9.06" cy="5.42" r="0.03" />
<circle cx="9.30" cy="5.48" r="0.03" />
<circle cx="9.54" cy="5.64" r="0.03" />
<circle cx="9.77" cy="0.69" r="0.03" />
<circle cx="10.01" cy="5.28" r="0.03" />
<circle cx="10.25" cy="5.42" r="0.03" />
<circle cx="10.49" cy="4.67" r="0.03" />
</g>
</svg>