<svg xmlns="http://www.w3.org/2000/svg" width="161.8" height="100.0" viewBox="-3.37 -5.00 171.80 110.00">
<g fill="none" stroke="black" stroke-width="0.0400%" transform="translate(0, 100.0000) scale(12.5000, -12.5000)">



<line x1="0.52" y1="0.00" x2="0.52" y2="1.00" />



<line x1="1.05" y1="0.00" x2="1.05" y2="2.00" />
<line x1="1.18" y1="0.00" x2="1.18" y2="1.00" />


<line x1="1.57" y1="0.00" x2="1.57" y2="2.00" />



<line x1="2.09" y1="0.00" x2="2.09" y2="3.00" />

<line x1="2.35" y1="0.00" x2="2.35" y2="2.00" />

<line x1="2.62" y1="0.00" x2="2.62" y2="2.00" />



<line x1="3.14" y1="0.00" x2="3.14" y2="4.00" />
<line x1="3.27" y1="0.00" x2="3.27" y2="1.00" />

<line x1="3.53" y1="0.00" x2="3.53" y2="2.00" />
<line x1="3.66" y1="0.00" x2="3.66" y2="2.00" />



<line x1="4.18" y1="0.00" x2="4.18" y2="4.00" />



<line x1="4.71" y1="0.00" x2="4.71" y2="5.00" />



<line x1="5.23" y1="0.00" x2="5.23" y2="4.00" />



<line x1="5.75" y1="0.00" x2="5.75" y2="2.00" />
<line x1="5.88" y1="0.00" x2="5.88" y2="2.00" />


<line x1="6.28" y1="0.00" x2="6.28" y2="6.00" />
<line x1="6.41" y1="0.00" x2="6.41" y2="1.00" />
<line x1="6.54" y1="0.00" x2="6.54" y2="2.00" />

<line x1="6.80" y1="0.00" x2="6.80" y2="2.00" />

<line x1="7.06" y1="0.00" x2="7.06" y2="4.00" />

<line x1="7.32" y1="0.00" x2="7.32" y2="4.00" />



<line x1="7.85" y1="0.00" x2="7.85" y2="4.00" />


<line x1="8.24" y1="0.00" x2="8.24" y2="2.00" />
<line x1="8.37" y1="0.00" x2="8.37" y2="5.00" />



<line x1="8.89" y1="0.00" x2="8.89" y2="2.00" />



<line x1="9.41" y1="0.00" x2="9.41" y2="8.00" />


<line x1="9.81" y1="0.00" x2="9.81" y2="2.00" />
<line x1="9.94" y1="0.00" x2="9.94" y2="2.00" />



<line x1="10.46" y1="0.00" x2="10.46" y2="6.00" />
<line x1="10.59" y1="0.00" x2="10.59" y2="3.00" />


<line x1="10.98" y1="0.00" x2="10.98" y2="4.00" />



<line x1="11.51" y1="0.00" x2="11.51" y2="4.00" />

<line x1="11.77" y1="0.00" x2="11.77" y2="4.00" />

<line x1="12.03" y1="0.00" x2="12.03" y2="2.00" />



<line x1="12.55" y1="0.00" x2="12.55" y2="8.00" />

<line x1="12.81" y1="0.00" x2="12.81" y2="2.00" />
<line x1="12.94" y1="0.00" x2="12.94" y2="2.00" />
<line x1="13.08" y1="0.00" x2="13.08" y2="5.00" />
</g>
</svg>