<svg xmlns="http://www.w3.org/2000/svg" width="158.4" height="100.0" viewBox="-2.5 -5.0 168.4 110.0">
<g fill="none" stroke="black" stroke-width="0.2350%" transform="translate(0, 100.0000) scale(2.1277, -2.1277)">
<line x1="1.2" y1="0.0" x2="1.2" y2="1.0" />
<line x1="2.3" y1="0.0" x2="2.3" y2="1.0" />
<line x1="3.5" y1="0.0" x2="3.5" y2="1.0" />
<line x1="4.7" y1="0.0" x2="4.7" y2="2.0" />
<line x1="5.8" y1="0.0" x2="5.8" y2="1.0" />
<line x1="7.0" y1="0.0" x2="7.0" y2="3.0" />
<line x1="8.1" y1="0.0" x2="8.1" y2="2.0" />
<line x1="9.3" y1="0.0" x2="9.3" y2="4.0" />
<line x1="10.5" y1="0.0" x2="10.5" y2="5.0" />
<line x1="11.6" y1="0.0" x2="11.6" y2="6.0" />
<line x1="12.8" y1="0.0" x2="12.8" y2="1.0" />
<line x1="14.0" y1="0.0" x2="14.0" y2="7.0" />
<line x1="15.1" y1="0.0" x2="15.1" y2="3.0" />
<line x1="16.3" y1="0.0" x2="16.3" y2="8.0" />
<line x1="17.4" y1="0.0" x2="17.4" y2="9.0" />
<line x1="18.6" y1="0.0" x2="18.6" y2="10.0" />
<line x1="19.8" y1="0.0" x2="19.8" y2="2.0" />
<line x1="20.9" y1="0.0" x2="20.9" y2="11.0" />
<line x1="22.1" y1="0.0" x2="22.1" y2="4.0" />
<line x1="23.3" y1="0.0" x2="23.3" y2="12.0" />
<line x1="24.4" y1="0.0" x2="24.4" y2="13.0" />
<line x1="25.6" y1="0.0" x2="25.6" y2="14.0" />
<line x1="26.7" y1="0.0" x2="26.7" y2="5.0" />
<line x1="27.9" y1="0.0" x2="27.9" y2="15.0" />
<line x1="29.1" y1="0.0" x2="29.1" y2="16.0" />
<line x1="30.2" y1="0.0" x2="30.2" y2="17.0" />
<line x1="31.4" y1="0.0" x2="31.4" y2="18.0" />
<line x1="32.6" y1="0.0" x2="32.6" y2="19.0" />
<line x1="33.7" y1="0.0" x2="33.7" y2="6.0" />
<line x1="34.9" y1="0.0" x2="34.9" y2="20.0" />
<line x1="36.1" y1="0.0" x2="36.1" y2="1.0" />
<line x1="37.2" y1="0.0" x2="37.2" y2="21.0" />
<line x1="38.4" y1="0.0" x2="38.4" y2="22.0" />
<line x1="39.5" y1="0.0" x2="39.5" y2="23.0" />
<line x1="40.7" y1="0.0" x2="40.7" y2="24.0" />
<line x1="41.9" y1="0.0" x2="41.9" y2="25.0" />
<line x1="43.0" y1="0.0" x2="43.0" y2="7.0" />
<line x1="44.2" y1="0.0" x2="44.2" y2="26.0" />
<line x1="45.4" y1="0.0" x2="45.4" y2="27.0" />
<line x1="46.5" y1="0.0" x2="46.5" y2="28.0" />
<line x1="47.7" y1="0.0" x2="47.7" y2="3.0" />
<line x1="48.8" y1="0.0" x2="48.8" y2="29.0" />
<line x1="50.0" y1="0.0" x2="50.0" y2="8.0" />
<line x1="51.2" y1="0.0" x2="51.2" y2="30.0" />
<line x1="52.3" y1="0.0" x2="52.3" y2="31.0" />
<line x1="53.5" y1="0.0" x2="53.5" y2="32.0" />
<line x1="54.7" y1="0.0" x2="54.7" y2="9.0" />
<line x1="55.8" y1="0.0" x2="55.8" y2="33.0" />
<line x1="57.0" y1="0.0" x2="57.0" y2="34.0" />
<line x1="58.1" y1="0.0" x2="58.1" y2="35.0" />
<line x1="59.3" y1="0.0" x2="59.3" y2="36.0" />
<line x1="60.5" y1="0.0" x2="60.5" y2="37.0" />
<line x1="61.6" y1="0.0" x2="61.6" y2="10.0" />
<line x1="62.8" y1="0.0" x2="62.8" y2="38.0" />
<line x1="64.0" y1="0.0" x2="64.0" y2="39.0" />
<line x1="65.1" y1="0.0" x2="65.1" y2="40.0" />
<line x1="66.3" y1="0.0" x2="66.3" y2="41.0" />
<line x1="67.5" y1="0.0" x2="67.5" y2="42.0" />
<line x1="68.6" y1="0.0" x2="68.6" y2="2.0" />
<line x1="69.8" y1="0.0" x2="69.8" y2="43.0" />
<line x1="70.9" y1="0.0" x2="70.9" y2="11.0" />
<line x1="72.1" y1="0.0" x2="72.1" y2="44.0" />
<line x1="73.3" y1="0.0" x2="73.3" y2="45.0" />
<line x1="74.4" y1="0.0" x2="74.4" y2="46.0" />
<line x1="75.6" y1="0.0" x2="75.6" y2="47.0" />
</g>
</svg>