<svg xmlns="http://www.w3.org/2000/svg" width="161.8" height="100.0" viewBox="-4.39 -5.00 171.80 110.00">
<g fill="none" stroke="black" stroke-width="0.0650%" transform="translate(0, 100.0000) scale(7.6923, -7.6923)">
<circle cx="0.08" cy="0.00" r="0.07" />
<circle cx="0.16" cy="1.00" r="0.07" />
<circle cx="0.24" cy="0.00" r="0.07" />
<circle cx="0.32" cy="1.00" r="0.07" />
<circle cx="0.40" cy="2.00" r="0.07" />
<circle cx="0.47" cy="1.00" r="0.07" />
<circle cx="0.55" cy="0.00" r="0.07" />
<circle cx="0.63" cy="1.00" r="0.07" />
<circle cx="0.71" cy="2.00" r="0.07" />
<circle cx="0.79" cy="1.00" r="0.07" />
<circle cx="0.87" cy="2.00" r="0.07" />
<circle cx="0.95" cy="1.00" r="0.07" />
<circle cx="1.03" cy="0.00" r="0.07" />
<circle cx="1.11" cy="1.00" r="0.07" />
<circle cx="1.19" cy="2.00" r="0.07" />
<circle cx="1.27" cy="1.00" r="0.07" />
<circle cx="1.34" cy="2.00" r="0.07" />
<circle cx="1.42" cy="1.00" r="0.07" />
<circle cx="1.50" cy="2.00" r="0.07" />
<circle cx="1.58" cy="3.00" r="0.07" />
<circle cx="1.66" cy="2.00" r="0.07" />
<circle cx="1.74" cy="3.00" r="0.07" />
<circle cx="1.82" cy="4.00" r="0.07" />
<circle cx="1.90" cy="3.00" r="0.07" />
<circle cx="1.98" cy="2.00" r="0.07" />
<circle cx="2.06" cy="1.00" r="0.07" />
<circle cx="2.14" cy="2.00" r="0.07" />
<circle cx="2.21" cy="3.00" r="0.07" />
<circle cx="2.29" cy="2.00" r="0.07" />
<circle cx="2.37" cy="1.00" r="0.07" />
<circle cx="2.45" cy="2.00" r="0.07" />
<circle cx="2.53" cy="3.00" r="0.07" />
<circle cx="2.61" cy="2.00" r="0.07" />
<circle cx="2.69" cy="3.00" r="0.07" />
<circle cx="2.77" cy="2.00" r="0.07" />
<circle cx="2.85" cy="3.00" r="0.07" />
<circle cx="2.93" cy="2.00" r="0.07" />
<circle cx="3.00" cy="3.00" r="0.07" />
<circle cx="3.08" cy="4.00" r="0.07" />
<circle cx="3.16" cy="3.00" r="0.07" />
<circle cx="3.24" cy="4.00" r="0.07" />
<circle cx="3.32" cy="3.00" r="0.07" />
<circle cx="3.40" cy="4.00" r="0.07" />
<circle cx="3.48" cy="3.00" r="0.07" />
<circle cx="3.56" cy="2.00" r="0.07" />
<circle cx="3.64" cy="3.00" r="0.07" />
<circle cx="3.72" cy="4.00" r="0.07" />
<circle cx="3.80" cy="5.00" r="0.07" />
<circle cx="3.87" cy="6.00" r="0.07" />
<circle cx="3.95" cy="5.00" r="0.07" />
<circle cx="4.03" cy="4.00" r="0.07" />
<circle cx="4.11" cy="5.00" r="0.07" />
<circle cx="4.19" cy="4.00" r="0.07" />
<circle cx="4.27" cy="5.00" r="0.07" />
<circle cx="4.35" cy="4.00" r="0.07" />
<circle cx="4.43" cy="5.00" r="0.07" />
<circle cx="4.51" cy="4.00" r="0.07" />
<circle cx="4.59" cy="5.00" r="0.07" />
<circle cx="4.67" cy="4.00" r="0.07" />
<circle cx="4.74" cy="3.00" r="0.07" />
<circle cx="4.82" cy="4.00" r="0.07" />
<circle cx="4.90" cy="3.00" r="0.07" />
<circle cx="4.98" cy="4.00" r="0.07" />
<circle cx="5.06" cy="5.00" r="0.07" />
<circle cx="5.14" cy="4.00" r="0.07" />
<circle cx="5.22" cy="3.00" r="0.07" />
<circle cx="5.30" cy="4.00" r="0.07" />
<circle cx="5.38" cy="3.00" r="0.07" />
<circle cx="5.46" cy="4.00" r="0.07" />
<circle cx="5.54" cy="3.00" r="0.07" />
<circle cx="5.61" cy="2.00" r="0.07" />
<circle cx="5.69" cy="3.00" r="0.07" />
<circle cx="5.77" cy="4.00" r="0.07" />
<circle cx="5.85" cy="3.00" r="0.07" />
<circle cx="5.93" cy="4.00" r="0.07" />
<circle cx="6.01" cy="5.00" r="0.07" />
<circle cx="6.09" cy="4.00" r="0.07" />
<circle cx="6.17" cy="3.00" r="0.07" />
<circle cx="6.25" cy="2.00" r="0.07" />
<circle cx="6.33" cy="1.00" r="0.07" />
<circle cx="6.41" cy="2.00" r="0.07" />
<circle cx="6.48" cy="1.00" r="0.07" />
<circle cx="6.56" cy="2.00" r="0.07" />
<circle cx="6.64" cy="1.00" r="0.07" />
<circle cx="6.72" cy="2.00" r="0.07" />
<circle cx="6.80" cy="3.00" r="0.07" />
<circle cx="6.88" cy="2.00" r="0.07" />
<circle cx="6.96" cy="1.00" r="0.07" />
<circle cx="7.04" cy="0.00" r="0.07" />
<circle cx="7.12" cy="1.00" r="0.07" />
<circle cx="7.20" cy="2.00" r="0.07" />
<circle cx="7.28" cy="3.00" r="0.07" />
<circle cx="7.35" cy="4.00" r="0.07" />
<circle cx="7.43" cy="5.00" r="0.07" />
<circle cx="7.51" cy="6.00" r="0.07" />
<circle cx="7.59" cy="7.00" r="0.07" />
<circle cx="7.67" cy="6.00" r="0.07" />
<circle cx="7.75" cy="5.00" r="0.07" />
<circle cx="7.83" cy="6.00" r="0.07" />
<circle cx="7.91" cy="5.00" r="0.07" />
<circle cx="7.99" cy="6.00" r="0.07" />
<circle cx="8.07" cy="5.00" r="0.07" />
<circle cx="8.14" cy="6.00" r="0.07" />
<circle cx="8.22" cy="5.00" r="0.07" />
<circle cx="8.30" cy="6.00" r="0.07" />
<circle cx="8.38" cy="5.00" r="0.07" />
<circle cx="8.46" cy="6.00" r="0.07" />
<circle cx="8.54" cy="5.00" r="0.07" />
<circle cx="8.62" cy="6.00" r="0.07" />
<circle cx="8.70" cy="5.00" r="0.07" />
<circle cx="8.78" cy="6.00" r="0.07" />
<circle cx="8.86" cy="5.00" r="0.07" />
<circle cx="8.94" cy="4.00" r="0.07" />
<circle cx="9.01" cy="5.00" r="0.07" />
<circle cx="9.09" cy="6.00" r="0.07" />
<circle cx="9.17" cy="5.00" r="0.07" />
<circle cx="9.25" cy="6.00" r="0.07" />
<circle cx="9.33" cy="7.00" r="0.07" />
<circle cx="9.41" cy="6.00" r="0.07" />
<circle cx="9.49" cy="7.00" r="0.07" />
<circle cx="9.57" cy="6.00" r="0.07" />
<circle cx="9.65" cy="5.00" r="0.07" />
<circle cx="9.73" cy="4.00" r="0.07" />
<circle cx="9.81" cy="5.00" r="0.07" />
<circle cx="9.88" cy="6.00" r="0.07" />
<circle cx="9.96" cy="5.00" r="0.07" />
<circle cx="10.04" cy="4.00" r="0.07" />
<circle cx="10.12" cy="5.00" r="0.07" />
<circle cx="10.20" cy="6.00" r="0.07" />
<circle cx="10.28" cy="5.00" r="0.07" />
<circle cx="10.36" cy="6.00" r="0.07" />
<circle cx="10.44" cy="7.00" r="0.07" />
<circle cx="10.52" cy="8.00" r="0.07" />
<circle cx="10.60" cy="7.00" r="0.07" />
<circle cx="10.68" cy="6.00" r="0.07" />
<circle cx="10.75" cy="5.00" r="0.07" />
<circle cx="10.83" cy="4.00" r="0.07" />
<circle cx="10.91" cy="5.00" r="0.07" />
<circle cx="10.99" cy="4.00" r="0.07" />
<circle cx="11.07" cy="3.00" r="0.07" />
<circle cx="11.15" cy="4.00" r="0.07" />
<circle cx="11.23" cy="3.00" r="0.07" />
<circle cx="11.31" cy="4.00" r="0.07" />
<circle cx="11.39" cy="5.00" r="0.07" />
<circle cx="11.47" cy="4.00" r="0.07" />
<circle cx="11.55" cy="5.00" r="0.07" />
<circle cx="11.62" cy="4.00" r="0.07" />
<circle cx="11.70" cy="3.00" r="0.07" />
<circle cx="11.78" cy="4.00" r="0.07" />
<circle cx="11.86" cy="5.00" r="0.07" />
<circle cx="11.94" cy="4.00" r="0.07" />
<circle cx="12.02" cy="3.00" r="0.07" />
<circle cx="12.10" cy="4.00" r="0.07" />
<circle cx="12.18" cy="5.00" r="0.07" />
<circle cx="12.26" cy="6.00" r="0.07" />
<circle cx="12.34" cy="7.00" r="0.07" />
<circle cx="12.42" cy="8.00" r="0.07" />
<circle cx="12.49" cy="7.00" r="0.07" />
<circle cx="12.57" cy="6.00" r="0.07" />
<circle cx="12.65" cy="5.00" r="0.07" />
<circle cx="12.73" cy="6.00" r="0.07" />
<circle cx="12.81" cy="5.00" r="0.07" />
<circle cx="12.89" cy="6.00" r="0.07" />
<circle cx="12.97" cy="7.00" r="0.07" />
<circle cx="13.05" cy="6.00" r="0.07" />
<circle cx="13.13" cy="7.00" r="0.07" />
<circle cx="13.21" cy="8.00" r="0.07" />
<circle cx="13.28" cy="7.00" r="0.07" />
<circle cx="13.36" cy="6.00" r="0.07" />
<circle cx="13.44" cy="5.00" r="0.07" />
<circle cx="13.52" cy="6.00" r="0.07" />
<circle cx="13.60" cy="5.00" r="0.07" />
<circle cx="13.68" cy="6.00" r="0.07" />
<circle cx="13.76" cy="5.00" r="0.07" />
<circle cx="13.84" cy="6.00" r="0.07" />
<circle cx="13.92" cy="5.00" r="0.07" />
<circle cx="14.00" cy="6.00" r="0.07" />
<circle cx="14.08" cy="5.00" r="0.07" />
<circle cx="14.15" cy="6.00" r="0.07" />
<circle cx="14.23" cy="5.00" r="0.07" />
<circle cx="14.31" cy="6.00" r="0.07" />
<circle cx="14.39" cy="7.00" r="0.07" />
<circle cx="14.47" cy="6.00" r="0.07" />
<circle cx="14.55" cy="5.00" r="0.07" />
<circle cx="14.63" cy="6.00" r="0.07" />
<circle cx="14.71" cy="5.00" r="0.07" />
<circle cx="14.79" cy="4.00" r="0.07" />
<circle cx="14.87" cy="5.00" r="0.07" />
<circle cx="14.95" cy="4.00" r="0.07" />
<circle cx="15.02" cy="5.00" r="0.07" />
<circle cx="15.10" cy="4.00" r="0.07" />
<circle cx="15.18" cy="5.00" r="0.07" />
<circle cx="15.26" cy="6.00" r="0.07" />
<circle cx="15.34" cy="5.00" r="0.07" />
<circle cx="15.42" cy="6.00" r="0.07" />
<circle cx="15.50" cy="5.00" r="0.07" />
<circle cx="15.58" cy="4.00" r="0.07" />
<circle cx="15.66" cy="3.00" r="0.07" />
<circle cx="15.74" cy="2.00" r="0.07" />
<circle cx="15.82" cy="3.00" r="0.07" />
<circle cx="15.89" cy="2.00" r="0.07" />
<circle cx="15.97" cy="3.00" r="0.07" />
<circle cx="16.05" cy="2.00" r="0.07" />
<circle cx="16.13" cy="1.00" r="0.07" />
<circle cx="16.21" cy="2.00" r="0.07" />
<circle cx="16.29" cy="1.00" r="0.07" />
<circle cx="16.37" cy="2.00" r="0.07" />
<circle cx="16.45" cy="3.00" r="0.07" />
<circle cx="16.53" cy="2.00" r="0.07" />
<circle cx="16.61" cy="3.00" r="0.07" />
<circle cx="16.69" cy="2.00" r="0.07" />
<circle cx="16.76" cy="1.00" r="0.07" />
<circle cx="16.84" cy="2.00" r="0.07" />
<circle cx="16.92" cy="3.00" r="0.07" />
<circle cx="17.00" cy="4.00" r="0.07" />
<circle cx="17.08" cy="3.00" r="0.07" />
<circle cx="17.16" cy="4.00" r="0.07" />
<circle cx="17.24" cy="3.00" r="0.07" />
<circle cx="17.32" cy="4.00" r="0.07" />
<circle cx="17.40" cy="3.00" r="0.07" />
<circle cx="17.48" cy="2.00" r="0.07" />
<circle cx="17.56" cy="3.00" r="0.07" />
<circle cx="17.63" cy="2.00" r="0.07" />
<circle cx="17.71" cy="3.00" r="0.07" />
<circle cx="17.79" cy="4.00" r="0.07" />
<circle cx="17.87" cy="3.00" r="0.07" />
<circle cx="17.95" cy="2.00" r="0.07" />
<circle cx="18.03" cy="3.00" r="0.07" />
<circle cx="18.11" cy="4.00" r="0.07" />
<circle cx="18.19" cy="5.00" r="0.07" />
<circle cx="18.27" cy="4.00" r="0.07" />
<circle cx="18.35" cy="5.00" r="0.07" />
<circle cx="18.42" cy="6.00" r="0.07" />
<circle cx="18.50" cy="5.00" r="0.07" />
<circle cx="18.58" cy="6.00" r="0.07" />
<circle cx="18.66" cy="7.00" r="0.07" />
<circle cx="18.74" cy="6.00" r="0.07" />
<circle cx="18.82" cy="5.00" r="0.07" />
<circle cx="18.90" cy="6.00" r="0.07" />
<circle cx="18.98" cy="7.00" r="0.07" />
<circle cx="19.06" cy="8.00" r="0.07" />
<circle cx="19.14" cy="9.00" r="0.07" />
<circle cx="19.22" cy="10.00" r="0.07" />
<circle cx="19.29" cy="9.00" r="0.07" />
<circle cx="19.37" cy="8.00" r="0.07" />
<circle cx="19.45" cy="9.00" r="0.07" />
<circle cx="19.53" cy="10.00" r="0.07" />
<circle cx="19.61" cy="11.00" r="0.07" />
<circle cx="19.69" cy="12.00" r="0.07" />
<circle cx="19.77" cy="13.00" r="0.07" />
<circle cx="19.85" cy="12.00" r="0.07" />
<circle cx="19.93" cy="11.00" r="0.07" />
<circle cx="20.01" cy="12.00" r="0.07" />
<circle cx="20.09" cy="11.00" r="0.07" />
<circle cx="20.16" cy="10.00" r="0.07" />
<circle cx="20.24" cy="11.00" r="0.07" />
<circle cx="20.32" cy="10.00" r="0.07" />
<circle cx="20.40" cy="11.00" r="0.07" />
<circle cx="20.48" cy="10.00" r="0.07" />
<circle cx="20.56" cy="9.00" r="0.07" />
<circle cx="20.64" cy="10.00" r="0.07" />
<circle cx="20.72" cy="11.00" r="0.07" />
<circle cx="20.80" cy="10.00" r="0.07" />
<circle cx="20.88" cy="9.00" r="0.07" />
<circle cx="20.96" cy="8.00" r="0.07" />
<circle cx="21.03" cy="9.00" r="0.07" />
<circle cx="21.11" cy="8.00" r="0.07" />
</g>
</svg>