<svg xmlns="http://www.w3.org/2000/svg" width="161.8" height="100.0" viewBox="-4.4 -1.3 171.8 110.0">
<g fill="none" stroke="black" stroke-width="0.4000%" transform="translate(0, 107.5000) scale(1.2500, -1.2500)">
<circle cx="0.5" cy="3.0" r="0.4" />
<circle cx="1.0" cy="4.0" r="0.4" />
<circle cx="1.5" cy="5.0" r="0.4" />
<circle cx="2.1" cy="5.0" r="0.4" />
<circle cx="2.6" cy="6.0" r="0.4" />
<circle cx="3.1" cy="7.0" r="0.4" />
<circle cx="3.6" cy="7.0" r="0.4" />
<circle cx="4.1" cy="8.0" r="0.4" />
<circle cx="4.6" cy="9.0" r="0.4" />
<circle cx="5.1" cy="11.0" r="0.4" />
<circle cx="5.7" cy="8.0" r="0.4" />
<circle cx="6.2" cy="9.0" r="0.4" />
<circle cx="6.7" cy="10.0" r="0.4" />
<circle cx="7.2" cy="12.0" r="0.4" />
<circle cx="7.7" cy="13.0" r="0.4" />
<circle cx="8.2" cy="10.0" r="0.4" />
<circle cx="8.7" cy="11.0" r="0.4" />
<circle cx="9.2" cy="12.0" r="0.4" />
<circle cx="9.8" cy="14.0" r="0.4" />
<circle cx="10.3" cy="15.0" r="0.4" />
<circle cx="10.8" cy="17.0" r="0.4" />
<circle cx="11.3" cy="11.0" r="0.4" />
<circle cx="11.8" cy="12.0" r="0.4" />
<circle cx="12.3" cy="13.0" r="0.4" />
<circle cx="12.8" cy="15.0" r="0.4" />
<circle cx="13.4" cy="16.0" r="0.4" />
<circle cx="13.9" cy="18.0" r="0.4" />
<circle cx="14.4" cy="19.0" r="0.4" />
<circle cx="14.9" cy="13.0" r="0.4" />
<circle cx="15.4" cy="14.0" r="0.4" />
<circle cx="15.9" cy="15.0" r="0.4" />
<circle cx="16.4" cy="17.0" r="0.4" />
<circle cx="17.0" cy="18.0" r="0.4" />
<circle cx="17.5" cy="20.0" r="0.4" />
<circle cx="18.0" cy="21.0" r="0.4" />
<circle cx="18.5" cy="23.0" r="0.4" />
<circle cx="19.0" cy="16.0" r="0.4" />
<circle cx="19.5" cy="17.0" r="0.4" />
<circle cx="20.0" cy="18.0" r="0.4" />
<circle cx="20.5" cy="20.0" r="0.4" />
<circle cx="21.1" cy="21.0" r="0.4" />
<circle cx="21.6" cy="23.0" r="0.4" />
<circle cx="22.1" cy="24.0" r="0.4" />
<circle cx="22.6" cy="26.0" r="0.4" />
<circle cx="23.1" cy="29.0" r="0.4" />
<circle cx="23.6" cy="17.0" r="0.4" />
<circle cx="24.1" cy="18.0" r="0.4" />
<circle cx="24.7" cy="19.0" r="0.4" />
<circle cx="25.2" cy="21.0" r="0.4" />
<circle cx="25.7" cy="22.0" r="0.4" />
<circle cx="26.2" cy="24.0" r="0.4" />
<circle cx="26.7" cy="25.0" r="0.4" />
<circle cx="27.2" cy="27.0" r="0.4" />
<circle cx="27.7" cy="30.0" r="0.4" />
<circle cx="28.3" cy="31.0" r="0.4" />
<circle cx="28.8" cy="20.0" r="0.4" />
<circle cx="29.3" cy="21.0" r="0.4" />
<circle cx="29.8" cy="22.0" r="0.4" />
<circle cx="30.3" cy="24.0" r="0.4" />
<circle cx="30.8" cy="25.0" r="0.4" />
<circle cx="31.3" cy="27.0" r="0.4" />
<circle cx="31.8" cy="28.0" r="0.4" />
<circle cx="32.4" cy="30.0" r="0.4" />
<circle cx="32.9" cy="33.0" r="0.4" />
<circle cx="33.4" cy="34.0" r="0.4" />
<circle cx="33.9" cy="37.0" r="0.4" />
<circle cx="34.4" cy="22.0" r="0.4" />
<circle cx="34.9" cy="23.0" r="0.4" />
<circle cx="35.4" cy="24.0" r="0.4" />
<circle cx="36.0" cy="26.0" r="0.4" />
<circle cx="36.5" cy="27.0" r="0.4" />
<circle cx="37.0" cy="29.0" r="0.4" />
<circle cx="37.5" cy="30.0" r="0.4" />
<circle cx="38.0" cy="32.0" r="0.4" />
<circle cx="38.5" cy="35.0" r="0.4" />
<circle cx="39.0" cy="36.0" r="0.4" />
<circle cx="39.6" cy="39.0" r="0.4" />
<circle cx="40.1" cy="41.0" r="0.4" />
<circle cx="40.6" cy="23.0" r="0.4" />
<circle cx="41.1" cy="24.0" r="0.4" />
<circle cx="41.6" cy="25.0" r="0.4" />
<circle cx="42.1" cy="27.0" r="0.4" />
<circle cx="42.6" cy="28.0" r="0.4" />
<circle cx="43.1" cy="30.0" r="0.4" />
<circle cx="43.7" cy="31.0" r="0.4" />
<circle cx="44.2" cy="33.0" r="0.4" />
<circle cx="44.7" cy="36.0" r="0.4" />
<circle cx="45.2" cy="37.0" r="0.4" />
<circle cx="45.7" cy="40.0" r="0.4" />
<circle cx="46.2" cy="42.0" r="0.4" />
<circle cx="46.7" cy="43.0" r="0.4" />
<circle cx="47.3" cy="25.0" r="0.4" />
<circle cx="47.8" cy="26.0" r="0.4" />
<circle cx="48.3" cy="27.0" r="0.4" />
<circle cx="48.8" cy="29.0" r="0.4" />
<circle cx="49.3" cy="30.0" r="0.4" />
<circle cx="49.8" cy="32.0" r="0.4" />
<circle cx="50.3" cy="33.0" r="0.4" />
<circle cx="50.9" cy="35.0" r="0.4" />
<circle cx="51.4" cy="38.0" r="0.4" />
<circle cx="51.9" cy="39.0" r="0.4" />
<circle cx="52.4" cy="42.0" r="0.4" />
<circle cx="52.9" cy="44.0" r="0.4" />
<circle cx="53.4" cy="45.0" r="0.4" />
<circle cx="53.9" cy="47.0" r="0.4" />
<circle cx="54.4" cy="28.0" r="0.4" />
<circle cx="55.0" cy="29.0" r="0.4" />
<circle cx="55.5" cy="30.0" r="0.4" />
<circle cx="56.0" cy="32.0" r="0.4" />
<circle cx="56.5" cy="33.0" r="0.4" />
<circle cx="57.0" cy="35.0" r="0.4" />
<circle cx="57.5" cy="36.0" r="0.4" />
<circle cx="58.0" cy="38.0" r="0.4" />
<circle cx="58.6" cy="41.0" r="0.4" />
<circle cx="59.1" cy="42.0" r="0.4" />
<circle cx="59.6" cy="45.0" r="0.4" />
<circle cx="60.1" cy="47.0" r="0.4" />
<circle cx="60.6" cy="48.0" r="0.4" />
<circle cx="61.1" cy="50.0" r="0.4" />
<circle cx="61.6" cy="53.0" r="0.4" />
<circle cx="62.2" cy="31.0" r="0.4" />
<circle cx="62.7" cy="32.0" r="0.4" />
<circle cx="63.2" cy="33.0" r="0.4" />
<circle cx="63.7" cy="35.0" r="0.4" />
<circle cx="64.2" cy="36.0" r="0.4" />
<circle cx="64.7" cy="38.0" r="0.4" />
<circle cx="65.2" cy="39.0" r="0.4" />
<circle cx="65.7" cy="41.0" r="0.4" />
<circle cx="66.3" cy="44.0" r="0.4" />
<circle cx="66.8" cy="45.0" r="0.4" />
<circle cx="67.3" cy="48.0" r="0.4" />
<circle cx="67.8" cy="50.0" r="0.4" />
<circle cx="68.3" cy="51.0" r="0.4" />
<circle cx="68.8" cy="53.0" r="0.4" />
<circle cx="69.3" cy="56.0" r="0.4" />
<circle cx="69.9" cy="59.0" r="0.4" />
<circle cx="70.4" cy="32.0" r="0.4" />
<circle cx="70.9" cy="33.0" r="0.4" />
<circle cx="71.4" cy="34.0" r="0.4" />
<circle cx="71.9" cy="36.0" r="0.4" />
<circle cx="72.4" cy="37.0" r="0.4" />
<circle cx="72.9" cy="39.0" r="0.4" />
<circle cx="73.5" cy="40.0" r="0.4" />
<circle cx="74.0" cy="42.0" r="0.4" />
<circle cx="74.5" cy="45.0" r="0.4" />
<circle cx="75.0" cy="46.0" r="0.4" />
<circle cx="75.5" cy="49.0" r="0.4" />
<circle cx="76.0" cy="51.0" r="0.4" />
<circle cx="76.5" cy="52.0" r="0.4" />
<circle cx="77.0" cy="54.0" r="0.4" />
<circle cx="77.6" cy="57.0" r="0.4" />
<circle cx="78.1" cy="60.0" r="0.4" />
<circle cx="78.6" cy="61.0" r="0.4" />
<circle cx="79.1" cy="35.0" r="0.4" />
<circle cx="79.6" cy="36.0" r="0.4" />
<circle cx="80.1" cy="37.0" r="0.4" />
<circle cx="80.6" cy="39.0" r="0.4" />
<circle cx="81.2" cy="40.0" r="0.4" />
<circle cx="81.7" cy="42.0" r="0.4" />
<circle cx="82.2" cy="43.0" r="0.4" />
<circle cx="82.7" cy="45.0" r="0.4" />
<circle cx="83.2" cy="48.0" r="0.4" />
<circle cx="83.7" cy="49.0" r="0.4" />
<circle cx="84.2" cy="52.0" r="0.4" />
<circle cx="84.8" cy="54.0" r="0.4" />
<circle cx="85.3" cy="55.0" r="0.4" />
<circle cx="85.8" cy="57.0" r="0.4" />
<circle cx="86.3" cy="60.0" r="0.4" />
<circle cx="86.8" cy="63.0" r="0.4" />
<circle cx="87.3" cy="64.0" r="0.4" />
<circle cx="87.8" cy="67.0" r="0.4" />
<circle cx="88.3" cy="37.0" r="0.4" />
<circle cx="88.9" cy="38.0" r="0.4" />
<circle cx="89.4" cy="39.0" r="0.4" />
<circle cx="89.9" cy="41.0" r="0.4" />
<circle cx="90.4" cy="42.0" r="0.4" />
<circle cx="90.9" cy="44.0" r="0.4" />
<circle cx="91.4" cy="45.0" r="0.4" />
<circle cx="91.9" cy="47.0" r="0.4" />
<circle cx="92.5" cy="50.0" r="0.4" />
<circle cx="93.0" cy="51.0" r="0.4" />
<circle cx="93.5" cy="54.0" r="0.4" />
<circle cx="94.0" cy="56.0" r="0.4" />
<circle cx="94.5" cy="57.0" r="0.4" />
<circle cx="95.0" cy="59.0" r="0.4" />
<circle cx="95.5" cy="62.0" r="0.4" />
<circle cx="96.1" cy="65.0" r="0.4" />
<circle cx="96.6" cy="66.0" r="0.4" />
<circle cx="97.1" cy="69.0" r="0.4" />
<circle cx="97.6" cy="71.0" r="0.4" />
<circle cx="98.1" cy="38.0" r="0.4" />
<circle cx="98.6" cy="39.0" r="0.4" />
<circle cx="99.1" cy="40.0" r="0.4" />
<circle cx="99.7" cy="42.0" r="0.4" />
<circle cx="100.2" cy="43.0" r="0.4" />
<circle cx="100.7" cy="45.0" r="0.4" />
<circle cx="101.2" cy="46.0" r="0.4" />
<circle cx="101.7" cy="48.0" r="0.4" />
<circle cx="102.2" cy="51.0" r="0.4" />
<circle cx="102.7" cy="52.0" r="0.4" />
<circle cx="103.2" cy="55.0" r="0.4" />
<circle cx="103.8" cy="57.0" r="0.4" />
<circle cx="104.3" cy="58.0" r="0.4" />
<circle cx="104.8" cy="60.0" r="0.4" />
<circle cx="105.3" cy="63.0" r="0.4" />
<circle cx="105.8" cy="66.0" r="0.4" />
<circle cx="106.3" cy="67.0" r="0.4" />
<circle cx="106.8" cy="70.0" r="0.4" />
<circle cx="107.4" cy="72.0" r="0.4" />
<circle cx="107.9" cy="73.0" r="0.4" />
<circle cx="108.4" cy="41.0" r="0.4" />
<circle cx="108.9" cy="42.0" r="0.4" />
<circle cx="109.4" cy="43.0" r="0.4" />
<circle cx="109.9" cy="45.0" r="0.4" />
<circle cx="110.4" cy="46.0" r="0.4" />
<circle cx="111.0" cy="48.0" r="0.4" />
<circle cx="111.5" cy="49.0" r="0.4" />
<circle cx="112.0" cy="51.0" r="0.4" />
<circle cx="112.5" cy="54.0" r="0.4" />
<circle cx="113.0" cy="55.0" r="0.4" />
<circle cx="113.5" cy="58.0" r="0.4" />
<circle cx="114.0" cy="60.0" r="0.4" />
<circle cx="114.5" cy="61.0" r="0.4" />
<circle cx="115.1" cy="63.0" r="0.4" />
<circle cx="115.6" cy="66.0" r="0.4" />
<circle cx="116.1" cy="69.0" r="0.4" />
<circle cx="116.6" cy="70.0" r="0.4" />
<circle cx="117.1" cy="73.0" r="0.4" />
<circle cx="117.6" cy="75.0" r="0.4" />
<circle cx="118.1" cy="76.0" r="0.4" />
<circle cx="118.7" cy="79.0" r="0.4" />
<circle cx="119.2" cy="43.0" r="0.4" />
<circle cx="119.7" cy="44.0" r="0.4" />
<circle cx="120.2" cy="45.0" r="0.4" />
<circle cx="120.7" cy="47.0" r="0.4" />
<circle cx="121.2" cy="48.0" r="0.4" />
<circle cx="121.7" cy="50.0" r="0.4" />
<circle cx="122.3" cy="51.0" r="0.4" />
<circle cx="122.8" cy="53.0" r="0.4" />
<circle cx="123.3" cy="56.0" r="0.4" />
<circle cx="123.8" cy="57.0" r="0.4" />
<circle cx="124.3" cy="60.0" r="0.4" />
<circle cx="124.8" cy="62.0" r="0.4" />
<circle cx="125.3" cy="63.0" r="0.4" />
<circle cx="125.8" cy="65.0" r="0.4" />
<circle cx="126.4" cy="68.0" r="0.4" />
<circle cx="126.9" cy="71.0" r="0.4" />
<circle cx="127.4" cy="72.0" r="0.4" />
<circle cx="127.9" cy="75.0" r="0.4" />
<circle cx="128.4" cy="77.0" r="0.4" />
<circle cx="128.9" cy="78.0" r="0.4" />
<circle cx="129.4" cy="81.0" r="0.4" />
<circle cx="130.0" cy="83.0" r="0.4" />
</g>
</svg>