<svg xmlns="http://www.w3.org/2000/svg" width="161.8" height="100.0" viewBox="-3.33 -1.55 171.80 110.00">
<g fill="none" stroke="black" stroke-width="0.1450%" transform="translate(0, 106.8966) scale(3.4483, -3.4483)">
<circle cx="0.48" cy="1.00" r="0.15" />
<circle cx="0.97" cy="2.00" r="0.15" />
<circle cx="1.45" cy="1.00" r="0.15" />
<circle cx="1.93" cy="3.00" r="0.15" />
<circle cx="2.42" cy="1.00" r="0.15" />
<circle cx="2.90" cy="4.00" r="0.15" />
<circle cx="3.39" cy="1.00" r="0.15" />
<circle cx="3.87" cy="2.00" r="0.15" />
<circle cx="4.35" cy="2.00" r="0.15" />
<circle cx="4.84" cy="5.00" r="0.15" />
<circle cx="5.32" cy="1.00" r="0.15" />
<circle cx="5.80" cy="6.00" r="0.15" />
<circle cx="6.29" cy="3.00" r="0.15" />
<circle cx="6.77" cy="4.00" r="0.15" />
<circle cx="7.26" cy="1.00" r="0.15" />
<circle cx="7.74" cy="7.00" r="0.15" />
<circle cx="8.22" cy="2.00" r="0.15" />
<circle cx="8.71" cy="8.00" r="0.15" />
<circle cx="9.19" cy="3.00" r="0.15" />
<circle cx="9.67" cy="5.00" r="0.15" />
<circle cx="10.16" cy="6.00" r="0.15" />
<circle cx="10.64" cy="9.00" r="0.15" />
<circle cx="11.13" cy="1.00" r="0.15" />
<circle cx="11.61" cy="3.00" r="0.15" />
<circle cx="12.09" cy="7.00" r="0.15" />
<circle cx="12.58" cy="2.00" r="0.15" />
<circle cx="13.06" cy="4.00" r="0.15" />
<circle cx="13.54" cy="10.00" r="0.15" />
<circle cx="14.03" cy="1.00" r="0.15" />
<circle cx="14.51" cy="11.00" r="0.15" />
<circle cx="15.00" cy="1.00" r="0.15" />
<circle cx="15.48" cy="8.00" r="0.15" />
<circle cx="15.96" cy="9.00" r="0.15" />
<circle cx="16.45" cy="10.00" r="0.15" />
<circle cx="16.93" cy="1.00" r="0.15" />
<circle cx="17.41" cy="12.00" r="0.15" />
<circle cx="17.90" cy="11.00" r="0.15" />
<circle cx="18.38" cy="12.00" r="0.15" />
<circle cx="18.87" cy="2.00" r="0.15" />
<circle cx="19.35" cy="13.00" r="0.15" />
<circle cx="19.83" cy="2.00" r="0.15" />
<circle cx="20.32" cy="14.00" r="0.15" />
<circle cx="20.80" cy="5.00" r="0.15" />
<circle cx="21.28" cy="6.00" r="0.15" />
<circle cx="21.77" cy="13.00" r="0.15" />
<circle cx="22.25" cy="15.00" r="0.15" />
<circle cx="22.74" cy="1.00" r="0.15" />
<circle cx="23.22" cy="4.00" r="0.15" />
<circle cx="23.70" cy="7.00" r="0.15" />
<circle cx="24.19" cy="14.00" r="0.15" />
<circle cx="24.67" cy="8.00" r="0.15" />
<circle cx="25.15" cy="16.00" r="0.15" />
<circle cx="25.64" cy="3.00" r="0.15" />
<circle cx="26.12" cy="15.00" r="0.15" />
<circle cx="26.61" cy="4.00" r="0.15" />
<circle cx="27.09" cy="16.00" r="0.15" />
<circle cx="27.57" cy="17.00" r="0.15" />
<circle cx="28.06" cy="17.00" r="0.15" />
<circle cx="28.54" cy="1.00" r="0.15" />
<circle cx="29.02" cy="18.00" r="0.15" />
<circle cx="29.51" cy="18.00" r="0.15" />
<circle cx="29.99" cy="9.00" r="0.15" />
<circle cx="30.48" cy="1.00" r="0.15" />
<circle cx="30.96" cy="19.00" r="0.15" />
<circle cx="31.44" cy="3.00" r="0.15" />
<circle cx="31.93" cy="19.00" r="0.15" />
<circle cx="32.41" cy="10.00" r="0.15" />
<circle cx="32.89" cy="20.00" r="0.15" />
<circle cx="33.38" cy="4.00" r="0.15" />
<circle cx="33.86" cy="20.00" r="0.15" />
<circle cx="34.35" cy="1.00" r="0.15" />
<circle cx="34.83" cy="21.00" r="0.15" />
<circle cx="35.31" cy="21.00" r="0.15" />
<circle cx="35.80" cy="11.00" r="0.15" />
<circle cx="36.28" cy="12.00" r="0.15" />
<circle cx="36.76" cy="22.00" r="0.15" />
<circle cx="37.25" cy="5.00" r="0.15" />
<circle cx="37.73" cy="22.00" r="0.15" />
<circle cx="38.22" cy="2.00" r="0.15" />
<circle cx="38.70" cy="2.00" r="0.15" />
<circle cx="39.18" cy="23.00" r="0.15" />
<circle cx="39.67" cy="23.00" r="0.15" />
<circle cx="40.15" cy="2.00" r="0.15" />
<circle cx="40.63" cy="24.00" r="0.15" />
<circle cx="41.12" cy="25.00" r="0.15" />
<circle cx="41.60" cy="26.00" r="0.15" />
<circle cx="42.09" cy="5.00" r="0.15" />
<circle cx="42.57" cy="24.00" r="0.15" />
<circle cx="43.05" cy="3.00" r="0.15" />
<circle cx="43.54" cy="27.00" r="0.15" />
<circle cx="44.02" cy="13.00" r="0.15" />
<circle cx="44.50" cy="28.00" r="0.15" />
<circle cx="44.99" cy="29.00" r="0.15" />
<circle cx="45.47" cy="30.00" r="0.15" />
<circle cx="45.96" cy="1.00" r="0.15" />
<circle cx="46.44" cy="25.00" r="0.15" />
<circle cx="46.92" cy="14.00" r="0.15" />
<circle cx="47.41" cy="15.00" r="0.15" />
</g>
</svg>