<svg xmlns="http://www.w3.org/2000/svg" width="161.8" height="100.0" viewBox="-1.7 -4.1 171.8 110.0">
<g fill="none" stroke="black" stroke-width="1.1350%" transform="translate(0, 101.7621) scale(0.4405, -0.4405)">
<polyline points="7.5,2.0 15.0,3.0 22.5,5.0 30.0,7.0 37.5,11.0 45.0,13.0 52.5,17.0 60.0,19.0 67.5,23.0 75.0,29.0 82.5,31.0 89.9,37.0 97.4,41.0 104.9,43.0 112.4,47.0 119.9,53.0 127.4,59.0 134.9,61.0 142.4,67.0 149.9,71.0 157.4,73.0 164.9,79.0 172.4,83.0 179.9,89.0 187.4,97.0 194.9,101.0 202.4,103.0 209.9,107.0 217.4,109.0 224.9,113.0 232.4,127.0 239.9,131.0 247.4,137.0 254.9,139.0 262.4,149.0 269.8,151.0 277.3,157.0 284.8,163.0 292.3,167.0 299.8,173.0 307.3,179.0 314.8,181.0 322.3,191.0 329.8,193.0 337.3,197.0 344.8,199.0 352.3,211.0 359.8,223.0 367.3,227.0 374.8,229.0" />
</g>
</svg>