<svg xmlns="http://www.w3.org/2000/svg" width="161.8" height="100.0" viewBox="-4 -5 172 110">
<g fill="none" stroke="black" stroke-width="3.1200%" transform="translate(0, 100.3205) scale(0.1603, -0.1603)">
<circle cx="5" cy="1" r="3" />
<circle cx="10" cy="1" r="3" />
<circle cx="15" cy="2" r="3" />
<circle cx="20" cy="3" r="3" />
<circle cx="25" cy="4" r="3" />
<circle cx="30" cy="7" r="3" />
<circle cx="35" cy="6" r="3" />
<circle cx="40" cy="11" r="3" />
<circle cx="45" cy="8" r="3" />
<circle cx="50" cy="15" r="3" />
<circle cx="56" cy="14" r="3" />
<circle cx="61" cy="17" r="3" />
<circle cx="66" cy="20" r="3" />
<circle cx="71" cy="21" r="3" />
<circle cx="76" cy="22" r="3" />
<circle cx="81" cy="25" r="3" />
<circle cx="86" cy="28" r="3" />
<circle cx="91" cy="31" r="3" />
<circle cx="96" cy="30" r="3" />
<circle cx="101" cy="37" r="3" />
<circle cx="106" cy="34" r="3" />
<circle cx="111" cy="39" r="3" />
<circle cx="116" cy="40" r="3" />
<circle cx="121" cy="43" r="3" />
<circle cx="126" cy="46" r="3" />
<circle cx="131" cy="51" r="3" />
<circle cx="136" cy="50" r="3" />
<circle cx="141" cy="53" r="3" />
<circle cx="146" cy="54" r="3" />
<circle cx="151" cy="55" r="3" />
<circle cx="156" cy="58" r="3" />
<circle cx="162" cy="69" r="3" />
<circle cx="167" cy="62" r="3" />
<circle cx="172" cy="75" r="3" />
<circle cx="177" cy="64" r="3" />
<circle cx="182" cy="85" r="3" />
<circle cx="187" cy="66" r="3" />
<circle cx="192" cy="91" r="3" />
<circle cx="197" cy="72" r="3" />
<circle cx="202" cy="95" r="3" />
<circle cx="207" cy="78" r="3" />
<circle cx="212" cy="101" r="3" />
<circle cx="217" cy="80" r="3" />
<circle cx="222" cy="111" r="3" />
<circle cx="227" cy="82" r="3" />
<circle cx="232" cy="115" r="3" />
<circle cx="237" cy="84" r="3" />
<circle cx="242" cy="127" r="3" />
<circle cx="247" cy="96" r="3" />
<circle cx="252" cy="131" r="3" />
<circle cx="257" cy="98" r="3" />
<circle cx="263" cy="135" r="3" />
<circle cx="268" cy="104" r="3" />
<circle cx="273" cy="137" r="3" />
<circle cx="278" cy="114" r="3" />
<circle cx="283" cy="143" r="3" />
<circle cx="288" cy="120" r="3" />
<circle cx="293" cy="149" r="3" />
<circle cx="298" cy="122" r="3" />
<circle cx="303" cy="155" r="3" />
<circle cx="308" cy="126" r="3" />
<circle cx="313" cy="157" r="3" />
<circle cx="318" cy="136" r="3" />
<circle cx="323" cy="171" r="3" />
<circle cx="328" cy="140" r="3" />
<circle cx="333" cy="173" r="3" />
<circle cx="338" cy="144" r="3" />
<circle cx="343" cy="187" r="3" />
<circle cx="348" cy="150" r="3" />
<circle cx="353" cy="197" r="3" />
<circle cx="358" cy="152" r="3" />
<circle cx="363" cy="201" r="3" />
<circle cx="369" cy="158" r="3" />
<circle cx="374" cy="209" r="3" />
<circle cx="379" cy="164" r="3" />
<circle cx="384" cy="215" r="3" />
<circle cx="389" cy="168" r="3" />
<circle cx="394" cy="221" r="3" />
<circle cx="399" cy="176" r="3" />
<circle cx="404" cy="225" r="3" />
<circle cx="409" cy="184" r="3" />
<circle cx="414" cy="235" r="3" />
<circle cx="419" cy="186" r="3" />
<circle cx="424" cy="245" r="3" />
<circle cx="429" cy="188" r="3" />
<circle cx="434" cy="251" r="3" />
<circle cx="439" cy="192" r="3" />
<circle cx="444" cy="257" r="3" />
<circle cx="449" cy="200" r="3" />
<circle cx="454" cy="261" r="3" />
<circle cx="459" cy="202" r="3" />
<circle cx="464" cy="265" r="3" />
<circle cx="469" cy="214" r="3" />
<circle cx="475" cy="273" r="3" />
<circle cx="480" cy="218" r="3" />
<circle cx="485" cy="281" r="3" />
<circle cx="490" cy="222" r="3" />
<circle cx="495" cy="287" r="3" />
<circle cx="500" cy="234" r="3" />
<circle cx="505" cy="289" r="3" />
<circle cx="510" cy="252" r="3" />
<circle cx="515" cy="295" r="3" />
<circle cx="520" cy="262" r="3" />
<circle cx="525" cy="301" r="3" />
<circle cx="530" cy="268" r="3" />
<circle cx="535" cy="303" r="3" />
<circle cx="540" cy="274" r="3" />
<circle cx="545" cy="313" r="3" />
<circle cx="550" cy="280" r="3" />
<circle cx="555" cy="319" r="3" />
<circle cx="560" cy="282" r="3" />
<circle cx="565" cy="325" r="3" />
<circle cx="570" cy="288" r="3" />
<circle cx="576" cy="329" r="3" />
<circle cx="581" cy="290" r="3" />
<circle cx="586" cy="341" r="3" />
<circle cx="591" cy="300" r="3" />
<circle cx="596" cy="343" r="3" />
<circle cx="601" cy="304" r="3" />
<circle cx="606" cy="349" r="3" />
<circle cx="611" cy="310" r="3" />
<circle cx="616" cy="351" r="3" />
<circle cx="621" cy="322" r="3" />
<circle cx="626" cy="355" r="3" />
<circle cx="631" cy="328" r="3" />
<circle cx="636" cy="363" r="3" />
<circle cx="641" cy="338" r="3" />
<circle cx="646" cy="371" r="3" />
<circle cx="651" cy="348" r="3" />
<circle cx="656" cy="379" r="3" />
<circle cx="661" cy="354" r="3" />
<circle cx="666" cy="385" r="3" />
<circle cx="671" cy="358" r="3" />
<circle cx="676" cy="393" r="3" />
<circle cx="682" cy="364" r="3" />
<circle cx="687" cy="397" r="3" />
<circle cx="692" cy="372" r="3" />
<circle cx="697" cy="401" r="3" />
<circle cx="702" cy="386" r="3" />
<circle cx="707" cy="411" r="3" />
<circle cx="712" cy="398" r="3" />
<circle cx="717" cy="413" r="3" />
<circle cx="722" cy="408" r="3" />
<circle cx="727" cy="415" r="3" />
<circle cx="732" cy="412" r="3" />
<circle cx="737" cy="417" r="3" />
<circle cx="742" cy="422" r="3" />
<circle cx="747" cy="431" r="3" />
<circle cx="752" cy="426" r="3" />
<circle cx="757" cy="433" r="3" />
<circle cx="762" cy="430" r="3" />
<circle cx="767" cy="447" r="3" />
<circle cx="772" cy="434" r="3" />
<circle cx="777" cy="449" r="3" />
<circle cx="782" cy="438" r="3" />
<circle cx="788" cy="469" r="3" />
<circle cx="793" cy="442" r="3" />
<circle cx="798" cy="477" r="3" />
<circle cx="803" cy="452" r="3" />
<circle cx="808" cy="485" r="3" />
<circle cx="813" cy="456" r="3" />
<circle cx="818" cy="491" r="3" />
<circle cx="823" cy="462" r="3" />
<circle cx="828" cy="505" r="3" />
<circle cx="833" cy="466" r="3" />
<circle cx="838" cy="511" r="3" />
<circle cx="843" cy="472" r="3" />
<circle cx="848" cy="519" r="3" />
<circle cx="853" cy="478" r="3" />
<circle cx="858" cy="531" r="3" />
<circle cx="863" cy="482" r="3" />
<circle cx="868" cy="537" r="3" />
<circle cx="873" cy="484" r="3" />
<circle cx="878" cy="547" r="3" />
<circle cx="883" cy="486" r="3" />
<circle cx="888" cy="553" r="3" />
<circle cx="894" cy="496" r="3" />
<circle cx="899" cy="555" r="3" />
<circle cx="904" cy="506" r="3" />
<circle cx="909" cy="557" r="3" />
<circle cx="914" cy="512" r="3" />
<circle cx="919" cy="575" r="3" />
<circle cx="924" cy="516" r="3" />
<circle cx="929" cy="577" r="3" />
<circle cx="934" cy="520" r="3" />
<circle cx="939" cy="583" r="3" />
<circle cx="944" cy="526" r="3" />
<circle cx="949" cy="591" r="3" />
<circle cx="954" cy="532" r="3" />
<circle cx="959" cy="597" r="3" />
<circle cx="964" cy="554" r="3" />
<circle cx="969" cy="599" r="3" />
<circle cx="974" cy="564" r="3" />
<circle cx="979" cy="607" r="3" />
<circle cx="984" cy="574" r="3" />
<circle cx="989" cy="613" r="3" />
<circle cx="995" cy="580" r="3" />
<circle cx="1000" cy="621" r="3" />
<circle cx="1005" cy="592" r="3" />
<circle cx="1010" cy="625" r="3" />
<circle cx="1015" cy="598" r="3" />
</g>
</svg>