<svg xmlns="http://www.w3.org/2000/svg" width="53.3" height="100.0" viewBox="-49.5 -98.2 63.3 110.0">
<g fill="none" stroke="black" stroke-width="0.1752%" transform="translate(0, -86.3238) scale(2.8538, -2.8538)">
<polyline points="0.0,0.0 -0.4,0.9 -0.1,-0.0 -1.0,-0.6 -1.2,-1.6 -2.2,-1.3 -3.2,-1.4 -3.1,-0.4 -3.1,0.5 -2.2,0.0 -3.2,-0.2 -4.2,0.1 -4.8,0.9 -4.1,0.2 -4.3,-0.8 -4.0,0.1 -4.6,-0.6 -3.6,-0.4 -3.7,-1.4 -4.5,-0.8 -4.8,-1.8 -5.2,-0.9 -4.5,-1.5 -3.7,-0.9 -3.8,0.1 -4.0,-0.9 -3.9,-1.9 -3.4,-1.0 -3.1,-0.0 -4.0,-0.3 -5.0,-0.6 -5.0,-1.6 -5.9,-2.1 -6.7,-1.5 -7.7,-1.7 -7.6,-0.7 -7.7,0.3 -7.7,1.3 -7.4,2.3 -7.3,1.3 -7.6,2.2 -7.3,1.3 -8.1,0.6 -7.1,0.7 -7.3,-0.3 -6.4,0.1 -6.4,-0.9 -6.9,0.0 -6.5,-0.9 -5.5,-1.2 -6.3,-0.6 -7.3,-0.5 -8.3,-0.6 -7.6,-1.3 -7.1,-2.2 -7.3,-3.2 -8.2,-3.7 -9.0,-3.0 -10.0,-3.2 -10.7,-3.8 -11.2,-3.0 -11.9,-2.3 -10.9,-2.2 -10.3,-3.0 -10.9,-2.2 -10.5,-1.3 -11.2,-2.0 -11.6,-1.1 -10.6,-1.4 -10.2,-0.6 -10.3,-1.5 -9.5,-2.1 -8.6,-1.9 -9.5,-1.6 -9.1,-2.5 -8.4,-1.7 -7.6,-1.2 -6.6,-1.2 -6.2,-0.3 -5.2,-0.3 -4.4,0.3 -4.2,-0.6 -3.9,-1.6 -4.7,-1.0 -5.0,-0.0 -4.5,0.9 -4.9,-0.0 -4.3,0.7 -3.6,-0.0 -3.5,1.0 -2.6,0.6 -2.7,1.6 -3.7,1.6 -2.7,1.6 -2.0,2.4 -3.0,2.0 -3.7,1.4 -4.4,0.6 -5.4,0.4 -5.2,-0.6 -4.4,-1.3 -3.5,-1.6 -4.3,-2.2 -4.0,-1.2 -3.9,-2.2 -4.6,-3.0 -5.6,-2.8 -4.8,-3.4 -4.9,-2.4 -5.7,-3.0 -5.8,-2.0 -5.1,-2.8 -6.0,-2.3 -6.7,-3.0 -6.1,-2.2 -7.0,-2.6 -7.9,-3.1 -7.0,-3.6 -6.2,-4.2 -5.7,-5.1 -6.0,-6.1 -5.2,-6.6 -4.2,-6.5 -4.1,-7.5 -5.1,-7.3 -6.0,-7.0 -5.0,-6.9 -4.4,-7.7 -4.6,-6.7 -3.6,-6.8 -4.2,-7.6 -4.3,-6.6 -5.3,-6.7 -4.3,-6.5 -5.3,-6.6 -6.0,-7.4 -5.0,-7.2 -4.1,-6.8 -4.4,-5.9 -3.9,-5.1 -3.0,-5.6 -2.0,-5.6 -2.6,-6.4 -3.2,-7.2 -3.3,-6.2 -3.0,-5.3 -3.1,-6.3 -4.1,-6.2 -3.3,-6.9 -4.1,-7.5 -3.2,-7.8 -4.2,-8.0 -4.2,-9.0 -4.4,-8.0 -5.3,-7.7 -5.0,-8.6 -4.7,-9.6 -3.8,-9.2 -2.9,-9.7 -1.9,-9.5 -1.6,-10.4 -2.6,-10.6 -2.3,-9.6 -1.5,-9.0 -2.1,-9.8 -1.5,-9.0 -2.3,-9.5 -2.7,-8.6 -1.7,-8.7 -2.6,-9.1 -2.3,-10.1 -1.3,-10.2 -2.3,-10.1 -3.2,-10.5 -2.2,-10.7 -2.7,-9.8 -2.9,-8.8 -3.9,-9.2 -4.7,-8.7 -5.5,-9.3 -5.6,-10.3 -5.6,-11.3 -6.4,-10.6 -6.9,-9.8 -6.0,-10.2 -7.0,-10.1 -6.0,-10.2 -5.9,-11.2 -6.9,-11.1 -6.5,-10.2 -7.1,-9.4 -6.5,-10.2 -5.5,-10.4 -6.0,-9.6 -6.3,-8.6 -6.0,-7.6 -5.2,-7.1 -5.0,-6.1 -5.3,-5.2 -4.3,-5.3 -5.0,-6.0 -4.8,-5.0 -4.2,-4.2 -3.2,-4.1 -2.9,-5.1 -2.5,-4.2 -3.3,-3.7 -2.3,-3.8 -1.9,-2.9 -2.3,-2.0 -2.1,-3.0 -1.9,-2.0 -2.1,-1.0 -2.6,-1.9 -3.1,-2.7 -3.9,-3.3 -3.3,-4.2 -2.4,-3.9 -2.9,-4.7 -2.7,-3.7 -2.8,-4.7 -3.8,-4.9 -3.4,-4.0 -4.3,-3.6 -3.5,-4.1 -2.5,-3.9 -3.5,-3.7 -4.4,-3.9 -5.4,-4.2 -4.8,-5.0 -4.6,-6.0 -3.6,-5.8 -3.6,-4.8 -4.2,-4.0 -3.3,-3.6 -2.5,-3.0 -2.4,-4.0 -2.5,-5.0 -3.1,-4.2 -2.2,-4.7 -3.1,-4.1 -2.7,-5.1 -3.7,-4.9 -2.7,-4.6 -3.6,-5.1 -3.6,-6.1 -2.9,-6.8 -3.0,-5.8 -3.3,-4.9 -4.1,-5.5 -5.1,-5.8 -5.3,-6.8 -6.3,-6.9 -6.5,-5.9 -7.2,-5.2 -6.3,-4.7 -6.3,-5.7 -6.3,-6.7 -6.7,-7.6 -6.5,-6.6 -5.6,-7.0 -6.3,-7.7 -5.4,-8.1 -6.3,-8.4 -5.3,-8.4 -4.5,-7.8 -5.5,-7.8 -6.5,-7.8 -7.3,-7.2 -8.0,-8.0 -8.9,-7.6 -9.9,-7.8 -10.8,-8.3 -11.7,-8.7 -12.7,-8.9 -13.3,-8.1 -12.5,-7.4 -13.5,-7.6 -13.6,-6.6 -12.8,-7.2 -12.1,-6.5 -12.2,-5.5 -12.6,-6.4 -13.2,-7.1 -12.8,-8.0 -11.8,-8.2 -11.8,-9.2 -11.3,-10.1 -12.2,-10.5 -12.9,-11.3 -13.0,-10.3 -12.6,-11.2 -13.1,-10.3 -12.8,-11.3 -12.1,-10.5 -11.9,-11.5 -10.9,-11.7 -11.9,-11.6 -12.9,-11.5 -13.9,-11.3 -14.2,-12.2 -13.4,-12.8 -13.6,-13.8 -12.9,-14.5 -13.4,-15.4 -13.5,-16.4 -13.6,-17.4 -14.2,-16.6 -14.3,-15.6 -14.1,-16.5 -15.0,-16.7 -14.3,-17.5 -13.8,-16.6 -14.5,-15.9 -13.7,-16.5 -12.8,-16.3 -13.8,-16.4 -14.6,-16.9 -15.6,-17.2 -15.0,-18.0 -15.3,-19.0 -14.7,-19.8 -13.8,-20.0 -14.0,-20.9 -13.7,-21.9 -14.7,-21.6 -15.4,-20.9 -15.0,-20.0 -14.7,-21.0 -13.7,-20.6 -13.8,-19.6 -13.8,-20.6 -13.7,-21.6 -13.0,-20.9 -12.2,-20.3 -12.9,-19.6 -12.4,-18.7 -12.6,-17.7 -11.7,-17.4 -10.8,-16.9 -9.9,-16.5 -8.9,-16.4 -9.8,-16.9 -8.9,-16.4 -8.1,-17.1 -7.8,-16.1 -8.8,-15.9 -7.8,-15.6 -8.7,-16.1 -8.7,-17.1 -7.9,-17.8 -7.8,-16.8 -8.8,-17.1 -9.8,-17.1 -9.7,-18.1 -8.7,-18.2 -8.2,-19.0 -8.8,-19.8 -9.5,-19.1 -8.5,-18.8 -8.9,-19.7 -9.9,-20.0 -8.9,-19.7 -9.9,-19.7 -9.3,-20.5 -10.3,-20.4 -9.4,-19.9 -9.8,-19.0 -10.3,-19.9 -9.4,-20.5 -9.6,-21.5 -9.2,-22.4 -10.1,-22.7 -10.0,-21.7 -10.0,-20.7 -9.7,-19.7 -10.2,-20.6 -9.2,-20.4 -9.4,-21.4 -8.4,-21.6 -9.4,-21.4 -10.2,-22.1 -10.7,-22.9 -9.8,-23.2 -9.3,-24.1 -8.3,-24.0 -7.8,-24.9 -6.8,-25.2 -5.8,-25.2 -4.8,-25.1 -5.3,-25.9 -6.0,-26.7 -5.9,-25.7 -5.6,-26.6 -6.3,-27.4 -5.5,-26.8 -4.7,-27.4 -5.4,-28.2 -4.4,-28.4 -5.2,-29.0 -4.6,-29.8 -5.3,-29.1 -6.3,-29.3 -5.4,-29.8 -4.7,-30.5 -4.5,-31.5 -3.6,-31.7 -2.9,-31.0 -2.0,-31.5 -1.0,-31.3 -1.4,-32.2 -2.3,-32.6 -1.5,-32.1 -2.4,-32.5 -2.8,-31.6 -1.8,-31.4 -2.5,-30.7 -3.4,-31.2 -2.5,-30.8 -1.8,-30.1 -1.2,-29.3 -0.6,-28.5 -1.4,-27.9 -1.3,-26.9 -0.3,-26.9 0.6,-27.0 -0.1,-27.6 0.3,-26.7 0.0,-27.7 -0.9,-28.0 -0.2,-28.8 -1.2,-28.7 -1.5,-29.7 -1.2,-28.7 -1.6,-27.8 -2.0,-28.7 -2.6,-29.6 -1.7,-30.0 -0.9,-29.4 -0.7,-28.4 -0.8,-27.5 0.1,-27.8 -0.8,-28.2 -1.5,-27.6 -1.3,-28.5 -2.3,-28.6 -2.1,-29.6 -1.7,-28.7 -1.6,-27.7 -2.4,-28.2 -1.8,-29.0 -0.9,-28.4 0.0,-28.7 -0.1,-29.7 -1.1,-29.4 -2.1,-29.2 -1.2,-28.6 -0.2,-28.6 -1.1,-28.1 -0.5,-27.3 -1.5,-27.4 -1.2,-26.4 -0.9,-27.4 -0.3,-28.2 -0.1,-27.2 -1.1,-27.5 -0.6,-28.4 0.3,-28.0 1.2,-28.4 1.3,-29.4 2.1,-29.9 3.1,-30.2 2.5,-31.0 2.5,-30.0 2.9,-29.1 2.6,-30.0 1.6,-30.1 2.3,-30.8 1.5,-31.3 1.9,-32.2 2.9,-32.0 2.1,-31.4 1.6,-30.5 0.7,-30.7 0.0,-29.9 -1.0,-30.0 -1.3,-29.1 -2.2,-28.6 -1.2,-28.4 -0.3,-29.0 -0.7,-29.9 -1.6,-29.6 -1.4,-30.6 -2.3,-30.2 -2.4,-31.2 -1.4,-31.3 -2.3,-31.7 -1.4,-31.2 -1.1,-30.2 -1.8,-31.0 -0.8,-31.2" />
</g>
</svg>