<svg xmlns="http://www.w3.org/2000/svg" width="161.8" height="100.0" viewBox="-2.26 -5.00 171.80 110.00">
<g fill="none" stroke="black" stroke-width="0.0850%" transform="translate(0, 100.0000) scale(5.8824, -5.8824)">

<line x1="0.93" y1="0.00" x2="0.93" y2="1.00" />
<line x1="1.40" y1="0.00" x2="1.40" y2="2.00" />
<line x1="1.86" y1="0.00" x2="1.86" y2="2.00" />
<line x1="2.33" y1="0.00" x2="2.33" y2="3.00" />
<line x1="2.80" y1="0.00" x2="2.80" y2="3.00" />
<line x1="3.26" y1="0.00" x2="3.26" y2="4.00" />
<line x1="3.73" y1="0.00" x2="3.73" y2="4.00" />
<line x1="4.20" y1="0.00" x2="4.20" y2="4.00" />
<line x1="4.66" y1="0.00" x2="4.66" y2="4.00" />
<line x1="5.13" y1="0.00" x2="5.13" y2="5.00" />
<line x1="5.59" y1="0.00" x2="5.59" y2="5.00" />
<line x1="6.06" y1="0.00" x2="6.06" y2="6.00" />
<line x1="6.53" y1="0.00" x2="6.53" y2="6.00" />
<line x1="6.99" y1="0.00" x2="6.99" y2="6.00" />
<line x1="7.46" y1="0.00" x2="7.46" y2="6.00" />
<line x1="7.93" y1="0.00" x2="7.93" y2="7.00" />
<line x1="8.39" y1="0.00" x2="8.39" y2="7.00" />
<line x1="8.86" y1="0.00" x2="8.86" y2="8.00" />
<line x1="9.32" y1="0.00" x2="9.32" y2="8.00" />
<line x1="9.79" y1="0.00" x2="9.79" y2="8.00" />
<line x1="10.26" y1="0.00" x2="10.26" y2="8.00" />
<line x1="10.72" y1="0.00" x2="10.72" y2="9.00" />
<line x1="11.19" y1="0.00" x2="11.19" y2="9.00" />
<line x1="11.66" y1="0.00" x2="11.66" y2="9.00" />
<line x1="12.12" y1="0.00" x2="12.12" y2="9.00" />
<line x1="12.59" y1="0.00" x2="12.59" y2="9.00" />
<line x1="13.05" y1="0.00" x2="13.05" y2="9.00" />
<line x1="13.52" y1="0.00" x2="13.52" y2="10.00" />
<line x1="13.99" y1="0.00" x2="13.99" y2="10.00" />
<line x1="14.45" y1="0.00" x2="14.45" y2="11.00" />
<line x1="14.92" y1="0.00" x2="14.92" y2="11.00" />
<line x1="15.39" y1="0.00" x2="15.39" y2="11.00" />
<line x1="15.85" y1="0.00" x2="15.85" y2="11.00" />
<line x1="16.32" y1="0.00" x2="16.32" y2="11.00" />
<line x1="16.78" y1="0.00" x2="16.78" y2="11.00" />
<line x1="17.25" y1="0.00" x2="17.25" y2="12.00" />
<line x1="17.72" y1="0.00" x2="17.72" y2="12.00" />
<line x1="18.18" y1="0.00" x2="18.18" y2="12.00" />
<line x1="18.65" y1="0.00" x2="18.65" y2="12.00" />
<line x1="19.11" y1="0.00" x2="19.11" y2="13.00" />
<line x1="19.58" y1="0.00" x2="19.58" y2="13.00" />
<line x1="20.05" y1="0.00" x2="20.05" y2="14.00" />
<line x1="20.51" y1="0.00" x2="20.51" y2="14.00" />
<line x1="20.98" y1="0.00" x2="20.98" y2="14.00" />
<line x1="21.45" y1="0.00" x2="21.45" y2="14.00" />
<line x1="21.91" y1="0.00" x2="21.91" y2="15.00" />
<line x1="22.38" y1="0.00" x2="22.38" y2="15.00" />
<line x1="22.84" y1="0.00" x2="22.84" y2="15.00" />
<line x1="23.31" y1="0.00" x2="23.31" y2="15.00" />
<line x1="23.78" y1="0.00" x2="23.78" y2="15.00" />
<line x1="24.24" y1="0.00" x2="24.24" y2="15.00" />
<line x1="24.71" y1="0.00" x2="24.71" y2="16.00" />
<line x1="25.18" y1="0.00" x2="25.18" y2="16.00" />
<line x1="25.64" y1="0.00" x2="25.64" y2="16.00" />
<line x1="26.11" y1="0.00" x2="26.11" y2="16.00" />
<line x1="26.57" y1="0.00" x2="26.57" y2="16.00" />
<line x1="27.04" y1="0.00" x2="27.04" y2="16.00" />
<line x1="27.51" y1="0.00" x2="27.51" y2="17.00" />
<line x1="27.97" y1="0.00" x2="27.97" y2="17.00" />
</g>
</svg>