<svg xmlns="http://www.w3.org/2000/svg" width="161.8" height="100.0" viewBox="-3.907 -55.000 171.803 110.000">
<g fill="none" stroke="black" stroke-width="0.0100%" transform="translate(0, 0.0000) scale(50.0000, -50.0000)">

<line x1="0.044" y1="0.000" x2="0.044" y2="1.000" />
<line x1="0.066" y1="0.000" x2="0.066" y2="-1.000" />
<line x1="0.087" y1="0.000" x2="0.087" y2="1.000" />
<line x1="0.109" y1="0.000" x2="0.109" y2="-1.000" />
<line x1="0.131" y1="0.000" x2="0.131" y2="1.000" />
<line x1="0.153" y1="0.000" x2="0.153" y2="-1.000" />
<line x1="0.175" y1="0.000" x2="0.175" y2="1.000" />
<line x1="0.197" y1="0.000" x2="0.197" y2="1.000" />
<line x1="0.219" y1="0.000" x2="0.219" y2="-1.000" />
<line x1="0.241" y1="0.000" x2="0.241" y2="-1.000" />
<line x1="0.262" y1="0.000" x2="0.262" y2="1.000" />
<line x1="0.284" y1="0.000" x2="0.284" y2="-1.000" />
<line x1="0.306" y1="0.000" x2="0.306" y2="1.000" />
<line x1="0.328" y1="0.000" x2="0.328" y2="1.000" />
<line x1="0.350" y1="0.000" x2="0.350" y2="1.000" />
<line x1="0.372" y1="0.000" x2="0.372" y2="-1.000" />
<line x1="0.394" y1="0.000" x2="0.394" y2="-1.000" />
<line x1="0.415" y1="0.000" x2="0.415" y2="1.000" />
<line x1="0.437" y1="0.000" x2="0.437" y2="-1.000" />
<line x1="0.459" y1="0.000" x2="0.459" y2="-1.000" />
<line x1="0.481" y1="0.000" x2="0.481" y2="1.000" />
<line x1="0.503" y1="0.000" x2="0.503" y2="1.000" />
<line x1="0.525" y1="0.000" x2="0.525" y2="-1.000" />
<line x1="0.547" y1="0.000" x2="0.547" y2="1.000" />
<line x1="0.568" y1="0.000" x2="0.568" y2="-1.000" />
<line x1="0.590" y1="0.000" x2="0.590" y2="1.000" />
<line x1="0.612" y1="0.000" x2="0.612" y2="-1.000" />
<line x1="0.634" y1="0.000" x2="0.634" y2="1.000" />
<line x1="0.656" y1="0.000" x2="0.656" y2="-1.000" />
<line x1="0.678" y1="0.000" x2="0.678" y2="1.000" />
<line x1="0.700" y1="0.000" x2="0.700" y2="1.000" />
<line x1="0.722" y1="0.000" x2="0.722" y2="-1.000" />
<line x1="0.743" y1="0.000" x2="0.743" y2="1.000" />
<line x1="0.765" y1="0.000" x2="0.765" y2="-1.000" />
<line x1="0.787" y1="0.000" x2="0.787" y2="-1.000" />
<line x1="0.809" y1="0.000" x2="0.809" y2="-1.000" />
<line x1="0.831" y1="0.000" x2="0.831" y2="1.000" />
<line x1="0.853" y1="0.000" x2="0.853" y2="1.000" />
<line x1="0.875" y1="0.000" x2="0.875" y2="1.000" />
<line x1="0.896" y1="0.000" x2="0.896" y2="-1.000" />
<line x1="0.918" y1="0.000" x2="0.918" y2="1.000" />
<line x1="0.940" y1="0.000" x2="0.940" y2="-1.000" />
<line x1="0.962" y1="0.000" x2="0.962" y2="1.000" />
<line x1="0.984" y1="0.000" x2="0.984" y2="-1.000" />
<line x1="1.006" y1="0.000" x2="1.006" y2="-1.000" />
<line x1="1.028" y1="0.000" x2="1.028" y2="-1.000" />
<line x1="1.050" y1="0.000" x2="1.050" y2="1.000" />
<line x1="1.071" y1="0.000" x2="1.071" y2="-1.000" />
<line x1="1.093" y1="0.000" x2="1.093" y2="1.000" />
<line x1="1.115" y1="0.000" x2="1.115" y2="1.000" />
<line x1="1.137" y1="0.000" x2="1.137" y2="-1.000" />
<line x1="1.159" y1="0.000" x2="1.159" y2="1.000" />
<line x1="1.181" y1="0.000" x2="1.181" y2="1.000" />
<line x1="1.203" y1="0.000" x2="1.203" y2="1.000" />
<line x1="1.224" y1="0.000" x2="1.224" y2="1.000" />
<line x1="1.246" y1="0.000" x2="1.246" y2="-1.000" />
<line x1="1.268" y1="0.000" x2="1.268" y2="-1.000" />
<line x1="1.290" y1="0.000" x2="1.290" y2="1.000" />
<line x1="1.312" y1="0.000" x2="1.312" y2="-1.000" />
<line x1="1.334" y1="0.000" x2="1.334" y2="1.000" />
<line x1="1.356" y1="0.000" x2="1.356" y2="-1.000" />
<line x1="1.378" y1="0.000" x2="1.378" y2="1.000" />
<line x1="1.399" y1="0.000" x2="1.399" y2="-1.000" />
<line x1="1.421" y1="0.000" x2="1.421" y2="1.000" />
<line x1="1.443" y1="0.000" x2="1.443" y2="-1.000" />
<line x1="1.465" y1="0.000" x2="1.465" y2="-1.000" />
<line x1="1.487" y1="0.000" x2="1.487" y2="1.000" />
<line x1="1.509" y1="0.000" x2="1.509" y2="-1.000" />
<line x1="1.531" y1="0.000" x2="1.531" y2="1.000" />
<line x1="1.552" y1="0.000" x2="1.552" y2="1.000" />
<line x1="1.574" y1="0.000" x2="1.574" y2="-1.000" />
<line x1="1.596" y1="0.000" x2="1.596" y2="-1.000" />
<line x1="1.618" y1="0.000" x2="1.618" y2="-1.000" />
<line x1="1.640" y1="0.000" x2="1.640" y2="1.000" />
<line x1="1.662" y1="0.000" x2="1.662" y2="1.000" />
<line x1="1.684" y1="0.000" x2="1.684" y2="-1.000" />
<line x1="1.705" y1="0.000" x2="1.705" y2="1.000" />
<line x1="1.727" y1="0.000" x2="1.727" y2="-1.000" />
<line x1="1.749" y1="0.000" x2="1.749" y2="1.000" />
<line x1="1.771" y1="0.000" x2="1.771" y2="-1.000" />
<line x1="1.793" y1="0.000" x2="1.793" y2="1.000" />
<line x1="1.815" y1="0.000" x2="1.815" y2="-1.000" />
<line x1="1.837" y1="0.000" x2="1.837" y2="-1.000" />
<line x1="1.859" y1="0.000" x2="1.859" y2="1.000" />
<line x1="1.880" y1="0.000" x2="1.880" y2="1.000" />
<line x1="1.902" y1="0.000" x2="1.902" y2="-1.000" />
<line x1="1.924" y1="0.000" x2="1.924" y2="1.000" />
<line x1="1.946" y1="0.000" x2="1.946" y2="-1.000" />
<line x1="1.968" y1="0.000" x2="1.968" y2="1.000" />
<line x1="1.990" y1="0.000" x2="1.990" y2="1.000" />
<line x1="2.012" y1="0.000" x2="2.012" y2="-1.000" />
<line x1="2.033" y1="0.000" x2="2.033" y2="1.000" />
<line x1="2.055" y1="0.000" x2="2.055" y2="-1.000" />
<line x1="2.077" y1="0.000" x2="2.077" y2="1.000" />
<line x1="2.099" y1="0.000" x2="2.099" y2="1.000" />
<line x1="2.121" y1="0.000" x2="2.121" y2="1.000" />
<line x1="2.143" y1="0.000" x2="2.143" y2="-1.000" />
<line x1="2.165" y1="0.000" x2="2.165" y2="-1.000" />
<line x1="2.187" y1="0.000" x2="2.187" y2="-1.000" />
<line x1="2.208" y1="0.000" x2="2.208" y2="1.000" />
<line x1="2.230" y1="0.000" x2="2.230" y2="1.000" />
<line x1="2.252" y1="0.000" x2="2.252" y2="1.000" />
<line x1="2.274" y1="0.000" x2="2.274" y2="-1.000" />
<line x1="2.296" y1="0.000" x2="2.296" y2="-1.000" />
<line x1="2.318" y1="0.000" x2="2.318" y2="1.000" />
<line x1="2.340" y1="0.000" x2="2.340" y2="1.000" />
<line x1="2.361" y1="0.000" x2="2.361" y2="1.000" />
<line x1="2.383" y1="0.000" x2="2.383" y2="-1.000" />
<line x1="2.405" y1="0.000" x2="2.405" y2="-1.000" />
<line x1="2.427" y1="0.000" x2="2.427" y2="-1.000" />
<line x1="2.449" y1="0.000" x2="2.449" y2="1.000" />
<line x1="2.471" y1="0.000" x2="2.471" y2="-1.000" />
<line x1="2.493" y1="0.000" x2="2.493" y2="-1.000" />
<line x1="2.515" y1="0.000" x2="2.515" y2="1.000" />
<line x1="2.536" y1="0.000" x2="2.536" y2="-1.000" />
<line x1="2.558" y1="0.000" x2="2.558" y2="1.000" />
<line x1="2.580" y1="0.000" x2="2.580" y2="1.000" />
<line x1="2.602" y1="0.000" x2="2.602" y2="1.000" />
<line x1="2.624" y1="0.000" x2="2.624" y2="-1.000" />
<line x1="2.646" y1="0.000" x2="2.646" y2="-1.000" />
<line x1="2.668" y1="0.000" x2="2.668" y2="1.000" />
<line x1="2.689" y1="0.000" x2="2.689" y2="1.000" />
<line x1="2.711" y1="0.000" x2="2.711" y2="-1.000" />
<line x1="2.733" y1="0.000" x2="2.733" y2="1.000" />
<line x1="2.755" y1="0.000" x2="2.755" y2="-1.000" />
<line x1="2.777" y1="0.000" x2="2.777" y2="1.000" />
<line x1="2.799" y1="0.000" x2="2.799" y2="-1.000" />
<line x1="2.821" y1="0.000" x2="2.821" y2="-1.000" />
<line x1="2.842" y1="0.000" x2="2.842" y2="-1.000" />
<line x1="2.864" y1="0.000" x2="2.864" y2="1.000" />
<line x1="2.886" y1="0.000" x2="2.886" y2="-1.000" />
<line x1="2.908" y1="0.000" x2="2.908" y2="-1.000" />
<line x1="2.930" y1="0.000" x2="2.930" y2="1.000" />
<line x1="2.952" y1="0.000" x2="2.952" y2="-1.000" />
<line x1="2.974" y1="0.000" x2="2.974" y2="1.000" />
<line x1="2.996" y1="0.000" x2="2.996" y2="-1.000" />
<line x1="3.017" y1="0.000" x2="3.017" y2="1.000" />
<line x1="3.039" y1="0.000" x2="3.039" y2="1.000" />
<line x1="3.061" y1="0.000" x2="3.061" y2="-1.000" />
<line x1="3.083" y1="0.000" x2="3.083" y2="1.000" />
<line x1="3.105" y1="0.000" x2="3.105" y2="-1.000" />
<line x1="3.127" y1="0.000" x2="3.127" y2="1.000" />
<line x1="3.149" y1="0.000" x2="3.149" y2="-1.000" />
<line x1="3.170" y1="0.000" x2="3.170" y2="1.000" />
<line x1="3.192" y1="0.000" x2="3.192" y2="-1.000" />
<line x1="3.214" y1="0.000" x2="3.214" y2="1.000" />
<line x1="3.236" y1="0.000" x2="3.236" y2="-1.000" />
<line x1="3.258" y1="0.000" x2="3.258" y2="1.000" />
</g>
</svg>