<svg xmlns="http://www.w3.org/2000/svg" width="160.1" height="100.0" viewBox="0.3 -5.0 170.1 110.0">
<g fill="none" stroke="black" stroke-width="0.9700%" transform="translate(0, 100.0000) scale(0.5155, -0.5155)">
<line x1="10.4" y1="0.0" x2="10.4" y2="2.0" />
<line x1="20.7" y1="0.0" x2="20.7" y2="5.0" />
<line x1="31.1" y1="0.0" x2="31.1" y2="6.0" />
<line x1="41.4" y1="0.0" x2="41.4" y2="9.0" />
<line x1="51.8" y1="0.0" x2="51.8" y2="14.0" />
<line x1="62.1" y1="0.0" x2="62.1" y2="18.0" />
<line x1="72.5" y1="0.0" x2="72.5" y2="26.0" />
<line x1="82.8" y1="0.0" x2="82.8" y2="29.0" />
<line x1="93.2" y1="0.0" x2="93.2" y2="30.0" />
<line x1="103.6" y1="0.0" x2="103.6" y2="33.0" />
<line x1="113.9" y1="0.0" x2="113.9" y2="41.0" />
<line x1="124.3" y1="0.0" x2="124.3" y2="50.0" />
<line x1="134.6" y1="0.0" x2="134.6" y2="53.0" />
<line x1="145.0" y1="0.0" x2="145.0" y2="65.0" />
<line x1="155.3" y1="0.0" x2="155.3" y2="69.0" />
<line x1="165.7" y1="0.0" x2="165.7" y2="74.0" />
<line x1="176.0" y1="0.0" x2="176.0" y2="81.0" />
<line x1="186.4" y1="0.0" x2="186.4" y2="86.0" />
<line x1="196.8" y1="0.0" x2="196.8" y2="89.0" />
<line x1="207.1" y1="0.0" x2="207.1" y2="90.0" />
<line x1="217.5" y1="0.0" x2="217.5" y2="98.0" />
<line x1="227.8" y1="0.0" x2="227.8" y2="105.0" />
<line x1="238.2" y1="0.0" x2="238.2" y2="113.0" />
<line x1="248.5" y1="0.0" x2="248.5" y2="134.0" />
<line x1="258.9" y1="0.0" x2="258.9" y2="146.0" />
<line x1="269.2" y1="0.0" x2="269.2" y2="158.0" />
<line x1="279.6" y1="0.0" x2="279.6" y2="173.0" />
<line x1="290.0" y1="0.0" x2="290.0" y2="174.0" />
<line x1="300.3" y1="0.0" x2="300.3" y2="186.0" />
<line x1="310.7" y1="0.0" x2="310.7" y2="189.0" />
<line x1="321.0" y1="0.0" x2="321.0" y2="194.0" />
</g>
</svg>