<svg xmlns="http://www.w3.org/2000/svg" width="161.8" height="100.0" viewBox="-3.8 -5.0 171.8 110.0">
<g fill="none" stroke="black" stroke-width="0.4350%" transform="translate(0, 100.0000) scale(1.1494, -1.1494)">
<circle cx="1.1" cy="0.0" r="0.4" />
<circle cx="2.1" cy="1.0" r="0.4" />
<circle cx="3.2" cy="2.0" r="0.4" />
<circle cx="4.2" cy="3.0" r="0.4" />
<circle cx="5.3" cy="1.0" r="0.4" />
<circle cx="6.3" cy="1.0" r="0.4" />
<circle cx="7.4" cy="3.0" r="0.4" />
<circle cx="8.4" cy="3.0" r="0.4" />
<circle cx="9.5" cy="5.0" r="0.4" />
<circle cx="10.5" cy="9.0" r="0.4" />
<circle cx="11.6" cy="9.0" r="0.4" />
<circle cx="12.6" cy="1.0" r="0.4" />
<circle cx="13.7" cy="2.0" r="0.4" />
<circle cx="14.7" cy="1.0" r="0.4" />
<circle cx="15.8" cy="2.0" r="0.4" />
<circle cx="16.8" cy="5.0" r="0.4" />
<circle cx="17.9" cy="8.0" r="0.4" />
<circle cx="18.9" cy="7.0" r="0.4" />
<circle cx="20.0" cy="10.0" r="0.4" />
<circle cx="21.0" cy="11.0" r="0.4" />
<circle cx="22.1" cy="10.0" r="0.4" />
<circle cx="23.1" cy="13.0" r="0.4" />
<circle cx="24.2" cy="14.0" r="0.4" />
<circle cx="25.2" cy="17.0" r="0.4" />
<circle cx="26.3" cy="22.0" r="0.4" />
<circle cx="27.3" cy="23.0" r="0.4" />
<circle cx="28.4" cy="22.0" r="0.4" />
<circle cx="29.4" cy="23.0" r="0.4" />
<circle cx="30.5" cy="22.0" r="0.4" />
<circle cx="31.5" cy="23.0" r="0.4" />
<circle cx="32.6" cy="3.0" r="0.4" />
<circle cx="33.6" cy="3.0" r="0.4" />
<circle cx="34.7" cy="5.0" r="0.4" />
<circle cx="35.7" cy="3.0" r="0.4" />
<circle cx="36.8" cy="9.0" r="0.4" />
<circle cx="37.8" cy="7.0" r="0.4" />
<circle cx="38.9" cy="9.0" r="0.4" />
<circle cx="39.9" cy="11.0" r="0.4" />
<circle cx="41.0" cy="11.0" r="0.4" />
<circle cx="42.0" cy="13.0" r="0.4" />
<circle cx="43.1" cy="15.0" r="0.4" />
<circle cx="44.1" cy="13.0" r="0.4" />
<circle cx="45.2" cy="19.0" r="0.4" />
<circle cx="46.2" cy="17.0" r="0.4" />
<circle cx="47.3" cy="17.0" r="0.4" />
<circle cx="48.3" cy="15.0" r="0.4" />
<circle cx="49.4" cy="23.0" r="0.4" />
<circle cx="50.4" cy="31.0" r="0.4" />
<circle cx="51.5" cy="31.0" r="0.4" />
<circle cx="52.5" cy="29.0" r="0.4" />
<circle cx="53.6" cy="29.0" r="0.4" />
<circle cx="54.6" cy="31.0" r="0.4" />
<circle cx="55.7" cy="29.0" r="0.4" />
<circle cx="56.7" cy="35.0" r="0.4" />
<circle cx="57.8" cy="37.0" r="0.4" />
<circle cx="58.8" cy="39.0" r="0.4" />
<circle cx="59.9" cy="41.0" r="0.4" />
<circle cx="60.9" cy="39.0" r="0.4" />
<circle cx="62.0" cy="41.0" r="0.4" />
<circle cx="63.0" cy="41.0" r="0.4" />
<circle cx="64.1" cy="39.0" r="0.4" />
<circle cx="65.1" cy="45.0" r="0.4" />
<circle cx="66.2" cy="55.0" r="0.4" />
<circle cx="67.2" cy="55.0" r="0.4" />
<circle cx="68.3" cy="53.0" r="0.4" />
<circle cx="69.3" cy="53.0" r="0.4" />
<circle cx="70.4" cy="63.0" r="0.4" />
<circle cx="71.4" cy="65.0" r="0.4" />
<circle cx="72.5" cy="2.0" r="0.4" />
<circle cx="73.5" cy="69.0" r="0.4" />
<circle cx="74.6" cy="69.0" r="0.4" />
<circle cx="75.6" cy="71.0" r="0.4" />
<circle cx="76.7" cy="2.0" r="0.4" />
<circle cx="77.7" cy="3.0" r="0.4" />
<circle cx="78.8" cy="4.0" r="0.4" />
<circle cx="79.8" cy="3.0" r="0.4" />
<circle cx="80.9" cy="4.0" r="0.4" />
<circle cx="81.9" cy="7.0" r="0.4" />
<circle cx="83.0" cy="6.0" r="0.4" />
<circle cx="84.0" cy="9.0" r="0.4" />
<circle cx="85.1" cy="14.0" r="0.4" />
<circle cx="86.1" cy="11.0" r="0.4" />
<circle cx="87.2" cy="16.0" r="0.4" />
<circle cx="88.2" cy="13.0" r="0.4" />
<circle cx="89.3" cy="14.0" r="0.4" />
<circle cx="90.3" cy="13.0" r="0.4" />
<circle cx="91.4" cy="14.0" r="0.4" />
<circle cx="92.4" cy="17.0" r="0.4" />
<circle cx="93.5" cy="16.0" r="0.4" />
<circle cx="94.5" cy="13.0" r="0.4" />
<circle cx="95.6" cy="12.0" r="0.4" />
<circle cx="96.6" cy="19.0" r="0.4" />
<circle cx="97.7" cy="22.0" r="0.4" />
<circle cx="98.7" cy="21.0" r="0.4" />
<circle cx="99.8" cy="24.0" r="0.4" />
<circle cx="100.8" cy="23.0" r="0.4" />
<circle cx="101.9" cy="24.0" r="0.4" />
<circle cx="103.0" cy="31.0" r="0.4" />
<circle cx="104.0" cy="28.0" r="0.4" />
<circle cx="105.1" cy="41.0" r="0.4" />
<circle cx="106.1" cy="42.0" r="0.4" />
<circle cx="107.2" cy="47.0" r="0.4" />
<circle cx="108.2" cy="48.0" r="0.4" />
<circle cx="109.3" cy="49.0" r="0.4" />
<circle cx="110.3" cy="46.0" r="0.4" />
<circle cx="111.4" cy="47.0" r="0.4" />
<circle cx="112.4" cy="52.0" r="0.4" />
<circle cx="113.5" cy="53.0" r="0.4" />
<circle cx="114.5" cy="54.0" r="0.4" />
<circle cx="115.6" cy="51.0" r="0.4" />
<circle cx="116.6" cy="52.0" r="0.4" />
<circle cx="117.7" cy="53.0" r="0.4" />
<circle cx="118.7" cy="52.0" r="0.4" />
<circle cx="119.8" cy="49.0" r="0.4" />
<circle cx="120.8" cy="56.0" r="0.4" />
<circle cx="121.9" cy="61.0" r="0.4" />
<circle cx="122.9" cy="58.0" r="0.4" />
<circle cx="124.0" cy="57.0" r="0.4" />
<circle cx="125.0" cy="58.0" r="0.4" />
<circle cx="126.1" cy="59.0" r="0.4" />
<circle cx="127.1" cy="56.0" r="0.4" />
<circle cx="128.2" cy="63.0" r="0.4" />
<circle cx="129.2" cy="62.0" r="0.4" />
<circle cx="130.3" cy="63.0" r="0.4" />
<circle cx="131.3" cy="66.0" r="0.4" />
<circle cx="132.4" cy="71.0" r="0.4" />
<circle cx="133.4" cy="74.0" r="0.4" />
<circle cx="134.5" cy="79.0" r="0.4" />
<circle cx="135.5" cy="82.0" r="0.4" />
<circle cx="136.6" cy="83.0" r="0.4" />
<circle cx="137.6" cy="84.0" r="0.4" />
<circle cx="138.7" cy="83.0" r="0.4" />
<circle cx="139.7" cy="86.0" r="0.4" />
<circle cx="140.8" cy="87.0" r="0.4" />
<circle cx="141.8" cy="86.0" r="0.4" />
</g>
</svg>