<svg xmlns="http://www.w3.org/2000/svg" width="161.8" height="100.0" viewBox="-3.07 -5.00 171.80 110.00">
<g fill="none" stroke="black" stroke-width="0.0300%" transform="translate(0, 100.0000) scale(16.6667, -16.6667)">
<polyline points="0.12,1.00 0.23,1.00 0.23,0.00 0.35,0.00 0.35,2.00 0.46,2.00 0.46,0.00 0.58,0.00 0.58,1.00 0.69,1.00 0.69,0.00 0.81,0.00 0.81,3.00 0.92,3.00 0.92,0.00 1.04,0.00 1.04,0.00 1.16,0.00 1.16,0.00 1.27,0.00 1.27,1.00 1.39,1.00 1.39,0.00 1.50,0.00 1.50,0.00 1.62,0.00 1.62,0.00 1.73,0.00 1.73,4.00 1.85,4.00 1.85,0.00 1.96,0.00 1.96,1.00 2.08,1.00 2.08,0.00 2.20,0.00 2.20,0.00 2.31,0.00 2.31,0.00 2.43,0.00 2.43,0.00 2.54,0.00 2.54,0.00 2.66,0.00 2.66,1.00 2.77,1.00 2.77,0.00 2.89,0.00 2.89,0.00 3.00,0.00 3.00,0.00 3.12,0.00 3.12,0.00 3.24,0.00 3.24,0.00 3.35,0.00 3.35,1.00 3.47,1.00 3.47,0.00 3.58,0.00 3.58,5.00 3.70,5.00 3.70,0.00 3.81,0.00 3.81,0.00 3.93,0.00 3.93,0.00 4.05,0.00 4.05,2.00 4.16,2.00 4.16,0.00 4.28,0.00 4.28,0.00 4.39,0.00 4.39,0.00 4.51,0.00 4.51,0.00 4.62,0.00 4.62,0.00 4.74,0.00 4.74,0.00 4.85,0.00 4.85,0.00 4.97,0.00 4.97,0.00 5.09,0.00 5.09,0.00 5.20,0.00 5.20,0.00 5.32,0.00 5.32,0.00 5.43,0.00 5.43,1.00 5.55,1.00 5.55,0.00 5.66,0.00 5.66,0.00 5.78,0.00 5.78,0.00 5.89,0.00 5.89,0.00 6.01,0.00 6.01,0.00 6.13,0.00 6.13,1.00 6.24,1.00 6.24,0.00 6.36,0.00 6.36,0.00 6.47,0.00 6.47,0.00 6.59,0.00 6.59,0.00 6.70,0.00 6.70,0.00 6.82,0.00 6.82,1.00 6.93,1.00 6.93,0.00 7.05,0.00 7.05,0.00 7.17,0.00 7.17,0.00 7.28,0.00 7.28,6.00 7.40,6.00 7.40,0.00 7.51,0.00 7.51,0.00 7.63,0.00 7.63,0.00 7.74,0.00 7.74,0.00 7.86,0.00 7.86,0.00 7.97,0.00 7.97,0.00 8.09,0.00 8.09,0.00 8.21,0.00 8.21,2.00 8.32,2.00 8.32,0.00 8.44,0.00 8.44,0.00 8.55,0.00 8.55,0.00 8.67,0.00 8.67,0.00 8.78,0.00 8.78,0.00 8.90,0.00 8.90,0.00 9.01,0.00 9.01,0.00 9.13,0.00 9.13,0.00 9.25,0.00 9.25,0.00 9.36,0.00 9.36,0.00 9.48,0.00 9.48,0.00 9.59,0.00 9.59,0.00 9.71,0.00 9.71,0.00 9.82,0.00" />
</g>
</svg>