<svg xmlns="http://www.w3.org/2000/svg" width="161.8" height="100.0" viewBox="-3.1 -39.3 171.8 110.0">
<g fill="none" stroke="black" stroke-width="0.1750%" transform="translate(0, 31.4286) scale(2.8571, -2.8571)">

<line x1="1.3" y1="0.0" x2="1.3" y2="1.0" />
<line x1="2.0" y1="0.0" x2="2.0" y2="2.0" />

<line x1="3.4" y1="0.0" x2="3.4" y2="3.0" />
<line x1="4.0" y1="0.0" x2="4.0" y2="-1.0" />
<line x1="4.7" y1="0.0" x2="4.7" y2="4.0" />
<line x1="5.4" y1="0.0" x2="5.4" y2="1.0" />

<line x1="6.7" y1="0.0" x2="6.7" y2="-2.0" />
<line x1="7.4" y1="0.0" x2="7.4" y2="5.0" />
<line x1="8.1" y1="0.0" x2="8.1" y2="2.0" />
<line x1="8.8" y1="0.0" x2="8.8" y2="6.0" />
<line x1="9.4" y1="0.0" x2="9.4" y2="-3.0" />
<line x1="10.1" y1="0.0" x2="10.1" y2="-1.0" />

<line x1="11.5" y1="0.0" x2="11.5" y2="7.0" />
<line x1="12.1" y1="0.0" x2="12.1" y2="1.0" />
<line x1="12.8" y1="0.0" x2="12.8" y2="8.0" />
<line x1="13.5" y1="0.0" x2="13.5" y2="3.0" />
<line x1="14.2" y1="0.0" x2="14.2" y2="-2.0" />
<line x1="14.8" y1="0.0" x2="14.8" y2="-4.0" />
<line x1="15.5" y1="0.0" x2="15.5" y2="9.0" />
<line x1="16.2" y1="0.0" x2="16.2" y2="-1.0" />

<line x1="17.5" y1="0.0" x2="17.5" y2="-5.0" />
<line x1="18.2" y1="0.0" x2="18.2" y2="2.0" />
<line x1="18.9" y1="0.0" x2="18.9" y2="4.0" />
<line x1="19.6" y1="0.0" x2="19.6" y2="10.0" />
<line x1="20.2" y1="0.0" x2="20.2" y2="2.0" />
<line x1="20.9" y1="0.0" x2="20.9" y2="11.0" />
<line x1="21.6" y1="0.0" x2="21.6" y2="1.0" />
<line x1="22.2" y1="0.0" x2="22.2" y2="-3.0" />
<line x1="22.9" y1="0.0" x2="22.9" y2="-6.0" />
<line x1="23.6" y1="0.0" x2="23.6" y2="-1.0" />

<line x1="24.9" y1="0.0" x2="24.9" y2="12.0" />
<line x1="25.6" y1="0.0" x2="25.6" y2="-7.0" />
<line x1="26.3" y1="0.0" x2="26.3" y2="-4.0" />
<line x1="27.0" y1="0.0" x2="27.0" y2="-2.0" />
<line x1="27.6" y1="0.0" x2="27.6" y2="13.0" />
<line x1="28.3" y1="0.0" x2="28.3" y2="3.0" />
<line x1="29.0" y1="0.0" x2="29.0" y2="14.0" />
<line x1="29.7" y1="0.0" x2="29.7" y2="5.0" />
<line x1="30.3" y1="0.0" x2="30.3" y2="3.0" />
<line x1="31.0" y1="0.0" x2="31.0" y2="-8.0" />
<line x1="31.7" y1="0.0" x2="31.7" y2="15.0" />
<line x1="32.4" y1="0.0" x2="32.4" y2="2.0" />

<line x1="33.7" y1="0.0" x2="33.7" y2="1.0" />
<line x1="34.4" y1="0.0" x2="34.4" y2="-5.0" />
<line x1="35.1" y1="0.0" x2="35.1" y2="6.0" />
<line x1="35.7" y1="0.0" x2="35.7" y2="16.0" />
<line x1="36.4" y1="0.0" x2="36.4" y2="-1.0" />
<line x1="37.1" y1="0.0" x2="37.1" y2="-2.0" />
<line x1="37.8" y1="0.0" x2="37.8" y2="-3.0" />
<line x1="38.4" y1="0.0" x2="38.4" y2="-6.0" />
<line x1="39.1" y1="0.0" x2="39.1" y2="-9.0" />
<line x1="39.8" y1="0.0" x2="39.8" y2="17.0" />
<line x1="40.5" y1="0.0" x2="40.5" y2="-1.0" />
<line x1="41.1" y1="0.0" x2="41.1" y2="18.0" />
<line x1="41.8" y1="0.0" x2="41.8" y2="-10.0" />
<line x1="42.5" y1="0.0" x2="42.5" y2="4.0" />

<line x1="43.8" y1="0.0" x2="43.8" y2="-3.0" />
<line x1="44.5" y1="0.0" x2="44.5" y2="4.0" />
<line x1="45.2" y1="0.0" x2="45.2" y2="19.0" />
<line x1="45.8" y1="0.0" x2="45.8" y2="7.0" />
<line x1="46.5" y1="0.0" x2="46.5" y2="-7.0" />
<line x1="47.2" y1="0.0" x2="47.2" y2="2.0" />
<line x1="47.9" y1="0.0" x2="47.9" y2="20.0" />
<line x1="48.5" y1="0.0" x2="48.5" y2="1.0" />
<line x1="49.2" y1="0.0" x2="49.2" y2="21.0" />
<line x1="49.9" y1="0.0" x2="49.9" y2="-11.0" />
<line x1="50.6" y1="0.0" x2="50.6" y2="2.0" />
<line x1="51.2" y1="0.0" x2="51.2" y2="8.0" />
<line x1="51.9" y1="0.0" x2="51.9" y2="-1.0" />
<line x1="52.6" y1="0.0" x2="52.6" y2="5.0" />
<line x1="53.3" y1="0.0" x2="53.3" y2="22.0" />
<line x1="53.9" y1="0.0" x2="53.9" y2="3.0" />

<line x1="55.3" y1="0.0" x2="55.3" y2="-12.0" />
<line x1="56.0" y1="0.0" x2="56.0" y2="23.0" />
<line x1="56.6" y1="0.0" x2="56.6" y2="-2.0" />
<line x1="57.3" y1="0.0" x2="57.3" y2="-4.0" />
</g>
</svg>