<svg xmlns="http://www.w3.org/2000/svg" width="161.8" height="100.0" viewBox="-3.652 -5.000 171.803 110.000">
<g fill="none" stroke="black" stroke-width="0.0050%" transform="translate(0, 100.0000) scale(100.0000, -100.0000)">
<line x1="0.013" y1="0.000" x2="0.013" y2="1.000" />







<line x1="0.121" y1="0.000" x2="0.121" y2="1.000" />





<line x1="0.202" y1="0.000" x2="0.202" y2="1.000" />





<line x1="0.283" y1="0.000" x2="0.283" y2="1.000" />



<line x1="0.337" y1="0.000" x2="0.337" y2="1.000" />







<line x1="0.445" y1="0.000" x2="0.445" y2="1.000" />

<line x1="0.472" y1="0.000" x2="0.472" y2="1.000" />



<line x1="0.526" y1="0.000" x2="0.526" y2="1.000" />









<line x1="0.661" y1="0.000" x2="0.661" y2="1.000" />

<line x1="0.688" y1="0.000" x2="0.688" y2="1.000" />



<line x1="0.742" y1="0.000" x2="0.742" y2="1.000" />

<line x1="0.769" y1="0.000" x2="0.769" y2="1.000" />







<line x1="0.876" y1="0.000" x2="0.876" y2="1.000" />



<line x1="0.930" y1="0.000" x2="0.930" y2="1.000" />







<line x1="1.038" y1="0.000" x2="1.038" y2="1.000" />



<line x1="1.092" y1="0.000" x2="1.092" y2="1.000" />



<line x1="1.146" y1="0.000" x2="1.146" y2="1.000" />

<line x1="1.173" y1="0.000" x2="1.173" y2="1.000" />



<line x1="1.227" y1="0.000" x2="1.227" y2="1.000" />

<line x1="1.254" y1="0.000" x2="1.254" y2="1.000" />

<line x1="1.281" y1="0.000" x2="1.281" y2="1.000" />















<line x1="1.497" y1="0.000" x2="1.497" y2="1.000" />



<line x1="1.551" y1="0.000" x2="1.551" y2="1.000" />



<line x1="1.605" y1="0.000" x2="1.605" y2="1.000" />

<line x1="1.632" y1="0.000" x2="1.632" y2="1.000" />
</g>
</svg>