<svg xmlns="http://www.w3.org/2000/svg" width="161.8" height="100.0" viewBox="-3.914 -5.000 171.803 110.000">
<g fill="none" stroke="black" stroke-width="0.0150%" transform="translate(0, 100.0000) scale(33.3333, -33.3333)">




<line x1="0.163" y1="0.000" x2="0.163" y2="1.000" />




<line x1="0.326" y1="0.000" x2="0.326" y2="1.000" />


<line x1="0.424" y1="0.000" x2="0.424" y2="1.000" />

<line x1="0.489" y1="0.000" x2="0.489" y2="1.000" />

<line x1="0.554" y1="0.000" x2="0.554" y2="1.000" />


<line x1="0.652" y1="0.000" x2="0.652" y2="1.000" />




<line x1="0.814" y1="0.000" x2="0.814" y2="2.000" />
<line x1="0.847" y1="0.000" x2="0.847" y2="1.000" />


<line x1="0.945" y1="0.000" x2="0.945" y2="1.000" />
<line x1="0.977" y1="0.000" x2="0.977" y2="1.000" />



<line x1="1.108" y1="0.000" x2="1.108" y2="1.000" />
<line x1="1.140" y1="0.000" x2="1.140" y2="1.000" />

<line x1="1.205" y1="0.000" x2="1.205" y2="1.000" />

<line x1="1.271" y1="0.000" x2="1.271" y2="1.000" />
<line x1="1.303" y1="0.000" x2="1.303" y2="1.000" />
<line x1="1.336" y1="0.000" x2="1.336" y2="1.000" />



<line x1="1.466" y1="0.000" x2="1.466" y2="1.000" />




<line x1="1.629" y1="0.000" x2="1.629" y2="2.000" />
<line x1="1.661" y1="0.000" x2="1.661" y2="1.000" />
<line x1="1.694" y1="0.000" x2="1.694" y2="1.000" />
<line x1="1.727" y1="0.000" x2="1.727" y2="1.000" />

<line x1="1.792" y1="0.000" x2="1.792" y2="1.000" />


<line x1="1.890" y1="0.000" x2="1.890" y2="1.000" />

<line x1="1.955" y1="0.000" x2="1.955" y2="1.000" />
<line x1="1.987" y1="0.000" x2="1.987" y2="1.000" />



<line x1="2.118" y1="0.000" x2="2.118" y2="2.000" />


<line x1="2.215" y1="0.000" x2="2.215" y2="1.000" />

<line x1="2.280" y1="0.000" x2="2.280" y2="1.000" />


<line x1="2.378" y1="0.000" x2="2.378" y2="1.000" />
<line x1="2.411" y1="0.000" x2="2.411" y2="1.000" />
<line x1="2.443" y1="0.000" x2="2.443" y2="2.000" />


<line x1="2.541" y1="0.000" x2="2.541" y2="1.000" />

<line x1="2.606" y1="0.000" x2="2.606" y2="1.000" />

<line x1="2.671" y1="0.000" x2="2.671" y2="1.000" />


<line x1="2.769" y1="0.000" x2="2.769" y2="2.000" />

<line x1="2.834" y1="0.000" x2="2.834" y2="1.000" />

<line x1="2.899" y1="0.000" x2="2.899" y2="1.000" />
<line x1="2.932" y1="0.000" x2="2.932" y2="1.000" />
<line x1="2.965" y1="0.000" x2="2.965" y2="1.000" />



<line x1="3.095" y1="0.000" x2="3.095" y2="1.000" />

<line x1="3.160" y1="0.000" x2="3.160" y2="1.000" />


<line x1="3.258" y1="0.000" x2="3.258" y2="2.000" />
<line x1="3.290" y1="0.000" x2="3.290" y2="1.000" />
<line x1="3.323" y1="0.000" x2="3.323" y2="1.000" />

<line x1="3.388" y1="0.000" x2="3.388" y2="1.000" />
<line x1="3.421" y1="0.000" x2="3.421" y2="1.000" />
<line x1="3.453" y1="0.000" x2="3.453" y2="1.000" />


<line x1="3.551" y1="0.000" x2="3.551" y2="1.000" />
<line x1="3.584" y1="0.000" x2="3.584" y2="1.000" />
<line x1="3.616" y1="0.000" x2="3.616" y2="1.000" />

<line x1="3.681" y1="0.000" x2="3.681" y2="1.000" />

<line x1="3.746" y1="0.000" x2="3.746" y2="1.000" />
<line x1="3.779" y1="0.000" x2="3.779" y2="1.000" />
<line x1="3.812" y1="0.000" x2="3.812" y2="1.000" />

<line x1="3.877" y1="0.000" x2="3.877" y2="1.000" />
<line x1="3.909" y1="0.000" x2="3.909" y2="1.000" />

<line x1="3.974" y1="0.000" x2="3.974" y2="1.000" />
<line x1="4.007" y1="0.000" x2="4.007" y2="1.000" />

<line x1="4.072" y1="0.000" x2="4.072" y2="3.000" />




<line x1="4.235" y1="0.000" x2="4.235" y2="2.000" />




<line x1="4.398" y1="0.000" x2="4.398" y2="1.000" />
<line x1="4.431" y1="0.000" x2="4.431" y2="1.000" />
<line x1="4.463" y1="0.000" x2="4.463" y2="1.000" />


<line x1="4.561" y1="0.000" x2="4.561" y2="1.000" />


<line x1="4.659" y1="0.000" x2="4.659" y2="1.000" />

<line x1="4.724" y1="0.000" x2="4.724" y2="2.000" />
<line x1="4.756" y1="0.000" x2="4.756" y2="1.000" />

<line x1="4.822" y1="0.000" x2="4.822" y2="1.000" />
<line x1="4.854" y1="0.000" x2="4.854" y2="1.000" />
<line x1="4.887" y1="0.000" x2="4.887" y2="2.000" />
</g>
</svg>