<svg xmlns="http://www.w3.org/2000/svg" width="161.8" height="100.0" viewBox="-4.46 8.90 171.80 110.00">
<g fill="none" stroke="black" stroke-width="0.0249%" transform="translate(0, 127.7980) scale(20.0520, -20.0520)">
<circle cx="0.03" cy="0.69" r="0.02" />
<circle cx="0.05" cy="1.10" r="0.02" />
<circle cx="0.08" cy="0.69" r="0.02" />
<circle cx="0.11" cy="1.61" r="0.02" />
<circle cx="0.14" cy="0.69" r="0.02" />
<circle cx="0.16" cy="1.95" r="0.02" />
<circle cx="0.19" cy="0.69" r="0.02" />
<circle cx="0.22" cy="1.10" r="0.02" />
<circle cx="0.24" cy="0.69" r="0.02" />
<circle cx="0.27" cy="2.40" r="0.02" />
<circle cx="0.30" cy="0.69" r="0.02" />
<circle cx="0.32" cy="2.56" r="0.02" />
<circle cx="0.35" cy="0.69" r="0.02" />
<circle cx="0.38" cy="1.10" r="0.02" />
<circle cx="0.41" cy="0.69" r="0.02" />
<circle cx="0.43" cy="2.83" r="0.02" />
<circle cx="0.46" cy="0.69" r="0.02" />
<circle cx="0.49" cy="2.94" r="0.02" />
<circle cx="0.51" cy="0.69" r="0.02" />
<circle cx="0.54" cy="1.10" r="0.02" />
<circle cx="0.57" cy="0.69" r="0.02" />
<circle cx="0.60" cy="3.14" r="0.02" />
<circle cx="0.62" cy="0.69" r="0.02" />
<circle cx="0.65" cy="1.61" r="0.02" />
<circle cx="0.68" cy="0.69" r="0.02" />
<circle cx="0.70" cy="1.10" r="0.02" />
<circle cx="0.73" cy="0.69" r="0.02" />
<circle cx="0.76" cy="3.37" r="0.02" />
<circle cx="0.79" cy="0.69" r="0.02" />
<circle cx="0.81" cy="3.43" r="0.02" />
<circle cx="0.84" cy="0.69" r="0.02" />
<circle cx="0.87" cy="1.10" r="0.02" />
<circle cx="0.89" cy="0.69" r="0.02" />
<circle cx="0.92" cy="1.61" r="0.02" />
<circle cx="0.95" cy="0.69" r="0.02" />
<circle cx="0.97" cy="3.61" r="0.02" />
<circle cx="1.00" cy="0.69" r="0.02" />
<circle cx="1.03" cy="1.10" r="0.02" />
<circle cx="1.06" cy="0.69" r="0.02" />
<circle cx="1.08" cy="3.71" r="0.02" />
<circle cx="1.11" cy="0.69" r="0.02" />
<circle cx="1.14" cy="3.76" r="0.02" />
<circle cx="1.16" cy="0.69" r="0.02" />
<circle cx="1.19" cy="1.10" r="0.02" />
<circle cx="1.22" cy="0.69" r="0.02" />
<circle cx="1.25" cy="3.85" r="0.02" />
<circle cx="1.27" cy="0.69" r="0.02" />
<circle cx="1.30" cy="1.95" r="0.02" />
<circle cx="1.33" cy="0.69" r="0.02" />
<circle cx="1.35" cy="1.10" r="0.02" />
<circle cx="1.38" cy="0.69" r="0.02" />
<circle cx="1.41" cy="3.97" r="0.02" />
<circle cx="1.44" cy="0.69" r="0.02" />
<circle cx="1.46" cy="1.61" r="0.02" />
<circle cx="1.49" cy="0.69" r="0.02" />
<circle cx="1.52" cy="1.10" r="0.02" />
<circle cx="1.54" cy="0.69" r="0.02" />
<circle cx="1.57" cy="4.08" r="0.02" />
<circle cx="1.60" cy="0.69" r="0.02" />
<circle cx="1.62" cy="4.11" r="0.02" />
<circle cx="1.65" cy="0.69" r="0.02" />
<circle cx="1.68" cy="1.10" r="0.02" />
<circle cx="1.71" cy="0.69" r="0.02" />
<circle cx="1.73" cy="1.61" r="0.02" />
<circle cx="1.76" cy="0.69" r="0.02" />
<circle cx="1.79" cy="4.20" r="0.02" />
<circle cx="1.81" cy="0.69" r="0.02" />
<circle cx="1.84" cy="1.10" r="0.02" />
<circle cx="1.87" cy="0.69" r="0.02" />
<circle cx="1.90" cy="4.26" r="0.02" />
<circle cx="1.92" cy="0.69" r="0.02" />
<circle cx="1.95" cy="4.29" r="0.02" />
<circle cx="1.98" cy="0.69" r="0.02" />
<circle cx="2.00" cy="1.10" r="0.02" />
<circle cx="2.03" cy="0.69" r="0.02" />
<circle cx="2.06" cy="1.95" r="0.02" />
<circle cx="2.08" cy="0.69" r="0.02" />
<circle cx="2.11" cy="4.37" r="0.02" />
<circle cx="2.14" cy="0.69" r="0.02" />
<circle cx="2.17" cy="1.10" r="0.02" />
<circle cx="2.19" cy="0.69" r="0.02" />
<circle cx="2.22" cy="4.42" r="0.02" />
<circle cx="2.25" cy="0.69" r="0.02" />
<circle cx="2.27" cy="1.61" r="0.02" />
<circle cx="2.30" cy="0.69" r="0.02" />
<circle cx="2.33" cy="1.10" r="0.02" />
<circle cx="2.36" cy="0.69" r="0.02" />
<circle cx="2.38" cy="4.49" r="0.02" />
<circle cx="2.41" cy="0.69" r="0.02" />
<circle cx="2.44" cy="1.95" r="0.02" />
<circle cx="2.46" cy="0.69" r="0.02" />
<circle cx="2.49" cy="1.10" r="0.02" />
<circle cx="2.52" cy="0.69" r="0.02" />
<circle cx="2.55" cy="1.61" r="0.02" />
<circle cx="2.57" cy="0.69" r="0.02" />
<circle cx="2.60" cy="4.57" r="0.02" />
<circle cx="2.63" cy="0.69" r="0.02" />
<circle cx="2.65" cy="1.10" r="0.02" />
<circle cx="2.68" cy="0.69" r="0.02" />
<circle cx="2.71" cy="4.62" r="0.02" />
<circle cx="2.73" cy="0.69" r="0.02" />
<circle cx="2.76" cy="4.63" r="0.02" />
<circle cx="2.79" cy="0.69" r="0.02" />
<circle cx="2.82" cy="1.10" r="0.02" />
<circle cx="2.84" cy="0.69" r="0.02" />
<circle cx="2.87" cy="4.67" r="0.02" />
<circle cx="2.90" cy="0.69" r="0.02" />
<circle cx="2.92" cy="4.69" r="0.02" />
<circle cx="2.95" cy="0.69" r="0.02" />
<circle cx="2.98" cy="1.10" r="0.02" />
<circle cx="3.01" cy="0.69" r="0.02" />
<circle cx="3.03" cy="4.73" r="0.02" />
<circle cx="3.06" cy="0.69" r="0.02" />
<circle cx="3.09" cy="1.61" r="0.02" />
<circle cx="3.11" cy="0.69" r="0.02" />
<circle cx="3.14" cy="1.10" r="0.02" />
<circle cx="3.17" cy="0.69" r="0.02" />
<circle cx="3.20" cy="1.95" r="0.02" />
<circle cx="3.22" cy="0.69" r="0.02" />
<circle cx="3.25" cy="2.40" r="0.02" />
<circle cx="3.28" cy="0.69" r="0.02" />
<circle cx="3.30" cy="1.10" r="0.02" />
<circle cx="3.33" cy="0.69" r="0.02" />
<circle cx="3.36" cy="1.61" r="0.02" />
<circle cx="3.38" cy="0.69" r="0.02" />
<circle cx="3.41" cy="4.84" r="0.02" />
<circle cx="3.44" cy="0.69" r="0.02" />
<circle cx="3.47" cy="1.10" r="0.02" />
<circle cx="3.49" cy="0.69" r="0.02" />
<circle cx="3.52" cy="4.88" r="0.02" />
<circle cx="3.55" cy="0.69" r="0.02" />
<circle cx="3.57" cy="1.95" r="0.02" />
<circle cx="3.60" cy="0.69" r="0.02" />
<circle cx="3.63" cy="1.10" r="0.02" />
<circle cx="3.66" cy="0.69" r="0.02" />
<circle cx="3.68" cy="4.92" r="0.02" />
<circle cx="3.71" cy="0.69" r="0.02" />
<circle cx="3.74" cy="4.93" r="0.02" />
<circle cx="3.76" cy="0.69" r="0.02" />
<circle cx="3.79" cy="1.10" r="0.02" />
<circle cx="3.82" cy="0.69" r="0.02" />
<circle cx="3.85" cy="2.40" r="0.02" />
<circle cx="3.87" cy="0.69" r="0.02" />
<circle cx="3.90" cy="1.61" r="0.02" />
<circle cx="3.93" cy="0.69" r="0.02" />
<circle cx="3.95" cy="1.10" r="0.02" />
<circle cx="3.98" cy="0.69" r="0.02" />
<circle cx="4.01" cy="5.00" r="0.02" />
<circle cx="4.03" cy="0.69" r="0.02" />
<circle cx="4.06" cy="5.02" r="0.02" />
<circle cx="4.09" cy="0.69" r="0.02" />
<circle cx="4.12" cy="1.10" r="0.02" />
<circle cx="4.14" cy="0.69" r="0.02" />
<circle cx="4.17" cy="1.61" r="0.02" />
<circle cx="4.20" cy="0.69" r="0.02" />
<circle cx="4.22" cy="5.06" r="0.02" />
<circle cx="4.25" cy="0.69" r="0.02" />
<circle cx="4.28" cy="1.10" r="0.02" />
<circle cx="4.31" cy="0.69" r="0.02" />
<circle cx="4.33" cy="1.95" r="0.02" />
<circle cx="4.36" cy="0.69" r="0.02" />
<circle cx="4.39" cy="5.09" r="0.02" />
<circle cx="4.41" cy="0.69" r="0.02" />
<circle cx="4.44" cy="1.10" r="0.02" />
<circle cx="4.47" cy="0.69" r="0.02" />
<circle cx="4.49" cy="5.12" r="0.02" />
<circle cx="4.52" cy="0.69" r="0.02" />
<circle cx="4.55" cy="2.56" r="0.02" />
<circle cx="4.58" cy="0.69" r="0.02" />
<circle cx="4.60" cy="1.10" r="0.02" />
<circle cx="4.63" cy="0.69" r="0.02" />
<circle cx="4.66" cy="5.15" r="0.02" />
<circle cx="4.68" cy="0.69" r="0.02" />
<circle cx="4.71" cy="1.61" r="0.02" />
<circle cx="4.74" cy="0.69" r="0.02" />
<circle cx="4.77" cy="1.10" r="0.02" />
<circle cx="4.79" cy="0.69" r="0.02" />
<circle cx="4.82" cy="5.19" r="0.02" />
<circle cx="4.85" cy="0.69" r="0.02" />
<circle cx="4.87" cy="5.20" r="0.02" />
<circle cx="4.90" cy="0.69" r="0.02" />
<circle cx="4.93" cy="1.10" r="0.02" />
<circle cx="4.96" cy="0.69" r="0.02" />
<circle cx="4.98" cy="1.61" r="0.02" />
<circle cx="5.01" cy="0.69" r="0.02" />
<circle cx="5.04" cy="2.40" r="0.02" />
<circle cx="5.06" cy="0.69" r="0.02" />
<circle cx="5.09" cy="1.10" r="0.02" />
<circle cx="5.12" cy="0.69" r="0.02" />
<circle cx="5.14" cy="5.25" r="0.02" />
<circle cx="5.17" cy="0.69" r="0.02" />
<circle cx="5.20" cy="5.26" r="0.02" />
<circle cx="5.23" cy="0.69" r="0.02" />
<circle cx="5.25" cy="1.10" r="0.02" />
<circle cx="5.28" cy="0.69" r="0.02" />
<circle cx="5.31" cy="5.28" r="0.02" />
<circle cx="5.33" cy="0.69" r="0.02" />
<circle cx="5.36" cy="5.29" r="0.02" />
<circle cx="5.39" cy="0.69" r="0.02" />
<circle cx="5.42" cy="1.10" r="0.02" />
<circle cx="5.44" cy="0.69" r="0.02" />
<circle cx="5.47" cy="1.95" r="0.02" />
<circle cx="5.50" cy="0.69" r="0.02" />
<circle cx="5.52" cy="1.61" r="0.02" />
<circle cx="5.55" cy="0.69" r="0.02" />
<circle cx="5.58" cy="1.10" r="0.02" />
<circle cx="5.61" cy="0.69" r="0.02" />
<circle cx="5.63" cy="2.40" r="0.02" />
<circle cx="5.66" cy="0.69" r="0.02" />
<circle cx="5.69" cy="5.35" r="0.02" />
<circle cx="5.71" cy="0.69" r="0.02" />
<circle cx="5.74" cy="1.10" r="0.02" />
<circle cx="5.77" cy="0.69" r="0.02" />
<circle cx="5.79" cy="1.61" r="0.02" />
<circle cx="5.82" cy="0.69" r="0.02" />
<circle cx="5.85" cy="1.95" r="0.02" />
<circle cx="5.88" cy="0.69" r="0.02" />
<circle cx="5.90" cy="1.10" r="0.02" />
<circle cx="5.93" cy="0.69" r="0.02" />
<circle cx="5.96" cy="2.56" r="0.02" />
<circle cx="5.98" cy="0.69" r="0.02" />
<circle cx="6.01" cy="5.41" r="0.02" />
<circle cx="6.04" cy="0.69" r="0.02" />
<circle cx="6.07" cy="1.10" r="0.02" />
<circle cx="6.09" cy="0.69" r="0.02" />
<circle cx="6.12" cy="5.42" r="0.02" />
<circle cx="6.15" cy="0.69" r="0.02" />
<circle cx="6.17" cy="5.43" r="0.02" />
<circle cx="6.20" cy="0.69" r="0.02" />
<circle cx="6.23" cy="1.10" r="0.02" />
<circle cx="6.25" cy="0.69" r="0.02" />
<circle cx="6.28" cy="5.45" r="0.02" />
<circle cx="6.31" cy="0.69" r="0.02" />
<circle cx="6.34" cy="1.61" r="0.02" />
<circle cx="6.36" cy="0.69" r="0.02" />
<circle cx="6.39" cy="1.10" r="0.02" />
<circle cx="6.42" cy="0.69" r="0.02" />
<circle cx="6.44" cy="5.48" r="0.02" />
<circle cx="6.47" cy="0.69" r="0.02" />
<circle cx="6.50" cy="5.48" r="0.02" />
<circle cx="6.53" cy="0.69" r="0.02" />
<circle cx="6.55" cy="1.10" r="0.02" />
<circle cx="6.58" cy="0.69" r="0.02" />
<circle cx="6.61" cy="1.61" r="0.02" />
<circle cx="6.63" cy="0.69" r="0.02" />
<circle cx="6.66" cy="2.56" r="0.02" />
<circle cx="6.69" cy="0.69" r="0.02" />
<circle cx="6.72" cy="1.10" r="0.02" />
<circle cx="6.74" cy="0.69" r="0.02" />
<circle cx="6.77" cy="5.53" r="0.02" />
<circle cx="6.80" cy="0.69" r="0.02" />
<circle cx="6.82" cy="2.40" r="0.02" />
<circle cx="6.85" cy="0.69" r="0.02" />
<circle cx="6.88" cy="1.10" r="0.02" />
<circle cx="6.90" cy="0.69" r="0.02" />
<circle cx="6.93" cy="5.55" r="0.02" />
<circle cx="6.96" cy="0.69" r="0.02" />
<circle cx="6.99" cy="1.95" r="0.02" />
<circle cx="7.01" cy="0.69" r="0.02" />
<circle cx="7.04" cy="1.10" r="0.02" />
<circle cx="7.07" cy="0.69" r="0.02" />
<circle cx="7.09" cy="5.57" r="0.02" />
<circle cx="7.12" cy="0.69" r="0.02" />
<circle cx="7.15" cy="1.61" r="0.02" />
<circle cx="7.18" cy="0.69" r="0.02" />
<circle cx="7.20" cy="1.10" r="0.02" />
<circle cx="7.23" cy="0.69" r="0.02" />
<circle cx="7.26" cy="5.59" r="0.02" />
<circle cx="7.28" cy="0.69" r="0.02" />
<circle cx="7.31" cy="5.60" r="0.02" />
<circle cx="7.34" cy="0.69" r="0.02" />
<circle cx="7.37" cy="1.10" r="0.02" />
<circle cx="7.39" cy="0.69" r="0.02" />
<circle cx="7.42" cy="1.61" r="0.02" />
<circle cx="7.45" cy="0.69" r="0.02" />
<circle cx="7.47" cy="5.62" r="0.02" />
<circle cx="7.50" cy="0.69" r="0.02" />
<circle cx="7.53" cy="1.10" r="0.02" />
<circle cx="7.55" cy="0.69" r="0.02" />
<circle cx="7.58" cy="5.64" r="0.02" />
<circle cx="7.61" cy="0.69" r="0.02" />
<circle cx="7.64" cy="5.65" r="0.02" />
<circle cx="7.66" cy="0.69" r="0.02" />
<circle cx="7.69" cy="1.10" r="0.02" />
<circle cx="7.72" cy="0.69" r="0.02" />
<circle cx="7.74" cy="1.95" r="0.02" />
<circle cx="7.77" cy="0.69" r="0.02" />
<circle cx="7.80" cy="2.83" r="0.02" />
<circle cx="7.83" cy="0.69" r="0.02" />
<circle cx="7.85" cy="1.10" r="0.02" />
<circle cx="7.88" cy="0.69" r="0.02" />
<circle cx="7.91" cy="5.68" r="0.02" />
<circle cx="7.93" cy="0.69" r="0.02" />
<circle cx="7.96" cy="1.61" r="0.02" />
<circle cx="7.99" cy="0.69" r="0.02" />
<circle cx="8.02" cy="1.10" r="0.02" />
<circle cx="8.04" cy="0.69" r="0.02" />
<circle cx="8.07" cy="2.56" r="0.02" />
<circle cx="8.10" cy="0.69" r="0.02" />
</g>
</svg>