<svg xmlns="http://www.w3.org/2000/svg" width="161.8" height="100.0" viewBox="-3.382 45.000 171.803 110.000">
<g fill="none" stroke="black" stroke-width="0.0100%" transform="translate(0, 200.0000) scale(50.0000, -50.0000)">
<polyline points="0.032,1.000 0.065,1.000 0.065,1.000 0.097,1.000 0.097,1.000 0.129,1.000 0.129,1.000 0.162,1.000 0.162,1.000 0.194,1.000 0.194,2.000 0.227,2.000 0.227,1.000 0.259,1.000 0.259,1.000 0.291,1.000 0.291,1.000 0.324,1.000 0.324,2.000 0.356,2.000 0.356,1.000 0.388,1.000 0.388,1.000 0.421,1.000 0.421,2.000 0.453,2.000 0.453,2.000 0.485,2.000 0.485,1.000 0.518,1.000 0.518,1.000 0.550,1.000 0.550,1.000 0.582,1.000 0.582,2.000 0.615,2.000 0.615,2.000 0.647,2.000 0.647,1.000 0.680,1.000 0.680,1.000 0.712,1.000 0.712,3.000 0.744,3.000 0.744,1.000 0.777,1.000 0.777,1.000 0.809,1.000 0.809,1.000 0.841,1.000 0.841,2.000 0.874,2.000 0.874,1.000 0.906,1.000 0.906,2.000 0.938,2.000 0.938,1.000 0.971,1.000 0.971,2.000 1.003,2.000 1.003,2.000 1.036,2.000 1.036,1.000 1.068,1.000 1.068,2.000 1.100,2.000 1.100,2.000 1.133,2.000 1.133,1.000 1.165,1.000 1.165,1.000 1.197,1.000 1.197,2.000 1.230,2.000 1.230,3.000 1.262,3.000 1.262,1.000 1.294,1.000 1.294,2.000 1.327,2.000 1.327,1.000 1.359,1.000 1.359,2.000 1.392,2.000 1.392,2.000 1.424,2.000 1.424,1.000 1.456,1.000 1.456,1.000 1.489,1.000 1.489,3.000 1.521,3.000 1.521,1.000 1.553,1.000 1.553,1.000 1.586,1.000 1.586,2.000 1.618,2.000 1.618,2.000 1.650,2.000 1.650,1.000 1.683,1.000 1.683,1.000 1.715,1.000 1.715,2.000 1.747,2.000 1.747,3.000 1.780,3.000 1.780,2.000 1.812,2.000 1.812,1.000 1.845,1.000 1.845,1.000 1.877,1.000 1.877,3.000 1.909,3.000 1.909,1.000 1.942,1.000 1.942,1.000 1.974,1.000 1.974,2.000 2.006,2.000 2.006,2.000 2.039,2.000 2.039,2.000 2.071,2.000 2.071,2.000 2.103,2.000 2.103,1.000 2.136,1.000 2.136,2.000 2.168,2.000 2.168,2.000 2.201,2.000 2.201,2.000 2.233,2.000 2.233,1.000 2.265,1.000 2.265,3.000 2.298,3.000 2.298,1.000 2.330,1.000 2.330,1.000 2.362,1.000 2.362,2.000 2.395,2.000 2.395,2.000 2.427,2.000 2.427,2.000 2.459,2.000 2.459,2.000 2.492,2.000 2.492,1.000 2.524,1.000 2.524,3.000 2.556,3.000 2.556,1.000 2.589,1.000 2.589,1.000 2.621,1.000 2.621,1.000 2.654,1.000 2.654,3.000 2.686,3.000 2.686,2.000 2.718,2.000 2.718,1.000 2.751,1.000 2.751,2.000 2.783,2.000 2.783,3.000 2.815,3.000 2.815,1.000 2.848,1.000 2.848,2.000 2.880,2.000 2.880,2.000 2.912,2.000 2.912,2.000 2.945,2.000 2.945,2.000 2.977,2.000 2.977,1.000 3.010,1.000 3.010,2.000 3.042,2.000 3.042,3.000 3.074,3.000 3.074,1.000 3.107,1.000 3.107,1.000 3.139,1.000 3.139,2.000 3.171,2.000 3.171,2.000 3.204,2.000 3.204,1.000 3.236,1.000 3.236,2.000 3.268,2.000" />
</g>
</svg>