<svg xmlns="http://www.w3.org/2000/svg" width="161.8" height="100.0" viewBox="-4 -5 172 110">
<g fill="none" stroke="black" stroke-width="2.3900%" transform="translate(0, 100.4184) scale(0.2092, -0.2092)">
<circle cx="5" cy="2" r="2" />
<circle cx="10" cy="3" r="2" />
<circle cx="16" cy="5" r="2" />
<circle cx="21" cy="1" r="2" />
<circle cx="26" cy="7" r="2" />
<circle cx="31" cy="8" r="2" />
<circle cx="36" cy="11" r="2" />
<circle cx="42" cy="13" r="2" />
<circle cx="47" cy="10" r="2" />
<circle cx="52" cy="17" r="2" />
<circle cx="57" cy="19" r="2" />
<circle cx="62" cy="14" r="2" />
<circle cx="67" cy="23" r="2" />
<circle cx="73" cy="29" r="2" />
<circle cx="78" cy="16" r="2" />
<circle cx="83" cy="31" r="2" />
<circle cx="88" cy="37" r="2" />
<circle cx="93" cy="20" r="2" />
<circle cx="99" cy="41" r="2" />
<circle cx="104" cy="43" r="2" />
<circle cx="109" cy="22" r="2" />
<circle cx="114" cy="47" r="2" />
<circle cx="119" cy="53" r="2" />
<circle cx="125" cy="25" r="2" />
<circle cx="130" cy="59" r="2" />
<circle cx="135" cy="27" r="2" />
<circle cx="140" cy="61" r="2" />
<circle cx="145" cy="30" r="2" />
<circle cx="151" cy="67" r="2" />
<circle cx="156" cy="71" r="2" />
<circle cx="161" cy="73" r="2" />
<circle cx="166" cy="33" r="2" />
<circle cx="171" cy="79" r="2" />
<circle cx="176" cy="35" r="2" />
<circle cx="182" cy="83" r="2" />
<circle cx="187" cy="38" r="2" />
<circle cx="192" cy="89" r="2" />
<circle cx="197" cy="97" r="2" />
<circle cx="202" cy="40" r="2" />
<circle cx="208" cy="101" r="2" />
<circle cx="213" cy="103" r="2" />
<circle cx="218" cy="44" r="2" />
<circle cx="223" cy="107" r="2" />
<circle cx="228" cy="109" r="2" />
<circle cx="234" cy="46" r="2" />
<circle cx="239" cy="113" r="2" />
<circle cx="244" cy="127" r="2" />
<circle cx="249" cy="49" r="2" />
<circle cx="254" cy="131" r="2" />
<circle cx="260" cy="51" r="2" />
<circle cx="265" cy="137" r="2" />
<circle cx="270" cy="54" r="2" />
<circle cx="275" cy="139" r="2" />
<circle cx="280" cy="149" r="2" />
<circle cx="285" cy="56" r="2" />
<circle cx="291" cy="151" r="2" />
<circle cx="296" cy="58" r="2" />
<circle cx="301" cy="157" r="2" />
<circle cx="306" cy="163" r="2" />
<circle cx="311" cy="62" r="2" />
<circle cx="317" cy="167" r="2" />
<circle cx="322" cy="173" r="2" />
<circle cx="327" cy="64" r="2" />
<circle cx="332" cy="179" r="2" />
<circle cx="337" cy="66" r="2" />
<circle cx="343" cy="181" r="2" />
<circle cx="348" cy="191" r="2" />
<circle cx="353" cy="69" r="2" />
<circle cx="358" cy="193" r="2" />
<circle cx="363" cy="72" r="2" />
<circle cx="369" cy="197" r="2" />
<circle cx="374" cy="199" r="2" />
<circle cx="379" cy="211" r="2" />
<circle cx="384" cy="75" r="2" />
<circle cx="389" cy="223" r="2" />
<circle cx="394" cy="77" r="2" />
<circle cx="400" cy="227" r="2" />
<circle cx="405" cy="80" r="2" />
<circle cx="410" cy="229" r="2" />
<circle cx="415" cy="233" r="2" />
<circle cx="420" cy="82" r="2" />
<circle cx="426" cy="239" r="2" />
<circle cx="431" cy="241" r="2" />
<circle cx="436" cy="85" r="2" />
<circle cx="441" cy="251" r="2" />
<circle cx="446" cy="87" r="2" />
<circle cx="452" cy="257" r="2" />
<circle cx="457" cy="90" r="2" />
<circle cx="462" cy="263" r="2" />
<circle cx="467" cy="269" r="2" />
<circle cx="472" cy="92" r="2" />
<circle cx="478" cy="271" r="2" />
<circle cx="483" cy="94" r="2" />
<circle cx="488" cy="277" r="2" />
<circle cx="493" cy="96" r="2" />
<circle cx="498" cy="281" r="2" />
<circle cx="504" cy="283" r="2" />
<circle cx="509" cy="99" r="2" />
<circle cx="514" cy="293" r="2" />
<circle cx="519" cy="102" r="2" />
<circle cx="524" cy="307" r="2" />
<circle cx="529" cy="311" r="2" />
<circle cx="535" cy="313" r="2" />
<circle cx="540" cy="105" r="2" />
<circle cx="545" cy="317" r="2" />
<circle cx="550" cy="108" r="2" />
<circle cx="555" cy="331" r="2" />
<circle cx="561" cy="337" r="2" />
<circle cx="566" cy="347" r="2" />
<circle cx="571" cy="111" r="2" />
<circle cx="576" cy="349" r="2" />
<circle cx="581" cy="114" r="2" />
<circle cx="587" cy="353" r="2" />
<circle cx="592" cy="359" r="2" />
<circle cx="597" cy="116" r="2" />
<circle cx="602" cy="367" r="2" />
<circle cx="607" cy="118" r="2" />
<circle cx="613" cy="373" r="2" />
<circle cx="618" cy="120" r="2" />
<circle cx="623" cy="379" r="2" />
<circle cx="628" cy="122" r="2" />
<circle cx="633" cy="383" r="2" />
<circle cx="638" cy="124" r="2" />
<circle cx="644" cy="389" r="2" />
<circle cx="649" cy="126" r="2" />
<circle cx="654" cy="397" r="2" />
<circle cx="659" cy="401" r="2" />
<circle cx="664" cy="129" r="2" />
<circle cx="670" cy="409" r="2" />
<circle cx="675" cy="132" r="2" />
<circle cx="680" cy="419" r="2" />
<circle cx="685" cy="421" r="2" />
<circle cx="690" cy="134" r="2" />
<circle cx="696" cy="431" r="2" />
<circle cx="701" cy="136" r="2" />
<circle cx="706" cy="433" r="2" />
<circle cx="711" cy="439" r="2" />
<circle cx="716" cy="140" r="2" />
<circle cx="722" cy="443" r="2" />
<circle cx="727" cy="449" r="2" />
<circle cx="732" cy="142" r="2" />
<circle cx="737" cy="457" r="2" />
<circle cx="742" cy="144" r="2" />
<circle cx="747" cy="461" r="2" />
<circle cx="753" cy="146" r="2" />
<circle cx="758" cy="463" r="2" />
<circle cx="763" cy="148" r="2" />
<circle cx="768" cy="467" r="2" />
<circle cx="773" cy="479" r="2" />
<circle cx="779" cy="152" r="2" />
</g>
</svg>