<svg xmlns="http://www.w3.org/2000/svg" width="161.8" height="100.0" viewBox="-3.58 -5.00 171.80 110.00">
<g fill="none" stroke="black" stroke-width="0.1500%" transform="translate(0, 100.0000) scale(3.3333, -3.3333)">
<circle cx="0.43" cy="0.00" r="0.15" />
<circle cx="0.85" cy="1.00" r="0.15" />
<circle cx="1.28" cy="2.00" r="0.15" />
<circle cx="1.70" cy="3.00" r="0.15" />
<circle cx="2.13" cy="3.00" r="0.15" />
<circle cx="2.55" cy="4.00" r="0.15" />
<circle cx="2.98" cy="4.00" r="0.15" />
<circle cx="3.41" cy="6.00" r="0.15" />
<circle cx="3.83" cy="5.00" r="0.15" />
<circle cx="4.26" cy="5.00" r="0.15" />
<circle cx="4.68" cy="5.00" r="0.15" />
<circle cx="5.11" cy="7.00" r="0.15" />
<circle cx="5.54" cy="6.00" r="0.15" />
<circle cx="5.96" cy="6.00" r="0.15" />
<circle cx="6.39" cy="6.00" r="0.15" />
<circle cx="6.81" cy="10.00" r="0.15" />
<circle cx="7.24" cy="7.00" r="0.15" />
<circle cx="7.66" cy="8.00" r="0.15" />
<circle cx="8.09" cy="8.00" r="0.15" />
<circle cx="8.52" cy="8.00" r="0.15" />
<circle cx="8.94" cy="7.00" r="0.15" />
<circle cx="9.37" cy="7.00" r="0.15" />
<circle cx="9.79" cy="9.00" r="0.15" />
<circle cx="10.22" cy="11.00" r="0.15" />
<circle cx="10.64" cy="7.00" r="0.15" />
<circle cx="11.07" cy="8.00" r="0.15" />
<circle cx="11.50" cy="9.00" r="0.15" />
<circle cx="11.92" cy="9.00" r="0.15" />
<circle cx="12.35" cy="10.00" r="0.15" />
<circle cx="12.77" cy="9.00" r="0.15" />
<circle cx="13.20" cy="11.00" r="0.15" />
<circle cx="13.63" cy="15.00" r="0.15" />
<circle cx="14.05" cy="8.00" r="0.15" />
<circle cx="14.48" cy="9.00" r="0.15" />
<circle cx="14.90" cy="8.00" r="0.15" />
<circle cx="15.33" cy="12.00" r="0.15" />
<circle cx="15.75" cy="12.00" r="0.15" />
<circle cx="16.18" cy="10.00" r="0.15" />
<circle cx="16.61" cy="9.00" r="0.15" />
<circle cx="17.03" cy="12.00" r="0.15" />
<circle cx="17.46" cy="13.00" r="0.15" />
<circle cx="17.88" cy="10.00" r="0.15" />
<circle cx="18.31" cy="14.00" r="0.15" />
<circle cx="18.74" cy="10.00" r="0.15" />
<circle cx="19.16" cy="10.00" r="0.15" />
<circle cx="19.59" cy="11.00" r="0.15" />
<circle cx="20.01" cy="15.00" r="0.15" />
<circle cx="20.44" cy="16.00" r="0.15" />
<circle cx="20.86" cy="9.00" r="0.15" />
<circle cx="21.29" cy="10.00" r="0.15" />
<circle cx="21.72" cy="10.00" r="0.15" />
<circle cx="22.14" cy="11.00" r="0.15" />
<circle cx="22.57" cy="16.00" r="0.15" />
<circle cx="22.99" cy="13.00" r="0.15" />
<circle cx="23.42" cy="9.00" r="0.15" />
<circle cx="23.84" cy="13.00" r="0.15" />
<circle cx="24.27" cy="11.00" r="0.15" />
<circle cx="24.70" cy="12.00" r="0.15" />
<circle cx="25.12" cy="17.00" r="0.15" />
<circle cx="25.55" cy="13.00" r="0.15" />
<circle cx="25.97" cy="18.00" r="0.15" />
<circle cx="26.40" cy="13.00" r="0.15" />
<circle cx="26.83" cy="11.00" r="0.15" />
<circle cx="27.25" cy="21.00" r="0.15" />
<circle cx="27.68" cy="10.00" r="0.15" />
<circle cx="28.10" cy="11.00" r="0.15" />
<circle cx="28.53" cy="19.00" r="0.15" />
<circle cx="28.95" cy="12.00" r="0.15" />
<circle cx="29.38" cy="12.00" r="0.15" />
<circle cx="29.81" cy="11.00" r="0.15" />
<circle cx="30.23" cy="20.00" r="0.15" />
<circle cx="30.66" cy="17.00" r="0.15" />
<circle cx="31.08" cy="21.00" r="0.15" />
<circle cx="31.51" cy="14.00" r="0.15" />
<circle cx="31.93" cy="11.00" r="0.15" />
<circle cx="32.36" cy="13.00" r="0.15" />
<circle cx="32.79" cy="10.00" r="0.15" />
<circle cx="33.21" cy="12.00" r="0.15" />
<circle cx="33.64" cy="22.00" r="0.15" />
<circle cx="34.06" cy="17.00" r="0.15" />
<circle cx="34.49" cy="14.00" r="0.15" />
<circle cx="34.92" cy="15.00" r="0.15" />
<circle cx="35.34" cy="23.00" r="0.15" />
<circle cx="35.77" cy="14.00" r="0.15" />
<circle cx="36.19" cy="11.00" r="0.15" />
<circle cx="36.62" cy="16.00" r="0.15" />
<circle cx="37.04" cy="13.00" r="0.15" />
<circle cx="37.47" cy="14.00" r="0.15" />
<circle cx="37.90" cy="24.00" r="0.15" />
<circle cx="38.32" cy="14.00" r="0.15" />
<circle cx="38.75" cy="11.00" r="0.15" />
<circle cx="39.17" cy="14.00" r="0.15" />
<circle cx="39.60" cy="14.00" r="0.15" />
<circle cx="40.03" cy="17.00" r="0.15" />
<circle cx="40.45" cy="12.00" r="0.15" />
<circle cx="40.88" cy="22.00" r="0.15" />
<circle cx="41.30" cy="25.00" r="0.15" />
<circle cx="41.73" cy="12.00" r="0.15" />
<circle cx="42.15" cy="12.00" r="0.15" />
<circle cx="42.58" cy="14.00" r="0.15" />
<circle cx="43.01" cy="26.00" r="0.15" />
<circle cx="43.43" cy="13.00" r="0.15" />
<circle cx="43.86" cy="27.00" r="0.15" />
<circle cx="44.28" cy="15.00" r="0.15" />
<circle cx="44.71" cy="12.00" r="0.15" />
<circle cx="45.13" cy="18.00" r="0.15" />
<circle cx="45.56" cy="28.00" r="0.15" />
<circle cx="45.99" cy="18.00" r="0.15" />
<circle cx="46.41" cy="29.00" r="0.15" />
<circle cx="46.84" cy="12.00" r="0.15" />
<circle cx="47.26" cy="15.00" r="0.15" />
<circle cx="47.69" cy="18.00" r="0.15" />
<circle cx="48.12" cy="30.00" r="0.15" />
<circle cx="48.54" cy="14.00" r="0.15" />
<circle cx="48.97" cy="13.00" r="0.15" />
</g>
</svg>