<svg xmlns="http://www.w3.org/2000/svg" width="160.9" height="100.0" viewBox="-2 -5 171 110">
<g fill="none" stroke="black" stroke-width="1.8550%" transform="translate(0, 100.0000) scale(0.2695, -0.2695)">
<line x1="9" y1="0" x2="9" y2="2" />
<line x1="19" y1="0" x2="19" y2="3" />
<line x1="28" y1="0" x2="28" y2="4" />
<line x1="38" y1="0" x2="38" y2="5" />
<line x1="47" y1="0" x2="47" y2="8" />
<line x1="57" y1="0" x2="57" y2="7" />
<line x1="66" y1="0" x2="66" y2="15" />
<line x1="76" y1="0" x2="76" y2="14" />
<line x1="85" y1="0" x2="85" y2="21" />
<line x1="95" y1="0" x2="95" y2="11" />
<line x1="104" y1="0" x2="104" y2="35" />
<line x1="114" y1="0" x2="114" y2="13" />
<line x1="123" y1="0" x2="123" y2="33" />
<line x1="133" y1="0" x2="133" y2="26" />
<line x1="142" y1="0" x2="142" y2="39" />
<line x1="152" y1="0" x2="152" y2="17" />
<line x1="161" y1="0" x2="161" y2="65" />
<line x1="171" y1="0" x2="171" y2="19" />
<line x1="180" y1="0" x2="180" y2="51" />
<line x1="190" y1="0" x2="190" y2="38" />
<line x1="199" y1="0" x2="199" y2="57" />
<line x1="208" y1="0" x2="208" y2="23" />
<line x1="218" y1="0" x2="218" y2="95" />
<line x1="227" y1="0" x2="227" y2="46" />
<line x1="237" y1="0" x2="237" y2="69" />
<line x1="246" y1="0" x2="246" y2="92" />
<line x1="256" y1="0" x2="256" y2="115" />
<line x1="265" y1="0" x2="265" y2="29" />
<line x1="275" y1="0" x2="275" y2="161" />
<line x1="284" y1="0" x2="284" y2="31" />
<line x1="294" y1="0" x2="294" y2="87" />
<line x1="303" y1="0" x2="303" y2="62" />
<line x1="313" y1="0" x2="313" y2="93" />
<line x1="322" y1="0" x2="322" y2="124" />
<line x1="332" y1="0" x2="332" y2="155" />
<line x1="341" y1="0" x2="341" y2="37" />
<line x1="351" y1="0" x2="351" y2="217" />
<line x1="360" y1="0" x2="360" y2="74" />
<line x1="370" y1="0" x2="370" y2="111" />
<line x1="379" y1="0" x2="379" y2="41" />
<line x1="389" y1="0" x2="389" y2="185" />
<line x1="398" y1="0" x2="398" y2="43" />
<line x1="408" y1="0" x2="408" y2="123" />
<line x1="417" y1="0" x2="417" y2="86" />
<line x1="426" y1="0" x2="426" y2="129" />
<line x1="436" y1="0" x2="436" y2="47" />
<line x1="445" y1="0" x2="445" y2="215" />
<line x1="455" y1="0" x2="455" y2="94" />
<line x1="464" y1="0" x2="464" y2="141" />
<line x1="474" y1="0" x2="474" y2="188" />
<line x1="483" y1="0" x2="483" y2="235" />
<line x1="493" y1="0" x2="493" y2="53" />
<line x1="502" y1="0" x2="502" y2="329" />
<line x1="512" y1="0" x2="512" y2="106" />
<line x1="521" y1="0" x2="521" y2="159" />
<line x1="531" y1="0" x2="531" y2="212" />
<line x1="540" y1="0" x2="540" y2="265" />
<line x1="550" y1="0" x2="550" y2="59" />
<line x1="559" y1="0" x2="559" y2="371" />
<line x1="569" y1="0" x2="569" y2="61" />
<line x1="578" y1="0" x2="578" y2="177" />
<line x1="588" y1="0" x2="588" y2="122" />
<line x1="597" y1="0" x2="597" y2="183" />
<line x1="607" y1="0" x2="607" y2="244" />
</g>
</svg>