<svg xmlns="http://www.w3.org/2000/svg" width="104.8" height="100.0" viewBox="-3.4 -3.4 114.8 110.0">
<g fill="none" stroke="black" stroke-width="0.3100%" transform="translate(0, 103.2258) scale(1.6129, -1.6129)">
<polyline points="1.0,1.0 2.0,1.0 2.0,2.0 3.0,2.0 3.0,3.0 4.0,3.0 4.0,4.0 5.0,4.0 5.0,1.0 6.0,1.0 6.0,6.0 7.0,6.0 7.0,7.0 8.0,7.0 8.0,8.0 9.0,8.0 9.0,3.0 10.0,3.0 10.0,10.0 11.0,10.0 11.0,1.0 12.0,1.0 12.0,12.0 13.0,12.0 13.0,1.0 14.0,1.0 14.0,14.0 15.0,14.0 15.0,15.0 16.0,15.0 16.0,16.0 17.0,16.0 17.0,1.0 18.0,1.0 18.0,18.0 19.0,18.0 19.0,1.0 20.0,1.0 20.0,20.0 21.0,20.0 21.0,21.0 22.0,21.0 22.0,22.0 23.0,22.0 23.0,1.0 24.0,1.0 24.0,24.0 25.0,24.0 25.0,1.0 26.0,1.0 26.0,26.0 27.0,26.0 27.0,3.0 28.0,3.0 28.0,28.0 29.0,28.0 29.0,1.0 30.0,1.0 30.0,30.0 31.0,30.0 31.0,31.0 32.0,31.0 32.0,16.0 33.0,16.0 33.0,3.0 34.0,3.0 34.0,2.0 35.0,2.0 35.0,7.0 36.0,7.0 36.0,36.0 37.0,36.0 37.0,1.0 38.0,1.0 38.0,2.0 39.0,2.0 39.0,3.0 40.0,3.0 40.0,40.0 41.0,40.0 41.0,1.0 42.0,1.0 42.0,42.0 43.0,42.0 43.0,1.0 44.0,1.0 44.0,44.0 45.0,44.0 45.0,15.0 46.0,15.0 46.0,46.0 47.0,46.0 47.0,1.0 48.0,1.0 48.0,48.0 49.0,48.0 49.0,7.0 50.0,7.0 50.0,10.0 51.0,10.0 51.0,3.0 52.0,3.0 52.0,52.0 53.0,52.0 53.0,1.0 54.0,1.0 54.0,18.0 55.0,18.0 55.0,1.0 56.0,1.0 56.0,56.0 57.0,56.0 57.0,3.0 58.0,3.0 58.0,58.0 59.0,58.0 59.0,1.0 60.0,1.0 60.0,60.0 61.0,60.0 61.0,1.0 62.0,1.0 62.0,62.0 63.0,62.0 63.0,63.0 64.0,63.0 64.0,16.0 65.0,16.0 65.0,1.0 66.0,1.0" />
</g>
</svg>