<svg xmlns="http://www.w3.org/2000/svg" width="161.8" height="100.0" viewBox="-4.35 -0.65 171.80 110.00">
<g fill="none" stroke="black" stroke-width="0.1150%" transform="translate(0, 108.6957) scale(4.3478, -4.3478)">
<circle cx="0.15" cy="1.00" r="0.12" />
<circle cx="0.30" cy="2.00" r="0.12" />
<circle cx="0.45" cy="2.00" r="0.12" />
<circle cx="0.60" cy="3.00" r="0.12" />
<circle cx="0.75" cy="2.00" r="0.12" />
<circle cx="0.90" cy="4.00" r="0.12" />
<circle cx="1.05" cy="2.00" r="0.12" />
<circle cx="1.20" cy="5.00" r="0.12" />
<circle cx="1.35" cy="3.00" r="0.12" />
<circle cx="1.49" cy="4.00" r="0.12" />
<circle cx="1.64" cy="2.00" r="0.12" />
<circle cx="1.79" cy="6.00" r="0.12" />
<circle cx="1.94" cy="2.00" r="0.12" />
<circle cx="2.09" cy="4.00" r="0.12" />
<circle cx="2.24" cy="4.00" r="0.12" />
<circle cx="2.39" cy="7.00" r="0.12" />
<circle cx="2.54" cy="2.00" r="0.12" />
<circle cx="2.69" cy="6.00" r="0.12" />
<circle cx="2.84" cy="2.00" r="0.12" />
<circle cx="2.99" cy="6.00" r="0.12" />
<circle cx="3.14" cy="4.00" r="0.12" />
<circle cx="3.29" cy="4.00" r="0.12" />
<circle cx="3.44" cy="2.00" r="0.12" />
<circle cx="3.59" cy="8.00" r="0.12" />
<circle cx="3.74" cy="3.00" r="0.12" />
<circle cx="3.89" cy="4.00" r="0.12" />
<circle cx="4.04" cy="5.00" r="0.12" />
<circle cx="4.18" cy="6.00" r="0.12" />
<circle cx="4.33" cy="2.00" r="0.12" />
<circle cx="4.48" cy="9.00" r="0.12" />
<circle cx="4.63" cy="2.00" r="0.12" />
<circle cx="4.78" cy="10.00" r="0.12" />
<circle cx="4.93" cy="4.00" r="0.12" />
<circle cx="5.08" cy="4.00" r="0.12" />
<circle cx="5.23" cy="4.00" r="0.12" />
<circle cx="5.38" cy="11.00" r="0.12" />
<circle cx="5.53" cy="2.00" r="0.12" />
<circle cx="5.68" cy="4.00" r="0.12" />
<circle cx="5.83" cy="4.00" r="0.12" />
<circle cx="5.98" cy="8.00" r="0.12" />
<circle cx="6.13" cy="2.00" r="0.12" />
<circle cx="6.28" cy="9.00" r="0.12" />
<circle cx="6.43" cy="2.00" r="0.12" />
<circle cx="6.58" cy="6.00" r="0.12" />
<circle cx="6.73" cy="6.00" r="0.12" />
<circle cx="6.88" cy="4.00" r="0.12" />
<circle cx="7.02" cy="2.00" r="0.12" />
<circle cx="7.17" cy="12.00" r="0.12" />
<circle cx="7.32" cy="3.00" r="0.12" />
<circle cx="7.47" cy="6.00" r="0.12" />
<circle cx="7.62" cy="4.00" r="0.12" />
<circle cx="7.77" cy="6.00" r="0.12" />
<circle cx="7.92" cy="2.00" r="0.12" />
<circle cx="8.07" cy="8.00" r="0.12" />
<circle cx="8.22" cy="4.00" r="0.12" />
<circle cx="8.37" cy="8.00" r="0.12" />
<circle cx="8.52" cy="4.00" r="0.12" />
<circle cx="8.67" cy="4.00" r="0.12" />
<circle cx="8.82" cy="2.00" r="0.12" />
<circle cx="8.97" cy="13.00" r="0.12" />
<circle cx="9.12" cy="2.00" r="0.12" />
<circle cx="9.27" cy="4.00" r="0.12" />
<circle cx="9.42" cy="6.00" r="0.12" />
<circle cx="9.57" cy="14.00" r="0.12" />
<circle cx="9.71" cy="4.00" r="0.12" />
<circle cx="9.86" cy="9.00" r="0.12" />
<circle cx="10.01" cy="2.00" r="0.12" />
<circle cx="10.16" cy="6.00" r="0.12" />
<circle cx="10.31" cy="4.00" r="0.12" />
<circle cx="10.46" cy="9.00" r="0.12" />
<circle cx="10.61" cy="2.00" r="0.12" />
<circle cx="10.76" cy="15.00" r="0.12" />
<circle cx="10.91" cy="2.00" r="0.12" />
<circle cx="11.06" cy="4.00" r="0.12" />
<circle cx="11.21" cy="6.00" r="0.12" />
<circle cx="11.36" cy="6.00" r="0.12" />
<circle cx="11.51" cy="4.00" r="0.12" />
<circle cx="11.66" cy="9.00" r="0.12" />
<circle cx="11.81" cy="2.00" r="0.12" />
<circle cx="11.96" cy="12.00" r="0.12" />
<circle cx="12.11" cy="7.00" r="0.12" />
<circle cx="12.26" cy="4.00" r="0.12" />
<circle cx="12.40" cy="2.00" r="0.12" />
<circle cx="12.55" cy="13.00" r="0.12" />
<circle cx="12.70" cy="4.00" r="0.12" />
<circle cx="12.85" cy="4.00" r="0.12" />
<circle cx="13.00" cy="4.00" r="0.12" />
<circle cx="13.15" cy="8.00" r="0.12" />
<circle cx="13.30" cy="2.00" r="0.12" />
<circle cx="13.45" cy="13.00" r="0.12" />
<circle cx="13.60" cy="4.00" r="0.12" />
<circle cx="13.75" cy="6.00" r="0.12" />
<circle cx="13.90" cy="4.00" r="0.12" />
<circle cx="14.05" cy="4.00" r="0.12" />
<circle cx="14.20" cy="4.00" r="0.12" />
<circle cx="14.35" cy="16.00" r="0.12" />
<circle cx="14.50" cy="2.00" r="0.12" />
<circle cx="14.65" cy="6.00" r="0.12" />
<circle cx="14.80" cy="6.00" r="0.12" />
<circle cx="14.95" cy="11.00" r="0.12" />
<circle cx="15.10" cy="2.00" r="0.12" />
<circle cx="15.24" cy="9.00" r="0.12" />
<circle cx="15.39" cy="2.00" r="0.12" />
<circle cx="15.54" cy="8.00" r="0.12" />
<circle cx="15.69" cy="9.00" r="0.12" />
<circle cx="15.84" cy="4.00" r="0.12" />
<circle cx="15.99" cy="2.00" r="0.12" />
<circle cx="16.14" cy="15.00" r="0.12" />
<circle cx="16.29" cy="2.00" r="0.12" />
<circle cx="16.44" cy="9.00" r="0.12" />
<circle cx="16.59" cy="4.00" r="0.12" />
<circle cx="16.74" cy="12.00" r="0.12" />
<circle cx="16.89" cy="2.00" r="0.12" />
<circle cx="17.04" cy="9.00" r="0.12" />
<circle cx="17.19" cy="4.00" r="0.12" />
<circle cx="17.34" cy="6.00" r="0.12" />
<circle cx="17.49" cy="6.00" r="0.12" />
<circle cx="17.64" cy="4.00" r="0.12" />
<circle cx="17.79" cy="4.00" r="0.12" />
<circle cx="17.93" cy="17.00" r="0.12" />
<circle cx="18.08" cy="3.00" r="0.12" />
<circle cx="18.23" cy="4.00" r="0.12" />
<circle cx="18.38" cy="4.00" r="0.12" />
<circle cx="18.53" cy="6.00" r="0.12" />
<circle cx="18.68" cy="5.00" r="0.12" />
<circle cx="18.83" cy="13.00" r="0.12" />
<circle cx="18.98" cy="2.00" r="0.12" />
<circle cx="19.13" cy="18.00" r="0.12" />
<circle cx="19.28" cy="4.00" r="0.12" />
<circle cx="19.43" cy="9.00" r="0.12" />
<circle cx="19.58" cy="2.00" r="0.12" />
<circle cx="19.73" cy="13.00" r="0.12" />
<circle cx="19.88" cy="4.00" r="0.12" />
<circle cx="20.03" cy="4.00" r="0.12" />
<circle cx="20.18" cy="8.00" r="0.12" />
<circle cx="20.33" cy="8.00" r="0.12" />
<circle cx="20.48" cy="2.00" r="0.12" />
<circle cx="20.63" cy="9.00" r="0.12" />
<circle cx="20.77" cy="2.00" r="0.12" />
<circle cx="20.92" cy="13.00" r="0.12" />
<circle cx="21.07" cy="4.00" r="0.12" />
<circle cx="21.22" cy="4.00" r="0.12" />
<circle cx="21.37" cy="4.00" r="0.12" />
<circle cx="21.52" cy="19.00" r="0.12" />
<circle cx="21.67" cy="4.00" r="0.12" />
<circle cx="21.82" cy="4.00" r="0.12" />
<circle cx="21.97" cy="6.00" r="0.12" />
<circle cx="22.12" cy="6.00" r="0.12" />
<circle cx="22.27" cy="2.00" r="0.12" />
<circle cx="22.42" cy="13.00" r="0.12" />
<circle cx="22.57" cy="2.00" r="0.12" />
<circle cx="22.72" cy="8.00" r="0.12" />
<circle cx="22.87" cy="6.00" r="0.12" />
<circle cx="23.02" cy="9.00" r="0.12" />
<circle cx="23.17" cy="4.00" r="0.12" />
<circle cx="23.32" cy="13.00" r="0.12" />
<circle cx="23.46" cy="2.00" r="0.12" />
<circle cx="23.61" cy="4.00" r="0.12" />
<circle cx="23.76" cy="4.00" r="0.12" />
<circle cx="23.91" cy="16.00" r="0.12" />
<circle cx="24.06" cy="4.00" r="0.12" />
<circle cx="24.21" cy="12.00" r="0.12" />
<circle cx="24.36" cy="2.00" r="0.12" />
<circle cx="24.51" cy="6.00" r="0.12" />
<circle cx="24.66" cy="9.00" r="0.12" />
<circle cx="24.81" cy="4.00" r="0.12" />
<circle cx="24.96" cy="2.00" r="0.12" />
<circle cx="25.11" cy="17.00" r="0.12" />
<circle cx="25.26" cy="3.00" r="0.12" />
<circle cx="25.41" cy="9.00" r="0.12" />
<circle cx="25.56" cy="6.00" r="0.12" />
<circle cx="25.71" cy="6.00" r="0.12" />
<circle cx="25.86" cy="2.00" r="0.12" />
<circle cx="26.01" cy="9.00" r="0.12" />
<circle cx="26.15" cy="6.00" r="0.12" />
<circle cx="26.30" cy="12.00" r="0.12" />
<circle cx="26.45" cy="4.00" r="0.12" />
<circle cx="26.60" cy="4.00" r="0.12" />
<circle cx="26.75" cy="2.00" r="0.12" />
<circle cx="26.90" cy="20.00" r="0.12" />
<circle cx="27.05" cy="2.00" r="0.12" />
<circle cx="27.20" cy="9.00" r="0.12" />
<circle cx="27.35" cy="4.00" r="0.12" />
<circle cx="27.50" cy="8.00" r="0.12" />
<circle cx="27.65" cy="4.00" r="0.12" />
<circle cx="27.80" cy="9.00" r="0.12" />
<circle cx="27.95" cy="4.00" r="0.12" />
<circle cx="28.10" cy="6.00" r="0.12" />
<circle cx="28.25" cy="8.00" r="0.12" />
<circle cx="28.40" cy="9.00" r="0.12" />
<circle cx="28.55" cy="2.00" r="0.12" />
<circle cx="28.70" cy="21.00" r="0.12" />
<circle cx="28.85" cy="2.00" r="0.12" />
<circle cx="28.99" cy="4.00" r="0.12" />
<circle cx="29.14" cy="9.00" r="0.12" />
<circle cx="29.29" cy="11.00" r="0.12" />
<circle cx="29.44" cy="2.00" r="0.12" />
<circle cx="29.59" cy="13.00" r="0.12" />
<circle cx="29.74" cy="2.00" r="0.12" />
<circle cx="29.89" cy="15.00" r="0.12" />
<circle cx="30.04" cy="4.00" r="0.12" />
<circle cx="30.19" cy="4.00" r="0.12" />
<circle cx="30.34" cy="4.00" r="0.12" />
<circle cx="30.49" cy="13.00" r="0.12" />
<circle cx="30.64" cy="4.00" r="0.12" />
<circle cx="30.79" cy="4.00" r="0.12" />
<circle cx="30.94" cy="6.00" r="0.12" />
<circle cx="31.09" cy="12.00" r="0.12" />
<circle cx="31.24" cy="4.00" r="0.12" />
<circle cx="31.39" cy="22.00" r="0.12" />
<circle cx="31.54" cy="2.00" r="0.12" />
<circle cx="31.68" cy="6.00" r="0.12" />
<circle cx="31.83" cy="4.00" r="0.12" />
<circle cx="31.98" cy="4.00" r="0.12" />
<circle cx="32.13" cy="4.00" r="0.12" />
<circle cx="32.28" cy="23.00" r="0.12" />
<circle cx="32.43" cy="4.00" r="0.12" />
<circle cx="32.58" cy="4.00" r="0.12" />
<circle cx="32.73" cy="4.00" r="0.12" />
<circle cx="32.88" cy="13.00" r="0.12" />
<circle cx="33.03" cy="4.00" r="0.12" />
<circle cx="33.18" cy="9.00" r="0.12" />
<circle cx="33.33" cy="2.00" r="0.12" />
<circle cx="33.48" cy="16.00" r="0.12" />
<circle cx="33.63" cy="11.00" r="0.12" />
<circle cx="33.78" cy="4.00" r="0.12" />
<circle cx="33.93" cy="2.00" r="0.12" />
<circle cx="34.08" cy="13.00" r="0.12" />
<circle cx="34.23" cy="2.00" r="0.12" />
<circle cx="34.38" cy="9.00" r="0.12" />
<circle cx="34.52" cy="9.00" r="0.12" />
<circle cx="34.67" cy="8.00" r="0.12" />
<circle cx="34.82" cy="2.00" r="0.12" />
<circle cx="34.97" cy="13.00" r="0.12" />
<circle cx="35.12" cy="4.00" r="0.12" />
<circle cx="35.27" cy="6.00" r="0.12" />
<circle cx="35.42" cy="4.00" r="0.12" />
<circle cx="35.57" cy="9.00" r="0.12" />
<circle cx="35.72" cy="2.00" r="0.12" />
<circle cx="35.87" cy="24.00" r="0.12" />
<circle cx="36.02" cy="2.00" r="0.12" />
<circle cx="36.17" cy="6.00" r="0.12" />
<circle cx="36.32" cy="10.00" r="0.12" />
<circle cx="36.47" cy="6.00" r="0.12" />
<circle cx="36.62" cy="6.00" r="0.12" />
<circle cx="36.77" cy="9.00" r="0.12" />
<circle cx="36.92" cy="4.00" r="0.12" />
<circle cx="37.07" cy="8.00" r="0.12" />
<circle cx="37.21" cy="4.00" r="0.12" />
<circle cx="37.36" cy="8.00" r="0.12" />
</g>
</svg>