<svg xmlns="http://www.w3.org/2000/svg" width="161.8" height="100.0" viewBox="-4.16 -54.82 171.80 110.00">
<g fill="none" stroke="black" stroke-width="0.0793%" transform="translate(0, 0.3654) scale(6.3017, -6.3017)">
<circle cx="0.13" cy="0.52" r="0.08" />
<circle cx="0.27" cy="0.52" r="0.08" />
<circle cx="0.40" cy="-0.52" r="0.08" />
<circle cx="0.53" cy="0.52" r="0.08" />
<circle cx="0.67" cy="-0.90" r="0.08" />
<circle cx="0.80" cy="0.75" r="0.08" />
<circle cx="0.93" cy="0.52" r="0.08" />
<circle cx="1.06" cy="-1.01" r="0.08" />
<circle cx="1.20" cy="-0.90" r="0.08" />
<circle cx="1.33" cy="1.46" r="0.08" />
<circle cx="1.46" cy="-1.17" r="0.08" />
<circle cx="1.60" cy="0.52" r="0.08" />
<circle cx="1.73" cy="-1.10" r="0.08" />
<circle cx="1.86" cy="-1.38" r="0.08" />
<circle cx="2.00" cy="1.67" r="0.08" />
<circle cx="2.13" cy="1.85" r="0.08" />
<circle cx="2.26" cy="-2.14" r="0.08" />
<circle cx="2.39" cy="1.75" r="0.08" />
<circle cx="2.53" cy="0.52" r="0.08" />
<circle cx="2.66" cy="-1.17" r="0.08" />
<circle cx="2.79" cy="-1.55" r="0.08" />
<circle cx="2.93" cy="1.85" r="0.08" />
<circle cx="3.06" cy="-1.38" r="0.08" />
<circle cx="3.19" cy="2.44" r="0.08" />
<circle cx="3.33" cy="-2.44" r="0.08" />
<circle cx="3.46" cy="1.85" r="0.08" />
<circle cx="3.59" cy="-2.79" r="0.08" />
<circle cx="3.73" cy="2.92" r="0.08" />
<circle cx="3.86" cy="-2.44" r="0.08" />
<circle cx="3.99" cy="0.52" r="0.08" />
<circle cx="4.12" cy="-1.23" r="0.08" />
<circle cx="4.26" cy="-1.69" r="0.08" />
<circle cx="4.39" cy="1.99" r="0.08" />
<circle cx="4.52" cy="-1.91" r="0.08" />
<circle cx="4.66" cy="2.69" r="0.08" />
<circle cx="4.79" cy="-2.69" r="0.08" />
<circle cx="4.92" cy="2.51" r="0.08" />
<circle cx="5.06" cy="2.69" r="0.08" />
<circle cx="5.19" cy="-3.46" r="0.08" />
<circle cx="5.32" cy="3.29" r="0.08" />
<circle cx="5.45" cy="-3.16" r="0.08" />
<circle cx="5.59" cy="3.76" r="0.08" />
<circle cx="5.72" cy="-3.76" r="0.08" />
<circle cx="5.85" cy="3.22" r="0.08" />
<circle cx="5.99" cy="0.52" r="0.08" />
<circle cx="6.12" cy="-1.29" r="0.08" />
<circle cx="6.25" cy="-1.82" r="0.08" />
<circle cx="6.39" cy="2.11" r="0.08" />
<circle cx="6.52" cy="-2.11" r="0.08" />
<circle cx="6.65" cy="2.89" r="0.08" />
<circle cx="6.78" cy="-2.89" r="0.08" />
<circle cx="6.92" cy="-1.91" r="0.08" />
<circle cx="7.05" cy="3.11" r="0.08" />
<circle cx="7.18" cy="2.99" r="0.08" />
<circle cx="7.32" cy="-3.76" r="0.08" />
<circle cx="7.45" cy="3.59" r="0.08" />
<circle cx="7.58" cy="3.11" r="0.08" />
<circle cx="7.72" cy="-3.59" r="0.08" />
<circle cx="7.85" cy="-4.06" r="0.08" />
<circle cx="7.98" cy="4.49" r="0.08" />
<circle cx="8.12" cy="-4.19" r="0.08" />
<circle cx="8.25" cy="-3.16" r="0.08" />
<circle cx="8.38" cy="4.37" r="0.08" />
<circle cx="8.51" cy="-4.76" r="0.08" />
<circle cx="8.65" cy="4.67" r="0.08" />
<circle cx="8.78" cy="-4.06" r="0.08" />
<circle cx="8.91" cy="0.52" r="0.08" />
<circle cx="9.05" cy="-1.34" r="0.08" />
<circle cx="9.18" cy="-1.92" r="0.08" />
<circle cx="9.31" cy="2.22" r="0.08" />
<circle cx="9.45" cy="-2.29" r="0.08" />
<circle cx="9.58" cy="3.07" r="0.08" />
<circle cx="9.71" cy="-3.07" r="0.08" />
<circle cx="9.84" cy="-2.46" r="0.08" />
<circle cx="9.98" cy="3.37" r="0.08" />
<circle cx="10.11" cy="3.24" r="0.08" />
<circle cx="10.24" cy="-4.02" r="0.08" />
<circle cx="10.38" cy="3.84" r="0.08" />
<circle cx="10.51" cy="3.16" r="0.08" />
<circle cx="10.64" cy="3.76" r="0.08" />
<circle cx="10.78" cy="-4.24" r="0.08" />
<circle cx="10.91" cy="-4.42" r="0.08" />
<circle cx="11.04" cy="4.84" r="0.08" />
<circle cx="11.18" cy="-4.54" r="0.08" />
<circle cx="11.31" cy="3.11" r="0.08" />
<circle cx="11.44" cy="-4.54" r="0.08" />
<circle cx="11.57" cy="4.67" r="0.08" />
<circle cx="11.71" cy="-4.24" r="0.08" />
<circle cx="11.84" cy="5.32" r="0.08" />
<circle cx="11.97" cy="-5.54" r="0.08" />
<circle cx="12.11" cy="5.14" r="0.08" />
<circle cx="12.24" cy="4.72" r="0.08" />
<circle cx="12.37" cy="-5.54" r="0.08" />
<circle cx="12.51" cy="5.80" r="0.08" />
<circle cx="12.64" cy="-5.62" r="0.08" />
<circle cx="12.77" cy="4.97" r="0.08" />
<circle cx="12.90" cy="0.52" r="0.08" />
<circle cx="13.04" cy="-1.38" r="0.08" />
<circle cx="13.17" cy="-2.02" r="0.08" />
<circle cx="13.30" cy="2.32" r="0.08" />
<circle cx="13.44" cy="-2.44" r="0.08" />
<circle cx="13.57" cy="3.22" r="0.08" />
<circle cx="13.70" cy="-3.22" r="0.08" />
<circle cx="13.84" cy="-2.69" r="0.08" />
<circle cx="13.97" cy="3.59" r="0.08" />
<circle cx="14.10" cy="3.46" r="0.08" />
<circle cx="14.23" cy="-4.24" r="0.08" />
<circle cx="14.37" cy="4.06" r="0.08" />
<circle cx="14.50" cy="-2.46" r="0.08" />
<circle cx="14.63" cy="3.76" r="0.08" />
<circle cx="14.77" cy="4.06" r="0.08" />
<circle cx="14.90" cy="-4.54" r="0.08" />
<circle cx="15.03" cy="-4.72" r="0.08" />
<circle cx="15.17" cy="5.14" r="0.08" />
<circle cx="15.30" cy="-4.84" r="0.08" />
<circle cx="15.43" cy="3.86" r="0.08" />
<circle cx="15.57" cy="-4.34" r="0.08" />
<circle cx="15.70" cy="3.99" r="0.08" />
<circle cx="15.83" cy="-5.24" r="0.08" />
<circle cx="15.96" cy="5.37" r="0.08" />
<circle cx="16.10" cy="-4.64" r="0.08" />
<circle cx="16.23" cy="5.72" r="0.08" />
<circle cx="16.36" cy="-5.94" r="0.08" />
<circle cx="16.50" cy="5.54" r="0.08" />
<circle cx="16.63" cy="-4.59" r="0.08" />
<circle cx="16.76" cy="-4.94" r="0.08" />
<circle cx="16.90" cy="5.84" r="0.08" />
<circle cx="17.03" cy="-5.76" r="0.08" />
<circle cx="17.16" cy="5.84" r="0.08" />
<circle cx="17.29" cy="-6.54" r="0.08" />
<circle cx="17.43" cy="6.62" r="0.08" />
<circle cx="17.56" cy="-6.14" r="0.08" />
<circle cx="17.69" cy="4.72" r="0.08" />
<circle cx="17.83" cy="-6.12" r="0.08" />
<circle cx="17.96" cy="6.72" r="0.08" />
<circle cx="18.09" cy="-6.86" r="0.08" />
<circle cx="18.23" cy="6.62" r="0.08" />
<circle cx="18.36" cy="-5.92" r="0.08" />
<circle cx="18.49" cy="0.52" r="0.08" />
<circle cx="18.63" cy="-1.42" r="0.08" />
<circle cx="18.76" cy="-2.11" r="0.08" />
<circle cx="18.89" cy="2.41" r="0.08" />
<circle cx="19.02" cy="-2.58" r="0.08" />
<circle cx="19.16" cy="3.36" r="0.08" />
<circle cx="19.29" cy="-3.36" r="0.08" />
<circle cx="19.42" cy="-2.88" r="0.08" />
<circle cx="19.56" cy="3.78" r="0.08" />
<circle cx="19.69" cy="3.66" r="0.08" />
<circle cx="19.82" cy="-4.44" r="0.08" />
<circle cx="19.96" cy="4.26" r="0.08" />
<circle cx="20.09" cy="-3.03" r="0.08" />
<circle cx="20.22" cy="4.03" r="0.08" />
<circle cx="20.35" cy="4.33" r="0.08" />
<circle cx="20.49" cy="-4.81" r="0.08" />
<circle cx="20.62" cy="-4.98" r="0.08" />
<circle cx="20.75" cy="5.41" r="0.08" />
<circle cx="20.89" cy="-5.11" r="0.08" />
<circle cx="21.02" cy="3.81" r="0.08" />
<circle cx="21.15" cy="4.50" r="0.08" />
<circle cx="21.29" cy="-4.98" r="0.08" />
<circle cx="21.42" cy="4.33" r="0.08" />
<circle cx="21.55" cy="-5.58" r="0.08" />
<circle cx="21.69" cy="5.71" r="0.08" />
<circle cx="21.82" cy="-4.98" r="0.08" />
<circle cx="21.95" cy="6.06" r="0.08" />
<circle cx="22.08" cy="-6.28" r="0.08" />
<circle cx="22.22" cy="5.88" r="0.08" />
<circle cx="22.35" cy="4.42" r="0.08" />
<circle cx="22.48" cy="-5.38" r="0.08" />
<circle cx="22.62" cy="5.50" r="0.08" />
<circle cx="22.75" cy="-5.50" r="0.08" />
<circle cx="22.88" cy="-5.68" r="0.08" />
<circle cx="23.02" cy="6.58" r="0.08" />
<circle cx="23.15" cy="-6.50" r="0.08" />
<circle cx="23.28" cy="6.28" r="0.08" />
<circle cx="23.41" cy="-6.98" r="0.08" />
<circle cx="23.55" cy="7.06" r="0.08" />
<circle cx="23.68" cy="-6.58" r="0.08" />
<circle cx="23.81" cy="-5.33" r="0.08" />
<circle cx="23.95" cy="5.93" r="0.08" />
<circle cx="24.08" cy="6.58" r="0.08" />
<circle cx="24.21" cy="-7.11" r="0.08" />
<circle cx="24.35" cy="6.88" r="0.08" />
<circle cx="24.48" cy="5.98" r="0.08" />
<circle cx="24.61" cy="-7.28" r="0.08" />
<circle cx="24.74" cy="7.76" r="0.08" />
<circle cx="24.88" cy="-7.73" r="0.08" />
<circle cx="25.01" cy="7.19" r="0.08" />
<circle cx="25.14" cy="-6.46" r="0.08" />
<circle cx="25.28" cy="7.46" r="0.08" />
<circle cx="25.41" cy="-7.91" r="0.08" />
<circle cx="25.54" cy="7.96" r="0.08" />
<circle cx="25.68" cy="-7.66" r="0.08" />
<circle cx="25.81" cy="6.92" r="0.08" />
</g>
</svg>