<svg xmlns="http://www.w3.org/2000/svg" width="161.8" height="100.0" viewBox="-1.7 -5.0 171.8 110.0">
<g fill="none" stroke="black" stroke-width="0.4179%" transform="translate(0, 100.0000) scale(1.1965, -1.1965)">
<polyline points="2.8,2.2 5.5,5.1 8.3,11.6 11.0,24.4 13.8,45.3 16.6,69.6 19.3,83.6 22.1,74.7 24.8,48.2 27.6,22.9 30.4,8.8 33.1,3.3 35.9,1.3 38.6,0.6 41.4,0.3 44.2,0.2 46.9,0.1 49.7,0.1 52.4,0.0 55.2,0.0 58.0,0.0 60.7,0.0 63.5,0.0 66.2,0.0 69.0,0.0 71.8,0.0 74.5,0.0 77.3,0.0 80.0,0.0 82.8,0.0 85.6,0.0 88.3,0.0 91.1,0.0 93.8,0.0 96.6,0.0 99.4,0.0 102.1,0.0 104.9,0.0 107.6,0.0 110.4,0.0 113.2,0.0 115.9,0.0 118.7,0.0 121.4,0.0 124.2,0.0 127.0,0.0 129.7,0.0 132.5,0.0 135.2,0.0 138.0,0.0" />
</g>
</svg>