<svg xmlns="http://www.w3.org/2000/svg" width="161.8" height="100.0" viewBox="-2.98 7.50 171.80 110.00">
<g fill="none" stroke="black" stroke-width="0.0400%" transform="translate(0, 125.0000) scale(12.5000, -12.5000)">
<circle cx="0.16" cy="1.00" r="0.04" />
<circle cx="0.32" cy="1.00" r="0.04" />
<circle cx="0.49" cy="2.00" r="0.04" />
<circle cx="0.65" cy="1.00" r="0.04" />
<circle cx="0.81" cy="2.00" r="0.04" />
<circle cx="0.97" cy="3.00" r="0.04" />
<circle cx="1.13" cy="1.00" r="0.04" />
<circle cx="1.29" cy="2.00" r="0.04" />
<circle cx="1.46" cy="3.00" r="0.04" />
<circle cx="1.62" cy="4.00" r="0.04" />
<circle cx="1.78" cy="1.00" r="0.04" />
<circle cx="1.94" cy="2.00" r="0.04" />
<circle cx="2.10" cy="3.00" r="0.04" />
<circle cx="2.27" cy="4.00" r="0.04" />
<circle cx="2.43" cy="5.00" r="0.04" />
<circle cx="2.59" cy="1.00" r="0.04" />
<circle cx="2.75" cy="2.00" r="0.04" />
<circle cx="2.91" cy="3.00" r="0.04" />
<circle cx="3.07" cy="4.00" r="0.04" />
<circle cx="3.24" cy="5.00" r="0.04" />
<circle cx="3.40" cy="6.00" r="0.04" />
<circle cx="3.56" cy="1.00" r="0.04" />
<circle cx="3.72" cy="2.00" r="0.04" />
<circle cx="3.88" cy="3.00" r="0.04" />
<circle cx="4.05" cy="4.00" r="0.04" />
<circle cx="4.21" cy="5.00" r="0.04" />
<circle cx="4.37" cy="6.00" r="0.04" />
<circle cx="4.53" cy="7.00" r="0.04" />
<circle cx="4.69" cy="1.00" r="0.04" />
<circle cx="4.85" cy="2.00" r="0.04" />
<circle cx="5.02" cy="3.00" r="0.04" />
<circle cx="5.18" cy="4.00" r="0.04" />
<circle cx="5.34" cy="5.00" r="0.04" />
<circle cx="5.50" cy="6.00" r="0.04" />
<circle cx="5.66" cy="7.00" r="0.04" />
<circle cx="5.82" cy="8.00" r="0.04" />
<circle cx="5.99" cy="1.00" r="0.04" />
<circle cx="6.15" cy="2.00" r="0.04" />
<circle cx="6.31" cy="3.00" r="0.04" />
<circle cx="6.47" cy="4.00" r="0.04" />
<circle cx="6.63" cy="5.00" r="0.04" />
<circle cx="6.80" cy="6.00" r="0.04" />
<circle cx="6.96" cy="7.00" r="0.04" />
<circle cx="7.12" cy="8.00" r="0.04" />
<circle cx="7.28" cy="9.00" r="0.04" />
<circle cx="7.44" cy="1.00" r="0.04" />
<circle cx="7.60" cy="2.00" r="0.04" />
<circle cx="7.77" cy="3.00" r="0.04" />
<circle cx="7.93" cy="4.00" r="0.04" />
<circle cx="8.09" cy="5.00" r="0.04" />
<circle cx="8.25" cy="6.00" r="0.04" />
<circle cx="8.41" cy="7.00" r="0.04" />
<circle cx="8.58" cy="8.00" r="0.04" />
<circle cx="8.74" cy="1.00" r="0.04" />
<circle cx="8.90" cy="2.00" r="0.04" />
<circle cx="9.06" cy="3.00" r="0.04" />
<circle cx="9.22" cy="4.00" r="0.04" />
<circle cx="9.38" cy="5.00" r="0.04" />
<circle cx="9.55" cy="6.00" r="0.04" />
<circle cx="9.71" cy="7.00" r="0.04" />
<circle cx="9.87" cy="1.00" r="0.04" />
<circle cx="10.03" cy="2.00" r="0.04" />
<circle cx="10.19" cy="3.00" r="0.04" />
<circle cx="10.36" cy="4.00" r="0.04" />
<circle cx="10.52" cy="5.00" r="0.04" />
<circle cx="10.68" cy="6.00" r="0.04" />
<circle cx="10.84" cy="1.00" r="0.04" />
<circle cx="11.00" cy="2.00" r="0.04" />
<circle cx="11.16" cy="3.00" r="0.04" />
<circle cx="11.33" cy="4.00" r="0.04" />
<circle cx="11.49" cy="5.00" r="0.04" />
<circle cx="11.65" cy="1.00" r="0.04" />
<circle cx="11.81" cy="2.00" r="0.04" />
<circle cx="11.97" cy="3.00" r="0.04" />
<circle cx="12.14" cy="4.00" r="0.04" />
<circle cx="12.30" cy="1.00" r="0.04" />
<circle cx="12.46" cy="2.00" r="0.04" />
<circle cx="12.62" cy="3.00" r="0.04" />
<circle cx="12.78" cy="1.00" r="0.04" />
<circle cx="12.94" cy="2.00" r="0.04" />
<circle cx="13.11" cy="1.00" r="0.04" />
</g>
</svg>