<svg xmlns="http://www.w3.org/2000/svg" width="161.8" height="100.0" viewBox="-102.1 -62.1 171.8 110.0">
<g fill="none" stroke="black" stroke-width="0.1750%" transform="translate(0, -14.2857) scale(2.8571, -2.8571)">
<circle cx="-34.0" cy="0.0" r="0.2" />
<circle cx="0.0" cy="15.0" r="0.2" />
<polyline points="-34.0,-2.0 -33.4,-2.0 -32.8,-1.9 -32.3,-1.9 -31.7,-1.8 -31.1,-1.8 -30.6,-1.7 -30.0,-1.7 -29.4,-1.6 -28.9,-1.6 -28.3,-1.5 -27.7,-1.5 -27.2,-1.4 -26.6,-1.4 -26.1,-1.3 -25.5,-1.3 -24.9,-1.2 -24.4,-1.2 -23.8,-1.1 -23.2,-1.1 -22.7,-1.0 -22.1,-1.0 -21.5,-0.9 -21.0,-0.9 -20.4,-0.8 -19.8,-0.8 -19.3,-0.7 -18.7,-0.7 -18.1,-0.6 -17.6,-0.6 -17.0,-0.5 -16.4,-0.5 -15.9,-0.4 -15.3,-0.4 -14.7,-0.3 -14.2,-0.3 -13.6,-0.2 -13.0,-0.2 -12.5,-0.1 -11.9,-0.1 -11.3,-0.0 -10.8,0.0 -10.2,0.1 -9.6,0.1 -9.1,0.2 -8.5,0.2 -7.9,0.3 -7.4,0.3 -6.8,0.4 -6.2,0.4 -5.7,0.5 -5.1,0.5 -4.5,0.6 -4.0,0.6 -3.4,0.7 -2.8,0.7 -2.3,0.8 -1.7,0.8 -1.1,0.9 -0.6,0.9 -0.0,1.0 0.6,1.0 1.1,1.1 1.7,1.1 2.3,1.2 2.8,1.2 3.4,1.3 4.0,1.3 4.5,1.4 5.1,1.4 5.7,1.5 6.2,1.5 6.8,1.6 7.4,1.6 7.9,1.7 8.5,1.7 9.1,1.8 9.6,1.8 10.2,1.9 10.8,1.9 11.3,2.0 11.9,2.0 12.5,2.1 13.0,2.1 13.6,2.2 14.2,2.2 14.7,2.3 15.3,2.3 15.9,2.4 16.4,2.4 17.0,2.5 17.6,2.5 18.1,2.6 18.7,2.6 19.3,2.7 19.8,2.7 20.4,2.8 21.0,2.8 21.5,2.9 22.1,2.9 22.7,3.0" />
<polyline points="-34.0,7.0 -33.4,6.8 -32.8,6.5 -32.3,6.3 -31.7,6.0 -31.1,5.8 -30.6,5.6 -30.0,5.4 -29.4,5.2 -28.9,5.0 -28.3,4.8 -27.7,4.6 -27.2,4.4 -26.6,4.2 -26.1,4.0 -25.5,3.8 -24.9,3.6 -24.4,3.5 -23.8,3.3 -23.2,3.2 -22.7,3.0 -22.1,2.9 -21.5,2.7 -21.0,2.6 -20.4,2.4 -19.8,2.3 -19.3,2.2 -18.7,2.1 -18.1,2.0 -17.6,1.9 -17.0,1.8 -16.4,1.7 -15.9,1.6 -15.3,1.5 -14.7,1.4 -14.2,1.3 -13.6,1.2 -13.0,1.2 -12.5,1.1 -11.9,1.1 -11.3,1.0 -10.8,1.0 -10.2,0.9 -9.6,0.9 -9.1,0.8 -8.5,0.8 -7.9,0.8 -7.4,0.8 -6.8,0.8 -6.2,0.8 -5.7,0.8 -5.1,0.8 -4.5,0.8 -4.0,0.8 -3.4,0.8 -2.8,0.8 -2.3,0.8 -1.7,0.9 -1.1,0.9 -0.6,1.0 -0.0,1.0 0.6,1.1 1.1,1.1 1.7,1.2 2.3,1.2 2.8,1.3 3.4,1.4 4.0,1.5 4.5,1.6 5.1,1.7 5.7,1.7 6.2,1.9 6.8,2.0 7.4,2.1 7.9,2.2 8.5,2.3 9.1,2.4 9.6,2.6 10.2,2.7 10.8,2.9 11.3,3.0 11.9,3.2 12.5,3.3 13.0,3.5 13.6,3.6 14.2,3.8 14.7,4.0 15.3,4.2 15.9,4.4 16.4,4.6 17.0,4.7 17.6,5.0 18.1,5.2 18.7,5.4 19.3,5.6 19.8,5.8 20.4,6.0 21.0,6.3 21.5,6.5 22.1,6.8 22.7,7.0" />
<polyline points="-34.0,-20.0 -33.4,-18.9 -32.8,-17.9 -32.3,-16.9 -31.7,-15.9 -31.1,-15.0 -30.6,-14.1 -30.0,-13.2 -29.4,-12.4 -28.9,-11.6 -28.3,-10.9 -27.7,-10.2 -27.2,-9.5 -26.6,-8.8 -26.1,-8.2 -25.5,-7.6 -24.9,-7.0 -24.4,-6.5 -23.8,-6.0 -23.2,-5.5 -22.7,-5.0 -22.1,-4.6 -21.5,-4.1 -21.0,-3.8 -20.4,-3.4 -19.8,-3.0 -19.3,-2.7 -18.7,-2.4 -18.1,-2.1 -17.6,-1.9 -17.0,-1.6 -16.4,-1.4 -15.9,-1.2 -15.3,-1.0 -14.7,-0.8 -14.2,-0.6 -13.6,-0.5 -13.0,-0.3 -12.5,-0.2 -11.9,-0.1 -11.3,-0.0 -10.8,0.1 -10.2,0.2 -9.6,0.3 -9.1,0.3 -8.5,0.4 -7.9,0.4 -7.4,0.5 -6.8,0.5 -6.2,0.6 -5.7,0.6 -5.1,0.7 -4.5,0.7 -4.0,0.7 -3.4,0.8 -2.8,0.8 -2.3,0.8 -1.7,0.9 -1.1,0.9 -0.6,1.0 -0.0,1.0 0.6,1.1 1.1,1.1 1.7,1.2 2.3,1.2 2.8,1.3 3.4,1.4 4.0,1.5 4.5,1.6 5.1,1.7 5.7,1.9 6.2,2.0 6.8,2.2 7.4,2.3 7.9,2.5 8.5,2.7 9.1,3.0 9.6,3.2 10.2,3.4 10.8,3.7 11.3,4.0 11.9,4.3 12.5,4.6 13.0,5.0 13.6,5.4 14.2,5.8 14.7,6.2 15.3,6.6 15.9,7.1 16.4,7.6 17.0,8.1 17.6,8.7 18.1,9.3 18.7,9.9 19.3,10.5 19.8,11.2 20.4,11.9 21.0,12.6 21.5,13.4 22.1,14.2 22.7,15.0" />
</g>
</svg>