<svg xmlns="http://www.w3.org/2000/svg" width="160.5" height="100.0" viewBox="-2.5 -5.0 170.5 110.0">
<g fill="none" stroke="black" stroke-width="0.6300%" transform="translate(0, 100.0000) scale(0.7937, -0.7937)">
<line x1="3.1" y1="0.0" x2="3.1" y2="1.0" />
<line x1="6.2" y1="0.0" x2="6.2" y2="1.0" />
<line x1="9.3" y1="0.0" x2="9.3" y2="1.0" />
<line x1="12.4" y1="0.0" x2="12.4" y2="1.0" />
<line x1="15.6" y1="0.0" x2="15.6" y2="1.0" />
<line x1="18.7" y1="0.0" x2="18.7" y2="1.0" />
<line x1="21.8" y1="0.0" x2="21.8" y2="1.0" />
<line x1="24.9" y1="0.0" x2="24.9" y2="2.0" />
<line x1="28.0" y1="0.0" x2="28.0" y2="2.0" />
<line x1="31.1" y1="0.0" x2="31.1" y2="1.0" />
<line x1="34.2" y1="0.0" x2="34.2" y2="1.0" />
<line x1="37.3" y1="0.0" x2="37.3" y2="2.0" />
<line x1="40.5" y1="0.0" x2="40.5" y2="4.0" />
<line x1="43.6" y1="0.0" x2="43.6" y2="2.0" />
<line x1="46.7" y1="0.0" x2="46.7" y2="1.0" />
<line x1="49.8" y1="0.0" x2="49.8" y2="1.0" />
<line x1="52.9" y1="0.0" x2="52.9" y2="3.0" />
<line x1="56.0" y1="0.0" x2="56.0" y2="6.0" />
<line x1="59.1" y1="0.0" x2="59.1" y2="6.0" />
<line x1="62.2" y1="0.0" x2="62.2" y2="3.0" />
<line x1="65.3" y1="0.0" x2="65.3" y2="1.0" />
<line x1="68.5" y1="0.0" x2="68.5" y2="1.0" />
<line x1="71.6" y1="0.0" x2="71.6" y2="3.0" />
<line x1="74.7" y1="0.0" x2="74.7" y2="9.0" />
<line x1="77.8" y1="0.0" x2="77.8" y2="10.0" />
<line x1="80.9" y1="0.0" x2="80.9" y2="9.0" />
<line x1="84.0" y1="0.0" x2="84.0" y2="3.0" />
<line x1="87.1" y1="0.0" x2="87.1" y2="1.0" />
<line x1="90.2" y1="0.0" x2="90.2" y2="1.0" />
<line x1="93.3" y1="0.0" x2="93.3" y2="4.0" />
<line x1="96.5" y1="0.0" x2="96.5" y2="12.0" />
<line x1="99.6" y1="0.0" x2="99.6" y2="19.0" />
<line x1="102.7" y1="0.0" x2="102.7" y2="19.0" />
<line x1="105.8" y1="0.0" x2="105.8" y2="12.0" />
<line x1="108.9" y1="0.0" x2="108.9" y2="4.0" />
<line x1="112.0" y1="0.0" x2="112.0" y2="1.0" />
<line x1="115.1" y1="0.0" x2="115.1" y2="1.0" />
<line x1="118.2" y1="0.0" x2="118.2" y2="4.0" />
<line x1="121.4" y1="0.0" x2="121.4" y2="16.0" />
<line x1="124.5" y1="0.0" x2="124.5" y2="28.0" />
<line x1="127.6" y1="0.0" x2="127.6" y2="38.0" />
<line x1="130.7" y1="0.0" x2="130.7" y2="28.0" />
<line x1="133.8" y1="0.0" x2="133.8" y2="16.0" />
<line x1="136.9" y1="0.0" x2="136.9" y2="4.0" />
<line x1="140.0" y1="0.0" x2="140.0" y2="1.0" />
<line x1="143.1" y1="0.0" x2="143.1" y2="1.0" />
<line x1="146.2" y1="0.0" x2="146.2" y2="5.0" />
<line x1="149.4" y1="0.0" x2="149.4" y2="20.0" />
<line x1="152.5" y1="0.0" x2="152.5" y2="44.0" />
<line x1="155.6" y1="0.0" x2="155.6" y2="66.0" />
<line x1="158.7" y1="0.0" x2="158.7" y2="66.0" />
<line x1="161.8" y1="0.0" x2="161.8" y2="44.0" />
<line x1="164.9" y1="0.0" x2="164.9" y2="20.0" />
<line x1="168.0" y1="0.0" x2="168.0" y2="5.0" />
<line x1="171.1" y1="0.0" x2="171.1" y2="1.0" />
<line x1="174.2" y1="0.0" x2="174.2" y2="1.0" />
<line x1="177.4" y1="0.0" x2="177.4" y2="5.0" />
<line x1="180.5" y1="0.0" x2="180.5" y2="25.0" />
<line x1="183.6" y1="0.0" x2="183.6" y2="60.0" />
<line x1="186.7" y1="0.0" x2="186.7" y2="110.0" />
<line x1="189.8" y1="0.0" x2="189.8" y2="126.0" />
<line x1="192.9" y1="0.0" x2="192.9" y2="110.0" />
<line x1="196.0" y1="0.0" x2="196.0" y2="60.0" />
<line x1="199.1" y1="0.0" x2="199.1" y2="25.0" />
<line x1="202.3" y1="0.0" x2="202.3" y2="5.0" />
<line x1="205.4" y1="0.0" x2="205.4" y2="1.0" />
</g>
</svg>