<svg xmlns="http://www.w3.org/2000/svg" width="161.8" height="100.0" viewBox="-2.8 -2.2 171.8 110.0">
<g fill="none" stroke="black" stroke-width="0.1800%" transform="translate(0, 105.5556) scale(2.7778, -2.7778)">
<polyline points="0.8,1.0 1.6,1.0 1.6,1.0 2.4,1.0 2.4,1.0 3.1,1.0 3.1,2.0 3.9,2.0 3.9,3.0 4.7,3.0 4.7,3.0 5.5,3.0 5.5,2.0 6.3,2.0 6.3,3.0 7.1,3.0 7.1,5.0 7.9,5.0 7.9,5.0 8.7,5.0 8.7,3.0 9.4,3.0 9.4,6.0 10.2,6.0 10.2,7.0 11.0,7.0 11.0,5.0 11.8,5.0 11.8,3.0 12.6,3.0 12.6,8.0 13.4,8.0 13.4,7.0 14.2,7.0 14.2,9.0 15.0,9.0 15.0,5.0 15.7,5.0 15.7,7.0 16.5,7.0 16.5,11.0 17.3,11.0 17.3,11.0 18.1,11.0 18.1,5.0 18.9,5.0 18.9,10.0 19.7,10.0 19.7,13.0 20.5,13.0 20.5,10.0 21.3,10.0 21.3,7.0 22.0,7.0 22.0,14.0 22.8,14.0 22.8,11.0 23.6,11.0 23.6,15.0 24.4,15.0 24.4,6.0 25.2,6.0 25.2,11.0 26.0,11.0 26.0,17.0 26.8,17.0 26.8,11.0 27.6,11.0 27.6,7.0 28.3,7.0 28.3,18.0 29.1,18.0 29.1,19.0 29.9,19.0 29.9,13.0 30.7,13.0 30.7,8.0 31.5,8.0 31.5,20.0 32.3,20.0 32.3,15.0 33.1,15.0 33.1,21.0 33.8,21.0 33.8,11.0 34.6,11.0 34.6,11.0 35.4,11.0 35.4,23.0 36.2,23.0 36.2,23.0 37.0,23.0 37.0,7.0 37.8,7.0 37.8,21.0 38.6,21.0 38.6,21.0 39.4,21.0 39.4,17.0 40.1,17.0 40.1,13.0 40.9,13.0 40.9,26.0 41.7,26.0 41.7,21.0 42.5,21.0 42.5,17.0 43.3,17.0 43.3,11.0 44.1,11.0 44.1,19.0 44.9,19.0 44.9,29.0 45.7,29.0 45.7,29.0 46.4,29.0 46.4,11.0 47.2,11.0 47.2,30.0 48.0,30.0 48.0,31.0 48.8,31.0 48.8,15.0 49.6,15.0 49.6,11.0 50.4,11.0 50.4,20.0 51.2,20.0 51.2,23.0 52.0,23.0 52.0,33.0 52.7,33.0 52.7,17.0 53.5,17.0 53.5,23.0 54.3,23.0 54.3,23.0 55.1,23.0 55.1,35.0 55.9,35.0 55.9,11.0 56.7,11.0 56.7,36.0 57.5,36.0 57.5,37.0 58.2,37.0 58.2,21.0 59.0,21.0" />
</g>
</svg>