<svg xmlns="http://www.w3.org/2000/svg" width="96" height="104" viewBox="0 0 96 104">
<g stroke="none" transform="translate(0, 0) scale(1, 1)">
<rect x="0" y="0" width="8" height="8" fill="rgb(216,216,216)"/>
<rect x="0" y="8" width="8" height="8" fill="rgb(59,59,59)"/>
<rect x="0" y="16" width="8" height="8" fill="rgb(177,177,177)"/>
<rect x="0" y="24" width="8" height="8" fill="rgb(118,118,118)"/>
<rect x="0" y="32" width="8" height="8" fill="rgb(0,0,0)"/>
<rect x="0" y="40" width="8" height="8" fill="rgb(137,137,137)"/>
<rect x="0" y="48" width="8" height="8" fill="rgb(235,235,235)"/>
<rect x="0" y="56" width="8" height="8" fill="rgb(39,39,39)"/>
<rect x="0" y="64" width="8" height="8" fill="rgb(98,98,98)"/>
<rect x="0" y="72" width="8" height="8" fill="rgb(78,78,78)"/>
<rect x="0" y="80" width="8" height="8" fill="rgb(196,196,196)"/>
<rect x="0" y="88" width="8" height="8" fill="rgb(20,20,20)"/>
<rect x="0" y="96" width="8" height="8" fill="rgb(157,157,157)"/>
<rect x="8" y="0" width="8" height="8" fill="rgb(235,235,235)"/>
<rect x="8" y="8" width="8" height="8" fill="rgb(59,59,59)"/>
<rect x="8" y="16" width="8" height="8" fill="rgb(177,177,177)"/>
<rect x="8" y="24" width="8" height="8" fill="rgb(118,118,118)"/>
<rect x="8" y="32" width="8" height="8" fill="rgb(0,0,0)"/>
<rect x="8" y="40" width="8" height="8" fill="rgb(137,137,137)"/>
<rect x="8" y="48" width="8" height="8" fill="rgb(216,216,216)"/>
<rect x="8" y="56" width="8" height="8" fill="rgb(39,39,39)"/>
<rect x="8" y="64" width="8" height="8" fill="rgb(98,98,98)"/>
<rect x="8" y="72" width="8" height="8" fill="rgb(78,78,78)"/>
<rect x="8" y="80" width="8" height="8" fill="rgb(196,196,196)"/>
<rect x="8" y="88" width="8" height="8" fill="rgb(20,20,20)"/>
<rect x="8" y="96" width="8" height="8" fill="rgb(157,157,157)"/>
<rect x="16" y="0" width="8" height="8" fill="rgb(235,235,235)"/>
<rect x="16" y="8" width="8" height="8" fill="rgb(157,157,157)"/>
<rect x="16" y="16" width="8" height="8" fill="rgb(177,177,177)"/>
<rect x="16" y="24" width="8" height="8" fill="rgb(118,118,118)"/>
<rect x="16" y="32" width="8" height="8" fill="rgb(0,0,0)"/>
<rect x="16" y="40" width="8" height="8" fill="rgb(137,137,137)"/>
<rect x="16" y="48" width="8" height="8" fill="rgb(216,216,216)"/>
<rect x="16" y="56" width="8" height="8" fill="rgb(39,39,39)"/>
<rect x="16" y="64" width="8" height="8" fill="rgb(98,98,98)"/>
<rect x="16" y="72" width="8" height="8" fill="rgb(78,78,78)"/>
<rect x="16" y="80" width="8" height="8" fill="rgb(196,196,196)"/>
<rect x="16" y="88" width="8" height="8" fill="rgb(20,20,20)"/>
<rect x="16" y="96" width="8" height="8" fill="rgb(59,59,59)"/>
<rect x="24" y="0" width="8" height="8" fill="rgb(235,235,235)"/>
<rect x="24" y="8" width="8" height="8" fill="rgb(157,157,157)"/>
<rect x="24" y="16" width="8" height="8" fill="rgb(177,177,177)"/>
<rect x="24" y="24" width="8" height="8" fill="rgb(118,118,118)"/>
<rect x="24" y="32" width="8" height="8" fill="rgb(196,196,196)"/>
<rect x="24" y="40" width="8" height="8" fill="rgb(137,137,137)"/>
<rect x="24" y="48" width="8" height="8" fill="rgb(216,216,216)"/>
<rect x="24" y="56" width="8" height="8" fill="rgb(39,39,39)"/>
<rect x="24" y="64" width="8" height="8" fill="rgb(98,98,98)"/>
<rect x="24" y="72" width="8" height="8" fill="rgb(78,78,78)"/>
<rect x="24" y="80" width="8" height="8" fill="rgb(0,0,0)"/>
<rect x="24" y="88" width="8" height="8" fill="rgb(20,20,20)"/>
<rect x="24" y="96" width="8" height="8" fill="rgb(59,59,59)"/>
<rect x="32" y="0" width="8" height="8" fill="rgb(235,235,235)"/>
<rect x="32" y="8" width="8" height="8" fill="rgb(157,157,157)"/>
<rect x="32" y="16" width="8" height="8" fill="rgb(177,177,177)"/>
<rect x="32" y="24" width="8" height="8" fill="rgb(118,118,118)"/>
<rect x="32" y="32" width="8" height="8" fill="rgb(196,196,196)"/>
<rect x="32" y="40" width="8" height="8" fill="rgb(137,137,137)"/>
<rect x="32" y="48" width="8" height="8" fill="rgb(216,216,216)"/>
<rect x="32" y="56" width="8" height="8" fill="rgb(78,78,78)"/>
<rect x="32" y="64" width="8" height="8" fill="rgb(98,98,98)"/>
<rect x="32" y="72" width="8" height="8" fill="rgb(39,39,39)"/>
<rect x="32" y="80" width="8" height="8" fill="rgb(0,0,0)"/>
<rect x="32" y="88" width="8" height="8" fill="rgb(20,20,20)"/>
<rect x="32" y="96" width="8" height="8" fill="rgb(59,59,59)"/>
<rect x="40" y="0" width="8" height="8" fill="rgb(235,235,235)"/>
<rect x="40" y="8" width="8" height="8" fill="rgb(216,216,216)"/>
<rect x="40" y="16" width="8" height="8" fill="rgb(177,177,177)"/>
<rect x="40" y="24" width="8" height="8" fill="rgb(118,118,118)"/>
<rect x="40" y="32" width="8" height="8" fill="rgb(196,196,196)"/>
<rect x="40" y="40" width="8" height="8" fill="rgb(137,137,137)"/>
<rect x="40" y="48" width="8" height="8" fill="rgb(157,157,157)"/>
<rect x="40" y="56" width="8" height="8" fill="rgb(78,78,78)"/>
<rect x="40" y="64" width="8" height="8" fill="rgb(98,98,98)"/>
<rect x="40" y="72" width="8" height="8" fill="rgb(39,39,39)"/>
<rect x="40" y="80" width="8" height="8" fill="rgb(0,0,0)"/>
<rect x="40" y="88" width="8" height="8" fill="rgb(20,20,20)"/>
<rect x="40" y="96" width="8" height="8" fill="rgb(59,59,59)"/>
<rect x="48" y="0" width="8" height="8" fill="rgb(235,235,235)"/>
<rect x="48" y="8" width="8" height="8" fill="rgb(216,216,216)"/>
<rect x="48" y="16" width="8" height="8" fill="rgb(177,177,177)"/>
<rect x="48" y="24" width="8" height="8" fill="rgb(196,196,196)"/>
<rect x="48" y="32" width="8" height="8" fill="rgb(118,118,118)"/>
<rect x="48" y="40" width="8" height="8" fill="rgb(137,137,137)"/>
<rect x="48" y="48" width="8" height="8" fill="rgb(157,157,157)"/>
<rect x="48" y="56" width="8" height="8" fill="rgb(78,78,78)"/>
<rect x="48" y="64" width="8" height="8" fill="rgb(98,98,98)"/>
<rect x="48" y="72" width="8" height="8" fill="rgb(39,39,39)"/>
<rect x="48" y="80" width="8" height="8" fill="rgb(0,0,0)"/>
<rect x="48" y="88" width="8" height="8" fill="rgb(20,20,20)"/>
<rect x="48" y="96" width="8" height="8" fill="rgb(59,59,59)"/>
<rect x="56" y="0" width="8" height="8" fill="rgb(235,235,235)"/>
<rect x="56" y="8" width="8" height="8" fill="rgb(216,216,216)"/>
<rect x="56" y="16" width="8" height="8" fill="rgb(196,196,196)"/>
<rect x="56" y="24" width="8" height="8" fill="rgb(177,177,177)"/>
<rect x="56" y="32" width="8" height="8" fill="rgb(118,118,118)"/>
<rect x="56" y="40" width="8" height="8" fill="rgb(137,137,137)"/>
<rect x="56" y="48" width="8" height="8" fill="rgb(157,157,157)"/>
<rect x="56" y="56" width="8" height="8" fill="rgb(78,78,78)"/>
<rect x="56" y="64" width="8" height="8" fill="rgb(98,98,98)"/>
<rect x="56" y="72" width="8" height="8" fill="rgb(39,39,39)"/>
<rect x="56" y="80" width="8" height="8" fill="rgb(0,0,0)"/>
<rect x="56" y="88" width="8" height="8" fill="rgb(20,20,20)"/>
<rect x="56" y="96" width="8" height="8" fill="rgb(59,59,59)"/>
<rect x="64" y="0" width="8" height="8" fill="rgb(235,235,235)"/>
<rect x="64" y="8" width="8" height="8" fill="rgb(216,216,216)"/>
<rect x="64" y="16" width="8" height="8" fill="rgb(196,196,196)"/>
<rect x="64" y="24" width="8" height="8" fill="rgb(177,177,177)"/>
<rect x="64" y="32" width="8" height="8" fill="rgb(157,157,157)"/>
<rect x="64" y="40" width="8" height="8" fill="rgb(137,137,137)"/>
<rect x="64" y="48" width="8" height="8" fill="rgb(118,118,118)"/>
<rect x="64" y="56" width="8" height="8" fill="rgb(78,78,78)"/>
<rect x="64" y="64" width="8" height="8" fill="rgb(98,98,98)"/>
<rect x="64" y="72" width="8" height="8" fill="rgb(39,39,39)"/>
<rect x="64" y="80" width="8" height="8" fill="rgb(0,0,0)"/>
<rect x="64" y="88" width="8" height="8" fill="rgb(20,20,20)"/>
<rect x="64" y="96" width="8" height="8" fill="rgb(59,59,59)"/>
<rect x="72" y="0" width="8" height="8" fill="rgb(235,235,235)"/>
<rect x="72" y="8" width="8" height="8" fill="rgb(216,216,216)"/>
<rect x="72" y="16" width="8" height="8" fill="rgb(196,196,196)"/>
<rect x="72" y="24" width="8" height="8" fill="rgb(177,177,177)"/>
<rect x="72" y="32" width="8" height="8" fill="rgb(157,157,157)"/>
<rect x="72" y="40" width="8" height="8" fill="rgb(137,137,137)"/>
<rect x="72" y="48" width="8" height="8" fill="rgb(118,118,118)"/>
<rect x="72" y="56" width="8" height="8" fill="rgb(98,98,98)"/>
<rect x="72" y="64" width="8" height="8" fill="rgb(78,78,78)"/>
<rect x="72" y="72" width="8" height="8" fill="rgb(39,39,39)"/>
<rect x="72" y="80" width="8" height="8" fill="rgb(0,0,0)"/>
<rect x="72" y="88" width="8" height="8" fill="rgb(20,20,20)"/>
<rect x="72" y="96" width="8" height="8" fill="rgb(59,59,59)"/>
<rect x="80" y="0" width="8" height="8" fill="rgb(235,235,235)"/>
<rect x="80" y="8" width="8" height="8" fill="rgb(216,216,216)"/>
<rect x="80" y="16" width="8" height="8" fill="rgb(196,196,196)"/>
<rect x="80" y="24" width="8" height="8" fill="rgb(177,177,177)"/>
<rect x="80" y="32" width="8" height="8" fill="rgb(157,157,157)"/>
<rect x="80" y="40" width="8" height="8" fill="rgb(137,137,137)"/>
<rect x="80" y="48" width="8" height="8" fill="rgb(118,118,118)"/>
<rect x="80" y="56" width="8" height="8" fill="rgb(98,98,98)"/>
<rect x="80" y="64" width="8" height="8" fill="rgb(78,78,78)"/>
<rect x="80" y="72" width="8" height="8" fill="rgb(59,59,59)"/>
<rect x="80" y="80" width="8" height="8" fill="rgb(0,0,0)"/>
<rect x="80" y="88" width="8" height="8" fill="rgb(20,20,20)"/>
<rect x="80" y="96" width="8" height="8" fill="rgb(39,39,39)"/>
<rect x="88" y="0" width="8" height="8" fill="rgb(235,235,235)"/>
<rect x="88" y="8" width="8" height="8" fill="rgb(216,216,216)"/>
<rect x="88" y="16" width="8" height="8" fill="rgb(196,196,196)"/>
<rect x="88" y="24" width="8" height="8" fill="rgb(177,177,177)"/>
<rect x="88" y="32" width="8" height="8" fill="rgb(157,157,157)"/>
<rect x="88" y="40" width="8" height="8" fill="rgb(137,137,137)"/>
<rect x="88" y="48" width="8" height="8" fill="rgb(118,118,118)"/>
<rect x="88" y="56" width="8" height="8" fill="rgb(98,98,98)"/>
<rect x="88" y="64" width="8" height="8" fill="rgb(78,78,78)"/>
<rect x="88" y="72" width="8" height="8" fill="rgb(59,59,59)"/>
<rect x="88" y="80" width="8" height="8" fill="rgb(39,39,39)"/>
<rect x="88" y="88" width="8" height="8" fill="rgb(20,20,20)"/>
<rect x="88" y="96" width="8" height="8" fill="rgb(0,0,0)"/>
</g>
</svg>