<svg xmlns="http://www.w3.org/2000/svg" width="161.8" height="100.0" viewBox="4 -3 172 110">
<g fill="none" stroke="black" stroke-width="128.5400%" transform="translate(0, 104.2010) scale(0.0039, -0.0039)">
<polyline points="2189,745 4379,1644 6568,2716 8757,3709 10946,4969 13136,6039 15325,7296 17514,8650 19704,9965 21893,11115 24082,11978 26271,13914 28461,14947 30650,16843 32839,19024 35029,19447 37218,20320 39407,23168 41596,23151 43786,26248" />
<polyline points="2189,540 4379,1284 6568,2108 8757,2964 10946,3827 13136,4801 15325,5752 17514,6729 19704,7722 21893,8694 24082,9747 26271,10794 28461,11833 30650,12909 32839,13961 35029,15051 37218,16131 39407,17233 41596,18320 43786,19383" />
</g>
</svg>