<svg xmlns="http://www.w3.org/2000/svg" width="161.8" height="100.0" viewBox="-1.70 -5.00 171.80 110.00">
<g fill="none" stroke="black" stroke-width="0.0300%" transform="translate(0, 100.0000) scale(16.6667, -16.6667)">
<circle cx="0.20" cy="0.00" r="0.03" />
<polyline points="0.20,0.00 0.40,0.00 0.59,0.00 0.79,0.00 0.99,0.00 1.19,0.00 1.39,0.00 1.59,1.00 1.78,1.00 1.98,1.00 2.18,1.00 2.38,1.00 2.58,1.00 2.77,1.00 2.97,1.00 3.17,2.00 3.37,2.00 3.57,2.00 3.76,2.00 3.96,2.00 4.16,2.00 4.36,2.00 4.56,2.00 4.76,3.00 4.95,3.00 5.15,3.00 5.35,3.00 5.55,3.00 5.75,3.00 5.94,3.00 6.14,3.00 6.34,4.00 6.54,4.00 6.74,4.00 6.93,4.00 7.13,4.00 7.33,4.00 7.53,4.00 7.73,4.00 7.93,5.00 8.12,5.00 8.32,5.00 8.52,5.00 8.72,5.00 8.92,5.00 9.11,5.00 9.31,5.00 9.51,6.00 9.71,6.00 9.91,6.00" />
</g>
</svg>