<svg xmlns="http://www.w3.org/2000/svg" width="160.5" height="100.0" viewBox="-2 -5 170 110">
<g fill="none" stroke="black" stroke-width="14.4000%" transform="translate(0, 100.0000) scale(0.0347, -0.0347)">
<line x1="96" y1="0" x2="96" y2="24" />
<line x1="193" y1="0" x2="193" y2="27" />
<line x1="289" y1="0" x2="289" y2="30" />
<line x1="385" y1="0" x2="385" y2="32" />
<line x1="481" y1="0" x2="481" y2="36" />
<line x1="578" y1="0" x2="578" y2="40" />
<line x1="674" y1="0" x2="674" y2="45" />
<line x1="770" y1="0" x2="770" y2="48" />
<line x1="866" y1="0" x2="866" y2="54" />
<line x1="963" y1="0" x2="963" y2="60" />
<line x1="1059" y1="0" x2="1059" y2="64" />
<line x1="1155" y1="0" x2="1155" y2="72" />
<line x1="1252" y1="0" x2="1252" y2="80" />
<line x1="1348" y1="0" x2="1348" y2="90" />
<line x1="1444" y1="0" x2="1444" y2="96" />
<line x1="1540" y1="0" x2="1540" y2="108" />
<line x1="1637" y1="0" x2="1637" y2="120" />
<line x1="1733" y1="0" x2="1733" y2="128" />
<line x1="1829" y1="0" x2="1829" y2="144" />
<line x1="1925" y1="0" x2="1925" y2="160" />
<line x1="2022" y1="0" x2="2022" y2="180" />
<line x1="2118" y1="0" x2="2118" y2="192" />
<line x1="2214" y1="0" x2="2214" y2="216" />
<line x1="2311" y1="0" x2="2311" y2="240" />
<line x1="2407" y1="0" x2="2407" y2="256" />
<line x1="2503" y1="0" x2="2503" y2="288" />
<line x1="2599" y1="0" x2="2599" y2="320" />
<line x1="2696" y1="0" x2="2696" y2="360" />
<line x1="2792" y1="0" x2="2792" y2="384" />
<line x1="2888" y1="0" x2="2888" y2="432" />
<line x1="2984" y1="0" x2="2984" y2="480" />
<line x1="3081" y1="0" x2="3081" y2="512" />
<line x1="3177" y1="0" x2="3177" y2="576" />
<line x1="3273" y1="0" x2="3273" y2="640" />
<line x1="3370" y1="0" x2="3370" y2="720" />
<line x1="3466" y1="0" x2="3466" y2="768" />
<line x1="3562" y1="0" x2="3562" y2="864" />
<line x1="3658" y1="0" x2="3658" y2="960" />
<line x1="3755" y1="0" x2="3755" y2="1024" />
<line x1="3851" y1="0" x2="3851" y2="1152" />
<line x1="3947" y1="0" x2="3947" y2="1280" />
<line x1="4043" y1="0" x2="4043" y2="1440" />
<line x1="4140" y1="0" x2="4140" y2="1536" />
<line x1="4236" y1="0" x2="4236" y2="1728" />
<line x1="4332" y1="0" x2="4332" y2="1920" />
<line x1="4429" y1="0" x2="4429" y2="2048" />
<line x1="4525" y1="0" x2="4525" y2="2304" />
<line x1="4621" y1="0" x2="4621" y2="2560" />
<line x1="4717" y1="0" x2="4717" y2="2880" />
</g>
</svg>