<svg xmlns="http://www.w3.org/2000/svg" width="161.8" height="100.0" viewBox="-5.00 -55.00 171.80 110.00">
<g fill="none" stroke="black" stroke-width="0.0900%" transform="translate(0, 0.0000) scale(5.5556, -5.5556)">
<circle cx="0.00" cy="0.00" r="0.09" />
<circle cx="0.00" cy="9.00" r="0.09" />
<polyline points="0.00,0.00 0.29,0.00 0.58,0.00 0.87,0.00 1.16,0.00 1.46,0.00 1.75,0.00 2.04,0.00 2.33,0.00 2.62,0.00 2.91,0.00 3.20,0.00 3.49,0.00 3.79,0.00 4.08,0.00 4.37,0.00 4.66,0.00 4.95,0.00 5.24,0.00 5.53,0.00 5.82,0.00 6.12,0.00 6.41,0.00 6.70,0.00 6.99,0.00 7.28,0.00 7.57,0.00 7.86,0.00 8.15,0.00 8.45,0.00 8.74,0.00 9.03,-1.00 9.32,-1.00 9.61,-1.00 9.90,-1.00 10.19,-1.00 10.48,-1.00 10.78,-2.00 11.07,-2.00 11.36,-2.00 11.65,-3.00 11.94,-3.00 12.23,-4.00 12.52,-5.00 12.81,-6.00 13.11,-8.00 13.40,-9.00 13.69,-9.00 13.98,-9.00 14.27,-9.00 14.56,9.00 14.85,9.00 15.14,9.00 15.44,9.00 15.73,9.00 16.02,9.00 16.31,9.00 16.60,9.00 16.89,8.00 17.18,7.00 17.47,7.00 17.77,6.00 18.06,6.00 18.35,6.00 18.64,5.00 18.93,5.00 19.22,5.00 19.51,5.00 19.80,5.00 20.10,5.00 20.39,4.00 20.68,4.00 20.97,4.00 21.26,4.00 21.55,4.00 21.84,4.00 22.13,4.00 22.43,4.00 22.72,4.00 23.01,4.00 23.30,4.00 23.59,4.00 23.88,4.00 24.17,4.00 24.46,4.00 24.76,4.00 25.05,4.00 25.34,4.00 25.63,4.00 25.92,4.00 26.21,4.00 26.50,4.00 26.79,4.00 27.09,4.00 27.38,4.00 27.67,4.00 27.96,4.00 28.25,4.00 28.54,4.00 28.83,4.00 29.12,4.00" />
</g>
</svg>