<svg xmlns="http://www.w3.org/2000/svg" width="161.8" height="100.0" viewBox="-3.398 -55.000 171.803 110.000">
<g fill="none" stroke="black" stroke-width="0.0100%" transform="translate(0, 0.0000) scale(50.0000, -50.0000)">
<line x1="0.032" y1="0.000" x2="0.032" y2="1.000" />
<line x1="0.064" y1="0.000" x2="0.064" y2="1.000" />
<line x1="0.096" y1="0.000" x2="0.096" y2="-1.000" />
<line x1="0.128" y1="0.000" x2="0.128" y2="1.000" />

<line x1="0.192" y1="0.000" x2="0.192" y2="1.000" />
<line x1="0.224" y1="0.000" x2="0.224" y2="1.000" />
<line x1="0.256" y1="0.000" x2="0.256" y2="1.000" />
<line x1="0.288" y1="0.000" x2="0.288" y2="-1.000" />
<line x1="0.320" y1="0.000" x2="0.320" y2="-1.000" />
<line x1="0.352" y1="0.000" x2="0.352" y2="1.000" />
<line x1="0.384" y1="0.000" x2="0.384" y2="-1.000" />

<line x1="0.449" y1="0.000" x2="0.449" y2="1.000" />
<line x1="0.481" y1="0.000" x2="0.481" y2="-1.000" />
<line x1="0.513" y1="0.000" x2="0.513" y2="1.000" />
<line x1="0.545" y1="0.000" x2="0.545" y2="1.000" />

<line x1="0.609" y1="0.000" x2="0.609" y2="-1.000" />
<line x1="0.641" y1="0.000" x2="0.641" y2="1.000" />


<line x1="0.737" y1="0.000" x2="0.737" y2="1.000" />

<line x1="0.801" y1="0.000" x2="0.801" y2="1.000" />
<line x1="0.833" y1="0.000" x2="0.833" y2="1.000" />
<line x1="0.865" y1="0.000" x2="0.865" y2="1.000" />
<line x1="0.897" y1="0.000" x2="0.897" y2="-1.000" />
<line x1="0.929" y1="0.000" x2="0.929" y2="1.000" />
<line x1="0.961" y1="0.000" x2="0.961" y2="1.000" />

<line x1="1.025" y1="0.000" x2="1.025" y2="1.000" />
<line x1="1.057" y1="0.000" x2="1.057" y2="1.000" />
<line x1="1.089" y1="0.000" x2="1.089" y2="1.000" />
<line x1="1.121" y1="0.000" x2="1.121" y2="1.000" />
<line x1="1.153" y1="0.000" x2="1.153" y2="-1.000" />
<line x1="1.185" y1="0.000" x2="1.185" y2="-1.000" />
<line x1="1.218" y1="0.000" x2="1.218" y2="-1.000" />
<line x1="1.250" y1="0.000" x2="1.250" y2="1.000" />
<line x1="1.282" y1="0.000" x2="1.282" y2="-1.000" />
<line x1="1.314" y1="0.000" x2="1.314" y2="-1.000" />

<line x1="1.378" y1="0.000" x2="1.378" y2="1.000" />
<line x1="1.410" y1="0.000" x2="1.410" y2="-1.000" />
<line x1="1.442" y1="0.000" x2="1.442" y2="-1.000" />
<line x1="1.474" y1="0.000" x2="1.474" y2="1.000" />
<line x1="1.506" y1="0.000" x2="1.506" y2="1.000" />
<line x1="1.538" y1="0.000" x2="1.538" y2="-1.000" />

<line x1="1.602" y1="0.000" x2="1.602" y2="-1.000" />
<line x1="1.634" y1="0.000" x2="1.634" y2="1.000" />
<line x1="1.666" y1="0.000" x2="1.666" y2="-1.000" />


<line x1="1.762" y1="0.000" x2="1.762" y2="1.000" />
<line x1="1.794" y1="0.000" x2="1.794" y2="-1.000" />

<line x1="1.858" y1="0.000" x2="1.858" y2="1.000" />
<line x1="1.890" y1="0.000" x2="1.890" y2="1.000" />
<line x1="1.922" y1="0.000" x2="1.922" y2="-1.000" />
<line x1="1.954" y1="0.000" x2="1.954" y2="1.000" />
<line x1="1.986" y1="0.000" x2="1.986" y2="-1.000" />
<line x1="2.019" y1="0.000" x2="2.019" y2="1.000" />
<line x1="2.051" y1="0.000" x2="2.051" y2="-1.000" />
<line x1="2.083" y1="0.000" x2="2.083" y2="1.000" />

<line x1="2.147" y1="0.000" x2="2.147" y2="1.000" />
<line x1="2.179" y1="0.000" x2="2.179" y2="-1.000" />
<line x1="2.211" y1="0.000" x2="2.211" y2="1.000" />
<line x1="2.243" y1="0.000" x2="2.243" y2="1.000" />
<line x1="2.275" y1="0.000" x2="2.275" y2="1.000" />

<line x1="2.339" y1="0.000" x2="2.339" y2="-1.000" />
<line x1="2.371" y1="0.000" x2="2.371" y2="-1.000" />
<line x1="2.403" y1="0.000" x2="2.403" y2="1.000" />

<line x1="2.467" y1="0.000" x2="2.467" y2="-1.000" />

<line x1="2.531" y1="0.000" x2="2.531" y2="1.000" />

<line x1="2.595" y1="0.000" x2="2.595" y2="-1.000" />
<line x1="2.627" y1="0.000" x2="2.627" y2="1.000" />
<line x1="2.659" y1="0.000" x2="2.659" y2="1.000" />


<line x1="2.755" y1="0.000" x2="2.755" y2="-1.000" />
<line x1="2.788" y1="0.000" x2="2.788" y2="1.000" />



<line x1="2.916" y1="0.000" x2="2.916" y2="1.000" />


<line x1="3.012" y1="0.000" x2="3.012" y2="1.000" />
<line x1="3.044" y1="0.000" x2="3.044" y2="1.000" />

<line x1="3.108" y1="0.000" x2="3.108" y2="1.000" />
<line x1="3.140" y1="0.000" x2="3.140" y2="-1.000" />
<line x1="3.172" y1="0.000" x2="3.172" y2="1.000" />

<line x1="3.236" y1="0.000" x2="3.236" y2="1.000" />

</g>
</svg>