<svg xmlns="http://www.w3.org/2000/svg" width="161.8" height="100.0" viewBox="-0.95 -5.00 171.80 110.00">
<g fill="none" stroke="black" stroke-width="0.0200%" transform="translate(0, 100.0000) scale(25.0000, -25.0000)">
<circle cx="0.16" cy="0.00" r="0.02" />

<line x1="0.32" y1="0.00" x2="0.32" y2="1.00" />
<line x1="0.49" y1="0.00" x2="0.49" y2="2.00" />
<line x1="0.65" y1="0.00" x2="0.65" y2="3.00" />
<line x1="0.81" y1="0.00" x2="0.81" y2="4.00" />

<line x1="1.13" y1="0.00" x2="1.13" y2="1.00" />
<line x1="1.29" y1="0.00" x2="1.29" y2="2.00" />
<line x1="1.46" y1="0.00" x2="1.46" y2="3.00" />
<line x1="1.62" y1="0.00" x2="1.62" y2="4.00" />

<line x1="1.94" y1="0.00" x2="1.94" y2="1.00" />
<line x1="2.10" y1="0.00" x2="2.10" y2="2.00" />
<line x1="2.27" y1="0.00" x2="2.27" y2="3.00" />
<line x1="2.43" y1="0.00" x2="2.43" y2="4.00" />

<line x1="2.75" y1="0.00" x2="2.75" y2="1.00" />
<line x1="2.91" y1="0.00" x2="2.91" y2="2.00" />
<line x1="3.07" y1="0.00" x2="3.07" y2="3.00" />
<line x1="3.24" y1="0.00" x2="3.24" y2="4.00" />

<line x1="3.56" y1="0.00" x2="3.56" y2="1.00" />
<line x1="3.72" y1="0.00" x2="3.72" y2="2.00" />
<line x1="3.88" y1="0.00" x2="3.88" y2="3.00" />
<line x1="4.05" y1="0.00" x2="4.05" y2="4.00" />

<line x1="4.37" y1="0.00" x2="4.37" y2="1.00" />
<line x1="4.53" y1="0.00" x2="4.53" y2="2.00" />
<line x1="4.69" y1="0.00" x2="4.69" y2="3.00" />
<line x1="4.85" y1="0.00" x2="4.85" y2="4.00" />

<line x1="5.18" y1="0.00" x2="5.18" y2="1.00" />
<line x1="5.34" y1="0.00" x2="5.34" y2="2.00" />
<line x1="5.50" y1="0.00" x2="5.50" y2="3.00" />
<line x1="5.66" y1="0.00" x2="5.66" y2="4.00" />

<line x1="5.99" y1="0.00" x2="5.99" y2="1.00" />
<line x1="6.15" y1="0.00" x2="6.15" y2="2.00" />
<line x1="6.31" y1="0.00" x2="6.31" y2="3.00" />
<line x1="6.47" y1="0.00" x2="6.47" y2="4.00" />

</g>
</svg>