<svg xmlns="http://www.w3.org/2000/svg" width="100.0" height="100.0" viewBox="-55.0 -55.0 110.0 110.0">
<g fill="none" stroke="black" stroke-width="1.0000%" transform="translate(0, 0.0000) scale(0.5000, -0.5000)">
<g stroke="rgb(166,166,166)" >
<circle cx="0.0" cy="0.0" r="0.0" />
<circle cx="0.0" cy="0.0" r="20.0" />
<circle cx="0.0" cy="0.0" r="40.0" />
<circle cx="0.0" cy="0.0" r="60.0" />
<circle cx="0.0" cy="0.0" r="80.0" />
<circle cx="0.0" cy="0.0" r="100.0" />
</g>
<g stroke="rgb(166,166,166)" >
<line x1="0.0" y1="0.0" x2="0.0" y2="100.0" />
<line x1="0.0" y1="0.0" x2="78.2" y2="62.3" />
<line x1="0.0" y1="0.0" x2="97.5" y2="-22.3" />
<line x1="0.0" y1="0.0" x2="43.4" y2="-90.1" />
<line x1="0.0" y1="0.0" x2="-43.4" y2="-90.1" />
<line x1="0.0" y1="0.0" x2="-97.5" y2="-22.3" />
<line x1="0.0" y1="0.0" x2="-78.2" y2="62.3" />
</g>
<polyline points="0.0,5.6 4.3,3.5 10.8,-2.5 2.4,-5.0 -7.2,-15.0 -9.7,-2.2 -13.9,11.1 0.0,5.6" />
<polyline points="0.0,16.7 26.1,20.8 21.7,-4.9 9.6,-20.0 -9.6,-20.0 -23.8,-5.4 -29.5,23.6 0.0,16.7" />
<polyline points="0.0,27.8 33.0,26.3 27.1,-6.2 16.9,-35.0 -12.1,-25.0 -27.1,-6.2 -31.3,24.9 0.0,27.8" />
<polyline points="0.0,61.1 40.8,32.6 43.3,-9.9 24.1,-50.1 -20.7,-43.0 -48.7,-11.1 -53.9,43.0 0.0,61.1" />
<polyline points="0.0,83.3 47.8,38.1 54.2,-12.4 31.3,-65.1 -23.1,-48.1 -54.2,-12.4 -56.5,45.0 0.0,83.3" />
<polyline points="0.0,88.9 59.1,47.1 65.0,-14.8 36.2,-75.1 -31.3,-65.1 -75.8,-17.3 -66.0,52.7 0.0,88.9" />
<polyline points="0.0,100.0 78.2,62.3 86.7,-19.8 43.4,-90.1 -39.5,-82.1 -96.4,-22.0 -76.4,61.0 0.0,100.0" />
</g>
</svg>