<svg xmlns="http://www.w3.org/2000/svg" width="100.0" height="100.0" viewBox="-55.0 -55.0 110.0 110.0">
<g fill="none" stroke="black" stroke-width="1.0000%" transform="translate(0, 0.0000) scale(0.5000, -0.5000)">
<g stroke="rgb(166,166,166)" >
<circle cx="0.0" cy="0.0" r="0.0" />
<circle cx="0.0" cy="0.0" r="20.0" />
<circle cx="0.0" cy="0.0" r="40.0" />
<circle cx="0.0" cy="0.0" r="60.0" />
<circle cx="0.0" cy="0.0" r="80.0" />
<circle cx="0.0" cy="0.0" r="100.0" />
</g>
<g stroke="rgb(166,166,166)" >
<line x1="0.0" y1="0.0" x2="0.0" y2="100.0" />
<line x1="0.0" y1="0.0" x2="86.6" y2="50.0" />
<line x1="0.0" y1="0.0" x2="86.6" y2="-50.0" />
<line x1="0.0" y1="0.0" x2="-0.0" y2="-100.0" />
<line x1="0.0" y1="0.0" x2="-86.6" y2="-50.0" />
<line x1="0.0" y1="0.0" x2="-86.6" y2="50.0" />
</g>
<polyline points="0.0,83.3 65.0,37.5 28.9,-16.7 -0.0,-33.3 -36.1,-20.8 -28.9,16.7 0.0,83.3" />
<polyline points="0.0,75.0 28.9,16.7 86.6,-50.0 -0.0,-41.7 -50.5,-29.2 -21.7,12.5 0.0,75.0" />
</g>
</svg>