<svg xmlns="http://www.w3.org/2000/svg" width="161.7" height="100.0" viewBox="-3 -5 172 110">
<g fill="none" stroke="black" stroke-width="10.9350%" transform="translate(0, 100.0000) scale(0.0457, -0.0457)">
<line x1="42" y1="0" x2="42" y2="1" />
<line x1="84" y1="0" x2="84" y2="2" />
<line x1="126" y1="0" x2="126" y2="3" />
<line x1="168" y1="0" x2="168" y2="8" />
<line x1="211" y1="0" x2="211" y2="5" />
<line x1="253" y1="0" x2="253" y2="6" />
<line x1="295" y1="0" x2="295" y2="7" />
<line x1="337" y1="0" x2="337" y2="32" />
<line x1="379" y1="0" x2="379" y2="27" />
<line x1="421" y1="0" x2="421" y2="10" />
<line x1="463" y1="0" x2="463" y2="11" />
<line x1="505" y1="0" x2="505" y2="24" />
<line x1="547" y1="0" x2="547" y2="13" />
<line x1="590" y1="0" x2="590" y2="14" />
<line x1="632" y1="0" x2="632" y2="15" />
<line x1="674" y1="0" x2="674" y2="128" />
<line x1="716" y1="0" x2="716" y2="17" />
<line x1="758" y1="0" x2="758" y2="54" />
<line x1="800" y1="0" x2="800" y2="19" />
<line x1="842" y1="0" x2="842" y2="40" />
<line x1="884" y1="0" x2="884" y2="21" />
<line x1="926" y1="0" x2="926" y2="22" />
<line x1="968" y1="0" x2="968" y2="23" />
<line x1="1011" y1="0" x2="1011" y2="96" />
<line x1="1053" y1="0" x2="1053" y2="125" />
<line x1="1095" y1="0" x2="1095" y2="26" />
<line x1="1137" y1="0" x2="1137" y2="243" />
<line x1="1179" y1="0" x2="1179" y2="56" />
<line x1="1221" y1="0" x2="1221" y2="29" />
<line x1="1263" y1="0" x2="1263" y2="30" />
<line x1="1305" y1="0" x2="1305" y2="31" />
<line x1="1347" y1="0" x2="1347" y2="512" />
<line x1="1390" y1="0" x2="1390" y2="33" />
<line x1="1432" y1="0" x2="1432" y2="34" />
<line x1="1474" y1="0" x2="1474" y2="35" />
<line x1="1516" y1="0" x2="1516" y2="216" />
<line x1="1558" y1="0" x2="1558" y2="37" />
<line x1="1600" y1="0" x2="1600" y2="38" />
<line x1="1642" y1="0" x2="1642" y2="39" />
<line x1="1684" y1="0" x2="1684" y2="160" />
<line x1="1726" y1="0" x2="1726" y2="41" />
<line x1="1769" y1="0" x2="1769" y2="42" />
<line x1="1811" y1="0" x2="1811" y2="43" />
<line x1="1853" y1="0" x2="1853" y2="88" />
<line x1="1895" y1="0" x2="1895" y2="135" />
<line x1="1937" y1="0" x2="1937" y2="46" />
<line x1="1979" y1="0" x2="1979" y2="47" />
<line x1="2021" y1="0" x2="2021" y2="384" />
<line x1="2063" y1="0" x2="2063" y2="343" />
<line x1="2105" y1="0" x2="2105" y2="250" />
<line x1="2147" y1="0" x2="2147" y2="51" />
<line x1="2190" y1="0" x2="2190" y2="104" />
<line x1="2232" y1="0" x2="2232" y2="53" />
<line x1="2274" y1="0" x2="2274" y2="486" />
<line x1="2316" y1="0" x2="2316" y2="55" />
<line x1="2358" y1="0" x2="2358" y2="224" />
<line x1="2400" y1="0" x2="2400" y2="57" />
<line x1="2442" y1="0" x2="2442" y2="58" />
<line x1="2484" y1="0" x2="2484" y2="59" />
<line x1="2526" y1="0" x2="2526" y2="120" />
<line x1="2569" y1="0" x2="2569" y2="61" />
<line x1="2611" y1="0" x2="2611" y2="62" />
<line x1="2653" y1="0" x2="2653" y2="189" />
<line x1="2695" y1="0" x2="2695" y2="2048" />
<line x1="2737" y1="0" x2="2737" y2="65" />
<line x1="2779" y1="0" x2="2779" y2="66" />
<line x1="2821" y1="0" x2="2821" y2="67" />
<line x1="2863" y1="0" x2="2863" y2="136" />
<line x1="2905" y1="0" x2="2905" y2="69" />
<line x1="2948" y1="0" x2="2948" y2="70" />
<line x1="2990" y1="0" x2="2990" y2="71" />
<line x1="3032" y1="0" x2="3032" y2="864" />
<line x1="3074" y1="0" x2="3074" y2="73" />
<line x1="3116" y1="0" x2="3116" y2="74" />
<line x1="3158" y1="0" x2="3158" y2="375" />
<line x1="3200" y1="0" x2="3200" y2="152" />
<line x1="3242" y1="0" x2="3242" y2="77" />
<line x1="3284" y1="0" x2="3284" y2="78" />
<line x1="3326" y1="0" x2="3326" y2="79" />
<line x1="3369" y1="0" x2="3369" y2="640" />
<line x1="3411" y1="0" x2="3411" y2="2187" />
<line x1="3453" y1="0" x2="3453" y2="82" />
<line x1="3495" y1="0" x2="3495" y2="83" />
<line x1="3537" y1="0" x2="3537" y2="168" />
<line x1="3579" y1="0" x2="3579" y2="85" />
</g>
</svg>