<svg xmlns="http://www.w3.org/2000/svg" width="161.8" height="100.0" viewBox="-4.46 -5.00 171.80 110.00">
<g fill="none" stroke="black" stroke-width="0.0285%" transform="translate(0, 100.0000) scale(17.5425, -17.5425)">
<circle cx="0.03" cy="0.00" r="0.03" />
<circle cx="0.06" cy="0.69" r="0.03" />
<circle cx="0.09" cy="1.10" r="0.03" />
<circle cx="0.12" cy="0.69" r="0.03" />
<circle cx="0.15" cy="1.61" r="0.03" />
<circle cx="0.19" cy="1.79" r="0.03" />
<circle cx="0.22" cy="1.95" r="0.03" />
<circle cx="0.25" cy="0.69" r="0.03" />
<circle cx="0.28" cy="1.10" r="0.03" />
<circle cx="0.31" cy="2.30" r="0.03" />
<circle cx="0.34" cy="2.40" r="0.03" />
<circle cx="0.37" cy="1.79" r="0.03" />
<circle cx="0.40" cy="2.56" r="0.03" />
<circle cx="0.43" cy="2.64" r="0.03" />
<circle cx="0.46" cy="2.71" r="0.03" />
<circle cx="0.49" cy="0.69" r="0.03" />
<circle cx="0.52" cy="2.83" r="0.03" />
<circle cx="0.56" cy="1.79" r="0.03" />
<circle cx="0.59" cy="2.94" r="0.03" />
<circle cx="0.62" cy="2.30" r="0.03" />
<circle cx="0.65" cy="3.04" r="0.03" />
<circle cx="0.68" cy="3.09" r="0.03" />
<circle cx="0.71" cy="3.14" r="0.03" />
<circle cx="0.74" cy="1.79" r="0.03" />
<circle cx="0.77" cy="1.61" r="0.03" />
<circle cx="0.80" cy="3.26" r="0.03" />
<circle cx="0.83" cy="1.10" r="0.03" />
<circle cx="0.86" cy="2.64" r="0.03" />
<circle cx="0.89" cy="3.37" r="0.03" />
<circle cx="0.93" cy="3.40" r="0.03" />
<circle cx="0.96" cy="3.43" r="0.03" />
<circle cx="0.99" cy="0.69" r="0.03" />
<circle cx="1.02" cy="3.50" r="0.03" />
<circle cx="1.05" cy="3.53" r="0.03" />
<circle cx="1.08" cy="3.56" r="0.03" />
<circle cx="1.11" cy="1.79" r="0.03" />
<circle cx="1.14" cy="3.61" r="0.03" />
<circle cx="1.17" cy="3.64" r="0.03" />
<circle cx="1.20" cy="3.66" r="0.03" />
<circle cx="1.23" cy="2.30" r="0.03" />
<circle cx="1.26" cy="3.71" r="0.03" />
<circle cx="1.30" cy="3.74" r="0.03" />
<circle cx="1.33" cy="3.76" r="0.03" />
<circle cx="1.36" cy="3.09" r="0.03" />
<circle cx="1.39" cy="2.71" r="0.03" />
<circle cx="1.42" cy="3.83" r="0.03" />
<circle cx="1.45" cy="3.85" r="0.03" />
<circle cx="1.48" cy="1.79" r="0.03" />
<circle cx="1.51" cy="1.95" r="0.03" />
<circle cx="1.54" cy="2.30" r="0.03" />
<circle cx="1.57" cy="3.93" r="0.03" />
<circle cx="1.60" cy="3.26" r="0.03" />
<circle cx="1.63" cy="3.97" r="0.03" />
<circle cx="1.67" cy="1.79" r="0.03" />
<circle cx="1.70" cy="4.01" r="0.03" />
<circle cx="1.73" cy="2.64" r="0.03" />
<circle cx="1.76" cy="4.04" r="0.03" />
<circle cx="1.79" cy="4.06" r="0.03" />
<circle cx="1.82" cy="4.08" r="0.03" />
<circle cx="1.85" cy="3.40" r="0.03" />
<circle cx="1.88" cy="4.11" r="0.03" />
<circle cx="1.91" cy="4.13" r="0.03" />
<circle cx="1.94" cy="3.04" r="0.03" />
<circle cx="1.97" cy="0.69" r="0.03" />
<circle cx="2.01" cy="4.17" r="0.03" />
<circle cx="2.04" cy="4.19" r="0.03" />
<circle cx="2.07" cy="4.20" r="0.03" />
<circle cx="2.10" cy="3.53" r="0.03" />
<circle cx="2.13" cy="4.23" r="0.03" />
<circle cx="2.16" cy="4.25" r="0.03" />
<circle cx="2.19" cy="4.26" r="0.03" />
<circle cx="2.22" cy="1.79" r="0.03" />
<circle cx="2.25" cy="4.29" r="0.03" />
<circle cx="2.28" cy="4.30" r="0.03" />
<circle cx="2.31" cy="2.71" r="0.03" />
<circle cx="2.34" cy="3.64" r="0.03" />
<circle cx="2.38" cy="4.34" r="0.03" />
<circle cx="2.41" cy="4.36" r="0.03" />
<circle cx="2.44" cy="4.37" r="0.03" />
<circle cx="2.47" cy="2.30" r="0.03" />
<circle cx="2.50" cy="1.10" r="0.03" />
<circle cx="2.53" cy="4.41" r="0.03" />
<circle cx="2.56" cy="4.42" r="0.03" />
<circle cx="2.59" cy="3.74" r="0.03" />
<circle cx="2.62" cy="4.44" r="0.03" />
<circle cx="2.65" cy="4.45" r="0.03" />
<circle cx="2.68" cy="4.47" r="0.03" />
<circle cx="2.71" cy="3.09" r="0.03" />
<circle cx="2.75" cy="4.49" r="0.03" />
<circle cx="2.78" cy="3.40" r="0.03" />
<circle cx="2.81" cy="4.51" r="0.03" />
<circle cx="2.84" cy="3.83" r="0.03" />
<circle cx="2.87" cy="4.53" r="0.03" />
<circle cx="2.90" cy="4.54" r="0.03" />
<circle cx="2.93" cy="4.55" r="0.03" />
<circle cx="2.96" cy="1.79" r="0.03" />
<circle cx="2.99" cy="4.57" r="0.03" />
<circle cx="3.02" cy="2.64" r="0.03" />
<circle cx="3.05" cy="3.50" r="0.03" />
<circle cx="3.08" cy="2.30" r="0.03" />
<circle cx="3.12" cy="4.62" r="0.03" />
<circle cx="3.15" cy="4.62" r="0.03" />
<circle cx="3.18" cy="4.63" r="0.03" />
<circle cx="3.21" cy="3.26" r="0.03" />
<circle cx="3.24" cy="4.65" r="0.03" />
<circle cx="3.27" cy="4.66" r="0.03" />
<circle cx="3.30" cy="4.67" r="0.03" />
<circle cx="3.33" cy="1.79" r="0.03" />
<circle cx="3.36" cy="4.69" r="0.03" />
<circle cx="3.39" cy="4.70" r="0.03" />
<circle cx="3.42" cy="4.71" r="0.03" />
<circle cx="3.45" cy="2.64" r="0.03" />
<circle cx="3.49" cy="4.73" r="0.03" />
<circle cx="3.52" cy="4.74" r="0.03" />
<circle cx="3.55" cy="4.74" r="0.03" />
<circle cx="3.58" cy="4.06" r="0.03" />
<circle cx="3.61" cy="3.66" r="0.03" />
<circle cx="3.64" cy="4.77" r="0.03" />
<circle cx="3.67" cy="4.78" r="0.03" />
<circle cx="3.70" cy="3.40" r="0.03" />
<circle cx="3.73" cy="2.40" r="0.03" />
<circle cx="3.76" cy="4.80" r="0.03" />
<circle cx="3.79" cy="4.81" r="0.03" />
<circle cx="3.83" cy="4.13" r="0.03" />
<circle cx="3.86" cy="1.61" r="0.03" />
<circle cx="3.89" cy="3.74" r="0.03" />
<circle cx="3.92" cy="4.84" r="0.03" />
<circle cx="3.95" cy="0.69" r="0.03" />
<circle cx="3.98" cy="4.86" r="0.03" />
<circle cx="4.01" cy="4.87" r="0.03" />
<circle cx="4.04" cy="4.88" r="0.03" />
<circle cx="4.07" cy="4.19" r="0.03" />
<circle cx="4.10" cy="4.89" r="0.03" />
<circle cx="4.13" cy="4.90" r="0.03" />
<circle cx="4.16" cy="2.71" r="0.03" />
<circle cx="4.20" cy="3.53" r="0.03" />
<circle cx="4.23" cy="4.92" r="0.03" />
<circle cx="4.26" cy="4.93" r="0.03" />
<circle cx="4.29" cy="4.93" r="0.03" />
<circle cx="4.32" cy="4.25" r="0.03" />
<circle cx="4.35" cy="4.95" r="0.03" />
<circle cx="4.38" cy="4.96" r="0.03" />
<circle cx="4.41" cy="4.96" r="0.03" />
<circle cx="4.44" cy="1.79" r="0.03" />
<circle cx="4.47" cy="4.98" r="0.03" />
<circle cx="4.50" cy="4.98" r="0.03" />
<circle cx="4.53" cy="3.04" r="0.03" />
<circle cx="4.57" cy="4.30" r="0.03" />
<circle cx="4.60" cy="5.00" r="0.03" />
<circle cx="4.63" cy="3.40" r="0.03" />
<circle cx="4.66" cy="5.02" r="0.03" />
<circle cx="4.69" cy="3.64" r="0.03" />
<circle cx="4.72" cy="3.93" r="0.03" />
<circle cx="4.75" cy="5.04" r="0.03" />
<circle cx="4.78" cy="5.04" r="0.03" />
<circle cx="4.81" cy="4.36" r="0.03" />
<circle cx="4.84" cy="5.06" r="0.03" />
<circle cx="4.87" cy="5.06" r="0.03" />
<circle cx="4.90" cy="5.07" r="0.03" />
<circle cx="4.94" cy="2.30" r="0.03" />
<circle cx="4.97" cy="5.08" r="0.03" />
<circle cx="5.00" cy="1.79" r="0.03" />
<circle cx="5.03" cy="5.09" r="0.03" />
<circle cx="5.06" cy="4.41" r="0.03" />
<circle cx="5.09" cy="5.11" r="0.03" />
<circle cx="5.12" cy="5.11" r="0.03" />
<circle cx="5.15" cy="5.12" r="0.03" />
<circle cx="5.18" cy="3.74" r="0.03" />
<circle cx="5.21" cy="2.56" r="0.03" />
<circle cx="5.24" cy="5.14" r="0.03" />
<circle cx="5.27" cy="4.04" r="0.03" />
<circle cx="5.31" cy="4.45" r="0.03" />
<circle cx="5.34" cy="5.15" r="0.03" />
<circle cx="5.37" cy="5.16" r="0.03" />
<circle cx="5.40" cy="3.56" r="0.03" />
<circle cx="5.43" cy="3.09" r="0.03" />
<circle cx="5.46" cy="5.18" r="0.03" />
<circle cx="5.49" cy="5.18" r="0.03" />
<circle cx="5.52" cy="5.19" r="0.03" />
<circle cx="5.55" cy="3.40" r="0.03" />
<circle cx="5.58" cy="5.20" r="0.03" />
<circle cx="5.61" cy="5.20" r="0.03" />
<circle cx="5.65" cy="5.21" r="0.03" />
<circle cx="5.68" cy="3.83" r="0.03" />
<circle cx="5.71" cy="5.22" r="0.03" />
<circle cx="5.74" cy="5.23" r="0.03" />
<circle cx="5.77" cy="5.23" r="0.03" />
<circle cx="5.80" cy="4.54" r="0.03" />
<circle cx="5.83" cy="3.04" r="0.03" />
<circle cx="5.86" cy="5.25" r="0.03" />
<circle cx="5.89" cy="5.25" r="0.03" />
<circle cx="5.92" cy="1.79" r="0.03" />
<circle cx="5.95" cy="5.26" r="0.03" />
<circle cx="5.98" cy="5.27" r="0.03" />
<circle cx="6.02" cy="5.27" r="0.03" />
<circle cx="6.05" cy="2.64" r="0.03" />
<circle cx="6.08" cy="5.28" r="0.03" />
<circle cx="6.11" cy="4.19" r="0.03" />
<circle cx="6.14" cy="5.29" r="0.03" />
<circle cx="6.17" cy="2.30" r="0.03" />
<circle cx="6.20" cy="5.30" r="0.03" />
<circle cx="6.23" cy="5.31" r="0.03" />
<circle cx="6.26" cy="5.31" r="0.03" />
<circle cx="6.29" cy="4.62" r="0.03" />
<circle cx="6.32" cy="5.32" r="0.03" />
<circle cx="6.35" cy="5.33" r="0.03" />
<circle cx="6.39" cy="4.23" r="0.03" />
<circle cx="6.42" cy="3.26" r="0.03" />
<circle cx="6.45" cy="5.34" r="0.03" />
<circle cx="6.48" cy="5.35" r="0.03" />
<circle cx="6.51" cy="5.35" r="0.03" />
<circle cx="6.54" cy="4.66" r="0.03" />
<circle cx="6.57" cy="5.36" r="0.03" />
<circle cx="6.60" cy="5.37" r="0.03" />
<circle cx="6.63" cy="5.37" r="0.03" />
<circle cx="6.66" cy="1.79" r="0.03" />
<circle cx="6.69" cy="5.38" r="0.03" />
<circle cx="6.72" cy="5.38" r="0.03" />
<circle cx="6.76" cy="5.39" r="0.03" />
<circle cx="6.79" cy="4.70" r="0.03" />
<circle cx="6.82" cy="5.40" r="0.03" />
<circle cx="6.85" cy="5.40" r="0.03" />
<circle cx="6.88" cy="5.41" r="0.03" />
<circle cx="6.91" cy="2.64" r="0.03" />
<circle cx="6.94" cy="2.71" r="0.03" />
<circle cx="6.97" cy="5.42" r="0.03" />
<circle cx="7.00" cy="5.42" r="0.03" />
<circle cx="7.03" cy="4.74" r="0.03" />
<circle cx="7.06" cy="5.43" r="0.03" />
<circle cx="7.10" cy="5.44" r="0.03" />
<circle cx="7.13" cy="5.44" r="0.03" />
<circle cx="7.16" cy="4.06" r="0.03" />
<circle cx="7.19" cy="5.45" r="0.03" />
<circle cx="7.22" cy="4.36" r="0.03" />
<circle cx="7.25" cy="5.46" r="0.03" />
<circle cx="7.28" cy="4.77" r="0.03" />
<circle cx="7.31" cy="5.47" r="0.03" />
<circle cx="7.34" cy="5.47" r="0.03" />
<circle cx="7.37" cy="5.48" r="0.03" />
<circle cx="7.40" cy="3.40" r="0.03" />
<circle cx="7.43" cy="5.48" r="0.03" />
<circle cx="7.47" cy="3.09" r="0.03" />
<circle cx="7.50" cy="1.10" r="0.03" />
<circle cx="7.53" cy="4.80" r="0.03" />
<circle cx="7.56" cy="3.56" r="0.03" />
<circle cx="7.59" cy="5.51" r="0.03" />
<circle cx="7.62" cy="5.51" r="0.03" />
<circle cx="7.65" cy="4.13" r="0.03" />
<circle cx="7.68" cy="5.52" r="0.03" />
<circle cx="7.71" cy="2.30" r="0.03" />
<circle cx="7.74" cy="5.53" r="0.03" />
<circle cx="7.77" cy="3.74" r="0.03" />
<circle cx="7.80" cy="5.53" r="0.03" />
<circle cx="7.84" cy="5.54" r="0.03" />
<circle cx="7.87" cy="5.54" r="0.03" />
<circle cx="7.90" cy="0.69" r="0.03" />
<circle cx="7.93" cy="5.55" r="0.03" />
<circle cx="7.96" cy="5.55" r="0.03" />
<circle cx="7.99" cy="5.56" r="0.03" />
<circle cx="8.02" cy="4.87" r="0.03" />
<circle cx="8.05" cy="4.47" r="0.03" />
<circle cx="8.08" cy="5.57" r="0.03" />
<circle cx="8.11" cy="5.57" r="0.03" />
<circle cx="8.14" cy="4.19" r="0.03" />
<circle cx="8.17" cy="5.58" r="0.03" />
<circle cx="8.21" cy="5.58" r="0.03" />
<circle cx="8.24" cy="5.59" r="0.03" />
<circle cx="8.27" cy="4.90" r="0.03" />
<circle cx="8.30" cy="5.59" r="0.03" />
<circle cx="8.33" cy="3.40" r="0.03" />
<circle cx="8.36" cy="5.60" r="0.03" />
<circle cx="8.39" cy="3.53" r="0.03" />
<circle cx="8.42" cy="5.61" r="0.03" />
<circle cx="8.45" cy="5.61" r="0.03" />
<circle cx="8.48" cy="4.01" r="0.03" />
<circle cx="8.51" cy="4.93" r="0.03" />
<circle cx="8.54" cy="5.62" r="0.03" />
<circle cx="8.58" cy="5.63" r="0.03" />
<circle cx="8.61" cy="4.53" r="0.03" />
<circle cx="8.64" cy="4.25" r="0.03" />
<circle cx="8.67" cy="5.64" r="0.03" />
<circle cx="8.70" cy="5.64" r="0.03" />
<circle cx="8.73" cy="5.65" r="0.03" />
<circle cx="8.76" cy="4.96" r="0.03" />
<circle cx="8.79" cy="5.65" r="0.03" />
<circle cx="8.82" cy="5.66" r="0.03" />
<circle cx="8.85" cy="5.66" r="0.03" />
<circle cx="8.88" cy="1.79" r="0.03" />
<circle cx="8.92" cy="2.83" r="0.03" />
<circle cx="8.95" cy="5.67" r="0.03" />
<circle cx="8.98" cy="5.67" r="0.03" />
<circle cx="9.01" cy="4.98" r="0.03" />
<circle cx="9.04" cy="5.68" r="0.03" />
<circle cx="9.07" cy="3.74" r="0.03" />
<circle cx="9.10" cy="5.69" r="0.03" />
<circle cx="9.13" cy="4.30" r="0.03" />
<circle cx="9.16" cy="3.50" r="0.03" />
<circle cx="9.19" cy="5.70" r="0.03" />
<circle cx="9.22" cy="5.70" r="0.03" />
<circle cx="9.25" cy="3.40" r="0.03" />
</g>
</svg>