<svg xmlns="http://www.w3.org/2000/svg" width="100.0" height="100.0" viewBox="-55.0 -55.0 110.0 110.0">
<g fill="none" stroke="black" stroke-width="1.0000%" transform="translate(0, 0.0000) scale(0.5000, -0.5000)">
<g stroke="rgb(166,166,166)" >
<circle cx="0.0" cy="0.0" r="0.0" />
<circle cx="0.0" cy="0.0" r="20.0" />
<circle cx="0.0" cy="0.0" r="40.0" />
<circle cx="0.0" cy="0.0" r="60.0" />
<circle cx="0.0" cy="0.0" r="80.0" />
<circle cx="0.0" cy="0.0" r="100.0" />
</g>
<g stroke="rgb(166,166,166)" >
<line x1="0.0" y1="0.0" x2="0.0" y2="100.0" />
<line x1="0.0" y1="0.0" x2="86.6" y2="50.0" />
<line x1="0.0" y1="0.0" x2="86.6" y2="-50.0" />
<line x1="0.0" y1="0.0" x2="-0.0" y2="-100.0" />
<line x1="0.0" y1="0.0" x2="-86.6" y2="-50.0" />
<line x1="0.0" y1="0.0" x2="-86.6" y2="50.0" />
</g>
<polyline points="0.0,69.2 86.6,50.0 33.3,-19.2 -0.0,-53.8 -20.0,-11.5 -73.3,42.3 0.0,69.2" />
<polyline points="0.0,38.5 60.0,34.6 53.3,-30.8 -0.0,-100.0 -66.6,-38.5 -60.0,34.6 0.0,38.5" />
<polyline points="0.0,46.2 46.6,26.9 26.6,-15.4 -0.0,-100.0 -20.0,-11.5 -40.0,23.1 0.0,46.2" />
<polyline points="0.0,23.1 86.6,50.0 13.3,-7.7 -0.0,-92.3 -40.0,-23.1 -73.3,42.3 0.0,23.1" />
</g>
</svg>