<svg xmlns="http://www.w3.org/2000/svg" width="161.8" height="100.0" viewBox="-3.07 -54.87 171.80 110.00">
<g fill="none" stroke="black" stroke-width="0.1091%" transform="translate(0, 0.2655) scale(4.5811, -4.5811)">
<line x1="0.42" y1="0.00" x2="0.42" y2="0.52" />
<line x1="0.84" y1="0.00" x2="0.84" y2="-1.75" />
<line x1="1.26" y1="0.00" x2="1.26" y2="2.76" />
<line x1="1.68" y1="0.00" x2="1.68" y2="-3.53" />
<line x1="2.10" y1="0.00" x2="2.10" y2="4.05" />
<line x1="2.52" y1="0.00" x2="2.52" y2="-4.14" />
<line x1="2.94" y1="0.00" x2="2.94" y2="-4.59" />
<line x1="3.36" y1="0.00" x2="3.36" y2="5.29" />
<line x1="3.78" y1="0.00" x2="3.78" y2="-5.42" />
<line x1="4.20" y1="0.00" x2="4.20" y2="-5.43" />
<line x1="4.63" y1="0.00" x2="4.63" y2="6.09" />
<line x1="5.05" y1="0.00" x2="5.05" y2="-5.93" />
<line x1="5.47" y1="0.00" x2="5.47" y2="-6.12" />
<line x1="5.89" y1="0.00" x2="5.89" y2="5.97" />
<line x1="6.31" y1="0.00" x2="6.31" y2="6.45" />
<line x1="6.73" y1="0.00" x2="6.73" y2="6.36" />
<line x1="7.15" y1="0.00" x2="7.15" y2="-7.20" />
<line x1="7.57" y1="0.00" x2="7.57" y2="6.80" />
<line x1="7.99" y1="0.00" x2="7.99" y2="7.39" />
<line x1="8.41" y1="0.00" x2="8.41" y2="-7.21" />
<line x1="8.83" y1="0.00" x2="8.83" y2="-6.99" />
<line x1="9.25" y1="0.00" x2="9.25" y2="-7.47" />
<line x1="9.67" y1="0.00" x2="9.67" y2="7.63" />
<line x1="10.09" y1="0.00" x2="10.09" y2="7.69" />
<line x1="10.51" y1="0.00" x2="10.51" y2="-7.77" />
<line x1="10.93" y1="0.00" x2="10.93" y2="7.50" />
<line x1="11.35" y1="0.00" x2="11.35" y2="-8.23" />
<line x1="11.77" y1="0.00" x2="11.77" y2="7.75" />
<line x1="12.19" y1="0.00" x2="12.19" y2="8.47" />
<line x1="12.61" y1="0.00" x2="12.61" y2="-7.83" />
<line x1="13.03" y1="0.00" x2="13.03" y2="-8.09" />
<line x1="13.46" y1="0.00" x2="13.46" y2="-8.66" />
<line x1="13.88" y1="0.00" x2="13.88" y2="8.49" />
<line x1="14.30" y1="0.00" x2="14.30" y2="8.58" />
<line x1="14.72" y1="0.00" x2="14.72" y2="-8.27" />
<line x1="15.14" y1="0.00" x2="15.14" y2="8.59" />
<line x1="15.56" y1="0.00" x2="15.56" y2="-8.62" />
<line x1="15.98" y1="0.00" x2="15.98" y2="-8.77" />
<line x1="16.40" y1="0.00" x2="16.40" y2="-8.53" />
<line x1="16.82" y1="0.00" x2="16.82" y2="8.97" />
<line x1="17.24" y1="0.00" x2="17.24" y2="8.85" />
<line x1="17.66" y1="0.00" x2="17.66" y2="8.37" />
<line x1="18.08" y1="0.00" x2="18.08" y2="-7.60" />
<line x1="18.50" y1="0.00" x2="18.50" y2="-9.26" />
<line x1="18.92" y1="0.00" x2="18.92" y2="-9.10" />
<line x1="19.34" y1="0.00" x2="19.34" y2="-9.01" />
<line x1="19.76" y1="0.00" x2="19.76" y2="9.79" />
<line x1="20.18" y1="0.00" x2="20.18" y2="8.76" />
<line x1="20.60" y1="0.00" x2="20.60" y2="-9.59" />
<line x1="21.02" y1="0.00" x2="21.02" y2="9.15" />
<line x1="21.44" y1="0.00" x2="21.44" y2="-9.60" />
<line x1="21.86" y1="0.00" x2="21.86" y2="9.29" />
<line x1="22.28" y1="0.00" x2="22.28" y2="-9.57" />
<line x1="22.71" y1="0.00" x2="22.71" y2="9.61" />
<line x1="23.13" y1="0.00" x2="23.13" y2="9.77" />
<line x1="23.55" y1="0.00" x2="23.55" y2="-9.51" />
<line x1="23.97" y1="0.00" x2="23.97" y2="9.79" />
<line x1="24.39" y1="0.00" x2="24.39" y2="-9.85" />
<line x1="24.81" y1="0.00" x2="24.81" y2="-10.08" />
<line x1="25.23" y1="0.00" x2="25.23" y2="-9.62" />
<line x1="25.65" y1="0.00" x2="25.65" y2="10.20" />
<line x1="26.07" y1="0.00" x2="26.07" y2="9.47" />
<line x1="26.49" y1="0.00" x2="26.49" y2="9.64" />
<line x1="26.91" y1="0.00" x2="26.91" y2="9.79" />
<line x1="27.33" y1="0.00" x2="27.33" y2="-9.81" />
<line x1="27.75" y1="0.00" x2="27.75" y2="-9.87" />
<line x1="28.17" y1="0.00" x2="28.17" y2="-10.55" />
<line x1="28.59" y1="0.00" x2="28.59" y2="10.37" />
<line x1="29.01" y1="0.00" x2="29.01" y2="10.03" />
<line x1="29.43" y1="0.00" x2="29.43" y2="9.65" />
<line x1="29.85" y1="0.00" x2="29.85" y2="10.35" />
<line x1="30.27" y1="0.00" x2="30.27" y2="-10.34" />
<line x1="30.69" y1="0.00" x2="30.69" y2="9.53" />
<line x1="31.11" y1="0.00" x2="31.11" y2="10.00" />
<line x1="31.54" y1="0.00" x2="31.54" y2="-10.17" />
<line x1="31.96" y1="0.00" x2="31.96" y2="-10.56" />
<line x1="32.38" y1="0.00" x2="32.38" y2="-10.31" />
<line x1="32.80" y1="0.00" x2="32.80" y2="9.91" />
<line x1="33.22" y1="0.00" x2="33.22" y2="10.94" />
<line x1="33.64" y1="0.00" x2="33.64" y2="10.04" />
<line x1="34.06" y1="0.00" x2="34.06" y2="9.58" />
<line x1="34.48" y1="0.00" x2="34.48" y2="-10.23" />
<line x1="34.90" y1="0.00" x2="34.90" y2="-10.83" />
<line x1="35.32" y1="0.00" x2="35.32" y2="10.16" />
<line x1="35.74" y1="0.00" x2="35.74" y2="-10.89" />
</g>
</svg>