<svg xmlns="http://www.w3.org/2000/svg" width="161.8" height="100.0" viewBox="-3.349 -58.353 171.803 110.000">
<g fill="none" stroke="black" stroke-width="0.0094%" transform="translate(0, -6.7050) scale(53.3525, -53.3525)">
<circle cx="0.031" cy="0.000" r="0.009" />
<polyline points="0.031,-0.007 0.062,0.016 0.093,-0.006 0.124,-0.010 0.155,-0.017 0.186,-0.003 0.217,-0.023 0.248,-0.020 0.279,0.002 0.309,0.005 0.340,0.009 0.371,-0.007 0.402,-0.002 0.433,-0.002 0.464,0.055 0.495,-0.079 0.526,-0.023 0.557,0.044 0.588,-0.075 0.619,-0.022 0.650,-0.085 0.681,0.023 0.712,0.009 0.743,-0.105 0.774,-0.002 0.805,-0.014 0.836,-0.015 0.866,-0.026 0.897,-0.003 0.928,0.035 0.959,0.008 0.990,0.080 1.021,-0.025 1.052,-0.042 1.083,-0.029 1.114,0.008 1.145,0.014 1.176,-0.024 1.207,0.015 1.238,-0.018 1.269,0.011 1.300,0.017 1.331,0.004 1.362,-0.008 1.393,-0.029 1.424,0.011 1.454,0.874 1.485,-0.007 1.516,-0.017 1.547,0.002 1.578,-0.006 1.609,0.031 1.640,0.017 1.671,0.016 1.702,0.183 1.733,0.079 1.764,-0.003 1.795,-0.012 1.826,-0.021 1.857,0.012 1.888,-0.010 1.919,0.019 1.950,-0.023 1.981,0.180 2.012,0.009 2.042,-0.050 2.073,0.035 2.104,0.341 2.135,-0.044 2.166,-0.006 2.197,0.014 2.228,0.082 2.259,0.121 2.290,-0.052 2.321,0.012 2.352,-0.216 2.383,0.087 2.414,0.000 2.445,0.015 2.476,-0.000 2.507,-0.010 2.538,-0.010 2.569,0.186 2.599,0.575 2.630,0.031 2.661,-0.094 2.692,-0.011 2.723,-1.000 2.754,0.002 2.785,-0.083 2.816,0.012 2.847,0.219 2.878,-0.022 2.909,-0.019 2.940,-0.002 2.971,0.139 3.002,-0.616 3.033,0.006 3.064,-0.009" />
</g>
</svg>