<svg xmlns="http://www.w3.org/2000/svg" width="100.0" height="100.0" viewBox="-55.017 -54.989 110.030 110.000">
<g fill="none" stroke="black" stroke-width="0.0100%" transform="translate(0, 0.0220) scale(50.0203, -50.0203)">
<circle cx="-1.000" cy="0.000" r="0.010" />
<circle cx="0.000" cy="1.000" r="0.010" />
<circle cx="-0.087" cy="0.996" r="0.010" />
<circle cx="0.439" cy="0.898" r="0.010" />
<circle cx="0.798" cy="0.603" r="0.010" />
<circle cx="0.094" cy="0.996" r="0.010" />
<circle cx="0.841" cy="0.541" r="0.010" />
<circle cx="0.803" cy="0.596" r="0.010" />
<circle cx="-0.994" cy="0.105" r="0.010" />
<circle cx="0.447" cy="0.894" r="0.010" />
<circle cx="-0.276" cy="0.961" r="0.010" />
<circle cx="-0.962" cy="0.274" r="0.010" />
<circle cx="0.987" cy="0.162" r="0.010" />
<circle cx="-0.419" cy="0.908" r="0.010" />
<circle cx="-0.575" cy="-0.818" r="0.010" />
<circle cx="0.499" cy="0.867" r="0.010" />
<circle cx="-0.964" cy="0.265" r="0.010" />
<circle cx="0.035" cy="-0.999" r="0.010" />
<circle cx="-0.898" cy="-0.441" r="0.010" />
<circle cx="-0.918" cy="0.397" r="0.010" />
<circle cx="0.121" cy="0.993" r="0.010" />
<circle cx="0.936" cy="-0.353" r="0.010" />
<circle cx="0.668" cy="-0.744" r="0.010" />
<circle cx="0.851" cy="0.525" r="0.010" />
<circle cx="0.042" cy="0.999" r="0.010" />
<circle cx="-0.998" cy="-0.066" r="0.010" />
<circle cx="0.255" cy="0.967" r="0.010" />
<circle cx="0.996" cy="-0.090" r="0.010" />
<circle cx="0.874" cy="-0.486" r="0.010" />
<circle cx="0.019" cy="1.000" r="0.010" />
<circle cx="-0.998" cy="-0.062" r="0.010" />
<circle cx="0.828" cy="-0.561" r="0.010" />
<circle cx="-0.294" cy="0.956" r="0.010" />
<circle cx="0.901" cy="-0.433" r="0.010" />
<circle cx="-0.753" cy="-0.658" r="0.010" />
<circle cx="1.000" cy="-0.017" r="0.010" />
<circle cx="0.612" cy="-0.791" r="0.010" />
<circle cx="0.936" cy="-0.353" r="0.010" />
<circle cx="-0.197" cy="-0.980" r="0.010" />
<circle cx="-0.965" cy="-0.262" r="0.010" />
<circle cx="-1.000" cy="-0.011" r="0.010" />
<circle cx="0.519" cy="-0.855" r="0.010" />
<circle cx="0.926" cy="0.376" r="0.010" />
<circle cx="-0.555" cy="0.832" r="0.010" />
<circle cx="-0.999" cy="-0.032" r="0.010" />
<circle cx="-0.990" cy="0.141" r="0.010" />
<circle cx="-0.840" cy="-0.542" r="0.010" />
<circle cx="-0.326" cy="-0.946" r="0.010" />
<circle cx="-0.616" cy="0.787" r="0.010" />
<circle cx="0.492" cy="-0.871" r="0.010" />
<circle cx="0.560" cy="-0.828" r="0.010" />
<circle cx="0.595" cy="0.804" r="0.010" />
<circle cx="-0.750" cy="0.661" r="0.010" />
<circle cx="0.598" cy="0.801" r="0.010" />
<circle cx="-0.698" cy="-0.716" r="0.010" />
<circle cx="0.918" cy="-0.397" r="0.010" />
<circle cx="0.976" cy="-0.216" r="0.010" />
<circle cx="-0.988" cy="0.157" r="0.010" />
<circle cx="0.949" cy="0.316" r="0.010" />
<circle cx="-0.899" cy="-0.438" r="0.010" />
<circle cx="0.893" cy="0.451" r="0.010" />
<circle cx="0.963" cy="-0.271" r="0.010" />
<circle cx="0.665" cy="-0.747" r="0.010" />
<circle cx="-0.965" cy="0.264" r="0.010" />
<circle cx="-0.973" cy="-0.229" r="0.010" />
<circle cx="0.681" cy="-0.732" r="0.010" />
<circle cx="0.849" cy="0.528" r="0.010" />
<circle cx="0.491" cy="0.871" r="0.010" />
</g>
</svg>