<svg xmlns="http://www.w3.org/2000/svg" width="161.8" height="100.0" viewBox="-1.70 7.50 171.80 110.00">
<g fill="none" stroke="black" stroke-width="0.0400%" transform="translate(0, 125.0000) scale(12.5000, -12.5000)">
<polyline points="0.26,1.00 0.53,2.00 0.79,1.00 1.06,2.00 1.32,3.00 1.59,4.00 1.85,5.00 2.11,6.00 2.38,7.00 2.64,8.00 2.91,9.00 3.17,8.00 3.43,9.00 3.70,8.00 3.96,9.00 4.23,8.00 4.49,9.00 4.76,8.00 5.02,7.00 5.28,8.00 5.55,7.00 5.81,6.00 6.08,7.00 6.34,6.00 6.60,7.00 6.87,6.00 7.13,5.00 7.40,6.00 7.66,5.00 7.93,6.00 8.19,5.00 8.45,6.00 8.72,5.00 8.98,4.00 9.25,3.00 9.51,4.00 9.77,5.00 10.04,4.00 10.30,5.00 10.57,4.00 10.83,5.00 11.10,4.00 11.36,3.00 11.62,4.00 11.89,5.00 12.15,6.00 12.42,7.00 12.68,6.00 12.94,7.00 13.21,6.00" />
</g>
</svg>