<svg xmlns="http://www.w3.org/2000/svg" width="161.8" height="100.0" viewBox="-5.00 -55.00 171.80 110.00">
<g fill="none" stroke="black" stroke-width="0.0200%" transform="translate(0, 0.0000) scale(25.0000, -25.0000)">
<circle cx="0.00" cy="0.00" r="0.02" />
<circle cx="0.00" cy="2.00" r="0.02" />
<polyline points="0.00,-1.00 0.00,-1.00 0.00,-1.00 0.22,-1.00 0.22,0.00 0.43,0.00 0.43,0.00 0.65,0.00 0.65,-1.00 0.86,-1.00 0.86,-2.00 1.08,-2.00 1.08,-1.00 1.29,-1.00 1.29,-1.00 1.51,-1.00 1.51,0.00 1.73,0.00 1.73,1.00 1.94,1.00 1.94,1.00 2.16,1.00 2.16,2.00 2.37,2.00 2.37,1.00 2.59,1.00 2.59,1.00 2.80,1.00 2.80,1.00 3.02,1.00 3.02,1.00 3.24,1.00 3.24,0.00 3.45,0.00 3.45,0.00 3.67,0.00 3.67,0.00 3.88,0.00 3.88,0.00 4.10,0.00 4.10,-1.00 4.31,-1.00 4.31,0.00 4.53,0.00 4.53,0.00 4.75,0.00 4.75,0.00 4.96,0.00 4.96,0.00 5.18,0.00 5.18,1.00 5.39,1.00 5.39,1.00 5.61,1.00 5.61,0.00 5.82,0.00 5.82,-1.00 6.04,-1.00 6.04,-1.00 6.26,-1.00 6.26,-1.00 6.47,-1.00" />
</g>
</svg>