<?xml version="1.0" encoding="UTF-8" standalone="no"?>
<!DOCTYPE svg PUBLIC "-//W3C//DTD SVG 1.1//EN"
 "http://www.w3.org/Graphics/SVG/1.1/DTD/svg11.dtd">
<!-- Generated by graphviz version 12.0.0 (0)
 -->
<!-- Pages: 1 -->
<svg width="59pt" height="54pt"
 viewBox="0.00 0.00 58.70 54.00" xmlns="http://www.w3.org/2000/svg" xmlns:xlink="http://www.w3.org/1999/xlink">
<g id="graph0" class="graph" transform="scale(0.140821 0.140821) rotate(0) translate(4 379.47)">
<!-- 12 -->
<g id="node1" class="node">
<title>12</title>
<ellipse fill="black" stroke="black" cx="210.29" cy="-81.94" rx="1.8" ry="1.8"/>
</g>
<!-- 16 -->
<g id="node2" class="node">
<title>16</title>
<ellipse fill="black" stroke="black" cx="181.07" cy="-140.37" rx="1.8" ry="1.8"/>
</g>
<!-- 12&#45;&#45;16 -->
<g id="edge1" class="edge">
<title>12&#45;&#45;16</title>
<path fill="none" stroke="black" stroke-width="0.75" d="M209.32,-83.89C204.88,-92.76 186.58,-129.35 182.08,-138.36"/>
</g>
<!-- 18 -->
<g id="node4" class="node">
<title>18</title>
<ellipse fill="black" stroke="black" cx="118.22" cy="-214.42" rx="1.8" ry="1.8"/>
</g>
<!-- 16&#45;&#45;18 -->
<g id="edge25" class="edge">
<title>16&#45;&#45;18</title>
<path fill="none" stroke="black" stroke-width="0.75" d="M179.76,-141.92C171.58,-151.55 127.68,-203.27 119.52,-212.88"/>
</g>
<!-- 14 -->
<g id="node3" class="node">
<title>14</title>
<ellipse fill="black" stroke="black" cx="123.32" cy="-158.4" rx="1.8" ry="1.8"/>
</g>
<!-- 14&#45;&#45;16 -->
<g id="edge29" class="edge">
<title>14&#45;&#45;16</title>
<path fill="none" stroke="black" stroke-width="0.75" d="M125.24,-157.8C134.01,-155.06 170.18,-143.77 179.08,-140.99"/>
</g>
<!-- 14&#45;&#45;18 -->
<g id="edge2" class="edge">
<title>14&#45;&#45;18</title>
<path fill="none" stroke="black" stroke-width="0.75" d="M123.15,-160.26C122.39,-168.69 119.24,-203.23 118.42,-212.26"/>
</g>
<!-- 17 -->
<g id="node17" class="node">
<title>17</title>
<ellipse fill="black" stroke="black" cx="178.42" cy="-230.44" rx="1.8" ry="1.8"/>
</g>
<!-- 14&#45;&#45;17 -->
<g id="edge36" class="edge">
<title>14&#45;&#45;17</title>
<path fill="none" stroke="black" stroke-width="0.75" d="M124.69,-160.18C132.31,-170.14 169.61,-218.91 177.11,-228.72"/>
</g>
<!-- 21 -->
<g id="node15" class="node">
<title>21</title>
<ellipse fill="black" stroke="black" cx="117.55" cy="-294.81" rx="1.8" ry="1.8"/>
</g>
<!-- 18&#45;&#45;21 -->
<g id="edge11" class="edge">
<title>18&#45;&#45;21</title>
<path fill="none" stroke="black" stroke-width="0.75" d="M118.2,-216.41C118.11,-227.44 117.66,-281.01 117.57,-292.6"/>
</g>
<!-- 4 -->
<g id="node5" class="node">
<title>4</title>
<ellipse fill="black" stroke="black" cx="206.3" cy="-171.24" rx="1.8" ry="1.8"/>
</g>
<!-- 4&#45;&#45;12 -->
<g id="edge15" class="edge">
<title>4&#45;&#45;12</title>
<path fill="none" stroke="black" stroke-width="0.75" d="M206.39,-169.04C206.95,-156.68 209.65,-96.23 210.2,-84.07"/>
</g>
<!-- 4&#45;&#45;16 -->
<g id="edge3" class="edge">
<title>4&#45;&#45;16</title>
<path fill="none" stroke="black" stroke-width="0.75" d="M204.94,-169.58C200.52,-164.17 186.56,-147.1 182.31,-141.89"/>
</g>
<!-- 23 -->
<g id="node18" class="node">
<title>23</title>
<ellipse fill="black" stroke="black" cx="200.8" cy="-270.09" rx="1.8" ry="1.8"/>
</g>
<!-- 4&#45;&#45;23 -->
<g id="edge14" class="edge">
<title>4&#45;&#45;23</title>
<path fill="none" stroke="black" stroke-width="0.75" d="M206.18,-173.31C205.47,-186.17 201.63,-255.2 200.91,-268.03"/>
</g>
<!-- 8 -->
<g id="node6" class="node">
<title>8</title>
<ellipse fill="black" stroke="black" cx="269.5" cy="-116.56" rx="1.8" ry="1.8"/>
</g>
<!-- 8&#45;&#45;16 -->
<g id="edge22" class="edge">
<title>8&#45;&#45;16</title>
<path fill="none" stroke="black" stroke-width="0.75" d="M267.32,-117.15C255.08,-120.44 195.21,-136.56 183.18,-139.8"/>
</g>
<!-- 22 -->
<g id="node7" class="node">
<title>22</title>
<ellipse fill="black" stroke="black" cx="253.25" cy="-56.81" rx="1.8" ry="1.8"/>
</g>
<!-- 8&#45;&#45;22 -->
<g id="edge4" class="edge">
<title>8&#45;&#45;22</title>
<path fill="none" stroke="black" stroke-width="0.75" d="M268.96,-114.57C266.5,-105.5 256.31,-68.08 253.81,-58.86"/>
</g>
<!-- 5 -->
<g id="node8" class="node">
<title>5</title>
<ellipse fill="black" stroke="black" cx="330.06" cy="-116.02" rx="1.8" ry="1.8"/>
</g>
<!-- 5&#45;&#45;8 -->
<g id="edge9" class="edge">
<title>5&#45;&#45;8</title>
<path fill="none" stroke="black" stroke-width="0.75" d="M328.05,-116.04C318.85,-116.12 280.93,-116.46 271.59,-116.54"/>
</g>
<!-- 5&#45;&#45;22 -->
<g id="edge5" class="edge">
<title>5&#45;&#45;22</title>
<path fill="none" stroke="black" stroke-width="0.75" d="M328.46,-114.78C318.46,-107.08 264.81,-65.72 254.84,-58.04"/>
</g>
<!-- 19 -->
<g id="node14" class="node">
<title>19</title>
<ellipse fill="black" stroke="black" cx="338.62" cy="-208.99" rx="1.8" ry="1.8"/>
</g>
<!-- 5&#45;&#45;19 -->
<g id="edge26" class="edge">
<title>5&#45;&#45;19</title>
<path fill="none" stroke="black" stroke-width="0.75" d="M330.24,-117.96C331.34,-129.96 337.22,-193.87 338.41,-206.73"/>
</g>
<!-- 3 -->
<g id="node9" class="node">
<title>3</title>
<ellipse fill="black" stroke="black" cx="1.8" cy="-118.79" rx="1.8" ry="1.8"/>
</g>
<!-- 13 -->
<g id="node10" class="node">
<title>13</title>
<ellipse fill="black" stroke="black" cx="83.12" cy="-76.31" rx="1.8" ry="1.8"/>
</g>
<!-- 3&#45;&#45;13 -->
<g id="edge6" class="edge">
<title>3&#45;&#45;13</title>
<path fill="none" stroke="black" stroke-width="0.75" d="M3.81,-117.74C15.06,-111.86 70.12,-83.11 81.18,-77.33"/>
</g>
<!-- 15 -->
<g id="node12" class="node">
<title>15</title>
<ellipse fill="black" stroke="black" cx="37.25" cy="-192.57" rx="1.8" ry="1.8"/>
</g>
<!-- 3&#45;&#45;15 -->
<g id="edge8" class="edge">
<title>3&#45;&#45;15</title>
<path fill="none" stroke="black" stroke-width="0.75" d="M2.68,-120.62C7.54,-130.73 31.17,-179.9 36.28,-190.54"/>
</g>
<!-- 13&#45;&#45;14 -->
<g id="edge27" class="edge">
<title>13&#45;&#45;14</title>
<path fill="none" stroke="black" stroke-width="0.75" d="M84.12,-78.34C89.68,-89.7 116.89,-145.27 122.36,-156.44"/>
</g>
<!-- 20 -->
<g id="node23" class="node">
<title>20</title>
<ellipse fill="black" stroke="black" cx="51.93" cy="-1.8" rx="1.8" ry="1.8"/>
</g>
<!-- 13&#45;&#45;20 -->
<g id="edge31" class="edge">
<title>13&#45;&#45;20</title>
<path fill="none" stroke="black" stroke-width="0.75" d="M82.35,-74.47C78.07,-64.25 57.29,-14.59 52.79,-3.85"/>
</g>
<!-- 1 -->
<g id="node11" class="node">
<title>1</title>
<ellipse fill="black" stroke="black" cx="157.43" cy="-87.08" rx="1.8" ry="1.8"/>
</g>
<!-- 1&#45;&#45;16 -->
<g id="edge18" class="edge">
<title>1&#45;&#45;16</title>
<path fill="none" stroke="black" stroke-width="0.75" d="M158.21,-88.86C161.77,-96.87 176.35,-129.73 180.15,-138.31"/>
</g>
<!-- 1&#45;&#45;4 -->
<g id="edge33" class="edge">
<title>1&#45;&#45;4</title>
<path fill="none" stroke="black" stroke-width="0.75" d="M158.45,-88.84C164.81,-99.79 198.94,-158.57 205.28,-169.5"/>
</g>
<!-- 1&#45;&#45;22 -->
<g id="edge7" class="edge">
<title>1&#45;&#45;22</title>
<path fill="none" stroke="black" stroke-width="0.75" d="M159.43,-86.45C171.9,-82.51 238.82,-61.37 251.26,-57.44"/>
</g>
<!-- 1&#45;&#45;13 -->
<g id="edge34" class="edge">
<title>1&#45;&#45;13</title>
<path fill="none" stroke="black" stroke-width="0.75" d="M155.28,-86.77C144.43,-85.2 95.67,-78.13 85.13,-76.6"/>
</g>
<!-- 6 -->
<g id="node16" class="node">
<title>6</title>
<ellipse fill="black" stroke="black" cx="77.83" cy="-127.14" rx="1.8" ry="1.8"/>
</g>
<!-- 1&#45;&#45;6 -->
<g id="edge12" class="edge">
<title>1&#45;&#45;6</title>
<path fill="none" stroke="black" stroke-width="0.75" d="M155.46,-88.07C144.45,-93.61 90.56,-120.73 79.73,-126.18"/>
</g>
<!-- 15&#45;&#45;18 -->
<g id="edge16" class="edge">
<title>15&#45;&#45;18</title>
<path fill="none" stroke="black" stroke-width="0.75" d="M39.25,-193.11C50.46,-196.13 105.27,-210.93 116.29,-213.9"/>
</g>
<!-- 9 -->
<g id="node13" class="node">
<title>9</title>
<ellipse fill="black" stroke="black" cx="407.05" cy="-250.08" rx="1.8" ry="1.8"/>
</g>
<!-- 9&#45;&#45;19 -->
<g id="edge10" class="edge">
<title>9&#45;&#45;19</title>
<path fill="none" stroke="black" stroke-width="0.75" d="M405.36,-249.06C395.98,-243.43 350.36,-216.04 340.5,-210.12"/>
</g>
<!-- 21&#45;&#45;23 -->
<g id="edge37" class="edge">
<title>21&#45;&#45;23</title>
<path fill="none" stroke="black" stroke-width="0.75" d="M119.61,-294.2C131.12,-290.78 187.48,-274.04 198.81,-270.68"/>
</g>
<!-- 6&#45;&#45;14 -->
<g id="edge32" class="edge">
<title>6&#45;&#45;14</title>
<path fill="none" stroke="black" stroke-width="0.75" d="M79.34,-128.18C86.25,-132.92 114.74,-152.5 121.76,-157.32"/>
</g>
<!-- 6&#45;&#45;15 -->
<g id="edge24" class="edge">
<title>6&#45;&#45;15</title>
<path fill="none" stroke="black" stroke-width="0.75" d="M76.66,-129.02C70.73,-138.58 44.11,-181.52 38.35,-190.79"/>
</g>
<!-- 17&#45;&#45;18 -->
<g id="edge13" class="edge">
<title>17&#45;&#45;18</title>
<path fill="none" stroke="black" stroke-width="0.75" d="M176.42,-229.9C167.28,-227.47 129.57,-217.44 120.29,-214.97"/>
</g>
<!-- 17&#45;&#45;23 -->
<g id="edge23" class="edge">
<title>17&#45;&#45;23</title>
<path fill="none" stroke="black" stroke-width="0.75" d="M179.38,-232.14C183.06,-238.66 196.24,-262 199.87,-268.43"/>
</g>
<!-- 7 -->
<g id="node19" class="node">
<title>7</title>
<ellipse fill="black" stroke="black" cx="106.94" cy="-373.67" rx="1.8" ry="1.8"/>
</g>
<!-- 7&#45;&#45;21 -->
<g id="edge17" class="edge">
<title>7&#45;&#45;21</title>
<path fill="none" stroke="black" stroke-width="0.75" d="M107.25,-371.39C108.8,-359.88 115.76,-308.13 117.26,-296.95"/>
</g>
<!-- 10 -->
<g id="node20" class="node">
<title>10</title>
<ellipse fill="black" stroke="black" cx="264.23" cy="-256.04" rx="1.8" ry="1.8"/>
</g>
<!-- 10&#45;&#45;19 -->
<g id="edge19" class="edge">
<title>10&#45;&#45;19</title>
<path fill="none" stroke="black" stroke-width="0.75" d="M266.07,-254.87C276.36,-248.36 326.72,-216.51 336.84,-210.11"/>
</g>
<!-- 10&#45;&#45;17 -->
<g id="edge35" class="edge">
<title>10&#45;&#45;17</title>
<path fill="none" stroke="black" stroke-width="0.75" d="M262.11,-255.4C250.24,-251.86 192.15,-234.53 180.47,-231.05"/>
</g>
<!-- 10&#45;&#45;23 -->
<g id="edge20" class="edge">
<title>10&#45;&#45;23</title>
<path fill="none" stroke="black" stroke-width="0.75" d="M262.12,-256.5C252.49,-258.64 212.76,-267.44 202.98,-269.6"/>
</g>
<!-- 11 -->
<g id="node21" class="node">
<title>11</title>
<ellipse fill="black" stroke="black" cx="32.09" cy="-274.63" rx="1.8" ry="1.8"/>
</g>
<!-- 11&#45;&#45;15 -->
<g id="edge28" class="edge">
<title>11&#45;&#45;15</title>
<path fill="none" stroke="black" stroke-width="0.75" d="M32.21,-272.6C32.92,-261.34 36.37,-206.65 37.11,-194.83"/>
</g>
<!-- 11&#45;&#45;21 -->
<g id="edge21" class="edge">
<title>11&#45;&#45;21</title>
<path fill="none" stroke="black" stroke-width="0.75" d="M34.2,-275.13C46.02,-277.92 103.88,-291.58 115.51,-294.33"/>
</g>
<!-- 2 -->
<g id="node22" class="node">
<title>2</title>
<ellipse fill="black" stroke="black" cx="392.51" cy="-67.26" rx="1.8" ry="1.8"/>
</g>
<!-- 2&#45;&#45;5 -->
<g id="edge30" class="edge">
<title>2&#45;&#45;5</title>
<path fill="none" stroke="black" stroke-width="0.75" d="M390.71,-68.66C381.59,-75.78 340.61,-107.79 331.75,-114.7"/>
</g>
</g>
</svg>
