<svg xmlns="http://www.w3.org/2000/svg" width="53.8" height="100.0" viewBox="-17.46 -38.68 63.79 110.00">
<g fill="none" stroke="black" stroke-width="0.0757%" transform="translate(0, 32.6418) scale(6.6010, -6.6010)">
<polyline points="0.77,-0.87 0.94,-0.18 0.99,0.14 1.75,0.93 0.92,0.57 1.63,-0.43 1.25,-1.34 2.18,-1.66 2.38,-2.38 2.45,-3.07 3.35,-2.63 3.86,-3.22 4.15,-2.22 4.65,-1.69 4.02,-1.25 4.66,-1.52 4.41,-0.58 4.81,-0.09 4.44,-0.11 4.71,0.28 4.77,-0.57 5.01,0.34 4.74,1.32 4.43,1.69 4.35,1.59 4.93,1.62 5.70,1.77 6.18,2.04 6.23,1.51 5.84,1.61 5.74,2.37 4.97,1.93 5.75,2.30 5.56,2.30 5.51,2.78 5.40,2.27 5.14,2.72 4.16,3.09 4.15,4.03 3.24,3.26 2.71,2.61 3.60,1.81 4.34,0.86 4.06,0.08 3.41,0.20 2.45,0.49 2.23,-0.01 1.35,-0.19 1.85,-0.09 2.35,0.30 2.48,0.16 1.64,0.99 1.86,1.88 1.82,1.45 1.34,1.94 1.47,1.80 1.98,2.55 1.88,2.76 1.33,2.09 0.53,1.37 1.01,0.65 1.04,1.16 1.53,1.55 1.53,1.38 1.34,0.39 1.02,1.21 0.97,0.38 0.54,-0.22 0.51,-0.70 0.33,-0.47 0.63,-1.34 0.43,-1.52 0.88,-2.26 0.78,-3.08 0.09,-3.85 -0.25,-3.20 -0.78,-3.74 -1.59,-4.58 -1.56,-4.70 -1.59,-3.75 -0.75,-2.79 -1.38,-3.13 -1.50,-3.80 -0.55,-2.97 0.14,-3.48 1.12,-3.74 2.04,-2.86 1.79,-2.37 1.84,-2.95 1.94,-2.42 2.40,-1.55 2.94,-1.68 3.46,-1.38 3.28,-1.58 4.18,-2.33 4.67,-1.98 4.20,-2.40 3.32,-3.25 3.34,-3.42 3.72,-3.07 3.40,-3.34 3.93,-4.24 4.57,-4.23 4.13,-5.07 3.35,-5.05 4.19,-4.68 4.56,-5.10 4.66,-4.15 4.98,-3.16 4.15,-2.29 3.28,-1.29 3.70,-0.43 3.59,0.33 2.97,0.57 3.36,0.02 2.39,0.49 1.40,1.25 0.67,1.82 0.49,2.56 0.99,2.08 1.91,1.92 2.79,1.51 3.61,0.66 4.11,1.35 4.76,1.54 4.39,1.19 4.16,1.77 4.58,2.41 4.78,2.61 4.49,2.14 4.30,2.35 5.24,2.34 5.04,1.74 5.86,2.70 5.81,3.24 5.63,2.65 6.26,2.82 5.47,3.24 5.63,3.01 5.66,3.98 5.79,4.79 6.02,3.96 5.73,4.21 4.86,4.30 4.26,4.68 3.51,5.21 3.68,5.46 3.17,6.22 2.51,7.14 3.32,7.97 3.34,7.91 2.49,8.36 3.39,9.26 2.66,9.46 3.10,9.35 3.12,8.43 2.84,9.36 2.88,9.41 3.81,8.99 4.54,8.90 3.89,9.55 3.88,10.05 3.84,9.77 3.71,9.63 3.78,9.04 3.11,8.34 4.07,8.60 3.40,9.19 2.75,8.28 2.72,7.68 2.67,8.40 2.21,7.44 1.92,8.01 2.55,8.69 2.90,9.32 2.28,8.44 2.97,8.62 3.47,9.11 3.19,8.83 4.05,9.41 3.87,9.01 4.85,8.93 4.84,9.47 3.89,9.50 3.00,8.61 3.13,8.04 2.43,7.75 2.65,6.91 2.84,6.81 2.65,6.10 3.40,5.98 3.54,5.74 2.59,5.85 3.18,6.67 3.80,6.87 3.06,7.85 2.27,6.97 2.42,6.94 3.07,7.07 2.93,8.05 2.09,8.11 1.97,8.95 2.46,8.64 2.87,7.67 2.05,7.26 1.26,7.27 0.35,7.77 0.02,6.92 -0.35,6.16 0.12,6.63 0.87,6.39 0.39,5.86 0.61,5.57 0.34,5.20 0.06,4.30 0.32,4.18 0.43,5.08 -0.22,4.61 0.13,5.01 -0.21,5.16 0.12,5.13 0.91,5.09 1.68,4.94 0.79,5.87 -0.07,6.54 0.64,7.05 0.67,6.91 0.47,6.33 0.46,5.88 0.64,6.81 -0.16,6.13 -0.93,6.55 -1.89,6.71 -1.26,5.86 -0.31,6.67 0.54,5.78 0.40,4.85 -0.58,5.46 -0.60,5.96 0.10,5.04 -0.05,5.19 -0.43,6.14 -0.02,7.05 0.78,6.20 0.19,6.40 0.91,6.94 0.60,6.68 0.13,7.34 -0.65,6.85 -1.44,6.14" />
</g>
</svg>