<svg xmlns="http://www.w3.org/2000/svg" width="161.8" height="100.0" viewBox="-3.349 -55.000 171.803 110.000">
<g fill="none" stroke="black" stroke-width="0.0100%" transform="translate(0, 0.0000) scale(50.0000, -50.0000)">
<circle cx="0.033" cy="0.000" r="0.010" />
<polyline points="0.033,0.089 0.066,-0.039 0.099,0.104 0.132,0.065 0.165,0.038 0.198,0.208 0.231,0.027 0.264,0.032 0.297,-0.283 0.330,-0.122 0.363,-0.068 0.396,0.090 0.429,0.354 0.462,0.350 0.495,-0.011 0.528,0.008 0.561,0.027 0.594,-0.014 0.627,0.008 0.660,0.028 0.693,0.007 0.726,-0.027 0.759,-0.073 0.793,0.006 0.826,0.309 0.859,0.044 0.892,0.043 0.925,0.024 0.958,0.248 0.991,-0.018 1.024,-0.082 1.057,-0.008 1.090,0.025 1.123,0.015 1.156,0.021 1.189,-0.081 1.222,-0.046 1.255,0.026 1.288,-0.040 1.321,0.035 1.354,-0.055 1.387,-0.037 1.420,-0.170 1.453,0.080 1.486,0.021 1.519,-0.059 1.552,-0.001 1.585,0.090 1.618,0.038 1.651,-0.276 1.684,0.113 1.717,-0.020 1.750,-0.037 1.783,-0.040 1.816,-0.003 1.849,-0.008 1.882,0.187 1.915,0.054 1.948,0.029 1.981,-0.053 2.014,0.065 2.047,-0.033 2.080,0.027 2.113,-0.003 2.146,-0.071 2.179,0.012 2.212,-0.018 2.245,-0.002 2.278,0.014 2.311,0.111 2.344,-0.046 2.378,-0.008 2.411,-0.005 2.444,0.012 2.477,-0.053 2.510,0.003 2.543,-0.007 2.576,-1.000 2.609,-0.043 2.642,1.000 2.675,0.062 2.708,0.062 2.741,-0.003 2.774,-0.001 2.807,-0.020 2.840,0.007 2.873,0.057 2.906,0.000 2.939,-0.303 2.972,0.008 3.005,-0.054 3.038,-0.003 3.071,0.029 3.104,0.033 3.137,0.313 3.170,-0.005 3.203,0.001 3.236,-0.102 3.269,0.067" />
</g>
</svg>