<?xml version="1.0" encoding="UTF-8" standalone="no"?>
<!DOCTYPE svg PUBLIC "-//W3C//DTD SVG 1.1//EN"
 "http://www.w3.org/Graphics/SVG/1.1/DTD/svg11.dtd">
<!-- Generated by graphviz version 12.0.0 (0)
 -->
<!-- Pages: 1 -->
<svg width="47pt" height="54pt"
 viewBox="0.00 0.00 46.95 54.00" xmlns="http://www.w3.org/2000/svg" xmlns:xlink="http://www.w3.org/1999/xlink">
<g id="graph0" class="graph" transform="scale(0.152907 0.152907) rotate(0) translate(4 349.16)">
<!-- 1 -->
<g id="node1" class="node">
<title>1</title>
<ellipse fill="black" stroke="black" cx="122.74" cy="-274.38" rx="1.8" ry="1.8"/>
</g>
<!-- 5 -->
<g id="node2" class="node">
<title>5</title>
<ellipse fill="black" stroke="black" cx="84.72" cy="-343.36" rx="1.8" ry="1.8"/>
</g>
<!-- 1&#45;&#45;5 -->
<g id="edge1" class="edge">
<title>1&#45;&#45;5</title>
<path fill="none" stroke="black" stroke-width="0.75" d="M121.64,-276.37C116.09,-286.44 91.14,-331.71 85.75,-341.49"/>
</g>
<!-- 10 -->
<g id="node3" class="node">
<title>10</title>
<ellipse fill="black" stroke="black" cx="109.53" cy="-186.09" rx="1.8" ry="1.8"/>
</g>
<!-- 1&#45;&#45;10 -->
<g id="edge2" class="edge">
<title>1&#45;&#45;10</title>
<path fill="none" stroke="black" stroke-width="0.75" d="M122.41,-272.2C120.59,-259.98 111.64,-200.21 109.84,-188.19"/>
</g>
<!-- 17 -->
<g id="node4" class="node">
<title>17</title>
<ellipse fill="black" stroke="black" cx="213.56" cy="-281.83" rx="1.8" ry="1.8"/>
</g>
<!-- 1&#45;&#45;17 -->
<g id="edge3" class="edge">
<title>1&#45;&#45;17</title>
<path fill="none" stroke="black" stroke-width="0.75" d="M124.99,-274.56C137.55,-275.6 199.04,-280.64 211.4,-281.65"/>
</g>
<!-- 15 -->
<g id="node12" class="node">
<title>15</title>
<ellipse fill="black" stroke="black" cx="76.12" cy="-153.58" rx="1.8" ry="1.8"/>
</g>
<!-- 10&#45;&#45;15 -->
<g id="edge19" class="edge">
<title>10&#45;&#45;15</title>
<path fill="none" stroke="black" stroke-width="0.75" d="M108.09,-184.69C102.59,-179.34 82.93,-160.21 77.51,-154.94"/>
</g>
<!-- 16 -->
<g id="node14" class="node">
<title>16</title>
<ellipse fill="black" stroke="black" cx="195.49" cy="-143.31" rx="1.8" ry="1.8"/>
</g>
<!-- 10&#45;&#45;16 -->
<g id="edge20" class="edge">
<title>10&#45;&#45;16</title>
<path fill="none" stroke="black" stroke-width="0.75" d="M111.32,-185.19C122.51,-179.63 182.54,-149.75 193.7,-144.19"/>
</g>
<!-- 2 -->
<g id="node5" class="node">
<title>2</title>
<ellipse fill="black" stroke="black" cx="98.68" cy="-17.57" rx="1.8" ry="1.8"/>
</g>
<!-- 4 -->
<g id="node6" class="node">
<title>4</title>
<ellipse fill="black" stroke="black" cx="62.4" cy="-99.04" rx="1.8" ry="1.8"/>
</g>
<!-- 2&#45;&#45;4 -->
<g id="edge4" class="edge">
<title>2&#45;&#45;4</title>
<path fill="none" stroke="black" stroke-width="0.75" d="M97.78,-19.59C92.77,-30.86 68.21,-86.01 63.27,-97.1"/>
</g>
<!-- 8 -->
<g id="node7" class="node">
<title>8</title>
<ellipse fill="black" stroke="black" cx="187.64" cy="-1.8" rx="1.8" ry="1.8"/>
</g>
<!-- 2&#45;&#45;8 -->
<g id="edge5" class="edge">
<title>2&#45;&#45;8</title>
<path fill="none" stroke="black" stroke-width="0.75" d="M100.88,-17.18C113.19,-15 173.41,-4.32 185.52,-2.18"/>
</g>
<!-- 4&#45;&#45;10 -->
<g id="edge8" class="edge">
<title>4&#45;&#45;10</title>
<path fill="none" stroke="black" stroke-width="0.75" d="M63.39,-100.86C69.52,-112.19 102.43,-172.98 108.55,-184.28"/>
</g>
<!-- 11 -->
<g id="node11" class="node">
<title>11</title>
<ellipse fill="black" stroke="black" cx="1.8" cy="-127.15" rx="1.8" ry="1.8"/>
</g>
<!-- 4&#45;&#45;11 -->
<g id="edge9" class="edge">
<title>4&#45;&#45;11</title>
<path fill="none" stroke="black" stroke-width="0.75" d="M60.39,-99.98C51.19,-104.25 13.23,-121.85 3.89,-126.18"/>
</g>
<!-- 4&#45;&#45;15 -->
<g id="edge10" class="edge">
<title>4&#45;&#45;15</title>
<path fill="none" stroke="black" stroke-width="0.75" d="M62.86,-100.86C64.92,-109.06 73.38,-142.69 75.59,-151.47"/>
</g>
<!-- 12 -->
<g id="node10" class="node">
<title>12</title>
<ellipse fill="black" stroke="black" cx="241.7" cy="-70.54" rx="1.8" ry="1.8"/>
</g>
<!-- 8&#45;&#45;12 -->
<g id="edge17" class="edge">
<title>8&#45;&#45;12</title>
<path fill="none" stroke="black" stroke-width="0.75" d="M188.98,-3.5C196.52,-13.09 233.69,-60.36 240.59,-69.13"/>
</g>
<!-- 3 -->
<g id="node8" class="node">
<title>3</title>
<ellipse fill="black" stroke="black" cx="297.25" cy="-128.66" rx="1.8" ry="1.8"/>
</g>
<!-- 6 -->
<g id="node9" class="node">
<title>6</title>
<ellipse fill="black" stroke="black" cx="244.49" cy="-194.93" rx="1.8" ry="1.8"/>
</g>
<!-- 3&#45;&#45;6 -->
<g id="edge6" class="edge">
<title>3&#45;&#45;6</title>
<path fill="none" stroke="black" stroke-width="0.75" d="M295.94,-130.3C288.58,-139.55 252.3,-185.12 245.57,-193.58"/>
</g>
<!-- 3&#45;&#45;12 -->
<g id="edge7" class="edge">
<title>3&#45;&#45;12</title>
<path fill="none" stroke="black" stroke-width="0.75" d="M295.87,-127.23C288.25,-119.26 251.23,-80.52 243.23,-72.14"/>
</g>
<!-- 6&#45;&#45;17 -->
<g id="edge13" class="edge">
<title>6&#45;&#45;17</title>
<path fill="none" stroke="black" stroke-width="0.75" d="M243.72,-197.08C239.44,-209.1 218.51,-267.93 214.3,-279.76"/>
</g>
<!-- 9 -->
<g id="node13" class="node">
<title>9</title>
<ellipse fill="black" stroke="black" cx="157.35" cy="-198.68" rx="1.8" ry="1.8"/>
</g>
<!-- 6&#45;&#45;9 -->
<g id="edge11" class="edge">
<title>6&#45;&#45;9</title>
<path fill="none" stroke="black" stroke-width="0.75" d="M242.33,-195.03C230.28,-195.54 171.29,-198.08 159.43,-198.59"/>
</g>
<!-- 6&#45;&#45;16 -->
<g id="edge12" class="edge">
<title>6&#45;&#45;16</title>
<path fill="none" stroke="black" stroke-width="0.75" d="M243.28,-193.66C236.56,-186.58 203.9,-152.17 196.84,-144.73"/>
</g>
<!-- 12&#45;&#45;16 -->
<g id="edge22" class="edge">
<title>12&#45;&#45;16</title>
<path fill="none" stroke="black" stroke-width="0.75" d="M240.56,-72.34C234.16,-82.4 202.88,-131.67 196.59,-141.57"/>
</g>
<!-- 11&#45;&#45;15 -->
<g id="edge21" class="edge">
<title>11&#45;&#45;15</title>
<path fill="none" stroke="black" stroke-width="0.75" d="M3.94,-127.91C14.8,-131.77 63.57,-149.12 74.1,-152.87"/>
</g>
<!-- 9&#45;&#45;15 -->
<g id="edge18" class="edge">
<title>9&#45;&#45;15</title>
<path fill="none" stroke="black" stroke-width="0.75" d="M155.34,-197.56C144.1,-191.32 89.11,-160.79 78.05,-154.66"/>
</g>
<!-- 7 -->
<g id="node15" class="node">
<title>7</title>
<ellipse fill="black" stroke="black" cx="215.3" cy="-222.8" rx="1.8" ry="1.8"/>
</g>
<!-- 7&#45;&#45;17 -->
<g id="edge16" class="edge">
<title>7&#45;&#45;17</title>
<path fill="none" stroke="black" stroke-width="0.75" d="M215.23,-225.04C214.96,-234.39 213.9,-270.23 213.63,-279.59"/>
</g>
<!-- 7&#45;&#45;9 -->
<g id="edge14" class="edge">
<title>7&#45;&#45;9</title>
<path fill="none" stroke="black" stroke-width="0.75" d="M213.37,-222C204.57,-218.34 168.28,-203.23 159.35,-199.51"/>
</g>
<!-- 7&#45;&#45;16 -->
<g id="edge15" class="edge">
<title>7&#45;&#45;16</title>
<path fill="none" stroke="black" stroke-width="0.75" d="M214.81,-220.84C212.09,-209.93 198.89,-156.95 196.03,-145.49"/>
</g>
<!-- 14 -->
<g id="node16" class="node">
<title>14</title>
<ellipse fill="black" stroke="black" cx="137.52" cy="-99.37" rx="1.8" ry="1.8"/>
</g>
<!-- 14&#45;&#45;15 -->
<g id="edge23" class="edge">
<title>14&#45;&#45;15</title>
<path fill="none" stroke="black" stroke-width="0.75" d="M136,-100.71C127.58,-108.14 86.66,-144.27 77.81,-152.09"/>
</g>
<!-- 14&#45;&#45;16 -->
<g id="edge24" class="edge">
<title>14&#45;&#45;16</title>
<path fill="none" stroke="black" stroke-width="0.75" d="M138.95,-100.46C146.9,-106.48 185.54,-135.76 193.89,-142.1"/>
</g>
</g>
</svg>
