<svg xmlns="http://www.w3.org/2000/svg" width="88" height="104" viewBox="0 0 88 104">
<rect x="0" y="0" width="8" height="8" fill="rgb(52,52,52)"/>
<rect x="0" y="8" width="8" height="8" fill="rgb(117,117,117)"/>
<rect x="0" y="16" width="8" height="8" fill="rgb(232,232,232)"/>
<rect x="0" y="24" width="8" height="8" fill="rgb(11,11,11)"/>
<rect x="0" y="32" width="8" height="8" fill="rgb(1,1,1)"/>
<rect x="0" y="40" width="8" height="8" fill="rgb(0,0,0)"/>
<rect x="0" y="48" width="8" height="8" fill="rgb(246,246,246)"/>
<rect x="0" y="56" width="8" height="8" fill="rgb(204,204,204)"/>
<rect x="0" y="64" width="8" height="8" fill="rgb(165,165,165)"/>
<rect x="0" y="72" width="8" height="8" fill="rgb(62,62,62)"/>
<rect x="0" y="80" width="8" height="8" fill="rgb(242,242,242)"/>
<rect x="0" y="88" width="8" height="8" fill="rgb(16,16,16)"/>
<rect x="0" y="96" width="8" height="8" fill="rgb(113,113,113)"/>
<rect x="8" y="0" width="8" height="8" fill="rgb(214,214,214)"/>
<rect x="8" y="8" width="8" height="8" fill="rgb(3,3,3)"/>
<rect x="8" y="16" width="8" height="8" fill="rgb(99,99,99)"/>
<rect x="8" y="24" width="8" height="8" fill="rgb(172,172,172)"/>
<rect x="8" y="32" width="8" height="8" fill="rgb(209,209,209)"/>
<rect x="8" y="40" width="8" height="8" fill="rgb(145,145,145)"/>
<rect x="8" y="48" width="8" height="8" fill="rgb(246,246,246)"/>
<rect x="8" y="56" width="8" height="8" fill="rgb(158,158,158)"/>
<rect x="8" y="64" width="8" height="8" fill="rgb(81,81,81)"/>
<rect x="8" y="72" width="8" height="8" fill="rgb(100,100,100)"/>
<rect x="8" y="80" width="8" height="8" fill="rgb(215,215,215)"/>
<rect x="8" y="88" width="8" height="8" fill="rgb(102,102,102)"/>
<rect x="8" y="96" width="8" height="8" fill="rgb(95,95,95)"/>
<rect x="16" y="0" width="8" height="8" fill="rgb(111,111,111)"/>
<rect x="16" y="8" width="8" height="8" fill="rgb(107,107,107)"/>
<rect x="16" y="16" width="8" height="8" fill="rgb(205,205,205)"/>
<rect x="16" y="24" width="8" height="8" fill="rgb(50,50,50)"/>
<rect x="16" y="32" width="8" height="8" fill="rgb(204,204,204)"/>
<rect x="16" y="40" width="8" height="8" fill="rgb(244,244,244)"/>
<rect x="16" y="48" width="8" height="8" fill="rgb(241,241,241)"/>
<rect x="16" y="56" width="8" height="8" fill="rgb(60,60,60)"/>
<rect x="16" y="64" width="8" height="8" fill="rgb(217,217,217)"/>
<rect x="16" y="72" width="8" height="8" fill="rgb(59,59,59)"/>
<rect x="16" y="80" width="8" height="8" fill="rgb(95,95,95)"/>
<rect x="16" y="88" width="8" height="8" fill="rgb(97,97,97)"/>
<rect x="16" y="96" width="8" height="8" fill="rgb(113,113,113)"/>
<rect x="24" y="0" width="8" height="8" fill="rgb(140,140,140)"/>
<rect x="24" y="8" width="8" height="8" fill="rgb(100,100,100)"/>
<rect x="24" y="16" width="8" height="8" fill="rgb(153,153,153)"/>
<rect x="24" y="24" width="8" height="8" fill="rgb(160,160,160)"/>
<rect x="24" y="32" width="8" height="8" fill="rgb(103,103,103)"/>
<rect x="24" y="40" width="8" height="8" fill="rgb(125,125,125)"/>
<rect x="24" y="48" width="8" height="8" fill="rgb(39,39,39)"/>
<rect x="24" y="56" width="8" height="8" fill="rgb(161,161,161)"/>
<rect x="24" y="64" width="8" height="8" fill="rgb(78,78,78)"/>
<rect x="24" y="72" width="8" height="8" fill="rgb(208,208,208)"/>
<rect x="24" y="80" width="8" height="8" fill="rgb(33,33,33)"/>
<rect x="24" y="88" width="8" height="8" fill="rgb(100,100,100)"/>
<rect x="24" y="96" width="8" height="8" fill="rgb(110,110,110)"/>
<rect x="32" y="0" width="8" height="8" fill="rgb(190,190,190)"/>
<rect x="32" y="8" width="8" height="8" fill="rgb(206,206,206)"/>
<rect x="32" y="16" width="8" height="8" fill="rgb(39,39,39)"/>
<rect x="32" y="24" width="8" height="8" fill="rgb(170,170,170)"/>
<rect x="32" y="32" width="8" height="8" fill="rgb(11,11,11)"/>
<rect x="32" y="40" width="8" height="8" fill="rgb(23,23,23)"/>
<rect x="32" y="48" width="8" height="8" fill="rgb(98,98,98)"/>
<rect x="32" y="56" width="8" height="8" fill="rgb(39,39,39)"/>
<rect x="32" y="64" width="8" height="8" fill="rgb(100,100,100)"/>
<rect x="32" y="72" width="8" height="8" fill="rgb(67,67,67)"/>
<rect x="32" y="80" width="8" height="8" fill="rgb(104,104,104)"/>
<rect x="32" y="88" width="8" height="8" fill="rgb(123,123,123)"/>
<rect x="32" y="96" width="8" height="8" fill="rgb(194,194,194)"/>
<rect x="40" y="0" width="8" height="8" fill="rgb(183,183,183)"/>
<rect x="40" y="8" width="8" height="8" fill="rgb(112,112,112)"/>
<rect x="40" y="16" width="8" height="8" fill="rgb(133,133,133)"/>
<rect x="40" y="24" width="8" height="8" fill="rgb(53,53,53)"/>
<rect x="40" y="32" width="8" height="8" fill="rgb(89,89,89)"/>
<rect x="40" y="40" width="8" height="8" fill="rgb(93,93,93)"/>
<rect x="40" y="48" width="8" height="8" fill="rgb(52,52,52)"/>
<rect x="40" y="56" width="8" height="8" fill="rgb(78,78,78)"/>
<rect x="40" y="64" width="8" height="8" fill="rgb(62,62,62)"/>
<rect x="40" y="72" width="8" height="8" fill="rgb(108,108,108)"/>
<rect x="40" y="80" width="8" height="8" fill="rgb(146,146,146)"/>
<rect x="40" y="88" width="8" height="8" fill="rgb(109,109,109)"/>
<rect x="40" y="96" width="8" height="8" fill="rgb(172,172,172)"/>
<rect x="48" y="0" width="8" height="8" fill="rgb(242,242,242)"/>
<rect x="48" y="8" width="8" height="8" fill="rgb(108,108,108)"/>
<rect x="48" y="16" width="8" height="8" fill="rgb(118,118,118)"/>
<rect x="48" y="24" width="8" height="8" fill="rgb(87,87,87)"/>
<rect x="48" y="32" width="8" height="8" fill="rgb(154,154,154)"/>
<rect x="48" y="40" width="8" height="8" fill="rgb(98,98,98)"/>
<rect x="48" y="48" width="8" height="8" fill="rgb(128,128,128)"/>
<rect x="48" y="56" width="8" height="8" fill="rgb(198,198,198)"/>
<rect x="48" y="64" width="8" height="8" fill="rgb(105,105,105)"/>
<rect x="48" y="72" width="8" height="8" fill="rgb(161,161,161)"/>
<rect x="48" y="80" width="8" height="8" fill="rgb(9,9,9)"/>
<rect x="48" y="88" width="8" height="8" fill="rgb(201,201,201)"/>
<rect x="48" y="96" width="8" height="8" fill="rgb(150,150,150)"/>
<rect x="56" y="0" width="8" height="8" fill="rgb(87,87,87)"/>
<rect x="56" y="8" width="8" height="8" fill="rgb(92,92,92)"/>
<rect x="56" y="16" width="8" height="8" fill="rgb(4,4,4)"/>
<rect x="56" y="24" width="8" height="8" fill="rgb(160,160,160)"/>
<rect x="56" y="32" width="8" height="8" fill="rgb(0,0,0)"/>
<rect x="56" y="40" width="8" height="8" fill="rgb(141,141,141)"/>
<rect x="56" y="48" width="8" height="8" fill="rgb(156,156,156)"/>
<rect x="56" y="56" width="8" height="8" fill="rgb(58,58,58)"/>
<rect x="56" y="64" width="8" height="8" fill="rgb(254,254,254)"/>
<rect x="56" y="72" width="8" height="8" fill="rgb(31,31,31)"/>
<rect x="56" y="80" width="8" height="8" fill="rgb(83,83,83)"/>
<rect x="56" y="88" width="8" height="8" fill="rgb(138,138,138)"/>
<rect x="56" y="96" width="8" height="8" fill="rgb(47,47,47)"/>
<rect x="64" y="0" width="8" height="8" fill="rgb(54,54,54)"/>
<rect x="64" y="8" width="8" height="8" fill="rgb(39,39,39)"/>
<rect x="64" y="16" width="8" height="8" fill="rgb(24,24,24)"/>
<rect x="64" y="24" width="8" height="8" fill="rgb(42,42,42)"/>
<rect x="64" y="32" width="8" height="8" fill="rgb(22,22,22)"/>
<rect x="64" y="40" width="8" height="8" fill="rgb(62,62,62)"/>
<rect x="64" y="48" width="8" height="8" fill="rgb(188,188,188)"/>
<rect x="64" y="56" width="8" height="8" fill="rgb(231,231,231)"/>
<rect x="64" y="64" width="8" height="8" fill="rgb(159,159,159)"/>
<rect x="64" y="72" width="8" height="8" fill="rgb(27,27,27)"/>
<rect x="64" y="80" width="8" height="8" fill="rgb(251,251,251)"/>
<rect x="64" y="88" width="8" height="8" fill="rgb(178,178,178)"/>
<rect x="64" y="96" width="8" height="8" fill="rgb(237,237,237)"/>
<rect x="72" y="0" width="8" height="8" fill="rgb(150,150,150)"/>
<rect x="72" y="8" width="8" height="8" fill="rgb(236,236,236)"/>
<rect x="72" y="16" width="8" height="8" fill="rgb(15,15,15)"/>
<rect x="72" y="24" width="8" height="8" fill="rgb(219,219,219)"/>
<rect x="72" y="32" width="8" height="8" fill="rgb(45,45,45)"/>
<rect x="72" y="40" width="8" height="8" fill="rgb(128,128,128)"/>
<rect x="72" y="48" width="8" height="8" fill="rgb(237,237,237)"/>
<rect x="72" y="56" width="8" height="8" fill="rgb(37,37,37)"/>
<rect x="72" y="64" width="8" height="8" fill="rgb(149,149,149)"/>
<rect x="72" y="72" width="8" height="8" fill="rgb(84,84,84)"/>
<rect x="72" y="80" width="8" height="8" fill="rgb(133,133,133)"/>
<rect x="72" y="88" width="8" height="8" fill="rgb(166,166,166)"/>
<rect x="72" y="96" width="8" height="8" fill="rgb(93,93,93)"/>
<rect x="80" y="0" width="8" height="8" fill="rgb(39,39,39)"/>
<rect x="80" y="8" width="8" height="8" fill="rgb(28,28,28)"/>
<rect x="80" y="16" width="8" height="8" fill="rgb(194,194,194)"/>
<rect x="80" y="24" width="8" height="8" fill="rgb(43,43,43)"/>
<rect x="80" y="32" width="8" height="8" fill="rgb(84,84,84)"/>
<rect x="80" y="40" width="8" height="8" fill="rgb(121,121,121)"/>
<rect x="80" y="48" width="8" height="8" fill="rgb(118,118,118)"/>
<rect x="80" y="56" width="8" height="8" fill="rgb(181,181,181)"/>
<rect x="80" y="64" width="8" height="8" fill="rgb(153,153,153)"/>
<rect x="80" y="72" width="8" height="8" fill="rgb(254,254,254)"/>
<rect x="80" y="80" width="8" height="8" fill="rgb(9,9,9)"/>
<rect x="80" y="88" width="8" height="8" fill="rgb(204,204,204)"/>
<rect x="80" y="96" width="8" height="8" fill="rgb(199,199,199)"/>
</svg>