<?xml version="1.0" encoding="UTF-8" standalone="no"?>
<!DOCTYPE svg PUBLIC "-//W3C//DTD SVG 1.1//EN"
 "http://www.w3.org/Graphics/SVG/1.1/DTD/svg11.dtd">
<!-- Generated by graphviz version 12.0.0 (0)
 -->
<!-- Pages: 1 -->
<svg width="51pt" height="54pt"
 viewBox="0.00 0.00 50.94 54.00" xmlns="http://www.w3.org/2000/svg" xmlns:xlink="http://www.w3.org/1999/xlink">
<g id="graph0" class="graph" transform="scale(0.250929 0.250929) rotate(0) translate(4 211.2)">
<!-- 1 -->
<g id="node1" class="node">
<title>1</title>
<polygon fill="none" stroke="black" points="66,-207.2 43,-207.2 43,-182.4 66,-182.4 66,-207.2"/>
<text text-anchor="middle" x="54.5" y="-190.6" font-family="Times,serif" font-size="14.00">3</text>
</g>
<!-- 2 -->
<g id="node2" class="node">
<title>2</title>
<polygon fill="none" stroke="black" points="46,-146.4 23,-146.4 23,-121.6 46,-121.6 46,-146.4"/>
<text text-anchor="middle" x="34.5" y="-129.8" font-family="Times,serif" font-size="14.00">9</text>
</g>
<!-- 1&#45;&gt;2 -->
<g id="edge1" class="edge">
<title>1&#45;&gt;2</title>
<path fill="none" stroke="black" stroke-width="0.75" d="M50.45,-181.9C47.58,-173.45 43.67,-161.97 40.45,-152.49"/>
<polygon fill="black" stroke="black" stroke-width="0.75" points="42.17,-152.13 38.91,-147.96 38.86,-153.25 42.17,-152.13"/>
</g>
<!-- 5 -->
<g id="node5" class="node">
<title>5</title>
<polygon fill="none" stroke="black" points="109,-146.4 86,-146.4 86,-121.6 109,-121.6 109,-146.4"/>
<text text-anchor="middle" x="97.5" y="-129.8" font-family="Times,serif" font-size="14.00">1</text>
</g>
<!-- 1&#45;&gt;5 -->
<g id="edge2" class="edge">
<title>1&#45;&gt;5</title>
<path fill="none" stroke="black" stroke-width="0.75" d="M63.2,-181.9C69.55,-173.21 78.25,-161.32 85.3,-151.69"/>
<polygon fill="black" stroke="black" stroke-width="0.75" points="86.6,-152.87 88.14,-147.8 83.78,-150.8 86.6,-152.87"/>
</g>
<!-- 3 -->
<g id="node3" class="node">
<title>3</title>
<polygon fill="none" stroke="black" points="23,-85.6 0,-85.6 0,-60.8 23,-60.8 23,-85.6"/>
<text text-anchor="middle" x="11.5" y="-69" font-family="Times,serif" font-size="14.00">4</text>
</g>
<!-- 2&#45;&gt;3 -->
<g id="edge3" class="edge">
<title>2&#45;&gt;3</title>
<path fill="none" stroke="black" stroke-width="0.75" d="M29.85,-121.1C26.54,-112.65 22.05,-101.17 18.34,-91.69"/>
<polygon fill="black" stroke="black" stroke-width="0.75" points="20.01,-91.16 16.56,-87.14 16.75,-92.43 20.01,-91.16"/>
</g>
<!-- 4 -->
<g id="node4" class="node">
<title>4</title>
<polygon fill="none" stroke="black" points="23,-24.8 0,-24.8 0,0 23,0 23,-24.8"/>
<text text-anchor="middle" x="11.5" y="-8.2" font-family="Times,serif" font-size="14.00">6</text>
</g>
<!-- 3&#45;&gt;4 -->
<g id="edge4" class="edge">
<title>3&#45;&gt;4</title>
<path fill="none" stroke="black" stroke-width="0.75" d="M11.5,-60.3C11.5,-51.93 11.5,-40.59 11.5,-31.16"/>
<polygon fill="black" stroke="black" stroke-width="0.75" points="13.25,-31.42 11.5,-26.42 9.75,-31.42 13.25,-31.42"/>
</g>
<!-- 6 -->
<g id="node6" class="node">
<title>6</title>
<polygon fill="none" stroke="black" points="64,-85.6 41,-85.6 41,-60.8 64,-60.8 64,-85.6"/>
<text text-anchor="middle" x="52.5" y="-69" font-family="Times,serif" font-size="14.00">5</text>
</g>
<!-- 5&#45;&gt;6 -->
<g id="edge5" class="edge">
<title>5&#45;&gt;6</title>
<path fill="none" stroke="black" stroke-width="0.75" d="M88.39,-121.1C81.75,-112.41 72.64,-100.52 65.27,-90.89"/>
<polygon fill="black" stroke="black" stroke-width="0.75" points="66.71,-89.89 62.28,-86.98 63.93,-92.02 66.71,-89.89"/>
</g>
<!-- 8 -->
<g id="node8" class="node">
<title>8</title>
<polygon fill="none" stroke="black" points="112.5,-85.6 82.5,-85.6 82.5,-60.8 112.5,-60.8 112.5,-85.6"/>
<text text-anchor="middle" x="97.5" y="-69" font-family="Times,serif" font-size="14.00">10</text>
</g>
<!-- 5&#45;&gt;8 -->
<g id="edge6" class="edge">
<title>5&#45;&gt;8</title>
<path fill="none" stroke="black" stroke-width="0.75" d="M97.5,-121.1C97.5,-112.73 97.5,-101.39 97.5,-91.96"/>
<polygon fill="black" stroke="black" stroke-width="0.75" points="99.25,-92.22 97.5,-87.22 95.75,-92.22 99.25,-92.22"/>
</g>
<!-- 9 -->
<g id="node9" class="node">
<title>9</title>
<polygon fill="none" stroke="black" points="154,-85.6 131,-85.6 131,-60.8 154,-60.8 154,-85.6"/>
<text text-anchor="middle" x="142.5" y="-69" font-family="Times,serif" font-size="14.00">7</text>
</g>
<!-- 5&#45;&gt;9 -->
<g id="edge7" class="edge">
<title>5&#45;&gt;9</title>
<path fill="none" stroke="black" stroke-width="0.75" d="M106.61,-121.1C113.25,-112.41 122.36,-100.52 129.73,-90.89"/>
<polygon fill="black" stroke="black" stroke-width="0.75" points="131.07,-92.02 132.72,-86.98 128.29,-89.89 131.07,-92.02"/>
</g>
<!-- 10 -->
<g id="node10" class="node">
<title>10</title>
<polygon fill="none" stroke="black" points="195,-85.6 172,-85.6 172,-60.8 195,-60.8 195,-85.6"/>
<text text-anchor="middle" x="183.5" y="-69" font-family="Times,serif" font-size="14.00">2</text>
</g>
<!-- 5&#45;&gt;10 -->
<g id="edge8" class="edge">
<title>5&#45;&gt;10</title>
<path fill="none" stroke="black" stroke-width="0.75" d="M109.46,-124.82C124.35,-114.64 149.87,-97.19 166.72,-85.68"/>
<polygon fill="black" stroke="black" stroke-width="0.75" points="167.57,-87.21 170.71,-82.95 165.59,-84.32 167.57,-87.21"/>
</g>
<!-- 7 -->
<g id="node7" class="node">
<title>7</title>
<polygon fill="none" stroke="black" points="64,-24.8 41,-24.8 41,0 64,0 64,-24.8"/>
<text text-anchor="middle" x="52.5" y="-8.2" font-family="Times,serif" font-size="14.00">8</text>
</g>
<!-- 6&#45;&gt;7 -->
<g id="edge9" class="edge">
<title>6&#45;&gt;7</title>
<path fill="none" stroke="black" stroke-width="0.75" d="M52.5,-60.3C52.5,-51.93 52.5,-40.59 52.5,-31.16"/>
<polygon fill="black" stroke="black" stroke-width="0.75" points="54.25,-31.42 52.5,-26.42 50.75,-31.42 54.25,-31.42"/>
</g>
</g>
</svg>
