<svg xmlns="http://www.w3.org/2000/svg" width="101.2" height="100.0" viewBox="-54.27 -50.42 111.15 110.00">
<g fill="none" stroke="black" stroke-width="0.1384%" transform="translate(0, 9.1607) scale(3.6139, -3.6139)">
<polygon points="2.64,1.73 2.88,2.78 0.75,3.59 0.89,4.95 0.55,4.63 -0.08,4.23 -2.97,3.67 -1.96,2.29 -3.07,1.94 -4.32,2.49 -4.31,0.56 -5.23,0.30 -4.46,-1.27 -4.83,-1.82 -4.43,-1.78 -3.19,-1.87 -3.37,-2.74 -3.50,-3.78 -0.03,-4.19 0.62,-3.98 3.00,-2.87 3.23,-1.91 4.00,-0.87" />
<polygon points="7.43,1.88 8.09,2.86 3.76,6.75 2.18,8.24 1.84,8.84 1.36,8.83 0.48,7.06 -1.60,8.52 -4.47,6.09 -7.79,4.78 -7.88,3.65 -6.77,2.25 -9.17,0.35 -8.21,-0.26 -8.14,-1.72 -1.77,-8.16 -0.01,-9.20 0.05,-8.20 4.44,-7.32 4.51,-5.86 6.52,-5.07 8.30,-2.26 8.24,-1.56" />
<polygon points="13.74,4.61 13.02,4.58 13.82,5.60 11.13,8.53 10.68,8.33 1.52,15.10 -4.10,14.46 -4.68,13.46 -6.46,11.52 -8.51,11.69 -8.91,10.66 -9.59,10.49 -12.58,7.16 -13.63,-4.37 -12.65,-7.43 -9.19,-11.08 -8.77,-12.43 7.19,-12.57 11.06,-10.03 11.91,-8.81 14.18,-5.58 13.47,-3.61 14.36,-1.78" />
</g>
</svg>