<svg xmlns="http://www.w3.org/2000/svg" width="149.4" height="100.0" viewBox="-1.89 -5.00 159.36 110.00">
<g fill="none" stroke="black" stroke-width="0.0650%" transform="translate(0, 100.0000) scale(7.6923, -7.6923)">
<line x1="0.40" y1="0.00" x2="0.40" y2="1.00" />
<line x1="0.81" y1="0.00" x2="0.81" y2="2.00" />
<line x1="1.21" y1="0.00" x2="1.21" y2="3.00" />
<line x1="1.62" y1="0.00" x2="1.62" y2="1.00" />
<line x1="2.02" y1="0.00" x2="2.02" y2="4.00" />
<line x1="2.43" y1="0.00" x2="2.43" y2="2.00" />
<line x1="2.83" y1="0.00" x2="2.83" y2="5.00" />
<line x1="3.24" y1="0.00" x2="3.24" y2="3.00" />
<line x1="3.64" y1="0.00" x2="3.64" y2="1.00" />
<line x1="4.05" y1="0.00" x2="4.05" y2="6.00" />
<line x1="4.45" y1="0.00" x2="4.45" y2="4.00" />
<line x1="4.85" y1="0.00" x2="4.85" y2="2.00" />
<line x1="5.26" y1="0.00" x2="5.26" y2="7.00" />
<line x1="5.66" y1="0.00" x2="5.66" y2="5.00" />
<line x1="6.07" y1="0.00" x2="6.07" y2="3.00" />
<line x1="6.47" y1="0.00" x2="6.47" y2="1.00" />
<line x1="6.88" y1="0.00" x2="6.88" y2="8.00" />
<line x1="7.28" y1="0.00" x2="7.28" y2="6.00" />
<line x1="7.69" y1="0.00" x2="7.69" y2="4.00" />
<line x1="8.09" y1="0.00" x2="8.09" y2="2.00" />
<line x1="8.49" y1="0.00" x2="8.49" y2="9.00" />
<line x1="8.90" y1="0.00" x2="8.90" y2="7.00" />
<line x1="9.30" y1="0.00" x2="9.30" y2="5.00" />
<line x1="9.71" y1="0.00" x2="9.71" y2="3.00" />
<line x1="10.11" y1="0.00" x2="10.11" y2="1.00" />
<line x1="10.52" y1="0.00" x2="10.52" y2="10.00" />
<line x1="10.92" y1="0.00" x2="10.92" y2="8.00" />
<line x1="11.33" y1="0.00" x2="11.33" y2="6.00" />
<line x1="11.73" y1="0.00" x2="11.73" y2="4.00" />
<line x1="12.14" y1="0.00" x2="12.14" y2="2.00" />
<line x1="12.54" y1="0.00" x2="12.54" y2="11.00" />
<line x1="12.94" y1="0.00" x2="12.94" y2="9.00" />
<line x1="13.35" y1="0.00" x2="13.35" y2="7.00" />
<line x1="13.75" y1="0.00" x2="13.75" y2="5.00" />
<line x1="14.16" y1="0.00" x2="14.16" y2="3.00" />
<line x1="14.56" y1="0.00" x2="14.56" y2="1.00" />
<line x1="14.97" y1="0.00" x2="14.97" y2="12.00" />
<line x1="15.37" y1="0.00" x2="15.37" y2="10.00" />
<line x1="15.78" y1="0.00" x2="15.78" y2="8.00" />
<line x1="16.18" y1="0.00" x2="16.18" y2="6.00" />
<line x1="16.58" y1="0.00" x2="16.58" y2="4.00" />
<line x1="16.99" y1="0.00" x2="16.99" y2="2.00" />
<line x1="17.39" y1="0.00" x2="17.39" y2="13.00" />
<line x1="17.80" y1="0.00" x2="17.80" y2="11.00" />
<line x1="18.20" y1="0.00" x2="18.20" y2="9.00" />
<line x1="18.61" y1="0.00" x2="18.61" y2="7.00" />
<line x1="19.01" y1="0.00" x2="19.01" y2="5.00" />
<line x1="19.42" y1="0.00" x2="19.42" y2="3.00" />
<line x1="19.82" y1="0.00" x2="19.82" y2="1.00" />
</g>
</svg>