<svg xmlns="http://www.w3.org/2000/svg" width="161.8" height="100.0" viewBox="-5.000 -55.000 171.803 110.000">
<g fill="none" stroke="black" stroke-width="0.0050%" transform="translate(0, 0.0000) scale(100.0000, -100.0000)">
<circle cx="0.000" cy="0.000" r="0.005" />
<circle cx="0.000" cy="0.500" r="0.005" />
<polyline points="0.000,0.500 0.016,0.500 0.033,0.500 0.049,0.500 0.065,0.500 0.082,0.500 0.098,0.500 0.114,0.500 0.131,0.500 0.147,0.500 0.163,0.500 0.180,0.500 0.196,0.500 0.212,0.500 0.229,0.500 0.245,0.500 0.262,0.500 0.278,0.482 0.294,0.426 0.311,0.368 0.327,0.309 0.343,0.249 0.360,0.187 0.376,0.125 0.392,0.063 0.409,-0.000 0.425,-0.063 0.441,-0.125 0.458,-0.187 0.474,-0.249 0.490,-0.309 0.507,-0.368 0.523,-0.426 0.539,-0.482 0.556,-0.500 0.572,-0.500 0.588,-0.500 0.605,-0.500 0.621,-0.500 0.637,-0.500 0.654,-0.500 0.670,-0.500 0.686,-0.500 0.703,-0.500 0.719,-0.500 0.735,-0.500 0.752,-0.500 0.768,-0.500 0.785,-0.500 0.801,-0.500 0.817,-0.500 0.834,-0.500 0.850,-0.500 0.866,-0.500 0.883,-0.500 0.899,-0.500 0.915,-0.500 0.932,-0.500 0.948,-0.500 0.964,-0.500 0.981,-0.500 0.997,-0.500 1.013,-0.500 1.030,-0.500 1.046,-0.500 1.062,-0.500 1.079,-0.500 1.095,-0.482 1.111,-0.426 1.128,-0.368 1.144,-0.309 1.160,-0.249 1.177,-0.187 1.193,-0.125 1.209,-0.063 1.226,-0.000 1.242,0.063 1.258,0.125 1.275,0.187 1.291,0.249 1.308,0.309 1.324,0.368 1.340,0.426 1.357,0.482 1.373,0.500 1.389,0.500 1.406,0.500 1.422,0.500 1.438,0.500 1.455,0.500 1.471,0.500 1.487,0.500 1.504,0.500 1.520,0.500 1.536,0.500 1.553,0.500 1.569,0.500 1.585,0.500 1.602,0.500 1.618,0.500" />
</g>
</svg>