<svg xmlns="http://www.w3.org/2000/svg" width="161.8" height="100.0" viewBox="-5.000 -55.000 171.803 110.000">
<g fill="none" stroke="black" stroke-width="0.0050%" transform="translate(0, 0.0000) scale(100.0000, -100.0000)">
<polyline points="0.000,0.500 0.016,0.500 0.032,0.500 0.049,0.500 0.065,0.500 0.081,0.500 0.097,0.500 0.113,0.500 0.129,0.500 0.146,0.500 0.162,0.500 0.178,0.500 0.194,0.500 0.210,0.500 0.227,0.500 0.243,0.500 0.259,0.500 0.275,0.482 0.291,0.426 0.307,0.368 0.324,0.309 0.340,0.249 0.356,0.187 0.372,0.125 0.388,0.063 0.405,-0.000 0.421,-0.063 0.437,-0.125 0.453,-0.187 0.469,-0.249 0.485,-0.309 0.502,-0.368 0.518,-0.426 0.534,-0.482 0.550,-0.500 0.566,-0.500 0.582,-0.500 0.599,-0.500 0.615,-0.500 0.631,-0.500 0.647,-0.500 0.663,-0.500 0.680,-0.500 0.696,-0.500 0.712,-0.500 0.728,-0.500 0.744,-0.500 0.760,-0.500 0.777,-0.500 0.793,-0.500 0.809,-0.500 0.825,-0.500 0.841,-0.500 0.858,-0.500 0.874,-0.500 0.890,-0.500 0.906,-0.500 0.922,-0.500 0.938,-0.500 0.955,-0.500 0.971,-0.500 0.987,-0.500 1.003,-0.500 1.019,-0.500 1.036,-0.500 1.052,-0.500 1.068,-0.500 1.084,-0.482 1.100,-0.426 1.116,-0.368 1.133,-0.309 1.149,-0.249 1.165,-0.187 1.181,-0.125 1.197,-0.063 1.214,-0.000 1.230,0.063 1.246,0.125 1.262,0.187 1.278,0.249 1.294,0.309 1.311,0.368 1.327,0.426 1.343,0.482 1.359,0.500 1.375,0.500 1.392,0.500 1.408,0.500 1.424,0.500 1.440,0.500 1.456,0.500 1.472,0.500 1.489,0.500 1.505,0.500 1.521,0.500 1.537,0.500 1.553,0.500 1.569,0.500 1.586,0.500 1.602,0.500 1.618,0.500" />
</g>
</svg>