<svg xmlns="http://www.w3.org/2000/svg" width="160.0" height="100.0" viewBox="-3.60 -5.00 170.01 110.00">
<g fill="none" stroke="black" stroke-width="0.0500%" transform="translate(0, 100.0000) scale(10.0000, -10.0000)">
<line x1="0.14" y1="0.00" x2="0.14" y2="1.00" />
<line x1="0.28" y1="0.00" x2="0.28" y2="2.00" />
<line x1="0.42" y1="0.00" x2="0.42" y2="3.00" />
<line x1="0.56" y1="0.00" x2="0.56" y2="0.50" />
<line x1="0.70" y1="0.00" x2="0.70" y2="4.00" />
<line x1="0.84" y1="0.00" x2="0.84" y2="0.33" />
<line x1="0.98" y1="0.00" x2="0.98" y2="1.50" />
<line x1="1.12" y1="0.00" x2="1.12" y2="5.00" />
<line x1="1.26" y1="0.00" x2="1.26" y2="0.25" />
<line x1="1.40" y1="0.00" x2="1.40" y2="1.33" />
<line x1="1.54" y1="0.00" x2="1.54" y2="2.50" />
<line x1="1.68" y1="0.00" x2="1.68" y2="0.67" />
<line x1="1.82" y1="0.00" x2="1.82" y2="6.00" />
<line x1="1.96" y1="0.00" x2="1.96" y2="0.20" />
<line x1="2.11" y1="0.00" x2="2.11" y2="1.25" />
<line x1="2.25" y1="0.00" x2="2.25" y2="2.33" />
<line x1="2.39" y1="0.00" x2="2.39" y2="0.75" />
<line x1="2.53" y1="0.00" x2="2.53" y2="3.50" />
<line x1="2.67" y1="0.00" x2="2.67" y2="0.40" />
<line x1="2.81" y1="0.00" x2="2.81" y2="1.67" />
<line x1="2.95" y1="0.00" x2="2.95" y2="7.00" />
<line x1="3.09" y1="0.00" x2="3.09" y2="0.17" />
<line x1="3.23" y1="0.00" x2="3.23" y2="1.20" />
<line x1="3.37" y1="0.00" x2="3.37" y2="2.25" />
<line x1="3.51" y1="0.00" x2="3.51" y2="0.80" />
<line x1="3.65" y1="0.00" x2="3.65" y2="3.33" />
<line x1="3.79" y1="0.00" x2="3.79" y2="0.43" />
<line x1="3.93" y1="0.00" x2="3.93" y2="1.75" />
<line x1="4.07" y1="0.00" x2="4.07" y2="4.50" />
<line x1="4.21" y1="0.00" x2="4.21" y2="0.29" />
<line x1="4.35" y1="0.00" x2="4.35" y2="1.40" />
<line x1="4.49" y1="0.00" x2="4.49" y2="2.67" />
<line x1="4.63" y1="0.00" x2="4.63" y2="0.60" />
<line x1="4.77" y1="0.00" x2="4.77" y2="8.00" />
<line x1="4.91" y1="0.00" x2="4.91" y2="0.14" />
<line x1="5.05" y1="0.00" x2="5.05" y2="1.17" />
<line x1="5.19" y1="0.00" x2="5.19" y2="2.20" />
<line x1="5.33" y1="0.00" x2="5.33" y2="0.83" />
<line x1="5.47" y1="0.00" x2="5.47" y2="3.25" />
<line x1="5.61" y1="0.00" x2="5.61" y2="0.44" />
<line x1="5.75" y1="0.00" x2="5.75" y2="1.80" />
<line x1="5.89" y1="0.00" x2="5.89" y2="4.33" />
<line x1="6.04" y1="0.00" x2="6.04" y2="0.30" />
<line x1="6.18" y1="0.00" x2="6.18" y2="1.43" />
<line x1="6.32" y1="0.00" x2="6.32" y2="2.75" />
<line x1="6.46" y1="0.00" x2="6.46" y2="0.57" />
<line x1="6.60" y1="0.00" x2="6.60" y2="5.50" />
<line x1="6.74" y1="0.00" x2="6.74" y2="0.22" />
<line x1="6.88" y1="0.00" x2="6.88" y2="1.29" />
<line x1="7.02" y1="0.00" x2="7.02" y2="2.40" />
<line x1="7.16" y1="0.00" x2="7.16" y2="0.71" />
<line x1="7.30" y1="0.00" x2="7.30" y2="3.67" />
<line x1="7.44" y1="0.00" x2="7.44" y2="0.38" />
<line x1="7.58" y1="0.00" x2="7.58" y2="1.60" />
<line x1="7.72" y1="0.00" x2="7.72" y2="9.00" />
<line x1="7.86" y1="0.00" x2="7.86" y2="0.13" />
<line x1="8.00" y1="0.00" x2="8.00" y2="1.14" />
<line x1="8.14" y1="0.00" x2="8.14" y2="2.17" />
<line x1="8.28" y1="0.00" x2="8.28" y2="0.86" />
<line x1="8.42" y1="0.00" x2="8.42" y2="3.20" />
<line x1="8.56" y1="0.00" x2="8.56" y2="0.45" />
<line x1="8.70" y1="0.00" x2="8.70" y2="1.83" />
<line x1="8.84" y1="0.00" x2="8.84" y2="4.25" />
<line x1="8.98" y1="0.00" x2="8.98" y2="0.31" />
<line x1="9.12" y1="0.00" x2="9.12" y2="1.44" />
<line x1="9.26" y1="0.00" x2="9.26" y2="2.80" />
<line x1="9.40" y1="0.00" x2="9.40" y2="0.56" />
<line x1="9.54" y1="0.00" x2="9.54" y2="5.33" />
<line x1="9.68" y1="0.00" x2="9.68" y2="0.23" />
<line x1="9.82" y1="0.00" x2="9.82" y2="1.30" />
<line x1="9.97" y1="0.00" x2="9.97" y2="2.43" />
<line x1="10.11" y1="0.00" x2="10.11" y2="0.70" />
<line x1="10.25" y1="0.00" x2="10.25" y2="3.75" />
<line x1="10.39" y1="0.00" x2="10.39" y2="0.36" />
<line x1="10.53" y1="0.00" x2="10.53" y2="1.57" />
<line x1="10.67" y1="0.00" x2="10.67" y2="6.50" />
<line x1="10.81" y1="0.00" x2="10.81" y2="0.18" />
<line x1="10.95" y1="0.00" x2="10.95" y2="1.22" />
<line x1="11.09" y1="0.00" x2="11.09" y2="2.29" />
<line x1="11.23" y1="0.00" x2="11.23" y2="0.78" />
<line x1="11.37" y1="0.00" x2="11.37" y2="3.40" />
<line x1="11.51" y1="0.00" x2="11.51" y2="0.42" />
<line x1="11.65" y1="0.00" x2="11.65" y2="1.71" />
<line x1="11.79" y1="0.00" x2="11.79" y2="4.67" />
<line x1="11.93" y1="0.00" x2="11.93" y2="0.27" />
<line x1="12.07" y1="0.00" x2="12.07" y2="1.38" />
<line x1="12.21" y1="0.00" x2="12.21" y2="2.60" />
<line x1="12.35" y1="0.00" x2="12.35" y2="0.63" />
<line x1="12.49" y1="0.00" x2="12.49" y2="10.00" />
<line x1="12.63" y1="0.00" x2="12.63" y2="0.11" />
<line x1="12.77" y1="0.00" x2="12.77" y2="1.13" />
<line x1="12.91" y1="0.00" x2="12.91" y2="2.14" />
<line x1="13.05" y1="0.00" x2="13.05" y2="0.88" />
<line x1="13.19" y1="0.00" x2="13.19" y2="3.17" />
<line x1="13.33" y1="0.00" x2="13.33" y2="0.46" />
<line x1="13.47" y1="0.00" x2="13.47" y2="1.86" />
<line x1="13.61" y1="0.00" x2="13.61" y2="4.20" />
<line x1="13.75" y1="0.00" x2="13.75" y2="0.31" />
<line x1="13.90" y1="0.00" x2="13.90" y2="1.45" />
<line x1="14.04" y1="0.00" x2="14.04" y2="2.83" />
<line x1="14.18" y1="0.00" x2="14.18" y2="0.55" />
<line x1="14.32" y1="0.00" x2="14.32" y2="5.25" />
<line x1="14.46" y1="0.00" x2="14.46" y2="0.24" />
<line x1="14.60" y1="0.00" x2="14.60" y2="1.31" />
<line x1="14.74" y1="0.00" x2="14.74" y2="2.44" />
<line x1="14.88" y1="0.00" x2="14.88" y2="0.69" />
<line x1="15.02" y1="0.00" x2="15.02" y2="3.80" />
<line x1="15.16" y1="0.00" x2="15.16" y2="0.36" />
<line x1="15.30" y1="0.00" x2="15.30" y2="1.56" />
<line x1="15.44" y1="0.00" x2="15.44" y2="6.33" />
<line x1="15.58" y1="0.00" x2="15.58" y2="0.19" />
<line x1="15.72" y1="0.00" x2="15.72" y2="1.23" />
<line x1="15.86" y1="0.00" x2="15.86" y2="2.30" />
<line x1="16.00" y1="0.00" x2="16.00" y2="0.77" />
<line x1="16.14" y1="0.00" x2="16.14" y2="3.43" />
</g>
</svg>