<svg xmlns="http://www.w3.org/2000/svg" width="161.80" height="100.00" viewBox="-4.46 -5.00 171.80 110.00">
<g fill="none" stroke="black" stroke-width="5.48%" transform="translate(0, 100.00) scale(0.09, -0.09)">
<circle cx="5.93" cy="0.00" r="5.48" />
<polyline points="5.93,0.00 11.85,1.00 17.78,3.00 23.70,6.00 29.63,2.00 35.55,7.00 41.48,13.00 47.40,20.00 53.33,12.00 59.26,21.00 65.18,11.00 71.11,22.00 77.03,10.00 82.96,23.00 88.88,9.00 94.81,24.00 100.73,8.00 106.66,25.00 112.59,43.00 118.51,62.00 124.44,42.00 130.36,63.00 136.29,41.00 142.21,18.00 148.14,42.00 154.06,17.00 159.99,43.00 165.92,16.00 171.84,44.00 177.77,15.00 183.69,45.00 189.62,14.00 195.54,46.00 201.47,79.00 207.40,113.00 213.32,78.00 219.25,114.00 225.17,77.00 231.10,39.00 237.02,78.00 242.95,38.00 248.87,79.00 254.80,37.00 260.73,80.00 266.65,36.00 272.58,81.00 278.50,35.00 284.43,82.00 290.35,34.00 296.28,83.00 302.20,33.00 308.13,84.00 314.06,32.00 319.98,85.00 325.91,31.00 331.83,86.00 337.76,30.00 343.68,87.00 349.61,29.00 355.53,88.00 361.46,28.00 367.39,89.00 373.31,27.00 379.24,90.00 385.16,26.00 391.09,91.00 397.01,157.00 402.94,224.00 408.86,156.00 414.79,225.00 420.72,155.00 426.64,226.00 432.57,154.00 438.49,227.00 444.42,153.00 450.34,228.00 456.27,152.00 462.19,75.00 468.12,153.00 474.05,74.00 479.97,154.00 485.90,73.00 491.82,155.00 497.75,72.00 503.67,156.00 509.60,71.00 515.53,157.00 521.45,70.00 527.38,158.00 533.30,69.00 539.23,159.00 545.15,68.00 551.08,160.00 557.00,67.00 562.93,161.00 568.86,66.00 574.78,162.00 580.71,65.00 586.63,163.00 592.56,64.00 598.48,164.00 604.41,265.00 610.33,367.00 616.26,264.00 622.19,368.00 628.11,263.00 634.04,369.00 639.96,262.00 645.89,370.00 651.81,261.00 657.74,151.00 663.66,40.00 669.59,152.00 675.52,265.00 681.44,379.00 687.37,494.00 693.29,378.00 699.22,495.00 705.14,377.00 711.07,258.00 716.99,138.00 722.92,259.00 728.85,137.00 734.77,260.00 740.70,136.00 746.62,261.00 752.55,135.00 758.47,262.00 764.40,134.00 770.32,5.00 776.25,135.00 782.18,4.00 788.10,136.00 794.03,269.00 799.95,403.00 805.88,268.00 811.80,132.00 817.73,269.00 823.66,131.00 829.58,270.00 835.51,130.00 841.43,271.00 847.36,129.00 853.28,272.00 859.21,128.00 865.13,273.00 871.06,127.00 876.99,274.00 882.91,126.00 888.84,275.00 894.76,125.00 900.69,276.00 906.61,124.00 912.54,277.00 918.46,123.00 924.39,278.00 930.32,122.00 936.24,279.00 942.17,121.00 948.09,280.00 954.02,120.00 959.94,281.00 965.87,119.00 971.79,282.00 977.72,118.00 983.65,283.00 989.57,117.00 995.50,284.00 1001.42,116.00 1007.35,285.00 1013.27,115.00 1019.20,286.00 1025.12,458.00 1031.05,631.00 1036.98,457.00 1042.90,632.00 1048.83,456.00 1054.75,633.00 1060.68,455.00 1066.60,634.00 1072.53,454.00 1078.45,635.00 1084.38,453.00 1090.31,636.00 1096.23,452.00 1102.16,267.00 1108.08,453.00 1114.01,266.00 1119.93,454.00 1125.86,643.00 1131.79,833.00 1137.71,642.00 1143.64,450.00 1149.56,257.00 1155.49,451.00 1161.41,256.00 1167.34,60.00 1173.26,257.00 1179.19,59.00 1185.12,258.00 1191.04,58.00 1196.97,259.00 1202.89,57.00 1208.82,260.00 1214.74,56.00 1220.67,261.00 1226.59,55.00 1232.52,262.00 1238.45,54.00 1244.37,263.00 1250.30,53.00 1256.22,264.00 1262.15,52.00 1268.07,265.00 1274.00,51.00 1279.92,266.00 1285.85,50.00 1291.78,267.00 1297.70,49.00 1303.63,268.00 1309.55,48.00 1315.48,269.00 1321.40,47.00 1327.33,270.00 1333.25,494.00 1339.18,719.00 1345.11,493.00 1351.03,720.00 1356.96,492.00 1362.88,721.00 1368.81,491.00 1374.73,722.00 1380.66,490.00 1386.58,723.00 1392.51,489.00 1398.44,254.00 1404.36,490.00 1410.29,253.00 1416.21,491.00 1422.14,252.00 1428.06,492.00 1433.99,251.00 1439.91,493.00 1445.84,250.00 1451.77,494.00 1457.69,249.00 1463.62,495.00 1469.54,248.00 1475.47,496.00 1481.39,247.00 1487.32,497.00 1493.25,246.00 1499.17,498.00 1505.10,245.00 1511.02,499.00 1516.95,244.00 1522.87,500.00 1528.80,243.00 1534.72,501.00 1540.65,242.00 1546.58,502.00 1552.50,241.00 1558.43,503.00 1564.35,240.00 1570.28,504.00 1576.20,239.00 1582.13,505.00 1588.05,238.00 1593.98,506.00 1599.91,237.00 1605.83,507.00 1611.76,236.00 1617.68,508.00 1623.61,235.00 1629.53,509.00 1635.46,234.00 1641.38,510.00 1647.31,233.00 1653.24,511.00 1659.16,232.00 1665.09,512.00 1671.01,231.00 1676.94,513.00 1682.86,230.00 1688.79,514.00 1694.71,229.00 1700.64,515.00 1706.57,802.00 1712.49,1090.00 1718.42,801.00 1724.34,1091.00 1730.27,800.00 1736.19,1092.00 1742.12,799.00 1748.04,1093.00 1753.97,798.00 1759.90,1094.00 1765.82,797.00 1771.75,1095.00 1777.67,796.00" />
</g>
</svg>