<svg xmlns="http://www.w3.org/2000/svg" width="161.8" height="100.0" viewBox="-3.37 -5.00 171.80 110.00">
<g fill="none" stroke="black" stroke-width="0.0605%" transform="translate(0, 100.0000) scale(8.2577, -8.2577)">
<circle cx="0.20" cy="0.00" r="0.06" />
<circle cx="0.40" cy="1.39" r="0.06" />
<circle cx="0.59" cy="0.69" r="0.06" />
<circle cx="0.79" cy="4.88" r="0.06" />
<circle cx="0.99" cy="4.86" r="0.06" />
<circle cx="1.19" cy="1.10" r="0.06" />
<circle cx="1.39" cy="1.61" r="0.06" />
<circle cx="1.58" cy="2.77" r="0.06" />
<circle cx="1.78" cy="2.64" r="0.06" />
<circle cx="1.98" cy="2.48" r="0.06" />
<circle cx="2.18" cy="2.30" r="0.06" />
<circle cx="2.38" cy="2.08" r="0.06" />
<circle cx="2.57" cy="1.79" r="0.06" />
<circle cx="2.77" cy="3.43" r="0.06" />
<circle cx="2.97" cy="3.37" r="0.06" />
<circle cx="3.17" cy="3.30" r="0.06" />
<circle cx="3.36" cy="3.22" r="0.06" />
<circle cx="3.56" cy="3.14" r="0.06" />
<circle cx="3.76" cy="11.51" r="0.06" />
<circle cx="3.96" cy="1.95" r="0.06" />
<circle cx="4.16" cy="2.20" r="0.06" />
<circle cx="4.35" cy="2.40" r="0.06" />
<circle cx="4.55" cy="2.56" r="0.06" />
<circle cx="4.75" cy="2.71" r="0.06" />
<circle cx="4.95" cy="2.83" r="0.06" />
<circle cx="5.15" cy="4.16" r="0.06" />
<circle cx="5.34" cy="4.13" r="0.06" />
<circle cx="5.54" cy="4.09" r="0.06" />
<circle cx="5.74" cy="4.06" r="0.06" />
<circle cx="5.94" cy="4.03" r="0.06" />
<circle cx="6.14" cy="3.99" r="0.06" />
<circle cx="6.33" cy="3.95" r="0.06" />
<circle cx="6.53" cy="3.91" r="0.06" />
<circle cx="6.73" cy="3.87" r="0.06" />
<circle cx="6.93" cy="3.83" r="0.06" />
<circle cx="7.13" cy="3.78" r="0.06" />
<circle cx="7.32" cy="3.74" r="0.06" />
<circle cx="7.52" cy="3.69" r="0.06" />
<circle cx="7.72" cy="3.64" r="0.06" />
<circle cx="7.92" cy="4.71" r="0.06" />
<circle cx="8.11" cy="3.09" r="0.06" />
<circle cx="8.31" cy="3.00" r="0.06" />
<circle cx="8.51" cy="2.89" r="0.06" />
<circle cx="8.71" cy="3.33" r="0.06" />
<circle cx="8.91" cy="3.40" r="0.06" />
<circle cx="9.10" cy="3.47" r="0.06" />
<circle cx="9.30" cy="5.40" r="0.06" />
<circle cx="9.50" cy="5.39" r="0.06" />
<circle cx="9.70" cy="5.38" r="0.06" />
<circle cx="9.90" cy="5.38" r="0.06" />
<circle cx="10.09" cy="5.37" r="0.06" />
<circle cx="10.29" cy="5.36" r="0.06" />
<circle cx="10.49" cy="5.35" r="0.06" />
<circle cx="10.69" cy="5.34" r="0.06" />
<circle cx="10.89" cy="5.33" r="0.06" />
<circle cx="11.08" cy="5.32" r="0.06" />
<circle cx="11.28" cy="5.31" r="0.06" />
<circle cx="11.48" cy="5.30" r="0.06" />
<circle cx="11.68" cy="5.29" r="0.06" />
<circle cx="11.88" cy="5.28" r="0.06" />
<circle cx="12.07" cy="12.11" r="0.06" />
<circle cx="12.27" cy="2.94" r="0.06" />
<circle cx="12.47" cy="3.04" r="0.06" />
<circle cx="12.67" cy="4.60" r="0.06" />
<circle cx="12.86" cy="4.57" r="0.06" />
<circle cx="13.06" cy="4.55" r="0.06" />
<circle cx="13.26" cy="4.53" r="0.06" />
<circle cx="13.46" cy="4.51" r="0.06" />
<circle cx="13.66" cy="4.49" r="0.06" />
<circle cx="13.85" cy="4.47" r="0.06" />
<circle cx="14.05" cy="4.44" r="0.06" />
<circle cx="14.25" cy="4.42" r="0.06" />
<circle cx="14.45" cy="4.39" r="0.06" />
<circle cx="14.65" cy="4.37" r="0.06" />
<circle cx="14.84" cy="4.34" r="0.06" />
<circle cx="15.04" cy="12.11" r="0.06" />
<circle cx="15.24" cy="3.61" r="0.06" />
<circle cx="15.44" cy="3.56" r="0.06" />
<circle cx="15.64" cy="3.50" r="0.06" />
<circle cx="15.83" cy="3.76" r="0.06" />
<circle cx="16.03" cy="3.81" r="0.06" />
<circle cx="16.23" cy="3.85" r="0.06" />
<circle cx="16.43" cy="3.89" r="0.06" />
<circle cx="16.63" cy="3.93" r="0.06" />
<circle cx="16.82" cy="3.97" r="0.06" />
<circle cx="17.02" cy="4.01" r="0.06" />
<circle cx="17.22" cy="4.04" r="0.06" />
<circle cx="17.42" cy="4.08" r="0.06" />
<circle cx="17.61" cy="4.11" r="0.06" />
<circle cx="17.81" cy="4.14" r="0.06" />
<circle cx="18.01" cy="4.17" r="0.06" />
<circle cx="18.21" cy="6.00" r="0.06" />
<circle cx="18.41" cy="5.99" r="0.06" />
<circle cx="18.60" cy="5.99" r="0.06" />
<circle cx="18.80" cy="5.98" r="0.06" />
<circle cx="19.00" cy="5.98" r="0.06" />
<circle cx="19.20" cy="5.97" r="0.06" />
<circle cx="19.40" cy="5.97" r="0.06" />
<circle cx="19.59" cy="5.96" r="0.06" />
<circle cx="19.79" cy="5.96" r="0.06" />
</g>
</svg>