<svg xmlns="http://www.w3.org/2000/svg" width="160.4" height="100.0" viewBox="-2.4 -5.0 170.4 110.0">
<g fill="none" stroke="black" stroke-width="0.5700%" transform="translate(0, 100.0000) scale(0.8772, -0.8772)">
<line x1="3.0" y1="0.0" x2="3.0" y2="1.0" />
<line x1="6.0" y1="0.0" x2="6.0" y2="2.0" />
<line x1="9.0" y1="0.0" x2="9.0" y2="3.0" />
<line x1="12.0" y1="0.0" x2="12.0" y2="5.0" />
<line x1="15.0" y1="0.0" x2="15.0" y2="6.0" />
<line x1="18.0" y1="0.0" x2="18.0" y2="7.0" />
<line x1="21.0" y1="0.0" x2="21.0" y2="9.0" />
<line x1="24.0" y1="0.0" x2="24.0" y2="11.0" />
<line x1="27.0" y1="0.0" x2="27.0" y2="13.0" />
<line x1="30.0" y1="0.0" x2="30.0" y2="15.0" />
<line x1="33.0" y1="0.0" x2="33.0" y2="17.0" />
<line x1="36.0" y1="0.0" x2="36.0" y2="18.0" />
<line x1="39.0" y1="0.0" x2="39.0" y2="19.0" />
<line x1="42.0" y1="0.0" x2="42.0" y2="21.0" />
<line x1="45.0" y1="0.0" x2="45.0" y2="24.0" />
<line x1="48.0" y1="0.0" x2="48.0" y2="26.0" />
<line x1="51.0" y1="0.0" x2="51.0" y2="28.0" />
<line x1="54.0" y1="0.0" x2="54.0" y2="30.0" />
<line x1="56.9" y1="0.0" x2="56.9" y2="32.0" />
<line x1="59.9" y1="0.0" x2="59.9" y2="33.0" />
<line x1="62.9" y1="0.0" x2="62.9" y2="34.0" />
<line x1="65.9" y1="0.0" x2="65.9" y2="36.0" />
<line x1="68.9" y1="0.0" x2="68.9" y2="39.0" />
<line x1="71.9" y1="0.0" x2="71.9" y2="41.0" />
<line x1="74.9" y1="0.0" x2="74.9" y2="43.0" />
<line x1="77.9" y1="0.0" x2="77.9" y2="45.0" />
<line x1="80.9" y1="0.0" x2="80.9" y2="47.0" />
<line x1="83.9" y1="0.0" x2="83.9" y2="49.0" />
<line x1="86.9" y1="0.0" x2="86.9" y2="51.0" />
<line x1="89.9" y1="0.0" x2="89.9" y2="53.0" />
<line x1="92.9" y1="0.0" x2="92.9" y2="55.0" />
<line x1="95.9" y1="0.0" x2="95.9" y2="57.0" />
<line x1="98.9" y1="0.0" x2="98.9" y2="59.0" />
<line x1="101.9" y1="0.0" x2="101.9" y2="61.0" />
<line x1="104.9" y1="0.0" x2="104.9" y2="63.0" />
<line x1="107.9" y1="0.0" x2="107.9" y2="65.0" />
<line x1="110.9" y1="0.0" x2="110.9" y2="66.0" />
<line x1="113.9" y1="0.0" x2="113.9" y2="67.0" />
<line x1="116.9" y1="0.0" x2="116.9" y2="69.0" />
<line x1="119.9" y1="0.0" x2="119.9" y2="71.0" />
<line x1="122.9" y1="0.0" x2="122.9" y2="73.0" />
<line x1="125.9" y1="0.0" x2="125.9" y2="75.0" />
<line x1="128.9" y1="0.0" x2="128.9" y2="78.0" />
<line x1="131.9" y1="0.0" x2="131.9" y2="80.0" />
<line x1="134.9" y1="0.0" x2="134.9" y2="82.0" />
<line x1="137.9" y1="0.0" x2="137.9" y2="84.0" />
<line x1="140.9" y1="0.0" x2="140.9" y2="86.0" />
<line x1="143.9" y1="0.0" x2="143.9" y2="88.0" />
<line x1="146.9" y1="0.0" x2="146.9" y2="90.0" />
<line x1="149.9" y1="0.0" x2="149.9" y2="92.0" />
<line x1="152.9" y1="0.0" x2="152.9" y2="94.0" />
<line x1="155.9" y1="0.0" x2="155.9" y2="96.0" />
<line x1="158.9" y1="0.0" x2="158.9" y2="98.0" />
<line x1="161.9" y1="0.0" x2="161.9" y2="100.0" />
<line x1="164.9" y1="0.0" x2="164.9" y2="101.0" />
<line x1="167.9" y1="0.0" x2="167.9" y2="102.0" />
<line x1="170.8" y1="0.0" x2="170.8" y2="104.0" />
<line x1="173.8" y1="0.0" x2="173.8" y2="106.0" />
<line x1="176.8" y1="0.0" x2="176.8" y2="108.0" />
<line x1="179.8" y1="0.0" x2="179.8" y2="112.0" />
<line x1="182.8" y1="0.0" x2="182.8" y2="113.0" />
<line x1="185.8" y1="0.0" x2="185.8" y2="114.0" />
</g>
</svg>