<svg xmlns="http://www.w3.org/2000/svg" width="161.1" height="100.0" viewBox="-3.1 -5.0 171.1 110.0">
<g fill="none" stroke="black" stroke-width="1.1450%" transform="translate(0, 100.0000) scale(0.4367, -0.4367)">
<line x1="4.4" y1="0.0" x2="4.4" y2="1.0" />
<line x1="8.8" y1="0.0" x2="8.8" y2="2.0" />
<line x1="13.2" y1="0.0" x2="13.2" y2="4.0" />
<line x1="17.6" y1="0.0" x2="17.6" y2="7.0" />
<line x1="22.0" y1="0.0" x2="22.0" y2="3.0" />
<line x1="26.4" y1="0.0" x2="26.4" y2="8.0" />
<line x1="30.7" y1="0.0" x2="30.7" y2="14.0" />
<line x1="35.1" y1="0.0" x2="35.1" y2="21.0" />
<line x1="39.5" y1="0.0" x2="39.5" y2="13.0" />
<line x1="43.9" y1="0.0" x2="43.9" y2="22.0" />
<line x1="48.3" y1="0.0" x2="48.3" y2="12.0" />
<line x1="52.7" y1="0.0" x2="52.7" y2="23.0" />
<line x1="57.1" y1="0.0" x2="57.1" y2="11.0" />
<line x1="61.5" y1="0.0" x2="61.5" y2="24.0" />
<line x1="65.9" y1="0.0" x2="65.9" y2="10.0" />
<line x1="70.3" y1="0.0" x2="70.3" y2="25.0" />
<line x1="74.7" y1="0.0" x2="74.7" y2="9.0" />
<line x1="79.1" y1="0.0" x2="79.1" y2="26.0" />
<line x1="83.4" y1="0.0" x2="83.4" y2="44.0" />
<line x1="87.8" y1="0.0" x2="87.8" y2="63.0" />
<line x1="92.2" y1="0.0" x2="92.2" y2="43.0" />
<line x1="96.6" y1="0.0" x2="96.6" y2="64.0" />
<line x1="101.0" y1="0.0" x2="101.0" y2="42.0" />
<line x1="105.4" y1="0.0" x2="105.4" y2="19.0" />
<line x1="109.8" y1="0.0" x2="109.8" y2="43.0" />
<line x1="114.2" y1="0.0" x2="114.2" y2="18.0" />
<line x1="118.6" y1="0.0" x2="118.6" y2="44.0" />
<line x1="123.0" y1="0.0" x2="123.0" y2="17.0" />
<line x1="127.4" y1="0.0" x2="127.4" y2="45.0" />
<line x1="131.8" y1="0.0" x2="131.8" y2="16.0" />
<line x1="136.1" y1="0.0" x2="136.1" y2="46.0" />
<line x1="140.5" y1="0.0" x2="140.5" y2="15.0" />
<line x1="144.9" y1="0.0" x2="144.9" y2="47.0" />
<line x1="149.3" y1="0.0" x2="149.3" y2="80.0" />
<line x1="153.7" y1="0.0" x2="153.7" y2="114.0" />
<line x1="158.1" y1="0.0" x2="158.1" y2="79.0" />
<line x1="162.5" y1="0.0" x2="162.5" y2="115.0" />
<line x1="166.9" y1="0.0" x2="166.9" y2="78.0" />
<line x1="171.3" y1="0.0" x2="171.3" y2="40.0" />
<line x1="175.7" y1="0.0" x2="175.7" y2="79.0" />
<line x1="180.1" y1="0.0" x2="180.1" y2="39.0" />
<line x1="184.5" y1="0.0" x2="184.5" y2="80.0" />
<line x1="188.8" y1="0.0" x2="188.8" y2="38.0" />
<line x1="193.2" y1="0.0" x2="193.2" y2="81.0" />
<line x1="197.6" y1="0.0" x2="197.6" y2="37.0" />
<line x1="202.0" y1="0.0" x2="202.0" y2="82.0" />
<line x1="206.4" y1="0.0" x2="206.4" y2="36.0" />
<line x1="210.8" y1="0.0" x2="210.8" y2="83.0" />
<line x1="215.2" y1="0.0" x2="215.2" y2="35.0" />
<line x1="219.6" y1="0.0" x2="219.6" y2="84.0" />
<line x1="224.0" y1="0.0" x2="224.0" y2="34.0" />
<line x1="228.4" y1="0.0" x2="228.4" y2="85.0" />
<line x1="232.8" y1="0.0" x2="232.8" y2="33.0" />
<line x1="237.2" y1="0.0" x2="237.2" y2="86.0" />
<line x1="241.5" y1="0.0" x2="241.5" y2="32.0" />
<line x1="245.9" y1="0.0" x2="245.9" y2="87.0" />
<line x1="250.3" y1="0.0" x2="250.3" y2="31.0" />
<line x1="254.7" y1="0.0" x2="254.7" y2="88.0" />
<line x1="259.1" y1="0.0" x2="259.1" y2="30.0" />
<line x1="263.5" y1="0.0" x2="263.5" y2="89.0" />
<line x1="267.9" y1="0.0" x2="267.9" y2="29.0" />
<line x1="272.3" y1="0.0" x2="272.3" y2="90.0" />
<line x1="276.7" y1="0.0" x2="276.7" y2="28.0" />
<line x1="281.1" y1="0.0" x2="281.1" y2="91.0" />
<line x1="285.5" y1="0.0" x2="285.5" y2="27.0" />
<line x1="289.9" y1="0.0" x2="289.9" y2="92.0" />
<line x1="294.3" y1="0.0" x2="294.3" y2="158.0" />
<line x1="298.6" y1="0.0" x2="298.6" y2="225.0" />
<line x1="303.0" y1="0.0" x2="303.0" y2="157.0" />
<line x1="307.4" y1="0.0" x2="307.4" y2="226.0" />
<line x1="311.8" y1="0.0" x2="311.8" y2="156.0" />
<line x1="316.2" y1="0.0" x2="316.2" y2="227.0" />
<line x1="320.6" y1="0.0" x2="320.6" y2="155.0" />
<line x1="325.0" y1="0.0" x2="325.0" y2="228.0" />
<line x1="329.4" y1="0.0" x2="329.4" y2="154.0" />
<line x1="333.8" y1="0.0" x2="333.8" y2="229.0" />
<line x1="338.2" y1="0.0" x2="338.2" y2="153.0" />
<line x1="342.6" y1="0.0" x2="342.6" y2="76.0" />
<line x1="347.0" y1="0.0" x2="347.0" y2="154.0" />
<line x1="351.3" y1="0.0" x2="351.3" y2="75.0" />
<line x1="355.7" y1="0.0" x2="355.7" y2="155.0" />
<line x1="360.1" y1="0.0" x2="360.1" y2="74.0" />
<line x1="364.5" y1="0.0" x2="364.5" y2="156.0" />
<line x1="368.9" y1="0.0" x2="368.9" y2="73.0" />
<line x1="373.3" y1="0.0" x2="373.3" y2="157.0" />
</g>
</svg>