<svg xmlns="http://www.w3.org/2000/svg" width="46.6" height="100.0" viewBox="-31.65 -31.92 56.63 110.00">
<g fill="none" stroke="black" stroke-width="0.0650%" transform="translate(0, 46.1538) scale(7.6923, -7.6923)">
<rect x="-3.00" y="-3.00" width="5.00" height="12.00" />
<polygon points="-2.60,-2.50 -3.03,-2.75 -3.03,-3.25 -2.60,-3.50 -2.17,-3.25 -2.17,-2.75" />
<polygon points="-1.73,-2.50 -2.17,-2.75 -2.17,-3.25 -1.73,-3.50 -1.30,-3.25 -1.30,-2.75" />
<polygon points="-0.87,-2.50 -1.30,-2.75 -1.30,-3.25 -0.87,-3.50 -0.43,-3.25 -0.43,-2.75" />
<polygon points="-0.00,-2.50 -0.43,-2.75 -0.43,-3.25 -0.00,-3.50 0.43,-3.25 0.43,-2.75" />
<polygon points="0.87,-2.50 0.43,-2.75 0.43,-3.25 0.87,-3.50 1.30,-3.25 1.30,-2.75" />
<polygon points="1.73,-2.50 1.30,-2.75 1.30,-3.25 1.73,-3.50 2.17,-3.25 2.17,-2.75" />
<polygon points="-3.03,-1.75 -3.46,-2.00 -3.46,-2.50 -3.03,-2.75 -2.60,-2.50 -2.60,-2.00" />
<polygon points="-2.17,-1.75 -2.60,-2.00 -2.60,-2.50 -2.17,-2.75 -1.73,-2.50 -1.73,-2.00" />
<polygon points="-1.30,-1.75 -1.73,-2.00 -1.73,-2.50 -1.30,-2.75 -0.87,-2.50 -0.87,-2.00" />
<polygon points="-0.43,-1.75 -0.87,-2.00 -0.87,-2.50 -0.43,-2.75 -0.00,-2.50 -0.00,-2.00" />
<polygon points="0.43,-1.75 -0.00,-2.00 -0.00,-2.50 0.43,-2.75 0.87,-2.50 0.87,-2.00" />
<polygon points="1.30,-1.75 0.87,-2.00 0.87,-2.50 1.30,-2.75 1.73,-2.50 1.73,-2.00" />
<polygon points="2.17,-1.75 1.73,-2.00 1.73,-2.50 2.17,-2.75 2.60,-2.50 2.60,-2.00" />
<polygon points="-2.60,-1.00 -3.03,-1.25 -3.03,-1.75 -2.60,-2.00 -2.17,-1.75 -2.17,-1.25" />
<polygon points="-1.73,-1.00 -2.17,-1.25 -2.17,-1.75 -1.73,-2.00 -1.30,-1.75 -1.30,-1.25" />
<polygon points="-0.87,-1.00 -1.30,-1.25 -1.30,-1.75 -0.87,-2.00 -0.43,-1.75 -0.43,-1.25" />
<polygon points="-0.00,-1.00 -0.43,-1.25 -0.43,-1.75 -0.00,-2.00 0.43,-1.75 0.43,-1.25" />
<polygon points="0.87,-1.00 0.43,-1.25 0.43,-1.75 0.87,-2.00 1.30,-1.75 1.30,-1.25" />
<polygon points="1.73,-1.00 1.30,-1.25 1.30,-1.75 1.73,-2.00 2.17,-1.75 2.17,-1.25" />
<polygon points="-3.03,-0.25 -3.46,-0.50 -3.46,-1.00 -3.03,-1.25 -2.60,-1.00 -2.60,-0.50" />
<polygon points="-2.17,-0.25 -2.60,-0.50 -2.60,-1.00 -2.17,-1.25 -1.73,-1.00 -1.73,-0.50" />
<polygon points="-1.30,-0.25 -1.73,-0.50 -1.73,-1.00 -1.30,-1.25 -0.87,-1.00 -0.87,-0.50" />
<polygon points="-0.43,-0.25 -0.87,-0.50 -0.87,-1.00 -0.43,-1.25 -0.00,-1.00 0.00,-0.50" />
<polygon points="0.43,-0.25 -0.00,-0.50 -0.00,-1.00 0.43,-1.25 0.87,-1.00 0.87,-0.50" />
<polygon points="1.30,-0.25 0.87,-0.50 0.87,-1.00 1.30,-1.25 1.73,-1.00 1.73,-0.50" />
<polygon points="2.17,-0.25 1.73,-0.50 1.73,-1.00 2.17,-1.25 2.60,-1.00 2.60,-0.50" />
<polygon points="-2.60,0.50 -3.03,0.25 -3.03,-0.25 -2.60,-0.50 -2.17,-0.25 -2.17,0.25" />
<polygon points="-1.73,0.50 -2.17,0.25 -2.17,-0.25 -1.73,-0.50 -1.30,-0.25 -1.30,0.25" />
<polygon points="-0.87,0.50 -1.30,0.25 -1.30,-0.25 -0.87,-0.50 -0.43,-0.25 -0.43,0.25" />
<polygon points="0.00,0.50 -0.43,0.25 -0.43,-0.25 -0.00,-0.50 0.43,-0.25 0.43,0.25" />
<polygon points="0.87,0.50 0.43,0.25 0.43,-0.25 0.87,-0.50 1.30,-0.25 1.30,0.25" />
<polygon points="1.73,0.50 1.30,0.25 1.30,-0.25 1.73,-0.50 2.17,-0.25 2.17,0.25" />
<polygon points="-3.03,1.25 -3.46,1.00 -3.46,0.50 -3.03,0.25 -2.60,0.50 -2.60,1.00" />
<polygon points="-2.17,1.25 -2.60,1.00 -2.60,0.50 -2.17,0.25 -1.73,0.50 -1.73,1.00" />
<polygon points="-1.30,1.25 -1.73,1.00 -1.73,0.50 -1.30,0.25 -0.87,0.50 -0.87,1.00" />
<polygon points="-0.43,1.25 -0.87,1.00 -0.87,0.50 -0.43,0.25 0.00,0.50 0.00,1.00" />
<polygon points="0.43,1.25 0.00,1.00 0.00,0.50 0.43,0.25 0.87,0.50 0.87,1.00" />
<polygon points="1.30,1.25 0.87,1.00 0.87,0.50 1.30,0.25 1.73,0.50 1.73,1.00" />
<polygon points="2.17,1.25 1.73,1.00 1.73,0.50 2.17,0.25 2.60,0.50 2.60,1.00" />
<polygon points="-2.60,2.00 -3.03,1.75 -3.03,1.25 -2.60,1.00 -2.17,1.25 -2.17,1.75" />
<polygon points="-1.73,2.00 -2.17,1.75 -2.17,1.25 -1.73,1.00 -1.30,1.25 -1.30,1.75" />
<polygon points="-0.87,2.00 -1.30,1.75 -1.30,1.25 -0.87,1.00 -0.43,1.25 -0.43,1.75" />
<polygon points="0.00,2.00 -0.43,1.75 -0.43,1.25 0.00,1.00 0.43,1.25 0.43,1.75" />
<polygon points="0.87,2.00 0.43,1.75 0.43,1.25 0.87,1.00 1.30,1.25 1.30,1.75" />
<polygon points="1.73,2.00 1.30,1.75 1.30,1.25 1.73,1.00 2.17,1.25 2.17,1.75" />
<polygon points="-3.03,2.75 -3.46,2.50 -3.46,2.00 -3.03,1.75 -2.60,2.00 -2.60,2.50" />
<polygon points="-2.17,2.75 -2.60,2.50 -2.60,2.00 -2.17,1.75 -1.73,2.00 -1.73,2.50" />
<polygon points="-1.30,2.75 -1.73,2.50 -1.73,2.00 -1.30,1.75 -0.87,2.00 -0.87,2.50" />
<polygon points="-0.43,2.75 -0.87,2.50 -0.87,2.00 -0.43,1.75 0.00,2.00 0.00,2.50" />
<polygon points="0.43,2.75 0.00,2.50 0.00,2.00 0.43,1.75 0.87,2.00 0.87,2.50" />
<polygon points="1.30,2.75 0.87,2.50 0.87,2.00 1.30,1.75 1.73,2.00 1.73,2.50" />
<polygon points="2.17,2.75 1.73,2.50 1.73,2.00 2.17,1.75 2.60,2.00 2.60,2.50" />
<polygon points="-2.60,3.50 -3.03,3.25 -3.03,2.75 -2.60,2.50 -2.17,2.75 -2.17,3.25" />
<polygon points="-1.73,3.50 -2.17,3.25 -2.17,2.75 -1.73,2.50 -1.30,2.75 -1.30,3.25" />
<polygon points="-0.87,3.50 -1.30,3.25 -1.30,2.75 -0.87,2.50 -0.43,2.75 -0.43,3.25" />
<polygon points="0.00,3.50 -0.43,3.25 -0.43,2.75 0.00,2.50 0.43,2.75 0.43,3.25" />
<polygon points="0.87,3.50 0.43,3.25 0.43,2.75 0.87,2.50 1.30,2.75 1.30,3.25" />
<polygon points="1.73,3.50 1.30,3.25 1.30,2.75 1.73,2.50 2.17,2.75 2.17,3.25" />
<polygon points="-3.03,4.25 -3.46,4.00 -3.46,3.50 -3.03,3.25 -2.60,3.50 -2.60,4.00" />
<polygon points="-2.17,4.25 -2.60,4.00 -2.60,3.50 -2.17,3.25 -1.73,3.50 -1.73,4.00" />
<polygon points="-1.30,4.25 -1.73,4.00 -1.73,3.50 -1.30,3.25 -0.87,3.50 -0.87,4.00" />
<polygon points="-0.43,4.25 -0.87,4.00 -0.87,3.50 -0.43,3.25 0.00,3.50 0.00,4.00" />
<polygon points="0.43,4.25 0.00,4.00 0.00,3.50 0.43,3.25 0.87,3.50 0.87,4.00" />
<polygon points="1.30,4.25 0.87,4.00 0.87,3.50 1.30,3.25 1.73,3.50 1.73,4.00" />
<polygon points="2.17,4.25 1.73,4.00 1.73,3.50 2.17,3.25 2.60,3.50 2.60,4.00" />
<polygon points="-2.60,5.00 -3.03,4.75 -3.03,4.25 -2.60,4.00 -2.17,4.25 -2.17,4.75" />
<polygon points="-1.73,5.00 -2.17,4.75 -2.17,4.25 -1.73,4.00 -1.30,4.25 -1.30,4.75" />
<polygon points="-0.87,5.00 -1.30,4.75 -1.30,4.25 -0.87,4.00 -0.43,4.25 -0.43,4.75" />
<polygon points="0.00,5.00 -0.43,4.75 -0.43,4.25 0.00,4.00 0.43,4.25 0.43,4.75" />
<polygon points="0.87,5.00 0.43,4.75 0.43,4.25 0.87,4.00 1.30,4.25 1.30,4.75" />
<polygon points="1.73,5.00 1.30,4.75 1.30,4.25 1.73,4.00 2.17,4.25 2.17,4.75" />
<polygon points="-3.03,5.75 -3.46,5.50 -3.46,5.00 -3.03,4.75 -2.60,5.00 -2.60,5.50" />
<polygon points="-2.17,5.75 -2.60,5.50 -2.60,5.00 -2.17,4.75 -1.73,5.00 -1.73,5.50" />
<polygon points="-1.30,5.75 -1.73,5.50 -1.73,5.00 -1.30,4.75 -0.87,5.00 -0.87,5.50" />
<polygon points="-0.43,5.75 -0.87,5.50 -0.87,5.00 -0.43,4.75 0.00,5.00 0.00,5.50" />
<polygon points="0.43,5.75 0.00,5.50 0.00,5.00 0.43,4.75 0.87,5.00 0.87,5.50" />
<polygon points="1.30,5.75 0.87,5.50 0.87,5.00 1.30,4.75 1.73,5.00 1.73,5.50" />
<polygon points="2.17,5.75 1.73,5.50 1.73,5.00 2.17,4.75 2.60,5.00 2.60,5.50" />
<polygon points="-2.60,6.50 -3.03,6.25 -3.03,5.75 -2.60,5.50 -2.17,5.75 -2.17,6.25" />
<polygon points="-1.73,6.50 -2.17,6.25 -2.17,5.75 -1.73,5.50 -1.30,5.75 -1.30,6.25" />
<polygon points="-0.87,6.50 -1.30,6.25 -1.30,5.75 -0.87,5.50 -0.43,5.75 -0.43,6.25" />
<polygon points="0.00,6.50 -0.43,6.25 -0.43,5.75 0.00,5.50 0.43,5.75 0.43,6.25" />
<polygon points="0.87,6.50 0.43,6.25 0.43,5.75 0.87,5.50 1.30,5.75 1.30,6.25" />
<polygon points="1.73,6.50 1.30,6.25 1.30,5.75 1.73,5.50 2.17,5.75 2.17,6.25" />
<polygon points="-3.03,7.25 -3.46,7.00 -3.46,6.50 -3.03,6.25 -2.60,6.50 -2.60,7.00" />
<polygon points="-2.17,7.25 -2.60,7.00 -2.60,6.50 -2.17,6.25 -1.73,6.50 -1.73,7.00" />
<polygon points="-1.30,7.25 -1.73,7.00 -1.73,6.50 -1.30,6.25 -0.87,6.50 -0.87,7.00" />
<polygon points="-0.43,7.25 -0.87,7.00 -0.87,6.50 -0.43,6.25 0.00,6.50 0.00,7.00" />
<polygon points="0.43,7.25 0.00,7.00 0.00,6.50 0.43,6.25 0.87,6.50 0.87,7.00" />
<polygon points="1.30,7.25 0.87,7.00 0.87,6.50 1.30,6.25 1.73,6.50 1.73,7.00" />
<polygon points="2.17,7.25 1.73,7.00 1.73,6.50 2.17,6.25 2.60,6.50 2.60,7.00" />
<polygon points="-2.60,8.00 -3.03,7.75 -3.03,7.25 -2.60,7.00 -2.17,7.25 -2.17,7.75" />
<polygon points="-1.73,8.00 -2.17,7.75 -2.17,7.25 -1.73,7.00 -1.30,7.25 -1.30,7.75" />
<polygon points="-0.87,8.00 -1.30,7.75 -1.30,7.25 -0.87,7.00 -0.43,7.25 -0.43,7.75" />
<polygon points="0.00,8.00 -0.43,7.75 -0.43,7.25 0.00,7.00 0.43,7.25 0.43,7.75" />
<polygon points="0.87,8.00 0.43,7.75 0.43,7.25 0.87,7.00 1.30,7.25 1.30,7.75" />
<polygon points="1.73,8.00 1.30,7.75 1.30,7.25 1.73,7.00 2.17,7.25 2.17,7.75" />
<polygon points="-3.03,8.75 -3.46,8.50 -3.46,8.00 -3.03,7.75 -2.60,8.00 -2.60,8.50" />
<polygon points="-2.17,8.75 -2.60,8.50 -2.60,8.00 -2.17,7.75 -1.73,8.00 -1.73,8.50" />
<polygon points="-1.30,8.75 -1.73,8.50 -1.73,8.00 -1.30,7.75 -0.87,8.00 -0.87,8.50" />
<polygon points="-0.43,8.75 -0.87,8.50 -0.87,8.00 -0.43,7.75 0.00,8.00 0.00,8.50" />
<polygon points="0.43,8.75 0.00,8.50 0.00,8.00 0.43,7.75 0.87,8.00 0.87,8.50" />
<polygon points="1.30,8.75 0.87,8.50 0.87,8.00 1.30,7.75 1.73,8.00 1.73,8.50" />
<polygon points="2.17,8.75 1.73,8.50 1.73,8.00 2.17,7.75 2.60,8.00 2.60,8.50" />
<polygon points="-2.60,9.50 -3.03,9.25 -3.03,8.75 -2.60,8.50 -2.17,8.75 -2.17,9.25" />
<polygon points="-1.73,9.50 -2.17,9.25 -2.17,8.75 -1.73,8.50 -1.30,8.75 -1.30,9.25" />
<polygon points="-0.87,9.50 -1.30,9.25 -1.30,8.75 -0.87,8.50 -0.43,8.75 -0.43,9.25" />
<polygon points="0.00,9.50 -0.43,9.25 -0.43,8.75 0.00,8.50 0.43,8.75 0.43,9.25" />
<polygon points="0.87,9.50 0.43,9.25 0.43,8.75 0.87,8.50 1.30,8.75 1.30,9.25" />
<polygon points="1.73,9.50 1.30,9.25 1.30,8.75 1.73,8.50 2.17,8.75 2.17,9.25" />
</g>
</svg>