<svg xmlns="http://www.w3.org/2000/svg" width="323.6" height="100.0" viewBox="-5.0 -5.0 333.6 110.0">
<g fill="none" stroke="black" stroke-width="0.5500%" transform="translate(0, 100.0000) scale(0.9091, -0.9091)">
<line x1="0.0" y1="0.0" x2="356.0" y2="0.0" />
<line x1="0.0" y1="10.0" x2="356.0" y2="10.0" />
<line x1="0.0" y1="20.0" x2="356.0" y2="20.0" />
<line x1="0.0" y1="30.0" x2="356.0" y2="30.0" />
<line x1="0.0" y1="40.0" x2="356.0" y2="40.0" />
<line x1="0.0" y1="50.0" x2="356.0" y2="50.0" />
<line x1="0.0" y1="60.0" x2="356.0" y2="60.0" />
<line x1="0.0" y1="70.0" x2="356.0" y2="70.0" />
<line x1="0.0" y1="80.0" x2="356.0" y2="80.0" />
<line x1="0.0" y1="90.0" x2="356.0" y2="90.0" />
<line x1="0.0" y1="100.0" x2="356.0" y2="100.0" />
<line x1="0.0" y1="110.0" x2="356.0" y2="110.0" />
<line x1="0.0" y1="0.0" x2="0.0" y2="110.0" />
<line x1="356.0" y1="100.0" x2="356.0" y2="110.0" />
<line x1="296.6" y1="90.0" x2="296.6" y2="100.0" />
<line x1="356.0" y1="90.0" x2="356.0" y2="100.0" />
<line x1="237.3" y1="80.0" x2="237.3" y2="90.0" />
<line x1="356.0" y1="80.0" x2="356.0" y2="90.0" />
<line x1="237.3" y1="70.0" x2="237.3" y2="80.0" />
<line x1="296.6" y1="70.0" x2="296.6" y2="80.0" />
<line x1="356.0" y1="70.0" x2="356.0" y2="80.0" />
<line x1="178.0" y1="60.0" x2="178.0" y2="70.0" />
<line x1="356.0" y1="60.0" x2="356.0" y2="70.0" />
<line x1="178.0" y1="50.0" x2="178.0" y2="60.0" />
<line x1="296.6" y1="50.0" x2="296.6" y2="60.0" />
<line x1="356.0" y1="50.0" x2="356.0" y2="60.0" />
<line x1="178.0" y1="40.0" x2="178.0" y2="50.0" />
<line x1="237.3" y1="40.0" x2="237.3" y2="50.0" />
<line x1="296.6" y1="40.0" x2="296.6" y2="50.0" />
<line x1="356.0" y1="40.0" x2="356.0" y2="50.0" />
<line x1="118.7" y1="30.0" x2="118.7" y2="40.0" />
<line x1="237.3" y1="30.0" x2="237.3" y2="40.0" />
<line x1="356.0" y1="30.0" x2="356.0" y2="40.0" />
<line x1="118.7" y1="20.0" x2="118.7" y2="30.0" />
<line x1="237.3" y1="20.0" x2="237.3" y2="30.0" />
<line x1="296.6" y1="20.0" x2="296.6" y2="30.0" />
<line x1="356.0" y1="20.0" x2="356.0" y2="30.0" />
<line x1="118.7" y1="10.0" x2="118.7" y2="20.0" />
<line x1="178.0" y1="10.0" x2="178.0" y2="20.0" />
<line x1="237.3" y1="10.0" x2="237.3" y2="20.0" />
<line x1="296.6" y1="10.0" x2="296.6" y2="20.0" />
<line x1="356.0" y1="10.0" x2="356.0" y2="20.0" />
<line x1="59.3" y1="0.0" x2="59.3" y2="10.0" />
<line x1="118.7" y1="0.0" x2="118.7" y2="10.0" />
<line x1="178.0" y1="0.0" x2="178.0" y2="10.0" />
<line x1="237.3" y1="0.0" x2="237.3" y2="10.0" />
<line x1="296.6" y1="0.0" x2="296.6" y2="10.0" />
<line x1="356.0" y1="0.0" x2="356.0" y2="10.0" />
</g>
</svg>