<svg xmlns="http://www.w3.org/2000/svg" width="323.6" height="100.0" viewBox="-5.0 -5.0 333.6 110.0">
<g fill="none" stroke="black" stroke-width="0.5500%" transform="translate(0, 100.0000) scale(0.9091, -0.9091)">
<line x1="0.0" y1="0.0" x2="356.0" y2="0.0" />
<line x1="0.0" y1="10.0" x2="356.0" y2="10.0" />
<line x1="0.0" y1="20.0" x2="356.0" y2="20.0" />
<line x1="0.0" y1="30.0" x2="356.0" y2="30.0" />
<line x1="0.0" y1="40.0" x2="356.0" y2="40.0" />
<line x1="0.0" y1="50.0" x2="356.0" y2="50.0" />
<line x1="0.0" y1="60.0" x2="356.0" y2="60.0" />
<line x1="0.0" y1="70.0" x2="356.0" y2="70.0" />
<line x1="0.0" y1="80.0" x2="356.0" y2="80.0" />
<line x1="0.0" y1="90.0" x2="356.0" y2="90.0" />
<line x1="0.0" y1="100.0" x2="356.0" y2="100.0" />
<line x1="0.0" y1="110.0" x2="356.0" y2="110.0" />
<line x1="0.0" y1="0.0" x2="0.0" y2="110.0" />
<line x1="54.8" y1="100.0" x2="54.8" y2="110.0" />
<line x1="105.0" y1="100.0" x2="105.0" y2="110.0" />
<line x1="150.6" y1="100.0" x2="150.6" y2="110.0" />
<line x1="191.7" y1="100.0" x2="191.7" y2="110.0" />
<line x1="228.2" y1="100.0" x2="228.2" y2="110.0" />
<line x1="260.1" y1="100.0" x2="260.1" y2="110.0" />
<line x1="287.5" y1="100.0" x2="287.5" y2="110.0" />
<line x1="310.3" y1="100.0" x2="310.3" y2="110.0" />
<line x1="328.6" y1="100.0" x2="328.6" y2="110.0" />
<line x1="342.3" y1="100.0" x2="342.3" y2="110.0" />
<line x1="351.4" y1="100.0" x2="351.4" y2="110.0" />
<line x1="356.0" y1="100.0" x2="356.0" y2="110.0" />
<line x1="27.4" y1="90.0" x2="27.4" y2="100.0" />
<line x1="59.3" y1="90.0" x2="59.3" y2="100.0" />
<line x1="82.1" y1="90.0" x2="82.1" y2="100.0" />
<line x1="118.7" y1="90.0" x2="118.7" y2="100.0" />
<line x1="136.9" y1="90.0" x2="136.9" y2="100.0" />
<line x1="178.0" y1="90.0" x2="178.0" y2="100.0" />
<line x1="191.7" y1="90.0" x2="191.7" y2="100.0" />
<line x1="237.3" y1="90.0" x2="237.3" y2="100.0" />
<line x1="246.4" y1="90.0" x2="246.4" y2="100.0" />
<line x1="296.6" y1="90.0" x2="296.6" y2="100.0" />
<line x1="301.2" y1="90.0" x2="301.2" y2="100.0" />
<line x1="356.0" y1="90.0" x2="356.0" y2="100.0" />
<line x1="13.7" y1="80.0" x2="13.7" y2="90.0" />
<line x1="54.8" y1="80.0" x2="54.8" y2="90.0" />
<line x1="100.4" y1="80.0" x2="100.4" y2="90.0" />
<line x1="118.7" y1="80.0" x2="118.7" y2="90.0" />
<line x1="127.8" y1="80.0" x2="127.8" y2="90.0" />
<line x1="164.3" y1="80.0" x2="164.3" y2="90.0" />
<line x1="214.5" y1="80.0" x2="214.5" y2="90.0" />
<line x1="237.3" y1="80.0" x2="237.3" y2="90.0" />
<line x1="241.9" y1="80.0" x2="241.9" y2="90.0" />
<line x1="273.8" y1="80.0" x2="273.8" y2="90.0" />
<line x1="328.6" y1="80.0" x2="328.6" y2="90.0" />
<line x1="356.0" y1="80.0" x2="356.0" y2="90.0" />
<line x1="50.2" y1="70.0" x2="50.2" y2="80.0" />
<line x1="86.7" y1="70.0" x2="86.7" y2="80.0" />
<line x1="109.5" y1="70.0" x2="109.5" y2="80.0" />
<line x1="118.7" y1="70.0" x2="118.7" y2="80.0" />
<line x1="123.2" y1="70.0" x2="123.2" y2="80.0" />
<line x1="141.5" y1="70.0" x2="141.5" y2="80.0" />
<line x1="173.4" y1="70.0" x2="173.4" y2="80.0" />
<line x1="219.1" y1="70.0" x2="219.1" y2="80.0" />
<line x1="273.8" y1="70.0" x2="273.8" y2="80.0" />
<line x1="314.9" y1="70.0" x2="314.9" y2="80.0" />
<line x1="342.3" y1="70.0" x2="342.3" y2="80.0" />
<line x1="356.0" y1="70.0" x2="356.0" y2="80.0" />
<line x1="31.9" y1="60.0" x2="31.9" y2="70.0" />
<line x1="50.2" y1="60.0" x2="50.2" y2="70.0" />
<line x1="95.8" y1="60.0" x2="95.8" y2="70.0" />
<line x1="100.4" y1="60.0" x2="100.4" y2="70.0" />
<line x1="155.2" y1="60.0" x2="155.2" y2="70.0" />
<line x1="164.3" y1="60.0" x2="164.3" y2="70.0" />
<line x1="205.4" y1="60.0" x2="205.4" y2="70.0" />
<line x1="228.2" y1="60.0" x2="228.2" y2="70.0" />
<line x1="255.6" y1="60.0" x2="255.6" y2="70.0" />
<line x1="292.1" y1="60.0" x2="292.1" y2="70.0" />
<line x1="305.8" y1="60.0" x2="305.8" y2="70.0" />
<line x1="356.0" y1="60.0" x2="356.0" y2="70.0" />
<line x1="41.1" y1="50.0" x2="41.1" y2="60.0" />
<line x1="50.2" y1="50.0" x2="50.2" y2="60.0" />
<line x1="73.0" y1="50.0" x2="73.0" y2="60.0" />
<line x1="127.8" y1="50.0" x2="127.8" y2="60.0" />
<line x1="155.2" y1="50.0" x2="155.2" y2="60.0" />
<line x1="159.7" y1="50.0" x2="159.7" y2="60.0" />
<line x1="196.2" y1="50.0" x2="196.2" y2="60.0" />
<line x1="241.9" y1="50.0" x2="241.9" y2="60.0" />
<line x1="255.6" y1="50.0" x2="255.6" y2="60.0" />
<line x1="273.8" y1="50.0" x2="273.8" y2="60.0" />
<line x1="324.0" y1="50.0" x2="324.0" y2="60.0" />
<line x1="356.0" y1="50.0" x2="356.0" y2="60.0" />
<line x1="36.5" y1="40.0" x2="36.5" y2="50.0" />
<line x1="41.1" y1="40.0" x2="41.1" y2="50.0" />
<line x1="86.7" y1="40.0" x2="86.7" y2="50.0" />
<line x1="114.1" y1="40.0" x2="114.1" y2="50.0" />
<line x1="127.8" y1="40.0" x2="127.8" y2="50.0" />
<line x1="182.5" y1="40.0" x2="182.5" y2="50.0" />
<line x1="200.8" y1="40.0" x2="200.8" y2="50.0" />
<line x1="223.6" y1="40.0" x2="223.6" y2="50.0" />
<line x1="273.8" y1="40.0" x2="273.8" y2="50.0" />
<line x1="282.9" y1="40.0" x2="282.9" y2="50.0" />
<line x1="314.9" y1="40.0" x2="314.9" y2="50.0" />
<line x1="356.0" y1="40.0" x2="356.0" y2="50.0" />
<line x1="18.3" y1="30.0" x2="18.3" y2="40.0" />
<line x1="73.0" y1="30.0" x2="73.0" y2="40.0" />
<line x1="95.8" y1="30.0" x2="95.8" y2="40.0" />
<line x1="109.5" y1="30.0" x2="109.5" y2="40.0" />
<line x1="159.7" y1="30.0" x2="159.7" y2="40.0" />
<line x1="187.1" y1="30.0" x2="187.1" y2="40.0" />
<line x1="196.2" y1="30.0" x2="196.2" y2="40.0" />
<line x1="241.9" y1="30.0" x2="241.9" y2="40.0" />
<line x1="273.8" y1="30.0" x2="273.8" y2="40.0" />
<line x1="278.4" y1="30.0" x2="278.4" y2="40.0" />
<line x1="319.5" y1="30.0" x2="319.5" y2="40.0" />
<line x1="356.0" y1="30.0" x2="356.0" y2="40.0" />
<line x1="9.1" y1="20.0" x2="9.1" y2="30.0" />
<line x1="36.5" y1="20.0" x2="36.5" y2="30.0" />
<line x1="82.1" y1="20.0" x2="82.1" y2="30.0" />
<line x1="132.3" y1="20.0" x2="132.3" y2="30.0" />
<line x1="164.3" y1="20.0" x2="164.3" y2="30.0" />
<line x1="178.0" y1="20.0" x2="178.0" y2="30.0" />
<line x1="182.5" y1="20.0" x2="182.5" y2="30.0" />
<line x1="205.4" y1="20.0" x2="205.4" y2="30.0" />
<line x1="246.4" y1="20.0" x2="246.4" y2="30.0" />
<line x1="301.2" y1="20.0" x2="301.2" y2="30.0" />
<line x1="337.7" y1="20.0" x2="337.7" y2="30.0" />
<line x1="356.0" y1="20.0" x2="356.0" y2="30.0" />
<line x1="4.6" y1="10.0" x2="4.6" y2="20.0" />
<line x1="18.3" y1="10.0" x2="18.3" y2="20.0" />
<line x1="41.1" y1="10.0" x2="41.1" y2="20.0" />
<line x1="73.0" y1="10.0" x2="73.0" y2="20.0" />
<line x1="114.1" y1="10.0" x2="114.1" y2="20.0" />
<line x1="164.3" y1="10.0" x2="164.3" y2="20.0" />
<line x1="219.1" y1="10.0" x2="219.1" y2="20.0" />
<line x1="264.7" y1="10.0" x2="264.7" y2="20.0" />
<line x1="301.2" y1="10.0" x2="301.2" y2="20.0" />
<line x1="328.6" y1="10.0" x2="328.6" y2="20.0" />
<line x1="346.8" y1="10.0" x2="346.8" y2="20.0" />
<line x1="356.0" y1="10.0" x2="356.0" y2="20.0" />
<line x1="54.8" y1="0.0" x2="54.8" y2="10.0" />
<line x1="105.0" y1="0.0" x2="105.0" y2="10.0" />
<line x1="150.6" y1="0.0" x2="150.6" y2="10.0" />
<line x1="191.7" y1="0.0" x2="191.7" y2="10.0" />
<line x1="228.2" y1="0.0" x2="228.2" y2="10.0" />
<line x1="260.1" y1="0.0" x2="260.1" y2="10.0" />
<line x1="287.5" y1="0.0" x2="287.5" y2="10.0" />
<line x1="310.3" y1="0.0" x2="310.3" y2="10.0" />
<line x1="328.6" y1="0.0" x2="328.6" y2="10.0" />
<line x1="342.3" y1="0.0" x2="342.3" y2="10.0" />
<line x1="351.4" y1="0.0" x2="351.4" y2="10.0" />
<line x1="356.0" y1="0.0" x2="356.0" y2="10.0" />
</g>
</svg>