<svg xmlns="http://www.w3.org/2000/svg" width="97.9" height="100.0" viewBox="-53.95 -55.00 107.90 110.00">
<g fill="none" stroke="black" stroke-width="0.0575%" transform="translate(0, 0.0000) scale(8.6957, -8.6957)">
<rect x="-5.00" y="-5.00" width="10.00" height="10.00" />
<polygon points="-4.76,-4.75 -5.20,-5.00 -5.20,-5.50 -4.76,-5.75 -4.33,-5.50 -4.33,-5.00" />
<polygon points="-3.90,-4.75 -4.33,-5.00 -4.33,-5.50 -3.90,-5.75 -3.46,-5.50 -3.46,-5.00" />
<polygon points="-3.03,-4.75 -3.46,-5.00 -3.46,-5.50 -3.03,-5.75 -2.60,-5.50 -2.60,-5.00" />
<polygon points="-2.17,-4.75 -2.60,-5.00 -2.60,-5.50 -2.17,-5.75 -1.73,-5.50 -1.73,-5.00" />
<polygon points="-1.30,-4.75 -1.73,-5.00 -1.73,-5.50 -1.30,-5.75 -0.87,-5.50 -0.87,-5.00" />
<polygon points="-0.43,-4.75 -0.87,-5.00 -0.87,-5.50 -0.43,-5.75 0.00,-5.50 0.00,-5.00" />
<polygon points="0.43,-4.75 -0.00,-5.00 -0.00,-5.50 0.43,-5.75 0.87,-5.50 0.87,-5.00" />
<polygon points="1.30,-4.75 0.87,-5.00 0.87,-5.50 1.30,-5.75 1.73,-5.50 1.73,-5.00" />
<polygon points="2.17,-4.75 1.73,-5.00 1.73,-5.50 2.17,-5.75 2.60,-5.50 2.60,-5.00" />
<polygon points="3.03,-4.75 2.60,-5.00 2.60,-5.50 3.03,-5.75 3.46,-5.50 3.46,-5.00" />
<polygon points="3.90,-4.75 3.46,-5.00 3.46,-5.50 3.90,-5.75 4.33,-5.50 4.33,-5.00" />
<polygon points="4.76,-4.75 4.33,-5.00 4.33,-5.50 4.76,-5.75 5.20,-5.50 5.20,-5.00" />
<polygon points="-5.20,-4.00 -5.63,-4.25 -5.63,-4.75 -5.20,-5.00 -4.76,-4.75 -4.76,-4.25" />
<polygon points="-4.33,-4.00 -4.76,-4.25 -4.76,-4.75 -4.33,-5.00 -3.90,-4.75 -3.90,-4.25" />
<polygon points="-3.46,-4.00 -3.90,-4.25 -3.90,-4.75 -3.46,-5.00 -3.03,-4.75 -3.03,-4.25" />
<polygon points="-2.60,-4.00 -3.03,-4.25 -3.03,-4.75 -2.60,-5.00 -2.17,-4.75 -2.17,-4.25" />
<polygon points="-1.73,-4.00 -2.17,-4.25 -2.17,-4.75 -1.73,-5.00 -1.30,-4.75 -1.30,-4.25" />
<polygon points="-0.87,-4.00 -1.30,-4.25 -1.30,-4.75 -0.87,-5.00 -0.43,-4.75 -0.43,-4.25" />
<polygon points="0.00,-4.00 -0.43,-4.25 -0.43,-4.75 -0.00,-5.00 0.43,-4.75 0.43,-4.25" />
<polygon points="0.87,-4.00 0.43,-4.25 0.43,-4.75 0.87,-5.00 1.30,-4.75 1.30,-4.25" />
<polygon points="1.73,-4.00 1.30,-4.25 1.30,-4.75 1.73,-5.00 2.17,-4.75 2.17,-4.25" />
<polygon points="2.60,-4.00 2.17,-4.25 2.17,-4.75 2.60,-5.00 3.03,-4.75 3.03,-4.25" />
<polygon points="3.46,-4.00 3.03,-4.25 3.03,-4.75 3.46,-5.00 3.90,-4.75 3.90,-4.25" />
<polygon points="4.33,-4.00 3.90,-4.25 3.90,-4.75 4.33,-5.00 4.76,-4.75 4.76,-4.25" />
<polygon points="5.20,-4.00 4.76,-4.25 4.76,-4.75 5.20,-5.00 5.63,-4.75 5.63,-4.25" />
<polygon points="-4.76,-3.25 -5.20,-3.50 -5.20,-4.00 -4.76,-4.25 -4.33,-4.00 -4.33,-3.50" />
<polygon points="-3.90,-3.25 -4.33,-3.50 -4.33,-4.00 -3.90,-4.25 -3.46,-4.00 -3.46,-3.50" />
<polygon points="-3.03,-3.25 -3.46,-3.50 -3.46,-4.00 -3.03,-4.25 -2.60,-4.00 -2.60,-3.50" />
<polygon points="-2.17,-3.25 -2.60,-3.50 -2.60,-4.00 -2.17,-4.25 -1.73,-4.00 -1.73,-3.50" />
<polygon points="-1.30,-3.25 -1.73,-3.50 -1.73,-4.00 -1.30,-4.25 -0.87,-4.00 -0.87,-3.50" />
<polygon points="-0.43,-3.25 -0.87,-3.50 -0.87,-4.00 -0.43,-4.25 0.00,-4.00 0.00,-3.50" />
<polygon points="0.43,-3.25 0.00,-3.50 0.00,-4.00 0.43,-4.25 0.87,-4.00 0.87,-3.50" />
<polygon points="1.30,-3.25 0.87,-3.50 0.87,-4.00 1.30,-4.25 1.73,-4.00 1.73,-3.50" />
<polygon points="2.17,-3.25 1.73,-3.50 1.73,-4.00 2.17,-4.25 2.60,-4.00 2.60,-3.50" />
<polygon points="3.03,-3.25 2.60,-3.50 2.60,-4.00 3.03,-4.25 3.46,-4.00 3.46,-3.50" />
<polygon points="3.90,-3.25 3.46,-3.50 3.46,-4.00 3.90,-4.25 4.33,-4.00 4.33,-3.50" />
<polygon points="4.76,-3.25 4.33,-3.50 4.33,-4.00 4.76,-4.25 5.20,-4.00 5.20,-3.50" />
<polygon points="-5.20,-2.50 -5.63,-2.75 -5.63,-3.25 -5.20,-3.50 -4.76,-3.25 -4.76,-2.75" />
<polygon points="-4.33,-2.50 -4.76,-2.75 -4.76,-3.25 -4.33,-3.50 -3.90,-3.25 -3.90,-2.75" />
<polygon points="-3.46,-2.50 -3.90,-2.75 -3.90,-3.25 -3.46,-3.50 -3.03,-3.25 -3.03,-2.75" />
<polygon points="-2.60,-2.50 -3.03,-2.75 -3.03,-3.25 -2.60,-3.50 -2.17,-3.25 -2.17,-2.75" />
<polygon points="-1.73,-2.50 -2.17,-2.75 -2.17,-3.25 -1.73,-3.50 -1.30,-3.25 -1.30,-2.75" />
<polygon points="-0.87,-2.50 -1.30,-2.75 -1.30,-3.25 -0.87,-3.50 -0.43,-3.25 -0.43,-2.75" />
<polygon points="0.00,-2.50 -0.43,-2.75 -0.43,-3.25 -0.00,-3.50 0.43,-3.25 0.43,-2.75" />
<polygon points="0.87,-2.50 0.43,-2.75 0.43,-3.25 0.87,-3.50 1.30,-3.25 1.30,-2.75" />
<polygon points="1.73,-2.50 1.30,-2.75 1.30,-3.25 1.73,-3.50 2.17,-3.25 2.17,-2.75" />
<polygon points="2.60,-2.50 2.17,-2.75 2.17,-3.25 2.60,-3.50 3.03,-3.25 3.03,-2.75" />
<polygon points="3.46,-2.50 3.03,-2.75 3.03,-3.25 3.46,-3.50 3.90,-3.25 3.90,-2.75" />
<polygon points="4.33,-2.50 3.90,-2.75 3.90,-3.25 4.33,-3.50 4.76,-3.25 4.76,-2.75" />
<polygon points="5.20,-2.50 4.76,-2.75 4.76,-3.25 5.20,-3.50 5.63,-3.25 5.63,-2.75" />
<polygon points="-4.76,-1.75 -5.20,-2.00 -5.20,-2.50 -4.76,-2.75 -4.33,-2.50 -4.33,-2.00" />
<polygon points="-3.90,-1.75 -4.33,-2.00 -4.33,-2.50 -3.90,-2.75 -3.46,-2.50 -3.46,-2.00" />
<polygon points="-3.03,-1.75 -3.46,-2.00 -3.46,-2.50 -3.03,-2.75 -2.60,-2.50 -2.60,-2.00" />
<polygon points="-2.17,-1.75 -2.60,-2.00 -2.60,-2.50 -2.17,-2.75 -1.73,-2.50 -1.73,-2.00" />
<polygon points="-1.30,-1.75 -1.73,-2.00 -1.73,-2.50 -1.30,-2.75 -0.87,-2.50 -0.87,-2.00" />
<polygon points="-0.43,-1.75 -0.87,-2.00 -0.87,-2.50 -0.43,-2.75 -0.00,-2.50 0.00,-2.00" />
<polygon points="0.43,-1.75 -0.00,-2.00 -0.00,-2.50 0.43,-2.75 0.87,-2.50 0.87,-2.00" />
<polygon points="1.30,-1.75 0.87,-2.00 0.87,-2.50 1.30,-2.75 1.73,-2.50 1.73,-2.00" />
<polygon points="2.17,-1.75 1.73,-2.00 1.73,-2.50 2.17,-2.75 2.60,-2.50 2.60,-2.00" />
<polygon points="3.03,-1.75 2.60,-2.00 2.60,-2.50 3.03,-2.75 3.46,-2.50 3.46,-2.00" />
<polygon points="3.90,-1.75 3.46,-2.00 3.46,-2.50 3.90,-2.75 4.33,-2.50 4.33,-2.00" />
<polygon points="4.76,-1.75 4.33,-2.00 4.33,-2.50 4.76,-2.75 5.20,-2.50 5.20,-2.00" />
<polygon points="-5.20,-1.00 -5.63,-1.25 -5.63,-1.75 -5.20,-2.00 -4.76,-1.75 -4.76,-1.25" />
<polygon points="-4.33,-1.00 -4.76,-1.25 -4.76,-1.75 -4.33,-2.00 -3.90,-1.75 -3.90,-1.25" />
<polygon points="-3.46,-1.00 -3.90,-1.25 -3.90,-1.75 -3.46,-2.00 -3.03,-1.75 -3.03,-1.25" />
<polygon points="-2.60,-1.00 -3.03,-1.25 -3.03,-1.75 -2.60,-2.00 -2.17,-1.75 -2.17,-1.25" />
<polygon points="-1.73,-1.00 -2.17,-1.25 -2.17,-1.75 -1.73,-2.00 -1.30,-1.75 -1.30,-1.25" />
<polygon points="-0.87,-1.00 -1.30,-1.25 -1.30,-1.75 -0.87,-2.00 -0.43,-1.75 -0.43,-1.25" />
<polygon points="0.00,-1.00 -0.43,-1.25 -0.43,-1.75 -0.00,-2.00 0.43,-1.75 0.43,-1.25" />
<polygon points="0.87,-1.00 0.43,-1.25 0.43,-1.75 0.87,-2.00 1.30,-1.75 1.30,-1.25" />
<polygon points="1.73,-1.00 1.30,-1.25 1.30,-1.75 1.73,-2.00 2.17,-1.75 2.17,-1.25" />
<polygon points="2.60,-1.00 2.17,-1.25 2.17,-1.75 2.60,-2.00 3.03,-1.75 3.03,-1.25" />
<polygon points="3.46,-1.00 3.03,-1.25 3.03,-1.75 3.46,-2.00 3.90,-1.75 3.90,-1.25" />
<polygon points="4.33,-1.00 3.90,-1.25 3.90,-1.75 4.33,-2.00 4.76,-1.75 4.76,-1.25" />
<polygon points="5.20,-1.00 4.76,-1.25 4.76,-1.75 5.20,-2.00 5.63,-1.75 5.63,-1.25" />
<polygon points="-4.76,-0.25 -5.20,-0.50 -5.20,-1.00 -4.76,-1.25 -4.33,-1.00 -4.33,-0.50" />
<polygon points="-3.90,-0.25 -4.33,-0.50 -4.33,-1.00 -3.90,-1.25 -3.46,-1.00 -3.46,-0.50" />
<polygon points="-3.03,-0.25 -3.46,-0.50 -3.46,-1.00 -3.03,-1.25 -2.60,-1.00 -2.60,-0.50" />
<polygon points="-2.17,-0.25 -2.60,-0.50 -2.60,-1.00 -2.17,-1.25 -1.73,-1.00 -1.73,-0.50" />
<polygon points="-1.30,-0.25 -1.73,-0.50 -1.73,-1.00 -1.30,-1.25 -0.87,-1.00 -0.87,-0.50" />
<polygon points="-0.43,-0.25 -0.87,-0.50 -0.87,-1.00 -0.43,-1.25 -0.00,-1.00 0.00,-0.50" />
<polygon points="0.43,-0.25 0.00,-0.50 -0.00,-1.00 0.43,-1.25 0.87,-1.00 0.87,-0.50" />
<polygon points="1.30,-0.25 0.87,-0.50 0.87,-1.00 1.30,-1.25 1.73,-1.00 1.73,-0.50" />
<polygon points="2.17,-0.25 1.73,-0.50 1.73,-1.00 2.17,-1.25 2.60,-1.00 2.60,-0.50" />
<polygon points="3.03,-0.25 2.60,-0.50 2.60,-1.00 3.03,-1.25 3.46,-1.00 3.46,-0.50" />
<polygon points="3.90,-0.25 3.46,-0.50 3.46,-1.00 3.90,-1.25 4.33,-1.00 4.33,-0.50" />
<polygon points="4.76,-0.25 4.33,-0.50 4.33,-1.00 4.76,-1.25 5.20,-1.00 5.20,-0.50" />
<polygon points="-5.20,0.50 -5.63,0.25 -5.63,-0.25 -5.20,-0.50 -4.76,-0.25 -4.76,0.25" />
<polygon points="-4.33,0.50 -4.76,0.25 -4.76,-0.25 -4.33,-0.50 -3.90,-0.25 -3.90,0.25" />
<polygon points="-3.46,0.50 -3.90,0.25 -3.90,-0.25 -3.46,-0.50 -3.03,-0.25 -3.03,0.25" />
<polygon points="-2.60,0.50 -3.03,0.25 -3.03,-0.25 -2.60,-0.50 -2.17,-0.25 -2.17,0.25" />
<polygon points="-1.73,0.50 -2.17,0.25 -2.17,-0.25 -1.73,-0.50 -1.30,-0.25 -1.30,0.25" />
<polygon points="-0.87,0.50 -1.30,0.25 -1.30,-0.25 -0.87,-0.50 -0.43,-0.25 -0.43,0.25" />
<polygon points="0.00,0.50 -0.43,0.25 -0.43,-0.25 -0.00,-0.50 0.43,-0.25 0.43,0.25" />
<polygon points="0.87,0.50 0.43,0.25 0.43,-0.25 0.87,-0.50 1.30,-0.25 1.30,0.25" />
<polygon points="1.73,0.50 1.30,0.25 1.30,-0.25 1.73,-0.50 2.17,-0.25 2.17,0.25" />
<polygon points="2.60,0.50 2.17,0.25 2.17,-0.25 2.60,-0.50 3.03,-0.25 3.03,0.25" />
<polygon points="3.46,0.50 3.03,0.25 3.03,-0.25 3.46,-0.50 3.90,-0.25 3.90,0.25" />
<polygon points="4.33,0.50 3.90,0.25 3.90,-0.25 4.33,-0.50 4.76,-0.25 4.76,0.25" />
<polygon points="5.20,0.50 4.76,0.25 4.76,-0.25 5.20,-0.50 5.63,-0.25 5.63,0.25" />
<polygon points="-4.76,1.25 -5.20,1.00 -5.20,0.50 -4.76,0.25 -4.33,0.50 -4.33,1.00" />
<polygon points="-3.90,1.25 -4.33,1.00 -4.33,0.50 -3.90,0.25 -3.46,0.50 -3.46,1.00" />
<polygon points="-3.03,1.25 -3.46,1.00 -3.46,0.50 -3.03,0.25 -2.60,0.50 -2.60,1.00" />
<polygon points="-2.17,1.25 -2.60,1.00 -2.60,0.50 -2.17,0.25 -1.73,0.50 -1.73,1.00" />
<polygon points="-1.30,1.25 -1.73,1.00 -1.73,0.50 -1.30,0.25 -0.87,0.50 -0.87,1.00" />
<polygon points="-0.43,1.25 -0.87,1.00 -0.87,0.50 -0.43,0.25 -0.00,0.50 0.00,1.00" />
<polygon points="0.43,1.25 0.00,1.00 -0.00,0.50 0.43,0.25 0.87,0.50 0.87,1.00" />
<polygon points="1.30,1.25 0.87,1.00 0.87,0.50 1.30,0.25 1.73,0.50 1.73,1.00" />
<polygon points="2.17,1.25 1.73,1.00 1.73,0.50 2.17,0.25 2.60,0.50 2.60,1.00" />
<polygon points="3.03,1.25 2.60,1.00 2.60,0.50 3.03,0.25 3.46,0.50 3.46,1.00" />
<polygon points="3.90,1.25 3.46,1.00 3.46,0.50 3.90,0.25 4.33,0.50 4.33,1.00" />
<polygon points="4.76,1.25 4.33,1.00 4.33,0.50 4.76,0.25 5.20,0.50 5.20,1.00" />
<polygon points="-5.20,2.00 -5.63,1.75 -5.63,1.25 -5.20,1.00 -4.76,1.25 -4.76,1.75" />
<polygon points="-4.33,2.00 -4.76,1.75 -4.76,1.25 -4.33,1.00 -3.90,1.25 -3.90,1.75" />
<polygon points="-3.46,2.00 -3.90,1.75 -3.90,1.25 -3.46,1.00 -3.03,1.25 -3.03,1.75" />
<polygon points="-2.60,2.00 -3.03,1.75 -3.03,1.25 -2.60,1.00 -2.17,1.25 -2.17,1.75" />
<polygon points="-1.73,2.00 -2.17,1.75 -2.17,1.25 -1.73,1.00 -1.30,1.25 -1.30,1.75" />
<polygon points="-0.87,2.00 -1.30,1.75 -1.30,1.25 -0.87,1.00 -0.43,1.25 -0.43,1.75" />
<polygon points="0.00,2.00 -0.43,1.75 -0.43,1.25 -0.00,1.00 0.43,1.25 0.43,1.75" />
<polygon points="0.87,2.00 0.43,1.75 0.43,1.25 0.87,1.00 1.30,1.25 1.30,1.75" />
<polygon points="1.73,2.00 1.30,1.75 1.30,1.25 1.73,1.00 2.17,1.25 2.17,1.75" />
<polygon points="2.60,2.00 2.17,1.75 2.17,1.25 2.60,1.00 3.03,1.25 3.03,1.75" />
<polygon points="3.46,2.00 3.03,1.75 3.03,1.25 3.46,1.00 3.90,1.25 3.90,1.75" />
<polygon points="4.33,2.00 3.90,1.75 3.90,1.25 4.33,1.00 4.76,1.25 4.76,1.75" />
<polygon points="5.20,2.00 4.76,1.75 4.76,1.25 5.20,1.00 5.63,1.25 5.63,1.75" />
<polygon points="-4.76,2.75 -5.20,2.50 -5.20,2.00 -4.76,1.75 -4.33,2.00 -4.33,2.50" />
<polygon points="-3.90,2.75 -4.33,2.50 -4.33,2.00 -3.90,1.75 -3.46,2.00 -3.46,2.50" />
<polygon points="-3.03,2.75 -3.46,2.50 -3.46,2.00 -3.03,1.75 -2.60,2.00 -2.60,2.50" />
<polygon points="-2.17,2.75 -2.60,2.50 -2.60,2.00 -2.17,1.75 -1.73,2.00 -1.73,2.50" />
<polygon points="-1.30,2.75 -1.73,2.50 -1.73,2.00 -1.30,1.75 -0.87,2.00 -0.87,2.50" />
<polygon points="-0.43,2.75 -0.87,2.50 -0.87,2.00 -0.43,1.75 0.00,2.00 0.00,2.50" />
<polygon points="0.43,2.75 0.00,2.50 0.00,2.00 0.43,1.75 0.87,2.00 0.87,2.50" />
<polygon points="1.30,2.75 0.87,2.50 0.87,2.00 1.30,1.75 1.73,2.00 1.73,2.50" />
<polygon points="2.17,2.75 1.73,2.50 1.73,2.00 2.17,1.75 2.60,2.00 2.60,2.50" />
<polygon points="3.03,2.75 2.60,2.50 2.60,2.00 3.03,1.75 3.46,2.00 3.46,2.50" />
<polygon points="3.90,2.75 3.46,2.50 3.46,2.00 3.90,1.75 4.33,2.00 4.33,2.50" />
<polygon points="4.76,2.75 4.33,2.50 4.33,2.00 4.76,1.75 5.20,2.00 5.20,2.50" />
<polygon points="-5.20,3.50 -5.63,3.25 -5.63,2.75 -5.20,2.50 -4.76,2.75 -4.76,3.25" />
<polygon points="-4.33,3.50 -4.76,3.25 -4.76,2.75 -4.33,2.50 -3.90,2.75 -3.90,3.25" />
<polygon points="-3.46,3.50 -3.90,3.25 -3.90,2.75 -3.46,2.50 -3.03,2.75 -3.03,3.25" />
<polygon points="-2.60,3.50 -3.03,3.25 -3.03,2.75 -2.60,2.50 -2.17,2.75 -2.17,3.25" />
<polygon points="-1.73,3.50 -2.17,3.25 -2.17,2.75 -1.73,2.50 -1.30,2.75 -1.30,3.25" />
<polygon points="-0.87,3.50 -1.30,3.25 -1.30,2.75 -0.87,2.50 -0.43,2.75 -0.43,3.25" />
<polygon points="0.00,3.50 -0.43,3.25 -0.43,2.75 -0.00,2.50 0.43,2.75 0.43,3.25" />
<polygon points="0.87,3.50 0.43,3.25 0.43,2.75 0.87,2.50 1.30,2.75 1.30,3.25" />
<polygon points="1.73,3.50 1.30,3.25 1.30,2.75 1.73,2.50 2.17,2.75 2.17,3.25" />
<polygon points="2.60,3.50 2.17,3.25 2.17,2.75 2.60,2.50 3.03,2.75 3.03,3.25" />
<polygon points="3.46,3.50 3.03,3.25 3.03,2.75 3.46,2.50 3.90,2.75 3.90,3.25" />
<polygon points="4.33,3.50 3.90,3.25 3.90,2.75 4.33,2.50 4.76,2.75 4.76,3.25" />
<polygon points="5.20,3.50 4.76,3.25 4.76,2.75 5.20,2.50 5.63,2.75 5.63,3.25" />
<polygon points="-4.76,4.25 -5.20,4.00 -5.20,3.50 -4.76,3.25 -4.33,3.50 -4.33,4.00" />
<polygon points="-3.90,4.25 -4.33,4.00 -4.33,3.50 -3.90,3.25 -3.46,3.50 -3.46,4.00" />
<polygon points="-3.03,4.25 -3.46,4.00 -3.46,3.50 -3.03,3.25 -2.60,3.50 -2.60,4.00" />
<polygon points="-2.17,4.25 -2.60,4.00 -2.60,3.50 -2.17,3.25 -1.73,3.50 -1.73,4.00" />
<polygon points="-1.30,4.25 -1.73,4.00 -1.73,3.50 -1.30,3.25 -0.87,3.50 -0.87,4.00" />
<polygon points="-0.43,4.25 -0.87,4.00 -0.87,3.50 -0.43,3.25 -0.00,3.50 -0.00,4.00" />
<polygon points="0.43,4.25 -0.00,4.00 -0.00,3.50 0.43,3.25 0.87,3.50 0.87,4.00" />
<polygon points="1.30,4.25 0.87,4.00 0.87,3.50 1.30,3.25 1.73,3.50 1.73,4.00" />
<polygon points="2.17,4.25 1.73,4.00 1.73,3.50 2.17,3.25 2.60,3.50 2.60,4.00" />
<polygon points="3.03,4.25 2.60,4.00 2.60,3.50 3.03,3.25 3.46,3.50 3.46,4.00" />
<polygon points="3.90,4.25 3.46,4.00 3.46,3.50 3.90,3.25 4.33,3.50 4.33,4.00" />
<polygon points="4.76,4.25 4.33,4.00 4.33,3.50 4.76,3.25 5.20,3.50 5.20,4.00" />
<polygon points="-5.20,5.00 -5.63,4.75 -5.63,4.25 -5.20,4.00 -4.76,4.25 -4.76,4.75" />
<polygon points="-4.33,5.00 -4.76,4.75 -4.76,4.25 -4.33,4.00 -3.90,4.25 -3.90,4.75" />
<polygon points="-3.46,5.00 -3.90,4.75 -3.90,4.25 -3.46,4.00 -3.03,4.25 -3.03,4.75" />
<polygon points="-2.60,5.00 -3.03,4.75 -3.03,4.25 -2.60,4.00 -2.17,4.25 -2.17,4.75" />
<polygon points="-1.73,5.00 -2.17,4.75 -2.17,4.25 -1.73,4.00 -1.30,4.25 -1.30,4.75" />
<polygon points="-0.87,5.00 -1.30,4.75 -1.30,4.25 -0.87,4.00 -0.43,4.25 -0.43,4.75" />
<polygon points="0.00,5.00 -0.43,4.75 -0.43,4.25 -0.00,4.00 0.43,4.25 0.43,4.75" />
<polygon points="0.87,5.00 0.43,4.75 0.43,4.25 0.87,4.00 1.30,4.25 1.30,4.75" />
<polygon points="1.73,5.00 1.30,4.75 1.30,4.25 1.73,4.00 2.17,4.25 2.17,4.75" />
<polygon points="2.60,5.00 2.17,4.75 2.17,4.25 2.60,4.00 3.03,4.25 3.03,4.75" />
<polygon points="3.46,5.00 3.03,4.75 3.03,4.25 3.46,4.00 3.90,4.25 3.90,4.75" />
<polygon points="4.33,5.00 3.90,4.75 3.90,4.25 4.33,4.00 4.76,4.25 4.76,4.75" />
<polygon points="5.20,5.00 4.76,4.75 4.76,4.25 5.20,4.00 5.63,4.25 5.63,4.75" />
<polygon points="-4.76,5.75 -5.20,5.50 -5.20,5.00 -4.76,4.75 -4.33,5.00 -4.33,5.50" />
<polygon points="-3.90,5.75 -4.33,5.50 -4.33,5.00 -3.90,4.75 -3.46,5.00 -3.46,5.50" />
<polygon points="-3.03,5.75 -3.46,5.50 -3.46,5.00 -3.03,4.75 -2.60,5.00 -2.60,5.50" />
<polygon points="-2.17,5.75 -2.60,5.50 -2.60,5.00 -2.17,4.75 -1.73,5.00 -1.73,5.50" />
<polygon points="-1.30,5.75 -1.73,5.50 -1.73,5.00 -1.30,4.75 -0.87,5.00 -0.87,5.50" />
<polygon points="-0.43,5.75 -0.87,5.50 -0.87,5.00 -0.43,4.75 0.00,5.00 0.00,5.50" />
<polygon points="0.43,5.75 -0.00,5.50 -0.00,5.00 0.43,4.75 0.87,5.00 0.87,5.50" />
<polygon points="1.30,5.75 0.87,5.50 0.87,5.00 1.30,4.75 1.73,5.00 1.73,5.50" />
<polygon points="2.17,5.75 1.73,5.50 1.73,5.00 2.17,4.75 2.60,5.00 2.60,5.50" />
<polygon points="3.03,5.75 2.60,5.50 2.60,5.00 3.03,4.75 3.46,5.00 3.46,5.50" />
<polygon points="3.90,5.75 3.46,5.50 3.46,5.00 3.90,4.75 4.33,5.00 4.33,5.50" />
<polygon points="4.76,5.75 4.33,5.50 4.33,5.00 4.76,4.75 5.20,5.00 5.20,5.50" />
</g>
</svg>