<svg xmlns="http://www.w3.org/2000/svg" width="161.8" height="100.0" viewBox="-4.350 51.250 171.803 110.000">
<g fill="none" stroke="black" stroke-width="0.0029%" transform="translate(0, 212.5010) scale(173.6118, -173.6118)">
<circle cx="0.004" cy="0.333" r="0.003" />
<circle cx="0.007" cy="0.800" r="0.003" />
<circle cx="0.011" cy="0.576" r="0.003" />
<circle cx="0.015" cy="0.879" r="0.003" />
<circle cx="0.019" cy="0.382" r="0.003" />
<circle cx="0.022" cy="0.850" r="0.003" />
<circle cx="0.026" cy="0.459" r="0.003" />
<circle cx="0.030" cy="0.894" r="0.003" />
<circle cx="0.034" cy="0.342" r="0.003" />
<circle cx="0.037" cy="0.810" r="0.003" />
<circle cx="0.041" cy="0.555" r="0.003" />
<circle cx="0.045" cy="0.889" r="0.003" />
<circle cx="0.049" cy="0.355" r="0.003" />
<circle cx="0.052" cy="0.824" r="0.003" />
<circle cx="0.056" cy="0.522" r="0.003" />
<circle cx="0.060" cy="0.898" r="0.003" />
<circle cx="0.064" cy="0.329" r="0.003" />
<circle cx="0.067" cy="0.795" r="0.003" />
<circle cx="0.071" cy="0.587" r="0.003" />
<circle cx="0.075" cy="0.873" r="0.003" />
<circle cx="0.079" cy="0.400" r="0.003" />
<circle cx="0.082" cy="0.864" r="0.003" />
<circle cx="0.086" cy="0.424" r="0.003" />
<circle cx="0.090" cy="0.879" r="0.003" />
<circle cx="0.094" cy="0.383" r="0.003" />
<circle cx="0.097" cy="0.851" r="0.003" />
<circle cx="0.101" cy="0.458" r="0.003" />
<circle cx="0.105" cy="0.894" r="0.003" />
<circle cx="0.109" cy="0.343" r="0.003" />
<circle cx="0.112" cy="0.811" r="0.003" />
<circle cx="0.116" cy="0.552" r="0.003" />
<circle cx="0.120" cy="0.890" r="0.003" />
<circle cx="0.124" cy="0.352" r="0.003" />
<circle cx="0.127" cy="0.821" r="0.003" />
<circle cx="0.131" cy="0.529" r="0.003" />
<circle cx="0.135" cy="0.897" r="0.003" />
<circle cx="0.138" cy="0.332" r="0.003" />
<circle cx="0.142" cy="0.799" r="0.003" />
<circle cx="0.146" cy="0.578" r="0.003" />
<circle cx="0.150" cy="0.878" r="0.003" />
<circle cx="0.153" cy="0.386" r="0.003" />
<circle cx="0.157" cy="0.853" r="0.003" />
<circle cx="0.161" cy="0.451" r="0.003" />
<circle cx="0.165" cy="0.891" r="0.003" />
<circle cx="0.168" cy="0.348" r="0.003" />
<circle cx="0.172" cy="0.817" r="0.003" />
<circle cx="0.176" cy="0.538" r="0.003" />
<circle cx="0.180" cy="0.895" r="0.003" />
<circle cx="0.183" cy="0.339" r="0.003" />
<circle cx="0.187" cy="0.806" r="0.003" />
<circle cx="0.191" cy="0.562" r="0.003" />
<circle cx="0.195" cy="0.886" r="0.003" />
<circle cx="0.198" cy="0.363" r="0.003" />
<circle cx="0.202" cy="0.833" r="0.003" />
<circle cx="0.206" cy="0.502" r="0.003" />
<circle cx="0.210" cy="0.900" r="0.003" />
<circle cx="0.213" cy="0.324" r="0.003" />
<circle cx="0.217" cy="0.789" r="0.003" />
<circle cx="0.221" cy="0.600" r="0.003" />
<circle cx="0.225" cy="0.864" r="0.003" />
<circle cx="0.228" cy="0.424" r="0.003" />
<circle cx="0.232" cy="0.879" r="0.003" />
<circle cx="0.236" cy="0.383" r="0.003" />
<circle cx="0.240" cy="0.851" r="0.003" />
<circle cx="0.243" cy="0.457" r="0.003" />
<circle cx="0.247" cy="0.893" r="0.003" />
<circle cx="0.251" cy="0.343" r="0.003" />
<circle cx="0.255" cy="0.811" r="0.003" />
<circle cx="0.258" cy="0.552" r="0.003" />
<circle cx="0.262" cy="0.890" r="0.003" />
<circle cx="0.266" cy="0.352" r="0.003" />
<circle cx="0.269" cy="0.821" r="0.003" />
<circle cx="0.273" cy="0.529" r="0.003" />
<circle cx="0.277" cy="0.897" r="0.003" />
<circle cx="0.281" cy="0.333" r="0.003" />
<circle cx="0.284" cy="0.799" r="0.003" />
<circle cx="0.288" cy="0.577" r="0.003" />
<circle cx="0.292" cy="0.878" r="0.003" />
<circle cx="0.296" cy="0.384" r="0.003" />
<circle cx="0.299" cy="0.852" r="0.003" />
<circle cx="0.303" cy="0.454" r="0.003" />
<circle cx="0.307" cy="0.892" r="0.003" />
<circle cx="0.311" cy="0.346" r="0.003" />
<circle cx="0.314" cy="0.814" r="0.003" />
<circle cx="0.318" cy="0.544" r="0.003" />
<circle cx="0.322" cy="0.893" r="0.003" />
<circle cx="0.326" cy="0.344" r="0.003" />
<circle cx="0.329" cy="0.813" r="0.003" />
<circle cx="0.333" cy="0.548" r="0.003" />
<circle cx="0.337" cy="0.892" r="0.003" />
<circle cx="0.341" cy="0.348" r="0.003" />
<circle cx="0.344" cy="0.817" r="0.003" />
<circle cx="0.348" cy="0.539" r="0.003" />
<circle cx="0.352" cy="0.894" r="0.003" />
<circle cx="0.356" cy="0.340" r="0.003" />
<circle cx="0.359" cy="0.808" r="0.003" />
<circle cx="0.363" cy="0.559" r="0.003" />
<circle cx="0.367" cy="0.887" r="0.003" />
<circle cx="0.371" cy="0.360" r="0.003" />
<circle cx="0.374" cy="0.829" r="0.003" />
<circle cx="0.378" cy="0.510" r="0.003" />
<circle cx="0.382" cy="0.900" r="0.003" />
<circle cx="0.386" cy="0.325" r="0.003" />
<circle cx="0.389" cy="0.790" r="0.003" />
<circle cx="0.393" cy="0.598" r="0.003" />
<circle cx="0.397" cy="0.865" r="0.003" />
<circle cx="0.400" cy="0.419" r="0.003" />
<circle cx="0.404" cy="0.876" r="0.003" />
<circle cx="0.408" cy="0.390" r="0.003" />
<circle cx="0.412" cy="0.856" r="0.003" />
<circle cx="0.415" cy="0.443" r="0.003" />
<circle cx="0.419" cy="0.888" r="0.003" />
<circle cx="0.423" cy="0.357" r="0.003" />
<circle cx="0.427" cy="0.827" r="0.003" />
<circle cx="0.430" cy="0.516" r="0.003" />
<circle cx="0.434" cy="0.899" r="0.003" />
<circle cx="0.438" cy="0.327" r="0.003" />
<circle cx="0.442" cy="0.792" r="0.003" />
<circle cx="0.445" cy="0.594" r="0.003" />
<circle cx="0.449" cy="0.868" r="0.003" />
<circle cx="0.453" cy="0.411" r="0.003" />
<circle cx="0.457" cy="0.872" r="0.003" />
<circle cx="0.460" cy="0.403" r="0.003" />
<circle cx="0.464" cy="0.866" r="0.003" />
<circle cx="0.468" cy="0.418" r="0.003" />
<circle cx="0.472" cy="0.876" r="0.003" />
<circle cx="0.475" cy="0.392" r="0.003" />
<circle cx="0.479" cy="0.858" r="0.003" />
<circle cx="0.483" cy="0.438" r="0.003" />
<circle cx="0.487" cy="0.886" r="0.003" />
<circle cx="0.490" cy="0.363" r="0.003" />
<circle cx="0.494" cy="0.832" r="0.003" />
<circle cx="0.498" cy="0.502" r="0.003" />
<circle cx="0.502" cy="0.900" r="0.003" />
<circle cx="0.505" cy="0.324" r="0.003" />
<circle cx="0.509" cy="0.789" r="0.003" />
<circle cx="0.513" cy="0.600" r="0.003" />
<circle cx="0.517" cy="0.864" r="0.003" />
<circle cx="0.520" cy="0.423" r="0.003" />
<circle cx="0.524" cy="0.879" r="0.003" />
<circle cx="0.528" cy="0.383" r="0.003" />
<circle cx="0.531" cy="0.851" r="0.003" />
<circle cx="0.535" cy="0.457" r="0.003" />
<circle cx="0.539" cy="0.893" r="0.003" />
<circle cx="0.543" cy="0.343" r="0.003" />
<circle cx="0.546" cy="0.811" r="0.003" />
<circle cx="0.550" cy="0.551" r="0.003" />
<circle cx="0.554" cy="0.891" r="0.003" />
<circle cx="0.558" cy="0.351" r="0.003" />
<circle cx="0.561" cy="0.820" r="0.003" />
<circle cx="0.565" cy="0.532" r="0.003" />
<circle cx="0.569" cy="0.896" r="0.003" />
<circle cx="0.573" cy="0.335" r="0.003" />
<circle cx="0.576" cy="0.802" r="0.003" />
<circle cx="0.580" cy="0.572" r="0.003" />
<circle cx="0.584" cy="0.881" r="0.003" />
<circle cx="0.588" cy="0.377" r="0.003" />
<circle cx="0.591" cy="0.845" r="0.003" />
<circle cx="0.595" cy="0.471" r="0.003" />
<circle cx="0.599" cy="0.897" r="0.003" />
<circle cx="0.603" cy="0.333" r="0.003" />
<circle cx="0.606" cy="0.800" r="0.003" />
<circle cx="0.610" cy="0.577" r="0.003" />
<circle cx="0.614" cy="0.879" r="0.003" />
<circle cx="0.618" cy="0.384" r="0.003" />
<circle cx="0.621" cy="0.851" r="0.003" />
<circle cx="0.625" cy="0.455" r="0.003" />
<circle cx="0.629" cy="0.893" r="0.003" />
<circle cx="0.633" cy="0.344" r="0.003" />
<circle cx="0.636" cy="0.813" r="0.003" />
<circle cx="0.640" cy="0.548" r="0.003" />
<circle cx="0.644" cy="0.892" r="0.003" />
<circle cx="0.648" cy="0.347" r="0.003" />
<circle cx="0.651" cy="0.816" r="0.003" />
<circle cx="0.655" cy="0.540" r="0.003" />
<circle cx="0.659" cy="0.894" r="0.003" />
<circle cx="0.662" cy="0.341" r="0.003" />
<circle cx="0.666" cy="0.809" r="0.003" />
<circle cx="0.670" cy="0.557" r="0.003" />
<circle cx="0.674" cy="0.888" r="0.003" />
<circle cx="0.677" cy="0.357" r="0.003" />
<circle cx="0.681" cy="0.827" r="0.003" />
<circle cx="0.685" cy="0.516" r="0.003" />
<circle cx="0.689" cy="0.899" r="0.003" />
<circle cx="0.692" cy="0.327" r="0.003" />
<circle cx="0.696" cy="0.792" r="0.003" />
<circle cx="0.700" cy="0.594" r="0.003" />
<circle cx="0.704" cy="0.869" r="0.003" />
<circle cx="0.707" cy="0.411" r="0.003" />
<circle cx="0.711" cy="0.872" r="0.003" />
<circle cx="0.715" cy="0.403" r="0.003" />
<circle cx="0.719" cy="0.866" r="0.003" />
<circle cx="0.722" cy="0.417" r="0.003" />
<circle cx="0.726" cy="0.875" r="0.003" />
<circle cx="0.730" cy="0.393" r="0.003" />
<circle cx="0.734" cy="0.858" r="0.003" />
<circle cx="0.737" cy="0.438" r="0.003" />
<circle cx="0.741" cy="0.886" r="0.003" />
<circle cx="0.745" cy="0.364" r="0.003" />
<circle cx="0.749" cy="0.833" r="0.003" />
<circle cx="0.752" cy="0.500" r="0.003" />
<circle cx="0.756" cy="0.900" r="0.003" />
<circle cx="0.760" cy="0.324" r="0.003" />
<circle cx="0.764" cy="0.788" r="0.003" />
<circle cx="0.767" cy="0.600" r="0.003" />
<circle cx="0.771" cy="0.864" r="0.003" />
<circle cx="0.775" cy="0.424" r="0.003" />
<circle cx="0.779" cy="0.879" r="0.003" />
<circle cx="0.782" cy="0.383" r="0.003" />
<circle cx="0.786" cy="0.850" r="0.003" />
<circle cx="0.790" cy="0.458" r="0.003" />
<circle cx="0.793" cy="0.894" r="0.003" />
<circle cx="0.797" cy="0.342" r="0.003" />
<circle cx="0.801" cy="0.810" r="0.003" />
<circle cx="0.805" cy="0.553" r="0.003" />
<circle cx="0.808" cy="0.890" r="0.003" />
<circle cx="0.812" cy="0.353" r="0.003" />
<circle cx="0.816" cy="0.822" r="0.003" />
<circle cx="0.820" cy="0.527" r="0.003" />
<circle cx="0.823" cy="0.897" r="0.003" />
<circle cx="0.827" cy="0.331" r="0.003" />
<circle cx="0.831" cy="0.798" r="0.003" />
<circle cx="0.835" cy="0.581" r="0.003" />
<circle cx="0.838" cy="0.877" r="0.003" />
<circle cx="0.842" cy="0.390" r="0.003" />
<circle cx="0.846" cy="0.856" r="0.003" />
<circle cx="0.850" cy="0.443" r="0.003" />
<circle cx="0.853" cy="0.888" r="0.003" />
<circle cx="0.857" cy="0.357" r="0.003" />
<circle cx="0.861" cy="0.826" r="0.003" />
<circle cx="0.865" cy="0.517" r="0.003" />
<circle cx="0.868" cy="0.899" r="0.003" />
<circle cx="0.872" cy="0.327" r="0.003" />
<circle cx="0.876" cy="0.792" r="0.003" />
<circle cx="0.880" cy="0.593" r="0.003" />
<circle cx="0.883" cy="0.869" r="0.003" />
<circle cx="0.887" cy="0.409" r="0.003" />
<circle cx="0.891" cy="0.870" r="0.003" />
<circle cx="0.895" cy="0.406" r="0.003" />
<circle cx="0.898" cy="0.868" r="0.003" />
<circle cx="0.902" cy="0.412" r="0.003" />
<circle cx="0.906" cy="0.872" r="0.003" />
<circle cx="0.910" cy="0.402" r="0.003" />
<circle cx="0.913" cy="0.865" r="0.003" />
<circle cx="0.917" cy="0.420" r="0.003" />
<circle cx="0.921" cy="0.877" r="0.003" />
<circle cx="0.924" cy="0.388" r="0.003" />
<circle cx="0.928" cy="0.855" r="0.003" />
<circle cx="0.932" cy="0.446" r="0.003" />
<circle cx="0.936" cy="0.890" r="0.003" />
</g>
</svg>