<svg xmlns="http://www.w3.org/2000/svg" width="161.2" height="100.0" viewBox="-2.1 -5.0 171.2 110.0">
<g fill="none" stroke="black" stroke-width="1.4200%" transform="translate(0, 100.0000) scale(0.3521, -0.3521)">
<line x1="8.3" y1="0.0" x2="8.3" y2="1.0" />
<line x1="16.7" y1="0.0" x2="16.7" y2="2.0" />
<line x1="25.0" y1="0.0" x2="25.0" y2="3.0" />
<line x1="33.3" y1="0.0" x2="33.3" y2="4.0" />
<line x1="41.6" y1="0.0" x2="41.6" y2="5.0" />
<line x1="50.0" y1="0.0" x2="50.0" y2="6.0" />
<line x1="58.3" y1="0.0" x2="58.3" y2="8.0" />
<line x1="66.6" y1="0.0" x2="66.6" y2="10.0" />
<line x1="74.9" y1="0.0" x2="74.9" y2="12.0" />
<line x1="83.3" y1="0.0" x2="83.3" y2="15.0" />
<line x1="91.6" y1="0.0" x2="91.6" y2="17.0" />
<line x1="99.9" y1="0.0" x2="99.9" y2="19.0" />
<line x1="108.2" y1="0.0" x2="108.2" y2="29.0" />
<line x1="116.6" y1="0.0" x2="116.6" y2="31.0" />
<line x1="124.9" y1="0.0" x2="124.9" y2="33.0" />
<line x1="133.2" y1="0.0" x2="133.2" y2="43.0" />
<line x1="141.5" y1="0.0" x2="141.5" y2="44.0" />
<line x1="149.9" y1="0.0" x2="149.9" y2="47.0" />
<line x1="158.2" y1="0.0" x2="158.2" y2="51.0" />
<line x1="166.5" y1="0.0" x2="166.5" y2="54.0" />
<line x1="174.8" y1="0.0" x2="174.8" y2="58.0" />
<line x1="183.2" y1="0.0" x2="183.2" y2="68.0" />
<line x1="191.5" y1="0.0" x2="191.5" y2="69.0" />
<line x1="199.8" y1="0.0" x2="199.8" y2="78.0" />
<line x1="208.1" y1="0.0" x2="208.1" y2="79.0" />
<line x1="216.5" y1="0.0" x2="216.5" y2="86.0" />
<line x1="224.8" y1="0.0" x2="224.8" y2="95.0" />
<line x1="233.1" y1="0.0" x2="233.1" y2="99.0" />
<line x1="241.4" y1="0.0" x2="241.4" y2="110.0" />
<line x1="249.8" y1="0.0" x2="249.8" y2="113.0" />
<line x1="258.1" y1="0.0" x2="258.1" y2="117.0" />
<line x1="266.4" y1="0.0" x2="266.4" y2="133.0" />
<line x1="274.7" y1="0.0" x2="274.7" y2="134.0" />
<line x1="283.1" y1="0.0" x2="283.1" y2="135.0" />
<line x1="291.4" y1="0.0" x2="291.4" y2="145.0" />
<line x1="299.7" y1="0.0" x2="299.7" y2="151.0" />
<line x1="308.0" y1="0.0" x2="308.0" y2="156.0" />
<line x1="316.4" y1="0.0" x2="316.4" y2="159.0" />
<line x1="324.7" y1="0.0" x2="324.7" y2="173.0" />
<line x1="333.0" y1="0.0" x2="333.0" y2="180.0" />
<line x1="341.3" y1="0.0" x2="341.3" y2="183.0" />
<line x1="349.7" y1="0.0" x2="349.7" y2="193.0" />
<line x1="358.0" y1="0.0" x2="358.0" y2="197.0" />
<line x1="366.3" y1="0.0" x2="366.3" y2="204.0" />
<line x1="374.6" y1="0.0" x2="374.6" y2="211.0" />
<line x1="383.0" y1="0.0" x2="383.0" y2="229.0" />
<line x1="391.3" y1="0.0" x2="391.3" y2="232.0" />
<line x1="399.6" y1="0.0" x2="399.6" y2="236.0" />
<line x1="408.0" y1="0.0" x2="408.0" y2="239.0" />
<line x1="416.3" y1="0.0" x2="416.3" y2="243.0" />
<line x1="424.6" y1="0.0" x2="424.6" y2="250.0" />
<line x1="432.9" y1="0.0" x2="432.9" y2="256.0" />
<line x1="441.3" y1="0.0" x2="441.3" y2="264.0" />
<line x1="449.6" y1="0.0" x2="449.6" y2="270.0" />
<line x1="457.9" y1="0.0" x2="457.9" y2="281.0" />
<line x1="466.2" y1="0.0" x2="466.2" y2="284.0" />
</g>
</svg>