<svg xmlns="http://www.w3.org/2000/svg" width="158.3" height="100.0" viewBox="-2.5 -5.0 168.3 110.0">
<g fill="none" stroke="black" stroke-width="0.2300%" transform="translate(0, 100.0000) scale(2.1739, -2.1739)">
<line x1="1.1" y1="0.0" x2="1.1" y2="1.0" />
<line x1="2.3" y1="0.0" x2="2.3" y2="1.0" />
<line x1="3.4" y1="0.0" x2="3.4" y2="2.0" />
<line x1="4.6" y1="0.0" x2="4.6" y2="3.0" />
<line x1="5.7" y1="0.0" x2="5.7" y2="4.0" />
<line x1="6.8" y1="0.0" x2="6.8" y2="4.0" />
<line x1="8.0" y1="0.0" x2="8.0" y2="5.0" />
<line x1="9.1" y1="0.0" x2="9.1" y2="5.0" />
<line x1="10.2" y1="0.0" x2="10.2" y2="6.0" />
<line x1="11.4" y1="0.0" x2="11.4" y2="7.0" />
<line x1="12.5" y1="0.0" x2="12.5" y2="7.0" />
<line x1="13.7" y1="0.0" x2="13.7" y2="8.0" />
<line x1="14.8" y1="0.0" x2="14.8" y2="9.0" />
<line x1="15.9" y1="0.0" x2="15.9" y2="10.0" />
<line x1="17.1" y1="0.0" x2="17.1" y2="11.0" />
<line x1="18.2" y1="0.0" x2="18.2" y2="11.0" />
<line x1="19.3" y1="0.0" x2="19.3" y2="12.0" />
<line x1="20.5" y1="0.0" x2="20.5" y2="12.0" />
<line x1="21.6" y1="0.0" x2="21.6" y2="13.0" />
<line x1="22.8" y1="0.0" x2="22.8" y2="14.0" />
<line x1="23.9" y1="0.0" x2="23.9" y2="15.0" />
<line x1="25.0" y1="0.0" x2="25.0" y2="16.0" />
<line x1="26.2" y1="0.0" x2="26.2" y2="16.0" />
<line x1="27.3" y1="0.0" x2="27.3" y2="16.0" />
<line x1="28.4" y1="0.0" x2="28.4" y2="17.0" />
<line x1="29.6" y1="0.0" x2="29.6" y2="17.0" />
<line x1="30.7" y1="0.0" x2="30.7" y2="18.0" />
<line x1="31.9" y1="0.0" x2="31.9" y2="19.0" />
<line x1="33.0" y1="0.0" x2="33.0" y2="20.0" />
<line x1="34.1" y1="0.0" x2="34.1" y2="21.0" />
<line x1="35.3" y1="0.0" x2="35.3" y2="22.0" />
<line x1="36.4" y1="0.0" x2="36.4" y2="23.0" />
<line x1="37.5" y1="0.0" x2="37.5" y2="23.0" />
<line x1="38.7" y1="0.0" x2="38.7" y2="23.0" />
<line x1="39.8" y1="0.0" x2="39.8" y2="23.0" />
<line x1="41.0" y1="0.0" x2="41.0" y2="24.0" />
<line x1="42.1" y1="0.0" x2="42.1" y2="25.0" />
<line x1="43.2" y1="0.0" x2="43.2" y2="25.0" />
<line x1="44.4" y1="0.0" x2="44.4" y2="26.0" />
<line x1="45.5" y1="0.0" x2="45.5" y2="27.0" />
<line x1="46.6" y1="0.0" x2="46.6" y2="28.0" />
<line x1="47.8" y1="0.0" x2="47.8" y2="29.0" />
<line x1="48.9" y1="0.0" x2="48.9" y2="30.0" />
<line x1="50.1" y1="0.0" x2="50.1" y2="31.0" />
<line x1="51.2" y1="0.0" x2="51.2" y2="32.0" />
<line x1="52.3" y1="0.0" x2="52.3" y2="33.0" />
<line x1="53.5" y1="0.0" x2="53.5" y2="34.0" />
<line x1="54.6" y1="0.0" x2="54.6" y2="34.0" />
<line x1="55.7" y1="0.0" x2="55.7" y2="34.0" />
<line x1="56.9" y1="0.0" x2="56.9" y2="34.0" />
<line x1="58.0" y1="0.0" x2="58.0" y2="35.0" />
<line x1="59.2" y1="0.0" x2="59.2" y2="35.0" />
<line x1="60.3" y1="0.0" x2="60.3" y2="36.0" />
<line x1="61.4" y1="0.0" x2="61.4" y2="36.0" />
<line x1="62.6" y1="0.0" x2="62.6" y2="37.0" />
<line x1="63.7" y1="0.0" x2="63.7" y2="37.0" />
<line x1="64.8" y1="0.0" x2="64.8" y2="38.0" />
<line x1="66.0" y1="0.0" x2="66.0" y2="39.0" />
<line x1="67.1" y1="0.0" x2="67.1" y2="40.0" />
<line x1="68.3" y1="0.0" x2="68.3" y2="41.0" />
<line x1="69.4" y1="0.0" x2="69.4" y2="42.0" />
<line x1="70.5" y1="0.0" x2="70.5" y2="43.0" />
<line x1="71.7" y1="0.0" x2="71.7" y2="44.0" />
<line x1="72.8" y1="0.0" x2="72.8" y2="45.0" />
<line x1="73.9" y1="0.0" x2="73.9" y2="46.0" />
</g>
</svg>