<svg xmlns="http://www.w3.org/2000/svg" width="161.8" height="100.0" viewBox="3.516 -105.012 171.803 110.000">
<g fill="none" stroke="black" stroke-width="0.0045%" transform="translate(0, -100.0234) scale(111.1241, -111.1241)">
<circle cx="0.077" cy="-0.900" r="0.004" />
<circle cx="0.153" cy="-0.855" r="0.004" />
<circle cx="0.230" cy="-0.793" r="0.004" />
<circle cx="0.307" cy="-0.711" r="0.004" />
<circle cx="0.383" cy="-0.608" r="0.004" />
<circle cx="0.460" cy="-0.489" r="0.004" />
<circle cx="0.536" cy="-0.364" r="0.004" />
<circle cx="0.613" cy="-0.248" r="0.004" />
<circle cx="0.690" cy="-0.155" r="0.004" />
<circle cx="0.766" cy="-0.090" r="0.004" />
<circle cx="0.843" cy="-0.049" r="0.004" />
<circle cx="0.920" cy="-0.026" r="0.004" />
<circle cx="0.996" cy="-0.013" r="0.004" />
<circle cx="1.073" cy="-0.007" r="0.004" />
<circle cx="1.150" cy="-0.003" r="0.004" />
<circle cx="1.226" cy="-0.002" r="0.004" />
<circle cx="1.303" cy="-0.001" r="0.004" />
<circle cx="1.379" cy="-0.000" r="0.004" />
<circle cx="1.456" cy="-0.000" r="0.004" />
<circle cx="1.533" cy="-0.000" r="0.004" />
</g>
</svg>