<svg xmlns="http://www.w3.org/2000/svg" width="162.5" height="100.0" viewBox="-42.50 -67.50 172.50 110.00">
<g fill="none" stroke="black" stroke-width="0.0800%" transform="translate(0, -25.0000) scale(6.2500, -6.2500)">
<polyline points="0.00,0.00 0.00,1.00 -1.00,1.00 -1.00,2.00 -2.00,2.00 -2.00,1.00 -3.00,1.00 -3.00,2.00 -4.00,2.00 -4.00,1.00 -3.00,1.00 -3.00,0.00 -4.00,0.00 -4.00,-1.00 -5.00,-1.00 -5.00,0.00 -6.00,0.00 -6.00,-1.00 -5.00,-1.00 -5.00,-2.00 -4.00,-2.00 -4.00,-1.00 -3.00,-1.00 -3.00,-2.00 -4.00,-2.00 -4.00,-3.00 -3.00,-3.00 -3.00,-4.00 -4.00,-4.00 -4.00,-5.00 -5.00,-5.00 -5.00,-4.00 -6.00,-4.00 -6.00,-5.00 -5.00,-5.00 -5.00,-6.00 -4.00,-6.00 -4.00,-5.00 -3.00,-5.00 -3.00,-6.00 -2.00,-6.00 -2.00,-5.00 -3.00,-5.00 -3.00,-4.00 -2.00,-4.00 -2.00,-3.00 -1.00,-3.00 -1.00,-4.00 -2.00,-4.00 -2.00,-5.00 -1.00,-5.00 -1.00,-6.00 -0.00,-6.00 -0.00,-5.00 1.00,-5.00 1.00,-6.00 -0.00,-6.00 -0.00,-7.00 1.00,-7.00 1.00,-8.00 -0.00,-8.00 -0.00,-9.00 -1.00,-9.00 -1.00,-8.00 -2.00,-8.00 -2.00,-9.00 -1.00,-9.00 -1.00,-10.00 -0.00,-10.00 -0.00,-9.00 1.00,-9.00 1.00,-10.00 2.00,-10.00 2.00,-9.00 1.00,-9.00 1.00,-8.00 2.00,-8.00 2.00,-7.00 3.00,-7.00 3.00,-8.00 4.00,-8.00 4.00,-7.00 3.00,-7.00 3.00,-6.00 2.00,-6.00 2.00,-7.00 1.00,-7.00 1.00,-6.00 2.00,-6.00 2.00,-5.00 1.00,-5.00 1.00,-4.00 2.00,-4.00 2.00,-3.00 3.00,-3.00 3.00,-4.00 2.00,-4.00 2.00,-5.00 3.00,-5.00 3.00,-6.00 4.00,-6.00 4.00,-5.00 5.00,-5.00 5.00,-6.00 6.00,-6.00 6.00,-5.00 5.00,-5.00 5.00,-4.00 6.00,-4.00 6.00,-3.00 7.00,-3.00 7.00,-4.00 6.00,-4.00 6.00,-5.00 7.00,-5.00 7.00,-6.00 8.00,-6.00 8.00,-5.00 9.00,-5.00 9.00,-6.00 8.00,-6.00 8.00,-7.00 9.00,-7.00 9.00,-8.00 8.00,-8.00 8.00,-9.00 7.00,-9.00 7.00,-8.00 6.00,-8.00 6.00,-9.00 7.00,-9.00 7.00,-10.00 8.00,-10.00 8.00,-9.00 9.00,-9.00 9.00,-10.00 10.00,-10.00 10.00,-9.00 9.00,-9.00 9.00,-8.00 10.00,-8.00 10.00,-7.00 11.00,-7.00 11.00,-8.00 12.00,-8.00 12.00,-7.00 11.00,-7.00 11.00,-6.00 10.00,-6.00 10.00,-7.00 9.00,-7.00 9.00,-6.00 10.00,-6.00 10.00,-5.00 9.00,-5.00 9.00,-4.00 10.00,-4.00 10.00,-3.00 11.00,-3.00 11.00,-4.00 12.00,-4.00 12.00,-3.00 11.00,-3.00 11.00,-2.00 10.00,-2.00 10.00,-3.00 9.00,-3.00 9.00,-2.00 8.00,-2.00 8.00,-3.00 9.00,-3.00 9.00,-4.00 8.00,-4.00 8.00,-5.00 7.00,-5.00 7.00,-4.00 8.00,-4.00 8.00,-3.00 7.00,-3.00 7.00,-2.00 6.00,-2.00 6.00,-3.00 5.00,-3.00 5.00,-2.00 6.00,-2.00 6.00,-1.00 5.00,-1.00 5.00,0.00 6.00,0.00 6.00,1.00 7.00,1.00 7.00,0.00 6.00,0.00 6.00,-1.00 7.00,-1.00 7.00,-2.00 8.00,-2.00 8.00,-1.00 9.00,-1.00 9.00,-2.00 10.00,-2.00 10.00,-1.00 9.00,-1.00 9.00,0.00 10.00,0.00 10.00,1.00 11.00,1.00 11.00,0.00 12.00,0.00 12.00,1.00 11.00,1.00 11.00,2.00 10.00,2.00 10.00,1.00 9.00,1.00 9.00,2.00 10.00,2.00 10.00,3.00 9.00,3.00 9.00,4.00 10.00,4.00 10.00,5.00 11.00,5.00 11.00,4.00 10.00,4.00 10.00,3.00 11.00,3.00 11.00,2.00 12.00,2.00 12.00,3.00 13.00,3.00 13.00,2.00 14.00,2.00 14.00,3.00 13.00,3.00 13.00,4.00 14.00,4.00 14.00,5.00 15.00,5.00 15.00,4.00 14.00,4.00 14.00,3.00 15.00,3.00 15.00,2.00 16.00,2.00 16.00,3.00 17.00,3.00 17.00,2.00 16.00,2.00 16.00,1.00 17.00,1.00 17.00,0.00 16.00,0.00 16.00,-1.00 15.00,-1.00 15.00,0.00 14.00,0.00 14.00,-1.00 15.00,-1.00 15.00,-2.00 16.00,-2.00 16.00,-1.00 17.00,-1.00 17.00,-2.00 18.00,-2.00 18.00,-1.00 17.00,-1.00 17.00,0.00 18.00,0.00 18.00,1.00 19.00,1.00 19.00,0.00 20.00,0.00 20.00,1.00 19.00,1.00 19.00,2.00 18.00,2.00 18.00,1.00 17.00,1.00 17.00,2.00 18.00,2.00 18.00,3.00 17.00,3.00 17.00,4.00 18.00,4.00 18.00,5.00 19.00,5.00 19.00,4.00 20.00,4.00 20.00,5.00 19.00,5.00 19.00,6.00 18.00,6.00 18.00,5.00 17.00,5.00 17.00,6.00 16.00,6.00 16.00,5.00 17.00,5.00 17.00,4.00 16.00,4.00" />
</g>
</svg>