<svg xmlns="http://www.w3.org/2000/svg" width="161.8" height="100.0" viewBox="6.032 475.078 171.803 110.000">
<g fill="none" stroke="black" stroke-width="0.0054%" transform="translate(0, 1060.1566) scale(92.3911, -92.3911)">
<polyline points="0.119,5.196 0.159,5.657 0.199,5.878 0.239,6.000 0.279,6.074 0.318,6.123 0.358,6.156 0.398,6.180 0.438,6.198 0.478,6.212 0.517,6.222 0.557,6.231 0.597,6.237 0.637,6.243 0.677,6.247 0.716,6.251 0.756,6.255 0.796,6.257 0.836,6.260 0.876,6.262 0.915,6.264 0.955,6.265 0.995,6.267 1.035,6.268 1.075,6.269 1.114,6.270 1.154,6.271 1.194,6.272 1.234,6.272 1.274,6.273 1.313,6.274 1.353,6.274 1.393,6.275 1.433,6.275 1.473,6.276 1.512,6.276 1.552,6.276 1.592,6.277 1.632,6.277 1.672,6.277 1.711,6.278 1.751,6.278 1.791,6.278 1.831,6.278 1.871,6.279" />
</g>
</svg>