<svg xmlns="http://www.w3.org/2000/svg" width="160.7" height="100.0" viewBox="-3.1 -5.0 170.7 110.0">
<g fill="none" stroke="black" stroke-width="0.7450%" transform="translate(0, 100.0000) scale(0.6711, -0.6711)">
<line x1="2.9" y1="0.0" x2="2.9" y2="1.0" />
<line x1="5.7" y1="0.0" x2="5.7" y2="2.0" />
<line x1="8.6" y1="0.0" x2="8.6" y2="4.0" />
<line x1="11.4" y1="0.0" x2="11.4" y2="5.0" />
<line x1="14.3" y1="0.0" x2="14.3" y2="7.0" />
<line x1="17.1" y1="0.0" x2="17.1" y2="8.0" />
<line x1="20.0" y1="0.0" x2="20.0" y2="10.0" />
<line x1="22.8" y1="0.0" x2="22.8" y2="11.0" />
<line x1="25.7" y1="0.0" x2="25.7" y2="14.0" />
<line x1="28.5" y1="0.0" x2="28.5" y2="16.0" />
<line x1="31.4" y1="0.0" x2="31.4" y2="17.0" />
<line x1="34.2" y1="0.0" x2="34.2" y2="19.0" />
<line x1="37.1" y1="0.0" x2="37.1" y2="20.0" />
<line x1="39.9" y1="0.0" x2="39.9" y2="22.0" />
<line x1="42.8" y1="0.0" x2="42.8" y2="23.0" />
<line x1="45.6" y1="0.0" x2="45.6" y2="25.0" />
<line x1="48.5" y1="0.0" x2="48.5" y2="28.0" />
<line x1="51.3" y1="0.0" x2="51.3" y2="29.0" />
<line x1="54.2" y1="0.0" x2="54.2" y2="31.0" />
<line x1="57.0" y1="0.0" x2="57.0" y2="32.0" />
<line x1="59.9" y1="0.0" x2="59.9" y2="34.0" />
<line x1="62.7" y1="0.0" x2="62.7" y2="35.0" />
<line x1="65.6" y1="0.0" x2="65.6" y2="37.0" />
<line x1="68.4" y1="0.0" x2="68.4" y2="38.0" />
<line x1="71.3" y1="0.0" x2="71.3" y2="41.0" />
<line x1="74.1" y1="0.0" x2="74.1" y2="43.0" />
<line x1="77.0" y1="0.0" x2="77.0" y2="46.0" />
<line x1="79.8" y1="0.0" x2="79.8" y2="47.0" />
<line x1="82.7" y1="0.0" x2="82.7" y2="49.0" />
<line x1="85.5" y1="0.0" x2="85.5" y2="50.0" />
<line x1="88.4" y1="0.0" x2="88.4" y2="52.0" />
<line x1="91.2" y1="0.0" x2="91.2" y2="55.0" />
<line x1="94.1" y1="0.0" x2="94.1" y2="56.0" />
<line x1="96.9" y1="0.0" x2="96.9" y2="58.0" />
<line x1="99.8" y1="0.0" x2="99.8" y2="59.0" />
<line x1="102.6" y1="0.0" x2="102.6" y2="61.0" />
<line x1="105.5" y1="0.0" x2="105.5" y2="62.0" />
<line x1="108.3" y1="0.0" x2="108.3" y2="64.0" />
<line x1="111.2" y1="0.0" x2="111.2" y2="65.0" />
<line x1="114.0" y1="0.0" x2="114.0" y2="68.0" />
<line x1="116.9" y1="0.0" x2="116.9" y2="70.0" />
<line x1="119.7" y1="0.0" x2="119.7" y2="71.0" />
<line x1="122.6" y1="0.0" x2="122.6" y2="73.0" />
<line x1="125.4" y1="0.0" x2="125.4" y2="74.0" />
<line x1="128.3" y1="0.0" x2="128.3" y2="76.0" />
<line x1="131.1" y1="0.0" x2="131.1" y2="77.0" />
<line x1="134.0" y1="0.0" x2="134.0" y2="79.0" />
<line x1="136.8" y1="0.0" x2="136.8" y2="82.0" />
<line x1="139.7" y1="0.0" x2="139.7" y2="83.0" />
<line x1="142.5" y1="0.0" x2="142.5" y2="85.0" />
<line x1="145.4" y1="0.0" x2="145.4" y2="86.0" />
<line x1="148.2" y1="0.0" x2="148.2" y2="88.0" />
<line x1="151.1" y1="0.0" x2="151.1" y2="91.0" />
<line x1="153.9" y1="0.0" x2="153.9" y2="92.0" />
<line x1="156.8" y1="0.0" x2="156.8" y2="95.0" />
<line x1="159.6" y1="0.0" x2="159.6" y2="97.0" />
<line x1="162.5" y1="0.0" x2="162.5" y2="98.0" />
<line x1="165.3" y1="0.0" x2="165.3" y2="100.0" />
<line x1="168.2" y1="0.0" x2="168.2" y2="101.0" />
<line x1="171.0" y1="0.0" x2="171.0" y2="103.0" />
<line x1="173.9" y1="0.0" x2="173.9" y2="104.0" />
<line x1="176.8" y1="0.0" x2="176.8" y2="106.0" />
<line x1="179.6" y1="0.0" x2="179.6" y2="109.0" />
<line x1="182.5" y1="0.0" x2="182.5" y2="110.0" />
<line x1="185.3" y1="0.0" x2="185.3" y2="112.0" />
<line x1="188.2" y1="0.0" x2="188.2" y2="113.0" />
<line x1="191.0" y1="0.0" x2="191.0" y2="115.0" />
<line x1="193.9" y1="0.0" x2="193.9" y2="116.0" />
<line x1="196.7" y1="0.0" x2="196.7" y2="118.0" />
<line x1="199.6" y1="0.0" x2="199.6" y2="119.0" />
<line x1="202.4" y1="0.0" x2="202.4" y2="122.0" />
<line x1="205.3" y1="0.0" x2="205.3" y2="124.0" />
<line x1="208.1" y1="0.0" x2="208.1" y2="125.0" />
<line x1="211.0" y1="0.0" x2="211.0" y2="127.0" />
<line x1="213.8" y1="0.0" x2="213.8" y2="128.0" />
<line x1="216.7" y1="0.0" x2="216.7" y2="130.0" />
<line x1="219.5" y1="0.0" x2="219.5" y2="131.0" />
<line x1="222.4" y1="0.0" x2="222.4" y2="133.0" />
<line x1="225.2" y1="0.0" x2="225.2" y2="137.0" />
<line x1="228.1" y1="0.0" x2="228.1" y2="139.0" />
<line x1="230.9" y1="0.0" x2="230.9" y2="142.0" />
<line x1="233.8" y1="0.0" x2="233.8" y2="143.0" />
<line x1="236.6" y1="0.0" x2="236.6" y2="145.0" />
<line x1="239.5" y1="0.0" x2="239.5" y2="146.0" />
<line x1="242.3" y1="0.0" x2="242.3" y2="149.0" />
</g>
</svg>