<svg xmlns="http://www.w3.org/2000/svg" width="161.8" height="100.0" viewBox="-3.182 -55.000 171.803 110.000">
<g fill="none" stroke="black" stroke-width="0.0100%" transform="translate(0, 0.0000) scale(50.0000, -50.0000)">
<line x1="0.036" y1="0.000" x2="0.036" y2="1.000" />
<line x1="0.073" y1="0.000" x2="0.073" y2="1.000" />
<line x1="0.109" y1="0.000" x2="0.109" y2="-1.000" />
<line x1="0.145" y1="0.000" x2="0.145" y2="-1.000" />

<line x1="0.218" y1="0.000" x2="0.218" y2="-1.000" />
<line x1="0.255" y1="0.000" x2="0.255" y2="-1.000" />
<line x1="0.291" y1="0.000" x2="0.291" y2="1.000" />
<line x1="0.327" y1="0.000" x2="0.327" y2="1.000" />

<line x1="0.400" y1="0.000" x2="0.400" y2="1.000" />
<line x1="0.436" y1="0.000" x2="0.436" y2="1.000" />
<line x1="0.473" y1="0.000" x2="0.473" y2="-1.000" />
<line x1="0.509" y1="0.000" x2="0.509" y2="-1.000" />

<line x1="0.582" y1="0.000" x2="0.582" y2="-1.000" />
<line x1="0.618" y1="0.000" x2="0.618" y2="-1.000" />
<line x1="0.654" y1="0.000" x2="0.654" y2="1.000" />
<line x1="0.691" y1="0.000" x2="0.691" y2="1.000" />

<line x1="0.764" y1="0.000" x2="0.764" y2="1.000" />
<line x1="0.800" y1="0.000" x2="0.800" y2="1.000" />
<line x1="0.836" y1="0.000" x2="0.836" y2="-1.000" />
<line x1="0.873" y1="0.000" x2="0.873" y2="-1.000" />

<line x1="0.945" y1="0.000" x2="0.945" y2="-1.000" />
<line x1="0.982" y1="0.000" x2="0.982" y2="-1.000" />
<line x1="1.018" y1="0.000" x2="1.018" y2="1.000" />
<line x1="1.054" y1="0.000" x2="1.054" y2="1.000" />

<line x1="1.127" y1="0.000" x2="1.127" y2="1.000" />
<line x1="1.164" y1="0.000" x2="1.164" y2="1.000" />
<line x1="1.200" y1="0.000" x2="1.200" y2="-1.000" />
<line x1="1.236" y1="0.000" x2="1.236" y2="-1.000" />

<line x1="1.309" y1="0.000" x2="1.309" y2="-1.000" />
<line x1="1.345" y1="0.000" x2="1.345" y2="-1.000" />
<line x1="1.382" y1="0.000" x2="1.382" y2="1.000" />
<line x1="1.418" y1="0.000" x2="1.418" y2="1.000" />

<line x1="1.491" y1="0.000" x2="1.491" y2="1.000" />
<line x1="1.527" y1="0.000" x2="1.527" y2="1.000" />
<line x1="1.563" y1="0.000" x2="1.563" y2="-1.000" />
<line x1="1.600" y1="0.000" x2="1.600" y2="-1.000" />

<line x1="1.673" y1="0.000" x2="1.673" y2="-1.000" />
<line x1="1.709" y1="0.000" x2="1.709" y2="-1.000" />
<line x1="1.745" y1="0.000" x2="1.745" y2="1.000" />
<line x1="1.782" y1="0.000" x2="1.782" y2="1.000" />

<line x1="1.854" y1="0.000" x2="1.854" y2="1.000" />
<line x1="1.891" y1="0.000" x2="1.891" y2="1.000" />
<line x1="1.927" y1="0.000" x2="1.927" y2="-1.000" />
<line x1="1.963" y1="0.000" x2="1.963" y2="-1.000" />

<line x1="2.036" y1="0.000" x2="2.036" y2="-1.000" />
<line x1="2.073" y1="0.000" x2="2.073" y2="-1.000" />
<line x1="2.109" y1="0.000" x2="2.109" y2="1.000" />
<line x1="2.145" y1="0.000" x2="2.145" y2="1.000" />

<line x1="2.218" y1="0.000" x2="2.218" y2="1.000" />
<line x1="2.254" y1="0.000" x2="2.254" y2="1.000" />
<line x1="2.291" y1="0.000" x2="2.291" y2="-1.000" />
<line x1="2.327" y1="0.000" x2="2.327" y2="-1.000" />

<line x1="2.400" y1="0.000" x2="2.400" y2="-1.000" />
<line x1="2.436" y1="0.000" x2="2.436" y2="-1.000" />
<line x1="2.473" y1="0.000" x2="2.473" y2="1.000" />
<line x1="2.509" y1="0.000" x2="2.509" y2="1.000" />

<line x1="2.582" y1="0.000" x2="2.582" y2="1.000" />
<line x1="2.618" y1="0.000" x2="2.618" y2="1.000" />
<line x1="2.654" y1="0.000" x2="2.654" y2="-1.000" />
<line x1="2.691" y1="0.000" x2="2.691" y2="-1.000" />

<line x1="2.763" y1="0.000" x2="2.763" y2="-1.000" />
<line x1="2.800" y1="0.000" x2="2.800" y2="-1.000" />
<line x1="2.836" y1="0.000" x2="2.836" y2="1.000" />
<line x1="2.872" y1="0.000" x2="2.872" y2="1.000" />

<line x1="2.945" y1="0.000" x2="2.945" y2="1.000" />
<line x1="2.982" y1="0.000" x2="2.982" y2="1.000" />
<line x1="3.018" y1="0.000" x2="3.018" y2="-1.000" />
<line x1="3.054" y1="0.000" x2="3.054" y2="-1.000" />

<line x1="3.127" y1="0.000" x2="3.127" y2="-1.000" />
<line x1="3.163" y1="0.000" x2="3.163" y2="-1.000" />
<line x1="3.200" y1="0.000" x2="3.200" y2="1.000" />
<line x1="3.236" y1="0.000" x2="3.236" y2="1.000" />

</g>
</svg>