<svg xmlns="http://www.w3.org/2000/svg" width="161.8" height="100.0" viewBox="-2.258 -5.000 171.803 110.000">
<g fill="none" stroke="black" stroke-width="0.0050%" transform="translate(0, 100.0000) scale(100.0000, -100.0000)">

<line x1="0.055" y1="0.000" x2="0.055" y2="1.000" />

<line x1="0.110" y1="0.000" x2="0.110" y2="1.000" />

<line x1="0.165" y1="0.000" x2="0.165" y2="1.000" />

<line x1="0.219" y1="0.000" x2="0.219" y2="1.000" />

<line x1="0.274" y1="0.000" x2="0.274" y2="1.000" />

<line x1="0.329" y1="0.000" x2="0.329" y2="1.000" />

<line x1="0.384" y1="0.000" x2="0.384" y2="1.000" />

<line x1="0.439" y1="0.000" x2="0.439" y2="1.000" />

<line x1="0.494" y1="0.000" x2="0.494" y2="1.000" />

<line x1="0.548" y1="0.000" x2="0.548" y2="1.000" />

<line x1="0.603" y1="0.000" x2="0.603" y2="1.000" />

<line x1="0.658" y1="0.000" x2="0.658" y2="1.000" />

<line x1="0.713" y1="0.000" x2="0.713" y2="1.000" />

<line x1="0.768" y1="0.000" x2="0.768" y2="1.000" />

<line x1="0.823" y1="0.000" x2="0.823" y2="1.000" />

<line x1="0.878" y1="0.000" x2="0.878" y2="1.000" />

<line x1="0.932" y1="0.000" x2="0.932" y2="1.000" />

<line x1="0.987" y1="0.000" x2="0.987" y2="1.000" />

<line x1="1.042" y1="0.000" x2="1.042" y2="1.000" />

<line x1="1.097" y1="0.000" x2="1.097" y2="1.000" />

<line x1="1.152" y1="0.000" x2="1.152" y2="1.000" />

<line x1="1.207" y1="0.000" x2="1.207" y2="1.000" />

<line x1="1.262" y1="0.000" x2="1.262" y2="1.000" />

<line x1="1.316" y1="0.000" x2="1.316" y2="1.000" />

<line x1="1.371" y1="0.000" x2="1.371" y2="1.000" />

<line x1="1.426" y1="0.000" x2="1.426" y2="1.000" />

<line x1="1.481" y1="0.000" x2="1.481" y2="1.000" />

<line x1="1.536" y1="0.000" x2="1.536" y2="1.000" />

<line x1="1.591" y1="0.000" x2="1.591" y2="1.000" />

<line x1="1.645" y1="0.000" x2="1.645" y2="1.000" />
</g>
</svg>