<svg xmlns="http://www.w3.org/2000/svg" width="161.8" height="100.0" viewBox="-85.902 -21.667 171.803 110.000">
<g fill="none" stroke="black" stroke-width="0.0075%" transform="translate(0, 66.6667) scale(66.6667, -66.6667)">
<circle cx="-1.214" cy="0.000" r="0.007" />
<circle cx="0.000" cy="1.250" r="0.007" />
<polyline points="-1.214,-0.250 -1.189,-0.235 -1.165,-0.220 -1.141,-0.205 -1.116,-0.190 -1.092,-0.175 -1.068,-0.160 -1.044,-0.145 -1.019,-0.130 -0.995,-0.115 -0.971,-0.100 -0.947,-0.085 -0.922,-0.070 -0.898,-0.055 -0.874,-0.040 -0.849,-0.025 -0.825,-0.010 -0.801,0.005 -0.777,0.020 -0.752,0.035 -0.728,0.050 -0.704,0.065 -0.680,0.080 -0.655,0.095 -0.631,0.110 -0.607,0.125 -0.582,0.140 -0.558,0.155 -0.534,0.170 -0.510,0.185 -0.485,0.200 -0.461,0.215 -0.437,0.230 -0.413,0.245 -0.388,0.260 -0.364,0.275 -0.340,0.290 -0.316,0.305 -0.291,0.320 -0.267,0.335 -0.243,0.350 -0.218,0.365 -0.194,0.380 -0.170,0.395 -0.146,0.410 -0.121,0.425 -0.097,0.440 -0.073,0.455 -0.049,0.470 -0.024,0.485 0.000,0.500 0.024,0.515 0.049,0.530 0.073,0.545 0.097,0.560 0.121,0.575 0.146,0.590 0.170,0.605 0.194,0.620 0.218,0.635 0.243,0.650 0.267,0.665 0.291,0.680 0.316,0.695 0.340,0.710 0.364,0.725 0.388,0.740 0.413,0.755 0.437,0.770 0.461,0.785 0.485,0.800 0.510,0.815 0.534,0.830 0.558,0.845 0.582,0.860 0.607,0.875 0.631,0.890 0.655,0.905 0.680,0.920 0.704,0.935 0.728,0.950 0.752,0.965 0.777,0.980 0.801,0.995 0.825,1.010 0.849,1.025 0.874,1.040 0.898,1.055 0.922,1.070 0.947,1.085 0.971,1.100 0.995,1.115 1.019,1.130 1.044,1.145 1.068,1.160 1.092,1.175 1.116,1.190 1.141,1.205 1.165,1.220 1.189,1.235 1.214,1.250" />
</g>
</svg>