<svg xmlns="http://www.w3.org/2000/svg" width="100.0" height="100.0" viewBox="-55.000 -55.000 110.000 110.000">
<g fill="none" stroke="black" stroke-width="0.0100%" transform="translate(0, 0.0000) scale(50.0000, -50.0000)">
<circle cx="0.000" cy="0.000" r="1.000" />
<circle cx="0.000" cy="1.000" r="0.010" />
<circle cx="-0.259" cy="0.966" r="0.010" />
<circle cx="-0.500" cy="0.866" r="0.010" />
<circle cx="-0.707" cy="0.707" r="0.010" />
<circle cx="-0.866" cy="0.500" r="0.010" />
<circle cx="-0.966" cy="0.259" r="0.010" />
<circle cx="-1.000" cy="0.000" r="0.010" />
<circle cx="-0.966" cy="-0.259" r="0.010" />
<circle cx="-0.866" cy="-0.500" r="0.010" />
<circle cx="-0.707" cy="-0.707" r="0.010" />
<circle cx="-0.500" cy="-0.866" r="0.010" />
<circle cx="-0.259" cy="-0.966" r="0.010" />
<circle cx="-0.000" cy="-1.000" r="0.010" />
<circle cx="0.259" cy="-0.966" r="0.010" />
<circle cx="0.500" cy="-0.866" r="0.010" />
<circle cx="0.707" cy="-0.707" r="0.010" />
<circle cx="0.866" cy="-0.500" r="0.010" />
<circle cx="0.966" cy="-0.259" r="0.010" />
<circle cx="1.000" cy="-0.000" r="0.010" />
<circle cx="0.966" cy="0.259" r="0.010" />
<circle cx="0.866" cy="0.500" r="0.010" />
<circle cx="0.707" cy="0.707" r="0.010" />
<circle cx="0.500" cy="0.866" r="0.010" />
<circle cx="0.259" cy="0.966" r="0.010" />
<line x1="-0.259" y1="0.966" x2="-0.500" y2="0.866" />
<line x1="-0.500" y1="0.866" x2="-0.866" y2="0.500" />
<line x1="-0.707" y1="0.707" x2="-1.000" y2="0.000" />
<line x1="-0.866" y1="0.500" x2="-0.866" y2="-0.500" />
<line x1="-0.966" y1="0.259" x2="-0.500" y2="-0.866" />
<line x1="-1.000" y1="0.000" x2="-0.000" y2="-1.000" />
<line x1="-0.966" y1="-0.259" x2="0.500" y2="-0.866" />
<line x1="-0.866" y1="-0.500" x2="0.866" y2="-0.500" />
<line x1="-0.707" y1="-0.707" x2="1.000" y2="-0.000" />
<line x1="-0.500" y1="-0.866" x2="0.866" y2="0.500" />
<line x1="-0.259" y1="-0.966" x2="0.500" y2="0.866" />
<line x1="-0.000" y1="-1.000" x2="0.000" y2="1.000" />
<line x1="0.259" y1="-0.966" x2="-0.500" y2="0.866" />
<line x1="0.500" y1="-0.866" x2="-0.866" y2="0.500" />
<line x1="0.707" y1="-0.707" x2="-1.000" y2="0.000" />
<line x1="0.866" y1="-0.500" x2="-0.866" y2="-0.500" />
<line x1="0.966" y1="-0.259" x2="-0.500" y2="-0.866" />
<line x1="1.000" y1="-0.000" x2="-0.000" y2="-1.000" />
<line x1="0.966" y1="0.259" x2="0.500" y2="-0.866" />
<line x1="0.866" y1="0.500" x2="0.866" y2="-0.500" />
<line x1="0.707" y1="0.707" x2="1.000" y2="-0.000" />
<line x1="0.500" y1="0.866" x2="0.866" y2="0.500" />
<line x1="0.259" y1="0.966" x2="0.500" y2="0.866" />
</g>
</svg>