<svg xmlns="http://www.w3.org/2000/svg" width="100.0" height="100.0" viewBox="-55.000 -55.000 110.000 110.000">
<g fill="none" stroke="black" stroke-width="0.0100%" transform="translate(0, 0.0000) scale(50.0000, -50.0000)">
<circle cx="0.000" cy="0.000" r="1.000" />
<circle cx="0.000" cy="1.000" r="0.010" />
<circle cx="-0.142" cy="0.990" r="0.010" />
<circle cx="-0.282" cy="0.959" r="0.010" />
<circle cx="-0.415" cy="0.910" r="0.010" />
<circle cx="-0.541" cy="0.841" r="0.010" />
<circle cx="-0.655" cy="0.756" r="0.010" />
<circle cx="-0.756" cy="0.655" r="0.010" />
<circle cx="-0.841" cy="0.541" r="0.010" />
<circle cx="-0.910" cy="0.415" r="0.010" />
<circle cx="-0.959" cy="0.282" r="0.010" />
<circle cx="-0.990" cy="0.142" r="0.010" />
<circle cx="-1.000" cy="0.000" r="0.010" />
<circle cx="-0.990" cy="-0.142" r="0.010" />
<circle cx="-0.959" cy="-0.282" r="0.010" />
<circle cx="-0.910" cy="-0.415" r="0.010" />
<circle cx="-0.841" cy="-0.541" r="0.010" />
<circle cx="-0.756" cy="-0.655" r="0.010" />
<circle cx="-0.655" cy="-0.756" r="0.010" />
<circle cx="-0.541" cy="-0.841" r="0.010" />
<circle cx="-0.415" cy="-0.910" r="0.010" />
<circle cx="-0.282" cy="-0.959" r="0.010" />
<circle cx="-0.142" cy="-0.990" r="0.010" />
<circle cx="-0.000" cy="-1.000" r="0.010" />
<circle cx="0.142" cy="-0.990" r="0.010" />
<circle cx="0.282" cy="-0.959" r="0.010" />
<circle cx="0.415" cy="-0.910" r="0.010" />
<circle cx="0.541" cy="-0.841" r="0.010" />
<circle cx="0.655" cy="-0.756" r="0.010" />
<circle cx="0.756" cy="-0.655" r="0.010" />
<circle cx="0.841" cy="-0.541" r="0.010" />
<circle cx="0.910" cy="-0.415" r="0.010" />
<circle cx="0.959" cy="-0.282" r="0.010" />
<circle cx="0.990" cy="-0.142" r="0.010" />
<circle cx="1.000" cy="-0.000" r="0.010" />
<circle cx="0.990" cy="0.142" r="0.010" />
<circle cx="0.959" cy="0.282" r="0.010" />
<circle cx="0.910" cy="0.415" r="0.010" />
<circle cx="0.841" cy="0.541" r="0.010" />
<circle cx="0.756" cy="0.655" r="0.010" />
<circle cx="0.655" cy="0.756" r="0.010" />
<circle cx="0.541" cy="0.841" r="0.010" />
<circle cx="0.415" cy="0.910" r="0.010" />
<circle cx="0.282" cy="0.959" r="0.010" />
<circle cx="0.142" cy="0.990" r="0.010" />
<line x1="-0.142" y1="0.990" x2="-0.990" y2="0.142" />
<line x1="-0.282" y1="0.959" x2="-0.282" y2="-0.959" />
<line x1="-0.415" y1="0.910" x2="0.910" y2="-0.415" />
<line x1="-0.541" y1="0.841" x2="0.541" y2="0.841" />
<line x1="-0.655" y1="0.756" x2="-0.756" y2="0.655" />
<line x1="-0.756" y1="0.655" x2="-0.756" y2="-0.655" />
<line x1="-0.841" y1="0.541" x2="0.541" y2="-0.841" />
<line x1="-0.910" y1="0.415" x2="0.910" y2="0.415" />
<line x1="-0.959" y1="0.282" x2="-0.282" y2="0.959" />
<line x1="-0.990" y1="0.142" x2="-0.990" y2="-0.142" />
<line x1="-1.000" y1="0.000" x2="-0.000" y2="-1.000" />
<line x1="-0.990" y1="-0.142" x2="0.990" y2="-0.142" />
<line x1="-0.959" y1="-0.282" x2="0.282" y2="0.959" />
<line x1="-0.910" y1="-0.415" x2="-0.910" y2="0.415" />
<line x1="-0.841" y1="-0.541" x2="-0.541" y2="-0.841" />
<line x1="-0.756" y1="-0.655" x2="0.756" y2="-0.655" />
<line x1="-0.655" y1="-0.756" x2="0.756" y2="0.655" />
<line x1="-0.541" y1="-0.841" x2="-0.541" y2="0.841" />
<line x1="-0.415" y1="-0.910" x2="-0.910" y2="-0.415" />
<line x1="-0.282" y1="-0.959" x2="0.282" y2="-0.959" />
<line x1="-0.142" y1="-0.990" x2="0.990" y2="0.142" />
<line x1="-0.000" y1="-1.000" x2="0.000" y2="1.000" />
<line x1="0.142" y1="-0.990" x2="-0.990" y2="0.142" />
<line x1="0.282" y1="-0.959" x2="-0.282" y2="-0.959" />
<line x1="0.415" y1="-0.910" x2="0.910" y2="-0.415" />
<line x1="0.541" y1="-0.841" x2="0.541" y2="0.841" />
<line x1="0.655" y1="-0.756" x2="-0.756" y2="0.655" />
<line x1="0.756" y1="-0.655" x2="-0.756" y2="-0.655" />
<line x1="0.841" y1="-0.541" x2="0.541" y2="-0.841" />
<line x1="0.910" y1="-0.415" x2="0.910" y2="0.415" />
<line x1="0.959" y1="-0.282" x2="-0.282" y2="0.959" />
<line x1="0.990" y1="-0.142" x2="-0.990" y2="-0.142" />
<line x1="1.000" y1="-0.000" x2="-0.000" y2="-1.000" />
<line x1="0.990" y1="0.142" x2="0.990" y2="-0.142" />
<line x1="0.959" y1="0.282" x2="0.282" y2="0.959" />
<line x1="0.910" y1="0.415" x2="-0.910" y2="0.415" />
<line x1="0.841" y1="0.541" x2="-0.541" y2="-0.841" />
<line x1="0.756" y1="0.655" x2="0.756" y2="-0.655" />
<line x1="0.655" y1="0.756" x2="0.756" y2="0.655" />
<line x1="0.541" y1="0.841" x2="-0.541" y2="0.841" />
<line x1="0.415" y1="0.910" x2="-0.910" y2="-0.415" />
<line x1="0.282" y1="0.959" x2="0.282" y2="-0.959" />
<line x1="0.142" y1="0.990" x2="0.990" y2="0.142" />
</g>
</svg>