<svg xmlns="http://www.w3.org/2000/svg" width="100.0" height="100.0" viewBox="-55.000 -55.000 110.000 110.000">
<g fill="none" stroke="black" stroke-width="0.0100%" transform="translate(0, 0.0000) scale(50.0000, -50.0000)">
<circle cx="0.000" cy="0.000" r="1.000" />
<circle cx="0.000" cy="1.000" r="0.010" />
<circle cx="-0.108" cy="0.994" r="0.010" />
<circle cx="-0.215" cy="0.977" r="0.010" />
<circle cx="-0.319" cy="0.948" r="0.010" />
<circle cx="-0.420" cy="0.908" r="0.010" />
<circle cx="-0.516" cy="0.857" r="0.010" />
<circle cx="-0.605" cy="0.796" r="0.010" />
<circle cx="-0.688" cy="0.726" r="0.010" />
<circle cx="-0.762" cy="0.647" r="0.010" />
<circle cx="-0.828" cy="0.561" r="0.010" />
<circle cx="-0.884" cy="0.468" r="0.010" />
<circle cx="-0.929" cy="0.370" r="0.010" />
<circle cx="-0.964" cy="0.268" r="0.010" />
<circle cx="-0.987" cy="0.162" r="0.010" />
<circle cx="-0.999" cy="0.054" r="0.010" />
<circle cx="-0.999" cy="-0.054" r="0.010" />
<circle cx="-0.987" cy="-0.162" r="0.010" />
<circle cx="-0.964" cy="-0.268" r="0.010" />
<circle cx="-0.929" cy="-0.370" r="0.010" />
<circle cx="-0.884" cy="-0.468" r="0.010" />
<circle cx="-0.828" cy="-0.561" r="0.010" />
<circle cx="-0.762" cy="-0.647" r="0.010" />
<circle cx="-0.688" cy="-0.726" r="0.010" />
<circle cx="-0.605" cy="-0.796" r="0.010" />
<circle cx="-0.516" cy="-0.857" r="0.010" />
<circle cx="-0.420" cy="-0.908" r="0.010" />
<circle cx="-0.319" cy="-0.948" r="0.010" />
<circle cx="-0.215" cy="-0.977" r="0.010" />
<circle cx="-0.108" cy="-0.994" r="0.010" />
<circle cx="-0.000" cy="-1.000" r="0.010" />
<circle cx="0.108" cy="-0.994" r="0.010" />
<circle cx="0.215" cy="-0.977" r="0.010" />
<circle cx="0.319" cy="-0.948" r="0.010" />
<circle cx="0.420" cy="-0.908" r="0.010" />
<circle cx="0.516" cy="-0.857" r="0.010" />
<circle cx="0.605" cy="-0.796" r="0.010" />
<circle cx="0.688" cy="-0.726" r="0.010" />
<circle cx="0.762" cy="-0.647" r="0.010" />
<circle cx="0.828" cy="-0.561" r="0.010" />
<circle cx="0.884" cy="-0.468" r="0.010" />
<circle cx="0.929" cy="-0.370" r="0.010" />
<circle cx="0.964" cy="-0.268" r="0.010" />
<circle cx="0.987" cy="-0.162" r="0.010" />
<circle cx="0.999" cy="-0.054" r="0.010" />
<circle cx="0.999" cy="0.054" r="0.010" />
<circle cx="0.987" cy="0.162" r="0.010" />
<circle cx="0.964" cy="0.268" r="0.010" />
<circle cx="0.929" cy="0.370" r="0.010" />
<circle cx="0.884" cy="0.468" r="0.010" />
<circle cx="0.828" cy="0.561" r="0.010" />
<circle cx="0.762" cy="0.647" r="0.010" />
<circle cx="0.688" cy="0.726" r="0.010" />
<circle cx="0.605" cy="0.796" r="0.010" />
<circle cx="0.516" cy="0.857" r="0.010" />
<circle cx="0.420" cy="0.908" r="0.010" />
<circle cx="0.319" cy="0.948" r="0.010" />
<circle cx="0.215" cy="0.977" r="0.010" />
<circle cx="0.108" cy="0.994" r="0.010" />
<line x1="-0.108" y1="0.994" x2="-0.828" y2="-0.561" />
<line x1="-0.215" y1="0.977" x2="0.929" y2="-0.370" />
<line x1="-0.319" y1="0.948" x2="-0.215" y2="0.977" />
<line x1="-0.420" y1="0.908" x2="-0.688" y2="-0.726" />
<line x1="-0.516" y1="0.857" x2="0.987" y2="-0.162" />
<line x1="-0.605" y1="0.796" x2="-0.420" y2="0.908" />
<line x1="-0.688" y1="0.726" x2="-0.516" y2="-0.857" />
<line x1="-0.762" y1="0.647" x2="0.999" y2="0.054" />
<line x1="-0.828" y1="0.561" x2="-0.605" y2="0.796" />
<line x1="-0.884" y1="0.468" x2="-0.319" y2="-0.948" />
<line x1="-0.929" y1="0.370" x2="0.964" y2="0.268" />
<line x1="-0.964" y1="0.268" x2="-0.762" y2="0.647" />
<line x1="-0.987" y1="0.162" x2="-0.108" y2="-0.994" />
<line x1="-0.999" y1="0.054" x2="0.884" y2="0.468" />
<line x1="-0.999" y1="-0.054" x2="-0.884" y2="0.468" />
<line x1="-0.987" y1="-0.162" x2="0.108" y2="-0.994" />
<line x1="-0.964" y1="-0.268" x2="0.762" y2="0.647" />
<line x1="-0.929" y1="-0.370" x2="-0.964" y2="0.268" />
<line x1="-0.884" y1="-0.468" x2="0.319" y2="-0.948" />
<line x1="-0.828" y1="-0.561" x2="0.605" y2="0.796" />
<line x1="-0.762" y1="-0.647" x2="-0.999" y2="0.054" />
<line x1="-0.688" y1="-0.726" x2="0.516" y2="-0.857" />
<line x1="-0.605" y1="-0.796" x2="0.420" y2="0.908" />
<line x1="-0.516" y1="-0.857" x2="-0.987" y2="-0.162" />
<line x1="-0.420" y1="-0.908" x2="0.688" y2="-0.726" />
<line x1="-0.319" y1="-0.948" x2="0.215" y2="0.977" />
<line x1="-0.215" y1="-0.977" x2="-0.929" y2="-0.370" />
<line x1="-0.108" y1="-0.994" x2="0.828" y2="-0.561" />
<line x1="-0.000" y1="-1.000" x2="0.000" y2="1.000" />
<line x1="0.108" y1="-0.994" x2="-0.828" y2="-0.561" />
<line x1="0.215" y1="-0.977" x2="0.929" y2="-0.370" />
<line x1="0.319" y1="-0.948" x2="-0.215" y2="0.977" />
<line x1="0.420" y1="-0.908" x2="-0.688" y2="-0.726" />
<line x1="0.516" y1="-0.857" x2="0.987" y2="-0.162" />
<line x1="0.605" y1="-0.796" x2="-0.420" y2="0.908" />
<line x1="0.688" y1="-0.726" x2="-0.516" y2="-0.857" />
<line x1="0.762" y1="-0.647" x2="0.999" y2="0.054" />
<line x1="0.828" y1="-0.561" x2="-0.605" y2="0.796" />
<line x1="0.884" y1="-0.468" x2="-0.319" y2="-0.948" />
<line x1="0.929" y1="-0.370" x2="0.964" y2="0.268" />
<line x1="0.964" y1="-0.268" x2="-0.762" y2="0.647" />
<line x1="0.987" y1="-0.162" x2="-0.108" y2="-0.994" />
<line x1="0.999" y1="-0.054" x2="0.884" y2="0.468" />
<line x1="0.999" y1="0.054" x2="-0.884" y2="0.468" />
<line x1="0.987" y1="0.162" x2="0.108" y2="-0.994" />
<line x1="0.964" y1="0.268" x2="0.762" y2="0.647" />
<line x1="0.929" y1="0.370" x2="-0.964" y2="0.268" />
<line x1="0.884" y1="0.468" x2="0.319" y2="-0.948" />
<line x1="0.828" y1="0.561" x2="0.605" y2="0.796" />
<line x1="0.762" y1="0.647" x2="-0.999" y2="0.054" />
<line x1="0.688" y1="0.726" x2="0.516" y2="-0.857" />
<line x1="0.605" y1="0.796" x2="0.420" y2="0.908" />
<line x1="0.516" y1="0.857" x2="-0.987" y2="-0.162" />
<line x1="0.420" y1="0.908" x2="0.688" y2="-0.726" />
<line x1="0.319" y1="0.948" x2="0.215" y2="0.977" />
<line x1="0.215" y1="0.977" x2="-0.929" y2="-0.370" />
<line x1="0.108" y1="0.994" x2="0.828" y2="-0.561" />
</g>
</svg>