<svg xmlns="http://www.w3.org/2000/svg" width="161.8" height="100.0" viewBox="-2.95 20.00 171.80 110.00">
<g fill="none" stroke="black" stroke-width="0.0200%" transform="translate(0, 150.0000) scale(25.0000, -25.0000)">
<circle cx="0.08" cy="1.00" r="0.02" />
<circle cx="0.16" cy="2.00" r="0.02" />
<circle cx="0.25" cy="1.00" r="0.02" />
<circle cx="0.33" cy="1.00" r="0.02" />
<circle cx="0.41" cy="3.00" r="0.02" />
<circle cx="0.49" cy="2.00" r="0.02" />
<circle cx="0.57" cy="1.00" r="0.02" />
<circle cx="0.66" cy="1.00" r="0.02" />
<circle cx="0.74" cy="2.00" r="0.02" />
<circle cx="0.82" cy="1.00" r="0.02" />
<circle cx="0.90" cy="1.00" r="0.02" />
<circle cx="0.98" cy="1.00" r="0.02" />
<circle cx="1.07" cy="4.00" r="0.02" />
<circle cx="1.15" cy="3.00" r="0.02" />
<circle cx="1.23" cy="1.00" r="0.02" />
<circle cx="1.31" cy="2.00" r="0.02" />
<circle cx="1.39" cy="2.00" r="0.02" />
<circle cx="1.47" cy="2.00" r="0.02" />
<circle cx="1.56" cy="1.00" r="0.02" />
<circle cx="1.64" cy="1.00" r="0.02" />
<circle cx="1.72" cy="1.00" r="0.02" />
<circle cx="1.80" cy="3.00" r="0.02" />
<circle cx="1.88" cy="1.00" r="0.02" />
<circle cx="1.97" cy="2.00" r="0.02" />
<circle cx="2.05" cy="1.00" r="0.02" />
<circle cx="2.13" cy="1.00" r="0.02" />
<circle cx="2.21" cy="1.00" r="0.02" />
<circle cx="2.29" cy="2.00" r="0.02" />
<circle cx="2.38" cy="1.00" r="0.02" />
<circle cx="2.46" cy="1.00" r="0.02" />
<circle cx="2.54" cy="1.00" r="0.02" />
<circle cx="2.62" cy="1.00" r="0.02" />
<circle cx="2.70" cy="5.00" r="0.02" />
<circle cx="2.79" cy="4.00" r="0.02" />
<circle cx="2.87" cy="1.00" r="0.02" />
<circle cx="2.95" cy="3.00" r="0.02" />
<circle cx="3.03" cy="2.00" r="0.02" />
<circle cx="3.11" cy="3.00" r="0.02" />
<circle cx="3.20" cy="1.00" r="0.02" />
<circle cx="3.28" cy="1.00" r="0.02" />
<circle cx="3.36" cy="2.00" r="0.02" />
<circle cx="3.44" cy="3.00" r="0.02" />
<circle cx="3.52" cy="2.00" r="0.02" />
<circle cx="3.60" cy="2.00" r="0.02" />
<circle cx="3.69" cy="1.00" r="0.02" />
<circle cx="3.77" cy="2.00" r="0.02" />
<circle cx="3.85" cy="1.00" r="0.02" />
<circle cx="3.93" cy="2.00" r="0.02" />
<circle cx="4.01" cy="2.00" r="0.02" />
<circle cx="4.10" cy="1.00" r="0.02" />
<circle cx="4.18" cy="1.00" r="0.02" />
<circle cx="4.26" cy="1.00" r="0.02" />
<circle cx="4.34" cy="1.00" r="0.02" />
<circle cx="4.42" cy="4.00" r="0.02" />
<circle cx="4.51" cy="1.00" r="0.02" />
<circle cx="4.59" cy="3.00" r="0.02" />
<circle cx="4.67" cy="1.00" r="0.02" />
<circle cx="4.75" cy="1.00" r="0.02" />
<circle cx="4.83" cy="2.00" r="0.02" />
<circle cx="4.92" cy="2.00" r="0.02" />
<circle cx="5.00" cy="1.00" r="0.02" />
<circle cx="5.08" cy="2.00" r="0.02" />
<circle cx="5.16" cy="1.00" r="0.02" />
<circle cx="5.24" cy="1.00" r="0.02" />
<circle cx="5.33" cy="1.00" r="0.02" />
<circle cx="5.41" cy="1.00" r="0.02" />
<circle cx="5.49" cy="3.00" r="0.02" />
<circle cx="5.57" cy="1.00" r="0.02" />
<circle cx="5.65" cy="1.00" r="0.02" />
<circle cx="5.73" cy="2.00" r="0.02" />
<circle cx="5.82" cy="1.00" r="0.02" />
<circle cx="5.90" cy="1.00" r="0.02" />
<circle cx="5.98" cy="1.00" r="0.02" />
<circle cx="6.06" cy="1.00" r="0.02" />
<circle cx="6.14" cy="2.00" r="0.02" />
<circle cx="6.23" cy="1.00" r="0.02" />
<circle cx="6.31" cy="1.00" r="0.02" />
<circle cx="6.39" cy="1.00" r="0.02" />
<circle cx="6.47" cy="1.00" r="0.02" />
<circle cx="6.55" cy="1.00" r="0.02" />
</g>
</svg>