<svg xmlns="http://www.w3.org/2000/svg" width="104" height="104" viewBox="0 0 104 104">
<rect x="0" y="0" width="13" height="13" fill="rgb(170,0,255)"/>
<rect x="0" y="13" width="13" height="13" fill="rgb(170,170,255)"/>
<rect x="0" y="26" width="13" height="13" fill="rgb(255,85,170)"/>
<rect x="0" y="39" width="13" height="13" fill="rgb(255,170,170)"/>
<rect x="0" y="52" width="13" height="13" fill="rgb(85,170,0)"/>
<rect x="0" y="65" width="13" height="13" fill="rgb(0,0,255)"/>
<rect x="0" y="78" width="13" height="13" fill="rgb(85,255,255)"/>
<rect x="0" y="91" width="13" height="13" fill="rgb(255,255,170)"/>
<rect x="13" y="0" width="13" height="13" fill="rgb(0,0,85)"/>
<rect x="13" y="13" width="13" height="13" fill="rgb(85,85,85)"/>
<rect x="13" y="26" width="13" height="13" fill="rgb(0,85,85)"/>
<rect x="13" y="39" width="13" height="13" fill="rgb(85,170,255)"/>
<rect x="13" y="52" width="13" height="13" fill="rgb(0,255,0)"/>
<rect x="13" y="65" width="13" height="13" fill="rgb(85,0,0)"/>
<rect x="13" y="78" width="13" height="13" fill="rgb(255,170,255)"/>
<rect x="13" y="91" width="13" height="13" fill="rgb(255,0,85)"/>
<rect x="26" y="0" width="13" height="13" fill="rgb(170,85,170)"/>
<rect x="26" y="13" width="13" height="13" fill="rgb(170,255,0)"/>
<rect x="26" y="26" width="13" height="13" fill="rgb(85,255,85)"/>
<rect x="26" y="39" width="13" height="13" fill="rgb(170,255,170)"/>
<rect x="26" y="52" width="13" height="13" fill="rgb(170,170,0)"/>
<rect x="26" y="65" width="13" height="13" fill="rgb(0,170,85)"/>
<rect x="26" y="78" width="13" height="13" fill="rgb(255,170,0)"/>
<rect x="26" y="91" width="13" height="13" fill="rgb(0,255,85)"/>
<rect x="39" y="0" width="13" height="13" fill="rgb(170,255,255)"/>
<rect x="39" y="13" width="13" height="13" fill="rgb(0,170,255)"/>
<rect x="39" y="26" width="13" height="13" fill="rgb(0,85,255)"/>
<rect x="39" y="39" width="13" height="13" fill="rgb(255,85,255)"/>
<rect x="39" y="52" width="13" height="13" fill="rgb(0,85,0)"/>
<rect x="39" y="65" width="13" height="13" fill="rgb(85,85,170)"/>
<rect x="39" y="78" width="13" height="13" fill="rgb(170,0,0)"/>
<rect x="39" y="91" width="13" height="13" fill="rgb(85,0,255)"/>
<rect x="52" y="0" width="13" height="13" fill="rgb(85,85,0)"/>
<rect x="52" y="13" width="13" height="13" fill="rgb(170,255,85)"/>
<rect x="52" y="26" width="13" height="13" fill="rgb(85,170,85)"/>
<rect x="52" y="39" width="13" height="13" fill="rgb(0,0,0)"/>
<rect x="52" y="52" width="13" height="13" fill="rgb(255,0,170)"/>
<rect x="52" y="65" width="13" height="13" fill="rgb(0,255,170)"/>
<rect x="52" y="78" width="13" height="13" fill="rgb(170,170,170)"/>
<rect x="52" y="91" width="13" height="13" fill="rgb(255,255,0)"/>
<rect x="65" y="0" width="13" height="13" fill="rgb(170,0,85)"/>
<rect x="65" y="13" width="13" height="13" fill="rgb(255,85,0)"/>
<rect x="65" y="26" width="13" height="13" fill="rgb(0,170,0)"/>
<rect x="65" y="39" width="13" height="13" fill="rgb(0,255,255)"/>
<rect x="65" y="52" width="13" height="13" fill="rgb(255,255,255)"/>
<rect x="65" y="65" width="13" height="13" fill="rgb(0,85,170)"/>
<rect x="65" y="78" width="13" height="13" fill="rgb(255,0,255)"/>
<rect x="65" y="91" width="13" height="13" fill="rgb(170,0,170)"/>
<rect x="78" y="0" width="13" height="13" fill="rgb(85,255,0)"/>
<rect x="78" y="13" width="13" height="13" fill="rgb(170,85,255)"/>
<rect x="78" y="26" width="13" height="13" fill="rgb(85,170,170)"/>
<rect x="78" y="39" width="13" height="13" fill="rgb(0,0,170)"/>
<rect x="78" y="52" width="13" height="13" fill="rgb(255,85,85)"/>
<rect x="78" y="65" width="13" height="13" fill="rgb(170,85,85)"/>
<rect x="78" y="78" width="13" height="13" fill="rgb(85,255,170)"/>
<rect x="78" y="91" width="13" height="13" fill="rgb(85,0,170)"/>
<rect x="91" y="0" width="13" height="13" fill="rgb(0,170,170)"/>
<rect x="91" y="13" width="13" height="13" fill="rgb(170,85,0)"/>
<rect x="91" y="26" width="13" height="13" fill="rgb(85,0,85)"/>
<rect x="91" y="39" width="13" height="13" fill="rgb(255,255,85)"/>
<rect x="91" y="52" width="13" height="13" fill="rgb(170,170,85)"/>
<rect x="91" y="65" width="13" height="13" fill="rgb(85,85,255)"/>
<rect x="91" y="78" width="13" height="13" fill="rgb(255,170,85)"/>
<rect x="91" y="91" width="13" height="13" fill="rgb(255,0,0)"/>
</svg>