<svg xmlns="http://www.w3.org/2000/svg" width="96.5" height="100.0" viewBox="-49.638 -55.000 106.511 110.000">
<g fill="none" stroke="black" stroke-width="0.0096%" transform="translate(0, -0.0000) scale(51.8725, -51.8725)">
<polyline points="1.000,0.000 0.996,0.078 0.983,0.156 0.963,0.231 0.934,0.304 0.898,0.372 0.856,0.436 0.807,0.494 0.752,0.547 0.693,0.592 0.630,0.630 0.564,0.661 0.496,0.683 0.427,0.698 0.359,0.704 0.291,0.703 0.225,0.693 0.162,0.677 0.103,0.653 0.049,0.623 0.000,0.588 -0.043,0.547 -0.080,0.503 -0.109,0.455 -0.132,0.405 -0.146,0.354 -0.154,0.302 -0.154,0.251 -0.146,0.201 -0.132,0.154 -0.111,0.111 -0.083,0.071 -0.051,0.037 -0.013,0.008 0.028,-0.014 0.072,-0.030 0.119,-0.039 0.167,-0.040 0.215,-0.034 0.263,-0.021 0.309,-0.000 0.352,0.028 0.392,0.062 0.428,0.103 0.458,0.149 0.483,0.200 0.501,0.255 0.512,0.314 0.516,0.375 0.512,0.437 0.500,0.500 0.480,0.562 0.453,0.623 0.418,0.682 0.375,0.737 0.326,0.788 0.271,0.833 0.210,0.873 0.144,0.906 0.073,0.933 -0.000,0.951 -0.076,0.962 -0.153,0.964 -0.230,0.958 -0.307,0.944 -0.382,0.921 -0.454,0.891 -0.522,0.853 -0.587,0.807 -0.646,0.756 -0.698,0.698 -0.745,0.636 -0.784,0.569 -0.815,0.499 -0.838,0.427 -0.854,0.354 -0.861,0.280 -0.859,0.206 -0.850,0.135 -0.833,0.066 -0.809,-0.000 -0.778,-0.061 -0.741,-0.117 -0.698,-0.168 -0.651,-0.212 -0.600,-0.249 -0.546,-0.278 -0.490,-0.300 -0.433,-0.315 -0.377,-0.322 -0.321,-0.321 -0.267,-0.313 -0.216,-0.298 -0.169,-0.276 -0.127,-0.249 -0.089,-0.216 -0.058,-0.178 -0.033,-0.137 -0.015,-0.093 -0.004,-0.047 -0.000,0.000 -0.004,0.047 -0.015,0.093 -0.033,0.137 -0.058,0.178 -0.089,0.216 -0.127,0.249 -0.169,0.276 -0.216,0.298 -0.267,0.313 -0.321,0.321 -0.377,0.322 -0.433,0.315 -0.490,0.300 -0.546,0.278 -0.600,0.249 -0.651,0.212 -0.698,0.168 -0.741,0.117 -0.778,0.061 -0.809,-0.000 -0.833,-0.066 -0.850,-0.135 -0.859,-0.206 -0.861,-0.280 -0.854,-0.354 -0.838,-0.427 -0.815,-0.499 -0.784,-0.569 -0.745,-0.636 -0.698,-0.698 -0.646,-0.756 -0.587,-0.807 -0.522,-0.853 -0.454,-0.891 -0.382,-0.921 -0.307,-0.944 -0.230,-0.958 -0.153,-0.964 -0.076,-0.962 0.000,-0.951 0.073,-0.933 0.144,-0.906 0.210,-0.873 0.271,-0.833 0.326,-0.788 0.375,-0.737 0.418,-0.682 0.453,-0.623 0.480,-0.562 0.500,-0.500 0.512,-0.437 0.516,-0.375 0.512,-0.314 0.501,-0.255 0.483,-0.200 0.458,-0.149 0.428,-0.103 0.392,-0.062 0.352,-0.028 0.309,0.000 0.263,0.021 0.215,0.034 0.167,0.040 0.119,0.039 0.072,0.030 0.028,0.014 -0.013,-0.008 -0.051,-0.037 -0.083,-0.071 -0.111,-0.111 -0.132,-0.154 -0.146,-0.201 -0.154,-0.251 -0.154,-0.302 -0.146,-0.354 -0.132,-0.405 -0.109,-0.455 -0.080,-0.503 -0.043,-0.547 0.000,-0.588 0.049,-0.623 0.103,-0.653 0.162,-0.677 0.225,-0.693 0.291,-0.703 0.359,-0.704 0.427,-0.698 0.496,-0.683 0.564,-0.661 0.630,-0.630 0.693,-0.592 0.752,-0.547 0.807,-0.494 0.856,-0.436 0.898,-0.372 0.934,-0.304 0.963,-0.231 0.983,-0.156 0.996,-0.078 1.000,-0.000" />
</g>
</svg>