<svg xmlns="http://www.w3.org/2000/svg" width="107.8" height="100.0" viewBox="-58.883 -55.000 117.765 110.000">
<g fill="none" stroke="black" stroke-width="0.0093%" transform="translate(0, -0.0000) scale(53.8827, -53.8827)">
<polyline points="1.000,0.000 0.992,0.125 0.967,0.248 0.926,0.366 0.869,0.478 0.799,0.581 0.716,0.672 0.622,0.752 0.519,0.818 0.409,0.869 0.294,0.905 0.176,0.924 0.058,0.928 -0.058,0.916 -0.170,0.889 -0.275,0.847 -0.373,0.793 -0.461,0.727 -0.538,0.651 -0.603,0.566 -0.655,0.476 -0.692,0.381 -0.716,0.284 -0.727,0.187 -0.723,0.091 -0.707,-0.000 -0.679,-0.086 -0.641,-0.164 -0.593,-0.235 -0.537,-0.295 -0.476,-0.345 -0.410,-0.385 -0.342,-0.413 -0.273,-0.430 -0.205,-0.436 -0.140,-0.432 -0.080,-0.418 -0.025,-0.396 0.023,-0.367 0.063,-0.333 0.095,-0.294 0.119,-0.252 0.133,-0.210 0.139,-0.168 0.137,-0.128 0.127,-0.092 0.110,-0.060 0.087,-0.035 0.061,-0.016 0.031,-0.004 -0.000,-0.000 -0.031,-0.004 -0.061,-0.016 -0.087,-0.035 -0.110,-0.060 -0.127,-0.092 -0.137,-0.128 -0.139,-0.168 -0.133,-0.210 -0.119,-0.252 -0.095,-0.294 -0.063,-0.333 -0.023,-0.367 0.025,-0.396 0.080,-0.418 0.140,-0.432 0.205,-0.436 0.273,-0.430 0.342,-0.413 0.410,-0.385 0.476,-0.345 0.537,-0.295 0.593,-0.235 0.641,-0.164 0.679,-0.086 0.707,-0.000 0.723,0.091 0.727,0.187 0.716,0.284 0.692,0.381 0.655,0.476 0.603,0.566 0.538,0.651 0.461,0.727 0.373,0.793 0.275,0.847 0.170,0.889 0.058,0.916 -0.058,0.928 -0.176,0.924 -0.294,0.905 -0.409,0.869 -0.519,0.818 -0.622,0.752 -0.716,0.672 -0.799,0.581 -0.869,0.478 -0.926,0.366 -0.967,0.248 -0.992,0.125 -1.000,0.000 -0.992,-0.125 -0.967,-0.248 -0.926,-0.366 -0.869,-0.478 -0.799,-0.581 -0.716,-0.672 -0.622,-0.752 -0.519,-0.818 -0.409,-0.869 -0.294,-0.905 -0.176,-0.924 -0.058,-0.928 0.058,-0.916 0.170,-0.889 0.275,-0.847 0.373,-0.793 0.461,-0.727 0.538,-0.651 0.603,-0.566 0.655,-0.476 0.692,-0.381 0.716,-0.284 0.727,-0.187 0.723,-0.091 0.707,-0.000 0.679,0.086 0.641,0.164 0.593,0.235 0.537,0.295 0.476,0.345 0.410,0.385 0.342,0.413 0.273,0.430 0.205,0.436 0.140,0.432 0.080,0.418 0.025,0.396 -0.023,0.367 -0.063,0.333 -0.095,0.294 -0.119,0.252 -0.133,0.210 -0.139,0.168 -0.137,0.128 -0.127,0.092 -0.110,0.060 -0.087,0.035 -0.061,0.016 -0.031,0.004 -0.000,0.000 0.031,0.004 0.061,0.016 0.087,0.035 0.110,0.060 0.127,0.092 0.137,0.128 0.139,0.168 0.133,0.210 0.119,0.252 0.095,0.294 0.063,0.333 0.023,0.367 -0.025,0.396 -0.080,0.418 -0.140,0.432 -0.205,0.436 -0.273,0.430 -0.342,0.413 -0.410,0.385 -0.476,0.345 -0.537,0.295 -0.593,0.235 -0.641,0.164 -0.679,0.086 -0.707,0.000 -0.723,-0.091 -0.727,-0.187 -0.716,-0.284 -0.692,-0.381 -0.655,-0.476 -0.603,-0.566 -0.538,-0.651 -0.461,-0.727 -0.373,-0.793 -0.275,-0.847 -0.170,-0.889 -0.058,-0.916 0.058,-0.928 0.176,-0.924 0.294,-0.905 0.409,-0.869 0.519,-0.818 0.622,-0.752 0.716,-0.672 0.799,-0.581 0.869,-0.478 0.926,-0.366 0.967,-0.248 0.992,-0.125" />
</g>
</svg>