<svg xmlns="http://www.w3.org/2000/svg" width="99.0" height="100.0" viewBox="-53.525 -55.000 109.022 110.000">
<g fill="none" stroke="black" stroke-width="0.0099%" transform="translate(0, 0.0000) scale(50.4970, -50.4970)">
<polyline points="1.000,0.000 0.993,0.073 0.972,0.143 0.937,0.209 0.890,0.269 0.832,0.319 0.764,0.359 0.688,0.388 0.607,0.403 0.523,0.405 0.437,0.393 0.352,0.367 0.271,0.328 0.196,0.276 0.129,0.213 0.071,0.139 0.024,0.058 -0.010,-0.030 -0.031,-0.121 -0.039,-0.215 -0.032,-0.307 -0.012,-0.397 0.020,-0.481 0.065,-0.558 0.119,-0.626 0.183,-0.683 0.253,-0.728 0.328,-0.759 0.406,-0.777 0.484,-0.780 0.559,-0.769 0.630,-0.745 0.694,-0.709 0.750,-0.661 0.795,-0.603 0.828,-0.538 0.849,-0.467 0.855,-0.392 0.848,-0.315 0.827,-0.240 0.791,-0.168 0.743,-0.102 0.683,-0.043 0.613,0.006 0.534,0.045 0.448,0.071 0.358,0.084 0.266,0.083 0.174,0.069 0.085,0.041 0.000,0.000 -0.078,-0.053 -0.147,-0.116 -0.205,-0.189 -0.252,-0.268 -0.286,-0.353 -0.306,-0.440 -0.312,-0.528 -0.304,-0.613 -0.283,-0.695 -0.250,-0.769 -0.205,-0.836 -0.151,-0.892 -0.089,-0.937 -0.020,-0.968 0.052,-0.986 0.125,-0.990 0.198,-0.980 0.267,-0.956 0.331,-0.918 0.387,-0.869 0.434,-0.809 0.470,-0.740 0.493,-0.664 0.503,-0.583 0.500,-0.500 0.483,-0.417 0.451,-0.335 0.407,-0.258 0.350,-0.188 0.282,-0.126 0.205,-0.074 0.121,-0.034 0.031,-0.006 -0.062,0.008 -0.156,0.008 -0.249,-0.005 -0.337,-0.032 -0.420,-0.071 -0.494,-0.121 -0.559,-0.182 -0.612,-0.250 -0.653,-0.324 -0.680,-0.402 -0.693,-0.482 -0.692,-0.561 -0.678,-0.636 -0.650,-0.707 -0.610,-0.770 -0.560,-0.823 -0.500,-0.866 -0.433,-0.896 -0.362,-0.913 -0.287,-0.916 -0.212,-0.905 -0.139,-0.880 -0.071,-0.841 -0.008,-0.790 0.046,-0.728 0.090,-0.655 0.122,-0.575 0.142,-0.489 0.148,-0.399 0.141,-0.308 0.120,-0.218 0.085,-0.131 0.038,-0.050 -0.021,0.024 -0.090,0.088 -0.167,0.141 -0.250,0.182 -0.338,0.209 -0.427,0.223 -0.516,0.223 -0.602,0.210 -0.683,0.183 -0.757,0.144 -0.822,0.095 -0.876,0.037 -0.917,-0.029 -0.946,-0.099 -0.960,-0.173 -0.961,-0.247 -0.947,-0.319 -0.920,-0.387 -0.880,-0.448 -0.828,-0.502 -0.767,-0.545 -0.697,-0.577 -0.621,-0.596 -0.541,-0.601 -0.460,-0.593 -0.379,-0.570 -0.301,-0.534 -0.228,-0.485 -0.163,-0.424 -0.106,-0.352 -0.061,-0.272 -0.027,-0.185 -0.007,-0.094 -0.000,0.000 -0.007,0.094 -0.027,0.185 -0.061,0.272 -0.106,0.352 -0.163,0.424 -0.228,0.485 -0.301,0.534 -0.379,0.570 -0.460,0.593 -0.541,0.601 -0.621,0.596 -0.697,0.577 -0.767,0.545 -0.828,0.502 -0.880,0.448 -0.920,0.387 -0.947,0.319 -0.961,0.247 -0.960,0.173 -0.946,0.099 -0.917,0.029 -0.876,-0.037 -0.822,-0.095 -0.757,-0.144 -0.683,-0.183 -0.602,-0.210 -0.516,-0.223 -0.427,-0.223 -0.338,-0.209 -0.250,-0.182 -0.167,-0.141 -0.090,-0.088 -0.021,-0.024 0.038,0.050 0.085,0.131 0.120,0.218 0.141,0.308 0.148,0.399 0.142,0.489 0.122,0.575 0.090,0.655 0.046,0.728 -0.008,0.790 -0.071,0.841 -0.139,0.880 -0.212,0.905 -0.287,0.916 -0.362,0.913 -0.433,0.896 -0.500,0.866 -0.560,0.823 -0.610,0.770 -0.650,0.707 -0.678,0.636 -0.692,0.561 -0.693,0.482 -0.680,0.402 -0.653,0.324 -0.612,0.250 -0.559,0.182 -0.494,0.121 -0.420,0.071 -0.337,0.032 -0.249,0.005 -0.156,-0.008 -0.062,-0.008 0.031,0.006 0.121,0.034 0.205,0.074 0.282,0.126 0.350,0.188 0.407,0.258 0.451,0.335 0.483,0.417 0.500,0.500 0.503,0.583 0.493,0.664 0.470,0.740 0.434,0.809 0.387,0.869 0.331,0.918 0.267,0.956 0.198,0.980 0.125,0.990 0.052,0.986 -0.020,0.968 -0.089,0.937 -0.151,0.892 -0.205,0.836 -0.250,0.769 -0.283,0.695 -0.304,0.613 -0.312,0.528 -0.306,0.440 -0.286,0.353 -0.252,0.268 -0.205,0.189 -0.147,0.116 -0.078,0.053 0.000,-0.000 0.085,-0.041 0.174,-0.069 0.266,-0.083 0.358,-0.084 0.448,-0.071 0.534,-0.045 0.613,-0.006 0.683,0.043 0.743,0.102 0.791,0.168 0.827,0.240 0.848,0.315 0.855,0.392 0.849,0.467 0.828,0.538 0.795,0.603 0.750,0.661 0.694,0.709 0.630,0.745 0.559,0.769 0.484,0.780 0.406,0.777 0.328,0.759 0.253,0.728 0.183,0.683 0.119,0.626 0.065,0.558 0.020,0.481 -0.012,0.397 -0.032,0.307 -0.039,0.215 -0.031,0.121 -0.010,0.030 0.024,-0.058 0.071,-0.139 0.129,-0.213 0.196,-0.276 0.271,-0.328 0.352,-0.367 0.437,-0.393 0.523,-0.405 0.607,-0.403 0.688,-0.388 0.764,-0.359 0.832,-0.319 0.890,-0.269 0.937,-0.209 0.972,-0.143 0.993,-0.073 1.000,0.000" />
</g>
</svg>