<svg xmlns="http://www.w3.org/2000/svg" width="100.0" height="100.0" viewBox="-55.000 -55.000 110.000 110.000">
<g fill="none" stroke="black" stroke-width="0.0100%" transform="translate(0, 0.0000) scale(50.0000, -50.0000)">
<polyline points="1.000,0.000 0.990,0.062 0.961,0.121 0.913,0.174 0.849,0.218 0.769,0.250 0.678,0.268 0.577,0.271 0.470,0.258 0.359,0.228 0.250,0.182 0.144,0.119 0.046,0.043 -0.043,-0.046 -0.119,-0.144 -0.182,-0.250 -0.228,-0.359 -0.258,-0.470 -0.271,-0.577 -0.268,-0.678 -0.250,-0.769 -0.218,-0.849 -0.174,-0.913 -0.121,-0.961 -0.062,-0.990 0.000,-1.000 0.062,-0.990 0.121,-0.961 0.174,-0.913 0.218,-0.849 0.250,-0.769 0.268,-0.678 0.271,-0.577 0.258,-0.470 0.228,-0.359 0.182,-0.250 0.119,-0.144 0.043,-0.046 -0.046,0.043 -0.144,0.119 -0.250,0.182 -0.359,0.228 -0.470,0.258 -0.577,0.271 -0.678,0.268 -0.769,0.250 -0.849,0.218 -0.913,0.174 -0.961,0.121 -0.990,0.062 -1.000,-0.000 -0.990,-0.062 -0.961,-0.121 -0.913,-0.174 -0.849,-0.218 -0.769,-0.250 -0.678,-0.268 -0.577,-0.271 -0.470,-0.258 -0.359,-0.228 -0.250,-0.182 -0.144,-0.119 -0.046,-0.043 0.043,0.046 0.119,0.144 0.182,0.250 0.228,0.359 0.258,0.470 0.271,0.577 0.268,0.678 0.250,0.769 0.218,0.849 0.174,0.913 0.121,0.961 0.062,0.990 0.000,1.000 -0.062,0.990 -0.121,0.961 -0.174,0.913 -0.218,0.849 -0.250,0.769 -0.268,0.678 -0.271,0.577 -0.258,0.470 -0.228,0.359 -0.182,0.250 -0.119,0.144 -0.043,0.046 0.046,-0.043 0.144,-0.119 0.250,-0.182 0.359,-0.228 0.470,-0.258 0.577,-0.271 0.678,-0.268 0.769,-0.250 0.849,-0.218 0.913,-0.174 0.961,-0.121 0.990,-0.062" />
</g>
</svg>