<svg xmlns="http://www.w3.org/2000/svg" width="161.8" height="100.0" viewBox="-85.902 -4.999 171.803 110.000">
<g fill="none" stroke="black" stroke-width="0.0050%" transform="translate(0, 100.0012) scale(100.1245, -100.1245)">
<circle cx="0.000" cy="0.999" r="0.005" />
<polyline points="-0.808,0.000 -0.792,0.000 -0.776,0.000 -0.760,0.000 -0.743,0.000 -0.727,0.000 -0.711,0.000 -0.695,0.000 -0.679,0.000 -0.663,0.000 -0.646,0.000 -0.630,0.000 -0.614,0.000 -0.598,0.000 -0.582,0.000 -0.566,0.000 -0.549,0.000 -0.533,0.000 -0.517,0.000 -0.501,0.001 -0.485,0.001 -0.469,0.001 -0.452,0.001 -0.436,0.001 -0.420,0.002 -0.404,0.002 -0.388,0.003 -0.372,0.004 -0.356,0.004 -0.339,0.006 -0.323,0.007 -0.307,0.009 -0.291,0.011 -0.275,0.013 -0.259,0.016 -0.242,0.020 -0.226,0.025 -0.210,0.030 -0.194,0.037 -0.178,0.044 -0.162,0.054 -0.145,0.064 -0.129,0.077 -0.113,0.091 -0.097,0.107 -0.081,0.126 -0.065,0.146 -0.048,0.169 -0.032,0.194 -0.016,0.221 0.000,0.250 0.016,0.281 0.032,0.313 0.048,0.347 0.065,0.382 0.081,0.417 0.097,0.452 0.113,0.488 0.129,0.523 0.145,0.557 0.162,0.591 0.178,0.623 0.194,0.654 0.210,0.683 0.226,0.710 0.242,0.736 0.259,0.761 0.275,0.783 0.291,0.804 0.307,0.823 0.323,0.841 0.339,0.857 0.356,0.871 0.372,0.884 0.388,0.897 0.404,0.907 0.420,0.917 0.436,0.926 0.452,0.934 0.469,0.941 0.485,0.948 0.501,0.953 0.517,0.958 0.533,0.963 0.549,0.967 0.566,0.971 0.582,0.974 0.598,0.977 0.614,0.979 0.630,0.982 0.646,0.984 0.663,0.986 0.679,0.987 0.695,0.989 0.711,0.990 0.727,0.991 0.743,0.992 0.760,0.993 0.776,0.994 0.792,0.994 0.808,0.995" />
<polyline points="-0.808,0.002 -0.792,0.003 -0.776,0.003 -0.760,0.004 -0.743,0.004 -0.727,0.004 -0.711,0.005 -0.695,0.006 -0.679,0.006 -0.663,0.007 -0.646,0.008 -0.630,0.009 -0.614,0.010 -0.598,0.012 -0.582,0.013 -0.566,0.015 -0.549,0.017 -0.533,0.019 -0.517,0.021 -0.501,0.024 -0.485,0.027 -0.469,0.030 -0.452,0.034 -0.436,0.038 -0.420,0.042 -0.404,0.047 -0.388,0.053 -0.372,0.060 -0.356,0.067 -0.339,0.074 -0.323,0.083 -0.307,0.093 -0.291,0.103 -0.275,0.115 -0.259,0.128 -0.242,0.142 -0.226,0.157 -0.210,0.174 -0.194,0.192 -0.178,0.211 -0.162,0.231 -0.145,0.254 -0.129,0.277 -0.113,0.302 -0.097,0.327 -0.081,0.354 -0.065,0.382 -0.048,0.411 -0.032,0.440 -0.016,0.470 0.000,0.500 0.016,0.530 0.032,0.560 0.048,0.589 0.065,0.618 0.081,0.646 0.097,0.673 0.113,0.698 0.129,0.723 0.145,0.746 0.162,0.769 0.178,0.789 0.194,0.808 0.210,0.826 0.226,0.843 0.242,0.858 0.259,0.872 0.275,0.885 0.291,0.897 0.307,0.907 0.323,0.917 0.339,0.926 0.356,0.933 0.372,0.940 0.388,0.947 0.404,0.953 0.420,0.958 0.436,0.962 0.452,0.966 0.469,0.970 0.485,0.973 0.501,0.976 0.517,0.979 0.533,0.981 0.549,0.983 0.566,0.985 0.582,0.987 0.598,0.988 0.614,0.990 0.630,0.991 0.646,0.992 0.663,0.993 0.679,0.994 0.695,0.994 0.711,0.995 0.727,0.996 0.743,0.996 0.760,0.996 0.776,0.997 0.792,0.997 0.808,0.998" />
<polyline points="-0.808,0.050 -0.792,0.053 -0.776,0.056 -0.760,0.060 -0.743,0.063 -0.727,0.067 -0.711,0.071 -0.695,0.076 -0.679,0.080 -0.663,0.085 -0.646,0.090 -0.630,0.096 -0.614,0.102 -0.598,0.108 -0.582,0.115 -0.566,0.122 -0.549,0.129 -0.533,0.137 -0.517,0.145 -0.501,0.154 -0.485,0.163 -0.469,0.173 -0.452,0.183 -0.436,0.194 -0.420,0.206 -0.404,0.218 -0.388,0.231 -0.372,0.244 -0.356,0.258 -0.339,0.273 -0.323,0.288 -0.307,0.305 -0.291,0.322 -0.275,0.339 -0.259,0.358 -0.242,0.377 -0.226,0.396 -0.210,0.417 -0.194,0.438 -0.178,0.459 -0.162,0.481 -0.145,0.503 -0.129,0.526 -0.113,0.549 -0.097,0.572 -0.081,0.595 -0.065,0.618 -0.048,0.641 -0.032,0.664 -0.016,0.686 0.000,0.707 0.016,0.728 0.032,0.748 0.048,0.767 0.065,0.786 0.081,0.804 0.097,0.820 0.113,0.836 0.129,0.850 0.145,0.864 0.162,0.877 0.178,0.888 0.194,0.899 0.210,0.909 0.226,0.918 0.242,0.926 0.259,0.934 0.275,0.941 0.291,0.947 0.307,0.952 0.323,0.958 0.339,0.962 0.356,0.966 0.372,0.970 0.388,0.973 0.404,0.976 0.420,0.979 0.436,0.981 0.452,0.983 0.469,0.985 0.485,0.987 0.501,0.988 0.517,0.989 0.533,0.991 0.549,0.992 0.566,0.993 0.582,0.993 0.598,0.994 0.614,0.995 0.630,0.995 0.646,0.996 0.663,0.996 0.679,0.997 0.695,0.997 0.711,0.997 0.727,0.998 0.743,0.998 0.760,0.998 0.776,0.998 0.792,0.999 0.808,0.999" />
</g>
</svg>