<svg xmlns="http://www.w3.org/2000/svg" width="161.8" height="100.0" viewBox="-53.541 -4.953 171.803 110.000">
<g fill="none" stroke="black" stroke-width="0.0050%" transform="translate(0, 100.0945) scale(100.0500, -100.0500)">
<polyline points="-0.485,0.000 -0.469,0.001 -0.453,0.001 -0.437,0.001 -0.420,0.002 -0.404,0.002 -0.388,0.003 -0.372,0.004 -0.356,0.005 -0.340,0.006 -0.323,0.008 -0.307,0.011 -0.291,0.014 -0.275,0.018 -0.259,0.024 -0.243,0.030 -0.226,0.039 -0.210,0.049 -0.194,0.062 -0.178,0.077 -0.162,0.095 -0.146,0.117 -0.129,0.141 -0.113,0.170 -0.097,0.201 -0.081,0.236 -0.065,0.274 -0.049,0.314 -0.032,0.356 -0.016,0.400 0.000,0.444 0.016,0.489 0.032,0.532 0.049,0.575 0.065,0.616 0.081,0.654 0.097,0.691 0.113,0.724 0.129,0.755 0.146,0.784 0.162,0.809 0.178,0.832 0.194,0.853 0.210,0.872 0.226,0.888 0.243,0.902 0.259,0.915 0.275,0.926 0.291,0.936 0.307,0.945 0.323,0.952 0.340,0.958 0.356,0.964 0.372,0.969 0.388,0.973 0.404,0.977 0.420,0.980 0.437,0.983 0.453,0.985 0.469,0.987 0.485,0.989 0.501,0.991 0.518,0.992 0.534,0.993 0.550,0.994 0.566,0.995 0.582,0.995 0.598,0.996 0.615,0.997 0.631,0.997 0.647,0.998 0.663,0.998 0.679,0.998 0.695,0.998 0.712,0.999 0.728,0.999 0.744,0.999 0.760,0.999 0.776,0.999 0.792,0.999 0.809,0.999 0.825,1.000 0.841,1.000 0.857,1.000 0.873,1.000 0.889,1.000 0.906,1.000 0.922,1.000 0.938,1.000 0.954,1.000 0.970,1.000 0.987,1.000 1.003,1.000 1.019,1.000 1.035,1.000 1.051,1.000 1.067,1.000 1.084,1.000 1.100,1.000 1.116,1.000 1.132,1.000" />
</g>
</svg>