<svg xmlns="http://www.w3.org/2000/svg" width="161.8" height="100.0" viewBox="-85.902 -4.950 171.803 110.000">
<g fill="none" stroke="black" stroke-width="0.0050%" transform="translate(0, 100.0992) scale(100.0744, -100.0744)">
<polyline points="-0.808,0.024 -0.792,0.027 -0.776,0.031 -0.760,0.034 -0.744,0.039 -0.728,0.043 -0.711,0.048 -0.695,0.054 -0.679,0.061 -0.663,0.068 -0.647,0.076 -0.631,0.085 -0.614,0.095 -0.598,0.106 -0.582,0.117 -0.566,0.130 -0.550,0.145 -0.534,0.160 -0.517,0.177 -0.501,0.195 -0.485,0.215 -0.469,0.236 -0.453,0.258 -0.437,0.281 -0.420,0.306 -0.404,0.332 -0.388,0.360 -0.372,0.388 -0.356,0.416 -0.340,0.446 -0.323,0.476 -0.307,0.506 -0.291,0.536 -0.275,0.565 -0.259,0.594 -0.243,0.623 -0.226,0.651 -0.210,0.678 -0.194,0.703 -0.178,0.728 -0.162,0.751 -0.146,0.773 -0.129,0.793 -0.113,0.812 -0.097,0.830 -0.081,0.846 -0.065,0.861 -0.049,0.875 -0.032,0.887 -0.016,0.899 0.000,0.909 0.016,0.919 0.032,0.927 0.049,0.935 0.065,0.942 0.081,0.948 0.097,0.954 0.113,0.959 0.129,0.963 0.146,0.967 0.162,0.971 0.178,0.974 0.194,0.977 0.210,0.979 0.226,0.982 0.243,0.984 0.259,0.986 0.275,0.987 0.291,0.989 0.307,0.990 0.323,0.991 0.340,0.992 0.356,0.993 0.372,0.994 0.388,0.994 0.404,0.995 0.420,0.996 0.437,0.996 0.453,0.997 0.469,0.997 0.485,0.997 0.501,0.998 0.517,0.998 0.534,0.998 0.550,0.998 0.566,0.999 0.582,0.999 0.598,0.999 0.614,0.999 0.631,0.999 0.647,0.999 0.663,0.999 0.679,0.999 0.695,0.999 0.711,0.999 0.728,1.000 0.744,1.000 0.760,1.000 0.776,1.000 0.792,1.000 0.808,1.000" />
<polyline points="-0.808,0.005 -0.792,0.006 -0.776,0.006 -0.760,0.007 -0.744,0.008 -0.728,0.009 -0.711,0.010 -0.695,0.011 -0.679,0.013 -0.663,0.014 -0.647,0.016 -0.631,0.018 -0.614,0.020 -0.598,0.023 -0.582,0.026 -0.566,0.029 -0.550,0.033 -0.534,0.037 -0.517,0.041 -0.501,0.046 -0.485,0.052 -0.469,0.058 -0.453,0.065 -0.437,0.073 -0.420,0.081 -0.404,0.091 -0.388,0.101 -0.372,0.112 -0.356,0.125 -0.340,0.139 -0.323,0.154 -0.307,0.170 -0.291,0.187 -0.275,0.206 -0.259,0.227 -0.243,0.248 -0.226,0.272 -0.210,0.296 -0.194,0.322 -0.178,0.348 -0.162,0.376 -0.146,0.404 -0.129,0.434 -0.113,0.463 -0.097,0.493 -0.081,0.523 -0.065,0.553 -0.049,0.583 -0.032,0.611 -0.016,0.639 0.000,0.667 0.016,0.693 0.032,0.718 0.049,0.741 0.065,0.764 0.081,0.785 0.097,0.804 0.113,0.822 0.129,0.839 0.146,0.855 0.162,0.869 0.178,0.882 0.194,0.894 0.210,0.905 0.226,0.915 0.243,0.924 0.259,0.932 0.275,0.939 0.291,0.945 0.307,0.951 0.323,0.957 0.340,0.961 0.356,0.966 0.372,0.969 0.388,0.973 0.404,0.976 0.420,0.978 0.437,0.981 0.453,0.983 0.469,0.985 0.485,0.987 0.501,0.988 0.517,0.989 0.534,0.991 0.550,0.992 0.566,0.993 0.582,0.993 0.598,0.994 0.614,0.995 0.631,0.995 0.647,0.996 0.663,0.996 0.679,0.997 0.695,0.997 0.711,0.997 0.728,0.998 0.744,0.998 0.760,0.998 0.776,0.998 0.792,0.999 0.808,0.999" />
<polyline points="-0.808,0.002 -0.792,0.003 -0.776,0.003 -0.760,0.004 -0.744,0.004 -0.728,0.004 -0.711,0.005 -0.695,0.006 -0.679,0.006 -0.663,0.007 -0.647,0.008 -0.631,0.009 -0.614,0.010 -0.598,0.012 -0.582,0.013 -0.566,0.015 -0.550,0.017 -0.534,0.019 -0.517,0.021 -0.501,0.024 -0.485,0.027 -0.469,0.030 -0.453,0.034 -0.437,0.038 -0.420,0.042 -0.404,0.047 -0.388,0.053 -0.372,0.060 -0.356,0.067 -0.340,0.074 -0.323,0.083 -0.307,0.093 -0.291,0.103 -0.275,0.115 -0.259,0.128 -0.243,0.142 -0.226,0.157 -0.210,0.174 -0.194,0.192 -0.178,0.211 -0.162,0.231 -0.146,0.254 -0.129,0.277 -0.113,0.302 -0.097,0.327 -0.081,0.354 -0.065,0.382 -0.049,0.411 -0.032,0.440 -0.016,0.470 0.000,0.500 0.016,0.530 0.032,0.560 0.049,0.589 0.065,0.618 0.081,0.646 0.097,0.673 0.113,0.698 0.129,0.723 0.146,0.746 0.162,0.769 0.178,0.789 0.194,0.808 0.210,0.826 0.226,0.843 0.243,0.858 0.259,0.872 0.275,0.885 0.291,0.897 0.307,0.907 0.323,0.917 0.340,0.926 0.356,0.933 0.372,0.940 0.388,0.947 0.404,0.953 0.420,0.958 0.437,0.962 0.453,0.966 0.469,0.970 0.485,0.973 0.501,0.976 0.517,0.979 0.534,0.981 0.550,0.983 0.566,0.985 0.582,0.987 0.598,0.988 0.614,0.990 0.631,0.991 0.647,0.992 0.663,0.993 0.679,0.994 0.695,0.994 0.711,0.995 0.728,0.996 0.744,0.996 0.760,0.996 0.776,0.997 0.792,0.997 0.808,0.998" />
<polyline points="-0.808,0.001 -0.792,0.001 -0.776,0.002 -0.760,0.002 -0.744,0.002 -0.728,0.002 -0.711,0.003 -0.695,0.003 -0.679,0.003 -0.663,0.004 -0.647,0.004 -0.631,0.005 -0.614,0.005 -0.598,0.006 -0.582,0.007 -0.566,0.007 -0.550,0.008 -0.534,0.009 -0.517,0.011 -0.501,0.012 -0.485,0.013 -0.469,0.015 -0.453,0.017 -0.437,0.019 -0.420,0.022 -0.404,0.024 -0.388,0.027 -0.372,0.031 -0.356,0.034 -0.340,0.039 -0.323,0.043 -0.307,0.049 -0.291,0.055 -0.275,0.061 -0.259,0.068 -0.243,0.076 -0.226,0.085 -0.210,0.095 -0.194,0.106 -0.178,0.118 -0.162,0.131 -0.146,0.145 -0.129,0.161 -0.113,0.178 -0.097,0.196 -0.081,0.215 -0.065,0.236 -0.049,0.259 -0.032,0.282 -0.016,0.307 0.000,0.333 0.016,0.361 0.032,0.389 0.049,0.417 0.065,0.447 0.081,0.477 0.097,0.507 0.113,0.537 0.129,0.566 0.146,0.596 0.162,0.624 0.178,0.652 0.194,0.678 0.210,0.704 0.226,0.728 0.243,0.752 0.259,0.773 0.275,0.794 0.291,0.813 0.307,0.830 0.323,0.846 0.340,0.861 0.356,0.875 0.372,0.888 0.388,0.899 0.404,0.909 0.420,0.919 0.437,0.927 0.453,0.935 0.469,0.942 0.485,0.948 0.501,0.954 0.517,0.959 0.534,0.963 0.550,0.967 0.566,0.971 0.582,0.974 0.598,0.977 0.614,0.980 0.631,0.982 0.647,0.984 0.663,0.986 0.679,0.987 0.695,0.989 0.711,0.990 0.728,0.991 0.744,0.992 0.760,0.993 0.776,0.994 0.792,0.994 0.808,0.995" />
<polyline points="-0.808,0.000 -0.792,0.001 -0.776,0.001 -0.760,0.001 -0.744,0.001 -0.728,0.001 -0.711,0.001 -0.695,0.001 -0.679,0.001 -0.663,0.001 -0.647,0.002 -0.631,0.002 -0.614,0.002 -0.598,0.002 -0.582,0.003 -0.566,0.003 -0.550,0.003 -0.534,0.004 -0.517,0.004 -0.501,0.005 -0.485,0.005 -0.469,0.006 -0.453,0.007 -0.437,0.008 -0.420,0.009 -0.404,0.010 -0.388,0.011 -0.372,0.013 -0.356,0.014 -0.340,0.016 -0.323,0.018 -0.307,0.020 -0.291,0.023 -0.275,0.025 -0.259,0.028 -0.243,0.032 -0.226,0.036 -0.210,0.040 -0.194,0.045 -0.178,0.051 -0.162,0.057 -0.146,0.064 -0.129,0.071 -0.113,0.079 -0.097,0.089 -0.081,0.099 -0.065,0.110 -0.049,0.122 -0.032,0.136 -0.016,0.151 0.000,0.167 0.016,0.184 0.032,0.203 0.049,0.223 0.065,0.244 0.081,0.267 0.097,0.291 0.113,0.317 0.129,0.343 0.146,0.371 0.162,0.399 0.178,0.428 0.194,0.458 0.210,0.488 0.226,0.518 0.243,0.547 0.259,0.577 0.275,0.606 0.291,0.634 0.307,0.662 0.323,0.688 0.340,0.713 0.356,0.737 0.372,0.760 0.388,0.781 0.404,0.801 0.420,0.819 0.437,0.836 0.453,0.852 0.469,0.867 0.485,0.880 0.501,0.892 0.517,0.903 0.534,0.913 0.550,0.922 0.566,0.930 0.582,0.938 0.598,0.944 0.614,0.950 0.631,0.956 0.647,0.960 0.663,0.965 0.679,0.969 0.695,0.972 0.711,0.975 0.728,0.978 0.744,0.980 0.760,0.983 0.776,0.984 0.792,0.986 0.808,0.988" />
</g>
</svg>