<svg xmlns="http://www.w3.org/2000/svg" width="161.8" height="100.0" viewBox="-85.902 -5.000 171.803 110.000">
<g fill="none" stroke="black" stroke-width="0.0050%" transform="translate(0, 100.0000) scale(100.0000, -100.0000)">
<circle cx="0.000" cy="1.000" r="0.005" />
<polyline points="-0.809,0.354 -0.793,0.357 -0.777,0.360 -0.760,0.363 -0.744,0.365 -0.728,0.368 -0.712,0.371 -0.696,0.374 -0.680,0.377 -0.663,0.379 -0.647,0.382 -0.631,0.385 -0.615,0.388 -0.599,0.391 -0.582,0.394 -0.566,0.397 -0.550,0.399 -0.534,0.402 -0.518,0.405 -0.502,0.408 -0.485,0.411 -0.469,0.414 -0.453,0.417 -0.437,0.420 -0.421,0.423 -0.405,0.426 -0.388,0.428 -0.372,0.431 -0.356,0.434 -0.340,0.437 -0.324,0.440 -0.307,0.443 -0.291,0.446 -0.275,0.449 -0.259,0.452 -0.243,0.455 -0.227,0.458 -0.210,0.461 -0.194,0.464 -0.178,0.467 -0.162,0.470 -0.146,0.473 -0.129,0.476 -0.113,0.479 -0.097,0.482 -0.081,0.485 -0.065,0.488 -0.049,0.491 -0.032,0.494 -0.016,0.497 0.000,0.500 0.016,0.503 0.032,0.506 0.049,0.509 0.065,0.512 0.081,0.515 0.097,0.518 0.113,0.521 0.129,0.524 0.146,0.527 0.162,0.530 0.178,0.533 0.194,0.536 0.210,0.539 0.227,0.542 0.243,0.545 0.259,0.548 0.275,0.551 0.291,0.554 0.307,0.557 0.324,0.560 0.340,0.563 0.356,0.566 0.372,0.569 0.388,0.572 0.405,0.574 0.421,0.577 0.437,0.580 0.453,0.583 0.469,0.586 0.485,0.589 0.502,0.592 0.518,0.595 0.534,0.598 0.550,0.601 0.566,0.603 0.582,0.606 0.599,0.609 0.615,0.612 0.631,0.615 0.647,0.618 0.663,0.621 0.680,0.623 0.696,0.626 0.712,0.629 0.728,0.632 0.744,0.635 0.760,0.637 0.777,0.640 0.793,0.643 0.809,0.646" />
<polyline points="-0.809,0.047 -0.793,0.050 -0.777,0.053 -0.760,0.056 -0.744,0.060 -0.728,0.063 -0.712,0.067 -0.696,0.070 -0.680,0.074 -0.663,0.079 -0.647,0.083 -0.631,0.088 -0.615,0.093 -0.599,0.098 -0.582,0.103 -0.566,0.109 -0.550,0.115 -0.534,0.121 -0.518,0.128 -0.502,0.135 -0.485,0.142 -0.469,0.149 -0.453,0.157 -0.437,0.165 -0.421,0.174 -0.405,0.182 -0.388,0.192 -0.372,0.201 -0.356,0.211 -0.340,0.221 -0.324,0.231 -0.307,0.242 -0.291,0.254 -0.275,0.265 -0.259,0.277 -0.243,0.289 -0.227,0.302 -0.210,0.314 -0.194,0.327 -0.178,0.341 -0.162,0.354 -0.146,0.368 -0.129,0.382 -0.113,0.397 -0.097,0.411 -0.081,0.426 -0.065,0.440 -0.049,0.455 -0.032,0.470 -0.016,0.485 0.000,0.500 0.016,0.515 0.032,0.530 0.049,0.545 0.065,0.560 0.081,0.574 0.097,0.589 0.113,0.603 0.129,0.618 0.146,0.632 0.162,0.646 0.178,0.659 0.194,0.673 0.210,0.686 0.227,0.698 0.243,0.711 0.259,0.723 0.275,0.735 0.291,0.746 0.307,0.758 0.324,0.769 0.340,0.779 0.356,0.789 0.372,0.799 0.388,0.808 0.405,0.818 0.421,0.826 0.437,0.835 0.453,0.843 0.469,0.851 0.485,0.858 0.502,0.865 0.518,0.872 0.534,0.879 0.550,0.885 0.566,0.891 0.582,0.897 0.599,0.902 0.615,0.907 0.631,0.912 0.647,0.917 0.663,0.921 0.680,0.926 0.696,0.930 0.712,0.933 0.728,0.937 0.744,0.940 0.760,0.944 0.777,0.947 0.793,0.950 0.809,0.953" />
<polyline points="-0.809,0.002 -0.793,0.003 -0.777,0.003 -0.760,0.004 -0.744,0.004 -0.728,0.004 -0.712,0.005 -0.696,0.006 -0.680,0.006 -0.663,0.007 -0.647,0.008 -0.631,0.009 -0.615,0.010 -0.599,0.012 -0.582,0.013 -0.566,0.015 -0.550,0.017 -0.534,0.019 -0.518,0.021 -0.502,0.024 -0.485,0.027 -0.469,0.030 -0.453,0.034 -0.437,0.038 -0.421,0.042 -0.405,0.047 -0.388,0.053 -0.372,0.060 -0.356,0.067 -0.340,0.074 -0.324,0.083 -0.307,0.093 -0.291,0.103 -0.275,0.115 -0.259,0.128 -0.243,0.142 -0.227,0.157 -0.210,0.174 -0.194,0.192 -0.178,0.211 -0.162,0.231 -0.146,0.254 -0.129,0.277 -0.113,0.302 -0.097,0.327 -0.081,0.354 -0.065,0.382 -0.049,0.411 -0.032,0.440 -0.016,0.470 0.000,0.500 0.016,0.530 0.032,0.560 0.049,0.589 0.065,0.618 0.081,0.646 0.097,0.673 0.113,0.698 0.129,0.723 0.146,0.746 0.162,0.769 0.178,0.789 0.194,0.808 0.210,0.826 0.227,0.843 0.243,0.858 0.259,0.872 0.275,0.885 0.291,0.897 0.307,0.907 0.324,0.917 0.340,0.926 0.356,0.933 0.372,0.940 0.388,0.947 0.405,0.953 0.421,0.958 0.437,0.962 0.453,0.966 0.469,0.970 0.485,0.973 0.502,0.976 0.518,0.979 0.534,0.981 0.550,0.983 0.566,0.985 0.582,0.987 0.599,0.988 0.615,0.990 0.631,0.991 0.647,0.992 0.663,0.993 0.680,0.994 0.696,0.994 0.712,0.995 0.728,0.996 0.744,0.996 0.760,0.996 0.777,0.997 0.793,0.997 0.809,0.998" />
<polyline points="-0.809,0.000 -0.793,0.000 -0.777,0.000 -0.760,0.000 -0.744,0.000 -0.728,0.000 -0.712,0.000 -0.696,0.000 -0.680,0.000 -0.663,0.000 -0.647,0.000 -0.631,0.000 -0.615,0.000 -0.599,0.000 -0.582,0.000 -0.566,0.000 -0.550,0.000 -0.534,0.000 -0.518,0.000 -0.502,0.001 -0.485,0.001 -0.469,0.001 -0.453,0.001 -0.437,0.002 -0.421,0.002 -0.405,0.002 -0.388,0.003 -0.372,0.004 -0.356,0.005 -0.340,0.006 -0.324,0.008 -0.307,0.010 -0.291,0.013 -0.275,0.017 -0.259,0.021 -0.243,0.027 -0.227,0.034 -0.210,0.042 -0.194,0.053 -0.178,0.067 -0.162,0.083 -0.146,0.103 -0.129,0.128 -0.113,0.157 -0.097,0.192 -0.081,0.231 -0.065,0.277 -0.049,0.327 -0.032,0.382 -0.016,0.440 0.000,0.500 0.016,0.560 0.032,0.618 0.049,0.673 0.065,0.723 0.081,0.769 0.097,0.808 0.113,0.843 0.129,0.872 0.146,0.897 0.162,0.917 0.178,0.933 0.194,0.947 0.210,0.958 0.227,0.966 0.243,0.973 0.259,0.979 0.275,0.983 0.291,0.987 0.307,0.990 0.324,0.992 0.340,0.994 0.356,0.995 0.372,0.996 0.388,0.997 0.405,0.998 0.421,0.998 0.437,0.998 0.453,0.999 0.469,0.999 0.485,0.999 0.502,0.999 0.518,1.000 0.534,1.000 0.550,1.000 0.566,1.000 0.582,1.000 0.599,1.000 0.615,1.000 0.631,1.000 0.647,1.000 0.663,1.000 0.680,1.000 0.696,1.000 0.712,1.000 0.728,1.000 0.744,1.000 0.760,1.000 0.777,1.000 0.793,1.000 0.809,1.000" />
<polyline points="-0.809,0.000 -0.793,0.000 -0.777,0.000 -0.760,0.000 -0.744,0.000 -0.728,0.000 -0.712,0.000 -0.696,0.000 -0.680,0.000 -0.663,0.000 -0.647,0.000 -0.631,0.000 -0.615,0.000 -0.599,0.000 -0.582,0.000 -0.566,0.000 -0.550,0.000 -0.534,0.000 -0.518,0.000 -0.502,0.000 -0.485,0.000 -0.469,0.000 -0.453,0.000 -0.437,0.000 -0.421,0.000 -0.405,0.000 -0.388,0.000 -0.372,0.000 -0.356,0.000 -0.340,0.000 -0.324,0.000 -0.307,0.000 -0.291,0.000 -0.275,0.000 -0.259,0.000 -0.243,0.000 -0.227,0.000 -0.210,0.000 -0.194,0.001 -0.178,0.001 -0.162,0.002 -0.146,0.004 -0.129,0.008 -0.113,0.015 -0.097,0.027 -0.081,0.047 -0.065,0.083 -0.049,0.142 -0.032,0.231 -0.016,0.354 0.000,0.500 0.016,0.646 0.032,0.769 0.049,0.858 0.065,0.917 0.081,0.953 0.097,0.973 0.113,0.985 0.129,0.992 0.146,0.996 0.162,0.998 0.178,0.999 0.194,0.999 0.210,1.000 0.227,1.000 0.243,1.000 0.259,1.000 0.275,1.000 0.291,1.000 0.307,1.000 0.324,1.000 0.340,1.000 0.356,1.000 0.372,1.000 0.388,1.000 0.405,1.000 0.421,1.000 0.437,1.000 0.453,1.000 0.469,1.000 0.485,1.000 0.502,1.000 0.518,1.000 0.534,1.000 0.550,1.000 0.566,1.000 0.582,1.000 0.599,1.000 0.615,1.000 0.631,1.000 0.647,1.000 0.663,1.000 0.680,1.000 0.696,1.000 0.712,1.000 0.728,1.000 0.744,1.000 0.760,1.000 0.777,1.000 0.793,1.000 0.809,1.000" />
</g>
</svg>