<svg xmlns="http://www.w3.org/2000/svg" width="161.8" height="100.0" viewBox="-51.2295 165.9244 171.8034 110.0000">
<g fill="none" stroke="black" stroke-width="0.0015%" transform="translate(0, 441.8487) scale(343.8255, -343.8255)">
<polyline points="-0.1345,0.5739 -0.1298,0.5694 -0.1250,0.5651 -0.1203,0.5609 -0.1156,0.5568 -0.1109,0.5529 -0.1062,0.5492 -0.1015,0.5456 -0.0968,0.5421 -0.0921,0.5388 -0.0874,0.5357 -0.0827,0.5326 -0.0780,0.5297 -0.0733,0.5270 -0.0686,0.5243 -0.0639,0.5218 -0.0592,0.5194 -0.0545,0.5172 -0.0497,0.5151 -0.0450,0.5131 -0.0403,0.5112 -0.0356,0.5094 -0.0309,0.5078 -0.0262,0.5063 -0.0215,0.5049 -0.0168,0.5036 -0.0121,0.5025 -0.0074,0.5014 -0.0027,0.5005 0.0020,0.4997 0.0067,0.4990 0.0114,0.4984 0.0161,0.4979 0.0208,0.4975 0.0255,0.4973 0.0303,0.4971 0.0350,0.4971 0.0397,0.4972 0.0444,0.4974 0.0491,0.4977 0.0538,0.4982 0.0585,0.4987 0.0632,0.4993 0.0679,0.5001 0.0726,0.5010 0.0773,0.5020 0.0820,0.5031 0.0867,0.5043 0.0914,0.5057 0.0961,0.5071 0.1008,0.5087 0.1055,0.5104 0.1103,0.5123 0.1150,0.5142 0.1197,0.5163 0.1244,0.5185 0.1291,0.5208 0.1338,0.5232 0.1385,0.5258 0.1432,0.5285 0.1479,0.5314 0.1526,0.5343 0.1573,0.5375 0.1620,0.5407 0.1667,0.5441 0.1714,0.5476 0.1761,0.5513 0.1808,0.5551 0.1855,0.5591 0.1903,0.5633 0.1950,0.5675 0.1997,0.5720 0.2044,0.5766 0.2091,0.5814 0.2138,0.5863 0.2185,0.5914 0.2232,0.5967 0.2279,0.6022 0.2326,0.6078 0.2373,0.6137 0.2420,0.6197 0.2467,0.6259 0.2514,0.6323 0.2561,0.6389 0.2608,0.6458 0.2656,0.6528 0.2703,0.6601 0.2750,0.6676 0.2797,0.6753 0.2844,0.6832 0.2891,0.6914 0.2938,0.6998 0.2985,0.7085 0.3032,0.7175 0.3079,0.7267 0.3126,0.7362 0.3173,0.7459 0.3220,0.7560 0.3267,0.7664 0.3314,0.7770 0.3361,0.7880" />
</g>
</svg>