<svg xmlns="http://www.w3.org/2000/svg" width="161.8" height="100.0" viewBox="-5.000 -6.079 171.803 110.000">
<g fill="none" stroke="black" stroke-width="0.0062%" transform="translate(0, 97.8425) scale(80.5088, -80.5088)">
<polyline points="0.000,0.000 0.020,0.207 0.041,0.285 0.061,0.339 0.081,0.377 0.102,0.430 0.122,0.432 0.142,0.472 0.162,0.490 0.183,0.514 0.203,0.581 0.223,0.548 0.244,0.573 0.264,0.626 0.284,0.576 0.305,0.553 0.325,0.633 0.345,0.723 0.365,0.723 0.386,0.662 0.406,0.623 0.426,0.569 0.447,0.613 0.467,0.685 0.487,0.730 0.508,0.869 0.528,0.860 0.548,0.832 0.568,0.842 0.589,0.832 0.609,0.803 0.629,0.665 0.650,0.648 0.670,0.641 0.690,0.632 0.711,0.634 0.731,0.523 0.751,0.502 0.771,0.560 0.792,0.588 0.812,0.672 0.832,0.764 0.853,0.803 0.873,0.759 0.893,0.756 0.914,0.852 0.934,0.833 0.954,0.885 0.974,0.951 0.995,1.030 1.015,1.229 1.035,1.218 1.056,1.196 1.076,1.172 1.096,1.149 1.117,1.164 1.137,1.121 1.157,1.180 1.177,1.127 1.198,1.025 1.218,1.007 1.238,0.967 1.259,1.035 1.279,1.100 1.299,1.084 1.320,1.138 1.340,1.174 1.360,1.187 1.380,1.093 1.401,1.015 1.421,1.010 1.441,0.878 1.462,0.890 1.482,0.915 1.502,0.890 1.523,0.869 1.543,0.700 1.563,0.602 1.583,0.564 1.604,0.523 1.624,0.415 1.644,0.312 1.665,0.278 1.685,0.177 1.705,0.091 1.726,0.050 1.746,0.016 1.766,0.028 1.786,0.097 1.807,0.170 1.827,0.245 1.847,0.252 1.868,0.166 1.888,0.051 1.908,0.067 1.929,0.118 1.949,0.060 1.969,0.053 1.989,0.040 2.010,0.019" />
<polyline points="0.000,0.000 0.020,0.095 0.041,0.165 0.061,0.195 0.081,0.239 0.102,0.241 0.122,0.265 0.142,0.347 0.162,0.369 0.183,0.390 0.203,0.432 0.223,0.378 0.244,0.337 0.264,0.371 0.284,0.353 0.305,0.377 0.325,0.434 0.345,0.437 0.365,0.419 0.386,0.422 0.406,0.444 0.426,0.459 0.447,0.537 0.467,0.635 0.487,0.677 0.508,0.727 0.528,0.777 0.548,0.772 0.568,0.820 0.589,0.899 0.609,0.925 0.629,0.989 0.650,1.011 0.670,0.968 0.690,0.949 0.711,0.931 0.731,0.917 0.751,0.921 0.771,0.953 0.792,0.940 0.812,0.887 0.832,0.868 0.853,0.841 0.873,0.796 0.893,0.851 0.914,0.903 0.934,0.892 0.954,0.947 0.974,0.952 0.995,0.924 1.015,0.969 1.035,1.016 1.056,1.060 1.076,1.116 1.096,1.145 1.117,1.125 1.137,1.089 1.157,1.068 1.177,1.049 1.198,1.031 1.218,1.054 1.238,1.025 1.259,0.950 1.279,0.925 1.299,0.832 1.320,0.765 1.340,0.786 1.360,0.760 1.380,0.738 1.401,0.751 1.421,0.703 1.441,0.646 1.462,0.651 1.482,0.664 1.502,0.685 1.523,0.727 1.543,0.769 1.563,0.744 1.583,0.706 1.604,0.712 1.624,0.666 1.644,0.660 1.665,0.692 1.685,0.645 1.705,0.596 1.726,0.544 1.746,0.438 1.766,0.367 1.786,0.340 1.807,0.293 1.827,0.266 1.847,0.227 1.868,0.161 1.888,0.074 1.908,0.027 1.929,0.019 1.949,-0.013 1.969,0.026 1.989,0.056 2.010,0.003" />
<polyline points="0.000,0.000 0.020,0.073 0.041,0.104 0.061,0.167 0.081,0.176 0.102,0.197 0.122,0.195 0.142,0.183 0.162,0.216 0.183,0.210 0.203,0.250 0.223,0.303 0.244,0.345 0.264,0.422 0.284,0.454 0.305,0.523 0.325,0.544 0.345,0.547 0.365,0.573 0.386,0.548 0.406,0.556 0.426,0.553 0.447,0.570 0.467,0.621 0.487,0.639 0.508,0.717 0.528,0.763 0.548,0.798 0.568,0.841 0.589,0.836 0.609,0.858 0.629,0.826 0.650,0.818 0.670,0.826 0.690,0.805 0.711,0.840 0.731,0.859 0.751,0.902 0.771,0.950 0.792,0.968 0.812,1.028 0.832,1.015 0.853,1.016 0.873,1.007 0.893,0.968 0.914,0.960 0.934,0.923 0.954,0.938 0.974,0.952 0.995,0.957 1.015,1.015 1.035,1.025 1.056,1.054 1.076,1.057 1.096,1.041 1.117,1.039 1.137,0.975 1.157,0.960 1.177,0.926 1.198,0.893 1.218,0.899 1.238,0.888 1.259,0.923 1.279,0.929 1.299,0.939 1.320,0.968 1.340,0.927 1.360,0.916 1.380,0.865 1.401,0.818 1.421,0.778 1.441,0.718 1.462,0.722 1.482,0.695 1.502,0.695 1.523,0.717 1.543,0.707 1.563,0.723 1.583,0.689 1.604,0.670 1.624,0.635 1.644,0.556 1.665,0.526 1.685,0.457 1.705,0.422 1.726,0.395 1.746,0.374 1.766,0.395 1.786,0.372 1.807,0.383 1.827,0.379 1.847,0.332 1.868,0.306 1.888,0.230 1.908,0.187 1.929,0.118 1.949,0.058 1.969,0.048 1.989,0.002 2.010,0.005" />
</g>
</svg>