<svg xmlns="http://www.w3.org/2000/svg" width="161.8" height="100.0" viewBox="-51.6965 172.6204 171.8034 110.0000">
<g fill="none" stroke="black" stroke-width="0.0014%" transform="translate(0, 455.2408) scale(357.2950, -357.2950)">
<polyline points="-0.1307,0.5739 -0.1261,0.5694 -0.1215,0.5651 -0.1170,0.5609 -0.1124,0.5568 -0.1078,0.5529 -0.1032,0.5492 -0.0987,0.5456 -0.0941,0.5421 -0.0895,0.5388 -0.0850,0.5357 -0.0804,0.5326 -0.0758,0.5297 -0.0712,0.5270 -0.0667,0.5243 -0.0621,0.5218 -0.0575,0.5194 -0.0529,0.5172 -0.0484,0.5151 -0.0438,0.5131 -0.0392,0.5112 -0.0346,0.5094 -0.0301,0.5078 -0.0255,0.5063 -0.0209,0.5049 -0.0163,0.5036 -0.0118,0.5025 -0.0072,0.5014 -0.0026,0.5005 0.0020,0.4997 0.0065,0.4990 0.0111,0.4984 0.0157,0.4979 0.0203,0.4975 0.0248,0.4973 0.0294,0.4971 0.0340,0.4971 0.0386,0.4972 0.0431,0.4974 0.0477,0.4977 0.0523,0.4982 0.0569,0.4987 0.0614,0.4993 0.0660,0.5001 0.0706,0.5010 0.0751,0.5020 0.0797,0.5031 0.0843,0.5043 0.0889,0.5057 0.0934,0.5071 0.0980,0.5087 0.1026,0.5104 0.1072,0.5123 0.1117,0.5142 0.1163,0.5163 0.1209,0.5185 0.1255,0.5208 0.1300,0.5232 0.1346,0.5258 0.1392,0.5285 0.1438,0.5314 0.1483,0.5343 0.1529,0.5375 0.1575,0.5407 0.1621,0.5441 0.1666,0.5476 0.1712,0.5513 0.1758,0.5551 0.1804,0.5591 0.1849,0.5633 0.1895,0.5675 0.1941,0.5720 0.1987,0.5766 0.2032,0.5814 0.2078,0.5863 0.2124,0.5914 0.2170,0.5967 0.2215,0.6022 0.2261,0.6078 0.2307,0.6137 0.2353,0.6197 0.2398,0.6259 0.2444,0.6323 0.2490,0.6389 0.2535,0.6458 0.2581,0.6528 0.2627,0.6601 0.2673,0.6676 0.2718,0.6753 0.2764,0.6832 0.2810,0.6914 0.2856,0.6998 0.2901,0.7085 0.2947,0.7175 0.2993,0.7267 0.3039,0.7362 0.3084,0.7459 0.3130,0.7560 0.3176,0.7664 0.3222,0.7770" />
</g>
</svg>