<svg xmlns="http://www.w3.org/2000/svg" width="161.8" height="100.0" viewBox="-5.000 -5.000 171.803 110.000">
<g fill="none" stroke="black" stroke-width="0.0061%" transform="translate(0, 100.0000) scale(81.3868, -81.3868)">
<circle cx="0.000" cy="0.000" r="0.006" />
<circle cx="0.000" cy="1.229" r="0.006" />
<polyline points="0.000,0.000 0.020,0.207 0.040,0.285 0.060,0.339 0.080,0.377 0.100,0.430 0.120,0.432 0.141,0.472 0.161,0.490 0.181,0.514 0.201,0.581 0.221,0.548 0.241,0.573 0.261,0.626 0.281,0.576 0.301,0.553 0.321,0.633 0.341,0.723 0.361,0.723 0.382,0.662 0.402,0.623 0.422,0.569 0.442,0.613 0.462,0.685 0.482,0.730 0.502,0.869 0.522,0.860 0.542,0.832 0.562,0.842 0.582,0.832 0.602,0.803 0.623,0.665 0.643,0.648 0.663,0.641 0.683,0.632 0.703,0.634 0.723,0.523 0.743,0.502 0.763,0.560 0.783,0.588 0.803,0.672 0.823,0.764 0.843,0.803 0.864,0.759 0.884,0.756 0.904,0.852 0.924,0.833 0.944,0.885 0.964,0.951 0.984,1.030 1.004,1.229 1.024,1.218 1.044,1.196 1.064,1.172 1.084,1.149 1.104,1.164 1.125,1.121 1.145,1.180 1.165,1.127 1.185,1.025 1.205,1.007 1.225,0.967 1.245,1.035 1.265,1.100 1.285,1.084 1.305,1.138 1.325,1.174 1.345,1.187 1.366,1.093 1.386,1.015 1.406,1.010 1.426,0.878 1.446,0.890 1.466,0.915 1.486,0.890 1.506,0.869 1.526,0.700 1.546,0.602 1.566,0.564 1.586,0.523 1.607,0.415 1.627,0.312 1.647,0.278 1.667,0.177 1.687,0.091 1.707,0.050 1.727,0.016 1.747,0.028 1.767,0.097 1.787,0.170 1.807,0.245 1.827,0.252 1.848,0.166 1.868,0.051 1.888,0.067 1.908,0.118 1.928,0.060 1.948,0.053 1.968,0.040 1.988,0.019" />
</g>
</svg>