<svg xmlns="http://www.w3.org/2000/svg" width="161.8" height="100.0" viewBox="-5.000 -5.000 171.803 110.000">
<g fill="none" stroke="black" stroke-width="0.0061%" transform="translate(0, 100.0000) scale(81.3868, -81.3868)">
<polyline points="0.000,0.000 0.020,0.207 0.040,0.285 0.060,0.339 0.080,0.377 0.099,0.430 0.119,0.432 0.139,0.472 0.159,0.490 0.179,0.514 0.199,0.581 0.219,0.548 0.239,0.573 0.258,0.626 0.278,0.576 0.298,0.553 0.318,0.633 0.338,0.723 0.358,0.723 0.378,0.662 0.398,0.623 0.417,0.569 0.437,0.613 0.457,0.685 0.477,0.730 0.497,0.869 0.517,0.860 0.537,0.832 0.557,0.842 0.577,0.832 0.596,0.803 0.616,0.665 0.636,0.648 0.656,0.641 0.676,0.632 0.696,0.634 0.716,0.523 0.736,0.502 0.755,0.560 0.775,0.588 0.795,0.672 0.815,0.764 0.835,0.803 0.855,0.759 0.875,0.756 0.895,0.852 0.915,0.833 0.934,0.885 0.954,0.951 0.974,1.030 0.994,1.229 1.014,1.218 1.034,1.196 1.054,1.172 1.074,1.149 1.093,1.164 1.113,1.121 1.133,1.180 1.153,1.127 1.173,1.025 1.193,1.007 1.213,0.967 1.233,1.035 1.252,1.100 1.272,1.084 1.292,1.138 1.312,1.174 1.332,1.187 1.352,1.093 1.372,1.015 1.392,1.010 1.412,0.878 1.431,0.890 1.451,0.915 1.471,0.890 1.491,0.869 1.511,0.700 1.531,0.602 1.551,0.564 1.571,0.523 1.590,0.415 1.610,0.312 1.630,0.278 1.650,0.177 1.670,0.091 1.690,0.050 1.710,0.016 1.730,0.028 1.750,0.097 1.769,0.170 1.789,0.245 1.809,0.252 1.829,0.166 1.849,0.051 1.869,0.067 1.889,0.118 1.909,0.060 1.928,0.053 1.948,0.040 1.968,0.019 1.988,0.000" />
</g>
</svg>