<svg xmlns="http://www.w3.org/2000/svg" width="161.8" height="100.0" viewBox="-3.4 -5.0 171.8 110.0">
<g fill="none" stroke="black" stroke-width="0.2500%" transform="translate(0, 100.0000) scale(2.0000, -2.0000)">


<line x1="2.4" y1="0.0" x2="2.4" y2="1.0" />

<line x1="4.0" y1="0.0" x2="4.0" y2="2.0" />

<line x1="5.7" y1="0.0" x2="5.7" y2="3.0" />

<line x1="7.3" y1="0.0" x2="7.3" y2="4.0" />

<line x1="8.9" y1="0.0" x2="8.9" y2="5.0" />

<line x1="10.5" y1="0.0" x2="10.5" y2="6.0" />

<line x1="12.1" y1="0.0" x2="12.1" y2="7.0" />

<line x1="13.8" y1="0.0" x2="13.8" y2="8.0" />

<line x1="15.4" y1="0.0" x2="15.4" y2="9.0" />

<line x1="17.0" y1="0.0" x2="17.0" y2="10.0" />

<line x1="18.6" y1="0.0" x2="18.6" y2="11.0" />

<line x1="20.2" y1="0.0" x2="20.2" y2="12.0" />

<line x1="21.8" y1="0.0" x2="21.8" y2="13.0" />

<line x1="23.5" y1="0.0" x2="23.5" y2="14.0" />

<line x1="25.1" y1="0.0" x2="25.1" y2="15.0" />

<line x1="26.7" y1="0.0" x2="26.7" y2="16.0" />

<line x1="28.3" y1="0.0" x2="28.3" y2="17.0" />

<line x1="29.9" y1="0.0" x2="29.9" y2="18.0" />

<line x1="31.6" y1="0.0" x2="31.6" y2="19.0" />

<line x1="33.2" y1="0.0" x2="33.2" y2="20.0" />

<line x1="34.8" y1="0.0" x2="34.8" y2="21.0" />

<line x1="36.4" y1="0.0" x2="36.4" y2="22.0" />

<line x1="38.0" y1="0.0" x2="38.0" y2="23.0" />

<line x1="39.6" y1="0.0" x2="39.6" y2="24.0" />

<line x1="41.3" y1="0.0" x2="41.3" y2="25.0" />

<line x1="42.9" y1="0.0" x2="42.9" y2="26.0" />

<line x1="44.5" y1="0.0" x2="44.5" y2="27.0" />

<line x1="46.1" y1="0.0" x2="46.1" y2="28.0" />

<line x1="47.7" y1="0.0" x2="47.7" y2="29.0" />

<line x1="49.4" y1="0.0" x2="49.4" y2="30.0" />

<line x1="51.0" y1="0.0" x2="51.0" y2="31.0" />

<line x1="52.6" y1="0.0" x2="52.6" y2="32.0" />

<line x1="54.2" y1="0.0" x2="54.2" y2="33.0" />

<line x1="55.8" y1="0.0" x2="55.8" y2="34.0" />

<line x1="57.4" y1="0.0" x2="57.4" y2="35.0" />

<line x1="59.1" y1="0.0" x2="59.1" y2="36.0" />

<line x1="60.7" y1="0.0" x2="60.7" y2="37.0" />

<line x1="62.3" y1="0.0" x2="62.3" y2="38.0" />

<line x1="63.9" y1="0.0" x2="63.9" y2="39.0" />

<line x1="65.5" y1="0.0" x2="65.5" y2="40.0" />

<line x1="67.1" y1="0.0" x2="67.1" y2="41.0" />

<line x1="68.8" y1="0.0" x2="68.8" y2="42.0" />

<line x1="70.4" y1="0.0" x2="70.4" y2="43.0" />

<line x1="72.0" y1="0.0" x2="72.0" y2="44.0" />

<line x1="73.6" y1="0.0" x2="73.6" y2="45.0" />

<line x1="75.2" y1="0.0" x2="75.2" y2="46.0" />

<line x1="76.9" y1="0.0" x2="76.9" y2="47.0" />

<line x1="78.5" y1="0.0" x2="78.5" y2="48.0" />

<line x1="80.1" y1="0.0" x2="80.1" y2="49.0" />

<line x1="81.7" y1="0.0" x2="81.7" y2="50.0" />
</g>
</svg>