<?xml version="1.0" encoding="UTF-8" standalone="no"?>
<!DOCTYPE svg PUBLIC "-//W3C//DTD SVG 1.1//EN"
 "http://www.w3.org/Graphics/SVG/1.1/DTD/svg11.dtd">
<!-- Generated by graphviz version 12.0.0 (0)
 -->
<!-- Pages: 1 -->
<svg width="54pt" height="54pt"
 viewBox="0.00 0.00 53.72 54.00" xmlns="http://www.w3.org/2000/svg" xmlns:xlink="http://www.w3.org/1999/xlink">
<g id="graph0" class="graph" transform="scale(0.311423 0.311423) rotate(0) translate(4 169.4)">
<!-- 1 -->
<g id="node1" class="node">
<title>1</title>
<ellipse fill="black" stroke="black" cx="150.98" cy="-54.7" rx="1.8" ry="1.8"/>
</g>
<!-- 2 -->
<g id="node2" class="node">
<title>2</title>
<ellipse fill="black" stroke="black" cx="162.69" cy="-103.13" rx="1.8" ry="1.8"/>
</g>
<!-- 1&#45;&#45;2 -->
<g id="edge1" class="edge">
<title>1&#45;&#45;2</title>
<path fill="none" stroke="black" stroke-width="0.75" d="M151.48,-56.78C153.41,-64.74 160.3,-93.25 162.2,-101.11"/>
</g>
<!-- 3 -->
<g id="node3" class="node">
<title>3</title>
<ellipse fill="black" stroke="black" cx="129.85" cy="-140.71" rx="1.8" ry="1.8"/>
</g>
<!-- 1&#45;&#45;3 -->
<g id="edge2" class="edge">
<title>1&#45;&#45;3</title>
<path fill="none" stroke="black" stroke-width="0.75" d="M150.46,-56.82C147.53,-68.72 133.23,-126.95 130.36,-138.65"/>
</g>
<!-- 9 -->
<g id="node9" class="node">
<title>9</title>
<ellipse fill="black" stroke="black" cx="75.68" cy="-1.8" rx="1.8" ry="1.8"/>
</g>
<!-- 1&#45;&#45;9 -->
<g id="edge18" class="edge">
<title>1&#45;&#45;9</title>
<path fill="none" stroke="black" stroke-width="0.75" d="M149.12,-53.39C138.7,-46.07 87.72,-10.26 77.48,-3.06"/>
</g>
<!-- 10 -->
<g id="node10" class="node">
<title>10</title>
<ellipse fill="black" stroke="black" cx="126.16" cy="-14.88" rx="1.8" ry="1.8"/>
</g>
<!-- 1&#45;&#45;10 -->
<g id="edge19" class="edge">
<title>1&#45;&#45;10</title>
<path fill="none" stroke="black" stroke-width="0.75" d="M149.91,-52.99C145.83,-46.44 131.22,-23.01 127.2,-16.54"/>
</g>
<!-- 2&#45;&#45;3 -->
<g id="edge3" class="edge">
<title>2&#45;&#45;3</title>
<path fill="none" stroke="black" stroke-width="0.75" d="M161.28,-104.75C155.88,-110.93 136.55,-133.04 131.22,-139.14"/>
</g>
<!-- 4 -->
<g id="node4" class="node">
<title>4</title>
<ellipse fill="black" stroke="black" cx="88.59" cy="-163.6" rx="1.8" ry="1.8"/>
</g>
<!-- 2&#45;&#45;4 -->
<g id="edge4" class="edge">
<title>2&#45;&#45;4</title>
<path fill="none" stroke="black" stroke-width="0.75" d="M161.14,-104.39C151.5,-112.26 99.74,-154.49 90.12,-162.34"/>
</g>
<!-- 2&#45;&#45;10 -->
<g id="edge20" class="edge">
<title>2&#45;&#45;10</title>
<path fill="none" stroke="black" stroke-width="0.75" d="M161.93,-101.29C157.17,-89.8 131.66,-28.17 126.92,-16.72"/>
</g>
<!-- 3&#45;&#45;4 -->
<g id="edge5" class="edge">
<title>3&#45;&#45;4</title>
<path fill="none" stroke="black" stroke-width="0.75" d="M128.08,-141.69C121.29,-145.45 97,-158.93 90.31,-162.64"/>
</g>
<!-- 5 -->
<g id="node5" class="node">
<title>5</title>
<ellipse fill="black" stroke="black" cx="38.7" cy="-150.6" rx="1.8" ry="1.8"/>
</g>
<!-- 3&#45;&#45;5 -->
<g id="edge6" class="edge">
<title>3&#45;&#45;5</title>
<path fill="none" stroke="black" stroke-width="0.75" d="M127.6,-140.95C114.99,-142.32 53.28,-149.02 40.87,-150.37"/>
</g>
<!-- 4&#45;&#45;5 -->
<g id="edge7" class="edge">
<title>4&#45;&#45;5</title>
<path fill="none" stroke="black" stroke-width="0.75" d="M86.44,-163.04C78.24,-160.9 48.87,-153.25 40.78,-151.14"/>
</g>
<!-- 6 -->
<g id="node6" class="node">
<title>6</title>
<ellipse fill="black" stroke="black" cx="12.46" cy="-111.6" rx="1.8" ry="1.8"/>
</g>
<!-- 4&#45;&#45;6 -->
<g id="edge8" class="edge">
<title>4&#45;&#45;6</title>
<path fill="none" stroke="black" stroke-width="0.75" d="M86.7,-162.31C76.17,-155.12 24.64,-119.91 14.28,-112.84"/>
</g>
<!-- 5&#45;&#45;6 -->
<g id="edge9" class="edge">
<title>5&#45;&#45;6</title>
<path fill="none" stroke="black" stroke-width="0.75" d="M37.57,-148.93C33.25,-142.51 17.81,-119.55 13.55,-113.22"/>
</g>
<!-- 7 -->
<g id="node7" class="node">
<title>7</title>
<ellipse fill="black" stroke="black" cx="1.8" cy="-62.52" rx="1.8" ry="1.8"/>
</g>
<!-- 5&#45;&#45;7 -->
<g id="edge10" class="edge">
<title>5&#45;&#45;7</title>
<path fill="none" stroke="black" stroke-width="0.75" d="M37.93,-148.76C33.12,-137.3 7.36,-75.78 2.57,-64.35"/>
</g>
<!-- 6&#45;&#45;7 -->
<g id="edge11" class="edge">
<title>6&#45;&#45;7</title>
<path fill="none" stroke="black" stroke-width="0.75" d="M12,-109.49C10.25,-101.41 3.97,-72.53 2.24,-64.56"/>
</g>
<!-- 8 -->
<g id="node8" class="node">
<title>8</title>
<ellipse fill="black" stroke="black" cx="35.32" cy="-26.04" rx="1.8" ry="1.8"/>
</g>
<!-- 6&#45;&#45;8 -->
<g id="edge12" class="edge">
<title>6&#45;&#45;8</title>
<path fill="none" stroke="black" stroke-width="0.75" d="M13.03,-109.48C16.19,-97.64 31.67,-39.72 34.78,-28.08"/>
</g>
<!-- 7&#45;&#45;8 -->
<g id="edge13" class="edge">
<title>7&#45;&#45;8</title>
<path fill="none" stroke="black" stroke-width="0.75" d="M3.24,-60.95C8.75,-54.95 28.48,-33.48 33.92,-27.56"/>
</g>
<!-- 7&#45;&#45;9 -->
<g id="edge14" class="edge">
<title>7&#45;&#45;9</title>
<path fill="none" stroke="black" stroke-width="0.75" d="M3.34,-61.25C12.96,-53.35 64.55,-10.94 74.14,-3.06"/>
</g>
<!-- 8&#45;&#45;9 -->
<g id="edge15" class="edge">
<title>8&#45;&#45;9</title>
<path fill="none" stroke="black" stroke-width="0.75" d="M37.06,-25C43.69,-21.01 67.45,-6.74 74,-2.81"/>
</g>
<!-- 8&#45;&#45;10 -->
<g id="edge16" class="edge">
<title>8&#45;&#45;10</title>
<path fill="none" stroke="black" stroke-width="0.75" d="M37.57,-25.77C50.14,-24.22 111.63,-16.67 124,-15.15"/>
</g>
<!-- 9&#45;&#45;10 -->
<g id="edge17" class="edge">
<title>9&#45;&#45;10</title>
<path fill="none" stroke="black" stroke-width="0.75" d="M77.85,-2.36C86.15,-4.51 115.86,-12.22 124.06,-14.34"/>
</g>
</g>
</svg>
