<svg xmlns="http://www.w3.org/2000/svg" width="105" height="105" viewBox="0 0 105 105">
<rect x="0" y="7" width="7" height="7" fill="rgb(0,0,0)"/>
<rect x="0" y="14" width="7" height="7" fill="rgb(0,0,0)"/>
<rect x="0" y="21" width="7" height="7" fill="rgb(0,0,0)"/>
<rect x="0" y="28" width="7" height="7" fill="rgb(0,0,0)"/>
<rect x="0" y="35" width="7" height="7" fill="rgb(0,0,0)"/>
<rect x="0" y="70" width="7" height="7" fill="rgb(0,0,0)"/>
<rect x="7" y="0" width="7" height="7" fill="rgb(0,0,0)"/>
<rect x="7" y="14" width="7" height="7" fill="rgb(0,0,0)"/>
<rect x="7" y="21" width="7" height="7" fill="rgb(0,0,0)"/>
<rect x="7" y="28" width="7" height="7" fill="rgb(0,0,0)"/>
<rect x="7" y="42" width="7" height="7" fill="rgb(0,0,0)"/>
<rect x="7" y="77" width="7" height="7" fill="rgb(0,0,0)"/>
<rect x="14" y="0" width="7" height="7" fill="rgb(0,0,0)"/>
<rect x="14" y="7" width="7" height="7" fill="rgb(0,0,0)"/>
<rect x="14" y="21" width="7" height="7" fill="rgb(0,0,0)"/>
<rect x="14" y="28" width="7" height="7" fill="rgb(0,0,0)"/>
<rect x="14" y="49" width="7" height="7" fill="rgb(0,0,0)"/>
<rect x="14" y="84" width="7" height="7" fill="rgb(0,0,0)"/>
<rect x="21" y="0" width="7" height="7" fill="rgb(0,0,0)"/>
<rect x="21" y="7" width="7" height="7" fill="rgb(0,0,0)"/>
<rect x="21" y="14" width="7" height="7" fill="rgb(0,0,0)"/>
<rect x="21" y="28" width="7" height="7" fill="rgb(0,0,0)"/>
<rect x="21" y="56" width="7" height="7" fill="rgb(0,0,0)"/>
<rect x="21" y="91" width="7" height="7" fill="rgb(0,0,0)"/>
<rect x="28" y="0" width="7" height="7" fill="rgb(0,0,0)"/>
<rect x="28" y="7" width="7" height="7" fill="rgb(0,0,0)"/>
<rect x="28" y="14" width="7" height="7" fill="rgb(0,0,0)"/>
<rect x="28" y="21" width="7" height="7" fill="rgb(0,0,0)"/>
<rect x="28" y="63" width="7" height="7" fill="rgb(0,0,0)"/>
<rect x="28" y="98" width="7" height="7" fill="rgb(0,0,0)"/>
<rect x="35" y="0" width="7" height="7" fill="rgb(0,0,0)"/>
<rect x="35" y="42" width="7" height="7" fill="rgb(0,0,0)"/>
<rect x="35" y="49" width="7" height="7" fill="rgb(0,0,0)"/>
<rect x="35" y="56" width="7" height="7" fill="rgb(0,0,0)"/>
<rect x="35" y="63" width="7" height="7" fill="rgb(0,0,0)"/>
<rect x="35" y="70" width="7" height="7" fill="rgb(0,0,0)"/>
<rect x="42" y="7" width="7" height="7" fill="rgb(0,0,0)"/>
<rect x="42" y="35" width="7" height="7" fill="rgb(0,0,0)"/>
<rect x="42" y="49" width="7" height="7" fill="rgb(0,0,0)"/>
<rect x="42" y="56" width="7" height="7" fill="rgb(0,0,0)"/>
<rect x="42" y="63" width="7" height="7" fill="rgb(0,0,0)"/>
<rect x="42" y="77" width="7" height="7" fill="rgb(0,0,0)"/>
<rect x="49" y="14" width="7" height="7" fill="rgb(0,0,0)"/>
<rect x="49" y="35" width="7" height="7" fill="rgb(0,0,0)"/>
<rect x="49" y="42" width="7" height="7" fill="rgb(0,0,0)"/>
<rect x="49" y="56" width="7" height="7" fill="rgb(0,0,0)"/>
<rect x="49" y="63" width="7" height="7" fill="rgb(0,0,0)"/>
<rect x="49" y="84" width="7" height="7" fill="rgb(0,0,0)"/>
<rect x="56" y="21" width="7" height="7" fill="rgb(0,0,0)"/>
<rect x="56" y="35" width="7" height="7" fill="rgb(0,0,0)"/>
<rect x="56" y="42" width="7" height="7" fill="rgb(0,0,0)"/>
<rect x="56" y="49" width="7" height="7" fill="rgb(0,0,0)"/>
<rect x="56" y="63" width="7" height="7" fill="rgb(0,0,0)"/>
<rect x="56" y="91" width="7" height="7" fill="rgb(0,0,0)"/>
<rect x="63" y="28" width="7" height="7" fill="rgb(0,0,0)"/>
<rect x="63" y="35" width="7" height="7" fill="rgb(0,0,0)"/>
<rect x="63" y="42" width="7" height="7" fill="rgb(0,0,0)"/>
<rect x="63" y="49" width="7" height="7" fill="rgb(0,0,0)"/>
<rect x="63" y="56" width="7" height="7" fill="rgb(0,0,0)"/>
<rect x="63" y="98" width="7" height="7" fill="rgb(0,0,0)"/>
<rect x="70" y="0" width="7" height="7" fill="rgb(0,0,0)"/>
<rect x="70" y="35" width="7" height="7" fill="rgb(0,0,0)"/>
<rect x="70" y="77" width="7" height="7" fill="rgb(0,0,0)"/>
<rect x="70" y="84" width="7" height="7" fill="rgb(0,0,0)"/>
<rect x="70" y="91" width="7" height="7" fill="rgb(0,0,0)"/>
<rect x="70" y="98" width="7" height="7" fill="rgb(0,0,0)"/>
<rect x="77" y="7" width="7" height="7" fill="rgb(0,0,0)"/>
<rect x="77" y="42" width="7" height="7" fill="rgb(0,0,0)"/>
<rect x="77" y="70" width="7" height="7" fill="rgb(0,0,0)"/>
<rect x="77" y="84" width="7" height="7" fill="rgb(0,0,0)"/>
<rect x="77" y="91" width="7" height="7" fill="rgb(0,0,0)"/>
<rect x="77" y="98" width="7" height="7" fill="rgb(0,0,0)"/>
<rect x="84" y="14" width="7" height="7" fill="rgb(0,0,0)"/>
<rect x="84" y="49" width="7" height="7" fill="rgb(0,0,0)"/>
<rect x="84" y="70" width="7" height="7" fill="rgb(0,0,0)"/>
<rect x="84" y="77" width="7" height="7" fill="rgb(0,0,0)"/>
<rect x="84" y="91" width="7" height="7" fill="rgb(0,0,0)"/>
<rect x="84" y="98" width="7" height="7" fill="rgb(0,0,0)"/>
<rect x="91" y="21" width="7" height="7" fill="rgb(0,0,0)"/>
<rect x="91" y="56" width="7" height="7" fill="rgb(0,0,0)"/>
<rect x="91" y="70" width="7" height="7" fill="rgb(0,0,0)"/>
<rect x="91" y="77" width="7" height="7" fill="rgb(0,0,0)"/>
<rect x="91" y="84" width="7" height="7" fill="rgb(0,0,0)"/>
<rect x="91" y="98" width="7" height="7" fill="rgb(0,0,0)"/>
<rect x="98" y="28" width="7" height="7" fill="rgb(0,0,0)"/>
<rect x="98" y="63" width="7" height="7" fill="rgb(0,0,0)"/>
<rect x="98" y="70" width="7" height="7" fill="rgb(0,0,0)"/>
<rect x="98" y="77" width="7" height="7" fill="rgb(0,0,0)"/>
<rect x="98" y="84" width="7" height="7" fill="rgb(0,0,0)"/>
<rect x="98" y="91" width="7" height="7" fill="rgb(0,0,0)"/>
</svg>