<?xml version="1.0" encoding="UTF-8" standalone="no"?>
<!DOCTYPE svg PUBLIC "-//W3C//DTD SVG 1.1//EN"
 "http://www.w3.org/Graphics/SVG/1.1/DTD/svg11.dtd">
<!-- Generated by graphviz version 12.0.0 (0)
 -->
<!-- Pages: 1 -->
<svg width="53pt" height="54pt"
 viewBox="0.00 0.00 52.90 54.00" xmlns="http://www.w3.org/2000/svg" xmlns:xlink="http://www.w3.org/1999/xlink">
<g id="graph0" class="graph" transform="scale(0.34345 0.34345) rotate(0) translate(4 153.23)">
<!-- 1 -->
<g id="node1" class="node">
<title>1</title>
<ellipse fill="black" stroke="black" cx="22.75" cy="-76.67" rx="1.8" ry="1.8"/>
</g>
<!-- 2 -->
<g id="node2" class="node">
<title>2</title>
<ellipse fill="black" stroke="black" cx="1.8" cy="-20.9" rx="1.8" ry="1.8"/>
</g>
<!-- 1&#45;&#45;2 -->
<g id="edge1" class="edge">
<title>1&#45;&#45;2</title>
<path fill="none" stroke="black" stroke-width="0.75" d="M22.05,-74.81C18.87,-66.34 5.75,-31.42 2.52,-22.82"/>
</g>
<!-- 3 -->
<g id="node3" class="node">
<title>3</title>
<ellipse fill="black" stroke="black" cx="81.97" cy="-1.8" rx="1.8" ry="1.8"/>
</g>
<!-- 1&#45;&#45;3 -->
<g id="edge2" class="edge">
<title>1&#45;&#45;3</title>
<path fill="none" stroke="black" stroke-width="0.75" d="M23.99,-75.1C31.69,-65.36 73.05,-13.07 80.74,-3.36"/>
</g>
<!-- 4 -->
<g id="node4" class="node">
<title>4</title>
<ellipse fill="black" stroke="black" cx="79.81" cy="-147.43" rx="1.8" ry="1.8"/>
</g>
<!-- 1&#45;&#45;4 -->
<g id="edge3" class="edge">
<title>1&#45;&#45;4</title>
<path fill="none" stroke="black" stroke-width="0.75" d="M24.16,-78.42C32.05,-88.21 70.68,-136.11 78.44,-145.74"/>
</g>
<!-- 7 -->
<g id="node5" class="node">
<title>7</title>
<ellipse fill="black" stroke="black" cx="100.87" cy="-85.81" rx="1.8" ry="1.8"/>
</g>
<!-- 1&#45;&#45;7 -->
<g id="edge4" class="edge">
<title>1&#45;&#45;7</title>
<path fill="none" stroke="black" stroke-width="0.75" d="M25,-76.93C36.41,-78.27 87.68,-84.26 98.75,-85.56"/>
</g>
<!-- 2&#45;&#45;3 -->
<g id="edge5" class="edge">
<title>2&#45;&#45;3</title>
<path fill="none" stroke="black" stroke-width="0.75" d="M3.78,-20.43C14.78,-17.81 68.21,-5.08 79.76,-2.33"/>
</g>
<!-- 5 -->
<g id="node6" class="node">
<title>5</title>
<ellipse fill="black" stroke="black" cx="38.37" cy="-104.71" rx="1.8" ry="1.8"/>
</g>
<!-- 2&#45;&#45;5 -->
<g id="edge6" class="edge">
<title>2&#45;&#45;5</title>
<path fill="none" stroke="black" stroke-width="0.75" d="M2.7,-22.97C7.76,-34.57 32.52,-91.3 37.5,-102.71"/>
</g>
<!-- 8 -->
<g id="node7" class="node">
<title>8</title>
<ellipse fill="black" stroke="black" cx="63.67" cy="-27.88" rx="1.8" ry="1.8"/>
</g>
<!-- 2&#45;&#45;8 -->
<g id="edge7" class="edge">
<title>2&#45;&#45;8</title>
<path fill="none" stroke="black" stroke-width="0.75" d="M3.86,-21.13C13.25,-22.19 52,-26.56 61.54,-27.64"/>
</g>
<!-- 6 -->
<g id="node8" class="node">
<title>6</title>
<ellipse fill="black" stroke="black" cx="133.49" cy="-88.7" rx="1.8" ry="1.8"/>
</g>
<!-- 3&#45;&#45;6 -->
<g id="edge8" class="edge">
<title>3&#45;&#45;6</title>
<path fill="none" stroke="black" stroke-width="0.75" d="M83.04,-3.62C89.75,-14.92 125.73,-75.62 132.42,-86.9"/>
</g>
<!-- 9 -->
<g id="node9" class="node">
<title>9</title>
<ellipse fill="black" stroke="black" cx="144.24" cy="-21.58" rx="1.8" ry="1.8"/>
</g>
<!-- 3&#45;&#45;9 -->
<g id="edge9" class="edge">
<title>3&#45;&#45;9</title>
<path fill="none" stroke="black" stroke-width="0.75" d="M84.04,-2.46C93.49,-5.46 132.49,-17.85 142.09,-20.9"/>
</g>
<!-- 4&#45;&#45;7 -->
<g id="edge12" class="edge">
<title>4&#45;&#45;7</title>
<path fill="none" stroke="black" stroke-width="0.75" d="M80.51,-145.38C83.7,-136.02 96.89,-97.43 100.14,-87.93"/>
</g>
<!-- 4&#45;&#45;5 -->
<g id="edge10" class="edge">
<title>4&#45;&#45;5</title>
<path fill="none" stroke="black" stroke-width="0.75" d="M78.43,-146.01C72.14,-139.52 46.19,-112.77 39.8,-106.18"/>
</g>
<!-- 4&#45;&#45;6 -->
<g id="edge11" class="edge">
<title>4&#45;&#45;6</title>
<path fill="none" stroke="black" stroke-width="0.75" d="M81.35,-145.73C89.19,-137.16 124.42,-98.62 132.04,-90.29"/>
</g>
<!-- 7&#45;&#45;8 -->
<g id="edge16" class="edge">
<title>7&#45;&#45;8</title>
<path fill="none" stroke="black" stroke-width="0.75" d="M99.63,-83.88C93.88,-74.93 69.85,-37.5 64.66,-29.42"/>
</g>
<!-- 7&#45;&#45;9 -->
<g id="edge17" class="edge">
<title>7&#45;&#45;9</title>
<path fill="none" stroke="black" stroke-width="0.75" d="M102.12,-83.96C108.45,-74.58 136.91,-32.42 143.06,-23.32"/>
</g>
<!-- 5&#45;&#45;8 -->
<g id="edge14" class="edge">
<title>5&#45;&#45;8</title>
<path fill="none" stroke="black" stroke-width="0.75" d="M39,-102.81C42.47,-92.27 59.33,-41.07 62.98,-29.99"/>
</g>
<!-- 5&#45;&#45;6 -->
<g id="edge13" class="edge">
<title>5&#45;&#45;6</title>
<path fill="none" stroke="black" stroke-width="0.75" d="M40.36,-104.37C52.74,-102.29 119.17,-91.11 131.52,-89.04"/>
</g>
<!-- 8&#45;&#45;9 -->
<g id="edge18" class="edge">
<title>8&#45;&#45;9</title>
<path fill="none" stroke="black" stroke-width="0.75" d="M65.66,-27.72C76.71,-26.86 130.41,-22.66 142.02,-21.75"/>
</g>
<!-- 6&#45;&#45;9 -->
<g id="edge15" class="edge">
<title>6&#45;&#45;9</title>
<path fill="none" stroke="black" stroke-width="0.75" d="M133.85,-86.47C135.51,-76.1 142.45,-32.73 143.95,-23.36"/>
</g>
</g>
</svg>
