<svg xmlns="http://www.w3.org/2000/svg" width="161.8" height="100.0" viewBox="75.90 -5.00 171.80 110.00">
<g fill="none" stroke="black" stroke-width="0.1250%" transform="translate(0, 100.0000) scale(4.0000, -4.0000)">
<polyline points="20.23,25.00 20.63,24.01 21.03,23.04 21.44,22.09 21.84,21.16 22.25,20.25 22.65,19.36 23.06,18.49 23.46,17.64 23.87,16.81 24.27,16.00 24.68,15.21 25.08,14.44 25.48,13.69 25.89,12.96 26.29,12.25 26.70,11.56 27.10,10.89 27.51,10.24 27.91,9.61 28.32,9.00 28.72,8.41 29.12,7.84 29.53,7.29 29.93,6.76 30.34,6.25 30.74,5.76 31.15,5.29 31.55,4.84 31.96,4.41 32.36,4.00 32.77,3.61 33.17,3.24 33.57,2.89 33.98,2.56 34.38,2.25 34.79,1.96 35.19,1.69 35.60,1.44 36.00,1.21 36.41,1.00 36.81,0.81 37.21,0.64 37.62,0.49 38.02,0.36 38.43,0.25 38.83,0.16 39.24,0.09 39.64,0.04 40.05,0.01 40.45,0.00 40.86,0.01 41.26,0.04 41.66,0.09 42.07,0.16 42.47,0.25 42.88,0.36 43.28,0.49 43.69,0.64 44.09,0.81 44.50,1.00 44.90,1.21 45.30,1.44 45.71,1.69 46.11,1.96 46.52,2.25 46.92,2.56 47.33,2.89 47.73,3.24 48.14,3.61 48.54,4.00 48.95,4.41 49.35,4.84 49.75,5.29 50.16,5.76 50.56,6.25 50.97,6.76 51.37,7.29 51.78,7.84 52.18,8.41 52.59,9.00 52.99,9.61 53.40,10.24 53.80,10.89 54.20,11.56 54.61,12.25 55.01,12.96 55.42,13.69 55.82,14.44 56.23,15.21 56.63,16.00 57.04,16.81 57.44,17.64 57.84,18.49 58.25,19.36 58.65,20.25 59.06,21.16 59.46,22.09 59.87,23.04 60.27,24.01 60.68,25.00" />
</g>
</svg>