<svg xmlns="http://www.w3.org/2000/svg" width="161.8" height="100.0" viewBox="-85.9 -5.0 171.8 110.0">
<g fill="none" stroke="black" stroke-width="0.5049%" transform="translate(0, 100.0512) scale(0.9904, -0.9904)">
<circle cx="0.0" cy="101.0" r="0.5" />
<polyline points="-81.7,97.9 -80.1,83.5 -78.4,70.5 -76.8,58.9 -75.2,48.7 -73.5,39.6 -71.9,31.8 -70.3,25.1 -68.6,19.4 -67.0,14.7 -65.4,11.0 -63.7,8.1 -62.1,6.0 -60.5,4.7 -58.8,4.1 -57.2,4.1 -55.5,4.7 -53.9,5.8 -52.3,7.5 -50.6,9.6 -49.0,12.1 -47.4,14.9 -45.7,18.0 -44.1,21.4 -42.5,25.1 -40.8,28.9 -39.2,32.9 -37.6,37.0 -35.9,41.1 -34.3,45.3 -32.7,49.5 -31.0,53.8 -29.4,57.9 -27.8,62.0 -26.1,66.0 -24.5,69.8 -22.9,73.6 -21.2,77.1 -19.6,80.5 -18.0,83.6 -16.3,86.6 -14.7,89.3 -13.1,91.7 -11.4,93.9 -9.8,95.8 -8.2,97.4 -6.5,98.7 -4.9,99.8 -3.3,100.5 -1.6,100.9 0.0,101.0 1.6,100.8 3.3,100.3 4.9,99.4 6.5,98.3 8.2,96.9 9.8,95.1 11.4,93.1 13.1,90.8 14.7,88.3 16.3,85.5 18.0,82.4 19.6,79.1 21.2,75.7 22.9,72.0 24.5,68.2 26.1,64.2 27.8,60.1 29.4,55.9 31.0,51.6 32.7,47.3 34.3,43.0 35.9,38.7 37.6,34.4 39.2,30.2 40.8,26.1 42.5,22.2 44.1,18.4 45.7,14.9 47.4,11.6 49.0,8.7 50.6,6.1 52.3,3.9 53.9,2.1 55.5,0.9 57.2,0.2 58.8,0.0 60.5,0.5 62.1,1.7 63.7,3.7 65.4,6.5 67.0,10.1 68.6,14.7 70.3,20.3 71.9,26.9 73.5,34.6 75.2,43.5 76.8,53.7 78.4,65.1 80.1,78.0 81.7,92.3" />
</g>
</svg>