<svg xmlns="http://www.w3.org/2000/svg" width="146.6" height="100.0" viewBox="-5.000 -5.000 156.585 110.000">
<g fill="none" stroke="black" stroke-width="0.0137%" transform="translate(0, 100.0000) scale(36.3636, -36.3636)">
<polyline points="0.000,1.000 1.000,1.000 1.000,-0.000 0.000,0.000 0.433,0.250 0.433,1.250 1.433,1.250 1.433,0.250 1.866,0.500 0.866,0.500 0.866,1.500 1.866,1.500 2.299,1.750 2.299,0.750 1.299,0.750 1.299,1.750 1.732,2.000 2.732,2.000 2.732,1.000 1.732,1.000 2.165,1.250 2.165,2.250 3.165,2.250 3.165,1.250 3.598,1.500 2.598,1.500 2.598,2.500 3.598,2.500 4.031,2.750 4.031,1.750 3.031,1.750 3.031,2.750" />
</g>
</svg>