<svg xmlns="http://www.w3.org/2000/svg" width="104.6" height="100.0" viewBox="-57.28 -49.97 114.56 110.00">
<g fill="none" stroke="black" stroke-width="0.0182%" transform="translate(0, 10.0685) scale(27.5171, -27.5171)">
<polyline points="0.00,2.00 0.32,1.97 0.62,1.90 0.91,1.77 1.18,1.60 1.41,1.39 1.60,1.14 1.75,0.87 1.85,0.57 1.90,0.27 1.90,-0.03 1.85,-0.33 1.75,-0.61 1.62,-0.87 1.44,-1.09 1.23,-1.29 0.99,-1.44 0.74,-1.55 0.47,-1.61 0.21,-1.63 -0.05,-1.61 -0.30,-1.54 -0.52,-1.44 -0.72,-1.30 -0.89,-1.14 -1.03,-0.95 -1.13,-0.75 -1.19,-0.54 -1.22,-0.34 -1.20,-0.13 -1.16,0.06 -1.08,0.23 -0.99,0.38 -0.87,0.50 -0.73,0.60 -0.59,0.66 -0.45,0.70 -0.31,0.71 -0.18,0.69 -0.06,0.65 0.04,0.59 0.12,0.52 0.18,0.44 0.21,0.35 0.22,0.27 0.22,0.19 0.19,0.12 0.15,0.06 0.09,0.02 0.03,0.00 -0.03,0.00 -0.09,0.02 -0.15,0.06 -0.19,0.12 -0.22,0.19 -0.22,0.27 -0.21,0.35 -0.18,0.44 -0.12,0.52 -0.04,0.59 0.06,0.65 0.18,0.69 0.31,0.71 0.45,0.70 0.59,0.66 0.73,0.60 0.87,0.50 0.99,0.38 1.08,0.23 1.16,0.06 1.20,-0.13 1.22,-0.34 1.19,-0.54 1.13,-0.75 1.03,-0.95 0.89,-1.14 0.72,-1.30 0.52,-1.44 0.30,-1.54 0.05,-1.61 -0.21,-1.63 -0.47,-1.61 -0.74,-1.55 -0.99,-1.44 -1.23,-1.29 -1.44,-1.09 -1.62,-0.87 -1.75,-0.61 -1.85,-0.33 -1.90,-0.03 -1.90,0.27 -1.85,0.57 -1.75,0.87 -1.60,1.14 -1.41,1.39 -1.18,1.60 -0.91,1.77 -0.62,1.90 -0.32,1.97 -0.00,2.00" />
</g>
</svg>