<svg xmlns="http://www.w3.org/2000/svg" width="101.6" height="100.0" viewBox="-56.91 -50.05 111.63 110.00">
<g fill="none" stroke="black" stroke-width="0.0182%" transform="translate(0, 9.9051) scale(27.4763, -27.4763)">
<polyline points="0.00,2.00 -0.12,1.90 -0.21,1.60 -0.22,1.14 -0.15,0.58 0.01,-0.02 0.24,-0.59 0.52,-1.07 0.81,-1.41 1.05,-1.59 1.20,-1.58 1.22,-1.41 1.10,-1.12 0.83,-0.74 0.43,-0.34 -0.06,0.04 -0.58,0.34 -1.09,0.55 -1.51,0.64 -1.79,0.63 -1.89,0.53 -1.80,0.38 -1.51,0.22 -1.06,0.09 -0.50,0.01 0.11,0.01 0.71,0.08 1.22,0.22 1.60,0.40 1.80,0.57 1.81,0.71 1.63,0.76 1.30,0.72 0.86,0.55 0.37,0.27 -0.12,-0.10 -0.54,-0.52 -0.86,-0.93 -1.04,-1.29 -1.09,-1.54 -1.00,-1.64 -0.83,-1.57 -0.59,-1.32 -0.34,-0.91 -0.12,-0.39 0.04,0.19 0.13,0.77 0.12,1.28 0.05,1.66 -0.06,1.88 -0.19,1.89 -0.28,1.71 -0.32,1.37 -0.27,0.89 -0.13,0.34 0.10,-0.22 0.38,-0.72 0.69,-1.11 0.97,-1.36 1.18,-1.45 1.28,-1.38 1.24,-1.17 1.04,-0.87 0.71,-0.52 0.27,-0.17 -0.24,0.13 -0.77,0.36 -1.24,0.48 -1.60,0.51 -1.81,0.44 -1.83,0.33 -1.66,0.19 -1.32,0.06 -0.84,-0.01 -0.27,-0.02 0.32,0.05 0.86,0.18 1.29,0.37 1.58,0.56 1.70,0.73 1.63,0.83 1.41,0.84 1.05,0.72 0.62,0.49 0.17,0.15 -0.25,-0.26 -0.59,-0.69 -0.82,-1.09 -0.92,-1.41 -0.91,-1.60 -0.79,-1.63 -0.60,-1.48 -0.39,-1.17 -0.19,-0.72 -0.04,-0.18 0.05,0.39 0.06,0.93 -0.00,1.38 -0.11,1.68 -0.24,1.81 -0.35,1.75 -0.40,1.51 -0.38,1.13 -0.27,0.65 -0.06,0.13 0.22,-0.38 0.53,-0.80 0.84,-1.11 1.11,-1.27 1.27,-1.29 1.31,-1.17 1.21,-0.94 0.95,-0.65 0.57,-0.33 0.09,-0.04 -0.43,0.18 -0.93,0.33 -1.36,0.38 -1.65,0.35 -1.78,0.26 -1.73,0.14 -1.49,0.02 -1.11,-0.06 -0.61,-0.07 -0.06,-0.01 0.49,0.12 0.96,0.31 1.32,0.52 1.53,0.72 1.56,0.86 1.44,0.92 1.17,0.86 0.82,0.69 0.41,0.39 0.01,0.01 -0.34,-0.42 -0.60,-0.85 -0.75,-1.22 -0.78,-1.49 -0.72,-1.62 -0.58,-1.58 -0.40,-1.36 -0.23,-1.00 -0.08,-0.52 0.00,0.02 0.02,0.57 -0.04,1.06 -0.14,1.44 -0.28,1.66 -0.40,1.71 -0.48,1.58 -0.49,1.30 -0.40,0.89 -0.23,0.43 0.03,-0.05 0.35,-0.49 0.68,-0.84 0.99,-1.06 1.22,-1.15 1.34,-1.11 1.31,-0.95 1.14,-0.72 0.83,-0.45 0.40,-0.18 -0.10,0.04 -0.61,0.19 -1.07,0.26 -1.44,0.25 -1.66,0.18 -1.72,0.08 -1.59,-0.03 -1.31,-0.11 -0.89,-0.13 -0.39,-0.08 0.14,0.04 0.63,0.22 1.03,0.45 1.31,0.67 1.43,0.86 1.40,0.96 1.23,0.97 0.95,0.85 0.60,0.61 0.23,0.27 -0.11,-0.14 -0.38,-0.58 -0.56,-1.00 -0.64,-1.33 -0.62,-1.54 -0.53,-1.60 -0.39,-1.49 -0.23,-1.21 -0.10,-0.81 -0.02,-0.32 -0.00,0.22 -0.05,0.72 -0.16,1.15 -0.29,1.45 -0.43,1.60 -0.54,1.57 -0.58,1.39 -0.53,1.08 -0.39,0.67 -0.15,0.23 0.15,-0.20 0.49,-0.57 0.83,-0.84 1.11,-0.98 1.30,-1.01 1.36,-0.92 1.27,-0.75 1.04,-0.52 0.68,-0.29 0.22,-0.08 -0.28,0.08 -0.76,0.16 -1.18,0.17 -1.49,0.11 -1.64,0.02 -1.62,-0.09 -1.43,-0.17 -1.11,-0.20 -0.67,-0.17 -0.19,-0.06 0.30,0.12 0.73,0.34 1.06,0.59 1.25,0.81 1.31,0.97 1.22,1.03 1.02,0.98 0.73,0.80 0.41,0.51 0.09,0.13 -0.18,-0.30 -0.38,-0.74 -0.49,-1.12 -0.51,-1.40 -0.46,-1.55 -0.35,-1.54 -0.22,-1.37 -0.10,-1.05 -0.02,-0.62 0.00,-0.12 -0.04,0.39 -0.14,0.84 -0.28,1.20 -0.44,1.43 -0.57,1.50 -0.64,1.42 -0.64,1.19 -0.54,0.86 -0.34,0.47 -0.05,0.06 0.29,-0.31 0.64,-0.60 0.96,-0.80 1.21,-0.88 1.35,-0.85 1.35,-0.73 1.20,-0.55 0.91,-0.35 0.51,-0.16 0.04,-0.01 -0.44,0.08 -0.89,0.10 -1.26,0.05 -1.49,-0.03 -1.57,-0.14 -1.49,-0.23 -1.26,-0.28 -0.90,-0.26 -0.47,-0.17 -0.01,-0.00 0.43,0.22 0.79,0.47 1.04,0.72 1.17,0.93 1.16,1.05 1.03,1.06 0.81,0.95 0.54,0.72 0.25,0.39 -0.01,-0.02 -0.22,-0.46 -0.35,-0.87 -0.40,-1.22 -0.37,-1.44 -0.29,-1.52 -0.18,-1.45 -0.07,-1.22 0.01,-0.86 0.03,-0.42 -0.01,0.06 -0.11,0.53 -0.25,0.93 -0.42,1.22 -0.57,1.37 -0.68,1.38 -0.72,1.24 -0.66,0.99 -0.50,0.66 -0.25,0.29 0.07,-0.07 0.43,-0.37 0.78,-0.60 1.07,-0.72 1.28,-0.75 1.36,-0.68 1.30,-0.55 1.09,-0.38 0.76,-0.21 0.34,-0.07 -0.13,0.02 -0.59,0.04 -1.00,0.01 -1.30,-0.07 -1.47,-0.18 -1.48,-0.28 -1.34,-0.34 -1.07,-0.35 -0.70,-0.28 -0.28,-0.13 0.14,0.08 0.52,0.34 0.81,0.60 1.00,0.85 1.06,1.02 1.00,1.10 0.85,1.06 0.62,0.90 0.37,0.62 0.13,0.24 -0.08,-0.18 -0.22,-0.61 -0.29,-0.99 -0.29,-1.28 -0.22,-1.45 -0.13,-1.46 -0.03,-1.33 0.04,-1.06 0.07,-0.68 0.04,-0.24 -0.05,0.22 -0.20,0.64 -0.37,0.98 -0.55,1.20 -0.69,1.28 -0.77,1.23 -0.76,1.06 -0.65,0.79 -0.44,0.47 -0.15,0.14 0.20,-0.16 0.56,-0.40 0.90,-0.56 1.16,-0.63 1.32,-0.60 1.34,-0.51 1.22,-0.38 0.97,-0.23 0.60,-0.10 0.17,-0.02 -0.29,0.01 -0.72,-0.02 -1.07,-0.10 -1.31,-0.20 -1.41,-0.31 -1.36,-0.40 -1.17,-0.43 -0.88,-0.39 -0.51,-0.26 -0.12,-0.07 0.26,0.18 0.58,0.46 0.80,0.73 0.92,0.95 0.93,1.09 0.83,1.12 0.66,1.03 0.45,0.81 0.23,0.49 0.04,0.09 -0.11,-0.33 -0.19,-0.74 -0.20,-1.08 -0.16,-1.31 -0.08,-1.42 0.01,-1.37 0.09,-1.19 0.12,-0.88 0.10,-0.50 0.02,-0.07 -0.12,0.35 -0.30,0.72 -0.49,0.99 -0.67,1.14 -0.79,1.17 -0.83,1.07 -0.77,0.87 -0.61,0.61 -0.35,0.31 -0.03,0.02 0.33,-0.22 0.69,-0.40 1.00,-0.50 1.22,-0.51 1.32,-0.45 1.29,-0.35 1.11,-0.23 0.82,-0.11 0.44,-0.03 0.00,-0.00 -0.43,-0.02 -0.81,-0.10 -1.11,-0.21 -1.28,-0.33 -1.32,-0.43 -1.22,-0.49 -1.00,-0.48 -0.69,-0.39 -0.34,-0.22 0.02,0.02 0.35,0.30 0.60,0.58 0.76,0.84 0.82,1.03 0.78,1.13 0.66,1.11 0.49,0.96 0.30,0.70 0.13,0.35 -0.02,-0.06 -0.10,-0.47 -0.13,-0.84 -0.10,-1.14 -0.03,-1.32 0.06,-1.36 0.14,-1.26 0.18,-1.03 0.17,-0.71 0.10,-0.32 -0.03,0.08 -0.21,0.46 -0.41,0.76 -0.61,0.97 -0.77,1.06 -0.86,1.04 -0.85,0.91 -0.75,0.70 -0.54,0.44 -0.25,0.18 0.10,-0.06 0.47,-0.25 0.81,-0.37 1.08,-0.41 1.25,-0.38 1.29,-0.31 1.20,-0.20 0.99,-0.10 0.66,-0.03 0.27,0.01 -0.15,-0.01 -0.54,-0.09 -0.88,-0.20 -1.11,-0.33 -1.22,-0.45 -1.20,-0.53 -1.06,-0.55 -0.82,-0.50 -0.52,-0.36 -0.19,-0.15 0.13,0.12 0.40,0.41 0.59,0.70 0.69,0.93 0.70,1.09 0.63,1.14 0.50,1.06 0.34,0.87 0.18,0.57 0.05,0.20 -0.04,-0.20 -0.07,-0.59 -0.05,-0.93 0.01,-1.17 0.10,-1.29 0.18,-1.27 0.23,-1.13 0.24,-0.87 0.19,-0.54 0.07,-0.16 -0.10,0.21 -0.31,0.53 -0.53,0.78 -0.72,0.92 -0.85,0.96 -0.90,0.89 -0.85,0.74 -0.70,0.53 -0.45,0.30 -0.13,0.07 0.23,-0.11 0.59,-0.24 0.90,-0.31 1.13,-0.31 1.25,-0.25 1.24,-0.17 1.10,-0.08 0.85,-0.00 0.51,0.03 0.12,0.01 -0.28,-0.05 -0.64,-0.17 -0.91,-0.30 -1.09,-0.44 -1.14,-0.55 -1.07,-0.61 -0.90,-0.59 -0.65,-0.49 -0.36,-0.31 -0.06,-0.06 0.21,0.23 0.42,0.53 0.55,0.80 0.60,1.01 0.57,1.12 0.48,1.12 0.36,0.99 0.22,0.76 0.09,0.43 0.01,0.06 -0.03,-0.33 -0.01,-0.69 0.04,-0.98 0.13,-1.17 0.22,-1.23 0.28,-1.16 0.31,-0.98 0.27,-0.71 0.17,-0.38 0.01,-0.02 -0.19,0.30 -0.42,0.57 -0.63,0.76 -0.80,0.85 -0.91,0.84 -0.91,0.74 -0.82,0.58 -0.62,0.38 -0.34,0.18 -0.00,0.00 0.36,-0.13 0.70,-0.21 0.97,-0.23 1.15,-0.19 1.22,-0.12 1.16,-0.04 0.98,0.03 0.70,0.07 0.35,0.06 -0.03,-0.01 -0.39,-0.12 -0.70,-0.26 -0.92,-0.41 -1.03,-0.54 -1.04,-0.63 -0.93,-0.65 -0.74,-0.60 -0.50,-0.45 -0.22,-0.23 0.04,0.04 0.25,0.34 0.41,0.64 0.49,0.89 0.50,1.05 0.44,1.12 0.34,1.07 0.23,0.90 0.12,0.63 0.03,0.29 -0.00,-0.08 0.01,-0.45 0.06,-0.77 0.14,-1.01 0.24,-1.14 0.32,-1.15 0.36,-1.04 0.35,-0.83 0.28,-0.55 0.13,-0.23 -0.06,0.09 -0.29,0.37 -0.52,0.59 -0.73,0.72 -0.87,0.76 -0.94,0.71 -0.90,0.60 -0.76,0.44 -0.53,0.26 -0.22,0.09 0.13,-0.04 0.47,-0.13 0.78,-0.16 1.02,-0.14 1.15,-0.08 1.16,-0.00 1.06,0.07 0.84,0.11 0.55,0.11 0.20,0.05 -0.15,-0.05 -0.47,-0.19 -0.73,-0.35 -0.90,-0.51 -0.96,-0.63 -0.92,-0.69 -0.79,-0.68 -0.59,-0.58 -0.35,-0.39 -0.11,-0.14 0.10,0.15 0.27,0.46 0.37,0.73 0.41,0.95 0.38,1.08 0.31,1.09 0.21,0.99 0.12,0.79 0.04,0.50 0.00,0.15 0.01,-0.21 0.06,-0.54 0.15,-0.82 0.25,-1.01 0.34,-1.08 0.41,-1.04 0.42,-0.90 0.37,-0.68 0.25,-0.40 0.07,-0.10 -0.15,0.18 -0.39,0.41 -0.62,0.57 -0.81,0.65 -0.92,0.65 -0.94,0.58 -0.86,0.46 -0.68,0.31 -0.42,0.16 -0.10,0.03 0.25,-0.06 0.58,-0.09 0.85,-0.08 1.04,-0.04 1.12,0.03 1.09,0.10 0.94,0.15 0.70,0.16 0.40,0.12 0.07,0.03 -0.25,-0.11 -0.53,-0.28 -0.74,-0.45 -0.85,-0.60 -0.87,-0.70 -0.79,-0.73 -0.64,-0.67 -0.45,-0.53 -0.23,-0.31 -0.03,-0.04 0.14,0.26 0.26,0.56 0.32,0.81 0.32,0.99 0.27,1.07 0.19,1.04 0.10,0.90 0.03,0.67 -0.01,0.36 -0.00,0.02 0.05,-0.32 0.13,-0.62 0.24,-0.85 0.35,-0.98 0.43,-1.01 0.47,-0.93 0.45,-0.76 0.36,-0.53 0.21,-0.27 -0.00,0.00 -0.24,0.24 -0.49,0.42 -0.71,0.53 -0.86,0.57 -0.94,0.54 -0.92,0.45 -0.80,0.33 -0.59,0.20 -0.30,0.08 0.03,-0.01 0.36,-0.05 0.66,-0.04 0.89,-0.00 1.03,0.07 1.07,0.14 0.99,0.19 0.81,0.22 0.56,0.19 0.26,0.11 -0.05,-0.02 -0.33,-0.19 -0.56,-0.37 -0.72,-0.54 -0.78,-0.67 -0.76,-0.75 -0.66,-0.74 -0.50,-0.64 -0.32,-0.47 -0.13,-0.22 0.03,0.07 0.16,0.37 0.23,0.65 0.24,0.87 0.21,1.01 0.15,1.04 0.08,0.97 0.01,0.80 -0.03,0.54 -0.03,0.23 0.02,-0.10 0.10,-0.41 0.21,-0.66 0.33,-0.84 0.43,-0.93 0.50,-0.91 0.51,-0.80 0.46,-0.62 0.33,-0.40 0.14,-0.15 -0.09,0.08 -0.34,0.27 -0.58,0.41 -0.78,0.48 -0.90,0.48 -0.94,0.42 -0.88,0.33 -0.72,0.22 -0.48,0.11 -0.18,0.03 0.14,-0.01 0.45,-0.01 0.72,0.02 0.91,0.09 1.00,0.16 0.99,0.23 0.88,0.26 0.68,0.25 0.42,0.19 0.14,0.07 -0.14,-0.09 -0.38,-0.27 -0.57,-0.46 -0.67,-0.62 -0.70,-0.73 -0.64,-0.77 -0.53,-0.73 -0.38,-0.59 -0.21,-0.39 -0.06,-0.12 0.07,0.17 0.15,0.46 0.18,0.72 0.16,0.90 0.11,1.00 0.05,0.99 -0.02,0.88 -0.06,0.68 -0.06,0.41 -0.02,0.11 0.06,-0.20 0.17,-0.47 0.30,-0.69 0.42,-0.82 0.51,-0.86 0.55,-0.81 0.53,-0.68 0.44,-0.49 0.28,-0.27 0.06,-0.06 -0.18,0.14 -0.43,0.28 -0.66,0.37 -0.83,0.40 -0.92,0.37 -0.91,0.31 -0.81,0.21 -0.62,0.12 -0.36,0.05 -0.06,0.00" />
</g>
</svg>