<svg xmlns="http://www.w3.org/2000/svg" width="161.8" height="100.0" viewBox="-3.6 -4.0 171.8 110.0">
<g fill="none" stroke="black" stroke-width="0.5100%" transform="translate(0, 101.9608) scale(0.9804, -0.9804)">
<circle cx="1.4" cy="1.0" r="0.5" />
<circle cx="2.9" cy="2.0" r="0.5" />
<circle cx="4.3" cy="2.0" r="0.5" />
<circle cx="5.8" cy="1.0" r="0.5" />
<circle cx="7.2" cy="4.0" r="0.5" />
<circle cx="8.7" cy="1.0" r="0.5" />
<circle cx="10.1" cy="4.0" r="0.5" />
<circle cx="11.6" cy="7.0" r="0.5" />
<circle cx="13.0" cy="1.0" r="0.5" />
<circle cx="14.5" cy="4.0" r="0.5" />
<circle cx="15.9" cy="7.0" r="0.5" />
<circle cx="17.4" cy="10.0" r="0.5" />
<circle cx="18.8" cy="13.0" r="0.5" />
<circle cx="20.3" cy="2.0" r="0.5" />
<circle cx="21.7" cy="5.0" r="0.5" />
<circle cx="23.2" cy="8.0" r="0.5" />
<circle cx="24.6" cy="11.0" r="0.5" />
<circle cx="26.1" cy="14.0" r="0.5" />
<circle cx="27.5" cy="17.0" r="0.5" />
<circle cx="29.0" cy="20.0" r="0.5" />
<circle cx="30.4" cy="2.0" r="0.5" />
<circle cx="31.8" cy="5.0" r="0.5" />
<circle cx="33.3" cy="8.0" r="0.5" />
<circle cx="34.7" cy="11.0" r="0.5" />
<circle cx="36.2" cy="14.0" r="0.5" />
<circle cx="37.6" cy="17.0" r="0.5" />
<circle cx="39.1" cy="20.0" r="0.5" />
<circle cx="40.5" cy="23.0" r="0.5" />
<circle cx="42.0" cy="26.0" r="0.5" />
<circle cx="43.4" cy="29.0" r="0.5" />
<circle cx="44.9" cy="1.0" r="0.5" />
<circle cx="46.3" cy="4.0" r="0.5" />
<circle cx="47.8" cy="7.0" r="0.5" />
<circle cx="49.2" cy="10.0" r="0.5" />
<circle cx="50.7" cy="13.0" r="0.5" />
<circle cx="52.1" cy="16.0" r="0.5" />
<circle cx="53.6" cy="19.0" r="0.5" />
<circle cx="55.0" cy="22.0" r="0.5" />
<circle cx="56.5" cy="25.0" r="0.5" />
<circle cx="57.9" cy="28.0" r="0.5" />
<circle cx="59.4" cy="31.0" r="0.5" />
<circle cx="60.8" cy="34.0" r="0.5" />
<circle cx="62.3" cy="37.0" r="0.5" />
<circle cx="63.7" cy="40.0" r="0.5" />
<circle cx="65.1" cy="43.0" r="0.5" />
<circle cx="66.6" cy="46.0" r="0.5" />
<circle cx="68.0" cy="2.0" r="0.5" />
<circle cx="69.5" cy="5.0" r="0.5" />
<circle cx="70.9" cy="8.0" r="0.5" />
<circle cx="72.4" cy="11.0" r="0.5" />
<circle cx="73.8" cy="14.0" r="0.5" />
<circle cx="75.3" cy="17.0" r="0.5" />
<circle cx="76.7" cy="20.0" r="0.5" />
<circle cx="78.2" cy="23.0" r="0.5" />
<circle cx="79.6" cy="26.0" r="0.5" />
<circle cx="81.1" cy="29.0" r="0.5" />
<circle cx="82.5" cy="32.0" r="0.5" />
<circle cx="84.0" cy="35.0" r="0.5" />
<circle cx="85.4" cy="38.0" r="0.5" />
<circle cx="86.9" cy="41.0" r="0.5" />
<circle cx="88.3" cy="44.0" r="0.5" />
<circle cx="89.8" cy="47.0" r="0.5" />
<circle cx="91.2" cy="50.0" r="0.5" />
<circle cx="92.7" cy="53.0" r="0.5" />
<circle cx="94.1" cy="56.0" r="0.5" />
<circle cx="95.5" cy="59.0" r="0.5" />
<circle cx="97.0" cy="62.0" r="0.5" />
<circle cx="98.4" cy="65.0" r="0.5" />
<circle cx="99.9" cy="68.0" r="0.5" />
<circle cx="101.3" cy="1.0" r="0.5" />
<circle cx="102.8" cy="4.0" r="0.5" />
<circle cx="104.2" cy="7.0" r="0.5" />
<circle cx="105.7" cy="10.0" r="0.5" />
<circle cx="107.1" cy="13.0" r="0.5" />
<circle cx="108.6" cy="16.0" r="0.5" />
<circle cx="110.0" cy="19.0" r="0.5" />
<circle cx="111.5" cy="22.0" r="0.5" />
<circle cx="112.9" cy="25.0" r="0.5" />
<circle cx="114.4" cy="28.0" r="0.5" />
<circle cx="115.8" cy="31.0" r="0.5" />
<circle cx="117.3" cy="34.0" r="0.5" />
<circle cx="118.7" cy="37.0" r="0.5" />
<circle cx="120.2" cy="40.0" r="0.5" />
<circle cx="121.6" cy="43.0" r="0.5" />
<circle cx="123.1" cy="46.0" r="0.5" />
<circle cx="124.5" cy="49.0" r="0.5" />
<circle cx="126.0" cy="52.0" r="0.5" />
<circle cx="127.4" cy="55.0" r="0.5" />
<circle cx="128.8" cy="58.0" r="0.5" />
<circle cx="130.3" cy="61.0" r="0.5" />
<circle cx="131.7" cy="64.0" r="0.5" />
<circle cx="133.2" cy="67.0" r="0.5" />
<circle cx="134.6" cy="70.0" r="0.5" />
<circle cx="136.1" cy="73.0" r="0.5" />
<circle cx="137.5" cy="76.0" r="0.5" />
<circle cx="139.0" cy="79.0" r="0.5" />
<circle cx="140.4" cy="82.0" r="0.5" />
<circle cx="141.9" cy="85.0" r="0.5" />
<circle cx="143.3" cy="88.0" r="0.5" />
<circle cx="144.8" cy="91.0" r="0.5" />
<circle cx="146.2" cy="94.0" r="0.5" />
<circle cx="147.7" cy="97.0" r="0.5" />
<circle cx="149.1" cy="100.0" r="0.5" />
<circle cx="150.6" cy="103.0" r="0.5" />
<circle cx="152.0" cy="1.0" r="0.5" />
<circle cx="153.5" cy="4.0" r="0.5" />
<circle cx="154.9" cy="7.0" r="0.5" />
<circle cx="156.4" cy="10.0" r="0.5" />
<circle cx="157.8" cy="13.0" r="0.5" />
<circle cx="159.2" cy="16.0" r="0.5" />
<circle cx="160.7" cy="19.0" r="0.5" />
<circle cx="162.1" cy="22.0" r="0.5" />
<circle cx="163.6" cy="25.0" r="0.5" />
<circle cx="165.0" cy="28.0" r="0.5" />
<circle cx="166.5" cy="31.0" r="0.5" />
</g>
</svg>