<svg xmlns="http://www.w3.org/2000/svg" width="99.7" height="100.0" viewBox="-54.67 -54.91 109.72 110.00">
<g fill="none" stroke="black" stroke-width="0.0200%" transform="translate(0, 0.1882) scale(25.0470, -25.0470)">
<polyline points="0.00,2.00 0.51,1.93 0.99,1.74 1.40,1.43 1.72,1.02 1.92,0.55 2.00,0.04 1.94,-0.47 1.76,-0.95 1.46,-1.37 1.06,-1.69 0.59,-1.91 0.08,-1.99 -0.43,-1.95 -0.91,-1.77 -1.33,-1.48 -1.66,-1.09 -1.89,-0.63 -1.98,-0.13 -1.95,0.38 -1.78,0.87 -1.50,1.29 -1.12,1.63 -0.67,1.86 -0.17,1.97 0.34,1.95 0.83,1.79 1.25,1.52 1.60,1.15 1.84,0.70 1.95,0.21 1.94,-0.30 1.80,-0.78 1.54,-1.21 1.17,-1.56 0.73,-1.81 0.25,-1.93 -0.25,-1.93 -0.74,-1.80 -1.17,-1.55 -1.52,-1.20 -1.78,-0.77 -1.91,-0.29 -1.92,0.21 -1.80,0.69 -1.56,1.12 -1.21,1.48 -0.79,1.74 -0.32,1.88 0.17,1.90 0.65,1.79 1.08,1.56 1.44,1.23 1.70,0.82 1.85,0.36 1.88,-0.13 1.78,-0.60 1.56,-1.03 1.24,-1.39 0.85,-1.66 0.39,-1.82 -0.08,-1.85 -0.55,-1.76 -0.98,-1.56 -1.35,-1.25 -1.62,-0.87 -1.78,-0.42 -1.82,0.04 -1.75,0.51 -1.56,0.93 -1.26,1.30 -0.89,1.57 -0.45,1.74 0.01,1.79 0.46,1.73 0.88,1.55 1.25,1.26 1.52,0.90 1.70,0.48 1.76,0.03 1.70,-0.42 1.53,-0.83 1.26,-1.19 0.91,-1.47 0.51,-1.65 0.07,-1.72 -0.37,-1.67 -0.78,-1.52 -1.14,-1.26 -1.42,-0.92 -1.60,-0.53 -1.68,-0.10 -1.64,0.33 -1.50,0.73 -1.25,1.09 -0.93,1.37 -0.55,1.55 -0.13,1.63 0.29,1.61 0.68,1.47 1.03,1.24 1.31,0.93 1.50,0.57 1.59,0.16 1.57,-0.25 1.45,-0.63 1.23,-0.98 0.93,-1.25 0.58,-1.44 0.19,-1.53 -0.21,-1.53 -0.58,-1.41 -0.92,-1.21 -1.19,-0.93 -1.38,-0.59 -1.48,-0.22 -1.48,0.17 -1.38,0.54 -1.19,0.87 -0.92,1.14 -0.60,1.33 -0.24,1.43 0.13,1.43 0.49,1.34 0.81,1.17 1.08,0.91 1.27,0.61 1.37,0.26 1.38,-0.10 1.30,-0.44 1.14,-0.76 0.90,-1.01 0.61,-1.20 0.28,-1.31 -0.06,-1.33 -0.40,-1.26 -0.70,-1.11 -0.95,-0.88 -1.14,-0.61 -1.25,-0.29 -1.27,0.04 -1.21,0.36 -1.07,0.65 -0.86,0.89 -0.60,1.08 -0.30,1.18 0.01,1.21 0.31,1.16 0.60,1.03 0.83,0.84 1.01,0.59 1.12,0.31 1.15,0.02 1.11,-0.27 0.99,-0.54 0.81,-0.77 0.58,-0.94 0.32,-1.05 0.04,-1.09 -0.24,-1.05 -0.49,-0.95 -0.71,-0.78 -0.88,-0.57 -0.98,-0.32 -1.02,-0.06 -0.99,0.20 -0.90,0.44 -0.75,0.65 -0.55,0.81 -0.32,0.92 -0.08,0.96 0.17,0.93 0.40,0.85 0.59,0.71 0.75,0.53 0.85,0.32 0.89,0.09 0.87,-0.14 0.79,-0.35 0.67,-0.54 0.50,-0.68 0.31,-0.78 0.10,-0.82 -0.11,-0.80 -0.31,-0.74 -0.48,-0.63 -0.61,-0.48 -0.71,-0.30 -0.75,-0.11 -0.74,0.09 -0.68,0.27 -0.58,0.42 -0.44,0.55 -0.28,0.63 -0.11,0.67 0.06,0.67 0.23,0.62 0.37,0.53 0.49,0.41 0.56,0.27 0.60,0.11 0.60,-0.04 0.56,-0.19 0.48,-0.32 0.37,-0.42 0.25,-0.49 0.11,-0.53 -0.03,-0.53 -0.16,-0.49 -0.27,-0.42 -0.36,-0.33 -0.42,-0.22 -0.45,-0.11 -0.45,0.01 -0.42,0.13 -0.37,0.22 -0.29,0.30 -0.20,0.35 -0.10,0.38 0.00,0.38 0.10,0.35 0.18,0.31 0.24,0.24 0.29,0.17 0.31,0.08 0.31,0.00 0.28,-0.07 0.25,-0.14 0.19,-0.19 0.13,-0.22 0.07,-0.23 0.01,-0.23 -0.05,-0.21 -0.10,-0.18 -0.13,-0.14 -0.15,-0.10 -0.16,-0.05 -0.16,-0.01 -0.14,0.03 -0.12,0.06 -0.09,0.08 -0.06,0.09 -0.03,0.09 -0.01,0.08 0.01,0.07 0.02,0.05 0.03,0.03 0.02,0.02 0.02,0.01 0.00,0.00 -0.01,0.00 -0.02,0.01 -0.03,0.02 -0.03,0.04 -0.02,0.05 -0.01,0.07 0.01,0.08 0.04,0.09 0.07,0.09 0.10,0.07 0.12,0.05 0.14,0.02 0.16,-0.02 0.16,-0.06 0.15,-0.11 0.12,-0.15 0.09,-0.19 0.04,-0.22 -0.02,-0.23 -0.09,-0.23 -0.15,-0.21 -0.21,-0.17 -0.26,-0.12 -0.29,-0.05 -0.31,0.02 -0.30,0.11 -0.28,0.19 -0.23,0.26 -0.16,0.32 -0.07,0.36 0.02,0.38 0.12,0.38 0.22,0.34 0.31,0.28 0.38,0.20 0.43,0.10 0.46,-0.02 0.45,-0.14 0.41,-0.25 0.34,-0.36 0.24,-0.44 0.13,-0.50 -0.01,-0.53 -0.15,-0.52 -0.28,-0.48 -0.40,-0.40 -0.50,-0.29 -0.57,-0.16 -0.60,-0.01 -0.60,0.15 -0.55,0.30 -0.46,0.44 -0.34,0.56 -0.19,0.64 -0.02,0.67 0.16,0.67 0.33,0.62 0.48,0.52 0.61,0.39 0.70,0.22 0.74,0.04 0.74,-0.16 0.69,-0.34 0.58,-0.52 0.44,-0.66 0.26,-0.76 0.06,-0.81 -0.15,-0.81 -0.36,-0.76 -0.55,-0.65 -0.71,-0.49 -0.82,-0.30 -0.88,-0.08 -0.88,0.15 -0.83,0.37 -0.71,0.58 -0.55,0.75 -0.34,0.87 -0.11,0.94 0.14,0.95 0.38,0.90 0.60,0.78 0.79,0.60 0.93,0.39 1.01,0.14 1.02,-0.13 0.96,-0.39 0.84,-0.63 0.66,-0.83 0.43,-0.98 0.17,-1.07 -0.11,-1.09 -0.39,-1.03 -0.64,-0.91 -0.86,-0.72 -1.03,-0.48 -1.13,-0.20 -1.15,0.09 -1.10,0.39 -0.97,0.66 -0.78,0.89 -0.53,1.07 -0.24,1.18 0.07,1.21 0.38,1.16 0.67,1.04 0.92,0.84 1.11,0.58 1.23,0.28 1.27,-0.05 1.23,-0.37 1.10,-0.68 0.90,-0.95 0.63,-1.15 0.32,-1.28 -0.02,-1.33 -0.36,-1.29 -0.69,-1.16 -0.97,-0.96 -1.19,-0.68 -1.33,-0.36 -1.39,-0.01 -1.35,0.35 -1.23,0.69 -1.02,0.98 -0.74,1.22 -0.40,1.37 -0.04,1.44 0.33,1.41 0.69,1.29 1.00,1.07 1.25,0.79 1.41,0.45 1.49,0.07 1.47,-0.31 1.35,-0.68 1.13,-1.01 0.84,-1.27 0.49,-1.45 0.11,-1.54 -0.29,-1.52 -0.67,-1.40 -1.01,-1.19 -1.29,-0.90 -1.49,-0.54 -1.58,-0.14 -1.57,0.27 -1.46,0.66 -1.25,1.02 -0.95,1.31" />
</g>
</svg>