<svg xmlns="http://www.w3.org/2000/svg" width="161.8" height="100.0" viewBox="-2.9 -5.0 171.8 110.0">
<g fill="none" stroke="black" stroke-width="0.4750%" transform="translate(0, 100.0000) scale(1.0526, -1.0526)">
<circle cx="2.0" cy="0.0" r="0.5" />
<circle cx="4.0" cy="0.0" r="0.5" />
<circle cx="6.1" cy="3.0" r="0.5" />
<circle cx="8.1" cy="0.0" r="0.5" />
<circle cx="10.1" cy="5.0" r="0.5" />
<circle cx="12.1" cy="6.0" r="0.5" />
<circle cx="14.2" cy="3.0" r="0.5" />
<circle cx="16.2" cy="0.0" r="0.5" />
<circle cx="18.2" cy="9.0" r="0.5" />
<circle cx="20.2" cy="10.0" r="0.5" />
<circle cx="22.2" cy="15.0" r="0.5" />
<circle cx="24.3" cy="12.0" r="0.5" />
<circle cx="26.3" cy="5.0" r="0.5" />
<circle cx="28.3" cy="6.0" r="0.5" />
<circle cx="30.3" cy="3.0" r="0.5" />
<circle cx="32.4" cy="0.0" r="0.5" />
<circle cx="34.4" cy="17.0" r="0.5" />
<circle cx="36.4" cy="18.0" r="0.5" />
<circle cx="38.4" cy="23.0" r="0.5" />
<circle cx="40.5" cy="20.0" r="0.5" />
<circle cx="42.5" cy="29.0" r="0.5" />
<circle cx="44.5" cy="30.0" r="0.5" />
<circle cx="46.5" cy="27.0" r="0.5" />
<circle cx="48.5" cy="24.0" r="0.5" />
<circle cx="50.6" cy="9.0" r="0.5" />
<circle cx="52.6" cy="10.0" r="0.5" />
<circle cx="54.6" cy="15.0" r="0.5" />
<circle cx="56.6" cy="12.0" r="0.5" />
<circle cx="58.7" cy="5.0" r="0.5" />
<circle cx="60.7" cy="6.0" r="0.5" />
<circle cx="62.7" cy="3.0" r="0.5" />
<circle cx="64.7" cy="0.0" r="0.5" />
<circle cx="66.7" cy="33.0" r="0.5" />
<circle cx="68.8" cy="34.0" r="0.5" />
<circle cx="70.8" cy="39.0" r="0.5" />
<circle cx="72.8" cy="36.0" r="0.5" />
<circle cx="74.8" cy="45.0" r="0.5" />
<circle cx="76.9" cy="46.0" r="0.5" />
<circle cx="78.9" cy="43.0" r="0.5" />
<circle cx="80.9" cy="40.0" r="0.5" />
<circle cx="82.9" cy="57.0" r="0.5" />
<circle cx="84.9" cy="58.0" r="0.5" />
<circle cx="87.0" cy="63.0" r="0.5" />
<circle cx="89.0" cy="60.0" r="0.5" />
<circle cx="91.0" cy="53.0" r="0.5" />
<circle cx="93.0" cy="54.0" r="0.5" />
<circle cx="95.1" cy="51.0" r="0.5" />
<circle cx="97.1" cy="48.0" r="0.5" />
<circle cx="99.1" cy="17.0" r="0.5" />
<circle cx="101.1" cy="18.0" r="0.5" />
<circle cx="103.1" cy="23.0" r="0.5" />
<circle cx="105.2" cy="20.0" r="0.5" />
<circle cx="107.2" cy="29.0" r="0.5" />
<circle cx="109.2" cy="30.0" r="0.5" />
<circle cx="111.2" cy="27.0" r="0.5" />
<circle cx="113.3" cy="24.0" r="0.5" />
<circle cx="115.3" cy="9.0" r="0.5" />
<circle cx="117.3" cy="10.0" r="0.5" />
<circle cx="119.3" cy="15.0" r="0.5" />
<circle cx="121.4" cy="12.0" r="0.5" />
<circle cx="123.4" cy="5.0" r="0.5" />
<circle cx="125.4" cy="6.0" r="0.5" />
<circle cx="127.4" cy="3.0" r="0.5" />
<circle cx="129.4" cy="0.0" r="0.5" />
<circle cx="131.5" cy="65.0" r="0.5" />
<circle cx="133.5" cy="66.0" r="0.5" />
<circle cx="135.5" cy="71.0" r="0.5" />
<circle cx="137.5" cy="68.0" r="0.5" />
<circle cx="139.6" cy="77.0" r="0.5" />
<circle cx="141.6" cy="78.0" r="0.5" />
<circle cx="143.6" cy="75.0" r="0.5" />
<circle cx="145.6" cy="72.0" r="0.5" />
<circle cx="147.6" cy="89.0" r="0.5" />
<circle cx="149.7" cy="90.0" r="0.5" />
<circle cx="151.7" cy="95.0" r="0.5" />
<circle cx="153.7" cy="92.0" r="0.5" />
<circle cx="155.7" cy="85.0" r="0.5" />
</g>
</svg>