<svg xmlns="http://www.w3.org/2000/svg" width="161.8" height="100.0" viewBox="-4 -56 172 110">
<g fill="none" stroke="black" stroke-width="2.3850%" transform="translate(0, -1.8868) scale(0.2096, -0.2096)">
<circle cx="3" cy="0" r="2" />
<circle cx="6" cy="1" r="2" />
<circle cx="9" cy="2" r="2" />
<circle cx="12" cy="0" r="2" />
<circle cx="15" cy="-3" r="2" />
<circle cx="19" cy="-5" r="2" />
<circle cx="22" cy="-2" r="2" />
<circle cx="25" cy="5" r="2" />
<circle cx="28" cy="8" r="2" />
<circle cx="31" cy="4" r="2" />
<circle cx="34" cy="-5" r="2" />
<circle cx="37" cy="-11" r="2" />
<circle cx="40" cy="-6" r="2" />
<circle cx="43" cy="5" r="2" />
<circle cx="46" cy="14" r="2" />
<circle cx="49" cy="10" r="2" />
<circle cx="52" cy="-5" r="2" />
<circle cx="56" cy="-16" r="2" />
<circle cx="59" cy="-14" r="2" />
<circle cx="62" cy="3" r="2" />
<circle cx="65" cy="18" r="2" />
<circle cx="68" cy="18" r="2" />
<circle cx="71" cy="0" r="2" />
<circle cx="74" cy="-19" r="2" />
<circle cx="77" cy="-22" r="2" />
<circle cx="80" cy="-3" r="2" />
<circle cx="83" cy="20" r="2" />
<circle cx="86" cy="26" r="2" />
<circle cx="90" cy="8" r="2" />
<circle cx="93" cy="-19" r="2" />
<circle cx="96" cy="-30" r="2" />
<circle cx="99" cy="-13" r="2" />
<circle cx="102" cy="18" r="2" />
<circle cx="105" cy="33" r="2" />
<circle cx="108" cy="18" r="2" />
<circle cx="111" cy="-15" r="2" />
<circle cx="114" cy="-36" r="2" />
<circle cx="117" cy="-24" r="2" />
<circle cx="120" cy="11" r="2" />
<circle cx="123" cy="38" r="2" />
<circle cx="127" cy="30" r="2" />
<circle cx="130" cy="-7" r="2" />
<circle cx="133" cy="-38" r="2" />
<circle cx="136" cy="-36" r="2" />
<circle cx="139" cy="1" r="2" />
<circle cx="142" cy="38" r="2" />
<circle cx="145" cy="41" r="2" />
<circle cx="148" cy="6" r="2" />
<circle cx="151" cy="-37" r="2" />
<circle cx="154" cy="-47" r="2" />
<circle cx="157" cy="-13" r="2" />
<circle cx="161" cy="34" r="2" />
<circle cx="164" cy="51" r="2" />
<circle cx="167" cy="21" r="2" />
<circle cx="170" cy="-30" r="2" />
<circle cx="173" cy="-55" r="2" />
<circle cx="176" cy="-29" r="2" />
<circle cx="179" cy="25" r="2" />
<circle cx="182" cy="58" r="2" />
<circle cx="185" cy="38" r="2" />
<circle cx="188" cy="-18" r="2" />
<circle cx="191" cy="-59" r="2" />
<circle cx="194" cy="-46" r="2" />
<circle cx="198" cy="11" r="2" />
<circle cx="201" cy="59" r="2" />
<circle cx="204" cy="54" r="2" />
<circle cx="207" cy="-2" r="2" />
<circle cx="210" cy="-57" r="2" />
<circle cx="213" cy="-61" r="2" />
<circle cx="216" cy="-8" r="2" />
<circle cx="219" cy="54" r="2" />
<circle cx="222" cy="68" r="2" />
<circle cx="225" cy="18" r="2" />
<circle cx="228" cy="-49" r="2" />
<circle cx="232" cy="-73" r="2" />
<circle cx="235" cy="-29" r="2" />
<circle cx="238" cy="43" r="2" />
<circle cx="241" cy="77" r="2" />
<circle cx="244" cy="40" r="2" />
<circle cx="247" cy="-35" r="2" />
<circle cx="250" cy="-80" r="2" />
<circle cx="253" cy="-51" r="2" />
<circle cx="256" cy="26" r="2" />
<circle cx="259" cy="80" r="2" />
<circle cx="262" cy="62" r="2" />
<circle cx="265" cy="-15" r="2" />
<circle cx="269" cy="-79" r="2" />
<circle cx="272" cy="-71" r="2" />
<circle cx="275" cy="3" r="2" />
<circle cx="278" cy="77" r="2" />
<circle cx="281" cy="80" r="2" />
<circle cx="284" cy="10" r="2" />
<circle cx="287" cy="-72" r="2" />
<circle cx="290" cy="-88" r="2" />
<circle cx="293" cy="-23" r="2" />
<circle cx="296" cy="65" r="2" />
<circle cx="299" cy="94" r="2" />
<circle cx="303" cy="37" r="2" />
<circle cx="306" cy="-56" r="2" />
<circle cx="309" cy="-99" r="2" />
<circle cx="312" cy="-51" r="2" />
<circle cx="315" cy="46" r="2" />
<circle cx="318" cy="101" r="2" />
<circle cx="321" cy="64" r="2" />
<circle cx="324" cy="-33" r="2" />
<circle cx="327" cy="-102" r="2" />
<circle cx="330" cy="-77" r="2" />
<circle cx="333" cy="20" r="2" />
<circle cx="337" cy="100" r="2" />
<circle cx="340" cy="89" r="2" />
<circle cx="343" cy="-5" r="2" />
<circle cx="346" cy="-96" r="2" />
<circle cx="349" cy="-100" r="2" />
<circle cx="352" cy="-11" r="2" />
<circle cx="355" cy="89" r="2" />
<circle cx="358" cy="109" r="2" />
<circle cx="361" cy="27" r="2" />
<circle cx="364" cy="-81" r="2" />
<circle cx="367" cy="-116" r="2" />
<circle cx="370" cy="-44" r="2" />
<circle cx="374" cy="70" r="2" />
<circle cx="377" cy="121" r="2" />
<circle cx="380" cy="61" r="2" />
<circle cx="383" cy="-57" r="2" />
<circle cx="386" cy="-123" r="2" />
<circle cx="389" cy="-77" r="2" />
<circle cx="392" cy="42" r="2" />
<circle cx="395" cy="124" r="2" />
<circle cx="398" cy="92" r="2" />
<circle cx="401" cy="-25" r="2" />
<circle cx="404" cy="-121" r="2" />
<circle cx="408" cy="-106" r="2" />
<circle cx="411" cy="7" r="2" />
<circle cx="414" cy="116" r="2" />
<circle cx="417" cy="119" r="2" />
<circle cx="420" cy="12" r="2" />
<circle cx="423" cy="-107" r="2" />
<circle cx="426" cy="-129" r="2" />
<circle cx="429" cy="-31" r="2" />
<circle cx="432" cy="97" r="2" />
<circle cx="435" cy="137" r="2" />
<circle cx="438" cy="51" r="2" />
<circle cx="441" cy="-83" r="2" />
<circle cx="445" cy="-143" r="2" />
<circle cx="448" cy="-71" r="2" />
<circle cx="451" cy="68" r="2" />
<circle cx="454" cy="145" r="2" />
<circle cx="457" cy="90" r="2" />
<circle cx="460" cy="-50" r="2" />
<circle cx="463" cy="-145" r="2" />
<circle cx="466" cy="-107" r="2" />
<circle cx="469" cy="31" r="2" />
<circle cx="472" cy="142" r="2" />
<circle cx="475" cy="123" r="2" />
<circle cx="479" cy="-10" r="2" />
<circle cx="482" cy="-135" r="2" />
<circle cx="485" cy="-138" r="2" />
<circle cx="488" cy="-12" r="2" />
<circle cx="491" cy="126" r="2" />
<circle cx="494" cy="149" r="2" />
<circle cx="497" cy="35" r="2" />
<circle cx="500" cy="-113" r="2" />
<circle cx="503" cy="-159" r="2" />
<circle cx="506" cy="-58" r="2" />
<circle cx="509" cy="98" r="2" />
<circle cx="512" cy="165" r="2" />
<circle cx="516" cy="80" r="2" />
<circle cx="519" cy="-79" r="2" />
<circle cx="522" cy="-168" r="2" />
<circle cx="525" cy="-102" r="2" />
<circle cx="528" cy="59" r="2" />
<circle cx="531" cy="167" r="2" />
<circle cx="534" cy="122" r="2" />
<circle cx="537" cy="-36" r="2" />
<circle cx="540" cy="-163" r="2" />
<circle cx="543" cy="-140" r="2" />
<circle cx="546" cy="12" r="2" />
<circle cx="550" cy="155" r="2" />
<circle cx="553" cy="156" r="2" />
<circle cx="556" cy="13" r="2" />
<circle cx="559" cy="-144" r="2" />
<circle cx="562" cy="-169" r="2" />
<circle cx="565" cy="-38" r="2" />
<circle cx="568" cy="130" r="2" />
<circle cx="571" cy="180" r="2" />
<circle cx="574" cy="64" r="2" />
<circle cx="577" cy="-112" r="2" />
<circle cx="580" cy="-186" r="2" />
<circle cx="583" cy="-89" r="2" />
<circle cx="587" cy="91" r="2" />
<circle cx="590" cy="190" r="2" />
<circle cx="593" cy="114" r="2" />
<circle cx="596" cy="-68" r="2" />
<circle cx="599" cy="-189" r="2" />
<circle cx="602" cy="-136" r="2" />
<circle cx="605" cy="43" r="2" />
<circle cx="608" cy="184" r="2" />
<circle cx="611" cy="157" r="2" />
<circle cx="614" cy="-16" r="2" />
<circle cx="617" cy="-175" r="2" />
<circle cx="621" cy="-175" r="2" />
<circle cx="624" cy="-12" r="2" />
<circle cx="627" cy="163" r="2" />
<circle cx="630" cy="189" r="2" />
<circle cx="633" cy="41" r="2" />
<circle cx="636" cy="-147" r="2" />
<circle cx="639" cy="-201" r="2" />
<circle cx="642" cy="-70" r="2" />
<circle cx="645" cy="127" r="2" />
<circle cx="648" cy="208" r="2" />
<circle cx="651" cy="98" r="2" />
<circle cx="654" cy="-104" r="2" />
<circle cx="658" cy="-212" r="2" />
<circle cx="661" cy="-125" r="2" />
<circle cx="664" cy="78" r="2" />
<circle cx="667" cy="211" r="2" />
<circle cx="670" cy="150" r="2" />
<circle cx="673" cy="-49" r="2" />
<circle cx="676" cy="-205" r="2" />
<circle cx="679" cy="-173" r="2" />
<circle cx="682" cy="19" r="2" />
<circle cx="685" cy="196" r="2" />
<circle cx="688" cy="193" r="2" />
<circle cx="692" cy="12" r="2" />
<circle cx="695" cy="-182" r="2" />
<circle cx="698" cy="-209" r="2" />
<circle cx="701" cy="-44" r="2" />
<circle cx="704" cy="164" r="2" />
<circle cx="707" cy="222" r="2" />
<circle cx="710" cy="76" r="2" />
<circle cx="713" cy="-142" r="2" />
<circle cx="716" cy="-230" r="2" />
<circle cx="719" cy="-107" r="2" />
<circle cx="722" cy="116" r="2" />
<circle cx="725" cy="234" r="2" />
<circle cx="729" cy="136" r="2" />
<circle cx="732" cy="-88" r="2" />
<circle cx="735" cy="-233" r="2" />
<circle cx="738" cy="-164" r="2" />
<circle cx="741" cy="57" r="2" />
<circle cx="744" cy="227" r="2" />
<circle cx="747" cy="189" r="2" />
<circle cx="750" cy="-24" r="2" />
<circle cx="753" cy="-216" r="2" />
<circle cx="756" cy="-211" r="2" />
<circle cx="759" cy="-11" r="2" />
<circle cx="763" cy="201" r="2" />
<circle cx="766" cy="229" r="2" />
<circle cx="769" cy="46" r="2" />
<circle cx="772" cy="-181" r="2" />
<circle cx="775" cy="-243" r="2" />
</g>
</svg>