<svg xmlns="http://www.w3.org/2000/svg" width="161.8" height="100.0" viewBox="-4.3 -2.4 171.8 110.0">
<g fill="none" stroke="black" stroke-width="0.1950%" transform="translate(0, 105.1282) scale(2.5641, -2.5641)">
<polyline points="0.3,1.0 0.5,1.0 0.5,1.0 0.8,1.0 0.8,2.0 1.1,2.0 1.1,3.0 1.4,3.0 1.4,3.0 1.6,3.0 1.6,4.0 1.9,4.0 1.9,4.0 2.2,4.0 2.2,5.0 2.5,5.0 2.5,5.0 2.7,5.0 2.7,6.0 3.0,6.0 3.0,6.0 3.3,6.0 3.3,7.0 3.6,7.0 3.6,7.0 3.8,7.0 3.8,7.0 4.1,7.0 4.1,8.0 4.4,8.0 4.4,8.0 4.7,8.0 4.7,9.0 4.9,9.0 4.9,9.0 5.2,9.0 5.2,10.0 5.5,10.0 5.5,10.0 5.8,10.0 5.8,10.0 6.0,10.0 6.0,11.0 6.3,11.0 6.3,11.0 6.6,11.0 6.6,11.0 6.9,11.0 6.9,12.0 7.1,12.0 7.1,12.0 7.4,12.0 7.4,12.0 7.7,12.0 7.7,13.0 8.0,13.0 8.0,13.0 8.2,13.0 8.2,13.0 8.5,13.0 8.5,14.0 8.8,14.0 8.8,14.0 9.1,14.0 9.1,14.0 9.3,14.0 9.3,15.0 9.6,15.0 9.6,15.0 9.9,15.0 9.9,15.0 10.2,15.0 10.2,15.0 10.4,15.0 10.4,16.0 10.7,16.0 10.7,16.0 11.0,16.0 11.0,16.0 11.2,16.0 11.2,16.0 11.5,16.0 11.5,17.0 11.8,17.0 11.8,17.0 12.1,17.0 12.1,17.0 12.3,17.0 12.3,17.0 12.6,17.0 12.6,18.0 12.9,18.0 12.9,18.0 13.2,18.0 13.2,18.0 13.4,18.0 13.4,18.0 13.7,18.0 13.7,19.0 14.0,19.0 14.0,19.0 14.3,19.0 14.3,19.0 14.5,19.0 14.5,19.0 14.8,19.0 14.8,19.0 15.1,19.0 15.1,20.0 15.4,20.0 15.4,20.0 15.6,20.0 15.6,20.0 15.9,20.0 15.9,20.0 16.2,20.0 16.2,21.0 16.5,21.0 16.5,21.0 16.7,21.0 16.7,21.0 17.0,21.0 17.0,21.0 17.3,21.0 17.3,21.0 17.6,21.0 17.6,22.0 17.8,22.0 17.8,22.0 18.1,22.0 18.1,22.0 18.4,22.0 18.4,22.0 18.7,22.0 18.7,22.0 18.9,22.0 18.9,22.0 19.2,22.0 19.2,23.0 19.5,23.0 19.5,23.0 19.8,23.0 19.8,23.0 20.0,23.0 20.0,23.0 20.3,23.0 20.3,23.0 20.6,23.0 20.6,24.0 20.9,24.0 20.9,24.0 21.1,24.0 21.1,24.0 21.4,24.0 21.4,24.0 21.7,24.0 21.7,24.0 21.9,24.0 21.9,24.0 22.2,24.0 22.2,25.0 22.5,25.0 22.5,25.0 22.8,25.0 22.8,25.0 23.0,25.0 23.0,25.0 23.3,25.0 23.3,25.0 23.6,25.0 23.6,25.0 23.9,25.0 23.9,25.0 24.1,25.0 24.1,26.0 24.4,26.0 24.4,26.0 24.7,26.0 24.7,26.0 25.0,26.0 25.0,26.0 25.2,26.0 25.2,26.0 25.5,26.0 25.5,26.0 25.8,26.0 25.8,27.0 26.1,27.0 26.1,27.0 26.3,27.0 26.3,27.0 26.6,27.0 26.6,27.0 26.9,27.0 26.9,27.0 27.2,27.0 27.2,27.0 27.4,27.0 27.4,27.0 27.7,27.0 27.7,27.0 28.0,27.0 28.0,28.0 28.3,28.0 28.3,28.0 28.5,28.0 28.5,28.0 28.8,28.0 28.8,28.0 29.1,28.0 29.1,28.0 29.4,28.0 29.4,28.0 29.6,28.0 29.6,28.0 29.9,28.0 29.9,29.0 30.2,29.0 30.2,29.0 30.5,29.0 30.5,29.0 30.7,29.0 30.7,29.0 31.0,29.0 31.0,29.0 31.3,29.0 31.3,29.0 31.6,29.0 31.6,29.0 31.8,29.0 31.8,29.0 32.1,29.0 32.1,30.0 32.4,30.0 32.4,30.0 32.6,30.0 32.6,30.0 32.9,30.0 32.9,30.0 33.2,30.0 33.2,30.0 33.5,30.0 33.5,30.0 33.7,30.0 33.7,30.0 34.0,30.0 34.0,30.0 34.3,30.0 34.3,30.0 34.6,30.0 34.6,31.0 34.8,31.0 34.8,31.0 35.1,31.0 35.1,31.0 35.4,31.0 35.4,31.0 35.7,31.0 35.7,31.0 35.9,31.0 35.9,31.0 36.2,31.0 36.2,31.0 36.5,31.0 36.5,31.0 36.8,31.0 36.8,31.0 37.0,31.0 37.0,32.0 37.3,32.0 37.3,32.0 37.6,32.0 37.6,32.0 37.9,32.0 37.9,32.0 38.1,32.0 38.1,32.0 38.4,32.0 38.4,32.0 38.7,32.0 38.7,32.0 39.0,32.0 39.0,32.0 39.2,32.0 39.2,32.0 39.5,32.0 39.5,33.0 39.8,33.0 39.8,33.0 40.1,33.0 40.1,33.0 40.3,33.0 40.3,33.0 40.6,33.0 40.6,33.0 40.9,33.0 40.9,33.0 41.2,33.0 41.2,33.0 41.4,33.0 41.4,33.0 41.7,33.0 41.7,33.0 42.0,33.0 42.0,33.0 42.3,33.0 42.3,34.0 42.5,34.0 42.5,34.0 42.8,34.0 42.8,34.0 43.1,34.0 43.1,34.0 43.3,34.0 43.3,34.0 43.6,34.0 43.6,34.0 43.9,34.0 43.9,34.0 44.2,34.0 44.2,34.0 44.4,34.0 44.4,34.0 44.7,34.0 44.7,34.0 45.0,34.0 45.0,34.0 45.3,34.0 45.3,35.0 45.5,35.0 45.5,35.0 45.8,35.0 45.8,35.0 46.1,35.0 46.1,35.0 46.4,35.0 46.4,35.0 46.6,35.0 46.6,35.0 46.9,35.0 46.9,35.0 47.2,35.0 47.2,35.0 47.5,35.0 47.5,35.0 47.7,35.0 47.7,35.0 48.0,35.0 48.0,35.0 48.3,35.0 48.3,36.0 48.6,36.0 48.6,36.0 48.8,36.0 48.8,36.0 49.1,36.0 49.1,36.0 49.4,36.0 49.4,36.0 49.7,36.0 49.7,36.0 49.9,36.0 49.9,36.0 50.2,36.0 50.2,36.0 50.5,36.0 50.5,36.0 50.8,36.0 50.8,36.0 51.0,36.0 51.0,36.0 51.3,36.0 51.3,36.0 51.6,36.0 51.6,37.0 51.9,37.0 51.9,37.0 52.1,37.0 52.1,37.0 52.4,37.0 52.4,37.0 52.7,37.0 52.7,37.0 53.0,37.0 53.0,37.0 53.2,37.0 53.2,37.0 53.5,37.0 53.5,37.0 53.8,37.0 53.8,37.0 54.0,37.0 54.0,37.0 54.3,37.0 54.3,37.0 54.6,37.0 54.6,37.0 54.9,37.0 54.9,37.0 55.1,37.0 55.1,38.0 55.4,38.0 55.4,38.0 55.7,38.0 55.7,38.0 56.0,38.0 56.0,38.0 56.2,38.0 56.2,38.0 56.5,38.0 56.5,38.0 56.8,38.0 56.8,38.0 57.1,38.0 57.1,38.0 57.3,38.0 57.3,38.0 57.6,38.0 57.6,38.0 57.9,38.0 57.9,38.0 58.2,38.0 58.2,38.0 58.4,38.0 58.4,38.0 58.7,38.0 58.7,39.0 59.0,39.0 59.0,39.0 59.3,39.0 59.3,39.0 59.5,39.0 59.5,39.0 59.8,39.0 59.8,39.0 60.1,39.0 60.1,39.0 60.4,39.0 60.4,39.0 60.6,39.0 60.6,39.0 60.9,39.0 60.9,39.0 61.2,39.0 61.2,39.0 61.5,39.0 61.5,39.0 61.7,39.0 61.7,39.0 62.0,39.0 62.0,39.0 62.3,39.0 62.3,39.0 62.6,39.0 62.6,39.0 62.8,39.0 62.8,40.0 63.1,40.0 63.1,40.0 63.4,40.0" />
</g>
</svg>