<svg xmlns="http://www.w3.org/2000/svg" width="161.8" height="100.0" viewBox="-5.000 -54.596 171.803 110.000">
<g fill="none" stroke="black" stroke-width="0.0049%" transform="translate(0, 0.8082) scale(101.2132, -101.2132)">
<circle cx="0.000" cy="0.000" r="0.005" />
<circle cx="0.000" cy="0.498" r="0.005" />
<polyline points="0.000,0.000 0.016,0.400 0.032,-0.434 0.048,-0.307 0.064,-0.200 0.080,-0.106 0.096,-0.020 0.112,0.058 0.128,0.131 0.144,0.200 0.160,0.265 0.176,0.327 0.192,0.386 0.208,0.442 0.224,0.497 0.240,-0.451 0.256,-0.400 0.272,-0.351 0.288,-0.303 0.304,-0.256 0.320,-0.211 0.336,-0.167 0.352,-0.124 0.368,-0.082 0.384,-0.040 0.400,0.000 0.416,0.040 0.432,0.078 0.448,0.117 0.464,0.154 0.480,0.191 0.496,0.227 0.512,0.263 0.528,0.298 0.544,0.332 0.560,0.366 0.576,0.400 0.591,0.433 0.607,0.466 0.623,0.498 0.639,-0.470 0.655,-0.439 0.671,-0.408 0.687,-0.377 0.703,-0.347 0.719,-0.317 0.735,-0.287 0.751,-0.258 0.767,-0.229 0.783,-0.200 0.799,-0.172 0.815,-0.143 0.831,-0.116 0.847,-0.088 0.863,-0.061 0.879,-0.034 0.895,-0.007 0.911,0.020 0.927,0.046 0.943,0.072 0.959,0.098 0.975,0.124 0.991,0.150 1.007,0.175 1.023,0.200 1.039,0.225 1.055,0.250 1.071,0.274 1.087,0.298 1.103,0.323 1.119,0.347 1.135,0.370 1.151,0.394 1.167,0.418 1.183,0.441 1.199,0.464 1.215,0.487 1.231,-0.490 1.247,-0.467 1.263,-0.445 1.279,-0.422 1.295,-0.400 1.311,-0.378 1.327,-0.356 1.343,-0.334 1.359,-0.312 1.375,-0.291 1.391,-0.269 1.407,-0.248 1.423,-0.226 1.439,-0.205 1.455,-0.184 1.471,-0.163 1.487,-0.143 1.503,-0.122 1.519,-0.101 1.535,-0.081 1.551,-0.060 1.567,-0.040 1.583,-0.020 1.599,0.000" />
</g>
</svg>