<svg xmlns="http://www.w3.org/2000/svg" width="100.0" height="100.0" viewBox="-55.00 -55.00 110.00 110.00">
<g fill="none" stroke="black" stroke-width="0.0300%" transform="translate(0, 0.0000) scale(16.6667, -16.6667)">
<circle cx="-3.00" cy="0.00" r="0.03" />
<circle cx="0.00" cy="3.00" r="0.03" />
<polyline points="-3.00,-3.00 -2.94,-3.00 -2.88,-3.00 -2.82,-3.00 -2.76,-3.00 -2.70,-3.00 -2.64,-3.00 -2.58,-3.00 -2.52,-3.00 -2.46,-2.00 -2.40,-2.00 -2.34,-2.00 -2.28,-2.00 -2.22,-2.00 -2.16,-2.00 -2.10,-2.00 -2.04,-2.00 -1.98,-2.00 -1.92,-2.00 -1.86,-2.00 -1.80,-2.00 -1.74,-2.00 -1.68,-2.00 -1.62,-2.00 -1.56,-2.00 -1.50,-1.00 -1.44,-1.00 -1.38,-1.00 -1.32,-1.00 -1.26,-1.00 -1.20,-1.00 -1.14,-1.00 -1.08,-1.00 -1.02,-1.00 -0.96,-1.00 -0.90,-1.00 -0.84,-1.00 -0.78,-1.00 -0.72,-1.00 -0.66,-1.00 -0.60,-1.00 -0.54,-1.00 -0.48,0.00 -0.42,0.00 -0.36,0.00 -0.30,0.00 -0.24,0.00 -0.18,0.00 -0.12,0.00 -0.06,0.00 0.00,0.00 0.06,0.00 0.12,0.00 0.18,0.00 0.24,0.00 0.30,0.00 0.36,0.00 0.42,0.00 0.48,0.00 0.54,1.00 0.60,1.00 0.66,1.00 0.72,1.00 0.78,1.00 0.84,1.00 0.90,1.00 0.96,1.00 1.02,1.00 1.08,1.00 1.14,1.00 1.20,1.00 1.26,1.00 1.32,1.00 1.38,1.00 1.44,1.00 1.50,2.00 1.56,2.00 1.62,2.00 1.68,2.00 1.74,2.00 1.80,2.00 1.86,2.00 1.92,2.00 1.98,2.00 2.04,2.00 2.10,2.00 2.16,2.00 2.22,2.00 2.28,2.00 2.34,2.00 2.40,2.00 2.46,2.00 2.52,3.00 2.58,3.00 2.64,3.00 2.70,3.00 2.76,3.00 2.82,3.00 2.88,3.00 2.94,3.00 3.00,3.00" />
</g>
</svg>