<svg xmlns="http://www.w3.org/2000/svg" width="161.8" height="100.0" viewBox="-4.35 -53.16 171.80 110.00">
<g fill="none" stroke="black" stroke-width="0.0390%" transform="translate(0, 3.6713) scale(12.8178, -12.8178)">
<circle cx="0.05" cy="0.00" r="0.04" />
<circle cx="0.10" cy="0.75" r="0.04" />
<circle cx="0.15" cy="-1.01" r="0.04" />
<circle cx="0.20" cy="0.00" r="0.04" />
<circle cx="0.25" cy="1.10" r="0.04" />
<circle cx="0.30" cy="-1.60" r="0.04" />
<circle cx="0.35" cy="-0.75" r="0.04" />
<circle cx="0.40" cy="1.17" r="0.04" />
<circle cx="0.45" cy="-2.10" r="0.04" />
<circle cx="0.50" cy="-1.01" r="0.04" />
<circle cx="0.56" cy="1.17" r="0.04" />
<circle cx="0.61" cy="-3.76" r="0.04" />
<circle cx="0.66" cy="-1.29" r="0.04" />
<circle cx="0.71" cy="1.17" r="0.04" />
<circle cx="0.76" cy="2.37" r="0.04" />
<circle cx="0.81" cy="-1.49" r="0.04" />
<circle cx="0.86" cy="1.10" r="0.04" />
<circle cx="0.91" cy="2.14" r="0.04" />
<circle cx="0.96" cy="-1.67" r="0.04" />
<circle cx="1.01" cy="0.90" r="0.04" />
<circle cx="1.06" cy="2.02" r="0.04" />
<circle cx="1.11" cy="-1.87" r="0.04" />
<circle cx="1.16" cy="0.00" r="0.04" />
<circle cx="1.21" cy="1.94" r="0.04" />
<circle cx="1.26" cy="-2.07" r="0.04" />
<circle cx="1.31" cy="-0.90" r="0.04" />
<circle cx="1.36" cy="1.86" r="0.04" />
<circle cx="1.41" cy="-2.31" r="0.04" />
<circle cx="1.46" cy="-1.29" r="0.04" />
<circle cx="1.51" cy="1.78" r="0.04" />
<circle cx="1.57" cy="-2.65" r="0.04" />
<circle cx="1.62" cy="-1.52" r="0.04" />
<circle cx="1.67" cy="1.69" r="0.04" />
<circle cx="1.72" cy="-3.76" r="0.04" />
<circle cx="1.77" cy="-1.69" r="0.04" />
<circle cx="1.82" cy="1.60" r="0.04" />
<circle cx="1.87" cy="2.81" r="0.04" />
<circle cx="1.92" cy="-1.86" r="0.04" />
<circle cx="1.97" cy="1.46" r="0.04" />
<circle cx="2.02" cy="2.51" r="0.04" />
<circle cx="2.07" cy="-2.02" r="0.04" />
<circle cx="2.12" cy="1.23" r="0.04" />
<circle cx="2.17" cy="2.35" r="0.04" />
<circle cx="2.22" cy="-2.17" r="0.04" />
<circle cx="2.27" cy="0.52" r="0.04" />
<circle cx="2.32" cy="2.23" r="0.04" />
<circle cx="2.37" cy="-2.35" r="0.04" />
<circle cx="2.42" cy="-1.17" r="0.04" />
<circle cx="2.47" cy="2.13" r="0.04" />
<circle cx="2.52" cy="-2.55" r="0.04" />
<circle cx="2.58" cy="-1.52" r="0.04" />
<circle cx="2.63" cy="2.03" r="0.04" />
<circle cx="2.68" cy="-2.86" r="0.04" />
<circle cx="2.73" cy="-1.73" r="0.04" />
<circle cx="2.78" cy="1.92" r="0.04" />
<circle cx="2.83" cy="-3.76" r="0.04" />
<circle cx="2.88" cy="-1.90" r="0.04" />
<circle cx="2.93" cy="1.82" r="0.04" />
<circle cx="2.98" cy="3.05" r="0.04" />
<circle cx="3.03" cy="-2.06" r="0.04" />
<circle cx="3.08" cy="1.65" r="0.04" />
<circle cx="3.13" cy="2.72" r="0.04" />
<circle cx="3.18" cy="-2.20" r="0.04" />
<circle cx="3.23" cy="1.42" r="0.04" />
<circle cx="3.28" cy="2.54" r="0.04" />
<circle cx="3.33" cy="-2.35" r="0.04" />
<circle cx="3.38" cy="0.75" r="0.04" />
<circle cx="3.43" cy="2.41" r="0.04" />
<circle cx="3.48" cy="-2.51" r="0.04" />
<circle cx="3.53" cy="-1.29" r="0.04" />
<circle cx="3.59" cy="2.30" r="0.04" />
<circle cx="3.64" cy="-2.70" r="0.04" />
<circle cx="3.69" cy="-1.65" r="0.04" />
<circle cx="3.74" cy="2.19" r="0.04" />
<circle cx="3.79" cy="-2.99" r="0.04" />
<circle cx="3.84" cy="-1.87" r="0.04" />
<circle cx="3.89" cy="2.08" r="0.04" />
<circle cx="3.94" cy="-3.76" r="0.04" />
<circle cx="3.99" cy="-2.04" r="0.04" />
<circle cx="4.04" cy="1.96" r="0.04" />
<circle cx="4.09" cy="3.22" r="0.04" />
<circle cx="4.14" cy="-2.18" r="0.04" />
<circle cx="4.19" cy="1.80" r="0.04" />
<circle cx="4.24" cy="2.87" r="0.04" />
<circle cx="4.29" cy="-2.32" r="0.04" />
<circle cx="4.34" cy="1.55" r="0.04" />
<circle cx="4.39" cy="2.68" r="0.04" />
<circle cx="4.44" cy="-2.46" r="0.04" />
<circle cx="4.49" cy="0.90" r="0.04" />
<circle cx="4.54" cy="2.54" r="0.04" />
<circle cx="4.59" cy="-2.62" r="0.04" />
<circle cx="4.65" cy="-1.38" r="0.04" />
<circle cx="4.70" cy="2.42" r="0.04" />
<circle cx="4.75" cy="-2.81" r="0.04" />
<circle cx="4.80" cy="-1.75" r="0.04" />
<circle cx="4.85" cy="2.31" r="0.04" />
<circle cx="4.90" cy="-3.08" r="0.04" />
<circle cx="4.95" cy="-1.97" r="0.04" />
<circle cx="5.00" cy="2.20" r="0.04" />
<circle cx="5.05" cy="-3.76" r="0.04" />
<circle cx="5.10" cy="-2.14" r="0.04" />
<circle cx="5.15" cy="2.07" r="0.04" />
<circle cx="5.20" cy="3.36" r="0.04" />
<circle cx="5.25" cy="-2.28" r="0.04" />
<circle cx="5.30" cy="1.91" r="0.04" />
<circle cx="5.35" cy="2.99" r="0.04" />
<circle cx="5.40" cy="-2.41" r="0.04" />
<circle cx="5.45" cy="1.67" r="0.04" />
<circle cx="5.50" cy="2.79" r="0.04" />
<circle cx="5.55" cy="-2.55" r="0.04" />
<circle cx="5.60" cy="1.10" r="0.04" />
<circle cx="5.66" cy="2.64" r="0.04" />
<circle cx="5.71" cy="-2.70" r="0.04" />
<circle cx="5.76" cy="-1.42" r="0.04" />
<circle cx="5.81" cy="2.52" r="0.04" />
<circle cx="5.86" cy="-2.89" r="0.04" />
<circle cx="5.91" cy="-1.82" r="0.04" />
<circle cx="5.96" cy="2.41" r="0.04" />
<circle cx="6.01" cy="-3.15" r="0.04" />
<circle cx="6.06" cy="-2.05" r="0.04" />
<circle cx="6.11" cy="2.30" r="0.04" />
<circle cx="6.16" cy="-3.76" r="0.04" />
<circle cx="6.21" cy="-2.21" r="0.04" />
<circle cx="6.26" cy="2.17" r="0.04" />
<circle cx="6.31" cy="3.49" r="0.04" />
<circle cx="6.36" cy="-2.36" r="0.04" />
<circle cx="6.41" cy="2.01" r="0.04" />
<circle cx="6.46" cy="3.09" r="0.04" />
<circle cx="6.51" cy="-2.49" r="0.04" />
<circle cx="6.56" cy="1.77" r="0.04" />
<circle cx="6.61" cy="2.88" r="0.04" />
<circle cx="6.67" cy="-2.62" r="0.04" />
<circle cx="6.72" cy="1.23" r="0.04" />
<circle cx="6.77" cy="2.73" r="0.04" />
<circle cx="6.82" cy="-2.77" r="0.04" />
<circle cx="6.87" cy="-1.46" r="0.04" />
<circle cx="6.92" cy="2.61" r="0.04" />
<circle cx="6.97" cy="-2.95" r="0.04" />
<circle cx="7.02" cy="-1.87" r="0.04" />
<circle cx="7.07" cy="2.49" r="0.04" />
<circle cx="7.12" cy="-3.20" r="0.04" />
<circle cx="7.17" cy="-2.11" r="0.04" />
<circle cx="7.22" cy="2.38" r="0.04" />
<circle cx="7.27" cy="-3.76" r="0.04" />
<circle cx="7.32" cy="-2.27" r="0.04" />
<circle cx="7.37" cy="2.25" r="0.04" />
<circle cx="7.42" cy="3.60" r="0.04" />
<circle cx="7.47" cy="-2.42" r="0.04" />
<circle cx="7.52" cy="2.09" r="0.04" />
<circle cx="7.57" cy="3.17" r="0.04" />
<circle cx="7.62" cy="-2.55" r="0.04" />
<circle cx="7.67" cy="1.86" r="0.04" />
<circle cx="7.73" cy="2.96" r="0.04" />
<circle cx="7.78" cy="-2.68" r="0.04" />
<circle cx="7.83" cy="1.38" r="0.04" />
<circle cx="7.88" cy="2.81" r="0.04" />
<circle cx="7.93" cy="-2.83" r="0.04" />
<circle cx="7.98" cy="-1.49" r="0.04" />
<circle cx="8.03" cy="2.68" r="0.04" />
<circle cx="8.08" cy="-3.00" r="0.04" />
<circle cx="8.13" cy="-1.92" r="0.04" />
<circle cx="8.18" cy="2.56" r="0.04" />
<circle cx="8.23" cy="-3.25" r="0.04" />
<circle cx="8.28" cy="-2.16" r="0.04" />
<circle cx="8.33" cy="2.45" r="0.04" />
<circle cx="8.38" cy="-3.76" r="0.04" />
<circle cx="8.43" cy="-2.33" r="0.04" />
<circle cx="8.48" cy="2.32" r="0.04" />
<circle cx="8.53" cy="3.71" r="0.04" />
<circle cx="8.58" cy="-2.47" r="0.04" />
<circle cx="8.63" cy="2.16" r="0.04" />
<circle cx="8.68" cy="3.25" r="0.04" />
<circle cx="8.74" cy="-2.60" r="0.04" />
<circle cx="8.79" cy="1.94" r="0.04" />
<circle cx="8.84" cy="3.03" r="0.04" />
<circle cx="8.89" cy="-2.73" r="0.04" />
<circle cx="8.94" cy="1.46" r="0.04" />
<circle cx="8.99" cy="2.87" r="0.04" />
<circle cx="9.04" cy="-2.88" r="0.04" />
<circle cx="9.09" cy="-1.49" r="0.04" />
<circle cx="9.14" cy="2.75" r="0.04" />
<circle cx="9.19" cy="-3.05" r="0.04" />
<circle cx="9.24" cy="-1.96" r="0.04" />
<circle cx="9.29" cy="2.63" r="0.04" />
<circle cx="9.34" cy="-3.28" r="0.04" />
<circle cx="9.39" cy="-2.20" r="0.04" />
<circle cx="9.44" cy="2.51" r="0.04" />
<circle cx="9.49" cy="-3.76" r="0.04" />
<circle cx="9.54" cy="-2.37" r="0.04" />
<circle cx="9.59" cy="2.38" r="0.04" />
<circle cx="9.64" cy="3.82" r="0.04" />
<circle cx="9.69" cy="-2.51" r="0.04" />
<circle cx="9.75" cy="2.23" r="0.04" />
<circle cx="9.80" cy="3.32" r="0.04" />
<circle cx="9.85" cy="-2.64" r="0.04" />
<circle cx="9.90" cy="2.01" r="0.04" />
<circle cx="9.95" cy="3.09" r="0.04" />
<circle cx="10.00" cy="-2.78" r="0.04" />
<circle cx="10.05" cy="1.58" r="0.04" />
<circle cx="10.10" cy="2.93" r="0.04" />
<circle cx="10.15" cy="-2.92" r="0.04" />
<circle cx="10.20" cy="-1.46" r="0.04" />
<circle cx="10.25" cy="2.80" r="0.04" />
<circle cx="10.30" cy="-3.09" r="0.04" />
<circle cx="10.35" cy="-1.99" r="0.04" />
<circle cx="10.40" cy="2.69" r="0.04" />
<circle cx="10.45" cy="-3.32" r="0.04" />
<circle cx="10.50" cy="-2.23" r="0.04" />
<circle cx="10.55" cy="2.57" r="0.04" />
<circle cx="10.60" cy="-3.76" r="0.04" />
<circle cx="10.65" cy="-2.41" r="0.04" />
<circle cx="10.70" cy="2.44" r="0.04" />
<circle cx="10.76" cy="3.93" r="0.04" />
<circle cx="10.81" cy="-2.55" r="0.04" />
<circle cx="10.86" cy="2.28" r="0.04" />
<circle cx="10.91" cy="3.39" r="0.04" />
<circle cx="10.96" cy="-2.68" r="0.04" />
<circle cx="11.01" cy="2.07" r="0.04" />
<circle cx="11.06" cy="3.15" r="0.04" />
<circle cx="11.11" cy="-2.81" r="0.04" />
<circle cx="11.16" cy="1.67" r="0.04" />
<circle cx="11.21" cy="2.99" r="0.04" />
<circle cx="11.26" cy="-2.95" r="0.04" />
<circle cx="11.31" cy="-1.46" r="0.04" />
<circle cx="11.36" cy="2.86" r="0.04" />
<circle cx="11.41" cy="-3.12" r="0.04" />
<circle cx="11.46" cy="-2.02" r="0.04" />
<circle cx="11.51" cy="2.74" r="0.04" />
<circle cx="11.56" cy="-3.34" r="0.04" />
<circle cx="11.61" cy="-2.27" r="0.04" />
<circle cx="11.66" cy="2.62" r="0.04" />
<circle cx="11.71" cy="-3.76" r="0.04" />
<circle cx="11.76" cy="-2.44" r="0.04" />
<circle cx="11.82" cy="2.49" r="0.04" />
<circle cx="11.87" cy="4.04" r="0.04" />
<circle cx="11.92" cy="-2.59" r="0.04" />
<circle cx="11.97" cy="2.34" r="0.04" />
<circle cx="12.02" cy="3.45" r="0.04" />
<circle cx="12.07" cy="-2.72" r="0.04" />
<circle cx="12.12" cy="2.13" r="0.04" />
<circle cx="12.17" cy="3.21" r="0.04" />
<circle cx="12.22" cy="-2.85" r="0.04" />
<circle cx="12.27" cy="1.75" r="0.04" />
<circle cx="12.32" cy="3.04" r="0.04" />
<circle cx="12.37" cy="-2.99" r="0.04" />
<circle cx="12.42" cy="-1.42" r="0.04" />
<circle cx="12.47" cy="2.90" r="0.04" />
<circle cx="12.52" cy="-3.15" r="0.04" />
<circle cx="12.57" cy="-2.04" r="0.04" />
<circle cx="12.62" cy="2.78" r="0.04" />
<circle cx="12.67" cy="-3.37" r="0.04" />
</g>
</svg>