<svg xmlns="http://www.w3.org/2000/svg" width="99.0" height="100.0" viewBox="-5.00 -5.00 109.00 110.00">
<g fill="none" stroke="black" stroke-width="0.0350%" transform="translate(0, 100.0000) scale(14.2857, -14.2857)">
<circle cx="0.00" cy="0.00" r="0.03" />
<circle cx="0.00" cy="7.00" r="0.03" />
<polyline points="0.00,0.00 0.07,0.00 0.14,0.00 0.21,0.00 0.28,0.00 0.35,0.00 0.42,0.00 0.49,0.00 0.56,1.00 0.63,1.00 0.70,1.00 0.77,1.00 0.84,1.00 0.91,1.00 0.98,1.00 1.05,1.00 1.12,1.00 1.19,1.00 1.26,1.00 1.33,1.00 1.40,1.00 1.47,1.00 1.54,2.00 1.61,2.00 1.68,2.00 1.75,2.00 1.82,2.00 1.89,2.00 1.96,2.00 2.03,2.00 2.10,2.00 2.17,2.00 2.24,2.00 2.31,2.00 2.38,2.00 2.45,2.00 2.52,3.00 2.59,3.00 2.66,3.00 2.73,3.00 2.80,3.00 2.87,3.00 2.94,3.00 3.01,3.00 3.08,3.00 3.15,3.00 3.22,3.00 3.29,3.00 3.36,3.00 3.43,3.00 3.50,3.00 3.57,4.00 3.64,4.00 3.71,4.00 3.78,4.00 3.85,4.00 3.92,4.00 3.99,4.00 4.06,4.00 4.13,4.00 4.20,4.00 4.27,4.00 4.34,4.00 4.41,4.00 4.48,4.00 4.55,5.00 4.62,5.00 4.69,5.00 4.76,5.00 4.83,5.00 4.90,5.00 4.97,5.00 5.04,5.00 5.11,5.00 5.18,5.00 5.25,5.00 5.32,5.00 5.39,5.00 5.46,5.00 5.53,6.00 5.60,6.00 5.67,6.00 5.74,6.00 5.81,6.00 5.88,6.00 5.95,6.00 6.02,6.00 6.09,6.00 6.16,6.00 6.23,6.00 6.30,6.00 6.37,6.00 6.44,6.00 6.51,7.00 6.58,7.00 6.65,7.00 6.72,7.00 6.79,7.00 6.86,7.00 6.93,7.00" />
</g>
</svg>