<svg xmlns="http://www.w3.org/2000/svg" width="161.8" height="100.0" viewBox="-4.183 -5.000 171.803 110.000">
<g fill="none" stroke="black" stroke-width="0.0050%" transform="translate(0, 100.0000) scale(100.0000, -100.0000)">





<line x1="0.049" y1="0.000" x2="0.049" y2="1.000" />



<line x1="0.082" y1="0.000" x2="0.082" y2="1.000" />







<line x1="0.147" y1="0.000" x2="0.147" y2="1.000" />


<line x1="0.172" y1="0.000" x2="0.172" y2="1.000" />
<line x1="0.180" y1="0.000" x2="0.180" y2="1.000" />







<line x1="0.245" y1="0.000" x2="0.245" y2="1.000" />

<line x1="0.262" y1="0.000" x2="0.262" y2="1.000" />









<line x1="0.343" y1="0.000" x2="0.343" y2="1.000" />


<line x1="0.368" y1="0.000" x2="0.368" y2="1.000" />
<line x1="0.376" y1="0.000" x2="0.376" y2="1.000" />











<line x1="0.474" y1="0.000" x2="0.474" y2="1.000" />







<line x1="0.539" y1="0.000" x2="0.539" y2="1.000" />

<line x1="0.556" y1="0.000" x2="0.556" y2="1.000" />

<line x1="0.572" y1="0.000" x2="0.572" y2="1.000" />







<line x1="0.637" y1="0.000" x2="0.637" y2="1.000" />



<line x1="0.670" y1="0.000" x2="0.670" y2="1.000" />


<line x1="0.695" y1="0.000" x2="0.695" y2="1.000" />





<line x1="0.744" y1="0.000" x2="0.744" y2="1.000" />

<line x1="0.760" y1="0.000" x2="0.760" y2="1.000" />








<line x1="0.834" y1="0.000" x2="0.834" y2="1.000" />



<line x1="0.866" y1="0.000" x2="0.866" y2="1.000" />







<line x1="0.932" y1="0.000" x2="0.932" y2="1.000" />


<line x1="0.956" y1="0.000" x2="0.956" y2="1.000" />








<line x1="1.030" y1="0.000" x2="1.030" y2="1.000" />

<line x1="1.046" y1="0.000" x2="1.046" y2="1.000" />

<line x1="1.062" y1="0.000" x2="1.062" y2="1.000" />


<line x1="1.087" y1="0.000" x2="1.087" y2="1.000" />




<line x1="1.128" y1="0.000" x2="1.128" y2="1.000" />

<line x1="1.144" y1="0.000" x2="1.144" y2="1.000" />
<line x1="1.152" y1="0.000" x2="1.152" y2="1.000" />








<line x1="1.226" y1="0.000" x2="1.226" y2="1.000" />











<line x1="1.324" y1="0.000" x2="1.324" y2="1.000" />


<line x1="1.348" y1="0.000" x2="1.348" y2="1.000" />
<line x1="1.357" y1="0.000" x2="1.357" y2="1.000" />




<line x1="1.397" y1="0.000" x2="1.397" y2="1.000" />




<line x1="1.438" y1="0.000" x2="1.438" y2="1.000" />

<line x1="1.455" y1="0.000" x2="1.455" y2="1.000" />








<line x1="1.528" y1="0.000" x2="1.528" y2="1.000" />


<line x1="1.553" y1="0.000" x2="1.553" y2="1.000" />







<line x1="1.618" y1="0.000" x2="1.618" y2="1.000" />

</g>
</svg>