<svg xmlns="http://www.w3.org/2000/svg" width="134.8" height="100.0" viewBox="-2.07 -5.00 144.84 110.00">
<g fill="none" stroke="black" stroke-width="0.0300%" transform="translate(0, 100.0000) scale(16.6667, -16.6667)">
<line x1="0.18" y1="0.00" x2="0.18" y2="1.00" />
<line x1="0.35" y1="0.00" x2="0.35" y2="2.00" />
<line x1="0.53" y1="0.00" x2="0.53" y2="1.00" />
<line x1="0.70" y1="0.00" x2="0.70" y2="3.00" />
<line x1="0.88" y1="0.00" x2="0.88" y2="1.00" />
<line x1="1.06" y1="0.00" x2="1.06" y2="2.00" />
<line x1="1.23" y1="0.00" x2="1.23" y2="1.00" />
<line x1="1.41" y1="0.00" x2="1.41" y2="4.00" />
<line x1="1.58" y1="0.00" x2="1.58" y2="1.00" />
<line x1="1.76" y1="0.00" x2="1.76" y2="2.00" />
<line x1="1.93" y1="0.00" x2="1.93" y2="1.00" />
<line x1="2.11" y1="0.00" x2="2.11" y2="3.00" />
<line x1="2.29" y1="0.00" x2="2.29" y2="1.00" />
<line x1="2.46" y1="0.00" x2="2.46" y2="2.00" />
<line x1="2.64" y1="0.00" x2="2.64" y2="1.00" />
<line x1="2.81" y1="0.00" x2="2.81" y2="5.00" />
<line x1="2.99" y1="0.00" x2="2.99" y2="1.00" />
<line x1="3.17" y1="0.00" x2="3.17" y2="2.00" />
<line x1="3.34" y1="0.00" x2="3.34" y2="1.00" />
<line x1="3.52" y1="0.00" x2="3.52" y2="3.00" />
<line x1="3.69" y1="0.00" x2="3.69" y2="1.00" />
<line x1="3.87" y1="0.00" x2="3.87" y2="2.00" />
<line x1="4.05" y1="0.00" x2="4.05" y2="1.00" />
<line x1="4.22" y1="0.00" x2="4.22" y2="4.00" />
<line x1="4.40" y1="0.00" x2="4.40" y2="1.00" />
<line x1="4.57" y1="0.00" x2="4.57" y2="2.00" />
<line x1="4.75" y1="0.00" x2="4.75" y2="1.00" />
<line x1="4.92" y1="0.00" x2="4.92" y2="3.00" />
<line x1="5.10" y1="0.00" x2="5.10" y2="1.00" />
<line x1="5.28" y1="0.00" x2="5.28" y2="2.00" />
<line x1="5.45" y1="0.00" x2="5.45" y2="1.00" />
<line x1="5.63" y1="0.00" x2="5.63" y2="6.00" />
<line x1="5.80" y1="0.00" x2="5.80" y2="1.00" />
<line x1="5.98" y1="0.00" x2="5.98" y2="2.00" />
<line x1="6.16" y1="0.00" x2="6.16" y2="1.00" />
<line x1="6.33" y1="0.00" x2="6.33" y2="3.00" />
<line x1="6.51" y1="0.00" x2="6.51" y2="1.00" />
<line x1="6.68" y1="0.00" x2="6.68" y2="2.00" />
<line x1="6.86" y1="0.00" x2="6.86" y2="1.00" />
<line x1="7.03" y1="0.00" x2="7.03" y2="4.00" />
<line x1="7.21" y1="0.00" x2="7.21" y2="1.00" />
<line x1="7.39" y1="0.00" x2="7.39" y2="2.00" />
<line x1="7.56" y1="0.00" x2="7.56" y2="1.00" />
<line x1="7.74" y1="0.00" x2="7.74" y2="3.00" />
<line x1="7.91" y1="0.00" x2="7.91" y2="1.00" />
<line x1="8.09" y1="0.00" x2="8.09" y2="2.00" />
<line x1="8.27" y1="0.00" x2="8.27" y2="1.00" />
</g>
</svg>