<?xml version="1.0" encoding="UTF-8" standalone="no"?>
<!DOCTYPE svg PUBLIC "-//W3C//DTD SVG 1.1//EN"
 "http://www.w3.org/Graphics/SVG/1.1/DTD/svg11.dtd">
<!-- Generated by graphviz version 12.0.0 (0)
 -->
<!-- Pages: 1 -->
<svg width="65pt" height="54pt"
 viewBox="0.00 0.00 65.35 54.00" xmlns="http://www.w3.org/2000/svg" xmlns:xlink="http://www.w3.org/1999/xlink">
<g id="graph0" class="graph" transform="scale(0.195652 0.195652) rotate(0) translate(4 272)">
<!-- 1 -->
<g id="node1" class="node">
<title>1</title>
<polygon fill="none" stroke="black" points="113.1,-268 48.9,-268 48.9,-243.2 113.1,-243.2 113.1,-268"/>
<text text-anchor="middle" x="81" y="-251.4" font-family="Times,serif" font-size="14.00">Tantalus</text>
</g>
<!-- 2 -->
<g id="node2" class="node">
<title>2</title>
<polygon fill="none" stroke="black" points="107.67,-207.2 54.33,-207.2 54.33,-182.4 107.67,-182.4 107.67,-207.2"/>
<text text-anchor="middle" x="81" y="-190.6" font-family="Times,serif" font-size="14.00">Pelops</text>
</g>
<!-- 1&#45;&gt;2 -->
<g id="edge1" class="edge">
<title>1&#45;&gt;2</title>
<path fill="none" stroke="black" stroke-width="0.75" d="M81,-242.7C81,-234.33 81,-222.99 81,-213.56"/>
<polygon fill="black" stroke="black" stroke-width="0.75" points="82.75,-213.82 81,-208.82 79.25,-213.82 82.75,-213.82"/>
</g>
<!-- 3 -->
<g id="node3" class="node">
<title>3</title>
<polygon fill="none" stroke="black" points="74.88,-146.4 9.12,-146.4 9.12,-121.6 74.88,-121.6 74.88,-146.4"/>
<text text-anchor="middle" x="42" y="-129.8" font-family="Times,serif" font-size="14.00">Thyestes</text>
</g>
<!-- 2&#45;&gt;3 -->
<g id="edge2" class="edge">
<title>2&#45;&gt;3</title>
<path fill="none" stroke="black" stroke-width="0.75" d="M73.11,-181.9C67.4,-173.29 59.6,-161.54 53.24,-151.95"/>
<polygon fill="black" stroke="black" stroke-width="0.75" points="54.73,-151.03 50.51,-147.83 51.81,-152.96 54.73,-151.03"/>
</g>
<!-- 5 -->
<g id="node5" class="node">
<title>5</title>
<polygon fill="none" stroke="black" points="151.66,-146.4 98.34,-146.4 98.34,-121.6 151.66,-121.6 151.66,-146.4"/>
<text text-anchor="middle" x="125" y="-129.8" font-family="Times,serif" font-size="14.00">Atreus</text>
</g>
<!-- 2&#45;&gt;5 -->
<g id="edge3" class="edge">
<title>2&#45;&gt;5</title>
<path fill="none" stroke="black" stroke-width="0.75" d="M89.9,-181.9C96.4,-173.21 105.3,-161.32 112.51,-151.69"/>
<polygon fill="black" stroke="black" stroke-width="0.75" points="113.83,-152.84 115.43,-147.79 111.03,-150.75 113.83,-152.84"/>
</g>
<!-- 4 -->
<g id="node4" class="node">
<title>4</title>
<polygon fill="none" stroke="black" points="72,-85.6 0,-85.6 0,-60.8 72,-60.8 72,-85.6"/>
<text text-anchor="middle" x="36" y="-69" font-family="Times,serif" font-size="14.00">Aegisthus</text>
</g>
<!-- 3&#45;&gt;4 -->
<g id="edge4" class="edge">
<title>3&#45;&gt;4</title>
<path fill="none" stroke="black" stroke-width="0.75" d="M40.79,-121.1C39.93,-112.73 38.77,-101.39 37.81,-91.96"/>
<polygon fill="black" stroke="black" stroke-width="0.75" points="39.58,-92.01 37.33,-87.21 36.09,-92.36 39.58,-92.01"/>
</g>
<!-- 6 -->
<g id="node6" class="node">
<title>6</title>
<polygon fill="none" stroke="black" points="160.21,-85.6 89.79,-85.6 89.79,-60.8 160.21,-60.8 160.21,-85.6"/>
<text text-anchor="middle" x="125" y="-69" font-family="Times,serif" font-size="14.00">Menelaus</text>
</g>
<!-- 5&#45;&gt;6 -->
<g id="edge5" class="edge">
<title>5&#45;&gt;6</title>
<path fill="none" stroke="black" stroke-width="0.75" d="M125,-121.1C125,-112.73 125,-101.39 125,-91.96"/>
<polygon fill="black" stroke="black" stroke-width="0.75" points="126.75,-92.22 125,-87.22 123.25,-92.22 126.75,-92.22"/>
</g>
<!-- 7 -->
<g id="node7" class="node">
<title>7</title>
<polygon fill="none" stroke="black" points="266.16,-85.6 177.84,-85.6 177.84,-60.8 266.16,-60.8 266.16,-85.6"/>
<text text-anchor="middle" x="222" y="-69" font-family="Times,serif" font-size="14.00">Agamemnon</text>
</g>
<!-- 5&#45;&gt;7 -->
<g id="edge6" class="edge">
<title>5&#45;&gt;7</title>
<path fill="none" stroke="black" stroke-width="0.75" d="M144.63,-121.1C159.88,-111.86 181.12,-98.98 197.49,-89.06"/>
<polygon fill="black" stroke="black" stroke-width="0.75" points="198.06,-90.76 201.43,-86.67 196.25,-87.77 198.06,-90.76"/>
</g>
<!-- 8 -->
<g id="node8" class="node">
<title>8</title>
<polygon fill="none" stroke="black" points="176.54,-24.8 101.46,-24.8 101.46,0 176.54,0 176.54,-24.8"/>
<text text-anchor="middle" x="139" y="-8.2" font-family="Times,serif" font-size="14.00">Iphigeneia</text>
</g>
<!-- 7&#45;&gt;8 -->
<g id="edge7" class="edge">
<title>7&#45;&gt;8</title>
<path fill="none" stroke="black" stroke-width="0.75" d="M205.2,-60.3C192.38,-51.22 174.6,-38.62 160.7,-28.77"/>
<polygon fill="black" stroke="black" stroke-width="0.75" points="161.79,-27.4 156.7,-25.94 159.77,-30.26 161.79,-27.4"/>
</g>
<!-- 9 -->
<g id="node9" class="node">
<title>9</title>
<polygon fill="none" stroke="black" points="249.82,-24.8 194.18,-24.8 194.18,0 249.82,0 249.82,-24.8"/>
<text text-anchor="middle" x="222" y="-8.2" font-family="Times,serif" font-size="14.00">Electra</text>
</g>
<!-- 7&#45;&gt;9 -->
<g id="edge8" class="edge">
<title>7&#45;&gt;9</title>
<path fill="none" stroke="black" stroke-width="0.75" d="M222,-60.3C222,-51.93 222,-40.59 222,-31.16"/>
<polygon fill="black" stroke="black" stroke-width="0.75" points="223.75,-31.42 222,-26.42 220.25,-31.42 223.75,-31.42"/>
</g>
<!-- 10 -->
<g id="node10" class="node">
<title>10</title>
<polygon fill="none" stroke="black" points="325.99,-24.8 268.01,-24.8 268.01,0 325.99,0 325.99,-24.8"/>
<text text-anchor="middle" x="297" y="-8.2" font-family="Times,serif" font-size="14.00">Orestes</text>
</g>
<!-- 7&#45;&gt;10 -->
<g id="edge9" class="edge">
<title>7&#45;&gt;10</title>
<path fill="none" stroke="black" stroke-width="0.75" d="M237.18,-60.3C248.66,-51.29 264.55,-38.84 277.06,-29.03"/>
<polygon fill="black" stroke="black" stroke-width="0.75" points="278.1,-30.44 280.95,-25.98 275.94,-27.69 278.1,-30.44"/>
</g>
</g>
</svg>
