<svg xmlns="http://www.w3.org/2000/svg" width="161.8" height="100.0" viewBox="-3.05 -55.00 171.80 110.00">
<g fill="none" stroke="black" stroke-width="0.0600%" transform="translate(0, 0.0000) scale(8.3333, -8.3333)">
<line x1="0.23" y1="0.00" x2="0.23" y2="1.00" />
<line x1="0.47" y1="0.00" x2="0.47" y2="-1.00" />
<line x1="0.70" y1="0.00" x2="0.70" y2="2.00" />
<line x1="0.94" y1="0.00" x2="0.94" y2="-2.00" />
<line x1="1.17" y1="0.00" x2="1.17" y2="1.00" />
<line x1="1.40" y1="0.00" x2="1.40" y2="-1.00" />
<line x1="1.64" y1="0.00" x2="1.64" y2="3.00" />
<line x1="1.87" y1="0.00" x2="1.87" y2="-3.00" />
<line x1="2.11" y1="0.00" x2="2.11" y2="1.00" />
<line x1="2.34" y1="0.00" x2="2.34" y2="-1.00" />
<line x1="2.57" y1="0.00" x2="2.57" y2="2.00" />
<line x1="2.81" y1="0.00" x2="2.81" y2="-2.00" />
<line x1="3.04" y1="0.00" x2="3.04" y2="1.00" />
<line x1="3.28" y1="0.00" x2="3.28" y2="-1.00" />
<line x1="3.51" y1="0.00" x2="3.51" y2="4.00" />
<line x1="3.74" y1="0.00" x2="3.74" y2="-4.00" />
<line x1="3.98" y1="0.00" x2="3.98" y2="1.00" />
<line x1="4.21" y1="0.00" x2="4.21" y2="-1.00" />
<line x1="4.44" y1="0.00" x2="4.44" y2="2.00" />
<line x1="4.68" y1="0.00" x2="4.68" y2="-2.00" />
<line x1="4.91" y1="0.00" x2="4.91" y2="1.00" />
<line x1="5.15" y1="0.00" x2="5.15" y2="-1.00" />
<line x1="5.38" y1="0.00" x2="5.38" y2="3.00" />
<line x1="5.61" y1="0.00" x2="5.61" y2="-3.00" />
<line x1="5.85" y1="0.00" x2="5.85" y2="1.00" />
<line x1="6.08" y1="0.00" x2="6.08" y2="-1.00" />
<line x1="6.32" y1="0.00" x2="6.32" y2="2.00" />
<line x1="6.55" y1="0.00" x2="6.55" y2="-2.00" />
<line x1="6.78" y1="0.00" x2="6.78" y2="1.00" />
<line x1="7.02" y1="0.00" x2="7.02" y2="-1.00" />
<line x1="7.25" y1="0.00" x2="7.25" y2="5.00" />
<line x1="7.49" y1="0.00" x2="7.49" y2="-5.00" />
<line x1="7.72" y1="0.00" x2="7.72" y2="1.00" />
<line x1="7.95" y1="0.00" x2="7.95" y2="-1.00" />
<line x1="8.19" y1="0.00" x2="8.19" y2="2.00" />
<line x1="8.42" y1="0.00" x2="8.42" y2="-2.00" />
<line x1="8.66" y1="0.00" x2="8.66" y2="1.00" />
<line x1="8.89" y1="0.00" x2="8.89" y2="-1.00" />
<line x1="9.12" y1="0.00" x2="9.12" y2="3.00" />
<line x1="9.36" y1="0.00" x2="9.36" y2="-3.00" />
<line x1="9.59" y1="0.00" x2="9.59" y2="1.00" />
<line x1="9.83" y1="0.00" x2="9.83" y2="-1.00" />
<line x1="10.06" y1="0.00" x2="10.06" y2="2.00" />
<line x1="10.29" y1="0.00" x2="10.29" y2="-2.00" />
<line x1="10.53" y1="0.00" x2="10.53" y2="1.00" />
<line x1="10.76" y1="0.00" x2="10.76" y2="-1.00" />
<line x1="10.99" y1="0.00" x2="10.99" y2="4.00" />
<line x1="11.23" y1="0.00" x2="11.23" y2="-4.00" />
<line x1="11.46" y1="0.00" x2="11.46" y2="1.00" />
<line x1="11.70" y1="0.00" x2="11.70" y2="-1.00" />
<line x1="11.93" y1="0.00" x2="11.93" y2="2.00" />
<line x1="12.16" y1="0.00" x2="12.16" y2="-2.00" />
<line x1="12.40" y1="0.00" x2="12.40" y2="1.00" />
<line x1="12.63" y1="0.00" x2="12.63" y2="-1.00" />
<line x1="12.87" y1="0.00" x2="12.87" y2="3.00" />
<line x1="13.10" y1="0.00" x2="13.10" y2="-3.00" />
<line x1="13.33" y1="0.00" x2="13.33" y2="1.00" />
<line x1="13.57" y1="0.00" x2="13.57" y2="-1.00" />
<line x1="13.80" y1="0.00" x2="13.80" y2="2.00" />
<line x1="14.04" y1="0.00" x2="14.04" y2="-2.00" />
<line x1="14.27" y1="0.00" x2="14.27" y2="1.00" />
<line x1="14.50" y1="0.00" x2="14.50" y2="-1.00" />
<line x1="14.74" y1="0.00" x2="14.74" y2="6.00" />
<line x1="14.97" y1="0.00" x2="14.97" y2="-6.00" />
<line x1="15.21" y1="0.00" x2="15.21" y2="1.00" />
<line x1="15.44" y1="0.00" x2="15.44" y2="-1.00" />
<line x1="15.67" y1="0.00" x2="15.67" y2="2.00" />
<line x1="15.91" y1="0.00" x2="15.91" y2="-2.00" />
<line x1="16.14" y1="0.00" x2="16.14" y2="1.00" />
<line x1="16.38" y1="0.00" x2="16.38" y2="-1.00" />
<line x1="16.61" y1="0.00" x2="16.61" y2="3.00" />
<line x1="16.84" y1="0.00" x2="16.84" y2="-3.00" />
<line x1="17.08" y1="0.00" x2="17.08" y2="1.00" />
<line x1="17.31" y1="0.00" x2="17.31" y2="-1.00" />
<line x1="17.54" y1="0.00" x2="17.54" y2="2.00" />
<line x1="17.78" y1="0.00" x2="17.78" y2="-2.00" />
<line x1="18.01" y1="0.00" x2="18.01" y2="1.00" />
<line x1="18.25" y1="0.00" x2="18.25" y2="-1.00" />
<line x1="18.48" y1="0.00" x2="18.48" y2="4.00" />
<line x1="18.71" y1="0.00" x2="18.71" y2="-4.00" />
<line x1="18.95" y1="0.00" x2="18.95" y2="1.00" />
<line x1="19.18" y1="0.00" x2="19.18" y2="-1.00" />
<line x1="19.42" y1="0.00" x2="19.42" y2="2.00" />
<line x1="19.65" y1="0.00" x2="19.65" y2="-2.00" />
</g>
</svg>