<svg xmlns="http://www.w3.org/2000/svg" width="161.8" height="100.0" viewBox="-4.461 -3.275 171.803 110.000">
<g fill="none" stroke="black" stroke-width="0.0055%" transform="translate(0, 103.4510) scale(90.7246, -90.7246)">
<polyline points="0.006,1.000 0.012,1.049 0.018,1.085 0.024,1.110 0.030,1.121 0.036,1.121 0.042,1.110 0.048,1.091 0.054,1.063 0.059,1.030 0.065,0.991 0.071,0.949 0.077,0.904 0.083,0.858 0.089,0.810 0.095,0.761 0.101,0.713 0.107,0.665 0.113,0.618 0.119,0.572 0.125,0.528 0.131,0.486 0.137,0.446 0.143,0.408 0.149,0.372 0.155,0.338 0.161,0.307 0.166,0.279 0.172,0.252 0.178,0.228 0.184,0.207 0.190,0.187 0.196,0.170 0.202,0.154 0.208,0.140 0.214,0.128 0.220,0.118 0.226,0.108 0.232,0.100 0.238,0.094 0.244,0.088 0.250,0.083 0.256,0.080 0.262,0.077 0.268,0.075 0.273,0.073 0.279,0.073 0.285,0.073 0.291,0.073 0.297,0.075 0.303,0.077 0.309,0.081 0.315,0.085 0.321,0.090 0.327,0.096 0.333,0.103 0.339,0.112 0.345,0.122 0.351,0.134 0.357,0.147 0.363,0.163 0.369,0.180 0.375,0.198 0.380,0.219 0.386,0.241 0.392,0.264 0.398,0.288 0.404,0.311 0.410,0.334 0.416,0.355 0.422,0.374 0.428,0.389 0.434,0.401 0.440,0.409 0.446,0.413 0.452,0.413 0.458,0.408 0.464,0.400 0.470,0.389 0.476,0.375 0.482,0.358 0.487,0.340 0.493,0.321 0.499,0.301 0.505,0.280 0.511,0.260 0.517,0.239 0.523,0.220 0.529,0.201 0.535,0.183 0.541,0.167 0.547,0.151 0.553,0.137 0.559,0.124 0.565,0.112 0.571,0.101 0.577,0.092 0.583,0.084 0.589,0.076 0.594,0.070 0.600,0.064 0.606,0.060 0.612,0.055 0.618,0.052 0.624,0.049 0.630,0.047 0.636,0.045 0.642,0.044 0.648,0.043 0.654,0.043 0.660,0.042 0.666,0.043 0.672,0.044 0.678,0.045 0.684,0.047 0.690,0.049 0.696,0.052 0.701,0.056 0.707,0.060 0.713,0.065 0.719,0.070 0.725,0.077 0.731,0.085 0.737,0.093 0.743,0.103 0.749,0.114 0.755,0.126 0.761,0.139 0.767,0.153 0.773,0.167 0.779,0.182 0.785,0.196 0.791,0.211 0.797,0.224 0.803,0.236 0.809,0.247 0.814,0.255 0.820,0.261 0.826,0.264 0.832,0.265 0.838,0.263 0.844,0.258 0.850,0.252 0.856,0.243 0.862,0.233 0.868,0.221 0.874,0.208 0.880,0.195 0.886,0.182 0.892,0.168 0.898,0.155 0.904,0.142 0.910,0.129 0.916,0.118 0.921,0.107 0.927,0.097 0.933,0.088 0.939,0.079 0.945,0.072 0.951,0.065 0.957,0.059 0.963,0.054 0.969,0.049 0.975,0.045 0.981,0.042 0.987,0.039 0.993,0.037 0.999,0.035 1.005,0.033 1.011,0.032 1.017,0.031 1.023,0.030 1.028,0.030 1.034,0.030 1.040,0.030 1.046,0.031 1.052,0.032 1.058,0.033 1.064,0.035 1.070,0.037 1.076,0.039 1.082,0.042 1.088,0.046 1.094,0.050 1.100,0.055 1.106,0.060 1.112,0.066 1.118,0.073 1.124,0.081 1.130,0.089 1.135,0.098 1.141,0.108 1.147,0.119 1.153,0.129 1.159,0.140 1.165,0.151 1.171,0.161 1.177,0.171 1.183,0.179 1.189,0.186 1.195,0.191 1.201,0.194 1.207,0.196 1.213,0.195 1.219,0.193 1.225,0.189 1.231,0.183 1.237,0.176 1.242,0.168 1.248,0.159 1.254,0.149 1.260,0.139 1.266,0.129 1.272,0.119 1.278,0.109 1.284,0.099 1.290,0.090 1.296,0.082 1.302,0.074 1.308,0.067 1.314,0.061 1.320,0.055 1.326,0.050 1.332,0.045 1.338,0.041 1.344,0.038 1.349,0.035 1.355,0.032 1.361,0.030 1.367,0.028 1.373,0.027 1.379,0.026 1.385,0.025 1.391,0.024 1.397,0.024 1.403,0.023 1.409,0.023 1.415,0.024 1.421,0.024 1.427,0.025 1.433,0.026 1.439,0.027 1.445,0.029 1.451,0.031 1.456,0.033 1.462,0.036 1.468,0.039 1.474,0.043 1.480,0.047 1.486,0.052 1.492,0.057 1.498,0.063 1.504,0.070 1.510,0.077 1.516,0.085 1.522,0.093 1.528,0.101 1.534,0.110 1.540,0.118 1.546,0.126 1.552,0.134 1.558,0.141 1.563,0.146 1.569,0.151 1.575,0.154 1.581,0.156 1.587,0.155 1.593,0.154 1.599,0.151 1.605,0.147 1.611,0.141 1.617,0.135 1.623,0.128 1.629,0.120 1.635,0.112 1.641,0.104 1.647,0.096 1.653,0.088 1.659,0.080 1.665,0.073 1.671,0.066 1.676,0.060 1.682,0.054 1.688,0.049 1.694,0.045 1.700,0.040 1.706,0.037 1.712,0.034 1.718,0.031 1.724,0.028 1.730,0.026 1.736,0.024 1.742,0.023 1.748,0.022 1.754,0.021 1.760,0.020 1.766,0.020 1.772,0.019 1.778,0.019 1.783,0.019 1.789,0.019" />
</g>
</svg>