<svg xmlns="http://www.w3.org/2000/svg" width="161.8" height="100.0" viewBox="-85.90 -55.00 171.80 110.00">
<g fill="none" stroke="black" stroke-width="0.0268%" transform="translate(0, 0.0066) scale(18.6730, -18.6730)">
<circle cx="4.31" cy="0.00" r="0.03" />
<circle cx="4.29" cy="-0.17" r="0.03" />
<circle cx="4.24" cy="-0.30" r="0.03" />
<circle cx="4.17" cy="-0.40" r="0.03" />
<circle cx="4.07" cy="-0.47" r="0.03" />
<circle cx="3.96" cy="-0.53" r="0.03" />
<circle cx="3.84" cy="-0.59" r="0.03" />
<circle cx="3.71" cy="-0.64" r="0.03" />
<circle cx="3.57" cy="-0.68" r="0.03" />
<circle cx="3.42" cy="-0.73" r="0.03" />
<circle cx="3.25" cy="-0.78" r="0.03" />
<circle cx="3.08" cy="-0.83" r="0.03" />
<circle cx="2.89" cy="-0.89" r="0.03" />
<circle cx="2.69" cy="-0.96" r="0.03" />
<circle cx="2.48" cy="-1.04" r="0.03" />
<circle cx="2.25" cy="-1.12" r="0.03" />
<circle cx="1.99" cy="-1.23" r="0.03" />
<circle cx="1.72" cy="-1.35" r="0.03" />
<circle cx="1.41" cy="-1.49" r="0.03" />
<circle cx="1.07" cy="-1.65" r="0.03" />
<circle cx="0.70" cy="-1.83" r="0.03" />
<circle cx="0.28" cy="-2.04" r="0.03" />
<circle cx="-0.18" cy="-2.25" r="0.03" />
<circle cx="-0.69" cy="-2.46" r="0.03" />
<circle cx="-1.24" cy="-2.62" r="0.03" />
<circle cx="-1.81" cy="-2.68" r="0.03" />
<circle cx="-2.39" cy="-2.59" r="0.03" />
<circle cx="-2.92" cy="-2.34" r="0.03" />
<circle cx="-3.39" cy="-1.95" r="0.03" />
<circle cx="-3.76" cy="-1.48" r="0.03" />
<circle cx="-4.03" cy="-1.02" r="0.03" />
<circle cx="-4.20" cy="-0.62" r="0.03" />
<circle cx="-4.30" cy="-0.29" r="0.03" />
<circle cx="-4.33" cy="-0.04" r="0.03" />
<circle cx="-4.32" cy="0.14" r="0.03" />
<circle cx="-4.27" cy="0.28" r="0.03" />
<circle cx="-4.20" cy="0.38" r="0.03" />
<circle cx="-4.11" cy="0.46" r="0.03" />
<circle cx="-4.01" cy="0.52" r="0.03" />
<circle cx="-3.89" cy="0.58" r="0.03" />
<circle cx="-3.76" cy="0.62" r="0.03" />
<circle cx="-3.62" cy="0.67" r="0.03" />
<circle cx="-3.47" cy="0.72" r="0.03" />
<circle cx="-3.31" cy="0.77" r="0.03" />
<circle cx="-3.14" cy="0.82" r="0.03" />
<circle cx="-2.95" cy="0.87" r="0.03" />
<circle cx="-2.76" cy="0.94" r="0.03" />
<circle cx="-2.55" cy="1.01" r="0.03" />
<circle cx="-2.32" cy="1.10" r="0.03" />
<circle cx="-2.08" cy="1.19" r="0.03" />
<circle cx="-1.81" cy="1.31" r="0.03" />
<circle cx="-1.51" cy="1.44" r="0.03" />
<circle cx="-1.18" cy="1.59" r="0.03" />
<circle cx="-0.82" cy="1.77" r="0.03" />
<circle cx="-0.42" cy="1.97" r="0.03" />
<circle cx="0.03" cy="2.19" r="0.03" />
<circle cx="0.53" cy="2.40" r="0.03" />
<circle cx="1.06" cy="2.58" r="0.03" />
<circle cx="1.63" cy="2.67" r="0.03" />
<circle cx="2.21" cy="2.64" r="0.03" />
<circle cx="2.76" cy="2.44" r="0.03" />
<circle cx="3.25" cy="2.08" r="0.03" />
<circle cx="3.65" cy="1.63" r="0.03" />
<circle cx="3.95" cy="1.16" r="0.03" />
<circle cx="4.16" cy="0.74" r="0.03" />
<circle cx="4.27" cy="0.38" r="0.03" />
<circle cx="4.33" cy="0.11" r="0.03" />
<circle cx="4.33" cy="-0.09" r="0.03" />
<circle cx="4.29" cy="-0.24" r="0.03" />
<circle cx="4.23" cy="-0.35" r="0.03" />
<circle cx="4.14" cy="-0.44" r="0.03" />
<circle cx="4.04" cy="-0.50" r="0.03" />
<circle cx="3.93" cy="-0.56" r="0.03" />
<circle cx="3.80" cy="-0.61" r="0.03" />
<circle cx="3.66" cy="-0.66" r="0.03" />
<circle cx="3.52" cy="-0.70" r="0.03" />
<circle cx="3.36" cy="-0.75" r="0.03" />
<circle cx="3.19" cy="-0.80" r="0.03" />
<circle cx="3.01" cy="-0.86" r="0.03" />
<circle cx="2.82" cy="-0.92" r="0.03" />
<circle cx="2.62" cy="-0.99" r="0.03" />
<circle cx="2.40" cy="-1.07" r="0.03" />
<circle cx="2.16" cy="-1.16" r="0.03" />
<circle cx="1.89" cy="-1.27" r="0.03" />
<circle cx="1.61" cy="-1.40" r="0.03" />
<circle cx="1.29" cy="-1.54" r="0.03" />
<circle cx="0.94" cy="-1.71" r="0.03" />
<circle cx="0.55" cy="-1.91" r="0.03" />
<circle cx="0.12" cy="-2.12" r="0.03" />
<circle cx="-0.37" cy="-2.33" r="0.03" />
<circle cx="-0.89" cy="-2.53" r="0.03" />
<circle cx="-1.45" cy="-2.65" r="0.03" />
<circle cx="-2.03" cy="-2.67" r="0.03" />
<circle cx="-2.59" cy="-2.52" r="0.03" />
<circle cx="-3.10" cy="-2.21" r="0.03" />
<circle cx="-3.53" cy="-1.78" r="0.03" />
<circle cx="-3.87" cy="-1.31" r="0.03" />
<circle cx="-4.10" cy="-0.86" r="0.03" />
<circle cx="-4.25" cy="-0.49" r="0.03" />
<circle cx="-4.32" cy="-0.19" r="0.03" />
<circle cx="-4.33" cy="0.03" r="0.03" />
<circle cx="-4.31" cy="0.20" r="0.03" />
<circle cx="-4.25" cy="0.32" r="0.03" />
<circle cx="-4.17" cy="0.41" r="0.03" />
<circle cx="-4.07" cy="0.48" r="0.03" />
<circle cx="-3.96" cy="0.54" r="0.03" />
<circle cx="-3.84" cy="0.59" r="0.03" />
<circle cx="-3.71" cy="0.64" r="0.03" />
<circle cx="-3.56" cy="0.69" r="0.03" />
<circle cx="-3.41" cy="0.73" r="0.03" />
<circle cx="-3.25" cy="0.78" r="0.03" />
<circle cx="-3.07" cy="0.84" r="0.03" />
<circle cx="-2.88" cy="0.90" r="0.03" />
<circle cx="-2.68" cy="0.96" r="0.03" />
<circle cx="-2.47" cy="1.04" r="0.03" />
<circle cx="-2.23" cy="1.13" r="0.03" />
<circle cx="-1.98" cy="1.23" r="0.03" />
<circle cx="-1.70" cy="1.35" r="0.03" />
<circle cx="-1.39" cy="1.49" r="0.03" />
<circle cx="-1.05" cy="1.66" r="0.03" />
<circle cx="-0.68" cy="1.84" r="0.03" />
<circle cx="-0.26" cy="2.05" r="0.03" />
<circle cx="0.21" cy="2.27" r="0.03" />
<circle cx="0.72" cy="2.47" r="0.03" />
<circle cx="1.27" cy="2.62" r="0.03" />
<circle cx="1.84" cy="2.68" r="0.03" />
<circle cx="2.41" cy="2.58" r="0.03" />
<circle cx="2.95" cy="2.32" r="0.03" />
<circle cx="3.41" cy="1.93" r="0.03" />
<circle cx="3.77" cy="1.46" r="0.03" />
<circle cx="4.04" cy="1.00" r="0.03" />
<circle cx="4.21" cy="0.60" r="0.03" />
<circle cx="4.30" cy="0.28" r="0.03" />
<circle cx="4.33" cy="0.03" r="0.03" />
<circle cx="4.32" cy="-0.15" r="0.03" />
<circle cx="4.27" cy="-0.28" r="0.03" />
<circle cx="4.20" cy="-0.38" r="0.03" />
<circle cx="4.11" cy="-0.46" r="0.03" />
<circle cx="4.00" cy="-0.52" r="0.03" />
<circle cx="3.88" cy="-0.58" r="0.03" />
<circle cx="3.75" cy="-0.63" r="0.03" />
<circle cx="3.61" cy="-0.67" r="0.03" />
<circle cx="3.46" cy="-0.72" r="0.03" />
<circle cx="3.30" cy="-0.77" r="0.03" />
<circle cx="3.13" cy="-0.82" r="0.03" />
<circle cx="2.95" cy="-0.88" r="0.03" />
<circle cx="2.75" cy="-0.94" r="0.03" />
<circle cx="2.54" cy="-1.02" r="0.03" />
<circle cx="2.31" cy="-1.10" r="0.03" />
<circle cx="2.06" cy="-1.20" r="0.03" />
<circle cx="1.79" cy="-1.31" r="0.03" />
<circle cx="1.49" cy="-1.45" r="0.03" />
<circle cx="1.17" cy="-1.60" r="0.03" />
<circle cx="0.80" cy="-1.78" r="0.03" />
<circle cx="0.40" cy="-1.98" r="0.03" />
<circle cx="-0.06" cy="-2.20" r="0.03" />
<circle cx="-0.55" cy="-2.41" r="0.03" />
<circle cx="-1.09" cy="-2.58" r="0.03" />
<circle cx="-1.66" cy="-2.67" r="0.03" />
<circle cx="-2.24" cy="-2.63" r="0.03" />
<circle cx="-2.78" cy="-2.42" r="0.03" />
<circle cx="-3.27" cy="-2.06" r="0.03" />
<circle cx="-3.67" cy="-1.61" r="0.03" />
<circle cx="-3.96" cy="-1.14" r="0.03" />
<circle cx="-4.16" cy="-0.72" r="0.03" />
<circle cx="-4.28" cy="-0.37" r="0.03" />
<circle cx="-4.33" cy="-0.10" r="0.03" />
<circle cx="-4.33" cy="0.10" r="0.03" />
<circle cx="-4.29" cy="0.25" r="0.03" />
<circle cx="-4.22" cy="0.36" r="0.03" />
<circle cx="-4.14" cy="0.44" r="0.03" />
<circle cx="-4.04" cy="0.51" r="0.03" />
<circle cx="-3.92" cy="0.56" r="0.03" />
<circle cx="-3.79" cy="0.61" r="0.03" />
<circle cx="-3.66" cy="0.66" r="0.03" />
<circle cx="-3.51" cy="0.71" r="0.03" />
<circle cx="-3.35" cy="0.75" r="0.03" />
<circle cx="-3.18" cy="0.80" r="0.03" />
<circle cx="-3.00" cy="0.86" r="0.03" />
<circle cx="-2.81" cy="0.92" r="0.03" />
<circle cx="-2.61" cy="0.99" r="0.03" />
<circle cx="-2.38" cy="1.07" r="0.03" />
<circle cx="-2.14" cy="1.17" r="0.03" />
<circle cx="-1.88" cy="1.27" r="0.03" />
<circle cx="-1.59" cy="1.40" r="0.03" />
<circle cx="-1.27" cy="1.55" r="0.03" />
<circle cx="-0.92" cy="1.72" r="0.03" />
<circle cx="-0.53" cy="1.92" r="0.03" />
<circle cx="-0.09" cy="2.13" r="0.03" />
<circle cx="0.39" cy="2.34" r="0.03" />
<circle cx="0.92" cy="2.54" r="0.03" />
<circle cx="1.48" cy="2.66" r="0.03" />
<circle cx="2.06" cy="2.66" r="0.03" />
<circle cx="2.62" cy="2.51" r="0.03" />
<circle cx="3.13" cy="2.19" r="0.03" />
<circle cx="3.55" cy="1.76" r="0.03" />
<circle cx="3.88" cy="1.29" r="0.03" />
<circle cx="4.11" cy="0.84" r="0.03" />
<circle cx="4.25" cy="0.47" r="0.03" />
<circle cx="4.32" cy="0.18" r="0.03" />
<circle cx="4.33" cy="-0.04" r="0.03" />
</g>
</svg>