<svg xmlns="http://www.w3.org/2000/svg" width="161.8" height="100.0" viewBox="-85.90 -55.00 171.80 110.00">
<g fill="none" stroke="black" stroke-width="0.0268%" transform="translate(0, 0.0066) scale(18.6730, -18.6730)">
<circle cx="-4.33" cy="0.00" r="0.03" />
<circle cx="0.00" cy="2.68" r="0.03" />
<polyline points="4.31,0.00 4.29,-0.17 4.24,-0.30 4.17,-0.40 4.07,-0.47 3.96,-0.53 3.84,-0.59 3.71,-0.64 3.57,-0.68 3.42,-0.73 3.25,-0.78 3.08,-0.83 2.89,-0.89 2.69,-0.96 2.48,-1.04 2.25,-1.12 1.99,-1.23 1.72,-1.35 1.41,-1.49 1.07,-1.65 0.70,-1.83 0.28,-2.04 -0.18,-2.25 -0.69,-2.46 -1.24,-2.62 -1.81,-2.68 -2.39,-2.59 -2.92,-2.34 -3.39,-1.95 -3.76,-1.48 -4.03,-1.02 -4.20,-0.62 -4.30,-0.29 -4.33,-0.04 -4.32,0.14 -4.27,0.28 -4.20,0.38 -4.11,0.46 -4.01,0.52 -3.89,0.58 -3.76,0.62 -3.62,0.67 -3.47,0.72 -3.31,0.77 -3.14,0.82 -2.95,0.87 -2.76,0.94 -2.55,1.01 -2.32,1.10 -2.08,1.19 -1.81,1.31 -1.51,1.44 -1.18,1.59 -0.82,1.77 -0.42,1.97 0.03,2.19 0.53,2.40 1.06,2.58 1.63,2.67 2.21,2.64 2.76,2.44 3.25,2.08 3.65,1.63 3.95,1.16 4.16,0.74 4.27,0.38 4.33,0.11 4.33,-0.09 4.29,-0.24 4.23,-0.35 4.14,-0.44 4.04,-0.50 3.93,-0.56 3.80,-0.61 3.66,-0.66 3.52,-0.70 3.36,-0.75 3.19,-0.80 3.01,-0.86 2.82,-0.92 2.62,-0.99 2.40,-1.07 2.16,-1.16 1.89,-1.27 1.61,-1.40 1.29,-1.54 0.94,-1.71 0.55,-1.91 0.12,-2.12 -0.37,-2.33 -0.89,-2.53 -1.45,-2.65 -2.03,-2.67 -2.59,-2.52 -3.10,-2.21 -3.53,-1.78 -3.87,-1.31 -4.10,-0.86 -4.25,-0.49 -4.32,-0.19 -4.33,0.03 -4.31,0.20 -4.25,0.32 -4.17,0.41 -4.07,0.48 -3.96,0.54 -3.84,0.59 -3.71,0.64 -3.56,0.69 -3.41,0.73 -3.25,0.78 -3.07,0.84 -2.88,0.90 -2.68,0.96 -2.47,1.04 -2.23,1.13 -1.98,1.23 -1.70,1.35 -1.39,1.49 -1.05,1.66 -0.68,1.84 -0.26,2.05 0.21,2.27 0.72,2.47 1.27,2.62 1.84,2.68 2.41,2.58 2.95,2.32 3.41,1.93 3.77,1.46 4.04,1.00 4.21,0.60 4.30,0.28 4.33,0.03 4.32,-0.15 4.27,-0.28 4.20,-0.38 4.11,-0.46 4.00,-0.52 3.88,-0.58 3.75,-0.63 3.61,-0.67 3.46,-0.72 3.30,-0.77 3.13,-0.82 2.95,-0.88 2.75,-0.94 2.54,-1.02 2.31,-1.10 2.06,-1.20 1.79,-1.31 1.49,-1.45 1.17,-1.60 0.80,-1.78 0.40,-1.98 -0.06,-2.20 -0.55,-2.41 -1.09,-2.58 -1.66,-2.67 -2.24,-2.63 -2.78,-2.42 -3.27,-2.06 -3.67,-1.61 -3.96,-1.14 -4.16,-0.72 -4.28,-0.37 -4.33,-0.10 -4.33,0.10 -4.29,0.25 -4.22,0.36 -4.14,0.44 -4.04,0.51 -3.92,0.56 -3.79,0.61 -3.66,0.66 -3.51,0.71 -3.35,0.75 -3.18,0.80 -3.00,0.86 -2.81,0.92 -2.61,0.99 -2.38,1.07 -2.14,1.17 -1.88,1.27 -1.59,1.40 -1.27,1.55 -0.92,1.72 -0.53,1.92 -0.09,2.13 0.39,2.34 0.92,2.54 1.48,2.66 2.06,2.66 2.62,2.51 3.13,2.19 3.55,1.76 3.88,1.29 4.11,0.84 4.25,0.47 4.32,0.18 4.33,-0.04" />
</g>
</svg>