<svg xmlns="http://www.w3.org/2000/svg" width="161.8" height="100.0" viewBox="-2.51 15.00 171.80 110.00">
<g fill="none" stroke="black" stroke-width="0.0250%" transform="translate(0, 140.0000) scale(20.0000, -20.0000)">
<polyline points="0.12,1.00 0.25,1.00 0.25,1.00 0.37,1.00 0.37,2.00 0.50,2.00 0.50,1.00 0.62,1.00 0.62,1.00 0.75,1.00 0.75,2.00 0.87,2.00 0.87,3.00 1.00,3.00 1.00,1.00 1.12,1.00 1.12,1.00 1.24,1.00 1.24,1.00 1.37,1.00 1.37,2.00 1.49,2.00 1.49,2.00 1.62,2.00 1.62,2.00 1.74,2.00 1.74,3.00 1.87,3.00 1.87,4.00 1.99,4.00 1.99,1.00 2.12,1.00 2.12,1.00 2.24,1.00 2.24,1.00 2.36,1.00 2.36,2.00 2.49,2.00 2.49,1.00 2.61,1.00 2.61,1.00 2.74,1.00 2.74,2.00 2.86,2.00 2.86,3.00 2.99,3.00 2.99,2.00 3.11,2.00 3.11,2.00 3.24,2.00 3.24,2.00 3.36,2.00 3.36,2.00 3.48,2.00 3.48,3.00 3.61,3.00 3.61,3.00 3.73,3.00 3.73,4.00 3.86,4.00 3.86,5.00 3.98,5.00 3.98,1.00 4.11,1.00 4.11,1.00 4.23,1.00 4.23,1.00 4.36,1.00 4.36,2.00 4.48,2.00 4.48,1.00 4.61,1.00 4.61,1.00 4.73,1.00 4.73,2.00 4.85,2.00 4.85,3.00 4.98,3.00 4.98,1.00 5.10,1.00 5.10,1.00 5.23,1.00 5.23,1.00 5.35,1.00 5.35,2.00 5.48,2.00 5.48,2.00 5.60,2.00 5.60,2.00 5.73,2.00 5.73,3.00 5.85,3.00 5.85,4.00 5.97,4.00 5.97,2.00 6.10,2.00 6.10,2.00 6.22,2.00 6.22,2.00 6.35,2.00 6.35,2.00 6.47,2.00 6.47,2.00 6.60,2.00 6.60,2.00 6.72,2.00 6.72,2.00 6.85,2.00 6.85,3.00 6.97,3.00 6.97,3.00 7.09,3.00 7.09,3.00 7.22,3.00 7.22,3.00 7.34,3.00 7.34,3.00 7.47,3.00 7.47,4.00 7.59,4.00 7.59,4.00 7.72,4.00 7.72,5.00 7.84,5.00 7.84,6.00 7.97,6.00 7.97,1.00 8.09,1.00 8.09,1.00 8.21,1.00" />
</g>
</svg>