<svg xmlns="http://www.w3.org/2000/svg" width="161.8" height="100.0" viewBox="-3.37 -5.00 171.80 110.00">
<g fill="none" stroke="black" stroke-width="0.0515%" transform="translate(0, 100.0000) scale(9.6994, -9.6994)">
<circle cx="0.17" cy="0.00" r="0.05" />
<circle cx="0.17" cy="0.00" r="0.05" />
<circle cx="0.34" cy="0.69" r="0.05" />
<circle cx="0.51" cy="0.69" r="0.05" />
<circle cx="0.67" cy="1.79" r="0.05" />
<circle cx="0.84" cy="0.69" r="0.05" />
<circle cx="1.01" cy="1.39" r="0.05" />
<circle cx="1.18" cy="1.79" r="0.05" />
<circle cx="1.35" cy="3.40" r="0.05" />
<circle cx="1.52" cy="0.69" r="0.05" />
<circle cx="1.69" cy="1.39" r="0.05" />
<circle cx="1.85" cy="1.39" r="0.05" />
<circle cx="2.02" cy="2.48" r="0.05" />
<circle cx="2.19" cy="1.79" r="0.05" />
<circle cx="2.36" cy="2.48" r="0.05" />
<circle cx="2.53" cy="3.40" r="0.05" />
<circle cx="2.70" cy="5.35" r="0.05" />
<circle cx="2.86" cy="0.69" r="0.05" />
<circle cx="3.03" cy="1.39" r="0.05" />
<circle cx="3.20" cy="1.39" r="0.05" />
<circle cx="3.37" cy="2.48" r="0.05" />
<circle cx="3.54" cy="1.39" r="0.05" />
<circle cx="3.71" cy="2.08" r="0.05" />
<circle cx="3.88" cy="2.48" r="0.05" />
<circle cx="4.04" cy="4.09" r="0.05" />
<circle cx="4.21" cy="1.79" r="0.05" />
<circle cx="4.38" cy="2.48" r="0.05" />
<circle cx="4.55" cy="2.48" r="0.05" />
<circle cx="4.72" cy="3.58" r="0.05" />
<circle cx="4.89" cy="3.40" r="0.05" />
<circle cx="5.06" cy="4.09" r="0.05" />
<circle cx="5.22" cy="5.35" r="0.05" />
<circle cx="5.39" cy="7.75" r="0.05" />
<circle cx="5.56" cy="0.69" r="0.05" />
<circle cx="5.73" cy="1.39" r="0.05" />
<circle cx="5.90" cy="1.39" r="0.05" />
<circle cx="6.07" cy="2.48" r="0.05" />
<circle cx="6.23" cy="1.39" r="0.05" />
<circle cx="6.40" cy="2.08" r="0.05" />
<circle cx="6.57" cy="2.48" r="0.05" />
<circle cx="6.74" cy="4.09" r="0.05" />
<circle cx="6.91" cy="1.39" r="0.05" />
<circle cx="7.08" cy="2.08" r="0.05" />
<circle cx="7.25" cy="2.08" r="0.05" />
<circle cx="7.41" cy="3.18" r="0.05" />
<circle cx="7.58" cy="2.48" r="0.05" />
<circle cx="7.75" cy="3.18" r="0.05" />
<circle cx="7.92" cy="4.09" r="0.05" />
<circle cx="8.09" cy="6.04" r="0.05" />
<circle cx="8.26" cy="1.79" r="0.05" />
<circle cx="8.43" cy="2.48" r="0.05" />
<circle cx="8.59" cy="2.48" r="0.05" />
<circle cx="8.76" cy="3.58" r="0.05" />
<circle cx="8.93" cy="2.48" r="0.05" />
<circle cx="9.10" cy="3.18" r="0.05" />
<circle cx="9.27" cy="3.58" r="0.05" />
<circle cx="9.44" cy="5.19" r="0.05" />
<circle cx="9.60" cy="3.40" r="0.05" />
<circle cx="9.77" cy="4.09" r="0.05" />
<circle cx="9.94" cy="4.09" r="0.05" />
<circle cx="10.11" cy="5.19" r="0.05" />
<circle cx="10.28" cy="5.35" r="0.05" />
<circle cx="10.45" cy="6.04" r="0.05" />
<circle cx="10.62" cy="7.75" r="0.05" />
<circle cx="10.78" cy="10.31" r="0.05" />
<circle cx="10.95" cy="0.69" r="0.05" />
<circle cx="11.12" cy="1.39" r="0.05" />
<circle cx="11.29" cy="1.39" r="0.05" />
<circle cx="11.46" cy="2.48" r="0.05" />
<circle cx="11.63" cy="1.39" r="0.05" />
<circle cx="11.80" cy="2.08" r="0.05" />
<circle cx="11.96" cy="2.48" r="0.05" />
<circle cx="12.13" cy="4.09" r="0.05" />
<circle cx="12.30" cy="1.39" r="0.05" />
<circle cx="12.47" cy="2.08" r="0.05" />
<circle cx="12.64" cy="2.08" r="0.05" />
<circle cx="12.81" cy="3.18" r="0.05" />
<circle cx="12.97" cy="2.48" r="0.05" />
<circle cx="13.14" cy="3.18" r="0.05" />
<circle cx="13.31" cy="4.09" r="0.05" />
<circle cx="13.48" cy="6.04" r="0.05" />
<circle cx="13.65" cy="1.39" r="0.05" />
<circle cx="13.82" cy="2.08" r="0.05" />
<circle cx="13.99" cy="2.08" r="0.05" />
<circle cx="14.15" cy="3.18" r="0.05" />
<circle cx="14.32" cy="2.08" r="0.05" />
<circle cx="14.49" cy="2.77" r="0.05" />
<circle cx="14.66" cy="3.18" r="0.05" />
<circle cx="14.83" cy="4.79" r="0.05" />
<circle cx="15.00" cy="2.48" r="0.05" />
<circle cx="15.17" cy="3.18" r="0.05" />
<circle cx="15.33" cy="3.18" r="0.05" />
<circle cx="15.50" cy="4.28" r="0.05" />
<circle cx="15.67" cy="4.09" r="0.05" />
<circle cx="15.84" cy="4.79" r="0.05" />
<circle cx="16.01" cy="6.04" r="0.05" />
<circle cx="16.18" cy="8.44" r="0.05" />
<circle cx="16.34" cy="1.79" r="0.05" />
<circle cx="16.51" cy="2.48" r="0.05" />
<circle cx="16.68" cy="2.48" r="0.05" />
<circle cx="16.85" cy="3.58" r="0.05" />
</g>
</svg>