<svg xmlns="http://www.w3.org/2000/svg" width="104" height="104" viewBox="0 0 104 104">
<rect x="0" y="0" width="13" height="13" fill="rgb(255,255,255)"/>
<rect x="0" y="13" width="13" height="13" fill="rgb(187,150,111)"/>
<rect x="0" y="26" width="13" height="13" fill="rgb(184,202,221)"/>
<rect x="0" y="39" width="13" height="13" fill="rgb(255,255,0)"/>
<rect x="0" y="52" width="13" height="13" fill="rgb(120,116,110)"/>
<rect x="0" y="65" width="13" height="13" fill="rgb(203,67,102)"/>
<rect x="0" y="78" width="13" height="13" fill="rgb(56,59,57)"/>
<rect x="0" y="91" width="13" height="13" fill="rgb(204,31,28)"/>
<rect x="13" y="0" width="13" height="13" fill="rgb(51,24,0)"/>
<rect x="13" y="13" width="13" height="13" fill="rgb(122,86,47)"/>
<rect x="13" y="26" width="13" height="13" fill="rgb(42,95,153)"/>
<rect x="13" y="39" width="13" height="13" fill="rgb(170,226,17)"/>
<rect x="13" y="52" width="13" height="13" fill="rgb(52,82,108)"/>
<rect x="13" y="65" width="13" height="13" fill="rgb(151,49,119)"/>
<rect x="13" y="78" width="13" height="13" fill="rgb(255,170,0)"/>
<rect x="13" y="91" width="13" height="13" fill="rgb(102,8,85)"/>
<rect x="26" y="0" width="13" height="13" fill="rgb(28,120,119)"/>
<rect x="26" y="13" width="13" height="13" fill="rgb(113,148,187)"/>
<rect x="26" y="26" width="13" height="13" fill="rgb(255,255,170)"/>
<rect x="26" y="39" width="13" height="13" fill="rgb(0,168,51)"/>
<rect x="26" y="52" width="13" height="13" fill="rgb(255,198,57)"/>
<rect x="26" y="65" width="13" height="13" fill="rgb(255,113,57)"/>
<rect x="26" y="78" width="13" height="13" fill="rgb(108,105,11)"/>
<rect x="26" y="91" width="13" height="13" fill="rgb(196,62,14)"/>
<rect x="39" y="0" width="13" height="13" fill="rgb(255,213,0)"/>
<rect x="39" y="13" width="13" height="13" fill="rgb(255,255,85)"/>
<rect x="39" y="26" width="13" height="13" fill="rgb(179,210,153)"/>
<rect x="39" y="39" width="13" height="13" fill="rgb(255,170,170)"/>
<rect x="39" y="52" width="13" height="13" fill="rgb(182,166,61)"/>
<rect x="39" y="65" width="13" height="13" fill="rgb(196,91,70)"/>
<rect x="39" y="78" width="13" height="13" fill="rgb(34,72,17)"/>
<rect x="39" y="91" width="13" height="13" fill="rgb(136,39,28)"/>
<rect x="52" y="0" width="13" height="13" fill="rgb(213,0,43)"/>
<rect x="52" y="13" width="13" height="13" fill="rgb(35,101,71)"/>
<rect x="52" y="26" width="13" height="13" fill="rgb(103,165,136)"/>
<rect x="52" y="39" width="13" height="13" fill="rgb(193,134,162)"/>
<rect x="52" y="52" width="13" height="13" fill="rgb(108,134,66)"/>
<rect x="52" y="65" width="13" height="13" fill="rgb(136,68,83)"/>
<rect x="52" y="78" width="13" height="13" fill="rgb(255,0,0)"/>
<rect x="52" y="91" width="13" height="13" fill="rgb(77,16,43)"/>
<rect x="65" y="0" width="13" height="13" fill="rgb(85,197,34)"/>
<rect x="65" y="13" width="13" height="13" fill="rgb(255,85,85)"/>
<rect x="65" y="26" width="13" height="13" fill="rgb(175,218,85)"/>
<rect x="65" y="39" width="13" height="13" fill="rgb(132,99,153)"/>
<rect x="65" y="52" width="13" height="13" fill="rgb(176,182,11)"/>
<rect x="65" y="65" width="13" height="13" fill="rgb(77,45,96)"/>
<rect x="65" y="78" width="13" height="13" fill="rgb(170,0,85)"/>
<rect x="65" y="91" width="13" height="13" fill="rgb(255,128,0)"/>
<rect x="78" y="0" width="13" height="13" fill="rgb(99,32,136)"/>
<rect x="78" y="13" width="13" height="13" fill="rgb(181,137,6)"/>
<rect x="78" y="26" width="13" height="13" fill="rgb(94,181,85)"/>
<rect x="78" y="39" width="13" height="13" fill="rgb(70,63,145)"/>
<rect x="78" y="52" width="13" height="13" fill="rgb(96,151,23)"/>
<rect x="78" y="65" width="13" height="13" fill="rgb(255,142,28)"/>
<rect x="78" y="78" width="13" height="13" fill="rgb(128,0,128)"/>
<rect x="78" y="91" width="13" height="13" fill="rgb(187,93,0)"/>
<rect x="91" y="0" width="13" height="13" fill="rgb(255,85,0)"/>
<rect x="91" y="13" width="13" height="13" fill="rgb(153,19,57)"/>
<rect x="91" y="26" width="13" height="13" fill="rgb(14,144,85)"/>
<rect x="91" y="39" width="13" height="13" fill="rgb(255,184,113)"/>
<rect x="91" y="52" width="13" height="13" fill="rgb(17,120,34)"/>
<rect x="91" y="65" width="13" height="13" fill="rgb(189,114,38)"/>
<rect x="91" y="78" width="13" height="13" fill="rgb(255,43,0)"/>
<rect x="91" y="91" width="13" height="13" fill="rgb(119,58,0)"/>
</svg>