<svg xmlns="http://www.w3.org/2000/svg" width="143.2" height="100.0" viewBox="-5.000 -5.000 153.184 110.000">
<g fill="none" stroke="black" stroke-width="0.0049%" transform="translate(0, 100.0000) scale(101.2465, -101.2465)">
<polygon points="0.000,0.000 0.313,0.000 0.156,0.988" />
<polygon points="0.000,0.000 0.416,0.000 0.208,0.978" />
<polygon points="0.000,0.000 0.518,0.000 0.259,0.966" />
<polygon points="0.000,0.000 0.618,0.000 0.309,0.951" />
<polygon points="0.000,0.000 0.717,0.000 0.358,0.934" />
<polygon points="0.000,0.000 0.813,0.000 0.407,0.914" />
<polygon points="0.000,0.000 0.908,0.000 0.454,0.891" />
<polygon points="0.000,0.000 1.000,0.000 0.500,0.866" />
<polygon points="0.000,0.000 1.089,0.000 0.545,0.839" />
<polygon points="0.000,0.000 1.176,0.000 0.588,0.809" />
<polygon points="0.000,0.000 1.259,0.000 0.629,0.777" />
<polygon points="0.000,0.000 1.338,0.000 0.669,0.743" />
<polygon points="0.000,0.000 1.414,0.000 0.707,0.707" />
</g>
</svg>