<svg xmlns="http://www.w3.org/2000/svg" width="112.5" height="100.0" viewBox="-58.631 -55.000 122.450 110.000">
<g fill="none" stroke="black" stroke-width="0.0087%" transform="translate(0, 0.0000) scale(57.7100, -57.7100)">
<polyline points="-0.707,0.707 -0.767,0.659 -0.821,0.587 -0.866,0.493 -0.901,0.382 -0.923,0.255 -0.929,0.118 -0.919,-0.025 -0.889,-0.169 -0.840,-0.310 -0.771,-0.443 -0.682,-0.564 -0.576,-0.668 -0.453,-0.753 -0.316,-0.816 -0.169,-0.854 -0.015,-0.866 0.140,-0.853 0.294,-0.813 0.442,-0.749 0.579,-0.663 0.702,-0.556 0.808,-0.432 0.894,-0.296 0.958,-0.150 1.000,0.000 1.019,0.150 1.016,0.296 0.993,0.432 0.951,0.556 0.893,0.663 0.821,0.749 0.739,0.813 0.650,0.853 0.556,0.866 0.460,0.854 0.363,0.816 0.269,0.753 0.178,0.668 0.090,0.564 0.007,0.443 -0.073,0.310 -0.150,0.169 -0.224,0.025 -0.297,-0.118 -0.368,-0.255 -0.438,-0.382 -0.507,-0.493 -0.576,-0.587 -0.643,-0.659 -0.707,-0.707 -0.767,-0.730 -0.821,-0.728 -0.866,-0.701 -0.901,-0.649 -0.923,-0.576 -0.929,-0.484 -0.919,-0.376 -0.889,-0.258 -0.840,-0.133 -0.771,-0.006 -0.682,0.118 -0.576,0.233 -0.453,0.336 -0.316,0.424 -0.169,0.491 -0.015,0.537 0.140,0.559 0.294,0.556 0.442,0.530 0.579,0.481 0.702,0.412 0.808,0.325 0.894,0.225 0.958,0.115 1.000,0.000 1.019,-0.115 1.016,-0.225 0.993,-0.325 0.951,-0.412 0.893,-0.481 0.821,-0.530 0.739,-0.556 0.650,-0.559 0.556,-0.537 0.460,-0.491 0.363,-0.424 0.269,-0.336 0.178,-0.233 0.090,-0.118 0.007,0.006 -0.073,0.133 -0.150,0.258 -0.224,0.376 -0.297,0.484 -0.368,0.576 -0.438,0.649 -0.507,0.701 -0.576,0.728 -0.643,0.730" />
</g>
</svg>