<svg xmlns="http://www.w3.org/2000/svg" width="126.7" height="100.0" viewBox="-68.355 -59.934 136.711 110.000">
<g fill="none" stroke="black" stroke-width="0.0080%" transform="translate(0, -9.8676) scale(62.1505, -62.1505)">
<polyline points="-0.707,0.707 -0.743,0.681 -0.780,0.645 -0.818,0.598 -0.855,0.542 -0.891,0.477 -0.925,0.404 -0.955,0.324 -0.980,0.240 -1.000,0.150 -1.013,0.058 -1.019,-0.036 -1.017,-0.130 -1.007,-0.223 -0.988,-0.315 -0.960,-0.402 -0.923,-0.486 -0.877,-0.564 -0.824,-0.635 -0.763,-0.698 -0.696,-0.753 -0.624,-0.800 -0.548,-0.836 -0.469,-0.863 -0.388,-0.879 -0.306,-0.884 -0.226,-0.879 -0.147,-0.863 -0.071,-0.836 0.001,-0.800 0.068,-0.753 0.130,-0.698 0.187,-0.635 0.237,-0.564 0.283,-0.486 0.322,-0.402 0.357,-0.315 0.387,-0.223 0.414,-0.130 0.437,-0.036 0.458,0.058 0.478,0.150 0.497,0.240 0.517,0.324 0.538,0.404 0.560,0.477 0.585,0.542 0.612,0.598 0.641,0.645 0.673,0.681 0.707,0.707 0.743,0.722 0.780,0.725 0.818,0.717 0.855,0.698 0.891,0.668 0.925,0.627 0.955,0.577 0.980,0.518 1.000,0.452 1.013,0.379 1.019,0.301 1.017,0.219 1.007,0.134 0.988,0.050 0.960,-0.035 0.923,-0.116 0.877,-0.194 0.824,-0.267 0.763,-0.333 0.696,-0.391 0.624,-0.440 0.548,-0.479 0.469,-0.507 0.388,-0.525 0.306,-0.530 0.226,-0.525 0.147,-0.507 0.071,-0.479 -0.001,-0.440 -0.068,-0.391 -0.130,-0.333 -0.187,-0.267 -0.237,-0.194 -0.283,-0.116 -0.322,-0.035 -0.357,0.050 -0.387,0.134 -0.414,0.219 -0.437,0.301 -0.458,0.379 -0.478,0.452 -0.497,0.518 -0.517,0.577 -0.538,0.627 -0.560,0.668 -0.585,0.698 -0.612,0.717 -0.641,0.725 -0.673,0.722" />
</g>
</svg>