<svg xmlns="http://www.w3.org/2000/svg" width="161.8" height="100.0" viewBox="-85.902 -5.000 171.803 110.000">
<g fill="none" stroke="black" stroke-width="0.0048%" transform="translate(0, 100.0000) scale(104.1667, -104.1667)">
<circle cx="-0.777" cy="0.000" r="0.005" />
<circle cx="0.000" cy="0.960" r="0.005" />
<polyline points="-0.777,0.000 -0.761,0.040 -0.746,0.080 -0.730,0.120 -0.715,0.160 -0.699,0.200 -0.683,0.240 -0.668,0.280 -0.652,0.320 -0.637,0.360 -0.621,0.400 -0.606,0.440 -0.590,0.480 -0.575,0.520 -0.559,0.560 -0.544,0.600 -0.528,0.640 -0.513,0.680 -0.497,0.720 -0.482,0.760 -0.466,0.800 -0.450,0.840 -0.435,0.880 -0.419,0.920 -0.404,0.960 -0.388,0.000 -0.373,0.040 -0.357,0.080 -0.342,0.120 -0.326,0.160 -0.311,0.200 -0.295,0.240 -0.280,0.280 -0.264,0.320 -0.249,0.360 -0.233,0.400 -0.217,0.440 -0.202,0.480 -0.186,0.520 -0.171,0.560 -0.155,0.600 -0.140,0.640 -0.124,0.680 -0.109,0.720 -0.093,0.760 -0.078,0.800 -0.062,0.840 -0.047,0.880 -0.031,0.920 -0.016,0.960 0.000,0.000 0.016,0.040 0.031,0.080 0.047,0.120 0.062,0.160 0.078,0.200 0.093,0.240 0.109,0.280 0.124,0.320 0.140,0.360 0.155,0.400 0.171,0.440 0.186,0.480 0.202,0.520 0.217,0.560 0.233,0.600 0.249,0.640 0.264,0.680 0.280,0.720 0.295,0.760 0.311,0.800 0.326,0.840 0.342,0.880 0.357,0.920 0.373,0.960 0.388,0.000 0.404,0.040 0.419,0.080 0.435,0.120 0.450,0.160 0.466,0.200 0.482,0.240 0.497,0.280 0.513,0.320 0.528,0.360 0.544,0.400 0.559,0.440 0.575,0.480 0.590,0.520 0.606,0.560 0.621,0.600 0.637,0.640 0.652,0.680 0.668,0.720 0.683,0.760 0.699,0.800 0.715,0.840 0.730,0.880 0.746,0.920 0.761,0.960 0.777,0.000" />
</g>
</svg>