<svg xmlns="http://www.w3.org/2000/svg" width="150.0" height="100.0" viewBox="-80.00 -55.00 160.00 110.00">
<g fill="none" stroke="black" stroke-width="0.0200%" transform="translate(0, 0.0000) scale(25.0000, -25.0000)">
<circle cx="0.00" cy="0.00" r="0.02" />
<circle cx="-1.65" cy="1.55" r="0.02" />
<circle cx="-2.33" cy="-0.28" r="0.02" />
<circle cx="-0.65" cy="1.45" r="0.02" />
<circle cx="-0.80" cy="0.90" r="0.02" />
<circle cx="1.68" cy="-1.27" r="0.02" />
<circle cx="-2.67" cy="0.28" r="0.02" />
<circle cx="-1.00" cy="2.00" r="0.02" />
<circle cx="-1.67" cy="0.17" r="0.02" />
<circle cx="1.32" cy="-0.72" r="0.02" />
<circle cx="-0.33" cy="0.82" r="0.02" />
<circle cx="-1.00" cy="-1.00" r="0.02" />
<circle cx="0.68" cy="0.72" r="0.02" />
<circle cx="0.53" cy="0.18" r="0.02" />
<circle cx="-1.20" cy="0.10" r="0.02" />
<circle cx="1.35" cy="-0.45" r="0.02" />
<circle cx="0.33" cy="1.27" r="0.02" />
<circle cx="-0.35" cy="-0.55" r="0.02" />
<circle cx="-2.00" cy="1.00" r="0.02" />
<circle cx="0.48" cy="-1.17" r="0.02" />
<circle cx="0.33" cy="-1.73" r="0.02" />
<circle cx="2.00" cy="0.00" r="0.02" />
<circle cx="0.35" cy="1.55" r="0.02" />
<circle cx="-0.33" cy="-0.28" r="0.02" />
<circle cx="-1.35" cy="1.45" r="0.02" />
<circle cx="1.20" cy="0.90" r="0.02" />
<circle cx="0.35" cy="-1.45" r="0.02" />
<circle cx="-0.68" cy="0.28" r="0.02" />
<circle cx="1.00" cy="2.00" r="0.02" />
<circle cx="0.15" cy="-0.35" r="0.02" />
<circle cx="-1.32" cy="1.73" r="0.02" />
<circle cx="1.67" cy="0.82" r="0.02" />
<circle cx="1.00" cy="-1.00" r="0.02" />
<circle cx="2.53" cy="0.18" r="0.02" />
<circle cx="-0.65" cy="0.55" r="0.02" />
<circle cx="-2.35" cy="0.45" r="0.02" />
<circle cx="0.20" cy="-0.10" r="0.02" />
<circle cx="-1.52" cy="-0.18" r="0.02" />
<circle cx="-1.68" cy="-0.72" r="0.02" />
<circle cx="0.00" cy="1.00" r="0.02" />
<circle cx="-0.68" cy="-0.82" r="0.02" />
<circle cx="2.33" cy="-1.73" r="0.02" />
<circle cx="0.68" cy="-0.17" r="0.02" />
<circle cx="0.00" cy="-2.00" r="0.02" />
<circle cx="1.68" cy="-0.28" r="0.02" />
<circle cx="-2.67" cy="1.27" r="0.02" />
<circle cx="-0.20" cy="-0.90" r="0.02" />
<circle cx="-1.67" cy="1.18" r="0.02" />
<circle cx="1.32" cy="0.28" r="0.02" />
<circle cx="0.65" cy="-1.55" r="0.02" />
<circle cx="-1.00" cy="0.00" r="0.02" />
<circle cx="0.68" cy="1.73" r="0.02" />
<circle cx="0.53" cy="1.17" r="0.02" />
<circle cx="3.00" cy="-1.00" r="0.02" />
<circle cx="1.35" cy="0.55" r="0.02" />
<circle cx="0.68" cy="-1.27" r="0.02" />
<circle cx="-0.35" cy="0.45" r="0.02" />
<circle cx="2.20" cy="-0.10" r="0.02" />
<circle cx="0.48" cy="-0.18" r="0.02" />
<circle cx="0.33" cy="-0.72" r="0.02" />
<circle cx="2.00" cy="1.00" r="0.02" />
<circle cx="-2.00" cy="-1.00" r="0.02" />
<circle cx="-0.33" cy="0.72" r="0.02" />
<circle cx="-0.48" cy="0.18" r="0.02" />
<circle cx="-2.20" cy="0.10" r="0.02" />
<circle cx="0.35" cy="-0.45" r="0.02" />
<circle cx="-0.68" cy="1.27" r="0.02" />
<circle cx="-1.35" cy="-0.55" r="0.02" />
<circle cx="-3.00" cy="1.00" r="0.02" />
<circle cx="0.00" cy="0.10" r="0.02" />
<circle cx="-0.68" cy="-1.73" r="0.02" />
<circle cx="1.00" cy="0.00" r="0.02" />
<circle cx="-0.65" cy="1.55" r="0.02" />
<circle cx="-1.32" cy="-0.28" r="0.02" />
<circle cx="-2.35" cy="1.45" r="0.02" />
<circle cx="0.20" cy="0.90" r="0.02" />
<circle cx="2.67" cy="-1.27" r="0.02" />
<circle cx="-1.68" cy="0.28" r="0.02" />
<circle cx="0.00" cy="2.00" r="0.02" />
<circle cx="-0.68" cy="0.17" r="0.02" />
<circle cx="2.33" cy="-0.72" r="0.02" />
<circle cx="0.68" cy="0.82" r="0.02" />
<circle cx="0.00" cy="-1.00" r="0.02" />
<circle cx="1.68" cy="0.72" r="0.02" />
<circle cx="1.52" cy="0.18" r="0.02" />
<circle cx="-0.20" cy="0.10" r="0.02" />
<circle cx="2.35" cy="-0.45" r="0.02" />
<circle cx="0.65" cy="-0.55" r="0.02" />
<circle cx="-2.53" cy="-0.18" r="0.02" />
<circle cx="-1.00" cy="1.00" r="0.02" />
<circle cx="1.48" cy="-1.17" r="0.02" />
<circle cx="1.32" cy="-1.73" r="0.02" />
<circle cx="-0.15" cy="0.35" r="0.02" />
<circle cx="1.35" cy="1.55" r="0.02" />
<circle cx="0.68" cy="-0.28" r="0.02" />
<circle cx="-0.35" cy="1.45" r="0.02" />
<circle cx="-1.20" cy="-0.90" r="0.02" />
<circle cx="1.35" cy="-1.45" r="0.02" />
<circle cx="0.33" cy="0.28" r="0.02" />
<circle cx="-0.35" cy="-1.55" r="0.02" />
<circle cx="-2.00" cy="0.00" r="0.02" />
<circle cx="-0.33" cy="1.73" r="0.02" />
<circle cx="-0.48" cy="1.17" r="0.02" />
<circle cx="2.00" cy="-1.00" r="0.02" />
<circle cx="0.35" cy="0.55" r="0.02" />
<circle cx="-0.33" cy="-1.27" r="0.02" />
<circle cx="-1.35" cy="0.45" r="0.02" />
<circle cx="1.20" cy="-0.10" r="0.02" />
<circle cx="-0.53" cy="-0.18" r="0.02" />
<circle cx="-0.68" cy="-0.72" r="0.02" />
<circle cx="1.00" cy="1.00" r="0.02" />
<circle cx="0.85" cy="0.45" r="0.02" />
<circle cx="-1.32" cy="0.72" r="0.02" />
<circle cx="1.67" cy="-0.17" r="0.02" />
<circle cx="0.20" cy="1.90" r="0.02" />
<circle cx="2.67" cy="-0.28" r="0.02" />
<circle cx="-1.68" cy="1.27" r="0.02" />
<circle cx="0.80" cy="-0.90" r="0.02" />
<circle cx="0.65" cy="-1.45" r="0.02" />
<circle cx="2.33" cy="0.28" r="0.02" />
<circle cx="1.65" cy="-1.55" r="0.02" />
<line x1="0.00" y1="0.00" x2="-0.33" y2="-0.28" />
<line x1="0.00" y1="0.00" x2="0.20" y2="-0.10" />
<line x1="0.00" y1="0.00" x2="0.00" y2="1.00" />
<line x1="0.00" y1="0.00" x2="-1.00" y2="0.00" />
<line x1="0.00" y1="0.00" x2="-0.35" y2="0.45" />
<line x1="0.00" y1="0.00" x2="0.35" y2="-0.45" />
<line x1="0.00" y1="0.00" x2="1.00" y2="0.00" />
<line x1="0.00" y1="0.00" x2="0.00" y2="-1.00" />
<line x1="0.00" y1="0.00" x2="-0.20" y2="0.10" />
<line x1="0.00" y1="0.00" x2="0.33" y2="0.28" />
<line x1="-1.65" y1="1.55" x2="-0.65" y2="1.55" />
<line x1="-2.33" y1="-0.28" x2="-1.32" y2="-0.28" />
<line x1="-2.33" y1="-0.28" x2="-2.53" y2="-0.18" />
<line x1="-2.33" y1="-0.28" x2="-2.00" y2="0.00" />
<line x1="-0.65" y1="1.45" x2="-0.33" y2="1.73" />
<line x1="-0.80" y1="0.90" x2="0.20" y2="0.90" />
<line x1="-0.80" y1="0.90" x2="-1.00" y2="1.00" />
<line x1="-0.80" y1="0.90" x2="-0.48" y2="1.17" />
<line x1="1.68" y1="-1.27" x2="1.68" y2="-0.28" />
<line x1="1.68" y1="-1.27" x2="0.68" y2="-1.27" />
<line x1="1.68" y1="-1.27" x2="2.67" y2="-1.27" />
<line x1="1.68" y1="-1.27" x2="1.48" y2="-1.17" />
<line x1="1.68" y1="-1.27" x2="2.00" y2="-1.00" />
<line x1="-2.67" y1="0.28" x2="-2.67" y2="1.27" />
<line x1="-2.67" y1="0.28" x2="-1.68" y2="0.28" />
<line x1="-1.00" y1="2.00" x2="-1.32" y2="1.73" />
<line x1="-1.00" y1="2.00" x2="-0.65" y2="1.55" />
<line x1="-1.00" y1="2.00" x2="0.00" y2="2.00" />
<line x1="-1.00" y1="2.00" x2="-1.00" y2="1.00" />
<line x1="-1.67" y1="0.17" x2="-1.67" y2="1.18" />
<line x1="-1.67" y1="0.17" x2="-1.32" y2="-0.28" />
<line x1="-1.67" y1="0.17" x2="-0.68" y2="0.17" />
<line x1="-1.67" y1="0.17" x2="-1.35" y2="0.45" />
<line x1="1.32" y1="-0.72" x2="1.00" y2="-1.00" />
<line x1="1.32" y1="-0.72" x2="1.32" y2="0.28" />
<line x1="1.32" y1="-0.72" x2="0.33" y2="-0.72" />
<line x1="1.32" y1="-0.72" x2="2.33" y2="-0.72" />
<line x1="1.32" y1="-0.72" x2="1.32" y2="-1.73" />
<line x1="-0.33" y1="0.82" x2="-0.65" y2="0.55" />
<line x1="-0.33" y1="0.82" x2="-0.68" y2="1.27" />
<line x1="-0.33" y1="0.82" x2="0.68" y2="0.82" />
<line x1="-1.00" y1="-1.00" x2="-1.00" y2="0.00" />
<line x1="-1.00" y1="-1.00" x2="-2.00" y2="-1.00" />
<line x1="-1.00" y1="-1.00" x2="-1.35" y2="-0.55" />
<line x1="-1.00" y1="-1.00" x2="0.00" y2="-1.00" />
<line x1="-1.00" y1="-1.00" x2="-1.20" y2="-0.90" />
<line x1="-1.00" y1="-1.00" x2="-0.68" y2="-0.72" />
<line x1="0.68" y1="0.72" x2="0.68" y2="1.73" />
<line x1="0.68" y1="0.72" x2="-0.33" y2="0.72" />
<line x1="0.68" y1="0.72" x2="1.68" y2="0.72" />
<line x1="0.68" y1="0.72" x2="0.68" y2="-0.28" />
<line x1="0.68" y1="0.72" x2="1.00" y2="1.00" />
<line x1="0.53" y1="0.18" x2="0.20" y2="-0.10" />
<line x1="0.53" y1="0.18" x2="0.53" y2="1.17" />
<line x1="0.53" y1="0.18" x2="-0.48" y2="0.18" />
<line x1="0.53" y1="0.18" x2="1.52" y2="0.18" />
<line x1="0.53" y1="0.18" x2="0.33" y2="0.28" />
<line x1="0.53" y1="0.18" x2="0.85" y2="0.45" />
<line x1="-1.20" y1="0.10" x2="-1.52" y2="-0.18" />
<line x1="-1.20" y1="0.10" x2="-1.00" y2="0.00" />
<line x1="-1.20" y1="0.10" x2="-2.20" y2="0.10" />
<line x1="-1.20" y1="0.10" x2="-0.20" y2="0.10" />
<line x1="-1.20" y1="0.10" x2="-1.20" y2="-0.90" />
<line x1="1.35" y1="-0.45" x2="1.35" y2="0.55" />
<line x1="1.35" y1="-0.45" x2="0.35" y2="-0.45" />
<line x1="1.35" y1="-0.45" x2="1.00" y2="0.00" />
<line x1="1.35" y1="-0.45" x2="2.35" y2="-0.45" />
<line x1="1.35" y1="-0.45" x2="1.35" y2="-1.45" />
<line x1="1.35" y1="-0.45" x2="1.67" y2="-0.17" />
<line x1="0.33" y1="1.27" x2="0.00" y2="1.00" />
<line x1="0.33" y1="1.27" x2="0.53" y2="1.17" />
<line x1="0.33" y1="1.27" x2="-0.68" y2="1.27" />
<line x1="0.33" y1="1.27" x2="0.68" y2="0.82" />
<line x1="0.33" y1="1.27" x2="0.33" y2="0.28" />
<line x1="-0.35" y1="-0.55" x2="-0.68" y2="-0.82" />
<line x1="-0.35" y1="-0.55" x2="-0.35" y2="0.45" />
<line x1="-0.35" y1="-0.55" x2="-1.35" y2="-0.55" />
<line x1="-0.35" y1="-0.55" x2="0.00" y2="-1.00" />
<line x1="-0.35" y1="-0.55" x2="0.65" y2="-0.55" />
<line x1="-0.35" y1="-0.55" x2="-0.35" y2="-1.55" />
<line x1="-2.00" y1="1.00" x2="-3.00" y2="1.00" />
<line x1="-2.00" y1="1.00" x2="-2.35" y2="1.45" />
<line x1="-2.00" y1="1.00" x2="-1.00" y2="1.00" />
<line x1="-2.00" y1="1.00" x2="-2.00" y2="0.00" />
<line x1="-2.00" y1="1.00" x2="-1.68" y2="1.27" />
<line x1="0.48" y1="-1.17" x2="0.68" y2="-1.27" />
<line x1="0.48" y1="-1.17" x2="0.48" y2="-0.18" />
<line x1="0.48" y1="-1.17" x2="1.48" y2="-1.17" />
<line x1="0.48" y1="-1.17" x2="0.80" y2="-0.90" />
<line x1="0.33" y1="-1.73" x2="0.00" y2="-2.00" />
<line x1="0.33" y1="-1.73" x2="0.33" y2="-0.72" />
<line x1="0.33" y1="-1.73" x2="-0.68" y2="-1.73" />
<line x1="0.33" y1="-1.73" x2="1.32" y2="-1.73" />
<line x1="0.33" y1="-1.73" x2="0.65" y2="-1.45" />
<line x1="2.00" y1="0.00" x2="1.68" y2="-0.28" />
<line x1="2.00" y1="0.00" x2="2.20" y2="-0.10" />
<line x1="2.00" y1="0.00" x2="2.00" y2="1.00" />
<line x1="2.00" y1="0.00" x2="1.00" y2="0.00" />
<line x1="2.00" y1="0.00" x2="2.35" y2="-0.45" />
<line x1="2.00" y1="0.00" x2="2.00" y2="-1.00" />
<line x1="2.00" y1="0.00" x2="2.33" y2="0.28" />
<line x1="0.35" y1="1.55" x2="-0.65" y2="1.55" />
<line x1="0.35" y1="1.55" x2="0.00" y2="2.00" />
<line x1="0.35" y1="1.55" x2="1.35" y2="1.55" />
<line x1="0.35" y1="1.55" x2="0.35" y2="0.55" />
<line x1="-0.33" y1="-0.28" x2="-0.33" y2="0.72" />
<line x1="-0.33" y1="-0.28" x2="-1.32" y2="-0.28" />
<line x1="-0.33" y1="-0.28" x2="-0.68" y2="0.17" />
<line x1="-0.33" y1="-0.28" x2="0.68" y2="-0.28" />
<line x1="-0.33" y1="-0.28" x2="-0.33" y2="-1.27" />
<line x1="-0.33" y1="-0.28" x2="-0.53" y2="-0.18" />
<line x1="-1.35" y1="1.45" x2="-1.67" y2="1.18" />
<line x1="-1.35" y1="1.45" x2="-2.35" y2="1.45" />
<line x1="-1.35" y1="1.45" x2="-1.00" y2="1.00" />
<line x1="-1.35" y1="1.45" x2="-0.35" y2="1.45" />
<line x1="-1.35" y1="1.45" x2="-1.35" y2="0.45" />
<line x1="1.20" y1="0.90" x2="0.20" y2="0.90" />
<line x1="1.20" y1="0.90" x2="1.20" y2="-0.10" />
<line x1="1.20" y1="0.90" x2="1.00" y2="1.00" />
<line x1="0.35" y1="-1.45" x2="0.35" y2="-0.45" />
<line x1="0.35" y1="-1.45" x2="0.00" y2="-1.00" />
<line x1="0.35" y1="-1.45" x2="1.35" y2="-1.45" />
<line x1="-0.68" y1="0.28" x2="-1.00" y2="0.00" />
<line x1="-0.68" y1="0.28" x2="-0.48" y2="0.18" />
<line x1="-0.68" y1="0.28" x2="-0.68" y2="1.27" />
<line x1="-0.68" y1="0.28" x2="-1.68" y2="0.28" />
<line x1="-0.68" y1="0.28" x2="0.33" y2="0.28" />
<line x1="-0.68" y1="0.28" x2="-0.68" y2="-0.72" />
<line x1="1.00" y1="2.00" x2="0.68" y2="1.73" />
<line x1="1.00" y1="2.00" x2="0.00" y2="2.00" />
<line x1="1.00" y1="2.00" x2="1.35" y2="1.55" />
<line x1="1.00" y1="2.00" x2="1.00" y2="1.00" />
<line x1="0.15" y1="-0.35" x2="0.35" y2="-0.45" />
<line x1="0.15" y1="-0.35" x2="-0.20" y2="0.10" />
<line x1="-1.32" y1="1.73" x2="-0.33" y2="1.73" />
<line x1="-1.32" y1="1.73" x2="-1.32" y2="0.72" />
<line x1="1.67" y1="0.82" x2="1.35" y2="0.55" />
<line x1="1.67" y1="0.82" x2="0.68" y2="0.82" />
<line x1="1.67" y1="0.82" x2="1.67" y2="-0.17" />
<line x1="1.00" y1="-1.00" x2="0.68" y2="-1.27" />
<line x1="1.00" y1="-1.00" x2="1.00" y2="0.00" />
<line x1="1.00" y1="-1.00" x2="0.00" y2="-1.00" />
<line x1="1.00" y1="-1.00" x2="0.65" y2="-0.55" />
<line x1="1.00" y1="-1.00" x2="1.35" y2="-1.45" />
<line x1="1.00" y1="-1.00" x2="2.00" y2="-1.00" />
<line x1="1.00" y1="-1.00" x2="0.80" y2="-0.90" />
<line x1="2.53" y1="0.18" x2="2.20" y2="-0.10" />
<line x1="2.53" y1="0.18" x2="1.52" y2="0.18" />
<line x1="2.53" y1="0.18" x2="2.33" y2="0.28" />
<line x1="-0.65" y1="0.55" x2="-0.65" y2="1.55" />
<line x1="-0.65" y1="0.55" x2="-1.00" y2="1.00" />
<line x1="-0.65" y1="0.55" x2="0.35" y2="0.55" />
<line x1="-2.35" y1="0.45" x2="-2.35" y2="1.45" />
<line x1="-2.35" y1="0.45" x2="-2.00" y2="0.00" />
<line x1="-2.35" y1="0.45" x2="-1.35" y2="0.45" />
<line x1="0.20" y1="-0.10" x2="0.20" y2="0.90" />
<line x1="0.20" y1="-0.10" x2="-0.15" y2="0.35" />
<line x1="0.20" y1="-0.10" x2="1.20" y2="-0.10" />
<line x1="-1.52" y1="-0.18" x2="-1.32" y2="-0.28" />
<line x1="-1.52" y1="-0.18" x2="-2.53" y2="-0.18" />
<line x1="-1.52" y1="-0.18" x2="-0.53" y2="-0.18" />
<line x1="-1.68" y1="-0.72" x2="-2.00" y2="-1.00" />
<line x1="-1.68" y1="-0.72" x2="-1.68" y2="0.28" />
<line x1="-1.68" y1="-0.72" x2="-0.68" y2="-0.72" />
<line x1="0.00" y1="1.00" x2="-0.33" y2="0.72" />
<line x1="0.00" y1="1.00" x2="0.20" y2="0.90" />
<line x1="0.00" y1="1.00" x2="0.00" y2="2.00" />
<line x1="0.00" y1="1.00" x2="-1.00" y2="1.00" />
<line x1="0.00" y1="1.00" x2="-0.35" y2="1.45" />
<line x1="0.00" y1="1.00" x2="0.35" y2="0.55" />
<line x1="0.00" y1="1.00" x2="1.00" y2="1.00" />
<line x1="-0.68" y1="-0.82" x2="-0.68" y2="0.17" />
<line x1="-0.68" y1="-0.82" x2="-0.33" y2="-1.27" />
<line x1="2.33" y1="-1.73" x2="2.33" y2="-0.72" />
<line x1="2.33" y1="-1.73" x2="1.32" y2="-1.73" />
<line x1="0.68" y1="-0.17" x2="0.35" y2="-0.45" />
<line x1="0.68" y1="-0.17" x2="0.68" y2="0.82" />
<line x1="0.68" y1="-0.17" x2="0.33" y2="0.28" />
<line x1="0.68" y1="-0.17" x2="1.67" y2="-0.17" />
<line x1="0.00" y1="-2.00" x2="0.00" y2="-1.00" />
<line x1="0.00" y1="-2.00" x2="-0.35" y2="-1.55" />
<line x1="1.68" y1="-0.28" x2="1.68" y2="0.72" />
<line x1="1.68" y1="-0.28" x2="0.68" y2="-0.28" />
<line x1="1.68" y1="-0.28" x2="2.67" y2="-0.28" />
<line x1="-2.67" y1="1.27" x2="-3.00" y2="1.00" />
<line x1="-2.67" y1="1.27" x2="-1.68" y2="1.27" />
<line x1="-0.20" y1="-0.90" x2="0.00" y2="-1.00" />
<line x1="-0.20" y1="-0.90" x2="-0.20" y2="0.10" />
<line x1="-0.20" y1="-0.90" x2="-1.20" y2="-0.90" />
<line x1="-0.20" y1="-0.90" x2="0.80" y2="-0.90" />
<line x1="-1.67" y1="1.18" x2="-1.32" y2="0.72" />
<line x1="1.32" y1="0.28" x2="1.00" y2="0.00" />
<line x1="1.32" y1="0.28" x2="1.52" y2="0.18" />
<line x1="1.32" y1="0.28" x2="0.33" y2="0.28" />
<line x1="1.32" y1="0.28" x2="1.67" y2="-0.17" />
<line x1="1.32" y1="0.28" x2="2.33" y2="0.28" />
<line x1="0.65" y1="-1.55" x2="0.65" y2="-0.55" />
<line x1="0.65" y1="-1.55" x2="-0.35" y2="-1.55" />
<line x1="0.65" y1="-1.55" x2="1.65" y2="-1.55" />
<line x1="-1.00" y1="0.00" x2="-1.32" y2="-0.28" />
<line x1="-1.00" y1="0.00" x2="-1.00" y2="1.00" />
<line x1="-1.00" y1="0.00" x2="-2.00" y2="0.00" />
<line x1="-1.00" y1="0.00" x2="-1.35" y2="0.45" />
<line x1="0.68" y1="1.73" x2="-0.33" y2="1.73" />
<line x1="0.53" y1="1.17" x2="0.20" y2="0.90" />
<line x1="0.53" y1="1.17" x2="-0.48" y2="1.17" />
<line x1="3.00" y1="-1.00" x2="2.67" y2="-1.27" />
<line x1="3.00" y1="-1.00" x2="2.00" y2="-1.00" />
<line x1="1.35" y1="0.55" x2="1.35" y2="1.55" />
<line x1="1.35" y1="0.55" x2="0.35" y2="0.55" />
<line x1="1.35" y1="0.55" x2="1.00" y2="1.00" />
<line x1="0.68" y1="-1.27" x2="0.68" y2="-0.28" />
<line x1="0.68" y1="-1.27" x2="-0.33" y2="-1.27" />
<line x1="-0.35" y1="0.45" x2="-0.68" y2="0.17" />
<line x1="-0.35" y1="0.45" x2="-0.15" y2="0.35" />
<line x1="-0.35" y1="0.45" x2="-0.35" y2="1.45" />
<line x1="-0.35" y1="0.45" x2="-1.35" y2="0.45" />
<line x1="2.20" y1="-0.10" x2="1.20" y2="-0.10" />
<line x1="0.48" y1="-0.18" x2="0.68" y2="-0.28" />
<line x1="0.48" y1="-0.18" x2="-0.53" y2="-0.18" />
<line x1="0.33" y1="-0.72" x2="0.00" y2="-1.00" />
<line x1="0.33" y1="-0.72" x2="0.33" y2="0.28" />
<line x1="0.33" y1="-0.72" x2="-0.68" y2="-0.72" />
<line x1="2.00" y1="1.00" x2="1.68" y2="0.72" />
<line x1="2.00" y1="1.00" x2="1.00" y2="1.00" />
<line x1="-2.00" y1="-1.00" x2="-2.00" y2="0.00" />
<line x1="-0.33" y1="0.72" x2="-0.33" y2="1.73" />
<line x1="-0.33" y1="0.72" x2="-1.32" y2="0.72" />
<line x1="-0.48" y1="0.18" x2="-0.48" y2="1.17" />
<line x1="-2.20" y1="0.10" x2="-2.53" y2="-0.18" />
<line x1="-2.20" y1="0.10" x2="-2.00" y2="0.00" />
<line x1="0.35" y1="-0.45" x2="0.35" y2="0.55" />
<line x1="-0.68" y1="1.27" x2="-1.00" y2="1.00" />
<line x1="-0.68" y1="1.27" x2="-0.48" y2="1.17" />
<line x1="-0.68" y1="1.27" x2="-1.68" y2="1.27" />
<line x1="-1.35" y1="-0.55" x2="-1.35" y2="0.45" />
<line x1="-0.68" y1="-1.73" x2="-0.68" y2="-0.72" />
<line x1="1.00" y1="0.00" x2="0.68" y2="-0.28" />
<line x1="1.00" y1="0.00" x2="1.20" y2="-0.10" />
<line x1="1.00" y1="0.00" x2="1.00" y2="1.00" />
<line x1="-1.32" y1="-0.28" x2="-1.32" y2="0.72" />
<line x1="0.20" y1="0.90" x2="0.20" y2="1.90" />
<line x1="2.67" y1="-1.27" x2="2.67" y2="-0.28" />
<line x1="-1.68" y1="0.28" x2="-2.00" y2="0.00" />
<line x1="-1.68" y1="0.28" x2="-1.68" y2="1.27" />
<line x1="0.00" y1="2.00" x2="-0.33" y2="1.73" />
<line x1="0.00" y1="2.00" x2="0.20" y2="1.90" />
<line x1="2.33" y1="-0.72" x2="2.00" y2="-1.00" />
<line x1="2.33" y1="-0.72" x2="2.33" y2="0.28" />
<line x1="0.68" y1="0.82" x2="0.35" y2="0.55" />
<line x1="0.00" y1="-1.00" x2="-0.33" y2="-1.27" />
<line x1="1.52" y1="0.18" x2="1.20" y2="-0.10" />
<line x1="-0.20" y1="0.10" x2="-0.53" y2="-0.18" />
<line x1="-1.00" y1="1.00" x2="-1.32" y2="0.72" />
</g>
</svg>