<svg xmlns="http://www.w3.org/2000/svg" width="107.0" height="100.0" viewBox="36.76 29.60 117.02 110.00">
<g fill="none" stroke="black" stroke-width="0.0236%" transform="translate(0, 169.2067) scale(21.1939, -21.1939)">
<circle cx="4.14" cy="4.27" r="0.02" />
<circle cx="4.08" cy="4.24" r="0.02" />
<circle cx="4.62" cy="4.21" r="0.02" />
<circle cx="7.02" cy="6.09" r="0.02" />
<circle cx="6.13" cy="5.76" r="0.02" />
<circle cx="6.56" cy="6.00" r="0.02" />
<circle cx="4.61" cy="5.44" r="0.02" />
<circle cx="5.02" cy="3.93" r="0.02" />
<circle cx="3.12" cy="3.79" r="0.02" />
<circle cx="2.40" cy="2.13" r="0.02" />
<circle cx="5.05" cy="4.33" r="0.02" />
<circle cx="4.53" cy="3.50" r="0.02" />
<circle cx="3.49" cy="3.60" r="0.02" />
<circle cx="4.71" cy="4.79" r="0.02" />
<circle cx="4.47" cy="4.46" r="0.02" />
<circle cx="3.32" cy="1.63" r="0.02" />
<circle cx="2.58" cy="3.67" r="0.02" />
<circle cx="4.50" cy="3.55" r="0.02" />
<circle cx="3.82" cy="3.87" r="0.02" />
<circle cx="3.43" cy="4.45" r="0.02" />
<circle cx="3.86" cy="4.39" r="0.02" />
<circle cx="3.56" cy="2.48" r="0.02" />
<circle cx="5.53" cy="4.97" r="0.02" />
<circle cx="2.56" cy="3.79" r="0.02" />
<circle cx="3.54" cy="5.44" r="0.02" />
<circle cx="2.36" cy="1.70" r="0.02" />
<circle cx="4.39" cy="4.19" r="0.02" />
<circle cx="3.90" cy="4.83" r="0.02" />
<circle cx="4.13" cy="5.40" r="0.02" />
<circle cx="3.11" cy="2.83" r="0.02" />
<circle cx="4.19" cy="3.29" r="0.02" />
<circle cx="5.02" cy="3.22" r="0.02" />
<circle cx="3.82" cy="3.75" r="0.02" />
<circle cx="3.34" cy="5.18" r="0.02" />
<circle cx="2.16" cy="5.45" r="0.02" />
<circle cx="2.98" cy="4.23" r="0.02" />
<circle cx="3.31" cy="4.69" r="0.02" />
<circle cx="2.44" cy="3.75" r="0.02" />
<circle cx="3.71" cy="3.59" r="0.02" />
<circle cx="3.16" cy="2.73" r="0.02" />
<circle cx="4.59" cy="3.61" r="0.02" />
<circle cx="5.60" cy="5.22" r="0.02" />
<circle cx="3.72" cy="3.67" r="0.02" />
<circle cx="3.97" cy="4.41" r="0.02" />
<circle cx="2.69" cy="2.55" r="0.02" />
<circle cx="4.74" cy="4.52" r="0.02" />
<circle cx="3.91" cy="3.89" r="0.02" />
<circle cx="4.19" cy="5.14" r="0.02" />
<circle cx="3.50" cy="2.76" r="0.02" />
<circle cx="4.52" cy="5.34" r="0.02" />
<circle cx="4.31" cy="3.94" r="0.02" />
<circle cx="5.17" cy="2.92" r="0.02" />
<circle cx="5.41" cy="5.39" r="0.02" />
<circle cx="5.21" cy="5.25" r="0.02" />
<circle cx="4.77" cy="6.35" r="0.02" />
<circle cx="3.88" cy="4.79" r="0.02" />
<circle cx="3.82" cy="3.97" r="0.02" />
<circle cx="4.60" cy="4.94" r="0.02" />
<circle cx="5.25" cy="4.62" r="0.02" />
<circle cx="4.17" cy="4.75" r="0.02" />
<circle cx="4.29" cy="3.50" r="0.02" />
<circle cx="4.82" cy="5.17" r="0.02" />
<circle cx="3.14" cy="2.45" r="0.02" />
<circle cx="3.43" cy="3.83" r="0.02" />
<circle cx="3.50" cy="3.80" r="0.02" />
<circle cx="4.91" cy="3.72" r="0.02" />
<circle cx="3.79" cy="6.29" r="0.02" />
<circle cx="2.83" cy="3.58" r="0.02" />
<circle cx="5.01" cy="4.46" r="0.02" />
<circle cx="4.70" cy="5.52" r="0.02" />
<circle cx="3.35" cy="3.77" r="0.02" />
<circle cx="4.97" cy="4.75" r="0.02" />
<circle cx="5.28" cy="5.17" r="0.02" />
<circle cx="3.28" cy="3.08" r="0.02" />
<circle cx="4.00" cy="3.12" r="0.02" />
<circle cx="3.52" cy="3.41" r="0.02" />
<circle cx="1.97" cy="4.32" r="0.02" />
<circle cx="3.36" cy="4.97" r="0.02" />
<circle cx="5.30" cy="4.45" r="0.02" />
<circle cx="4.87" cy="3.64" r="0.02" />
<circle cx="4.19" cy="4.42" r="0.02" />
<circle cx="3.77" cy="4.53" r="0.02" />
<circle cx="2.37" cy="4.54" r="0.02" />
<circle cx="3.77" cy="3.54" r="0.02" />
<circle cx="5.20" cy="3.45" r="0.02" />
<circle cx="3.05" cy="3.84" r="0.02" />
<circle cx="4.45" cy="5.35" r="0.02" />
<circle cx="4.14" cy="3.42" r="0.02" />
<circle cx="4.73" cy="4.55" r="0.02" />
<circle cx="4.73" cy="4.49" r="0.02" />
<circle cx="5.04" cy="3.64" r="0.02" />
<circle cx="3.62" cy="2.25" r="0.02" />
<circle cx="3.53" cy="5.23" r="0.02" />
<circle cx="3.23" cy="3.69" r="0.02" />
<circle cx="4.12" cy="5.77" r="0.02" />
<circle cx="3.52" cy="3.45" r="0.02" />
<circle cx="3.58" cy="4.16" r="0.02" />
<circle cx="3.65" cy="2.71" r="0.02" />
<circle cx="4.34" cy="4.86" r="0.02" />
<circle cx="3.85" cy="2.75" r="0.02" />
<circle cx="6.76" cy="4.04" r="0.02" />
<circle cx="3.32" cy="3.57" r="0.02" />
<circle cx="3.93" cy="4.67" r="0.02" />
<circle cx="3.61" cy="2.96" r="0.02" />
<circle cx="4.55" cy="4.57" r="0.02" />
<circle cx="4.53" cy="5.19" r="0.02" />
<circle cx="2.11" cy="3.38" r="0.02" />
<circle cx="5.06" cy="5.65" r="0.02" />
<circle cx="3.73" cy="2.53" r="0.02" />
<circle cx="5.62" cy="4.90" r="0.02" />
<circle cx="4.32" cy="2.64" r="0.02" />
<circle cx="4.58" cy="4.82" r="0.02" />
<circle cx="2.58" cy="3.30" r="0.02" />
<circle cx="2.57" cy="2.75" r="0.02" />
<circle cx="3.83" cy="4.27" r="0.02" />
<circle cx="3.53" cy="4.65" r="0.02" />
<circle cx="3.61" cy="2.40" r="0.02" />
<circle cx="4.13" cy="3.16" r="0.02" />
<circle cx="3.67" cy="3.97" r="0.02" />
<circle cx="5.13" cy="5.70" r="0.02" />
<circle cx="3.52" cy="2.54" r="0.02" />
<circle cx="3.63" cy="5.34" r="0.02" />
<circle cx="4.17" cy="3.90" r="0.02" />
<circle cx="4.20" cy="4.93" r="0.02" />
<circle cx="4.40" cy="2.97" r="0.02" />
<circle cx="2.60" cy="3.30" r="0.02" />
<circle cx="2.97" cy="3.78" r="0.02" />
<circle cx="5.32" cy="4.64" r="0.02" />
<circle cx="2.58" cy="3.19" r="0.02" />
<circle cx="4.09" cy="3.93" r="0.02" />
<circle cx="5.38" cy="5.35" r="0.02" />
<circle cx="4.36" cy="5.09" r="0.02" />
<circle cx="4.29" cy="4.95" r="0.02" />
<circle cx="6.47" cy="5.49" r="0.02" />
<circle cx="4.51" cy="3.72" r="0.02" />
<circle cx="2.76" cy="4.43" r="0.02" />
<circle cx="4.14" cy="5.21" r="0.02" />
<circle cx="4.04" cy="3.71" r="0.02" />
<circle cx="6.09" cy="4.70" r="0.02" />
<circle cx="3.25" cy="3.41" r="0.02" />
<circle cx="3.82" cy="5.10" r="0.02" />
<circle cx="4.39" cy="4.07" r="0.02" />
<circle cx="3.61" cy="4.69" r="0.02" />
<circle cx="3.84" cy="2.69" r="0.02" />
<circle cx="4.21" cy="4.05" r="0.02" />
<circle cx="4.51" cy="3.49" r="0.02" />
<circle cx="3.73" cy="3.97" r="0.02" />
<circle cx="4.76" cy="4.34" r="0.02" />
<circle cx="3.12" cy="4.48" r="0.02" />
<circle cx="4.45" cy="4.40" r="0.02" />
</g>
</svg>