<svg xmlns="http://www.w3.org/2000/svg" width="161.8" height="100.0" viewBox="-125.945 -78.359 171.803 110.000">
<g fill="none" stroke="black" stroke-width="0.0101%" transform="translate(0, -46.7190) scale(49.3859, -49.3859)">
<circle cx="0.202" cy="0.000" r="0.010" />
<circle cx="0.202" cy="0.200" r="0.010" />
<circle cx="-0.122" cy="0.340" r="0.010" />
<circle cx="-0.749" cy="0.009" r="0.010" />
<circle cx="-0.407" cy="-0.743" r="0.010" />
<circle cx="-0.498" cy="-0.475" r="0.010" />
<circle cx="-0.204" cy="-0.496" r="0.010" />
<circle cx="-0.058" cy="-0.350" r="0.010" />
<circle cx="0.128" cy="-0.212" r="0.010" />
<circle cx="0.290" cy="-0.007" r="0.010" />
<circle cx="0.310" cy="0.281" r="0.010" />
<circle cx="-0.176" cy="0.534" r="0.010" />
<circle cx="-1.368" cy="0.000" r="0.010" />
<circle cx="-0.306" cy="-1.354" r="0.010" />
<circle cx="-2.289" cy="-0.570" r="0.010" />
<circle cx="0.568" cy="-1.259" r="0.010" />
<circle cx="-1.003" cy="-0.775" r="0.010" />
<circle cx="-0.678" cy="-0.611" r="0.010" />
<circle cx="-0.394" cy="-0.566" r="0.010" />
<circle cx="-0.238" cy="-0.452" r="0.010" />
<circle cx="-0.050" cy="-0.355" r="0.010" />
<circle cx="0.133" cy="-0.209" r="0.010" />
<circle cx="0.294" cy="-0.001" r="0.010" />
<circle cx="0.309" cy="0.291" r="0.010" />
<circle cx="-0.199" cy="0.539" r="0.010" />
<circle cx="-1.403" cy="-0.034" r="0.010" />
<circle cx="-0.250" cy="-1.359" r="0.010" />
<circle cx="-2.273" cy="-0.591" r="0.010" />
<circle cx="0.524" cy="-1.216" r="0.010" />
<circle cx="-0.904" cy="-0.720" r="0.010" />
<circle cx="-0.582" cy="-0.610" r="0.010" />
<circle cx="-0.368" cy="-0.530" r="0.010" />
<circle cx="-0.187" cy="-0.436" r="0.010" />
<circle cx="-0.005" cy="-0.322" r="0.010" />
<circle cx="0.177" cy="-0.165" r="0.010" />
<circle cx="0.320" cy="0.064" r="0.010" />
<circle cx="0.253" cy="0.369" r="0.010" />
<circle cx="-0.464" cy="0.527" r="0.010" />
<circle cx="-1.513" cy="-0.438" r="0.010" />
<circle cx="-0.084" cy="-1.061" r="0.010" />
<circle cx="-1.058" cy="-0.525" r="0.010" />
<circle cx="-0.318" cy="-0.760" r="0.010" />
<circle cx="-0.479" cy="-0.455" r="0.010" />
<circle cx="-0.183" cy="-0.486" r="0.010" />
<circle cx="-0.035" cy="-0.336" r="0.010" />
<circle cx="0.149" cy="-0.191" r="0.010" />
<circle cx="0.304" cy="0.024" r="0.010" />
<circle cx="0.289" cy="0.320" r="0.010" />
<circle cx="-0.294" cy="0.537" r="0.010" />
<circle cx="-1.458" cy="-0.179" r="0.010" />
<circle cx="-0.108" cy="-1.274" r="0.010" />
<circle cx="-1.823" cy="-0.608" r="0.010" />
<circle cx="-0.004" cy="-1.012" r="0.010" />
<circle cx="-0.843" cy="-0.506" r="0.010" />
<circle cx="-0.309" cy="-0.665" r="0.010" />
<circle cx="-0.317" cy="-0.435" r="0.010" />
<circle cx="-0.089" cy="-0.395" r="0.010" />
<circle cx="0.089" cy="-0.251" r="0.010" />
<circle cx="0.261" cy="-0.060" r="0.010" />
<circle cx="0.334" cy="0.213" r="0.010" />
<circle cx="0.005" cy="0.508" r="0.010" />
<circle cx="-1.134" cy="0.262" r="0.010" />
<circle cx="-0.841" cy="-1.284" r="0.010" />
<circle cx="-2.180" cy="-0.406" r="0.010" />
<circle cx="0.550" cy="-1.485" r="0.010" />
<circle cx="-2.008" cy="-1.007" r="0.010" />
<circle cx="-0.636" cy="-0.490" r="0.010" />
<circle cx="-0.262" cy="-0.566" r="0.010" />
<circle cx="-0.162" cy="-0.396" r="0.010" />
<circle cx="0.032" cy="-0.295" r="0.010" />
<circle cx="0.212" cy="-0.125" r="0.010" />
<circle cx="0.333" cy="0.121" r="0.010" />
<circle cx="0.179" cy="0.430" r="0.010" />
<circle cx="-0.719" cy="0.468" r="0.010" />
<circle cx="-1.401" cy="-0.811" r="0.010" />
<circle cx="-0.633" cy="-0.668" r="0.010" />
<circle cx="-0.461" cy="-0.542" r="0.010" />
<circle cx="-0.245" cy="-0.480" r="0.010" />
<circle cx="-0.073" cy="-0.366" r="0.010" />
<circle cx="0.111" cy="-0.229" r="0.010" />
<circle cx="0.278" cy="-0.030" r="0.010" />
<circle cx="0.323" cy="0.252" r="0.010" />
<circle cx="-0.093" cy="0.526" r="0.010" />
<circle cx="-1.280" cy="0.123" r="0.010" />
<circle cx="-0.521" cy="-1.360" r="0.010" />
<circle cx="-2.421" cy="-0.494" r="0.010" />
<circle cx="0.827" cy="-1.458" r="0.010" />
<circle cx="-1.442" cy="-1.104" r="0.010" />
<circle cx="-1.391" cy="-0.403" r="0.010" />
<circle cx="-0.133" cy="-1.023" r="0.010" />
<circle cx="-0.983" cy="-0.508" r="0.010" />
<circle cx="-0.311" cy="-0.732" r="0.010" />
<circle cx="-0.426" cy="-0.449" r="0.010" />
<circle cx="-0.155" cy="-0.457" r="0.010" />
<circle cx="0.006" cy="-0.312" r="0.010" />
<circle cx="0.187" cy="-0.152" r="0.010" />
<circle cx="0.324" cy="0.081" r="0.010" />
<circle cx="0.232" cy="0.388" r="0.010" />
<circle cx="-0.539" cy="0.512" r="0.010" />
<circle cx="-1.493" cy="-0.551" r="0.010" />
<circle cx="-0.185" cy="-0.939" r="0.010" />
<circle cx="-0.790" cy="-0.481" r="0.010" />
<circle cx="-0.285" cy="-0.646" r="0.010" />
<circle cx="-0.275" cy="-0.423" r="0.010" />
<circle cx="-0.058" cy="-0.369" r="0.010" />
<circle cx="0.123" cy="-0.220" r="0.010" />
<circle cx="0.288" cy="-0.015" r="0.010" />
<circle cx="0.318" cy="0.273" r="0.010" />
<circle cx="-0.145" cy="0.537" r="0.010" />
<circle cx="-1.357" cy="0.047" r="0.010" />
<circle cx="-0.373" cy="-1.382" r="0.010" />
<circle cx="-2.449" cy="-0.550" r="0.010" />
<circle cx="0.820" cy="-1.365" r="0.010" />
<circle cx="-1.037" cy="-0.979" r="0.010" />
<circle cx="-1.148" cy="-0.511" r="0.010" />
<circle cx="-0.288" cy="-0.811" r="0.010" />
<circle cx="-0.562" cy="-0.459" r="0.010" />
<circle cx="-0.218" cy="-0.530" r="0.010" />
<circle cx="-0.096" cy="-0.366" r="0.010" />
<circle cx="0.092" cy="-0.244" r="0.010" />
<circle cx="0.263" cy="-0.053" r="0.010" />
<circle cx="0.330" cy="0.220" r="0.010" />
<circle cx="-0.014" cy="0.508" r="0.010" />
<circle cx="-1.151" cy="0.232" r="0.010" />
<circle cx="-0.772" cy="-1.288" r="0.010" />
<circle cx="-2.186" cy="-0.424" r="0.010" />
<circle cx="0.549" cy="-1.458" r="0.010" />
<circle cx="-1.882" cy="-0.978" r="0.010" />
<circle cx="-0.687" cy="-0.530" r="0.010" />
<circle cx="-0.308" cy="-0.585" r="0.010" />
<circle cx="-0.210" cy="-0.419" r="0.010" />
<circle cx="-0.013" cy="-0.330" r="0.010" />
<circle cx="0.169" cy="-0.174" r="0.010" />
<circle cx="0.317" cy="0.051" r="0.010" />
<circle cx="0.267" cy="0.355" r="0.010" />
<circle cx="-0.411" cy="0.535" r="0.010" />
<circle cx="-1.517" cy="-0.357" r="0.010" />
<circle cx="-0.051" cy="-1.144" r="0.010" />
<circle cx="-1.298" cy="-0.565" r="0.010" />
<circle cx="-0.293" cy="-0.841" r="0.010" />
<circle cx="-0.630" cy="-0.467" r="0.010" />
<circle cx="-0.244" cy="-0.566" r="0.010" />
<circle cx="-0.149" cy="-0.387" r="0.010" />
<circle cx="0.044" cy="-0.284" r="0.010" />
<circle cx="0.223" cy="-0.111" r="0.010" />
<circle cx="0.335" cy="0.141" r="0.010" />
<circle cx="0.146" cy="0.449" r="0.010" />
<circle cx="-0.811" cy="0.433" r="0.010" />
<circle cx="-1.310" cy="-0.933" r="0.010" />
<circle cx="-0.956" cy="-0.553" r="0.010" />
<circle cx="-0.354" cy="-0.699" r="0.010" />
<circle cx="-0.395" cy="-0.455" r="0.010" />
<circle cx="-0.144" cy="-0.441" r="0.010" />
<circle cx="0.024" cy="-0.300" r="0.010" />
<circle cx="0.204" cy="-0.134" r="0.010" />
<circle cx="0.331" cy="0.108" r="0.010" />
<circle cx="0.196" cy="0.417" r="0.010" />
<circle cx="-0.662" cy="0.484" r="0.010" />
<circle cx="-1.441" cy="-0.731" r="0.010" />
<circle cx="-0.461" cy="-0.749" r="0.010" />
<circle cx="-0.534" cy="-0.489" r="0.010" />
<circle cx="-0.228" cy="-0.514" r="0.010" />
<circle cx="-0.089" cy="-0.367" r="0.010" />
<circle cx="0.097" cy="-0.240" r="0.010" />
<circle cx="0.267" cy="-0.047" r="0.010" />
<circle cx="0.328" cy="0.229" r="0.010" />
<circle cx="-0.036" cy="0.514" r="0.010" />
<circle cx="-1.189" cy="0.204" r="0.010" />
<circle cx="-0.702" cy="-1.314" r="0.010" />
<circle cx="-2.280" cy="-0.439" r="0.010" />
<circle cx="0.664" cy="-1.485" r="0.010" />
<circle cx="-1.838" cy="-1.062" r="0.010" />
<circle cx="-0.971" cy="-0.418" r="0.010" />
<circle cx="-0.253" cy="-0.768" r="0.010" />
<circle cx="-0.455" cy="-0.442" r="0.010" />
<circle cx="-0.165" cy="-0.472" r="0.010" />
<circle cx="-0.012" cy="-0.322" r="0.010" />
<circle cx="0.171" cy="-0.169" r="0.010" />
<circle cx="0.316" cy="0.057" r="0.010" />
<circle cx="0.259" cy="0.359" r="0.010" />
<circle cx="-0.430" cy="0.528" r="0.010" />
<circle cx="-1.501" cy="-0.387" r="0.010" />
<circle cx="-0.069" cy="-1.104" r="0.010" />
<circle cx="-1.181" cy="-0.545" r="0.010" />
<circle cx="-0.311" cy="-0.804" r="0.010" />
<circle cx="-0.562" cy="-0.462" r="0.010" />
<circle cx="-0.220" cy="-0.530" r="0.010" />
<circle cx="-0.098" cy="-0.367" r="0.010" />
<circle cx="0.091" cy="-0.245" r="0.010" />
<circle cx="0.262" cy="-0.055" r="0.010" />
<circle cx="0.330" cy="0.218" r="0.010" />
<circle cx="-0.009" cy="0.507" r="0.010" />
<circle cx="-1.143" cy="0.239" r="0.010" />
<circle cx="-0.789" cy="-1.282" r="0.010" />
<circle cx="-2.166" cy="-0.421" r="0.010" />
<circle cx="0.526" cy="-1.452" r="0.010" />
<circle cx="-1.886" cy="-0.961" r="0.010" />
<circle cx="-0.636" cy="-0.553" r="0.010" />
<circle cx="-0.319" cy="-0.558" r="0.010" />
<circle cx="-0.187" cy="-0.418" r="0.010" />
<circle cx="0.003" cy="-0.317" r="0.010" />
<circle cx="0.185" cy="-0.156" r="0.010" />
<circle cx="0.324" cy="0.076" r="0.010" />
<circle cx="0.239" cy="0.384" r="0.010" />
<circle cx="-0.520" cy="0.519" r="0.010" />
<circle cx="-1.509" cy="-0.522" r="0.010" />
<circle cx="-0.148" cy="-0.975" r="0.010" />
<circle cx="-0.858" cy="-0.491" r="0.010" />
<circle cx="-0.299" cy="-0.678" r="0.010" />
<circle cx="-0.329" cy="-0.434" r="0.010" />
<circle cx="-0.096" cy="-0.401" r="0.010" />
<circle cx="0.081" cy="-0.257" r="0.010" />
<circle cx="0.255" cy="-0.069" r="0.010" />
<circle cx="0.336" cy="0.200" r="0.010" />
<circle cx="0.035" cy="0.499" r="0.010" />
<circle cx="-1.077" cy="0.301" r="0.010" />
<circle cx="-0.944" cy="-1.236" r="0.010" />
<circle cx="-1.993" cy="-0.398" r="0.010" />
<circle cx="0.335" cy="-1.387" r="0.010" />
<circle cx="-1.844" cy="-0.821" r="0.010" />
<circle cx="-0.343" cy="-0.737" r="0.010" />
<circle cx="-0.452" cy="-0.458" r="0.010" />
<circle cx="-0.173" cy="-0.471" r="0.010" />
<circle cx="-0.017" cy="-0.326" r="0.010" />
<circle cx="0.166" cy="-0.174" r="0.010" />
<circle cx="0.314" cy="0.049" r="0.010" />
<circle cx="0.267" cy="0.350" r="0.010" />
<circle cx="-0.397" cy="0.532" r="0.010" />
<circle cx="-1.497" cy="-0.336" r="0.010" />
<circle cx="-0.058" cy="-1.152" r="0.010" />
<circle cx="-1.332" cy="-0.567" r="0.010" />
<circle cx="-0.282" cy="-0.854" r="0.010" />
<circle cx="-0.651" cy="-0.468" r="0.010" />
<circle cx="-0.250" cy="-0.577" r="0.010" />
<circle cx="-0.165" cy="-0.393" r="0.010" />
<circle cx="0.030" cy="-0.296" r="0.010" />
<circle cx="0.210" cy="-0.127" r="0.010" />
<circle cx="0.333" cy="0.118" r="0.010" />
<circle cx="0.182" cy="0.427" r="0.010" />
<circle cx="-0.708" cy="0.471" r="0.010" />
<circle cx="-1.411" cy="-0.795" r="0.010" />
<circle cx="-0.596" cy="-0.684" r="0.010" />
<circle cx="-0.475" cy="-0.528" r="0.010" />
<circle cx="-0.238" cy="-0.486" r="0.010" />
<circle cx="-0.073" cy="-0.364" r="0.010" />
<circle cx="0.112" cy="-0.228" r="0.010" />
<circle cx="0.279" cy="-0.028" r="0.010" />
<circle cx="0.322" cy="0.254" r="0.010" />
<circle cx="-0.098" cy="0.527" r="0.010" />
<circle cx="-1.284" cy="0.116" r="0.010" />
<circle cx="-0.508" cy="-1.360" r="0.010" />
<circle cx="-2.414" cy="-0.499" r="0.010" />
<circle cx="0.814" cy="-1.446" r="0.010" />
<circle cx="-1.409" cy="-1.083" r="0.010" />
<circle cx="-1.339" cy="-0.426" r="0.010" />
<circle cx="-0.167" cy="-0.974" r="0.010" />
<circle cx="-0.869" cy="-0.491" r="0.010" />
</g>
</svg>