<svg xmlns="http://www.w3.org/2000/svg" width="161.8" height="100.0" viewBox="-2.66 -1.55 171.80 110.00">
<g fill="none" stroke="black" stroke-width="0.1450%" transform="translate(0, 106.8966) scale(3.4483, -3.4483)">
<circle cx="0.68" cy="1.00" r="0.15" />
<circle cx="1.36" cy="2.00" r="0.15" />
<circle cx="2.04" cy="3.00" r="0.15" />
<circle cx="2.72" cy="4.00" r="0.15" />
<circle cx="3.40" cy="5.00" r="0.15" />
<circle cx="4.08" cy="6.00" r="0.15" />
<circle cx="4.76" cy="7.00" r="0.15" />
<circle cx="5.44" cy="8.00" r="0.15" />
<circle cx="6.12" cy="9.00" r="0.15" />
<circle cx="6.80" cy="10.00" r="0.15" />
<circle cx="7.48" cy="11.00" r="0.15" />
<circle cx="8.16" cy="12.00" r="0.15" />
<circle cx="8.84" cy="13.00" r="0.15" />
<circle cx="9.52" cy="14.00" r="0.15" />
<circle cx="10.20" cy="15.00" r="0.15" />
<circle cx="10.88" cy="16.00" r="0.15" />
<circle cx="11.56" cy="17.00" r="0.15" />
<circle cx="12.24" cy="18.00" r="0.15" />
<circle cx="12.92" cy="19.00" r="0.15" />
<circle cx="13.60" cy="20.00" r="0.15" />
<circle cx="14.28" cy="20.00" r="0.15" />
<circle cx="14.96" cy="19.00" r="0.15" />
<circle cx="15.64" cy="18.00" r="0.15" />
<circle cx="16.32" cy="17.00" r="0.15" />
<circle cx="17.00" cy="16.00" r="0.15" />
<circle cx="17.68" cy="15.00" r="0.15" />
<circle cx="18.36" cy="14.00" r="0.15" />
<circle cx="19.04" cy="13.00" r="0.15" />
<circle cx="19.72" cy="12.00" r="0.15" />
<circle cx="20.40" cy="11.00" r="0.15" />
<circle cx="21.08" cy="10.00" r="0.15" />
<circle cx="21.76" cy="9.00" r="0.15" />
<circle cx="22.44" cy="8.00" r="0.15" />
<circle cx="23.12" cy="7.00" r="0.15" />
<circle cx="23.80" cy="6.00" r="0.15" />
<circle cx="24.48" cy="5.00" r="0.15" />
<circle cx="25.16" cy="4.00" r="0.15" />
<circle cx="25.84" cy="3.00" r="0.15" />
<circle cx="26.52" cy="2.00" r="0.15" />
<circle cx="27.20" cy="1.00" r="0.15" />
<circle cx="27.88" cy="1.00" r="0.15" />
<circle cx="28.56" cy="2.00" r="0.15" />
<circle cx="29.24" cy="3.00" r="0.15" />
<circle cx="29.92" cy="4.00" r="0.15" />
<circle cx="30.60" cy="5.00" r="0.15" />
<circle cx="31.28" cy="6.00" r="0.15" />
<circle cx="31.96" cy="7.00" r="0.15" />
<circle cx="32.64" cy="8.00" r="0.15" />
<circle cx="33.32" cy="9.00" r="0.15" />
<circle cx="34.00" cy="10.00" r="0.15" />
<circle cx="34.68" cy="11.00" r="0.15" />
<circle cx="35.36" cy="12.00" r="0.15" />
<circle cx="36.04" cy="13.00" r="0.15" />
<circle cx="36.72" cy="14.00" r="0.15" />
<circle cx="37.40" cy="15.00" r="0.15" />
<circle cx="38.08" cy="16.00" r="0.15" />
<circle cx="38.76" cy="17.00" r="0.15" />
<circle cx="39.44" cy="18.00" r="0.15" />
<circle cx="40.12" cy="19.00" r="0.15" />
<circle cx="40.80" cy="20.00" r="0.15" />
<circle cx="41.48" cy="21.00" r="0.15" />
<circle cx="42.16" cy="22.00" r="0.15" />
<circle cx="42.84" cy="23.00" r="0.15" />
<circle cx="43.52" cy="24.00" r="0.15" />
<circle cx="44.20" cy="25.00" r="0.15" />
<circle cx="44.88" cy="26.00" r="0.15" />
<circle cx="45.56" cy="27.00" r="0.15" />
<circle cx="46.24" cy="28.00" r="0.15" />
<circle cx="46.92" cy="29.00" r="0.15" />
<circle cx="47.60" cy="30.00" r="0.15" />
</g>
</svg>