<svg xmlns="http://www.w3.org/2000/svg" width="161.8" height="100.0" viewBox="-4.4 -2.0 171.8 110.0">
<g fill="none" stroke="black" stroke-width="0.1650%" transform="translate(0, 106.0606) scale(3.0303, -3.0303)">
<circle cx="0.2" cy="1.0" r="0.2" />
<circle cx="0.4" cy="1.0" r="0.2" />
<circle cx="0.6" cy="2.0" r="0.2" />
<circle cx="0.8" cy="1.0" r="0.2" />
<circle cx="1.0" cy="3.0" r="0.2" />
<circle cx="1.3" cy="2.0" r="0.2" />
<circle cx="1.5" cy="3.0" r="0.2" />
<circle cx="1.7" cy="1.0" r="0.2" />
<circle cx="1.9" cy="4.0" r="0.2" />
<circle cx="2.1" cy="3.0" r="0.2" />
<circle cx="2.3" cy="5.0" r="0.2" />
<circle cx="2.5" cy="2.0" r="0.2" />
<circle cx="2.7" cy="5.0" r="0.2" />
<circle cx="2.9" cy="3.0" r="0.2" />
<circle cx="3.1" cy="4.0" r="0.2" />
<circle cx="3.4" cy="1.0" r="0.2" />
<circle cx="3.6" cy="5.0" r="0.2" />
<circle cx="3.8" cy="4.0" r="0.2" />
<circle cx="4.0" cy="7.0" r="0.2" />
<circle cx="4.2" cy="3.0" r="0.2" />
<circle cx="4.4" cy="8.0" r="0.2" />
<circle cx="4.6" cy="5.0" r="0.2" />
<circle cx="4.8" cy="7.0" r="0.2" />
<circle cx="5.0" cy="2.0" r="0.2" />
<circle cx="5.2" cy="7.0" r="0.2" />
<circle cx="5.4" cy="5.0" r="0.2" />
<circle cx="5.7" cy="8.0" r="0.2" />
<circle cx="5.9" cy="3.0" r="0.2" />
<circle cx="6.1" cy="7.0" r="0.2" />
<circle cx="6.3" cy="4.0" r="0.2" />
<circle cx="6.5" cy="5.0" r="0.2" />
<circle cx="6.7" cy="1.0" r="0.2" />
<circle cx="6.9" cy="6.0" r="0.2" />
<circle cx="7.1" cy="5.0" r="0.2" />
<circle cx="7.3" cy="9.0" r="0.2" />
<circle cx="7.5" cy="4.0" r="0.2" />
<circle cx="7.7" cy="11.0" r="0.2" />
<circle cx="8.0" cy="7.0" r="0.2" />
<circle cx="8.2" cy="10.0" r="0.2" />
<circle cx="8.4" cy="3.0" r="0.2" />
<circle cx="8.6" cy="11.0" r="0.2" />
<circle cx="8.8" cy="8.0" r="0.2" />
<circle cx="9.0" cy="13.0" r="0.2" />
<circle cx="9.2" cy="5.0" r="0.2" />
<circle cx="9.4" cy="12.0" r="0.2" />
<circle cx="9.6" cy="7.0" r="0.2" />
<circle cx="9.8" cy="9.0" r="0.2" />
<circle cx="10.1" cy="2.0" r="0.2" />
<circle cx="10.3" cy="9.0" r="0.2" />
<circle cx="10.5" cy="7.0" r="0.2" />
<circle cx="10.7" cy="12.0" r="0.2" />
<circle cx="10.9" cy="5.0" r="0.2" />
<circle cx="11.1" cy="13.0" r="0.2" />
<circle cx="11.3" cy="8.0" r="0.2" />
<circle cx="11.5" cy="11.0" r="0.2" />
<circle cx="11.7" cy="3.0" r="0.2" />
<circle cx="11.9" cy="10.0" r="0.2" />
<circle cx="12.1" cy="7.0" r="0.2" />
<circle cx="12.4" cy="11.0" r="0.2" />
<circle cx="12.6" cy="4.0" r="0.2" />
<circle cx="12.8" cy="9.0" r="0.2" />
<circle cx="13.0" cy="5.0" r="0.2" />
<circle cx="13.2" cy="6.0" r="0.2" />
<circle cx="13.4" cy="1.0" r="0.2" />
<circle cx="13.6" cy="7.0" r="0.2" />
<circle cx="13.8" cy="6.0" r="0.2" />
<circle cx="14.0" cy="11.0" r="0.2" />
<circle cx="14.2" cy="5.0" r="0.2" />
<circle cx="14.4" cy="14.0" r="0.2" />
<circle cx="14.7" cy="9.0" r="0.2" />
<circle cx="14.9" cy="13.0" r="0.2" />
<circle cx="15.1" cy="4.0" r="0.2" />
<circle cx="15.3" cy="15.0" r="0.2" />
<circle cx="15.5" cy="11.0" r="0.2" />
<circle cx="15.7" cy="18.0" r="0.2" />
<circle cx="15.9" cy="7.0" r="0.2" />
<circle cx="16.1" cy="17.0" r="0.2" />
<circle cx="16.3" cy="10.0" r="0.2" />
<circle cx="16.5" cy="13.0" r="0.2" />
<circle cx="16.8" cy="3.0" r="0.2" />
<circle cx="17.0" cy="14.0" r="0.2" />
<circle cx="17.2" cy="11.0" r="0.2" />
<circle cx="17.4" cy="19.0" r="0.2" />
<circle cx="17.6" cy="8.0" r="0.2" />
<circle cx="17.8" cy="21.0" r="0.2" />
<circle cx="18.0" cy="13.0" r="0.2" />
<circle cx="18.2" cy="18.0" r="0.2" />
<circle cx="18.4" cy="5.0" r="0.2" />
<circle cx="18.6" cy="17.0" r="0.2" />
<circle cx="18.8" cy="12.0" r="0.2" />
<circle cx="19.1" cy="19.0" r="0.2" />
<circle cx="19.3" cy="7.0" r="0.2" />
<circle cx="19.5" cy="16.0" r="0.2" />
<circle cx="19.7" cy="9.0" r="0.2" />
<circle cx="19.9" cy="11.0" r="0.2" />
<circle cx="20.1" cy="2.0" r="0.2" />
<circle cx="20.3" cy="11.0" r="0.2" />
<circle cx="20.5" cy="9.0" r="0.2" />
<circle cx="20.7" cy="16.0" r="0.2" />
<circle cx="20.9" cy="7.0" r="0.2" />
<circle cx="21.1" cy="19.0" r="0.2" />
<circle cx="21.4" cy="12.0" r="0.2" />
<circle cx="21.6" cy="17.0" r="0.2" />
<circle cx="21.8" cy="5.0" r="0.2" />
<circle cx="22.0" cy="18.0" r="0.2" />
<circle cx="22.2" cy="13.0" r="0.2" />
<circle cx="22.4" cy="21.0" r="0.2" />
<circle cx="22.6" cy="8.0" r="0.2" />
<circle cx="22.8" cy="19.0" r="0.2" />
<circle cx="23.0" cy="11.0" r="0.2" />
<circle cx="23.2" cy="14.0" r="0.2" />
<circle cx="23.5" cy="3.0" r="0.2" />
<circle cx="23.7" cy="13.0" r="0.2" />
<circle cx="23.9" cy="10.0" r="0.2" />
<circle cx="24.1" cy="17.0" r="0.2" />
<circle cx="24.3" cy="7.0" r="0.2" />
<circle cx="24.5" cy="18.0" r="0.2" />
<circle cx="24.7" cy="11.0" r="0.2" />
<circle cx="24.9" cy="15.0" r="0.2" />
<circle cx="25.1" cy="4.0" r="0.2" />
<circle cx="25.3" cy="13.0" r="0.2" />
<circle cx="25.5" cy="9.0" r="0.2" />
<circle cx="25.8" cy="14.0" r="0.2" />
<circle cx="26.0" cy="5.0" r="0.2" />
<circle cx="26.2" cy="11.0" r="0.2" />
<circle cx="26.4" cy="6.0" r="0.2" />
<circle cx="26.6" cy="7.0" r="0.2" />
<circle cx="26.8" cy="1.0" r="0.2" />
<circle cx="27.0" cy="8.0" r="0.2" />
<circle cx="27.2" cy="7.0" r="0.2" />
<circle cx="27.4" cy="13.0" r="0.2" />
<circle cx="27.6" cy="6.0" r="0.2" />
<circle cx="27.8" cy="17.0" r="0.2" />
<circle cx="28.1" cy="11.0" r="0.2" />
<circle cx="28.3" cy="16.0" r="0.2" />
<circle cx="28.5" cy="5.0" r="0.2" />
<circle cx="28.7" cy="19.0" r="0.2" />
<circle cx="28.9" cy="14.0" r="0.2" />
<circle cx="29.1" cy="23.0" r="0.2" />
<circle cx="29.3" cy="9.0" r="0.2" />
<circle cx="29.5" cy="22.0" r="0.2" />
<circle cx="29.7" cy="13.0" r="0.2" />
<circle cx="29.9" cy="17.0" r="0.2" />
<circle cx="30.2" cy="4.0" r="0.2" />
<circle cx="30.4" cy="19.0" r="0.2" />
<circle cx="30.6" cy="15.0" r="0.2" />
<circle cx="30.8" cy="26.0" r="0.2" />
<circle cx="31.0" cy="11.0" r="0.2" />
<circle cx="31.2" cy="29.0" r="0.2" />
<circle cx="31.4" cy="18.0" r="0.2" />
<circle cx="31.6" cy="25.0" r="0.2" />
<circle cx="31.8" cy="7.0" r="0.2" />
<circle cx="32.0" cy="24.0" r="0.2" />
<circle cx="32.2" cy="17.0" r="0.2" />
<circle cx="32.5" cy="27.0" r="0.2" />
<circle cx="32.7" cy="10.0" r="0.2" />
<circle cx="32.9" cy="23.0" r="0.2" />
<circle cx="33.1" cy="13.0" r="0.2" />
<circle cx="33.3" cy="16.0" r="0.2" />
<circle cx="33.5" cy="3.0" r="0.2" />
<circle cx="33.7" cy="17.0" r="0.2" />
<circle cx="33.9" cy="14.0" r="0.2" />
<circle cx="34.1" cy="25.0" r="0.2" />
<circle cx="34.3" cy="11.0" r="0.2" />
<circle cx="34.5" cy="30.0" r="0.2" />
<circle cx="34.8" cy="19.0" r="0.2" />
<circle cx="35.0" cy="27.0" r="0.2" />
<circle cx="35.2" cy="8.0" r="0.2" />
<circle cx="35.4" cy="29.0" r="0.2" />
<circle cx="35.6" cy="21.0" r="0.2" />
<circle cx="35.8" cy="34.0" r="0.2" />
<circle cx="36.0" cy="13.0" r="0.2" />
<circle cx="36.2" cy="31.0" r="0.2" />
<circle cx="36.4" cy="18.0" r="0.2" />
<circle cx="36.6" cy="23.0" r="0.2" />
<circle cx="36.9" cy="5.0" r="0.2" />
<circle cx="37.1" cy="22.0" r="0.2" />
<circle cx="37.3" cy="17.0" r="0.2" />
<circle cx="37.5" cy="29.0" r="0.2" />
<circle cx="37.7" cy="12.0" r="0.2" />
<circle cx="37.9" cy="31.0" r="0.2" />
<circle cx="38.1" cy="19.0" r="0.2" />
<circle cx="38.3" cy="26.0" r="0.2" />
<circle cx="38.5" cy="7.0" r="0.2" />
<circle cx="38.7" cy="23.0" r="0.2" />
<circle cx="38.9" cy="16.0" r="0.2" />
<circle cx="39.2" cy="25.0" r="0.2" />
<circle cx="39.4" cy="9.0" r="0.2" />
<circle cx="39.6" cy="20.0" r="0.2" />
<circle cx="39.8" cy="11.0" r="0.2" />
<circle cx="40.0" cy="13.0" r="0.2" />
<circle cx="40.2" cy="2.0" r="0.2" />
<circle cx="40.4" cy="13.0" r="0.2" />
<circle cx="40.6" cy="11.0" r="0.2" />
<circle cx="40.8" cy="20.0" r="0.2" />
<circle cx="41.0" cy="9.0" r="0.2" />
<circle cx="41.3" cy="25.0" r="0.2" />
<circle cx="41.5" cy="16.0" r="0.2" />
<circle cx="41.7" cy="23.0" r="0.2" />
<circle cx="41.9" cy="7.0" r="0.2" />
<circle cx="42.1" cy="26.0" r="0.2" />
<circle cx="42.3" cy="19.0" r="0.2" />
<circle cx="42.5" cy="31.0" r="0.2" />
<circle cx="42.7" cy="12.0" r="0.2" />
<circle cx="42.9" cy="29.0" r="0.2" />
<circle cx="43.1" cy="17.0" r="0.2" />
<circle cx="43.3" cy="22.0" r="0.2" />
<circle cx="43.6" cy="5.0" r="0.2" />
<circle cx="43.8" cy="23.0" r="0.2" />
<circle cx="44.0" cy="18.0" r="0.2" />
<circle cx="44.2" cy="31.0" r="0.2" />
<circle cx="44.4" cy="13.0" r="0.2" />
<circle cx="44.6" cy="34.0" r="0.2" />
<circle cx="44.8" cy="21.0" r="0.2" />
<circle cx="45.0" cy="29.0" r="0.2" />
<circle cx="45.2" cy="8.0" r="0.2" />
<circle cx="45.4" cy="27.0" r="0.2" />
<circle cx="45.6" cy="19.0" r="0.2" />
<circle cx="45.9" cy="30.0" r="0.2" />
<circle cx="46.1" cy="11.0" r="0.2" />
<circle cx="46.3" cy="25.0" r="0.2" />
<circle cx="46.5" cy="14.0" r="0.2" />
<circle cx="46.7" cy="17.0" r="0.2" />
<circle cx="46.9" cy="3.0" r="0.2" />
<circle cx="47.1" cy="16.0" r="0.2" />
<circle cx="47.3" cy="13.0" r="0.2" />
<circle cx="47.5" cy="23.0" r="0.2" />
<circle cx="47.7" cy="10.0" r="0.2" />
<circle cx="48.0" cy="27.0" r="0.2" />
<circle cx="48.2" cy="17.0" r="0.2" />
<circle cx="48.4" cy="24.0" r="0.2" />
<circle cx="48.6" cy="7.0" r="0.2" />
<circle cx="48.8" cy="25.0" r="0.2" />
<circle cx="49.0" cy="18.0" r="0.2" />
<circle cx="49.2" cy="29.0" r="0.2" />
<circle cx="49.4" cy="11.0" r="0.2" />
<circle cx="49.6" cy="26.0" r="0.2" />
<circle cx="49.8" cy="15.0" r="0.2" />
<circle cx="50.0" cy="19.0" r="0.2" />
<circle cx="50.3" cy="4.0" r="0.2" />
<circle cx="50.5" cy="17.0" r="0.2" />
<circle cx="50.7" cy="13.0" r="0.2" />
<circle cx="50.9" cy="22.0" r="0.2" />
<circle cx="51.1" cy="9.0" r="0.2" />
<circle cx="51.3" cy="23.0" r="0.2" />
<circle cx="51.5" cy="14.0" r="0.2" />
<circle cx="51.7" cy="19.0" r="0.2" />
<circle cx="51.9" cy="5.0" r="0.2" />
<circle cx="52.1" cy="16.0" r="0.2" />
<circle cx="52.3" cy="11.0" r="0.2" />
<circle cx="52.6" cy="17.0" r="0.2" />
<circle cx="52.8" cy="6.0" r="0.2" />
<circle cx="53.0" cy="13.0" r="0.2" />
<circle cx="53.2" cy="7.0" r="0.2" />
<circle cx="53.4" cy="8.0" r="0.2" />
<circle cx="53.6" cy="1.0" r="0.2" />
</g>
</svg>