<svg xmlns="http://www.w3.org/2000/svg" width="161.803" height="100.000" viewBox="3.090 -5.000 171.803 110.000">
<g fill="none" stroke="black" stroke-width="0.001%" transform="translate(0, 100.000) scale(400.000, -400.000)">
<circle cx="0.020" cy="0.000" r="0.001" />
<circle cx="0.020" cy="0.000" r="0.001" />
<circle cx="0.040" cy="0.048" r="0.001" />
<circle cx="0.061" cy="0.090" r="0.001" />
<circle cx="0.081" cy="0.128" r="0.001" />
<circle cx="0.101" cy="0.160" r="0.001" />
<circle cx="0.121" cy="0.188" r="0.001" />
<circle cx="0.142" cy="0.210" r="0.001" />
<circle cx="0.162" cy="0.227" r="0.001" />
<circle cx="0.182" cy="0.240" r="0.001" />
<circle cx="0.202" cy="0.247" r="0.001" />
<circle cx="0.222" cy="0.250" r="0.001" />
<circle cx="0.243" cy="0.247" r="0.001" />
<circle cx="0.263" cy="0.240" r="0.001" />
<circle cx="0.283" cy="0.227" r="0.001" />
<circle cx="0.303" cy="0.210" r="0.001" />
<circle cx="0.324" cy="0.187" r="0.001" />
<circle cx="0.344" cy="0.160" r="0.001" />
<circle cx="0.364" cy="0.127" r="0.001" />
<circle cx="0.384" cy="0.090" r="0.001" />
<circle cx="0.405" cy="0.047" r="0.001" />
<circle cx="0.425" cy="-0.000" r="0.001" />
</g>
</svg>