<svg xmlns="http://www.w3.org/2000/svg" width="107.4" height="100.0" viewBox="-58.36 -55.81 117.36 110.00">
<g fill="none" stroke="black" stroke-width="0.0878%" transform="translate(0, -1.6278) scale(5.6952, -5.6952)">
<polygon points="2.40,-8.56 3.60,-8.03 4.71,-7.33 5.73,-6.52 6.65,-5.61 7.48,-4.62 8.20,-3.57 8.80,-2.46 9.25,-1.29 9.48,-0.08 9.42,1.13 8.98,2.24 8.16,3.11 7.03,3.61 5.82,3.88 4.74,4.29 3.79,5.00 2.94,5.88 2.19,6.78 1.50,7.57 0.85,8.17 0.19,8.53 -0.47,8.64 -1.16,8.46 -1.91,8.01 -2.72,7.29 -3.61,6.38 -4.57,5.38 -5.59,4.47 -6.72,3.68 -7.83,2.82 -8.69,1.78 -9.20,0.63 -9.37,-0.50 -9.25,-1.57 -8.93,-2.56 -8.45,-3.48 -7.85,-4.33 -7.15,-5.13 -6.35,-5.87 -5.45,-6.54 -4.43,-7.13 -3.32,-7.62 -2.12,-7.95 -0.92,-8.10 0.19,-8.02 1.07,-7.70 1.57,-7.16 1.59,-6.49 1.15,-5.75 0.33,-4.98 -0.61,-4.13 -1.29,-3.16 -1.43,-2.10 -0.97,-1.00 -0.08,0.07 0.89,1.00 1.68,1.72 2.33,2.45 3.09,3.48 3.94,4.65 4.90,5.69 5.93,6.40 6.88,6.58 7.56,6.16 7.86,5.22 7.75,3.98 7.31,2.70 6.68,1.67 6.07,1.09 5.66,1.03 5.46,1.40 5.27,2.10 4.77,2.98 3.86,3.87 2.68,4.54 1.51,4.81 0.53,4.68 -0.37,4.27 -1.42,3.63 -2.65,2.81 -3.79,2.00 -4.61,1.41 -5.05,1.14 -5.36,1.22 -5.80,1.64 -6.44,2.41 -7.14,3.44 -7.68,4.57 -7.91,5.60 -7.72,6.31 -7.13,6.59 -6.23,6.40 -5.16,5.83 -4.13,5.04 -3.26,4.15 -2.48,3.11 -1.78,1.99 -1.14,0.99 -0.31,0.08 0.68,-0.75 1.50,-1.44 1.87,-2.07 1.63,-2.72 0.84,-3.47 -0.22,-4.33 -1.20,-5.28 -1.85,-6.28 -2.04,-7.25 -1.75,-8.08 -1.03,-8.66 -0.01,-8.92 1.18,-8.88" />
</g>
</svg>