<svg xmlns="http://www.w3.org/2000/svg" width="100.0" height="100.0" viewBox="-5.000 -5.000 110.000 110.000">
<g fill="none" stroke="black" stroke-width="0.0050%" transform="translate(0, 100.0000) scale(100.0000, -100.0000)">
<circle cx="0.000" cy="0.000" r="0.005" />
<circle cx="0.000" cy="1.000" r="0.005" />
<polyline points="0.000,0.000 0.010,0.001 0.020,0.002 0.030,0.004 0.040,0.005 0.050,0.006 0.060,0.007 0.070,0.009 0.080,0.010 0.090,0.012 0.100,0.014 0.110,0.015 0.120,0.017 0.130,0.019 0.140,0.021 0.150,0.023 0.160,0.025 0.170,0.027 0.180,0.029 0.190,0.032 0.200,0.034 0.210,0.037 0.220,0.040 0.230,0.043 0.240,0.047 0.250,0.050 0.260,0.054 0.270,0.058 0.280,0.062 0.290,0.067 0.300,0.071 0.310,0.077 0.320,0.082 0.330,0.089 0.340,0.096 0.350,0.103 0.360,0.111 0.370,0.120 0.380,0.130 0.390,0.141 0.400,0.154 0.410,0.168 0.420,0.184 0.430,0.203 0.440,0.224 0.450,0.250 0.460,0.280 0.470,0.318 0.480,0.364 0.490,0.422 0.500,0.500 0.510,0.578 0.520,0.636 0.530,0.682 0.540,0.720 0.550,0.750 0.560,0.776 0.570,0.797 0.580,0.816 0.590,0.832 0.600,0.846 0.610,0.859 0.620,0.870 0.630,0.880 0.640,0.889 0.650,0.897 0.660,0.904 0.670,0.911 0.680,0.918 0.690,0.923 0.700,0.929 0.710,0.933 0.720,0.938 0.730,0.942 0.740,0.946 0.750,0.950 0.760,0.953 0.770,0.957 0.780,0.960 0.790,0.963 0.800,0.966 0.810,0.968 0.820,0.971 0.830,0.973 0.840,0.975 0.850,0.977 0.860,0.979 0.870,0.981 0.880,0.983 0.890,0.985 0.900,0.986 0.910,0.988 0.920,0.990 0.930,0.991 0.940,0.993 0.950,0.994 0.960,0.995 0.970,0.996 0.980,0.998 0.990,0.999 1.000,1.000" />
<polyline points="0.000,0.000 0.010,0.003 0.020,0.005 0.030,0.008 0.040,0.011 0.050,0.014 0.060,0.016 0.070,0.020 0.080,0.023 0.090,0.026 0.100,0.029 0.110,0.033 0.120,0.037 0.130,0.040 0.140,0.044 0.150,0.048 0.160,0.053 0.170,0.057 0.180,0.062 0.190,0.066 0.200,0.071 0.210,0.077 0.220,0.082 0.230,0.088 0.240,0.094 0.250,0.100 0.260,0.107 0.270,0.113 0.280,0.121 0.290,0.128 0.300,0.136 0.310,0.145 0.320,0.154 0.330,0.163 0.340,0.173 0.350,0.184 0.360,0.196 0.370,0.208 0.380,0.221 0.390,0.235 0.400,0.250 0.410,0.266 0.420,0.284 0.430,0.303 0.440,0.324 0.450,0.346 0.460,0.371 0.470,0.398 0.480,0.429 0.490,0.462 0.500,0.500 0.510,0.538 0.520,0.571 0.530,0.602 0.540,0.629 0.550,0.654 0.560,0.676 0.570,0.697 0.580,0.716 0.590,0.734 0.600,0.750 0.610,0.765 0.620,0.779 0.630,0.792 0.640,0.804 0.650,0.816 0.660,0.827 0.670,0.837 0.680,0.846 0.690,0.855 0.700,0.864 0.710,0.872 0.720,0.879 0.730,0.887 0.740,0.893 0.750,0.900 0.760,0.906 0.770,0.912 0.780,0.918 0.790,0.923 0.800,0.929 0.810,0.934 0.820,0.938 0.830,0.943 0.840,0.947 0.850,0.952 0.860,0.956 0.870,0.960 0.880,0.963 0.890,0.967 0.900,0.971 0.910,0.974 0.920,0.977 0.930,0.980 0.940,0.984 0.950,0.986 0.960,0.989 0.970,0.992 0.980,0.995 0.990,0.997 1.000,1.000" />
<polyline points="0.000,0.000 0.010,0.004 0.020,0.009 0.030,0.013 0.040,0.018 0.050,0.023 0.060,0.028 0.070,0.033 0.080,0.038 0.090,0.043 0.100,0.048 0.110,0.054 0.120,0.060 0.130,0.065 0.140,0.071 0.150,0.078 0.160,0.084 0.170,0.090 0.180,0.097 0.190,0.104 0.200,0.111 0.210,0.118 0.220,0.126 0.230,0.134 0.240,0.142 0.250,0.150 0.260,0.159 0.270,0.167 0.280,0.176 0.290,0.186 0.300,0.196 0.310,0.206 0.320,0.216 0.330,0.227 0.340,0.238 0.350,0.250 0.360,0.262 0.370,0.275 0.380,0.288 0.390,0.302 0.400,0.316 0.410,0.331 0.420,0.346 0.430,0.362 0.440,0.379 0.450,0.397 0.460,0.416 0.470,0.435 0.480,0.456 0.490,0.477 0.500,0.500 0.510,0.523 0.520,0.544 0.530,0.565 0.540,0.584 0.550,0.603 0.560,0.621 0.570,0.638 0.580,0.654 0.590,0.669 0.600,0.684 0.610,0.698 0.620,0.712 0.630,0.725 0.640,0.738 0.650,0.750 0.660,0.762 0.670,0.773 0.680,0.784 0.690,0.794 0.700,0.804 0.710,0.814 0.720,0.824 0.730,0.833 0.740,0.841 0.750,0.850 0.760,0.858 0.770,0.866 0.780,0.874 0.790,0.882 0.800,0.889 0.810,0.896 0.820,0.903 0.830,0.910 0.840,0.916 0.850,0.922 0.860,0.929 0.870,0.935 0.880,0.940 0.890,0.946 0.900,0.952 0.910,0.957 0.920,0.962 0.930,0.967 0.940,0.972 0.950,0.977 0.960,0.982 0.970,0.987 0.980,0.991 0.990,0.996 1.000,1.000" />
<polyline points="0.000,0.000 0.010,0.023 0.020,0.044 0.030,0.065 0.040,0.084 0.050,0.103 0.060,0.121 0.070,0.138 0.080,0.154 0.090,0.169 0.100,0.184 0.110,0.198 0.120,0.212 0.130,0.225 0.140,0.238 0.150,0.250 0.160,0.262 0.170,0.273 0.180,0.284 0.190,0.294 0.200,0.304 0.210,0.314 0.220,0.324 0.230,0.333 0.240,0.341 0.250,0.350 0.260,0.358 0.270,0.366 0.280,0.374 0.290,0.382 0.300,0.389 0.310,0.396 0.320,0.403 0.330,0.410 0.340,0.416 0.350,0.422 0.360,0.429 0.370,0.435 0.380,0.440 0.390,0.446 0.400,0.452 0.410,0.457 0.420,0.462 0.430,0.467 0.440,0.472 0.450,0.477 0.460,0.482 0.470,0.487 0.480,0.491 0.490,0.496 0.500,0.500 0.510,0.504 0.520,0.509 0.530,0.513 0.540,0.518 0.550,0.523 0.560,0.528 0.570,0.533 0.580,0.538 0.590,0.543 0.600,0.548 0.610,0.554 0.620,0.560 0.630,0.565 0.640,0.571 0.650,0.578 0.660,0.584 0.670,0.590 0.680,0.597 0.690,0.604 0.700,0.611 0.710,0.618 0.720,0.626 0.730,0.634 0.740,0.642 0.750,0.650 0.760,0.659 0.770,0.667 0.780,0.676 0.790,0.686 0.800,0.696 0.810,0.706 0.820,0.716 0.830,0.727 0.840,0.738 0.850,0.750 0.860,0.762 0.870,0.775 0.880,0.788 0.890,0.802 0.900,0.816 0.910,0.831 0.920,0.846 0.930,0.862 0.940,0.879 0.950,0.897 0.960,0.916 0.970,0.935 0.980,0.956 0.990,0.977 1.000,1.000" />
<polyline points="0.000,0.000 0.010,0.078 0.020,0.136 0.030,0.182 0.040,0.220 0.050,0.250 0.060,0.276 0.070,0.297 0.080,0.316 0.090,0.332 0.100,0.346 0.110,0.359 0.120,0.370 0.130,0.380 0.140,0.389 0.150,0.397 0.160,0.404 0.170,0.411 0.180,0.418 0.190,0.423 0.200,0.429 0.210,0.433 0.220,0.438 0.230,0.442 0.240,0.446 0.250,0.450 0.260,0.453 0.270,0.457 0.280,0.460 0.290,0.463 0.300,0.466 0.310,0.468 0.320,0.471 0.330,0.473 0.340,0.475 0.350,0.477 0.360,0.479 0.370,0.481 0.380,0.483 0.390,0.485 0.400,0.486 0.410,0.488 0.420,0.490 0.430,0.491 0.440,0.493 0.450,0.494 0.460,0.495 0.470,0.496 0.480,0.498 0.490,0.499 0.500,0.500 0.510,0.501 0.520,0.502 0.530,0.504 0.540,0.505 0.550,0.506 0.560,0.507 0.570,0.509 0.580,0.510 0.590,0.512 0.600,0.514 0.610,0.515 0.620,0.517 0.630,0.519 0.640,0.521 0.650,0.523 0.660,0.525 0.670,0.527 0.680,0.529 0.690,0.532 0.700,0.534 0.710,0.537 0.720,0.540 0.730,0.543 0.740,0.547 0.750,0.550 0.760,0.554 0.770,0.558 0.780,0.562 0.790,0.567 0.800,0.571 0.810,0.577 0.820,0.582 0.830,0.589 0.840,0.596 0.850,0.603 0.860,0.611 0.870,0.620 0.880,0.630 0.890,0.641 0.900,0.654 0.910,0.668 0.920,0.684 0.930,0.703 0.940,0.724 0.950,0.750 0.960,0.780 0.970,0.818 0.980,0.864 0.990,0.922 1.000,1.000" />
</g>
</svg>