<svg xmlns="http://www.w3.org/2000/svg" width="161.8" height="100.0" viewBox="-5.00 -55.00 171.80 110.00">
<g fill="none" stroke="black" stroke-width="0.0900%" transform="translate(0, 0.0000) scale(5.5556, -5.5556)">
<circle cx="0.00" cy="0.00" r="0.09" />
<circle cx="0.00" cy="9.00" r="0.09" />
<polyline points="0.00,1.00 0.29,1.13 0.59,1.29 0.88,1.47 1.18,1.69 1.47,1.96 1.77,2.31 2.06,2.78 2.35,3.44 2.65,4.47 2.94,6.31 3.24,9.00 3.53,9.00 3.82,-9.00 4.12,-9.00 4.41,-6.31 4.71,-4.47 5.00,-3.44 5.30,-2.78 5.59,-2.31 5.88,-1.96 6.18,-1.69 6.47,-1.47 6.77,-1.29 7.06,-1.13 7.35,-1.00 7.65,-0.88 7.94,-0.78 8.24,-0.68 8.53,-0.59 8.83,-0.51 9.12,-0.43 9.41,-0.36 9.71,-0.29 10.00,-0.22 10.30,-0.16 10.59,-0.09 10.88,-0.03 11.18,0.03 11.47,0.09 11.77,0.16 12.06,0.22 12.36,0.29 12.65,0.36 12.94,0.43 13.24,0.51 13.53,0.59 13.83,0.68 14.12,0.78 14.42,0.88 14.71,1.00 15.00,1.13 15.30,1.29 15.59,1.47 15.89,1.69 16.18,1.96 16.47,2.31 16.77,2.78 17.06,3.44 17.36,4.47 17.65,6.31 17.95,9.00 18.24,9.00 18.53,-9.00 18.83,-9.00 19.12,-6.31 19.42,-4.47 19.71,-3.44 20.00,-2.78 20.30,-2.31 20.59,-1.96 20.89,-1.69 21.18,-1.47 21.48,-1.29 21.77,-1.13 22.06,-1.00 22.36,-0.88 22.65,-0.78 22.95,-0.68 23.24,-0.59 23.54,-0.51 23.83,-0.43 24.12,-0.36 24.42,-0.29 24.71,-0.22 25.01,-0.16 25.30,-0.09 25.59,-0.03 25.89,0.03 26.18,0.09 26.48,0.16 26.77,0.22 27.07,0.29 27.36,0.36 27.65,0.43 27.95,0.51 28.24,0.59 28.54,0.68 28.83,0.78 29.12,0.88" />
</g>
</svg>