<svg xmlns="http://www.w3.org/2000/svg" width="161.8" height="100.0" viewBox="385.628 -55.000 171.803 110.000">
<g fill="none" stroke="black" stroke-width="0.0100%" transform="translate(0, 0.0000) scale(50.0000, -50.0000)">
<polyline points="11.049,-1.000 10.879,-0.969 10.717,-0.939 10.563,-0.910 10.415,-0.882 10.274,-0.854 10.139,-0.827 10.011,-0.801 9.887,-0.776 9.770,-0.751 9.657,-0.727 9.549,-0.703 9.446,-0.680 9.347,-0.657 9.253,-0.635 9.163,-0.613 9.077,-0.591 8.994,-0.570 8.915,-0.550 8.840,-0.529 8.768,-0.510 8.700,-0.490 8.634,-0.471 8.572,-0.452 8.513,-0.433 8.456,-0.414 8.403,-0.396 8.352,-0.378 8.303,-0.360 8.258,-0.342 8.215,-0.325 8.174,-0.308 8.136,-0.291 8.100,-0.274 8.066,-0.257 8.035,-0.240 8.005,-0.224 7.978,-0.207 7.953,-0.191 7.931,-0.175 7.910,-0.158 7.891,-0.142 7.875,-0.126 7.860,-0.110 7.847,-0.095 7.837,-0.079 7.828,-0.063 7.821,-0.047 7.816,-0.031 7.814,-0.016 7.813,0.000 7.814,0.016 7.816,0.031 7.821,0.047 7.828,0.063 7.837,0.079 7.847,0.095 7.860,0.110 7.875,0.126 7.891,0.142 7.910,0.158 7.931,0.175 7.953,0.191 7.978,0.207 8.005,0.224 8.035,0.240 8.066,0.257 8.100,0.274 8.136,0.291 8.174,0.308 8.215,0.325 8.258,0.342 8.303,0.360 8.352,0.378 8.403,0.396 8.456,0.414 8.513,0.433 8.572,0.452 8.634,0.471 8.700,0.490 8.768,0.510 8.840,0.529 8.915,0.550 8.994,0.570 9.077,0.591 9.163,0.613 9.253,0.635 9.347,0.657 9.446,0.680 9.549,0.703 9.657,0.727 9.770,0.751 9.887,0.776 10.011,0.801 10.139,0.827 10.274,0.854 10.415,0.882 10.563,0.910 10.717,0.939 10.879,0.969 11.049,1.000" />
</g>
</svg>