<svg xmlns="http://www.w3.org/2000/svg" width="161.8" height="100.0" viewBox="-5.00 -55.00 171.80 110.00">
<g fill="none" stroke="black" stroke-width="0.0400%" transform="translate(0, 0.0000) scale(12.5000, -12.5000)">
<polyline points="0.00,1.00 0.13,1.00 0.26,1.01 0.39,1.02 0.52,1.03 0.65,1.05 0.78,1.08 0.91,1.11 1.04,1.14 1.16,1.18 1.29,1.24 1.42,1.30 1.55,1.37 1.68,1.46 1.81,1.57 1.94,1.70 2.07,1.87 2.20,2.08 2.33,2.35 2.46,2.72 2.59,3.24 2.72,4.00 2.85,4.00 2.98,4.00 3.11,4.00 3.24,-4.00 3.37,-4.00 3.49,-4.00 3.62,-4.00 3.75,-4.00 3.88,-3.24 4.01,-2.72 4.14,-2.35 4.27,-2.08 4.40,-1.87 4.53,-1.70 4.66,-1.57 4.79,-1.46 4.92,-1.37 5.05,-1.30 5.18,-1.24 5.31,-1.18 5.44,-1.14 5.57,-1.11 5.70,-1.08 5.82,-1.05 5.95,-1.03 6.08,-1.02 6.21,-1.01 6.34,-1.00 6.47,-1.00 6.60,-1.00 6.73,-1.01 6.86,-1.02 6.99,-1.03 7.12,-1.05 7.25,-1.08 7.38,-1.11 7.51,-1.14 7.64,-1.18 7.77,-1.24 7.90,-1.30 8.03,-1.37 8.15,-1.46 8.28,-1.57 8.41,-1.70 8.54,-1.87 8.67,-2.08 8.80,-2.35 8.93,-2.72 9.06,-3.24 9.19,-4.00 9.32,-4.00 9.45,-4.00 9.58,-4.00 9.71,-4.00 9.84,4.00 9.97,4.00 10.10,4.00 10.23,4.00 10.36,3.24 10.48,2.72 10.61,2.35 10.74,2.08 10.87,1.87 11.00,1.70 11.13,1.57 11.26,1.46 11.39,1.37 11.52,1.30 11.65,1.24 11.78,1.18 11.91,1.14 12.04,1.11 12.17,1.08 12.30,1.05 12.43,1.03 12.56,1.02 12.69,1.01 12.81,1.00 12.94,1.00" />
</g>
</svg>