<svg xmlns="http://www.w3.org/2000/svg" width="161.8" height="100.0" viewBox="-5.00 -55.00 171.80 110.00">
<g fill="none" stroke="black" stroke-width="0.0400%" transform="translate(0, 0.0000) scale(12.5000, -12.5000)">
<polyline points="0.00,1.00 0.13,1.00 0.26,1.01 0.39,1.02 0.52,1.03 0.65,1.05 0.78,1.08 0.92,1.11 1.05,1.14 1.18,1.18 1.31,1.24 1.44,1.30 1.57,1.37 1.70,1.46 1.83,1.57 1.96,1.70 2.09,1.87 2.22,2.08 2.35,2.35 2.48,2.72 2.62,3.24 2.75,4.00 2.88,4.00 3.01,4.00 3.14,4.00 3.27,-4.00 3.40,-4.00 3.53,-4.00 3.66,-4.00 3.79,-4.00 3.92,-3.24 4.05,-2.72 4.18,-2.35 4.31,-2.08 4.45,-1.87 4.58,-1.70 4.71,-1.57 4.84,-1.46 4.97,-1.37 5.10,-1.30 5.23,-1.24 5.36,-1.18 5.49,-1.14 5.62,-1.11 5.75,-1.08 5.88,-1.05 6.01,-1.03 6.15,-1.02 6.28,-1.01 6.41,-1.00 6.54,-1.00 6.67,-1.00 6.80,-1.01 6.93,-1.02 7.06,-1.03 7.19,-1.05 7.32,-1.08 7.45,-1.11 7.58,-1.14 7.71,-1.18 7.85,-1.24 7.98,-1.30 8.11,-1.37 8.24,-1.46 8.37,-1.57 8.50,-1.70 8.63,-1.87 8.76,-2.08 8.89,-2.35 9.02,-2.72 9.15,-3.24 9.28,-4.00 9.41,-4.00 9.54,-4.00 9.68,-4.00 9.81,-4.00 9.94,4.00 10.07,4.00 10.20,4.00 10.33,4.00 10.46,3.24 10.59,2.72 10.72,2.35 10.85,2.08 10.98,1.87 11.11,1.70 11.24,1.57 11.38,1.46 11.51,1.37 11.64,1.30 11.77,1.24 11.90,1.18 12.03,1.14 12.16,1.11 12.29,1.08 12.42,1.05 12.55,1.03 12.68,1.02 12.81,1.01 12.94,1.00" />
</g>
</svg>