<svg xmlns="http://www.w3.org/2000/svg" width="126.7" height="100.0" viewBox="-81.2 -28.8 136.7 110.0">
<g fill="none" stroke="black" stroke-width="0.6562%" transform="translate(0, 52.3813) scale(0.7619, -0.7619)">
<g fill="rgb(120,27,134)" ><path d="M 0.0,0.0 A 0.0 0.0 0.0 0 1 0.0,0.0 L 14.5,-27.7 A 31.3 31.3 0.0 0 0 -31.3,0.0 Z" /></g>
<g fill="rgb(82,154,182)" ><path d="M 0.0,0.0 A 0.0 0.0 0.0 0 1 0.0,0.0 L 12.1,-3.0 A 12.5 12.5 0.0 0 0 5.8,-11.1 Z" /></g>
<g fill="rgb(196,186,69)" ><path d="M 0.0,0.0 A 0.0 0.0 0.0 0 1 0.0,0.0 L 12.4,14.0 A 18.8 18.8 0.0 0 0 18.2,-4.5 Z" /></g>
<g fill="rgb(219,33,33)" ><path d="M 0.0,0.0 A 0.0 0.0 0.0 0 1 0.0,0.0 L -100.0,0.0 A 100.0 100.0 0.0 0 0 66.3,74.9 Z" /></g>
</g>
</svg>