<svg xmlns="http://www.w3.org/2000/svg" width="120.3" height="100.0" viewBox="-69.5 -69.5 130.3 110.0">
<g fill="none" stroke="black" stroke-width="0.7755%" transform="translate(0, -28.9386) scale(0.6447, -0.6447)">
<g fill="rgb(120,27,134)" ><path d="M 0.0,0.0 A 0.0 0.0 0.0 0 1 0.0,0.0 L 86.6,-50.0 A 100.0 100.0 0.0 0 0 -100.0,0.0 Z" /></g>
<g fill="rgb(68,124,205)" ><path d="M 0.0,0.0 A 0.0 0.0 0.0 0 1 0.0,0.0 L 31.8,55.1 A 63.6 63.6 0.0 0 0 55.1,-31.8 Z" /></g>
<g fill="rgb(131,186,112)" ><path d="M 0.0,0.0 A 0.0 0.0 0.0 0 1 0.0,0.0 L -22.7,39.4 A 45.5 45.5 0.0 0 0 22.7,39.4 Z" /></g>
<g fill="rgb(221,171,60)" ><path d="M 0.0,0.0 A 0.0 0.0 0.0 0 1 0.0,0.0 L -23.6,13.6 A 27.3 27.3 0.0 0 0 -13.6,23.6 Z" /></g>
<g fill="rgb(219,33,33)" ><path d="M 0.0,0.0 A 0.0 0.0 0.0 0 1 0.0,0.0 L -18.2,0.0 A 18.2 18.2 0.0 0 0 -15.7,9.1 Z" /></g>
</g>
</svg>