<svg xmlns="http://www.w3.org/2000/svg" width="105.7" height="100.0" viewBox="-68.4 -68.4 115.7 110.0">
<g fill="none" stroke="black" stroke-width="0.7887%" transform="translate(0, -26.7933) scale(0.6340, -0.6340)">
<g fill="rgb(120,27,134)" ><path d="M 0.0,0.0 A 0.0 0.0 0.0 0 1 0.0,0.0 L 50.0,-86.6 A 100.0 100.0 0.0 0 0 -100.0,0.0 Z" /></g>
<g fill="rgb(131,186,112)" ><path d="M 0.0,0.0 A 0.0 0.0 0.0 0 1 0.0,0.0 L 33.3,57.7 A 66.7 66.7 0.0 0 0 33.3,-57.7 Z" /></g>
<g fill="rgb(219,33,33)" ><path d="M 0.0,0.0 A 0.0 0.0 0.0 0 1 0.0,0.0 L -33.3,0.0 A 33.3 33.3 0.0 0 0 16.7,28.9 Z" /></g>
</g>
</svg>