<svg xmlns="http://www.w3.org/2000/svg" width="120.0" height="100.0" viewBox="-65.0 -45.0 130.0 110.0">
<g fill="none" stroke="black" stroke-width="0.8333%" transform="translate(0, 20.0000) scale(0.6001, -0.6001)">
<g fill="rgb(120,27,134)" ><path d="M 0.0,0.0 A 0.0 0.0 0.0 0 1 0.0,0.0 L -29.5,-15.5 A 33.3 33.3 0.0 0 0 -33.3,0.0 Z" /></g>
<g fill="rgb(131,186,112)" ><path d="M 0.0,0.0 A 0.0 0.0 0.0 0 1 0.0,0.0 L 64.7,-16.0 A 66.7 66.7 0.0 0 0 -59.0,-31.0 Z" /></g>
<g fill="rgb(219,33,33)" ><path d="M 0.0,0.0 A 0.0 0.0 0.0 1 1 0.0,0.0 L -100.0,0.0 A 100.0 100.0 0.0 1 0 97.1,-23.9 Z" /></g>
</g>
</svg>