<svg xmlns="http://www.w3.org/2000/svg" width="60.1" height="100.0" viewBox="-45.888 -55.000 70.143 110.000">
<g fill="none" stroke="black" stroke-width="0.0100%" transform="translate(0, 0.0002) scale(50.0001, -50.0001)">
<polyline points="0.000,1.000 0.019,1.000 0.039,0.999 0.058,0.998 0.076,0.996 0.094,0.993 0.112,0.990 0.129,0.987 0.146,0.983 0.163,0.978 0.179,0.973 0.194,0.968 0.209,0.962 0.224,0.955 0.238,0.948 0.251,0.941 0.264,0.933 0.276,0.925 0.288,0.916 0.299,0.907 0.309,0.897 0.319,0.887 0.328,0.877 0.336,0.866 0.344,0.855 0.351,0.844 0.357,0.832 0.363,0.820 0.368,0.807 0.372,0.795 0.376,0.782 0.379,0.768 0.382,0.755 0.383,0.741 0.385,0.727 0.385,0.713 0.385,0.699 0.384,0.684 0.383,0.669 0.381,0.654 0.378,0.639 0.375,0.624 0.371,0.609 0.366,0.593 0.361,0.578 0.356,0.562 0.350,0.547 0.343,0.531 0.336,0.515 0.328,0.499 0.320,0.483 0.311,0.467 0.302,0.452 0.293,0.436 0.282,0.420 0.272,0.404 0.261,0.388 0.250,0.372 0.238,0.356 0.226,0.340 0.214,0.324 0.201,0.308 0.188,0.293 0.175,0.277 0.161,0.261 0.147,0.246 0.133,0.230 0.118,0.215 0.103,0.200 0.088,0.184 0.073,0.169 0.058,0.154 0.042,0.139 0.027,0.124 0.011,0.110 -0.005,0.095 -0.022,0.080 -0.038,0.066 -0.054,0.051 -0.071,0.037 -0.087,0.023 -0.104,0.009 -0.121,-0.005 -0.138,-0.019 -0.154,-0.033 -0.171,-0.047 -0.188,-0.060 -0.205,-0.074 -0.222,-0.087 -0.239,-0.100 -0.255,-0.113 -0.272,-0.126 -0.289,-0.139 -0.305,-0.152 -0.322,-0.165 -0.338,-0.177 -0.355,-0.190 -0.371,-0.202 -0.387,-0.215 -0.403,-0.227 -0.419,-0.239 -0.434,-0.251 -0.450,-0.263 -0.465,-0.275 -0.480,-0.286 -0.495,-0.298 -0.510,-0.310 -0.524,-0.321 -0.538,-0.332 -0.552,-0.344 -0.566,-0.355 -0.580,-0.366 -0.593,-0.377 -0.606,-0.388 -0.619,-0.399 -0.631,-0.410 -0.643,-0.420 -0.655,-0.431 -0.666,-0.441 -0.677,-0.452 -0.688,-0.462 -0.698,-0.473 -0.708,-0.483 -0.718,-0.493 -0.727,-0.503 -0.736,-0.513 -0.744,-0.523 -0.752,-0.533 -0.760,-0.543 -0.767,-0.553 -0.774,-0.563 -0.780,-0.572 -0.786,-0.582 -0.791,-0.591 -0.796,-0.601 -0.801,-0.610 -0.805,-0.619 -0.808,-0.629 -0.811,-0.638 -0.813,-0.647 -0.815,-0.656 -0.817,-0.665 -0.817,-0.674 -0.818,-0.683 -0.818,-0.692 -0.817,-0.701 -0.815,-0.709 -0.814,-0.718 -0.811,-0.726 -0.808,-0.735 -0.805,-0.743 -0.800,-0.752 -0.796,-0.760 -0.790,-0.768 -0.785,-0.776 -0.778,-0.784 -0.771,-0.792 -0.764,-0.800 -0.755,-0.808 -0.747,-0.815 -0.737,-0.823 -0.727,-0.830 -0.717,-0.837 -0.706,-0.845 -0.695,-0.852 -0.683,-0.859 -0.670,-0.866 -0.657,-0.872 -0.643,-0.879 -0.629,-0.885 -0.614,-0.892 -0.599,-0.898 -0.584,-0.904 -0.568,-0.910 -0.551,-0.916 -0.534,-0.921 -0.517,-0.927 -0.499,-0.932 -0.481,-0.937 -0.463,-0.942 -0.444,-0.947 -0.425,-0.951 -0.406,-0.956 -0.386,-0.960 -0.366,-0.964 -0.346,-0.968 -0.326,-0.971 -0.305,-0.975 -0.285,-0.978 -0.264,-0.981 -0.243,-0.984 -0.222,-0.986 -0.202,-0.989 -0.181,-0.991 -0.160,-0.993 -0.139,-0.995 -0.118,-0.996 -0.098,-0.997 -0.077,-0.998 -0.057,-0.999 -0.036,-1.000 -0.016,-1.000 0.003,-1.000 0.023,-1.000 0.042,-0.999 0.061,-0.999 0.079,-0.998 0.097,-0.997 0.115,-0.996 0.132,-0.994 0.149,-0.992 0.166,-0.990 0.182,-0.988 0.197,-0.986 0.212,-0.983 0.226,-0.980 0.240,-0.977 0.253,-0.974 0.266,-0.970 0.278,-0.967 0.289,-0.963 0.300,-0.959 0.311,-0.954 0.320,-0.950 0.329,-0.945 0.337,-0.940 0.345,-0.935 0.352,-0.930 0.358,-0.925 0.364,-0.919 0.369,-0.914 0.373,-0.908 0.377,-0.902 0.380,-0.896 0.382,-0.890 0.384,-0.883 0.385,-0.877 0.385,-0.870 0.385,-0.863 0.384,-0.856 0.382,-0.849 0.380,-0.842 0.377,-0.835 0.374,-0.828 0.370,-0.820 0.366,-0.813 0.360,-0.805 0.355,-0.797 0.349,-0.789 0.342,-0.781 0.335,-0.773 0.327,-0.765 0.319,-0.757 0.310,-0.749 0.301,-0.741 0.291,-0.732 0.281,-0.724 0.270,-0.715 0.259,-0.706 0.248,-0.698 0.236,-0.689 0.224,-0.680 0.212,-0.671 0.199,-0.662 0.186,-0.653 0.172,-0.644 0.159,-0.635 0.145,-0.626 0.130,-0.616 0.116,-0.607 0.101,-0.598 0.086,-0.588 0.071,-0.579 0.055,-0.569 0.040,-0.559 0.024,-0.550 0.008,-0.540 -0.008,-0.530 -0.024,-0.520 -0.041,-0.510 -0.057,-0.500 -0.074,-0.490 -0.090,-0.480 -0.107,-0.469 -0.124,-0.459 -0.140,-0.448 -0.157,-0.438 -0.174,-0.427 -0.191,-0.417 -0.208,-0.406 -0.225,-0.395 -0.241,-0.384 -0.258,-0.373 -0.275,-0.362 -0.292,-0.351 -0.308,-0.340 -0.325,-0.329 -0.341,-0.317 -0.357,-0.306 -0.374,-0.294 -0.390,-0.283 -0.405,-0.271 -0.421,-0.259 -0.437,-0.247 -0.452,-0.235 -0.468,-0.223 -0.483,-0.211 -0.497,-0.198 -0.512,-0.186 -0.527,-0.173 -0.541,-0.161 -0.555,-0.148 -0.568,-0.135 -0.582,-0.122 -0.595,-0.109 -0.608,-0.096 -0.621,-0.083 -0.633,-0.069 -0.645,-0.056 -0.657,-0.042 -0.668,-0.028 -0.679,-0.015 -0.690,-0.001 -0.700,0.013 -0.710,0.027 -0.719,0.042 -0.729,0.056 -0.737,0.070 -0.746,0.085 -0.754,0.100 -0.761,0.114 -0.768,0.129 -0.775,0.144 -0.781,0.159 -0.787,0.174 -0.792,0.189 -0.797,0.205 -0.801,0.220 -0.805,0.235 -0.808,0.251 -0.811,0.267 -0.814,0.282 -0.815,0.298 -0.817,0.314 -0.818,0.329 -0.818,0.345 -0.817,0.361 -0.817,0.377 -0.815,0.393 -0.813,0.409 -0.811,0.425 -0.808,0.441 -0.804,0.457 -0.800,0.473 -0.795,0.489 -0.789,0.504 -0.784,0.520 -0.777,0.536 -0.770,0.552 -0.762,0.568 -0.754,0.583 -0.745,0.599 -0.736,0.614 -0.726,0.629 -0.715,0.644 -0.704,0.659 -0.693,0.674 -0.681,0.689 -0.668,0.703 -0.655,0.718 -0.641,0.732 -0.627,0.746 -0.612,0.759 -0.597,0.773 -0.581,0.786 -0.565,0.799 -0.548,0.811 -0.532,0.824 -0.514,0.836 -0.496,0.847 -0.478,0.859 -0.460,0.870 -0.441,0.880 -0.422,0.891 -0.402,0.901 -0.383,0.910 -0.363,0.919 -0.343,0.928 -0.322,0.936 -0.302,0.944 -0.281,0.951 -0.261,0.958 -0.240,0.964 -0.219,0.970 -0.198,0.975 -0.177,0.980 -0.156,0.984 -0.136,0.988 -0.115,0.991 -0.094,0.994 -0.074,0.996" />
</g>
</svg>