<svg xmlns="http://www.w3.org/2000/svg" width="108.9" height="100.0" viewBox="-59.460 -55.000 118.919 110.000">
<g fill="none" stroke="black" stroke-width="0.0100%" transform="translate(0, 0.0003) scale(50.0001, -50.0001)">
<polyline points="0.000,1.000 0.061,0.997 0.117,0.988 0.168,0.974 0.212,0.954 0.249,0.929 0.277,0.900 0.298,0.866 0.310,0.830 0.314,0.790 0.309,0.749 0.296,0.706 0.276,0.661 0.248,0.617 0.215,0.572 0.175,0.528 0.130,0.484 0.081,0.442 0.028,0.401 -0.029,0.362 -0.087,0.324 -0.148,0.289 -0.210,0.256 -0.272,0.225 -0.335,0.196 -0.397,0.169 -0.459,0.145 -0.519,0.123 -0.577,0.103 -0.634,0.085 -0.688,0.070 -0.740,0.056 -0.789,0.045 -0.834,0.035 -0.877,0.028 -0.915,0.022 -0.950,0.017 -0.981,0.015 -1.008,0.014 -1.031,0.014 -1.050,0.016 -1.064,0.019 -1.074,0.023 -1.079,0.028 -1.081,0.034 -1.077,0.041 -1.070,0.049 -1.058,0.057 -1.041,0.066 -1.021,0.076 -0.996,0.086 -0.968,0.096 -0.935,0.107 -0.899,0.118 -0.859,0.129 -0.816,0.140 -0.769,0.151 -0.719,0.162 -0.667,0.172 -0.612,0.183 -0.554,0.193 -0.494,0.202 -0.432,0.211 -0.369,0.220 -0.304,0.228 -0.237,0.235 -0.170,0.242 -0.102,0.248 -0.034,0.253 0.034,0.258 0.103,0.262 0.171,0.265 0.238,0.267 0.304,0.268 0.369,0.268 0.433,0.267 0.495,0.266 0.555,0.263 0.613,0.259 0.668,0.255 0.721,0.250 0.771,0.244 0.817,0.237 0.861,0.229 0.901,0.220 0.938,0.210 0.971,0.200 1.000,0.189 1.025,0.177 1.046,0.165 1.063,0.152 1.076,0.138 1.085,0.124 1.089,0.110 1.089,0.095 1.085,0.080 1.076,0.064 1.063,0.048 1.046,0.032 1.025,0.016 1.000,0.000 0.971,-0.016 0.938,-0.032 0.901,-0.048 0.861,-0.064 0.817,-0.080 0.771,-0.095 0.721,-0.110 0.668,-0.124 0.612,-0.138 0.555,-0.152 0.495,-0.165 0.433,-0.177 0.369,-0.189 0.304,-0.200 0.238,-0.210 0.170,-0.220 0.103,-0.229 0.034,-0.237 -0.034,-0.244 -0.103,-0.250 -0.170,-0.255 -0.238,-0.260 -0.304,-0.263 -0.369,-0.266 -0.433,-0.267 -0.495,-0.268 -0.555,-0.268 -0.612,-0.267 -0.668,-0.265 -0.720,-0.262 -0.770,-0.258 -0.817,-0.254 -0.861,-0.248 -0.901,-0.242 -0.937,-0.236 -0.970,-0.228 -0.999,-0.220 -1.024,-0.211 -1.045,-0.202 -1.062,-0.193 -1.075,-0.183 -1.083,-0.172 -1.088,-0.162 -1.087,-0.151 -1.083,-0.140 -1.074,-0.129 -1.061,-0.118 -1.043,-0.108 -1.022,-0.097 -0.996,-0.086 -0.967,-0.076 -0.933,-0.067 -0.896,-0.058 -0.856,-0.049 -0.812,-0.042 -0.764,-0.035 -0.714,-0.029 -0.661,-0.023 -0.605,-0.019 -0.547,-0.016 -0.487,-0.015 -0.426,-0.015 -0.362,-0.016 -0.298,-0.018 -0.232,-0.023 -0.166,-0.028 -0.099,-0.036 -0.033,-0.046 0.033,-0.057 0.098,-0.071 0.162,-0.086 0.224,-0.104 0.284,-0.124 0.342,-0.146 0.397,-0.171 0.448,-0.197 0.496,-0.226 0.539,-0.257 0.578,-0.291 0.612,-0.326 0.640,-0.364 0.662,-0.403 0.678,-0.444 0.687,-0.486 0.689,-0.530 0.684,-0.574 0.671,-0.619 0.652,-0.663 0.624,-0.708 0.590,-0.751 0.548,-0.792 0.501,-0.832 0.447,-0.868 0.389,-0.901 0.327,-0.930 0.261,-0.955 0.195,-0.975 0.127,-0.989 0.061,-0.997 -0.003,-1.000 -0.064,-0.997 -0.120,-0.988 -0.171,-0.973 -0.215,-0.953 -0.251,-0.928 -0.280,-0.898 -0.300,-0.865 -0.312,-0.828 -0.315,-0.789 -0.310,-0.747 -0.297,-0.704 -0.277,-0.659 -0.249,-0.615 -0.215,-0.570 -0.176,-0.526 -0.131,-0.482 -0.081,-0.440 -0.028,-0.399 0.028,-0.360 0.087,-0.323 0.148,-0.287 0.210,-0.254 0.272,-0.223 0.335,-0.194 0.397,-0.168 0.458,-0.144 0.519,-0.122 0.577,-0.102 0.634,-0.084 0.688,-0.069 0.740,-0.055 0.789,-0.044 0.834,-0.034 0.877,-0.027 0.915,-0.021 0.950,-0.017 0.981,-0.014 1.008,-0.013 1.031,-0.013 1.050,-0.015 1.064,-0.018 1.074,-0.022 1.080,-0.027 1.081,-0.034 1.077,-0.041 1.070,-0.048 1.058,-0.057 1.042,-0.066 1.021,-0.076 0.997,-0.086 0.968,-0.096 0.935,-0.107 0.899,-0.118 0.859,-0.129 0.816,-0.140 0.769,-0.151 0.720,-0.161 0.667,-0.172 0.612,-0.182 0.554,-0.192 0.494,-0.202 0.433,-0.211 0.369,-0.220 0.304,-0.228 0.238,-0.235 0.171,-0.242 0.103,-0.248 0.034,-0.253 -0.034,-0.258 -0.102,-0.262 -0.170,-0.264 -0.237,-0.266 -0.304,-0.268 -0.369,-0.268 -0.432,-0.267 -0.494,-0.265 -0.554,-0.263 -0.612,-0.259 -0.668,-0.255 -0.720,-0.250 -0.770,-0.244 -0.817,-0.237 -0.861,-0.229 -0.901,-0.220 -0.938,-0.210 -0.971,-0.200 -1.000,-0.189 -1.025,-0.177 -1.046,-0.165 -1.063,-0.152 -1.076,-0.138 -1.085,-0.124 -1.089,-0.110 -1.089,-0.095 -1.085,-0.080 -1.076,-0.064 -1.064,-0.048 -1.047,-0.032 -1.025,-0.016 -1.000,-0.000 -0.971,0.016 -0.938,0.032 -0.901,0.048 -0.861,0.064 -0.818,0.080 -0.771,0.095 -0.721,0.110 -0.668,0.124 -0.613,0.138 -0.555,0.152 -0.495,0.165 -0.433,0.177 -0.369,0.189 -0.304,0.200 -0.238,0.210 -0.171,0.220 -0.103,0.229 -0.035,0.237 0.034,0.244 0.102,0.250 0.170,0.255 0.237,0.260 0.304,0.263 0.369,0.266 0.432,0.267 0.494,0.268 0.554,0.268 0.612,0.267 0.667,0.265 0.720,0.262 0.770,0.258 0.817,0.254 0.860,0.248 0.901,0.242 0.937,0.236 0.970,0.228 0.999,0.220 1.024,0.212 1.045,0.203 1.062,0.193 1.075,0.183 1.083,0.173 1.087,0.162 1.087,0.151 1.083,0.141 1.074,0.130 1.061,0.119 1.044,0.108 1.022,0.097 0.996,0.087 0.967,0.077 0.934,0.067 0.897,0.058 0.856,0.050 0.812,0.042 0.765,0.035 0.714,0.029 0.661,0.024 0.606,0.020 0.548,0.017 0.488,0.015 0.426,0.015 0.362,0.016 0.298,0.019 0.232,0.023 0.166,0.029 0.100,0.037 0.033,0.047 -0.032,0.058 -0.097,0.072 -0.161,0.088 -0.223,0.105 -0.284,0.125 -0.341,0.148 -0.396,0.172 -0.448,0.199 -0.495,0.228 -0.539,0.259 -0.577,0.292 -0.611,0.328 -0.639,0.365 -0.661,0.405 -0.677,0.446 -0.686,0.488 -0.688,0.532 -0.682,0.576 -0.669,0.621 -0.649,0.665 -0.622,0.710 -0.587,0.753 -0.546,0.794 -0.498,0.833 -0.444,0.870 -0.386,0.903 -0.323,0.932 -0.258,0.956 -0.191,0.975 -0.124,0.989 -0.057,0.998" />
</g>
</svg>