<svg xmlns="http://www.w3.org/2000/svg" width="160.5" height="100.0" viewBox="-3 -5 171 110">
<g fill="none" stroke="black" stroke-width="4.4150%" transform="translate(0, 100.0000) scale(0.1133, -0.1133)">
<line x1="19" y1="0" x2="19" y2="7" />
<line x1="39" y1="0" x2="39" y2="13" />
<line x1="58" y1="0" x2="58" y2="19" />
<line x1="78" y1="0" x2="78" y2="31" />
<line x1="97" y1="0" x2="97" y2="37" />
<line x1="116" y1="0" x2="116" y2="43" />
<line x1="136" y1="0" x2="136" y2="61" />
<line x1="155" y1="0" x2="155" y2="67" />
<line x1="175" y1="0" x2="175" y2="73" />
<line x1="194" y1="0" x2="194" y2="79" />
<line x1="214" y1="0" x2="214" y2="97" />
<line x1="233" y1="0" x2="233" y2="103" />
<line x1="252" y1="0" x2="252" y2="109" />
<line x1="272" y1="0" x2="272" y2="127" />
<line x1="291" y1="0" x2="291" y2="139" />
<line x1="311" y1="0" x2="311" y2="151" />
<line x1="330" y1="0" x2="330" y2="157" />
<line x1="349" y1="0" x2="349" y2="163" />
<line x1="369" y1="0" x2="369" y2="181" />
<line x1="388" y1="0" x2="388" y2="193" />
<line x1="408" y1="0" x2="408" y2="199" />
<line x1="427" y1="0" x2="427" y2="211" />
<line x1="447" y1="0" x2="447" y2="223" />
<line x1="466" y1="0" x2="466" y2="229" />
<line x1="485" y1="0" x2="485" y2="241" />
<line x1="505" y1="0" x2="505" y2="271" />
<line x1="524" y1="0" x2="524" y2="277" />
<line x1="544" y1="0" x2="544" y2="283" />
<line x1="563" y1="0" x2="563" y2="307" />
<line x1="582" y1="0" x2="582" y2="313" />
<line x1="602" y1="0" x2="602" y2="331" />
<line x1="621" y1="0" x2="621" y2="337" />
<line x1="641" y1="0" x2="641" y2="349" />
<line x1="660" y1="0" x2="660" y2="367" />
<line x1="680" y1="0" x2="680" y2="373" />
<line x1="699" y1="0" x2="699" y2="379" />
<line x1="718" y1="0" x2="718" y2="397" />
<line x1="738" y1="0" x2="738" y2="409" />
<line x1="757" y1="0" x2="757" y2="421" />
<line x1="777" y1="0" x2="777" y2="433" />
<line x1="796" y1="0" x2="796" y2="439" />
<line x1="815" y1="0" x2="815" y2="457" />
<line x1="835" y1="0" x2="835" y2="463" />
<line x1="854" y1="0" x2="854" y2="487" />
<line x1="874" y1="0" x2="874" y2="499" />
<line x1="893" y1="0" x2="893" y2="523" />
<line x1="913" y1="0" x2="913" y2="541" />
<line x1="932" y1="0" x2="932" y2="547" />
<line x1="951" y1="0" x2="951" y2="571" />
<line x1="971" y1="0" x2="971" y2="577" />
<line x1="990" y1="0" x2="990" y2="601" />
<line x1="1010" y1="0" x2="1010" y2="607" />
<line x1="1029" y1="0" x2="1029" y2="613" />
<line x1="1048" y1="0" x2="1048" y2="619" />
<line x1="1068" y1="0" x2="1068" y2="631" />
<line x1="1087" y1="0" x2="1087" y2="643" />
<line x1="1107" y1="0" x2="1107" y2="661" />
<line x1="1126" y1="0" x2="1126" y2="673" />
<line x1="1146" y1="0" x2="1146" y2="691" />
<line x1="1165" y1="0" x2="1165" y2="709" />
<line x1="1184" y1="0" x2="1184" y2="727" />
<line x1="1204" y1="0" x2="1204" y2="733" />
<line x1="1223" y1="0" x2="1223" y2="739" />
<line x1="1243" y1="0" x2="1243" y2="751" />
<line x1="1262" y1="0" x2="1262" y2="757" />
<line x1="1281" y1="0" x2="1281" y2="769" />
<line x1="1301" y1="0" x2="1301" y2="787" />
<line x1="1320" y1="0" x2="1320" y2="811" />
<line x1="1340" y1="0" x2="1340" y2="823" />
<line x1="1359" y1="0" x2="1359" y2="829" />
<line x1="1379" y1="0" x2="1379" y2="853" />
<line x1="1398" y1="0" x2="1398" y2="859" />
<line x1="1417" y1="0" x2="1417" y2="877" />
<line x1="1437" y1="0" x2="1437" y2="883" />
</g>
</svg>