<svg xmlns="http://www.w3.org/2000/svg" width="161.0" height="100.0" viewBox="-2.6 -5.0 171.0 110.0">
<g fill="none" stroke="black" stroke-width="0.9950%" transform="translate(0, 100.0000) scale(0.5025, -0.5025)">
<line x1="4.9" y1="0.0" x2="4.9" y2="1.0" />
<line x1="9.7" y1="0.0" x2="9.7" y2="3.0" />
<line x1="14.6" y1="0.0" x2="14.6" y2="4.0" />
<line x1="19.4" y1="0.0" x2="19.4" y2="7.0" />
<line x1="24.3" y1="0.0" x2="24.3" y2="9.0" />
<line x1="29.1" y1="0.0" x2="29.1" y2="10.0" />
<line x1="34.0" y1="0.0" x2="34.0" y2="13.0" />
<line x1="38.8" y1="0.0" x2="38.8" y2="15.0" />
<line x1="43.7" y1="0.0" x2="43.7" y2="18.0" />
<line x1="48.5" y1="0.0" x2="48.5" y2="22.0" />
<line x1="53.4" y1="0.0" x2="53.4" y2="24.0" />
<line x1="58.2" y1="0.0" x2="58.2" y2="25.0" />
<line x1="63.1" y1="0.0" x2="63.1" y2="27.0" />
<line x1="68.0" y1="0.0" x2="68.0" y2="28.0" />
<line x1="72.8" y1="0.0" x2="72.8" y2="34.0" />
<line x1="77.7" y1="0.0" x2="77.7" y2="37.0" />
<line x1="82.5" y1="0.0" x2="82.5" y2="39.0" />
<line x1="87.4" y1="0.0" x2="87.4" y2="43.0" />
<line x1="92.2" y1="0.0" x2="92.2" y2="45.0" />
<line x1="97.1" y1="0.0" x2="97.1" y2="48.0" />
<line x1="101.9" y1="0.0" x2="101.9" y2="49.0" />
<line x1="106.8" y1="0.0" x2="106.8" y2="57.0" />
<line x1="111.6" y1="0.0" x2="111.6" y2="58.0" />
<line x1="116.5" y1="0.0" x2="116.5" y2="60.0" />
<line x1="121.4" y1="0.0" x2="121.4" y2="64.0" />
<line x1="126.2" y1="0.0" x2="126.2" y2="67.0" />
<line x1="131.1" y1="0.0" x2="131.1" y2="69.0" />
<line x1="135.9" y1="0.0" x2="135.9" y2="70.0" />
<line x1="140.8" y1="0.0" x2="140.8" y2="73.0" />
<line x1="145.6" y1="0.0" x2="145.6" y2="78.0" />
<line x1="150.5" y1="0.0" x2="150.5" y2="79.0" />
<line x1="155.3" y1="0.0" x2="155.3" y2="84.0" />
<line x1="160.2" y1="0.0" x2="160.2" y2="87.0" />
<line x1="165.0" y1="0.0" x2="165.0" y2="88.0" />
<line x1="169.9" y1="0.0" x2="169.9" y2="93.0" />
<line x1="174.7" y1="0.0" x2="174.7" y2="97.0" />
<line x1="179.6" y1="0.0" x2="179.6" y2="99.0" />
<line x1="184.5" y1="0.0" x2="184.5" y2="100.0" />
<line x1="189.3" y1="0.0" x2="189.3" y2="102.0" />
<line x1="194.2" y1="0.0" x2="194.2" y2="105.0" />
<line x1="199.0" y1="0.0" x2="199.0" y2="108.0" />
<line x1="203.9" y1="0.0" x2="203.9" y2="112.0" />
<line x1="208.7" y1="0.0" x2="208.7" y2="114.0" />
<line x1="213.6" y1="0.0" x2="213.6" y2="115.0" />
<line x1="218.4" y1="0.0" x2="218.4" y2="127.0" />
<line x1="223.3" y1="0.0" x2="223.3" y2="130.0" />
<line x1="228.1" y1="0.0" x2="228.1" y2="135.0" />
<line x1="233.0" y1="0.0" x2="233.0" y2="139.0" />
<line x1="237.9" y1="0.0" x2="237.9" y2="142.0" />
<line x1="242.7" y1="0.0" x2="242.7" y2="144.0" />
<line x1="247.6" y1="0.0" x2="247.6" y2="148.0" />
<line x1="252.4" y1="0.0" x2="252.4" y2="150.0" />
<line x1="257.3" y1="0.0" x2="257.3" y2="153.0" />
<line x1="262.1" y1="0.0" x2="262.1" y2="154.0" />
<line x1="267.0" y1="0.0" x2="267.0" y2="160.0" />
<line x1="271.8" y1="0.0" x2="271.8" y2="163.0" />
<line x1="276.7" y1="0.0" x2="276.7" y2="165.0" />
<line x1="281.5" y1="0.0" x2="281.5" y2="168.0" />
<line x1="286.4" y1="0.0" x2="286.4" y2="169.0" />
<line x1="291.2" y1="0.0" x2="291.2" y2="175.0" />
<line x1="296.1" y1="0.0" x2="296.1" y2="177.0" />
<line x1="301.0" y1="0.0" x2="301.0" y2="183.0" />
<line x1="305.8" y1="0.0" x2="305.8" y2="189.0" />
<line x1="310.7" y1="0.0" x2="310.7" y2="190.0" />
<line x1="315.5" y1="0.0" x2="315.5" y2="192.0" />
<line x1="320.4" y1="0.0" x2="320.4" y2="193.0" />
<line x1="325.2" y1="0.0" x2="325.2" y2="199.0" />
</g>
</svg>