<svg xmlns="http://www.w3.org/2000/svg" width="161.0" height="100.0" viewBox="-2 -5 171 110">
<g fill="none" stroke="black" stroke-width="2.9950%" transform="translate(0, 100.0000) scale(0.1669, -0.1669)">
<line x1="17" y1="0" x2="17" y2="3" />
<line x1="34" y1="0" x2="34" y2="7" />
<line x1="52" y1="0" x2="52" y2="11" />
<line x1="69" y1="0" x2="69" y2="19" />
<line x1="86" y1="0" x2="86" y2="23" />
<line x1="103" y1="0" x2="103" y2="31" />
<line x1="121" y1="0" x2="121" y2="43" />
<line x1="138" y1="0" x2="138" y2="47" />
<line x1="155" y1="0" x2="155" y2="59" />
<line x1="172" y1="0" x2="172" y2="67" />
<line x1="189" y1="0" x2="189" y2="71" />
<line x1="207" y1="0" x2="207" y2="79" />
<line x1="224" y1="0" x2="224" y2="83" />
<line x1="241" y1="0" x2="241" y2="103" />
<line x1="258" y1="0" x2="258" y2="107" />
<line x1="276" y1="0" x2="276" y2="127" />
<line x1="293" y1="0" x2="293" y2="131" />
<line x1="310" y1="0" x2="310" y2="139" />
<line x1="327" y1="0" x2="327" y2="151" />
<line x1="344" y1="0" x2="344" y2="163" />
<line x1="362" y1="0" x2="362" y2="167" />
<line x1="379" y1="0" x2="379" y2="179" />
<line x1="396" y1="0" x2="396" y2="191" />
<line x1="413" y1="0" x2="413" y2="199" />
<line x1="431" y1="0" x2="431" y2="211" />
<line x1="448" y1="0" x2="448" y2="223" />
<line x1="465" y1="0" x2="465" y2="227" />
<line x1="482" y1="0" x2="482" y2="239" />
<line x1="499" y1="0" x2="499" y2="251" />
<line x1="517" y1="0" x2="517" y2="263" />
<line x1="534" y1="0" x2="534" y2="271" />
<line x1="551" y1="0" x2="551" y2="283" />
<line x1="568" y1="0" x2="568" y2="307" />
<line x1="585" y1="0" x2="585" y2="311" />
<line x1="603" y1="0" x2="603" y2="331" />
<line x1="620" y1="0" x2="620" y2="347" />
<line x1="637" y1="0" x2="637" y2="359" />
<line x1="654" y1="0" x2="654" y2="367" />
<line x1="672" y1="0" x2="672" y2="379" />
<line x1="689" y1="0" x2="689" y2="383" />
<line x1="706" y1="0" x2="706" y2="419" />
<line x1="723" y1="0" x2="723" y2="431" />
<line x1="740" y1="0" x2="740" y2="439" />
<line x1="758" y1="0" x2="758" y2="443" />
<line x1="775" y1="0" x2="775" y2="463" />
<line x1="792" y1="0" x2="792" y2="467" />
<line x1="809" y1="0" x2="809" y2="479" />
<line x1="827" y1="0" x2="827" y2="487" />
<line x1="844" y1="0" x2="844" y2="491" />
<line x1="861" y1="0" x2="861" y2="499" />
<line x1="878" y1="0" x2="878" y2="503" />
<line x1="895" y1="0" x2="895" y2="523" />
<line x1="913" y1="0" x2="913" y2="547" />
<line x1="930" y1="0" x2="930" y2="563" />
<line x1="947" y1="0" x2="947" y2="571" />
<line x1="964" y1="0" x2="964" y2="587" />
<line x1="982" y1="0" x2="982" y2="599" />
</g>
</svg>