<svg xmlns="http://www.w3.org/2000/svg" width="161.8" height="100.0" viewBox="-3.10 3.33 171.80 110.00">
<g fill="none" stroke="black" stroke-width="0.0600%" transform="translate(0, 116.6667) scale(8.3333, -8.3333)">
<polyline points="0.23,1.00 0.46,1.00 0.46,2.00 0.69,2.00 0.69,2.00 0.91,2.00 0.91,3.00 1.14,3.00 1.14,3.00 1.37,3.00 1.37,3.00 1.60,3.00 1.60,4.00 1.83,4.00 1.83,4.00 2.06,4.00 2.06,4.00 2.28,4.00 2.28,4.00 2.51,4.00 2.51,5.00 2.74,5.00 2.74,5.00 2.97,5.00 2.97,5.00 3.20,5.00 3.20,5.00 3.43,5.00 3.43,5.00 3.65,5.00 3.65,6.00 3.88,6.00 3.88,6.00 4.11,6.00 4.11,6.00 4.34,6.00 4.34,6.00 4.57,6.00 4.57,6.00 4.80,6.00 4.80,6.00 5.03,6.00 5.03,7.00 5.25,7.00 5.25,7.00 5.48,7.00 5.48,7.00 5.71,7.00 5.71,7.00 5.94,7.00 5.94,7.00 6.17,7.00 6.17,7.00 6.40,7.00 6.40,7.00 6.62,7.00 6.62,8.00 6.85,8.00 6.85,8.00 7.08,8.00 7.08,8.00 7.31,8.00 7.31,8.00 7.54,8.00 7.54,8.00 7.77,8.00 7.77,8.00 7.99,8.00 7.99,8.00 8.22,8.00 8.22,8.00 8.45,8.00 8.45,9.00 8.68,9.00 8.68,9.00 8.91,9.00 8.91,9.00 9.14,9.00 9.14,9.00 9.37,9.00 9.37,9.00 9.59,9.00 9.59,9.00 9.82,9.00 9.82,9.00 10.05,9.00 10.05,9.00 10.28,9.00 10.28,9.00 10.51,9.00 10.51,10.00 10.74,10.00 10.74,10.00 10.96,10.00 10.96,10.00 11.19,10.00 11.19,10.00 11.42,10.00 11.42,10.00 11.65,10.00 11.65,10.00 11.88,10.00 11.88,10.00 12.11,10.00 12.11,10.00 12.34,10.00 12.34,10.00 12.56,10.00 12.56,10.00 12.79,10.00 12.79,11.00 13.02,11.00 13.02,11.00 13.25,11.00 13.25,11.00 13.48,11.00 13.48,11.00 13.71,11.00 13.71,11.00 13.93,11.00 13.93,11.00 14.16,11.00 14.16,11.00 14.39,11.00 14.39,11.00 14.62,11.00 14.62,11.00 14.85,11.00 14.85,11.00 15.08,11.00 15.08,11.00 15.30,11.00 15.30,12.00 15.53,12.00 15.53,12.00 15.76,12.00 15.76,12.00 15.99,12.00 15.99,12.00 16.22,12.00 16.22,12.00 16.45,12.00 16.45,12.00 16.68,12.00 16.68,12.00 16.90,12.00 16.90,12.00 17.13,12.00 17.13,12.00 17.36,12.00 17.36,12.00 17.59,12.00 17.59,12.00 17.82,12.00 17.82,12.00 18.05,12.00 18.05,13.00 18.27,13.00 18.27,13.00 18.50,13.00 18.50,13.00 18.73,13.00 18.73,13.00 18.96,13.00 18.96,13.00 19.19,13.00 19.19,13.00 19.42,13.00 19.42,13.00 19.64,13.00" />
</g>
</svg>