<svg xmlns="http://www.w3.org/2000/svg" width="100.0" height="100.0" viewBox="-5.000 -5.000 110.000 110.000">
<g fill="none" stroke="black" stroke-width="0.0050%" transform="translate(0, 100.0000) scale(100.0000, -100.0000)">
<circle cx="0.000" cy="0.000" r="0.005" />
<circle cx="0.000" cy="1.000" r="0.005" />
<polyline points="0.000,0.000 0.000,0.000 0.000,0.000 0.001,0.000 0.002,0.000 0.003,0.000 0.004,0.000 0.005,0.000 0.006,0.001 0.008,0.001 0.010,0.001 0.012,0.001 0.014,0.002 0.017,0.002 0.020,0.003 0.022,0.003 0.026,0.004 0.029,0.005 0.032,0.006 0.036,0.007 0.040,0.008 0.044,0.009 0.048,0.011 0.053,0.012 0.058,0.014 0.063,0.016 0.068,0.018 0.073,0.020 0.078,0.022 0.084,0.024 0.090,0.027 0.096,0.030 0.102,0.033 0.109,0.036 0.116,0.039 0.123,0.043 0.130,0.047 0.137,0.051 0.144,0.055 0.152,0.059 0.160,0.064 0.168,0.069 0.176,0.074 0.185,0.080 0.194,0.085 0.203,0.091 0.212,0.097 0.221,0.104 0.230,0.111 0.240,0.118 0.250,0.125 0.260,0.133 0.270,0.141 0.281,0.149 0.292,0.157 0.303,0.166 0.314,0.176 0.325,0.185 0.336,0.195 0.348,0.205 0.360,0.216 0.372,0.227 0.384,0.238 0.397,0.250 0.410,0.262 0.423,0.275 0.436,0.287 0.449,0.301 0.462,0.314 0.476,0.329 0.490,0.343 0.504,0.358 0.518,0.373 0.533,0.389 0.548,0.405 0.563,0.422 0.578,0.439 0.593,0.457 0.608,0.475 0.624,0.493 0.640,0.512 0.656,0.531 0.672,0.551 0.689,0.572 0.706,0.593 0.723,0.614 0.740,0.636 0.757,0.659 0.774,0.681 0.792,0.705 0.810,0.729 0.828,0.754 0.846,0.779 0.865,0.804 0.884,0.831 0.903,0.857 0.922,0.885 0.941,0.913 0.960,0.941 0.980,0.970 1.000,1.000" />
</g>
</svg>