<svg xmlns="http://www.w3.org/2000/svg" width="161.8" height="100.0" viewBox="-2.51 -5.00 171.80 110.00">
<g fill="none" stroke="black" stroke-width="0.0250%" transform="translate(0, 100.0000) scale(20.0000, -20.0000)">



<line x1="0.50" y1="0.00" x2="0.50" y2="1.00" />


<line x1="0.87" y1="0.00" x2="0.87" y2="1.00" />
<line x1="1.00" y1="0.00" x2="1.00" y2="2.00" />



<line x1="1.49" y1="0.00" x2="1.49" y2="1.00" />
<line x1="1.62" y1="0.00" x2="1.62" y2="1.00" />
<line x1="1.74" y1="0.00" x2="1.74" y2="1.00" />
<line x1="1.87" y1="0.00" x2="1.87" y2="2.00" />
<line x1="1.99" y1="0.00" x2="1.99" y2="3.00" />



<line x1="2.49" y1="0.00" x2="2.49" y2="1.00" />


<line x1="2.86" y1="0.00" x2="2.86" y2="1.00" />
<line x1="2.99" y1="0.00" x2="2.99" y2="2.00" />
<line x1="3.11" y1="0.00" x2="3.11" y2="1.00" />
<line x1="3.24" y1="0.00" x2="3.24" y2="1.00" />
<line x1="3.36" y1="0.00" x2="3.36" y2="1.00" />
<line x1="3.48" y1="0.00" x2="3.48" y2="2.00" />
<line x1="3.61" y1="0.00" x2="3.61" y2="2.00" />
<line x1="3.73" y1="0.00" x2="3.73" y2="2.00" />
<line x1="3.86" y1="0.00" x2="3.86" y2="3.00" />
<line x1="3.98" y1="0.00" x2="3.98" y2="4.00" />



<line x1="4.48" y1="0.00" x2="4.48" y2="1.00" />


<line x1="4.85" y1="0.00" x2="4.85" y2="1.00" />
<line x1="4.98" y1="0.00" x2="4.98" y2="2.00" />



<line x1="5.48" y1="0.00" x2="5.48" y2="1.00" />
<line x1="5.60" y1="0.00" x2="5.60" y2="1.00" />
<line x1="5.73" y1="0.00" x2="5.73" y2="1.00" />
<line x1="5.85" y1="0.00" x2="5.85" y2="2.00" />
<line x1="5.97" y1="0.00" x2="5.97" y2="3.00" />
<line x1="6.10" y1="0.00" x2="6.10" y2="1.00" />
<line x1="6.22" y1="0.00" x2="6.22" y2="1.00" />
<line x1="6.35" y1="0.00" x2="6.35" y2="1.00" />
<line x1="6.47" y1="0.00" x2="6.47" y2="2.00" />
<line x1="6.60" y1="0.00" x2="6.60" y2="1.00" />
<line x1="6.72" y1="0.00" x2="6.72" y2="1.00" />
<line x1="6.85" y1="0.00" x2="6.85" y2="2.00" />
<line x1="6.97" y1="0.00" x2="6.97" y2="3.00" />
<line x1="7.09" y1="0.00" x2="7.09" y2="2.00" />
<line x1="7.22" y1="0.00" x2="7.22" y2="2.00" />
<line x1="7.34" y1="0.00" x2="7.34" y2="2.00" />
<line x1="7.47" y1="0.00" x2="7.47" y2="3.00" />
<line x1="7.59" y1="0.00" x2="7.59" y2="3.00" />
<line x1="7.72" y1="0.00" x2="7.72" y2="3.00" />
<line x1="7.84" y1="0.00" x2="7.84" y2="4.00" />
<line x1="7.97" y1="0.00" x2="7.97" y2="5.00" />


</g>
</svg>