<svg xmlns="http://www.w3.org/2000/svg" width="161.8" height="100.0" viewBox="-85.902 -55.000 171.803 110.000">
<g fill="none" stroke="black" stroke-width="0.0050%" transform="translate(0, 0.0000) scale(100.0000, -100.0000)">
<circle cx="-0.809" cy="0.000" r="0.005" />
<circle cx="0.000" cy="0.500" r="0.005" />
<polyline points="-0.809,-0.192 -0.793,-0.196 -0.777,-0.200 -0.760,-0.204 -0.744,-0.208 -0.728,-0.212 -0.712,-0.216 -0.696,-0.221 -0.680,-0.225 -0.663,-0.230 -0.647,-0.235 -0.631,-0.241 -0.615,-0.246 -0.599,-0.252 -0.582,-0.258 -0.566,-0.264 -0.550,-0.271 -0.534,-0.278 -0.518,-0.285 -0.502,-0.292 -0.485,-0.300 -0.469,-0.308 -0.453,-0.317 -0.437,-0.326 -0.421,-0.335 -0.405,-0.345 -0.388,-0.355 -0.372,-0.366 -0.356,-0.377 -0.340,-0.388 -0.324,-0.400 -0.307,-0.412 -0.291,-0.425 -0.275,-0.437 -0.259,-0.449 -0.243,-0.462 -0.227,-0.473 -0.210,-0.483 -0.194,-0.492 -0.178,-0.498 -0.162,-0.500 -0.146,-0.497 -0.129,-0.488 -0.113,-0.470 -0.097,-0.441 -0.081,-0.400 -0.065,-0.345 -0.049,-0.275 -0.032,-0.192 -0.016,-0.099 -0.000,-0.000 0.016,0.099 0.032,0.192 0.049,0.275 0.065,0.345 0.081,0.400 0.097,0.441 0.113,0.470 0.129,0.488 0.146,0.497 0.162,0.500 0.178,0.498 0.194,0.492 0.210,0.483 0.227,0.473 0.243,0.462 0.259,0.449 0.275,0.437 0.291,0.425 0.307,0.412 0.324,0.400 0.340,0.388 0.356,0.377 0.372,0.366 0.388,0.355 0.405,0.345 0.421,0.335 0.437,0.326 0.453,0.317 0.469,0.308 0.485,0.300 0.502,0.292 0.518,0.285 0.534,0.278 0.550,0.271 0.566,0.264 0.582,0.258 0.599,0.252 0.615,0.246 0.631,0.241 0.647,0.235 0.663,0.230 0.680,0.225 0.696,0.221 0.712,0.216 0.728,0.212 0.744,0.208 0.760,0.204 0.777,0.200 0.793,0.196 0.809,0.192" />
</g>
</svg>