<svg xmlns="http://www.w3.org/2000/svg" height="168.75">
<g transform="translate(0, 0)">
<svg xmlns="http://www.w3.org/2000/svg" width="45.0" height="45.0" viewBox="-27.5 -27.5 55.0 55.0">
<g fill="none" stroke="black" stroke-width="2.2222%" transform="translate(0, 0.0000) scale(0.2250, -0.2250)">
<polygon points="100.0,0.0 0.0,100.0 -100.0,0.0 -0.0,-100.0" />
<circle cx="100.0" cy="0.0" r="2.2" />
<circle cx="0.0" cy="100.0" r="2.2" />
<circle cx="-100.0" cy="0.0" r="2.2" />
<circle cx="-0.0" cy="-100.0" r="2.2" />
<circle cx="0.0" cy="0.0" r="100.0" />
</g>
</svg>
</g>
<g transform="translate(56.25, 0)">
<svg xmlns="http://www.w3.org/2000/svg" width="44.6" height="45.0" viewBox="-27.3 -27.7 54.6 55.0">
<g fill="none" stroke="black" stroke-width="2.2444%" transform="translate(0, -0.4455) scale(0.2228, -0.2228)">
<polygon points="100.0,0.0 0.0,100.0 -100.0,0.0" />
<g fill="rgb(0,0,0)" ><circle cx="-0.0" cy="-100.0" r="2.0" /></g>
<circle cx="100.0" cy="0.0" r="2.2" />
<circle cx="0.0" cy="100.0" r="2.2" />
<circle cx="-100.0" cy="0.0" r="2.2" />
<circle cx="-0.0" cy="-100.0" r="2.2" />
<circle cx="0.0" cy="0.0" r="100.0" />
</g>
</svg>
</g>
<g transform="translate(112.5, 0)">
<svg xmlns="http://www.w3.org/2000/svg" width="45.5" height="45.0" viewBox="-27.9 -27.5 55.5 55.0">
<g fill="none" stroke="black" stroke-width="2.2222%" transform="translate(0, 0.0000) scale(0.2250, -0.2250)">
<polygon points="100.0,0.0 0.0,100.0 -0.0,-100.0" />
<g fill="rgb(0,0,0)" ><circle cx="-100.0" cy="0.0" r="2.0" /></g>
<circle cx="100.0" cy="0.0" r="2.2" />
<circle cx="0.0" cy="100.0" r="2.2" />
<circle cx="-100.0" cy="0.0" r="2.2" />
<circle cx="-0.0" cy="-100.0" r="2.2" />
<circle cx="0.0" cy="0.0" r="100.0" />
</g>
</svg>
</g>
<g transform="translate(168.75, 0)">
<svg xmlns="http://www.w3.org/2000/svg" width="45.0" height="45.0" viewBox="-27.5 -27.5 55.0 55.0">
<g fill="none" stroke="black" stroke-width="2.2222%" transform="translate(0, 0.0000) scale(0.2250, -0.2250)">
<line x1="100.0" y1="0.0" x2="0.0" y2="100.0" />
<line x1="-100.0" y1="0.0" x2="-0.0" y2="-100.0" />
<circle cx="100.0" cy="0.0" r="2.2" />
<circle cx="0.0" cy="100.0" r="2.2" />
<circle cx="-100.0" cy="0.0" r="2.2" />
<circle cx="-0.0" cy="-100.0" r="2.2" />
<circle cx="0.0" cy="0.0" r="100.0" />
</g>
</svg>
</g>
<g transform="translate(225, 0)">
<svg xmlns="http://www.w3.org/2000/svg" width="45.0" height="45.0" viewBox="-27.7 -27.7 55.0 55.0">
<g fill="none" stroke="black" stroke-width="2.2444%" transform="translate(0, -0.4455) scale(0.2228, -0.2228)">
<line x1="100.0" y1="0.0" x2="0.0" y2="100.0" />
<g fill="rgb(0,0,0)" ><circle cx="-100.0" cy="0.0" r="2.0" /></g>
<g fill="rgb(0,0,0)" ><circle cx="-0.0" cy="-100.0" r="2.0" /></g>
<circle cx="100.0" cy="0.0" r="2.2" />
<circle cx="0.0" cy="100.0" r="2.2" />
<circle cx="-100.0" cy="0.0" r="2.2" />
<circle cx="-0.0" cy="-100.0" r="2.2" />
<circle cx="0.0" cy="0.0" r="100.0" />
</g>
</svg>
</g>
<g transform="translate(0, 56.25)">
<svg xmlns="http://www.w3.org/2000/svg" width="44.6" height="45.0" viewBox="-27.3 -27.3 54.6 55.0">
<g fill="none" stroke="black" stroke-width="2.2444%" transform="translate(0, 0.4455) scale(0.2228, -0.2228)">
<polygon points="100.0,0.0 -100.0,0.0 -0.0,-100.0" />
<g fill="rgb(0,0,0)" ><circle cx="0.0" cy="100.0" r="2.0" /></g>
<circle cx="100.0" cy="0.0" r="2.2" />
<circle cx="0.0" cy="100.0" r="2.2" />
<circle cx="-100.0" cy="0.0" r="2.2" />
<circle cx="-0.0" cy="-100.0" r="2.2" />
<circle cx="0.0" cy="0.0" r="100.0" />
</g>
</svg>
</g>
<g transform="translate(56.25, 56.25)">
<svg xmlns="http://www.w3.org/2000/svg" width="45.0" height="45.0" viewBox="-27.5 -27.5 55.0 55.0">
<g fill="none" stroke="black" stroke-width="2.2222%" transform="translate(0, 0.0000) scale(0.2250, -0.2250)">
<line x1="100.0" y1="0.0" x2="-100.0" y2="0.0" />
<line x1="0.0" y1="100.0" x2="-0.0" y2="-100.0" />
<circle cx="100.0" cy="0.0" r="2.2" />
<circle cx="0.0" cy="100.0" r="2.2" />
<circle cx="-100.0" cy="0.0" r="2.2" />
<circle cx="-0.0" cy="-100.0" r="2.2" />
<circle cx="0.0" cy="0.0" r="100.0" />
</g>
</svg>
</g>
<g transform="translate(112.5, 56.25)">
<svg xmlns="http://www.w3.org/2000/svg" width="44.1" height="45.0" viewBox="-27.1 -27.5 54.1 55.0">
<g fill="none" stroke="black" stroke-width="2.2667%" transform="translate(0, 0.0000) scale(0.2206, -0.2206)">
<line x1="100.0" y1="0.0" x2="-100.0" y2="0.0" />
<g fill="rgb(0,0,0)" ><circle cx="0.0" cy="100.0" r="2.0" /></g>
<g fill="rgb(0,0,0)" ><circle cx="-0.0" cy="-100.0" r="2.0" /></g>
<circle cx="100.0" cy="0.0" r="2.3" />
<circle cx="0.0" cy="100.0" r="2.3" />
<circle cx="-100.0" cy="0.0" r="2.3" />
<circle cx="-0.0" cy="-100.0" r="2.3" />
<circle cx="0.0" cy="0.0" r="100.0" />
</g>
</svg>
</g>
<g transform="translate(168.75, 56.25)">
<svg xmlns="http://www.w3.org/2000/svg" width="45.0" height="45.0" viewBox="-27.5 -27.5 55.0 55.0">
<g fill="none" stroke="black" stroke-width="2.2222%" transform="translate(0, 0.0000) scale(0.2250, -0.2250)">
<line x1="100.0" y1="0.0" x2="-0.0" y2="-100.0" />
<line x1="0.0" y1="100.0" x2="-100.0" y2="0.0" />
<circle cx="100.0" cy="0.0" r="2.2" />
<circle cx="0.0" cy="100.0" r="2.2" />
<circle cx="-100.0" cy="0.0" r="2.2" />
<circle cx="-0.0" cy="-100.0" r="2.2" />
<circle cx="0.0" cy="0.0" r="100.0" />
</g>
</svg>
</g>
<g transform="translate(225, 56.25)">
<svg xmlns="http://www.w3.org/2000/svg" width="45.5" height="45.0" viewBox="-27.5 -27.5 55.5 55.0">
<g fill="none" stroke="black" stroke-width="2.2222%" transform="translate(0, 0.0000) scale(0.2250, -0.2250)">
<g fill="rgb(0,0,0)" ><circle cx="100.0" cy="0.0" r="2.0" /></g>
<polygon points="0.0,100.0 -100.0,0.0 -0.0,-100.0" />
<circle cx="100.0" cy="0.0" r="2.2" />
<circle cx="0.0" cy="100.0" r="2.2" />
<circle cx="-100.0" cy="0.0" r="2.2" />
<circle cx="-0.0" cy="-100.0" r="2.2" />
<circle cx="0.0" cy="0.0" r="100.0" />
</g>
</svg>
</g>
<g transform="translate(0, 112.5)">
<svg xmlns="http://www.w3.org/2000/svg" width="45.0" height="45.0" viewBox="-27.3 -27.7 55.0 55.0">
<g fill="none" stroke="black" stroke-width="2.2444%" transform="translate(0, -0.4455) scale(0.2228, -0.2228)">
<g fill="rgb(0,0,0)" ><circle cx="100.0" cy="0.0" r="2.0" /></g>
<line x1="0.0" y1="100.0" x2="-100.0" y2="0.0" />
<g fill="rgb(0,0,0)" ><circle cx="-0.0" cy="-100.0" r="2.0" /></g>
<circle cx="100.0" cy="0.0" r="2.2" />
<circle cx="0.0" cy="100.0" r="2.2" />
<circle cx="-100.0" cy="0.0" r="2.2" />
<circle cx="-0.0" cy="-100.0" r="2.2" />
<circle cx="0.0" cy="0.0" r="100.0" />
</g>
</svg>
</g>
<g transform="translate(56.25, 112.5)">
<svg xmlns="http://www.w3.org/2000/svg" width="45.0" height="45.0" viewBox="-27.7 -27.3 55.0 55.0">
<g fill="none" stroke="black" stroke-width="2.2444%" transform="translate(0, 0.4455) scale(0.2228, -0.2228)">
<line x1="100.0" y1="0.0" x2="-0.0" y2="-100.0" />
<g fill="rgb(0,0,0)" ><circle cx="0.0" cy="100.0" r="2.0" /></g>
<g fill="rgb(0,0,0)" ><circle cx="-100.0" cy="0.0" r="2.0" /></g>
<circle cx="100.0" cy="0.0" r="2.2" />
<circle cx="0.0" cy="100.0" r="2.2" />
<circle cx="-100.0" cy="0.0" r="2.2" />
<circle cx="-0.0" cy="-100.0" r="2.2" />
<circle cx="0.0" cy="0.0" r="100.0" />
</g>
</svg>
</g>
<g transform="translate(112.5, 112.5)">
<svg xmlns="http://www.w3.org/2000/svg" width="45.9" height="45.0" viewBox="-27.9 -27.5 55.9 55.0">
<g fill="none" stroke="black" stroke-width="2.2222%" transform="translate(0, 0.0000) scale(0.2250, -0.2250)">
<g fill="rgb(0,0,0)" ><circle cx="100.0" cy="0.0" r="2.0" /></g>
<line x1="0.0" y1="100.0" x2="-0.0" y2="-100.0" />
<g fill="rgb(0,0,0)" ><circle cx="-100.0" cy="0.0" r="2.0" /></g>
<circle cx="100.0" cy="0.0" r="2.2" />
<circle cx="0.0" cy="100.0" r="2.2" />
<circle cx="-100.0" cy="0.0" r="2.2" />
<circle cx="-0.0" cy="-100.0" r="2.2" />
<circle cx="0.0" cy="0.0" r="100.0" />
</g>
</svg>
</g>
<g transform="translate(168.75, 112.5)">
<svg xmlns="http://www.w3.org/2000/svg" width="45.0" height="45.0" viewBox="-27.3 -27.3 55.0 55.0">
<g fill="none" stroke="black" stroke-width="2.2444%" transform="translate(0, 0.4455) scale(0.2228, -0.2228)">
<g fill="rgb(0,0,0)" ><circle cx="100.0" cy="0.0" r="2.0" /></g>
<g fill="rgb(0,0,0)" ><circle cx="0.0" cy="100.0" r="2.0" /></g>
<line x1="-100.0" y1="0.0" x2="-0.0" y2="-100.0" />
<circle cx="100.0" cy="0.0" r="2.2" />
<circle cx="0.0" cy="100.0" r="2.2" />
<circle cx="-100.0" cy="0.0" r="2.2" />
<circle cx="-0.0" cy="-100.0" r="2.2" />
<circle cx="0.0" cy="0.0" r="100.0" />
</g>
</svg>
</g>
<g transform="translate(225, 112.5)">
<svg xmlns="http://www.w3.org/2000/svg" width="45.0" height="45.0" viewBox="-27.5 -27.5 55.0 55.0">
<g fill="none" stroke="black" stroke-width="2.2667%" transform="translate(0, 0.0000) scale(0.2206, -0.2206)">
<g fill="rgb(0,0,0)" ><circle cx="100.0" cy="0.0" r="2.0" /></g>
<g fill="rgb(0,0,0)" ><circle cx="0.0" cy="100.0" r="2.0" /></g>
<g fill="rgb(0,0,0)" ><circle cx="-100.0" cy="0.0" r="2.0" /></g>
<g fill="rgb(0,0,0)" ><circle cx="-0.0" cy="-100.0" r="2.0" /></g>
<circle cx="100.0" cy="0.0" r="2.3" />
<circle cx="0.0" cy="100.0" r="2.3" />
<circle cx="-100.0" cy="0.0" r="2.3" />
<circle cx="-0.0" cy="-100.0" r="2.3" />
<circle cx="0.0" cy="0.0" r="100.0" />
</g>
</svg>
</g>
</svg>