<svg xmlns="http://www.w3.org/2000/svg" width="161.8" height="100.0" viewBox="-3.58 9.29 171.80 110.00">
<g fill="none" stroke="black" stroke-width="0.0350%" transform="translate(0, 128.5714) scale(14.2857, -14.2857)">
<circle cx="0.10" cy="1.00" r="0.03" />
<circle cx="0.20" cy="1.00" r="0.03" />
<circle cx="0.30" cy="2.00" r="0.03" />
<circle cx="0.40" cy="2.00" r="0.03" />
<circle cx="0.50" cy="1.00" r="0.03" />
<circle cx="0.60" cy="2.00" r="0.03" />
<circle cx="0.70" cy="2.00" r="0.03" />
<circle cx="0.79" cy="2.00" r="0.03" />
<circle cx="0.89" cy="1.00" r="0.03" />
<circle cx="0.99" cy="1.00" r="0.03" />
<circle cx="1.09" cy="1.00" r="0.03" />
<circle cx="1.19" cy="3.00" r="0.03" />
<circle cx="1.29" cy="2.00" r="0.03" />
<circle cx="1.39" cy="3.00" r="0.03" />
<circle cx="1.49" cy="2.00" r="0.03" />
<circle cx="1.59" cy="1.00" r="0.03" />
<circle cx="1.69" cy="1.00" r="0.03" />
<circle cx="1.79" cy="3.00" r="0.03" />
<circle cx="1.89" cy="1.00" r="0.03" />
<circle cx="1.99" cy="2.00" r="0.03" />
<circle cx="2.09" cy="2.00" r="0.03" />
<circle cx="2.19" cy="1.00" r="0.03" />
<circle cx="2.29" cy="1.00" r="0.03" />
<circle cx="2.38" cy="4.00" r="0.03" />
<circle cx="2.48" cy="1.00" r="0.03" />
<circle cx="2.58" cy="1.00" r="0.03" />
<circle cx="2.68" cy="1.00" r="0.03" />
<circle cx="2.78" cy="2.00" r="0.03" />
<circle cx="2.88" cy="1.00" r="0.03" />
<circle cx="2.98" cy="3.00" r="0.03" />
<circle cx="3.08" cy="3.00" r="0.03" />
<circle cx="3.18" cy="3.00" r="0.03" />
<circle cx="3.28" cy="1.00" r="0.03" />
<circle cx="3.38" cy="1.00" r="0.03" />
<circle cx="3.48" cy="1.00" r="0.03" />
<circle cx="3.58" cy="3.00" r="0.03" />
<circle cx="3.68" cy="1.00" r="0.03" />
<circle cx="3.78" cy="2.00" r="0.03" />
<circle cx="3.87" cy="2.00" r="0.03" />
<circle cx="3.97" cy="2.00" r="0.03" />
<circle cx="4.07" cy="1.00" r="0.03" />
<circle cx="4.17" cy="4.00" r="0.03" />
<circle cx="4.27" cy="1.00" r="0.03" />
<circle cx="4.37" cy="2.00" r="0.03" />
<circle cx="4.47" cy="2.00" r="0.03" />
<circle cx="4.57" cy="1.00" r="0.03" />
<circle cx="4.67" cy="1.00" r="0.03" />
<circle cx="4.77" cy="5.00" r="0.03" />
<circle cx="4.87" cy="1.00" r="0.03" />
<circle cx="4.97" cy="1.00" r="0.03" />
<circle cx="5.07" cy="1.00" r="0.03" />
<circle cx="5.17" cy="1.00" r="0.03" />
<circle cx="5.27" cy="1.00" r="0.03" />
<circle cx="5.37" cy="3.00" r="0.03" />
<circle cx="5.46" cy="1.00" r="0.03" />
<circle cx="5.56" cy="3.00" r="0.03" />
<circle cx="5.66" cy="2.00" r="0.03" />
<circle cx="5.76" cy="1.00" r="0.03" />
<circle cx="5.86" cy="1.00" r="0.03" />
<circle cx="5.96" cy="6.00" r="0.03" />
<circle cx="6.06" cy="1.00" r="0.03" />
<circle cx="6.16" cy="3.00" r="0.03" />
<circle cx="6.26" cy="2.00" r="0.03" />
<circle cx="6.36" cy="1.00" r="0.03" />
<circle cx="6.46" cy="1.00" r="0.03" />
<circle cx="6.56" cy="1.00" r="0.03" />
<circle cx="6.66" cy="1.00" r="0.03" />
<circle cx="6.76" cy="2.00" r="0.03" />
<circle cx="6.86" cy="1.00" r="0.03" />
<circle cx="6.95" cy="1.00" r="0.03" />
<circle cx="7.05" cy="1.00" r="0.03" />
<circle cx="7.15" cy="8.00" r="0.03" />
<circle cx="7.25" cy="1.00" r="0.03" />
<circle cx="7.35" cy="2.00" r="0.03" />
<circle cx="7.45" cy="1.00" r="0.03" />
<circle cx="7.55" cy="1.00" r="0.03" />
<circle cx="7.65" cy="1.00" r="0.03" />
<circle cx="7.75" cy="2.00" r="0.03" />
<circle cx="7.85" cy="1.00" r="0.03" />
<circle cx="7.95" cy="3.00" r="0.03" />
<circle cx="8.05" cy="1.00" r="0.03" />
<circle cx="8.15" cy="1.00" r="0.03" />
<circle cx="8.25" cy="1.00" r="0.03" />
<circle cx="8.35" cy="6.00" r="0.03" />
<circle cx="8.45" cy="1.00" r="0.03" />
<circle cx="8.54" cy="1.00" r="0.03" />
<circle cx="8.64" cy="1.00" r="0.03" />
<circle cx="8.74" cy="1.00" r="0.03" />
<circle cx="8.84" cy="1.00" r="0.03" />
<circle cx="8.94" cy="5.00" r="0.03" />
<circle cx="9.04" cy="2.00" r="0.03" />
<circle cx="9.14" cy="1.00" r="0.03" />
<circle cx="9.24" cy="3.00" r="0.03" />
<circle cx="9.34" cy="1.00" r="0.03" />
<circle cx="9.44" cy="1.00" r="0.03" />
<circle cx="9.54" cy="5.00" r="0.03" />
<circle cx="9.64" cy="1.00" r="0.03" />
<circle cx="9.74" cy="3.00" r="0.03" />
<circle cx="9.84" cy="1.00" r="0.03" />
<circle cx="9.94" cy="1.00" r="0.03" />
<circle cx="10.03" cy="1.00" r="0.03" />
<circle cx="10.13" cy="2.00" r="0.03" />
<circle cx="10.23" cy="1.00" r="0.03" />
<circle cx="10.33" cy="3.00" r="0.03" />
<circle cx="10.43" cy="2.00" r="0.03" />
<circle cx="10.53" cy="1.00" r="0.03" />
<circle cx="10.63" cy="1.00" r="0.03" />
<circle cx="10.73" cy="4.00" r="0.03" />
<circle cx="10.83" cy="1.00" r="0.03" />
<circle cx="10.93" cy="2.00" r="0.03" />
<circle cx="11.03" cy="1.00" r="0.03" />
<circle cx="11.13" cy="3.00" r="0.03" />
<circle cx="11.23" cy="1.00" r="0.03" />
<circle cx="11.33" cy="3.00" r="0.03" />
<circle cx="11.43" cy="1.00" r="0.03" />
</g>
</svg>