<svg xmlns="http://www.w3.org/2000/svg" width="161.8" height="100.0" viewBox="-4 -5 172 110">
<g fill="none" stroke="black" stroke-width="163.1950%" transform="translate(0, 100.0061) scale(0.0031, -0.0031)">
<circle cx="352" cy="1" r="163" />
<circle cx="704" cy="16384" r="163" />
<circle cx="1056" cy="8192" r="163" />
<circle cx="1408" cy="4096" r="163" />
<circle cx="1760" cy="2048" r="163" />
<circle cx="2112" cy="1024" r="163" />
<circle cx="2465" cy="512" r="163" />
<circle cx="2817" cy="256" r="163" />
<circle cx="3169" cy="128" r="163" />
<circle cx="3521" cy="64" r="163" />
<circle cx="3873" cy="32" r="163" />
<circle cx="4225" cy="16" r="163" />
<circle cx="4577" cy="8" r="163" />
<circle cx="4929" cy="4" r="163" />
<circle cx="5281" cy="2" r="163" />
<circle cx="5633" cy="16385" r="163" />
<circle cx="5985" cy="24576" r="163" />
<circle cx="6337" cy="12288" r="163" />
<circle cx="6689" cy="6144" r="163" />
<circle cx="7041" cy="3072" r="163" />
<circle cx="7394" cy="1536" r="163" />
<circle cx="7746" cy="768" r="163" />
<circle cx="8098" cy="384" r="163" />
<circle cx="8450" cy="192" r="163" />
<circle cx="8802" cy="96" r="163" />
<circle cx="9154" cy="48" r="163" />
<circle cx="9506" cy="24" r="163" />
<circle cx="9858" cy="12" r="163" />
<circle cx="10210" cy="6" r="163" />
<circle cx="10562" cy="16387" r="163" />
<circle cx="10914" cy="8193" r="163" />
<circle cx="11266" cy="20480" r="163" />
<circle cx="11618" cy="10240" r="163" />
<circle cx="11970" cy="5120" r="163" />
<circle cx="12323" cy="2560" r="163" />
<circle cx="12675" cy="1280" r="163" />
<circle cx="13027" cy="640" r="163" />
<circle cx="13379" cy="320" r="163" />
<circle cx="13731" cy="160" r="163" />
<circle cx="14083" cy="80" r="163" />
<circle cx="14435" cy="40" r="163" />
<circle cx="14787" cy="20" r="163" />
<circle cx="15139" cy="10" r="163" />
<circle cx="15491" cy="16389" r="163" />
<circle cx="15843" cy="24578" r="163" />
<circle cx="16195" cy="28673" r="163" />
<circle cx="16547" cy="30720" r="163" />
<circle cx="16900" cy="15360" r="163" />
<circle cx="17252" cy="7680" r="163" />
<circle cx="17604" cy="3840" r="163" />
<circle cx="17956" cy="1920" r="163" />
<circle cx="18308" cy="960" r="163" />
<circle cx="18660" cy="480" r="163" />
<circle cx="19012" cy="240" r="163" />
<circle cx="19364" cy="120" r="163" />
<circle cx="19716" cy="60" r="163" />
<circle cx="20068" cy="30" r="163" />
<circle cx="20420" cy="16399" r="163" />
<circle cx="20772" cy="8199" r="163" />
<circle cx="21124" cy="4099" r="163" />
<circle cx="21476" cy="2049" r="163" />
<circle cx="21829" cy="17408" r="163" />
<circle cx="22181" cy="8704" r="163" />
<circle cx="22533" cy="4352" r="163" />
<circle cx="22885" cy="2176" r="163" />
<circle cx="23237" cy="1088" r="163" />
<circle cx="23589" cy="544" r="163" />
<circle cx="23941" cy="272" r="163" />
<circle cx="24293" cy="136" r="163" />
<circle cx="24645" cy="68" r="163" />
<circle cx="24997" cy="34" r="163" />
<circle cx="25349" cy="16401" r="163" />
<circle cx="25701" cy="24584" r="163" />
<circle cx="26053" cy="12292" r="163" />
<circle cx="26406" cy="6146" r="163" />
<circle cx="26758" cy="19457" r="163" />
<circle cx="27110" cy="26112" r="163" />
<circle cx="27462" cy="13056" r="163" />
<circle cx="27814" cy="6528" r="163" />
<circle cx="28166" cy="3264" r="163" />
<circle cx="28518" cy="1632" r="163" />
<circle cx="28870" cy="816" r="163" />
<circle cx="29222" cy="408" r="163" />
<circle cx="29574" cy="204" r="163" />
<circle cx="29926" cy="102" r="163" />
<circle cx="30278" cy="16435" r="163" />
<circle cx="30630" cy="8217" r="163" />
<circle cx="30982" cy="20492" r="163" />
<circle cx="31335" cy="10246" r="163" />
<circle cx="31687" cy="21507" r="163" />
<circle cx="32039" cy="10753" r="163" />
<circle cx="32391" cy="21760" r="163" />
<circle cx="32743" cy="10880" r="163" />
<circle cx="33095" cy="5440" r="163" />
<circle cx="33447" cy="2720" r="163" />
<circle cx="33799" cy="1360" r="163" />
<circle cx="34151" cy="680" r="163" />
<circle cx="34503" cy="340" r="163" />
<circle cx="34855" cy="170" r="163" />
<circle cx="35207" cy="16469" r="163" />
<circle cx="35559" cy="24618" r="163" />
<circle cx="35911" cy="28693" r="163" />
<circle cx="36264" cy="30730" r="163" />
<circle cx="36616" cy="31749" r="163" />
<circle cx="36968" cy="32258" r="163" />
<circle cx="37320" cy="32513" r="163" />
<circle cx="37672" cy="32640" r="163" />
<circle cx="38024" cy="16320" r="163" />
<circle cx="38376" cy="8160" r="163" />
<circle cx="38728" cy="4080" r="163" />
<circle cx="39080" cy="2040" r="163" />
<circle cx="39432" cy="1020" r="163" />
<circle cx="39784" cy="510" r="163" />
<circle cx="40136" cy="16639" r="163" />
<circle cx="40488" cy="8319" r="163" />
<circle cx="40841" cy="4159" r="163" />
<circle cx="41193" cy="2079" r="163" />
<circle cx="41545" cy="1039" r="163" />
<circle cx="41897" cy="519" r="163" />
<circle cx="42249" cy="259" r="163" />
<circle cx="42601" cy="129" r="163" />
<circle cx="42953" cy="16448" r="163" />
<circle cx="43305" cy="8224" r="163" />
<circle cx="43657" cy="4112" r="163" />
<circle cx="44009" cy="2056" r="163" />
<circle cx="44361" cy="1028" r="163" />
<circle cx="44713" cy="514" r="163" />
<circle cx="45065" cy="16641" r="163" />
<circle cx="45417" cy="24704" r="163" />
<circle cx="45770" cy="12352" r="163" />
<circle cx="46122" cy="6176" r="163" />
<circle cx="46474" cy="3088" r="163" />
<circle cx="46826" cy="1544" r="163" />
<circle cx="47178" cy="772" r="163" />
<circle cx="47530" cy="386" r="163" />
<circle cx="47882" cy="16577" r="163" />
<circle cx="48234" cy="24672" r="163" />
<circle cx="48586" cy="12336" r="163" />
<circle cx="48938" cy="6168" r="163" />
<circle cx="49290" cy="3084" r="163" />
<circle cx="49642" cy="1542" r="163" />
<circle cx="49994" cy="17155" r="163" />
<circle cx="50346" cy="8577" r="163" />
<circle cx="50699" cy="20672" r="163" />
<circle cx="51051" cy="10336" r="163" />
<circle cx="51403" cy="5168" r="163" />
<circle cx="51755" cy="2584" r="163" />
<circle cx="52107" cy="1292" r="163" />
<circle cx="52459" cy="646" r="163" />
<circle cx="52811" cy="16707" r="163" />
<circle cx="53163" cy="8353" r="163" />
</g>
</svg>