<svg xmlns="http://www.w3.org/2000/svg" width="161.8" height="100.0" viewBox="-4.3 -5.0 171.8 110.0">
<g fill="none" stroke="black" stroke-width="0.1600%" transform="translate(0, 100.0000) scale(3.1250, -3.1250)">
<circle cx="0.2" cy="0.0" r="0.2" />
<circle cx="0.4" cy="0.0" r="0.2" />
<circle cx="0.6" cy="1.0" r="0.2" />
<circle cx="0.9" cy="2.0" r="0.2" />
<circle cx="1.1" cy="3.0" r="0.2" />
<circle cx="1.3" cy="3.0" r="0.2" />
<circle cx="1.5" cy="2.0" r="0.2" />
<circle cx="1.7" cy="1.0" r="0.2" />
<circle cx="1.9" cy="0.0" r="0.2" />
<circle cx="2.1" cy="0.0" r="0.2" />
<circle cx="2.3" cy="1.0" r="0.2" />
<circle cx="2.6" cy="1.0" r="0.2" />
<circle cx="2.8" cy="0.0" r="0.2" />
<circle cx="3.0" cy="0.0" r="0.2" />
<circle cx="3.2" cy="1.0" r="0.2" />
<circle cx="3.4" cy="2.0" r="0.2" />
<circle cx="3.6" cy="2.0" r="0.2" />
<circle cx="3.8" cy="3.0" r="0.2" />
<circle cx="4.0" cy="4.0" r="0.2" />
<circle cx="4.3" cy="5.0" r="0.2" />
<circle cx="4.5" cy="5.0" r="0.2" />
<circle cx="4.7" cy="4.0" r="0.2" />
<circle cx="4.9" cy="4.0" r="0.2" />
<circle cx="5.1" cy="5.0" r="0.2" />
<circle cx="5.3" cy="6.0" r="0.2" />
<circle cx="5.5" cy="6.0" r="0.2" />
<circle cx="5.8" cy="7.0" r="0.2" />
<circle cx="6.0" cy="8.0" r="0.2" />
<circle cx="6.2" cy="9.0" r="0.2" />
<circle cx="6.4" cy="9.0" r="0.2" />
<circle cx="6.6" cy="8.0" r="0.2" />
<circle cx="6.8" cy="8.0" r="0.2" />
<circle cx="7.0" cy="9.0" r="0.2" />
<circle cx="7.2" cy="10.0" r="0.2" />
<circle cx="7.5" cy="10.0" r="0.2" />
<circle cx="7.7" cy="11.0" r="0.2" />
<circle cx="7.9" cy="12.0" r="0.2" />
<circle cx="8.1" cy="12.0" r="0.2" />
<circle cx="8.3" cy="13.0" r="0.2" />
<circle cx="8.5" cy="14.0" r="0.2" />
<circle cx="8.7" cy="15.0" r="0.2" />
<circle cx="8.9" cy="15.0" r="0.2" />
<circle cx="9.2" cy="14.0" r="0.2" />
<circle cx="9.4" cy="13.0" r="0.2" />
<circle cx="9.6" cy="12.0" r="0.2" />
<circle cx="9.8" cy="12.0" r="0.2" />
<circle cx="10.0" cy="11.0" r="0.2" />
<circle cx="10.2" cy="10.0" r="0.2" />
<circle cx="10.4" cy="10.0" r="0.2" />
<circle cx="10.7" cy="9.0" r="0.2" />
<circle cx="10.9" cy="8.0" r="0.2" />
<circle cx="11.1" cy="8.0" r="0.2" />
<circle cx="11.3" cy="9.0" r="0.2" />
<circle cx="11.5" cy="9.0" r="0.2" />
<circle cx="11.7" cy="8.0" r="0.2" />
<circle cx="11.9" cy="7.0" r="0.2" />
<circle cx="12.1" cy="6.0" r="0.2" />
<circle cx="12.4" cy="6.0" r="0.2" />
<circle cx="12.6" cy="5.0" r="0.2" />
<circle cx="12.8" cy="4.0" r="0.2" />
<circle cx="13.0" cy="4.0" r="0.2" />
<circle cx="13.2" cy="5.0" r="0.2" />
<circle cx="13.4" cy="5.0" r="0.2" />
<circle cx="13.6" cy="4.0" r="0.2" />
<circle cx="13.8" cy="3.0" r="0.2" />
<circle cx="14.1" cy="2.0" r="0.2" />
<circle cx="14.3" cy="2.0" r="0.2" />
<circle cx="14.5" cy="1.0" r="0.2" />
<circle cx="14.7" cy="0.0" r="0.2" />
<circle cx="14.9" cy="0.0" r="0.2" />
<circle cx="15.1" cy="1.0" r="0.2" />
<circle cx="15.3" cy="1.0" r="0.2" />
<circle cx="15.6" cy="0.0" r="0.2" />
<circle cx="15.8" cy="0.0" r="0.2" />
<circle cx="16.0" cy="1.0" r="0.2" />
<circle cx="16.2" cy="2.0" r="0.2" />
<circle cx="16.4" cy="3.0" r="0.2" />
<circle cx="16.6" cy="3.0" r="0.2" />
<circle cx="16.8" cy="2.0" r="0.2" />
<circle cx="17.0" cy="1.0" r="0.2" />
<circle cx="17.3" cy="0.0" r="0.2" />
<circle cx="17.5" cy="0.0" r="0.2" />
<circle cx="17.7" cy="1.0" r="0.2" />
<circle cx="17.9" cy="1.0" r="0.2" />
<circle cx="18.1" cy="0.0" r="0.2" />
<circle cx="18.3" cy="0.0" r="0.2" />
<circle cx="18.5" cy="1.0" r="0.2" />
<circle cx="18.8" cy="2.0" r="0.2" />
<circle cx="19.0" cy="2.0" r="0.2" />
<circle cx="19.2" cy="3.0" r="0.2" />
<circle cx="19.4" cy="4.0" r="0.2" />
<circle cx="19.6" cy="4.0" r="0.2" />
<circle cx="19.8" cy="5.0" r="0.2" />
<circle cx="20.0" cy="6.0" r="0.2" />
<circle cx="20.2" cy="7.0" r="0.2" />
<circle cx="20.5" cy="7.0" r="0.2" />
<circle cx="20.7" cy="6.0" r="0.2" />
<circle cx="20.9" cy="5.0" r="0.2" />
<circle cx="21.1" cy="4.0" r="0.2" />
<circle cx="21.3" cy="4.0" r="0.2" />
<circle cx="21.5" cy="3.0" r="0.2" />
<circle cx="21.7" cy="2.0" r="0.2" />
<circle cx="21.9" cy="2.0" r="0.2" />
<circle cx="22.2" cy="1.0" r="0.2" />
<circle cx="22.4" cy="0.0" r="0.2" />
<circle cx="22.6" cy="0.0" r="0.2" />
<circle cx="22.8" cy="1.0" r="0.2" />
<circle cx="23.0" cy="1.0" r="0.2" />
<circle cx="23.2" cy="0.0" r="0.2" />
<circle cx="23.4" cy="0.0" r="0.2" />
<circle cx="23.7" cy="1.0" r="0.2" />
<circle cx="23.9" cy="2.0" r="0.2" />
<circle cx="24.1" cy="3.0" r="0.2" />
<circle cx="24.3" cy="3.0" r="0.2" />
<circle cx="24.5" cy="2.0" r="0.2" />
<circle cx="24.7" cy="1.0" r="0.2" />
<circle cx="24.9" cy="0.0" r="0.2" />
<circle cx="25.1" cy="0.0" r="0.2" />
<circle cx="25.4" cy="1.0" r="0.2" />
<circle cx="25.6" cy="1.0" r="0.2" />
<circle cx="25.8" cy="0.0" r="0.2" />
<circle cx="26.0" cy="0.0" r="0.2" />
<circle cx="26.2" cy="1.0" r="0.2" />
<circle cx="26.4" cy="2.0" r="0.2" />
<circle cx="26.6" cy="2.0" r="0.2" />
<circle cx="26.8" cy="3.0" r="0.2" />
<circle cx="27.1" cy="4.0" r="0.2" />
<circle cx="27.3" cy="5.0" r="0.2" />
<circle cx="27.5" cy="5.0" r="0.2" />
<circle cx="27.7" cy="4.0" r="0.2" />
<circle cx="27.9" cy="4.0" r="0.2" />
<circle cx="28.1" cy="5.0" r="0.2" />
<circle cx="28.3" cy="6.0" r="0.2" />
<circle cx="28.6" cy="6.0" r="0.2" />
<circle cx="28.8" cy="7.0" r="0.2" />
<circle cx="29.0" cy="8.0" r="0.2" />
<circle cx="29.2" cy="8.0" r="0.2" />
<circle cx="29.4" cy="9.0" r="0.2" />
<circle cx="29.6" cy="10.0" r="0.2" />
<circle cx="29.8" cy="11.0" r="0.2" />
<circle cx="30.0" cy="11.0" r="0.2" />
<circle cx="30.3" cy="10.0" r="0.2" />
<circle cx="30.5" cy="9.0" r="0.2" />
<circle cx="30.7" cy="8.0" r="0.2" />
<circle cx="30.9" cy="8.0" r="0.2" />
<circle cx="31.1" cy="9.0" r="0.2" />
<circle cx="31.3" cy="9.0" r="0.2" />
<circle cx="31.5" cy="8.0" r="0.2" />
<circle cx="31.7" cy="8.0" r="0.2" />
<circle cx="32.0" cy="9.0" r="0.2" />
<circle cx="32.2" cy="10.0" r="0.2" />
<circle cx="32.4" cy="10.0" r="0.2" />
<circle cx="32.6" cy="11.0" r="0.2" />
<circle cx="32.8" cy="12.0" r="0.2" />
<circle cx="33.0" cy="13.0" r="0.2" />
<circle cx="33.2" cy="13.0" r="0.2" />
<circle cx="33.5" cy="12.0" r="0.2" />
<circle cx="33.7" cy="12.0" r="0.2" />
<circle cx="33.9" cy="13.0" r="0.2" />
<circle cx="34.1" cy="14.0" r="0.2" />
<circle cx="34.3" cy="14.0" r="0.2" />
<circle cx="34.5" cy="15.0" r="0.2" />
<circle cx="34.7" cy="16.0" r="0.2" />
<circle cx="34.9" cy="17.0" r="0.2" />
<circle cx="35.2" cy="17.0" r="0.2" />
<circle cx="35.4" cy="16.0" r="0.2" />
<circle cx="35.6" cy="16.0" r="0.2" />
<circle cx="35.8" cy="17.0" r="0.2" />
<circle cx="36.0" cy="18.0" r="0.2" />
<circle cx="36.2" cy="18.0" r="0.2" />
<circle cx="36.4" cy="19.0" r="0.2" />
<circle cx="36.6" cy="20.0" r="0.2" />
<circle cx="36.9" cy="20.0" r="0.2" />
<circle cx="37.1" cy="21.0" r="0.2" />
<circle cx="37.3" cy="22.0" r="0.2" />
<circle cx="37.5" cy="23.0" r="0.2" />
<circle cx="37.7" cy="23.0" r="0.2" />
<circle cx="37.9" cy="22.0" r="0.2" />
<circle cx="38.1" cy="21.0" r="0.2" />
<circle cx="38.4" cy="20.0" r="0.2" />
<circle cx="38.6" cy="20.0" r="0.2" />
<circle cx="38.8" cy="19.0" r="0.2" />
<circle cx="39.0" cy="18.0" r="0.2" />
<circle cx="39.2" cy="18.0" r="0.2" />
<circle cx="39.4" cy="17.0" r="0.2" />
<circle cx="39.6" cy="16.0" r="0.2" />
<circle cx="39.8" cy="16.0" r="0.2" />
<circle cx="40.1" cy="17.0" r="0.2" />
<circle cx="40.3" cy="17.0" r="0.2" />
<circle cx="40.5" cy="16.0" r="0.2" />
<circle cx="40.7" cy="16.0" r="0.2" />
<circle cx="40.9" cy="17.0" r="0.2" />
<circle cx="41.1" cy="18.0" r="0.2" />
<circle cx="41.3" cy="19.0" r="0.2" />
<circle cx="41.5" cy="19.0" r="0.2" />
<circle cx="41.8" cy="18.0" r="0.2" />
<circle cx="42.0" cy="17.0" r="0.2" />
<circle cx="42.2" cy="16.0" r="0.2" />
<circle cx="42.4" cy="16.0" r="0.2" />
<circle cx="42.6" cy="17.0" r="0.2" />
<circle cx="42.8" cy="17.0" r="0.2" />
<circle cx="43.0" cy="16.0" r="0.2" />
<circle cx="43.3" cy="16.0" r="0.2" />
<circle cx="43.5" cy="17.0" r="0.2" />
<circle cx="43.7" cy="18.0" r="0.2" />
<circle cx="43.9" cy="18.0" r="0.2" />
<circle cx="44.1" cy="19.0" r="0.2" />
<circle cx="44.3" cy="20.0" r="0.2" />
<circle cx="44.5" cy="21.0" r="0.2" />
<circle cx="44.7" cy="21.0" r="0.2" />
<circle cx="45.0" cy="20.0" r="0.2" />
<circle cx="45.2" cy="20.0" r="0.2" />
<circle cx="45.4" cy="21.0" r="0.2" />
<circle cx="45.6" cy="22.0" r="0.2" />
<circle cx="45.8" cy="22.0" r="0.2" />
<circle cx="46.0" cy="23.0" r="0.2" />
<circle cx="46.2" cy="24.0" r="0.2" />
<circle cx="46.5" cy="24.0" r="0.2" />
<circle cx="46.7" cy="25.0" r="0.2" />
<circle cx="46.9" cy="26.0" r="0.2" />
<circle cx="47.1" cy="27.0" r="0.2" />
<circle cx="47.3" cy="27.0" r="0.2" />
<circle cx="47.5" cy="26.0" r="0.2" />
<circle cx="47.7" cy="25.0" r="0.2" />
<circle cx="47.9" cy="24.0" r="0.2" />
<circle cx="48.2" cy="24.0" r="0.2" />
<circle cx="48.4" cy="25.0" r="0.2" />
<circle cx="48.6" cy="25.0" r="0.2" />
<circle cx="48.8" cy="24.0" r="0.2" />
<circle cx="49.0" cy="24.0" r="0.2" />
<circle cx="49.2" cy="25.0" r="0.2" />
<circle cx="49.4" cy="26.0" r="0.2" />
<circle cx="49.6" cy="26.0" r="0.2" />
<circle cx="49.9" cy="27.0" r="0.2" />
<circle cx="50.1" cy="28.0" r="0.2" />
<circle cx="50.3" cy="29.0" r="0.2" />
<circle cx="50.5" cy="29.0" r="0.2" />
<circle cx="50.7" cy="28.0" r="0.2" />
<circle cx="50.9" cy="28.0" r="0.2" />
<circle cx="51.1" cy="29.0" r="0.2" />
<circle cx="51.4" cy="30.0" r="0.2" />
<circle cx="51.6" cy="30.0" r="0.2" />
<circle cx="51.8" cy="31.0" r="0.2" />
<circle cx="52.0" cy="32.0" r="0.2" />
</g>
</svg>