<svg xmlns="http://www.w3.org/2000/svg" width="115.5" height="100.0" viewBox="-5.00 -5.00 125.47 110.00">
<g fill="none" stroke="black" stroke-width="0.0693%" transform="translate(0, 100.0000) scale(7.2169, -7.2169)">
<polyline points="0.00,0.00 1.00,0.00 2.00,0.00 3.00,0.00 4.00,0.00 5.00,0.00 6.00,0.00 7.00,0.00 8.00,0.00 7.50,0.87 7.00,1.73 6.50,2.60 6.00,3.46 5.50,2.60 5.00,1.73 6.00,1.73 7.00,1.73 6.50,0.87 6.00,-0.00 5.50,0.87 5.00,1.73 4.50,0.87 4.00,-0.00 3.50,0.87 3.00,1.73 2.50,0.87 2.00,-0.00 1.50,0.87 1.00,1.73 2.00,1.73 3.00,1.73 2.50,2.60 2.00,3.46 3.00,3.46 4.00,3.46 3.50,4.33 3.00,5.20 4.00,5.20 5.00,5.20 4.50,4.33 4.00,3.46 5.00,3.46 6.00,3.46 5.50,4.33 5.00,5.20 4.50,6.06 4.00,6.93 5.00,6.93 6.00,6.93 7.00,6.93 8.00,6.93 7.50,7.79 7.00,8.66 6.50,7.79 6.00,6.93 5.50,7.79 5.00,8.66 6.00,8.66 7.00,8.66 6.50,9.53 6.00,10.39 7.00,10.39 8.00,10.39 7.50,11.26 7.00,12.12 8.00,12.12 9.00,12.12 8.50,11.26 8.00,10.39 9.00,10.39 10.00,10.39 9.50,9.53 9.00,8.66 10.00,8.66 11.00,8.66 10.50,7.79 10.00,6.93 9.50,7.79 9.00,8.66 8.50,7.79 8.00,6.93 9.00,6.93 10.00,6.93 11.00,6.93 12.00,6.93 11.50,6.06 11.00,5.20 10.50,4.33 10.00,3.46 11.00,3.46 12.00,3.46 11.50,4.33 11.00,5.20 12.00,5.20 13.00,5.20 12.50,4.33 12.00,3.46 13.00,3.46 14.00,3.46 13.50,2.60 13.00,1.73 14.00,1.73 15.00,1.73 14.50,0.87 14.00,-0.00 13.50,0.87 13.00,1.73 12.50,0.87 12.00,-0.00 11.50,0.87 11.00,1.73 10.50,0.87 10.00,-0.00 9.50,0.87 9.00,1.73 10.00,1.73 11.00,1.73 10.50,2.60 10.00,3.46 9.50,2.60 9.00,1.73 8.50,0.87 8.00,-0.00 9.00,-0.00 10.00,-0.00 11.00,-0.00 12.00,-0.00 13.00,-0.00 14.00,-0.00 15.00,-0.00 16.00,-0.00 15.50,0.87 15.00,1.73 14.50,2.60 14.00,3.46 13.50,4.33 13.00,5.20 12.50,6.06 12.00,6.93 11.50,7.79 11.00,8.66 10.50,9.53 10.00,10.39 9.50,11.26 9.00,12.12 8.50,12.99 8.00,13.86 7.50,12.99 7.00,12.12 6.50,11.26 6.00,10.39 5.50,9.53 5.00,8.66 4.50,7.79 4.00,6.93 3.50,6.06 3.00,5.20 2.50,4.33 2.00,3.46 1.50,2.60 1.00,1.73 0.50,0.87 -0.00,0.00" />
</g>
</svg>