<svg xmlns="http://www.w3.org/2000/svg" width="113.7" height="100.0" viewBox="-5.00 -105.00 123.67 110.00">
<g fill="none" stroke="black" stroke-width="0.1386%" transform="translate(0, -100.0000) scale(3.6084, -3.6084)">
<polyline points="0.00,0.00 1.00,0.00 1.50,-0.87 1.00,-1.73 1.50,-2.60 2.50,-2.60 3.00,-1.73 2.50,-0.87 3.00,-0.00 4.00,-0.00 4.50,-0.87 5.50,-0.87 6.00,-0.00 7.00,-0.00 7.50,-0.87 7.00,-1.73 6.00,-1.73 5.50,-2.60 6.00,-3.46 5.50,-4.33 4.50,-4.33 4.00,-3.46 3.00,-3.46 2.50,-4.33 3.00,-5.20 4.00,-5.20 4.50,-6.06 4.00,-6.93 4.50,-7.79 5.50,-7.79 6.00,-6.93 7.00,-6.93 7.50,-7.79 7.00,-8.66 6.00,-8.66 5.50,-9.53 6.00,-10.39 7.00,-10.39 7.50,-11.26 7.00,-12.12 7.50,-12.99 8.50,-12.99 9.00,-12.12 8.50,-11.26 9.00,-10.39 10.00,-10.39 10.50,-9.53 10.00,-8.66 9.00,-8.66 8.50,-7.79 9.00,-6.93 10.00,-6.93 10.50,-7.79 11.50,-7.79 12.00,-6.93 11.50,-6.06 12.00,-5.20 13.00,-5.20 13.50,-4.33 13.00,-3.46 12.00,-3.46 11.50,-4.33 10.50,-4.33 10.00,-3.46 10.50,-2.60 10.00,-1.73 9.00,-1.73 8.50,-0.87 9.00,-0.00 10.00,-0.00 10.50,-0.87 11.50,-0.87 12.00,-0.00 13.00,-0.00 13.50,-0.87 13.00,-1.73 13.50,-2.60 14.50,-2.60 15.00,-1.73 14.50,-0.87 15.00,-0.00 16.00,-0.00 16.50,-0.87 17.50,-0.87 18.00,-0.00 19.00,-0.00 19.50,-0.87 19.00,-1.73 18.00,-1.73 17.50,-2.60 18.00,-3.46 19.00,-3.46 19.50,-4.33 19.00,-5.20 19.50,-6.06 20.50,-6.06 21.00,-5.20 20.50,-4.33 21.00,-3.46 22.00,-3.46 22.50,-2.60 22.00,-1.73 21.00,-1.73 20.50,-0.87 21.00,-0.00 22.00,-0.00 22.50,-0.87 23.50,-0.87 24.00,-0.00 25.00,-0.00 25.50,-0.87 25.00,-1.73 25.50,-2.60 26.50,-2.60 27.00,-1.73 26.50,-0.87 27.00,-0.00 28.00,-0.00 28.50,-0.87 29.50,-0.87 30.00,-0.00 31.00,-0.00 31.50,-0.87 31.00,-1.73 30.00,-1.73 29.50,-2.60 30.00,-3.46 29.50,-4.33 28.50,-4.33 28.00,-3.46 27.00,-3.46 26.50,-4.33 27.00,-5.20 28.00,-5.20 28.50,-6.06 28.00,-6.93 27.00,-6.93 26.50,-7.79 27.00,-8.66 26.50,-9.53 25.50,-9.53 25.00,-8.66 25.50,-7.79 25.00,-6.93 24.00,-6.93 23.50,-7.79 22.50,-7.79 22.00,-6.93 21.00,-6.93 20.50,-7.79 21.00,-8.66 22.00,-8.66 22.50,-9.53 22.00,-10.39 22.50,-11.26 23.50,-11.26 24.00,-10.39 25.00,-10.39 25.50,-11.26 25.00,-12.12 24.00,-12.12 23.50,-12.99 24.00,-13.86 23.50,-14.72 22.50,-14.72 22.00,-13.86 21.00,-13.86 20.50,-14.72 21.00,-15.59 22.00,-15.59 22.50,-16.45 22.00,-17.32 21.00,-17.32 20.50,-18.19 21.00,-19.05 20.50,-19.92 19.50,-19.92 19.00,-19.05 19.50,-18.19 19.00,-17.32 18.00,-17.32 17.50,-16.45 18.00,-15.59 19.00,-15.59 19.50,-14.72 19.00,-13.86 18.00,-13.86 17.50,-14.72 16.50,-14.72 16.00,-13.86 15.00,-13.86 14.50,-14.72 15.00,-15.59 14.50,-16.45 13.50,-16.45 13.00,-15.59 13.50,-14.72 13.00,-13.86 12.00,-13.86 11.50,-14.72 10.50,-14.72 10.00,-13.86 9.00,-13.86 8.50,-14.72 9.00,-15.59 10.00,-15.59 10.50,-16.45 10.00,-17.32 10.50,-18.19 11.50,-18.19 12.00,-17.32 13.00,-17.32 13.50,-18.19 13.00,-19.05 12.00,-19.05 11.50,-19.92 12.00,-20.78 13.00,-20.78 13.50,-21.65 13.00,-22.52 13.50,-23.38 14.50,-23.38 15.00,-22.52 14.50,-21.65 15.00,-20.78 16.00,-20.78 16.50,-21.65 17.50,-21.65 18.00,-20.78 19.00,-20.78 19.50,-21.65 19.00,-22.52 18.00,-22.52 17.50,-23.38 18.00,-24.25 17.50,-25.11 16.50,-25.11 16.00,-24.25 15.00,-24.25 14.50,-25.11 15.00,-25.98 16.00,-25.98 16.50,-26.85 16.00,-27.71" />
</g>
</svg>