<svg xmlns="http://www.w3.org/2000/svg" width="161.8" height="100.0" viewBox="-4.33 -5.00 171.80 110.00">
<g fill="none" stroke="black" stroke-width="0.1550%" transform="translate(0, 100.0000) scale(3.2258, -3.2258)">
<circle cx="0.21" cy="0.00" r="0.15" />
<circle cx="0.41" cy="1.00" r="0.15" />
<circle cx="0.62" cy="1.00" r="0.15" />
<circle cx="0.83" cy="0.00" r="0.15" />
<circle cx="1.03" cy="0.00" r="0.15" />
<circle cx="1.24" cy="1.00" r="0.15" />
<circle cx="1.44" cy="2.00" r="0.15" />
<circle cx="1.65" cy="2.00" r="0.15" />
<circle cx="1.86" cy="3.00" r="0.15" />
<circle cx="2.06" cy="4.00" r="0.15" />
<circle cx="2.27" cy="4.00" r="0.15" />
<circle cx="2.48" cy="5.00" r="0.15" />
<circle cx="2.68" cy="6.00" r="0.15" />
<circle cx="2.89" cy="7.00" r="0.15" />
<circle cx="3.10" cy="7.00" r="0.15" />
<circle cx="3.30" cy="6.00" r="0.15" />
<circle cx="3.51" cy="5.00" r="0.15" />
<circle cx="3.72" cy="4.00" r="0.15" />
<circle cx="3.92" cy="4.00" r="0.15" />
<circle cx="4.13" cy="3.00" r="0.15" />
<circle cx="4.33" cy="2.00" r="0.15" />
<circle cx="4.54" cy="2.00" r="0.15" />
<circle cx="4.75" cy="1.00" r="0.15" />
<circle cx="4.95" cy="0.00" r="0.15" />
<circle cx="5.16" cy="0.00" r="0.15" />
<circle cx="5.37" cy="1.00" r="0.15" />
<circle cx="5.57" cy="1.00" r="0.15" />
<circle cx="5.78" cy="0.00" r="0.15" />
<circle cx="5.99" cy="0.00" r="0.15" />
<circle cx="6.19" cy="1.00" r="0.15" />
<circle cx="6.40" cy="2.00" r="0.15" />
<circle cx="6.61" cy="3.00" r="0.15" />
<circle cx="6.81" cy="3.00" r="0.15" />
<circle cx="7.02" cy="2.00" r="0.15" />
<circle cx="7.22" cy="1.00" r="0.15" />
<circle cx="7.43" cy="0.00" r="0.15" />
<circle cx="7.64" cy="0.00" r="0.15" />
<circle cx="7.84" cy="1.00" r="0.15" />
<circle cx="8.05" cy="1.00" r="0.15" />
<circle cx="8.26" cy="0.00" r="0.15" />
<circle cx="8.46" cy="0.00" r="0.15" />
<circle cx="8.67" cy="1.00" r="0.15" />
<circle cx="8.88" cy="2.00" r="0.15" />
<circle cx="9.08" cy="2.00" r="0.15" />
<circle cx="9.29" cy="3.00" r="0.15" />
<circle cx="9.50" cy="4.00" r="0.15" />
<circle cx="9.70" cy="5.00" r="0.15" />
<circle cx="9.91" cy="5.00" r="0.15" />
<circle cx="10.11" cy="4.00" r="0.15" />
<circle cx="10.32" cy="4.00" r="0.15" />
<circle cx="10.53" cy="5.00" r="0.15" />
<circle cx="10.73" cy="6.00" r="0.15" />
<circle cx="10.94" cy="6.00" r="0.15" />
<circle cx="11.15" cy="7.00" r="0.15" />
<circle cx="11.35" cy="8.00" r="0.15" />
<circle cx="11.56" cy="8.00" r="0.15" />
<circle cx="11.77" cy="9.00" r="0.15" />
<circle cx="11.97" cy="10.00" r="0.15" />
<circle cx="12.18" cy="11.00" r="0.15" />
<circle cx="12.38" cy="11.00" r="0.15" />
<circle cx="12.59" cy="10.00" r="0.15" />
<circle cx="12.80" cy="9.00" r="0.15" />
<circle cx="13.00" cy="8.00" r="0.15" />
<circle cx="13.21" cy="8.00" r="0.15" />
<circle cx="13.42" cy="9.00" r="0.15" />
<circle cx="13.62" cy="9.00" r="0.15" />
<circle cx="13.83" cy="8.00" r="0.15" />
<circle cx="14.04" cy="8.00" r="0.15" />
<circle cx="14.24" cy="9.00" r="0.15" />
<circle cx="14.45" cy="10.00" r="0.15" />
<circle cx="14.66" cy="10.00" r="0.15" />
<circle cx="14.86" cy="11.00" r="0.15" />
<circle cx="15.07" cy="12.00" r="0.15" />
<circle cx="15.27" cy="13.00" r="0.15" />
<circle cx="15.48" cy="13.00" r="0.15" />
<circle cx="15.69" cy="12.00" r="0.15" />
<circle cx="15.89" cy="12.00" r="0.15" />
<circle cx="16.10" cy="13.00" r="0.15" />
<circle cx="16.31" cy="14.00" r="0.15" />
<circle cx="16.51" cy="14.00" r="0.15" />
<circle cx="16.72" cy="15.00" r="0.15" />
<circle cx="16.93" cy="16.00" r="0.15" />
<circle cx="17.13" cy="16.00" r="0.15" />
<circle cx="17.34" cy="17.00" r="0.15" />
<circle cx="17.55" cy="18.00" r="0.15" />
<circle cx="17.75" cy="19.00" r="0.15" />
<circle cx="17.96" cy="19.00" r="0.15" />
<circle cx="18.16" cy="18.00" r="0.15" />
<circle cx="18.37" cy="17.00" r="0.15" />
<circle cx="18.58" cy="16.00" r="0.15" />
<circle cx="18.78" cy="16.00" r="0.15" />
<circle cx="18.99" cy="17.00" r="0.15" />
<circle cx="19.20" cy="17.00" r="0.15" />
<circle cx="19.40" cy="16.00" r="0.15" />
<circle cx="19.61" cy="16.00" r="0.15" />
<circle cx="19.82" cy="17.00" r="0.15" />
<circle cx="20.02" cy="18.00" r="0.15" />
<circle cx="20.23" cy="18.00" r="0.15" />
<circle cx="20.44" cy="19.00" r="0.15" />
<circle cx="20.64" cy="20.00" r="0.15" />
<circle cx="20.85" cy="21.00" r="0.15" />
<circle cx="21.05" cy="21.00" r="0.15" />
<circle cx="21.26" cy="20.00" r="0.15" />
<circle cx="21.47" cy="20.00" r="0.15" />
<circle cx="21.67" cy="21.00" r="0.15" />
<circle cx="21.88" cy="22.00" r="0.15" />
<circle cx="22.09" cy="22.00" r="0.15" />
<circle cx="22.29" cy="23.00" r="0.15" />
<circle cx="22.50" cy="24.00" r="0.15" />
<circle cx="22.71" cy="25.00" r="0.15" />
<circle cx="22.91" cy="25.00" r="0.15" />
<circle cx="23.12" cy="24.00" r="0.15" />
<circle cx="23.32" cy="24.00" r="0.15" />
<circle cx="23.53" cy="25.00" r="0.15" />
<circle cx="23.74" cy="26.00" r="0.15" />
<circle cx="23.94" cy="26.00" r="0.15" />
<circle cx="24.15" cy="27.00" r="0.15" />
<circle cx="24.36" cy="28.00" r="0.15" />
<circle cx="24.56" cy="28.00" r="0.15" />
<circle cx="24.77" cy="29.00" r="0.15" />
<circle cx="24.98" cy="30.00" r="0.15" />
<circle cx="25.18" cy="31.00" r="0.15" />
<circle cx="25.39" cy="31.00" r="0.15" />
<circle cx="25.60" cy="30.00" r="0.15" />
<circle cx="25.80" cy="29.00" r="0.15" />
<circle cx="26.01" cy="28.00" r="0.15" />
<circle cx="26.21" cy="28.00" r="0.15" />
<circle cx="26.42" cy="27.00" r="0.15" />
<circle cx="26.63" cy="26.00" r="0.15" />
<circle cx="26.83" cy="26.00" r="0.15" />
<circle cx="27.04" cy="25.00" r="0.15" />
<circle cx="27.25" cy="24.00" r="0.15" />
<circle cx="27.45" cy="24.00" r="0.15" />
<circle cx="27.66" cy="25.00" r="0.15" />
<circle cx="27.87" cy="25.00" r="0.15" />
<circle cx="28.07" cy="24.00" r="0.15" />
<circle cx="28.28" cy="23.00" r="0.15" />
<circle cx="28.49" cy="22.00" r="0.15" />
<circle cx="28.69" cy="22.00" r="0.15" />
<circle cx="28.90" cy="21.00" r="0.15" />
<circle cx="29.10" cy="20.00" r="0.15" />
<circle cx="29.31" cy="20.00" r="0.15" />
<circle cx="29.52" cy="21.00" r="0.15" />
<circle cx="29.72" cy="21.00" r="0.15" />
<circle cx="29.93" cy="20.00" r="0.15" />
<circle cx="30.14" cy="19.00" r="0.15" />
<circle cx="30.34" cy="18.00" r="0.15" />
<circle cx="30.55" cy="18.00" r="0.15" />
<circle cx="30.76" cy="17.00" r="0.15" />
<circle cx="30.96" cy="16.00" r="0.15" />
<circle cx="31.17" cy="16.00" r="0.15" />
<circle cx="31.38" cy="17.00" r="0.15" />
<circle cx="31.58" cy="17.00" r="0.15" />
<circle cx="31.79" cy="16.00" r="0.15" />
<circle cx="31.99" cy="16.00" r="0.15" />
<circle cx="32.20" cy="17.00" r="0.15" />
<circle cx="32.41" cy="18.00" r="0.15" />
<circle cx="32.61" cy="19.00" r="0.15" />
<circle cx="32.82" cy="19.00" r="0.15" />
<circle cx="33.03" cy="18.00" r="0.15" />
<circle cx="33.23" cy="17.00" r="0.15" />
<circle cx="33.44" cy="16.00" r="0.15" />
<circle cx="33.65" cy="16.00" r="0.15" />
<circle cx="33.85" cy="15.00" r="0.15" />
<circle cx="34.06" cy="14.00" r="0.15" />
<circle cx="34.27" cy="14.00" r="0.15" />
<circle cx="34.47" cy="13.00" r="0.15" />
<circle cx="34.68" cy="12.00" r="0.15" />
<circle cx="34.88" cy="12.00" r="0.15" />
<circle cx="35.09" cy="13.00" r="0.15" />
<circle cx="35.30" cy="13.00" r="0.15" />
<circle cx="35.50" cy="12.00" r="0.15" />
<circle cx="35.71" cy="11.00" r="0.15" />
<circle cx="35.92" cy="10.00" r="0.15" />
<circle cx="36.12" cy="10.00" r="0.15" />
<circle cx="36.33" cy="9.00" r="0.15" />
<circle cx="36.54" cy="8.00" r="0.15" />
<circle cx="36.74" cy="8.00" r="0.15" />
<circle cx="36.95" cy="9.00" r="0.15" />
<circle cx="37.15" cy="9.00" r="0.15" />
<circle cx="37.36" cy="8.00" r="0.15" />
<circle cx="37.57" cy="8.00" r="0.15" />
<circle cx="37.77" cy="9.00" r="0.15" />
<circle cx="37.98" cy="10.00" r="0.15" />
<circle cx="38.19" cy="11.00" r="0.15" />
<circle cx="38.39" cy="11.00" r="0.15" />
<circle cx="38.60" cy="10.00" r="0.15" />
<circle cx="38.81" cy="9.00" r="0.15" />
<circle cx="39.01" cy="8.00" r="0.15" />
<circle cx="39.22" cy="8.00" r="0.15" />
<circle cx="39.43" cy="7.00" r="0.15" />
<circle cx="39.63" cy="6.00" r="0.15" />
<circle cx="39.84" cy="6.00" r="0.15" />
<circle cx="40.04" cy="5.00" r="0.15" />
<circle cx="40.25" cy="4.00" r="0.15" />
<circle cx="40.46" cy="4.00" r="0.15" />
<circle cx="40.66" cy="5.00" r="0.15" />
<circle cx="40.87" cy="5.00" r="0.15" />
<circle cx="41.08" cy="4.00" r="0.15" />
<circle cx="41.28" cy="3.00" r="0.15" />
<circle cx="41.49" cy="2.00" r="0.15" />
<circle cx="41.70" cy="2.00" r="0.15" />
<circle cx="41.90" cy="1.00" r="0.15" />
<circle cx="42.11" cy="0.00" r="0.15" />
<circle cx="42.32" cy="0.00" r="0.15" />
<circle cx="42.52" cy="1.00" r="0.15" />
<circle cx="42.73" cy="1.00" r="0.15" />
<circle cx="42.93" cy="0.00" r="0.15" />
<circle cx="43.14" cy="0.00" r="0.15" />
<circle cx="43.35" cy="1.00" r="0.15" />
<circle cx="43.55" cy="2.00" r="0.15" />
<circle cx="43.76" cy="3.00" r="0.15" />
<circle cx="43.97" cy="3.00" r="0.15" />
<circle cx="44.17" cy="2.00" r="0.15" />
<circle cx="44.38" cy="1.00" r="0.15" />
<circle cx="44.59" cy="0.00" r="0.15" />
<circle cx="44.79" cy="0.00" r="0.15" />
<circle cx="45.00" cy="1.00" r="0.15" />
<circle cx="45.21" cy="1.00" r="0.15" />
<circle cx="45.41" cy="0.00" r="0.15" />
<circle cx="45.62" cy="0.00" r="0.15" />
<circle cx="45.82" cy="1.00" r="0.15" />
<circle cx="46.03" cy="2.00" r="0.15" />
<circle cx="46.24" cy="2.00" r="0.15" />
<circle cx="46.44" cy="3.00" r="0.15" />
<circle cx="46.65" cy="4.00" r="0.15" />
<circle cx="46.86" cy="4.00" r="0.15" />
<circle cx="47.06" cy="5.00" r="0.15" />
<circle cx="47.27" cy="6.00" r="0.15" />
<circle cx="47.48" cy="7.00" r="0.15" />
<circle cx="47.68" cy="7.00" r="0.15" />
<circle cx="47.89" cy="6.00" r="0.15" />
<circle cx="48.09" cy="5.00" r="0.15" />
<circle cx="48.30" cy="4.00" r="0.15" />
<circle cx="48.51" cy="4.00" r="0.15" />
<circle cx="48.71" cy="3.00" r="0.15" />
<circle cx="48.92" cy="2.00" r="0.15" />
<circle cx="49.13" cy="2.00" r="0.15" />
<circle cx="49.33" cy="1.00" r="0.15" />
<circle cx="49.54" cy="0.00" r="0.15" />
<circle cx="49.75" cy="0.00" r="0.15" />
<circle cx="49.95" cy="1.00" r="0.15" />
<circle cx="50.16" cy="1.00" r="0.15" />
<circle cx="50.37" cy="0.00" r="0.15" />
</g>
</svg>