<svg xmlns="http://www.w3.org/2000/svg" width="161.8" height="100.0" viewBox="-3.6 -55.5 171.8 110.0">
<g fill="none" stroke="black" stroke-width="0.5050%" transform="translate(0, -0.9901) scale(0.9901, -0.9901)">
<line x1="1.4" y1="0.0" x2="1.4" y2="1.0" />
<line x1="2.9" y1="0.0" x2="2.9" y2="2.0" />
<line x1="4.3" y1="0.0" x2="4.3" y2="-1.0" />
<line x1="5.7" y1="0.0" x2="5.7" y2="-2.0" />
<line x1="7.2" y1="0.0" x2="7.2" y2="-3.0" />
<line x1="8.6" y1="0.0" x2="8.6" y2="-6.0" />
<line x1="10.0" y1="0.0" x2="10.0" y2="-6.0" />
<line x1="11.5" y1="0.0" x2="11.5" y2="1.0" />
<line x1="12.9" y1="0.0" x2="12.9" y2="4.0" />
<line x1="14.3" y1="0.0" x2="14.3" y2="3.0" />

<line x1="17.2" y1="0.0" x2="17.2" y2="-5.0" />
<line x1="18.6" y1="0.0" x2="18.6" y2="-10.0" />
<line x1="20.1" y1="0.0" x2="20.1" y2="-8.0" />
<line x1="21.5" y1="0.0" x2="21.5" y2="3.0" />
<line x1="22.9" y1="0.0" x2="22.9" y2="8.0" />
<line x1="24.4" y1="0.0" x2="24.4" y2="5.0" />
<line x1="25.8" y1="0.0" x2="25.8" y2="-2.0" />
<line x1="27.2" y1="0.0" x2="27.2" y2="-9.0" />
<line x1="28.7" y1="0.0" x2="28.7" y2="-12.0" />
<line x1="30.1" y1="0.0" x2="30.1" y2="-6.0" />
<line x1="31.5" y1="0.0" x2="31.5" y2="7.0" />
<line x1="33.0" y1="0.0" x2="33.0" y2="16.0" />
<line x1="34.4" y1="0.0" x2="34.4" y2="10.0" />
<line x1="35.8" y1="0.0" x2="35.8" y2="-9.0" />
<line x1="37.3" y1="0.0" x2="37.3" y2="-18.0" />
<line x1="38.7" y1="0.0" x2="38.7" y2="-11.0" />
<line x1="40.1" y1="0.0" x2="40.1" y2="4.0" />
<line x1="41.6" y1="0.0" x2="41.6" y2="15.0" />
<line x1="43.0" y1="0.0" x2="43.0" y2="14.0" />
<line x1="44.4" y1="0.0" x2="44.4" y2="-2.0" />
<line x1="45.9" y1="0.0" x2="45.9" y2="-16.0" />
<line x1="47.3" y1="0.0" x2="47.3" y2="-20.0" />
<line x1="48.7" y1="0.0" x2="48.7" y2="-3.0" />
<line x1="50.2" y1="0.0" x2="50.2" y2="14.0" />
<line x1="51.6" y1="0.0" x2="51.6" y2="17.0" />
<line x1="53.0" y1="0.0" x2="53.0" y2="6.0" />
<line x1="54.5" y1="0.0" x2="54.5" y2="-12.0" />
<line x1="55.9" y1="0.0" x2="55.9" y2="-24.0" />
<line x1="57.3" y1="0.0" x2="57.3" y2="-11.0" />
<line x1="58.8" y1="0.0" x2="58.8" y2="10.0" />
<line x1="60.2" y1="0.0" x2="60.2" y2="21.0" />
<line x1="61.6" y1="0.0" x2="61.6" y2="14.0" />
<line x1="63.1" y1="0.0" x2="63.1" y2="-8.0" />
<line x1="64.5" y1="0.0" x2="64.5" y2="-22.0" />
<line x1="65.9" y1="0.0" x2="65.9" y2="-20.0" />
<line x1="67.4" y1="0.0" x2="67.4" y2="3.0" />
<line x1="68.8" y1="0.0" x2="68.8" y2="20.0" />
<line x1="70.2" y1="0.0" x2="70.2" y2="17.0" />
<line x1="71.7" y1="0.0" x2="71.7" y2="-2.0" />
<line x1="73.1" y1="0.0" x2="73.1" y2="-21.0" />
<line x1="74.5" y1="0.0" x2="74.5" y2="-24.0" />
<line x1="76.0" y1="0.0" x2="76.0" y2="-6.0" />
<line x1="77.4" y1="0.0" x2="77.4" y2="19.0" />
<line x1="78.8" y1="0.0" x2="78.8" y2="28.0" />
<line x1="80.3" y1="0.0" x2="80.3" y2="10.0" />
<line x1="81.7" y1="0.0" x2="81.7" y2="-21.0" />
<line x1="83.1" y1="0.0" x2="83.1" y2="-36.0" />
<line x1="84.6" y1="0.0" x2="84.6" y2="-18.0" />
<line x1="86.0" y1="0.0" x2="86.0" y2="19.0" />
<line x1="87.4" y1="0.0" x2="87.4" y2="40.0" />
<line x1="88.9" y1="0.0" x2="88.9" y2="22.0" />
<line x1="90.3" y1="0.0" x2="90.3" y2="-21.0" />
<line x1="91.7" y1="0.0" x2="91.7" y2="-42.0" />
<line x1="93.2" y1="0.0" x2="93.2" y2="-23.0" />
<line x1="94.6" y1="0.0" x2="94.6" y2="16.0" />
<line x1="96.0" y1="0.0" x2="96.0" y2="39.0" />
<line x1="97.5" y1="0.0" x2="97.5" y2="26.0" />
<line x1="98.9" y1="0.0" x2="98.9" y2="-14.0" />
<line x1="100.3" y1="0.0" x2="100.3" y2="-40.0" />
<line x1="101.8" y1="0.0" x2="101.8" y2="-32.0" />
<line x1="103.2" y1="0.0" x2="103.2" y2="9.0" />
<line x1="104.6" y1="0.0" x2="104.6" y2="38.0" />
<line x1="106.1" y1="0.0" x2="106.1" y2="29.0" />
<line x1="107.5" y1="0.0" x2="107.5" y2="-8.0" />
<line x1="108.9" y1="0.0" x2="108.9" y2="-39.0" />
<line x1="110.4" y1="0.0" x2="110.4" y2="-36.0" />
<line x1="111.8" y1="0.0" x2="111.8" y2="2.0" />
<line x1="113.2" y1="0.0" x2="113.2" y2="36.0" />
<line x1="114.7" y1="0.0" x2="114.7" y2="38.0" />
<line x1="116.1" y1="0.0" x2="116.1" y2="-1.0" />
<line x1="117.5" y1="0.0" x2="117.5" y2="-38.0" />
<line x1="119.0" y1="0.0" x2="119.0" y2="-39.0" />
<line x1="120.4" y1="0.0" x2="120.4" y2="-6.0" />
<line x1="121.8" y1="0.0" x2="121.8" y2="32.0" />
<line x1="123.3" y1="0.0" x2="123.3" y2="42.0" />
<line x1="124.7" y1="0.0" x2="124.7" y2="7.0" />
<line x1="126.1" y1="0.0" x2="126.1" y2="-34.0" />
<line x1="127.6" y1="0.0" x2="127.6" y2="-43.0" />
<line x1="129.0" y1="0.0" x2="129.0" y2="-14.0" />
<line x1="130.5" y1="0.0" x2="130.5" y2="28.0" />
<line x1="131.9" y1="0.0" x2="131.9" y2="46.0" />
<line x1="133.3" y1="0.0" x2="133.3" y2="15.0" />
<line x1="134.8" y1="0.0" x2="134.8" y2="-30.0" />
<line x1="136.2" y1="0.0" x2="136.2" y2="-47.0" />
<line x1="137.6" y1="0.0" x2="137.6" y2="-22.0" />
<line x1="139.1" y1="0.0" x2="139.1" y2="24.0" />
<line x1="140.5" y1="0.0" x2="140.5" y2="50.0" />
<line x1="141.9" y1="0.0" x2="141.9" y2="23.0" />
<line x1="143.4" y1="0.0" x2="143.4" y2="-26.0" />
<line x1="144.8" y1="0.0" x2="144.8" y2="-51.0" />
<line x1="146.2" y1="0.0" x2="146.2" y2="-30.0" />
<line x1="147.7" y1="0.0" x2="147.7" y2="20.0" />
<line x1="149.1" y1="0.0" x2="149.1" y2="48.0" />
<line x1="150.5" y1="0.0" x2="150.5" y2="32.0" />
<line x1="152.0" y1="0.0" x2="152.0" y2="-19.0" />
<line x1="153.4" y1="0.0" x2="153.4" y2="-50.0" />
<line x1="154.8" y1="0.0" x2="154.8" y2="-33.0" />
<line x1="156.3" y1="0.0" x2="156.3" y2="14.0" />
<line x1="157.7" y1="0.0" x2="157.7" y2="47.0" />
<line x1="159.1" y1="0.0" x2="159.1" y2="36.0" />
<line x1="160.6" y1="0.0" x2="160.6" y2="-12.0" />
<line x1="162.0" y1="0.0" x2="162.0" y2="-48.0" />
<line x1="163.4" y1="0.0" x2="163.4" y2="-42.0" />
<line x1="164.9" y1="0.0" x2="164.9" y2="7.0" />
</g>
</svg>