<svg xmlns="http://www.w3.org/2000/svg" width="161.8" height="100.0" viewBox="-85.902 41.248 171.803 110.000">
<g fill="none" stroke="black" stroke-width="0.0034%" transform="translate(0, 192.4951) scale(146.2475, -146.2475)">
<polyline points="-0.553,0.316 -0.542,0.322 -0.531,0.328 -0.520,0.334 -0.509,0.341 -0.498,0.347 -0.487,0.354 -0.476,0.361 -0.465,0.369 -0.454,0.377 -0.443,0.385 -0.431,0.393 -0.420,0.402 -0.409,0.411 -0.398,0.420 -0.387,0.430 -0.376,0.440 -0.365,0.451 -0.354,0.462 -0.343,0.474 -0.332,0.486 -0.321,0.498 -0.310,0.511 -0.299,0.525 -0.288,0.540 -0.277,0.555 -0.266,0.570 -0.254,0.587 -0.243,0.604 -0.232,0.622 -0.221,0.640 -0.210,0.659 -0.199,0.679 -0.188,0.700 -0.177,0.721 -0.166,0.743 -0.155,0.766 -0.144,0.789 -0.133,0.812 -0.122,0.835 -0.111,0.857 -0.100,0.880 -0.089,0.902 -0.077,0.922 -0.066,0.941 -0.055,0.958 -0.044,0.972 -0.033,0.984 -0.022,0.993 -0.011,0.998 0.000,1.000 0.011,0.998 0.022,0.993 0.033,0.984 0.044,0.972 0.055,0.958 0.066,0.941 0.077,0.922 0.089,0.902 0.100,0.880 0.111,0.857 0.122,0.835 0.133,0.812 0.144,0.789 0.155,0.766 0.166,0.743 0.177,0.721 0.188,0.700 0.199,0.679 0.210,0.659 0.221,0.640 0.232,0.622 0.243,0.604 0.254,0.587 0.266,0.570 0.277,0.555 0.288,0.540 0.299,0.525 0.310,0.511 0.321,0.498 0.332,0.486 0.343,0.474 0.354,0.462 0.365,0.451 0.376,0.440 0.387,0.430 0.398,0.420 0.409,0.411 0.420,0.402 0.431,0.393 0.443,0.385 0.454,0.377 0.465,0.369 0.476,0.361 0.487,0.354 0.498,0.347 0.509,0.341 0.520,0.334 0.531,0.328 0.542,0.322 0.553,0.316" />
</g>
</svg>