<svg xmlns="http://www.w3.org/2000/svg" width="161.8" height="100.0" viewBox="-4.19 -1.67 171.80 110.00">
<g fill="none" stroke="black" stroke-width="0.1500%" transform="translate(0, 106.6667) scale(3.3333, -3.3333)">
<circle cx="0.24" cy="1.00" r="0.15" />
<circle cx="0.49" cy="2.00" r="0.15" />
<circle cx="0.73" cy="3.00" r="0.15" />
<circle cx="0.98" cy="1.00" r="0.15" />
<circle cx="1.22" cy="4.00" r="0.15" />
<circle cx="1.46" cy="2.00" r="0.15" />
<circle cx="1.71" cy="5.00" r="0.15" />
<circle cx="1.95" cy="3.00" r="0.15" />
<circle cx="2.20" cy="6.00" r="0.15" />
<circle cx="2.44" cy="1.00" r="0.15" />
<circle cx="2.68" cy="4.00" r="0.15" />
<circle cx="2.93" cy="7.00" r="0.15" />
<circle cx="3.17" cy="2.00" r="0.15" />
<circle cx="3.41" cy="5.00" r="0.15" />
<circle cx="3.66" cy="8.00" r="0.15" />
<circle cx="3.90" cy="3.00" r="0.15" />
<circle cx="4.15" cy="6.00" r="0.15" />
<circle cx="4.39" cy="1.00" r="0.15" />
<circle cx="4.63" cy="9.00" r="0.15" />
<circle cx="4.88" cy="4.00" r="0.15" />
<circle cx="5.12" cy="7.00" r="0.15" />
<circle cx="5.37" cy="2.00" r="0.15" />
<circle cx="5.61" cy="10.00" r="0.15" />
<circle cx="5.85" cy="5.00" r="0.15" />
<circle cx="6.10" cy="8.00" r="0.15" />
<circle cx="6.34" cy="3.00" r="0.15" />
<circle cx="6.59" cy="11.00" r="0.15" />
<circle cx="6.83" cy="6.00" r="0.15" />
<circle cx="7.07" cy="1.00" r="0.15" />
<circle cx="7.32" cy="9.00" r="0.15" />
<circle cx="7.56" cy="4.00" r="0.15" />
<circle cx="7.81" cy="12.00" r="0.15" />
<circle cx="8.05" cy="7.00" r="0.15" />
<circle cx="8.29" cy="2.00" r="0.15" />
<circle cx="8.54" cy="10.00" r="0.15" />
<circle cx="8.78" cy="5.00" r="0.15" />
<circle cx="9.03" cy="13.00" r="0.15" />
<circle cx="9.27" cy="8.00" r="0.15" />
<circle cx="9.51" cy="3.00" r="0.15" />
<circle cx="9.76" cy="11.00" r="0.15" />
<circle cx="10.00" cy="6.00" r="0.15" />
<circle cx="10.24" cy="14.00" r="0.15" />
<circle cx="10.49" cy="1.00" r="0.15" />
<circle cx="10.73" cy="9.00" r="0.15" />
<circle cx="10.98" cy="4.00" r="0.15" />
<circle cx="11.22" cy="12.00" r="0.15" />
<circle cx="11.46" cy="7.00" r="0.15" />
<circle cx="11.71" cy="15.00" r="0.15" />
<circle cx="11.95" cy="2.00" r="0.15" />
<circle cx="12.20" cy="10.00" r="0.15" />
<circle cx="12.44" cy="5.00" r="0.15" />
<circle cx="12.68" cy="13.00" r="0.15" />
<circle cx="12.93" cy="8.00" r="0.15" />
<circle cx="13.17" cy="16.00" r="0.15" />
<circle cx="13.42" cy="3.00" r="0.15" />
<circle cx="13.66" cy="11.00" r="0.15" />
<circle cx="13.90" cy="6.00" r="0.15" />
<circle cx="14.15" cy="14.00" r="0.15" />
<circle cx="14.39" cy="1.00" r="0.15" />
<circle cx="14.64" cy="9.00" r="0.15" />
<circle cx="14.88" cy="17.00" r="0.15" />
<circle cx="15.12" cy="4.00" r="0.15" />
<circle cx="15.37" cy="12.00" r="0.15" />
<circle cx="15.61" cy="7.00" r="0.15" />
<circle cx="15.86" cy="15.00" r="0.15" />
<circle cx="16.10" cy="2.00" r="0.15" />
<circle cx="16.34" cy="10.00" r="0.15" />
<circle cx="16.59" cy="18.00" r="0.15" />
<circle cx="16.83" cy="5.00" r="0.15" />
<circle cx="17.07" cy="13.00" r="0.15" />
<circle cx="17.32" cy="8.00" r="0.15" />
<circle cx="17.56" cy="16.00" r="0.15" />
<circle cx="17.81" cy="3.00" r="0.15" />
<circle cx="18.05" cy="11.00" r="0.15" />
<circle cx="18.29" cy="19.00" r="0.15" />
<circle cx="18.54" cy="6.00" r="0.15" />
<circle cx="18.78" cy="14.00" r="0.15" />
<circle cx="19.03" cy="1.00" r="0.15" />
<circle cx="19.27" cy="9.00" r="0.15" />
<circle cx="19.51" cy="17.00" r="0.15" />
<circle cx="19.76" cy="4.00" r="0.15" />
<circle cx="20.00" cy="12.00" r="0.15" />
<circle cx="20.25" cy="20.00" r="0.15" />
<circle cx="20.49" cy="7.00" r="0.15" />
<circle cx="20.73" cy="15.00" r="0.15" />
<circle cx="20.98" cy="2.00" r="0.15" />
<circle cx="21.22" cy="10.00" r="0.15" />
<circle cx="21.47" cy="18.00" r="0.15" />
<circle cx="21.71" cy="5.00" r="0.15" />
<circle cx="21.95" cy="13.00" r="0.15" />
<circle cx="22.20" cy="21.00" r="0.15" />
<circle cx="22.44" cy="8.00" r="0.15" />
<circle cx="22.68" cy="16.00" r="0.15" />
<circle cx="22.93" cy="3.00" r="0.15" />
<circle cx="23.17" cy="11.00" r="0.15" />
<circle cx="23.42" cy="19.00" r="0.15" />
<circle cx="23.66" cy="6.00" r="0.15" />
<circle cx="23.90" cy="14.00" r="0.15" />
<circle cx="24.15" cy="1.00" r="0.15" />
<circle cx="24.39" cy="22.00" r="0.15" />
<circle cx="24.64" cy="9.00" r="0.15" />
<circle cx="24.88" cy="17.00" r="0.15" />
<circle cx="25.12" cy="4.00" r="0.15" />
<circle cx="25.37" cy="12.00" r="0.15" />
<circle cx="25.61" cy="20.00" r="0.15" />
<circle cx="25.86" cy="7.00" r="0.15" />
<circle cx="26.10" cy="15.00" r="0.15" />
<circle cx="26.34" cy="2.00" r="0.15" />
<circle cx="26.59" cy="23.00" r="0.15" />
<circle cx="26.83" cy="10.00" r="0.15" />
<circle cx="27.08" cy="18.00" r="0.15" />
<circle cx="27.32" cy="5.00" r="0.15" />
<circle cx="27.56" cy="13.00" r="0.15" />
<circle cx="27.81" cy="21.00" r="0.15" />
<circle cx="28.05" cy="8.00" r="0.15" />
<circle cx="28.30" cy="16.00" r="0.15" />
<circle cx="28.54" cy="3.00" r="0.15" />
<circle cx="28.78" cy="24.00" r="0.15" />
<circle cx="29.03" cy="11.00" r="0.15" />
<circle cx="29.27" cy="19.00" r="0.15" />
<circle cx="29.51" cy="6.00" r="0.15" />
<circle cx="29.76" cy="14.00" r="0.15" />
<circle cx="30.00" cy="1.00" r="0.15" />
<circle cx="30.25" cy="22.00" r="0.15" />
<circle cx="30.49" cy="9.00" r="0.15" />
<circle cx="30.73" cy="17.00" r="0.15" />
<circle cx="30.98" cy="4.00" r="0.15" />
<circle cx="31.22" cy="25.00" r="0.15" />
<circle cx="31.47" cy="12.00" r="0.15" />
<circle cx="31.71" cy="20.00" r="0.15" />
<circle cx="31.95" cy="7.00" r="0.15" />
<circle cx="32.20" cy="15.00" r="0.15" />
<circle cx="32.44" cy="2.00" r="0.15" />
<circle cx="32.69" cy="23.00" r="0.15" />
<circle cx="32.93" cy="10.00" r="0.15" />
<circle cx="33.17" cy="18.00" r="0.15" />
<circle cx="33.42" cy="5.00" r="0.15" />
<circle cx="33.66" cy="26.00" r="0.15" />
<circle cx="33.91" cy="13.00" r="0.15" />
<circle cx="34.15" cy="21.00" r="0.15" />
<circle cx="34.39" cy="8.00" r="0.15" />
<circle cx="34.64" cy="16.00" r="0.15" />
<circle cx="34.88" cy="3.00" r="0.15" />
<circle cx="35.13" cy="24.00" r="0.15" />
<circle cx="35.37" cy="11.00" r="0.15" />
<circle cx="35.61" cy="19.00" r="0.15" />
<circle cx="35.86" cy="6.00" r="0.15" />
<circle cx="36.10" cy="27.00" r="0.15" />
<circle cx="36.34" cy="14.00" r="0.15" />
<circle cx="36.59" cy="1.00" r="0.15" />
<circle cx="36.83" cy="22.00" r="0.15" />
<circle cx="37.08" cy="9.00" r="0.15" />
<circle cx="37.32" cy="17.00" r="0.15" />
<circle cx="37.56" cy="4.00" r="0.15" />
<circle cx="37.81" cy="25.00" r="0.15" />
<circle cx="38.05" cy="12.00" r="0.15" />
<circle cx="38.30" cy="20.00" r="0.15" />
<circle cx="38.54" cy="7.00" r="0.15" />
<circle cx="38.78" cy="28.00" r="0.15" />
<circle cx="39.03" cy="15.00" r="0.15" />
<circle cx="39.27" cy="2.00" r="0.15" />
<circle cx="39.52" cy="23.00" r="0.15" />
<circle cx="39.76" cy="10.00" r="0.15" />
<circle cx="40.00" cy="18.00" r="0.15" />
<circle cx="40.25" cy="5.00" r="0.15" />
<circle cx="40.49" cy="26.00" r="0.15" />
<circle cx="40.74" cy="13.00" r="0.15" />
<circle cx="40.98" cy="21.00" r="0.15" />
<circle cx="41.22" cy="8.00" r="0.15" />
<circle cx="41.47" cy="29.00" r="0.15" />
<circle cx="41.71" cy="16.00" r="0.15" />
<circle cx="41.96" cy="3.00" r="0.15" />
<circle cx="42.20" cy="24.00" r="0.15" />
<circle cx="42.44" cy="11.00" r="0.15" />
<circle cx="42.69" cy="19.00" r="0.15" />
<circle cx="42.93" cy="6.00" r="0.15" />
<circle cx="43.17" cy="27.00" r="0.15" />
<circle cx="43.42" cy="14.00" r="0.15" />
<circle cx="43.66" cy="1.00" r="0.15" />
<circle cx="43.91" cy="22.00" r="0.15" />
<circle cx="44.15" cy="9.00" r="0.15" />
<circle cx="44.39" cy="30.00" r="0.15" />
<circle cx="44.64" cy="17.00" r="0.15" />
<circle cx="44.88" cy="4.00" r="0.15" />
<circle cx="45.13" cy="25.00" r="0.15" />
<circle cx="45.37" cy="12.00" r="0.15" />
<circle cx="45.61" cy="20.00" r="0.15" />
<circle cx="45.86" cy="7.00" r="0.15" />
<circle cx="46.10" cy="28.00" r="0.15" />
<circle cx="46.35" cy="15.00" r="0.15" />
<circle cx="46.59" cy="2.00" r="0.15" />
<circle cx="46.83" cy="23.00" r="0.15" />
<circle cx="47.08" cy="10.00" r="0.15" />
<circle cx="47.32" cy="31.00" r="0.15" />
<circle cx="47.57" cy="18.00" r="0.15" />
<circle cx="47.81" cy="5.00" r="0.15" />
<circle cx="48.05" cy="26.00" r="0.15" />
<circle cx="48.30" cy="13.00" r="0.15" />
<circle cx="48.54" cy="21.00" r="0.15" />
<circle cx="48.78" cy="8.00" r="0.15" />
</g>
</svg>