<svg xmlns="http://www.w3.org/2000/svg" width="161.8" height="100.0" viewBox="-1.323 -5.000 171.803 110.000">
<g fill="none" stroke="black" stroke-width="0.0050%" transform="translate(0, 100.0000) scale(100.0000, -100.0000)">

<line x1="0.074" y1="0.000" x2="0.074" y2="1.000" />
<line x1="0.110" y1="0.000" x2="0.110" y2="1.000" />
<line x1="0.147" y1="0.000" x2="0.147" y2="1.000" />

<line x1="0.221" y1="0.000" x2="0.221" y2="1.000" />
<line x1="0.257" y1="0.000" x2="0.257" y2="1.000" />
<line x1="0.294" y1="0.000" x2="0.294" y2="1.000" />

<line x1="0.368" y1="0.000" x2="0.368" y2="1.000" />
<line x1="0.405" y1="0.000" x2="0.405" y2="1.000" />
<line x1="0.441" y1="0.000" x2="0.441" y2="1.000" />

<line x1="0.515" y1="0.000" x2="0.515" y2="1.000" />
<line x1="0.552" y1="0.000" x2="0.552" y2="1.000" />
<line x1="0.588" y1="0.000" x2="0.588" y2="1.000" />

<line x1="0.662" y1="0.000" x2="0.662" y2="1.000" />
<line x1="0.699" y1="0.000" x2="0.699" y2="1.000" />
<line x1="0.735" y1="0.000" x2="0.735" y2="1.000" />

<line x1="0.809" y1="0.000" x2="0.809" y2="1.000" />
<line x1="0.846" y1="0.000" x2="0.846" y2="1.000" />
<line x1="0.883" y1="0.000" x2="0.883" y2="1.000" />

<line x1="0.956" y1="0.000" x2="0.956" y2="1.000" />
<line x1="0.993" y1="0.000" x2="0.993" y2="1.000" />
<line x1="1.030" y1="0.000" x2="1.030" y2="1.000" />

<line x1="1.103" y1="0.000" x2="1.103" y2="1.000" />
<line x1="1.140" y1="0.000" x2="1.140" y2="1.000" />
<line x1="1.177" y1="0.000" x2="1.177" y2="1.000" />

<line x1="1.250" y1="0.000" x2="1.250" y2="1.000" />
<line x1="1.287" y1="0.000" x2="1.287" y2="1.000" />
<line x1="1.324" y1="0.000" x2="1.324" y2="1.000" />

<line x1="1.397" y1="0.000" x2="1.397" y2="1.000" />
<line x1="1.434" y1="0.000" x2="1.434" y2="1.000" />
<line x1="1.471" y1="0.000" x2="1.471" y2="1.000" />

<line x1="1.544" y1="0.000" x2="1.544" y2="1.000" />
<line x1="1.581" y1="0.000" x2="1.581" y2="1.000" />
<line x1="1.618" y1="0.000" x2="1.618" y2="1.000" />

</g>
</svg>