<svg xmlns="http://www.w3.org/2000/svg" width="213.0" height="100.0" viewBox="-40 -90 223 110">
<g fill="none" stroke="black" stroke-width="3748.8176%" transform="translate(0, -70.6888) scale(0.0001, -0.0001)">
<polyline points="1,0 1,0 1,0 1,0 1,1 1,1 1,1 1,1 1,1 1,2 1,2 0,2 0,2 -0,3 -1,3 -1,3 -1,3 -2,3 -2,3 -3,3 -3,2 -4,2 -4,2 -5,1 -5,1 -6,-0 -6,-1 -7,-2 -7,-3 -7,-4 -7,-5 -6,-6 -6,-8 -5,-9 -5,-10 -3,-11 -2,-13 -1,-14 1,-15 3,-15 6,-16 8,-16 11,-16 14,-16 17,-15 20,-14 23,-12 26,-10 29,-7 32,-3 35,1 37,6 38,11 39,17 39,23 39,30 37,38 35,45 31,53 26,60 19,68 11,75 2,81 -9,86 -21,91 -35,94 -50,95 -66,95 -83,92 -101,87 -119,79 -137,68 -155,54 -173,36 -189,15 -203,-10 -215,-38 -224,-69 -229,-104 -230,-142 -226,-182 -216,-224 -199,-268 -176,-312 -145,-356 -106,-399 -59,-439 -4,-476 60,-507 133,-532 213,-549 301,-555 396,-551 496,-533 600,-500 707,-452 814,-385 919,-300 1019,-195 1112,-70 1193,75 1260,242 1310,428 1337,633 1338,854 1309,1091 1247,1339 1147,1594 1005,1852 820,2109 588,2356 308,2589 -22,2798 -402,2977 -830,3116 -1306,3206 -1824,3237 -2380,3200 -2967,3086 -3577,2885 -4199,2589 -4821,2189 -5430,1680 -6010,1054 -6542,310 -7009,-554 -7389,-1538 -7660,-2637 -7800,-3844 -7787,-5148 -7596,-6535 -7206,-7986 -6593,-9478 -5740,-10985 -4627,-12473 -3241,-13908 -1570,-15249 390,-16451 2639,-17465 5172,-18242 7974,-18726 11023,-18863 14289,-18596 17731,-17871 21297,-16633 24928,-14833 28551,-12425 32084,-9371 35433,-5641 38494,-1216 41157,3910 43298,9729 44792,16214 45506,23323 45306,30989 44055,39125 41624,47621 37886,56339 32727,65117 26046,73767 17762,82075 7817,89802 -3818,96686 -17138,102443 -32102,106773 -48622,109361 -66563,109883 -85739,108012 -105907,103428 -126763,95820 -147944,84897 -169022,70402 -189509,52117 -208852,29875 -226443,3575 -241619,-26810 -253672,-61219 -261854,-99490 -265393,-141351 -263501,-186406 -255395,-234129 -240310,-283853 -217523,-334763 -186374,-385895 -146290,-436134 -96813,-484213 -37624,-528722 31423,-568115 110276,-600729 198656,-624798 296025,-638478 401561,-639881 514135,-627105 632285,-598280 754205,-551609 877725,-485425 1000311,-398245 1119064,-288834 1230728,-156267 1331714,-0" />
</g>
</svg>