<svg xmlns="http://www.w3.org/2000/svg" width="100.0" height="100.0" viewBox="-21.67 -21.67 110.00 110.00">
<g fill="none" stroke="black" stroke-width="0.0300%" transform="translate(0, 66.6667) scale(16.6667, -16.6667)">
<polyline points="0.00,0.00 1.00,0.00 1.00,1.00 2.00,1.00 2.00,0.00 2.00,-1.00 3.00,-1.00 3.00,0.00 4.00,0.00 4.00,1.00 3.00,1.00 3.00,2.00 4.00,2.00 5.00,2.00 5.00,3.00 4.00,3.00 4.00,4.00 3.00,4.00 3.00,3.00 2.00,3.00 2.00,4.00 2.00,5.00 1.00,5.00 1.00,4.00 -0.00,4.00 -0.00,3.00 1.00,3.00 1.00,2.00 -0.00,2.00 -1.00,2.00 -1.00,1.00 -0.00,1.00 -0.00,-0.00" />
</g>
</svg>