<?xml version="1.0" encoding="UTF-8" standalone="no"?>
<!DOCTYPE svg PUBLIC "-//W3C//DTD SVG 1.1//EN"
 "http://www.w3.org/Graphics/SVG/1.1/DTD/svg11.dtd">
<!-- Generated by graphviz version 12.0.0 (0)
 -->
<!-- Pages: 1 -->
<svg width="16pt" height="54pt"
 viewBox="0.00 0.00 15.61 54.00" xmlns="http://www.w3.org/2000/svg" xmlns:xlink="http://www.w3.org/1999/xlink">
<g id="graph0" class="graph" transform="scale(0.257634 0.257634) rotate(0) translate(4 205.6)">
<!-- 1 -->
<g id="node1" class="node">
<title>1</title>
<ellipse fill="black" stroke="black" cx="31.8" cy="-199.8" rx="1.8" ry="1.8"/>
</g>
<!-- 2 -->
<g id="node2" class="node">
<title>2</title>
<ellipse fill="black" stroke="black" cx="31.8" cy="-160.2" rx="1.8" ry="1.8"/>
</g>
<!-- 1&#45;&gt;2 -->
<g id="edge1" class="edge">
<title>1&#45;&gt;2</title>
<path fill="none" stroke="black" stroke-width="0.75" d="M31.8,-197.55C31.8,-193.09 31.8,-177.74 31.8,-168.47"/>
<polygon fill="black" stroke="black" stroke-width="0.75" points="33.55,-168.63 31.8,-163.63 30.05,-168.63 33.55,-168.63"/>
</g>
<!-- 3 -->
<g id="node3" class="node">
<title>3</title>
<ellipse fill="black" stroke="black" cx="1.8" cy="-120.6" rx="1.8" ry="1.8"/>
</g>
<!-- 2&#45;&gt;3 -->
<g id="edge2" class="edge">
<title>2&#45;&gt;3</title>
<path fill="none" stroke="black" stroke-width="0.75" d="M31.06,-158.27C27.66,-154.01 13.4,-136.14 6.12,-127.01"/>
<polygon fill="black" stroke="black" stroke-width="0.75" points="7.61,-126.07 3.12,-123.26 4.87,-128.26 7.61,-126.07"/>
</g>
<!-- 4 -->
<g id="node4" class="node">
<title>4</title>
<ellipse fill="black" stroke="black" cx="31.8" cy="-81" rx="1.8" ry="1.8"/>
</g>
<!-- 2&#45;&gt;4 -->
<g id="edge4" class="edge">
<title>2&#45;&gt;4</title>
<path fill="none" stroke="black" stroke-width="0.75" d="M31.8,-158.11C31.8,-149.46 31.8,-92.08 31.8,-83.16"/>
</g>
<!-- 6 -->
<g id="node6" class="node">
<title>6</title>
<ellipse fill="black" stroke="black" cx="50.8" cy="-1.8" rx="1.8" ry="1.8"/>
</g>
<!-- 2&#45;&gt;6 -->
<g id="edge7" class="edge">
<title>2&#45;&gt;6</title>
<path fill="none" stroke="black" stroke-width="0.75" d="M32.37,-158.1C34.61,-153.72 42.77,-137.13 45.8,-122.4 55.67,-74.36 51.59,-13.25 50.89,-4"/>
</g>
<!-- 3&#45;&gt;4 -->
<g id="edge3" class="edge">
<title>3&#45;&gt;4</title>
<path fill="none" stroke="black" stroke-width="0.75" d="M2.54,-118.67C5.94,-114.41 20.2,-96.54 27.48,-87.41"/>
<polygon fill="black" stroke="black" stroke-width="0.75" points="28.73,-88.66 30.48,-83.66 25.99,-86.47 28.73,-88.66"/>
</g>
<!-- 5 -->
<g id="node5" class="node">
<title>5</title>
<ellipse fill="black" stroke="black" cx="35.8" cy="-41.4" rx="1.8" ry="1.8"/>
</g>
<!-- 4&#45;&gt;5 -->
<g id="edge5" class="edge">
<title>4&#45;&gt;5</title>
<path fill="none" stroke="black" stroke-width="0.75" d="M31.93,-78.75C32.54,-73.04 35.05,-49.49 35.66,-43.69"/>
</g>
<!-- 5&#45;&gt;6 -->
<g id="edge6" class="edge">
<title>5&#45;&gt;6</title>
<path fill="none" stroke="black" stroke-width="0.75" d="M36.17,-39.47C38.26,-34.22 48.58,-8.37 50.49,-3.57"/>
</g>
</g>
</svg>
