<svg xmlns="http://www.w3.org/2000/svg" width="161.8" height="100.0" viewBox="-4.461 -55.003 171.803 110.000">
<g fill="none" stroke="black" stroke-width="0.0100%" transform="translate(0, -0.0057) scale(50.0039, -50.0039)">
<circle cx="0.011" cy="0.000" r="0.010" />
<circle cx="0.011" cy="-0.873" r="0.010" />
<circle cx="0.022" cy="0.524" r="0.010" />
<circle cx="0.032" cy="0.026" r="0.010" />
<circle cx="0.043" cy="-0.621" r="0.010" />
<circle cx="0.054" cy="0.981" r="0.010" />
<circle cx="0.065" cy="-0.839" r="0.010" />
<circle cx="0.076" cy="0.168" r="0.010" />
<circle cx="0.086" cy="0.655" r="0.010" />
<circle cx="0.097" cy="-0.997" r="0.010" />
<circle cx="0.108" cy="0.479" r="0.010" />
<circle cx="0.119" cy="0.515" r="0.010" />
<circle cx="0.129" cy="-0.998" r="0.010" />
<circle cx="0.140" cy="0.365" r="0.010" />
<circle cx="0.151" cy="0.723" r="0.010" />
<circle cx="0.162" cy="-0.894" r="0.010" />
<circle cx="0.173" cy="-0.162" r="0.010" />
<circle cx="0.183" cy="0.995" r="0.010" />
<circle cx="0.194" cy="-0.314" r="0.010" />
<circle cx="0.205" cy="-0.877" r="0.010" />
<circle cx="0.216" cy="0.603" r="0.010" />
<circle cx="0.227" cy="0.728" r="0.010" />
<circle cx="0.237" cy="-0.738" r="0.010" />
<circle cx="0.248" cy="-0.645" r="0.010" />
<circle cx="0.259" cy="0.769" r="0.010" />
<circle cx="0.270" cy="0.658" r="0.010" />
<circle cx="0.280" cy="-0.715" r="0.010" />
<circle cx="0.291" cy="-0.758" r="0.010" />
<circle cx="0.302" cy="0.561" r="0.010" />
<circle cx="0.313" cy="0.899" r="0.010" />
<circle cx="0.324" cy="-0.279" r="0.010" />
<circle cx="0.334" cy="-0.996" r="0.010" />
<circle cx="0.345" cy="-0.137" r="0.010" />
<circle cx="0.356" cy="0.926" r="0.010" />
<circle cx="0.367" cy="0.612" r="0.010" />
<circle cx="0.378" cy="-0.577" r="0.010" />
<circle cx="0.388" cy="-0.957" r="0.010" />
<circle cx="0.399" cy="-0.047" r="0.010" />
<circle cx="0.410" cy="0.917" r="0.010" />
<circle cx="0.421" cy="0.715" r="0.010" />
<circle cx="0.431" cy="-0.360" r="0.010" />
<circle cx="0.442" cy="-0.998" r="0.010" />
<circle cx="0.453" cy="-0.484" r="0.010" />
<circle cx="0.464" cy="0.565" r="0.010" />
<circle cx="0.475" cy="0.993" r="0.010" />
<circle cx="0.485" cy="0.377" r="0.010" />
<circle cx="0.496" cy="-0.616" r="0.010" />
<circle cx="0.507" cy="-0.992" r="0.010" />
<circle cx="0.518" cy="-0.416" r="0.010" />
<circle cx="0.529" cy="0.540" r="0.010" />
<circle cx="0.539" cy="1.000" r="0.010" />
<circle cx="0.550" cy="0.581" r="0.010" />
<circle cx="0.561" cy="-0.327" r="0.010" />
<circle cx="0.572" cy="-0.955" r="0.010" />
<circle cx="0.582" cy="-0.813" r="0.010" />
<circle cx="0.593" cy="-0.040" r="0.010" />
<circle cx="0.604" cy="0.754" r="0.010" />
<circle cx="0.615" cy="0.987" r="0.010" />
<circle cx="0.626" cy="0.513" r="0.010" />
<circle cx="0.636" cy="-0.310" r="0.010" />
<circle cx="0.647" cy="-0.916" r="0.010" />
<circle cx="0.658" cy="-0.915" r="0.010" />
<circle cx="0.669" cy="-0.332" r="0.010" />
<circle cx="0.680" cy="0.450" r="0.010" />
<circle cx="0.690" cy="0.952" r="0.010" />
<circle cx="0.701" cy="0.891" r="0.010" />
<circle cx="0.712" cy="0.323" r="0.010" />
<circle cx="0.723" cy="-0.418" r="0.010" />
<circle cx="0.733" cy="-0.925" r="0.010" />
<circle cx="0.744" cy="-0.940" r="0.010" />
<circle cx="0.755" cy="-0.474" r="0.010" />
<circle cx="0.766" cy="0.222" r="0.010" />
<circle cx="0.777" cy="0.803" r="0.010" />
<circle cx="0.787" cy="0.998" r="0.010" />
<circle cx="0.798" cy="0.731" r="0.010" />
<circle cx="0.809" cy="0.140" r="0.010" />
<circle cx="0.820" cy="-0.506" r="0.010" />
<circle cx="0.831" cy="-0.930" r="0.010" />
<circle cx="0.841" cy="-0.962" r="0.010" />
<circle cx="0.852" cy="-0.605" r="0.010" />
<circle cx="0.863" cy="-0.013" r="0.010" />
<circle cx="0.874" cy="0.577" r="0.010" />
<circle cx="0.884" cy="0.944" r="0.010" />
<circle cx="0.895" cy="0.962" r="0.010" />
<circle cx="0.906" cy="0.636" r="0.010" />
<circle cx="0.917" cy="0.092" r="0.010" />
<circle cx="0.928" cy="-0.477" r="0.010" />
<circle cx="0.938" cy="-0.882" r="0.010" />
<circle cx="0.949" cy="-0.996" r="0.010" />
<circle cx="0.960" cy="-0.795" r="0.010" />
<circle cx="0.971" cy="-0.350" r="0.010" />
<circle cx="0.982" cy="0.196" r="0.010" />
<circle cx="0.992" cy="0.678" r="0.010" />
<circle cx="1.003" cy="0.960" r="0.010" />
<circle cx="1.014" cy="0.969" r="0.010" />
<circle cx="1.025" cy="0.712" r="0.010" />
<circle cx="1.035" cy="0.267" r="0.010" />
<circle cx="1.046" cy="-0.243" r="0.010" />
<circle cx="1.057" cy="-0.686" r="0.010" />
<circle cx="1.068" cy="-0.952" r="0.010" />
<circle cx="1.079" cy="-0.983" r="0.010" />
<circle cx="1.089" cy="-0.778" r="0.010" />
<circle cx="1.100" cy="-0.393" r="0.010" />
<circle cx="1.111" cy="0.077" r="0.010" />
<circle cx="1.122" cy="0.526" r="0.010" />
<circle cx="1.133" cy="0.854" r="0.010" />
<circle cx="1.143" cy="0.997" r="0.010" />
<circle cx="1.154" cy="0.929" r="0.010" />
<circle cx="1.165" cy="0.671" r="0.010" />
<circle cx="1.176" cy="0.282" r="0.010" />
<circle cx="1.186" cy="-0.159" r="0.010" />
<circle cx="1.197" cy="-0.565" r="0.010" />
<circle cx="1.208" cy="-0.860" r="0.010" />
<circle cx="1.219" cy="-0.995" r="0.010" />
<circle cx="1.230" cy="-0.948" r="0.010" />
<circle cx="1.240" cy="-0.735" r="0.010" />
<circle cx="1.251" cy="-0.396" r="0.010" />
<circle cx="1.262" cy="0.006" r="0.010" />
<circle cx="1.273" cy="0.403" r="0.010" />
<circle cx="1.284" cy="0.731" r="0.010" />
<circle cx="1.294" cy="0.939" r="0.010" />
<circle cx="1.305" cy="0.999" r="0.010" />
<circle cx="1.316" cy="0.905" r="0.010" />
<circle cx="1.327" cy="0.677" r="0.010" />
<circle cx="1.337" cy="0.352" r="0.010" />
<circle cx="1.348" cy="-0.021" r="0.010" />
<circle cx="1.359" cy="-0.388" r="0.010" />
<circle cx="1.370" cy="-0.697" r="0.010" />
<circle cx="1.381" cy="-0.909" r="0.010" />
<circle cx="1.391" cy="-0.998" r="0.010" />
<circle cx="1.402" cy="-0.956" r="0.010" />
<circle cx="1.413" cy="-0.792" r="0.010" />
<circle cx="1.424" cy="-0.530" r="0.010" />
<circle cx="1.435" cy="-0.206" r="0.010" />
<circle cx="1.445" cy="0.141" r="0.010" />
<circle cx="1.456" cy="0.467" r="0.010" />
<circle cx="1.467" cy="0.737" r="0.010" />
<circle cx="1.478" cy="0.919" r="0.010" />
<circle cx="1.488" cy="0.998" r="0.010" />
<circle cx="1.499" cy="0.966" r="0.010" />
<circle cx="1.510" cy="0.830" r="0.010" />
<circle cx="1.521" cy="0.607" r="0.010" />
<circle cx="1.532" cy="0.323" r="0.010" />
<circle cx="1.542" cy="0.009" r="0.010" />
<circle cx="1.553" cy="-0.303" r="0.010" />
<circle cx="1.564" cy="-0.583" r="0.010" />
<circle cx="1.575" cy="-0.804" r="0.010" />
<circle cx="1.586" cy="-0.946" r="0.010" />
<circle cx="1.596" cy="-1.000" r="0.010" />
<circle cx="1.607" cy="-0.961" r="0.010" />
<circle cx="1.618" cy="-0.836" r="0.010" />
<circle cx="1.629" cy="-0.639" r="0.010" />
<circle cx="1.639" cy="-0.388" r="0.010" />
<circle cx="1.650" cy="-0.106" r="0.010" />
<circle cx="1.661" cy="0.183" r="0.010" />
<circle cx="1.672" cy="0.454" r="0.010" />
<circle cx="1.683" cy="0.686" r="0.010" />
<circle cx="1.693" cy="0.862" r="0.010" />
<circle cx="1.704" cy="0.968" r="0.010" />
<circle cx="1.715" cy="1.000" r="0.010" />
<circle cx="1.726" cy="0.955" r="0.010" />
<circle cx="1.737" cy="0.840" r="0.010" />
<circle cx="1.747" cy="0.665" r="0.010" />
<circle cx="1.758" cy="0.443" r="0.010" />
<circle cx="1.769" cy="0.192" r="0.010" />
<circle cx="1.780" cy="-0.070" r="0.010" />
<circle cx="1.790" cy="-0.326" r="0.010" />
<circle cx="1.801" cy="-0.557" r="0.010" />
<circle cx="1.812" cy="-0.750" r="0.010" />
<circle cx="1.823" cy="-0.893" r="0.010" />
<circle cx="1.834" cy="-0.977" r="0.010" />
<circle cx="1.844" cy="-0.999" r="0.010" />
<circle cx="1.855" cy="-0.960" r="0.010" />
<circle cx="1.866" cy="-0.862" r="0.010" />
<circle cx="1.877" cy="-0.713" r="0.010" />
<circle cx="1.888" cy="-0.523" r="0.010" />
<circle cx="1.898" cy="-0.305" r="0.010" />
<circle cx="1.909" cy="-0.071" r="0.010" />
<circle cx="1.920" cy="0.166" r="0.010" />
<circle cx="1.931" cy="0.391" r="0.010" />
<circle cx="1.941" cy="0.593" r="0.010" />
<circle cx="1.952" cy="0.762" r="0.010" />
<circle cx="1.963" cy="0.890" r="0.010" />
<circle cx="1.974" cy="0.970" r="0.010" />
<circle cx="1.985" cy="1.000" r="0.010" />
<circle cx="1.995" cy="0.979" r="0.010" />
<circle cx="2.006" cy="0.910" r="0.010" />
<circle cx="2.017" cy="0.797" r="0.010" />
<circle cx="2.028" cy="0.647" r="0.010" />
<circle cx="2.039" cy="0.467" r="0.010" />
<circle cx="2.049" cy="0.266" r="0.010" />
<circle cx="2.060" cy="0.055" r="0.010" />
<circle cx="2.071" cy="-0.157" r="0.010" />
<circle cx="2.082" cy="-0.361" r="0.010" />
<circle cx="2.092" cy="-0.547" r="0.010" />
<circle cx="2.103" cy="-0.708" r="0.010" />
<circle cx="2.114" cy="-0.838" r="0.010" />
<circle cx="2.125" cy="-0.931" r="0.010" />
<circle cx="2.136" cy="-0.986" r="0.010" />
<circle cx="2.146" cy="-0.999" r="0.010" />
<circle cx="2.157" cy="-0.973" r="0.010" />
<circle cx="2.168" cy="-0.908" r="0.010" />
<circle cx="2.179" cy="-0.808" r="0.010" />
<circle cx="2.190" cy="-0.678" r="0.010" />
<circle cx="2.200" cy="-0.522" r="0.010" />
<circle cx="2.211" cy="-0.349" r="0.010" />
<circle cx="2.222" cy="-0.164" r="0.010" />
<circle cx="2.233" cy="0.026" r="0.010" />
<circle cx="2.243" cy="0.214" r="0.010" />
<circle cx="2.254" cy="0.393" r="0.010" />
<circle cx="2.265" cy="0.557" r="0.010" />
<circle cx="2.276" cy="0.700" r="0.010" />
<circle cx="2.287" cy="0.819" r="0.010" />
<circle cx="2.297" cy="0.910" r="0.010" />
<circle cx="2.308" cy="0.970" r="0.010" />
<circle cx="2.319" cy="0.998" r="0.010" />
<circle cx="2.330" cy="0.994" r="0.010" />
<circle cx="2.341" cy="0.958" r="0.010" />
<circle cx="2.351" cy="0.893" r="0.010" />
<circle cx="2.362" cy="0.801" r="0.010" />
<circle cx="2.373" cy="0.685" r="0.010" />
<circle cx="2.384" cy="0.550" r="0.010" />
<circle cx="2.395" cy="0.399" r="0.010" />
<circle cx="2.405" cy="0.237" r="0.010" />
<circle cx="2.416" cy="0.070" r="0.010" />
<circle cx="2.427" cy="-0.098" r="0.010" />
<circle cx="2.438" cy="-0.262" r="0.010" />
<circle cx="2.448" cy="-0.418" r="0.010" />
<circle cx="2.459" cy="-0.562" r="0.010" />
<circle cx="2.470" cy="-0.689" r="0.010" />
<circle cx="2.481" cy="-0.798" r="0.010" />
<circle cx="2.492" cy="-0.884" r="0.010" />
<circle cx="2.502" cy="-0.948" r="0.010" />
<circle cx="2.513" cy="-0.986" r="0.010" />
<circle cx="2.524" cy="-1.000" r="0.010" />
<circle cx="2.535" cy="-0.989" r="0.010" />
<circle cx="2.546" cy="-0.953" r="0.010" />
<circle cx="2.556" cy="-0.895" r="0.010" />
<circle cx="2.567" cy="-0.815" r="0.010" />
<circle cx="2.578" cy="-0.717" r="0.010" />
<circle cx="2.589" cy="-0.603" r="0.010" />
<circle cx="2.599" cy="-0.475" r="0.010" />
<circle cx="2.610" cy="-0.338" r="0.010" />
<circle cx="2.621" cy="-0.193" r="0.010" />
<circle cx="2.632" cy="-0.046" r="0.010" />
<circle cx="2.643" cy="0.102" r="0.010" />
<circle cx="2.653" cy="0.246" r="0.010" />
<circle cx="2.664" cy="0.385" r="0.010" />
<circle cx="2.675" cy="0.514" r="0.010" />
<circle cx="2.686" cy="0.632" r="0.010" />
<circle cx="2.697" cy="0.736" r="0.010" />
<circle cx="2.707" cy="0.825" r="0.010" />
<circle cx="2.718" cy="0.896" r="0.010" />
<circle cx="2.729" cy="0.950" r="0.010" />
<circle cx="2.740" cy="0.984" r="0.010" />
<circle cx="2.750" cy="0.999" r="0.010" />
<circle cx="2.761" cy="0.995" r="0.010" />
<circle cx="2.772" cy="0.972" r="0.010" />
<circle cx="2.783" cy="0.931" r="0.010" />
<circle cx="2.794" cy="0.874" r="0.010" />
<circle cx="2.804" cy="0.800" r="0.010" />
<circle cx="2.815" cy="0.713" r="0.010" />
<circle cx="2.826" cy="0.614" r="0.010" />
<circle cx="2.837" cy="0.504" r="0.010" />
<circle cx="2.848" cy="0.386" r="0.010" />
<circle cx="2.858" cy="0.262" r="0.010" />
<circle cx="2.869" cy="0.135" r="0.010" />
<circle cx="2.880" cy="0.006" r="0.010" />
<circle cx="2.891" cy="-0.122" r="0.010" />
<circle cx="2.901" cy="-0.248" r="0.010" />
<circle cx="2.912" cy="-0.369" r="0.010" />
<circle cx="2.923" cy="-0.483" r="0.010" />
<circle cx="2.934" cy="-0.589" r="0.010" />
<circle cx="2.945" cy="-0.685" r="0.010" />
<circle cx="2.955" cy="-0.770" r="0.010" />
<circle cx="2.966" cy="-0.843" r="0.010" />
<circle cx="2.977" cy="-0.902" r="0.010" />
<circle cx="2.988" cy="-0.948" r="0.010" />
<circle cx="2.999" cy="-0.980" r="0.010" />
<circle cx="3.009" cy="-0.997" r="0.010" />
<circle cx="3.020" cy="-0.999" r="0.010" />
<circle cx="3.031" cy="-0.988" r="0.010" />
<circle cx="3.042" cy="-0.962" r="0.010" />
<circle cx="3.052" cy="-0.923" r="0.010" />
<circle cx="3.063" cy="-0.872" r="0.010" />
<circle cx="3.074" cy="-0.809" r="0.010" />
<circle cx="3.085" cy="-0.735" r="0.010" />
<circle cx="3.096" cy="-0.652" r="0.010" />
<circle cx="3.106" cy="-0.561" r="0.010" />
<circle cx="3.117" cy="-0.463" r="0.010" />
<circle cx="3.128" cy="-0.360" r="0.010" />
<circle cx="3.139" cy="-0.252" r="0.010" />
<circle cx="3.150" cy="-0.142" r="0.010" />
<circle cx="3.160" cy="-0.031" r="0.010" />
<circle cx="3.171" cy="0.080" r="0.010" />
<circle cx="3.182" cy="0.189" r="0.010" />
<circle cx="3.193" cy="0.296" r="0.010" />
<circle cx="3.203" cy="0.398" r="0.010" />
<circle cx="3.214" cy="0.495" r="0.010" />
<circle cx="3.225" cy="0.586" r="0.010" />
<circle cx="3.236" cy="0.670" r="0.010" />
<circle cx="3.247" cy="0.745" r="0.010" />
</g>
</svg>