<svg xmlns="http://www.w3.org/2000/svg" width="161.8" height="100.0" viewBox="-85.902 -55.000 171.803 110.000">
<g fill="none" stroke="black" stroke-width="0.0100%" transform="translate(0, 0.0000) scale(50.0000, -50.0000)">
<polyline points="-1.618,-0.000 -1.586,-0.063 -1.553,-0.125 -1.521,-0.187 -1.489,-0.249 -1.456,-0.309 -1.424,-0.368 -1.392,-0.426 -1.359,-0.482 -1.327,-0.536 -1.294,-0.588 -1.262,-0.637 -1.230,-0.685 -1.197,-0.729 -1.165,-0.771 -1.133,-0.809 -1.100,-0.844 -1.068,-0.876 -1.036,-0.905 -1.003,-0.930 -0.971,-0.951 -0.938,-0.969 -0.906,-0.982 -0.874,-0.992 -0.841,-0.998 -0.809,-1.000 -0.777,-0.998 -0.744,-0.992 -0.712,-0.982 -0.680,-0.969 -0.647,-0.951 -0.615,-0.930 -0.582,-0.905 -0.550,-0.876 -0.518,-0.844 -0.485,-0.809 -0.453,-0.771 -0.421,-0.729 -0.388,-0.685 -0.356,-0.637 -0.324,-0.588 -0.291,-0.536 -0.259,-0.482 -0.227,-0.426 -0.194,-0.368 -0.162,-0.309 -0.129,-0.249 -0.097,-0.187 -0.065,-0.125 -0.032,-0.063 0.000,0.000 0.032,0.063 0.065,0.125 0.097,0.187 0.129,0.249 0.162,0.309 0.194,0.368 0.227,0.426 0.259,0.482 0.291,0.536 0.324,0.588 0.356,0.637 0.388,0.685 0.421,0.729 0.453,0.771 0.485,0.809 0.518,0.844 0.550,0.876 0.582,0.905 0.615,0.930 0.647,0.951 0.680,0.969 0.712,0.982 0.744,0.992 0.777,0.998 0.809,1.000 0.841,0.998 0.874,0.992 0.906,0.982 0.938,0.969 0.971,0.951 1.003,0.930 1.036,0.905 1.068,0.876 1.100,0.844 1.133,0.809 1.165,0.771 1.197,0.729 1.230,0.685 1.262,0.637 1.294,0.588 1.327,0.536 1.359,0.482 1.392,0.426 1.424,0.368 1.456,0.309 1.489,0.249 1.521,0.187 1.553,0.125 1.586,0.063 1.618,-0.000" />
<polyline points="-1.618,0.000 -1.586,-0.063 -1.553,-0.125 -1.521,-0.187 -1.489,-0.249 -1.456,-0.309 -1.424,-0.368 -1.392,-0.426 -1.359,-0.482 -1.327,-0.536 -1.294,-0.588 -1.262,-0.637 -1.230,-0.685 -1.197,-0.729 -1.165,-0.771 -1.133,-0.809 -1.100,-0.844 -1.068,-0.876 -1.036,-0.905 -1.003,-0.930 -0.971,-0.951 -0.938,-0.969 -0.906,-0.982 -0.874,-0.992 -0.841,-0.998 -0.809,-1.000 -0.777,-0.998 -0.744,-0.992 -0.712,-0.982 -0.680,-0.969 -0.647,-0.951 -0.615,-0.930 -0.582,-0.905 -0.550,-0.876 -0.518,-0.844 -0.485,-0.809 -0.453,-0.771 -0.421,-0.729 -0.388,-0.685 -0.356,-0.637 -0.324,-0.588 -0.291,-0.536 -0.259,-0.482 -0.227,-0.426 -0.194,-0.368 -0.162,-0.309 -0.129,-0.249 -0.097,-0.187 -0.065,-0.125 -0.032,-0.063 0.000,0.000 0.032,0.063 0.065,0.125 0.097,0.187 0.129,0.249 0.162,0.309 0.194,0.368 0.227,0.426 0.259,0.482 0.291,0.536 0.324,0.588 0.356,0.637 0.388,0.685 0.421,0.729 0.453,0.771 0.485,0.809 0.518,0.844 0.550,0.876 0.582,0.905 0.615,0.930 0.647,0.951 0.680,0.969 0.712,0.982 0.744,0.992 0.777,0.998 0.809,1.000 0.841,0.998 0.874,0.992 0.906,0.982 0.938,0.969 0.971,0.951 1.003,0.930 1.036,0.905 1.068,0.876 1.100,0.844 1.133,0.809 1.165,0.771 1.197,0.729 1.230,0.685 1.262,0.637 1.294,0.588 1.327,0.536 1.359,0.482 1.392,0.426 1.424,0.368 1.456,0.309 1.489,0.249 1.521,0.187 1.553,0.125 1.586,0.063 1.618,-0.000" />
</g>
</svg>