<svg xmlns="http://www.w3.org/2000/svg" width="161.8" height="100.0" viewBox="-5.000 -55.000 171.803 110.000">
<g fill="none" stroke="black" stroke-width="0.0120%" transform="translate(0, -0.0000) scale(41.4960, -41.4960)">
<polyline points="0.000,0.000 0.039,0.287 0.078,0.379 0.117,0.452 0.156,0.495 0.195,0.569 0.234,0.571 0.273,0.594 0.312,0.635 0.351,0.716 0.390,0.630 0.429,0.625 0.468,0.730 0.507,0.852 0.546,0.852 0.585,0.785 0.624,0.645 0.663,0.619 0.702,0.506 0.741,0.570 0.780,0.672 0.819,0.802 0.858,0.740 0.897,0.843 0.936,0.951 0.975,1.192 1.014,1.205 1.053,1.164 1.092,1.123 1.131,1.123 1.170,1.019 1.209,1.047 1.248,1.086 1.287,1.176 1.326,1.097 1.365,0.999 1.404,0.894 1.443,0.890 1.482,0.692 1.521,0.584 1.560,0.415 1.599,0.264 1.638,0.078 1.677,0.014 1.716,0.093 1.755,0.223 1.794,0.174 1.833,0.070 1.872,0.059 1.911,0.033 1.950,0.000 1.989,-0.033 2.028,-0.059 2.067,-0.070 2.106,-0.174 2.145,-0.223 2.184,-0.093 2.223,-0.014 2.262,-0.078 2.301,-0.264 2.340,-0.415 2.379,-0.584 2.418,-0.692 2.457,-0.890 2.496,-0.894 2.535,-0.999 2.574,-1.097 2.613,-1.176 2.651,-1.086 2.690,-1.047 2.729,-1.019 2.768,-1.123 2.807,-1.123 2.846,-1.164 2.885,-1.205 2.924,-1.192 2.963,-0.951 3.002,-0.843 3.041,-0.740 3.080,-0.802 3.119,-0.672 3.158,-0.570 3.197,-0.506 3.236,-0.619 3.275,-0.645 3.314,-0.785 3.353,-0.852 3.392,-0.852 3.431,-0.730 3.470,-0.625 3.509,-0.630 3.548,-0.716 3.587,-0.635 3.626,-0.594 3.665,-0.571 3.704,-0.569 3.743,-0.495 3.782,-0.452 3.821,-0.379 3.860,-0.287 3.899,0.000" />
</g>
</svg>