<svg xmlns="http://www.w3.org/2000/svg" width="161.8" height="100.0" viewBox="-4.8969 -4.9975 171.8034 110.0000">
<g fill="none" stroke="black" stroke-width="0.0003%" transform="translate(0, 100.0050) scale(1545.1075, -1545.1075)">
<polyline points="0.0001,0.0000 0.0011,0.0009 0.0022,0.0032 0.0032,0.0069 0.0043,0.0119 0.0053,0.0177 0.0063,0.0242 0.0074,0.0311 0.0084,0.0380 0.0095,0.0446 0.0105,0.0506 0.0116,0.0558 0.0126,0.0599 0.0137,0.0628 0.0147,0.0644 0.0158,0.0647 0.0168,0.0637 0.0179,0.0615 0.0189,0.0583 0.0200,0.0541 0.0210,0.0493 0.0221,0.0440 0.0231,0.0384 0.0242,0.0327 0.0252,0.0272 0.0262,0.0220 0.0273,0.0173 0.0283,0.0130 0.0294,0.0094 0.0304,0.0064 0.0315,0.0040 0.0325,0.0022 0.0336,0.0010 0.0346,0.0003 0.0357,0.0000 0.0367,0.0001 0.0378,0.0004 0.0388,0.0009 0.0399,0.0015 0.0409,0.0021 0.0420,0.0028 0.0430,0.0033 0.0440,0.0038 0.0451,0.0041 0.0461,0.0044 0.0472,0.0045 0.0482,0.0045 0.0493,0.0043 0.0503,0.0041 0.0514,0.0038 0.0524,0.0035 0.0535,0.0031 0.0545,0.0027 0.0556,0.0023 0.0566,0.0019 0.0577,0.0015 0.0587,0.0012 0.0598,0.0009 0.0608,0.0006 0.0619,0.0004 0.0629,0.0002 0.0639,0.0001 0.0650,0.0000 0.0660,0.0000 0.0671,0.0000 0.0681,0.0000 0.0692,0.0001 0.0702,0.0001 0.0713,0.0002 0.0723,0.0003 0.0734,0.0004 0.0744,0.0005 0.0755,0.0006 0.0765,0.0007 0.0776,0.0008 0.0786,0.0009 0.0797,0.0009 0.0807,0.0010 0.0817,0.0011 0.0828,0.0011 0.0838,0.0012 0.0849,0.0012 0.0859,0.0012 0.0870,0.0013 0.0880,0.0013 0.0891,0.0013 0.0901,0.0013 0.0912,0.0013 0.0922,0.0013 0.0933,0.0013 0.0943,0.0013 0.0954,0.0013 0.0964,0.0013 0.0975,0.0013 0.0985,0.0013 0.0996,0.0013 0.1006,0.0013 0.1016,0.0013 0.1027,0.0013 0.1037,0.0013 0.1048,0.0013" />
</g>
</svg>