<svg xmlns="http://www.w3.org/2000/svg" width="161.8" height="100.0" viewBox="-86.719 -55.000 171.803 110.000">
<g fill="none" stroke="black" stroke-width="0.0100%" transform="translate(0, 0.0000) scale(50.0000, -50.0000)">
<circle cx="-1.634" cy="0.000" r="0.010" />
<circle cx="0.000" cy="1.000" r="0.010" />
<polyline points="-1.634,-0.000 -1.602,-0.063 -1.569,-0.125 -1.536,-0.187 -1.504,-0.249 -1.471,-0.309 -1.438,-0.368 -1.406,-0.426 -1.373,-0.482 -1.340,-0.536 -1.308,-0.588 -1.275,-0.637 -1.242,-0.685 -1.209,-0.729 -1.177,-0.771 -1.144,-0.809 -1.111,-0.844 -1.079,-0.876 -1.046,-0.905 -1.013,-0.930 -0.981,-0.951 -0.948,-0.969 -0.915,-0.982 -0.883,-0.992 -0.850,-0.998 -0.817,-1.000 -0.785,-0.998 -0.752,-0.992 -0.719,-0.982 -0.686,-0.969 -0.654,-0.951 -0.621,-0.930 -0.588,-0.905 -0.556,-0.876 -0.523,-0.844 -0.490,-0.809 -0.458,-0.771 -0.425,-0.729 -0.392,-0.685 -0.360,-0.637 -0.327,-0.588 -0.294,-0.536 -0.262,-0.482 -0.229,-0.426 -0.196,-0.368 -0.163,-0.309 -0.131,-0.249 -0.098,-0.187 -0.065,-0.125 -0.033,-0.063 0.000,0.000 0.033,0.063 0.065,0.125 0.098,0.187 0.131,0.249 0.163,0.309 0.196,0.368 0.229,0.426 0.262,0.482 0.294,0.536 0.327,0.588 0.360,0.637 0.392,0.685 0.425,0.729 0.458,0.771 0.490,0.809 0.523,0.844 0.556,0.876 0.588,0.905 0.621,0.930 0.654,0.951 0.686,0.969 0.719,0.982 0.752,0.992 0.785,0.998 0.817,1.000 0.850,0.998 0.883,0.992 0.915,0.982 0.948,0.969 0.981,0.951 1.013,0.930 1.046,0.905 1.079,0.876 1.111,0.844 1.144,0.809 1.177,0.771 1.209,0.729 1.242,0.685 1.275,0.637 1.308,0.588 1.340,0.536 1.373,0.482 1.406,0.426 1.438,0.368 1.471,0.309 1.504,0.249 1.536,0.187 1.569,0.125 1.602,0.063" />
<polyline points="-1.634,0.000 -1.602,-0.063 -1.569,-0.125 -1.536,-0.187 -1.504,-0.249 -1.471,-0.309 -1.438,-0.368 -1.406,-0.426 -1.373,-0.482 -1.340,-0.536 -1.308,-0.588 -1.275,-0.637 -1.242,-0.685 -1.209,-0.729 -1.177,-0.771 -1.144,-0.809 -1.111,-0.844 -1.079,-0.876 -1.046,-0.905 -1.013,-0.930 -0.981,-0.951 -0.948,-0.969 -0.915,-0.982 -0.883,-0.992 -0.850,-0.998 -0.817,-1.000 -0.785,-0.998 -0.752,-0.992 -0.719,-0.982 -0.686,-0.969 -0.654,-0.951 -0.621,-0.930 -0.588,-0.905 -0.556,-0.876 -0.523,-0.844 -0.490,-0.809 -0.458,-0.771 -0.425,-0.729 -0.392,-0.685 -0.360,-0.637 -0.327,-0.588 -0.294,-0.536 -0.262,-0.482 -0.229,-0.426 -0.196,-0.368 -0.163,-0.309 -0.131,-0.249 -0.098,-0.187 -0.065,-0.125 -0.033,-0.063 0.000,0.000 0.033,0.063 0.065,0.125 0.098,0.187 0.131,0.249 0.163,0.309 0.196,0.368 0.229,0.426 0.262,0.482 0.294,0.536 0.327,0.588 0.360,0.637 0.392,0.685 0.425,0.729 0.458,0.771 0.490,0.809 0.523,0.844 0.556,0.876 0.588,0.905 0.621,0.930 0.654,0.951 0.686,0.969 0.719,0.982 0.752,0.992 0.785,0.998 0.817,1.000 0.850,0.998 0.883,0.992 0.915,0.982 0.948,0.969 0.981,0.951 1.013,0.930 1.046,0.905 1.079,0.876 1.111,0.844 1.144,0.809 1.177,0.771 1.209,0.729 1.242,0.685 1.275,0.637 1.308,0.588 1.340,0.536 1.373,0.482 1.406,0.426 1.438,0.368 1.471,0.309 1.504,0.249 1.536,0.187 1.569,0.125 1.602,0.063" />
</g>
</svg>