<svg xmlns="http://www.w3.org/2000/svg" width="161.8" height="100.0" viewBox="-3.9633 -4.9982 171.8034 110.0000">
<g fill="none" stroke="black" stroke-width="0.0003%" transform="translate(0, 100.0035) scale(1544.6774, -1544.6774)">
<polyline points="0.0007,0.0003 0.0017,0.0020 0.0028,0.0052 0.0038,0.0096 0.0049,0.0150 0.0059,0.0212 0.0070,0.0279 0.0080,0.0348 0.0091,0.0416 0.0101,0.0478 0.0111,0.0534 0.0122,0.0580 0.0132,0.0615 0.0143,0.0638 0.0153,0.0647 0.0164,0.0644 0.0174,0.0628 0.0185,0.0601 0.0195,0.0564 0.0206,0.0519 0.0216,0.0469 0.0227,0.0414 0.0237,0.0358 0.0248,0.0303 0.0258,0.0249 0.0269,0.0199 0.0279,0.0154 0.0290,0.0114 0.0300,0.0080 0.0310,0.0053 0.0321,0.0032 0.0331,0.0017 0.0342,0.0007 0.0352,0.0001 0.0363,0.0000 0.0373,0.0002 0.0384,0.0006 0.0394,0.0011 0.0405,0.0017 0.0415,0.0024 0.0426,0.0030 0.0436,0.0035 0.0447,0.0039 0.0457,0.0042 0.0468,0.0044 0.0478,0.0045 0.0489,0.0044 0.0499,0.0043 0.0510,0.0040 0.0520,0.0037 0.0530,0.0034 0.0541,0.0030 0.0551,0.0026 0.0562,0.0022 0.0572,0.0018 0.0583,0.0014 0.0593,0.0011 0.0604,0.0008 0.0614,0.0006 0.0625,0.0004 0.0635,0.0002 0.0646,0.0001 0.0656,0.0000 0.0667,0.0000 0.0677,0.0000 0.0688,0.0000 0.0698,0.0001 0.0709,0.0001 0.0719,0.0002 0.0729,0.0003 0.0740,0.0004 0.0750,0.0005 0.0761,0.0006 0.0771,0.0007 0.0782,0.0008 0.0792,0.0009 0.0803,0.0009 0.0813,0.0010 0.0824,0.0011 0.0834,0.0011 0.0845,0.0012 0.0855,0.0012 0.0866,0.0012 0.0876,0.0013 0.0887,0.0013 0.0897,0.0013 0.0908,0.0013 0.0918,0.0013 0.0929,0.0013 0.0939,0.0013 0.0949,0.0013 0.0960,0.0013 0.0970,0.0013 0.0981,0.0013 0.0991,0.0013 0.1002,0.0013 0.1012,0.0013 0.1023,0.0013 0.1033,0.0013 0.1044,0.0013 0.1054,0.0013" />
</g>
</svg>