<svg xmlns="http://www.w3.org/2000/svg" width="161.8" height="100.0" viewBox="-3 -55 172 110">
<g fill="none" stroke="black" stroke-width="327.6600%" transform="translate(0, 0.0000) scale(0.0015, -0.0015)">

<line x1="2100" y1="0" x2="2100" y2="2052" />
<line x1="3149" y1="0" x2="3149" y2="4097" />
<line x1="4199" y1="0" x2="4199" y2="6126" />
<line x1="5249" y1="0" x2="5249" y2="8130" />
<line x1="6299" y1="0" x2="6299" y2="10103" />
<line x1="7349" y1="0" x2="7349" y2="12036" />
<line x1="8399" y1="0" x2="8399" y2="13921" />
<line x1="9448" y1="0" x2="9448" y2="15752" />
<line x1="10498" y1="0" x2="10498" y2="17521" />
<line x1="11548" y1="0" x2="11548" y2="19222" />
<line x1="12598" y1="0" x2="12598" y2="20846" />
<line x1="13648" y1="0" x2="13648" y2="22389" />
<line x1="14698" y1="0" x2="14698" y2="23844" />
<line x1="15747" y1="0" x2="15747" y2="25205" />
<line x1="16797" y1="0" x2="16797" y2="26467" />
<line x1="17847" y1="0" x2="17847" y2="27625" />
<line x1="18897" y1="0" x2="18897" y2="28675" />
<line x1="19947" y1="0" x2="19947" y2="29612" />
<line x1="20997" y1="0" x2="20997" y2="30433" />
<line x1="22046" y1="0" x2="22046" y2="31134" />
<line x1="23096" y1="0" x2="23096" y2="31713" />
<line x1="24146" y1="0" x2="24146" y2="32167" />
<line x1="25196" y1="0" x2="25196" y2="32494" />
<line x1="26246" y1="0" x2="26246" y2="32695" />
<line x1="27296" y1="0" x2="27296" y2="32766" />
<line x1="28345" y1="0" x2="28345" y2="32709" />
<line x1="29395" y1="0" x2="29395" y2="32524" />
<line x1="30445" y1="0" x2="30445" y2="32210" />
<line x1="31495" y1="0" x2="31495" y2="31770" />
<line x1="32545" y1="0" x2="32545" y2="31206" />
<line x1="33595" y1="0" x2="33595" y2="30518" />
<line x1="34644" y1="0" x2="34644" y2="29711" />
<line x1="35694" y1="0" x2="35694" y2="28787" />
<line x1="36744" y1="0" x2="36744" y2="27750" />
<line x1="37794" y1="0" x2="37794" y2="26604" />
<line x1="38844" y1="0" x2="38844" y2="25354" />
<line x1="39894" y1="0" x2="39894" y2="24004" />
<line x1="40943" y1="0" x2="40943" y2="22559" />
<line x1="41993" y1="0" x2="41993" y2="21026" />
<line x1="43043" y1="0" x2="43043" y2="19410" />
<line x1="44093" y1="0" x2="44093" y2="17718" />
<line x1="45143" y1="0" x2="45143" y2="15957" />
<line x1="46193" y1="0" x2="46193" y2="14132" />
<line x1="47242" y1="0" x2="47242" y2="12253" />
<line x1="48292" y1="0" x2="48292" y2="10325" />
<line x1="49342" y1="0" x2="49342" y2="8356" />
<line x1="50392" y1="0" x2="50392" y2="6355" />
<line x1="51442" y1="0" x2="51442" y2="4329" />
<line x1="52492" y1="0" x2="52492" y2="2285" />
<line x1="53541" y1="0" x2="53541" y2="233" />
<line x1="54591" y1="0" x2="54591" y2="-1820" />
<line x1="55641" y1="0" x2="55641" y2="-3866" />
<line x1="56691" y1="0" x2="56691" y2="-5897" />
<line x1="57741" y1="0" x2="57741" y2="-7905" />
<line x1="58791" y1="0" x2="58791" y2="-9882" />
<line x1="59840" y1="0" x2="59840" y2="-11819" />
<line x1="60890" y1="0" x2="60890" y2="-13711" />
<line x1="61940" y1="0" x2="61940" y2="-15548" />
<line x1="62990" y1="0" x2="62990" y2="-17325" />
<line x1="64040" y1="0" x2="64040" y2="-19033" />
<line x1="65090" y1="0" x2="65090" y2="-20667" />
<line x1="66139" y1="0" x2="66139" y2="-22219" />
<line x1="67189" y1="0" x2="67189" y2="-23684" />
<line x1="68239" y1="0" x2="68239" y2="-25056" />
<line x1="69289" y1="0" x2="69289" y2="-26330" />
<line x1="70339" y1="0" x2="70339" y2="-27500" />
<line x1="71389" y1="0" x2="71389" y2="-28562" />
<line x1="72438" y1="0" x2="72438" y2="-29512" />
<line x1="73488" y1="0" x2="73488" y2="-30346" />
<line x1="74538" y1="0" x2="74538" y2="-31061" />
<line x1="75588" y1="0" x2="75588" y2="-31654" />
<line x1="76638" y1="0" x2="76638" y2="-32122" />
<line x1="77688" y1="0" x2="77688" y2="-32465" />
<line x1="78737" y1="0" x2="78737" y2="-32679" />
<line x1="79787" y1="0" x2="79787" y2="-32766" />
<line x1="80837" y1="0" x2="80837" y2="-32723" />
<line x1="81887" y1="0" x2="81887" y2="-32552" />
<line x1="82937" y1="0" x2="82937" y2="-32253" />
<line x1="83987" y1="0" x2="83987" y2="-31828" />
<line x1="85036" y1="0" x2="85036" y2="-31277" />
<line x1="86086" y1="0" x2="86086" y2="-30604" />
<line x1="87136" y1="0" x2="87136" y2="-29810" />
<line x1="88186" y1="0" x2="88186" y2="-28899" />
<line x1="89236" y1="0" x2="89236" y2="-27875" />
<line x1="90286" y1="0" x2="90286" y2="-26741" />
<line x1="91335" y1="0" x2="91335" y2="-25502" />
<line x1="92385" y1="0" x2="92385" y2="-24163" />
<line x1="93435" y1="0" x2="93435" y2="-22729" />
<line x1="94485" y1="0" x2="94485" y2="-21205" />
<line x1="95535" y1="0" x2="95535" y2="-19599" />
<line x1="96585" y1="0" x2="96585" y2="-17915" />
<line x1="97634" y1="0" x2="97634" y2="-16161" />
<line x1="98684" y1="0" x2="98684" y2="-14344" />
<line x1="99734" y1="0" x2="99734" y2="-12470" />
<line x1="100784" y1="0" x2="100784" y2="-10547" />
<line x1="101834" y1="0" x2="101834" y2="-8583" />
<line x1="102884" y1="0" x2="102884" y2="-6585" />
<line x1="103933" y1="0" x2="103933" y2="-4561" />
<line x1="104983" y1="0" x2="104983" y2="-2519" />
<line x1="106033" y1="0" x2="106033" y2="-467" />
<line x1="107083" y1="0" x2="107083" y2="1586" />
</g>
</svg>