<svg xmlns="http://www.w3.org/2000/svg" width="100.0" height="100.0" viewBox="-55.000 -5.000 110.000 110.000">
<g fill="none" stroke="black" stroke-width="0.0050%" transform="translate(0, 100.0000) scale(100.0000, -100.0000)">
<circle cx="0.000" cy="1.000" r="0.005" />
<polyline points="-0.500,0.000 -0.490,0.020 -0.480,0.042 -0.470,0.063 -0.460,0.086 -0.450,0.109 -0.440,0.133 -0.430,0.158 -0.420,0.183 -0.410,0.208 -0.400,0.234 -0.390,0.260 -0.380,0.287 -0.370,0.314 -0.360,0.341 -0.350,0.368 -0.340,0.395 -0.330,0.423 -0.320,0.450 -0.310,0.477 -0.300,0.505 -0.290,0.532 -0.280,0.558 -0.270,0.585 -0.260,0.611 -0.250,0.637 -0.240,0.662 -0.230,0.687 -0.220,0.711 -0.210,0.734 -0.200,0.757 -0.190,0.779 -0.180,0.800 -0.170,0.820 -0.160,0.840 -0.150,0.858 -0.140,0.876 -0.130,0.892 -0.120,0.908 -0.110,0.922 -0.100,0.935 -0.090,0.948 -0.080,0.958 -0.070,0.968 -0.060,0.976 -0.050,0.984 -0.040,0.990 -0.030,0.994 -0.020,0.997 -0.010,0.999 0.000,1.000 0.010,0.999 0.020,0.997 0.030,0.994 0.040,0.990 0.050,0.984 0.060,0.976 0.070,0.968 0.080,0.958 0.090,0.948 0.100,0.935 0.110,0.922 0.120,0.908 0.130,0.892 0.140,0.876 0.150,0.858 0.160,0.840 0.170,0.820 0.180,0.800 0.190,0.779 0.200,0.757 0.210,0.734 0.220,0.711 0.230,0.687 0.240,0.662 0.250,0.637 0.260,0.611 0.270,0.585 0.280,0.558 0.290,0.532 0.300,0.505 0.310,0.477 0.320,0.450 0.330,0.423 0.340,0.395 0.350,0.368 0.360,0.341 0.370,0.314 0.380,0.287 0.390,0.260 0.400,0.234 0.410,0.208 0.420,0.183 0.430,0.158 0.440,0.133 0.450,0.109 0.460,0.086 0.470,0.063 0.480,0.042 0.490,0.020 0.500,0.000" />
</g>
</svg>