<svg xmlns="http://www.w3.org/2000/svg" width="161.8" height="100.0" viewBox="-4.7 -105.0 171.8 110.0">
<g fill="none" stroke="black" stroke-width="0.4702%" transform="translate(0, -100.0000) scale(1.0634, -1.0634)">
<circle cx="0.3" cy="0.0" r="0.5" />
<polyline points="0.3,-56.9 0.6,-57.3 0.9,-58.6 1.2,-61.2 1.5,-66.3 1.8,-85.8 2.1,-68.3 2.4,-62.1 2.7,-59.1 3.0,-57.5 3.3,-56.9 3.6,-57.1 3.9,-58.2 4.2,-60.4 4.5,-64.7 4.8,-76.3 5.1,-70.8 5.4,-63.0 5.7,-59.5 6.0,-57.7 6.3,-56.8 6.6,-56.8 6.8,-57.7 7.1,-59.7 7.4,-63.3 7.7,-71.7 8.0,-74.4 8.3,-64.1 8.6,-60.0 8.9,-57.8 9.2,-56.8 9.5,-56.6 9.8,-57.3 10.1,-58.9 10.4,-62.0 10.7,-68.6 11.0,-81.1 11.3,-65.4 11.6,-60.5 11.9,-58.0 12.2,-56.7 12.5,-56.3 12.8,-56.8 13.1,-58.2 13.4,-60.9 13.7,-66.2 14.0,-94.0 14.3,-66.9 14.6,-61.0 14.9,-58.1 15.2,-56.6 15.5,-56.0 15.8,-56.3 16.1,-57.4 16.4,-59.7 16.7,-64.2 17.0,-77.4 17.3,-68.9 17.6,-61.7 17.9,-58.3 18.2,-56.5 18.5,-55.7 18.8,-55.7 19.1,-56.6 19.4,-58.6 19.7,-62.5 19.9,-71.7 20.2,-71.7 20.5,-62.4 20.8,-58.4 21.1,-56.3 21.4,-55.3 21.7,-55.2 22.0,-55.9 22.3,-57.6 22.6,-60.8 22.9,-67.9 23.2,-76.5 23.5,-63.2 23.8,-58.6 24.1,-56.1 24.4,-54.9 24.7,-54.5 25.0,-55.0 25.3,-56.5 25.6,-59.3 25.9,-65.0 26.2,-92.8 26.5,-64.2 26.8,-58.7 27.1,-55.9 27.4,-54.4 27.7,-53.9 28.0,-54.2 28.3,-55.4 28.6,-57.8 28.9,-62.6 29.2,-78.2 29.5,-65.6 29.8,-58.9 30.1,-55.7 30.4,-54.0 30.7,-53.2 31.0,-53.3 31.3,-54.2 31.6,-56.3 31.9,-60.3 32.2,-70.6 32.5,-67.7 32.8,-59.2 33.1,-55.4 33.3,-53.4 33.6,-52.4 33.9,-52.3 34.2,-53.1 34.5,-54.8 34.8,-58.3 35.1,-66.0 35.4,-71.0 35.7,-59.5 36.0,-55.1 36.3,-52.8 36.6,-51.6 36.9,-51.3 37.2,-51.8 37.5,-53.3 37.8,-56.3 38.1,-62.4 38.4,-78.5 38.7,-60.0 39.0,-54.8 39.3,-52.1 39.6,-50.7 39.9,-50.2 40.2,-50.5 40.5,-51.7 40.8,-54.3 41.1,-59.4 41.4,-80.9 41.7,-60.6 42.0,-54.4 42.3,-51.3 42.6,-49.7 42.9,-48.9 43.2,-49.1 43.5,-50.1 43.8,-52.2 44.1,-56.5 44.4,-68.8 44.7,-61.6 45.0,-54.0 45.3,-50.5 45.6,-48.5 45.9,-47.6 46.2,-47.5 46.5,-48.3 46.7,-50.1 47.0,-53.8 47.3,-62.7 47.6,-63.2 47.9,-53.5 48.2,-49.4 48.5,-47.2 48.8,-46.0 49.1,-45.8 49.4,-46.3 49.7,-47.9 50.0,-51.0 50.3,-58.0 50.6,-66.4 50.9,-53.0 51.2,-48.2 51.5,-45.7 51.8,-44.3 52.1,-43.8 52.4,-44.2 52.7,-45.5 53.0,-48.2 53.3,-53.9 53.6,-75.9 53.9,-52.3 54.2,-46.8 54.5,-43.8 54.8,-42.2 55.1,-41.5 55.4,-41.7 55.7,-42.8 56.0,-45.1 56.3,-50.0 56.6,-69.3 56.9,-51.4 57.2,-44.9 57.5,-41.6 57.8,-39.8 58.1,-38.9 58.4,-38.8 58.7,-39.7 59.0,-41.7 59.3,-45.9 59.6,-58.6 59.8,-50.0 60.1,-42.5 60.4,-38.8 60.7,-36.7 61.0,-35.6 61.3,-35.3 61.6,-36.0 61.9,-37.7 62.2,-41.5 62.5,-51.7 62.8,-47.7 63.1,-39.0 63.4,-35.0 63.7,-32.6 64.0,-31.3 64.3,-30.8 64.6,-31.2 64.9,-32.8 65.2,-36.3 65.5,-46.0 65.8,-42.4 66.1,-33.4 66.4,-29.0 66.7,-26.4 67.0,-24.8 67.3,-24.1 67.6,-24.4 67.9,-25.9 68.2,-29.9 68.5,-49.9 68.8,-28.8 69.1,-21.2 69.4,-16.6 69.7,-13.2 70.0,-10.6 70.3,-8.4 70.6,-6.6 70.9,-5.1 71.2,-3.9 71.5,-2.8 71.8,-2.0 72.1,-1.3 72.4,-0.8 72.7,-0.4 73.0,-0.2 73.2,-0.0 73.5,0.0 73.8,-0.1 74.1,-0.2 74.4,-0.4 74.7,-0.7 75.0,-1.0 75.3,-1.2 75.6,-1.5 75.9,-1.7 76.2,-1.8 76.5,-1.9 76.8,-1.8 77.1,-1.7 77.4,-1.5 77.7,-1.2 78.0,-1.0 78.3,-0.7 78.6,-0.4 78.9,-0.2 79.2,-0.1 79.5,0.0 79.8,-0.0 80.1,-0.2 80.4,-0.4 80.7,-0.8 81.0,-1.3 81.3,-2.0 81.6,-2.8 81.9,-3.9 82.2,-5.1 82.5,-6.6 82.8,-8.4 83.1,-10.6 83.4,-13.2 83.7,-16.6 84.0,-21.2 84.3,-28.8 84.6,-49.9 84.9,-29.9 85.2,-25.9 85.5,-24.4 85.8,-24.1 86.1,-24.8 86.4,-26.4 86.6,-29.0 86.9,-33.4 87.2,-42.4 87.5,-46.0 87.8,-36.3 88.1,-32.8 88.4,-31.2 88.7,-30.8 89.0,-31.3 89.3,-32.6 89.6,-35.0 89.9,-39.0 90.2,-47.7 90.5,-51.7 90.8,-41.5 91.1,-37.7 91.4,-36.0 91.7,-35.3 92.0,-35.6 92.3,-36.7 92.6,-38.8 92.9,-42.5 93.2,-50.0 93.5,-58.6 93.8,-45.9 94.1,-41.7 94.4,-39.7 94.7,-38.8 95.0,-38.9 95.3,-39.8 95.6,-41.6 95.9,-44.9 96.2,-51.4 96.5,-69.3 96.8,-50.0 97.1,-45.1 97.4,-42.8 97.7,-41.7 98.0,-41.5 98.3,-42.2 98.6,-43.8 98.9,-46.8 99.2,-52.3 99.5,-75.9 99.7,-53.9 100.0,-48.2 100.3,-45.5 100.6,-44.2 100.9,-43.8 101.2,-44.3 101.5,-45.7 101.8,-48.2 102.1,-53.0 102.4,-66.4 102.7,-58.0 103.0,-51.0 103.3,-47.9 103.6,-46.3 103.9,-45.8 104.2,-46.0 104.5,-47.2 104.8,-49.4 105.1,-53.5 105.4,-63.2 105.7,-62.7 106.0,-53.8 106.3,-50.1 106.6,-48.3 106.9,-47.5 107.2,-47.6 107.5,-48.5 107.8,-50.5 108.1,-54.0 108.4,-61.6 108.7,-68.8 109.0,-56.5 109.3,-52.2 109.6,-50.1 109.9,-49.1 110.2,-48.9 110.5,-49.7 110.8,-51.3 111.1,-54.4 111.4,-60.6 111.7,-80.9 112.0,-59.4 112.3,-54.3 112.6,-51.7 112.9,-50.5 113.1,-50.2 113.4,-50.7 113.7,-52.1 114.0,-54.8 114.3,-60.0 114.6,-78.5 114.9,-62.4 115.2,-56.3 115.5,-53.3 115.8,-51.8 116.1,-51.3 116.4,-51.6 116.7,-52.8 117.0,-55.1 117.3,-59.5 117.6,-71.0 117.9,-66.0 118.2,-58.3 118.5,-54.8 118.8,-53.1 119.1,-52.3 119.4,-52.4 119.7,-53.4 120.0,-55.4 120.3,-59.2 120.6,-67.7 120.9,-70.6 121.2,-60.3 121.5,-56.3 121.8,-54.2 122.1,-53.3 122.4,-53.2 122.7,-54.0 123.0,-55.7 123.3,-58.9 123.6,-65.6 123.9,-78.2 124.2,-62.6 124.5,-57.8 124.8,-55.4 125.1,-54.2 125.4,-53.9 125.7,-54.4 126.0,-55.9 126.3,-58.7 126.5,-64.2 126.8,-92.8 127.1,-65.0 127.4,-59.3 127.7,-56.5 128.0,-55.0 128.3,-54.5 128.6,-54.9 128.9,-56.1 129.2,-58.6 129.5,-63.2 129.8,-76.5 130.1,-67.9 130.4,-60.8 130.7,-57.6 131.0,-55.9 131.3,-55.2 131.6,-55.3 131.9,-56.3 132.2,-58.4 132.5,-62.4 132.8,-71.7 133.1,-71.7 133.4,-62.5 133.7,-58.6 134.0,-56.6 134.3,-55.7 134.6,-55.7 134.9,-56.5 135.2,-58.3 135.5,-61.7 135.8,-68.9 136.1,-77.4 136.4,-64.2 136.7,-59.7 137.0,-57.4 137.3,-56.3 137.6,-56.0 137.9,-56.6 138.2,-58.1 138.5,-61.0 138.8,-66.9 139.1,-94.0 139.4,-66.2 139.6,-60.9 139.9,-58.2 140.2,-56.8 140.5,-56.3 140.8,-56.7 141.1,-58.0 141.4,-60.5 141.7,-65.4 142.0,-81.1 142.3,-68.6 142.6,-62.0 142.9,-58.9 143.2,-57.3 143.5,-56.6 143.8,-56.8 144.1,-57.8 144.4,-60.0 144.7,-64.1 145.0,-74.4 145.3,-71.7 145.6,-63.3 145.9,-59.7 146.2,-57.7 146.5,-56.8 146.8,-56.8 147.1,-57.7 147.4,-59.5 147.7,-63.0 148.0,-70.8 148.3,-76.3 148.6,-64.7 148.9,-60.4 149.2,-58.2 149.5,-57.1 149.8,-56.9 150.1,-57.5 150.4,-59.1 150.7,-62.1 151.0,-68.3 151.3,-85.8 151.6,-66.3 151.9,-61.2 152.2,-58.6 152.5,-57.3" />
</g>
</svg>