<svg xmlns="http://www.w3.org/2000/svg" width="161.8" height="100.0" viewBox="-4.191 -22.779 171.803 110.000">
<g fill="none" stroke="black" stroke-width="0.0061%" transform="translate(0, 64.4417) scale(82.2209, -82.2209)">
<circle cx="0.010" cy="0.000" r="0.006" />
<polyline points="0.010,-0.000 0.020,-0.010 0.030,-0.019 0.039,-0.027 0.049,-0.032 0.059,-0.034 0.069,-0.032 0.079,-0.028 0.089,-0.020 0.098,-0.011 0.108,-0.000 0.118,0.011 0.128,0.021 0.138,0.030 0.148,0.035 0.157,0.037 0.167,0.036 0.177,0.031 0.187,0.023 0.197,0.012 0.207,0.000 0.216,-0.012 0.226,-0.024 0.236,-0.033 0.246,-0.040 0.256,-0.042 0.266,-0.041 0.276,-0.035 0.285,-0.026 0.295,-0.014 0.305,-0.000 0.315,0.014 0.325,0.028 0.335,0.038 0.344,0.046 0.354,0.049 0.364,0.047 0.374,0.041 0.384,0.030 0.394,0.016 0.403,0.000 0.413,-0.017 0.423,-0.032 0.433,-0.045 0.443,-0.054 0.453,-0.058 0.462,-0.056 0.472,-0.049 0.482,-0.036 0.492,-0.019 0.502,-0.000 0.512,0.020 0.521,0.039 0.531,0.055 0.541,0.066 0.551,0.071 0.561,0.069 0.571,0.060 0.581,0.045 0.590,0.024 0.600,0.000 0.610,-0.025 0.620,-0.049 0.630,-0.070 0.640,-0.084 0.649,-0.091 0.659,-0.089 0.669,-0.078 0.679,-0.058 0.689,-0.032 0.699,-0.000 0.708,0.034 0.718,0.067 0.728,0.095 0.738,0.116 0.748,0.127 0.758,0.126 0.767,0.112 0.777,0.085 0.787,0.047 0.797,0.000 0.807,-0.052 0.817,-0.104 0.827,-0.151 0.836,-0.189 0.846,-0.212 0.856,-0.216 0.866,-0.198 0.876,-0.156 0.886,-0.089 0.895,-0.000 0.905,0.109 0.915,0.234 0.925,0.368 0.935,0.505 0.945,0.637 0.954,0.757 0.964,0.858 0.974,0.935 0.984,0.984 0.994,1.000 1.004,0.984 1.013,0.935 1.023,0.858 1.033,0.757 1.043,0.637 1.053,0.505 1.063,0.368 1.073,0.234 1.082,0.109 1.092,0.000 1.102,-0.089 1.112,-0.156 1.122,-0.198 1.132,-0.216 1.141,-0.212 1.151,-0.189 1.161,-0.151 1.171,-0.104 1.181,-0.052 1.191,-0.000 1.200,0.047 1.210,0.085 1.220,0.112 1.230,0.126 1.240,0.127 1.250,0.116 1.259,0.095 1.269,0.067 1.279,0.034 1.289,0.000 1.299,-0.032 1.309,-0.058 1.319,-0.078 1.328,-0.089 1.338,-0.091 1.348,-0.084 1.358,-0.070 1.368,-0.049 1.378,-0.025 1.387,-0.000 1.397,0.024 1.407,0.045 1.417,0.060 1.427,0.069 1.437,0.071 1.446,0.066 1.456,0.055 1.466,0.039 1.476,0.020 1.486,0.000 1.496,-0.019 1.505,-0.036 1.515,-0.049 1.525,-0.056 1.535,-0.058 1.545,-0.054 1.555,-0.045 1.564,-0.032 1.574,-0.017 1.584,-0.000 1.594,0.016 1.604,0.030 1.614,0.041 1.624,0.047 1.633,0.049 1.643,0.046 1.653,0.038 1.663,0.028 1.673,0.014 1.683,0.000 1.692,-0.014 1.702,-0.026 1.712,-0.035 1.722,-0.041 1.732,-0.042 1.742,-0.040 1.751,-0.033 1.761,-0.024 1.771,-0.012 1.781,-0.000 1.791,0.012 1.801,0.023 1.810,0.031 1.820,0.036 1.830,0.037 1.840,0.035 1.850,0.030 1.860,0.021 1.870,0.011 1.879,0.000 1.889,-0.011 1.899,-0.020 1.909,-0.028 1.919,-0.032 1.929,-0.034 1.938,-0.032 1.948,-0.027 1.958,-0.019 1.968,-0.010 1.978,-0.000" />
</g>
</svg>