<svg xmlns="http://www.w3.org/2000/svg" width="161.8" height="100.0" viewBox="-85.902 -4.999 171.803 110.000">
<g fill="none" stroke="black" stroke-width="0.0050%" transform="translate(0, 100.0023) scale(100.0012, -100.0012)">
<circle cx="0.000" cy="1.000" r="0.005" />
<polyline points="-0.809,0.003 -0.793,0.004 -0.777,0.006 -0.760,0.007 -0.744,0.009 -0.728,0.010 -0.712,0.012 -0.696,0.013 -0.680,0.015 -0.663,0.016 -0.647,0.016 -0.631,0.016 -0.615,0.016 -0.599,0.015 -0.582,0.014 -0.566,0.012 -0.550,0.010 -0.534,0.007 -0.518,0.005 -0.502,0.003 -0.485,0.001 -0.469,0.000 -0.453,0.001 -0.437,0.003 -0.421,0.006 -0.405,0.012 -0.388,0.019 -0.372,0.027 -0.356,0.034 -0.340,0.041 -0.324,0.046 -0.307,0.047 -0.291,0.044 -0.275,0.038 -0.259,0.028 -0.243,0.016 -0.227,0.005 -0.210,0.000 -0.194,0.005 -0.178,0.025 -0.162,0.065 -0.146,0.127 -0.129,0.213 -0.113,0.320 -0.097,0.444 -0.081,0.576 -0.065,0.707 -0.049,0.825 -0.032,0.919 -0.016,0.979 0.000,1.000 0.016,0.979 0.032,0.919 0.049,0.825 0.065,0.707 0.081,0.576 0.097,0.444 0.113,0.320 0.129,0.213 0.146,0.127 0.162,0.065 0.178,0.025 0.194,0.005 0.210,0.000 0.227,0.005 0.243,0.016 0.259,0.028 0.275,0.038 0.291,0.044 0.307,0.047 0.324,0.046 0.340,0.041 0.356,0.034 0.372,0.027 0.388,0.019 0.405,0.012 0.421,0.006 0.437,0.003 0.453,0.001 0.469,0.000 0.485,0.001 0.502,0.003 0.518,0.005 0.534,0.007 0.550,0.010 0.566,0.012 0.582,0.014 0.599,0.015 0.615,0.016 0.631,0.016 0.647,0.016 0.663,0.016 0.680,0.015 0.696,0.013 0.712,0.012 0.728,0.010 0.744,0.009 0.760,0.007 0.777,0.006 0.793,0.004 0.809,0.003" />
</g>
</svg>