<svg xmlns="http://www.w3.org/2000/svg" width="161.8" height="100.0" viewBox="6.557 -22.846 171.803 110.000">
<g fill="none" stroke="black" stroke-width="0.0061%" transform="translate(0, 64.3074) scale(82.1537, -82.1537)">
<line x1="0.141" y1="0.000" x2="0.141" y2="-0.000" />
<line x1="0.281" y1="0.000" x2="0.281" y2="-0.145" />
<line x1="0.422" y1="0.000" x2="0.422" y2="-0.217" />
<line x1="0.563" y1="0.000" x2="0.563" y2="-0.121" />
<line x1="0.703" y1="0.000" x2="0.703" y2="0.161" />
<line x1="0.844" y1="0.000" x2="0.844" y2="0.543" />
<line x1="0.985" y1="0.000" x2="0.985" y2="0.871" />
<line x1="1.125" y1="0.000" x2="1.125" y2="1.000" />
<line x1="1.266" y1="0.000" x2="1.266" y2="0.871" />
<line x1="1.407" y1="0.000" x2="1.407" y2="0.543" />
<line x1="1.547" y1="0.000" x2="1.547" y2="0.161" />
<line x1="1.688" y1="0.000" x2="1.688" y2="-0.121" />
<line x1="1.829" y1="0.000" x2="1.829" y2="-0.217" />
<line x1="1.970" y1="0.000" x2="1.970" y2="-0.145" />
<line x1="2.110" y1="0.000" x2="2.110" y2="-0.000" />
</g>
</svg>