<svg xmlns="http://www.w3.org/2000/svg" width="161.8" height="100.0" viewBox="-85.90 -55.00 171.80 110.00">
<g fill="none" stroke="black" stroke-width="0.1155%" transform="translate(0, 0.0000) scale(4.3295, -4.3295)">
<polyline points="-18.69,-11.55 -18.31,-10.84 -17.94,-10.18 -17.57,-9.56 -17.19,-8.97 -16.82,-8.42 -16.44,-7.90 -16.07,-7.42 -15.70,-6.96 -15.32,-6.53 -14.95,-6.13 -14.58,-5.75 -14.20,-5.40 -13.83,-5.06 -13.45,-4.75 -13.08,-4.45 -12.71,-4.17 -12.33,-3.91 -11.96,-3.67 -11.59,-3.44 -11.21,-3.22 -10.84,-3.01 -10.46,-2.82 -10.09,-2.64 -9.72,-2.46 -9.34,-2.30 -8.97,-2.15 -8.60,-2.00 -8.22,-1.87 -7.85,-1.74 -7.47,-1.61 -7.10,-1.50 -6.73,-1.39 -6.35,-1.28 -5.98,-1.18 -5.61,-1.09 -5.23,-1.00 -4.86,-0.91 -4.48,-0.83 -4.11,-0.75 -3.74,-0.67 -3.36,-0.60 -2.99,-0.52 -2.62,-0.45 -2.24,-0.39 -1.87,-0.32 -1.49,-0.25 -1.12,-0.19 -0.75,-0.13 -0.37,-0.06 0.00,0.00 0.37,0.06 0.75,0.13 1.12,0.19 1.49,0.25 1.87,0.32 2.24,0.39 2.62,0.45 2.99,0.52 3.36,0.60 3.74,0.67 4.11,0.75 4.48,0.83 4.86,0.91 5.23,1.00 5.61,1.09 5.98,1.18 6.35,1.28 6.73,1.39 7.10,1.50 7.47,1.61 7.85,1.74 8.22,1.87 8.60,2.00 8.97,2.15 9.34,2.30 9.72,2.46 10.09,2.64 10.46,2.82 10.84,3.01 11.21,3.22 11.59,3.44 11.96,3.67 12.33,3.91 12.71,4.17 13.08,4.45 13.45,4.75 13.83,5.06 14.20,5.40 14.58,5.75 14.95,6.13 15.32,6.53 15.70,6.96 16.07,7.42 16.44,7.90 16.82,8.42 17.19,8.97 17.57,9.56 17.94,10.18 18.31,10.84 18.69,11.55" />
<polyline points="-18.69,-11.55 -18.31,-10.84 -17.94,-10.18 -17.57,-9.56 -17.19,-8.97 -16.82,-8.42 -16.44,-7.90 -16.07,-7.42 -15.70,-6.96 -15.32,-6.53 -14.95,-6.13 -14.58,-5.75 -14.20,-5.40 -13.83,-5.06 -13.45,-4.75 -13.08,-4.45 -12.71,-4.17 -12.33,-3.91 -11.96,-3.67 -11.59,-3.44 -11.21,-3.22 -10.84,-3.01 -10.46,-2.82 -10.09,-2.64 -9.72,-2.46 -9.34,-2.30 -8.97,-2.15 -8.60,-2.00 -8.22,-1.87 -7.85,-1.74 -7.47,-1.61 -7.10,-1.50 -6.73,-1.39 -6.35,-1.28 -5.98,-1.18 -5.61,-1.09 -5.23,-1.00 -4.86,-0.91 -4.48,-0.83 -4.11,-0.75 -3.74,-0.67 -3.36,-0.60 -2.99,-0.52 -2.62,-0.45 -2.24,-0.39 -1.87,-0.32 -1.49,-0.25 -1.12,-0.19 -0.75,-0.13 -0.37,-0.06 0.00,0.00 0.37,0.06 0.75,0.13 1.12,0.19 1.49,0.25 1.87,0.32 2.24,0.39 2.62,0.45 2.99,0.52 3.36,0.60 3.74,0.67 4.11,0.75 4.48,0.83 4.86,0.91 5.23,1.00 5.61,1.09 5.98,1.18 6.35,1.28 6.73,1.39 7.10,1.50 7.47,1.61 7.85,1.74 8.22,1.87 8.60,2.00 8.97,2.15 9.34,2.30 9.72,2.46 10.09,2.64 10.46,2.82 10.84,3.01 11.21,3.22 11.59,3.44 11.96,3.67 12.33,3.91 12.71,4.17 13.08,4.45 13.45,4.75 13.83,5.06 14.20,5.40 14.58,5.75 14.95,6.13 15.32,6.53 15.70,6.96 16.07,7.42 16.44,7.90 16.82,8.42 17.19,8.97 17.57,9.56 17.94,10.18 18.31,10.84 18.69,11.55" />
</g>
</svg>