<svg xmlns="http://www.w3.org/2000/svg" width="161.8" height="100.0" viewBox="-5.000 95.018 171.803 110.000">
<g fill="none" stroke="black" stroke-width="0.0025%" transform="translate(0, 300.0363) scale(200.0182, -200.0182)">
<polyline points="0.000,1.000 0.008,0.995 0.016,0.984 0.024,0.966 0.032,0.946 0.040,0.923 0.049,0.898 0.057,0.873 0.065,0.848 0.073,0.824 0.081,0.800 0.089,0.777 0.097,0.756 0.105,0.735 0.113,0.716 0.121,0.698 0.129,0.682 0.138,0.666 0.146,0.652 0.154,0.638 0.162,0.626 0.170,0.615 0.178,0.605 0.186,0.595 0.194,0.587 0.202,0.579 0.210,0.572 0.218,0.565 0.227,0.559 0.235,0.554 0.243,0.549 0.251,0.544 0.259,0.540 0.267,0.536 0.275,0.533 0.283,0.530 0.291,0.527 0.299,0.524 0.307,0.522 0.315,0.520 0.324,0.518 0.332,0.516 0.340,0.515 0.348,0.513 0.356,0.512 0.364,0.511 0.372,0.510 0.380,0.509 0.388,0.508 0.396,0.507 0.404,0.507 0.413,0.506 0.421,0.506 0.429,0.505 0.437,0.505 0.445,0.504 0.453,0.504 0.461,0.503 0.469,0.503 0.477,0.503 0.485,0.502 0.493,0.502 0.502,0.502 0.510,0.502 0.518,0.502 0.526,0.502 0.534,0.501 0.542,0.501 0.550,0.501 0.558,0.501 0.566,0.501 0.574,0.501 0.582,0.501 0.591,0.501 0.599,0.501 0.607,0.501 0.615,0.501 0.623,0.500 0.631,0.500 0.639,0.500 0.647,0.500 0.655,0.500 0.663,0.500 0.671,0.500 0.680,0.500 0.688,0.500 0.696,0.500 0.704,0.500 0.712,0.500 0.720,0.500 0.728,0.500 0.736,0.500 0.744,0.500 0.752,0.500 0.760,0.500 0.768,0.500 0.777,0.500 0.785,0.500 0.793,0.500 0.801,0.500 0.809,0.500" />
</g>
</svg>