<svg xmlns="http://www.w3.org/2000/svg" width="90.6" height="100.0" viewBox="-39.998 -55.000 100.566 110.000">
<g fill="none" stroke="black" stroke-width="0.0113%" transform="translate(0, -0.0000) scale(44.1051, -44.1051)">
<polyline points="1.260,0.000 1.257,0.040 1.250,0.079 1.237,0.118 1.219,0.156 1.196,0.191 1.168,0.225 1.134,0.256 1.095,0.284 1.050,0.308 0.998,0.328 0.940,0.342 0.873,0.349 0.795,0.348 0.703,0.335 0.585,0.301 0.399,0.222 -0.392,-0.235 -0.553,-0.356 -0.641,-0.441 -0.699,-0.515 -0.739,-0.581 -0.766,-0.643 -0.783,-0.701 -0.792,-0.755 -0.794,-0.806 -0.789,-0.854 -0.779,-0.899 -0.764,-0.940 -0.744,-0.978 -0.721,-1.012 -0.694,-1.043 -0.663,-1.069 -0.630,-1.091 -0.594,-1.109 -0.556,-1.122 -0.516,-1.130 -0.475,-1.134 -0.432,-1.132 -0.389,-1.124 -0.345,-1.110 -0.301,-1.090 -0.258,-1.063 -0.215,-1.028 -0.174,-0.985 -0.134,-0.931 -0.096,-0.863 -0.062,-0.776 -0.031,-0.657 -0.007,-0.456 -0.007,0.456 -0.031,0.657 -0.062,0.776 -0.096,0.863 -0.134,0.931 -0.174,0.985 -0.215,1.028 -0.258,1.063 -0.301,1.090 -0.345,1.110 -0.389,1.124 -0.432,1.132 -0.475,1.134 -0.516,1.130 -0.556,1.122 -0.594,1.109 -0.630,1.091 -0.663,1.069 -0.694,1.043 -0.721,1.012 -0.744,0.978 -0.764,0.940 -0.779,0.899 -0.789,0.854 -0.794,0.806 -0.792,0.755 -0.783,0.701 -0.766,0.643 -0.739,0.581 -0.699,0.515 -0.641,0.441 -0.553,0.356 -0.392,0.235 0.399,-0.222 0.585,-0.301 0.703,-0.335 0.795,-0.348 0.873,-0.349 0.940,-0.342 0.998,-0.328 1.050,-0.308 1.095,-0.284 1.134,-0.256 1.168,-0.225 1.196,-0.191 1.219,-0.156 1.237,-0.118 1.250,-0.079 1.257,-0.040 1.260,-0.000" />
</g>
</svg>