<svg xmlns="http://www.w3.org/2000/svg" width="161.8" height="100.0" viewBox="-85.902 -5.000 171.803 110.000">
<g fill="none" stroke="black" stroke-width="0.0017%" transform="translate(0, 100.0000) scale(287.2827, -287.2827)">
<circle cx="-0.282" cy="0.000" r="0.002" />
<circle cx="0.000" cy="0.348" r="0.002" />
<polyline points="-0.282,0.018 -0.276,0.020 -0.270,0.022 -0.265,0.025 -0.259,0.028 -0.253,0.032 -0.248,0.035 -0.242,0.040 -0.237,0.044 -0.231,0.049 -0.225,0.054 -0.220,0.060 -0.214,0.066 -0.208,0.072 -0.203,0.079 -0.197,0.086 -0.191,0.094 -0.186,0.102 -0.180,0.111 -0.175,0.120 -0.169,0.130 -0.163,0.139 -0.158,0.150 -0.152,0.160 -0.146,0.171 -0.141,0.183 -0.135,0.194 -0.130,0.206 -0.124,0.218 -0.118,0.230 -0.113,0.242 -0.107,0.254 -0.101,0.265 -0.096,0.276 -0.090,0.287 -0.084,0.297 -0.079,0.307 -0.073,0.315 -0.068,0.321 -0.062,0.326 -0.056,0.329 -0.051,0.329 -0.045,0.326 -0.039,0.320 -0.034,0.311 -0.028,0.299 -0.023,0.284 -0.017,0.266 -0.011,0.245 -0.006,0.223 -0.000,0.199 0.006,0.175 0.011,0.152 0.017,0.129 0.023,0.107 0.028,0.088 0.034,0.070 0.039,0.055 0.045,0.042 0.051,0.032 0.056,0.024 0.062,0.017 0.068,0.012 0.073,0.008 0.079,0.006 0.084,0.004 0.090,0.002 0.096,0.001 0.101,0.001 0.107,0.001 0.113,0.000 0.118,0.000 0.124,0.000 0.130,0.000 0.135,0.000 0.141,0.000 0.146,0.000 0.152,0.000 0.158,0.000 0.163,0.000 0.169,0.000 0.175,0.000 0.180,0.000 0.186,0.000 0.191,0.000 0.197,0.000 0.203,0.000 0.208,0.000 0.214,0.000 0.220,0.000 0.225,0.000 0.231,0.000 0.237,0.000 0.242,0.000 0.248,0.000 0.253,0.000 0.259,0.000 0.265,0.000 0.270,0.000 0.276,0.000 0.282,0.000" />
<polyline points="-0.282,0.002 -0.276,0.002 -0.270,0.003 -0.265,0.003 -0.259,0.004 -0.253,0.004 -0.248,0.005 -0.242,0.006 -0.237,0.006 -0.231,0.007 -0.225,0.009 -0.220,0.010 -0.214,0.011 -0.208,0.013 -0.203,0.015 -0.197,0.016 -0.191,0.019 -0.186,0.021 -0.180,0.023 -0.175,0.026 -0.169,0.029 -0.163,0.033 -0.158,0.036 -0.152,0.040 -0.146,0.044 -0.141,0.049 -0.135,0.053 -0.130,0.058 -0.124,0.063 -0.118,0.069 -0.113,0.075 -0.107,0.081 -0.101,0.087 -0.096,0.093 -0.090,0.100 -0.084,0.107 -0.079,0.113 -0.073,0.120 -0.068,0.127 -0.062,0.134 -0.056,0.141 -0.051,0.148 -0.045,0.155 -0.039,0.162 -0.034,0.168 -0.028,0.174 -0.023,0.180 -0.017,0.185 -0.011,0.191 -0.006,0.195 -0.000,0.199 0.006,0.203 0.011,0.206 0.017,0.209 0.023,0.211 0.028,0.213 0.034,0.213 0.039,0.214 0.045,0.213 0.051,0.212 0.056,0.211 0.062,0.209 0.068,0.206 0.073,0.203 0.079,0.199 0.084,0.195 0.090,0.190 0.096,0.185 0.101,0.179 0.107,0.173 0.113,0.167 0.118,0.161 0.124,0.154 0.130,0.148 0.135,0.141 0.141,0.134 0.146,0.127 0.152,0.120 0.158,0.113 0.163,0.107 0.169,0.100 0.175,0.094 0.180,0.087 0.186,0.081 0.191,0.075 0.197,0.070 0.203,0.064 0.208,0.059 0.214,0.054 0.220,0.050 0.225,0.045 0.231,0.041 0.237,0.038 0.242,0.034 0.248,0.031 0.253,0.028 0.259,0.025 0.265,0.022 0.270,0.020 0.276,0.018 0.282,0.016" />
<polyline points="-0.282,0.000 -0.276,0.000 -0.270,0.000 -0.265,0.000 -0.259,0.000 -0.253,0.000 -0.248,0.000 -0.242,0.000 -0.237,0.000 -0.231,0.000 -0.225,0.000 -0.220,0.000 -0.214,0.000 -0.208,0.000 -0.203,0.000 -0.197,0.000 -0.191,0.000 -0.186,0.000 -0.180,0.000 -0.175,0.000 -0.169,0.000 -0.163,0.000 -0.158,0.000 -0.152,0.000 -0.146,0.000 -0.141,0.000 -0.135,0.000 -0.130,0.000 -0.124,0.000 -0.118,0.000 -0.113,0.000 -0.107,0.000 -0.101,0.000 -0.096,0.000 -0.090,0.000 -0.084,0.000 -0.079,0.001 -0.073,0.002 -0.068,0.003 -0.062,0.005 -0.056,0.008 -0.051,0.013 -0.045,0.020 -0.039,0.030 -0.034,0.044 -0.028,0.061 -0.023,0.083 -0.017,0.108 -0.011,0.137 -0.006,0.168 -0.000,0.199 0.006,0.231 0.011,0.260 0.017,0.286 0.023,0.308 0.028,0.325 0.034,0.338 0.039,0.345 0.045,0.348 0.051,0.348 0.056,0.344 0.062,0.338 0.068,0.330 0.073,0.321 0.079,0.311 0.084,0.301 0.090,0.289 0.096,0.278 0.101,0.266 0.107,0.254 0.113,0.242 0.118,0.230 0.124,0.218 0.130,0.206 0.135,0.194 0.141,0.183 0.146,0.171 0.152,0.160 0.158,0.150 0.163,0.139 0.169,0.130 0.175,0.120 0.180,0.111 0.186,0.102 0.191,0.094 0.197,0.086 0.203,0.079 0.208,0.072 0.214,0.066 0.220,0.060 0.225,0.054 0.231,0.049 0.237,0.044 0.242,0.040 0.248,0.035 0.253,0.032 0.259,0.028 0.265,0.025 0.270,0.022 0.276,0.020 0.282,0.018" />
</g>
</svg>