<svg xmlns="http://www.w3.org/2000/svg" width="100.0" height="100.0" viewBox="-5.000 -5.000 110.000 110.000">
<g fill="none" stroke="black" stroke-width="0.0050%" transform="translate(0, 100.0000) scale(100.0000, -100.0000)">
<circle cx="0.000" cy="0.000" r="0.005" />
<circle cx="0.000" cy="1.000" r="0.005" />
<polyline points="0.000,0.000 0.010,0.000 0.020,0.001 0.030,0.003 0.040,0.005 0.050,0.007 0.060,0.010 0.070,0.014 0.080,0.018 0.090,0.023 0.100,0.028 0.110,0.034 0.120,0.040 0.130,0.046 0.140,0.053 0.150,0.061 0.160,0.069 0.170,0.077 0.180,0.086 0.190,0.095 0.200,0.104 0.210,0.114 0.220,0.124 0.230,0.134 0.240,0.145 0.250,0.156 0.260,0.168 0.270,0.179 0.280,0.191 0.290,0.204 0.300,0.216 0.310,0.229 0.320,0.242 0.330,0.255 0.340,0.268 0.350,0.282 0.360,0.295 0.370,0.309 0.380,0.323 0.390,0.338 0.400,0.352 0.410,0.366 0.420,0.381 0.430,0.396 0.440,0.410 0.450,0.425 0.460,0.440 0.470,0.455 0.480,0.470 0.490,0.485 0.500,0.500 0.510,0.515 0.520,0.530 0.530,0.545 0.540,0.560 0.550,0.575 0.560,0.590 0.570,0.604 0.580,0.619 0.590,0.634 0.600,0.648 0.610,0.662 0.620,0.677 0.630,0.691 0.640,0.705 0.650,0.718 0.660,0.732 0.670,0.745 0.680,0.758 0.690,0.771 0.700,0.784 0.710,0.796 0.720,0.809 0.730,0.821 0.740,0.832 0.750,0.844 0.760,0.855 0.770,0.866 0.780,0.876 0.790,0.886 0.800,0.896 0.810,0.905 0.820,0.914 0.830,0.923 0.840,0.931 0.850,0.939 0.860,0.947 0.870,0.954 0.880,0.960 0.890,0.966 0.900,0.972 0.910,0.977 0.920,0.982 0.930,0.986 0.940,0.990 0.950,0.993 0.960,0.995 0.970,0.997 0.980,0.999 0.990,1.000 1.000,1.000" />
<polyline points="0.000,0.000 0.010,0.000 0.020,0.000 0.030,0.000 0.040,0.001 0.050,0.001 0.060,0.002 0.070,0.003 0.080,0.005 0.090,0.006 0.100,0.009 0.110,0.011 0.120,0.014 0.130,0.018 0.140,0.022 0.150,0.027 0.160,0.032 0.170,0.037 0.180,0.044 0.190,0.051 0.200,0.058 0.210,0.066 0.220,0.074 0.230,0.084 0.240,0.093 0.250,0.104 0.260,0.114 0.270,0.126 0.280,0.138 0.290,0.150 0.300,0.163 0.310,0.177 0.320,0.191 0.330,0.205 0.340,0.220 0.350,0.235 0.360,0.251 0.370,0.267 0.380,0.283 0.390,0.300 0.400,0.317 0.410,0.335 0.420,0.353 0.430,0.370 0.440,0.389 0.450,0.407 0.460,0.425 0.470,0.444 0.480,0.463 0.490,0.481 0.500,0.500 0.510,0.519 0.520,0.537 0.530,0.556 0.540,0.575 0.550,0.593 0.560,0.611 0.570,0.630 0.580,0.647 0.590,0.665 0.600,0.683 0.610,0.700 0.620,0.717 0.630,0.733 0.640,0.749 0.650,0.765 0.660,0.780 0.670,0.795 0.680,0.809 0.690,0.823 0.700,0.837 0.710,0.850 0.720,0.862 0.730,0.874 0.740,0.886 0.750,0.896 0.760,0.907 0.770,0.916 0.780,0.926 0.790,0.934 0.800,0.942 0.810,0.949 0.820,0.956 0.830,0.963 0.840,0.968 0.850,0.973 0.860,0.978 0.870,0.982 0.880,0.986 0.890,0.989 0.900,0.991 0.910,0.994 0.920,0.995 0.930,0.997 0.940,0.998 0.950,0.999 0.960,0.999 0.970,1.000 0.980,1.000 0.990,1.000 1.000,1.000" />
</g>
</svg>