<svg xmlns="http://www.w3.org/2000/svg" width="161.8" height="100.0" viewBox="-85.902 -55.000 171.803 110.000">
<g fill="none" stroke="black" stroke-width="0.0075%" transform="translate(0, 0.0000) scale(66.6667, -66.6667)">
<polyline points="-1.214,-0.750 -1.189,-0.745 -1.165,-0.740 -1.141,-0.734 -1.116,-0.728 -1.092,-0.722 -1.068,-0.716 -1.044,-0.709 -1.019,-0.702 -0.995,-0.695 -0.971,-0.687 -0.947,-0.679 -0.922,-0.671 -0.898,-0.662 -0.874,-0.653 -0.849,-0.643 -0.825,-0.632 -0.801,-0.621 -0.777,-0.609 -0.752,-0.597 -0.728,-0.583 -0.704,-0.569 -0.680,-0.554 -0.655,-0.537 -0.631,-0.519 -0.607,-0.500 -0.582,-0.480 -0.558,-0.460 -0.534,-0.440 -0.510,-0.420 -0.485,-0.400 -0.461,-0.380 -0.437,-0.360 -0.413,-0.340 -0.388,-0.320 -0.364,-0.300 -0.340,-0.280 -0.316,-0.260 -0.291,-0.240 -0.267,-0.220 -0.243,-0.200 -0.218,-0.180 -0.194,-0.160 -0.170,-0.140 -0.146,-0.120 -0.121,-0.100 -0.097,-0.080 -0.073,-0.060 -0.049,-0.040 -0.024,-0.020 0.000,0.000 0.024,0.020 0.049,0.040 0.073,0.060 0.097,0.080 0.121,0.100 0.146,0.120 0.170,0.140 0.194,0.160 0.218,0.180 0.243,0.200 0.267,0.220 0.291,0.240 0.316,0.260 0.340,0.280 0.364,0.300 0.388,0.320 0.413,0.340 0.437,0.360 0.461,0.380 0.485,0.400 0.510,0.420 0.534,0.440 0.558,0.460 0.582,0.480 0.607,0.500 0.631,0.519 0.655,0.537 0.680,0.554 0.704,0.569 0.728,0.583 0.752,0.597 0.777,0.609 0.801,0.621 0.825,0.632 0.849,0.643 0.874,0.653 0.898,0.662 0.922,0.671 0.947,0.679 0.971,0.688 0.995,0.695 1.019,0.702 1.044,0.709 1.068,0.716 1.092,0.722 1.116,0.728 1.141,0.734 1.165,0.740 1.189,0.745 1.214,0.750" />
</g>
</svg>