<svg xmlns="http://www.w3.org/2000/svg" width="161.8" height="100.0" viewBox="-3.34894 11.02235 171.80340 110.00000">
<g fill="none" stroke="black" stroke-width="0.0001%" transform="translate(0, 132.0447) scale(5016.1907, -5016.1907)">
<polyline points="0.00033,0.00319 0.00066,0.00326 0.00099,0.00333 0.00132,0.00339 0.00165,0.00346 0.00197,0.00353 0.00230,0.00361 0.00263,0.00368 0.00296,0.00375 0.00329,0.00383 0.00362,0.00391 0.00395,0.00399 0.00428,0.00407 0.00461,0.00415 0.00494,0.00424 0.00527,0.00432 0.00560,0.00441 0.00592,0.00450 0.00625,0.00459 0.00658,0.00469 0.00691,0.00478 0.00724,0.00488 0.00757,0.00498 0.00790,0.00508 0.00823,0.00519 0.00856,0.00529 0.00889,0.00540 0.00922,0.00551 0.00955,0.00562 0.00987,0.00574 0.01020,0.00586 0.01053,0.00597 0.01086,0.00610 0.01119,0.00622 0.01152,0.00635 0.01185,0.00648 0.01218,0.00661 0.01251,0.00674 0.01284,0.00688 0.01317,0.00702 0.01349,0.00717 0.01382,0.00731 0.01415,0.00746 0.01448,0.00761 0.01481,0.00777 0.01514,0.00793 0.01547,0.00809 0.01580,0.00825 0.01613,0.00842 0.01646,0.00860 0.01679,0.00877 0.01712,0.00895 0.01744,0.00913 0.01777,0.00932 0.01810,0.00951 0.01843,0.00970 0.01876,0.00990 0.01909,0.01010 0.01942,0.01031 0.01975,0.01052 0.02008,0.01073 0.02041,0.01095 0.02074,0.01118 0.02107,0.01140 0.02139,0.01164 0.02172,0.01188 0.02205,0.01212 0.02238,0.01236 0.02271,0.01262 0.02304,0.01287 0.02337,0.01314 0.02370,0.01341 0.02403,0.01368 0.02436,0.01396 0.02469,0.01424 0.02502,0.01453 0.02534,0.01483 0.02567,0.01513 0.02600,0.01544 0.02633,0.01576 0.02666,0.01608 0.02699,0.01641 0.02732,0.01674 0.02765,0.01708 0.02798,0.01743 0.02831,0.01779 0.02864,0.01815 0.02896,0.01852 0.02929,0.01890 0.02962,0.01928 0.02995,0.01968 0.03028,0.02008 0.03061,0.02049 0.03094,0.02091 0.03127,0.02133 0.03160,0.02177 0.03193,0.02221 0.03226,0.02267 0.03259,0.02313" />
</g>
</svg>