<svg xmlns="http://www.w3.org/2000/svg" width="161.8" height="100.0" viewBox="-3.3489 0.4103 171.8034 110.0000">
<g fill="none" stroke="black" stroke-width="0.0003%" transform="translate(0, 110.8206) scale(1828.5393, -1828.5393)">
<polyline points="0.0009,0.0030 0.0018,0.0031 0.0027,0.0033 0.0036,0.0035 0.0045,0.0037 0.0054,0.0039 0.0063,0.0042 0.0072,0.0044 0.0081,0.0047 0.0090,0.0049 0.0099,0.0052 0.0108,0.0055 0.0117,0.0058 0.0126,0.0061 0.0135,0.0065 0.0144,0.0068 0.0153,0.0072 0.0163,0.0076 0.0172,0.0080 0.0181,0.0085 0.0190,0.0089 0.0199,0.0094 0.0208,0.0099 0.0217,0.0104 0.0226,0.0109 0.0235,0.0115 0.0244,0.0120 0.0253,0.0126 0.0262,0.0133 0.0271,0.0139 0.0280,0.0146 0.0289,0.0152 0.0298,0.0159 0.0307,0.0167 0.0316,0.0174 0.0325,0.0182 0.0334,0.0189 0.0343,0.0197 0.0352,0.0206 0.0361,0.0214 0.0370,0.0222 0.0379,0.0231 0.0388,0.0240 0.0397,0.0249 0.0406,0.0257 0.0415,0.0266 0.0424,0.0276 0.0433,0.0285 0.0442,0.0294 0.0451,0.0303 0.0460,0.0312 0.0470,0.0321 0.0479,0.0331 0.0488,0.0340 0.0497,0.0349 0.0506,0.0358 0.0515,0.0366 0.0524,0.0375 0.0533,0.0384 0.0542,0.0392 0.0551,0.0400 0.0560,0.0409 0.0569,0.0417 0.0578,0.0424 0.0587,0.0432 0.0596,0.0439 0.0605,0.0447 0.0614,0.0454 0.0623,0.0460 0.0632,0.0467 0.0641,0.0473 0.0650,0.0480 0.0659,0.0486 0.0668,0.0491 0.0677,0.0497 0.0686,0.0502 0.0695,0.0507 0.0704,0.0512 0.0713,0.0517 0.0722,0.0521 0.0731,0.0526 0.0740,0.0530 0.0749,0.0534 0.0758,0.0538 0.0767,0.0541 0.0777,0.0545 0.0786,0.0548 0.0795,0.0551 0.0804,0.0554 0.0813,0.0557 0.0822,0.0559 0.0831,0.0562 0.0840,0.0564 0.0849,0.0567 0.0858,0.0569 0.0867,0.0571 0.0876,0.0573 0.0885,0.0575 0.0894,0.0576" />
</g>
</svg>