<svg xmlns="http://www.w3.org/2000/svg" width="161.8" height="100.0" viewBox="-0.2 -5.0 171.8 110.0">
<g fill="none" stroke="black" stroke-width="0.3064%" transform="translate(0, 100.0000) scale(1.6320, -1.6320)">







<line x1="23.3" y1="0.0" x2="23.3" y2="1.1" />
<line x1="26.2" y1="0.0" x2="26.2" y2="1.6" />
<line x1="29.2" y1="0.0" x2="29.2" y2="2.2" />
<line x1="32.1" y1="0.0" x2="32.1" y2="2.8" />
<line x1="35.0" y1="0.0" x2="35.0" y2="3.7" />
<line x1="37.9" y1="0.0" x2="37.9" y2="4.9" />
<line x1="40.8" y1="0.0" x2="40.8" y2="6.6" />
<line x1="43.7" y1="0.0" x2="43.7" y2="7.6" />
<line x1="46.7" y1="0.0" x2="46.7" y2="8.9" />
<line x1="49.6" y1="0.0" x2="49.6" y2="10.4" />
<line x1="52.5" y1="0.0" x2="52.5" y2="12.3" />
<line x1="55.4" y1="0.0" x2="55.4" y2="14.4" />
<line x1="58.3" y1="0.0" x2="58.3" y2="16.5" />
<line x1="61.2" y1="0.0" x2="61.2" y2="18.0" />
<line x1="64.2" y1="0.0" x2="64.2" y2="20.4" />
<line x1="67.1" y1="0.0" x2="67.1" y2="22.9" />
<line x1="70.0" y1="0.0" x2="70.0" y2="25.5" />
<line x1="72.9" y1="0.0" x2="72.9" y2="28.2" />
<line x1="75.8" y1="0.0" x2="75.8" y2="30.7" />
<line x1="78.7" y1="0.0" x2="78.7" y2="33.2" />
<line x1="81.6" y1="0.0" x2="81.6" y2="36.8" />
<line x1="84.6" y1="0.0" x2="84.6" y2="39.9" />
<line x1="87.5" y1="0.0" x2="87.5" y2="43.1" />
<line x1="90.4" y1="0.0" x2="90.4" y2="46.3" />
<line x1="93.3" y1="0.0" x2="93.3" y2="49.7" />
<line x1="96.2" y1="0.0" x2="96.2" y2="53.4" />
<line x1="99.1" y1="0.0" x2="99.1" y2="57.7" />
<line x1="102.1" y1="0.0" x2="102.1" y2="61.3" />
</g>
</svg>