<svg xmlns="http://www.w3.org/2000/svg" width="161.8" height="100.0" viewBox="-3.161 -3.876 171.803 110.000">
<g fill="none" stroke="black" stroke-width="0.0044%" transform="translate(0, 102.2472) scale(112.3596, -112.3596)">
<circle cx="0.016" cy="0.100" r="0.004" />
<circle cx="0.033" cy="0.100" r="0.004" />
<circle cx="0.049" cy="0.100" r="0.004" />
<circle cx="0.065" cy="0.100" r="0.004" />
<circle cx="0.082" cy="0.100" r="0.004" />
<circle cx="0.098" cy="0.100" r="0.004" />
<circle cx="0.115" cy="0.100" r="0.004" />
<circle cx="0.131" cy="0.100" r="0.004" />
<circle cx="0.147" cy="0.100" r="0.004" />
<circle cx="0.164" cy="0.100" r="0.004" />
<circle cx="0.180" cy="0.100" r="0.004" />
<circle cx="0.196" cy="0.200" r="0.004" />
<circle cx="0.213" cy="0.100" r="0.004" />
<circle cx="0.229" cy="0.100" r="0.004" />
<circle cx="0.245" cy="0.100" r="0.004" />
<circle cx="0.262" cy="0.100" r="0.004" />
<circle cx="0.278" cy="0.100" r="0.004" />
<circle cx="0.295" cy="0.100" r="0.004" />
<circle cx="0.311" cy="0.100" r="0.004" />
<circle cx="0.327" cy="0.100" r="0.004" />
<circle cx="0.344" cy="0.010" r="0.004" />
<circle cx="0.360" cy="0.300" r="0.004" />
<circle cx="0.376" cy="0.300" r="0.004" />
<circle cx="0.393" cy="0.300" r="0.004" />
<circle cx="0.409" cy="0.300" r="0.004" />
<circle cx="0.425" cy="0.300" r="0.004" />
<circle cx="0.442" cy="0.300" r="0.004" />
<circle cx="0.458" cy="0.300" r="0.004" />
<circle cx="0.475" cy="0.300" r="0.004" />
<circle cx="0.491" cy="0.300" r="0.004" />
<circle cx="0.507" cy="0.400" r="0.004" />
<circle cx="0.524" cy="0.300" r="0.004" />
<circle cx="0.540" cy="0.500" r="0.004" />
<circle cx="0.556" cy="0.300" r="0.004" />
<circle cx="0.573" cy="0.600" r="0.004" />
<circle cx="0.589" cy="0.300" r="0.004" />
<circle cx="0.605" cy="0.300" r="0.004" />
<circle cx="0.622" cy="0.300" r="0.004" />
<circle cx="0.638" cy="0.300" r="0.004" />
<circle cx="0.655" cy="0.110" r="0.004" />
<circle cx="0.671" cy="0.110" r="0.004" />
<circle cx="0.687" cy="0.210" r="0.004" />
<circle cx="0.704" cy="0.200" r="0.004" />
<circle cx="0.720" cy="0.200" r="0.004" />
<circle cx="0.736" cy="0.200" r="0.004" />
<circle cx="0.753" cy="0.300" r="0.004" />
<circle cx="0.769" cy="0.700" r="0.004" />
<circle cx="0.785" cy="0.700" r="0.004" />
<circle cx="0.802" cy="0.700" r="0.004" />
<circle cx="0.818" cy="0.700" r="0.004" />
<circle cx="0.835" cy="0.700" r="0.004" />
<circle cx="0.851" cy="0.800" r="0.004" />
<circle cx="0.867" cy="0.700" r="0.004" />
<circle cx="0.884" cy="0.900" r="0.004" />
<circle cx="0.900" cy="0.700" r="0.004" />
<circle cx="0.916" cy="0.600" r="0.004" />
<circle cx="0.933" cy="0.500" r="0.004" />
<circle cx="0.949" cy="0.400" r="0.004" />
<circle cx="0.965" cy="0.700" r="0.004" />
<circle cx="0.982" cy="0.700" r="0.004" />
<circle cx="0.998" cy="0.700" r="0.004" />
<circle cx="1.015" cy="0.700" r="0.004" />
<circle cx="1.031" cy="0.800" r="0.004" />
<circle cx="1.047" cy="0.800" r="0.004" />
<circle cx="1.064" cy="0.800" r="0.004" />
<circle cx="1.080" cy="0.900" r="0.004" />
<circle cx="1.096" cy="0.800" r="0.004" />
<circle cx="1.113" cy="0.800" r="0.004" />
<circle cx="1.129" cy="0.700" r="0.004" />
<circle cx="1.145" cy="0.900" r="0.004" />
<circle cx="1.162" cy="0.900" r="0.004" />
<circle cx="1.178" cy="0.310" r="0.004" />
<circle cx="1.195" cy="0.310" r="0.004" />
<circle cx="1.211" cy="0.600" r="0.004" />
<circle cx="1.227" cy="0.410" r="0.004" />
<circle cx="1.244" cy="0.610" r="0.004" />
<circle cx="1.260" cy="0.410" r="0.004" />
<circle cx="1.276" cy="0.410" r="0.004" />
<circle cx="1.293" cy="0.510" r="0.004" />
<circle cx="1.309" cy="0.410" r="0.004" />
<circle cx="1.326" cy="0.310" r="0.004" />
<circle cx="1.342" cy="0.310" r="0.004" />
<circle cx="1.358" cy="0.400" r="0.004" />
<circle cx="1.375" cy="0.510" r="0.004" />
<circle cx="1.391" cy="0.510" r="0.004" />
<circle cx="1.407" cy="0.510" r="0.004" />
<circle cx="1.424" cy="0.510" r="0.004" />
<circle cx="1.440" cy="0.510" r="0.004" />
<circle cx="1.456" cy="0.610" r="0.004" />
</g>
</svg>