<svg xmlns="http://www.w3.org/2000/svg" width="161.8" height="100.0" viewBox="-4 -5 172 110">
<g fill="none" stroke="black" stroke-width="192.9095%" transform="translate(0, 100.2671) scale(0.0026, -0.0026)">
<polyline points="492,3106 983,3648 1475,3707 1966,3284 2458,2559 2949,1783 3441,1141 3932,575 4424,328 4915,228 5407,191 5899,160 6390,134 6882,119 7373,110 7865,108 8356,107 8848,112 9339,115 9831,119 10323,125 10814,132 11306,142 11797,147 12289,152 12780,162 13272,168 13763,180 14255,187 14746,198 15238,208 15730,211 16221,216 16713,217 17204,223 17696,234 18187,236 18679,247 19170,258 19662,271 20154,282 20645,282 21137,289 21628,289 22120,283 22611,278 23103,264 23594,268 24086,265 24577,260 25069,265 25561,263 26052,267 26544,261 27035,256 27527,260 28018,263 28510,274 29001,273 29493,270 29985,264 30476,250 30968,238 31459,229 31951,227 32442,262 32934,309 33425,377 33917,513 34408,706 34900,983 35392,1419 35883,5285 36375,10608 36866,17909 37358,26500 37849,34250 38341,38633 38832,37876 39324,32466 39816,24579 40307,16755 40799,10573 41290,5116 41782,3074 42273,2215 42765,1664 43256,1230 43748,868 44239,676 44731,521 45223,423 45714,329 46206,267 46697,217 47189,181 47680,150 48172,141 48663,136 49155,128 49647,128 50138,129 50630,128 51121,130 51613,129 52104,122 52596,118 53087,111 53579,106 54070,104 54562,99 55054,96 55545,94 56037,91 56528,90 57020,88 57511,89 58003,88 58494,85 58986,83 59478,80 59969,80 60461,81 60952,78 61444,76 61935,70 62427,62 62918,52" />
</g>
</svg>