<svg xmlns="http://www.w3.org/2000/svg" width="99.5" height="100.0" viewBox="-54.761 -55.000 109.457 110.000">
<g fill="none" stroke="black" stroke-width="0.0100%" transform="translate(0, 0.0000) scale(50.0000, -50.0000)">
<circle cx="0.000" cy="1.000" r="0.010" />
<circle cx="-0.104" cy="0.990" r="0.010" />
<circle cx="0.017" cy="0.980" r="0.010" />
<circle cx="0.148" cy="0.970" r="0.010" />
<circle cx="-0.276" cy="0.960" r="0.010" />
<circle cx="0.264" cy="0.950" r="0.010" />
<circle cx="-0.089" cy="0.940" r="0.010" />
<circle cx="-0.170" cy="0.930" r="0.010" />
<circle cx="0.369" cy="0.920" r="0.010" />
<circle cx="-0.384" cy="0.910" r="0.010" />
<circle cx="0.185" cy="0.899" r="0.010" />
<circle cx="0.137" cy="0.889" r="0.010" />
<circle cx="-0.412" cy="0.879" r="0.010" />
<circle cx="0.483" cy="0.869" r="0.010" />
<circle cx="-0.294" cy="0.859" r="0.010" />
<circle cx="-0.068" cy="0.849" r="0.010" />
<circle cx="0.416" cy="0.839" r="0.010" />
<circle cx="-0.559" cy="0.829" r="0.010" />
<circle cx="0.407" cy="0.819" r="0.010" />
<circle cx="-0.027" cy="0.809" r="0.010" />
<circle cx="-0.385" cy="0.799" r="0.010" />
<circle cx="0.609" cy="0.789" r="0.010" />
<circle cx="-0.515" cy="0.779" r="0.010" />
<circle cx="0.140" cy="0.769" r="0.010" />
<circle cx="0.324" cy="0.759" r="0.010" />
<circle cx="-0.632" cy="0.749" r="0.010" />
<circle cx="0.612" cy="0.739" r="0.010" />
<circle cx="-0.264" cy="0.729" r="0.010" />
<circle cx="-0.235" cy="0.719" r="0.010" />
<circle cx="0.625" cy="0.709" r="0.010" />
<circle cx="-0.692" cy="0.698" r="0.010" />
<circle cx="0.392" cy="0.688" r="0.010" />
<circle cx="0.124" cy="0.678" r="0.010" />
<circle cx="-0.588" cy="0.668" r="0.010" />
<circle cx="0.750" cy="0.658" r="0.010" />
<circle cx="-0.517" cy="0.648" r="0.010" />
<circle cx="0.004" cy="0.638" r="0.010" />
<circle cx="0.523" cy="0.628" r="0.010" />
<circle cx="-0.783" cy="0.618" r="0.010" />
<circle cx="0.632" cy="0.608" r="0.010" />
<circle cx="-0.143" cy="0.598" r="0.010" />
<circle cx="-0.431" cy="0.588" r="0.010" />
<circle cx="0.787" cy="0.578" r="0.010" />
<circle cx="-0.732" cy="0.568" r="0.010" />
<circle cx="0.289" cy="0.558" r="0.010" />
<circle cx="0.315" cy="0.548" r="0.010" />
<circle cx="-0.762" cy="0.538" r="0.010" />
<circle cx="0.812" cy="0.528" r="0.010" />
<circle cx="-0.433" cy="0.518" r="0.010" />
<circle cx="-0.181" cy="0.508" r="0.010" />
<circle cx="0.707" cy="0.497" r="0.010" />
<circle cx="-0.866" cy="0.487" r="0.010" />
<circle cx="0.570" cy="0.477" r="0.010" />
<circle cx="0.032" cy="0.467" r="0.010" />
<circle cx="-0.624" cy="0.457" r="0.010" />
<circle cx="0.893" cy="0.447" r="0.010" />
<circle cx="-0.693" cy="0.437" r="0.010" />
<circle cx="0.125" cy="0.427" r="0.010" />
<circle cx="0.515" cy="0.417" r="0.010" />
<circle cx="-0.890" cy="0.407" r="0.010" />
<circle cx="0.799" cy="0.397" r="0.010" />
<circle cx="-0.285" cy="0.387" r="0.010" />
<circle cx="-0.384" cy="0.377" r="0.010" />
<circle cx="0.856" cy="0.367" r="0.010" />
<circle cx="-0.881" cy="0.357" r="0.010" />
<circle cx="0.440" cy="0.347" r="0.010" />
<circle cx="0.236" cy="0.337" r="0.010" />
<circle cx="-0.792" cy="0.327" r="0.010" />
<circle cx="0.936" cy="0.317" r="0.010" />
<circle cx="-0.586" cy="0.307" r="0.010" />
<circle cx="-0.074" cy="0.296" r="0.010" />
<circle cx="0.700" cy="0.286" r="0.010" />
<circle cx="-0.961" cy="0.276" r="0.010" />
<circle cx="0.717" cy="0.266" r="0.010" />
<circle cx="-0.094" cy="0.256" r="0.010" />
<circle cx="-0.582" cy="0.246" r="0.010" />
<circle cx="0.955" cy="0.236" r="0.010" />
<circle cx="-0.827" cy="0.226" r="0.010" />
<circle cx="0.263" cy="0.216" r="0.010" />
<circle cx="0.443" cy="0.206" r="0.010" />
<circle cx="-0.918" cy="0.196" r="0.010" />
<circle cx="0.912" cy="0.186" r="0.010" />
<circle cx="-0.426" cy="0.176" r="0.010" />
<circle cx="-0.286" cy="0.166" r="0.010" />
<circle cx="0.850" cy="0.156" r="0.010" />
<circle cx="-0.968" cy="0.146" r="0.010" />
<circle cx="0.578" cy="0.136" r="0.010" />
<circle cx="0.118" cy="0.126" r="0.010" />
<circle cx="-0.753" cy="0.116" r="0.010" />
<circle cx="0.994" cy="0.106" r="0.010" />
<circle cx="-0.712" cy="0.095" r="0.010" />
<circle cx="0.056" cy="0.085" r="0.010" />
<circle cx="0.631" cy="0.075" r="0.010" />
<circle cx="-0.988" cy="0.065" r="0.010" />
<circle cx="0.825" cy="0.055" r="0.010" />
<circle cx="-0.229" cy="0.045" r="0.010" />
<circle cx="-0.488" cy="0.035" r="0.010" />
<circle cx="0.949" cy="0.025" r="0.010" />
<circle cx="-0.912" cy="0.015" r="0.010" />
<circle cx="0.395" cy="0.005" r="0.010" />
<circle cx="0.329" cy="-0.005" r="0.010" />
<circle cx="-0.881" cy="-0.015" r="0.010" />
<circle cx="0.969" cy="-0.025" r="0.010" />
<circle cx="-0.549" cy="-0.035" r="0.010" />
<circle cx="-0.160" cy="-0.045" r="0.010" />
<circle cx="0.783" cy="-0.055" r="0.010" />
<circle cx="-0.995" cy="-0.065" r="0.010" />
<circle cx="0.684" cy="-0.075" r="0.010" />
<circle cx="-0.015" cy="-0.085" r="0.010" />
<circle cx="-0.662" cy="-0.095" r="0.010" />
<circle cx="0.989" cy="-0.106" r="0.010" />
<circle cx="-0.797" cy="-0.116" r="0.010" />
<circle cx="0.187" cy="-0.126" r="0.010" />
<circle cx="0.519" cy="-0.136" r="0.010" />
<circle cx="-0.952" cy="-0.146" r="0.010" />
<circle cx="0.883" cy="-0.156" r="0.010" />
<circle cx="-0.352" cy="-0.166" r="0.010" />
<circle cx="-0.362" cy="-0.176" r="0.010" />
<circle cx="0.884" cy="-0.186" r="0.010" />
<circle cx="-0.940" cy="-0.196" r="0.010" />
<circle cx="0.503" cy="-0.206" r="0.010" />
<circle cx="0.196" cy="-0.216" r="0.010" />
<circle cx="-0.789" cy="-0.226" r="0.010" />
<circle cx="0.965" cy="-0.236" r="0.010" />
<circle cx="-0.635" cy="-0.246" r="0.010" />
<circle cx="-0.026" cy="-0.256" r="0.010" />
<circle cx="0.670" cy="-0.266" r="0.010" />
<circle cx="-0.959" cy="-0.276" r="0.010" />
<circle cx="0.745" cy="-0.286" r="0.010" />
<circle cx="-0.141" cy="-0.296" r="0.010" />
<circle cx="-0.532" cy="-0.307" r="0.010" />
<circle cx="0.922" cy="-0.317" r="0.010" />
<circle cx="-0.827" cy="-0.327" r="0.010" />
<circle cx="0.299" cy="-0.337" r="0.010" />
<circle cx="0.381" cy="-0.347" r="0.010" />
<circle cx="-0.856" cy="-0.357" r="0.010" />
<circle cx="0.880" cy="-0.367" r="0.010" />
<circle cx="-0.443" cy="-0.377" r="0.010" />
<circle cx="-0.222" cy="-0.387" r="0.010" />
<circle cx="0.765" cy="-0.397" r="0.010" />
<circle cx="-0.902" cy="-0.407" r="0.010" />
<circle cx="0.567" cy="-0.417" r="0.010" />
<circle cx="0.061" cy="-0.427" r="0.010" />
<circle cx="-0.651" cy="-0.437" r="0.010" />
<circle cx="0.894" cy="-0.447" r="0.010" />
<circle cx="-0.667" cy="-0.457" r="0.010" />
<circle cx="0.094" cy="-0.467" r="0.010" />
<circle cx="0.521" cy="-0.477" r="0.010" />
<circle cx="-0.857" cy="-0.487" r="0.010" />
<circle cx="0.741" cy="-0.497" r="0.010" />
<circle cx="-0.240" cy="-0.508" r="0.010" />
<circle cx="-0.379" cy="-0.518" r="0.010" />
<circle cx="0.792" cy="-0.528" r="0.010" />
<circle cx="-0.785" cy="-0.538" r="0.010" />
<circle cx="0.369" cy="-0.548" r="0.010" />
<circle cx="0.233" cy="-0.558" r="0.010" />
<circle cx="-0.704" cy="-0.568" r="0.010" />
<circle cx="0.800" cy="-0.578" r="0.010" />
<circle cx="-0.478" cy="-0.588" r="0.010" />
<circle cx="-0.087" cy="-0.598" r="0.010" />
<circle cx="0.597" cy="-0.608" r="0.010" />
<circle cx="-0.786" cy="-0.618" r="0.010" />
<circle cx="0.562" cy="-0.628" r="0.010" />
<circle cx="-0.051" cy="-0.638" r="0.010" />
<circle cx="-0.476" cy="-0.648" r="0.010" />
<circle cx="0.744" cy="-0.658" r="0.010" />
<circle cx="-0.619" cy="-0.668" r="0.010" />
<circle cx="0.175" cy="-0.678" r="0.010" />
<circle cx="0.348" cy="-0.688" r="0.010" />
<circle cx="-0.677" cy="-0.698" r="0.010" />
<circle cx="0.646" cy="-0.709" r="0.010" />
<circle cx="-0.281" cy="-0.719" r="0.010" />
<circle cx="-0.219" cy="-0.729" r="0.010" />
<circle cx="0.590" cy="-0.739" r="0.010" />
<circle cx="-0.644" cy="-0.749" r="0.010" />
<circle cx="0.363" cy="-0.759" r="0.010" />
<circle cx="0.096" cy="-0.769" r="0.010" />
<circle cx="-0.488" cy="-0.779" r="0.010" />
<circle cx="0.613" cy="-0.789" r="0.010" />
<circle cx="-0.417" cy="-0.799" r="0.010" />
<circle cx="0.014" cy="-0.809" r="0.010" />
<circle cx="0.377" cy="-0.819" r="0.010" />
<circle cx="-0.556" cy="-0.829" r="0.010" />
<circle cx="0.440" cy="-0.839" r="0.010" />
<circle cx="-0.105" cy="-0.849" r="0.010" />
<circle cx="-0.264" cy="-0.859" r="0.010" />
<circle cx="0.474" cy="-0.869" r="0.010" />
<circle cx="-0.428" cy="-0.879" r="0.010" />
<circle cx="0.167" cy="-0.889" r="0.010" />
<circle cx="0.157" cy="-0.899" r="0.010" />
<circle cx="-0.372" cy="-0.910" r="0.010" />
<circle cx="0.378" cy="-0.920" r="0.010" />
<circle cx="-0.192" cy="-0.930" r="0.010" />
<circle cx="-0.065" cy="-0.940" r="0.010" />
<circle cx="0.252" cy="-0.950" r="0.010" />
<circle cx="-0.279" cy="-0.960" r="0.010" />
<circle cx="0.162" cy="-0.970" r="0.010" />
<circle cx="0.003" cy="-0.980" r="0.010" />
<circle cx="-0.097" cy="-0.990" r="0.010" />
<circle cx="0.000" cy="-1.000" r="0.010" />
</g>
</svg>