<svg xmlns="http://www.w3.org/2000/svg" width="101.1" height="100.0" viewBox="-55.555 -55.000 111.109 110.000">
<g fill="none" stroke="black" stroke-width="0.0098%" transform="translate(0, 0.0000) scale(50.7713, -50.7713)">
<circle cx="0.000" cy="0.985" r="0.010" />
<circle cx="0.150" cy="0.985" r="0.010" />
<circle cx="-0.150" cy="0.985" r="0.010" />
<circle cx="0.000" cy="0.866" r="0.010" />
<circle cx="0.321" cy="0.866" r="0.010" />
<circle cx="0.492" cy="0.866" r="0.010" />
<circle cx="0.433" cy="0.866" r="0.010" />
<circle cx="0.171" cy="0.866" r="0.010" />
<circle cx="-0.171" cy="0.866" r="0.010" />
<circle cx="-0.433" cy="0.866" r="0.010" />
<circle cx="-0.492" cy="0.866" r="0.010" />
<circle cx="-0.321" cy="0.866" r="0.010" />
<circle cx="0.000" cy="0.643" r="0.010" />
<circle cx="0.356" cy="0.643" r="0.010" />
<circle cx="0.630" cy="0.643" r="0.010" />
<circle cx="0.760" cy="0.643" r="0.010" />
<circle cx="0.716" cy="0.643" r="0.010" />
<circle cx="0.508" cy="0.643" r="0.010" />
<circle cx="0.183" cy="0.643" r="0.010" />
<circle cx="-0.183" cy="0.643" r="0.010" />
<circle cx="-0.508" cy="0.643" r="0.010" />
<circle cx="-0.716" cy="0.643" r="0.010" />
<circle cx="-0.760" cy="0.643" r="0.010" />
<circle cx="-0.630" cy="0.643" r="0.010" />
<circle cx="-0.356" cy="0.643" r="0.010" />
<circle cx="0.000" cy="0.342" r="0.010" />
<circle cx="0.360" cy="0.342" r="0.010" />
<circle cx="0.664" cy="0.342" r="0.010" />
<circle cx="0.868" cy="0.342" r="0.010" />
<circle cx="0.940" cy="0.342" r="0.010" />
<circle cx="0.868" cy="0.342" r="0.010" />
<circle cx="0.664" cy="0.342" r="0.010" />
<circle cx="0.360" cy="0.342" r="0.010" />
<circle cx="0.000" cy="0.342" r="0.010" />
<circle cx="-0.360" cy="0.342" r="0.010" />
<circle cx="-0.664" cy="0.342" r="0.010" />
<circle cx="-0.868" cy="0.342" r="0.010" />
<circle cx="-0.940" cy="0.342" r="0.010" />
<circle cx="-0.868" cy="0.342" r="0.010" />
<circle cx="-0.664" cy="0.342" r="0.010" />
<circle cx="-0.360" cy="0.342" r="0.010" />
<circle cx="0.000" cy="0.000" r="0.010" />
<circle cx="0.361" cy="0.000" r="0.010" />
<circle cx="0.674" cy="0.000" r="0.010" />
<circle cx="0.895" cy="0.000" r="0.010" />
<circle cx="0.996" cy="0.000" r="0.010" />
<circle cx="0.962" cy="0.000" r="0.010" />
<circle cx="0.798" cy="0.000" r="0.010" />
<circle cx="0.526" cy="0.000" r="0.010" />
<circle cx="0.184" cy="0.000" r="0.010" />
<circle cx="-0.184" cy="0.000" r="0.010" />
<circle cx="-0.526" cy="0.000" r="0.010" />
<circle cx="-0.798" cy="0.000" r="0.010" />
<circle cx="-0.962" cy="0.000" r="0.010" />
<circle cx="-0.996" cy="0.000" r="0.010" />
<circle cx="-0.895" cy="0.000" r="0.010" />
<circle cx="-0.674" cy="0.000" r="0.010" />
<circle cx="-0.361" cy="0.000" r="0.010" />
<circle cx="0.000" cy="-0.342" r="0.010" />
<circle cx="0.360" cy="-0.342" r="0.010" />
<circle cx="0.664" cy="-0.342" r="0.010" />
<circle cx="0.868" cy="-0.342" r="0.010" />
<circle cx="0.940" cy="-0.342" r="0.010" />
<circle cx="0.868" cy="-0.342" r="0.010" />
<circle cx="0.664" cy="-0.342" r="0.010" />
<circle cx="0.360" cy="-0.342" r="0.010" />
<circle cx="0.000" cy="-0.342" r="0.010" />
<circle cx="-0.360" cy="-0.342" r="0.010" />
<circle cx="-0.664" cy="-0.342" r="0.010" />
<circle cx="-0.868" cy="-0.342" r="0.010" />
<circle cx="-0.940" cy="-0.342" r="0.010" />
<circle cx="-0.868" cy="-0.342" r="0.010" />
<circle cx="-0.664" cy="-0.342" r="0.010" />
<circle cx="-0.360" cy="-0.342" r="0.010" />
<circle cx="0.000" cy="-0.643" r="0.010" />
<circle cx="0.356" cy="-0.643" r="0.010" />
<circle cx="0.630" cy="-0.643" r="0.010" />
<circle cx="0.760" cy="-0.643" r="0.010" />
<circle cx="0.716" cy="-0.643" r="0.010" />
<circle cx="0.508" cy="-0.643" r="0.010" />
<circle cx="0.183" cy="-0.643" r="0.010" />
<circle cx="-0.183" cy="-0.643" r="0.010" />
<circle cx="-0.508" cy="-0.643" r="0.010" />
<circle cx="-0.716" cy="-0.643" r="0.010" />
<circle cx="-0.760" cy="-0.643" r="0.010" />
<circle cx="-0.630" cy="-0.643" r="0.010" />
<circle cx="-0.356" cy="-0.643" r="0.010" />
<circle cx="0.000" cy="-0.866" r="0.010" />
<circle cx="0.321" cy="-0.866" r="0.010" />
<circle cx="0.492" cy="-0.866" r="0.010" />
<circle cx="0.433" cy="-0.866" r="0.010" />
<circle cx="0.171" cy="-0.866" r="0.010" />
<circle cx="-0.171" cy="-0.866" r="0.010" />
<circle cx="-0.433" cy="-0.866" r="0.010" />
<circle cx="-0.492" cy="-0.866" r="0.010" />
<circle cx="-0.321" cy="-0.866" r="0.010" />
<circle cx="0.000" cy="-0.985" r="0.010" />
<circle cx="0.150" cy="-0.985" r="0.010" />
<circle cx="-0.150" cy="-0.985" r="0.010" />
</g>
</svg>