<svg xmlns="http://www.w3.org/2000/svg" width="99.9" height="100.0" viewBox="-54.985 -55.036 109.905 110.000">
<g fill="none" stroke="black" stroke-width="0.0100%" transform="translate(0, -0.0730) scale(50.2255, -50.2255)">
<circle cx="0.000" cy="0.000" r="0.010" />
<circle cx="-0.104" cy="-0.096" r="0.010" />
<circle cx="0.017" cy="0.199" r="0.010" />
<circle cx="0.148" cy="-0.193" r="0.010" />
<circle cx="-0.276" cy="0.049" r="0.010" />
<circle cx="0.264" cy="0.168" r="0.010" />
<circle cx="-0.089" cy="-0.330" r="0.010" />
<circle cx="-0.170" cy="0.327" r="0.010" />
<circle cx="0.369" cy="-0.135" r="0.010" />
<circle cx="-0.384" cy="-0.159" r="0.010" />
<circle cx="0.185" cy="0.396" r="0.010" />
<circle cx="0.137" cy="-0.436" r="0.010" />
<circle cx="-0.412" cy="0.239" r="0.010" />
<circle cx="0.483" cy="0.106" r="0.010" />
<circle cx="-0.294" cy="-0.418" r="0.010" />
<circle cx="-0.068" cy="0.524" r="0.010" />
<circle cx="0.416" cy="-0.350" r="0.010" />
<circle cx="-0.559" cy="-0.023" r="0.010" />
<circle cx="0.407" cy="0.405" r="0.010" />
<circle cx="-0.027" cy="-0.587" r="0.010" />
<circle cx="-0.385" cy="0.462" r="0.010" />
<circle cx="0.609" cy="-0.082" r="0.010" />
<circle cx="-0.515" cy="-0.358" r="0.010" />
<circle cx="0.140" cy="0.624" r="0.010" />
<circle cx="0.324" cy="-0.565" r="0.010" />
<circle cx="-0.632" cy="0.201" r="0.010" />
<circle cx="0.612" cy="0.283" r="0.010" />
<circle cx="-0.264" cy="-0.632" r="0.010" />
<circle cx="-0.235" cy="0.654" r="0.010" />
<circle cx="0.625" cy="-0.328" r="0.010" />
<circle cx="-0.692" cy="-0.182" r="0.010" />
<circle cx="0.392" cy="0.610" r="0.010" />
<circle cx="0.124" cy="-0.724" r="0.010" />
<circle cx="-0.588" cy="0.455" r="0.010" />
<circle cx="0.750" cy="0.062" r="0.010" />
<circle cx="-0.517" cy="-0.559" r="0.010" />
<circle cx="0.004" cy="0.770" r="0.010" />
<circle cx="0.523" cy="-0.576" r="0.010" />
<circle cx="-0.783" cy="0.073" r="0.010" />
<circle cx="0.632" cy="0.480" r="0.010" />
<circle cx="-0.143" cy="-0.789" r="0.010" />
<circle cx="-0.431" cy="0.685" r="0.010" />
<circle cx="0.787" cy="-0.216" r="0.010" />
<circle cx="-0.732" cy="-0.376" r="0.010" />
<circle cx="0.289" cy="0.778" r="0.010" />
<circle cx="0.315" cy="-0.775" r="0.010" />
<circle cx="-0.762" cy="0.361" r="0.010" />
<circle cx="0.812" cy="0.250" r="0.010" />
<circle cx="-0.433" cy="-0.738" r="0.010" />
<circle cx="-0.181" cy="0.842" r="0.010" />
<circle cx="0.707" cy="-0.502" r="0.010" />
<circle cx="-0.866" cy="-0.108" r="0.010" />
<circle cx="0.570" cy="0.669" r="0.010" />
<circle cx="0.032" cy="-0.883" r="0.010" />
<circle cx="-0.624" cy="0.633" r="0.010" />
<circle cx="0.893" cy="-0.046" r="0.010" />
<circle cx="-0.693" cy="-0.573" r="0.010" />
<circle cx="0.125" cy="0.896" r="0.010" />
<circle cx="0.515" cy="-0.749" r="0.010" />
<circle cx="-0.890" cy="0.205" r="0.010" />
<circle cx="0.799" cy="0.452" r="0.010" />
<circle cx="-0.285" cy="-0.877" r="0.010" />
<circle cx="-0.384" cy="0.843" r="0.010" />
<circle cx="0.856" cy="-0.363" r="0.010" />
<circle cx="-0.881" cy="-0.312" r="0.010" />
<circle cx="0.440" cy="0.828" r="0.010" />
<circle cx="0.236" cy="-0.912" r="0.010" />
<circle cx="-0.792" cy="0.515" r="0.010" />
<circle cx="0.936" cy="0.156" r="0.010" />
<circle cx="-0.586" cy="-0.750" r="0.010" />
<circle cx="-0.074" cy="0.952" r="0.010" />
<circle cx="0.700" cy="-0.654" r="0.010" />
<circle cx="-0.961" cy="0.009" r="0.010" />
<circle cx="0.717" cy="0.644" r="0.010" />
<circle cx="-0.094" cy="-0.962" r="0.010" />
<circle cx="-0.582" cy="0.775" r="0.010" />
<circle cx="0.955" cy="-0.179" r="0.010" />
<circle cx="-0.827" cy="-0.515" r="0.010" />
<circle cx="0.263" cy="0.940" r="0.010" />
<circle cx="0.443" cy="-0.873" r="0.010" />
<circle cx="-0.918" cy="0.345" r="0.010" />
<circle cx="0.912" cy="0.366" r="0.010" />
<circle cx="-0.426" cy="-0.888" r="0.010" />
<circle cx="-0.286" cy="0.944" r="0.010" />
<circle cx="0.850" cy="-0.504" r="0.010" />
<circle cx="-0.968" cy="-0.203" r="0.010" />
<circle cx="0.578" cy="0.805" r="0.010" />
<circle cx="0.118" cy="-0.985" r="0.010" />
<circle cx="-0.753" cy="0.648" r="0.010" />
<circle cx="0.994" cy="0.031" r="0.010" />
<circle cx="-0.712" cy="-0.695" r="0.010" />
<circle cx="0.056" cy="0.995" r="0.010" />
<circle cx="0.631" cy="-0.772" r="0.010" />
<circle cx="-0.988" cy="0.143" r="0.010" />
<circle cx="0.825" cy="0.562" r="0.010" />
<circle cx="-0.229" cy="-0.972" r="0.010" />
<circle cx="-0.488" cy="0.872" r="0.010" />
<circle cx="0.949" cy="-0.313" r="0.010" />
<circle cx="-0.912" cy="-0.410" r="0.010" />
<circle cx="0.395" cy="0.919" r="0.010" />
<circle cx="0.329" cy="-0.944" r="0.010" />
<circle cx="-0.881" cy="0.474" r="0.010" />
<circle cx="0.969" cy="0.245" r="0.010" />
<circle cx="-0.549" cy="-0.835" r="0.010" />
<circle cx="-0.160" cy="0.986" r="0.010" />
<circle cx="0.783" cy="-0.619" r="0.010" />
<circle cx="-0.995" cy="-0.073" r="0.010" />
<circle cx="0.684" cy="0.725" r="0.010" />
<circle cx="-0.015" cy="-0.996" r="0.010" />
<circle cx="-0.662" cy="0.744" r="0.010" />
<circle cx="0.989" cy="-0.101" r="0.010" />
<circle cx="-0.797" cy="-0.593" r="0.010" />
<circle cx="0.187" cy="0.974" r="0.010" />
<circle cx="0.519" cy="-0.844" r="0.010" />
<circle cx="-0.952" cy="0.271" r="0.010" />
<circle cx="0.883" cy="0.442" r="0.010" />
<circle cx="-0.352" cy="-0.921" r="0.010" />
<circle cx="-0.362" cy="0.915" r="0.010" />
<circle cx="0.884" cy="-0.429" r="0.010" />
<circle cx="-0.940" cy="-0.280" r="0.010" />
<circle cx="0.503" cy="0.839" r="0.010" />
<circle cx="0.196" cy="-0.957" r="0.010" />
<circle cx="-0.789" cy="0.572" r="0.010" />
<circle cx="0.965" cy="0.111" r="0.010" />
<circle cx="-0.635" cy="-0.732" r="0.010" />
<circle cx="-0.026" cy="0.966" r="0.010" />
<circle cx="0.670" cy="-0.693" r="0.010" />
<circle cx="-0.959" cy="0.058" r="0.010" />
<circle cx="0.745" cy="0.603" r="0.010" />
<circle cx="-0.141" cy="-0.945" r="0.010" />
<circle cx="-0.532" cy="0.789" r="0.010" />
<circle cx="0.922" cy="-0.222" r="0.010" />
<circle cx="-0.827" cy="-0.458" r="0.010" />
<circle cx="0.299" cy="0.893" r="0.010" />
<circle cx="0.381" cy="-0.857" r="0.010" />
<circle cx="-0.856" cy="0.373" r="0.010" />
<circle cx="0.880" cy="0.302" r="0.010" />
<circle cx="-0.443" cy="-0.814" r="0.010" />
<circle cx="-0.222" cy="0.895" r="0.010" />
<circle cx="0.765" cy="-0.508" r="0.010" />
<circle cx="-0.902" cy="-0.142" r="0.010" />
<circle cx="0.567" cy="0.710" r="0.010" />
<circle cx="0.061" cy="-0.902" r="0.010" />
<circle cx="-0.651" cy="0.620" r="0.010" />
<circle cx="0.894" cy="-0.017" r="0.010" />
<circle cx="-0.667" cy="-0.588" r="0.010" />
<circle cx="0.094" cy="0.879" r="0.010" />
<circle cx="0.521" cy="-0.708" r="0.010" />
<circle cx="-0.857" cy="0.169" r="0.010" />
<circle cx="0.741" cy="0.451" r="0.010" />
<circle cx="-0.240" cy="-0.828" r="0.010" />
<circle cx="-0.379" cy="0.767" r="0.010" />
<circle cx="0.792" cy="-0.307" r="0.010" />
<circle cx="-0.785" cy="-0.306" r="0.010" />
<circle cx="0.369" cy="0.751" r="0.010" />
<circle cx="0.233" cy="-0.797" r="0.010" />
<circle cx="-0.704" cy="0.427" r="0.010" />
<circle cx="0.800" cy="0.160" r="0.010" />
<circle cx="-0.478" cy="-0.653" r="0.010" />
<circle cx="-0.087" cy="0.797" r="0.010" />
<circle cx="0.597" cy="-0.523" r="0.010" />
<circle cx="-0.786" cy="-0.017" r="0.010" />
<circle cx="0.562" cy="0.538" r="0.010" />
<circle cx="-0.051" cy="-0.768" r="0.010" />
<circle cx="-0.476" cy="0.594" r="0.010" />
<circle cx="0.744" cy="-0.115" r="0.010" />
<circle cx="-0.619" cy="-0.413" r="0.010" />
<circle cx="0.175" cy="0.714" r="0.010" />
<circle cx="0.348" cy="-0.636" r="0.010" />
<circle cx="-0.677" cy="0.231" r="0.010" />
<circle cx="0.646" cy="0.283" r="0.010" />
<circle cx="-0.281" cy="-0.636" r="0.010" />
<circle cx="-0.219" cy="0.649" r="0.010" />
<circle cx="0.590" cy="-0.325" r="0.010" />
<circle cx="-0.644" cy="-0.156" r="0.010" />
<circle cx="0.363" cy="0.541" r="0.010" />
<circle cx="0.096" cy="-0.632" r="0.010" />
<circle cx="-0.488" cy="0.394" r="0.010" />
<circle cx="0.613" cy="0.039" r="0.010" />
<circle cx="-0.417" cy="-0.433" r="0.010" />
<circle cx="0.014" cy="0.588" r="0.010" />
<circle cx="0.377" cy="-0.432" r="0.010" />
<circle cx="-0.556" cy="0.062" r="0.010" />
<circle cx="0.440" cy="0.320" r="0.010" />
<circle cx="-0.105" cy="-0.518" r="0.010" />
<circle cx="-0.264" cy="0.438" r="0.010" />
<circle cx="0.474" cy="-0.140" r="0.010" />
<circle cx="-0.428" cy="-0.209" r="0.010" />
<circle cx="0.167" cy="0.425" r="0.010" />
<circle cx="0.157" cy="-0.408" r="0.010" />
<circle cx="-0.372" cy="0.185" r="0.010" />
<circle cx="0.378" cy="0.108" r="0.010" />
<circle cx="-0.192" cy="-0.314" r="0.010" />
<circle cx="-0.065" cy="0.336" r="0.010" />
<circle cx="0.252" cy="-0.186" r="0.010" />
<circle cx="-0.279" cy="-0.029" r="0.010" />
<circle cx="0.162" cy="0.182" r="0.010" />
<circle cx="0.003" cy="-0.199" r="0.010" />
<circle cx="-0.097" cy="0.103" r="0.010" />
<circle cx="0.000" cy="0.000" r="0.010" />
</g>
</svg>