<svg xmlns="http://www.w3.org/2000/svg" width="99.3" height="100.0" viewBox="-54.623 -54.988 109.322 110.000">
<g fill="none" stroke="black" stroke-width="0.0122%" transform="translate(0, 0.0247) scale(40.8354, -40.8354)">
<circle cx="0.000" cy="1.000" r="0.012" />
<circle cx="0.008" cy="0.890" r="0.012" />
<circle cx="0.157" cy="1.088" r="0.012" />
<circle cx="-0.296" cy="0.947" r="0.012" />
<circle cx="0.282" cy="0.846" r="0.012" />
<circle cx="-0.083" cy="1.166" r="0.012" />
<circle cx="-0.209" cy="0.730" r="0.012" />
<circle cx="0.430" cy="1.008" r="0.012" />
<circle cx="-0.436" cy="1.037" r="0.012" />
<circle cx="0.195" cy="0.638" r="0.012" />
<circle cx="0.182" cy="1.190" r="0.012" />
<circle cx="-0.496" cy="0.740" r="0.012" />
<circle cx="0.563" cy="0.793" r="0.012" />
<circle cx="-0.326" cy="1.164" r="0.012" />
<circle cx="-0.108" cy="0.503" r="0.012" />
<circle cx="0.512" cy="1.077" r="0.012" />
<circle cx="-0.664" cy="0.872" r="0.012" />
<circle cx="0.464" cy="0.538" r="0.012" />
<circle cx="-0.002" cy="1.225" r="0.012" />
<circle cx="-0.485" cy="0.502" r="0.012" />
<circle cx="0.734" cy="0.837" r="0.012" />
<circle cx="-0.598" cy="1.052" r="0.012" />
<circle cx="0.136" cy="0.342" r="0.012" />
<circle cx="0.419" cy="1.151" r="0.012" />
<circle cx="-0.770" cy="0.638" r="0.012" />
<circle cx="0.721" cy="0.534" r="0.012" />
<circle cx="-0.285" cy="1.186" r="0.012" />
<circle cx="-0.318" cy="0.281" r="0.012" />
<circle cx="0.771" cy="0.928" r="0.012" />
<circle cx="-0.825" cy="0.857" r="0.012" />
<circle cx="0.441" cy="0.261" r="0.012" />
<circle cx="0.189" cy="1.190" r="0.012" />
<circle cx="-0.735" cy="0.379" r="0.012" />
<circle cx="0.904" cy="0.602" r="0.012" />
<circle cx="-0.596" cy="1.064" r="0.012" />
<circle cx="-0.036" cy="0.110" r="0.012" />
<circle cx="0.663" cy="1.025" r="0.012" />
<circle cx="-0.952" cy="0.601" r="0.012" />
<circle cx="0.741" cy="0.263" r="0.012" />
<circle cx="-0.132" cy="1.164" r="0.012" />
<circle cx="-0.559" cy="0.132" r="0.012" />
<circle cx="0.966" cy="0.715" r="0.012" />
<circle cx="-0.868" cy="0.864" r="0.012" />
<circle cx="0.309" cy="0.014" r="0.012" />
<circle cx="0.424" cy="1.091" r="0.012" />
<circle cx="-0.944" cy="0.318" r="0.012" />
<circle cx="0.973" cy="0.337" r="0.012" />
<circle cx="-0.486" cy="1.059" r="0.012" />
<circle cx="-0.265" cy="-0.068" r="0.012" />
<circle cx="0.886" cy="0.838" r="0.012" />
<circle cx="-1.048" cy="0.600" r="0.012" />
<circle cx="0.657" cy="0.000" r="0.012" />
<circle cx="0.086" cy="1.097" r="0.012" />
<circle cx="-0.793" cy="0.042" r="0.012" />
<circle cx="1.089" cy="0.462" r="0.012" />
<circle cx="-0.813" cy="0.871" r="0.012" />
<circle cx="0.104" cy="-0.196" r="0.012" />
<circle cx="0.667" cy="0.937" r="0.012" />
<circle cx="-1.095" cy="0.301" r="0.012" />
<circle cx="0.948" cy="0.064" r="0.012" />
<circle cx="-0.300" cy="1.022" r="0.012" />
<circle cx="-0.513" cy="-0.194" r="0.012" />
<circle cx="1.063" cy="0.606" r="0.012" />
<circle cx="-1.056" cy="0.613" r="0.012" />
<circle cx="0.493" cy="-0.239" r="0.012" />
<circle cx="0.336" cy="0.981" r="0.012" />
<circle cx="-0.994" cy="-0.001" r="0.012" />
<circle cx="1.132" cy="0.188" r="0.012" />
<circle cx="-0.675" cy="0.862" r="0.012" />
<circle cx="-0.141" cy="-0.362" r="0.012" />
<circle cx="0.889" cy="0.735" r="0.012" />
<circle cx="-1.173" cy="0.309" r="0.012" />
<circle cx="0.840" cy="-0.199" r="0.012" />
<circle cx="-0.063" cy="0.947" r="0.012" />
<circle cx="-0.752" cy="-0.272" r="0.012" />
<circle cx="1.175" cy="0.343" r="0.012" />
<circle cx="-0.982" cy="0.624" r="0.012" />
<circle cx="0.270" cy="-0.445" r="0.012" />
<circle cx="0.587" cy="0.818" r="0.012" />
<circle cx="-1.139" cy="-0.009" r="0.012" />
<circle cx="1.094" cy="-0.090" r="0.012" />
<circle cx="-0.473" cy="0.825" r="0.012" />
<circle cx="-0.400" cy="-0.481" r="0.012" />
<circle cx="1.065" cy="0.495" r="0.012" />
<circle cx="-1.172" cy="0.329" r="0.012" />
<circle cx="0.663" cy="-0.440" r="0.012" />
<circle cx="0.197" cy="0.827" r="0.012" />
<circle cx="-0.955" cy="-0.308" r="0.012" />
<circle cx="1.213" cy="0.063" r="0.012" />
<circle cx="-0.834" cy="0.618" r="0.012" />
<circle cx="0.015" cy="-0.608" r="0.012" />
<circle cx="0.813" cy="0.611" r="0.012" />
<circle cx="-1.215" cy="0.005" r="0.012" />
<circle cx="0.979" cy="-0.357" r="0.012" />
<circle cx="-0.228" cy="0.749" r="0.012" />
<circle cx="-0.644" cy="-0.555" r="0.012" />
<circle cx="1.178" cy="0.227" r="0.012" />
<circle cx="-1.093" cy="0.343" r="0.012" />
<circle cx="0.434" cy="-0.646" r="0.012" />
<circle cx="0.453" cy="0.662" r="0.012" />
<circle cx="-1.103" cy="-0.313" r="0.012" />
<circle cx="1.173" cy="-0.218" r="0.012" />
<circle cx="-0.627" cy="0.582" r="0.012" />
<circle cx="-0.248" cy="-0.727" r="0.012" />
<circle cx="0.992" cy="0.368" r="0.012" />
<circle cx="-1.215" cy="0.027" r="0.012" />
<circle cx="0.799" cy="-0.599" r="0.012" />
<circle cx="0.036" cy="0.629" r="0.012" />
<circle cx="-0.850" cy="-0.591" r="0.012" />
<circle cx="1.217" cy="-0.054" r="0.012" />
<circle cx="-0.945" cy="0.338" r="0.012" />
<circle cx="0.177" cy="-0.810" r="0.012" />
<circle cx="0.682" cy="0.455" r="0.012" />
<circle cx="-1.180" cy="-0.298" r="0.012" />
<circle cx="1.059" cy="-0.486" r="0.012" />
<circle cx="-0.382" cy="0.507" r="0.012" />
<circle cx="-0.493" cy="-0.802" r="0.012" />
<circle cx="1.106" cy="0.101" r="0.012" />
<circle cx="-1.137" cy="0.041" r="0.012" />
<circle cx="0.572" cy="-0.806" r="0.012" />
<circle cx="0.291" cy="0.465" r="0.012" />
<circle cx="-0.998" cy="-0.597" r="0.012" />
<circle cx="1.178" cy="-0.335" r="0.012" />
<circle cx="-0.740" cy="0.302" r="0.012" />
<circle cx="-0.084" cy="-0.930" r="0.012" />
<circle cx="0.859" cy="0.214" r="0.012" />
<circle cx="-1.180" cy="-0.278" r="0.012" />
<circle cx="0.881" cy="-0.727" r="0.012" />
<circle cx="-0.123" cy="0.387" r="0.012" />
<circle cx="-0.696" cy="-0.839" r="0.012" />
<circle cx="1.144" cy="-0.178" r="0.012" />
<circle cx="-0.991" cy="0.034" r="0.012" />
<circle cx="0.320" cy="-0.969" r="0.012" />
<circle cx="0.514" cy="0.259" r="0.012" />
<circle cx="-1.072" cy="-0.585" r="0.012" />
<circle cx="1.065" cy="-0.598" r="0.012" />
<circle cx="-0.500" cy="0.224" r="0.012" />
<circle cx="-0.321" cy="-1.005" r="0.012" />
<circle cx="0.967" cy="-0.050" r="0.012" />
<circle cx="-1.102" cy="-0.268" r="0.012" />
<circle cx="0.659" cy="-0.929" r="0.012" />
<circle cx="0.124" cy="0.222" r="0.012" />
<circle cx="-0.834" cy="-0.847" r="0.012" />
<circle cx="1.101" cy="-0.453" r="0.012" />
<circle cx="-0.790" cy="-0.009" r="0.012" />
<circle cx="0.069" cy="-1.085" r="0.012" />
<circle cx="0.679" cy="0.019" r="0.012" />
<circle cx="-1.064" cy="-0.571" r="0.012" />
<circle cx="0.888" cy="-0.831" r="0.012" />
<circle cx="-0.251" cy="0.099" r="0.012" />
<circle cx="-0.509" cy="-1.041" r="0.012" />
<circle cx="0.993" cy="-0.324" r="0.012" />
<circle cx="-0.952" cy="-0.285" r="0.012" />
<circle cx="0.415" cy="-1.084" r="0.012" />
<circle cx="0.330" cy="0.012" r="0.012" />
<circle cx="-0.892" cy="-0.840" r="0.012" />
<circle cx="0.979" cy="-0.707" r="0.012" />
<circle cx="-0.555" cy="-0.098" r="0.012" />
<circle cx="-0.151" cy="-1.153" r="0.012" />
<circle cx="0.766" cy="-0.243" r="0.012" />
<circle cx="-0.970" cy="-0.571" r="0.012" />
<circle cx="0.666" cy="-1.020" r="0.012" />
<circle cx="-0.021" cy="-0.078" r="0.012" />
<circle cx="-0.622" cy="-1.048" r="0.012" />
<circle cx="0.927" cy="-0.589" r="0.012" />
<circle cx="-0.744" cy="-0.344" r="0.012" />
<circle cx="0.178" cy="-1.184" r="0.012" />
<circle cx="0.466" cy="-0.234" r="0.012" />
<circle cx="-0.853" cy="-0.832" r="0.012" />
<circle cx="0.786" cy="-0.922" r="0.012" />
<circle cx="-0.314" cy="-0.244" r="0.012" />
<circle cx="-0.308" cy="-1.177" r="0.012" />
<circle cx="0.752" cy="-0.514" r="0.012" />
<circle cx="-0.793" cy="-0.606" r="0.012" />
<circle cx="0.422" cy="-1.149" r="0.012" />
<circle cx="0.154" cy="-0.307" r="0.012" />
<circle cx="-0.631" cy="-1.037" r="0.012" />
<circle cx="0.764" cy="-0.826" r="0.012" />
<circle cx="-0.498" cy="-0.463" r="0.012" />
<circle cx="-0.014" cy="-1.224" r="0.012" />
<circle cx="0.496" cy="-0.508" r="0.012" />
<circle cx="-0.701" cy="-0.847" r="0.012" />
<circle cx="0.535" cy="-1.076" r="0.012" />
<circle cx="-0.103" cy="-0.459" r="0.012" />
<circle cx="-0.358" cy="-1.160" r="0.012" />
<circle cx="0.608" cy="-0.772" r="0.012" />
<circle cx="-0.532" cy="-0.702" r="0.012" />
<circle cx="0.189" cy="-1.198" r="0.012" />
<circle cx="0.224" cy="-0.593" r="0.012" />
<circle cx="-0.489" cy="-1.025" r="0.012" />
<circle cx="0.483" cy="-1.003" r="0.012" />
<circle cx="-0.233" cy="-0.677" r="0.012" />
<circle cx="-0.105" cy="-1.183" r="0.012" />
<circle cx="0.347" cy="-0.804" r="0.012" />
<circle cx="-0.379" cy="-0.917" r="0.012" />
<circle cx="0.216" cy="-1.114" r="0.012" />
<circle cx="0.018" cy="-0.798" r="0.012" />
<circle cx="-0.176" cy="-1.078" r="0.012" />
<circle cx="0.173" cy="-0.987" r="0.012" />
<circle cx="-0.000" cy="-1.000" r="0.012" />
</g>
</svg>