<svg xmlns="http://www.w3.org/2000/svg" width="111.3" height="100.0" viewBox="-59.674 -55.000 121.286 110.000">
<g fill="none" stroke="black" stroke-width="0.0096%" transform="translate(0, 0.0000) scale(52.0130, -52.0130)">
<polyline points="0.469,0.883 0.449,0.871 0.426,0.859 0.398,0.847 0.367,0.836 0.332,0.824 0.294,0.813 0.253,0.802 0.209,0.792 0.163,0.783 0.116,0.774 0.067,0.767 0.017,0.760 -0.034,0.754 -0.085,0.749 -0.135,0.745 -0.185,0.742 -0.233,0.740 -0.279,0.739 -0.324,0.739 -0.366,0.741 -0.405,0.743 -0.441,0.747 -0.473,0.751 -0.501,0.757 -0.525,0.763 -0.545,0.771 -0.560,0.779 -0.570,0.788 -0.575,0.797 -0.574,0.807 -0.569,0.818 -0.559,0.829 -0.543,0.840 -0.523,0.851 -0.498,0.862 -0.468,0.873 -0.433,0.884 -0.395,0.895 -0.352,0.905 -0.306,0.915 -0.257,0.924 -0.206,0.932 -0.152,0.939 -0.096,0.946 -0.039,0.951 0.020,0.955 0.078,0.959 0.136,0.961 0.194,0.961 0.250,0.961 0.305,0.959 0.357,0.956 0.407,0.951 0.453,0.946 0.496,0.939 0.535,0.930 0.569,0.921 0.599,0.910 0.623,0.898 0.642,0.886 0.656,0.872 0.664,0.858 0.666,0.842 0.662,0.827 0.652,0.810 0.636,0.794 0.615,0.777 0.588,0.760 0.555,0.743 0.517,0.726 0.474,0.709 0.426,0.693 0.374,0.677 0.319,0.662 0.259,0.648 0.198,0.635 0.133,0.622 0.067,0.611 -0.000,0.601 -0.068,0.592 -0.136,0.584 -0.203,0.578 -0.270,0.573 -0.334,0.569 -0.396,0.568 -0.455,0.567 -0.511,0.568 -0.562,0.570 -0.609,0.574 -0.651,0.579 -0.688,0.586 -0.719,0.593 -0.743,0.602 -0.761,0.612 -0.773,0.623 -0.778,0.634 -0.776,0.646 -0.767,0.659 -0.751,0.672 -0.728,0.686 -0.698,0.699 -0.662,0.713 -0.620,0.726 -0.571,0.739 -0.517,0.752 -0.458,0.763 -0.395,0.774 -0.327,0.784 -0.255,0.793 -0.181,0.801 -0.104,0.808 -0.026,0.813 0.053,0.816 0.133,0.818 0.212,0.818 0.290,0.816 0.366,0.813 0.439,0.808 0.509,0.801 0.576,0.792 0.637,0.781 0.694,0.769 0.745,0.755 0.789,0.739 0.827,0.722 0.858,0.703 0.882,0.683 0.898,0.661 0.906,0.639 0.906,0.615 0.897,0.591 0.881,0.566 0.857,0.541 0.824,0.515 0.784,0.489 0.737,0.463 0.683,0.438 0.622,0.413 0.555,0.388 0.483,0.364 0.405,0.341 0.324,0.320 0.239,0.299 0.151,0.280 0.061,0.262 -0.031,0.246 -0.122,0.232 -0.214,0.220 -0.304,0.209 -0.392,0.200 -0.477,0.193 -0.558,0.188 -0.635,0.186 -0.707,0.185 -0.773,0.185 -0.833,0.188 -0.885,0.193 -0.930,0.199 -0.967,0.206 -0.995,0.215 -1.015,0.226 -1.025,0.237 -1.027,0.249 -1.019,0.262 -1.002,0.276 -0.976,0.290 -0.941,0.304 -0.898,0.319 -0.846,0.333 -0.786,0.346 -0.719,0.359 -0.646,0.372 -0.566,0.383 -0.480,0.393 -0.390,0.401 -0.296,0.409 -0.199,0.414 -0.100,0.418 0.000,0.419 0.101,0.419 0.201,0.416 0.300,0.412 0.396,0.405 0.489,0.396 0.578,0.384 0.662,0.371 0.741,0.355 0.812,0.337 0.877,0.317 0.934,0.295 0.983,0.271 1.022,0.246 1.053,0.219 1.075,0.190 1.086,0.160 1.088,0.130 1.081,0.098 1.063,0.066 1.036,0.033 1.000,-0.000 0.955,-0.033 0.901,-0.066 0.839,-0.098 0.770,-0.130 0.694,-0.160 0.611,-0.190 0.524,-0.219 0.431,-0.246 0.335,-0.271 0.236,-0.295 0.136,-0.317 0.034,-0.337 -0.068,-0.355 -0.169,-0.371 -0.269,-0.384 -0.365,-0.396 -0.458,-0.405 -0.547,-0.412 -0.631,-0.416 -0.708,-0.419 -0.779,-0.419 -0.843,-0.418 -0.899,-0.414 -0.947,-0.409 -0.986,-0.401 -1.016,-0.393 -1.037,-0.383 -1.049,-0.372 -1.051,-0.359 -1.044,-0.346 -1.027,-0.333 -1.002,-0.319 -0.967,-0.304 -0.925,-0.290 -0.874,-0.276 -0.815,-0.262 -0.750,-0.249 -0.678,-0.237 -0.601,-0.226 -0.519,-0.215 -0.433,-0.206 -0.343,-0.199 -0.251,-0.193 -0.157,-0.188 -0.063,-0.185 0.032,-0.185 0.125,-0.186 0.217,-0.188 0.306,-0.193 0.392,-0.200 0.473,-0.209 0.550,-0.220 0.622,-0.232 0.687,-0.246 0.746,-0.262 0.797,-0.280 0.841,-0.299 0.878,-0.320 0.906,-0.341 0.926,-0.364 0.937,-0.388 0.940,-0.413 0.935,-0.438 0.922,-0.463 0.900,-0.489 0.871,-0.515 0.834,-0.541 0.790,-0.566 0.739,-0.591 0.682,-0.615 0.620,-0.639 0.553,-0.661 0.481,-0.683 0.406,-0.703 0.327,-0.722 0.247,-0.739 0.165,-0.755 0.082,-0.769 -0.000,-0.781 -0.082,-0.792 -0.163,-0.801 -0.241,-0.808 -0.316,-0.813 -0.388,-0.816 -0.456,-0.818 -0.519,-0.818 -0.577,-0.816 -0.629,-0.813 -0.676,-0.808 -0.715,-0.801 -0.749,-0.793 -0.775,-0.784 -0.794,-0.774 -0.806,-0.763 -0.810,-0.752 -0.808,-0.739 -0.798,-0.726 -0.781,-0.713 -0.758,-0.699 -0.728,-0.686 -0.692,-0.672 -0.650,-0.659 -0.602,-0.646 -0.550,-0.634 -0.494,-0.623 -0.433,-0.612 -0.369,-0.602 -0.303,-0.593 -0.235,-0.586 -0.165,-0.579 -0.094,-0.574 -0.023,-0.570 0.047,-0.568 0.116,-0.567 0.184,-0.568 0.249,-0.569 0.312,-0.573 0.371,-0.578 0.426,-0.584 0.477,-0.592 0.524,-0.601 0.565,-0.611 0.601,-0.622 0.631,-0.635 0.656,-0.648 0.674,-0.662 0.686,-0.677 0.692,-0.693 0.692,-0.709 0.686,-0.726 0.674,-0.743 0.656,-0.760 0.632,-0.777 0.603,-0.794 0.568,-0.810 0.530,-0.827 0.486,-0.842 0.439,-0.858 0.389,-0.872 0.335,-0.886 0.279,-0.898 0.221,-0.910 0.161,-0.921 0.101,-0.930 0.040,-0.939 -0.020,-0.946 -0.080,-0.951 -0.139,-0.956 -0.195,-0.959 -0.250,-0.961 -0.302,-0.961 -0.351,-0.961 -0.396,-0.959 -0.437,-0.955 -0.474,-0.951 -0.507,-0.946 -0.535,-0.939 -0.558,-0.932 -0.575,-0.924 -0.588,-0.915 -0.595,-0.905 -0.597,-0.895 -0.593,-0.884 -0.585,-0.873 -0.571,-0.862 -0.552,-0.851 -0.529,-0.840 -0.501,-0.829 -0.469,-0.818 -0.433,-0.807 -0.393,-0.797 -0.351,-0.788 -0.305,-0.779 -0.257,-0.771 -0.208,-0.763 -0.157,-0.757 -0.105,-0.751 -0.052,-0.747 0.000,-0.743 0.052,-0.741 0.103,-0.739 0.153,-0.739 0.201,-0.740 0.247,-0.742 0.291,-0.745 0.331,-0.749 0.368,-0.754 0.402,-0.760 0.432,-0.767 0.457,-0.774 0.479,-0.783 0.496,-0.792 0.509,-0.802 0.516,-0.813 0.520,-0.824 0.519,-0.836 0.513,-0.847 0.502,-0.859 0.488,-0.871 0.469,-0.883" />
</g>
</svg>