<svg xmlns="http://www.w3.org/2000/svg" width="100" height="100" viewBox="0 0 100 100">
<rect x="0" y="48" width="4" height="4" fill="rgb(0,0,0)"/>
<rect x="0" y="72" width="4" height="4" fill="rgb(0,0,0)"/>
<rect x="4" y="12" width="4" height="4" fill="rgb(0,0,0)"/>
<rect x="4" y="36" width="4" height="4" fill="rgb(0,0,0)"/>
<rect x="4" y="68" width="4" height="4" fill="rgb(0,0,0)"/>
<rect x="4" y="84" width="4" height="4" fill="rgb(0,0,0)"/>
<rect x="4" y="92" width="4" height="4" fill="rgb(0,0,0)"/>
<rect x="8" y="32" width="4" height="4" fill="rgb(0,0,0)"/>
<rect x="8" y="56" width="4" height="4" fill="rgb(0,0,0)"/>
<rect x="8" y="80" width="4" height="4" fill="rgb(0,0,0)"/>
<rect x="12" y="28" width="4" height="4" fill="rgb(0,0,0)"/>
<rect x="12" y="84" width="4" height="4" fill="rgb(0,0,0)"/>
<rect x="16" y="8" width="4" height="4" fill="rgb(0,0,0)"/>
<rect x="16" y="24" width="4" height="4" fill="rgb(0,0,0)"/>
<rect x="16" y="32" width="4" height="4" fill="rgb(0,0,0)"/>
<rect x="16" y="48" width="4" height="4" fill="rgb(0,0,0)"/>
<rect x="16" y="72" width="4" height="4" fill="rgb(0,0,0)"/>
<rect x="16" y="80" width="4" height="4" fill="rgb(0,0,0)"/>
<rect x="16" y="88" width="4" height="4" fill="rgb(0,0,0)"/>
<rect x="16" y="96" width="4" height="4" fill="rgb(0,0,0)"/>
<rect x="20" y="12" width="4" height="4" fill="rgb(0,0,0)"/>
<rect x="20" y="36" width="4" height="4" fill="rgb(0,0,0)"/>
<rect x="20" y="60" width="4" height="4" fill="rgb(0,0,0)"/>
<rect x="20" y="68" width="4" height="4" fill="rgb(0,0,0)"/>
<rect x="20" y="92" width="4" height="4" fill="rgb(0,0,0)"/>
<rect x="24" y="0" width="4" height="4" fill="rgb(0,0,0)"/>
<rect x="24" y="48" width="4" height="4" fill="rgb(0,0,0)"/>
<rect x="24" y="64" width="4" height="4" fill="rgb(0,0,0)"/>
<rect x="28" y="4" width="4" height="4" fill="rgb(0,0,0)"/>
<rect x="28" y="20" width="4" height="4" fill="rgb(0,0,0)"/>
<rect x="28" y="36" width="4" height="4" fill="rgb(0,0,0)"/>
<rect x="28" y="60" width="4" height="4" fill="rgb(0,0,0)"/>
<rect x="28" y="84" width="4" height="4" fill="rgb(0,0,0)"/>
<rect x="32" y="0" width="4" height="4" fill="rgb(0,0,0)"/>
<rect x="32" y="24" width="4" height="4" fill="rgb(0,0,0)"/>
<rect x="32" y="48" width="4" height="4" fill="rgb(0,0,0)"/>
<rect x="36" y="4" width="4" height="4" fill="rgb(0,0,0)"/>
<rect x="36" y="52" width="4" height="4" fill="rgb(0,0,0)"/>
<rect x="36" y="60" width="4" height="4" fill="rgb(0,0,0)"/>
<rect x="36" y="84" width="4" height="4" fill="rgb(0,0,0)"/>
<rect x="40" y="8" width="4" height="4" fill="rgb(0,0,0)"/>
<rect x="40" y="16" width="4" height="4" fill="rgb(0,0,0)"/>
<rect x="40" y="32" width="4" height="4" fill="rgb(0,0,0)"/>
<rect x="40" y="48" width="4" height="4" fill="rgb(0,0,0)"/>
<rect x="40" y="56" width="4" height="4" fill="rgb(0,0,0)"/>
<rect x="40" y="64" width="4" height="4" fill="rgb(0,0,0)"/>
<rect x="40" y="72" width="4" height="4" fill="rgb(0,0,0)"/>
<rect x="40" y="88" width="4" height="4" fill="rgb(0,0,0)"/>
<rect x="40" y="96" width="4" height="4" fill="rgb(0,0,0)"/>
<rect x="44" y="12" width="4" height="4" fill="rgb(0,0,0)"/>
<rect x="44" y="36" width="4" height="4" fill="rgb(0,0,0)"/>
<rect x="44" y="48" width="4" height="4" fill="rgb(0,0,0)"/>
<rect x="44" y="52" width="4" height="4" fill="rgb(0,0,0)"/>
<rect x="48" y="0" width="4" height="4" fill="rgb(0,0,0)"/>
<rect x="48" y="8" width="4" height="4" fill="rgb(0,0,0)"/>
<rect x="48" y="16" width="4" height="4" fill="rgb(0,0,0)"/>
<rect x="48" y="24" width="4" height="4" fill="rgb(0,0,0)"/>
<rect x="48" y="40" width="4" height="4" fill="rgb(0,0,0)"/>
<rect x="48" y="64" width="4" height="4" fill="rgb(0,0,0)"/>
<rect x="48" y="72" width="4" height="4" fill="rgb(0,0,0)"/>
<rect x="52" y="44" width="4" height="4" fill="rgb(0,0,0)"/>
<rect x="52" y="52" width="4" height="4" fill="rgb(0,0,0)"/>
<rect x="52" y="68" width="4" height="4" fill="rgb(0,0,0)"/>
<rect x="52" y="76" width="4" height="4" fill="rgb(0,0,0)"/>
<rect x="52" y="84" width="4" height="4" fill="rgb(0,0,0)"/>
<rect x="56" y="48" width="4" height="4" fill="rgb(0,0,0)"/>
<rect x="56" y="56" width="4" height="4" fill="rgb(0,0,0)"/>
<rect x="56" y="80" width="4" height="4" fill="rgb(0,0,0)"/>
<rect x="60" y="12" width="4" height="4" fill="rgb(0,0,0)"/>
<rect x="60" y="28" width="4" height="4" fill="rgb(0,0,0)"/>
<rect x="60" y="36" width="4" height="4" fill="rgb(0,0,0)"/>
<rect x="60" y="44" width="4" height="4" fill="rgb(0,0,0)"/>
<rect x="60" y="60" width="4" height="4" fill="rgb(0,0,0)"/>
<rect x="60" y="76" width="4" height="4" fill="rgb(0,0,0)"/>
<rect x="64" y="16" width="4" height="4" fill="rgb(0,0,0)"/>
<rect x="64" y="32" width="4" height="4" fill="rgb(0,0,0)"/>
<rect x="64" y="40" width="4" height="4" fill="rgb(0,0,0)"/>
<rect x="64" y="56" width="4" height="4" fill="rgb(0,0,0)"/>
<rect x="64" y="96" width="4" height="4" fill="rgb(0,0,0)"/>
<rect x="68" y="12" width="4" height="4" fill="rgb(0,0,0)"/>
<rect x="68" y="36" width="4" height="4" fill="rgb(0,0,0)"/>
<rect x="68" y="44" width="4" height="4" fill="rgb(0,0,0)"/>
<rect x="68" y="60" width="4" height="4" fill="rgb(0,0,0)"/>
<rect x="68" y="68" width="4" height="4" fill="rgb(0,0,0)"/>
<rect x="68" y="92" width="4" height="4" fill="rgb(0,0,0)"/>
<rect x="72" y="0" width="4" height="4" fill="rgb(0,0,0)"/>
<rect x="72" y="24" width="4" height="4" fill="rgb(0,0,0)"/>
<rect x="72" y="48" width="4" height="4" fill="rgb(0,0,0)"/>
<rect x="72" y="56" width="4" height="4" fill="rgb(0,0,0)"/>
<rect x="72" y="88" width="4" height="4" fill="rgb(0,0,0)"/>
<rect x="72" y="96" width="4" height="4" fill="rgb(0,0,0)"/>
<rect x="76" y="20" width="4" height="4" fill="rgb(0,0,0)"/>
<rect x="76" y="68" width="4" height="4" fill="rgb(0,0,0)"/>
<rect x="76" y="76" width="4" height="4" fill="rgb(0,0,0)"/>
<rect x="80" y="24" width="4" height="4" fill="rgb(0,0,0)"/>
<rect x="80" y="32" width="4" height="4" fill="rgb(0,0,0)"/>
<rect x="80" y="56" width="4" height="4" fill="rgb(0,0,0)"/>
<rect x="80" y="80" width="4" height="4" fill="rgb(0,0,0)"/>
<rect x="84" y="4" width="4" height="4" fill="rgb(0,0,0)"/>
<rect x="84" y="36" width="4" height="4" fill="rgb(0,0,0)"/>
<rect x="84" y="60" width="4" height="4" fill="rgb(0,0,0)"/>
<rect x="88" y="8" width="4" height="4" fill="rgb(0,0,0)"/>
<rect x="88" y="16" width="4" height="4" fill="rgb(0,0,0)"/>
<rect x="88" y="56" width="4" height="4" fill="rgb(0,0,0)"/>
<rect x="88" y="88" width="4" height="4" fill="rgb(0,0,0)"/>
<rect x="92" y="20" width="4" height="4" fill="rgb(0,0,0)"/>
<rect x="92" y="36" width="4" height="4" fill="rgb(0,0,0)"/>
<rect x="92" y="68" width="4" height="4" fill="rgb(0,0,0)"/>
<rect x="92" y="84" width="4" height="4" fill="rgb(0,0,0)"/>
<rect x="96" y="0" width="4" height="4" fill="rgb(0,0,0)"/>
<rect x="96" y="8" width="4" height="4" fill="rgb(0,0,0)"/>
<rect x="96" y="32" width="4" height="4" fill="rgb(0,0,0)"/>
<rect x="96" y="56" width="4" height="4" fill="rgb(0,0,0)"/>
<rect x="96" y="96" width="4" height="4" fill="rgb(0,0,0)"/>
</svg>