<svg xmlns="http://www.w3.org/2000/svg" width="161.8" height="100.0" viewBox="-3.10 -5.00 171.80 110.00">
<g fill="none" stroke="black" stroke-width="0.0200%" transform="translate(0, 100.0000) scale(25.0000, -25.0000)">

<line x1="0.15" y1="0.00" x2="0.15" y2="1.00" />
<line x1="0.23" y1="0.00" x2="0.23" y2="1.00" />
<line x1="0.30" y1="0.00" x2="0.30" y2="1.00" />
<line x1="0.38" y1="0.00" x2="0.38" y2="1.00" />
<line x1="0.46" y1="0.00" x2="0.46" y2="2.00" />
<line x1="0.53" y1="0.00" x2="0.53" y2="1.00" />
<line x1="0.61" y1="0.00" x2="0.61" y2="1.00" />
<line x1="0.69" y1="0.00" x2="0.69" y2="1.00" />
<line x1="0.76" y1="0.00" x2="0.76" y2="2.00" />
<line x1="0.84" y1="0.00" x2="0.84" y2="2.00" />
<line x1="0.91" y1="0.00" x2="0.91" y2="2.00" />
<line x1="0.99" y1="0.00" x2="0.99" y2="1.00" />
<line x1="1.07" y1="0.00" x2="1.07" y2="2.00" />
<line x1="1.14" y1="0.00" x2="1.14" y2="1.00" />
<line x1="1.22" y1="0.00" x2="1.22" y2="1.00" />
<line x1="1.29" y1="0.00" x2="1.29" y2="1.00" />
<line x1="1.37" y1="0.00" x2="1.37" y2="2.00" />
<line x1="1.45" y1="0.00" x2="1.45" y2="2.00" />
<line x1="1.52" y1="0.00" x2="1.52" y2="2.00" />
<line x1="1.60" y1="0.00" x2="1.60" y2="2.00" />
<line x1="1.68" y1="0.00" x2="1.68" y2="3.00" />
<line x1="1.75" y1="0.00" x2="1.75" y2="2.00" />
<line x1="1.83" y1="0.00" x2="1.83" y2="2.00" />
<line x1="1.90" y1="0.00" x2="1.90" y2="1.00" />
<line x1="1.98" y1="0.00" x2="1.98" y2="2.00" />
<line x1="2.06" y1="0.00" x2="2.06" y2="2.00" />
<line x1="2.13" y1="0.00" x2="2.13" y2="2.00" />
<line x1="2.21" y1="0.00" x2="2.21" y2="1.00" />
<line x1="2.28" y1="0.00" x2="2.28" y2="2.00" />
<line x1="2.36" y1="0.00" x2="2.36" y2="1.00" />
<line x1="2.44" y1="0.00" x2="2.44" y2="1.00" />
<line x1="2.51" y1="0.00" x2="2.51" y2="1.00" />
<line x1="2.59" y1="0.00" x2="2.59" y2="2.00" />
<line x1="2.66" y1="0.00" x2="2.66" y2="2.00" />
<line x1="2.74" y1="0.00" x2="2.74" y2="2.00" />
<line x1="2.82" y1="0.00" x2="2.82" y2="2.00" />
<line x1="2.89" y1="0.00" x2="2.89" y2="3.00" />
<line x1="2.97" y1="0.00" x2="2.97" y2="2.00" />
<line x1="3.05" y1="0.00" x2="3.05" y2="2.00" />
<line x1="3.12" y1="0.00" x2="3.12" y2="2.00" />
<line x1="3.20" y1="0.00" x2="3.20" y2="3.00" />
<line x1="3.27" y1="0.00" x2="3.27" y2="3.00" />
<line x1="3.35" y1="0.00" x2="3.35" y2="3.00" />
<line x1="3.43" y1="0.00" x2="3.43" y2="2.00" />
<line x1="3.50" y1="0.00" x2="3.50" y2="3.00" />
<line x1="3.58" y1="0.00" x2="3.58" y2="2.00" />
<line x1="3.65" y1="0.00" x2="3.65" y2="2.00" />
<line x1="3.73" y1="0.00" x2="3.73" y2="1.00" />
<line x1="3.81" y1="0.00" x2="3.81" y2="2.00" />
<line x1="3.88" y1="0.00" x2="3.88" y2="2.00" />
<line x1="3.96" y1="0.00" x2="3.96" y2="2.00" />
<line x1="4.04" y1="0.00" x2="4.04" y2="2.00" />
<line x1="4.11" y1="0.00" x2="4.11" y2="3.00" />
<line x1="4.19" y1="0.00" x2="4.19" y2="2.00" />
<line x1="4.26" y1="0.00" x2="4.26" y2="2.00" />
<line x1="4.34" y1="0.00" x2="4.34" y2="1.00" />
<line x1="4.42" y1="0.00" x2="4.42" y2="2.00" />
<line x1="4.49" y1="0.00" x2="4.49" y2="2.00" />
<line x1="4.57" y1="0.00" x2="4.57" y2="2.00" />
<line x1="4.64" y1="0.00" x2="4.64" y2="1.00" />
<line x1="4.72" y1="0.00" x2="4.72" y2="2.00" />
<line x1="4.80" y1="0.00" x2="4.80" y2="1.00" />
<line x1="4.87" y1="0.00" x2="4.87" y2="1.00" />
<line x1="4.95" y1="0.00" x2="4.95" y2="1.00" />
<line x1="5.03" y1="0.00" x2="5.03" y2="2.00" />
<line x1="5.10" y1="0.00" x2="5.10" y2="2.00" />
<line x1="5.18" y1="0.00" x2="5.18" y2="2.00" />
<line x1="5.25" y1="0.00" x2="5.25" y2="2.00" />
<line x1="5.33" y1="0.00" x2="5.33" y2="3.00" />
<line x1="5.41" y1="0.00" x2="5.41" y2="2.00" />
<line x1="5.48" y1="0.00" x2="5.48" y2="2.00" />
<line x1="5.56" y1="0.00" x2="5.56" y2="2.00" />
<line x1="5.63" y1="0.00" x2="5.63" y2="3.00" />
<line x1="5.71" y1="0.00" x2="5.71" y2="3.00" />
<line x1="5.79" y1="0.00" x2="5.79" y2="3.00" />
<line x1="5.86" y1="0.00" x2="5.86" y2="2.00" />
<line x1="5.94" y1="0.00" x2="5.94" y2="3.00" />
<line x1="6.02" y1="0.00" x2="6.02" y2="2.00" />
<line x1="6.09" y1="0.00" x2="6.09" y2="2.00" />
<line x1="6.17" y1="0.00" x2="6.17" y2="2.00" />
<line x1="6.24" y1="0.00" x2="6.24" y2="3.00" />
<line x1="6.32" y1="0.00" x2="6.32" y2="3.00" />
<line x1="6.40" y1="0.00" x2="6.40" y2="3.00" />
<line x1="6.47" y1="0.00" x2="6.47" y2="3.00" />
<line x1="6.55" y1="0.00" x2="6.55" y2="4.00" />
</g>
</svg>