<svg xmlns="http://www.w3.org/2000/svg" width="63.1" height="100.0" viewBox="-4.7 -5.0 73.1 110.0">
<g fill="none" stroke="black" stroke-width="0.6150%" transform="translate(0, 100.0000) scale(0.8130, -0.8130)">
<line x1="0.4" y1="0.0" x2="0.4" y2="108.0" />
<line x1="1.2" y1="0.0" x2="1.2" y2="120.0" />
<line x1="2.0" y1="0.0" x2="2.0" y2="85.0" />
<line x1="2.7" y1="0.0" x2="2.7" y2="108.0" />
<line x1="3.5" y1="0.0" x2="3.5" y2="104.0" />
<line x1="4.3" y1="0.0" x2="4.3" y2="103.0" />
<line x1="5.1" y1="0.0" x2="5.1" y2="99.0" />
<line x1="5.9" y1="0.0" x2="5.9" y2="104.0" />
<line x1="6.7" y1="0.0" x2="6.7" y2="93.0" />
<line x1="7.5" y1="0.0" x2="7.5" y2="109.0" />
<line x1="8.2" y1="0.0" x2="8.2" y2="115.0" />
<line x1="9.0" y1="0.0" x2="9.0" y2="90.0" />
<line x1="9.8" y1="0.0" x2="9.8" y2="86.0" />
<line x1="10.6" y1="0.0" x2="10.6" y2="93.0" />
<line x1="11.4" y1="0.0" x2="11.4" y2="92.0" />
<line x1="12.2" y1="0.0" x2="12.2" y2="89.0" />
<line x1="12.9" y1="0.0" x2="12.9" y2="101.0" />
<line x1="13.7" y1="0.0" x2="13.7" y2="95.0" />
<line x1="14.5" y1="0.0" x2="14.5" y2="89.0" />
<line x1="15.3" y1="0.0" x2="15.3" y2="99.0" />
<line x1="16.1" y1="0.0" x2="16.1" y2="97.0" />
<line x1="16.9" y1="0.0" x2="16.9" y2="101.0" />
<line x1="17.7" y1="0.0" x2="17.7" y2="96.0" />
<line x1="18.4" y1="0.0" x2="18.4" y2="106.0" />
<line x1="19.2" y1="0.0" x2="19.2" y2="104.0" />
<line x1="20.0" y1="0.0" x2="20.0" y2="103.0" />
<line x1="20.8" y1="0.0" x2="20.8" y2="108.0" />
<line x1="21.6" y1="0.0" x2="21.6" y2="90.0" />
<line x1="22.4" y1="0.0" x2="22.4" y2="90.0" />
<line x1="23.1" y1="0.0" x2="23.1" y2="79.0" />
<line x1="23.9" y1="0.0" x2="23.9" y2="102.0" />
<line x1="24.7" y1="0.0" x2="24.7" y2="93.0" />
<line x1="25.5" y1="0.0" x2="25.5" y2="100.0" />
<line x1="26.3" y1="0.0" x2="26.3" y2="106.0" />
<line x1="27.1" y1="0.0" x2="27.1" y2="109.0" />
<line x1="27.8" y1="0.0" x2="27.8" y2="116.0" />
<line x1="28.6" y1="0.0" x2="28.6" y2="85.0" />
<line x1="29.4" y1="0.0" x2="29.4" y2="101.0" />
<line x1="30.2" y1="0.0" x2="30.2" y2="95.0" />
<line x1="31.0" y1="0.0" x2="31.0" y2="121.0" />
<line x1="31.8" y1="0.0" x2="31.8" y2="98.0" />
<line x1="32.6" y1="0.0" x2="32.6" y2="101.0" />
<line x1="33.3" y1="0.0" x2="33.3" y2="93.0" />
<line x1="34.1" y1="0.0" x2="34.1" y2="109.0" />
<line x1="34.9" y1="0.0" x2="34.9" y2="88.0" />
<line x1="35.7" y1="0.0" x2="35.7" y2="96.0" />
<line x1="36.5" y1="0.0" x2="36.5" y2="105.0" />
<line x1="37.3" y1="0.0" x2="37.3" y2="111.0" />
<line x1="38.0" y1="0.0" x2="38.0" y2="97.0" />
<line x1="38.8" y1="0.0" x2="38.8" y2="111.0" />
<line x1="39.6" y1="0.0" x2="39.6" y2="115.0" />
<line x1="40.4" y1="0.0" x2="40.4" y2="96.0" />
<line x1="41.2" y1="0.0" x2="41.2" y2="100.0" />
<line x1="42.0" y1="0.0" x2="42.0" y2="92.0" />
<line x1="42.8" y1="0.0" x2="42.8" y2="76.0" />
<line x1="43.5" y1="0.0" x2="43.5" y2="85.0" />
<line x1="44.3" y1="0.0" x2="44.3" y2="75.0" />
<line x1="45.1" y1="0.0" x2="45.1" y2="105.0" />
<line x1="45.9" y1="0.0" x2="45.9" y2="92.0" />
<line x1="46.7" y1="0.0" x2="46.7" y2="115.0" />
<line x1="47.5" y1="0.0" x2="47.5" y2="97.0" />
<line x1="48.2" y1="0.0" x2="48.2" y2="103.0" />
<line x1="49.0" y1="0.0" x2="49.0" y2="122.0" />
<line x1="49.8" y1="0.0" x2="49.8" y2="100.0" />
<line x1="50.6" y1="0.0" x2="50.6" y2="91.0" />
<line x1="51.4" y1="0.0" x2="51.4" y2="116.0" />
<line x1="52.2" y1="0.0" x2="52.2" y2="105.0" />
<line x1="53.0" y1="0.0" x2="53.0" y2="78.0" />
<line x1="53.7" y1="0.0" x2="53.7" y2="92.0" />
<line x1="54.5" y1="0.0" x2="54.5" y2="96.0" />
<line x1="55.3" y1="0.0" x2="55.3" y2="96.0" />
<line x1="56.1" y1="0.0" x2="56.1" y2="105.0" />
<line x1="56.9" y1="0.0" x2="56.9" y2="103.0" />
<line x1="57.7" y1="0.0" x2="57.7" y2="97.0" />
<line x1="58.4" y1="0.0" x2="58.4" y2="85.0" />
<line x1="59.2" y1="0.0" x2="59.2" y2="105.0" />
<line x1="60.0" y1="0.0" x2="60.0" y2="111.0" />
<line x1="60.8" y1="0.0" x2="60.8" y2="115.0" />
<line x1="61.6" y1="0.0" x2="61.6" y2="105.0" />
<line x1="62.4" y1="0.0" x2="62.4" y2="89.0" />
<line x1="63.2" y1="0.0" x2="63.2" y2="118.0" />
<line x1="63.9" y1="0.0" x2="63.9" y2="92.0" />
<line x1="64.7" y1="0.0" x2="64.7" y2="104.0" />
<line x1="65.5" y1="0.0" x2="65.5" y2="123.0" />
<line x1="66.3" y1="0.0" x2="66.3" y2="98.0" />
<line x1="67.1" y1="0.0" x2="67.1" y2="111.0" />
<line x1="67.9" y1="0.0" x2="67.9" y2="98.0" />
<line x1="68.6" y1="0.0" x2="68.6" y2="98.0" />
<line x1="69.4" y1="0.0" x2="69.4" y2="116.0" />
<line x1="70.2" y1="0.0" x2="70.2" y2="87.0" />
<line x1="71.0" y1="0.0" x2="71.0" y2="96.0" />
<line x1="71.8" y1="0.0" x2="71.8" y2="95.0" />
<line x1="72.6" y1="0.0" x2="72.6" y2="104.0" />
<line x1="73.4" y1="0.0" x2="73.4" y2="92.0" />
<line x1="74.1" y1="0.0" x2="74.1" y2="98.0" />
<line x1="74.9" y1="0.0" x2="74.9" y2="100.0" />
<line x1="75.7" y1="0.0" x2="75.7" y2="100.0" />
<line x1="76.5" y1="0.0" x2="76.5" y2="109.0" />
<line x1="77.3" y1="0.0" x2="77.3" y2="100.0" />
<line x1="78.1" y1="0.0" x2="78.1" y2="106.0" />
</g>
</svg>