<svg xmlns="http://www.w3.org/2000/svg" width="100.0" height="100.0" viewBox="-55.00 -55.00 110.00 110.00">
<g fill="none" stroke="black" stroke-width="0.0200%" transform="translate(0, 0.0000) scale(25.0000, -25.0000)">
<circle cx="0.00" cy="0.00" r="1.00" />
<circle cx="0.00" cy="0.00" r="2.00" />
<line x1="1.00" y1="0.07" x2="-0.68" y2="1.88" />
<circle cx="1.00" cy="0.07" r="0.02" />
<circle cx="-0.68" cy="1.88" r="0.02" />
<line x1="-0.26" y1="0.97" x2="0.17" y2="1.99" />
<circle cx="-0.26" cy="0.97" r="0.02" />
<circle cx="0.17" cy="1.99" r="0.02" />
<line x1="0.31" y1="0.95" x2="0.14" y2="2.00" />
<circle cx="0.31" cy="0.95" r="0.02" />
<circle cx="0.14" cy="2.00" r="0.02" />
<line x1="-0.26" y1="0.97" x2="1.23" y2="1.58" />
<circle cx="-0.26" cy="0.97" r="0.02" />
<circle cx="1.23" cy="1.58" r="0.02" />
<line x1="0.78" y1="-0.63" x2="-1.44" y2="-1.39" />
<circle cx="0.78" cy="-0.63" r="0.02" />
<circle cx="-1.44" cy="-1.39" r="0.02" />
<line x1="-0.05" y1="1.00" x2="1.88" y2="0.68" />
<circle cx="-0.05" cy="1.00" r="0.02" />
<circle cx="1.88" cy="0.68" r="0.02" />
<line x1="0.98" y1="-0.19" x2="-0.35" y2="1.97" />
<circle cx="0.98" cy="-0.19" r="0.02" />
<circle cx="-0.35" cy="1.97" r="0.02" />
<line x1="0.44" y1="0.90" x2="1.91" y2="0.58" />
<circle cx="0.44" cy="0.90" r="0.02" />
<circle cx="1.91" cy="0.58" r="0.02" />
<line x1="-0.89" y1="0.45" x2="1.41" y2="1.41" />
<circle cx="-0.89" cy="0.45" r="0.02" />
<circle cx="1.41" cy="1.41" r="0.02" />
<line x1="0.97" y1="0.24" x2="2.00" y2="0.03" />
<circle cx="0.97" cy="0.24" r="0.02" />
<circle cx="2.00" cy="0.03" r="0.02" />
</g>
</svg>