<svg xmlns="http://www.w3.org/2000/svg" width="100.0" height="100.0" viewBox="-55.00 -55.00 110.00 110.00">
<g fill="none" stroke="black" stroke-width="0.0200%" transform="translate(0, 0.0000) scale(25.0000, -25.0000)">
<circle cx="0.00" cy="0.00" r="1.00" />
<circle cx="0.00" cy="0.00" r="2.00" />
<line x1="-0.84" y1="-0.55" x2="-1.53" y2="-1.28" />
<circle cx="-0.84" cy="-0.55" r="0.02" />
<circle cx="-1.53" cy="-1.28" r="0.02" />
<line x1="-0.97" y1="-0.23" x2="1.37" y2="1.45" />
<circle cx="-0.97" cy="-0.23" r="0.02" />
<circle cx="1.37" cy="1.45" r="0.02" />
<line x1="-0.94" y1="-0.34" x2="0.41" y2="1.96" />
<circle cx="-0.94" cy="-0.34" r="0.02" />
<circle cx="0.41" cy="1.96" r="0.02" />
<line x1="-0.54" y1="-0.84" x2="-2.00" y2="-0.01" />
<circle cx="-0.54" cy="-0.84" r="0.02" />
<circle cx="-2.00" cy="-0.01" r="0.02" />
<line x1="0.71" y1="-0.71" x2="-1.10" y2="-1.67" />
<circle cx="0.71" cy="-0.71" r="0.02" />
<circle cx="-1.10" cy="-1.67" r="0.02" />
<line x1="1.00" y1="0.09" x2="1.32" y2="1.51" />
<circle cx="1.00" cy="0.09" r="0.02" />
<circle cx="1.32" cy="1.51" r="0.02" />
<line x1="-1.00" y1="-0.02" x2="-0.00" y2="2.00" />
<circle cx="-1.00" cy="-0.02" r="0.02" />
<circle cx="-0.00" cy="2.00" r="0.02" />
<line x1="0.62" y1="-0.79" x2="-1.98" y2="0.27" />
<circle cx="0.62" cy="-0.79" r="0.02" />
<circle cx="-1.98" cy="0.27" r="0.02" />
<line x1="-0.91" y1="0.42" x2="1.51" y2="-1.31" />
<circle cx="-0.91" cy="0.42" r="0.02" />
<circle cx="1.51" cy="-1.31" r="0.02" />
<line x1="0.99" y1="-0.11" x2="-0.83" y2="-1.82" />
<circle cx="0.99" cy="-0.11" r="0.02" />
<circle cx="-0.83" cy="-1.82" r="0.02" />
<line x1="0.14" y1="0.99" x2="0.26" y2="-1.98" />
<circle cx="0.14" cy="0.99" r="0.02" />
<circle cx="0.26" cy="-1.98" r="0.02" />
<line x1="-0.84" y1="-0.54" x2="-1.30" y2="1.52" />
<circle cx="-0.84" cy="-0.54" r="0.02" />
<circle cx="-1.30" cy="1.52" r="0.02" />
<line x1="1.00" y1="0.09" x2="-1.83" y2="-0.81" />
<circle cx="1.00" cy="0.09" r="0.02" />
<circle cx="-1.83" cy="-0.81" r="0.02" />
<line x1="0.98" y1="-0.17" x2="0.91" y2="1.78" />
<circle cx="0.98" cy="-0.17" r="0.02" />
<circle cx="0.91" cy="1.78" r="0.02" />
<line x1="-0.85" y1="-0.52" x2="-1.06" y2="1.69" />
<circle cx="-0.85" cy="-0.52" r="0.02" />
<circle cx="-1.06" cy="1.69" r="0.02" />
<line x1="-0.54" y1="0.84" x2="0.60" y2="1.91" />
<circle cx="-0.54" cy="0.84" r="0.02" />
<circle cx="0.60" cy="1.91" r="0.02" />
<line x1="-0.06" y1="-1.00" x2="0.67" y2="-1.89" />
<circle cx="-0.06" cy="-1.00" r="0.02" />
<circle cx="0.67" cy="-1.89" r="0.02" />
<line x1="0.22" y1="-0.98" x2="-1.94" y2="0.47" />
<circle cx="0.22" cy="-0.98" r="0.02" />
<circle cx="-1.94" cy="0.47" r="0.02" />
<line x1="0.98" y1="-0.18" x2="-1.21" y2="-1.59" />
<circle cx="0.98" cy="-0.18" r="0.02" />
<circle cx="-1.21" cy="-1.59" r="0.02" />
<line x1="0.04" y1="1.00" x2="-1.28" y2="-1.53" />
<circle cx="0.04" cy="1.00" r="0.02" />
<circle cx="-1.28" cy="-1.53" r="0.02" />
<line x1="0.56" y1="-0.83" x2="1.86" y2="-0.74" />
<circle cx="0.56" cy="-0.83" r="0.02" />
<circle cx="1.86" cy="-0.74" r="0.02" />
<line x1="0.94" y1="-0.34" x2="1.04" y2="-1.71" />
<circle cx="0.94" cy="-0.34" r="0.02" />
<circle cx="1.04" cy="-1.71" r="0.02" />
<line x1="0.12" y1="0.99" x2="-0.51" y2="-1.93" />
<circle cx="0.12" cy="0.99" r="0.02" />
<circle cx="-0.51" cy="-1.93" r="0.02" />
</g>
</svg>