<svg xmlns="http://www.w3.org/2000/svg" width="100.0" height="100.0" viewBox="-55.00 -55.00 110.00 110.00">
<g fill="none" stroke="black" stroke-width="0.0200%" transform="translate(0, 0.0000) scale(25.0000, -25.0000)">
<circle cx="0.00" cy="0.00" r="1.00" />
<circle cx="0.00" cy="0.00" r="2.00" />
<line x1="1.00" y1="0.00" x2="2.00" y2="0.00" />
<circle cx="1.00" cy="0.00" r="0.02" />
<circle cx="2.00" cy="0.00" r="0.02" />
<line x1="0.97" y1="0.26" x2="1.93" y2="0.52" />
<circle cx="0.97" cy="0.26" r="0.02" />
<circle cx="1.93" cy="0.52" r="0.02" />
<line x1="0.87" y1="0.50" x2="1.73" y2="1.00" />
<circle cx="0.87" cy="0.50" r="0.02" />
<circle cx="1.73" cy="1.00" r="0.02" />
<line x1="0.71" y1="0.71" x2="1.41" y2="1.41" />
<circle cx="0.71" cy="0.71" r="0.02" />
<circle cx="1.41" cy="1.41" r="0.02" />
<line x1="0.50" y1="0.87" x2="1.00" y2="1.73" />
<circle cx="0.50" cy="0.87" r="0.02" />
<circle cx="1.00" cy="1.73" r="0.02" />
<line x1="0.26" y1="0.97" x2="0.52" y2="1.93" />
<circle cx="0.26" cy="0.97" r="0.02" />
<circle cx="0.52" cy="1.93" r="0.02" />
<line x1="0.00" y1="1.00" x2="0.00" y2="2.00" />
<circle cx="0.00" cy="1.00" r="0.02" />
<circle cx="0.00" cy="2.00" r="0.02" />
<line x1="-0.26" y1="0.97" x2="-0.52" y2="1.93" />
<circle cx="-0.26" cy="0.97" r="0.02" />
<circle cx="-0.52" cy="1.93" r="0.02" />
<line x1="-0.50" y1="0.87" x2="-1.00" y2="1.73" />
<circle cx="-0.50" cy="0.87" r="0.02" />
<circle cx="-1.00" cy="1.73" r="0.02" />
<line x1="-0.71" y1="0.71" x2="-1.41" y2="1.41" />
<circle cx="-0.71" cy="0.71" r="0.02" />
<circle cx="-1.41" cy="1.41" r="0.02" />
<line x1="-0.87" y1="0.50" x2="-1.73" y2="1.00" />
<circle cx="-0.87" cy="0.50" r="0.02" />
<circle cx="-1.73" cy="1.00" r="0.02" />
<line x1="-0.97" y1="0.26" x2="-1.93" y2="0.52" />
<circle cx="-0.97" cy="0.26" r="0.02" />
<circle cx="-1.93" cy="0.52" r="0.02" />
<line x1="-1.00" y1="0.00" x2="-2.00" y2="0.00" />
<circle cx="-1.00" cy="0.00" r="0.02" />
<circle cx="-2.00" cy="0.00" r="0.02" />
<line x1="-0.97" y1="-0.26" x2="-1.93" y2="-0.52" />
<circle cx="-0.97" cy="-0.26" r="0.02" />
<circle cx="-1.93" cy="-0.52" r="0.02" />
<line x1="-0.87" y1="-0.50" x2="-1.73" y2="-1.00" />
<circle cx="-0.87" cy="-0.50" r="0.02" />
<circle cx="-1.73" cy="-1.00" r="0.02" />
<line x1="-0.71" y1="-0.71" x2="-1.41" y2="-1.41" />
<circle cx="-0.71" cy="-0.71" r="0.02" />
<circle cx="-1.41" cy="-1.41" r="0.02" />
<line x1="-0.50" y1="-0.87" x2="-1.00" y2="-1.73" />
<circle cx="-0.50" cy="-0.87" r="0.02" />
<circle cx="-1.00" cy="-1.73" r="0.02" />
<line x1="-0.26" y1="-0.97" x2="-0.52" y2="-1.93" />
<circle cx="-0.26" cy="-0.97" r="0.02" />
<circle cx="-0.52" cy="-1.93" r="0.02" />
<line x1="-0.00" y1="-1.00" x2="-0.00" y2="-2.00" />
<circle cx="-0.00" cy="-1.00" r="0.02" />
<circle cx="-0.00" cy="-2.00" r="0.02" />
<line x1="0.26" y1="-0.97" x2="0.52" y2="-1.93" />
<circle cx="0.26" cy="-0.97" r="0.02" />
<circle cx="0.52" cy="-1.93" r="0.02" />
<line x1="0.50" y1="-0.87" x2="1.00" y2="-1.73" />
<circle cx="0.50" cy="-0.87" r="0.02" />
<circle cx="1.00" cy="-1.73" r="0.02" />
<line x1="0.71" y1="-0.71" x2="1.41" y2="-1.41" />
<circle cx="0.71" cy="-0.71" r="0.02" />
<circle cx="1.41" cy="-1.41" r="0.02" />
<line x1="0.87" y1="-0.50" x2="1.73" y2="-1.00" />
<circle cx="0.87" cy="-0.50" r="0.02" />
<circle cx="1.73" cy="-1.00" r="0.02" />
<line x1="0.97" y1="-0.26" x2="1.93" y2="-0.52" />
<circle cx="0.97" cy="-0.26" r="0.02" />
<circle cx="1.93" cy="-0.52" r="0.02" />
</g>
</svg>