<svg xmlns="http://www.w3.org/2000/svg" width="161.803" height="100.000" viewBox="-5.000 -5.000 171.803 110.000">
<g fill="none" stroke="black" stroke-width="0.016%" transform="translate(0, 100.000) scale(31.623, -31.623)">
<circle cx="0.000" cy="0.000" r="0.032" />
<circle cx="0.000" cy="0.000" r="0.032" />
<polyline points="0.000,0.000 0.051,0.316 0.102,0.447 0.154,0.548 0.205,0.632 0.256,0.707 0.307,0.775 0.358,0.837 0.409,0.894 0.461,0.949 0.512,1.000 0.563,1.049 0.614,1.095 0.665,1.140 0.716,1.183 0.768,1.225 0.819,1.265 0.870,1.304 0.921,1.342 0.972,1.378 1.023,1.414 1.075,1.449 1.126,1.483 1.177,1.517 1.228,1.549 1.279,1.581 1.330,1.612 1.382,1.643 1.433,1.673 1.484,1.703 1.535,1.732 1.586,1.761 1.637,1.789 1.689,1.817 1.740,1.844 1.791,1.871 1.842,1.897 1.893,1.924 1.944,1.949 1.996,1.975 2.047,2.000 2.098,2.025 2.149,2.049 2.200,2.074 2.251,2.098 2.303,2.121 2.354,2.145 2.405,2.168 2.456,2.191 2.507,2.214 2.558,2.236 2.610,2.258 2.661,2.280 2.712,2.302 2.763,2.324 2.814,2.345 2.865,2.366 2.917,2.387 2.968,2.408 3.019,2.429 3.070,2.449 3.121,2.470 3.172,2.490 3.224,2.510 3.275,2.530 3.326,2.550 3.377,2.569 3.428,2.588 3.479,2.608 3.531,2.627 3.582,2.646 3.633,2.665 3.684,2.683 3.735,2.702 3.786,2.720 3.838,2.739 3.889,2.757 3.940,2.775 3.991,2.793 4.042,2.811 4.093,2.828 4.145,2.846 4.196,2.864 4.247,2.881 4.298,2.898 4.349,2.915 4.400,2.933 4.452,2.950 4.503,2.966 4.554,2.983 4.605,3.000 4.656,3.017 4.707,3.033 4.759,3.050 4.810,3.066 4.861,3.082 4.912,3.098 4.963,3.114 5.014,3.130 5.066,3.146 5.117,3.162" />
</g>
</svg>