<svg xmlns="http://www.w3.org/2000/svg" width="161.8" height="100.0" viewBox="-2.472 -5.000 171.803 110.000">
<g fill="none" stroke="black" stroke-width="0.0050%" transform="translate(0, 100.0000) scale(100.0000, -100.0000)">

<line x1="0.051" y1="0.000" x2="0.051" y2="1.000" />
<line x1="0.076" y1="0.000" x2="0.076" y2="1.000" />

<line x1="0.126" y1="0.000" x2="0.126" y2="1.000" />
<line x1="0.152" y1="0.000" x2="0.152" y2="1.000" />
<line x1="0.177" y1="0.000" x2="0.177" y2="1.000" />

<line x1="0.228" y1="0.000" x2="0.228" y2="1.000" />
<line x1="0.253" y1="0.000" x2="0.253" y2="1.000" />
<line x1="0.278" y1="0.000" x2="0.278" y2="1.000" />

<line x1="0.329" y1="0.000" x2="0.329" y2="1.000" />
<line x1="0.354" y1="0.000" x2="0.354" y2="1.000" />

<line x1="0.405" y1="0.000" x2="0.405" y2="1.000" />
<line x1="0.430" y1="0.000" x2="0.430" y2="1.000" />
<line x1="0.455" y1="0.000" x2="0.455" y2="1.000" />

<line x1="0.506" y1="0.000" x2="0.506" y2="1.000" />
<line x1="0.531" y1="0.000" x2="0.531" y2="1.000" />
<line x1="0.556" y1="0.000" x2="0.556" y2="1.000" />

<line x1="0.607" y1="0.000" x2="0.607" y2="1.000" />
<line x1="0.632" y1="0.000" x2="0.632" y2="1.000" />
<line x1="0.657" y1="0.000" x2="0.657" y2="1.000" />

<line x1="0.708" y1="0.000" x2="0.708" y2="1.000" />
<line x1="0.733" y1="0.000" x2="0.733" y2="1.000" />

<line x1="0.784" y1="0.000" x2="0.784" y2="1.000" />
<line x1="0.809" y1="0.000" x2="0.809" y2="1.000" />
<line x1="0.834" y1="0.000" x2="0.834" y2="1.000" />

<line x1="0.885" y1="0.000" x2="0.885" y2="1.000" />
<line x1="0.910" y1="0.000" x2="0.910" y2="1.000" />
<line x1="0.935" y1="0.000" x2="0.935" y2="1.000" />

<line x1="0.986" y1="0.000" x2="0.986" y2="1.000" />
<line x1="1.011" y1="0.000" x2="1.011" y2="1.000" />
<line x1="1.037" y1="0.000" x2="1.037" y2="1.000" />

<line x1="1.087" y1="0.000" x2="1.087" y2="1.000" />
<line x1="1.112" y1="0.000" x2="1.112" y2="1.000" />

<line x1="1.163" y1="0.000" x2="1.163" y2="1.000" />
<line x1="1.188" y1="0.000" x2="1.188" y2="1.000" />
<line x1="1.214" y1="0.000" x2="1.214" y2="1.000" />

<line x1="1.264" y1="0.000" x2="1.264" y2="1.000" />
<line x1="1.289" y1="0.000" x2="1.289" y2="1.000" />
<line x1="1.315" y1="0.000" x2="1.315" y2="1.000" />

<line x1="1.365" y1="0.000" x2="1.365" y2="1.000" />
<line x1="1.390" y1="0.000" x2="1.390" y2="1.000" />

<line x1="1.441" y1="0.000" x2="1.441" y2="1.000" />
<line x1="1.466" y1="0.000" x2="1.466" y2="1.000" />
<line x1="1.492" y1="0.000" x2="1.492" y2="1.000" />

<line x1="1.542" y1="0.000" x2="1.542" y2="1.000" />
<line x1="1.567" y1="0.000" x2="1.567" y2="1.000" />
<line x1="1.593" y1="0.000" x2="1.593" y2="1.000" />

<line x1="1.643" y1="0.000" x2="1.643" y2="1.000" />
</g>
</svg>