<svg xmlns="http://www.w3.org/2000/svg" width="161.8" height="100.0" viewBox="-3.051 -5.000 171.803 110.000">
<g fill="none" stroke="black" stroke-width="0.0050%" transform="translate(0, 100.0000) scale(100.0000, -100.0000)">
<line x1="0.019" y1="0.000" x2="0.019" y2="1.000" />

<line x1="0.058" y1="0.000" x2="0.058" y2="1.000" />


<line x1="0.117" y1="0.000" x2="0.117" y2="1.000" />

<line x1="0.156" y1="0.000" x2="0.156" y2="1.000" />

<line x1="0.195" y1="0.000" x2="0.195" y2="1.000" />


<line x1="0.253" y1="0.000" x2="0.253" y2="1.000" />

<line x1="0.292" y1="0.000" x2="0.292" y2="1.000" />


<line x1="0.351" y1="0.000" x2="0.351" y2="1.000" />

<line x1="0.390" y1="0.000" x2="0.390" y2="1.000" />

<line x1="0.429" y1="0.000" x2="0.429" y2="1.000" />


<line x1="0.487" y1="0.000" x2="0.487" y2="1.000" />

<line x1="0.526" y1="0.000" x2="0.526" y2="1.000" />


<line x1="0.585" y1="0.000" x2="0.585" y2="1.000" />

<line x1="0.624" y1="0.000" x2="0.624" y2="1.000" />


<line x1="0.682" y1="0.000" x2="0.682" y2="1.000" />

<line x1="0.721" y1="0.000" x2="0.721" y2="1.000" />

<line x1="0.760" y1="0.000" x2="0.760" y2="1.000" />


<line x1="0.819" y1="0.000" x2="0.819" y2="1.000" />

<line x1="0.858" y1="0.000" x2="0.858" y2="1.000" />


<line x1="0.916" y1="0.000" x2="0.916" y2="1.000" />

<line x1="0.955" y1="0.000" x2="0.955" y2="1.000" />

<line x1="0.994" y1="0.000" x2="0.994" y2="1.000" />


<line x1="1.053" y1="0.000" x2="1.053" y2="1.000" />

<line x1="1.092" y1="0.000" x2="1.092" y2="1.000" />


<line x1="1.150" y1="0.000" x2="1.150" y2="1.000" />

<line x1="1.189" y1="0.000" x2="1.189" y2="1.000" />

<line x1="1.228" y1="0.000" x2="1.228" y2="1.000" />


<line x1="1.287" y1="0.000" x2="1.287" y2="1.000" />

<line x1="1.326" y1="0.000" x2="1.326" y2="1.000" />


<line x1="1.384" y1="0.000" x2="1.384" y2="1.000" />

<line x1="1.423" y1="0.000" x2="1.423" y2="1.000" />


<line x1="1.482" y1="0.000" x2="1.482" y2="1.000" />

<line x1="1.521" y1="0.000" x2="1.521" y2="1.000" />

<line x1="1.560" y1="0.000" x2="1.560" y2="1.000" />


<line x1="1.618" y1="0.000" x2="1.618" y2="1.000" />

</g>
</svg>