<svg xmlns="http://www.w3.org/2000/svg" width="161.8" height="100.0" viewBox="-2.55 -5.00 171.80 110.00">
<g fill="none" stroke="black" stroke-width="0.0450%" transform="translate(0, 100.0000) scale(11.1111, -11.1111)">
<polyline points="0.22,0.00 0.44,0.00 0.44,1.00 0.66,1.00 0.66,2.00 0.88,2.00 0.88,2.00 1.10,2.00 1.10,2.00 1.32,2.00 1.32,3.00 1.54,3.00 1.54,3.00 1.77,3.00 1.77,3.00 1.99,3.00 1.99,3.00 2.21,3.00 2.21,3.00 2.43,3.00 2.43,4.00 2.65,4.00 2.65,4.00 2.87,4.00 2.87,4.00 3.09,4.00 3.09,4.00 3.31,4.00 3.31,4.00 3.53,4.00 3.53,4.00 3.75,4.00 3.75,4.00 3.97,4.00 3.97,5.00 4.19,5.00 4.19,5.00 4.41,5.00 4.41,5.00 4.63,5.00 4.63,5.00 4.85,5.00 4.85,5.00 5.07,5.00 5.07,5.00 5.30,5.00 5.30,5.00 5.52,5.00 5.52,5.00 5.74,5.00 5.74,5.00 5.96,5.00 5.96,6.00 6.18,6.00 6.18,6.00 6.40,6.00 6.40,6.00 6.62,6.00 6.62,6.00 6.84,6.00 6.84,6.00 7.06,6.00 7.06,6.00 7.28,6.00 7.28,6.00 7.50,6.00 7.50,6.00 7.72,6.00 7.72,6.00 7.94,6.00 7.94,6.00 8.16,6.00 8.16,6.00 8.38,6.00 8.38,7.00 8.60,7.00 8.60,7.00 8.83,7.00 8.83,7.00 9.05,7.00 9.05,7.00 9.27,7.00 9.27,7.00 9.49,7.00 9.49,7.00 9.71,7.00 9.71,7.00 9.93,7.00 9.93,7.00 10.15,7.00 10.15,7.00 10.37,7.00 10.37,7.00 10.59,7.00 10.59,7.00 10.81,7.00 10.81,7.00 11.03,7.00 11.03,7.00 11.25,7.00 11.25,8.00 11.47,8.00 11.47,8.00 11.69,8.00 11.69,8.00 11.91,8.00 11.91,8.00 12.14,8.00 12.14,8.00 12.36,8.00 12.36,8.00 12.58,8.00 12.58,8.00 12.80,8.00 12.80,8.00 13.02,8.00 13.02,8.00 13.24,8.00 13.24,8.00 13.46,8.00 13.46,8.00 13.68,8.00 13.68,8.00 13.90,8.00 13.90,8.00 14.12,8.00 14.12,8.00 14.34,8.00 14.34,8.00 14.56,8.00 14.56,9.00 14.78,9.00" />
</g>
</svg>