<svg xmlns="http://www.w3.org/2000/svg" width="138.7" height="100.0" viewBox="-2.83 -5.00 148.69 110.00">
<g fill="none" stroke="black" stroke-width="0.0700%" transform="translate(0, 100.0000) scale(7.1429, -7.1429)">
<line x1="0.30" y1="0.00" x2="0.30" y2="2.00" />
<line x1="0.61" y1="0.00" x2="0.61" y2="3.00" />
<line x1="0.91" y1="0.00" x2="0.91" y2="3.00" />
<line x1="1.21" y1="0.00" x2="1.21" y2="4.00" />
<line x1="1.52" y1="0.00" x2="1.52" y2="4.00" />
<line x1="1.82" y1="0.00" x2="1.82" y2="5.00" />
<line x1="2.12" y1="0.00" x2="2.12" y2="5.00" />
<line x1="2.43" y1="0.00" x2="2.43" y2="5.00" />
<line x1="2.73" y1="0.00" x2="2.73" y2="5.00" />
<line x1="3.03" y1="0.00" x2="3.03" y2="6.00" />
<line x1="3.34" y1="0.00" x2="3.34" y2="6.00" />
<line x1="3.64" y1="0.00" x2="3.64" y2="6.00" />
<line x1="3.94" y1="0.00" x2="3.94" y2="6.00" />
<line x1="4.25" y1="0.00" x2="4.25" y2="7.00" />
<line x1="4.55" y1="0.00" x2="4.55" y2="7.00" />
<line x1="4.85" y1="0.00" x2="4.85" y2="7.00" />
<line x1="5.16" y1="0.00" x2="5.16" y2="7.00" />
<line x1="5.46" y1="0.00" x2="5.46" y2="8.00" />
<line x1="5.76" y1="0.00" x2="5.76" y2="8.00" />
<line x1="6.07" y1="0.00" x2="6.07" y2="8.00" />
<line x1="6.37" y1="0.00" x2="6.37" y2="8.00" />
<line x1="6.67" y1="0.00" x2="6.67" y2="8.00" />
<line x1="6.98" y1="0.00" x2="6.98" y2="8.00" />
<line x1="7.28" y1="0.00" x2="7.28" y2="9.00" />
<line x1="7.58" y1="0.00" x2="7.58" y2="9.00" />
<line x1="7.89" y1="0.00" x2="7.89" y2="9.00" />
<line x1="8.19" y1="0.00" x2="8.19" y2="9.00" />
<line x1="8.49" y1="0.00" x2="8.49" y2="9.00" />
<line x1="8.80" y1="0.00" x2="8.80" y2="9.00" />
<line x1="9.10" y1="0.00" x2="9.10" y2="10.00" />
<line x1="9.40" y1="0.00" x2="9.40" y2="10.00" />
<line x1="9.71" y1="0.00" x2="9.71" y2="10.00" />
<line x1="10.01" y1="0.00" x2="10.01" y2="10.00" />
<line x1="10.31" y1="0.00" x2="10.31" y2="10.00" />
<line x1="10.62" y1="0.00" x2="10.62" y2="10.00" />
<line x1="10.92" y1="0.00" x2="10.92" y2="11.00" />
<line x1="11.23" y1="0.00" x2="11.23" y2="11.00" />
<line x1="11.53" y1="0.00" x2="11.53" y2="11.00" />
<line x1="11.83" y1="0.00" x2="11.83" y2="11.00" />
<line x1="12.14" y1="0.00" x2="12.14" y2="11.00" />
<line x1="12.44" y1="0.00" x2="12.44" y2="11.00" />
<line x1="12.74" y1="0.00" x2="12.74" y2="11.00" />
<line x1="13.05" y1="0.00" x2="13.05" y2="11.00" />
<line x1="13.35" y1="0.00" x2="13.35" y2="12.00" />
<line x1="13.65" y1="0.00" x2="13.65" y2="12.00" />
<line x1="13.96" y1="0.00" x2="13.96" y2="12.00" />
<line x1="14.26" y1="0.00" x2="14.26" y2="12.00" />
<line x1="14.56" y1="0.00" x2="14.56" y2="12.00" />
<line x1="14.87" y1="0.00" x2="14.87" y2="12.00" />
<line x1="15.17" y1="0.00" x2="15.17" y2="12.00" />
<line x1="15.47" y1="0.00" x2="15.47" y2="12.00" />
<line x1="15.78" y1="0.00" x2="15.78" y2="13.00" />
<line x1="16.08" y1="0.00" x2="16.08" y2="13.00" />
<line x1="16.38" y1="0.00" x2="16.38" y2="13.00" />
<line x1="16.69" y1="0.00" x2="16.69" y2="13.00" />
<line x1="16.99" y1="0.00" x2="16.99" y2="13.00" />
<line x1="17.29" y1="0.00" x2="17.29" y2="13.00" />
<line x1="17.60" y1="0.00" x2="17.60" y2="13.00" />
<line x1="17.90" y1="0.00" x2="17.90" y2="13.00" />
<line x1="18.20" y1="0.00" x2="18.20" y2="14.00" />
<line x1="18.51" y1="0.00" x2="18.51" y2="14.00" />
<line x1="18.81" y1="0.00" x2="18.81" y2="14.00" />
<line x1="19.11" y1="0.00" x2="19.11" y2="14.00" />
<line x1="19.42" y1="0.00" x2="19.42" y2="14.00" />
<line x1="19.72" y1="0.00" x2="19.72" y2="14.00" />
</g>
</svg>