<svg xmlns="http://www.w3.org/2000/svg" width="161.8" height="100.0" viewBox="-3.05 -50.45 171.80 110.00">
<g fill="none" stroke="black" stroke-width="0.0550%" transform="translate(0, 9.0909) scale(9.0909, -9.0909)">


<line x1="0.64" y1="0.00" x2="0.64" y2="1.00" />

<line x1="1.07" y1="0.00" x2="1.07" y2="1.00" />
<line x1="1.29" y1="0.00" x2="1.29" y2="1.00" />
<line x1="1.50" y1="0.00" x2="1.50" y2="1.00" />
<line x1="1.72" y1="0.00" x2="1.72" y2="2.00" />

<line x1="2.14" y1="0.00" x2="2.14" y2="2.00" />
<line x1="2.36" y1="0.00" x2="2.36" y2="-1.00" />
<line x1="2.57" y1="0.00" x2="2.57" y2="2.00" />
<line x1="2.79" y1="0.00" x2="2.79" y2="-2.00" />
<line x1="3.00" y1="0.00" x2="3.00" y2="2.00" />
<line x1="3.22" y1="0.00" x2="3.22" y2="-3.00" />
<line x1="3.43" y1="0.00" x2="3.43" y2="2.00" />
<line x1="3.65" y1="0.00" x2="3.65" y2="-3.00" />
<line x1="3.86" y1="0.00" x2="3.86" y2="1.00" />
<line x1="4.07" y1="0.00" x2="4.07" y2="-3.00" />

<line x1="4.50" y1="0.00" x2="4.50" y2="-3.00" />
<line x1="4.72" y1="0.00" x2="4.72" y2="-1.00" />
<line x1="4.93" y1="0.00" x2="4.93" y2="-3.00" />
<line x1="5.15" y1="0.00" x2="5.15" y2="-2.00" />
<line x1="5.36" y1="0.00" x2="5.36" y2="-3.00" />
<line x1="5.58" y1="0.00" x2="5.58" y2="-3.00" />
<line x1="5.79" y1="0.00" x2="5.79" y2="-3.00" />
<line x1="6.00" y1="0.00" x2="6.00" y2="-4.00" />
<line x1="6.22" y1="0.00" x2="6.22" y2="-2.00" />
<line x1="6.43" y1="0.00" x2="6.43" y2="-4.00" />
<line x1="6.65" y1="0.00" x2="6.65" y2="-1.00" />
<line x1="6.86" y1="0.00" x2="6.86" y2="-4.00" />

<line x1="7.29" y1="0.00" x2="7.29" y2="-4.00" />
<line x1="7.51" y1="0.00" x2="7.51" y2="1.00" />
<line x1="7.72" y1="0.00" x2="7.72" y2="-4.00" />
<line x1="7.93" y1="0.00" x2="7.93" y2="2.00" />
<line x1="8.15" y1="0.00" x2="8.15" y2="-4.00" />
<line x1="8.36" y1="0.00" x2="8.36" y2="3.00" />
<line x1="8.58" y1="0.00" x2="8.58" y2="-4.00" />
<line x1="8.79" y1="0.00" x2="8.79" y2="4.00" />
<line x1="9.01" y1="0.00" x2="9.01" y2="-4.00" />
<line x1="9.22" y1="0.00" x2="9.22" y2="5.00" />
<line x1="9.44" y1="0.00" x2="9.44" y2="-4.00" />
<line x1="9.65" y1="0.00" x2="9.65" y2="5.00" />
<line x1="9.86" y1="0.00" x2="9.86" y2="-3.00" />
<line x1="10.08" y1="0.00" x2="10.08" y2="5.00" />
<line x1="10.29" y1="0.00" x2="10.29" y2="-2.00" />
<line x1="10.51" y1="0.00" x2="10.51" y2="5.00" />
<line x1="10.72" y1="0.00" x2="10.72" y2="-1.00" />
<line x1="10.94" y1="0.00" x2="10.94" y2="5.00" />

<line x1="11.37" y1="0.00" x2="11.37" y2="5.00" />
<line x1="11.58" y1="0.00" x2="11.58" y2="1.00" />
<line x1="11.79" y1="0.00" x2="11.79" y2="5.00" />
<line x1="12.01" y1="0.00" x2="12.01" y2="2.00" />
<line x1="12.22" y1="0.00" x2="12.22" y2="5.00" />
<line x1="12.44" y1="0.00" x2="12.44" y2="3.00" />
<line x1="12.65" y1="0.00" x2="12.65" y2="5.00" />
<line x1="12.87" y1="0.00" x2="12.87" y2="4.00" />
<line x1="13.08" y1="0.00" x2="13.08" y2="5.00" />
<line x1="13.30" y1="0.00" x2="13.30" y2="5.00" />
<line x1="13.51" y1="0.00" x2="13.51" y2="5.00" />
<line x1="13.72" y1="0.00" x2="13.72" y2="6.00" />
<line x1="13.94" y1="0.00" x2="13.94" y2="4.00" />
<line x1="14.15" y1="0.00" x2="14.15" y2="6.00" />
<line x1="14.37" y1="0.00" x2="14.37" y2="3.00" />
<line x1="14.58" y1="0.00" x2="14.58" y2="6.00" />
<line x1="14.80" y1="0.00" x2="14.80" y2="2.00" />
<line x1="15.01" y1="0.00" x2="15.01" y2="6.00" />
<line x1="15.23" y1="0.00" x2="15.23" y2="1.00" />
<line x1="15.44" y1="0.00" x2="15.44" y2="6.00" />

<line x1="15.87" y1="0.00" x2="15.87" y2="6.00" />
<line x1="16.08" y1="0.00" x2="16.08" y2="-1.00" />
<line x1="16.30" y1="0.00" x2="16.30" y2="6.00" />
<line x1="16.51" y1="0.00" x2="16.51" y2="-2.00" />
<line x1="16.73" y1="0.00" x2="16.73" y2="6.00" />
<line x1="16.94" y1="0.00" x2="16.94" y2="-3.00" />
<line x1="17.16" y1="0.00" x2="17.16" y2="6.00" />
<line x1="17.37" y1="0.00" x2="17.37" y2="-4.00" />
<line x1="17.58" y1="0.00" x2="17.58" y2="6.00" />
<line x1="17.80" y1="0.00" x2="17.80" y2="-5.00" />
<line x1="18.01" y1="0.00" x2="18.01" y2="6.00" />
</g>
</svg>