<svg xmlns="http://www.w3.org/2000/svg" width="161.8" height="100.0" viewBox="-3 -5 172 110">
<g fill="none" stroke="black" stroke-width="21.1250%" transform="translate(0, 100.0000) scale(0.0237, -0.0237)">

<line x1="210" y1="0" x2="210" y2="1" />
<line x1="316" y1="0" x2="316" y2="4" />
<line x1="421" y1="0" x2="421" y2="9" />
<line x1="526" y1="0" x2="526" y2="16" />
<line x1="631" y1="0" x2="631" y2="25" />
<line x1="736" y1="0" x2="736" y2="36" />
<line x1="841" y1="0" x2="841" y2="49" />
<line x1="947" y1="0" x2="947" y2="64" />
<line x1="1052" y1="0" x2="1052" y2="81" />
<line x1="1157" y1="0" x2="1157" y2="100" />
<line x1="1262" y1="0" x2="1262" y2="121" />
<line x1="1367" y1="0" x2="1367" y2="144" />
<line x1="1472" y1="0" x2="1472" y2="169" />
<line x1="1578" y1="0" x2="1578" y2="196" />
<line x1="1683" y1="0" x2="1683" y2="225" />
<line x1="1788" y1="0" x2="1788" y2="256" />
<line x1="1893" y1="0" x2="1893" y2="289" />
<line x1="1998" y1="0" x2="1998" y2="324" />
<line x1="2103" y1="0" x2="2103" y2="361" />
<line x1="2209" y1="0" x2="2209" y2="400" />
<line x1="2314" y1="0" x2="2314" y2="441" />
<line x1="2419" y1="0" x2="2419" y2="484" />
<line x1="2524" y1="0" x2="2524" y2="529" />
<line x1="2629" y1="0" x2="2629" y2="576" />
<line x1="2734" y1="0" x2="2734" y2="625" />
<line x1="2840" y1="0" x2="2840" y2="676" />
<line x1="2945" y1="0" x2="2945" y2="729" />
<line x1="3050" y1="0" x2="3050" y2="784" />
<line x1="3155" y1="0" x2="3155" y2="841" />
<line x1="3260" y1="0" x2="3260" y2="900" />
<line x1="3366" y1="0" x2="3366" y2="961" />
<line x1="3471" y1="0" x2="3471" y2="1024" />
<line x1="3576" y1="0" x2="3576" y2="1089" />
<line x1="3681" y1="0" x2="3681" y2="1156" />
<line x1="3786" y1="0" x2="3786" y2="1225" />
<line x1="3891" y1="0" x2="3891" y2="1296" />
<line x1="3997" y1="0" x2="3997" y2="1369" />
<line x1="4102" y1="0" x2="4102" y2="1444" />
<line x1="4207" y1="0" x2="4207" y2="1521" />
<line x1="4312" y1="0" x2="4312" y2="1600" />
<line x1="4417" y1="0" x2="4417" y2="1681" />
<line x1="4522" y1="0" x2="4522" y2="1764" />
<line x1="4628" y1="0" x2="4628" y2="1849" />
<line x1="4733" y1="0" x2="4733" y2="1936" />
<line x1="4838" y1="0" x2="4838" y2="2025" />
<line x1="4943" y1="0" x2="4943" y2="2116" />
<line x1="5048" y1="0" x2="5048" y2="2209" />
<line x1="5153" y1="0" x2="5153" y2="2304" />
<line x1="5259" y1="0" x2="5259" y2="2401" />
<line x1="5364" y1="0" x2="5364" y2="2500" />
<line x1="5469" y1="0" x2="5469" y2="2601" />
<line x1="5574" y1="0" x2="5574" y2="2704" />
<line x1="5679" y1="0" x2="5679" y2="2809" />
<line x1="5784" y1="0" x2="5784" y2="2916" />
<line x1="5890" y1="0" x2="5890" y2="3025" />
<line x1="5995" y1="0" x2="5995" y2="3136" />
<line x1="6100" y1="0" x2="6100" y2="3249" />
<line x1="6205" y1="0" x2="6205" y2="3364" />
<line x1="6310" y1="0" x2="6310" y2="3481" />
<line x1="6416" y1="0" x2="6416" y2="3600" />
<line x1="6521" y1="0" x2="6521" y2="3721" />
<line x1="6626" y1="0" x2="6626" y2="3844" />
<line x1="6731" y1="0" x2="6731" y2="3969" />
<line x1="6836" y1="0" x2="6836" y2="4096" />
<line x1="6941" y1="0" x2="6941" y2="4225" />
</g>
</svg>