<svg xmlns="http://www.w3.org/2000/svg" width="100.0" height="100.0" viewBox="-5.000 -5.000 110.000 110.000">
<g fill="none" stroke="black" stroke-width="0.0050%" transform="translate(0, 100.0000) scale(100.0000, -100.0000)">
<polyline points="1.000,0.000 0.980,0.020 0.960,0.040 0.960,0.040 0.960,0.040 0.940,0.060 0.920,0.080 0.920,0.080 0.920,0.080 0.900,0.100 0.880,0.120 0.880,0.120 0.880,0.120 0.860,0.140 0.840,0.160 0.840,0.160 0.840,0.160 0.820,0.180 0.800,0.200 0.800,0.200 0.800,0.200 0.780,0.220 0.760,0.240 0.760,0.240 0.760,0.240 0.740,0.260 0.720,0.280 0.720,0.280 0.720,0.280 0.700,0.300 0.680,0.320 0.680,0.320 0.680,0.320 0.660,0.340 0.640,0.360 0.640,0.360 0.640,0.360 0.622,0.378 0.620,0.380 0.600,0.400 0.600,0.400 0.600,0.400 0.580,0.420 0.560,0.440 0.560,0.440 0.560,0.440 0.540,0.460 0.520,0.480 0.520,0.480 0.520,0.520 0.500,0.500 0.480,0.480 0.500,0.500 0.520,0.520 0.540,0.540 0.560,0.560 0.580,0.580 0.600,0.600 0.620,0.620 0.640,0.640 0.660,0.660 0.680,0.680 0.700,0.700 0.720,0.720 0.740,0.740 0.760,0.760 0.780,0.780 0.800,0.800 0.820,0.820 0.840,0.840 0.860,0.860 0.880,0.880 0.900,0.900 0.920,0.920 0.940,0.940 0.960,0.960 0.980,0.980 1.000,1.000 0.980,0.980 0.960,0.960 0.940,0.940 0.920,0.920 0.900,0.900 0.880,0.880 0.860,0.860 0.840,0.840 0.820,0.820 0.800,0.800 0.780,0.780 0.760,0.760 0.740,0.740 0.720,0.720 0.700,0.700 0.680,0.680 0.660,0.660 0.640,0.640 0.620,0.620 0.600,0.600 0.580,0.580 0.560,0.560 0.540,0.540 0.520,0.520 0.480,0.520 0.460,0.540 0.440,0.560 0.440,0.560 0.440,0.560 0.420,0.580 0.400,0.600 0.400,0.600 0.400,0.600 0.380,0.620 0.378,0.622 0.360,0.640 0.360,0.640 0.360,0.640 0.340,0.660 0.320,0.680 0.320,0.680 0.320,0.680 0.300,0.700 0.280,0.720 0.280,0.720 0.280,0.720 0.260,0.740 0.240,0.760 0.240,0.760 0.240,0.760 0.220,0.780 0.200,0.800 0.200,0.800 0.200,0.800 0.180,0.820 0.160,0.840 0.160,0.840 0.160,0.840 0.140,0.860 0.120,0.880 0.120,0.880 0.120,0.880 0.100,0.900 0.080,0.920 0.080,0.920 0.080,0.920 0.060,0.940 0.040,0.960 0.040,0.960 0.040,0.960 0.020,0.980 0.000,1.000" />
<polyline points="0.667,1.000 0.666,0.986 0.666,0.974 0.664,0.960 0.660,0.940 0.659,0.939 0.654,0.920 0.650,0.910 0.640,0.894 0.635,0.885 0.630,0.880 0.615,0.865 0.600,0.856 0.590,0.850 0.561,0.841 0.560,0.840 0.560,0.840 0.558,0.840 0.526,0.834 0.520,0.834 0.514,0.834 0.486,0.834 0.480,0.834 0.474,0.834 0.442,0.840 0.440,0.840 0.440,0.840 0.439,0.841 0.410,0.850 0.400,0.856 0.385,0.865 0.370,0.880 0.365,0.885 0.360,0.894 0.350,0.910 0.346,0.920 0.341,0.939 0.340,0.940 0.336,0.960 0.334,0.974 0.334,0.986 0.333,1.000" />
<polyline points="0.000,0.667 0.014,0.666 0.026,0.666 0.040,0.664 0.060,0.660 0.061,0.659 0.080,0.654 0.090,0.650 0.106,0.640 0.115,0.635 0.120,0.630 0.135,0.615 0.144,0.600 0.150,0.590 0.159,0.561 0.160,0.560 0.160,0.560 0.160,0.558 0.166,0.526 0.166,0.520 0.166,0.514 0.166,0.486 0.166,0.480 0.166,0.474 0.160,0.442 0.160,0.440 0.160,0.440 0.159,0.439 0.150,0.410 0.144,0.400 0.135,0.385 0.120,0.370 0.115,0.365 0.106,0.360 0.090,0.350 0.080,0.346 0.061,0.341 0.060,0.340 0.040,0.336 0.026,0.334 0.014,0.334 0.000,0.333" />
<polyline points="1.000,0.667 0.986,0.666 0.974,0.666 0.960,0.664 0.940,0.660 0.939,0.659 0.920,0.654 0.910,0.650 0.894,0.640 0.885,0.635 0.880,0.630 0.865,0.615 0.856,0.600 0.850,0.590 0.841,0.561 0.840,0.560 0.840,0.560 0.840,0.558 0.834,0.526 0.834,0.520 0.834,0.514 0.834,0.486 0.834,0.480 0.834,0.474 0.840,0.442 0.840,0.440 0.840,0.440 0.841,0.439 0.850,0.410 0.856,0.400 0.865,0.385 0.880,0.370 0.885,0.365 0.894,0.360 0.910,0.350 0.920,0.346 0.939,0.341 0.940,0.340 0.960,0.336 0.974,0.334 0.986,0.334 1.000,0.333" />
<line x1="0.480" y1="0.520" x2="0.480" y2="0.520" />
<polyline points="0.460,0.460 0.440,0.440 0.460,0.460 0.480,0.480 0.460,0.460" />
<polyline points="0.420,0.420 0.400,0.400 0.420,0.420 0.440,0.440 0.420,0.420" />
<polyline points="0.380,0.380 0.360,0.360 0.380,0.380 0.400,0.400 0.380,0.380" />
<polyline points="0.340,0.340 0.320,0.320 0.340,0.340 0.360,0.360 0.340,0.340" />
<polyline points="0.300,0.300 0.280,0.280 0.300,0.300 0.320,0.320 0.300,0.300" />
<polyline points="0.260,0.260 0.240,0.240 0.260,0.260 0.280,0.280 0.260,0.260" />
<polyline points="0.220,0.220 0.200,0.200 0.220,0.220 0.240,0.240 0.220,0.220" />
<polyline points="0.180,0.180 0.160,0.160 0.180,0.180 0.200,0.200 0.180,0.180" />
<polyline points="0.667,0.000 0.666,0.014 0.666,0.026 0.664,0.040 0.660,0.060 0.659,0.061 0.654,0.080 0.650,0.090 0.640,0.106 0.635,0.115 0.630,0.120 0.615,0.135 0.600,0.144 0.590,0.150 0.561,0.159 0.560,0.160 0.560,0.160 0.558,0.160 0.526,0.166 0.520,0.166 0.514,0.166 0.486,0.166 0.480,0.166 0.474,0.166 0.442,0.160 0.440,0.160 0.440,0.160 0.439,0.159 0.410,0.150 0.400,0.144 0.385,0.135 0.370,0.120 0.365,0.115 0.360,0.106 0.350,0.090 0.346,0.080 0.341,0.061 0.340,0.060 0.336,0.040 0.334,0.026 0.334,0.014 0.333,0.000" />
<polyline points="0.140,0.140 0.120,0.120 0.140,0.140 0.160,0.160 0.140,0.140" />
<polyline points="0.100,0.100 0.080,0.080 0.100,0.100 0.120,0.120 0.100,0.100" />
<polyline points="0.060,0.060 0.040,0.040 0.060,0.060 0.080,0.080 0.060,0.060" />
<polyline points="0.020,0.020 0.000,0.000 0.020,0.020 0.040,0.040 0.020,0.020" />
</g>
</svg>