<svg xmlns="http://www.w3.org/2000/svg" width="100.0" height="100.0" viewBox="-5.000 -5.000 110.000 110.000">
<g fill="none" stroke="black" stroke-width="0.0050%" transform="translate(0, 100.0000) scale(100.0000, -100.0000)">
<polyline points="0.751,1.000 0.749,0.989 0.748,0.972 0.746,0.960 0.738,0.942 0.731,0.931 0.724,0.920 0.722,0.918 0.720,0.916 0.700,0.900 0.700,0.900 0.680,0.890 0.673,0.887 0.648,0.880 0.642,0.878 0.640,0.878 0.637,0.877 0.608,0.872 0.600,0.871 0.589,0.869 0.571,0.869 0.560,0.867 0.545,0.865 0.531,0.869 0.520,0.866 0.500,0.860 0.500,0.840 0.500,0.820 0.500,0.820 0.500,0.800 0.500,0.780 0.500,0.780 0.500,0.760 0.500,0.740 0.500,0.740 0.500,0.720 0.500,0.700 0.500,0.700 0.500,0.680 0.500,0.660 0.500,0.660 0.500,0.640 0.500,0.620 0.500,0.620 0.500,0.600 0.500,0.580 0.500,0.580 0.500,0.560 0.500,0.540 0.480,0.520 0.462,0.538 0.460,0.540 0.440,0.560 0.440,0.560 0.440,0.560 0.429,0.571 0.420,0.580 0.400,0.600 0.400,0.600 0.400,0.600 0.380,0.620 0.360,0.640 0.360,0.640 0.360,0.640 0.340,0.660 0.320,0.680 0.320,0.680 0.320,0.680 0.306,0.694 0.300,0.700 0.280,0.720 0.280,0.720 0.280,0.720 0.260,0.740 0.240,0.760 0.240,0.760 0.240,0.760 0.220,0.780 0.200,0.800 0.200,0.800 0.200,0.800 0.180,0.820 0.160,0.840 0.160,0.840 0.160,0.840 0.140,0.860 0.120,0.880 0.120,0.880 0.120,0.880 0.100,0.900 0.080,0.920 0.080,0.920 0.080,0.920 0.060,0.940 0.040,0.960 0.040,0.960 0.040,0.960 0.020,0.980 0.000,1.000" />
<polyline points="0.500,1.000 0.500,0.980 0.500,0.980 0.500,0.960 0.500,0.940 0.500,0.940 0.500,0.920 0.500,0.900 0.500,0.900 0.500,0.880 0.500,0.860 0.480,0.866 0.469,0.869 0.455,0.865 0.440,0.867 0.429,0.869 0.411,0.869 0.400,0.871 0.392,0.872 0.363,0.877 0.360,0.878 0.358,0.878 0.352,0.880 0.327,0.887 0.320,0.890 0.300,0.900 0.300,0.900 0.280,0.916 0.278,0.918 0.276,0.920 0.269,0.931 0.262,0.942 0.254,0.960 0.252,0.972 0.251,0.989 0.249,1.000" />
<polyline points="0.980,0.980 0.960,0.960 0.980,0.980 1.000,1.000 0.980,0.980" />
<polyline points="0.940,0.940 0.920,0.920 0.940,0.940 0.960,0.960 0.940,0.940" />
<polyline points="0.900,0.900 0.880,0.880 0.900,0.900 0.920,0.920 0.900,0.900" />
<polyline points="0.860,0.860 0.840,0.840 0.860,0.860 0.880,0.880 0.860,0.860" />
<polyline points="0.820,0.820 0.800,0.800 0.820,0.820 0.840,0.840 0.820,0.820" />
<polyline points="0.780,0.780 0.760,0.760 0.780,0.780 0.800,0.800 0.780,0.780" />
<polyline points="0.000,0.751 0.011,0.749 0.028,0.748 0.040,0.746 0.058,0.738 0.069,0.731 0.080,0.724 0.082,0.722 0.084,0.720 0.100,0.700 0.110,0.680 0.113,0.673 0.120,0.648 0.122,0.642 0.122,0.640 0.123,0.637 0.128,0.608 0.129,0.600 0.131,0.589 0.131,0.571 0.133,0.560 0.135,0.545 0.131,0.531 0.134,0.520 0.140,0.500 0.134,0.480 0.131,0.469 0.135,0.455 0.133,0.440 0.131,0.429 0.131,0.411 0.129,0.400 0.128,0.392 0.123,0.363 0.122,0.360 0.122,0.358 0.120,0.352 0.113,0.327 0.110,0.320 0.100,0.300 0.084,0.280 0.082,0.278 0.080,0.276 0.069,0.269 0.058,0.262 0.040,0.254 0.028,0.252 0.011,0.251 0.000,0.249" />
<polyline points="0.740,0.740 0.720,0.720 0.740,0.740 0.760,0.760 0.740,0.740" />
<polyline points="1.000,0.751 0.989,0.749 0.972,0.748 0.960,0.746 0.942,0.738 0.931,0.731 0.920,0.724 0.918,0.722 0.916,0.720 0.900,0.700 0.890,0.680 0.887,0.673 0.880,0.648 0.878,0.642 0.878,0.640 0.877,0.637 0.872,0.608 0.871,0.600 0.869,0.589 0.869,0.571 0.867,0.560 0.865,0.545 0.869,0.531 0.866,0.520 0.860,0.500 0.866,0.480 0.869,0.469 0.865,0.455 0.867,0.440 0.869,0.429 0.869,0.411 0.871,0.400 0.872,0.392 0.877,0.363 0.878,0.360 0.878,0.358 0.880,0.352 0.887,0.327 0.890,0.320 0.900,0.300 0.916,0.280 0.918,0.278 0.920,0.276 0.931,0.269 0.942,0.262 0.960,0.254 0.972,0.252 0.989,0.251 1.000,0.249" />
<line x1="0.100" y1="0.700" x2="0.100" y2="0.700" />
<polyline points="0.700,0.700 0.680,0.680 0.700,0.700 0.720,0.720 0.700,0.700" />
<line x1="0.900" y1="0.700" x2="0.900" y2="0.700" />
<polyline points="0.660,0.660 0.640,0.640 0.660,0.660 0.680,0.680 0.660,0.660" />
<polyline points="0.620,0.620 0.600,0.600 0.620,0.620 0.640,0.640 0.620,0.620" />
<polyline points="0.580,0.580 0.560,0.560 0.580,0.580 0.600,0.600 0.580,0.580" />
<polyline points="0.540,0.540 0.520,0.520 0.540,0.540 0.560,0.560 0.540,0.540" />
<polyline points="0.000,0.500 0.020,0.500 0.020,0.500 0.040,0.500 0.060,0.500 0.080,0.500 0.100,0.500 0.120,0.500 0.140,0.500 0.160,0.500 0.180,0.500 0.200,0.500 0.220,0.500 0.240,0.500 0.260,0.500 0.280,0.500 0.300,0.500 0.320,0.500 0.340,0.500 0.360,0.500 0.380,0.500 0.400,0.500 0.420,0.500 0.440,0.500 0.460,0.500 0.480,0.480 0.500,0.500 0.520,0.520 0.500,0.500 0.480,0.480 0.460,0.460 0.440,0.440 0.460,0.460 0.480,0.480 0.500,0.460 0.500,0.440 0.500,0.420 0.500,0.400 0.500,0.380 0.500,0.360 0.500,0.340 0.500,0.320 0.500,0.300 0.500,0.280 0.500,0.260 0.500,0.240 0.500,0.220 0.500,0.200 0.500,0.180 0.500,0.160 0.500,0.140 0.500,0.120 0.500,0.100 0.500,0.080 0.500,0.060 0.500,0.040 0.500,0.020 0.500,0.000" />
<line x1="0.060" y1="0.500" x2="0.060" y2="0.500" />
<line x1="0.100" y1="0.500" x2="0.100" y2="0.500" />
<line x1="0.180" y1="0.500" x2="0.180" y2="0.500" />
<line x1="0.220" y1="0.500" x2="0.220" y2="0.500" />
<line x1="0.260" y1="0.500" x2="0.260" y2="0.500" />
<line x1="0.300" y1="0.500" x2="0.300" y2="0.500" />
<line x1="0.340" y1="0.500" x2="0.340" y2="0.500" />
<line x1="0.380" y1="0.500" x2="0.380" y2="0.500" />
<line x1="0.420" y1="0.500" x2="0.420" y2="0.500" />
<polyline points="1.000,0.500 0.980,0.500 0.960,0.500 0.940,0.500 0.920,0.500 0.900,0.500 0.880,0.500 0.860,0.500 0.840,0.500 0.820,0.500 0.800,0.500 0.780,0.500 0.760,0.500 0.740,0.500 0.720,0.500 0.700,0.500 0.680,0.500 0.660,0.500 0.640,0.500 0.620,0.500 0.600,0.500 0.580,0.500 0.560,0.500 0.540,0.500 0.520,0.480 0.538,0.462 0.540,0.460 0.560,0.440 0.560,0.440 0.560,0.440 0.571,0.429 0.580,0.420 0.600,0.400 0.600,0.400 0.600,0.400 0.620,0.380 0.640,0.360 0.640,0.360 0.640,0.360 0.660,0.340 0.680,0.320 0.680,0.320 0.680,0.320 0.694,0.306 0.700,0.300 0.720,0.280 0.720,0.280 0.720,0.280 0.740,0.260 0.760,0.240 0.760,0.240 0.760,0.240 0.780,0.220 0.800,0.200 0.800,0.200 0.800,0.200 0.820,0.180 0.840,0.160 0.840,0.160 0.840,0.160 0.860,0.140 0.880,0.120 0.880,0.120 0.880,0.120 0.900,0.100 0.920,0.080 0.920,0.080 0.920,0.080 0.940,0.060 0.960,0.040 0.960,0.040 0.960,0.040 0.980,0.020 1.000,0.000" />
<line x1="0.580" y1="0.500" x2="0.580" y2="0.500" />
<line x1="0.620" y1="0.500" x2="0.620" y2="0.500" />
<line x1="0.660" y1="0.500" x2="0.660" y2="0.500" />
<line x1="0.700" y1="0.500" x2="0.700" y2="0.500" />
<line x1="0.740" y1="0.500" x2="0.740" y2="0.500" />
<line x1="0.780" y1="0.500" x2="0.780" y2="0.500" />
<line x1="0.820" y1="0.500" x2="0.820" y2="0.500" />
<line x1="0.900" y1="0.500" x2="0.900" y2="0.500" />
<line x1="0.940" y1="0.500" x2="0.940" y2="0.500" />
<line x1="0.980" y1="0.500" x2="0.980" y2="0.500" />
<polyline points="0.420,0.420 0.400,0.400 0.420,0.420 0.440,0.440 0.420,0.420" />
<line x1="0.500" y1="0.420" x2="0.500" y2="0.420" />
<polyline points="0.380,0.380 0.360,0.360 0.380,0.380 0.400,0.400 0.380,0.380" />
<line x1="0.500" y1="0.380" x2="0.500" y2="0.380" />
<polyline points="0.340,0.340 0.320,0.320 0.340,0.340 0.360,0.360 0.340,0.340" />
<line x1="0.500" y1="0.340" x2="0.500" y2="0.340" />
<line x1="0.100" y1="0.300" x2="0.100" y2="0.300" />
<polyline points="0.300,0.300 0.280,0.280 0.300,0.300 0.320,0.320 0.300,0.300" />
<line x1="0.500" y1="0.300" x2="0.500" y2="0.300" />
<line x1="0.900" y1="0.300" x2="0.900" y2="0.300" />
<polyline points="0.260,0.260 0.240,0.240 0.260,0.260 0.280,0.280 0.260,0.260" />
<line x1="0.500" y1="0.260" x2="0.500" y2="0.260" />
<polyline points="0.220,0.220 0.200,0.200 0.220,0.220 0.240,0.240 0.220,0.220" />
<line x1="0.500" y1="0.220" x2="0.500" y2="0.220" />
<polyline points="0.180,0.180 0.160,0.160 0.180,0.180 0.200,0.200 0.180,0.180" />
<line x1="0.500" y1="0.180" x2="0.500" y2="0.180" />
<polyline points="0.140,0.140 0.120,0.120 0.140,0.140 0.160,0.160 0.140,0.140" />
<polyline points="0.751,0.000 0.749,0.011 0.748,0.028 0.746,0.040 0.738,0.058 0.731,0.069 0.724,0.080 0.722,0.082 0.720,0.084 0.700,0.100 0.700,0.100 0.680,0.110 0.673,0.113 0.648,0.120 0.642,0.122 0.640,0.122 0.637,0.123 0.608,0.128 0.600,0.129 0.589,0.131 0.571,0.131 0.560,0.133 0.545,0.135 0.531,0.131 0.520,0.134 0.500,0.140 0.480,0.134 0.469,0.131 0.455,0.135 0.440,0.133 0.429,0.131 0.411,0.131 0.400,0.129 0.392,0.128 0.363,0.123 0.360,0.122 0.358,0.122 0.352,0.120 0.327,0.113 0.320,0.110 0.300,0.100 0.300,0.100 0.280,0.084 0.278,0.082 0.276,0.080 0.269,0.069 0.262,0.058 0.254,0.040 0.252,0.028 0.251,0.011 0.249,0.000" />
<polyline points="0.100,0.100 0.080,0.080 0.100,0.100 0.120,0.120 0.100,0.100" />
<line x1="0.500" y1="0.100" x2="0.500" y2="0.100" />
<polyline points="0.060,0.060 0.040,0.040 0.060,0.060 0.080,0.080 0.060,0.060" />
<line x1="0.500" y1="0.060" x2="0.500" y2="0.060" />
<polyline points="0.020,0.020 0.000,0.000 0.020,0.020 0.040,0.040 0.020,0.020" />
<line x1="0.500" y1="0.020" x2="0.500" y2="0.020" />
</g>
</svg>