<svg xmlns="http://www.w3.org/2000/svg" width="161.8" height="100.0" viewBox="-2.5 -1.4 171.8 110.0">
<g fill="none" stroke="black" stroke-width="0.2800%" transform="translate(0, 107.1429) scale(1.7857, -1.7857)">
<circle cx="1.4" cy="2.0" r="0.3" />
<circle cx="2.8" cy="3.0" r="0.3" />
<circle cx="4.2" cy="2.0" r="0.3" />
<circle cx="5.7" cy="3.0" r="0.3" />
<circle cx="7.1" cy="4.0" r="0.3" />
<circle cx="8.5" cy="5.0" r="0.3" />
<circle cx="9.9" cy="5.0" r="0.3" />
<circle cx="11.3" cy="6.0" r="0.3" />
<circle cx="12.7" cy="7.0" r="0.3" />
<circle cx="14.2" cy="8.0" r="0.3" />
<circle cx="15.6" cy="9.0" r="0.3" />
<circle cx="17.0" cy="10.0" r="0.3" />
<circle cx="18.4" cy="10.0" r="0.3" />
<circle cx="19.8" cy="11.0" r="0.3" />
<circle cx="21.2" cy="12.0" r="0.3" />
<circle cx="22.7" cy="13.0" r="0.3" />
<circle cx="24.1" cy="14.0" r="0.3" />
<circle cx="25.5" cy="15.0" r="0.3" />
<circle cx="26.9" cy="16.0" r="0.3" />
<circle cx="28.3" cy="17.0" r="0.3" />
<circle cx="29.7" cy="17.0" r="0.3" />
<circle cx="31.1" cy="18.0" r="0.3" />
<circle cx="32.6" cy="19.0" r="0.3" />
<circle cx="34.0" cy="20.0" r="0.3" />
<circle cx="35.4" cy="21.0" r="0.3" />
<circle cx="36.8" cy="22.0" r="0.3" />
<circle cx="38.2" cy="23.0" r="0.3" />
<circle cx="39.6" cy="24.0" r="0.3" />
<circle cx="41.1" cy="25.0" r="0.3" />
<circle cx="42.5" cy="26.0" r="0.3" />
<circle cx="43.9" cy="26.0" r="0.3" />
<circle cx="45.3" cy="27.0" r="0.3" />
<circle cx="46.7" cy="28.0" r="0.3" />
<circle cx="48.1" cy="29.0" r="0.3" />
<circle cx="49.6" cy="30.0" r="0.3" />
<circle cx="51.0" cy="31.0" r="0.3" />
<circle cx="52.4" cy="32.0" r="0.3" />
<circle cx="53.8" cy="33.0" r="0.3" />
<circle cx="55.2" cy="34.0" r="0.3" />
<circle cx="56.6" cy="35.0" r="0.3" />
<circle cx="58.0" cy="36.0" r="0.3" />
<circle cx="59.5" cy="37.0" r="0.3" />
<circle cx="60.9" cy="37.0" r="0.3" />
<circle cx="62.3" cy="38.0" r="0.3" />
<circle cx="63.7" cy="39.0" r="0.3" />
<circle cx="65.1" cy="40.0" r="0.3" />
<circle cx="66.5" cy="41.0" r="0.3" />
<circle cx="68.0" cy="42.0" r="0.3" />
<circle cx="69.4" cy="43.0" r="0.3" />
<circle cx="70.8" cy="44.0" r="0.3" />
<circle cx="72.2" cy="45.0" r="0.3" />
<circle cx="73.6" cy="46.0" r="0.3" />
<circle cx="75.0" cy="47.0" r="0.3" />
<circle cx="76.5" cy="48.0" r="0.3" />
<circle cx="77.9" cy="49.0" r="0.3" />
<circle cx="79.3" cy="50.0" r="0.3" />
<circle cx="80.7" cy="50.0" r="0.3" />
<circle cx="82.1" cy="51.0" r="0.3" />
<circle cx="83.5" cy="52.0" r="0.3" />
<circle cx="84.9" cy="53.0" r="0.3" />
<circle cx="86.4" cy="54.0" r="0.3" />
<circle cx="87.8" cy="55.0" r="0.3" />
<circle cx="89.2" cy="56.0" r="0.3" />
<circle cx="90.6" cy="57.0" r="0.3" />
<circle cx="92.0" cy="58.0" r="0.3" />
</g>
</svg>