<svg xmlns="http://www.w3.org/2000/svg" width="100.0" height="100.0" viewBox="-5.000 -5.000 110.000 110.000">
<g fill="none" stroke="black" stroke-width="0.0050%" transform="translate(0, 100.0000) scale(100.0000, -100.0000)">
<polyline points="0.113,1.000 0.110,0.990 0.105,0.975 0.100,0.960 0.091,0.949 0.080,0.939 0.071,0.929 0.061,0.920 0.051,0.909 0.040,0.900 0.025,0.895 0.010,0.890 0.000,0.887" />
<polyline points="0.000,0.800 0.000,0.800 0.034,0.794 0.040,0.794 0.048,0.792 0.066,0.786 0.080,0.783 0.100,0.780 0.100,0.780 0.120,0.776 0.136,0.776 0.146,0.774 0.160,0.773 0.175,0.775 0.186,0.774 0.200,0.777 0.216,0.784 0.223,0.800 0.226,0.814 0.225,0.825 0.227,0.840 0.226,0.854 0.224,0.864 0.224,0.880 0.220,0.900 0.220,0.900 0.217,0.920 0.214,0.934 0.208,0.952 0.206,0.960 0.206,0.966 0.200,1.000 0.200,1.000" />
<polyline points="0.557,1.000 0.554,0.994 0.545,0.975 0.536,0.960 0.527,0.953 0.520,0.949 0.506,0.934 0.490,0.920 0.485,0.915 0.480,0.910 0.462,0.898 0.454,0.894 0.440,0.886 0.434,0.886 0.406,0.886 0.400,0.887 0.381,0.901 0.364,0.920 0.362,0.922 0.360,0.925 0.346,0.946 0.339,0.960 0.336,0.976 0.335,0.985 0.332,1.000" />
<polyline points="0.000,0.400 0.000,0.400 0.000,0.400 0.028,0.388 0.040,0.383 0.052,0.372 0.067,0.360 0.074,0.354 0.080,0.350 0.099,0.339 0.102,0.338 0.120,0.328 0.127,0.327 0.159,0.320 0.160,0.320 0.160,0.319 0.161,0.319 0.162,0.320 0.193,0.327 0.200,0.332 0.213,0.347 0.216,0.360 0.220,0.380 0.220,0.380 0.223,0.400 0.223,0.417 0.223,0.423 0.223,0.440 0.221,0.459 0.221,0.461 0.219,0.480 0.216,0.496 0.212,0.508 0.210,0.520 0.208,0.528 0.200,0.557 0.199,0.559 0.199,0.560 0.199,0.561 0.200,0.600 0.200,0.600 0.210,0.630 0.214,0.640 0.220,0.660 0.220,0.660 0.226,0.680 0.228,0.692 0.235,0.715 0.236,0.720 0.236,0.724 0.240,0.734 0.248,0.752 0.266,0.760 0.276,0.764 0.280,0.764 0.285,0.765 0.308,0.772 0.320,0.774 0.340,0.780 0.340,0.780 0.360,0.786 0.370,0.790 0.400,0.800 0.400,0.800 0.439,0.801 0.440,0.801 0.441,0.801 0.443,0.800 0.472,0.792 0.480,0.790 0.492,0.788 0.504,0.784 0.520,0.781 0.539,0.779 0.541,0.779 0.560,0.777 0.577,0.777 0.583,0.777 0.600,0.777 0.620,0.780 0.620,0.780 0.640,0.784 0.653,0.787 0.668,0.800 0.673,0.807 0.680,0.838 0.681,0.839 0.681,0.840 0.680,0.840 0.680,0.841 0.673,0.873 0.672,0.880 0.662,0.898 0.661,0.901 0.650,0.920 0.646,0.926 0.640,0.933 0.628,0.948 0.617,0.960 0.612,0.972 0.600,1.000 0.600,1.000" />
<polyline points="1.000,0.777 0.982,0.778 0.978,0.778 0.960,0.780 0.942,0.782 0.935,0.785 0.920,0.788 0.909,0.789 0.887,0.800 0.883,0.803 0.880,0.807 0.864,0.816 0.858,0.818 0.840,0.840 0.820,0.820 0.800,0.800 0.820,0.820 0.840,0.840 0.860,0.860 0.880,0.880 0.900,0.900 0.920,0.920 0.940,0.940 0.960,0.960 0.980,0.980 1.000,1.000 0.980,0.980 0.960,0.960 0.940,0.940 0.920,0.920 0.900,0.900 0.880,0.880 0.860,0.860 0.840,0.840 0.818,0.858 0.816,0.864 0.807,0.880 0.803,0.883 0.800,0.887 0.789,0.909 0.788,0.920 0.785,0.935 0.782,0.942 0.780,0.960 0.778,0.978 0.778,0.982 0.777,1.000" />
<polyline points="0.400,0.800 0.400,0.800 0.400,0.800" />
<polyline points="0.780,0.780 0.760,0.760 0.780,0.780 0.800,0.800 0.780,0.780" />
<polyline points="0.740,0.740 0.720,0.720 0.740,0.740 0.760,0.760 0.740,0.740" />
<polyline points="0.700,0.700 0.680,0.680 0.700,0.700 0.720,0.720 0.700,0.700" />
<polyline points="1.000,0.600 1.000,0.600 0.972,0.612 0.960,0.617 0.948,0.628 0.933,0.640 0.926,0.646 0.920,0.650 0.901,0.661 0.898,0.662 0.880,0.672 0.873,0.673 0.841,0.680 0.840,0.680 0.840,0.681 0.839,0.681 0.838,0.680 0.807,0.673 0.800,0.668 0.787,0.653 0.784,0.640 0.780,0.620 0.780,0.620 0.777,0.600 0.777,0.583 0.777,0.577 0.777,0.560 0.779,0.541 0.779,0.539 0.781,0.520 0.784,0.504 0.788,0.492 0.790,0.480 0.792,0.472 0.800,0.443 0.801,0.441 0.801,0.440 0.801,0.439 0.800,0.400 0.800,0.400 0.800,0.400 0.790,0.370 0.786,0.360 0.780,0.340 0.780,0.340 0.774,0.320 0.772,0.308 0.765,0.285 0.764,0.280 0.764,0.276 0.760,0.266 0.752,0.248 0.734,0.240 0.724,0.236 0.720,0.236 0.715,0.235 0.692,0.228 0.680,0.226 0.660,0.220 0.660,0.220 0.640,0.214 0.630,0.210 0.600,0.200 0.600,0.200 0.600,0.200 0.600,0.200 0.561,0.199 0.560,0.199 0.559,0.199 0.557,0.200 0.528,0.208 0.520,0.210 0.508,0.212 0.496,0.216 0.480,0.219 0.461,0.221 0.459,0.221 0.440,0.223 0.423,0.223 0.417,0.223 0.400,0.223 0.380,0.220 0.380,0.220 0.360,0.216 0.347,0.213 0.332,0.200 0.327,0.193 0.320,0.162 0.319,0.161 0.319,0.160 0.320,0.160 0.320,0.159 0.327,0.127 0.328,0.120 0.338,0.102 0.339,0.099 0.350,0.080 0.354,0.074 0.360,0.067 0.372,0.052 0.383,0.040 0.388,0.028 0.400,0.000 0.400,0.000 0.400,0.000" />
<polyline points="0.000,0.668 0.015,0.665 0.024,0.664 0.040,0.661 0.054,0.654 0.075,0.640 0.078,0.638 0.080,0.636 0.099,0.619 0.113,0.600 0.114,0.594 0.114,0.566 0.114,0.560 0.106,0.546 0.102,0.538 0.090,0.520 0.085,0.515 0.080,0.510 0.066,0.494 0.051,0.480 0.047,0.473 0.040,0.464 0.025,0.455 0.006,0.446 0.000,0.443" />
<polyline points="0.640,0.354 0.644,0.356 0.646,0.360 0.658,0.378 0.660,0.380 0.668,0.400 0.669,0.411 0.668,0.428 0.669,0.440 0.663,0.457 0.662,0.462 0.655,0.480 0.650,0.490 0.640,0.505 0.633,0.513 0.627,0.520 0.617,0.537 0.600,0.557 0.598,0.558 0.560,0.560 0.540,0.540 0.520,0.520 0.540,0.540 0.560,0.560 0.580,0.580 0.600,0.600 0.620,0.620 0.640,0.640 0.660,0.660 0.680,0.680 0.660,0.660 0.640,0.640 0.620,0.620 0.600,0.600 0.580,0.580 0.560,0.560 0.558,0.598 0.557,0.600 0.537,0.617 0.520,0.627 0.513,0.633 0.505,0.640 0.490,0.650 0.480,0.655 0.462,0.662 0.457,0.663 0.440,0.669 0.428,0.668 0.411,0.669 0.400,0.668 0.380,0.660 0.378,0.658 0.360,0.646 0.356,0.644 0.354,0.640 0.342,0.622 0.340,0.620 0.332,0.600 0.331,0.589 0.332,0.572 0.331,0.560 0.337,0.543 0.338,0.538 0.345,0.520 0.350,0.510 0.360,0.495 0.367,0.487 0.373,0.480 0.383,0.463 0.400,0.443 0.402,0.442 0.440,0.440 0.460,0.460 0.480,0.480 0.500,0.500 0.520,0.520 0.500,0.500 0.480,0.480 0.460,0.460 0.440,0.440 0.420,0.420 0.400,0.400 0.420,0.420 0.440,0.440 0.442,0.402 0.443,0.400 0.463,0.383 0.480,0.373 0.487,0.367 0.495,0.360 0.510,0.350 0.520,0.345 0.538,0.338 0.543,0.337 0.560,0.331 0.572,0.332 0.589,0.331 0.600,0.332 0.620,0.340 0.622,0.342 0.640,0.354" />
<polyline points="0.200,0.600 0.200,0.600 0.200,0.600" />
<polyline points="1.000,0.557 0.994,0.554 0.975,0.545 0.960,0.536 0.953,0.527 0.949,0.520 0.934,0.506 0.920,0.490 0.915,0.485 0.910,0.480 0.898,0.462 0.894,0.454 0.886,0.440 0.886,0.434 0.886,0.406 0.887,0.400 0.901,0.381 0.920,0.364 0.922,0.362 0.925,0.360 0.946,0.346 0.960,0.339 0.976,0.336 0.985,0.335 1.000,0.332" />
<polyline points="0.380,0.380 0.360,0.360 0.380,0.380 0.400,0.400 0.380,0.380" />
<line x1="0.800" y1="0.400" x2="0.800" y2="0.400" />
<polyline points="0.340,0.340 0.320,0.320 0.340,0.340 0.360,0.360 0.340,0.340" />
<polyline points="0.300,0.300 0.280,0.280 0.300,0.300 0.320,0.320 0.300,0.300" />
<polyline points="0.260,0.260 0.240,0.240 0.260,0.260 0.280,0.280 0.260,0.260" />
<polyline points="0.000,0.223 0.018,0.222 0.022,0.222 0.040,0.220 0.058,0.218 0.065,0.215 0.080,0.212 0.091,0.211 0.113,0.200 0.117,0.197 0.120,0.193 0.136,0.184 0.142,0.182 0.160,0.160 0.180,0.180 0.200,0.200 0.220,0.220 0.240,0.240 0.220,0.220 0.200,0.200 0.180,0.180 0.160,0.160 0.140,0.140 0.120,0.120 0.140,0.140 0.160,0.160 0.182,0.142 0.184,0.136 0.193,0.120 0.197,0.117 0.200,0.113 0.211,0.091 0.212,0.080 0.215,0.065 0.218,0.058 0.220,0.040 0.222,0.022 0.222,0.018 0.223,0.000" />
<polyline points="1.000,0.200 1.000,0.200 0.966,0.206 0.960,0.206 0.952,0.208 0.934,0.214 0.920,0.217 0.900,0.220 0.900,0.220 0.880,0.224 0.864,0.224 0.854,0.226 0.840,0.227 0.825,0.225 0.814,0.226 0.800,0.223 0.784,0.216 0.777,0.200 0.774,0.186 0.775,0.175 0.773,0.160 0.774,0.146 0.776,0.136 0.776,0.120 0.780,0.100 0.780,0.100 0.783,0.080 0.786,0.066 0.792,0.048 0.794,0.040 0.794,0.034 0.800,0.000 0.800,0.000" />
<polyline points="0.100,0.100 0.080,0.080 0.100,0.100 0.120,0.120 0.100,0.100" />
<polyline points="0.668,0.000 0.665,0.015 0.664,0.024 0.661,0.040 0.654,0.054 0.640,0.075 0.638,0.078 0.636,0.080 0.619,0.099 0.600,0.113 0.594,0.114 0.566,0.114 0.560,0.114 0.546,0.106 0.538,0.102 0.520,0.090 0.515,0.085 0.510,0.080 0.494,0.066 0.480,0.051 0.473,0.047 0.464,0.040 0.455,0.025 0.446,0.006 0.443,0.000" />
<polyline points="1.000,0.113 0.990,0.110 0.975,0.105 0.960,0.100 0.949,0.091 0.939,0.080 0.929,0.071 0.920,0.061 0.909,0.051 0.900,0.040 0.895,0.025 0.890,0.010 0.887,0.000" />
<polyline points="0.060,0.060 0.040,0.040 0.060,0.060 0.080,0.080 0.060,0.060" />
<polyline points="0.020,0.020 0.000,0.000 0.020,0.020 0.040,0.040 0.020,0.020" />
</g>
</svg>