<svg xmlns="http://www.w3.org/2000/svg" width="161.8" height="100.0" viewBox="-2.47 -47.86 171.80 110.00">
<g fill="none" stroke="black" stroke-width="0.0700%" transform="translate(0, 14.2857) scale(7.1429, -7.1429)">

<line x1="0.71" y1="0.00" x2="0.71" y2="1.00" />
<line x1="1.06" y1="0.00" x2="1.06" y2="2.00" />
<line x1="1.42" y1="0.00" x2="1.42" y2="1.00" />

<line x1="2.12" y1="0.00" x2="2.12" y2="-1.00" />
<line x1="2.48" y1="0.00" x2="2.48" y2="-2.00" />
<line x1="2.83" y1="0.00" x2="2.83" y2="-1.00" />

<line x1="3.54" y1="0.00" x2="3.54" y2="1.00" />
<line x1="3.89" y1="0.00" x2="3.89" y2="2.00" />
<line x1="4.25" y1="0.00" x2="4.25" y2="3.00" />
<line x1="4.60" y1="0.00" x2="4.60" y2="4.00" />
<line x1="4.96" y1="0.00" x2="4.96" y2="3.00" />
<line x1="5.31" y1="0.00" x2="5.31" y2="2.00" />
<line x1="5.66" y1="0.00" x2="5.66" y2="1.00" />

<line x1="6.37" y1="0.00" x2="6.37" y2="-1.00" />
<line x1="6.72" y1="0.00" x2="6.72" y2="-2.00" />
<line x1="7.08" y1="0.00" x2="7.08" y2="-3.00" />
<line x1="7.43" y1="0.00" x2="7.43" y2="-4.00" />
<line x1="7.79" y1="0.00" x2="7.79" y2="-3.00" />
<line x1="8.14" y1="0.00" x2="8.14" y2="-2.00" />
<line x1="8.49" y1="0.00" x2="8.49" y2="-1.00" />

<line x1="9.20" y1="0.00" x2="9.20" y2="1.00" />
<line x1="9.56" y1="0.00" x2="9.56" y2="2.00" />
<line x1="9.91" y1="0.00" x2="9.91" y2="3.00" />
<line x1="10.26" y1="0.00" x2="10.26" y2="4.00" />
<line x1="10.62" y1="0.00" x2="10.62" y2="5.00" />
<line x1="10.97" y1="0.00" x2="10.97" y2="6.00" />
<line x1="11.33" y1="0.00" x2="11.33" y2="5.00" />
<line x1="11.68" y1="0.00" x2="11.68" y2="4.00" />
<line x1="12.03" y1="0.00" x2="12.03" y2="3.00" />
<line x1="12.39" y1="0.00" x2="12.39" y2="2.00" />
<line x1="12.74" y1="0.00" x2="12.74" y2="1.00" />

<line x1="13.45" y1="0.00" x2="13.45" y2="-1.00" />
<line x1="13.80" y1="0.00" x2="13.80" y2="-2.00" />
<line x1="14.16" y1="0.00" x2="14.16" y2="-3.00" />
<line x1="14.51" y1="0.00" x2="14.51" y2="-4.00" />
<line x1="14.87" y1="0.00" x2="14.87" y2="-5.00" />
<line x1="15.22" y1="0.00" x2="15.22" y2="-6.00" />
<line x1="15.57" y1="0.00" x2="15.57" y2="-5.00" />
<line x1="15.93" y1="0.00" x2="15.93" y2="-4.00" />
<line x1="16.28" y1="0.00" x2="16.28" y2="-3.00" />
<line x1="16.64" y1="0.00" x2="16.64" y2="-2.00" />
<line x1="16.99" y1="0.00" x2="16.99" y2="-1.00" />

<line x1="17.70" y1="0.00" x2="17.70" y2="1.00" />
<line x1="18.05" y1="0.00" x2="18.05" y2="2.00" />
<line x1="18.41" y1="0.00" x2="18.41" y2="3.00" />
<line x1="18.76" y1="0.00" x2="18.76" y2="4.00" />
<line x1="19.11" y1="0.00" x2="19.11" y2="5.00" />
<line x1="19.47" y1="0.00" x2="19.47" y2="6.00" />
<line x1="19.82" y1="0.00" x2="19.82" y2="7.00" />
<line x1="20.17" y1="0.00" x2="20.17" y2="8.00" />
<line x1="20.53" y1="0.00" x2="20.53" y2="7.00" />
<line x1="20.88" y1="0.00" x2="20.88" y2="6.00" />
<line x1="21.24" y1="0.00" x2="21.24" y2="5.00" />
<line x1="21.59" y1="0.00" x2="21.59" y2="4.00" />
<line x1="21.94" y1="0.00" x2="21.94" y2="3.00" />
<line x1="22.30" y1="0.00" x2="22.30" y2="2.00" />
<line x1="22.65" y1="0.00" x2="22.65" y2="1.00" />

</g>
</svg>