<svg xmlns="http://www.w3.org/2000/svg" width="141.6" height="100.0" viewBox="-3.61 -5.00 151.58 110.00">
<g fill="none" stroke="black" stroke-width="0.0400%" transform="translate(0, 100.0000) scale(12.5000, -12.5000)">
<line x1="0.11" y1="0.00" x2="0.11" y2="1.00" />
<line x1="0.22" y1="0.00" x2="0.22" y2="1.00" />
<line x1="0.33" y1="0.00" x2="0.33" y2="2.00" />
<line x1="0.44" y1="0.00" x2="0.44" y2="2.00" />
<line x1="0.56" y1="0.00" x2="0.56" y2="2.00" />
<line x1="0.67" y1="0.00" x2="0.67" y2="2.00" />
<line x1="0.78" y1="0.00" x2="0.78" y2="2.00" />
<line x1="0.89" y1="0.00" x2="0.89" y2="4.00" />
<line x1="1.00" y1="0.00" x2="1.00" y2="2.00" />
<line x1="1.11" y1="0.00" x2="1.11" y2="2.00" />
<line x1="1.22" y1="0.00" x2="1.22" y2="2.00" />
<line x1="1.33" y1="0.00" x2="1.33" y2="4.00" />
<line x1="1.44" y1="0.00" x2="1.44" y2="2.00" />
<line x1="1.55" y1="0.00" x2="1.55" y2="2.00" />
<line x1="1.67" y1="0.00" x2="1.67" y2="4.00" />
<line x1="1.78" y1="0.00" x2="1.78" y2="4.00" />
<line x1="1.89" y1="0.00" x2="1.89" y2="2.00" />
<line x1="2.00" y1="0.00" x2="2.00" y2="2.00" />
<line x1="2.11" y1="0.00" x2="2.11" y2="2.00" />
<line x1="2.22" y1="0.00" x2="2.22" y2="4.00" />
<line x1="2.33" y1="0.00" x2="2.33" y2="4.00" />
<line x1="2.44" y1="0.00" x2="2.44" y2="2.00" />
<line x1="2.55" y1="0.00" x2="2.55" y2="2.00" />
<line x1="2.66" y1="0.00" x2="2.66" y2="8.00" />
<line x1="2.78" y1="0.00" x2="2.78" y2="2.00" />
<line x1="2.89" y1="0.00" x2="2.89" y2="2.00" />
<line x1="3.00" y1="0.00" x2="3.00" y2="2.00" />
<line x1="3.11" y1="0.00" x2="3.11" y2="4.00" />
<line x1="3.22" y1="0.00" x2="3.22" y2="2.00" />
<line x1="3.33" y1="0.00" x2="3.33" y2="4.00" />
<line x1="3.44" y1="0.00" x2="3.44" y2="2.00" />
<line x1="3.55" y1="0.00" x2="3.55" y2="4.00" />
<line x1="3.66" y1="0.00" x2="3.66" y2="4.00" />
<line x1="3.78" y1="0.00" x2="3.78" y2="2.00" />
<line x1="3.89" y1="0.00" x2="3.89" y2="4.00" />
<line x1="4.00" y1="0.00" x2="4.00" y2="4.00" />
<line x1="4.11" y1="0.00" x2="4.11" y2="2.00" />
<line x1="4.22" y1="0.00" x2="4.22" y2="2.00" />
<line x1="4.33" y1="0.00" x2="4.33" y2="4.00" />
<line x1="4.44" y1="0.00" x2="4.44" y2="8.00" />
<line x1="4.55" y1="0.00" x2="4.55" y2="2.00" />
<line x1="4.66" y1="0.00" x2="4.66" y2="4.00" />
<line x1="4.77" y1="0.00" x2="4.77" y2="2.00" />
<line x1="4.89" y1="0.00" x2="4.89" y2="4.00" />
<line x1="5.00" y1="0.00" x2="5.00" y2="4.00" />
<line x1="5.11" y1="0.00" x2="5.11" y2="2.00" />
<line x1="5.22" y1="0.00" x2="5.22" y2="2.00" />
<line x1="5.33" y1="0.00" x2="5.33" y2="8.00" />
<line x1="5.44" y1="0.00" x2="5.44" y2="2.00" />
<line x1="5.55" y1="0.00" x2="5.55" y2="2.00" />
<line x1="5.66" y1="0.00" x2="5.66" y2="4.00" />
<line x1="5.77" y1="0.00" x2="5.77" y2="4.00" />
<line x1="5.89" y1="0.00" x2="5.89" y2="2.00" />
<line x1="6.00" y1="0.00" x2="6.00" y2="2.00" />
<line x1="6.11" y1="0.00" x2="6.11" y2="4.00" />
<line x1="6.22" y1="0.00" x2="6.22" y2="8.00" />
<line x1="6.33" y1="0.00" x2="6.33" y2="4.00" />
<line x1="6.44" y1="0.00" x2="6.44" y2="2.00" />
<line x1="6.55" y1="0.00" x2="6.55" y2="2.00" />
<line x1="6.66" y1="0.00" x2="6.66" y2="8.00" />
<line x1="6.77" y1="0.00" x2="6.77" y2="2.00" />
<line x1="6.88" y1="0.00" x2="6.88" y2="2.00" />
<line x1="7.00" y1="0.00" x2="7.00" y2="4.00" />
<line x1="7.11" y1="0.00" x2="7.11" y2="4.00" />
<line x1="7.22" y1="0.00" x2="7.22" y2="4.00" />
<line x1="7.33" y1="0.00" x2="7.33" y2="4.00" />
<line x1="7.44" y1="0.00" x2="7.44" y2="2.00" />
<line x1="7.55" y1="0.00" x2="7.55" y2="4.00" />
<line x1="7.66" y1="0.00" x2="7.66" y2="4.00" />
<line x1="7.77" y1="0.00" x2="7.77" y2="4.00" />
<line x1="7.88" y1="0.00" x2="7.88" y2="2.00" />
<line x1="7.99" y1="0.00" x2="7.99" y2="8.00" />
<line x1="8.11" y1="0.00" x2="8.11" y2="2.00" />
<line x1="8.22" y1="0.00" x2="8.22" y2="2.00" />
<line x1="8.33" y1="0.00" x2="8.33" y2="4.00" />
<line x1="8.44" y1="0.00" x2="8.44" y2="4.00" />
<line x1="8.55" y1="0.00" x2="8.55" y2="4.00" />
<line x1="8.66" y1="0.00" x2="8.66" y2="4.00" />
<line x1="8.77" y1="0.00" x2="8.77" y2="2.00" />
<line x1="8.88" y1="0.00" x2="8.88" y2="8.00" />
<line x1="8.99" y1="0.00" x2="8.99" y2="2.00" />
<line x1="9.11" y1="0.00" x2="9.11" y2="2.00" />
<line x1="9.22" y1="0.00" x2="9.22" y2="2.00" />
<line x1="9.33" y1="0.00" x2="9.33" y2="8.00" />
<line x1="9.44" y1="0.00" x2="9.44" y2="4.00" />
<line x1="9.55" y1="0.00" x2="9.55" y2="2.00" />
<line x1="9.66" y1="0.00" x2="9.66" y2="4.00" />
<line x1="9.77" y1="0.00" x2="9.77" y2="8.00" />
<line x1="9.88" y1="0.00" x2="9.88" y2="2.00" />
<line x1="9.99" y1="0.00" x2="9.99" y2="4.00" />
<line x1="10.10" y1="0.00" x2="10.10" y2="4.00" />
<line x1="10.22" y1="0.00" x2="10.22" y2="4.00" />
<line x1="10.33" y1="0.00" x2="10.33" y2="4.00" />
<line x1="10.44" y1="0.00" x2="10.44" y2="2.00" />
<line x1="10.55" y1="0.00" x2="10.55" y2="4.00" />
<line x1="10.66" y1="0.00" x2="10.66" y2="8.00" />
<line x1="10.77" y1="0.00" x2="10.77" y2="2.00" />
<line x1="10.88" y1="0.00" x2="10.88" y2="2.00" />
<line x1="10.99" y1="0.00" x2="10.99" y2="4.00" />
<line x1="11.10" y1="0.00" x2="11.10" y2="4.00" />
<line x1="11.22" y1="0.00" x2="11.22" y2="2.00" />
<line x1="11.33" y1="0.00" x2="11.33" y2="4.00" />
<line x1="11.44" y1="0.00" x2="11.44" y2="2.00" />
</g>
</svg>