<svg xmlns="http://www.w3.org/2000/svg" width="161.5" height="100.0" viewBox="-2 -5 171 110">
<g fill="none" stroke="black" stroke-width="7.5750%" transform="translate(0, 100.0000) scale(0.0660, -0.0660)">
<line x1="38" y1="0" x2="38" y2="3" />
<line x1="76" y1="0" x2="76" y2="6" />
<line x1="115" y1="0" x2="115" y2="9" />
<line x1="153" y1="0" x2="153" y2="12" />
<line x1="191" y1="0" x2="191" y2="15" />
<line x1="229" y1="0" x2="229" y2="22" />
<line x1="268" y1="0" x2="268" y2="29" />
<line x1="306" y1="0" x2="306" y2="36" />
<line x1="344" y1="0" x2="344" y2="43" />
<line x1="382" y1="0" x2="382" y2="50" />
<line x1="420" y1="0" x2="420" y2="57" />
<line x1="459" y1="0" x2="459" y2="68" />
<line x1="497" y1="0" x2="497" y2="79" />
<line x1="535" y1="0" x2="535" y2="90" />
<line x1="573" y1="0" x2="573" y2="101" />
<line x1="612" y1="0" x2="612" y2="112" />
<line x1="650" y1="0" x2="650" y2="123" />
<line x1="688" y1="0" x2="688" y2="138" />
<line x1="726" y1="0" x2="726" y2="153" />
<line x1="765" y1="0" x2="765" y2="168" />
<line x1="803" y1="0" x2="803" y2="183" />
<line x1="841" y1="0" x2="841" y2="198" />
<line x1="879" y1="0" x2="879" y2="213" />
<line x1="917" y1="0" x2="917" y2="232" />
<line x1="956" y1="0" x2="956" y2="251" />
<line x1="994" y1="0" x2="994" y2="270" />
<line x1="1032" y1="0" x2="1032" y2="289" />
<line x1="1070" y1="0" x2="1070" y2="308" />
<line x1="1109" y1="0" x2="1109" y2="327" />
<line x1="1147" y1="0" x2="1147" y2="350" />
<line x1="1185" y1="0" x2="1185" y2="373" />
<line x1="1223" y1="0" x2="1223" y2="396" />
<line x1="1261" y1="0" x2="1261" y2="419" />
<line x1="1300" y1="0" x2="1300" y2="442" />
<line x1="1338" y1="0" x2="1338" y2="465" />
<line x1="1376" y1="0" x2="1376" y2="492" />
<line x1="1414" y1="0" x2="1414" y2="519" />
<line x1="1453" y1="0" x2="1453" y2="546" />
<line x1="1491" y1="0" x2="1491" y2="573" />
<line x1="1529" y1="0" x2="1529" y2="600" />
<line x1="1567" y1="0" x2="1567" y2="627" />
<line x1="1605" y1="0" x2="1605" y2="658" />
<line x1="1644" y1="0" x2="1644" y2="689" />
<line x1="1682" y1="0" x2="1682" y2="720" />
<line x1="1720" y1="0" x2="1720" y2="751" />
<line x1="1758" y1="0" x2="1758" y2="782" />
<line x1="1797" y1="0" x2="1797" y2="813" />
<line x1="1835" y1="0" x2="1835" y2="848" />
<line x1="1873" y1="0" x2="1873" y2="883" />
<line x1="1911" y1="0" x2="1911" y2="918" />
<line x1="1950" y1="0" x2="1950" y2="953" />
<line x1="1988" y1="0" x2="1988" y2="988" />
<line x1="2026" y1="0" x2="2026" y2="1023" />
<line x1="2064" y1="0" x2="2064" y2="1062" />
<line x1="2102" y1="0" x2="2102" y2="1101" />
<line x1="2141" y1="0" x2="2141" y2="1140" />
<line x1="2179" y1="0" x2="2179" y2="1179" />
<line x1="2217" y1="0" x2="2217" y2="1218" />
<line x1="2255" y1="0" x2="2255" y2="1257" />
<line x1="2294" y1="0" x2="2294" y2="1300" />
<line x1="2332" y1="0" x2="2332" y2="1343" />
<line x1="2370" y1="0" x2="2370" y2="1386" />
<line x1="2408" y1="0" x2="2408" y2="1429" />
<line x1="2446" y1="0" x2="2446" y2="1472" />
<line x1="2485" y1="0" x2="2485" y2="1515" />
</g>
</svg>