<svg xmlns="http://www.w3.org/2000/svg" width="161.8" height="100.0" viewBox="-85.902 -55.000 171.803 110.000">
<g fill="none" stroke="black" stroke-width="0.0100%" transform="translate(0, 0.0000) scale(50.0000, -50.0000)">
<circle cx="-1.618" cy="0.000" r="0.010" />
<circle cx="0.000" cy="1.000" r="0.010" />
<polyline points="-1.618,1.000 -1.586,1.000 -1.553,1.000 -1.521,1.000 -1.489,1.000 -1.456,1.000 -1.424,1.000 -1.392,1.000 -1.359,1.000 -1.327,-1.000 -1.294,-1.000 -1.262,-1.000 -1.230,-1.000 -1.197,-1.000 -1.165,-1.000 -1.133,-1.000 -1.100,-1.000 -1.068,1.000 -1.036,1.000 -1.003,1.000 -0.971,1.000 -0.938,1.000 -0.906,1.000 -0.874,1.000 -0.841,1.000 -0.809,-1.000 -0.777,-1.000 -0.744,-1.000 -0.712,-1.000 -0.680,-1.000 -0.647,-1.000 -0.615,-1.000 -0.582,-1.000 -0.550,-1.000 -0.518,1.000 -0.485,1.000 -0.453,1.000 -0.421,1.000 -0.388,1.000 -0.356,1.000 -0.324,1.000 -0.291,1.000 -0.259,-1.000 -0.227,-1.000 -0.194,-1.000 -0.162,-1.000 -0.129,-1.000 -0.097,-1.000 -0.065,-1.000 -0.032,-1.000 0.000,1.000 0.032,1.000 0.065,1.000 0.097,1.000 0.129,1.000 0.162,1.000 0.194,1.000 0.227,1.000 0.259,1.000 0.291,-1.000 0.324,-1.000 0.356,-1.000 0.388,-1.000 0.421,-1.000 0.453,-1.000 0.485,-1.000 0.518,-1.000 0.550,1.000 0.582,1.000 0.615,1.000 0.647,1.000 0.680,1.000 0.712,1.000 0.744,1.000 0.777,1.000 0.809,-1.000 0.841,-1.000 0.874,-1.000 0.906,-1.000 0.938,-1.000 0.971,-1.000 1.003,-1.000 1.036,-1.000 1.068,-1.000 1.100,1.000 1.133,1.000 1.165,1.000 1.197,1.000 1.230,1.000 1.262,1.000 1.294,1.000 1.327,1.000 1.359,-1.000 1.392,-1.000 1.424,-1.000 1.456,-1.000 1.489,-1.000 1.521,-1.000 1.553,-1.000 1.586,-1.000 1.618,1.000" />
</g>
</svg>