<svg xmlns="http://www.w3.org/2000/svg" width="161.7" height="100.0" viewBox="-2 -5 172 110">
<g fill="none" stroke="black" stroke-width="84.5100%" transform="translate(0, 100.0000) scale(0.0059, -0.0059)">
<line x1="427" y1="0" x2="427" y2="6" />
<line x1="854" y1="0" x2="854" y2="18" />
<line x1="1281" y1="0" x2="1281" y2="38" />
<line x1="1709" y1="0" x2="1709" y2="66" />
<line x1="2136" y1="0" x2="2136" y2="102" />
<line x1="2563" y1="0" x2="2563" y2="146" />
<line x1="2990" y1="0" x2="2990" y2="198" />
<line x1="3417" y1="0" x2="3417" y2="258" />
<line x1="3844" y1="0" x2="3844" y2="326" />
<line x1="4272" y1="0" x2="4272" y2="402" />
<line x1="4699" y1="0" x2="4699" y2="486" />
<line x1="5126" y1="0" x2="5126" y2="578" />
<line x1="5553" y1="0" x2="5553" y2="678" />
<line x1="5980" y1="0" x2="5980" y2="786" />
<line x1="6407" y1="0" x2="6407" y2="902" />
<line x1="6835" y1="0" x2="6835" y2="1026" />
<line x1="7262" y1="0" x2="7262" y2="1158" />
<line x1="7689" y1="0" x2="7689" y2="1298" />
<line x1="8116" y1="0" x2="8116" y2="1446" />
<line x1="8543" y1="0" x2="8543" y2="1602" />
<line x1="8970" y1="0" x2="8970" y2="1766" />
<line x1="9398" y1="0" x2="9398" y2="1938" />
<line x1="9825" y1="0" x2="9825" y2="2118" />
<line x1="10252" y1="0" x2="10252" y2="2306" />
<line x1="10679" y1="0" x2="10679" y2="2502" />
<line x1="11106" y1="0" x2="11106" y2="2706" />
<line x1="11533" y1="0" x2="11533" y2="2918" />
<line x1="11961" y1="0" x2="11961" y2="3138" />
<line x1="12388" y1="0" x2="12388" y2="3366" />
<line x1="12815" y1="0" x2="12815" y2="3602" />
<line x1="13242" y1="0" x2="13242" y2="3846" />
<line x1="13669" y1="0" x2="13669" y2="4098" />
<line x1="14096" y1="0" x2="14096" y2="4358" />
<line x1="14523" y1="0" x2="14523" y2="4626" />
<line x1="14951" y1="0" x2="14951" y2="4902" />
<line x1="15378" y1="0" x2="15378" y2="5186" />
<line x1="15805" y1="0" x2="15805" y2="5478" />
<line x1="16232" y1="0" x2="16232" y2="5778" />
<line x1="16659" y1="0" x2="16659" y2="6086" />
<line x1="17086" y1="0" x2="17086" y2="6402" />
<line x1="17514" y1="0" x2="17514" y2="6726" />
<line x1="17941" y1="0" x2="17941" y2="7058" />
<line x1="18368" y1="0" x2="18368" y2="7398" />
<line x1="18795" y1="0" x2="18795" y2="7746" />
<line x1="19222" y1="0" x2="19222" y2="8102" />
<line x1="19649" y1="0" x2="19649" y2="8466" />
<line x1="20077" y1="0" x2="20077" y2="8838" />
<line x1="20504" y1="0" x2="20504" y2="9218" />
<line x1="20931" y1="0" x2="20931" y2="9606" />
<line x1="21358" y1="0" x2="21358" y2="10002" />
<line x1="21785" y1="0" x2="21785" y2="10406" />
<line x1="22212" y1="0" x2="22212" y2="10818" />
<line x1="22640" y1="0" x2="22640" y2="11238" />
<line x1="23067" y1="0" x2="23067" y2="11666" />
<line x1="23494" y1="0" x2="23494" y2="12102" />
<line x1="23921" y1="0" x2="23921" y2="12546" />
<line x1="24348" y1="0" x2="24348" y2="12998" />
<line x1="24775" y1="0" x2="24775" y2="13458" />
<line x1="25202" y1="0" x2="25202" y2="13926" />
<line x1="25630" y1="0" x2="25630" y2="14402" />
<line x1="26057" y1="0" x2="26057" y2="14886" />
<line x1="26484" y1="0" x2="26484" y2="15378" />
<line x1="26911" y1="0" x2="26911" y2="15878" />
<line x1="27338" y1="0" x2="27338" y2="16386" />
<line x1="27765" y1="0" x2="27765" y2="16902" />
</g>
</svg>