<svg xmlns="http://www.w3.org/2000/svg" width="168" height="44" viewBox="0 0 168 44">
<rect x="0" y="40" width="4" height="4" fill="rgb(0,0,0)"/>
<rect x="4" y="32" width="4" height="4" fill="rgb(0,0,0)"/>
<rect x="8" y="28" width="4" height="4" fill="rgb(0,0,0)"/>
<rect x="8" y="40" width="4" height="4" fill="rgb(0,0,0)"/>
<rect x="12" y="24" width="4" height="4" fill="rgb(0,0,0)"/>
<rect x="16" y="24" width="4" height="4" fill="rgb(0,0,0)"/>
<rect x="16" y="28" width="4" height="4" fill="rgb(0,0,0)"/>
<rect x="16" y="40" width="4" height="4" fill="rgb(0,0,0)"/>
<rect x="20" y="20" width="4" height="4" fill="rgb(0,0,0)"/>
<rect x="20" y="32" width="4" height="4" fill="rgb(0,0,0)"/>
<rect x="24" y="20" width="4" height="4" fill="rgb(0,0,0)"/>
<rect x="24" y="24" width="4" height="4" fill="rgb(0,0,0)"/>
<rect x="24" y="40" width="4" height="4" fill="rgb(0,0,0)"/>
<rect x="28" y="16" width="4" height="4" fill="rgb(0,0,0)"/>
<rect x="32" y="16" width="4" height="4" fill="rgb(0,0,0)"/>
<rect x="32" y="24" width="4" height="4" fill="rgb(0,0,0)"/>
<rect x="32" y="40" width="4" height="4" fill="rgb(0,0,0)"/>
<rect x="36" y="16" width="4" height="4" fill="rgb(0,0,0)"/>
<rect x="36" y="20" width="4" height="4" fill="rgb(0,0,0)"/>
<rect x="36" y="32" width="4" height="4" fill="rgb(0,0,0)"/>
<rect x="40" y="16" width="4" height="4" fill="rgb(0,0,0)"/>
<rect x="40" y="20" width="4" height="4" fill="rgb(0,0,0)"/>
<rect x="40" y="24" width="4" height="4" fill="rgb(0,0,0)"/>
<rect x="40" y="28" width="4" height="4" fill="rgb(0,0,0)"/>
<rect x="40" y="40" width="4" height="4" fill="rgb(0,0,0)"/>
<rect x="44" y="12" width="4" height="4" fill="rgb(0,0,0)"/>
<rect x="44" y="24" width="4" height="4" fill="rgb(0,0,0)"/>
<rect x="48" y="12" width="4" height="4" fill="rgb(0,0,0)"/>
<rect x="48" y="20" width="4" height="4" fill="rgb(0,0,0)"/>
<rect x="48" y="28" width="4" height="4" fill="rgb(0,0,0)"/>
<rect x="48" y="40" width="4" height="4" fill="rgb(0,0,0)"/>
<rect x="52" y="12" width="4" height="4" fill="rgb(0,0,0)"/>
<rect x="52" y="16" width="4" height="4" fill="rgb(0,0,0)"/>
<rect x="52" y="32" width="4" height="4" fill="rgb(0,0,0)"/>
<rect x="56" y="12" width="4" height="4" fill="rgb(0,0,0)"/>
<rect x="56" y="16" width="4" height="4" fill="rgb(0,0,0)"/>
<rect x="56" y="20" width="4" height="4" fill="rgb(0,0,0)"/>
<rect x="56" y="40" width="4" height="4" fill="rgb(0,0,0)"/>
<rect x="60" y="8" width="4" height="4" fill="rgb(0,0,0)"/>
<rect x="64" y="8" width="4" height="4" fill="rgb(0,0,0)"/>
<rect x="64" y="20" width="4" height="4" fill="rgb(0,0,0)"/>
<rect x="64" y="40" width="4" height="4" fill="rgb(0,0,0)"/>
<rect x="68" y="8" width="4" height="4" fill="rgb(0,0,0)"/>
<rect x="68" y="16" width="4" height="4" fill="rgb(0,0,0)"/>
<rect x="68" y="32" width="4" height="4" fill="rgb(0,0,0)"/>
<rect x="72" y="8" width="4" height="4" fill="rgb(0,0,0)"/>
<rect x="72" y="16" width="4" height="4" fill="rgb(0,0,0)"/>
<rect x="72" y="20" width="4" height="4" fill="rgb(0,0,0)"/>
<rect x="72" y="28" width="4" height="4" fill="rgb(0,0,0)"/>
<rect x="72" y="40" width="4" height="4" fill="rgb(0,0,0)"/>
<rect x="76" y="8" width="4" height="4" fill="rgb(0,0,0)"/>
<rect x="76" y="12" width="4" height="4" fill="rgb(0,0,0)"/>
<rect x="76" y="24" width="4" height="4" fill="rgb(0,0,0)"/>
<rect x="80" y="8" width="4" height="4" fill="rgb(0,0,0)"/>
<rect x="80" y="12" width="4" height="4" fill="rgb(0,0,0)"/>
<rect x="80" y="20" width="4" height="4" fill="rgb(0,0,0)"/>
<rect x="80" y="24" width="4" height="4" fill="rgb(0,0,0)"/>
<rect x="80" y="28" width="4" height="4" fill="rgb(0,0,0)"/>
<rect x="80" y="40" width="4" height="4" fill="rgb(0,0,0)"/>
<rect x="84" y="8" width="4" height="4" fill="rgb(0,0,0)"/>
<rect x="84" y="12" width="4" height="4" fill="rgb(0,0,0)"/>
<rect x="84" y="16" width="4" height="4" fill="rgb(0,0,0)"/>
<rect x="84" y="20" width="4" height="4" fill="rgb(0,0,0)"/>
<rect x="84" y="32" width="4" height="4" fill="rgb(0,0,0)"/>
<rect x="88" y="4" width="4" height="4" fill="rgb(0,0,0)"/>
<rect x="88" y="24" width="4" height="4" fill="rgb(0,0,0)"/>
<rect x="88" y="40" width="4" height="4" fill="rgb(0,0,0)"/>
<rect x="92" y="4" width="4" height="4" fill="rgb(0,0,0)"/>
<rect x="92" y="16" width="4" height="4" fill="rgb(0,0,0)"/>
<rect x="96" y="4" width="4" height="4" fill="rgb(0,0,0)"/>
<rect x="96" y="16" width="4" height="4" fill="rgb(0,0,0)"/>
<rect x="96" y="20" width="4" height="4" fill="rgb(0,0,0)"/>
<rect x="96" y="24" width="4" height="4" fill="rgb(0,0,0)"/>
<rect x="96" y="40" width="4" height="4" fill="rgb(0,0,0)"/>
<rect x="100" y="4" width="4" height="4" fill="rgb(0,0,0)"/>
<rect x="100" y="12" width="4" height="4" fill="rgb(0,0,0)"/>
<rect x="100" y="20" width="4" height="4" fill="rgb(0,0,0)"/>
<rect x="100" y="32" width="4" height="4" fill="rgb(0,0,0)"/>
<rect x="104" y="4" width="4" height="4" fill="rgb(0,0,0)"/>
<rect x="104" y="12" width="4" height="4" fill="rgb(0,0,0)"/>
<rect x="104" y="16" width="4" height="4" fill="rgb(0,0,0)"/>
<rect x="104" y="24" width="4" height="4" fill="rgb(0,0,0)"/>
<rect x="104" y="28" width="4" height="4" fill="rgb(0,0,0)"/>
<rect x="104" y="40" width="4" height="4" fill="rgb(0,0,0)"/>
<rect x="108" y="4" width="4" height="4" fill="rgb(0,0,0)"/>
<rect x="108" y="8" width="4" height="4" fill="rgb(0,0,0)"/>
<rect x="108" y="24" width="4" height="4" fill="rgb(0,0,0)"/>
<rect x="112" y="4" width="4" height="4" fill="rgb(0,0,0)"/>
<rect x="112" y="8" width="4" height="4" fill="rgb(0,0,0)"/>
<rect x="112" y="16" width="4" height="4" fill="rgb(0,0,0)"/>
<rect x="112" y="28" width="4" height="4" fill="rgb(0,0,0)"/>
<rect x="112" y="40" width="4" height="4" fill="rgb(0,0,0)"/>
<rect x="116" y="4" width="4" height="4" fill="rgb(0,0,0)"/>
<rect x="116" y="8" width="4" height="4" fill="rgb(0,0,0)"/>
<rect x="116" y="12" width="4" height="4" fill="rgb(0,0,0)"/>
<rect x="116" y="32" width="4" height="4" fill="rgb(0,0,0)"/>
<rect x="120" y="4" width="4" height="4" fill="rgb(0,0,0)"/>
<rect x="120" y="8" width="4" height="4" fill="rgb(0,0,0)"/>
<rect x="120" y="12" width="4" height="4" fill="rgb(0,0,0)"/>
<rect x="120" y="16" width="4" height="4" fill="rgb(0,0,0)"/>
<rect x="120" y="40" width="4" height="4" fill="rgb(0,0,0)"/>
<rect x="124" y="0" width="4" height="4" fill="rgb(0,0,0)"/>
<rect x="128" y="0" width="4" height="4" fill="rgb(0,0,0)"/>
<rect x="128" y="16" width="4" height="4" fill="rgb(0,0,0)"/>
<rect x="128" y="40" width="4" height="4" fill="rgb(0,0,0)"/>
<rect x="132" y="0" width="4" height="4" fill="rgb(0,0,0)"/>
<rect x="132" y="12" width="4" height="4" fill="rgb(0,0,0)"/>
<rect x="132" y="32" width="4" height="4" fill="rgb(0,0,0)"/>
<rect x="136" y="0" width="4" height="4" fill="rgb(0,0,0)"/>
<rect x="136" y="12" width="4" height="4" fill="rgb(0,0,0)"/>
<rect x="136" y="16" width="4" height="4" fill="rgb(0,0,0)"/>
<rect x="136" y="28" width="4" height="4" fill="rgb(0,0,0)"/>
<rect x="136" y="40" width="4" height="4" fill="rgb(0,0,0)"/>
<rect x="140" y="0" width="4" height="4" fill="rgb(0,0,0)"/>
<rect x="140" y="8" width="4" height="4" fill="rgb(0,0,0)"/>
<rect x="140" y="24" width="4" height="4" fill="rgb(0,0,0)"/>
<rect x="144" y="0" width="4" height="4" fill="rgb(0,0,0)"/>
<rect x="144" y="8" width="4" height="4" fill="rgb(0,0,0)"/>
<rect x="144" y="16" width="4" height="4" fill="rgb(0,0,0)"/>
<rect x="144" y="24" width="4" height="4" fill="rgb(0,0,0)"/>
<rect x="144" y="28" width="4" height="4" fill="rgb(0,0,0)"/>
<rect x="144" y="40" width="4" height="4" fill="rgb(0,0,0)"/>
<rect x="148" y="0" width="4" height="4" fill="rgb(0,0,0)"/>
<rect x="148" y="8" width="4" height="4" fill="rgb(0,0,0)"/>
<rect x="148" y="12" width="4" height="4" fill="rgb(0,0,0)"/>
<rect x="148" y="20" width="4" height="4" fill="rgb(0,0,0)"/>
<rect x="148" y="32" width="4" height="4" fill="rgb(0,0,0)"/>
<rect x="152" y="0" width="4" height="4" fill="rgb(0,0,0)"/>
<rect x="152" y="8" width="4" height="4" fill="rgb(0,0,0)"/>
<rect x="152" y="12" width="4" height="4" fill="rgb(0,0,0)"/>
<rect x="152" y="16" width="4" height="4" fill="rgb(0,0,0)"/>
<rect x="152" y="20" width="4" height="4" fill="rgb(0,0,0)"/>
<rect x="152" y="24" width="4" height="4" fill="rgb(0,0,0)"/>
<rect x="152" y="40" width="4" height="4" fill="rgb(0,0,0)"/>
<rect x="156" y="0" width="4" height="4" fill="rgb(0,0,0)"/>
<rect x="156" y="4" width="4" height="4" fill="rgb(0,0,0)"/>
<rect x="156" y="16" width="4" height="4" fill="rgb(0,0,0)"/>
<rect x="160" y="0" width="4" height="4" fill="rgb(0,0,0)"/>
<rect x="160" y="4" width="4" height="4" fill="rgb(0,0,0)"/>
<rect x="160" y="12" width="4" height="4" fill="rgb(0,0,0)"/>
<rect x="160" y="24" width="4" height="4" fill="rgb(0,0,0)"/>
<rect x="160" y="40" width="4" height="4" fill="rgb(0,0,0)"/>
<rect x="164" y="0" width="4" height="4" fill="rgb(0,0,0)"/>
<rect x="164" y="4" width="4" height="4" fill="rgb(0,0,0)"/>
<rect x="164" y="12" width="4" height="4" fill="rgb(0,0,0)"/>
<rect x="164" y="16" width="4" height="4" fill="rgb(0,0,0)"/>
<rect x="164" y="20" width="4" height="4" fill="rgb(0,0,0)"/>
<rect x="164" y="32" width="4" height="4" fill="rgb(0,0,0)"/>
</svg>