<svg xmlns="http://www.w3.org/2000/svg" width="161.8" height="100.0" viewBox="-3.37 -5.00 171.80 110.00">
<g fill="none" stroke="black" stroke-width="0.0800%" transform="translate(0, 100.0000) scale(6.2500, -6.2500)">
<circle cx="0.26" cy="0.00" r="0.08" />
<line x1="0.26" y1="0.00" x2="0.26" y2="4.00" />
<line x1="0.52" y1="0.00" x2="0.52" y2="4.00" />
<line x1="0.78" y1="0.00" x2="0.78" y2="0.00" />
<line x1="1.05" y1="0.00" x2="1.05" y2="4.00" />
<line x1="1.31" y1="0.00" x2="1.31" y2="8.00" />
<line x1="1.57" y1="0.00" x2="1.57" y2="0.00" />
<line x1="1.83" y1="0.00" x2="1.83" y2="0.00" />
<line x1="2.09" y1="0.00" x2="2.09" y2="4.00" />
<line x1="2.35" y1="0.00" x2="2.35" y2="4.00" />
<line x1="2.62" y1="0.00" x2="2.62" y2="8.00" />
<line x1="2.88" y1="0.00" x2="2.88" y2="0.00" />
<line x1="3.14" y1="0.00" x2="3.14" y2="0.00" />
<line x1="3.40" y1="0.00" x2="3.40" y2="8.00" />
<line x1="3.66" y1="0.00" x2="3.66" y2="0.00" />
<line x1="3.92" y1="0.00" x2="3.92" y2="0.00" />
<line x1="4.18" y1="0.00" x2="4.18" y2="4.00" />
<line x1="4.45" y1="0.00" x2="4.45" y2="8.00" />
<line x1="4.71" y1="0.00" x2="4.71" y2="4.00" />
<line x1="4.97" y1="0.00" x2="4.97" y2="0.00" />
<line x1="5.23" y1="0.00" x2="5.23" y2="8.00" />
<line x1="5.49" y1="0.00" x2="5.49" y2="0.00" />
<line x1="5.75" y1="0.00" x2="5.75" y2="0.00" />
<line x1="6.01" y1="0.00" x2="6.01" y2="0.00" />
<line x1="6.28" y1="0.00" x2="6.28" y2="0.00" />
<line x1="6.54" y1="0.00" x2="6.54" y2="12.00" />
<line x1="6.80" y1="0.00" x2="6.80" y2="8.00" />
<line x1="7.06" y1="0.00" x2="7.06" y2="0.00" />
<line x1="7.32" y1="0.00" x2="7.32" y2="0.00" />
<line x1="7.58" y1="0.00" x2="7.58" y2="8.00" />
<line x1="7.85" y1="0.00" x2="7.85" y2="0.00" />
<line x1="8.11" y1="0.00" x2="8.11" y2="0.00" />
<line x1="8.37" y1="0.00" x2="8.37" y2="4.00" />
<line x1="8.63" y1="0.00" x2="8.63" y2="0.00" />
<line x1="8.89" y1="0.00" x2="8.89" y2="8.00" />
<line x1="9.15" y1="0.00" x2="9.15" y2="0.00" />
<line x1="9.41" y1="0.00" x2="9.41" y2="4.00" />
<line x1="9.68" y1="0.00" x2="9.68" y2="8.00" />
<line x1="9.94" y1="0.00" x2="9.94" y2="0.00" />
<line x1="10.20" y1="0.00" x2="10.20" y2="0.00" />
<line x1="10.46" y1="0.00" x2="10.46" y2="8.00" />
<line x1="10.72" y1="0.00" x2="10.72" y2="8.00" />
<line x1="10.98" y1="0.00" x2="10.98" y2="0.00" />
<line x1="11.24" y1="0.00" x2="11.24" y2="0.00" />
<line x1="11.51" y1="0.00" x2="11.51" y2="0.00" />
<line x1="11.77" y1="0.00" x2="11.77" y2="8.00" />
<line x1="12.03" y1="0.00" x2="12.03" y2="0.00" />
<line x1="12.29" y1="0.00" x2="12.29" y2="0.00" />
<line x1="12.55" y1="0.00" x2="12.55" y2="0.00" />
<line x1="12.81" y1="0.00" x2="12.81" y2="4.00" />
<line x1="13.08" y1="0.00" x2="13.08" y2="12.00" />
<line x1="13.34" y1="0.00" x2="13.34" y2="0.00" />
<line x1="13.60" y1="0.00" x2="13.60" y2="8.00" />
<line x1="13.86" y1="0.00" x2="13.86" y2="8.00" />
<line x1="14.12" y1="0.00" x2="14.12" y2="0.00" />
<line x1="14.38" y1="0.00" x2="14.38" y2="0.00" />
<line x1="14.64" y1="0.00" x2="14.64" y2="0.00" />
<line x1="14.91" y1="0.00" x2="14.91" y2="0.00" />
<line x1="15.17" y1="0.00" x2="15.17" y2="8.00" />
<line x1="15.43" y1="0.00" x2="15.43" y2="0.00" />
<line x1="15.69" y1="0.00" x2="15.69" y2="0.00" />
<line x1="15.95" y1="0.00" x2="15.95" y2="8.00" />
<line x1="16.21" y1="0.00" x2="16.21" y2="0.00" />
<line x1="16.47" y1="0.00" x2="16.47" y2="0.00" />
<line x1="16.74" y1="0.00" x2="16.74" y2="4.00" />
<line x1="17.00" y1="0.00" x2="17.00" y2="16.00" />
<line x1="17.26" y1="0.00" x2="17.26" y2="0.00" />
<line x1="17.52" y1="0.00" x2="17.52" y2="0.00" />
<line x1="17.78" y1="0.00" x2="17.78" y2="8.00" />
<line x1="18.04" y1="0.00" x2="18.04" y2="0.00" />
<line x1="18.31" y1="0.00" x2="18.31" y2="0.00" />
<line x1="18.57" y1="0.00" x2="18.57" y2="0.00" />
<line x1="18.83" y1="0.00" x2="18.83" y2="4.00" />
<line x1="19.09" y1="0.00" x2="19.09" y2="8.00" />
<line x1="19.35" y1="0.00" x2="19.35" y2="8.00" />
<line x1="19.61" y1="0.00" x2="19.61" y2="0.00" />
<line x1="19.87" y1="0.00" x2="19.87" y2="0.00" />
<line x1="20.14" y1="0.00" x2="20.14" y2="0.00" />
<line x1="20.40" y1="0.00" x2="20.40" y2="0.00" />
<line x1="20.66" y1="0.00" x2="20.66" y2="0.00" />
<line x1="20.92" y1="0.00" x2="20.92" y2="8.00" />
<line x1="21.18" y1="0.00" x2="21.18" y2="4.00" />
<line x1="21.44" y1="0.00" x2="21.44" y2="8.00" />
<line x1="21.70" y1="0.00" x2="21.70" y2="0.00" />
<line x1="21.97" y1="0.00" x2="21.97" y2="0.00" />
<line x1="22.23" y1="0.00" x2="22.23" y2="16.00" />
<line x1="22.49" y1="0.00" x2="22.49" y2="0.00" />
<line x1="22.75" y1="0.00" x2="22.75" y2="0.00" />
<line x1="23.01" y1="0.00" x2="23.01" y2="0.00" />
<line x1="23.27" y1="0.00" x2="23.27" y2="8.00" />
<line x1="23.54" y1="0.00" x2="23.54" y2="8.00" />
<line x1="23.80" y1="0.00" x2="23.80" y2="0.00" />
<line x1="24.06" y1="0.00" x2="24.06" y2="0.00" />
<line x1="24.32" y1="0.00" x2="24.32" y2="0.00" />
<line x1="24.58" y1="0.00" x2="24.58" y2="0.00" />
<line x1="24.84" y1="0.00" x2="24.84" y2="0.00" />
<line x1="25.10" y1="0.00" x2="25.10" y2="0.00" />
<line x1="25.37" y1="0.00" x2="25.37" y2="8.00" />
<line x1="25.63" y1="0.00" x2="25.63" y2="4.00" />
<line x1="25.89" y1="0.00" x2="25.89" y2="0.00" />
<line x1="26.15" y1="0.00" x2="26.15" y2="12.00" />
</g>
</svg>