<svg xmlns="http://www.w3.org/2000/svg" width="161.8" height="100.0" viewBox="-92 -5 172 110">
<g fill="none" stroke="black" stroke-width="2.1650%" transform="translate(0, 100.0000) scale(0.2309, -0.2309)">
<circle cx="-375" cy="0" r="2" />
<circle cx="0" cy="433" r="2" />
<line x1="-375" y1="0" x2="-375" y2="1" />
<line x1="-365" y1="0" x2="-365" y2="0" />
<line x1="-355" y1="0" x2="-355" y2="1" />
<line x1="-345" y1="0" x2="-345" y2="1" />
<line x1="-336" y1="0" x2="-336" y2="0" />
<line x1="-326" y1="0" x2="-326" y2="1" />
<line x1="-316" y1="0" x2="-316" y2="0" />
<line x1="-307" y1="0" x2="-307" y2="4" />
<line x1="-297" y1="0" x2="-297" y2="3" />
<line x1="-287" y1="0" x2="-287" y2="3" />
<line x1="-277" y1="0" x2="-277" y2="6" />
<line x1="-268" y1="0" x2="-268" y2="4" />
<line x1="-258" y1="0" x2="-258" y2="7" />
<line x1="-248" y1="0" x2="-248" y2="12" />
<line x1="-238" y1="0" x2="-238" y2="15" />
<line x1="-229" y1="0" x2="-229" y2="20" />
<line x1="-219" y1="0" x2="-219" y2="26" />
<line x1="-209" y1="0" x2="-209" y2="25" />
<line x1="-199" y1="0" x2="-199" y2="49" />
<line x1="-190" y1="0" x2="-190" y2="55" />
<line x1="-180" y1="0" x2="-180" y2="63" />
<line x1="-170" y1="0" x2="-170" y2="81" />
<line x1="-161" y1="0" x2="-161" y2="82" />
<line x1="-151" y1="0" x2="-151" y2="121" />
<line x1="-141" y1="0" x2="-141" y2="125" />
<line x1="-131" y1="0" x2="-131" y2="152" />
<line x1="-122" y1="0" x2="-122" y2="176" />
<line x1="-112" y1="0" x2="-112" y2="200" />
<line x1="-102" y1="0" x2="-102" y2="248" />
<line x1="-92" y1="0" x2="-92" y2="277" />
<line x1="-83" y1="0" x2="-83" y2="304" />
<line x1="-73" y1="0" x2="-73" y2="355" />
<line x1="-63" y1="0" x2="-63" y2="292" />
<line x1="-54" y1="0" x2="-54" y2="331" />
<line x1="-44" y1="0" x2="-44" y2="371" />
<line x1="-34" y1="0" x2="-34" y2="416" />
<line x1="-24" y1="0" x2="-24" y2="389" />
<line x1="-15" y1="0" x2="-15" y2="409" />
<line x1="-5" y1="0" x2="-5" y2="409" />
<line x1="5" y1="0" x2="5" y2="430" />
<line x1="15" y1="0" x2="15" y2="426" />
<line x1="24" y1="0" x2="24" y2="433" />
<line x1="34" y1="0" x2="34" y2="349" />
<line x1="44" y1="0" x2="44" y2="367" />
<line x1="54" y1="0" x2="54" y2="333" />
<line x1="63" y1="0" x2="63" y2="340" />
<line x1="73" y1="0" x2="73" y2="330" />
<line x1="83" y1="0" x2="83" y2="295" />
<line x1="92" y1="0" x2="92" y2="264" />
<line x1="102" y1="0" x2="102" y2="251" />
<line x1="112" y1="0" x2="112" y2="179" />
<line x1="122" y1="0" x2="122" y2="176" />
<line x1="131" y1="0" x2="131" y2="155" />
<line x1="141" y1="0" x2="141" y2="131" />
<line x1="151" y1="0" x2="151" y2="108" />
<line x1="161" y1="0" x2="161" y2="77" />
<line x1="170" y1="0" x2="170" y2="66" />
<line x1="180" y1="0" x2="180" y2="56" />
<line x1="190" y1="0" x2="190" y2="42" />
<line x1="199" y1="0" x2="199" y2="33" />
<line x1="209" y1="0" x2="209" y2="42" />
<line x1="219" y1="0" x2="219" y2="23" />
<line x1="229" y1="0" x2="229" y2="17" />
<line x1="238" y1="0" x2="238" y2="12" />
<line x1="248" y1="0" x2="248" y2="5" />
<line x1="258" y1="0" x2="258" y2="9" />
<line x1="268" y1="0" x2="268" y2="8" />
<line x1="277" y1="0" x2="277" y2="3" />
<line x1="287" y1="0" x2="287" y2="3" />
<line x1="297" y1="0" x2="297" y2="2" />
<line x1="307" y1="0" x2="307" y2="0" />
<line x1="316" y1="0" x2="316" y2="0" />
<line x1="326" y1="0" x2="326" y2="1" />
</g>
</svg>