<svg xmlns="http://www.w3.org/2000/svg" width="159.0" height="100.0" viewBox="-4 -5 169 110">
<g fill="none" stroke="black" stroke-width="2.3150%" transform="translate(0, 100.0000) scale(0.2160, -0.2160)">
<line x1="4" y1="0" x2="4" y2="20" />
<line x1="11" y1="0" x2="11" y2="245" />
<line x1="19" y1="0" x2="19" y2="448" />
<line x1="26" y1="0" x2="26" y2="463" />
<line x1="33" y1="0" x2="33" y2="433" />
<line x1="41" y1="0" x2="41" y2="402" />
<line x1="48" y1="0" x2="48" y2="368" />
<line x1="56" y1="0" x2="56" y2="315" />
<line x1="63" y1="0" x2="63" y2="287" />
<line x1="71" y1="0" x2="71" y2="267" />
<line x1="78" y1="0" x2="78" y2="260" />
<line x1="86" y1="0" x2="86" y2="205" />
<line x1="93" y1="0" x2="93" y2="182" />
<line x1="100" y1="0" x2="100" y2="178" />
<line x1="108" y1="0" x2="108" y2="167" />
<line x1="115" y1="0" x2="115" y2="147" />
<line x1="123" y1="0" x2="123" y2="136" />
<line x1="130" y1="0" x2="130" y2="123" />
<line x1="138" y1="0" x2="138" y2="109" />
<line x1="145" y1="0" x2="145" y2="111" />
<line x1="152" y1="0" x2="152" y2="98" />
<line x1="160" y1="0" x2="160" y2="91" />
<line x1="167" y1="0" x2="167" y2="109" />
<line x1="175" y1="0" x2="175" y2="97" />
<line x1="182" y1="0" x2="182" y2="76" />
<line x1="190" y1="0" x2="190" y2="64" />
<line x1="197" y1="0" x2="197" y2="82" />
<line x1="205" y1="0" x2="205" y2="57" />
<line x1="212" y1="0" x2="212" y2="72" />
<line x1="219" y1="0" x2="219" y2="76" />
<line x1="227" y1="0" x2="227" y2="78" />
<line x1="234" y1="0" x2="234" y2="71" />
<line x1="242" y1="0" x2="242" y2="59" />
<line x1="249" y1="0" x2="249" y2="52" />
<line x1="257" y1="0" x2="257" y2="67" />
<line x1="264" y1="0" x2="264" y2="56" />
<line x1="271" y1="0" x2="271" y2="53" />
<line x1="279" y1="0" x2="279" y2="57" />
<line x1="286" y1="0" x2="286" y2="47" />
<line x1="294" y1="0" x2="294" y2="41" />
<line x1="301" y1="0" x2="301" y2="48" />
<line x1="309" y1="0" x2="309" y2="40" />
<line x1="316" y1="0" x2="316" y2="34" />
<line x1="323" y1="0" x2="323" y2="41" />
<line x1="331" y1="0" x2="331" y2="39" />
<line x1="338" y1="0" x2="338" y2="39" />
<line x1="346" y1="0" x2="346" y2="37" />
<line x1="353" y1="0" x2="353" y2="38" />
<line x1="361" y1="0" x2="361" y2="30" />
<line x1="368" y1="0" x2="368" y2="32" />
<line x1="376" y1="0" x2="376" y2="35" />
<line x1="383" y1="0" x2="383" y2="35" />
<line x1="390" y1="0" x2="390" y2="17" />
<line x1="398" y1="0" x2="398" y2="27" />
<line x1="405" y1="0" x2="405" y2="34" />
<line x1="413" y1="0" x2="413" y2="31" />
<line x1="420" y1="0" x2="420" y2="30" />
<line x1="428" y1="0" x2="428" y2="23" />
<line x1="435" y1="0" x2="435" y2="25" />
<line x1="442" y1="0" x2="442" y2="23" />
<line x1="450" y1="0" x2="450" y2="20" />
<line x1="457" y1="0" x2="457" y2="21" />
<line x1="465" y1="0" x2="465" y2="27" />
<line x1="472" y1="0" x2="472" y2="20" />
<line x1="480" y1="0" x2="480" y2="30" />
<line x1="487" y1="0" x2="487" y2="12" />
<line x1="495" y1="0" x2="495" y2="24" />
<line x1="502" y1="0" x2="502" y2="19" />
<line x1="509" y1="0" x2="509" y2="22" />
<line x1="517" y1="0" x2="517" y2="23" />
<line x1="524" y1="0" x2="524" y2="21" />
<line x1="532" y1="0" x2="532" y2="23" />
<line x1="539" y1="0" x2="539" y2="23" />
<line x1="547" y1="0" x2="547" y2="11" />
<line x1="554" y1="0" x2="554" y2="12" />
<line x1="561" y1="0" x2="561" y2="16" />
<line x1="569" y1="0" x2="569" y2="19" />
<line x1="576" y1="0" x2="576" y2="14" />
<line x1="584" y1="0" x2="584" y2="21" />
<line x1="591" y1="0" x2="591" y2="13" />
<line x1="599" y1="0" x2="599" y2="18" />
<line x1="606" y1="0" x2="606" y2="19" />
<line x1="614" y1="0" x2="614" y2="21" />
<line x1="621" y1="0" x2="621" y2="22" />
<line x1="628" y1="0" x2="628" y2="22" />
<line x1="636" y1="0" x2="636" y2="14" />
<line x1="643" y1="0" x2="643" y2="18" />
<line x1="651" y1="0" x2="651" y2="18" />
<line x1="658" y1="0" x2="658" y2="9" />
<line x1="666" y1="0" x2="666" y2="8" />
<line x1="673" y1="0" x2="673" y2="16" />
<line x1="680" y1="0" x2="680" y2="16" />
<line x1="688" y1="0" x2="688" y2="12" />
<line x1="695" y1="0" x2="695" y2="14" />
<line x1="703" y1="0" x2="703" y2="11" />
<line x1="710" y1="0" x2="710" y2="12" />
<line x1="718" y1="0" x2="718" y2="10" />
<line x1="725" y1="0" x2="725" y2="12" />
<line x1="732" y1="0" x2="732" y2="8" />
<line x1="740" y1="0" x2="740" y2="11" />
</g>
</svg>