<svg xmlns="http://www.w3.org/2000/svg" width="38.1" height="100.0" viewBox="-42 -104 48 110">
<g fill="none" stroke="black" stroke-width="2.8975%" transform="translate(0, -98.6663) scale(0.1726, -0.1726)">
<polyline points="0,0 -1,-0 -4,0 -4,-0 -6,-2 -6,-2 -7,-1 -7,-1 -7,-0 -25,-5 -25,-5 -25,-6 -22,-5 -22,-5 -19,-3 -22,-4 -22,-3 -22,-3 -29,-6 -26,-4 -26,-4 -28,-5 -28,-5 -31,-4 -31,-3 -30,-3 -30,-3 -35,-0 -35,-0 -33,2 -32,3 -32,3 -32,3 -33,3 -33,2 -55,2 -56,4 -57,3 -57,3 -57,3 -57,3 -56,3 -56,2 -56,2 -55,2 -55,2 -56,3 -55,2 -55,2 -55,2 -71,-3 -71,-3 -71,-3 -70,-5 -70,-5 -70,-6 -70,-6 -68,-5 -64,-11 -63,-10 -66,-11 -65,-10 -65,-11 -66,-11 -67,-12 -68,-12 -69,-13 -69,-13 -68,-13 -69,-9 -68,-8 -63,-7 -63,-6 -63,-7 -65,-7 -66,-6 -61,-9 -62,-10 -64,-14 -64,-14 -64,-15 -66,-13 -66,-13 -20,-241 -21,-248 -21,-248 -23,-253 -23,-254 -26,-261 -27,-261 -28,-262 -28,-262 -28,-263 -21,-274 -25,-271 -25,-271 -33,-265 -33,-263 -34,-257 -35,-256 -35,-256 -34,-257 -35,-258 -35,-260 -35,-261 -35,-260 -35,-260 -33,-258 -29,-250 -28,-252 -28,-252 -39,-247 -37,-246 -33,-245 -33,-245 -33,-244 -36,-260 -35,-262 -35,-262 -31,-270 -31,-268 -31,-268 -31,-268 -38,-269 -37,-270 -37,-268 -39,-268 -38,-268 -37,-268 -37,-269 -37,-269 -37,-269 -36,-270 -37,-270 -37,-270 -38,-270 -36,-270 -34,-276 -34,-275 -34,-275 -34,-275 -34,-274 -35,-273 -36,-273 -37,-273 -39,-276 -39,-276 -39,-276 -38,-276 -38,-276 -38,-276 -31,-274 -30,-274 -31,-275 -30,-274 -32,-279 -33,-281 -30,-280 -63,-276 -63,-277 -61,-277 -62,-279 -61,-280 -61,-280 -60,-278 -61,-278 -72,-286 -72,-286 -72,-285 -72,-286 -72,-286 -72,-286 -72,-286 -71,-285 -71,-286 -82,-286 -82,-286 -76,-287 -76,-288 -76,-288 -77,-287 -77,-287 -77,-285 -77,-285 -77,-286 -67,-294 -67,-295 -62,-292 -61,-290 -61,-290 -61,-289 -92,-327 -92,-327 -92,-326 -92,-325 -92,-325 -92,-325 -92,-322 -100,-327 -101,-327 -101,-327 -101,-327 -101,-327 -101,-326 -100,-324 -99,-325 -98,-326 -98,-323 -99,-324 -98,-323 -98,-323 -114,-318 -115,-316 -113,-318 -118,-318 -118,-318 -118,-318 -119,-318 -119,-319 -118,-319 -119,-316 -119,-316 -119,-316 -119,-316 -119,-316 -128,-330 -129,-330 -128,-331 -125,-324 -126,-338 -156,-354 -155,-354 -160,-356 -157,-356 -157,-356 -150,-359 -151,-360 -150,-360 -150,-360 -149,-360 -153,-359 -153,-359 -152,-360 -153,-360 -152,-360 -151,-363 -150,-364 -150,-364 -150,-363 -151,-362 -151,-362 -35,-480 1,-515 2,-516 2,-517 2,-517 2,-518 6,-514 6,-514 5,-510 5,-509 4,-509 5,-507 5,-505 6,-504 6,-504 6,-503 4,-502 4,-502 5,-500 6,-504 6,-504 6,-503 5,-503 2,-506 2,-506 -1,-504 -2,-504 -1,-504 -1,-506 -1,-508 -1,-509 -1,-509 -1,-510 -1,-510 -1,-510 -1,-510 -2,-510 -2,-508 -3,-508 -3,-508 -3,-508 -2,-508 -0,-508 4,-512 5,-512 5,-512 5,-512 5,-512 1,-514 -5,-509 -5,-510 -4,-510 -3,-511 -2,-507 -4,-513 -30,-492 -34,-482 -48,-505 -47,-505 -48,-504 -49,-505 -49,-503 -49,-503 -49,-504 -64,-575 -65,-576 -65,-573 -65,-573 -64,-574 -64,-574 -65,-573 -65,-574 -67,-572 -67,-572 -68,-571 -69,-569 -69,-569 -63,-569 -60,-567 -59,-566 -58,-566 -57,-567 -57,-567 -56,-569 -40,-569 -39,-569 -36,-567 -36,-567 -36,-566 -36,-567 -37,-567 -37,-567 -37,-567 -37,-567 -37,-567 -38,-567 -39,-566 -37,-566 -38,-566 -37,-566 -37,-566 -36,-566 -36,-566 -84,-512 -84,-506 -84,-506 -82,-507 -82,-509 -82,-510 -82,-510 -81,-510 -80,-510 -80,-510 -79,-510 -79,-508 -79,-508 -79,-508 -80,-509 -85,-517 -86,-517 -85,-517 -85,-517 -85,-517 -85,-517 -85,-517 -85,-517 -86,-516 -86,-516 -89,-517 -91,-518 -95,-518 -96,-518 -96,-518 -96,-518 -97,-519 -92,-522 -92,-521 -93,-527 -93,-527 -93,-527 -94,-528 -92,-527 -92,-528 -92,-527 -88,-520 -92,-520 -92,-520 -92,-520 -93,-520 -92,-521 -91,-520 -91,-520 -89,-518 -91,-520 -90,-520 -90,-521 -89,-520 -89,-520 -89,-520 -82,-523 -83,-519 -84,-519 -85,-520 -82,-517 -85,-518 -85,-520 -85,-520 -76,-524 -77,-522 -75,-524 -75,-523 -75,-523 -76,-523 -76,-523 -203,-309 -204,-309 -205,-310 -207,-310 -197,-306 -197,-307 -198,-307 -198,-307 -198,-306 -198,-306 -199,-307 -200,-308 -201,-307 -200,-308 -201,-309 -201,-309 -201,-309 -202,-309 -201,-308 -202,-308 -202,-308 -202,-307 -202,-307 -203,-308 -203,-308 -203,-307 -210,-298 -210,-298 -210,-298 -211,-298 -211,-298 -211,-298 -211,-298 -210,-297 -197,-299 -197,-299 -185,-323 -186,-327 -185,-328 -185,-333 -186,-334 -188,-333 -188,-332 -190,-331 -190,-330 -190,-331 -190,-331 -190,-331 -190,-331 -192,-330 -191,-330 -191,-330 -191,-329 -190,-330 -190,-330 -190,-329 -190,-328 -190,-328 -190,-330 -193,-333 -192,-333 -192,-333 -189,-334 -189,-334 -190,-333 -188,-331 -189,-331 -188,-331 -185,-340 -185,-341 -185,-341 -186,-340 -186,-341 -185,-341 -201,-276 -203,-274 -203,-274 -203,-274 -195,-265 -194,-265 -194,-264 -180,-268 -158,-272 -158,-271 -158,-269 -160,-267 -165,-253 -166,-254 -164,-255 -164,-256 -164,-256 -174,-263 -173,-264 -174,-260 -173,-260 -173,-260 -174,-260 -173,-259 -173,-259 -204,-179 -204,-180 -203,-180 -201,-181 -205,-184 -205,-183 -206,-184 -206,-184 -206,-184 -206,-184 -206,-184 -206,-183 -206,-184 -209,-174 -208,-175 -210,-196 -209,-196 -209,-197 -208,-200 -209,-200 -209,-199 -208,-199 -208,-199 -208,-199 -208,-199 -208,-199 -208,-199 -211,-210 -211,-210 -210,-210 -210,-209 -210,-209 -209,-209 -209,-208 -208,-208 -208,-208 -209,-208 -210,-211 -210,-210 -210,-210 -208,-210 -208,-209 -209,-209 -210,-212 -209,-211 -205,-205 -205,-206 -202,-202 -202,-202 -214,-205 -213,-205 -214,-205 -212,-200 -212,-198 -211,-199 -211,-199 -207,-200 -207,-198 -206,-198 -205,-198 -205,-198 -205,-201 -186,-207 -185,-206 -184,-206 -185,-206 -185,-207 -181,-209 -182,-210 -182,-210 -183,-210 -183,-210 -184,-210 -183,-210 -183,-210 -182,-209 -182,-209 -182,-208 -181,-213 -181,-213 -181,-217 -182,-220 -181,-219 -181,-218 -180,-219 -181,-218 -169,-213 -169,-213 -172,-213 -173,-213 -173,-213 -172,-214 -172,-214 -173,-215 -174,-215 -174,-215 -172,-212 -171,-213 -171,-213 -172,-212 -172,-213 -171,-213 -162,-213 -161,-213 -162,-213 -161,-213 -161,-213 -153,-186 -153,-186 -153,-185 -149,-187 -148,-186 -150,-190 -149,-188 -149,-185 -149,-186 -102,-180 -106,-180 -106,-180 -106,-181 -113,-178 -114,-178 -114,-179 -114,-179 -117,-179 -117,-179 -117,-179 -117,-179 -116,-179 -116,-181 -116,-181 -117,-180 -116,-179 -116,-180 -116,-181 -117,-180 -117,-181 -117,-181 -116,-179 -116,-179 -117,-179 -117,-179 -118,-178 -118,-177 -118,-178 -117,-178 -118,-178 -119,-178 -119,-179 -119,-179 -119,-179 -119,-179 -118,-180 -118,-180 -119,-175 -117,-177 -117,-178 -117,-178 -117,-178 -116,-179 -116,-178 -117,-173 -118,-173 -118,-173 -119,-173 -118,-173 -118,-171 -118,-171 -118,-171 -120,-171 -122,-171 -124,-174 -135,-173 -135,-173 -152,-92 -154,-94 -154,-93 -154,-93 -154,-94 -151,-93 -151,-93 -150,-97 -149,-97 -149,-98 -151,-95 -150,-95 -150,-94 -149,-92 -150,-97 -152,-99 -153,-98 -150,-100 -150,-100 -149,-98 -150,-99 -150,-99 -148,-100 -144,-100 -143,-98 -148,-87 -147,-88 -146,-91 -146,-91 -146,-91 -146,-90 -146,-90 -146,-90 -146,-90 -144,-90 -144,-91 -143,-89 -142,-88 -152,-94 -153,-100 -153,-100 -154,-100 -153,-103 -138,-114 -139,-114 -138,-114 -143,-110 -156,-118 -155,-117 -146,-116 -153,-120 -151,-120 -150,-120" />
</g>
</svg>