<svg xmlns="http://www.w3.org/2000/svg" width="161.8" height="100.0" viewBox="-93 -5 172 110">
<g fill="none" stroke="black" stroke-width="1.9250%" transform="translate(0, 100.0000) scale(0.2597, -0.2597)">
<line x1="-337" y1="0" x2="-337" y2="12" />
<line x1="-329" y1="0" x2="-329" y2="12" />
<line x1="-320" y1="0" x2="-320" y2="11" />
<line x1="-311" y1="0" x2="-311" y2="22" />
<line x1="-303" y1="0" x2="-303" y2="17" />
<line x1="-294" y1="0" x2="-294" y2="19" />
<line x1="-286" y1="0" x2="-286" y2="11" />
<line x1="-277" y1="0" x2="-277" y2="24" />
<line x1="-269" y1="0" x2="-269" y2="15" />
<line x1="-260" y1="0" x2="-260" y2="26" />
<line x1="-252" y1="0" x2="-252" y2="27" />
<line x1="-243" y1="0" x2="-243" y2="21" />
<line x1="-235" y1="0" x2="-235" y2="14" />
<line x1="-226" y1="0" x2="-226" y2="40" />
<line x1="-218" y1="0" x2="-218" y2="33" />
<line x1="-209" y1="0" x2="-209" y2="39" />
<line x1="-201" y1="0" x2="-201" y2="33" />
<line x1="-192" y1="0" x2="-192" y2="39" />
<line x1="-183" y1="0" x2="-183" y2="46" />
<line x1="-175" y1="0" x2="-175" y2="49" />
<line x1="-166" y1="0" x2="-166" y2="52" />
<line x1="-158" y1="0" x2="-158" y2="53" />
<line x1="-149" y1="0" x2="-149" y2="60" />
<line x1="-141" y1="0" x2="-141" y2="69" />
<line x1="-132" y1="0" x2="-132" y2="71" />
<line x1="-124" y1="0" x2="-124" y2="78" />
<line x1="-115" y1="0" x2="-115" y2="83" />
<line x1="-107" y1="0" x2="-107" y2="79" />
<line x1="-98" y1="0" x2="-98" y2="115" />
<line x1="-90" y1="0" x2="-90" y2="127" />
<line x1="-81" y1="0" x2="-81" y2="109" />
<line x1="-73" y1="0" x2="-73" y2="140" />
<line x1="-64" y1="0" x2="-64" y2="130" />
<line x1="-55" y1="0" x2="-55" y2="140" />
<line x1="-47" y1="0" x2="-47" y2="174" />
<line x1="-38" y1="0" x2="-38" y2="191" />
<line x1="-30" y1="0" x2="-30" y2="195" />
<line x1="-21" y1="0" x2="-21" y2="206" />
<line x1="-13" y1="0" x2="-13" y2="230" />
<line x1="-4" y1="0" x2="-4" y2="229" />
<line x1="4" y1="0" x2="4" y2="268" />
<line x1="13" y1="0" x2="13" y2="291" />
<line x1="21" y1="0" x2="21" y2="283" />
<line x1="30" y1="0" x2="30" y2="298" />
<line x1="38" y1="0" x2="38" y2="339" />
<line x1="47" y1="0" x2="47" y2="371" />
<line x1="55" y1="0" x2="55" y2="385" />
<line x1="64" y1="0" x2="64" y2="339" />
<line x1="73" y1="0" x2="73" y2="359" />
<line x1="81" y1="0" x2="81" y2="322" />
<line x1="90" y1="0" x2="90" y2="332" />
<line x1="98" y1="0" x2="98" y2="360" />
<line x1="107" y1="0" x2="107" y2="363" />
<line x1="115" y1="0" x2="115" y2="335" />
<line x1="124" y1="0" x2="124" y2="295" />
<line x1="132" y1="0" x2="132" y2="321" />
<line x1="141" y1="0" x2="141" y2="228" />
<line x1="149" y1="0" x2="149" y2="232" />
<line x1="158" y1="0" x2="158" y2="204" />
<line x1="166" y1="0" x2="166" y2="143" />
<line x1="175" y1="0" x2="175" y2="156" />
<line x1="183" y1="0" x2="183" y2="91" />
<line x1="192" y1="0" x2="192" y2="69" />
<line x1="201" y1="0" x2="201" y2="66" />
<line x1="209" y1="0" x2="209" y2="48" />
<line x1="218" y1="0" x2="218" y2="43" />
<line x1="226" y1="0" x2="226" y2="39" />
<line x1="235" y1="0" x2="235" y2="14" />
<line x1="243" y1="0" x2="243" y2="9" />
<line x1="252" y1="0" x2="252" y2="13" />
<line x1="260" y1="0" x2="260" y2="6" />
<line x1="269" y1="0" x2="269" y2="2" />

<line x1="286" y1="0" x2="286" y2="1" />
</g>
</svg>