<svg xmlns="http://www.w3.org/2000/svg" width="161.8" height="100.0" viewBox="12.98 -1.00 171.80 110.00">
<g fill="none" stroke="black" stroke-width="0.1250%" transform="translate(0, 108.0000) scale(4.0000, -4.0000)">
<polyline points="4.49,3.00 8.99,2.00 13.48,1.00 17.98,6.00 22.47,4.00 26.97,7.00 31.46,7.00 35.96,2.00 40.45,3.00 44.95,1.00" />
<polyline points="4.49,10.00 8.99,10.00 13.48,9.00 17.98,9.00 22.47,9.00 26.97,16.00 31.46,17.00 35.96,5.00 40.45,13.00 44.95,11.00" />
<polyline points="4.49,20.00 8.99,12.00 13.48,13.00 17.98,17.00 22.47,13.00 26.97,26.00 31.46,25.00 35.96,9.00 40.45,18.00 44.95,14.00" />
</g>
</svg>