<svg xmlns="http://www.w3.org/2000/svg" width="100.2" height="100.0" viewBox="-55.09 -55.00 110.18 110.00">
<g fill="none" stroke="black" stroke-width="0.0411%" transform="translate(0, 0.0000) scale(12.1559, -12.1559)">
<path d="M 0.20791169081775945,-0.9781476007338056 L 3.1423544930191767,-0.3544125282805276 A 1.00 1.00 0.00 0 1 2.73,1.60 L -0.20791169081775934,0.9781476007338057 A 1.00 1.00 0.00 0 1 0.21,-0.98" />
<path d="M 0.4067366430758002,-0.9135454576426009 L 3.147373016003603,0.3066644715847996 A 1.00 1.00 0.00 0 1 2.33,2.13 L -0.40673664307580004,0.913545457642601 A 1.00 1.00 0.00 0 1 0.41,-0.91" />
<path d="M 0.5877852522924731,-0.8090169943749475 L 3.0148362354173157,0.954338762502472 A 1.00 1.00 0.00 0 1 1.84,2.57 L -0.587785252292473,0.8090169943749475 A 1.00 1.00 0.00 0 1 0.59,-0.81" />
<path d="M 0.7431448254773944,-0.6691306063588581 L 2.750536644553969,1.5603038700733247 A 1.00 1.00 0.00 0 1 1.26,2.90 L -0.7431448254773944,0.669130606358858 A 1.00 1.00 0.00 0 1 0.74,-0.67" />
<path d="M 0.8660254037844386,-0.5 L 2.3660254037844393,2.098076211353316 A 1.00 1.00 0.00 0 1 0.63,3.10 L -0.8660254037844385,0.5000000000000003 A 1.00 1.00 0.00 0 1 0.87,-0.50" />
<path d="M 0.9510565162951535,-0.3090169943749474 L 1.878107499419996,2.544152554510513 A 1.00 1.00 0.00 0 1 -0.02,3.16 L -0.9510565162951535,0.3090169943749475 A 1.00 1.00 0.00 0 1 0.95,-0.31" />
<path d="M 0.9945218953682733,-0.10452846326765339 L 1.3081072851712336,2.8790372228371663 A 1.00 1.00 0.00 0 1 -0.68,3.09 L -0.9945218953682734,0.10452846326765329 A 1.00 1.00 0.00 0 1 0.99,-0.10" />
<path d="M 0.9945218953682733,0.10452846326765339 L 0.6809365055653133,3.0880941493724734 A 1.00 1.00 0.00 0 1 -1.31,2.88 L -0.9945218953682734,-0.10452846326765305 A 1.00 1.00 0.00 0 1 0.99,0.10" />
<path d="M 0.9510565162951535,0.3090169943749476 L 0.02400553317031151,3.1621865432604084 A 1.00 1.00 0.00 0 1 -1.88,2.54 L -0.9510565162951536,-0.3090169943749473 A 1.00 1.00 0.00 0 1 0.95,0.31" />
<path d="M 0.8660254037844385,0.5000000000000002 L -0.6339745962155608,3.098076211353316 A 1.00 1.00 0.00 0 1 -2.37,2.10 L -0.8660254037844386,-0.5000000000000001 A 1.00 1.00 0.00 0 1 0.87,0.50" />
<path d="M 0.7431448254773945,0.669130606358858 L -1.2642469935991794,2.898565082791041 A 1.00 1.00 0.00 0 1 -2.75,1.56 L -0.7431448254773946,-0.6691306063588579 A 1.00 1.00 0.00 0 1 0.74,0.67" />
<path d="M 0.5877852522924731,0.8090169943749475 L -1.8392657308323688,2.572372751252367 A 1.00 1.00 0.00 0 1 -3.01,0.95 L -0.5877852522924732,-0.8090169943749473 A 1.00 1.00 0.00 0 1 0.59,0.81" />
<path d="M 0.4067366430758,0.913545457642601 L -2.3338997298520026,2.1337553868700008 A 1.00 1.00 0.00 0 1 -3.15,0.31 L -0.4067366430758001,-0.913545457642601 A 1.00 1.00 0.00 0 1 0.41,0.91" />
<path d="M 0.20791169081775923,0.9781476007338057 L -2.726531111383658,1.6018826731870837 A 1.00 1.00 0.00 0 1 -3.14,-0.35 L -0.20791169081775893,-0.9781476007338057 A 1.00 1.00 0.00 0 1 0.21,0.98" />
<path d="M 5.053215498074303E-16,1 L -2.9999999999999996,1.0000000000000018 A 1.00 1.00 0.00 0 1 -3.00,-1.00 L -1.8369701987210297E-16,-1 A 1.00 1.00 0.00 0 1 0.00,1.00" />
<path d="M -0.20791169081775893,0.9781476007338057 L -3.142354493019176,0.3544125282805285 A 1.00 1.00 0.00 0 1 -2.73,-1.60 L 0.20791169081775882,-0.9781476007338058 A 1.00 1.00 0.00 0 1 -0.21,0.98" />
<path d="M -0.4067366430758001,0.913545457642601 L -3.147373016003603,-0.3066644715847997 A 1.00 1.00 0.00 0 1 -2.33,-2.13 L 0.4067366430758,-0.913545457642601 A 1.00 1.00 0.00 0 1 -0.41,0.91" />
<path d="M -0.5877852522924732,0.8090169943749473 L -3.014836235417316,-0.9543387625024718 A 1.00 1.00 0.00 0 1 -1.84,-2.57 L 0.5877852522924731,-0.8090169943749475 A 1.00 1.00 0.00 0 1 -0.59,0.81" />
<path d="M -0.7431448254773939,0.6691306063588586 L -2.7505366445539696,-1.5603038700733234 A 1.00 1.00 0.00 0 1 -1.26,-2.90 L 0.7431448254773939,-0.6691306063588587 A 1.00 1.00 0.00 0 1 -0.74,0.67" />
<path d="M -0.8660254037844384,0.5000000000000006 L -2.3660254037844397,-2.0980762113533147 A 1.00 1.00 0.00 0 1 -0.63,-3.10 L 0.8660254037844383,-0.5000000000000007 A 1.00 1.00 0.00 0 1 -0.87,0.50" />
<path d="M -0.9510565162951536,0.3090169943749473 L -1.8781074994199964,-2.544152554510513 A 1.00 1.00 0.00 0 1 0.02,-3.16 L 0.9510565162951535,-0.3090169943749476 A 1.00 1.00 0.00 0 1 -0.95,0.31" />
<path d="M -0.9945218953682733,0.10452846326765437 L -1.308107285171236,-2.8790372228371655 A 1.00 1.00 0.00 0 1 0.68,-3.09 L 0.9945218953682732,-0.1045284632676545 A 1.00 1.00 0.00 0 1 -0.99,0.10" />
<path d="M -0.9945218953682734,-0.10452846326765329 L -0.6809365055653145,-3.0880941493724734 A 1.00 1.00 0.00 0 1 1.31,-2.88 L 0.9945218953682734,0.10452846326765296 A 1.00 1.00 0.00 0 1 -0.99,-0.10" />
<path d="M -0.9510565162951535,-0.3090169943749475 L -0.024005533170311844,-3.1621865432604084 A 1.00 1.00 0.00 0 1 1.88,-2.54 L 0.9510565162951536,0.3090169943749472 A 1.00 1.00 0.00 0 1 -0.95,-0.31" />
<path d="M -0.8660254037844385,-0.5000000000000003 L 0.633974596215562,-3.0980762113533165 A 1.00 1.00 0.00 0 1 2.37,-2.10 L 0.8660254037844386,0.5 A 1.00 1.00 0.00 0 1 -0.87,-0.50" />
<path d="M -0.7431448254773938,-0.6691306063588587 L 1.2642469935991818,-2.8985650827910407 A 1.00 1.00 0.00 0 1 2.75,-1.56 L 0.743144825477394,0.6691306063588585 A 1.00 1.00 0.00 0 1 -0.74,-0.67" />
<path d="M -0.587785252292473,-0.8090169943749475 L 1.839265730832369,-2.5723727512523675 A 1.00 1.00 0.00 0 1 3.01,-0.95 L 0.5877852522924734,0.8090169943749472 A 1.00 1.00 0.00 0 1 -0.59,-0.81" />
<path d="M -0.40673664307580004,-0.913545457642601 L 2.3338997298520026,-2.1337553868700017 A 1.00 1.00 0.00 0 1 3.15,-0.31 L 0.4067366430758002,0.9135454576426009 A 1.00 1.00 0.00 0 1 -0.41,-0.91" />
<path d="M -0.2079116908177589,-0.9781476007338057 L 2.7265311113836583,-1.6018826731870828 A 1.00 1.00 0.00 0 1 3.14,0.35 L 0.20791169081775904,0.9781476007338057 A 1.00 1.00 0.00 0 1 -0.21,-0.98" />
<path d="M -1.048990684667789E-15,-1 L 2.999999999999999,-1.0000000000000033 A 1.00 1.00 0.00 0 1 3.00,1.00 L 1.1714553645825241E-15,1 A 1.00 1.00 0.00 0 1 -0.00,-1.00" />
</g>
</svg>