<svg xmlns="http://www.w3.org/2000/svg" width="97.7" height="100.0" viewBox="-52.02 -55.42 107.74 110.00">
<g fill="none" stroke="black" stroke-width="0.0601%" transform="translate(0, -0.8420) scale(8.3245, -8.3245)">
<circle cx="-1.80" cy="-1.76" r="0.06" />
<circle cx="2.42" cy="0.14" r="0.06" />
<circle cx="-1.94" cy="1.47" r="0.06" />
<circle cx="0.72" cy="-2.41" r="0.06" />
<circle cx="1.06" cy="2.14" r="0.06" />
<circle cx="-2.23" cy="-1.14" r="0.06" />
<circle cx="2.38" cy="-0.54" r="0.06" />
<circle cx="-1.41" cy="1.96" r="0.06" />
<circle cx="0.01" cy="-2.52" r="0.06" />
<circle cx="1.62" cy="1.76" r="0.06" />
<circle cx="-2.45" cy="-0.42" r="0.06" />
<circle cx="2.16" cy="-1.20" r="0.06" />
<circle cx="-0.77" cy="2.28" r="0.06" />
<circle cx="-0.72" cy="-2.42" r="0.06" />
<circle cx="0.06" cy="-5.07" r="0.06" />
<circle cx="-4.80" cy="-1.16" r="0.06" />
<circle cx="-2.06" cy="4.46" r="0.06" />
<circle cx="3.69" cy="3.41" r="0.06" />
<circle cx="4.66" cy="-2.10" r="0.06" />
<circle cx="-0.38" cy="-5.05" r="0.06" />
<circle cx="-4.88" cy="-0.71" r="0.06" />
<circle cx="-1.66" cy="4.62" r="0.06" />
<circle cx="3.96" cy="3.12" r="0.06" />
<circle cx="4.49" cy="-2.46" r="0.06" />
<circle cx="-0.81" cy="-4.99" r="0.06" />
<circle cx="-4.92" cy="-0.26" r="0.06" />
<circle cx="-1.25" cy="4.76" r="0.06" />
<circle cx="4.19" cy="2.80" r="0.06" />
<circle cx="2.85" cy="-3.44" r="0.06" />
<circle cx="-4.11" cy="-1.49" r="0.06" />
<circle cx="0.18" cy="4.32" r="0.06" />
<circle cx="4.25" cy="-1.32" r="0.06" />
<circle cx="-2.49" cy="-3.65" r="0.06" />
<circle cx="-2.31" cy="3.63" r="0.06" />
<circle cx="4.26" cy="1.18" r="0.06" />
<circle cx="0.05" cy="-4.45" r="0.06" />
<circle cx="-4.01" cy="1.60" r="0.06" />
<circle cx="2.89" cy="3.28" r="0.06" />
<circle cx="2.53" cy="-3.68" r="0.06" />
<circle cx="-4.22" cy="-1.08" r="0.06" />
<circle cx="0.58" cy="4.29" r="0.06" />
<circle cx="4.12" cy="-1.69" r="0.06" />
<circle cx="1.46" cy="2.07" r="0.06" />
<circle cx="-2.37" cy="-1.15" r="0.06" />
<circle cx="2.57" cy="-0.28" r="0.06" />
<circle cx="-1.99" cy="1.62" r="0.06" />
<circle cx="1.02" cy="-2.45" r="0.06" />
<circle cx="0.55" cy="2.47" r="0.06" />
<circle cx="-1.72" cy="-2.02" r="0.06" />
<circle cx="2.46" cy="0.71" r="0.06" />
<circle cx="-2.50" cy="0.69" r="0.06" />
<circle cx="1.86" cy="-1.85" r="0.06" />
<circle cx="-0.46" cy="2.49" r="0.06" />
<circle cx="-0.78" cy="-2.55" r="0.06" />
<circle cx="1.99" cy="1.58" r="0.06" />
<circle cx="-2.59" cy="-0.39" r="0.06" />
<circle cx="0.63" cy="3.89" r="0.06" />
<circle cx="2.84" cy="-2.92" r="0.06" />
<circle cx="-3.98" cy="-0.15" r="0.06" />
<circle cx="2.56" cy="3.04" r="0.06" />
<circle cx="0.94" cy="-3.96" r="0.06" />
<circle cx="-3.40" cy="2.00" r="0.06" />
<circle cx="3.78" cy="1.34" r="0.06" />
<circle cx="-1.25" cy="-3.86" r="0.06" />
<circle cx="-1.81" cy="3.49" r="0.06" />
<circle cx="3.98" cy="-0.74" r="0.06" />
<circle cx="-3.08" cy="-2.59" r="0.06" />
<circle cx="0.28" cy="3.93" r="0.06" />
<circle cx="3.08" cy="-2.66" r="0.06" />
<circle cx="-3.95" cy="-0.52" r="0.06" />
<circle cx="1.02" cy="-1.72" r="0.06" />
<circle cx="1.24" cy="1.42" r="0.06" />
<circle cx="-1.89" cy="0.60" r="0.06" />
<circle cx="0.30" cy="-2.00" r="0.06" />
<circle cx="1.69" cy="0.86" r="0.06" />
<circle cx="-1.47" cy="1.28" r="0.06" />
<circle cx="-0.50" cy="-1.98" r="0.06" />
<circle cx="1.90" cy="0.18" r="0.06" />
<circle cx="-0.83" cy="1.74" r="0.06" />
<circle cx="-1.24" cy="-1.62" r="0.06" />
<circle cx="1.86" cy="-0.54" r="0.06" />
<circle cx="-0.09" cy="1.90" r="0.06" />
<circle cx="-1.77" cy="-0.99" r="0.06" />
<circle cx="1.55" cy="-1.21" r="0.06" />
<circle cx="-5.26" cy="1.71" r="0.06" />
<circle cx="-2.91" cy="4.76" r="0.06" />
<circle cx="0.28" cy="5.68" r="0.06" />
<circle cx="2.87" cy="5.06" r="0.06" />
<circle cx="4.53" cy="3.82" r="0.06" />
<circle cx="5.46" cy="2.51" r="0.06" />
<circle cx="5.93" cy="1.29" r="0.06" />
<circle cx="6.09" cy="0.16" r="0.06" />
<circle cx="6.02" cy="-0.97" r="0.06" />
<circle cx="5.68" cy="-2.17" r="0.06" />
<circle cx="4.92" cy="-3.49" r="0.06" />
<circle cx="3.49" cy="-4.83" r="0.06" />
<circle cx="1.12" cy="-5.74" r="0.06" />
<circle cx="-2.06" cy="-5.34" r="0.06" />
<circle cx="-0.27" cy="-0.44" r="0.06" />
<circle cx="-0.06" cy="-0.40" r="0.06" />
<circle cx="0.04" cy="-0.28" r="0.06" />
<circle cx="0.04" cy="-0.14" r="0.06" />
<circle cx="0.01" cy="-0.02" r="0.06" />
<circle cx="1.28" cy="-6.05" r="0.06" />
<circle cx="-0.10" cy="-6.06" r="0.06" />
<circle cx="-2.16" cy="-5.52" r="0.06" />
<circle cx="-4.36" cy="-3.84" r="0.06" />
<circle cx="-5.65" cy="-0.91" r="0.06" />
<circle cx="-5.20" cy="2.34" r="0.06" />
<circle cx="-3.33" cy="4.69" r="0.06" />
<circle cx="-1.13" cy="5.75" r="0.06" />
<circle cx="0.61" cy="5.96" r="0.06" />
<circle cx="1.40" cy="3.55" r="0.06" />
<circle cx="1.61" cy="-3.59" r="0.06" />
<circle cx="-3.40" cy="1.74" r="0.06" />
<circle cx="3.75" cy="1.00" r="0.06" />
<circle cx="-2.01" cy="-3.35" r="0.06" />
<circle cx="-0.45" cy="3.77" r="0.06" />
<circle cx="3.09" cy="-2.43" r="0.06" />
<circle cx="-3.85" cy="-0.16" r="0.06" />
<circle cx="2.83" cy="2.60" r="0.06" />
<circle cx="-0.16" cy="-3.93" r="0.06" />
<circle cx="-2.21" cy="3.09" r="0.06" />
<circle cx="3.84" cy="-0.72" r="0.06" />
<circle cx="-3.30" cy="-2.05" r="0.06" />
<circle cx="1.28" cy="3.59" r="0.06" />
<circle cx="-1.96" cy="0.17" r="0.06" />
<circle cx="0.64" cy="-1.88" r="0.06" />
<circle cx="1.52" cy="1.08" r="0.06" />
<circle cx="-1.61" cy="1.08" r="0.06" />
<circle cx="-0.31" cy="-1.98" r="0.06" />
<circle cx="1.86" cy="0.29" r="0.06" />
<circle cx="-0.88" cy="1.68" r="0.06" />
<circle cx="-1.21" cy="-1.61" r="0.06" />
<circle cx="1.82" cy="-0.57" r="0.06" />
<circle cx="0.01" cy="1.87" r="0.06" />
<circle cx="-1.82" cy="-0.83" r="0.06" />
<circle cx="1.40" cy="-1.35" r="0.06" />
<circle cx="0.86" cy="1.65" r="0.06" />
<circle cx="-1.97" cy="0.16" r="0.06" />
<circle cx="0.45" cy="-3.09" r="0.06" />
<circle cx="0.02" cy="2.99" r="0.06" />
<circle cx="-0.10" cy="-3.12" r="0.06" />
<circle cx="0.55" cy="2.94" r="0.06" />
<circle cx="-0.65" cy="-3.05" r="0.06" />
<circle cx="1.05" cy="2.80" r="0.06" />
<circle cx="-1.19" cy="-2.88" r="0.06" />
<circle cx="1.54" cy="2.56" r="0.06" />
<circle cx="-1.70" cy="-2.59" r="0.06" />
<circle cx="1.99" cy="2.23" r="0.06" />
<circle cx="-2.17" cy="-2.20" r="0.06" />
<circle cx="2.39" cy="1.81" r="0.06" />
<circle cx="-2.57" cy="-1.69" r="0.06" />
<circle cx="2.71" cy="1.30" r="0.06" />
<circle cx="-3.73" cy="-3.32" r="0.06" />
<circle cx="-3.92" cy="2.96" r="0.06" />
<circle cx="1.82" cy="4.64" r="0.06" />
<circle cx="5.11" cy="0.12" r="0.06" />
<circle cx="2.09" cy="-4.66" r="0.06" />
<circle cx="-3.81" cy="-3.22" r="0.06" />
<circle cx="-3.84" cy="3.06" r="0.06" />
<circle cx="1.93" cy="4.60" r="0.06" />
<circle cx="5.11" cy="0.00" r="0.06" />
<circle cx="1.98" cy="-4.71" r="0.06" />
<circle cx="-3.89" cy="-3.12" r="0.06" />
<circle cx="-3.76" cy="3.16" r="0.06" />
<circle cx="2.03" cy="4.56" r="0.06" />
<circle cx="5.11" cy="-0.11" r="0.06" />
<circle cx="-2.65" cy="1.93" r="0.06" />
<circle cx="3.07" cy="-1.36" r="0.06" />
<circle cx="-3.20" cy="0.83" r="0.06" />
<circle cx="3.33" cy="-0.20" r="0.06" />
<circle cx="-3.30" cy="-0.41" r="0.06" />
<circle cx="3.17" cy="0.96" r="0.06" />
<circle cx="-2.94" cy="-1.61" r="0.06" />
<circle cx="2.62" cy="1.98" r="0.06" />
<circle cx="-2.17" cy="-2.57" r="0.06" />
<circle cx="1.78" cy="2.74" r="0.06" />
<circle cx="-1.14" cy="-3.18" r="0.06" />
<circle cx="0.76" cy="3.16" r="0.06" />
<circle cx="0.01" cy="-3.38" r="0.06" />
<circle cx="-0.35" cy="3.23" r="0.06" />
<circle cx="1.64" cy="-4.03" r="0.06" />
<circle cx="-4.21" cy="0.40" r="0.06" />
<circle cx="2.26" cy="3.59" r="0.06" />
<circle cx="2.63" cy="-3.47" r="0.06" />
<circle cx="-4.18" cy="-0.79" r="0.06" />
<circle cx="1.25" cy="4.04" r="0.06" />
<circle cx="3.43" cy="-2.67" r="0.06" />
<circle cx="-3.81" cy="-1.92" r="0.06" />
<circle cx="0.14" cy="4.21" r="0.06" />
<circle cx="3.99" cy="-1.71" r="0.06" />
<circle cx="-3.16" cy="-2.91" r="0.06" />
<circle cx="-0.98" cy="4.09" r="0.06" />
<circle cx="4.28" cy="-0.64" r="0.06" />
<circle cx="-2.26" cy="-3.67" r="0.06" />
<circle cx="1.08" cy="-1.49" r="0.06" />
<circle cx="1.22" cy="1.23" r="0.06" />
<circle cx="-1.59" cy="0.91" r="0.06" />
<circle cx="-0.37" cy="-1.86" r="0.06" />
<circle cx="1.77" cy="-0.01" r="0.06" />
<circle cx="-0.34" cy="1.73" r="0.06" />
<circle cx="-1.65" cy="-0.93" r="0.06" />
<circle cx="1.28" cy="-1.31" r="0.06" />
<circle cx="1.03" cy="1.40" r="0.06" />
<circle cx="-1.72" cy="0.65" r="0.06" />
<circle cx="-0.08" cy="-1.89" r="0.06" />
<circle cx="1.74" cy="0.25" r="0.06" />
<circle cx="-0.60" cy="1.67" r="0.06" />
<circle cx="-1.48" cy="-1.19" r="0.06" />
<circle cx="1.17" cy="2.45" r="0.06" />
<circle cx="-1.94" cy="-2.06" r="0.06" />
<circle cx="2.51" cy="1.10" r="0.06" />
<circle cx="-2.78" cy="-0.17" r="0.06" />
<circle cx="2.66" cy="-0.82" r="0.06" />
<circle cx="-2.10" cy="1.77" r="0.06" />
<circle cx="1.49" cy="-2.40" r="0.06" />
<circle cx="-0.35" cy="2.69" r="0.06" />
<circle cx="-0.47" cy="-2.81" r="0.06" />
<circle cx="1.51" cy="2.26" r="0.06" />
<circle cx="-2.23" cy="-1.74" r="0.06" />
<circle cx="2.65" cy="0.72" r="0.06" />
<circle cx="-2.77" cy="0.27" r="0.06" />
<circle cx="2.52" cy="-1.21" r="0.06" />
<circle cx="0.80" cy="-2.15" r="0.06" />
<circle cx="1.25" cy="1.78" r="0.06" />
<circle cx="-2.27" cy="-0.22" r="0.06" />
<circle cx="1.62" cy="-1.59" r="0.06" />
<circle cx="0.37" cy="2.15" r="0.06" />
<circle cx="-1.95" cy="-1.23" r="0.06" />
<circle cx="2.11" cy="-0.75" r="0.06" />
<circle cx="-0.60" cy="2.11" r="0.06" />
<circle cx="-1.20" cy="-1.98" r="0.06" />
<circle cx="2.20" cy="0.20" r="0.06" />
<circle cx="-1.49" cy="1.64" r="0.06" />
<circle cx="-0.21" cy="-2.30" r="0.06" />
<circle cx="1.89" cy="1.09" r="0.06" />
<circle cx="-2.10" cy="0.81" r="0.06" />
</g>
</svg>