<svg xmlns="http://www.w3.org/2000/svg" width="161.8" height="100.0" viewBox="-4.4 -2.5 171.8 110.0">
<g fill="none" stroke="black" stroke-width="0.6000%" transform="translate(0, 105.0000) scale(0.8333, -0.8333)">
<circle cx="0.8" cy="3.0" r="0.6" />
<circle cx="1.5" cy="4.0" r="0.6" />
<circle cx="2.3" cy="5.0" r="0.6" />
<circle cx="3.0" cy="7.0" r="0.6" />
<circle cx="3.8" cy="6.0" r="0.6" />
<circle cx="4.6" cy="9.0" r="0.6" />
<circle cx="5.3" cy="11.0" r="0.6" />
<circle cx="6.1" cy="10.0" r="0.6" />
<circle cx="6.9" cy="7.0" r="0.6" />
<circle cx="7.6" cy="11.0" r="0.6" />
<circle cx="8.4" cy="14.0" r="0.6" />
<circle cx="9.1" cy="13.0" r="0.6" />
<circle cx="9.9" cy="15.0" r="0.6" />
<circle cx="10.7" cy="18.0" r="0.6" />
<circle cx="11.4" cy="17.0" r="0.6" />
<circle cx="12.2" cy="13.0" r="0.6" />
<circle cx="12.9" cy="8.0" r="0.6" />
<circle cx="13.7" cy="13.0" r="0.6" />
<circle cx="14.5" cy="17.0" r="0.6" />
<circle cx="15.2" cy="16.0" r="0.6" />
<circle cx="16.0" cy="19.0" r="0.6" />
<circle cx="16.8" cy="23.0" r="0.6" />
<circle cx="17.5" cy="22.0" r="0.6" />
<circle cx="18.3" cy="17.0" r="0.6" />
<circle cx="19.0" cy="19.0" r="0.6" />
<circle cx="19.8" cy="26.0" r="0.6" />
<circle cx="20.6" cy="29.0" r="0.6" />
<circle cx="21.3" cy="25.0" r="0.6" />
<circle cx="22.1" cy="24.0" r="0.6" />
<circle cx="22.8" cy="27.0" r="0.6" />
<circle cx="23.6" cy="23.0" r="0.6" />
<circle cx="24.4" cy="16.0" r="0.6" />
<circle cx="25.1" cy="9.0" r="0.6" />
<circle cx="25.9" cy="15.0" r="0.6" />
<circle cx="26.6" cy="20.0" r="0.6" />
<circle cx="27.4" cy="19.0" r="0.6" />
<circle cx="28.2" cy="23.0" r="0.6" />
<circle cx="28.9" cy="28.0" r="0.6" />
<circle cx="29.7" cy="27.0" r="0.6" />
<circle cx="30.5" cy="21.0" r="0.6" />
<circle cx="31.2" cy="24.0" r="0.6" />
<circle cx="32.0" cy="33.0" r="0.6" />
<circle cx="32.7" cy="37.0" r="0.6" />
<circle cx="33.5" cy="32.0" r="0.6" />
<circle cx="34.3" cy="31.0" r="0.6" />
<circle cx="35.0" cy="35.0" r="0.6" />
<circle cx="35.8" cy="30.0" r="0.6" />
<circle cx="36.5" cy="21.0" r="0.6" />
<circle cx="37.3" cy="23.0" r="0.6" />
<circle cx="38.1" cy="34.0" r="0.6" />
<circle cx="38.8" cy="41.0" r="0.6" />
<circle cx="39.6" cy="37.0" r="0.6" />
<circle cx="40.4" cy="40.0" r="0.6" />
<circle cx="41.1" cy="47.0" r="0.6" />
<circle cx="41.9" cy="43.0" r="0.6" />
<circle cx="42.6" cy="32.0" r="0.6" />
<circle cx="43.4" cy="31.0" r="0.6" />
<circle cx="44.2" cy="41.0" r="0.6" />
<circle cx="44.9" cy="44.0" r="0.6" />
<circle cx="45.7" cy="37.0" r="0.6" />
<circle cx="46.4" cy="33.0" r="0.6" />
<circle cx="47.2" cy="36.0" r="0.6" />
<circle cx="48.0" cy="29.0" r="0.6" />
<circle cx="48.7" cy="19.0" r="0.6" />
<circle cx="49.5" cy="10.0" r="0.6" />
<circle cx="50.3" cy="17.0" r="0.6" />
<circle cx="51.0" cy="23.0" r="0.6" />
<circle cx="51.8" cy="22.0" r="0.6" />
<circle cx="52.5" cy="27.0" r="0.6" />
<circle cx="53.3" cy="33.0" r="0.6" />
<circle cx="54.1" cy="32.0" r="0.6" />
<circle cx="54.8" cy="25.0" r="0.6" />
<circle cx="55.6" cy="29.0" r="0.6" />
<circle cx="56.3" cy="40.0" r="0.6" />
<circle cx="57.1" cy="45.0" r="0.6" />
<circle cx="57.9" cy="39.0" r="0.6" />
<circle cx="58.6" cy="38.0" r="0.6" />
<circle cx="59.4" cy="43.0" r="0.6" />
<circle cx="60.2" cy="37.0" r="0.6" />
<circle cx="60.9" cy="26.0" r="0.6" />
<circle cx="61.7" cy="29.0" r="0.6" />
<circle cx="62.4" cy="43.0" r="0.6" />
<circle cx="63.2" cy="52.0" r="0.6" />
<circle cx="64.0" cy="47.0" r="0.6" />
<circle cx="64.7" cy="51.0" r="0.6" />
<circle cx="65.5" cy="60.0" r="0.6" />
<circle cx="66.2" cy="55.0" r="0.6" />
<circle cx="67.0" cy="41.0" r="0.6" />
<circle cx="67.8" cy="40.0" r="0.6" />
<circle cx="68.5" cy="53.0" r="0.6" />
<circle cx="69.3" cy="57.0" r="0.6" />
<circle cx="70.1" cy="48.0" r="0.6" />
<circle cx="70.8" cy="43.0" r="0.6" />
<circle cx="71.6" cy="47.0" r="0.6" />
<circle cx="72.3" cy="38.0" r="0.6" />
<circle cx="73.1" cy="25.0" r="0.6" />
<circle cx="73.9" cy="27.0" r="0.6" />
<circle cx="74.6" cy="42.0" r="0.6" />
<circle cx="75.4" cy="53.0" r="0.6" />
<circle cx="76.1" cy="49.0" r="0.6" />
<circle cx="76.9" cy="56.0" r="0.6" />
<circle cx="77.7" cy="67.0" r="0.6" />
<circle cx="78.4" cy="63.0" r="0.6" />
<circle cx="79.2" cy="48.0" r="0.6" />
<circle cx="79.9" cy="51.0" r="0.6" />
<circle cx="80.7" cy="69.0" r="0.6" />
<circle cx="81.5" cy="76.0" r="0.6" />
<circle cx="82.2" cy="65.0" r="0.6" />
<circle cx="83.0" cy="61.0" r="0.6" />
<circle cx="83.8" cy="68.0" r="0.6" />
<circle cx="84.5" cy="57.0" r="0.6" />
<circle cx="85.3" cy="39.0" r="0.6" />
<circle cx="86.0" cy="38.0" r="0.6" />
<circle cx="86.8" cy="55.0" r="0.6" />
<circle cx="87.6" cy="65.0" r="0.6" />
<circle cx="88.3" cy="58.0" r="0.6" />
<circle cx="89.1" cy="61.0" r="0.6" />
<circle cx="89.8" cy="71.0" r="0.6" />
<circle cx="90.6" cy="64.0" r="0.6" />
<circle cx="91.4" cy="47.0" r="0.6" />
<circle cx="92.1" cy="43.0" r="0.6" />
<circle cx="92.9" cy="56.0" r="0.6" />
<circle cx="93.7" cy="59.0" r="0.6" />
<circle cx="94.4" cy="49.0" r="0.6" />
<circle cx="95.2" cy="42.0" r="0.6" />
<circle cx="95.9" cy="45.0" r="0.6" />
<circle cx="96.7" cy="35.0" r="0.6" />
<circle cx="97.5" cy="22.0" r="0.6" />
<circle cx="98.2" cy="11.0" r="0.6" />
<circle cx="99.0" cy="19.0" r="0.6" />
<circle cx="99.7" cy="26.0" r="0.6" />
<circle cx="100.5" cy="25.0" r="0.6" />
<circle cx="101.3" cy="31.0" r="0.6" />
<circle cx="102.0" cy="38.0" r="0.6" />
<circle cx="102.8" cy="37.0" r="0.6" />
<circle cx="103.6" cy="29.0" r="0.6" />
<circle cx="104.3" cy="34.0" r="0.6" />
<circle cx="105.1" cy="47.0" r="0.6" />
<circle cx="105.8" cy="53.0" r="0.6" />
<circle cx="106.6" cy="46.0" r="0.6" />
<circle cx="107.4" cy="45.0" r="0.6" />
<circle cx="108.1" cy="51.0" r="0.6" />
<circle cx="108.9" cy="44.0" r="0.6" />
<circle cx="109.6" cy="31.0" r="0.6" />
<circle cx="110.4" cy="35.0" r="0.6" />
<circle cx="111.2" cy="52.0" r="0.6" />
<circle cx="111.9" cy="63.0" r="0.6" />
<circle cx="112.7" cy="57.0" r="0.6" />
<circle cx="113.5" cy="62.0" r="0.6" />
<circle cx="114.2" cy="73.0" r="0.6" />
<circle cx="115.0" cy="67.0" r="0.6" />
<circle cx="115.7" cy="50.0" r="0.6" />
<circle cx="116.5" cy="49.0" r="0.6" />
<circle cx="117.3" cy="65.0" r="0.6" />
<circle cx="118.0" cy="70.0" r="0.6" />
<circle cx="118.8" cy="59.0" r="0.6" />
<circle cx="119.5" cy="53.0" r="0.6" />
<circle cx="120.3" cy="58.0" r="0.6" />
<circle cx="121.1" cy="47.0" r="0.6" />
<circle cx="121.8" cy="31.0" r="0.6" />
<circle cx="122.6" cy="34.0" r="0.6" />
<circle cx="123.4" cy="53.0" r="0.6" />
<circle cx="124.1" cy="67.0" r="0.6" />
<circle cx="124.9" cy="62.0" r="0.6" />
<circle cx="125.6" cy="71.0" r="0.6" />
<circle cx="126.4" cy="85.0" r="0.6" />
<circle cx="127.2" cy="80.0" r="0.6" />
<circle cx="127.9" cy="61.0" r="0.6" />
<circle cx="128.7" cy="65.0" r="0.6" />
<circle cx="129.4" cy="88.0" r="0.6" />
<circle cx="130.2" cy="97.0" r="0.6" />
<circle cx="131.0" cy="83.0" r="0.6" />
<circle cx="131.7" cy="78.0" r="0.6" />
<circle cx="132.5" cy="87.0" r="0.6" />
<circle cx="133.2" cy="73.0" r="0.6" />
<circle cx="134.0" cy="50.0" r="0.6" />
<circle cx="134.8" cy="49.0" r="0.6" />
<circle cx="135.5" cy="71.0" r="0.6" />
<circle cx="136.3" cy="84.0" r="0.6" />
<circle cx="137.1" cy="75.0" r="0.6" />
<circle cx="137.8" cy="79.0" r="0.6" />
<circle cx="138.6" cy="92.0" r="0.6" />
<circle cx="139.3" cy="83.0" r="0.6" />
<circle cx="140.1" cy="61.0" r="0.6" />
<circle cx="140.9" cy="56.0" r="0.6" />
<circle cx="141.6" cy="73.0" r="0.6" />
<circle cx="142.4" cy="77.0" r="0.6" />
<circle cx="143.1" cy="64.0" r="0.6" />
<circle cx="143.9" cy="55.0" r="0.6" />
<circle cx="144.7" cy="59.0" r="0.6" />
<circle cx="145.4" cy="46.0" r="0.6" />
<circle cx="146.2" cy="29.0" r="0.6" />
<circle cx="147.0" cy="31.0" r="0.6" />
<circle cx="147.7" cy="50.0" r="0.6" />
<circle cx="148.5" cy="65.0" r="0.6" />
<circle cx="149.2" cy="61.0" r="0.6" />
<circle cx="150.0" cy="72.0" r="0.6" />
<circle cx="150.8" cy="87.0" r="0.6" />
<circle cx="151.5" cy="83.0" r="0.6" />
<circle cx="152.3" cy="64.0" r="0.6" />
<circle cx="153.0" cy="71.0" r="0.6" />
<circle cx="153.8" cy="97.0" r="0.6" />
<circle cx="154.6" cy="108.0" r="0.6" />
<circle cx="155.3" cy="93.0" r="0.6" />
<circle cx="156.1" cy="89.0" r="0.6" />
<circle cx="156.9" cy="100.0" r="0.6" />
<circle cx="157.6" cy="85.0" r="0.6" />
<circle cx="158.4" cy="59.0" r="0.6" />
<circle cx="159.1" cy="62.0" r="0.6" />
<circle cx="159.9" cy="91.0" r="0.6" />
<circle cx="160.7" cy="109.0" r="0.6" />
<circle cx="161.4" cy="98.0" r="0.6" />
<circle cx="162.2" cy="105.0" r="0.6" />
<circle cx="162.9" cy="123.0" r="0.6" />
<circle cx="163.7" cy="112.0" r="0.6" />
<circle cx="164.5" cy="83.0" r="0.6" />
<circle cx="165.2" cy="79.0" r="0.6" />
<circle cx="166.0" cy="104.0" r="0.6" />
<circle cx="166.8" cy="111.0" r="0.6" />
<circle cx="167.5" cy="93.0" r="0.6" />
<circle cx="168.3" cy="82.0" r="0.6" />
<circle cx="169.0" cy="89.0" r="0.6" />
<circle cx="169.8" cy="71.0" r="0.6" />
<circle cx="170.6" cy="46.0" r="0.6" />
<circle cx="171.3" cy="45.0" r="0.6" />
<circle cx="172.1" cy="69.0" r="0.6" />
<circle cx="172.8" cy="86.0" r="0.6" />
<circle cx="173.6" cy="79.0" r="0.6" />
<circle cx="174.4" cy="89.0" r="0.6" />
<circle cx="175.1" cy="106.0" r="0.6" />
<circle cx="175.9" cy="99.0" r="0.6" />
<circle cx="176.7" cy="75.0" r="0.6" />
<circle cx="177.4" cy="78.0" r="0.6" />
<circle cx="178.2" cy="105.0" r="0.6" />
<circle cx="178.9" cy="115.0" r="0.6" />
<circle cx="179.7" cy="98.0" r="0.6" />
<circle cx="180.5" cy="91.0" r="0.6" />
<circle cx="181.2" cy="101.0" r="0.6" />
<circle cx="182.0" cy="84.0" r="0.6" />
<circle cx="182.7" cy="57.0" r="0.6" />
<circle cx="183.5" cy="53.0" r="0.6" />
<circle cx="184.3" cy="76.0" r="0.6" />
<circle cx="185.0" cy="89.0" r="0.6" />
<circle cx="185.8" cy="79.0" r="0.6" />
<circle cx="186.5" cy="82.0" r="0.6" />
<circle cx="187.3" cy="95.0" r="0.6" />
<circle cx="188.1" cy="85.0" r="0.6" />
<circle cx="188.8" cy="62.0" r="0.6" />
<circle cx="189.6" cy="55.0" r="0.6" />
<circle cx="190.4" cy="71.0" r="0.6" />
<circle cx="191.1" cy="74.0" r="0.6" />
<circle cx="191.9" cy="61.0" r="0.6" />
<circle cx="192.6" cy="51.0" r="0.6" />
<circle cx="193.4" cy="54.0" r="0.6" />
<circle cx="194.2" cy="41.0" r="0.6" />
<circle cx="194.9" cy="25.0" r="0.6" />
</g>
</svg>