<svg xmlns="http://www.w3.org/2000/svg" width="161.8" height="100.0" viewBox="-4.36 0.00 171.80 110.00">
<g fill="none" stroke="black" stroke-width="0.1000%" transform="translate(0, 110.0000) scale(5.0000, -5.0000)">
<circle cx="0.13" cy="1.00" r="0.10" />
<circle cx="0.25" cy="1.00" r="0.10" />
<circle cx="0.38" cy="1.00" r="0.10" />
<circle cx="0.51" cy="1.00" r="0.10" />
<circle cx="0.64" cy="2.00" r="0.10" />
<circle cx="0.76" cy="1.00" r="0.10" />
<circle cx="0.89" cy="1.00" r="0.10" />
<circle cx="1.02" cy="1.00" r="0.10" />
<circle cx="1.15" cy="3.00" r="0.10" />
<circle cx="1.27" cy="2.00" r="0.10" />
<circle cx="1.40" cy="3.00" r="0.10" />
<circle cx="1.53" cy="1.00" r="0.10" />
<circle cx="1.66" cy="2.00" r="0.10" />
<circle cx="1.78" cy="1.00" r="0.10" />
<circle cx="1.91" cy="1.00" r="0.10" />
<circle cx="2.04" cy="1.00" r="0.10" />
<circle cx="2.17" cy="4.00" r="0.10" />
<circle cx="2.29" cy="3.00" r="0.10" />
<circle cx="2.42" cy="5.00" r="0.10" />
<circle cx="2.55" cy="2.00" r="0.10" />
<circle cx="2.68" cy="5.00" r="0.10" />
<circle cx="2.80" cy="3.00" r="0.10" />
<circle cx="2.93" cy="4.00" r="0.10" />
<circle cx="3.06" cy="1.00" r="0.10" />
<circle cx="3.19" cy="3.00" r="0.10" />
<circle cx="3.31" cy="2.00" r="0.10" />
<circle cx="3.44" cy="3.00" r="0.10" />
<circle cx="3.57" cy="1.00" r="0.10" />
<circle cx="3.69" cy="2.00" r="0.10" />
<circle cx="3.82" cy="1.00" r="0.10" />
<circle cx="3.95" cy="1.00" r="0.10" />
<circle cx="4.08" cy="1.00" r="0.10" />
<circle cx="4.20" cy="5.00" r="0.10" />
<circle cx="4.33" cy="4.00" r="0.10" />
<circle cx="4.46" cy="7.00" r="0.10" />
<circle cx="4.59" cy="3.00" r="0.10" />
<circle cx="4.71" cy="8.00" r="0.10" />
<circle cx="4.84" cy="5.00" r="0.10" />
<circle cx="4.97" cy="7.00" r="0.10" />
<circle cx="5.10" cy="2.00" r="0.10" />
<circle cx="5.22" cy="7.00" r="0.10" />
<circle cx="5.35" cy="5.00" r="0.10" />
<circle cx="5.48" cy="8.00" r="0.10" />
<circle cx="5.61" cy="3.00" r="0.10" />
<circle cx="5.73" cy="7.00" r="0.10" />
<circle cx="5.86" cy="4.00" r="0.10" />
<circle cx="5.99" cy="5.00" r="0.10" />
<circle cx="6.12" cy="1.00" r="0.10" />
<circle cx="6.24" cy="4.00" r="0.10" />
<circle cx="6.37" cy="3.00" r="0.10" />
<circle cx="6.50" cy="5.00" r="0.10" />
<circle cx="6.63" cy="2.00" r="0.10" />
<circle cx="6.75" cy="5.00" r="0.10" />
<circle cx="6.88" cy="3.00" r="0.10" />
<circle cx="7.01" cy="4.00" r="0.10" />
<circle cx="7.13" cy="1.00" r="0.10" />
<circle cx="7.26" cy="3.00" r="0.10" />
<circle cx="7.39" cy="2.00" r="0.10" />
<circle cx="7.52" cy="3.00" r="0.10" />
<circle cx="7.64" cy="1.00" r="0.10" />
<circle cx="7.77" cy="2.00" r="0.10" />
<circle cx="7.90" cy="1.00" r="0.10" />
<circle cx="8.03" cy="1.00" r="0.10" />
<circle cx="8.15" cy="1.00" r="0.10" />
<circle cx="8.28" cy="6.00" r="0.10" />
<circle cx="8.41" cy="5.00" r="0.10" />
<circle cx="8.54" cy="9.00" r="0.10" />
<circle cx="8.66" cy="4.00" r="0.10" />
<circle cx="8.79" cy="11.00" r="0.10" />
<circle cx="8.92" cy="7.00" r="0.10" />
<circle cx="9.05" cy="10.00" r="0.10" />
<circle cx="9.17" cy="3.00" r="0.10" />
<circle cx="9.30" cy="11.00" r="0.10" />
<circle cx="9.43" cy="8.00" r="0.10" />
<circle cx="9.56" cy="13.00" r="0.10" />
<circle cx="9.68" cy="5.00" r="0.10" />
<circle cx="9.81" cy="12.00" r="0.10" />
<circle cx="9.94" cy="7.00" r="0.10" />
<circle cx="10.06" cy="9.00" r="0.10" />
<circle cx="10.19" cy="2.00" r="0.10" />
<circle cx="10.32" cy="9.00" r="0.10" />
<circle cx="10.45" cy="7.00" r="0.10" />
<circle cx="10.57" cy="12.00" r="0.10" />
<circle cx="10.70" cy="5.00" r="0.10" />
<circle cx="10.83" cy="13.00" r="0.10" />
<circle cx="10.96" cy="8.00" r="0.10" />
<circle cx="11.08" cy="11.00" r="0.10" />
<circle cx="11.21" cy="3.00" r="0.10" />
<circle cx="11.34" cy="10.00" r="0.10" />
<circle cx="11.47" cy="7.00" r="0.10" />
<circle cx="11.59" cy="11.00" r="0.10" />
<circle cx="11.72" cy="4.00" r="0.10" />
<circle cx="11.85" cy="9.00" r="0.10" />
<circle cx="11.98" cy="5.00" r="0.10" />
<circle cx="12.10" cy="6.00" r="0.10" />
<circle cx="12.23" cy="1.00" r="0.10" />
<circle cx="12.36" cy="5.00" r="0.10" />
<circle cx="12.49" cy="4.00" r="0.10" />
<circle cx="12.61" cy="7.00" r="0.10" />
<circle cx="12.74" cy="3.00" r="0.10" />
<circle cx="12.87" cy="8.00" r="0.10" />
<circle cx="13.00" cy="5.00" r="0.10" />
<circle cx="13.12" cy="7.00" r="0.10" />
<circle cx="13.25" cy="2.00" r="0.10" />
<circle cx="13.38" cy="7.00" r="0.10" />
<circle cx="13.50" cy="5.00" r="0.10" />
<circle cx="13.63" cy="8.00" r="0.10" />
<circle cx="13.76" cy="3.00" r="0.10" />
<circle cx="13.89" cy="7.00" r="0.10" />
<circle cx="14.01" cy="4.00" r="0.10" />
<circle cx="14.14" cy="5.00" r="0.10" />
<circle cx="14.27" cy="1.00" r="0.10" />
<circle cx="14.40" cy="4.00" r="0.10" />
<circle cx="14.52" cy="3.00" r="0.10" />
<circle cx="14.65" cy="5.00" r="0.10" />
<circle cx="14.78" cy="2.00" r="0.10" />
<circle cx="14.91" cy="5.00" r="0.10" />
<circle cx="15.03" cy="3.00" r="0.10" />
<circle cx="15.16" cy="4.00" r="0.10" />
<circle cx="15.29" cy="1.00" r="0.10" />
<circle cx="15.42" cy="3.00" r="0.10" />
<circle cx="15.54" cy="2.00" r="0.10" />
<circle cx="15.67" cy="3.00" r="0.10" />
<circle cx="15.80" cy="1.00" r="0.10" />
<circle cx="15.93" cy="2.00" r="0.10" />
<circle cx="16.05" cy="1.00" r="0.10" />
<circle cx="16.18" cy="1.00" r="0.10" />
<circle cx="16.31" cy="1.00" r="0.10" />
<circle cx="16.44" cy="7.00" r="0.10" />
<circle cx="16.56" cy="6.00" r="0.10" />
<circle cx="16.69" cy="11.00" r="0.10" />
<circle cx="16.82" cy="5.00" r="0.10" />
<circle cx="16.94" cy="14.00" r="0.10" />
<circle cx="17.07" cy="9.00" r="0.10" />
<circle cx="17.20" cy="13.00" r="0.10" />
<circle cx="17.33" cy="4.00" r="0.10" />
<circle cx="17.45" cy="15.00" r="0.10" />
<circle cx="17.58" cy="11.00" r="0.10" />
<circle cx="17.71" cy="18.00" r="0.10" />
<circle cx="17.84" cy="7.00" r="0.10" />
<circle cx="17.96" cy="17.00" r="0.10" />
<circle cx="18.09" cy="10.00" r="0.10" />
<circle cx="18.22" cy="13.00" r="0.10" />
<circle cx="18.35" cy="3.00" r="0.10" />
<circle cx="18.47" cy="14.00" r="0.10" />
<circle cx="18.60" cy="11.00" r="0.10" />
<circle cx="18.73" cy="19.00" r="0.10" />
<circle cx="18.86" cy="8.00" r="0.10" />
<circle cx="18.98" cy="21.00" r="0.10" />
<circle cx="19.11" cy="13.00" r="0.10" />
<circle cx="19.24" cy="18.00" r="0.10" />
<circle cx="19.37" cy="5.00" r="0.10" />
<circle cx="19.49" cy="17.00" r="0.10" />
<circle cx="19.62" cy="12.00" r="0.10" />
<circle cx="19.75" cy="19.00" r="0.10" />
<circle cx="19.88" cy="7.00" r="0.10" />
<circle cx="20.00" cy="16.00" r="0.10" />
<circle cx="20.13" cy="9.00" r="0.10" />
<circle cx="20.26" cy="11.00" r="0.10" />
<circle cx="20.38" cy="2.00" r="0.10" />
<circle cx="20.51" cy="11.00" r="0.10" />
<circle cx="20.64" cy="9.00" r="0.10" />
<circle cx="20.77" cy="16.00" r="0.10" />
<circle cx="20.89" cy="7.00" r="0.10" />
<circle cx="21.02" cy="19.00" r="0.10" />
<circle cx="21.15" cy="12.00" r="0.10" />
<circle cx="21.28" cy="17.00" r="0.10" />
<circle cx="21.40" cy="5.00" r="0.10" />
<circle cx="21.53" cy="18.00" r="0.10" />
<circle cx="21.66" cy="13.00" r="0.10" />
<circle cx="21.79" cy="21.00" r="0.10" />
<circle cx="21.91" cy="8.00" r="0.10" />
<circle cx="22.04" cy="19.00" r="0.10" />
<circle cx="22.17" cy="11.00" r="0.10" />
<circle cx="22.30" cy="14.00" r="0.10" />
<circle cx="22.42" cy="3.00" r="0.10" />
<circle cx="22.55" cy="13.00" r="0.10" />
<circle cx="22.68" cy="10.00" r="0.10" />
<circle cx="22.81" cy="17.00" r="0.10" />
<circle cx="22.93" cy="7.00" r="0.10" />
<circle cx="23.06" cy="18.00" r="0.10" />
<circle cx="23.19" cy="11.00" r="0.10" />
<circle cx="23.31" cy="15.00" r="0.10" />
<circle cx="23.44" cy="4.00" r="0.10" />
<circle cx="23.57" cy="13.00" r="0.10" />
<circle cx="23.70" cy="9.00" r="0.10" />
<circle cx="23.82" cy="14.00" r="0.10" />
<circle cx="23.95" cy="5.00" r="0.10" />
<circle cx="24.08" cy="11.00" r="0.10" />
<circle cx="24.21" cy="6.00" r="0.10" />
<circle cx="24.33" cy="7.00" r="0.10" />
<circle cx="24.46" cy="1.00" r="0.10" />
<circle cx="24.59" cy="6.00" r="0.10" />
<circle cx="24.72" cy="5.00" r="0.10" />
<circle cx="24.84" cy="9.00" r="0.10" />
<circle cx="24.97" cy="4.00" r="0.10" />
<circle cx="25.10" cy="11.00" r="0.10" />
<circle cx="25.23" cy="7.00" r="0.10" />
<circle cx="25.35" cy="10.00" r="0.10" />
<circle cx="25.48" cy="3.00" r="0.10" />
<circle cx="25.61" cy="11.00" r="0.10" />
<circle cx="25.74" cy="8.00" r="0.10" />
<circle cx="25.86" cy="13.00" r="0.10" />
<circle cx="25.99" cy="5.00" r="0.10" />
<circle cx="26.12" cy="12.00" r="0.10" />
<circle cx="26.25" cy="7.00" r="0.10" />
<circle cx="26.37" cy="9.00" r="0.10" />
<circle cx="26.50" cy="2.00" r="0.10" />
<circle cx="26.63" cy="9.00" r="0.10" />
<circle cx="26.75" cy="7.00" r="0.10" />
<circle cx="26.88" cy="12.00" r="0.10" />
<circle cx="27.01" cy="5.00" r="0.10" />
<circle cx="27.14" cy="13.00" r="0.10" />
<circle cx="27.26" cy="8.00" r="0.10" />
<circle cx="27.39" cy="11.00" r="0.10" />
<circle cx="27.52" cy="3.00" r="0.10" />
<circle cx="27.65" cy="10.00" r="0.10" />
<circle cx="27.77" cy="7.00" r="0.10" />
<circle cx="27.90" cy="11.00" r="0.10" />
<circle cx="28.03" cy="4.00" r="0.10" />
<circle cx="28.16" cy="9.00" r="0.10" />
<circle cx="28.28" cy="5.00" r="0.10" />
<circle cx="28.41" cy="6.00" r="0.10" />
<circle cx="28.54" cy="1.00" r="0.10" />
<circle cx="28.67" cy="5.00" r="0.10" />
<circle cx="28.79" cy="4.00" r="0.10" />
<circle cx="28.92" cy="7.00" r="0.10" />
<circle cx="29.05" cy="3.00" r="0.10" />
<circle cx="29.18" cy="8.00" r="0.10" />
<circle cx="29.30" cy="5.00" r="0.10" />
<circle cx="29.43" cy="7.00" r="0.10" />
<circle cx="29.56" cy="2.00" r="0.10" />
<circle cx="29.69" cy="7.00" r="0.10" />
<circle cx="29.81" cy="5.00" r="0.10" />
<circle cx="29.94" cy="8.00" r="0.10" />
<circle cx="30.07" cy="3.00" r="0.10" />
<circle cx="30.19" cy="7.00" r="0.10" />
<circle cx="30.32" cy="4.00" r="0.10" />
<circle cx="30.45" cy="5.00" r="0.10" />
<circle cx="30.58" cy="1.00" r="0.10" />
<circle cx="30.70" cy="4.00" r="0.10" />
<circle cx="30.83" cy="3.00" r="0.10" />
<circle cx="30.96" cy="5.00" r="0.10" />
<circle cx="31.09" cy="2.00" r="0.10" />
<circle cx="31.21" cy="5.00" r="0.10" />
<circle cx="31.34" cy="3.00" r="0.10" />
<circle cx="31.47" cy="4.00" r="0.10" />
<circle cx="31.60" cy="1.00" r="0.10" />
<circle cx="31.72" cy="3.00" r="0.10" />
<circle cx="31.85" cy="2.00" r="0.10" />
<circle cx="31.98" cy="3.00" r="0.10" />
<circle cx="32.11" cy="1.00" r="0.10" />
<circle cx="32.23" cy="2.00" r="0.10" />
<circle cx="32.36" cy="1.00" r="0.10" />
<circle cx="32.49" cy="1.00" r="0.10" />
</g>
</svg>