<svg xmlns="http://www.w3.org/2000/svg" width="161.8" height="100.0" viewBox="-4.4 -2.0 171.8 110.0">
<g fill="none" stroke="black" stroke-width="0.1650%" transform="translate(0, 106.0606) scale(3.0303, -3.0303)">
<circle cx="0.2" cy="1.0" r="0.2" />
<circle cx="0.4" cy="2.0" r="0.2" />
<circle cx="0.6" cy="1.0" r="0.2" />
<circle cx="0.8" cy="3.0" r="0.2" />
<circle cx="1.1" cy="3.0" r="0.2" />
<circle cx="1.3" cy="2.0" r="0.2" />
<circle cx="1.5" cy="1.0" r="0.2" />
<circle cx="1.7" cy="4.0" r="0.2" />
<circle cx="1.9" cy="5.0" r="0.2" />
<circle cx="2.1" cy="5.0" r="0.2" />
<circle cx="2.3" cy="4.0" r="0.2" />
<circle cx="2.5" cy="3.0" r="0.2" />
<circle cx="2.7" cy="3.0" r="0.2" />
<circle cx="2.9" cy="2.0" r="0.2" />
<circle cx="3.2" cy="1.0" r="0.2" />
<circle cx="3.4" cy="5.0" r="0.2" />
<circle cx="3.6" cy="7.0" r="0.2" />
<circle cx="3.8" cy="8.0" r="0.2" />
<circle cx="4.0" cy="7.0" r="0.2" />
<circle cx="4.2" cy="7.0" r="0.2" />
<circle cx="4.4" cy="8.0" r="0.2" />
<circle cx="4.6" cy="7.0" r="0.2" />
<circle cx="4.8" cy="5.0" r="0.2" />
<circle cx="5.0" cy="4.0" r="0.2" />
<circle cx="5.3" cy="5.0" r="0.2" />
<circle cx="5.5" cy="5.0" r="0.2" />
<circle cx="5.7" cy="4.0" r="0.2" />
<circle cx="5.9" cy="3.0" r="0.2" />
<circle cx="6.1" cy="3.0" r="0.2" />
<circle cx="6.3" cy="2.0" r="0.2" />
<circle cx="6.5" cy="1.0" r="0.2" />
<circle cx="6.7" cy="6.0" r="0.2" />
<circle cx="6.9" cy="9.0" r="0.2" />
<circle cx="7.1" cy="11.0" r="0.2" />
<circle cx="7.4" cy="10.0" r="0.2" />
<circle cx="7.6" cy="11.0" r="0.2" />
<circle cx="7.8" cy="13.0" r="0.2" />
<circle cx="8.0" cy="12.0" r="0.2" />
<circle cx="8.2" cy="9.0" r="0.2" />
<circle cx="8.4" cy="9.0" r="0.2" />
<circle cx="8.6" cy="12.0" r="0.2" />
<circle cx="8.8" cy="13.0" r="0.2" />
<circle cx="9.0" cy="11.0" r="0.2" />
<circle cx="9.2" cy="10.0" r="0.2" />
<circle cx="9.5" cy="11.0" r="0.2" />
<circle cx="9.7" cy="9.0" r="0.2" />
<circle cx="9.9" cy="6.0" r="0.2" />
<circle cx="10.1" cy="5.0" r="0.2" />
<circle cx="10.3" cy="7.0" r="0.2" />
<circle cx="10.5" cy="8.0" r="0.2" />
<circle cx="10.7" cy="7.0" r="0.2" />
<circle cx="10.9" cy="7.0" r="0.2" />
<circle cx="11.1" cy="8.0" r="0.2" />
<circle cx="11.4" cy="7.0" r="0.2" />
<circle cx="11.6" cy="5.0" r="0.2" />
<circle cx="11.8" cy="4.0" r="0.2" />
<circle cx="12.0" cy="5.0" r="0.2" />
<circle cx="12.2" cy="5.0" r="0.2" />
<circle cx="12.4" cy="4.0" r="0.2" />
<circle cx="12.6" cy="3.0" r="0.2" />
<circle cx="12.8" cy="3.0" r="0.2" />
<circle cx="13.0" cy="2.0" r="0.2" />
<circle cx="13.2" cy="1.0" r="0.2" />
<circle cx="13.5" cy="7.0" r="0.2" />
<circle cx="13.7" cy="11.0" r="0.2" />
<circle cx="13.9" cy="14.0" r="0.2" />
<circle cx="14.1" cy="13.0" r="0.2" />
<circle cx="14.3" cy="15.0" r="0.2" />
<circle cx="14.5" cy="18.0" r="0.2" />
<circle cx="14.7" cy="17.0" r="0.2" />
<circle cx="14.9" cy="13.0" r="0.2" />
<circle cx="15.1" cy="14.0" r="0.2" />
<circle cx="15.3" cy="19.0" r="0.2" />
<circle cx="15.6" cy="21.0" r="0.2" />
<circle cx="15.8" cy="18.0" r="0.2" />
<circle cx="16.0" cy="17.0" r="0.2" />
<circle cx="16.2" cy="19.0" r="0.2" />
<circle cx="16.4" cy="16.0" r="0.2" />
<circle cx="16.6" cy="11.0" r="0.2" />
<circle cx="16.8" cy="11.0" r="0.2" />
<circle cx="17.0" cy="16.0" r="0.2" />
<circle cx="17.2" cy="19.0" r="0.2" />
<circle cx="17.4" cy="17.0" r="0.2" />
<circle cx="17.7" cy="18.0" r="0.2" />
<circle cx="17.9" cy="21.0" r="0.2" />
<circle cx="18.1" cy="19.0" r="0.2" />
<circle cx="18.3" cy="14.0" r="0.2" />
<circle cx="18.5" cy="13.0" r="0.2" />
<circle cx="18.7" cy="17.0" r="0.2" />
<circle cx="18.9" cy="18.0" r="0.2" />
<circle cx="19.1" cy="15.0" r="0.2" />
<circle cx="19.3" cy="13.0" r="0.2" />
<circle cx="19.6" cy="14.0" r="0.2" />
<circle cx="19.8" cy="11.0" r="0.2" />
<circle cx="20.0" cy="7.0" r="0.2" />
<circle cx="20.2" cy="6.0" r="0.2" />
<circle cx="20.4" cy="9.0" r="0.2" />
<circle cx="20.6" cy="11.0" r="0.2" />
<circle cx="20.8" cy="10.0" r="0.2" />
<circle cx="21.0" cy="11.0" r="0.2" />
<circle cx="21.2" cy="13.0" r="0.2" />
<circle cx="21.4" cy="12.0" r="0.2" />
<circle cx="21.7" cy="9.0" r="0.2" />
<circle cx="21.9" cy="9.0" r="0.2" />
<circle cx="22.1" cy="12.0" r="0.2" />
<circle cx="22.3" cy="13.0" r="0.2" />
<circle cx="22.5" cy="11.0" r="0.2" />
<circle cx="22.7" cy="10.0" r="0.2" />
<circle cx="22.9" cy="11.0" r="0.2" />
<circle cx="23.1" cy="9.0" r="0.2" />
<circle cx="23.3" cy="6.0" r="0.2" />
<circle cx="23.5" cy="5.0" r="0.2" />
<circle cx="23.8" cy="7.0" r="0.2" />
<circle cx="24.0" cy="8.0" r="0.2" />
<circle cx="24.2" cy="7.0" r="0.2" />
<circle cx="24.4" cy="7.0" r="0.2" />
<circle cx="24.6" cy="8.0" r="0.2" />
<circle cx="24.8" cy="7.0" r="0.2" />
<circle cx="25.0" cy="5.0" r="0.2" />
<circle cx="25.2" cy="4.0" r="0.2" />
<circle cx="25.4" cy="5.0" r="0.2" />
<circle cx="25.6" cy="5.0" r="0.2" />
<circle cx="25.9" cy="4.0" r="0.2" />
<circle cx="26.1" cy="3.0" r="0.2" />
<circle cx="26.3" cy="3.0" r="0.2" />
<circle cx="26.5" cy="2.0" r="0.2" />
<circle cx="26.7" cy="1.0" r="0.2" />
<circle cx="26.9" cy="8.0" r="0.2" />
<circle cx="27.1" cy="13.0" r="0.2" />
<circle cx="27.3" cy="17.0" r="0.2" />
<circle cx="27.5" cy="16.0" r="0.2" />
<circle cx="27.7" cy="19.0" r="0.2" />
<circle cx="28.0" cy="23.0" r="0.2" />
<circle cx="28.2" cy="22.0" r="0.2" />
<circle cx="28.4" cy="17.0" r="0.2" />
<circle cx="28.6" cy="19.0" r="0.2" />
<circle cx="28.8" cy="26.0" r="0.2" />
<circle cx="29.0" cy="29.0" r="0.2" />
<circle cx="29.2" cy="25.0" r="0.2" />
<circle cx="29.4" cy="24.0" r="0.2" />
<circle cx="29.6" cy="27.0" r="0.2" />
<circle cx="29.9" cy="23.0" r="0.2" />
<circle cx="30.1" cy="16.0" r="0.2" />
<circle cx="30.3" cy="17.0" r="0.2" />
<circle cx="30.5" cy="25.0" r="0.2" />
<circle cx="30.7" cy="30.0" r="0.2" />
<circle cx="30.9" cy="27.0" r="0.2" />
<circle cx="31.1" cy="29.0" r="0.2" />
<circle cx="31.3" cy="34.0" r="0.2" />
<circle cx="31.5" cy="31.0" r="0.2" />
<circle cx="31.7" cy="23.0" r="0.2" />
<circle cx="32.0" cy="22.0" r="0.2" />
<circle cx="32.2" cy="29.0" r="0.2" />
<circle cx="32.4" cy="31.0" r="0.2" />
<circle cx="32.6" cy="26.0" r="0.2" />
<circle cx="32.8" cy="23.0" r="0.2" />
<circle cx="33.0" cy="25.0" r="0.2" />
<circle cx="33.2" cy="20.0" r="0.2" />
<circle cx="33.4" cy="13.0" r="0.2" />
<circle cx="33.6" cy="13.0" r="0.2" />
<circle cx="33.8" cy="20.0" r="0.2" />
<circle cx="34.1" cy="25.0" r="0.2" />
<circle cx="34.3" cy="23.0" r="0.2" />
<circle cx="34.5" cy="26.0" r="0.2" />
<circle cx="34.7" cy="31.0" r="0.2" />
<circle cx="34.9" cy="29.0" r="0.2" />
<circle cx="35.1" cy="22.0" r="0.2" />
<circle cx="35.3" cy="23.0" r="0.2" />
<circle cx="35.5" cy="31.0" r="0.2" />
<circle cx="35.7" cy="34.0" r="0.2" />
<circle cx="35.9" cy="29.0" r="0.2" />
<circle cx="36.2" cy="27.0" r="0.2" />
<circle cx="36.4" cy="30.0" r="0.2" />
<circle cx="36.6" cy="25.0" r="0.2" />
<circle cx="36.8" cy="17.0" r="0.2" />
<circle cx="37.0" cy="16.0" r="0.2" />
<circle cx="37.2" cy="23.0" r="0.2" />
<circle cx="37.4" cy="27.0" r="0.2" />
<circle cx="37.6" cy="24.0" r="0.2" />
<circle cx="37.8" cy="25.0" r="0.2" />
<circle cx="38.0" cy="29.0" r="0.2" />
<circle cx="38.3" cy="26.0" r="0.2" />
<circle cx="38.5" cy="19.0" r="0.2" />
<circle cx="38.7" cy="17.0" r="0.2" />
<circle cx="38.9" cy="22.0" r="0.2" />
<circle cx="39.1" cy="23.0" r="0.2" />
<circle cx="39.3" cy="19.0" r="0.2" />
<circle cx="39.5" cy="16.0" r="0.2" />
<circle cx="39.7" cy="17.0" r="0.2" />
<circle cx="39.9" cy="13.0" r="0.2" />
<circle cx="40.2" cy="8.0" r="0.2" />
<circle cx="40.4" cy="7.0" r="0.2" />
<circle cx="40.6" cy="11.0" r="0.2" />
<circle cx="40.8" cy="14.0" r="0.2" />
<circle cx="41.0" cy="13.0" r="0.2" />
<circle cx="41.2" cy="15.0" r="0.2" />
<circle cx="41.4" cy="18.0" r="0.2" />
<circle cx="41.6" cy="17.0" r="0.2" />
<circle cx="41.8" cy="13.0" r="0.2" />
<circle cx="42.0" cy="14.0" r="0.2" />
<circle cx="42.3" cy="19.0" r="0.2" />
<circle cx="42.5" cy="21.0" r="0.2" />
<circle cx="42.7" cy="18.0" r="0.2" />
<circle cx="42.9" cy="17.0" r="0.2" />
<circle cx="43.1" cy="19.0" r="0.2" />
<circle cx="43.3" cy="16.0" r="0.2" />
<circle cx="43.5" cy="11.0" r="0.2" />
<circle cx="43.7" cy="11.0" r="0.2" />
<circle cx="43.9" cy="16.0" r="0.2" />
<circle cx="44.1" cy="19.0" r="0.2" />
<circle cx="44.4" cy="17.0" r="0.2" />
<circle cx="44.6" cy="18.0" r="0.2" />
<circle cx="44.8" cy="21.0" r="0.2" />
<circle cx="45.0" cy="19.0" r="0.2" />
<circle cx="45.2" cy="14.0" r="0.2" />
<circle cx="45.4" cy="13.0" r="0.2" />
<circle cx="45.6" cy="17.0" r="0.2" />
<circle cx="45.8" cy="18.0" r="0.2" />
<circle cx="46.0" cy="15.0" r="0.2" />
<circle cx="46.2" cy="13.0" r="0.2" />
<circle cx="46.5" cy="14.0" r="0.2" />
<circle cx="46.7" cy="11.0" r="0.2" />
<circle cx="46.9" cy="7.0" r="0.2" />
<circle cx="47.1" cy="6.0" r="0.2" />
<circle cx="47.3" cy="9.0" r="0.2" />
<circle cx="47.5" cy="11.0" r="0.2" />
<circle cx="47.7" cy="10.0" r="0.2" />
<circle cx="47.9" cy="11.0" r="0.2" />
<circle cx="48.1" cy="13.0" r="0.2" />
<circle cx="48.3" cy="12.0" r="0.2" />
<circle cx="48.6" cy="9.0" r="0.2" />
<circle cx="48.8" cy="9.0" r="0.2" />
<circle cx="49.0" cy="12.0" r="0.2" />
<circle cx="49.2" cy="13.0" r="0.2" />
<circle cx="49.4" cy="11.0" r="0.2" />
<circle cx="49.6" cy="10.0" r="0.2" />
<circle cx="49.8" cy="11.0" r="0.2" />
<circle cx="50.0" cy="9.0" r="0.2" />
<circle cx="50.2" cy="6.0" r="0.2" />
<circle cx="50.5" cy="5.0" r="0.2" />
<circle cx="50.7" cy="7.0" r="0.2" />
<circle cx="50.9" cy="8.0" r="0.2" />
<circle cx="51.1" cy="7.0" r="0.2" />
<circle cx="51.3" cy="7.0" r="0.2" />
<circle cx="51.5" cy="8.0" r="0.2" />
<circle cx="51.7" cy="7.0" r="0.2" />
<circle cx="51.9" cy="5.0" r="0.2" />
<circle cx="52.1" cy="4.0" r="0.2" />
<circle cx="52.3" cy="5.0" r="0.2" />
<circle cx="52.6" cy="5.0" r="0.2" />
<circle cx="52.8" cy="4.0" r="0.2" />
<circle cx="53.0" cy="3.0" r="0.2" />
<circle cx="53.2" cy="3.0" r="0.2" />
<circle cx="53.4" cy="2.0" r="0.2" />
<circle cx="53.6" cy="1.0" r="0.2" />
</g>
</svg>