<svg xmlns="http://www.w3.org/2000/svg" width="161.8" height="100.0" viewBox="-2 -5 172 110">
<g fill="none" stroke="black" stroke-width="2.6050%" transform="translate(0, 100.0000) scale(0.1919, -0.1919)">

<line x1="26" y1="0" x2="26" y2="1" />
<line x1="40" y1="0" x2="40" y2="2" />
<line x1="53" y1="0" x2="53" y2="3" />
<line x1="66" y1="0" x2="66" y2="4" />
<line x1="79" y1="0" x2="79" y2="5" />
<line x1="92" y1="0" x2="92" y2="7" />
<line x1="105" y1="0" x2="105" y2="8" />
<line x1="119" y1="0" x2="119" y2="9" />
<line x1="132" y1="0" x2="132" y2="11" />
<line x1="145" y1="0" x2="145" y2="13" />
<line x1="158" y1="0" x2="158" y2="14" />
<line x1="171" y1="0" x2="171" y2="15" />
<line x1="184" y1="0" x2="184" y2="18" />
<line x1="198" y1="0" x2="198" y2="19" />
<line x1="211" y1="0" x2="211" y2="21" />
<line x1="224" y1="0" x2="224" y2="23" />
<line x1="237" y1="0" x2="237" y2="26" />
<line x1="250" y1="0" x2="250" y2="29" />
<line x1="263" y1="0" x2="263" y2="30" />
<line x1="277" y1="0" x2="277" y2="34" />
<line x1="290" y1="0" x2="290" y2="37" />
<line x1="303" y1="0" x2="303" y2="41" />
<line x1="316" y1="0" x2="316" y2="47" />
<line x1="329" y1="0" x2="329" y2="49" />
<line x1="342" y1="0" x2="342" y2="50" />
<line x1="356" y1="0" x2="356" y2="55" />
<line x1="369" y1="0" x2="369" y2="60" />
<line x1="382" y1="0" x2="382" y2="67" />
<line x1="395" y1="0" x2="395" y2="69" />
<line x1="408" y1="0" x2="408" y2="76" />
<line x1="421" y1="0" x2="421" y2="79" />
<line x1="435" y1="0" x2="435" y2="89" />
<line x1="448" y1="0" x2="448" y2="97" />
<line x1="461" y1="0" x2="461" y2="108" />
<line x1="474" y1="0" x2="474" y2="109" />
<line x1="487" y1="0" x2="487" y2="123" />
<line x1="501" y1="0" x2="501" y2="128" />
<line x1="514" y1="0" x2="514" y2="129" />
<line x1="527" y1="0" x2="527" y2="131" />
<line x1="540" y1="0" x2="540" y2="144" />
<line x1="553" y1="0" x2="553" y2="157" />
<line x1="566" y1="0" x2="566" y2="175" />
<line x1="580" y1="0" x2="580" y2="178" />
<line x1="593" y1="0" x2="593" y2="181" />
<line x1="606" y1="0" x2="606" y2="199" />
<line x1="619" y1="0" x2="619" y2="207" />
<line x1="632" y1="0" x2="632" y2="208" />
<line x1="645" y1="0" x2="645" y2="233" />
<line x1="659" y1="0" x2="659" y2="254" />
<line x1="672" y1="0" x2="672" y2="257" />
<line x1="685" y1="0" x2="685" y2="283" />
<line x1="698" y1="0" x2="698" y2="287" />
<line x1="711" y1="0" x2="711" y2="322" />
<line x1="724" y1="0" x2="724" y2="335" />
<line x1="738" y1="0" x2="738" y2="337" />
<line x1="751" y1="0" x2="751" y2="338" />
<line x1="764" y1="0" x2="764" y2="343" />
<line x1="777" y1="0" x2="777" y2="377" />
<line x1="790" y1="0" x2="790" y2="411" />
<line x1="803" y1="0" x2="803" y2="458" />
<line x1="817" y1="0" x2="817" y2="465" />
<line x1="830" y1="0" x2="830" y2="467" />
<line x1="843" y1="0" x2="843" y2="474" />
<line x1="856" y1="0" x2="856" y2="521" />
</g>
</svg>