<svg xmlns="http://www.w3.org/2000/svg" width="161.8" height="100.0" viewBox="-4.4 -2.0 171.8 110.0">
<g fill="none" stroke="black" stroke-width="0.1650%" transform="translate(0, 106.0606) scale(3.0303, -3.0303)">
<circle cx="0.2" cy="1.0" r="0.2" />
<circle cx="0.4" cy="1.0" r="0.2" />
<circle cx="0.6" cy="1.0" r="0.2" />
<circle cx="0.8" cy="2.0" r="0.2" />
<circle cx="1.0" cy="1.0" r="0.2" />
<circle cx="1.2" cy="1.0" r="0.2" />
<circle cx="1.4" cy="3.0" r="0.2" />
<circle cx="1.6" cy="2.0" r="0.2" />
<circle cx="1.8" cy="3.0" r="0.2" />
<circle cx="2.0" cy="1.0" r="0.2" />
<circle cx="2.2" cy="1.0" r="0.2" />
<circle cx="2.4" cy="4.0" r="0.2" />
<circle cx="2.6" cy="3.0" r="0.2" />
<circle cx="2.9" cy="5.0" r="0.2" />
<circle cx="3.1" cy="2.0" r="0.2" />
<circle cx="3.3" cy="5.0" r="0.2" />
<circle cx="3.5" cy="3.0" r="0.2" />
<circle cx="3.7" cy="4.0" r="0.2" />
<circle cx="3.9" cy="1.0" r="0.2" />
<circle cx="4.1" cy="1.0" r="0.2" />
<circle cx="4.3" cy="5.0" r="0.2" />
<circle cx="4.5" cy="4.0" r="0.2" />
<circle cx="4.7" cy="7.0" r="0.2" />
<circle cx="4.9" cy="3.0" r="0.2" />
<circle cx="5.1" cy="8.0" r="0.2" />
<circle cx="5.3" cy="5.0" r="0.2" />
<circle cx="5.5" cy="7.0" r="0.2" />
<circle cx="5.7" cy="2.0" r="0.2" />
<circle cx="5.9" cy="7.0" r="0.2" />
<circle cx="6.1" cy="5.0" r="0.2" />
<circle cx="6.3" cy="8.0" r="0.2" />
<circle cx="6.5" cy="3.0" r="0.2" />
<circle cx="6.7" cy="7.0" r="0.2" />
<circle cx="6.9" cy="4.0" r="0.2" />
<circle cx="7.1" cy="5.0" r="0.2" />
<circle cx="7.3" cy="1.0" r="0.2" />
<circle cx="7.5" cy="1.0" r="0.2" />
<circle cx="7.7" cy="6.0" r="0.2" />
<circle cx="7.9" cy="5.0" r="0.2" />
<circle cx="8.2" cy="9.0" r="0.2" />
<circle cx="8.4" cy="4.0" r="0.2" />
<circle cx="8.6" cy="11.0" r="0.2" />
<circle cx="8.8" cy="7.0" r="0.2" />
<circle cx="9.0" cy="10.0" r="0.2" />
<circle cx="9.2" cy="3.0" r="0.2" />
<circle cx="9.4" cy="11.0" r="0.2" />
<circle cx="9.6" cy="8.0" r="0.2" />
<circle cx="9.8" cy="13.0" r="0.2" />
<circle cx="10.0" cy="5.0" r="0.2" />
<circle cx="10.2" cy="12.0" r="0.2" />
<circle cx="10.4" cy="7.0" r="0.2" />
<circle cx="10.6" cy="9.0" r="0.2" />
<circle cx="10.8" cy="2.0" r="0.2" />
<circle cx="11.0" cy="9.0" r="0.2" />
<circle cx="11.2" cy="7.0" r="0.2" />
<circle cx="11.4" cy="12.0" r="0.2" />
<circle cx="11.6" cy="5.0" r="0.2" />
<circle cx="11.8" cy="13.0" r="0.2" />
<circle cx="12.0" cy="8.0" r="0.2" />
<circle cx="12.2" cy="11.0" r="0.2" />
<circle cx="12.4" cy="3.0" r="0.2" />
<circle cx="12.6" cy="10.0" r="0.2" />
<circle cx="12.8" cy="7.0" r="0.2" />
<circle cx="13.0" cy="11.0" r="0.2" />
<circle cx="13.2" cy="4.0" r="0.2" />
<circle cx="13.5" cy="9.0" r="0.2" />
<circle cx="13.7" cy="5.0" r="0.2" />
<circle cx="13.9" cy="6.0" r="0.2" />
<circle cx="14.1" cy="1.0" r="0.2" />
<circle cx="14.3" cy="1.0" r="0.2" />
<circle cx="14.5" cy="7.0" r="0.2" />
<circle cx="14.7" cy="6.0" r="0.2" />
<circle cx="14.9" cy="11.0" r="0.2" />
<circle cx="15.1" cy="5.0" r="0.2" />
<circle cx="15.3" cy="14.0" r="0.2" />
<circle cx="15.5" cy="9.0" r="0.2" />
<circle cx="15.7" cy="13.0" r="0.2" />
<circle cx="15.9" cy="4.0" r="0.2" />
<circle cx="16.1" cy="15.0" r="0.2" />
<circle cx="16.3" cy="11.0" r="0.2" />
<circle cx="16.5" cy="18.0" r="0.2" />
<circle cx="16.7" cy="7.0" r="0.2" />
<circle cx="16.9" cy="17.0" r="0.2" />
<circle cx="17.1" cy="10.0" r="0.2" />
<circle cx="17.3" cy="13.0" r="0.2" />
<circle cx="17.5" cy="3.0" r="0.2" />
<circle cx="17.7" cy="14.0" r="0.2" />
<circle cx="17.9" cy="11.0" r="0.2" />
<circle cx="18.1" cy="19.0" r="0.2" />
<circle cx="18.3" cy="8.0" r="0.2" />
<circle cx="18.5" cy="21.0" r="0.2" />
<circle cx="18.7" cy="13.0" r="0.2" />
<circle cx="19.0" cy="18.0" r="0.2" />
<circle cx="19.2" cy="5.0" r="0.2" />
<circle cx="19.4" cy="17.0" r="0.2" />
<circle cx="19.6" cy="12.0" r="0.2" />
<circle cx="19.8" cy="19.0" r="0.2" />
<circle cx="20.0" cy="7.0" r="0.2" />
<circle cx="20.2" cy="16.0" r="0.2" />
<circle cx="20.4" cy="9.0" r="0.2" />
<circle cx="20.6" cy="11.0" r="0.2" />
<circle cx="20.8" cy="2.0" r="0.2" />
<circle cx="21.0" cy="11.0" r="0.2" />
<circle cx="21.2" cy="9.0" r="0.2" />
<circle cx="21.4" cy="16.0" r="0.2" />
<circle cx="21.6" cy="7.0" r="0.2" />
<circle cx="21.8" cy="19.0" r="0.2" />
<circle cx="22.0" cy="12.0" r="0.2" />
<circle cx="22.2" cy="17.0" r="0.2" />
<circle cx="22.4" cy="5.0" r="0.2" />
<circle cx="22.6" cy="18.0" r="0.2" />
<circle cx="22.8" cy="13.0" r="0.2" />
<circle cx="23.0" cy="21.0" r="0.2" />
<circle cx="23.2" cy="8.0" r="0.2" />
<circle cx="23.4" cy="19.0" r="0.2" />
<circle cx="23.6" cy="11.0" r="0.2" />
<circle cx="23.8" cy="14.0" r="0.2" />
<circle cx="24.0" cy="3.0" r="0.2" />
<circle cx="24.3" cy="13.0" r="0.2" />
<circle cx="24.5" cy="10.0" r="0.2" />
<circle cx="24.7" cy="17.0" r="0.2" />
<circle cx="24.9" cy="7.0" r="0.2" />
<circle cx="25.1" cy="18.0" r="0.2" />
<circle cx="25.3" cy="11.0" r="0.2" />
<circle cx="25.5" cy="15.0" r="0.2" />
<circle cx="25.7" cy="4.0" r="0.2" />
<circle cx="25.9" cy="13.0" r="0.2" />
<circle cx="26.1" cy="9.0" r="0.2" />
<circle cx="26.3" cy="14.0" r="0.2" />
<circle cx="26.5" cy="5.0" r="0.2" />
<circle cx="26.7" cy="11.0" r="0.2" />
<circle cx="26.9" cy="6.0" r="0.2" />
<circle cx="27.1" cy="7.0" r="0.2" />
<circle cx="27.3" cy="1.0" r="0.2" />
<circle cx="27.5" cy="1.0" r="0.2" />
<circle cx="27.7" cy="8.0" r="0.2" />
<circle cx="27.9" cy="7.0" r="0.2" />
<circle cx="28.1" cy="13.0" r="0.2" />
<circle cx="28.3" cy="6.0" r="0.2" />
<circle cx="28.5" cy="17.0" r="0.2" />
<circle cx="28.7" cy="11.0" r="0.2" />
<circle cx="28.9" cy="16.0" r="0.2" />
<circle cx="29.1" cy="5.0" r="0.2" />
<circle cx="29.3" cy="19.0" r="0.2" />
<circle cx="29.6" cy="14.0" r="0.2" />
<circle cx="29.8" cy="23.0" r="0.2" />
<circle cx="30.0" cy="9.0" r="0.2" />
<circle cx="30.2" cy="22.0" r="0.2" />
<circle cx="30.4" cy="13.0" r="0.2" />
<circle cx="30.6" cy="17.0" r="0.2" />
<circle cx="30.8" cy="4.0" r="0.2" />
<circle cx="31.0" cy="19.0" r="0.2" />
<circle cx="31.2" cy="15.0" r="0.2" />
<circle cx="31.4" cy="26.0" r="0.2" />
<circle cx="31.6" cy="11.0" r="0.2" />
<circle cx="31.8" cy="29.0" r="0.2" />
<circle cx="32.0" cy="18.0" r="0.2" />
<circle cx="32.2" cy="25.0" r="0.2" />
<circle cx="32.4" cy="7.0" r="0.2" />
<circle cx="32.6" cy="24.0" r="0.2" />
<circle cx="32.8" cy="17.0" r="0.2" />
<circle cx="33.0" cy="27.0" r="0.2" />
<circle cx="33.2" cy="10.0" r="0.2" />
<circle cx="33.4" cy="23.0" r="0.2" />
<circle cx="33.6" cy="13.0" r="0.2" />
<circle cx="33.8" cy="16.0" r="0.2" />
<circle cx="34.0" cy="3.0" r="0.2" />
<circle cx="34.2" cy="17.0" r="0.2" />
<circle cx="34.4" cy="14.0" r="0.2" />
<circle cx="34.6" cy="25.0" r="0.2" />
<circle cx="34.8" cy="11.0" r="0.2" />
<circle cx="35.1" cy="30.0" r="0.2" />
<circle cx="35.3" cy="19.0" r="0.2" />
<circle cx="35.5" cy="27.0" r="0.2" />
<circle cx="35.7" cy="8.0" r="0.2" />
<circle cx="35.9" cy="29.0" r="0.2" />
<circle cx="36.1" cy="21.0" r="0.2" />
<circle cx="36.3" cy="34.0" r="0.2" />
<circle cx="36.5" cy="13.0" r="0.2" />
<circle cx="36.7" cy="31.0" r="0.2" />
<circle cx="36.9" cy="18.0" r="0.2" />
<circle cx="37.1" cy="23.0" r="0.2" />
<circle cx="37.3" cy="5.0" r="0.2" />
<circle cx="37.5" cy="22.0" r="0.2" />
<circle cx="37.7" cy="17.0" r="0.2" />
<circle cx="37.9" cy="29.0" r="0.2" />
<circle cx="38.1" cy="12.0" r="0.2" />
<circle cx="38.3" cy="31.0" r="0.2" />
<circle cx="38.5" cy="19.0" r="0.2" />
<circle cx="38.7" cy="26.0" r="0.2" />
<circle cx="38.9" cy="7.0" r="0.2" />
<circle cx="39.1" cy="23.0" r="0.2" />
<circle cx="39.3" cy="16.0" r="0.2" />
<circle cx="39.5" cy="25.0" r="0.2" />
<circle cx="39.7" cy="9.0" r="0.2" />
<circle cx="39.9" cy="20.0" r="0.2" />
<circle cx="40.1" cy="11.0" r="0.2" />
<circle cx="40.4" cy="13.0" r="0.2" />
<circle cx="40.6" cy="2.0" r="0.2" />
<circle cx="40.8" cy="13.0" r="0.2" />
<circle cx="41.0" cy="11.0" r="0.2" />
<circle cx="41.2" cy="20.0" r="0.2" />
<circle cx="41.4" cy="9.0" r="0.2" />
<circle cx="41.6" cy="25.0" r="0.2" />
<circle cx="41.8" cy="16.0" r="0.2" />
<circle cx="42.0" cy="23.0" r="0.2" />
<circle cx="42.2" cy="7.0" r="0.2" />
<circle cx="42.4" cy="26.0" r="0.2" />
<circle cx="42.6" cy="19.0" r="0.2" />
<circle cx="42.8" cy="31.0" r="0.2" />
<circle cx="43.0" cy="12.0" r="0.2" />
<circle cx="43.2" cy="29.0" r="0.2" />
<circle cx="43.4" cy="17.0" r="0.2" />
<circle cx="43.6" cy="22.0" r="0.2" />
<circle cx="43.8" cy="5.0" r="0.2" />
<circle cx="44.0" cy="23.0" r="0.2" />
<circle cx="44.2" cy="18.0" r="0.2" />
<circle cx="44.4" cy="31.0" r="0.2" />
<circle cx="44.6" cy="13.0" r="0.2" />
<circle cx="44.8" cy="34.0" r="0.2" />
<circle cx="45.0" cy="21.0" r="0.2" />
<circle cx="45.2" cy="29.0" r="0.2" />
<circle cx="45.4" cy="8.0" r="0.2" />
<circle cx="45.7" cy="27.0" r="0.2" />
<circle cx="45.9" cy="19.0" r="0.2" />
<circle cx="46.1" cy="30.0" r="0.2" />
<circle cx="46.3" cy="11.0" r="0.2" />
<circle cx="46.5" cy="25.0" r="0.2" />
<circle cx="46.7" cy="14.0" r="0.2" />
<circle cx="46.9" cy="17.0" r="0.2" />
<circle cx="47.1" cy="3.0" r="0.2" />
<circle cx="47.3" cy="16.0" r="0.2" />
<circle cx="47.5" cy="13.0" r="0.2" />
<circle cx="47.7" cy="23.0" r="0.2" />
<circle cx="47.9" cy="10.0" r="0.2" />
<circle cx="48.1" cy="27.0" r="0.2" />
<circle cx="48.3" cy="17.0" r="0.2" />
<circle cx="48.5" cy="24.0" r="0.2" />
<circle cx="48.7" cy="7.0" r="0.2" />
<circle cx="48.9" cy="25.0" r="0.2" />
<circle cx="49.1" cy="18.0" r="0.2" />
<circle cx="49.3" cy="29.0" r="0.2" />
<circle cx="49.5" cy="11.0" r="0.2" />
<circle cx="49.7" cy="26.0" r="0.2" />
<circle cx="49.9" cy="15.0" r="0.2" />
<circle cx="50.1" cy="19.0" r="0.2" />
<circle cx="50.3" cy="4.0" r="0.2" />
<circle cx="50.5" cy="17.0" r="0.2" />
<circle cx="50.7" cy="13.0" r="0.2" />
<circle cx="50.9" cy="22.0" r="0.2" />
<circle cx="51.2" cy="9.0" r="0.2" />
<circle cx="51.4" cy="23.0" r="0.2" />
<circle cx="51.6" cy="14.0" r="0.2" />
<circle cx="51.8" cy="19.0" r="0.2" />
<circle cx="52.0" cy="5.0" r="0.2" />
<circle cx="52.2" cy="16.0" r="0.2" />
<circle cx="52.4" cy="11.0" r="0.2" />
<circle cx="52.6" cy="17.0" r="0.2" />
<circle cx="52.8" cy="6.0" r="0.2" />
<circle cx="53.0" cy="13.0" r="0.2" />
<circle cx="53.2" cy="7.0" r="0.2" />
<circle cx="53.4" cy="8.0" r="0.2" />
<circle cx="53.6" cy="1.0" r="0.2" />
</g>
</svg>