<svg xmlns="http://www.w3.org/2000/svg" width="161.8" height="100.0" viewBox="-4.5 -2.8 171.8 110.0">
<g fill="none" stroke="black" stroke-width="0.2300%" transform="translate(0, 104.3478) scale(2.1739, -2.1739)">
<circle cx="0.2" cy="1.0" r="0.2" />
<circle cx="0.5" cy="1.0" r="0.2" />
<circle cx="0.7" cy="2.0" r="0.2" />
<circle cx="1.0" cy="1.0" r="0.2" />
<circle cx="1.2" cy="3.0" r="0.2" />
<circle cx="1.5" cy="2.0" r="0.2" />
<circle cx="1.7" cy="3.0" r="0.2" />
<circle cx="2.0" cy="1.0" r="0.2" />
<circle cx="2.2" cy="4.0" r="0.2" />
<circle cx="2.5" cy="3.0" r="0.2" />
<circle cx="2.7" cy="5.0" r="0.2" />
<circle cx="3.0" cy="2.0" r="0.2" />
<circle cx="3.2" cy="5.0" r="0.2" />
<circle cx="3.5" cy="3.0" r="0.2" />
<circle cx="3.7" cy="4.0" r="0.2" />
<circle cx="4.0" cy="1.0" r="0.2" />
<circle cx="4.2" cy="5.0" r="0.2" />
<circle cx="4.5" cy="4.0" r="0.2" />
<circle cx="4.7" cy="7.0" r="0.2" />
<circle cx="5.0" cy="3.0" r="0.2" />
<circle cx="5.2" cy="8.0" r="0.2" />
<circle cx="5.5" cy="5.0" r="0.2" />
<circle cx="5.7" cy="7.0" r="0.2" />
<circle cx="6.0" cy="2.0" r="0.2" />
<circle cx="6.2" cy="7.0" r="0.2" />
<circle cx="6.5" cy="5.0" r="0.2" />
<circle cx="6.7" cy="8.0" r="0.2" />
<circle cx="7.0" cy="3.0" r="0.2" />
<circle cx="7.2" cy="7.0" r="0.2" />
<circle cx="7.5" cy="4.0" r="0.2" />
<circle cx="7.7" cy="5.0" r="0.2" />
<circle cx="8.0" cy="1.0" r="0.2" />
<circle cx="8.2" cy="6.0" r="0.2" />
<circle cx="8.5" cy="5.0" r="0.2" />
<circle cx="8.7" cy="9.0" r="0.2" />
<circle cx="9.0" cy="4.0" r="0.2" />
<circle cx="9.2" cy="11.0" r="0.2" />
<circle cx="9.5" cy="7.0" r="0.2" />
<circle cx="9.7" cy="10.0" r="0.2" />
<circle cx="10.0" cy="3.0" r="0.2" />
<circle cx="10.2" cy="11.0" r="0.2" />
<circle cx="10.5" cy="8.0" r="0.2" />
<circle cx="10.7" cy="13.0" r="0.2" />
<circle cx="11.0" cy="5.0" r="0.2" />
<circle cx="11.2" cy="12.0" r="0.2" />
<circle cx="11.5" cy="7.0" r="0.2" />
<circle cx="11.7" cy="9.0" r="0.2" />
<circle cx="11.9" cy="2.0" r="0.2" />
<circle cx="12.2" cy="9.0" r="0.2" />
<circle cx="12.4" cy="7.0" r="0.2" />
<circle cx="12.7" cy="12.0" r="0.2" />
<circle cx="12.9" cy="5.0" r="0.2" />
<circle cx="13.2" cy="13.0" r="0.2" />
<circle cx="13.4" cy="8.0" r="0.2" />
<circle cx="13.7" cy="11.0" r="0.2" />
<circle cx="13.9" cy="3.0" r="0.2" />
<circle cx="14.2" cy="10.0" r="0.2" />
<circle cx="14.4" cy="7.0" r="0.2" />
<circle cx="14.7" cy="11.0" r="0.2" />
<circle cx="14.9" cy="4.0" r="0.2" />
<circle cx="15.2" cy="9.0" r="0.2" />
<circle cx="15.4" cy="5.0" r="0.2" />
<circle cx="15.7" cy="6.0" r="0.2" />
<circle cx="15.9" cy="1.0" r="0.2" />
<circle cx="16.2" cy="7.0" r="0.2" />
<circle cx="16.4" cy="6.0" r="0.2" />
<circle cx="16.7" cy="11.0" r="0.2" />
<circle cx="16.9" cy="5.0" r="0.2" />
<circle cx="17.2" cy="14.0" r="0.2" />
<circle cx="17.4" cy="9.0" r="0.2" />
<circle cx="17.7" cy="13.0" r="0.2" />
<circle cx="17.9" cy="4.0" r="0.2" />
<circle cx="18.2" cy="15.0" r="0.2" />
<circle cx="18.4" cy="11.0" r="0.2" />
<circle cx="18.7" cy="18.0" r="0.2" />
<circle cx="18.9" cy="7.0" r="0.2" />
<circle cx="19.2" cy="17.0" r="0.2" />
<circle cx="19.4" cy="10.0" r="0.2" />
<circle cx="19.7" cy="13.0" r="0.2" />
<circle cx="19.9" cy="3.0" r="0.2" />
<circle cx="20.2" cy="14.0" r="0.2" />
<circle cx="20.4" cy="11.0" r="0.2" />
<circle cx="20.7" cy="19.0" r="0.2" />
<circle cx="20.9" cy="8.0" r="0.2" />
<circle cx="21.2" cy="21.0" r="0.2" />
<circle cx="21.4" cy="13.0" r="0.2" />
<circle cx="21.7" cy="18.0" r="0.2" />
<circle cx="21.9" cy="5.0" r="0.2" />
<circle cx="22.2" cy="17.0" r="0.2" />
<circle cx="22.4" cy="12.0" r="0.2" />
<circle cx="22.7" cy="19.0" r="0.2" />
<circle cx="22.9" cy="7.0" r="0.2" />
<circle cx="23.2" cy="16.0" r="0.2" />
<circle cx="23.4" cy="9.0" r="0.2" />
<circle cx="23.6" cy="11.0" r="0.2" />
<circle cx="23.9" cy="2.0" r="0.2" />
<circle cx="24.1" cy="11.0" r="0.2" />
<circle cx="24.4" cy="9.0" r="0.2" />
<circle cx="24.6" cy="16.0" r="0.2" />
<circle cx="24.9" cy="7.0" r="0.2" />
<circle cx="25.1" cy="19.0" r="0.2" />
<circle cx="25.4" cy="12.0" r="0.2" />
<circle cx="25.6" cy="17.0" r="0.2" />
<circle cx="25.9" cy="5.0" r="0.2" />
<circle cx="26.1" cy="18.0" r="0.2" />
<circle cx="26.4" cy="13.0" r="0.2" />
<circle cx="26.6" cy="21.0" r="0.2" />
<circle cx="26.9" cy="8.0" r="0.2" />
<circle cx="27.1" cy="19.0" r="0.2" />
<circle cx="27.4" cy="11.0" r="0.2" />
<circle cx="27.6" cy="14.0" r="0.2" />
<circle cx="27.9" cy="3.0" r="0.2" />
<circle cx="28.1" cy="13.0" r="0.2" />
<circle cx="28.4" cy="10.0" r="0.2" />
<circle cx="28.6" cy="17.0" r="0.2" />
<circle cx="28.9" cy="7.0" r="0.2" />
<circle cx="29.1" cy="18.0" r="0.2" />
<circle cx="29.4" cy="11.0" r="0.2" />
<circle cx="29.6" cy="15.0" r="0.2" />
<circle cx="29.9" cy="4.0" r="0.2" />
<circle cx="30.1" cy="13.0" r="0.2" />
<circle cx="30.4" cy="9.0" r="0.2" />
<circle cx="30.6" cy="14.0" r="0.2" />
<circle cx="30.9" cy="5.0" r="0.2" />
<circle cx="31.1" cy="11.0" r="0.2" />
<circle cx="31.4" cy="6.0" r="0.2" />
<circle cx="31.6" cy="7.0" r="0.2" />
<circle cx="31.9" cy="1.0" r="0.2" />
<circle cx="32.1" cy="8.0" r="0.2" />
<circle cx="32.4" cy="7.0" r="0.2" />
<circle cx="32.6" cy="13.0" r="0.2" />
<circle cx="32.9" cy="6.0" r="0.2" />
<circle cx="33.1" cy="17.0" r="0.2" />
<circle cx="33.4" cy="11.0" r="0.2" />
<circle cx="33.6" cy="16.0" r="0.2" />
<circle cx="33.9" cy="5.0" r="0.2" />
<circle cx="34.1" cy="19.0" r="0.2" />
<circle cx="34.4" cy="14.0" r="0.2" />
<circle cx="34.6" cy="23.0" r="0.2" />
<circle cx="34.8" cy="9.0" r="0.2" />
<circle cx="35.1" cy="22.0" r="0.2" />
<circle cx="35.3" cy="13.0" r="0.2" />
<circle cx="35.6" cy="17.0" r="0.2" />
<circle cx="35.8" cy="4.0" r="0.2" />
<circle cx="36.1" cy="19.0" r="0.2" />
<circle cx="36.3" cy="15.0" r="0.2" />
<circle cx="36.6" cy="26.0" r="0.2" />
<circle cx="36.8" cy="11.0" r="0.2" />
<circle cx="37.1" cy="29.0" r="0.2" />
<circle cx="37.3" cy="18.0" r="0.2" />
<circle cx="37.6" cy="25.0" r="0.2" />
<circle cx="37.8" cy="7.0" r="0.2" />
<circle cx="38.1" cy="24.0" r="0.2" />
<circle cx="38.3" cy="17.0" r="0.2" />
<circle cx="38.6" cy="27.0" r="0.2" />
<circle cx="38.8" cy="10.0" r="0.2" />
<circle cx="39.1" cy="23.0" r="0.2" />
<circle cx="39.3" cy="13.0" r="0.2" />
<circle cx="39.6" cy="16.0" r="0.2" />
<circle cx="39.8" cy="3.0" r="0.2" />
<circle cx="40.1" cy="17.0" r="0.2" />
<circle cx="40.3" cy="14.0" r="0.2" />
<circle cx="40.6" cy="25.0" r="0.2" />
<circle cx="40.8" cy="11.0" r="0.2" />
<circle cx="41.1" cy="30.0" r="0.2" />
<circle cx="41.3" cy="19.0" r="0.2" />
<circle cx="41.6" cy="27.0" r="0.2" />
<circle cx="41.8" cy="8.0" r="0.2" />
<circle cx="42.1" cy="29.0" r="0.2" />
<circle cx="42.3" cy="21.0" r="0.2" />
<circle cx="42.6" cy="34.0" r="0.2" />
<circle cx="42.8" cy="13.0" r="0.2" />
<circle cx="43.1" cy="31.0" r="0.2" />
<circle cx="43.3" cy="18.0" r="0.2" />
<circle cx="43.6" cy="23.0" r="0.2" />
<circle cx="43.8" cy="5.0" r="0.2" />
<circle cx="44.1" cy="22.0" r="0.2" />
<circle cx="44.3" cy="17.0" r="0.2" />
<circle cx="44.6" cy="29.0" r="0.2" />
<circle cx="44.8" cy="12.0" r="0.2" />
<circle cx="45.1" cy="31.0" r="0.2" />
<circle cx="45.3" cy="19.0" r="0.2" />
<circle cx="45.6" cy="26.0" r="0.2" />
<circle cx="45.8" cy="7.0" r="0.2" />
<circle cx="46.1" cy="23.0" r="0.2" />
<circle cx="46.3" cy="16.0" r="0.2" />
<circle cx="46.5" cy="25.0" r="0.2" />
<circle cx="46.8" cy="9.0" r="0.2" />
<circle cx="47.0" cy="20.0" r="0.2" />
<circle cx="47.3" cy="11.0" r="0.2" />
<circle cx="47.5" cy="13.0" r="0.2" />
<circle cx="47.8" cy="2.0" r="0.2" />
<circle cx="48.0" cy="13.0" r="0.2" />
<circle cx="48.3" cy="11.0" r="0.2" />
<circle cx="48.5" cy="20.0" r="0.2" />
<circle cx="48.8" cy="9.0" r="0.2" />
<circle cx="49.0" cy="25.0" r="0.2" />
<circle cx="49.3" cy="16.0" r="0.2" />
<circle cx="49.5" cy="23.0" r="0.2" />
<circle cx="49.8" cy="7.0" r="0.2" />
<circle cx="50.0" cy="26.0" r="0.2" />
<circle cx="50.3" cy="19.0" r="0.2" />
<circle cx="50.5" cy="31.0" r="0.2" />
<circle cx="50.8" cy="12.0" r="0.2" />
<circle cx="51.0" cy="29.0" r="0.2" />
<circle cx="51.3" cy="17.0" r="0.2" />
<circle cx="51.5" cy="22.0" r="0.2" />
<circle cx="51.8" cy="5.0" r="0.2" />
<circle cx="52.0" cy="23.0" r="0.2" />
<circle cx="52.3" cy="18.0" r="0.2" />
<circle cx="52.5" cy="31.0" r="0.2" />
<circle cx="52.8" cy="13.0" r="0.2" />
<circle cx="53.0" cy="34.0" r="0.2" />
<circle cx="53.3" cy="21.0" r="0.2" />
<circle cx="53.5" cy="29.0" r="0.2" />
<circle cx="53.8" cy="8.0" r="0.2" />
<circle cx="54.0" cy="27.0" r="0.2" />
<circle cx="54.3" cy="19.0" r="0.2" />
<circle cx="54.5" cy="30.0" r="0.2" />
<circle cx="54.8" cy="11.0" r="0.2" />
<circle cx="55.0" cy="25.0" r="0.2" />
<circle cx="55.3" cy="14.0" r="0.2" />
<circle cx="55.5" cy="17.0" r="0.2" />
<circle cx="55.8" cy="3.0" r="0.2" />
<circle cx="56.0" cy="16.0" r="0.2" />
<circle cx="56.3" cy="13.0" r="0.2" />
<circle cx="56.5" cy="23.0" r="0.2" />
<circle cx="56.8" cy="10.0" r="0.2" />
<circle cx="57.0" cy="27.0" r="0.2" />
<circle cx="57.3" cy="17.0" r="0.2" />
<circle cx="57.5" cy="24.0" r="0.2" />
<circle cx="57.8" cy="7.0" r="0.2" />
<circle cx="58.0" cy="25.0" r="0.2" />
<circle cx="58.2" cy="18.0" r="0.2" />
<circle cx="58.5" cy="29.0" r="0.2" />
<circle cx="58.7" cy="11.0" r="0.2" />
<circle cx="59.0" cy="26.0" r="0.2" />
<circle cx="59.2" cy="15.0" r="0.2" />
<circle cx="59.5" cy="19.0" r="0.2" />
<circle cx="59.7" cy="4.0" r="0.2" />
<circle cx="60.0" cy="17.0" r="0.2" />
<circle cx="60.2" cy="13.0" r="0.2" />
<circle cx="60.5" cy="22.0" r="0.2" />
<circle cx="60.7" cy="9.0" r="0.2" />
<circle cx="61.0" cy="23.0" r="0.2" />
<circle cx="61.2" cy="14.0" r="0.2" />
<circle cx="61.5" cy="19.0" r="0.2" />
<circle cx="61.7" cy="5.0" r="0.2" />
<circle cx="62.0" cy="16.0" r="0.2" />
<circle cx="62.2" cy="11.0" r="0.2" />
<circle cx="62.5" cy="17.0" r="0.2" />
<circle cx="62.7" cy="6.0" r="0.2" />
<circle cx="63.0" cy="13.0" r="0.2" />
<circle cx="63.2" cy="7.0" r="0.2" />
<circle cx="63.5" cy="8.0" r="0.2" />
<circle cx="63.7" cy="1.0" r="0.2" />
<circle cx="64.0" cy="9.0" r="0.2" />
<circle cx="64.2" cy="8.0" r="0.2" />
<circle cx="64.5" cy="15.0" r="0.2" />
<circle cx="64.7" cy="7.0" r="0.2" />
<circle cx="65.0" cy="20.0" r="0.2" />
<circle cx="65.2" cy="13.0" r="0.2" />
<circle cx="65.5" cy="19.0" r="0.2" />
<circle cx="65.7" cy="6.0" r="0.2" />
<circle cx="66.0" cy="23.0" r="0.2" />
<circle cx="66.2" cy="17.0" r="0.2" />
<circle cx="66.5" cy="28.0" r="0.2" />
<circle cx="66.7" cy="11.0" r="0.2" />
<circle cx="67.0" cy="27.0" r="0.2" />
<circle cx="67.2" cy="16.0" r="0.2" />
<circle cx="67.5" cy="21.0" r="0.2" />
<circle cx="67.7" cy="5.0" r="0.2" />
<circle cx="68.0" cy="24.0" r="0.2" />
<circle cx="68.2" cy="19.0" r="0.2" />
<circle cx="68.5" cy="33.0" r="0.2" />
<circle cx="68.7" cy="14.0" r="0.2" />
<circle cx="69.0" cy="37.0" r="0.2" />
<circle cx="69.2" cy="23.0" r="0.2" />
<circle cx="69.5" cy="32.0" r="0.2" />
<circle cx="69.7" cy="9.0" r="0.2" />
<circle cx="69.9" cy="31.0" r="0.2" />
<circle cx="70.2" cy="22.0" r="0.2" />
<circle cx="70.4" cy="35.0" r="0.2" />
<circle cx="70.7" cy="13.0" r="0.2" />
<circle cx="70.9" cy="30.0" r="0.2" />
<circle cx="71.2" cy="17.0" r="0.2" />
<circle cx="71.4" cy="21.0" r="0.2" />
<circle cx="71.7" cy="4.0" r="0.2" />
<circle cx="71.9" cy="23.0" r="0.2" />
<circle cx="72.2" cy="19.0" r="0.2" />
<circle cx="72.4" cy="34.0" r="0.2" />
<circle cx="72.7" cy="15.0" r="0.2" />
<circle cx="72.9" cy="41.0" r="0.2" />
<circle cx="73.2" cy="26.0" r="0.2" />
<circle cx="73.4" cy="37.0" r="0.2" />
<circle cx="73.7" cy="11.0" r="0.2" />
<circle cx="73.9" cy="40.0" r="0.2" />
<circle cx="74.2" cy="29.0" r="0.2" />
<circle cx="74.4" cy="47.0" r="0.2" />
<circle cx="74.7" cy="18.0" r="0.2" />
</g>
</svg>