<svg xmlns="http://www.w3.org/2000/svg" width="161.8" height="100.0" viewBox="-3 -5 172 110">
<g fill="none" stroke="black" stroke-width="2.9000%" transform="translate(0, 100.0000) scale(0.1724, -0.1724)">
<circle cx="11" cy="0" r="3" />
<circle cx="22" cy="1" r="3" />
<circle cx="34" cy="2" r="3" />
<circle cx="45" cy="4" r="3" />
<circle cx="56" cy="5" r="3" />
<circle cx="67" cy="8" r="3" />
<circle cx="78" cy="10" r="3" />
<circle cx="89" cy="13" r="3" />
<circle cx="101" cy="14" r="3" />
<circle cx="112" cy="18" r="3" />
<circle cx="123" cy="21" r="3" />
<circle cx="134" cy="26" r="3" />
<circle cx="145" cy="28" r="3" />
<circle cx="156" cy="33" r="3" />
<circle cx="168" cy="36" r="3" />
<circle cx="179" cy="40" r="3" />
<circle cx="190" cy="41" r="3" />
<circle cx="201" cy="46" r="3" />
<circle cx="212" cy="50" r="3" />
<circle cx="223" cy="57" r="3" />
<circle cx="235" cy="60" r="3" />
<circle cx="246" cy="68" r="3" />
<circle cx="257" cy="73" r="3" />
<circle cx="268" cy="80" r="3" />
<circle cx="279" cy="82" r="3" />
<circle cx="290" cy="89" r="3" />
<circle cx="302" cy="94" r="3" />
<circle cx="313" cy="102" r="3" />
<circle cx="324" cy="105" r="3" />
<circle cx="335" cy="112" r="3" />
<circle cx="346" cy="116" r="3" />
<circle cx="358" cy="121" r="3" />
<circle cx="369" cy="122" r="3" />
<circle cx="380" cy="128" r="3" />
<circle cx="391" cy="133" r="3" />
<circle cx="402" cy="142" r="3" />
<circle cx="413" cy="146" r="3" />
<circle cx="425" cy="157" r="3" />
<circle cx="436" cy="164" r="3" />
<circle cx="447" cy="174" r="3" />
<circle cx="458" cy="177" r="3" />
<circle cx="469" cy="188" r="3" />
<circle cx="480" cy="196" r="3" />
<circle cx="492" cy="209" r="3" />
<circle cx="503" cy="214" r="3" />
<circle cx="514" cy="226" r="3" />
<circle cx="525" cy="233" r="3" />
<circle cx="536" cy="242" r="3" />
<circle cx="547" cy="244" r="3" />
<circle cx="559" cy="253" r="3" />
<circle cx="570" cy="260" r="3" />
<circle cx="581" cy="272" r="3" />
<circle cx="592" cy="277" r="3" />
<circle cx="603" cy="290" r="3" />
<circle cx="614" cy="298" r="3" />
<circle cx="626" cy="309" r="3" />
<circle cx="637" cy="312" r="3" />
<circle cx="648" cy="322" r="3" />
<circle cx="659" cy="329" r="3" />
<circle cx="670" cy="340" r="3" />
<circle cx="682" cy="344" r="3" />
<circle cx="693" cy="353" r="3" />
<circle cx="704" cy="358" r="3" />
<circle cx="715" cy="364" r="3" />
<circle cx="726" cy="365" r="3" />
<circle cx="737" cy="372" r="3" />
<circle cx="749" cy="378" r="3" />
<circle cx="760" cy="389" r="3" />
<circle cx="771" cy="394" r="3" />
<circle cx="782" cy="408" r="3" />
<circle cx="793" cy="417" r="3" />
<circle cx="804" cy="430" r="3" />
<circle cx="816" cy="434" r="3" />
<circle cx="827" cy="449" r="3" />
<circle cx="838" cy="460" r="3" />
<circle cx="849" cy="478" r="3" />
<circle cx="860" cy="485" r="3" />
<circle cx="871" cy="502" r="3" />
<circle cx="883" cy="512" r="3" />
<circle cx="894" cy="525" r="3" />
<circle cx="905" cy="528" r="3" />
<circle cx="916" cy="542" r="3" />
<circle cx="927" cy="553" r="3" />
<circle cx="938" cy="572" r="3" />
<circle cx="950" cy="580" r="3" />
</g>
</svg>