<svg xmlns="http://www.w3.org/2000/svg" width="161.8" height="100.0" viewBox="2.3547 -45.5866 171.8034 110.0000">
<g fill="none" stroke="black" stroke-width="0.0002%" transform="translate(0, 18.8268) scale(2555.0085, -2555.0085)">
<line x1="0.0029" y1="0.0000" x2="0.0029" y2="0.0205" />
<line x1="0.0058" y1="0.0000" x2="0.0058" y2="0.0233" />
<line x1="0.0086" y1="0.0000" x2="0.0086" y2="0.0079" />
<line x1="0.0115" y1="0.0000" x2="0.0115" y2="-0.0024" />
<line x1="0.0144" y1="0.0000" x2="0.0144" y2="-0.0053" />
<line x1="0.0173" y1="0.0000" x2="0.0173" y2="-0.0035" />
<line x1="0.0201" y1="0.0000" x2="0.0201" y2="-0.0003" />
<line x1="0.0230" y1="0.0000" x2="0.0230" y2="0.0021" />
<line x1="0.0259" y1="0.0000" x2="0.0259" y2="0.0027" />
<line x1="0.0288" y1="0.0000" x2="0.0288" y2="0.0017" />
<line x1="0.0317" y1="0.0000" x2="0.0317" y2="-0.0003" />
<line x1="0.0345" y1="0.0000" x2="0.0345" y2="-0.0021" />
<line x1="0.0374" y1="0.0000" x2="0.0374" y2="-0.0028" />
<line x1="0.0403" y1="0.0000" x2="0.0403" y2="-0.0020" />
<line x1="0.0432" y1="0.0000" x2="0.0432" y2="0.0003" />
<line x1="0.0461" y1="0.0000" x2="0.0461" y2="0.0031" />
<line x1="0.0489" y1="0.0000" x2="0.0489" y2="0.0050" />
<line x1="0.0518" y1="0.0000" x2="0.0518" y2="0.0047" />
<line x1="0.0547" y1="0.0000" x2="0.0547" y2="0.0010" />
<line x1="0.0576" y1="0.0000" x2="0.0576" y2="-0.0054" />
<line x1="0.0604" y1="0.0000" x2="0.0604" y2="-0.0124" />
<line x1="0.0633" y1="0.0000" x2="0.0633" y2="-0.0159" />
<line x1="0.0662" y1="0.0000" x2="0.0662" y2="-0.0107" />
</g>
</svg>