<svg xmlns="http://www.w3.org/2000/svg" width="110" height="110" viewBox="0 0 110 110">
<g stroke="none" transform="translate(0, 0) scale(1, 1)">
<rect x="0" y="0" width="5" height="5" fill="rgb(0,0,0)"/>
<rect x="0" y="5" width="5" height="5" fill="rgb(0,0,0)"/>
<rect x="0" y="10" width="5" height="5" fill="rgb(0,0,0)"/>
<rect x="0" y="15" width="5" height="5" fill="rgb(0,0,0)"/>
<rect x="0" y="20" width="5" height="5" fill="rgb(0,0,0)"/>
<rect x="0" y="25" width="5" height="5" fill="rgb(0,0,0)"/>
<rect x="0" y="30" width="5" height="5" fill="rgb(0,0,0)"/>
<rect x="0" y="35" width="5" height="5" fill="rgb(0,0,0)"/>
<rect x="0" y="40" width="5" height="5" fill="rgb(0,0,0)"/>
<rect x="0" y="45" width="5" height="5" fill="rgb(0,0,0)"/>
<rect x="0" y="50" width="5" height="5" fill="rgb(0,0,0)"/>
<rect x="0" y="55" width="5" height="5" fill="rgb(0,0,0)"/>
<rect x="0" y="60" width="5" height="5" fill="rgb(0,0,0)"/>
<rect x="0" y="65" width="5" height="5" fill="rgb(0,0,0)"/>
<rect x="0" y="70" width="5" height="5" fill="rgb(0,0,0)"/>
<rect x="0" y="75" width="5" height="5" fill="rgb(0,0,0)"/>
<rect x="0" y="80" width="5" height="5" fill="rgb(0,0,0)"/>
<rect x="0" y="85" width="5" height="5" fill="rgb(0,0,0)"/>
<rect x="0" y="90" width="5" height="5" fill="rgb(0,0,0)"/>
<rect x="0" y="95" width="5" height="5" fill="rgb(0,0,0)"/>
<rect x="0" y="100" width="5" height="5" fill="rgb(0,0,0)"/>
<rect x="0" y="105" width="5" height="5" fill="rgb(0,0,0)"/>
<rect x="5" y="5" width="5" height="5" fill="rgb(0,0,0)"/>
<rect x="5" y="15" width="5" height="5" fill="rgb(0,0,0)"/>
<rect x="5" y="25" width="5" height="5" fill="rgb(0,0,0)"/>
<rect x="5" y="35" width="5" height="5" fill="rgb(0,0,0)"/>
<rect x="5" y="45" width="5" height="5" fill="rgb(0,0,0)"/>
<rect x="5" y="55" width="5" height="5" fill="rgb(0,0,0)"/>
<rect x="5" y="65" width="5" height="5" fill="rgb(0,0,0)"/>
<rect x="5" y="75" width="5" height="5" fill="rgb(0,0,0)"/>
<rect x="5" y="85" width="5" height="5" fill="rgb(0,0,0)"/>
<rect x="5" y="95" width="5" height="5" fill="rgb(0,0,0)"/>
<rect x="5" y="105" width="5" height="5" fill="rgb(0,0,0)"/>
<rect x="10" y="10" width="5" height="5" fill="rgb(0,0,0)"/>
<rect x="10" y="20" width="5" height="5" fill="rgb(0,0,0)"/>
<rect x="10" y="30" width="5" height="5" fill="rgb(0,0,0)"/>
<rect x="10" y="40" width="5" height="5" fill="rgb(0,0,0)"/>
<rect x="10" y="50" width="5" height="5" fill="rgb(0,0,0)"/>
<rect x="10" y="60" width="5" height="5" fill="rgb(0,0,0)"/>
<rect x="10" y="70" width="5" height="5" fill="rgb(0,0,0)"/>
<rect x="10" y="80" width="5" height="5" fill="rgb(0,0,0)"/>
<rect x="10" y="90" width="5" height="5" fill="rgb(0,0,0)"/>
<rect x="10" y="100" width="5" height="5" fill="rgb(0,0,0)"/>
<rect x="15" y="15" width="5" height="5" fill="rgb(0,0,0)"/>
<rect x="15" y="20" width="5" height="5" fill="rgb(0,0,0)"/>
<rect x="15" y="35" width="5" height="5" fill="rgb(0,0,0)"/>
<rect x="15" y="40" width="5" height="5" fill="rgb(0,0,0)"/>
<rect x="15" y="55" width="5" height="5" fill="rgb(0,0,0)"/>
<rect x="15" y="60" width="5" height="5" fill="rgb(0,0,0)"/>
<rect x="15" y="75" width="5" height="5" fill="rgb(0,0,0)"/>
<rect x="15" y="80" width="5" height="5" fill="rgb(0,0,0)"/>
<rect x="15" y="95" width="5" height="5" fill="rgb(0,0,0)"/>
<rect x="15" y="100" width="5" height="5" fill="rgb(0,0,0)"/>
<rect x="20" y="20" width="5" height="5" fill="rgb(0,0,0)"/>
<rect x="20" y="25" width="5" height="5" fill="rgb(0,0,0)"/>
<rect x="20" y="40" width="5" height="5" fill="rgb(0,0,0)"/>
<rect x="20" y="45" width="5" height="5" fill="rgb(0,0,0)"/>
<rect x="20" y="60" width="5" height="5" fill="rgb(0,0,0)"/>
<rect x="20" y="65" width="5" height="5" fill="rgb(0,0,0)"/>
<rect x="20" y="80" width="5" height="5" fill="rgb(0,0,0)"/>
<rect x="20" y="85" width="5" height="5" fill="rgb(0,0,0)"/>
<rect x="20" y="100" width="5" height="5" fill="rgb(0,0,0)"/>
<rect x="20" y="105" width="5" height="5" fill="rgb(0,0,0)"/>
<rect x="25" y="25" width="5" height="5" fill="rgb(0,0,0)"/>
<rect x="25" y="45" width="5" height="5" fill="rgb(0,0,0)"/>
<rect x="25" y="65" width="5" height="5" fill="rgb(0,0,0)"/>
<rect x="25" y="85" width="5" height="5" fill="rgb(0,0,0)"/>
<rect x="30" y="30" width="5" height="5" fill="rgb(0,0,0)"/>
<rect x="30" y="50" width="5" height="5" fill="rgb(0,0,0)"/>
<rect x="30" y="70" width="5" height="5" fill="rgb(0,0,0)"/>
<rect x="30" y="90" width="5" height="5" fill="rgb(0,0,0)"/>
<rect x="35" y="35" width="5" height="5" fill="rgb(0,0,0)"/>
<rect x="35" y="40" width="5" height="5" fill="rgb(0,0,0)"/>
<rect x="35" y="45" width="5" height="5" fill="rgb(0,0,0)"/>
<rect x="35" y="50" width="5" height="5" fill="rgb(0,0,0)"/>
<rect x="35" y="75" width="5" height="5" fill="rgb(0,0,0)"/>
<rect x="35" y="80" width="5" height="5" fill="rgb(0,0,0)"/>
<rect x="35" y="85" width="5" height="5" fill="rgb(0,0,0)"/>
<rect x="35" y="90" width="5" height="5" fill="rgb(0,0,0)"/>
<rect x="40" y="40" width="5" height="5" fill="rgb(0,0,0)"/>
<rect x="40" y="45" width="5" height="5" fill="rgb(0,0,0)"/>
<rect x="40" y="50" width="5" height="5" fill="rgb(0,0,0)"/>
<rect x="40" y="55" width="5" height="5" fill="rgb(0,0,0)"/>
<rect x="40" y="80" width="5" height="5" fill="rgb(0,0,0)"/>
<rect x="40" y="85" width="5" height="5" fill="rgb(0,0,0)"/>
<rect x="40" y="90" width="5" height="5" fill="rgb(0,0,0)"/>
<rect x="40" y="95" width="5" height="5" fill="rgb(0,0,0)"/>
<rect x="45" y="45" width="5" height="5" fill="rgb(0,0,0)"/>
<rect x="45" y="55" width="5" height="5" fill="rgb(0,0,0)"/>
<rect x="45" y="85" width="5" height="5" fill="rgb(0,0,0)"/>
<rect x="45" y="95" width="5" height="5" fill="rgb(0,0,0)"/>
<rect x="45" y="105" width="5" height="5" fill="rgb(0,0,0)"/>
<rect x="50" y="50" width="5" height="5" fill="rgb(0,0,0)"/>
<rect x="50" y="60" width="5" height="5" fill="rgb(0,0,0)"/>
<rect x="50" y="90" width="5" height="5" fill="rgb(0,0,0)"/>
<rect x="50" y="100" width="5" height="5" fill="rgb(0,0,0)"/>
<rect x="55" y="55" width="5" height="5" fill="rgb(0,0,0)"/>
<rect x="55" y="60" width="5" height="5" fill="rgb(0,0,0)"/>
<rect x="55" y="95" width="5" height="5" fill="rgb(0,0,0)"/>
<rect x="55" y="100" width="5" height="5" fill="rgb(0,0,0)"/>
<rect x="60" y="60" width="5" height="5" fill="rgb(0,0,0)"/>
<rect x="60" y="65" width="5" height="5" fill="rgb(0,0,0)"/>
<rect x="60" y="100" width="5" height="5" fill="rgb(0,0,0)"/>
<rect x="60" y="105" width="5" height="5" fill="rgb(0,0,0)"/>
<rect x="65" y="65" width="5" height="5" fill="rgb(0,0,0)"/>
<rect x="65" y="105" width="5" height="5" fill="rgb(0,0,0)"/>
<rect x="70" y="70" width="5" height="5" fill="rgb(0,0,0)"/>
<rect x="75" y="75" width="5" height="5" fill="rgb(0,0,0)"/>
<rect x="75" y="80" width="5" height="5" fill="rgb(0,0,0)"/>
<rect x="75" y="85" width="5" height="5" fill="rgb(0,0,0)"/>
<rect x="75" y="90" width="5" height="5" fill="rgb(0,0,0)"/>
<rect x="75" y="95" width="5" height="5" fill="rgb(0,0,0)"/>
<rect x="75" y="100" width="5" height="5" fill="rgb(0,0,0)"/>
<rect x="75" y="105" width="5" height="5" fill="rgb(0,0,0)"/>
<rect x="80" y="80" width="5" height="5" fill="rgb(0,0,0)"/>
<rect x="80" y="85" width="5" height="5" fill="rgb(0,0,0)"/>
<rect x="80" y="90" width="5" height="5" fill="rgb(0,0,0)"/>
<rect x="80" y="95" width="5" height="5" fill="rgb(0,0,0)"/>
<rect x="80" y="100" width="5" height="5" fill="rgb(0,0,0)"/>
<rect x="80" y="105" width="5" height="5" fill="rgb(0,0,0)"/>
<rect x="85" y="85" width="5" height="5" fill="rgb(0,0,0)"/>
<rect x="85" y="95" width="5" height="5" fill="rgb(0,0,0)"/>
<rect x="85" y="105" width="5" height="5" fill="rgb(0,0,0)"/>
<rect x="90" y="90" width="5" height="5" fill="rgb(0,0,0)"/>
<rect x="90" y="100" width="5" height="5" fill="rgb(0,0,0)"/>
<rect x="95" y="95" width="5" height="5" fill="rgb(0,0,0)"/>
<rect x="95" y="100" width="5" height="5" fill="rgb(0,0,0)"/>
<rect x="100" y="100" width="5" height="5" fill="rgb(0,0,0)"/>
<rect x="100" y="105" width="5" height="5" fill="rgb(0,0,0)"/>
<rect x="105" y="105" width="5" height="5" fill="rgb(0,0,0)"/>
</g>
</svg>