<svg xmlns="http://www.w3.org/2000/svg" width="114.6" height="100.0" viewBox="-62.29 -62.29 124.59 110.00">
<g fill="none" stroke="black" stroke-width="0.0436%" transform="translate(0, -14.5857) scale(11.4586, -11.4586)">
<polyline points="-5.00,3.73 -4.92,3.68 -4.85,3.65 -4.80,3.63 -4.78,3.62 -4.74,3.60 -4.65,3.55 -4.60,3.52 -4.52,3.48 -4.43,3.43 -4.40,3.42 -4.39,3.41 -4.36,3.40 -4.26,3.34 -4.20,3.31 -4.13,3.27 -4.01,3.21 -4.00,3.21 -4.00,3.20 -3.99,3.20 -3.87,3.13 -3.80,3.09 -3.74,3.06 -3.61,3.00 -3.60,3.00 -3.60,3.00 -3.59,2.99 -3.47,2.93 -3.40,2.88 -3.34,2.86 -3.22,2.80 -3.21,2.79 -3.20,2.79 -3.17,2.77 -3.08,2.72 -3.00,2.68 -2.95,2.65 -2.83,2.60 -2.81,2.59 -2.80,2.58 -2.76,2.56 -2.68,2.52 -2.60,2.47 -2.55,2.45 -2.42,2.40 -2.41,2.39 -2.40,2.38 -2.37,2.37 -2.28,2.32 -2.20,2.28 -2.14,2.26 -2.01,2.21 -2.00,2.21 -1.99,2.21 -1.97,2.20 -1.85,2.15 -1.80,2.12 -1.71,2.09 -1.68,2.08 -1.60,2.06 -1.55,2.05 -1.43,2.03 -1.40,2.02 -1.38,2.02 -1.21,2.01 -1.20,2.00 -1.20,2.00 -1.00,2.00 -0.80,2.00 -0.80,2.00 -0.80,2.00 -0.61,2.01 -0.60,2.01 -0.59,2.01 -0.42,2.02 -0.40,2.02 -0.38,2.02 -0.22,2.02 -0.20,2.02 -0.18,2.02 -0.02,2.02 0.00,2.02 0.02,2.02 0.18,2.02 0.20,2.02 0.22,2.02 0.38,2.02 0.40,2.02 0.42,2.02 0.59,2.01 0.60,2.01 0.61,2.01 0.80,2.00 0.80,2.00 0.80,2.00 1.00,2.00 1.20,2.00 1.20,2.00 1.21,2.01 1.38,2.02 1.40,2.02 1.43,2.03 1.55,2.05 1.60,2.06 1.68,2.08 1.71,2.09 1.80,2.12 1.85,2.15 1.97,2.20 1.99,2.21 2.00,2.21 2.01,2.21 2.14,2.26 2.20,2.28 2.28,2.32 2.37,2.37 2.40,2.38 2.41,2.39 2.42,2.40 2.55,2.45 2.60,2.47 2.68,2.52 2.76,2.56 2.80,2.58 2.81,2.59 2.83,2.60 2.95,2.65 3.00,2.68 3.08,2.72 3.17,2.77 3.20,2.79 3.21,2.79 3.22,2.80 3.34,2.86 3.40,2.88 3.47,2.93 3.59,2.99 3.60,3.00 3.60,3.00 3.61,3.00 3.74,3.06 3.80,3.09 3.87,3.13 3.99,3.20 4.00,3.20 4.00,3.21 4.01,3.21 4.13,3.27 4.20,3.31 4.26,3.34 4.36,3.40 4.39,3.41 4.40,3.42 4.43,3.43 4.52,3.48 4.60,3.52 4.65,3.55 4.74,3.60 4.78,3.62 4.80,3.63 4.85,3.65 4.92,3.68 5.00,3.73" />
<polyline points="-1.00,2.00 -1.00,2.00 -1.00,2.00 -1.00,2.00 -1.00,2.00" />
<polyline points="1.00,2.00 1.00,2.00 1.00,2.00 1.00,2.00 1.00,2.00" />
<polyline points="1.20,0.13 1.22,0.18 1.23,0.20 1.30,0.30 1.31,0.31 1.37,0.40 1.38,0.42 1.40,0.46 1.42,0.58 1.43,0.60 1.42,0.62 1.40,0.77 1.39,0.79 1.39,0.80 1.29,0.89 1.20,0.96 1.16,0.96 1.00,1.00 1.00,1.00 0.83,0.97 0.80,0.97 0.76,0.96 0.67,0.93 0.60,0.91 0.52,0.88 0.46,0.86 0.40,0.84 0.37,0.83 0.23,0.80 0.21,0.79 0.20,0.77 0.16,0.76 0.07,0.73 0.00,0.71 -0.07,0.73 -0.16,0.76 -0.20,0.77 -0.21,0.79 -0.23,0.80 -0.37,0.83 -0.40,0.84 -0.46,0.86 -0.52,0.88 -0.60,0.91 -0.67,0.93 -0.76,0.96 -0.80,0.97 -0.83,0.97 -1.00,1.00 -1.00,1.00 -1.16,0.96 -1.20,0.96 -1.29,0.89 -1.39,0.80 -1.39,0.79 -1.40,0.77 -1.42,0.62 -1.43,0.60 -1.42,0.58 -1.40,0.46 -1.38,0.42 -1.37,0.40 -1.31,0.31 -1.30,0.30 -1.23,0.20 -1.22,0.18 -1.20,0.13 -1.12,0.08 -1.00,0.00 -0.86,0.06 -0.80,0.09 -0.74,0.14 -0.68,0.20 -0.63,0.23 -0.60,0.24 -0.51,0.29 -0.50,0.30 -0.40,0.35 -0.37,0.37 -0.29,0.40 -0.24,0.44 -0.20,0.46 -0.12,0.48 -0.09,0.49 0.00,0.51 0.09,0.49 0.12,0.48 0.20,0.46 0.24,0.44 0.29,0.40 0.37,0.37 0.40,0.35 0.50,0.30 0.51,0.29 0.60,0.24 0.63,0.23 0.68,0.20 0.74,0.14 0.80,0.09 0.86,0.06 1.00,0.00 1.12,0.08 1.20,0.13" />
<line x1="-1.00" y1="1.00" x2="-1.00" y2="1.00" />
<line x1="1.00" y1="1.00" x2="1.00" y2="1.00" />
<polyline points="3.80,-4.80 3.80,-4.80 3.80,-4.80 3.95,-4.75 4.00,-4.73 4.10,-4.70 4.11,-4.69 4.20,-4.65 4.24,-4.64 4.32,-4.60 4.37,-4.57 4.40,-4.55 4.48,-4.48 4.59,-4.40 4.59,-4.39 4.60,-4.38 4.67,-4.27 4.72,-4.20 4.74,-4.14 4.78,-4.02 4.79,-4.00 4.79,-3.99 4.79,-3.81 4.79,-3.80 4.79,-3.79 4.76,-3.64 4.75,-3.60 4.73,-3.53 4.71,-3.49 4.68,-3.40 4.66,-3.34 4.60,-3.22 4.59,-3.21 4.59,-3.20 4.57,-3.17 4.52,-3.08 4.47,-3.00 4.44,-2.96 4.40,-2.90 4.36,-2.84 4.33,-2.80 4.27,-2.73 4.20,-2.64 4.18,-2.62 4.17,-2.60 4.09,-2.51 4.00,-2.40 4.00,-2.40 4.00,-2.40 3.92,-2.32 3.90,-2.30 3.81,-2.20 3.80,-2.20 3.80,-2.19 3.70,-2.10 3.61,-2.00 3.60,-2.00 3.60,-1.99 3.51,-1.91 3.50,-1.90 3.40,-1.81 3.40,-1.80 3.39,-1.80 3.29,-1.71 3.20,-1.63 3.18,-1.62 3.16,-1.60 3.08,-1.52 3.00,-1.45 2.97,-1.43 2.93,-1.40 2.86,-1.34 2.80,-1.29 2.75,-1.25 2.68,-1.20 2.64,-1.16 2.60,-1.13 2.53,-1.07 2.43,-1.00 2.41,-0.99 2.40,-0.97 2.30,-0.90 2.29,-0.89 2.20,-0.82 2.19,-0.81 2.16,-0.80 2.07,-0.73 2.00,-0.67 1.96,-0.64 1.88,-0.60 1.84,-0.56 1.80,-0.52 1.72,-0.48 1.60,-0.40 1.60,-0.40 1.60,-0.40 1.58,-0.38 1.49,-0.31 1.40,-0.24 1.37,-0.23 1.29,-0.20 1.25,-0.15 1.20,-0.08 1.14,-0.06 1.00,0.00 0.84,-0.04 0.80,-0.05 0.70,-0.10 0.69,-0.11 0.60,-0.16 0.58,-0.18 0.53,-0.20 0.42,-0.22 0.40,-0.22 0.38,-0.22 0.24,-0.24 0.20,-0.24 0.16,-0.24 0.05,-0.25 0.00,-0.25 -0.05,-0.25 -0.16,-0.24 -0.20,-0.24 -0.24,-0.24 -0.38,-0.22 -0.40,-0.22 -0.42,-0.22 -0.53,-0.20 -0.58,-0.18 -0.60,-0.16 -0.69,-0.11 -0.70,-0.10 -0.80,-0.05 -0.84,-0.04 -1.00,0.00 -1.14,-0.06 -1.20,-0.08 -1.25,-0.15 -1.29,-0.20 -1.37,-0.23 -1.40,-0.24 -1.49,-0.31 -1.58,-0.38 -1.60,-0.40 -1.60,-0.40 -1.60,-0.40 -1.72,-0.48 -1.80,-0.52 -1.84,-0.56 -1.88,-0.60 -1.96,-0.64 -2.00,-0.67 -2.07,-0.73 -2.16,-0.80 -2.19,-0.81 -2.20,-0.82 -2.29,-0.89 -2.30,-0.90 -2.40,-0.97 -2.41,-0.99 -2.43,-1.00 -2.53,-1.07 -2.60,-1.13 -2.64,-1.16 -2.68,-1.20 -2.75,-1.25 -2.80,-1.29 -2.86,-1.34 -2.93,-1.40 -2.97,-1.43 -3.00,-1.45 -3.08,-1.52 -3.16,-1.60 -3.18,-1.62 -3.20,-1.63 -3.29,-1.71 -3.39,-1.80 -3.40,-1.80 -3.40,-1.81 -3.50,-1.90 -3.51,-1.91 -3.60,-1.99 -3.60,-2.00 -3.61,-2.00 -3.70,-2.10 -3.80,-2.19 -3.80,-2.20 -3.81,-2.20 -3.90,-2.30 -3.92,-2.32 -4.00,-2.40 -4.00,-2.40 -4.00,-2.40 -4.09,-2.51 -4.17,-2.60 -4.18,-2.62 -4.20,-2.64 -4.27,-2.73 -4.33,-2.80 -4.36,-2.84 -4.40,-2.90 -4.44,-2.96 -4.47,-3.00 -4.52,-3.08 -4.57,-3.17 -4.59,-3.20 -4.59,-3.21 -4.60,-3.22 -4.66,-3.34 -4.68,-3.40 -4.71,-3.49 -4.73,-3.53 -4.75,-3.60 -4.76,-3.64 -4.79,-3.79 -4.79,-3.80 -4.79,-3.81 -4.79,-3.99 -4.79,-4.00 -4.78,-4.02 -4.74,-4.14 -4.72,-4.20 -4.67,-4.27 -4.60,-4.38 -4.59,-4.39 -4.59,-4.40 -4.48,-4.48 -4.40,-4.55 -4.37,-4.57 -4.32,-4.60 -4.24,-4.64 -4.20,-4.65 -4.11,-4.69 -4.10,-4.70 -4.00,-4.73 -3.95,-4.75 -3.80,-4.80 -3.80,-4.80 -3.80,-4.80 -3.80,-4.80 -3.64,-4.84 -3.60,-4.84 -3.55,-4.85 -3.47,-4.87 -3.40,-4.88 -3.31,-4.89 -3.29,-4.89 -3.20,-4.91 -3.12,-4.92 -3.08,-4.92 -3.00,-4.93 -2.94,-4.94 -2.86,-4.94 -2.80,-4.95 -2.75,-4.95 -2.64,-4.96 -2.60,-4.96 -2.57,-4.97 -2.43,-4.97 -2.40,-4.98 -2.38,-4.98 -2.22,-4.98 -2.20,-4.98 -2.18,-4.98 -2.01,-4.99 -2.00,-4.99 -1.99,-4.99 -1.81,-4.99 -1.80,-4.99 -1.79,-4.99 -1.60,-5.00 -1.60,-5.00 -1.60,-5.00 -1.40,-5.00 -1.40,-5.00 -1.40,-5.00 -1.20,-5.00 -1.20,-5.00 -1.20,-5.00 -1.00,-5.00 -1.00,-5.00 -0.80,-5.00 -0.80,-5.00 -0.80,-5.00 -0.60,-5.00 -0.60,-5.00 -0.60,-5.00 -0.40,-5.00 -0.40,-5.00 -0.40,-5.00 -0.20,-5.00 -0.20,-5.00 -0.20,-5.00 -0.00,-5.00 0.00,-5.00 0.00,-5.00 0.20,-5.00 0.20,-5.00 0.20,-5.00 0.40,-5.00 0.40,-5.00 0.40,-5.00 0.60,-5.00 0.60,-5.00 0.60,-5.00 0.80,-5.00 0.80,-5.00 0.80,-5.00 1.00,-5.00 1.00,-5.00 1.20,-5.00 1.20,-5.00 1.20,-5.00 1.40,-5.00 1.40,-5.00 1.40,-5.00 1.60,-5.00 1.60,-5.00 1.60,-5.00 1.79,-4.99 1.80,-4.99 1.81,-4.99 1.99,-4.99 2.00,-4.99 2.01,-4.99 2.18,-4.98 2.20,-4.98 2.22,-4.98 2.38,-4.98 2.40,-4.98 2.43,-4.97 2.57,-4.97 2.60,-4.96 2.64,-4.96 2.75,-4.95 2.80,-4.95 2.86,-4.94 2.94,-4.94 3.00,-4.93 3.08,-4.92 3.12,-4.92 3.20,-4.91 3.29,-4.89 3.31,-4.89 3.40,-4.88 3.47,-4.87 3.55,-4.85 3.60,-4.84 3.64,-4.84 3.80,-4.80 3.80,-4.80" />
<line x1="-1.00" y1="-5.00" x2="-1.00" y2="-5.00" />
<line x1="1.00" y1="-5.00" x2="1.00" y2="-5.00" />
</g>
</svg>