<svg xmlns="http://www.w3.org/2000/svg" width="100" height="100" viewBox="0 0 100 100">
<rect x="0" y="25" width="5" height="5" fill="rgb(178,178,178)"/>
<rect x="0" y="45" width="5" height="5" fill="rgb(178,178,178)"/>
<rect x="0" y="80" width="5" height="5" fill="rgb(134,134,134)"/>
<rect x="0" y="85" width="5" height="5" fill="rgb(85,85,85)"/>
<rect x="0" y="90" width="5" height="5" fill="rgb(184,184,184)"/>
<rect x="5" y="10" width="5" height="5" fill="rgb(178,178,178)"/>
<rect x="5" y="40" width="5" height="5" fill="rgb(124,124,124)"/>
<rect x="5" y="50" width="5" height="5" fill="rgb(149,149,149)"/>
<rect x="5" y="70" width="5" height="5" fill="rgb(194,194,194)"/>
<rect x="5" y="75" width="5" height="5" fill="rgb(161,161,161)"/>
<rect x="5" y="85" width="5" height="5" fill="rgb(170,170,170)"/>
<rect x="5" y="90" width="5" height="5" fill="rgb(184,184,184)"/>
<rect x="10" y="0" width="5" height="5" fill="rgb(113,113,113)"/>
<rect x="10" y="5" width="5" height="5" fill="rgb(134,134,134)"/>
<rect x="10" y="10" width="5" height="5" fill="rgb(178,178,178)"/>
<rect x="10" y="15" width="5" height="5" fill="rgb(178,178,178)"/>
<rect x="10" y="30" width="5" height="5" fill="rgb(190,190,190)"/>
<rect x="10" y="40" width="5" height="5" fill="rgb(190,190,190)"/>
<rect x="10" y="55" width="5" height="5" fill="rgb(170,170,170)"/>
<rect x="10" y="60" width="5" height="5" fill="rgb(184,184,184)"/>
<rect x="10" y="65" width="5" height="5" fill="rgb(66,66,66)"/>
<rect x="10" y="90" width="5" height="5" fill="rgb(184,184,184)"/>
<rect x="15" y="10" width="5" height="5" fill="rgb(178,178,178)"/>
<rect x="15" y="30" width="5" height="5" fill="rgb(190,190,190)"/>
<rect x="15" y="40" width="5" height="5" fill="rgb(124,124,124)"/>
<rect x="15" y="45" width="5" height="5" fill="rgb(178,178,178)"/>
<rect x="15" y="50" width="5" height="5" fill="rgb(149,149,149)"/>
<rect x="15" y="55" width="5" height="5" fill="rgb(170,170,170)"/>
<rect x="15" y="80" width="5" height="5" fill="rgb(134,134,134)"/>
<rect x="15" y="85" width="5" height="5" fill="rgb(170,170,170)"/>
<rect x="15" y="90" width="5" height="5" fill="rgb(184,184,184)"/>
<rect x="15" y="95" width="5" height="5" fill="rgb(161,161,161)"/>
<rect x="20" y="10" width="5" height="5" fill="rgb(178,178,178)"/>
<rect x="20" y="15" width="5" height="5" fill="rgb(178,178,178)"/>
<rect x="20" y="45" width="5" height="5" fill="rgb(100,100,100)"/>
<rect x="20" y="55" width="5" height="5" fill="rgb(170,170,170)"/>
<rect x="20" y="70" width="5" height="5" fill="rgb(194,194,194)"/>
<rect x="20" y="90" width="5" height="5" fill="rgb(184,184,184)"/>
<rect x="25" y="10" width="5" height="5" fill="rgb(178,178,178)"/>
<rect x="25" y="25" width="5" height="5" fill="rgb(100,100,100)"/>
<rect x="25" y="50" width="5" height="5" fill="rgb(149,149,149)"/>
<rect x="25" y="70" width="5" height="5" fill="rgb(73,73,73)"/>
<rect x="25" y="75" width="5" height="5" fill="rgb(66,66,66)"/>
<rect x="25" y="80" width="5" height="5" fill="rgb(134,134,134)"/>
<rect x="25" y="95" width="5" height="5" fill="rgb(161,161,161)"/>
<rect x="30" y="15" width="5" height="5" fill="rgb(100,100,100)"/>
<rect x="30" y="25" width="5" height="5" fill="rgb(178,178,178)"/>
<rect x="30" y="35" width="5" height="5" fill="rgb(149,149,149)"/>
<rect x="30" y="40" width="5" height="5" fill="rgb(190,190,190)"/>
<rect x="30" y="55" width="5" height="5" fill="rgb(85,85,85)"/>
<rect x="30" y="60" width="5" height="5" fill="rgb(184,184,184)"/>
<rect x="30" y="80" width="5" height="5" fill="rgb(12,12,12)"/>
<rect x="30" y="85" width="5" height="5" fill="rgb(85,85,85)"/>
<rect x="35" y="5" width="5" height="5" fill="rgb(134,134,134)"/>
<rect x="35" y="10" width="5" height="5" fill="rgb(178,178,178)"/>
<rect x="35" y="20" width="5" height="5" fill="rgb(134,134,134)"/>
<rect x="35" y="40" width="5" height="5" fill="rgb(124,124,124)"/>
<rect x="35" y="55" width="5" height="5" fill="rgb(170,170,170)"/>
<rect x="35" y="60" width="5" height="5" fill="rgb(184,184,184)"/>
<rect x="35" y="65" width="5" height="5" fill="rgb(161,161,161)"/>
<rect x="40" y="0" width="5" height="5" fill="rgb(113,113,113)"/>
<rect x="40" y="20" width="5" height="5" fill="rgb(134,134,134)"/>
<rect x="40" y="25" width="5" height="5" fill="rgb(100,100,100)"/>
<rect x="40" y="30" width="5" height="5" fill="rgb(190,190,190)"/>
<rect x="40" y="40" width="5" height="5" fill="rgb(190,190,190)"/>
<rect x="40" y="50" width="5" height="5" fill="rgb(149,149,149)"/>
<rect x="40" y="60" width="5" height="5" fill="rgb(184,184,184)"/>
<rect x="40" y="65" width="5" height="5" fill="rgb(161,161,161)"/>
<rect x="40" y="70" width="5" height="5" fill="rgb(194,194,194)"/>
<rect x="40" y="75" width="5" height="5" fill="rgb(161,161,161)"/>
<rect x="40" y="95" width="5" height="5" fill="rgb(161,161,161)"/>
<rect x="45" y="30" width="5" height="5" fill="rgb(190,190,190)"/>
<rect x="45" y="40" width="5" height="5" fill="rgb(190,190,190)"/>
<rect x="45" y="60" width="5" height="5" fill="rgb(113,113,113)"/>
<rect x="45" y="70" width="5" height="5" fill="rgb(194,194,194)"/>
<rect x="45" y="75" width="5" height="5" fill="rgb(161,161,161)"/>
<rect x="45" y="85" width="5" height="5" fill="rgb(170,170,170)"/>
<rect x="45" y="90" width="5" height="5" fill="rgb(113,113,113)"/>
<rect x="45" y="95" width="5" height="5" fill="rgb(66,66,66)"/>
<rect x="50" y="0" width="5" height="5" fill="rgb(113,113,113)"/>
<rect x="50" y="40" width="5" height="5" fill="rgb(190,190,190)"/>
<rect x="50" y="45" width="5" height="5" fill="rgb(178,178,178)"/>
<rect x="50" y="55" width="5" height="5" fill="rgb(85,85,85)"/>
<rect x="50" y="65" width="5" height="5" fill="rgb(161,161,161)"/>
<rect x="50" y="70" width="5" height="5" fill="rgb(194,194,194)"/>
<rect x="50" y="90" width="5" height="5" fill="rgb(184,184,184)"/>
<rect x="55" y="0" width="5" height="5" fill="rgb(113,113,113)"/>
<rect x="55" y="25" width="5" height="5" fill="rgb(178,178,178)"/>
<rect x="55" y="30" width="5" height="5" fill="rgb(124,124,124)"/>
<rect x="55" y="35" width="5" height="5" fill="rgb(149,149,149)"/>
<rect x="55" y="45" width="5" height="5" fill="rgb(178,178,178)"/>
<rect x="55" y="65" width="5" height="5" fill="rgb(66,66,66)"/>
<rect x="55" y="90" width="5" height="5" fill="rgb(184,184,184)"/>
<rect x="55" y="95" width="5" height="5" fill="rgb(161,161,161)"/>
<rect x="60" y="5" width="5" height="5" fill="rgb(12,12,12)"/>
<rect x="60" y="15" width="5" height="5" fill="rgb(23,23,23)"/>
<rect x="60" y="25" width="5" height="5" fill="rgb(100,100,100)"/>
<rect x="60" y="30" width="5" height="5" fill="rgb(124,124,124)"/>
<rect x="60" y="65" width="5" height="5" fill="rgb(66,66,66)"/>
<rect x="60" y="70" width="5" height="5" fill="rgb(194,194,194)"/>
<rect x="65" y="15" width="5" height="5" fill="rgb(178,178,178)"/>
<rect x="65" y="20" width="5" height="5" fill="rgb(12,12,12)"/>
<rect x="65" y="30" width="5" height="5" fill="rgb(190,190,190)"/>
<rect x="65" y="50" width="5" height="5" fill="rgb(42,42,42)"/>
<rect x="65" y="60" width="5" height="5" fill="rgb(184,184,184)"/>
<rect x="65" y="75" width="5" height="5" fill="rgb(66,66,66)"/>
<rect x="70" y="0" width="5" height="5" fill="rgb(113,113,113)"/>
<rect x="70" y="5" width="5" height="5" fill="rgb(134,134,134)"/>
<rect x="70" y="10" width="5" height="5" fill="rgb(100,100,100)"/>
<rect x="70" y="25" width="5" height="5" fill="rgb(178,178,178)"/>
<rect x="70" y="30" width="5" height="5" fill="rgb(190,190,190)"/>
<rect x="70" y="35" width="5" height="5" fill="rgb(149,149,149)"/>
<rect x="70" y="45" width="5" height="5" fill="rgb(178,178,178)"/>
<rect x="70" y="50" width="5" height="5" fill="rgb(42,42,42)"/>
<rect x="70" y="55" width="5" height="5" fill="rgb(170,170,170)"/>
<rect x="70" y="60" width="5" height="5" fill="rgb(184,184,184)"/>
<rect x="70" y="70" width="5" height="5" fill="rgb(194,194,194)"/>
<rect x="70" y="90" width="5" height="5" fill="rgb(184,184,184)"/>
<rect x="75" y="10" width="5" height="5" fill="rgb(178,178,178)"/>
<rect x="75" y="30" width="5" height="5" fill="rgb(190,190,190)"/>
<rect x="75" y="60" width="5" height="5" fill="rgb(184,184,184)"/>
<rect x="75" y="70" width="5" height="5" fill="rgb(73,73,73)"/>
<rect x="75" y="85" width="5" height="5" fill="rgb(0,0,0)"/>
<rect x="80" y="20" width="5" height="5" fill="rgb(12,12,12)"/>
<rect x="80" y="30" width="5" height="5" fill="rgb(190,190,190)"/>
<rect x="80" y="35" width="5" height="5" fill="rgb(42,42,42)"/>
<rect x="80" y="45" width="5" height="5" fill="rgb(178,178,178)"/>
<rect x="80" y="95" width="5" height="5" fill="rgb(161,161,161)"/>
<rect x="85" y="15" width="5" height="5" fill="rgb(178,178,178)"/>
<rect x="85" y="35" width="5" height="5" fill="rgb(149,149,149)"/>
<rect x="85" y="40" width="5" height="5" fill="rgb(190,190,190)"/>
<rect x="85" y="45" width="5" height="5" fill="rgb(100,100,100)"/>
<rect x="85" y="60" width="5" height="5" fill="rgb(113,113,113)"/>
<rect x="85" y="75" width="5" height="5" fill="rgb(161,161,161)"/>
<rect x="85" y="80" width="5" height="5" fill="rgb(134,134,134)"/>
<rect x="85" y="90" width="5" height="5" fill="rgb(184,184,184)"/>
<rect x="90" y="0" width="5" height="5" fill="rgb(113,113,113)"/>
<rect x="90" y="10" width="5" height="5" fill="rgb(100,100,100)"/>
<rect x="90" y="15" width="5" height="5" fill="rgb(178,178,178)"/>
<rect x="90" y="20" width="5" height="5" fill="rgb(134,134,134)"/>
<rect x="90" y="30" width="5" height="5" fill="rgb(190,190,190)"/>
<rect x="90" y="35" width="5" height="5" fill="rgb(149,149,149)"/>
<rect x="90" y="45" width="5" height="5" fill="rgb(178,178,178)"/>
<rect x="90" y="55" width="5" height="5" fill="rgb(170,170,170)"/>
<rect x="90" y="70" width="5" height="5" fill="rgb(194,194,194)"/>
<rect x="90" y="75" width="5" height="5" fill="rgb(161,161,161)"/>
<rect x="90" y="80" width="5" height="5" fill="rgb(134,134,134)"/>
<rect x="90" y="90" width="5" height="5" fill="rgb(184,184,184)"/>
<rect x="95" y="5" width="5" height="5" fill="rgb(12,12,12)"/>
<rect x="95" y="15" width="5" height="5" fill="rgb(178,178,178)"/>
<rect x="95" y="25" width="5" height="5" fill="rgb(178,178,178)"/>
<rect x="95" y="35" width="5" height="5" fill="rgb(149,149,149)"/>
<rect x="95" y="40" width="5" height="5" fill="rgb(190,190,190)"/>
<rect x="95" y="60" width="5" height="5" fill="rgb(184,184,184)"/>
<rect x="95" y="95" width="5" height="5" fill="rgb(66,66,66)"/>
</svg>