<svg xmlns="http://www.w3.org/2000/svg" width="161.803" height="100.000" viewBox="-4.187 432.023 171.803 110.000">
<g fill="none" stroke="black" stroke-width="0.001%" transform="translate(0, 974.046) scale(537.023, -537.023)">
<polyline points="0.002,1.000 0.003,1.000 0.005,0.876 0.006,1.000 0.008,0.858 0.009,0.876 0.011,0.870 0.012,1.000 0.014,0.891 0.015,0.858 0.017,0.827 0.018,0.876 0.020,0.841 0.021,0.870 0.023,0.889 0.024,1.000 0.026,0.931 0.027,0.891 0.029,0.856 0.030,0.858 0.032,0.826 0.033,0.827 0.035,0.827 0.036,0.876 0.038,0.846 0.039,0.841 0.041,0.835 0.042,0.870 0.044,0.861 0.045,0.889 0.047,0.913 0.048,1.000 0.050,0.960 0.051,0.931 0.053,0.903 0.055,0.891 0.056,0.866 0.058,0.856 0.059,0.845 0.061,0.858 0.062,0.836 0.064,0.826 0.065,0.817 0.067,0.827 0.068,0.817 0.070,0.827 0.071,0.835 0.073,0.876 0.074,0.857 0.076,0.846 0.077,0.836 0.079,0.841 0.080,0.830 0.082,0.835 0.083,0.839 0.085,0.870 0.086,0.859 0.088,0.861 0.089,0.863 0.091,0.889 0.092,0.890 0.094,0.913 0.095,0.935 0.097,1.000 0.098,0.978 0.100,0.960 0.101,0.943 0.103,0.931 0.104,0.914 0.106,0.903 0.107,0.893 0.109,0.891 0.111,0.876 0.112,0.866 0.114,0.857 0.115,0.856 0.117,0.846 0.118,0.845 0.120,0.844 0.121,0.858 0.123,0.845 0.124,0.836 0.126,0.828 0.127,0.826 0.129,0.818 0.130,0.817 0.132,0.815 0.133,0.827 0.135,0.819 0.136,0.817 0.138,0.816 0.139,0.827 0.141,0.825 0.142,0.835 0.144,0.844 0.145,0.876 0.147,0.865 0.148,0.857 0.150,0.849 0.151,0.846 0.153,0.838 0.154,0.836 0.156,0.833 0.157,0.841 0.159,0.833 0.160,0.830 0.162,0.828 0.164,0.835 0.165,0.832 0.167,0.839 0.168,0.845 0.170,0.870 0.171,0.862 0.173,0.859 0.174,0.856 0.176,0.861 0.177,0.858 0.179,0.863 0.180,0.868 0.182,0.889 0.183,0.885 0.185,0.890 0.186,0.894 0.188,0.913 0.189,0.917 0.191,0.935 0.192,0.953 0.194,1.000 0.195,0.989 0.197,0.978 0.198,0.968 0.200,0.960 0.201,0.951 0.203,0.943 0.204,0.935 0.206,0.931 0.207,0.922 0.209,0.914 0.210,0.907 0.212,0.903 0.213,0.896 0.215,0.893 0.217,0.889 0.218,0.891 0.220,0.883 0.221,0.876 0.223,0.870 0.224,0.866 0.226,0.860 0.227,0.857 0.229,0.853 0.230,0.856 0.232,0.849 0.233,0.846 0.235,0.843 0.236,0.845 0.238,0.842 0.239,0.844 0.241,0.846 0.242,0.858 0.244,0.851 0.245,0.845 0.247,0.839 0.248,0.836 0.250,0.831 0.251,0.828 0.253,0.825 0.254,0.826 0.256,0.821 0.257,0.818 0.259,0.815 0.260,0.817 0.262,0.814 0.263,0.815 0.265,0.817 0.266,0.827 0.268,0.822 0.270,0.819 0.271,0.816 0.273,0.817 0.274,0.815 0.276,0.816 0.277,0.817 0.279,0.827 0.280,0.824 0.282,0.825 0.283,0.826 0.285,0.835 0.286,0.836 0.288,0.844 0.289,0.853 0.291,0.876 0.292,0.870 0.294,0.865 0.295,0.860 0.297,0.857 0.298,0.852 0.300,0.849 0.301,0.845 0.303,0.846" />
</g>
</svg>