<svg xmlns="http://www.w3.org/2000/svg" width="59.2" height="100.0" viewBox="-38.63 -71.37 69.15 110.00">
<g fill="none" stroke="black" stroke-width="0.0425%" transform="translate(0, -32.7391) scale(11.7548, -11.7548)">
<polyline points="-2.86,2.86 -2.44,2.32 -2.07,1.87 -1.74,1.49 -1.44,1.17 -1.16,0.90 -0.91,0.67 -0.68,0.47 -0.46,0.30 -0.25,0.16 -0.06,0.03 0.12,-0.07 0.30,-0.15 0.46,-0.22 0.61,-0.28 0.76,-0.32 0.89,-0.36 1.02,-0.38 1.15,-0.39 1.26,-0.39 1.37,-0.39 1.47,-0.38 1.56,-0.36 1.65,-0.34 1.73,-0.31 1.80,-0.27 1.86,-0.23 1.92,-0.19 1.98,-0.15 2.02,-0.10 2.06,-0.05 2.10,0.00 2.12,0.06 2.14,0.11 2.16,0.17 2.17,0.22 2.17,0.28 2.17,0.34 2.16,0.39 2.15,0.45 2.13,0.50 2.10,0.55 2.07,0.60 2.04,0.64 2.00,0.69 1.95,0.73 1.91,0.77 1.85,0.80 1.80,0.83 1.74,0.86 1.68,0.88 1.61,0.90 1.54,0.91 1.47,0.92 1.40,0.92 1.32,0.92 1.24,0.92 1.16,0.91 1.08,0.89 1.00,0.87 0.92,0.84 0.84,0.80 0.76,0.76 0.68,0.71 0.59,0.66 0.51,0.60 0.44,0.54 0.36,0.47 0.28,0.39 0.21,0.31 0.14,0.22 0.08,0.12 0.01,0.02 -0.05,-0.09 -0.11,-0.20 -0.16,-0.32 -0.20,-0.45 -0.25,-0.58 -0.29,-0.72 -0.32,-0.87 -0.34,-1.02 -0.36,-1.18 -0.38,-1.35 -0.39,-1.52 -0.39,-1.70 -0.38,-1.88 -0.36,-2.07 -0.34,-2.28 -0.31,-2.48 -0.26,-2.70 -0.21,-2.93 -0.15,-3.17 -0.07,-3.42 0.02,-3.68 0.12,-3.95 0.24,-4.25 0.37,-4.56 0.52,-4.89 0.70,-5.25 0.89,-5.65" />
</g>
</svg>