<svg xmlns="http://www.w3.org/2000/svg" width="161.8" height="100.0" viewBox="-90 -5 172 110">
<g fill="none" stroke="black" stroke-width="2.5100%" transform="translate(0, 100.0000) scale(0.1992, -0.1992)">
<line x1="-426" y1="0" x2="-426" y2="1" />

<line x1="-406" y1="0" x2="-406" y2="1" />



<line x1="-367" y1="0" x2="-367" y2="2" />

<line x1="-347" y1="0" x2="-347" y2="1" />
<line x1="-338" y1="0" x2="-338" y2="1" />
<line x1="-328" y1="0" x2="-328" y2="1" />
<line x1="-318" y1="0" x2="-318" y2="1" />

<line x1="-298" y1="0" x2="-298" y2="2" />
<line x1="-289" y1="0" x2="-289" y2="5" />
<line x1="-279" y1="0" x2="-279" y2="4" />
<line x1="-269" y1="0" x2="-269" y2="2" />
<line x1="-259" y1="0" x2="-259" y2="9" />
<line x1="-250" y1="0" x2="-250" y2="10" />
<line x1="-240" y1="0" x2="-240" y2="13" />
<line x1="-230" y1="0" x2="-230" y2="15" />
<line x1="-220" y1="0" x2="-220" y2="10" />
<line x1="-210" y1="0" x2="-210" y2="16" />
<line x1="-201" y1="0" x2="-201" y2="31" />
<line x1="-191" y1="0" x2="-191" y2="33" />
<line x1="-181" y1="0" x2="-181" y2="45" />
<line x1="-171" y1="0" x2="-171" y2="43" />
<line x1="-161" y1="0" x2="-161" y2="75" />
<line x1="-152" y1="0" x2="-152" y2="78" />
<line x1="-142" y1="0" x2="-142" y2="97" />
<line x1="-132" y1="0" x2="-132" y2="124" />
<line x1="-122" y1="0" x2="-122" y2="128" />
<line x1="-113" y1="0" x2="-113" y2="182" />
<line x1="-103" y1="0" x2="-103" y2="209" />
<line x1="-93" y1="0" x2="-93" y2="234" />
<line x1="-83" y1="0" x2="-83" y2="271" />
<line x1="-73" y1="0" x2="-73" y2="342" />
<line x1="-64" y1="0" x2="-64" y2="347" />
<line x1="-54" y1="0" x2="-54" y2="395" />
<line x1="-44" y1="0" x2="-44" y2="431" />
<line x1="-34" y1="0" x2="-34" y2="455" />
<line x1="-24" y1="0" x2="-24" y2="471" />
<line x1="-15" y1="0" x2="-15" y2="419" />
<line x1="-5" y1="0" x2="-5" y2="502" />
<line x1="5" y1="0" x2="5" y2="498" />
<line x1="15" y1="0" x2="15" y2="475" />
<line x1="24" y1="0" x2="24" y2="458" />
<line x1="34" y1="0" x2="34" y2="447" />
<line x1="44" y1="0" x2="44" y2="409" />
<line x1="54" y1="0" x2="54" y2="384" />
<line x1="64" y1="0" x2="64" y2="343" />
<line x1="73" y1="0" x2="73" y2="287" />
<line x1="83" y1="0" x2="83" y2="249" />
<line x1="93" y1="0" x2="93" y2="249" />
<line x1="103" y1="0" x2="103" y2="193" />
<line x1="113" y1="0" x2="113" y2="165" />
<line x1="122" y1="0" x2="122" y2="157" />
<line x1="132" y1="0" x2="132" y2="142" />
<line x1="142" y1="0" x2="142" y2="115" />
<line x1="152" y1="0" x2="152" y2="60" />
<line x1="161" y1="0" x2="161" y2="81" />
<line x1="171" y1="0" x2="171" y2="61" />
<line x1="181" y1="0" x2="181" y2="50" />
<line x1="191" y1="0" x2="191" y2="29" />
<line x1="201" y1="0" x2="201" y2="32" />
<line x1="210" y1="0" x2="210" y2="18" />
<line x1="220" y1="0" x2="220" y2="16" />
<line x1="230" y1="0" x2="230" y2="16" />
<line x1="240" y1="0" x2="240" y2="13" />
<line x1="250" y1="0" x2="250" y2="8" />
<line x1="259" y1="0" x2="259" y2="11" />
<line x1="269" y1="0" x2="269" y2="4" />
<line x1="279" y1="0" x2="279" y2="5" />
<line x1="289" y1="0" x2="289" y2="4" />
<line x1="298" y1="0" x2="298" y2="2" />

<line x1="318" y1="0" x2="318" y2="5" />
<line x1="328" y1="0" x2="328" y2="3" />
<line x1="338" y1="0" x2="338" y2="1" />


<line x1="367" y1="0" x2="367" y2="2" />
<line x1="377" y1="0" x2="377" y2="1" />
<line x1="387" y1="0" x2="387" y2="1" />
</g>
</svg>