<svg xmlns="http://www.w3.org/2000/svg" width="161.8" height="100.0" viewBox="-3.581 -5.000 171.803 110.000">
<g fill="none" stroke="black" stroke-width="0.0050%" transform="translate(0, 100.0000) scale(100.0000, -100.0000)">


<line x1="0.043" y1="0.000" x2="0.043" y2="1.000" />


<line x1="0.085" y1="0.000" x2="0.085" y2="1.000" />



<line x1="0.142" y1="0.000" x2="0.142" y2="1.000" />


<line x1="0.185" y1="0.000" x2="0.185" y2="1.000" />



<line x1="0.241" y1="0.000" x2="0.241" y2="1.000" />


<line x1="0.284" y1="0.000" x2="0.284" y2="1.000" />


<line x1="0.326" y1="0.000" x2="0.326" y2="1.000" />



<line x1="0.383" y1="0.000" x2="0.383" y2="1.000" />


<line x1="0.426" y1="0.000" x2="0.426" y2="1.000" />



<line x1="0.483" y1="0.000" x2="0.483" y2="1.000" />


<line x1="0.525" y1="0.000" x2="0.525" y2="1.000" />


<line x1="0.568" y1="0.000" x2="0.568" y2="1.000" />



<line x1="0.625" y1="0.000" x2="0.625" y2="1.000" />


<line x1="0.667" y1="0.000" x2="0.667" y2="1.000" />



<line x1="0.724" y1="0.000" x2="0.724" y2="1.000" />


<line x1="0.766" y1="0.000" x2="0.766" y2="1.000" />



<line x1="0.823" y1="0.000" x2="0.823" y2="1.000" />


<line x1="0.866" y1="0.000" x2="0.866" y2="1.000" />


<line x1="0.908" y1="0.000" x2="0.908" y2="1.000" />



<line x1="0.965" y1="0.000" x2="0.965" y2="1.000" />


<line x1="1.008" y1="0.000" x2="1.008" y2="1.000" />



<line x1="1.064" y1="0.000" x2="1.064" y2="1.000" />


<line x1="1.107" y1="0.000" x2="1.107" y2="1.000" />


<line x1="1.150" y1="0.000" x2="1.150" y2="1.000" />



<line x1="1.206" y1="0.000" x2="1.206" y2="1.000" />


<line x1="1.249" y1="0.000" x2="1.249" y2="1.000" />



<line x1="1.306" y1="0.000" x2="1.306" y2="1.000" />


<line x1="1.348" y1="0.000" x2="1.348" y2="1.000" />



<line x1="1.405" y1="0.000" x2="1.405" y2="1.000" />


<line x1="1.448" y1="0.000" x2="1.448" y2="1.000" />


<line x1="1.490" y1="0.000" x2="1.490" y2="1.000" />



<line x1="1.547" y1="0.000" x2="1.547" y2="1.000" />


<line x1="1.590" y1="0.000" x2="1.590" y2="1.000" />



</g>
</svg>