<svg xmlns="http://www.w3.org/2000/svg" width="161.8" height="100.0" viewBox="-0.241 95.000 171.803 110.000">
<g fill="none" stroke="black" stroke-width="0.0050%" transform="translate(0, 300.0000) scale(100.0000, -100.0000)">
<polyline points="0.048,1.000 0.095,1.000 0.095,2.000 0.143,2.000 0.143,1.000 0.190,1.000 0.190,2.000 0.238,2.000 0.238,2.000 0.286,2.000 0.286,1.000 0.333,1.000 0.333,2.000 0.381,2.000 0.381,1.000 0.428,1.000 0.428,2.000 0.476,2.000 0.476,2.000 0.523,2.000 0.523,1.000 0.571,1.000 0.571,2.000 0.619,2.000 0.619,2.000 0.666,2.000 0.666,1.000 0.714,1.000 0.714,2.000 0.761,2.000 0.761,1.000 0.809,1.000 0.809,2.000 0.857,2.000 0.857,2.000 0.904,2.000 0.904,1.000 0.952,1.000 0.952,2.000 0.999,2.000 0.999,1.000 1.047,1.000 1.047,2.000 1.095,2.000 1.095,2.000 1.142,2.000 1.142,1.000 1.190,1.000 1.190,2.000 1.237,2.000 1.237,2.000 1.285,2.000 1.285,1.000 1.332,1.000 1.332,2.000 1.380,2.000 1.380,1.000 1.428,1.000 1.428,2.000 1.475,2.000 1.475,2.000 1.523,2.000 1.523,1.000 1.570,1.000 1.570,2.000 1.618,2.000 1.618,2.000 1.666,2.000" />
</g>
</svg>