<svg xmlns="http://www.w3.org/2000/svg" width="100.0" height="100.0" viewBox="-66.0 -24.5 110.0 110.0">
<g fill="none" stroke="black" stroke-width="0.3850%" transform="translate(0, 61.0390) scale(1.2987, -1.2987)">
<polyline points="0.0,0.0 0.0,1.0 -1.0,1.0 -1.0,2.0 -2.0,2.0 -2.0,1.0 -3.0,1.0 -3.0,2.0 -4.0,2.0 -4.0,1.0 -5.0,1.0 -5.0,0.0 -4.0,0.0 -4.0,-1.0 -5.0,-1.0 -5.0,0.0 -6.0,0.0 -6.0,-1.0 -7.0,-1.0 -7.0,-2.0 -6.0,-2.0 -6.0,-3.0 -7.0,-3.0 -7.0,-4.0 -6.0,-4.0 -6.0,-5.0 -5.0,-5.0 -5.0,-4.0 -4.0,-4.0 -4.0,-5.0 -5.0,-5.0 -5.0,-4.0 -6.0,-4.0 -6.0,-5.0 -7.0,-5.0 -7.0,-6.0 -6.0,-6.0 -6.0,-7.0 -7.0,-7.0 -7.0,-8.0 -6.0,-8.0 -6.0,-9.0 -5.0,-9.0 -5.0,-8.0 -4.0,-8.0 -4.0,-9.0 -5.0,-9.0 -5.0,-10.0 -4.0,-10.0 -4.0,-11.0 -3.0,-11.0 -3.0,-10.0 -2.0,-10.0 -2.0,-11.0 -1.0,-11.0 -1.0,-10.0 0.0,-10.0 0.0,-9.0 -1.0,-9.0 -1.0,-8.0 0.0,-8.0 0.0,-9.0 -1.0,-9.0 -1.0,-8.0 -2.0,-8.0 -2.0,-9.0 -3.0,-9.0 -3.0,-10.0 -2.0,-10.0 -2.0,-11.0 -3.0,-11.0 -3.0,-12.0 -2.0,-12.0 -2.0,-13.0 -1.0,-13.0 -1.0,-12.0 0.0,-12.0 -0.0,-13.0 -1.0,-13.0 -1.0,-14.0 -0.0,-14.0 -0.0,-15.0 1.0,-15.0 1.0,-14.0 2.0,-14.0 2.0,-15.0 3.0,-15.0 3.0,-14.0 4.0,-14.0 4.0,-13.0 3.0,-13.0 3.0,-12.0 4.0,-12.0 4.0,-13.0 3.0,-13.0 3.0,-14.0 4.0,-14.0 4.0,-15.0 5.0,-15.0 5.0,-14.0 6.0,-14.0 6.0,-15.0 7.0,-15.0 7.0,-14.0 8.0,-14.0 8.0,-13.0 7.0,-13.0 7.0,-12.0 8.0,-12.0 8.0,-13.0 9.0,-13.0 9.0,-12.0 10.0,-12.0 10.0,-11.0 9.0,-11.0 9.0,-10.0 10.0,-10.0 10.0,-9.0 9.0,-9.0 9.0,-8.0 8.0,-8.0 8.0,-9.0 7.0,-9.0 7.0,-8.0 8.0,-8.0 8.0,-9.0 7.0,-9.0 7.0,-8.0 6.0,-8.0 6.0,-9.0 5.0,-9.0 5.0,-10.0 6.0,-10.0 6.0,-11.0 5.0,-11.0 5.0,-12.0 6.0,-12.0 6.0,-13.0 7.0,-13.0 7.0,-12.0 8.0,-12.0 8.0,-13.0 7.0,-13.0 7.0,-14.0 8.0,-14.0 8.0,-15.0 9.0,-15.0 9.0,-14.0 10.0,-14.0 10.0,-15.0 11.0,-15.0 11.0,-14.0 12.0,-14.0 12.0,-13.0 11.0,-13.0 11.0,-12.0 12.0,-12.0 12.0,-13.0 11.0,-13.0 11.0,-14.0 12.0,-14.0 12.0,-15.0 13.0,-15.0 13.0,-14.0 14.0,-14.0 14.0,-15.0 15.0,-15.0 15.0,-14.0 16.0,-14.0 16.0,-13.0 15.0,-13.0 15.0,-12.0 16.0,-12.0 16.0,-13.0 17.0,-13.0 17.0,-12.0 18.0,-12.0 18.0,-11.0 17.0,-11.0 17.0,-10.0 18.0,-10.0 18.0,-9.0 17.0,-9.0 17.0,-8.0 16.0,-8.0 16.0,-9.0 15.0,-9.0 15.0,-8.0 16.0,-8.0 16.0,-9.0 15.0,-9.0 15.0,-10.0 16.0,-10.0 16.0,-11.0 17.0,-11.0 17.0,-10.0 18.0,-10.0 18.0,-11.0 19.0,-11.0 19.0,-10.0 20.0,-10.0 20.0,-9.0 19.0,-9.0 19.0,-8.0 20.0,-8.0 20.0,-9.0 21.0,-9.0 21.0,-8.0 22.0,-8.0 22.0,-7.0 21.0,-7.0 21.0,-6.0 22.0,-6.0 22.0,-5.0 21.0,-5.0 21.0,-4.0 20.0,-4.0 20.0,-5.0 19.0,-5.0 19.0,-4.0 20.0,-4.0 20.0,-5.0 21.0,-5.0 21.0,-4.0 22.0,-4.0 22.0,-3.0 21.0,-3.0 21.0,-2.0 22.0,-2.0 22.0,-1.0 21.0,-1.0 21.0,0.0 20.0,0.0 20.0,-1.0 19.0,-1.0 19.0,0.0 20.0,0.0 20.0,1.0 19.0,1.0 19.0,2.0 18.0,2.0 18.0,1.0 17.0,1.0 17.0,2.0 16.0,2.0 16.0,1.0 15.0,1.0 15.0,0.0 16.0,0.0 16.0,-1.0 15.0,-1.0 15.0,0.0 16.0,0.0 16.0,-1.0 15.0,-1.0 15.0,0.0 14.0,0.0 14.0,-1.0 13.0,-1.0 13.0,-2.0 14.0,-2.0 14.0,-3.0 13.0,-3.0 13.0,-4.0 14.0,-4.0 14.0,-5.0 15.0,-5.0 15.0,-4.0 16.0,-4.0 16.0,-5.0 15.0,-5.0 15.0,-6.0 16.0,-6.0 16.0,-7.0 17.0,-7.0 17.0,-6.0 18.0,-6.0 18.0,-7.0 19.0,-7.0 19.0,-6.0 20.0,-6.0 20.0,-5.0 19.0,-5.0 19.0,-4.0 20.0,-4.0 20.0,-5.0 19.0,-5.0 19.0,-6.0 20.0,-6.0 20.0,-7.0 21.0,-7.0 21.0,-6.0 22.0,-6.0 22.0,-7.0 23.0,-7.0 23.0,-6.0 24.0,-6.0 24.0,-5.0 23.0,-5.0 23.0,-4.0 24.0,-4.0 24.0,-5.0 25.0,-5.0 25.0,-4.0 26.0,-4.0 26.0,-3.0 25.0,-3.0 25.0,-2.0 26.0,-2.0 26.0,-1.0 25.0,-1.0 25.0,0.0 24.0,0.0 24.0,-1.0 23.0,-1.0 23.0,0.0 24.0,0.0 24.0,-1.0 23.0,-1.0 23.0,-2.0 24.0,-2.0 24.0,-3.0 25.0,-3.0 25.0,-2.0 26.0,-2.0 26.0,-3.0 27.0,-3.0 27.0,-2.0 28.0,-2.0 28.0,-1.0 27.0,-1.0 27.0,0.0 28.0,0.0 28.0,-1.0 29.0,-1.0 29.0,0.0 30.0,0.0 30.0,1.0 29.0,1.0 29.0,2.0 30.0,2.0 30.0,3.0 29.0,3.0 29.0,4.0 28.0,4.0 28.0,3.0 27.0,3.0 27.0,4.0 28.0,4.0 28.0,3.0 29.0,3.0 29.0,4.0 30.0,4.0 30.0,5.0 29.0,5.0 29.0,6.0 30.0,6.0 30.0,7.0 29.0,7.0 29.0,8.0 28.0,8.0 28.0,7.0 27.0,7.0 27.0,8.0 28.0,8.0 28.0,9.0 27.0,9.0 27.0,10.0 26.0,10.0 26.0,9.0 25.0,9.0 25.0,10.0 24.0,10.0 24.0,9.0 23.0,9.0 23.0,8.0 24.0,8.0 24.0,7.0 23.0,7.0 23.0,8.0 24.0,8.0 24.0,7.0 23.0,7.0 23.0,6.0 24.0,6.0 24.0,5.0 25.0,5.0 25.0,6.0 26.0,6.0 26.0,5.0 27.0,5.0 27.0,6.0 28.0,6.0 28.0,7.0 27.0,7.0 27.0,8.0 28.0,8.0 28.0,7.0 29.0,7.0 29.0,8.0 30.0,8.0 30.0,9.0 29.0,9.0 29.0,10.0 30.0,10.0 30.0,11.0 29.0,11.0 29.0,12.0 28.0,12.0 28.0,11.0 27.0,11.0 27.0,12.0 28.0,12.0 28.0,11.0 29.0,11.0 29.0,12.0 30.0,12.0 30.0,13.0 29.0,13.0 29.0,14.0 30.0,14.0 30.0,15.0 29.0,15.0 29.0,16.0 28.0,16.0 28.0,15.0 27.0,15.0 27.0,16.0 28.0,16.0 28.0,17.0 27.0,17.0 27.0,18.0 26.0,18.0 26.0,17.0 25.0,17.0 25.0,18.0 24.0,18.0 24.0,17.0 23.0,17.0 23.0,16.0 24.0,16.0 24.0,15.0 23.0,15.0 23.0,16.0 24.0,16.0 24.0,15.0 25.0,15.0 25.0,16.0 26.0,16.0 26.0,17.0 25.0,17.0 25.0,18.0 26.0,18.0 26.0,19.0 25.0,19.0 25.0,20.0 24.0,20.0 24.0,19.0 23.0,19.0 23.0,20.0 24.0,20.0 24.0,21.0 23.0,21.0 23.0,22.0 22.0,22.0 22.0,21.0 21.0,21.0 21.0,22.0 20.0,22.0 20.0,21.0 19.0,21.0 19.0,20.0 20.0,20.0 20.0,19.0 19.0,19.0 19.0,20.0 20.0,20.0 20.0,21.0 19.0,21.0 19.0,22.0 18.0,22.0 18.0,21.0 17.0,21.0 17.0,22.0 16.0,22.0 16.0,21.0 15.0,21.0 15.0,20.0 16.0,20.0 16.0,19.0 15.0,19.0 15.0,20.0 14.0,20.0 14.0,19.0 13.0,19.0 13.0,18.0 14.0,18.0 14.0,17.0 13.0,17.0 13.0,16.0 14.0,16.0 14.0,15.0 15.0,15.0 15.0,16.0 16.0,16.0 16.0,15.0 15.0,15.0 15.0,16.0 16.0,16.0 16.0,15.0 15.0,15.0 15.0,16.0 14.0,16.0 14.0,15.0 13.0,15.0 13.0,14.0 14.0,14.0 14.0,13.0 13.0,13.0 13.0,12.0 14.0,12.0 14.0,11.0 15.0,11.0 15.0,12.0 16.0,12.0 16.0,11.0 15.0,11.0 15.0,10.0 16.0,10.0 16.0,9.0 17.0,9.0 17.0,10.0 18.0,10.0 18.0,9.0 19.0,9.0 19.0,10.0 20.0,10.0 20.0,11.0 19.0,11.0 19.0,12.0 20.0,12.0 20.0,11.0 19.0,11.0 19.0,10.0 20.0,10.0 20.0,9.0 21.0,9.0 21.0,10.0 22.0,10.0 22.0,9.0 23.0,9.0 23.0,10.0 24.0,10.0 24.0,11.0 23.0,11.0 23.0,12.0 24.0,12.0 24.0,11.0 25.0,11.0 25.0,12.0 26.0,12.0 26.0,13.0 25.0,13.0 25.0,14.0 26.0,14.0 26.0,15.0 25.0,15.0 25.0,16.0 24.0,16.0 24.0,15.0 23.0,15.0 23.0,16.0 24.0,16.0 24.0,15.0 23.0,15.0 23.0,14.0 24.0,14.0 24.0,13.0 25.0,13.0 25.0,14.0 26.0,14.0 26.0,13.0 27.0,13.0 27.0,14.0 28.0,14.0 28.0,15.0 27.0,15.0 27.0,16.0 28.0,16.0 28.0,15.0 29.0,15.0 29.0,16.0 30.0,16.0 30.0,17.0 29.0,17.0 29.0,18.0 30.0,18.0 30.0,19.0 29.0,19.0 29.0,20.0 28.0,20.0 28.0,19.0 27.0,19.0 27.0,20.0 28.0,20.0 28.0,19.0 29.0,19.0 29.0,20.0 30.0,20.0 30.0,21.0 29.0,21.0 29.0,22.0 30.0,22.0 30.0,23.0 29.0,23.0 29.0,24.0 28.0,24.0 28.0,23.0 27.0,23.0 27.0,24.0 28.0,24.0 28.0,25.0 27.0,25.0 27.0,26.0 26.0,26.0 26.0,25.0 25.0,25.0 25.0,26.0 24.0,26.0 24.0,25.0 23.0,25.0 23.0,24.0 24.0,24.0 24.0,23.0 23.0,23.0 23.0,24.0 24.0,24.0 24.0,23.0 23.0,23.0 23.0,22.0 24.0,22.0 24.0,21.0 25.0,21.0 25.0,22.0 26.0,22.0 26.0,21.0 27.0,21.0 27.0,22.0 28.0,22.0 28.0,23.0 27.0,23.0 27.0,24.0 28.0,24.0 28.0,23.0 29.0,23.0 29.0,24.0 30.0,24.0 30.0,25.0 29.0,25.0 29.0,26.0 30.0,26.0 30.0,27.0 29.0,27.0 29.0,28.0 28.0,28.0 28.0,27.0 27.0,27.0 27.0,28.0 28.0,28.0 28.0,27.0 29.0,27.0 29.0,28.0 30.0,28.0 30.0,29.0 29.0,29.0 29.0,30.0 30.0,30.0 30.0,31.0 29.0,31.0 29.0,32.0 28.0,32.0 28.0,31.0 27.0,31.0 27.0,32.0 28.0,32.0 28.0,33.0 27.0,33.0 27.0,34.0 26.0,34.0 26.0,33.0 25.0,33.0 25.0,34.0 24.0,34.0 24.0,33.0 23.0,33.0 23.0,32.0 24.0,32.0 24.0,31.0 23.0,31.0 23.0,32.0 24.0,32.0 24.0,31.0 25.0,31.0 25.0,32.0 26.0,32.0 26.0,33.0 25.0,33.0 25.0,34.0 26.0,34.0 26.0,35.0 25.0,35.0 25.0,36.0 24.0,36.0 24.0,35.0 23.0,35.0 23.0,36.0 24.0,36.0 24.0,37.0 23.0,37.0 23.0,38.0 22.0,38.0 22.0,37.0 21.0,37.0 21.0,38.0 20.0,38.0 20.0,37.0 19.0,37.0 19.0,36.0 20.0,36.0 20.0,35.0 19.0,35.0 19.0,36.0 20.0,36.0 20.0,37.0 19.0,37.0 19.0,38.0 18.0,38.0 18.0,37.0 17.0,37.0 17.0,38.0 16.0,38.0 16.0,37.0 15.0,37.0 15.0,36.0 16.0,36.0 16.0,35.0 15.0,35.0 15.0,36.0 14.0,36.0 14.0,35.0 13.0,35.0 13.0,34.0 14.0,34.0 14.0,33.0 13.0,33.0 13.0,32.0 14.0,32.0 14.0,31.0 15.0,31.0 15.0,32.0 16.0,32.0 16.0,31.0 15.0,31.0 15.0,32.0 16.0,32.0 16.0,31.0 15.0,31.0 15.0,30.0 16.0,30.0 16.0,29.0 17.0,29.0 17.0,30.0 18.0,30.0 18.0,29.0 19.0,29.0 19.0,30.0 20.0,30.0 20.0,31.0 19.0,31.0 19.0,32.0 20.0,32.0 20.0,31.0 21.0,31.0 21.0,32.0 22.0,32.0 22.0,33.0 21.0,33.0 21.0,34.0 22.0,34.0 22.0,35.0 21.0,35.0 21.0,36.0 20.0,36.0 20.0,35.0 19.0,35.0 19.0,36.0 20.0,36.0 20.0,35.0 21.0,35.0 21.0,36.0 22.0,36.0 22.0,37.0 21.0,37.0 21.0,38.0 22.0,38.0 22.0,39.0 21.0,39.0 21.0,40.0 20.0,40.0 20.0,39.0 19.0,39.0 19.0,40.0 20.0,40.0 20.0,41.0 19.0,41.0 19.0,42.0 18.0,42.0 18.0,41.0 17.0,41.0 17.0,42.0 16.0,42.0 16.0,41.0 15.0,41.0 15.0,40.0 16.0,40.0 16.0,39.0 15.0,39.0 15.0,40.0 16.0,40.0 16.0,39.0 17.0,39.0 17.0,40.0 18.0,40.0 18.0,41.0 17.0,41.0 17.0,42.0 18.0,42.0 18.0,43.0 17.0,43.0 17.0,44.0 16.0,44.0 16.0,43.0 15.0,43.0 15.0,44.0 16.0,44.0 16.0,45.0 15.0,45.0 15.0,46.0 14.0,46.0 14.0,45.0 13.0,45.0 13.0,46.0 12.0,46.0 12.0,45.0 11.0,45.0 11.0,44.0 12.0,44.0 12.0,43.0 11.0,43.0 11.0,44.0 12.0,44.0 12.0,45.0 11.0,45.0 11.0,46.0 10.0,46.0 10.0,45.0 9.0,45.0 9.0,46.0 8.0,46.0 8.0,45.0 7.0,45.0 7.0,44.0 8.0,44.0 8.0,43.0 7.0,43.0 7.0,44.0 6.0,44.0 6.0,43.0 5.0,43.0 5.0,42.0 6.0,42.0 6.0,41.0 5.0,41.0 5.0,40.0 6.0,40.0 6.0,39.0 7.0,39.0 7.0,40.0 8.0,40.0 8.0,39.0 7.0,39.0 7.0,40.0 8.0,40.0 8.0,39.0 9.0,39.0 9.0,40.0 10.0,40.0 10.0,41.0 9.0,41.0 9.0,42.0 10.0,42.0 10.0,43.0 9.0,43.0 9.0,44.0 8.0,44.0 8.0,43.0 7.0,43.0 7.0,44.0 8.0,44.0 8.0,45.0 7.0,45.0 7.0,46.0 6.0,46.0 6.0,45.0 5.0,45.0 5.0,46.0 4.0,46.0 4.0,45.0 3.0,45.0 3.0,44.0 4.0,44.0 4.0,43.0 3.0,43.0 3.0,44.0 4.0,44.0 4.0,45.0 3.0,45.0 3.0,46.0 2.0,46.0 2.0,45.0 1.0,45.0 1.0,46.0 -0.0,46.0 -0.0,45.0 -1.0,45.0 -1.0,44.0 -0.0,44.0 -0.0,43.0 -1.0,43.0 -1.0,44.0 -2.0,44.0 -2.0,43.0 -3.0,43.0 -3.0,42.0 -2.0,42.0 -2.0,41.0 -3.0,41.0 -3.0,40.0 -2.0,40.0 -2.0,39.0 -1.0,39.0 -1.0,40.0 -0.0,40.0 -0.0,39.0 -1.0,39.0 -1.0,40.0 -0.0,40.0 -0.0,41.0 -1.0,41.0 -1.0,42.0 -2.0,42.0 -2.0,41.0 -3.0,41.0 -3.0,42.0 -4.0,42.0 -4.0,41.0 -5.0,41.0 -5.0,40.0 -4.0,40.0 -4.0,39.0 -5.0,39.0 -5.0,40.0 -6.0,40.0 -6.0,39.0 -7.0,39.0 -7.0,38.0 -6.0,38.0 -6.0,37.0 -7.0,37.0 -7.0,36.0 -6.0,36.0 -6.0,35.0 -5.0,35.0 -5.0,36.0 -4.0,36.0 -4.0,35.0 -5.0,35.0 -5.0,36.0 -6.0,36.0 -6.0,35.0 -7.0,35.0 -7.0,34.0 -6.0,34.0 -6.0,33.0 -7.0,33.0 -7.0,32.0 -6.0,32.0 -6.0,31.0 -5.0,31.0 -5.0,32.0 -4.0,32.0 -4.0,31.0 -5.0,31.0 -5.0,30.0 -4.0,30.0 -4.0,29.0 -3.0,29.0 -3.0,30.0 -2.0,30.0 -2.0,29.0 -1.0,29.0 -1.0,30.0 -0.0,30.0 -0.0,31.0 -1.0,31.0 -1.0,32.0 -0.0,32.0 -0.0,31.0 -1.0,31.0 -1.0,32.0 -0.0,32.0 -0.0,31.0 -1.0,31.0 -1.0,32.0 -2.0,32.0 -2.0,31.0 -3.0,31.0 -3.0,30.0 -2.0,30.0 -2.0,29.0 -3.0,29.0 -3.0,28.0 -2.0,28.0 -2.0,27.0 -1.0,27.0 -1.0,28.0 -0.0,28.0 -0.0,27.0 -1.0,27.0 -1.0,26.0 -0.0,26.0 -0.0,25.0 1.0,25.0 1.0,26.0 2.0,26.0 2.0,25.0 3.0,25.0 3.0,26.0 4.0,26.0 4.0,27.0 3.0,27.0 3.0,28.0 4.0,28.0 4.0,27.0 3.0,27.0 3.0,26.0 4.0,26.0 4.0,25.0 5.0,25.0 5.0,26.0 6.0,26.0 6.0,25.0 7.0,25.0 7.0,26.0 8.0,26.0 8.0,27.0 7.0,27.0 7.0,28.0 8.0,28.0 8.0,27.0 9.0,27.0 9.0,28.0 10.0,28.0 10.0,29.0 9.0,29.0 9.0,30.0 10.0,30.0 10.0,31.0 9.0,31.0 9.0,32.0 8.0,32.0 8.0,31.0 7.0,31.0 7.0,32.0 8.0,32.0 8.0,31.0 7.0,31.0 7.0,30.0 8.0,30.0 8.0,29.0 9.0,29.0 9.0,30.0 10.0,30.0 10.0,29.0 11.0,29.0 11.0,30.0 12.0,30.0 12.0,31.0 11.0,31.0 11.0,32.0 12.0,32.0 12.0,31.0 13.0,31.0 13.0,32.0 14.0,32.0 14.0,33.0 13.0,33.0 13.0,34.0 14.0,34.0 14.0,35.0 13.0,35.0 13.0,36.0 12.0,36.0 12.0,35.0 11.0,35.0 11.0,36.0 12.0,36.0 12.0,35.0 13.0,35.0 13.0,36.0 14.0,36.0 14.0,37.0 13.0,37.0 13.0,38.0 14.0,38.0 14.0,39.0 13.0,39.0 13.0,40.0 12.0,40.0 12.0,39.0 11.0,39.0 11.0,40.0 12.0,40.0 12.0,41.0 11.0,41.0 11.0,42.0 10.0,42.0 10.0,41.0 9.0,41.0 9.0,42.0 8.0,42.0 8.0,41.0 7.0,41.0 7.0,40.0 8.0,40.0 8.0,39.0 7.0,39.0 7.0,40.0 8.0,40.0 8.0,39.0 7.0,39.0 7.0,38.0 8.0,38.0 8.0,37.0 9.0,37.0 9.0,38.0 10.0,38.0 10.0,37.0 11.0,37.0 11.0,38.0 12.0,38.0 12.0,39.0 11.0,39.0 11.0,40.0 12.0,40.0 12.0,39.0 13.0,39.0 13.0,40.0 14.0,40.0 14.0,41.0 13.0,41.0 13.0,42.0 14.0,42.0 14.0,43.0 13.0,43.0 13.0,44.0 12.0,44.0 12.0,43.0 11.0,43.0 11.0,44.0 12.0,44.0 12.0,43.0 13.0,43.0 13.0,44.0 14.0,44.0 14.0,45.0 13.0,45.0 13.0,46.0 14.0,46.0 14.0,47.0 13.0,47.0 13.0,48.0 12.0,48.0 12.0,47.0 11.0,47.0 11.0,48.0 12.0,48.0 12.0,49.0 11.0,49.0 11.0,50.0 10.0,50.0 10.0,49.0 9.0,49.0 9.0,50.0 8.0,50.0 8.0,49.0 7.0,49.0 7.0,48.0 8.0,48.0 8.0,47.0 7.0,47.0 7.0,48.0 8.0,48.0 8.0,47.0 9.0,47.0 9.0,48.0 10.0,48.0 10.0,49.0 9.0,49.0 9.0,50.0 10.0,50.0 10.0,51.0 9.0,51.0 9.0,52.0 8.0,52.0 8.0,51.0 7.0,51.0 7.0,52.0 8.0,52.0 8.0,53.0 7.0,53.0 7.0,54.0 6.0,54.0 6.0,53.0 5.0,53.0 5.0,54.0 4.0,54.0 4.0,53.0 3.0,53.0 3.0,52.0 4.0,52.0 4.0,51.0 3.0,51.0 3.0,52.0 4.0,52.0 4.0,53.0 3.0,53.0 3.0,54.0 2.0,54.0 2.0,53.0 1.0,53.0 1.0,54.0 -0.0,54.0 -0.0,53.0 -1.0,53.0 -1.0,52.0 -0.0,52.0 -0.0,51.0 -1.0,51.0 -1.0,52.0 -2.0,52.0 -2.0,51.0 -3.0,51.0 -3.0,50.0 -2.0,50.0 -2.0,49.0 -3.0,49.0 -3.0,48.0 -2.0,48.0 -2.0,47.0 -1.0,47.0 -1.0,48.0 -0.0,48.0 -0.0,47.0 -1.0,47.0 -1.0,48.0 -0.0,48.0 -0.0,47.0 -1.0,47.0 -1.0,46.0 -0.0,46.0 -0.0,45.0 1.0,45.0 1.0,46.0 2.0,46.0 2.0,45.0 3.0,45.0 3.0,46.0 4.0,46.0 4.0,47.0 3.0,47.0 3.0,48.0 4.0,48.0 4.0,47.0 5.0,47.0 5.0,48.0 6.0,48.0 6.0,49.0 5.0,49.0 5.0,50.0 6.0,50.0 6.0,51.0 5.0,51.0 5.0,52.0 4.0,52.0 4.0,51.0 3.0,51.0 3.0,52.0 4.0,52.0 4.0,51.0 5.0,51.0 5.0,52.0 6.0,52.0 6.0,53.0 5.0,53.0 5.0,54.0 6.0,54.0 6.0,55.0 5.0,55.0 5.0,56.0 4.0,56.0 4.0,55.0 3.0,55.0 3.0,56.0 4.0,56.0 4.0,57.0 3.0,57.0 3.0,58.0 2.0,58.0 2.0,57.0 1.0,57.0 1.0,58.0 -0.0,58.0 -0.0,57.0 -1.0,57.0 -1.0,56.0 -0.0,56.0 -0.0,55.0 -1.0,55.0 -1.0,56.0 -0.0,56.0 -0.0,55.0 1.0,55.0 1.0,56.0 2.0,56.0 2.0,57.0 1.0,57.0 1.0,58.0 2.0,58.0 2.0,59.0 1.0,59.0 1.0,60.0 -0.0,60.0 -0.0,59.0 -1.0,59.0 -1.0,60.0 -0.0,60.0 -0.0,61.0 -1.0,61.0 -1.0,62.0 -2.0,62.0 -2.0,61.0 -3.0,61.0 -3.0,62.0 -4.0,62.0 -4.0,61.0 -5.0,61.0 -5.0,60.0 -4.0,60.0 -4.0,59.0 -5.0,59.0 -5.0,60.0 -4.0,60.0 -4.0,61.0 -5.0,61.0 -5.0,62.0 -6.0,62.0 -6.0,61.0 -7.0,61.0 -7.0,62.0 -8.0,62.0 -8.0,61.0 -9.0,61.0 -9.0,60.0 -8.0,60.0 -8.0,59.0 -9.0,59.0 -9.0,60.0 -10.0,60.0 -10.0,59.0 -11.0,59.0 -11.0,58.0 -10.0,58.0 -10.0,57.0 -11.0,57.0 -11.0,56.0 -10.0,56.0 -10.0,55.0 -9.0,55.0 -9.0,56.0 -8.0,56.0 -8.0,55.0 -9.0,55.0 -9.0,56.0 -8.0,56.0 -8.0,55.0 -7.0,55.0 -7.0,56.0 -6.0,56.0 -6.0,57.0 -7.0,57.0 -7.0,58.0 -6.0,58.0 -6.0,59.0 -7.0,59.0 -7.0,60.0 -8.0,60.0 -8.0,59.0 -9.0,59.0 -9.0,60.0 -8.0,60.0 -8.0,61.0 -9.0,61.0 -9.0,62.0 -10.0,62.0 -10.0,61.0 -11.0,61.0 -11.0,62.0 -12.0,62.0 -12.0,61.0 -13.0,61.0 -13.0,60.0 -12.0,60.0 -12.0,59.0 -13.0,59.0 -13.0,60.0 -12.0,60.0 -12.0,61.0 -13.0,61.0 -13.0,62.0 -14.0,62.0 -14.0,61.0 -15.0,61.0 -15.0,62.0 -16.0,62.0 -16.0,61.0 -17.0,61.0 -17.0,60.0 -16.0,60.0 -16.0,59.0 -17.0,59.0 -17.0,60.0 -18.0,60.0 -18.0,59.0 -19.0,59.0 -19.0,58.0 -18.0,58.0 -18.0,57.0 -19.0,57.0 -19.0,56.0 -18.0,56.0 -18.0,55.0 -17.0,55.0 -17.0,56.0 -16.0,56.0 -16.0,55.0 -17.0,55.0 -17.0,56.0 -16.0,56.0 -16.0,57.0 -17.0,57.0 -17.0,58.0 -18.0,58.0 -18.0,57.0 -19.0,57.0 -19.0,58.0 -20.0,58.0 -20.0,57.0 -21.0,57.0 -21.0,56.0 -20.0,56.0 -20.0,55.0 -21.0,55.0 -21.0,56.0 -22.0,56.0 -22.0,55.0 -23.0,55.0 -23.0,54.0 -22.0,54.0 -22.0,53.0 -23.0,53.0 -23.0,52.0 -22.0,52.0 -22.0,51.0 -21.0,51.0 -21.0,52.0 -20.0,52.0 -20.0,51.0 -21.0,51.0 -21.0,52.0 -22.0,52.0 -22.0,51.0 -23.0,51.0 -23.0,50.0 -22.0,50.0 -22.0,49.0 -23.0,49.0 -23.0,48.0 -22.0,48.0 -22.0,47.0 -21.0,47.0 -21.0,48.0 -20.0,48.0 -20.0,47.0 -21.0,47.0 -21.0,46.0 -20.0,46.0 -20.0,45.0 -19.0,45.0 -19.0,46.0 -18.0,46.0 -18.0,45.0 -17.0,45.0 -17.0,46.0 -16.0,46.0 -16.0,47.0 -17.0,47.0 -17.0,48.0 -16.0,48.0 -16.0,47.0 -17.0,47.0 -17.0,48.0 -16.0,48.0 -16.0,47.0 -17.0,47.0 -17.0,46.0 -16.0,46.0 -16.0,45.0 -15.0,45.0 -15.0,46.0 -14.0,46.0 -14.0,45.0 -13.0,45.0 -13.0,46.0 -12.0,46.0 -12.0,47.0 -13.0,47.0 -13.0,48.0 -12.0,48.0 -12.0,47.0 -11.0,47.0 -11.0,48.0 -10.0,48.0 -10.0,49.0 -11.0,49.0 -11.0,50.0 -10.0,50.0 -10.0,51.0 -11.0,51.0 -11.0,52.0 -12.0,52.0 -12.0,51.0 -13.0,51.0 -13.0,52.0 -12.0,52.0 -12.0,51.0 -11.0,51.0 -11.0,52.0 -10.0,52.0 -10.0,53.0 -11.0,53.0 -11.0,54.0 -10.0,54.0 -10.0,55.0 -11.0,55.0 -11.0,56.0 -12.0,56.0 -12.0,55.0 -13.0,55.0 -13.0,56.0 -12.0,56.0 -12.0,57.0 -13.0,57.0 -13.0,58.0 -14.0,58.0 -14.0,57.0 -15.0,57.0 -15.0,58.0 -16.0,58.0 -16.0,57.0 -17.0,57.0 -17.0,56.0 -16.0,56.0 -16.0,55.0 -17.0,55.0 -17.0,56.0 -16.0,56.0 -16.0,55.0 -15.0,55.0 -15.0,56.0 -14.0,56.0 -14.0,57.0 -15.0,57.0 -15.0,58.0 -14.0,58.0 -14.0,59.0 -15.0,59.0 -15.0,60.0 -16.0,60.0 -16.0,59.0 -17.0,59.0 -17.0,60.0 -16.0,60.0 -16.0,61.0 -17.0,61.0 -17.0,62.0 -18.0,62.0 -18.0,61.0 -19.0,61.0 -19.0,62.0 -20.0,62.0 -20.0,61.0 -21.0,61.0 -21.0,60.0 -20.0,60.0 -20.0,59.0 -21.0,59.0 -21.0,60.0 -20.0,60.0 -20.0,61.0 -21.0,61.0 -21.0,62.0 -22.0,62.0 -22.0,61.0 -23.0,61.0 -23.0,62.0 -24.0,62.0 -24.0,61.0 -25.0,61.0 -25.0,60.0 -24.0,60.0 -24.0,59.0 -25.0,59.0 -25.0,60.0 -26.0,60.0 -26.0,59.0 -27.0,59.0 -27.0,58.0 -26.0,58.0 -26.0,57.0 -27.0,57.0 -27.0,56.0 -26.0,56.0 -26.0,55.0 -25.0,55.0 -25.0,56.0 -24.0,56.0 -24.0,55.0 -25.0,55.0 -25.0,56.0 -24.0,56.0 -24.0,55.0 -23.0,55.0 -23.0,56.0 -22.0,56.0 -22.0,57.0 -23.0,57.0 -23.0,58.0 -22.0,58.0 -22.0,59.0 -23.0,59.0 -23.0,60.0 -24.0,60.0 -24.0,59.0 -25.0,59.0 -25.0,60.0 -24.0,60.0 -24.0,61.0 -25.0,61.0 -25.0,62.0 -26.0,62.0 -26.0,61.0 -27.0,61.0 -27.0,62.0 -28.0,62.0 -28.0,61.0 -29.0,61.0 -29.0,60.0 -28.0,60.0 -28.0,59.0 -29.0,59.0 -29.0,60.0 -28.0,60.0 -28.0,61.0 -29.0,61.0 -29.0,62.0 -30.0,62.0 -30.0,61.0 -31.0,61.0 -31.0,62.0 -32.0,62.0 -32.0,61.0 -33.0,61.0 -33.0,60.0 -32.0,60.0 -32.0,59.0 -33.0,59.0 -33.0,60.0 -34.0,60.0 -34.0,59.0 -35.0,59.0 -35.0,58.0 -34.0,58.0 -34.0,57.0 -35.0,57.0 -35.0,56.0 -34.0,56.0 -34.0,55.0 -33.0,55.0 -33.0,56.0 -32.0,56.0 -32.0,55.0 -33.0,55.0 -33.0,56.0 -32.0,56.0 -32.0,57.0 -33.0,57.0 -33.0,58.0 -34.0,58.0 -34.0,57.0 -35.0,57.0 -35.0,58.0 -36.0,58.0 -36.0,57.0 -37.0,57.0 -37.0,56.0 -36.0,56.0 -36.0,55.0 -37.0,55.0 -37.0,56.0 -38.0,56.0 -38.0,55.0 -39.0,55.0 -39.0,54.0 -38.0,54.0 -38.0,53.0 -39.0,53.0 -39.0,52.0 -38.0,52.0 -38.0,51.0 -37.0,51.0 -37.0,52.0 -36.0,52.0 -36.0,51.0 -37.0,51.0 -37.0,52.0 -38.0,52.0 -38.0,51.0 -39.0,51.0 -39.0,50.0 -38.0,50.0 -38.0,49.0 -39.0,49.0 -39.0,48.0 -38.0,48.0 -38.0,47.0 -37.0,47.0 -37.0,48.0 -36.0,48.0 -36.0,47.0 -37.0,47.0 -37.0,46.0 -36.0,46.0 -36.0,45.0 -35.0,45.0 -35.0,46.0 -34.0,46.0 -34.0,45.0 -33.0,45.0 -33.0,46.0 -32.0,46.0 -32.0,47.0 -33.0,47.0 -33.0,48.0 -32.0,48.0 -32.0,47.0 -33.0,47.0 -33.0,48.0 -32.0,48.0 -32.0,47.0 -31.0,47.0 -31.0,48.0 -30.0,48.0 -30.0,49.0 -31.0,49.0 -31.0,50.0 -30.0,50.0 -30.0,51.0 -31.0,51.0 -31.0,52.0 -32.0,52.0 -32.0,51.0 -33.0,51.0 -33.0,52.0 -32.0,52.0 -32.0,53.0 -33.0,53.0 -33.0,54.0 -34.0,54.0 -34.0,53.0 -35.0,53.0 -35.0,54.0 -36.0,54.0 -36.0,53.0 -37.0,53.0 -37.0,52.0 -36.0,52.0 -36.0,51.0 -37.0,51.0 -37.0,52.0 -36.0,52.0 -36.0,53.0 -37.0,53.0 -37.0,54.0 -38.0,54.0 -38.0,53.0 -39.0,53.0 -39.0,54.0 -40.0,54.0 -40.0,53.0 -41.0,53.0 -41.0,52.0 -40.0,52.0 -40.0,51.0 -41.0,51.0 -41.0,52.0 -42.0,52.0 -42.0,51.0 -43.0,51.0 -43.0,50.0 -42.0,50.0 -42.0,49.0 -43.0,49.0 -43.0,48.0 -42.0,48.0 -42.0,47.0 -41.0,47.0 -41.0,48.0 -40.0,48.0 -40.0,47.0 -41.0,47.0 -41.0,48.0 -40.0,48.0 -40.0,49.0 -41.0,49.0 -41.0,50.0 -42.0,50.0 -42.0,49.0 -43.0,49.0 -43.0,50.0 -44.0,50.0 -44.0,49.0 -45.0,49.0 -45.0,48.0 -44.0,48.0 -44.0,47.0 -45.0,47.0 -45.0,48.0 -46.0,48.0 -46.0,47.0 -47.0,47.0 -47.0,46.0 -46.0,46.0 -46.0,45.0 -47.0,45.0 -47.0,44.0 -46.0,44.0 -46.0,43.0 -45.0,43.0 -45.0,44.0 -44.0,44.0 -44.0,43.0 -45.0,43.0 -45.0,44.0 -46.0,44.0 -46.0,43.0 -47.0,43.0 -47.0,42.0 -46.0,42.0 -46.0,41.0 -47.0,41.0 -47.0,40.0 -46.0,40.0 -46.0,39.0 -45.0,39.0 -45.0,40.0 -44.0,40.0 -44.0,39.0 -45.0,39.0 -45.0,38.0 -44.0,38.0 -44.0,37.0 -43.0,37.0 -43.0,38.0 -42.0,38.0 -42.0,37.0 -41.0,37.0 -41.0,38.0 -40.0,38.0 -40.0,39.0 -41.0,39.0 -41.0,40.0 -40.0,40.0 -40.0,39.0 -41.0,39.0 -41.0,40.0 -40.0,40.0 -40.0,41.0 -41.0,41.0 -41.0,42.0 -42.0,42.0 -42.0,41.0 -43.0,41.0 -43.0,42.0 -44.0,42.0 -44.0,41.0 -45.0,41.0 -45.0,40.0 -44.0,40.0 -44.0,39.0 -45.0,39.0 -45.0,40.0 -46.0,40.0 -46.0,39.0 -47.0,39.0 -47.0,38.0 -46.0,38.0 -46.0,37.0 -47.0,37.0 -47.0,36.0 -46.0,36.0 -46.0,35.0 -45.0,35.0 -45.0,36.0 -44.0,36.0 -44.0,35.0 -45.0,35.0 -45.0,36.0 -46.0,36.0 -46.0,35.0 -47.0,35.0 -47.0,34.0 -46.0,34.0 -46.0,33.0 -47.0,33.0 -47.0,32.0 -46.0,32.0 -46.0,31.0 -45.0,31.0 -45.0,32.0 -44.0,32.0 -44.0,31.0 -45.0,31.0 -45.0,30.0 -44.0,30.0 -44.0,29.0 -43.0,29.0 -43.0,30.0 -42.0,30.0 -42.0,29.0 -41.0,29.0 -41.0,30.0 -40.0,30.0 -40.0,31.0 -41.0,31.0 -41.0,32.0 -40.0,32.0 -40.0,31.0 -41.0,31.0 -41.0,32.0 -42.0,32.0 -42.0,31.0 -43.0,31.0 -43.0,30.0 -42.0,30.0 -42.0,29.0 -43.0,29.0 -43.0,28.0 -42.0,28.0 -42.0,27.0 -41.0,27.0 -41.0,28.0 -40.0,28.0 -40.0,27.0 -41.0,27.0 -41.0,26.0 -40.0,26.0 -40.0,25.0 -39.0,25.0 -39.0,26.0 -38.0,26.0 -38.0,25.0 -37.0,25.0 -37.0,26.0 -36.0,26.0 -36.0,27.0 -37.0,27.0 -37.0,28.0 -36.0,28.0 -36.0,27.0 -37.0,27.0 -37.0,26.0 -36.0,26.0 -36.0,25.0 -35.0,25.0 -35.0,26.0 -34.0,26.0 -34.0,25.0 -33.0,25.0 -33.0,26.0 -32.0,26.0 -32.0,27.0 -33.0,27.0 -33.0,28.0 -32.0,28.0 -32.0,27.0 -31.0,27.0 -31.0,28.0 -30.0,28.0 -30.0,29.0 -31.0,29.0 -31.0,30.0 -30.0,30.0 -30.0,31.0 -31.0,31.0 -31.0,32.0 -32.0,32.0 -32.0,31.0 -33.0,31.0 -33.0,32.0 -32.0,32.0 -32.0,31.0 -33.0,31.0 -33.0,32.0 -32.0,32.0 -32.0,31.0 -33.0,31.0 -33.0,32.0" />
</g>
</svg>