<svg xmlns="http://www.w3.org/2000/svg" width="161.8" height="100.0" viewBox="-4.33 -1.77 171.80 110.00">
<g fill="none" stroke="black" stroke-width="0.1550%" transform="translate(0, 106.4516) scale(3.2258, -3.2258)">
<polyline points="0.21,1.00 0.41,1.00 0.62,2.00 0.83,2.00 1.04,2.00 1.24,2.00 1.45,3.00 1.66,3.00 1.87,4.00 2.07,4.00 2.28,4.00 2.49,4.00 2.69,4.00 2.90,4.00 3.11,4.00 3.32,4.00 3.52,4.00 3.73,4.00 3.94,5.00 4.15,5.00 4.35,6.00 4.56,6.00 4.77,6.00 4.97,6.00 5.18,7.00 5.39,7.00 5.60,8.00 5.80,8.00 6.01,8.00 6.22,8.00 6.43,8.00 6.63,8.00 6.84,8.00 7.05,8.00 7.25,8.00 7.46,8.00 7.67,8.00 7.88,8.00 8.08,8.00 8.29,8.00 8.50,8.00 8.71,8.00 8.91,8.00 9.12,8.00 9.33,8.00 9.53,8.00 9.74,8.00 9.95,8.00 10.16,8.00 10.36,8.00 10.57,8.00 10.78,8.00 10.99,8.00 11.19,8.00 11.40,9.00 11.61,9.00 11.81,10.00 12.02,10.00 12.23,10.00 12.44,10.00 12.64,11.00 12.85,11.00 13.06,12.00 13.27,12.00 13.47,12.00 13.68,12.00 13.89,12.00 14.09,12.00 14.30,12.00 14.51,12.00 14.72,12.00 14.92,12.00 15.13,13.00 15.34,13.00 15.55,14.00 15.75,14.00 15.96,14.00 16.17,14.00 16.37,15.00 16.58,15.00 16.79,16.00 17.00,16.00 17.20,16.00 17.41,16.00 17.62,16.00 17.83,16.00 18.03,16.00 18.24,16.00 18.45,16.00 18.65,16.00 18.86,16.00 19.07,16.00 19.28,16.00 19.48,16.00 19.69,16.00 19.90,16.00 20.11,16.00 20.31,16.00 20.52,16.00 20.73,16.00 20.93,16.00 21.14,16.00 21.35,16.00 21.56,16.00 21.76,16.00 21.97,16.00 22.18,16.00 22.39,16.00 22.59,16.00 22.80,16.00 23.01,16.00 23.21,16.00 23.42,16.00 23.63,16.00 23.84,16.00 24.04,16.00 24.25,16.00 24.46,16.00 24.66,16.00 24.87,16.00 25.08,16.00 25.29,16.00 25.49,16.00 25.70,16.00 25.91,16.00 26.12,16.00 26.32,16.00 26.53,16.00 26.74,16.00 26.94,16.00 27.15,16.00 27.36,16.00 27.57,16.00 27.77,16.00 27.98,16.00 28.19,16.00 28.40,16.00 28.60,16.00 28.81,16.00 29.02,16.00 29.22,16.00 29.43,16.00 29.64,16.00 29.85,16.00 30.05,16.00 30.26,16.00 30.47,16.00 30.68,16.00 30.88,16.00 31.09,16.00 31.30,16.00 31.50,16.00 31.71,16.00 31.92,16.00 32.13,16.00 32.33,16.00 32.54,16.00 32.75,16.00 32.96,16.00 33.16,16.00 33.37,16.00 33.58,16.00 33.78,17.00 33.99,17.00 34.20,18.00 34.41,18.00 34.61,18.00 34.82,18.00 35.03,19.00 35.24,19.00 35.44,20.00 35.65,20.00 35.86,20.00 36.06,20.00 36.27,20.00 36.48,20.00 36.69,20.00 36.89,20.00 37.10,20.00 37.31,20.00 37.52,21.00 37.72,21.00 37.93,22.00 38.14,22.00 38.34,22.00 38.55,22.00 38.76,23.00 38.97,23.00 39.17,24.00 39.38,24.00 39.59,24.00 39.80,24.00 40.00,24.00 40.21,24.00 40.42,24.00 40.62,24.00 40.83,24.00 41.04,24.00 41.25,24.00 41.45,24.00 41.66,24.00 41.87,24.00 42.08,24.00 42.28,24.00 42.49,24.00 42.70,24.00 42.90,24.00 43.11,24.00 43.32,24.00 43.53,24.00 43.73,24.00 43.94,24.00 44.15,24.00 44.36,24.00 44.56,24.00 44.77,24.00 44.98,25.00 45.18,25.00 45.39,26.00 45.60,26.00 45.81,26.00 46.01,26.00 46.22,27.00 46.43,27.00 46.64,28.00 46.84,28.00 47.05,28.00 47.26,28.00 47.46,28.00 47.67,28.00 47.88,28.00 48.09,28.00 48.29,28.00 48.50,28.00 48.71,29.00 48.92,29.00 49.12,30.00 49.33,30.00 49.54,30.00 49.74,30.00 49.95,31.00 50.16,31.00 50.37,32.00" />
</g>
</svg>