<svg xmlns="http://www.w3.org/2000/svg" width="161.8" height="100.0" viewBox="-2 -5 172 110">
<g fill="none" stroke="black" stroke-width="10.0800%" transform="translate(0, 100.0000) scale(0.0496, -0.0496)">

<line x1="104" y1="0" x2="104" y2="1" />
<line x1="155" y1="0" x2="155" y2="5" />
<line x1="207" y1="0" x2="207" y2="6" />
<line x1="259" y1="0" x2="259" y2="22" />
<line x1="311" y1="0" x2="311" y2="23" />
<line x1="362" y1="0" x2="362" y2="27" />
<line x1="414" y1="0" x2="414" y2="28" />
<line x1="466" y1="0" x2="466" y2="92" />
<line x1="518" y1="0" x2="518" y2="93" />
<line x1="570" y1="0" x2="570" y2="97" />
<line x1="621" y1="0" x2="621" y2="98" />
<line x1="673" y1="0" x2="673" y2="114" />
<line x1="725" y1="0" x2="725" y2="115" />
<line x1="777" y1="0" x2="777" y2="119" />
<line x1="828" y1="0" x2="828" y2="120" />
<line x1="880" y1="0" x2="880" y2="376" />
<line x1="932" y1="0" x2="932" y2="377" />
<line x1="984" y1="0" x2="984" y2="381" />
<line x1="1036" y1="0" x2="1036" y2="382" />
<line x1="1087" y1="0" x2="1087" y2="398" />
<line x1="1139" y1="0" x2="1139" y2="399" />
<line x1="1191" y1="0" x2="1191" y2="403" />
<line x1="1243" y1="0" x2="1243" y2="404" />
<line x1="1294" y1="0" x2="1294" y2="468" />
<line x1="1346" y1="0" x2="1346" y2="469" />
<line x1="1398" y1="0" x2="1398" y2="473" />
<line x1="1450" y1="0" x2="1450" y2="474" />
<line x1="1502" y1="0" x2="1502" y2="490" />
<line x1="1553" y1="0" x2="1553" y2="491" />
<line x1="1605" y1="0" x2="1605" y2="495" />
<line x1="1657" y1="0" x2="1657" y2="496" />
<line x1="1709" y1="0" x2="1709" y2="1520" />
<line x1="1760" y1="0" x2="1760" y2="1521" />
<line x1="1812" y1="0" x2="1812" y2="1525" />
<line x1="1864" y1="0" x2="1864" y2="1526" />
<line x1="1916" y1="0" x2="1916" y2="1542" />
<line x1="1968" y1="0" x2="1968" y2="1543" />
<line x1="2019" y1="0" x2="2019" y2="1547" />
<line x1="2071" y1="0" x2="2071" y2="1548" />
<line x1="2123" y1="0" x2="2123" y2="1612" />
<line x1="2175" y1="0" x2="2175" y2="1613" />
<line x1="2226" y1="0" x2="2226" y2="1617" />
<line x1="2278" y1="0" x2="2278" y2="1618" />
<line x1="2330" y1="0" x2="2330" y2="1634" />
<line x1="2382" y1="0" x2="2382" y2="1635" />
<line x1="2434" y1="0" x2="2434" y2="1639" />
<line x1="2485" y1="0" x2="2485" y2="1640" />
<line x1="2537" y1="0" x2="2537" y2="1896" />
<line x1="2589" y1="0" x2="2589" y2="1897" />
<line x1="2641" y1="0" x2="2641" y2="1901" />
<line x1="2692" y1="0" x2="2692" y2="1902" />
<line x1="2744" y1="0" x2="2744" y2="1918" />
<line x1="2796" y1="0" x2="2796" y2="1919" />
<line x1="2848" y1="0" x2="2848" y2="1923" />
<line x1="2900" y1="0" x2="2900" y2="1924" />
<line x1="2951" y1="0" x2="2951" y2="1988" />
<line x1="3003" y1="0" x2="3003" y2="1989" />
<line x1="3055" y1="0" x2="3055" y2="1993" />
<line x1="3107" y1="0" x2="3107" y2="1994" />
<line x1="3158" y1="0" x2="3158" y2="2010" />
<line x1="3210" y1="0" x2="3210" y2="2011" />
<line x1="3262" y1="0" x2="3262" y2="2015" />
<line x1="3314" y1="0" x2="3314" y2="2016" />
</g>
</svg>