<svg xmlns="http://www.w3.org/2000/svg" width="161.8" height="100.0" viewBox="-4.2 -5.0 171.8 110.0">
<g fill="none" stroke="black" stroke-width="0.4401%" transform="translate(0, 100.0000) scale(1.1360, -1.1360)">
<circle cx="0.7" cy="0.0" r="0.4" />
<circle cx="1.4" cy="0.0" r="0.4" />
<circle cx="2.1" cy="1.6" r="0.4" />
<circle cx="2.9" cy="0.0" r="0.4" />
<circle cx="3.6" cy="1.6" r="0.4" />
<circle cx="4.3" cy="1.6" r="0.4" />
<circle cx="5.0" cy="4.7" r="0.4" />
<circle cx="5.7" cy="0.0" r="0.4" />
<circle cx="6.4" cy="1.6" r="0.4" />
<circle cx="7.2" cy="1.6" r="0.4" />
<circle cx="7.9" cy="4.7" r="0.4" />
<circle cx="8.6" cy="1.6" r="0.4" />
<circle cx="9.3" cy="4.7" r="0.4" />
<circle cx="10.0" cy="4.7" r="0.4" />
<circle cx="10.7" cy="10.4" r="0.4" />
<circle cx="11.5" cy="0.0" r="0.4" />
<circle cx="12.2" cy="1.6" r="0.4" />
<circle cx="12.9" cy="1.6" r="0.4" />
<circle cx="13.6" cy="4.7" r="0.4" />
<circle cx="14.3" cy="1.6" r="0.4" />
<circle cx="15.0" cy="4.7" r="0.4" />
<circle cx="15.7" cy="4.7" r="0.4" />
<circle cx="16.5" cy="10.4" r="0.4" />
<circle cx="17.2" cy="1.6" r="0.4" />
<circle cx="17.9" cy="4.7" r="0.4" />
<circle cx="18.6" cy="4.7" r="0.4" />
<circle cx="19.3" cy="10.4" r="0.4" />
<circle cx="20.0" cy="4.7" r="0.4" />
<circle cx="20.8" cy="10.4" r="0.4" />
<circle cx="21.5" cy="10.4" r="0.4" />
<circle cx="22.2" cy="21.5" r="0.4" />
<circle cx="22.9" cy="0.0" r="0.4" />
<circle cx="23.6" cy="1.6" r="0.4" />
<circle cx="24.3" cy="1.6" r="0.4" />
<circle cx="25.1" cy="4.7" r="0.4" />
<circle cx="25.8" cy="1.6" r="0.4" />
<circle cx="26.5" cy="4.7" r="0.4" />
<circle cx="27.2" cy="4.7" r="0.4" />
<circle cx="27.9" cy="10.4" r="0.4" />
<circle cx="28.6" cy="1.6" r="0.4" />
<circle cx="29.3" cy="4.7" r="0.4" />
<circle cx="30.1" cy="4.7" r="0.4" />
<circle cx="30.8" cy="10.4" r="0.4" />
<circle cx="31.5" cy="4.7" r="0.4" />
<circle cx="32.2" cy="10.4" r="0.4" />
<circle cx="32.9" cy="10.4" r="0.4" />
<circle cx="33.6" cy="21.5" r="0.4" />
<circle cx="34.4" cy="1.6" r="0.4" />
<circle cx="35.1" cy="4.7" r="0.4" />
<circle cx="35.8" cy="4.7" r="0.4" />
<circle cx="36.5" cy="10.4" r="0.4" />
<circle cx="37.2" cy="4.7" r="0.4" />
<circle cx="37.9" cy="10.4" r="0.4" />
<circle cx="38.7" cy="10.4" r="0.4" />
<circle cx="39.4" cy="21.5" r="0.4" />
<circle cx="40.1" cy="4.7" r="0.4" />
<circle cx="40.8" cy="10.4" r="0.4" />
<circle cx="41.5" cy="10.4" r="0.4" />
<circle cx="42.2" cy="21.5" r="0.4" />
<circle cx="42.9" cy="10.4" r="0.4" />
<circle cx="43.7" cy="21.5" r="0.4" />
<circle cx="44.4" cy="21.5" r="0.4" />
<circle cx="45.1" cy="43.7" r="0.4" />
<circle cx="45.8" cy="0.0" r="0.4" />
<circle cx="46.5" cy="1.6" r="0.4" />
<circle cx="47.2" cy="1.6" r="0.4" />
<circle cx="48.0" cy="4.7" r="0.4" />
<circle cx="48.7" cy="1.6" r="0.4" />
<circle cx="49.4" cy="4.7" r="0.4" />
<circle cx="50.1" cy="4.7" r="0.4" />
<circle cx="50.8" cy="10.4" r="0.4" />
<circle cx="51.5" cy="1.6" r="0.4" />
<circle cx="52.3" cy="4.7" r="0.4" />
<circle cx="53.0" cy="4.7" r="0.4" />
<circle cx="53.7" cy="10.4" r="0.4" />
<circle cx="54.4" cy="4.7" r="0.4" />
<circle cx="55.1" cy="10.4" r="0.4" />
<circle cx="55.8" cy="10.4" r="0.4" />
<circle cx="56.5" cy="21.5" r="0.4" />
<circle cx="57.3" cy="1.6" r="0.4" />
<circle cx="58.0" cy="4.7" r="0.4" />
<circle cx="58.7" cy="4.7" r="0.4" />
<circle cx="59.4" cy="10.4" r="0.4" />
<circle cx="60.1" cy="4.7" r="0.4" />
<circle cx="60.8" cy="10.4" r="0.4" />
<circle cx="61.6" cy="10.4" r="0.4" />
<circle cx="62.3" cy="21.5" r="0.4" />
<circle cx="63.0" cy="4.7" r="0.4" />
<circle cx="63.7" cy="10.4" r="0.4" />
<circle cx="64.4" cy="10.4" r="0.4" />
<circle cx="65.1" cy="21.5" r="0.4" />
<circle cx="65.8" cy="10.4" r="0.4" />
<circle cx="66.6" cy="21.5" r="0.4" />
<circle cx="67.3" cy="21.5" r="0.4" />
<circle cx="68.0" cy="43.7" r="0.4" />
<circle cx="68.7" cy="1.6" r="0.4" />
<circle cx="69.4" cy="4.7" r="0.4" />
<circle cx="70.1" cy="4.7" r="0.4" />
<circle cx="70.9" cy="10.4" r="0.4" />
<circle cx="71.6" cy="4.7" r="0.4" />
<circle cx="72.3" cy="10.4" r="0.4" />
<circle cx="73.0" cy="10.4" r="0.4" />
<circle cx="73.7" cy="21.5" r="0.4" />
<circle cx="74.4" cy="4.7" r="0.4" />
<circle cx="75.2" cy="10.4" r="0.4" />
<circle cx="75.9" cy="10.4" r="0.4" />
<circle cx="76.6" cy="21.5" r="0.4" />
<circle cx="77.3" cy="10.4" r="0.4" />
<circle cx="78.0" cy="21.5" r="0.4" />
<circle cx="78.7" cy="21.5" r="0.4" />
<circle cx="79.4" cy="43.7" r="0.4" />
<circle cx="80.2" cy="4.7" r="0.4" />
<circle cx="80.9" cy="10.4" r="0.4" />
<circle cx="81.6" cy="10.4" r="0.4" />
<circle cx="82.3" cy="21.5" r="0.4" />
<circle cx="83.0" cy="10.4" r="0.4" />
<circle cx="83.7" cy="21.5" r="0.4" />
<circle cx="84.5" cy="21.5" r="0.4" />
<circle cx="85.2" cy="43.7" r="0.4" />
<circle cx="85.9" cy="10.4" r="0.4" />
<circle cx="86.6" cy="21.5" r="0.4" />
<circle cx="87.3" cy="21.5" r="0.4" />
<circle cx="88.0" cy="43.7" r="0.4" />
<circle cx="88.8" cy="21.5" r="0.4" />
<circle cx="89.5" cy="43.7" r="0.4" />
<circle cx="90.2" cy="43.7" r="0.4" />
<circle cx="90.9" cy="88.0" r="0.4" />
<circle cx="91.6" cy="0.0" r="0.4" />
<circle cx="92.3" cy="1.6" r="0.4" />
<circle cx="93.0" cy="1.6" r="0.4" />
<circle cx="93.8" cy="4.7" r="0.4" />
<circle cx="94.5" cy="1.6" r="0.4" />
<circle cx="95.2" cy="4.7" r="0.4" />
<circle cx="95.9" cy="4.7" r="0.4" />
<circle cx="96.6" cy="10.4" r="0.4" />
<circle cx="97.3" cy="1.6" r="0.4" />
<circle cx="98.1" cy="4.7" r="0.4" />
<circle cx="98.8" cy="4.7" r="0.4" />
<circle cx="99.5" cy="10.4" r="0.4" />
<circle cx="100.2" cy="4.7" r="0.4" />
<circle cx="100.9" cy="10.4" r="0.4" />
<circle cx="101.6" cy="10.4" r="0.4" />
<circle cx="102.4" cy="21.5" r="0.4" />
<circle cx="103.1" cy="1.6" r="0.4" />
<circle cx="103.8" cy="4.7" r="0.4" />
<circle cx="104.5" cy="4.7" r="0.4" />
<circle cx="105.2" cy="10.4" r="0.4" />
<circle cx="105.9" cy="4.7" r="0.4" />
<circle cx="106.6" cy="10.4" r="0.4" />
<circle cx="107.4" cy="10.4" r="0.4" />
<circle cx="108.1" cy="21.5" r="0.4" />
<circle cx="108.8" cy="4.7" r="0.4" />
<circle cx="109.5" cy="10.4" r="0.4" />
<circle cx="110.2" cy="10.4" r="0.4" />
<circle cx="110.9" cy="21.5" r="0.4" />
<circle cx="111.7" cy="10.4" r="0.4" />
<circle cx="112.4" cy="21.5" r="0.4" />
<circle cx="113.1" cy="21.5" r="0.4" />
<circle cx="113.8" cy="43.7" r="0.4" />
<circle cx="114.5" cy="1.6" r="0.4" />
<circle cx="115.2" cy="4.7" r="0.4" />
<circle cx="116.0" cy="4.7" r="0.4" />
<circle cx="116.7" cy="10.4" r="0.4" />
<circle cx="117.4" cy="4.7" r="0.4" />
<circle cx="118.1" cy="10.4" r="0.4" />
<circle cx="118.8" cy="10.4" r="0.4" />
<circle cx="119.5" cy="21.5" r="0.4" />
<circle cx="120.2" cy="4.7" r="0.4" />
<circle cx="121.0" cy="10.4" r="0.4" />
<circle cx="121.7" cy="10.4" r="0.4" />
<circle cx="122.4" cy="21.5" r="0.4" />
<circle cx="123.1" cy="10.4" r="0.4" />
<circle cx="123.8" cy="21.5" r="0.4" />
<circle cx="124.5" cy="21.5" r="0.4" />
<circle cx="125.3" cy="43.7" r="0.4" />
<circle cx="126.0" cy="4.7" r="0.4" />
<circle cx="126.7" cy="10.4" r="0.4" />
<circle cx="127.4" cy="10.4" r="0.4" />
<circle cx="128.1" cy="21.5" r="0.4" />
<circle cx="128.8" cy="10.4" r="0.4" />
<circle cx="129.6" cy="21.5" r="0.4" />
<circle cx="130.3" cy="21.5" r="0.4" />
<circle cx="131.0" cy="43.7" r="0.4" />
<circle cx="131.7" cy="10.4" r="0.4" />
<circle cx="132.4" cy="21.5" r="0.4" />
<circle cx="133.1" cy="21.5" r="0.4" />
<circle cx="133.8" cy="43.7" r="0.4" />
<circle cx="134.6" cy="21.5" r="0.4" />
<circle cx="135.3" cy="43.7" r="0.4" />
<circle cx="136.0" cy="43.7" r="0.4" />
<circle cx="136.7" cy="88.0" r="0.4" />
<circle cx="137.4" cy="1.6" r="0.4" />
<circle cx="138.1" cy="4.7" r="0.4" />
<circle cx="138.9" cy="4.7" r="0.4" />
<circle cx="139.6" cy="10.4" r="0.4" />
<circle cx="140.3" cy="4.7" r="0.4" />
<circle cx="141.0" cy="10.4" r="0.4" />
<circle cx="141.7" cy="10.4" r="0.4" />
<circle cx="142.4" cy="21.5" r="0.4" />
<circle cx="143.2" cy="4.7" r="0.4" />
</g>
</svg>