<svg xmlns="http://www.w3.org/2000/svg" width="161.8" height="100.0" viewBox="-4.19 -55.05 171.80 110.00">
<g fill="none" stroke="black" stroke-width="0.0292%" transform="translate(0, -0.1021) scale(17.1044, -17.1044)">
<circle cx="0.05" cy="0.52" r="0.03" />
<circle cx="0.10" cy="-0.52" r="0.03" />
<circle cx="0.14" cy="-0.52" r="0.03" />
<circle cx="0.19" cy="0.00" r="0.03" />
<circle cx="0.24" cy="0.00" r="0.03" />
<circle cx="0.29" cy="0.00" r="0.03" />
<circle cx="0.33" cy="-0.52" r="0.03" />
<circle cx="0.38" cy="0.52" r="0.03" />
<circle cx="0.43" cy="0.00" r="0.03" />
<circle cx="0.48" cy="-0.52" r="0.03" />
<circle cx="0.52" cy="0.00" r="0.03" />
<circle cx="0.57" cy="0.52" r="0.03" />
<circle cx="0.62" cy="-0.52" r="0.03" />
<circle cx="0.67" cy="0.00" r="0.03" />
<circle cx="0.71" cy="0.00" r="0.03" />
<circle cx="0.76" cy="0.52" r="0.03" />
<circle cx="0.81" cy="0.00" r="0.03" />
<circle cx="0.86" cy="-0.75" r="0.03" />
<circle cx="0.90" cy="-0.52" r="0.03" />
<circle cx="0.95" cy="0.90" r="0.03" />
<circle cx="1.00" cy="0.00" r="0.03" />
<circle cx="1.05" cy="-0.75" r="0.03" />
<circle cx="1.09" cy="0.52" r="0.03" />
<circle cx="1.14" cy="0.75" r="0.03" />
<circle cx="1.19" cy="-0.75" r="0.03" />
<circle cx="1.24" cy="-0.90" r="0.03" />
<circle cx="1.28" cy="0.52" r="0.03" />
<circle cx="1.33" cy="1.01" r="0.03" />
<circle cx="1.38" cy="-0.52" r="0.03" />
<circle cx="1.43" cy="-0.90" r="0.03" />
<circle cx="1.47" cy="0.00" r="0.03" />
<circle cx="1.52" cy="1.10" r="0.03" />
<circle cx="1.57" cy="-0.52" r="0.03" />
<circle cx="1.62" cy="-1.23" r="0.03" />
<circle cx="1.66" cy="0.52" r="0.03" />
<circle cx="1.71" cy="1.23" r="0.03" />
<circle cx="1.76" cy="-0.52" r="0.03" />
<circle cx="1.81" cy="-1.10" r="0.03" />
<circle cx="1.85" cy="0.00" r="0.03" />
<circle cx="1.90" cy="1.17" r="0.03" />
<circle cx="1.95" cy="0.52" r="0.03" />
<circle cx="2.00" cy="-1.34" r="0.03" />
<circle cx="2.04" cy="-0.75" r="0.03" />
<circle cx="2.09" cy="1.42" r="0.03" />
<circle cx="2.14" cy="0.52" r="0.03" />
<circle cx="2.19" cy="-1.34" r="0.03" />
<circle cx="2.23" cy="-0.52" r="0.03" />
<circle cx="2.28" cy="1.29" r="0.03" />
<circle cx="2.33" cy="0.00" r="0.03" />
<circle cx="2.38" cy="-1.46" r="0.03" />
<circle cx="2.42" cy="0.00" r="0.03" />
<circle cx="2.47" cy="1.55" r="0.03" />
<circle cx="2.52" cy="0.00" r="0.03" />
<circle cx="2.57" cy="-1.42" r="0.03" />
<circle cx="2.61" cy="-0.52" r="0.03" />
<circle cx="2.66" cy="1.49" r="0.03" />
<circle cx="2.71" cy="0.00" r="0.03" />
<circle cx="2.76" cy="-1.60" r="0.03" />
<circle cx="2.80" cy="0.52" r="0.03" />
<circle cx="2.85" cy="1.63" r="0.03" />
<circle cx="2.90" cy="-0.75" r="0.03" />
<circle cx="2.95" cy="-1.60" r="0.03" />
<circle cx="2.99" cy="0.52" r="0.03" />
<circle cx="3.04" cy="1.60" r="0.03" />
<circle cx="3.09" cy="0.00" r="0.03" />
<circle cx="3.14" cy="-1.75" r="0.03" />
<circle cx="3.18" cy="0.00" r="0.03" />
<circle cx="3.23" cy="1.82" r="0.03" />
<circle cx="3.28" cy="-0.52" r="0.03" />
<circle cx="3.33" cy="-1.69" r="0.03" />
<circle cx="3.38" cy="0.00" r="0.03" />
<circle cx="3.42" cy="1.71" r="0.03" />
<circle cx="3.47" cy="-0.52" r="0.03" />
<circle cx="3.52" cy="-1.85" r="0.03" />
<circle cx="3.57" cy="0.00" r="0.03" />
<circle cx="3.61" cy="1.86" r="0.03" />
<circle cx="3.66" cy="0.75" r="0.03" />
<circle cx="3.71" cy="-1.77" r="0.03" />
<circle cx="3.76" cy="-0.75" r="0.03" />
<circle cx="3.80" cy="1.85" r="0.03" />
<circle cx="3.85" cy="0.52" r="0.03" />
<circle cx="3.90" cy="-1.97" r="0.03" />
<circle cx="3.95" cy="-0.75" r="0.03" />
<circle cx="3.99" cy="1.96" r="0.03" />
<circle cx="4.04" cy="0.52" r="0.03" />
<circle cx="4.09" cy="-1.89" r="0.03" />
<circle cx="4.14" cy="-0.75" r="0.03" />
<circle cx="4.18" cy="1.91" r="0.03" />
<circle cx="4.23" cy="0.90" r="0.03" />
<circle cx="4.28" cy="-2.02" r="0.03" />
<circle cx="4.33" cy="-1.01" r="0.03" />
<circle cx="4.37" cy="2.07" r="0.03" />
<circle cx="4.42" cy="1.10" r="0.03" />
<circle cx="4.47" cy="-2.00" r="0.03" />
<circle cx="4.52" cy="-1.10" r="0.03" />
<circle cx="4.56" cy="2.01" r="0.03" />
<circle cx="4.61" cy="1.10" r="0.03" />
<circle cx="4.66" cy="-2.15" r="0.03" />
<circle cx="4.71" cy="-1.17" r="0.03" />
<circle cx="4.75" cy="2.16" r="0.03" />
<circle cx="4.80" cy="1.23" r="0.03" />
<circle cx="4.85" cy="-2.06" r="0.03" />
<circle cx="4.90" cy="-1.29" r="0.03" />
<circle cx="4.94" cy="2.13" r="0.03" />
<circle cx="4.99" cy="1.23" r="0.03" />
<circle cx="5.04" cy="-2.21" r="0.03" />
<circle cx="5.09" cy="-1.23" r="0.03" />
<circle cx="5.13" cy="2.21" r="0.03" />
<circle cx="5.18" cy="1.17" r="0.03" />
<circle cx="5.23" cy="-2.18" r="0.03" />
<circle cx="5.28" cy="-1.23" r="0.03" />
<circle cx="5.32" cy="2.20" r="0.03" />
<circle cx="5.37" cy="1.29" r="0.03" />
<circle cx="5.42" cy="-2.30" r="0.03" />
<circle cx="5.47" cy="-1.34" r="0.03" />
<circle cx="5.51" cy="2.34" r="0.03" />
<circle cx="5.56" cy="1.23" r="0.03" />
<circle cx="5.61" cy="-2.25" r="0.03" />
<circle cx="5.66" cy="-1.17" r="0.03" />
<circle cx="5.70" cy="2.24" r="0.03" />
<circle cx="5.75" cy="1.17" r="0.03" />
<circle cx="5.80" cy="-2.37" r="0.03" />
<circle cx="5.85" cy="-1.23" r="0.03" />
<circle cx="5.89" cy="2.38" r="0.03" />
<circle cx="5.94" cy="1.17" r="0.03" />
<circle cx="5.99" cy="-2.30" r="0.03" />
<circle cx="6.04" cy="-1.10" r="0.03" />
<circle cx="6.08" cy="2.36" r="0.03" />
<circle cx="6.13" cy="1.01" r="0.03" />
<circle cx="6.18" cy="-2.45" r="0.03" />
<circle cx="6.23" cy="-0.75" r="0.03" />
<circle cx="6.27" cy="2.47" r="0.03" />
<circle cx="6.32" cy="0.52" r="0.03" />
<circle cx="6.37" cy="-2.41" r="0.03" />
<circle cx="6.42" cy="0.00" r="0.03" />
<circle cx="6.46" cy="2.41" r="0.03" />
<circle cx="6.51" cy="-0.75" r="0.03" />
<circle cx="6.56" cy="-2.49" r="0.03" />
<circle cx="6.61" cy="0.52" r="0.03" />
<circle cx="6.66" cy="2.52" r="0.03" />
<circle cx="6.70" cy="-0.75" r="0.03" />
<circle cx="6.75" cy="-2.47" r="0.03" />
<circle cx="6.80" cy="0.90" r="0.03" />
<circle cx="6.85" cy="2.47" r="0.03" />
<circle cx="6.89" cy="-0.90" r="0.03" />
<circle cx="6.94" cy="-2.59" r="0.03" />
<circle cx="6.99" cy="0.90" r="0.03" />
<circle cx="7.04" cy="2.59" r="0.03" />
<circle cx="7.08" cy="-0.75" r="0.03" />
<circle cx="7.13" cy="-2.50" r="0.03" />
<circle cx="7.18" cy="0.52" r="0.03" />
<circle cx="7.23" cy="2.56" r="0.03" />
<circle cx="7.27" cy="-0.75" r="0.03" />
<circle cx="7.32" cy="-2.62" r="0.03" />
<circle cx="7.37" cy="0.75" r="0.03" />
<circle cx="7.42" cy="2.63" r="0.03" />
<circle cx="7.46" cy="-0.90" r="0.03" />
<circle cx="7.51" cy="-2.59" r="0.03" />
<circle cx="7.56" cy="0.75" r="0.03" />
<circle cx="7.61" cy="2.60" r="0.03" />
<circle cx="7.65" cy="-0.75" r="0.03" />
<circle cx="7.70" cy="-2.70" r="0.03" />
<circle cx="7.75" cy="0.52" r="0.03" />
<circle cx="7.80" cy="2.72" r="0.03" />
<circle cx="7.84" cy="-0.75" r="0.03" />
<circle cx="7.89" cy="-2.64" r="0.03" />
<circle cx="7.94" cy="1.01" r="0.03" />
<circle cx="7.99" cy="2.64" r="0.03" />
<circle cx="8.03" cy="-1.10" r="0.03" />
<circle cx="8.08" cy="-2.74" r="0.03" />
<circle cx="8.13" cy="1.10" r="0.03" />
<circle cx="8.18" cy="2.76" r="0.03" />
<circle cx="8.22" cy="-1.01" r="0.03" />
<circle cx="8.27" cy="-2.69" r="0.03" />
<circle cx="8.32" cy="0.90" r="0.03" />
<circle cx="8.37" cy="2.73" r="0.03" />
<circle cx="8.41" cy="-0.75" r="0.03" />
<circle cx="8.46" cy="-2.81" r="0.03" />
<circle cx="8.51" cy="0.52" r="0.03" />
<circle cx="8.56" cy="2.80" r="0.03" />
<circle cx="8.60" cy="-0.75" r="0.03" />
<circle cx="8.65" cy="-2.77" r="0.03" />
<circle cx="8.70" cy="0.52" r="0.03" />
<circle cx="8.75" cy="2.78" r="0.03" />
<circle cx="8.79" cy="0.52" r="0.03" />
<circle cx="8.84" cy="-2.85" r="0.03" />
<circle cx="8.89" cy="-0.52" r="0.03" />
<circle cx="8.94" cy="2.87" r="0.03" />
<circle cx="8.98" cy="0.00" r="0.03" />
<circle cx="9.03" cy="-2.80" r="0.03" />
<circle cx="9.08" cy="-0.52" r="0.03" />
<circle cx="9.13" cy="2.82" r="0.03" />
<circle cx="9.17" cy="0.00" r="0.03" />
<circle cx="9.22" cy="-2.93" r="0.03" />
<circle cx="9.27" cy="-0.52" r="0.03" />
<circle cx="9.32" cy="2.92" r="0.03" />
<circle cx="9.36" cy="0.75" r="0.03" />
<circle cx="9.41" cy="-2.84" r="0.03" />
<circle cx="9.46" cy="-0.90" r="0.03" />
<circle cx="9.51" cy="2.89" r="0.03" />
</g>
</svg>