<svg xmlns="http://www.w3.org/2000/svg" width="100.0" height="100.0" viewBox="-55.000 -55.000 110.000 110.000">
<g fill="none" stroke="black" stroke-width="0.0100%" transform="translate(0, 0.0000) scale(50.0000, -50.0000)">
<polyline points="1.000,0.000 0.997,0.025 0.990,0.063 0.976,0.107 0.958,0.156 0.935,0.209 0.907,0.264 0.875,0.320 0.839,0.378 0.798,0.435 0.754,0.492 0.706,0.549 0.656,0.603 0.603,0.656 0.549,0.706 0.492,0.754 0.435,0.798 0.378,0.839 0.320,0.875 0.264,0.907 0.209,0.935 0.156,0.958 0.107,0.976 0.063,0.990 0.025,0.997 -0.000,1.000 -0.025,0.997 -0.063,0.990 -0.107,0.976 -0.156,0.958 -0.209,0.935 -0.264,0.907 -0.320,0.875 -0.378,0.839 -0.435,0.798 -0.492,0.754 -0.549,0.706 -0.603,0.656 -0.656,0.603 -0.706,0.549 -0.754,0.492 -0.798,0.435 -0.839,0.378 -0.875,0.320 -0.907,0.264 -0.935,0.209 -0.958,0.156 -0.976,0.107 -0.990,0.063 -0.997,0.025 -1.000,-0.000 -0.997,-0.025 -0.990,-0.063 -0.976,-0.107 -0.958,-0.156 -0.935,-0.209 -0.907,-0.264 -0.875,-0.320 -0.839,-0.378 -0.798,-0.435 -0.754,-0.492 -0.706,-0.549 -0.656,-0.603 -0.603,-0.656 -0.549,-0.706 -0.492,-0.754 -0.435,-0.798 -0.378,-0.839 -0.320,-0.875 -0.264,-0.907 -0.209,-0.935 -0.156,-0.958 -0.107,-0.976 -0.063,-0.990 -0.025,-0.997 -0.000,-1.000 0.025,-0.997 0.063,-0.990 0.107,-0.976 0.156,-0.958 0.209,-0.935 0.264,-0.907 0.320,-0.875 0.378,-0.839 0.435,-0.798 0.492,-0.754 0.549,-0.706 0.603,-0.656 0.656,-0.603 0.706,-0.549 0.754,-0.492 0.798,-0.435 0.839,-0.378 0.875,-0.320 0.907,-0.264 0.935,-0.209 0.958,-0.156 0.976,-0.107 0.990,-0.063 0.997,-0.025" />
</g>
</svg>