<svg xmlns="http://www.w3.org/2000/svg" width="100.0" height="100.0" viewBox="-55.000 -55.000 110.000 110.000">
<g fill="none" stroke="black" stroke-width="0.0100%" transform="translate(0, 0.0000) scale(50.0000, -50.0000)">
<polyline points="1.000,0.000 0.992,0.000 0.969,0.000 0.931,0.001 0.880,0.004 0.818,0.009 0.747,0.018 0.670,0.033 0.590,0.054 0.508,0.082 0.428,0.119 0.352,0.165 0.282,0.220 0.220,0.282 0.165,0.352 0.119,0.428 0.082,0.508 0.054,0.590 0.033,0.670 0.018,0.747 0.009,0.818 0.004,0.880 0.001,0.931 0.000,0.969 0.000,0.992 -0.000,1.000 -0.000,0.992 -0.000,0.969 -0.001,0.931 -0.004,0.880 -0.009,0.818 -0.018,0.747 -0.033,0.670 -0.054,0.590 -0.082,0.508 -0.119,0.428 -0.165,0.352 -0.220,0.282 -0.282,0.220 -0.352,0.165 -0.428,0.119 -0.508,0.082 -0.590,0.054 -0.670,0.033 -0.747,0.018 -0.818,0.009 -0.880,0.004 -0.931,0.001 -0.969,0.000 -0.992,0.000 -1.000,-0.000 -0.992,-0.000 -0.969,-0.000 -0.931,-0.001 -0.880,-0.004 -0.818,-0.009 -0.747,-0.018 -0.670,-0.033 -0.590,-0.054 -0.508,-0.082 -0.428,-0.119 -0.352,-0.165 -0.282,-0.220 -0.220,-0.282 -0.165,-0.352 -0.119,-0.428 -0.082,-0.508 -0.054,-0.590 -0.033,-0.670 -0.018,-0.747 -0.009,-0.818 -0.004,-0.880 -0.001,-0.931 -0.000,-0.969 -0.000,-0.992 -0.000,-1.000 0.000,-0.992 0.000,-0.969 0.001,-0.931 0.004,-0.880 0.009,-0.818 0.018,-0.747 0.033,-0.670 0.054,-0.590 0.082,-0.508 0.119,-0.428 0.165,-0.352 0.220,-0.282 0.282,-0.220 0.352,-0.165 0.428,-0.119 0.508,-0.082 0.590,-0.054 0.670,-0.033 0.747,-0.018 0.818,-0.009 0.880,-0.004 0.931,-0.001 0.969,-0.000 0.992,-0.000" />
</g>
</svg>