<svg xmlns="http://www.w3.org/2000/svg" width="100.0" height="100.0" viewBox="-55.000 -55.000 110.000 110.000">
<g fill="none" stroke="black" stroke-width="0.0100%" transform="translate(0, 0.0000) scale(50.0000, -50.0000)">
<circle cx="-1.000" cy="0.000" r="0.010" />
<circle cx="0.000" cy="1.000" r="0.010" />
<polyline points="1.000,0.000 0.999,0.251 0.996,0.354 0.991,0.433 0.984,0.499 0.975,0.556 0.964,0.607 0.951,0.653 0.936,0.694 0.919,0.732 0.899,0.767 0.878,0.798 0.854,0.827 0.827,0.854 0.798,0.878 0.767,0.899 0.732,0.919 0.694,0.936 0.653,0.951 0.607,0.964 0.556,0.975 0.499,0.984 0.433,0.991 0.354,0.996 0.251,0.999 -0.000,1.000 -0.251,0.999 -0.354,0.996 -0.433,0.991 -0.499,0.984 -0.556,0.975 -0.607,0.964 -0.653,0.951 -0.694,0.936 -0.732,0.919 -0.767,0.899 -0.798,0.878 -0.827,0.854 -0.854,0.827 -0.878,0.798 -0.899,0.767 -0.919,0.732 -0.936,0.694 -0.951,0.653 -0.964,0.607 -0.975,0.556 -0.984,0.499 -0.991,0.433 -0.996,0.354 -0.999,0.251 -1.000,-0.000 -0.999,-0.251 -0.996,-0.354 -0.991,-0.433 -0.984,-0.499 -0.975,-0.556 -0.964,-0.607 -0.951,-0.653 -0.936,-0.694 -0.919,-0.732 -0.899,-0.767 -0.878,-0.798 -0.854,-0.827 -0.827,-0.854 -0.798,-0.878 -0.767,-0.899 -0.732,-0.919 -0.694,-0.936 -0.653,-0.951 -0.607,-0.964 -0.556,-0.975 -0.499,-0.984 -0.433,-0.991 -0.354,-0.996 -0.251,-0.999 -0.000,-1.000 0.251,-0.999 0.354,-0.996 0.433,-0.991 0.499,-0.984 0.556,-0.975 0.607,-0.964 0.653,-0.951 0.694,-0.936 0.732,-0.919 0.767,-0.899 0.798,-0.878 0.827,-0.854 0.854,-0.827 0.878,-0.798 0.899,-0.767 0.919,-0.732 0.936,-0.694 0.951,-0.653 0.964,-0.607 0.975,-0.556 0.984,-0.499 0.991,-0.433 0.996,-0.354 0.999,-0.251" />
</g>
</svg>