<svg xmlns="http://www.w3.org/2000/svg" width="161.8" height="100.0" viewBox="1.7 -5.0 171.8 110.0">
<g fill="none" stroke="black" stroke-width="0.1829%" transform="translate(0, 100.0000) scale(2.7331, -2.7331)">


<line x1="7.4" y1="0.0" x2="7.4" y2="1.1" />
<line x1="9.9" y1="0.0" x2="9.9" y2="2.4" />
<line x1="12.3" y1="0.0" x2="12.3" y2="3.8" />
<line x1="14.8" y1="0.0" x2="14.8" y2="5.3" />
<line x1="17.3" y1="0.0" x2="17.3" y2="6.8" />
<line x1="19.7" y1="0.0" x2="19.7" y2="8.4" />
<line x1="22.2" y1="0.0" x2="22.2" y2="9.9" />
<line x1="24.7" y1="0.0" x2="24.7" y2="11.5" />
<line x1="27.1" y1="0.0" x2="27.1" y2="13.2" />
<line x1="29.6" y1="0.0" x2="29.6" y2="14.8" />
<line x1="32.1" y1="0.0" x2="32.1" y2="16.4" />
<line x1="34.5" y1="0.0" x2="34.5" y2="18.1" />
<line x1="37.0" y1="0.0" x2="37.0" y2="19.7" />
<line x1="39.5" y1="0.0" x2="39.5" y2="21.4" />
<line x1="41.9" y1="0.0" x2="41.9" y2="23.1" />
<line x1="44.4" y1="0.0" x2="44.4" y2="24.7" />
<line x1="46.9" y1="0.0" x2="46.9" y2="26.4" />
<line x1="49.3" y1="0.0" x2="49.3" y2="28.1" />
<line x1="51.8" y1="0.0" x2="51.8" y2="29.8" />
<line x1="54.3" y1="0.0" x2="54.3" y2="31.5" />
<line x1="56.7" y1="0.0" x2="56.7" y2="33.2" />
<line x1="59.2" y1="0.0" x2="59.2" y2="34.9" />
<line x1="61.7" y1="0.0" x2="61.7" y2="36.6" />
</g>
</svg>