<svg xmlns="http://www.w3.org/2000/svg" width="100.0" height="100.0" viewBox="-55.000 -55.000 110.000 110.000">
<g fill="none" stroke="black" stroke-width="0.0100%" transform="translate(0, 0.0000) scale(50.0000, -50.0000)">
<polyline points="1.000,0.000 0.996,0.004 0.984,0.016 0.965,0.035 0.938,0.062 0.905,0.095 0.864,0.136 0.819,0.181 0.768,0.232 0.713,0.287 0.655,0.345 0.594,0.406 0.531,0.469 0.469,0.531 0.406,0.594 0.345,0.655 0.287,0.713 0.232,0.768 0.181,0.819 0.136,0.864 0.095,0.905 0.062,0.938 0.035,0.965 0.016,0.984 0.004,0.996 -0.000,1.000 -0.004,0.996 -0.016,0.984 -0.035,0.965 -0.062,0.938 -0.095,0.905 -0.136,0.864 -0.181,0.819 -0.232,0.768 -0.287,0.713 -0.345,0.655 -0.406,0.594 -0.469,0.531 -0.531,0.469 -0.594,0.406 -0.655,0.345 -0.713,0.287 -0.768,0.232 -0.819,0.181 -0.864,0.136 -0.905,0.095 -0.938,0.062 -0.965,0.035 -0.984,0.016 -0.996,0.004 -1.000,-0.000 -0.996,-0.004 -0.984,-0.016 -0.965,-0.035 -0.938,-0.062 -0.905,-0.095 -0.864,-0.136 -0.819,-0.181 -0.768,-0.232 -0.713,-0.287 -0.655,-0.345 -0.594,-0.406 -0.531,-0.469 -0.469,-0.531 -0.406,-0.594 -0.345,-0.655 -0.287,-0.713 -0.232,-0.768 -0.181,-0.819 -0.136,-0.864 -0.095,-0.905 -0.062,-0.938 -0.035,-0.965 -0.016,-0.984 -0.004,-0.996 -0.000,-1.000 0.004,-0.996 0.016,-0.984 0.035,-0.965 0.062,-0.938 0.095,-0.905 0.136,-0.864 0.181,-0.819 0.232,-0.768 0.287,-0.713 0.345,-0.655 0.406,-0.594 0.469,-0.531 0.531,-0.469 0.594,-0.406 0.655,-0.345 0.713,-0.287 0.768,-0.232 0.819,-0.181 0.864,-0.136 0.905,-0.095 0.938,-0.062 0.965,-0.035 0.984,-0.016 0.996,-0.004" />
</g>
</svg>