<svg xmlns="http://www.w3.org/2000/svg" width="96.8" height="100.0" viewBox="-53.379 -55.000 106.758 110.000">
<g fill="none" stroke="black" stroke-width="0.0110%" transform="translate(0, 0.0000) scale(45.4888, -45.4888)">
<polyline points="0.266,-1.036 0.147,-1.075 -0.027,-1.099 -0.192,-1.099 -0.283,-1.075 -0.266,-1.036 -0.147,-0.997 0.027,-0.973 0.192,-0.973 0.283,-0.997 0.266,-1.036" />
<polyline points="0.322,-0.853 0.178,-0.900 -0.033,-0.930 -0.232,-0.930 -0.342,-0.900 -0.322,-0.853 -0.178,-0.806 0.033,-0.777 0.232,-0.777 0.342,-0.806 0.322,-0.853" />
<polyline points="0.388,-0.678 0.215,-0.735 -0.040,-0.771 -0.280,-0.771 -0.413,-0.735 -0.388,-0.678 -0.215,-0.621 0.040,-0.586 0.280,-0.586 0.413,-0.621 0.388,-0.678" />
<polyline points="0.465,-0.515 0.258,-0.583 -0.048,-0.625 -0.335,-0.625 -0.494,-0.583 -0.465,-0.515 -0.258,-0.446 0.048,-0.404 0.335,-0.404 0.494,-0.446 0.465,-0.515" />
<polyline points="0.552,-0.366 0.306,-0.448 -0.057,-0.498 -0.398,-0.498 -0.587,-0.448 -0.552,-0.366 -0.306,-0.285 0.057,-0.235 0.398,-0.235 0.587,-0.285 0.552,-0.366" />
<polyline points="0.648,-0.238 0.359,-0.334 -0.067,-0.392 -0.467,-0.392 -0.689,-0.334 -0.648,-0.238 -0.359,-0.143 0.067,-0.084 0.467,-0.084 0.689,-0.143 0.648,-0.238" />
<polyline points="0.748,-0.136 0.415,-0.246 -0.077,-0.314 -0.539,-0.314 -0.795,-0.246 -0.748,-0.136 -0.415,-0.026 0.077,0.042 0.539,0.042 0.795,-0.026 0.748,-0.136" />
<polyline points="0.844,-0.063 0.468,-0.187 -0.087,-0.264 -0.608,-0.264 -0.897,-0.187 -0.844,-0.063 -0.468,0.061 0.087,0.138 0.608,0.138 0.897,0.061 0.844,-0.063" />
<polyline points="0.925,-0.020 0.513,-0.156 -0.095,-0.240 -0.667,-0.240 -0.984,-0.156 -0.925,-0.020 -0.513,0.116 0.095,0.200 0.667,0.200 0.984,0.116 0.925,-0.020" />
<polyline points="0.980,-0.003 0.544,-0.147 -0.101,-0.236 -0.707,-0.236 -1.043,-0.147 -0.980,-0.003 -0.544,0.141 0.101,0.230 0.707,0.230 1.043,0.141 0.980,-0.003" />
<polyline points="1.000,-0.000 0.554,-0.147 -0.103,-0.238 -0.721,-0.238 -1.064,-0.147 -1.000,0.000 -0.554,0.147 0.103,0.238 0.721,0.238 1.064,0.147 1.000,-0.000" />
<polyline points="0.980,0.003 0.544,-0.141 -0.101,-0.230 -0.707,-0.230 -1.043,-0.141 -0.980,0.003 -0.544,0.147 0.101,0.236 0.707,0.236 1.043,0.147 0.980,0.003" />
<polyline points="0.925,0.020 0.513,-0.116 -0.095,-0.200 -0.667,-0.200 -0.984,-0.116 -0.925,0.020 -0.513,0.156 0.095,0.240 0.667,0.240 0.984,0.156 0.925,0.020" />
<polyline points="0.844,0.063 0.468,-0.061 -0.087,-0.138 -0.608,-0.138 -0.897,-0.061 -0.844,0.063 -0.468,0.187 0.087,0.264 0.608,0.264 0.897,0.187 0.844,0.063" />
<polyline points="0.748,0.136 0.415,0.026 -0.077,-0.042 -0.539,-0.042 -0.795,0.026 -0.748,0.136 -0.415,0.246 0.077,0.314 0.539,0.314 0.795,0.246 0.748,0.136" />
<polyline points="0.648,0.238 0.359,0.143 -0.067,0.084 -0.467,0.084 -0.689,0.143 -0.648,0.238 -0.359,0.334 0.067,0.392 0.467,0.392 0.689,0.334 0.648,0.238" />
<polyline points="0.552,0.366 0.306,0.285 -0.057,0.235 -0.398,0.235 -0.587,0.285 -0.552,0.366 -0.306,0.448 0.057,0.498 0.398,0.498 0.587,0.448 0.552,0.366" />
<polyline points="0.465,0.515 0.258,0.446 -0.048,0.404 -0.335,0.404 -0.494,0.446 -0.465,0.515 -0.258,0.583 0.048,0.625 0.335,0.625 0.494,0.583 0.465,0.515" />
<polyline points="0.388,0.678 0.215,0.621 -0.040,0.586 -0.280,0.586 -0.413,0.621 -0.388,0.678 -0.215,0.735 0.040,0.771 0.280,0.771 0.413,0.735 0.388,0.678" />
<polyline points="0.322,0.853 0.178,0.806 -0.033,0.777 -0.232,0.777 -0.342,0.806 -0.322,0.853 -0.178,0.900 0.033,0.930 0.232,0.930 0.342,0.900 0.322,0.853" />
<polyline points="0.266,1.036 0.147,0.997 -0.027,0.973 -0.192,0.973 -0.283,0.997 -0.266,1.036 -0.147,1.075 0.027,1.099 0.192,1.099 0.283,1.075 0.266,1.036" />
<polyline points="0.266,-1.036 0.322,-0.853 0.388,-0.678 0.465,-0.515 0.552,-0.366 0.648,-0.238 0.748,-0.136 0.844,-0.063 0.925,-0.020 0.980,-0.003 1.000,-0.000 0.980,0.003 0.925,0.020 0.844,0.063 0.748,0.136 0.648,0.238 0.552,0.366 0.465,0.515 0.388,0.678 0.322,0.853 0.266,1.036" />
<polyline points="0.147,-1.075 0.178,-0.900 0.215,-0.735 0.258,-0.583 0.306,-0.448 0.359,-0.334 0.415,-0.246 0.468,-0.187 0.513,-0.156 0.544,-0.147 0.554,-0.147 0.544,-0.141 0.513,-0.116 0.468,-0.061 0.415,0.026 0.359,0.143 0.306,0.285 0.258,0.446 0.215,0.621 0.178,0.806 0.147,0.997" />
<polyline points="-0.027,-1.099 -0.033,-0.930 -0.040,-0.771 -0.048,-0.625 -0.057,-0.498 -0.067,-0.392 -0.077,-0.314 -0.087,-0.264 -0.095,-0.240 -0.101,-0.236 -0.103,-0.238 -0.101,-0.230 -0.095,-0.200 -0.087,-0.138 -0.077,-0.042 -0.067,0.084 -0.057,0.235 -0.048,0.404 -0.040,0.586 -0.033,0.777 -0.027,0.973" />
<polyline points="-0.192,-1.099 -0.232,-0.930 -0.280,-0.771 -0.335,-0.625 -0.398,-0.498 -0.467,-0.392 -0.539,-0.314 -0.608,-0.264 -0.667,-0.240 -0.707,-0.236 -0.721,-0.238 -0.707,-0.230 -0.667,-0.200 -0.608,-0.138 -0.539,-0.042 -0.467,0.084 -0.398,0.235 -0.335,0.404 -0.280,0.586 -0.232,0.777 -0.192,0.973" />
<polyline points="-0.283,-1.075 -0.342,-0.900 -0.413,-0.735 -0.494,-0.583 -0.587,-0.448 -0.689,-0.334 -0.795,-0.246 -0.897,-0.187 -0.984,-0.156 -1.043,-0.147 -1.064,-0.147 -1.043,-0.141 -0.984,-0.116 -0.897,-0.061 -0.795,0.026 -0.689,0.143 -0.587,0.285 -0.494,0.446 -0.413,0.621 -0.342,0.806 -0.283,0.997" />
<polyline points="-0.266,-1.036 -0.322,-0.853 -0.388,-0.678 -0.465,-0.515 -0.552,-0.366 -0.648,-0.238 -0.748,-0.136 -0.844,-0.063 -0.925,-0.020 -0.980,-0.003 -1.000,0.000 -0.980,0.003 -0.925,0.020 -0.844,0.063 -0.748,0.136 -0.648,0.238 -0.552,0.366 -0.465,0.515 -0.388,0.678 -0.322,0.853 -0.266,1.036" />
<polyline points="-0.147,-0.997 -0.178,-0.806 -0.215,-0.621 -0.258,-0.446 -0.306,-0.285 -0.359,-0.143 -0.415,-0.026 -0.468,0.061 -0.513,0.116 -0.544,0.141 -0.554,0.147 -0.544,0.147 -0.513,0.156 -0.468,0.187 -0.415,0.246 -0.359,0.334 -0.306,0.448 -0.258,0.583 -0.215,0.735 -0.178,0.900 -0.147,1.075" />
<polyline points="0.027,-0.973 0.033,-0.777 0.040,-0.586 0.048,-0.404 0.057,-0.235 0.067,-0.084 0.077,0.042 0.087,0.138 0.095,0.200 0.101,0.230 0.103,0.238 0.101,0.236 0.095,0.240 0.087,0.264 0.077,0.314 0.067,0.392 0.057,0.498 0.048,0.625 0.040,0.771 0.033,0.930 0.027,1.099" />
<polyline points="0.192,-0.973 0.232,-0.777 0.280,-0.586 0.335,-0.404 0.398,-0.235 0.467,-0.084 0.539,0.042 0.608,0.138 0.667,0.200 0.707,0.230 0.721,0.238 0.707,0.236 0.667,0.240 0.608,0.264 0.539,0.314 0.467,0.392 0.398,0.498 0.335,0.625 0.280,0.771 0.232,0.930 0.192,1.099" />
<polyline points="0.283,-0.997 0.342,-0.806 0.413,-0.621 0.494,-0.446 0.587,-0.285 0.689,-0.143 0.795,-0.026 0.897,0.061 0.984,0.116 1.043,0.141 1.064,0.147 1.043,0.147 0.984,0.156 0.897,0.187 0.795,0.246 0.689,0.334 0.587,0.448 0.494,0.583 0.413,0.735 0.342,0.900 0.283,1.075" />
<polyline points="0.266,-1.036 0.322,-0.853 0.388,-0.678 0.465,-0.515 0.552,-0.366 0.648,-0.238 0.748,-0.136 0.844,-0.063 0.925,-0.020 0.980,-0.003 1.000,-0.000 0.980,0.003 0.925,0.020 0.844,0.063 0.748,0.136 0.648,0.238 0.552,0.366 0.465,0.515 0.388,0.678 0.322,0.853 0.266,1.036" />
</g>
</svg>