<svg xmlns="http://www.w3.org/2000/svg" width="158.2" height="100.0" viewBox="-48.62 -70.63 168.15 110.00">
<g fill="none" stroke="black" stroke-width="0.0680%" transform="translate(0, -31.2695) scale(7.3575, -7.3575)">
<polyline points="0.57,4.67 0.13,2.58 -0.30,0.76 -0.73,-0.80 -1.17,-2.10 -1.60,-3.14 -2.03,-3.92 -2.46,-4.43 -2.90,-4.68 -3.33,-4.67 -3.76,-4.39 -4.20,-3.85 -4.63,-3.05 -5.06,-1.99 -5.50,-0.67 -5.93,0.92" />
<polyline points="1.57,4.55 1.13,2.70 0.70,1.09 0.27,-0.30 -0.17,-1.46 -0.60,-2.39 -1.03,-3.10 -1.46,-3.57 -1.90,-3.82 -2.33,-3.85 -2.76,-3.64 -3.20,-3.21 -3.63,-2.55 -4.06,-1.66 -4.50,-0.55 -4.93,0.80" />
<polyline points="2.57,4.19 2.13,2.60 1.70,1.19 1.27,-0.02 0.83,-1.04 0.40,-1.87 -0.03,-2.50 -0.46,-2.95 -0.90,-3.20 -1.33,-3.25 -1.76,-3.12 -2.20,-2.79 -2.63,-2.27 -3.06,-1.56 -3.50,-0.65 -3.93,0.44" />
<polyline points="3.57,3.65 3.13,2.29 2.70,1.10 2.27,0.06 1.83,-0.82 1.40,-1.54 0.97,-2.10 0.54,-2.51 0.10,-2.76 -0.33,-2.85 -0.76,-2.79 -1.20,-2.57 -1.63,-2.19 -2.06,-1.65 -2.50,-0.96 -2.93,-0.10" />
<polyline points="4.57,2.94 4.13,1.84 3.70,0.85 3.27,-0.01 2.83,-0.75 2.40,-1.37 1.97,-1.86 1.54,-2.23 1.10,-2.48 0.67,-2.61 0.24,-2.62 -0.20,-2.50 -0.63,-2.26 -1.06,-1.90 -1.50,-1.41 -1.93,-0.81" />
<polyline points="5.57,2.12 5.13,1.26 4.70,0.48 4.27,-0.21 3.83,-0.81 3.40,-1.32 2.97,-1.74 2.54,-2.08 2.10,-2.33 1.67,-2.49 1.24,-2.57 0.80,-2.56 0.37,-2.46 -0.06,-2.27 -0.50,-1.99 -0.93,-1.63" />
<polyline points="6.57,1.21 6.13,0.59 5.70,0.02 5.27,-0.49 4.83,-0.95 4.40,-1.36 3.97,-1.71 3.54,-2.01 3.10,-2.26 2.67,-2.46 2.24,-2.61 1.80,-2.70 1.37,-2.74 0.94,-2.73 0.50,-2.66 0.07,-2.54" />
<polyline points="7.57,0.24 7.13,-0.13 6.70,-0.49 6.27,-0.82 5.83,-1.14 5.40,-1.45 4.97,-1.73 4.54,-2.00 4.10,-2.25 3.67,-2.48 3.24,-2.70 2.80,-2.89 2.37,-3.07 1.94,-3.24 1.50,-3.38 1.07,-3.51" />
<polyline points="8.57,-0.74 8.13,-0.87 7.70,-1.01 7.27,-1.18 6.83,-1.36 6.40,-1.55 5.97,-1.77 5.54,-2.00 5.10,-2.25 4.67,-2.52 4.24,-2.80 3.80,-3.11 3.37,-3.43 2.94,-3.76 2.50,-4.12 2.07,-4.49" />
<polyline points="9.57,-1.71 9.13,-1.59 8.70,-1.52 8.27,-1.51 7.83,-1.55 7.40,-1.64 6.97,-1.79 6.54,-1.99 6.10,-2.24 5.67,-2.54 5.24,-2.89 4.80,-3.30 4.37,-3.76 3.94,-4.27 3.50,-4.84 3.07,-5.46" />
<polyline points="10.57,-2.62 10.13,-2.26 9.70,-1.98 9.27,-1.79 8.83,-1.69 8.40,-1.68 7.97,-1.76 7.54,-1.92 7.10,-2.17 6.67,-2.51 6.24,-2.93 5.80,-3.44 5.37,-4.04 4.94,-4.73 4.50,-5.51 4.07,-6.37" />
<polyline points="11.57,-3.44 11.13,-2.84 10.70,-2.35 10.27,-1.99 9.83,-1.75 9.40,-1.63 8.97,-1.64 8.54,-1.77 8.10,-2.02 7.67,-2.39 7.24,-2.88 6.80,-3.50 6.37,-4.24 5.94,-5.10 5.50,-6.09 5.07,-7.19" />
<polyline points="12.57,-4.15 12.13,-3.29 11.70,-2.60 11.27,-2.06 10.83,-1.68 10.40,-1.46 9.97,-1.40 9.54,-1.49 9.10,-1.74 8.67,-2.15 8.24,-2.71 7.80,-3.43 7.37,-4.31 6.94,-5.35 6.50,-6.54 6.07,-7.90" />
<polyline points="13.57,-4.69 13.13,-3.60 12.70,-2.69 12.27,-1.98 11.83,-1.46 11.40,-1.13 10.97,-1.00 10.54,-1.05 10.10,-1.30 9.67,-1.75 9.24,-2.38 8.80,-3.21 8.37,-4.23 7.94,-5.44 7.50,-6.85 7.07,-8.44" />
<polyline points="14.57,-5.05 14.13,-3.70 13.70,-2.59 13.27,-1.70 12.83,-1.04 12.40,-0.61 11.97,-0.40 11.54,-0.43 11.10,-0.68 10.67,-1.15 10.24,-1.86 9.80,-2.79 9.37,-3.95 8.94,-5.34 8.50,-6.95 8.07,-8.80" />
<polyline points="15.57,-5.17 15.13,-3.58 14.70,-2.26 14.27,-1.20 13.83,-0.40 13.40,0.14 12.97,0.42 12.54,0.43 12.10,0.18 11.67,-0.33 11.24,-1.11 10.80,-2.15 10.37,-3.45 9.94,-5.01 9.50,-6.83 9.07,-8.92" />
<polyline points="0.57,4.67 1.57,4.55 2.57,4.19 3.57,3.65 4.57,2.94 5.57,2.12 6.57,1.21 7.57,0.24 8.57,-0.74 9.57,-1.71 10.57,-2.62 11.57,-3.44 12.57,-4.15 13.57,-4.69 14.57,-5.05 15.57,-5.17" />
<polyline points="0.13,2.58 1.13,2.70 2.13,2.60 3.13,2.29 4.13,1.84 5.13,1.26 6.13,0.59 7.13,-0.13 8.13,-0.87 9.13,-1.59 10.13,-2.26 11.13,-2.84 12.13,-3.29 13.13,-3.60 14.13,-3.70 15.13,-3.58" />
<polyline points="-0.30,0.76 0.70,1.09 1.70,1.19 2.70,1.10 3.70,0.85 4.70,0.48 5.70,0.02 6.70,-0.49 7.70,-1.01 8.70,-1.52 9.70,-1.98 10.70,-2.35 11.70,-2.60 12.70,-2.69 13.70,-2.59 14.70,-2.26" />
<polyline points="-0.73,-0.80 0.27,-0.30 1.27,-0.02 2.27,0.06 3.27,-0.01 4.27,-0.21 5.27,-0.49 6.27,-0.82 7.27,-1.18 8.27,-1.51 9.27,-1.79 10.27,-1.99 11.27,-2.06 12.27,-1.98 13.27,-1.70 14.27,-1.20" />
<polyline points="-1.17,-2.10 -0.17,-1.46 0.83,-1.04 1.83,-0.82 2.83,-0.75 3.83,-0.81 4.83,-0.95 5.83,-1.14 6.83,-1.36 7.83,-1.55 8.83,-1.69 9.83,-1.75 10.83,-1.68 11.83,-1.46 12.83,-1.04 13.83,-0.40" />
<polyline points="-1.60,-3.14 -0.60,-2.39 0.40,-1.87 1.40,-1.54 2.40,-1.37 3.40,-1.32 4.40,-1.36 5.40,-1.45 6.40,-1.55 7.40,-1.64 8.40,-1.68 9.40,-1.63 10.40,-1.46 11.40,-1.13 12.40,-0.61 13.40,0.14" />
<polyline points="-2.03,-3.92 -1.03,-3.10 -0.03,-2.50 0.97,-2.10 1.97,-1.86 2.97,-1.74 3.97,-1.71 4.97,-1.73 5.97,-1.77 6.97,-1.79 7.97,-1.76 8.97,-1.64 9.97,-1.40 10.97,-1.00 11.97,-0.40 12.97,0.42" />
<polyline points="-2.46,-4.43 -1.46,-3.57 -0.46,-2.95 0.54,-2.51 1.54,-2.23 2.54,-2.08 3.54,-2.01 4.54,-2.00 5.54,-2.00 6.54,-1.99 7.54,-1.92 8.54,-1.77 9.54,-1.49 10.54,-1.05 11.54,-0.43 12.54,0.43" />
<polyline points="-2.90,-4.68 -1.90,-3.82 -0.90,-3.20 0.10,-2.76 1.10,-2.48 2.10,-2.33 3.10,-2.26 4.10,-2.25 5.10,-2.25 6.10,-2.24 7.10,-2.17 8.10,-2.02 9.10,-1.74 10.10,-1.30 11.10,-0.68 12.10,0.18" />
<polyline points="-3.33,-4.67 -2.33,-3.85 -1.33,-3.25 -0.33,-2.85 0.67,-2.61 1.67,-2.49 2.67,-2.46 3.67,-2.48 4.67,-2.52 5.67,-2.54 6.67,-2.51 7.67,-2.39 8.67,-2.15 9.67,-1.75 10.67,-1.15 11.67,-0.33" />
<polyline points="-3.76,-4.39 -2.76,-3.64 -1.76,-3.12 -0.76,-2.79 0.24,-2.62 1.24,-2.57 2.24,-2.61 3.24,-2.70 4.24,-2.80 5.24,-2.89 6.24,-2.93 7.24,-2.88 8.24,-2.71 9.24,-2.38 10.24,-1.86 11.24,-1.11" />
<polyline points="-4.20,-3.85 -3.20,-3.21 -2.20,-2.79 -1.20,-2.57 -0.20,-2.50 0.80,-2.56 1.80,-2.70 2.80,-2.89 3.80,-3.11 4.80,-3.30 5.80,-3.44 6.80,-3.50 7.80,-3.43 8.80,-3.21 9.80,-2.79 10.80,-2.15" />
<polyline points="-4.63,-3.05 -3.63,-2.55 -2.63,-2.27 -1.63,-2.19 -0.63,-2.26 0.37,-2.46 1.37,-2.74 2.37,-3.07 3.37,-3.43 4.37,-3.76 5.37,-4.04 6.37,-4.24 7.37,-4.31 8.37,-4.23 9.37,-3.95 10.37,-3.45" />
<polyline points="-5.06,-1.99 -4.06,-1.66 -3.06,-1.56 -2.06,-1.65 -1.06,-1.90 -0.06,-2.27 0.94,-2.73 1.94,-3.24 2.94,-3.76 3.94,-4.27 4.94,-4.73 5.94,-5.10 6.94,-5.35 7.94,-5.44 8.94,-5.34 9.94,-5.01" />
<polyline points="-5.50,-0.67 -4.50,-0.55 -3.50,-0.65 -2.50,-0.96 -1.50,-1.41 -0.50,-1.99 0.50,-2.66 1.50,-3.38 2.50,-4.12 3.50,-4.84 4.50,-5.51 5.50,-6.09 6.50,-6.54 7.50,-6.85 8.50,-6.95 9.50,-6.83" />
<polyline points="-5.93,0.92 -4.93,0.80 -3.93,0.44 -2.93,-0.10 -1.93,-0.81 -0.93,-1.63 0.07,-2.54 1.07,-3.51 2.07,-4.49 3.07,-5.46 4.07,-6.37 5.07,-7.19 6.07,-7.90 7.07,-8.44 8.07,-8.80 9.07,-8.92" />
</g>
</svg>