<svg xmlns="http://www.w3.org/2000/svg" width="564.4" height="100.0" viewBox="-287.184 -55.000 574.368 110.000">
<g fill="none" stroke="black" stroke-width="0.0051%" transform="translate(0, 0.0000) scale(98.4583, -98.4583)">
<polyline points="-1.134,0.499 -1.249,0.432 -1.365,0.362 -1.480,0.291 -1.596,0.218 -1.711,0.143 -1.827,0.069 -1.942,-0.003 -2.058,-0.069 -2.173,-0.131 -2.289,-0.190 -2.404,-0.249 -2.520,-0.309 -2.635,-0.371 -2.751,-0.435 -2.866,-0.501" />
<polyline points="-0.867,0.498 -0.983,0.429 -1.098,0.357 -1.214,0.280 -1.329,0.197 -1.445,0.112 -1.560,0.027 -1.676,-0.051 -1.791,-0.118 -1.907,-0.173 -2.022,-0.222 -2.137,-0.269 -2.253,-0.320 -2.368,-0.377 -2.484,-0.438 -2.599,-0.502" />
<polyline points="-0.601,0.497 -0.716,0.425 -0.832,0.347 -0.947,0.260 -1.063,0.162 -1.178,0.057 -1.293,-0.045 -1.409,-0.134 -1.524,-0.201 -1.640,-0.245 -1.755,-0.276 -1.871,-0.305 -1.986,-0.340 -2.102,-0.387 -2.217,-0.442 -2.333,-0.503" />
<polyline points="-0.334,0.495 -0.449,0.419 -0.565,0.334 -0.680,0.233 -0.796,0.114 -0.911,-0.016 -1.027,-0.142 -1.142,-0.246 -1.258,-0.313 -1.373,-0.342 -1.489,-0.349 -1.604,-0.352 -1.720,-0.367 -1.835,-0.400 -1.951,-0.447 -2.066,-0.505" />
<polyline points="-0.067,0.493 -0.183,0.414 -0.298,0.321 -0.414,0.207 -0.529,0.070 -0.645,-0.084 -0.760,-0.233 -0.876,-0.350 -0.991,-0.417 -1.107,-0.433 -1.222,-0.417 -1.337,-0.397 -1.453,-0.393 -1.568,-0.412 -1.684,-0.453 -1.799,-0.507" />
<polyline points="0.199,0.492 0.084,0.412 -0.032,0.317 -0.147,0.199 -0.263,0.054 -0.378,-0.107 -0.493,-0.264 -0.609,-0.387 -0.724,-0.453 -0.840,-0.464 -0.955,-0.441 -1.071,-0.412 -1.186,-0.401 -1.302,-0.416 -1.417,-0.455 -1.533,-0.508" />
<polyline points="0.466,0.494 0.351,0.416 0.235,0.327 0.120,0.219 0.004,0.091 -0.111,-0.052 -0.227,-0.190 -0.342,-0.302 -0.458,-0.368 -0.573,-0.390 -0.689,-0.385 -0.804,-0.376 -0.920,-0.381 -1.035,-0.406 -1.151,-0.450 -1.266,-0.506" />
<polyline points="0.733,0.498 0.617,0.427 0.502,0.351 0.386,0.269 0.271,0.179 0.155,0.083 0.040,-0.012 -0.076,-0.095 -0.191,-0.162 -0.307,-0.212 -0.422,-0.251 -0.537,-0.288 -0.653,-0.331 -0.768,-0.382 -0.884,-0.440 -0.999,-0.502" />
<polyline points="0.999,0.502 0.884,0.440 0.768,0.382 0.653,0.331 0.537,0.288 0.422,0.251 0.307,0.212 0.191,0.162 0.076,0.095 -0.040,0.012 -0.155,-0.083 -0.271,-0.179 -0.386,-0.269 -0.502,-0.351 -0.617,-0.427 -0.733,-0.498" />
<polyline points="1.266,0.506 1.151,0.450 1.035,0.406 0.920,0.381 0.804,0.376 0.689,0.385 0.573,0.390 0.458,0.368 0.342,0.302 0.227,0.190 0.111,0.052 -0.004,-0.091 -0.120,-0.219 -0.235,-0.327 -0.351,-0.416 -0.466,-0.494" />
<polyline points="1.533,0.508 1.417,0.455 1.302,0.416 1.186,0.401 1.071,0.412 0.955,0.441 0.840,0.464 0.724,0.453 0.609,0.387 0.493,0.264 0.378,0.107 0.263,-0.054 0.147,-0.199 0.032,-0.317 -0.084,-0.412 -0.199,-0.492" />
<polyline points="1.799,0.507 1.684,0.453 1.568,0.412 1.453,0.393 1.337,0.397 1.222,0.417 1.107,0.433 0.991,0.417 0.876,0.350 0.760,0.233 0.645,0.084 0.529,-0.070 0.414,-0.207 0.298,-0.321 0.183,-0.414 0.067,-0.493" />
<polyline points="2.066,0.505 1.951,0.447 1.835,0.400 1.720,0.367 1.604,0.352 1.489,0.349 1.373,0.342 1.258,0.313 1.142,0.246 1.027,0.142 0.911,0.016 0.796,-0.114 0.680,-0.233 0.565,-0.334 0.449,-0.419 0.334,-0.495" />
<polyline points="2.333,0.503 2.217,0.442 2.102,0.387 1.986,0.340 1.871,0.305 1.755,0.276 1.640,0.245 1.524,0.201 1.409,0.134 1.293,0.045 1.178,-0.057 1.063,-0.162 0.947,-0.260 0.832,-0.347 0.716,-0.425 0.601,-0.497" />
<polyline points="2.599,0.502 2.484,0.438 2.368,0.377 2.253,0.320 2.137,0.269 2.022,0.222 1.907,0.173 1.791,0.118 1.676,0.051 1.560,-0.027 1.445,-0.112 1.329,-0.197 1.214,-0.280 1.098,-0.357 0.983,-0.429 0.867,-0.498" />
<polyline points="2.866,0.501 2.751,0.435 2.635,0.371 2.520,0.309 2.404,0.249 2.289,0.190 2.173,0.131 2.058,0.069 1.942,0.003 1.827,-0.069 1.711,-0.143 1.596,-0.218 1.480,-0.291 1.365,-0.362 1.249,-0.432 1.134,-0.499" />
<polyline points="-1.134,0.499 -0.867,0.498 -0.601,0.497 -0.334,0.495 -0.067,0.493 0.199,0.492 0.466,0.494 0.733,0.498 0.999,0.502 1.266,0.506 1.533,0.508 1.799,0.507 2.066,0.505 2.333,0.503 2.599,0.502 2.866,0.501" />
<polyline points="-1.249,0.432 -0.983,0.429 -0.716,0.425 -0.449,0.419 -0.183,0.414 0.084,0.412 0.351,0.416 0.617,0.427 0.884,0.440 1.151,0.450 1.417,0.455 1.684,0.453 1.951,0.447 2.217,0.442 2.484,0.438 2.751,0.435" />
<polyline points="-1.365,0.362 -1.098,0.357 -0.832,0.347 -0.565,0.334 -0.298,0.321 -0.032,0.317 0.235,0.327 0.502,0.351 0.768,0.382 1.035,0.406 1.302,0.416 1.568,0.412 1.835,0.400 2.102,0.387 2.368,0.377 2.635,0.371" />
<polyline points="-1.480,0.291 -1.214,0.280 -0.947,0.260 -0.680,0.233 -0.414,0.207 -0.147,0.199 0.120,0.219 0.386,0.269 0.653,0.331 0.920,0.381 1.186,0.401 1.453,0.393 1.720,0.367 1.986,0.340 2.253,0.320 2.520,0.309" />
<polyline points="-1.596,0.218 -1.329,0.197 -1.063,0.162 -0.796,0.114 -0.529,0.070 -0.263,0.054 0.004,0.091 0.271,0.179 0.537,0.288 0.804,0.376 1.071,0.412 1.337,0.397 1.604,0.352 1.871,0.305 2.137,0.269 2.404,0.249" />
<polyline points="-1.711,0.143 -1.445,0.112 -1.178,0.057 -0.911,-0.016 -0.645,-0.084 -0.378,-0.107 -0.111,-0.052 0.155,0.083 0.422,0.251 0.689,0.385 0.955,0.441 1.222,0.417 1.489,0.349 1.755,0.276 2.022,0.222 2.289,0.190" />
<polyline points="-1.827,0.069 -1.560,0.027 -1.293,-0.045 -1.027,-0.142 -0.760,-0.233 -0.493,-0.264 -0.227,-0.190 0.040,-0.012 0.307,0.212 0.573,0.390 0.840,0.464 1.107,0.433 1.373,0.342 1.640,0.245 1.907,0.173 2.173,0.131" />
<polyline points="-1.942,-0.003 -1.676,-0.051 -1.409,-0.134 -1.142,-0.246 -0.876,-0.350 -0.609,-0.387 -0.342,-0.302 -0.076,-0.095 0.191,0.162 0.458,0.368 0.724,0.453 0.991,0.417 1.258,0.313 1.524,0.201 1.791,0.118 2.058,0.069" />
<polyline points="-2.058,-0.069 -1.791,-0.118 -1.524,-0.201 -1.258,-0.313 -0.991,-0.417 -0.724,-0.453 -0.458,-0.368 -0.191,-0.162 0.076,0.095 0.342,0.302 0.609,0.387 0.876,0.350 1.142,0.246 1.409,0.134 1.676,0.051 1.942,0.003" />
<polyline points="-2.173,-0.131 -1.907,-0.173 -1.640,-0.245 -1.373,-0.342 -1.107,-0.433 -0.840,-0.464 -0.573,-0.390 -0.307,-0.212 -0.040,0.012 0.227,0.190 0.493,0.264 0.760,0.233 1.027,0.142 1.293,0.045 1.560,-0.027 1.827,-0.069" />
<polyline points="-2.289,-0.190 -2.022,-0.222 -1.755,-0.276 -1.489,-0.349 -1.222,-0.417 -0.955,-0.441 -0.689,-0.385 -0.422,-0.251 -0.155,-0.083 0.111,0.052 0.378,0.107 0.645,0.084 0.911,0.016 1.178,-0.057 1.445,-0.112 1.711,-0.143" />
<polyline points="-2.404,-0.249 -2.137,-0.269 -1.871,-0.305 -1.604,-0.352 -1.337,-0.397 -1.071,-0.412 -0.804,-0.376 -0.537,-0.288 -0.271,-0.179 -0.004,-0.091 0.263,-0.054 0.529,-0.070 0.796,-0.114 1.063,-0.162 1.329,-0.197 1.596,-0.218" />
<polyline points="-2.520,-0.309 -2.253,-0.320 -1.986,-0.340 -1.720,-0.367 -1.453,-0.393 -1.186,-0.401 -0.920,-0.381 -0.653,-0.331 -0.386,-0.269 -0.120,-0.219 0.147,-0.199 0.414,-0.207 0.680,-0.233 0.947,-0.260 1.214,-0.280 1.480,-0.291" />
<polyline points="-2.635,-0.371 -2.368,-0.377 -2.102,-0.387 -1.835,-0.400 -1.568,-0.412 -1.302,-0.416 -1.035,-0.406 -0.768,-0.382 -0.502,-0.351 -0.235,-0.327 0.032,-0.317 0.298,-0.321 0.565,-0.334 0.832,-0.347 1.098,-0.357 1.365,-0.362" />
<polyline points="-2.751,-0.435 -2.484,-0.438 -2.217,-0.442 -1.951,-0.447 -1.684,-0.453 -1.417,-0.455 -1.151,-0.450 -0.884,-0.440 -0.617,-0.427 -0.351,-0.416 -0.084,-0.412 0.183,-0.414 0.449,-0.419 0.716,-0.425 0.983,-0.429 1.249,-0.432" />
<polyline points="-2.866,-0.501 -2.599,-0.502 -2.333,-0.503 -2.066,-0.505 -1.799,-0.507 -1.533,-0.508 -1.266,-0.506 -0.999,-0.502 -0.733,-0.498 -0.466,-0.494 -0.199,-0.492 0.067,-0.493 0.334,-0.495 0.601,-0.497 0.867,-0.498 1.134,-0.499" />
</g>
</svg>