<svg xmlns="http://www.w3.org/2000/svg" width="101.2" height="100.0" viewBox="-55.06 -55.06 111.16 110.00">
<g fill="none" stroke="black" stroke-width="0.0351%" transform="translate(0, -0.1126) scale(14.2635, -14.2635)">
<polyline points="2.07,-0.25 1.85,0.77 1.24,1.61 0.34,2.13 -0.69,2.24 -1.68,1.92 -2.46,1.22 -2.88,0.27 -2.88,-0.77 -2.46,-1.72 -1.68,-2.42 -0.69,-2.74 0.34,-2.63 1.24,-2.11 1.85,-1.27 2.07,-0.25" />
<polyline points="2.51,-0.23 2.26,0.95 1.55,1.93 0.50,2.54 -0.70,2.66 -1.85,2.29 -2.75,1.48 -3.24,0.38 -3.24,-0.83 -2.75,-1.94 -1.85,-2.75 -0.70,-3.12 0.50,-2.99 1.55,-2.39 2.26,-1.41 2.51,-0.23" />
<polyline points="2.95,-0.17 2.67,1.15 1.88,2.24 0.71,2.92 -0.63,3.06 -1.91,2.64 -2.91,1.74 -3.46,0.51 -3.46,-0.84 -2.91,-2.07 -1.91,-2.98 -0.63,-3.39 0.71,-3.25 1.88,-2.58 2.67,-1.49 2.95,-0.17" />
<polyline points="3.32,-0.08 3.02,1.33 2.18,2.49 0.93,3.20 -0.49,3.35 -1.86,2.91 -2.93,1.95 -3.51,0.64 -3.51,-0.79 -2.93,-2.11 -1.86,-3.07 -0.49,-3.51 0.93,-3.36 2.18,-2.64 3.02,-1.48 3.32,-0.08" />
<polyline points="3.54,0.03 3.24,1.45 2.38,2.62 1.13,3.35 -0.32,3.50 -1.70,3.05 -2.78,2.08 -3.37,0.75 -3.37,-0.70 -2.78,-2.03 -1.70,-3.00 -0.32,-3.45 1.13,-3.30 2.38,-2.57 3.24,-1.40 3.54,0.03" />
<polyline points="3.58,0.12 3.29,1.49 2.47,2.63 1.26,3.33 -0.14,3.47 -1.47,3.04 -2.51,2.10 -3.08,0.82 -3.08,-0.57 -2.51,-1.85 -1.47,-2.79 -0.14,-3.22 1.26,-3.08 2.47,-2.38 3.29,-1.24 3.58,0.12" />
<polyline points="3.44,0.20 3.17,1.46 2.42,2.50 1.30,3.14 0.03,3.27 -1.19,2.88 -2.15,2.02 -2.67,0.84 -2.67,-0.44 -2.15,-1.61 -1.19,-2.47 0.03,-2.87 1.30,-2.73 2.42,-2.09 3.17,-1.05 3.44,0.20" />
<polyline points="3.13,0.24 2.90,1.35 2.24,2.26 1.26,2.82 0.14,2.94 -0.93,2.59 -1.77,1.84 -2.23,0.81 -2.23,-0.32 -1.77,-1.35 -0.93,-2.10 0.14,-2.45 1.26,-2.33 2.24,-1.77 2.90,-0.86 3.13,0.24" />
<polyline points="2.72,0.24 2.52,1.18 1.96,1.95 1.13,2.42 0.18,2.52 -0.72,2.23 -1.43,1.59 -1.82,0.72 -1.82,-0.23 -1.43,-1.10 -0.72,-1.74 0.18,-2.03 1.13,-1.94 1.96,-1.46 2.52,-0.69 2.72,0.24" />
<polyline points="2.26,0.20 2.10,0.98 1.63,1.62 0.94,2.02 0.15,2.10 -0.61,1.86 -1.20,1.33 -1.52,0.60 -1.52,-0.20 -1.20,-0.92 -0.61,-1.45 0.15,-1.70 0.94,-1.62 1.63,-1.22 2.10,-0.58 2.26,0.20" />
<polyline points="1.85,0.12 1.71,0.79 1.31,1.34 0.72,1.68 0.05,1.75 -0.60,1.54 -1.11,1.09 -1.38,0.46 -1.38,-0.21 -1.11,-0.84 -0.60,-1.29 0.05,-1.50 0.72,-1.43 1.31,-1.09 1.71,-0.54 1.85,0.12" />
<polyline points="1.55,0.03 1.42,0.64 1.05,1.14 0.51,1.46 -0.11,1.52 -0.71,1.33 -1.17,0.91 -1.43,0.34 -1.43,-0.29 -1.17,-0.86 -0.71,-1.28 -0.11,-1.47 0.51,-1.41 1.05,-1.09 1.42,-0.59 1.55,0.03" />
<polyline points="1.42,-0.08 1.28,0.55 0.90,1.07 0.34,1.40 -0.30,1.46 -0.91,1.26 -1.39,0.83 -1.65,0.24 -1.65,-0.40 -1.39,-0.99 -0.91,-1.42 -0.30,-1.62 0.34,-1.55 0.90,-1.23 1.28,-0.71 1.42,-0.08" />
<polyline points="1.47,-0.17 1.32,0.55 0.89,1.14 0.25,1.50 -0.47,1.58 -1.17,1.35 -1.71,0.87 -2.01,0.20 -2.01,-0.53 -1.71,-1.20 -1.17,-1.69 -0.47,-1.91 0.25,-1.84 0.89,-1.47 1.32,-0.88 1.47,-0.17" />
<polyline points="1.70,-0.23 1.52,0.62 1.01,1.33 0.25,1.76 -0.61,1.85 -1.44,1.58 -2.09,1.00 -2.44,0.21 -2.44,-0.66 -2.09,-1.46 -1.44,-2.04 -0.61,-2.31 0.25,-2.22 1.01,-1.78 1.52,-1.08 1.70,-0.23" />
<polyline points="2.07,-0.25 1.85,0.77 1.24,1.61 0.34,2.13 -0.69,2.24 -1.68,1.92 -2.46,1.22 -2.88,0.27 -2.88,-0.77 -2.46,-1.72 -1.68,-2.42 -0.69,-2.74 0.34,-2.63 1.24,-2.11 1.85,-1.27 2.07,-0.25" />
<polyline points="2.07,-0.25 2.51,-0.23 2.95,-0.17 3.32,-0.08 3.54,0.03 3.58,0.12 3.44,0.20 3.13,0.24 2.72,0.24 2.26,0.20 1.85,0.12 1.55,0.03 1.42,-0.08 1.47,-0.17 1.70,-0.23 2.07,-0.25" />
<polyline points="1.85,0.77 2.26,0.95 2.67,1.15 3.02,1.33 3.24,1.45 3.29,1.49 3.17,1.46 2.90,1.35 2.52,1.18 2.10,0.98 1.71,0.79 1.42,0.64 1.28,0.55 1.32,0.55 1.52,0.62 1.85,0.77" />
<polyline points="1.24,1.61 1.55,1.93 1.88,2.24 2.18,2.49 2.38,2.62 2.47,2.63 2.42,2.50 2.24,2.26 1.96,1.95 1.63,1.62 1.31,1.34 1.05,1.14 0.90,1.07 0.89,1.14 1.01,1.33 1.24,1.61" />
<polyline points="0.34,2.13 0.50,2.54 0.71,2.92 0.93,3.20 1.13,3.35 1.26,3.33 1.30,3.14 1.26,2.82 1.13,2.42 0.94,2.02 0.72,1.68 0.51,1.46 0.34,1.40 0.25,1.50 0.25,1.76 0.34,2.13" />
<polyline points="-0.69,2.24 -0.70,2.66 -0.63,3.06 -0.49,3.35 -0.32,3.50 -0.14,3.47 0.03,3.27 0.14,2.94 0.18,2.52 0.15,2.10 0.05,1.75 -0.11,1.52 -0.30,1.46 -0.47,1.58 -0.61,1.85 -0.69,2.24" />
<polyline points="-1.68,1.92 -1.85,2.29 -1.91,2.64 -1.86,2.91 -1.70,3.05 -1.47,3.04 -1.19,2.88 -0.93,2.59 -0.72,2.23 -0.61,1.86 -0.60,1.54 -0.71,1.33 -0.91,1.26 -1.17,1.35 -1.44,1.58 -1.68,1.92" />
<polyline points="-2.46,1.22 -2.75,1.48 -2.91,1.74 -2.93,1.95 -2.78,2.08 -2.51,2.10 -2.15,2.02 -1.77,1.84 -1.43,1.59 -1.20,1.33 -1.11,1.09 -1.17,0.91 -1.39,0.83 -1.71,0.87 -2.09,1.00 -2.46,1.22" />
<polyline points="-2.88,0.27 -3.24,0.38 -3.46,0.51 -3.51,0.64 -3.37,0.75 -3.08,0.82 -2.67,0.84 -2.23,0.81 -1.82,0.72 -1.52,0.60 -1.38,0.46 -1.43,0.34 -1.65,0.24 -2.01,0.20 -2.44,0.21 -2.88,0.27" />
<polyline points="-2.88,-0.77 -3.24,-0.83 -3.46,-0.84 -3.51,-0.79 -3.37,-0.70 -3.08,-0.57 -2.67,-0.44 -2.23,-0.32 -1.82,-0.23 -1.52,-0.20 -1.38,-0.21 -1.43,-0.29 -1.65,-0.40 -2.01,-0.53 -2.44,-0.66 -2.88,-0.77" />
<polyline points="-2.46,-1.72 -2.75,-1.94 -2.91,-2.07 -2.93,-2.11 -2.78,-2.03 -2.51,-1.85 -2.15,-1.61 -1.77,-1.35 -1.43,-1.10 -1.20,-0.92 -1.11,-0.84 -1.17,-0.86 -1.39,-0.99 -1.71,-1.20 -2.09,-1.46 -2.46,-1.72" />
<polyline points="-1.68,-2.42 -1.85,-2.75 -1.91,-2.98 -1.86,-3.07 -1.70,-3.00 -1.47,-2.79 -1.19,-2.47 -0.93,-2.10 -0.72,-1.74 -0.61,-1.45 -0.60,-1.29 -0.71,-1.28 -0.91,-1.42 -1.17,-1.69 -1.44,-2.04 -1.68,-2.42" />
<polyline points="-0.69,-2.74 -0.70,-3.12 -0.63,-3.39 -0.49,-3.51 -0.32,-3.45 -0.14,-3.22 0.03,-2.87 0.14,-2.45 0.18,-2.03 0.15,-1.70 0.05,-1.50 -0.11,-1.47 -0.30,-1.62 -0.47,-1.91 -0.61,-2.31 -0.69,-2.74" />
<polyline points="0.34,-2.63 0.50,-2.99 0.71,-3.25 0.93,-3.36 1.13,-3.30 1.26,-3.08 1.30,-2.73 1.26,-2.33 1.13,-1.94 0.94,-1.62 0.72,-1.43 0.51,-1.41 0.34,-1.55 0.25,-1.84 0.25,-2.22 0.34,-2.63" />
<polyline points="1.24,-2.11 1.55,-2.39 1.88,-2.58 2.18,-2.64 2.38,-2.57 2.47,-2.38 2.42,-2.09 2.24,-1.77 1.96,-1.46 1.63,-1.22 1.31,-1.09 1.05,-1.09 0.90,-1.23 0.89,-1.47 1.01,-1.78 1.24,-2.11" />
<polyline points="1.85,-1.27 2.26,-1.41 2.67,-1.49 3.02,-1.48 3.24,-1.40 3.29,-1.24 3.17,-1.05 2.90,-0.86 2.52,-0.69 2.10,-0.58 1.71,-0.54 1.42,-0.59 1.28,-0.71 1.32,-0.88 1.52,-1.08 1.85,-1.27" />
<polyline points="2.07,-0.25 2.51,-0.23 2.95,-0.17 3.32,-0.08 3.54,0.03 3.58,0.12 3.44,0.20 3.13,0.24 2.72,0.24 2.26,0.20 1.85,0.12 1.55,0.03 1.42,-0.08 1.47,-0.17 1.70,-0.23 2.07,-0.25" />
</g>
</svg>