<svg xmlns="http://www.w3.org/2000/svg" width="170.7" height="100.0" viewBox="-90.362 -24.477 180.725 110.000">
<g fill="none" stroke="black" stroke-width="0.0064%" transform="translate(0, 61.0455) scale(78.3381, -78.3381)">
<polyline points="1.000,0.000 0.978,0.208 0.914,0.407 0.809,0.588 0.669,0.743 0.500,0.866 0.309,0.951 0.105,0.995 -0.105,0.995 -0.309,0.951 -0.500,0.866 -0.669,0.743 -0.809,0.588 -0.914,0.407 -0.978,0.208 -1.000,0.000" />
<polyline points="0.737,-0.102 0.721,0.108 0.674,0.314 0.597,0.506 0.493,0.675 0.369,0.815 0.228,0.920 0.077,0.984 -0.077,1.005 -0.228,0.982 -0.369,0.917 -0.493,0.811 -0.597,0.670 -0.674,0.500 -0.721,0.307 -0.737,0.102" />
<polyline points="0.347,-0.186 0.340,0.026 0.317,0.237 0.281,0.437 0.232,0.619 0.174,0.773 0.107,0.894 0.036,0.975 -0.036,1.014 -0.107,1.008 -0.174,0.959 -0.232,0.867 -0.281,0.738 -0.317,0.576 -0.340,0.390 -0.347,0.186" />
<polyline points="-0.103,-0.238 -0.101,-0.025 -0.094,0.190 -0.083,0.395 -0.069,0.584 -0.051,0.747 -0.032,0.878 -0.011,0.970 0.011,1.019 0.032,1.025 0.051,0.985 0.069,0.902 0.083,0.780 0.094,0.624 0.101,0.440 0.103,0.238" />
<polyline points="-0.535,-0.249 -0.523,-0.035 -0.489,0.180 -0.433,0.387 -0.358,0.577 -0.268,0.742 -0.165,0.874 -0.056,0.969 0.056,1.021 0.165,1.028 0.268,0.990 0.358,0.910 0.433,0.789 0.489,0.634 0.523,0.451 0.535,0.249" />
<polyline points="-0.875,-0.217 -0.856,-0.004 -0.799,0.209 -0.708,0.413 -0.585,0.598 -0.438,0.758 -0.270,0.884 -0.091,0.972 0.091,1.017 0.270,1.018 0.437,0.974 0.585,0.888 0.708,0.763 0.799,0.605 0.856,0.420 0.875,0.217" />
<polyline points="-1.064,-0.147 -1.040,0.064 -0.972,0.272 -0.860,0.469 -0.712,0.645 -0.532,0.793 -0.329,0.906 -0.111,0.979 0.111,1.010 0.329,0.996 0.532,0.939 0.712,0.841 0.860,0.707 0.972,0.541 1.040,0.352 1.064,0.147" />
<polyline points="-1.068,-0.052 -1.045,0.157 -0.976,0.359 -0.864,0.546 -0.715,0.708 -0.534,0.840 -0.330,0.935 -0.112,0.989 0.112,1.000 0.330,0.967 0.534,0.892 0.715,0.778 0.864,0.630 0.976,0.454 1.045,0.259 1.068,0.052" />
<polyline points="-0.888,0.052 -0.869,0.259 -0.811,0.454 -0.719,0.630 -0.594,0.778 -0.444,0.892 -0.274,0.967 -0.093,1.000 0.093,0.989 0.274,0.935 0.444,0.840 0.594,0.708 0.719,0.546 0.811,0.359 0.869,0.157 0.888,-0.052" />
<polyline points="-0.554,0.147 -0.542,0.352 -0.507,0.541 -0.449,0.707 -0.371,0.841 -0.277,0.939 -0.171,0.996 -0.058,1.010 0.058,0.979 0.171,0.906 0.277,0.793 0.371,0.645 0.449,0.469 0.507,0.272 0.542,0.064 0.554,-0.147" />
<polyline points="-0.125,0.217 -0.122,0.420 -0.114,0.605 -0.101,0.763 -0.084,0.888 -0.063,0.974 -0.039,1.018 -0.013,1.017 0.013,0.972 0.039,0.884 0.063,0.758 0.084,0.598 0.101,0.413 0.114,0.209 0.122,-0.004 0.125,-0.217" />
<polyline points="0.326,0.249 0.319,0.451 0.298,0.634 0.264,0.789 0.218,0.910 0.163,0.990 0.101,1.028 0.034,1.021 -0.034,0.969 -0.101,0.874 -0.163,0.742 -0.218,0.577 -0.264,0.387 -0.298,0.180 -0.319,-0.035 -0.326,-0.249" />
<polyline points="0.721,0.238 0.705,0.440 0.659,0.624 0.583,0.780 0.482,0.902 0.360,0.985 0.223,1.025 0.075,1.019 -0.075,0.970 -0.223,0.878 -0.360,0.747 -0.482,0.584 -0.583,0.395 -0.659,0.190 -0.705,-0.025 -0.721,-0.238" />
<polyline points="0.991,0.186 0.969,0.390 0.905,0.576 0.802,0.738 0.663,0.867 0.495,0.959 0.306,1.008 0.104,1.014 -0.104,0.975 -0.306,0.894 -0.495,0.773 -0.663,0.619 -0.802,0.437 -0.905,0.237 -0.969,0.026 -0.991,-0.186" />
<polyline points="1.090,0.102 1.066,0.307 0.995,0.500 0.882,0.670 0.729,0.811 0.545,0.917 0.337,0.982 0.114,1.005 -0.114,0.984 -0.337,0.920 -0.545,0.815 -0.729,0.675 -0.882,0.506 -0.995,0.314 -1.066,0.108 -1.090,-0.102" />
<polyline points="1.000,0.000 0.978,0.208 0.914,0.407 0.809,0.588 0.669,0.743 0.500,0.866 0.309,0.951 0.105,0.995 -0.105,0.995 -0.309,0.951 -0.500,0.866 -0.669,0.743 -0.809,0.588 -0.914,0.407 -0.978,0.208 -1.000,0.000" />
<polyline points="1.000,0.000 0.737,-0.102 0.347,-0.186 -0.103,-0.238 -0.535,-0.249 -0.875,-0.217 -1.064,-0.147 -1.068,-0.052 -0.888,0.052 -0.554,0.147 -0.125,0.217 0.326,0.249 0.721,0.238 0.991,0.186 1.090,0.102 1.000,0.000" />
<polyline points="0.978,0.208 0.721,0.108 0.340,0.026 -0.101,-0.025 -0.523,-0.035 -0.856,-0.004 -1.040,0.064 -1.045,0.157 -0.869,0.259 -0.542,0.352 -0.122,0.420 0.319,0.451 0.705,0.440 0.969,0.390 1.066,0.307 0.978,0.208" />
<polyline points="0.914,0.407 0.674,0.314 0.317,0.237 -0.094,0.190 -0.489,0.180 -0.799,0.209 -0.972,0.272 -0.976,0.359 -0.811,0.454 -0.507,0.541 -0.114,0.605 0.298,0.634 0.659,0.624 0.905,0.576 0.995,0.500 0.914,0.407" />
<polyline points="0.809,0.588 0.597,0.506 0.281,0.437 -0.083,0.395 -0.433,0.387 -0.708,0.413 -0.860,0.469 -0.864,0.546 -0.719,0.630 -0.449,0.707 -0.101,0.763 0.264,0.789 0.583,0.780 0.802,0.738 0.882,0.670 0.809,0.588" />
<polyline points="0.669,0.743 0.493,0.675 0.232,0.619 -0.069,0.584 -0.358,0.577 -0.585,0.598 -0.712,0.645 -0.715,0.708 -0.594,0.778 -0.371,0.841 -0.084,0.888 0.218,0.910 0.482,0.902 0.663,0.867 0.729,0.811 0.669,0.743" />
<polyline points="0.500,0.866 0.369,0.815 0.174,0.773 -0.051,0.747 -0.268,0.742 -0.438,0.758 -0.532,0.793 -0.534,0.840 -0.444,0.892 -0.277,0.939 -0.063,0.974 0.163,0.990 0.360,0.985 0.495,0.959 0.545,0.917 0.500,0.866" />
<polyline points="0.309,0.951 0.228,0.920 0.107,0.894 -0.032,0.878 -0.165,0.874 -0.270,0.884 -0.329,0.906 -0.330,0.935 -0.274,0.967 -0.171,0.996 -0.039,1.018 0.101,1.028 0.223,1.025 0.306,1.008 0.337,0.982 0.309,0.951" />
<polyline points="0.105,0.995 0.077,0.984 0.036,0.975 -0.011,0.970 -0.056,0.969 -0.091,0.972 -0.111,0.979 -0.112,0.989 -0.093,1.000 -0.058,1.010 -0.013,1.017 0.034,1.021 0.075,1.019 0.104,1.014 0.114,1.005 0.105,0.995" />
<polyline points="-0.105,0.995 -0.077,1.005 -0.036,1.014 0.011,1.019 0.056,1.021 0.091,1.017 0.111,1.010 0.112,1.000 0.093,0.989 0.058,0.979 0.013,0.972 -0.034,0.969 -0.075,0.970 -0.104,0.975 -0.114,0.984 -0.105,0.995" />
<polyline points="-0.309,0.951 -0.228,0.982 -0.107,1.008 0.032,1.025 0.165,1.028 0.270,1.018 0.329,0.996 0.330,0.967 0.274,0.935 0.171,0.906 0.039,0.884 -0.101,0.874 -0.223,0.878 -0.306,0.894 -0.337,0.920 -0.309,0.951" />
<polyline points="-0.500,0.866 -0.369,0.917 -0.174,0.959 0.051,0.985 0.268,0.990 0.437,0.974 0.532,0.939 0.534,0.892 0.444,0.840 0.277,0.793 0.063,0.758 -0.163,0.742 -0.360,0.747 -0.495,0.773 -0.545,0.815 -0.500,0.866" />
<polyline points="-0.669,0.743 -0.493,0.811 -0.232,0.867 0.069,0.902 0.358,0.910 0.585,0.888 0.712,0.841 0.715,0.778 0.594,0.708 0.371,0.645 0.084,0.598 -0.218,0.577 -0.482,0.584 -0.663,0.619 -0.729,0.675 -0.669,0.743" />
<polyline points="-0.809,0.588 -0.597,0.670 -0.281,0.738 0.083,0.780 0.433,0.789 0.708,0.763 0.860,0.707 0.864,0.630 0.719,0.546 0.449,0.469 0.101,0.413 -0.264,0.387 -0.583,0.395 -0.802,0.437 -0.882,0.506 -0.809,0.588" />
<polyline points="-0.914,0.407 -0.674,0.500 -0.317,0.576 0.094,0.624 0.489,0.634 0.799,0.605 0.972,0.541 0.976,0.454 0.811,0.359 0.507,0.272 0.114,0.209 -0.298,0.180 -0.659,0.190 -0.905,0.237 -0.995,0.314 -0.914,0.407" />
<polyline points="-0.978,0.208 -0.721,0.307 -0.340,0.390 0.101,0.440 0.523,0.451 0.856,0.420 1.040,0.352 1.045,0.259 0.869,0.157 0.542,0.064 0.122,-0.004 -0.319,-0.035 -0.705,-0.025 -0.969,0.026 -1.066,0.108 -0.978,0.208" />
<polyline points="-1.000,0.000 -0.737,0.102 -0.347,0.186 0.103,0.238 0.535,0.249 0.875,0.217 1.064,0.147 1.068,0.052 0.888,-0.052 0.554,-0.147 0.125,-0.217 -0.326,-0.249 -0.721,-0.238 -0.991,-0.186 -1.090,-0.102 -1.000,0.000" />
</g>
</svg>