<svg xmlns="http://www.w3.org/2000/svg" width="141.5" height="100.0" viewBox="-57.323 -55.000 151.483 110.000">
<g fill="none" stroke="black" stroke-width="0.0051%" transform="translate(0, 0.0000) scale(97.5159, -97.5159)">
<polyline points="-0.150,0.000 -0.083,0.000 -0.017,0.000 0.050,-0.000 0.117,-0.000 0.183,-0.000 0.250,-0.000 0.317,-0.000 0.383,-0.000 0.450,-0.000 0.517,-0.000 0.583,-0.000 0.650,-0.000 0.717,-0.000 0.783,-0.000 0.850,-0.000" />
<polyline points="-0.103,-0.090 -0.054,-0.083 -0.006,-0.075 0.042,-0.068 0.090,-0.061 0.138,-0.054 0.186,-0.046 0.234,-0.039 0.282,-0.032 0.330,-0.025 0.378,-0.018 0.426,-0.010 0.474,-0.003 0.523,0.004 0.571,0.011 0.619,0.019" />
<polyline points="-0.037,-0.184 -0.016,-0.168 0.005,-0.152 0.026,-0.136 0.048,-0.120 0.069,-0.105 0.090,-0.089 0.111,-0.073 0.132,-0.057 0.153,-0.041 0.174,-0.026 0.196,-0.010 0.217,0.006 0.238,0.022 0.259,0.038 0.280,0.053" />
<polyline points="0.006,-0.281 0.000,-0.255 -0.005,-0.228 -0.011,-0.202 -0.017,-0.175 -0.022,-0.149 -0.028,-0.123 -0.033,-0.096 -0.039,-0.070 -0.044,-0.044 -0.050,-0.017 -0.055,0.009 -0.061,0.035 -0.066,0.062 -0.072,0.088 -0.078,0.114" />
<polyline points="-0.008,-0.375 -0.032,-0.337 -0.056,-0.299 -0.080,-0.260 -0.104,-0.222 -0.128,-0.183 -0.151,-0.145 -0.175,-0.106 -0.199,-0.068 -0.223,-0.029 -0.247,0.009 -0.271,0.048 -0.295,0.086 -0.319,0.124 -0.342,0.163 -0.366,0.201" />
<polyline points="-0.087,-0.455 -0.117,-0.404 -0.146,-0.354 -0.175,-0.303 -0.204,-0.253 -0.233,-0.202 -0.262,-0.152 -0.292,-0.101 -0.321,-0.051 -0.350,-0.000 -0.379,0.051 -0.408,0.101 -0.437,0.152 -0.467,0.202 -0.496,0.253 -0.525,0.303" />
<polyline points="-0.208,-0.504 -0.230,-0.444 -0.252,-0.384 -0.274,-0.323 -0.296,-0.263 -0.317,-0.202 -0.339,-0.142 -0.361,-0.082 -0.383,-0.021 -0.405,0.039 -0.427,0.100 -0.449,0.160 -0.471,0.220 -0.493,0.281 -0.515,0.341 -0.537,0.401" />
<polyline points="-0.318,-0.513 -0.325,-0.447 -0.333,-0.381 -0.340,-0.315 -0.348,-0.249 -0.355,-0.183 -0.363,-0.117 -0.370,-0.051 -0.378,0.015 -0.385,0.081 -0.392,0.147 -0.400,0.213 -0.407,0.279 -0.415,0.344 -0.422,0.410 -0.430,0.476" />
<polyline points="-0.357,-0.476 -0.351,-0.410 -0.345,-0.344 -0.339,-0.279 -0.333,-0.213 -0.326,-0.147 -0.320,-0.081 -0.314,-0.015 -0.308,0.051 -0.302,0.117 -0.295,0.183 -0.289,0.249 -0.283,0.315 -0.277,0.381 -0.271,0.447 -0.264,0.513" />
<polyline points="-0.280,-0.401 -0.268,-0.341 -0.257,-0.281 -0.245,-0.220 -0.234,-0.160 -0.223,-0.100 -0.211,-0.039 -0.200,0.021 -0.188,0.082 -0.177,0.142 -0.166,0.202 -0.154,0.263 -0.143,0.323 -0.131,0.384 -0.120,0.444 -0.108,0.504" />
<polyline points="-0.075,-0.303 -0.071,-0.253 -0.067,-0.202 -0.062,-0.152 -0.058,-0.101 -0.054,-0.051 -0.050,0.000 -0.046,0.051 -0.042,0.101 -0.037,0.152 -0.033,0.202 -0.029,0.253 -0.025,0.303 -0.021,0.354 -0.017,0.404 -0.012,0.455" />
<polyline points="0.223,-0.201 0.209,-0.163 0.194,-0.124 0.180,-0.086 0.165,-0.048 0.151,-0.009 0.136,0.029 0.121,0.068 0.107,0.106 0.092,0.145 0.078,0.183 0.063,0.222 0.049,0.260 0.034,0.299 0.020,0.337 0.005,0.375" />
<polyline points="0.544,-0.114 0.505,-0.088 0.466,-0.062 0.427,-0.035 0.388,-0.009 0.349,0.017 0.311,0.044 0.272,0.070 0.233,0.096 0.194,0.123 0.155,0.149 0.116,0.175 0.077,0.202 0.038,0.228 -0.000,0.255 -0.039,0.281" />
<polyline points="0.799,-0.053 0.739,-0.038 0.679,-0.022 0.618,-0.006 0.558,0.010 0.498,0.026 0.437,0.041 0.377,0.057 0.317,0.073 0.256,0.089 0.196,0.105 0.136,0.120 0.075,0.136 0.015,0.152 -0.045,0.168 -0.106,0.184" />
<polyline points="0.914,-0.019 0.843,-0.011 0.772,-0.004 0.701,0.003 0.630,0.010 0.559,0.018 0.488,0.025 0.417,0.032 0.346,0.039 0.275,0.046 0.204,0.054 0.133,0.061 0.062,0.068 -0.009,0.075 -0.080,0.083 -0.152,0.090" />
<polyline points="0.850,-0.000 0.783,-0.000 0.717,-0.000 0.650,-0.000 0.583,-0.000 0.517,-0.000 0.450,-0.000 0.383,-0.000 0.317,-0.000 0.250,-0.000 0.183,0.000 0.117,0.000 0.050,0.000 -0.017,0.000 -0.083,0.000 -0.150,0.000" />
<polyline points="-0.150,0.000 -0.103,-0.090 -0.037,-0.184 0.006,-0.281 -0.008,-0.375 -0.087,-0.455 -0.208,-0.504 -0.318,-0.513 -0.357,-0.476 -0.280,-0.401 -0.075,-0.303 0.223,-0.201 0.544,-0.114 0.799,-0.053 0.914,-0.019 0.850,-0.000" />
<polyline points="-0.083,0.000 -0.054,-0.083 -0.016,-0.168 0.000,-0.255 -0.032,-0.337 -0.117,-0.404 -0.230,-0.444 -0.325,-0.447 -0.351,-0.410 -0.268,-0.341 -0.071,-0.253 0.209,-0.163 0.505,-0.088 0.739,-0.038 0.843,-0.011 0.783,-0.000" />
<polyline points="-0.017,0.000 -0.006,-0.075 0.005,-0.152 -0.005,-0.228 -0.056,-0.299 -0.146,-0.354 -0.252,-0.384 -0.333,-0.381 -0.345,-0.344 -0.257,-0.281 -0.067,-0.202 0.194,-0.124 0.466,-0.062 0.679,-0.022 0.772,-0.004 0.717,-0.000" />
<polyline points="0.050,-0.000 0.042,-0.068 0.026,-0.136 -0.011,-0.202 -0.080,-0.260 -0.175,-0.303 -0.274,-0.323 -0.340,-0.315 -0.339,-0.279 -0.245,-0.220 -0.062,-0.152 0.180,-0.086 0.427,-0.035 0.618,-0.006 0.701,0.003 0.650,-0.000" />
<polyline points="0.117,-0.000 0.090,-0.061 0.048,-0.120 -0.017,-0.175 -0.104,-0.222 -0.204,-0.253 -0.296,-0.263 -0.348,-0.249 -0.333,-0.213 -0.234,-0.160 -0.058,-0.101 0.165,-0.048 0.388,-0.009 0.558,0.010 0.630,0.010 0.583,-0.000" />
<polyline points="0.183,-0.000 0.138,-0.054 0.069,-0.105 -0.022,-0.149 -0.128,-0.183 -0.233,-0.202 -0.317,-0.202 -0.355,-0.183 -0.326,-0.147 -0.223,-0.100 -0.054,-0.051 0.151,-0.009 0.349,0.017 0.498,0.026 0.559,0.018 0.517,-0.000" />
<polyline points="0.250,-0.000 0.186,-0.046 0.090,-0.089 -0.028,-0.123 -0.151,-0.145 -0.262,-0.152 -0.339,-0.142 -0.363,-0.117 -0.320,-0.081 -0.211,-0.039 -0.050,0.000 0.136,0.029 0.311,0.044 0.437,0.041 0.488,0.025 0.450,-0.000" />
<polyline points="0.317,-0.000 0.234,-0.039 0.111,-0.073 -0.033,-0.096 -0.175,-0.106 -0.292,-0.101 -0.361,-0.082 -0.370,-0.051 -0.314,-0.015 -0.200,0.021 -0.046,0.051 0.121,0.068 0.272,0.070 0.377,0.057 0.417,0.032 0.383,-0.000" />
<polyline points="0.383,-0.000 0.282,-0.032 0.132,-0.057 -0.039,-0.070 -0.199,-0.068 -0.321,-0.051 -0.383,-0.021 -0.378,0.015 -0.308,0.051 -0.188,0.082 -0.042,0.101 0.107,0.106 0.233,0.096 0.317,0.073 0.346,0.039 0.317,-0.000" />
<polyline points="0.450,-0.000 0.330,-0.025 0.153,-0.041 -0.044,-0.044 -0.223,-0.029 -0.350,-0.000 -0.405,0.039 -0.385,0.081 -0.302,0.117 -0.177,0.142 -0.037,0.152 0.092,0.145 0.194,0.123 0.256,0.089 0.275,0.046 0.250,-0.000" />
<polyline points="0.517,-0.000 0.378,-0.018 0.174,-0.026 -0.050,-0.017 -0.247,0.009 -0.379,0.051 -0.427,0.100 -0.392,0.147 -0.295,0.183 -0.166,0.202 -0.033,0.202 0.078,0.183 0.155,0.149 0.196,0.105 0.204,0.054 0.183,0.000" />
<polyline points="0.583,-0.000 0.426,-0.010 0.196,-0.010 -0.055,0.009 -0.271,0.048 -0.408,0.101 -0.449,0.160 -0.400,0.213 -0.289,0.249 -0.154,0.263 -0.029,0.253 0.063,0.222 0.116,0.175 0.136,0.120 0.133,0.061 0.117,0.000" />
<polyline points="0.650,-0.000 0.474,-0.003 0.217,0.006 -0.061,0.035 -0.295,0.086 -0.437,0.152 -0.471,0.220 -0.407,0.279 -0.283,0.315 -0.143,0.323 -0.025,0.303 0.049,0.260 0.077,0.202 0.075,0.136 0.062,0.068 0.050,0.000" />
<polyline points="0.717,-0.000 0.523,0.004 0.238,0.022 -0.066,0.062 -0.319,0.124 -0.467,0.202 -0.493,0.281 -0.415,0.344 -0.277,0.381 -0.131,0.384 -0.021,0.354 0.034,0.299 0.038,0.228 0.015,0.152 -0.009,0.075 -0.017,0.000" />
<polyline points="0.783,-0.000 0.571,0.011 0.259,0.038 -0.072,0.088 -0.342,0.163 -0.496,0.253 -0.515,0.341 -0.422,0.410 -0.271,0.447 -0.120,0.444 -0.017,0.404 0.020,0.337 -0.000,0.255 -0.045,0.168 -0.080,0.083 -0.083,0.000" />
<polyline points="0.850,-0.000 0.619,0.019 0.280,0.053 -0.078,0.114 -0.366,0.201 -0.525,0.303 -0.537,0.401 -0.430,0.476 -0.264,0.513 -0.108,0.504 -0.012,0.455 0.005,0.375 -0.039,0.281 -0.106,0.184 -0.152,0.090 -0.150,0.000" />
</g>
</svg>