<svg xmlns="http://www.w3.org/2000/svg" width="317.8" height="100.0" viewBox="-163.90 -55.68 327.79 110.00">
<g fill="none" stroke="black" stroke-width="0.0225%" transform="translate(0, -1.3692) scale(22.1767, -22.1767)">
<polyline points="-2.83,0.69 -3.12,0.08 -3.41,-0.39 -3.70,-0.55 -3.99,-0.37 -4.28,0.07 -4.57,0.54 -4.86,0.82 -5.14,0.76 -5.43,0.36 -5.72,-0.23 -6.01,-0.79 -6.30,-1.10 -6.59,-1.05 -6.88,-0.70 -7.17,-0.21" />
<polyline points="-2.17,0.68 -2.46,0.15 -2.75,-0.28 -3.03,-0.43 -3.32,-0.28 -3.61,0.09 -3.90,0.49 -4.19,0.71 -4.48,0.65 -4.77,0.30 -5.06,-0.23 -5.34,-0.72 -5.63,-1.00 -5.92,-0.97 -6.21,-0.68 -6.50,-0.27" />
<polyline points="-1.50,1.01 -1.79,0.50 -2.08,0.08 -2.37,-0.11 -2.66,-0.03 -2.94,0.22 -3.23,0.50 -3.52,0.63 -3.81,0.52 -4.10,0.16 -4.39,-0.34 -4.68,-0.81 -4.97,-1.10 -5.25,-1.14 -5.54,-0.95 -5.83,-0.66" />
<polyline points="-0.83,1.51 -1.12,1.00 -1.41,0.57 -1.70,0.33 -1.99,0.29 -2.28,0.41 -2.57,0.54 -2.86,0.56 -3.14,0.38 -3.43,-0.00 -3.72,-0.50 -4.01,-0.98 -4.30,-1.32 -4.59,-1.44 -4.88,-1.37 -5.17,-1.23" />
<polyline points="-0.17,1.96 -0.46,1.46 -0.75,1.02 -1.03,0.73 -1.32,0.60 -1.61,0.58 -1.90,0.58 -2.19,0.49 -2.48,0.24 -2.77,-0.16 -3.06,-0.65 -3.34,-1.13 -3.63,-1.50 -3.92,-1.70 -4.21,-1.75 -4.50,-1.74" />
<polyline points="0.50,2.16 0.21,1.70 -0.08,1.28 -0.37,0.97 -0.66,0.78 -0.94,0.67 -1.23,0.57 -1.52,0.40 -1.81,0.12 -2.10,-0.27 -2.39,-0.72 -2.68,-1.16 -2.97,-1.52 -3.25,-1.77 -3.54,-1.91 -3.83,-2.00" />
<polyline points="1.17,2.00 0.88,1.63 0.59,1.29 0.30,1.01 0.01,0.80 -0.28,0.63 -0.57,0.48 -0.86,0.29 -1.14,0.03 -1.43,-0.30 -1.72,-0.67 -2.01,-1.03 -2.30,-1.34 -2.59,-1.58 -2.88,-1.75 -3.17,-1.90" />
<polyline points="1.83,1.54 1.54,1.30 1.25,1.07 0.97,0.86 0.68,0.67 0.39,0.50 0.10,0.33 -0.19,0.15 -0.48,-0.05 -0.77,-0.27 -1.06,-0.51 -1.34,-0.75 -1.63,-0.97 -1.92,-1.16 -2.21,-1.34 -2.50,-1.51" />
<polyline points="2.50,0.96 2.21,0.87 1.92,0.76 1.63,0.64 1.34,0.49 1.06,0.33 0.77,0.17 0.48,0.01 0.19,-0.12 -0.10,-0.23 -0.39,-0.32 -0.68,-0.42 -0.97,-0.53 -1.25,-0.67 -1.54,-0.83 -1.83,-0.99" />
<polyline points="3.17,0.50 2.88,0.54 2.59,0.55 2.30,0.49 2.01,0.37 1.72,0.20 1.43,0.02 1.14,-0.12 0.86,-0.19 0.57,-0.20 0.28,-0.17 -0.01,-0.14 -0.30,-0.16 -0.59,-0.26 -0.88,-0.41 -1.17,-0.60" />
<polyline points="3.83,0.34 3.54,0.47 3.25,0.55 2.97,0.53 2.68,0.39 2.39,0.17 2.10,-0.07 1.81,-0.23 1.52,-0.29 1.23,-0.23 0.94,-0.11 0.66,-0.00 0.37,0.02 0.08,-0.07 -0.21,-0.26 -0.50,-0.50" />
<polyline points="4.50,0.54 4.21,0.71 3.92,0.81 3.63,0.77 3.34,0.57 3.06,0.25 2.77,-0.08 2.48,-0.32 2.19,-0.41 1.90,-0.34 1.61,-0.18 1.32,-0.03 1.03,-0.00 0.75,-0.14 0.46,-0.42 0.17,-0.76" />
<polyline points="5.17,0.99 4.88,1.17 4.59,1.26 4.30,1.17 4.01,0.87 3.72,0.43 3.43,-0.04 3.14,-0.40 2.86,-0.55 2.57,-0.50 2.28,-0.33 1.99,-0.18 1.70,-0.18 1.41,-0.40 1.12,-0.80 0.83,-1.27" />
<polyline points="5.83,1.49 5.54,1.67 5.25,1.75 4.97,1.61 4.68,1.20 4.39,0.61 4.10,0.00 3.81,-0.47 3.52,-0.69 3.23,-0.66 2.94,-0.50 2.66,-0.36 2.37,-0.40 2.08,-0.69 1.79,-1.22 1.50,-1.84" />
<polyline points="6.50,1.82 6.21,2.02 5.92,2.11 5.63,1.93 5.34,1.44 5.06,0.74 4.77,0.01 4.48,-0.55 4.19,-0.82 3.90,-0.80 3.61,-0.61 3.32,-0.45 3.03,-0.50 2.75,-0.86 2.46,-1.49 2.17,-2.23" />
<polyline points="7.17,1.81 6.88,2.08 6.59,2.22 6.30,2.05 6.01,1.53 5.72,0.76 5.43,-0.04 5.14,-0.65 4.86,-0.92 4.57,-0.86 4.28,-0.60 3.99,-0.38 3.70,-0.40 3.41,-0.78 3.12,-1.47 2.83,-2.29" />
<polyline points="-2.83,0.69 -2.17,0.68 -1.50,1.01 -0.83,1.51 -0.17,1.96 0.50,2.16 1.17,2.00 1.83,1.54 2.50,0.96 3.17,0.50 3.83,0.34 4.50,0.54 5.17,0.99 5.83,1.49 6.50,1.82 7.17,1.81" />
<polyline points="-3.12,0.08 -2.46,0.15 -1.79,0.50 -1.12,1.00 -0.46,1.46 0.21,1.70 0.88,1.63 1.54,1.30 2.21,0.87 2.88,0.54 3.54,0.47 4.21,0.71 4.88,1.17 5.54,1.67 6.21,2.02 6.88,2.08" />
<polyline points="-3.41,-0.39 -2.75,-0.28 -2.08,0.08 -1.41,0.57 -0.75,1.02 -0.08,1.28 0.59,1.29 1.25,1.07 1.92,0.76 2.59,0.55 3.25,0.55 3.92,0.81 4.59,1.26 5.25,1.75 5.92,2.11 6.59,2.22" />
<polyline points="-3.70,-0.55 -3.03,-0.43 -2.37,-0.11 -1.70,0.33 -1.03,0.73 -0.37,0.97 0.30,1.01 0.97,0.86 1.63,0.64 2.30,0.49 2.97,0.53 3.63,0.77 4.30,1.17 4.97,1.61 5.63,1.93 6.30,2.05" />
<polyline points="-3.99,-0.37 -3.32,-0.28 -2.66,-0.03 -1.99,0.29 -1.32,0.60 -0.66,0.78 0.01,0.80 0.68,0.67 1.34,0.49 2.01,0.37 2.68,0.39 3.34,0.57 4.01,0.87 4.68,1.20 5.34,1.44 6.01,1.53" />
<polyline points="-4.28,0.07 -3.61,0.09 -2.94,0.22 -2.28,0.41 -1.61,0.58 -0.94,0.67 -0.28,0.63 0.39,0.50 1.06,0.33 1.72,0.20 2.39,0.17 3.06,0.25 3.72,0.43 4.39,0.61 5.06,0.74 5.72,0.76" />
<polyline points="-4.57,0.54 -3.90,0.49 -3.23,0.50 -2.57,0.54 -1.90,0.58 -1.23,0.57 -0.57,0.48 0.10,0.33 0.77,0.17 1.43,0.02 2.10,-0.07 2.77,-0.08 3.43,-0.04 4.10,0.00 4.77,0.01 5.43,-0.04" />
<polyline points="-4.86,0.82 -4.19,0.71 -3.52,0.63 -2.86,0.56 -2.19,0.49 -1.52,0.40 -0.86,0.29 -0.19,0.15 0.48,0.01 1.14,-0.12 1.81,-0.23 2.48,-0.32 3.14,-0.40 3.81,-0.47 4.48,-0.55 5.14,-0.65" />
<polyline points="-5.14,0.76 -4.48,0.65 -3.81,0.52 -3.14,0.38 -2.48,0.24 -1.81,0.12 -1.14,0.03 -0.48,-0.05 0.19,-0.12 0.86,-0.19 1.52,-0.29 2.19,-0.41 2.86,-0.55 3.52,-0.69 4.19,-0.82 4.86,-0.92" />
<polyline points="-5.43,0.36 -4.77,0.30 -4.10,0.16 -3.43,-0.00 -2.77,-0.16 -2.10,-0.27 -1.43,-0.30 -0.77,-0.27 -0.10,-0.23 0.57,-0.20 1.23,-0.23 1.90,-0.34 2.57,-0.50 3.23,-0.66 3.90,-0.80 4.57,-0.86" />
<polyline points="-5.72,-0.23 -5.06,-0.23 -4.39,-0.34 -3.72,-0.50 -3.06,-0.65 -2.39,-0.72 -1.72,-0.67 -1.06,-0.51 -0.39,-0.32 0.28,-0.17 0.94,-0.11 1.61,-0.18 2.28,-0.33 2.94,-0.50 3.61,-0.61 4.28,-0.60" />
<polyline points="-6.01,-0.79 -5.34,-0.72 -4.68,-0.81 -4.01,-0.98 -3.34,-1.13 -2.68,-1.16 -2.01,-1.03 -1.34,-0.75 -0.68,-0.42 -0.01,-0.14 0.66,-0.00 1.32,-0.03 1.99,-0.18 2.66,-0.36 3.32,-0.45 3.99,-0.38" />
<polyline points="-6.30,-1.10 -5.63,-1.00 -4.97,-1.10 -4.30,-1.32 -3.63,-1.50 -2.97,-1.52 -2.30,-1.34 -1.63,-0.97 -0.97,-0.53 -0.30,-0.16 0.37,0.02 1.03,-0.00 1.70,-0.18 2.37,-0.40 3.03,-0.50 3.70,-0.40" />
<polyline points="-6.59,-1.05 -5.92,-0.97 -5.25,-1.14 -4.59,-1.44 -3.92,-1.70 -3.25,-1.77 -2.59,-1.58 -1.92,-1.16 -1.25,-0.67 -0.59,-0.26 0.08,-0.07 0.75,-0.14 1.41,-0.40 2.08,-0.69 2.75,-0.86 3.41,-0.78" />
<polyline points="-6.88,-0.70 -6.21,-0.68 -5.54,-0.95 -4.88,-1.37 -4.21,-1.75 -3.54,-1.91 -2.88,-1.75 -2.21,-1.34 -1.54,-0.83 -0.88,-0.41 -0.21,-0.26 0.46,-0.42 1.12,-0.80 1.79,-1.22 2.46,-1.49 3.12,-1.47" />
<polyline points="-7.17,-0.21 -6.50,-0.27 -5.83,-0.66 -5.17,-1.23 -4.50,-1.74 -3.83,-2.00 -3.17,-1.90 -2.50,-1.51 -1.83,-0.99 -1.17,-0.60 -0.50,-0.50 0.17,-0.76 0.83,-1.27 1.50,-1.84 2.17,-2.23 2.83,-2.29" />
</g>
</svg>