<svg xmlns="http://www.w3.org/2000/svg" width="70.1" height="100.0" viewBox="-40.04 -57.24 80.08 110.00">
<g fill="none" stroke="black" stroke-width="0.0818%" transform="translate(0, -4.4742) scale(6.1132, -6.1132)">
<polyline points="-2.27,1.41 -2.50,0.10 -2.73,-0.15 -2.96,0.68 -3.19,2.33 -3.42,4.30 -3.65,6.01 -3.88,6.95 -4.12,6.82 -4.35,5.61 -4.58,3.63 -4.81,1.39 -5.04,-0.52 -5.27,-1.62 -5.50,-1.63 -5.73,-0.59" />
<polyline points="-1.73,-0.34 -1.97,-1.65 -2.20,-1.90 -2.43,-1.07 -2.66,0.58 -2.89,2.55 -3.12,4.26 -3.35,5.20 -3.58,5.07 -3.81,3.86 -4.04,1.89 -4.27,-0.36 -4.51,-2.27 -4.74,-3.37 -4.97,-3.38 -5.20,-2.34" />
<polyline points="-1.20,-2.44 -1.43,-3.75 -1.66,-4.01 -1.89,-3.18 -2.13,-1.53 -2.36,0.45 -2.59,2.16 -2.82,3.10 -3.05,2.96 -3.28,1.76 -3.51,-0.22 -3.74,-2.46 -3.97,-4.38 -4.20,-5.47 -4.43,-5.48 -4.67,-4.44" />
<polyline points="-0.67,-4.32 -0.90,-5.63 -1.13,-5.88 -1.36,-5.05 -1.59,-3.40 -1.82,-1.43 -2.05,0.28 -2.28,1.22 -2.52,1.09 -2.75,-0.12 -2.98,-2.09 -3.21,-4.33 -3.44,-6.25 -3.67,-7.35 -3.90,-7.36 -4.13,-6.32" />
<polyline points="-0.13,-5.44 -0.37,-6.75 -0.60,-7.01 -0.83,-6.18 -1.06,-4.53 -1.29,-2.55 -1.52,-0.84 -1.75,0.10 -1.98,-0.03 -2.21,-1.24 -2.44,-3.22 -2.67,-5.46 -2.91,-7.38 -3.14,-8.47 -3.37,-8.48 -3.60,-7.44" />
<polyline points="0.40,-5.50 0.17,-6.81 -0.06,-7.07 -0.29,-6.24 -0.53,-4.59 -0.76,-2.61 -0.99,-0.90 -1.22,0.04 -1.45,-0.10 -1.68,-1.30 -1.91,-3.28 -2.14,-5.52 -2.37,-7.44 -2.60,-8.53 -2.83,-8.54 -3.07,-7.50" />
<polyline points="0.93,-4.48 0.70,-5.79 0.47,-6.05 0.24,-5.22 0.01,-3.57 -0.22,-1.60 -0.45,0.12 -0.68,1.06 -0.92,0.92 -1.15,-0.28 -1.38,-2.26 -1.61,-4.50 -1.84,-6.42 -2.07,-7.52 -2.30,-7.53 -2.53,-6.48" />
<polyline points="1.47,-2.67 1.23,-3.98 1.00,-4.23 0.77,-3.40 0.54,-1.75 0.31,0.22 0.08,1.93 -0.15,2.87 -0.38,2.74 -0.61,1.53 -0.84,-0.45 -1.07,-2.69 -1.31,-4.60 -1.54,-5.70 -1.77,-5.71 -2.00,-4.67" />
<polyline points="2.00,-0.56 1.77,-1.87 1.54,-2.13 1.31,-1.30 1.07,0.35 0.84,2.33 0.61,4.04 0.38,4.98 0.15,4.85 -0.08,3.64 -0.31,1.66 -0.54,-0.58 -0.77,-2.50 -1.00,-3.59 -1.23,-3.60 -1.47,-2.56" />
<polyline points="2.53,1.25 2.30,-0.05 2.07,-0.31 1.84,0.52 1.61,2.17 1.38,4.14 1.15,5.86 0.92,6.79 0.68,6.66 0.45,5.46 0.22,3.48 -0.01,1.24 -0.24,-0.68 -0.47,-1.78 -0.70,-1.79 -0.93,-0.75" />
<polyline points="3.07,2.27 2.83,0.96 2.60,0.71 2.37,1.54 2.14,3.19 1.91,5.16 1.68,6.87 1.45,7.81 1.22,7.68 0.99,6.47 0.76,4.50 0.53,2.25 0.29,0.34 0.06,-0.76 -0.17,-0.77 -0.40,0.27" />
<polyline points="3.60,2.21 3.37,0.90 3.14,0.65 2.91,1.48 2.67,3.13 2.44,5.10 2.21,6.81 1.98,7.75 1.75,7.62 1.52,6.41 1.29,4.43 1.06,2.19 0.83,0.28 0.60,-0.82 0.37,-0.83 0.13,0.21" />
<polyline points="4.13,1.09 3.90,-0.22 3.67,-0.48 3.44,0.35 3.21,2.00 2.98,3.98 2.75,5.69 2.52,6.63 2.28,6.49 2.05,5.29 1.82,3.31 1.59,1.07 1.36,-0.85 1.13,-1.95 0.90,-1.96 0.67,-0.91" />
<polyline points="4.67,-0.79 4.43,-2.10 4.20,-2.35 3.97,-1.52 3.74,0.13 3.51,2.10 3.28,3.81 3.05,4.75 2.82,4.62 2.59,3.41 2.36,1.43 2.13,-0.81 1.89,-2.72 1.66,-3.82 1.43,-3.83 1.20,-2.79" />
<polyline points="5.20,-2.89 4.97,-4.20 4.74,-4.46 4.51,-3.63 4.27,-1.98 4.04,-0.00 3.81,1.71 3.58,2.65 3.35,2.51 3.12,1.31 2.89,-0.67 2.66,-2.91 2.43,-4.83 2.20,-5.92 1.97,-5.93 1.73,-4.89" />
<polyline points="5.73,-4.64 5.50,-5.95 5.27,-6.21 5.04,-5.38 4.81,-3.73 4.58,-1.75 4.35,-0.04 4.12,0.90 3.88,0.76 3.65,-0.44 3.42,-2.42 3.19,-4.66 2.96,-6.58 2.73,-7.67 2.50,-7.68 2.27,-6.64" />
<polyline points="-2.27,1.41 -1.73,-0.34 -1.20,-2.44 -0.67,-4.32 -0.13,-5.44 0.40,-5.50 0.93,-4.48 1.47,-2.67 2.00,-0.56 2.53,1.25 3.07,2.27 3.60,2.21 4.13,1.09 4.67,-0.79 5.20,-2.89 5.73,-4.64" />
<polyline points="-2.50,0.10 -1.97,-1.65 -1.43,-3.75 -0.90,-5.63 -0.37,-6.75 0.17,-6.81 0.70,-5.79 1.23,-3.98 1.77,-1.87 2.30,-0.05 2.83,0.96 3.37,0.90 3.90,-0.22 4.43,-2.10 4.97,-4.20 5.50,-5.95" />
<polyline points="-2.73,-0.15 -2.20,-1.90 -1.66,-4.01 -1.13,-5.88 -0.60,-7.01 -0.06,-7.07 0.47,-6.05 1.00,-4.23 1.54,-2.13 2.07,-0.31 2.60,0.71 3.14,0.65 3.67,-0.48 4.20,-2.35 4.74,-4.46 5.27,-6.21" />
<polyline points="-2.96,0.68 -2.43,-1.07 -1.89,-3.18 -1.36,-5.05 -0.83,-6.18 -0.29,-6.24 0.24,-5.22 0.77,-3.40 1.31,-1.30 1.84,0.52 2.37,1.54 2.91,1.48 3.44,0.35 3.97,-1.52 4.51,-3.63 5.04,-5.38" />
<polyline points="-3.19,2.33 -2.66,0.58 -2.13,-1.53 -1.59,-3.40 -1.06,-4.53 -0.53,-4.59 0.01,-3.57 0.54,-1.75 1.07,0.35 1.61,2.17 2.14,3.19 2.67,3.13 3.21,2.00 3.74,0.13 4.27,-1.98 4.81,-3.73" />
<polyline points="-3.42,4.30 -2.89,2.55 -2.36,0.45 -1.82,-1.43 -1.29,-2.55 -0.76,-2.61 -0.22,-1.60 0.31,0.22 0.84,2.33 1.38,4.14 1.91,5.16 2.44,5.10 2.98,3.98 3.51,2.10 4.04,-0.00 4.58,-1.75" />
<polyline points="-3.65,6.01 -3.12,4.26 -2.59,2.16 -2.05,0.28 -1.52,-0.84 -0.99,-0.90 -0.45,0.12 0.08,1.93 0.61,4.04 1.15,5.86 1.68,6.87 2.21,6.81 2.75,5.69 3.28,3.81 3.81,1.71 4.35,-0.04" />
<polyline points="-3.88,6.95 -3.35,5.20 -2.82,3.10 -2.28,1.22 -1.75,0.10 -1.22,0.04 -0.68,1.06 -0.15,2.87 0.38,4.98 0.92,6.79 1.45,7.81 1.98,7.75 2.52,6.63 3.05,4.75 3.58,2.65 4.12,0.90" />
<polyline points="-4.12,6.82 -3.58,5.07 -3.05,2.96 -2.52,1.09 -1.98,-0.03 -1.45,-0.10 -0.92,0.92 -0.38,2.74 0.15,4.85 0.68,6.66 1.22,7.68 1.75,7.62 2.28,6.49 2.82,4.62 3.35,2.51 3.88,0.76" />
<polyline points="-4.35,5.61 -3.81,3.86 -3.28,1.76 -2.75,-0.12 -2.21,-1.24 -1.68,-1.30 -1.15,-0.28 -0.61,1.53 -0.08,3.64 0.45,5.46 0.99,6.47 1.52,6.41 2.05,5.29 2.59,3.41 3.12,1.31 3.65,-0.44" />
<polyline points="-4.58,3.63 -4.04,1.89 -3.51,-0.22 -2.98,-2.09 -2.44,-3.22 -1.91,-3.28 -1.38,-2.26 -0.84,-0.45 -0.31,1.66 0.22,3.48 0.76,4.50 1.29,4.43 1.82,3.31 2.36,1.43 2.89,-0.67 3.42,-2.42" />
<polyline points="-4.81,1.39 -4.27,-0.36 -3.74,-2.46 -3.21,-4.33 -2.67,-5.46 -2.14,-5.52 -1.61,-4.50 -1.07,-2.69 -0.54,-0.58 -0.01,1.24 0.53,2.25 1.06,2.19 1.59,1.07 2.13,-0.81 2.66,-2.91 3.19,-4.66" />
<polyline points="-5.04,-0.52 -4.51,-2.27 -3.97,-4.38 -3.44,-6.25 -2.91,-7.38 -2.37,-7.44 -1.84,-6.42 -1.31,-4.60 -0.77,-2.50 -0.24,-0.68 0.29,0.34 0.83,0.28 1.36,-0.85 1.89,-2.72 2.43,-4.83 2.96,-6.58" />
<polyline points="-5.27,-1.62 -4.74,-3.37 -4.20,-5.47 -3.67,-7.35 -3.14,-8.47 -2.60,-8.53 -2.07,-7.52 -1.54,-5.70 -1.00,-3.59 -0.47,-1.78 0.06,-0.76 0.60,-0.82 1.13,-1.95 1.66,-3.82 2.20,-5.92 2.73,-7.67" />
<polyline points="-5.50,-1.63 -4.97,-3.38 -4.43,-5.48 -3.90,-7.36 -3.37,-8.48 -2.83,-8.54 -2.30,-7.53 -1.77,-5.71 -1.23,-3.60 -0.70,-1.79 -0.17,-0.77 0.37,-0.83 0.90,-1.96 1.43,-3.83 1.97,-5.93 2.50,-7.68" />
<polyline points="-5.73,-0.59 -5.20,-2.34 -4.67,-4.44 -4.13,-6.32 -3.60,-7.44 -3.07,-7.50 -2.53,-6.48 -2.00,-4.67 -1.47,-2.56 -0.93,-0.75 -0.40,0.27 0.13,0.21 0.67,-0.91 1.20,-2.79 1.73,-4.89 2.27,-6.64" />
</g>
</svg>