<svg xmlns="http://www.w3.org/2000/svg" width="97.2" height="100.0" viewBox="-53.59 -27.94 107.18 110.00">
<g fill="none" stroke="black" stroke-width="0.1032%" transform="translate(0, 54.1290) scale(4.8440, -4.8440)">
<polyline points="-3.97,0.97 -4.37,1.81 -4.78,2.61 -5.18,3.03 -5.59,3.00 -5.99,2.63 -6.39,2.15 -6.80,1.74 -7.20,1.50 -7.61,1.45 -8.01,1.47 -8.41,1.37 -8.82,0.93 -9.22,0.04 -9.63,-1.22 -10.03,-2.53" />
<polyline points="-3.04,2.05 -3.44,3.00 -3.84,3.41 -4.25,3.10 -4.65,2.22 -5.06,1.15 -5.46,0.19 -5.86,-0.43 -6.27,-0.67 -6.67,-0.51 -7.08,-0.02 -7.48,0.59 -7.89,1.00 -8.29,0.85 -8.69,-0.03 -9.10,-1.45" />
<polyline points="-2.10,3.08 -2.51,3.65 -2.91,3.22 -3.31,1.93 -3.72,0.27 -4.12,-1.23 -4.53,-2.27 -4.93,-2.86 -5.34,-3.10 -5.74,-2.97 -6.14,-2.39 -6.55,-1.37 -6.95,-0.17 -7.36,0.66 -7.76,0.61 -8.16,-0.42" />
<polyline points="-1.17,3.73 -1.57,3.57 -1.98,2.16 -2.38,0.09 -2.79,-1.80 -3.19,-2.94 -3.59,-3.33 -4.00,-3.44 -4.40,-3.67 -4.81,-4.03 -5.21,-4.11 -5.61,-3.44 -6.02,-2.01 -6.42,-0.41 -6.83,0.53 -7.23,0.23" />
<polyline points="-0.24,3.93 -0.64,2.92 -1.04,0.73 -1.45,-1.57 -1.85,-2.85 -2.26,-2.66 -2.66,-1.57 -3.06,-0.70 -3.47,-0.93 -3.87,-2.27 -4.28,-3.83 -4.68,-4.48 -5.09,-3.67 -5.49,-1.83 -5.89,-0.11 -6.30,0.43" />
<polyline points="0.70,3.80 0.29,2.08 -0.11,-0.53 -0.51,-2.47 -0.92,-2.43 -1.32,-0.23 -1.73,2.90 -2.13,5.05 -2.54,4.82 -2.94,2.20 -3.34,-1.40 -3.75,-4.06 -4.15,-4.57 -4.56,-3.09 -4.96,-0.95 -5.36,0.30" />
<polyline points="1.63,3.55 1.23,1.36 0.82,-1.34 0.42,-2.63 0.01,-1.10 -0.39,3.13 -0.79,8.23 -1.20,11.58 -1.60,11.35 -2.01,7.53 -2.41,1.97 -2.81,-2.73 -3.22,-4.73 -3.62,-3.90 -4.03,-1.67 -4.43,0.05" />
<polyline points="2.56,3.37 2.16,0.97 1.76,-1.70 1.35,-2.51 0.95,0.00 0.54,5.52 0.14,11.82 -0.26,15.91 -0.67,15.68 -1.07,11.12 -1.48,4.35 -1.88,-1.63 -2.29,-4.61 -2.69,-4.26 -3.09,-2.07 -3.50,-0.13" />
<polyline points="3.50,3.37 3.09,0.97 2.69,-1.70 2.29,-2.51 1.88,0.00 1.48,5.52 1.07,11.82 0.67,15.91 0.26,15.68 -0.14,11.12 -0.54,4.35 -0.95,-1.63 -1.35,-4.61 -1.76,-4.26 -2.16,-2.07 -2.56,-0.13" />
<polyline points="4.43,3.55 4.03,1.36 3.62,-1.34 3.22,-2.63 2.81,-1.10 2.41,3.13 2.01,8.23 1.60,11.58 1.20,11.35 0.79,7.53 0.39,1.97 -0.01,-2.73 -0.42,-4.73 -0.82,-3.90 -1.23,-1.67 -1.63,0.05" />
<polyline points="5.36,3.80 4.96,2.08 4.56,-0.53 4.15,-2.47 3.75,-2.43 3.34,-0.23 2.94,2.90 2.54,5.05 2.13,4.82 1.73,2.20 1.32,-1.40 0.92,-4.06 0.51,-4.57 0.11,-3.09 -0.29,-0.95 -0.70,0.30" />
<polyline points="6.30,3.93 5.89,2.92 5.49,0.73 5.09,-1.57 4.68,-2.85 4.28,-2.66 3.87,-1.57 3.47,-0.70 3.06,-0.93 2.66,-2.27 2.26,-3.83 1.85,-4.48 1.45,-3.67 1.04,-1.83 0.64,-0.11 0.24,0.43" />
<polyline points="7.23,3.73 6.83,3.57 6.42,2.16 6.02,0.09 5.61,-1.80 5.21,-2.94 4.81,-3.33 4.40,-3.44 4.00,-3.67 3.59,-4.03 3.19,-4.11 2.79,-3.44 2.38,-2.01 1.98,-0.41 1.57,0.53 1.17,0.23" />
<polyline points="8.16,3.08 7.76,3.65 7.36,3.22 6.95,1.93 6.55,0.27 6.14,-1.23 5.74,-2.27 5.34,-2.86 4.93,-3.10 4.53,-2.97 4.12,-2.39 3.72,-1.37 3.31,-0.17 2.91,0.66 2.51,0.61 2.10,-0.42" />
<polyline points="9.10,2.05 8.69,3.00 8.29,3.41 7.89,3.10 7.48,2.22 7.08,1.15 6.67,0.19 6.27,-0.43 5.86,-0.67 5.46,-0.51 5.06,-0.02 4.65,0.59 4.25,1.00 3.84,0.85 3.44,-0.03 3.04,-1.45" />
<polyline points="10.03,0.97 9.63,1.81 9.22,2.61 8.82,3.03 8.41,3.00 8.01,2.63 7.61,2.15 7.20,1.74 6.80,1.50 6.39,1.45 5.99,1.47 5.59,1.37 5.18,0.93 4.78,0.04 4.37,-1.22 3.97,-2.53" />
<polyline points="-3.97,0.97 -3.04,2.05 -2.10,3.08 -1.17,3.73 -0.24,3.93 0.70,3.80 1.63,3.55 2.56,3.37 3.50,3.37 4.43,3.55 5.36,3.80 6.30,3.93 7.23,3.73 8.16,3.08 9.10,2.05 10.03,0.97" />
<polyline points="-4.37,1.81 -3.44,3.00 -2.51,3.65 -1.57,3.57 -0.64,2.92 0.29,2.08 1.23,1.36 2.16,0.97 3.09,0.97 4.03,1.36 4.96,2.08 5.89,2.92 6.83,3.57 7.76,3.65 8.69,3.00 9.63,1.81" />
<polyline points="-4.78,2.61 -3.84,3.41 -2.91,3.22 -1.98,2.16 -1.04,0.73 -0.11,-0.53 0.82,-1.34 1.76,-1.70 2.69,-1.70 3.62,-1.34 4.56,-0.53 5.49,0.73 6.42,2.16 7.36,3.22 8.29,3.41 9.22,2.61" />
<polyline points="-5.18,3.03 -4.25,3.10 -3.31,1.93 -2.38,0.09 -1.45,-1.57 -0.51,-2.47 0.42,-2.63 1.35,-2.51 2.29,-2.51 3.22,-2.63 4.15,-2.47 5.09,-1.57 6.02,0.09 6.95,1.93 7.89,3.10 8.82,3.03" />
<polyline points="-5.59,3.00 -4.65,2.22 -3.72,0.27 -2.79,-1.80 -1.85,-2.85 -0.92,-2.43 0.01,-1.10 0.95,0.00 1.88,0.00 2.81,-1.10 3.75,-2.43 4.68,-2.85 5.61,-1.80 6.55,0.27 7.48,2.22 8.41,3.00" />
<polyline points="-5.99,2.63 -5.06,1.15 -4.12,-1.23 -3.19,-2.94 -2.26,-2.66 -1.32,-0.23 -0.39,3.13 0.54,5.52 1.48,5.52 2.41,3.13 3.34,-0.23 4.28,-2.66 5.21,-2.94 6.14,-1.23 7.08,1.15 8.01,2.63" />
<polyline points="-6.39,2.15 -5.46,0.19 -4.53,-2.27 -3.59,-3.33 -2.66,-1.57 -1.73,2.90 -0.79,8.23 0.14,11.82 1.07,11.82 2.01,8.23 2.94,2.90 3.87,-1.57 4.81,-3.33 5.74,-2.27 6.67,0.19 7.61,2.15" />
<polyline points="-6.80,1.74 -5.86,-0.43 -4.93,-2.86 -4.00,-3.44 -3.06,-0.70 -2.13,5.05 -1.20,11.58 -0.26,15.91 0.67,15.91 1.60,11.58 2.54,5.05 3.47,-0.70 4.40,-3.44 5.34,-2.86 6.27,-0.43 7.20,1.74" />
<polyline points="-7.20,1.50 -6.27,-0.67 -5.34,-3.10 -4.40,-3.67 -3.47,-0.93 -2.54,4.82 -1.60,11.35 -0.67,15.68 0.26,15.68 1.20,11.35 2.13,4.82 3.06,-0.93 4.00,-3.67 4.93,-3.10 5.86,-0.67 6.80,1.50" />
<polyline points="-7.61,1.45 -6.67,-0.51 -5.74,-2.97 -4.81,-4.03 -3.87,-2.27 -2.94,2.20 -2.01,7.53 -1.07,11.12 -0.14,11.12 0.79,7.53 1.73,2.20 2.66,-2.27 3.59,-4.03 4.53,-2.97 5.46,-0.51 6.39,1.45" />
<polyline points="-8.01,1.47 -7.08,-0.02 -6.14,-2.39 -5.21,-4.11 -4.28,-3.83 -3.34,-1.40 -2.41,1.97 -1.48,4.35 -0.54,4.35 0.39,1.97 1.32,-1.40 2.26,-3.83 3.19,-4.11 4.12,-2.39 5.06,-0.02 5.99,1.47" />
<polyline points="-8.41,1.37 -7.48,0.59 -6.55,-1.37 -5.61,-3.44 -4.68,-4.48 -3.75,-4.06 -2.81,-2.73 -1.88,-1.63 -0.95,-1.63 -0.01,-2.73 0.92,-4.06 1.85,-4.48 2.79,-3.44 3.72,-1.37 4.65,0.59 5.59,1.37" />
<polyline points="-8.82,0.93 -7.89,1.00 -6.95,-0.17 -6.02,-2.01 -5.09,-3.67 -4.15,-4.57 -3.22,-4.73 -2.29,-4.61 -1.35,-4.61 -0.42,-4.73 0.51,-4.57 1.45,-3.67 2.38,-2.01 3.31,-0.17 4.25,1.00 5.18,0.93" />
<polyline points="-9.22,0.04 -8.29,0.85 -7.36,0.66 -6.42,-0.41 -5.49,-1.83 -4.56,-3.09 -3.62,-3.90 -2.69,-4.26 -1.76,-4.26 -0.82,-3.90 0.11,-3.09 1.04,-1.83 1.98,-0.41 2.91,0.66 3.84,0.85 4.78,0.04" />
<polyline points="-9.63,-1.22 -8.69,-0.03 -7.76,0.61 -6.83,0.53 -5.89,-0.11 -4.96,-0.95 -4.03,-1.67 -3.09,-2.07 -2.16,-2.07 -1.23,-1.67 -0.29,-0.95 0.64,-0.11 1.57,0.53 2.51,0.61 3.44,-0.03 4.37,-1.22" />
<polyline points="-10.03,-2.53 -9.10,-1.45 -8.16,-0.42 -7.23,0.23 -6.30,0.43 -5.36,0.30 -4.43,0.05 -3.50,-0.13 -2.56,-0.13 -1.63,0.05 -0.70,0.30 0.24,0.43 1.17,0.23 2.10,-0.42 3.04,-1.45 3.97,-2.53" />
</g>
</svg>