<svg xmlns="http://www.w3.org/2000/svg" width="150" height="100" viewBox="0 0 150 100">
<rect x="0" y="0" width="10" height="10" fill="rgb(0,0,0)"/>
<rect x="0" y="10" width="10" height="10" fill="rgb(199,21,133)"/>
<rect x="0" y="20" width="10" height="10" fill="rgb(0,128,128)"/>
<rect x="0" y="30" width="10" height="10" fill="rgb(112,128,144)"/>
<rect x="0" y="40" width="10" height="10" fill="rgb(95,158,160)"/>
<rect x="0" y="50" width="10" height="10" fill="rgb(169,169,169)"/>
<rect x="0" y="60" width="10" height="10" fill="rgb(0,250,154)"/>
<rect x="0" y="70" width="10" height="10" fill="rgb(211,211,211)"/>
<rect x="0" y="80" width="10" height="10" fill="rgb(255,228,196)"/>
<rect x="0" y="90" width="10" height="10" fill="rgb(255,248,220)"/>
<rect x="10" y="0" width="10" height="10" fill="rgb(0,0,128)"/>
<rect x="10" y="10" width="10" height="10" fill="rgb(165,42,42)"/>
<rect x="10" y="20" width="10" height="10" fill="rgb(106,90,205)"/>
<rect x="10" y="30" width="10" height="10" fill="rgb(112,128,144)"/>
<rect x="10" y="40" width="10" height="10" fill="rgb(100,149,237)"/>
<rect x="10" y="50" width="10" height="10" fill="rgb(169,169,169)"/>
<rect x="10" y="60" width="10" height="10" fill="rgb(0,255,127)"/>
<rect x="10" y="70" width="10" height="10" fill="rgb(211,211,211)"/>
<rect x="10" y="80" width="10" height="10" fill="rgb(230,230,250)"/>
<rect x="10" y="90" width="10" height="10" fill="rgb(255,250,205)"/>
<rect x="20" y="0" width="10" height="10" fill="rgb(0,0,139)"/>
<rect x="20" y="10" width="10" height="10" fill="rgb(72,61,139)"/>
<rect x="20" y="20" width="10" height="10" fill="rgb(255,69,0)"/>
<rect x="20" y="30" width="10" height="10" fill="rgb(107,142,35)"/>
<rect x="20" y="40" width="10" height="10" fill="rgb(32,178,170)"/>
<rect x="20" y="50" width="10" height="10" fill="rgb(255,165,0)"/>
<rect x="20" y="60" width="10" height="10" fill="rgb(192,192,192)"/>
<rect x="20" y="70" width="10" height="10" fill="rgb(144,238,144)"/>
<rect x="20" y="80" width="10" height="10" fill="rgb(255,228,225)"/>
<rect x="20" y="90" width="10" height="10" fill="rgb(224,255,255)"/>
<rect x="30" y="0" width="10" height="10" fill="rgb(0,0,205)"/>
<rect x="30" y="10" width="10" height="10" fill="rgb(0,100,0)"/>
<rect x="30" y="20" width="10" height="10" fill="rgb(105,105,105)"/>
<rect x="30" y="30" width="10" height="10" fill="rgb(147,112,219)"/>
<rect x="30" y="40" width="10" height="10" fill="rgb(60,179,113)"/>
<rect x="30" y="50" width="10" height="10" fill="rgb(143,188,143)"/>
<rect x="30" y="60" width="10" height="10" fill="rgb(135,206,235)"/>
<rect x="30" y="70" width="10" height="10" fill="rgb(176,224,230)"/>
<rect x="30" y="80" width="10" height="10" fill="rgb(255,255,0)"/>
<rect x="30" y="90" width="10" height="10" fill="rgb(248,248,255)"/>
<rect x="40" y="0" width="10" height="10" fill="rgb(0,0,255)"/>
<rect x="40" y="10" width="10" height="10" fill="rgb(47,79,79)"/>
<rect x="40" y="20" width="10" height="10" fill="rgb(105,105,105)"/>
<rect x="40" y="30" width="10" height="10" fill="rgb(30,144,255)"/>
<rect x="40" y="40" width="10" height="10" fill="rgb(255,127,80)"/>
<rect x="40" y="50" width="10" height="10" fill="rgb(244,164,96)"/>
<rect x="40" y="60" width="10" height="10" fill="rgb(176,196,222)"/>
<rect x="40" y="70" width="10" height="10" fill="rgb(220,220,220)"/>
<rect x="40" y="80" width="10" height="10" fill="rgb(250,235,215)"/>
<rect x="40" y="90" width="10" height="10" fill="rgb(255,250,240)"/>
<rect x="50" y="0" width="10" height="10" fill="rgb(75,0,130)"/>
<rect x="50" y="10" width="10" height="10" fill="rgb(47,79,79)"/>
<rect x="50" y="20" width="10" height="10" fill="rgb(65,105,225)"/>
<rect x="50" y="30" width="10" height="10" fill="rgb(128,128,128)"/>
<rect x="50" y="40" width="10" height="10" fill="rgb(240,128,128)"/>
<rect x="50" y="50" width="10" height="10" fill="rgb(221,160,221)"/>
<rect x="50" y="60" width="10" height="10" fill="rgb(135,206,250)"/>
<rect x="50" y="70" width="10" height="10" fill="rgb(173,255,47)"/>
<rect x="50" y="80" width="10" height="10" fill="rgb(255,235,205)"/>
<rect x="50" y="90" width="10" height="10" fill="rgb(240,255,240)"/>
<rect x="60" y="0" width="10" height="10" fill="rgb(128,0,0)"/>
<rect x="60" y="10" width="10" height="10" fill="rgb(255,0,255)"/>
<rect x="60" y="20" width="10" height="10" fill="rgb(34,139,34)"/>
<rect x="60" y="30" width="10" height="10" fill="rgb(128,128,128)"/>
<rect x="60" y="40" width="10" height="10" fill="rgb(188,143,143)"/>
<rect x="60" y="50" width="10" height="10" fill="rgb(255,160,122)"/>
<rect x="60" y="60" width="10" height="10" fill="rgb(216,191,216)"/>
<rect x="60" y="70" width="10" height="10" fill="rgb(152,251,152)"/>
<rect x="60" y="80" width="10" height="10" fill="rgb(255,239,213)"/>
<rect x="60" y="90" width="10" height="10" fill="rgb(255,250,250)"/>
<rect x="70" y="0" width="10" height="10" fill="rgb(139,0,0)"/>
<rect x="70" y="10" width="10" height="10" fill="rgb(255,0,255)"/>
<rect x="70" y="20" width="10" height="10" fill="rgb(0,139,139)"/>
<rect x="70" y="30" width="10" height="10" fill="rgb(255,99,71)"/>
<rect x="70" y="40" width="10" height="10" fill="rgb(250,128,114)"/>
<rect x="70" y="50" width="10" height="10" fill="rgb(189,183,107)"/>
<rect x="70" y="60" width="10" height="10" fill="rgb(255,182,193)"/>
<rect x="70" y="70" width="10" height="10" fill="rgb(255,218,185)"/>
<rect x="70" y="80" width="10" height="10" fill="rgb(250,240,230)"/>
<rect x="70" y="90" width="10" height="10" fill="rgb(240,255,255)"/>
<rect x="80" y="0" width="10" height="10" fill="rgb(25,25,112)"/>
<rect x="80" y="10" width="10" height="10" fill="rgb(138,43,226)"/>
<rect x="80" y="20" width="10" height="10" fill="rgb(46,139,87)"/>
<rect x="80" y="30" width="10" height="10" fill="rgb(119,136,153)"/>
<rect x="80" y="40" width="10" height="10" fill="rgb(255,140,0)"/>
<rect x="80" y="50" width="10" height="10" fill="rgb(72,209,204)"/>
<rect x="80" y="60" width="10" height="10" fill="rgb(0,255,255)"/>
<rect x="80" y="70" width="10" height="10" fill="rgb(245,222,179)"/>
<rect x="80" y="80" width="10" height="10" fill="rgb(245,245,220)"/>
<rect x="80" y="90" width="10" height="10" fill="rgb(245,255,250)"/>
<rect x="90" y="0" width="10" height="10" fill="rgb(128,0,128)"/>
<rect x="90" y="10" width="10" height="10" fill="rgb(255,20,147)"/>
<rect x="90" y="20" width="10" height="10" fill="rgb(186,85,211)"/>
<rect x="90" y="30" width="10" height="10" fill="rgb(119,136,153)"/>
<rect x="90" y="40" width="10" height="10" fill="rgb(0,191,255)"/>
<rect x="90" y="50" width="10" height="10" fill="rgb(102,205,170)"/>
<rect x="90" y="60" width="10" height="10" fill="rgb(0,255,255)"/>
<rect x="90" y="70" width="10" height="10" fill="rgb(175,238,238)"/>
<rect x="90" y="80" width="10" height="10" fill="rgb(255,240,245)"/>
<rect x="90" y="90" width="10" height="10" fill="rgb(255,255,224)"/>
<rect x="100" y="0" width="10" height="10" fill="rgb(139,0,139)"/>
<rect x="100" y="10" width="10" height="10" fill="rgb(139,69,19)"/>
<rect x="100" y="20" width="10" height="10" fill="rgb(205,92,92)"/>
<rect x="100" y="30" width="10" height="10" fill="rgb(184,134,11)"/>
<rect x="100" y="40" width="10" height="10" fill="rgb(238,130,238)"/>
<rect x="100" y="50" width="10" height="10" fill="rgb(0,255,0)"/>
<rect x="100" y="60" width="10" height="10" fill="rgb(255,192,203)"/>
<rect x="100" y="70" width="10" height="10" fill="rgb(127,255,212)"/>
<rect x="100" y="80" width="10" height="10" fill="rgb(245,245,245)"/>
<rect x="100" y="90" width="10" height="10" fill="rgb(255,255,240)"/>
<rect x="110" y="0" width="10" height="10" fill="rgb(148,0,211)"/>
<rect x="110" y="10" width="10" height="10" fill="rgb(153,50,204)"/>
<rect x="110" y="20" width="10" height="10" fill="rgb(123,104,238)"/>
<rect x="110" y="30" width="10" height="10" fill="rgb(219,112,147)"/>
<rect x="110" y="40" width="10" height="10" fill="rgb(50,205,50)"/>
<rect x="110" y="50" width="10" height="10" fill="rgb(154,205,50)"/>
<rect x="110" y="60" width="10" height="10" fill="rgb(124,252,0)"/>
<rect x="110" y="70" width="10" height="10" fill="rgb(255,222,173)"/>
<rect x="110" y="80" width="10" height="10" fill="rgb(253,245,230)"/>
<rect x="110" y="90" width="10" height="10" fill="rgb(255,255,255)"/>
<rect x="120" y="0" width="10" height="10" fill="rgb(255,0,0)"/>
<rect x="120" y="10" width="10" height="10" fill="rgb(0,128,0)"/>
<rect x="120" y="20" width="10" height="10" fill="rgb(128,128,0)"/>
<rect x="120" y="30" width="10" height="10" fill="rgb(218,112,214)"/>
<rect x="120" y="40" width="10" height="10" fill="rgb(0,206,209)"/>
<rect x="120" y="50" width="10" height="10" fill="rgb(210,180,140)"/>
<rect x="120" y="60" width="10" height="10" fill="rgb(173,216,230)"/>
<rect x="120" y="70" width="10" height="10" fill="rgb(240,230,140)"/>
<rect x="120" y="80" width="10" height="10" fill="rgb(255,245,238)"/>
<rect x="120" y="90" width="10" height="10" fill="rgb(0,0,0)"/>
<rect x="130" y="0" width="10" height="10" fill="rgb(178,34,34)"/>
<rect x="130" y="10" width="10" height="10" fill="rgb(160,82,45)"/>
<rect x="130" y="20" width="10" height="10" fill="rgb(70,130,180)"/>
<rect x="130" y="30" width="10" height="10" fill="rgb(255,105,180)"/>
<rect x="130" y="40" width="10" height="10" fill="rgb(233,150,122)"/>
<rect x="130" y="50" width="10" height="10" fill="rgb(222,184,135)"/>
<rect x="130" y="60" width="10" height="10" fill="rgb(255,215,0)"/>
<rect x="130" y="70" width="10" height="10" fill="rgb(238,232,170)"/>
<rect x="130" y="80" width="10" height="10" fill="rgb(240,248,255)"/>
<rect x="130" y="90" width="10" height="10" fill="rgb(0,0,128)"/>
<rect x="140" y="0" width="10" height="10" fill="rgb(220,20,60)"/>
<rect x="140" y="10" width="10" height="10" fill="rgb(85,107,47)"/>
<rect x="140" y="20" width="10" height="10" fill="rgb(210,105,30)"/>
<rect x="140" y="30" width="10" height="10" fill="rgb(205,133,63)"/>
<rect x="140" y="40" width="10" height="10" fill="rgb(218,165,32)"/>
<rect x="140" y="50" width="10" height="10" fill="rgb(64,224,208)"/>
<rect x="140" y="60" width="10" height="10" fill="rgb(127,255,0)"/>
<rect x="140" y="70" width="10" height="10" fill="rgb(255,228,181)"/>
<rect x="140" y="80" width="10" height="10" fill="rgb(250,250,210)"/>
<rect x="140" y="90" width="10" height="10" fill="rgb(0,0,139)"/>
</svg>