<?xml version="1.0" encoding="UTF-8" standalone="no"?>
<!DOCTYPE svg PUBLIC "-//W3C//DTD SVG 1.1//EN"
 "http://www.w3.org/Graphics/SVG/1.1/DTD/svg11.dtd">
<!-- Generated by graphviz version 12.0.0 (0)
 -->
<!-- Pages: 1 -->
<svg width="58pt" height="54pt"
 viewBox="0.00 0.00 57.74 54.00" xmlns="http://www.w3.org/2000/svg" xmlns:xlink="http://www.w3.org/1999/xlink">
<g id="graph0" class="graph" transform="scale(0.207692 0.207692) rotate(0) translate(4 256)">
<!-- 1 -->
<g id="node1" class="node">
<title>1</title>
<polygon fill="none" stroke="black" points="162,-252 108,-252 108,-216 162,-216 162,-252"/>
<text text-anchor="middle" x="135" y="-229.8" font-family="Times,serif" font-size="14.00">sqrt</text>
</g>
<!-- 2 -->
<g id="node2" class="node">
<title>2</title>
<polygon fill="none" stroke="black" points="162,-180 108,-180 108,-144 162,-144 162,-180"/>
<text text-anchor="middle" x="135" y="-157.8" font-family="Times,serif" font-size="14.00">+</text>
</g>
<!-- 1&#45;&gt;2 -->
<g id="edge1" class="edge">
<title>1&#45;&gt;2</title>
<path fill="none" stroke="black" stroke-width="0.75" d="M135,-215.7C135,-206.8 135,-195.82 135,-186.2"/>
<polygon fill="black" stroke="black" stroke-width="0.75" points="136.75,-186.24 135,-181.24 133.25,-186.24 136.75,-186.24"/>
</g>
<!-- 3 -->
<g id="node3" class="node">
<title>3</title>
<polygon fill="none" stroke="black" points="126,-108 72,-108 72,-72 126,-72 126,-108"/>
<text text-anchor="middle" x="99" y="-85.8" font-family="Times,serif" font-size="14.00">*</text>
</g>
<!-- 2&#45;&gt;3 -->
<g id="edge2" class="edge">
<title>2&#45;&gt;3</title>
<path fill="none" stroke="black" stroke-width="0.75" d="M126.1,-143.7C121.39,-134.54 115.56,-123.19 110.51,-113.38"/>
<polygon fill="black" stroke="black" stroke-width="0.75" points="112.16,-112.76 108.32,-109.11 109.05,-114.36 112.16,-112.76"/>
</g>
<!-- 6 -->
<g id="node4" class="node">
<title>6</title>
<polygon fill="none" stroke="black" points="198,-108 144,-108 144,-72 198,-72 198,-108"/>
<text text-anchor="middle" x="171" y="-85.8" font-family="Times,serif" font-size="14.00">*</text>
</g>
<!-- 2&#45;&gt;6 -->
<g id="edge3" class="edge">
<title>2&#45;&gt;6</title>
<path fill="none" stroke="black" stroke-width="0.75" d="M143.9,-143.7C148.61,-134.54 154.44,-123.19 159.49,-113.38"/>
<polygon fill="black" stroke="black" stroke-width="0.75" points="160.95,-114.36 161.68,-109.11 157.84,-112.76 160.95,-114.36"/>
</g>
<!-- 4 -->
<g id="node5" class="node">
<title>4</title>
<polygon fill="none" stroke="black" points="54,-36 0,-36 0,0 54,0 54,-36"/>
<text text-anchor="middle" x="27" y="-13.8" font-family="Times,serif" font-size="14.00">x</text>
</g>
<!-- 3&#45;&gt;4 -->
<g id="edge4" class="edge">
<title>3&#45;&gt;4</title>
<path fill="none" stroke="black" stroke-width="0.75" d="M81.2,-71.7C71.51,-62.27 59.43,-50.53 49.13,-40.52"/>
<polygon fill="black" stroke="black" stroke-width="0.75" points="50.46,-39.37 45.66,-37.14 48.02,-41.88 50.46,-39.37"/>
</g>
<!-- 5 -->
<g id="node6" class="node">
<title>5</title>
<polygon fill="none" stroke="black" points="126,-36 72,-36 72,0 126,0 126,-36"/>
<text text-anchor="middle" x="99" y="-13.8" font-family="Times,serif" font-size="14.00">x</text>
</g>
<!-- 3&#45;&gt;5 -->
<g id="edge5" class="edge">
<title>3&#45;&gt;5</title>
<path fill="none" stroke="black" stroke-width="0.75" d="M99,-71.7C99,-62.8 99,-51.82 99,-42.2"/>
<polygon fill="black" stroke="black" stroke-width="0.75" points="100.75,-42.24 99,-37.24 97.25,-42.24 100.75,-42.24"/>
</g>
<!-- 7 -->
<g id="node7" class="node">
<title>7</title>
<polygon fill="none" stroke="black" points="198,-36 144,-36 144,0 198,0 198,-36"/>
<text text-anchor="middle" x="171" y="-13.8" font-family="Times,serif" font-size="14.00">y</text>
</g>
<!-- 6&#45;&gt;7 -->
<g id="edge6" class="edge">
<title>6&#45;&gt;7</title>
<path fill="none" stroke="black" stroke-width="0.75" d="M171,-71.7C171,-62.8 171,-51.82 171,-42.2"/>
<polygon fill="black" stroke="black" stroke-width="0.75" points="172.75,-42.24 171,-37.24 169.25,-42.24 172.75,-42.24"/>
</g>
<!-- 8 -->
<g id="node8" class="node">
<title>8</title>
<polygon fill="none" stroke="black" points="270,-36 216,-36 216,0 270,0 270,-36"/>
<text text-anchor="middle" x="243" y="-13.8" font-family="Times,serif" font-size="14.00">y</text>
</g>
<!-- 6&#45;&gt;8 -->
<g id="edge7" class="edge">
<title>6&#45;&gt;8</title>
<path fill="none" stroke="black" stroke-width="0.75" d="M188.8,-71.7C198.49,-62.27 210.57,-50.53 220.87,-40.52"/>
<polygon fill="black" stroke="black" stroke-width="0.75" points="221.98,-41.88 224.34,-37.14 219.54,-39.37 221.98,-41.88"/>
</g>
</g>
</svg>
