<svg xmlns="http://www.w3.org/2000/svg" width="161.8" height="100.0" viewBox="-85.90 -5.00 171.80 110.00">
<g fill="none" stroke="black" stroke-width="0.0350%" transform="translate(0, 100.0046) scale(14.2860, -14.2860)">
<polyline points="-5.66,0.00 -5.54,0.00 -5.41,0.00 -5.28,0.00 -5.16,0.00 -5.03,0.00 -4.90,0.00 -4.78,0.00 -4.65,0.00 -4.52,0.00 -4.40,0.00 -4.27,0.00 -4.14,0.00 -4.02,0.00 -3.89,0.00 -3.76,0.00 -3.64,0.00 -3.51,0.00 -3.38,0.00 -3.26,0.01 -3.13,0.01 -3.00,0.01 -2.88,0.01 -2.75,0.01 -2.62,0.01 -2.50,0.02 -2.37,0.02 -2.24,0.03 -2.12,0.03 -1.99,0.04 -1.86,0.05 -1.74,0.06 -1.61,0.07 -1.48,0.08 -1.36,0.10 -1.23,0.12 -1.11,0.14 -0.98,0.17 -0.86,0.21 -0.74,0.25 -0.63,0.30 -0.51,0.35 -0.40,0.42 -0.30,0.50 -0.21,0.58 -0.14,0.68 -0.08,0.77 -0.04,0.86 -0.01,0.93 -0.00,0.98 0.00,1.00 0.00,0.98 0.01,0.93 0.04,0.86 0.08,0.77 0.14,0.68 0.21,0.58 0.30,0.50 0.40,0.42 0.51,0.35 0.63,0.30 0.74,0.25 0.86,0.21 0.98,0.17 1.11,0.14 1.23,0.12 1.36,0.10 1.48,0.08 1.61,0.07 1.74,0.06 1.86,0.05 1.99,0.04 2.12,0.03 2.24,0.03 2.37,0.02 2.50,0.02 2.62,0.01 2.75,0.01 2.88,0.01 3.00,0.01 3.13,0.01 3.26,0.01 3.38,0.00 3.51,0.00 3.64,0.00 3.76,0.00 3.89,0.00 4.02,0.00 4.14,0.00 4.27,0.00 4.40,0.00 4.52,0.00 4.65,0.00 4.78,0.00 4.90,0.00 5.03,0.00 5.16,0.00 5.28,0.00 5.41,0.00 5.54,0.00 5.66,0.00" />
<polyline points="-4.99,0.00 -4.86,0.00 -4.74,0.00 -4.61,0.00 -4.48,0.00 -4.36,0.00 -4.23,0.00 -4.10,0.00 -3.98,0.00 -3.85,0.00 -3.72,0.00 -3.60,0.00 -3.47,0.00 -3.34,0.00 -3.22,0.00 -3.09,0.01 -2.96,0.01 -2.84,0.01 -2.71,0.01 -2.58,0.01 -2.46,0.01 -2.33,0.02 -2.20,0.02 -2.08,0.02 -1.95,0.03 -1.82,0.04 -1.70,0.04 -1.57,0.05 -1.44,0.06 -1.32,0.08 -1.19,0.09 -1.07,0.11 -0.94,0.13 -0.81,0.16 -0.69,0.20 -0.57,0.24 -0.44,0.28 -0.32,0.34 -0.20,0.41 -0.09,0.50 0.02,0.59 0.12,0.71 0.21,0.84 0.28,1.00 0.33,1.17 0.36,1.35 0.35,1.54 0.31,1.72 0.23,1.87 0.12,1.96 0.00,2.00 -0.12,1.96 -0.23,1.87 -0.31,1.72 -0.35,1.54 -0.36,1.35 -0.33,1.17 -0.28,1.00 -0.21,0.84 -0.12,0.71 -0.02,0.59 0.09,0.50 0.20,0.41 0.32,0.34 0.44,0.28 0.57,0.24 0.69,0.20 0.81,0.16 0.94,0.13 1.07,0.11 1.19,0.09 1.32,0.08 1.44,0.06 1.57,0.05 1.70,0.04 1.82,0.04 1.95,0.03 2.08,0.02 2.20,0.02 2.33,0.02 2.46,0.01 2.58,0.01 2.71,0.01 2.84,0.01 2.96,0.01 3.09,0.01 3.22,0.00 3.34,0.00 3.47,0.00 3.60,0.00 3.72,0.00 3.85,0.00 3.98,0.00 4.10,0.00 4.23,0.00 4.36,0.00 4.48,0.00 4.61,0.00 4.74,0.00 4.86,0.00 4.99,0.00" />
<polyline points="-4.32,0.00 -4.19,0.00 -4.07,0.00 -3.94,0.00 -3.81,0.00 -3.69,0.00 -3.56,0.00 -3.43,0.00 -3.30,0.00 -3.18,0.00 -3.05,0.00 -2.92,0.00 -2.80,0.00 -2.67,0.01 -2.54,0.01 -2.42,0.01 -2.29,0.01 -2.16,0.01 -2.04,0.01 -1.91,0.02 -1.78,0.02 -1.66,0.03 -1.53,0.03 -1.40,0.04 -1.28,0.04 -1.15,0.05 -1.02,0.07 -0.90,0.08 -0.77,0.09 -0.65,0.11 -0.52,0.14 -0.39,0.17 -0.27,0.20 -0.14,0.24 -0.02,0.29 0.10,0.35 0.22,0.43 0.34,0.51 0.45,0.62 0.56,0.74 0.66,0.89 0.75,1.06 0.81,1.27 0.86,1.50 0.88,1.75 0.85,2.03 0.78,2.31 0.65,2.58 0.47,2.80 0.25,2.95 0.00,3.00 -0.25,2.95 -0.47,2.80 -0.65,2.58 -0.78,2.31 -0.85,2.03 -0.88,1.75 -0.86,1.50 -0.81,1.27 -0.75,1.06 -0.66,0.89 -0.56,0.74 -0.45,0.62 -0.34,0.51 -0.22,0.43 -0.10,0.35 0.02,0.29 0.14,0.24 0.27,0.20 0.39,0.17 0.52,0.14 0.65,0.11 0.77,0.09 0.90,0.08 1.02,0.07 1.15,0.05 1.28,0.04 1.40,0.04 1.53,0.03 1.66,0.03 1.78,0.02 1.91,0.02 2.04,0.01 2.16,0.01 2.29,0.01 2.42,0.01 2.54,0.01 2.67,0.01 2.80,0.00 2.92,0.00 3.05,0.00 3.18,0.00 3.30,0.00 3.43,0.00 3.56,0.00 3.69,0.00 3.81,0.00 3.94,0.00 4.07,0.00 4.19,0.00 4.32,0.00" />
<polyline points="-1.63,0.00 -1.50,0.00 -1.38,0.00 -1.25,0.00 -1.12,0.00 -1.00,0.00 -0.87,0.00 -0.74,0.00 -0.62,0.01 -0.49,0.01 -0.36,0.01 -0.24,0.01 -0.11,0.01 0.02,0.01 0.14,0.02 0.27,0.02 0.40,0.02 0.52,0.03 0.65,0.03 0.78,0.04 0.90,0.05 1.03,0.06 1.16,0.07 1.28,0.09 1.41,0.10 1.54,0.13 1.66,0.15 1.79,0.18 1.92,0.22 2.04,0.27 2.17,0.32 2.29,0.39 2.41,0.47 2.54,0.57 2.66,0.68 2.77,0.83 2.88,1.00 2.99,1.20 3.08,1.44 3.17,1.73 3.23,2.08 3.26,2.48 3.25,2.95 3.19,3.49 3.06,4.09 2.83,4.74 2.49,5.39 2.03,6.01 1.44,6.53 0.75,6.88 0.00,7.00 -0.75,6.88 -1.44,6.53 -2.03,6.01 -2.49,5.39 -2.83,4.74 -3.06,4.09 -3.19,3.49 -3.25,2.95 -3.26,2.48 -3.23,2.08 -3.17,1.73 -3.08,1.44 -2.99,1.20 -2.88,1.00 -2.77,0.83 -2.66,0.68 -2.54,0.57 -2.41,0.47 -2.29,0.39 -2.17,0.32 -2.04,0.27 -1.92,0.22 -1.79,0.18 -1.66,0.15 -1.54,0.13 -1.41,0.10 -1.28,0.09 -1.16,0.07 -1.03,0.06 -0.90,0.05 -0.78,0.04 -0.65,0.03 -0.52,0.03 -0.40,0.02 -0.27,0.02 -0.14,0.02 -0.02,0.01 0.11,0.01 0.24,0.01 0.36,0.01 0.49,0.01 0.62,0.01 0.74,0.00 0.87,0.00 1.00,0.00 1.12,0.00 1.25,0.00 1.38,0.00 1.50,0.00 1.63,0.00" />
</g>
</svg>