<svg xmlns="http://www.w3.org/2000/svg" width="161.8" height="100.0" viewBox="-4.6 -1.3 171.8 110.0">
<g fill="none" stroke="black" stroke-width="0.2700%" transform="translate(0, 107.4074) scale(1.8519, -1.8519)">
<polyline points="0.2,12.0 0.4,13.0 0.6,14.0 0.8,15.0 1.0,14.0 1.3,15.0 1.5,16.0 1.7,15.0 1.9,16.0 2.1,15.0 2.3,16.0 2.5,17.0 2.7,18.0 2.9,19.0 3.1,20.0 3.3,21.0 3.6,22.0 3.8,21.0 4.0,22.0 4.2,23.0 4.4,24.0 4.6,23.0 4.8,24.0 5.0,25.0 5.2,26.0 5.4,27.0 5.6,28.0 5.9,27.0 6.1,28.0 6.3,27.0 6.5,28.0 6.7,29.0 6.9,30.0 7.1,29.0 7.3,30.0 7.5,31.0 7.7,32.0 7.9,33.0 8.2,34.0 8.4,35.0 8.6,36.0 8.8,35.0 9.0,36.0 9.2,35.0 9.4,36.0 9.6,37.0 9.8,38.0 10.0,37.0 10.2,38.0 10.5,39.0 10.7,40.0 10.9,39.0 11.1,40.0 11.3,39.0 11.5,40.0 11.7,39.0 11.9,40.0 12.1,41.0 12.3,42.0 12.5,41.0 12.8,40.0 13.0,39.0 13.2,40.0 13.4,41.0 13.6,42.0 13.8,43.0 14.0,44.0 14.2,45.0 14.4,46.0 14.6,47.0 14.8,48.0 15.1,47.0 15.3,48.0 15.5,47.0 15.7,46.0 15.9,47.0 16.1,48.0 16.3,47.0 16.5,48.0 16.7,49.0 16.9,50.0 17.1,49.0 17.3,50.0 17.6,51.0 17.8,52.0 18.0,51.0 18.2,52.0 18.4,51.0 18.6,52.0 18.8,51.0 19.0,50.0 19.2,49.0 19.4,50.0 19.6,49.0 19.9,50.0 20.1,51.0 20.3,52.0 20.5,51.0 20.7,50.0 20.9,49.0 21.1,50.0 21.3,51.0 21.5,52.0 21.7,53.0 21.9,54.0 22.2,55.0 22.4,56.0 22.6,55.0 22.8,54.0 23.0,53.0 23.2,52.0 23.4,51.0 23.6,52.0 23.8,53.0 24.0,54.0 24.2,53.0 24.5,52.0 24.7,51.0 24.9,52.0 25.1,53.0 25.3,54.0 25.5,53.0 25.7,54.0 25.9,55.0 26.1,56.0 26.3,55.0 26.5,54.0 26.8,53.0 27.0,52.0 27.2,53.0 27.4,54.0 27.6,53.0 27.8,54.0 28.0,53.0 28.2,52.0 28.4,53.0 28.6,54.0 28.8,53.0 29.1,54.0 29.3,53.0 29.5,54.0 29.7,55.0 29.9,56.0 30.1,55.0 30.3,54.0 30.5,53.0 30.7,52.0 30.9,51.0 31.1,52.0 31.4,51.0 31.6,52.0 31.8,51.0 32.0,50.0 32.2,49.0 32.4,50.0 32.6,49.0 32.8,50.0 33.0,49.0 33.2,50.0 33.4,51.0 33.7,52.0 33.9,51.0 34.1,50.0 34.3,49.0 34.5,48.0 34.7,49.0 34.9,50.0 35.1,51.0 35.3,52.0 35.5,51.0 35.7,50.0 36.0,49.0 36.2,48.0 36.4,47.0 36.6,46.0 36.8,45.0 37.0,46.0 37.2,47.0 37.4,48.0 37.6,47.0 37.8,46.0 38.0,47.0 38.3,48.0 38.5,47.0 38.7,48.0 38.9,49.0 39.1,50.0 39.3,49.0 39.5,48.0 39.7,47.0 39.9,46.0 40.1,47.0 40.3,48.0 40.6,47.0 40.8,48.0 41.0,47.0 41.2,46.0 41.4,45.0 41.6,46.0 41.8,45.0 42.0,46.0 42.2,47.0 42.4,48.0 42.6,47.0 42.9,46.0 43.1,45.0 43.3,44.0 43.5,43.0 43.7,44.0 43.9,43.0 44.1,44.0 44.3,43.0 44.5,42.0 44.7,43.0 44.9,44.0 45.2,45.0 45.4,46.0 45.6,45.0 45.8,46.0 46.0,45.0 46.2,44.0 46.4,43.0 46.6,42.0 46.8,41.0 47.0,40.0 47.2,39.0 47.4,38.0 47.7,39.0 47.9,40.0 48.1,39.0 48.3,40.0 48.5,41.0 48.7,42.0 48.9,43.0 49.1,44.0 49.3,43.0 49.5,42.0 49.7,41.0 50.0,40.0 50.2,39.0 50.4,40.0 50.6,41.0 50.8,42.0 51.0,43.0 51.2,44.0 51.4,43.0 51.6,44.0 51.8,45.0 52.0,46.0 52.3,45.0 52.5,44.0 52.7,43.0 52.9,42.0 53.1,43.0 53.3,44.0 53.5,43.0 53.7,44.0 53.9,45.0 54.1,46.0 54.3,45.0 54.6,44.0 54.8,43.0 55.0,44.0 55.2,45.0 55.4,46.0 55.6,45.0 55.8,44.0 56.0,45.0 56.2,46.0 56.4,45.0 56.6,44.0 56.9,43.0 57.1,44.0 57.3,45.0 57.5,46.0 57.7,45.0 57.9,44.0 58.1,43.0 58.3,44.0 58.5,45.0 58.7,46.0 58.9,45.0 59.2,46.0 59.4,47.0 59.6,48.0 59.8,47.0 60.0,46.0 60.2,45.0 60.4,46.0 60.6,47.0 60.8,48.0 61.0,47.0 61.2,46.0 61.5,45.0 61.7,46.0 61.9,47.0 62.1,48.0 62.3,49.0 62.5,50.0 62.7,49.0 62.9,50.0 63.1,49.0 63.3,48.0 63.5,49.0 63.8,50.0 64.0,49.0 64.2,50.0 64.4,49.0 64.6,48.0 64.8,49.0 65.0,50.0 65.2,49.0 65.4,50.0 65.6,51.0 65.8,52.0 66.1,51.0 66.3,50.0 66.5,49.0 66.7,48.0 66.9,49.0 67.1,50.0 67.3,49.0 67.5,48.0 67.7,47.0 67.9,46.0 68.1,47.0 68.4,48.0 68.6,47.0 68.8,46.0 69.0,45.0 69.2,46.0 69.4,47.0 69.6,48.0 69.8,47.0 70.0,46.0 70.2,47.0 70.4,48.0 70.7,47.0 70.9,46.0 71.1,45.0 71.3,44.0 71.5,43.0 71.7,44.0 71.9,43.0 72.1,42.0 72.3,43.0 72.5,44.0 72.7,43.0 73.0,44.0 73.2,43.0 73.4,42.0 73.6,41.0 73.8,42.0 74.0,41.0 74.2,40.0 74.4,39.0 74.6,38.0 74.8,37.0 75.0,36.0 75.3,37.0 75.5,38.0 75.7,37.0 75.9,36.0 76.1,35.0 76.3,34.0 76.5,33.0 76.7,34.0 76.9,33.0 77.1,32.0 77.3,31.0 77.5,30.0 77.8,31.0 78.0,32.0 78.2,31.0 78.4,30.0 78.6,29.0 78.8,28.0 79.0,29.0 79.2,30.0 79.4,29.0 79.6,28.0 79.8,29.0 80.1,30.0 80.3,29.0 80.5,28.0 80.7,27.0 80.9,26.0 81.1,25.0 81.3,26.0 81.5,25.0 81.7,24.0 81.9,23.0 82.1,24.0 82.4,23.0 82.6,22.0 82.8,21.0 83.0,20.0 83.2,19.0 83.4,18.0 83.6,17.0 83.8,18.0 84.0,17.0 84.2,16.0 84.4,15.0 84.7,14.0 84.9,13.0 85.1,14.0 85.3,13.0 85.5,12.0 85.7,11.0 85.9,10.0 86.1,9.0 86.3,8.0 86.5,7.0 86.7,6.0 87.0,5.0 87.2,4.0 87.4,3.0 87.6,2.0" />
</g>
</svg>