<svg xmlns="http://www.w3.org/2000/svg" width="161.8" height="100.0" viewBox="-45.451 -5.000 171.803 110.000">
<g fill="none" stroke="black" stroke-width="0.0033%" transform="translate(0, 100.0000) scale(150.0000, -150.0000)">
<circle cx="0.000" cy="0.667" r="0.003" />
<polyline points="-0.270,0.500 -0.264,0.550 -0.259,0.581 -0.253,0.596 -0.248,0.621 -0.243,0.633 -0.237,0.633 -0.232,0.649 -0.227,0.662 -0.221,0.665 -0.216,0.667 -0.210,0.658 -0.205,0.645 -0.200,0.645 -0.194,0.658 -0.189,0.667 -0.183,0.665 -0.178,0.662 -0.173,0.649 -0.167,0.633 -0.162,0.633 -0.156,0.621 -0.151,0.596 -0.146,0.581 -0.140,0.550 -0.135,0.500 -0.129,0.530 -0.124,0.541 -0.119,0.536 -0.113,0.541 -0.108,0.533 -0.102,0.513 -0.097,0.509 -0.092,0.502 -0.086,0.485 -0.081,0.467 -0.076,0.438 -0.070,0.405 -0.065,0.385 -0.059,0.378 -0.054,0.367 -0.049,0.345 -0.043,0.322 -0.038,0.289 -0.032,0.253 -0.027,0.233 -0.022,0.201 -0.016,0.156 -0.011,0.121 -0.005,0.070 0.000,0.000 0.005,0.070 0.011,0.121 0.016,0.156 0.022,0.201 0.027,0.233 0.032,0.253 0.038,0.289 0.043,0.322 0.049,0.345 0.054,0.367 0.059,0.378 0.065,0.385 0.070,0.405 0.076,0.438 0.081,0.467 0.086,0.485 0.092,0.502 0.097,0.509 0.102,0.513 0.108,0.533 0.113,0.541 0.119,0.536 0.124,0.541 0.129,0.530 0.135,0.500 0.140,0.550 0.146,0.581 0.151,0.596 0.156,0.621 0.162,0.633 0.167,0.633 0.173,0.649 0.178,0.662 0.183,0.665 0.189,0.667 0.194,0.658 0.200,0.645 0.205,0.645 0.210,0.658 0.216,0.667 0.221,0.665 0.227,0.662 0.232,0.649 0.237,0.633 0.243,0.633 0.248,0.621 0.253,0.596 0.259,0.581 0.264,0.550 0.270,0.500 0.275,0.550 0.280,0.581 0.286,0.596 0.291,0.621 0.297,0.633 0.302,0.633 0.307,0.649 0.313,0.662 0.318,0.665 0.324,0.667 0.329,0.658 0.334,0.645 0.340,0.645 0.345,0.658 0.351,0.667 0.356,0.665 0.361,0.662 0.367,0.649 0.372,0.633 0.378,0.633 0.383,0.621 0.388,0.596 0.394,0.581 0.399,0.550 0.405,0.500 0.410,0.530 0.415,0.541 0.421,0.536 0.426,0.541 0.431,0.533 0.437,0.513 0.442,0.509 0.448,0.502 0.453,0.485 0.458,0.467 0.464,0.438 0.469,0.405 0.475,0.385 0.480,0.378 0.485,0.367 0.491,0.345 0.496,0.322 0.502,0.289 0.507,0.253 0.512,0.233 0.518,0.201 0.523,0.156 0.529,0.121 0.534,0.070 0.539,0.000 0.545,0.070 0.550,0.121 0.556,0.156 0.561,0.201 0.566,0.233 0.572,0.253 0.577,0.289 0.582,0.322 0.588,0.345 0.593,0.367 0.599,0.378 0.604,0.385 0.609,0.405 0.615,0.438 0.620,0.467 0.626,0.485 0.631,0.502 0.636,0.509 0.642,0.513 0.647,0.533 0.653,0.541 0.658,0.536 0.663,0.541 0.669,0.530 0.674,0.500 0.680,0.550 0.685,0.581 0.690,0.596 0.696,0.621 0.701,0.633 0.707,0.633 0.712,0.649 0.717,0.662 0.723,0.665 0.728,0.667 0.734,0.658 0.739,0.645 0.744,0.645 0.750,0.658 0.755,0.667 0.760,0.665 0.766,0.662 0.771,0.649 0.777,0.633 0.782,0.633 0.787,0.621 0.793,0.596 0.798,0.581 0.804,0.550 0.809,0.500" />
</g>
</svg>