<svg xmlns="http://www.w3.org/2000/svg" width="161.8" height="100.0" viewBox="-3.92 -70.67 171.80 110.00">
<g fill="none" stroke="black" stroke-width="0.0207%" transform="translate(0, -31.3403) scale(24.1687, -24.1687)">
<circle cx="0.04" cy="0.00" r="0.02" />
<circle cx="0.09" cy="0.52" r="0.02" />
<circle cx="0.13" cy="-0.90" r="0.02" />
<circle cx="0.18" cy="-0.52" r="0.02" />
<circle cx="0.22" cy="0.52" r="0.02" />
<circle cx="0.27" cy="-1.01" r="0.02" />
<circle cx="0.31" cy="-0.52" r="0.02" />
<circle cx="0.36" cy="0.00" r="0.02" />
<circle cx="0.40" cy="-1.23" r="0.02" />
<circle cx="0.45" cy="-0.52" r="0.02" />
<circle cx="0.49" cy="0.00" r="0.02" />
<circle cx="0.54" cy="-2.72" r="0.02" />
<circle cx="0.58" cy="-0.52" r="0.02" />
<circle cx="0.62" cy="0.00" r="0.02" />
<circle cx="0.67" cy="1.23" r="0.02" />
<circle cx="0.71" cy="-0.52" r="0.02" />
<circle cx="0.76" cy="0.00" r="0.02" />
<circle cx="0.80" cy="0.90" r="0.02" />
<circle cx="0.85" cy="-0.75" r="0.02" />
<circle cx="0.89" cy="0.00" r="0.02" />
<circle cx="0.94" cy="0.75" r="0.02" />
<circle cx="0.98" cy="-0.75" r="0.02" />
<circle cx="1.03" cy="0.00" r="0.02" />
<circle cx="1.07" cy="0.52" r="0.02" />
<circle cx="1.12" cy="-0.90" r="0.02" />
<circle cx="1.16" cy="-0.52" r="0.02" />
<circle cx="1.21" cy="0.52" r="0.02" />
<circle cx="1.25" cy="-1.01" r="0.02" />
<circle cx="1.29" cy="-0.52" r="0.02" />
<circle cx="1.34" cy="0.00" r="0.02" />
<circle cx="1.38" cy="-1.23" r="0.02" />
<circle cx="1.43" cy="-0.52" r="0.02" />
<circle cx="1.47" cy="0.00" r="0.02" />
<circle cx="1.52" cy="-2.25" r="0.02" />
<circle cx="1.56" cy="-0.52" r="0.02" />
<circle cx="1.61" cy="0.00" r="0.02" />
<circle cx="1.65" cy="1.23" r="0.02" />
<circle cx="1.70" cy="-0.52" r="0.02" />
<circle cx="1.74" cy="0.00" r="0.02" />
<circle cx="1.79" cy="0.90" r="0.02" />
<circle cx="1.83" cy="-0.75" r="0.02" />
<circle cx="1.87" cy="0.00" r="0.02" />
<circle cx="1.92" cy="0.75" r="0.02" />
<circle cx="1.96" cy="-0.75" r="0.02" />
<circle cx="2.01" cy="0.00" r="0.02" />
<circle cx="2.05" cy="0.52" r="0.02" />
<circle cx="2.10" cy="-0.90" r="0.02" />
<circle cx="2.14" cy="-0.52" r="0.02" />
<circle cx="2.19" cy="0.52" r="0.02" />
<circle cx="2.23" cy="-1.01" r="0.02" />
<circle cx="2.28" cy="-0.52" r="0.02" />
<circle cx="2.32" cy="0.00" r="0.02" />
<circle cx="2.37" cy="-1.23" r="0.02" />
<circle cx="2.41" cy="-0.52" r="0.02" />
<circle cx="2.45" cy="0.00" r="0.02" />
<circle cx="2.50" cy="-2.03" r="0.02" />
<circle cx="2.54" cy="-0.52" r="0.02" />
<circle cx="2.59" cy="0.00" r="0.02" />
<circle cx="2.63" cy="1.29" r="0.02" />
<circle cx="2.68" cy="-0.52" r="0.02" />
<circle cx="2.72" cy="0.00" r="0.02" />
<circle cx="2.77" cy="0.90" r="0.02" />
<circle cx="2.81" cy="-0.75" r="0.02" />
<circle cx="2.86" cy="0.00" r="0.02" />
<circle cx="2.90" cy="0.75" r="0.02" />
<circle cx="2.95" cy="-0.75" r="0.02" />
<circle cx="2.99" cy="0.00" r="0.02" />
<circle cx="3.03" cy="0.52" r="0.02" />
<circle cx="3.08" cy="-0.90" r="0.02" />
<circle cx="3.12" cy="-0.52" r="0.02" />
<circle cx="3.17" cy="0.52" r="0.02" />
<circle cx="3.21" cy="-1.01" r="0.02" />
<circle cx="3.26" cy="-0.52" r="0.02" />
<circle cx="3.30" cy="0.00" r="0.02" />
<circle cx="3.35" cy="-1.17" r="0.02" />
<circle cx="3.39" cy="-0.52" r="0.02" />
<circle cx="3.44" cy="0.00" r="0.02" />
<circle cx="3.48" cy="-1.89" r="0.02" />
<circle cx="3.53" cy="-0.52" r="0.02" />
<circle cx="3.57" cy="0.00" r="0.02" />
<circle cx="3.62" cy="1.34" r="0.02" />
<circle cx="3.66" cy="-0.52" r="0.02" />
<circle cx="3.70" cy="0.00" r="0.02" />
<circle cx="3.75" cy="0.90" r="0.02" />
<circle cx="3.79" cy="-0.75" r="0.02" />
<circle cx="3.84" cy="0.00" r="0.02" />
<circle cx="3.88" cy="0.75" r="0.02" />
<circle cx="3.93" cy="-0.75" r="0.02" />
<circle cx="3.97" cy="0.00" r="0.02" />
<circle cx="4.02" cy="0.52" r="0.02" />
<circle cx="4.06" cy="-0.75" r="0.02" />
<circle cx="4.11" cy="-0.52" r="0.02" />
<circle cx="4.15" cy="0.52" r="0.02" />
<circle cx="4.20" cy="-0.90" r="0.02" />
<circle cx="4.24" cy="-0.52" r="0.02" />
<circle cx="4.28" cy="0.00" r="0.02" />
<circle cx="4.33" cy="-1.17" r="0.02" />
<circle cx="4.37" cy="-0.52" r="0.02" />
<circle cx="4.42" cy="0.00" r="0.02" />
<circle cx="4.46" cy="-1.78" r="0.02" />
<circle cx="4.51" cy="-0.52" r="0.02" />
<circle cx="4.55" cy="0.00" r="0.02" />
<circle cx="4.60" cy="1.34" r="0.02" />
<circle cx="4.64" cy="-0.52" r="0.02" />
<circle cx="4.69" cy="0.00" r="0.02" />
<circle cx="4.73" cy="1.01" r="0.02" />
<circle cx="4.78" cy="-0.75" r="0.02" />
<circle cx="4.82" cy="0.00" r="0.02" />
<circle cx="4.86" cy="0.75" r="0.02" />
<circle cx="4.91" cy="-0.75" r="0.02" />
<circle cx="4.95" cy="0.00" r="0.02" />
<circle cx="5.00" cy="0.52" r="0.02" />
<circle cx="5.04" cy="-0.75" r="0.02" />
<circle cx="5.09" cy="-0.52" r="0.02" />
<circle cx="5.13" cy="0.52" r="0.02" />
<circle cx="5.18" cy="-0.90" r="0.02" />
<circle cx="5.22" cy="-0.52" r="0.02" />
<circle cx="5.27" cy="0.00" r="0.02" />
<circle cx="5.31" cy="-1.17" r="0.02" />
<circle cx="5.36" cy="-0.52" r="0.02" />
<circle cx="5.40" cy="0.00" r="0.02" />
<circle cx="5.45" cy="-1.69" r="0.02" />
<circle cx="5.49" cy="-0.52" r="0.02" />
<circle cx="5.53" cy="0.00" r="0.02" />
<circle cx="5.58" cy="1.38" r="0.02" />
<circle cx="5.62" cy="-0.52" r="0.02" />
<circle cx="5.67" cy="0.00" r="0.02" />
<circle cx="5.71" cy="1.01" r="0.02" />
<circle cx="5.76" cy="-0.75" r="0.02" />
<circle cx="5.80" cy="0.00" r="0.02" />
<circle cx="5.85" cy="0.75" r="0.02" />
<circle cx="5.89" cy="-0.75" r="0.02" />
<circle cx="5.94" cy="0.00" r="0.02" />
<circle cx="5.98" cy="0.52" r="0.02" />
<circle cx="6.03" cy="-0.75" r="0.02" />
<circle cx="6.07" cy="-0.52" r="0.02" />
<circle cx="6.11" cy="0.52" r="0.02" />
<circle cx="6.16" cy="-0.90" r="0.02" />
<circle cx="6.20" cy="-0.52" r="0.02" />
<circle cx="6.25" cy="0.00" r="0.02" />
<circle cx="6.29" cy="-1.10" r="0.02" />
<circle cx="6.34" cy="-0.52" r="0.02" />
<circle cx="6.38" cy="0.00" r="0.02" />
<circle cx="6.43" cy="-1.63" r="0.02" />
<circle cx="6.47" cy="-0.52" r="0.02" />
<circle cx="6.52" cy="0.00" r="0.02" />
<circle cx="6.56" cy="1.42" r="0.02" />
<circle cx="6.61" cy="-0.52" r="0.02" />
<circle cx="6.65" cy="0.00" r="0.02" />
<circle cx="6.69" cy="1.01" r="0.02" />
<circle cx="6.74" cy="-0.75" r="0.02" />
</g>
</svg>