<svg xmlns="http://www.w3.org/2000/svg" width="161.8" height="100.0" viewBox="-2.83 -5.00 171.80 110.00">
<g fill="none" stroke="black" stroke-width="0.0271%" transform="translate(0, 100.0000) scale(18.4484, -18.4484)">
<circle cx="0.12" cy="0.00" r="0.03" />
<circle cx="0.18" cy="1.10" r="0.03" />
<circle cx="0.24" cy="0.00" r="0.03" />
<circle cx="0.29" cy="0.00" r="0.03" />
<circle cx="0.35" cy="1.39" r="0.03" />
<circle cx="0.41" cy="0.00" r="0.03" />
<circle cx="0.53" cy="1.95" r="0.03" />
<circle cx="0.59" cy="0.00" r="0.03" />
<circle cx="0.71" cy="5.42" r="0.03" />
<circle cx="0.77" cy="0.00" r="0.03" />
<circle cx="0.88" cy="1.95" r="0.03" />
<circle cx="0.94" cy="0.00" r="0.03" />
<circle cx="1.06" cy="1.10" r="0.03" />
<circle cx="1.12" cy="0.69" r="0.03" />
<circle cx="1.24" cy="0.69" r="0.03" />
<circle cx="1.29" cy="0.69" r="0.03" />
<circle cx="1.41" cy="0.00" r="0.03" />
<circle cx="1.47" cy="1.10" r="0.03" />
<circle cx="1.53" cy="0.00" r="0.03" />
<circle cx="1.59" cy="0.00" r="0.03" />
<circle cx="1.65" cy="1.39" r="0.03" />
<circle cx="1.71" cy="0.00" r="0.03" />
<circle cx="1.82" cy="1.95" r="0.03" />
<circle cx="1.88" cy="0.00" r="0.03" />
<circle cx="2.00" cy="4.33" r="0.03" />
<circle cx="2.06" cy="0.00" r="0.03" />
<circle cx="2.18" cy="1.95" r="0.03" />
<circle cx="2.24" cy="0.00" r="0.03" />
<circle cx="2.35" cy="1.10" r="0.03" />
<circle cx="2.41" cy="0.69" r="0.03" />
<circle cx="2.53" cy="0.69" r="0.03" />
<circle cx="2.59" cy="0.69" r="0.03" />
<circle cx="2.71" cy="0.00" r="0.03" />
<circle cx="2.77" cy="1.10" r="0.03" />
<circle cx="2.83" cy="0.00" r="0.03" />
<circle cx="2.88" cy="0.00" r="0.03" />
<circle cx="2.94" cy="1.39" r="0.03" />
<circle cx="3.00" cy="0.00" r="0.03" />
<circle cx="3.12" cy="1.95" r="0.03" />
<circle cx="3.18" cy="0.00" r="0.03" />
<circle cx="3.30" cy="3.83" r="0.03" />
<circle cx="3.36" cy="0.00" r="0.03" />
<circle cx="3.47" cy="2.08" r="0.03" />
<circle cx="3.53" cy="0.00" r="0.03" />
<circle cx="3.65" cy="1.10" r="0.03" />
<circle cx="3.71" cy="0.69" r="0.03" />
<circle cx="3.83" cy="0.69" r="0.03" />
<circle cx="3.88" cy="0.69" r="0.03" />
<circle cx="4.00" cy="0.00" r="0.03" />
<circle cx="4.06" cy="1.10" r="0.03" />
<circle cx="4.12" cy="0.00" r="0.03" />
<circle cx="4.18" cy="0.00" r="0.03" />
<circle cx="4.24" cy="1.39" r="0.03" />
<circle cx="4.30" cy="0.00" r="0.03" />
<circle cx="4.41" cy="1.79" r="0.03" />
<circle cx="4.47" cy="0.00" r="0.03" />
<circle cx="4.59" cy="3.50" r="0.03" />
<circle cx="4.65" cy="0.00" r="0.03" />
<circle cx="4.77" cy="2.20" r="0.03" />
<circle cx="4.83" cy="0.00" r="0.03" />
<circle cx="4.94" cy="1.10" r="0.03" />
<circle cx="5.00" cy="0.69" r="0.03" />
<circle cx="5.12" cy="0.69" r="0.03" />
<circle cx="5.18" cy="0.69" r="0.03" />
<circle cx="5.30" cy="0.00" r="0.03" />
<circle cx="5.36" cy="0.69" r="0.03" />
<circle cx="5.42" cy="0.00" r="0.03" />
<circle cx="5.47" cy="0.00" r="0.03" />
<circle cx="5.53" cy="1.10" r="0.03" />
<circle cx="5.59" cy="0.00" r="0.03" />
<circle cx="5.71" cy="1.79" r="0.03" />
<circle cx="5.77" cy="0.00" r="0.03" />
<circle cx="5.89" cy="3.26" r="0.03" />
<circle cx="5.95" cy="0.00" r="0.03" />
<circle cx="6.06" cy="2.20" r="0.03" />
<circle cx="6.12" cy="0.00" r="0.03" />
<circle cx="6.24" cy="1.39" r="0.03" />
<circle cx="6.30" cy="0.69" r="0.03" />
<circle cx="6.42" cy="0.69" r="0.03" />
<circle cx="6.47" cy="0.69" r="0.03" />
<circle cx="6.59" cy="0.00" r="0.03" />
<circle cx="6.65" cy="0.69" r="0.03" />
<circle cx="6.71" cy="0.00" r="0.03" />
<circle cx="6.77" cy="0.00" r="0.03" />
<circle cx="6.83" cy="1.10" r="0.03" />
<circle cx="6.89" cy="0.00" r="0.03" />
<circle cx="7.00" cy="1.79" r="0.03" />
<circle cx="7.06" cy="0.00" r="0.03" />
<circle cx="7.18" cy="3.04" r="0.03" />
<circle cx="7.24" cy="0.00" r="0.03" />
<circle cx="7.36" cy="2.30" r="0.03" />
<circle cx="7.42" cy="0.00" r="0.03" />
<circle cx="7.53" cy="1.39" r="0.03" />
<circle cx="7.59" cy="0.69" r="0.03" />
<circle cx="7.71" cy="0.69" r="0.03" />
<circle cx="7.77" cy="0.69" r="0.03" />
<circle cx="7.89" cy="0.00" r="0.03" />
<circle cx="7.95" cy="0.69" r="0.03" />
<circle cx="8.01" cy="0.00" r="0.03" />
<circle cx="8.06" cy="0.00" r="0.03" />
<circle cx="8.12" cy="1.10" r="0.03" />
<circle cx="8.18" cy="0.00" r="0.03" />
<circle cx="8.30" cy="1.61" r="0.03" />
<circle cx="8.36" cy="0.00" r="0.03" />
<circle cx="8.48" cy="2.89" r="0.03" />
<circle cx="8.54" cy="0.00" r="0.03" />
<circle cx="8.65" cy="2.40" r="0.03" />
<circle cx="8.71" cy="0.00" r="0.03" />
<circle cx="8.83" cy="1.39" r="0.03" />
<circle cx="8.89" cy="0.69" r="0.03" />
</g>
</svg>