<svg xmlns="http://www.w3.org/2000/svg" width="161.8" height="100.0" viewBox="-2.83 -5.00 171.80 110.00">
<g fill="none" stroke="black" stroke-width="0.0542%" transform="translate(0, 100.0000) scale(9.2246, -9.2246)">
<circle cx="0.24" cy="0.69" r="0.05" />
<circle cx="0.35" cy="1.39" r="0.05" />
<circle cx="0.59" cy="0.00" r="0.05" />
<circle cx="0.71" cy="2.40" r="0.05" />
<circle cx="1.06" cy="3.83" r="0.05" />
<circle cx="1.41" cy="10.84" r="0.05" />
<circle cx="1.77" cy="3.95" r="0.05" />
<circle cx="2.12" cy="2.48" r="0.05" />
<circle cx="2.24" cy="0.00" r="0.05" />
<circle cx="2.47" cy="1.61" r="0.05" />
<circle cx="2.59" cy="0.69" r="0.05" />
<circle cx="2.83" cy="0.69" r="0.05" />
<circle cx="2.94" cy="1.39" r="0.05" />
<circle cx="3.18" cy="0.00" r="0.05" />
<circle cx="3.30" cy="2.30" r="0.05" />
<circle cx="3.65" cy="3.71" r="0.05" />
<circle cx="4.00" cy="8.64" r="0.05" />
<circle cx="4.36" cy="4.09" r="0.05" />
<circle cx="4.71" cy="2.56" r="0.05" />
<circle cx="4.83" cy="0.00" r="0.05" />
<circle cx="5.06" cy="1.61" r="0.05" />
<circle cx="5.18" cy="0.69" r="0.05" />
<circle cx="5.42" cy="0.69" r="0.05" />
<circle cx="5.53" cy="1.39" r="0.05" />
<circle cx="5.77" cy="0.00" r="0.05" />
<circle cx="5.89" cy="2.30" r="0.05" />
<circle cx="6.24" cy="3.58" r="0.05" />
<circle cx="6.59" cy="7.62" r="0.05" />
<circle cx="6.95" cy="4.23" r="0.05" />
<circle cx="7.30" cy="2.64" r="0.05" />
<circle cx="7.42" cy="0.00" r="0.05" />
<circle cx="7.65" cy="1.61" r="0.05" />
<circle cx="7.77" cy="0.69" r="0.05" />
<circle cx="8.01" cy="0.69" r="0.05" />
<circle cx="8.12" cy="1.39" r="0.05" />
<circle cx="8.36" cy="0.00" r="0.05" />
<circle cx="8.48" cy="2.20" r="0.05" />
<circle cx="8.83" cy="3.47" r="0.05" />
<circle cx="9.18" cy="6.95" r="0.05" />
<circle cx="9.54" cy="4.39" r="0.05" />
<circle cx="9.89" cy="2.71" r="0.05" />
<circle cx="10.01" cy="0.00" r="0.05" />
<circle cx="10.24" cy="1.61" r="0.05" />
<circle cx="10.36" cy="0.69" r="0.05" />
<circle cx="10.59" cy="0.69" r="0.05" />
<circle cx="10.71" cy="1.10" r="0.05" />
<circle cx="10.95" cy="0.00" r="0.05" />
<circle cx="11.07" cy="2.08" r="0.05" />
<circle cx="11.42" cy="3.37" r="0.05" />
<circle cx="11.77" cy="6.44" r="0.05" />
<circle cx="12.13" cy="4.55" r="0.05" />
<circle cx="12.48" cy="2.77" r="0.05" />
<circle cx="12.60" cy="0.00" r="0.05" />
<circle cx="12.83" cy="1.79" r="0.05" />
<circle cx="12.95" cy="0.69" r="0.05" />
<circle cx="13.18" cy="0.69" r="0.05" />
<circle cx="13.30" cy="1.10" r="0.05" />
<circle cx="13.54" cy="0.00" r="0.05" />
<circle cx="13.66" cy="2.08" r="0.05" />
<circle cx="14.01" cy="3.26" r="0.05" />
<circle cx="14.36" cy="6.04" r="0.05" />
<circle cx="14.72" cy="4.74" r="0.05" />
<circle cx="15.07" cy="2.83" r="0.05" />
<circle cx="15.19" cy="0.00" r="0.05" />
<circle cx="15.42" cy="1.79" r="0.05" />
<circle cx="15.54" cy="0.00" r="0.05" />
<circle cx="15.77" cy="1.10" r="0.05" />
<circle cx="15.89" cy="1.10" r="0.05" />
<circle cx="16.13" cy="0.00" r="0.05" />
<circle cx="16.25" cy="1.95" r="0.05" />
<circle cx="16.60" cy="3.18" r="0.05" />
<circle cx="16.95" cy="5.71" r="0.05" />
<circle cx="17.31" cy="4.94" r="0.05" />
<circle cx="17.66" cy="2.89" r="0.05" />
<circle cx="17.78" cy="0.00" r="0.05" />
</g>
</svg>