<svg xmlns="http://www.w3.org/2000/svg" width="161.8" height="100.0" viewBox="-86.719 -55.019 171.803 110.000">
<g fill="none" stroke="black" stroke-width="0.0099%" transform="translate(0, -0.0373) scale(50.2981, -50.2981)">
<circle cx="-1.625" cy="0.000" r="0.010" />
<circle cx="0.000" cy="0.994" r="0.010" />
<polyline points="-1.625,-0.994 -1.592,-0.994 -1.560,-0.993 -1.527,-0.992 -1.495,-0.991 -1.462,-0.990 -1.430,-0.988 -1.397,-0.987 -1.365,-0.985 -1.332,-0.983 -1.300,-0.981 -1.267,-0.978 -1.235,-0.975 -1.202,-0.972 -1.170,-0.968 -1.137,-0.964 -1.105,-0.959 -1.072,-0.954 -1.040,-0.948 -1.007,-0.941 -0.975,-0.934 -0.942,-0.925 -0.910,-0.915 -0.877,-0.905 -0.845,-0.892 -0.812,-0.879 -0.780,-0.864 -0.747,-0.847 -0.715,-0.828 -0.682,-0.807 -0.650,-0.784 -0.617,-0.759 -0.585,-0.731 -0.552,-0.700 -0.520,-0.667 -0.487,-0.631 -0.455,-0.591 -0.422,-0.549 -0.390,-0.504 -0.357,-0.455 -0.325,-0.405 -0.292,-0.351 -0.260,-0.296 -0.227,-0.240 -0.195,-0.184 -0.162,-0.130 -0.130,-0.081 -0.097,-0.041 -0.065,-0.014 -0.032,-0.002 0.000,0.000 0.032,0.002 0.065,0.014 0.097,0.041 0.130,0.081 0.162,0.130 0.195,0.184 0.227,0.240 0.260,0.296 0.292,0.351 0.325,0.405 0.357,0.455 0.390,0.504 0.422,0.549 0.455,0.591 0.487,0.631 0.520,0.667 0.552,0.700 0.585,0.731 0.617,0.759 0.650,0.784 0.682,0.807 0.715,0.828 0.747,0.847 0.780,0.864 0.812,0.879 0.845,0.892 0.877,0.905 0.910,0.915 0.942,0.925 0.975,0.934 1.007,0.941 1.040,0.948 1.072,0.954 1.105,0.959 1.137,0.964 1.170,0.968 1.202,0.972 1.235,0.975 1.267,0.978 1.300,0.981 1.332,0.983 1.365,0.985 1.397,0.987 1.430,0.988 1.462,0.990 1.495,0.991 1.527,0.992 1.560,0.993 1.592,0.994" />
</g>
</svg>