<svg xmlns="http://www.w3.org/2000/svg" width="161.8" height="100.0" viewBox="-85.902 -55.000 171.803 110.000">
<g fill="none" stroke="black" stroke-width="0.0099%" transform="translate(0, 0.0000) scale(50.2794, -50.2794)">
<polyline points="-1.609,-0.994 -1.577,-0.994 -1.545,-0.993 -1.513,-0.992 -1.480,-0.991 -1.448,-0.990 -1.416,-0.988 -1.384,-0.987 -1.352,-0.985 -1.319,-0.983 -1.287,-0.981 -1.255,-0.978 -1.223,-0.975 -1.191,-0.972 -1.159,-0.968 -1.126,-0.964 -1.094,-0.959 -1.062,-0.954 -1.030,-0.948 -0.998,-0.941 -0.965,-0.934 -0.933,-0.925 -0.901,-0.915 -0.869,-0.905 -0.837,-0.892 -0.805,-0.879 -0.772,-0.864 -0.740,-0.847 -0.708,-0.828 -0.676,-0.807 -0.644,-0.784 -0.611,-0.759 -0.579,-0.731 -0.547,-0.700 -0.515,-0.667 -0.483,-0.631 -0.451,-0.591 -0.418,-0.549 -0.386,-0.504 -0.354,-0.455 -0.322,-0.405 -0.290,-0.351 -0.257,-0.296 -0.225,-0.240 -0.193,-0.184 -0.161,-0.130 -0.129,-0.081 -0.097,-0.041 -0.064,-0.014 -0.032,-0.002 0.000,0.000 0.032,0.002 0.064,0.014 0.097,0.041 0.129,0.081 0.161,0.130 0.193,0.184 0.225,0.240 0.257,0.296 0.290,0.351 0.322,0.405 0.354,0.455 0.386,0.504 0.418,0.549 0.451,0.591 0.483,0.631 0.515,0.667 0.547,0.700 0.579,0.731 0.611,0.759 0.644,0.784 0.676,0.807 0.708,0.828 0.740,0.847 0.772,0.864 0.805,0.879 0.837,0.892 0.869,0.905 0.901,0.915 0.933,0.925 0.965,0.934 0.998,0.941 1.030,0.948 1.062,0.954 1.094,0.959 1.126,0.964 1.159,0.968 1.191,0.972 1.223,0.975 1.255,0.978 1.287,0.981 1.319,0.983 1.352,0.985 1.384,0.987 1.416,0.988 1.448,0.990 1.480,0.991 1.513,0.992 1.545,0.993 1.577,0.994 1.609,0.994" />
</g>
</svg>