<svg xmlns="http://www.w3.org/2000/svg" width="161.8" height="100.0" viewBox="-86.719 -55.013 171.803 110.000">
<g fill="none" stroke="black" stroke-width="0.0100%" transform="translate(0, -0.0250) scale(50.1996, -50.1996)">
<circle cx="-1.628" cy="0.000" r="0.010" />
<circle cx="0.000" cy="0.996" r="0.010" />
<polyline points="-1.628,-0.996 -1.595,-0.996 -1.563,-0.995 -1.530,-0.995 -1.498,-0.994 -1.465,-0.993 -1.433,-0.992 -1.400,-0.991 -1.367,-0.990 -1.335,-0.988 -1.302,-0.987 -1.270,-0.985 -1.237,-0.983 -1.205,-0.981 -1.172,-0.979 -1.140,-0.976 -1.107,-0.972 -1.074,-0.969 -1.042,-0.965 -1.009,-0.960 -0.977,-0.955 -0.944,-0.949 -0.912,-0.942 -0.879,-0.935 -0.846,-0.927 -0.814,-0.917 -0.781,-0.907 -0.749,-0.895 -0.716,-0.881 -0.684,-0.867 -0.651,-0.850 -0.619,-0.832 -0.586,-0.811 -0.553,-0.789 -0.521,-0.764 -0.488,-0.736 -0.456,-0.706 -0.423,-0.673 -0.391,-0.638 -0.358,-0.599 -0.326,-0.557 -0.293,-0.512 -0.260,-0.464 -0.228,-0.413 -0.195,-0.360 -0.163,-0.304 -0.130,-0.246 -0.098,-0.186 -0.065,-0.125 -0.033,-0.063 0.000,0.000 0.033,0.063 0.065,0.125 0.098,0.186 0.130,0.246 0.163,0.304 0.195,0.360 0.228,0.413 0.260,0.464 0.293,0.512 0.326,0.557 0.358,0.599 0.391,0.638 0.423,0.673 0.456,0.706 0.488,0.736 0.521,0.764 0.553,0.789 0.586,0.811 0.619,0.832 0.651,0.850 0.684,0.867 0.716,0.881 0.749,0.895 0.781,0.907 0.814,0.917 0.846,0.927 0.879,0.935 0.912,0.942 0.944,0.949 0.977,0.955 1.009,0.960 1.042,0.965 1.074,0.969 1.107,0.972 1.140,0.976 1.172,0.979 1.205,0.981 1.237,0.983 1.270,0.985 1.302,0.987 1.335,0.988 1.367,0.990 1.400,0.991 1.433,0.992 1.465,0.993 1.498,0.994 1.530,0.995 1.563,0.995 1.595,0.996" />
<polyline points="-1.628,-0.996 -1.595,-0.996 -1.563,-0.995 -1.530,-0.995 -1.498,-0.994 -1.465,-0.993 -1.433,-0.992 -1.400,-0.991 -1.367,-0.990 -1.335,-0.988 -1.302,-0.987 -1.270,-0.985 -1.237,-0.983 -1.205,-0.981 -1.172,-0.979 -1.140,-0.976 -1.107,-0.972 -1.074,-0.969 -1.042,-0.965 -1.009,-0.960 -0.977,-0.955 -0.944,-0.949 -0.912,-0.942 -0.879,-0.935 -0.846,-0.927 -0.814,-0.917 -0.781,-0.907 -0.749,-0.895 -0.716,-0.881 -0.684,-0.867 -0.651,-0.850 -0.619,-0.832 -0.586,-0.811 -0.553,-0.789 -0.521,-0.764 -0.488,-0.736 -0.456,-0.706 -0.423,-0.673 -0.391,-0.638 -0.358,-0.599 -0.326,-0.557 -0.293,-0.512 -0.260,-0.464 -0.228,-0.413 -0.195,-0.360 -0.163,-0.304 -0.130,-0.246 -0.098,-0.186 -0.065,-0.125 -0.033,-0.063 0.000,0.000 0.033,0.063 0.065,0.125 0.098,0.186 0.130,0.246 0.163,0.304 0.195,0.360 0.228,0.413 0.260,0.464 0.293,0.512 0.326,0.557 0.358,0.599 0.391,0.638 0.423,0.673 0.456,0.706 0.488,0.736 0.521,0.764 0.553,0.789 0.586,0.811 0.619,0.832 0.651,0.850 0.684,0.867 0.716,0.881 0.749,0.895 0.781,0.907 0.814,0.917 0.846,0.927 0.879,0.935 0.912,0.942 0.944,0.949 0.977,0.955 1.009,0.960 1.042,0.965 1.074,0.969 1.107,0.972 1.140,0.976 1.172,0.979 1.205,0.981 1.237,0.983 1.270,0.985 1.302,0.987 1.335,0.988 1.367,0.990 1.400,0.991 1.433,0.992 1.465,0.993 1.498,0.994 1.530,0.995 1.563,0.995 1.595,0.996" />
</g>
</svg>