<svg xmlns="http://www.w3.org/2000/svg" width="161.8" height="100.0" viewBox="-5.000 -1.199 171.803 110.000">
<g fill="none" stroke="black" stroke-width="0.0048%" transform="translate(0, 107.6022) scale(103.8011, -103.8011)">
<polyline points="0.000,1.000 0.000,0.999 0.000,0.997 0.000,0.993 0.001,0.987 0.001,0.980 0.002,0.972 0.004,0.962 0.005,0.951 0.008,0.939 0.010,0.925 0.014,0.910 0.018,0.895 0.022,0.879 0.027,0.861 0.033,0.844 0.039,0.825 0.046,0.806 0.054,0.787 0.062,0.767 0.071,0.748 0.080,0.728 0.090,0.708 0.101,0.688 0.112,0.668 0.124,0.648 0.136,0.628 0.149,0.609 0.162,0.590 0.176,0.571 0.190,0.552 0.205,0.534 0.220,0.516 0.235,0.499 0.251,0.482 0.267,0.465 0.284,0.449 0.301,0.433 0.318,0.417 0.335,0.402 0.352,0.388 0.370,0.374 0.388,0.360 0.406,0.347 0.425,0.334 0.443,0.322 0.462,0.310 0.481,0.298 0.500,0.287 0.519,0.276 0.538,0.266 0.558,0.256 0.577,0.246 0.597,0.237 0.616,0.228 0.636,0.219 0.656,0.211 0.676,0.202 0.696,0.195 0.716,0.187 0.736,0.180 0.756,0.173 0.776,0.166 0.796,0.160 0.817,0.154 0.837,0.148 0.857,0.142 0.878,0.136 0.898,0.131 0.918,0.126 0.939,0.121 0.959,0.116 0.980,0.112 1.000,0.108 1.021,0.103 1.042,0.099 1.062,0.095 1.083,0.092 1.103,0.088 1.124,0.085 1.145,0.081 1.165,0.078 1.186,0.075 1.207,0.072 1.227,0.069 1.248,0.067 1.269,0.064 1.289,0.062 1.310,0.059 1.331,0.057 1.351,0.055 1.372,0.052 1.393,0.050 1.414,0.048 1.434,0.047 1.455,0.045 1.476,0.043 1.497,0.041 1.517,0.040 1.538,0.038 1.559,0.037" />
</g>
</svg>