<svg xmlns="http://www.w3.org/2000/svg" width="161.8" height="100.0" viewBox="-4.06 -1.55 171.80 110.00">
<g fill="none" stroke="black" stroke-width="0.1450%" transform="translate(0, 106.8966) scale(3.4483, -3.4483)">
<circle cx="0.27" cy="1.00" r="0.15" />
<circle cx="0.54" cy="2.00" r="0.15" />
<circle cx="0.81" cy="2.00" r="0.15" />
<circle cx="1.08" cy="3.00" r="0.15" />
<circle cx="1.36" cy="2.00" r="0.15" />
<circle cx="1.63" cy="4.00" r="0.15" />
<circle cx="1.90" cy="4.00" r="0.15" />
<circle cx="2.17" cy="3.00" r="0.15" />
<circle cx="2.44" cy="5.00" r="0.15" />
<circle cx="2.71" cy="4.00" r="0.15" />
<circle cx="2.98" cy="3.00" r="0.15" />
<circle cx="3.25" cy="6.00" r="0.15" />
<circle cx="3.53" cy="6.00" r="0.15" />
<circle cx="3.80" cy="6.00" r="0.15" />
<circle cx="4.07" cy="4.00" r="0.15" />
<circle cx="4.34" cy="7.00" r="0.15" />
<circle cx="4.61" cy="6.00" r="0.15" />
<circle cx="4.88" cy="6.00" r="0.15" />
<circle cx="5.15" cy="4.00" r="0.15" />
<circle cx="5.42" cy="8.00" r="0.15" />
<circle cx="5.70" cy="8.00" r="0.15" />
<circle cx="5.97" cy="6.00" r="0.15" />
<circle cx="6.24" cy="4.00" r="0.15" />
<circle cx="6.51" cy="9.00" r="0.15" />
<circle cx="6.78" cy="8.00" r="0.15" />
<circle cx="7.05" cy="6.00" r="0.15" />
<circle cx="7.32" cy="4.00" r="0.15" />
<circle cx="7.59" cy="10.00" r="0.15" />
<circle cx="7.87" cy="10.00" r="0.15" />
<circle cx="8.14" cy="9.00" r="0.15" />
<circle cx="8.41" cy="8.00" r="0.15" />
<circle cx="8.68" cy="5.00" r="0.15" />
<circle cx="8.95" cy="11.00" r="0.15" />
<circle cx="9.22" cy="10.00" r="0.15" />
<circle cx="9.49" cy="9.00" r="0.15" />
<circle cx="9.76" cy="8.00" r="0.15" />
<circle cx="10.04" cy="5.00" r="0.15" />
<circle cx="10.31" cy="12.00" r="0.15" />
<circle cx="10.58" cy="12.00" r="0.15" />
<circle cx="10.85" cy="12.00" r="0.15" />
<circle cx="11.12" cy="12.00" r="0.15" />
<circle cx="11.39" cy="10.00" r="0.15" />
<circle cx="11.66" cy="6.00" r="0.15" />
<circle cx="11.93" cy="13.00" r="0.15" />
<circle cx="12.21" cy="12.00" r="0.15" />
<circle cx="12.48" cy="12.00" r="0.15" />
<circle cx="12.75" cy="12.00" r="0.15" />
<circle cx="13.02" cy="10.00" r="0.15" />
<circle cx="13.29" cy="6.00" r="0.15" />
<circle cx="13.56" cy="14.00" r="0.15" />
<circle cx="13.83" cy="14.00" r="0.15" />
<circle cx="14.10" cy="12.00" r="0.15" />
<circle cx="14.38" cy="12.00" r="0.15" />
<circle cx="14.65" cy="10.00" r="0.15" />
<circle cx="14.92" cy="6.00" r="0.15" />
<circle cx="15.19" cy="15.00" r="0.15" />
<circle cx="15.46" cy="14.00" r="0.15" />
<circle cx="15.73" cy="12.00" r="0.15" />
<circle cx="16.00" cy="12.00" r="0.15" />
<circle cx="16.27" cy="10.00" r="0.15" />
<circle cx="16.55" cy="6.00" r="0.15" />
<circle cx="16.82" cy="16.00" r="0.15" />
<circle cx="17.09" cy="16.00" r="0.15" />
<circle cx="17.36" cy="15.00" r="0.15" />
<circle cx="17.63" cy="12.00" r="0.15" />
<circle cx="17.90" cy="10.00" r="0.15" />
<circle cx="18.17" cy="6.00" r="0.15" />
<circle cx="18.44" cy="17.00" r="0.15" />
<circle cx="18.71" cy="16.00" r="0.15" />
<circle cx="18.99" cy="15.00" r="0.15" />
<circle cx="19.26" cy="12.00" r="0.15" />
<circle cx="19.53" cy="10.00" r="0.15" />
<circle cx="19.80" cy="6.00" r="0.15" />
<circle cx="20.07" cy="18.00" r="0.15" />
<circle cx="20.34" cy="18.00" r="0.15" />
<circle cx="20.61" cy="18.00" r="0.15" />
<circle cx="20.88" cy="16.00" r="0.15" />
<circle cx="21.16" cy="15.00" r="0.15" />
<circle cx="21.43" cy="12.00" r="0.15" />
<circle cx="21.70" cy="7.00" r="0.15" />
<circle cx="21.97" cy="19.00" r="0.15" />
<circle cx="22.24" cy="18.00" r="0.15" />
<circle cx="22.51" cy="18.00" r="0.15" />
<circle cx="22.78" cy="16.00" r="0.15" />
<circle cx="23.05" cy="15.00" r="0.15" />
<circle cx="23.33" cy="12.00" r="0.15" />
<circle cx="23.60" cy="7.00" r="0.15" />
<circle cx="23.87" cy="20.00" r="0.15" />
<circle cx="24.14" cy="20.00" r="0.15" />
<circle cx="24.41" cy="18.00" r="0.15" />
<circle cx="24.68" cy="16.00" r="0.15" />
<circle cx="24.95" cy="15.00" r="0.15" />
<circle cx="25.22" cy="12.00" r="0.15" />
<circle cx="25.50" cy="7.00" r="0.15" />
<circle cx="25.77" cy="21.00" r="0.15" />
<circle cx="26.04" cy="20.00" r="0.15" />
<circle cx="26.31" cy="18.00" r="0.15" />
<circle cx="26.58" cy="16.00" r="0.15" />
<circle cx="26.85" cy="15.00" r="0.15" />
<circle cx="27.12" cy="12.00" r="0.15" />
<circle cx="27.39" cy="7.00" r="0.15" />
<circle cx="27.67" cy="22.00" r="0.15" />
<circle cx="27.94" cy="22.00" r="0.15" />
<circle cx="28.21" cy="21.00" r="0.15" />
<circle cx="28.48" cy="20.00" r="0.15" />
<circle cx="28.75" cy="20.00" r="0.15" />
<circle cx="29.02" cy="18.00" r="0.15" />
<circle cx="29.29" cy="14.00" r="0.15" />
<circle cx="29.56" cy="8.00" r="0.15" />
<circle cx="29.84" cy="23.00" r="0.15" />
<circle cx="30.11" cy="22.00" r="0.15" />
<circle cx="30.38" cy="21.00" r="0.15" />
<circle cx="30.65" cy="20.00" r="0.15" />
<circle cx="30.92" cy="20.00" r="0.15" />
<circle cx="31.19" cy="18.00" r="0.15" />
<circle cx="31.46" cy="14.00" r="0.15" />
<circle cx="31.73" cy="8.00" r="0.15" />
<circle cx="32.01" cy="24.00" r="0.15" />
<circle cx="32.28" cy="24.00" r="0.15" />
<circle cx="32.55" cy="24.00" r="0.15" />
<circle cx="32.82" cy="24.00" r="0.15" />
<circle cx="33.09" cy="20.00" r="0.15" />
<circle cx="33.36" cy="18.00" r="0.15" />
<circle cx="33.63" cy="14.00" r="0.15" />
<circle cx="33.90" cy="8.00" r="0.15" />
<circle cx="34.18" cy="25.00" r="0.15" />
<circle cx="34.45" cy="24.00" r="0.15" />
<circle cx="34.72" cy="24.00" r="0.15" />
<circle cx="34.99" cy="24.00" r="0.15" />
<circle cx="35.26" cy="20.00" r="0.15" />
<circle cx="35.53" cy="18.00" r="0.15" />
<circle cx="35.80" cy="14.00" r="0.15" />
<circle cx="36.07" cy="8.00" r="0.15" />
<circle cx="36.34" cy="26.00" r="0.15" />
<circle cx="36.62" cy="26.00" r="0.15" />
<circle cx="36.89" cy="24.00" r="0.15" />
<circle cx="37.16" cy="24.00" r="0.15" />
<circle cx="37.43" cy="20.00" r="0.15" />
<circle cx="37.70" cy="18.00" r="0.15" />
<circle cx="37.97" cy="14.00" r="0.15" />
<circle cx="38.24" cy="8.00" r="0.15" />
<circle cx="38.51" cy="27.00" r="0.15" />
<circle cx="38.79" cy="26.00" r="0.15" />
<circle cx="39.06" cy="24.00" r="0.15" />
<circle cx="39.33" cy="24.00" r="0.15" />
<circle cx="39.60" cy="20.00" r="0.15" />
<circle cx="39.87" cy="18.00" r="0.15" />
<circle cx="40.14" cy="14.00" r="0.15" />
<circle cx="40.41" cy="8.00" r="0.15" />
<circle cx="40.68" cy="28.00" r="0.15" />
<circle cx="40.96" cy="28.00" r="0.15" />
<circle cx="41.23" cy="27.00" r="0.15" />
<circle cx="41.50" cy="24.00" r="0.15" />
<circle cx="41.77" cy="20.00" r="0.15" />
<circle cx="42.04" cy="18.00" r="0.15" />
<circle cx="42.31" cy="14.00" r="0.15" />
<circle cx="42.58" cy="8.00" r="0.15" />
<circle cx="42.85" cy="29.00" r="0.15" />
<circle cx="43.13" cy="28.00" r="0.15" />
<circle cx="43.40" cy="27.00" r="0.15" />
<circle cx="43.67" cy="24.00" r="0.15" />
<circle cx="43.94" cy="20.00" r="0.15" />
<circle cx="44.21" cy="18.00" r="0.15" />
<circle cx="44.48" cy="14.00" r="0.15" />
<circle cx="44.75" cy="8.00" r="0.15" />
<circle cx="45.02" cy="30.00" r="0.15" />
<circle cx="45.30" cy="30.00" r="0.15" />
<circle cx="45.57" cy="30.00" r="0.15" />
<circle cx="45.84" cy="28.00" r="0.15" />
<circle cx="46.11" cy="25.00" r="0.15" />
<circle cx="46.38" cy="24.00" r="0.15" />
<circle cx="46.65" cy="21.00" r="0.15" />
<circle cx="46.92" cy="16.00" r="0.15" />
<circle cx="47.19" cy="9.00" r="0.15" />
</g>
</svg>