<svg xmlns="http://www.w3.org/2000/svg" width="161.8" height="100.0" viewBox="-5.000 -55.000 171.803 110.000">
<g fill="none" stroke="black" stroke-width="0.0100%" transform="translate(0, 0.0000) scale(50.0000, -50.0000)">
<polyline points="0.000,1.000 0.000,1.000 0.000,1.000 0.022,1.000 0.022,1.000 0.043,1.000 0.043,1.000 0.065,1.000 0.065,1.000 0.086,1.000 0.086,1.000 0.108,1.000 0.108,1.000 0.129,1.000 0.129,1.000 0.151,1.000 0.151,1.000 0.173,1.000 0.173,1.000 0.194,1.000 0.194,1.000 0.216,1.000 0.216,1.000 0.237,1.000 0.237,1.000 0.259,1.000 0.259,1.000 0.280,1.000 0.280,1.000 0.302,1.000 0.302,1.000 0.324,1.000 0.324,1.000 0.345,1.000 0.345,1.000 0.367,1.000 0.367,1.000 0.388,1.000 0.388,1.000 0.410,1.000 0.410,-1.000 0.431,-1.000 0.431,-1.000 0.453,-1.000 0.453,-1.000 0.475,-1.000 0.475,-1.000 0.496,-1.000 0.496,-1.000 0.518,-1.000 0.518,-1.000 0.539,-1.000 0.539,-1.000 0.561,-1.000 0.561,-1.000 0.582,-1.000 0.582,-1.000 0.604,-1.000 0.604,-1.000 0.626,-1.000 0.626,-1.000 0.647,-1.000 0.647,-1.000 0.669,-1.000 0.669,-1.000 0.690,-1.000 0.690,-1.000 0.712,-1.000 0.712,-1.000 0.734,-1.000 0.734,-1.000 0.755,-1.000 0.755,-1.000 0.777,-1.000 0.777,-1.000 0.798,-1.000 0.798,1.000 0.820,1.000 0.820,-1.000 0.841,-1.000 0.841,-1.000 0.863,-1.000 0.863,-1.000 0.885,-1.000 0.885,-1.000 0.906,-1.000 0.906,-1.000 0.928,-1.000 0.928,-1.000 0.949,-1.000 0.949,-1.000 0.971,-1.000 0.971,-1.000 0.992,-1.000 0.992,-1.000 1.014,-1.000 1.014,-1.000 1.036,-1.000 1.036,-1.000 1.057,-1.000 1.057,-1.000 1.079,-1.000 1.079,-1.000 1.100,-1.000 1.100,-1.000 1.122,-1.000 1.122,-1.000 1.143,-1.000 1.143,1.000 1.165,1.000 1.165,-1.000 1.187,-1.000 1.187,-1.000 1.208,-1.000 1.208,-1.000 1.230,-1.000 1.230,-1.000 1.251,-1.000 1.251,-1.000 1.273,-1.000 1.273,-1.000 1.294,-1.000 1.294,-1.000 1.316,-1.000 1.316,-1.000 1.338,-1.000 1.338,-1.000 1.359,-1.000 1.359,-1.000 1.381,-1.000 1.381,1.000 1.402,1.000 1.402,1.000 1.424,1.000 1.424,-1.000 1.445,-1.000 1.445,1.000 1.467,1.000 1.467,1.000 1.489,1.000 1.489,1.000 1.510,1.000 1.510,1.000 1.532,1.000 1.532,1.000 1.553,1.000 1.553,-1.000 1.575,-1.000 1.575,-1.000 1.596,-1.000 1.596,-1.000 1.618,-1.000 1.618,1.000 1.640,1.000 1.640,1.000 1.661,1.000 1.661,1.000 1.683,1.000 1.683,1.000 1.704,1.000 1.704,1.000 1.726,1.000 1.726,1.000 1.747,1.000 1.747,1.000 1.769,1.000 1.769,1.000 1.791,1.000 1.791,1.000 1.812,1.000 1.812,1.000 1.834,1.000 1.834,1.000 1.855,1.000 1.855,1.000 1.877,1.000 1.877,1.000 1.898,1.000 1.898,1.000 1.920,1.000 1.920,1.000 1.942,1.000 1.942,1.000 1.963,1.000 1.963,1.000 1.985,1.000 1.985,1.000 2.006,1.000 2.006,1.000 2.028,1.000 2.028,1.000 2.050,1.000 2.050,-1.000 2.071,-1.000 2.071,-1.000 2.093,-1.000 2.093,-1.000 2.114,-1.000 2.114,-1.000 2.136,-1.000 2.136,-1.000 2.157,-1.000 2.157,-1.000 2.179,-1.000 2.179,-1.000 2.201,-1.000 2.201,-1.000 2.222,-1.000 2.222,-1.000 2.244,-1.000 2.244,-1.000 2.265,-1.000 2.265,-1.000 2.287,-1.000 2.287,-1.000 2.308,-1.000 2.308,-1.000 2.330,-1.000 2.330,1.000 2.352,1.000 2.352,1.000 2.373,1.000 2.373,1.000 2.395,1.000 2.395,1.000 2.416,1.000 2.416,1.000 2.438,1.000 2.438,1.000 2.459,1.000 2.459,1.000 2.481,1.000 2.481,1.000 2.503,1.000 2.503,-1.000 2.524,-1.000 2.524,-1.000 2.546,-1.000 2.546,-1.000 2.567,-1.000 2.567,-1.000 2.589,-1.000 2.589,-1.000 2.610,-1.000 2.610,-1.000 2.632,-1.000 2.632,-1.000 2.654,-1.000 2.654,-1.000 2.675,-1.000 2.675,-1.000 2.697,-1.000 2.697,-1.000 2.718,-1.000 2.718,-1.000 2.740,-1.000 2.740,-1.000 2.761,-1.000 2.761,-1.000 2.783,-1.000 2.783,-1.000 2.805,-1.000 2.805,-1.000 2.826,-1.000 2.826,-1.000 2.848,-1.000 2.848,-1.000 2.869,-1.000 2.869,-1.000 2.891,-1.000 2.891,-1.000 2.912,-1.000 2.912,-1.000 2.934,-1.000 2.934,-1.000 2.956,-1.000 2.956,1.000 2.977,1.000 2.977,1.000 2.999,1.000 2.999,1.000 3.020,1.000 3.020,1.000 3.042,1.000 3.042,1.000 3.063,1.000 3.063,1.000 3.085,1.000 3.085,1.000 3.107,1.000 3.107,1.000 3.128,1.000 3.128,-1.000 3.150,-1.000 3.150,-1.000 3.171,-1.000 3.171,-1.000 3.193,-1.000 3.193,1.000 3.214,1.000 3.214,1.000 3.236,1.000" />
</g>
</svg>