<svg xmlns="http://www.w3.org/2000/svg" width="161.8" height="100.0" viewBox="13.0 -5.0 171.8 110.0">
<g fill="none" stroke="black" stroke-width="0.3150%" transform="translate(0, 100.0000) scale(1.5873, -1.5873)">
<circle cx="11.3" cy="0.0" r="0.3" />
<circle cx="11.3" cy="0.0" r="0.3" />
<circle cx="13.6" cy="2.3" r="0.3" />
<circle cx="15.9" cy="2.8" r="0.3" />
<circle cx="18.1" cy="3.6" r="0.3" />
<circle cx="20.4" cy="5.5" r="0.3" />
<circle cx="22.7" cy="7.2" r="0.3" />
<circle cx="24.9" cy="9.1" r="0.3" />
<circle cx="27.2" cy="9.6" r="0.3" />
<circle cx="29.4" cy="10.5" r="0.3" />
<circle cx="31.7" cy="12.6" r="0.3" />
<circle cx="34.0" cy="13.5" r="0.3" />
<circle cx="36.2" cy="14.0" r="0.3" />
<circle cx="38.5" cy="14.5" r="0.3" />
<circle cx="40.8" cy="15.2" r="0.3" />
<circle cx="43.0" cy="17.3" r="0.3" />
<circle cx="45.3" cy="18.4" r="0.3" />
<circle cx="47.6" cy="20.9" r="0.3" />
<circle cx="49.8" cy="22.4" r="0.3" />
<circle cx="52.1" cy="23.1" r="0.3" />
<circle cx="54.4" cy="23.6" r="0.3" />
<circle cx="56.6" cy="24.1" r="0.3" />
<circle cx="58.9" cy="24.5" r="0.3" />
<circle cx="61.2" cy="25.0" r="0.3" />
<circle cx="63.4" cy="26.7" r="0.3" />
<circle cx="65.7" cy="27.2" r="0.3" />
<circle cx="68.0" cy="27.5" r="0.3" />
<circle cx="70.2" cy="27.8" r="0.3" />
<circle cx="72.5" cy="28.4" r="0.3" />
<circle cx="74.8" cy="29.6" r="0.3" />
<circle cx="77.0" cy="31.7" r="0.3" />
<circle cx="79.3" cy="35.0" r="0.3" />
<circle cx="81.5" cy="35.8" r="0.3" />
<circle cx="83.8" cy="36.5" r="0.3" />
<circle cx="86.1" cy="37.4" r="0.3" />
<circle cx="88.3" cy="40.0" r="0.3" />
<circle cx="90.6" cy="41.8" r="0.3" />
<circle cx="92.9" cy="43.0" r="0.3" />
<circle cx="95.1" cy="43.4" r="0.3" />
<circle cx="97.4" cy="43.7" r="0.3" />
<circle cx="99.7" cy="44.2" r="0.3" />
<circle cx="101.9" cy="44.9" r="0.3" />
<circle cx="104.2" cy="46.8" r="0.3" />
<circle cx="106.5" cy="50.0" r="0.3" />
<circle cx="108.7" cy="51.4" r="0.3" />
<circle cx="111.0" cy="51.9" r="0.3" />
<circle cx="113.3" cy="55.0" r="0.3" />
<circle cx="11.3" cy="0.0" r="0.3" />
<circle cx="13.6" cy="0.9" r="0.3" />
<circle cx="15.9" cy="2.1" r="0.3" />
<circle cx="18.1" cy="3.2" r="0.3" />
<circle cx="20.4" cy="5.5" r="0.3" />
<circle cx="22.7" cy="8.2" r="0.3" />
<circle cx="24.9" cy="9.9" r="0.3" />
<circle cx="27.2" cy="11.7" r="0.3" />
<circle cx="29.4" cy="14.1" r="0.3" />
<circle cx="31.7" cy="16.8" r="0.3" />
<circle cx="34.0" cy="19.0" r="0.3" />
<circle cx="36.2" cy="20.1" r="0.3" />
<circle cx="38.5" cy="20.9" r="0.3" />
<circle cx="40.8" cy="23.1" r="0.3" />
<circle cx="43.0" cy="23.5" r="0.3" />
<circle cx="45.3" cy="24.0" r="0.3" />
<circle cx="47.6" cy="25.3" r="0.3" />
<circle cx="49.8" cy="26.2" r="0.3" />
<circle cx="52.1" cy="27.2" r="0.3" />
<circle cx="54.4" cy="27.6" r="0.3" />
<circle cx="56.6" cy="28.0" r="0.3" />
<circle cx="58.9" cy="29.3" r="0.3" />
<circle cx="61.2" cy="31.7" r="0.3" />
<circle cx="63.4" cy="33.8" r="0.3" />
<circle cx="65.7" cy="34.3" r="0.3" />
<circle cx="68.0" cy="34.6" r="0.3" />
<circle cx="70.2" cy="34.9" r="0.3" />
<circle cx="72.5" cy="36.3" r="0.3" />
<circle cx="74.8" cy="36.7" r="0.3" />
<circle cx="77.0" cy="37.3" r="0.3" />
<circle cx="79.3" cy="38.0" r="0.3" />
<circle cx="81.5" cy="39.4" r="0.3" />
<circle cx="83.8" cy="40.3" r="0.3" />
<circle cx="86.1" cy="41.3" r="0.3" />
<circle cx="88.3" cy="41.7" r="0.3" />
<circle cx="90.6" cy="42.1" r="0.3" />
<circle cx="92.9" cy="42.7" r="0.3" />
<circle cx="95.1" cy="43.5" r="0.3" />
<circle cx="97.4" cy="45.4" r="0.3" />
<circle cx="99.7" cy="46.6" r="0.3" />
<circle cx="101.9" cy="47.3" r="0.3" />
<circle cx="104.2" cy="47.9" r="0.3" />
<circle cx="106.5" cy="50.1" r="0.3" />
<circle cx="108.7" cy="51.7" r="0.3" />
<circle cx="111.0" cy="53.4" r="0.3" />
<circle cx="113.3" cy="54.0" r="0.3" />
<circle cx="11.3" cy="0.0" r="0.3" />
<circle cx="13.6" cy="1.4" r="0.3" />
<circle cx="15.9" cy="3.7" r="0.3" />
<circle cx="18.1" cy="4.8" r="0.3" />
<circle cx="20.4" cy="5.6" r="0.3" />
<circle cx="22.7" cy="7.0" r="0.3" />
<circle cx="24.9" cy="8.7" r="0.3" />
<circle cx="27.2" cy="9.6" r="0.3" />
<circle cx="29.4" cy="11.5" r="0.3" />
<circle cx="31.7" cy="12.8" r="0.3" />
<circle cx="34.0" cy="13.5" r="0.3" />
<circle cx="36.2" cy="15.2" r="0.3" />
<circle cx="38.5" cy="15.9" r="0.3" />
<circle cx="40.8" cy="16.8" r="0.3" />
<circle cx="43.0" cy="17.8" r="0.3" />
<circle cx="45.3" cy="19.0" r="0.3" />
<circle cx="47.6" cy="19.5" r="0.3" />
<circle cx="49.8" cy="20.1" r="0.3" />
<circle cx="52.1" cy="20.7" r="0.3" />
<circle cx="54.4" cy="22.2" r="0.3" />
<circle cx="56.6" cy="22.8" r="0.3" />
<circle cx="58.9" cy="26.1" r="0.3" />
<circle cx="61.2" cy="26.8" r="0.3" />
<circle cx="63.4" cy="29.1" r="0.3" />
<circle cx="65.7" cy="29.5" r="0.3" />
<circle cx="68.0" cy="29.9" r="0.3" />
<circle cx="70.2" cy="32.1" r="0.3" />
<circle cx="72.5" cy="32.5" r="0.3" />
<circle cx="74.8" cy="32.9" r="0.3" />
<circle cx="77.0" cy="33.3" r="0.3" />
<circle cx="79.3" cy="33.7" r="0.3" />
<circle cx="81.5" cy="34.1" r="0.3" />
<circle cx="83.8" cy="35.6" r="0.3" />
<circle cx="86.1" cy="37.3" r="0.3" />
<circle cx="88.3" cy="38.3" r="0.3" />
<circle cx="90.6" cy="42.4" r="0.3" />
<circle cx="92.9" cy="43.8" r="0.3" />
<circle cx="95.1" cy="44.6" r="0.3" />
<circle cx="97.4" cy="45.8" r="0.3" />
<circle cx="99.7" cy="47.1" r="0.3" />
<circle cx="101.9" cy="47.4" r="0.3" />
<circle cx="104.2" cy="47.8" r="0.3" />
<circle cx="106.5" cy="48.4" r="0.3" />
<circle cx="108.7" cy="49.4" r="0.3" />
<circle cx="111.0" cy="50.3" r="0.3" />
<circle cx="113.3" cy="52.0" r="0.3" />
<circle cx="11.3" cy="0.0" r="0.3" />
<circle cx="13.6" cy="0.9" r="0.3" />
<circle cx="15.9" cy="3.1" r="0.3" />
<circle cx="18.1" cy="6.4" r="0.3" />
<circle cx="20.4" cy="7.6" r="0.3" />
<circle cx="22.7" cy="8.6" r="0.3" />
<circle cx="24.9" cy="9.5" r="0.3" />
<circle cx="27.2" cy="11.3" r="0.3" />
<circle cx="29.4" cy="13.6" r="0.3" />
<circle cx="31.7" cy="15.5" r="0.3" />
<circle cx="34.0" cy="16.6" r="0.3" />
<circle cx="36.2" cy="18.2" r="0.3" />
<circle cx="38.5" cy="18.9" r="0.3" />
<circle cx="40.8" cy="19.8" r="0.3" />
<circle cx="43.0" cy="21.0" r="0.3" />
<circle cx="45.3" cy="21.5" r="0.3" />
<circle cx="47.6" cy="21.9" r="0.3" />
<circle cx="49.8" cy="23.3" r="0.3" />
<circle cx="52.1" cy="24.6" r="0.3" />
<circle cx="54.4" cy="28.4" r="0.3" />
<circle cx="56.6" cy="29.4" r="0.3" />
<circle cx="58.9" cy="30.2" r="0.3" />
<circle cx="61.2" cy="30.6" r="0.3" />
<circle cx="63.4" cy="31.1" r="0.3" />
<circle cx="65.7" cy="31.7" r="0.3" />
<circle cx="68.0" cy="33.2" r="0.3" />
<circle cx="70.2" cy="33.9" r="0.3" />
<circle cx="72.5" cy="37.4" r="0.3" />
<circle cx="74.8" cy="38.5" r="0.3" />
<circle cx="77.0" cy="39.4" r="0.3" />
<circle cx="79.3" cy="40.8" r="0.3" />
<circle cx="81.5" cy="41.6" r="0.3" />
<circle cx="83.8" cy="44.1" r="0.3" />
<circle cx="86.1" cy="45.4" r="0.3" />
<circle cx="88.3" cy="46.1" r="0.3" />
<circle cx="90.6" cy="47.5" r="0.3" />
<circle cx="92.9" cy="48.6" r="0.3" />
<circle cx="95.1" cy="50.3" r="0.3" />
<circle cx="97.4" cy="52.2" r="0.3" />
<circle cx="99.7" cy="53.0" r="0.3" />
<circle cx="101.9" cy="53.8" r="0.3" />
<circle cx="104.2" cy="56.1" r="0.3" />
<circle cx="106.5" cy="57.4" r="0.3" />
<circle cx="108.7" cy="60.1" r="0.3" />
<circle cx="111.0" cy="62.3" r="0.3" />
<circle cx="113.3" cy="63.0" r="0.3" />
<circle cx="11.3" cy="0.0" r="0.3" />
<circle cx="13.6" cy="2.0" r="0.3" />
<circle cx="15.9" cy="3.2" r="0.3" />
<circle cx="18.1" cy="3.6" r="0.3" />
<circle cx="20.4" cy="5.1" r="0.3" />
<circle cx="22.7" cy="6.3" r="0.3" />
<circle cx="24.9" cy="7.7" r="0.3" />
<circle cx="27.2" cy="9.0" r="0.3" />
<circle cx="29.4" cy="9.5" r="0.3" />
<circle cx="31.7" cy="10.9" r="0.3" />
<circle cx="34.0" cy="14.1" r="0.3" />
<circle cx="36.2" cy="15.1" r="0.3" />
<circle cx="38.5" cy="15.4" r="0.3" />
<circle cx="40.8" cy="15.7" r="0.3" />
<circle cx="43.0" cy="16.0" r="0.3" />
<circle cx="45.3" cy="18.2" r="0.3" />
<circle cx="47.6" cy="18.7" r="0.3" />
<circle cx="49.8" cy="19.6" r="0.3" />
<circle cx="52.1" cy="22.2" r="0.3" />
<circle cx="54.4" cy="22.9" r="0.3" />
<circle cx="56.6" cy="24.4" r="0.3" />
<circle cx="58.9" cy="25.1" r="0.3" />
<circle cx="61.2" cy="25.5" r="0.3" />
<circle cx="63.4" cy="25.8" r="0.3" />
<circle cx="65.7" cy="26.5" r="0.3" />
<circle cx="68.0" cy="29.1" r="0.3" />
<circle cx="70.2" cy="30.0" r="0.3" />
<circle cx="72.5" cy="30.8" r="0.3" />
<circle cx="74.8" cy="31.2" r="0.3" />
<circle cx="77.0" cy="31.5" r="0.3" />
<circle cx="79.3" cy="31.8" r="0.3" />
<circle cx="81.5" cy="32.2" r="0.3" />
<circle cx="83.8" cy="34.0" r="0.3" />
<circle cx="86.1" cy="35.2" r="0.3" />
<circle cx="88.3" cy="37.3" r="0.3" />
<circle cx="90.6" cy="40.1" r="0.3" />
<circle cx="92.9" cy="40.4" r="0.3" />
<circle cx="95.1" cy="40.6" r="0.3" />
<circle cx="97.4" cy="40.9" r="0.3" />
<circle cx="99.7" cy="42.0" r="0.3" />
<circle cx="101.9" cy="43.1" r="0.3" />
<circle cx="104.2" cy="43.3" r="0.3" />
<circle cx="106.5" cy="43.5" r="0.3" />
<circle cx="108.7" cy="43.7" r="0.3" />
<circle cx="111.0" cy="43.9" r="0.3" />
<circle cx="113.3" cy="46.0" r="0.3" />
</g>
</svg>