<svg xmlns="http://www.w3.org/2000/svg" width="161.8" height="100.0" viewBox="13.0 -5.0 171.8 110.0">
<g fill="none" stroke="black" stroke-width="0.2200%" transform="translate(0, 100.0000) scale(2.2727, -2.2727)">

<line x1="9.5" y1="0.0" x2="9.5" y2="2.0" />
<line x1="11.1" y1="0.0" x2="11.1" y2="5.0" />
<line x1="12.7" y1="0.0" x2="12.7" y2="5.4" />
<line x1="14.2" y1="0.0" x2="14.2" y2="5.7" />
<line x1="15.8" y1="0.0" x2="15.8" y2="7.0" />
<line x1="17.4" y1="0.0" x2="17.4" y2="7.3" />
<line x1="19.0" y1="0.0" x2="19.0" y2="7.6" />
<line x1="20.6" y1="0.0" x2="20.6" y2="7.9" />
<line x1="22.1" y1="0.0" x2="22.1" y2="10.2" />
<line x1="23.7" y1="0.0" x2="23.7" y2="10.8" />
<line x1="25.3" y1="0.0" x2="25.3" y2="12.2" />
<line x1="26.9" y1="0.0" x2="26.9" y2="13.1" />
<line x1="28.5" y1="0.0" x2="28.5" y2="13.6" />
<line x1="30.1" y1="0.0" x2="30.1" y2="14.0" />
<line x1="31.6" y1="0.0" x2="31.6" y2="14.5" />
<line x1="33.2" y1="0.0" x2="33.2" y2="15.4" />
<line x1="34.8" y1="0.0" x2="34.8" y2="16.3" />
<line x1="36.4" y1="0.0" x2="36.4" y2="16.7" />
<line x1="38.0" y1="0.0" x2="38.0" y2="17.0" />
<line x1="39.6" y1="0.0" x2="39.6" y2="17.6" />
<line x1="41.1" y1="0.0" x2="41.1" y2="20.1" />
<line x1="42.7" y1="0.0" x2="42.7" y2="21.1" />
<line x1="44.3" y1="0.0" x2="44.3" y2="22.0" />
<line x1="45.9" y1="0.0" x2="45.9" y2="24.2" />
<line x1="47.5" y1="0.0" x2="47.5" y2="24.8" />
<line x1="49.0" y1="0.0" x2="49.0" y2="25.6" />
<line x1="50.6" y1="0.0" x2="50.6" y2="27.2" />
<line x1="52.2" y1="0.0" x2="52.2" y2="28.1" />
<line x1="53.8" y1="0.0" x2="53.8" y2="28.5" />
<line x1="55.4" y1="0.0" x2="55.4" y2="28.9" />
<line x1="57.0" y1="0.0" x2="57.0" y2="30.7" />
<line x1="58.5" y1="0.0" x2="58.5" y2="32.5" />
<line x1="60.1" y1="0.0" x2="60.1" y2="34.1" />
<line x1="61.7" y1="0.0" x2="61.7" y2="35.1" />
<line x1="63.3" y1="0.0" x2="63.3" y2="35.4" />
<line x1="64.9" y1="0.0" x2="64.9" y2="35.7" />
<line x1="66.4" y1="0.0" x2="66.4" y2="36.0" />
<line x1="68.0" y1="0.0" x2="68.0" y2="37.6" />
<line x1="69.6" y1="0.0" x2="69.6" y2="38.3" />
<line x1="71.2" y1="0.0" x2="71.2" y2="39.0" />
<line x1="72.8" y1="0.0" x2="72.8" y2="39.7" />
<line x1="74.4" y1="0.0" x2="74.4" y2="40.6" />
<line x1="75.9" y1="0.0" x2="75.9" y2="41.6" />
<line x1="77.5" y1="0.0" x2="77.5" y2="43.0" />
<line x1="79.1" y1="0.0" x2="79.1" y2="44.0" />
</g>
</svg>