<svg xmlns="http://www.w3.org/2000/svg" width="161.8" height="100.0" viewBox="-3 -5 172 110">
<g fill="none" stroke="black" stroke-width="10.5100%" transform="translate(0, 100.0000) scale(0.0476, -0.0476)">

<line x1="105" y1="0" x2="105" y2="1" />
<line x1="157" y1="0" x2="157" y2="2" />
<line x1="209" y1="0" x2="209" y2="10" />
<line x1="262" y1="0" x2="262" y2="11" />
<line x1="314" y1="0" x2="314" y2="12" />
<line x1="366" y1="0" x2="366" y2="20" />
<line x1="419" y1="0" x2="419" y2="21" />
<line x1="471" y1="0" x2="471" y2="22" />
<line x1="523" y1="0" x2="523" y2="100" />
<line x1="576" y1="0" x2="576" y2="101" />
<line x1="628" y1="0" x2="628" y2="102" />
<line x1="680" y1="0" x2="680" y2="110" />
<line x1="733" y1="0" x2="733" y2="111" />
<line x1="785" y1="0" x2="785" y2="112" />
<line x1="837" y1="0" x2="837" y2="120" />
<line x1="890" y1="0" x2="890" y2="121" />
<line x1="942" y1="0" x2="942" y2="122" />
<line x1="994" y1="0" x2="994" y2="200" />
<line x1="1046" y1="0" x2="1046" y2="201" />
<line x1="1099" y1="0" x2="1099" y2="202" />
<line x1="1151" y1="0" x2="1151" y2="210" />
<line x1="1203" y1="0" x2="1203" y2="211" />
<line x1="1256" y1="0" x2="1256" y2="212" />
<line x1="1308" y1="0" x2="1308" y2="220" />
<line x1="1360" y1="0" x2="1360" y2="221" />
<line x1="1413" y1="0" x2="1413" y2="222" />
<line x1="1465" y1="0" x2="1465" y2="1000" />
<line x1="1517" y1="0" x2="1517" y2="1001" />
<line x1="1570" y1="0" x2="1570" y2="1002" />
<line x1="1622" y1="0" x2="1622" y2="1010" />
<line x1="1674" y1="0" x2="1674" y2="1011" />
<line x1="1727" y1="0" x2="1727" y2="1012" />
<line x1="1779" y1="0" x2="1779" y2="1020" />
<line x1="1831" y1="0" x2="1831" y2="1021" />
<line x1="1884" y1="0" x2="1884" y2="1022" />
<line x1="1936" y1="0" x2="1936" y2="1100" />
<line x1="1988" y1="0" x2="1988" y2="1101" />
<line x1="2041" y1="0" x2="2041" y2="1102" />
<line x1="2093" y1="0" x2="2093" y2="1110" />
<line x1="2145" y1="0" x2="2145" y2="1111" />
<line x1="2198" y1="0" x2="2198" y2="1112" />
<line x1="2250" y1="0" x2="2250" y2="1120" />
<line x1="2302" y1="0" x2="2302" y2="1121" />
<line x1="2355" y1="0" x2="2355" y2="1122" />
<line x1="2407" y1="0" x2="2407" y2="1200" />
<line x1="2459" y1="0" x2="2459" y2="1201" />
<line x1="2512" y1="0" x2="2512" y2="1202" />
<line x1="2564" y1="0" x2="2564" y2="1210" />
<line x1="2616" y1="0" x2="2616" y2="1211" />
<line x1="2669" y1="0" x2="2669" y2="1212" />
<line x1="2721" y1="0" x2="2721" y2="1220" />
<line x1="2773" y1="0" x2="2773" y2="1221" />
<line x1="2826" y1="0" x2="2826" y2="1222" />
<line x1="2878" y1="0" x2="2878" y2="2000" />
<line x1="2930" y1="0" x2="2930" y2="2001" />
<line x1="2983" y1="0" x2="2983" y2="2002" />
<line x1="3035" y1="0" x2="3035" y2="2010" />
<line x1="3087" y1="0" x2="3087" y2="2011" />
<line x1="3139" y1="0" x2="3139" y2="2012" />
<line x1="3192" y1="0" x2="3192" y2="2020" />
<line x1="3244" y1="0" x2="3244" y2="2021" />
<line x1="3296" y1="0" x2="3296" y2="2022" />
<line x1="3349" y1="0" x2="3349" y2="2100" />
<line x1="3401" y1="0" x2="3401" y2="2101" />
<line x1="3453" y1="0" x2="3453" y2="2102" />
</g>
</svg>