<svg xmlns="http://www.w3.org/2000/svg" width="161.8" height="100.0" viewBox="-3.444 -5.000 171.803 110.000">
<g fill="none" stroke="black" stroke-width="0.0100%" transform="translate(0, 100.0000) scale(50.0000, -50.0000)">
<polyline points="0.031,1.000 0.062,1.000 0.062,2.000 0.093,2.000 0.093,1.000 0.124,1.000 0.124,0.000 0.156,0.000 0.156,1.000 0.187,1.000 0.187,1.000 0.218,1.000 0.218,1.000 0.249,1.000 0.249,2.000 0.280,2.000 0.280,2.000 0.311,2.000 0.311,0.000 0.342,0.000 0.342,2.000 0.373,2.000 0.373,1.000 0.405,1.000 0.405,2.000 0.436,2.000 0.436,2.000 0.467,2.000 0.467,1.000 0.498,1.000 0.498,0.000 0.529,0.000 0.529,0.000 0.560,0.000 0.560,1.000 0.591,1.000 0.591,0.000 0.622,0.000 0.622,1.000 0.653,1.000 0.653,1.000 0.685,1.000 0.685,0.000 0.716,0.000 0.716,2.000 0.747,2.000 0.747,1.000 0.778,1.000 0.778,1.000 0.809,1.000 0.809,0.000 0.840,0.000 0.840,1.000 0.871,1.000 0.871,1.000 0.902,1.000 0.902,1.000 0.933,1.000 0.933,1.000 0.965,1.000 0.965,1.000 0.996,1.000 0.996,2.000 1.027,2.000 1.027,1.000 1.058,1.000 1.058,2.000 1.089,2.000 1.089,0.000 1.120,0.000 1.120,1.000 1.151,1.000 1.151,2.000 1.182,2.000 1.182,1.000 1.214,1.000 1.214,1.000 1.245,1.000 1.245,2.000 1.276,2.000 1.276,2.000 1.307,2.000 1.307,2.000 1.338,2.000 1.338,0.000 1.369,0.000 1.369,0.000 1.400,0.000 1.400,2.000 1.431,2.000 1.431,0.000 1.462,0.000 1.462,1.000 1.494,1.000 1.494,2.000 1.525,2.000 1.525,0.000 1.556,0.000 1.556,2.000 1.587,2.000 1.587,2.000 1.618,2.000 1.618,1.000 1.649,1.000 1.649,0.000 1.680,0.000 1.680,2.000 1.711,2.000 1.711,1.000 1.742,1.000 1.742,1.000 1.774,1.000 1.774,2.000 1.805,2.000 1.805,1.000 1.836,1.000 1.836,2.000 1.867,2.000 1.867,2.000 1.898,2.000 1.898,2.000 1.929,2.000 1.929,0.000 1.960,0.000 1.960,2.000 1.991,2.000 1.991,2.000 2.023,2.000 2.023,1.000 2.054,1.000 2.054,2.000 2.085,2.000 2.085,2.000 2.116,2.000 2.116,2.000 2.147,2.000 2.147,1.000 2.178,1.000 2.178,0.000 2.209,0.000 2.209,0.000 2.240,0.000 2.240,0.000 2.271,0.000 2.271,1.000 2.303,1.000 2.303,0.000 2.334,0.000 2.334,0.000 2.365,0.000 2.365,1.000 2.396,1.000 2.396,1.000 2.427,1.000 2.427,0.000 2.458,0.000 2.458,0.000 2.489,0.000 2.489,2.000 2.520,2.000 2.520,1.000 2.552,1.000 2.552,0.000 2.583,0.000 2.583,1.000 2.614,1.000 2.614,0.000 2.645,0.000 2.645,1.000 2.676,1.000 2.676,0.000 2.707,0.000 2.707,1.000 2.738,1.000 2.738,1.000 2.769,1.000 2.769,1.000 2.800,1.000 2.800,0.000 2.832,0.000 2.832,1.000 2.863,1.000 2.863,2.000 2.894,2.000 2.894,1.000 2.925,1.000 2.925,0.000 2.956,0.000 2.956,2.000 2.987,2.000 2.987,0.000 3.018,0.000 3.018,1.000 3.049,1.000 3.049,0.000 3.080,0.000 3.080,2.000 3.112,2.000 3.112,1.000 3.143,1.000 3.143,1.000 3.174,1.000 3.174,0.000 3.205,0.000 3.205,2.000 3.236,2.000 3.236,2.000 3.267,2.000" />
</g>
</svg>