<svg xmlns="http://www.w3.org/2000/svg" width="161.8" height="100.0" viewBox="-3.349 -5.000 171.803 110.000">
<g fill="none" stroke="black" stroke-width="0.0050%" transform="translate(0, 100.0000) scale(100.0000, -100.0000)">
<circle cx="0.017" cy="0.000" r="0.005" />
<line x1="0.017" y1="0.000" x2="0.017" y2="0.000" />
<line x1="0.033" y1="0.000" x2="0.033" y2="1.000" />
<line x1="0.050" y1="0.000" x2="0.050" y2="1.000" />
<line x1="0.066" y1="0.000" x2="0.066" y2="0.000" />
<line x1="0.083" y1="0.000" x2="0.083" y2="1.000" />
<line x1="0.099" y1="0.000" x2="0.099" y2="0.000" />
<line x1="0.116" y1="0.000" x2="0.116" y2="0.000" />
<line x1="0.132" y1="0.000" x2="0.132" y2="1.000" />
<line x1="0.149" y1="0.000" x2="0.149" y2="1.000" />
<line x1="0.165" y1="0.000" x2="0.165" y2="0.000" />
<line x1="0.182" y1="0.000" x2="0.182" y2="0.000" />
<line x1="0.198" y1="0.000" x2="0.198" y2="1.000" />
<line x1="0.215" y1="0.000" x2="0.215" y2="0.000" />
<line x1="0.231" y1="0.000" x2="0.231" y2="1.000" />
<line x1="0.248" y1="0.000" x2="0.248" y2="1.000" />
<line x1="0.264" y1="0.000" x2="0.264" y2="0.000" />
<line x1="0.281" y1="0.000" x2="0.281" y2="1.000" />
<line x1="0.297" y1="0.000" x2="0.297" y2="0.000" />
<line x1="0.314" y1="0.000" x2="0.314" y2="0.000" />
<line x1="0.330" y1="0.000" x2="0.330" y2="1.000" />
<line x1="0.347" y1="0.000" x2="0.347" y2="0.000" />
<line x1="0.363" y1="0.000" x2="0.363" y2="1.000" />
<line x1="0.380" y1="0.000" x2="0.380" y2="1.000" />
<line x1="0.396" y1="0.000" x2="0.396" y2="0.000" />
<line x1="0.413" y1="0.000" x2="0.413" y2="0.000" />
<line x1="0.429" y1="0.000" x2="0.429" y2="1.000" />
<line x1="0.446" y1="0.000" x2="0.446" y2="1.000" />
<line x1="0.462" y1="0.000" x2="0.462" y2="0.000" />
<line x1="0.479" y1="0.000" x2="0.479" y2="1.000" />
<line x1="0.495" y1="0.000" x2="0.495" y2="0.000" />
<line x1="0.512" y1="0.000" x2="0.512" y2="0.000" />
<line x1="0.528" y1="0.000" x2="0.528" y2="1.000" />
<line x1="0.545" y1="0.000" x2="0.545" y2="1.000" />
<line x1="0.561" y1="0.000" x2="0.561" y2="0.000" />
<line x1="0.578" y1="0.000" x2="0.578" y2="0.000" />
<line x1="0.594" y1="0.000" x2="0.594" y2="1.000" />
<line x1="0.611" y1="0.000" x2="0.611" y2="0.000" />
<line x1="0.627" y1="0.000" x2="0.627" y2="1.000" />
<line x1="0.644" y1="0.000" x2="0.644" y2="1.000" />
<line x1="0.660" y1="0.000" x2="0.660" y2="0.000" />
<line x1="0.677" y1="0.000" x2="0.677" y2="0.000" />
<line x1="0.693" y1="0.000" x2="0.693" y2="1.000" />
<line x1="0.710" y1="0.000" x2="0.710" y2="1.000" />
<line x1="0.726" y1="0.000" x2="0.726" y2="0.000" />
<line x1="0.743" y1="0.000" x2="0.743" y2="1.000" />
<line x1="0.759" y1="0.000" x2="0.759" y2="0.000" />
<line x1="0.776" y1="0.000" x2="0.776" y2="0.000" />
<line x1="0.793" y1="0.000" x2="0.793" y2="1.000" />
<line x1="0.809" y1="0.000" x2="0.809" y2="0.000" />
<line x1="0.826" y1="0.000" x2="0.826" y2="1.000" />
<line x1="0.842" y1="0.000" x2="0.842" y2="1.000" />
<line x1="0.859" y1="0.000" x2="0.859" y2="0.000" />
<line x1="0.875" y1="0.000" x2="0.875" y2="1.000" />
<line x1="0.892" y1="0.000" x2="0.892" y2="0.000" />
<line x1="0.908" y1="0.000" x2="0.908" y2="0.000" />
<line x1="0.925" y1="0.000" x2="0.925" y2="1.000" />
<line x1="0.941" y1="0.000" x2="0.941" y2="1.000" />
<line x1="0.958" y1="0.000" x2="0.958" y2="0.000" />
<line x1="0.974" y1="0.000" x2="0.974" y2="0.000" />
<line x1="0.991" y1="0.000" x2="0.991" y2="1.000" />
<line x1="1.007" y1="0.000" x2="1.007" y2="0.000" />
<line x1="1.024" y1="0.000" x2="1.024" y2="1.000" />
<line x1="1.040" y1="0.000" x2="1.040" y2="1.000" />
<line x1="1.057" y1="0.000" x2="1.057" y2="0.000" />
<line x1="1.073" y1="0.000" x2="1.073" y2="1.000" />
<line x1="1.090" y1="0.000" x2="1.090" y2="0.000" />
<line x1="1.106" y1="0.000" x2="1.106" y2="0.000" />
<line x1="1.123" y1="0.000" x2="1.123" y2="1.000" />
<line x1="1.139" y1="0.000" x2="1.139" y2="0.000" />
<line x1="1.156" y1="0.000" x2="1.156" y2="1.000" />
<line x1="1.172" y1="0.000" x2="1.172" y2="1.000" />
<line x1="1.189" y1="0.000" x2="1.189" y2="0.000" />
<line x1="1.205" y1="0.000" x2="1.205" y2="0.000" />
<line x1="1.222" y1="0.000" x2="1.222" y2="1.000" />
<line x1="1.238" y1="0.000" x2="1.238" y2="1.000" />
<line x1="1.255" y1="0.000" x2="1.255" y2="0.000" />
<line x1="1.271" y1="0.000" x2="1.271" y2="1.000" />
<line x1="1.288" y1="0.000" x2="1.288" y2="0.000" />
<line x1="1.304" y1="0.000" x2="1.304" y2="0.000" />
<line x1="1.321" y1="0.000" x2="1.321" y2="1.000" />
<line x1="1.337" y1="0.000" x2="1.337" y2="0.000" />
<line x1="1.354" y1="0.000" x2="1.354" y2="1.000" />
<line x1="1.370" y1="0.000" x2="1.370" y2="1.000" />
<line x1="1.387" y1="0.000" x2="1.387" y2="0.000" />
<line x1="1.403" y1="0.000" x2="1.403" y2="1.000" />
<line x1="1.420" y1="0.000" x2="1.420" y2="0.000" />
<line x1="1.436" y1="0.000" x2="1.436" y2="0.000" />
<line x1="1.453" y1="0.000" x2="1.453" y2="1.000" />
<line x1="1.469" y1="0.000" x2="1.469" y2="1.000" />
<line x1="1.486" y1="0.000" x2="1.486" y2="0.000" />
<line x1="1.502" y1="0.000" x2="1.502" y2="0.000" />
<line x1="1.519" y1="0.000" x2="1.519" y2="1.000" />
<line x1="1.535" y1="0.000" x2="1.535" y2="0.000" />
<line x1="1.552" y1="0.000" x2="1.552" y2="1.000" />
<line x1="1.569" y1="0.000" x2="1.569" y2="1.000" />
<line x1="1.585" y1="0.000" x2="1.585" y2="0.000" />
<line x1="1.602" y1="0.000" x2="1.602" y2="0.000" />
<line x1="1.618" y1="0.000" x2="1.618" y2="1.000" />
<line x1="1.635" y1="0.000" x2="1.635" y2="1.000" />
</g>
</svg>