<svg xmlns="http://www.w3.org/2000/svg" width="161.8" height="100.0" viewBox="-3.349 -5.000 171.803 110.000">
<g fill="none" stroke="black" stroke-width="0.0050%" transform="translate(0, 100.0000) scale(100.0000, -100.0000)">

<line x1="0.033" y1="0.000" x2="0.033" y2="1.000" />
<line x1="0.050" y1="0.000" x2="0.050" y2="1.000" />

<line x1="0.083" y1="0.000" x2="0.083" y2="1.000" />


<line x1="0.132" y1="0.000" x2="0.132" y2="1.000" />
<line x1="0.149" y1="0.000" x2="0.149" y2="1.000" />


<line x1="0.198" y1="0.000" x2="0.198" y2="1.000" />

<line x1="0.231" y1="0.000" x2="0.231" y2="1.000" />
<line x1="0.248" y1="0.000" x2="0.248" y2="1.000" />

<line x1="0.281" y1="0.000" x2="0.281" y2="1.000" />


<line x1="0.330" y1="0.000" x2="0.330" y2="1.000" />

<line x1="0.363" y1="0.000" x2="0.363" y2="1.000" />
<line x1="0.380" y1="0.000" x2="0.380" y2="1.000" />


<line x1="0.429" y1="0.000" x2="0.429" y2="1.000" />
<line x1="0.446" y1="0.000" x2="0.446" y2="1.000" />

<line x1="0.479" y1="0.000" x2="0.479" y2="1.000" />


<line x1="0.528" y1="0.000" x2="0.528" y2="1.000" />
<line x1="0.545" y1="0.000" x2="0.545" y2="1.000" />


<line x1="0.594" y1="0.000" x2="0.594" y2="1.000" />

<line x1="0.627" y1="0.000" x2="0.627" y2="1.000" />
<line x1="0.644" y1="0.000" x2="0.644" y2="1.000" />


<line x1="0.693" y1="0.000" x2="0.693" y2="1.000" />
<line x1="0.710" y1="0.000" x2="0.710" y2="1.000" />

<line x1="0.743" y1="0.000" x2="0.743" y2="1.000" />


<line x1="0.793" y1="0.000" x2="0.793" y2="1.000" />

<line x1="0.826" y1="0.000" x2="0.826" y2="1.000" />
<line x1="0.842" y1="0.000" x2="0.842" y2="1.000" />

<line x1="0.875" y1="0.000" x2="0.875" y2="1.000" />


<line x1="0.925" y1="0.000" x2="0.925" y2="1.000" />
<line x1="0.941" y1="0.000" x2="0.941" y2="1.000" />


<line x1="0.991" y1="0.000" x2="0.991" y2="1.000" />

<line x1="1.024" y1="0.000" x2="1.024" y2="1.000" />
<line x1="1.040" y1="0.000" x2="1.040" y2="1.000" />

<line x1="1.073" y1="0.000" x2="1.073" y2="1.000" />


<line x1="1.123" y1="0.000" x2="1.123" y2="1.000" />

<line x1="1.156" y1="0.000" x2="1.156" y2="1.000" />
<line x1="1.172" y1="0.000" x2="1.172" y2="1.000" />


<line x1="1.222" y1="0.000" x2="1.222" y2="1.000" />
<line x1="1.238" y1="0.000" x2="1.238" y2="1.000" />

<line x1="1.271" y1="0.000" x2="1.271" y2="1.000" />


<line x1="1.321" y1="0.000" x2="1.321" y2="1.000" />

<line x1="1.354" y1="0.000" x2="1.354" y2="1.000" />
<line x1="1.370" y1="0.000" x2="1.370" y2="1.000" />

<line x1="1.403" y1="0.000" x2="1.403" y2="1.000" />


<line x1="1.453" y1="0.000" x2="1.453" y2="1.000" />
<line x1="1.469" y1="0.000" x2="1.469" y2="1.000" />


<line x1="1.519" y1="0.000" x2="1.519" y2="1.000" />

<line x1="1.552" y1="0.000" x2="1.552" y2="1.000" />
<line x1="1.569" y1="0.000" x2="1.569" y2="1.000" />


<line x1="1.618" y1="0.000" x2="1.618" y2="1.000" />
<line x1="1.635" y1="0.000" x2="1.635" y2="1.000" />
</g>
</svg>