<svg xmlns="http://www.w3.org/2000/svg" width="161.8" height="100.0" viewBox="6.67 11.31 171.80 110.00">
<g fill="none" stroke="black" stroke-width="0.0302%" transform="translate(0, 132.6116) scale(16.5583, -16.5583)">
<polyline points="0.71,2.00 0.80,1.78 0.90,1.59 1.00,1.42 1.10,1.28 1.20,1.16 1.30,1.07 1.40,1.01 1.49,0.98 1.59,1.03 1.69,1.13 1.79,1.28 1.89,1.47 1.99,1.71 2.09,1.98 2.19,2.28 2.28,2.60 2.38,2.94 2.48,3.28 2.58,3.63 2.68,3.98 2.78,4.32 2.88,4.64 2.98,4.95 3.07,5.23 3.17,5.47 3.27,5.68 3.37,5.85 3.47,5.96 3.57,6.02 3.67,6.06 3.76,6.09 3.86,6.11 3.96,6.11 4.06,6.11 4.16,6.09 4.26,6.07 4.36,6.04 4.46,6.00 4.55,5.96 4.65,5.91 4.75,5.85 4.85,5.79 4.95,5.73 5.05,5.66 5.15,5.60 5.25,5.53 5.34,5.46 5.44,5.39 5.54,5.33 5.64,5.26 5.74,5.20 5.84,5.14 5.94,5.09 6.04,5.04 6.13,4.99 6.23,4.96 6.33,4.93 6.43,4.90 6.53,4.89 6.63,4.89 6.73,4.89 6.82,4.91 6.92,4.94 7.02,4.99 7.12,5.05 7.22,5.14 7.32,5.27 7.42,5.42 7.52,5.59 7.61,5.77 7.71,5.96 7.81,6.15 7.91,6.34 8.01,6.51 8.11,6.67 8.21,6.80 8.31,6.91 8.40,6.98 8.50,7.01 8.60,7.02 8.70,7.02 8.80,7.00 8.90,6.97 9.00,6.92 9.09,6.86 9.19,6.78 9.29,6.68 9.39,6.57 9.49,6.44 9.59,6.30 9.69,6.14 9.79,5.96 9.88,5.77 9.98,5.57 10.08,5.34 10.18,5.11 10.28,4.85 10.38,4.58 10.48,4.30" />
</g>
</svg>