<svg xmlns="http://www.w3.org/2000/svg" width="161.8" height="100.0" viewBox="6.56 11.50 171.80 110.00">
<g fill="none" stroke="black" stroke-width="0.0304%" transform="translate(0, 133.0058) scale(16.4676, -16.4676)">
<polyline points="0.70,2.00 0.80,1.80 0.90,1.61 1.00,1.43 1.09,1.27 1.19,1.15 1.29,1.05 1.39,1.00 1.49,1.00 1.59,1.05 1.68,1.14 1.78,1.27 1.88,1.44 1.98,1.63 2.08,1.86 2.18,2.11 2.27,2.39 2.37,2.68 2.47,2.98 2.57,3.29 2.67,3.61 2.77,3.93 2.86,4.24 2.96,4.55 3.06,4.86 3.16,5.14 3.26,5.41 3.35,5.66 3.45,5.89 3.55,6.08 3.65,6.24 3.75,6.38 3.85,6.49 3.94,6.57 4.04,6.63 4.14,6.66 4.24,6.68 4.34,6.67 4.44,6.65 4.53,6.61 4.63,6.56 4.73,6.49 4.83,6.41 4.93,6.32 5.03,6.23 5.12,6.12 5.22,6.02 5.32,5.90 5.42,5.79 5.52,5.67 5.61,5.56 5.71,5.45 5.81,5.34 5.91,5.24 6.01,5.15 6.11,5.07 6.20,4.99 6.30,4.93 6.40,4.88 6.50,4.85 6.60,4.84 6.70,4.84 6.79,4.86 6.89,4.91 6.99,4.98 7.09,5.07 7.19,5.18 7.28,5.32 7.38,5.47 7.48,5.63 7.58,5.80 7.68,5.97 7.78,6.14 7.87,6.31 7.97,6.47 8.07,6.62 8.17,6.75 8.27,6.87 8.37,6.96 8.46,7.02 8.56,7.06 8.66,7.07 8.76,7.06 8.86,7.02 8.96,6.96 9.05,6.88 9.15,6.78 9.25,6.66 9.35,6.52 9.45,6.37 9.54,6.20 9.64,6.02 9.74,5.82 9.84,5.62 9.94,5.40 10.04,5.18 10.13,4.95 10.23,4.72 10.33,4.48 10.43,4.24 10.53,4.00" />
</g>
</svg>