<svg xmlns="http://www.w3.org/2000/svg" width="161.8" height="100.0" viewBox="6.56 12.23 171.80 110.00">
<g fill="none" stroke="black" stroke-width="0.0296%" transform="translate(0, 134.4595) scale(16.8919, -16.8919)">
<polyline points="0.68,2.00 0.78,1.86 0.88,1.72 0.97,1.58 1.07,1.44 1.16,1.30 1.26,1.16 1.35,1.02 1.45,1.20 1.55,1.43 1.64,1.67 1.74,1.90 1.83,2.13 1.93,2.37 2.03,2.60 2.12,2.83 2.22,3.07 2.31,3.30 2.41,3.53 2.50,3.77 2.60,4.00 2.70,4.23 2.79,4.47 2.89,4.70 2.98,4.93 3.08,5.17 3.17,5.40 3.27,5.63 3.37,5.87 3.46,5.99 3.56,5.96 3.65,5.93 3.75,5.90 3.85,5.88 3.94,5.85 4.04,5.82 4.13,5.79 4.23,5.76 4.32,5.74 4.42,5.71 4.52,5.68 4.61,5.65 4.71,5.62 4.80,5.60 4.90,5.57 4.99,5.54 5.09,5.51 5.19,5.48 5.28,5.46 5.38,5.43 5.47,5.40 5.57,5.37 5.67,5.34 5.76,5.32 5.86,5.29 5.95,5.26 6.05,5.23 6.14,5.20 6.24,5.18 6.34,5.15 6.43,5.12 6.53,5.09 6.62,5.06 6.72,5.04 6.81,5.01 6.91,5.10 7.01,5.24 7.10,5.38 7.20,5.52 7.29,5.66 7.39,5.80 7.49,5.94 7.58,6.08 7.68,6.22 7.77,6.36 7.87,6.50 7.96,6.64 8.06,6.78 8.16,6.92 8.25,6.94 8.35,6.80 8.44,6.66 8.54,6.52 8.63,6.38 8.73,6.24 8.83,6.10 8.92,5.96 9.02,5.82 9.11,5.68 9.21,5.54 9.31,5.40 9.40,5.26 9.50,5.12 9.59,4.98 9.69,4.84 9.78,4.70 9.88,4.56 9.98,4.42 10.07,4.28 10.17,4.14 10.26,4.00" />
</g>
</svg>