<svg xmlns="http://www.w3.org/2000/svg" width="161.8" height="100.0" viewBox="6.67 11.50 171.80 110.00">
<g fill="none" stroke="black" stroke-width="0.0304%" transform="translate(0, 133.0058) scale(16.4676, -16.4676)">
<polyline points="0.71,2.00 0.81,1.80 0.91,1.61 1.01,1.43 1.11,1.27 1.21,1.15 1.30,1.05 1.40,1.00 1.50,1.00 1.60,1.05 1.70,1.14 1.80,1.27 1.90,1.44 2.00,1.63 2.10,1.86 2.20,2.11 2.30,2.39 2.40,2.68 2.50,2.98 2.59,3.29 2.69,3.61 2.79,3.93 2.89,4.24 2.99,4.55 3.09,4.86 3.19,5.14 3.29,5.41 3.39,5.66 3.49,5.89 3.59,6.08 3.69,6.24 3.79,6.38 3.88,6.49 3.98,6.57 4.08,6.63 4.18,6.66 4.28,6.68 4.38,6.67 4.48,6.65 4.58,6.61 4.68,6.56 4.78,6.49 4.88,6.41 4.98,6.32 5.08,6.23 5.18,6.12 5.27,6.02 5.37,5.90 5.47,5.79 5.57,5.67 5.67,5.56 5.77,5.45 5.87,5.34 5.97,5.24 6.07,5.15 6.17,5.07 6.27,4.99 6.37,4.93 6.47,4.88 6.56,4.85 6.66,4.84 6.76,4.84 6.86,4.86 6.96,4.91 7.06,4.98 7.16,5.07 7.26,5.18 7.36,5.32 7.46,5.47 7.56,5.63 7.66,5.80 7.76,5.97 7.85,6.14 7.95,6.31 8.05,6.47 8.15,6.62 8.25,6.75 8.35,6.87 8.45,6.96 8.55,7.02 8.65,7.06 8.75,7.07 8.85,7.06 8.95,7.02 9.05,6.96 9.14,6.88 9.24,6.78 9.34,6.66 9.44,6.52 9.54,6.37 9.64,6.20 9.74,6.02 9.84,5.82 9.94,5.62 10.04,5.40 10.14,5.18 10.24,4.95 10.34,4.72 10.44,4.48 10.53,4.24" />
</g>
</svg>