<svg xmlns="http://www.w3.org/2000/svg" width="68.3" height="100.0" viewBox="-0.1 -5.0 78.3 110.0">
<g fill="none" stroke="black" stroke-width="0.5800%" transform="translate(0, 100.0000) scale(0.8621, -0.8621)">
<line x1="5.7" y1="0.0" x2="5.7" y2="116.0" />
<line x1="11.3" y1="0.0" x2="11.3" y2="111.0" />
<line x1="17.0" y1="0.0" x2="17.0" y2="67.0" />
<line x1="22.7" y1="0.0" x2="22.7" y2="104.0" />
<line x1="28.3" y1="0.0" x2="28.3" y2="97.0" />
<line x1="34.0" y1="0.0" x2="34.0" y2="114.0" />
<line x1="39.6" y1="0.0" x2="39.6" y2="97.0" />
<line x1="45.3" y1="0.0" x2="45.3" y2="99.0" />
<line x1="51.0" y1="0.0" x2="51.0" y2="116.0" />
<line x1="56.6" y1="0.0" x2="56.6" y2="101.0" />
<line x1="62.3" y1="0.0" x2="62.3" y2="114.0" />
<line x1="68.0" y1="0.0" x2="68.0" y2="67.0" />
<line x1="73.6" y1="0.0" x2="73.6" y2="111.0" />
<line x1="79.3" y1="0.0" x2="79.3" y2="100.0" />
<line x1="84.9" y1="0.0" x2="84.9" y2="101.0" />
</g>
</svg>