<svg xmlns="http://www.w3.org/2000/svg" width="161.8" height="100.0" viewBox="-4.191 -55.000 171.803 110.000">
<g fill="none" stroke="black" stroke-width="0.0100%" transform="translate(0, 0.0000) scale(50.0000, -50.0000)">
<line x1="0.016" y1="0.000" x2="0.016" y2="-1.000" />

<line x1="0.049" y1="0.000" x2="0.049" y2="1.000" />

<line x1="0.081" y1="0.000" x2="0.081" y2="1.000" />

<line x1="0.113" y1="0.000" x2="0.113" y2="1.000" />
<line x1="0.129" y1="0.000" x2="0.129" y2="-1.000" />
<line x1="0.146" y1="0.000" x2="0.146" y2="1.000" />
<line x1="0.162" y1="0.000" x2="0.162" y2="-1.000" />

<line x1="0.194" y1="0.000" x2="0.194" y2="-1.000" />
<line x1="0.210" y1="0.000" x2="0.210" y2="1.000" />
<line x1="0.227" y1="0.000" x2="0.227" y2="-1.000" />

<line x1="0.259" y1="0.000" x2="0.259" y2="-1.000" />
<line x1="0.275" y1="0.000" x2="0.275" y2="1.000" />
<line x1="0.291" y1="0.000" x2="0.291" y2="-1.000" />

<line x1="0.324" y1="0.000" x2="0.324" y2="1.000" />

<line x1="0.356" y1="0.000" x2="0.356" y2="-1.000" />

<line x1="0.388" y1="0.000" x2="0.388" y2="1.000" />
<line x1="0.405" y1="0.000" x2="0.405" y2="-1.000" />
<line x1="0.421" y1="0.000" x2="0.421" y2="1.000" />

<line x1="0.453" y1="0.000" x2="0.453" y2="-1.000" />

<line x1="0.485" y1="0.000" x2="0.485" y2="1.000" />
<line x1="0.502" y1="0.000" x2="0.502" y2="-1.000" />
<line x1="0.518" y1="0.000" x2="0.518" y2="1.000" />

<line x1="0.550" y1="0.000" x2="0.550" y2="-1.000" />

<line x1="0.582" y1="0.000" x2="0.582" y2="1.000" />
<line x1="0.599" y1="0.000" x2="0.599" y2="-1.000" />

<line x1="0.631" y1="0.000" x2="0.631" y2="-1.000" />
<line x1="0.647" y1="0.000" x2="0.647" y2="1.000" />

<line x1="0.680" y1="0.000" x2="0.680" y2="1.000" />
<line x1="0.696" y1="0.000" x2="0.696" y2="-1.000" />

<line x1="0.728" y1="0.000" x2="0.728" y2="1.000" />

<line x1="0.760" y1="0.000" x2="0.760" y2="-1.000" />
<line x1="0.777" y1="0.000" x2="0.777" y2="1.000" />

<line x1="0.809" y1="0.000" x2="0.809" y2="1.000" />
<line x1="0.825" y1="0.000" x2="0.825" y2="-1.000" />

<line x1="0.858" y1="0.000" x2="0.858" y2="1.000" />

<line x1="0.890" y1="0.000" x2="0.890" y2="-1.000" />
<line x1="0.906" y1="0.000" x2="0.906" y2="1.000" />

<line x1="0.938" y1="0.000" x2="0.938" y2="1.000" />
<line x1="0.955" y1="0.000" x2="0.955" y2="-1.000" />

<line x1="0.987" y1="0.000" x2="0.987" y2="1.000" />
<line x1="1.003" y1="0.000" x2="1.003" y2="-1.000" />
<line x1="1.019" y1="0.000" x2="1.019" y2="1.000" />

<line x1="1.052" y1="0.000" x2="1.052" y2="-1.000" />
<line x1="1.068" y1="0.000" x2="1.068" y2="1.000" />
<line x1="1.084" y1="0.000" x2="1.084" y2="-1.000" />

<line x1="1.116" y1="0.000" x2="1.116" y2="1.000" />
<line x1="1.133" y1="0.000" x2="1.133" y2="-1.000" />

<line x1="1.165" y1="0.000" x2="1.165" y2="-1.000" />
<line x1="1.181" y1="0.000" x2="1.181" y2="1.000" />

<line x1="1.214" y1="0.000" x2="1.214" y2="-1.000" />
<line x1="1.230" y1="0.000" x2="1.230" y2="1.000" />
<line x1="1.246" y1="0.000" x2="1.246" y2="-1.000" />

<line x1="1.278" y1="0.000" x2="1.278" y2="1.000" />
<line x1="1.294" y1="0.000" x2="1.294" y2="-1.000" />

<line x1="1.327" y1="0.000" x2="1.327" y2="-1.000" />
<line x1="1.343" y1="0.000" x2="1.343" y2="1.000" />

<line x1="1.375" y1="0.000" x2="1.375" y2="-1.000" />
<line x1="1.392" y1="0.000" x2="1.392" y2="1.000" />
<line x1="1.408" y1="0.000" x2="1.408" y2="-1.000" />

<line x1="1.440" y1="0.000" x2="1.440" y2="1.000" />
<line x1="1.456" y1="0.000" x2="1.456" y2="-1.000" />

<line x1="1.489" y1="0.000" x2="1.489" y2="1.000" />

<line x1="1.521" y1="0.000" x2="1.521" y2="-1.000" />
<line x1="1.537" y1="0.000" x2="1.537" y2="1.000" />

<line x1="1.569" y1="0.000" x2="1.569" y2="-1.000" />

<line x1="1.602" y1="0.000" x2="1.602" y2="1.000" />
<line x1="1.618" y1="0.000" x2="1.618" y2="-1.000" />

<line x1="1.650" y1="0.000" x2="1.650" y2="1.000" />
<line x1="1.667" y1="0.000" x2="1.667" y2="-1.000" />
<line x1="1.683" y1="0.000" x2="1.683" y2="1.000" />

<line x1="1.715" y1="0.000" x2="1.715" y2="-1.000" />
<line x1="1.731" y1="0.000" x2="1.731" y2="1.000" />

<line x1="1.764" y1="0.000" x2="1.764" y2="-1.000" />

<line x1="1.796" y1="0.000" x2="1.796" y2="1.000" />
<line x1="1.812" y1="0.000" x2="1.812" y2="-1.000" />

<line x1="1.845" y1="0.000" x2="1.845" y2="1.000" />
<line x1="1.861" y1="0.000" x2="1.861" y2="-1.000" />
<line x1="1.877" y1="0.000" x2="1.877" y2="1.000" />

<line x1="1.909" y1="0.000" x2="1.909" y2="-1.000" />
<line x1="1.925" y1="0.000" x2="1.925" y2="1.000" />

<line x1="1.958" y1="0.000" x2="1.958" y2="-1.000" />

<line x1="1.990" y1="0.000" x2="1.990" y2="1.000" />
<line x1="2.006" y1="0.000" x2="2.006" y2="-1.000" />

<line x1="2.039" y1="0.000" x2="2.039" y2="1.000" />
<line x1="2.055" y1="0.000" x2="2.055" y2="-1.000" />

<line x1="2.087" y1="0.000" x2="2.087" y2="-1.000" />
<line x1="2.103" y1="0.000" x2="2.103" y2="1.000" />

<line x1="2.136" y1="0.000" x2="2.136" y2="-1.000" />
<line x1="2.152" y1="0.000" x2="2.152" y2="1.000" />

<line x1="2.184" y1="0.000" x2="2.184" y2="1.000" />
<line x1="2.201" y1="0.000" x2="2.201" y2="-1.000" />

<line x1="2.233" y1="0.000" x2="2.233" y2="1.000" />
<line x1="2.249" y1="0.000" x2="2.249" y2="-1.000" />

<line x1="2.281" y1="0.000" x2="2.281" y2="1.000" />

<line x1="2.314" y1="0.000" x2="2.314" y2="-1.000" />
<line x1="2.330" y1="0.000" x2="2.330" y2="1.000" />

<line x1="2.362" y1="0.000" x2="2.362" y2="-1.000" />
<line x1="2.379" y1="0.000" x2="2.379" y2="1.000" />

<line x1="2.411" y1="0.000" x2="2.411" y2="1.000" />
<line x1="2.427" y1="0.000" x2="2.427" y2="-1.000" />

<line x1="2.459" y1="0.000" x2="2.459" y2="1.000" />
<line x1="2.476" y1="0.000" x2="2.476" y2="-1.000" />

<line x1="2.508" y1="0.000" x2="2.508" y2="1.000" />

<line x1="2.540" y1="0.000" x2="2.540" y2="-1.000" />
<line x1="2.556" y1="0.000" x2="2.556" y2="1.000" />

<line x1="2.589" y1="0.000" x2="2.589" y2="-1.000" />
<line x1="2.605" y1="0.000" x2="2.605" y2="1.000" />

<line x1="2.637" y1="0.000" x2="2.637" y2="1.000" />
<line x1="2.654" y1="0.000" x2="2.654" y2="-1.000" />

<line x1="2.686" y1="0.000" x2="2.686" y2="1.000" />
<line x1="2.702" y1="0.000" x2="2.702" y2="-1.000" />

<line x1="2.734" y1="0.000" x2="2.734" y2="1.000" />
<line x1="2.751" y1="0.000" x2="2.751" y2="-1.000" />
<line x1="2.767" y1="0.000" x2="2.767" y2="1.000" />

<line x1="2.799" y1="0.000" x2="2.799" y2="-1.000" />
<line x1="2.815" y1="0.000" x2="2.815" y2="1.000" />

<line x1="2.848" y1="0.000" x2="2.848" y2="-1.000" />
<line x1="2.864" y1="0.000" x2="2.864" y2="1.000" />
<line x1="2.880" y1="0.000" x2="2.880" y2="-1.000" />

<line x1="2.912" y1="0.000" x2="2.912" y2="1.000" />
<line x1="2.929" y1="0.000" x2="2.929" y2="-1.000" />

<line x1="2.961" y1="0.000" x2="2.961" y2="1.000" />
<line x1="2.977" y1="0.000" x2="2.977" y2="-1.000" />

<line x1="3.010" y1="0.000" x2="3.010" y2="-1.000" />
<line x1="3.026" y1="0.000" x2="3.026" y2="1.000" />

<line x1="3.058" y1="0.000" x2="3.058" y2="-1.000" />
<line x1="3.074" y1="0.000" x2="3.074" y2="1.000" />

<line x1="3.107" y1="0.000" x2="3.107" y2="-1.000" />
<line x1="3.123" y1="0.000" x2="3.123" y2="1.000" />
<line x1="3.139" y1="0.000" x2="3.139" y2="-1.000" />

<line x1="3.171" y1="0.000" x2="3.171" y2="1.000" />
<line x1="3.188" y1="0.000" x2="3.188" y2="-1.000" />

<line x1="3.220" y1="0.000" x2="3.220" y2="1.000" />
<line x1="3.236" y1="0.000" x2="3.236" y2="-1.000" />

</g>
</svg>