<svg xmlns="http://www.w3.org/2000/svg" width="161.2" height="100.0" viewBox="-3.1 -5.0 171.2 110.0">
<g fill="none" stroke="black" stroke-width="1.2800%" transform="translate(0, 100.0000) scale(0.3906, -0.3906)">
<line x1="5.0" y1="0.0" x2="5.0" y2="1.0" />
<line x1="9.9" y1="0.0" x2="9.9" y2="2.0" />
<line x1="14.9" y1="0.0" x2="14.9" y2="4.0" />
<line x1="19.9" y1="0.0" x2="19.9" y2="4.0" />
<line x1="24.9" y1="0.0" x2="24.9" y2="4.0" />
<line x1="29.8" y1="0.0" x2="29.8" y2="8.0" />
<line x1="34.8" y1="0.0" x2="34.8" y2="12.0" />
<line x1="39.8" y1="0.0" x2="39.8" y2="8.0" />
<line x1="44.7" y1="0.0" x2="44.7" y2="4.0" />
<line x1="49.7" y1="0.0" x2="49.7" y2="8.0" />
<line x1="54.7" y1="0.0" x2="54.7" y2="12.0" />
<line x1="59.7" y1="0.0" x2="59.7" y2="12.0" />
<line x1="64.6" y1="0.0" x2="64.6" y2="16.0" />
<line x1="69.6" y1="0.0" x2="69.6" y2="28.0" />
<line x1="74.6" y1="0.0" x2="74.6" y2="32.0" />
<line x1="79.5" y1="0.0" x2="79.5" y2="16.0" />
<line x1="84.5" y1="0.0" x2="84.5" y2="4.0" />
<line x1="89.5" y1="0.0" x2="89.5" y2="8.0" />
<line x1="94.5" y1="0.0" x2="94.5" y2="12.0" />
<line x1="99.4" y1="0.0" x2="99.4" y2="12.0" />
<line x1="104.4" y1="0.0" x2="104.4" y2="16.0" />
<line x1="109.4" y1="0.0" x2="109.4" y2="28.0" />
<line x1="114.3" y1="0.0" x2="114.3" y2="32.0" />
<line x1="119.3" y1="0.0" x2="119.3" y2="20.0" />
<line x1="124.3" y1="0.0" x2="124.3" y2="16.0" />
<line x1="129.2" y1="0.0" x2="129.2" y2="28.0" />
<line x1="134.2" y1="0.0" x2="134.2" y2="36.0" />
<line x1="139.2" y1="0.0" x2="139.2" y2="40.0" />
<line x1="144.2" y1="0.0" x2="144.2" y2="60.0" />
<line x1="149.1" y1="0.0" x2="149.1" y2="88.0" />
<line x1="154.1" y1="0.0" x2="154.1" y2="80.0" />
<line x1="159.1" y1="0.0" x2="159.1" y2="32.0" />
<line x1="164.0" y1="0.0" x2="164.0" y2="4.0" />
<line x1="169.0" y1="0.0" x2="169.0" y2="8.0" />
<line x1="174.0" y1="0.0" x2="174.0" y2="12.0" />
<line x1="179.0" y1="0.0" x2="179.0" y2="12.0" />
<line x1="183.9" y1="0.0" x2="183.9" y2="16.0" />
<line x1="188.9" y1="0.0" x2="188.9" y2="28.0" />
<line x1="193.9" y1="0.0" x2="193.9" y2="32.0" />
<line x1="198.8" y1="0.0" x2="198.8" y2="20.0" />
<line x1="203.8" y1="0.0" x2="203.8" y2="16.0" />
<line x1="208.8" y1="0.0" x2="208.8" y2="28.0" />
<line x1="213.8" y1="0.0" x2="213.8" y2="36.0" />
<line x1="218.7" y1="0.0" x2="218.7" y2="40.0" />
<line x1="223.7" y1="0.0" x2="223.7" y2="60.0" />
<line x1="228.7" y1="0.0" x2="228.7" y2="88.0" />
<line x1="233.6" y1="0.0" x2="233.6" y2="80.0" />
<line x1="238.6" y1="0.0" x2="238.6" y2="36.0" />
<line x1="243.6" y1="0.0" x2="243.6" y2="16.0" />
<line x1="248.6" y1="0.0" x2="248.6" y2="28.0" />
<line x1="253.5" y1="0.0" x2="253.5" y2="36.0" />
<line x1="258.5" y1="0.0" x2="258.5" y2="40.0" />
<line x1="263.5" y1="0.0" x2="263.5" y2="60.0" />
<line x1="268.4" y1="0.0" x2="268.4" y2="88.0" />
<line x1="273.4" y1="0.0" x2="273.4" y2="84.0" />
<line x1="278.4" y1="0.0" x2="278.4" y2="56.0" />
<line x1="283.4" y1="0.0" x2="283.4" y2="60.0" />
<line x1="288.3" y1="0.0" x2="288.3" y2="92.0" />
<line x1="293.3" y1="0.0" x2="293.3" y2="112.0" />
<line x1="298.3" y1="0.0" x2="298.3" y2="140.0" />
<line x1="303.2" y1="0.0" x2="303.2" y2="208.0" />
<line x1="308.2" y1="0.0" x2="308.2" y2="256.0" />
<line x1="313.2" y1="0.0" x2="313.2" y2="192.0" />
<line x1="318.1" y1="0.0" x2="318.1" y2="64.0" />
<line x1="323.1" y1="0.0" x2="323.1" y2="4.0" />
<line x1="328.1" y1="0.0" x2="328.1" y2="8.0" />
<line x1="333.1" y1="0.0" x2="333.1" y2="12.0" />
<line x1="338.0" y1="0.0" x2="338.0" y2="12.0" />
<line x1="343.0" y1="0.0" x2="343.0" y2="16.0" />
<line x1="348.0" y1="0.0" x2="348.0" y2="28.0" />
<line x1="352.9" y1="0.0" x2="352.9" y2="32.0" />
<line x1="357.9" y1="0.0" x2="357.9" y2="20.0" />
<line x1="362.9" y1="0.0" x2="362.9" y2="16.0" />
<line x1="367.9" y1="0.0" x2="367.9" y2="28.0" />
<line x1="372.8" y1="0.0" x2="372.8" y2="36.0" />
<line x1="377.8" y1="0.0" x2="377.8" y2="40.0" />
<line x1="382.8" y1="0.0" x2="382.8" y2="60.0" />
<line x1="387.7" y1="0.0" x2="387.7" y2="88.0" />
<line x1="392.7" y1="0.0" x2="392.7" y2="80.0" />
<line x1="397.7" y1="0.0" x2="397.7" y2="36.0" />
<line x1="402.7" y1="0.0" x2="402.7" y2="16.0" />
<line x1="407.6" y1="0.0" x2="407.6" y2="28.0" />
<line x1="412.6" y1="0.0" x2="412.6" y2="36.0" />
<line x1="417.6" y1="0.0" x2="417.6" y2="40.0" />
</g>
</svg>