<svg xmlns="http://www.w3.org/2000/svg" width="161.8" height="100.0" viewBox="-4 -5 172 110">
<g fill="none" stroke="black" stroke-width="97.3550%" transform="translate(0, 100.0000) scale(0.0051, -0.0051)">
<circle cx="158" cy="0" r="97" />
<circle cx="317" cy="1" r="97" />
<circle cx="475" cy="3" r="97" />
<circle cx="633" cy="7" r="97" />
<circle cx="792" cy="11" r="97" />
<circle cx="950" cy="15" r="97" />
<circle cx="1108" cy="23" r="97" />
<circle cx="1267" cy="35" r="97" />
<circle cx="1425" cy="43" r="97" />
<circle cx="1583" cy="47" r="97" />
<circle cx="1741" cy="55" r="97" />
<circle cx="1900" cy="67" r="97" />
<circle cx="2058" cy="79" r="97" />
<circle cx="2216" cy="95" r="97" />
<circle cx="2375" cy="123" r="97" />
<circle cx="2533" cy="155" r="97" />
<circle cx="2691" cy="171" r="97" />
<circle cx="2850" cy="175" r="97" />
<circle cx="3008" cy="183" r="97" />
<circle cx="3166" cy="195" r="97" />
<circle cx="3325" cy="207" r="97" />
<circle cx="3483" cy="223" r="97" />
<circle cx="3641" cy="251" r="97" />
<circle cx="3800" cy="283" r="97" />
<circle cx="3958" cy="303" r="97" />
<circle cx="4116" cy="319" r="97" />
<circle cx="4275" cy="347" r="97" />
<circle cx="4433" cy="383" r="97" />
<circle cx="4591" cy="423" r="97" />
<circle cx="4749" cy="483" r="97" />
<circle cx="4908" cy="571" r="97" />
<circle cx="5066" cy="651" r="97" />
<circle cx="5224" cy="683" r="97" />
<circle cx="5383" cy="687" r="97" />
<circle cx="5541" cy="695" r="97" />
<circle cx="5699" cy="707" r="97" />
<circle cx="5858" cy="719" r="97" />
<circle cx="6016" cy="735" r="97" />
<circle cx="6174" cy="763" r="97" />
<circle cx="6333" cy="795" r="97" />
<circle cx="6491" cy="815" r="97" />
<circle cx="6649" cy="831" r="97" />
<circle cx="6808" cy="859" r="97" />
<circle cx="6966" cy="895" r="97" />
<circle cx="7124" cy="935" r="97" />
<circle cx="7283" cy="995" r="97" />
<circle cx="7441" cy="1083" r="97" />
<circle cx="7599" cy="1163" r="97" />
<circle cx="7757" cy="1199" r="97" />
<circle cx="7916" cy="1215" r="97" />
<circle cx="8074" cy="1243" r="97" />
<circle cx="8232" cy="1279" r="97" />
<circle cx="8391" cy="1319" r="97" />
<circle cx="8549" cy="1379" r="97" />
<circle cx="8707" cy="1467" r="97" />
<circle cx="8866" cy="1551" r="97" />
<circle cx="9024" cy="1607" r="97" />
<circle cx="9182" cy="1667" r="97" />
<circle cx="9341" cy="1759" r="97" />
<circle cx="9499" cy="1871" r="97" />
<circle cx="9657" cy="2011" r="97" />
<circle cx="9816" cy="2219" r="97" />
<circle cx="9974" cy="2475" r="97" />
<circle cx="10132" cy="2667" r="97" />
<circle cx="10290" cy="2731" r="97" />
<circle cx="10449" cy="2735" r="97" />
<circle cx="10607" cy="2743" r="97" />
<circle cx="10765" cy="2755" r="97" />
<circle cx="10924" cy="2767" r="97" />
<circle cx="11082" cy="2783" r="97" />
<circle cx="11240" cy="2811" r="97" />
<circle cx="11399" cy="2843" r="97" />
<circle cx="11557" cy="2863" r="97" />
<circle cx="11715" cy="2879" r="97" />
<circle cx="11874" cy="2907" r="97" />
<circle cx="12032" cy="2943" r="97" />
<circle cx="12190" cy="2983" r="97" />
<circle cx="12349" cy="3043" r="97" />
<circle cx="12507" cy="3131" r="97" />
<circle cx="12665" cy="3211" r="97" />
<circle cx="12824" cy="3247" r="97" />
<circle cx="12982" cy="3263" r="97" />
<circle cx="13140" cy="3291" r="97" />
<circle cx="13298" cy="3327" r="97" />
<circle cx="13457" cy="3367" r="97" />
<circle cx="13615" cy="3427" r="97" />
<circle cx="13773" cy="3515" r="97" />
<circle cx="13932" cy="3599" r="97" />
<circle cx="14090" cy="3655" r="97" />
<circle cx="14248" cy="3715" r="97" />
<circle cx="14407" cy="3807" r="97" />
<circle cx="14565" cy="3919" r="97" />
<circle cx="14723" cy="4059" r="97" />
<circle cx="14882" cy="4267" r="97" />
<circle cx="15040" cy="4523" r="97" />
<circle cx="15198" cy="4715" r="97" />
<circle cx="15357" cy="4783" r="97" />
<circle cx="15515" cy="4799" r="97" />
<circle cx="15673" cy="4827" r="97" />
<circle cx="15832" cy="4863" r="97" />
<circle cx="15990" cy="4903" r="97" />
<circle cx="16148" cy="4963" r="97" />
<circle cx="16306" cy="5051" r="97" />
<circle cx="16465" cy="5135" r="97" />
<circle cx="16623" cy="5191" r="97" />
<circle cx="16781" cy="5251" r="97" />
<circle cx="16940" cy="5343" r="97" />
<circle cx="17098" cy="5455" r="97" />
<circle cx="17256" cy="5595" r="97" />
<circle cx="17415" cy="5803" r="97" />
<circle cx="17573" cy="6059" r="97" />
<circle cx="17731" cy="6255" r="97" />
<circle cx="17890" cy="6343" r="97" />
<circle cx="18048" cy="6403" r="97" />
<circle cx="18206" cy="6495" r="97" />
<circle cx="18365" cy="6607" r="97" />
<circle cx="18523" cy="6747" r="97" />
<circle cx="18681" cy="6955" r="97" />
<circle cx="18840" cy="7215" r="97" />
<circle cx="18998" cy="7439" r="97" />
<circle cx="19156" cy="7611" r="97" />
<circle cx="19314" cy="7823" r="97" />
<circle cx="19473" cy="8119" r="97" />
<circle cx="19631" cy="8483" r="97" />
<circle cx="19789" cy="8971" r="97" />
<circle cx="19948" cy="9643" r="97" />
<circle cx="20106" cy="10347" r="97" />
<circle cx="20264" cy="10795" r="97" />
<circle cx="20423" cy="10923" r="97" />
<circle cx="20581" cy="10927" r="97" />
<circle cx="20739" cy="10935" r="97" />
<circle cx="20898" cy="10947" r="97" />
<circle cx="21056" cy="10959" r="97" />
<circle cx="21214" cy="10975" r="97" />
<circle cx="21373" cy="11003" r="97" />
<circle cx="21531" cy="11035" r="97" />
<circle cx="21689" cy="11055" r="97" />
<circle cx="21848" cy="11071" r="97" />
<circle cx="22006" cy="11099" r="97" />
<circle cx="22164" cy="11135" r="97" />
<circle cx="22322" cy="11175" r="97" />
<circle cx="22481" cy="11235" r="97" />
<circle cx="22639" cy="11323" r="97" />
<circle cx="22797" cy="11403" r="97" />
<circle cx="22956" cy="11439" r="97" />
<circle cx="23114" cy="11455" r="97" />
<circle cx="23272" cy="11483" r="97" />
<circle cx="23431" cy="11519" r="97" />
<circle cx="23589" cy="11559" r="97" />
<circle cx="23747" cy="11619" r="97" />
<circle cx="23906" cy="11707" r="97" />
<circle cx="24064" cy="11791" r="97" />
<circle cx="24222" cy="11847" r="97" />
<circle cx="24381" cy="11907" r="97" />
<circle cx="24539" cy="11999" r="97" />
<circle cx="24697" cy="12111" r="97" />
<circle cx="24855" cy="12251" r="97" />
<circle cx="25014" cy="12459" r="97" />
<circle cx="25172" cy="12715" r="97" />
<circle cx="25330" cy="12907" r="97" />
<circle cx="25489" cy="12975" r="97" />
<circle cx="25647" cy="12991" r="97" />
<circle cx="25805" cy="13019" r="97" />
<circle cx="25964" cy="13055" r="97" />
<circle cx="26122" cy="13095" r="97" />
<circle cx="26280" cy="13155" r="97" />
<circle cx="26439" cy="13243" r="97" />
<circle cx="26597" cy="13327" r="97" />
<circle cx="26755" cy="13383" r="97" />
<circle cx="26914" cy="13443" r="97" />
<circle cx="27072" cy="13535" r="97" />
<circle cx="27230" cy="13647" r="97" />
<circle cx="27389" cy="13787" r="97" />
<circle cx="27547" cy="13995" r="97" />
<circle cx="27705" cy="14251" r="97" />
<circle cx="27863" cy="14447" r="97" />
<circle cx="28022" cy="14535" r="97" />
<circle cx="28180" cy="14595" r="97" />
<circle cx="28338" cy="14687" r="97" />
<circle cx="28497" cy="14799" r="97" />
<circle cx="28655" cy="14939" r="97" />
<circle cx="28813" cy="15147" r="97" />
<circle cx="28972" cy="15407" r="97" />
<circle cx="29130" cy="15631" r="97" />
<circle cx="29288" cy="15803" r="97" />
<circle cx="29447" cy="16015" r="97" />
<circle cx="29605" cy="16311" r="97" />
<circle cx="29763" cy="16675" r="97" />
<circle cx="29922" cy="17163" r="97" />
<circle cx="30080" cy="17835" r="97" />
<circle cx="30238" cy="18539" r="97" />
<circle cx="30397" cy="18987" r="97" />
<circle cx="30555" cy="19119" r="97" />
<circle cx="30713" cy="19135" r="97" />
<circle cx="30871" cy="19163" r="97" />
<circle cx="31030" cy="19199" r="97" />
<circle cx="31188" cy="19239" r="97" />
<circle cx="31346" cy="19299" r="97" />
<circle cx="31505" cy="19387" r="97" />
<circle cx="31663" cy="19471" r="97" />
</g>
</svg>