<svg xmlns="http://www.w3.org/2000/svg" width="161.8" height="100.0" viewBox="-5.000 -5.000 171.803 110.000">
<g fill="none" stroke="black" stroke-width="0.0025%" transform="translate(0, 100.0000) scale(200.0000, -200.0000)">
<polyline points="0.000,0.000 0.008,0.040 0.016,0.080 0.024,0.120 0.032,0.160 0.040,0.200 0.049,0.240 0.057,0.280 0.065,0.320 0.073,0.360 0.081,0.400 0.089,0.440 0.097,0.480 0.105,0.497 0.113,0.491 0.121,0.486 0.129,0.480 0.138,0.474 0.146,0.469 0.154,0.463 0.162,0.457 0.170,0.451 0.178,0.446 0.186,0.440 0.194,0.434 0.202,0.429 0.210,0.423 0.218,0.417 0.227,0.411 0.235,0.406 0.243,0.400 0.251,0.394 0.259,0.389 0.267,0.383 0.275,0.377 0.283,0.371 0.291,0.366 0.299,0.360 0.307,0.354 0.316,0.349 0.324,0.343 0.332,0.337 0.340,0.331 0.348,0.326 0.356,0.320 0.364,0.314 0.372,0.309 0.380,0.303 0.388,0.297 0.396,0.291 0.405,0.286 0.413,0.280 0.421,0.274 0.429,0.269 0.437,0.263 0.445,0.257 0.453,0.251 0.461,0.246 0.469,0.240 0.477,0.234 0.485,0.229 0.494,0.223 0.502,0.217 0.510,0.211 0.518,0.206 0.526,0.200 0.534,0.194 0.542,0.189 0.550,0.183 0.558,0.177 0.566,0.171 0.574,0.166 0.582,0.160 0.591,0.154 0.599,0.149 0.607,0.143 0.615,0.137 0.623,0.131 0.631,0.126 0.639,0.120 0.647,0.114 0.655,0.109 0.663,0.103 0.671,0.097 0.680,0.091 0.688,0.086 0.696,0.080 0.704,0.074 0.712,0.069 0.720,0.063 0.728,0.057 0.736,0.051 0.744,0.046 0.752,0.040 0.760,0.034 0.769,0.029 0.777,0.023 0.785,0.017 0.793,0.011 0.801,0.006 0.809,0.000" />
<polyline points="0.000,0.000 0.008,0.010 0.016,0.020 0.024,0.030 0.032,0.040 0.040,0.050 0.049,0.060 0.057,0.070 0.065,0.080 0.073,0.090 0.081,0.100 0.089,0.110 0.097,0.120 0.105,0.130 0.113,0.140 0.121,0.150 0.129,0.160 0.138,0.170 0.146,0.180 0.154,0.190 0.162,0.200 0.170,0.210 0.178,0.220 0.186,0.230 0.194,0.240 0.202,0.250 0.210,0.260 0.218,0.270 0.227,0.280 0.235,0.290 0.243,0.300 0.251,0.310 0.259,0.320 0.267,0.330 0.275,0.340 0.283,0.350 0.291,0.360 0.299,0.370 0.307,0.380 0.316,0.390 0.324,0.400 0.332,0.410 0.340,0.420 0.348,0.430 0.356,0.440 0.364,0.450 0.372,0.460 0.380,0.470 0.388,0.480 0.396,0.490 0.405,0.500 0.413,0.490 0.421,0.480 0.429,0.470 0.437,0.460 0.445,0.450 0.453,0.440 0.461,0.430 0.469,0.420 0.477,0.410 0.485,0.400 0.494,0.390 0.502,0.380 0.510,0.370 0.518,0.360 0.526,0.350 0.534,0.340 0.542,0.330 0.550,0.320 0.558,0.310 0.566,0.300 0.574,0.290 0.582,0.280 0.591,0.270 0.599,0.260 0.607,0.250 0.615,0.240 0.623,0.230 0.631,0.220 0.639,0.210 0.647,0.200 0.655,0.190 0.663,0.180 0.671,0.170 0.680,0.160 0.688,0.150 0.696,0.140 0.704,0.130 0.712,0.120 0.720,0.110 0.728,0.100 0.736,0.090 0.744,0.080 0.752,0.070 0.760,0.060 0.769,0.050 0.777,0.040 0.785,0.030 0.793,0.020 0.801,0.010 0.809,0.000" />
<polyline points="0.000,0.000 0.008,0.007 0.016,0.013 0.024,0.020 0.032,0.027 0.040,0.033 0.049,0.040 0.057,0.047 0.065,0.053 0.073,0.060 0.081,0.067 0.089,0.073 0.097,0.080 0.105,0.087 0.113,0.093 0.121,0.100 0.129,0.107 0.138,0.113 0.146,0.120 0.154,0.127 0.162,0.133 0.170,0.140 0.178,0.147 0.186,0.153 0.194,0.160 0.202,0.167 0.210,0.173 0.218,0.180 0.227,0.187 0.235,0.193 0.243,0.200 0.251,0.207 0.259,0.213 0.267,0.220 0.275,0.227 0.283,0.233 0.291,0.240 0.299,0.247 0.307,0.253 0.316,0.260 0.324,0.267 0.332,0.273 0.340,0.280 0.348,0.287 0.356,0.293 0.364,0.300 0.372,0.307 0.380,0.313 0.388,0.320 0.396,0.327 0.405,0.333 0.413,0.340 0.421,0.347 0.429,0.353 0.437,0.360 0.445,0.367 0.453,0.373 0.461,0.380 0.469,0.387 0.477,0.393 0.485,0.400 0.494,0.407 0.502,0.413 0.510,0.420 0.518,0.427 0.526,0.433 0.534,0.440 0.542,0.447 0.550,0.453 0.558,0.460 0.566,0.467 0.574,0.473 0.582,0.480 0.591,0.487 0.599,0.493 0.607,0.500 0.615,0.480 0.623,0.460 0.631,0.440 0.639,0.420 0.647,0.400 0.655,0.380 0.663,0.360 0.671,0.340 0.680,0.320 0.688,0.300 0.696,0.280 0.704,0.260 0.712,0.240 0.720,0.220 0.728,0.200 0.736,0.180 0.744,0.160 0.752,0.140 0.760,0.120 0.769,0.100 0.777,0.080 0.785,0.060 0.793,0.040 0.801,0.020 0.809,0.000" />
</g>
</svg>