<svg xmlns="http://www.w3.org/2000/svg" width="161.8" height="100.0" viewBox="-2.51 -55.00 171.80 110.00">
<g fill="none" stroke="black" stroke-width="0.0394%" transform="translate(0, 0.0015) scale(12.6984, -12.6984)">
<circle cx="0.20" cy="0.00" r="0.04" />
<circle cx="0.20" cy="0.52" r="0.04" />
<circle cx="0.39" cy="0.52" r="0.04" />
<circle cx="0.59" cy="0.52" r="0.04" />
<circle cx="0.78" cy="0.52" r="0.04" />
<circle cx="0.98" cy="0.00" r="0.04" />
<circle cx="1.18" cy="0.52" r="0.04" />
<circle cx="1.37" cy="0.52" r="0.04" />
<circle cx="1.57" cy="-0.52" r="0.04" />
<circle cx="1.76" cy="0.75" r="0.04" />
<circle cx="1.96" cy="0.52" r="0.04" />
<circle cx="2.16" cy="0.52" r="0.04" />
<circle cx="2.35" cy="-0.75" r="0.04" />
<circle cx="2.55" cy="1.01" r="0.04" />
<circle cx="2.74" cy="-0.90" r="0.04" />
<circle cx="2.94" cy="0.52" r="0.04" />
<circle cx="3.14" cy="0.52" r="0.04" />
<circle cx="3.33" cy="-0.90" r="0.04" />
<circle cx="3.53" cy="1.23" r="0.04" />
<circle cx="3.72" cy="-1.38" r="0.04" />
<circle cx="3.92" cy="1.42" r="0.04" />
<circle cx="4.12" cy="0.52" r="0.04" />
<circle cx="4.31" cy="0.52" r="0.04" />
<circle cx="4.51" cy="-1.01" r="0.04" />
<circle cx="4.70" cy="1.42" r="0.04" />
<circle cx="4.90" cy="-1.69" r="0.04" />
<circle cx="5.10" cy="1.87" r="0.04" />
<circle cx="5.29" cy="-1.86" r="0.04" />
<circle cx="5.49" cy="0.52" r="0.04" />
<circle cx="5.68" cy="0.52" r="0.04" />
<circle cx="5.88" cy="-1.10" r="0.04" />
<circle cx="6.08" cy="1.58" r="0.04" />
<circle cx="6.27" cy="-1.94" r="0.04" />
<circle cx="6.47" cy="2.20" r="0.04" />
<circle cx="6.67" cy="-2.36" r="0.04" />
<circle cx="6.86" cy="2.37" r="0.04" />
<circle cx="7.06" cy="0.52" r="0.04" />
<circle cx="7.25" cy="0.52" r="0.04" />
<circle cx="7.45" cy="-1.17" r="0.04" />
<circle cx="7.65" cy="1.71" r="0.04" />
<circle cx="7.84" cy="-2.14" r="0.04" />
<circle cx="8.04" cy="2.47" r="0.04" />
<circle cx="8.23" cy="-2.72" r="0.04" />
<circle cx="8.43" cy="2.88" r="0.04" />
<circle cx="8.63" cy="-2.88" r="0.04" />
<circle cx="8.82" cy="0.52" r="0.04" />
<circle cx="9.02" cy="0.52" r="0.04" />
<circle cx="9.21" cy="-1.23" r="0.04" />
<circle cx="9.41" cy="1.83" r="0.04" />
<circle cx="9.61" cy="-2.31" r="0.04" />
<circle cx="9.80" cy="2.70" r="0.04" />
<circle cx="10.00" cy="-3.01" r="0.04" />
<circle cx="10.19" cy="3.25" r="0.04" />
<circle cx="10.39" cy="-3.40" r="0.04" />
<circle cx="10.59" cy="3.40" r="0.04" />
<circle cx="10.78" cy="0.52" r="0.04" />
<circle cx="10.98" cy="0.52" r="0.04" />
<circle cx="11.17" cy="-1.29" r="0.04" />
<circle cx="11.37" cy="1.94" r="0.04" />
<circle cx="11.57" cy="-2.46" r="0.04" />
<circle cx="11.76" cy="2.90" r="0.04" />
<circle cx="11.96" cy="-3.26" r="0.04" />
<circle cx="12.15" cy="3.55" r="0.04" />
<circle cx="12.35" cy="-3.79" r="0.04" />
<circle cx="12.55" cy="3.94" r="0.04" />
<circle cx="12.74" cy="-3.94" r="0.04" />
<circle cx="12.94" cy="0.52" r="0.04" />
</g>
</svg>