<svg xmlns="http://www.w3.org/2000/svg" width="100.0" height="100.0" viewBox="-3.9 -3.9 110.0 110.0">
<g fill="none" stroke="black" stroke-width="0.4500%" transform="translate(0, 102.2222) scale(1.1111, -1.1111)">
<circle cx="1.0" cy="1.0" r="0.4" />
<circle cx="2.0" cy="2.0" r="0.4" />
<circle cx="3.0" cy="3.0" r="0.4" />
<circle cx="4.0" cy="3.0" r="0.4" />
<circle cx="5.0" cy="5.0" r="0.4" />
<circle cx="6.0" cy="6.0" r="0.4" />
<circle cx="7.0" cy="4.0" r="0.4" />
<circle cx="8.0" cy="7.0" r="0.4" />
<circle cx="9.0" cy="9.0" r="0.4" />
<circle cx="10.0" cy="10.0" r="0.4" />
<circle cx="11.0" cy="5.0" r="0.4" />
<circle cx="12.0" cy="9.0" r="0.4" />
<circle cx="13.0" cy="12.0" r="0.4" />
<circle cx="14.0" cy="14.0" r="0.4" />
<circle cx="15.0" cy="15.0" r="0.4" />
<circle cx="16.0" cy="6.0" r="0.4" />
<circle cx="17.0" cy="11.0" r="0.4" />
<circle cx="18.0" cy="15.0" r="0.4" />
<circle cx="19.0" cy="18.0" r="0.4" />
<circle cx="20.0" cy="20.0" r="0.4" />
<circle cx="21.0" cy="21.0" r="0.4" />
<circle cx="22.0" cy="7.0" r="0.4" />
<circle cx="23.0" cy="13.0" r="0.4" />
<circle cx="24.0" cy="18.0" r="0.4" />
<circle cx="25.0" cy="22.0" r="0.4" />
<circle cx="26.0" cy="25.0" r="0.4" />
<circle cx="27.0" cy="27.0" r="0.4" />
<circle cx="28.0" cy="28.0" r="0.4" />
<circle cx="29.0" cy="8.0" r="0.4" />
<circle cx="30.0" cy="15.0" r="0.4" />
<circle cx="31.0" cy="21.0" r="0.4" />
<circle cx="32.0" cy="26.0" r="0.4" />
<circle cx="33.0" cy="30.0" r="0.4" />
<circle cx="34.0" cy="33.0" r="0.4" />
<circle cx="35.0" cy="35.0" r="0.4" />
<circle cx="36.0" cy="36.0" r="0.4" />
<circle cx="37.0" cy="9.0" r="0.4" />
<circle cx="38.0" cy="17.0" r="0.4" />
<circle cx="39.0" cy="24.0" r="0.4" />
<circle cx="40.0" cy="30.0" r="0.4" />
<circle cx="41.0" cy="35.0" r="0.4" />
<circle cx="42.0" cy="39.0" r="0.4" />
<circle cx="43.0" cy="42.0" r="0.4" />
<circle cx="44.0" cy="44.0" r="0.4" />
<circle cx="45.0" cy="45.0" r="0.4" />
<circle cx="46.0" cy="10.0" r="0.4" />
<circle cx="47.0" cy="19.0" r="0.4" />
<circle cx="48.0" cy="27.0" r="0.4" />
<circle cx="49.0" cy="34.0" r="0.4" />
<circle cx="50.0" cy="40.0" r="0.4" />
<circle cx="51.0" cy="45.0" r="0.4" />
<circle cx="52.0" cy="49.0" r="0.4" />
<circle cx="53.0" cy="52.0" r="0.4" />
<circle cx="54.0" cy="54.0" r="0.4" />
<circle cx="55.0" cy="55.0" r="0.4" />
<circle cx="56.0" cy="11.0" r="0.4" />
<circle cx="57.0" cy="21.0" r="0.4" />
<circle cx="58.0" cy="30.0" r="0.4" />
<circle cx="59.0" cy="38.0" r="0.4" />
<circle cx="60.0" cy="45.0" r="0.4" />
<circle cx="61.0" cy="51.0" r="0.4" />
<circle cx="62.0" cy="56.0" r="0.4" />
<circle cx="63.0" cy="60.0" r="0.4" />
<circle cx="64.0" cy="63.0" r="0.4" />
<circle cx="65.0" cy="65.0" r="0.4" />
<circle cx="66.0" cy="66.0" r="0.4" />
<circle cx="67.0" cy="12.0" r="0.4" />
<circle cx="68.0" cy="23.0" r="0.4" />
<circle cx="69.0" cy="33.0" r="0.4" />
<circle cx="70.0" cy="42.0" r="0.4" />
<circle cx="71.0" cy="50.0" r="0.4" />
<circle cx="72.0" cy="57.0" r="0.4" />
<circle cx="73.0" cy="63.0" r="0.4" />
<circle cx="74.0" cy="68.0" r="0.4" />
<circle cx="75.0" cy="72.0" r="0.4" />
<circle cx="76.0" cy="75.0" r="0.4" />
<circle cx="77.0" cy="77.0" r="0.4" />
<circle cx="78.0" cy="78.0" r="0.4" />
<circle cx="79.0" cy="13.0" r="0.4" />
<circle cx="80.0" cy="25.0" r="0.4" />
<circle cx="81.0" cy="36.0" r="0.4" />
<circle cx="82.0" cy="46.0" r="0.4" />
<circle cx="83.0" cy="55.0" r="0.4" />
<circle cx="84.0" cy="63.0" r="0.4" />
<circle cx="85.0" cy="70.0" r="0.4" />
<circle cx="86.0" cy="76.0" r="0.4" />
<circle cx="87.0" cy="81.0" r="0.4" />
<circle cx="88.0" cy="85.0" r="0.4" />
<circle cx="89.0" cy="88.0" r="0.4" />
<circle cx="90.0" cy="90.0" r="0.4" />
<circle cx="91.0" cy="91.0" r="0.4" />
</g>
</svg>