<svg xmlns="http://www.w3.org/2000/svg" width="161.8" height="100.0" viewBox="-4.50 -5.00 171.80 110.00">
<g fill="none" stroke="black" stroke-width="0.0600%" transform="translate(0, 100.0000) scale(8.3333, -8.3333)">
<circle cx="0.06" cy="0.00" r="0.06" />




<line x1="0.30" y1="0.00" x2="0.30" y2="1.00" />






<line x1="0.72" y1="0.00" x2="0.72" y2="1.00" />
<line x1="0.78" y1="0.00" x2="0.78" y2="2.00" />
<line x1="0.84" y1="0.00" x2="0.84" y2="1.00" />








<line x1="1.38" y1="0.00" x2="1.38" y2="1.00" />

<line x1="1.50" y1="0.00" x2="1.50" y2="3.00" />

<line x1="1.62" y1="0.00" x2="1.62" y2="1.00" />



<line x1="1.86" y1="0.00" x2="1.86" y2="2.00" />


<line x1="2.04" y1="0.00" x2="2.04" y2="2.00" />



<line x1="2.28" y1="0.00" x2="2.28" y2="1.00" />

<line x1="2.40" y1="0.00" x2="2.40" y2="1.00" />
<line x1="2.46" y1="0.00" x2="2.46" y2="4.00" />
<line x1="2.52" y1="0.00" x2="2.52" y2="1.00" />

<line x1="2.64" y1="0.00" x2="2.64" y2="1.00" />












<line x1="3.42" y1="0.00" x2="3.42" y2="1.00" />
<line x1="3.48" y1="0.00" x2="3.48" y2="2.00" />
<line x1="3.54" y1="0.00" x2="3.54" y2="3.00" />

<line x1="3.66" y1="0.00" x2="3.66" y2="5.00" />

<line x1="3.78" y1="0.00" x2="3.78" y2="3.00" />
<line x1="3.84" y1="0.00" x2="3.84" y2="2.00" />
<line x1="3.90" y1="0.00" x2="3.90" y2="1.00" />














<line x1="4.79" y1="0.00" x2="4.79" y2="1.00" />

<line x1="4.91" y1="0.00" x2="4.91" y2="1.00" />

<line x1="5.03" y1="0.00" x2="5.03" y2="1.00" />
<line x1="5.09" y1="0.00" x2="5.09" y2="6.00" />
<line x1="5.15" y1="0.00" x2="5.15" y2="1.00" />

<line x1="5.27" y1="0.00" x2="5.27" y2="1.00" />

<line x1="5.39" y1="0.00" x2="5.39" y2="1.00" />



<line x1="5.63" y1="0.00" x2="5.63" y2="2.00" />

<line x1="5.75" y1="0.00" x2="5.75" y2="4.00" />
<line x1="5.81" y1="0.00" x2="5.81" y2="2.00" />


<line x1="5.99" y1="0.00" x2="5.99" y2="2.00" />
<line x1="6.05" y1="0.00" x2="6.05" y2="4.00" />

<line x1="6.17" y1="0.00" x2="6.17" y2="2.00" />



<line x1="6.41" y1="0.00" x2="6.41" y2="1.00" />

<line x1="6.53" y1="0.00" x2="6.53" y2="3.00" />

<line x1="6.65" y1="0.00" x2="6.65" y2="1.00" />

<line x1="6.77" y1="0.00" x2="6.77" y2="7.00" />

<line x1="6.89" y1="0.00" x2="6.89" y2="1.00" />

<line x1="7.01" y1="0.00" x2="7.01" y2="3.00" />

<line x1="7.13" y1="0.00" x2="7.13" y2="1.00" />


















<line x1="8.27" y1="0.00" x2="8.27" y2="1.00" />
<line x1="8.33" y1="0.00" x2="8.33" y2="2.00" />
<line x1="8.39" y1="0.00" x2="8.39" y2="1.00" />

<line x1="8.51" y1="0.00" x2="8.51" y2="5.00" />

<line x1="8.63" y1="0.00" x2="8.63" y2="1.00" />
<line x1="8.69" y1="0.00" x2="8.69" y2="8.00" />
<line x1="8.75" y1="0.00" x2="8.75" y2="1.00" />

<line x1="8.87" y1="0.00" x2="8.87" y2="5.00" />

<line x1="8.99" y1="0.00" x2="8.99" y2="1.00" />
<line x1="9.05" y1="0.00" x2="9.05" y2="2.00" />
<line x1="9.11" y1="0.00" x2="9.11" y2="1.00" />




















<line x1="10.37" y1="0.00" x2="10.37" y2="1.00" />

<line x1="10.49" y1="0.00" x2="10.49" y2="3.00" />
<line x1="10.55" y1="0.00" x2="10.55" y2="4.00" />
<line x1="10.61" y1="0.00" x2="10.61" y2="1.00" />

<line x1="10.73" y1="0.00" x2="10.73" y2="3.00" />

<line x1="10.85" y1="0.00" x2="10.85" y2="9.00" />

<line x1="10.97" y1="0.00" x2="10.97" y2="3.00" />

<line x1="11.09" y1="0.00" x2="11.09" y2="1.00" />
<line x1="11.15" y1="0.00" x2="11.15" y2="4.00" />
<line x1="11.21" y1="0.00" x2="11.21" y2="3.00" />

<line x1="11.33" y1="0.00" x2="11.33" y2="1.00" />



<line x1="11.57" y1="0.00" x2="11.57" y2="2.00" />


<line x1="11.75" y1="0.00" x2="11.75" y2="2.00" />
<line x1="11.81" y1="0.00" x2="11.81" y2="6.00" />

<line x1="11.93" y1="0.00" x2="11.93" y2="2.00" />


<line x1="12.11" y1="0.00" x2="12.11" y2="2.00" />

<line x1="12.23" y1="0.00" x2="12.23" y2="6.00" />
<line x1="12.29" y1="0.00" x2="12.29" y2="2.00" />


<line x1="12.46" y1="0.00" x2="12.46" y2="2.00" />



<line x1="12.70" y1="0.00" x2="12.70" y2="1.00" />

<line x1="12.82" y1="0.00" x2="12.82" y2="1.00" />

<line x1="12.94" y1="0.00" x2="12.94" y2="1.00" />

<line x1="13.06" y1="0.00" x2="13.06" y2="1.00" />

<line x1="13.18" y1="0.00" x2="13.18" y2="1.00" />
<line x1="13.24" y1="0.00" x2="13.24" y2="10.00" />
<line x1="13.30" y1="0.00" x2="13.30" y2="1.00" />

<line x1="13.42" y1="0.00" x2="13.42" y2="1.00" />

<line x1="13.54" y1="0.00" x2="13.54" y2="1.00" />

<line x1="13.66" y1="0.00" x2="13.66" y2="1.00" />

<line x1="13.78" y1="0.00" x2="13.78" y2="1.00" />
























<line x1="15.28" y1="0.00" x2="15.28" y2="1.00" />
<line x1="15.34" y1="0.00" x2="15.34" y2="2.00" />
<line x1="15.40" y1="0.00" x2="15.40" y2="3.00" />

<line x1="15.52" y1="0.00" x2="15.52" y2="5.00" />

<line x1="15.64" y1="0.00" x2="15.64" y2="7.00" />
<line x1="15.70" y1="0.00" x2="15.70" y2="2.00" />
<line x1="15.76" y1="0.00" x2="15.76" y2="1.00" />

<line x1="15.88" y1="0.00" x2="15.88" y2="11.00" />

<line x1="16.00" y1="0.00" x2="16.00" y2="1.00" />
<line x1="16.06" y1="0.00" x2="16.06" y2="2.00" />
<line x1="16.12" y1="0.00" x2="16.12" y2="7.00" />

<line x1="16.24" y1="0.00" x2="16.24" y2="5.00" />

<line x1="16.36" y1="0.00" x2="16.36" y2="3.00" />
<line x1="16.42" y1="0.00" x2="16.42" y2="2.00" />
<line x1="16.48" y1="0.00" x2="16.48" y2="1.00" />





<line x1="16.84" y1="0.00" x2="16.84" y2="4.00" />




<line x1="17.14" y1="0.00" x2="17.14" y2="4.00" />




<line x1="17.44" y1="0.00" x2="17.44" y2="4.00" />




<line x1="17.74" y1="0.00" x2="17.74" y2="4.00" />





<line x1="18.10" y1="0.00" x2="18.10" y2="1.00" />

<line x1="18.22" y1="0.00" x2="18.22" y2="1.00" />

<line x1="18.34" y1="0.00" x2="18.34" y2="1.00" />

<line x1="18.46" y1="0.00" x2="18.46" y2="1.00" />

<line x1="18.58" y1="0.00" x2="18.58" y2="1.00" />

<line x1="18.70" y1="0.00" x2="18.70" y2="1.00" />
<line x1="18.76" y1="0.00" x2="18.76" y2="12.00" />
<line x1="18.82" y1="0.00" x2="18.82" y2="1.00" />

<line x1="18.94" y1="0.00" x2="18.94" y2="1.00" />

<line x1="19.06" y1="0.00" x2="19.06" y2="1.00" />

<line x1="19.18" y1="0.00" x2="19.18" y2="1.00" />

<line x1="19.30" y1="0.00" x2="19.30" y2="1.00" />

<line x1="19.42" y1="0.00" x2="19.42" y2="1.00" />

</g>
</svg>