<svg xmlns="http://www.w3.org/2000/svg" width="161.8" height="100.0" viewBox="-2.00 -52.37 171.80 110.00">
<g fill="none" stroke="black" stroke-width="0.0950%" transform="translate(0, 5.2632) scale(5.2632, -5.2632)">
<circle cx="0.57" cy="1.00" r="0.09" />
<circle cx="1.14" cy="-1.00" r="0.09" />
<circle cx="1.71" cy="2.00" r="0.09" />
<circle cx="2.28" cy="0.00" r="0.09" />
<circle cx="2.85" cy="-2.00" r="0.09" />
<circle cx="3.42" cy="3.00" r="0.09" />
<circle cx="3.99" cy="0.00" r="0.09" />
<circle cx="4.55" cy="0.00" r="0.09" />
<circle cx="5.12" cy="-3.00" r="0.09" />
<circle cx="5.69" cy="4.00" r="0.09" />
<circle cx="6.26" cy="0.00" r="0.09" />
<circle cx="6.83" cy="0.00" r="0.09" />
<circle cx="7.40" cy="0.00" r="0.09" />
<circle cx="7.97" cy="-4.00" r="0.09" />
<circle cx="8.54" cy="5.00" r="0.09" />
<circle cx="9.11" cy="0.00" r="0.09" />
<circle cx="9.68" cy="0.00" r="0.09" />
<circle cx="10.25" cy="0.00" r="0.09" />
<circle cx="10.82" cy="0.00" r="0.09" />
<circle cx="11.39" cy="-5.00" r="0.09" />
<circle cx="11.96" cy="6.00" r="0.09" />
<circle cx="12.52" cy="0.00" r="0.09" />
<circle cx="13.09" cy="0.00" r="0.09" />
<circle cx="13.66" cy="0.00" r="0.09" />
<circle cx="14.23" cy="0.00" r="0.09" />
<circle cx="14.80" cy="0.00" r="0.09" />
<circle cx="15.37" cy="-6.00" r="0.09" />
<circle cx="15.94" cy="7.00" r="0.09" />
<circle cx="16.51" cy="0.00" r="0.09" />
<circle cx="17.08" cy="0.00" r="0.09" />
<circle cx="17.65" cy="0.00" r="0.09" />
<circle cx="18.22" cy="0.00" r="0.09" />
<circle cx="18.79" cy="0.00" r="0.09" />
<circle cx="19.36" cy="0.00" r="0.09" />
<circle cx="19.93" cy="-7.00" r="0.09" />
<circle cx="20.50" cy="8.00" r="0.09" />
<circle cx="21.06" cy="0.00" r="0.09" />
<circle cx="21.63" cy="0.00" r="0.09" />
<circle cx="22.20" cy="0.00" r="0.09" />
<circle cx="22.77" cy="0.00" r="0.09" />
<circle cx="23.34" cy="0.00" r="0.09" />
<circle cx="23.91" cy="0.00" r="0.09" />
<circle cx="24.48" cy="0.00" r="0.09" />
<circle cx="25.05" cy="-8.00" r="0.09" />
<circle cx="25.62" cy="9.00" r="0.09" />
<circle cx="26.19" cy="0.00" r="0.09" />
<circle cx="26.76" cy="0.00" r="0.09" />
<circle cx="27.33" cy="0.00" r="0.09" />
<circle cx="27.90" cy="0.00" r="0.09" />
<circle cx="28.47" cy="0.00" r="0.09" />
<circle cx="29.03" cy="0.00" r="0.09" />
<circle cx="29.60" cy="0.00" r="0.09" />
<circle cx="30.17" cy="0.00" r="0.09" />
<circle cx="30.74" cy="-9.00" r="0.09" />
<circle cx="31.31" cy="10.00" r="0.09" />
</g>
</svg>