<svg xmlns="http://www.w3.org/2000/svg" width="114.6" height="100.0" viewBox="-5.000 -5.000 124.641 110.000">
<g fill="none" stroke="black" stroke-width="0.0063%" transform="translate(0, 100.0000) scale(80.0000, -80.0000)">
<polygon points="0.000,0.000 1.000,-0.000 1.000,1.000 0.000,1.000" />
<polygon points="0.433,0.250 1.433,0.250 1.433,1.250 0.433,1.250" />
<polygon points="1.000,1.000 0.000,1.000 0.433,1.250 1.433,1.250" />
<polygon points="0.000,0.000 1.000,-0.000 1.433,0.250 0.433,0.250" />
<polygon points="0.000,0.000 0.433,0.250 0.433,1.250 0.000,1.000" />
<polygon points="1.000,-0.000 1.000,1.000 1.433,1.250 1.433,0.250" />
<polygon points="0.000,0.000 1.433,0.250 0.433,1.250" />
</g>
</svg>