<svg xmlns="http://www.w3.org/2000/svg" width="161.5" height="100.0" viewBox="-3 -5 172 110">
<g fill="none" stroke="black" stroke-width="3.1500%" transform="translate(0, 100.0000) scale(0.1587, -0.1587)">
<line x1="15" y1="0" x2="15" y2="1" />
<line x1="29" y1="0" x2="29" y2="1" />
<line x1="44" y1="0" x2="44" y2="3" />
<line x1="59" y1="0" x2="59" y2="3" />
<line x1="74" y1="0" x2="74" y2="6" />
<line x1="88" y1="0" x2="88" y2="6" />
<line x1="103" y1="0" x2="103" y2="10" />
<line x1="118" y1="0" x2="118" y2="10" />
<line x1="133" y1="0" x2="133" y2="15" />
<line x1="147" y1="0" x2="147" y2="15" />
<line x1="162" y1="0" x2="162" y2="21" />
<line x1="177" y1="0" x2="177" y2="21" />
<line x1="192" y1="0" x2="192" y2="28" />
<line x1="206" y1="0" x2="206" y2="28" />
<line x1="221" y1="0" x2="221" y2="36" />
<line x1="236" y1="0" x2="236" y2="36" />
<line x1="251" y1="0" x2="251" y2="45" />
<line x1="265" y1="0" x2="265" y2="45" />
<line x1="280" y1="0" x2="280" y2="55" />
<line x1="295" y1="0" x2="295" y2="55" />
<line x1="310" y1="0" x2="310" y2="66" />
<line x1="324" y1="0" x2="324" y2="66" />
<line x1="339" y1="0" x2="339" y2="78" />
<line x1="354" y1="0" x2="354" y2="78" />
<line x1="369" y1="0" x2="369" y2="91" />
<line x1="383" y1="0" x2="383" y2="91" />
<line x1="398" y1="0" x2="398" y2="105" />
<line x1="413" y1="0" x2="413" y2="105" />
<line x1="428" y1="0" x2="428" y2="120" />
<line x1="442" y1="0" x2="442" y2="120" />
<line x1="457" y1="0" x2="457" y2="136" />
<line x1="472" y1="0" x2="472" y2="136" />
<line x1="487" y1="0" x2="487" y2="153" />
<line x1="501" y1="0" x2="501" y2="153" />
<line x1="516" y1="0" x2="516" y2="171" />
<line x1="531" y1="0" x2="531" y2="171" />
<line x1="546" y1="0" x2="546" y2="190" />
<line x1="560" y1="0" x2="560" y2="190" />
<line x1="575" y1="0" x2="575" y2="210" />
<line x1="590" y1="0" x2="590" y2="210" />
<line x1="605" y1="0" x2="605" y2="231" />
<line x1="619" y1="0" x2="619" y2="231" />
<line x1="634" y1="0" x2="634" y2="253" />
<line x1="649" y1="0" x2="649" y2="253" />
<line x1="664" y1="0" x2="664" y2="276" />
<line x1="678" y1="0" x2="678" y2="276" />
<line x1="693" y1="0" x2="693" y2="300" />
<line x1="708" y1="0" x2="708" y2="300" />
<line x1="723" y1="0" x2="723" y2="325" />
<line x1="737" y1="0" x2="737" y2="325" />
<line x1="752" y1="0" x2="752" y2="351" />
<line x1="767" y1="0" x2="767" y2="351" />
<line x1="782" y1="0" x2="782" y2="378" />
<line x1="796" y1="0" x2="796" y2="378" />
<line x1="811" y1="0" x2="811" y2="406" />
<line x1="826" y1="0" x2="826" y2="406" />
<line x1="841" y1="0" x2="841" y2="435" />
<line x1="855" y1="0" x2="855" y2="435" />
<line x1="870" y1="0" x2="870" y2="465" />
<line x1="885" y1="0" x2="885" y2="465" />
<line x1="900" y1="0" x2="900" y2="496" />
<line x1="914" y1="0" x2="914" y2="496" />
<line x1="929" y1="0" x2="929" y2="528" />
<line x1="944" y1="0" x2="944" y2="528" />
<line x1="959" y1="0" x2="959" y2="561" />
<line x1="973" y1="0" x2="973" y2="561" />
<line x1="988" y1="0" x2="988" y2="595" />
<line x1="1003" y1="0" x2="1003" y2="595" />
<line x1="1018" y1="0" x2="1018" y2="630" />
<line x1="1032" y1="0" x2="1032" y2="630" />
</g>
</svg>