<svg xmlns="http://www.w3.org/2000/svg" width="100.0" height="100.0" viewBox="-6.92 -2.12 110.00 110.00">
<g fill="none" stroke="black" stroke-width="0.1040%" transform="translate(0, 105.7692) scale(4.8077, -4.8077)">
<g stroke="rgba(128,128,128,0.75)" ><circle cx="10.00" cy="21.00" r="0.40" /></g>
<g fill="rgb(0,0,0)" ><circle cx="10.50" cy="20.00" r="0.40" /></g>
<g fill="rgb(0,0,0)" ><circle cx="9.50" cy="20.00" r="0.40" /></g>
<g stroke="rgba(128,128,128,0.75)" ><circle cx="11.00" cy="19.00" r="0.40" /></g>
<g fill="rgb(0,0,0)" ><circle cx="10.00" cy="19.00" r="0.40" /></g>
<g stroke="rgba(128,128,128,0.75)" ><circle cx="9.00" cy="19.00" r="0.40" /></g>
<g stroke="rgba(128,128,128,0.75)" ><circle cx="11.50" cy="18.00" r="0.40" /></g>
<g fill="rgb(0,0,0)" ><circle cx="10.50" cy="18.00" r="0.40" /></g>
<g fill="rgb(0,0,0)" ><circle cx="9.50" cy="18.00" r="0.40" /></g>
<g stroke="rgba(128,128,128,0.75)" ><circle cx="8.50" cy="18.00" r="0.40" /></g>
<g stroke="rgba(128,128,128,0.75)" ><circle cx="12.00" cy="17.00" r="0.40" /></g>
<g fill="rgb(0,0,0)" ><circle cx="11.00" cy="17.00" r="0.40" /></g>
<g stroke="rgba(128,128,128,0.75)" ><circle cx="10.00" cy="17.00" r="0.40" /></g>
<g fill="rgb(0,0,0)" ><circle cx="9.00" cy="17.00" r="0.40" /></g>
<g stroke="rgba(128,128,128,0.75)" ><circle cx="8.00" cy="17.00" r="0.40" /></g>
<g stroke="rgba(128,128,128,0.75)" ><circle cx="12.50" cy="16.00" r="0.40" /></g>
<g fill="rgb(0,0,0)" ><circle cx="11.50" cy="16.00" r="0.40" /></g>
<g fill="rgb(0,0,0)" ><circle cx="10.50" cy="16.00" r="0.40" /></g>
<g fill="rgb(0,0,0)" ><circle cx="9.50" cy="16.00" r="0.40" /></g>
<g fill="rgb(0,0,0)" ><circle cx="8.50" cy="16.00" r="0.40" /></g>
<g stroke="rgba(128,128,128,0.75)" ><circle cx="7.50" cy="16.00" r="0.40" /></g>
<g stroke="rgba(128,128,128,0.75)" ><circle cx="13.00" cy="15.00" r="0.40" /></g>
<g fill="rgb(0,0,0)" ><circle cx="12.00" cy="15.00" r="0.40" /></g>
<g stroke="rgba(128,128,128,0.75)" ><circle cx="11.00" cy="15.00" r="0.40" /></g>
<g stroke="rgba(128,128,128,0.75)" ><circle cx="10.00" cy="15.00" r="0.40" /></g>
<g stroke="rgba(128,128,128,0.75)" ><circle cx="9.00" cy="15.00" r="0.40" /></g>
<g fill="rgb(0,0,0)" ><circle cx="8.00" cy="15.00" r="0.40" /></g>
<g stroke="rgba(128,128,128,0.75)" ><circle cx="7.00" cy="15.00" r="0.40" /></g>
<g stroke="rgba(128,128,128,0.75)" ><circle cx="13.50" cy="14.00" r="0.40" /></g>
<g fill="rgb(0,0,0)" ><circle cx="12.50" cy="14.00" r="0.40" /></g>
<g fill="rgb(0,0,0)" ><circle cx="11.50" cy="14.00" r="0.40" /></g>
<g fill="rgb(0,0,0)" ><circle cx="10.50" cy="14.00" r="0.40" /></g>
<g fill="rgb(0,0,0)" ><circle cx="9.50" cy="14.00" r="0.40" /></g>
<g fill="rgb(0,0,0)" ><circle cx="8.50" cy="14.00" r="0.40" /></g>
<g fill="rgb(0,0,0)" ><circle cx="7.50" cy="14.00" r="0.40" /></g>
<g stroke="rgba(128,128,128,0.75)" ><circle cx="6.50" cy="14.00" r="0.40" /></g>
<g stroke="rgba(128,128,128,0.75)" ><circle cx="14.00" cy="13.00" r="0.40" /></g>
<g fill="rgb(0,0,0)" ><circle cx="13.00" cy="13.00" r="0.40" /></g>
<g stroke="rgba(128,128,128,0.75)" ><circle cx="12.00" cy="13.00" r="0.40" /></g>
<g fill="rgb(0,0,0)" ><circle cx="11.00" cy="13.00" r="0.40" /></g>
<g stroke="rgba(128,128,128,0.75)" ><circle cx="10.00" cy="13.00" r="0.40" /></g>
<g fill="rgb(0,0,0)" ><circle cx="9.00" cy="13.00" r="0.40" /></g>
<g stroke="rgba(128,128,128,0.75)" ><circle cx="8.00" cy="13.00" r="0.40" /></g>
<g fill="rgb(0,0,0)" ><circle cx="7.00" cy="13.00" r="0.40" /></g>
<g stroke="rgba(128,128,128,0.75)" ><circle cx="6.00" cy="13.00" r="0.40" /></g>
<g stroke="rgba(128,128,128,0.75)" ><circle cx="14.50" cy="12.00" r="0.40" /></g>
<g fill="rgb(0,0,0)" ><circle cx="13.50" cy="12.00" r="0.40" /></g>
<g fill="rgb(0,0,0)" ><circle cx="12.50" cy="12.00" r="0.40" /></g>
<g stroke="rgba(128,128,128,0.75)" ><circle cx="11.50" cy="12.00" r="0.40" /></g>
<g fill="rgb(0,0,0)" ><circle cx="10.50" cy="12.00" r="0.40" /></g>
<g fill="rgb(0,0,0)" ><circle cx="9.50" cy="12.00" r="0.40" /></g>
<g stroke="rgba(128,128,128,0.75)" ><circle cx="8.50" cy="12.00" r="0.40" /></g>
<g fill="rgb(0,0,0)" ><circle cx="7.50" cy="12.00" r="0.40" /></g>
<g fill="rgb(0,0,0)" ><circle cx="6.50" cy="12.00" r="0.40" /></g>
<g stroke="rgba(128,128,128,0.75)" ><circle cx="5.50" cy="12.00" r="0.40" /></g>
<g stroke="rgba(128,128,128,0.75)" ><circle cx="15.00" cy="11.00" r="0.40" /></g>
<g fill="rgb(0,0,0)" ><circle cx="14.00" cy="11.00" r="0.40" /></g>
<g stroke="rgba(128,128,128,0.75)" ><circle cx="13.00" cy="11.00" r="0.40" /></g>
<g fill="rgb(0,0,0)" ><circle cx="12.00" cy="11.00" r="0.40" /></g>
<g stroke="rgba(128,128,128,0.75)" ><circle cx="11.00" cy="11.00" r="0.40" /></g>
<g stroke="rgba(128,128,128,0.75)" ><circle cx="10.00" cy="11.00" r="0.40" /></g>
<g stroke="rgba(128,128,128,0.75)" ><circle cx="9.00" cy="11.00" r="0.40" /></g>
<g fill="rgb(0,0,0)" ><circle cx="8.00" cy="11.00" r="0.40" /></g>
<g stroke="rgba(128,128,128,0.75)" ><circle cx="7.00" cy="11.00" r="0.40" /></g>
<g fill="rgb(0,0,0)" ><circle cx="6.00" cy="11.00" r="0.40" /></g>
<g stroke="rgba(128,128,128,0.75)" ><circle cx="5.00" cy="11.00" r="0.40" /></g>
<g stroke="rgba(128,128,128,0.75)" ><circle cx="15.50" cy="10.00" r="0.40" /></g>
<g fill="rgb(0,0,0)" ><circle cx="14.50" cy="10.00" r="0.40" /></g>
<g fill="rgb(0,0,0)" ><circle cx="13.50" cy="10.00" r="0.40" /></g>
<g fill="rgb(0,0,0)" ><circle cx="12.50" cy="10.00" r="0.40" /></g>
<g fill="rgb(0,0,0)" ><circle cx="11.50" cy="10.00" r="0.40" /></g>
<g fill="rgb(0,0,0)" ><circle cx="10.50" cy="10.00" r="0.40" /></g>
<g fill="rgb(0,0,0)" ><circle cx="9.50" cy="10.00" r="0.40" /></g>
<g fill="rgb(0,0,0)" ><circle cx="8.50" cy="10.00" r="0.40" /></g>
<g fill="rgb(0,0,0)" ><circle cx="7.50" cy="10.00" r="0.40" /></g>
<g fill="rgb(0,0,0)" ><circle cx="6.50" cy="10.00" r="0.40" /></g>
<g fill="rgb(0,0,0)" ><circle cx="5.50" cy="10.00" r="0.40" /></g>
<g stroke="rgba(128,128,128,0.75)" ><circle cx="4.50" cy="10.00" r="0.40" /></g>
<g stroke="rgba(128,128,128,0.75)" ><circle cx="16.00" cy="9.00" r="0.40" /></g>
<g fill="rgb(0,0,0)" ><circle cx="15.00" cy="9.00" r="0.40" /></g>
<g stroke="rgba(128,128,128,0.75)" ><circle cx="14.00" cy="9.00" r="0.40" /></g>
<g stroke="rgba(128,128,128,0.75)" ><circle cx="13.00" cy="9.00" r="0.40" /></g>
<g stroke="rgba(128,128,128,0.75)" ><circle cx="12.00" cy="9.00" r="0.40" /></g>
<g fill="rgb(0,0,0)" ><circle cx="11.00" cy="9.00" r="0.40" /></g>
<g stroke="rgba(128,128,128,0.75)" ><circle cx="10.00" cy="9.00" r="0.40" /></g>
<g fill="rgb(0,0,0)" ><circle cx="9.00" cy="9.00" r="0.40" /></g>
<g stroke="rgba(128,128,128,0.75)" ><circle cx="8.00" cy="9.00" r="0.40" /></g>
<g stroke="rgba(128,128,128,0.75)" ><circle cx="7.00" cy="9.00" r="0.40" /></g>
<g stroke="rgba(128,128,128,0.75)" ><circle cx="6.00" cy="9.00" r="0.40" /></g>
<g fill="rgb(0,0,0)" ><circle cx="5.00" cy="9.00" r="0.40" /></g>
<g stroke="rgba(128,128,128,0.75)" ><circle cx="4.00" cy="9.00" r="0.40" /></g>
<g stroke="rgba(128,128,128,0.75)" ><circle cx="16.50" cy="8.00" r="0.40" /></g>
<g fill="rgb(0,0,0)" ><circle cx="15.50" cy="8.00" r="0.40" /></g>
<g fill="rgb(0,0,0)" ><circle cx="14.50" cy="8.00" r="0.40" /></g>
<g fill="rgb(0,0,0)" ><circle cx="13.50" cy="8.00" r="0.40" /></g>
<g fill="rgb(0,0,0)" ><circle cx="12.50" cy="8.00" r="0.40" /></g>
<g fill="rgb(0,0,0)" ><circle cx="11.50" cy="8.00" r="0.40" /></g>
<g fill="rgb(0,0,0)" ><circle cx="10.50" cy="8.00" r="0.40" /></g>
<g fill="rgb(0,0,0)" ><circle cx="9.50" cy="8.00" r="0.40" /></g>
<g fill="rgb(0,0,0)" ><circle cx="8.50" cy="8.00" r="0.40" /></g>
<g fill="rgb(0,0,0)" ><circle cx="7.50" cy="8.00" r="0.40" /></g>
<g fill="rgb(0,0,0)" ><circle cx="6.50" cy="8.00" r="0.40" /></g>
<g fill="rgb(0,0,0)" ><circle cx="5.50" cy="8.00" r="0.40" /></g>
<g fill="rgb(0,0,0)" ><circle cx="4.50" cy="8.00" r="0.40" /></g>
<g stroke="rgba(128,128,128,0.75)" ><circle cx="3.50" cy="8.00" r="0.40" /></g>
<g stroke="rgba(128,128,128,0.75)" ><circle cx="17.00" cy="7.00" r="0.40" /></g>
<g fill="rgb(0,0,0)" ><circle cx="16.00" cy="7.00" r="0.40" /></g>
<g stroke="rgba(128,128,128,0.75)" ><circle cx="15.00" cy="7.00" r="0.40" /></g>
<g fill="rgb(0,0,0)" ><circle cx="14.00" cy="7.00" r="0.40" /></g>
<g stroke="rgba(128,128,128,0.75)" ><circle cx="13.00" cy="7.00" r="0.40" /></g>
<g fill="rgb(0,0,0)" ><circle cx="12.00" cy="7.00" r="0.40" /></g>
<g stroke="rgba(128,128,128,0.75)" ><circle cx="11.00" cy="7.00" r="0.40" /></g>
<g stroke="rgba(128,128,128,0.75)" ><circle cx="10.00" cy="7.00" r="0.40" /></g>
<g stroke="rgba(128,128,128,0.75)" ><circle cx="9.00" cy="7.00" r="0.40" /></g>
<g fill="rgb(0,0,0)" ><circle cx="8.00" cy="7.00" r="0.40" /></g>
<g stroke="rgba(128,128,128,0.75)" ><circle cx="7.00" cy="7.00" r="0.40" /></g>
<g fill="rgb(0,0,0)" ><circle cx="6.00" cy="7.00" r="0.40" /></g>
<g stroke="rgba(128,128,128,0.75)" ><circle cx="5.00" cy="7.00" r="0.40" /></g>
<g fill="rgb(0,0,0)" ><circle cx="4.00" cy="7.00" r="0.40" /></g>
<g stroke="rgba(128,128,128,0.75)" ><circle cx="3.00" cy="7.00" r="0.40" /></g>
<g stroke="rgba(128,128,128,0.75)" ><circle cx="17.50" cy="6.00" r="0.40" /></g>
<g fill="rgb(0,0,0)" ><circle cx="16.50" cy="6.00" r="0.40" /></g>
<g fill="rgb(0,0,0)" ><circle cx="15.50" cy="6.00" r="0.40" /></g>
<g stroke="rgba(128,128,128,0.75)" ><circle cx="14.50" cy="6.00" r="0.40" /></g>
<g fill="rgb(0,0,0)" ><circle cx="13.50" cy="6.00" r="0.40" /></g>
<g stroke="rgba(128,128,128,0.75)" ><circle cx="12.50" cy="6.00" r="0.40" /></g>
<g stroke="rgba(128,128,128,0.75)" ><circle cx="11.50" cy="6.00" r="0.40" /></g>
<g fill="rgb(0,0,0)" ><circle cx="10.50" cy="6.00" r="0.40" /></g>
<g fill="rgb(0,0,0)" ><circle cx="9.50" cy="6.00" r="0.40" /></g>
<g stroke="rgba(128,128,128,0.75)" ><circle cx="8.50" cy="6.00" r="0.40" /></g>
<g stroke="rgba(128,128,128,0.75)" ><circle cx="7.50" cy="6.00" r="0.40" /></g>
<g fill="rgb(0,0,0)" ><circle cx="6.50" cy="6.00" r="0.40" /></g>
<g stroke="rgba(128,128,128,0.75)" ><circle cx="5.50" cy="6.00" r="0.40" /></g>
<g fill="rgb(0,0,0)" ><circle cx="4.50" cy="6.00" r="0.40" /></g>
<g fill="rgb(0,0,0)" ><circle cx="3.50" cy="6.00" r="0.40" /></g>
<g stroke="rgba(128,128,128,0.75)" ><circle cx="2.50" cy="6.00" r="0.40" /></g>
<g stroke="rgba(128,128,128,0.75)" ><circle cx="18.00" cy="5.00" r="0.40" /></g>
<g fill="rgb(0,0,0)" ><circle cx="17.00" cy="5.00" r="0.40" /></g>
<g stroke="rgba(128,128,128,0.75)" ><circle cx="16.00" cy="5.00" r="0.40" /></g>
<g fill="rgb(0,0,0)" ><circle cx="15.00" cy="5.00" r="0.40" /></g>
<g stroke="rgba(128,128,128,0.75)" ><circle cx="14.00" cy="5.00" r="0.40" /></g>
<g fill="rgb(0,0,0)" ><circle cx="13.00" cy="5.00" r="0.40" /></g>
<g stroke="rgba(128,128,128,0.75)" ><circle cx="12.00" cy="5.00" r="0.40" /></g>
<g fill="rgb(0,0,0)" ><circle cx="11.00" cy="5.00" r="0.40" /></g>
<g stroke="rgba(128,128,128,0.75)" ><circle cx="10.00" cy="5.00" r="0.40" /></g>
<g fill="rgb(0,0,0)" ><circle cx="9.00" cy="5.00" r="0.40" /></g>
<g stroke="rgba(128,128,128,0.75)" ><circle cx="8.00" cy="5.00" r="0.40" /></g>
<g fill="rgb(0,0,0)" ><circle cx="7.00" cy="5.00" r="0.40" /></g>
<g stroke="rgba(128,128,128,0.75)" ><circle cx="6.00" cy="5.00" r="0.40" /></g>
<g fill="rgb(0,0,0)" ><circle cx="5.00" cy="5.00" r="0.40" /></g>
<g stroke="rgba(128,128,128,0.75)" ><circle cx="4.00" cy="5.00" r="0.40" /></g>
<g fill="rgb(0,0,0)" ><circle cx="3.00" cy="5.00" r="0.40" /></g>
<g stroke="rgba(128,128,128,0.75)" ><circle cx="2.00" cy="5.00" r="0.40" /></g>
<g stroke="rgba(128,128,128,0.75)" ><circle cx="18.50" cy="4.00" r="0.40" /></g>
<g fill="rgb(0,0,0)" ><circle cx="17.50" cy="4.00" r="0.40" /></g>
<g fill="rgb(0,0,0)" ><circle cx="16.50" cy="4.00" r="0.40" /></g>
<g fill="rgb(0,0,0)" ><circle cx="15.50" cy="4.00" r="0.40" /></g>
<g fill="rgb(0,0,0)" ><circle cx="14.50" cy="4.00" r="0.40" /></g>
<g fill="rgb(0,0,0)" ><circle cx="13.50" cy="4.00" r="0.40" /></g>
<g fill="rgb(0,0,0)" ><circle cx="12.50" cy="4.00" r="0.40" /></g>
<g fill="rgb(0,0,0)" ><circle cx="11.50" cy="4.00" r="0.40" /></g>
<g fill="rgb(0,0,0)" ><circle cx="10.50" cy="4.00" r="0.40" /></g>
<g fill="rgb(0,0,0)" ><circle cx="9.50" cy="4.00" r="0.40" /></g>
<g fill="rgb(0,0,0)" ><circle cx="8.50" cy="4.00" r="0.40" /></g>
<g fill="rgb(0,0,0)" ><circle cx="7.50" cy="4.00" r="0.40" /></g>
<g fill="rgb(0,0,0)" ><circle cx="6.50" cy="4.00" r="0.40" /></g>
<g fill="rgb(0,0,0)" ><circle cx="5.50" cy="4.00" r="0.40" /></g>
<g fill="rgb(0,0,0)" ><circle cx="4.50" cy="4.00" r="0.40" /></g>
<g fill="rgb(0,0,0)" ><circle cx="3.50" cy="4.00" r="0.40" /></g>
<g fill="rgb(0,0,0)" ><circle cx="2.50" cy="4.00" r="0.40" /></g>
<g stroke="rgba(128,128,128,0.75)" ><circle cx="1.50" cy="4.00" r="0.40" /></g>
<g stroke="rgba(128,128,128,0.75)" ><circle cx="19.00" cy="3.00" r="0.40" /></g>
<g fill="rgb(0,0,0)" ><circle cx="18.00" cy="3.00" r="0.40" /></g>
<g stroke="rgba(128,128,128,0.75)" ><circle cx="17.00" cy="3.00" r="0.40" /></g>
<g stroke="rgba(128,128,128,0.75)" ><circle cx="16.00" cy="3.00" r="0.40" /></g>
<g stroke="rgba(128,128,128,0.75)" ><circle cx="15.00" cy="3.00" r="0.40" /></g>
<g fill="rgb(0,0,0)" ><circle cx="14.00" cy="3.00" r="0.40" /></g>
<g stroke="rgba(128,128,128,0.75)" ><circle cx="13.00" cy="3.00" r="0.40" /></g>
<g fill="rgb(0,0,0)" ><circle cx="12.00" cy="3.00" r="0.40" /></g>
<g stroke="rgba(128,128,128,0.75)" ><circle cx="11.00" cy="3.00" r="0.40" /></g>
<g stroke="rgba(128,128,128,0.75)" ><circle cx="10.00" cy="3.00" r="0.40" /></g>
<g stroke="rgba(128,128,128,0.75)" ><circle cx="9.00" cy="3.00" r="0.40" /></g>
<g fill="rgb(0,0,0)" ><circle cx="8.00" cy="3.00" r="0.40" /></g>
<g stroke="rgba(128,128,128,0.75)" ><circle cx="7.00" cy="3.00" r="0.40" /></g>
<g fill="rgb(0,0,0)" ><circle cx="6.00" cy="3.00" r="0.40" /></g>
<g stroke="rgba(128,128,128,0.75)" ><circle cx="5.00" cy="3.00" r="0.40" /></g>
<g stroke="rgba(128,128,128,0.75)" ><circle cx="4.00" cy="3.00" r="0.40" /></g>
<g stroke="rgba(128,128,128,0.75)" ><circle cx="3.00" cy="3.00" r="0.40" /></g>
<g fill="rgb(0,0,0)" ><circle cx="2.00" cy="3.00" r="0.40" /></g>
<g stroke="rgba(128,128,128,0.75)" ><circle cx="1.00" cy="3.00" r="0.40" /></g>
<g stroke="rgba(128,128,128,0.75)" ><circle cx="19.50" cy="2.00" r="0.40" /></g>
<g fill="rgb(0,0,0)" ><circle cx="18.50" cy="2.00" r="0.40" /></g>
<g fill="rgb(0,0,0)" ><circle cx="17.50" cy="2.00" r="0.40" /></g>
<g fill="rgb(0,0,0)" ><circle cx="16.50" cy="2.00" r="0.40" /></g>
<g fill="rgb(0,0,0)" ><circle cx="15.50" cy="2.00" r="0.40" /></g>
<g fill="rgb(0,0,0)" ><circle cx="14.50" cy="2.00" r="0.40" /></g>
<g fill="rgb(0,0,0)" ><circle cx="13.50" cy="2.00" r="0.40" /></g>
<g fill="rgb(0,0,0)" ><circle cx="12.50" cy="2.00" r="0.40" /></g>
<g fill="rgb(0,0,0)" ><circle cx="11.50" cy="2.00" r="0.40" /></g>
<g fill="rgb(0,0,0)" ><circle cx="10.50" cy="2.00" r="0.40" /></g>
<g fill="rgb(0,0,0)" ><circle cx="9.50" cy="2.00" r="0.40" /></g>
<g fill="rgb(0,0,0)" ><circle cx="8.50" cy="2.00" r="0.40" /></g>
<g fill="rgb(0,0,0)" ><circle cx="7.50" cy="2.00" r="0.40" /></g>
<g fill="rgb(0,0,0)" ><circle cx="6.50" cy="2.00" r="0.40" /></g>
<g fill="rgb(0,0,0)" ><circle cx="5.50" cy="2.00" r="0.40" /></g>
<g fill="rgb(0,0,0)" ><circle cx="4.50" cy="2.00" r="0.40" /></g>
<g fill="rgb(0,0,0)" ><circle cx="3.50" cy="2.00" r="0.40" /></g>
<g fill="rgb(0,0,0)" ><circle cx="2.50" cy="2.00" r="0.40" /></g>
<g fill="rgb(0,0,0)" ><circle cx="1.50" cy="2.00" r="0.40" /></g>
<g stroke="rgba(128,128,128,0.75)" ><circle cx="0.50" cy="2.00" r="0.40" /></g>
<g stroke="rgba(128,128,128,0.75)" ><circle cx="20.00" cy="1.00" r="0.40" /></g>
<g fill="rgb(0,0,0)" ><circle cx="19.00" cy="1.00" r="0.40" /></g>
<g stroke="rgba(128,128,128,0.75)" ><circle cx="18.00" cy="1.00" r="0.40" /></g>
<g fill="rgb(0,0,0)" ><circle cx="17.00" cy="1.00" r="0.40" /></g>
<g stroke="rgba(128,128,128,0.75)" ><circle cx="16.00" cy="1.00" r="0.40" /></g>
<g stroke="rgba(128,128,128,0.75)" ><circle cx="15.00" cy="1.00" r="0.40" /></g>
<g stroke="rgba(128,128,128,0.75)" ><circle cx="14.00" cy="1.00" r="0.40" /></g>
<g fill="rgb(0,0,0)" ><circle cx="13.00" cy="1.00" r="0.40" /></g>
<g stroke="rgba(128,128,128,0.75)" ><circle cx="12.00" cy="1.00" r="0.40" /></g>
<g fill="rgb(0,0,0)" ><circle cx="11.00" cy="1.00" r="0.40" /></g>
<g stroke="rgba(128,128,128,0.75)" ><circle cx="10.00" cy="1.00" r="0.40" /></g>
<g fill="rgb(0,0,0)" ><circle cx="9.00" cy="1.00" r="0.40" /></g>
<g stroke="rgba(128,128,128,0.75)" ><circle cx="8.00" cy="1.00" r="0.40" /></g>
<g fill="rgb(0,0,0)" ><circle cx="7.00" cy="1.00" r="0.40" /></g>
<g stroke="rgba(128,128,128,0.75)" ><circle cx="6.00" cy="1.00" r="0.40" /></g>
<g stroke="rgba(128,128,128,0.75)" ><circle cx="5.00" cy="1.00" r="0.40" /></g>
<g stroke="rgba(128,128,128,0.75)" ><circle cx="4.00" cy="1.00" r="0.40" /></g>
<g fill="rgb(0,0,0)" ><circle cx="3.00" cy="1.00" r="0.40" /></g>
<g stroke="rgba(128,128,128,0.75)" ><circle cx="2.00" cy="1.00" r="0.40" /></g>
<g fill="rgb(0,0,0)" ><circle cx="1.00" cy="1.00" r="0.40" /></g>
<g stroke="rgba(128,128,128,0.75)" ><circle cx="0.00" cy="1.00" r="0.40" /></g>
</g>
</svg>