<svg xmlns="http://www.w3.org/2000/svg" width="161.7" height="100.0" viewBox="-2 -5 172 110">
<g fill="none" stroke="black" stroke-width="10.7250%" transform="translate(0, 100.0000) scale(0.0466, -0.0466)">
<line x1="54" y1="0" x2="54" y2="1" />
<line x1="108" y1="0" x2="108" y2="3" />
<line x1="163" y1="0" x2="163" y2="6" />
<line x1="217" y1="0" x2="217" y2="10" />
<line x1="271" y1="0" x2="271" y2="15" />
<line x1="325" y1="0" x2="325" y2="21" />
<line x1="379" y1="0" x2="379" y2="28" />
<line x1="434" y1="0" x2="434" y2="36" />
<line x1="488" y1="0" x2="488" y2="45" />
<line x1="542" y1="0" x2="542" y2="55" />
<line x1="596" y1="0" x2="596" y2="66" />
<line x1="650" y1="0" x2="650" y2="78" />
<line x1="705" y1="0" x2="705" y2="91" />
<line x1="759" y1="0" x2="759" y2="105" />
<line x1="813" y1="0" x2="813" y2="120" />
<line x1="867" y1="0" x2="867" y2="136" />
<line x1="921" y1="0" x2="921" y2="153" />
<line x1="976" y1="0" x2="976" y2="171" />
<line x1="1030" y1="0" x2="1030" y2="190" />
<line x1="1084" y1="0" x2="1084" y2="210" />
<line x1="1138" y1="0" x2="1138" y2="231" />
<line x1="1192" y1="0" x2="1192" y2="253" />
<line x1="1247" y1="0" x2="1247" y2="276" />
<line x1="1301" y1="0" x2="1301" y2="300" />
<line x1="1355" y1="0" x2="1355" y2="325" />
<line x1="1409" y1="0" x2="1409" y2="351" />
<line x1="1464" y1="0" x2="1464" y2="378" />
<line x1="1518" y1="0" x2="1518" y2="406" />
<line x1="1572" y1="0" x2="1572" y2="435" />
<line x1="1626" y1="0" x2="1626" y2="465" />
<line x1="1680" y1="0" x2="1680" y2="496" />
<line x1="1735" y1="0" x2="1735" y2="528" />
<line x1="1789" y1="0" x2="1789" y2="561" />
<line x1="1843" y1="0" x2="1843" y2="595" />
<line x1="1897" y1="0" x2="1897" y2="630" />
<line x1="1951" y1="0" x2="1951" y2="666" />
<line x1="2006" y1="0" x2="2006" y2="703" />
<line x1="2060" y1="0" x2="2060" y2="741" />
<line x1="2114" y1="0" x2="2114" y2="780" />
<line x1="2168" y1="0" x2="2168" y2="820" />
<line x1="2222" y1="0" x2="2222" y2="861" />
<line x1="2277" y1="0" x2="2277" y2="903" />
<line x1="2331" y1="0" x2="2331" y2="946" />
<line x1="2385" y1="0" x2="2385" y2="990" />
<line x1="2439" y1="0" x2="2439" y2="1035" />
<line x1="2493" y1="0" x2="2493" y2="1081" />
<line x1="2548" y1="0" x2="2548" y2="1128" />
<line x1="2602" y1="0" x2="2602" y2="1176" />
<line x1="2656" y1="0" x2="2656" y2="1225" />
<line x1="2710" y1="0" x2="2710" y2="1275" />
<line x1="2764" y1="0" x2="2764" y2="1326" />
<line x1="2819" y1="0" x2="2819" y2="1378" />
<line x1="2873" y1="0" x2="2873" y2="1431" />
<line x1="2927" y1="0" x2="2927" y2="1485" />
<line x1="2981" y1="0" x2="2981" y2="1540" />
<line x1="3035" y1="0" x2="3035" y2="1596" />
<line x1="3090" y1="0" x2="3090" y2="1653" />
<line x1="3144" y1="0" x2="3144" y2="1711" />
<line x1="3198" y1="0" x2="3198" y2="1770" />
<line x1="3252" y1="0" x2="3252" y2="1830" />
<line x1="3306" y1="0" x2="3306" y2="1891" />
<line x1="3361" y1="0" x2="3361" y2="1953" />
<line x1="3415" y1="0" x2="3415" y2="2016" />
<line x1="3469" y1="0" x2="3469" y2="2080" />
<line x1="3523" y1="0" x2="3523" y2="2145" />
</g>
</svg>