<svg xmlns="http://www.w3.org/2000/svg" width="161.8" height="100.0" viewBox="-2.06 -5.00 171.80 110.00">
<g fill="none" stroke="black" stroke-width="0.0450%" transform="translate(0, 100.0000) scale(11.1111, -11.1111)">
<polyline points="0.26,0.00 0.53,0.00 0.53,1.00 0.79,1.00 0.79,0.00 1.06,0.00 1.06,2.00 1.32,2.00 1.32,1.00 1.59,1.00 1.59,0.00 1.85,0.00 1.85,3.00 2.12,3.00 2.12,2.00 2.38,2.00 2.38,1.00 2.65,1.00 2.65,0.00 2.91,0.00 2.91,4.00 3.18,4.00 3.18,3.00 3.44,3.00 3.44,2.00 3.71,2.00 3.71,1.00 3.97,1.00 3.97,0.00 4.24,0.00 4.24,5.00 4.50,5.00 4.50,4.00 4.77,4.00 4.77,3.00 5.03,3.00 5.03,2.00 5.30,2.00 5.30,1.00 5.56,1.00 5.56,0.00 5.82,0.00 5.82,6.00 6.09,6.00 6.09,5.00 6.35,5.00 6.35,4.00 6.62,4.00 6.62,3.00 6.88,3.00 6.88,2.00 7.15,2.00 7.15,1.00 7.41,1.00 7.41,0.00 7.68,0.00 7.68,7.00 7.94,7.00 7.94,6.00 8.21,6.00 8.21,5.00 8.47,5.00 8.47,4.00 8.74,4.00 8.74,3.00 9.00,3.00 9.00,2.00 9.27,2.00 9.27,1.00 9.53,1.00 9.53,0.00 9.80,0.00 9.80,8.00 10.06,8.00 10.06,7.00 10.33,7.00 10.33,6.00 10.59,6.00 10.59,5.00 10.86,5.00 10.86,4.00 11.12,4.00 11.12,3.00 11.39,3.00 11.39,2.00 11.65,2.00 11.65,1.00 11.91,1.00 11.91,0.00 12.18,0.00 12.18,9.00 12.44,9.00 12.44,8.00 12.71,8.00 12.71,7.00 12.97,7.00 12.97,6.00 13.24,6.00 13.24,5.00 13.50,5.00 13.50,4.00 13.77,4.00 13.77,3.00 14.03,3.00 14.03,2.00 14.30,2.00 14.30,1.00 14.56,1.00 14.56,0.00 14.83,0.00" />
</g>
</svg>