<svg xmlns="http://www.w3.org/2000/svg" width="123.2" height="100.0" viewBox="-69.2 -42.8 133.2 110.0">
<g fill="none" stroke="black" stroke-width="0.1949%" transform="translate(0, 24.4444) scale(2.5660, -2.5660)">
<circle cx="0.0" cy="0.0" r="0.2" />
<circle cx="-1.0" cy="0.0" r="0.2" />
<circle cx="1.5" cy="-0.9" r="0.2" />
<circle cx="0.5" cy="0.9" r="0.2" />
<circle cx="-1.5" cy="0.9" r="0.2" />
<circle cx="-2.5" cy="-0.9" r="0.2" />
<circle cx="2.0" cy="-1.7" r="0.2" />
<circle cx="1.5" cy="0.9" r="0.2" />
<circle cx="-1.5" cy="2.6" r="0.2" />
<circle cx="-2.5" cy="0.9" r="0.2" />
<circle cx="-4.5" cy="-2.6" r="0.2" />
<circle cx="1.5" cy="-2.6" r="0.2" />
<circle cx="3.0" cy="-0.0" r="0.2" />
<circle cx="2.0" cy="1.7" r="0.2" />
<circle cx="-4.0" cy="0.0" r="0.2" />
<circle cx="-6.0" cy="-3.5" r="0.2" />
<circle cx="-4.0" cy="-3.5" r="0.2" />
<circle cx="-0.0" cy="-3.5" r="0.2" />
<circle cx="2.0" cy="-3.5" r="0.2" />
<circle cx="6.0" cy="-3.5" r="0.2" />
<circle cx="2.0" cy="3.5" r="0.2" />
<circle cx="-1.0" cy="6.9" r="0.2" />
<circle cx="-4.0" cy="1.7" r="0.2" />
<circle cx="-7.0" cy="-3.5" r="0.2" />
<circle cx="-2.5" cy="-4.3" r="0.2" />
<circle cx="1.5" cy="-4.3" r="0.2" />
<circle cx="4.5" cy="0.9" r="0.2" />
<circle cx="3.5" cy="2.6" r="0.2" />
<circle cx="1.5" cy="6.1" r="0.2" />
<circle cx="0.5" cy="7.8" r="0.2" />
<circle cx="-2.5" cy="6.1" r="0.2" />
<circle cx="-7.5" cy="-2.6" r="0.2" />
<circle cx="-4.0" cy="-5.2" r="0.2" />
<circle cx="-0.0" cy="-5.2" r="0.2" />
<circle cx="6.0" cy="-5.2" r="0.2" />
<circle cx="8.0" cy="-5.2" r="0.2" />
<circle cx="0.5" cy="9.5" r="0.2" />
<circle cx="-1.5" cy="9.5" r="0.2" />
<circle cx="-2.5" cy="7.8" r="0.2" />
<circle cx="-5.5" cy="2.6" r="0.2" />
<circle cx="-7.5" cy="-0.9" r="0.2" />
<circle cx="-10.5" cy="-6.1" r="0.2" />
<circle cx="-2.5" cy="-6.1" r="0.2" />
<circle cx="1.5" cy="-6.1" r="0.2" />
<circle cx="9.5" cy="-6.1" r="0.2" />
<circle cx="9.0" cy="-3.5" r="0.2" />
<circle cx="8.0" cy="-1.7" r="0.2" />
<circle cx="6.0" cy="1.7" r="0.2" />
<circle cx="-3.0" cy="8.7" r="0.2" />
<circle cx="-4.0" cy="6.9" r="0.2" />
<circle cx="-7.0" cy="1.7" r="0.2" />
<circle cx="-10.0" cy="-3.5" r="0.2" />
<circle cx="-6.0" cy="-6.9" r="0.2" />
<circle cx="-4.0" cy="-6.9" r="0.2" />
<circle cx="-0.0" cy="-6.9" r="0.2" />
<circle cx="8.0" cy="-6.9" r="0.2" />
<circle cx="11.0" cy="-5.2" r="0.2" />
<circle cx="9.0" cy="-1.7" r="0.2" />
<circle cx="3.0" cy="8.7" r="0.2" />
<circle cx="2.0" cy="10.4" r="0.2" />
<circle cx="-1.0" cy="13.9" r="0.2" />
<circle cx="-3.0" cy="10.4" r="0.2" />
<circle cx="-7.0" cy="3.5" r="0.2" />
<circle cx="-12.0" cy="-5.2" r="0.2" />
<circle cx="-8.5" cy="-7.8" r="0.2" />
<circle cx="-4.5" cy="-7.8" r="0.2" />
<circle cx="1.5" cy="-7.8" r="0.2" />
<circle cx="10.5" cy="-2.6" r="0.2" />
<circle cx="7.5" cy="2.6" r="0.2" />
<circle cx="6.5" cy="4.3" r="0.2" />
<circle cx="3.5" cy="9.5" r="0.2" />
<circle cx="-1.5" cy="14.7" r="0.2" />
<circle cx="-4.5" cy="9.5" r="0.2" />
<circle cx="-7.5" cy="4.3" r="0.2" />
<circle cx="-10.5" cy="-0.9" r="0.2" />
<circle cx="-11.5" cy="-2.6" r="0.2" />
<circle cx="-13.5" cy="-6.1" r="0.2" />
<circle cx="-0.0" cy="-8.7" r="0.2" />
<circle cx="12.0" cy="-8.7" r="0.2" />
<circle cx="10.5" cy="-0.9" r="0.2" />
<circle cx="9.5" cy="0.9" r="0.2" />
<circle cx="6.5" cy="6.1" r="0.2" />
<circle cx="4.5" cy="9.5" r="0.2" />
<circle cx="3.5" cy="11.3" r="0.2" />
<circle cx="0.5" cy="16.5" r="0.2" />
<circle cx="-7.5" cy="6.1" r="0.2" />
<circle cx="-10.5" cy="0.9" r="0.2" />
<circle cx="-11.5" cy="-0.9" r="0.2" />
<circle cx="-16.5" cy="-9.5" r="0.2" />
<circle cx="-10.5" cy="-9.5" r="0.2" />
<circle cx="-8.5" cy="-9.5" r="0.2" />
<circle cx="-4.5" cy="-9.5" r="0.2" />
<circle cx="7.5" cy="-9.5" r="0.2" />
<circle cx="13.5" cy="-9.5" r="0.2" />
<circle cx="9.0" cy="3.5" r="0.2" />
<circle cx="8.0" cy="5.2" r="0.2" />
<circle cx="6.0" cy="8.7" r="0.2" />
<circle cx="2.0" cy="15.6" r="0.2" />
<circle cx="-3.0" cy="15.6" r="0.2" />
<circle cx="-9.0" cy="5.2" r="0.2" />
<circle cx="-10.0" cy="3.5" r="0.2" />
<circle cx="-12.0" cy="0.0" r="0.2" />
<circle cx="-13.0" cy="-1.7" r="0.2" />
<circle cx="-18.0" cy="-10.4" r="0.2" />
<circle cx="-10.0" cy="-10.4" r="0.2" />
<circle cx="-6.0" cy="-10.4" r="0.2" />
<circle cx="-4.0" cy="-10.4" r="0.2" />
<circle cx="2.0" cy="-10.4" r="0.2" />
<circle cx="6.0" cy="-10.4" r="0.2" />
<circle cx="15.0" cy="-5.2" r="0.2" />
<circle cx="12.0" cy="-0.0" r="0.2" />
<circle cx="9.0" cy="5.2" r="0.2" />
<circle cx="5.0" cy="12.1" r="0.2" />
<circle cx="2.0" cy="17.3" r="0.2" />
<circle cx="-7.0" cy="10.4" r="0.2" />
<circle cx="-10.0" cy="5.2" r="0.2" />
<circle cx="-12.0" cy="1.7" r="0.2" />
<circle cx="-13.0" cy="0.0" r="0.2" />
<circle cx="-16.0" cy="-5.2" r="0.2" />
<circle cx="-18.0" cy="-8.7" r="0.2" />
<circle cx="-19.0" cy="-10.4" r="0.2" />
<circle cx="-16.5" cy="-11.3" r="0.2" />
<circle cx="7.5" cy="-11.3" r="0.2" />
<circle cx="15.5" cy="-11.3" r="0.2" />
<circle cx="19.5" cy="-11.3" r="0.2" />
<circle cx="16.5" cy="-6.1" r="0.2" />
<circle cx="9.5" cy="6.1" r="0.2" />
<circle cx="7.5" cy="9.5" r="0.2" />
<circle cx="0.5" cy="21.7" r="0.2" />
<circle cx="-1.5" cy="21.7" r="0.2" />
<circle cx="-5.5" cy="14.7" r="0.2" />
<circle cx="-10.5" cy="6.1" r="0.2" />
<circle cx="-17.5" cy="-6.1" r="0.2" />
<circle cx="-16.0" cy="-12.1" r="0.2" />
<circle cx="-10.0" cy="-12.1" r="0.2" />
<circle cx="-0.0" cy="-12.1" r="0.2" />
<circle cx="2.0" cy="-12.1" r="0.2" />
<circle cx="12.0" cy="-12.1" r="0.2" />
<circle cx="14.0" cy="-12.1" r="0.2" />
<circle cx="20.0" cy="-12.1" r="0.2" />
<circle cx="10.5" cy="6.1" r="0.2" />
<circle cx="9.5" cy="7.8" r="0.2" />
<circle cx="7.5" cy="11.3" r="0.2" />
<circle cx="6.5" cy="13.0" r="0.2" />
<circle cx="4.5" cy="16.5" r="0.2" />
<circle cx="-5.5" cy="16.5" r="0.2" />
<circle cx="-7.5" cy="13.0" r="0.2" />
<circle cx="-14.5" cy="0.9" r="0.2" />
<circle cx="-16.5" cy="-2.6" r="0.2" />
<circle cx="-17.5" cy="-4.3" r="0.2" />
<circle cx="-22.5" cy="-13.0" r="0.2" />
<circle cx="-20.5" cy="-13.0" r="0.2" />
<circle cx="-16.5" cy="-13.0" r="0.2" />
<circle cx="-4.5" cy="-13.0" r="0.2" />
<circle cx="-2.5" cy="-13.0" r="0.2" />
<circle cx="7.5" cy="-13.0" r="0.2" />
<circle cx="9.5" cy="-13.0" r="0.2" />
<circle cx="15.5" cy="-13.0" r="0.2" />
<circle cx="21.0" cy="-10.4" r="0.2" />
<circle cx="20.0" cy="-8.7" r="0.2" />
<circle cx="14.0" cy="1.7" r="0.2" />
<circle cx="12.0" cy="5.2" r="0.2" />
<circle cx="-3.0" cy="22.5" r="0.2" />
<circle cx="-6.0" cy="17.3" r="0.2" />
<circle cx="-7.0" cy="15.6" r="0.2" />
<circle cx="-10.0" cy="10.4" r="0.2" />
<circle cx="-12.0" cy="6.9" r="0.2" />
<circle cx="-13.0" cy="5.2" r="0.2" />
<circle cx="-18.0" cy="-3.5" r="0.2" />
<circle cx="-21.0" cy="-8.7" r="0.2" />
<circle cx="-6.0" cy="-13.9" r="0.2" />
<circle cx="2.0" cy="-13.9" r="0.2" />
<circle cx="14.0" cy="-13.9" r="0.2" />
<circle cx="23.0" cy="-12.1" r="0.2" />
<circle cx="21.0" cy="-8.7" r="0.2" />
<circle cx="18.0" cy="-3.5" r="0.2" />
<circle cx="14.0" cy="3.5" r="0.2" />
<circle cx="12.0" cy="6.9" r="0.2" />
<circle cx="11.0" cy="8.7" r="0.2" />
<circle cx="8.0" cy="13.9" r="0.2" />
<circle cx="3.0" cy="22.5" r="0.2" />
<circle cx="-3.0" cy="24.2" r="0.2" />
<circle cx="-4.0" cy="22.5" r="0.2" />
<circle cx="-10.0" cy="12.1" r="0.2" />
<circle cx="-12.0" cy="8.7" r="0.2" />
<circle cx="-13.0" cy="6.9" r="0.2" />
<circle cx="-18.0" cy="-1.7" r="0.2" />
<circle cx="-19.0" cy="-3.5" r="0.2" />
<circle cx="-25.0" cy="-13.9" r="0.2" />
<circle cx="-20.5" cy="-14.7" r="0.2" />
<circle cx="-16.5" cy="-14.7" r="0.2" />
<circle cx="-10.5" cy="-14.7" r="0.2" />
<circle cx="1.5" cy="-14.7" r="0.2" />
<circle cx="7.5" cy="-14.7" r="0.2" />
<circle cx="21.5" cy="-14.7" r="0.2" />
</g>
</svg>