<svg xmlns="http://www.w3.org/2000/svg" width="161.8" height="100.0" viewBox="-85.90 -55.00 171.80 110.00">
<g fill="none" stroke="black" stroke-width="0.1000%" transform="translate(0, 0.0000) scale(5.0000, -5.0000)">
<polyline points="-16.18,-6.67 -15.86,-6.36 -15.53,-6.07 -15.21,-5.78 -14.89,-5.50 -14.56,-5.22 -14.24,-4.95 -13.92,-4.69 -13.59,-4.43 -13.27,-4.19 -12.94,-3.94 -12.62,-3.71 -12.30,-3.48 -11.97,-3.26 -11.65,-3.04 -11.33,-2.83 -11.00,-2.63 -10.68,-2.44 -10.36,-2.25 -10.03,-2.06 -9.71,-1.88 -9.38,-1.71 -9.06,-1.55 -8.74,-1.39 -8.41,-1.23 -8.09,-1.08 -7.77,-0.94 -7.44,-0.80 -7.12,-0.66 -6.80,-0.53 -6.47,-0.41 -6.15,-0.28 -5.82,-0.16 -5.50,-0.04 -5.18,0.08 -4.85,0.20 -4.53,0.32 -4.21,0.45 -3.88,0.59 -3.56,0.74 -3.24,0.91 -2.91,1.10 -2.59,1.33 -2.27,1.62 -1.94,2.01 -1.62,2.54 -1.29,3.35 -0.97,4.70 -0.65,7.44 -0.32,10.00 0.00,-10.00 0.32,-10.00 0.65,-9.47 0.97,-6.77 1.29,-5.46 1.62,-4.72 1.94,-4.27 2.27,-3.98 2.59,-3.79 2.91,-3.68 3.24,-3.63 3.56,-3.61 3.88,-3.63 4.21,-3.67 4.53,-3.74 4.85,-3.82 5.18,-3.92 5.50,-4.04 5.82,-4.17 6.15,-4.32 6.47,-4.47 6.80,-4.64 7.12,-4.82 7.44,-5.01 7.77,-5.21 8.09,-5.42 8.41,-5.63 8.74,-5.86 9.06,-6.10 9.38,-6.34 9.71,-6.60 10.03,-6.86 10.36,-7.13 10.68,-7.41 11.00,-7.69 11.33,-7.99 11.65,-8.29 11.97,-8.60 12.30,-8.92 12.62,-9.24 12.94,-9.58 13.27,-9.92 13.59,-10.00 13.92,-10.00 14.24,-10.00 14.56,-10.00 14.89,-10.00 15.21,-10.00 15.53,-10.00 15.86,-10.00 16.18,-10.00" />
<polyline points="-16.18,6.67 -15.86,6.36 -15.53,6.07 -15.21,5.78 -14.89,5.50 -14.56,5.22 -14.24,4.95 -13.92,4.69 -13.59,4.43 -13.27,4.19 -12.94,3.94 -12.62,3.71 -12.30,3.48 -11.97,3.26 -11.65,3.04 -11.33,2.83 -11.00,2.63 -10.68,2.44 -10.36,2.25 -10.03,2.06 -9.71,1.88 -9.38,1.71 -9.06,1.55 -8.74,1.39 -8.41,1.23 -8.09,1.08 -7.77,0.94 -7.44,0.80 -7.12,0.66 -6.80,0.53 -6.47,0.41 -6.15,0.28 -5.82,0.16 -5.50,0.04 -5.18,-0.08 -4.85,-0.20 -4.53,-0.32 -4.21,-0.45 -3.88,-0.59 -3.56,-0.74 -3.24,-0.91 -2.91,-1.10 -2.59,-1.33 -2.27,-1.62 -1.94,-2.01 -1.62,-2.54 -1.29,-3.35 -0.97,-4.70 -0.65,-7.44 -0.32,-10.00 0.00,10.00 0.32,10.00 0.65,9.47 0.97,6.77 1.29,5.46 1.62,4.72 1.94,4.27 2.27,3.98 2.59,3.79 2.91,3.68 3.24,3.63 3.56,3.61 3.88,3.63 4.21,3.67 4.53,3.74 4.85,3.82 5.18,3.92 5.50,4.04 5.82,4.17 6.15,4.32 6.47,4.47 6.80,4.64 7.12,4.82 7.44,5.01 7.77,5.21 8.09,5.42 8.41,5.63 8.74,5.86 9.06,6.10 9.38,6.34 9.71,6.60 10.03,6.86 10.36,7.13 10.68,7.41 11.00,7.69 11.33,7.99 11.65,8.29 11.97,8.60 12.30,8.92 12.62,9.24 12.94,9.58 13.27,9.92 13.59,10.00 13.92,10.00 14.24,10.00 14.56,10.00 14.89,10.00 15.21,10.00 15.53,10.00 15.86,10.00 16.18,10.00" />
<polyline points="-16.18,-7.33 -15.86,-7.12 -15.53,-6.92 -15.21,-6.73 -14.89,-6.55 -14.56,-6.37 -14.24,-6.20 -13.92,-6.05 -13.59,-5.90 -13.27,-5.76 -12.94,-5.63 -12.62,-5.51 -12.30,-5.39 -11.97,-5.29 -11.65,-5.20 -11.33,-5.11 -11.00,-5.04 -10.68,-4.98 -10.36,-4.93 -10.03,-4.89 -9.71,-4.86 -9.38,-4.85 -9.06,-4.84 -8.74,-4.85 -8.41,-4.88 -8.09,-4.92 -7.77,-4.97 -7.44,-5.04 -7.12,-5.13 -6.80,-5.24 -6.47,-5.37 -6.15,-5.53 -5.82,-5.71 -5.50,-5.92 -5.18,-6.17 -4.85,-6.45 -4.53,-6.79 -4.21,-7.18 -3.88,-7.63 -3.56,-8.18 -3.24,-8.83 -2.91,-9.62 -2.59,-10.00 -2.27,-10.00 -1.94,-10.00 -1.62,-10.00 -1.29,-10.00 -0.97,-10.00 -0.65,-10.00 -0.32,-10.00 0.00,10.00 0.32,10.00 0.65,10.00 0.97,10.00 1.29,10.00 1.62,9.64 1.94,7.26 2.27,5.51 2.59,4.14 2.91,3.04 3.24,2.11 3.56,1.31 3.88,0.60 4.21,-0.04 4.53,-0.62 4.85,-1.17 5.18,-1.67 5.50,-2.16 5.82,-2.62 6.15,-3.07 6.47,-3.51 6.80,-3.93 7.12,-4.35 7.44,-4.77 7.77,-5.18 8.09,-5.58 8.41,-5.99 8.74,-6.40 9.06,-6.80 9.38,-7.21 9.71,-7.62 10.03,-8.03 10.36,-8.44 10.68,-8.86 11.00,-9.28 11.33,-9.71 11.65,-10.00 11.97,-10.00 12.30,-10.00 12.62,-10.00 12.94,-10.00 13.27,-10.00 13.59,-10.00 13.92,-10.00 14.24,-10.00 14.56,-10.00 14.89,-10.00 15.21,-10.00 15.53,-10.00 15.86,-10.00 16.18,-10.00" />
</g>
</svg>