<svg xmlns="http://www.w3.org/2000/svg" width="156.2" height="100.0" viewBox="-7.513 -51.799 166.183 110.000">
<g fill="none" stroke="black" stroke-width="0.0130%" transform="translate(0, 6.4027) scale(38.3933, -38.3933)">
<polyline points="4.000,0.000 4.003,0.127 3.989,0.254 3.960,0.378 3.915,0.500 3.855,0.617 3.781,0.729 3.693,0.834 3.592,0.932 3.480,1.022 3.358,1.103 3.226,1.174 3.086,1.236 2.940,1.287 2.788,1.327 2.632,1.357 2.474,1.377 2.314,1.386 2.155,1.385 1.997,1.375 1.841,1.356 1.689,1.328 1.542,1.294 1.400,1.252 1.264,1.205 1.135,1.153 1.014,1.098 0.901,1.039 0.795,0.979 0.699,0.918 0.610,0.857 0.530,0.797 0.458,0.739 0.394,0.683 0.338,0.630 0.288,0.581 0.245,0.537 0.208,0.496 0.176,0.461 0.149,0.430 0.126,0.404 0.106,0.383 0.089,0.366 0.074,0.353 0.061,0.344 0.049,0.338 0.037,0.335 0.026,0.333 0.016,0.333 0.005,0.333 -0.005,0.333 -0.016,0.332 -0.026,0.329 -0.036,0.324 -0.045,0.315 -0.053,0.303 -0.060,0.286 -0.064,0.264 -0.065,0.237 -0.063,0.204 -0.057,0.165 -0.046,0.121 -0.030,0.071 -0.007,0.015 0.023,-0.046 0.060,-0.112 0.106,-0.183 0.160,-0.257 0.223,-0.335 0.295,-0.415 0.377,-0.496 0.469,-0.578 0.571,-0.659 0.682,-0.738 0.802,-0.815 0.931,-0.888 1.068,-0.956 1.213,-1.018 1.365,-1.074 1.523,-1.121 1.685,-1.160 1.852,-1.190 2.021,-1.210 2.191,-1.219 2.361,-1.217 2.529,-1.204 2.695,-1.179 2.856,-1.143 3.012,-1.096 3.160,-1.038 3.300,-0.969 3.430,-0.890 3.549,-0.802 3.657,-0.705 3.751,-0.600 3.831,-0.489 3.896,-0.372 3.947,-0.251 3.981,-0.126 4.000,-0.000" />
</g>
</svg>