<svg xmlns="http://www.w3.org/2000/svg" width="87.7" height="100.0" viewBox="-35.16 -55.00 97.66 110.00">
<g fill="none" stroke="black" stroke-width="0.0348%" transform="translate(0, 0.0000) scale(14.3755, -14.3755)">
<polyline points="4.00,0.00 3.94,0.13 3.78,0.24 3.52,0.34 3.17,0.41 2.77,0.44 2.34,0.45 1.90,0.43 1.47,0.38 1.08,0.32 0.74,0.24 0.47,0.17 0.27,0.11 0.13,0.06 0.05,0.02 0.01,0.01 0.00,0.00 -0.00,-0.00 -0.01,-0.01 -0.04,-0.03 -0.11,-0.08 -0.23,-0.18 -0.38,-0.32 -0.58,-0.52 -0.81,-0.78 -1.06,-1.08 -1.32,-1.43 -1.56,-1.80 -1.77,-2.18 -1.94,-2.55 -2.05,-2.88 -2.10,-3.15 -2.08,-3.35 -2.00,-3.46 -1.86,-3.48 -1.68,-3.39 -1.47,-3.21 -1.24,-2.95 -1.00,-2.62 -0.78,-2.25 -0.58,-1.86 -0.40,-1.46 -0.26,-1.09 -0.16,-0.76 -0.09,-0.49 -0.04,-0.28 -0.02,-0.14 -0.00,-0.05 -0.00,-0.01 -0.00,-0.00 -0.00,0.00 -0.00,0.01 -0.00,0.05 -0.02,0.14 -0.04,0.28 -0.09,0.49 -0.16,0.76 -0.26,1.09 -0.40,1.46 -0.58,1.86 -0.78,2.25 -1.00,2.62 -1.24,2.95 -1.47,3.21 -1.68,3.39 -1.86,3.48 -2.00,3.46 -2.08,3.35 -2.10,3.15 -2.05,2.88 -1.94,2.55 -1.77,2.18 -1.56,1.80 -1.32,1.43 -1.06,1.08 -0.81,0.78 -0.58,0.52 -0.38,0.32 -0.23,0.18 -0.11,0.08 -0.04,0.03 -0.01,0.01 -0.00,0.00 0.00,-0.00 0.01,-0.01 0.05,-0.02 0.13,-0.06 0.27,-0.11 0.47,-0.17 0.74,-0.24 1.08,-0.32 1.47,-0.38 1.90,-0.43 2.34,-0.45 2.77,-0.44 3.17,-0.41 3.52,-0.34 3.78,-0.24 3.94,-0.13 4.00,-0.00" />
</g>
</svg>