<svg xmlns="http://www.w3.org/2000/svg" width="161.8" height="100.0" viewBox="-58.48 -24.57 171.80 110.00">
<g fill="none" stroke="black" stroke-width="0.0995%" transform="translate(0, 60.8638) scale(5.0270, -5.0270)">
<circle cx="-10.64" cy="0.00" r="0.10" />
<circle cx="0.00" cy="16.00" r="0.10" />
<polyline points="-10.64,-3.89 -10.32,-3.64 -10.00,-3.40 -9.67,-3.18 -9.35,-2.96 -9.03,-2.75 -8.71,-2.55 -8.39,-2.36 -8.06,-2.18 -7.74,-2.01 -7.42,-1.84 -7.10,-1.69 -6.78,-1.54 -6.45,-1.40 -6.13,-1.27 -5.81,-1.15 -5.49,-1.04 -5.17,-0.93 -4.85,-0.83 -4.52,-0.73 -4.20,-0.64 -3.88,-0.56 -3.56,-0.49 -3.24,-0.42 -2.91,-0.35 -2.59,-0.29 -2.27,-0.24 -1.95,-0.19 -1.63,-0.15 -1.30,-0.11 -0.98,-0.08 -0.66,-0.05 -0.34,-0.02 -0.02,-0.00 0.30,0.02 0.63,0.03 0.95,0.04 1.27,0.05 1.59,0.06 1.91,0.06 2.24,0.06 2.56,0.06 2.88,0.06 3.20,0.06 3.52,0.05 3.84,0.04 4.17,0.04 4.49,0.03 4.81,0.02 5.13,0.01 5.45,0.01 5.78,0.07 6.10,0.13 6.42,0.20 6.74,0.28 7.06,0.36 7.39,0.46 7.71,0.56 8.03,0.67 8.35,0.79 8.67,0.92 8.99,1.06 9.32,1.20 9.64,1.36 9.96,1.53 10.28,1.71 10.60,1.90 10.93,2.10 11.25,2.31 11.57,2.53 11.89,2.76 12.21,3.00 12.54,3.26 12.86,3.52 13.18,3.80 13.50,4.09 13.82,4.40 14.14,4.71 14.47,5.04 14.79,5.39 15.11,5.74 15.43,6.11 15.75,6.50 16.08,6.89 16.40,7.30 16.72,7.73 17.04,8.17 17.36,8.63 17.69,9.10 18.01,9.58 18.33,10.09 18.65,10.60 18.97,11.14 19.29,11.68 19.62,12.25 19.94,12.83 20.26,13.43 20.58,14.05 20.90,14.68 21.23,15.33 21.55,16.00" />
</g>
</svg>