<svg xmlns="http://www.w3.org/2000/svg" width="161.8" height="100.0" viewBox="-58.48 -5.00 171.80 110.00">
<g fill="none" stroke="black" stroke-width="0.0800%" transform="translate(0, 100.0000) scale(6.2500, -6.2500)">
<polyline points="-8.56,0.00 -8.30,0.00 -8.04,0.00 -7.78,0.00 -7.52,0.00 -7.26,0.00 -7.00,0.00 -6.75,0.00 -6.49,0.00 -6.23,0.00 -5.97,0.00 -5.71,0.00 -5.45,0.00 -5.19,0.00 -4.93,0.00 -4.67,0.00 -4.42,0.00 -4.16,0.00 -3.90,0.00 -3.64,0.00 -3.38,0.00 -3.12,0.00 -2.86,0.00 -2.60,0.00 -2.34,0.00 -2.09,0.00 -1.83,0.00 -1.57,0.00 -1.31,0.00 -1.05,0.00 -0.79,0.00 -0.53,0.00 -0.27,0.00 -0.01,0.00 0.24,0.02 0.50,0.03 0.76,0.04 1.02,0.05 1.28,0.06 1.54,0.06 1.80,0.06 2.06,0.06 2.32,0.06 2.57,0.06 2.83,0.05 3.09,0.04 3.35,0.04 3.61,0.03 3.87,0.02 4.13,0.01 4.39,0.01 4.65,0.07 4.90,0.13 5.16,0.20 5.42,0.28 5.68,0.36 5.94,0.46 6.20,0.56 6.46,0.67 6.72,0.79 6.98,0.92 7.23,1.06 7.49,1.20 7.75,1.36 8.01,1.53 8.27,1.71 8.53,1.90 8.79,2.10 9.05,2.31 9.31,2.53 9.56,2.76 9.82,3.00 10.08,3.26 10.34,3.52 10.60,3.80 10.86,4.09 11.12,4.40 11.38,4.71 11.64,5.04 11.89,5.39 12.15,5.74 12.41,6.11 12.67,6.50 12.93,6.89 13.19,7.30 13.45,7.73 13.71,8.17 13.97,8.63 14.22,9.10 14.48,9.58 14.74,10.09 15.00,10.60 15.26,11.14 15.52,11.68 15.78,12.25 16.04,12.83 16.30,13.43 16.55,14.05 16.81,14.68 17.07,15.33 17.33,16.00" />
</g>
</svg>