<svg xmlns="http://www.w3.org/2000/svg" width="99.4" height="100.0" viewBox="-21.61 -55.00 109.37 110.00">
<g fill="none" stroke="black" stroke-width="0.0181%" transform="translate(0, 0.0000) scale(27.5843, -27.5843)">
<polyline points="-0.60,1.81 -0.54,1.50 -0.47,1.22 -0.41,0.97 -0.33,0.74 -0.26,0.54 -0.18,0.35 -0.09,0.18 -0.01,0.02 0.08,-0.13 0.17,-0.26 0.26,-0.38 0.35,-0.49 0.45,-0.60 0.55,-0.69 0.64,-0.77 0.74,-0.84 0.84,-0.91 0.94,-0.97 1.04,-1.02 1.14,-1.06 1.24,-1.10 1.34,-1.13 1.44,-1.15 1.53,-1.17 1.63,-1.18 1.72,-1.18 1.82,-1.18 1.91,-1.17 2.00,-1.16 2.08,-1.14 2.16,-1.11 2.24,-1.08 2.32,-1.05 2.39,-1.01 2.46,-0.97 2.53,-0.92 2.59,-0.87 2.65,-0.82 2.71,-0.76 2.76,-0.70 2.80,-0.64 2.84,-0.58 2.88,-0.51 2.91,-0.44 2.94,-0.37 2.96,-0.30 2.98,-0.22 2.99,-0.15 3.00,-0.07 3.00,-0.00 3.00,0.07 2.99,0.15 2.98,0.22 2.96,0.30 2.94,0.37 2.91,0.44 2.88,0.51 2.84,0.58 2.80,0.64 2.76,0.70 2.71,0.76 2.65,0.82 2.59,0.87 2.53,0.92 2.46,0.97 2.39,1.01 2.32,1.05 2.24,1.08 2.16,1.11 2.08,1.14 2.00,1.16 1.91,1.17 1.82,1.18 1.72,1.18 1.63,1.18 1.53,1.17 1.44,1.15 1.34,1.13 1.24,1.10 1.14,1.06 1.04,1.02 0.94,0.97 0.84,0.91 0.74,0.84 0.64,0.77 0.55,0.69 0.45,0.60 0.35,0.49 0.26,0.38 0.17,0.26 0.08,0.13 -0.01,-0.02 -0.09,-0.18 -0.18,-0.35 -0.26,-0.54 -0.33,-0.74 -0.41,-0.97 -0.47,-1.22 -0.54,-1.50 -0.60,-1.81" />
</g>
</svg>