<svg xmlns="http://www.w3.org/2000/svg" width="161.8" height="100.0" viewBox="-5.000 145.000 171.803 110.000">
<g fill="none" stroke="black" stroke-width="0.0025%" transform="translate(0, 400.0000) scale(200.0000, -200.0000)">
<polyline points="0.000,0.750 0.006,0.752 0.012,0.758 0.018,0.768 0.025,0.781 0.031,0.798 0.038,0.818 0.044,0.841 0.051,0.866 0.058,0.894 0.066,0.923 0.073,0.953 0.081,0.984 0.089,1.016 0.097,1.047 0.106,1.077 0.115,1.106 0.124,1.134 0.133,1.159 0.143,1.182 0.152,1.202 0.162,1.219 0.172,1.232 0.182,1.242 0.192,1.248 0.202,1.250 0.212,1.248 0.222,1.242 0.232,1.232 0.242,1.219 0.252,1.202 0.262,1.182 0.271,1.159 0.281,1.134 0.290,1.106 0.298,1.077 0.307,1.047 0.315,1.016 0.323,0.984 0.331,0.953 0.339,0.923 0.346,0.894 0.353,0.866 0.360,0.841 0.367,0.818 0.374,0.798 0.380,0.781 0.386,0.768 0.392,0.758 0.398,0.752 0.405,0.750 0.411,0.752 0.417,0.758 0.423,0.768 0.429,0.781 0.435,0.798 0.442,0.818 0.449,0.841 0.456,0.866 0.463,0.894 0.470,0.923 0.478,0.953 0.486,0.984 0.494,1.016 0.502,1.047 0.511,1.077 0.519,1.106 0.528,1.134 0.538,1.159 0.547,1.182 0.557,1.202 0.567,1.219 0.577,1.232 0.587,1.242 0.597,1.248 0.607,1.250 0.617,1.248 0.627,1.242 0.637,1.232 0.647,1.219 0.657,1.202 0.666,1.182 0.676,1.159 0.685,1.134 0.694,1.106 0.703,1.077 0.712,1.047 0.720,1.016 0.728,0.984 0.736,0.953 0.743,0.923 0.751,0.894 0.758,0.866 0.765,0.841 0.771,0.818 0.778,0.798 0.784,0.781 0.791,0.768 0.797,0.758 0.803,0.752 0.809,0.750" />
</g>
</svg>