<svg xmlns="http://www.w3.org/2000/svg" width="161.8" height="100.0" viewBox="-5.000 -5.000 171.803 110.000">
<g fill="none" stroke="black" stroke-width="0.0100%" transform="translate(0, 100.0000) scale(50.0000, -50.0000)">
<polyline points="0.000,0.000 0.000,0.008 0.001,0.031 0.002,0.070 0.005,0.124 0.010,0.191 0.018,0.271 0.028,0.363 0.041,0.464 0.058,0.574 0.079,0.691 0.103,0.813 0.131,0.937 0.164,1.063 0.200,1.187 0.241,1.309 0.285,1.426 0.333,1.536 0.384,1.637 0.439,1.729 0.496,1.809 0.556,1.876 0.617,1.930 0.680,1.969 0.744,1.992 0.809,2.000 0.874,1.992 0.938,1.969 1.001,1.930 1.063,1.876 1.122,1.809 1.179,1.729 1.234,1.637 1.285,1.536 1.333,1.426 1.378,1.309 1.418,1.187 1.454,1.063 1.487,0.937 1.515,0.813 1.539,0.691 1.560,0.574 1.577,0.464 1.590,0.363 1.600,0.271 1.608,0.191 1.613,0.124 1.616,0.070 1.617,0.031 1.618,0.008 1.618,0.000 1.618,0.008 1.619,0.031 1.620,0.070 1.623,0.124 1.629,0.191 1.636,0.271 1.646,0.363 1.660,0.464 1.676,0.574 1.697,0.691 1.721,0.813 1.749,0.937 1.782,1.063 1.818,1.187 1.859,1.309 1.903,1.426 1.951,1.536 2.002,1.637 2.057,1.729 2.114,1.809 2.174,1.876 2.235,1.930 2.298,1.969 2.362,1.992 2.427,2.000 2.492,1.992 2.556,1.969 2.619,1.930 2.681,1.876 2.740,1.809 2.798,1.729 2.852,1.637 2.903,1.536 2.951,1.426 2.996,1.309 3.036,1.187 3.072,1.063 3.105,0.937 3.133,0.813 3.157,0.691 3.178,0.574 3.195,0.464 3.208,0.363 3.218,0.271 3.226,0.191 3.231,0.124 3.234,0.070 3.235,0.031 3.236,0.008" />
</g>
</svg>