<svg xmlns="http://www.w3.org/2000/svg" width="161.8" height="100.0" viewBox="-85.902 -5.000 171.803 110.000">
<g fill="none" stroke="black" stroke-width="0.0050%" transform="translate(0, 100.0000) scale(100.0000, -100.0000)">
<polyline points="-0.809,0.000 -0.793,0.000 -0.777,0.000 -0.760,0.000 -0.744,0.000 -0.728,0.000 -0.712,0.000 -0.696,0.000 -0.680,0.000 -0.663,0.000 -0.647,0.000 -0.631,0.000 -0.615,0.000 -0.599,0.000 -0.582,0.000 -0.566,0.000 -0.550,0.000 -0.534,0.000 -0.518,0.000 -0.502,0.000 -0.485,0.000 -0.469,0.000 -0.453,0.000 -0.437,0.000 -0.421,0.000 -0.405,1.000 -0.388,1.000 -0.372,1.000 -0.356,1.000 -0.340,1.000 -0.324,1.000 -0.307,1.000 -0.291,1.000 -0.275,1.000 -0.259,1.000 -0.243,1.000 -0.227,1.000 -0.210,1.000 -0.194,1.000 -0.178,1.000 -0.162,1.000 -0.146,1.000 -0.129,1.000 -0.113,1.000 -0.097,1.000 -0.081,1.000 -0.065,1.000 -0.049,1.000 -0.032,1.000 -0.016,1.000 0.000,1.000 0.016,1.000 0.032,1.000 0.049,1.000 0.065,1.000 0.081,1.000 0.097,1.000 0.113,1.000 0.129,1.000 0.146,1.000 0.162,1.000 0.178,1.000 0.194,1.000 0.210,1.000 0.227,1.000 0.243,1.000 0.259,1.000 0.275,1.000 0.291,1.000 0.307,1.000 0.324,1.000 0.340,1.000 0.356,1.000 0.372,1.000 0.388,1.000 0.405,0.000 0.421,0.000 0.437,0.000 0.453,0.000 0.469,0.000 0.485,0.000 0.502,0.000 0.518,0.000 0.534,0.000 0.550,0.000 0.566,0.000 0.582,0.000 0.599,0.000 0.615,0.000 0.631,0.000 0.647,0.000 0.663,0.000 0.680,0.000 0.696,0.000 0.712,0.000 0.728,0.000 0.744,0.000 0.760,0.000 0.777,0.000 0.793,0.000 0.809,0.000" />
<polyline points="-0.809,0.000 -0.793,0.000 -0.777,0.000 -0.760,0.000 -0.744,0.000 -0.728,0.000 -0.712,0.000 -0.696,0.000 -0.680,0.000 -0.663,0.000 -0.647,0.000 -0.631,0.000 -0.615,0.000 -0.599,0.000 -0.582,0.000 -0.566,0.000 -0.550,0.000 -0.534,0.000 -0.518,0.000 -0.502,0.000 -0.485,0.000 -0.469,0.000 -0.453,0.000 -0.437,0.000 -0.421,0.000 -0.405,0.000 -0.388,0.016 -0.372,0.062 -0.356,0.136 -0.340,0.232 -0.324,0.345 -0.307,0.469 -0.291,0.594 -0.275,0.713 -0.259,0.819 -0.243,0.905 -0.227,0.965 -0.210,0.996 -0.194,1.000 -0.178,1.000 -0.162,1.000 -0.146,1.000 -0.129,1.000 -0.113,1.000 -0.097,1.000 -0.081,1.000 -0.065,1.000 -0.049,1.000 -0.032,1.000 -0.016,1.000 0.000,1.000 0.016,1.000 0.032,1.000 0.049,1.000 0.065,1.000 0.081,1.000 0.097,1.000 0.113,1.000 0.129,1.000 0.146,1.000 0.162,1.000 0.178,1.000 0.194,1.000 0.210,0.996 0.227,0.965 0.243,0.905 0.259,0.819 0.275,0.713 0.291,0.594 0.307,0.469 0.324,0.345 0.340,0.232 0.356,0.136 0.372,0.062 0.388,0.016 0.405,0.000 0.421,0.000 0.437,0.000 0.453,0.000 0.469,0.000 0.485,0.000 0.502,0.000 0.518,0.000 0.534,0.000 0.550,0.000 0.566,0.000 0.582,0.000 0.599,0.000 0.615,0.000 0.631,0.000 0.647,0.000 0.663,0.000 0.680,0.000 0.696,0.000 0.712,0.000 0.728,0.000 0.744,0.000 0.760,0.000 0.777,0.000 0.793,0.000 0.809,0.000" />
<polyline points="-0.809,0.000 -0.793,0.000 -0.777,0.000 -0.760,0.000 -0.744,0.000 -0.728,0.000 -0.712,0.000 -0.696,0.000 -0.680,0.000 -0.663,0.000 -0.647,0.000 -0.631,0.000 -0.615,0.000 -0.599,0.000 -0.582,0.000 -0.566,0.000 -0.550,0.000 -0.534,0.000 -0.518,0.000 -0.502,0.000 -0.485,0.000 -0.469,0.000 -0.453,0.000 -0.437,0.000 -0.421,0.000 -0.405,0.000 -0.388,0.004 -0.372,0.016 -0.356,0.035 -0.340,0.062 -0.324,0.095 -0.307,0.136 -0.291,0.181 -0.275,0.232 -0.259,0.287 -0.243,0.345 -0.227,0.406 -0.210,0.469 -0.194,0.531 -0.178,0.594 -0.162,0.655 -0.146,0.713 -0.129,0.768 -0.113,0.819 -0.097,0.864 -0.081,0.905 -0.065,0.938 -0.049,0.965 -0.032,0.984 -0.016,0.996 0.000,1.000 0.016,0.996 0.032,0.984 0.049,0.965 0.065,0.938 0.081,0.905 0.097,0.864 0.113,0.819 0.129,0.768 0.146,0.713 0.162,0.655 0.178,0.594 0.194,0.531 0.210,0.469 0.227,0.406 0.243,0.345 0.259,0.287 0.275,0.232 0.291,0.181 0.307,0.136 0.324,0.095 0.340,0.062 0.356,0.035 0.372,0.016 0.388,0.004 0.405,0.000 0.421,0.000 0.437,0.000 0.453,0.000 0.469,0.000 0.485,0.000 0.502,0.000 0.518,0.000 0.534,0.000 0.550,0.000 0.566,0.000 0.582,0.000 0.599,0.000 0.615,0.000 0.631,0.000 0.647,0.000 0.663,0.000 0.680,0.000 0.696,0.000 0.712,0.000 0.728,0.000 0.744,0.000 0.760,0.000 0.777,0.000 0.793,0.000 0.809,0.000" />
</g>
</svg>