<svg xmlns="http://www.w3.org/2000/svg" width="126.2" height="100.0" viewBox="-21.667 -5.000 136.190 110.000">
<g fill="none" stroke="black" stroke-width="0.0105%" transform="translate(0, 100.0000) scale(47.6190, -47.6190)">
<circle cx="0.000" cy="0.000" r="0.010" />
<circle cx="1.975" cy="0.825" r="0.010" />
<circle cx="0.650" cy="0.450" r="0.010" />
<circle cx="0.325" cy="1.275" r="0.010" />
<circle cx="2.300" cy="2.100" r="0.010" />
<circle cx="1.650" cy="0.550" r="0.010" />
<circle cx="1.300" cy="1.100" r="0.010" />
<circle cx="0.175" cy="0.625" r="0.010" />
<circle cx="0.000" cy="1.000" r="0.010" />
<circle cx="1.975" cy="1.825" r="0.010" />
<circle cx="1.325" cy="0.275" r="0.010" />
<circle cx="0.975" cy="0.825" r="0.010" />
<circle cx="-0.350" cy="0.450" r="0.010" />
<circle cx="1.650" cy="1.550" r="0.010" />
<circle cx="1.300" cy="2.100" r="0.010" />
<circle cx="1.000" cy="0.000" r="0.010" />
<circle cx="0.650" cy="0.550" r="0.010" />
<circle cx="-0.200" cy="0.100" r="0.010" />
<circle cx="1.325" cy="1.275" r="0.010" />
<circle cx="0.975" cy="1.825" r="0.010" />
<circle cx="0.325" cy="0.275" r="0.010" />
<circle cx="2.300" cy="1.100" r="0.010" />
<circle cx="1.000" cy="1.000" r="0.010" />
<circle cx="0.650" cy="1.550" r="0.010" />
<line x1="0.000" y1="0.000" x2="0.175" y2="0.625" />
<line x1="0.000" y1="0.000" x2="0.000" y2="1.000" />
<line x1="0.000" y1="0.000" x2="-0.350" y2="0.450" />
<line x1="0.000" y1="0.000" x2="1.000" y2="0.000" />
<line x1="0.000" y1="0.000" x2="-0.200" y2="0.100" />
<line x1="0.000" y1="0.000" x2="0.325" y2="0.275" />
<line x1="1.975" y1="0.825" x2="1.650" y2="0.550" />
<line x1="1.975" y1="0.825" x2="1.975" y2="1.825" />
<line x1="1.975" y1="0.825" x2="0.975" y2="0.825" />
<line x1="1.975" y1="0.825" x2="2.300" y2="1.100" />
<line x1="0.650" y1="0.450" x2="-0.350" y2="0.450" />
<line x1="0.650" y1="0.450" x2="1.000" y2="0.000" />
<line x1="0.325" y1="1.275" x2="0.000" y2="1.000" />
<line x1="0.325" y1="1.275" x2="1.325" y2="1.275" />
<line x1="0.325" y1="1.275" x2="0.325" y2="0.275" />
<line x1="0.325" y1="1.275" x2="0.650" y2="1.550" />
<line x1="2.300" y1="2.100" x2="1.975" y2="1.825" />
<line x1="2.300" y1="2.100" x2="1.300" y2="2.100" />
<line x1="2.300" y1="2.100" x2="2.300" y2="1.100" />
<line x1="1.650" y1="0.550" x2="1.325" y2="0.275" />
<line x1="1.650" y1="0.550" x2="1.650" y2="1.550" />
<line x1="1.650" y1="0.550" x2="0.650" y2="0.550" />
<line x1="1.300" y1="1.100" x2="0.975" y2="0.825" />
<line x1="1.300" y1="1.100" x2="1.300" y2="2.100" />
<line x1="1.300" y1="1.100" x2="2.300" y2="1.100" />
<line x1="0.000" y1="1.000" x2="1.000" y2="1.000" />
<line x1="1.975" y1="1.825" x2="1.650" y2="1.550" />
<line x1="1.975" y1="1.825" x2="0.975" y2="1.825" />
<line x1="1.325" y1="0.275" x2="1.000" y2="0.000" />
<line x1="1.325" y1="0.275" x2="1.325" y2="1.275" />
<line x1="1.325" y1="0.275" x2="0.325" y2="0.275" />
<line x1="0.975" y1="0.825" x2="0.650" y2="0.550" />
<line x1="0.975" y1="0.825" x2="0.975" y2="1.825" />
<line x1="1.650" y1="1.550" x2="1.325" y2="1.275" />
<line x1="1.650" y1="1.550" x2="0.650" y2="1.550" />
<line x1="1.300" y1="2.100" x2="0.975" y2="1.825" />
<line x1="1.000" y1="0.000" x2="1.000" y2="1.000" />
<line x1="0.650" y1="0.550" x2="0.325" y2="0.275" />
<line x1="0.650" y1="0.550" x2="0.650" y2="1.550" />
<line x1="1.325" y1="1.275" x2="1.000" y2="1.000" />
<line x1="0.975" y1="1.825" x2="0.650" y2="1.550" />
</g>
</svg>