<svg xmlns="http://www.w3.org/2000/svg" width="160.0" height="100.0" viewBox="-85.00 -55.00 170.00 110.00">
<g fill="none" stroke="black" stroke-width="0.0200%" transform="translate(0, 0.0000) scale(25.0000, -25.0000)">
<circle cx="2.20" cy="-1.85" r="0.02" />
<circle cx="-2.00" cy="-1.00" r="0.02" />
<circle cx="1.20" cy="0.15" r="0.02" />
<circle cx="-3.00" cy="1.00" r="0.02" />
<circle cx="-0.80" cy="-0.85" r="0.02" />
<circle cx="-1.20" cy="-1.15" r="0.02" />
<circle cx="2.00" cy="0.00" r="0.02" />
<circle cx="-2.20" cy="0.85" r="0.02" />
<circle cx="0.00" cy="-1.00" r="0.02" />
<circle cx="3.20" cy="0.15" r="0.02" />
<circle cx="-1.00" cy="1.00" r="0.02" />
<circle cx="1.20" cy="-0.85" r="0.02" />
<circle cx="-3.00" cy="0.00" r="0.02" />
<circle cx="0.20" cy="1.15" r="0.02" />
<circle cx="-0.20" cy="0.85" r="0.02" />
<circle cx="2.00" cy="-1.00" r="0.02" />
<circle cx="-2.20" cy="-0.15" r="0.02" />
<circle cx="1.00" cy="1.00" r="0.02" />
<circle cx="3.20" cy="-0.85" r="0.02" />
<circle cx="-1.00" cy="0.00" r="0.02" />
<circle cx="2.20" cy="1.15" r="0.02" />
<circle cx="-2.00" cy="2.00" r="0.02" />
<circle cx="0.20" cy="0.15" r="0.02" />
<circle cx="-0.20" cy="-0.15" r="0.02" />
<circle cx="2.00" cy="-2.00" r="0.02" />
<circle cx="-2.20" cy="-1.15" r="0.02" />
<circle cx="1.00" cy="0.00" r="0.02" />
<circle cx="-3.20" cy="0.85" r="0.02" />
<circle cx="-1.00" cy="-1.00" r="0.02" />
<circle cx="2.20" cy="0.15" r="0.02" />
<circle cx="-2.00" cy="1.00" r="0.02" />
<circle cx="0.20" cy="-0.85" r="0.02" />
<circle cx="-0.20" cy="-1.15" r="0.02" />
<circle cx="3.00" cy="0.00" r="0.02" />
<circle cx="-1.20" cy="0.85" r="0.02" />
<circle cx="1.00" cy="-1.00" r="0.02" />
<circle cx="-3.20" cy="-0.15" r="0.02" />
<circle cx="0.00" cy="1.00" r="0.02" />
<circle cx="2.20" cy="-0.85" r="0.02" />
<circle cx="-2.00" cy="0.00" r="0.02" />
<circle cx="1.20" cy="1.15" r="0.02" />
<circle cx="0.80" cy="0.85" r="0.02" />
<circle cx="3.00" cy="-1.00" r="0.02" />
<circle cx="-2.00" cy="-1.00" r="0.02" />
<circle cx="2.00" cy="1.00" r="0.02" />
<circle cx="-2.20" cy="1.85" r="0.02" />
<circle cx="0.00" cy="0.00" r="0.02" />
<line x1="2.20" y1="-1.85" x2="2.00" y2="-2.00" />
<line x1="2.20" y1="-1.85" x2="2.20" y2="-0.85" />
<line x1="-2.00" y1="-1.00" x2="-2.20" y2="-1.15" />
<line x1="-2.00" y1="-1.00" x2="-1.00" y2="-1.00" />
<line x1="-2.00" y1="-1.00" x2="-2.00" y2="0.00" />
<line x1="1.20" y1="0.15" x2="1.20" y2="-0.85" />
<line x1="1.20" y1="0.15" x2="0.20" y2="0.15" />
<line x1="1.20" y1="0.15" x2="1.00" y2="0.00" />
<line x1="1.20" y1="0.15" x2="2.20" y2="0.15" />
<line x1="1.20" y1="0.15" x2="1.20" y2="1.15" />
<line x1="-3.00" y1="1.00" x2="-3.00" y2="0.00" />
<line x1="-3.00" y1="1.00" x2="-3.20" y2="0.85" />
<line x1="-3.00" y1="1.00" x2="-2.00" y2="1.00" />
<line x1="-0.80" y1="-0.85" x2="-1.00" y2="-1.00" />
<line x1="-0.80" y1="-0.85" x2="0.20" y2="-0.85" />
<line x1="-1.20" y1="-1.15" x2="-2.20" y2="-1.15" />
<line x1="-1.20" y1="-1.15" x2="-1.00" y2="-1.00" />
<line x1="-1.20" y1="-1.15" x2="-0.20" y2="-1.15" />
<line x1="2.00" y1="0.00" x2="2.00" y2="-1.00" />
<line x1="2.00" y1="0.00" x2="1.00" y2="0.00" />
<line x1="2.00" y1="0.00" x2="2.20" y2="0.15" />
<line x1="2.00" y1="0.00" x2="3.00" y2="0.00" />
<line x1="2.00" y1="0.00" x2="2.00" y2="1.00" />
<line x1="-2.20" y1="0.85" x2="-2.20" y2="-0.15" />
<line x1="-2.20" y1="0.85" x2="-3.20" y2="0.85" />
<line x1="-2.20" y1="0.85" x2="-2.00" y2="1.00" />
<line x1="-2.20" y1="0.85" x2="-1.20" y2="0.85" />
<line x1="-2.20" y1="0.85" x2="-2.20" y2="1.85" />
<line x1="0.00" y1="-1.00" x2="-1.00" y2="-1.00" />
<line x1="0.00" y1="-1.00" x2="0.20" y2="-0.85" />
<line x1="0.00" y1="-1.00" x2="-0.20" y2="-1.15" />
<line x1="0.00" y1="-1.00" x2="1.00" y2="-1.00" />
<line x1="0.00" y1="-1.00" x2="0.00" y2="0.00" />
<line x1="3.20" y1="0.15" x2="3.20" y2="-0.85" />
<line x1="3.20" y1="0.15" x2="2.20" y2="0.15" />
<line x1="3.20" y1="0.15" x2="3.00" y2="0.00" />
<line x1="-1.00" y1="1.00" x2="-1.00" y2="0.00" />
<line x1="-1.00" y1="1.00" x2="-2.00" y2="1.00" />
<line x1="-1.00" y1="1.00" x2="-1.20" y2="0.85" />
<line x1="-1.00" y1="1.00" x2="0.00" y2="1.00" />
<line x1="1.20" y1="-0.85" x2="0.20" y2="-0.85" />
<line x1="1.20" y1="-0.85" x2="1.00" y2="-1.00" />
<line x1="1.20" y1="-0.85" x2="2.20" y2="-0.85" />
<line x1="-3.00" y1="0.00" x2="-3.20" y2="-0.15" />
<line x1="-3.00" y1="0.00" x2="-2.00" y2="0.00" />
<line x1="0.20" y1="1.15" x2="0.20" y2="0.15" />
<line x1="0.20" y1="1.15" x2="0.00" y2="1.00" />
<line x1="0.20" y1="1.15" x2="1.20" y2="1.15" />
<line x1="-0.20" y1="0.85" x2="-0.20" y2="-0.15" />
<line x1="-0.20" y1="0.85" x2="-1.20" y2="0.85" />
<line x1="-0.20" y1="0.85" x2="0.00" y2="1.00" />
<line x1="-0.20" y1="0.85" x2="0.80" y2="0.85" />
<line x1="2.00" y1="-1.00" x2="2.00" y2="-2.00" />
<line x1="2.00" y1="-1.00" x2="1.00" y2="-1.00" />
<line x1="2.00" y1="-1.00" x2="2.20" y2="-0.85" />
<line x1="2.00" y1="-1.00" x2="3.00" y2="-1.00" />
<line x1="-2.20" y1="-0.15" x2="-2.20" y2="-1.15" />
<line x1="-2.20" y1="-0.15" x2="-3.20" y2="-0.15" />
<line x1="-2.20" y1="-0.15" x2="-2.00" y2="0.00" />
<line x1="1.00" y1="1.00" x2="1.00" y2="0.00" />
<line x1="1.00" y1="1.00" x2="0.00" y2="1.00" />
<line x1="1.00" y1="1.00" x2="1.20" y2="1.15" />
<line x1="1.00" y1="1.00" x2="0.80" y2="0.85" />
<line x1="1.00" y1="1.00" x2="2.00" y2="1.00" />
<line x1="3.20" y1="-0.85" x2="2.20" y2="-0.85" />
<line x1="3.20" y1="-0.85" x2="3.00" y2="-1.00" />
<line x1="-1.00" y1="0.00" x2="-1.00" y2="-1.00" />
<line x1="-1.00" y1="0.00" x2="-2.00" y2="0.00" />
<line x1="-1.00" y1="0.00" x2="0.00" y2="0.00" />
<line x1="2.20" y1="1.15" x2="2.20" y2="0.15" />
<line x1="2.20" y1="1.15" x2="1.20" y2="1.15" />
<line x1="2.20" y1="1.15" x2="2.00" y2="1.00" />
<line x1="-2.00" y1="2.00" x2="-2.00" y2="1.00" />
<line x1="-2.00" y1="2.00" x2="-2.20" y2="1.85" />
<line x1="0.20" y1="0.15" x2="0.20" y2="-0.85" />
<line x1="0.20" y1="0.15" x2="0.00" y2="0.00" />
<line x1="-0.20" y1="-0.15" x2="-0.20" y2="-1.15" />
<line x1="-0.20" y1="-0.15" x2="0.00" y2="0.00" />
<line x1="-2.20" y1="-1.15" x2="-2.00" y2="-1.00" />
<line x1="1.00" y1="0.00" x2="1.00" y2="-1.00" />
<line x1="1.00" y1="0.00" x2="0.00" y2="0.00" />
<line x1="-3.20" y1="0.85" x2="-3.20" y2="-0.15" />
<line x1="-1.00" y1="-1.00" x2="-2.00" y2="-1.00" />
<line x1="2.20" y1="0.15" x2="2.20" y2="-0.85" />
<line x1="-2.00" y1="1.00" x2="-2.00" y2="0.00" />
<line x1="3.00" y1="0.00" x2="3.00" y2="-1.00" />
<line x1="0.00" y1="1.00" x2="0.00" y2="0.00" />
<line x1="-2.00" y1="0.00" x2="-2.00" y2="-1.00" />
</g>
</svg>