<svg xmlns="http://www.w3.org/2000/svg" width="81" height="99" viewBox="0 0 81 99">
<rect x="0" y="27" width="9" height="9" fill="rgb(128,128,128)"/>
<rect x="0" y="36" width="9" height="9" fill="rgb(128,128,128)"/>
<rect x="0" y="45" width="9" height="9" fill="rgb(128,128,128)"/>
<rect x="0" y="54" width="9" height="9" fill="rgb(128,128,128)"/>
<rect x="0" y="63" width="9" height="9" fill="rgb(128,128,128)"/>
<rect x="0" y="72" width="9" height="9" fill="rgb(128,128,128)"/>
<rect x="0" y="81" width="9" height="9" fill="rgb(128,128,128)"/>
<rect x="0" y="90" width="9" height="9" fill="rgb(128,128,128)"/>
<rect x="9" y="0" width="9" height="9" fill="rgb(0,0,0)"/>
<rect x="9" y="9" width="9" height="9" fill="rgb(0,0,0)"/>
<rect x="9" y="18" width="9" height="9" fill="rgb(128,128,128)"/>
<rect x="9" y="27" width="9" height="9" fill="rgb(128,128,128)"/>
<rect x="9" y="36" width="9" height="9" fill="rgb(0,0,0)"/>
<rect x="9" y="45" width="9" height="9" fill="rgb(0,0,0)"/>
<rect x="9" y="54" width="9" height="9" fill="rgb(0,0,0)"/>
<rect x="9" y="63" width="9" height="9" fill="rgb(0,0,0)"/>
<rect x="9" y="72" width="9" height="9" fill="rgb(0,0,0)"/>
<rect x="9" y="81" width="9" height="9" fill="rgb(0,0,0)"/>
<rect x="9" y="90" width="9" height="9" fill="rgb(0,0,0)"/>
<rect x="18" y="0" width="9" height="9" fill="rgb(0,0,0)"/>
<rect x="18" y="9" width="9" height="9" fill="rgb(128,128,128)"/>
<rect x="18" y="18" width="9" height="9" fill="rgb(128,128,128)"/>
<rect x="18" y="27" width="9" height="9" fill="rgb(128,128,128)"/>
<rect x="18" y="36" width="9" height="9" fill="rgb(128,128,128)"/>
<rect x="18" y="45" width="9" height="9" fill="rgb(0,0,0)"/>
<rect x="18" y="54" width="9" height="9" fill="rgb(0,0,0)"/>
<rect x="18" y="63" width="9" height="9" fill="rgb(0,0,0)"/>
<rect x="18" y="72" width="9" height="9" fill="rgb(0,0,0)"/>
<rect x="18" y="81" width="9" height="9" fill="rgb(0,0,0)"/>
<rect x="18" y="90" width="9" height="9" fill="rgb(0,0,0)"/>
<rect x="27" y="0" width="9" height="9" fill="rgb(128,128,128)"/>
<rect x="27" y="9" width="9" height="9" fill="rgb(128,128,128)"/>
<rect x="27" y="18" width="9" height="9" fill="rgb(128,128,128)"/>
<rect x="27" y="27" width="9" height="9" fill="rgb(128,128,128)"/>
<rect x="27" y="36" width="9" height="9" fill="rgb(128,128,128)"/>
<rect x="27" y="45" width="9" height="9" fill="rgb(128,128,128)"/>
<rect x="27" y="54" width="9" height="9" fill="rgb(0,0,0)"/>
<rect x="27" y="63" width="9" height="9" fill="rgb(0,0,0)"/>
<rect x="27" y="72" width="9" height="9" fill="rgb(0,0,0)"/>
<rect x="27" y="81" width="9" height="9" fill="rgb(0,0,0)"/>
<rect x="27" y="90" width="9" height="9" fill="rgb(0,0,0)"/>
<rect x="36" y="0" width="9" height="9" fill="rgb(128,128,128)"/>
<rect x="36" y="9" width="9" height="9" fill="rgb(128,128,128)"/>
<rect x="36" y="18" width="9" height="9" fill="rgb(128,128,128)"/>
<rect x="36" y="27" width="9" height="9" fill="rgb(128,128,128)"/>
<rect x="36" y="36" width="9" height="9" fill="rgb(128,128,128)"/>
<rect x="36" y="45" width="9" height="9" fill="rgb(128,128,128)"/>
<rect x="36" y="54" width="9" height="9" fill="rgb(128,128,128)"/>
<rect x="36" y="63" width="9" height="9" fill="rgb(0,0,0)"/>
<rect x="36" y="72" width="9" height="9" fill="rgb(0,0,0)"/>
<rect x="36" y="81" width="9" height="9" fill="rgb(0,0,0)"/>
<rect x="36" y="90" width="9" height="9" fill="rgb(0,0,0)"/>
<rect x="45" y="0" width="9" height="9" fill="rgb(0,0,0)"/>
<rect x="45" y="9" width="9" height="9" fill="rgb(0,0,0)"/>
<rect x="45" y="18" width="9" height="9" fill="rgb(0,0,0)"/>
<rect x="45" y="27" width="9" height="9" fill="rgb(0,0,0)"/>
<rect x="45" y="36" width="9" height="9" fill="rgb(0,0,0)"/>
<rect x="45" y="45" width="9" height="9" fill="rgb(0,0,0)"/>
<rect x="45" y="54" width="9" height="9" fill="rgb(0,0,0)"/>
<rect x="45" y="63" width="9" height="9" fill="rgb(0,0,0)"/>
<rect x="54" y="81" width="9" height="9" fill="rgb(128,128,128)"/>
<rect x="54" y="90" width="9" height="9" fill="rgb(128,128,128)"/>
<rect x="63" y="0" width="9" height="9" fill="rgb(0,0,0)"/>
<rect x="63" y="9" width="9" height="9" fill="rgb(0,0,0)"/>
<rect x="63" y="18" width="9" height="9" fill="rgb(0,0,0)"/>
<rect x="63" y="27" width="9" height="9" fill="rgb(0,0,0)"/>
<rect x="63" y="36" width="9" height="9" fill="rgb(0,0,0)"/>
<rect x="63" y="45" width="9" height="9" fill="rgb(0,0,0)"/>
<rect x="63" y="54" width="9" height="9" fill="rgb(0,0,0)"/>
<rect x="63" y="63" width="9" height="9" fill="rgb(0,0,0)"/>
<rect x="63" y="72" width="9" height="9" fill="rgb(0,0,0)"/>
<rect x="63" y="81" width="9" height="9" fill="rgb(0,0,0)"/>
</svg>