<svg xmlns="http://www.w3.org/2000/svg" width="30" height="105" viewBox="0 0 30 105">
<rect x="5" y="0" width="5" height="5" fill="rgb(0,0,0)"/>
<rect x="5" y="5" width="5" height="5" fill="rgb(0,0,0)"/>
<rect x="5" y="10" width="5" height="5" fill="rgb(0,0,0)"/>
<rect x="5" y="15" width="5" height="5" fill="rgb(0,0,0)"/>
<rect x="5" y="20" width="5" height="5" fill="rgb(0,0,0)"/>
<rect x="5" y="25" width="5" height="5" fill="rgb(0,0,0)"/>
<rect x="5" y="30" width="5" height="5" fill="rgb(0,0,0)"/>
<rect x="5" y="35" width="5" height="5" fill="rgb(0,0,0)"/>
<rect x="5" y="40" width="5" height="5" fill="rgb(0,0,0)"/>
<rect x="10" y="10" width="5" height="5" fill="rgb(0,0,0)"/>
<rect x="10" y="15" width="5" height="5" fill="rgb(0,0,0)"/>
<rect x="10" y="20" width="5" height="5" fill="rgb(0,0,0)"/>
<rect x="10" y="25" width="5" height="5" fill="rgb(0,0,0)"/>
<rect x="10" y="50" width="5" height="5" fill="rgb(0,0,0)"/>
<rect x="10" y="55" width="5" height="5" fill="rgb(0,0,0)"/>
<rect x="10" y="60" width="5" height="5" fill="rgb(0,0,0)"/>
<rect x="10" y="65" width="5" height="5" fill="rgb(0,0,0)"/>
<rect x="15" y="35" width="5" height="5" fill="rgb(0,0,0)"/>
<rect x="15" y="40" width="5" height="5" fill="rgb(0,0,0)"/>
<rect x="15" y="45" width="5" height="5" fill="rgb(0,0,0)"/>
<rect x="15" y="50" width="5" height="5" fill="rgb(0,0,0)"/>
<rect x="15" y="55" width="5" height="5" fill="rgb(0,0,0)"/>
<rect x="15" y="60" width="5" height="5" fill="rgb(0,0,0)"/>
<rect x="15" y="65" width="5" height="5" fill="rgb(0,0,0)"/>
<rect x="15" y="70" width="5" height="5" fill="rgb(0,0,0)"/>
<rect x="15" y="75" width="5" height="5" fill="rgb(0,0,0)"/>
<rect x="15" y="80" width="5" height="5" fill="rgb(0,0,0)"/>
<rect x="15" y="85" width="5" height="5" fill="rgb(0,0,0)"/>
<rect x="15" y="90" width="5" height="5" fill="rgb(0,0,0)"/>
<rect x="15" y="95" width="5" height="5" fill="rgb(0,0,0)"/>
<rect x="15" y="100" width="5" height="5" fill="rgb(0,0,0)"/>
<rect x="20" y="80" width="5" height="5" fill="rgb(0,0,0)"/>
<rect x="20" y="85" width="5" height="5" fill="rgb(0,0,0)"/>
<rect x="20" y="90" width="5" height="5" fill="rgb(0,0,0)"/>
<rect x="20" y="95" width="5" height="5" fill="rgb(0,0,0)"/>
</svg>