<svg xmlns="http://www.w3.org/2000/svg" width="27" height="93" viewBox="0 0 27 93">
<rect x="0" y="78" width="3" height="3" fill="rgb(0,0,0)"/>
<rect x="0" y="81" width="3" height="3" fill="rgb(0,0,0)"/>
<rect x="0" y="84" width="3" height="3" fill="rgb(0,0,0)"/>
<rect x="0" y="87" width="3" height="3" fill="rgb(0,0,0)"/>
<rect x="0" y="90" width="3" height="3" fill="rgb(0,0,0)"/>
<rect x="3" y="75" width="3" height="3" fill="rgb(0,0,0)"/>
<rect x="3" y="78" width="3" height="3" fill="rgb(0,0,0)"/>
<rect x="6" y="36" width="3" height="3" fill="rgb(0,0,0)"/>
<rect x="6" y="39" width="3" height="3" fill="rgb(0,0,0)"/>
<rect x="6" y="42" width="3" height="3" fill="rgb(0,0,0)"/>
<rect x="6" y="45" width="3" height="3" fill="rgb(0,0,0)"/>
<rect x="6" y="48" width="3" height="3" fill="rgb(0,0,0)"/>
<rect x="6" y="51" width="3" height="3" fill="rgb(0,0,0)"/>
<rect x="6" y="54" width="3" height="3" fill="rgb(0,0,0)"/>
<rect x="6" y="57" width="3" height="3" fill="rgb(0,0,0)"/>
<rect x="6" y="60" width="3" height="3" fill="rgb(0,0,0)"/>
<rect x="6" y="63" width="3" height="3" fill="rgb(0,0,0)"/>
<rect x="6" y="66" width="3" height="3" fill="rgb(0,0,0)"/>
<rect x="6" y="69" width="3" height="3" fill="rgb(0,0,0)"/>
<rect x="6" y="84" width="3" height="3" fill="rgb(0,0,0)"/>
<rect x="6" y="87" width="3" height="3" fill="rgb(0,0,0)"/>
<rect x="6" y="90" width="3" height="3" fill="rgb(0,0,0)"/>
<rect x="9" y="33" width="3" height="3" fill="rgb(0,0,0)"/>
<rect x="9" y="36" width="3" height="3" fill="rgb(0,0,0)"/>
<rect x="9" y="69" width="3" height="3" fill="rgb(0,0,0)"/>
<rect x="9" y="72" width="3" height="3" fill="rgb(0,0,0)"/>
<rect x="9" y="75" width="3" height="3" fill="rgb(0,0,0)"/>
<rect x="9" y="78" width="3" height="3" fill="rgb(0,0,0)"/>
<rect x="9" y="81" width="3" height="3" fill="rgb(0,0,0)"/>
<rect x="9" y="84" width="3" height="3" fill="rgb(0,0,0)"/>
<rect x="12" y="18" width="3" height="3" fill="rgb(0,0,0)"/>
<rect x="12" y="21" width="3" height="3" fill="rgb(0,0,0)"/>
<rect x="12" y="24" width="3" height="3" fill="rgb(0,0,0)"/>
<rect x="12" y="27" width="3" height="3" fill="rgb(0,0,0)"/>
<rect x="12" y="42" width="3" height="3" fill="rgb(0,0,0)"/>
<rect x="12" y="45" width="3" height="3" fill="rgb(0,0,0)"/>
<rect x="12" y="48" width="3" height="3" fill="rgb(0,0,0)"/>
<rect x="12" y="51" width="3" height="3" fill="rgb(0,0,0)"/>
<rect x="12" y="54" width="3" height="3" fill="rgb(0,0,0)"/>
<rect x="12" y="57" width="3" height="3" fill="rgb(0,0,0)"/>
<rect x="12" y="60" width="3" height="3" fill="rgb(0,0,0)"/>
<rect x="12" y="63" width="3" height="3" fill="rgb(0,0,0)"/>
<rect x="12" y="90" width="3" height="3" fill="rgb(0,0,0)"/>
<rect x="15" y="15" width="3" height="3" fill="rgb(0,0,0)"/>
<rect x="15" y="18" width="3" height="3" fill="rgb(0,0,0)"/>
<rect x="15" y="27" width="3" height="3" fill="rgb(0,0,0)"/>
<rect x="15" y="30" width="3" height="3" fill="rgb(0,0,0)"/>
<rect x="15" y="33" width="3" height="3" fill="rgb(0,0,0)"/>
<rect x="15" y="36" width="3" height="3" fill="rgb(0,0,0)"/>
<rect x="15" y="39" width="3" height="3" fill="rgb(0,0,0)"/>
<rect x="15" y="42" width="3" height="3" fill="rgb(0,0,0)"/>
<rect x="15" y="63" width="3" height="3" fill="rgb(0,0,0)"/>
<rect x="15" y="66" width="3" height="3" fill="rgb(0,0,0)"/>
<rect x="15" y="69" width="3" height="3" fill="rgb(0,0,0)"/>
<rect x="15" y="72" width="3" height="3" fill="rgb(0,0,0)"/>
<rect x="15" y="75" width="3" height="3" fill="rgb(0,0,0)"/>
<rect x="15" y="78" width="3" height="3" fill="rgb(0,0,0)"/>
<rect x="15" y="81" width="3" height="3" fill="rgb(0,0,0)"/>
<rect x="15" y="84" width="3" height="3" fill="rgb(0,0,0)"/>
<rect x="15" y="87" width="3" height="3" fill="rgb(0,0,0)"/>
<rect x="15" y="90" width="3" height="3" fill="rgb(0,0,0)"/>
<rect x="18" y="12" width="3" height="3" fill="rgb(0,0,0)"/>
<rect x="18" y="15" width="3" height="3" fill="rgb(0,0,0)"/>
<rect x="18" y="18" width="3" height="3" fill="rgb(0,0,0)"/>
<rect x="18" y="21" width="3" height="3" fill="rgb(0,0,0)"/>
<rect x="18" y="48" width="3" height="3" fill="rgb(0,0,0)"/>
<rect x="18" y="51" width="3" height="3" fill="rgb(0,0,0)"/>
<rect x="18" y="54" width="3" height="3" fill="rgb(0,0,0)"/>
<rect x="18" y="57" width="3" height="3" fill="rgb(0,0,0)"/>
<rect x="21" y="3" width="3" height="3" fill="rgb(0,0,0)"/>
<rect x="21" y="6" width="3" height="3" fill="rgb(0,0,0)"/>
<rect x="21" y="9" width="3" height="3" fill="rgb(0,0,0)"/>
<rect x="21" y="12" width="3" height="3" fill="rgb(0,0,0)"/>
<rect x="21" y="15" width="3" height="3" fill="rgb(0,0,0)"/>
<rect x="21" y="18" width="3" height="3" fill="rgb(0,0,0)"/>
<rect x="21" y="21" width="3" height="3" fill="rgb(0,0,0)"/>
<rect x="21" y="24" width="3" height="3" fill="rgb(0,0,0)"/>
<rect x="21" y="27" width="3" height="3" fill="rgb(0,0,0)"/>
<rect x="21" y="30" width="3" height="3" fill="rgb(0,0,0)"/>
<rect x="21" y="33" width="3" height="3" fill="rgb(0,0,0)"/>
<rect x="21" y="36" width="3" height="3" fill="rgb(0,0,0)"/>
<rect x="21" y="39" width="3" height="3" fill="rgb(0,0,0)"/>
<rect x="21" y="42" width="3" height="3" fill="rgb(0,0,0)"/>
<rect x="21" y="45" width="3" height="3" fill="rgb(0,0,0)"/>
<rect x="21" y="48" width="3" height="3" fill="rgb(0,0,0)"/>
<rect x="21" y="57" width="3" height="3" fill="rgb(0,0,0)"/>
<rect x="21" y="60" width="3" height="3" fill="rgb(0,0,0)"/>
<rect x="21" y="63" width="3" height="3" fill="rgb(0,0,0)"/>
<rect x="21" y="66" width="3" height="3" fill="rgb(0,0,0)"/>
<rect x="21" y="69" width="3" height="3" fill="rgb(0,0,0)"/>
<rect x="21" y="72" width="3" height="3" fill="rgb(0,0,0)"/>
<rect x="21" y="75" width="3" height="3" fill="rgb(0,0,0)"/>
<rect x="21" y="78" width="3" height="3" fill="rgb(0,0,0)"/>
<rect x="21" y="81" width="3" height="3" fill="rgb(0,0,0)"/>
<rect x="21" y="84" width="3" height="3" fill="rgb(0,0,0)"/>
<rect x="21" y="87" width="3" height="3" fill="rgb(0,0,0)"/>
<rect x="21" y="90" width="3" height="3" fill="rgb(0,0,0)"/>
<rect x="24" y="6" width="3" height="3" fill="rgb(0,0,0)"/>
<rect x="24" y="9" width="3" height="3" fill="rgb(0,0,0)"/>
<rect x="24" y="12" width="3" height="3" fill="rgb(0,0,0)"/>
<rect x="24" y="15" width="3" height="3" fill="rgb(0,0,0)"/>
<rect x="24" y="18" width="3" height="3" fill="rgb(0,0,0)"/>
<rect x="24" y="21" width="3" height="3" fill="rgb(0,0,0)"/>
<rect x="24" y="24" width="3" height="3" fill="rgb(0,0,0)"/>
<rect x="24" y="27" width="3" height="3" fill="rgb(0,0,0)"/>
<rect x="24" y="30" width="3" height="3" fill="rgb(0,0,0)"/>
<rect x="24" y="33" width="3" height="3" fill="rgb(0,0,0)"/>
<rect x="24" y="36" width="3" height="3" fill="rgb(0,0,0)"/>
<rect x="24" y="39" width="3" height="3" fill="rgb(0,0,0)"/>
<rect x="24" y="42" width="3" height="3" fill="rgb(0,0,0)"/>
<rect x="24" y="45" width="3" height="3" fill="rgb(0,0,0)"/>
<rect x="24" y="48" width="3" height="3" fill="rgb(0,0,0)"/>
<rect x="24" y="51" width="3" height="3" fill="rgb(0,0,0)"/>
</svg>