<svg xmlns="http://www.w3.org/2000/svg" width="103.8" height="100.0" viewBox="-51 -48 114 110">
<g fill="none" stroke="black" stroke-width="3.5503%" transform="translate(0, 14.4204) scale(0.1408, -0.1408)">
<line x1="0" y1="0" x2="40" y2="0" />
<line x1="40" y1="0" x2="80" y2="0" />
<line x1="80" y1="0" x2="119" y2="7" />
<line x1="119" y1="7" x2="158" y2="-3" />
<line x1="158" y1="-3" x2="196" y2="10" />
<line x1="196" y1="10" x2="230" y2="-10" />
<line x1="230" y1="-10" x2="265" y2="10" />
<line x1="265" y1="10" x2="293" y2="-18" />
<line x1="293" y1="-18" x2="324" y2="8" />
<line x1="324" y1="8" x2="344" y2="-27" />
<line x1="344" y1="-27" x2="370" y2="4" />
<line x1="370" y1="4" x2="380" y2="-35" />
<line x1="380" y1="-35" x2="400" y2="-0" />
<line x1="400" y1="-0" x2="400" y2="-40" />
<line x1="400" y1="-40" x2="414" y2="-3" />
<line x1="414" y1="-3" x2="403" y2="-41" />
<line x1="403" y1="-41" x2="410" y2="-2" />
<line x1="410" y1="-2" x2="390" y2="-37" />
<line x1="390" y1="-37" x2="390" y2="3" />
<line x1="390" y1="3" x2="362" y2="-25" />
<line x1="362" y1="-25" x2="355" y2="15" />
<line x1="355" y1="15" x2="320" y2="-5" />
<line x1="320" y1="-5" x2="307" y2="32" />
<line x1="307" y1="32" x2="268" y2="22" />
<line x1="268" y1="22" x2="248" y2="56" />
<line x1="248" y1="56" x2="208" y2="56" />
<line x1="208" y1="56" x2="182" y2="87" />
<line x1="182" y1="87" x2="144" y2="97" />
<line x1="144" y1="97" x2="113" y2="123" />
<line x1="113" y1="123" x2="78" y2="143" />
<line x1="78" y1="143" x2="44" y2="163" />
<line x1="44" y1="163" x2="15" y2="191" />
<line x1="15" y1="191" x2="-22" y2="205" />
<line x1="-22" y1="205" x2="-42" y2="240" />
<line x1="-42" y1="240" x2="-82" y2="247" />
<line x1="-82" y1="247" x2="-92" y2="285" />
<line x1="-92" y1="285" x2="-132" y2="285" />
<line x1="-132" y1="285" x2="-132" y2="325" />
<line x1="-132" y1="325" x2="-171" y2="318" />
<line x1="-171" y1="318" x2="-161" y2="357" />
<line x1="-161" y1="357" x2="-199" y2="343" />
<line x1="-199" y1="343" x2="-179" y2="378" />
<line x1="-179" y1="378" x2="-213" y2="358" />
<line x1="-213" y1="358" x2="-185" y2="386" />
<line x1="-185" y1="386" x2="-216" y2="361" />
<line x1="-216" y1="361" x2="-181" y2="381" />
<line x1="-181" y1="381" x2="-207" y2="350" />
<line x1="-207" y1="350" x2="-168" y2="360" />
<line x1="-168" y1="360" x2="-188" y2="326" />
<line x1="-188" y1="326" x2="-148" y2="326" />
<line x1="-148" y1="326" x2="-162" y2="288" />
<line x1="-162" y1="288" x2="-123" y2="278" />
<line x1="-123" y1="278" x2="-130" y2="238" />
<line x1="-130" y1="238" x2="-95" y2="218" />
<line x1="-95" y1="218" x2="-95" y2="178" />
<line x1="-95" y1="178" x2="-67" y2="150" />
<line x1="-67" y1="150" x2="-60" y2="111" />
<line x1="-60" y1="111" x2="-40" y2="76" />
<line x1="-40" y1="76" x2="-26" y2="38" />
<line x1="-26" y1="38" x2="-16" y2="-0" />
<line x1="-16" y1="-0" x2="4" y2="-35" />
<line x1="4" y1="-35" x2="4" y2="-75" />
<line x1="4" y1="-75" x2="30" y2="-106" />
<line x1="30" y1="-106" x2="19" y2="-144" />
<line x1="19" y1="-144" x2="50" y2="-170" />
<line x1="50" y1="-170" x2="30" y2="-205" />
<line x1="30" y1="-205" x2="65" y2="-225" />
<line x1="65" y1="-225" x2="36" y2="-253" />
<line x1="36" y1="-253" x2="74" y2="-267" />
<line x1="74" y1="-267" x2="39" y2="-287" />
<line x1="39" y1="-287" x2="79" y2="-293" />
<line x1="79" y1="-293" x2="40" y2="-304" />
<line x1="40" y1="-304" x2="80" y2="-304" />
<line x1="80" y1="-304" x2="40" y2="-304" />
<line x1="40" y1="-304" x2="79" y2="-297" />
<line x1="79" y1="-297" x2="41" y2="-287" />
<line x1="41" y1="-287" x2="78" y2="-273" />
<line x1="78" y1="-273" x2="44" y2="-253" />
<line x1="44" y1="-253" x2="78" y2="-233" />
<line x1="78" y1="-233" x2="50" y2="-205" />
<line x1="50" y1="-205" x2="81" y2="-179" />
<line x1="81" y1="-179" x2="61" y2="-144" />
<line x1="61" y1="-144" x2="86" y2="-114" />
<line x1="86" y1="-114" x2="76" y2="-75" />
<line x1="76" y1="-75" x2="96" y2="-40" />
<line x1="96" y1="-40" x2="96" y2="-0" />
<line x1="96" y1="-0" x2="110" y2="37" />
<line x1="110" y1="37" x2="120" y2="76" />
<line x1="120" y1="76" x2="127" y2="115" />
<line x1="127" y1="115" x2="147" y2="150" />
<line x1="147" y1="150" x2="147" y2="190" />
<line x1="147" y1="190" x2="175" y2="218" />
<line x1="175" y1="218" x2="168" y2="258" />
<line x1="168" y1="258" x2="203" y2="278" />
<line x1="203" y1="278" x2="189" y2="315" />
<line x1="189" y1="315" x2="228" y2="326" />
<line x1="228" y1="326" x2="208" y2="360" />
<line x1="208" y1="360" x2="248" y2="360" />
<line x1="248" y1="360" x2="222" y2="391" />
<line x1="222" y1="391" x2="261" y2="381" />
<line x1="261" y1="381" x2="230" y2="406" />
<line x1="230" y1="406" x2="265" y2="386" />
<line x1="265" y1="386" x2="230" y2="406" />
<line x1="230" y1="406" x2="259" y2="378" />
<line x1="259" y1="378" x2="221" y2="392" />
<line x1="221" y1="392" x2="241" y2="357" />
<line x1="241" y1="357" x2="202" y2="364" />
<line x1="202" y1="364" x2="212" y2="325" />
<line x1="212" y1="325" x2="172" y2="325" />
<line x1="172" y1="325" x2="172" y2="285" />
<line x1="172" y1="285" x2="133" y2="278" />
<line x1="133" y1="278" x2="122" y2="240" />
<line x1="122" y1="240" x2="85" y2="226" />
<line x1="85" y1="226" x2="65" y2="191" />
<line x1="65" y1="191" x2="30" y2="171" />
<line x1="30" y1="171" x2="2" y2="143" />
<line x1="2" y1="143" x2="-29" y2="117" />
<line x1="-29" y1="117" x2="-64" y2="97" />
<line x1="-64" y1="97" x2="-89" y2="67" />
<line x1="-89" y1="67" x2="-128" y2="56" />
<line x1="-128" y1="56" x2="-148" y2="22" />
<line x1="-148" y1="22" x2="-188" y2="22" />
<line x1="-188" y1="22" x2="-202" y2="-16" />
<line x1="-202" y1="-16" x2="-240" y2="-5" />
<line x1="-240" y1="-5" x2="-247" y2="-45" />
<line x1="-247" y1="-45" x2="-282" y2="-25" />
<line x1="-282" y1="-25" x2="-282" y2="-65" />
<line x1="-282" y1="-65" x2="-310" y2="-37" />
<line x1="-310" y1="-37" x2="-303" y2="-76" />
<line x1="-303" y1="-76" x2="-323" y2="-41" />
<line x1="-323" y1="-41" x2="-310" y2="-79" />
<line x1="-310" y1="-79" x2="-320" y2="-40" />
<line x1="-320" y1="-40" x2="-300" y2="-75" />
<line x1="-300" y1="-75" x2="-300" y2="-35" />
<line x1="-300" y1="-35" x2="-274" y2="-66" />
<line x1="-274" y1="-66" x2="-264" y2="-27" />
<line x1="-264" y1="-27" x2="-233" y2="-53" />
<line x1="-233" y1="-53" x2="-213" y2="-18" />
<line x1="-213" y1="-18" x2="-179" y2="-38" />
<line x1="-179" y1="-38" x2="-150" y2="-10" />
<line x1="-150" y1="-10" x2="-113" y2="-23" />
<line x1="-113" y1="-23" x2="-78" y2="-3" />
<line x1="-78" y1="-3" x2="-39" y2="-10" />
<line x1="-39" y1="-10" x2="-0" y2="0" />
<line x1="-0" y1="0" x2="40" y2="-0" />
<line x1="40" y1="-0" x2="80" y2="0" />
<line x1="80" y1="0" x2="119" y2="7" />
<line x1="119" y1="7" x2="158" y2="-3" />
<line x1="158" y1="-3" x2="196" y2="10" />
<line x1="196" y1="10" x2="230" y2="-10" />
<line x1="230" y1="-10" x2="265" y2="10" />
<line x1="265" y1="10" x2="293" y2="-18" />
</g>
</svg>