<svg xmlns="http://www.w3.org/2000/svg" width="110.9" height="100.0" viewBox="-65.04 -29.00 120.85 110.00">
<g fill="none" stroke="black" stroke-width="0.1083%" transform="translate(0, 52.0000) scale(4.6188, -4.6188)">
<line x1="0.00" y1="0.00" x2="1.00" y2="0.00" />
<line x1="1.00" y1="0.00" x2="2.00" y2="1.73" />
<line x1="2.00" y1="1.73" x2="0.50" y2="4.33" />
<line x1="0.50" y1="4.33" x2="-3.50" y2="4.33" />
<line x1="-3.50" y1="4.33" x2="-6.00" y2="0.00" />
<line x1="-6.00" y1="0.00" x2="-3.00" y2="-5.20" />
<line x1="-3.00" y1="-5.20" x2="4.00" y2="-5.20" />
<line x1="4.00" y1="-5.20" x2="8.00" y2="1.73" />
<line x1="8.00" y1="1.73" x2="3.50" y2="9.53" />
<line x1="3.50" y1="9.53" x2="-6.50" y2="9.53" />
<line x1="-6.50" y1="9.53" x2="-7.00" y2="8.66" />
<line x1="-7.00" y1="8.66" x2="-6.00" y2="6.93" />
<line x1="-6.00" y1="6.93" x2="-3.00" y2="6.93" />
<line x1="-3.00" y1="6.93" x2="-1.00" y2="10.39" />
<line x1="-1.00" y1="10.39" x2="-3.50" y2="14.72" />
<line x1="-3.50" y1="14.72" x2="-9.50" y2="14.72" />
<line x1="-9.50" y1="14.72" x2="-13.00" y2="8.66" />
<line x1="-13.00" y1="8.66" x2="-9.00" y2="1.73" />
<line x1="-9.00" y1="1.73" x2="0.00" y2="1.73" />
<line x1="0.00" y1="1.73" x2="5.00" y2="10.39" />
<line x1="5.00" y1="10.39" x2="4.50" y2="11.26" />
<line x1="4.50" y1="11.26" x2="2.50" y2="11.26" />
<line x1="2.50" y1="11.26" x2="1.00" y2="8.66" />
<line x1="1.00" y1="8.66" x2="3.00" y2="5.20" />
<line x1="3.00" y1="5.20" x2="8.00" y2="5.20" />
<line x1="8.00" y1="5.20" x2="11.00" y2="10.39" />
<line x1="11.00" y1="10.39" x2="7.50" y2="16.45" />
<line x1="7.50" y1="16.45" x2="-0.50" y2="16.45" />
<line x1="-0.50" y1="16.45" x2="-5.00" y2="8.66" />
<line x1="-5.00" y1="8.66" x2="-0.00" y2="0.00" />
</g>
</svg>