<svg xmlns="http://www.w3.org/2000/svg" width="100.0" height="100.0" viewBox="-38.554 -105.000 110.000 110.000">
<g fill="none" stroke="black" stroke-width="0.0152%" transform="translate(0, -100.0000) scale(32.8926, -32.8926)">
<line x1="0.000" y1="0.000" x2="1.000" y2="0.000" />
<line x1="1.000" y1="0.000" x2="1.664" y2="-0.664" />
<line x1="1.664" y1="-0.664" x2="1.664" y2="-1.431" />
<line x1="1.664" y1="-1.431" x2="1.311" y2="-1.784" />
<line x1="1.311" y1="-1.784" x2="1.137" y2="-1.784" />
<line x1="1.137" y1="-1.784" x2="1.260" y2="-1.907" />
<line x1="1.260" y1="-1.907" x2="1.260" y2="-2.407" />
<line x1="1.260" y1="-2.407" x2="0.718" y2="-2.949" />
<line x1="0.718" y1="-2.949" x2="-0.221" y2="-2.949" />
<line x1="-0.221" y1="-2.949" x2="-0.928" y2="-2.241" />
<line x1="-0.928" y1="-2.241" x2="-0.928" y2="-1.302" />
<line x1="-0.928" y1="-1.302" x2="-0.387" y2="-0.760" />
<line x1="-0.387" y1="-0.760" x2="0.113" y2="-0.760" />
<line x1="0.113" y1="-0.760" x2="0.236" y2="-0.883" />
<line x1="0.236" y1="-0.883" x2="0.236" y2="-0.709" />
<line x1="0.236" y1="-0.709" x2="0.590" y2="-0.356" />
<line x1="0.590" y1="-0.356" x2="1.356" y2="-0.356" />
<line x1="1.356" y1="-0.356" x2="2.020" y2="-1.020" />
<line x1="2.020" y1="-1.020" x2="2.020" y2="-2.020" />
<line x1="2.020" y1="-2.020" x2="1.356" y2="-2.685" />
<line x1="1.356" y1="-2.685" x2="0.590" y2="-2.685" />
<line x1="0.590" y1="-2.685" x2="0.236" y2="-2.331" />
<line x1="0.236" y1="-2.331" x2="0.236" y2="-2.157" />
<line x1="0.236" y1="-2.157" x2="0.113" y2="-2.280" />
<line x1="0.113" y1="-2.280" x2="-0.387" y2="-2.280" />
<line x1="-0.387" y1="-2.280" x2="-0.928" y2="-1.738" />
<line x1="-0.928" y1="-1.738" x2="-0.928" y2="-0.799" />
<line x1="-0.928" y1="-0.799" x2="-0.221" y2="-0.092" />
<line x1="-0.221" y1="-0.092" x2="0.718" y2="-0.092" />
<line x1="0.718" y1="-0.092" x2="1.260" y2="-0.633" />
<line x1="1.260" y1="-0.633" x2="1.260" y2="-1.133" />
<line x1="1.260" y1="-1.133" x2="1.137" y2="-1.256" />
<line x1="1.137" y1="-1.256" x2="1.311" y2="-1.256" />
<line x1="1.311" y1="-1.256" x2="1.664" y2="-1.610" />
<line x1="1.664" y1="-1.610" x2="1.664" y2="-2.376" />
<line x1="1.664" y1="-2.376" x2="1.000" y2="-3.040" />
<line x1="1.000" y1="-3.040" x2="0.000" y2="-3.040" />
<line x1="0.000" y1="-3.040" x2="-0.664" y2="-2.376" />
<line x1="-0.664" y1="-2.376" x2="-0.664" y2="-1.610" />
<line x1="-0.664" y1="-1.610" x2="-0.311" y2="-1.256" />
<line x1="-0.311" y1="-1.256" x2="-0.137" y2="-1.256" />
<line x1="-0.137" y1="-1.256" x2="-0.260" y2="-1.133" />
<line x1="-0.260" y1="-1.133" x2="-0.260" y2="-0.633" />
<line x1="-0.260" y1="-0.633" x2="0.282" y2="-0.092" />
<line x1="0.282" y1="-0.092" x2="1.221" y2="-0.092" />
<line x1="1.221" y1="-0.092" x2="1.928" y2="-0.799" />
<line x1="1.928" y1="-0.799" x2="1.928" y2="-1.738" />
<line x1="1.928" y1="-1.738" x2="1.387" y2="-2.280" />
<line x1="1.387" y1="-2.280" x2="0.887" y2="-2.280" />
<line x1="0.887" y1="-2.280" x2="0.764" y2="-2.157" />
<line x1="0.764" y1="-2.157" x2="0.764" y2="-2.331" />
<line x1="0.764" y1="-2.331" x2="0.410" y2="-2.685" />
<line x1="0.410" y1="-2.685" x2="-0.356" y2="-2.685" />
<line x1="-0.356" y1="-2.685" x2="-1.020" y2="-2.020" />
<line x1="-1.020" y1="-2.020" x2="-1.020" y2="-1.020" />
<line x1="-1.020" y1="-1.020" x2="-0.356" y2="-0.356" />
<line x1="-0.356" y1="-0.356" x2="0.410" y2="-0.356" />
<line x1="0.410" y1="-0.356" x2="0.764" y2="-0.709" />
<line x1="0.764" y1="-0.709" x2="0.764" y2="-0.883" />
<line x1="0.764" y1="-0.883" x2="0.887" y2="-0.760" />
<line x1="0.887" y1="-0.760" x2="1.387" y2="-0.760" />
<line x1="1.387" y1="-0.760" x2="1.928" y2="-1.302" />
<line x1="1.928" y1="-1.302" x2="1.928" y2="-2.241" />
<line x1="1.928" y1="-2.241" x2="1.221" y2="-2.949" />
<line x1="1.221" y1="-2.949" x2="0.282" y2="-2.949" />
<line x1="0.282" y1="-2.949" x2="-0.260" y2="-2.407" />
<line x1="-0.260" y1="-2.407" x2="-0.260" y2="-1.907" />
<line x1="-0.260" y1="-1.907" x2="-0.137" y2="-1.784" />
<line x1="-0.137" y1="-1.784" x2="-0.311" y2="-1.784" />
<line x1="-0.311" y1="-1.784" x2="-0.664" y2="-1.431" />
<line x1="-0.664" y1="-1.431" x2="-0.664" y2="-0.664" />
<line x1="-0.664" y1="-0.664" x2="0.000" y2="-0.000" />
</g>
</svg>