<svg xmlns="http://www.w3.org/2000/svg" width="100.0" height="100.0" viewBox="-55 -55 110 110">
<g fill="none" stroke="black" stroke-width="1.9319%" transform="translate(0, 0.0000) scale(0.2588, -0.2588)">
<line x1="0" y1="0" x2="100" y2="0" />
<line x1="100" y1="0" x2="150" y2="87" />
<line x1="150" y1="87" x2="100" y2="173" />
<line x1="100" y1="173" x2="0" y2="173" />
<line x1="0" y1="173" x2="-50" y2="87" />
<line x1="-50" y1="87" x2="0" y2="0" />
<line x1="0" y1="0" x2="71" y2="71" />
<line x1="71" y1="71" x2="45" y2="167" />
<line x1="45" y1="167" x2="-52" y2="193" />
<line x1="-52" y1="193" x2="-122" y2="122" />
<line x1="-122" y1="122" x2="-97" y2="26" />
<line x1="-97" y1="26" x2="-0" y2="0" />
<line x1="-0" y1="0" x2="-0" y2="100" />
<line x1="-0" y1="100" x2="-87" y2="150" />
<line x1="-87" y1="150" x2="-173" y2="100" />
<line x1="-173" y1="100" x2="-173" y2="0" />
<line x1="-173" y1="0" x2="-87" y2="-50" />
<line x1="-87" y1="-50" x2="-0" y2="0" />
<line x1="-0" y1="0" x2="-71" y2="71" />
<line x1="-71" y1="71" x2="-167" y2="45" />
<line x1="-167" y1="45" x2="-193" y2="-52" />
<line x1="-193" y1="-52" x2="-122" y2="-122" />
<line x1="-122" y1="-122" x2="-26" y2="-97" />
<line x1="-26" y1="-97" x2="-0" y2="0" />
<line x1="-0" y1="0" x2="-100" y2="0" />
<line x1="-100" y1="0" x2="-150" y2="-87" />
<line x1="-150" y1="-87" x2="-100" y2="-173" />
<line x1="-100" y1="-173" x2="-0" y2="-173" />
<line x1="-0" y1="-173" x2="50" y2="-87" />
<line x1="50" y1="-87" x2="-0" y2="0" />
<line x1="-0" y1="0" x2="-71" y2="-71" />
<line x1="-71" y1="-71" x2="-45" y2="-167" />
<line x1="-45" y1="-167" x2="52" y2="-193" />
<line x1="52" y1="-193" x2="122" y2="-122" />
<line x1="122" y1="-122" x2="97" y2="-26" />
<line x1="97" y1="-26" x2="-0" y2="0" />
<line x1="-0" y1="0" x2="-0" y2="-100" />
<line x1="-0" y1="-100" x2="87" y2="-150" />
<line x1="87" y1="-150" x2="173" y2="-100" />
<line x1="173" y1="-100" x2="173" y2="0" />
<line x1="173" y1="0" x2="87" y2="50" />
<line x1="87" y1="50" x2="-0" y2="0" />
<line x1="-0" y1="0" x2="71" y2="-71" />
<line x1="71" y1="-71" x2="167" y2="-45" />
<line x1="167" y1="-45" x2="193" y2="52" />
<line x1="193" y1="52" x2="122" y2="122" />
<line x1="122" y1="122" x2="26" y2="97" />
<line x1="26" y1="97" x2="-0" y2="-0" />
</g>
</svg>