<svg xmlns="http://www.w3.org/2000/svg" width="100.7" height="100.0" viewBox="-55.3 -54.3 110.7 110.0">
<g fill="none" stroke="black" stroke-width="1.1295%" transform="translate(0, 1.4539) scale(0.4427, -0.4427)">
<path d="M -0.0,0.0 A 57.3 57.3 0.0 0 1 57.8,56.8" />
<path d="M 57.8,56.8 A 57.3 57.3 0.0 0 1 1.0,114.6" />
<path d="M 1.0,114.6 A 57.3 57.3 0.0 0 1 -56.8,57.8" />
<path d="M -56.8,57.8 A 57.3 57.3 0.0 0 1 -0.0,-0.0" />
<path d="M -0.0,-0.0 A 57.3 57.3 0.0 0 1 7.8,80.7" />
<path d="M 7.8,80.7 A 57.3 57.3 0.0 0 1 -72.9,88.4" />
<path d="M -72.9,88.4 A 57.3 57.3 0.0 0 1 -80.7,7.8" />
<path d="M -80.7,7.8 A 57.3 57.3 0.0 0 1 -0.0,-0.0" />
<path d="M -0.0,0.0 A 57.3 57.3 0.0 0 1 -45.9,66.8" />
<path d="M -45.9,66.8 A 57.3 57.3 0.0 0 1 -112.7,20.9" />
<path d="M -112.7,20.9 A 57.3 57.3 0.0 0 1 -66.8,-45.9" />
<path d="M -66.8,-45.9 A 57.3 57.3 0.0 0 1 -0.0,-0.0" />
<path d="M -0.0,-0.0 A 57.3 57.3 0.0 0 1 -78.1,21.7" />
<path d="M -78.1,21.7 A 57.3 57.3 0.0 0 1 -99.7,-56.4" />
<path d="M -99.7,-56.4 A 57.3 57.3 0.0 0 1 -21.7,-78.1" />
<path d="M -21.7,-78.1 A 57.3 57.3 0.0 0 1 -0.0,-0.0" />
<path d="M -0.0,-0.0 A 57.3 57.3 0.0 0 1 -73.7,-33.6" />
<path d="M -73.7,-33.6 A 57.3 57.3 0.0 0 1 -40.1,-107.3" />
<path d="M -40.1,-107.3 A 57.3 57.3 0.0 0 1 33.6,-73.7" />
<path d="M 33.6,-73.7 A 57.3 57.3 0.0 0 1 -0.0,-0.0" />
<path d="M -0.0,-0.0 A 57.3 57.3 0.0 0 1 -34.9,-73.1" />
<path d="M -34.9,-73.1 A 57.3 57.3 0.0 0 1 38.3,-108.0" />
<path d="M 38.3,-108.0 A 57.3 57.3 0.0 0 1 73.1,-34.9" />
<path d="M 73.1,-34.9 A 57.3 57.3 0.0 0 1 -0.0,-0.0" />
<path d="M -0.0,-0.0 A 57.3 57.3 0.0 0 1 20.3,-78.4" />
<path d="M 20.3,-78.4 A 57.3 57.3 0.0 0 1 98.7,-58.2" />
<path d="M 98.7,-58.2 A 57.3 57.3 0.0 0 1 78.4,20.3" />
<path d="M 78.4,20.3 A 57.3 57.3 0.0 0 1 -0.0,-0.0" />
<path d="M -0.0,-0.0 A 57.3 57.3 0.0 0 1 66.0,-47.1" />
<path d="M 66.0,-47.1 A 57.3 57.3 0.0 0 1 113.0,18.9" />
<path d="M 113.0,18.9 A 57.3 57.3 0.0 0 1 47.1,66.0" />
<path d="M 47.1,66.0 A 57.3 57.3 0.0 0 1 -0.0,-0.0" />
<path d="M -0.0,-0.0 A 57.3 57.3 0.0 0 1 80.8,6.4" />
<path d="M 80.8,6.4 A 57.3 57.3 0.0 0 1 74.4,87.1" />
<path d="M 74.4,87.1 A 57.3 57.3 0.0 0 1 -6.4,80.8" />
<path d="M -6.4,80.8 A 57.3 57.3 0.0 0 1 -0.0,-0.0" />
</g>
</svg>