<svg xmlns="http://www.w3.org/2000/svg" width="87.0" height="100.0" viewBox="-48.5 -55.0 97.0 110.0">
<g fill="none" stroke="black" stroke-width="0.5729%" transform="translate(0, 0.0000) scale(0.8727, -0.8727)">
<path d="M -0.0,0.0 A 57.3 57.3 0.0 0 1 49.9,28.2" />
<path d="M 49.9,28.2 A 57.3 57.3 0.0 0 1 -0.0,0.0" />
<path d="M -0.0,-0.0 A 57.3 57.3 0.0 0 1 0.5,57.3" />
<path d="M 0.5,57.3 A 57.3 57.3 0.0 0 1 -0.0,0.0" />
<path d="M -0.0,0.0 A 57.3 57.3 0.0 0 1 -49.4,29.1" />
<path d="M -49.4,29.1 A 57.3 57.3 0.0 0 1 -0.0,0.0" />
<path d="M -0.0,0.0 A 57.3 57.3 0.0 0 1 -49.9,-28.2" />
<path d="M -49.9,-28.2 A 57.3 57.3 0.0 0 1 -0.0,0.0" />
<path d="M -0.0,0.0 A 57.3 57.3 0.0 0 1 -0.5,-57.3" />
<path d="M -0.5,-57.3 A 57.3 57.3 0.0 0 1 -0.0,0.0" />
<path d="M -0.0,0.0 A 57.3 57.3 0.0 0 1 49.4,-29.1" />
<path d="M 49.4,-29.1 A 57.3 57.3 0.0 0 1 -0.0,0.0" />
</g>
</svg>