<svg xmlns="http://www.w3.org/2000/svg" width="161.8" height="100.0" viewBox="-3 -5 172 110">
<g fill="none" stroke="black" stroke-width="2.4800%" transform="translate(0, 100.4032) scale(0.2016, -0.2016)">
<circle cx="10" cy="1" r="2" />
<circle cx="20" cy="2" r="2" />
<circle cx="30" cy="3" r="2" />
<circle cx="41" cy="4" r="2" />
<circle cx="51" cy="6" r="2" />
<circle cx="61" cy="8" r="2" />
<circle cx="71" cy="11" r="2" />
<circle cx="81" cy="13" r="2" />
<circle cx="91" cy="16" r="2" />
<circle cx="102" cy="18" r="2" />
<circle cx="112" cy="26" r="2" />
<circle cx="122" cy="28" r="2" />
<circle cx="132" cy="36" r="2" />
<circle cx="142" cy="38" r="2" />
<circle cx="152" cy="47" r="2" />
<circle cx="163" cy="48" r="2" />
<circle cx="173" cy="53" r="2" />
<circle cx="183" cy="57" r="2" />
<circle cx="193" cy="62" r="2" />
<circle cx="203" cy="69" r="2" />
<circle cx="213" cy="72" r="2" />
<circle cx="223" cy="77" r="2" />
<circle cx="234" cy="82" r="2" />
<circle cx="244" cy="87" r="2" />
<circle cx="254" cy="97" r="2" />
<circle cx="264" cy="99" r="2" />
<circle cx="274" cy="102" r="2" />
<circle cx="284" cy="106" r="2" />
<circle cx="295" cy="114" r="2" />
<circle cx="305" cy="126" r="2" />
<circle cx="315" cy="131" r="2" />
<circle cx="325" cy="138" r="2" />
<circle cx="335" cy="145" r="2" />
<circle cx="345" cy="148" r="2" />
<circle cx="356" cy="155" r="2" />
<circle cx="366" cy="175" r="2" />
<circle cx="376" cy="177" r="2" />
<circle cx="386" cy="180" r="2" />
<circle cx="396" cy="182" r="2" />
<circle cx="406" cy="189" r="2" />
<circle cx="417" cy="197" r="2" />
<circle cx="427" cy="206" r="2" />
<circle cx="437" cy="209" r="2" />
<circle cx="447" cy="219" r="2" />
<circle cx="457" cy="221" r="2" />
<circle cx="467" cy="236" r="2" />
<circle cx="477" cy="238" r="2" />
<circle cx="488" cy="241" r="2" />
<circle cx="498" cy="243" r="2" />
<circle cx="508" cy="253" r="2" />
<circle cx="518" cy="258" r="2" />
<circle cx="528" cy="260" r="2" />
<circle cx="538" cy="273" r="2" />
<circle cx="549" cy="282" r="2" />
<circle cx="559" cy="309" r="2" />
<circle cx="569" cy="316" r="2" />
<circle cx="579" cy="319" r="2" />
<circle cx="589" cy="324" r="2" />
<circle cx="599" cy="339" r="2" />
<circle cx="610" cy="341" r="2" />
<circle cx="620" cy="356" r="2" />
<circle cx="630" cy="358" r="2" />
<circle cx="640" cy="363" r="2" />
<circle cx="650" cy="370" r="2" />
<circle cx="660" cy="382" r="2" />
<circle cx="670" cy="390" r="2" />
<circle cx="681" cy="400" r="2" />
<circle cx="691" cy="402" r="2" />
<circle cx="701" cy="409" r="2" />
<circle cx="711" cy="412" r="2" />
<circle cx="721" cy="414" r="2" />
<circle cx="731" cy="429" r="2" />
<circle cx="742" cy="431" r="2" />
<circle cx="752" cy="434" r="2" />
<circle cx="762" cy="441" r="2" />
<circle cx="772" cy="451" r="2" />
<circle cx="782" cy="456" r="2" />
<circle cx="792" cy="483" r="2" />
<circle cx="803" cy="485" r="2" />
<circle cx="813" cy="497" r="2" />
</g>
</svg>