<svg xmlns="http://www.w3.org/2000/svg" width="161.8" height="100.0" viewBox="-3.349 -4.902 171.803 110.000">
<g fill="none" stroke="black" stroke-width="0.0049%" transform="translate(0, 100.1953) scale(101.4634, -101.4634)">
<polyline points="0.016,0.904 0.033,0.879 0.049,0.904 0.065,0.966 0.081,0.033 0.098,0.220 0.114,0.483 0.130,0.658 0.146,0.374 0.163,0.643 0.179,0.458 0.195,0.239 0.212,0.518 0.228,0.969 0.244,0.230 0.260,0.968 0.277,0.211 0.293,0.628 0.309,0.898 0.325,0.399 0.342,0.987 0.358,0.020 0.374,0.612 0.391,0.709 0.407,0.478 0.423,0.943 0.439,0.866 0.456,0.054 0.472,0.119 0.488,0.802 0.504,0.093 0.521,0.744 0.537,0.602 0.553,0.541 0.570,0.006 0.586,0.407 0.602,0.099 0.618,0.060 0.635,0.688 0.651,0.865 0.667,0.422 0.683,0.098 0.700,0.913 0.716,0.765 0.732,0.203 0.749,0.515 0.765,0.012 0.781,0.742 0.797,0.078 0.814,0.089 0.830,0.667 0.846,0.745 0.862,0.211 0.879,0.156 0.895,0.434 0.911,0.914 0.928,0.526 0.944,0.698 0.960,0.629 0.976,0.072 0.993,0.212 1.009,0.260 1.025,0.477 1.041,0.365 1.058,0.091 1.074,0.126 1.090,0.268 1.107,0.908 1.123,0.858 1.139,0.306 1.155,0.798 1.172,0.593 1.188,0.129 1.204,0.084 1.220,0.413 1.237,0.743 1.253,0.255 1.269,0.909 1.286,0.510 1.302,0.001 1.318,0.202 1.334,0.861 1.351,0.688 1.367,0.003 1.383,0.369 1.399,0.730 1.416,0.705 1.432,0.662 1.448,0.634 1.465,0.962 1.481,0.770 1.497,0.549 1.513,0.366 1.530,0.675 1.546,0.420 1.562,0.372 1.578,0.760 1.595,0.971 1.611,0.958" />
</g>
</svg>