<svg xmlns="http://www.w3.org/2000/svg" width="161.8" height="100.0" viewBox="-3.41 -5.00 171.80 110.00">
<g fill="none" stroke="black" stroke-width="0.0550%" transform="translate(0, 100.0000) scale(9.0909, -9.0909)">
<line x1="0.52" y1="0.00" x2="0.52" y2="1.00" />
<line x1="0.87" y1="0.00" x2="0.87" y2="1.00" />
<line x1="1.05" y1="0.00" x2="1.05" y2="2.00" />
<line x1="1.40" y1="0.00" x2="1.40" y2="1.00" />
<line x1="1.57" y1="0.00" x2="1.57" y2="2.00" />
<line x1="1.92" y1="0.00" x2="1.92" y2="3.00" />
<line x1="2.09" y1="0.00" x2="2.09" y2="1.00" />
<line x1="2.27" y1="0.00" x2="2.27" y2="2.00" />
<line x1="2.62" y1="0.00" x2="2.62" y2="3.00" />
<line x1="2.79" y1="0.00" x2="2.79" y2="1.00" />
<line x1="2.97" y1="0.00" x2="2.97" y2="4.00" />
<line x1="3.14" y1="0.00" x2="3.14" y2="2.00" />
<line x1="3.49" y1="0.00" x2="3.49" y2="3.00" />
<line x1="3.66" y1="0.00" x2="3.66" y2="1.00" />
<line x1="3.84" y1="0.00" x2="3.84" y2="4.00" />
<line x1="4.01" y1="0.00" x2="4.01" y2="2.00" />
<line x1="4.36" y1="0.00" x2="4.36" y2="5.00" />
<line x1="4.54" y1="0.00" x2="4.54" y2="3.00" />
<line x1="4.71" y1="0.00" x2="4.71" y2="1.00" />
<line x1="4.89" y1="0.00" x2="4.89" y2="4.00" />
<line x1="5.06" y1="0.00" x2="5.06" y2="2.00" />
<line x1="5.41" y1="0.00" x2="5.41" y2="5.00" />
<line x1="5.58" y1="0.00" x2="5.58" y2="3.00" />
<line x1="5.76" y1="0.00" x2="5.76" y2="1.00" />
<line x1="5.93" y1="0.00" x2="5.93" y2="6.00" />
<line x1="6.11" y1="0.00" x2="6.11" y2="4.00" />
<line x1="6.28" y1="0.00" x2="6.28" y2="2.00" />
<line x1="6.63" y1="0.00" x2="6.63" y2="5.00" />
<line x1="6.81" y1="0.00" x2="6.81" y2="3.00" />
<line x1="6.98" y1="0.00" x2="6.98" y2="1.00" />
<line x1="7.15" y1="0.00" x2="7.15" y2="6.00" />
<line x1="7.33" y1="0.00" x2="7.33" y2="4.00" />
<line x1="7.50" y1="0.00" x2="7.50" y2="2.00" />
<line x1="7.85" y1="0.00" x2="7.85" y2="7.00" />
<line x1="8.03" y1="0.00" x2="8.03" y2="5.00" />
<line x1="8.20" y1="0.00" x2="8.20" y2="3.00" />
<line x1="8.38" y1="0.00" x2="8.38" y2="1.00" />
<line x1="8.55" y1="0.00" x2="8.55" y2="6.00" />
<line x1="8.72" y1="0.00" x2="8.72" y2="4.00" />
<line x1="8.90" y1="0.00" x2="8.90" y2="2.00" />
<line x1="9.25" y1="0.00" x2="9.25" y2="7.00" />
<line x1="9.42" y1="0.00" x2="9.42" y2="5.00" />
<line x1="9.60" y1="0.00" x2="9.60" y2="3.00" />
<line x1="9.77" y1="0.00" x2="9.77" y2="1.00" />
<line x1="9.95" y1="0.00" x2="9.95" y2="8.00" />
<line x1="10.12" y1="0.00" x2="10.12" y2="6.00" />
<line x1="10.30" y1="0.00" x2="10.30" y2="4.00" />
<line x1="10.47" y1="0.00" x2="10.47" y2="2.00" />
<line x1="10.82" y1="0.00" x2="10.82" y2="7.00" />
<line x1="10.99" y1="0.00" x2="10.99" y2="5.00" />
<line x1="11.17" y1="0.00" x2="11.17" y2="3.00" />
<line x1="11.34" y1="0.00" x2="11.34" y2="1.00" />
<line x1="11.52" y1="0.00" x2="11.52" y2="8.00" />
<line x1="11.69" y1="0.00" x2="11.69" y2="6.00" />
<line x1="11.87" y1="0.00" x2="11.87" y2="4.00" />
<line x1="12.04" y1="0.00" x2="12.04" y2="2.00" />
<line x1="12.39" y1="0.00" x2="12.39" y2="9.00" />
<line x1="12.56" y1="0.00" x2="12.56" y2="7.00" />
<line x1="12.74" y1="0.00" x2="12.74" y2="5.00" />
<line x1="12.91" y1="0.00" x2="12.91" y2="3.00" />
<line x1="13.09" y1="0.00" x2="13.09" y2="1.00" />
<line x1="13.26" y1="0.00" x2="13.26" y2="8.00" />
<line x1="13.44" y1="0.00" x2="13.44" y2="6.00" />
<line x1="13.61" y1="0.00" x2="13.61" y2="4.00" />
<line x1="13.79" y1="0.00" x2="13.79" y2="2.00" />
<line x1="14.13" y1="0.00" x2="14.13" y2="9.00" />
<line x1="14.31" y1="0.00" x2="14.31" y2="7.00" />
<line x1="14.48" y1="0.00" x2="14.48" y2="5.00" />
<line x1="14.66" y1="0.00" x2="14.66" y2="3.00" />
<line x1="14.83" y1="0.00" x2="14.83" y2="1.00" />
<line x1="15.01" y1="0.00" x2="15.01" y2="10.00" />
<line x1="15.18" y1="0.00" x2="15.18" y2="8.00" />
<line x1="15.36" y1="0.00" x2="15.36" y2="6.00" />
<line x1="15.53" y1="0.00" x2="15.53" y2="4.00" />
<line x1="15.70" y1="0.00" x2="15.70" y2="2.00" />
<line x1="16.05" y1="0.00" x2="16.05" y2="9.00" />
<line x1="16.23" y1="0.00" x2="16.23" y2="7.00" />
<line x1="16.40" y1="0.00" x2="16.40" y2="5.00" />
<line x1="16.58" y1="0.00" x2="16.58" y2="3.00" />
<line x1="16.75" y1="0.00" x2="16.75" y2="1.00" />
<line x1="16.93" y1="0.00" x2="16.93" y2="10.00" />
<line x1="17.10" y1="0.00" x2="17.10" y2="8.00" />
<line x1="17.27" y1="0.00" x2="17.27" y2="6.00" />
<line x1="17.45" y1="0.00" x2="17.45" y2="4.00" />
<line x1="17.62" y1="0.00" x2="17.62" y2="2.00" />
<line x1="17.97" y1="0.00" x2="17.97" y2="11.00" />
</g>
</svg>
