<svg xmlns="http://www.w3.org/2000/svg" width="89.4" height="100.0" viewBox="-49.721 -55.000 99.443 110.000">
<g fill="none" stroke="black" stroke-width="0.0095%" transform="translate(0, 0.0000) scale(52.5731, -52.5731)">
<polygon points="0.000,0.951 0.263,0.425 -0.688,0.425" />
<polygon points="0.000,0.951 -0.688,0.425 -0.688,0.425" />
<polygon points="0.000,0.951 -0.688,0.425 0.263,0.425" />
<polygon points="0.000,0.951 0.263,0.425 0.851,0.425" />
<polygon points="0.000,0.951 0.851,0.425 0.263,0.425" />
<polygon points="0.688,-0.425 -0.263,-0.425 0.000,-0.951" />
<polygon points="0.688,-0.425 0.688,-0.425 0.000,-0.951" />
<polygon points="-0.263,-0.425 0.688,-0.425 0.000,-0.951" />
<polygon points="-0.851,-0.425 -0.263,-0.425 0.000,-0.951" />
<polygon points="-0.263,-0.425 -0.851,-0.425 0.000,-0.951" />
<polygon points="0.263,0.425 -0.263,-0.425 -0.688,0.425" />
<polygon points="-0.688,0.425 -0.851,-0.425 -0.688,0.425" />
<polygon points="-0.688,0.425 -0.263,-0.425 0.263,0.425" />
<polygon points="0.263,0.425 0.688,-0.425 0.851,0.425" />
<polygon points="0.851,0.425 0.688,-0.425 0.263,0.425" />
<polygon points="0.688,-0.425 0.263,0.425 -0.263,-0.425" />
<polygon points="0.688,-0.425 0.851,0.425 0.688,-0.425" />
<polygon points="-0.263,-0.425 0.263,0.425 0.688,-0.425" />
<polygon points="-0.851,-0.425 -0.688,0.425 -0.263,-0.425" />
<polygon points="-0.263,-0.425 -0.688,0.425 -0.851,-0.425" />
</g>
</svg>