<svg xmlns="http://www.w3.org/2000/svg" width="97.5" height="100.0" viewBox="-31.90 -23.15 107.55 110.00">
<g fill="none" stroke="black" stroke-width="0.1102%" transform="translate(0, 63.6950) scale(4.5381, -4.5381)">
<polyline points="0.57,-0.25 0.13,-0.50 -0.30,-0.75 -0.73,-1.00 -1.17,-1.25 -1.60,-1.50 -2.03,-1.75 -2.46,-2.00 -2.90,-2.25 -3.33,-2.50 -3.76,-2.75 -4.20,-3.00 -4.63,-3.25 -5.06,-3.50 -5.50,-3.75 -5.93,-4.00" />
<polyline points="1.57,-0.25 1.13,-0.09 0.70,0.07 0.27,0.23 -0.17,0.39 -0.60,0.54 -1.03,0.70 -1.46,0.86 -1.90,0.61 -2.33,-0.05 -2.76,-0.71 -3.20,-1.36 -3.63,-2.02 -4.06,-2.68 -4.50,-3.34 -4.93,-4.00" />
<polyline points="2.57,-0.25 2.13,0.32 1.70,0.89 1.27,1.45 0.83,2.02 0.40,2.59 -0.03,3.16 -0.46,3.72 -0.90,3.47 -1.33,2.41 -1.76,1.34 -2.20,0.27 -2.63,-0.80 -3.06,-1.86 -3.50,-2.93 -3.93,-4.00" />
<polyline points="3.57,-0.25 3.13,0.73 2.70,1.70 2.27,2.68 1.83,3.66 1.40,4.63 0.97,5.61 0.54,6.59 0.10,6.34 -0.33,4.86 -0.76,3.38 -1.20,1.91 -1.63,0.43 -2.06,-1.05 -2.50,-2.52 -2.93,-4.00" />
<polyline points="4.57,-0.25 4.13,1.14 3.70,2.52 3.27,3.91 2.83,5.29 2.40,6.68 1.97,8.06 1.54,9.45 1.10,9.20 0.67,7.31 0.24,5.43 -0.20,3.54 -0.63,1.66 -1.06,-0.23 -1.50,-2.11 -1.93,-4.00" />
<polyline points="5.57,-0.25 5.13,1.54 4.70,3.34 4.27,5.13 3.83,6.93 3.40,8.72 2.97,10.52 2.54,12.31 2.10,12.06 1.67,9.77 1.24,7.47 0.80,5.18 0.37,2.88 -0.06,0.59 -0.50,-1.71 -0.93,-4.00" />
<polyline points="6.57,-0.25 6.13,1.95 5.70,4.16 5.27,6.36 4.83,8.56 4.40,10.77 3.97,12.97 3.54,15.17 3.10,14.92 2.67,12.22 2.24,9.52 1.80,6.81 1.37,4.11 0.94,1.41 0.50,-1.30 0.07,-4.00" />
<polyline points="7.57,-0.25 7.13,2.36 6.70,4.97 6.27,7.59 5.83,10.20 5.40,12.81 4.97,15.42 4.54,18.04 4.10,17.79 3.67,14.67 3.24,11.56 2.80,8.45 2.37,5.34 1.94,2.22 1.50,-0.89 1.07,-4.00" />
<polyline points="8.57,-0.25 8.13,2.36 7.70,4.97 7.27,7.59 6.83,10.20 6.40,12.81 5.97,15.42 5.54,18.04 5.10,17.79 4.67,14.67 4.24,11.56 3.80,8.45 3.37,5.34 2.94,2.22 2.50,-0.89 2.07,-4.00" />
<polyline points="9.57,-0.25 9.13,1.95 8.70,4.16 8.27,6.36 7.83,8.56 7.40,10.77 6.97,12.97 6.54,15.17 6.10,14.92 5.67,12.22 5.24,9.52 4.80,6.81 4.37,4.11 3.94,1.41 3.50,-1.30 3.07,-4.00" />
<polyline points="10.57,-0.25 10.13,1.54 9.70,3.34 9.27,5.13 8.83,6.93 8.40,8.72 7.97,10.52 7.54,12.31 7.10,12.06 6.67,9.77 6.24,7.47 5.80,5.18 5.37,2.88 4.94,0.59 4.50,-1.71 4.07,-4.00" />
<polyline points="11.57,-0.25 11.13,1.14 10.70,2.52 10.27,3.91 9.83,5.29 9.40,6.68 8.97,8.06 8.54,9.45 8.10,9.20 7.67,7.31 7.24,5.43 6.80,3.54 6.37,1.66 5.94,-0.23 5.50,-2.11 5.07,-4.00" />
<polyline points="12.57,-0.25 12.13,0.73 11.70,1.70 11.27,2.68 10.83,3.66 10.40,4.63 9.97,5.61 9.54,6.59 9.10,6.34 8.67,4.86 8.24,3.38 7.80,1.91 7.37,0.43 6.94,-1.05 6.50,-2.52 6.07,-4.00" />
<polyline points="13.57,-0.25 13.13,0.32 12.70,0.89 12.27,1.45 11.83,2.02 11.40,2.59 10.97,3.16 10.54,3.72 10.10,3.47 9.67,2.41 9.24,1.34 8.80,0.27 8.37,-0.80 7.94,-1.86 7.50,-2.93 7.07,-4.00" />
<polyline points="14.57,-0.25 14.13,-0.09 13.70,0.07 13.27,0.23 12.83,0.39 12.40,0.54 11.97,0.70 11.54,0.86 11.10,0.61 10.67,-0.05 10.24,-0.71 9.80,-1.36 9.37,-2.02 8.94,-2.68 8.50,-3.34 8.07,-4.00" />
<polyline points="15.57,-0.25 15.13,-0.50 14.70,-0.75 14.27,-1.00 13.83,-1.25 13.40,-1.50 12.97,-1.75 12.54,-2.00 12.10,-2.25 11.67,-2.50 11.24,-2.75 10.80,-3.00 10.37,-3.25 9.94,-3.50 9.50,-3.75 9.07,-4.00" />
<polyline points="0.57,-0.25 1.57,-0.25 2.57,-0.25 3.57,-0.25 4.57,-0.25 5.57,-0.25 6.57,-0.25 7.57,-0.25 8.57,-0.25 9.57,-0.25 10.57,-0.25 11.57,-0.25 12.57,-0.25 13.57,-0.25 14.57,-0.25 15.57,-0.25" />
<polyline points="0.13,-0.50 1.13,-0.09 2.13,0.32 3.13,0.73 4.13,1.14 5.13,1.54 6.13,1.95 7.13,2.36 8.13,2.36 9.13,1.95 10.13,1.54 11.13,1.14 12.13,0.73 13.13,0.32 14.13,-0.09 15.13,-0.50" />
<polyline points="-0.30,-0.75 0.70,0.07 1.70,0.89 2.70,1.70 3.70,2.52 4.70,3.34 5.70,4.16 6.70,4.97 7.70,4.97 8.70,4.16 9.70,3.34 10.70,2.52 11.70,1.70 12.70,0.89 13.70,0.07 14.70,-0.75" />
<polyline points="-0.73,-1.00 0.27,0.23 1.27,1.45 2.27,2.68 3.27,3.91 4.27,5.13 5.27,6.36 6.27,7.59 7.27,7.59 8.27,6.36 9.27,5.13 10.27,3.91 11.27,2.68 12.27,1.45 13.27,0.23 14.27,-1.00" />
<polyline points="-1.17,-1.25 -0.17,0.39 0.83,2.02 1.83,3.66 2.83,5.29 3.83,6.93 4.83,8.56 5.83,10.20 6.83,10.20 7.83,8.56 8.83,6.93 9.83,5.29 10.83,3.66 11.83,2.02 12.83,0.39 13.83,-1.25" />
<polyline points="-1.60,-1.50 -0.60,0.54 0.40,2.59 1.40,4.63 2.40,6.68 3.40,8.72 4.40,10.77 5.40,12.81 6.40,12.81 7.40,10.77 8.40,8.72 9.40,6.68 10.40,4.63 11.40,2.59 12.40,0.54 13.40,-1.50" />
<polyline points="-2.03,-1.75 -1.03,0.70 -0.03,3.16 0.97,5.61 1.97,8.06 2.97,10.52 3.97,12.97 4.97,15.42 5.97,15.42 6.97,12.97 7.97,10.52 8.97,8.06 9.97,5.61 10.97,3.16 11.97,0.70 12.97,-1.75" />
<polyline points="-2.46,-2.00 -1.46,0.86 -0.46,3.72 0.54,6.59 1.54,9.45 2.54,12.31 3.54,15.17 4.54,18.04 5.54,18.04 6.54,15.17 7.54,12.31 8.54,9.45 9.54,6.59 10.54,3.72 11.54,0.86 12.54,-2.00" />
<polyline points="-2.90,-2.25 -1.90,0.61 -0.90,3.47 0.10,6.34 1.10,9.20 2.10,12.06 3.10,14.92 4.10,17.79 5.10,17.79 6.10,14.92 7.10,12.06 8.10,9.20 9.10,6.34 10.10,3.47 11.10,0.61 12.10,-2.25" />
<polyline points="-3.33,-2.50 -2.33,-0.05 -1.33,2.41 -0.33,4.86 0.67,7.31 1.67,9.77 2.67,12.22 3.67,14.67 4.67,14.67 5.67,12.22 6.67,9.77 7.67,7.31 8.67,4.86 9.67,2.41 10.67,-0.05 11.67,-2.50" />
<polyline points="-3.76,-2.75 -2.76,-0.71 -1.76,1.34 -0.76,3.38 0.24,5.43 1.24,7.47 2.24,9.52 3.24,11.56 4.24,11.56 5.24,9.52 6.24,7.47 7.24,5.43 8.24,3.38 9.24,1.34 10.24,-0.71 11.24,-2.75" />
<polyline points="-4.20,-3.00 -3.20,-1.36 -2.20,0.27 -1.20,1.91 -0.20,3.54 0.80,5.18 1.80,6.81 2.80,8.45 3.80,8.45 4.80,6.81 5.80,5.18 6.80,3.54 7.80,1.91 8.80,0.27 9.80,-1.36 10.80,-3.00" />
<polyline points="-4.63,-3.25 -3.63,-2.02 -2.63,-0.80 -1.63,0.43 -0.63,1.66 0.37,2.88 1.37,4.11 2.37,5.34 3.37,5.34 4.37,4.11 5.37,2.88 6.37,1.66 7.37,0.43 8.37,-0.80 9.37,-2.02 10.37,-3.25" />
<polyline points="-5.06,-3.50 -4.06,-2.68 -3.06,-1.86 -2.06,-1.05 -1.06,-0.23 -0.06,0.59 0.94,1.41 1.94,2.22 2.94,2.22 3.94,1.41 4.94,0.59 5.94,-0.23 6.94,-1.05 7.94,-1.86 8.94,-2.68 9.94,-3.50" />
<polyline points="-5.50,-3.75 -4.50,-3.34 -3.50,-2.93 -2.50,-2.52 -1.50,-2.11 -0.50,-1.71 0.50,-1.30 1.50,-0.89 2.50,-0.89 3.50,-1.30 4.50,-1.71 5.50,-2.11 6.50,-2.52 7.50,-2.93 8.50,-3.34 9.50,-3.75" />
<polyline points="-5.93,-4.00 -4.93,-4.00 -3.93,-4.00 -2.93,-4.00 -1.93,-4.00 -0.93,-4.00 0.07,-4.00 1.07,-4.00 2.07,-4.00 3.07,-4.00 4.07,-4.00 5.07,-4.00 6.07,-4.00 7.07,-4.00 8.07,-4.00 9.07,-4.00" />
</g>
</svg>