<svg xmlns="http://www.w3.org/2000/svg" width="161.8" height="100.0" viewBox="-4 -5 172 110">
<g fill="none" stroke="black" stroke-width="2.8750%" transform="translate(0, 100.3478) scale(0.1739, -0.1739)">
<circle cx="4" cy="1" r="3" />
<circle cx="7" cy="3" r="3" />
<circle cx="11" cy="4" r="3" />
<circle cx="15" cy="5" r="3" />
<circle cx="19" cy="6" r="3" />
<circle cx="22" cy="12" r="3" />
<circle cx="26" cy="8" r="3" />
<circle cx="30" cy="9" r="3" />
<circle cx="34" cy="10" r="3" />
<circle cx="37" cy="18" r="3" />
<circle cx="41" cy="12" r="3" />
<circle cx="45" cy="20" r="3" />
<circle cx="49" cy="14" r="3" />
<circle cx="52" cy="24" r="3" />
<circle cx="56" cy="24" r="3" />
<circle cx="60" cy="17" r="3" />
<circle cx="64" cy="18" r="3" />
<circle cx="67" cy="30" r="3" />
<circle cx="71" cy="20" r="3" />
<circle cx="75" cy="30" r="3" />
<circle cx="78" cy="32" r="3" />
<circle cx="82" cy="36" r="3" />
<circle cx="86" cy="24" r="3" />
<circle cx="90" cy="36" r="3" />
<circle cx="93" cy="26" r="3" />
<circle cx="97" cy="42" r="3" />
<circle cx="101" cy="28" r="3" />
<circle cx="105" cy="40" r="3" />
<circle cx="108" cy="30" r="3" />
<circle cx="112" cy="72" r="3" />
<circle cx="116" cy="32" r="3" />
<circle cx="120" cy="33" r="3" />
<circle cx="123" cy="48" r="3" />
<circle cx="127" cy="54" r="3" />
<circle cx="131" cy="48" r="3" />
<circle cx="135" cy="50" r="3" />
<circle cx="138" cy="38" r="3" />
<circle cx="142" cy="60" r="3" />
<circle cx="146" cy="56" r="3" />
<circle cx="149" cy="54" r="3" />
<circle cx="153" cy="42" r="3" />
<circle cx="157" cy="96" r="3" />
<circle cx="161" cy="44" r="3" />
<circle cx="164" cy="60" r="3" />
<circle cx="168" cy="60" r="3" />
<circle cx="172" cy="72" r="3" />
<circle cx="176" cy="48" r="3" />
<circle cx="179" cy="68" r="3" />
<circle cx="183" cy="50" r="3" />
<circle cx="187" cy="78" r="3" />
<circle cx="191" cy="72" r="3" />
<circle cx="194" cy="70" r="3" />
<circle cx="198" cy="54" r="3" />
<circle cx="202" cy="84" r="3" />
<circle cx="206" cy="72" r="3" />
<circle cx="209" cy="72" r="3" />
<circle cx="213" cy="80" r="3" />
<circle cx="217" cy="90" r="3" />
<circle cx="220" cy="60" r="3" />
<circle cx="224" cy="120" r="3" />
<circle cx="228" cy="62" r="3" />
<circle cx="232" cy="96" r="3" />
<circle cx="235" cy="80" r="3" />
<circle cx="239" cy="65" r="3" />
<circle cx="243" cy="84" r="3" />
<circle cx="247" cy="144" r="3" />
<circle cx="250" cy="68" r="3" />
<circle cx="254" cy="90" r="3" />
<circle cx="258" cy="96" r="3" />
<circle cx="262" cy="144" r="3" />
<circle cx="265" cy="72" r="3" />
<circle cx="269" cy="90" r="3" />
<circle cx="273" cy="74" r="3" />
<circle cx="276" cy="114" r="3" />
<circle cx="280" cy="104" r="3" />
<circle cx="284" cy="100" r="3" />
<circle cx="288" cy="96" r="3" />
<circle cx="291" cy="168" r="3" />
<circle cx="295" cy="80" r="3" />
<circle cx="299" cy="102" r="3" />
<circle cx="303" cy="82" r="3" />
<circle cx="306" cy="126" r="3" />
<circle cx="310" cy="84" r="3" />
<circle cx="314" cy="160" r="3" />
<circle cx="318" cy="108" r="3" />
<circle cx="321" cy="132" r="3" />
<circle cx="325" cy="120" r="3" />
<circle cx="329" cy="108" r="3" />
<circle cx="333" cy="90" r="3" />
<circle cx="336" cy="180" r="3" />
<circle cx="340" cy="112" r="3" />
<circle cx="344" cy="120" r="3" />
<circle cx="347" cy="128" r="3" />
<circle cx="351" cy="144" r="3" />
<circle cx="355" cy="120" r="3" />
<circle cx="359" cy="132" r="3" />
<circle cx="362" cy="98" r="3" />
<circle cx="366" cy="150" r="3" />
<circle cx="370" cy="120" r="3" />
<circle cx="374" cy="130" r="3" />
<circle cx="377" cy="102" r="3" />
<circle cx="381" cy="216" r="3" />
<circle cx="385" cy="104" r="3" />
<circle cx="389" cy="126" r="3" />
<circle cx="392" cy="192" r="3" />
<circle cx="396" cy="162" r="3" />
<circle cx="400" cy="108" r="3" />
<circle cx="404" cy="140" r="3" />
<circle cx="407" cy="110" r="3" />
<circle cx="411" cy="216" r="3" />
<circle cx="415" cy="152" r="3" />
<circle cx="418" cy="136" r="3" />
<circle cx="422" cy="114" r="3" />
<circle cx="426" cy="240" r="3" />
<circle cx="430" cy="144" r="3" />
<circle cx="433" cy="150" r="3" />
<circle cx="437" cy="140" r="3" />
<circle cx="441" cy="180" r="3" />
<circle cx="445" cy="144" r="3" />
<circle cx="448" cy="216" r="3" />
<circle cx="452" cy="122" r="3" />
<circle cx="456" cy="186" r="3" />
<circle cx="460" cy="168" r="3" />
<circle cx="463" cy="160" r="3" />
<circle cx="467" cy="126" r="3" />
<circle cx="471" cy="240" r="3" />
<circle cx="475" cy="128" r="3" />
<circle cx="478" cy="129" r="3" />
<circle cx="482" cy="176" r="3" />
<circle cx="486" cy="252" r="3" />
<circle cx="489" cy="132" r="3" />
<circle cx="493" cy="240" r="3" />
<circle cx="497" cy="160" r="3" />
<circle cx="501" cy="204" r="3" />
<circle cx="504" cy="168" r="3" />
<circle cx="508" cy="162" r="3" />
<circle cx="512" cy="138" r="3" />
<circle cx="516" cy="288" r="3" />
<circle cx="519" cy="140" r="3" />
<circle cx="523" cy="240" r="3" />
<circle cx="527" cy="192" r="3" />
<circle cx="531" cy="216" r="3" />
<circle cx="534" cy="168" r="3" />
<circle cx="538" cy="170" r="3" />
<circle cx="542" cy="180" r="3" />
<circle cx="546" cy="222" r="3" />
<circle cx="549" cy="200" r="3" />
<circle cx="553" cy="190" r="3" />
<circle cx="557" cy="150" r="3" />
<circle cx="560" cy="312" r="3" />
<circle cx="564" cy="152" r="3" />
<circle cx="568" cy="180" r="3" />
<circle cx="572" cy="180" r="3" />
<circle cx="575" cy="288" r="3" />
<circle cx="579" cy="192" r="3" />
<circle cx="583" cy="280" r="3" />
<circle cx="587" cy="158" r="3" />
<circle cx="590" cy="240" r="3" />
<circle cx="594" cy="216" r="3" />
<circle cx="598" cy="198" r="3" />
<circle cx="602" cy="192" r="3" />
<circle cx="605" cy="246" r="3" />
<circle cx="609" cy="164" r="3" />
<circle cx="613" cy="210" r="3" />
<circle cx="617" cy="288" r="3" />
<circle cx="620" cy="252" r="3" />
<circle cx="624" cy="168" r="3" />
<circle cx="628" cy="288" r="3" />
<circle cx="631" cy="170" r="3" />
<circle cx="635" cy="324" r="3" />
<circle cx="639" cy="200" r="3" />
<circle cx="643" cy="220" r="3" />
<circle cx="646" cy="174" r="3" />
<circle cx="650" cy="360" r="3" />
<circle cx="654" cy="208" r="3" />
<circle cx="658" cy="204" r="3" />
<circle cx="661" cy="240" r="3" />
<circle cx="665" cy="270" r="3" />
<circle cx="669" cy="180" r="3" />
<circle cx="673" cy="300" r="3" />
<circle cx="676" cy="182" r="3" />
<circle cx="680" cy="336" r="3" />
<circle cx="684" cy="248" r="3" />
<circle cx="688" cy="216" r="3" />
<circle cx="691" cy="228" r="3" />
<circle cx="695" cy="384" r="3" />
<circle cx="699" cy="216" r="3" />
<circle cx="702" cy="240" r="3" />
<circle cx="706" cy="224" r="3" />
<circle cx="710" cy="360" r="3" />
<circle cx="714" cy="192" r="3" />
<circle cx="717" cy="260" r="3" />
<circle cx="721" cy="194" r="3" />
<circle cx="725" cy="294" r="3" />
<circle cx="729" cy="336" r="3" />
<circle cx="732" cy="250" r="3" />
<circle cx="736" cy="198" r="3" />
<circle cx="740" cy="360" r="3" />
<circle cx="744" cy="200" r="3" />
<circle cx="747" cy="234" r="3" />
<circle cx="751" cy="272" r="3" />
<circle cx="755" cy="306" r="3" />
<circle cx="758" cy="240" r="3" />
<circle cx="762" cy="360" r="3" />
<circle cx="766" cy="252" r="3" />
<circle cx="770" cy="312" r="3" />
<circle cx="773" cy="240" r="3" />
<circle cx="777" cy="238" r="3" />
<circle cx="781" cy="240" r="3" />
<circle cx="785" cy="576" r="3" />
<circle cx="788" cy="212" r="3" />
<circle cx="792" cy="270" r="3" />
<circle cx="796" cy="288" r="3" />
<circle cx="800" cy="324" r="3" />
<circle cx="803" cy="264" r="3" />
<circle cx="807" cy="252" r="3" />
<circle cx="811" cy="256" r="3" />
<circle cx="815" cy="330" r="3" />
<circle cx="818" cy="296" r="3" />
<circle cx="822" cy="360" r="3" />
<circle cx="826" cy="252" r="3" />
<circle cx="829" cy="456" r="3" />
<circle cx="833" cy="224" r="3" />
<circle cx="837" cy="264" r="3" />
<circle cx="841" cy="260" r="3" />
<circle cx="844" cy="342" r="3" />
<circle cx="848" cy="228" r="3" />
<circle cx="852" cy="400" r="3" />
<circle cx="856" cy="230" r="3" />
<circle cx="859" cy="432" r="3" />
<circle cx="863" cy="384" r="3" />
<circle cx="867" cy="270" r="3" />
<circle cx="871" cy="234" r="3" />
<circle cx="874" cy="420" r="3" />
<circle cx="878" cy="288" r="3" />
<circle cx="882" cy="300" r="3" />
<circle cx="886" cy="320" r="3" />
<circle cx="889" cy="432" r="3" />
<circle cx="893" cy="240" r="3" />
<circle cx="897" cy="408" r="3" />
<circle cx="900" cy="242" r="3" />
<circle cx="904" cy="366" r="3" />
<circle cx="908" cy="244" r="3" />
<circle cx="912" cy="310" r="3" />
<circle cx="915" cy="300" r="3" />
<circle cx="919" cy="504" r="3" />
<circle cx="923" cy="280" r="3" />
<circle cx="927" cy="288" r="3" />
<circle cx="930" cy="336" r="3" />
<circle cx="934" cy="378" r="3" />
</g>
</svg>