<svg xmlns="http://www.w3.org/2000/svg" width="161.8" height="100.0" viewBox="3 -5 172 110">
<g fill="none" stroke="black" stroke-width="2.2050%" transform="translate(0, 100.4535) scale(0.2268, -0.2268)">
<polyline points="36,1 71,1 71,5 107,5 107,10 143,10 143,17 178,17 178,26 214,26 214,50 250,50 250,50 285,50 285,65 321,65 321,82 357,82 357,130 392,130 392,122 428,122 428,170 464,170 464,170 499,170 499,250 535,250 535,260 571,260 571,257 607,257 607,290 642,290 642,410 678,410 678,362 714,362 714,442 749,442" />
</g>
</svg>