<svg xmlns="http://www.w3.org/2000/svg" width="91.8" height="100.0" viewBox="-50.920 -55.000 101.840 110.000">
<g fill="none" stroke="black" stroke-width="0.0137%" transform="translate(0, 0.0000) scale(36.3706, -36.3706)">
<polygon points="-1.227,0.743 -1.170,0.222 -1.170,-0.778 -1.227,-0.875 -1.263,0.066" />
<polygon points="1.263,-0.066 1.227,0.875 1.170,0.778 1.170,-0.222 1.227,-0.743" />
<polygon points="1.227,-0.743 1.170,-0.222 0.219,-0.531 -0.312,-1.243 0.312,-1.375" />
<polygon points="1.170,-0.222 1.170,0.778 0.219,1.087 -0.368,0.278 0.219,-0.531" />
<polygon points="1.170,0.778 1.227,0.875 0.312,1.243 -0.312,1.375 0.219,1.087" />
<polygon points="1.227,0.875 1.263,-0.066 0.368,-0.278 -0.219,0.531 0.312,1.243" />
<polygon points="1.263,-0.066 1.227,-0.743 0.312,-1.375 -0.219,-1.087 0.368,-0.278" />
<polygon points="-0.312,1.375 0.312,1.243 -0.219,0.531 -1.170,0.222 -1.227,0.743" />
<polygon points="-0.219,0.531 0.368,-0.278 -0.219,-1.087 -1.170,-0.778 -1.170,0.222" />
<polygon points="-0.219,-1.087 0.312,-1.375 -0.312,-1.243 -1.227,-0.875 -1.170,-0.778" />
<polygon points="-0.312,-1.243 0.219,-0.531 -0.368,0.278 -1.263,0.066 -1.227,-0.875" />
<polygon points="-0.368,0.278 0.219,1.087 -0.312,1.375 -1.227,0.743 -1.263,0.066" />
</g>
</svg>