<svg xmlns="http://www.w3.org/2000/svg" width="83.5" height="100.0" viewBox="-28.02 -20.53 93.48 110.00">
<g fill="none" stroke="black" stroke-width="0.1288%" transform="translate(0, 68.9320) scale(3.8835, -3.8835)">
<polyline points="0.57,-0.25 0.13,-0.50 -0.30,-0.75 -0.73,-1.00 -1.17,-1.25 -1.60,-1.50 -2.03,-1.75 -2.46,-2.00 -2.90,-2.25 -3.33,-2.50 -3.76,-2.75 -4.20,-3.00 -4.63,-3.25 -5.06,-3.50 -5.50,-3.75 -5.93,-4.00" />
<polyline points="1.57,-0.25 1.13,-0.50 0.70,-0.75 0.27,-1.00 -0.17,-1.25 -0.60,-1.50 -1.03,-1.75 -1.46,-2.00 -1.90,-2.25 -2.33,-2.50 -2.76,-2.75 -3.20,-3.00 -3.63,-3.25 -4.06,-3.50 -4.50,-3.75 -4.93,-4.00" />
<polyline points="2.57,-0.25 2.13,-0.50 1.70,-0.75 1.27,-1.00 0.83,-1.25 0.40,-1.50 -0.03,-1.75 -0.46,-2.00 -0.90,-2.25 -1.33,-2.50 -1.76,-2.75 -2.20,-3.00 -2.63,-3.25 -3.06,-3.50 -3.50,-3.75 -3.93,-4.00" />
<polyline points="3.57,-0.25 3.13,-0.50 2.70,-0.75 2.27,-1.00 1.83,-1.25 1.40,-1.50 0.97,-1.75 0.54,-2.00 0.10,-2.25 -0.33,-2.50 -0.76,-2.75 -1.20,-3.00 -1.63,-3.25 -2.06,-3.50 -2.50,-3.75 -2.93,-4.00" />
<polyline points="4.57,-0.25 4.13,-0.50 3.70,-0.75 3.27,-1.00 2.83,21.75 2.40,21.50 1.97,21.25 1.54,21.00 1.10,20.75 0.67,20.50 0.24,20.25 -0.20,20.00 -0.63,-3.25 -1.06,-3.50 -1.50,-3.75 -1.93,-4.00" />
<polyline points="5.57,-0.25 5.13,-0.50 4.70,-0.75 4.27,-1.00 3.83,21.75 3.40,21.50 2.97,21.25 2.54,21.00 2.10,20.75 1.67,20.50 1.24,20.25 0.80,20.00 0.37,-3.25 -0.06,-3.50 -0.50,-3.75 -0.93,-4.00" />
<polyline points="6.57,-0.25 6.13,-0.50 5.70,-0.75 5.27,-1.00 4.83,21.75 4.40,21.50 3.97,21.25 3.54,21.00 3.10,20.75 2.67,20.50 2.24,20.25 1.80,20.00 1.37,-3.25 0.94,-3.50 0.50,-3.75 0.07,-4.00" />
<polyline points="7.57,-0.25 7.13,-0.50 6.70,-0.75 6.27,-1.00 5.83,21.75 5.40,21.50 4.97,21.25 4.54,21.00 4.10,20.75 3.67,20.50 3.24,20.25 2.80,20.00 2.37,-3.25 1.94,-3.50 1.50,-3.75 1.07,-4.00" />
<polyline points="8.57,-0.25 8.13,-0.50 7.70,-0.75 7.27,-1.00 6.83,21.75 6.40,21.50 5.97,21.25 5.54,21.00 5.10,20.75 4.67,20.50 4.24,20.25 3.80,20.00 3.37,-3.25 2.94,-3.50 2.50,-3.75 2.07,-4.00" />
<polyline points="9.57,-0.25 9.13,-0.50 8.70,-0.75 8.27,-1.00 7.83,21.75 7.40,21.50 6.97,21.25 6.54,21.00 6.10,20.75 5.67,20.50 5.24,20.25 4.80,20.00 4.37,-3.25 3.94,-3.50 3.50,-3.75 3.07,-4.00" />
<polyline points="10.57,-0.25 10.13,-0.50 9.70,-0.75 9.27,-1.00 8.83,21.75 8.40,21.50 7.97,21.25 7.54,21.00 7.10,20.75 6.67,20.50 6.24,20.25 5.80,20.00 5.37,-3.25 4.94,-3.50 4.50,-3.75 4.07,-4.00" />
<polyline points="11.57,-0.25 11.13,-0.50 10.70,-0.75 10.27,-1.00 9.83,21.75 9.40,21.50 8.97,21.25 8.54,21.00 8.10,20.75 7.67,20.50 7.24,20.25 6.80,20.00 6.37,-3.25 5.94,-3.50 5.50,-3.75 5.07,-4.00" />
<polyline points="12.57,-0.25 12.13,-0.50 11.70,-0.75 11.27,-1.00 10.83,-1.25 10.40,-1.50 9.97,-1.75 9.54,-2.00 9.10,-2.25 8.67,-2.50 8.24,-2.75 7.80,-3.00 7.37,-3.25 6.94,-3.50 6.50,-3.75 6.07,-4.00" />
<polyline points="13.57,-0.25 13.13,-0.50 12.70,-0.75 12.27,-1.00 11.83,-1.25 11.40,-1.50 10.97,-1.75 10.54,-2.00 10.10,-2.25 9.67,-2.50 9.24,-2.75 8.80,-3.00 8.37,-3.25 7.94,-3.50 7.50,-3.75 7.07,-4.00" />
<polyline points="14.57,-0.25 14.13,-0.50 13.70,-0.75 13.27,-1.00 12.83,-1.25 12.40,-1.50 11.97,-1.75 11.54,-2.00 11.10,-2.25 10.67,-2.50 10.24,-2.75 9.80,-3.00 9.37,-3.25 8.94,-3.50 8.50,-3.75 8.07,-4.00" />
<polyline points="15.57,-0.25 15.13,-0.50 14.70,-0.75 14.27,-1.00 13.83,-1.25 13.40,-1.50 12.97,-1.75 12.54,-2.00 12.10,-2.25 11.67,-2.50 11.24,-2.75 10.80,-3.00 10.37,-3.25 9.94,-3.50 9.50,-3.75 9.07,-4.00" />
<polyline points="0.57,-0.25 1.57,-0.25 2.57,-0.25 3.57,-0.25 4.57,-0.25 5.57,-0.25 6.57,-0.25 7.57,-0.25 8.57,-0.25 9.57,-0.25 10.57,-0.25 11.57,-0.25 12.57,-0.25 13.57,-0.25 14.57,-0.25 15.57,-0.25" />
<polyline points="0.13,-0.50 1.13,-0.50 2.13,-0.50 3.13,-0.50 4.13,-0.50 5.13,-0.50 6.13,-0.50 7.13,-0.50 8.13,-0.50 9.13,-0.50 10.13,-0.50 11.13,-0.50 12.13,-0.50 13.13,-0.50 14.13,-0.50 15.13,-0.50" />
<polyline points="-0.30,-0.75 0.70,-0.75 1.70,-0.75 2.70,-0.75 3.70,-0.75 4.70,-0.75 5.70,-0.75 6.70,-0.75 7.70,-0.75 8.70,-0.75 9.70,-0.75 10.70,-0.75 11.70,-0.75 12.70,-0.75 13.70,-0.75 14.70,-0.75" />
<polyline points="-0.73,-1.00 0.27,-1.00 1.27,-1.00 2.27,-1.00 3.27,-1.00 4.27,-1.00 5.27,-1.00 6.27,-1.00 7.27,-1.00 8.27,-1.00 9.27,-1.00 10.27,-1.00 11.27,-1.00 12.27,-1.00 13.27,-1.00 14.27,-1.00" />
<polyline points="-1.17,-1.25 -0.17,-1.25 0.83,-1.25 1.83,-1.25 2.83,21.75 3.83,21.75 4.83,21.75 5.83,21.75 6.83,21.75 7.83,21.75 8.83,21.75 9.83,21.75 10.83,-1.25 11.83,-1.25 12.83,-1.25 13.83,-1.25" />
<polyline points="-1.60,-1.50 -0.60,-1.50 0.40,-1.50 1.40,-1.50 2.40,21.50 3.40,21.50 4.40,21.50 5.40,21.50 6.40,21.50 7.40,21.50 8.40,21.50 9.40,21.50 10.40,-1.50 11.40,-1.50 12.40,-1.50 13.40,-1.50" />
<polyline points="-2.03,-1.75 -1.03,-1.75 -0.03,-1.75 0.97,-1.75 1.97,21.25 2.97,21.25 3.97,21.25 4.97,21.25 5.97,21.25 6.97,21.25 7.97,21.25 8.97,21.25 9.97,-1.75 10.97,-1.75 11.97,-1.75 12.97,-1.75" />
<polyline points="-2.46,-2.00 -1.46,-2.00 -0.46,-2.00 0.54,-2.00 1.54,21.00 2.54,21.00 3.54,21.00 4.54,21.00 5.54,21.00 6.54,21.00 7.54,21.00 8.54,21.00 9.54,-2.00 10.54,-2.00 11.54,-2.00 12.54,-2.00" />
<polyline points="-2.90,-2.25 -1.90,-2.25 -0.90,-2.25 0.10,-2.25 1.10,20.75 2.10,20.75 3.10,20.75 4.10,20.75 5.10,20.75 6.10,20.75 7.10,20.75 8.10,20.75 9.10,-2.25 10.10,-2.25 11.10,-2.25 12.10,-2.25" />
<polyline points="-3.33,-2.50 -2.33,-2.50 -1.33,-2.50 -0.33,-2.50 0.67,20.50 1.67,20.50 2.67,20.50 3.67,20.50 4.67,20.50 5.67,20.50 6.67,20.50 7.67,20.50 8.67,-2.50 9.67,-2.50 10.67,-2.50 11.67,-2.50" />
<polyline points="-3.76,-2.75 -2.76,-2.75 -1.76,-2.75 -0.76,-2.75 0.24,20.25 1.24,20.25 2.24,20.25 3.24,20.25 4.24,20.25 5.24,20.25 6.24,20.25 7.24,20.25 8.24,-2.75 9.24,-2.75 10.24,-2.75 11.24,-2.75" />
<polyline points="-4.20,-3.00 -3.20,-3.00 -2.20,-3.00 -1.20,-3.00 -0.20,20.00 0.80,20.00 1.80,20.00 2.80,20.00 3.80,20.00 4.80,20.00 5.80,20.00 6.80,20.00 7.80,-3.00 8.80,-3.00 9.80,-3.00 10.80,-3.00" />
<polyline points="-4.63,-3.25 -3.63,-3.25 -2.63,-3.25 -1.63,-3.25 -0.63,-3.25 0.37,-3.25 1.37,-3.25 2.37,-3.25 3.37,-3.25 4.37,-3.25 5.37,-3.25 6.37,-3.25 7.37,-3.25 8.37,-3.25 9.37,-3.25 10.37,-3.25" />
<polyline points="-5.06,-3.50 -4.06,-3.50 -3.06,-3.50 -2.06,-3.50 -1.06,-3.50 -0.06,-3.50 0.94,-3.50 1.94,-3.50 2.94,-3.50 3.94,-3.50 4.94,-3.50 5.94,-3.50 6.94,-3.50 7.94,-3.50 8.94,-3.50 9.94,-3.50" />
<polyline points="-5.50,-3.75 -4.50,-3.75 -3.50,-3.75 -2.50,-3.75 -1.50,-3.75 -0.50,-3.75 0.50,-3.75 1.50,-3.75 2.50,-3.75 3.50,-3.75 4.50,-3.75 5.50,-3.75 6.50,-3.75 7.50,-3.75 8.50,-3.75 9.50,-3.75" />
<polyline points="-5.93,-4.00 -4.93,-4.00 -3.93,-4.00 -2.93,-4.00 -1.93,-4.00 -0.93,-4.00 0.07,-4.00 1.07,-4.00 2.07,-4.00 3.07,-4.00 4.07,-4.00 5.07,-4.00 6.07,-4.00 7.07,-4.00 8.07,-4.00 9.07,-4.00" />
</g>
</svg>