<svg xmlns="http://www.w3.org/2000/svg" width="161.8" height="100.0" viewBox="-3.35 -5.00 171.80 110.00">
<g fill="none" stroke="black" stroke-width="0.1200%" transform="translate(0, 100.0000) scale(4.1667, -4.1667)">
<circle cx="0.40" cy="0.00" r="0.12" />
<polyline points="0.40,0.00 0.79,0.00 1.19,0.00 1.59,0.00 1.98,0.00 2.38,0.00 2.77,0.00 3.17,0.00 3.57,0.00 3.96,0.00 4.36,0.00 4.76,0.00 5.15,0.00 5.55,0.00 5.94,0.00 6.34,0.00 6.74,0.00 7.13,0.00 7.53,0.00 7.93,0.00 8.32,0.00 8.72,0.00 9.11,0.00 9.51,0.00 9.91,0.00 10.30,0.00 10.70,1.00 11.10,2.00 11.49,3.00 11.89,4.00 12.28,5.00 12.68,6.00 13.08,7.00 13.47,8.00 13.87,9.00 14.27,10.00 14.66,11.00 15.06,12.00 15.45,13.00 15.85,14.00 16.25,15.00 16.64,16.00 17.04,17.00 17.44,18.00 17.83,19.00 18.23,20.00 18.62,21.00 19.02,22.00 19.42,23.00 19.81,24.00 20.21,23.00 20.61,22.00 21.00,21.00 21.40,20.00 21.79,19.00 22.19,18.00 22.59,17.00 22.98,16.00 23.38,15.00 23.78,14.00 24.17,13.00 24.57,12.00 24.96,11.00 25.36,10.00 25.76,9.00 26.15,8.00 26.55,7.00 26.95,6.00 27.34,5.00 27.74,4.00 28.13,3.00 28.53,2.00 28.93,1.00 29.32,0.00 29.72,0.00 30.12,0.00 30.51,0.00 30.91,0.00 31.30,0.00 31.70,0.00 32.10,0.00 32.49,0.00 32.89,0.00 33.29,0.00 33.68,0.00 34.08,0.00 34.47,0.00 34.87,0.00 35.27,0.00 35.66,0.00 36.06,0.00 36.46,0.00 36.85,0.00 37.25,0.00 37.64,0.00 38.04,0.00 38.44,0.00 38.83,0.00 39.23,0.00" />
</g>
</svg>