<svg xmlns="http://www.w3.org/2000/svg" width="161.8" height="100.0" viewBox="-92.12 -54.92 171.80 110.00">
<g fill="none" stroke="black" stroke-width="0.0206%" transform="translate(0, 0.1603) scale(24.2813, -24.2813)">
<circle cx="-3.59" cy="0.00" r="0.02" />
<circle cx="0.00" cy="2.06" r="0.02" />
<polyline points="-3.59,1.50 -3.52,1.08 -3.45,0.70 -3.39,0.34 -3.32,0.02 -3.25,-0.28 -3.19,-0.54 -3.12,-0.79 -3.06,-1.00 -2.99,-1.19 -2.92,-1.36 -2.86,-1.51 -2.79,-1.64 -2.72,-1.75 -2.66,-1.84 -2.59,-1.91 -2.52,-1.97 -2.46,-2.01 -2.39,-2.04 -2.32,-2.05 -2.26,-2.06 -2.19,-2.05 -2.12,-2.03 -2.06,-2.00 -1.99,-1.97 -1.92,-1.92 -1.86,-1.87 -1.79,-1.82 -1.72,-1.75 -1.66,-1.69 -1.59,-1.62 -1.52,-1.54 -1.46,-1.46 -1.39,-1.38 -1.32,-1.30 -1.26,-1.22 -1.19,-1.14 -1.12,-1.06 -1.06,-0.98 -0.99,-0.89 -0.92,-0.81 -0.86,-0.74 -0.79,-0.66 -0.72,-0.59 -0.66,-0.51 -0.59,-0.45 -0.52,-0.38 -0.46,-0.32 -0.39,-0.26 -0.32,-0.21 -0.26,-0.16 -0.19,-0.11 -0.12,-0.07 -0.06,-0.03 0.01,0.00 0.08,0.03 0.14,0.06 0.21,0.08 0.28,0.10 0.34,0.11 0.41,0.12 0.48,0.13 0.54,0.13 0.61,0.13 0.68,0.12 0.74,0.12 0.81,0.11 0.88,0.10 0.94,0.08 1.01,0.07 1.08,0.05 1.14,0.03 1.21,0.01 1.28,-0.00 1.34,-0.02 1.41,-0.03 1.48,-0.05 1.54,-0.06 1.61,-0.07 1.68,-0.07 1.74,-0.07 1.81,-0.07 1.88,-0.06 1.94,-0.04 2.01,-0.02 2.08,0.01 2.14,0.05 2.21,0.10 2.28,0.16 2.34,0.24 2.41,0.32 2.48,0.42 2.54,0.53 2.61,0.66 2.68,0.80 2.74,0.96 2.81,1.14 2.88,1.34 2.94,1.56 3.01,1.80 3.08,2.06" />
</g>
</svg>