<svg xmlns="http://www.w3.org/2000/svg" width="161.8" height="100.0" viewBox="-3.35 -5.00 171.80 110.00">
<g fill="none" stroke="black" stroke-width="0.0248%" transform="translate(0, 100.0000) scale(20.1629, -20.1629)">
<circle cx="0.08" cy="0.00" r="0.02" />
<polyline points="0.08,0.00 0.16,0.04 0.25,0.08 0.33,0.12 0.41,0.16 0.49,0.20 0.57,0.24 0.66,0.28 0.74,0.32 0.82,0.36 0.90,0.40 0.98,0.44 1.06,0.48 1.15,0.53 1.23,0.57 1.31,0.61 1.39,0.65 1.47,0.69 1.56,0.73 1.64,0.77 1.72,0.81 1.80,0.85 1.88,0.89 1.97,0.93 2.05,0.97 2.13,0.01 2.21,0.05 2.29,0.09 2.37,0.13 2.46,0.17 2.54,0.21 2.62,0.25 2.70,0.29 2.78,0.33 2.87,0.37 2.95,0.41 3.03,0.45 3.11,0.49 3.19,0.54 3.28,0.58 3.36,0.62 3.44,0.66 3.52,0.70 3.60,0.74 3.68,0.78 3.77,0.82 3.85,0.86 3.93,0.90 4.01,0.94 4.09,0.98 4.18,0.02 4.26,0.06 4.34,0.10 4.42,0.14 4.50,0.18 4.59,0.22 4.67,0.26 4.75,0.30 4.83,0.34 4.91,0.38 5.00,0.42 5.08,0.46 5.16,0.51 5.24,0.55 5.32,0.59 5.40,0.63 5.49,0.67 5.57,0.71 5.65,0.75 5.73,0.79 5.81,0.83 5.90,0.87 5.98,0.91 6.06,0.95 6.14,0.99 6.22,0.03 6.31,0.07 6.39,0.11 6.47,0.15 6.55,0.19 6.63,0.23 6.71,0.27 6.80,0.31 6.88,0.35 6.96,0.39 7.04,0.43 7.12,0.47 7.21,0.52 7.29,0.56 7.37,0.60 7.45,0.64 7.53,0.68 7.62,0.72 7.70,0.76 7.78,0.80 7.86,0.84 7.94,0.88 8.02,0.92 8.11,0.96" />
<polyline points="0.08,1.00 0.16,1.04 0.25,1.08 0.33,1.12 0.41,1.16 0.49,1.20 0.57,1.24 0.66,1.28 0.74,1.32 0.82,1.36 0.90,1.40 0.98,1.44 1.06,1.48 1.15,1.53 1.23,1.57 1.31,1.61 1.39,1.65 1.47,1.69 1.56,1.73 1.64,1.77 1.72,1.81 1.80,1.85 1.88,1.89 1.97,1.93 2.05,1.97 2.13,2.01 2.21,2.05 2.29,2.09 2.37,2.13 2.46,2.17 2.54,2.21 2.62,2.25 2.70,2.29 2.78,2.33 2.87,2.37 2.95,2.41 3.03,2.45 3.11,2.49 3.19,2.54 3.28,2.58 3.36,2.62 3.44,2.66 3.52,2.70 3.60,2.74 3.68,2.78 3.77,2.82 3.85,2.86 3.93,2.90 4.01,2.94 4.09,2.98 4.18,3.02 4.26,3.06 4.34,3.10 4.42,3.14 4.50,3.18 4.59,3.22 4.67,3.26 4.75,3.30 4.83,3.34 4.91,3.38 5.00,3.42 5.08,3.46 5.16,3.51 5.24,3.55 5.32,3.59 5.40,3.63 5.49,3.67 5.57,3.71 5.65,3.75 5.73,3.79 5.81,3.83 5.90,3.87 5.98,3.91 6.06,3.95 6.14,3.99 6.22,4.03 6.31,4.07 6.39,4.11 6.47,4.15 6.55,4.19 6.63,4.23 6.71,4.27 6.80,4.31 6.88,4.35 6.96,4.39 7.04,4.43 7.12,4.47 7.21,4.52 7.29,4.56 7.37,4.60 7.45,4.64 7.53,4.68 7.62,4.72 7.70,4.76 7.78,4.80 7.86,4.84 7.94,4.88 8.02,4.92 8.11,4.96" />
</g>
</svg>