<svg xmlns="http://www.w3.org/2000/svg" width="161.8" height="100.0" viewBox="-5.000 -4.999 171.803 110.000">
<g fill="none" stroke="black" stroke-width="0.0050%" transform="translate(0, 100.0015) scale(100.0008, -100.0008)">
<circle cx="0.000" cy="1.000" r="0.005" />
<polyline points="0.000,1.000 0.016,0.655 0.032,0.527 0.049,0.439 0.065,0.371 0.081,0.317 0.097,0.273 0.113,0.237 0.129,0.206 0.146,0.180 0.162,0.157 0.178,0.138 0.194,0.119 0.210,0.105 0.227,0.093 0.243,0.082 0.259,0.073 0.275,0.065 0.291,0.057 0.307,0.051 0.324,0.045 0.340,0.040 0.356,0.036 0.372,0.032 0.388,0.028 0.405,0.025 0.421,0.023 0.437,0.020 0.453,0.018 0.469,0.016 0.485,0.014 0.502,0.013 0.518,0.011 0.534,0.010 0.550,0.009 0.566,0.008 0.582,0.007 0.599,0.007 0.615,0.006 0.631,0.005 0.647,0.005 0.663,0.004 0.680,0.004 0.696,0.003 0.712,0.003 0.728,0.003 0.744,0.002 0.760,0.002 0.777,0.002 0.793,0.002 0.809,0.002 0.825,0.001 0.841,0.001 0.858,0.001 0.874,0.001 0.890,0.001 0.906,0.001 0.922,0.001 0.938,0.001 0.955,0.001 0.971,0.001 0.987,0.000 1.003,0.000 1.019,0.000 1.036,0.000 1.052,0.000 1.068,0.000 1.084,0.000 1.100,0.000 1.116,0.000 1.133,0.000 1.149,0.000 1.165,0.000 1.181,0.000 1.197,0.000 1.214,0.000 1.230,0.000 1.246,0.000 1.262,0.000 1.278,0.000 1.294,0.000 1.311,0.000 1.327,0.000 1.343,0.000 1.359,0.000 1.375,0.000 1.391,0.000 1.408,0.000 1.424,0.000 1.440,0.000 1.456,0.000 1.472,0.000 1.489,0.000 1.505,0.000 1.521,0.000 1.537,0.000 1.553,0.000 1.569,0.000 1.586,0.000 1.602,0.000 1.618,0.000" />
<polyline points="0.000,1.000 0.016,0.905 0.032,0.819 0.049,0.741 0.065,0.670 0.081,0.607 0.097,0.549 0.113,0.497 0.129,0.449 0.146,0.407 0.162,0.368 0.178,0.333 0.194,0.301 0.210,0.273 0.227,0.247 0.243,0.223 0.259,0.202 0.275,0.183 0.291,0.165 0.307,0.150 0.324,0.135 0.340,0.122 0.356,0.111 0.372,0.100 0.388,0.091 0.405,0.082 0.421,0.074 0.437,0.067 0.453,0.061 0.469,0.055 0.485,0.050 0.502,0.045 0.518,0.041 0.534,0.037 0.550,0.033 0.566,0.030 0.582,0.027 0.599,0.025 0.615,0.022 0.631,0.020 0.647,0.018 0.663,0.017 0.680,0.015 0.696,0.014 0.712,0.012 0.728,0.011 0.744,0.010 0.760,0.009 0.777,0.008 0.793,0.007 0.809,0.007 0.825,0.006 0.841,0.006 0.858,0.005 0.874,0.005 0.890,0.004 0.906,0.004 0.922,0.003 0.938,0.003 0.955,0.003 0.971,0.002 0.987,0.002 1.003,0.002 1.019,0.002 1.036,0.002 1.052,0.002 1.068,0.001 1.084,0.001 1.100,0.001 1.116,0.001 1.133,0.001 1.149,0.001 1.165,0.001 1.181,0.001 1.197,0.001 1.214,0.001 1.230,0.001 1.246,0.000 1.262,0.000 1.278,0.000 1.294,0.000 1.311,0.000 1.327,0.000 1.343,0.000 1.359,0.000 1.375,0.000 1.391,0.000 1.408,0.000 1.424,0.000 1.440,0.000 1.456,0.000 1.472,0.000 1.489,0.000 1.505,0.000 1.521,0.000 1.537,0.000 1.553,0.000 1.569,0.000 1.586,0.000 1.602,0.000 1.618,0.000" />
<polyline points="0.000,1.000 0.016,0.978 0.032,0.940 0.049,0.896 0.065,0.849 0.081,0.801 0.097,0.753 0.113,0.706 0.129,0.659 0.146,0.615 0.162,0.572 0.178,0.532 0.194,0.494 0.210,0.457 0.227,0.423 0.243,0.392 0.259,0.362 0.275,0.334 0.291,0.308 0.307,0.284 0.324,0.261 0.340,0.241 0.356,0.221 0.372,0.204 0.388,0.187 0.405,0.172 0.421,0.158 0.437,0.145 0.453,0.133 0.469,0.122 0.485,0.112 0.502,0.102 0.518,0.094 0.534,0.086 0.550,0.079 0.566,0.072 0.582,0.066 0.599,0.060 0.615,0.055 0.631,0.050 0.647,0.046 0.663,0.042 0.680,0.038 0.696,0.035 0.712,0.032 0.728,0.029 0.744,0.027 0.760,0.024 0.777,0.022 0.793,0.020 0.809,0.019 0.825,0.017 0.841,0.015 0.858,0.014 0.874,0.013 0.890,0.012 0.906,0.011 0.922,0.010 0.938,0.009 0.955,0.008 0.971,0.007 0.987,0.007 1.003,0.006 1.019,0.006 1.036,0.005 1.052,0.005 1.068,0.004 1.084,0.004 1.100,0.004 1.116,0.003 1.133,0.003 1.149,0.003 1.165,0.002 1.181,0.002 1.197,0.002 1.214,0.002 1.230,0.002 1.246,0.002 1.262,0.001 1.278,0.001 1.294,0.001 1.311,0.001 1.327,0.001 1.343,0.001 1.359,0.001 1.375,0.001 1.391,0.001 1.408,0.001 1.424,0.001 1.440,0.000 1.456,0.000 1.472,0.000 1.489,0.000 1.505,0.000 1.521,0.000 1.537,0.000 1.553,0.000 1.569,0.000 1.586,0.000 1.602,0.000 1.618,0.000" />
<polyline points="0.000,1.000 0.016,0.995 0.032,0.982 0.049,0.963 0.065,0.938 0.081,0.910 0.097,0.878 0.113,0.844 0.129,0.809 0.146,0.772 0.162,0.736 0.178,0.699 0.194,0.663 0.210,0.627 0.227,0.592 0.243,0.558 0.259,0.525 0.275,0.493 0.291,0.463 0.307,0.434 0.324,0.406 0.340,0.380 0.356,0.355 0.372,0.331 0.388,0.308 0.405,0.287 0.421,0.267 0.437,0.249 0.453,0.231 0.469,0.215 0.485,0.199 0.502,0.185 0.518,0.171 0.534,0.159 0.550,0.147 0.566,0.136 0.582,0.126 0.599,0.116 0.615,0.107 0.631,0.099 0.647,0.092 0.663,0.085 0.680,0.078 0.696,0.072 0.712,0.066 0.728,0.061 0.744,0.056 0.760,0.052 0.777,0.048 0.793,0.044 0.809,0.040 0.825,0.037 0.841,0.034 0.858,0.031 0.874,0.029 0.890,0.027 0.906,0.024 0.922,0.022 0.938,0.021 0.955,0.019 0.971,0.017 0.987,0.016 1.003,0.015 1.019,0.013 1.036,0.012 1.052,0.011 1.068,0.010 1.084,0.009 1.100,0.009 1.116,0.008 1.133,0.007 1.149,0.007 1.165,0.006 1.181,0.006 1.197,0.005 1.214,0.005 1.230,0.004 1.246,0.004 1.262,0.004 1.278,0.003 1.294,0.003 1.311,0.003 1.327,0.003 1.343,0.002 1.359,0.002 1.375,0.002 1.391,0.002 1.408,0.002 1.424,0.001 1.440,0.001 1.456,0.001 1.472,0.001 1.489,0.001 1.505,0.001 1.521,0.001 1.537,0.001 1.553,0.001 1.569,0.001 1.586,0.001 1.602,0.001 1.618,0.000" />
<polyline points="0.000,1.000 0.016,1.000 0.032,1.000 0.049,1.000 0.065,1.000 0.081,1.000 0.097,1.000 0.113,0.999 0.129,0.999 0.146,0.998 0.162,0.996 0.178,0.995 0.194,0.992 0.210,0.989 0.227,0.986 0.243,0.981 0.259,0.976 0.275,0.970 0.291,0.964 0.307,0.956 0.324,0.947 0.340,0.938 0.356,0.928 0.372,0.916 0.388,0.904 0.405,0.891 0.421,0.877 0.437,0.863 0.453,0.848 0.469,0.832 0.485,0.815 0.502,0.798 0.518,0.781 0.534,0.763 0.550,0.744 0.566,0.725 0.582,0.706 0.599,0.687 0.615,0.668 0.631,0.648 0.647,0.629 0.663,0.609 0.680,0.590 0.696,0.570 0.712,0.551 0.728,0.532 0.744,0.513 0.760,0.495 0.777,0.476 0.793,0.458 0.809,0.440 0.825,0.431 0.841,0.412 0.858,0.395 0.874,0.378 0.890,0.361 0.906,0.345 0.922,0.330 0.938,0.315 0.955,0.301 0.971,0.287 0.987,0.273 1.003,0.260 1.019,0.248 1.036,0.236 1.052,0.225 1.068,0.213 1.084,0.203 1.100,0.193 1.116,0.183 1.133,0.173 1.149,0.164 1.165,0.156 1.181,0.148 1.197,0.140 1.214,0.132 1.230,0.125 1.246,0.118 1.262,0.112 1.278,0.106 1.294,0.100 1.311,0.094 1.327,0.089 1.343,0.084 1.359,0.079 1.375,0.074 1.391,0.070 1.408,0.066 1.424,0.062 1.440,0.058 1.456,0.055 1.472,0.052 1.489,0.049 1.505,0.046 1.521,0.043 1.537,0.040 1.553,0.038 1.569,0.035 1.586,0.033 1.602,0.031 1.618,0.029" />
</g>
</svg>