<svg xmlns="http://www.w3.org/2000/svg" width="100.0" height="100.0" viewBox="-4.804 -4.862 109.963 110.000">
<g fill="none" stroke="black" stroke-width="0.0050%" transform="translate(0, 100.2759) scale(100.5517, -100.5517)">
<circle cx="0.500" cy="0.333" r="0.005" />
<circle cx="0.250" cy="0.667" r="0.005" />
<circle cx="0.750" cy="0.111" r="0.005" />
<circle cx="0.125" cy="0.444" r="0.005" />
<circle cx="0.625" cy="0.778" r="0.005" />
<circle cx="0.375" cy="0.222" r="0.005" />
<circle cx="0.875" cy="0.556" r="0.005" />
<circle cx="0.063" cy="0.889" r="0.005" />
<circle cx="0.563" cy="0.037" r="0.005" />
<circle cx="0.313" cy="0.370" r="0.005" />
<circle cx="0.813" cy="0.704" r="0.005" />
<circle cx="0.188" cy="0.148" r="0.005" />
<circle cx="0.688" cy="0.481" r="0.005" />
<circle cx="0.438" cy="0.815" r="0.005" />
<circle cx="0.938" cy="0.259" r="0.005" />
<circle cx="0.031" cy="0.593" r="0.005" />
<circle cx="0.531" cy="0.926" r="0.005" />
<circle cx="0.281" cy="0.074" r="0.005" />
<circle cx="0.781" cy="0.407" r="0.005" />
<circle cx="0.156" cy="0.741" r="0.005" />
<circle cx="0.656" cy="0.185" r="0.005" />
<circle cx="0.406" cy="0.519" r="0.005" />
<circle cx="0.906" cy="0.852" r="0.005" />
<circle cx="0.094" cy="0.296" r="0.005" />
<circle cx="0.594" cy="0.630" r="0.005" />
<circle cx="0.344" cy="0.963" r="0.005" />
<circle cx="0.844" cy="0.012" r="0.005" />
<circle cx="0.219" cy="0.346" r="0.005" />
<circle cx="0.719" cy="0.679" r="0.005" />
<circle cx="0.469" cy="0.123" r="0.005" />
<circle cx="0.969" cy="0.457" r="0.005" />
<circle cx="0.016" cy="0.790" r="0.005" />
<circle cx="0.516" cy="0.235" r="0.005" />
<circle cx="0.266" cy="0.568" r="0.005" />
<circle cx="0.766" cy="0.901" r="0.005" />
<circle cx="0.141" cy="0.049" r="0.005" />
<circle cx="0.641" cy="0.383" r="0.005" />
<circle cx="0.391" cy="0.716" r="0.005" />
<circle cx="0.891" cy="0.160" r="0.005" />
<circle cx="0.078" cy="0.494" r="0.005" />
<circle cx="0.578" cy="0.827" r="0.005" />
<circle cx="0.328" cy="0.272" r="0.005" />
<circle cx="0.828" cy="0.605" r="0.005" />
<circle cx="0.203" cy="0.938" r="0.005" />
<circle cx="0.703" cy="0.086" r="0.005" />
<circle cx="0.453" cy="0.420" r="0.005" />
<circle cx="0.953" cy="0.753" r="0.005" />
<circle cx="0.047" cy="0.198" r="0.005" />
<circle cx="0.547" cy="0.531" r="0.005" />
<circle cx="0.297" cy="0.864" r="0.005" />
<circle cx="0.797" cy="0.309" r="0.005" />
<circle cx="0.172" cy="0.642" r="0.005" />
<circle cx="0.672" cy="0.975" r="0.005" />
<circle cx="0.422" cy="0.025" r="0.005" />
<circle cx="0.922" cy="0.358" r="0.005" />
<circle cx="0.109" cy="0.691" r="0.005" />
<circle cx="0.609" cy="0.136" r="0.005" />
<circle cx="0.359" cy="0.469" r="0.005" />
<circle cx="0.859" cy="0.802" r="0.005" />
<circle cx="0.234" cy="0.247" r="0.005" />
<circle cx="0.734" cy="0.580" r="0.005" />
<circle cx="0.484" cy="0.914" r="0.005" />
<circle cx="0.984" cy="0.062" r="0.005" />
<circle cx="0.008" cy="0.395" r="0.005" />
<circle cx="0.508" cy="0.728" r="0.005" />
<circle cx="0.258" cy="0.173" r="0.005" />
<circle cx="0.758" cy="0.506" r="0.005" />
<circle cx="0.133" cy="0.840" r="0.005" />
<circle cx="0.633" cy="0.284" r="0.005" />
<circle cx="0.383" cy="0.617" r="0.005" />
<circle cx="0.883" cy="0.951" r="0.005" />
<circle cx="0.070" cy="0.099" r="0.005" />
<circle cx="0.570" cy="0.432" r="0.005" />
<circle cx="0.320" cy="0.765" r="0.005" />
<circle cx="0.820" cy="0.210" r="0.005" />
<circle cx="0.195" cy="0.543" r="0.005" />
<circle cx="0.695" cy="0.877" r="0.005" />
<circle cx="0.445" cy="0.321" r="0.005" />
<circle cx="0.945" cy="0.654" r="0.005" />
<circle cx="0.039" cy="0.988" r="0.005" />
<circle cx="0.539" cy="0.004" r="0.005" />
<circle cx="0.289" cy="0.337" r="0.005" />
<circle cx="0.789" cy="0.671" r="0.005" />
<circle cx="0.164" cy="0.115" r="0.005" />
<circle cx="0.664" cy="0.449" r="0.005" />
<circle cx="0.414" cy="0.782" r="0.005" />
<circle cx="0.914" cy="0.226" r="0.005" />
<circle cx="0.102" cy="0.560" r="0.005" />
<circle cx="0.602" cy="0.893" r="0.005" />
<circle cx="0.352" cy="0.041" r="0.005" />
<circle cx="0.852" cy="0.374" r="0.005" />
<circle cx="0.227" cy="0.708" r="0.005" />
<circle cx="0.727" cy="0.152" r="0.005" />
<circle cx="0.477" cy="0.486" r="0.005" />
<circle cx="0.977" cy="0.819" r="0.005" />
<circle cx="0.023" cy="0.263" r="0.005" />
<circle cx="0.523" cy="0.597" r="0.005" />
<circle cx="0.273" cy="0.930" r="0.005" />
<circle cx="0.773" cy="0.078" r="0.005" />
<circle cx="0.148" cy="0.412" r="0.005" />
<circle cx="0.648" cy="0.745" r="0.005" />
<circle cx="0.398" cy="0.189" r="0.005" />
<circle cx="0.898" cy="0.523" r="0.005" />
<circle cx="0.086" cy="0.856" r="0.005" />
<circle cx="0.586" cy="0.300" r="0.005" />
<circle cx="0.336" cy="0.634" r="0.005" />
<circle cx="0.836" cy="0.967" r="0.005" />
<circle cx="0.211" cy="0.016" r="0.005" />
<circle cx="0.711" cy="0.350" r="0.005" />
<circle cx="0.461" cy="0.683" r="0.005" />
<circle cx="0.961" cy="0.128" r="0.005" />
<circle cx="0.055" cy="0.461" r="0.005" />
<circle cx="0.555" cy="0.794" r="0.005" />
<circle cx="0.305" cy="0.239" r="0.005" />
<circle cx="0.805" cy="0.572" r="0.005" />
<circle cx="0.180" cy="0.905" r="0.005" />
<circle cx="0.680" cy="0.053" r="0.005" />
<circle cx="0.430" cy="0.387" r="0.005" />
<circle cx="0.930" cy="0.720" r="0.005" />
<circle cx="0.117" cy="0.165" r="0.005" />
<circle cx="0.617" cy="0.498" r="0.005" />
<circle cx="0.367" cy="0.831" r="0.005" />
<circle cx="0.867" cy="0.276" r="0.005" />
<circle cx="0.242" cy="0.609" r="0.005" />
<circle cx="0.742" cy="0.942" r="0.005" />
<circle cx="0.492" cy="0.091" r="0.005" />
<circle cx="0.992" cy="0.424" r="0.005" />
<circle cx="0.004" cy="0.757" r="0.005" />
<circle cx="0.504" cy="0.202" r="0.005" />
<circle cx="0.254" cy="0.535" r="0.005" />
<circle cx="0.754" cy="0.868" r="0.005" />
<circle cx="0.129" cy="0.313" r="0.005" />
<circle cx="0.629" cy="0.646" r="0.005" />
<circle cx="0.379" cy="0.979" r="0.005" />
<circle cx="0.879" cy="0.029" r="0.005" />
<circle cx="0.066" cy="0.362" r="0.005" />
<circle cx="0.566" cy="0.695" r="0.005" />
<circle cx="0.316" cy="0.140" r="0.005" />
<circle cx="0.816" cy="0.473" r="0.005" />
<circle cx="0.191" cy="0.807" r="0.005" />
<circle cx="0.691" cy="0.251" r="0.005" />
<circle cx="0.441" cy="0.584" r="0.005" />
<circle cx="0.941" cy="0.918" r="0.005" />
<circle cx="0.035" cy="0.066" r="0.005" />
<circle cx="0.535" cy="0.399" r="0.005" />
<circle cx="0.285" cy="0.733" r="0.005" />
<circle cx="0.785" cy="0.177" r="0.005" />
<circle cx="0.160" cy="0.510" r="0.005" />
<circle cx="0.660" cy="0.844" r="0.005" />
<circle cx="0.410" cy="0.288" r="0.005" />
<circle cx="0.910" cy="0.621" r="0.005" />
<circle cx="0.098" cy="0.955" r="0.005" />
<circle cx="0.598" cy="0.103" r="0.005" />
<circle cx="0.348" cy="0.436" r="0.005" />
<circle cx="0.848" cy="0.770" r="0.005" />
<circle cx="0.223" cy="0.214" r="0.005" />
<circle cx="0.723" cy="0.547" r="0.005" />
<circle cx="0.473" cy="0.881" r="0.005" />
<circle cx="0.973" cy="0.325" r="0.005" />
<circle cx="0.020" cy="0.658" r="0.005" />
<circle cx="0.520" cy="0.992" r="0.005" />
<circle cx="0.270" cy="0.008" r="0.005" />
<circle cx="0.770" cy="0.342" r="0.005" />
<circle cx="0.145" cy="0.675" r="0.005" />
<circle cx="0.645" cy="0.119" r="0.005" />
<circle cx="0.395" cy="0.453" r="0.005" />
<circle cx="0.895" cy="0.786" r="0.005" />
<circle cx="0.082" cy="0.230" r="0.005" />
<circle cx="0.582" cy="0.564" r="0.005" />
<circle cx="0.332" cy="0.897" r="0.005" />
<circle cx="0.832" cy="0.045" r="0.005" />
<circle cx="0.207" cy="0.379" r="0.005" />
<circle cx="0.707" cy="0.712" r="0.005" />
<circle cx="0.457" cy="0.156" r="0.005" />
<circle cx="0.957" cy="0.490" r="0.005" />
<circle cx="0.051" cy="0.823" r="0.005" />
<circle cx="0.551" cy="0.267" r="0.005" />
<circle cx="0.301" cy="0.601" r="0.005" />
<circle cx="0.801" cy="0.934" r="0.005" />
<circle cx="0.176" cy="0.082" r="0.005" />
<circle cx="0.676" cy="0.416" r="0.005" />
<circle cx="0.426" cy="0.749" r="0.005" />
<circle cx="0.926" cy="0.193" r="0.005" />
<circle cx="0.113" cy="0.527" r="0.005" />
<circle cx="0.613" cy="0.860" r="0.005" />
<circle cx="0.363" cy="0.305" r="0.005" />
<circle cx="0.863" cy="0.638" r="0.005" />
<circle cx="0.238" cy="0.971" r="0.005" />
<circle cx="0.738" cy="0.021" r="0.005" />
<circle cx="0.488" cy="0.354" r="0.005" />
<circle cx="0.988" cy="0.687" r="0.005" />
<circle cx="0.012" cy="0.132" r="0.005" />
<circle cx="0.512" cy="0.465" r="0.005" />
<circle cx="0.262" cy="0.798" r="0.005" />
<circle cx="0.762" cy="0.243" r="0.005" />
<circle cx="0.137" cy="0.576" r="0.005" />
<circle cx="0.637" cy="0.909" r="0.005" />
<circle cx="0.387" cy="0.058" r="0.005" />
<circle cx="0.887" cy="0.391" r="0.005" />
<circle cx="0.074" cy="0.724" r="0.005" />
<circle cx="0.574" cy="0.169" r="0.005" />
<circle cx="0.324" cy="0.502" r="0.005" />
<circle cx="0.824" cy="0.835" r="0.005" />
<circle cx="0.199" cy="0.280" r="0.005" />
<circle cx="0.699" cy="0.613" r="0.005" />
<circle cx="0.449" cy="0.947" r="0.005" />
<circle cx="0.949" cy="0.095" r="0.005" />
<circle cx="0.043" cy="0.428" r="0.005" />
<circle cx="0.543" cy="0.761" r="0.005" />
<circle cx="0.293" cy="0.206" r="0.005" />
<circle cx="0.793" cy="0.539" r="0.005" />
<circle cx="0.168" cy="0.872" r="0.005" />
<circle cx="0.668" cy="0.317" r="0.005" />
<circle cx="0.418" cy="0.650" r="0.005" />
<circle cx="0.918" cy="0.984" r="0.005" />
<circle cx="0.105" cy="0.033" r="0.005" />
<circle cx="0.605" cy="0.366" r="0.005" />
<circle cx="0.355" cy="0.700" r="0.005" />
<circle cx="0.855" cy="0.144" r="0.005" />
<circle cx="0.230" cy="0.477" r="0.005" />
<circle cx="0.730" cy="0.811" r="0.005" />
<circle cx="0.480" cy="0.255" r="0.005" />
<circle cx="0.980" cy="0.588" r="0.005" />
<circle cx="0.027" cy="0.922" r="0.005" />
<circle cx="0.527" cy="0.070" r="0.005" />
<circle cx="0.277" cy="0.403" r="0.005" />
<circle cx="0.777" cy="0.737" r="0.005" />
<circle cx="0.152" cy="0.181" r="0.005" />
<circle cx="0.652" cy="0.514" r="0.005" />
<circle cx="0.402" cy="0.848" r="0.005" />
<circle cx="0.902" cy="0.292" r="0.005" />
<circle cx="0.090" cy="0.626" r="0.005" />
<circle cx="0.590" cy="0.959" r="0.005" />
<circle cx="0.340" cy="0.107" r="0.005" />
<circle cx="0.840" cy="0.440" r="0.005" />
<circle cx="0.215" cy="0.774" r="0.005" />
<circle cx="0.715" cy="0.218" r="0.005" />
<circle cx="0.465" cy="0.551" r="0.005" />
<circle cx="0.965" cy="0.885" r="0.005" />
<circle cx="0.059" cy="0.329" r="0.005" />
<circle cx="0.559" cy="0.663" r="0.005" />
<circle cx="0.309" cy="0.996" r="0.005" />
<circle cx="0.809" cy="0.001" r="0.005" />
<circle cx="0.184" cy="0.335" r="0.005" />
<circle cx="0.684" cy="0.668" r="0.005" />
<circle cx="0.434" cy="0.112" r="0.005" />
<circle cx="0.934" cy="0.446" r="0.005" />
<circle cx="0.121" cy="0.779" r="0.005" />
<circle cx="0.621" cy="0.224" r="0.005" />
<circle cx="0.371" cy="0.557" r="0.005" />
<circle cx="0.871" cy="0.890" r="0.005" />
<circle cx="0.246" cy="0.038" r="0.005" />
<circle cx="0.746" cy="0.372" r="0.005" />
<circle cx="0.496" cy="0.705" r="0.005" />
<circle cx="0.996" cy="0.150" r="0.005" />
<circle cx="0.002" cy="0.483" r="0.005" />
</g>
</svg>