<svg xmlns="http://www.w3.org/2000/svg" width="161.8" height="100.0" viewBox="-3.366 -4.899 171.803 110.000">
<g fill="none" stroke="black" stroke-width="0.0049%" transform="translate(0, 100.2022) scale(101.1122, -101.1122)">
<circle cx="0.016" cy="0.100" r="0.005" />
<circle cx="0.032" cy="0.200" r="0.005" />
<circle cx="0.048" cy="0.300" r="0.005" />
<circle cx="0.065" cy="0.400" r="0.005" />
<circle cx="0.081" cy="0.500" r="0.005" />
<circle cx="0.097" cy="0.600" r="0.005" />
<circle cx="0.113" cy="0.700" r="0.005" />
<circle cx="0.129" cy="0.800" r="0.005" />
<circle cx="0.145" cy="0.900" r="0.005" />
<circle cx="0.162" cy="0.010" r="0.005" />
<circle cx="0.178" cy="0.110" r="0.005" />
<circle cx="0.194" cy="0.210" r="0.005" />
<circle cx="0.210" cy="0.310" r="0.005" />
<circle cx="0.226" cy="0.410" r="0.005" />
<circle cx="0.242" cy="0.510" r="0.005" />
<circle cx="0.259" cy="0.610" r="0.005" />
<circle cx="0.275" cy="0.710" r="0.005" />
<circle cx="0.291" cy="0.810" r="0.005" />
<circle cx="0.307" cy="0.910" r="0.005" />
<circle cx="0.323" cy="0.020" r="0.005" />
<circle cx="0.339" cy="0.120" r="0.005" />
<circle cx="0.356" cy="0.220" r="0.005" />
<circle cx="0.372" cy="0.320" r="0.005" />
<circle cx="0.388" cy="0.420" r="0.005" />
<circle cx="0.404" cy="0.520" r="0.005" />
<circle cx="0.420" cy="0.620" r="0.005" />
<circle cx="0.436" cy="0.720" r="0.005" />
<circle cx="0.453" cy="0.820" r="0.005" />
<circle cx="0.469" cy="0.920" r="0.005" />
<circle cx="0.485" cy="0.030" r="0.005" />
<circle cx="0.501" cy="0.130" r="0.005" />
<circle cx="0.517" cy="0.230" r="0.005" />
<circle cx="0.533" cy="0.330" r="0.005" />
<circle cx="0.550" cy="0.430" r="0.005" />
<circle cx="0.566" cy="0.530" r="0.005" />
<circle cx="0.582" cy="0.630" r="0.005" />
<circle cx="0.598" cy="0.730" r="0.005" />
<circle cx="0.614" cy="0.830" r="0.005" />
<circle cx="0.630" cy="0.930" r="0.005" />
<circle cx="0.647" cy="0.040" r="0.005" />
<circle cx="0.663" cy="0.140" r="0.005" />
<circle cx="0.679" cy="0.240" r="0.005" />
<circle cx="0.695" cy="0.340" r="0.005" />
<circle cx="0.711" cy="0.440" r="0.005" />
<circle cx="0.727" cy="0.540" r="0.005" />
<circle cx="0.744" cy="0.640" r="0.005" />
<circle cx="0.760" cy="0.740" r="0.005" />
<circle cx="0.776" cy="0.840" r="0.005" />
<circle cx="0.792" cy="0.940" r="0.005" />
<circle cx="0.808" cy="0.050" r="0.005" />
<circle cx="0.824" cy="0.150" r="0.005" />
<circle cx="0.841" cy="0.250" r="0.005" />
<circle cx="0.857" cy="0.350" r="0.005" />
<circle cx="0.873" cy="0.450" r="0.005" />
<circle cx="0.889" cy="0.550" r="0.005" />
<circle cx="0.905" cy="0.650" r="0.005" />
<circle cx="0.921" cy="0.750" r="0.005" />
<circle cx="0.938" cy="0.850" r="0.005" />
<circle cx="0.954" cy="0.950" r="0.005" />
<circle cx="0.970" cy="0.060" r="0.005" />
<circle cx="0.986" cy="0.160" r="0.005" />
<circle cx="1.002" cy="0.260" r="0.005" />
<circle cx="1.018" cy="0.360" r="0.005" />
<circle cx="1.034" cy="0.460" r="0.005" />
<circle cx="1.051" cy="0.560" r="0.005" />
<circle cx="1.067" cy="0.660" r="0.005" />
<circle cx="1.083" cy="0.760" r="0.005" />
<circle cx="1.099" cy="0.860" r="0.005" />
<circle cx="1.115" cy="0.960" r="0.005" />
<circle cx="1.131" cy="0.070" r="0.005" />
<circle cx="1.148" cy="0.170" r="0.005" />
<circle cx="1.164" cy="0.270" r="0.005" />
<circle cx="1.180" cy="0.370" r="0.005" />
<circle cx="1.196" cy="0.470" r="0.005" />
<circle cx="1.212" cy="0.570" r="0.005" />
<circle cx="1.228" cy="0.670" r="0.005" />
<circle cx="1.245" cy="0.770" r="0.005" />
<circle cx="1.261" cy="0.870" r="0.005" />
<circle cx="1.277" cy="0.970" r="0.005" />
<circle cx="1.293" cy="0.080" r="0.005" />
<circle cx="1.309" cy="0.180" r="0.005" />
<circle cx="1.325" cy="0.280" r="0.005" />
<circle cx="1.342" cy="0.380" r="0.005" />
<circle cx="1.358" cy="0.480" r="0.005" />
<circle cx="1.374" cy="0.580" r="0.005" />
<circle cx="1.390" cy="0.680" r="0.005" />
<circle cx="1.406" cy="0.780" r="0.005" />
<circle cx="1.422" cy="0.880" r="0.005" />
<circle cx="1.439" cy="0.980" r="0.005" />
<circle cx="1.455" cy="0.090" r="0.005" />
<circle cx="1.471" cy="0.190" r="0.005" />
<circle cx="1.487" cy="0.290" r="0.005" />
<circle cx="1.503" cy="0.390" r="0.005" />
<circle cx="1.519" cy="0.490" r="0.005" />
<circle cx="1.536" cy="0.590" r="0.005" />
<circle cx="1.552" cy="0.690" r="0.005" />
<circle cx="1.568" cy="0.790" r="0.005" />
<circle cx="1.584" cy="0.890" r="0.005" />
<circle cx="1.600" cy="0.990" r="0.005" />
<circle cx="1.616" cy="0.001" r="0.005" />
</g>
</svg>