<svg xmlns="http://www.w3.org/2000/svg" width="161.8" height="100.0" viewBox="-4.8 -4.0 171.8 110.0">
<g fill="none" stroke="black" stroke-width="0.4950%" transform="translate(0, 102.0202) scale(1.0101, -1.0101)">
<circle cx="16.2" cy="1.0" r="0.5" />
<circle cx="32.4" cy="2.0" r="0.5" />
<circle cx="48.6" cy="3.0" r="0.5" />
<circle cx="64.8" cy="4.0" r="0.5" />
<circle cx="81.0" cy="5.0" r="0.5" />
<circle cx="97.2" cy="6.0" r="0.5" />
<circle cx="113.4" cy="7.0" r="0.5" />
<circle cx="129.6" cy="8.0" r="0.5" />
<circle cx="145.8" cy="9.0" r="0.5" />
<circle cx="1.6" cy="10.0" r="0.5" />
<circle cx="17.8" cy="11.0" r="0.5" />
<circle cx="34.0" cy="12.0" r="0.5" />
<circle cx="50.2" cy="13.0" r="0.5" />
<circle cx="66.4" cy="14.0" r="0.5" />
<circle cx="82.6" cy="15.0" r="0.5" />
<circle cx="98.8" cy="16.0" r="0.5" />
<circle cx="115.0" cy="17.0" r="0.5" />
<circle cx="131.2" cy="18.0" r="0.5" />
<circle cx="147.4" cy="19.0" r="0.5" />
<circle cx="3.2" cy="20.0" r="0.5" />
<circle cx="19.4" cy="21.0" r="0.5" />
<circle cx="35.6" cy="22.0" r="0.5" />
<circle cx="51.8" cy="23.0" r="0.5" />
<circle cx="68.0" cy="24.0" r="0.5" />
<circle cx="84.2" cy="25.0" r="0.5" />
<circle cx="100.4" cy="26.0" r="0.5" />
<circle cx="116.6" cy="27.0" r="0.5" />
<circle cx="132.8" cy="28.0" r="0.5" />
<circle cx="149.0" cy="29.0" r="0.5" />
<circle cx="4.9" cy="30.0" r="0.5" />
<circle cx="21.1" cy="31.0" r="0.5" />
<circle cx="37.3" cy="32.0" r="0.5" />
<circle cx="53.4" cy="33.0" r="0.5" />
<circle cx="69.6" cy="34.0" r="0.5" />
<circle cx="85.8" cy="35.0" r="0.5" />
<circle cx="102.0" cy="36.0" r="0.5" />
<circle cx="118.2" cy="37.0" r="0.5" />
<circle cx="134.4" cy="38.0" r="0.5" />
<circle cx="150.6" cy="39.0" r="0.5" />
<circle cx="6.5" cy="40.0" r="0.5" />
<circle cx="22.7" cy="41.0" r="0.5" />
<circle cx="38.9" cy="42.0" r="0.5" />
<circle cx="55.1" cy="43.0" r="0.5" />
<circle cx="71.3" cy="44.0" r="0.5" />
<circle cx="87.5" cy="45.0" r="0.5" />
<circle cx="103.7" cy="46.0" r="0.5" />
<circle cx="119.9" cy="47.0" r="0.5" />
<circle cx="136.1" cy="48.0" r="0.5" />
<circle cx="152.2" cy="49.0" r="0.5" />
<circle cx="8.1" cy="50.0" r="0.5" />
<circle cx="24.3" cy="51.0" r="0.5" />
<circle cx="40.5" cy="52.0" r="0.5" />
<circle cx="56.7" cy="53.0" r="0.5" />
<circle cx="72.9" cy="54.0" r="0.5" />
<circle cx="89.1" cy="55.0" r="0.5" />
<circle cx="105.3" cy="56.0" r="0.5" />
<circle cx="121.5" cy="57.0" r="0.5" />
<circle cx="137.7" cy="58.0" r="0.5" />
<circle cx="153.9" cy="59.0" r="0.5" />
<circle cx="9.7" cy="60.0" r="0.5" />
<circle cx="25.9" cy="61.0" r="0.5" />
<circle cx="42.1" cy="62.0" r="0.5" />
<circle cx="58.3" cy="63.0" r="0.5" />
<circle cx="74.5" cy="64.0" r="0.5" />
<circle cx="90.7" cy="65.0" r="0.5" />
<circle cx="106.9" cy="66.0" r="0.5" />
<circle cx="123.1" cy="67.0" r="0.5" />
<circle cx="139.3" cy="68.0" r="0.5" />
<circle cx="155.5" cy="69.0" r="0.5" />
<circle cx="11.3" cy="70.0" r="0.5" />
<circle cx="27.5" cy="71.0" r="0.5" />
<circle cx="43.7" cy="72.0" r="0.5" />
<circle cx="59.9" cy="73.0" r="0.5" />
<circle cx="76.1" cy="74.0" r="0.5" />
<circle cx="92.3" cy="75.0" r="0.5" />
<circle cx="108.5" cy="76.0" r="0.5" />
<circle cx="124.7" cy="77.0" r="0.5" />
<circle cx="140.9" cy="78.0" r="0.5" />
<circle cx="157.1" cy="79.0" r="0.5" />
<circle cx="13.0" cy="80.0" r="0.5" />
<circle cx="29.2" cy="81.0" r="0.5" />
<circle cx="45.4" cy="82.0" r="0.5" />
<circle cx="61.5" cy="83.0" r="0.5" />
<circle cx="77.7" cy="84.0" r="0.5" />
<circle cx="93.9" cy="85.0" r="0.5" />
<circle cx="110.1" cy="86.0" r="0.5" />
<circle cx="126.3" cy="87.0" r="0.5" />
<circle cx="142.5" cy="88.0" r="0.5" />
<circle cx="158.7" cy="89.0" r="0.5" />
<circle cx="14.6" cy="90.0" r="0.5" />
<circle cx="30.8" cy="91.0" r="0.5" />
<circle cx="47.0" cy="92.0" r="0.5" />
<circle cx="63.2" cy="93.0" r="0.5" />
<circle cx="79.4" cy="94.0" r="0.5" />
<circle cx="95.6" cy="95.0" r="0.5" />
<circle cx="111.8" cy="96.0" r="0.5" />
<circle cx="128.0" cy="97.0" r="0.5" />
<circle cx="144.2" cy="98.0" r="0.5" />
<circle cx="160.3" cy="99.0" r="0.5" />
<circle cx="0.2" cy="100.0" r="0.5" />
</g>
</svg>