<svg xmlns="http://www.w3.org/2000/svg" width="100.2" height="100.0" viewBox="-4.607 -4.804 110.196 110.000">
<g fill="none" stroke="black" stroke-width="0.0050%" transform="translate(0, 100.3929) scale(100.5894, -100.5894)">
<circle cx="0.004" cy="0.500" r="0.005" />
<circle cx="0.008" cy="0.250" r="0.005" />
<circle cx="0.012" cy="0.750" r="0.005" />
<circle cx="0.016" cy="0.125" r="0.005" />
<circle cx="0.020" cy="0.625" r="0.005" />
<circle cx="0.023" cy="0.375" r="0.005" />
<circle cx="0.027" cy="0.875" r="0.005" />
<circle cx="0.031" cy="0.063" r="0.005" />
<circle cx="0.035" cy="0.563" r="0.005" />
<circle cx="0.039" cy="0.313" r="0.005" />
<circle cx="0.043" cy="0.813" r="0.005" />
<circle cx="0.047" cy="0.188" r="0.005" />
<circle cx="0.051" cy="0.688" r="0.005" />
<circle cx="0.055" cy="0.438" r="0.005" />
<circle cx="0.059" cy="0.938" r="0.005" />
<circle cx="0.063" cy="0.031" r="0.005" />
<circle cx="0.066" cy="0.531" r="0.005" />
<circle cx="0.070" cy="0.281" r="0.005" />
<circle cx="0.074" cy="0.781" r="0.005" />
<circle cx="0.078" cy="0.156" r="0.005" />
<circle cx="0.082" cy="0.656" r="0.005" />
<circle cx="0.086" cy="0.406" r="0.005" />
<circle cx="0.090" cy="0.906" r="0.005" />
<circle cx="0.094" cy="0.094" r="0.005" />
<circle cx="0.098" cy="0.594" r="0.005" />
<circle cx="0.102" cy="0.344" r="0.005" />
<circle cx="0.105" cy="0.844" r="0.005" />
<circle cx="0.109" cy="0.219" r="0.005" />
<circle cx="0.113" cy="0.719" r="0.005" />
<circle cx="0.117" cy="0.469" r="0.005" />
<circle cx="0.121" cy="0.969" r="0.005" />
<circle cx="0.125" cy="0.016" r="0.005" />
<circle cx="0.129" cy="0.516" r="0.005" />
<circle cx="0.133" cy="0.266" r="0.005" />
<circle cx="0.137" cy="0.766" r="0.005" />
<circle cx="0.141" cy="0.141" r="0.005" />
<circle cx="0.145" cy="0.641" r="0.005" />
<circle cx="0.148" cy="0.391" r="0.005" />
<circle cx="0.152" cy="0.891" r="0.005" />
<circle cx="0.156" cy="0.078" r="0.005" />
<circle cx="0.160" cy="0.578" r="0.005" />
<circle cx="0.164" cy="0.328" r="0.005" />
<circle cx="0.168" cy="0.828" r="0.005" />
<circle cx="0.172" cy="0.203" r="0.005" />
<circle cx="0.176" cy="0.703" r="0.005" />
<circle cx="0.180" cy="0.453" r="0.005" />
<circle cx="0.184" cy="0.953" r="0.005" />
<circle cx="0.188" cy="0.047" r="0.005" />
<circle cx="0.191" cy="0.547" r="0.005" />
<circle cx="0.195" cy="0.297" r="0.005" />
<circle cx="0.199" cy="0.797" r="0.005" />
<circle cx="0.203" cy="0.172" r="0.005" />
<circle cx="0.207" cy="0.672" r="0.005" />
<circle cx="0.211" cy="0.422" r="0.005" />
<circle cx="0.215" cy="0.922" r="0.005" />
<circle cx="0.219" cy="0.109" r="0.005" />
<circle cx="0.223" cy="0.609" r="0.005" />
<circle cx="0.227" cy="0.359" r="0.005" />
<circle cx="0.230" cy="0.859" r="0.005" />
<circle cx="0.234" cy="0.234" r="0.005" />
<circle cx="0.238" cy="0.734" r="0.005" />
<circle cx="0.242" cy="0.484" r="0.005" />
<circle cx="0.246" cy="0.984" r="0.005" />
<circle cx="0.250" cy="0.008" r="0.005" />
<circle cx="0.254" cy="0.508" r="0.005" />
<circle cx="0.258" cy="0.258" r="0.005" />
<circle cx="0.262" cy="0.758" r="0.005" />
<circle cx="0.266" cy="0.133" r="0.005" />
<circle cx="0.270" cy="0.633" r="0.005" />
<circle cx="0.273" cy="0.383" r="0.005" />
<circle cx="0.277" cy="0.883" r="0.005" />
<circle cx="0.281" cy="0.070" r="0.005" />
<circle cx="0.285" cy="0.570" r="0.005" />
<circle cx="0.289" cy="0.320" r="0.005" />
<circle cx="0.293" cy="0.820" r="0.005" />
<circle cx="0.297" cy="0.195" r="0.005" />
<circle cx="0.301" cy="0.695" r="0.005" />
<circle cx="0.305" cy="0.445" r="0.005" />
<circle cx="0.309" cy="0.945" r="0.005" />
<circle cx="0.313" cy="0.039" r="0.005" />
<circle cx="0.316" cy="0.539" r="0.005" />
<circle cx="0.320" cy="0.289" r="0.005" />
<circle cx="0.324" cy="0.789" r="0.005" />
<circle cx="0.328" cy="0.164" r="0.005" />
<circle cx="0.332" cy="0.664" r="0.005" />
<circle cx="0.336" cy="0.414" r="0.005" />
<circle cx="0.340" cy="0.914" r="0.005" />
<circle cx="0.344" cy="0.102" r="0.005" />
<circle cx="0.348" cy="0.602" r="0.005" />
<circle cx="0.352" cy="0.352" r="0.005" />
<circle cx="0.355" cy="0.852" r="0.005" />
<circle cx="0.359" cy="0.227" r="0.005" />
<circle cx="0.363" cy="0.727" r="0.005" />
<circle cx="0.367" cy="0.477" r="0.005" />
<circle cx="0.371" cy="0.977" r="0.005" />
<circle cx="0.375" cy="0.023" r="0.005" />
<circle cx="0.379" cy="0.523" r="0.005" />
<circle cx="0.383" cy="0.273" r="0.005" />
<circle cx="0.387" cy="0.773" r="0.005" />
<circle cx="0.391" cy="0.148" r="0.005" />
<circle cx="0.395" cy="0.648" r="0.005" />
<circle cx="0.398" cy="0.398" r="0.005" />
<circle cx="0.402" cy="0.898" r="0.005" />
<circle cx="0.406" cy="0.086" r="0.005" />
<circle cx="0.410" cy="0.586" r="0.005" />
<circle cx="0.414" cy="0.336" r="0.005" />
<circle cx="0.418" cy="0.836" r="0.005" />
<circle cx="0.422" cy="0.211" r="0.005" />
<circle cx="0.426" cy="0.711" r="0.005" />
<circle cx="0.430" cy="0.461" r="0.005" />
<circle cx="0.434" cy="0.961" r="0.005" />
<circle cx="0.438" cy="0.055" r="0.005" />
<circle cx="0.441" cy="0.555" r="0.005" />
<circle cx="0.445" cy="0.305" r="0.005" />
<circle cx="0.449" cy="0.805" r="0.005" />
<circle cx="0.453" cy="0.180" r="0.005" />
<circle cx="0.457" cy="0.680" r="0.005" />
<circle cx="0.461" cy="0.430" r="0.005" />
<circle cx="0.465" cy="0.930" r="0.005" />
<circle cx="0.469" cy="0.117" r="0.005" />
<circle cx="0.473" cy="0.617" r="0.005" />
<circle cx="0.477" cy="0.367" r="0.005" />
<circle cx="0.480" cy="0.867" r="0.005" />
<circle cx="0.484" cy="0.242" r="0.005" />
<circle cx="0.488" cy="0.742" r="0.005" />
<circle cx="0.492" cy="0.492" r="0.005" />
<circle cx="0.496" cy="0.992" r="0.005" />
<circle cx="0.500" cy="0.004" r="0.005" />
<circle cx="0.504" cy="0.504" r="0.005" />
<circle cx="0.508" cy="0.254" r="0.005" />
<circle cx="0.512" cy="0.754" r="0.005" />
<circle cx="0.516" cy="0.129" r="0.005" />
<circle cx="0.520" cy="0.629" r="0.005" />
<circle cx="0.523" cy="0.379" r="0.005" />
<circle cx="0.527" cy="0.879" r="0.005" />
<circle cx="0.531" cy="0.066" r="0.005" />
<circle cx="0.535" cy="0.566" r="0.005" />
<circle cx="0.539" cy="0.316" r="0.005" />
<circle cx="0.543" cy="0.816" r="0.005" />
<circle cx="0.547" cy="0.191" r="0.005" />
<circle cx="0.551" cy="0.691" r="0.005" />
<circle cx="0.555" cy="0.441" r="0.005" />
<circle cx="0.559" cy="0.941" r="0.005" />
<circle cx="0.563" cy="0.035" r="0.005" />
<circle cx="0.566" cy="0.535" r="0.005" />
<circle cx="0.570" cy="0.285" r="0.005" />
<circle cx="0.574" cy="0.785" r="0.005" />
<circle cx="0.578" cy="0.160" r="0.005" />
<circle cx="0.582" cy="0.660" r="0.005" />
<circle cx="0.586" cy="0.410" r="0.005" />
<circle cx="0.590" cy="0.910" r="0.005" />
<circle cx="0.594" cy="0.098" r="0.005" />
<circle cx="0.598" cy="0.598" r="0.005" />
<circle cx="0.602" cy="0.348" r="0.005" />
<circle cx="0.605" cy="0.848" r="0.005" />
<circle cx="0.609" cy="0.223" r="0.005" />
<circle cx="0.613" cy="0.723" r="0.005" />
<circle cx="0.617" cy="0.473" r="0.005" />
<circle cx="0.621" cy="0.973" r="0.005" />
<circle cx="0.625" cy="0.020" r="0.005" />
<circle cx="0.629" cy="0.520" r="0.005" />
<circle cx="0.633" cy="0.270" r="0.005" />
<circle cx="0.637" cy="0.770" r="0.005" />
<circle cx="0.641" cy="0.145" r="0.005" />
<circle cx="0.645" cy="0.645" r="0.005" />
<circle cx="0.648" cy="0.395" r="0.005" />
<circle cx="0.652" cy="0.895" r="0.005" />
<circle cx="0.656" cy="0.082" r="0.005" />
<circle cx="0.660" cy="0.582" r="0.005" />
<circle cx="0.664" cy="0.332" r="0.005" />
<circle cx="0.668" cy="0.832" r="0.005" />
<circle cx="0.672" cy="0.207" r="0.005" />
<circle cx="0.676" cy="0.707" r="0.005" />
<circle cx="0.680" cy="0.457" r="0.005" />
<circle cx="0.684" cy="0.957" r="0.005" />
<circle cx="0.688" cy="0.051" r="0.005" />
<circle cx="0.691" cy="0.551" r="0.005" />
<circle cx="0.695" cy="0.301" r="0.005" />
<circle cx="0.699" cy="0.801" r="0.005" />
<circle cx="0.703" cy="0.176" r="0.005" />
<circle cx="0.707" cy="0.676" r="0.005" />
<circle cx="0.711" cy="0.426" r="0.005" />
<circle cx="0.715" cy="0.926" r="0.005" />
<circle cx="0.719" cy="0.113" r="0.005" />
<circle cx="0.723" cy="0.613" r="0.005" />
<circle cx="0.727" cy="0.363" r="0.005" />
<circle cx="0.730" cy="0.863" r="0.005" />
<circle cx="0.734" cy="0.238" r="0.005" />
<circle cx="0.738" cy="0.738" r="0.005" />
<circle cx="0.742" cy="0.488" r="0.005" />
<circle cx="0.746" cy="0.988" r="0.005" />
<circle cx="0.750" cy="0.012" r="0.005" />
<circle cx="0.754" cy="0.512" r="0.005" />
<circle cx="0.758" cy="0.262" r="0.005" />
<circle cx="0.762" cy="0.762" r="0.005" />
<circle cx="0.766" cy="0.137" r="0.005" />
<circle cx="0.770" cy="0.637" r="0.005" />
<circle cx="0.773" cy="0.387" r="0.005" />
<circle cx="0.777" cy="0.887" r="0.005" />
<circle cx="0.781" cy="0.074" r="0.005" />
<circle cx="0.785" cy="0.574" r="0.005" />
<circle cx="0.789" cy="0.324" r="0.005" />
<circle cx="0.793" cy="0.824" r="0.005" />
<circle cx="0.797" cy="0.199" r="0.005" />
<circle cx="0.801" cy="0.699" r="0.005" />
<circle cx="0.805" cy="0.449" r="0.005" />
<circle cx="0.809" cy="0.949" r="0.005" />
<circle cx="0.813" cy="0.043" r="0.005" />
<circle cx="0.816" cy="0.543" r="0.005" />
<circle cx="0.820" cy="0.293" r="0.005" />
<circle cx="0.824" cy="0.793" r="0.005" />
<circle cx="0.828" cy="0.168" r="0.005" />
<circle cx="0.832" cy="0.668" r="0.005" />
<circle cx="0.836" cy="0.418" r="0.005" />
<circle cx="0.840" cy="0.918" r="0.005" />
<circle cx="0.844" cy="0.105" r="0.005" />
<circle cx="0.848" cy="0.605" r="0.005" />
<circle cx="0.852" cy="0.355" r="0.005" />
<circle cx="0.855" cy="0.855" r="0.005" />
<circle cx="0.859" cy="0.230" r="0.005" />
<circle cx="0.863" cy="0.730" r="0.005" />
<circle cx="0.867" cy="0.480" r="0.005" />
<circle cx="0.871" cy="0.980" r="0.005" />
<circle cx="0.875" cy="0.027" r="0.005" />
<circle cx="0.879" cy="0.527" r="0.005" />
<circle cx="0.883" cy="0.277" r="0.005" />
<circle cx="0.887" cy="0.777" r="0.005" />
<circle cx="0.891" cy="0.152" r="0.005" />
<circle cx="0.895" cy="0.652" r="0.005" />
<circle cx="0.898" cy="0.402" r="0.005" />
<circle cx="0.902" cy="0.902" r="0.005" />
<circle cx="0.906" cy="0.090" r="0.005" />
<circle cx="0.910" cy="0.590" r="0.005" />
<circle cx="0.914" cy="0.340" r="0.005" />
<circle cx="0.918" cy="0.840" r="0.005" />
<circle cx="0.922" cy="0.215" r="0.005" />
<circle cx="0.926" cy="0.715" r="0.005" />
<circle cx="0.930" cy="0.465" r="0.005" />
<circle cx="0.934" cy="0.965" r="0.005" />
<circle cx="0.938" cy="0.059" r="0.005" />
<circle cx="0.941" cy="0.559" r="0.005" />
<circle cx="0.945" cy="0.309" r="0.005" />
<circle cx="0.949" cy="0.809" r="0.005" />
<circle cx="0.953" cy="0.184" r="0.005" />
<circle cx="0.957" cy="0.684" r="0.005" />
<circle cx="0.961" cy="0.434" r="0.005" />
<circle cx="0.965" cy="0.934" r="0.005" />
<circle cx="0.969" cy="0.121" r="0.005" />
<circle cx="0.973" cy="0.621" r="0.005" />
<circle cx="0.977" cy="0.371" r="0.005" />
<circle cx="0.980" cy="0.871" r="0.005" />
<circle cx="0.984" cy="0.246" r="0.005" />
<circle cx="0.988" cy="0.746" r="0.005" />
<circle cx="0.992" cy="0.496" r="0.005" />
<circle cx="0.996" cy="0.996" r="0.005" />
<circle cx="1.000" cy="0.002" r="0.005" />
</g>
</svg>