<svg xmlns="http://www.w3.org/2000/svg" width="161.8" height="100.0" viewBox="-4.459 -4.899 171.803 110.000">
<g fill="none" stroke="black" stroke-width="0.0050%" transform="translate(0, 100.2018) scale(100.9082, -100.9082)">
<polyline points="0.005,0.100 0.011,0.200 0.016,0.300 0.021,0.400 0.027,0.500 0.032,0.600 0.038,0.700 0.043,0.800 0.048,0.900 0.054,0.010 0.059,0.110 0.064,0.210 0.070,0.310 0.075,0.410 0.080,0.510 0.086,0.610 0.091,0.710 0.097,0.810 0.102,0.910 0.107,0.020 0.113,0.120 0.118,0.220 0.123,0.320 0.129,0.420 0.134,0.520 0.139,0.620 0.145,0.720 0.150,0.820 0.156,0.920 0.161,0.030 0.166,0.130 0.172,0.230 0.177,0.330 0.182,0.430 0.188,0.530 0.193,0.630 0.198,0.730 0.204,0.830 0.209,0.930 0.215,0.040 0.220,0.140 0.225,0.240 0.231,0.340 0.236,0.440 0.241,0.540 0.247,0.640 0.252,0.740 0.257,0.840 0.263,0.940 0.268,0.050 0.274,0.150 0.279,0.250 0.284,0.350 0.290,0.450 0.295,0.550 0.300,0.650 0.306,0.750 0.311,0.850 0.316,0.950 0.322,0.060 0.327,0.160 0.332,0.260 0.338,0.360 0.343,0.460 0.349,0.560 0.354,0.660 0.359,0.760 0.365,0.860 0.370,0.960 0.375,0.070 0.381,0.170 0.386,0.270 0.391,0.370 0.397,0.470 0.402,0.570 0.408,0.670 0.413,0.770 0.418,0.870 0.424,0.970 0.429,0.080 0.434,0.180 0.440,0.280 0.445,0.380 0.450,0.480 0.456,0.580 0.461,0.680 0.467,0.780 0.472,0.880 0.477,0.980 0.483,0.090 0.488,0.190 0.493,0.290 0.499,0.390 0.504,0.490 0.509,0.590 0.515,0.690 0.520,0.790 0.526,0.890 0.531,0.990 0.536,0.001 0.542,0.101 0.547,0.201 0.552,0.301 0.558,0.401 0.563,0.501 0.568,0.601 0.574,0.701 0.579,0.801 0.585,0.901 0.590,0.011 0.595,0.111 0.601,0.211 0.606,0.311 0.611,0.411 0.617,0.511 0.622,0.611 0.627,0.711 0.633,0.811 0.638,0.911 0.644,0.021 0.649,0.121 0.654,0.221 0.660,0.321 0.665,0.421 0.670,0.521 0.676,0.621 0.681,0.721 0.686,0.821 0.692,0.921 0.697,0.031 0.703,0.131 0.708,0.231 0.713,0.331 0.719,0.431 0.724,0.531 0.729,0.631 0.735,0.731 0.740,0.831 0.745,0.931 0.751,0.041 0.756,0.141 0.762,0.241 0.767,0.341 0.772,0.441 0.778,0.541 0.783,0.641 0.788,0.741 0.794,0.841 0.799,0.941 0.804,0.051 0.810,0.151 0.815,0.251 0.821,0.351 0.826,0.451 0.831,0.551 0.837,0.651 0.842,0.751 0.847,0.851 0.853,0.951 0.858,0.061 0.863,0.161 0.869,0.261 0.874,0.361 0.879,0.461 0.885,0.561 0.890,0.661 0.896,0.761 0.901,0.861 0.906,0.961 0.912,0.071 0.917,0.171 0.922,0.271 0.928,0.371 0.933,0.471 0.938,0.571 0.944,0.671 0.949,0.771 0.955,0.871 0.960,0.971 0.965,0.081 0.971,0.181 0.976,0.281 0.981,0.381 0.987,0.481 0.992,0.581 0.997,0.681 1.003,0.781 1.008,0.881 1.014,0.981 1.019,0.091 1.024,0.191 1.030,0.291 1.035,0.391 1.040,0.491 1.046,0.591 1.051,0.691 1.056,0.791 1.062,0.891 1.067,0.991 1.073,0.002 1.078,0.102 1.083,0.202 1.089,0.302 1.094,0.402 1.099,0.502 1.105,0.602 1.110,0.702 1.115,0.802 1.121,0.902 1.126,0.012 1.132,0.112 1.137,0.212 1.142,0.312 1.148,0.412 1.153,0.512 1.158,0.612 1.164,0.712 1.169,0.812 1.174,0.912 1.180,0.022 1.185,0.122 1.191,0.222 1.196,0.322 1.201,0.422 1.207,0.522 1.212,0.622 1.217,0.722 1.223,0.822 1.228,0.922 1.233,0.032 1.239,0.132 1.244,0.232 1.250,0.332 1.255,0.432 1.260,0.532 1.266,0.632 1.271,0.732 1.276,0.832 1.282,0.932 1.287,0.042 1.292,0.142 1.298,0.242 1.303,0.342 1.309,0.442 1.314,0.542 1.319,0.642 1.325,0.742 1.330,0.842 1.335,0.942 1.341,0.052 1.346,0.152 1.351,0.252 1.357,0.352 1.362,0.452 1.368,0.552 1.373,0.652 1.378,0.752 1.384,0.852 1.389,0.952 1.394,0.062 1.400,0.162 1.405,0.262 1.410,0.362 1.416,0.462 1.421,0.562 1.426,0.662 1.432,0.762 1.437,0.862 1.443,0.962 1.448,0.072 1.453,0.172 1.459,0.272 1.464,0.372 1.469,0.472 1.475,0.572 1.480,0.672 1.485,0.772 1.491,0.872 1.496,0.972 1.502,0.082 1.507,0.182 1.512,0.282 1.518,0.382 1.523,0.482 1.528,0.582 1.534,0.682 1.539,0.782 1.544,0.882 1.550,0.982 1.555,0.092 1.561,0.192 1.566,0.292 1.571,0.392 1.577,0.492 1.582,0.592 1.587,0.692 1.593,0.792 1.598,0.892 1.603,0.992 1.609,0.003" />
</g>
</svg>