<svg xmlns="http://www.w3.org/2000/svg" width="161.80" height="100.00" viewBox="-4.46 -4.90 171.80 110.00">
<g fill="none" stroke="black" stroke-width="4.95%" transform="translate(0, 100.20) scale(0.10, -0.10)">
<polyline points="5.36,1.00 10.71,1.00 16.07,3.00 21.43,2.00 26.79,1.00 32.14,3.00 37.50,7.00 42.86,4.00 48.22,9.00 53.57,1.00 58.93,11.00 64.29,21.00 69.65,31.00 75.00,41.00 80.36,51.00 85.72,61.00 91.08,71.00 96.43,81.00 101.79,91.00 107.15,1.00 112.50,3.00 117.86,11.00 123.22,8.00 128.58,21.00 133.93,13.00 139.29,31.00 144.65,18.00 150.01,41.00 155.36,23.00 160.72,3.00 166.08,13.00 171.44,23.00 176.79,33.00 182.15,43.00 187.51,53.00 192.87,63.00 198.22,73.00 203.58,83.00 208.94,93.00 214.29,1.00 219.65,7.00 225.01,6.00 230.37,17.00 235.72,11.00 241.08,27.00 246.44,16.00 251.80,37.00 257.15,21.00 262.51,47.00 267.87,1.00 273.23,3.00 278.58,1.00 283.94,7.00 289.30,9.00 294.66,11.00 300.01,13.00 305.37,3.00 310.73,17.00 316.08,19.00 321.44,3.00 326.80,4.00 332.16,13.00 337.51,9.00 342.87,23.00 348.23,14.00 353.59,33.00 358.94,19.00 364.30,43.00 369.66,24.00 375.02,7.00 380.37,17.00 385.73,27.00 391.09,37.00 396.45,47.00 401.80,57.00 407.16,67.00 412.52,77.00 417.87,87.00 423.23,97.00 428.59,2.00 433.95,9.00 439.30,7.00 444.66,19.00 450.02,12.00 455.38,29.00 460.73,17.00 466.09,39.00 471.45,22.00 476.81,49.00 482.16,9.00 487.52,19.00 492.88,29.00 498.24,39.00 503.59,49.00 508.95,59.00 514.31,69.00 519.66,79.00 525.02,89.00 530.38,99.00 535.74,1.00 541.09,101.00 546.45,201.00 551.81,301.00 557.17,401.00 562.52,501.00 567.88,601.00 573.24,701.00 578.60,801.00 583.95,901.00 589.31,11.00 594.67,111.00 600.03,211.00 605.38,311.00 610.74,411.00 616.10,511.00 621.45,611.00 626.81,711.00 632.17,811.00 637.53,911.00 642.88,21.00 648.24,121.00 653.60,221.00 658.96,321.00 664.31,421.00 669.67,521.00 675.03,621.00 680.39,721.00 685.74,821.00 691.10,921.00 696.46,31.00 701.82,131.00 707.17,231.00 712.53,331.00 717.89,431.00 723.24,531.00 728.60,631.00 733.96,731.00 739.32,831.00 744.67,931.00 750.03,41.00 755.39,141.00 760.75,241.00 766.10,341.00 771.46,441.00 776.82,541.00 782.18,641.00 787.53,741.00 792.89,841.00 798.25,941.00 803.61,51.00 808.96,151.00 814.32,251.00 819.68,351.00 825.03,451.00 830.39,551.00 835.75,651.00 841.11,751.00 846.46,851.00 851.82,951.00 857.18,61.00 862.54,161.00 867.89,261.00 873.25,361.00 878.61,461.00 883.97,561.00 889.32,661.00 894.68,761.00 900.04,861.00 905.40,961.00 910.75,71.00 916.11,171.00 921.47,271.00 926.83,371.00 932.18,471.00 937.54,571.00 942.90,671.00 948.25,771.00 953.61,871.00 958.97,971.00 964.33,81.00 969.68,181.00 975.04,281.00 980.40,381.00 985.76,481.00 991.11,581.00 996.47,681.00 1001.83,781.00 1007.19,881.00 1012.54,981.00 1017.90,91.00 1023.26,191.00 1028.62,291.00 1033.97,391.00 1039.33,491.00 1044.69,591.00 1050.04,691.00 1055.40,791.00 1060.76,891.00 1066.12,991.00 1071.47,1.00 1076.83,51.00 1082.19,101.00 1087.55,151.00 1092.90,201.00 1098.26,251.00 1103.62,301.00 1108.98,351.00 1114.33,401.00 1119.69,451.00 1125.05,3.00 1130.41,14.00 1135.76,53.00 1141.12,39.00 1146.48,103.00 1151.83,64.00 1157.19,153.00 1162.55,89.00 1167.91,203.00 1173.26,114.00 1178.62,11.00 1183.98,61.00 1189.34,111.00 1194.69,161.00 1200.05,211.00 1205.41,261.00 1210.77,311.00 1216.12,361.00 1221.48,411.00 1226.84,461.00 1232.20,4.00 1237.55,33.00 1242.91,29.00 1248.27,83.00 1253.62,54.00 1258.98,133.00 1264.34,79.00 1269.70,183.00 1275.05,104.00 1280.41,233.00 1285.77,21.00 1291.13,71.00 1296.48,121.00 1301.84,171.00 1307.20,221.00 1312.56,271.00 1317.91,321.00 1323.27,371.00 1328.63,421.00 1333.99,471.00 1339.34,13.00 1344.70,19.00 1350.06,63.00 1355.41,44.00 1360.77,113.00 1366.13,69.00 1371.49,163.00 1376.84,94.00 1382.20,213.00 1387.56,119.00 1392.92,31.00 1398.27,81.00 1403.63,131.00 1408.99,181.00 1414.35,231.00 1419.70,281.00 1425.06,331.00 1430.42,381.00 1435.78,431.00 1441.13,481.00 1446.49,9.00 1451.85,43.00 1457.20,34.00 1462.56,93.00 1467.92,59.00 1473.28,143.00 1478.63,84.00 1483.99,193.00 1489.35,109.00 1494.71,243.00 1500.06,41.00 1505.42,91.00 1510.78,141.00 1516.14,191.00 1521.49,241.00 1526.85,291.00 1532.21,341.00 1537.57,391.00 1542.92,441.00 1548.28,491.00 1553.64,23.00 1558.99,24.00 1564.35,73.00 1569.71,49.00 1575.07,123.00 1580.42,74.00 1585.78,173.00 1591.14,99.00 1596.50,223.00 1601.85,124.00 1607.21,3.00" />
</g>
</svg>