<svg xmlns="http://www.w3.org/2000/svg" width="161.8" height="100.0" viewBox="-0 -5 172 110">
<g fill="none" stroke="black" stroke-width="29.2100%" transform="translate(0, 100.0000) scale(0.0171, -0.0171)">
<line x1="278" y1="0" x2="278" y2="1" />

<line x1="834" y1="0" x2="834" y2="1" />
<line x1="1112" y1="0" x2="1112" y2="1" />
<line x1="1390" y1="0" x2="1390" y2="1" />
<line x1="1668" y1="0" x2="1668" y2="2" />
<line x1="1946" y1="0" x2="1946" y2="2" />
<line x1="2224" y1="0" x2="2224" y2="3" />
<line x1="2502" y1="0" x2="2502" y2="4" />
<line x1="2780" y1="0" x2="2780" y2="5" />
<line x1="3058" y1="0" x2="3058" y2="7" />
<line x1="3336" y1="0" x2="3336" y2="9" />
<line x1="3614" y1="0" x2="3614" y2="12" />
<line x1="3892" y1="0" x2="3892" y2="16" />
<line x1="4170" y1="0" x2="4170" y2="21" />
<line x1="4448" y1="0" x2="4448" y2="28" />
<line x1="4726" y1="0" x2="4726" y2="37" />
<line x1="5004" y1="0" x2="5004" y2="49" />
<line x1="5282" y1="0" x2="5282" y2="65" />
<line x1="5560" y1="0" x2="5560" y2="86" />
<line x1="5838" y1="0" x2="5838" y2="114" />
<line x1="6116" y1="0" x2="6116" y2="151" />
<line x1="6394" y1="0" x2="6394" y2="200" />
<line x1="6672" y1="0" x2="6672" y2="265" />
<line x1="6950" y1="0" x2="6950" y2="351" />
<line x1="7228" y1="0" x2="7228" y2="465" />
<line x1="7506" y1="0" x2="7506" y2="616" />
<line x1="7784" y1="0" x2="7784" y2="816" />
<line x1="8062" y1="0" x2="8062" y2="1081" />
<line x1="8340" y1="0" x2="8340" y2="1432" />
<line x1="8619" y1="0" x2="8619" y2="1897" />
<line x1="8897" y1="0" x2="8897" y2="2513" />
<line x1="9175" y1="0" x2="9175" y2="3329" />
<line x1="9453" y1="0" x2="9453" y2="4410" />
<line x1="9731" y1="0" x2="9731" y2="5842" />
</g>
</svg>