<svg xmlns="http://www.w3.org/2000/svg" width="161.8" height="100.0" viewBox="-4.35 -5.00 171.80 110.00">
<g fill="none" stroke="black" stroke-width="0.0254%" transform="translate(0, 100.0000) scale(19.6556, -19.6556)">
<circle cx="0.03" cy="0.00" r="0.03" />
<circle cx="0.13" cy="0.00" r="0.03" />
<circle cx="0.17" cy="1.10" r="0.03" />
<circle cx="0.23" cy="1.10" r="0.03" />
<circle cx="0.26" cy="0.69" r="0.03" />
<circle cx="0.33" cy="1.10" r="0.03" />
<circle cx="0.36" cy="1.10" r="0.03" />
<circle cx="0.40" cy="0.00" r="0.03" />
<circle cx="0.43" cy="2.08" r="0.03" />
<circle cx="0.50" cy="1.61" r="0.03" />
<circle cx="0.56" cy="0.69" r="0.03" />
<circle cx="0.60" cy="2.20" r="0.03" />
<circle cx="0.66" cy="1.10" r="0.03" />
<circle cx="0.69" cy="2.20" r="0.03" />
<circle cx="0.73" cy="1.10" r="0.03" />
<circle cx="0.76" cy="0.69" r="0.03" />
<circle cx="0.79" cy="1.79" r="0.03" />
<circle cx="0.86" cy="1.79" r="0.03" />
<circle cx="0.89" cy="0.69" r="0.03" />
<circle cx="0.93" cy="1.39" r="0.03" />
<circle cx="0.99" cy="1.39" r="0.03" />
<circle cx="1.02" cy="0.69" r="0.03" />
<circle cx="1.06" cy="1.39" r="0.03" />
<circle cx="1.09" cy="0.69" r="0.03" />
<circle cx="1.12" cy="0.69" r="0.03" />
<circle cx="1.16" cy="0.00" r="0.03" />
<circle cx="1.19" cy="3.14" r="0.03" />
<circle cx="1.26" cy="2.08" r="0.03" />
<circle cx="1.29" cy="3.22" r="0.03" />
<circle cx="1.36" cy="1.10" r="0.03" />
<circle cx="1.39" cy="2.94" r="0.03" />
<circle cx="1.45" cy="1.10" r="0.03" />
<circle cx="1.49" cy="1.10" r="0.03" />
<circle cx="1.52" cy="0.00" r="0.03" />
<circle cx="1.55" cy="2.40" r="0.03" />
<circle cx="1.62" cy="1.61" r="0.03" />
<circle cx="1.65" cy="3.53" r="0.03" />
<circle cx="1.72" cy="1.10" r="0.03" />
<circle cx="1.75" cy="1.95" r="0.03" />
<circle cx="1.82" cy="1.10" r="0.03" />
<circle cx="1.85" cy="1.10" r="0.03" />
<circle cx="1.88" cy="0.00" r="0.03" />
<circle cx="1.92" cy="2.40" r="0.03" />
<circle cx="1.95" cy="2.40" r="0.03" />
<circle cx="1.98" cy="0.00" r="0.03" />
<circle cx="2.02" cy="1.10" r="0.03" />
<circle cx="2.05" cy="1.61" r="0.03" />
<circle cx="2.08" cy="2.56" r="0.03" />
<circle cx="2.15" cy="2.30" r="0.03" />
<circle cx="2.22" cy="0.69" r="0.03" />
<circle cx="2.25" cy="3.50" r="0.03" />
<circle cx="2.31" cy="1.10" r="0.03" />
<circle cx="2.35" cy="2.20" r="0.03" />
<circle cx="2.38" cy="3.91" r="0.03" />
<circle cx="2.45" cy="1.39" r="0.03" />
<circle cx="2.48" cy="3.74" r="0.03" />
<circle cx="2.55" cy="1.10" r="0.03" />
<circle cx="2.58" cy="1.95" r="0.03" />
<circle cx="2.61" cy="3.22" r="0.03" />
<circle cx="2.64" cy="3.69" r="0.03" />
<circle cx="2.71" cy="1.61" r="0.03" />
<circle cx="2.74" cy="3.00" r="0.03" />
<circle cx="2.81" cy="1.10" r="0.03" />
<circle cx="2.84" cy="2.08" r="0.03" />
<circle cx="2.88" cy="3.87" r="0.03" />
<circle cx="2.94" cy="1.39" r="0.03" />
<circle cx="2.98" cy="2.71" r="0.03" />
<circle cx="3.04" cy="1.10" r="0.03" />
<circle cx="3.07" cy="1.95" r="0.03" />
<circle cx="3.11" cy="2.71" r="0.03" />
<circle cx="3.14" cy="1.39" r="0.03" />
<circle cx="3.17" cy="1.79" r="0.03" />
<circle cx="3.21" cy="4.25" r="0.03" />
<circle cx="3.27" cy="1.95" r="0.03" />
<circle cx="3.31" cy="1.79" r="0.03" />
<circle cx="3.34" cy="1.39" r="0.03" />
<circle cx="3.37" cy="1.79" r="0.03" />
<circle cx="3.41" cy="0.69" r="0.03" />
<circle cx="3.44" cy="3.58" r="0.03" />
<circle cx="3.50" cy="1.95" r="0.03" />
<circle cx="3.54" cy="1.95" r="0.03" />
<circle cx="3.57" cy="0.00" r="0.03" />
<circle cx="3.60" cy="3.87" r="0.03" />
<circle cx="3.64" cy="3.09" r="0.03" />
<circle cx="3.70" cy="1.79" r="0.03" />
<circle cx="3.74" cy="2.30" r="0.03" />
<circle cx="3.77" cy="3.87" r="0.03" />
<circle cx="3.80" cy="1.61" r="0.03" />
<circle cx="3.83" cy="3.50" r="0.03" />
<circle cx="3.87" cy="3.87" r="0.03" />
<circle cx="3.90" cy="1.10" r="0.03" />
<circle cx="3.93" cy="3.26" r="0.03" />
<circle cx="4.00" cy="2.20" r="0.03" />
<circle cx="4.03" cy="3.91" r="0.03" />
<circle cx="4.07" cy="3.91" r="0.03" />
<circle cx="4.10" cy="0.00" r="0.03" />
<circle cx="4.13" cy="2.77" r="0.03" />
<circle cx="4.20" cy="1.79" r="0.03" />
<circle cx="4.23" cy="2.71" r="0.03" />
<circle cx="4.26" cy="3.53" r="0.03" />
<circle cx="4.30" cy="4.37" r="0.03" />
<circle cx="4.36" cy="1.61" r="0.03" />
<circle cx="4.40" cy="2.83" r="0.03" />
<circle cx="4.46" cy="1.10" r="0.03" />
<circle cx="4.50" cy="2.83" r="0.03" />
<circle cx="4.53" cy="1.10" r="0.03" />
<circle cx="4.56" cy="0.69" r="0.03" />
<circle cx="4.60" cy="3.56" r="0.03" />
<circle cx="4.66" cy="1.79" r="0.03" />
<circle cx="4.69" cy="2.64" r="0.03" />
<circle cx="4.76" cy="1.10" r="0.03" />
<circle cx="4.79" cy="1.95" r="0.03" />
<circle cx="4.83" cy="3.64" r="0.03" />
<circle cx="4.89" cy="1.39" r="0.03" />
<circle cx="4.93" cy="3.85" r="0.03" />
<circle cx="4.99" cy="1.10" r="0.03" />
<circle cx="5.03" cy="1.95" r="0.03" />
<circle cx="5.06" cy="1.95" r="0.03" />
<circle cx="5.09" cy="0.00" r="0.03" />
<circle cx="5.12" cy="3.40" r="0.03" />
<circle cx="5.19" cy="1.79" r="0.03" />
<circle cx="5.22" cy="2.77" r="0.03" />
<circle cx="5.26" cy="3.50" r="0.03" />
<circle cx="5.29" cy="3.76" r="0.03" />
<circle cx="5.36" cy="1.61" r="0.03" />
<circle cx="5.39" cy="3.40" r="0.03" />
<circle cx="5.42" cy="2.08" r="0.03" />
<circle cx="5.45" cy="4.36" r="0.03" />
<circle cx="5.52" cy="1.61" r="0.03" />
<circle cx="5.55" cy="1.61" r="0.03" />
<circle cx="5.59" cy="0.00" r="0.03" />
<circle cx="5.62" cy="2.71" r="0.03" />
<circle cx="5.65" cy="3.74" r="0.03" />
<circle cx="5.69" cy="4.56" r="0.03" />
<circle cx="5.75" cy="1.95" r="0.03" />
<circle cx="5.79" cy="3.04" r="0.03" />
<circle cx="5.85" cy="1.10" r="0.03" />
<circle cx="5.88" cy="3.26" r="0.03" />
<circle cx="5.92" cy="4.08" r="0.03" />
<circle cx="5.98" cy="1.39" r="0.03" />
<circle cx="6.02" cy="3.50" r="0.03" />
<circle cx="6.05" cy="3.14" r="0.03" />
<circle cx="6.08" cy="4.99" r="0.03" />
<circle cx="6.15" cy="1.61" r="0.03" />
<circle cx="6.18" cy="2.89" r="0.03" />
<circle cx="6.25" cy="1.10" r="0.03" />
<circle cx="6.28" cy="2.48" r="0.03" />
<circle cx="6.35" cy="1.10" r="0.03" />
<circle cx="6.38" cy="1.10" r="0.03" />
<circle cx="6.41" cy="0.00" r="0.03" />
<circle cx="6.45" cy="3.22" r="0.03" />
<circle cx="6.48" cy="4.75" r="0.03" />
<circle cx="6.55" cy="1.79" r="0.03" />
<circle cx="6.58" cy="3.71" r="0.03" />
<circle cx="6.65" cy="1.10" r="0.03" />
<circle cx="6.68" cy="2.08" r="0.03" />
<circle cx="6.71" cy="3.64" r="0.03" />
<circle cx="6.74" cy="4.04" r="0.03" />
<circle cx="6.81" cy="1.61" r="0.03" />
<circle cx="6.84" cy="3.00" r="0.03" />
<circle cx="6.88" cy="4.82" r="0.03" />
<circle cx="6.94" cy="1.39" r="0.03" />
<circle cx="6.98" cy="3.37" r="0.03" />
<circle cx="7.04" cy="1.10" r="0.03" />
<circle cx="7.07" cy="2.48" r="0.03" />
<circle cx="7.11" cy="3.18" r="0.03" />
<circle cx="7.17" cy="1.39" r="0.03" />
<circle cx="7.21" cy="1.95" r="0.03" />
<circle cx="7.24" cy="3.78" r="0.03" />
<circle cx="7.31" cy="1.39" r="0.03" />
<circle cx="7.34" cy="1.39" r="0.03" />
<circle cx="7.37" cy="0.00" r="0.03" />
<circle cx="7.41" cy="3.37" r="0.03" />
<circle cx="7.44" cy="2.56" r="0.03" />
<circle cx="7.47" cy="5.09" r="0.03" />
<circle cx="7.54" cy="1.95" r="0.03" />
<circle cx="7.57" cy="2.30" r="0.03" />
<circle cx="7.60" cy="4.75" r="0.03" />
<circle cx="7.64" cy="3.53" r="0.03" />
<circle cx="7.67" cy="4.62" r="0.03" />
<circle cx="7.74" cy="1.79" r="0.03" />
<circle cx="7.77" cy="3.58" r="0.03" />
<circle cx="7.80" cy="4.88" r="0.03" />
<circle cx="7.87" cy="1.39" r="0.03" />
<circle cx="7.90" cy="2.77" r="0.03" />
<circle cx="7.93" cy="4.39" r="0.03" />
<circle cx="8.00" cy="1.39" r="0.03" />
<circle cx="8.03" cy="1.39" r="0.03" />
<circle cx="8.07" cy="0.00" r="0.03" />
<circle cx="8.10" cy="3.04" r="0.03" />
<circle cx="8.13" cy="4.25" r="0.03" />
<circle cx="8.17" cy="5.00" r="0.03" />
<circle cx="8.23" cy="1.95" r="0.03" />
<circle cx="8.26" cy="3.04" r="0.03" />
</g>
</svg>