<svg xmlns="http://www.w3.org/2000/svg" width="161.8" height="100.0" viewBox="-3.03 -5.00 171.80 110.00">
<g fill="none" stroke="black" stroke-width="0.0257%" transform="translate(0, 100.0000) scale(19.4712, -19.4712)">
<circle cx="0.10" cy="0.00" r="0.03" />
<circle cx="0.10" cy="0.00" r="0.03" />
<circle cx="0.17" cy="0.69" r="0.03" />
<circle cx="0.24" cy="0.69" r="0.03" />
<circle cx="0.27" cy="0.69" r="0.03" />
<circle cx="0.30" cy="0.00" r="0.03" />
<circle cx="0.34" cy="1.79" r="0.03" />
<circle cx="0.40" cy="1.61" r="0.03" />
<circle cx="0.47" cy="0.69" r="0.03" />
<circle cx="0.50" cy="1.79" r="0.03" />
<circle cx="0.54" cy="1.61" r="0.03" />
<circle cx="0.57" cy="1.39" r="0.03" />
<circle cx="0.64" cy="1.61" r="0.03" />
<circle cx="0.67" cy="1.10" r="0.03" />
<circle cx="0.74" cy="1.10" r="0.03" />
<circle cx="0.77" cy="0.69" r="0.03" />
<circle cx="0.81" cy="2.20" r="0.03" />
<circle cx="0.87" cy="1.39" r="0.03" />
<circle cx="0.91" cy="2.20" r="0.03" />
<circle cx="0.94" cy="1.10" r="0.03" />
<circle cx="0.98" cy="1.79" r="0.03" />
<circle cx="1.01" cy="2.64" r="0.03" />
<circle cx="1.08" cy="1.79" r="0.03" />
<circle cx="1.11" cy="1.10" r="0.03" />
<circle cx="1.14" cy="1.61" r="0.03" />
<circle cx="1.18" cy="2.71" r="0.03" />
<circle cx="1.24" cy="1.61" r="0.03" />
<circle cx="1.28" cy="1.10" r="0.03" />
<circle cx="1.31" cy="1.61" r="0.03" />
<circle cx="1.35" cy="0.69" r="0.03" />
<circle cx="1.38" cy="2.83" r="0.03" />
<circle cx="1.45" cy="1.79" r="0.03" />
<circle cx="1.48" cy="2.40" r="0.03" />
<circle cx="1.55" cy="1.10" r="0.03" />
<circle cx="1.58" cy="2.08" r="0.03" />
<circle cx="1.65" cy="1.10" r="0.03" />
<circle cx="1.68" cy="1.10" r="0.03" />
<circle cx="1.72" cy="0.00" r="0.03" />
<circle cx="1.75" cy="3.74" r="0.03" />
<circle cx="1.82" cy="1.61" r="0.03" />
<circle cx="1.85" cy="2.71" r="0.03" />
<circle cx="1.88" cy="3.00" r="0.03" />
<circle cx="1.95" cy="1.39" r="0.03" />
<circle cx="1.98" cy="3.47" r="0.03" />
<circle cx="2.05" cy="1.10" r="0.03" />
<circle cx="2.09" cy="2.40" r="0.03" />
<circle cx="2.12" cy="2.89" r="0.03" />
<circle cx="2.19" cy="1.39" r="0.03" />
<circle cx="2.22" cy="1.95" r="0.03" />
<circle cx="2.29" cy="1.10" r="0.03" />
<circle cx="2.32" cy="1.95" r="0.03" />
<circle cx="2.36" cy="1.10" r="0.03" />
<circle cx="2.39" cy="0.69" r="0.03" />
<circle cx="2.42" cy="3.43" r="0.03" />
<circle cx="2.49" cy="1.79" r="0.03" />
<circle cx="2.52" cy="3.43" r="0.03" />
<circle cx="2.56" cy="1.10" r="0.03" />
<circle cx="2.59" cy="1.79" r="0.03" />
<circle cx="2.62" cy="1.10" r="0.03" />
<circle cx="2.66" cy="0.69" r="0.03" />
<circle cx="2.69" cy="2.08" r="0.03" />
<circle cx="2.73" cy="3.50" r="0.03" />
<circle cx="2.79" cy="2.20" r="0.03" />
<circle cx="2.83" cy="4.03" r="0.03" />
<circle cx="2.89" cy="1.10" r="0.03" />
<circle cx="2.93" cy="2.08" r="0.03" />
<circle cx="2.96" cy="1.95" r="0.03" />
<circle cx="2.99" cy="2.94" r="0.03" />
<circle cx="3.06" cy="1.61" r="0.03" />
<circle cx="3.10" cy="3.61" r="0.03" />
<circle cx="3.16" cy="1.10" r="0.03" />
<circle cx="3.20" cy="2.08" r="0.03" />
<circle cx="3.23" cy="2.08" r="0.03" />
<circle cx="3.26" cy="0.00" r="0.03" />
<circle cx="3.30" cy="3.83" r="0.03" />
<circle cx="3.36" cy="1.79" r="0.03" />
<circle cx="3.40" cy="3.14" r="0.03" />
<circle cx="3.47" cy="1.10" r="0.03" />
<circle cx="3.50" cy="2.20" r="0.03" />
<circle cx="3.53" cy="3.04" r="0.03" />
<circle cx="3.60" cy="1.39" r="0.03" />
<circle cx="3.63" cy="3.74" r="0.03" />
<circle cx="3.67" cy="4.03" r="0.03" />
<circle cx="3.70" cy="3.22" r="0.03" />
<circle cx="3.77" cy="1.61" r="0.03" />
<circle cx="3.80" cy="3.04" r="0.03" />
<circle cx="3.84" cy="2.08" r="0.03" />
<circle cx="3.87" cy="2.89" r="0.03" />
<circle cx="3.90" cy="3.95" r="0.03" />
<circle cx="3.97" cy="1.79" r="0.03" />
<circle cx="4.00" cy="2.89" r="0.03" />
<circle cx="4.04" cy="1.39" r="0.03" />
<circle cx="4.07" cy="2.56" r="0.03" />
<circle cx="4.14" cy="1.61" r="0.03" />
<circle cx="4.17" cy="2.40" r="0.03" />
<circle cx="4.21" cy="4.13" r="0.03" />
<circle cx="4.27" cy="1.39" r="0.03" />
<circle cx="4.31" cy="1.95" r="0.03" />
<circle cx="4.34" cy="3.69" r="0.03" />
<circle cx="4.41" cy="1.39" r="0.03" />
<circle cx="4.44" cy="1.39" r="0.03" />
<circle cx="4.47" cy="0.00" r="0.03" />
<circle cx="4.51" cy="3.58" r="0.03" />
<circle cx="4.58" cy="1.61" r="0.03" />
<circle cx="4.61" cy="2.56" r="0.03" />
<circle cx="4.64" cy="2.77" r="0.03" />
<circle cx="4.71" cy="1.39" r="0.03" />
<circle cx="4.74" cy="2.08" r="0.03" />
<circle cx="4.78" cy="3.30" r="0.03" />
<circle cx="4.84" cy="1.39" r="0.03" />
<circle cx="4.88" cy="1.39" r="0.03" />
<circle cx="4.91" cy="0.00" r="0.03" />
<circle cx="4.95" cy="2.56" r="0.03" />
<circle cx="4.98" cy="2.30" r="0.03" />
<circle cx="5.05" cy="1.79" r="0.03" />
<circle cx="5.08" cy="3.47" r="0.03" />
<circle cx="5.11" cy="4.52" r="0.03" />
<circle cx="5.18" cy="1.39" r="0.03" />
<circle cx="5.21" cy="2.20" r="0.03" />
<circle cx="5.25" cy="3.93" r="0.03" />
<circle cx="5.32" cy="1.39" r="0.03" />
<circle cx="5.35" cy="1.39" r="0.03" />
<circle cx="5.38" cy="0.00" r="0.03" />
<circle cx="5.42" cy="2.64" r="0.03" />
<circle cx="5.45" cy="4.88" r="0.03" />
<circle cx="5.52" cy="1.79" r="0.03" />
<circle cx="5.55" cy="2.64" r="0.03" />
<circle cx="5.58" cy="1.39" r="0.03" />
<circle cx="5.62" cy="1.95" r="0.03" />
<circle cx="5.65" cy="3.66" r="0.03" />
<circle cx="5.72" cy="1.79" r="0.03" />
<circle cx="5.75" cy="1.79" r="0.03" />
<circle cx="5.79" cy="0.00" r="0.03" />
<circle cx="5.82" cy="2.48" r="0.03" />
<circle cx="5.89" cy="1.61" r="0.03" />
<circle cx="5.92" cy="3.66" r="0.03" />
<circle cx="5.95" cy="2.08" r="0.03" />
<circle cx="5.99" cy="3.58" r="0.03" />
<circle cx="6.02" cy="3.78" r="0.03" />
<circle cx="6.09" cy="1.79" r="0.03" />
<circle cx="6.12" cy="2.30" r="0.03" />
<circle cx="6.16" cy="3.53" r="0.03" />
<circle cx="6.22" cy="1.39" r="0.03" />
<circle cx="6.26" cy="2.94" r="0.03" />
<circle cx="6.29" cy="4.57" r="0.03" />
<circle cx="6.36" cy="1.39" r="0.03" />
<circle cx="6.39" cy="1.39" r="0.03" />
<circle cx="6.43" cy="0.00" r="0.03" />
<circle cx="6.46" cy="2.94" r="0.03" />
<circle cx="6.49" cy="1.79" r="0.03" />
<circle cx="6.53" cy="2.48" r="0.03" />
<circle cx="6.56" cy="3.04" r="0.03" />
<circle cx="6.59" cy="4.41" r="0.03" />
<circle cx="6.66" cy="2.20" r="0.03" />
<circle cx="6.70" cy="3.76" r="0.03" />
<circle cx="6.76" cy="1.10" r="0.03" />
<circle cx="6.80" cy="4.58" r="0.03" />
<circle cx="6.86" cy="1.10" r="0.03" />
<circle cx="6.90" cy="1.10" r="0.03" />
<circle cx="6.93" cy="0.00" r="0.03" />
<circle cx="6.96" cy="2.71" r="0.03" />
<circle cx="7.00" cy="5.02" r="0.03" />
<circle cx="7.07" cy="1.79" r="0.03" />
<circle cx="7.10" cy="2.83" r="0.03" />
<circle cx="7.13" cy="5.14" r="0.03" />
<circle cx="7.20" cy="1.39" r="0.03" />
<circle cx="7.23" cy="3.18" r="0.03" />
<circle cx="7.30" cy="1.10" r="0.03" />
<circle cx="7.33" cy="2.48" r="0.03" />
<circle cx="7.37" cy="3.18" r="0.03" />
<circle cx="7.40" cy="1.39" r="0.03" />
<circle cx="7.44" cy="1.79" r="0.03" />
<circle cx="7.47" cy="2.40" r="0.03" />
<circle cx="7.50" cy="4.58" r="0.03" />
<circle cx="7.54" cy="3.04" r="0.03" />
<circle cx="7.57" cy="3.37" r="0.03" />
<circle cx="7.64" cy="2.30" r="0.03" />
<circle cx="7.67" cy="3.81" r="0.03" />
<circle cx="7.74" cy="1.10" r="0.03" />
<circle cx="7.77" cy="2.56" r="0.03" />
<circle cx="7.81" cy="4.43" r="0.03" />
<circle cx="7.87" cy="1.39" r="0.03" />
<circle cx="7.91" cy="2.64" r="0.03" />
<circle cx="7.94" cy="4.25" r="0.03" />
<circle cx="8.01" cy="1.39" r="0.03" />
<circle cx="8.04" cy="1.39" r="0.03" />
<circle cx="8.07" cy="0.00" r="0.03" />
<circle cx="8.11" cy="3.53" r="0.03" />
<circle cx="8.14" cy="4.06" r="0.03" />
<circle cx="8.21" cy="1.79" r="0.03" />
<circle cx="8.24" cy="3.14" r="0.03" />
<circle cx="8.28" cy="4.97" r="0.03" />
<circle cx="8.34" cy="1.39" r="0.03" />
<circle cx="8.38" cy="2.20" r="0.03" />
<circle cx="8.41" cy="3.93" r="0.03" />
</g>
</svg>