<svg xmlns="http://www.w3.org/2000/svg" width="103.3" height="100.0" viewBox="-58.333 -58.333 113.333 110.000">
<g fill="none" stroke="black" stroke-width="0.0094%" transform="translate(0, -6.6667) scale(53.3333, -53.3333)">
<circle cx="-1.000" cy="-1.000" r="0.009" />
<line x1="-1.000" y1="-1.000" x2="-1.000" y2="-1.000" />
<circle cx="-0.938" cy="-0.875" r="0.009" />
<line x1="-0.938" y1="-0.875" x2="-0.938" y2="-0.875" />
<circle cx="-1.000" cy="-0.750" r="0.009" />
<line x1="-1.000" y1="-0.750" x2="-1.000" y2="-0.750" />
<circle cx="-0.938" cy="-0.625" r="0.009" />
<line x1="-0.938" y1="-0.625" x2="-0.938" y2="-0.625" />
<circle cx="-1.000" cy="-0.500" r="0.009" />
<line x1="-1.000" y1="-0.500" x2="-1.000" y2="-0.500" />
<circle cx="-0.938" cy="-0.375" r="0.009" />
<line x1="-0.938" y1="-0.375" x2="-0.938" y2="-0.375" />
<circle cx="-1.000" cy="-0.250" r="0.009" />
<line x1="-1.000" y1="-0.250" x2="-1.000" y2="-0.250" />
<circle cx="-0.938" cy="-0.125" r="0.009" />
<line x1="-0.938" y1="-0.125" x2="-0.938" y2="-0.125" />
<circle cx="-1.000" cy="0.000" r="0.009" />
<line x1="-1.000" y1="0.000" x2="-1.000" y2="0.000" />
<circle cx="-0.938" cy="0.125" r="0.009" />
<line x1="-0.938" y1="0.125" x2="-0.938" y2="0.125" />
<circle cx="-1.000" cy="0.250" r="0.009" />
<line x1="-1.000" y1="0.250" x2="-1.000" y2="0.250" />
<circle cx="-0.938" cy="0.375" r="0.009" />
<line x1="-0.938" y1="0.375" x2="-0.938" y2="0.375" />
<circle cx="-1.000" cy="0.500" r="0.009" />
<line x1="-1.000" y1="0.500" x2="-1.000" y2="0.500" />
<circle cx="-0.938" cy="0.625" r="0.009" />
<line x1="-0.938" y1="0.625" x2="-0.938" y2="0.625" />
<circle cx="-1.000" cy="0.750" r="0.009" />
<line x1="-1.000" y1="0.750" x2="-1.000" y2="0.750" />
<circle cx="-0.938" cy="0.875" r="0.009" />
<line x1="-0.938" y1="0.875" x2="-0.938" y2="0.875" />
<circle cx="-0.875" cy="-1.000" r="0.009" />
<line x1="-0.875" y1="-1.000" x2="-0.875" y2="-1.000" />
<circle cx="-0.813" cy="-0.875" r="0.009" />
<line x1="-0.813" y1="-0.875" x2="-0.813" y2="-0.875" />
<circle cx="-0.875" cy="-0.750" r="0.009" />
<line x1="-0.875" y1="-0.750" x2="-0.875" y2="-0.750" />
<circle cx="-0.813" cy="-0.625" r="0.009" />
<line x1="-0.813" y1="-0.625" x2="-0.813" y2="-0.625" />
<circle cx="-0.875" cy="-0.500" r="0.009" />
<line x1="-0.875" y1="-0.500" x2="-0.875" y2="-0.500" />
<circle cx="-0.813" cy="-0.375" r="0.009" />
<line x1="-0.813" y1="-0.375" x2="-0.813" y2="-0.375" />
<circle cx="-0.875" cy="-0.250" r="0.009" />
<line x1="-0.875" y1="-0.250" x2="-0.875" y2="-0.250" />
<circle cx="-0.813" cy="-0.125" r="0.009" />
<line x1="-0.813" y1="-0.125" x2="-0.813" y2="-0.125" />
<circle cx="-0.875" cy="0.000" r="0.009" />
<line x1="-0.875" y1="0.000" x2="-0.875" y2="0.000" />
<circle cx="-0.813" cy="0.125" r="0.009" />
<line x1="-0.813" y1="0.125" x2="-0.813" y2="0.125" />
<circle cx="-0.875" cy="0.250" r="0.009" />
<line x1="-0.875" y1="0.250" x2="-0.875" y2="0.250" />
<circle cx="-0.813" cy="0.375" r="0.009" />
<line x1="-0.813" y1="0.375" x2="-0.813" y2="0.375" />
<circle cx="-0.875" cy="0.500" r="0.009" />
<line x1="-0.875" y1="0.500" x2="-0.875" y2="0.500" />
<circle cx="-0.813" cy="0.625" r="0.009" />
<line x1="-0.813" y1="0.625" x2="-0.813" y2="0.625" />
<circle cx="-0.875" cy="0.750" r="0.009" />
<line x1="-0.875" y1="0.750" x2="-0.875" y2="0.750" />
<circle cx="-0.813" cy="0.875" r="0.009" />
<line x1="-0.813" y1="0.875" x2="-0.813" y2="0.875" />
<circle cx="-0.750" cy="-1.000" r="0.009" />
<line x1="-0.750" y1="-1.000" x2="-0.750" y2="-1.000" />
<circle cx="-0.688" cy="-0.875" r="0.009" />
<line x1="-0.688" y1="-0.875" x2="-0.688" y2="-0.875" />
<circle cx="-0.750" cy="-0.750" r="0.009" />
<line x1="-0.750" y1="-0.750" x2="-0.750" y2="-0.750" />
<circle cx="-0.688" cy="-0.625" r="0.009" />
<line x1="-0.688" y1="-0.625" x2="-0.688" y2="-0.625" />
<circle cx="-0.750" cy="-0.500" r="0.009" />
<line x1="-0.750" y1="-0.500" x2="-0.750" y2="-0.500" />
<circle cx="-0.688" cy="-0.375" r="0.009" />
<line x1="-0.688" y1="-0.375" x2="-0.688" y2="-0.375" />
<circle cx="-0.750" cy="-0.250" r="0.009" />
<line x1="-0.750" y1="-0.250" x2="-0.750" y2="-0.250" />
<circle cx="-0.688" cy="-0.125" r="0.009" />
<line x1="-0.688" y1="-0.125" x2="-0.688" y2="-0.125" />
<circle cx="-0.750" cy="0.000" r="0.009" />
<line x1="-0.750" y1="0.000" x2="-0.750" y2="0.000" />
<circle cx="-0.688" cy="0.125" r="0.009" />
<line x1="-0.688" y1="0.125" x2="-0.688" y2="0.125" />
<circle cx="-0.750" cy="0.250" r="0.009" />
<line x1="-0.750" y1="0.250" x2="-0.750" y2="0.250" />
<circle cx="-0.688" cy="0.375" r="0.009" />
<line x1="-0.688" y1="0.375" x2="-0.688" y2="0.375" />
<circle cx="-0.750" cy="0.500" r="0.009" />
<line x1="-0.750" y1="0.500" x2="-0.750" y2="0.500" />
<circle cx="-0.688" cy="0.625" r="0.009" />
<line x1="-0.688" y1="0.625" x2="-0.688" y2="0.625" />
<circle cx="-0.750" cy="0.750" r="0.009" />
<line x1="-0.750" y1="0.750" x2="-0.750" y2="0.750" />
<circle cx="-0.688" cy="0.875" r="0.009" />
<line x1="-0.688" y1="0.875" x2="-0.688" y2="0.875" />
<circle cx="-0.625" cy="-1.000" r="0.009" />
<line x1="-0.625" y1="-1.000" x2="-0.625" y2="-1.000" />
<circle cx="-0.563" cy="-0.875" r="0.009" />
<line x1="-0.563" y1="-0.875" x2="-0.563" y2="-0.875" />
<circle cx="-0.625" cy="-0.750" r="0.009" />
<line x1="-0.625" y1="-0.750" x2="-0.625" y2="-0.750" />
<circle cx="-0.563" cy="-0.625" r="0.009" />
<line x1="-0.563" y1="-0.625" x2="-0.563" y2="-0.625" />
<circle cx="-0.625" cy="-0.500" r="0.009" />
<line x1="-0.625" y1="-0.500" x2="-0.625" y2="-0.500" />
<circle cx="-0.563" cy="-0.375" r="0.009" />
<line x1="-0.563" y1="-0.375" x2="-0.563" y2="-0.375" />
<circle cx="-0.625" cy="-0.250" r="0.009" />
<line x1="-0.625" y1="-0.250" x2="-0.625" y2="-0.250" />
<circle cx="-0.563" cy="-0.125" r="0.009" />
<line x1="-0.563" y1="-0.125" x2="-0.563" y2="-0.125" />
<circle cx="-0.625" cy="0.000" r="0.009" />
<line x1="-0.625" y1="0.000" x2="-0.625" y2="0.000" />
<circle cx="-0.563" cy="0.125" r="0.009" />
<line x1="-0.563" y1="0.125" x2="-0.563" y2="0.125" />
<circle cx="-0.625" cy="0.250" r="0.009" />
<line x1="-0.625" y1="0.250" x2="-0.625" y2="0.250" />
<circle cx="-0.563" cy="0.375" r="0.009" />
<line x1="-0.563" y1="0.375" x2="-0.563" y2="0.375" />
<circle cx="-0.625" cy="0.500" r="0.009" />
<line x1="-0.625" y1="0.500" x2="-0.625" y2="0.500" />
<circle cx="-0.563" cy="0.625" r="0.009" />
<line x1="-0.563" y1="0.625" x2="-0.563" y2="0.625" />
<circle cx="-0.625" cy="0.750" r="0.009" />
<line x1="-0.625" y1="0.750" x2="-0.625" y2="0.750" />
<circle cx="-0.563" cy="0.875" r="0.009" />
<line x1="-0.563" y1="0.875" x2="-0.563" y2="0.875" />
<circle cx="-0.500" cy="-1.000" r="0.009" />
<line x1="-0.500" y1="-1.000" x2="-0.500" y2="-1.000" />
<circle cx="-0.438" cy="-0.875" r="0.009" />
<line x1="-0.438" y1="-0.875" x2="-0.438" y2="-0.875" />
<circle cx="-0.500" cy="-0.750" r="0.009" />
<line x1="-0.500" y1="-0.750" x2="-0.500" y2="-0.750" />
<circle cx="-0.438" cy="-0.625" r="0.009" />
<line x1="-0.438" y1="-0.625" x2="-0.438" y2="-0.625" />
<circle cx="-0.500" cy="-0.500" r="0.009" />
<line x1="-0.500" y1="-0.500" x2="-0.500" y2="-0.500" />
<circle cx="-0.438" cy="-0.375" r="0.009" />
<line x1="-0.438" y1="-0.375" x2="-0.438" y2="-0.375" />
<circle cx="-0.500" cy="-0.250" r="0.009" />
<line x1="-0.500" y1="-0.250" x2="-0.500" y2="-0.250" />
<circle cx="-0.438" cy="-0.125" r="0.009" />
<line x1="-0.438" y1="-0.125" x2="-0.438" y2="-0.125" />
<circle cx="-0.500" cy="0.000" r="0.009" />
<line x1="-0.500" y1="0.000" x2="-0.500" y2="0.000" />
<circle cx="-0.438" cy="0.125" r="0.009" />
<line x1="-0.438" y1="0.125" x2="-0.438" y2="0.125" />
<circle cx="-0.500" cy="0.250" r="0.009" />
<line x1="-0.500" y1="0.250" x2="-0.500" y2="0.250" />
<circle cx="-0.438" cy="0.375" r="0.009" />
<line x1="-0.438" y1="0.375" x2="-0.438" y2="0.375" />
<circle cx="-0.500" cy="0.500" r="0.009" />
<line x1="-0.500" y1="0.500" x2="-0.500" y2="0.500" />
<circle cx="-0.438" cy="0.625" r="0.009" />
<line x1="-0.438" y1="0.625" x2="-0.438" y2="0.625" />
<circle cx="-0.500" cy="0.750" r="0.009" />
<line x1="-0.500" y1="0.750" x2="-0.500" y2="0.750" />
<circle cx="-0.438" cy="0.875" r="0.009" />
<line x1="-0.438" y1="0.875" x2="-0.438" y2="0.875" />
<circle cx="-0.375" cy="-1.000" r="0.009" />
<line x1="-0.375" y1="-1.000" x2="-0.375" y2="-1.000" />
<circle cx="-0.313" cy="-0.875" r="0.009" />
<line x1="-0.313" y1="-0.875" x2="-0.313" y2="-0.875" />
<circle cx="-0.375" cy="-0.750" r="0.009" />
<line x1="-0.375" y1="-0.750" x2="-0.375" y2="-0.750" />
<circle cx="-0.313" cy="-0.625" r="0.009" />
<line x1="-0.313" y1="-0.625" x2="-0.313" y2="-0.625" />
<circle cx="-0.375" cy="-0.500" r="0.009" />
<line x1="-0.375" y1="-0.500" x2="-0.375" y2="-0.500" />
<circle cx="-0.313" cy="-0.375" r="0.009" />
<line x1="-0.313" y1="-0.375" x2="-0.313" y2="-0.375" />
<circle cx="-0.375" cy="-0.250" r="0.009" />
<line x1="-0.375" y1="-0.250" x2="-0.375" y2="-0.250" />
<circle cx="-0.313" cy="-0.125" r="0.009" />
<line x1="-0.313" y1="-0.125" x2="-0.313" y2="-0.125" />
<circle cx="-0.375" cy="0.000" r="0.009" />
<line x1="-0.375" y1="0.000" x2="-0.375" y2="0.000" />
<circle cx="-0.313" cy="0.125" r="0.009" />
<line x1="-0.313" y1="0.125" x2="-0.313" y2="0.125" />
<circle cx="-0.375" cy="0.250" r="0.009" />
<line x1="-0.375" y1="0.250" x2="-0.375" y2="0.250" />
<circle cx="-0.313" cy="0.375" r="0.009" />
<line x1="-0.313" y1="0.375" x2="-0.313" y2="0.375" />
<circle cx="-0.375" cy="0.500" r="0.009" />
<line x1="-0.375" y1="0.500" x2="-0.375" y2="0.500" />
<circle cx="-0.313" cy="0.625" r="0.009" />
<line x1="-0.313" y1="0.625" x2="-0.313" y2="0.625" />
<circle cx="-0.375" cy="0.750" r="0.009" />
<line x1="-0.375" y1="0.750" x2="-0.375" y2="0.750" />
<circle cx="-0.313" cy="0.875" r="0.009" />
<line x1="-0.313" y1="0.875" x2="-0.313" y2="0.875" />
<circle cx="-0.250" cy="-1.000" r="0.009" />
<line x1="-0.250" y1="-1.000" x2="-0.250" y2="-1.000" />
<circle cx="-0.188" cy="-0.875" r="0.009" />
<line x1="-0.188" y1="-0.875" x2="-0.188" y2="-0.875" />
<circle cx="-0.250" cy="-0.750" r="0.009" />
<line x1="-0.250" y1="-0.750" x2="-0.250" y2="-0.750" />
<circle cx="-0.188" cy="-0.625" r="0.009" />
<line x1="-0.188" y1="-0.625" x2="-0.188" y2="-0.625" />
<circle cx="-0.250" cy="-0.500" r="0.009" />
<line x1="-0.250" y1="-0.500" x2="-0.250" y2="-0.500" />
<circle cx="-0.188" cy="-0.375" r="0.009" />
<line x1="-0.188" y1="-0.375" x2="-0.188" y2="-0.375" />
<circle cx="-0.250" cy="-0.250" r="0.009" />
<line x1="-0.250" y1="-0.250" x2="-0.250" y2="-0.250" />
<circle cx="-0.188" cy="-0.125" r="0.009" />
<line x1="-0.188" y1="-0.125" x2="-0.188" y2="-0.125" />
<circle cx="-0.250" cy="0.000" r="0.009" />
<line x1="-0.250" y1="0.000" x2="-0.250" y2="0.000" />
<circle cx="-0.188" cy="0.125" r="0.009" />
<line x1="-0.188" y1="0.125" x2="-0.188" y2="0.125" />
<circle cx="-0.250" cy="0.250" r="0.009" />
<line x1="-0.250" y1="0.250" x2="-0.250" y2="0.250" />
<circle cx="-0.188" cy="0.375" r="0.009" />
<line x1="-0.188" y1="0.375" x2="-0.188" y2="0.375" />
<circle cx="-0.250" cy="0.500" r="0.009" />
<line x1="-0.250" y1="0.500" x2="-0.250" y2="0.500" />
<circle cx="-0.188" cy="0.625" r="0.009" />
<line x1="-0.188" y1="0.625" x2="-0.188" y2="0.625" />
<circle cx="-0.250" cy="0.750" r="0.009" />
<line x1="-0.250" y1="0.750" x2="-0.250" y2="0.750" />
<circle cx="-0.188" cy="0.875" r="0.009" />
<line x1="-0.188" y1="0.875" x2="-0.188" y2="0.875" />
<circle cx="-0.125" cy="-1.000" r="0.009" />
<line x1="-0.125" y1="-1.000" x2="-0.125" y2="-1.000" />
<circle cx="-0.063" cy="-0.875" r="0.009" />
<line x1="-0.063" y1="-0.875" x2="-0.063" y2="-0.875" />
<circle cx="-0.125" cy="-0.750" r="0.009" />
<line x1="-0.125" y1="-0.750" x2="-0.125" y2="-0.750" />
<circle cx="-0.063" cy="-0.625" r="0.009" />
<line x1="-0.063" y1="-0.625" x2="-0.063" y2="-0.625" />
<circle cx="-0.125" cy="-0.500" r="0.009" />
<line x1="-0.125" y1="-0.500" x2="-0.125" y2="-0.500" />
<circle cx="-0.063" cy="-0.375" r="0.009" />
<line x1="-0.063" y1="-0.375" x2="-0.063" y2="-0.375" />
<circle cx="-0.125" cy="-0.250" r="0.009" />
<line x1="-0.125" y1="-0.250" x2="-0.125" y2="-0.250" />
<circle cx="-0.063" cy="-0.125" r="0.009" />
<line x1="-0.063" y1="-0.125" x2="-0.063" y2="-0.125" />
<circle cx="-0.125" cy="0.000" r="0.009" />
<line x1="-0.125" y1="0.000" x2="-0.125" y2="0.000" />
<circle cx="-0.063" cy="0.125" r="0.009" />
<line x1="-0.063" y1="0.125" x2="-0.063" y2="0.125" />
<circle cx="-0.125" cy="0.250" r="0.009" />
<line x1="-0.125" y1="0.250" x2="-0.125" y2="0.250" />
<circle cx="-0.063" cy="0.375" r="0.009" />
<line x1="-0.063" y1="0.375" x2="-0.063" y2="0.375" />
<circle cx="-0.125" cy="0.500" r="0.009" />
<line x1="-0.125" y1="0.500" x2="-0.125" y2="0.500" />
<circle cx="-0.063" cy="0.625" r="0.009" />
<line x1="-0.063" y1="0.625" x2="-0.063" y2="0.625" />
<circle cx="-0.125" cy="0.750" r="0.009" />
<line x1="-0.125" y1="0.750" x2="-0.125" y2="0.750" />
<circle cx="-0.063" cy="0.875" r="0.009" />
<line x1="-0.063" y1="0.875" x2="-0.063" y2="0.875" />
<circle cx="0.000" cy="-1.000" r="0.009" />
<line x1="0.000" y1="-1.000" x2="0.000" y2="-1.000" />
<circle cx="0.063" cy="-0.875" r="0.009" />
<line x1="0.063" y1="-0.875" x2="0.063" y2="-0.875" />
<circle cx="0.000" cy="-0.750" r="0.009" />
<line x1="0.000" y1="-0.750" x2="0.000" y2="-0.750" />
<circle cx="0.063" cy="-0.625" r="0.009" />
<line x1="0.063" y1="-0.625" x2="0.063" y2="-0.625" />
<circle cx="0.000" cy="-0.500" r="0.009" />
<line x1="0.000" y1="-0.500" x2="0.000" y2="-0.500" />
<circle cx="0.063" cy="-0.375" r="0.009" />
<line x1="0.063" y1="-0.375" x2="0.063" y2="-0.375" />
<circle cx="0.000" cy="-0.250" r="0.009" />
<line x1="0.000" y1="-0.250" x2="0.000" y2="-0.250" />
<circle cx="0.063" cy="-0.125" r="0.009" />
<line x1="0.063" y1="-0.125" x2="0.063" y2="-0.125" />
<circle cx="0.000" cy="0.000" r="0.009" />
<line x1="0.000" y1="0.000" x2="0.000" y2="0.000" />
<circle cx="0.063" cy="0.125" r="0.009" />
<line x1="0.063" y1="0.125" x2="0.063" y2="0.125" />
<circle cx="0.000" cy="0.250" r="0.009" />
<line x1="0.000" y1="0.250" x2="0.000" y2="0.250" />
<circle cx="0.063" cy="0.375" r="0.009" />
<line x1="0.063" y1="0.375" x2="0.063" y2="0.375" />
<circle cx="0.000" cy="0.500" r="0.009" />
<line x1="0.000" y1="0.500" x2="0.000" y2="0.500" />
<circle cx="0.063" cy="0.625" r="0.009" />
<line x1="0.063" y1="0.625" x2="0.063" y2="0.625" />
<circle cx="0.000" cy="0.750" r="0.009" />
<line x1="0.000" y1="0.750" x2="0.000" y2="0.750" />
<circle cx="0.063" cy="0.875" r="0.009" />
<line x1="0.063" y1="0.875" x2="0.063" y2="0.875" />
<circle cx="0.125" cy="-1.000" r="0.009" />
<line x1="0.125" y1="-1.000" x2="0.125" y2="-1.000" />
<circle cx="0.188" cy="-0.875" r="0.009" />
<line x1="0.188" y1="-0.875" x2="0.188" y2="-0.875" />
<circle cx="0.125" cy="-0.750" r="0.009" />
<line x1="0.125" y1="-0.750" x2="0.125" y2="-0.750" />
<circle cx="0.188" cy="-0.625" r="0.009" />
<line x1="0.188" y1="-0.625" x2="0.188" y2="-0.625" />
<circle cx="0.125" cy="-0.500" r="0.009" />
<line x1="0.125" y1="-0.500" x2="0.125" y2="-0.500" />
<circle cx="0.188" cy="-0.375" r="0.009" />
<line x1="0.188" y1="-0.375" x2="0.188" y2="-0.375" />
<circle cx="0.125" cy="-0.250" r="0.009" />
<line x1="0.125" y1="-0.250" x2="0.125" y2="-0.250" />
<circle cx="0.188" cy="-0.125" r="0.009" />
<line x1="0.188" y1="-0.125" x2="0.188" y2="-0.125" />
<circle cx="0.125" cy="0.000" r="0.009" />
<line x1="0.125" y1="0.000" x2="0.125" y2="0.000" />
<circle cx="0.188" cy="0.125" r="0.009" />
<line x1="0.188" y1="0.125" x2="0.188" y2="0.125" />
<circle cx="0.125" cy="0.250" r="0.009" />
<line x1="0.125" y1="0.250" x2="0.125" y2="0.250" />
<circle cx="0.188" cy="0.375" r="0.009" />
<line x1="0.188" y1="0.375" x2="0.188" y2="0.375" />
<circle cx="0.125" cy="0.500" r="0.009" />
<line x1="0.125" y1="0.500" x2="0.125" y2="0.500" />
<circle cx="0.188" cy="0.625" r="0.009" />
<line x1="0.188" y1="0.625" x2="0.188" y2="0.625" />
<circle cx="0.125" cy="0.750" r="0.009" />
<line x1="0.125" y1="0.750" x2="0.125" y2="0.750" />
<circle cx="0.188" cy="0.875" r="0.009" />
<line x1="0.188" y1="0.875" x2="0.188" y2="0.875" />
<circle cx="0.250" cy="-1.000" r="0.009" />
<line x1="0.250" y1="-1.000" x2="0.250" y2="-1.000" />
<circle cx="0.313" cy="-0.875" r="0.009" />
<line x1="0.313" y1="-0.875" x2="0.313" y2="-0.875" />
<circle cx="0.250" cy="-0.750" r="0.009" />
<line x1="0.250" y1="-0.750" x2="0.250" y2="-0.750" />
<circle cx="0.313" cy="-0.625" r="0.009" />
<line x1="0.313" y1="-0.625" x2="0.313" y2="-0.625" />
<circle cx="0.250" cy="-0.500" r="0.009" />
<line x1="0.250" y1="-0.500" x2="0.250" y2="-0.500" />
<circle cx="0.313" cy="-0.375" r="0.009" />
<line x1="0.313" y1="-0.375" x2="0.313" y2="-0.375" />
<circle cx="0.250" cy="-0.250" r="0.009" />
<line x1="0.250" y1="-0.250" x2="0.250" y2="-0.250" />
<circle cx="0.313" cy="-0.125" r="0.009" />
<line x1="0.313" y1="-0.125" x2="0.313" y2="-0.125" />
<circle cx="0.250" cy="0.000" r="0.009" />
<line x1="0.250" y1="0.000" x2="0.250" y2="0.000" />
<circle cx="0.313" cy="0.125" r="0.009" />
<line x1="0.313" y1="0.125" x2="0.313" y2="0.125" />
<circle cx="0.250" cy="0.250" r="0.009" />
<line x1="0.250" y1="0.250" x2="0.250" y2="0.250" />
<circle cx="0.313" cy="0.375" r="0.009" />
<line x1="0.313" y1="0.375" x2="0.313" y2="0.375" />
<circle cx="0.250" cy="0.500" r="0.009" />
<line x1="0.250" y1="0.500" x2="0.250" y2="0.500" />
<circle cx="0.313" cy="0.625" r="0.009" />
<line x1="0.313" y1="0.625" x2="0.313" y2="0.625" />
<circle cx="0.250" cy="0.750" r="0.009" />
<line x1="0.250" y1="0.750" x2="0.250" y2="0.750" />
<circle cx="0.313" cy="0.875" r="0.009" />
<line x1="0.313" y1="0.875" x2="0.313" y2="0.875" />
<circle cx="0.375" cy="-1.000" r="0.009" />
<line x1="0.375" y1="-1.000" x2="0.375" y2="-1.000" />
<circle cx="0.438" cy="-0.875" r="0.009" />
<line x1="0.438" y1="-0.875" x2="0.438" y2="-0.875" />
<circle cx="0.375" cy="-0.750" r="0.009" />
<line x1="0.375" y1="-0.750" x2="0.375" y2="-0.750" />
<circle cx="0.438" cy="-0.625" r="0.009" />
<line x1="0.438" y1="-0.625" x2="0.438" y2="-0.625" />
<circle cx="0.375" cy="-0.500" r="0.009" />
<line x1="0.375" y1="-0.500" x2="0.375" y2="-0.500" />
<circle cx="0.438" cy="-0.375" r="0.009" />
<line x1="0.438" y1="-0.375" x2="0.438" y2="-0.375" />
<circle cx="0.375" cy="-0.250" r="0.009" />
<line x1="0.375" y1="-0.250" x2="0.375" y2="-0.250" />
<circle cx="0.438" cy="-0.125" r="0.009" />
<line x1="0.438" y1="-0.125" x2="0.438" y2="-0.125" />
<circle cx="0.375" cy="0.000" r="0.009" />
<line x1="0.375" y1="0.000" x2="0.375" y2="0.000" />
<circle cx="0.438" cy="0.125" r="0.009" />
<line x1="0.438" y1="0.125" x2="0.438" y2="0.125" />
<circle cx="0.375" cy="0.250" r="0.009" />
<line x1="0.375" y1="0.250" x2="0.375" y2="0.250" />
<circle cx="0.438" cy="0.375" r="0.009" />
<line x1="0.438" y1="0.375" x2="0.438" y2="0.375" />
<circle cx="0.375" cy="0.500" r="0.009" />
<line x1="0.375" y1="0.500" x2="0.375" y2="0.500" />
<circle cx="0.438" cy="0.625" r="0.009" />
<line x1="0.438" y1="0.625" x2="0.438" y2="0.625" />
<circle cx="0.375" cy="0.750" r="0.009" />
<line x1="0.375" y1="0.750" x2="0.375" y2="0.750" />
<circle cx="0.438" cy="0.875" r="0.009" />
<line x1="0.438" y1="0.875" x2="0.438" y2="0.875" />
<circle cx="0.500" cy="-1.000" r="0.009" />
<line x1="0.500" y1="-1.000" x2="0.500" y2="-1.000" />
<circle cx="0.563" cy="-0.875" r="0.009" />
<line x1="0.563" y1="-0.875" x2="0.563" y2="-0.875" />
<circle cx="0.500" cy="-0.750" r="0.009" />
<line x1="0.500" y1="-0.750" x2="0.500" y2="-0.750" />
<circle cx="0.563" cy="-0.625" r="0.009" />
<line x1="0.563" y1="-0.625" x2="0.563" y2="-0.625" />
<circle cx="0.500" cy="-0.500" r="0.009" />
<line x1="0.500" y1="-0.500" x2="0.500" y2="-0.500" />
<circle cx="0.563" cy="-0.375" r="0.009" />
<line x1="0.563" y1="-0.375" x2="0.563" y2="-0.375" />
<circle cx="0.500" cy="-0.250" r="0.009" />
<line x1="0.500" y1="-0.250" x2="0.500" y2="-0.250" />
<circle cx="0.563" cy="-0.125" r="0.009" />
<line x1="0.563" y1="-0.125" x2="0.563" y2="-0.125" />
<circle cx="0.500" cy="0.000" r="0.009" />
<line x1="0.500" y1="0.000" x2="0.500" y2="0.000" />
<circle cx="0.563" cy="0.125" r="0.009" />
<line x1="0.563" y1="0.125" x2="0.563" y2="0.125" />
<circle cx="0.500" cy="0.250" r="0.009" />
<line x1="0.500" y1="0.250" x2="0.500" y2="0.250" />
<circle cx="0.563" cy="0.375" r="0.009" />
<line x1="0.563" y1="0.375" x2="0.563" y2="0.375" />
<circle cx="0.500" cy="0.500" r="0.009" />
<line x1="0.500" y1="0.500" x2="0.500" y2="0.500" />
<circle cx="0.563" cy="0.625" r="0.009" />
<line x1="0.563" y1="0.625" x2="0.563" y2="0.625" />
<circle cx="0.500" cy="0.750" r="0.009" />
<line x1="0.500" y1="0.750" x2="0.500" y2="0.750" />
<circle cx="0.563" cy="0.875" r="0.009" />
<line x1="0.563" y1="0.875" x2="0.563" y2="0.875" />
<circle cx="0.625" cy="-1.000" r="0.009" />
<line x1="0.625" y1="-1.000" x2="0.625" y2="-1.000" />
<circle cx="0.688" cy="-0.875" r="0.009" />
<line x1="0.688" y1="-0.875" x2="0.688" y2="-0.875" />
<circle cx="0.625" cy="-0.750" r="0.009" />
<line x1="0.625" y1="-0.750" x2="0.625" y2="-0.750" />
<circle cx="0.688" cy="-0.625" r="0.009" />
<line x1="0.688" y1="-0.625" x2="0.688" y2="-0.625" />
<circle cx="0.625" cy="-0.500" r="0.009" />
<line x1="0.625" y1="-0.500" x2="0.625" y2="-0.500" />
<circle cx="0.688" cy="-0.375" r="0.009" />
<line x1="0.688" y1="-0.375" x2="0.688" y2="-0.375" />
<circle cx="0.625" cy="-0.250" r="0.009" />
<line x1="0.625" y1="-0.250" x2="0.625" y2="-0.250" />
<circle cx="0.688" cy="-0.125" r="0.009" />
<line x1="0.688" y1="-0.125" x2="0.688" y2="-0.125" />
<circle cx="0.625" cy="0.000" r="0.009" />
<line x1="0.625" y1="0.000" x2="0.625" y2="0.000" />
<circle cx="0.688" cy="0.125" r="0.009" />
<line x1="0.688" y1="0.125" x2="0.688" y2="0.125" />
<circle cx="0.625" cy="0.250" r="0.009" />
<line x1="0.625" y1="0.250" x2="0.625" y2="0.250" />
<circle cx="0.688" cy="0.375" r="0.009" />
<line x1="0.688" y1="0.375" x2="0.688" y2="0.375" />
<circle cx="0.625" cy="0.500" r="0.009" />
<line x1="0.625" y1="0.500" x2="0.625" y2="0.500" />
<circle cx="0.688" cy="0.625" r="0.009" />
<line x1="0.688" y1="0.625" x2="0.688" y2="0.625" />
<circle cx="0.625" cy="0.750" r="0.009" />
<line x1="0.625" y1="0.750" x2="0.625" y2="0.750" />
<circle cx="0.688" cy="0.875" r="0.009" />
<line x1="0.688" y1="0.875" x2="0.688" y2="0.875" />
<circle cx="0.750" cy="-1.000" r="0.009" />
<line x1="0.750" y1="-1.000" x2="0.750" y2="-1.000" />
<circle cx="0.813" cy="-0.875" r="0.009" />
<line x1="0.813" y1="-0.875" x2="0.813" y2="-0.875" />
<circle cx="0.750" cy="-0.750" r="0.009" />
<line x1="0.750" y1="-0.750" x2="0.750" y2="-0.750" />
<circle cx="0.813" cy="-0.625" r="0.009" />
<line x1="0.813" y1="-0.625" x2="0.813" y2="-0.625" />
<circle cx="0.750" cy="-0.500" r="0.009" />
<line x1="0.750" y1="-0.500" x2="0.750" y2="-0.500" />
<circle cx="0.813" cy="-0.375" r="0.009" />
<line x1="0.813" y1="-0.375" x2="0.813" y2="-0.375" />
<circle cx="0.750" cy="-0.250" r="0.009" />
<line x1="0.750" y1="-0.250" x2="0.750" y2="-0.250" />
<circle cx="0.813" cy="-0.125" r="0.009" />
<line x1="0.813" y1="-0.125" x2="0.813" y2="-0.125" />
<circle cx="0.750" cy="0.000" r="0.009" />
<line x1="0.750" y1="0.000" x2="0.750" y2="0.000" />
<circle cx="0.813" cy="0.125" r="0.009" />
<line x1="0.813" y1="0.125" x2="0.813" y2="0.125" />
<circle cx="0.750" cy="0.250" r="0.009" />
<line x1="0.750" y1="0.250" x2="0.750" y2="0.250" />
<circle cx="0.813" cy="0.375" r="0.009" />
<line x1="0.813" y1="0.375" x2="0.813" y2="0.375" />
<circle cx="0.750" cy="0.500" r="0.009" />
<line x1="0.750" y1="0.500" x2="0.750" y2="0.500" />
<circle cx="0.813" cy="0.625" r="0.009" />
<line x1="0.813" y1="0.625" x2="0.813" y2="0.625" />
<circle cx="0.750" cy="0.750" r="0.009" />
<line x1="0.750" y1="0.750" x2="0.750" y2="0.750" />
<circle cx="0.813" cy="0.875" r="0.009" />
<line x1="0.813" y1="0.875" x2="0.813" y2="0.875" />
<circle cx="0.875" cy="-1.000" r="0.009" />
<line x1="0.875" y1="-1.000" x2="0.875" y2="-1.000" />
<circle cx="0.938" cy="-0.875" r="0.009" />
<line x1="0.938" y1="-0.875" x2="0.938" y2="-0.875" />
<circle cx="0.875" cy="-0.750" r="0.009" />
<line x1="0.875" y1="-0.750" x2="0.875" y2="-0.750" />
<circle cx="0.938" cy="-0.625" r="0.009" />
<line x1="0.938" y1="-0.625" x2="0.938" y2="-0.625" />
<circle cx="0.875" cy="-0.500" r="0.009" />
<line x1="0.875" y1="-0.500" x2="0.875" y2="-0.500" />
<circle cx="0.938" cy="-0.375" r="0.009" />
<line x1="0.938" y1="-0.375" x2="0.938" y2="-0.375" />
<circle cx="0.875" cy="-0.250" r="0.009" />
<line x1="0.875" y1="-0.250" x2="0.875" y2="-0.250" />
<circle cx="0.938" cy="-0.125" r="0.009" />
<line x1="0.938" y1="-0.125" x2="0.938" y2="-0.125" />
<circle cx="0.875" cy="0.000" r="0.009" />
<line x1="0.875" y1="0.000" x2="0.875" y2="0.000" />
<circle cx="0.938" cy="0.125" r="0.009" />
<line x1="0.938" y1="0.125" x2="0.938" y2="0.125" />
<circle cx="0.875" cy="0.250" r="0.009" />
<line x1="0.875" y1="0.250" x2="0.875" y2="0.250" />
<circle cx="0.938" cy="0.375" r="0.009" />
<line x1="0.938" y1="0.375" x2="0.938" y2="0.375" />
<circle cx="0.875" cy="0.500" r="0.009" />
<line x1="0.875" y1="0.500" x2="0.875" y2="0.500" />
<circle cx="0.938" cy="0.625" r="0.009" />
<line x1="0.938" y1="0.625" x2="0.938" y2="0.625" />
<circle cx="0.875" cy="0.750" r="0.009" />
<line x1="0.875" y1="0.750" x2="0.875" y2="0.750" />
<circle cx="0.938" cy="0.875" r="0.009" />
<line x1="0.938" y1="0.875" x2="0.938" y2="0.875" />
</g>
</svg>