<svg xmlns="http://www.w3.org/2000/svg" width="103.2" height="100.0" viewBox="-58.19 -58.18 113.19 110.00">
<g fill="none" stroke="black" stroke-width="0.0294%" transform="translate(0, -6.3662) scale(16.9862, -16.9862)">
<circle cx="-3.13" cy="-3.00" r="0.03" />
<line x1="-2.87" y1="-3.00" x2="-3.13" y2="-3.00" />
<circle cx="-2.94" cy="-2.62" r="0.03" />
<line x1="-2.68" y1="-2.63" x2="-2.94" y2="-2.62" />
<circle cx="-3.13" cy="-2.23" r="0.03" />
<line x1="-2.87" y1="-2.27" x2="-3.13" y2="-2.23" />
<circle cx="-2.94" cy="-1.85" r="0.03" />
<line x1="-2.68" y1="-1.90" x2="-2.94" y2="-1.85" />
<circle cx="-3.12" cy="-1.46" r="0.03" />
<line x1="-2.88" y1="-1.54" x2="-3.12" y2="-1.46" />
<circle cx="-2.93" cy="-1.07" r="0.03" />
<line x1="-2.69" y1="-1.18" x2="-2.93" y2="-1.07" />
<circle cx="-3.11" cy="-0.68" r="0.03" />
<line x1="-2.89" y1="-0.82" x2="-3.11" y2="-0.68" />
<circle cx="-2.92" cy="-0.30" r="0.03" />
<line x1="-2.71" y1="-0.45" x2="-2.92" y2="-0.30" />
<circle cx="-3.09" cy="0.09" r="0.03" />
<line x1="-2.91" y1="-0.09" x2="-3.09" y2="0.09" />
<circle cx="-2.89" cy="0.48" r="0.03" />
<line x1="-2.73" y1="0.27" x2="-2.89" y2="0.48" />
<circle cx="-3.07" cy="0.86" r="0.03" />
<line x1="-2.93" y1="0.64" x2="-3.07" y2="0.86" />
<circle cx="-2.86" cy="1.25" r="0.03" />
<line x1="-2.76" y1="1.00" x2="-2.86" y2="1.25" />
<circle cx="-3.04" cy="1.62" r="0.03" />
<line x1="-2.96" y1="1.38" x2="-3.04" y2="1.62" />
<circle cx="-2.84" cy="2.00" r="0.03" />
<line x1="-2.79" y1="1.75" x2="-2.84" y2="2.00" />
<circle cx="-3.02" cy="2.38" r="0.03" />
<line x1="-2.98" y1="2.12" x2="-3.02" y2="2.38" />
<circle cx="-2.82" cy="2.76" r="0.03" />
<line x1="-2.81" y1="2.49" x2="-2.82" y2="2.76" />
<circle cx="-2.76" cy="-3.01" r="0.03" />
<line x1="-2.49" y1="-2.99" x2="-2.76" y2="-3.01" />
<circle cx="-2.57" cy="-2.63" r="0.03" />
<line x1="-2.31" y1="-2.62" x2="-2.57" y2="-2.63" />
<circle cx="-2.76" cy="-2.24" r="0.03" />
<line x1="-2.49" y1="-2.26" x2="-2.76" y2="-2.24" />
<circle cx="-2.57" cy="-1.86" r="0.03" />
<line x1="-2.31" y1="-1.89" x2="-2.57" y2="-1.86" />
<circle cx="-2.75" cy="-1.47" r="0.03" />
<line x1="-2.50" y1="-1.53" x2="-2.75" y2="-1.47" />
<circle cx="-2.56" cy="-1.08" r="0.03" />
<line x1="-2.31" y1="-1.17" x2="-2.56" y2="-1.08" />
<circle cx="-2.74" cy="-0.69" r="0.03" />
<line x1="-2.51" y1="-0.81" x2="-2.74" y2="-0.69" />
<circle cx="-2.54" cy="-0.30" r="0.03" />
<line x1="-2.33" y1="-0.45" x2="-2.54" y2="-0.30" />
<circle cx="-2.72" cy="0.09" r="0.03" />
<line x1="-2.53" y1="-0.09" x2="-2.72" y2="0.09" />
<circle cx="-2.52" cy="0.48" r="0.03" />
<line x1="-2.36" y1="0.27" x2="-2.52" y2="0.48" />
<circle cx="-2.69" cy="0.86" r="0.03" />
<line x1="-2.56" y1="0.64" x2="-2.69" y2="0.86" />
<circle cx="-2.48" cy="1.25" r="0.03" />
<line x1="-2.39" y1="1.00" x2="-2.48" y2="1.25" />
<circle cx="-2.66" cy="1.63" r="0.03" />
<line x1="-2.59" y1="1.37" x2="-2.66" y2="1.63" />
<circle cx="-2.45" cy="2.01" r="0.03" />
<line x1="-2.42" y1="1.74" x2="-2.45" y2="2.01" />
<circle cx="-2.64" cy="2.38" r="0.03" />
<line x1="-2.61" y1="2.12" x2="-2.64" y2="2.38" />
<circle cx="-2.43" cy="2.76" r="0.03" />
<line x1="-2.44" y1="2.49" x2="-2.43" y2="2.76" />
<circle cx="-2.38" cy="-3.02" r="0.03" />
<line x1="-2.12" y1="-2.98" x2="-2.38" y2="-3.02" />
<circle cx="-2.19" cy="-2.64" r="0.03" />
<line x1="-1.93" y1="-2.61" x2="-2.19" y2="-2.64" />
<circle cx="-2.38" cy="-2.25" r="0.03" />
<line x1="-2.12" y1="-2.25" x2="-2.38" y2="-2.25" />
<circle cx="-2.19" cy="-1.87" r="0.03" />
<line x1="-1.93" y1="-1.88" x2="-2.19" y2="-1.87" />
<circle cx="-2.38" cy="-1.47" r="0.03" />
<line x1="-2.12" y1="-1.53" x2="-2.38" y2="-1.47" />
<circle cx="-2.19" cy="-1.09" r="0.03" />
<line x1="-1.94" y1="-1.16" x2="-2.19" y2="-1.09" />
<circle cx="-2.37" cy="-0.69" r="0.03" />
<line x1="-2.13" y1="-0.81" x2="-2.37" y2="-0.69" />
<circle cx="-2.17" cy="-0.30" r="0.03" />
<line x1="-1.95" y1="-0.45" x2="-2.17" y2="-0.30" />
<circle cx="-2.34" cy="0.09" r="0.03" />
<line x1="-2.16" y1="-0.09" x2="-2.34" y2="0.09" />
<circle cx="-2.14" cy="0.48" r="0.03" />
<line x1="-1.99" y1="0.27" x2="-2.14" y2="0.48" />
<circle cx="-2.31" cy="0.87" r="0.03" />
<line x1="-2.19" y1="0.63" x2="-2.31" y2="0.87" />
<circle cx="-2.10" cy="1.25" r="0.03" />
<line x1="-2.03" y1="1.00" x2="-2.10" y2="1.25" />
<circle cx="-2.28" cy="1.63" r="0.03" />
<line x1="-2.22" y1="1.37" x2="-2.28" y2="1.63" />
<circle cx="-2.07" cy="2.01" r="0.03" />
<line x1="-2.06" y1="1.74" x2="-2.07" y2="2.01" />
<circle cx="-2.25" cy="2.38" r="0.03" />
<line x1="-2.25" y1="2.12" x2="-2.25" y2="2.38" />
<circle cx="-2.05" cy="2.76" r="0.03" />
<line x1="-2.08" y1="2.49" x2="-2.05" y2="2.76" />
<circle cx="-2.00" cy="-3.03" r="0.03" />
<line x1="-1.75" y1="-2.97" x2="-2.00" y2="-3.03" />
<circle cx="-1.82" cy="-2.65" r="0.03" />
<line x1="-1.56" y1="-2.60" x2="-1.82" y2="-2.65" />
<circle cx="-2.01" cy="-2.26" r="0.03" />
<line x1="-1.74" y1="-2.24" x2="-2.01" y2="-2.26" />
<circle cx="-1.82" cy="-1.88" r="0.03" />
<line x1="-1.56" y1="-1.87" x2="-1.82" y2="-1.88" />
<circle cx="-2.01" cy="-1.49" r="0.03" />
<line x1="-1.74" y1="-1.51" x2="-2.01" y2="-1.49" />
<circle cx="-1.82" cy="-1.10" r="0.03" />
<line x1="-1.56" y1="-1.15" x2="-1.82" y2="-1.10" />
<circle cx="-2.00" cy="-0.70" r="0.03" />
<line x1="-1.75" y1="-0.80" x2="-2.00" y2="-0.70" />
<circle cx="-1.80" cy="-0.30" r="0.03" />
<line x1="-1.58" y1="-0.45" x2="-1.80" y2="-0.30" />
<circle cx="-1.97" cy="0.09" r="0.03" />
<line x1="-1.78" y1="-0.09" x2="-1.97" y2="0.09" />
<circle cx="-1.76" cy="0.49" r="0.03" />
<line x1="-1.62" y1="0.26" x2="-1.76" y2="0.49" />
<circle cx="-1.93" cy="0.87" r="0.03" />
<line x1="-1.82" y1="0.63" x2="-1.93" y2="0.87" />
<circle cx="-1.71" cy="1.25" r="0.03" />
<line x1="-1.66" y1="1.00" x2="-1.71" y2="1.25" />
<circle cx="-1.89" cy="1.63" r="0.03" />
<line x1="-1.86" y1="1.37" x2="-1.89" y2="1.63" />
<circle cx="-1.68" cy="2.01" r="0.03" />
<line x1="-1.69" y1="1.74" x2="-1.68" y2="2.01" />
<circle cx="-1.86" cy="2.38" r="0.03" />
<line x1="-1.89" y1="2.12" x2="-1.86" y2="2.38" />
<circle cx="-1.66" cy="2.75" r="0.03" />
<line x1="-1.72" y1="2.50" x2="-1.66" y2="2.75" />
<circle cx="-1.62" cy="-3.04" r="0.03" />
<line x1="-1.38" y1="-2.96" x2="-1.62" y2="-3.04" />
<circle cx="-1.44" cy="-2.67" r="0.03" />
<line x1="-1.19" y1="-2.58" x2="-1.44" y2="-2.67" />
<circle cx="-1.63" cy="-2.28" r="0.03" />
<line x1="-1.37" y1="-2.22" x2="-1.63" y2="-2.28" />
<circle cx="-1.44" cy="-1.90" r="0.03" />
<line x1="-1.18" y1="-1.85" x2="-1.44" y2="-1.90" />
<circle cx="-1.63" cy="-1.50" r="0.03" />
<line x1="-1.37" y1="-1.50" x2="-1.63" y2="-1.50" />
<circle cx="-1.44" cy="-1.11" r="0.03" />
<line x1="-1.18" y1="-1.14" x2="-1.44" y2="-1.11" />
<circle cx="-1.62" cy="-0.71" r="0.03" />
<line x1="-1.38" y1="-0.79" x2="-1.62" y2="-0.71" />
<circle cx="-1.43" cy="-0.31" r="0.03" />
<line x1="-1.20" y1="-0.44" x2="-1.43" y2="-0.31" />
<circle cx="-1.59" cy="0.09" r="0.03" />
<line x1="-1.41" y1="-0.09" x2="-1.59" y2="0.09" />
<circle cx="-1.38" cy="0.49" r="0.03" />
<line x1="-1.25" y1="0.26" x2="-1.38" y2="0.49" />
<circle cx="-1.54" cy="0.87" r="0.03" />
<line x1="-1.46" y1="0.63" x2="-1.54" y2="0.87" />
<circle cx="-1.32" cy="1.26" r="0.03" />
<line x1="-1.30" y1="0.99" x2="-1.32" y2="1.26" />
<circle cx="-1.50" cy="1.63" r="0.03" />
<line x1="-1.50" y1="1.37" x2="-1.50" y2="1.63" />
<circle cx="-1.29" cy="2.00" r="0.03" />
<line x1="-1.34" y1="1.75" x2="-1.29" y2="2.00" />
<circle cx="-1.47" cy="2.38" r="0.03" />
<line x1="-1.53" y1="2.12" x2="-1.47" y2="2.38" />
<circle cx="-1.27" cy="2.75" r="0.03" />
<line x1="-1.35" y1="2.50" x2="-1.27" y2="2.75" />
<circle cx="-1.24" cy="-3.05" r="0.03" />
<line x1="-1.01" y1="-2.95" x2="-1.24" y2="-3.05" />
<circle cx="-1.06" cy="-2.68" r="0.03" />
<line x1="-0.82" y1="-2.57" x2="-1.06" y2="-2.68" />
<circle cx="-1.25" cy="-2.29" r="0.03" />
<line x1="-1.00" y1="-2.21" x2="-1.25" y2="-2.29" />
<circle cx="-1.06" cy="-1.92" r="0.03" />
<line x1="-0.81" y1="-1.83" x2="-1.06" y2="-1.92" />
<circle cx="-1.25" cy="-1.52" r="0.03" />
<line x1="-1.00" y1="-1.48" x2="-1.25" y2="-1.52" />
<circle cx="-1.07" cy="-1.14" r="0.03" />
<line x1="-0.81" y1="-1.11" x2="-1.07" y2="-1.14" />
<circle cx="-1.25" cy="-0.72" r="0.03" />
<line x1="-1.00" y1="-0.78" x2="-1.25" y2="-0.72" />
<circle cx="-1.06" cy="-0.32" r="0.03" />
<line x1="-0.82" y1="-0.43" x2="-1.06" y2="-0.32" />
<circle cx="-1.22" cy="0.09" r="0.03" />
<line x1="-1.03" y1="-0.09" x2="-1.22" y2="0.09" />
<circle cx="-0.99" cy="0.50" r="0.03" />
<line x1="-0.89" y1="0.25" x2="-0.99" y2="0.50" />
<circle cx="-1.15" cy="0.88" r="0.03" />
<line x1="-1.10" y1="0.62" x2="-1.15" y2="0.88" />
<circle cx="-0.93" cy="1.26" r="0.03" />
<line x1="-0.95" y1="0.99" x2="-0.93" y2="1.26" />
<circle cx="-1.11" cy="1.63" r="0.03" />
<line x1="-1.14" y1="1.37" x2="-1.11" y2="1.63" />
<circle cx="-0.90" cy="2.00" r="0.03" />
<line x1="-0.98" y1="1.75" x2="-0.90" y2="2.00" />
<circle cx="-1.08" cy="2.37" r="0.03" />
<line x1="-1.17" y1="2.13" x2="-1.08" y2="2.37" />
<circle cx="-0.88" cy="2.74" r="0.03" />
<line x1="-0.99" y1="2.51" x2="-0.88" y2="2.74" />
<circle cx="-0.86" cy="-3.07" r="0.03" />
<line x1="-0.64" y1="-2.93" x2="-0.86" y2="-3.07" />
<circle cx="-0.67" cy="-2.70" r="0.03" />
<line x1="-0.45" y1="-2.55" x2="-0.67" y2="-2.70" />
<circle cx="-0.87" cy="-2.31" r="0.03" />
<line x1="-0.63" y1="-2.19" x2="-0.87" y2="-2.31" />
<circle cx="-0.68" cy="-1.94" r="0.03" />
<line x1="-0.45" y1="-1.81" x2="-0.68" y2="-1.94" />
<circle cx="-0.87" cy="-1.54" r="0.03" />
<line x1="-0.63" y1="-1.46" x2="-0.87" y2="-1.54" />
<circle cx="-0.69" cy="-1.17" r="0.03" />
<line x1="-0.44" y1="-1.08" x2="-0.69" y2="-1.17" />
<circle cx="-0.88" cy="-0.75" r="0.03" />
<line x1="-0.62" y1="-0.75" x2="-0.88" y2="-0.75" />
<circle cx="-0.69" cy="-0.35" r="0.03" />
<line x1="-0.43" y1="-0.40" x2="-0.69" y2="-0.35" />
<circle cx="-0.84" cy="0.09" r="0.03" />
<line x1="-0.66" y1="-0.09" x2="-0.84" y2="0.09" />
<circle cx="-0.59" cy="0.50" r="0.03" />
<line x1="-0.54" y1="0.25" x2="-0.59" y2="0.50" />
<circle cx="-0.75" cy="0.88" r="0.03" />
<line x1="-0.75" y1="0.62" x2="-0.75" y2="0.88" />
<circle cx="-0.52" cy="1.25" r="0.03" />
<line x1="-0.60" y1="1.00" x2="-0.52" y2="1.25" />
<circle cx="-0.71" cy="1.62" r="0.03" />
<line x1="-0.79" y1="1.38" x2="-0.71" y2="1.62" />
<circle cx="-0.50" cy="1.99" r="0.03" />
<line x1="-0.62" y1="1.76" x2="-0.50" y2="1.99" />
<circle cx="-0.69" cy="2.37" r="0.03" />
<line x1="-0.81" y1="2.13" x2="-0.69" y2="2.37" />
<circle cx="-0.49" cy="2.74" r="0.03" />
<line x1="-0.63" y1="2.51" x2="-0.49" y2="2.74" />
<circle cx="-0.48" cy="-3.08" r="0.03" />
<line x1="-0.27" y1="-2.92" x2="-0.48" y2="-3.08" />
<circle cx="-0.29" cy="-2.71" r="0.03" />
<line x1="-0.09" y1="-2.54" x2="-0.29" y2="-2.71" />
<circle cx="-0.48" cy="-2.33" r="0.03" />
<line x1="-0.27" y1="-2.17" x2="-0.48" y2="-2.33" />
<circle cx="-0.29" cy="-1.96" r="0.03" />
<line x1="-0.09" y1="-1.79" x2="-0.29" y2="-1.96" />
<circle cx="-0.49" cy="-1.57" r="0.03" />
<line x1="-0.26" y1="-1.43" x2="-0.49" y2="-1.57" />
<circle cx="-0.29" cy="-1.20" r="0.03" />
<line x1="-0.08" y1="-1.05" x2="-0.29" y2="-1.20" />
<circle cx="-0.50" cy="-0.79" r="0.03" />
<line x1="-0.25" y1="-0.71" x2="-0.50" y2="-0.79" />
<circle cx="-0.31" cy="-0.42" r="0.03" />
<line x1="-0.06" y1="-0.33" x2="-0.31" y2="-0.42" />
<circle cx="-0.47" cy="0.09" r="0.03" />
<line x1="-0.28" y1="-0.09" x2="-0.47" y2="0.09" />
<circle cx="-0.15" cy="0.50" r="0.03" />
<line x1="-0.23" y1="0.25" x2="-0.15" y2="0.50" />
<circle cx="-0.33" cy="0.87" r="0.03" />
<line x1="-0.42" y1="0.63" x2="-0.33" y2="0.87" />
<circle cx="-0.11" cy="1.23" r="0.03" />
<line x1="-0.26" y1="1.02" x2="-0.11" y2="1.23" />
<circle cx="-0.31" cy="1.61" r="0.03" />
<line x1="-0.44" y1="1.39" x2="-0.31" y2="1.61" />
<circle cx="-0.10" cy="1.98" r="0.03" />
<line x1="-0.27" y1="1.77" x2="-0.10" y2="1.98" />
<circle cx="-0.30" cy="2.36" r="0.03" />
<line x1="-0.45" y1="2.14" x2="-0.30" y2="2.36" />
<circle cx="-0.10" cy="2.72" r="0.03" />
<line x1="-0.27" y1="2.53" x2="-0.10" y2="2.72" />
<circle cx="-0.09" cy="-3.09" r="0.03" />
<line x1="0.09" y1="-2.91" x2="-0.09" y2="-3.09" />
<circle cx="0.10" cy="-2.72" r="0.03" />
<line x1="0.27" y1="-2.53" x2="0.10" y2="-2.72" />
<circle cx="-0.09" cy="-2.34" r="0.03" />
<line x1="0.09" y1="-2.16" x2="-0.09" y2="-2.34" />
<circle cx="0.10" cy="-1.98" r="0.03" />
<line x1="0.27" y1="-1.77" x2="0.10" y2="-1.98" />
<circle cx="-0.09" cy="-1.59" r="0.03" />
<line x1="0.09" y1="-1.41" x2="-0.09" y2="-1.59" />
<circle cx="0.11" cy="-1.23" r="0.03" />
<line x1="0.26" y1="-1.02" x2="0.11" y2="-1.23" />
<circle cx="-0.09" cy="-0.84" r="0.03" />
<line x1="0.09" y1="-0.66" x2="-0.09" y2="-0.84" />
<circle cx="0.15" cy="-0.50" r="0.03" />
<line x1="0.23" y1="-0.25" x2="0.15" y2="-0.50" />
<circle cx="0.00" cy="0.00" r="0.03" />
<line x1="0.00" y1="0.00" x2="0.00" y2="0.00" />
<circle cx="0.31" cy="0.42" r="0.03" />
<line x1="0.06" y1="0.33" x2="0.31" y2="0.42" />
<circle cx="0.09" cy="0.84" r="0.03" />
<line x1="-0.09" y1="0.66" x2="0.09" y2="0.84" />
<circle cx="0.29" cy="1.20" r="0.03" />
<line x1="0.08" y1="1.05" x2="0.29" y2="1.20" />
<circle cx="0.09" cy="1.59" r="0.03" />
<line x1="-0.09" y1="1.41" x2="0.09" y2="1.59" />
<circle cx="0.29" cy="1.96" r="0.03" />
<line x1="0.09" y1="1.79" x2="0.29" y2="1.96" />
<circle cx="0.09" cy="2.34" r="0.03" />
<line x1="-0.09" y1="2.16" x2="0.09" y2="2.34" />
<circle cx="0.29" cy="2.71" r="0.03" />
<line x1="0.09" y1="2.54" x2="0.29" y2="2.71" />
<circle cx="0.29" cy="-3.10" r="0.03" />
<line x1="0.46" y1="-2.90" x2="0.29" y2="-3.10" />
<circle cx="0.49" cy="-2.74" r="0.03" />
<line x1="0.63" y1="-2.51" x2="0.49" y2="-2.74" />
<circle cx="0.30" cy="-2.36" r="0.03" />
<line x1="0.45" y1="-2.14" x2="0.30" y2="-2.36" />
<circle cx="0.50" cy="-1.99" r="0.03" />
<line x1="0.62" y1="-1.76" x2="0.50" y2="-1.99" />
<circle cx="0.31" cy="-1.61" r="0.03" />
<line x1="0.44" y1="-1.39" x2="0.31" y2="-1.61" />
<circle cx="0.52" cy="-1.25" r="0.03" />
<line x1="0.60" y1="-1.00" x2="0.52" y2="-1.25" />
<circle cx="0.33" cy="-0.87" r="0.03" />
<line x1="0.42" y1="-0.63" x2="0.33" y2="-0.87" />
<circle cx="0.59" cy="-0.50" r="0.03" />
<line x1="0.54" y1="-0.25" x2="0.59" y2="-0.50" />
<circle cx="0.47" cy="-0.09" r="0.03" />
<line x1="0.28" y1="0.09" x2="0.47" y2="-0.09" />
<circle cx="0.69" cy="0.35" r="0.03" />
<line x1="0.43" y1="0.40" x2="0.69" y2="0.35" />
<circle cx="0.50" cy="0.79" r="0.03" />
<line x1="0.25" y1="0.71" x2="0.50" y2="0.79" />
<circle cx="0.69" cy="1.17" r="0.03" />
<line x1="0.44" y1="1.08" x2="0.69" y2="1.17" />
<circle cx="0.49" cy="1.57" r="0.03" />
<line x1="0.26" y1="1.43" x2="0.49" y2="1.57" />
<circle cx="0.68" cy="1.94" r="0.03" />
<line x1="0.45" y1="1.81" x2="0.68" y2="1.94" />
<circle cx="0.48" cy="2.33" r="0.03" />
<line x1="0.27" y1="2.17" x2="0.48" y2="2.33" />
<circle cx="0.67" cy="2.70" r="0.03" />
<line x1="0.45" y1="2.55" x2="0.67" y2="2.70" />
<circle cx="0.68" cy="-3.11" r="0.03" />
<line x1="0.82" y1="-2.89" x2="0.68" y2="-3.11" />
<circle cx="0.88" cy="-2.74" r="0.03" />
<line x1="0.99" y1="-2.51" x2="0.88" y2="-2.74" />
<circle cx="0.69" cy="-2.37" r="0.03" />
<line x1="0.81" y1="-2.13" x2="0.69" y2="-2.37" />
<circle cx="0.90" cy="-2.00" r="0.03" />
<line x1="0.98" y1="-1.75" x2="0.90" y2="-2.00" />
<circle cx="0.71" cy="-1.62" r="0.03" />
<line x1="0.79" y1="-1.38" x2="0.71" y2="-1.62" />
<circle cx="0.93" cy="-1.26" r="0.03" />
<line x1="0.95" y1="-0.99" x2="0.93" y2="-1.26" />
<circle cx="0.75" cy="-0.88" r="0.03" />
<line x1="0.75" y1="-0.62" x2="0.75" y2="-0.88" />
<circle cx="0.99" cy="-0.50" r="0.03" />
<line x1="0.89" y1="-0.25" x2="0.99" y2="-0.50" />
<circle cx="0.84" cy="-0.09" r="0.03" />
<line x1="0.66" y1="0.09" x2="0.84" y2="-0.09" />
<circle cx="1.06" cy="0.32" r="0.03" />
<line x1="0.82" y1="0.43" x2="1.06" y2="0.32" />
<circle cx="0.88" cy="0.75" r="0.03" />
<line x1="0.62" y1="0.75" x2="0.88" y2="0.75" />
<circle cx="1.07" cy="1.14" r="0.03" />
<line x1="0.81" y1="1.11" x2="1.07" y2="1.14" />
<circle cx="0.87" cy="1.54" r="0.03" />
<line x1="0.63" y1="1.46" x2="0.87" y2="1.54" />
<circle cx="1.06" cy="1.92" r="0.03" />
<line x1="0.81" y1="1.83" x2="1.06" y2="1.92" />
<circle cx="0.87" cy="2.31" r="0.03" />
<line x1="0.63" y1="2.19" x2="0.87" y2="2.31" />
<circle cx="1.06" cy="2.68" r="0.03" />
<line x1="0.82" y1="2.57" x2="1.06" y2="2.68" />
<circle cx="1.07" cy="-3.12" r="0.03" />
<line x1="1.18" y1="-2.88" x2="1.07" y2="-3.12" />
<circle cx="1.27" cy="-2.75" r="0.03" />
<line x1="1.35" y1="-2.50" x2="1.27" y2="-2.75" />
<circle cx="1.08" cy="-2.37" r="0.03" />
<line x1="1.17" y1="-2.13" x2="1.08" y2="-2.37" />
<circle cx="1.29" cy="-2.00" r="0.03" />
<line x1="1.34" y1="-1.75" x2="1.29" y2="-2.00" />
<circle cx="1.11" cy="-1.63" r="0.03" />
<line x1="1.14" y1="-1.37" x2="1.11" y2="-1.63" />
<circle cx="1.32" cy="-1.26" r="0.03" />
<line x1="1.30" y1="-0.99" x2="1.32" y2="-1.26" />
<circle cx="1.15" cy="-0.88" r="0.03" />
<line x1="1.10" y1="-0.62" x2="1.15" y2="-0.88" />
<circle cx="1.38" cy="-0.49" r="0.03" />
<line x1="1.25" y1="-0.26" x2="1.38" y2="-0.49" />
<circle cx="1.22" cy="-0.09" r="0.03" />
<line x1="1.03" y1="0.09" x2="1.22" y2="-0.09" />
<circle cx="1.43" cy="0.31" r="0.03" />
<line x1="1.20" y1="0.44" x2="1.43" y2="0.31" />
<circle cx="1.25" cy="0.72" r="0.03" />
<line x1="1.00" y1="0.78" x2="1.25" y2="0.72" />
<circle cx="1.44" cy="1.11" r="0.03" />
<line x1="1.18" y1="1.14" x2="1.44" y2="1.11" />
<circle cx="1.25" cy="1.52" r="0.03" />
<line x1="1.00" y1="1.48" x2="1.25" y2="1.52" />
<circle cx="1.44" cy="1.90" r="0.03" />
<line x1="1.18" y1="1.85" x2="1.44" y2="1.90" />
<circle cx="1.25" cy="2.29" r="0.03" />
<line x1="1.00" y1="2.21" x2="1.25" y2="2.29" />
<circle cx="1.44" cy="2.67" r="0.03" />
<line x1="1.19" y1="2.58" x2="1.44" y2="2.67" />
<circle cx="1.46" cy="-3.12" r="0.03" />
<line x1="1.54" y1="-2.88" x2="1.46" y2="-3.12" />
<circle cx="1.66" cy="-2.75" r="0.03" />
<line x1="1.72" y1="-2.50" x2="1.66" y2="-2.75" />
<circle cx="1.47" cy="-2.38" r="0.03" />
<line x1="1.53" y1="-2.12" x2="1.47" y2="-2.38" />
<circle cx="1.68" cy="-2.01" r="0.03" />
<line x1="1.69" y1="-1.74" x2="1.68" y2="-2.01" />
<circle cx="1.50" cy="-1.63" r="0.03" />
<line x1="1.50" y1="-1.37" x2="1.50" y2="-1.63" />
<circle cx="1.71" cy="-1.25" r="0.03" />
<line x1="1.66" y1="-1.00" x2="1.71" y2="-1.25" />
<circle cx="1.54" cy="-0.87" r="0.03" />
<line x1="1.46" y1="-0.63" x2="1.54" y2="-0.87" />
<circle cx="1.76" cy="-0.49" r="0.03" />
<line x1="1.62" y1="-0.26" x2="1.76" y2="-0.49" />
<circle cx="1.59" cy="-0.09" r="0.03" />
<line x1="1.41" y1="0.09" x2="1.59" y2="-0.09" />
<circle cx="1.80" cy="0.30" r="0.03" />
<line x1="1.58" y1="0.45" x2="1.80" y2="0.30" />
<circle cx="1.62" cy="0.71" r="0.03" />
<line x1="1.38" y1="0.79" x2="1.62" y2="0.71" />
<circle cx="1.82" cy="1.10" r="0.03" />
<line x1="1.56" y1="1.15" x2="1.82" y2="1.10" />
<circle cx="1.63" cy="1.50" r="0.03" />
<line x1="1.37" y1="1.50" x2="1.63" y2="1.50" />
<circle cx="1.82" cy="1.88" r="0.03" />
<line x1="1.56" y1="1.87" x2="1.82" y2="1.88" />
<circle cx="1.63" cy="2.28" r="0.03" />
<line x1="1.37" y1="2.22" x2="1.63" y2="2.28" />
<circle cx="1.82" cy="2.65" r="0.03" />
<line x1="1.56" y1="2.60" x2="1.82" y2="2.65" />
<circle cx="1.85" cy="-3.13" r="0.03" />
<line x1="1.90" y1="-2.87" x2="1.85" y2="-3.13" />
<circle cx="2.05" cy="-2.76" r="0.03" />
<line x1="2.08" y1="-2.49" x2="2.05" y2="-2.76" />
<circle cx="1.86" cy="-2.38" r="0.03" />
<line x1="1.89" y1="-2.12" x2="1.86" y2="-2.38" />
<circle cx="2.07" cy="-2.01" r="0.03" />
<line x1="2.06" y1="-1.74" x2="2.07" y2="-2.01" />
<circle cx="1.89" cy="-1.63" r="0.03" />
<line x1="1.86" y1="-1.37" x2="1.89" y2="-1.63" />
<circle cx="2.10" cy="-1.25" r="0.03" />
<line x1="2.03" y1="-1.00" x2="2.10" y2="-1.25" />
<circle cx="1.93" cy="-0.87" r="0.03" />
<line x1="1.82" y1="-0.63" x2="1.93" y2="-0.87" />
<circle cx="2.14" cy="-0.48" r="0.03" />
<line x1="1.99" y1="-0.27" x2="2.14" y2="-0.48" />
<circle cx="1.97" cy="-0.09" r="0.03" />
<line x1="1.78" y1="0.09" x2="1.97" y2="-0.09" />
<circle cx="2.17" cy="0.30" r="0.03" />
<line x1="1.95" y1="0.45" x2="2.17" y2="0.30" />
<circle cx="2.00" cy="0.70" r="0.03" />
<line x1="1.75" y1="0.80" x2="2.00" y2="0.70" />
<circle cx="2.19" cy="1.09" r="0.03" />
<line x1="1.94" y1="1.16" x2="2.19" y2="1.09" />
<circle cx="2.01" cy="1.49" r="0.03" />
<line x1="1.74" y1="1.51" x2="2.01" y2="1.49" />
<circle cx="2.19" cy="1.87" r="0.03" />
<line x1="1.93" y1="1.88" x2="2.19" y2="1.87" />
<circle cx="2.01" cy="2.26" r="0.03" />
<line x1="1.74" y1="2.24" x2="2.01" y2="2.26" />
<circle cx="2.19" cy="2.64" r="0.03" />
<line x1="1.93" y1="2.61" x2="2.19" y2="2.64" />
<circle cx="2.23" cy="-3.13" r="0.03" />
<line x1="2.27" y1="-2.87" x2="2.23" y2="-3.13" />
<circle cx="2.43" cy="-2.76" r="0.03" />
<line x1="2.44" y1="-2.49" x2="2.43" y2="-2.76" />
<circle cx="2.25" cy="-2.38" r="0.03" />
<line x1="2.25" y1="-2.12" x2="2.25" y2="-2.38" />
<circle cx="2.45" cy="-2.01" r="0.03" />
<line x1="2.42" y1="-1.74" x2="2.45" y2="-2.01" />
<circle cx="2.28" cy="-1.63" r="0.03" />
<line x1="2.22" y1="-1.37" x2="2.28" y2="-1.63" />
<circle cx="2.48" cy="-1.25" r="0.03" />
<line x1="2.39" y1="-1.00" x2="2.48" y2="-1.25" />
<circle cx="2.31" cy="-0.87" r="0.03" />
<line x1="2.19" y1="-0.63" x2="2.31" y2="-0.87" />
<circle cx="2.52" cy="-0.48" r="0.03" />
<line x1="2.36" y1="-0.27" x2="2.52" y2="-0.48" />
<circle cx="2.34" cy="-0.09" r="0.03" />
<line x1="2.16" y1="0.09" x2="2.34" y2="-0.09" />
<circle cx="2.54" cy="0.30" r="0.03" />
<line x1="2.33" y1="0.45" x2="2.54" y2="0.30" />
<circle cx="2.37" cy="0.69" r="0.03" />
<line x1="2.13" y1="0.81" x2="2.37" y2="0.69" />
<circle cx="2.56" cy="1.08" r="0.03" />
<line x1="2.31" y1="1.17" x2="2.56" y2="1.08" />
<circle cx="2.38" cy="1.47" r="0.03" />
<line x1="2.12" y1="1.53" x2="2.38" y2="1.47" />
<circle cx="2.57" cy="1.86" r="0.03" />
<line x1="2.31" y1="1.89" x2="2.57" y2="1.86" />
<circle cx="2.38" cy="2.25" r="0.03" />
<line x1="2.12" y1="2.25" x2="2.38" y2="2.25" />
<circle cx="2.57" cy="2.63" r="0.03" />
<line x1="2.31" y1="2.62" x2="2.57" y2="2.63" />
<circle cx="2.62" cy="-3.13" r="0.03" />
<line x1="2.63" y1="-2.87" x2="2.62" y2="-3.13" />
<circle cx="2.82" cy="-2.76" r="0.03" />
<line x1="2.81" y1="-2.49" x2="2.82" y2="-2.76" />
<circle cx="2.64" cy="-2.38" r="0.03" />
<line x1="2.61" y1="-2.12" x2="2.64" y2="-2.38" />
<circle cx="2.84" cy="-2.00" r="0.03" />
<line x1="2.79" y1="-1.75" x2="2.84" y2="-2.00" />
<circle cx="2.66" cy="-1.63" r="0.03" />
<line x1="2.59" y1="-1.37" x2="2.66" y2="-1.63" />
<circle cx="2.86" cy="-1.25" r="0.03" />
<line x1="2.76" y1="-1.00" x2="2.86" y2="-1.25" />
<circle cx="2.69" cy="-0.86" r="0.03" />
<line x1="2.56" y1="-0.64" x2="2.69" y2="-0.86" />
<circle cx="2.89" cy="-0.48" r="0.03" />
<line x1="2.73" y1="-0.27" x2="2.89" y2="-0.48" />
<circle cx="2.72" cy="-0.09" r="0.03" />
<line x1="2.53" y1="0.09" x2="2.72" y2="-0.09" />
<circle cx="2.92" cy="0.30" r="0.03" />
<line x1="2.71" y1="0.45" x2="2.92" y2="0.30" />
<circle cx="2.74" cy="0.69" r="0.03" />
<line x1="2.51" y1="0.81" x2="2.74" y2="0.69" />
<circle cx="2.93" cy="1.07" r="0.03" />
<line x1="2.69" y1="1.18" x2="2.93" y2="1.07" />
<circle cx="2.75" cy="1.47" r="0.03" />
<line x1="2.50" y1="1.53" x2="2.75" y2="1.47" />
<circle cx="2.94" cy="1.85" r="0.03" />
<line x1="2.68" y1="1.90" x2="2.94" y2="1.85" />
<circle cx="2.76" cy="2.24" r="0.03" />
<line x1="2.49" y1="2.26" x2="2.76" y2="2.24" />
<circle cx="2.94" cy="2.62" r="0.03" />
<line x1="2.68" y1="2.63" x2="2.94" y2="2.62" />
</g>
</svg>