<svg xmlns="http://www.w3.org/2000/svg" width="100.2" height="100.0" viewBox="-55.06 -54.74 110.21 110.00">
<g fill="none" stroke="black" stroke-width="0.0310%" transform="translate(0, 0.5145) scale(16.1385, -16.1385)">
<circle cx="-0.62" cy="-2.76" r="0.03" />
<line x1="-0.48" y1="-2.54" x2="-0.62" y2="-2.76" />
<circle cx="-1.81" cy="-0.17" r="0.03" />
<line x1="-1.56" y1="-0.12" x2="-1.81" y2="-0.17" />
<circle cx="-1.93" cy="-1.45" r="0.03" />
<line x1="-1.69" y1="-1.33" x2="-1.93" y2="-1.45" />
<circle cx="-1.80" cy="0.80" r="0.03" />
<line x1="-1.56" y1="0.91" x2="-1.80" y2="0.80" />
<circle cx="2.13" cy="0.29" r="0.03" />
<line x1="2.36" y1="0.16" x2="2.13" y2="0.29" />
<circle cx="-0.54" cy="-0.82" r="0.03" />
<line x1="-0.28" y1="-0.81" x2="-0.54" y2="-0.82" />
<circle cx="0.53" cy="0.06" r="0.03" />
<line x1="0.70" y1="-0.13" x2="0.53" y2="0.06" />
<circle cx="0.47" cy="-2.86" r="0.03" />
<line x1="0.62" y1="-2.64" x2="0.47" y2="-2.86" />
<circle cx="-0.03" cy="0.33" r="0.03" />
<line x1="0.13" y1="0.13" x2="-0.03" y2="0.33" />
<circle cx="2.38" cy="-2.12" r="0.03" />
<line x1="2.64" y1="-2.09" x2="2.38" y2="-2.12" />
<circle cx="-3.03" cy="2.35" r="0.03" />
<line x1="-2.85" y1="2.54" x2="-3.03" y2="2.35" />
<circle cx="-1.56" cy="-2.02" r="0.03" />
<line x1="-1.36" y1="-1.86" x2="-1.56" y2="-2.02" />
<circle cx="2.66" cy="-2.61" r="0.03" />
<line x1="2.91" y1="-2.55" x2="2.66" y2="-2.61" />
<circle cx="2.49" cy="0.05" r="0.03" />
<line x1="2.72" y1="-0.06" x2="2.49" y2="0.05" />
<circle cx="1.21" cy="-0.62" r="0.03" />
<line x1="1.44" y1="-0.75" x2="1.21" y2="-0.62" />
<circle cx="-2.08" cy="0.83" r="0.03" />
<line x1="-1.84" y1="0.93" x2="-2.08" y2="0.83" />
<circle cx="1.98" cy="0.12" r="0.03" />
<line x1="2.21" y1="-0.01" x2="1.98" y2="0.12" />
<circle cx="-1.28" cy="-2.73" r="0.03" />
<line x1="-1.13" y1="-2.52" x2="-1.28" y2="-2.73" />
<circle cx="2.18" cy="-1.97" r="0.03" />
<line x1="2.44" y1="-1.95" x2="2.18" y2="-1.97" />
<circle cx="-1.52" cy="-1.86" r="0.03" />
<line x1="-1.31" y1="-1.70" x2="-1.52" y2="-1.86" />
<circle cx="0.09" cy="-2.09" r="0.03" />
<line x1="0.28" y1="-1.92" x2="0.09" y2="-2.09" />
<circle cx="2.76" cy="-1.55" r="0.03" />
<line x1="3.02" y1="-1.59" x2="2.76" y2="-1.55" />
<circle cx="2.49" cy="-0.64" r="0.03" />
<line x1="2.73" y1="-0.73" x2="2.49" y2="-0.64" />
<circle cx="1.70" cy="-0.61" r="0.03" />
<line x1="1.93" y1="-0.72" x2="1.70" y2="-0.61" />
<circle cx="-1.39" cy="-0.05" r="0.03" />
<line x1="-1.13" y1="-0.02" x2="-1.39" y2="-0.05" />
<circle cx="-1.36" cy="2.45" r="0.03" />
<line x1="-1.35" y1="2.71" x2="-1.36" y2="2.45" />
<circle cx="-1.24" cy="-0.64" r="0.03" />
<line x1="-0.99" y1="-0.59" x2="-1.24" y2="-0.64" />
<circle cx="0.98" cy="1.26" r="0.03" />
<line x1="1.20" y1="1.11" x2="0.98" y2="1.26" />
<circle cx="2.62" cy="-1.27" r="0.03" />
<line x1="2.87" y1="-1.33" x2="2.62" y2="-1.27" />
<circle cx="-1.94" cy="0.69" r="0.03" />
<line x1="-1.69" y1="0.79" x2="-1.94" y2="0.69" />
<circle cx="2.66" cy="2.64" r="0.03" />
<line x1="2.88" y1="2.77" x2="2.66" y2="2.64" />
<circle cx="-1.65" cy="-0.92" r="0.03" />
<line x1="-1.40" y1="-0.84" x2="-1.65" y2="-0.92" />
<circle cx="-0.80" cy="2.74" r="0.03" />
<line x1="-0.83" y1="2.99" x2="-0.80" y2="2.74" />
<circle cx="1.45" cy="2.39" r="0.03" />
<line x1="1.49" y1="2.65" x2="1.45" y2="2.39" />
<circle cx="2.38" cy="-0.35" r="0.03" />
<line x1="2.62" y1="-0.46" x2="2.38" y2="-0.35" />
<circle cx="-1.67" cy="-0.04" r="0.03" />
<line x1="-1.41" y1="0.00" x2="-1.67" y2="-0.04" />
<circle cx="-3.02" cy="-1.72" r="0.03" />
<line x1="-2.78" y1="-1.62" x2="-3.02" y2="-1.72" />
<circle cx="-0.82" cy="2.58" r="0.03" />
<line x1="-0.85" y1="2.84" x2="-0.82" y2="2.58" />
<circle cx="0.09" cy="-2.06" r="0.03" />
<line x1="0.28" y1="-1.88" x2="0.09" y2="-2.06" />
<circle cx="-0.45" cy="-1.98" r="0.03" />
<line x1="-0.26" y1="-1.80" x2="-0.45" y2="-1.98" />
<circle cx="-1.52" cy="-1.84" r="0.03" />
<line x1="-1.31" y1="-1.68" x2="-1.52" y2="-1.84" />
<circle cx="0.00" cy="-0.96" r="0.03" />
<line x1="0.26" y1="-0.98" x2="0.00" y2="-0.96" />
<circle cx="-1.05" cy="0.53" r="0.03" />
<line x1="-0.79" y1="0.58" x2="-1.05" y2="0.53" />
<circle cx="-2.61" cy="1.40" r="0.03" />
<line x1="-2.39" y1="1.54" x2="-2.61" y2="1.40" />
<circle cx="-2.02" cy="-2.39" r="0.03" />
<line x1="-1.82" y1="-2.21" x2="-2.02" y2="-2.39" />
<circle cx="2.69" cy="-1.83" r="0.03" />
<line x1="2.95" y1="-1.85" x2="2.69" y2="-1.83" />
<circle cx="1.42" cy="2.22" r="0.03" />
<line x1="1.48" y1="2.47" x2="1.42" y2="2.22" />
<circle cx="2.71" cy="-0.49" r="0.03" />
<line x1="2.95" y1="-0.58" x2="2.71" y2="-0.49" />
<circle cx="0.73" cy="1.50" r="0.03" />
<line x1="0.70" y1="1.75" x2="0.73" y2="1.50" />
<circle cx="-1.83" cy="-1.89" r="0.03" />
<line x1="-1.62" y1="-1.74" x2="-1.83" y2="-1.89" />
<circle cx="0.20" cy="1.08" r="0.03" />
<line x1="0.06" y1="1.31" x2="0.20" y2="1.08" />
<circle cx="-1.25" cy="-1.13" r="0.03" />
<line x1="-1.01" y1="-1.03" x2="-1.25" y2="-1.13" />
<circle cx="-2.33" cy="-1.94" r="0.03" />
<line x1="-2.11" y1="-1.80" x2="-2.33" y2="-1.94" />
<circle cx="-2.37" cy="-1.71" r="0.03" />
<line x1="-2.14" y1="-1.59" x2="-2.37" y2="-1.71" />
<circle cx="-2.41" cy="0.88" r="0.03" />
<line x1="-2.17" y1="0.98" x2="-2.41" y2="0.88" />
<circle cx="2.27" cy="-0.53" r="0.03" />
<line x1="2.52" y1="-0.63" x2="2.27" y2="-0.53" />
<circle cx="-1.69" cy="-2.61" r="0.03" />
<line x1="-1.52" y1="-2.41" x2="-1.69" y2="-2.61" />
<circle cx="-0.77" cy="2.47" r="0.03" />
<line x1="-0.81" y1="2.73" x2="-0.77" y2="2.47" />
<circle cx="1.92" cy="-0.41" r="0.03" />
<line x1="2.16" y1="-0.53" x2="1.92" y2="-0.41" />
<circle cx="-0.22" cy="-1.62" r="0.03" />
<line x1="0.01" y1="-1.49" x2="-0.22" y2="-1.62" />
<circle cx="-1.62" cy="0.71" r="0.03" />
<line x1="-1.38" y1="0.81" x2="-1.62" y2="0.71" />
<circle cx="-2.08" cy="0.59" r="0.03" />
<line x1="-1.84" y1="0.67" x2="-2.08" y2="0.59" />
<circle cx="-2.74" cy="-2.00" r="0.03" />
<line x1="-2.51" y1="-1.87" x2="-2.74" y2="-2.00" />
<circle cx="0.84" cy="1.56" r="0.03" />
<line x1="0.85" y1="1.82" x2="0.84" y2="1.56" />
<circle cx="-2.58" cy="2.41" r="0.03" />
<line x1="-2.45" y1="2.64" x2="-2.58" y2="2.41" />
<circle cx="1.64" cy="-1.89" r="0.03" />
<line x1="1.90" y1="-1.86" x2="1.64" y2="-1.89" />
<circle cx="-1.73" cy="2.61" r="0.03" />
<line x1="-1.69" y1="2.86" x2="-1.73" y2="2.61" />
<circle cx="1.09" cy="1.70" r="0.03" />
<line x1="1.19" y1="1.94" x2="1.09" y2="1.70" />
<circle cx="2.84" cy="1.72" r="0.03" />
<line x1="3.10" y1="1.69" x2="2.84" y2="1.72" />
<circle cx="2.30" cy="-1.62" r="0.03" />
<line x1="2.56" y1="-1.65" x2="2.30" y2="-1.62" />
<circle cx="0.67" cy="1.30" r="0.03" />
<line x1="0.88" y1="1.14" x2="0.67" y2="1.30" />
<circle cx="-0.25" cy="-1.07" r="0.03" />
<line x1="0.01" y1="-1.04" x2="-0.25" y2="-1.07" />
<circle cx="-0.41" cy="-0.86" r="0.03" />
<line x1="-0.14" y1="-0.86" x2="-0.41" y2="-0.86" />
<circle cx="-3.02" cy="-0.49" r="0.03" />
<line x1="-2.76" y1="-0.44" x2="-3.02" y2="-0.49" />
<circle cx="2.14" cy="1.08" r="0.03" />
<line x1="2.38" y1="0.98" x2="2.14" y2="1.08" />
<circle cx="1.10" cy="2.76" r="0.03" />
<line x1="1.07" y1="3.02" x2="1.10" y2="2.76" />
<circle cx="-2.13" cy="-0.65" r="0.03" />
<line x1="-1.88" y1="-0.58" x2="-2.13" y2="-0.65" />
<circle cx="-2.40" cy="-0.34" r="0.03" />
<line x1="-2.14" y1="-0.29" x2="-2.40" y2="-0.34" />
<circle cx="0.49" cy="-1.01" r="0.03" />
<line x1="0.74" y1="-1.07" x2="0.49" y2="-1.01" />
<circle cx="2.09" cy="-2.18" r="0.03" />
<line x1="2.34" y1="-2.13" x2="2.09" y2="-2.18" />
<circle cx="-2.12" cy="-1.50" r="0.03" />
<line x1="-1.89" y1="-1.39" x2="-2.12" y2="-1.50" />
<circle cx="-2.23" cy="-1.91" r="0.03" />
<line x1="-2.01" y1="-1.78" x2="-2.23" y2="-1.91" />
<circle cx="2.62" cy="2.77" r="0.03" />
<line x1="2.82" y1="2.93" x2="2.62" y2="2.77" />
<circle cx="1.70" cy="2.13" r="0.03" />
<line x1="1.87" y1="2.32" x2="1.70" y2="2.13" />
<circle cx="-2.99" cy="1.44" r="0.03" />
<line x1="-2.76" y1="1.56" x2="-2.99" y2="1.44" />
<circle cx="-0.80" cy="-1.62" r="0.03" />
<line x1="-0.59" y1="-1.47" x2="-0.80" y2="-1.62" />
<circle cx="2.62" cy="-2.40" r="0.03" />
<line x1="2.88" y1="-2.36" x2="2.62" y2="-2.40" />
<circle cx="2.80" cy="1.28" r="0.03" />
<line x1="3.05" y1="1.21" x2="2.80" y2="1.28" />
<circle cx="-0.38" cy="1.87" r="0.03" />
<line x1="-0.44" y1="2.12" x2="-0.38" y2="1.87" />
<circle cx="0.83" cy="2.65" r="0.03" />
<line x1="0.78" y1="2.90" x2="0.83" y2="2.65" />
<circle cx="1.23" cy="-2.26" r="0.03" />
<line x1="1.46" y1="-2.14" x2="1.23" y2="-2.26" />
<circle cx="1.16" cy="2.41" r="0.03" />
<line x1="1.15" y1="2.68" x2="1.16" y2="2.41" />
<circle cx="-2.72" cy="1.47" r="0.03" />
<line x1="-2.50" y1="1.61" x2="-2.72" y2="1.47" />
<circle cx="-2.44" cy="-0.52" r="0.03" />
<line x1="-2.19" y1="-0.46" x2="-2.44" y2="-0.52" />
<circle cx="1.33" cy="-0.10" r="0.03" />
<line x1="1.54" y1="-0.25" x2="1.33" y2="-0.10" />
<circle cx="0.27" cy="0.79" r="0.03" />
<line x1="0.39" y1="0.55" x2="0.27" y2="0.79" />
<circle cx="1.17" cy="1.44" r="0.03" />
<line x1="1.42" y1="1.38" x2="1.17" y2="1.44" />
<circle cx="-1.24" cy="2.48" r="0.03" />
<line x1="-1.25" y1="2.74" x2="-1.24" y2="2.48" />
<circle cx="-2.17" cy="1.65" r="0.03" />
<line x1="-2.00" y1="1.85" x2="-2.17" y2="1.65" />
<circle cx="1.65" cy="1.80" r="0.03" />
<line x1="1.90" y1="1.86" x2="1.65" y2="1.80" />
<circle cx="-1.93" cy="0.36" r="0.03" />
<line x1="-1.68" y1="0.43" x2="-1.93" y2="0.36" />
<circle cx="-1.31" cy="2.57" r="0.03" />
<line x1="-1.31" y1="2.83" x2="-1.31" y2="2.57" />
<circle cx="-1.25" cy="2.60" r="0.03" />
<line x1="-1.25" y1="2.86" x2="-1.25" y2="2.60" />
<circle cx="-1.05" cy="-1.11" r="0.03" />
<line x1="-0.80" y1="-1.02" x2="-1.05" y2="-1.11" />
<circle cx="0.97" cy="-2.24" r="0.03" />
<line x1="1.19" y1="-2.11" x2="0.97" y2="-2.24" />
<circle cx="-0.60" cy="-1.81" r="0.03" />
<line x1="-0.40" y1="-1.64" x2="-0.60" y2="-1.81" />
<circle cx="-2.21" cy="1.89" r="0.03" />
<line x1="-2.06" y1="2.10" x2="-2.21" y2="1.89" />
<circle cx="-0.46" cy="1.14" r="0.03" />
<line x1="-0.48" y1="1.40" x2="-0.46" y2="1.14" />
<circle cx="2.56" cy="1.75" r="0.03" />
<line x1="2.82" y1="1.72" x2="2.56" y2="1.75" />
<circle cx="-0.06" cy="2.47" r="0.03" />
<line x1="-0.13" y1="2.72" x2="-0.06" y2="2.47" />
<circle cx="-2.50" cy="-0.18" r="0.03" />
<line x1="-2.25" y1="-0.13" x2="-2.50" y2="-0.18" />
<circle cx="-0.39" cy="-3.01" r="0.03" />
<line x1="-0.27" y1="-2.78" x2="-0.39" y2="-3.01" />
<circle cx="-2.84" cy="0.70" r="0.03" />
<line x1="-2.59" y1="0.78" x2="-2.84" y2="0.70" />
<circle cx="-1.86" cy="-1.47" r="0.03" />
<line x1="-1.63" y1="-1.35" x2="-1.86" y2="-1.47" />
<circle cx="-0.53" cy="-0.57" r="0.03" />
<line x1="-0.28" y1="-0.61" x2="-0.53" y2="-0.57" />
<circle cx="-2.01" cy="-1.39" r="0.03" />
<line x1="-1.77" y1="-1.28" x2="-2.01" y2="-1.39" />
<circle cx="-2.23" cy="-0.47" r="0.03" />
<line x1="-1.97" y1="-0.41" x2="-2.23" y2="-0.47" />
<circle cx="-0.44" cy="-2.65" r="0.03" />
<line x1="-0.30" y1="-2.43" x2="-0.44" y2="-2.65" />
<circle cx="0.20" cy="-1.80" r="0.03" />
<line x1="0.42" y1="-1.67" x2="0.20" y2="-1.80" />
<circle cx="-2.48" cy="-1.92" r="0.03" />
<line x1="-2.25" y1="-1.79" x2="-2.48" y2="-1.92" />
<circle cx="-1.56" cy="-0.59" r="0.03" />
<line x1="-1.30" y1="-0.54" x2="-1.56" y2="-0.59" />
<circle cx="-2.27" cy="-0.02" r="0.03" />
<line x1="-2.01" y1="0.03" x2="-2.27" y2="-0.02" />
<circle cx="1.61" cy="0.27" r="0.03" />
<line x1="1.83" y1="0.12" x2="1.61" y2="0.27" />
<circle cx="0.60" cy="0.77" r="0.03" />
<line x1="0.74" y1="0.55" x2="0.60" y2="0.77" />
<circle cx="-1.93" cy="-2.95" r="0.03" />
<line x1="-1.76" y1="-2.75" x2="-1.93" y2="-2.95" />
<circle cx="2.29" cy="1.95" r="0.03" />
<line x1="2.55" y1="1.97" x2="2.29" y2="1.95" />
<circle cx="-1.08" cy="1.67" r="0.03" />
<line x1="-1.05" y1="1.93" x2="-1.08" y2="1.67" />
<circle cx="-1.34" cy="-0.32" r="0.03" />
<line x1="-1.08" y1="-0.29" x2="-1.34" y2="-0.32" />
<circle cx="-2.67" cy="2.06" r="0.03" />
<line x1="-2.50" y1="2.26" x2="-2.67" y2="2.06" />
<circle cx="2.51" cy="-1.15" r="0.03" />
<line x1="2.76" y1="-1.21" x2="2.51" y2="-1.15" />
<circle cx="-0.32" cy="0.86" r="0.03" />
<line x1="-0.10" y1="1.00" x2="-0.32" y2="0.86" />
<circle cx="1.40" cy="-1.80" r="0.03" />
<line x1="1.66" y1="-1.77" x2="1.40" y2="-1.80" />
<circle cx="1.96" cy="-2.17" r="0.03" />
<line x1="2.21" y1="-2.12" x2="1.96" y2="-2.17" />
<circle cx="-2.24" cy="-2.56" r="0.03" />
<line x1="-2.04" y1="-2.39" x2="-2.24" y2="-2.56" />
<circle cx="-0.64" cy="-1.70" r="0.03" />
<line x1="-0.43" y1="-1.55" x2="-0.64" y2="-1.70" />
<circle cx="-2.30" cy="-2.08" r="0.03" />
<line x1="-2.08" y1="-1.93" x2="-2.30" y2="-2.08" />
<circle cx="-2.68" cy="2.87" r="0.03" />
<line x1="-2.57" y1="3.10" x2="-2.68" y2="2.87" />
<circle cx="1.13" cy="-2.67" r="0.03" />
<line x1="1.33" y1="-2.50" x2="1.13" y2="-2.67" />
<circle cx="-2.93" cy="1.79" r="0.03" />
<line x1="-2.72" y1="1.94" x2="-2.93" y2="1.79" />
<circle cx="-0.33" cy="0.07" r="0.03" />
<line x1="-0.12" y1="-0.08" x2="-0.33" y2="0.07" />
<circle cx="1.77" cy="-1.17" r="0.03" />
<line x1="2.02" y1="-1.23" x2="1.77" y2="-1.17" />
<circle cx="-0.84" cy="-2.68" r="0.03" />
<line x1="-0.69" y1="-2.46" x2="-0.84" y2="-2.68" />
<circle cx="-1.39" cy="-2.81" r="0.03" />
<line x1="-1.23" y1="-2.59" x2="-1.39" y2="-2.81" />
<circle cx="-1.94" cy="0.43" r="0.03" />
<line x1="-1.69" y1="0.50" x2="-1.94" y2="0.43" />
<circle cx="-1.21" cy="-2.81" r="0.03" />
<line x1="-1.07" y1="-2.59" x2="-1.21" y2="-2.81" />
<circle cx="-2.94" cy="-0.64" r="0.03" />
<line x1="-2.68" y1="-0.58" x2="-2.94" y2="-0.64" />
<circle cx="0.54" cy="-3.08" r="0.03" />
<line x1="0.67" y1="-2.86" x2="0.54" y2="-3.08" />
<circle cx="1.17" cy="0.21" r="0.03" />
<line x1="1.36" y1="0.04" x2="1.17" y2="0.21" />
<circle cx="1.77" cy="-1.88" r="0.03" />
<line x1="2.03" y1="-1.85" x2="1.77" y2="-1.88" />
<circle cx="0.31" cy="1.36" r="0.03" />
<line x1="0.20" y1="1.60" x2="0.31" y2="1.36" />
<circle cx="-1.55" cy="-1.82" r="0.03" />
<line x1="-1.34" y1="-1.66" x2="-1.55" y2="-1.82" />
<circle cx="-1.82" cy="-3.08" r="0.03" />
<line x1="-1.66" y1="-2.87" x2="-1.82" y2="-3.08" />
<circle cx="0.22" cy="2.63" r="0.03" />
<line x1="0.15" y1="2.88" x2="0.22" y2="2.63" />
<circle cx="0.56" cy="-0.36" r="0.03" />
<line x1="0.76" y1="-0.52" x2="0.56" y2="-0.36" />
<circle cx="-1.43" cy="1.37" r="0.03" />
<line x1="-1.31" y1="1.60" x2="-1.43" y2="1.37" />
<circle cx="2.09" cy="-1.08" r="0.03" />
<line x1="2.34" y1="-1.15" x2="2.09" y2="-1.08" />
<circle cx="2.52" cy="0.67" r="0.03" />
<line x1="2.76" y1="0.56" x2="2.52" y2="0.67" />
<circle cx="2.51" cy="-0.45" r="0.03" />
<line x1="2.75" y1="-0.55" x2="2.51" y2="-0.45" />
<circle cx="0.94" cy="0.22" r="0.03" />
<line x1="1.12" y1="0.03" x2="0.94" y2="0.22" />
<circle cx="-2.24" cy="1.91" r="0.03" />
<line x1="-2.09" y1="2.12" x2="-2.24" y2="1.91" />
<circle cx="-2.33" cy="-1.24" r="0.03" />
<line x1="-2.08" y1="-1.15" x2="-2.33" y2="-1.24" />
<circle cx="0.23" cy="1.83" r="0.03" />
<line x1="0.14" y1="2.08" x2="0.23" y2="1.83" />
<circle cx="-1.68" cy="-0.87" r="0.03" />
<line x1="-1.43" y1="-0.79" x2="-1.68" y2="-0.87" />
<circle cx="0.34" cy="0.89" r="0.03" />
<line x1="0.45" y1="0.65" x2="0.34" y2="0.89" />
<circle cx="0.42" cy="0.09" r="0.03" />
<line x1="0.59" y1="-0.11" x2="0.42" y2="0.09" />
<circle cx="-2.79" cy="-0.14" r="0.03" />
<line x1="-2.54" y1="-0.09" x2="-2.79" y2="-0.14" />
<circle cx="2.60" cy="-0.64" r="0.03" />
<line x1="2.84" y1="-0.73" x2="2.60" y2="-0.64" />
<circle cx="-0.01" cy="0.56" r="0.03" />
<line x1="0.13" y1="0.34" x2="-0.01" y2="0.56" />
<circle cx="-1.84" cy="0.37" r="0.03" />
<line x1="-1.58" y1="0.43" x2="-1.84" y2="0.37" />
<circle cx="1.94" cy="-0.28" r="0.03" />
<line x1="2.17" y1="-0.41" x2="1.94" y2="-0.28" />
<circle cx="-2.48" cy="-1.23" r="0.03" />
<line x1="-2.24" y1="-1.14" x2="-2.48" y2="-1.23" />
<circle cx="-1.49" cy="1.45" r="0.03" />
<line x1="-1.37" y1="1.69" x2="-1.49" y2="1.45" />
<circle cx="-1.63" cy="-2.70" r="0.03" />
<line x1="-1.46" y1="-2.50" x2="-1.63" y2="-2.70" />
<circle cx="2.03" cy="-2.20" r="0.03" />
<line x1="2.29" y1="-2.15" x2="2.03" y2="-2.20" />
<circle cx="1.23" cy="1.05" r="0.03" />
<line x1="1.44" y1="0.89" x2="1.23" y2="1.05" />
<circle cx="2.73" cy="0.83" r="0.03" />
<line x1="2.98" y1="0.74" x2="2.73" y2="0.83" />
<circle cx="-0.12" cy="-3.01" r="0.03" />
<line x1="-0.00" y1="-2.78" x2="-0.12" y2="-3.01" />
<circle cx="1.27" cy="1.68" r="0.03" />
<line x1="1.50" y1="1.80" x2="1.27" y2="1.68" />
<circle cx="-0.41" cy="-1.86" r="0.03" />
<line x1="-0.21" y1="-1.69" x2="-0.41" y2="-1.86" />
<circle cx="2.82" cy="0.11" r="0.03" />
<line x1="3.06" y1="0.01" x2="2.82" y2="0.11" />
<circle cx="-1.53" cy="-1.20" r="0.03" />
<line x1="-1.29" y1="-1.10" x2="-1.53" y2="-1.20" />
<circle cx="0.72" cy="-2.92" r="0.03" />
<line x1="0.87" y1="-2.71" x2="0.72" y2="-2.92" />
<circle cx="0.56" cy="0.76" r="0.03" />
<line x1="0.69" y1="0.53" x2="0.56" y2="0.76" />
<circle cx="2.06" cy="2.69" r="0.03" />
<line x1="2.19" y1="2.92" x2="2.06" y2="2.69" />
<circle cx="2.24" cy="2.07" r="0.03" />
<line x1="2.49" y1="2.13" x2="2.24" y2="2.07" />
<circle cx="-1.30" cy="0.65" r="0.03" />
<line x1="-1.06" y1="0.75" x2="-1.30" y2="0.65" />
<circle cx="2.20" cy="1.57" r="0.03" />
<line x1="2.45" y1="1.52" x2="2.20" y2="1.57" />
<circle cx="-0.01" cy="-3.08" r="0.03" />
<line x1="0.11" y1="-2.85" x2="-0.01" y2="-3.08" />
<circle cx="1.23" cy="-3.08" r="0.03" />
<line x1="1.40" y1="-2.88" x2="1.23" y2="-3.08" />
<circle cx="-2.03" cy="-2.59" r="0.03" />
<line x1="-1.84" y1="-2.41" x2="-2.03" y2="-2.59" />
<circle cx="0.87" cy="1.87" r="0.03" />
<line x1="0.83" y1="2.13" x2="0.87" y2="1.87" />
<circle cx="-2.31" cy="1.37" r="0.03" />
<line x1="-2.11" y1="1.53" x2="-2.31" y2="1.37" />
<circle cx="0.86" cy="-2.77" r="0.03" />
<line x1="1.03" y1="-2.57" x2="0.86" y2="-2.77" />
<circle cx="0.77" cy="-0.04" r="0.03" />
<line x1="0.96" y1="-0.22" x2="0.77" y2="-0.04" />
<circle cx="-0.88" cy="1.67" r="0.03" />
<line x1="-0.88" y1="1.93" x2="-0.88" y2="1.67" />
<circle cx="1.09" cy="-2.80" r="0.03" />
<line x1="1.28" y1="-2.61" x2="1.09" y2="-2.80" />
<circle cx="-2.27" cy="0.81" r="0.03" />
<line x1="-2.03" y1="0.91" x2="-2.27" y2="0.81" />
<circle cx="-1.53" cy="-1.24" r="0.03" />
<line x1="-1.29" y1="-1.14" x2="-1.53" y2="-1.24" />
<circle cx="-1.33" cy="1.08" r="0.03" />
<line x1="-1.16" y1="1.28" x2="-1.33" y2="1.08" />
<circle cx="-1.63" cy="-0.09" r="0.03" />
<line x1="-1.37" y1="-0.05" x2="-1.63" y2="-0.09" />
<circle cx="-0.71" cy="-1.91" r="0.03" />
<line x1="-0.51" y1="-1.74" x2="-0.71" y2="-1.91" />
<circle cx="0.81" cy="1.18" r="0.03" />
<line x1="1.00" y1="1.00" x2="0.81" y2="1.18" />
<circle cx="-2.62" cy="-0.44" r="0.03" />
<line x1="-2.36" y1="-0.38" x2="-2.62" y2="-0.44" />
<circle cx="-2.07" cy="1.40" r="0.03" />
<line x1="-1.88" y1="1.58" x2="-2.07" y2="1.40" />
<circle cx="-3.02" cy="0.59" r="0.03" />
<line x1="-2.77" y1="0.66" x2="-3.02" y2="0.59" />
<circle cx="-1.48" cy="2.23" r="0.03" />
<line x1="-1.45" y1="2.49" x2="-1.48" y2="2.23" />
<circle cx="2.52" cy="-2.68" r="0.03" />
<line x1="2.77" y1="-2.60" x2="2.52" y2="-2.68" />
<circle cx="2.64" cy="-2.52" r="0.03" />
<line x1="2.90" y1="-2.46" x2="2.64" y2="-2.52" />
<circle cx="-0.79" cy="2.86" r="0.03" />
<line x1="-0.83" y1="3.11" x2="-0.79" y2="2.86" />
<circle cx="2.57" cy="1.67" r="0.03" />
<line x1="2.83" y1="1.63" x2="2.57" y2="1.67" />
<circle cx="-0.73" cy="2.08" r="0.03" />
<line x1="-0.77" y1="2.34" x2="-0.73" y2="2.08" />
<circle cx="-0.63" cy="2.35" r="0.03" />
<line x1="-0.67" y1="2.61" x2="-0.63" y2="2.35" />
<circle cx="-2.69" cy="-1.22" r="0.03" />
<line x1="-2.44" y1="-1.14" x2="-2.69" y2="-1.22" />
<circle cx="2.69" cy="-2.43" r="0.03" />
<line x1="2.94" y1="-2.38" x2="2.69" y2="-2.43" />
<circle cx="1.00" cy="-2.24" r="0.03" />
<line x1="1.22" y1="-2.11" x2="1.00" y2="-2.24" />
<circle cx="-2.85" cy="-3.01" r="0.03" />
<line x1="-2.66" y1="-2.84" x2="-2.85" y2="-3.01" />
<circle cx="-2.70" cy="1.05" r="0.03" />
<line x1="-2.46" y1="1.15" x2="-2.70" y2="1.05" />
<circle cx="-2.76" cy="2.71" r="0.03" />
<line x1="-2.63" y1="2.94" x2="-2.76" y2="2.71" />
<circle cx="-2.02" cy="-3.02" r="0.03" />
<line x1="-1.86" y1="-2.81" x2="-2.02" y2="-3.02" />
<circle cx="-2.41" cy="-2.69" r="0.03" />
<line x1="-2.22" y1="-2.51" x2="-2.41" y2="-2.69" />
<circle cx="2.31" cy="1.35" r="0.03" />
<line x1="2.56" y1="1.27" x2="2.31" y2="1.35" />
<circle cx="-1.19" cy="0.88" r="0.03" />
<line x1="-0.99" y1="1.04" x2="-1.19" y2="0.88" />
<circle cx="-0.12" cy="-0.42" r="0.03" />
<line x1="0.11" y1="-0.54" x2="-0.12" y2="-0.42" />
<circle cx="1.26" cy="0.26" r="0.03" />
<line x1="1.46" y1="0.09" x2="1.26" y2="0.26" />
<circle cx="-0.62" cy="1.14" r="0.03" />
<line x1="-0.60" y1="1.40" x2="-0.62" y2="1.14" />
<circle cx="2.28" cy="-2.87" r="0.03" />
<line x1="2.51" y1="-2.76" x2="2.28" y2="-2.87" />
<circle cx="0.05" cy="0.96" r="0.03" />
<line x1="0.15" y1="0.72" x2="0.05" y2="0.96" />
<circle cx="-0.38" cy="-0.24" r="0.03" />
<line x1="-0.15" y1="-0.35" x2="-0.38" y2="-0.24" />
<circle cx="-0.26" cy="-2.49" r="0.03" />
<line x1="-0.11" y1="-2.27" x2="-0.26" y2="-2.49" />
<circle cx="0.14" cy="-2.41" r="0.03" />
<line x1="0.31" y1="-2.21" x2="0.14" y2="-2.41" />
<circle cx="-1.18" cy="0.17" r="0.03" />
<line x1="-0.92" y1="0.18" x2="-1.18" y2="0.17" />
<circle cx="1.56" cy="2.33" r="0.03" />
<line x1="1.65" y1="2.58" x2="1.56" y2="2.33" />
<circle cx="-2.48" cy="-2.92" r="0.03" />
<line x1="-2.30" y1="-2.74" x2="-2.48" y2="-2.92" />
<circle cx="1.71" cy="-1.32" r="0.03" />
<line x1="1.96" y1="-1.37" x2="1.71" y2="-1.32" />
<circle cx="2.61" cy="1.57" r="0.03" />
<line x1="2.87" y1="1.52" x2="2.61" y2="1.57" />
<circle cx="-1.17" cy="0.66" r="0.03" />
<line x1="-0.93" y1="0.75" x2="-1.17" y2="0.66" />
<circle cx="-1.55" cy="1.30" r="0.03" />
<line x1="-1.40" y1="1.51" x2="-1.55" y2="1.30" />
<circle cx="-2.55" cy="-1.15" r="0.03" />
<line x1="-2.30" y1="-1.07" x2="-2.55" y2="-1.15" />
<circle cx="-2.82" cy="-2.43" r="0.03" />
<line x1="-2.60" y1="-2.29" x2="-2.82" y2="-2.43" />
<circle cx="0.61" cy="0.97" r="0.03" />
<line x1="0.75" y1="0.75" x2="0.61" y2="0.97" />
<circle cx="0.12" cy="1.27" r="0.03" />
<line x1="0.01" y1="1.50" x2="0.12" y2="1.27" />
<circle cx="-2.44" cy="-0.93" r="0.03" />
<line x1="-2.19" y1="-0.86" x2="-2.44" y2="-0.93" />
<circle cx="-2.12" cy="-2.78" r="0.03" />
<line x1="-1.94" y1="-2.59" x2="-2.12" y2="-2.78" />
<circle cx="-0.51" cy="-2.11" r="0.03" />
<line x1="-0.33" y1="-1.91" x2="-0.51" y2="-2.11" />
<circle cx="-3.10" cy="0.82" r="0.03" />
<line x1="-2.85" y1="0.90" x2="-3.10" y2="0.82" />
<circle cx="1.29" cy="2.12" r="0.03" />
<line x1="1.34" y1="2.38" x2="1.29" y2="2.12" />
<circle cx="2.85" cy="1.62" r="0.03" />
<line x1="3.11" y1="1.57" x2="2.85" y2="1.62" />
<circle cx="1.73" cy="-1.73" r="0.03" />
<line x1="1.99" y1="-1.73" x2="1.73" y2="-1.73" />
<circle cx="0.16" cy="-2.48" r="0.03" />
<line x1="0.32" y1="-2.27" x2="0.16" y2="-2.48" />
<circle cx="0.28" cy="0.85" r="0.03" />
<line x1="0.39" y1="0.61" x2="0.28" y2="0.85" />
<circle cx="-1.58" cy="-0.94" r="0.03" />
<line x1="-1.33" y1="-0.86" x2="-1.58" y2="-0.94" />
<circle cx="2.46" cy="2.37" r="0.03" />
<line x1="2.70" y1="2.48" x2="2.46" y2="2.37" />
<circle cx="1.36" cy="-1.70" r="0.03" />
<line x1="1.62" y1="-1.68" x2="1.36" y2="-1.70" />
<circle cx="-2.15" cy="2.49" r="0.03" />
<line x1="-2.07" y1="2.74" x2="-2.15" y2="2.49" />
<circle cx="-1.08" cy="1.03" r="0.03" />
<line x1="-0.93" y1="1.24" x2="-1.08" y2="1.03" />
<circle cx="0.47" cy="-0.84" r="0.03" />
<line x1="0.71" y1="-0.93" x2="0.47" y2="-0.84" />
<circle cx="-0.71" cy="-1.61" r="0.03" />
<line x1="-0.49" y1="-1.46" x2="-0.71" y2="-1.61" />
<circle cx="2.63" cy="0.63" r="0.03" />
<line x1="2.87" y1="0.53" x2="2.63" y2="0.63" />
<circle cx="-1.68" cy="-1.67" r="0.03" />
<line x1="-1.45" y1="-1.53" x2="-1.68" y2="-1.67" />
<circle cx="-2.50" cy="-2.97" r="0.03" />
<line x1="-2.32" y1="-2.79" x2="-2.50" y2="-2.97" />
<circle cx="0.97" cy="-0.47" r="0.03" />
<line x1="1.18" y1="-0.62" x2="0.97" y2="-0.47" />
<circle cx="-3.07" cy="-2.38" r="0.03" />
<line x1="-2.84" y1="-2.24" x2="-3.07" y2="-2.38" />
<circle cx="0.05" cy="-0.13" r="0.03" />
<line x1="0.25" y1="-0.31" x2="0.05" y2="-0.13" />
<circle cx="1.04" cy="-0.11" r="0.03" />
<line x1="1.24" y1="-0.28" x2="1.04" y2="-0.11" />
<circle cx="-2.28" cy="-2.87" r="0.03" />
<line x1="-2.10" y1="-2.68" x2="-2.28" y2="-2.87" />
<circle cx="-2.99" cy="0.64" r="0.03" />
<line x1="-2.74" y1="0.71" x2="-2.99" y2="0.64" />
<circle cx="0.21" cy="2.53" r="0.03" />
<line x1="0.14" y1="2.78" x2="0.21" y2="2.53" />
<circle cx="-3.05" cy="-0.28" r="0.03" />
<line x1="-2.79" y1="-0.22" x2="-3.05" y2="-0.28" />
<circle cx="-0.49" cy="0.10" r="0.03" />
<line x1="-0.26" y1="-0.03" x2="-0.49" y2="0.10" />
<circle cx="0.95" cy="-1.64" r="0.03" />
<line x1="1.20" y1="-1.61" x2="0.95" y2="-1.64" />
<circle cx="-0.08" cy="1.32" r="0.03" />
<line x1="-0.17" y1="1.56" x2="-0.08" y2="1.32" />
<circle cx="-0.61" cy="-2.70" r="0.03" />
<line x1="-0.48" y1="-2.48" x2="-0.61" y2="-2.70" />
<circle cx="0.12" cy="2.60" r="0.03" />
<line x1="0.05" y1="2.85" x2="0.12" y2="2.60" />
<circle cx="0.43" cy="2.40" r="0.03" />
<line x1="0.36" y1="2.65" x2="0.43" y2="2.40" />
<circle cx="-1.66" cy="0.17" r="0.03" />
<line x1="-1.41" y1="0.22" x2="-1.66" y2="0.17" />
<circle cx="1.27" cy="1.96" r="0.03" />
<line x1="1.35" y1="2.21" x2="1.27" y2="1.96" />
<circle cx="-1.01" cy="-0.58" r="0.03" />
<line x1="-0.75" y1="-0.56" x2="-1.01" y2="-0.58" />
<circle cx="2.02" cy="1.23" r="0.03" />
<line x1="2.26" y1="1.13" x2="2.02" y2="1.23" />
<circle cx="-0.61" cy="-0.52" r="0.03" />
<line x1="-0.35" y1="-0.55" x2="-0.61" y2="-0.52" />
<circle cx="-1.83" cy="-1.98" r="0.03" />
<line x1="-1.62" y1="-1.83" x2="-1.83" y2="-1.98" />
<circle cx="2.17" cy="0.69" r="0.03" />
<line x1="2.40" y1="0.57" x2="2.17" y2="0.69" />
<circle cx="-1.92" cy="0.43" r="0.03" />
<line x1="-1.67" y1="0.50" x2="-1.92" y2="0.43" />
<circle cx="0.60" cy="1.72" r="0.03" />
<line x1="0.53" y1="1.97" x2="0.60" y2="1.72" />
<circle cx="-2.25" cy="2.11" r="0.03" />
<line x1="-2.12" y1="2.34" x2="-2.25" y2="2.11" />
<circle cx="0.20" cy="0.96" r="0.03" />
<line x1="0.30" y1="0.72" x2="0.20" y2="0.96" />
<circle cx="-1.21" cy="-1.06" r="0.03" />
<line x1="-0.96" y1="-0.97" x2="-1.21" y2="-1.06" />
<circle cx="0.36" cy="-1.41" r="0.03" />
<line x1="0.62" y1="-1.37" x2="0.36" y2="-1.41" />
<circle cx="1.58" cy="1.24" r="0.03" />
<line x1="1.81" y1="1.13" x2="1.58" y2="1.24" />
<circle cx="2.73" cy="0.98" r="0.03" />
<line x1="2.97" y1="0.89" x2="2.73" y2="0.98" />
<circle cx="2.46" cy="0.12" r="0.03" />
<line x1="2.69" y1="0.01" x2="2.46" y2="0.12" />
<circle cx="2.13" cy="1.35" r="0.03" />
<line x1="2.37" y1="1.27" x2="2.13" y2="1.35" />
<circle cx="-0.54" cy="0.81" r="0.03" />
<line x1="-0.33" y1="0.96" x2="-0.54" y2="0.81" />
<circle cx="0.97" cy="-1.95" r="0.03" />
<line x1="1.22" y1="-1.86" x2="0.97" y2="-1.95" />
<circle cx="-2.99" cy="-2.09" r="0.03" />
<line x1="-2.76" y1="-1.97" x2="-2.99" y2="-2.09" />
<circle cx="-1.37" cy="0.86" r="0.03" />
<line x1="-1.16" y1="1.01" x2="-1.37" y2="0.86" />
<circle cx="-2.59" cy="0.77" r="0.03" />
<line x1="-2.34" y1="0.85" x2="-2.59" y2="0.77" />
<circle cx="-2.59" cy="-2.27" r="0.03" />
<line x1="-2.38" y1="-2.12" x2="-2.59" y2="-2.27" />
<circle cx="-3.08" cy="0.09" r="0.03" />
<line x1="-2.82" y1="0.14" x2="-3.08" y2="0.09" />
<circle cx="0.97" cy="-0.75" r="0.03" />
<line x1="1.20" y1="-0.86" x2="0.97" y2="-0.75" />
<circle cx="1.00" cy="-2.55" r="0.03" />
<line x1="1.19" y1="-2.38" x2="1.00" y2="-2.55" />
</g>
</svg>