<svg xmlns="http://www.w3.org/2000/svg" width="103.5" height="100.0" viewBox="-58.31 -58.19 113.54 110.00">
<g fill="none" stroke="black" stroke-width="0.0293%" transform="translate(0, -6.3850) scale(17.0631, -17.0631)">
<circle cx="-3.06" cy="-3.12" r="0.03" />
<line x1="-2.94" y1="-2.88" x2="-3.06" y2="-3.12" />
<circle cx="-2.87" cy="-2.74" r="0.03" />
<line x1="-2.76" y1="-2.51" x2="-2.87" y2="-2.74" />
<circle cx="-3.05" cy="-2.37" r="0.03" />
<line x1="-2.95" y1="-2.13" x2="-3.05" y2="-2.37" />
<circle cx="-2.86" cy="-2.00" r="0.03" />
<line x1="-2.76" y1="-1.75" x2="-2.86" y2="-2.00" />
<circle cx="-3.04" cy="-1.62" r="0.03" />
<line x1="-2.96" y1="-1.38" x2="-3.04" y2="-1.62" />
<circle cx="-2.85" cy="-1.25" r="0.03" />
<line x1="-2.78" y1="-1.00" x2="-2.85" y2="-1.25" />
<circle cx="-3.03" cy="-0.88" r="0.03" />
<line x1="-2.97" y1="-0.62" x2="-3.03" y2="-0.88" />
<circle cx="-2.83" cy="-0.51" r="0.03" />
<line x1="-2.80" y1="-0.24" x2="-2.83" y2="-0.51" />
<circle cx="-3.00" cy="-0.13" r="0.03" />
<line x1="-3.00" y1="0.13" x2="-3.00" y2="-0.13" />
<circle cx="-2.79" cy="0.25" r="0.03" />
<line x1="-2.83" y1="0.50" x2="-2.79" y2="0.25" />
<circle cx="-2.96" cy="0.63" r="0.03" />
<line x1="-3.04" y1="0.87" x2="-2.96" y2="0.63" />
<circle cx="-2.74" cy="1.02" r="0.03" />
<line x1="-2.89" y1="1.23" x2="-2.74" y2="1.02" />
<circle cx="-2.91" cy="1.41" r="0.03" />
<line x1="-3.09" y1="1.59" x2="-2.91" y2="1.41" />
<circle cx="-2.70" cy="1.82" r="0.03" />
<line x1="-2.93" y1="1.93" x2="-2.70" y2="1.82" />
<circle cx="-2.88" cy="2.21" r="0.03" />
<line x1="-3.12" y1="2.29" x2="-2.88" y2="2.21" />
<circle cx="-2.68" cy="2.62" r="0.03" />
<line x1="-2.94" y1="2.63" x2="-2.68" y2="2.62" />
<circle cx="-2.69" cy="-3.12" r="0.03" />
<line x1="-2.56" y1="-2.88" x2="-2.69" y2="-3.12" />
<circle cx="-2.50" cy="-2.74" r="0.03" />
<line x1="-2.38" y1="-2.51" x2="-2.50" y2="-2.74" />
<circle cx="-2.68" cy="-2.37" r="0.03" />
<line x1="-2.57" y1="-2.13" x2="-2.68" y2="-2.37" />
<circle cx="-2.49" cy="-2.00" r="0.03" />
<line x1="-2.39" y1="-1.75" x2="-2.49" y2="-2.00" />
<circle cx="-2.67" cy="-1.62" r="0.03" />
<line x1="-2.58" y1="-1.38" x2="-2.67" y2="-1.62" />
<circle cx="-2.48" cy="-1.25" r="0.03" />
<line x1="-2.40" y1="-1.00" x2="-2.48" y2="-1.25" />
<circle cx="-2.65" cy="-0.88" r="0.03" />
<line x1="-2.60" y1="-0.62" x2="-2.65" y2="-0.88" />
<circle cx="-2.45" cy="-0.51" r="0.03" />
<line x1="-2.42" y1="-0.24" x2="-2.45" y2="-0.51" />
<circle cx="-2.63" cy="-0.13" r="0.03" />
<line x1="-2.63" y1="0.13" x2="-2.63" y2="-0.13" />
<circle cx="-2.41" cy="0.25" r="0.03" />
<line x1="-2.46" y1="0.50" x2="-2.41" y2="0.25" />
<circle cx="-2.58" cy="0.63" r="0.03" />
<line x1="-2.67" y1="0.87" x2="-2.58" y2="0.63" />
<circle cx="-2.35" cy="1.03" r="0.03" />
<line x1="-2.52" y1="1.22" x2="-2.35" y2="1.03" />
<circle cx="-2.52" cy="1.42" r="0.03" />
<line x1="-2.73" y1="1.58" x2="-2.52" y2="1.42" />
<circle cx="-2.31" cy="1.84" r="0.03" />
<line x1="-2.56" y1="1.91" x2="-2.31" y2="1.84" />
<circle cx="-2.50" cy="2.23" r="0.03" />
<line x1="-2.75" y1="2.27" x2="-2.50" y2="2.23" />
<circle cx="-2.31" cy="2.63" r="0.03" />
<line x1="-2.57" y1="2.62" x2="-2.31" y2="2.63" />
<circle cx="-2.32" cy="-3.11" r="0.03" />
<line x1="-2.18" y1="-2.89" x2="-2.32" y2="-3.11" />
<circle cx="-2.13" cy="-2.74" r="0.03" />
<line x1="-2.00" y1="-2.51" x2="-2.13" y2="-2.74" />
<circle cx="-2.31" cy="-2.37" r="0.03" />
<line x1="-2.19" y1="-2.13" x2="-2.31" y2="-2.37" />
<circle cx="-2.12" cy="-1.99" r="0.03" />
<line x1="-2.01" y1="-1.76" x2="-2.12" y2="-1.99" />
<circle cx="-2.30" cy="-1.62" r="0.03" />
<line x1="-2.20" y1="-1.38" x2="-2.30" y2="-1.62" />
<circle cx="-2.11" cy="-1.25" r="0.03" />
<line x1="-2.02" y1="-1.00" x2="-2.11" y2="-1.25" />
<circle cx="-2.28" cy="-0.88" r="0.03" />
<line x1="-2.22" y1="-0.62" x2="-2.28" y2="-0.88" />
<circle cx="-2.08" cy="-0.50" r="0.03" />
<line x1="-2.04" y1="-0.25" x2="-2.08" y2="-0.50" />
<circle cx="-2.25" cy="-0.13" r="0.03" />
<line x1="-2.25" y1="0.13" x2="-2.25" y2="-0.13" />
<circle cx="-2.03" cy="0.25" r="0.03" />
<line x1="-2.09" y1="0.50" x2="-2.03" y2="0.25" />
<circle cx="-2.19" cy="0.63" r="0.03" />
<line x1="-2.31" y1="0.87" x2="-2.19" y2="0.63" />
<circle cx="-1.96" cy="1.04" r="0.03" />
<line x1="-2.16" y1="1.21" x2="-1.96" y2="1.04" />
<circle cx="-2.13" cy="1.44" r="0.03" />
<line x1="-2.37" y1="1.56" x2="-2.13" y2="1.44" />
<circle cx="-1.93" cy="1.86" r="0.03" />
<line x1="-2.19" y1="1.89" x2="-1.93" y2="1.86" />
<circle cx="-2.12" cy="2.25" r="0.03" />
<line x1="-2.38" y1="2.25" x2="-2.12" y2="2.25" />
<circle cx="-1.93" cy="2.65" r="0.03" />
<line x1="-2.19" y1="2.60" x2="-1.93" y2="2.65" />
<circle cx="-1.94" cy="-3.11" r="0.03" />
<line x1="-1.81" y1="-2.89" x2="-1.94" y2="-3.11" />
<circle cx="-1.76" cy="-2.74" r="0.03" />
<line x1="-1.62" y1="-2.51" x2="-1.76" y2="-2.74" />
<circle cx="-1.94" cy="-2.37" r="0.03" />
<line x1="-1.81" y1="-2.13" x2="-1.94" y2="-2.37" />
<circle cx="-1.75" cy="-1.99" r="0.03" />
<line x1="-1.63" y1="-1.76" x2="-1.75" y2="-1.99" />
<circle cx="-1.93" cy="-1.62" r="0.03" />
<line x1="-1.82" y1="-1.38" x2="-1.93" y2="-1.62" />
<circle cx="-1.74" cy="-1.25" r="0.03" />
<line x1="-1.64" y1="-1.00" x2="-1.74" y2="-1.25" />
<circle cx="-1.91" cy="-0.88" r="0.03" />
<line x1="-1.84" y1="-0.62" x2="-1.91" y2="-0.88" />
<circle cx="-1.71" cy="-0.50" r="0.03" />
<line x1="-1.66" y1="-0.25" x2="-1.71" y2="-0.50" />
<circle cx="-1.88" cy="-0.13" r="0.03" />
<line x1="-1.88" y1="0.13" x2="-1.88" y2="-0.13" />
<circle cx="-1.65" cy="0.25" r="0.03" />
<line x1="-1.72" y1="0.50" x2="-1.65" y2="0.25" />
<circle cx="-1.80" cy="0.64" r="0.03" />
<line x1="-1.95" y1="0.86" x2="-1.80" y2="0.64" />
<circle cx="-1.57" cy="1.07" r="0.03" />
<line x1="-1.80" y1="1.18" x2="-1.57" y2="1.07" />
<circle cx="-1.75" cy="1.47" r="0.03" />
<line x1="-2.00" y1="1.53" x2="-1.75" y2="1.47" />
<circle cx="-1.56" cy="1.89" r="0.03" />
<line x1="-1.82" y1="1.86" x2="-1.56" y2="1.89" />
<circle cx="-1.75" cy="2.27" r="0.03" />
<line x1="-2.00" y1="2.23" x2="-1.75" y2="2.27" />
<circle cx="-1.56" cy="2.67" r="0.03" />
<line x1="-1.81" y1="2.58" x2="-1.56" y2="2.67" />
<circle cx="-1.57" cy="-3.11" r="0.03" />
<line x1="-1.43" y1="-2.89" x2="-1.57" y2="-3.11" />
<circle cx="-1.39" cy="-2.73" r="0.03" />
<line x1="-1.24" y1="-2.52" x2="-1.39" y2="-2.73" />
<circle cx="-1.57" cy="-2.36" r="0.03" />
<line x1="-1.43" y1="-2.14" x2="-1.57" y2="-2.36" />
<circle cx="-1.38" cy="-1.99" r="0.03" />
<line x1="-1.25" y1="-1.76" x2="-1.38" y2="-1.99" />
<circle cx="-1.56" cy="-1.62" r="0.03" />
<line x1="-1.44" y1="-1.38" x2="-1.56" y2="-1.62" />
<circle cx="-1.37" cy="-1.24" r="0.03" />
<line x1="-1.26" y1="-1.01" x2="-1.37" y2="-1.24" />
<circle cx="-1.54" cy="-0.87" r="0.03" />
<line x1="-1.46" y1="-0.63" x2="-1.54" y2="-0.87" />
<circle cx="-1.34" cy="-0.50" r="0.03" />
<line x1="-1.28" y1="-0.25" x2="-1.34" y2="-0.50" />
<circle cx="-1.50" cy="-0.13" r="0.03" />
<line x1="-1.50" y1="0.13" x2="-1.50" y2="-0.13" />
<circle cx="-1.26" cy="0.25" r="0.03" />
<line x1="-1.36" y1="0.50" x2="-1.26" y2="0.25" />
<circle cx="-1.41" cy="0.66" r="0.03" />
<line x1="-1.59" y1="0.84" x2="-1.41" y2="0.66" />
<circle cx="-1.18" cy="1.10" r="0.03" />
<line x1="-1.44" y1="1.15" x2="-1.18" y2="1.10" />
<circle cx="-1.37" cy="1.50" r="0.03" />
<line x1="-1.63" y1="1.50" x2="-1.37" y2="1.50" />
<circle cx="-1.19" cy="1.91" r="0.03" />
<line x1="-1.44" y1="1.84" x2="-1.19" y2="1.91" />
<circle cx="-1.38" cy="2.29" r="0.03" />
<line x1="-1.62" y1="2.21" x2="-1.38" y2="2.29" />
<circle cx="-1.20" cy="2.68" r="0.03" />
<line x1="-1.43" y1="2.57" x2="-1.20" y2="2.68" />
<circle cx="-1.20" cy="-3.11" r="0.03" />
<line x1="-1.05" y1="-2.89" x2="-1.20" y2="-3.11" />
<circle cx="-1.02" cy="-2.73" r="0.03" />
<line x1="-0.86" y1="-2.52" x2="-1.02" y2="-2.73" />
<circle cx="-1.20" cy="-2.36" r="0.03" />
<line x1="-1.05" y1="-2.14" x2="-1.20" y2="-2.36" />
<circle cx="-1.01" cy="-1.98" r="0.03" />
<line x1="-0.86" y1="-1.77" x2="-1.01" y2="-1.98" />
<circle cx="-1.19" cy="-1.61" r="0.03" />
<line x1="-1.06" y1="-1.39" x2="-1.19" y2="-1.61" />
<circle cx="-1.00" cy="-1.24" r="0.03" />
<line x1="-0.87" y1="-1.01" x2="-1.00" y2="-1.24" />
<circle cx="-1.17" cy="-0.87" r="0.03" />
<line x1="-1.08" y1="-0.63" x2="-1.17" y2="-0.87" />
<circle cx="-0.97" cy="-0.50" r="0.03" />
<line x1="-0.90" y1="-0.25" x2="-0.97" y2="-0.50" />
<circle cx="-1.13" cy="-0.13" r="0.03" />
<line x1="-1.13" y1="0.13" x2="-1.13" y2="-0.13" />
<circle cx="-0.86" cy="0.27" r="0.03" />
<line x1="-1.01" y1="0.48" x2="-0.86" y2="0.27" />
<circle cx="-1.01" cy="0.69" r="0.03" />
<line x1="-1.24" y1="0.81" x2="-1.01" y2="0.69" />
<circle cx="-0.81" cy="1.15" r="0.03" />
<line x1="-1.07" y1="1.10" x2="-0.81" y2="1.15" />
<circle cx="-1.00" cy="1.53" r="0.03" />
<line x1="-1.25" y1="1.47" x2="-1.00" y2="1.53" />
<circle cx="-0.82" cy="1.93" r="0.03" />
<line x1="-1.05" y1="1.82" x2="-0.82" y2="1.93" />
<circle cx="-1.01" cy="2.31" r="0.03" />
<line x1="-1.24" y1="2.19" x2="-1.01" y2="2.31" />
<circle cx="-0.83" cy="2.70" r="0.03" />
<line x1="-1.05" y1="2.55" x2="-0.83" y2="2.70" />
<circle cx="-0.83" cy="-3.10" r="0.03" />
<line x1="-0.67" y1="-2.90" x2="-0.83" y2="-3.10" />
<circle cx="-0.65" cy="-2.73" r="0.03" />
<line x1="-0.48" y1="-2.52" x2="-0.65" y2="-2.73" />
<circle cx="-0.83" cy="-2.35" r="0.03" />
<line x1="-0.67" y1="-2.15" x2="-0.83" y2="-2.35" />
<circle cx="-0.64" cy="-1.98" r="0.03" />
<line x1="-0.48" y1="-1.77" x2="-0.64" y2="-1.98" />
<circle cx="-0.82" cy="-1.61" r="0.03" />
<line x1="-0.68" y1="-1.39" x2="-0.82" y2="-1.61" />
<circle cx="-0.64" cy="-1.23" r="0.03" />
<line x1="-0.49" y1="-1.02" x2="-0.64" y2="-1.23" />
<circle cx="-0.81" cy="-0.87" r="0.03" />
<line x1="-0.69" y1="-0.63" x2="-0.81" y2="-0.87" />
<circle cx="-0.61" cy="-0.50" r="0.03" />
<line x1="-0.51" y1="-0.25" x2="-0.61" y2="-0.50" />
<circle cx="-0.75" cy="-0.13" r="0.03" />
<line x1="-0.75" y1="0.13" x2="-0.75" y2="-0.13" />
<circle cx="-0.45" cy="0.32" r="0.03" />
<line x1="-0.68" y1="0.43" x2="-0.45" y2="0.32" />
<circle cx="-0.62" cy="0.75" r="0.03" />
<line x1="-0.88" y1="0.75" x2="-0.62" y2="0.75" />
<circle cx="-0.45" cy="1.18" r="0.03" />
<line x1="-0.68" y1="1.07" x2="-0.45" y2="1.18" />
<circle cx="-0.63" cy="1.56" r="0.03" />
<line x1="-0.87" y1="1.44" x2="-0.63" y2="1.56" />
<circle cx="-0.45" cy="1.95" r="0.03" />
<line x1="-0.67" y1="1.80" x2="-0.45" y2="1.95" />
<circle cx="-0.64" cy="2.32" r="0.03" />
<line x1="-0.86" y1="2.18" x2="-0.64" y2="2.32" />
<circle cx="-0.46" cy="2.71" r="0.03" />
<line x1="-0.67" y1="2.54" x2="-0.46" y2="2.71" />
<circle cx="-0.46" cy="-3.10" r="0.03" />
<line x1="-0.29" y1="-2.90" x2="-0.46" y2="-3.10" />
<circle cx="-0.28" cy="-2.72" r="0.03" />
<line x1="-0.10" y1="-2.53" x2="-0.28" y2="-2.72" />
<circle cx="-0.46" cy="-2.35" r="0.03" />
<line x1="-0.29" y1="-2.15" x2="-0.46" y2="-2.35" />
<circle cx="-0.28" cy="-1.97" r="0.03" />
<line x1="-0.10" y1="-1.78" x2="-0.28" y2="-1.97" />
<circle cx="-0.46" cy="-1.60" r="0.03" />
<line x1="-0.29" y1="-1.40" x2="-0.46" y2="-1.60" />
<circle cx="-0.27" cy="-1.22" r="0.03" />
<line x1="-0.10" y1="-1.03" x2="-0.27" y2="-1.22" />
<circle cx="-0.45" cy="-0.86" r="0.03" />
<line x1="-0.30" y1="-0.64" x2="-0.45" y2="-0.86" />
<circle cx="-0.26" cy="-0.48" r="0.03" />
<line x1="-0.11" y1="-0.27" x2="-0.26" y2="-0.48" />
<circle cx="-0.38" cy="-0.13" r="0.03" />
<line x1="-0.38" y1="0.13" x2="-0.38" y2="-0.13" />
<circle cx="-0.07" cy="0.43" r="0.03" />
<line x1="-0.30" y1="0.32" x2="-0.07" y2="0.43" />
<circle cx="-0.26" cy="0.81" r="0.03" />
<line x1="-0.49" y1="0.69" x2="-0.26" y2="0.81" />
<circle cx="-0.09" cy="1.21" r="0.03" />
<line x1="-0.29" y1="1.04" x2="-0.09" y2="1.21" />
<circle cx="-0.27" cy="1.58" r="0.03" />
<line x1="-0.48" y1="1.42" x2="-0.27" y2="1.58" />
<circle cx="-0.09" cy="1.96" r="0.03" />
<line x1="-0.29" y1="1.79" x2="-0.09" y2="1.96" />
<circle cx="-0.27" cy="2.33" r="0.03" />
<line x1="-0.48" y1="2.17" x2="-0.27" y2="2.33" />
<circle cx="-0.09" cy="2.71" r="0.03" />
<line x1="-0.28" y1="2.54" x2="-0.09" y2="2.71" />
<circle cx="-0.09" cy="-3.09" r="0.03" />
<line x1="0.09" y1="-2.91" x2="-0.09" y2="-3.09" />
<circle cx="0.09" cy="-2.71" r="0.03" />
<line x1="0.28" y1="-2.54" x2="0.09" y2="-2.71" />
<circle cx="-0.09" cy="-2.34" r="0.03" />
<line x1="0.09" y1="-2.16" x2="-0.09" y2="-2.34" />
<circle cx="0.09" cy="-1.96" r="0.03" />
<line x1="0.29" y1="-1.79" x2="0.09" y2="-1.96" />
<circle cx="-0.09" cy="-1.59" r="0.03" />
<line x1="0.09" y1="-1.41" x2="-0.09" y2="-1.59" />
<circle cx="0.09" cy="-1.21" r="0.03" />
<line x1="0.29" y1="-1.04" x2="0.09" y2="-1.21" />
<circle cx="-0.09" cy="-0.84" r="0.03" />
<line x1="0.09" y1="-0.66" x2="-0.09" y2="-0.84" />
<circle cx="0.07" cy="-0.43" r="0.03" />
<line x1="0.30" y1="-0.32" x2="0.07" y2="-0.43" />
<circle cx="0.00" cy="0.00" r="0.03" />
<line x1="0.00" y1="0.00" x2="0.00" y2="0.00" />
<circle cx="0.26" cy="0.48" r="0.03" />
<line x1="0.11" y1="0.27" x2="0.26" y2="0.48" />
<circle cx="0.09" cy="0.84" r="0.03" />
<line x1="-0.09" y1="0.66" x2="0.09" y2="0.84" />
<circle cx="0.27" cy="1.22" r="0.03" />
<line x1="0.10" y1="1.03" x2="0.27" y2="1.22" />
<circle cx="0.09" cy="1.59" r="0.03" />
<line x1="-0.09" y1="1.41" x2="0.09" y2="1.59" />
<circle cx="0.28" cy="1.97" r="0.03" />
<line x1="0.10" y1="1.78" x2="0.28" y2="1.97" />
<circle cx="0.09" cy="2.34" r="0.03" />
<line x1="-0.09" y1="2.16" x2="0.09" y2="2.34" />
<circle cx="0.28" cy="2.72" r="0.03" />
<line x1="0.10" y1="2.53" x2="0.28" y2="2.72" />
<circle cx="0.28" cy="-3.09" r="0.03" />
<line x1="0.47" y1="-2.91" x2="0.28" y2="-3.09" />
<circle cx="0.46" cy="-2.71" r="0.03" />
<line x1="0.67" y1="-2.54" x2="0.46" y2="-2.71" />
<circle cx="0.27" cy="-2.33" r="0.03" />
<line x1="0.48" y1="-2.17" x2="0.27" y2="-2.33" />
<circle cx="0.45" cy="-1.95" r="0.03" />
<line x1="0.67" y1="-1.80" x2="0.45" y2="-1.95" />
<circle cx="0.27" cy="-1.58" r="0.03" />
<line x1="0.48" y1="-1.42" x2="0.27" y2="-1.58" />
<circle cx="0.45" cy="-1.18" r="0.03" />
<line x1="0.68" y1="-1.07" x2="0.45" y2="-1.18" />
<circle cx="0.26" cy="-0.81" r="0.03" />
<line x1="0.49" y1="-0.69" x2="0.26" y2="-0.81" />
<circle cx="0.45" cy="-0.32" r="0.03" />
<line x1="0.68" y1="-0.43" x2="0.45" y2="-0.32" />
<circle cx="0.38" cy="0.13" r="0.03" />
<line x1="0.38" y1="-0.13" x2="0.38" y2="0.13" />
<circle cx="0.61" cy="0.50" r="0.03" />
<line x1="0.51" y1="0.25" x2="0.61" y2="0.50" />
<circle cx="0.45" cy="0.86" r="0.03" />
<line x1="0.30" y1="0.64" x2="0.45" y2="0.86" />
<circle cx="0.64" cy="1.23" r="0.03" />
<line x1="0.49" y1="1.02" x2="0.64" y2="1.23" />
<circle cx="0.46" cy="1.60" r="0.03" />
<line x1="0.29" y1="1.40" x2="0.46" y2="1.60" />
<circle cx="0.64" cy="1.98" r="0.03" />
<line x1="0.48" y1="1.77" x2="0.64" y2="1.98" />
<circle cx="0.46" cy="2.35" r="0.03" />
<line x1="0.29" y1="2.15" x2="0.46" y2="2.35" />
<circle cx="0.65" cy="2.73" r="0.03" />
<line x1="0.48" y1="2.52" x2="0.65" y2="2.73" />
<circle cx="0.65" cy="-3.08" r="0.03" />
<line x1="0.85" y1="-2.92" x2="0.65" y2="-3.08" />
<circle cx="0.83" cy="-2.70" r="0.03" />
<line x1="1.05" y1="-2.55" x2="0.83" y2="-2.70" />
<circle cx="0.64" cy="-2.32" r="0.03" />
<line x1="0.86" y1="-2.18" x2="0.64" y2="-2.32" />
<circle cx="0.82" cy="-1.93" r="0.03" />
<line x1="1.05" y1="-1.82" x2="0.82" y2="-1.93" />
<circle cx="0.63" cy="-1.56" r="0.03" />
<line x1="0.87" y1="-1.44" x2="0.63" y2="-1.56" />
<circle cx="0.81" cy="-1.15" r="0.03" />
<line x1="1.07" y1="-1.10" x2="0.81" y2="-1.15" />
<circle cx="0.62" cy="-0.75" r="0.03" />
<line x1="0.88" y1="-0.75" x2="0.62" y2="-0.75" />
<circle cx="0.86" cy="-0.27" r="0.03" />
<line x1="1.01" y1="-0.48" x2="0.86" y2="-0.27" />
<circle cx="0.75" cy="0.13" r="0.03" />
<line x1="0.75" y1="-0.13" x2="0.75" y2="0.13" />
<circle cx="0.97" cy="0.50" r="0.03" />
<line x1="0.90" y1="0.25" x2="0.97" y2="0.50" />
<circle cx="0.81" cy="0.87" r="0.03" />
<line x1="0.69" y1="0.63" x2="0.81" y2="0.87" />
<circle cx="1.00" cy="1.24" r="0.03" />
<line x1="0.87" y1="1.01" x2="1.00" y2="1.24" />
<circle cx="0.82" cy="1.61" r="0.03" />
<line x1="0.68" y1="1.39" x2="0.82" y2="1.61" />
<circle cx="1.01" cy="1.98" r="0.03" />
<line x1="0.86" y1="1.77" x2="1.01" y2="1.98" />
<circle cx="0.83" cy="2.35" r="0.03" />
<line x1="0.67" y1="2.15" x2="0.83" y2="2.35" />
<circle cx="1.02" cy="2.73" r="0.03" />
<line x1="0.86" y1="2.52" x2="1.02" y2="2.73" />
<circle cx="1.01" cy="-3.07" r="0.03" />
<line x1="1.24" y1="-2.93" x2="1.01" y2="-3.07" />
<circle cx="1.20" cy="-2.68" r="0.03" />
<line x1="1.43" y1="-2.57" x2="1.20" y2="-2.68" />
<circle cx="1.01" cy="-2.31" r="0.03" />
<line x1="1.24" y1="-2.19" x2="1.01" y2="-2.31" />
<circle cx="1.19" cy="-1.91" r="0.03" />
<line x1="1.44" y1="-1.84" x2="1.19" y2="-1.91" />
<circle cx="1.00" cy="-1.53" r="0.03" />
<line x1="1.25" y1="-1.47" x2="1.00" y2="-1.53" />
<circle cx="1.18" cy="-1.10" r="0.03" />
<line x1="1.44" y1="-1.15" x2="1.18" y2="-1.10" />
<circle cx="1.01" cy="-0.69" r="0.03" />
<line x1="1.24" y1="-0.81" x2="1.01" y2="-0.69" />
<circle cx="1.26" cy="-0.25" r="0.03" />
<line x1="1.36" y1="-0.50" x2="1.26" y2="-0.25" />
<circle cx="1.13" cy="0.13" r="0.03" />
<line x1="1.13" y1="-0.13" x2="1.13" y2="0.13" />
<circle cx="1.34" cy="0.50" r="0.03" />
<line x1="1.28" y1="0.25" x2="1.34" y2="0.50" />
<circle cx="1.17" cy="0.87" r="0.03" />
<line x1="1.08" y1="0.63" x2="1.17" y2="0.87" />
<circle cx="1.37" cy="1.24" r="0.03" />
<line x1="1.26" y1="1.01" x2="1.37" y2="1.24" />
<circle cx="1.19" cy="1.61" r="0.03" />
<line x1="1.06" y1="1.39" x2="1.19" y2="1.61" />
<circle cx="1.38" cy="1.99" r="0.03" />
<line x1="1.25" y1="1.76" x2="1.38" y2="1.99" />
<circle cx="1.20" cy="2.36" r="0.03" />
<line x1="1.05" y1="2.14" x2="1.20" y2="2.36" />
<circle cx="1.39" cy="2.73" r="0.03" />
<line x1="1.24" y1="2.52" x2="1.39" y2="2.73" />
<circle cx="1.38" cy="-3.06" r="0.03" />
<line x1="1.62" y1="-2.94" x2="1.38" y2="-3.06" />
<circle cx="1.56" cy="-2.67" r="0.03" />
<line x1="1.81" y1="-2.58" x2="1.56" y2="-2.67" />
<circle cx="1.38" cy="-2.29" r="0.03" />
<line x1="1.62" y1="-2.21" x2="1.38" y2="-2.29" />
<circle cx="1.56" cy="-1.89" r="0.03" />
<line x1="1.82" y1="-1.86" x2="1.56" y2="-1.89" />
<circle cx="1.37" cy="-1.50" r="0.03" />
<line x1="1.63" y1="-1.50" x2="1.37" y2="-1.50" />
<circle cx="1.57" cy="-1.07" r="0.03" />
<line x1="1.80" y1="-1.18" x2="1.57" y2="-1.07" />
<circle cx="1.41" cy="-0.66" r="0.03" />
<line x1="1.59" y1="-0.84" x2="1.41" y2="-0.66" />
<circle cx="1.65" cy="-0.25" r="0.03" />
<line x1="1.72" y1="-0.50" x2="1.65" y2="-0.25" />
<circle cx="1.50" cy="0.13" r="0.03" />
<line x1="1.50" y1="-0.13" x2="1.50" y2="0.13" />
<circle cx="1.71" cy="0.50" r="0.03" />
<line x1="1.66" y1="0.25" x2="1.71" y2="0.50" />
<circle cx="1.54" cy="0.87" r="0.03" />
<line x1="1.46" y1="0.63" x2="1.54" y2="0.87" />
<circle cx="1.74" cy="1.25" r="0.03" />
<line x1="1.64" y1="1.00" x2="1.74" y2="1.25" />
<circle cx="1.56" cy="1.62" r="0.03" />
<line x1="1.44" y1="1.38" x2="1.56" y2="1.62" />
<circle cx="1.75" cy="1.99" r="0.03" />
<line x1="1.63" y1="1.76" x2="1.75" y2="1.99" />
<circle cx="1.57" cy="2.36" r="0.03" />
<line x1="1.43" y1="2.14" x2="1.57" y2="2.36" />
<circle cx="1.76" cy="2.74" r="0.03" />
<line x1="1.62" y1="2.51" x2="1.76" y2="2.74" />
<circle cx="1.75" cy="-3.05" r="0.03" />
<line x1="2.00" y1="-2.95" x2="1.75" y2="-3.05" />
<circle cx="1.93" cy="-2.65" r="0.03" />
<line x1="2.19" y1="-2.60" x2="1.93" y2="-2.65" />
<circle cx="1.75" cy="-2.27" r="0.03" />
<line x1="2.00" y1="-2.23" x2="1.75" y2="-2.27" />
<circle cx="1.93" cy="-1.86" r="0.03" />
<line x1="2.19" y1="-1.89" x2="1.93" y2="-1.86" />
<circle cx="1.75" cy="-1.47" r="0.03" />
<line x1="2.00" y1="-1.53" x2="1.75" y2="-1.47" />
<circle cx="1.96" cy="-1.04" r="0.03" />
<line x1="2.16" y1="-1.21" x2="1.96" y2="-1.04" />
<circle cx="1.80" cy="-0.64" r="0.03" />
<line x1="1.95" y1="-0.86" x2="1.80" y2="-0.64" />
<circle cx="2.03" cy="-0.25" r="0.03" />
<line x1="2.09" y1="-0.50" x2="2.03" y2="-0.25" />
<circle cx="1.88" cy="0.13" r="0.03" />
<line x1="1.88" y1="-0.13" x2="1.88" y2="0.13" />
<circle cx="2.08" cy="0.50" r="0.03" />
<line x1="2.04" y1="0.25" x2="2.08" y2="0.50" />
<circle cx="1.91" cy="0.88" r="0.03" />
<line x1="1.84" y1="0.62" x2="1.91" y2="0.88" />
<circle cx="2.11" cy="1.25" r="0.03" />
<line x1="2.02" y1="1.00" x2="2.11" y2="1.25" />
<circle cx="1.93" cy="1.62" r="0.03" />
<line x1="1.82" y1="1.38" x2="1.93" y2="1.62" />
<circle cx="2.12" cy="1.99" r="0.03" />
<line x1="2.01" y1="1.76" x2="2.12" y2="1.99" />
<circle cx="1.94" cy="2.37" r="0.03" />
<line x1="1.81" y1="2.13" x2="1.94" y2="2.37" />
<circle cx="2.13" cy="2.74" r="0.03" />
<line x1="2.00" y1="2.51" x2="2.13" y2="2.74" />
<circle cx="2.12" cy="-3.03" r="0.03" />
<line x1="2.38" y1="-2.97" x2="2.12" y2="-3.03" />
<circle cx="2.31" cy="-2.63" r="0.03" />
<line x1="2.57" y1="-2.62" x2="2.31" y2="-2.63" />
<circle cx="2.12" cy="-2.25" r="0.03" />
<line x1="2.38" y1="-2.25" x2="2.12" y2="-2.25" />
<circle cx="2.31" cy="-1.84" r="0.03" />
<line x1="2.56" y1="-1.91" x2="2.31" y2="-1.84" />
<circle cx="2.13" cy="-1.44" r="0.03" />
<line x1="2.37" y1="-1.56" x2="2.13" y2="-1.44" />
<circle cx="2.35" cy="-1.03" r="0.03" />
<line x1="2.52" y1="-1.22" x2="2.35" y2="-1.03" />
<circle cx="2.19" cy="-0.63" r="0.03" />
<line x1="2.31" y1="-0.87" x2="2.19" y2="-0.63" />
<circle cx="2.41" cy="-0.25" r="0.03" />
<line x1="2.46" y1="-0.50" x2="2.41" y2="-0.25" />
<circle cx="2.25" cy="0.13" r="0.03" />
<line x1="2.25" y1="-0.13" x2="2.25" y2="0.13" />
<circle cx="2.45" cy="0.51" r="0.03" />
<line x1="2.42" y1="0.24" x2="2.45" y2="0.51" />
<circle cx="2.28" cy="0.88" r="0.03" />
<line x1="2.22" y1="0.62" x2="2.28" y2="0.88" />
<circle cx="2.48" cy="1.25" r="0.03" />
<line x1="2.40" y1="1.00" x2="2.48" y2="1.25" />
<circle cx="2.30" cy="1.62" r="0.03" />
<line x1="2.20" y1="1.38" x2="2.30" y2="1.62" />
<circle cx="2.49" cy="2.00" r="0.03" />
<line x1="2.39" y1="1.75" x2="2.49" y2="2.00" />
<circle cx="2.31" cy="2.37" r="0.03" />
<line x1="2.19" y1="2.13" x2="2.31" y2="2.37" />
<circle cx="2.50" cy="2.74" r="0.03" />
<line x1="2.38" y1="2.51" x2="2.50" y2="2.74" />
<circle cx="2.49" cy="-3.02" r="0.03" />
<line x1="2.76" y1="-2.98" x2="2.49" y2="-3.02" />
<circle cx="2.68" cy="-2.62" r="0.03" />
<line x1="2.94" y1="-2.63" x2="2.68" y2="-2.62" />
<circle cx="2.50" cy="-2.23" r="0.03" />
<line x1="2.75" y1="-2.27" x2="2.50" y2="-2.23" />
<circle cx="2.70" cy="-1.82" r="0.03" />
<line x1="2.93" y1="-1.93" x2="2.70" y2="-1.82" />
<circle cx="2.52" cy="-1.42" r="0.03" />
<line x1="2.73" y1="-1.58" x2="2.52" y2="-1.42" />
<circle cx="2.74" cy="-1.02" r="0.03" />
<line x1="2.89" y1="-1.23" x2="2.74" y2="-1.02" />
<circle cx="2.58" cy="-0.63" r="0.03" />
<line x1="2.67" y1="-0.87" x2="2.58" y2="-0.63" />
<circle cx="2.79" cy="-0.25" r="0.03" />
<line x1="2.83" y1="-0.50" x2="2.79" y2="-0.25" />
<circle cx="2.63" cy="0.13" r="0.03" />
<line x1="2.63" y1="-0.13" x2="2.63" y2="0.13" />
<circle cx="2.83" cy="0.51" r="0.03" />
<line x1="2.80" y1="0.24" x2="2.83" y2="0.51" />
<circle cx="2.65" cy="0.88" r="0.03" />
<line x1="2.60" y1="0.62" x2="2.65" y2="0.88" />
<circle cx="2.85" cy="1.25" r="0.03" />
<line x1="2.78" y1="1.00" x2="2.85" y2="1.25" />
<circle cx="2.67" cy="1.62" r="0.03" />
<line x1="2.58" y1="1.38" x2="2.67" y2="1.62" />
<circle cx="2.86" cy="2.00" r="0.03" />
<line x1="2.76" y1="1.75" x2="2.86" y2="2.00" />
<circle cx="2.68" cy="2.37" r="0.03" />
<line x1="2.57" y1="2.13" x2="2.68" y2="2.37" />
<circle cx="2.87" cy="2.74" r="0.03" />
<line x1="2.76" y1="2.51" x2="2.87" y2="2.74" />
</g>
</svg>