<svg xmlns="http://www.w3.org/2000/svg" width="143.8" height="100.0" viewBox="-3.20 -5.00 153.83 110.00">
<g fill="none" stroke="black" stroke-width="0.0450%" transform="translate(0, 100.0000) scale(11.1111, -11.1111)">
<line x1="0.16" y1="0.00" x2="0.16" y2="1.00" />
<line x1="0.32" y1="0.00" x2="0.32" y2="2.00" />
<line x1="0.49" y1="0.00" x2="0.49" y2="3.00" />
<line x1="0.65" y1="0.00" x2="0.65" y2="4.00" />
<line x1="0.81" y1="0.00" x2="0.81" y2="5.00" />
<line x1="0.97" y1="0.00" x2="0.97" y2="6.00" />
<line x1="1.13" y1="0.00" x2="1.13" y2="7.00" />
<line x1="1.29" y1="0.00" x2="1.29" y2="8.00" />
<line x1="1.46" y1="0.00" x2="1.46" y2="9.00" />
<line x1="1.62" y1="0.00" x2="1.62" y2="2.00" />
<line x1="1.78" y1="0.00" x2="1.78" y2="4.00" />
<line x1="1.94" y1="0.00" x2="1.94" y2="6.00" />
<line x1="2.10" y1="0.00" x2="2.10" y2="8.00" />
<line x1="2.27" y1="0.00" x2="2.27" y2="1.00" />
<line x1="2.43" y1="0.00" x2="2.43" y2="3.00" />
<line x1="2.59" y1="0.00" x2="2.59" y2="5.00" />
<line x1="2.75" y1="0.00" x2="2.75" y2="7.00" />
<line x1="2.91" y1="0.00" x2="2.91" y2="9.00" />
<line x1="3.07" y1="0.00" x2="3.07" y2="3.00" />
<line x1="3.24" y1="0.00" x2="3.24" y2="6.00" />
<line x1="3.40" y1="0.00" x2="3.40" y2="9.00" />
<line x1="3.56" y1="0.00" x2="3.56" y2="3.00" />
<line x1="3.72" y1="0.00" x2="3.72" y2="6.00" />
<line x1="3.88" y1="0.00" x2="3.88" y2="9.00" />
<line x1="4.05" y1="0.00" x2="4.05" y2="3.00" />
<line x1="4.21" y1="0.00" x2="4.21" y2="6.00" />
<line x1="4.37" y1="0.00" x2="4.37" y2="9.00" />
<line x1="4.53" y1="0.00" x2="4.53" y2="4.00" />
<line x1="4.69" y1="0.00" x2="4.69" y2="8.00" />
<line x1="4.85" y1="0.00" x2="4.85" y2="3.00" />
<line x1="5.02" y1="0.00" x2="5.02" y2="7.00" />
<line x1="5.18" y1="0.00" x2="5.18" y2="2.00" />
<line x1="5.34" y1="0.00" x2="5.34" y2="6.00" />
<line x1="5.50" y1="0.00" x2="5.50" y2="1.00" />
<line x1="5.66" y1="0.00" x2="5.66" y2="5.00" />
<line x1="5.82" y1="0.00" x2="5.82" y2="9.00" />
<line x1="5.99" y1="0.00" x2="5.99" y2="5.00" />
<line x1="6.15" y1="0.00" x2="6.15" y2="1.00" />
<line x1="6.31" y1="0.00" x2="6.31" y2="6.00" />
<line x1="6.47" y1="0.00" x2="6.47" y2="2.00" />
<line x1="6.63" y1="0.00" x2="6.63" y2="7.00" />
<line x1="6.80" y1="0.00" x2="6.80" y2="3.00" />
<line x1="6.96" y1="0.00" x2="6.96" y2="8.00" />
<line x1="7.12" y1="0.00" x2="7.12" y2="4.00" />
<line x1="7.28" y1="0.00" x2="7.28" y2="9.00" />
<line x1="7.44" y1="0.00" x2="7.44" y2="6.00" />
<line x1="7.60" y1="0.00" x2="7.60" y2="3.00" />
<line x1="7.77" y1="0.00" x2="7.77" y2="9.00" />
<line x1="7.93" y1="0.00" x2="7.93" y2="6.00" />
<line x1="8.09" y1="0.00" x2="8.09" y2="3.00" />
<line x1="8.25" y1="0.00" x2="8.25" y2="9.00" />
<line x1="8.41" y1="0.00" x2="8.41" y2="6.00" />
<line x1="8.58" y1="0.00" x2="8.58" y2="3.00" />
<line x1="8.74" y1="0.00" x2="8.74" y2="9.00" />
<line x1="8.90" y1="0.00" x2="8.90" y2="7.00" />
<line x1="9.06" y1="0.00" x2="9.06" y2="5.00" />
<line x1="9.22" y1="0.00" x2="9.22" y2="3.00" />
<line x1="9.38" y1="0.00" x2="9.38" y2="1.00" />
<line x1="9.55" y1="0.00" x2="9.55" y2="8.00" />
<line x1="9.71" y1="0.00" x2="9.71" y2="6.00" />
<line x1="9.87" y1="0.00" x2="9.87" y2="4.00" />
<line x1="10.03" y1="0.00" x2="10.03" y2="2.00" />
<line x1="10.19" y1="0.00" x2="10.19" y2="9.00" />
<line x1="10.36" y1="0.00" x2="10.36" y2="8.00" />
<line x1="10.52" y1="0.00" x2="10.52" y2="7.00" />
<line x1="10.68" y1="0.00" x2="10.68" y2="6.00" />
<line x1="10.84" y1="0.00" x2="10.84" y2="5.00" />
<line x1="11.00" y1="0.00" x2="11.00" y2="4.00" />
<line x1="11.16" y1="0.00" x2="11.16" y2="3.00" />
<line x1="11.33" y1="0.00" x2="11.33" y2="2.00" />
<line x1="11.49" y1="0.00" x2="11.49" y2="1.00" />
<line x1="11.65" y1="0.00" x2="11.65" y2="9.00" />
<line x1="11.81" y1="0.00" x2="11.81" y2="9.00" />
<line x1="11.97" y1="0.00" x2="11.97" y2="9.00" />
<line x1="12.14" y1="0.00" x2="12.14" y2="9.00" />
<line x1="12.30" y1="0.00" x2="12.30" y2="9.00" />
<line x1="12.46" y1="0.00" x2="12.46" y2="9.00" />
<line x1="12.62" y1="0.00" x2="12.62" y2="9.00" />
<line x1="12.78" y1="0.00" x2="12.78" y2="9.00" />
<line x1="12.94" y1="0.00" x2="12.94" y2="9.00" />
<line x1="13.11" y1="0.00" x2="13.11" y2="9.00" />
</g>
</svg>