<svg xmlns="http://www.w3.org/2000/svg" width="120.0" height="100.0" viewBox="15.00 -5.00 130.00 110.00">
<g fill="none" stroke="black" stroke-width="0.0250%" transform="translate(0, 100.0000) scale(20.0000, -20.0000)">
<circle cx="1.00" cy="3.00" r="0.03" />
<circle cx="2.00" cy="5.00" r="0.03" />
<circle cx="3.00" cy="3.00" r="0.03" />
<circle cx="4.00" cy="4.00" r="0.03" />
<circle cx="5.00" cy="3.00" r="0.03" />
<circle cx="6.00" cy="3.00" r="0.03" />
<circle cx="1.00" cy="0.00" r="0.03" />
<circle cx="2.00" cy="0.00" r="0.03" />
<circle cx="3.00" cy="0.50" r="0.03" />
<circle cx="4.00" cy="2.00" r="0.03" />
<circle cx="5.00" cy="0.00" r="0.03" />
<circle cx="6.00" cy="1.00" r="0.03" />
<circle cx="7.00" cy="0.00" r="0.03" />
<polyline points="1.00,3.00 2.00,5.00 3.00,3.00 4.00,4.00 5.00,3.00 6.00,3.00" />
<polyline points="1.00,0.00 2.00,0.00 3.00,0.50 4.00,2.00 5.00,0.00 6.00,1.00 7.00,0.00" />
<line x1="1.00" y1="3.00" x2="1.00" y2="0.00" />
<line x1="1.00" y1="3.00" x2="2.00" y2="0.00" />
<line x1="1.00" y1="3.00" x2="3.00" y2="0.50" />
<line x1="2.00" y1="5.00" x2="4.00" y2="2.00" />
<line x1="3.00" y1="3.00" x2="5.00" y2="0.00" />
<line x1="4.00" y1="4.00" x2="6.00" y2="1.00" />
<line x1="5.00" y1="3.00" x2="7.00" y2="0.00" />
<line x1="6.00" y1="3.00" x2="7.00" y2="0.00" />
</g>
</svg>