<svg xmlns="http://www.w3.org/2000/svg" width="74.7" height="100.0" viewBox="-2.7 -5.0 84.7 110.0">
<g fill="none" stroke="black" stroke-width="0.2210%" transform="translate(0, 100.0000) scale(2.2624, -2.2624)">
<circle cx="1.0" cy="25.5" r="0.2" />
<circle cx="2.0" cy="25.5" r="0.2" />
<circle cx="3.0" cy="25.5" r="0.2" />
<circle cx="4.0" cy="25.5" r="0.2" />
<circle cx="5.0" cy="25.5" r="0.2" />
<circle cx="6.0" cy="25.5" r="0.2" />
<circle cx="7.0" cy="25.5" r="0.2" />
<circle cx="8.0" cy="25.5" r="0.2" />
<circle cx="9.0" cy="25.5" r="0.2" />
<circle cx="10.0" cy="25.5" r="0.2" />
<circle cx="11.0" cy="25.5" r="0.2" />
<circle cx="12.0" cy="25.5" r="0.2" />
<circle cx="13.0" cy="25.9" r="0.2" />
<circle cx="14.0" cy="27.0" r="0.2" />
<circle cx="15.0" cy="28.7" r="0.2" />
<circle cx="16.0" cy="31.0" r="0.2" />
<circle cx="17.0" cy="33.5" r="0.2" />
<circle cx="18.0" cy="36.2" r="0.2" />
<circle cx="19.0" cy="38.7" r="0.2" />
<circle cx="20.0" cy="41.0" r="0.2" />
<circle cx="21.0" cy="42.7" r="0.2" />
<circle cx="22.0" cy="43.8" r="0.2" />
<circle cx="23.0" cy="44.2" r="0.2" />
<circle cx="24.0" cy="43.8" r="0.2" />
<circle cx="25.0" cy="42.7" r="0.2" />
<circle cx="26.0" cy="41.0" r="0.2" />
<circle cx="27.0" cy="38.7" r="0.2" />
<circle cx="28.0" cy="36.2" r="0.2" />
<circle cx="29.0" cy="33.5" r="0.2" />
<circle cx="30.0" cy="31.0" r="0.2" />
<circle cx="31.0" cy="28.7" r="0.2" />
<circle cx="32.0" cy="27.0" r="0.2" />
<circle cx="33.0" cy="25.9" r="0.2" />
<circle cx="34.0" cy="25.5" r="0.2" />
<circle cx="1.0" cy="0.0" r="0.2" />
<circle cx="2.0" cy="0.3" r="0.2" />
<circle cx="3.0" cy="1.3" r="0.2" />
<circle cx="4.0" cy="2.9" r="0.2" />
<circle cx="5.0" cy="5.0" r="0.2" />
<circle cx="6.0" cy="7.3" r="0.2" />
<circle cx="7.0" cy="9.7" r="0.2" />
<circle cx="8.0" cy="12.0" r="0.2" />
<circle cx="9.0" cy="14.1" r="0.2" />
<circle cx="10.0" cy="15.7" r="0.2" />
<circle cx="11.0" cy="16.7" r="0.2" />
<circle cx="12.0" cy="17.0" r="0.2" />
<circle cx="13.0" cy="16.7" r="0.2" />
<circle cx="14.0" cy="15.7" r="0.2" />
<circle cx="15.0" cy="14.1" r="0.2" />
<circle cx="16.0" cy="12.0" r="0.2" />
<circle cx="17.0" cy="9.7" r="0.2" />
<circle cx="18.0" cy="7.3" r="0.2" />
<circle cx="19.0" cy="5.0" r="0.2" />
<circle cx="20.0" cy="2.9" r="0.2" />
<circle cx="21.0" cy="1.3" r="0.2" />
<circle cx="22.0" cy="0.3" r="0.2" />
<circle cx="23.0" cy="0.0" r="0.2" />
<circle cx="24.0" cy="0.0" r="0.2" />
<circle cx="25.0" cy="0.0" r="0.2" />
<circle cx="26.0" cy="0.0" r="0.2" />
<circle cx="27.0" cy="0.0" r="0.2" />
<circle cx="28.0" cy="0.0" r="0.2" />
<circle cx="29.0" cy="0.0" r="0.2" />
<circle cx="30.0" cy="0.0" r="0.2" />
<circle cx="31.0" cy="0.0" r="0.2" />
<circle cx="32.0" cy="0.0" r="0.2" />
<circle cx="33.0" cy="0.0" r="0.2" />
<circle cx="34.0" cy="0.0" r="0.2" />
<polyline points="1.0,25.5 2.0,25.5 3.0,25.5 4.0,25.5 5.0,25.5 6.0,25.5 7.0,25.5 8.0,25.5 9.0,25.5 10.0,25.5 11.0,25.5 12.0,25.5 13.0,25.9 14.0,27.0 15.0,28.7 16.0,31.0 17.0,33.5 18.0,36.2 19.0,38.7 20.0,41.0 21.0,42.7 22.0,43.8 23.0,44.2 24.0,43.8 25.0,42.7 26.0,41.0 27.0,38.7 28.0,36.2 29.0,33.5 30.0,31.0 31.0,28.7 32.0,27.0 33.0,25.9 34.0,25.5" />
<polyline points="1.0,0.0 2.0,0.3 3.0,1.3 4.0,2.9 5.0,5.0 6.0,7.3 7.0,9.7 8.0,12.0 9.0,14.1 10.0,15.7 11.0,16.7 12.0,17.0 13.0,16.7 14.0,15.7 15.0,14.1 16.0,12.0 17.0,9.7 18.0,7.3 19.0,5.0 20.0,2.9 21.0,1.3 22.0,0.3 23.0,0.0 24.0,0.0 25.0,0.0 26.0,0.0 27.0,0.0 28.0,0.0 29.0,0.0 30.0,0.0 31.0,0.0 32.0,0.0 33.0,0.0 34.0,0.0" />
<line x1="1.0" y1="25.5" x2="1.0" y2="0.0" />
<line x1="2.0" y1="25.5" x2="1.0" y2="0.0" />
<line x1="3.0" y1="25.5" x2="1.0" y2="0.0" />
<line x1="4.0" y1="25.5" x2="1.0" y2="0.0" />
<line x1="5.0" y1="25.5" x2="1.0" y2="0.0" />
<line x1="6.0" y1="25.5" x2="1.0" y2="0.0" />
<line x1="7.0" y1="25.5" x2="1.0" y2="0.0" />
<line x1="8.0" y1="25.5" x2="1.0" y2="0.0" />
<line x1="9.0" y1="25.5" x2="1.0" y2="0.0" />
<line x1="10.0" y1="25.5" x2="1.0" y2="0.0" />
<line x1="11.0" y1="25.5" x2="1.0" y2="0.0" />
<line x1="12.0" y1="25.5" x2="1.0" y2="0.0" />
<line x1="13.0" y1="25.9" x2="2.0" y2="0.3" />
<line x1="14.0" y1="27.0" x2="3.0" y2="1.3" />
<line x1="15.0" y1="28.7" x2="4.0" y2="2.9" />
<line x1="16.0" y1="31.0" x2="5.0" y2="5.0" />
<line x1="17.0" y1="33.5" x2="6.0" y2="7.3" />
<line x1="18.0" y1="36.2" x2="7.0" y2="9.7" />
<line x1="19.0" y1="38.7" x2="8.0" y2="12.0" />
<line x1="19.0" y1="38.7" x2="9.0" y2="14.1" />
<line x1="20.0" y1="41.0" x2="10.0" y2="15.7" />
<line x1="21.0" y1="42.7" x2="11.0" y2="16.7" />
<line x1="22.0" y1="43.8" x2="12.0" y2="17.0" />
<line x1="23.0" y1="44.2" x2="12.0" y2="17.0" />
<line x1="24.0" y1="43.8" x2="12.0" y2="17.0" />
<line x1="25.0" y1="42.7" x2="13.0" y2="16.7" />
<line x1="26.0" y1="41.0" x2="14.0" y2="15.7" />
<line x1="27.0" y1="38.7" x2="15.0" y2="14.1" />
<line x1="27.0" y1="38.7" x2="16.0" y2="12.0" />
<line x1="28.0" y1="36.2" x2="17.0" y2="9.7" />
<line x1="29.0" y1="33.5" x2="18.0" y2="7.3" />
<line x1="30.0" y1="31.0" x2="19.0" y2="5.0" />
<line x1="31.0" y1="28.7" x2="20.0" y2="2.9" />
<line x1="32.0" y1="27.0" x2="21.0" y2="1.3" />
<line x1="33.0" y1="25.9" x2="22.0" y2="0.3" />
<line x1="34.0" y1="25.5" x2="23.0" y2="0.0" />
<line x1="34.0" y1="25.5" x2="24.0" y2="0.0" />
<line x1="34.0" y1="25.5" x2="25.0" y2="0.0" />
<line x1="34.0" y1="25.5" x2="26.0" y2="0.0" />
<line x1="34.0" y1="25.5" x2="27.0" y2="0.0" />
<line x1="34.0" y1="25.5" x2="28.0" y2="0.0" />
<line x1="34.0" y1="25.5" x2="29.0" y2="0.0" />
<line x1="34.0" y1="25.5" x2="30.0" y2="0.0" />
<line x1="34.0" y1="25.5" x2="31.0" y2="0.0" />
<line x1="34.0" y1="25.5" x2="32.0" y2="0.0" />
<line x1="34.0" y1="25.5" x2="33.0" y2="0.0" />
<line x1="34.0" y1="25.5" x2="34.0" y2="0.0" />
</g>
</svg>