<svg xmlns="http://www.w3.org/2000/svg" width="117" height="99" viewBox="0 0 117 99">
<rect x="0" y="18" width="9" height="9" fill="rgb(221,221,221)"/>
<rect x="0" y="27" width="9" height="9" fill="rgb(187,187,187)"/>
<rect x="0" y="36" width="9" height="9" fill="rgb(187,187,187)"/>
<rect x="0" y="45" width="9" height="9" fill="rgb(187,187,187)"/>
<rect x="0" y="54" width="9" height="9" fill="rgb(153,153,153)"/>
<rect x="0" y="63" width="9" height="9" fill="rgb(153,153,153)"/>
<rect x="0" y="72" width="9" height="9" fill="rgb(153,153,153)"/>
<rect x="0" y="81" width="9" height="9" fill="rgb(153,153,153)"/>
<rect x="0" y="90" width="9" height="9" fill="rgb(153,153,153)"/>
<rect x="9" y="18" width="9" height="9" fill="rgb(221,221,221)"/>
<rect x="9" y="27" width="9" height="9" fill="rgb(187,187,187)"/>
<rect x="9" y="36" width="9" height="9" fill="rgb(187,187,187)"/>
<rect x="9" y="45" width="9" height="9" fill="rgb(187,187,187)"/>
<rect x="9" y="54" width="9" height="9" fill="rgb(153,153,153)"/>
<rect x="9" y="63" width="9" height="9" fill="rgb(153,153,153)"/>
<rect x="9" y="72" width="9" height="9" fill="rgb(153,153,153)"/>
<rect x="9" y="81" width="9" height="9" fill="rgb(153,153,153)"/>
<rect x="9" y="90" width="9" height="9" fill="rgb(153,153,153)"/>
<rect x="18" y="18" width="9" height="9" fill="rgb(221,221,221)"/>
<rect x="18" y="27" width="9" height="9" fill="rgb(187,187,187)"/>
<rect x="18" y="36" width="9" height="9" fill="rgb(187,187,187)"/>
<rect x="18" y="45" width="9" height="9" fill="rgb(187,187,187)"/>
<rect x="18" y="54" width="9" height="9" fill="rgb(153,153,153)"/>
<rect x="18" y="63" width="9" height="9" fill="rgb(153,153,153)"/>
<rect x="18" y="72" width="9" height="9" fill="rgb(153,153,153)"/>
<rect x="18" y="81" width="9" height="9" fill="rgb(153,153,153)"/>
<rect x="18" y="90" width="9" height="9" fill="rgb(153,153,153)"/>
<rect x="27" y="18" width="9" height="9" fill="rgb(221,221,221)"/>
<rect x="27" y="27" width="9" height="9" fill="rgb(187,187,187)"/>
<rect x="27" y="36" width="9" height="9" fill="rgb(187,187,187)"/>
<rect x="27" y="45" width="9" height="9" fill="rgb(187,187,187)"/>
<rect x="27" y="54" width="9" height="9" fill="rgb(153,153,153)"/>
<rect x="27" y="63" width="9" height="9" fill="rgb(153,153,153)"/>
<rect x="27" y="72" width="9" height="9" fill="rgb(153,153,153)"/>
<rect x="27" y="81" width="9" height="9" fill="rgb(153,153,153)"/>
<rect x="27" y="90" width="9" height="9" fill="rgb(153,153,153)"/>
<rect x="36" y="0" width="9" height="9" fill="rgb(187,187,187)"/>
<rect x="36" y="9" width="9" height="9" fill="rgb(187,187,187)"/>
<rect x="36" y="18" width="9" height="9" fill="rgb(221,221,221)"/>
<rect x="36" y="27" width="9" height="9" fill="rgb(187,187,187)"/>
<rect x="36" y="36" width="9" height="9" fill="rgb(119,119,119)"/>
<rect x="36" y="45" width="9" height="9" fill="rgb(119,119,119)"/>
<rect x="36" y="54" width="9" height="9" fill="rgb(85,85,85)"/>
<rect x="36" y="63" width="9" height="9" fill="rgb(85,85,85)"/>
<rect x="36" y="72" width="9" height="9" fill="rgb(85,85,85)"/>
<rect x="36" y="81" width="9" height="9" fill="rgb(85,85,85)"/>
<rect x="36" y="90" width="9" height="9" fill="rgb(85,85,85)"/>
<rect x="45" y="0" width="9" height="9" fill="rgb(119,119,119)"/>
<rect x="45" y="9" width="9" height="9" fill="rgb(119,119,119)"/>
<rect x="45" y="18" width="9" height="9" fill="rgb(187,187,187)"/>
<rect x="45" y="27" width="9" height="9" fill="rgb(187,187,187)"/>
<rect x="45" y="36" width="9" height="9" fill="rgb(119,119,119)"/>
<rect x="45" y="45" width="9" height="9" fill="rgb(51,51,51)"/>
<rect x="45" y="54" width="9" height="9" fill="rgb(17,17,17)"/>
<rect x="45" y="63" width="9" height="9" fill="rgb(17,17,17)"/>
<rect x="45" y="72" width="9" height="9" fill="rgb(17,17,17)"/>
<rect x="45" y="81" width="9" height="9" fill="rgb(17,17,17)"/>
<rect x="45" y="90" width="9" height="9" fill="rgb(17,17,17)"/>
<rect x="54" y="0" width="9" height="9" fill="rgb(119,119,119)"/>
<rect x="54" y="9" width="9" height="9" fill="rgb(119,119,119)"/>
<rect x="54" y="18" width="9" height="9" fill="rgb(153,153,153)"/>
<rect x="54" y="27" width="9" height="9" fill="rgb(153,153,153)"/>
<rect x="54" y="36" width="9" height="9" fill="rgb(187,187,187)"/>
<rect x="54" y="45" width="9" height="9" fill="rgb(187,187,187)"/>
<rect x="54" y="54" width="9" height="9" fill="rgb(153,153,153)"/>
<rect x="54" y="63" width="9" height="9" fill="rgb(153,153,153)"/>
<rect x="54" y="72" width="9" height="9" fill="rgb(153,153,153)"/>
<rect x="54" y="81" width="9" height="9" fill="rgb(153,153,153)"/>
<rect x="54" y="90" width="9" height="9" fill="rgb(153,153,153)"/>
<rect x="63" y="0" width="9" height="9" fill="rgb(119,119,119)"/>
<rect x="63" y="9" width="9" height="9" fill="rgb(119,119,119)"/>
<rect x="63" y="18" width="9" height="9" fill="rgb(119,119,119)"/>
<rect x="63" y="27" width="9" height="9" fill="rgb(119,119,119)"/>
<rect x="63" y="36" width="9" height="9" fill="rgb(187,187,187)"/>
<rect x="63" y="45" width="9" height="9" fill="rgb(187,187,187)"/>
<rect x="63" y="54" width="9" height="9" fill="rgb(153,153,153)"/>
<rect x="63" y="63" width="9" height="9" fill="rgb(153,153,153)"/>
<rect x="63" y="72" width="9" height="9" fill="rgb(153,153,153)"/>
<rect x="63" y="81" width="9" height="9" fill="rgb(153,153,153)"/>
<rect x="63" y="90" width="9" height="9" fill="rgb(153,153,153)"/>
<rect x="72" y="0" width="9" height="9" fill="rgb(119,119,119)"/>
<rect x="72" y="9" width="9" height="9" fill="rgb(119,119,119)"/>
<rect x="72" y="18" width="9" height="9" fill="rgb(85,85,85)"/>
<rect x="72" y="27" width="9" height="9" fill="rgb(85,85,85)"/>
<rect x="72" y="36" width="9" height="9" fill="rgb(187,187,187)"/>
<rect x="72" y="45" width="9" height="9" fill="rgb(187,187,187)"/>
<rect x="72" y="54" width="9" height="9" fill="rgb(153,153,153)"/>
<rect x="72" y="63" width="9" height="9" fill="rgb(153,153,153)"/>
<rect x="72" y="72" width="9" height="9" fill="rgb(153,153,153)"/>
<rect x="72" y="81" width="9" height="9" fill="rgb(153,153,153)"/>
<rect x="72" y="90" width="9" height="9" fill="rgb(153,153,153)"/>
<rect x="81" y="0" width="9" height="9" fill="rgb(85,85,85)"/>
<rect x="81" y="9" width="9" height="9" fill="rgb(85,85,85)"/>
<rect x="81" y="18" width="9" height="9" fill="rgb(51,51,51)"/>
<rect x="81" y="27" width="9" height="9" fill="rgb(17,17,17)"/>
<rect x="81" y="36" width="9" height="9" fill="rgb(153,153,153)"/>
<rect x="81" y="45" width="9" height="9" fill="rgb(153,153,153)"/>
<rect x="81" y="54" width="9" height="9" fill="rgb(187,187,187)"/>
<rect x="81" y="63" width="9" height="9" fill="rgb(153,153,153)"/>
<rect x="81" y="72" width="9" height="9" fill="rgb(119,119,119)"/>
<rect x="81" y="81" width="9" height="9" fill="rgb(119,119,119)"/>
<rect x="81" y="90" width="9" height="9" fill="rgb(119,119,119)"/>
<rect x="90" y="0" width="9" height="9" fill="rgb(68,68,68)"/>
<rect x="90" y="9" width="9" height="9" fill="rgb(68,68,68)"/>
<rect x="90" y="18" width="9" height="9" fill="rgb(34,34,34)"/>
<rect x="90" y="27" width="9" height="9" fill="rgb(0,0,0)"/>
<rect x="90" y="36" width="9" height="9" fill="rgb(136,136,136)"/>
<rect x="90" y="45" width="9" height="9" fill="rgb(136,136,136)"/>
<rect x="90" y="54" width="9" height="9" fill="rgb(170,170,170)"/>
<rect x="90" y="63" width="9" height="9" fill="rgb(170,170,170)"/>
<rect x="90" y="72" width="9" height="9" fill="rgb(153,153,153)"/>
<rect x="90" y="81" width="9" height="9" fill="rgb(136,136,136)"/>
<rect x="90" y="90" width="9" height="9" fill="rgb(119,119,119)"/>
<rect x="99" y="0" width="9" height="9" fill="rgb(68,68,68)"/>
<rect x="99" y="9" width="9" height="9" fill="rgb(68,68,68)"/>
<rect x="99" y="18" width="9" height="9" fill="rgb(34,34,34)"/>
<rect x="99" y="27" width="9" height="9" fill="rgb(0,0,0)"/>
<rect x="99" y="36" width="9" height="9" fill="rgb(136,136,136)"/>
<rect x="99" y="45" width="9" height="9" fill="rgb(136,136,136)"/>
<rect x="99" y="54" width="9" height="9" fill="rgb(136,136,136)"/>
<rect x="99" y="63" width="9" height="9" fill="rgb(170,170,170)"/>
<rect x="99" y="72" width="9" height="9" fill="rgb(170,170,170)"/>
<rect x="99" y="81" width="9" height="9" fill="rgb(170,170,170)"/>
<rect x="99" y="90" width="9" height="9" fill="rgb(170,170,170)"/>
<rect x="108" y="0" width="9" height="9" fill="rgb(68,68,68)"/>
<rect x="108" y="9" width="9" height="9" fill="rgb(68,68,68)"/>
<rect x="108" y="18" width="9" height="9" fill="rgb(34,34,34)"/>
<rect x="108" y="27" width="9" height="9" fill="rgb(0,0,0)"/>
<rect x="108" y="36" width="9" height="9" fill="rgb(136,136,136)"/>
<rect x="108" y="45" width="9" height="9" fill="rgb(136,136,136)"/>
<rect x="108" y="54" width="9" height="9" fill="rgb(102,102,102)"/>
<rect x="108" y="63" width="9" height="9" fill="rgb(170,170,170)"/>
<rect x="108" y="72" width="9" height="9" fill="rgb(170,170,170)"/>
<rect x="108" y="81" width="9" height="9" fill="rgb(170,170,170)"/>
<rect x="108" y="90" width="9" height="9" fill="rgb(170,170,170)"/>
</svg>