<?xml version="1.0" encoding="UTF-8" standalone="no"?>
<!DOCTYPE svg PUBLIC "-//W3C//DTD SVG 1.1//EN"
 "http://www.w3.org/Graphics/SVG/1.1/DTD/svg11.dtd">
<!-- Generated by graphviz version 12.0.0 (0)
 -->
<!-- Pages: 1 -->
<svg width="58pt" height="54pt"
 viewBox="0.00 0.00 58.41 54.00" xmlns="http://www.w3.org/2000/svg" xmlns:xlink="http://www.w3.org/1999/xlink">
<g id="graph0" class="graph" transform="scale(0.174331 0.174331) rotate(0) translate(4 305.76)">
<!-- 1 -->
<g id="node1" class="node">
<title>1</title>
<ellipse fill="black" stroke="black" cx="150.65" cy="-202.42" rx="1.8" ry="1.8"/>
</g>
<!-- 2 -->
<g id="node2" class="node">
<title>2</title>
<ellipse fill="black" stroke="black" cx="69.23" cy="-211.03" rx="1.8" ry="1.8"/>
</g>
<!-- 1&#45;&#45;2 -->
<g id="edge1" class="edge">
<title>1&#45;&#45;2</title>
<path fill="none" stroke="black" stroke-width="0.75" d="M148.64,-202.63C137.47,-203.82 83.21,-209.56 71.47,-210.8"/>
</g>
<!-- 16 -->
<g id="node3" class="node">
<title>16</title>
<ellipse fill="black" stroke="black" cx="238.6" cy="-216.86" rx="1.8" ry="1.8"/>
</g>
<!-- 1&#45;&#45;16 -->
<g id="edge2" class="edge">
<title>1&#45;&#45;16</title>
<path fill="none" stroke="black" stroke-width="0.75" d="M152.83,-202.78C165,-204.78 224.53,-214.55 236.5,-216.52"/>
</g>
<!-- 7 -->
<g id="node8" class="node">
<title>7</title>
<ellipse fill="black" stroke="black" cx="128.28" cy="-117.79" rx="1.8" ry="1.8"/>
</g>
<!-- 1&#45;&#45;7 -->
<g id="edge14" class="edge">
<title>1&#45;&#45;7</title>
<path fill="none" stroke="black" stroke-width="0.75" d="M150.1,-200.33C147,-188.62 131.85,-131.32 128.81,-119.81"/>
</g>
<!-- 19 -->
<g id="node19" class="node">
<title>19</title>
<ellipse fill="black" stroke="black" cx="156.11" cy="-294.29" rx="1.8" ry="1.8"/>
</g>
<!-- 1&#45;&#45;19 -->
<g id="edge38" class="edge">
<title>1&#45;&#45;19</title>
<path fill="none" stroke="black" stroke-width="0.75" d="M150.79,-204.69C151.54,-217.4 155.24,-279.6 155.98,-292.1"/>
</g>
<!-- 20 -->
<g id="node20" class="node">
<title>20</title>
<ellipse fill="black" stroke="black" cx="110.21" cy="-265.5" rx="1.8" ry="1.8"/>
</g>
<!-- 1&#45;&#45;20 -->
<g id="edge39" class="edge">
<title>1&#45;&#45;20</title>
<path fill="none" stroke="black" stroke-width="0.75" d="M149.49,-204.24C143.58,-213.45 117.04,-254.84 111.31,-263.79"/>
</g>
<!-- 3 -->
<g id="node4" class="node">
<title>3</title>
<ellipse fill="black" stroke="black" cx="1.8" cy="-171.77" rx="1.8" ry="1.8"/>
</g>
<!-- 2&#45;&#45;3 -->
<g id="edge3" class="edge">
<title>2&#45;&#45;3</title>
<path fill="none" stroke="black" stroke-width="0.75" d="M67.29,-209.9C57.44,-204.17 13.19,-178.4 3.63,-172.83"/>
</g>
<!-- 4 -->
<g id="node5" class="node">
<title>4</title>
<ellipse fill="black" stroke="black" cx="46.93" cy="-137.34" rx="1.8" ry="1.8"/>
</g>
<!-- 2&#45;&#45;4 -->
<g id="edge4" class="edge">
<title>2&#45;&#45;4</title>
<path fill="none" stroke="black" stroke-width="0.75" d="M68.59,-208.91C65.33,-198.15 50.7,-149.78 47.54,-139.33"/>
</g>
<!-- 2&#45;&#45;20 -->
<g id="edge40" class="edge">
<title>2&#45;&#45;20</title>
<path fill="none" stroke="black" stroke-width="0.75" d="M70.6,-212.85C76.93,-221.26 103.41,-256.45 109.12,-264.05"/>
</g>
<!-- 17 -->
<g id="node17" class="node">
<title>17</title>
<ellipse fill="black" stroke="black" cx="247.19" cy="-299.96" rx="1.8" ry="1.8"/>
</g>
<!-- 16&#45;&#45;17 -->
<g id="edge31" class="edge">
<title>16&#45;&#45;17</title>
<path fill="none" stroke="black" stroke-width="0.75" d="M238.81,-218.92C239.99,-230.31 245.72,-285.69 246.95,-297.67"/>
</g>
<!-- 18 -->
<g id="node18" class="node">
<title>18</title>
<ellipse fill="black" stroke="black" cx="197.84" cy="-282.01" rx="1.8" ry="1.8"/>
</g>
<!-- 16&#45;&#45;18 -->
<g id="edge32" class="edge">
<title>16&#45;&#45;18</title>
<path fill="none" stroke="black" stroke-width="0.75" d="M237.42,-218.74C231.47,-228.26 204.72,-271.01 198.94,-280.25"/>
</g>
<!-- 3&#45;&#45;4 -->
<g id="edge5" class="edge">
<title>3&#45;&#45;4</title>
<path fill="none" stroke="black" stroke-width="0.75" d="M3.3,-170.62C10.15,-165.39 38.42,-143.83 45.38,-138.52"/>
</g>
<!-- 5 -->
<g id="node6" class="node">
<title>5</title>
<ellipse fill="black" stroke="black" cx="37.76" cy="-90.76" rx="1.8" ry="1.8"/>
</g>
<!-- 3&#45;&#45;5 -->
<g id="edge6" class="edge">
<title>3&#45;&#45;5</title>
<path fill="none" stroke="black" stroke-width="0.75" d="M2.69,-169.77C7.66,-158.56 32.01,-103.71 36.91,-92.69"/>
</g>
<!-- 4&#45;&#45;5 -->
<g id="edge7" class="edge">
<title>4&#45;&#45;5</title>
<path fill="none" stroke="black" stroke-width="0.75" d="M46.49,-135.09C44.92,-127.09 39.6,-100.1 38.14,-92.67"/>
</g>
<!-- 6 -->
<g id="node7" class="node">
<title>6</title>
<ellipse fill="black" stroke="black" cx="93.46" cy="-62.65" rx="1.8" ry="1.8"/>
</g>
<!-- 4&#45;&#45;6 -->
<g id="edge8" class="edge">
<title>4&#45;&#45;6</title>
<path fill="none" stroke="black" stroke-width="0.75" d="M48.08,-135.49C54.52,-125.16 86.02,-74.6 92.35,-64.43"/>
</g>
<!-- 5&#45;&#45;6 -->
<g id="edge9" class="edge">
<title>5&#45;&#45;6</title>
<path fill="none" stroke="black" stroke-width="0.75" d="M39.62,-89.82C48.07,-85.56 82.96,-67.95 91.55,-63.62"/>
</g>
<!-- 5&#45;&#45;7 -->
<g id="edge10" class="edge">
<title>5&#45;&#45;7</title>
<path fill="none" stroke="black" stroke-width="0.75" d="M39.65,-91.32C51.33,-94.81 113.56,-113.39 126.08,-117.13"/>
</g>
<!-- 6&#45;&#45;7 -->
<g id="edge11" class="edge">
<title>6&#45;&#45;7</title>
<path fill="none" stroke="black" stroke-width="0.75" d="M94.62,-64.49C99.91,-72.86 121.71,-107.39 127.08,-115.89"/>
</g>
<!-- 8 -->
<g id="node9" class="node">
<title>8</title>
<ellipse fill="black" stroke="black" cx="168.09" cy="-46.33" rx="1.8" ry="1.8"/>
</g>
<!-- 6&#45;&#45;8 -->
<g id="edge12" class="edge">
<title>6&#45;&#45;8</title>
<path fill="none" stroke="black" stroke-width="0.75" d="M95.62,-62.18C106.51,-59.8 155.49,-49.09 166.07,-46.77"/>
</g>
<!-- 7&#45;&#45;8 -->
<g id="edge13" class="edge">
<title>7&#45;&#45;8</title>
<path fill="none" stroke="black" stroke-width="0.75" d="M129.26,-116.02C134.72,-106.22 161.26,-58.6 166.99,-48.3"/>
</g>
<!-- 9 -->
<g id="node10" class="node">
<title>9</title>
<ellipse fill="black" stroke="black" cx="231.31" cy="-1.8" rx="1.8" ry="1.8"/>
</g>
<!-- 8&#45;&#45;9 -->
<g id="edge15" class="edge">
<title>8&#45;&#45;9</title>
<path fill="none" stroke="black" stroke-width="0.75" d="M169.91,-45.05C179.15,-38.54 220.64,-9.32 229.6,-3.01"/>
</g>
<!-- 10 -->
<g id="node11" class="node">
<title>10</title>
<ellipse fill="black" stroke="black" cx="249.29" cy="-51.75" rx="1.8" ry="1.8"/>
</g>
<!-- 8&#45;&#45;10 -->
<g id="edge16" class="edge">
<title>8&#45;&#45;10</title>
<path fill="none" stroke="black" stroke-width="0.75" d="M170.1,-46.47C181.23,-47.21 235.35,-50.82 247.05,-51.6"/>
</g>
<!-- 9&#45;&#45;10 -->
<g id="edge17" class="edge">
<title>9&#45;&#45;10</title>
<path fill="none" stroke="black" stroke-width="0.75" d="M232.09,-3.95C235.04,-12.16 245.62,-41.56 248.54,-49.66"/>
</g>
<!-- 11 -->
<g id="node12" class="node">
<title>11</title>
<ellipse fill="black" stroke="black" cx="302.24" cy="-57.71" rx="1.8" ry="1.8"/>
</g>
<!-- 9&#45;&#45;11 -->
<g id="edge18" class="edge">
<title>9&#45;&#45;11</title>
<path fill="none" stroke="black" stroke-width="0.75" d="M233.07,-3.18C242.88,-10.92 290.9,-48.77 300.55,-56.37"/>
</g>
<!-- 10&#45;&#45;11 -->
<g id="edge19" class="edge">
<title>10&#45;&#45;11</title>
<path fill="none" stroke="black" stroke-width="0.75" d="M251.56,-52C260.27,-52.98 291.44,-56.49 300.03,-57.46"/>
</g>
<!-- 12 -->
<g id="node13" class="node">
<title>12</title>
<ellipse fill="black" stroke="black" cx="325.25" cy="-107.61" rx="1.8" ry="1.8"/>
</g>
<!-- 10&#45;&#45;12 -->
<g id="edge20" class="edge">
<title>10&#45;&#45;12</title>
<path fill="none" stroke="black" stroke-width="0.75" d="M250.88,-52.91C260.68,-60.12 312.9,-98.53 323.41,-106.25"/>
</g>
<!-- 11&#45;&#45;12 -->
<g id="edge21" class="edge">
<title>11&#45;&#45;12</title>
<path fill="none" stroke="black" stroke-width="0.75" d="M303.01,-59.37C306.5,-66.94 320.91,-98.2 324.46,-105.89"/>
</g>
<!-- 13 -->
<g id="node14" class="node">
<title>13</title>
<ellipse fill="black" stroke="black" cx="283.21" cy="-147.09" rx="1.8" ry="1.8"/>
</g>
<!-- 11&#45;&#45;13 -->
<g id="edge22" class="edge">
<title>11&#45;&#45;13</title>
<path fill="none" stroke="black" stroke-width="0.75" d="M301.77,-59.92C299.14,-72.28 286.25,-132.8 283.67,-144.96"/>
</g>
<!-- 12&#45;&#45;13 -->
<g id="edge23" class="edge">
<title>12&#45;&#45;13</title>
<path fill="none" stroke="black" stroke-width="0.75" d="M323.85,-108.92C317.47,-114.92 291.14,-139.65 284.66,-145.73"/>
</g>
<!-- 14 -->
<g id="node15" class="node">
<title>14</title>
<ellipse fill="black" stroke="black" cx="315.55" cy="-192.02" rx="1.8" ry="1.8"/>
</g>
<!-- 12&#45;&#45;14 -->
<g id="edge24" class="edge">
<title>12&#45;&#45;14</title>
<path fill="none" stroke="black" stroke-width="0.75" d="M325.01,-109.69C323.67,-121.37 317.1,-178.52 315.78,-190"/>
</g>
<!-- 13&#45;&#45;16 -->
<g id="edge26" class="edge">
<title>13&#45;&#45;16</title>
<path fill="none" stroke="black" stroke-width="0.75" d="M282.11,-148.82C275.99,-158.39 246.26,-204.89 239.83,-214.94"/>
</g>
<!-- 13&#45;&#45;14 -->
<g id="edge25" class="edge">
<title>13&#45;&#45;14</title>
<path fill="none" stroke="black" stroke-width="0.75" d="M284.29,-148.59C289.2,-155.41 309.45,-183.54 314.44,-190.47"/>
</g>
<!-- 14&#45;&#45;16 -->
<g id="edge28" class="edge">
<title>14&#45;&#45;16</title>
<path fill="none" stroke="black" stroke-width="0.75" d="M313.65,-192.63C303.1,-196.04 251.81,-212.6 240.72,-216.18"/>
</g>
<!-- 15 -->
<g id="node16" class="node">
<title>15</title>
<ellipse fill="black" stroke="black" cx="303.15" cy="-260.59" rx="1.8" ry="1.8"/>
</g>
<!-- 14&#45;&#45;15 -->
<g id="edge27" class="edge">
<title>14&#45;&#45;15</title>
<path fill="none" stroke="black" stroke-width="0.75" d="M315.2,-194C313.38,-204.01 305.24,-249.01 303.49,-258.73"/>
</g>
<!-- 15&#45;&#45;16 -->
<g id="edge29" class="edge">
<title>15&#45;&#45;16</title>
<path fill="none" stroke="black" stroke-width="0.75" d="M301.29,-259.33C291.86,-252.94 249.5,-224.25 240.35,-218.05"/>
</g>
<!-- 15&#45;&#45;17 -->
<g id="edge30" class="edge">
<title>15&#45;&#45;17</title>
<path fill="none" stroke="black" stroke-width="0.75" d="M301.29,-261.9C292.64,-267.98 256.49,-293.42 248.68,-298.91"/>
</g>
<!-- 17&#45;&#45;18 -->
<g id="edge33" class="edge">
<title>17&#45;&#45;18</title>
<path fill="none" stroke="black" stroke-width="0.75" d="M245.07,-299.19C236.95,-296.23 207.91,-285.67 199.9,-282.76"/>
</g>
<!-- 17&#45;&#45;19 -->
<g id="edge34" class="edge">
<title>17&#45;&#45;19</title>
<path fill="none" stroke="black" stroke-width="0.75" d="M244.94,-299.82C232.34,-299.03 170.68,-295.2 158.29,-294.42"/>
</g>
<!-- 18&#45;&#45;19 -->
<g id="edge35" class="edge">
<title>18&#45;&#45;19</title>
<path fill="none" stroke="black" stroke-width="0.75" d="M196.05,-282.54C189.31,-284.52 165.51,-291.52 158.24,-293.66"/>
</g>
<!-- 18&#45;&#45;20 -->
<g id="edge36" class="edge">
<title>18&#45;&#45;20</title>
<path fill="none" stroke="black" stroke-width="0.75" d="M195.67,-281.6C183.55,-279.32 124.23,-268.14 112.3,-265.89"/>
</g>
<!-- 19&#45;&#45;20 -->
<g id="edge37" class="edge">
<title>19&#45;&#45;20</title>
<path fill="none" stroke="black" stroke-width="0.75" d="M154.59,-293.33C147.62,-288.96 118.87,-270.93 111.79,-266.49"/>
</g>
</g>
</svg>
