<svg xmlns="http://www.w3.org/2000/svg" width="104" height="104" viewBox="0 0 104 104">
<rect x="0" y="13" width="13" height="13" fill="rgb(0,0,0)"/>
<rect x="0" y="26" width="13" height="13" fill="rgb(0,0,0)"/>
<rect x="0" y="39" width="13" height="13" fill="rgb(0,0,0)"/>
<rect x="0" y="91" width="13" height="13" fill="rgb(0,0,0)"/>
<rect x="13" y="0" width="13" height="13" fill="rgb(0,0,0)"/>
<rect x="13" y="13" width="13" height="13" fill="rgb(0,0,0)"/>
<rect x="13" y="26" width="13" height="13" fill="rgb(0,0,0)"/>
<rect x="13" y="78" width="13" height="13" fill="rgb(0,0,0)"/>
<rect x="26" y="0" width="13" height="13" fill="rgb(0,0,0)"/>
<rect x="26" y="13" width="13" height="13" fill="rgb(0,0,0)"/>
<rect x="26" y="65" width="13" height="13" fill="rgb(0,0,0)"/>
<rect x="26" y="91" width="13" height="13" fill="rgb(0,0,0)"/>
<rect x="39" y="0" width="13" height="13" fill="rgb(0,0,0)"/>
<rect x="39" y="52" width="13" height="13" fill="rgb(0,0,0)"/>
<rect x="39" y="78" width="13" height="13" fill="rgb(0,0,0)"/>
<rect x="39" y="91" width="13" height="13" fill="rgb(0,0,0)"/>
<rect x="52" y="39" width="13" height="13" fill="rgb(0,0,0)"/>
<rect x="52" y="65" width="13" height="13" fill="rgb(0,0,0)"/>
<rect x="52" y="78" width="13" height="13" fill="rgb(0,0,0)"/>
<rect x="52" y="91" width="13" height="13" fill="rgb(0,0,0)"/>
<rect x="65" y="26" width="13" height="13" fill="rgb(0,0,0)"/>
<rect x="65" y="52" width="13" height="13" fill="rgb(0,0,0)"/>
<rect x="65" y="65" width="13" height="13" fill="rgb(0,0,0)"/>
<rect x="65" y="78" width="13" height="13" fill="rgb(0,0,0)"/>
<rect x="78" y="13" width="13" height="13" fill="rgb(0,0,0)"/>
<rect x="78" y="39" width="13" height="13" fill="rgb(0,0,0)"/>
<rect x="78" y="52" width="13" height="13" fill="rgb(0,0,0)"/>
<rect x="78" y="65" width="13" height="13" fill="rgb(0,0,0)"/>
<rect x="91" y="0" width="13" height="13" fill="rgb(0,0,0)"/>
<rect x="91" y="26" width="13" height="13" fill="rgb(0,0,0)"/>
<rect x="91" y="39" width="13" height="13" fill="rgb(0,0,0)"/>
<rect x="91" y="52" width="13" height="13" fill="rgb(0,0,0)"/>
</svg>