<svg xmlns="http://www.w3.org/2000/svg" width="96" height="96" viewBox="0 0 96 96">
<rect x="0" y="0" width="6" height="6" fill="rgb(0,0,0)"/>
<rect x="0" y="12" width="6" height="6" fill="rgb(0,0,0)"/>
<rect x="0" y="24" width="6" height="6" fill="rgb(0,0,0)"/>
<rect x="0" y="36" width="6" height="6" fill="rgb(0,0,0)"/>
<rect x="0" y="60" width="6" height="6" fill="rgb(0,0,0)"/>
<rect x="0" y="66" width="6" height="6" fill="rgb(0,0,0)"/>
<rect x="0" y="84" width="6" height="6" fill="rgb(0,0,0)"/>
<rect x="0" y="90" width="6" height="6" fill="rgb(0,0,0)"/>
<rect x="6" y="6" width="6" height="6" fill="rgb(0,0,0)"/>
<rect x="6" y="18" width="6" height="6" fill="rgb(0,0,0)"/>
<rect x="6" y="30" width="6" height="6" fill="rgb(0,0,0)"/>
<rect x="6" y="54" width="6" height="6" fill="rgb(0,0,0)"/>
<rect x="6" y="60" width="6" height="6" fill="rgb(0,0,0)"/>
<rect x="6" y="78" width="6" height="6" fill="rgb(0,0,0)"/>
<rect x="6" y="84" width="6" height="6" fill="rgb(0,0,0)"/>
<rect x="12" y="0" width="6" height="6" fill="rgb(0,0,0)"/>
<rect x="12" y="12" width="6" height="6" fill="rgb(0,0,0)"/>
<rect x="12" y="24" width="6" height="6" fill="rgb(0,0,0)"/>
<rect x="12" y="36" width="6" height="6" fill="rgb(0,0,0)"/>
<rect x="12" y="48" width="6" height="6" fill="rgb(0,0,0)"/>
<rect x="12" y="54" width="6" height="6" fill="rgb(0,0,0)"/>
<rect x="12" y="72" width="6" height="6" fill="rgb(0,0,0)"/>
<rect x="12" y="78" width="6" height="6" fill="rgb(0,0,0)"/>
<rect x="18" y="6" width="6" height="6" fill="rgb(0,0,0)"/>
<rect x="18" y="18" width="6" height="6" fill="rgb(0,0,0)"/>
<rect x="18" y="30" width="6" height="6" fill="rgb(0,0,0)"/>
<rect x="18" y="48" width="6" height="6" fill="rgb(0,0,0)"/>
<rect x="18" y="66" width="6" height="6" fill="rgb(0,0,0)"/>
<rect x="18" y="72" width="6" height="6" fill="rgb(0,0,0)"/>
<rect x="18" y="90" width="6" height="6" fill="rgb(0,0,0)"/>
<rect x="24" y="0" width="6" height="6" fill="rgb(0,0,0)"/>
<rect x="24" y="12" width="6" height="6" fill="rgb(0,0,0)"/>
<rect x="24" y="24" width="6" height="6" fill="rgb(0,0,0)"/>
<rect x="24" y="36" width="6" height="6" fill="rgb(0,0,0)"/>
<rect x="24" y="60" width="6" height="6" fill="rgb(0,0,0)"/>
<rect x="24" y="66" width="6" height="6" fill="rgb(0,0,0)"/>
<rect x="24" y="84" width="6" height="6" fill="rgb(0,0,0)"/>
<rect x="24" y="90" width="6" height="6" fill="rgb(0,0,0)"/>
<rect x="30" y="6" width="6" height="6" fill="rgb(0,0,0)"/>
<rect x="30" y="18" width="6" height="6" fill="rgb(0,0,0)"/>
<rect x="30" y="30" width="6" height="6" fill="rgb(0,0,0)"/>
<rect x="30" y="54" width="6" height="6" fill="rgb(0,0,0)"/>
<rect x="30" y="60" width="6" height="6" fill="rgb(0,0,0)"/>
<rect x="30" y="78" width="6" height="6" fill="rgb(0,0,0)"/>
<rect x="30" y="84" width="6" height="6" fill="rgb(0,0,0)"/>
<rect x="36" y="0" width="6" height="6" fill="rgb(0,0,0)"/>
<rect x="36" y="12" width="6" height="6" fill="rgb(0,0,0)"/>
<rect x="36" y="24" width="6" height="6" fill="rgb(0,0,0)"/>
<rect x="36" y="36" width="6" height="6" fill="rgb(0,0,0)"/>
<rect x="36" y="48" width="6" height="6" fill="rgb(0,0,0)"/>
<rect x="36" y="54" width="6" height="6" fill="rgb(0,0,0)"/>
<rect x="36" y="72" width="6" height="6" fill="rgb(0,0,0)"/>
<rect x="36" y="78" width="6" height="6" fill="rgb(0,0,0)"/>
<rect x="42" y="6" width="6" height="6" fill="rgb(0,0,0)"/>
<rect x="42" y="18" width="6" height="6" fill="rgb(0,0,0)"/>
<rect x="42" y="30" width="6" height="6" fill="rgb(0,0,0)"/>
<rect x="42" y="48" width="6" height="6" fill="rgb(0,0,0)"/>
<rect x="42" y="66" width="6" height="6" fill="rgb(0,0,0)"/>
<rect x="42" y="72" width="6" height="6" fill="rgb(0,0,0)"/>
<rect x="42" y="90" width="6" height="6" fill="rgb(0,0,0)"/>
<rect x="48" y="0" width="6" height="6" fill="rgb(0,0,0)"/>
<rect x="48" y="12" width="6" height="6" fill="rgb(0,0,0)"/>
<rect x="48" y="24" width="6" height="6" fill="rgb(0,0,0)"/>
<rect x="48" y="36" width="6" height="6" fill="rgb(0,0,0)"/>
<rect x="48" y="60" width="6" height="6" fill="rgb(0,0,0)"/>
<rect x="48" y="66" width="6" height="6" fill="rgb(0,0,0)"/>
<rect x="48" y="84" width="6" height="6" fill="rgb(0,0,0)"/>
<rect x="48" y="90" width="6" height="6" fill="rgb(0,0,0)"/>
<rect x="54" y="6" width="6" height="6" fill="rgb(0,0,0)"/>
<rect x="54" y="18" width="6" height="6" fill="rgb(0,0,0)"/>
<rect x="54" y="30" width="6" height="6" fill="rgb(0,0,0)"/>
<rect x="54" y="54" width="6" height="6" fill="rgb(0,0,0)"/>
<rect x="54" y="60" width="6" height="6" fill="rgb(0,0,0)"/>
<rect x="54" y="78" width="6" height="6" fill="rgb(0,0,0)"/>
<rect x="54" y="84" width="6" height="6" fill="rgb(0,0,0)"/>
<rect x="60" y="0" width="6" height="6" fill="rgb(0,0,0)"/>
<rect x="60" y="12" width="6" height="6" fill="rgb(0,0,0)"/>
<rect x="60" y="24" width="6" height="6" fill="rgb(0,0,0)"/>
<rect x="60" y="36" width="6" height="6" fill="rgb(0,0,0)"/>
<rect x="60" y="48" width="6" height="6" fill="rgb(0,0,0)"/>
<rect x="60" y="54" width="6" height="6" fill="rgb(0,0,0)"/>
<rect x="60" y="72" width="6" height="6" fill="rgb(0,0,0)"/>
<rect x="60" y="78" width="6" height="6" fill="rgb(0,0,0)"/>
<rect x="66" y="6" width="6" height="6" fill="rgb(0,0,0)"/>
<rect x="66" y="18" width="6" height="6" fill="rgb(0,0,0)"/>
<rect x="66" y="30" width="6" height="6" fill="rgb(0,0,0)"/>
<rect x="66" y="48" width="6" height="6" fill="rgb(0,0,0)"/>
<rect x="66" y="66" width="6" height="6" fill="rgb(0,0,0)"/>
<rect x="66" y="72" width="6" height="6" fill="rgb(0,0,0)"/>
<rect x="66" y="90" width="6" height="6" fill="rgb(0,0,0)"/>
<rect x="72" y="0" width="6" height="6" fill="rgb(0,0,0)"/>
<rect x="72" y="12" width="6" height="6" fill="rgb(0,0,0)"/>
<rect x="72" y="24" width="6" height="6" fill="rgb(0,0,0)"/>
<rect x="72" y="36" width="6" height="6" fill="rgb(0,0,0)"/>
<rect x="72" y="60" width="6" height="6" fill="rgb(0,0,0)"/>
<rect x="72" y="66" width="6" height="6" fill="rgb(0,0,0)"/>
<rect x="72" y="84" width="6" height="6" fill="rgb(0,0,0)"/>
<rect x="72" y="90" width="6" height="6" fill="rgb(0,0,0)"/>
<rect x="78" y="6" width="6" height="6" fill="rgb(0,0,0)"/>
<rect x="78" y="18" width="6" height="6" fill="rgb(0,0,0)"/>
<rect x="78" y="30" width="6" height="6" fill="rgb(0,0,0)"/>
<rect x="78" y="54" width="6" height="6" fill="rgb(0,0,0)"/>
<rect x="78" y="60" width="6" height="6" fill="rgb(0,0,0)"/>
<rect x="78" y="78" width="6" height="6" fill="rgb(0,0,0)"/>
<rect x="78" y="84" width="6" height="6" fill="rgb(0,0,0)"/>
<rect x="84" y="0" width="6" height="6" fill="rgb(0,0,0)"/>
<rect x="84" y="12" width="6" height="6" fill="rgb(0,0,0)"/>
<rect x="84" y="24" width="6" height="6" fill="rgb(0,0,0)"/>
<rect x="84" y="36" width="6" height="6" fill="rgb(0,0,0)"/>
<rect x="84" y="48" width="6" height="6" fill="rgb(0,0,0)"/>
<rect x="84" y="54" width="6" height="6" fill="rgb(0,0,0)"/>
<rect x="84" y="72" width="6" height="6" fill="rgb(0,0,0)"/>
<rect x="84" y="78" width="6" height="6" fill="rgb(0,0,0)"/>
<rect x="90" y="6" width="6" height="6" fill="rgb(0,0,0)"/>
<rect x="90" y="18" width="6" height="6" fill="rgb(0,0,0)"/>
<rect x="90" y="30" width="6" height="6" fill="rgb(0,0,0)"/>
<rect x="90" y="48" width="6" height="6" fill="rgb(0,0,0)"/>
<rect x="90" y="66" width="6" height="6" fill="rgb(0,0,0)"/>
<rect x="90" y="72" width="6" height="6" fill="rgb(0,0,0)"/>
<rect x="90" y="90" width="6" height="6" fill="rgb(0,0,0)"/>
</svg>