<svg xmlns="http://www.w3.org/2000/svg" width="161.8" height="100.0" viewBox="-5.000 -5.837 171.803 110.000">
<g fill="none" stroke="black" stroke-width="0.0017%" transform="translate(0, 98.3261) scale(290.3665, -290.3665)">
<circle cx="0.000" cy="0.000" r="0.002" />
<circle cx="0.000" cy="0.342" r="0.002" />
<polyline points="0.000,0.000 0.001,0.007 0.002,0.012 0.003,0.014 0.004,0.020 0.006,0.023 0.007,0.023 0.008,0.024 0.009,0.028 0.010,0.030 0.011,0.033 0.012,0.036 0.013,0.042 0.014,0.048 0.016,0.050 0.017,0.053 0.018,0.056 0.019,0.057 0.020,0.056 0.021,0.054 0.022,0.056 0.023,0.057 0.025,0.055 0.026,0.057 0.027,0.061 0.028,0.063 0.029,0.063 0.030,0.064 0.031,0.067 0.032,0.066 0.033,0.062 0.035,0.062 0.036,0.061 0.037,0.059 0.038,0.058 0.039,0.058 0.040,0.061 0.041,0.063 0.042,0.063 0.043,0.066 0.045,0.069 0.046,0.068 0.047,0.067 0.048,0.067 0.049,0.068 0.050,0.067 0.051,0.065 0.052,0.069 0.053,0.074 0.055,0.075 0.056,0.080 0.057,0.085 0.058,0.090 0.059,0.091 0.060,0.092 0.061,0.097 0.062,0.098 0.064,0.097 0.065,0.101 0.066,0.105 0.067,0.110 0.068,0.114 0.069,0.119 0.070,0.127 0.071,0.132 0.072,0.134 0.074,0.138 0.075,0.141 0.076,0.143 0.077,0.143 0.078,0.144 0.079,0.150 0.080,0.153 0.081,0.155 0.082,0.161 0.084,0.166 0.085,0.169 0.086,0.171 0.087,0.173 0.088,0.175 0.089,0.173 0.090,0.171 0.091,0.173 0.093,0.173 0.094,0.173 0.095,0.174 0.096,0.177 0.097,0.180 0.098,0.181 0.099,0.180 0.100,0.182 0.101,0.181 0.103,0.178 0.104,0.176 0.105,0.174 0.106,0.175 0.107,0.172 0.108,0.171 0.109,0.175 0.110,0.177 0.111,0.177 0.113,0.178 0.114,0.180 0.115,0.181 0.116,0.177 0.117,0.176 0.118,0.178 0.119,0.176 0.120,0.175 0.121,0.178 0.123,0.181 0.124,0.185 0.125,0.187 0.126,0.191 0.127,0.196 0.128,0.198 0.129,0.198 0.130,0.200 0.132,0.201 0.133,0.203 0.134,0.203 0.135,0.207 0.136,0.214 0.137,0.217 0.138,0.221 0.139,0.228 0.140,0.233 0.142,0.236 0.143,0.237 0.144,0.240 0.145,0.243 0.146,0.241 0.147,0.243 0.148,0.247 0.149,0.250 0.150,0.254 0.152,0.257 0.153,0.262 0.154,0.267 0.155,0.267 0.156,0.268 0.157,0.269 0.158,0.268 0.159,0.266 0.160,0.264 0.162,0.266 0.163,0.268 0.164,0.266 0.165,0.269 0.166,0.273 0.167,0.273 0.168,0.272 0.169,0.271 0.171,0.271 0.172,0.268 0.173,0.263 0.174,0.262 0.175,0.262 0.176,0.259 0.177,0.259 0.178,0.260 0.179,0.262 0.181,0.263 0.182,0.262 0.183,0.262 0.184,0.263 0.185,0.259 0.186,0.257 0.187,0.256 0.188,0.256 0.189,0.256 0.191,0.255 0.192,0.259 0.193,0.264 0.194,0.264 0.195,0.267 0.196,0.271 0.197,0.272 0.198,0.272 0.199,0.271 0.201,0.274 0.202,0.275 0.203,0.274 0.204,0.278 0.205,0.283 0.206,0.287 0.207,0.291 0.208,0.295 0.210,0.300 0.211,0.303 0.212,0.302 0.213,0.304 0.214,0.306 0.215,0.306 0.216,0.306 0.217,0.308 0.218,0.313 0.220,0.317 0.221,0.318 0.222,0.323 0.223,0.327 0.224,0.327 0.225,0.326 0.226,0.325 0.227,0.326 0.228,0.323 0.230,0.320 0.231,0.322 0.232,0.323 0.233,0.322 0.234,0.323 0.235,0.325 0.236,0.326 0.237,0.325 0.238,0.321 0.240,0.320 0.241,0.318 0.242,0.313 0.243,0.309 0.244,0.308 0.245,0.308 0.246,0.306 0.247,0.305 0.249,0.308 0.250,0.308 0.251,0.305 0.252,0.304 0.253,0.304 0.254,0.301 0.255,0.296 0.256,0.294 0.257,0.295 0.259,0.294 0.260,0.293 0.261,0.296 0.262,0.299 0.263,0.300 0.264,0.301 0.265,0.302 0.266,0.304 0.267,0.303 0.269,0.300 0.270,0.301 0.271,0.302 0.272,0.303 0.273,0.305 0.274,0.308 0.275,0.314 0.276,0.317 0.278,0.318 0.279,0.323 0.280,0.325 0.281,0.324 0.282,0.323 0.283,0.324 0.284,0.326 0.285,0.325 0.286,0.326 0.288,0.331 0.289,0.333 0.290,0.335 0.291,0.338 0.292,0.340 0.293,0.342 0.294,0.339 0.295,0.336 0.296,0.336 0.298,0.334 0.299,0.331 0.300,0.330 0.301,0.331 0.302,0.333 0.303,0.331 0.304,0.331 0.305,0.333 0.306,0.331 0.308,0.326 0.309,0.323 0.310,0.320 0.311,0.316 0.312,0.310 0.313,0.308 0.314,0.309 0.315,0.306 0.317,0.305 0.318,0.306 0.319,0.305 0.320,0.303 0.321,0.299 0.322,0.296 0.323,0.295 0.324,0.289 0.325,0.285 0.327,0.285 0.328,0.284 0.329,0.284 0.330,0.283 0.331,0.286 0.332,0.289 0.333,0.287 0.334,0.286 0.335,0.287 0.337,0.286 0.338,0.283 0.339,0.281 0.340,0.283 0.341,0.284 0.342,0.284 0.343,0.287 0.344,0.292 0.345,0.294 0.347,0.295 0.348,0.297 0.349,0.298 0.350,0.299 0.351,0.296 0.352,0.295 0.353,0.297 0.354,0.297 0.356,0.297 0.357,0.299 0.358,0.303 0.359,0.306 0.360,0.304 0.361,0.306 0.362,0.308 0.363,0.304 0.364,0.301 0.366,0.299 0.367,0.297 0.368,0.295 0.369,0.291 0.370,0.293 0.371,0.294 0.372,0.292 0.373,0.292 0.374,0.291 0.376,0.289 0.377,0.285 0.378,0.279 0.379,0.275 0.380,0.272 0.381,0.266 0.382,0.262 0.383,0.261 0.384,0.261 0.386,0.258 0.387,0.256 0.388,0.256 0.389,0.254 0.390,0.248 0.391,0.244 0.392,0.241 0.393,0.236 0.395,0.231 0.396,0.229 0.397,0.229 0.398,0.229 0.399,0.226 0.400,0.228 0.401,0.230 0.402,0.228 0.403,0.227 0.405,0.224 0.406,0.224 0.407,0.221 0.408,0.217 0.409,0.218 0.410,0.219 0.411,0.220 0.412,0.221 0.413,0.223 0.415,0.228 0.416,0.228 0.417,0.226 0.418,0.228 0.419,0.228 0.420,0.225 0.421,0.223 0.422,0.223 0.424,0.225 0.425,0.224 0.426,0.225 0.427,0.229 0.428,0.231 0.429,0.230 0.430,0.230 0.431,0.230 0.432,0.228 0.434,0.224 0.435,0.219 0.436,0.218 0.437,0.217 0.438,0.213 0.439,0.213 0.440,0.213 0.441,0.213 0.442,0.211 0.444,0.207 0.445,0.207 0.446,0.202 0.447,0.194 0.448,0.191 0.449,0.186 0.450,0.181 0.451,0.177 0.452,0.174 0.454,0.175 0.455,0.172 0.456,0.168 0.457,0.168 0.458,0.164 0.459,0.159 0.460,0.153 0.461,0.148 0.463,0.145 0.464,0.140 0.465,0.136 0.466,0.136 0.467,0.136 0.468,0.134 0.469,0.133 0.470,0.133 0.471,0.134 0.473,0.130 0.474,0.126 0.475,0.125 0.476,0.123 0.477,0.119 0.478,0.118 0.479,0.119 0.480,0.121 0.481,0.121 0.483,0.122 0.484,0.126 0.485,0.126 0.486,0.124 0.487,0.124 0.488,0.122 0.489,0.122 0.490,0.118 0.491,0.117 0.493,0.120 0.494,0.120 0.495,0.120 0.496,0.122 0.497,0.124 0.498,0.125 0.499,0.122 0.500,0.120 0.502,0.121 0.503,0.115 0.504,0.110 0.505,0.109 0.506,0.107 0.507,0.106 0.508,0.103 0.509,0.104 0.510,0.104 0.512,0.101 0.513,0.097 0.514,0.095 0.515,0.090 0.516,0.084 0.517,0.078 0.518,0.073 0.519,0.070 0.520,0.065 0.522,0.062 0.523,0.062 0.524,0.060 0.525,0.056 0.526,0.052 0.527,0.049 0.528,0.046 0.529,0.037 0.530,0.032 0.532,0.030 0.533,0.024 0.534,0.020 0.535,0.019 0.536,0.019 0.537,0.019 0.538,0.015 0.539,0.015 0.541,0.015 0.542,0.011 0.543,0.008 0.544,0.004 0.545,0.002 0.546,0.001 0.547,-0.003 0.548,-0.002 0.549,0.001 0.551,0.001 0.552,0.002 0.553,0.003 0.554,0.005 0.555,0.004 0.556,0.000 0.557,0.000" />
</g>
</svg>