<svg xmlns="http://www.w3.org/2000/svg" width="161.803" height="100.000" viewBox="-85.902 -5.000 171.803 110.000">
<g fill="none" stroke="black" stroke-width="0.005%" transform="translate(0, 100.000) scale(100.000, -100.000)">
<circle cx="-0.809" cy="0.000" r="0.010" />
<circle cx="0.000" cy="1.000" r="0.010" />
<polyline points="-0.809,0.000 -0.793,0.000 -0.777,0.000 -0.760,0.000 -0.744,0.000 -0.728,0.000 -0.712,0.000 -0.696,0.000 -0.680,0.000 -0.663,0.000 -0.647,0.000 -0.631,0.000 -0.615,0.000 -0.599,0.000 -0.582,0.000 -0.566,0.000 -0.550,0.000 -0.534,0.000 -0.518,0.000 -0.502,0.000 -0.485,0.000 -0.469,0.000 -0.453,0.000 -0.437,0.000 -0.421,0.000 -0.405,0.306 -0.388,0.360 -0.372,0.412 -0.356,0.462 -0.340,0.510 -0.324,0.556 -0.307,0.599 -0.291,0.640 -0.275,0.679 -0.259,0.716 -0.243,0.750 -0.227,0.782 -0.210,0.812 -0.194,0.840 -0.178,0.866 -0.162,0.889 -0.146,0.910 -0.129,0.929 -0.113,0.946 -0.097,0.960 -0.081,0.972 -0.065,0.982 -0.049,0.990 -0.032,0.996 -0.016,0.999 0.000,1.000 0.016,0.999 0.032,0.996 0.049,0.990 0.065,0.982 0.081,0.972 0.097,0.960 0.113,0.946 0.129,0.929 0.146,0.910 0.162,0.889 0.178,0.866 0.194,0.840 0.210,0.812 0.227,0.782 0.243,0.750 0.259,0.716 0.275,0.679 0.291,0.640 0.307,0.599 0.324,0.556 0.340,0.510 0.356,0.462 0.372,0.412 0.388,0.360 0.405,0.000 0.421,0.000 0.437,0.000 0.453,0.000 0.469,0.000 0.485,0.000 0.502,0.000 0.518,0.000 0.534,0.000 0.550,0.000 0.566,0.000 0.582,0.000 0.599,0.000 0.615,0.000 0.631,0.000 0.647,0.000 0.663,0.000 0.680,0.000 0.696,0.000 0.712,0.000 0.728,0.000 0.744,0.000 0.760,0.000 0.777,0.000 0.793,0.000 0.809,0.000" />
</g>
</svg>