<svg xmlns="http://www.w3.org/2000/svg" width="161.8" height="100.0" viewBox="-3.726 -5.000 171.803 110.000">
<g fill="none" stroke="black" stroke-width="0.0050%" transform="translate(0, 100.0000) scale(100.0062, -100.0062)">
<polyline points="0.013,0.000 0.025,0.031 0.038,0.062 0.051,0.092 0.064,0.122 0.076,0.151 0.089,0.180 0.102,0.208 0.115,0.236 0.127,0.263 0.140,0.290 0.153,0.316 0.166,0.342 0.178,0.368 0.191,0.392 0.204,0.417 0.217,0.440 0.229,0.464 0.242,0.487 0.255,0.509 0.268,0.531 0.280,0.552 0.293,0.573 0.306,0.593 0.318,0.613 0.331,0.632 0.344,0.651 0.357,0.670 0.369,0.687 0.382,0.705 0.395,0.722 0.408,0.738 0.420,0.754 0.433,0.769 0.446,0.784 0.459,0.799 0.471,0.812 0.484,0.826 0.497,0.839 0.510,0.851 0.522,0.863 0.535,0.874 0.548,0.885 0.561,0.896 0.573,0.906 0.586,0.915 0.599,0.924 0.612,0.932 0.624,0.940 0.637,0.948 0.650,0.955 0.662,0.961 0.675,0.967 0.688,0.973 0.701,0.978 0.713,0.982 0.726,0.986 0.739,0.990 0.752,0.992 0.764,0.995 0.777,0.997 0.790,0.998 0.803,0.999 0.815,1.000 0.828,1.000 0.841,0.999 0.854,0.998 0.866,0.997 0.879,0.995 0.892,0.992 0.905,0.990 0.917,0.986 0.930,0.982 0.943,0.978 0.955,0.973 0.968,0.967 0.981,0.961 0.994,0.955 1.006,0.948 1.019,0.940 1.032,0.932 1.045,0.924 1.057,0.915 1.070,0.906 1.083,0.896 1.096,0.885 1.108,0.874 1.121,0.863 1.134,0.851 1.147,0.839 1.159,0.826 1.172,0.812 1.185,0.799 1.198,0.784 1.210,0.769 1.223,0.754 1.236,0.738 1.248,0.722 1.261,0.705 1.274,0.687 1.287,0.670 1.299,0.651 1.312,0.632 1.325,0.613 1.338,0.593 1.350,0.573 1.363,0.552 1.376,0.531 1.389,0.509 1.401,0.487 1.414,0.464 1.427,0.440 1.440,0.417 1.452,0.392 1.465,0.368 1.478,0.342 1.491,0.316 1.503,0.290 1.516,0.263 1.529,0.236 1.541,0.208 1.554,0.180 1.567,0.151 1.580,0.122 1.592,0.092 1.605,0.062 1.618,0.031 1.631,0.000" />
</g>
</svg>