<svg xmlns="http://www.w3.org/2000/svg" width="161.8" height="100.0" viewBox="-1.2 -3.9 171.8 110.0">
<g fill="none" stroke="black" stroke-width="0.4350%" transform="translate(0, 102.2989) scale(1.1494, -1.1494)">
<polyline points="3.3,1.0 6.5,3.0 9.8,9.0 13.1,27.0 16.4,81.0 19.6,65.0 22.9,17.0 26.2,51.0 29.5,64.0 32.7,14.0 36.0,42.0 39.3,37.0 42.6,22.0 45.8,66.0 49.1,20.0 52.4,60.0 55.7,2.0 58.9,6.0 62.2,18.0 65.5,54.0 68.7,73.0 72.0,41.0 75.3,34.0 78.6,13.0 81.8,39.0 85.1,28.0 88.4,84.0 91.7,74.0 94.9,44.0 98.2,43.0 101.5,40.0 104.8,31.0 108.0,4.0 111.3,12.0 114.6,36.0 117.9,19.0 121.1,57.0 124.4,82.0 127.7,68.0 130.9,26.0 134.2,78.0 137.5,56.0 140.8,79.0 144.0,59.0" />
<polyline points="3.3,88.0 6.5,86.0 9.8,80.0 13.1,62.0 16.4,8.0 19.6,24.0 22.9,72.0 26.2,38.0 29.5,25.0 32.7,75.0 36.0,47.0 39.3,52.0 42.6,67.0 45.8,23.0 49.1,69.0 52.4,29.0 55.7,87.0 58.9,83.0 62.2,71.0 65.5,35.0 68.7,16.0 72.0,48.0 75.3,55.0 78.6,76.0 81.8,50.0 85.1,61.0 88.4,5.0 91.7,15.0 94.9,45.0 98.2,46.0 101.5,49.0 104.8,58.0 108.0,85.0 111.3,77.0 114.6,53.0 117.9,70.0 121.1,32.0 124.4,7.0 127.7,21.0 130.9,63.0 134.2,11.0 137.5,33.0 140.8,10.0 144.0,30.0" />
</g>
</svg>