<?xml version="1.0" encoding="UTF-8" standalone="no"?>
<!DOCTYPE svg PUBLIC "-//W3C//DTD SVG 1.1//EN"
 "http://www.w3.org/Graphics/SVG/1.1/DTD/svg11.dtd">
<!-- Generated by graphviz version 12.0.0 (0)
 -->
<!-- Pages: 1 -->
<svg width="54pt" height="54pt"
 viewBox="0.00 0.00 54.00 54.00" xmlns="http://www.w3.org/2000/svg" xmlns:xlink="http://www.w3.org/1999/xlink">
<g id="graph0" class="graph" transform="scale(0.319766 0.319766) rotate(0) translate(4 164.87)">
<!-- 2 -->
<g id="node1" class="node">
<title>2</title>
<ellipse fill="black" stroke="black" cx="102.32" cy="-1.8" rx="1.8" ry="1.8"/>
</g>
<!-- 3 -->
<g id="node2" class="node">
<title>3</title>
<ellipse fill="black" stroke="black" cx="151.47" cy="-40.31" rx="1.8" ry="1.8"/>
</g>
<!-- 2&#45;&#45;3 -->
<g id="edge1" class="edge">
<title>2&#45;&#45;3</title>
<path fill="none" stroke="black" stroke-width="0.75" d="M103.96,-3.08C111.42,-8.93 142.2,-33.05 149.78,-38.99"/>
</g>
<!-- 9 -->
<g id="node8" class="node">
<title>9</title>
<ellipse fill="black" stroke="black" cx="40.28" cy="-9.33" rx="1.8" ry="1.8"/>
</g>
<!-- 2&#45;&#45;9 -->
<g id="edge8" class="edge">
<title>2&#45;&#45;9</title>
<path fill="none" stroke="black" stroke-width="0.75" d="M100.26,-2.05C90.84,-3.19 51.98,-7.91 42.42,-9.07"/>
</g>
<!-- 4 -->
<g id="node3" class="node">
<title>4</title>
<ellipse fill="black" stroke="black" cx="159.07" cy="-102.25" rx="1.8" ry="1.8"/>
</g>
<!-- 3&#45;&#45;4 -->
<g id="edge2" class="edge">
<title>3&#45;&#45;4</title>
<path fill="none" stroke="black" stroke-width="0.75" d="M151.73,-42.38C152.88,-51.78 157.64,-90.56 158.81,-100.11"/>
</g>
<!-- 5 -->
<g id="node4" class="node">
<title>5</title>
<ellipse fill="black" stroke="black" cx="120.51" cy="-151.25" rx="1.8" ry="1.8"/>
</g>
<!-- 4&#45;&#45;5 -->
<g id="edge3" class="edge">
<title>4&#45;&#45;5</title>
<path fill="none" stroke="black" stroke-width="0.75" d="M157.79,-103.88C151.93,-111.32 127.78,-142 121.83,-149.56"/>
</g>
<!-- 6 -->
<g id="node5" class="node">
<title>6</title>
<ellipse fill="black" stroke="black" cx="58.64" cy="-159.07" rx="1.8" ry="1.8"/>
</g>
<!-- 5&#45;&#45;6 -->
<g id="edge4" class="edge">
<title>5&#45;&#45;6</title>
<path fill="none" stroke="black" stroke-width="0.75" d="M118.45,-151.51C109.05,-152.7 70.31,-157.6 60.77,-158.8"/>
</g>
<!-- 7 -->
<g id="node6" class="node">
<title>7</title>
<ellipse fill="black" stroke="black" cx="9.52" cy="-120.57" rx="1.8" ry="1.8"/>
</g>
<!-- 6&#45;&#45;7 -->
<g id="edge5" class="edge">
<title>6&#45;&#45;7</title>
<path fill="none" stroke="black" stroke-width="0.75" d="M57.01,-157.79C49.55,-151.95 18.78,-127.83 11.21,-121.89"/>
</g>
<!-- 8 -->
<g id="node7" class="node">
<title>8</title>
<ellipse fill="black" stroke="black" cx="1.8" cy="-58.58" rx="1.8" ry="1.8"/>
</g>
<!-- 7&#45;&#45;8 -->
<g id="edge6" class="edge">
<title>7&#45;&#45;8</title>
<path fill="none" stroke="black" stroke-width="0.75" d="M9.26,-118.51C8.09,-109.09 3.26,-70.27 2.07,-60.71"/>
</g>
<!-- 8&#45;&#45;9 -->
<g id="edge7" class="edge">
<title>8&#45;&#45;9</title>
<path fill="none" stroke="black" stroke-width="0.75" d="M3.08,-56.94C8.92,-49.46 33.02,-18.62 38.96,-11.02"/>
</g>
<!-- 1 -->
<g id="node9" class="node">
<title>1</title>
<ellipse fill="black" stroke="black" cx="80.41" cy="-80.33" rx="1.8" ry="1.8"/>
</g>
<!-- 1&#45;&#45;2 -->
<g id="edge9" class="edge">
<title>1&#45;&#45;2</title>
<path fill="none" stroke="black" stroke-width="0.75" d="M80.95,-78.39C83.95,-67.62 98.56,-15.28 101.72,-3.96"/>
</g>
<!-- 1&#45;&#45;3 -->
<g id="edge10" class="edge">
<title>1&#45;&#45;3</title>
<path fill="none" stroke="black" stroke-width="0.75" d="M82.16,-79.34C91.91,-73.85 139.27,-47.18 149.52,-41.42"/>
</g>
<!-- 1&#45;&#45;4 -->
<g id="edge11" class="edge">
<title>1&#45;&#45;4</title>
<path fill="none" stroke="black" stroke-width="0.75" d="M82.35,-80.87C93.14,-83.88 145.57,-98.48 156.9,-101.64"/>
</g>
<!-- 1&#45;&#45;5 -->
<g id="edge12" class="edge">
<title>1&#45;&#45;5</title>
<path fill="none" stroke="black" stroke-width="0.75" d="M81.4,-82.08C86.9,-91.81 113.62,-139.07 119.4,-149.29"/>
</g>
<!-- 1&#45;&#45;6 -->
<g id="edge13" class="edge">
<title>1&#45;&#45;6</title>
<path fill="none" stroke="black" stroke-width="0.75" d="M79.87,-82.28C76.88,-93.08 62.38,-145.56 59.24,-156.91"/>
</g>
<!-- 1&#45;&#45;7 -->
<g id="edge14" class="edge">
<title>1&#45;&#45;7</title>
<path fill="none" stroke="black" stroke-width="0.75" d="M78.65,-81.32C68.93,-86.84 21.69,-113.66 11.47,-119.46"/>
</g>
<!-- 1&#45;&#45;8 -->
<g id="edge15" class="edge">
<title>1&#45;&#45;8</title>
<path fill="none" stroke="black" stroke-width="0.75" d="M78.46,-79.79C67.68,-76.81 15.29,-62.31 3.96,-59.18"/>
</g>
<!-- 1&#45;&#45;9 -->
<g id="edge16" class="edge">
<title>1&#45;&#45;9</title>
<path fill="none" stroke="black" stroke-width="0.75" d="M79.42,-78.57C73.91,-68.84 47.17,-21.52 41.39,-11.28"/>
</g>
</g>
</svg>
