<svg xmlns="http://www.w3.org/2000/svg" width="161.8" height="100.0" viewBox="-4 -5 172 110">
<g fill="none" stroke="black" stroke-width="3.3800%" transform="translate(0, 100.5917) scale(0.1479, -0.1479)">
<circle cx="10" cy="2" r="3" />
<circle cx="19" cy="6" r="3" />
<circle cx="29" cy="4" r="3" />
<circle cx="38" cy="18" r="3" />
<circle cx="48" cy="6" r="3" />
<circle cx="58" cy="12" r="3" />
<circle cx="67" cy="30" r="3" />
<circle cx="77" cy="9" r="3" />
<circle cx="86" cy="48" r="3" />
<circle cx="96" cy="11" r="3" />
<circle cx="106" cy="60" r="3" />
<circle cx="115" cy="36" r="3" />
<circle cx="125" cy="14" r="3" />
<circle cx="134" cy="78" r="3" />
<circle cx="144" cy="16" r="3" />
<circle cx="154" cy="90" r="3" />
<circle cx="163" cy="18" r="3" />
<circle cx="173" cy="24" r="3" />
<circle cx="182" cy="102" r="3" />
<circle cx="192" cy="21" r="3" />
<circle cx="201" cy="120" r="3" />
<circle cx="211" cy="23" r="3" />
<circle cx="221" cy="132" r="3" />
<circle cx="230" cy="108" r="3" />
<circle cx="240" cy="26" r="3" />
<circle cx="249" cy="150" r="3" />
<circle cx="259" cy="28" r="3" />
<circle cx="269" cy="162" r="3" />
<circle cx="278" cy="30" r="3" />
<circle cx="288" cy="36" r="3" />
<circle cx="297" cy="174" r="3" />
<circle cx="307" cy="33" r="3" />
<circle cx="317" cy="192" r="3" />
<circle cx="326" cy="35" r="3" />
<circle cx="336" cy="204" r="3" />
<circle cx="345" cy="72" r="3" />
<circle cx="355" cy="38" r="3" />
<circle cx="365" cy="222" r="3" />
<circle cx="374" cy="40" r="3" />
<circle cx="384" cy="234" r="3" />
<circle cx="393" cy="42" r="3" />
<circle cx="403" cy="180" r="3" />
<circle cx="413" cy="246" r="3" />
<circle cx="422" cy="45" r="3" />
<circle cx="432" cy="264" r="3" />
<circle cx="441" cy="47" r="3" />
<circle cx="451" cy="276" r="3" />
<circle cx="461" cy="54" r="3" />
<circle cx="470" cy="50" r="3" />
<circle cx="480" cy="294" r="3" />
<circle cx="489" cy="52" r="3" />
<circle cx="499" cy="306" r="3" />
<circle cx="509" cy="54" r="3" />
<circle cx="518" cy="288" r="3" />
<circle cx="528" cy="318" r="3" />
<circle cx="537" cy="57" r="3" />
<circle cx="547" cy="336" r="3" />
<circle cx="556" cy="59" r="3" />
<circle cx="566" cy="348" r="3" />
<circle cx="576" cy="66" r="3" />
<circle cx="585" cy="62" r="3" />
<circle cx="595" cy="366" r="3" />
<circle cx="604" cy="64" r="3" />
<circle cx="614" cy="378" r="3" />
<circle cx="624" cy="66" r="3" />
<circle cx="633" cy="360" r="3" />
<circle cx="643" cy="390" r="3" />
<circle cx="652" cy="69" r="3" />
<circle cx="662" cy="408" r="3" />
<circle cx="672" cy="71" r="3" />
<circle cx="681" cy="420" r="3" />
<circle cx="691" cy="216" r="3" />
<circle cx="700" cy="74" r="3" />
<circle cx="710" cy="438" r="3" />
<circle cx="720" cy="76" r="3" />
<circle cx="729" cy="450" r="3" />
<circle cx="739" cy="78" r="3" />
<circle cx="748" cy="84" r="3" />
<circle cx="758" cy="462" r="3" />
<circle cx="768" cy="81" r="3" />
<circle cx="777" cy="480" r="3" />
<circle cx="787" cy="83" r="3" />
<circle cx="796" cy="492" r="3" />
<circle cx="806" cy="468" r="3" />
<circle cx="816" cy="86" r="3" />
<circle cx="825" cy="510" r="3" />
<circle cx="835" cy="88" r="3" />
<circle cx="844" cy="522" r="3" />
<circle cx="854" cy="90" r="3" />
<circle cx="864" cy="96" r="3" />
<circle cx="873" cy="534" r="3" />
<circle cx="883" cy="93" r="3" />
<circle cx="892" cy="552" r="3" />
<circle cx="902" cy="95" r="3" />
<circle cx="911" cy="564" r="3" />
<circle cx="921" cy="540" r="3" />
<circle cx="931" cy="98" r="3" />
<circle cx="940" cy="582" r="3" />
<circle cx="950" cy="100" r="3" />
<circle cx="959" cy="594" r="3" />
<circle cx="969" cy="102" r="3" />
<circle cx="979" cy="108" r="3" />
<circle cx="988" cy="606" r="3" />
<circle cx="998" cy="105" r="3" />
<circle cx="1007" cy="624" r="3" />
<circle cx="1017" cy="107" r="3" />
<circle cx="1027" cy="636" r="3" />
<circle cx="1036" cy="144" r="3" />
<circle cx="1046" cy="110" r="3" />
<circle cx="1055" cy="654" r="3" />
<circle cx="1065" cy="112" r="3" />
<circle cx="1075" cy="666" r="3" />
<circle cx="1084" cy="114" r="3" />
<circle cx="1094" cy="612" r="3" />
<circle cx="1103" cy="678" r="3" />
</g>
</svg>