<svg xmlns="http://www.w3.org/2000/svg" width="161.8" height="100.0" viewBox="-3.241 -5.000 171.803 110.000">
<g fill="none" stroke="black" stroke-width="0.0050%" transform="translate(0, 100.0000) scale(100.0000, -100.0000)">


<line x1="0.053" y1="0.000" x2="0.053" y2="1.000" />


<line x1="0.106" y1="0.000" x2="0.106" y2="1.000" />
<line x1="0.123" y1="0.000" x2="0.123" y2="1.000" />



<line x1="0.193" y1="0.000" x2="0.193" y2="1.000" />
<line x1="0.211" y1="0.000" x2="0.211" y2="1.000" />

<line x1="0.246" y1="0.000" x2="0.246" y2="1.000" />
<line x1="0.264" y1="0.000" x2="0.264" y2="1.000" />



<line x1="0.334" y1="0.000" x2="0.334" y2="1.000" />


<line x1="0.387" y1="0.000" x2="0.387" y2="1.000" />
<line x1="0.405" y1="0.000" x2="0.405" y2="1.000" />
<line x1="0.422" y1="0.000" x2="0.422" y2="1.000" />


<line x1="0.475" y1="0.000" x2="0.475" y2="1.000" />
<line x1="0.492" y1="0.000" x2="0.492" y2="1.000" />

<line x1="0.528" y1="0.000" x2="0.528" y2="1.000" />
<line x1="0.545" y1="0.000" x2="0.545" y2="1.000" />



<line x1="0.616" y1="0.000" x2="0.616" y2="1.000" />


<line x1="0.668" y1="0.000" x2="0.668" y2="1.000" />
<line x1="0.686" y1="0.000" x2="0.686" y2="1.000" />



<line x1="0.756" y1="0.000" x2="0.756" y2="1.000" />
<line x1="0.774" y1="0.000" x2="0.774" y2="1.000" />

<line x1="0.809" y1="0.000" x2="0.809" y2="1.000" />
<line x1="0.827" y1="0.000" x2="0.827" y2="1.000" />
<line x1="0.844" y1="0.000" x2="0.844" y2="1.000" />


<line x1="0.897" y1="0.000" x2="0.897" y2="1.000" />


<line x1="0.950" y1="0.000" x2="0.950" y2="1.000" />
<line x1="0.967" y1="0.000" x2="0.967" y2="1.000" />
<line x1="0.985" y1="0.000" x2="0.985" y2="1.000" />


<line x1="1.038" y1="0.000" x2="1.038" y2="1.000" />
<line x1="1.055" y1="0.000" x2="1.055" y2="1.000" />

<line x1="1.090" y1="0.000" x2="1.090" y2="1.000" />
<line x1="1.108" y1="0.000" x2="1.108" y2="1.000" />



<line x1="1.178" y1="0.000" x2="1.178" y2="1.000" />


<line x1="1.231" y1="0.000" x2="1.231" y2="1.000" />
<line x1="1.249" y1="0.000" x2="1.249" y2="1.000" />



<line x1="1.319" y1="0.000" x2="1.319" y2="1.000" />
<line x1="1.337" y1="0.000" x2="1.337" y2="1.000" />

<line x1="1.372" y1="0.000" x2="1.372" y2="1.000" />
<line x1="1.389" y1="0.000" x2="1.389" y2="1.000" />



<line x1="1.460" y1="0.000" x2="1.460" y2="1.000" />


<line x1="1.513" y1="0.000" x2="1.513" y2="1.000" />
<line x1="1.530" y1="0.000" x2="1.530" y2="1.000" />
<line x1="1.548" y1="0.000" x2="1.548" y2="1.000" />


<line x1="1.600" y1="0.000" x2="1.600" y2="1.000" />
<line x1="1.618" y1="0.000" x2="1.618" y2="1.000" />

</g>
</svg>