<svg xmlns="http://www.w3.org/2000/svg" width="161.8" height="100.0" viewBox="-3.37 -5.00 171.80 110.00">
<g fill="none" stroke="black" stroke-width="0.0200%" transform="translate(0, 100.0000) scale(25.0000, -25.0000)">

<line x1="0.13" y1="0.00" x2="0.13" y2="2.00" />
<line x1="0.20" y1="0.00" x2="0.20" y2="3.00" />
<line x1="0.26" y1="0.00" x2="0.26" y2="4.00" />

<line x1="0.39" y1="0.00" x2="0.39" y2="1.00" />
<line x1="0.46" y1="0.00" x2="0.46" y2="2.00" />
<line x1="0.52" y1="0.00" x2="0.52" y2="3.00" />

<line x1="0.65" y1="0.00" x2="0.65" y2="1.00" />
<line x1="0.72" y1="0.00" x2="0.72" y2="2.00" />
<line x1="0.78" y1="0.00" x2="0.78" y2="3.00" />
<line x1="0.85" y1="0.00" x2="0.85" y2="4.00" />

<line x1="0.98" y1="0.00" x2="0.98" y2="2.00" />
<line x1="1.05" y1="0.00" x2="1.05" y2="3.00" />

<line x1="1.18" y1="0.00" x2="1.18" y2="1.00" />
<line x1="1.24" y1="0.00" x2="1.24" y2="2.00" />

<line x1="1.37" y1="0.00" x2="1.37" y2="1.00" />
<line x1="1.44" y1="0.00" x2="1.44" y2="2.00" />
<line x1="1.50" y1="0.00" x2="1.50" y2="3.00" />

<line x1="1.63" y1="0.00" x2="1.63" y2="2.00" />
<line x1="1.70" y1="0.00" x2="1.70" y2="3.00" />

<line x1="1.83" y1="0.00" x2="1.83" y2="1.00" />
<line x1="1.90" y1="0.00" x2="1.90" y2="2.00" />

<line x1="2.03" y1="0.00" x2="2.03" y2="1.00" />
<line x1="2.09" y1="0.00" x2="2.09" y2="2.00" />
<line x1="2.16" y1="0.00" x2="2.16" y2="3.00" />

<line x1="2.29" y1="0.00" x2="2.29" y2="1.00" />
<line x1="2.35" y1="0.00" x2="2.35" y2="2.00" />
<line x1="2.42" y1="0.00" x2="2.42" y2="3.00" />
<line x1="2.48" y1="0.00" x2="2.48" y2="4.00" />

<line x1="2.62" y1="0.00" x2="2.62" y2="2.00" />
<line x1="2.68" y1="0.00" x2="2.68" y2="3.00" />
<line x1="2.75" y1="0.00" x2="2.75" y2="4.00" />

<line x1="2.88" y1="0.00" x2="2.88" y2="1.00" />
<line x1="2.94" y1="0.00" x2="2.94" y2="2.00" />
<line x1="3.01" y1="0.00" x2="3.01" y2="3.00" />

<line x1="3.14" y1="0.00" x2="3.14" y2="2.00" />
<line x1="3.20" y1="0.00" x2="3.20" y2="3.00" />

<line x1="3.33" y1="0.00" x2="3.33" y2="1.00" />
<line x1="3.40" y1="0.00" x2="3.40" y2="2.00" />

<line x1="3.53" y1="0.00" x2="3.53" y2="2.00" />
<line x1="3.60" y1="0.00" x2="3.60" y2="3.00" />

<line x1="3.73" y1="0.00" x2="3.73" y2="1.00" />
<line x1="3.79" y1="0.00" x2="3.79" y2="2.00" />

<line x1="3.92" y1="0.00" x2="3.92" y2="1.00" />
<line x1="3.99" y1="0.00" x2="3.99" y2="2.00" />
<line x1="4.05" y1="0.00" x2="4.05" y2="3.00" />

<line x1="4.18" y1="0.00" x2="4.18" y2="2.00" />
<line x1="4.25" y1="0.00" x2="4.25" y2="3.00" />
<line x1="4.31" y1="0.00" x2="4.31" y2="4.00" />

<line x1="4.45" y1="0.00" x2="4.45" y2="1.00" />
<line x1="4.51" y1="0.00" x2="4.51" y2="2.00" />
<line x1="4.58" y1="0.00" x2="4.58" y2="3.00" />

<line x1="4.71" y1="0.00" x2="4.71" y2="2.00" />
<line x1="4.77" y1="0.00" x2="4.77" y2="3.00" />

<line x1="4.90" y1="0.00" x2="4.90" y2="1.00" />
<line x1="4.97" y1="0.00" x2="4.97" y2="2.00" />

<line x1="5.10" y1="0.00" x2="5.10" y2="2.00" />
<line x1="5.16" y1="0.00" x2="5.16" y2="3.00" />

<line x1="5.30" y1="0.00" x2="5.30" y2="1.00" />
<line x1="5.36" y1="0.00" x2="5.36" y2="2.00" />

<line x1="5.49" y1="0.00" x2="5.49" y2="1.00" />
<line x1="5.56" y1="0.00" x2="5.56" y2="2.00" />
<line x1="5.62" y1="0.00" x2="5.62" y2="3.00" />

<line x1="5.75" y1="0.00" x2="5.75" y2="2.00" />
<line x1="5.82" y1="0.00" x2="5.82" y2="3.00" />

<line x1="5.95" y1="0.00" x2="5.95" y2="1.00" />
<line x1="6.01" y1="0.00" x2="6.01" y2="2.00" />

<line x1="6.15" y1="0.00" x2="6.15" y2="1.00" />
<line x1="6.21" y1="0.00" x2="6.21" y2="2.00" />
<line x1="6.28" y1="0.00" x2="6.28" y2="3.00" />

<line x1="6.41" y1="0.00" x2="6.41" y2="1.00" />
<line x1="6.47" y1="0.00" x2="6.47" y2="2.00" />
<line x1="6.54" y1="0.00" x2="6.54" y2="3.00" />
</g>
</svg>