<svg xmlns="http://www.w3.org/2000/svg" width="83.5" height="100.0" viewBox="-22.6 -69.5 93.5 110.0">
<g fill="none" stroke="black" stroke-width="0.1799%" transform="translate(0, -29.0343) scale(2.7795, -2.7795)">
<polyline points="-1.5,0.8 -3.1,3.5 -0.9,4.4 -1.3,4.5 -1.3,5.0 -0.4,6.6 -0.0,6.1 -1.8,6.4 -1.8,6.2 -3.4,7.1 -3.4,7.8 -3.4,6.3 -4.9,7.0 -3.9,6.2 -4.4,7.1 -4.7,8.4 -4.9,9.9 -4.0,11.2 -4.0,12.8 -3.8,11.4 -2.5,10.0 -1.1,8.0 -1.3,7.9 0.4,7.2 1.6,4.5 1.2,4.0 3.0,4.3 2.8,4.2 2.2,5.6 -0.1,3.3 -2.0,2.6 -2.3,2.8 -3.1,1.7 -3.9,3.5 -3.0,3.1 -3.9,3.4 -3.4,4.4 -4.3,5.4 -4.4,3.6 -1.1,2.7 -2.1,3.1 -2.7,2.7 -2.6,1.9 -2.7,2.9 -2.5,3.4 -3.5,3.1 -4.8,3.8 -5.9,3.4 -5.3,2.9 -5.2,5.0 -6.3,4.6 -6.0,6.3 -4.3,7.1 -3.6,8.5 -2.9,8.7 -2.4,7.8 -2.5,10.7 -2.5,10.0 -3.1,10.4 -4.6,9.2 -5.6,8.4 -4.3,7.6 -3.9,6.9 -3.8,5.2 -3.8,4.3 -0.8,2.6 1.9,1.0 -0.3,1.9 -0.1,2.1 0.5,1.7 0.6,0.0 -0.7,-0.2 0.0,-0.1 0.3,-0.7 0.6,-1.0 0.3,-0.2 1.4,-2.1 2.7,-2.0 4.3,-1.8 3.2,-2.0 4.6,-2.0 3.6,-3.1 5.0,-3.3 5.4,-2.6 4.2,-0.9 5.6,-1.4 5.9,-1.9 7.5,-1.8 7.9,-2.2 7.2,-3.3 8.0,-3.5 8.5,-2.2 8.2,-1.2 8.6,-2.5 10.3,-2.4 13.1,-2.1 15.6,-3.2 15.8,-4.0 15.5,-5.4 14.7,-4.6 15.5,-3.7 16.1,-4.5 16.2,-3.9 17.6,-2.9 19.4,-4.5 17.7,-4.0 18.9,-3.3 17.9,-4.6 17.2,-6.6 15.8,-7.7 14.4,-6.7 13.3,-7.3 12.5,-7.4 14.3,-7.0 15.1,-6.4 16.6,-6.0 17.6,-5.9 18.0,-4.5 18.5,-3.5 20.6,-3.8 19.8,-4.1 20.1,-2.9 19.2,-3.4 18.7,-4.0 20.0,-5.1 21.1,-5.5 20.8,-5.1 20.6,-5.2 22.8,-6.4 22.2,-6.4 22.6,-5.3 23.6,-6.2 23.7,-6.9 21.3,-7.8 20.4,-7.4 20.0,-10.3 19.5,-9.9 19.4,-8.5 20.9,-8.6 19.9,-9.0 19.3,-9.2 18.1,-8.2 18.4,-9.3 17.2,-8.9 18.8,-9.8 19.3,-10.9 19.8,-12.2 17.5,-13.9 18.3,-14.6 16.8,-14.5 16.7,-15.5 14.8,-14.2 15.0,-11.8 15.5,-11.7 14.2,-11.3 14.9,-11.0 15.2,-11.8 14.0,-10.8 12.8,-10.8 14.4,-13.7 14.0,-12.9 13.4,-13.4 10.5,-15.2 11.1,-14.2 12.2,-16.1 12.5,-15.6 11.9,-15.3 12.2,-15.8 13.7,-16.3 13.7,-18.5 12.6,-18.0 12.2,-18.8 11.8,-19.6 10.5,-20.3 11.9,-20.9 12.9,-21.5 10.5,-21.1 11.0,-21.8 11.6,-21.5 10.0,-23.2 9.3,-21.4 10.3,-20.7 11.9,-21.0 10.2,-21.1 9.6,-21.4 9.6,-21.3 7.8,-19.6 6.6,-17.1 6.4,-16.7 7.4,-17.7 7.4,-15.4 7.9,-16.4 7.8,-16.4 8.2,-16.5 8.1,-16.2 6.8,-16.9 8.1,-15.4 10.0,-13.6 11.4,-13.2 11.9,-11.9 13.8,-11.6" />
</g>
</svg>