<svg xmlns="http://www.w3.org/2000/svg" width="161.8" height="100.0" viewBox="-5.000 -31.162 171.803 110.000">
<g fill="none" stroke="black" stroke-width="0.0080%" transform="translate(0, 47.6769) scale(62.8491, -62.8491)">
<circle cx="0.000" cy="0.000" r="0.008" />
<circle cx="0.000" cy="1.175" r="0.008" />
<polyline points="0.000,0.000 0.026,-0.053 0.051,-0.132 0.077,-0.011 0.103,-0.031 0.129,-0.000 0.154,0.028 0.180,0.050 0.206,-0.016 0.232,-0.036 0.257,-0.076 0.283,-0.069 0.309,-0.073 0.335,-0.178 0.360,-0.124 0.386,-0.201 0.412,-0.220 0.438,-0.236 0.463,-0.228 0.489,-0.262 0.515,-0.260 0.541,-0.207 0.566,-0.130 0.592,-0.102 0.618,-0.059 0.644,-0.003 0.669,-0.004 0.695,0.078 0.721,0.047 0.747,0.035 0.772,-0.025 0.798,-0.113 0.824,-0.136 0.850,-0.186 0.875,-0.231 0.901,-0.195 0.927,-0.250 0.953,-0.231 0.978,-0.292 1.004,-0.287 1.030,-0.143 1.056,-0.183 1.081,-0.207 1.107,-0.213 1.133,-0.225 1.159,-0.216 1.184,-0.251 1.210,-0.310 1.236,-0.352 1.261,-0.304 1.287,-0.343 1.313,-0.383 1.339,-0.416 1.364,-0.343 1.390,-0.336 1.416,-0.293 1.442,-0.233 1.467,-0.245 1.493,-0.231 1.519,-0.257 1.545,-0.302 1.570,-0.318 1.596,-0.263 1.622,-0.236 1.648,-0.225 1.673,-0.207 1.699,-0.067 1.725,0.034 1.751,-0.053 1.776,-0.080 1.802,-0.062 1.828,-0.053 1.854,-0.097 1.879,-0.064 1.905,-0.085 1.931,-0.058 1.957,-0.049 1.982,-0.040 2.008,-0.002 2.034,0.067 2.060,0.005 2.085,0.054 2.111,0.036 2.137,0.100 2.163,0.111 2.188,0.072 2.214,0.134 2.240,0.168 2.266,0.248 2.291,0.240 2.317,0.244 2.343,0.275 2.369,0.272 2.394,0.278 2.420,0.316 2.446,0.399 2.471,0.537 2.497,0.632 2.523,0.640 2.549,0.661 2.574,0.601" />
<polyline points="0.000,0.000 0.026,0.020 0.051,0.057 0.077,0.063 0.103,0.112 0.129,0.171 0.154,0.126 0.180,0.131 0.206,0.121 0.232,0.117 0.257,0.037 0.283,-0.006 0.309,-0.006 0.335,-0.052 0.360,0.010 0.386,0.050 0.412,0.123 0.438,0.185 0.463,0.198 0.489,0.189 0.515,0.295 0.541,0.256 0.566,0.271 0.592,0.250 0.618,0.249 0.644,0.310 0.669,0.355 0.695,0.377 0.721,0.385 0.747,0.488 0.772,0.435 0.798,0.447 0.824,0.482 0.850,0.501 0.875,0.393 0.901,0.358 0.927,0.363 0.953,0.365 0.978,0.327 1.004,0.403 1.030,0.363 1.056,0.345 1.081,0.280 1.107,0.333 1.133,0.263 1.159,0.321 1.184,0.360 1.210,0.422 1.236,0.349 1.261,0.380 1.287,0.342 1.313,0.329 1.339,0.255 1.364,0.233 1.390,0.232 1.416,0.156 1.442,0.184 1.467,0.196 1.493,0.155 1.519,0.095 1.545,0.155 1.570,0.115 1.596,0.117 1.622,-0.030 1.648,0.016 1.673,0.082 1.699,0.080 1.725,0.058 1.751,0.127 1.776,0.231 1.802,0.252 1.828,0.217 1.854,0.196 1.879,0.200 1.905,0.103 1.931,0.185 1.957,0.239 1.982,0.139 2.008,0.163 2.034,0.173 2.060,0.112 2.085,0.109 2.111,0.143 2.137,0.211 2.163,0.162 2.188,0.169 2.214,0.197 2.240,0.094 2.266,0.052 2.291,0.060 2.317,0.129 2.343,0.122 2.369,0.176 2.394,0.167 2.420,0.190 2.446,0.195 2.471,0.110 2.497,0.131 2.523,0.217 2.549,0.294 2.574,0.292" />
<polyline points="0.000,0.000 0.026,0.067 0.051,0.123 0.077,0.121 0.103,0.144 0.129,0.146 0.154,0.219 0.180,0.173 0.206,0.186 0.232,0.241 0.257,0.194 0.283,0.290 0.309,0.302 0.335,0.286 0.360,0.219 0.386,0.232 0.412,0.110 0.438,0.097 0.463,0.084 0.489,-0.001 0.515,-0.070 0.541,-0.095 0.566,-0.120 0.592,-0.108 0.618,-0.020 0.644,-0.115 0.669,-0.120 0.695,-0.076 0.721,-0.101 0.747,-0.151 0.772,-0.105 0.798,0.017 0.824,0.039 0.850,0.025 0.875,-0.001 0.901,-0.018 0.927,-0.041 0.953,-0.061 0.978,-0.074 1.004,-0.106 1.030,-0.090 1.056,-0.140 1.081,-0.109 1.107,-0.094 1.133,-0.123 1.159,-0.147 1.184,-0.149 1.210,-0.109 1.236,-0.097 1.261,-0.068 1.287,-0.021 1.313,-0.119 1.339,-0.084 1.364,-0.199 1.390,-0.233 1.416,-0.293 1.442,-0.279 1.467,-0.188 1.493,-0.204 1.519,-0.173 1.545,-0.166 1.570,-0.096 1.596,-0.020 1.622,-0.043 1.648,-0.024 1.673,-0.018 1.699,0.023 1.725,0.001 1.751,-0.068 1.776,-0.025 1.802,-0.101 1.828,-0.133 1.854,-0.130 1.879,-0.080 1.905,-0.085 1.931,-0.169 1.957,-0.140 1.982,-0.081 2.008,-0.190 2.034,-0.246 2.060,-0.275 2.085,-0.294 2.111,-0.342 2.137,-0.267 2.163,-0.286 2.188,-0.303 2.214,-0.252 2.240,-0.271 2.266,-0.230 2.291,-0.228 2.317,-0.285 2.343,-0.196 2.369,-0.223 2.394,-0.282 2.420,-0.236 2.446,-0.193 2.471,-0.202 2.497,-0.204 2.523,-0.275 2.549,-0.281 2.574,-0.203" />
<polyline points="0.000,0.000 0.026,-0.038 0.051,-0.090 0.077,-0.071 0.103,-0.069 0.129,-0.118 0.154,-0.183 0.180,-0.097 0.206,-0.220 0.232,-0.128 0.257,-0.058 0.283,-0.081 0.309,-0.022 0.335,0.105 0.360,0.088 0.386,0.026 0.412,0.025 0.438,0.024 0.463,0.052 0.489,0.036 0.515,-0.045 0.541,-0.041 0.566,-0.035 0.592,-0.040 0.618,0.017 0.644,0.075 0.669,0.067 0.695,0.043 0.721,0.130 0.747,0.174 0.772,0.150 0.798,0.104 0.824,0.077 0.850,0.048 0.875,0.079 0.901,0.107 0.927,0.129 0.953,0.191 0.978,0.246 1.004,0.176 1.030,0.173 1.056,0.199 1.081,0.226 1.107,0.216 1.133,0.303 1.159,0.277 1.184,0.223 1.210,0.260 1.236,0.344 1.261,0.440 1.287,0.424 1.313,0.503 1.339,0.494 1.364,0.531 1.390,0.459 1.416,0.404 1.442,0.372 1.467,0.357 1.493,0.356 1.519,0.403 1.545,0.394 1.570,0.357 1.596,0.308 1.622,0.374 1.648,0.379 1.673,0.407 1.699,0.436 1.725,0.405 1.751,0.420 1.776,0.541 1.802,0.614 1.828,0.660 1.854,0.702 1.879,0.708 1.905,0.758 1.931,0.684 1.957,0.707 1.982,0.720 2.008,0.766 2.034,0.758 2.060,0.722 2.085,0.761 2.111,0.833 2.137,0.797 2.163,0.773 2.188,0.850 2.214,0.935 2.240,0.998 2.266,0.977 2.291,1.017 2.317,1.053 2.343,1.103 2.369,1.089 2.394,1.155 2.420,1.145 2.446,1.148 2.471,1.175 2.497,1.129 2.523,1.022 2.549,1.007 2.574,1.020" />
</g>
</svg>