<svg xmlns="http://www.w3.org/2000/svg" width="161.8" height="100.0" viewBox="-5.000 -81.780 171.803 110.000">
<g fill="none" stroke="black" stroke-width="0.0043%" transform="translate(0, -53.5605) scale(115.2966, -115.2966)">
<polyline points="0.000,0.000 0.014,0.052 0.028,0.121 0.042,0.161 0.056,0.183 0.070,0.156 0.084,0.184 0.098,0.196 0.112,0.191 0.126,0.199 0.140,0.201 0.154,0.115 0.168,0.066 0.182,0.085 0.196,0.043 0.211,-0.005 0.225,-0.076 0.239,-0.103 0.253,-0.092 0.267,-0.035 0.281,0.007 0.295,-0.014 0.309,0.063 0.323,0.019 0.337,0.011 0.351,-0.061 0.365,-0.050 0.379,-0.144 0.393,-0.241 0.407,-0.267 0.421,-0.220 0.435,-0.190 0.449,-0.201 0.463,-0.240 0.477,-0.148 0.491,-0.081 0.505,-0.068 0.519,-0.119 0.533,-0.072 0.547,0.005 0.561,0.075 0.575,0.031 0.589,-0.020 0.603,-0.071 0.617,-0.048 0.632,-0.051 0.646,-0.112 0.660,-0.091 0.674,-0.093 0.688,-0.146 0.702,-0.170 0.716,-0.251 0.730,-0.182 0.744,-0.170 0.758,-0.219 0.772,-0.198 0.786,-0.180 0.800,-0.288 0.814,-0.313 0.828,-0.327 0.842,-0.313 0.856,-0.288 0.870,-0.275 0.884,-0.229 0.898,-0.225 0.912,-0.236 0.926,-0.240 0.940,-0.260 0.954,-0.287 0.968,-0.313 0.982,-0.367 0.996,-0.381 1.010,-0.461 1.024,-0.446 1.038,-0.535 1.053,-0.557 1.067,-0.615 1.081,-0.666 1.095,-0.645 1.109,-0.636 1.123,-0.599 1.137,-0.657 1.151,-0.659 1.165,-0.647 1.179,-0.605 1.193,-0.524 1.207,-0.596 1.221,-0.527 1.235,-0.519 1.249,-0.576 1.263,-0.514 1.277,-0.561 1.291,-0.522 1.305,-0.492 1.319,-0.537 1.333,-0.564 1.347,-0.537 1.361,-0.560 1.375,-0.493 1.389,-0.487 1.403,-0.433" />
</g>
</svg>