<svg xmlns="http://www.w3.org/2000/svg" width="161.8" height="100.0" viewBox="-5.00 -81.78 171.80 110.00">
<g fill="none" stroke="black" stroke-width="0.0434%" transform="translate(0, -53.5605) scale(11.5297, -11.5297)">
<circle cx="0.00" cy="0.00" r="0.04" />
<circle cx="0.00" cy="2.01" r="0.04" />
<polyline points="0.00,0.52 0.14,1.21 0.28,1.61 0.42,1.83 0.56,1.56 0.70,1.84 0.84,1.96 0.98,1.91 1.12,1.99 1.26,2.01 1.40,1.15 1.54,0.66 1.68,0.85 1.82,0.43 1.96,-0.05 2.11,-0.76 2.25,-1.03 2.39,-0.92 2.53,-0.35 2.67,0.07 2.81,-0.14 2.95,0.63 3.09,0.19 3.23,0.11 3.37,-0.61 3.51,-0.50 3.65,-1.44 3.79,-2.41 3.93,-2.67 4.07,-2.20 4.21,-1.90 4.35,-2.01 4.49,-2.40 4.63,-1.48 4.77,-0.81 4.91,-0.68 5.05,-1.19 5.19,-0.72 5.33,0.05 5.47,0.75 5.61,0.31 5.75,-0.20 5.89,-0.71 6.03,-0.48 6.17,-0.51 6.32,-1.12 6.46,-0.91 6.60,-0.93 6.74,-1.46 6.88,-1.70 7.02,-2.51 7.16,-1.82 7.30,-1.70 7.44,-2.19 7.58,-1.98 7.72,-1.80 7.86,-2.88 8.00,-3.13 8.14,-3.27 8.28,-3.13 8.42,-2.88 8.56,-2.75 8.70,-2.29 8.84,-2.25 8.98,-2.36 9.12,-2.40 9.26,-2.60 9.40,-2.87 9.54,-3.13 9.68,-3.67 9.82,-3.81 9.96,-4.61 10.10,-4.46 10.24,-5.35 10.38,-5.57 10.53,-6.15 10.67,-6.66 10.81,-6.45 10.95,-6.36 11.09,-5.99 11.23,-6.57 11.37,-6.59 11.51,-6.47 11.65,-6.05 11.79,-5.24 11.93,-5.96 12.07,-5.27 12.21,-5.19 12.35,-5.76 12.49,-5.14 12.63,-5.61 12.77,-5.22 12.91,-4.92 13.05,-5.37 13.19,-5.64 13.33,-5.37 13.47,-5.60 13.61,-4.93 13.75,-4.87 13.89,-4.33 14.03,-4.71" />
</g>
</svg>