<svg xmlns="http://www.w3.org/2000/svg" width="161.8" height="100.0" viewBox="-85.902 20.000 171.803 110.000">
<g fill="none" stroke="black" stroke-width="0.0080%" transform="translate(0, 150.0000) scale(62.5000, -62.5000)">
<polyline points="-1.294,0.400 -1.269,0.413 -1.243,0.427 -1.217,0.441 -1.191,0.456 -1.165,0.472 -1.139,0.488 -1.113,0.505 -1.087,0.523 -1.061,0.542 -1.036,0.562 -1.010,0.582 -0.984,0.604 -0.958,0.627 -0.932,0.651 -0.906,0.676 -0.880,0.702 -0.854,0.729 -0.828,0.758 -0.803,0.788 -0.777,0.820 -0.751,0.853 -0.725,0.887 -0.699,0.923 -0.673,0.961 -0.647,1.000 -0.621,1.041 -0.595,1.083 -0.570,1.127 -0.544,1.173 -0.518,1.220 -0.492,1.268 -0.466,1.317 -0.440,1.368 -0.414,1.419 -0.388,1.471 -0.362,1.523 -0.337,1.574 -0.311,1.625 -0.285,1.676 -0.259,1.724 -0.233,1.771 -0.207,1.814 -0.181,1.855 -0.155,1.891 -0.129,1.923 -0.104,1.950 -0.078,1.972 -0.052,1.987 -0.026,1.997 0.000,2.000 0.026,1.997 0.052,1.987 0.078,1.972 0.104,1.950 0.129,1.923 0.155,1.891 0.181,1.855 0.207,1.814 0.233,1.771 0.259,1.724 0.285,1.676 0.311,1.625 0.337,1.574 0.362,1.523 0.388,1.471 0.414,1.419 0.440,1.368 0.466,1.317 0.492,1.268 0.518,1.220 0.544,1.173 0.570,1.127 0.595,1.083 0.621,1.041 0.647,1.000 0.673,0.961 0.699,0.923 0.725,0.887 0.751,0.853 0.777,0.820 0.803,0.788 0.828,0.758 0.854,0.729 0.880,0.702 0.906,0.676 0.932,0.651 0.958,0.627 0.984,0.604 1.010,0.582 1.036,0.562 1.061,0.542 1.087,0.523 1.113,0.505 1.139,0.488 1.165,0.472 1.191,0.456 1.217,0.441 1.243,0.427 1.269,0.413 1.294,0.400" />
</g>
</svg>