<svg xmlns="http://www.w3.org/2000/svg" width="100.0" height="100.0" viewBox="-55.00 -55.00 110.00 110.00">
<g fill="none" stroke="black" stroke-width="0.0800%" transform="translate(0, 0.0000) scale(6.2500, -6.2500)">
<circle cx="0.00" cy="1.00" r="1.00" />
<polyline points="-8.00,0.12 -7.84,0.12 -7.68,0.13 -7.52,0.13 -7.36,0.14 -7.20,0.14 -7.04,0.15 -6.88,0.16 -6.72,0.16 -6.56,0.17 -6.40,0.18 -6.24,0.19 -6.08,0.20 -5.92,0.20 -5.76,0.22 -5.60,0.23 -5.44,0.24 -5.28,0.25 -5.12,0.26 -4.96,0.28 -4.80,0.30 -4.64,0.31 -4.48,0.33 -4.32,0.35 -4.16,0.38 -4.00,0.40 -3.84,0.43 -3.68,0.46 -3.52,0.49 -3.36,0.52 -3.20,0.56 -3.04,0.60 -2.88,0.65 -2.72,0.70 -2.56,0.76 -2.40,0.82 -2.24,0.89 -2.08,0.96 -1.92,1.04 -1.76,1.13 -1.60,1.22 -1.44,1.32 -1.28,1.42 -1.12,1.52 -0.96,1.63 -0.80,1.72 -0.64,1.81 -0.48,1.89 -0.32,1.95 -0.16,1.99 0.00,2.00 0.16,1.99 0.32,1.95 0.48,1.89 0.64,1.81 0.80,1.72 0.96,1.63 1.12,1.52 1.28,1.42 1.44,1.32 1.60,1.22 1.76,1.13 1.92,1.04 2.08,0.96 2.24,0.89 2.40,0.82 2.56,0.76 2.72,0.70 2.88,0.65 3.04,0.60 3.20,0.56 3.36,0.52 3.52,0.49 3.68,0.46 3.84,0.43 4.00,0.40 4.16,0.38 4.32,0.35 4.48,0.33 4.64,0.31 4.80,0.30 4.96,0.28 5.12,0.26 5.28,0.25 5.44,0.24 5.60,0.23 5.76,0.22 5.92,0.20 6.08,0.20 6.24,0.19 6.40,0.18 6.56,0.17 6.72,0.16 6.88,0.16 7.04,0.15 7.20,0.14 7.36,0.14 7.52,0.13 7.68,0.13 7.84,0.12 8.00,0.12" />
<rect x="-8.00" y="-8.00" width="16.00" height="16.00" />
</g>
</svg>