<svg xmlns="http://www.w3.org/2000/svg" width="161.8" height="100.0" viewBox="-2.55 9.29 171.80 110.00">
<g fill="none" stroke="black" stroke-width="0.0350%" transform="translate(0, 128.5714) scale(14.2857, -14.2857)">
<polyline points="0.17,1.00 0.34,1.00 0.34,1.00 0.51,1.00 0.51,2.00 0.69,2.00 0.69,6.00 0.86,6.00 0.86,4.00 1.03,4.00 1.03,2.00 1.20,2.00 1.20,2.00 1.37,2.00 1.37,4.00 1.54,4.00 1.54,2.00 1.72,2.00 1.72,8.00 1.89,8.00 1.89,8.00 2.06,8.00 2.06,8.00 2.23,8.00 2.23,6.00 2.40,6.00 2.40,8.00 2.57,8.00 2.57,2.00 2.75,2.00 2.75,8.00 2.92,8.00 2.92,8.00 3.09,8.00 3.09,6.00 3.26,6.00 3.26,8.00 3.43,8.00 3.43,2.00 3.60,2.00 3.60,4.00 3.78,4.00 3.78,4.00 3.95,4.00 3.95,8.00 4.12,8.00 4.12,4.00 4.29,4.00 4.29,6.00 4.46,6.00 4.46,4.00 4.63,4.00 4.63,4.00 4.81,4.00 4.81,8.00 4.98,8.00 4.98,4.00 5.15,4.00 5.15,6.00 5.32,6.00 5.32,8.00 5.49,8.00 5.49,8.00 5.66,8.00 5.66,6.00 5.83,6.00 5.83,8.00 6.01,8.00 6.01,2.00 6.18,2.00 6.18,2.00 6.35,2.00 6.35,2.00 6.52,2.00 6.52,4.00 6.69,4.00 6.69,2.00 6.86,2.00 6.86,8.00 7.04,8.00 7.04,2.00 7.21,2.00 7.21,2.00 7.38,2.00 7.38,4.00 7.55,4.00 7.55,2.00 7.72,2.00 7.72,8.00 7.89,8.00 7.89,6.00 8.07,6.00 8.07,6.00 8.24,6.00 8.24,2.00 8.41,2.00 8.41,6.00 8.58,6.00 8.58,4.00 8.75,4.00 8.75,2.00 8.92,2.00 8.92,2.00 9.10,2.00 9.10,4.00 9.27,4.00 9.27,2.00 9.44,2.00 9.44,8.00 9.61,8.00 9.61,4.00 9.78,4.00 9.78,4.00 9.95,4.00 9.95,8.00 10.12,8.00 10.12,4.00 10.30,4.00 10.30,6.00 10.47,6.00 10.47,6.00 10.64,6.00 10.64,6.00 10.81,6.00 10.81,2.00 10.98,2.00 10.98,6.00 11.15,6.00 11.15,4.00 11.33,4.00 11.33,6.00 11.50,6.00" />
</g>
</svg>