<svg xmlns="http://www.w3.org/2000/svg" width="161.8" height="100.0" viewBox="-5.000 -56.020 171.803 110.000">
<g fill="none" stroke="black" stroke-width="0.0098%" transform="translate(0, -2.0408) scale(51.0204, -51.0204)">
<circle cx="0.000" cy="0.000" r="0.010" />
<circle cx="0.000" cy="0.960" r="0.010" />
<polyline points="0.000,0.000 0.032,0.040 0.063,0.080 0.095,0.120 0.127,0.160 0.159,0.200 0.190,0.240 0.222,0.280 0.254,0.320 0.285,0.360 0.317,0.400 0.349,0.440 0.381,0.480 0.412,0.520 0.444,0.560 0.476,0.600 0.507,0.640 0.539,0.680 0.571,0.720 0.603,0.760 0.634,0.800 0.666,0.840 0.698,0.880 0.729,0.920 0.761,0.960 0.793,-1.000 0.825,-0.960 0.856,-0.920 0.888,-0.880 0.920,-0.840 0.951,-0.800 0.983,-0.760 1.015,-0.720 1.047,-0.680 1.078,-0.640 1.110,-0.600 1.142,-0.560 1.173,-0.520 1.205,-0.480 1.237,-0.440 1.269,-0.400 1.300,-0.360 1.332,-0.320 1.364,-0.280 1.395,-0.240 1.427,-0.200 1.459,-0.160 1.491,-0.120 1.522,-0.080 1.554,-0.040 1.586,0.000 1.617,0.040 1.649,0.080 1.681,0.120 1.713,0.160 1.744,0.200 1.776,0.240 1.808,0.280 1.839,0.320 1.871,0.360 1.903,0.400 1.935,0.440 1.966,0.480 1.998,0.520 2.030,0.560 2.061,0.600 2.093,0.640 2.125,0.680 2.157,0.720 2.188,0.760 2.220,0.800 2.252,0.840 2.283,0.880 2.315,0.920 2.347,0.960 2.379,-1.000 2.410,-0.960 2.442,-0.920 2.474,-0.880 2.505,-0.840 2.537,-0.800 2.569,-0.760 2.601,-0.720 2.632,-0.680 2.664,-0.640 2.696,-0.600 2.727,-0.560 2.759,-0.520 2.791,-0.480 2.822,-0.440 2.854,-0.400 2.886,-0.360 2.918,-0.320 2.949,-0.280 2.981,-0.240 3.013,-0.200 3.044,-0.160 3.076,-0.120 3.108,-0.080 3.140,-0.040 3.171,0.000" />
</g>
</svg>