<svg xmlns="http://www.w3.org/2000/svg" width="100.0" height="100.0" viewBox="-55.0 -55.0 110.0 110.0">
<g fill="none" stroke="black" stroke-width="1.0000%" transform="translate(0, 0.0000) scale(0.5000, -0.5000)">
<circle cx="0.0" cy="0.0" r="100.0" />
<g x="63.0" y="37.0" transform="translate(63.0, 37.0) scale(1, -1)">
<text fill="black" stroke="none">α</text>
</g>
<g x="15.0" y="65.0" transform="translate(15.0, 65.0) scale(1, -1)">
<text fill="black" stroke="none">β</text>
</g>
<g x="-70.0" y="21.0" transform="translate(-70.0, 21.0) scale(1, -1)">
<text fill="black" stroke="none">γ</text>
</g>
<g x="50.0" y="35.0" transform="translate(50.0, 35.0) scale(1, -1)">
<text fill="black" stroke="none">δ</text>
</g>
<g x="47.0" y="-18.0" transform="translate(47.0, -18.0) scale(1, -1)">
<text fill="black" stroke="none">ε</text>
</g>
<g x="50.0" y="56.0" transform="translate(50.0, 56.0) scale(1, -1)">
<text fill="black" stroke="none">ζ</text>
</g>
<g x="48.0" y="70.0" transform="translate(48.0, 70.0) scale(1, -1)">
<text fill="black" stroke="none">η</text>
</g>
<g x="-20.0" y="-30.0" transform="translate(-20.0, -30.0) scale(1, -1)">
<text fill="black" stroke="none">θ</text>
</g>
<g x="-49.0" y="-53.0" transform="translate(-49.0, -53.0) scale(1, -1)">
<text fill="black" stroke="none">ι</text>
</g>
<g x="59.0" y="31.0" transform="translate(59.0, 31.0) scale(1, -1)">
<text fill="black" stroke="none">κ</text>
</g>
<g x="-36.0" y="63.0" transform="translate(-36.0, 63.0) scale(1, -1)">
<text fill="black" stroke="none">λ</text>
</g>
<g x="-54.0" y="37.0" transform="translate(-54.0, 37.0) scale(1, -1)">
<text fill="black" stroke="none">μ</text>
</g>
<g x="-41.0" y="-19.0" transform="translate(-41.0, -19.0) scale(1, -1)">
<text fill="black" stroke="none">ν</text>
</g>
<g x="13.0" y="-70.0" transform="translate(13.0, -70.0) scale(1, -1)">
<text fill="black" stroke="none">ξ</text>
</g>
<g x="-32.0" y="-43.0" transform="translate(-32.0, -43.0) scale(1, -1)">
<text fill="black" stroke="none">ο</text>
</g>
<g x="54.0" y="12.0" transform="translate(54.0, 12.0) scale(1, -1)">
<text fill="black" stroke="none">π</text>
</g>
<g x="-8.0" y="-23.0" transform="translate(-8.0, -23.0) scale(1, -1)">
<text fill="black" stroke="none">ρ</text>
</g>
<g x="-45.0" y="-40.0" transform="translate(-45.0, -40.0) scale(1, -1)">
<text fill="black" stroke="none">σ</text>
</g>
<g x="7.0" y="43.0" transform="translate(7.0, 43.0) scale(1, -1)">
<text fill="black" stroke="none">τ</text>
</g>
<g x="-28.0" y="-62.0" transform="translate(-28.0, -62.0) scale(1, -1)">
<text fill="black" stroke="none">υ</text>
</g>
<g x="68.0" y="14.0" transform="translate(68.0, 14.0) scale(1, -1)">
<text fill="black" stroke="none">φ</text>
</g>
<g x="-59.0" y="-55.0" transform="translate(-59.0, -55.0) scale(1, -1)">
<text fill="black" stroke="none">χ</text>
</g>
<g x="70.0" y="-45.0" transform="translate(70.0, -45.0) scale(1, -1)">
<text fill="black" stroke="none">ψ</text>
</g>
<g x="68.0" y="25.0" transform="translate(68.0, 25.0) scale(1, -1)">
<text fill="black" stroke="none">ω</text>
</g>
</g>
</svg>