<svg xmlns="http://www.w3.org/2000/svg" width="161.8" height="100.0" viewBox="-2.390 -55.000 171.803 110.000">
<g fill="none" stroke="black" stroke-width="0.0100%" transform="translate(0, 0.0000) scale(50.0000, -50.0000)">
<line x1="0.052" y1="0.000" x2="0.052" y2="-1.000" />
<line x1="0.104" y1="0.000" x2="0.104" y2="1.000" />

<line x1="0.209" y1="0.000" x2="0.209" y2="-1.000" />
<line x1="0.261" y1="0.000" x2="0.261" y2="1.000" />
<line x1="0.313" y1="0.000" x2="0.313" y2="-1.000" />
<line x1="0.365" y1="0.000" x2="0.365" y2="1.000" />

<line x1="0.470" y1="0.000" x2="0.470" y2="-1.000" />
<line x1="0.522" y1="0.000" x2="0.522" y2="1.000" />

<line x1="0.626" y1="0.000" x2="0.626" y2="-1.000" />
<line x1="0.679" y1="0.000" x2="0.679" y2="1.000" />
<line x1="0.731" y1="0.000" x2="0.731" y2="-1.000" />
<line x1="0.783" y1="0.000" x2="0.783" y2="1.000" />

<line x1="0.887" y1="0.000" x2="0.887" y2="-1.000" />
<line x1="0.940" y1="0.000" x2="0.940" y2="1.000" />
<line x1="0.992" y1="0.000" x2="0.992" y2="-1.000" />
<line x1="1.044" y1="0.000" x2="1.044" y2="1.000" />

<line x1="1.148" y1="0.000" x2="1.148" y2="-1.000" />
<line x1="1.200" y1="0.000" x2="1.200" y2="1.000" />

<line x1="1.305" y1="0.000" x2="1.305" y2="-1.000" />
<line x1="1.357" y1="0.000" x2="1.357" y2="1.000" />
<line x1="1.409" y1="0.000" x2="1.409" y2="-1.000" />
<line x1="1.461" y1="0.000" x2="1.461" y2="1.000" />

<line x1="1.566" y1="0.000" x2="1.566" y2="-1.000" />
<line x1="1.618" y1="0.000" x2="1.618" y2="1.000" />

<line x1="1.722" y1="0.000" x2="1.722" y2="-1.000" />
<line x1="1.775" y1="0.000" x2="1.775" y2="1.000" />
<line x1="1.827" y1="0.000" x2="1.827" y2="-1.000" />
<line x1="1.879" y1="0.000" x2="1.879" y2="1.000" />

<line x1="1.983" y1="0.000" x2="1.983" y2="-1.000" />
<line x1="2.036" y1="0.000" x2="2.036" y2="1.000" />
<line x1="2.088" y1="0.000" x2="2.088" y2="-1.000" />
<line x1="2.140" y1="0.000" x2="2.140" y2="1.000" />

<line x1="2.244" y1="0.000" x2="2.244" y2="-1.000" />
<line x1="2.297" y1="0.000" x2="2.297" y2="1.000" />

<line x1="2.401" y1="0.000" x2="2.401" y2="-1.000" />
<line x1="2.453" y1="0.000" x2="2.453" y2="1.000" />
<line x1="2.505" y1="0.000" x2="2.505" y2="-1.000" />
<line x1="2.558" y1="0.000" x2="2.558" y2="1.000" />

<line x1="2.662" y1="0.000" x2="2.662" y2="-1.000" />
<line x1="2.714" y1="0.000" x2="2.714" y2="1.000" />
<line x1="2.766" y1="0.000" x2="2.766" y2="-1.000" />
<line x1="2.819" y1="0.000" x2="2.819" y2="1.000" />

<line x1="2.923" y1="0.000" x2="2.923" y2="-1.000" />
<line x1="2.975" y1="0.000" x2="2.975" y2="1.000" />

<line x1="3.079" y1="0.000" x2="3.079" y2="-1.000" />
<line x1="3.132" y1="0.000" x2="3.132" y2="1.000" />
<line x1="3.184" y1="0.000" x2="3.184" y2="-1.000" />
<line x1="3.236" y1="0.000" x2="3.236" y2="1.000" />

</g>
</svg>