<svg xmlns="http://www.w3.org/2000/svg" width="161.8" height="100.0" viewBox="-2.0 -4.5 171.8 110.0">
<g fill="none" stroke="black" stroke-width="0.9900%" transform="translate(0, 101.0101) scale(0.5051, -0.5051)">
<circle cx="5.9" cy="1.0" r="1.0" />
<circle cx="11.9" cy="2.0" r="1.0" />
<circle cx="17.8" cy="4.0" r="1.0" />
<circle cx="23.7" cy="3.0" r="1.0" />
<circle cx="29.7" cy="7.0" r="1.0" />
<circle cx="35.6" cy="6.0" r="1.0" />
<circle cx="41.5" cy="5.0" r="1.0" />
<circle cx="47.5" cy="11.0" r="1.0" />
<circle cx="53.4" cy="10.0" r="1.0" />
<circle cx="59.3" cy="9.0" r="1.0" />
<circle cx="65.3" cy="8.0" r="1.0" />
<circle cx="71.2" cy="18.0" r="1.0" />
<circle cx="77.1" cy="16.0" r="1.0" />
<circle cx="83.1" cy="15.0" r="1.0" />
<circle cx="89.0" cy="12.0" r="1.0" />
<circle cx="94.9" cy="13.0" r="1.0" />
<circle cx="100.9" cy="29.0" r="1.0" />
<circle cx="106.8" cy="26.0" r="1.0" />
<circle cx="112.7" cy="24.0" r="1.0" />
<circle cx="118.7" cy="20.0" r="1.0" />
<circle cx="124.6" cy="14.0" r="1.0" />
<circle cx="130.5" cy="21.0" r="1.0" />
<circle cx="136.5" cy="47.0" r="1.0" />
<circle cx="142.4" cy="42.0" r="1.0" />
<circle cx="148.3" cy="39.0" r="1.0" />
<circle cx="154.3" cy="32.0" r="1.0" />
<circle cx="160.2" cy="23.0" r="1.0" />
<circle cx="166.1" cy="17.0" r="1.0" />
<circle cx="172.1" cy="34.0" r="1.0" />
<circle cx="178.0" cy="76.0" r="1.0" />
<circle cx="183.9" cy="68.0" r="1.0" />
<circle cx="189.8" cy="63.0" r="1.0" />
<circle cx="195.8" cy="52.0" r="1.0" />
<circle cx="201.7" cy="37.0" r="1.0" />
<circle cx="207.6" cy="28.0" r="1.0" />
<circle cx="213.6" cy="19.0" r="1.0" />
<circle cx="219.5" cy="55.0" r="1.0" />
<circle cx="225.4" cy="123.0" r="1.0" />
<circle cx="231.4" cy="110.0" r="1.0" />
<circle cx="237.3" cy="102.0" r="1.0" />
<circle cx="243.2" cy="84.0" r="1.0" />
<circle cx="249.2" cy="60.0" r="1.0" />
<circle cx="255.1" cy="45.0" r="1.0" />
<circle cx="261.0" cy="31.0" r="1.0" />
<circle cx="267.0" cy="22.0" r="1.0" />
<circle cx="272.9" cy="89.0" r="1.0" />
<circle cx="278.8" cy="199.0" r="1.0" />
<circle cx="284.8" cy="178.0" r="1.0" />
<circle cx="290.7" cy="165.0" r="1.0" />
<circle cx="296.6" cy="136.0" r="1.0" />
<circle cx="302.6" cy="97.0" r="1.0" />
<circle cx="308.5" cy="73.0" r="1.0" />
<circle cx="314.4" cy="50.0" r="1.0" />
<circle cx="320.4" cy="36.0" r="1.0" />
<circle cx="326.3" cy="25.0" r="1.0" />
</g>
</svg>