<svg xmlns="http://www.w3.org/2000/svg" width="161.8" height="100.0" viewBox="2.0 -2.2 171.8 110.0">
<g fill="none" stroke="black" stroke-width="0.1800%" transform="translate(0, 105.5556) scale(2.7778, -2.7778)">
<polyline points="2.5,1.0 5.1,1.0 5.1,3.0 7.6,3.0 7.6,4.0 10.1,4.0 10.1,6.0 12.7,6.0 12.7,8.0 15.2,8.0 15.2,9.0 17.7,9.0 17.7,11.0 20.3,11.0 20.3,12.0 22.8,12.0 22.8,14.0 25.3,14.0 25.3,16.0 27.9,16.0 27.9,17.0 30.4,17.0 30.4,19.0 32.9,19.0 32.9,21.0 35.5,21.0 35.5,22.0 38.0,22.0 38.0,24.0 40.5,24.0 40.5,25.0 43.1,25.0 43.1,27.0 45.6,27.0 45.6,29.0 48.1,29.0 48.1,30.0 50.7,30.0 50.7,32.0 53.2,32.0 53.2,33.0 55.7,33.0 55.7,35.0 58.2,35.0 58.2,37.0 60.8,37.0" />
</g>
</svg>