<svg xmlns="http://www.w3.org/2000/svg" width="161.8" height="100.0" viewBox="-3.5 -4.4 171.8 110.0">
<g fill="none" stroke="black" stroke-width="0.8450%" transform="translate(0, 101.1834) scale(0.5917, -0.5917)">
<circle cx="2.6" cy="2.0" r="0.8" />
<circle cx="5.2" cy="1.0" r="0.8" />
<circle cx="7.8" cy="5.0" r="0.8" />
<circle cx="10.4" cy="7.0" r="0.8" />
<circle cx="13.0" cy="3.0" r="0.8" />
<circle cx="15.6" cy="10.0" r="0.8" />
<circle cx="18.2" cy="4.0" r="0.8" />
<circle cx="20.8" cy="13.0" r="0.8" />
<circle cx="23.4" cy="15.0" r="0.8" />
<circle cx="26.0" cy="6.0" r="0.8" />
<circle cx="28.6" cy="18.0" r="0.8" />
<circle cx="31.3" cy="20.0" r="0.8" />
<circle cx="33.9" cy="8.0" r="0.8" />
<circle cx="36.5" cy="23.0" r="0.8" />
<circle cx="39.1" cy="9.0" r="0.8" />
<circle cx="41.7" cy="26.0" r="0.8" />
<circle cx="44.3" cy="28.0" r="0.8" />
<circle cx="46.9" cy="11.0" r="0.8" />
<circle cx="49.5" cy="31.0" r="0.8" />
<circle cx="52.1" cy="12.0" r="0.8" />
<circle cx="54.7" cy="34.0" r="0.8" />
<circle cx="57.3" cy="36.0" r="0.8" />
<circle cx="59.9" cy="14.0" r="0.8" />
<circle cx="62.5" cy="39.0" r="0.8" />
<circle cx="65.1" cy="41.0" r="0.8" />
<circle cx="67.7" cy="16.0" r="0.8" />
<circle cx="70.3" cy="44.0" r="0.8" />
<circle cx="72.9" cy="17.0" r="0.8" />
<circle cx="75.5" cy="47.0" r="0.8" />
<circle cx="78.1" cy="49.0" r="0.8" />
<circle cx="80.7" cy="19.0" r="0.8" />
<circle cx="83.3" cy="52.0" r="0.8" />
<circle cx="85.9" cy="54.0" r="0.8" />
<circle cx="88.5" cy="21.0" r="0.8" />
<circle cx="91.1" cy="57.0" r="0.8" />
<circle cx="93.8" cy="22.0" r="0.8" />
<circle cx="96.4" cy="60.0" r="0.8" />
<circle cx="99.0" cy="62.0" r="0.8" />
<circle cx="101.6" cy="24.0" r="0.8" />
<circle cx="104.2" cy="65.0" r="0.8" />
<circle cx="106.8" cy="25.0" r="0.8" />
<circle cx="109.4" cy="68.0" r="0.8" />
<circle cx="112.0" cy="70.0" r="0.8" />
<circle cx="114.6" cy="27.0" r="0.8" />
<circle cx="117.2" cy="73.0" r="0.8" />
<circle cx="119.8" cy="75.0" r="0.8" />
<circle cx="122.4" cy="29.0" r="0.8" />
<circle cx="125.0" cy="78.0" r="0.8" />
<circle cx="127.6" cy="30.0" r="0.8" />
<circle cx="130.2" cy="81.0" r="0.8" />
<circle cx="132.8" cy="83.0" r="0.8" />
<circle cx="135.4" cy="32.0" r="0.8" />
<circle cx="138.0" cy="86.0" r="0.8" />
<circle cx="140.6" cy="33.0" r="0.8" />
<circle cx="143.2" cy="89.0" r="0.8" />
<circle cx="145.8" cy="91.0" r="0.8" />
<circle cx="148.4" cy="35.0" r="0.8" />
<circle cx="151.0" cy="94.0" r="0.8" />
<circle cx="153.7" cy="96.0" r="0.8" />
<circle cx="156.3" cy="37.0" r="0.8" />
<circle cx="158.9" cy="99.0" r="0.8" />
<circle cx="161.5" cy="38.0" r="0.8" />
<circle cx="164.1" cy="102.0" r="0.8" />
<circle cx="166.7" cy="104.0" r="0.8" />
<circle cx="169.3" cy="40.0" r="0.8" />
<circle cx="171.9" cy="107.0" r="0.8" />
<circle cx="174.5" cy="109.0" r="0.8" />
<circle cx="177.1" cy="42.0" r="0.8" />
<circle cx="179.7" cy="112.0" r="0.8" />
<circle cx="182.3" cy="43.0" r="0.8" />
<circle cx="184.9" cy="115.0" r="0.8" />
<circle cx="187.5" cy="117.0" r="0.8" />
<circle cx="190.1" cy="45.0" r="0.8" />
<circle cx="192.7" cy="120.0" r="0.8" />
<circle cx="195.3" cy="46.0" r="0.8" />
<circle cx="197.9" cy="123.0" r="0.8" />
<circle cx="200.5" cy="125.0" r="0.8" />
<circle cx="203.1" cy="48.0" r="0.8" />
<circle cx="205.7" cy="128.0" r="0.8" />
<circle cx="208.3" cy="130.0" r="0.8" />
<circle cx="210.9" cy="50.0" r="0.8" />
<circle cx="213.5" cy="133.0" r="0.8" />
<circle cx="216.2" cy="51.0" r="0.8" />
<circle cx="218.8" cy="136.0" r="0.8" />
<circle cx="221.4" cy="138.0" r="0.8" />
<circle cx="224.0" cy="53.0" r="0.8" />
<circle cx="226.6" cy="141.0" r="0.8" />
<circle cx="229.2" cy="143.0" r="0.8" />
<circle cx="231.8" cy="55.0" r="0.8" />
<circle cx="234.4" cy="146.0" r="0.8" />
<circle cx="237.0" cy="56.0" r="0.8" />
<circle cx="239.6" cy="149.0" r="0.8" />
<circle cx="242.2" cy="151.0" r="0.8" />
<circle cx="244.8" cy="58.0" r="0.8" />
<circle cx="247.4" cy="154.0" r="0.8" />
<circle cx="250.0" cy="59.0" r="0.8" />
<circle cx="252.6" cy="157.0" r="0.8" />
<circle cx="255.2" cy="159.0" r="0.8" />
<circle cx="257.8" cy="61.0" r="0.8" />
<circle cx="260.4" cy="162.0" r="0.8" />
<circle cx="263.0" cy="164.0" r="0.8" />
<circle cx="265.6" cy="63.0" r="0.8" />
<circle cx="268.2" cy="167.0" r="0.8" />
<circle cx="270.8" cy="64.0" r="0.8" />
<circle cx="273.4" cy="170.0" r="0.8" />
<circle cx="276.1" cy="106.0" r="0.8" />
</g>
</svg>