<svg xmlns="http://www.w3.org/2000/svg" width="161.8" height="100.0" viewBox="-3.6 -2.0 171.8 110.0">
<g fill="none" stroke="black" stroke-width="0.1650%" transform="translate(0, 106.0606) scale(3.0303, -3.0303)">
<circle cx="0.5" cy="1.0" r="0.2" />
<circle cx="0.9" cy="2.0" r="0.2" />
<circle cx="1.4" cy="3.0" r="0.2" />
<circle cx="1.9" cy="1.0" r="0.2" />
<circle cx="2.3" cy="3.0" r="0.2" />
<circle cx="2.8" cy="5.0" r="0.2" />
<circle cx="3.3" cy="1.0" r="0.2" />
<circle cx="3.7" cy="5.0" r="0.2" />
<circle cx="4.2" cy="2.0" r="0.2" />
<circle cx="4.7" cy="5.0" r="0.2" />
<circle cx="5.2" cy="8.0" r="0.2" />
<circle cx="5.6" cy="1.0" r="0.2" />
<circle cx="6.1" cy="8.0" r="0.2" />
<circle cx="6.6" cy="2.0" r="0.2" />
<circle cx="7.0" cy="8.0" r="0.2" />
<circle cx="7.5" cy="3.0" r="0.2" />
<circle cx="8.0" cy="8.0" r="0.2" />
<circle cx="8.4" cy="1.0" r="0.2" />
<circle cx="8.9" cy="3.0" r="0.2" />
<circle cx="9.4" cy="8.0" r="0.2" />
<circle cx="9.8" cy="13.0" r="0.2" />
<circle cx="10.3" cy="1.0" r="0.2" />
<circle cx="10.8" cy="13.0" r="0.2" />
<circle cx="11.2" cy="2.0" r="0.2" />
<circle cx="11.7" cy="13.0" r="0.2" />
<circle cx="12.2" cy="3.0" r="0.2" />
<circle cx="12.6" cy="13.0" r="0.2" />
<circle cx="13.1" cy="1.0" r="0.2" />
<circle cx="13.6" cy="3.0" r="0.2" />
<circle cx="14.1" cy="13.0" r="0.2" />
<circle cx="14.5" cy="5.0" r="0.2" />
<circle cx="15.0" cy="13.0" r="0.2" />
<circle cx="15.5" cy="1.0" r="0.2" />
<circle cx="15.9" cy="5.0" r="0.2" />
<circle cx="16.4" cy="13.0" r="0.2" />
<circle cx="16.9" cy="2.0" r="0.2" />
<circle cx="17.3" cy="5.0" r="0.2" />
<circle cx="17.8" cy="13.0" r="0.2" />
<circle cx="18.3" cy="21.0" r="0.2" />
<circle cx="18.7" cy="1.0" r="0.2" />
<circle cx="19.2" cy="21.0" r="0.2" />
<circle cx="19.7" cy="2.0" r="0.2" />
<circle cx="20.1" cy="21.0" r="0.2" />
<circle cx="20.6" cy="3.0" r="0.2" />
<circle cx="21.1" cy="21.0" r="0.2" />
<circle cx="21.5" cy="1.0" r="0.2" />
<circle cx="22.0" cy="3.0" r="0.2" />
<circle cx="22.5" cy="21.0" r="0.2" />
<circle cx="23.0" cy="5.0" r="0.2" />
<circle cx="23.4" cy="21.0" r="0.2" />
<circle cx="23.9" cy="1.0" r="0.2" />
<circle cx="24.4" cy="5.0" r="0.2" />
<circle cx="24.8" cy="21.0" r="0.2" />
<circle cx="25.3" cy="2.0" r="0.2" />
<circle cx="25.8" cy="5.0" r="0.2" />
<circle cx="26.2" cy="21.0" r="0.2" />
<circle cx="26.7" cy="8.0" r="0.2" />
<circle cx="27.2" cy="21.0" r="0.2" />
<circle cx="27.6" cy="1.0" r="0.2" />
<circle cx="28.1" cy="8.0" r="0.2" />
<circle cx="28.6" cy="21.0" r="0.2" />
<circle cx="29.0" cy="2.0" r="0.2" />
<circle cx="29.5" cy="8.0" r="0.2" />
<circle cx="30.0" cy="21.0" r="0.2" />
<circle cx="30.4" cy="3.0" r="0.2" />
<circle cx="30.9" cy="8.0" r="0.2" />
<circle cx="31.4" cy="21.0" r="0.2" />
<circle cx="31.8" cy="1.0" r="0.2" />
<circle cx="32.3" cy="3.0" r="0.2" />
<circle cx="32.8" cy="8.0" r="0.2" />
<circle cx="33.3" cy="21.0" r="0.2" />
<circle cx="33.7" cy="34.0" r="0.2" />
<circle cx="34.2" cy="1.0" r="0.2" />
<circle cx="34.7" cy="34.0" r="0.2" />
<circle cx="35.1" cy="2.0" r="0.2" />
<circle cx="35.6" cy="34.0" r="0.2" />
<circle cx="36.1" cy="3.0" r="0.2" />
<circle cx="36.5" cy="34.0" r="0.2" />
<circle cx="37.0" cy="1.0" r="0.2" />
<circle cx="37.5" cy="3.0" r="0.2" />
<circle cx="37.9" cy="34.0" r="0.2" />
<circle cx="38.4" cy="5.0" r="0.2" />
<circle cx="38.9" cy="34.0" r="0.2" />
<circle cx="39.3" cy="1.0" r="0.2" />
<circle cx="39.8" cy="5.0" r="0.2" />
<circle cx="40.3" cy="34.0" r="0.2" />
<circle cx="40.7" cy="2.0" r="0.2" />
<circle cx="41.2" cy="5.0" r="0.2" />
<circle cx="41.7" cy="34.0" r="0.2" />
<circle cx="42.2" cy="8.0" r="0.2" />
<circle cx="42.6" cy="34.0" r="0.2" />
<circle cx="43.1" cy="1.0" r="0.2" />
<circle cx="43.6" cy="8.0" r="0.2" />
<circle cx="44.0" cy="34.0" r="0.2" />
<circle cx="44.5" cy="2.0" r="0.2" />
<circle cx="45.0" cy="8.0" r="0.2" />
<circle cx="45.4" cy="34.0" r="0.2" />
<circle cx="45.9" cy="3.0" r="0.2" />
<circle cx="46.4" cy="8.0" r="0.2" />
<circle cx="46.8" cy="34.0" r="0.2" />
<circle cx="47.3" cy="1.0" r="0.2" />
<circle cx="47.8" cy="3.0" r="0.2" />
<circle cx="48.2" cy="8.0" r="0.2" />
<circle cx="48.7" cy="34.0" r="0.2" />
<circle cx="49.2" cy="13.0" r="0.2" />
<circle cx="49.6" cy="34.0" r="0.2" />
<circle cx="50.1" cy="1.0" r="0.2" />
<circle cx="50.6" cy="13.0" r="0.2" />
<circle cx="51.1" cy="34.0" r="0.2" />
<circle cx="51.5" cy="2.0" r="0.2" />
<circle cx="52.0" cy="13.0" r="0.2" />
<circle cx="52.5" cy="34.0" r="0.2" />
<circle cx="52.9" cy="3.0" r="0.2" />
<circle cx="53.4" cy="13.0" r="0.2" />
<circle cx="53.9" cy="34.0" r="0.2" />
</g>
</svg>