<svg xmlns="http://www.w3.org/2000/svg" width="56" height="104" viewBox="0 0 56 104">
<rect x="0" y="0" width="8" height="8" fill="rgb(0,0,0)"/>
<rect x="0" y="8" width="8" height="8" fill="rgb(0,0,0)"/>
<rect x="0" y="16" width="8" height="8" fill="rgb(0,0,0)"/>
<rect x="0" y="24" width="8" height="8" fill="rgb(0,0,0)"/>
<rect x="0" y="32" width="8" height="8" fill="rgb(0,0,0)"/>
<rect x="0" y="40" width="8" height="8" fill="rgb(0,0,0)"/>
<rect x="0" y="48" width="8" height="8" fill="rgb(0,0,0)"/>
<rect x="0" y="56" width="8" height="8" fill="rgb(0,0,0)"/>
<rect x="0" y="64" width="8" height="8" fill="rgb(0,0,0)"/>
<rect x="0" y="72" width="8" height="8" fill="rgb(0,0,0)"/>
<rect x="0" y="80" width="8" height="8" fill="rgb(0,0,0)"/>
<rect x="0" y="88" width="8" height="8" fill="rgb(0,0,0)"/>
<rect x="0" y="96" width="8" height="8" fill="rgb(0,0,0)"/>
<rect x="16" y="64" width="8" height="8" fill="rgb(0,0,0)"/>
<rect x="16" y="72" width="8" height="8" fill="rgb(0,0,0)"/>
<rect x="16" y="80" width="8" height="8" fill="rgb(0,0,0)"/>
<rect x="16" y="88" width="8" height="8" fill="rgb(0,0,0)"/>
<rect x="16" y="96" width="8" height="8" fill="rgb(0,0,0)"/>
<rect x="24" y="40" width="8" height="8" fill="rgb(0,0,0)"/>
<rect x="24" y="48" width="8" height="8" fill="rgb(0,0,0)"/>
<rect x="24" y="56" width="8" height="8" fill="rgb(0,0,0)"/>
<rect x="32" y="24" width="8" height="8" fill="rgb(0,0,0)"/>
<rect x="32" y="32" width="8" height="8" fill="rgb(0,0,0)"/>
<rect x="32" y="88" width="8" height="8" fill="rgb(0,0,0)"/>
<rect x="32" y="96" width="8" height="8" fill="rgb(0,0,0)"/>
<rect x="40" y="16" width="8" height="8" fill="rgb(0,0,0)"/>
<rect x="40" y="56" width="8" height="8" fill="rgb(0,0,0)"/>
<rect x="40" y="80" width="8" height="8" fill="rgb(0,0,0)"/>
<rect x="48" y="8" width="8" height="8" fill="rgb(0,0,0)"/>
<rect x="48" y="32" width="8" height="8" fill="rgb(0,0,0)"/>
<rect x="48" y="48" width="8" height="8" fill="rgb(0,0,0)"/>
<rect x="48" y="72" width="8" height="8" fill="rgb(0,0,0)"/>
<rect x="48" y="96" width="8" height="8" fill="rgb(0,0,0)"/>
</svg>