<svg xmlns="http://www.w3.org/2000/svg" width="161.8" height="100.0" viewBox="-3.382 -5.000 171.803 110.000">
<g fill="none" stroke="black" stroke-width="0.0050%" transform="translate(0, 100.0000) scale(100.0000, -100.0000)">
<line x1="0.016" y1="0.000" x2="0.016" y2="1.000" />
<line x1="0.032" y1="0.000" x2="0.032" y2="1.000" />

<line x1="0.065" y1="0.000" x2="0.065" y2="1.000" />


<line x1="0.113" y1="0.000" x2="0.113" y2="1.000" />

<line x1="0.146" y1="0.000" x2="0.146" y2="1.000" />
<line x1="0.162" y1="0.000" x2="0.162" y2="1.000" />



<line x1="0.227" y1="0.000" x2="0.227" y2="1.000" />


<line x1="0.275" y1="0.000" x2="0.275" y2="1.000" />
<line x1="0.291" y1="0.000" x2="0.291" y2="1.000" />

<line x1="0.324" y1="0.000" x2="0.324" y2="1.000" />

<line x1="0.356" y1="0.000" x2="0.356" y2="1.000" />




<line x1="0.437" y1="0.000" x2="0.437" y2="1.000" />



<line x1="0.502" y1="0.000" x2="0.502" y2="1.000" />
<line x1="0.518" y1="0.000" x2="0.518" y2="1.000" />


<line x1="0.566" y1="0.000" x2="0.566" y2="1.000" />

<line x1="0.599" y1="0.000" x2="0.599" y2="1.000" />

<line x1="0.631" y1="0.000" x2="0.631" y2="1.000" />


<line x1="0.680" y1="0.000" x2="0.680" y2="1.000" />

<line x1="0.712" y1="0.000" x2="0.712" y2="1.000" />

<line x1="0.744" y1="0.000" x2="0.744" y2="1.000" />
<line x1="0.760" y1="0.000" x2="0.760" y2="1.000" />





<line x1="0.858" y1="0.000" x2="0.858" y2="1.000" />




<line x1="0.938" y1="0.000" x2="0.938" y2="1.000" />
<line x1="0.955" y1="0.000" x2="0.955" y2="1.000" />



<line x1="1.019" y1="0.000" x2="1.019" y2="1.000" />

<line x1="1.052" y1="0.000" x2="1.052" y2="1.000" />


<line x1="1.100" y1="0.000" x2="1.100" y2="1.000" />


<line x1="1.149" y1="0.000" x2="1.149" y2="1.000" />


<line x1="1.197" y1="0.000" x2="1.197" y2="1.000" />

<line x1="1.230" y1="0.000" x2="1.230" y2="1.000" />
<line x1="1.246" y1="0.000" x2="1.246" y2="1.000" />

<line x1="1.278" y1="0.000" x2="1.278" y2="1.000" />



<line x1="1.343" y1="0.000" x2="1.343" y2="1.000" />

<line x1="1.375" y1="0.000" x2="1.375" y2="1.000" />


<line x1="1.424" y1="0.000" x2="1.424" y2="1.000" />
<line x1="1.440" y1="0.000" x2="1.440" y2="1.000" />

<line x1="1.472" y1="0.000" x2="1.472" y2="1.000" />

<line x1="1.505" y1="0.000" x2="1.505" y2="1.000" />

<line x1="1.537" y1="0.000" x2="1.537" y2="1.000" />






</g>
</svg>