<svg xmlns="http://www.w3.org/2000/svg" width="161.8" height="100.0" viewBox="-1 -5 172 110">
<g fill="none" stroke="black" stroke-width="2.4650%" transform="translate(0, 100.0000) scale(0.2028, -0.2028)">
<circle cx="20" cy="0" r="2" />
<circle cx="41" cy="1" r="2" />
<circle cx="61" cy="4" r="2" />
<circle cx="82" cy="6" r="2" />
<circle cx="102" cy="9" r="2" />
<circle cx="123" cy="12" r="2" />
<circle cx="143" cy="14" r="2" />
<circle cx="164" cy="22" r="2" />
<circle cx="184" cy="27" r="2" />
<circle cx="205" cy="33" r="2" />
<circle cx="225" cy="35" r="2" />
<circle cx="245" cy="51" r="2" />
<circle cx="266" cy="56" r="2" />
<circle cx="286" cy="64" r="2" />
<circle cx="307" cy="74" r="2" />
<circle cx="327" cy="80" r="2" />
<circle cx="348" cy="88" r="2" />
<circle cx="368" cy="90" r="2" />
<circle cx="389" cy="116" r="2" />
<circle cx="409" cy="127" r="2" />
<circle cx="430" cy="145" r="2" />
<circle cx="450" cy="158" r="2" />
<circle cx="470" cy="174" r="2" />
<circle cx="491" cy="184" r="2" />
<circle cx="511" cy="197" r="2" />
<circle cx="532" cy="203" r="2" />
<circle cx="552" cy="216" r="2" />
<circle cx="573" cy="232" r="2" />
<circle cx="593" cy="234" r="2" />
<circle cx="614" cy="276" r="2" />
<circle cx="634" cy="294" r="2" />
<circle cx="655" cy="326" r="2" />
<circle cx="675" cy="368" r="2" />
<circle cx="695" cy="378" r="2" />
<circle cx="716" cy="399" r="2" />
<circle cx="736" cy="425" r="2" />
<circle cx="757" cy="441" r="2" />
<circle cx="777" cy="462" r="2" />
<circle cx="798" cy="472" r="2" />
<circle cx="818" cy="493" r="2" />
</g>
</svg>