<svg xmlns="http://www.w3.org/2000/svg" width="161.8" height="100.0" viewBox="-4.35 -5.00 171.80 110.00">
<g fill="none" stroke="black" stroke-width="0.0550%" transform="translate(0, 100.0000) scale(9.0909, -9.0909)">
<circle cx="0.07" cy="0.00" r="0.05" />
<circle cx="0.14" cy="1.00" r="0.05" />
<circle cx="0.21" cy="2.00" r="0.05" />
<circle cx="0.29" cy="1.00" r="0.05" />
<circle cx="0.36" cy="3.00" r="0.05" />
<circle cx="0.43" cy="2.00" r="0.05" />
<circle cx="0.50" cy="2.00" r="0.05" />
<circle cx="0.57" cy="4.00" r="0.05" />
<circle cx="0.64" cy="3.00" r="0.05" />
<circle cx="0.71" cy="3.00" r="0.05" />
<circle cx="0.79" cy="3.00" r="0.05" />
<circle cx="0.86" cy="2.00" r="0.05" />
<circle cx="0.93" cy="5.00" r="0.05" />
<circle cx="1.00" cy="4.00" r="0.05" />
<circle cx="1.07" cy="4.00" r="0.05" />
<circle cx="1.14" cy="4.00" r="0.05" />
<circle cx="1.22" cy="3.00" r="0.05" />
<circle cx="1.29" cy="4.00" r="0.05" />
<circle cx="1.36" cy="3.00" r="0.05" />
<circle cx="1.43" cy="3.00" r="0.05" />
<circle cx="1.50" cy="6.00" r="0.05" />
<circle cx="1.57" cy="5.00" r="0.05" />
<circle cx="1.64" cy="5.00" r="0.05" />
<circle cx="1.72" cy="5.00" r="0.05" />
<circle cx="1.79" cy="4.00" r="0.05" />
<circle cx="1.86" cy="5.00" r="0.05" />
<circle cx="1.93" cy="4.00" r="0.05" />
<circle cx="2.00" cy="4.00" r="0.05" />
<circle cx="2.07" cy="5.00" r="0.05" />
<circle cx="2.14" cy="4.00" r="0.05" />
<circle cx="2.22" cy="4.00" r="0.05" />
<circle cx="2.29" cy="4.00" r="0.05" />
<circle cx="2.36" cy="3.00" r="0.05" />
<circle cx="2.43" cy="7.00" r="0.05" />
<circle cx="2.50" cy="6.00" r="0.05" />
<circle cx="2.57" cy="6.00" r="0.05" />
<circle cx="2.64" cy="6.00" r="0.05" />
<circle cx="2.72" cy="5.00" r="0.05" />
<circle cx="2.79" cy="6.00" r="0.05" />
<circle cx="2.86" cy="5.00" r="0.05" />
<circle cx="2.93" cy="5.00" r="0.05" />
<circle cx="3.00" cy="6.00" r="0.05" />
<circle cx="3.07" cy="5.00" r="0.05" />
<circle cx="3.15" cy="5.00" r="0.05" />
<circle cx="3.22" cy="5.00" r="0.05" />
<circle cx="3.29" cy="4.00" r="0.05" />
<circle cx="3.36" cy="6.00" r="0.05" />
<circle cx="3.43" cy="5.00" r="0.05" />
<circle cx="3.50" cy="5.00" r="0.05" />
<circle cx="3.57" cy="5.00" r="0.05" />
<circle cx="3.65" cy="4.00" r="0.05" />
<circle cx="3.72" cy="5.00" r="0.05" />
<circle cx="3.79" cy="4.00" r="0.05" />
<circle cx="3.86" cy="4.00" r="0.05" />
<circle cx="3.93" cy="8.00" r="0.05" />
<circle cx="4.00" cy="7.00" r="0.05" />
<circle cx="4.07" cy="7.00" r="0.05" />
<circle cx="4.15" cy="7.00" r="0.05" />
<circle cx="4.22" cy="6.00" r="0.05" />
<circle cx="4.29" cy="7.00" r="0.05" />
<circle cx="4.36" cy="6.00" r="0.05" />
<circle cx="4.43" cy="6.00" r="0.05" />
<circle cx="4.50" cy="7.00" r="0.05" />
<circle cx="4.57" cy="6.00" r="0.05" />
<circle cx="4.65" cy="6.00" r="0.05" />
<circle cx="4.72" cy="6.00" r="0.05" />
<circle cx="4.79" cy="5.00" r="0.05" />
<circle cx="4.86" cy="7.00" r="0.05" />
<circle cx="4.93" cy="6.00" r="0.05" />
<circle cx="5.00" cy="6.00" r="0.05" />
<circle cx="5.08" cy="6.00" r="0.05" />
<circle cx="5.15" cy="5.00" r="0.05" />
<circle cx="5.22" cy="6.00" r="0.05" />
<circle cx="5.29" cy="5.00" r="0.05" />
<circle cx="5.36" cy="5.00" r="0.05" />
<circle cx="5.43" cy="7.00" r="0.05" />
<circle cx="5.50" cy="6.00" r="0.05" />
<circle cx="5.58" cy="6.00" r="0.05" />
<circle cx="5.65" cy="6.00" r="0.05" />
<circle cx="5.72" cy="5.00" r="0.05" />
<circle cx="5.79" cy="6.00" r="0.05" />
<circle cx="5.86" cy="5.00" r="0.05" />
<circle cx="5.93" cy="5.00" r="0.05" />
<circle cx="6.00" cy="6.00" r="0.05" />
<circle cx="6.08" cy="5.00" r="0.05" />
<circle cx="6.15" cy="5.00" r="0.05" />
<circle cx="6.22" cy="5.00" r="0.05" />
<circle cx="6.29" cy="4.00" r="0.05" />
<circle cx="6.36" cy="9.00" r="0.05" />
<circle cx="6.43" cy="8.00" r="0.05" />
<circle cx="6.50" cy="8.00" r="0.05" />
<circle cx="6.58" cy="8.00" r="0.05" />
<circle cx="6.65" cy="7.00" r="0.05" />
<circle cx="6.72" cy="8.00" r="0.05" />
<circle cx="6.79" cy="7.00" r="0.05" />
<circle cx="6.86" cy="7.00" r="0.05" />
<circle cx="6.93" cy="8.00" r="0.05" />
<circle cx="7.00" cy="7.00" r="0.05" />
<circle cx="7.08" cy="7.00" r="0.05" />
<circle cx="7.15" cy="7.00" r="0.05" />
<circle cx="7.22" cy="6.00" r="0.05" />
<circle cx="7.29" cy="8.00" r="0.05" />
<circle cx="7.36" cy="7.00" r="0.05" />
<circle cx="7.43" cy="7.00" r="0.05" />
<circle cx="7.51" cy="7.00" r="0.05" />
<circle cx="7.58" cy="6.00" r="0.05" />
<circle cx="7.65" cy="7.00" r="0.05" />
<circle cx="7.72" cy="6.00" r="0.05" />
<circle cx="7.79" cy="6.00" r="0.05" />
<circle cx="7.86" cy="8.00" r="0.05" />
<circle cx="7.93" cy="7.00" r="0.05" />
<circle cx="8.01" cy="7.00" r="0.05" />
<circle cx="8.08" cy="7.00" r="0.05" />
<circle cx="8.15" cy="6.00" r="0.05" />
<circle cx="8.22" cy="7.00" r="0.05" />
<circle cx="8.29" cy="6.00" r="0.05" />
<circle cx="8.36" cy="6.00" r="0.05" />
<circle cx="8.43" cy="7.00" r="0.05" />
<circle cx="8.51" cy="6.00" r="0.05" />
<circle cx="8.58" cy="6.00" r="0.05" />
<circle cx="8.65" cy="6.00" r="0.05" />
<circle cx="8.72" cy="5.00" r="0.05" />
<circle cx="8.79" cy="8.00" r="0.05" />
<circle cx="8.86" cy="7.00" r="0.05" />
<circle cx="8.93" cy="7.00" r="0.05" />
<circle cx="9.01" cy="7.00" r="0.05" />
<circle cx="9.08" cy="6.00" r="0.05" />
<circle cx="9.15" cy="7.00" r="0.05" />
<circle cx="9.22" cy="6.00" r="0.05" />
<circle cx="9.29" cy="6.00" r="0.05" />
<circle cx="9.36" cy="7.00" r="0.05" />
<circle cx="9.44" cy="6.00" r="0.05" />
<circle cx="9.51" cy="6.00" r="0.05" />
<circle cx="9.58" cy="6.00" r="0.05" />
<circle cx="9.65" cy="5.00" r="0.05" />
<circle cx="9.72" cy="7.00" r="0.05" />
<circle cx="9.79" cy="6.00" r="0.05" />
<circle cx="9.86" cy="6.00" r="0.05" />
<circle cx="9.94" cy="6.00" r="0.05" />
<circle cx="10.01" cy="5.00" r="0.05" />
<circle cx="10.08" cy="6.00" r="0.05" />
<circle cx="10.15" cy="5.00" r="0.05" />
<circle cx="10.22" cy="5.00" r="0.05" />
<circle cx="10.29" cy="10.00" r="0.05" />
<circle cx="10.36" cy="9.00" r="0.05" />
<circle cx="10.44" cy="9.00" r="0.05" />
<circle cx="10.51" cy="9.00" r="0.05" />
<circle cx="10.58" cy="8.00" r="0.05" />
<circle cx="10.65" cy="9.00" r="0.05" />
<circle cx="10.72" cy="8.00" r="0.05" />
<circle cx="10.79" cy="8.00" r="0.05" />
<circle cx="10.86" cy="9.00" r="0.05" />
<circle cx="10.94" cy="8.00" r="0.05" />
<circle cx="11.01" cy="8.00" r="0.05" />
<circle cx="11.08" cy="8.00" r="0.05" />
<circle cx="11.15" cy="7.00" r="0.05" />
<circle cx="11.22" cy="9.00" r="0.05" />
<circle cx="11.29" cy="8.00" r="0.05" />
<circle cx="11.37" cy="8.00" r="0.05" />
<circle cx="11.44" cy="8.00" r="0.05" />
<circle cx="11.51" cy="7.00" r="0.05" />
<circle cx="11.58" cy="8.00" r="0.05" />
<circle cx="11.65" cy="7.00" r="0.05" />
<circle cx="11.72" cy="7.00" r="0.05" />
<circle cx="11.79" cy="9.00" r="0.05" />
<circle cx="11.87" cy="8.00" r="0.05" />
<circle cx="11.94" cy="8.00" r="0.05" />
<circle cx="12.01" cy="8.00" r="0.05" />
<circle cx="12.08" cy="7.00" r="0.05" />
<circle cx="12.15" cy="8.00" r="0.05" />
<circle cx="12.22" cy="7.00" r="0.05" />
<circle cx="12.29" cy="7.00" r="0.05" />
<circle cx="12.37" cy="8.00" r="0.05" />
<circle cx="12.44" cy="7.00" r="0.05" />
<circle cx="12.51" cy="7.00" r="0.05" />
<circle cx="12.58" cy="7.00" r="0.05" />
<circle cx="12.65" cy="6.00" r="0.05" />
<circle cx="12.72" cy="9.00" r="0.05" />
<circle cx="12.79" cy="8.00" r="0.05" />
<circle cx="12.87" cy="8.00" r="0.05" />
<circle cx="12.94" cy="8.00" r="0.05" />
<circle cx="13.01" cy="7.00" r="0.05" />
<circle cx="13.08" cy="8.00" r="0.05" />
<circle cx="13.15" cy="7.00" r="0.05" />
<circle cx="13.22" cy="7.00" r="0.05" />
<circle cx="13.30" cy="8.00" r="0.05" />
<circle cx="13.37" cy="7.00" r="0.05" />
<circle cx="13.44" cy="7.00" r="0.05" />
<circle cx="13.51" cy="7.00" r="0.05" />
<circle cx="13.58" cy="6.00" r="0.05" />
<circle cx="13.65" cy="8.00" r="0.05" />
<circle cx="13.72" cy="7.00" r="0.05" />
<circle cx="13.80" cy="7.00" r="0.05" />
<circle cx="13.87" cy="7.00" r="0.05" />
<circle cx="13.94" cy="6.00" r="0.05" />
<circle cx="14.01" cy="7.00" r="0.05" />
<circle cx="14.08" cy="6.00" r="0.05" />
<circle cx="14.15" cy="6.00" r="0.05" />
<circle cx="14.22" cy="9.00" r="0.05" />
<circle cx="14.30" cy="8.00" r="0.05" />
<circle cx="14.37" cy="8.00" r="0.05" />
<circle cx="14.44" cy="8.00" r="0.05" />
<circle cx="14.51" cy="7.00" r="0.05" />
<circle cx="14.58" cy="8.00" r="0.05" />
<circle cx="14.65" cy="7.00" r="0.05" />
<circle cx="14.72" cy="7.00" r="0.05" />
<circle cx="14.80" cy="8.00" r="0.05" />
<circle cx="14.87" cy="7.00" r="0.05" />
<circle cx="14.94" cy="7.00" r="0.05" />
<circle cx="15.01" cy="7.00" r="0.05" />
<circle cx="15.08" cy="6.00" r="0.05" />
<circle cx="15.15" cy="8.00" r="0.05" />
<circle cx="15.23" cy="7.00" r="0.05" />
<circle cx="15.30" cy="7.00" r="0.05" />
<circle cx="15.37" cy="7.00" r="0.05" />
<circle cx="15.44" cy="6.00" r="0.05" />
<circle cx="15.51" cy="7.00" r="0.05" />
<circle cx="15.58" cy="6.00" r="0.05" />
<circle cx="15.65" cy="6.00" r="0.05" />
<circle cx="15.73" cy="8.00" r="0.05" />
<circle cx="15.80" cy="7.00" r="0.05" />
<circle cx="15.87" cy="7.00" r="0.05" />
<circle cx="15.94" cy="7.00" r="0.05" />
<circle cx="16.01" cy="6.00" r="0.05" />
<circle cx="16.08" cy="7.00" r="0.05" />
<circle cx="16.15" cy="6.00" r="0.05" />
<circle cx="16.23" cy="6.00" r="0.05" />
<circle cx="16.30" cy="7.00" r="0.05" />
<circle cx="16.37" cy="6.00" r="0.05" />
<circle cx="16.44" cy="6.00" r="0.05" />
<circle cx="16.51" cy="6.00" r="0.05" />
<circle cx="16.58" cy="5.00" r="0.05" />
<circle cx="16.65" cy="11.00" r="0.05" />
<circle cx="16.73" cy="10.00" r="0.05" />
<circle cx="16.80" cy="10.00" r="0.05" />
<circle cx="16.87" cy="10.00" r="0.05" />
<circle cx="16.94" cy="9.00" r="0.05" />
<circle cx="17.01" cy="10.00" r="0.05" />
<circle cx="17.08" cy="9.00" r="0.05" />
<circle cx="17.16" cy="9.00" r="0.05" />
<circle cx="17.23" cy="10.00" r="0.05" />
<circle cx="17.30" cy="9.00" r="0.05" />
<circle cx="17.37" cy="9.00" r="0.05" />
<circle cx="17.44" cy="9.00" r="0.05" />
<circle cx="17.51" cy="8.00" r="0.05" />
<circle cx="17.58" cy="10.00" r="0.05" />
<circle cx="17.66" cy="9.00" r="0.05" />
<circle cx="17.73" cy="9.00" r="0.05" />
<circle cx="17.80" cy="9.00" r="0.05" />
<circle cx="17.87" cy="8.00" r="0.05" />
</g>
</svg>