<svg xmlns="http://www.w3.org/2000/svg" width="96.4" height="100.0" viewBox="-7.929 -55.984 106.369 110.000">
<g fill="none" stroke="black" stroke-width="0.0125%" transform="translate(0, -1.9682) scale(39.9298, -39.9298)">
<polyline points="-0.073,-0.865 0.126,-0.738 0.248,-0.619 0.327,-0.516 0.382,-0.429 0.421,-0.353 0.451,-0.287 0.475,-0.229 0.496,-0.176 0.514,-0.128 0.531,-0.084 0.547,-0.042 0.563,-0.003 0.579,0.035 0.596,0.070 0.614,0.104 0.633,0.137 0.653,0.169 0.675,0.199 0.699,0.228 0.725,0.256 0.753,0.282 0.784,0.306 0.817,0.328 0.852,0.348 0.890,0.365 0.930,0.379 0.972,0.389 1.017,0.396 1.064,0.398 1.113,0.395 1.162,0.386 1.212,0.372 1.262,0.351 1.312,0.323 1.359,0.288 1.404,0.246 1.445,0.196 1.480,0.139 1.509,0.076 1.531,0.006 1.543,-0.070 1.544,-0.150 1.534,-0.233 1.511,-0.317 1.474,-0.401 1.424,-0.482 1.358,-0.558 1.279,-0.626 1.186,-0.683 1.080,-0.727 0.964,-0.755 0.840,-0.764 0.710,-0.752 0.579,-0.718 0.450,-0.659 0.328,-0.577 0.218,-0.470 0.124,-0.342 0.051,-0.193 0.005,-0.027 -0.012,0.151 0.004,0.335 0.055,0.519 0.142,0.697 0.265,0.861 0.422,1.002 0.608,1.115 0.818,1.192 1.045,1.228 1.281,1.218 1.515,1.160 1.739,1.054 1.940,0.901 2.110,0.707 2.238,0.478 2.317,0.224 2.340,-0.045 2.305,-0.316 2.212,-0.576 2.064,-0.811 1.866,-1.009 1.628,-1.157 1.363,-1.249 1.084,-1.277 0.808,-1.240 0.551,-1.139 0.327,-0.982 0.151,-0.777 0.032,-0.538 -0.020,-0.283 -0.006,-0.027 0.074,0.209 0.212,0.410 0.395,0.561 0.608,0.650 0.832,0.672 1.046,0.625 1.231,0.517 1.369,0.356 1.446,0.161" />
</g>
</svg>