<svg xmlns="http://www.w3.org/2000/svg" width="135" height="99" viewBox="0 0 135 99">
<rect x="0" y="0" width="9" height="9" fill="rgb(253,253,253)"/>
<rect x="0" y="9" width="9" height="9" fill="rgb(250,250,250)"/>
<rect x="0" y="18" width="9" height="9" fill="rgb(249,249,249)"/>
<rect x="0" y="27" width="9" height="9" fill="rgb(240,240,240)"/>
<rect x="0" y="36" width="9" height="9" fill="rgb(238,238,238)"/>
<rect x="0" y="45" width="9" height="9" fill="rgb(223,223,223)"/>
<rect x="0" y="54" width="9" height="9" fill="rgb(221,221,221)"/>
<rect x="0" y="63" width="9" height="9" fill="rgb(199,199,199)"/>
<rect x="0" y="72" width="9" height="9" fill="rgb(198,198,198)"/>
<rect x="0" y="81" width="9" height="9" fill="rgb(170,170,170)"/>
<rect x="0" y="90" width="9" height="9" fill="rgb(168,168,168)"/>
<rect x="9" y="0" width="9" height="9" fill="rgb(252,252,252)"/>
<rect x="9" y="9" width="9" height="9" fill="rgb(247,247,247)"/>
<rect x="9" y="18" width="9" height="9" fill="rgb(241,241,241)"/>
<rect x="9" y="27" width="9" height="9" fill="rgb(236,236,236)"/>
<rect x="9" y="36" width="9" height="9" fill="rgb(224,224,224)"/>
<rect x="9" y="45" width="9" height="9" fill="rgb(219,219,219)"/>
<rect x="9" y="54" width="9" height="9" fill="rgb(201,201,201)"/>
<rect x="9" y="63" width="9" height="9" fill="rgb(196,196,196)"/>
<rect x="9" y="72" width="9" height="9" fill="rgb(172,172,172)"/>
<rect x="9" y="81" width="9" height="9" fill="rgb(167,167,167)"/>
<rect x="9" y="90" width="9" height="9" fill="rgb(136,136,136)"/>
<rect x="18" y="0" width="9" height="9" fill="rgb(246,246,246)"/>
<rect x="18" y="9" width="9" height="9" fill="rgb(243,243,243)"/>
<rect x="18" y="18" width="9" height="9" fill="rgb(235,235,235)"/>
<rect x="18" y="27" width="9" height="9" fill="rgb(226,226,226)"/>
<rect x="18" y="36" width="9" height="9" fill="rgb(218,218,218)"/>
<rect x="18" y="45" width="9" height="9" fill="rgb(202,202,202)"/>
<rect x="18" y="54" width="9" height="9" fill="rgb(195,195,195)"/>
<rect x="18" y="63" width="9" height="9" fill="rgb(173,173,173)"/>
<rect x="18" y="72" width="9" height="9" fill="rgb(165,165,165)"/>
<rect x="18" y="81" width="9" height="9" fill="rgb(138,138,138)"/>
<rect x="18" y="90" width="9" height="9" fill="rgb(134,134,134)"/>
<rect x="27" y="0" width="9" height="9" fill="rgb(244,244,244)"/>
<rect x="27" y="9" width="9" height="9" fill="rgb(233,233,233)"/>
<rect x="27" y="18" width="9" height="9" fill="rgb(227,227,227)"/>
<rect x="27" y="27" width="9" height="9" fill="rgb(216,216,216)"/>
<rect x="27" y="36" width="9" height="9" fill="rgb(204,204,204)"/>
<rect x="27" y="45" width="9" height="9" fill="rgb(193,193,193)"/>
<rect x="27" y="54" width="9" height="9" fill="rgb(175,175,175)"/>
<rect x="27" y="63" width="9" height="9" fill="rgb(164,164,164)"/>
<rect x="27" y="72" width="9" height="9" fill="rgb(139,139,139)"/>
<rect x="27" y="81" width="9" height="9" fill="rgb(133,133,133)"/>
<rect x="27" y="90" width="9" height="9" fill="rgb(102,102,102)"/>
<rect x="36" y="0" width="9" height="9" fill="rgb(232,232,232)"/>
<rect x="36" y="9" width="9" height="9" fill="rgb(229,229,229)"/>
<rect x="36" y="18" width="9" height="9" fill="rgb(215,215,215)"/>
<rect x="36" y="27" width="9" height="9" fill="rgb(206,206,206)"/>
<rect x="36" y="36" width="9" height="9" fill="rgb(192,192,192)"/>
<rect x="36" y="45" width="9" height="9" fill="rgb(176,176,176)"/>
<rect x="36" y="54" width="9" height="9" fill="rgb(162,162,162)"/>
<rect x="36" y="63" width="9" height="9" fill="rgb(141,141,141)"/>
<rect x="36" y="72" width="9" height="9" fill="rgb(131,131,131)"/>
<rect x="36" y="81" width="9" height="9" fill="rgb(104,104,104)"/>
<rect x="36" y="90" width="9" height="9" fill="rgb(100,100,100)"/>
<rect x="45" y="0" width="9" height="9" fill="rgb(230,230,230)"/>
<rect x="45" y="9" width="9" height="9" fill="rgb(213,213,213)"/>
<rect x="45" y="18" width="9" height="9" fill="rgb(207,207,207)"/>
<rect x="45" y="27" width="9" height="9" fill="rgb(190,190,190)"/>
<rect x="45" y="36" width="9" height="9" fill="rgb(178,178,178)"/>
<rect x="45" y="45" width="9" height="9" fill="rgb(161,161,161)"/>
<rect x="45" y="54" width="9" height="9" fill="rgb(142,142,142)"/>
<rect x="45" y="63" width="9" height="9" fill="rgb(130,130,130)"/>
<rect x="45" y="72" width="9" height="9" fill="rgb(105,105,105)"/>
<rect x="45" y="81" width="9" height="9" fill="rgb(99,99,99)"/>
<rect x="45" y="90" width="9" height="9" fill="rgb(70,70,70)"/>
<rect x="54" y="0" width="9" height="9" fill="rgb(212,212,212)"/>
<rect x="54" y="9" width="9" height="9" fill="rgb(209,209,209)"/>
<rect x="54" y="18" width="9" height="9" fill="rgb(189,189,189)"/>
<rect x="54" y="27" width="9" height="9" fill="rgb(179,179,179)"/>
<rect x="54" y="36" width="9" height="9" fill="rgb(159,159,159)"/>
<rect x="54" y="45" width="9" height="9" fill="rgb(144,144,144)"/>
<rect x="54" y="54" width="9" height="9" fill="rgb(128,128,128)"/>
<rect x="54" y="63" width="9" height="9" fill="rgb(107,107,107)"/>
<rect x="54" y="72" width="9" height="9" fill="rgb(97,97,97)"/>
<rect x="54" y="81" width="9" height="9" fill="rgb(71,71,71)"/>
<rect x="54" y="90" width="9" height="9" fill="rgb(68,68,68)"/>
<rect x="63" y="0" width="9" height="9" fill="rgb(210,210,210)"/>
<rect x="63" y="9" width="9" height="9" fill="rgb(187,187,187)"/>
<rect x="63" y="18" width="9" height="9" fill="rgb(181,181,181)"/>
<rect x="63" y="27" width="9" height="9" fill="rgb(158,158,158)"/>
<rect x="63" y="36" width="9" height="9" fill="rgb(145,145,145)"/>
<rect x="63" y="45" width="9" height="9" fill="rgb(127,127,127)"/>
<rect x="63" y="54" width="9" height="9" fill="rgb(108,108,108)"/>
<rect x="63" y="63" width="9" height="9" fill="rgb(96,96,96)"/>
<rect x="63" y="72" width="9" height="9" fill="rgb(73,73,73)"/>
<rect x="63" y="81" width="9" height="9" fill="rgb(66,66,66)"/>
<rect x="63" y="90" width="9" height="9" fill="rgb(43,43,43)"/>
<rect x="72" y="0" width="9" height="9" fill="rgb(185,185,185)"/>
<rect x="72" y="9" width="9" height="9" fill="rgb(182,182,182)"/>
<rect x="72" y="18" width="9" height="9" fill="rgb(156,156,156)"/>
<rect x="72" y="27" width="9" height="9" fill="rgb(147,147,147)"/>
<rect x="72" y="36" width="9" height="9" fill="rgb(125,125,125)"/>
<rect x="72" y="45" width="9" height="9" fill="rgb(110,110,110)"/>
<rect x="72" y="54" width="9" height="9" fill="rgb(94,94,94)"/>
<rect x="72" y="63" width="9" height="9" fill="rgb(74,74,74)"/>
<rect x="72" y="72" width="9" height="9" fill="rgb(65,65,65)"/>
<rect x="72" y="81" width="9" height="9" fill="rgb(45,45,45)"/>
<rect x="72" y="90" width="9" height="9" fill="rgb(42,42,42)"/>
<rect x="81" y="0" width="9" height="9" fill="rgb(184,184,184)"/>
<rect x="81" y="9" width="9" height="9" fill="rgb(155,155,155)"/>
<rect x="81" y="18" width="9" height="9" fill="rgb(148,148,148)"/>
<rect x="81" y="27" width="9" height="9" fill="rgb(124,124,124)"/>
<rect x="81" y="36" width="9" height="9" fill="rgb(111,111,111)"/>
<rect x="81" y="45" width="9" height="9" fill="rgb(93,93,93)"/>
<rect x="81" y="54" width="9" height="9" fill="rgb(76,76,76)"/>
<rect x="81" y="63" width="9" height="9" fill="rgb(63,63,63)"/>
<rect x="81" y="72" width="9" height="9" fill="rgb(46,46,46)"/>
<rect x="81" y="81" width="9" height="9" fill="rgb(40,40,40)"/>
<rect x="81" y="90" width="9" height="9" fill="rgb(23,23,23)"/>
<rect x="90" y="0" width="9" height="9" fill="rgb(153,153,153)"/>
<rect x="90" y="9" width="9" height="9" fill="rgb(150,150,150)"/>
<rect x="90" y="18" width="9" height="9" fill="rgb(122,122,122)"/>
<rect x="90" y="27" width="9" height="9" fill="rgb(113,113,113)"/>
<rect x="90" y="36" width="9" height="9" fill="rgb(91,91,91)"/>
<rect x="90" y="45" width="9" height="9" fill="rgb(77,77,77)"/>
<rect x="90" y="54" width="9" height="9" fill="rgb(62,62,62)"/>
<rect x="90" y="63" width="9" height="9" fill="rgb(48,48,48)"/>
<rect x="90" y="72" width="9" height="9" fill="rgb(39,39,39)"/>
<rect x="90" y="81" width="9" height="9" fill="rgb(25,25,25)"/>
<rect x="90" y="90" width="9" height="9" fill="rgb(22,22,22)"/>
<rect x="99" y="0" width="9" height="9" fill="rgb(151,151,151)"/>
<rect x="99" y="9" width="9" height="9" fill="rgb(121,121,121)"/>
<rect x="99" y="18" width="9" height="9" fill="rgb(114,114,114)"/>
<rect x="99" y="27" width="9" height="9" fill="rgb(90,90,90)"/>
<rect x="99" y="36" width="9" height="9" fill="rgb(79,79,79)"/>
<rect x="99" y="45" width="9" height="9" fill="rgb(60,60,60)"/>
<rect x="99" y="54" width="9" height="9" fill="rgb(49,49,49)"/>
<rect x="99" y="63" width="9" height="9" fill="rgb(37,37,37)"/>
<rect x="99" y="72" width="9" height="9" fill="rgb(26,26,26)"/>
<rect x="99" y="81" width="9" height="9" fill="rgb(20,20,20)"/>
<rect x="99" y="90" width="9" height="9" fill="rgb(9,9,9)"/>
<rect x="108" y="0" width="9" height="9" fill="rgb(119,119,119)"/>
<rect x="108" y="9" width="9" height="9" fill="rgb(116,116,116)"/>
<rect x="108" y="18" width="9" height="9" fill="rgb(88,88,88)"/>
<rect x="108" y="27" width="9" height="9" fill="rgb(80,80,80)"/>
<rect x="108" y="36" width="9" height="9" fill="rgb(59,59,59)"/>
<rect x="108" y="45" width="9" height="9" fill="rgb(51,51,51)"/>
<rect x="108" y="54" width="9" height="9" fill="rgb(36,36,36)"/>
<rect x="108" y="63" width="9" height="9" fill="rgb(28,28,28)"/>
<rect x="108" y="72" width="9" height="9" fill="rgb(19,19,19)"/>
<rect x="108" y="81" width="9" height="9" fill="rgb(11,11,11)"/>
<rect x="108" y="90" width="9" height="9" fill="rgb(8,8,8)"/>
<rect x="117" y="0" width="9" height="9" fill="rgb(117,117,117)"/>
<rect x="117" y="9" width="9" height="9" fill="rgb(87,87,87)"/>
<rect x="117" y="18" width="9" height="9" fill="rgb(82,82,82)"/>
<rect x="117" y="27" width="9" height="9" fill="rgb(57,57,57)"/>
<rect x="117" y="36" width="9" height="9" fill="rgb(53,53,53)"/>
<rect x="117" y="45" width="9" height="9" fill="rgb(34,34,34)"/>
<rect x="117" y="54" width="9" height="9" fill="rgb(29,29,29)"/>
<rect x="117" y="63" width="9" height="9" fill="rgb(17,17,17)"/>
<rect x="117" y="72" width="9" height="9" fill="rgb(12,12,12)"/>
<rect x="117" y="81" width="9" height="9" fill="rgb(6,6,6)"/>
<rect x="117" y="90" width="9" height="9" fill="rgb(2,2,2)"/>
<rect x="126" y="0" width="9" height="9" fill="rgb(85,85,85)"/>
<rect x="126" y="9" width="9" height="9" fill="rgb(83,83,83)"/>
<rect x="126" y="18" width="9" height="9" fill="rgb(56,56,56)"/>
<rect x="126" y="27" width="9" height="9" fill="rgb(54,54,54)"/>
<rect x="126" y="36" width="9" height="9" fill="rgb(32,32,32)"/>
<rect x="126" y="45" width="9" height="9" fill="rgb(31,31,31)"/>
<rect x="126" y="54" width="9" height="9" fill="rgb(15,15,15)"/>
<rect x="126" y="63" width="9" height="9" fill="rgb(14,14,14)"/>
<rect x="126" y="72" width="9" height="9" fill="rgb(5,5,5)"/>
<rect x="126" y="81" width="9" height="9" fill="rgb(3,3,3)"/>
<rect x="126" y="90" width="9" height="9" fill="rgb(0,0,0)"/>
</svg>