<svg xmlns="http://www.w3.org/2000/svg" width="161.8" height="100.0" viewBox="-3.10 -5.00 171.80 110.00">
<g fill="none" stroke="black" stroke-width="0.0550%" transform="translate(0, 100.0000) scale(9.0909, -9.0909)">

<line x1="0.42" y1="0.00" x2="0.42" y2="1.00" />
<line x1="0.63" y1="0.00" x2="0.63" y2="2.00" />

<line x1="1.05" y1="0.00" x2="1.05" y2="1.00" />
<line x1="1.26" y1="0.00" x2="1.26" y2="2.00" />

<line x1="1.68" y1="0.00" x2="1.68" y2="1.00" />
<line x1="1.88" y1="0.00" x2="1.88" y2="2.00" />
<line x1="2.09" y1="0.00" x2="2.09" y2="3.00" />
<line x1="2.30" y1="0.00" x2="2.30" y2="4.00" />
<line x1="2.51" y1="0.00" x2="2.51" y2="5.00" />
<line x1="2.72" y1="0.00" x2="2.72" y2="3.00" />
<line x1="2.93" y1="0.00" x2="2.93" y2="4.00" />
<line x1="3.14" y1="0.00" x2="3.14" y2="5.00" />
<line x1="3.35" y1="0.00" x2="3.35" y2="3.00" />
<line x1="3.56" y1="0.00" x2="3.56" y2="4.00" />
<line x1="3.77" y1="0.00" x2="3.77" y2="5.00" />
<line x1="3.98" y1="0.00" x2="3.98" y2="6.00" />
<line x1="4.19" y1="0.00" x2="4.19" y2="7.00" />
<line x1="4.40" y1="0.00" x2="4.40" y2="8.00" />
<line x1="4.61" y1="0.00" x2="4.61" y2="6.00" />
<line x1="4.82" y1="0.00" x2="4.82" y2="7.00" />
<line x1="5.03" y1="0.00" x2="5.03" y2="8.00" />
<line x1="5.23" y1="0.00" x2="5.23" y2="6.00" />
<line x1="5.44" y1="0.00" x2="5.44" y2="7.00" />
<line x1="5.65" y1="0.00" x2="5.65" y2="8.00" />

<line x1="6.07" y1="0.00" x2="6.07" y2="1.00" />
<line x1="6.28" y1="0.00" x2="6.28" y2="2.00" />

<line x1="6.70" y1="0.00" x2="6.70" y2="1.00" />
<line x1="6.91" y1="0.00" x2="6.91" y2="2.00" />

<line x1="7.33" y1="0.00" x2="7.33" y2="1.00" />
<line x1="7.54" y1="0.00" x2="7.54" y2="2.00" />
<line x1="7.75" y1="0.00" x2="7.75" y2="3.00" />
<line x1="7.96" y1="0.00" x2="7.96" y2="4.00" />
<line x1="8.17" y1="0.00" x2="8.17" y2="5.00" />
<line x1="8.38" y1="0.00" x2="8.38" y2="3.00" />
<line x1="8.59" y1="0.00" x2="8.59" y2="4.00" />
<line x1="8.79" y1="0.00" x2="8.79" y2="5.00" />
<line x1="9.00" y1="0.00" x2="9.00" y2="3.00" />
<line x1="9.21" y1="0.00" x2="9.21" y2="4.00" />
<line x1="9.42" y1="0.00" x2="9.42" y2="5.00" />
<line x1="9.63" y1="0.00" x2="9.63" y2="6.00" />
<line x1="9.84" y1="0.00" x2="9.84" y2="7.00" />
<line x1="10.05" y1="0.00" x2="10.05" y2="8.00" />
<line x1="10.26" y1="0.00" x2="10.26" y2="6.00" />
<line x1="10.47" y1="0.00" x2="10.47" y2="7.00" />
<line x1="10.68" y1="0.00" x2="10.68" y2="8.00" />
<line x1="10.89" y1="0.00" x2="10.89" y2="6.00" />
<line x1="11.10" y1="0.00" x2="11.10" y2="7.00" />
<line x1="11.31" y1="0.00" x2="11.31" y2="8.00" />

<line x1="11.73" y1="0.00" x2="11.73" y2="1.00" />
<line x1="11.94" y1="0.00" x2="11.94" y2="2.00" />

<line x1="12.35" y1="0.00" x2="12.35" y2="1.00" />
<line x1="12.56" y1="0.00" x2="12.56" y2="2.00" />

<line x1="12.98" y1="0.00" x2="12.98" y2="1.00" />
<line x1="13.19" y1="0.00" x2="13.19" y2="2.00" />
<line x1="13.40" y1="0.00" x2="13.40" y2="3.00" />
<line x1="13.61" y1="0.00" x2="13.61" y2="4.00" />
<line x1="13.82" y1="0.00" x2="13.82" y2="5.00" />
<line x1="14.03" y1="0.00" x2="14.03" y2="3.00" />
<line x1="14.24" y1="0.00" x2="14.24" y2="4.00" />
<line x1="14.45" y1="0.00" x2="14.45" y2="5.00" />
<line x1="14.66" y1="0.00" x2="14.66" y2="3.00" />
<line x1="14.87" y1="0.00" x2="14.87" y2="4.00" />
<line x1="15.08" y1="0.00" x2="15.08" y2="5.00" />
<line x1="15.29" y1="0.00" x2="15.29" y2="6.00" />
<line x1="15.50" y1="0.00" x2="15.50" y2="7.00" />
<line x1="15.70" y1="0.00" x2="15.70" y2="8.00" />
<line x1="15.91" y1="0.00" x2="15.91" y2="6.00" />
<line x1="16.12" y1="0.00" x2="16.12" y2="7.00" />
<line x1="16.33" y1="0.00" x2="16.33" y2="8.00" />
<line x1="16.54" y1="0.00" x2="16.54" y2="6.00" />
<line x1="16.75" y1="0.00" x2="16.75" y2="7.00" />
<line x1="16.96" y1="0.00" x2="16.96" y2="8.00" />
<line x1="17.17" y1="0.00" x2="17.17" y2="9.00" />
<line x1="17.38" y1="0.00" x2="17.38" y2="10.00" />
<line x1="17.59" y1="0.00" x2="17.59" y2="11.00" />
<line x1="17.80" y1="0.00" x2="17.80" y2="9.00" />
<line x1="18.01" y1="0.00" x2="18.01" y2="10.00" />
</g>
</svg>